# https://github.com/mikedh/trimesh
v -0.02202336 -0.02478660 -0.00604435
v -0.02180687 -0.02476598 0.00615072
v -0.02384438 -0.02168597 0.07216364
v -0.02505542 -0.02213444 -0.02606932
v -0.02649950 -0.02070139 -0.04286888
v -0.01974390 -0.02070139 -0.04286888
v -0.02141338 -0.02452628 0.03930534
v -0.02377816 -0.02168597 0.07260813
v -0.02487841 -0.02058026 0.07260813
v -0.02491534 -0.02060861 0.07216364
v -0.02582330 -0.02136637 -0.02606932
v -0.02128094 -0.02433040 0.05632145
v -0.02128094 -0.02424792 0.06061821
v -0.02937366 -0.01606978 -0.04286888
v -0.02788118 0.00000299 -0.04286888
v -0.02923485 0.00154428 0.06493777
v -0.02063276 -0.02168597 0.07013492
v -0.02370684 -0.02168597 0.07282467
v -0.02484021 -0.02054933 0.07282467
v -0.02810531 -0.01537388 0.07260813
v -0.02814606 -0.01539450 0.07216364
v -0.02067478 -0.02168597 0.07140002
v -0.02077920 -0.02168597 0.07241437
v -0.02097786 -0.02168597 0.07301843
v -0.02126566 -0.02168597 0.07333755
v -0.02145540 -0.02168597 0.07342873
v -0.02162859 -0.02168597 0.07349711
v -0.02206156 -0.02168597 0.07356550
v -0.02254674 -0.02168597 0.07353131
v -0.02300263 -0.02168597 0.07344013
v -0.02319492 -0.02168597 0.07337174
v -0.02349673 -0.02168597 0.07315519
v -0.03162510 -0.00992780 -0.04286888
v -0.03030454 -0.00951799 0.07216364
v -0.03275082 0.00000299 -0.04286888
v -0.02930489 0.00154428 0.06062961
v -0.02928834 0.00154428 0.06156419
v -0.03132839 0.00154428 0.06493777
v -0.03015300 -0.00001248 0.07356550
v -0.02985502 -0.00001248 0.07349711
v -0.02960670 -0.00001248 0.07333755
v -0.02940931 -0.00001248 0.07301843
v -0.02927305 -0.00001248 0.07241437
v -0.02472432 -0.02045654 0.07315519
v -0.02806074 -0.01534810 0.07282467
v -0.02793212 -0.01527594 0.07315519
v -0.03021158 -0.00948964 0.07282467
v -0.03025997 -0.00950252 0.07260813
v -0.02394116 -0.01980446 0.07356550
v -0.02420476 -0.02002354 0.07353131
v -0.02445563 -0.02022973 0.07344013
v -0.02455878 -0.02031736 0.07337174
v -0.03266423 -0.00386829 -0.04286888
v -0.03138315 -0.00322136 0.07216364
v -0.03133730 -0.00321363 0.07260813
v -0.03275082 -0.00335796 -0.04286888
v -0.03138315 -0.00001248 0.07216364
v -0.03138442 0.00154428 0.06062961
v -0.03133730 -0.00001248 0.07260813
v -0.03131311 -0.00001248 0.07272210
v -0.03128764 -0.00001248 0.07282467
v -0.03121760 -0.00001248 0.07299564
v -0.03114374 -0.00001248 0.07315519
v -0.03093489 -0.00001248 0.07337174
v -0.03080373 -0.00001248 0.07344013
v -0.03048792 -0.00001248 0.07353131
v -0.03015300 -0.00309249 0.07356550
v -0.02774493 -0.01517799 0.07337174
v -0.03007277 -0.00944324 0.07315519
v -0.03128764 -0.00320847 0.07282467
v -0.03114374 -0.00319816 0.07315519
v -0.02704326 -0.01479138 0.07356550
v -0.02734379 -0.01495376 0.07353131
v -0.02762650 -0.01510840 0.07344013
v -0.03093489 -0.00317239 0.07337174
v -0.03080373 -0.00316208 0.07344013
v -0.03048792 -0.00312857 0.07353131
v -0.02911769 -0.00914168 0.07356550
v -0.02944242 -0.00924736 0.07353131
v -0.02974423 -0.00934015 0.07344013
v -0.02987030 -0.00937881 0.07337174
f 1 2 3
f 1 3 4
f 1 4 5
f 1 5 6
f 1 6 2
f 2 7 3
f 2 6 7
f 3 8 9
f 3 9 10
f 3 10 11
f 3 11 4
f 3 7 12
f 3 12 13
f 3 13 8
f 4 11 5
f 5 14 33
f 5 33 53
f 5 53 56
f 5 56 35
f 5 35 15
f 5 15 6
f 5 11 10
f 5 10 14
f 6 15 16
f 6 16 17
f 6 17 13
f 6 13 12
f 6 12 7
f 8 13 18
f 8 18 19
f 8 19 9
f 9 19 20
f 9 20 10
f 10 20 21
f 10 21 14
f 13 17 22
f 13 22 23
f 13 23 24
f 13 24 25
f 13 25 26
f 13 26 27
f 13 27 28
f 13 28 29
f 13 29 30
f 13 30 31
f 13 31 32
f 13 32 18
f 14 21 34
f 14 34 33
f 15 35 58
f 15 58 36
f 15 36 37
f 15 37 16
f 16 37 36
f 16 36 58
f 16 58 38
f 16 38 39
f 16 39 40
f 16 40 41
f 16 41 42
f 16 42 43
f 16 43 22
f 16 22 17
f 18 32 44
f 18 44 19
f 19 45 20
f 19 44 46
f 19 46 45
f 20 45 47
f 20 47 48
f 20 48 34
f 20 34 21
f 22 43 23
f 23 43 42
f 23 42 24
f 24 42 41
f 24 41 25
f 25 41 40
f 25 40 26
f 26 40 27
f 27 40 39
f 27 39 28
f 28 39 67
f 28 67 78
f 28 78 72
f 28 72 49
f 28 49 29
f 29 49 50
f 29 50 51
f 29 51 30
f 30 51 31
f 31 52 44
f 31 44 32
f 31 51 52
f 33 34 53
f 34 54 53
f 34 48 55
f 34 55 54
f 35 56 54
f 35 54 57
f 35 57 58
f 38 58 57
f 38 57 59
f 38 59 60
f 38 60 61
f 38 61 62
f 38 62 63
f 38 63 64
f 38 64 65
f 38 65 66
f 38 66 39
f 39 66 77
f 39 77 67
f 44 52 68
f 44 68 46
f 45 46 47
f 46 69 47
f 46 68 69
f 47 70 48
f 47 69 71
f 47 71 70
f 48 70 55
f 49 72 73
f 49 73 50
f 50 73 51
f 51 74 68
f 51 68 52
f 51 73 74
f 53 54 56
f 54 55 59
f 54 59 57
f 55 70 60
f 55 60 59
f 60 70 61
f 61 70 62
f 62 70 71
f 62 71 63
f 63 71 75
f 63 75 64
f 64 75 76
f 64 76 65
f 65 76 77
f 65 77 66
f 67 77 79
f 67 79 78
f 68 74 80
f 68 80 81
f 68 81 69
f 69 81 75
f 69 75 71
f 72 78 79
f 72 79 73
f 73 79 74
f 74 79 80
f 75 81 80
f 75 80 76
f 76 80 79
f 76 79 77

