# https://github.com/mikedh/trimesh
v -0.03210213 -0.00000515 0.00615234
v -0.03278064 0.00000942 -0.04496029
v -0.03278464 0.00000942 -0.04533269
v -0.03018792 -0.00000515 0.00615234
v -0.03188352 -0.00000515 0.02257309
v -0.03138497 -0.00000029 0.07216119
v -0.03278464 0.00336552 -0.04533269
v -0.03138497 0.00322224 0.07216119
v -0.02722063 0.00000942 -0.04533269
v -0.02993598 -0.00000515 0.02257309
v -0.03143829 -0.00000272 0.05633396
v -0.03133832 -0.00000029 0.07261506
v -0.03165557 0.00993929 -0.04533269
v -0.03030523 0.00951917 0.07216119
v -0.03133832 0.00321495 0.07261506
v -0.03026124 0.00950217 0.07261506
v -0.01950247 0.01998816 -0.04533269
v -0.02917216 -0.00000029 0.07013624
v -0.02937345 -0.00000272 0.05633396
v -0.03015593 -0.00000029 0.07355771
v -0.03049052 -0.00000029 0.07352280
v -0.03080511 -0.00000029 0.07344134
v -0.03093574 -0.00000029 0.07337151
v -0.03114503 -0.00000029 0.07315040
v -0.03128899 -0.00000029 0.07282454
v -0.03131432 -0.00000029 0.07271980
v -0.02940278 0.01608323 -0.04533269
v -0.02810575 0.01537656 0.07261506
v -0.02814574 0.01539841 0.07216119
v -0.03128899 0.00321010 0.07282454
v -0.03021192 0.00948760 0.07282454
v -0.02806176 0.01535227 0.07282454
v -0.01916655 0.02127765 -0.04286550
v -0.02073017 0.02167835 0.06493420
v -0.02698069 0.01998816 -0.04533269
v -0.02919882 -0.00000029 0.07139311
v -0.02923482 -0.00000029 0.07189352
v -0.02927347 -0.00000029 0.07240559
v -0.02940678 -0.00000029 0.07302238
v -0.02960673 -0.00000029 0.07333659
v -0.02985600 -0.00000029 0.07349953
v -0.02223782 0.02124123 0.07352280
v -0.02250842 0.02124123 0.07355771
v -0.03015593 0.00309596 0.07355771
v -0.02207386 0.02124123 0.07349953
v -0.03049052 0.00312753 0.07352280
v -0.03080511 0.00315910 0.07344134
v -0.03093574 0.00317610 0.07337151
v -0.03114503 0.00319553 0.07315040
v -0.02491451 0.02061226 0.07216119
v -0.02483986 0.02055398 0.07282454
v -0.02487985 0.02058312 0.07261506
v -0.03007328 0.00944389 0.07315040
v -0.02793113 0.01527942 0.07315040
v -0.02472389 0.02045927 0.07315040
v -0.02613822 0.02127765 -0.04286550
v -0.02201120 0.02479646 -0.00604393
v -0.02073017 0.02480374 0.06061662
v -0.02073017 0.02472118 0.06493420
v -0.02112075 0.02124123 0.07139311
v -0.02122472 0.02124123 0.07240559
v -0.02142468 0.02124123 0.07302238
v -0.02171128 0.02124123 0.07333659
v -0.02118207 0.02420149 0.06925178
v -0.02299230 0.02124123 0.07352280
v -0.02393874 0.01980845 0.07355771
v -0.02911884 0.00914276 0.07355771
v -0.02944143 0.00924233 0.07352280
v -0.02974536 0.00933947 0.07344134
v -0.02987200 0.00938075 0.07337151
v -0.02428133 0.02124123 0.07223102
v -0.02428933 0.02124123 0.07216119
v -0.02582363 0.02136751 -0.02608399
v -0.02415469 0.02124123 0.07282454
v -0.02422401 0.02124123 0.07261506
v -0.02774584 0.01517500 0.07337151
v -0.02456126 0.02032085 0.07337151
v -0.02394274 0.02124123 0.07315040
v -0.02505181 0.02213975 -0.02608399
v -0.02364148 0.02124123 0.07337151
v -0.02344953 0.02124123 0.07344134
v -0.02445595 0.02023586 0.07344134
v -0.02420401 0.02002701 0.07352280
v -0.02734460 0.01496129 0.07352280
v -0.02704467 0.01479616 0.07355771
v -0.02762587 0.01511429 0.07344134
f 1 2 3
f 1 3 9
f 1 9 4
f 1 4 10
f 1 10 5
f 1 5 6
f 1 6 2
f 2 7 3
f 2 6 8
f 2 8 7
f 3 7 13
f 3 13 27
f 3 27 35
f 3 35 17
f 3 17 9
f 4 9 10
f 5 10 19
f 5 19 11
f 5 11 6
f 6 12 15
f 6 15 8
f 6 11 12
f 7 8 14
f 7 14 13
f 8 15 16
f 8 16 14
f 9 17 18
f 9 18 19
f 9 19 10
f 11 19 20
f 11 20 21
f 11 21 22
f 11 22 23
f 11 23 24
f 11 24 25
f 11 25 26
f 11 26 12
f 12 26 15
f 13 14 27
f 14 16 28
f 14 28 29
f 14 29 27
f 15 26 30
f 15 30 16
f 16 30 31
f 16 31 32
f 16 32 28
f 17 33 34
f 17 34 18
f 17 35 56
f 17 56 33
f 18 34 36
f 18 36 19
f 19 36 37
f 19 37 38
f 19 38 39
f 19 39 40
f 19 40 41
f 19 41 20
f 20 42 43
f 20 43 66
f 20 66 85
f 20 85 67
f 20 67 44
f 20 44 46
f 20 46 21
f 20 41 45
f 20 45 42
f 21 46 47
f 21 47 22
f 22 47 48
f 22 48 23
f 23 48 49
f 23 49 24
f 24 49 30
f 24 30 25
f 25 30 26
f 27 29 50
f 27 50 35
f 28 32 51
f 28 51 52
f 28 52 29
f 29 52 50
f 30 49 53
f 30 53 31
f 31 53 32
f 32 53 54
f 32 54 55
f 32 55 51
f 33 56 57
f 33 57 58
f 33 58 59
f 33 59 34
f 34 59 60
f 34 60 36
f 35 50 56
f 36 60 37
f 37 60 38
f 38 60 61
f 38 61 39
f 39 61 62
f 39 62 40
f 40 63 41
f 40 62 63
f 41 63 45
f 42 45 64
f 42 64 43
f 43 65 66
f 43 64 65
f 44 67 46
f 45 63 64
f 46 67 68
f 46 68 69
f 46 69 47
f 47 69 70
f 47 70 48
f 48 70 49
f 49 70 53
f 50 52 71
f 50 71 72
f 50 72 73
f 50 73 56
f 51 74 75
f 51 75 52
f 51 55 74
f 52 75 71
f 53 70 76
f 53 76 54
f 54 76 77
f 54 77 55
f 55 77 78
f 55 78 74
f 56 73 79
f 56 79 57
f 57 79 72
f 57 72 58
f 58 72 59
f 59 72 64
f 59 64 61
f 59 61 60
f 61 64 62
f 62 64 63
f 64 72 71
f 64 71 75
f 64 75 74
f 64 74 78
f 64 78 80
f 64 80 81
f 64 81 65
f 65 81 82
f 65 82 83
f 65 83 66
f 66 83 84
f 66 84 85
f 67 85 84
f 67 84 68
f 68 84 69
f 69 84 86
f 69 86 76
f 69 76 70
f 72 79 73
f 76 86 77
f 77 80 78
f 77 86 82
f 77 82 80
f 80 82 81
f 82 86 84
f 82 84 83

