# https://github.com/mikedh/trimesh
v 0.00336160 0.03280447 -0.04791363
v 0.00335977 0.03278838 -0.05229503
v 0.00000758 0.03279803 -0.04968311
v 0.00000758 0.03280447 -0.04791363
v 0.00441671 0.03262431 -0.04791363
v 0.00993408 0.03166080 -0.05229503
v 0.00756008 0.03193586 -0.05353069
v 0.00334694 0.03265809 -0.05353069
v 0.00000758 0.03278838 -0.05229503
v -0.00000341 0.03265809 -0.05353069
v 0.00000758 0.02653117 -0.04791363
v 0.00993775 0.03167688 -0.04791363
v 0.01608709 0.02940563 -0.05229503
v 0.01602298 0.02928981 -0.05353069
v 0.01383764 0.03009087 -0.05352955
v 0.00987180 0.03146616 -0.05420853
v 0.00333962 0.03258571 -0.05420853
v -0.00000341 0.03258571 -0.05420853
v -0.00000341 0.02502880 -0.05353069
v 0.01758367 0.01637165 -0.05959127
v 0.01870839 0.01760058 -0.05352955
v 0.01870839 0.01978175 -0.04791363
v 0.01609442 0.02942011 -0.04791363
v 0.01870839 0.02780031 -0.04791363
v 0.01870839 0.02779066 -0.05001688
v 0.01870839 0.02777940 -0.05229503
v 0.01870839 0.02770380 -0.05289743
v 0.01598817 0.02922386 -0.05420853
v 0.01870839 0.02762337 -0.05352955
v 0.00972343 0.03098843 -0.05579969
v 0.01574454 0.02878152 -0.05579969
v 0.00329016 0.03209028 -0.05579969
v -0.00000341 0.03233638 -0.05501211
v -0.00000341 0.02471996 -0.05468291
v 0.01758367 0.02494033 -0.05959127
v -0.00000341 0.02340900 -0.05959127
v 0.01758367 0.02823301 -0.05420853
v 0.01758367 0.02804802 -0.05470806
v 0.01758367 0.02764106 -0.05579969
v 0.01758367 0.02542289 -0.05899916
v 0.01758367 0.02601805 -0.05826759
v 0.01758367 0.02667755 -0.05733141
v 0.01758367 0.02718907 -0.05660442
v 0.01758367 0.02747860 -0.05609118
v 0.00960802 0.03062490 -0.05660442
v 0.00324986 0.03171549 -0.05660442
v 0.01556136 0.02844372 -0.05660442
v -0.00000341 0.03190208 -0.05620548
v -0.00000341 0.03209028 -0.05579969
v 0.01638933 0.02568186 -0.05959127
v -0.00000341 0.02984476 -0.05959127
v 0.01508326 0.02756868 -0.05826759
v 0.00931494 0.02968230 -0.05826759
v 0.00315094 0.03074071 -0.05826759
v -0.00000341 0.03122167 -0.05744801
v -0.00000341 0.03171549 -0.05660442
v 0.01464363 0.02676441 -0.05959127
v -0.00000341 0.03074071 -0.05826759
v 0.00305935 0.02984476 -0.05959127
v 0.00904383 0.02881690 -0.05959127
v 0.00516592 0.02948445 -0.05959127
f 1 2 3
f 1 3 4
f 1 4 11
f 1 11 22
f 1 22 24
f 1 24 23
f 1 23 12
f 1 12 5
f 1 5 2
f 2 5 6
f 2 6 7
f 2 7 8
f 2 8 10
f 2 10 9
f 2 9 3
f 3 9 10
f 3 10 4
f 4 10 19
f 4 19 11
f 5 12 6
f 6 12 13
f 6 13 14
f 6 14 15
f 6 15 16
f 6 16 7
f 7 16 8
f 8 16 17
f 8 17 18
f 8 18 10
f 10 18 33
f 10 33 49
f 10 49 48
f 10 48 56
f 10 56 55
f 10 55 58
f 10 58 51
f 10 51 36
f 10 36 34
f 10 34 19
f 11 19 20
f 11 20 21
f 11 21 22
f 12 23 13
f 13 23 24
f 13 24 25
f 13 25 26
f 13 26 27
f 13 27 14
f 14 28 16
f 14 16 15
f 14 27 29
f 14 29 28
f 16 30 17
f 16 28 31
f 16 31 30
f 17 30 32
f 17 32 33
f 17 33 18
f 19 34 20
f 20 35 29
f 20 29 21
f 20 34 36
f 20 36 51
f 20 51 59
f 20 59 61
f 20 61 60
f 20 60 57
f 20 57 50
f 20 50 35
f 21 29 27
f 21 27 26
f 21 26 25
f 21 25 24
f 21 24 22
f 28 29 37
f 28 37 38
f 28 38 39
f 28 39 31
f 29 35 40
f 29 40 41
f 29 41 42
f 29 42 43
f 29 43 44
f 29 44 39
f 29 39 38
f 29 38 37
f 30 45 46
f 30 46 32
f 30 31 47
f 30 47 45
f 31 39 44
f 31 44 47
f 32 46 48
f 32 48 49
f 32 49 33
f 35 50 40
f 40 50 41
f 41 50 52
f 41 52 42
f 42 52 47
f 42 47 43
f 43 47 44
f 45 47 53
f 45 53 54
f 45 54 46
f 46 54 55
f 46 55 56
f 46 56 48
f 47 52 53
f 50 57 52
f 51 58 54
f 51 54 59
f 52 57 60
f 52 60 53
f 53 60 61
f 53 61 54
f 54 61 59
f 54 58 55

