# https://github.com/mikedh/trimesh
v -0.00000254 -0.02984438 -0.05959127
v -0.00000254 -0.02340983 -0.05959127
v 0.00305957 -0.02984438 -0.05959127
v -0.00000254 -0.03074066 -0.05826707
v -0.00000254 -0.02473497 -0.05462839
v 0.01755630 -0.01639704 -0.05959127
v 0.00904499 -0.02881800 -0.05959127
v 0.00315212 -0.03074066 -0.05826707
v -0.00000254 -0.03171564 -0.05660405
v -0.00000254 -0.02502891 -0.05352844
v 0.01977735 -0.01871161 -0.04791574
v 0.02780146 -0.01871161 -0.04791574
v 0.02779329 -0.01871161 -0.04958040
v 0.02777968 -0.01871161 -0.05229263
v 0.02762453 -0.01871161 -0.05352680
v 0.01755630 -0.02495823 -0.05959127
v -0.00000254 -0.02787836 -0.04286938
v 0.01101563 -0.02809681 -0.05959127
v 0.00931717 -0.02968215 -0.05826707
v 0.00961114 -0.03062501 -0.05660405
v 0.00325011 -0.03171564 -0.05660405
v -0.00000254 -0.03190357 -0.05620466
v 0.02045510 -0.01999017 -0.04286938
v 0.02694406 -0.01999017 -0.04286938
v 0.02698217 -0.01999017 -0.04533445
v 0.02602135 -0.02153857 -0.04533445
v 0.02603768 -0.02155142 -0.04791574
v 0.02602407 -0.02154018 -0.05229263
v 0.02592064 -0.02145505 -0.05352680
v 0.01755630 -0.02544653 -0.05899055
v 0.01464389 -0.02676524 -0.05959127
v -0.00000254 -0.03275005 -0.04286938
v 0.01508211 -0.02756836 -0.05826707
v 0.01556116 -0.02844536 -0.05660405
v 0.00972546 -0.03098802 -0.05580036
v 0.00328821 -0.03209150 -0.05580036
v -0.00000254 -0.03209150 -0.05580036
v 0.02599413 -0.02151930 -0.04286938
v 0.02190587 -0.02565373 -0.04533445
v 0.02226515 -0.02531963 -0.04791574
v 0.02153569 -0.02602316 -0.05229263
v 0.02304361 -0.02433020 -0.05352680
v 0.01755630 -0.02603280 -0.05826707
v -0.00000254 -0.03278378 -0.04533445
v 0.00336170 -0.03275005 -0.04286938
v 0.01755630 -0.02670099 -0.05732098
v 0.01755630 -0.02720695 -0.05660405
v 0.01755630 -0.02749768 -0.05608681
v 0.01755630 -0.02765831 -0.05580036
v 0.01574625 -0.02878106 -0.05580036
v 0.00987516 -0.03146667 -0.05420936
v 0.00333993 -0.03258461 -0.05420936
v -0.00000254 -0.03258461 -0.05420936
v 0.02170173 -0.02580954 -0.04286938
v 0.02153569 -0.02602156 -0.04533445
v 0.02154658 -0.02603601 -0.04791574
v 0.01949156 -0.02731618 -0.04707768
v 0.01608649 -0.02940427 -0.05229263
v 0.01602388 -0.02928863 -0.05352844
v 0.01951605 -0.02712182 -0.05352680
v 0.02144859 -0.02591876 -0.05352680
v -0.00000254 -0.03265849 -0.05352844
v 0.00000018 -0.03280466 -0.04791574
v 0.00000018 -0.03280627 -0.04749671
v 0.00000018 -0.03280627 -0.04707768
v 0.00336715 -0.03280627 -0.04707768
v 0.00994048 -0.03165621 -0.04533445
v 0.00992960 -0.03162408 -0.04286938
v 0.01755630 -0.02806950 -0.05469877
v 0.01598850 -0.02922438 -0.05420936
v 0.00994048 -0.03165942 -0.05229263
v 0.00334809 -0.03265849 -0.05352844
v 0.01384366 -0.03009013 -0.05352680
v 0.02151392 -0.02599586 -0.04286938
v 0.01607016 -0.02937215 -0.04286938
v 0.01608377 -0.02940267 -0.04533445
v 0.01609465 -0.02942194 -0.04707768
v 0.01696838 -0.02887743 -0.04791574
v 0.01609465 -0.02941873 -0.04791574
v 0.00994593 -0.03167548 -0.04791574
v 0.01755630 -0.02825100 -0.05420936
v 0.00001107 -0.03278699 -0.05229263
v 0.00336715 -0.03280466 -0.04791574
v 0.00994593 -0.03167709 -0.04707768
v 0.00336442 -0.03278699 -0.05229263
f 1 2 6
f 1 6 16
f 1 16 31
f 1 31 18
f 1 18 7
f 1 7 3
f 1 3 8
f 1 8 4
f 1 4 9
f 1 9 22
f 1 22 37
f 1 37 53
f 1 53 62
f 1 62 44
f 1 44 32
f 1 32 17
f 1 17 10
f 1 10 5
f 1 5 2
f 2 5 6
f 3 7 8
f 4 8 21
f 4 21 9
f 5 10 6
f 6 11 12
f 6 12 13
f 6 13 14
f 6 14 15
f 6 15 16
f 6 10 17
f 6 17 11
f 7 18 19
f 7 19 8
f 8 19 20
f 8 20 21
f 9 21 22
f 11 23 24
f 11 24 12
f 11 17 23
f 12 24 25
f 12 25 26
f 12 26 27
f 12 27 28
f 12 28 13
f 13 28 14
f 14 28 15
f 15 28 29
f 15 29 16
f 16 29 30
f 16 30 31
f 17 32 45
f 17 45 68
f 17 68 75
f 17 75 74
f 17 74 54
f 17 54 38
f 17 38 24
f 17 24 23
f 18 31 33
f 18 33 19
f 19 33 34
f 19 34 20
f 20 35 21
f 20 34 35
f 21 35 36
f 21 36 22
f 22 36 37
f 24 38 26
f 24 26 25
f 26 38 39
f 26 39 27
f 27 39 40
f 27 40 28
f 28 40 41
f 28 41 42
f 28 42 29
f 29 42 43
f 29 43 30
f 30 43 33
f 30 33 31
f 32 44 45
f 33 43 46
f 33 46 34
f 34 46 47
f 34 47 48
f 34 48 49
f 34 49 50
f 34 50 35
f 35 51 36
f 35 50 51
f 36 51 52
f 36 52 53
f 36 53 37
f 38 54 39
f 39 54 55
f 39 55 56
f 39 56 40
f 40 56 41
f 41 56 57
f 41 57 58
f 41 58 59
f 41 59 60
f 41 60 61
f 41 61 42
f 42 61 43
f 43 61 46
f 44 62 63
f 44 63 64
f 44 64 65
f 44 65 66
f 44 66 45
f 45 66 67
f 45 67 68
f 46 61 47
f 47 61 48
f 48 61 49
f 49 61 69
f 49 69 50
f 50 69 70
f 50 70 51
f 51 71 72
f 51 72 52
f 51 70 73
f 51 73 71
f 52 72 62
f 52 62 53
f 54 74 55
f 55 74 75
f 55 75 76
f 55 76 57
f 55 57 56
f 57 76 77
f 57 77 78
f 57 78 58
f 58 78 79
f 58 79 80
f 58 80 71
f 58 71 73
f 58 73 59
f 59 73 70
f 59 70 60
f 60 70 81
f 60 81 61
f 61 81 69
f 62 82 63
f 62 72 85
f 62 85 82
f 63 82 85
f 63 85 83
f 63 83 64
f 64 83 66
f 64 66 65
f 66 83 80
f 66 80 84
f 66 84 67
f 67 84 77
f 67 77 76
f 67 76 75
f 67 75 68
f 69 81 70
f 71 80 83
f 71 83 85
f 71 85 72
f 77 79 78
f 77 84 80
f 77 80 79

