# https://github.com/mikedh/trimesh
v -0.03280900 0.00000735 -0.04707755
v -0.03278812 0.00001004 -0.05229602
v -0.03280418 0.00000735 -0.04791496
v -0.03265800 -0.00000341 -0.05352981
v -0.03278490 0.00000735 -0.04533294
v -0.03280900 0.00336395 -0.04707755
v -0.03278812 0.00336126 -0.05229602
v -0.03258411 -0.00000341 -0.05420811
v -0.02502789 -0.00000341 -0.05352981
v -0.03265800 0.00334781 -0.05352981
v -0.02722215 0.00000735 -0.04533294
v -0.03278490 0.00336126 -0.04533294
v -0.03165725 0.00993729 -0.04533294
v -0.03167974 0.00994536 -0.04707755
v -0.03167653 0.00994536 -0.04791496
v -0.03166047 0.00993460 -0.05229602
v -0.03146610 0.00987274 -0.05420811
v -0.03233674 -0.00000341 -0.05501203
v -0.03258411 0.00333974 -0.05420811
v -0.02476606 -0.00000341 -0.05450958
v -0.01639864 0.01755688 -0.05959127
v -0.01760179 0.01870802 -0.05352841
v -0.01924507 0.02024108 -0.04533294
v -0.03161870 0.01004487 -0.04533294
v -0.02942284 0.01609643 -0.04707755
v -0.02941962 0.01609643 -0.04791496
v -0.02940517 0.01608568 -0.05229602
v -0.03008947 0.01383718 -0.05352981
v -0.02922365 0.01598616 -0.05420811
v -0.02878030 0.01574410 -0.05579919
v -0.03098741 0.00972481 -0.05579919
v -0.03209097 0.00329133 -0.05579919
v -0.03209097 -0.00000341 -0.05579919
v -0.02341031 -0.00000341 -0.05959127
v -0.02495882 0.01755688 -0.05959127
v -0.01924507 0.02746799 -0.04791496
v -0.01924507 0.02747068 -0.04756046
v -0.01924507 0.02747337 -0.04707755
v -0.01924507 0.02745723 -0.04606987
v -0.01924507 0.02744379 -0.04533294
v -0.02940195 0.01608568 -0.04533294
v -0.02602222 0.02153477 -0.04533294
v -0.02603828 0.02154822 -0.04707755
v -0.02603828 0.02154553 -0.04791496
v -0.02777955 0.01870802 -0.05229602
v -0.02766068 0.01870802 -0.05323671
v -0.02825021 0.01755688 -0.05420811
v -0.02806869 0.01755688 -0.05469800
v -0.02765747 0.01755688 -0.05579919
v -0.02844297 0.01556121 -0.05660311
v -0.03062438 0.00961185 -0.05660311
v -0.03171508 0.00325098 -0.05660311
v -0.03190302 -0.00000341 -0.05620394
v -0.02984370 -0.00000341 -0.05959127
v -0.02676434 0.01464137 -0.05959127
v -0.02756591 0.01507977 -0.05826677
v -0.02603185 0.01755688 -0.05826677
v -0.02155178 0.02603713 -0.04791496
v -0.02155338 0.02603982 -0.04707755
v -0.02153732 0.02602100 -0.04533294
v -0.02176542 0.02579507 -0.04533294
v -0.02531864 0.02226634 -0.04791496
v -0.02762213 0.01870802 -0.05352841
v -0.02749684 0.01755688 -0.05608530
v -0.02720448 0.01755688 -0.05660311
v -0.02670009 0.01755688 -0.05732049
v -0.02968146 0.00931599 -0.05826677
v -0.03074003 0.00315147 -0.05826677
v -0.03171508 -0.00000341 -0.05660311
v -0.03074003 -0.00000341 -0.05826677
v -0.02984370 0.00306002 -0.05959127
v -0.02809439 0.01101581 -0.05959127
v -0.02881564 0.00904435 -0.05959127
f 1 2 3
f 1 3 4
f 1 4 5
f 1 5 12
f 1 12 6
f 1 6 7
f 1 7 2
f 2 4 3
f 2 7 10
f 2 10 4
f 4 8 18
f 4 18 33
f 4 33 53
f 4 53 69
f 4 69 70
f 4 70 54
f 4 54 34
f 4 34 20
f 4 20 9
f 4 9 11
f 4 11 5
f 4 10 19
f 4 19 8
f 5 11 23
f 5 23 40
f 5 40 60
f 5 60 61
f 5 61 42
f 5 42 41
f 5 41 24
f 5 24 13
f 5 13 12
f 6 12 13
f 6 13 14
f 6 14 15
f 6 15 16
f 6 16 7
f 7 16 17
f 7 17 10
f 8 19 18
f 9 20 21
f 9 21 11
f 10 17 19
f 11 21 22
f 11 22 23
f 13 24 14
f 14 24 25
f 14 25 26
f 14 26 15
f 15 26 27
f 15 27 16
f 16 27 17
f 17 27 28
f 17 28 29
f 17 29 30
f 17 30 31
f 17 31 32
f 17 32 19
f 18 19 32
f 18 32 33
f 20 34 21
f 21 34 54
f 21 54 71
f 21 71 73
f 21 73 72
f 21 72 55
f 21 55 35
f 21 35 36
f 21 36 37
f 21 37 38
f 21 38 39
f 21 39 40
f 21 40 22
f 22 40 23
f 24 41 25
f 25 41 42
f 25 42 43
f 25 43 44
f 25 44 26
f 26 44 45
f 26 45 27
f 27 45 46
f 27 46 29
f 27 29 28
f 29 46 47
f 29 47 48
f 29 48 30
f 30 48 49
f 30 49 50
f 30 50 31
f 31 51 32
f 31 50 51
f 32 52 53
f 32 53 33
f 32 51 52
f 35 55 56
f 35 56 57
f 35 57 58
f 35 58 36
f 36 58 37
f 37 58 38
f 38 58 59
f 38 59 39
f 39 59 60
f 39 60 40
f 42 61 59
f 42 59 43
f 43 59 62
f 43 62 44
f 44 62 63
f 44 63 46
f 44 46 45
f 46 63 47
f 47 63 48
f 48 63 49
f 49 63 64
f 49 64 50
f 50 64 65
f 50 65 66
f 50 66 57
f 50 57 56
f 50 56 67
f 50 67 51
f 51 67 68
f 51 68 52
f 52 68 70
f 52 70 69
f 52 69 53
f 54 70 68
f 54 68 71
f 55 72 67
f 55 67 56
f 57 66 58
f 58 62 59
f 58 66 65
f 58 65 63
f 58 63 62
f 59 61 60
f 63 65 64
f 67 73 71
f 67 71 68
f 67 72 73

