# https://github.com/mikedh/trimesh
v -0.02788112 0.00000254 -0.04286938
v -0.02766419 0.00000254 -0.04367143
v -0.02652976 0.00000526 -0.04791574
v -0.03274985 0.00000254 -0.04286938
v -0.01999313 -0.02045246 -0.04286938
v -0.01869158 -0.01979622 -0.04791574
v -0.01639219 -0.01756066 -0.05959127
v -0.02503058 0.00000526 -0.05352680
v -0.03280448 0.00000526 -0.04791574
v -0.03280609 0.00000254 -0.04707768
v -0.03274985 -0.00336306 -0.04286938
v -0.01999313 -0.02693587 -0.04286938
v -0.01869158 -0.02781267 -0.04791574
v -0.02341088 -0.00000563 -0.05959127
v -0.02352497 -0.00000563 -0.05915751
v -0.01869158 -0.02780450 -0.04956239
v -0.01869158 -0.02779089 -0.05229263
v -0.01869158 -0.02767380 -0.05323053
v -0.01869158 -0.02763568 -0.05352680
v -0.02495506 -0.01756066 -0.05959127
v -0.03265665 0.00000526 -0.05352680
v -0.03279645 0.00000526 -0.05010909
v -0.03280448 -0.00336851 -0.04791574
v -0.03280609 -0.00336851 -0.04707768
v -0.03231761 -0.00608604 -0.04533445
v -0.03162345 -0.00992816 -0.04286938
v -0.01949018 -0.02729258 -0.04542448
v -0.02151641 -0.02599100 -0.04286938
v -0.01949018 -0.02730892 -0.04640821
v -0.01949018 -0.02731709 -0.04707768
v -0.02155498 -0.02603456 -0.04707768
v -0.02155337 -0.02603184 -0.04791574
v -0.02154051 -0.02601823 -0.05229263
v -0.02984468 -0.00000563 -0.05959127
v -0.02145535 -0.02592020 -0.05352680
v -0.02603164 -0.01756066 -0.05826707
v -0.02676597 -0.01464435 -0.05959127
v -0.03278681 0.00000526 -0.05229263
v -0.03073969 -0.00000563 -0.05826707
v -0.03171504 -0.00000563 -0.05660405
v -0.03190304 -0.00000563 -0.05620466
v -0.03209104 -0.00000563 -0.05580036
v -0.03233689 -0.00000563 -0.05501141
v -0.03258434 -0.00000563 -0.05420936
v -0.03262130 -0.00000563 -0.05386890
v -0.03278681 -0.00336578 -0.05229263
v -0.03166041 -0.00993633 -0.05229263
v -0.03167808 -0.00994722 -0.04707768
v -0.03153026 -0.01018684 -0.04286938
v -0.02154051 -0.02601823 -0.04533445
v -0.02599629 -0.02151170 -0.04286938
v -0.02604128 -0.02154710 -0.04707768
v -0.02531981 -0.02226869 -0.04791574
v -0.02602521 -0.02153893 -0.05229263
v -0.02984468 -0.00305809 -0.05959127
v -0.02591916 -0.02145180 -0.05352680
v -0.02720303 -0.01756066 -0.05660405
v -0.02844512 -0.01556200 -0.05660405
v -0.02756778 -0.01508275 -0.05826707
v -0.02968239 -0.00931549 -0.05826707
v -0.02881791 -0.00904319 -0.05959127
v -0.03073969 -0.00315067 -0.05826707
v -0.03171504 -0.00325142 -0.05660405
v -0.03209104 -0.00328954 -0.05580036
v -0.03258434 -0.00334128 -0.05420936
v -0.03265665 -0.00334672 -0.05352844
v -0.03265665 -0.00335217 -0.05352680
v -0.03146598 -0.00987642 -0.05420936
v -0.02928871 -0.01602490 -0.05352844
v -0.02940601 -0.01608208 -0.05229263
v -0.02942208 -0.01609298 -0.04707768
v -0.03072362 -0.01249048 -0.04533445
v -0.03144991 -0.01040740 -0.04286938
v -0.02602361 -0.02153349 -0.04533445
v -0.02937227 -0.01606575 -0.04286938
v -0.02603646 -0.02154982 -0.04791574
v -0.02887897 -0.01696978 -0.04791574
v -0.02824748 -0.01756066 -0.05420936
v -0.02948314 -0.00516567 -0.05959127
v -0.02765455 -0.01756066 -0.05580036
v -0.02749387 -0.01756066 -0.05608681
v -0.02878095 -0.01574444 -0.05580036
v -0.03098875 -0.00972666 -0.05580036
v -0.03062560 -0.00961229 -0.05660405
v -0.02922444 -0.01598678 -0.05420936
f 1 2 3
f 1 3 9
f 1 9 4
f 1 4 11
f 1 11 26
f 1 26 49
f 1 49 73
f 1 73 75
f 1 75 51
f 1 51 28
f 1 28 12
f 1 12 5
f 1 5 6
f 1 6 7
f 1 7 2
f 2 7 3
f 3 8 21
f 3 21 38
f 3 38 22
f 3 22 9
f 3 7 8
f 4 9 10
f 4 10 24
f 4 24 11
f 5 12 13
f 5 13 6
f 6 13 7
f 7 14 15
f 7 15 8
f 7 13 16
f 7 16 17
f 7 17 18
f 7 18 19
f 7 19 20
f 7 20 37
f 7 37 61
f 7 61 79
f 7 79 55
f 7 55 34
f 7 34 14
f 8 15 14
f 8 14 34
f 8 34 21
f 9 22 23
f 9 23 24
f 9 24 10
f 11 24 25
f 11 25 26
f 12 27 13
f 12 28 27
f 13 27 29
f 13 29 30
f 13 30 31
f 13 31 32
f 13 32 33
f 13 33 16
f 16 33 17
f 17 33 35
f 17 35 18
f 18 35 19
f 19 35 20
f 20 36 37
f 20 35 36
f 21 34 39
f 21 39 40
f 21 40 41
f 21 41 42
f 21 42 43
f 21 43 44
f 21 44 45
f 21 45 38
f 22 38 46
f 22 46 23
f 23 46 47
f 23 47 48
f 23 48 24
f 24 48 25
f 25 48 26
f 26 48 49
f 27 28 50
f 27 50 29
f 28 51 50
f 29 50 31
f 29 31 30
f 31 50 52
f 31 52 53
f 31 53 32
f 32 53 54
f 32 54 33
f 33 54 35
f 34 55 62
f 34 62 39
f 35 54 56
f 35 56 36
f 36 57 58
f 36 58 59
f 36 59 37
f 36 56 57
f 37 59 60
f 37 60 61
f 38 45 46
f 39 62 63
f 39 63 40
f 40 63 41
f 41 63 64
f 41 64 42
f 42 64 43
f 43 64 65
f 43 65 44
f 44 65 45
f 45 65 66
f 45 66 46
f 46 66 67
f 46 67 68
f 46 68 47
f 47 68 69
f 47 69 70
f 47 70 48
f 48 70 71
f 48 71 72
f 48 72 73
f 48 73 49
f 50 51 74
f 50 74 52
f 51 75 74
f 52 76 53
f 52 74 71
f 52 71 77
f 52 77 76
f 53 76 54
f 54 76 77
f 54 77 70
f 54 70 69
f 54 69 78
f 54 78 56
f 55 79 60
f 55 60 62
f 56 78 80
f 56 80 81
f 56 81 57
f 57 81 58
f 58 81 80
f 58 80 82
f 58 82 83
f 58 83 84
f 58 84 60
f 58 60 59
f 60 84 62
f 60 79 61
f 62 84 63
f 63 84 83
f 63 83 64
f 64 83 68
f 64 68 65
f 65 67 66
f 65 68 67
f 68 83 85
f 68 85 69
f 69 85 78
f 70 77 71
f 71 74 75
f 71 75 72
f 72 75 73
f 78 85 80
f 80 85 82
f 82 85 83

