# https://github.com/mikedh/trimesh
v 0.00154371 -0.03015501 0.07356550
v -0.00309330 -0.03015501 0.07356550
v 0.00154371 -0.03049103 0.07354062
v 0.00154371 -0.02985616 0.07349086
v -0.02205317 -0.02169050 0.07356550
v -0.00914421 -0.02911720 0.07356550
v -0.00312899 -0.03049103 0.07354062
v 0.00154371 -0.03080624 0.07344109
v -0.02161940 -0.02169050 0.07349086
v 0.00154371 -0.02960786 0.07332913
v -0.01980742 -0.02393859 0.07356550
v -0.02162763 -0.02069284 0.06924860
v -0.02468328 -0.02069284 0.06924860
v -0.02253637 -0.02169050 0.07354062
v -0.01479428 -0.02704457 0.07356550
v -0.00924579 -0.02944133 0.07354062
v -0.00933913 -0.02974613 0.07344109
v -0.00315919 -0.03080624 0.07344109
v 0.00154371 -0.03093857 0.07336645
v -0.02144918 -0.02169050 0.07342865
v -0.02125975 -0.02169050 0.07332913
v 0.00154371 -0.02940862 0.07301811
v -0.02002431 -0.02420473 0.07354062
v -0.01495901 -0.02734491 0.07354062
v -0.01868729 -0.01761957 -0.05352793
v -0.02096873 -0.02169050 0.07301811
v 0.00154371 -0.02927332 0.07240852
v 0.00154371 -0.02920047 0.07138839
v -0.02376906 -0.02169050 0.07260757
v -0.02369768 -0.02169050 0.07281906
v -0.02348903 -0.02169050 0.07315496
v -0.02318703 -0.02169050 0.07336645
v -0.02299485 -0.02169050 0.07344109
v -0.02475741 -0.02069284 0.06493170
v -0.02581440 -0.02137232 -0.02607147
v -0.02383770 -0.02169050 0.07217215
v -0.01511275 -0.02762741 0.07344109
v -0.00937757 -0.02987251 0.07336645
v -0.00317567 -0.03093857 0.07336645
v 0.00154371 -0.03114524 0.07315496
v 0.00154371 -0.02930455 0.07255781
v -0.02022747 -0.02445452 0.07344109
v -0.02650075 -0.02070622 -0.04285388
v 0.00000353 -0.02503289 -0.05352793
v -0.01868729 -0.02763484 -0.05352793
v 0.00154371 -0.02917222 0.07014433
v -0.02058437 -0.02487826 0.07260757
v -0.02055417 -0.02483960 0.07281906
v -0.02045259 -0.02472363 0.07315496
v -0.02031807 -0.02455859 0.07336645
v -0.02599010 -0.02151803 -0.04285388
v -0.02061183 -0.02491394 0.07217215
v -0.02580341 -0.02170686 -0.04285388
v -0.02150683 -0.02600082 -0.04285388
v -0.01517315 -0.02774486 0.07336645
v -0.01528022 -0.02793369 0.07315496
v -0.00944620 -0.03007472 0.07315496
v -0.00319488 -0.03114524 0.07315496
v 0.00154371 -0.03125378 0.07290615
v 0.00000353 -0.03265734 -0.05352793
v 0.00154371 -0.02917222 0.06924860
v -0.01602148 -0.02928819 -0.05352793
v -0.01868729 -0.02767350 -0.05322936
v -0.01537082 -0.02810616 0.07260757
v -0.01535160 -0.02806156 0.07281906
v -0.01539553 -0.02814631 0.07217215
v -0.01868729 -0.02779096 -0.05228387
v -0.02065301 -0.02653310 -0.04285388
v -0.01948621 -0.02731814 -0.04707125
v -0.01609561 -0.02942052 -0.04707125
v -0.01948621 -0.02731666 -0.04790477
v -0.00948739 -0.03021448 0.07281906
v -0.00321136 -0.03128946 0.07281906
v 0.00154371 -0.03128946 0.07281906
v 0.00154371 -0.03128202 0.06924860
v 0.00000353 -0.03278818 -0.05228387
v -0.00334588 -0.03265734 -0.05352793
v -0.00989920 -0.03153479 -0.05352793
v -0.01608463 -0.02940565 -0.05228387
v -0.00950111 -0.03026058 0.07260757
v -0.00951759 -0.03030667 0.07217215
v -0.01609561 -0.02941903 -0.04790477
v -0.00994313 -0.03167901 -0.04707125
v -0.00321685 -0.03133853 0.07260757
v 0.00154371 -0.03132663 0.07266978
v 0.00154371 -0.03138462 0.07217215
v -0.00336235 -0.03278818 -0.05228387
v 0.00000353 -0.03280454 -0.04790477
v -0.00001020 -0.03280900 -0.04707125
v -0.00993764 -0.03166117 -0.05228387
v -0.00322508 -0.03138462 0.07217215
v -0.00336510 -0.03280900 -0.04707125
v -0.00994038 -0.03167752 -0.04790477
v 0.00154371 -0.03133853 0.07260757
f 1 2 7
f 1 7 3
f 1 3 8
f 1 8 19
f 1 19 40
f 1 40 59
f 1 59 74
f 1 74 85
f 1 85 94
f 1 94 86
f 1 86 75
f 1 75 61
f 1 61 46
f 1 46 28
f 1 28 27
f 1 27 41
f 1 41 22
f 1 22 10
f 1 10 4
f 1 4 5
f 1 5 11
f 1 11 15
f 1 15 6
f 1 6 2
f 2 6 7
f 3 7 18
f 3 18 8
f 4 9 5
f 4 10 9
f 5 9 12
f 5 12 13
f 5 13 14
f 5 14 11
f 6 15 16
f 6 16 7
f 7 16 17
f 7 17 18
f 8 18 39
f 8 39 19
f 9 10 20
f 9 20 12
f 10 21 20
f 10 22 21
f 11 14 23
f 11 23 24
f 11 24 15
f 12 25 13
f 12 20 21
f 12 21 26
f 12 26 27
f 12 27 28
f 12 28 25
f 13 29 30
f 13 30 31
f 13 31 32
f 13 32 33
f 13 33 14
f 13 25 34
f 13 34 35
f 13 35 36
f 13 36 29
f 14 33 23
f 15 24 16
f 16 24 17
f 17 24 37
f 17 37 38
f 17 38 39
f 17 39 18
f 19 39 58
f 19 58 40
f 21 22 26
f 22 41 26
f 23 33 42
f 23 42 37
f 23 37 24
f 25 43 34
f 25 28 44
f 25 44 60
f 25 60 77
f 25 77 78
f 25 78 62
f 25 62 45
f 25 45 43
f 26 41 27
f 28 46 44
f 29 36 47
f 29 47 48
f 29 48 30
f 30 48 31
f 31 48 49
f 31 49 50
f 31 50 32
f 32 50 33
f 33 50 42
f 34 43 35
f 35 43 51
f 35 51 36
f 36 52 47
f 36 51 53
f 36 53 54
f 36 54 52
f 37 42 50
f 37 50 55
f 37 55 38
f 38 55 56
f 38 56 57
f 38 57 39
f 39 57 58
f 40 58 59
f 43 45 51
f 44 46 61
f 44 61 75
f 44 75 60
f 45 62 63
f 45 63 51
f 47 64 65
f 47 65 48
f 47 52 66
f 47 66 64
f 48 65 56
f 48 56 49
f 49 56 50
f 50 56 55
f 51 63 67
f 51 67 53
f 52 54 68
f 52 68 69
f 52 69 70
f 52 70 66
f 53 67 54
f 54 67 71
f 54 71 69
f 54 69 68
f 56 65 72
f 56 72 57
f 57 72 73
f 57 73 58
f 58 73 59
f 59 73 74
f 60 75 76
f 60 76 87
f 60 87 77
f 62 78 79
f 62 79 63
f 63 79 67
f 64 80 72
f 64 72 65
f 64 66 81
f 64 81 80
f 66 70 81
f 67 79 71
f 69 71 82
f 69 82 70
f 70 82 83
f 70 83 81
f 71 79 82
f 72 80 84
f 72 84 73
f 73 84 85
f 73 85 74
f 75 86 76
f 76 86 88
f 76 88 89
f 76 89 92
f 76 92 87
f 77 87 78
f 78 87 90
f 78 90 79
f 79 90 82
f 80 81 84
f 81 91 84
f 81 83 92
f 81 92 91
f 82 93 83
f 82 90 93
f 83 93 92
f 84 94 85
f 84 91 86
f 84 86 94
f 86 91 92
f 86 92 89
f 86 89 88
f 87 92 90
f 90 92 93

