# Blender 4.0.0
# www.blender.org
o GlassCup006_Clear
v 0.047624 -0.000000 0.053871
v 0.046709 0.009291 0.053871
v 0.043999 0.018225 0.053871
v 0.039598 0.026458 0.053871
v 0.033675 0.033675 0.053871
v 0.026458 0.039598 0.053871
v 0.018225 0.043999 0.053871
v 0.009291 0.046709 0.053871
v 0.000000 0.047624 0.053871
v -0.009291 0.046709 0.053871
v -0.018225 0.043999 0.053871
v -0.026458 0.039598 0.053871
v -0.033675 0.033675 0.053871
v -0.039598 0.026458 0.053871
v -0.043999 0.018225 0.053871
v -0.046709 0.009291 0.053871
v -0.047624 -0.000000 0.053871
v -0.046709 -0.009291 0.053871
v -0.043999 -0.018225 0.053871
v -0.039598 -0.026458 0.053871
v -0.033675 -0.033675 0.053871
v -0.026458 -0.039598 0.053871
v -0.018225 -0.043999 0.053871
v -0.009291 -0.046709 0.053871
v 0.000000 -0.047624 0.053871
v 0.009291 -0.046709 0.053871
v 0.018225 -0.043999 0.053871
v 0.026458 -0.039598 0.053871
v 0.033675 -0.033675 0.053871
v 0.039598 -0.026458 0.053871
v 0.043999 -0.018225 0.053871
v 0.046709 -0.009291 0.053871
v 0.043757 -0.000000 0.053871
v 0.042916 0.008537 0.053871
v 0.040426 0.016745 0.053871
v 0.036383 0.024310 0.053871
v 0.030941 0.030941 0.053871
v 0.024310 0.036383 0.053871
v 0.016745 0.040426 0.053871
v 0.008537 0.042916 0.053871
v 0.000000 0.043757 0.053871
v -0.008537 0.042916 0.053871
v -0.016745 0.040426 0.053871
v -0.024310 0.036383 0.053871
v -0.030941 0.030941 0.053871
v -0.036383 0.024310 0.053871
v -0.040426 0.016745 0.053871
v -0.042916 0.008537 0.053871
v -0.043757 -0.000000 0.053871
v -0.042916 -0.008537 0.053871
v -0.040426 -0.016745 0.053871
v -0.036383 -0.024310 0.053871
v -0.030941 -0.030941 0.053871
v -0.024310 -0.036383 0.053871
v -0.016745 -0.040426 0.053871
v -0.008537 -0.042916 0.053871
v 0.000000 -0.043757 0.053871
v 0.008537 -0.042916 0.053871
v 0.016745 -0.040426 0.053871
v 0.024310 -0.036383 0.053871
v 0.030941 -0.030941 0.053871
v 0.036383 -0.024310 0.053871
v 0.040426 -0.016745 0.053871
v 0.042916 -0.008536 0.053871
v 0.000000 0.000000 -0.053871
v 0.042573 0.000000 -0.053871
v 0.040573 0.000000 -0.053871
v 0.042667 0.000000 -0.051873
v 0.041755 0.008306 -0.053871
v 0.041847 0.008324 -0.051873
v 0.039794 0.007915 -0.053871
v 0.039333 0.016292 -0.053871
v 0.039419 0.016328 -0.051873
v 0.037485 0.015527 -0.053871
v 0.035399 0.023653 -0.053871
v 0.035476 0.023705 -0.051873
v 0.033736 0.022541 -0.053871
v 0.030104 0.030104 -0.053871
v 0.030170 0.030170 -0.051873
v 0.028690 0.028690 -0.053871
v 0.023653 0.035399 -0.053871
v 0.023705 0.035476 -0.051873
v 0.022541 0.033736 -0.053871
v 0.016292 0.039333 -0.053871
v 0.016328 0.039419 -0.051873
v 0.015527 0.037485 -0.053871
v 0.008306 0.041755 -0.053871
v 0.008324 0.041847 -0.051873
v 0.007915 0.039794 -0.053871
v 0.000000 0.042573 -0.053871
v 0.000000 0.042667 -0.051873
v 0.000000 0.040573 -0.053871
v -0.008306 0.041755 -0.053871
v -0.008324 0.041847 -0.051873
v -0.007915 0.039794 -0.053871
v -0.016292 0.039333 -0.053871
v -0.016328 0.039419 -0.051873
v -0.015527 0.037485 -0.053871
v -0.023653 0.035399 -0.053871
v -0.023705 0.035476 -0.051873
v -0.022541 0.033736 -0.053871
v -0.030104 0.030104 -0.053871
v -0.030170 0.030170 -0.051873
v -0.028690 0.028690 -0.053871
v -0.035399 0.023653 -0.053871
v -0.035476 0.023705 -0.051873
v -0.033736 0.022541 -0.053871
v -0.039333 0.016292 -0.053871
v -0.039419 0.016328 -0.051873
v -0.037485 0.015527 -0.053871
v -0.041755 0.008306 -0.053871
v -0.041847 0.008324 -0.051873
v -0.039794 0.007915 -0.053871
v -0.042573 -0.000000 -0.053871
v -0.042667 -0.000000 -0.051873
v -0.040573 -0.000000 -0.053871
v -0.041755 -0.008306 -0.053871
v -0.041847 -0.008324 -0.051873
v -0.039794 -0.007916 -0.053871
v -0.039333 -0.016292 -0.053871
v -0.039419 -0.016328 -0.051873
v -0.037485 -0.015527 -0.053871
v -0.035399 -0.023653 -0.053871
v -0.035476 -0.023705 -0.051873
v -0.033736 -0.022541 -0.053871
v -0.030104 -0.030104 -0.053871
v -0.030170 -0.030170 -0.051873
v -0.028690 -0.028690 -0.053871
v -0.023653 -0.035399 -0.053871
v -0.023705 -0.035476 -0.051873
v -0.022541 -0.033736 -0.053871
v -0.016292 -0.039333 -0.053871
v -0.016328 -0.039419 -0.051873
v -0.015527 -0.037485 -0.053871
v -0.008306 -0.041755 -0.053871
v -0.008324 -0.041847 -0.051873
v -0.007915 -0.039794 -0.053871
v 0.000000 -0.042573 -0.053871
v 0.000000 -0.042667 -0.051873
v 0.000000 -0.040573 -0.053871
v 0.008306 -0.041755 -0.053871
v 0.008324 -0.041847 -0.051873
v 0.007916 -0.039794 -0.053871
v 0.016292 -0.039333 -0.053871
v 0.016328 -0.039419 -0.051873
v 0.015527 -0.037485 -0.053871
v 0.023653 -0.035399 -0.053871
v 0.023705 -0.035476 -0.051873
v 0.022541 -0.033736 -0.053871
v 0.030104 -0.030104 -0.053871
v 0.030170 -0.030170 -0.051873
v 0.028690 -0.028690 -0.053871
v 0.035399 -0.023653 -0.053871
v 0.035476 -0.023705 -0.051873
v 0.033736 -0.022541 -0.053871
v 0.039333 -0.016292 -0.053871
v 0.039419 -0.016328 -0.051873
v 0.037485 -0.015527 -0.053871
v 0.041755 -0.008306 -0.053871
v 0.041847 -0.008324 -0.051873
v 0.039794 -0.007915 -0.053871
v 0.046709 0.009291 0.053871
v 0.045728 0.009096 0.053871
v 0.046663 0.009282 0.052872
v 0.047624 -0.000000 0.053871
v 0.047577 -0.000000 0.052872
v 0.046624 -0.000000 0.053871
v 0.043999 0.018225 0.053871
v 0.043075 0.017842 0.053871
v 0.043955 0.018207 0.052872
v 0.039598 0.026458 0.053871
v 0.038766 0.025903 0.053871
v 0.039559 0.026432 0.052872
v 0.033675 0.033675 0.053871
v 0.032968 0.032968 0.053871
v 0.033642 0.033642 0.052872
v 0.026458 0.039598 0.053871
v 0.025903 0.038766 0.053871
v 0.026432 0.039559 0.052872
v 0.018225 0.043999 0.053871
v 0.017842 0.043075 0.053871
v 0.018207 0.043955 0.052872
v 0.009291 0.046709 0.053871
v 0.009096 0.045728 0.053871
v 0.009282 0.046663 0.052872
v 0.000000 0.047624 0.053871
v 0.000000 0.046624 0.053871
v 0.000000 0.047577 0.052872
v -0.009291 0.046709 0.053871
v -0.009096 0.045728 0.053871
v -0.009282 0.046663 0.052872
v -0.018225 0.043999 0.053871
v -0.017842 0.043075 0.053871
v -0.018207 0.043955 0.052872
v -0.026458 0.039598 0.053871
v -0.025903 0.038766 0.053871
v -0.026432 0.039559 0.052872
v -0.033675 0.033675 0.053871
v -0.032968 0.032968 0.053871
v -0.033642 0.033642 0.052872
v -0.039598 0.026458 0.053871
v -0.038766 0.025903 0.053871
v -0.039559 0.026432 0.052872
v -0.043999 0.018225 0.053871
v -0.043075 0.017842 0.053871
v -0.043955 0.018207 0.052872
v -0.046709 0.009291 0.053871
v -0.045728 0.009096 0.053871
v -0.046663 0.009282 0.052872
v -0.047624 -0.000000 0.053871
v -0.046624 -0.000000 0.053871
v -0.047577 -0.000000 0.052872
v -0.046709 -0.009291 0.053871
v -0.045728 -0.009096 0.053871
v -0.046663 -0.009282 0.052872
v -0.043999 -0.018225 0.053871
v -0.043075 -0.017842 0.053871
v -0.043955 -0.018207 0.052872
v -0.039598 -0.026458 0.053871
v -0.038766 -0.025903 0.053871
v -0.039559 -0.026432 0.052872
v -0.033675 -0.033675 0.053871
v -0.032968 -0.032968 0.053871
v -0.033642 -0.033642 0.052872
v -0.026458 -0.039598 0.053871
v -0.025903 -0.038766 0.053871
v -0.026432 -0.039559 0.052872
v -0.018225 -0.043999 0.053871
v -0.017842 -0.043075 0.053871
v -0.018207 -0.043955 0.052872
v -0.009291 -0.046709 0.053871
v -0.009096 -0.045728 0.053871
v -0.009282 -0.046663 0.052872
v 0.000000 -0.047624 0.053871
v 0.000000 -0.046624 0.053871
v 0.000000 -0.047577 0.052872
v 0.009291 -0.046709 0.053871
v 0.009096 -0.045728 0.053871
v 0.009282 -0.046663 0.052872
v 0.018225 -0.043999 0.053871
v 0.017842 -0.043075 0.053871
v 0.018207 -0.043955 0.052872
v 0.026458 -0.039598 0.053871
v 0.025903 -0.038766 0.053871
v 0.026432 -0.039559 0.052872
v 0.033675 -0.033675 0.053871
v 0.032968 -0.032968 0.053871
v 0.033642 -0.033642 0.052872
v 0.039598 -0.026458 0.053871
v 0.038766 -0.025903 0.053871
v 0.039559 -0.026432 0.052872
v 0.043999 -0.018225 0.053871
v 0.043075 -0.017842 0.053871
v 0.043955 -0.018207 0.052872
v 0.046709 -0.009291 0.053871
v 0.045728 -0.009096 0.053871
v 0.046663 -0.009282 0.052872
v 0.042916 0.008537 0.053871
v 0.043897 0.008732 0.053871
v 0.043757 -0.000000 0.053871
v 0.044757 -0.000000 0.053871
v 0.040426 0.016745 0.053871
v 0.041350 0.017128 0.053871
v 0.036383 0.024310 0.053871
v 0.037214 0.024866 0.053871
v 0.030941 0.030941 0.053871
v 0.031648 0.031648 0.053871
v 0.024310 0.036383 0.053871
v 0.024866 0.037214 0.053871
v 0.016745 0.040426 0.053871
v 0.017128 0.041350 0.053871
v 0.008537 0.042916 0.053871
v 0.008732 0.043897 0.053871
v 0.000000 0.043757 0.053871
v 0.000000 0.044757 0.053871
v -0.008537 0.042916 0.053871
v -0.008732 0.043897 0.053871
v -0.016745 0.040426 0.053871
v -0.017128 0.041350 0.053871
v -0.024310 0.036383 0.053871
v -0.024866 0.037214 0.053871
v -0.030941 0.030941 0.053871
v -0.031648 0.031648 0.053871
v -0.036383 0.024310 0.053871
v -0.037214 0.024866 0.053871
v -0.040426 0.016745 0.053871
v -0.041350 0.017128 0.053871
v -0.042916 0.008537 0.053871
v -0.043897 0.008732 0.053871
v -0.043757 -0.000000 0.053871
v -0.044757 -0.000000 0.053871
v -0.042916 -0.008537 0.053871
v -0.043897 -0.008732 0.053871
v -0.040426 -0.016745 0.053871
v -0.041350 -0.017128 0.053871
v -0.036383 -0.024310 0.053871
v -0.037214 -0.024866 0.053871
v -0.030941 -0.030941 0.053871
v -0.031648 -0.031648 0.053871
v -0.024310 -0.036383 0.053871
v -0.024866 -0.037214 0.053871
v -0.016745 -0.040426 0.053871
v -0.017128 -0.041350 0.053871
v -0.008537 -0.042916 0.053871
v -0.008732 -0.043897 0.053871
v 0.000000 -0.043757 0.053871
v 0.000000 -0.044757 0.053871
v 0.008537 -0.042916 0.053871
v 0.008732 -0.043897 0.053871
v 0.016745 -0.040426 0.053871
v 0.017128 -0.041350 0.053871
v 0.024310 -0.036383 0.053871
v 0.024866 -0.037214 0.053871
v 0.030941 -0.030941 0.053871
v 0.031648 -0.031648 0.053871
v 0.036383 -0.024310 0.053871
v 0.037214 -0.024866 0.053871
v 0.040426 -0.016745 0.053871
v 0.041350 -0.017128 0.053871
v 0.042916 -0.008536 0.053871
v 0.043897 -0.008732 0.053871
v 0.000000 0.000000 -0.042857
v 0.038387 0.007636 -0.042857
v 0.036426 0.007246 -0.042857
v 0.038481 0.007654 -0.040859
v 0.039140 -0.000000 -0.042857
v 0.039235 -0.000000 -0.040859
v 0.037140 -0.000000 -0.042857
v 0.036160 0.014978 -0.042857
v 0.034312 0.014213 -0.042857
v 0.036248 0.015015 -0.040859
v 0.032543 0.021745 -0.042857
v 0.030880 0.020634 -0.042857
v 0.032623 0.021798 -0.040859
v 0.027676 0.027676 -0.042857
v 0.026262 0.026262 -0.042857
v 0.027743 0.027743 -0.040859
v 0.021745 0.032543 -0.042857
v 0.020634 0.030880 -0.042857
v 0.021798 0.032623 -0.040859
v 0.014978 0.036160 -0.042857
v 0.014213 0.034312 -0.042857
v 0.015015 0.036248 -0.040859
v 0.007636 0.038387 -0.042857
v 0.007246 0.036426 -0.042857
v 0.007654 0.038481 -0.040859
v 0.000000 0.039140 -0.042857
v 0.000000 0.037140 -0.042857
v 0.000000 0.039235 -0.040859
v -0.007636 0.038387 -0.042857
v -0.007246 0.036426 -0.042857
v -0.007654 0.038481 -0.040859
v -0.014978 0.036160 -0.042857
v -0.014213 0.034312 -0.042857
v -0.015015 0.036248 -0.040859
v -0.021745 0.032543 -0.042857
v -0.020634 0.030880 -0.042857
v -0.021798 0.032623 -0.040859
v -0.027676 0.027676 -0.042857
v -0.026262 0.026262 -0.042857
v -0.027743 0.027743 -0.040859
v -0.032543 0.021745 -0.042857
v -0.030880 0.020634 -0.042857
v -0.032623 0.021798 -0.040859
v -0.036160 0.014978 -0.042857
v -0.034312 0.014213 -0.042857
v -0.036248 0.015015 -0.040859
v -0.038387 0.007636 -0.042857
v -0.036426 0.007246 -0.042857
v -0.038481 0.007654 -0.040859
v -0.039140 -0.000000 -0.042857
v -0.037140 -0.000000 -0.042857
v -0.039235 -0.000000 -0.040859
v -0.038387 -0.007636 -0.042857
v -0.036426 -0.007246 -0.042857
v -0.038481 -0.007654 -0.040859
v -0.036160 -0.014978 -0.042857
v -0.034312 -0.014213 -0.042857
v -0.036248 -0.015015 -0.040859
v -0.032543 -0.021745 -0.042857
v -0.030880 -0.020634 -0.042857
v -0.032623 -0.021798 -0.040859
v -0.027676 -0.027676 -0.042857
v -0.026262 -0.026262 -0.042857
v -0.027743 -0.027743 -0.040859
v -0.021745 -0.032543 -0.042857
v -0.020634 -0.030880 -0.042857
v -0.021798 -0.032623 -0.040859
v -0.014978 -0.036160 -0.042857
v -0.014213 -0.034312 -0.042857
v -0.015015 -0.036248 -0.040859
v -0.007636 -0.038387 -0.042857
v -0.007246 -0.036426 -0.042857
v -0.007654 -0.038481 -0.040859
v 0.000000 -0.039140 -0.042857
v 0.000000 -0.037140 -0.042857
v 0.000000 -0.039235 -0.040859
v 0.007636 -0.038387 -0.042857
v 0.007246 -0.036426 -0.042857
v 0.007654 -0.038481 -0.040859
v 0.014978 -0.036160 -0.042857
v 0.014213 -0.034312 -0.042857
v 0.015015 -0.036248 -0.040859
v 0.021745 -0.032543 -0.042857
v 0.020634 -0.030880 -0.042857
v 0.021798 -0.032623 -0.040859
v 0.027676 -0.027676 -0.042857
v 0.026262 -0.026262 -0.042857
v 0.027743 -0.027743 -0.040859
v 0.032543 -0.021745 -0.042857
v 0.030880 -0.020634 -0.042857
v 0.032623 -0.021798 -0.040859
v 0.036160 -0.014978 -0.042857
v 0.034312 -0.014213 -0.042857
v 0.036248 -0.015014 -0.040859
v 0.038387 -0.007636 -0.042857
v 0.036426 -0.007245 -0.042857
v 0.038481 -0.007654 -0.040859
v 0.042916 0.008537 0.053871
v 0.042869 0.008527 0.052872
v 0.043757 -0.000000 0.053871
v 0.043709 -0.000000 0.052872
v 0.040426 0.016745 0.053871
v 0.040382 0.016727 0.052872
v 0.036383 0.024310 0.053871
v 0.036343 0.024284 0.052872
v 0.030941 0.030941 0.053871
v 0.030907 0.030907 0.052872
v 0.024310 0.036383 0.053871
v 0.024284 0.036343 0.052872
v 0.016745 0.040426 0.053871
v 0.016727 0.040382 0.052872
v 0.008537 0.042916 0.053871
v 0.008527 0.042869 0.052872
v 0.000000 0.043757 0.053871
v 0.000000 0.043709 0.052872
v -0.008537 0.042916 0.053871
v -0.008527 0.042869 0.052872
v -0.016745 0.040426 0.053871
v -0.016727 0.040382 0.052872
v -0.024310 0.036383 0.053871
v -0.024284 0.036343 0.052872
v -0.030941 0.030941 0.053871
v -0.030907 0.030907 0.052872
v -0.036383 0.024310 0.053871
v -0.036343 0.024284 0.052872
v -0.040426 0.016745 0.053871
v -0.040382 0.016727 0.052872
v -0.042916 0.008537 0.053871
v -0.042869 0.008527 0.052872
v -0.043757 -0.000000 0.053871
v -0.043709 -0.000000 0.052872
v -0.042916 -0.008537 0.053871
v -0.042869 -0.008527 0.052872
v -0.040426 -0.016745 0.053871
v -0.040382 -0.016727 0.052872
v -0.036383 -0.024310 0.053871
v -0.036343 -0.024284 0.052872
v -0.030941 -0.030941 0.053871
v -0.030907 -0.030907 0.052872
v -0.024310 -0.036383 0.053871
v -0.024284 -0.036343 0.052872
v -0.016745 -0.040426 0.053871
v -0.016727 -0.040382 0.052872
v -0.008537 -0.042916 0.053871
v -0.008527 -0.042869 0.052872
v 0.000000 -0.043757 0.053871
v 0.000000 -0.043709 0.052872
v 0.008537 -0.042916 0.053871
v 0.008527 -0.042869 0.052872
v 0.016745 -0.040426 0.053871
v 0.016727 -0.040382 0.052872
v 0.024310 -0.036383 0.053871
v 0.024284 -0.036343 0.052872
v 0.030941 -0.030941 0.053871
v 0.030907 -0.030907 0.052872
v 0.036383 -0.024310 0.053871
v 0.036343 -0.024283 0.052872
v 0.040426 -0.016745 0.053871
v 0.040382 -0.016727 0.052872
v 0.042916 -0.008536 0.053871
v 0.042869 -0.008527 0.052872
vn 0.9797 0.1949 -0.0468
vn 0.9989 -0.0000 -0.0468
vn 0.9229 0.3823 -0.0468
vn 0.8306 0.5550 -0.0468
vn 0.7063 0.7063 -0.0468
vn 0.5550 0.8306 -0.0468
vn 0.3823 0.9229 -0.0468
vn 0.1949 0.9797 -0.0468
vn -0.0000 0.9989 -0.0468
vn -0.1949 0.9797 -0.0468
vn -0.3823 0.9229 -0.0468
vn -0.5550 0.8306 -0.0468
vn -0.7063 0.7063 -0.0468
vn -0.8306 0.5550 -0.0468
vn -0.9229 0.3823 -0.0468
vn -0.9797 0.1949 -0.0468
vn -0.9989 -0.0000 -0.0468
vn -0.9797 -0.1949 -0.0468
vn -0.9229 -0.3823 -0.0468
vn -0.8306 -0.5550 -0.0468
vn -0.7063 -0.7063 -0.0468
vn -0.5550 -0.8306 -0.0468
vn -0.3823 -0.9229 -0.0468
vn -0.1949 -0.9797 -0.0468
vn -0.0000 -0.9989 -0.0468
vn 0.1949 -0.9797 -0.0468
vn 0.3823 -0.9229 -0.0468
vn 0.5550 -0.8306 -0.0468
vn 0.7063 -0.7063 -0.0468
vn 0.8306 -0.5550 -0.0468
vn 0.9229 -0.3823 -0.0468
vn 0.9797 -0.1949 -0.0468
vn -0.0000 -0.0000 1.0000
vn -0.0000 -0.0000 -1.0000
vn 0.6980 0.1388 -0.7025
vn 0.6575 0.2723 -0.7025
vn 0.5917 0.3954 -0.7025
vn 0.5032 0.5032 -0.7025
vn 0.3954 0.5917 -0.7025
vn 0.2723 0.6575 -0.7025
vn 0.1388 0.6980 -0.7025
vn -0.0000 0.7117 -0.7025
vn -0.1388 0.6980 -0.7025
vn -0.2723 0.6575 -0.7025
vn -0.3954 0.5917 -0.7025
vn -0.5032 0.5032 -0.7025
vn -0.5917 0.3954 -0.7025
vn -0.6575 0.2723 -0.7025
vn -0.6980 0.1388 -0.7025
vn -0.7117 -0.0000 -0.7025
vn -0.6980 -0.1388 -0.7025
vn -0.6575 -0.2723 -0.7025
vn -0.5917 -0.3954 -0.7025
vn -0.5032 -0.5032 -0.7025
vn -0.3954 -0.5917 -0.7025
vn -0.2723 -0.6575 -0.7025
vn -0.1388 -0.6980 -0.7025
vn -0.0000 -0.7116 -0.7025
vn 0.1388 -0.6980 -0.7025
vn 0.2723 -0.6575 -0.7025
vn 0.3954 -0.5917 -0.7025
vn 0.5032 -0.5032 -0.7025
vn 0.5917 -0.3954 -0.7025
vn 0.6575 -0.2723 -0.7025
vn 0.6980 -0.1388 -0.7025
vn 0.7117 -0.0000 -0.7025
vn 0.7437 -0.0000 0.6685
vn 0.7294 0.1451 0.6685
vn 0.6871 0.2846 0.6685
vn 0.6183 0.4132 0.6685
vn 0.5259 0.5259 0.6685
vn 0.2846 0.6871 0.6685
vn 0.4132 0.6184 0.6685
vn 0.1451 0.7294 0.6685
vn -0.0000 0.7437 0.6685
vn -0.1451 0.7294 0.6685
vn -0.2846 0.6871 0.6685
vn -0.4132 0.6183 0.6685
vn -0.5259 0.5259 0.6685
vn -0.6184 0.4132 0.6685
vn -0.6871 0.2846 0.6685
vn -0.7437 -0.0000 0.6685
vn -0.7294 0.1451 0.6685
vn -0.7294 -0.1451 0.6685
vn -0.6871 -0.2846 0.6685
vn -0.5259 -0.5259 0.6685
vn -0.6183 -0.4132 0.6685
vn -0.2846 -0.6871 0.6685
vn -0.4132 -0.6184 0.6685
vn -0.1451 -0.7294 0.6685
vn -0.0000 -0.7437 0.6685
vn 0.2846 -0.6871 0.6685
vn 0.1451 -0.7294 0.6685
vn 0.4132 -0.6183 0.6685
vn 0.5259 -0.5259 0.6685
vn 0.6184 -0.4132 0.6685
vn 0.7294 -0.1451 0.6685
vn 0.6871 -0.2846 0.6685
vn -0.9797 -0.1949 0.0477
vn -0.9989 -0.0000 0.0477
vn -0.9228 -0.3822 0.0477
vn -0.8305 -0.5549 0.0477
vn -0.7063 -0.7063 0.0477
vn -0.5549 -0.8305 0.0477
vn -0.3822 -0.9228 0.0477
vn -0.1949 -0.9797 0.0477
vn -0.0000 -0.9989 0.0477
vn 0.1949 -0.9797 0.0477
vn 0.3822 -0.9228 0.0477
vn 0.5549 -0.8305 0.0477
vn 0.7063 -0.7063 0.0477
vn 0.8305 -0.5549 0.0477
vn 0.9228 -0.3822 0.0477
vn 0.9797 -0.1949 0.0477
vn 0.9989 -0.0000 0.0477
vn 0.9797 0.1949 0.0477
vn 0.9228 0.3822 0.0477
vn 0.8305 0.5549 0.0477
vn 0.7063 0.7063 0.0477
vn 0.5549 0.8305 0.0477
vn 0.3822 0.9228 0.0477
vn 0.1949 0.9797 0.0477
vn -0.0000 0.9989 0.0477
vn -0.1949 0.9797 0.0477
vn -0.3822 0.9228 0.0477
vn -0.5549 0.8305 0.0477
vn -0.7063 0.7063 0.0477
vn -0.8305 0.5549 0.0477
vn -0.9228 0.3822 0.0477
vn -0.9797 0.1949 0.0477
vn -0.6977 -0.1388 0.7028
vn -0.7113 -0.0000 0.7028
vn -0.5915 -0.3952 0.7028
vn -0.6572 -0.2722 0.7028
vn -0.5030 -0.5030 0.7028
vn -0.3952 -0.5915 0.7028
vn -0.2722 -0.6572 0.7028
vn -0.0000 -0.7113 0.7028
vn -0.1388 -0.6977 0.7028
vn 0.1388 -0.6977 0.7028
vn 0.2722 -0.6572 0.7028
vn 0.5030 -0.5030 0.7028
vn 0.3952 -0.5915 0.7028
vn 0.5915 -0.3952 0.7028
vn 0.6977 -0.1388 0.7028
vn 0.6572 -0.2722 0.7028
vn 0.6977 0.1388 0.7028
vn 0.7113 -0.0000 0.7028
vn 0.6572 0.2722 0.7028
vn 0.5915 0.3952 0.7028
vn 0.5030 0.5030 0.7028
vn 0.3952 0.5915 0.7028
vn 0.2722 0.6572 0.7028
vn 0.1388 0.6977 0.7028
vn -0.0000 0.7113 0.7028
vn -0.1388 0.6977 0.7028
vn -0.2722 0.6572 0.7028
vn -0.3952 0.5915 0.7028
vn -0.5030 0.5030 0.7028
vn -0.6572 0.2722 0.7028
vn -0.5915 0.3952 0.7028
vn -0.6977 0.1388 0.7028
vt 0.052908 0.245691
vt 0.931970 0.273947
vt 0.052908 0.273947
vt 0.931970 0.217434
vt 0.052908 0.217434
vt 0.931970 0.189177
vt 0.052908 0.189177
vt 0.931970 0.160921
vt 0.052908 0.160921
vt 0.931970 0.132664
vt 0.052908 0.132664
vt 0.052908 0.104408
vt 0.931970 0.076151
vt 0.052908 0.076151
vt 0.931970 0.047894
vt 0.052908 0.047894
vt 0.931970 0.923849
vt 0.052908 0.952105
vt 0.052908 0.923849
vt 0.931970 0.895592
vt 0.052908 0.895592
vt 0.931970 0.867335
vt 0.052908 0.867335
vt 0.931970 0.839079
vt 0.052908 0.839079
vt 0.931970 0.810822
vt 0.052908 0.810822
vt 0.931970 0.782566
vt 0.052908 0.782566
vt 0.931970 0.754309
vt 0.052908 0.754309
vt 0.931970 0.726052
vt 0.052908 0.726052
vt 0.931970 0.697796
vt 0.052908 0.697796
vt 0.931970 0.669539
vt 0.052908 0.669539
vt 0.931970 0.641283
vt 0.052908 0.641283
vt 0.931970 0.613026
vt 0.052908 0.613026
vt 0.931970 0.584769
vt 0.052908 0.584769
vt 0.931970 0.556513
vt 0.052908 0.556513
vt 0.931970 0.528256
vt 0.052908 0.528256
vt 0.931970 0.500000
vt 0.052908 0.500000
vt 0.931970 0.471743
vt 0.052908 0.471743
vt 0.931970 0.443486
vt 0.052908 0.443487
vt 0.931970 0.415230
vt 0.052908 0.415230
vt 0.931970 0.386973
vt 0.052908 0.386973
vt 0.931970 0.358717
vt 0.052908 0.358717
vt 0.931970 0.330460
vt 0.052908 0.330460
vt 0.931970 0.302203
vt 0.052908 0.302204
vt 0.940353 0.273947
vt 0.940353 0.245691
vt 0.940353 0.217434
vt 0.940353 0.189177
vt 0.940353 0.160921
vt 0.940353 0.132664
vt 0.940353 0.104408
vt 0.940353 0.076151
vt 0.940353 0.047894
vt 0.940353 0.037012
vt 0.940353 0.043922
vt 0.940353 0.068359
vt 0.940353 0.109383
vt 0.940353 0.165419
vt 0.940353 0.234312
vt 0.940353 0.313416
vt 0.940353 0.399690
vt 0.940353 0.489819
vt 0.940353 0.580339
vt 0.940353 0.667772
vt 0.940353 0.748757
vt 0.940353 0.820183
vt 0.940353 0.879304
vt 0.940353 0.923849
vt 0.940353 0.952106
vt 0.940353 0.962988
vt 0.940353 0.956078
vt 0.940353 0.931641
vt 0.940353 0.890616
vt 0.940353 0.834581
vt 0.940353 0.765687
vt 0.940353 0.302203
vt 0.036142 0.257637
vt 0.036142 0.284567
vt 0.036142 0.500000
vt 0.036142 0.230708
vt 0.036142 0.203779
vt 0.036142 0.176850
vt 0.036142 0.149921
vt 0.036142 0.122992
vt 0.036142 0.096062
vt 0.036142 0.069133
vt 0.036142 0.903937
vt 0.036142 0.930866
vt 0.036142 0.877008
vt 0.036142 0.850079
vt 0.036142 0.823150
vt 0.036142 0.796221
vt 0.036142 0.769291
vt 0.036142 0.742362
vt 0.036142 0.715433
vt 0.036142 0.688504
vt 0.036142 0.661575
vt 0.036142 0.634645
vt 0.036142 0.607716
vt 0.036142 0.580787
vt 0.036142 0.553858
vt 0.036142 0.526929
vt 0.036142 0.500000
vt 0.036142 0.473071
vt 0.036142 0.446141
vt 0.036142 0.419212
vt 0.036142 0.392283
vt 0.036142 0.365354
vt 0.036142 0.338425
vt 0.036142 0.311496
vt 0.036142 0.245691
vt 0.036142 0.217434
vt 0.036142 0.189177
vt 0.036142 0.160921
vt 0.036142 0.132664
vt 0.036142 0.104408
vt 0.036142 0.076151
vt 0.036142 0.047894
vt 0.036142 0.923849
vt 0.036142 0.895592
vt 0.036142 0.867335
vt 0.036142 0.839079
vt 0.036142 0.810822
vt 0.036142 0.782566
vt 0.036142 0.754309
vt 0.036142 0.726052
vt 0.036142 0.697796
vt 0.036142 0.669539
vt 0.036142 0.641283
vt 0.036142 0.613026
vt 0.036142 0.584769
vt 0.036142 0.556513
vt 0.036142 0.528256
vt 0.036142 0.471743
vt 0.036142 0.443487
vt 0.036142 0.415230
vt 0.036142 0.386973
vt 0.036142 0.358717
vt 0.036142 0.330460
vt 0.036142 0.302204
vt 0.036142 0.273947
vt 0.036142 0.952105
vt 0.931970 0.245691
vt 0.931970 0.104408
vt 0.940353 0.952105
vt 0.931970 0.952105
vt 0.940353 0.923849
vt 0.940353 0.895592
vt 0.940353 0.867335
vt 0.940353 0.839079
vt 0.940353 0.810822
vt 0.940353 0.782566
vt 0.940353 0.726052
vt 0.940353 0.754309
vt 0.940353 0.697796
vt 0.940353 0.669539
vt 0.940353 0.613026
vt 0.940353 0.641283
vt 0.940353 0.556513
vt 0.940353 0.584769
vt 0.940353 0.528256
vt 0.940353 0.500000
vt 0.940353 0.443486
vt 0.940353 0.471743
vt 0.940353 0.415230
vt 0.940353 0.386973
vt 0.940353 0.358717
vt 0.940353 0.330460
vt 0.940353 0.283144
vt 0.940353 0.256331
vt 0.940353 0.453929
vt 0.940353 0.229519
vt 0.940353 0.202706
vt 0.940353 0.175893
vt 0.940353 0.149081
vt 0.940353 0.122268
vt 0.940353 0.095455
vt 0.940353 0.068642
vt 0.940353 0.058316
vt 0.940353 0.064873
vt 0.940353 0.088061
vt 0.940353 0.126989
vt 0.940353 0.180161
vt 0.940353 0.245534
vt 0.940353 0.320596
vt 0.940353 0.402461
vt 0.940353 0.487985
vt 0.940353 0.573879
vt 0.940353 0.656844
vt 0.940353 0.733692
vt 0.940353 0.801468
vt 0.940353 0.857568
vt 0.940353 0.899836
vt 0.940353 0.926649
vt 0.940353 0.936975
vt 0.940353 0.930418
vt 0.940353 0.907230
vt 0.940353 0.868302
vt 0.940353 0.815130
vt 0.940353 0.749756
vt 0.940353 0.309956
s 1
f 70/1/1 166/2/2 68/3/2
f 170/4/3 70/1/1 73/5/3
f 173/6/4 73/5/3 76/7/4
f 176/8/5 76/7/4 79/9/5
f 179/10/6 79/9/5 82/11/6
f 85/12/7 179/10/6 82/11/6
f 185/13/8 85/12/7 88/14/8
f 188/15/9 88/14/8 91/16/9
f 191/17/10 91/18/9 94/19/10
f 194/20/11 94/19/10 97/21/11
f 197/22/12 97/21/11 100/23/12
f 200/24/13 100/23/12 103/25/13
f 203/26/14 103/25/13 106/27/14
f 206/28/15 106/27/14 109/29/15
f 209/30/16 109/29/15 112/31/16
f 212/32/17 112/31/16 115/33/17
f 215/34/18 115/33/17 118/35/18
f 218/36/19 118/35/18 121/37/19
f 221/38/20 121/37/19 124/39/20
f 224/40/21 124/39/20 127/41/21
f 227/42/22 127/41/21 130/43/22
f 230/44/23 130/43/22 133/45/23
f 233/46/24 133/45/23 136/47/24
f 236/48/25 136/47/24 139/49/25
f 239/50/26 139/49/25 142/51/26
f 242/52/27 142/51/26 145/53/27
f 245/54/28 145/53/27 148/55/28
f 248/56/29 148/55/28 151/57/29
f 251/58/30 151/57/29 154/59/30
f 254/60/31 154/59/30 157/61/31
f 257/62/32 157/61/31 160/63/32
f 166/2/2 160/63/32 68/3/2
f 167/64/33 259/65/33 261/64/33
f 163/65/33 263/66/33 259/65/33
f 169/66/33 265/67/33 263/66/33
f 175/68/33 265/67/33 172/67/33
f 178/69/33 267/68/33 175/68/33
f 181/70/33 269/69/33 178/69/33
f 184/71/33 271/70/33 181/70/33
f 187/72/33 273/71/33 184/71/33
f 190/73/33 275/72/33 187/72/33
f 193/74/33 277/73/33 190/73/33
f 196/75/33 279/74/33 193/74/33
f 199/76/33 281/75/33 196/75/33
f 202/77/33 283/76/33 199/76/33
f 205/78/33 285/77/33 202/77/33
f 208/79/33 287/78/33 205/78/33
f 211/80/33 289/79/33 208/79/33
f 214/81/33 291/80/33 211/80/33
f 217/82/33 293/81/33 214/81/33
f 220/83/33 295/82/33 217/82/33
f 220/83/33 299/84/33 297/83/33
f 223/84/33 301/85/33 299/84/33
f 226/85/33 303/86/33 301/85/33
f 229/86/33 305/87/33 303/86/33
f 232/87/33 307/88/33 305/87/33
f 235/88/33 309/89/33 307/88/33
f 238/89/33 311/90/33 309/89/33
f 241/90/33 313/91/33 311/90/33
f 244/91/33 315/92/33 313/91/33
f 247/92/33 317/93/33 315/92/33
f 250/93/33 319/94/33 317/93/33
f 256/95/33 319/94/33 253/94/33
f 256/95/33 261/64/33 321/95/33
f 71/96/34 67/97/34 65/98/34
f 74/99/34 71/96/34 65/98/34
f 77/100/34 74/99/34 65/98/34
f 80/101/34 77/100/34 65/98/34
f 83/102/34 80/101/34 65/98/34
f 86/103/34 83/102/34 65/98/34
f 89/104/34 86/103/34 65/98/34
f 92/105/34 89/104/34 65/98/34
f 95/106/34 92/107/34 65/98/34
f 98/108/34 95/106/34 65/98/34
f 101/109/34 98/108/34 65/98/34
f 104/110/34 101/109/34 65/98/34
f 107/111/34 104/110/34 65/98/34
f 110/112/34 107/111/34 65/98/34
f 113/113/34 110/112/34 65/98/34
f 116/114/34 113/113/34 65/98/34
f 119/115/34 116/114/34 65/98/34
f 122/116/34 119/115/34 65/98/34
f 125/117/34 122/116/34 65/98/34
f 128/118/34 125/117/34 65/98/34
f 131/119/34 128/118/34 65/98/34
f 134/120/34 131/119/34 65/98/34
f 137/121/34 134/120/34 65/98/34
f 140/122/34 137/121/34 65/98/34
f 143/123/34 140/122/34 65/98/34
f 146/124/34 143/123/34 65/98/34
f 149/125/34 146/124/34 65/98/34
f 152/126/34 149/125/34 65/98/34
f 155/127/34 152/126/34 65/98/34
f 158/128/34 155/127/34 65/98/34
f 161/129/34 158/128/34 65/98/34
f 67/97/34 161/129/34 65/98/34
f 68/3/2 69/130/35 70/1/1
f 70/1/1 72/131/36 73/5/3
f 73/5/3 75/132/37 76/7/4
f 76/7/4 78/133/38 79/9/5
f 79/9/5 81/134/39 82/11/6
f 85/12/7 81/134/39 84/135/40
f 85/12/7 87/136/41 88/14/8
f 91/16/9 87/136/41 90/137/42
f 91/18/9 93/138/43 94/19/10
f 97/21/11 93/138/43 96/139/44
f 97/21/11 99/140/45 100/23/12
f 100/23/12 102/141/46 103/25/13
f 103/25/13 105/142/47 106/27/14
f 106/27/14 108/143/48 109/29/15
f 109/29/15 111/144/49 112/31/16
f 112/31/16 114/145/50 115/33/17
f 115/33/17 117/146/51 118/35/18
f 118/35/18 120/147/52 121/37/19
f 121/37/19 123/148/53 124/39/20
f 124/39/20 126/149/54 127/41/21
f 127/41/21 129/150/55 130/43/22
f 130/43/22 132/151/56 133/45/23
f 136/47/24 132/151/56 135/152/57
f 136/47/24 138/122/58 139/49/25
f 139/49/25 141/153/59 142/51/26
f 142/51/26 144/154/60 145/53/27
f 145/53/27 147/155/61 148/55/28
f 148/55/28 150/156/62 151/57/29
f 151/57/29 153/157/63 154/59/30
f 154/59/30 156/158/64 157/61/31
f 157/61/31 159/159/65 160/63/32
f 68/3/2 159/159/65 66/160/66
f 67/97/34 69/130/35 66/160/66
f 74/99/34 69/130/35 71/96/34
f 74/99/34 75/132/37 72/131/36
f 80/101/34 75/132/37 77/100/34
f 83/102/34 78/133/38 80/101/34
f 86/103/34 81/134/39 83/102/34
f 86/103/34 87/136/41 84/135/40
f 92/105/34 87/136/41 89/104/34
f 95/106/34 90/161/42 92/107/34
f 98/108/34 93/138/43 95/106/34
f 101/109/34 96/139/44 98/108/34
f 104/110/34 99/140/45 101/109/34
f 104/110/34 105/142/47 102/141/46
f 110/112/34 105/142/47 107/111/34
f 110/112/34 111/144/49 108/143/48
f 116/114/34 111/144/49 113/113/34
f 119/115/34 114/145/50 116/114/34
f 122/116/34 117/146/51 119/115/34
f 125/117/34 120/147/52 122/116/34
f 125/117/34 126/149/54 123/148/53
f 128/118/34 129/150/55 126/149/54
f 131/119/34 132/151/56 129/150/55
f 137/121/34 132/151/56 134/120/34
f 137/121/34 138/122/58 135/152/57
f 140/122/34 141/153/59 138/122/58
f 143/123/34 144/154/60 141/153/59
f 146/124/34 147/155/61 144/154/60
f 152/126/34 147/155/61 149/125/34
f 155/127/34 150/156/62 152/126/34
f 155/127/34 156/158/64 153/157/63
f 158/128/34 159/159/65 156/158/64
f 161/129/34 66/160/66 159/159/65
f 164/162/1 165/64/67 166/2/2
f 170/4/3 162/65/68 164/162/1
f 173/6/4 168/66/69 170/4/3
f 176/8/5 171/67/70 173/6/4
f 179/10/6 174/68/71 176/8/5
f 179/10/6 180/70/72 177/69/73
f 185/13/8 180/70/72 182/163/7
f 188/15/9 183/71/74 185/13/8
f 191/17/10 186/164/75 188/165/9
f 194/20/11 189/166/76 191/17/10
f 197/22/12 192/167/77 194/20/11
f 200/24/13 195/168/78 197/22/12
f 203/26/14 198/169/79 200/24/13
f 206/28/15 201/170/80 203/26/14
f 209/30/16 204/171/81 206/28/15
f 209/30/16 210/172/82 207/173/83
f 215/34/18 210/172/82 212/32/17
f 218/36/19 213/174/84 215/34/18
f 221/38/20 216/175/85 218/36/19
f 221/38/20 222/176/86 219/177/87
f 227/42/22 222/176/86 224/40/21
f 227/42/22 228/178/88 225/179/89
f 233/46/24 228/178/88 230/44/23
f 236/48/25 231/180/90 233/46/24
f 239/50/26 234/181/91 236/48/25
f 239/50/26 240/182/92 237/183/93
f 245/54/28 240/182/92 242/52/27
f 248/56/29 243/184/94 245/54/28
f 251/58/30 246/185/95 248/56/29
f 254/60/31 249/186/96 251/58/30
f 254/60/31 255/95/97 252/187/98
f 257/62/32 165/64/67 255/95/97
f 163/65/33 165/64/67 162/65/68
f 261/64/33 258/65/33 260/64/33
f 169/66/33 162/65/68 168/66/69
f 263/66/33 258/65/33 259/65/33
f 172/67/33 168/66/69 171/67/70
f 263/66/33 264/67/33 262/66/33
f 172/67/33 174/68/71 175/68/33
f 265/67/33 266/68/33 264/67/33
f 175/68/33 177/69/73 178/69/33
f 267/68/33 268/69/33 266/68/33
f 181/70/33 177/69/73 180/70/72
f 271/70/33 268/69/33 269/69/33
f 181/70/33 183/71/74 184/71/33
f 273/71/33 270/70/33 271/70/33
f 184/71/33 186/72/75 187/72/33
f 275/72/33 272/71/33 273/71/33
f 190/73/33 186/72/75 189/73/76
f 277/73/33 274/72/33 275/72/33
f 190/73/33 192/74/77 193/74/33
f 279/74/33 276/73/33 277/73/33
f 193/74/33 195/75/78 196/75/33
f 281/75/33 278/74/33 279/74/33
f 196/75/33 198/76/79 199/76/33
f 283/76/33 280/75/33 281/75/33
f 199/76/33 201/77/80 202/77/33
f 285/77/33 282/76/33 283/76/33
f 202/77/33 204/78/81 205/78/33
f 287/78/33 284/77/33 285/77/33
f 205/78/33 207/79/83 208/79/33
f 287/78/33 288/79/33 286/78/33
f 208/79/33 210/80/82 211/80/33
f 291/80/33 288/79/33 289/79/33
f 211/80/33 213/81/84 214/81/33
f 293/81/33 290/80/33 291/80/33
f 214/81/33 216/82/85 217/82/33
f 295/82/33 292/81/33 293/81/33
f 217/82/33 219/83/87 220/83/33
f 297/83/33 294/82/33 295/82/33
f 220/83/33 222/84/86 223/84/33
f 297/83/33 298/84/33 296/83/33
f 226/85/33 222/84/86 225/85/89
f 299/84/33 300/85/33 298/84/33
f 229/86/33 225/85/89 228/86/88
f 303/86/33 300/85/33 301/85/33
f 232/87/33 228/86/88 231/87/90
f 303/86/33 304/87/33 302/86/33
f 235/88/33 231/87/90 234/88/91
f 305/87/33 306/88/33 304/87/33
f 238/89/33 234/88/91 237/89/93
f 307/88/33 308/89/33 306/88/33
f 241/90/33 237/89/93 240/90/92
f 309/89/33 310/90/33 308/89/33
f 244/91/33 240/90/92 243/91/94
f 311/90/33 312/91/33 310/90/33
f 247/92/33 243/91/94 246/92/95
f 313/91/33 314/92/33 312/91/33
f 250/93/33 246/92/95 249/93/96
f 315/92/33 316/93/33 314/92/33
f 253/94/33 249/93/96 252/94/98
f 319/94/33 316/93/33 317/93/33
f 253/94/33 255/95/97 256/95/33
f 321/95/33 318/94/33 319/94/33
f 167/64/33 255/95/97 165/64/67
f 261/64/33 320/95/33 321/95/33
f 70/1/1 164/162/1 166/2/2
f 170/4/3 164/162/1 70/1/1
f 173/6/4 170/4/3 73/5/3
f 176/8/5 173/6/4 76/7/4
f 179/10/6 176/8/5 79/9/5
f 85/12/7 182/163/7 179/10/6
f 185/13/8 182/163/7 85/12/7
f 188/15/9 185/13/8 88/14/8
f 191/17/10 188/165/9 91/18/9
f 194/20/11 191/17/10 94/19/10
f 197/22/12 194/20/11 97/21/11
f 200/24/13 197/22/12 100/23/12
f 203/26/14 200/24/13 103/25/13
f 206/28/15 203/26/14 106/27/14
f 209/30/16 206/28/15 109/29/15
f 212/32/17 209/30/16 112/31/16
f 215/34/18 212/32/17 115/33/17
f 218/36/19 215/34/18 118/35/18
f 221/38/20 218/36/19 121/37/19
f 224/40/21 221/38/20 124/39/20
f 227/42/22 224/40/21 127/41/21
f 230/44/23 227/42/22 130/43/22
f 233/46/24 230/44/23 133/45/23
f 236/48/25 233/46/24 136/47/24
f 239/50/26 236/48/25 139/49/25
f 242/52/27 239/50/26 142/51/26
f 245/54/28 242/52/27 145/53/27
f 248/56/29 245/54/28 148/55/28
f 251/58/30 248/56/29 151/57/29
f 254/60/31 251/58/30 154/59/30
f 257/62/32 254/60/31 157/61/31
f 166/2/2 257/62/32 160/63/32
f 167/64/33 163/65/33 259/65/33
f 163/65/33 169/66/33 263/66/33
f 169/66/33 172/67/33 265/67/33
f 175/68/33 267/68/33 265/67/33
f 178/69/33 269/69/33 267/68/33
f 181/70/33 271/70/33 269/69/33
f 184/71/33 273/71/33 271/70/33
f 187/72/33 275/72/33 273/71/33
f 190/73/33 277/73/33 275/72/33
f 193/74/33 279/74/33 277/73/33
f 196/75/33 281/75/33 279/74/33
f 199/76/33 283/76/33 281/75/33
f 202/77/33 285/77/33 283/76/33
f 205/78/33 287/78/33 285/77/33
f 208/79/33 289/79/33 287/78/33
f 211/80/33 291/80/33 289/79/33
f 214/81/33 293/81/33 291/80/33
f 217/82/33 295/82/33 293/81/33
f 220/83/33 297/83/33 295/82/33
f 220/83/33 223/84/33 299/84/33
f 223/84/33 226/85/33 301/85/33
f 226/85/33 229/86/33 303/86/33
f 229/86/33 232/87/33 305/87/33
f 232/87/33 235/88/33 307/88/33
f 235/88/33 238/89/33 309/89/33
f 238/89/33 241/90/33 311/90/33
f 241/90/33 244/91/33 313/91/33
f 244/91/33 247/92/33 315/92/33
f 247/92/33 250/93/33 317/93/33
f 250/93/33 253/94/33 319/94/33
f 256/95/33 321/95/33 319/94/33
f 256/95/33 167/64/33 261/64/33
f 68/3/2 66/160/66 69/130/35
f 70/1/1 69/130/35 72/131/36
f 73/5/3 72/131/36 75/132/37
f 76/7/4 75/132/37 78/133/38
f 79/9/5 78/133/38 81/134/39
f 85/12/7 82/11/6 81/134/39
f 85/12/7 84/135/40 87/136/41
f 91/16/9 88/14/8 87/136/41
f 91/18/9 90/161/42 93/138/43
f 97/21/11 94/19/10 93/138/43
f 97/21/11 96/139/44 99/140/45
f 100/23/12 99/140/45 102/141/46
f 103/25/13 102/141/46 105/142/47
f 106/27/14 105/142/47 108/143/48
f 109/29/15 108/143/48 111/144/49
f 112/31/16 111/144/49 114/145/50
f 115/33/17 114/145/50 117/146/51
f 118/35/18 117/146/51 120/147/52
f 121/37/19 120/147/52 123/148/53
f 124/39/20 123/148/53 126/149/54
f 127/41/21 126/149/54 129/150/55
f 130/43/22 129/150/55 132/151/56
f 136/47/24 133/45/23 132/151/56
f 136/47/24 135/152/57 138/122/58
f 139/49/25 138/122/58 141/153/59
f 142/51/26 141/153/59 144/154/60
f 145/53/27 144/154/60 147/155/61
f 148/55/28 147/155/61 150/156/62
f 151/57/29 150/156/62 153/157/63
f 154/59/30 153/157/63 156/158/64
f 157/61/31 156/158/64 159/159/65
f 68/3/2 160/63/32 159/159/65
f 67/97/34 71/96/34 69/130/35
f 74/99/34 72/131/36 69/130/35
f 74/99/34 77/100/34 75/132/37
f 80/101/34 78/133/38 75/132/37
f 83/102/34 81/134/39 78/133/38
f 86/103/34 84/135/40 81/134/39
f 86/103/34 89/104/34 87/136/41
f 92/105/34 90/137/42 87/136/41
f 95/106/34 93/138/43 90/161/42
f 98/108/34 96/139/44 93/138/43
f 101/109/34 99/140/45 96/139/44
f 104/110/34 102/141/46 99/140/45
f 104/110/34 107/111/34 105/142/47
f 110/112/34 108/143/48 105/142/47
f 110/112/34 113/113/34 111/144/49
f 116/114/34 114/145/50 111/144/49
f 119/115/34 117/146/51 114/145/50
f 122/116/34 120/147/52 117/146/51
f 125/117/34 123/148/53 120/147/52
f 125/117/34 128/118/34 126/149/54
f 128/118/34 131/119/34 129/150/55
f 131/119/34 134/120/34 132/151/56
f 137/121/34 135/152/57 132/151/56
f 137/121/34 140/122/34 138/122/58
f 140/122/34 143/123/34 141/153/59
f 143/123/34 146/124/34 144/154/60
f 146/124/34 149/125/34 147/155/61
f 152/126/34 150/156/62 147/155/61
f 155/127/34 153/157/63 150/156/62
f 155/127/34 158/128/34 156/158/64
f 158/128/34 161/129/34 159/159/65
f 161/129/34 67/97/34 66/160/66
f 164/162/1 162/65/68 165/64/67
f 170/4/3 168/66/69 162/65/68
f 173/6/4 171/67/70 168/66/69
f 176/8/5 174/68/71 171/67/70
f 179/10/6 177/69/73 174/68/71
f 179/10/6 182/163/7 180/70/72
f 185/13/8 183/71/74 180/70/72
f 188/15/9 186/72/75 183/71/74
f 191/17/10 189/166/76 186/164/75
f 194/20/11 192/167/77 189/166/76
f 197/22/12 195/168/78 192/167/77
f 200/24/13 198/169/79 195/168/78
f 203/26/14 201/170/80 198/169/79
f 206/28/15 204/171/81 201/170/80
f 209/30/16 207/173/83 204/171/81
f 209/30/16 212/32/17 210/172/82
f 215/34/18 213/174/84 210/172/82
f 218/36/19 216/175/85 213/174/84
f 221/38/20 219/177/87 216/175/85
f 221/38/20 224/40/21 222/176/86
f 227/42/22 225/179/89 222/176/86
f 227/42/22 230/44/23 228/178/88
f 233/46/24 231/180/90 228/178/88
f 236/48/25 234/181/91 231/180/90
f 239/50/26 237/183/93 234/181/91
f 239/50/26 242/52/27 240/182/92
f 245/54/28 243/184/94 240/182/92
f 248/56/29 246/185/95 243/184/94
f 251/58/30 249/186/96 246/185/95
f 254/60/31 252/187/98 249/186/96
f 254/60/31 257/62/32 255/95/97
f 257/62/32 166/2/2 165/64/67
f 163/65/33 167/64/33 165/64/67
f 261/64/33 259/65/33 258/65/33
f 169/66/33 163/65/33 162/65/68
f 263/66/33 262/66/33 258/65/33
f 172/67/33 169/66/33 168/66/69
f 263/66/33 265/67/33 264/67/33
f 172/67/33 171/67/70 174/68/71
f 265/67/33 267/68/33 266/68/33
f 175/68/33 174/68/71 177/69/73
f 267/68/33 269/69/33 268/69/33
f 181/70/33 178/69/33 177/69/73
f 271/70/33 270/70/33 268/69/33
f 181/70/33 180/70/72 183/71/74
f 273/71/33 272/71/33 270/70/33
f 184/71/33 183/71/74 186/72/75
f 275/72/33 274/72/33 272/71/33
f 190/73/33 187/72/33 186/72/75
f 277/73/33 276/73/33 274/72/33
f 190/73/33 189/73/76 192/74/77
f 279/74/33 278/74/33 276/73/33
f 193/74/33 192/74/77 195/75/78
f 281/75/33 280/75/33 278/74/33
f 196/75/33 195/75/78 198/76/79
f 283/76/33 282/76/33 280/75/33
f 199/76/33 198/76/79 201/77/80
f 285/77/33 284/77/33 282/76/33
f 202/77/33 201/77/80 204/78/81
f 287/78/33 286/78/33 284/77/33
f 205/78/33 204/78/81 207/79/83
f 287/78/33 289/79/33 288/79/33
f 208/79/33 207/79/83 210/80/82
f 291/80/33 290/80/33 288/79/33
f 211/80/33 210/80/82 213/81/84
f 293/81/33 292/81/33 290/80/33
f 214/81/33 213/81/84 216/82/85
f 295/82/33 294/82/33 292/81/33
f 217/82/33 216/82/85 219/83/87
f 297/83/33 296/83/33 294/82/33
f 220/83/33 219/83/87 222/84/86
f 297/83/33 299/84/33 298/84/33
f 226/85/33 223/84/33 222/84/86
f 299/84/33 301/85/33 300/85/33
f 229/86/33 226/85/33 225/85/89
f 303/86/33 302/86/33 300/85/33
f 232/87/33 229/86/33 228/86/88
f 303/86/33 305/87/33 304/87/33
f 235/88/33 232/87/33 231/87/90
f 305/87/33 307/88/33 306/88/33
f 238/89/33 235/88/33 234/88/91
f 307/88/33 309/89/33 308/89/33
f 241/90/33 238/89/33 237/89/93
f 309/89/33 311/90/33 310/90/33
f 244/91/33 241/90/33 240/90/92
f 311/90/33 313/91/33 312/91/33
f 247/92/33 244/91/33 243/91/94
f 313/91/33 315/92/33 314/92/33
f 250/93/33 247/92/33 246/92/95
f 315/92/33 317/93/33 316/93/33
f 253/94/33 250/93/33 249/93/96
f 319/94/33 318/94/33 316/93/33
f 253/94/33 252/94/98 255/95/97
f 321/95/33 320/95/33 318/94/33
f 167/64/33 256/95/33 255/95/97
f 261/64/33 260/64/33 320/95/33
f 325/65/99 422/64/100 420/65/99
f 331/66/101 420/65/99 424/66/101
f 334/67/102 424/66/101 426/67/102
f 337/68/103 426/67/102 428/68/103
f 340/69/104 428/68/103 430/69/104
f 343/70/105 430/69/104 432/70/105
f 346/71/106 432/70/105 434/71/106
f 349/72/107 434/71/106 436/72/107
f 352/73/108 436/72/107 438/73/108
f 440/74/109 352/73/108 438/73/108
f 442/75/110 355/74/109 440/74/109
f 361/76/111 442/75/110 444/76/111
f 364/77/112 444/76/111 446/77/112
f 448/78/113 364/77/112 446/77/112
f 370/79/114 448/78/113 450/79/114
f 373/80/115 450/79/114 452/80/115
f 376/81/116 452/80/115 454/81/116
f 379/82/117 454/81/116 456/82/117
f 458/83/118 379/82/117 456/82/117
f 385/84/119 458/83/118 460/84/119
f 388/85/120 460/84/119 462/85/120
f 391/86/121 462/85/120 464/86/121
f 394/87/122 464/86/121 466/87/122
f 397/88/123 466/87/122 468/88/123
f 400/89/124 468/88/123 470/89/124
f 472/90/125 400/89/124 470/89/124
f 406/91/126 472/90/125 474/91/126
f 409/92/127 474/91/126 476/92/127
f 412/93/128 476/92/127 478/93/128
f 415/94/129 478/93/128 480/94/129
f 418/95/130 480/94/129 482/95/130
f 327/64/100 482/95/130 422/64/100
f 328/188/33 324/189/33 322/190/33
f 324/189/33 330/191/33 322/190/33
f 330/191/33 333/192/33 322/190/33
f 333/192/33 336/193/33 322/190/33
f 336/193/33 339/194/33 322/190/33
f 339/194/33 342/195/33 322/190/33
f 342/195/33 345/196/33 322/190/33
f 345/196/33 348/197/33 322/190/33
f 348/197/33 351/198/33 322/190/33
f 351/198/33 354/199/33 322/190/33
f 354/199/33 357/200/33 322/190/33
f 357/200/33 360/201/33 322/190/33
f 360/201/33 363/202/33 322/190/33
f 363/202/33 366/203/33 322/190/33
f 366/203/33 369/204/33 322/190/33
f 369/204/33 372/205/33 322/190/33
f 372/205/33 375/206/33 322/190/33
f 375/206/33 378/207/33 322/190/33
f 378/207/33 381/208/33 322/190/33
f 381/208/33 384/209/33 322/190/33
f 384/209/33 387/210/33 322/190/33
f 387/210/33 390/211/33 322/190/33
f 390/211/33 393/212/33 322/190/33
f 393/212/33 396/213/33 322/190/33
f 396/213/33 399/214/33 322/190/33
f 399/214/33 402/215/33 322/190/33
f 402/215/33 405/216/33 322/190/33
f 405/216/33 408/217/33 322/190/33
f 408/217/33 411/218/33 322/190/33
f 411/218/33 414/219/33 322/190/33
f 414/219/33 417/220/33 322/190/33
f 417/220/33 328/188/33 322/190/33
f 327/64/100 323/65/131 326/64/132
f 331/66/101 323/65/131 325/65/99
f 331/66/101 332/67/133 329/66/134
f 337/68/103 332/67/133 334/67/102
f 340/69/104 335/68/135 337/68/103
f 343/70/105 338/69/136 340/69/104
f 346/71/106 341/70/137 343/70/105
f 346/71/106 347/72/138 344/71/139
f 352/73/108 347/72/138 349/72/107
f 355/74/109 350/73/140 352/73/108
f 358/75/110 353/74/141 355/74/109
f 358/75/110 359/76/142 356/75/143
f 364/77/112 359/76/142 361/76/111
f 367/78/113 362/77/144 364/77/112
f 367/78/113 368/79/145 365/78/146
f 373/80/115 368/79/145 370/79/114
f 373/80/115 374/81/147 371/80/148
f 376/81/116 377/82/149 374/81/147
f 379/82/117 380/83/150 377/82/149
f 385/84/119 380/83/150 382/83/118
f 388/85/120 383/84/151 385/84/119
f 391/86/121 386/85/152 388/85/120
f 394/87/122 389/86/153 391/86/121
f 397/88/123 392/87/154 394/87/122
f 400/89/124 395/88/155 397/88/123
f 403/90/125 398/89/156 400/89/124
f 406/91/126 401/90/157 403/90/125
f 409/92/127 404/91/158 406/91/126
f 412/93/128 407/92/159 409/92/127
f 412/93/128 413/94/160 410/93/161
f 418/95/130 413/94/160 415/94/129
f 327/64/100 416/95/162 418/95/130
f 328/188/33 323/65/131 324/189/33
f 324/189/33 329/66/134 330/191/33
f 330/191/33 332/67/133 333/192/33
f 336/193/33 332/67/133 335/68/135
f 336/193/33 338/69/136 339/194/33
f 339/194/33 341/70/137 342/195/33
f 345/196/33 341/70/137 344/71/139
f 345/196/33 347/72/138 348/197/33
f 351/198/33 347/72/138 350/73/140
f 351/198/33 353/74/141 354/199/33
f 357/200/33 353/74/141 356/75/143
f 360/201/33 356/75/143 359/76/142
f 360/201/33 362/77/144 363/202/33
f 363/202/33 365/78/146 366/203/33
f 366/203/33 368/79/145 369/204/33
f 369/204/33 371/80/148 372/205/33
f 375/206/33 371/80/148 374/81/147
f 375/206/33 377/82/149 378/207/33
f 378/207/33 380/83/150 381/208/33
f 381/208/33 383/84/151 384/209/33
f 384/209/33 386/85/152 387/210/33
f 387/210/33 389/86/153 390/211/33
f 390/211/33 392/87/154 393/212/33
f 393/212/33 395/88/155 396/213/33
f 396/213/33 398/89/156 399/214/33
f 402/215/33 398/89/156 401/90/157
f 402/215/33 404/91/158 405/216/33
f 405/216/33 407/92/159 408/217/33
f 408/217/33 410/93/161 411/218/33
f 411/218/33 413/94/160 414/219/33
f 414/219/33 416/95/162 417/220/33
f 417/220/33 326/64/132 328/188/33
f 420/65/99 421/64/100 419/65/99
f 420/65/99 423/66/101 424/66/101
f 424/66/101 425/67/102 426/67/102
f 426/67/102 427/68/103 428/68/103
f 428/68/103 429/69/104 430/69/104
f 430/69/104 431/70/105 432/70/105
f 432/70/105 433/71/106 434/71/106
f 434/71/106 435/72/107 436/72/107
f 436/72/107 437/73/108 438/73/108
f 440/74/109 437/73/108 439/74/109
f 440/74/109 441/75/110 442/75/110
f 442/75/110 443/76/111 444/76/111
f 444/76/111 445/77/112 446/77/112
f 446/77/112 447/78/113 448/78/113
f 450/79/114 447/78/113 449/79/114
f 450/79/114 451/80/115 452/80/115
f 452/80/115 453/81/116 454/81/116
f 454/81/116 455/82/117 456/82/117
f 456/82/117 457/83/118 458/83/118
f 460/84/119 457/83/118 459/84/119
f 460/84/119 461/85/120 462/85/120
f 462/85/120 463/86/121 464/86/121
f 464/86/121 465/87/122 466/87/122
f 466/87/122 467/88/123 468/88/123
f 468/88/123 469/89/124 470/89/124
f 470/89/124 471/90/125 472/90/125
f 472/90/125 473/91/126 474/91/126
f 476/92/127 473/91/126 475/92/127
f 476/92/127 477/93/128 478/93/128
f 478/93/128 479/94/129 480/94/129
f 480/94/129 481/95/130 482/95/130
f 482/95/130 421/64/100 422/64/100
f 325/65/99 327/64/100 422/64/100
f 331/66/101 325/65/99 420/65/99
f 334/67/102 331/66/101 424/66/101
f 337/68/103 334/67/102 426/67/102
f 340/69/104 337/68/103 428/68/103
f 343/70/105 340/69/104 430/69/104
f 346/71/106 343/70/105 432/70/105
f 349/72/107 346/71/106 434/71/106
f 352/73/108 349/72/107 436/72/107
f 440/74/109 355/74/109 352/73/108
f 442/75/110 358/75/110 355/74/109
f 361/76/111 358/75/110 442/75/110
f 364/77/112 361/76/111 444/76/111
f 448/78/113 367/78/113 364/77/112
f 370/79/114 367/78/113 448/78/113
f 373/80/115 370/79/114 450/79/114
f 376/81/116 373/80/115 452/80/115
f 379/82/117 376/81/116 454/81/116
f 458/83/118 382/83/118 379/82/117
f 385/84/119 382/83/118 458/83/118
f 388/85/120 385/84/119 460/84/119
f 391/86/121 388/85/120 462/85/120
f 394/87/122 391/86/121 464/86/121
f 397/88/123 394/87/122 466/87/122
f 400/89/124 397/88/123 468/88/123
f 472/90/125 403/90/125 400/89/124
f 406/91/126 403/90/125 472/90/125
f 409/92/127 406/91/126 474/91/126
f 412/93/128 409/92/127 476/92/127
f 415/94/129 412/93/128 478/93/128
f 418/95/130 415/94/129 480/94/129
f 327/64/100 418/95/130 482/95/130
f 327/64/100 325/65/99 323/65/131
f 331/66/101 329/66/134 323/65/131
f 331/66/101 334/67/102 332/67/133
f 337/68/103 335/68/135 332/67/133
f 340/69/104 338/69/136 335/68/135
f 343/70/105 341/70/137 338/69/136
f 346/71/106 344/71/139 341/70/137
f 346/71/106 349/72/107 347/72/138
f 352/73/108 350/73/140 347/72/138
f 355/74/109 353/74/141 350/73/140
f 358/75/110 356/75/143 353/74/141
f 358/75/110 361/76/111 359/76/142
f 364/77/112 362/77/144 359/76/142
f 367/78/113 365/78/146 362/77/144
f 367/78/113 370/79/114 368/79/145
f 373/80/115 371/80/148 368/79/145
f 373/80/115 376/81/116 374/81/147
f 376/81/116 379/82/117 377/82/149
f 379/82/117 382/83/118 380/83/150
f 385/84/119 383/84/151 380/83/150
f 388/85/120 386/85/152 383/84/151
f 391/86/121 389/86/153 386/85/152
f 394/87/122 392/87/154 389/86/153
f 397/88/123 395/88/155 392/87/154
f 400/89/124 398/89/156 395/88/155
f 403/90/125 401/90/157 398/89/156
f 406/91/126 404/91/158 401/90/157
f 409/92/127 407/92/159 404/91/158
f 412/93/128 410/93/161 407/92/159
f 412/93/128 415/94/129 413/94/160
f 418/95/130 416/95/162 413/94/160
f 327/64/100 326/64/132 416/95/162
f 328/188/33 326/64/132 323/65/131
f 324/189/33 323/65/131 329/66/134
f 330/191/33 329/66/134 332/67/133
f 336/193/33 333/192/33 332/67/133
f 336/193/33 335/68/135 338/69/136
f 339/194/33 338/69/136 341/70/137
f 345/196/33 342/195/33 341/70/137
f 345/196/33 344/71/139 347/72/138
f 351/198/33 348/197/33 347/72/138
f 351/198/33 350/73/140 353/74/141
f 357/200/33 354/199/33 353/74/141
f 360/201/33 357/200/33 356/75/143
f 360/201/33 359/76/142 362/77/144
f 363/202/33 362/77/144 365/78/146
f 366/203/33 365/78/146 368/79/145
f 369/204/33 368/79/145 371/80/148
f 375/206/33 372/205/33 371/80/148
f 375/206/33 374/81/147 377/82/149
f 378/207/33 377/82/149 380/83/150
f 381/208/33 380/83/150 383/84/151
f 384/209/33 383/84/151 386/85/152
f 387/210/33 386/85/152 389/86/153
f 390/211/33 389/86/153 392/87/154
f 393/212/33 392/87/154 395/88/155
f 396/213/33 395/88/155 398/89/156
f 402/215/33 399/214/33 398/89/156
f 402/215/33 401/90/157 404/91/158
f 405/216/33 404/91/158 407/92/159
f 408/217/33 407/92/159 410/93/161
f 411/218/33 410/93/161 413/94/160
f 414/219/33 413/94/160 416/95/162
f 417/220/33 416/95/162 326/64/132
f 420/65/99 422/64/100 421/64/100
f 420/65/99 419/65/99 423/66/101
f 424/66/101 423/66/101 425/67/102
f 426/67/102 425/67/102 427/68/103
f 428/68/103 427/68/103 429/69/104
f 430/69/104 429/69/104 431/70/105
f 432/70/105 431/70/105 433/71/106
f 434/71/106 433/71/106 435/72/107
f 436/72/107 435/72/107 437/73/108
f 440/74/109 438/73/108 437/73/108
f 440/74/109 439/74/109 441/75/110
f 442/75/110 441/75/110 443/76/111
f 444/76/111 443/76/111 445/77/112
f 446/77/112 445/77/112 447/78/113
f 450/79/114 448/78/113 447/78/113
f 450/79/114 449/79/114 451/80/115
f 452/80/115 451/80/115 453/81/116
f 454/81/116 453/81/116 455/82/117
f 456/82/117 455/82/117 457/83/118
f 460/84/119 458/83/118 457/83/118
f 460/84/119 459/84/119 461/85/120
f 462/85/120 461/85/120 463/86/121
f 464/86/121 463/86/121 465/87/122
f 466/87/122 465/87/122 467/88/123
f 468/88/123 467/88/123 469/89/124
f 470/89/124 469/89/124 471/90/125
f 472/90/125 471/90/125 473/91/126
f 476/92/127 474/91/126 473/91/126
f 476/92/127 475/92/127 477/93/128
f 478/93/128 477/93/128 479/94/129
f 480/94/129 479/94/129 481/95/130
f 482/95/130 481/95/130 421/64/100
