# https://github.com/mikedh/trimesh
v 0.01432168 -0.03465225 0.09997524
v 0.01432168 -0.03465571 0.10000011
v 0.01432168 -0.03682438 0.09997494
v 0.00970525 -0.03622009 0.09997494
v 0.00005335 -0.03749445 0.09997494
v 0.00005335 -0.03749705 0.10000011
v 0.01432168 -0.03467476 0.10002203
v 0.00005335 -0.03996959 0.10296802
v 0.00005335 -0.03999643 0.10300000
v 0.01432168 -0.03728755 0.09997494
v 0.00005335 -0.03999383 0.09997494
v 0.01432168 -0.03729014 0.10300000
v 0.00005335 -0.04349660 0.10300000
v 0.01432168 -0.04097817 0.10000011
v 0.01125849 -0.04201792 0.10000011
v 0.01035197 -0.03863463 0.09997494
v 0.00005335 -0.04349660 0.10000011
v 0.00522152 -0.03965533 0.09997494
v 0.01432168 -0.04097817 0.10300000
v 0.00567827 -0.04312780 0.10300000
v 0.01125849 -0.04201792 0.10300000
v 0.00567827 -0.04312780 0.10000011
f 1 2 7
f 1 7 12
f 1 12 19
f 1 19 14
f 1 14 10
f 1 10 3
f 1 3 4
f 1 4 5
f 1 5 6
f 1 6 2
f 2 6 8
f 2 8 9
f 2 9 7
f 3 10 16
f 3 16 18
f 3 18 11
f 3 11 5
f 3 5 4
f 5 11 17
f 5 17 13
f 5 13 9
f 5 9 8
f 5 8 6
f 7 9 12
f 9 13 20
f 9 20 21
f 9 21 19
f 9 19 12
f 10 14 15
f 10 15 16
f 11 18 17
f 13 17 22
f 13 22 20
f 14 19 21
f 14 21 15
f 15 21 20
f 15 20 22
f 15 22 18
f 15 18 16
f 17 18 22

