# https://github.com/mikedh/trimesh
v -0.04349954 -0.00000859 0.10000011
v -0.04349470 -0.00000859 0.10300000
v -0.03999683 -0.00000859 0.09997494
v -0.03965489 -0.00522095 0.09997494
v -0.04312757 -0.00567826 0.10000011
v -0.04312757 -0.00567826 0.10300000
v -0.03999877 -0.00000859 0.10300000
v -0.03749766 -0.00000859 0.09997494
v -0.03863391 -0.01035120 0.09997494
v -0.04201748 -0.01125776 0.10000011
v -0.04201748 -0.01125776 0.10300000
v -0.03749960 -0.00000859 0.10000011
v -0.03638853 -0.01645564 0.10300000
v -0.03360651 -0.01645564 0.10000011
v -0.03360457 -0.01645564 0.09997494
v -0.03360554 -0.01645564 0.09998827
v -0.03695327 -0.01530592 0.09997494
v -0.04025256 -0.01645564 0.10000011
v -0.04025256 -0.01645564 0.10300000
v -0.03638563 -0.01645564 0.09997494
f 1 2 7
f 1 7 12
f 1 12 8
f 1 8 3
f 1 3 4
f 1 4 5
f 1 5 6
f 1 6 2
f 2 6 11
f 2 11 19
f 2 19 13
f 2 13 7
f 3 8 15
f 3 15 20
f 3 20 17
f 3 17 9
f 3 9 4
f 4 9 10
f 4 10 5
f 5 10 11
f 5 11 6
f 7 13 14
f 7 14 12
f 8 12 16
f 8 16 15
f 9 17 10
f 10 17 18
f 10 18 19
f 10 19 11
f 12 14 16
f 13 19 18
f 13 18 20
f 13 20 15
f 13 15 16
f 13 16 14
f 17 20 18

