# https://github.com/mikedh/trimesh
v 0.00509063 -0.01900432 0.00892307
v 0.00509063 -0.01900432 0.00553837
v 0.00509063 -0.01540679 0.00553837
v 0.00508839 -0.03328938 0.04504604
v 0.00508839 -0.03395462 0.04541110
v 0.00508839 -0.03415156 0.04551476
v 0.00508839 -0.03490871 0.04550124
v 0.00508839 -0.03511222 0.04549222
v 0.00508839 -0.03568117 0.04513618
v 0.00508839 -0.03582122 0.04503702
v 0.00508839 -0.03593720 0.04432493
v 0.00508839 -0.03595470 0.04414015
v 0.00508839 -0.03556957 0.04217964
v 0.00508839 -0.03518006 0.04029124
v 0.00508839 -0.03500937 0.03953407
v 0.00508839 -0.03495685 0.03931323
v 0.00508839 -0.03466143 0.03807383
v 0.00508839 -0.03369422 0.03422041
v 0.00508839 -0.03076193 0.02268720
v 0.00508839 -0.03033740 0.02106020
v 0.00508839 -0.03028926 0.02088443
v 0.00508839 -0.03006824 0.02010023
v 0.00508839 -0.02987130 0.01951433
v 0.00508839 -0.02971812 0.01920786
v 0.00508839 -0.02797844 0.01578711
v 0.00508839 -0.02727819 0.01441250
v 0.00508839 -0.02478356 0.00954051
v 0.00508839 -0.02036324 0.00091427
v 0.00508839 -0.02015754 0.00051766
v 0.00508839 -0.02012472 0.00047259
v 0.00508839 -0.01972864 -0.00000965
v 0.00508839 -0.01900651 -0.00037922
v -0.00765277 -0.01398879 0.00553837
v -0.01785783 -0.02797406 0.04414015
v 0.00508839 -0.03285392 0.04414015
v 0.00508839 -0.03317341 0.04481168
v -0.01785783 -0.02798500 0.04416268
v -0.01785783 -0.02845111 0.04502801
v -0.01723560 -0.03030458 0.04552377
v -0.01050111 -0.03318872 0.04552828
v 0.00103826 -0.03511222 0.04551926
v 0.00296336 -0.03511222 0.04551025
v 0.00392479 -0.03511222 0.04550574
v -0.01785783 -0.02934174 0.04545617
v 0.00488622 -0.03511222 0.04549673
v 0.00103826 -0.03598534 0.04506857
v 0.00296336 -0.03591094 0.04505956
v 0.00488622 -0.03583435 0.04505054
v 0.00103826 -0.03628514 0.04414015
v 0.00488622 -0.03598315 0.04414015
v 0.00488622 -0.03540326 0.04125572
v 0.00488622 -0.03520850 0.04029124
v 0.00488622 -0.03499186 0.03933126
v 0.00456724 -0.03464393 0.03783496
v 0.00392479 -0.03082320 0.02234918
v 0.00448637 -0.03079694 0.02245284
v 0.00488622 -0.03038117 0.02106020
v 0.00488622 -0.03010763 0.02009572
v 0.00488622 -0.02989099 0.01947377
v 0.00469977 -0.02700903 0.01370491
v 0.00392479 -0.02126043 0.00212212
v 0.00392479 -0.02101316 0.00163988
v 0.00392479 -0.02061051 0.00085568
v 0.00446166 -0.02022100 0.00034640
v 0.00392479 -0.01972645 -0.00021246
v 0.00392479 -0.02028665 0.00023823
v 0.00296336 -0.02036980 0.00010302
v 0.00296336 -0.01972645 -0.00034767
v 0.00493788 -0.01900651 -0.00039274
v 0.00392479 -0.01900651 -0.00044682
v -0.00804139 -0.01397566 0.00553837
v -0.01785783 -0.01900651 0.01964503
v -0.01146479 -0.03318872 0.04552377
v -0.01785783 -0.03030458 0.04550574
v -0.01627193 -0.03126523 0.04551476
v -0.00761459 -0.03415156 0.04552377
v -0.00088684 -0.03511222 0.04551926
v 0.00007684 -0.03600941 0.04506857
v 0.00007684 -0.03633109 0.04414015
v 0.00079341 -0.03561114 0.04067883
v 0.00103826 -0.03590000 0.04221569
v 0.00199969 -0.03556519 0.04091770
v 0.00296336 -0.03536168 0.04029124
v 0.00296336 -0.03514504 0.03933126
v 0.00103826 -0.03096763 0.02202018
v 0.00296336 -0.03057592 0.02106020
v 0.00392479 -0.03049933 0.02106020
v 0.00103826 -0.03466362 0.03679837
v 0.00392479 -0.03023017 0.02009572
v 0.00392479 -0.02995227 0.01935208
v 0.00392479 -0.02971374 0.01886984
v 0.00392479 -0.02840515 0.01624681
v 0.00392479 -0.02682303 0.01310549
v 0.00296336 -0.02109412 0.00148214
v 0.00296336 -0.02077682 0.00085568
v 0.00392479 -0.02198475 0.00354631
v 0.00199969 -0.02086435 0.00085568
v 0.00199969 -0.02041576 0.00003992
v 0.00199969 -0.01972645 -0.00041077
v 0.00296336 -0.01900651 -0.00048288
v 0.00199969 -0.01900651 -0.00049640
v 0.00007684 -0.01900651 -0.00051443
v -0.00064199 -0.01900651 -0.00051443
v -0.00160117 -0.01900651 -0.00050992
v -0.00352627 -0.01900651 -0.00048288
v -0.00448770 -0.01900651 -0.00045133
v -0.00546036 -0.01900651 -0.00038373
v -0.00569398 -0.01900651 -0.00036570
v -0.00637237 -0.01900651 -0.00027556
v -0.00665091 -0.01900651 -0.00020795
v -0.00694518 -0.01900651 -0.00012683
v -0.00734053 -0.01900651 -0.00001416
v -0.00751125 -0.01900651 0.00006246
v -0.00813798 -0.01900651 0.00034640
v -0.00872202 -0.01900651 0.00075202
v -0.00922745 -0.01900651 0.00116215
v -0.00955092 -0.01900651 0.00143707
v -0.01024953 -0.01900651 0.00207255
v -0.01163102 -0.01900651 0.00351927
v -0.01249361 -0.01900651 0.00442516
v -0.01344829 -0.01900651 0.00545724
v -0.01397618 -0.01900651 0.00605216
v -0.01439849 -0.01900651 0.00658397
v -0.01480283 -0.01900651 0.00710227
v -0.01566991 -0.01900651 0.00822900
v -0.01730748 -0.01900651 0.01036077
v -0.01770508 -0.01900651 0.01088358
v -0.01785783 -0.01900651 0.01109090
v -0.01434907 -0.03222807 0.04551025
v -0.01242622 -0.03318872 0.04548321
v -0.00953969 -0.03415156 0.04548772
v -0.00857826 -0.03415156 0.04551476
v -0.01785783 -0.03125429 0.04507759
v -0.01723560 -0.03126523 0.04531195
v -0.01531050 -0.03222807 0.04536603
v -0.00473255 -0.03511222 0.04550124
v -0.00088684 -0.03599190 0.04506857
v -0.00088684 -0.03629826 0.04414015
v -0.00069366 -0.03561552 0.04066080
v 0.00007684 -0.03562428 0.04062024
v 0.00007684 -0.03552580 0.04013800
v 0.00103826 -0.03529603 0.03933126
v 0.00108319 -0.03551705 0.04033180
v 0.00199969 -0.03543827 0.04029124
v 0.00045422 -0.03070941 0.02088443
v 0.00103826 -0.03069628 0.02093852
v 0.00007684 -0.03533980 0.03933126
v 0.00007684 -0.03071597 0.02084387
v 0.00296336 -0.03030676 0.02009572
v 0.00103826 -0.03045776 0.02009572
v 0.00296336 -0.02998947 0.01927096
v 0.00076870 -0.02983847 0.01861745
v 0.00296336 -0.02326489 0.00580428
v 0.00296336 -0.02174842 0.00278013
v 0.00199969 -0.02113789 0.00140101
v 0.00076870 -0.02118603 0.00130186
v 0.00106971 -0.02097596 0.00093230
v 0.00103826 -0.02045296 0.00000387
v 0.00103826 -0.01972645 -0.00044682
v 0.00007684 -0.02047484 -0.00001866
v 0.00007684 -0.01972645 -0.00046936
v -0.00088684 -0.01972645 -0.00045133
v -0.00184602 -0.01972645 -0.00041527
v -0.00280745 -0.01972645 -0.00036570
v -0.00376887 -0.01972645 -0.00024401
v -0.00569398 -0.01959297 -0.00004571
v -0.00665091 -0.01944416 0.00008049
v -0.00694518 -0.01926035 0.00003992
v -0.00694518 -0.01929755 0.00007147
v -0.00731358 -0.01931943 0.00025175
v -0.00795603 -0.01918595 0.00048611
v -0.00864790 -0.01908529 0.00082413
v -0.00901629 -0.01922534 0.00137397
v -0.01004062 -0.01925597 0.00227986
v -0.01250708 -0.01911155 0.00461445
v -0.01382792 -0.01921658 0.00619187
v -0.01484776 -0.02022100 0.00901321
v -0.01523188 -0.01965861 0.00865265
v -0.01785783 -0.01992121 0.01247001
v -0.01763994 -0.01917938 0.01105935
v -0.01785783 -0.01944197 0.01174440
v -0.01050111 -0.03415156 0.04537054
v -0.00569398 -0.03511222 0.04546969
v -0.01785783 -0.03159128 0.04476210
v -0.01723560 -0.03190858 0.04486576
v -0.01622251 -0.03225433 0.04503702
v -0.01531050 -0.03285392 0.04491984
v -0.01242622 -0.03393493 0.04502801
v -0.00473255 -0.03584091 0.04505054
v -0.00280745 -0.03591750 0.04505956
v -0.00473255 -0.03599410 0.04414015
v -0.00473255 -0.03541858 0.04125572
v -0.00088684 -0.03591313 0.04221569
v -0.00569398 -0.03578402 0.04501900
v -0.00096097 -0.03552361 0.04032278
v -0.00088684 -0.03530698 0.03933126
v -0.00184602 -0.03544921 0.04029124
v -0.00088684 -0.03467019 0.03677584
v -0.00088684 -0.03047089 0.02009572
v 0.00007684 -0.03050371 0.02009572
v -0.00044881 -0.03070941 0.02088443
v 0.00007684 -0.03011638 0.01913575
v 0.00106971 -0.03002666 0.01905012
v 0.00199969 -0.03002885 0.01919885
v 0.00007684 -0.02984723 0.01859492
v 0.00007684 -0.02723661 0.01336238
v 0.00007684 -0.02119916 0.00127933
v 0.00007684 -0.02095626 0.00080159
v -0.00088684 -0.02045952 -0.00000514
v -0.00184602 -0.02042232 0.00003542
v -0.00280745 -0.02038075 0.00008499
v -0.00376887 -0.02030197 0.00020668
v -0.00436191 -0.02023413 0.00032837
v -0.00500211 -0.02015754 0.00047259
v -0.00569398 -0.02007220 0.00063484
v -0.00662171 -0.01993871 0.00090976
v -0.00694518 -0.01964767 0.00059878
v -0.00694518 -0.01938946 0.00015711
v -0.00694518 -0.02012909 0.00148214
v -0.00737647 -0.02030853 0.00211762
v -0.00762582 -0.01950762 0.00082413
v -0.00857826 -0.02131952 0.00490740
v -0.01089871 -0.02209635 0.00813436
v -0.01011025 -0.02025383 0.00413672
v -0.01198369 -0.02311390 0.01091963
v -0.01220158 -0.02228673 0.00972530
v -0.01659091 -0.02491704 0.01882477
v -0.01671895 -0.02307014 0.01580513
v -0.01785783 -0.02401985 0.01873013
v -0.01785783 -0.02287319 0.01697243
v -0.00665091 -0.03511222 0.04532997
v -0.01050111 -0.03474678 0.04491984
v -0.00953969 -0.03486275 0.04503252
v -0.01785783 -0.03165474 0.04446014
v -0.01773204 -0.03175540 0.04465844
v -0.01586759 -0.03274013 0.04473055
v -0.01316975 -0.03377956 0.04487477
v -0.01109190 -0.03467019 0.04475309
v -0.00569398 -0.03587811 0.04414015
v -0.00536152 -0.03561771 0.04257174
v -0.00665091 -0.03568993 0.04487928
v -0.00473255 -0.03522163 0.04029124
v -0.00376887 -0.03507940 0.03933126
v -0.00446524 -0.03464830 0.03781694
v -0.00510769 -0.03366139 0.03407168
v -0.00376887 -0.03051246 0.02106020
v -0.00088684 -0.03070066 0.02091148
v -0.00280745 -0.03031990 0.02009572
v -0.00376887 -0.02995883 0.01933856
v -0.00184602 -0.03003542 0.01918533
v -0.00094749 -0.03003542 0.01904561
v -0.00088684 -0.03069190 0.02087993
v -0.00066895 -0.02984066 0.01861295
v -0.00066895 -0.02119041 0.00129285
v -0.00094749 -0.02098471 0.00092779
v -0.00184602 -0.02087748 0.00085568
v -0.00280745 -0.02079871 0.00085568
v -0.00376887 -0.02064553 0.00085568
v -0.00470110 -0.02040700 0.00081962
v -0.00446299 -0.02314454 0.00604765
v -0.00694518 -0.02309202 0.00711128
v -0.00694518 -0.02211824 0.00521387
v -0.00628476 -0.02024288 0.00126581
v -0.00694518 -0.02110725 0.00330294
v -0.00743713 -0.02129326 0.00399249
v -0.00826153 -0.02412489 0.00986952
v -0.01120646 -0.02703311 0.01752227
v -0.01172536 -0.02492580 0.01401138
v -0.01284403 -0.02594991 0.01677863
v -0.01392452 -0.02697183 0.01955940
v -0.01414241 -0.02614466 0.01836507
v -0.01509036 -0.02613591 0.01934307
v -0.01689641 -0.02510523 0.01946926
v -0.01722437 -0.02470259 0.01914476
v -0.01772979 -0.02406580 0.01863999
v -0.01785783 -0.02416427 0.01895998
v -0.00724170 -0.03561990 0.04471703
v -0.00694518 -0.03565710 0.04479816
v -0.01773204 -0.03175540 0.04458182
v -0.01785783 -0.03077943 0.04073291
v -0.01723560 -0.03128492 0.04125572
v -0.01726705 -0.03195672 0.04421226
v -0.01586759 -0.03274013 0.04447366
v -0.01109190 -0.03467019 0.04443760
v -0.00632744 -0.03562865 0.04348214
v -0.00600397 -0.03556519 0.04283765
v -0.00724170 -0.03561990 0.04449619
v -0.00694518 -0.03565710 0.04433394
v -0.00664642 -0.03569211 0.04416268
v -0.00569398 -0.03529603 0.04125572
v -0.00569398 -0.03509690 0.04029124
v -0.00473255 -0.03500281 0.03933126
v -0.00510544 -0.03462205 0.03792060
v -0.00509196 -0.03269636 0.03023179
v -0.00569398 -0.03469426 0.03860114
v -0.00473255 -0.03040305 0.02106020
v -0.00473255 -0.03035491 0.02088443
v -0.00376887 -0.03024331 0.02009572
v -0.00437763 -0.03080132 0.02243932
v -0.00473255 -0.02990193 0.01945123
v -0.00376887 -0.02972031 0.01885632
v -0.00280745 -0.02134578 0.00194635
v -0.00376887 -0.02683616 0.01308295
v -0.00376887 -0.02103066 0.00160833
v -0.00456408 -0.02605057 0.01177144
v -0.00533906 -0.02985160 0.01955489
v -0.00569398 -0.02616217 0.01251508
v -0.00781002 -0.02590833 0.01301535
v -0.00777857 -0.02493892 0.01110892
v -0.00703503 -0.02210511 0.00523641
v -0.00914658 -0.02793248 0.01762593
v -0.00908593 -0.02694995 0.01574654
v -0.01252056 -0.02730445 0.01904110
v -0.01290468 -0.02693901 0.01865802
v -0.00978903 -0.02780119 0.01786930
v -0.01126711 -0.02801345 0.01939715
v -0.01338764 -0.02709219 0.01932955
v -0.01573056 -0.02593896 0.01972165
v -0.01190731 -0.02788216 0.01966306
v -0.01338764 -0.02740292 0.02010023
v -0.01409299 -0.02707030 0.02010023
v -0.01457371 -0.02678364 0.02010023
v -0.01785783 -0.02433934 0.01927997
v -0.01785783 -0.02426493 0.01914026
v -0.01753661 -0.02490172 0.01992446
v -0.01785783 -0.03063938 0.04014251
v -0.01728727 -0.03102890 0.04031377
v -0.01672119 -0.03172696 0.04181458
v -0.01684699 -0.03180136 0.04245906
v -0.01698401 -0.03188670 0.04318017
v -0.01622251 -0.03250380 0.04414916
v -0.01580244 -0.03175103 0.03979097
v -0.01531050 -0.03227621 0.04125572
v -0.01242622 -0.03409686 0.04414015
v -0.01086727 -0.03460454 0.04379762
v -0.01053032 -0.03475334 0.04412663
v -0.01143334 -0.03448200 0.04412663
v -0.01105146 -0.03369859 0.03970534
v -0.00694518 -0.03556300 0.04387424
v -0.00694518 -0.03502688 0.04125572
v -0.00665091 -0.03509471 0.04125572
v -0.00665091 -0.03489558 0.04029124
v -0.00758314 -0.03547110 0.04416268
v -0.00658352 -0.03470301 0.03938535
v -0.00569398 -0.03487588 0.03933126
v -0.00551202 -0.03277952 0.03087628
v -0.00544463 -0.03084070 0.02323705
v -0.00502008 -0.03075755 0.02259706
v -0.00621962 -0.03464174 0.03880395
v -0.00569398 -0.03021923 0.02106020
v -0.00567376 -0.02994789 0.02008671
v -0.00473255 -0.03013170 0.02009572
v -0.00473255 -0.02965903 0.01896899
v -0.00598151 -0.02977282 0.01975770
v -0.00918477 -0.02890189 0.01953236
v -0.00857826 -0.02898067 0.01937912
v -0.00857826 -0.02873558 0.01889688
v -0.00857826 -0.02836576 0.01817577
v -0.01051684 -0.02816444 0.01910420
v -0.00951947 -0.02859772 0.01918533
v -0.00982497 -0.02879029 0.01982981
v -0.01772305 -0.02502208 0.02056895
v -0.01045619 -0.02863492 0.02012727
v -0.01010352 -0.02889533 0.02046980
v -0.01216115 -0.02798719 0.02030304
v -0.01245766 -0.02777274 0.02002812
v -0.01280135 -0.02785589 0.02074472
v -0.01335395 -0.02770928 0.02106020
v -0.01475117 -0.02689087 0.02074472
v -0.01385937 -0.02789310 0.02251143
v -0.01439849 -0.02718847 0.02106471
v -0.01785783 -0.02470915 0.02004164
v -0.01785783 -0.02487109 0.02044276
v -0.01785783 -0.03053872 0.03975491
v -0.01764219 -0.03073786 0.04000730
v -0.01659989 -0.03166350 0.04125572
v -0.01700872 -0.03093918 0.03933126
v -0.01639323 -0.03154752 0.04029124
v -0.01591251 -0.03180573 0.04029124
v -0.01618207 -0.03143592 0.03941689
v -0.01589903 -0.03084727 0.03669922
v -0.01573281 -0.03075755 0.03605924
v -0.01483203 -0.02982316 0.03115120
v -0.01529028 -0.03186482 0.03941689
v -0.01169391 -0.03356511 0.04029124
v -0.01428393 -0.03250160 0.04033180
v -0.01531050 -0.03206614 0.04029124
v -0.01238129 -0.03349071 0.04125121
v -0.01121095 -0.03376205 0.04029124
v -0.01050111 -0.03417126 0.04125572
v -0.01053032 -0.03454983 0.04313060
v -0.01050111 -0.03396994 0.04029124
v -0.01046293 -0.03376643 0.03936732
v -0.01099081 -0.03271168 0.03595107
v -0.01016641 -0.02988224 0.02419702
v -0.01001591 -0.03078162 0.02731581
v -0.00812226 -0.03463955 0.04074193
v -0.00694518 -0.03483212 0.04031828
v -0.00694518 -0.03476428 0.04000279
v -0.00720126 -0.03464830 0.03975041
v -0.00694518 -0.03455640 0.03914197
v -0.00949027 -0.03351478 0.03746089
v -0.00937346 -0.03086259 0.02700483
v -0.00863891 -0.02998947 0.02291255
v -0.00703503 -0.02979909 0.02067261
v -0.00639034 -0.02987349 0.02040219
v -0.00857826 -0.02925420 0.02010023
v -0.00951947 -0.02899161 0.02012727
v -0.01585186 -0.02697621 0.02333169
v -0.01785783 -0.02661733 0.02630175
v -0.01785783 -0.02602212 0.02426913
v -0.01785783 -0.02508335 0.02110077
v -0.01785783 -0.02495424 0.02068162
v -0.00953969 -0.02925202 0.02106020
v -0.00993279 -0.02979471 0.02355704
v -0.01030119 -0.02897629 0.02106020
v -0.01146479 -0.02849487 0.02106020
v -0.01180398 -0.02880342 0.02270974
v -0.01321692 -0.02802877 0.02202018
v -0.01483877 -0.02790404 0.02439983
v -0.01492862 -0.02891721 0.02805945
v -0.01535093 -0.02718409 0.02299818
v -0.01347750 -0.02815569 0.02289001
v -0.01371112 -0.02879685 0.02562121
v -0.01476015 -0.02882749 0.02741947
v -0.01785783 -0.03041180 0.03929971
v -0.01748944 -0.03064595 0.03933126
v -0.01624272 -0.03055404 0.03640627
v -0.01432212 -0.02993257 0.03076811
v -0.00953969 -0.03420408 0.04029124
v -0.00756067 -0.03447105 0.03938985
v -0.01050111 -0.03019297 0.02586007
v -0.00900057 -0.02980784 0.02255200
v -0.00784371 -0.03457171 0.04010645
v -0.00857826 -0.02952555 0.02106020
f 1 2 3
f 1 3 4
f 1 4 5
f 1 5 6
f 1 6 7
f 1 7 8
f 1 8 9
f 1 9 10
f 1 10 11
f 1 11 12
f 1 12 2
f 2 12 13
f 2 13 14
f 2 14 15
f 2 15 16
f 2 16 17
f 2 17 18
f 2 18 19
f 2 19 20
f 2 20 21
f 2 21 22
f 2 22 23
f 2 23 24
f 2 24 25
f 2 25 26
f 2 26 27
f 2 27 28
f 2 28 29
f 2 29 30
f 2 30 31
f 2 31 32
f 2 32 3
f 3 32 33
f 3 33 34
f 3 34 35
f 3 35 36
f 3 36 4
f 4 36 37
f 4 37 38
f 4 38 5
f 5 38 6
f 6 39 40
f 6 40 41
f 6 41 42
f 6 42 43
f 6 43 7
f 6 38 44
f 6 44 39
f 7 43 45
f 7 45 8
f 8 45 46
f 8 46 47
f 8 47 48
f 8 48 9
f 9 48 10
f 10 48 49
f 10 49 11
f 11 49 50
f 11 50 12
f 12 50 13
f 13 51 52
f 13 52 14
f 13 50 51
f 14 52 15
f 15 53 16
f 15 52 53
f 16 53 17
f 17 53 54
f 17 54 55
f 17 55 56
f 17 56 18
f 18 56 57
f 18 57 19
f 19 57 20
f 20 57 21
f 21 57 22
f 22 58 23
f 22 57 58
f 23 59 24
f 23 58 59
f 24 59 60
f 24 60 25
f 25 60 26
f 26 60 27
f 27 60 61
f 27 61 28
f 28 61 62
f 28 62 63
f 28 63 64
f 28 64 29
f 29 64 30
f 30 64 31
f 31 65 32
f 31 64 66
f 31 66 67
f 31 67 65
f 32 65 68
f 32 68 69
f 32 69 33
f 33 69 70
f 33 70 71
f 33 71 34
f 34 37 36
f 34 36 35
f 34 71 72
f 34 72 128
f 34 128 181
f 34 181 179
f 34 179 230
f 34 230 229
f 34 229 276
f 34 276 324
f 34 324 323
f 34 323 372
f 34 372 373
f 34 373 413
f 34 413 412
f 34 412 411
f 34 411 410
f 34 410 426
f 34 426 374
f 34 374 326
f 34 326 280
f 34 280 234
f 34 234 184
f 34 184 133
f 34 133 74
f 34 74 44
f 34 44 38
f 34 38 37
f 39 73 40
f 39 44 74
f 39 74 75
f 39 75 73
f 40 76 41
f 40 73 76
f 41 76 77
f 41 77 78
f 41 78 42
f 42 78 43
f 43 78 45
f 45 78 46
f 46 78 79
f 46 79 47
f 47 79 48
f 48 79 49
f 49 79 80
f 49 80 81
f 49 81 82
f 49 82 50
f 50 82 51
f 51 82 52
f 52 82 83
f 52 83 84
f 52 84 53
f 53 84 54
f 54 84 55
f 55 85 86
f 55 86 87
f 55 87 56
f 55 84 88
f 55 88 85
f 56 87 57
f 57 87 89
f 57 89 58
f 58 89 59
f 59 90 91
f 59 91 92
f 59 92 93
f 59 93 60
f 59 89 90
f 60 93 94
f 60 94 95
f 60 95 96
f 60 96 61
f 61 96 95
f 61 95 62
f 62 95 63
f 63 95 66
f 63 66 64
f 65 67 68
f 66 95 67
f 67 95 97
f 67 97 98
f 67 98 68
f 68 99 69
f 68 98 99
f 69 99 70
f 70 99 159
f 70 159 100
f 70 100 71
f 71 100 101
f 71 101 102
f 71 102 103
f 71 103 104
f 71 104 105
f 71 105 106
f 71 106 107
f 71 107 108
f 71 108 109
f 71 109 110
f 71 110 111
f 71 111 112
f 71 112 113
f 71 113 114
f 71 114 115
f 71 115 116
f 71 116 117
f 71 117 118
f 71 118 119
f 71 119 120
f 71 120 121
f 71 121 122
f 71 122 123
f 71 123 124
f 71 124 125
f 71 125 126
f 71 126 127
f 71 127 128
f 71 128 72
f 73 75 129
f 73 129 130
f 73 130 131
f 73 131 132
f 73 132 76
f 74 133 134
f 74 134 75
f 75 134 135
f 75 135 129
f 76 132 136
f 76 136 77
f 77 136 78
f 78 136 137
f 78 137 79
f 79 138 139
f 79 139 140
f 79 140 80
f 79 137 138
f 80 82 81
f 80 140 141
f 80 141 142
f 80 142 143
f 80 143 144
f 80 144 82
f 82 144 83
f 83 144 84
f 84 144 142
f 84 142 88
f 85 145 146
f 85 146 86
f 85 88 147
f 85 147 148
f 85 148 145
f 86 146 87
f 87 146 89
f 88 142 147
f 89 149 90
f 89 146 149
f 90 149 150
f 90 150 151
f 90 151 91
f 91 152 92
f 91 151 152
f 92 152 153
f 92 153 154
f 92 154 93
f 93 154 94
f 94 154 97
f 94 97 95
f 97 154 155
f 97 155 156
f 97 156 157
f 97 157 98
f 98 158 99
f 98 157 158
f 99 158 160
f 99 160 159
f 100 161 101
f 100 159 161
f 101 161 102
f 102 161 103
f 103 161 104
f 104 161 105
f 105 161 162
f 105 162 106
f 106 162 163
f 106 163 164
f 106 164 107
f 107 164 108
f 108 164 165
f 108 165 109
f 109 165 166
f 109 166 167
f 109 167 110
f 110 167 168
f 110 168 111
f 111 168 112
f 112 168 169
f 112 169 170
f 112 170 113
f 113 170 114
f 114 170 171
f 114 171 115
f 115 171 172
f 115 172 116
f 116 173 174
f 116 174 117
f 116 172 173
f 117 174 118
f 118 174 175
f 118 175 119
f 119 175 120
f 120 175 176
f 120 176 121
f 121 176 122
f 122 176 177
f 122 177 123
f 123 177 124
f 124 177 178
f 124 178 125
f 125 178 179
f 125 179 126
f 126 179 180
f 126 180 127
f 127 180 181
f 127 181 128
f 129 135 130
f 130 135 182
f 130 182 131
f 131 182 183
f 131 183 136
f 131 136 132
f 133 184 185
f 133 185 186
f 133 186 134
f 134 186 135
f 135 186 187
f 135 187 188
f 135 188 182
f 136 183 189
f 136 189 190
f 136 190 137
f 137 190 138
f 138 191 192
f 138 192 193
f 138 193 139
f 138 190 189
f 138 189 194
f 138 194 191
f 139 195 196
f 139 196 141
f 139 141 140
f 139 193 192
f 139 192 197
f 139 197 195
f 141 196 147
f 141 147 142
f 142 144 143
f 145 148 150
f 145 150 146
f 146 150 149
f 147 196 198
f 147 198 148
f 148 199 200
f 148 200 150
f 148 198 201
f 148 201 199
f 150 200 202
f 150 202 203
f 150 203 204
f 150 204 151
f 151 204 152
f 152 204 203
f 152 203 202
f 152 202 205
f 152 205 206
f 152 206 207
f 152 207 156
f 152 156 153
f 153 156 155
f 153 155 154
f 156 207 208
f 156 208 157
f 157 208 158
f 158 208 160
f 159 160 161
f 160 208 209
f 160 209 162
f 160 162 161
f 162 209 163
f 163 209 164
f 164 209 210
f 164 210 211
f 164 211 165
f 165 211 166
f 166 211 212
f 166 212 167
f 167 212 213
f 167 213 214
f 167 214 215
f 167 215 216
f 167 216 217
f 167 217 218
f 167 218 169
f 167 169 168
f 169 218 170
f 170 218 217
f 170 217 219
f 170 219 220
f 170 220 221
f 170 221 171
f 171 221 172
f 172 221 222
f 172 222 223
f 172 223 173
f 173 223 224
f 173 224 174
f 174 224 223
f 174 223 225
f 174 225 226
f 174 226 175
f 175 226 227
f 175 227 228
f 175 228 176
f 176 228 177
f 177 228 229
f 177 229 230
f 177 230 178
f 178 230 179
f 179 181 180
f 182 231 183
f 182 188 232
f 182 232 233
f 182 233 194
f 182 194 231
f 183 231 194
f 183 194 189
f 184 234 235
f 184 235 185
f 185 235 236
f 185 236 187
f 185 187 186
f 187 236 237
f 187 237 188
f 188 237 238
f 188 238 232
f 191 239 240
f 191 240 192
f 191 194 241
f 191 241 239
f 192 240 242
f 192 242 197
f 194 233 232
f 194 232 241
f 195 197 196
f 196 197 242
f 196 242 243
f 196 243 244
f 196 244 198
f 198 244 245
f 198 245 246
f 198 246 247
f 198 247 201
f 199 248 249
f 199 249 250
f 199 250 251
f 199 251 202
f 199 202 200
f 199 201 252
f 199 252 248
f 201 247 252
f 202 251 253
f 202 253 205
f 205 253 206
f 206 253 254
f 206 254 207
f 207 254 208
f 208 254 255
f 208 255 209
f 209 255 210
f 210 255 211
f 211 255 256
f 211 256 257
f 211 257 212
f 212 257 258
f 212 258 213
f 213 258 214
f 214 258 259
f 214 259 260
f 214 260 261
f 214 261 262
f 214 262 215
f 215 262 263
f 215 263 216
f 216 263 264
f 216 264 219
f 216 219 217
f 219 264 265
f 219 265 220
f 220 265 266
f 220 266 222
f 220 222 221
f 222 266 267
f 222 267 268
f 222 268 223
f 223 268 269
f 223 269 270
f 223 270 225
f 225 270 271
f 225 271 226
f 226 271 227
f 227 271 272
f 227 272 273
f 227 273 228
f 228 273 274
f 228 274 275
f 228 275 229
f 229 275 276
f 232 238 277
f 232 277 278
f 232 278 241
f 234 279 235
f 234 280 281
f 234 281 282
f 234 282 279
f 235 279 283
f 235 283 236
f 236 283 284
f 236 284 238
f 236 238 237
f 238 284 287
f 238 287 277
f 239 285 286
f 239 286 240
f 239 241 278
f 239 278 277
f 239 277 287
f 239 287 288
f 239 288 289
f 239 289 285
f 240 286 290
f 240 290 291
f 240 291 242
f 242 291 292
f 242 292 243
f 243 292 244
f 244 293 245
f 244 292 293
f 245 294 246
f 245 293 295
f 245 295 294
f 246 296 297
f 246 297 298
f 246 298 252
f 246 252 247
f 246 294 299
f 246 299 296
f 248 298 249
f 248 252 298
f 249 298 300
f 249 300 301
f 249 301 250
f 250 301 254
f 250 254 251
f 251 254 253
f 254 302 256
f 254 256 255
f 254 301 303
f 254 303 302
f 256 302 257
f 257 304 258
f 257 302 303
f 257 303 305
f 257 305 304
f 258 304 305
f 258 305 260
f 258 260 259
f 260 305 306
f 260 306 307
f 260 307 261
f 261 307 308
f 261 308 309
f 261 309 262
f 262 309 310
f 262 310 263
f 263 310 264
f 264 310 266
f 264 266 265
f 266 311 312
f 266 312 267
f 266 310 311
f 267 313 314
f 267 314 268
f 267 312 315
f 267 315 316
f 267 316 313
f 268 314 269
f 269 314 317
f 269 317 270
f 270 318 273
f 270 273 272
f 270 272 271
f 270 317 319
f 270 319 320
f 270 320 321
f 270 321 322
f 270 322 318
f 273 323 324
f 273 324 274
f 273 318 325
f 273 325 323
f 274 324 276
f 274 276 275
f 279 282 283
f 280 326 281
f 281 326 327
f 281 327 328
f 281 328 282
f 282 328 329
f 282 329 330
f 282 330 331
f 282 331 283
f 283 331 332
f 283 332 333
f 283 333 334
f 283 334 284
f 284 335 336
f 284 336 287
f 284 334 337
f 284 337 338
f 284 338 335
f 285 289 288
f 285 288 339
f 285 339 340
f 285 340 341
f 285 341 342
f 285 342 286
f 286 342 291
f 286 291 290
f 287 336 343
f 287 343 288
f 288 343 339
f 291 342 344
f 291 344 345
f 291 345 292
f 292 345 293
f 293 345 295
f 294 295 346
f 294 346 347
f 294 347 348
f 294 348 296
f 294 296 299
f 295 349 346
f 295 345 349
f 296 348 350
f 296 350 297
f 297 351 352
f 297 352 298
f 297 350 351
f 298 352 300
f 300 352 306
f 300 306 353
f 300 353 303
f 300 303 301
f 303 353 305
f 305 353 306
f 306 352 351
f 306 351 354
f 306 354 355
f 306 355 356
f 306 356 357
f 306 357 307
f 307 357 308
f 308 357 309
f 309 357 358
f 309 358 311
f 309 311 310
f 311 359 315
f 311 315 312
f 311 358 355
f 311 355 360
f 311 360 359
f 313 316 317
f 313 317 314
f 315 359 316
f 316 355 361
f 316 361 319
f 316 319 317
f 316 359 355
f 318 322 362
f 318 362 325
f 319 361 363
f 319 363 364
f 319 364 365
f 319 365 366
f 319 366 320
f 320 365 367
f 320 367 368
f 320 368 321
f 320 366 365
f 321 369 322
f 321 368 370
f 321 370 371
f 321 371 369
f 322 369 362
f 323 325 372
f 325 362 373
f 325 373 372
f 326 374 375
f 326 375 327
f 327 376 328
f 327 375 377
f 327 377 378
f 327 378 376
f 328 376 332
f 328 332 379
f 328 379 331
f 328 331 330
f 328 330 329
f 331 379 332
f 332 380 381
f 332 381 382
f 332 382 383
f 332 383 384
f 332 384 338
f 332 338 385
f 332 385 386
f 332 386 387
f 332 387 333
f 332 376 378
f 332 378 380
f 333 386 388
f 333 388 334
f 333 387 386
f 334 388 385
f 334 385 389
f 334 389 337
f 335 390 391
f 335 391 336
f 335 338 392
f 335 392 390
f 336 391 343
f 337 389 338
f 338 393 392
f 338 389 385
f 338 384 394
f 338 394 395
f 338 395 396
f 338 396 393
f 339 343 340
f 340 397 398
f 340 398 342
f 340 342 341
f 340 343 397
f 342 399 344
f 342 398 399
f 343 391 397
f 344 399 400
f 344 400 401
f 344 401 349
f 344 349 345
f 346 349 347
f 347 349 401
f 347 401 402
f 347 402 403
f 347 403 404
f 347 404 405
f 347 405 350
f 347 350 348
f 350 405 406
f 350 406 351
f 351 406 354
f 354 406 407
f 354 407 355
f 355 359 360
f 355 358 357
f 355 357 356
f 355 407 408
f 355 408 361
f 361 408 364
f 361 364 363
f 362 369 409
f 362 409 410
f 362 410 411
f 362 411 412
f 362 412 413
f 362 413 373
f 364 367 365
f 364 408 414
f 364 414 415
f 364 415 395
f 364 395 416
f 364 416 367
f 367 416 417
f 367 417 418
f 367 418 419
f 367 419 370
f 367 370 368
f 369 371 420
f 369 420 421
f 369 421 422
f 369 422 409
f 370 419 423
f 370 423 424
f 370 424 383
f 370 383 382
f 370 382 425
f 370 425 371
f 371 425 421
f 371 421 420
f 374 426 427
f 374 427 377
f 374 377 375
f 377 427 428
f 377 428 381
f 377 381 380
f 377 380 378
f 381 428 421
f 381 421 382
f 382 421 425
f 383 424 429
f 383 429 384
f 384 429 418
f 384 418 394
f 385 388 386
f 390 397 391
f 390 392 430
f 390 430 397
f 392 393 430
f 393 402 401
f 393 401 431
f 393 431 400
f 393 400 430
f 393 396 403
f 393 403 402
f 394 418 432
f 394 432 395
f 395 418 416
f 395 415 396
f 395 432 418
f 396 415 414
f 396 414 433
f 396 433 403
f 397 430 398
f 398 430 434
f 398 434 399
f 399 434 400
f 400 431 401
f 400 434 430
f 403 433 404
f 404 433 435
f 404 435 405
f 405 407 406
f 405 435 407
f 407 435 414
f 407 414 408
f 409 422 428
f 409 428 426
f 409 426 410
f 414 435 433
f 416 418 417
f 418 429 424
f 418 424 423
f 418 423 419
f 421 428 422
f 426 428 427

