# https://github.com/mikedh/trimesh
v 0.01671330 -0.04703008 0.00300000
v 0.02269918 -0.04454246 0.00300000
v 0.01671330 -0.04703008 0.00499980
v 0.01671330 -0.04162740 -0.00000000
v 0.02043097 -0.04009279 -0.00000000
v 0.02269918 -0.04454246 0.00499980
v 0.02732704 -0.04171149 0.00300000
v 0.02043097 -0.04009279 0.00600000
v 0.01671330 -0.04162740 0.00600000
v 0.01671330 0.02455713 -0.00000000
v 0.02644802 -0.03639991 -0.00000000
v 0.02732704 -0.03761218 0.00089742
v 0.02732704 -0.04171149 0.00499980
v 0.02644802 -0.03639991 0.00600000
v 0.01671330 0.01849576 0.00600000
v 0.01671330 0.02455713 0.00309456
v 0.02732704 0.02455713 -0.00000000
v 0.02732704 -0.03565012 -0.00000000
v 0.02732704 -0.03761218 0.00570047
v 0.02732704 -0.03565012 0.00600000
v 0.01767960 0.01766889 0.00600000
v 0.02732704 0.02455713 0.00436844
v 0.02499857 -0.00000367 0.00600000
v 0.02022628 0.01469076 0.00600000
v 0.02227422 0.01134825 0.00600000
v 0.02377458 0.00771844 0.00600000
v 0.02469101 0.00389943 0.00600000
f 1 2 6
f 1 6 3
f 1 3 9
f 1 9 15
f 1 15 16
f 1 16 10
f 1 10 4
f 1 4 5
f 1 5 2
f 2 5 7
f 2 7 13
f 2 13 6
f 3 6 8
f 3 8 9
f 4 10 17
f 4 17 18
f 4 18 11
f 4 11 5
f 5 11 12
f 5 12 7
f 6 13 8
f 7 12 18
f 7 18 17
f 7 17 22
f 7 22 20
f 7 20 19
f 7 19 13
f 8 14 20
f 8 20 23
f 8 23 27
f 8 27 26
f 8 26 25
f 8 25 24
f 8 24 21
f 8 21 15
f 8 15 9
f 8 13 14
f 10 16 22
f 10 22 17
f 11 18 12
f 13 19 14
f 14 19 20
f 15 21 22
f 15 22 16
f 20 22 23
f 21 24 22
f 22 24 25
f 22 25 26
f 22 26 27
f 22 27 23

