# https://github.com/mikedh/trimesh
v 0.01671330 -0.01088581 0.00600000
v 0.01671330 -0.01850261 0.00600000
v 0.01671330 -0.01088581 0.00400040
v 0.00000803 -0.01999865 0.00600000
v 0.01469382 -0.02022468 0.00600000
v 0.01616387 -0.02224596 0.00400040
v 0.01671330 -0.02177601 0.00400040
v 0.00000803 -0.01999865 0.00400040
v 0.00000803 -0.02499900 0.00600000
v 0.01248302 -0.02450140 0.00400040
v 0.01134982 -0.02227360 0.00600000
v 0.00000803 -0.02749674 0.00400040
v 0.00430208 -0.02716013 0.00400040
v 0.00391126 -0.02469166 0.00600000
v 0.00772620 -0.02377452 0.00600000
v 0.00849638 -0.02615193 0.00400040
v 0.00621036 -0.02670156 0.00400040
f 1 2 7
f 1 7 3
f 1 3 8
f 1 8 4
f 1 4 9
f 1 9 14
f 1 14 15
f 1 15 11
f 1 11 5
f 1 5 2
f 2 5 6
f 2 6 7
f 3 7 6
f 3 6 10
f 3 10 16
f 3 16 17
f 3 17 13
f 3 13 12
f 3 12 8
f 4 8 12
f 4 12 9
f 5 10 6
f 5 11 10
f 9 12 13
f 9 13 14
f 10 11 15
f 10 15 16
f 13 17 14
f 14 17 15
f 15 17 16

