# https://github.com/mikedh/trimesh
v -0.01670261 -0.04701969 0.00299991
v -0.01544657 -0.04753843 0.00299991
v -0.01620543 -0.04722523 0.00400040
v -0.01670261 -0.04701969 0.00400040
v -0.01670261 -0.04566901 0.00224572
v -0.01544657 -0.04753843 0.00400040
v -0.01390269 -0.04279147 0.00000000
v -0.00782201 -0.04937849 0.00299991
v -0.01670261 0.04702885 0.00400040
v -0.01670261 -0.04162675 0.00000000
v -0.00782201 -0.04937849 0.00400040
v -0.00704026 -0.04443578 0.00000000
v 0.00000207 -0.04999511 0.00299991
v 0.00000207 -0.04499367 0.00000000
v -0.01620543 0.04723439 0.00400040
v -0.01670261 0.04702885 0.00299991
v -0.01670261 0.04162612 0.00000000
v 0.00000207 -0.04999511 0.00400040
v 0.00000534 -0.04499367 0.00000000
v 0.00703786 -0.04443578 0.00000000
v 0.00781961 -0.04936870 0.00299991
v 0.00000534 -0.04999511 0.00300187
v -0.01544657 0.04754759 0.00400040
v -0.01544657 0.04754759 0.00299991
v -0.01390269 0.04278105 0.00000000
v 0.00000534 -0.04999511 0.00400040
v 0.01390356 -0.04278168 0.00000000
v 0.01545071 -0.04753843 0.00299991
v 0.00781961 -0.04936870 0.00400040
v 0.01163680 -0.04845846 0.00400040
v -0.00782201 0.04937786 0.00400040
v -0.00782201 0.04937786 0.00299991
v -0.00704026 0.04443515 0.00000000
v 0.01671330 -0.04334936 0.00095781
v 0.01671330 -0.04162675 0.00000000
v 0.01671330 -0.04701969 0.00299991
v 0.01545071 -0.04753843 0.00400040
v 0.00000534 0.04999447 0.00400040
v 0.00000207 0.04999447 0.00299991
v 0.00000207 0.04499304 0.00000000
v 0.01671330 0.04162612 0.00000000
v 0.01671330 -0.04701969 0.00400040
v 0.00000534 0.04999447 0.00299991
v 0.00781961 0.04937786 0.00400040
v 0.00000534 0.04499304 0.00000000
v 0.01390356 0.04279084 0.00000000
v 0.01545071 0.04754759 0.00299991
v 0.01671330 0.04701906 0.00299991
v 0.01671330 0.04701906 0.00400040
v 0.00781961 0.04937786 0.00299991
v 0.01545071 0.04754759 0.00400040
v 0.00703786 0.04443515 0.00000000
f 1 2 3
f 1 3 4
f 1 4 9
f 1 9 16
f 1 16 17
f 1 17 10
f 1 10 5
f 1 5 2
f 2 6 3
f 2 5 7
f 2 7 8
f 2 8 11
f 2 11 6
f 3 6 11
f 3 11 18
f 3 18 26
f 3 26 29
f 3 29 30
f 3 30 37
f 3 37 42
f 3 42 49
f 3 49 51
f 3 51 44
f 3 44 38
f 3 38 31
f 3 31 23
f 3 23 15
f 3 15 9
f 3 9 4
f 5 10 7
f 7 12 8
f 7 10 17
f 7 17 25
f 7 25 33
f 7 33 40
f 7 40 45
f 7 45 52
f 7 52 46
f 7 46 41
f 7 41 35
f 7 35 27
f 7 27 20
f 7 20 19
f 7 19 14
f 7 14 12
f 8 13 18
f 8 18 11
f 8 12 14
f 8 14 13
f 9 15 16
f 13 14 19
f 13 19 20
f 13 20 21
f 13 21 22
f 13 22 26
f 13 26 18
f 15 23 24
f 15 24 16
f 16 24 17
f 17 24 25
f 20 27 28
f 20 28 21
f 21 29 26
f 21 26 22
f 21 28 30
f 21 30 29
f 23 31 32
f 23 32 24
f 24 32 33
f 24 33 25
f 27 34 28
f 27 35 34
f 28 36 42
f 28 42 37
f 28 37 30
f 28 34 36
f 31 38 39
f 31 39 32
f 32 39 40
f 32 40 33
f 34 35 41
f 34 41 48
f 34 48 49
f 34 49 42
f 34 42 36
f 38 43 39
f 38 44 50
f 38 50 43
f 39 43 45
f 39 45 40
f 41 46 47
f 41 47 48
f 43 50 45
f 44 51 47
f 44 47 50
f 45 50 52
f 46 52 50
f 46 50 47
f 47 51 49
f 47 49 48

