# https://github.com/mikedh/trimesh
v -0.04999778 0.00000205 0.00300000
v -0.04499978 0.00000205 -0.00000000
v -0.04938302 -0.00781842 0.00300000
v -0.04999778 0.00000205 0.00499980
v -0.04938302 0.00782252 0.00300000
v -0.04444494 -0.00703587 -0.00000000
v -0.04444494 0.00704502 -0.00000000
v -0.04376803 -0.00986315 -0.00000000
v -0.04889254 -0.00986315 0.00300000
v -0.04938302 -0.00781842 0.00499980
v -0.04499978 0.00000205 0.00600000
v -0.04938302 0.00782252 0.00499980
v -0.04755204 0.01545114 0.00300000
v -0.04279595 0.01390623 -0.00000000
v -0.02732700 -0.00986315 -0.00000000
v -0.04889254 -0.00986315 0.00499980
v -0.04376803 -0.00986315 0.00600000
v -0.04444494 -0.00703587 0.00600000
v -0.04444494 0.00704502 0.00600000
v -0.04755204 0.01545114 0.00499980
v -0.04454925 0.02269606 0.00300000
v -0.04009499 0.02042918 -0.00000000
v -0.02732700 -0.00986315 0.00335532
v -0.02732700 0.03565612 -0.00000000
v -0.02732700 -0.00887865 0.00350626
v -0.02732700 -0.00588476 0.00378700
v -0.02732700 -0.00432470 0.00393265
v -0.02732700 0.03565612 0.00600000
v -0.04279595 0.01390623 0.00600000
v -0.04009499 0.02042918 0.00600000
v -0.04454925 0.02269606 0.00499980
v -0.04045009 0.02938561 0.00300000
v -0.03640641 0.02644726 -0.00000000
v -0.03182121 0.03181910 -0.00000000
v -0.02939101 0.04044736 0.00300000
v -0.02732700 0.03630236 0.00029601
v -0.02732700 0.03760998 0.00570106
v -0.02939101 0.04044736 0.00499980
v -0.03182121 0.03181910 0.00600000
v -0.03640641 0.02644726 0.00600000
v -0.04045009 0.02938561 0.00499980
v -0.03535665 0.03535320 0.00300000
v -0.02732700 0.04171459 0.00300000
v -0.02732700 0.03760998 0.00089565
v -0.02732700 0.04171459 0.00499980
v -0.03535665 0.03535320 0.00499980
f 1 2 3
f 1 3 10
f 1 10 4
f 1 4 12
f 1 12 5
f 1 5 2
f 2 6 3
f 2 5 7
f 2 7 14
f 2 14 22
f 2 22 33
f 2 33 34
f 2 34 24
f 2 24 15
f 2 15 8
f 2 8 6
f 3 8 9
f 3 9 16
f 3 16 10
f 3 6 8
f 4 10 11
f 4 11 12
f 5 12 20
f 5 20 13
f 5 13 7
f 7 13 14
f 8 15 23
f 8 23 17
f 8 17 16
f 8 16 9
f 10 16 17
f 10 17 18
f 10 18 11
f 11 18 17
f 11 17 28
f 11 28 39
f 11 39 40
f 11 40 30
f 11 30 29
f 11 29 19
f 11 19 12
f 12 19 20
f 13 20 31
f 13 31 21
f 13 21 22
f 13 22 14
f 15 24 36
f 15 36 44
f 15 44 43
f 15 43 45
f 15 45 37
f 15 37 28
f 15 28 27
f 15 27 26
f 15 26 25
f 15 25 23
f 17 23 25
f 17 25 26
f 17 26 27
f 17 27 28
f 19 29 20
f 20 30 31
f 20 29 30
f 21 31 41
f 21 41 32
f 21 32 22
f 22 32 33
f 24 34 35
f 24 35 36
f 28 37 38
f 28 38 39
f 30 40 41
f 30 41 31
f 32 41 46
f 32 46 42
f 32 42 33
f 33 42 34
f 34 42 35
f 35 38 45
f 35 45 43
f 35 43 44
f 35 44 36
f 35 42 46
f 35 46 38
f 37 45 38
f 38 46 39
f 39 46 40
f 40 46 41

