# https://github.com/mikedh/trimesh
v -0.02732700 -0.04171267 0.00300000
v -0.02269807 -0.04453932 0.00300000
v -0.02732700 -0.04171267 0.00499980
v -0.02732700 -0.03760619 0.00089565
v -0.02644926 -0.03640004 -0.00000000
v -0.02043196 -0.04009218 -0.00000000
v -0.01670261 -0.04702530 0.00300000
v -0.02269807 -0.04453932 0.00499980
v -0.02043196 -0.04009218 0.00600000
v -0.02644926 -0.03640004 0.00600000
v -0.02732700 -0.03760619 0.00570106
v -0.02732700 -0.03565424 -0.00000000
v -0.01670261 -0.04162980 -0.00000000
v -0.01670261 -0.04702530 0.00499980
v -0.01670261 -0.04162980 0.00600000
v -0.02732700 -0.03565424 0.00600000
v -0.02732700 0.03564734 -0.00000000
v -0.01670261 0.04163210 -0.00000000
v -0.01670261 0.04163210 0.00600000
v -0.02732700 0.03564734 0.00600000
v -0.02732700 0.03759929 0.00089565
v -0.02644926 0.03640234 -0.00000000
v -0.02043300 0.04008527 -0.00000000
v -0.02269703 0.04454162 0.00300000
v -0.01670261 0.04701839 0.00300000
v -0.01670261 0.04701839 0.00499980
v -0.02269703 0.04454162 0.00499980
v -0.02043300 0.04008527 0.00600000
v -0.02644926 0.03640234 0.00600000
v -0.02732700 0.03759929 0.00570106
v -0.02732700 0.04170576 0.00300000
v -0.02732700 0.04170576 0.00499980
f 1 2 8
f 1 8 3
f 1 3 11
f 1 11 16
f 1 16 20
f 1 20 30
f 1 30 32
f 1 32 31
f 1 31 21
f 1 21 17
f 1 17 12
f 1 12 4
f 1 4 5
f 1 5 6
f 1 6 2
f 2 7 14
f 2 14 8
f 2 6 7
f 3 8 9
f 3 9 10
f 3 10 11
f 4 12 5
f 5 12 17
f 5 17 22
f 5 22 23
f 5 23 18
f 5 18 13
f 5 13 6
f 6 13 7
f 7 13 18
f 7 18 25
f 7 25 26
f 7 26 19
f 7 19 15
f 7 15 14
f 8 14 9
f 9 14 15
f 9 15 19
f 9 19 28
f 9 28 29
f 9 29 20
f 9 20 16
f 9 16 10
f 10 16 11
f 17 21 22
f 18 23 24
f 18 24 25
f 19 26 27
f 19 27 28
f 20 29 30
f 21 31 22
f 22 31 24
f 22 24 23
f 24 31 32
f 24 32 27
f 24 27 26
f 24 26 25
f 27 32 29
f 27 29 28
f 29 32 30

