# https://github.com/mikedh/trimesh
v -0.01670261 -0.01090325 0.00600000
v -0.01670261 -0.01090325 0.00400040
v -0.01670261 -0.01851234 0.00600000
v 0.00000802 -0.01999874 0.00600000
v -0.01670261 -0.02178568 0.00400040
v 0.00000802 -0.01999874 0.00400040
v -0.01469393 -0.02022455 0.00600000
v 0.00000802 -0.02499891 0.00600000
v -0.01616282 -0.02224541 0.00400040
v 0.00000802 -0.02749737 0.00400040
v -0.01448947 -0.02327208 0.00400040
v -0.01134886 -0.02227465 0.00600000
v -0.00000015 -0.02499891 0.00600000
v -0.00000015 -0.02749899 0.00400040
v -0.01248406 -0.02450019 0.00400040
v -0.01067003 -0.02525233 0.00400040
v -0.00772572 -0.02377567 0.00600000
v -0.00391119 -0.02469188 0.00600000
v -0.00430213 -0.02715948 0.00400040
v -0.00849615 -0.02615229 0.00400040
v -0.00659052 -0.02661040 0.00400040
f 1 2 5
f 1 5 3
f 1 3 7
f 1 7 12
f 1 12 17
f 1 17 18
f 1 18 13
f 1 13 8
f 1 8 4
f 1 4 6
f 1 6 2
f 2 6 10
f 2 10 14
f 2 14 19
f 2 19 21
f 2 21 20
f 2 20 16
f 2 16 15
f 2 15 11
f 2 11 9
f 2 9 5
f 3 5 7
f 4 8 10
f 4 10 6
f 5 9 7
f 7 9 11
f 7 11 12
f 8 13 14
f 8 14 10
f 11 15 12
f 12 16 17
f 12 15 16
f 13 18 14
f 14 18 19
f 16 20 17
f 17 21 18
f 17 20 21
f 18 21 19

