# https://github.com/mikedh/trimesh
v -0.04889411 -0.00986315 0.00300000
v -0.04279722 -0.01390694 -0.00000000
v -0.04755144 -0.01545337 0.00300000
v -0.04889411 -0.00986315 0.00499980
v -0.04376833 -0.00986315 -0.00000000
v -0.04009500 -0.02043249 -0.00000000
v -0.04755144 -0.01545337 0.00499980
v -0.04454944 -0.02270225 0.00300000
v -0.04376833 -0.00986315 0.00600000
v -0.04279722 -0.01390694 0.00600000
v -0.02732911 -0.00986315 -0.00000000
v -0.03640689 -0.02644984 -0.00000000
v -0.04454944 -0.02270225 0.00499980
v -0.04009500 -0.02043249 0.00600000
v -0.04044967 -0.02938681 0.00300000
v -0.02732911 -0.00986315 0.00335532
v -0.02732911 -0.03565671 0.00600000
v -0.02732911 -0.03565671 -0.00000000
v -0.03182155 -0.03181869 -0.00000000
v -0.03535555 -0.03535428 0.00300000
v -0.04044967 -0.02938681 0.00499980
v -0.03640689 -0.02644984 0.00600000
v -0.03182155 -0.03181869 0.00600000
v -0.03535555 -0.03535428 0.00499980
v -0.02938955 -0.04044876 0.00499980
v -0.02732911 -0.03630209 0.00590133
v -0.02732911 -0.03761157 0.00089565
v -0.02938955 -0.04044876 0.00300000
v -0.02732911 -0.04036770 0.00523003
v -0.02732911 -0.03761157 0.00570106
v -0.02732911 -0.04171459 0.00499980
v -0.02732911 -0.04171459 0.00300000
f 1 2 3
f 1 3 7
f 1 7 4
f 1 4 9
f 1 9 16
f 1 16 11
f 1 11 5
f 1 5 2
f 2 5 11
f 2 11 18
f 2 18 19
f 2 19 12
f 2 12 6
f 2 6 3
f 3 6 8
f 3 8 13
f 3 13 7
f 4 7 10
f 4 10 9
f 6 12 8
f 7 13 14
f 7 14 10
f 8 12 15
f 8 15 21
f 8 21 13
f 9 10 14
f 9 14 22
f 9 22 23
f 9 23 17
f 9 17 16
f 11 16 17
f 11 17 26
f 11 26 30
f 11 30 29
f 11 29 31
f 11 31 32
f 11 32 27
f 11 27 18
f 12 19 20
f 12 20 15
f 13 21 22
f 13 22 14
f 15 20 24
f 15 24 21
f 17 23 24
f 17 24 25
f 17 25 26
f 18 27 28
f 18 28 20
f 18 20 19
f 20 28 25
f 20 25 24
f 21 24 22
f 22 24 23
f 25 29 30
f 25 30 26
f 25 28 32
f 25 32 31
f 25 31 29
f 27 32 28

