# https://github.com/mikedh/trimesh
v 0.00000236 0.04349928 0.10300000
v 0.00000236 0.04349713 0.10000011
v -0.00000131 0.04349928 0.10000011
v -0.00000131 0.04349928 0.10300000
v 0.00000236 0.04000074 0.10300000
v 0.00000236 0.03991223 0.09997494
v -0.00000131 0.03999643 0.09997494
v -0.00522207 0.03965532 0.09997494
v -0.00567916 0.04312687 0.10000011
v -0.00567916 0.04312687 0.10300000
v -0.00000131 0.03999858 0.10300000
v 0.00000236 0.03750071 0.10000011
v 0.00000236 0.03749747 0.09997494
v -0.00990313 0.04228705 0.10000011
v -0.00990313 0.03872374 0.09997494
v -0.00990313 0.04228705 0.10300000
v -0.01875125 0.03525758 0.10300000
v -0.01874941 0.03247688 0.10000011
v -0.01875125 0.03247149 0.09997494
v -0.01125788 0.04201718 0.10000011
v -0.01035288 0.03863414 0.09997494
v -0.01125788 0.04201718 0.10300000
v -0.01875125 0.03915013 0.10300000
v -0.01875125 0.03248120 0.10000515
v -0.01875125 0.03525434 0.09997494
v -0.01530562 0.03695342 0.09997494
v -0.01664569 0.04018749 0.10000011
v -0.01664569 0.04018749 0.10300000
v -0.01875125 0.03915013 0.10000011
f 1 2 3
f 1 3 4
f 1 4 10
f 1 10 16
f 1 16 22
f 1 22 28
f 1 28 23
f 1 23 17
f 1 17 11
f 1 11 5
f 1 5 12
f 1 12 13
f 1 13 6
f 1 6 2
f 2 6 7
f 2 7 3
f 3 7 8
f 3 8 9
f 3 9 10
f 3 10 4
f 5 11 12
f 6 13 19
f 6 19 25
f 6 25 26
f 6 26 21
f 6 21 15
f 6 15 8
f 6 8 7
f 8 14 9
f 8 15 14
f 9 14 16
f 9 16 10
f 11 17 18
f 11 18 12
f 12 18 19
f 12 19 13
f 14 15 20
f 14 20 22
f 14 22 16
f 15 21 20
f 17 23 29
f 17 29 25
f 17 25 19
f 17 19 24
f 17 24 18
f 18 24 19
f 20 21 26
f 20 26 27
f 20 27 28
f 20 28 22
f 23 28 27
f 23 27 29
f 25 29 26
f 26 29 27

