# https://github.com/mikedh/trimesh
v 0.00871436 0.03896029 0.09997134
v 0.00522006 0.03965550 0.09997134
v 0.00871436 0.03641628 0.09997134
v 0.00871436 0.03582673 0.06917039
v 0.00615886 0.03572107 0.06313354
v 0.00000333 0.03999728 0.09997134
v 0.00473914 0.03600309 0.06313354
v 0.00000333 0.03749699 0.09997134
v 0.00871436 0.03476934 0.08426614
v 0.00871436 0.03521241 0.06313354
v 0.00144437 0.03621879 0.06313354
v 0.00000333 0.03631280 0.06313354
v 0.00000333 0.03370174 0.06315878
v 0.00871436 0.03255326 0.06313354
v 0.00000333 0.03369956 0.06313354
f 1 2 6
f 1 6 8
f 1 8 3
f 1 3 9
f 1 9 14
f 1 14 10
f 1 10 4
f 1 4 5
f 1 5 2
f 2 5 7
f 2 7 6
f 3 8 9
f 4 10 5
f 5 10 14
f 5 14 15
f 5 15 12
f 5 12 11
f 5 11 7
f 6 7 11
f 6 11 12
f 6 12 15
f 6 15 13
f 6 13 8
f 8 13 14
f 8 14 9
f 13 15 14

