# https://github.com/mikedh/trimesh
v 0.03876273 -0.00970944 0.09997134
v 0.03621691 -0.00970944 0.09997134
v 0.03863336 -0.01035285 0.09997134
v 0.03513059 -0.00912129 0.06311899
v 0.03340740 -0.01685432 0.09997134
v 0.03241395 -0.00912129 0.06311899
v 0.02182436 -0.01674759 0.00310232
v 0.03695164 -0.01530560 0.09997134
v 0.03460982 -0.01076918 0.06311899
v 0.03507420 -0.00939909 0.06311899
v 0.03403763 -0.00912129 0.05240004
v 0.03618872 -0.01685432 0.09997134
v 0.02918317 -0.01685432 0.06312848
v 0.02880338 -0.00912129 0.02989971
v 0.02589103 -0.00912129 0.00306438
v 0.02182105 -0.01674759 0.00306438
v 0.02800066 -0.01159728 0.00306438
v 0.02805207 -0.01144589 0.00306438
v 0.02883986 -0.00912129 0.00306438
v 0.03209054 -0.01685432 0.06312848
v 0.02518119 -0.01674759 0.00306438
v 0.02631893 -0.01500887 0.00306438
v 0.02900903 -0.01674759 0.03497462
v 0.02624761 -0.01515193 0.00306438
f 1 2 5
f 1 5 12
f 1 12 8
f 1 8 3
f 1 3 4
f 1 4 6
f 1 6 2
f 2 6 7
f 2 7 5
f 3 8 9
f 3 9 10
f 3 10 4
f 4 10 11
f 4 11 19
f 4 19 15
f 4 15 14
f 4 14 6
f 5 7 13
f 5 13 20
f 5 20 12
f 6 14 7
f 7 14 15
f 7 15 16
f 7 16 13
f 8 12 17
f 8 17 9
f 9 17 18
f 9 18 10
f 10 18 19
f 10 19 11
f 12 20 17
f 13 16 21
f 13 21 20
f 15 19 18
f 15 18 17
f 15 17 22
f 15 22 24
f 15 24 21
f 15 21 16
f 17 20 22
f 20 21 23
f 20 23 22
f 21 24 23
f 22 23 24

