# https://github.com/mikedh/trimesh
v 0.02591991 -0.03488589 0.10000011
v 0.02648106 -0.03450961 0.10000011
v 0.02591991 -0.03488589 0.10300000
v 0.02591991 -0.03035313 0.09997494
v 0.02648106 -0.03450961 0.10300000
v 0.02828245 -0.02828200 0.09997494
v 0.03075904 -0.03075786 0.10000011
v 0.02591991 -0.03035629 0.10300000
v 0.02591991 -0.02703616 0.09997494
v 0.03075904 -0.03075786 0.10300000
v 0.03173231 -0.02435002 0.09997494
v 0.03451085 -0.02648123 0.10000011
v 0.02591991 -0.02795315 0.10082685
v 0.03526381 -0.01873585 0.10300000
v 0.03248397 -0.01873585 0.10000011
v 0.02591991 -0.02703933 0.10000011
v 0.03248137 -0.01873585 0.09997494
v 0.03451085 -0.02648123 0.10300000
v 0.03463786 -0.01999908 0.09997494
v 0.03767171 -0.02175084 0.10000011
v 0.03915948 -0.01873585 0.10300000
v 0.03526122 -0.01873585 0.09997494
v 0.03767171 -0.02175084 0.10300000
v 0.03915948 -0.01873585 0.10000011
f 1 2 5
f 1 5 3
f 1 3 8
f 1 8 13
f 1 13 16
f 1 16 9
f 1 9 4
f 1 4 2
f 2 4 6
f 2 6 7
f 2 7 10
f 2 10 5
f 3 5 10
f 3 10 18
f 3 18 23
f 3 23 21
f 3 21 14
f 3 14 8
f 4 9 17
f 4 17 22
f 4 22 19
f 4 19 11
f 4 11 6
f 6 11 7
f 7 11 12
f 7 12 18
f 7 18 10
f 8 14 15
f 8 15 13
f 9 16 17
f 11 19 20
f 11 20 12
f 12 20 23
f 12 23 18
f 13 15 16
f 14 21 24
f 14 24 22
f 14 22 17
f 14 17 15
f 15 17 16
f 19 22 20
f 20 22 24
f 20 24 21
f 20 21 23

