# https://github.com/mikedh/trimesh
v 0.01253892 0.03400900 0.06312766
v 0.01253892 0.03125331 0.06312766
v 0.01253892 0.03027304 0.02768703
v 0.01144573 0.02805173 0.00306437
v 0.00939798 0.03507541 0.06312766
v 0.00000705 0.03369815 0.06312766
v 0.01253892 0.02442055 0.00306437
v 0.01253892 0.02753482 0.00306437
v 0.01159787 0.02799934 0.00306437
v 0.00784346 0.02927415 0.00306437
v 0.00711343 0.03552946 0.06312766
v 0.00761770 0.02931955 0.00306437
v 0.00000705 0.03631297 0.06312766
v 0.00000705 0.02750687 0.00306437
v 0.00473932 0.03600096 0.06312766
v 0.00395654 0.03004718 0.00306437
v 0.00000705 0.03030564 0.00306437
f 1 2 7
f 1 7 8
f 1 8 3
f 1 3 4
f 1 4 5
f 1 5 11
f 1 11 15
f 1 15 13
f 1 13 6
f 1 6 2
f 2 6 7
f 3 8 9
f 3 9 4
f 4 9 8
f 4 8 7
f 4 7 14
f 4 14 17
f 4 17 16
f 4 16 12
f 4 12 10
f 4 10 5
f 5 10 12
f 5 12 11
f 6 13 17
f 6 17 14
f 6 14 7
f 11 12 16
f 11 16 15
f 13 15 16
f 13 16 17

