# https://github.com/mikedh/trimesh
v 0.03214216 0.01674997 0.06312766
v 0.03144778 0.01815705 0.06312766
v 0.02923342 0.01674997 0.06312766
v 0.02901080 0.01674997 0.03498953
v 0.02961231 0.02090295 0.06312766
v 0.02705739 0.01674997 0.01871235
v 0.02857884 0.02152676 0.05798223
v 0.02584701 0.02152676 0.06312766
v 0.01708099 0.02152676 0.00306437
v 0.02181782 0.01674997 0.00306437
v 0.02919509 0.02152676 0.06312766
v 0.02517917 0.01674997 0.00306437
v 0.02404398 0.01844932 0.00306437
v 0.02805400 0.02152676 0.05361303
v 0.02131952 0.02152676 0.00306437
v 0.02393930 0.01856950 0.00306437
v 0.02152739 0.02152676 0.00444041
v 0.02143009 0.02142903 0.00306437
v 0.02145663 0.02152676 0.00396997
f 1 2 5
f 1 5 11
f 1 11 8
f 1 8 3
f 1 3 10
f 1 10 12
f 1 12 6
f 1 6 4
f 1 4 2
f 2 4 6
f 2 6 7
f 2 7 5
f 3 8 9
f 3 9 10
f 5 7 11
f 6 12 13
f 6 13 7
f 7 14 17
f 7 17 19
f 7 19 15
f 7 15 9
f 7 9 8
f 7 8 11
f 7 13 14
f 9 15 18
f 9 18 16
f 9 16 13
f 9 13 12
f 9 12 10
f 13 16 14
f 14 16 17
f 15 19 18
f 16 18 17
f 17 18 19

