# https://github.com/mikedh/trimesh
v 0.02023525 -0.03448127 0.09997134
v 0.02435089 -0.03173020 0.09997134
v 0.02023525 -0.03147852 0.09997134
v 0.01945046 -0.03058290 0.06311899
v 0.02210793 -0.02880729 0.06311899
v 0.02828139 -0.02827964 0.09997134
v 0.02567799 -0.02567611 0.06311899
v 0.03340628 -0.01685706 0.09997134
v 0.02181958 -0.01674945 0.00306438
v 0.01945046 -0.02744651 0.06311899
v 0.01945046 -0.02534633 0.01949379
v 0.01945046 -0.02433268 0.01184823
v 0.01945046 -0.02316804 0.00306438
v 0.02015006 -0.02255534 0.00306438
v 0.02592047 -0.02540187 0.06312848
v 0.02785541 -0.02319754 0.06312848
v 0.03172856 -0.02435004 0.09997134
v 0.02255521 -0.02255534 0.01896259
v 0.02923166 -0.01674945 0.06311899
v 0.03618826 -0.01685706 0.09997134
v 0.02518319 -0.01674945 0.00306438
v 0.01945046 -0.01945019 0.00306438
v 0.02143128 -0.02143061 0.00306438
v 0.02880895 -0.02210753 0.06312848
v 0.02158365 -0.02125704 0.00306438
v 0.02404451 -0.01845043 0.00306438
v 0.03463671 -0.02000214 0.09997134
v 0.03214144 -0.01674945 0.06311899
v 0.02413626 -0.01831852 0.00306438
v 0.02900720 -0.01674945 0.03497462
v 0.03144676 -0.01815883 0.06312848
f 1 2 6
f 1 6 17
f 1 17 27
f 1 27 20
f 1 20 8
f 1 8 3
f 1 3 10
f 1 10 4
f 1 4 5
f 1 5 2
f 2 5 7
f 2 7 6
f 3 8 9
f 3 9 10
f 4 10 22
f 4 22 13
f 4 13 12
f 4 12 11
f 4 11 5
f 5 11 12
f 5 12 13
f 5 13 14
f 5 14 7
f 6 15 16
f 6 16 17
f 6 7 15
f 7 14 18
f 7 18 15
f 8 19 9
f 8 20 28
f 8 28 19
f 9 21 29
f 9 29 26
f 9 26 25
f 9 25 23
f 9 23 14
f 9 14 13
f 9 13 22
f 9 22 10
f 9 19 28
f 9 28 30
f 9 30 21
f 14 23 18
f 15 18 16
f 16 24 17
f 16 18 25
f 16 25 26
f 16 26 24
f 17 24 27
f 18 23 25
f 20 27 28
f 21 30 31
f 21 31 27
f 21 27 29
f 24 26 29
f 24 29 27
f 27 31 28
f 28 31 30

