# https://github.com/mikedh/trimesh
v 0.00000000 0.03030585 0.00305849
v 0.00379120 0.03005073 0.00305849
v 0.00391579 0.02973628 0.00000030
v 0.00000000 0.02999140 0.00000030
v -0.00391579 0.02973628 0.00000030
v -0.00395732 0.03003886 0.00305849
v 0.00395139 0.03003886 0.00305849
v 0.00784345 0.02926757 0.00305849
v 0.00776632 0.02897092 0.00000030
v -0.00776632 0.02897092 0.00000030
v -0.00418278 0.02999733 0.00305849
v 0.01159905 0.02799197 0.00305849
v 0.01148039 0.02770719 0.00000030
v -0.01148039 0.02771312 0.00000030
v -0.00784345 0.02926757 0.00305849
v 0.01494527 0.02634259 0.00305849
v 0.01499867 0.02597475 0.00000030
v -0.01159311 0.02799197 0.00305849
v -0.01499867 0.02597475 0.00000030
v -0.01180077 0.02789111 0.00305849
v 0.01515292 0.02623580 0.00305849
v 0.01844575 0.02403465 0.00305849
v 0.01825589 0.02379140 0.00000030
v -0.01826182 0.02379733 0.00000030
v -0.01534278 0.02611120 0.00305849
v -0.01514699 0.02623580 0.00305849
v 0.02142412 0.02142412 0.00305849
v 0.02121053 0.02120460 0.00000030
v -0.02121053 0.02120460 0.00000030
v -0.02142412 0.02142412 0.00305849
v -0.01844575 0.02403465 0.00305849
v 0.02404058 0.01843982 0.00305849
v 0.02379733 0.01825589 0.00000030
v -0.02157838 0.02125207 0.00305849
v -0.02379733 0.01826182 0.00000030
v 0.02597475 0.01499867 0.00000030
v 0.02624173 0.01514699 0.00305849
v -0.02404058 0.01844575 0.00305849
v -0.02597475 0.01499867 0.00000030
v 0.02792671 0.01174144 0.00305849
v 0.02771312 0.01148039 0.00000030
v -0.02624173 0.01514699 0.00305849
v -0.02771312 0.01148039 0.00000030
v -0.02631293 0.01501053 0.00305849
v 0.02799791 0.01159311 0.00305849
v 0.02897685 0.00776632 0.00000030
v -0.02897092 0.00776632 0.00000030
v -0.02926757 0.00784345 0.00305849
v -0.02806910 0.01137953 0.00305849
v -0.02799197 0.01159905 0.00305849
v 0.02922010 0.00799177 0.00305849
v 0.02926757 0.00784345 0.00305849
v 0.03004480 0.00395732 0.00305849
v 0.02974221 0.00391579 0.00000030
v -0.02973628 0.00391579 0.00000030
v -0.03003886 0.00395732 0.00305849
v 0.03030585 0.00000000 0.00305849
v 0.02999733 0.00000000 0.00000030
v -0.02999140 0.00000000 0.00000030
v -0.03000326 0.00000000 0.00007813
v -0.03030585 0.00000000 0.00305849
v -0.03005073 0.00379713 0.00305849
v 0.03005073 -0.00379120 0.00305849
v 0.02973628 -0.00391579 0.00000030
v -0.02973035 -0.00391579 0.00000030
v -0.03003293 -0.00395139 0.00305849
v 0.03003886 -0.00395139 0.00305849
v 0.02926757 -0.00784345 0.00305849
v 0.02897092 -0.00776632 0.00000030
v -0.02926164 -0.00784345 0.00305849
v -0.03000326 -0.00411158 0.00305849
v -0.02896499 -0.00776632 0.00000030
v 0.02799197 -0.01159905 0.00305849
v 0.02770719 -0.01148039 0.00000030
v -0.02919044 -0.00806297 0.00305849
v -0.02770719 -0.01148039 0.00000030
v 0.02623580 -0.01515292 0.00305849
v 0.02596881 -0.01499867 0.00000030
v -0.02798604 -0.01159905 0.00305849
v -0.02788518 -0.01180670 0.00305849
v -0.02596881 -0.01499867 0.00000030
v -0.02623580 -0.01515292 0.00305849
v 0.02403465 -0.01843982 0.00305849
v 0.02379140 -0.01825589 0.00000030
v -0.02379140 -0.01825589 0.00000030
v -0.02403465 -0.01844575 0.00305849
v 0.02141819 -0.02142412 0.00305849
v 0.02120460 -0.02120460 0.00000030
v -0.02120460 -0.02121053 0.00000030
v -0.02141819 -0.02142412 0.00305849
v 0.01855848 -0.02393379 0.00305849
v 0.01824996 -0.02379140 0.00000030
v -0.01825589 -0.02379733 0.00000030
v -0.01843982 -0.02404058 0.00305849
v 0.01843982 -0.02403465 0.00305849
v 0.01499273 -0.02597475 0.00000030
v -0.01499273 -0.02597475 0.00000030
v -0.01514699 -0.02624173 0.00305849
v -0.01830929 -0.02412958 0.00305849
v 0.01514699 -0.02624173 0.00305849
v 0.01159311 -0.02799197 0.00305849
v 0.01147445 -0.02770719 0.00000030
v -0.01147445 -0.02771312 0.00000030
v -0.01158718 -0.02799791 0.00305849
v 0.00805704 -0.02919637 0.00305849
v 0.00776039 -0.02897092 0.00000030
v -0.00776039 -0.02897092 0.00000030
v -0.00783751 -0.02926757 0.00305849
v 0.00783751 -0.02926757 0.00305849
v 0.00390986 -0.02973628 0.00000030
v -0.00390986 -0.02973628 0.00000030
v -0.00395139 -0.03004480 0.00305849
v -0.00761206 -0.02931503 0.00305849
v 0.00410565 -0.03000920 0.00305849
v 0.00000000 -0.02999733 0.00000030
v 0.00394546 -0.03003886 0.00305849
v 0.00000000 -0.03030585 0.00305849
v -0.00379120 -0.03005666 0.00305849
f 1 2 3
f 1 3 4
f 1 4 5
f 1 5 6
f 1 6 11
f 1 11 15
f 1 15 18
f 1 18 20
f 1 20 26
f 1 26 25
f 1 25 31
f 1 31 30
f 1 30 34
f 1 34 38
f 1 38 42
f 1 42 44
f 1 44 50
f 1 50 49
f 1 49 48
f 1 48 56
f 1 56 62
f 1 62 61
f 1 61 66
f 1 66 71
f 1 71 70
f 1 70 75
f 1 75 79
f 1 79 80
f 1 80 82
f 1 82 86
f 1 86 90
f 1 90 94
f 1 94 99
f 1 99 98
f 1 98 104
f 1 104 108
f 1 108 113
f 1 113 112
f 1 112 118
f 1 118 117
f 1 117 116
f 1 116 114
f 1 114 109
f 1 109 105
f 1 105 101
f 1 101 100
f 1 100 95
f 1 95 91
f 1 91 87
f 1 87 83
f 1 83 77
f 1 77 73
f 1 73 68
f 1 68 67
f 1 67 63
f 1 63 57
f 1 57 53
f 1 53 52
f 1 52 51
f 1 51 45
f 1 45 40
f 1 40 37
f 1 37 32
f 1 32 27
f 1 27 22
f 1 22 21
f 1 21 16
f 1 16 12
f 1 12 8
f 1 8 7
f 1 7 2
f 2 7 3
f 3 7 8
f 3 8 9
f 3 9 13
f 3 13 17
f 3 17 23
f 3 23 28
f 3 28 33
f 3 33 36
f 3 36 41
f 3 41 46
f 3 46 54
f 3 54 58
f 3 58 64
f 3 64 69
f 3 69 74
f 3 74 78
f 3 78 84
f 3 84 88
f 3 88 92
f 3 92 96
f 3 96 102
f 3 102 106
f 3 106 110
f 3 110 115
f 3 115 111
f 3 111 107
f 3 107 103
f 3 103 97
f 3 97 93
f 3 93 89
f 3 89 85
f 3 85 81
f 3 81 76
f 3 76 72
f 3 72 65
f 3 65 59
f 3 59 55
f 3 55 47
f 3 47 43
f 3 43 39
f 3 39 35
f 3 35 29
f 3 29 24
f 3 24 19
f 3 19 14
f 3 14 10
f 3 10 5
f 3 5 4
f 5 10 11
f 5 11 6
f 8 12 9
f 9 12 13
f 10 14 15
f 10 15 11
f 12 16 17
f 12 17 13
f 14 18 15
f 14 19 20
f 14 20 18
f 16 21 17
f 17 21 22
f 17 22 23
f 19 24 25
f 19 25 26
f 19 26 20
f 22 27 28
f 22 28 23
f 24 29 30
f 24 30 31
f 24 31 25
f 27 32 33
f 27 33 28
f 29 34 30
f 29 35 34
f 32 36 33
f 32 37 36
f 34 35 38
f 35 39 38
f 36 37 40
f 36 40 41
f 38 39 42
f 39 43 44
f 39 44 42
f 40 45 41
f 41 45 46
f 43 47 48
f 43 48 49
f 43 49 50
f 43 50 44
f 45 51 46
f 46 51 52
f 46 52 53
f 46 53 54
f 47 55 48
f 48 55 56
f 53 57 54
f 54 57 58
f 55 59 60
f 55 60 61
f 55 61 62
f 55 62 56
f 57 63 64
f 57 64 58
f 59 65 60
f 60 65 61
f 61 65 66
f 63 67 64
f 64 68 69
f 64 67 68
f 65 70 71
f 65 71 66
f 65 72 70
f 68 73 69
f 69 73 74
f 70 72 75
f 72 76 75
f 73 77 78
f 73 78 74
f 75 76 79
f 76 80 79
f 76 81 82
f 76 82 80
f 77 83 84
f 77 84 78
f 81 85 86
f 81 86 82
f 83 87 84
f 84 87 88
f 85 89 86
f 86 89 90
f 87 91 88
f 88 91 92
f 89 93 94
f 89 94 90
f 91 95 92
f 92 95 96
f 93 97 98
f 93 98 99
f 93 99 94
f 95 100 96
f 96 101 102
f 96 100 101
f 97 103 98
f 98 103 104
f 101 105 102
f 102 105 106
f 103 107 104
f 104 107 108
f 105 109 106
f 106 109 110
f 107 111 112
f 107 112 113
f 107 113 108
f 109 114 110
f 110 114 116
f 110 116 117
f 110 117 115
f 111 118 112
f 111 115 118
f 115 117 118

