# https://github.com/mikedh/trimesh
v 0.01096980 -0.03454271 0.06312766
v 0.01252692 -0.03401378 0.06312766
v 0.01096980 -0.03178730 0.06312766
v 0.01096980 -0.02821191 0.00306437
v 0.01389728 -0.03354691 0.06312766
v 0.01159896 -0.02799768 0.00306437
v 0.01944843 -0.02744660 0.06312766
v 0.01944926 -0.01944926 0.00306437
v 0.01096980 -0.02519500 0.00306437
v 0.01587106 -0.03131895 0.05184521
v 0.01587106 -0.03257329 0.06312766
v 0.01174255 -0.02792824 0.00306437
v 0.01944843 -0.03058319 0.06312766
v 0.01944843 -0.02534865 0.01949123
v 0.01944843 -0.02433365 0.01184222
v 0.01944843 -0.02316796 0.00306437
v 0.01815610 -0.03144601 0.06312766
v 0.01515309 -0.02624693 0.00306437
v 0.01587106 -0.02697382 0.01311216
v 0.01587106 -0.02576824 0.00306437
v 0.01844826 -0.02404408 0.00306437
v 0.01856945 -0.02393918 0.00306437
f 1 2 5
f 1 5 11
f 1 11 17
f 1 17 13
f 1 13 7
f 1 7 3
f 1 3 9
f 1 9 4
f 1 4 2
f 2 4 6
f 2 6 5
f 3 7 8
f 3 8 9
f 4 9 8
f 4 8 16
f 4 16 22
f 4 22 21
f 4 21 20
f 4 20 18
f 4 18 12
f 4 12 6
f 5 10 11
f 5 6 12
f 5 12 10
f 7 13 8
f 8 13 14
f 8 14 15
f 8 15 16
f 10 17 11
f 10 12 18
f 10 18 17
f 13 17 19
f 13 19 14
f 14 19 20
f 14 20 21
f 14 21 22
f 14 22 15
f 15 22 16
f 17 18 19
f 18 20 19

