# https://github.com/mikedh/trimesh
v 0.03631240 0.00000044 0.06312766
v 0.03609686 0.00329654 0.06312766
v 0.03631240 -0.00000513 0.06312766
v 0.03030679 0.00000044 0.00306437
v 0.03600244 0.00473972 0.06312766
v 0.03369824 -0.00000513 0.06312766
v 0.03030584 -0.00000513 0.00306437
v 0.03029630 0.00016002 0.00306437
v 0.03288757 0.00711249 0.03715355
v 0.03553035 0.00711249 0.06312766
v 0.03004642 0.00395576 0.00306437
v 0.03001591 0.00411255 0.00306437
v 0.03287041 0.00711249 0.06312766
v 0.02657010 0.00711249 0.00306437
v 0.02750570 -0.00000513 0.00306437
v 0.02941887 0.00711249 0.00306437
f 1 2 5
f 1 5 10
f 1 10 13
f 1 13 6
f 1 6 3
f 1 3 4
f 1 4 2
f 2 4 5
f 3 6 15
f 3 15 7
f 3 7 4
f 4 7 15
f 4 15 14
f 4 14 16
f 4 16 12
f 4 12 11
f 4 11 8
f 4 8 5
f 5 9 10
f 5 8 11
f 5 11 12
f 5 12 9
f 6 13 14
f 6 14 15
f 9 12 16
f 9 16 14
f 9 14 13
f 9 13 10

