# https://github.com/mikedh/trimesh
v 0.03487709 0.02593199 0.10300000
v 0.03767064 0.02174904 0.10300000
v 0.03487709 0.02593199 0.10000011
v 0.03034730 0.02593199 0.10300000
v 0.04018825 0.01664780 0.10300000
v 0.03767064 0.02174904 0.10000011
v 0.03463803 0.01999894 0.09997494
v 0.03173246 0.02434802 0.09997494
v 0.03034457 0.02593199 0.09997494
v 0.02703056 0.02593199 0.10000011
v 0.03729361 0.01430712 0.10300000
v 0.04098329 0.01430712 0.10300000
v 0.04018825 0.01664780 0.10000011
v 0.03695210 0.01530621 0.09997494
v 0.03033364 0.02593199 0.09997494
v 0.02702919 0.02592971 0.09997494
v 0.03465989 0.01430712 0.10000011
v 0.03468857 0.01430712 0.10003298
v 0.04098329 0.01430712 0.10000011
v 0.03729088 0.01430712 0.09997494
v 0.03464213 0.01435037 0.09997494
v 0.03465716 0.01430712 0.09997524
v 0.03682096 0.01430712 0.09997494
f 1 2 6
f 1 6 3
f 1 3 9
f 1 9 15
f 1 15 10
f 1 10 4
f 1 4 11
f 1 11 12
f 1 12 5
f 1 5 2
f 2 5 13
f 2 13 6
f 3 6 7
f 3 7 8
f 3 8 9
f 4 10 11
f 5 12 19
f 5 19 13
f 6 13 7
f 7 13 14
f 7 14 20
f 7 20 23
f 7 23 21
f 7 21 16
f 7 16 15
f 7 15 9
f 7 9 8
f 10 15 16
f 10 16 17
f 10 17 18
f 10 18 11
f 11 18 17
f 11 17 22
f 11 22 23
f 11 23 20
f 11 20 19
f 11 19 12
f 13 19 14
f 14 19 20
f 16 21 22
f 16 22 17
f 21 23 22

