# https://github.com/mikedh/trimesh
v -0.00911383 0.02589184 0.00306438
v -0.00911383 0.02884387 0.00306438
v 0.00000583 0.02750593 0.00306438
v 0.00000298 0.03749697 0.09997134
v -0.00970002 0.03221978 0.06312848
v -0.00799561 0.02922357 0.00306438
v -0.00970002 0.03497298 0.06312848
v -0.00911383 0.02998574 0.01389717
v 0.00000583 0.03030607 0.00306438
v 0.00000583 0.03369855 0.06311899
v 0.00000298 0.03999612 0.09997134
v -0.00970002 0.03621979 0.09997134
v -0.00784360 0.02927466 0.00306438
v -0.00939790 0.03507653 0.06312848
v -0.00970002 0.03619908 0.07476756
v -0.00000082 0.03030607 0.00306438
v 0.00000583 0.03631230 0.06311899
v -0.00000082 0.03999612 0.09997134
v -0.00970002 0.03876311 0.09997134
v -0.00395689 0.03004788 0.00306438
v -0.00970002 0.03832818 0.09568375
v -0.00474069 0.03600301 0.06312848
v -0.00023074 0.03029226 0.00306438
v -0.00000082 0.03631230 0.06311899
v -0.00522047 0.03965369 0.09997134
v -0.00329659 0.03609690 0.06311899
f 1 2 6
f 1 6 13
f 1 13 20
f 1 20 23
f 1 23 16
f 1 16 9
f 1 9 3
f 1 3 4
f 1 4 5
f 1 5 7
f 1 7 2
f 2 7 8
f 2 8 6
f 3 9 17
f 3 17 10
f 3 10 4
f 4 11 18
f 4 18 25
f 4 25 19
f 4 19 12
f 4 12 5
f 4 10 17
f 4 17 11
f 5 12 19
f 5 19 21
f 5 21 15
f 5 15 7
f 6 8 14
f 6 14 13
f 7 15 14
f 7 14 8
f 9 16 24
f 9 24 17
f 11 17 24
f 11 24 18
f 13 14 20
f 14 15 21
f 14 21 22
f 14 22 20
f 16 23 24
f 18 24 26
f 18 26 25
f 19 25 21
f 20 26 23
f 20 22 26
f 21 25 22
f 22 25 26
f 23 26 24

