# https://github.com/mikedh/trimesh
v 0.01428903 -0.04098943 0.10000011
v 0.01664799 -0.04018782 0.10000011
v 0.01428903 -0.04098943 0.10300000
v 0.01428903 -0.03729683 0.09997494
v 0.01530684 -0.03695134 0.09997494
v 0.01999973 -0.03463800 0.09997494
v 0.02174960 -0.03767101 0.10000011
v 0.01664799 -0.04018782 0.10300000
v 0.01428903 -0.03729957 0.10300000
v 0.01428903 -0.03681887 0.09997494
v 0.02434764 -0.03173336 0.09997494
v 0.02591991 -0.03488518 0.10000011
v 0.02174960 -0.03767101 0.10300000
v 0.01428903 -0.03466531 0.10000011
v 0.02591991 -0.03035819 0.10300000
v 0.02591991 -0.02795473 0.10082685
v 0.02591991 -0.02704114 0.10000011
v 0.01428903 -0.03466258 0.09997554
v 0.01435051 -0.03464210 0.09997494
v 0.02591991 -0.03035410 0.09997494
v 0.02591991 -0.03488518 0.10300000
v 0.02591763 -0.02703841 0.09997494
v 0.02591991 -0.03034454 0.09997494
f 1 2 8
f 1 8 3
f 1 3 9
f 1 9 14
f 1 14 18
f 1 18 10
f 1 10 4
f 1 4 5
f 1 5 2
f 2 5 6
f 2 6 7
f 2 7 13
f 2 13 8
f 3 8 13
f 3 13 21
f 3 21 15
f 3 15 9
f 4 10 19
f 4 19 22
f 4 22 23
f 4 23 20
f 4 20 11
f 4 11 6
f 4 6 5
f 6 11 12
f 6 12 7
f 7 12 21
f 7 21 13
f 9 15 16
f 9 16 17
f 9 17 14
f 10 18 19
f 11 20 12
f 12 20 23
f 12 23 17
f 12 17 16
f 12 16 15
f 12 15 21
f 14 17 22
f 14 22 18
f 17 23 22
f 18 22 19

