# https://github.com/mikedh/trimesh
v -0.02591722 -0.03488658 0.10000011
v -0.02174985 -0.03767124 0.10000011
v -0.02591722 -0.03488658 0.10300000
v -0.02591722 -0.03034340 0.09997494
v -0.02591607 -0.03035707 0.09997494
v -0.02434746 -0.03173300 0.09997494
v -0.01664702 -0.04018810 0.10000011
v -0.02174985 -0.03767124 0.10300000
v -0.01999985 -0.03463790 0.09997494
v -0.02591722 -0.03035980 0.10300000
v -0.02591722 -0.02704089 0.09997494
v -0.01426273 -0.04099836 0.10000011
v -0.01664702 -0.04018810 0.10300000
v -0.01530657 -0.03695253 0.09997494
v -0.02591722 -0.02704362 0.10000011
v -0.01426273 -0.03730916 0.10300000
v -0.01426273 -0.03467206 0.09997494
v -0.01426273 -0.04099836 0.10300000
v -0.01426273 -0.03730642 0.09997494
v -0.01426273 -0.03681726 0.10244065
v -0.01426273 -0.03467480 0.09999982
f 1 2 8
f 1 8 3
f 1 3 10
f 1 10 15
f 1 15 11
f 1 11 4
f 1 4 5
f 1 5 6
f 1 6 2
f 2 7 13
f 2 13 8
f 2 6 9
f 2 9 7
f 3 8 13
f 3 13 18
f 3 18 16
f 3 16 10
f 4 11 17
f 4 17 19
f 4 19 14
f 4 14 9
f 4 9 6
f 4 6 5
f 7 12 18
f 7 18 13
f 7 9 14
f 7 14 12
f 10 16 15
f 11 15 17
f 12 14 19
f 12 19 17
f 12 17 21
f 12 21 20
f 12 20 16
f 12 16 18
f 15 16 20
f 15 20 21
f 15 21 17

