# https://github.com/mikedh/trimesh
v -0.00000280 0.01972384 -0.04846770
v -0.00000280 -0.00000414 -0.04894610
v -0.00000280 0.01972384 -0.05044748
v -0.04187090 0.01972384 -0.03358282
v -0.00000752 -0.00000800 -0.04894610
v -0.00000280 -0.00000800 -0.05057302
v -0.04616156 -0.00000800 -0.03358282
v -0.00000280 0.01764558 -0.05066972
v -0.00231570 0.01757219 -0.05066972
v -0.00259891 0.01972384 -0.05043730
v -0.04396667 0.01972384 -0.03358282
v -0.00000280 -0.00000800 -0.05091231
v -0.04812043 -0.00000800 -0.03358282
v -0.00000280 0.01643842 -0.05072062
v -0.00190504 0.01441231 -0.05080374
v -0.00570007 0.01677835 -0.05066972
v -0.00645530 0.01900147 -0.05041864
v -0.00337302 0.01972384 -0.05041864
v -0.04348049 0.01972384 -0.03489081
v -0.04669022 0.01250982 -0.03358282
v -0.00000280 0.00000359 -0.05091231
v -0.00002640 -0.00000800 -0.05091231
v -0.04822428 0.00316346 -0.03358282
v -0.04766730 -0.00000800 -0.03489081
v -0.00000280 0.01273966 -0.05083597
v -0.00388280 0.01142627 -0.05085124
v -0.00727190 0.01258901 -0.05080374
v -0.00000280 0.01194004 -0.05085124
v -0.00886732 0.01534907 -0.05066972
v -0.00669603 0.01972384 -0.05032364
v -0.01003793 0.01737904 -0.05041864
v -0.04234764 0.01972384 -0.03708605
v -0.04624652 0.01239200 -0.03489081
v -0.04776642 0.00313256 -0.03489081
v -0.00796104 0.00907761 -0.05085124
v -0.01194017 -0.00000800 -0.05085124
v -0.01204873 0.00078969 -0.05085124
v -0.01083092 0.00534022 -0.05085124
v -0.04660997 -0.00000800 -0.03708605
v -0.01153895 0.00885162 -0.05080374
v -0.01169000 0.01332297 -0.05066972
v -0.01323350 0.01508639 -0.05041864
v -0.01111413 0.01924870 -0.05014721
v -0.01006625 0.01972384 -0.05014721
v -0.04391475 0.01176620 -0.03912691
v -0.04521752 0.01211580 -0.03708605
v -0.04090799 0.01972384 -0.03912691
v -0.04670438 0.00306109 -0.03708605
v -0.01275204 -0.00000800 -0.05083597
v -0.01404537 0.00376415 -0.05080374
v -0.04535440 0.00297418 -0.03912691
v -0.04526000 -0.00000800 -0.03912691
v -0.01589569 0.00783954 -0.05066972
v -0.01406425 0.01078695 -0.05066972
v -0.01592401 0.01221624 -0.05041864
v -0.01763272 0.01352770 -0.05014721
v -0.01465428 0.01670496 -0.05014721
v -0.01139262 0.01972384 -0.05006408
v -0.03999227 0.01972384 -0.04007523
v -0.03927480 0.01936845 -0.04095571
v -0.04230516 0.01133356 -0.04095571
v -0.04369762 0.00286408 -0.04095571
v -0.01643379 -0.00000800 -0.05072062
v -0.01768464 0.00116053 -0.05066972
v -0.01712294 0.00458888 -0.05066972
v -0.04360321 -0.00000800 -0.04095571
v -0.01800089 0.00887867 -0.05041864
v -0.01993145 0.00983281 -0.05014721
v -0.01922342 0.01474645 -0.04984354
v -0.01597121 0.01821150 -0.04984354
v -0.01387072 0.01972384 -0.04984354
v -0.03905295 0.01972384 -0.04095571
v -0.03688166 0.01972384 -0.04253852
v -0.03761329 0.01854565 -0.04253852
v -0.04051149 0.01085262 -0.04253852
v -0.04184258 0.00274433 -0.04253852
v -0.04175762 -0.00000800 -0.04253852
v -0.01764688 -0.00000800 -0.05066972
v -0.01913374 -0.00000800 -0.05051025
v -0.02002585 0.00131312 -0.05041864
v -0.01938863 0.00519536 -0.05041864
v -0.02147023 0.00575356 -0.05014721
v -0.02340079 0.00627119 -0.04984354
v -0.02172512 0.01071162 -0.04984354
v -0.02341495 0.01154216 -0.04949746
v -0.02071500 0.01589374 -0.04949746
v -0.01721262 0.01962533 -0.04949746
v -0.01707573 0.01972384 -0.04949746
v -0.03588570 0.01769580 -0.04384820
v -0.03462541 0.01972384 -0.04384820
v -0.03865173 0.01035430 -0.04384820
v -0.03992146 0.00261879 -0.04384820
v -0.03983650 -0.00000800 -0.04384820
v -0.01998337 -0.00000800 -0.05041864
v -0.02217354 0.00145412 -0.05014721
v -0.02417018 0.00158545 -0.04984354
v -0.02521807 0.00675985 -0.04949746
v -0.02694565 0.00722340 -0.04909370
v -0.02501510 0.01233405 -0.04909370
v -0.02213578 0.01698309 -0.04909370
v -0.01896381 0.01972384 -0.04919379
v -0.01729758 0.01972384 -0.04946692
v -0.03681558 0.00986371 -0.04494751
v -0.03239748 0.01972384 -0.04494751
v -0.03417699 0.01685368 -0.04494751
v -0.03918511 -0.00000800 -0.04422820
v -0.03802395 0.00249324 -0.04494751
v -0.02212634 -0.00000800 -0.05014721
v -0.02341495 -0.00000800 -0.04995211
v -0.02411826 -0.00000800 -0.04984354
v -0.02599218 -0.00000800 -0.04949746
v -0.02604410 0.00170714 -0.04949746
v -0.02783305 0.00182496 -0.04909370
v -0.02942376 0.00192926 -0.04866109
v -0.02942376 0.00273081 -0.04862547
v -0.02860716 0.00766764 -0.04862547
v -0.02655860 0.01309698 -0.04862547
v -0.02350464 0.01803188 -0.04862547
v -0.01956328 0.01972384 -0.04909370
v -0.03509743 0.00940595 -0.04589923
v -0.03125991 0.01972384 -0.04546663
v -0.03258156 0.01606564 -0.04589923
v -0.03794370 -0.00000800 -0.04494751
v -0.03624915 0.00237735 -0.04589923
v -0.03733480 -0.00000800 -0.04527663
v -0.02777641 -0.00000800 -0.04909370
v -0.02942376 -0.00000800 -0.04864413
v -0.02955120 0.00193891 -0.04862377
v -0.03123159 0.00204901 -0.04808090
v -0.02942376 0.00788396 -0.04835403
v -0.02806906 0.01384060 -0.04808090
v -0.02483101 0.01905555 -0.04808090
v -0.02420794 0.01972384 -0.04808090
v -0.02191393 0.01972384 -0.04862547
v -0.03105694 0.01531431 -0.04672541
v -0.03345480 0.00896558 -0.04672541
v -0.03455461 0.00226533 -0.04672541
v -0.03031115 0.01972384 -0.04589923
v -0.02942376 0.01972384 -0.04627076
v -0.02942376 0.01795075 -0.04672711
v -0.03448380 -0.00000800 -0.04672541
v -0.03617363 -0.00000800 -0.04589923
v -0.02948984 -0.00000800 -0.04862377
v -0.03023563 0.00810222 -0.04808090
v -0.03058492 -0.00000800 -0.04826921
v -0.03116551 -0.00000800 -0.04808090
v -0.03282230 -0.00000800 -0.04744981
v -0.03288838 0.00215717 -0.04744981
v -0.03184050 0.00853486 -0.04744981
v -0.02942376 0.01025580 -0.04808090
v -0.02942376 0.01450888 -0.04750919
v -0.02942376 0.01470783 -0.04747017
v -0.02569952 0.01972384 -0.04766526
v -0.02636507 0.01972384 -0.04745151
v -0.02956064 0.01457649 -0.04744981
v -0.02942376 0.01480826 -0.04744981
v -0.02886205 0.01972384 -0.04650318
v -0.02831923 0.01972384 -0.04672711
f 1 2 6
f 1 6 12
f 1 12 21
f 1 21 28
f 1 28 25
f 1 25 14
f 1 14 8
f 1 8 3
f 1 3 10
f 1 10 18
f 1 18 30
f 1 30 44
f 1 44 58
f 1 58 71
f 1 71 88
f 1 88 102
f 1 102 101
f 1 101 119
f 1 119 134
f 1 134 133
f 1 133 153
f 1 153 154
f 1 154 158
f 1 158 157
f 1 157 139
f 1 139 138
f 1 138 121
f 1 121 104
f 1 104 90
f 1 90 73
f 1 73 72
f 1 72 59
f 1 59 47
f 1 47 32
f 1 32 19
f 1 19 11
f 1 11 4
f 1 4 2
f 2 5 6
f 2 4 7
f 2 7 5
f 3 8 9
f 3 9 10
f 4 11 20
f 4 20 23
f 4 23 13
f 4 13 7
f 5 7 13
f 5 13 24
f 5 24 39
f 5 39 52
f 5 52 66
f 5 66 77
f 5 77 93
f 5 93 106
f 5 106 123
f 5 123 125
f 5 125 142
f 5 142 141
f 5 141 147
f 5 147 146
f 5 146 145
f 5 145 143
f 5 143 127
f 5 127 126
f 5 126 111
f 5 111 110
f 5 110 109
f 5 109 108
f 5 108 94
f 5 94 79
f 5 79 78
f 5 78 63
f 5 63 49
f 5 49 36
f 5 36 22
f 5 22 12
f 5 12 6
f 8 14 15
f 8 15 9
f 9 15 16
f 9 16 17
f 9 17 18
f 9 18 10
f 11 19 20
f 12 22 21
f 13 23 24
f 14 25 15
f 15 26 27
f 15 27 16
f 15 25 28
f 15 28 26
f 16 27 29
f 16 29 17
f 17 30 18
f 17 29 31
f 17 31 30
f 19 32 33
f 19 33 20
f 20 33 34
f 20 34 23
f 21 22 26
f 21 26 28
f 22 35 26
f 22 36 37
f 22 37 38
f 22 38 35
f 23 34 24
f 24 34 39
f 26 35 27
f 27 35 40
f 27 40 41
f 27 41 29
f 29 41 42
f 29 42 31
f 30 31 43
f 30 43 44
f 31 42 43
f 32 45 46
f 32 46 33
f 32 47 45
f 33 48 34
f 33 46 48
f 34 48 39
f 35 38 40
f 36 49 37
f 37 49 50
f 37 50 38
f 38 50 40
f 39 48 51
f 39 51 52
f 40 50 53
f 40 53 54
f 40 54 41
f 41 54 55
f 41 55 42
f 42 55 56
f 42 56 57
f 42 57 43
f 43 58 44
f 43 57 58
f 45 47 59
f 45 59 60
f 45 60 61
f 45 61 62
f 45 62 51
f 45 51 48
f 45 48 46
f 49 63 50
f 50 63 64
f 50 64 65
f 50 65 53
f 51 62 52
f 52 62 66
f 53 65 67
f 53 67 54
f 54 67 55
f 55 67 56
f 56 67 68
f 56 68 69
f 56 69 57
f 57 70 71
f 57 71 58
f 57 69 70
f 59 72 60
f 60 72 73
f 60 73 74
f 60 74 61
f 61 74 75
f 61 75 62
f 62 75 76
f 62 76 77
f 62 77 66
f 63 78 64
f 64 78 79
f 64 79 80
f 64 80 65
f 65 80 81
f 65 81 67
f 67 81 82
f 67 82 68
f 68 82 83
f 68 83 84
f 68 84 69
f 69 84 85
f 69 85 86
f 69 86 87
f 69 87 70
f 70 87 71
f 71 87 88
f 73 89 74
f 73 90 89
f 74 89 91
f 74 91 75
f 75 91 76
f 76 91 92
f 76 92 77
f 77 92 93
f 79 94 80
f 80 94 95
f 80 95 82
f 80 82 81
f 82 95 96
f 82 96 83
f 83 96 97
f 83 97 85
f 83 85 84
f 85 97 98
f 85 98 99
f 85 99 100
f 85 100 86
f 86 100 101
f 86 101 87
f 87 101 102
f 87 102 88
f 89 103 91
f 89 90 104
f 89 104 105
f 89 105 103
f 91 103 92
f 92 106 93
f 92 103 107
f 92 107 106
f 94 108 95
f 95 108 109
f 95 109 96
f 96 109 110
f 96 110 111
f 96 111 112
f 96 112 97
f 97 112 113
f 97 113 98
f 98 113 114
f 98 114 115
f 98 115 116
f 98 116 117
f 98 117 99
f 99 118 100
f 99 117 118
f 100 119 101
f 100 118 119
f 103 105 120
f 103 120 107
f 104 121 122
f 104 122 105
f 105 122 120
f 106 107 123
f 107 120 124
f 107 124 125
f 107 125 123
f 111 126 113
f 111 113 112
f 113 126 114
f 114 126 127
f 114 127 128
f 114 128 115
f 115 128 129
f 115 129 130
f 115 130 116
f 116 130 117
f 117 130 131
f 117 131 118
f 118 131 132
f 118 132 133
f 118 133 134
f 118 134 119
f 120 122 135
f 120 135 136
f 120 136 137
f 120 137 124
f 121 138 122
f 122 138 139
f 122 139 140
f 122 140 135
f 124 137 141
f 124 141 142
f 124 142 125
f 127 143 128
f 128 143 129
f 129 144 130
f 129 143 145
f 129 145 146
f 129 146 147
f 129 147 148
f 129 148 149
f 129 149 144
f 130 150 131
f 130 144 150
f 131 150 151
f 131 151 152
f 131 152 132
f 132 153 133
f 132 152 154
f 132 154 153
f 135 155 136
f 135 140 156
f 135 156 155
f 136 155 149
f 136 149 148
f 136 148 137
f 137 148 147
f 137 147 141
f 139 157 140
f 140 157 158
f 140 158 154
f 140 154 156
f 144 149 151
f 144 151 150
f 149 155 151
f 151 155 152
f 152 155 156
f 152 156 154

