# https://github.com/mikedh/trimesh
v -0.00000280 0.00000017 -0.05091109
v -0.00000280 0.00000017 -0.04894512
v -0.00000280 0.00000867 -0.05091109
v 0.00000144 0.00000442 -0.05091300
v 0.00012455 0.00000017 -0.05091109
v 0.04036826 0.00000017 -0.04116330
v -0.00000280 0.04036727 -0.04116426
v -0.00000280 0.01194566 -0.05085097
v 0.00079104 0.01205202 -0.05085097
v 0.00534180 0.01083109 -0.05085097
v 0.00907750 0.00796383 -0.05085097
v 0.01142930 0.00388415 -0.05085097
v 0.01194296 0.00000017 -0.05085097
v 0.04336531 0.00000017 -0.04116330
v 0.01666777 0.03683637 -0.04116330
v -0.00000280 0.04335790 -0.04116426
v -0.00000280 0.01274969 -0.05083665
v 0.00376686 0.01404719 -0.05080325
v 0.00885251 0.01153727 -0.05080325
v 0.01259246 0.00727467 -0.05080325
v 0.01441362 0.00190175 -0.05080325
v 0.01273255 0.00000017 -0.05083665
v 0.04175641 0.00000017 -0.04254044
v 0.04158236 0.00547944 -0.04254044
v 0.04317853 0.00568789 -0.04116330
v 0.01666777 0.04003545 -0.04116330
v 0.00284992 0.04345575 -0.04116426
v -0.00000280 0.04296652 -0.04150019
v -0.00000280 0.01644650 -0.05072022
v 0.00116036 0.01768869 -0.05066964
v 0.00459042 0.01712715 -0.05066964
v 0.00784217 0.01589772 -0.05066964
v 0.01332687 0.01169042 -0.05066964
v 0.01079253 0.01406846 -0.05066964
v 0.01535179 0.00886570 -0.05066964
v 0.01666777 0.00596441 -0.05066964
v 0.01666777 0.00574319 -0.05067346
v 0.01666353 0.00550922 -0.05067727
v 0.01666777 0.00219528 -0.05070877
v 0.01666777 0.00057872 -0.05071163
v 0.01666777 0.00000017 -0.05071163
v 0.01645552 0.00000017 -0.05072022
v 0.04109842 0.00000017 -0.04298994
v 0.03967206 0.00522845 -0.04385077
v 0.03971027 0.01348139 -0.04254044
v 0.04123427 0.01400465 -0.04116330
v 0.01825545 0.03943562 -0.04116330
v 0.01666777 0.03966960 -0.04146011
v 0.01127647 0.04206891 -0.04116426
v 0.01085621 0.04051191 -0.04254044
v 0.00274803 0.04184344 -0.04254044
v -0.00000280 0.04175411 -0.04254044
v -0.00000280 0.01765040 -0.05066964
v -0.00000280 0.01998590 -0.05041864
v 0.00131743 0.02002844 -0.05041864
v 0.00519747 0.01939033 -0.05041864
v 0.00887798 0.01800349 -0.05041864
v 0.01221889 0.01592750 -0.05041864
v 0.01508859 0.01323465 -0.05041864
v 0.01666777 0.00962718 -0.05050835
v 0.01900683 0.00645363 -0.05041864
v 0.01678239 0.00570065 -0.05066964
v 0.01757623 0.00231865 -0.05066964
v 0.01764840 0.00000017 -0.05066964
v 0.03983762 0.00000017 -0.04385077
v 0.03778723 0.00498171 -0.04495019
v 0.03788062 0.01286455 -0.04385077
v 0.03465433 0.02001568 -0.04385077
v 0.03632266 0.02097285 -0.04254044
v 0.03771931 0.02177262 -0.04116330
v 0.01926578 0.03905275 -0.04116330
v 0.01855260 0.03761062 -0.04254044
v 0.01666777 0.03784884 -0.04284297
v 0.01035953 0.03864861 -0.04385077
v 0.00262068 0.03991633 -0.04385077
v -0.00000280 0.03983551 -0.04385077
v -0.00000280 0.04109472 -0.04299185
v -0.00000280 0.02136423 -0.05024400
v 0.00145752 0.02217251 -0.05014665
v 0.00575782 0.02147484 -0.05014665
v 0.01353063 0.01763764 -0.05014665
v 0.00982889 0.01993485 -0.05014665
v 0.01666777 0.01461724 -0.05015524
v 0.01666777 0.01103954 -0.05041864
v 0.01738520 0.01003983 -0.05041864
v 0.01990255 0.00262494 -0.05041864
v 0.02104873 0.00714705 -0.05014665
v 0.01998745 0.00000017 -0.05041864
v 0.01914268 0.00000017 -0.05050931
v 0.03794430 0.00000017 -0.04495019
v 0.03602550 0.00474348 -0.04590168
v 0.03439963 0.01168191 -0.04590168
v 0.03608069 0.01225196 -0.04495019
v 0.02865174 0.02512059 -0.04495019
v 0.03007810 0.02637555 -0.04385077
v 0.03152568 0.02764753 -0.04254044
v 0.03300298 0.01906276 -0.04495019
v 0.03336806 0.02783471 -0.04116330
v 0.02018273 0.03848696 -0.04116330
v 0.02553582 0.03327144 -0.04254044
v 0.02435992 0.03174422 -0.04385077
v 0.01769934 0.03587920 -0.04385077
v 0.01666777 0.03627058 -0.04385077
v 0.01666777 0.03424563 -0.04495019
v 0.00986710 0.03681085 -0.04494923
v 0.00249333 0.03801901 -0.04494923
v -0.00000280 0.03794244 -0.04494923
v -0.00000280 0.02212571 -0.05014665
v -0.00000280 0.02341045 -0.04995101
v 0.00158487 0.02416768 -0.04984317
v 0.00627148 0.02339769 -0.04984317
v 0.01071612 0.02172583 -0.04984317
v 0.01474898 0.01922442 -0.04984317
v 0.01666777 0.01742919 -0.04984412
v 0.01666777 0.01469806 -0.05014665
v 0.01671022 0.01465552 -0.05014665
v 0.01925305 0.01111612 -0.05014665
v 0.02203360 0.00290571 -0.05014665
v 0.02137136 0.00000017 -0.05024400
v 0.02098506 0.01212008 -0.04984412
v 0.02293781 0.00778941 -0.04984412
v 0.02401607 0.00316521 -0.04984412
v 0.03617408 0.00000017 -0.04590168
v 0.03448028 0.00000017 -0.04672624
v 0.03433595 0.00452652 -0.04672624
v 0.03278648 0.01113313 -0.04672624
v 0.02999744 0.01732284 -0.04672624
v 0.03146625 0.01816940 -0.04590168
v 0.02211850 0.02882591 -0.04590168
v 0.02320101 0.03023402 -0.04495019
v 0.02731453 0.02395072 -0.04590168
v 0.03273978 0.02870680 -0.04116330
v 0.02651220 0.03455192 -0.04116330
v 0.01685880 0.03417331 -0.04495019
v 0.01666777 0.03378619 -0.04518305
v 0.00237871 0.03624505 -0.04590168
v 0.00940862 0.03509219 -0.04590168
v -0.00000280 0.03617273 -0.04590168
v -0.00000280 0.02411663 -0.04984317
v -0.00000280 0.02533330 -0.04961889
v 0.00171223 0.02604373 -0.04949674
v 0.00675967 0.02521418 -0.04949674
v 0.01154816 0.02341045 -0.04949674
v 0.01589516 0.02071761 -0.04949674
v 0.01666777 0.01843741 -0.04970860
v 0.01821300 0.01597429 -0.04984412
v 0.02411795 0.00000017 -0.04984412
v 0.02212699 0.00000017 -0.05014665
v 0.02261094 0.01306024 -0.04949674
v 0.02471651 0.00839349 -0.04949674
v 0.01963086 0.01721649 -0.04949674
v 0.02588392 0.00341195 -0.04949674
v 0.02534055 0.00000017 -0.04961889
v 0.03282044 0.00000017 -0.04745060
v 0.03268035 0.00430531 -0.04745060
v 0.03120730 0.01059712 -0.04745060
v 0.02854985 0.01648904 -0.04745060
v 0.02478019 0.02173008 -0.04745060
v 0.02603675 0.02282764 -0.04672624
v 0.02109118 0.02747311 -0.04672624
v 0.01666777 0.03022125 -0.04672624
v 0.01666777 0.03220792 -0.04590168
v 0.01606921 0.03257802 -0.04590168
v 0.00226834 0.03455192 -0.04672529
v 0.01531783 0.03105506 -0.04672529
v 0.00896713 0.03345011 -0.04672529
v -0.00000280 0.03447960 -0.04672529
v -0.00000280 0.02598843 -0.04949674
v 0.00182684 0.02783045 -0.04909400
v 0.00722239 0.02694560 -0.04909400
v 0.01233775 0.02501424 -0.04909400
v 0.01699040 0.02212997 -0.04909400
v 0.01666777 0.01999866 -0.04949674
v 0.02416040 0.01395360 -0.04909400
v 0.02641032 0.00897205 -0.04909400
v 0.02097657 0.01839487 -0.04909400
v 0.02765838 0.00364592 -0.04909400
v 0.02715746 0.00000017 -0.04923429
v 0.02599429 0.00000017 -0.04949674
v 0.03116485 0.00000017 -0.04808047
v 0.03103325 0.00409261 -0.04808047
v 0.02963660 0.01006535 -0.04808047
v 0.02711076 0.01565523 -0.04808047
v 0.02353213 0.02063678 -0.04808047
v 0.02007236 0.02615434 -0.04745060
v 0.01457917 0.02955762 -0.04745060
v 0.01666777 0.02826437 -0.04745060
v 0.00853413 0.03183781 -0.04745060
v 0.00215796 0.03288432 -0.04745060
v -0.00000280 0.03390530 -0.04697628
v -0.00000280 0.02777090 -0.04909400
v 0.00194146 0.02954911 -0.04862445
v 0.00766813 0.02860895 -0.04862445
v 0.01310187 0.02655848 -0.04862445
v 0.01666777 0.02435060 -0.04862445
v 0.01803470 0.02349978 -0.04862445
v 0.02565468 0.01481718 -0.04862445
v 0.02804469 0.00952508 -0.04862445
v 0.02226708 0.01953071 -0.04862445
v 0.02936916 0.00387139 -0.04862445
v 0.02777724 0.00000017 -0.04909400
v 0.03058751 0.00000017 -0.04826848
v 0.01906202 0.02483132 -0.04808047
v 0.01666777 0.02735825 -0.04774454
v 0.00810537 0.03023402 -0.04808047
v 0.01384477 0.02806443 -0.04808047
v -0.00000280 0.03281625 -0.04745060
v 0.00205184 0.03122522 -0.04808047
v -0.00000280 0.03224620 -0.04766819
v -0.00000280 0.02888972 -0.04878765
v -0.00000280 0.03058285 -0.04826944
v -0.00000280 0.02948530 -0.04862445
v 0.01666777 0.02499297 -0.04844695
v 0.02949227 0.00000017 -0.04862445
v 0.02889795 0.00000017 -0.04878765
v 0.01666777 0.02631600 -0.04808047
v -0.00000280 0.03116141 -0.04808047
f 1 2 7
f 1 7 16
f 1 16 28
f 1 28 52
f 1 52 77
f 1 77 76
f 1 76 107
f 1 107 138
f 1 138 167
f 1 167 190
f 1 190 207
f 1 207 209
f 1 209 217
f 1 217 211
f 1 211 212
f 1 212 210
f 1 210 191
f 1 191 168
f 1 168 140
f 1 140 139
f 1 139 109
f 1 109 108
f 1 108 78
f 1 78 54
f 1 54 53
f 1 53 29
f 1 29 17
f 1 17 8
f 1 8 3
f 1 3 4
f 1 4 5
f 1 5 13
f 1 13 22
f 1 22 42
f 1 42 41
f 1 41 64
f 1 64 89
f 1 89 88
f 1 88 119
f 1 119 148
f 1 148 147
f 1 147 153
f 1 153 179
f 1 179 178
f 1 178 201
f 1 201 215
f 1 215 214
f 1 214 202
f 1 202 180
f 1 180 154
f 1 154 124
f 1 124 123
f 1 123 90
f 1 90 65
f 1 65 43
f 1 43 23
f 1 23 14
f 1 14 6
f 1 6 2
f 2 6 7
f 3 8 4
f 4 8 9
f 4 9 10
f 4 10 11
f 4 11 12
f 4 12 13
f 4 13 5
f 6 14 25
f 6 25 46
f 6 46 70
f 6 70 98
f 6 98 132
f 6 132 133
f 6 133 99
f 6 99 71
f 6 71 47
f 6 47 26
f 6 26 15
f 6 15 7
f 7 15 26
f 7 26 16
f 8 17 9
f 9 17 18
f 9 18 10
f 10 18 19
f 10 19 11
f 11 19 20
f 11 20 12
f 12 21 13
f 12 20 21
f 13 21 22
f 14 23 24
f 14 24 25
f 16 27 28
f 16 26 27
f 17 29 18
f 18 29 30
f 18 30 31
f 18 31 32
f 18 32 19
f 19 33 20
f 19 32 34
f 19 34 33
f 20 33 35
f 20 35 36
f 20 36 37
f 20 37 38
f 20 38 21
f 21 38 39
f 21 39 40
f 21 40 41
f 21 41 42
f 21 42 22
f 23 43 24
f 24 43 44
f 24 44 45
f 24 45 46
f 24 46 25
f 26 47 48
f 26 48 49
f 26 49 27
f 27 49 50
f 27 50 51
f 27 51 52
f 27 52 28
f 29 53 30
f 30 53 54
f 30 54 55
f 30 55 31
f 31 55 56
f 31 56 57
f 31 57 32
f 32 57 34
f 33 34 58
f 33 58 59
f 33 59 60
f 33 60 35
f 34 57 58
f 35 60 36
f 36 61 62
f 36 62 37
f 36 60 61
f 37 62 38
f 38 62 63
f 38 63 39
f 39 63 40
f 40 63 64
f 40 64 41
f 43 65 44
f 44 65 66
f 44 66 67
f 44 67 45
f 45 67 68
f 45 68 69
f 45 69 46
f 46 69 70
f 47 71 48
f 48 50 49
f 48 71 72
f 48 72 50
f 50 72 73
f 50 73 74
f 50 74 51
f 51 74 75
f 51 75 76
f 51 76 77
f 51 77 52
f 54 78 55
f 55 78 79
f 55 79 80
f 55 80 56
f 56 80 57
f 57 81 58
f 57 80 82
f 57 82 81
f 58 83 59
f 58 81 83
f 59 84 60
f 59 83 84
f 60 84 85
f 60 85 61
f 61 86 63
f 61 63 62
f 61 85 87
f 61 87 86
f 63 86 88
f 63 88 89
f 63 89 64
f 65 90 66
f 66 90 91
f 66 91 92
f 66 92 93
f 66 93 67
f 67 93 68
f 68 94 95
f 68 95 96
f 68 96 69
f 68 93 97
f 68 97 94
f 69 96 98
f 69 98 70
f 71 99 72
f 72 99 100
f 72 100 101
f 72 101 102
f 72 102 103
f 72 103 73
f 73 103 74
f 74 103 104
f 74 104 105
f 74 105 106
f 74 106 75
f 75 106 107
f 75 107 76
f 78 108 79
f 79 108 109
f 79 109 110
f 79 110 80
f 80 110 111
f 80 111 112
f 80 112 82
f 81 82 113
f 81 113 114
f 81 114 115
f 81 115 83
f 82 112 113
f 83 115 116
f 83 116 117
f 83 117 85
f 83 85 84
f 85 117 87
f 86 87 118
f 86 118 119
f 86 119 88
f 87 117 120
f 87 120 121
f 87 121 122
f 87 122 118
f 90 123 91
f 91 123 124
f 91 124 125
f 91 125 92
f 92 125 126
f 92 126 127
f 92 127 128
f 92 128 97
f 92 97 93
f 94 129 130
f 94 130 101
f 94 101 95
f 94 97 131
f 94 131 129
f 95 101 100
f 95 100 96
f 96 132 98
f 96 100 132
f 97 128 131
f 99 133 100
f 100 133 132
f 101 130 134
f 101 134 102
f 102 134 103
f 103 134 104
f 104 134 135
f 104 135 105
f 105 136 106
f 105 135 137
f 105 137 136
f 106 136 138
f 106 138 107
f 109 139 110
f 110 139 140
f 110 140 141
f 110 141 111
f 111 141 142
f 111 142 112
f 112 142 143
f 112 143 144
f 112 144 113
f 113 145 114
f 113 144 145
f 114 145 146
f 114 146 115
f 115 146 116
f 116 146 120
f 116 120 117
f 118 122 147
f 118 147 148
f 118 148 119
f 120 149 150
f 120 150 121
f 120 146 151
f 120 151 149
f 121 150 152
f 121 152 122
f 122 152 153
f 122 153 147
f 124 154 125
f 125 154 155
f 125 155 156
f 125 156 126
f 126 156 127
f 127 156 157
f 127 157 158
f 127 158 159
f 127 159 131
f 127 131 128
f 129 131 160
f 129 160 161
f 129 161 162
f 129 162 135
f 129 135 130
f 130 135 134
f 131 159 160
f 135 163 137
f 135 162 163
f 136 137 164
f 136 164 138
f 137 163 165
f 137 165 166
f 137 166 164
f 138 164 167
f 140 168 141
f 141 168 169
f 141 169 170
f 141 170 142
f 142 170 143
f 143 170 171
f 143 171 144
f 144 171 172
f 144 172 173
f 144 173 145
f 145 151 146
f 145 173 151
f 149 174 175
f 149 175 150
f 149 151 176
f 149 176 174
f 150 175 152
f 151 173 176
f 152 177 178
f 152 178 179
f 152 179 153
f 152 175 177
f 154 180 181
f 154 181 155
f 155 181 182
f 155 182 156
f 156 182 157
f 157 182 183
f 157 183 184
f 157 184 158
f 158 184 185
f 158 185 159
f 159 185 160
f 160 185 161
f 161 186 165
f 161 165 163
f 161 163 162
f 161 185 187
f 161 187 186
f 164 166 188
f 164 188 189
f 164 189 190
f 164 190 167
f 165 186 188
f 165 188 166
f 168 191 169
f 169 191 192
f 169 192 170
f 170 192 193
f 170 193 194
f 170 194 171
f 171 194 195
f 171 195 172
f 172 195 196
f 172 196 176
f 172 176 173
f 174 176 197
f 174 197 175
f 175 198 177
f 175 197 198
f 176 196 199
f 176 199 197
f 177 200 201
f 177 201 178
f 177 198 200
f 180 202 181
f 181 202 200
f 181 200 182
f 182 200 198
f 182 198 197
f 182 197 183
f 183 197 184
f 184 199 203
f 184 203 185
f 184 197 199
f 185 203 204
f 185 204 187
f 186 205 188
f 186 187 204
f 186 204 206
f 186 206 205
f 188 205 189
f 189 207 190
f 189 205 208
f 189 208 209
f 189 209 207
f 191 210 192
f 192 211 208
f 192 208 205
f 192 205 193
f 192 210 212
f 192 212 211
f 193 205 194
f 194 213 195
f 194 205 206
f 194 206 213
f 195 213 203
f 195 203 196
f 196 203 199
f 200 202 214
f 200 214 215
f 200 215 201
f 203 213 216
f 203 216 204
f 204 216 206
f 206 216 213
f 208 211 217
f 208 217 209

