# https://github.com/mikedh/trimesh
v -0.04294682 -0.00000801 -0.04151826
v -0.04175740 -0.00000801 -0.04254086
v -0.04277030 -0.00563568 -0.04151826
v -0.03984509 -0.00000801 -0.04151826
v -0.03983669 -0.00000801 -0.04385129
v -0.03967277 -0.00522709 -0.04385129
v -0.04158509 -0.00547983 -0.04254086
v -0.04150944 -0.01102326 -0.04151826
v -0.00001438 -0.00001643 -0.04894588
v -0.00002699 -0.00000801 -0.04894588
v -0.00001438 -0.03984827 -0.04151826
v -0.03794539 -0.00000801 -0.04494929
v -0.03778568 -0.00497856 -0.04494929
v -0.03608351 -0.01225326 -0.04494929
v -0.03788235 -0.01286405 -0.04385129
v -0.03971060 -0.01348326 -0.04254086
v -0.04084117 -0.01386659 -0.04151826
v -0.00001438 -0.00000801 -0.04966133
v -0.00001438 -0.04294855 -0.04151826
v -0.03733177 -0.00000801 -0.04527943
v -0.03602047 -0.00474688 -0.04590200
v -0.03439816 -0.01168038 -0.04590200
v -0.03146455 -0.01817159 -0.04590200
v -0.03300700 -0.01906039 -0.04494929
v -0.03465033 -0.02000817 -0.04385129
v -0.03632308 -0.02097279 -0.04254086
v -0.03963915 -0.01653299 -0.04151826
v -0.03736119 -0.02157095 -0.04151826
v -0.00001438 -0.00001643 -0.05091290
v -0.00002699 -0.00000801 -0.05091198
v -0.00282191 -0.04304121 -0.04151826
v -0.00001438 -0.04175645 -0.04254086
v -0.03617177 -0.00000801 -0.04590200
v -0.03433932 -0.00452363 -0.04672596
v -0.03278845 -0.01113278 -0.04672596
v -0.02999354 -0.01732070 -0.04672596
v -0.02731210 -0.02395092 -0.04590200
v -0.02864862 -0.02512194 -0.04494929
v -0.03007759 -0.02637722 -0.04385129
v -0.03152759 -0.02764935 -0.04254086
v -0.03242701 -0.02843705 -0.04151826
v -0.00001438 -0.01194576 -0.05085129
v -0.00079192 -0.01204686 -0.05085129
v -0.00534364 -0.01083371 -0.05085129
v -0.00907580 -0.00796511 -0.05085129
v -0.01143361 -0.00388757 -0.05085129
v -0.01194216 -0.00000801 -0.05085129
v -0.00274626 -0.04184070 -0.04254086
v -0.01116883 -0.04166800 -0.04151826
v -0.01085782 -0.04051381 -0.04254086
v -0.00001438 -0.04110354 -0.04299054
v -0.03447801 -0.00000801 -0.04672596
v -0.03390642 -0.00000801 -0.04697701
v -0.03281788 -0.00000801 -0.04745153
v -0.03267918 -0.00430459 -0.04745153
v -0.03120817 -0.01059781 -0.04745153
v -0.02855195 -0.01649087 -0.04745153
v -0.02603443 -0.02282622 -0.04672596
v -0.02108763 -0.02747664 -0.04672596
v -0.02212154 -0.02882459 -0.04590200
v -0.02320168 -0.03023572 -0.04494929
v -0.02436168 -0.03174373 -0.04385129
v -0.02553428 -0.03327281 -0.04254086
v -0.02626138 -0.03422059 -0.04151826
v -0.00001438 -0.01272925 -0.05083749
v -0.00376756 -0.01404772 -0.05080439
v -0.00885304 -0.01153716 -0.05080439
v -0.01259361 -0.00727428 -0.05080439
v -0.01441346 -0.00189934 -0.05080439
v -0.01274911 -0.00000801 -0.05083658
v -0.00262017 -0.03991988 -0.04385129
v -0.01643084 -0.03968398 -0.04151826
v -0.01643084 -0.03927539 -0.04184840
v -0.01855329 -0.03760730 -0.04254086
v -0.01643084 -0.03636045 -0.04385129
v -0.01035768 -0.03864775 -0.04385129
v -0.00001438 -0.03983984 -0.04385129
v -0.03116194 -0.00000801 -0.04808145
v -0.03103165 -0.00408976 -0.04808145
v -0.02963630 -0.01006706 -0.04808145
v -0.02711036 -0.01565262 -0.04808145
v -0.02353371 -0.02063581 -0.04808145
v -0.02478197 -0.02172680 -0.04745153
v -0.02007474 -0.02615397 -0.04745153
v -0.01531708 -0.03105712 -0.04672688
v -0.01643084 -0.03221552 -0.04596177
v -0.01643084 -0.03235874 -0.04590200
v -0.01643084 -0.03331072 -0.04546703
v -0.01685953 -0.03417425 -0.04494929
v -0.01770011 -0.03588025 -0.04385129
v -0.01908286 -0.03868145 -0.04151826
v -0.00001438 -0.01646138 -0.05072071
v -0.00116177 -0.01769139 -0.05066921
v -0.00459132 -0.01712693 -0.05066921
v -0.00784015 -0.01589693 -0.05066921
v -0.01332491 -0.01168881 -0.05066921
v -0.01079057 -0.01406456 -0.05066921
v -0.01535070 -0.00886654 -0.05066921
v -0.01643084 -0.00582945 -0.05068208
v -0.01643084 -0.00513442 -0.05069036
v -0.01643084 -0.00216472 -0.05071887
v -0.01643084 -0.00001643 -0.05072163
v -0.01643084 -0.00000801 -0.05072163
v -0.00986594 -0.03681538 -0.04495021
v -0.00249408 -0.03802433 -0.04495021
v -0.00001438 -0.03794429 -0.04495021
v -0.02949340 -0.00000801 -0.04862586
v -0.02936731 -0.00387072 -0.04862586
v -0.02804340 -0.00952367 -0.04862678
v -0.02565196 -0.01481436 -0.04862678
v -0.02226864 -0.01953218 -0.04862678
v -0.01906184 -0.02483129 -0.04808145
v -0.01643084 -0.02646568 -0.04808145
v -0.01384186 -0.02807058 -0.04808145
v -0.01457737 -0.02956175 -0.04745153
v -0.00853362 -0.03184062 -0.04745153
v -0.00896652 -0.03344973 -0.04672688
v -0.00940782 -0.03509675 -0.04590200
v -0.01606939 -0.03258199 -0.04590200
v -0.00001438 -0.01764926 -0.05066921
v -0.00001438 -0.01998289 -0.05042000
v -0.00131307 -0.02002502 -0.05042000
v -0.00519654 -0.01938896 -0.05042000
v -0.00887826 -0.01800310 -0.05042000
v -0.01643084 -0.00948997 -0.05053770
v -0.01509012 -0.01323895 -0.05042000
v -0.01221955 -0.01592642 -0.05042000
v -0.01643084 -0.00648236 -0.05067013
v -0.01678388 -0.00569887 -0.05067013
v -0.01757402 -0.00231636 -0.05067013
v -0.01764967 -0.00000801 -0.05067013
v -0.00237640 -0.03624672 -0.04590200
v -0.00001438 -0.03617511 -0.04590200
v -0.02777862 -0.00000801 -0.04909393
v -0.02766094 -0.00364746 -0.04909393
v -0.02641268 -0.00897185 -0.04909393
v -0.02415994 -0.01395504 -0.04909393
v -0.01803634 -0.02350020 -0.04862678
v -0.02097415 -0.01839485 -0.04909393
v -0.01310216 -0.02656256 -0.04862678
v -0.00767203 -0.02861397 -0.04862678
v -0.00810493 -0.03023572 -0.04808145
v -0.00215785 -0.03288949 -0.04745153
v -0.00226713 -0.03454915 -0.04672688
v -0.00001438 -0.02212276 -0.05014687
v -0.00145597 -0.02216910 -0.05014687
v -0.00575552 -0.02147406 -0.05014687
v -0.01353085 -0.01764084 -0.05014687
v -0.00982811 -0.01993656 -0.05014687
v -0.01738489 -0.01003757 -0.05041908
v -0.01900721 -0.00645288 -0.05041908
v -0.01643084 -0.01136867 -0.05042000
v -0.01643084 -0.01441419 -0.05019470
v -0.01990242 -0.00262387 -0.05041908
v -0.01998648 -0.00000801 -0.05041908
v -0.00001438 -0.03448175 -0.04672688
v -0.02715239 -0.00000801 -0.04923555
v -0.02588312 -0.00341157 -0.04949672
v -0.02471892 -0.00839476 -0.04949672
v -0.01963344 -0.01721539 -0.04949672
v -0.02260907 -0.01305782 -0.04949672
v -0.01698982 -0.02212697 -0.04909393
v -0.01643084 -0.02247660 -0.04909485
v -0.01643084 -0.02276725 -0.04902772
v -0.01643084 -0.02047574 -0.04945534
v -0.00722233 -0.02694589 -0.04909485
v -0.01233723 -0.02501242 -0.04909485
v -0.00182583 -0.02783047 -0.04909485
v -0.00193930 -0.02954911 -0.04862678
v -0.00204858 -0.03122561 -0.04808145
v -0.00001438 -0.03281788 -0.04745153
v -0.00001438 -0.03116665 -0.04808145
v -0.00001438 -0.02342016 -0.04995100
v -0.00158626 -0.02416996 -0.04984341
v -0.00627247 -0.02339910 -0.04984341
v -0.01643084 -0.01764926 -0.04984433
v -0.01821706 -0.01597697 -0.04984433
v -0.01643084 -0.01491967 -0.05014687
v -0.01474969 -0.01922468 -0.04984341
v -0.01071492 -0.02171838 -0.04984341
v -0.01925097 -0.01111593 -0.05014687
v -0.02104560 -0.00714791 -0.05014687
v -0.01671243 -0.01465429 -0.05014687
v -0.02203748 -0.00290188 -0.05014687
v -0.02212574 -0.00000801 -0.05014687
v -0.02599240 -0.00000801 -0.04949672
v -0.02402124 -0.00316726 -0.04984433
v -0.02293690 -0.00778819 -0.04984433
v -0.02098256 -0.01211847 -0.04984433
v -0.01589707 -0.02072005 -0.04949764
v -0.01643084 -0.02141509 -0.04929900
v -0.01154709 -0.02341174 -0.04949764
v -0.00676001 -0.02521883 -0.04949764
v -0.00170814 -0.02604866 -0.04949764
v -0.00001438 -0.02599390 -0.04949764
v -0.00001438 -0.02777150 -0.04909485
v -0.00001438 -0.02948592 -0.04862678
v -0.00001438 -0.02411941 -0.04984341
v -0.02411791 -0.00000801 -0.04984433
f 1 2 3
f 1 3 8
f 1 8 17
f 1 17 27
f 1 27 28
f 1 28 41
f 1 41 64
f 1 64 91
f 1 91 72
f 1 72 49
f 1 49 31
f 1 31 19
f 1 19 11
f 1 11 4
f 1 4 10
f 1 10 18
f 1 18 30
f 1 30 47
f 1 47 70
f 1 70 103
f 1 103 131
f 1 131 155
f 1 155 185
f 1 185 199
f 1 199 186
f 1 186 157
f 1 157 134
f 1 134 107
f 1 107 78
f 1 78 54
f 1 54 53
f 1 53 52
f 1 52 33
f 1 33 20
f 1 20 12
f 1 12 5
f 1 5 2
f 2 5 6
f 2 6 7
f 2 7 3
f 3 7 8
f 4 9 10
f 4 11 9
f 5 12 6
f 6 12 13
f 6 13 14
f 6 14 15
f 6 15 16
f 6 16 7
f 7 16 8
f 8 16 17
f 9 18 10
f 9 11 19
f 9 19 32
f 9 32 51
f 9 51 77
f 9 77 106
f 9 106 133
f 9 133 156
f 9 156 171
f 9 171 172
f 9 172 197
f 9 197 196
f 9 196 195
f 9 195 198
f 9 198 173
f 9 173 145
f 9 145 121
f 9 121 120
f 9 120 92
f 9 92 65
f 9 65 42
f 9 42 29
f 9 29 18
f 12 20 13
f 13 20 21
f 13 21 22
f 13 22 14
f 14 22 23
f 14 23 24
f 14 24 15
f 15 24 25
f 15 25 26
f 15 26 16
f 16 27 17
f 16 26 28
f 16 28 27
f 18 29 30
f 19 31 32
f 20 33 21
f 21 33 34
f 21 34 22
f 22 35 36
f 22 36 23
f 22 34 35
f 23 36 37
f 23 37 24
f 24 37 38
f 24 38 39
f 24 39 25
f 25 39 26
f 26 39 40
f 26 40 28
f 28 40 41
f 29 42 43
f 29 43 44
f 29 44 45
f 29 45 46
f 29 46 47
f 29 47 30
f 31 48 32
f 31 49 50
f 31 50 48
f 32 48 51
f 33 52 34
f 34 52 53
f 34 53 54
f 34 54 55
f 34 55 56
f 34 56 35
f 35 56 57
f 35 57 36
f 36 57 58
f 36 58 37
f 37 59 60
f 37 60 38
f 37 58 59
f 38 60 61
f 38 61 62
f 38 62 39
f 39 62 40
f 40 62 63
f 40 63 41
f 41 63 64
f 42 65 43
f 43 65 66
f 43 66 44
f 44 66 67
f 44 67 45
f 45 67 68
f 45 68 46
f 46 69 47
f 46 68 69
f 47 69 70
f 48 50 71
f 48 71 51
f 49 72 73
f 49 73 50
f 50 73 74
f 50 74 75
f 50 75 76
f 50 76 71
f 51 71 77
f 54 78 79
f 54 79 55
f 55 79 80
f 55 80 56
f 56 80 57
f 57 80 81
f 57 81 82
f 57 82 83
f 57 83 58
f 58 83 84
f 58 84 59
f 59 84 85
f 59 85 86
f 59 86 60
f 60 86 87
f 60 87 88
f 60 88 61
f 61 88 89
f 61 89 62
f 62 89 90
f 62 90 63
f 63 90 74
f 63 74 91
f 63 91 64
f 65 92 66
f 66 92 93
f 66 93 94
f 66 94 95
f 66 95 67
f 67 96 68
f 67 95 97
f 67 97 96
f 68 96 98
f 68 98 99
f 68 99 69
f 69 99 100
f 69 100 101
f 69 101 102
f 69 102 103
f 69 103 70
f 71 76 104
f 71 104 105
f 71 105 77
f 72 91 73
f 73 91 74
f 74 90 75
f 75 104 76
f 75 90 89
f 75 89 104
f 77 105 106
f 78 107 79
f 79 107 108
f 79 108 80
f 80 109 110
f 80 110 81
f 80 108 109
f 81 110 111
f 81 111 82
f 82 111 112
f 82 112 84
f 82 84 83
f 84 112 113
f 84 113 114
f 84 114 115
f 84 115 85
f 85 115 116
f 85 116 117
f 85 117 118
f 85 118 119
f 85 119 86
f 86 119 87
f 87 119 88
f 88 119 118
f 88 118 104
f 88 104 89
f 92 120 93
f 93 120 121
f 93 121 122
f 93 122 123
f 93 123 94
f 94 123 124
f 94 124 95
f 95 124 97
f 96 125 98
f 96 97 126
f 96 126 125
f 97 124 127
f 97 127 126
f 98 125 128
f 98 128 99
f 99 129 100
f 99 128 129
f 100 129 130
f 100 130 101
f 101 130 131
f 101 131 102
f 102 131 103
f 104 118 105
f 105 118 132
f 105 132 133
f 105 133 106
f 107 134 135
f 107 135 108
f 108 135 109
f 109 136 110
f 109 135 136
f 110 136 137
f 110 137 111
f 111 138 112
f 111 137 139
f 111 139 138
f 112 138 113
f 113 140 114
f 113 138 140
f 114 140 141
f 114 141 142
f 114 142 115
f 115 142 116
f 116 142 143
f 116 143 117
f 117 143 144
f 117 144 118
f 118 144 132
f 121 145 122
f 122 145 146
f 122 146 147
f 122 147 123
f 123 147 124
f 124 148 127
f 124 147 149
f 124 149 148
f 125 150 151
f 125 151 129
f 125 129 128
f 125 126 152
f 125 152 150
f 126 127 153
f 126 153 152
f 127 148 153
f 129 151 154
f 129 154 130
f 130 154 131
f 131 154 155
f 132 144 156
f 132 156 133
f 134 157 135
f 135 157 158
f 135 158 159
f 135 159 136
f 136 159 137
f 137 160 139
f 137 159 161
f 137 161 160
f 138 139 162
f 138 162 163
f 138 163 164
f 138 164 140
f 139 160 165
f 139 165 162
f 140 166 141
f 140 164 167
f 140 167 166
f 141 166 168
f 141 168 169
f 141 169 170
f 141 170 142
f 142 170 143
f 143 171 156
f 143 156 144
f 143 170 172
f 143 172 171
f 145 173 146
f 146 173 174
f 146 174 147
f 147 174 175
f 147 175 149
f 148 176 177
f 148 177 178
f 148 178 153
f 148 149 179
f 148 179 176
f 149 175 180
f 149 180 179
f 150 152 181
f 150 181 151
f 151 181 182
f 151 182 154
f 152 153 181
f 153 178 183
f 153 183 181
f 154 182 184
f 154 184 155
f 155 184 185
f 157 186 158
f 158 186 187
f 158 187 159
f 159 188 189
f 159 189 161
f 159 187 188
f 160 161 189
f 160 189 177
f 160 177 190
f 160 190 165
f 162 165 190
f 162 190 191
f 162 191 163
f 163 191 190
f 163 190 167
f 163 167 164
f 166 167 192
f 166 192 193
f 166 193 194
f 166 194 168
f 167 190 192
f 168 194 195
f 168 195 196
f 168 196 169
f 169 172 170
f 169 196 197
f 169 197 172
f 173 198 174
f 174 198 194
f 174 194 193
f 174 193 175
f 175 192 180
f 175 193 192
f 176 179 190
f 176 190 177
f 177 183 178
f 177 189 181
f 177 181 183
f 179 180 192
f 179 192 190
f 181 189 182
f 182 189 188
f 182 188 187
f 182 187 184
f 184 187 199
f 184 199 185
f 186 199 187
f 194 198 195

