# https://github.com/mikedh/trimesh
v -0.00001819 -0.04100763 0.05091300
v -0.02692168 -0.03094223 0.05091300
v -0.00269445 -0.04109244 0.05091300
v -0.00271729 -0.04145199 0.05086642
v -0.00001819 -0.04136533 0.05086642
v -0.00001819 -0.04009309 0.05075997
v -0.02744703 -0.03094223 0.05086642
v -0.02507151 -0.03267911 0.05091300
v -0.02558545 -0.03094223 0.05075997
v -0.01066233 -0.03978702 0.05091300
v -0.01075750 -0.04013366 0.05086642
v -0.01079557 -0.04028854 0.05057369
v -0.00272871 -0.04161055 0.05057369
v -0.00001819 -0.04147227 0.05067349
v -0.00001819 -0.03976121 0.05062692
v -0.02529231 -0.03296306 0.05086642
v -0.02767925 -0.03094223 0.05057369
v -0.01821525 -0.03693648 0.05091300
v -0.02517049 -0.03094223 0.05064687
v -0.01837515 -0.03725730 0.05086642
v -0.01844748 -0.03740112 0.05057369
v -0.01877868 -0.03807596 0.04545746
v -0.01099353 -0.04101316 0.04545746
v -0.01085268 -0.04049873 0.04909005
v -0.00277820 -0.04236099 0.04545746
v -0.00274394 -0.04182813 0.04909005
v -0.00001819 -0.04166956 0.04958903
v -0.00001819 -0.04152390 0.05057369
v -0.02509816 -0.03094223 0.05062692
v -0.00001819 -0.03968008 0.05037410
v -0.02538749 -0.03309028 0.05057369
v -0.02833785 -0.03094223 0.04749331
v -0.02552073 -0.03326360 0.04909005
v -0.02584432 -0.03368768 0.04545746
v -0.02627450 -0.03424267 0.04066058
v -0.01908704 -0.03870470 0.04066058
v -0.01117246 -0.04168984 0.04066058
v -0.00282389 -0.04305979 0.04066058
v -0.00001819 -0.04209548 0.04667498
v -0.00001819 -0.04297129 0.04066058
v -0.00001819 -0.04273712 0.04227063
v -0.02499538 -0.03094223 0.05040736
v -0.02498015 -0.03094223 0.05037410
v -0.00001819 -0.04782053 -0.01705502
v -0.03662170 -0.03094223 -0.01705502
v -0.02877184 -0.03094223 0.04545746
v -0.02978829 -0.03094223 0.04066058
v -0.03083899 -0.03094223 0.03569072
v -0.02671230 -0.03481425 0.03569072
v -0.01940682 -0.03935003 0.03569072
v -0.02930481 -0.03094223 0.04294259
v -0.01135900 -0.04238680 0.03569072
v -0.00286957 -0.04377888 0.03569072
v -0.00001819 -0.04368853 0.03569072
v -0.00001819 -0.04967356 -0.01705502
v -0.03890585 -0.03094223 -0.01705502
v -0.03158515 -0.03094223 0.03209805
v -0.02715009 -0.03538583 0.03066763
v -0.01972279 -0.03999537 0.03066763
v -0.01154553 -0.04308192 0.03066763
v -0.00291906 -0.04449797 0.03066763
v -0.00001819 -0.04416424 0.03235086
v -0.00001819 -0.04966065 -0.01661592
v -0.00326549 -0.04977866 -0.01705502
v -0.03750491 -0.03289299 -0.01705502
v -0.03746684 -0.03285980 -0.01547824
v -0.03884114 -0.03094223 -0.01547824
v -0.03188209 -0.03094223 0.03066763
v -0.02757646 -0.03594082 0.02569777
v -0.02003115 -0.04062042 0.02569777
v -0.01172827 -0.04375676 0.02569777
v -0.00001819 -0.04440393 0.03066763
v -0.00296474 -0.04519493 0.02569777
v -0.00001819 -0.04510090 0.02569777
v -0.00001819 -0.04486673 0.02736770
v -0.00001819 -0.04962378 -0.01547824
v -0.01291603 -0.04819298 -0.01705502
v -0.00326168 -0.04972519 -0.01547824
v -0.01290080 -0.04814319 -0.01547824
v -0.03695291 -0.03341110 -0.01705502
v -0.03034029 -0.03954364 -0.01547824
v -0.03027176 -0.03945144 -0.01330933
v -0.03737547 -0.03278236 -0.01330933
v -0.03869647 -0.03094223 -0.01330933
v -0.03880687 -0.03094223 -0.01495930
v -0.03037074 -0.03958604 -0.01705502
v -0.03270058 -0.03094223 0.02666912
v -0.03289854 -0.03094223 0.02569777
v -0.03376652 -0.03094223 0.02135995
v -0.03387692 -0.03094223 0.02080774
v -0.02798381 -0.03647368 0.02080774
v -0.02032809 -0.04122335 0.02080774
v -0.01189958 -0.04440578 0.02080774
v -0.00300662 -0.04586424 0.02080774
v -0.00001819 -0.04554526 0.02244441
v -0.00001819 -0.04950762 -0.01330933
v -0.00325407 -0.04961087 -0.01330933
v -0.02206405 -0.04473951 -0.01705502
v -0.02203740 -0.04469342 -0.01547824
v -0.01287034 -0.04803072 -0.01330933
v -0.02198791 -0.04458832 -0.01330933
v -0.02270742 -0.04434124 -0.01705502
v -0.02188132 -0.04437259 -0.01002270
v -0.03012329 -0.03925969 -0.01002270
v -0.03719655 -0.03262195 -0.01002270
v -0.03839953 -0.03094223 -0.01002270
v -0.03480961 -0.03094223 0.01601086
v -0.02837592 -0.03698073 0.01601086
v -0.02060981 -0.04179678 0.01601086
v -0.01206708 -0.04502346 0.01601086
v -0.00304849 -0.04650220 0.01601086
v -0.00001819 -0.04640632 0.01601086
v -0.00001819 -0.04576836 0.02080774
v -0.00001819 -0.04926608 -0.01002270
v -0.00323884 -0.04936749 -0.01002270
v -0.01280943 -0.04779656 -0.01002270
v -0.01272187 -0.04747205 -0.00608407
v -0.02173285 -0.04407020 -0.00608407
v -0.02991772 -0.03899233 -0.00608407
v -0.03694148 -0.03240069 -0.00608407
v -0.03831578 -0.03094223 -0.00919772
v -0.03528167 -0.03094223 0.01348269
v -0.03549105 -0.03112662 0.01132043
v -0.02874138 -0.03745828 0.01132043
v -0.02087629 -0.04233702 0.01132043
v -0.01222317 -0.04560426 0.01132043
v -0.00309037 -0.04710328 0.01132043
v -0.00001819 -0.04680643 0.01289056
v -0.00001819 -0.04893050 -0.00608407
v -0.00321600 -0.04903191 -0.00608407
v -0.00318935 -0.04863365 -0.00196580
v -0.01261909 -0.04708485 -0.00196580
v -0.02155392 -0.04371066 -0.00196580
v -0.02967408 -0.03867520 -0.00196580
v -0.03664074 -0.03213518 -0.00196580
v -0.03790083 -0.03094223 -0.00533227
v -0.03798838 -0.03094223 -0.00608407
v -0.03560525 -0.03094223 0.01142688
v -0.03630954 -0.03094223 0.00674975
v -0.03590981 -0.03149538 0.00674975
v -0.02908020 -0.03790448 0.00674975
v -0.02112374 -0.04284038 0.00674975
v -0.01236783 -0.04614634 0.00674975
v -0.00312463 -0.04766380 0.00674975
v -0.00001819 -0.04700556 0.01132043
v -0.00001819 -0.04737801 0.00827996
v -0.00001819 -0.04879775 -0.00470688
v -0.00315889 -0.04817454 0.00231214
v -0.01250107 -0.04664233 0.00231214
v -0.00001819 -0.04853224 -0.00196580
v -0.00001819 -0.04807497 0.00231214
v -0.02135216 -0.04329949 0.00231214
v -0.02939236 -0.03831012 0.00231214
v -0.03629431 -0.03183464 0.00231214
v -0.03749729 -0.03094223 -0.00196580
v -0.03741354 -0.03094223 -0.00132710
v -0.03686534 -0.03094223 0.00281112
v -0.00001819 -0.04790350 0.00380243
v -0.00001819 -0.04756424 0.00674975
v -0.03693387 -0.03094223 0.00231214
f 1 2 8
f 1 8 18
f 1 18 10
f 1 10 3
f 1 3 4
f 1 4 5
f 1 5 14
f 1 14 28
f 1 28 27
f 1 27 39
f 1 39 41
f 1 41 40
f 1 40 54
f 1 54 62
f 1 62 72
f 1 72 75
f 1 75 74
f 1 74 95
f 1 95 113
f 1 113 112
f 1 112 128
f 1 128 145
f 1 145 146
f 1 146 159
f 1 159 158
f 1 158 151
f 1 151 150
f 1 150 147
f 1 147 129
f 1 129 114
f 1 114 96
f 1 96 76
f 1 76 63
f 1 63 55
f 1 55 44
f 1 44 30
f 1 30 15
f 1 15 6
f 1 6 2
f 2 7 8
f 2 6 9
f 2 9 19
f 2 19 29
f 2 29 42
f 2 42 43
f 2 43 45
f 2 45 56
f 2 56 67
f 2 67 85
f 2 85 84
f 2 84 106
f 2 106 121
f 2 121 137
f 2 137 136
f 2 136 155
f 2 155 156
f 2 156 160
f 2 160 157
f 2 157 139
f 2 139 138
f 2 138 122
f 2 122 107
f 2 107 90
f 2 90 89
f 2 89 88
f 2 88 87
f 2 87 68
f 2 68 57
f 2 57 48
f 2 48 47
f 2 47 51
f 2 51 46
f 2 46 32
f 2 32 17
f 2 17 7
f 3 10 4
f 4 10 11
f 4 11 12
f 4 12 13
f 4 13 14
f 4 14 5
f 6 15 9
f 7 16 8
f 7 17 16
f 8 16 18
f 9 15 19
f 10 18 11
f 11 18 20
f 11 20 21
f 11 21 12
f 12 21 22
f 12 22 23
f 12 23 24
f 12 24 25
f 12 25 26
f 12 26 13
f 13 26 25
f 13 25 27
f 13 27 28
f 13 28 14
f 15 29 19
f 15 30 29
f 16 21 20
f 16 20 18
f 16 17 31
f 16 31 21
f 17 32 33
f 17 33 31
f 21 31 33
f 21 33 22
f 22 33 34
f 22 34 35
f 22 35 36
f 22 36 23
f 23 25 24
f 23 36 37
f 23 37 38
f 23 38 25
f 25 39 27
f 25 38 40
f 25 40 41
f 25 41 39
f 29 30 42
f 30 43 42
f 30 44 45
f 30 45 43
f 32 46 34
f 32 34 33
f 34 46 35
f 35 47 48
f 35 48 49
f 35 49 50
f 35 50 36
f 35 46 51
f 35 51 47
f 36 50 52
f 36 52 37
f 37 52 38
f 38 52 53
f 38 53 40
f 40 53 54
f 44 55 64
f 44 64 77
f 44 77 98
f 44 98 102
f 44 102 86
f 44 86 80
f 44 80 65
f 44 65 56
f 44 56 45
f 48 57 58
f 48 58 49
f 49 58 50
f 50 58 59
f 50 59 60
f 50 60 52
f 52 60 61
f 52 61 53
f 53 61 54
f 54 61 62
f 55 63 64
f 56 65 66
f 56 66 67
f 57 68 58
f 58 68 69
f 58 69 59
f 59 69 70
f 59 70 71
f 59 71 60
f 60 71 61
f 61 72 62
f 61 71 73
f 61 73 74
f 61 74 75
f 61 75 72
f 63 76 64
f 64 76 78
f 64 78 79
f 64 79 77
f 65 80 66
f 66 81 82
f 66 82 83
f 66 83 84
f 66 84 85
f 66 85 67
f 66 80 86
f 66 86 81
f 68 87 69
f 69 87 88
f 69 88 89
f 69 89 90
f 69 90 91
f 69 91 92
f 69 92 70
f 70 92 71
f 71 92 93
f 71 93 73
f 73 93 94
f 73 94 74
f 74 94 95
f 76 96 97
f 76 97 78
f 77 79 98
f 78 97 79
f 79 99 98
f 79 97 100
f 79 100 101
f 79 101 99
f 81 99 82
f 81 86 102
f 81 102 99
f 82 101 103
f 82 103 104
f 82 104 105
f 82 105 83
f 82 99 101
f 83 105 84
f 84 105 106
f 90 107 91
f 91 107 108
f 91 108 92
f 92 108 109
f 92 109 110
f 92 110 93
f 93 110 94
f 94 110 111
f 94 111 112
f 94 112 113
f 94 113 95
f 96 114 97
f 97 114 115
f 97 115 116
f 97 116 100
f 98 99 102
f 100 116 103
f 100 103 101
f 103 116 117
f 103 117 118
f 103 118 104
f 104 118 119
f 104 119 105
f 105 119 120
f 105 120 121
f 105 121 106
f 107 122 123
f 107 123 108
f 108 123 124
f 108 124 125
f 108 125 109
f 109 125 110
f 110 125 126
f 110 126 127
f 110 127 111
f 111 127 128
f 111 128 112
f 114 129 130
f 114 130 115
f 115 130 117
f 115 117 116
f 117 130 131
f 117 131 132
f 117 132 118
f 118 132 133
f 118 133 134
f 118 134 119
f 119 134 120
f 120 134 135
f 120 135 136
f 120 136 137
f 120 137 121
f 122 138 123
f 123 138 139
f 123 139 140
f 123 140 141
f 123 141 124
f 124 141 142
f 124 142 125
f 125 142 126
f 126 142 143
f 126 143 144
f 126 144 127
f 127 145 128
f 127 144 146
f 127 146 145
f 129 147 130
f 130 147 131
f 131 148 149
f 131 149 132
f 131 147 150
f 131 150 151
f 131 151 148
f 132 149 133
f 133 149 152
f 133 152 134
f 134 152 153
f 134 153 154
f 134 154 135
f 135 155 136
f 135 154 156
f 135 156 155
f 139 157 154
f 139 154 140
f 140 154 141
f 141 154 153
f 141 153 152
f 141 152 142
f 142 152 149
f 142 149 143
f 143 149 144
f 144 149 148
f 144 148 151
f 144 151 158
f 144 158 159
f 144 159 146
f 154 157 160
f 154 160 156

