# https://github.com/mikedh/trimesh
v -0.00000280 0.04959881 -0.01506174
v -0.00000280 0.04774320 -0.01506174
v -0.00000280 0.04962126 -0.01548354
v -0.00000664 0.04960068 -0.01505347
v -0.00000664 0.04950528 -0.01330836
v -0.00000664 0.04942484 -0.01220010
v -0.00000664 0.04926398 -0.01001666
v -0.00000664 0.04892915 -0.00607984
v -0.00000664 0.04853071 -0.00196107
v -0.00000664 0.04807430 0.00232311
v -0.00000664 0.04756176 0.00674789
v -0.00000664 0.04737470 0.00829449
v -0.00000664 0.04700433 0.01131327
v -0.00000664 0.04640575 0.01601098
v -0.00000664 0.04576788 0.02079967
v -0.00000664 0.04554155 0.02245380
v -0.00000664 0.04509822 0.02568761
v -0.00000664 0.04486440 0.02736655
v -0.00000664 0.04440237 0.03066652
v -0.00000664 0.04368781 0.03568679
v -0.00000664 0.04296951 0.04065743
v -0.00000664 0.04209408 0.04667844
v -0.00000664 0.04152356 0.05057390
v -0.00000664 0.04147119 0.05067315
v -0.00000664 0.04136456 0.05085510
v -0.00000664 0.04124485 0.05087992
v -0.00000664 0.04100542 0.05091300
v -0.00000280 0.04616444 -0.03357965
v -0.00000664 0.04009445 0.05075586
v -0.00000664 0.03976149 0.05061526
v -0.00000664 0.03968105 0.05037541
v -0.00000280 0.04967737 -0.01718728
v -0.00651936 0.04947161 -0.01718728
v -0.00651168 0.04941549 -0.01548354
v -0.00650785 0.04939305 -0.01505347
v -0.00649633 0.04929952 -0.01330836
v -0.00646563 0.04905822 -0.01001666
v -0.00641958 0.04872525 -0.00607984
v -0.00636969 0.04832869 -0.00196107
v -0.00630828 0.04787414 0.00232311
v -0.00624304 0.04736535 0.00674789
v -0.00616629 0.04680979 0.01131327
v -0.00608953 0.04621308 0.01601098
v -0.00591683 0.04491116 0.02568761
v -0.00600510 0.04557708 0.02079967
v -0.00582856 0.04421718 0.03066652
v -0.00573262 0.04350637 0.03568679
v -0.00554840 0.04209596 0.04545439
v -0.00564051 0.04278994 0.04065743
v -0.00547932 0.04156659 0.04908519
v -0.00544862 0.04134960 0.05057390
v -0.00542943 0.04119247 0.05085510
v -0.00537954 0.04083519 0.05091300
v -0.02743145 0.03066304 0.05091300
v -0.03208285 0.03324255 -0.03357965
v -0.00000280 0.04812480 -0.03357965
v -0.02599996 0.03066304 0.05075586
v -0.02542813 0.03066304 0.05061526
v -0.02540894 0.03066304 0.05058217
v -0.02528997 0.03066304 0.05037541
v -0.00000280 0.04973723 -0.01907299
v -0.00652320 0.04953147 -0.01907299
v -0.01602556 0.04718764 -0.01548354
v -0.01606010 0.04729801 -0.01907299
v -0.01601788 0.04716707 -0.01506174
v -0.01590658 0.04684907 -0.01001666
v -0.01598334 0.04707728 -0.01330836
v -0.01579913 0.04652920 -0.00607984
v -0.01566864 0.04614948 -0.00196107
v -0.01552281 0.04571551 0.00232311
v -0.01535778 0.04523103 0.00674789
v -0.01517740 0.04469979 0.01131327
v -0.01498552 0.04412926 0.01601098
v -0.01477828 0.04352320 0.02079967
v -0.01456336 0.04288721 0.02568761
v -0.01433693 0.04222503 0.03066652
v -0.01387640 0.04086138 0.04065743
v -0.01410666 0.04154227 0.03568679
v -0.01364997 0.04020107 0.04545439
v -0.01340819 0.03949025 0.05057390
v -0.01335830 0.03933874 0.05085510
v -0.01324316 0.03899643 0.05091300
v -0.02714746 0.03096420 0.05091300
v -0.02787664 0.03066304 0.05086337
v -0.03476930 0.03324255 -0.03357965
v -0.03666517 0.03066304 -0.01505347
v -0.00635817 0.04826322 -0.03259545
v -0.00000280 0.04846337 -0.03259545
v -0.00631596 0.04792465 -0.03357965
v -0.00000280 0.04975968 -0.02042937
v -0.00000280 0.04977090 -0.02111583
v -0.00652704 0.04956327 -0.02111583
v -0.01607161 0.04732981 -0.02111583
v -0.02494841 0.04321269 -0.01718728
v -0.02491771 0.04316218 -0.01548354
v -0.02490619 0.04314535 -0.01505347
v -0.02497527 0.04326506 -0.01907299
v -0.02486014 0.04306304 -0.01330836
v -0.02473733 0.04285354 -0.01001666
v -0.02436890 0.04221380 -0.00196107
v -0.02456847 0.04255986 -0.00607984
v -0.02413863 0.04181724 0.00232311
v -0.02388534 0.04137392 0.00674789
v -0.02360518 0.04088757 0.01131327
v -0.02330200 0.04036568 0.01601098
v -0.02298346 0.03981573 0.02079967
v -0.02264574 0.03923212 0.02568761
v -0.02229650 0.03862792 0.03066652
v -0.02193575 0.03800502 0.03568679
v -0.02157883 0.03738025 0.04065743
v -0.02122575 0.03677419 0.04545439
v -0.02084965 0.03612323 0.05057390
v -0.02077290 0.03598481 0.05085510
v -0.02059252 0.03567242 0.05091300
v -0.02738540 0.03123357 0.05085510
v -0.02792269 0.03066304 0.05085510
v -0.03920962 0.03066304 -0.01505347
v -0.03523367 0.03324255 -0.03259545
v -0.03186410 0.03633835 -0.03357965
v -0.01564562 0.04608775 -0.03259545
v -0.00643493 0.04883000 -0.03025486
v -0.00000280 0.04884310 -0.03104057
v -0.01553816 0.04576414 -0.03357965
v -0.00000280 0.04975032 -0.02329100
v -0.00652704 0.04954456 -0.02329100
v -0.02499446 0.04329312 -0.02111583
v -0.01606393 0.04730923 -0.02329100
v -0.02498295 0.04327628 -0.02329100
v -0.03289262 0.03750932 -0.01718728
v -0.03285425 0.03746817 -0.01548354
v -0.03293100 0.03755609 -0.01907299
v -0.03129227 0.03856245 -0.01505347
v -0.03277749 0.03738025 -0.01330836
v -0.03261630 0.03719881 -0.01001666
v -0.03239371 0.03694441 -0.00607984
v -0.03212890 0.03664512 -0.00196107
v -0.03182956 0.03629906 0.00232311
v -0.03149183 0.03591373 0.00674789
v -0.03111957 0.03549285 0.01131327
v -0.03072428 0.03503830 0.01601098
v -0.03030212 0.03455943 0.02079967
v -0.02985694 0.03405438 0.02568761
v -0.02939640 0.03352875 0.03066652
v -0.02892435 0.03298816 0.03568679
v -0.02844847 0.03244569 0.04065743
v -0.02798793 0.03191819 0.04545439
v -0.02749286 0.03135515 0.05057390
v -0.02814144 0.03066304 0.05057390
v -0.03908681 0.03066304 -0.01339934
v -0.03680333 0.03324255 -0.01522715
v -0.03681868 0.03324255 -0.01548354
v -0.03685322 0.03324255 -0.01617000
v -0.03697987 0.03324255 -0.01907299
v -0.03702592 0.03324255 -0.02111583
v -0.03701057 0.03324255 -0.02243913
v -0.03699522 0.03324255 -0.02329100
v -0.03684938 0.03324255 -0.02556542
v -0.03653852 0.03324255 -0.02789774
v -0.03601658 0.03324255 -0.03025486
v -0.03208669 0.03659461 -0.03259545
v -0.02859814 0.03868404 -0.03357965
v -0.02433820 0.04215769 -0.03259545
v -0.01583367 0.04662835 -0.03025486
v -0.00000280 0.04903390 -0.03025486
v -0.01595648 0.04698937 -0.02789774
v -0.00648098 0.04920786 -0.02789774
v -0.00000280 0.04941549 -0.02789774
v -0.02416550 0.04186213 -0.03357965
v -0.00000280 0.04964183 -0.02556542
v -0.00651168 0.04943607 -0.02556542
v -0.01602939 0.04720635 -0.02556542
v -0.03295403 0.03758041 -0.02111583
v -0.02492922 0.04318276 -0.02556542
v -0.03293868 0.03756544 -0.02329100
v -0.03414374 0.03606524 -0.01506174
v -0.03283890 0.03745134 -0.01505347
v -0.03907913 0.03066304 -0.01330836
v -0.03874909 0.03066304 -0.01001666
v -0.03833844 0.03066304 -0.00647683
v -0.03828855 0.03066304 -0.00607984
v -0.03774358 0.03066304 -0.00196107
v -0.03711802 0.03066304 0.00232311
v -0.03641571 0.03066304 0.00674789
v -0.03565199 0.03066304 0.01131327
v -0.03509551 0.03066304 0.01449746
v -0.03483070 0.03066304 0.01601098
v -0.03428958 0.03066304 0.01898014
v -0.03395569 0.03066304 0.02079967
v -0.03344527 0.03066304 0.02353725
v -0.03303846 0.03066304 0.02568761
v -0.03208669 0.03066304 0.03066652
v -0.03110422 0.03066304 0.03568679
v -0.03012174 0.03066304 0.04065743
v -0.02902414 0.03066304 0.04616566
v -0.03286576 0.03748500 -0.02556542
v -0.03271608 0.03731291 -0.02789774
v -0.03246279 0.03702485 -0.03025486
v -0.02462220 0.04265339 -0.03025486
v -0.02481409 0.04298448 -0.02789774
f 1 2 28
f 1 28 56
f 1 56 88
f 1 88 122
f 1 122 164
f 1 164 167
f 1 167 169
f 1 169 124
f 1 124 91
f 1 91 90
f 1 90 61
f 1 61 32
f 1 32 3
f 1 3 4
f 1 4 5
f 1 5 6
f 1 6 7
f 1 7 8
f 1 8 9
f 1 9 10
f 1 10 11
f 1 11 12
f 1 12 13
f 1 13 14
f 1 14 15
f 1 15 16
f 1 16 17
f 1 17 18
f 1 18 19
f 1 19 20
f 1 20 21
f 1 21 22
f 1 22 23
f 1 23 24
f 1 24 25
f 1 25 26
f 1 26 27
f 1 27 2
f 2 27 29
f 2 29 30
f 2 30 31
f 2 31 28
f 3 32 33
f 3 33 34
f 3 34 4
f 4 35 36
f 4 36 5
f 4 34 35
f 5 36 6
f 6 36 37
f 6 37 7
f 7 37 38
f 7 38 8
f 8 38 39
f 8 39 9
f 9 39 10
f 10 40 41
f 10 41 11
f 10 39 40
f 11 41 12
f 12 41 42
f 12 42 13
f 13 42 14
f 14 42 43
f 14 43 15
f 15 44 16
f 15 43 45
f 15 45 44
f 16 44 17
f 17 44 18
f 18 44 46
f 18 46 19
f 19 46 47
f 19 47 20
f 20 47 21
f 21 48 22
f 21 47 49
f 21 49 48
f 22 48 50
f 22 50 51
f 22 51 23
f 23 51 24
f 24 51 52
f 24 52 25
f 25 52 26
f 26 52 53
f 26 53 27
f 27 53 82
f 27 82 114
f 27 114 83
f 27 83 54
f 27 54 29
f 28 55 85
f 28 85 119
f 28 119 161
f 28 161 168
f 28 168 123
f 28 123 89
f 28 89 56
f 28 31 55
f 29 57 30
f 29 54 57
f 30 57 58
f 30 58 31
f 31 58 59
f 31 59 60
f 31 60 55
f 32 61 62
f 32 62 33
f 33 63 34
f 33 62 64
f 33 64 63
f 34 63 65
f 34 65 35
f 35 65 36
f 36 66 37
f 36 65 67
f 36 67 66
f 37 66 38
f 38 66 68
f 38 68 39
f 39 68 69
f 39 69 70
f 39 70 40
f 40 71 41
f 40 70 71
f 41 71 72
f 41 72 42
f 42 72 43
f 43 73 74
f 43 74 45
f 43 72 73
f 44 45 75
f 44 75 46
f 45 74 75
f 46 75 76
f 46 76 47
f 47 77 49
f 47 76 78
f 47 78 77
f 48 49 79
f 48 79 80
f 48 80 50
f 49 77 79
f 50 80 51
f 51 80 52
f 52 80 81
f 52 81 53
f 53 81 82
f 54 83 84
f 54 84 116
f 54 116 148
f 54 148 194
f 54 194 193
f 54 193 192
f 54 192 191
f 54 191 190
f 54 190 189
f 54 189 188
f 54 188 187
f 54 187 186
f 54 186 185
f 54 185 184
f 54 184 183
f 54 183 182
f 54 182 181
f 54 181 180
f 54 180 179
f 54 179 178
f 54 178 177
f 54 177 149
f 54 149 117
f 54 117 86
f 54 86 60
f 54 60 59
f 54 59 58
f 54 58 57
f 55 60 86
f 55 86 117
f 55 117 85
f 56 87 88
f 56 89 87
f 61 90 62
f 62 90 91
f 62 91 92
f 62 92 93
f 62 93 64
f 63 94 95
f 63 95 96
f 63 96 65
f 63 64 94
f 64 97 94
f 64 93 97
f 65 96 98
f 65 98 67
f 66 67 98
f 66 98 99
f 66 99 68
f 68 100 69
f 68 99 101
f 68 101 100
f 69 100 70
f 70 100 102
f 70 102 103
f 70 103 71
f 71 103 72
f 72 104 73
f 72 103 104
f 73 105 106
f 73 106 74
f 73 104 105
f 74 106 75
f 75 107 108
f 75 108 76
f 75 106 107
f 76 109 78
f 76 108 109
f 77 110 79
f 77 78 109
f 77 109 110
f 79 110 111
f 79 111 80
f 80 111 112
f 80 112 113
f 80 113 81
f 81 113 114
f 81 114 82
f 83 114 113
f 83 113 115
f 83 115 84
f 84 115 116
f 85 117 118
f 85 118 119
f 87 89 120
f 87 120 121
f 87 121 122
f 87 122 88
f 89 123 120
f 91 124 125
f 91 125 92
f 92 125 93
f 93 126 97
f 93 125 127
f 93 127 128
f 93 128 126
f 94 129 130
f 94 130 95
f 94 97 131
f 94 131 129
f 95 130 96
f 96 132 98
f 96 130 132
f 97 126 131
f 98 133 134
f 98 134 99
f 98 132 133
f 99 134 135
f 99 135 101
f 100 101 135
f 100 135 136
f 100 136 137
f 100 137 102
f 102 137 103
f 103 138 104
f 103 137 138
f 104 139 140
f 104 140 105
f 104 138 139
f 105 140 106
f 106 141 142
f 106 142 107
f 106 140 141
f 107 142 108
f 108 142 143
f 108 143 144
f 108 144 109
f 109 144 110
f 110 145 146
f 110 146 111
f 110 144 145
f 111 146 147
f 111 147 112
f 112 147 113
f 113 147 115
f 115 147 116
f 116 147 148
f 117 149 150
f 117 150 151
f 117 151 152
f 117 152 153
f 117 153 154
f 117 154 155
f 117 155 156
f 117 156 157
f 117 157 158
f 117 158 159
f 117 159 118
f 118 159 160
f 118 160 119
f 119 160 161
f 120 162 163
f 120 163 121
f 120 123 162
f 121 164 122
f 121 163 165
f 121 165 166
f 121 166 167
f 121 167 164
f 123 168 162
f 124 169 125
f 125 169 170
f 125 170 171
f 125 171 127
f 126 172 131
f 126 128 172
f 127 171 173
f 127 173 128
f 128 174 172
f 128 173 174
f 129 152 130
f 129 131 152
f 130 152 151
f 130 151 150
f 130 150 175
f 130 175 176
f 130 176 132
f 131 153 152
f 131 172 154
f 131 154 153
f 132 176 133
f 133 149 177
f 133 177 178
f 133 178 134
f 133 176 175
f 133 175 149
f 134 178 179
f 134 179 135
f 135 179 180
f 135 180 181
f 135 181 136
f 136 181 137
f 137 182 138
f 137 181 182
f 138 183 184
f 138 184 139
f 138 182 183
f 139 184 185
f 139 185 140
f 140 185 186
f 140 186 141
f 141 186 187
f 141 187 188
f 141 188 189
f 141 189 142
f 142 189 190
f 142 190 191
f 142 191 143
f 143 191 144
f 144 192 193
f 144 193 145
f 144 191 192
f 145 193 146
f 146 194 147
f 146 193 194
f 147 194 148
f 149 175 150
f 154 172 155
f 155 172 174
f 155 174 156
f 156 174 157
f 157 174 195
f 157 195 158
f 158 195 196
f 158 196 159
f 159 196 197
f 159 197 160
f 160 197 162
f 160 162 161
f 161 162 168
f 162 197 198
f 162 198 163
f 163 198 199
f 163 199 165
f 165 199 173
f 165 173 171
f 165 171 170
f 165 170 166
f 166 170 167
f 167 170 169
f 173 195 174
f 173 199 196
f 173 196 195
f 196 199 198
f 196 198 197

