# https://github.com/mikedh/trimesh
v 0.04774405 -0.00000801 -0.01505379
v 0.03653939 0.03093104 -0.01505379
v 0.04960106 -0.00000801 -0.01505379
v 0.03967776 -0.00000801 0.05037700
v 0.02499753 0.03093104 0.05037700
v 0.03882272 0.03093104 -0.01505379
v 0.04939392 0.00650325 -0.01505379
v 0.04950712 -0.00000801 -0.01331017
v 0.03973315 -0.00000801 0.05054491
v 0.03975965 -0.00000801 0.05062240
v 0.02501198 0.03093104 0.05040929
v 0.03870710 0.03093104 -0.01331017
v 0.04306421 0.02486195 -0.01331017
v 0.04314369 0.02491041 -0.01505379
v 0.04716599 0.01600968 -0.01505379
v 0.04707688 0.01597939 -0.01331017
v 0.04929999 0.00649113 -0.01331017
v 0.04926627 -0.00000801 -0.01002313
v 0.04009203 -0.00000801 0.05075801
v 0.02511555 0.03093104 0.05062240
v 0.03840844 0.03093104 -0.01002313
v 0.04285466 0.02474081 -0.01002313
v 0.04638321 0.01774500 -0.01505379
v 0.04684807 0.01590065 -0.01002313
v 0.04905913 0.00646085 -0.01002313
v 0.04872675 0.00641542 -0.00608386
v 0.04892907 -0.00000801 -0.00608386
v 0.04039551 -0.00000801 0.05080968
v 0.02559967 0.03093104 0.05075801
v 0.03799658 0.03093104 -0.00608386
v 0.04256081 0.02457122 -0.00608386
v 0.04653014 0.01579465 -0.00608386
v 0.04615199 0.01566443 -0.00196376
v 0.04832933 0.00636394 -0.00196376
v 0.04853165 -0.00000801 -0.00196376
v 0.04879660 -0.00000801 -0.00470188
v 0.04085314 -0.00000801 0.05088717
v 0.04100729 -0.00000801 0.05090655
v 0.02626926 0.03093104 0.05083551
v 0.03790746 0.03093104 -0.00532829
v 0.04221398 0.02437134 -0.00196376
v 0.04181898 0.02414117 0.00231779
v 0.04571604 0.01551603 0.00231779
v 0.04787412 0.00630337 0.00231779
v 0.04807403 -0.00000801 0.00231779
v 0.04124574 -0.00000801 0.05088071
v 0.04083628 0.00537665 0.05090655
v 0.02693643 0.03093104 0.05090655
v 0.02644749 0.03093104 0.05085488
v 0.03750523 0.03093104 -0.00196376
v 0.03694644 0.03093104 0.00231779
v 0.03687659 0.03093104 0.00282150
v 0.03632021 0.03093104 0.00674786
v 0.04137339 0.02388678 0.00674786
v 0.04523191 0.01535552 0.00674786
v 0.04736591 0.00623674 0.00674786
v 0.04790302 -0.00000801 0.00380309
v 0.04136375 -0.00000801 0.05086134
v 0.04119275 0.00542511 0.05086134
v 0.03899372 0.01323861 0.05090655
v 0.03933574 0.01335369 0.05086134
v 0.03096356 0.02715149 0.05090655
v 0.02710985 0.03093104 0.05089363
v 0.03561450 0.03093104 0.01143625
v 0.04088927 0.02360513 0.01132001
v 0.04469962 0.01517684 0.01132001
v 0.04680953 0.00616406 0.01132001
v 0.04756341 -0.00000801 0.00674786
v 0.04700703 -0.00000801 0.01132001
v 0.04147214 -0.00000801 0.05067406
v 0.04135171 0.00544630 0.05057719
v 0.03567231 0.02059481 0.05090655
v 0.03598301 0.02077349 0.05086134
v 0.03948748 0.01340517 0.05057719
v 0.03612271 0.02085223 0.05057719
v 0.03123332 0.02738771 0.05086134
v 0.02745909 0.03093104 0.05086134
v 0.03527249 0.03093104 0.01361254
v 0.04036661 0.02330531 0.01601486
v 0.04412879 0.01498302 0.01601486
v 0.04621220 0.00608532 0.01601486
v 0.04640730 -0.00000801 0.01601486
v 0.04152513 -0.00000801 0.05057719
v 0.03969462 0.01347483 0.04909189
v 0.04166964 -0.00000801 0.04958915
v 0.04273664 -0.00000801 0.04227888
v 0.04209596 0.00554322 0.04545613
v 0.03135374 0.02749371 0.05057719
v 0.03677302 0.02122776 0.04545613
v 0.03191976 0.02799038 0.04545613
v 0.02754821 0.03093104 0.05075801
v 0.03479077 0.03093104 0.01618276
v 0.03503885 0.03072511 0.01601486
v 0.03455714 0.03030415 0.02080657
v 0.03981264 0.02298429 0.02080657
v 0.04352183 0.01477708 0.02080657
v 0.04557875 0.00600355 0.02080657
v 0.04576903 -0.00000801 0.02080657
v 0.04019801 0.01364745 0.04545613
v 0.04086277 0.01387156 0.04066442
v 0.04297027 -0.00000801 0.04066442
v 0.04278963 0.00563407 0.04066442
v 0.02801065 0.03093104 0.04909189
v 0.02769272 0.03093104 0.05057719
v 0.03737758 0.02157907 0.04066442
v 0.03244483 0.02845071 0.04066442
v 0.02980503 0.03093104 0.04066442
v 0.02878621 0.03093104 0.04545613
v 0.03389238 0.03093104 0.02080657
v 0.03405375 0.02986199 0.02569515
v 0.03922976 0.02264812 0.02569515
v 0.04288597 0.01455903 0.02569515
v 0.04491158 0.00591572 0.02569515
v 0.04509945 -0.00000801 0.02569515
v 0.04350497 0.00573098 0.03569188
v 0.04154440 0.01410476 0.03569188
v 0.04344717 -0.00000801 0.03736446
v 0.03800139 0.02193946 0.03569188
v 0.03298675 0.02892618 0.03569188
v 0.03085276 0.03093104 0.03569188
v 0.03378399 0.03093104 0.02134903
v 0.03291450 0.03093104 0.02569515
v 0.03271940 0.03093104 0.02665737
v 0.03352868 0.02940166 0.03066769
v 0.03862521 0.02229985 0.03066769
v 0.04222602 0.01433492 0.03066769
v 0.04421791 0.00582487 0.03066769
v 0.04486581 -0.00000801 0.02736773
v 0.04368802 -0.00000801 0.03569188
v 0.03160424 0.03093104 0.03208195
v 0.03189808 0.03093104 0.03066769
v 0.04440337 -0.00000801 0.03066769
f 1 2 6
f 1 6 14
f 1 14 23
f 1 23 15
f 1 15 7
f 1 7 3
f 1 3 8
f 1 8 18
f 1 18 27
f 1 27 36
f 1 36 35
f 1 35 45
f 1 45 57
f 1 57 68
f 1 68 69
f 1 69 82
f 1 82 98
f 1 98 114
f 1 114 128
f 1 128 132
f 1 132 129
f 1 129 117
f 1 117 101
f 1 101 86
f 1 86 85
f 1 85 83
f 1 83 70
f 1 70 58
f 1 58 46
f 1 46 38
f 1 38 37
f 1 37 28
f 1 28 19
f 1 19 10
f 1 10 9
f 1 9 4
f 1 4 5
f 1 5 2
f 2 5 11
f 2 11 20
f 2 20 29
f 2 29 39
f 2 39 49
f 2 49 48
f 2 48 63
f 2 63 77
f 2 77 91
f 2 91 104
f 2 104 103
f 2 103 108
f 2 108 107
f 2 107 120
f 2 120 130
f 2 130 131
f 2 131 123
f 2 123 122
f 2 122 121
f 2 121 109
f 2 109 92
f 2 92 78
f 2 78 64
f 2 64 53
f 2 53 52
f 2 52 51
f 2 51 50
f 2 50 40
f 2 40 30
f 2 30 21
f 2 21 12
f 2 12 6
f 3 7 8
f 4 9 5
f 5 9 10
f 5 10 11
f 6 12 13
f 6 13 14
f 7 15 16
f 7 16 17
f 7 17 8
f 8 17 18
f 10 19 20
f 10 20 11
f 12 21 22
f 12 22 13
f 13 16 23
f 13 23 14
f 13 22 16
f 15 23 16
f 16 22 24
f 16 24 17
f 17 24 25
f 17 25 18
f 18 25 26
f 18 26 27
f 19 28 29
f 19 29 20
f 21 30 22
f 22 30 31
f 22 31 32
f 22 32 24
f 24 32 25
f 25 32 26
f 26 32 33
f 26 33 34
f 26 34 35
f 26 35 36
f 26 36 27
f 28 37 29
f 29 37 38
f 29 38 39
f 30 40 31
f 31 40 41
f 31 41 33
f 31 33 32
f 33 41 42
f 33 42 43
f 33 43 44
f 33 44 34
f 34 44 35
f 35 44 45
f 38 46 47
f 38 47 60
f 38 60 72
f 38 72 62
f 38 62 48
f 38 48 49
f 38 49 39
f 40 50 41
f 41 50 51
f 41 51 42
f 42 51 52
f 42 52 53
f 42 53 54
f 42 54 55
f 42 55 43
f 43 55 44
f 44 55 56
f 44 56 57
f 44 57 45
f 46 58 59
f 46 59 47
f 47 59 61
f 47 61 60
f 48 62 63
f 53 64 65
f 53 65 54
f 54 65 55
f 55 65 66
f 55 66 67
f 55 67 56
f 56 68 57
f 56 67 69
f 56 69 68
f 58 70 59
f 59 70 71
f 59 71 61
f 60 61 72
f 61 73 72
f 61 71 74
f 61 74 75
f 61 75 73
f 62 72 76
f 62 76 63
f 63 76 77
f 64 78 79
f 64 79 65
f 65 79 66
f 66 79 80
f 66 80 81
f 66 81 67
f 67 81 82
f 67 82 69
f 70 83 71
f 71 84 74
f 71 83 85
f 71 85 86
f 71 86 87
f 71 87 84
f 72 73 76
f 73 75 88
f 73 88 76
f 74 84 75
f 75 84 89
f 75 89 90
f 75 90 88
f 76 91 77
f 76 88 91
f 78 92 93
f 78 93 79
f 79 93 94
f 79 94 95
f 79 95 80
f 80 95 96
f 80 96 97
f 80 97 81
f 81 97 82
f 82 97 98
f 84 99 89
f 84 87 100
f 84 100 99
f 86 101 102
f 86 102 87
f 87 102 100
f 88 90 103
f 88 103 104
f 88 104 91
f 89 99 100
f 89 100 105
f 89 105 90
f 90 105 106
f 90 106 107
f 90 107 108
f 90 108 103
f 92 94 93
f 92 109 94
f 94 109 110
f 94 110 95
f 95 110 111
f 95 111 112
f 95 112 96
f 96 112 97
f 97 112 113
f 97 113 114
f 97 114 98
f 100 102 115
f 100 115 116
f 100 116 105
f 101 117 102
f 102 117 115
f 105 116 118
f 105 118 119
f 105 119 106
f 106 119 107
f 107 119 120
f 109 121 110
f 110 122 123
f 110 123 124
f 110 124 125
f 110 125 111
f 110 121 122
f 111 125 126
f 111 126 112
f 112 126 113
f 113 126 127
f 113 127 128
f 113 128 114
f 115 117 129
f 115 129 127
f 115 127 126
f 115 126 116
f 116 126 125
f 116 125 118
f 118 125 124
f 118 124 119
f 119 124 120
f 120 124 130
f 123 131 124
f 124 131 130
f 127 132 128
f 127 129 132

