# https://github.com/mikedh/trimesh
v -0.04959791 -0.00000801 -0.01505347
v -0.04774048 -0.00000801 -0.01505347
v -0.04950407 -0.00000801 -0.01330836
v -0.04962197 -0.00000475 -0.01548354
v -0.04971821 -0.00000475 -0.01843615
v -0.04973745 -0.00000475 -0.01907299
v -0.04977114 -0.00000475 -0.02111583
v -0.04976392 -0.00000475 -0.02184364
v -0.04974948 -0.00000475 -0.02329100
v -0.04971339 -0.00000475 -0.02405190
v -0.04964121 -0.00000475 -0.02556542
v -0.04956663 -0.00000475 -0.02634286
v -0.04941505 -0.00000475 -0.02789774
v -0.04928753 -0.00000475 -0.02869172
v -0.04903250 -0.00000475 -0.03025486
v -0.04846468 -0.00000475 -0.03259545
v -0.04812303 -0.00000475 -0.03357965
v -0.04616214 -0.00000475 -0.03357965
v -0.03967797 -0.00000801 0.05037541
v -0.04926347 -0.00000801 -0.01001666
v -0.04936693 0.00323968 -0.01001666
v -0.04960753 0.00325270 -0.01330836
v -0.04970377 0.00325920 -0.01505347
v -0.04964362 0.00136201 -0.01506174
v -0.04972543 0.00326246 -0.01548354
v -0.04978076 0.00326897 -0.01718728
v -0.04984091 0.00327222 -0.01907299
v -0.04987460 0.00327222 -0.02111583
v -0.04985294 0.00327222 -0.02329100
v -0.04974467 0.00326571 -0.02556542
v -0.04951851 0.00324944 -0.02789774
v -0.04913595 0.00322666 -0.03025486
v -0.04856573 0.00318761 -0.03259545
v -0.04822408 0.00316483 -0.03357965
v -0.03208705 0.03323683 -0.03357965
v -0.02529732 0.03065951 0.05037541
v -0.03975737 -0.00000801 0.05061526
v -0.04892904 -0.00000801 -0.00607984
v -0.04903250 0.00321690 -0.00607984
v -0.04779581 0.01281351 -0.01001666
v -0.04803160 0.01287209 -0.01330836
v -0.04939580 0.00514013 -0.01505347
v -0.04814228 0.01290463 -0.01548354
v -0.04819762 0.01291765 -0.01718728
v -0.04825536 0.01293392 -0.01907299
v -0.04828664 0.01294368 -0.02111583
v -0.04826739 0.01293717 -0.02329100
v -0.04816152 0.01291114 -0.02556542
v -0.04794258 0.01284931 -0.02789774
v -0.04757446 0.01275168 -0.03025486
v -0.04701867 0.01260524 -0.03259545
v -0.04757446 0.00713169 -0.03357965
v -0.03477214 0.03323683 -0.03357965
v -0.03425245 0.03323683 -0.01506174
v -0.02541521 0.03065951 0.05058217
v -0.02543687 0.03065951 0.05061526
v -0.04008940 -0.00000801 0.05075586
v -0.04852964 -0.00000801 -0.00196107
v -0.04863310 0.00319087 -0.00196107
v -0.04747100 0.01272240 -0.00607984
v -0.04406892 0.02173000 -0.00607984
v -0.04436967 0.02187969 -0.01001666
v -0.04458862 0.02198708 -0.01330836
v -0.04534410 0.02024934 -0.01505347
v -0.04812062 0.01289812 -0.01505347
v -0.04469207 0.02203590 -0.01548354
v -0.04474260 0.02206193 -0.01718728
v -0.04479553 0.02208796 -0.01907299
v -0.04482681 0.02210423 -0.02111583
v -0.04480756 0.02209447 -0.02329100
v -0.04471132 0.02204566 -0.02556542
v -0.04450681 0.02194478 -0.02789774
v -0.04416276 0.02177556 -0.03025486
v -0.04365028 0.02152173 -0.03259545
v -0.04668905 0.01251413 -0.03357965
v -0.03834986 0.02942291 -0.03357965
v -0.03524131 0.03323683 -0.03259545
v -0.03679559 0.03323683 -0.01506174
v -0.02743625 0.03065951 0.05091300
v -0.02600468 0.03065951 0.05075586
v -0.04100608 -0.00000801 0.05091300
v -0.04837806 -0.00000801 -0.00052199
v -0.04817355 0.00316158 0.00232311
v -0.04664093 0.01250111 0.00232311
v -0.04708364 0.01262152 -0.00196107
v -0.04371043 0.02155428 -0.00196107
v -0.03867227 0.02967349 -0.00196107
v -0.03898986 0.02991430 -0.00607984
v -0.03925692 0.03012256 -0.01001666
v -0.03944700 0.03026900 -0.01330836
v -0.03952158 0.03032758 -0.01505347
v -0.04366952 0.02364347 -0.01505347
v -0.04467042 0.02202939 -0.01505347
v -0.04467283 0.02202613 -0.01506174
v -0.03954083 0.03033734 -0.01548354
v -0.03958655 0.03037314 -0.01718728
v -0.03963466 0.03040894 -0.01907299
v -0.03966113 0.03042846 -0.02111583
v -0.03964429 0.03041544 -0.02329100
v -0.03956008 0.03035036 -0.02556542
v -0.03937722 0.03021043 -0.02789774
v -0.03907407 0.02997938 -0.03025486
v -0.03862174 0.02963118 -0.03259545
v -0.04334231 0.02137204 -0.03357965
v -0.03602086 0.03323683 -0.03025486
v -0.03682686 0.03323683 -0.01548354
v -0.03909332 0.03065951 -0.01342415
v -0.03908369 0.03065951 -0.01330836
v -0.03875167 0.03065951 -0.01001666
v -0.03829453 0.03065951 -0.00607984
v -0.03774596 0.03065951 -0.00196107
v -0.03723348 0.03065951 0.00157048
v -0.03712280 0.03065951 0.00232311
v -0.03657905 0.03065951 0.00578023
v -0.03642506 0.03065951 0.00674789
v -0.03565996 0.03065951 0.01131327
v -0.03483710 0.03065951 0.01601098
v -0.03396373 0.03065951 0.02079967
v -0.03345366 0.03065951 0.02353725
v -0.03304704 0.03065951 0.02568761
v -0.03209427 0.03065951 0.03066652
v -0.03111262 0.03065951 0.03568679
v -0.03012856 0.03065951 0.04065743
v -0.02903143 0.03065951 0.04616566
v -0.02814602 0.03065951 0.05057390
v -0.02812196 0.03065951 0.05060699
v -0.02792948 0.03065951 0.05085510
v -0.02788136 0.03065951 0.05086337
v -0.03268133 0.02506880 0.05091300
v -0.04109030 0.00269623 0.05091300
v -0.04124187 -0.00000801 0.05087992
v -0.04807250 -0.00000801 0.00232311
v -0.04790168 -0.00000801 0.00381182
v -0.04766348 0.00312904 0.00674789
v -0.04614530 0.01236769 0.00674789
v -0.04283946 0.02112472 0.00674789
v -0.04329660 0.02134926 0.00232311
v -0.03830655 0.02939363 0.00232311
v -0.03921121 0.03065951 -0.01505347
v -0.03693514 0.03323683 -0.01793991
v -0.03685814 0.03323683 -0.01617000
v -0.03698326 0.03323683 -0.01907299
v -0.03700250 0.03323683 -0.01987524
v -0.03703138 0.03323683 -0.02111583
v -0.03701453 0.03323683 -0.02243913
v -0.03700250 0.03323683 -0.02329100
v -0.03685333 0.03323683 -0.02556542
v -0.03667288 0.03323683 -0.02693008
v -0.03654296 0.03323683 -0.02789774
v -0.03789994 0.02908122 0.00674789
v -0.03745964 0.02874279 0.01131327
v -0.03698326 0.02837181 0.01601098
v -0.03647318 0.02798131 0.02079967
v -0.03594146 0.02757453 0.02568761
v -0.03538567 0.02715149 0.03066652
v -0.03481545 0.02671217 0.03568679
v -0.03424523 0.02626960 0.04065743
v -0.03309275 0.02538771 0.05057390
v -0.03296524 0.02529334 0.05085510
v -0.03693754 0.01820897 0.05091300
v -0.03978384 0.01066249 0.05091300
v -0.04145119 0.00271901 0.05085510
v -0.04136458 -0.00000801 0.05085510
v -0.04756243 -0.00000801 0.00674789
v -0.04700424 -0.00000801 0.01131327
v -0.04710289 0.00308999 0.01131327
v -0.04560395 0.01222450 0.01131327
v -0.04233420 0.02087740 0.01131327
v -0.04179525 0.02060730 0.01601098
v -0.04122022 0.02032744 0.02079967
v -0.03999316 0.01971891 0.03066652
v -0.04061872 0.02002806 0.02568761
v -0.03934835 0.01940325 0.03568679
v -0.03870114 0.01908434 0.04065743
v -0.03740190 0.01844001 0.05057390
v -0.03725995 0.01836842 0.05085510
v -0.04013030 0.01075686 0.05085510
v -0.04028669 0.01079917 0.05057390
v -0.04160999 0.00273203 0.05057390
v -0.04147044 -0.00000801 0.05067315
v -0.04680213 -0.00000801 0.01290123
v -0.04650138 0.00305094 0.01601098
v -0.04502170 0.01206830 0.01601098
v -0.04440335 0.01189909 0.02079967
v -0.04375374 0.01172987 0.02568761
v -0.04308006 0.01154763 0.03066652
v -0.04238472 0.01136214 0.03568679
v -0.04168939 0.01117340 0.04065743
v -0.04236066 0.00278084 0.04545439
v -0.04173991 -0.00000801 0.04908519
v -0.04152097 -0.00000801 0.05057390
v -0.04640274 -0.00000801 0.01601098
v -0.04576755 -0.00000801 0.02079967
v -0.04586380 0.00300863 0.02079967
v -0.04519252 0.00296633 0.02568761
v -0.04449719 0.00292077 0.03066652
v -0.04377779 0.00287195 0.03568679
v -0.04305840 0.00282314 0.04065743
v -0.04273359 -0.00000801 0.04227847
v -0.04509869 -0.00000801 0.02568761
v -0.04440335 -0.00000801 0.03066652
v -0.04368637 -0.00000801 0.03568679
f 1 2 19
f 1 19 37
f 1 37 57
f 1 57 81
f 1 81 131
f 1 131 163
f 1 163 180
f 1 180 191
f 1 191 190
f 1 190 199
f 1 199 202
f 1 202 201
f 1 201 200
f 1 200 193
f 1 193 192
f 1 192 181
f 1 181 165
f 1 165 164
f 1 164 133
f 1 133 132
f 1 132 82
f 1 82 58
f 1 58 38
f 1 38 20
f 1 20 3
f 1 3 4
f 1 4 5
f 1 5 6
f 1 6 7
f 1 7 8
f 1 8 9
f 1 9 10
f 1 10 11
f 1 11 12
f 1 12 13
f 1 13 14
f 1 14 15
f 1 15 16
f 1 16 17
f 1 17 18
f 1 18 2
f 2 18 19
f 3 20 21
f 3 21 22
f 3 22 23
f 3 23 24
f 3 24 4
f 4 24 23
f 4 23 25
f 4 25 5
f 5 25 26
f 5 26 27
f 5 27 6
f 6 27 28
f 6 28 7
f 7 28 8
f 8 28 29
f 8 29 9
f 9 29 10
f 10 29 30
f 10 30 11
f 11 30 12
f 12 30 31
f 12 31 13
f 13 31 14
f 14 31 32
f 14 32 15
f 15 32 16
f 16 33 34
f 16 34 17
f 16 32 33
f 17 34 52
f 17 52 75
f 17 75 104
f 17 104 76
f 17 76 53
f 17 53 35
f 17 35 18
f 18 35 36
f 18 36 19
f 19 36 37
f 20 38 39
f 20 39 21
f 21 39 40
f 21 40 41
f 21 41 22
f 22 41 42
f 22 42 23
f 23 42 25
f 25 43 44
f 25 44 26
f 25 42 43
f 26 44 27
f 27 44 45
f 27 45 28
f 28 46 47
f 28 47 29
f 28 45 46
f 29 47 30
f 30 47 48
f 30 48 31
f 31 49 50
f 31 50 32
f 31 48 49
f 32 50 33
f 33 50 51
f 33 51 52
f 33 52 34
f 35 53 77
f 35 77 105
f 35 105 149
f 35 149 148
f 35 148 147
f 35 147 146
f 35 146 145
f 35 145 144
f 35 144 143
f 35 143 142
f 35 142 140
f 35 140 141
f 35 141 106
f 35 106 78
f 35 78 54
f 35 54 36
f 36 55 37
f 36 54 55
f 37 55 56
f 37 56 57
f 38 58 59
f 38 59 39
f 39 59 60
f 39 60 40
f 40 60 61
f 40 61 62
f 40 62 63
f 40 63 41
f 41 63 64
f 41 64 65
f 41 65 42
f 42 65 43
f 43 66 67
f 43 67 44
f 43 65 64
f 43 64 66
f 44 67 45
f 45 68 69
f 45 69 46
f 45 67 68
f 46 69 47
f 47 69 70
f 47 70 71
f 47 71 48
f 48 71 49
f 49 71 72
f 49 72 50
f 50 73 74
f 50 74 51
f 50 72 73
f 51 75 52
f 51 74 75
f 53 76 77
f 54 78 79
f 54 79 80
f 54 80 56
f 54 56 55
f 56 80 57
f 57 80 81
f 58 82 59
f 59 82 83
f 59 83 84
f 59 84 85
f 59 85 60
f 60 85 86
f 60 86 61
f 61 86 87
f 61 87 88
f 61 88 89
f 61 89 62
f 62 89 63
f 63 89 90
f 63 90 91
f 63 91 92
f 63 92 93
f 63 93 94
f 63 94 64
f 64 94 66
f 66 95 96
f 66 96 67
f 66 94 93
f 66 93 92
f 66 92 95
f 67 96 97
f 67 97 68
f 68 97 69
f 69 98 99
f 69 99 70
f 69 97 98
f 70 99 100
f 70 100 71
f 71 100 72
f 72 100 101
f 72 101 102
f 72 102 73
f 73 102 103
f 73 103 74
f 74 103 104
f 74 104 75
f 76 104 103
f 76 103 77
f 77 103 105
f 78 106 107
f 78 107 108
f 78 108 109
f 78 109 110
f 78 110 111
f 78 111 112
f 78 112 113
f 78 113 114
f 78 114 115
f 78 115 116
f 78 116 117
f 78 117 118
f 78 118 119
f 78 119 120
f 78 120 121
f 78 121 122
f 78 122 123
f 78 123 124
f 78 124 125
f 78 125 126
f 78 126 127
f 78 127 128
f 78 128 79
f 79 128 129
f 79 129 160
f 79 160 161
f 79 161 130
f 79 130 81
f 79 81 80
f 81 130 131
f 82 132 83
f 83 132 133
f 83 133 134
f 83 134 84
f 84 134 135
f 84 135 136
f 84 136 137
f 84 137 86
f 84 86 85
f 86 137 138
f 86 138 87
f 87 138 112
f 87 112 111
f 87 111 110
f 87 110 88
f 88 110 89
f 89 108 90
f 89 110 109
f 89 109 108
f 90 108 107
f 90 107 91
f 91 107 139
f 91 139 95
f 91 95 92
f 95 106 96
f 95 139 106
f 96 140 97
f 96 106 141
f 96 141 140
f 97 142 143
f 97 143 144
f 97 144 98
f 97 140 142
f 98 144 145
f 98 145 99
f 99 145 146
f 99 146 100
f 100 147 148
f 100 148 149
f 100 149 101
f 100 146 147
f 101 149 102
f 102 105 103
f 102 149 105
f 106 139 107
f 112 138 113
f 113 138 114
f 114 138 150
f 114 150 115
f 115 150 151
f 115 151 116
f 116 151 117
f 117 151 152
f 117 152 118
f 118 152 153
f 118 153 119
f 119 153 154
f 119 154 120
f 120 154 155
f 120 155 121
f 121 155 122
f 122 155 156
f 122 156 123
f 123 156 157
f 123 157 124
f 124 157 158
f 124 158 125
f 125 158 126
f 126 158 159
f 126 159 127
f 127 159 128
f 128 159 129
f 129 159 160
f 130 161 162
f 130 162 131
f 131 162 163
f 133 164 134
f 134 164 165
f 134 165 166
f 134 166 167
f 134 167 135
f 135 167 136
f 136 150 138
f 136 138 137
f 136 167 168
f 136 168 151
f 136 151 150
f 151 168 152
f 152 168 169
f 152 169 170
f 152 170 153
f 153 170 154
f 154 171 155
f 154 170 172
f 154 172 171
f 155 171 173
f 155 173 156
f 156 173 157
f 157 173 174
f 157 174 175
f 157 175 158
f 158 175 159
f 159 176 160
f 159 175 176
f 160 176 161
f 161 176 177
f 161 177 162
f 162 177 178
f 162 178 179
f 162 179 180
f 162 180 163
f 165 181 166
f 166 181 182
f 166 182 183
f 166 183 167
f 167 183 169
f 167 169 168
f 169 183 170
f 170 183 184
f 170 184 185
f 170 185 172
f 171 172 185
f 171 185 186
f 171 186 173
f 173 187 188
f 173 188 174
f 173 186 187
f 174 188 175
f 175 188 178
f 175 178 176
f 176 178 177
f 178 188 189
f 178 189 179
f 179 189 190
f 179 190 191
f 179 191 180
f 181 192 182
f 182 192 193
f 182 193 194
f 182 194 183
f 183 194 184
f 184 194 185
f 185 195 196
f 185 196 186
f 185 194 195
f 186 196 187
f 187 197 188
f 187 196 197
f 188 197 198
f 188 198 189
f 189 198 199
f 189 199 190
f 193 200 194
f 194 200 195
f 195 200 196
f 196 201 202
f 196 202 197
f 196 200 201
f 197 202 198
f 198 202 199

