# https://github.com/mikedh/trimesh
v -0.00001245 -0.04812114 -0.03359581
v 0.00631080 -0.04791863 -0.03359581
v -0.00001245 -0.04615725 -0.03359581
v -0.00001245 -0.04766902 -0.03489087
v 0.00625411 -0.04747122 -0.03489087
v 0.01553403 -0.04575222 -0.03359581
v 0.04005516 -0.02294840 -0.03359581
v 0.04176026 -0.00000801 -0.04003211
v -0.00000373 -0.00000801 -0.04894494
v -0.00001245 -0.00001742 -0.04894494
v -0.00001245 -0.04660936 -0.03708602
v 0.00611456 -0.04641156 -0.03708602
v 0.01504561 -0.04432051 -0.03708602
v 0.01538576 -0.04532365 -0.03489087
v 0.01973354 -0.04336917 -0.03489087
v 0.01973354 -0.04386368 -0.03359581
v 0.04236206 -0.02294840 -0.03359581
v 0.04444219 -0.00000801 -0.04003211
v -0.00001245 -0.00000801 -0.04965858
v -0.00001245 -0.04526242 -0.03912862
v 0.00593577 -0.04507404 -0.03912862
v 0.01460953 -0.04303479 -0.03912862
v 0.01973354 -0.04072709 -0.03912692
v 0.01973354 -0.04220590 -0.03708433
v 0.02394178 -0.04146178 -0.03488917
v 0.02416418 -0.04185268 -0.03359581
v 0.03834134 -0.02941937 -0.03359581
v 0.03798375 -0.02914622 -0.03488917
v 0.04183440 -0.02294840 -0.03488917
v 0.04311649 -0.01155591 -0.04003211
v 0.04453813 -0.00292324 -0.04003211
v 0.04360491 -0.00000801 -0.04095594
v -0.00000373 -0.00000801 -0.05091126
v -0.00001245 -0.00001742 -0.05091126
v -0.00001245 -0.04360465 -0.04095763
v 0.00572209 -0.04342097 -0.04095763
v 0.01407750 -0.04146178 -0.04095763
v 0.01973354 -0.03945079 -0.04041350
v 0.02273382 -0.03936602 -0.03912692
v 0.02340975 -0.04053871 -0.03708433
v 0.03156456 -0.03598925 -0.03488917
v 0.02855121 -0.03870668 -0.03359581
v 0.03186110 -0.03632834 -0.03359581
v 0.03713775 -0.02849630 -0.03708433
v 0.04153350 -0.02294840 -0.03541974
v 0.04002900 -0.01975059 -0.04003211
v 0.04230537 -0.01134398 -0.04095594
v 0.04058283 -0.02294840 -0.03708433
v 0.04369649 -0.00287143 -0.04095594
v 0.04175590 -0.00000801 -0.04253916
v 0.00000063 -0.00000801 -0.05091126
v -0.00001245 -0.00017284 -0.05091126
v -0.00001245 -0.04175378 -0.04253747
v 0.00547788 -0.04158424 -0.04253747
v 0.01348006 -0.03970982 -0.04253747
v 0.01973354 -0.03688878 -0.04253747
v 0.01973354 -0.03890919 -0.04095763
v 0.02190525 -0.03792489 -0.04095594
v 0.02231953 -0.03865487 -0.04003211
v 0.02997285 -0.03417134 -0.03912692
v 0.03086246 -0.03518391 -0.03708433
v 0.03606497 -0.02767212 -0.03912692
v 0.03900420 -0.02294840 -0.03912692
v 0.03927021 -0.01937383 -0.04095594
v 0.03541085 -0.02717290 -0.04003211
v 0.03474363 -0.02665485 -0.04095594
v 0.04051306 -0.01086360 -0.04253916
v 0.03760872 -0.01854965 -0.04253916
v 0.04184312 -0.00274898 -0.04253916
v 0.04109741 -0.00000801 -0.04299006
v 0.01204534 -0.00079451 -0.05084854
v 0.01194068 -0.00000801 -0.05084854
v 0.01082866 -0.00534868 -0.05084854
v 0.00796357 -0.00907867 -0.05084854
v 0.00388616 -0.01143346 -0.05084854
v -0.00001245 -0.01194681 -0.05084854
v -0.00001245 -0.03983227 -0.04384608
v 0.00522495 -0.03966743 -0.04384608
v 0.01286082 -0.03787779 -0.04384608
v 0.01973354 -0.03477888 -0.04384947
v 0.02001264 -0.03465172 -0.04384947
v 0.02097639 -0.03631892 -0.04253916
v 0.02765287 -0.03152456 -0.04253916
v 0.02887391 -0.03291860 -0.04095594
v 0.02942774 -0.03355439 -0.04003041
v 0.03326966 -0.02552926 -0.04253916
v 0.03588182 -0.01770192 -0.04384947
v 0.03865097 -0.01035968 -0.04384947
v 0.03174772 -0.02435657 -0.04384947
v 0.03991562 -0.00262654 -0.04384947
v 0.03983276 -0.00000801 -0.04384947
v 0.01273436 -0.00000801 -0.05083498
v 0.01404262 -0.00376626 -0.05080277
v 0.01153512 -0.00885261 -0.05080277
v 0.00727455 -0.01259673 -0.05080277
v 0.00190197 -0.01441934 -0.05080277
v -0.00001245 -0.01273331 -0.05083498
v -0.00001245 -0.03794844 -0.04494620
v 0.00498074 -0.03778831 -0.04494620
v 0.01225030 -0.03608344 -0.04494620
v 0.01905761 -0.03300337 -0.04494620
v 0.01973354 -0.03273963 -0.04484619
v 0.01973354 -0.03252770 -0.04494620
v 0.02637950 -0.03007401 -0.04384947
v 0.03417236 -0.01685891 -0.04494790
v 0.03681068 -0.00986988 -0.04494790
v 0.03023886 -0.02320272 -0.04494790
v 0.03802300 -0.00249938 -0.04494790
v 0.03794014 -0.00000801 -0.04494790
v 0.01645417 -0.00000801 -0.05071971
v 0.01712138 -0.00459043 -0.05066886
v 0.01589162 -0.00784476 -0.05066886
v 0.01768394 -0.00116185 -0.05066886
v 0.01406006 -0.01079296 -0.05066886
v 0.01168339 -0.01332672 -0.05066886
v 0.00886627 -0.01535655 -0.05066886
v 0.00570028 -0.01678826 -0.05066886
v 0.00231625 -0.01757947 -0.05066886
v -0.00001245 -0.01765012 -0.05066886
v -0.00001245 -0.01646801 -0.05071802
v -0.00001245 -0.03734090 -0.04527336
v -0.00001245 -0.03617763 -0.04589885
v 0.00474525 -0.03602222 -0.04589885
v 0.01167903 -0.03440212 -0.04589885
v 0.01816799 -0.03146804 -0.04589885
v 0.01973354 -0.03083696 -0.04568527
v 0.02395486 -0.02730948 -0.04590055
v 0.02512793 -0.02864229 -0.04494790
v 0.03258064 -0.01607241 -0.04590055
v 0.03509686 -0.00941305 -0.04590055
v 0.02883030 -0.02211951 -0.04590055
v 0.03624813 -0.00238635 -0.04590055
v 0.03617400 -0.00000801 -0.04590055
v 0.03733399 -0.00000801 -0.04527505
v 0.01764469 -0.00000801 -0.05066886
v 0.01938467 -0.00520268 -0.05041629
v 0.01799792 -0.00888558 -0.05041629
v 0.01973354 -0.00129843 -0.05045019
v 0.01973354 -0.00311633 -0.05041798
v 0.01592215 -0.01221996 -0.05041629
v 0.01323149 -0.01508810 -0.05041629
v 0.01003498 -0.01738638 -0.05041629
v 0.00645471 -0.01900177 -0.05041629
v 0.00262587 -0.01990130 -0.05041629
v -0.00001245 -0.01999078 -0.05041629
v -0.00001245 -0.03447747 -0.04672436
v 0.00452721 -0.03433618 -0.04672436
v 0.01112956 -0.03278673 -0.04672436
v 0.01731762 -0.02999394 -0.04672436
v 0.01857791 -0.02948531 -0.04656841
v 0.01973354 -0.03034716 -0.04589885
v 0.02283412 -0.02602847 -0.04672436
v 0.02748280 -0.02108811 -0.04672436
v 0.03105870 -0.01532358 -0.04672436
v 0.03344846 -0.00897035 -0.04672436
v 0.03455176 -0.00226861 -0.04672436
v 0.03448198 -0.00000801 -0.04672436
v 0.01973354 -0.00000801 -0.05044511
v 0.01973354 -0.00529687 -0.05037391
v 0.01973354 -0.00973330 -0.05017559
v 0.02003008 -0.00132198 -0.05041798
v 0.01998647 -0.00000801 -0.05041798
v 0.01763160 -0.01353394 -0.05014508
v 0.01465314 -0.01670820 -0.05014508
v 0.01111211 -0.01924667 -0.05014508
v 0.00714809 -0.02104573 -0.05014508
v 0.00290497 -0.02203945 -0.05014508
v -0.00001245 -0.02137540 -0.05024170
v -0.00001245 -0.03281970 -0.04744987
v 0.00430481 -0.03267841 -0.04744987
v 0.01059317 -0.03120431 -0.04744987
v 0.01441329 -0.02948531 -0.04744987
v 0.01530290 -0.02948531 -0.04729052
v 0.01702545 -0.02948531 -0.04698032
v 0.01973354 -0.02726238 -0.04708033
v 0.02173954 -0.02477101 -0.04744987
v 0.02615709 -0.02007084 -0.04744987
v 0.02956293 -0.01458418 -0.04744987
v 0.03184366 -0.00853707 -0.04744987
v 0.03288591 -0.00216500 -0.04744987
v 0.03282049 -0.00000801 -0.04744987
v 0.02147353 -0.00575841 -0.05014508
v 0.02217999 -0.00145856 -0.05014508
v 0.01993414 -0.00983691 -0.05014508
v 0.02213638 -0.00000801 -0.05014508
v 0.01973354 -0.01393425 -0.04984335
v 0.01921896 -0.01475372 -0.04984165
v 0.01597012 -0.01821056 -0.04984165
v 0.01211511 -0.02098921 -0.04984165
v 0.00778914 -0.02293427 -0.04984165
v 0.00316662 -0.02402219 -0.04984165
v -0.00001245 -0.02213835 -0.05014508
v -0.00001245 -0.03116663 -0.04807875
v 0.00409112 -0.03103476 -0.04807875
v 0.01006115 -0.02963602 -0.04807875
v 0.01648470 -0.02854339 -0.04744987
v 0.01565177 -0.02710697 -0.04807875
v 0.01973354 -0.02621686 -0.04744987
v 0.02064060 -0.02353239 -0.04808044
v 0.02483575 -0.01906299 -0.04808044
v 0.02807151 -0.01384948 -0.04808044
v 0.03023886 -0.00811320 -0.04808044
v 0.03123314 -0.00205197 -0.04808044
v 0.03116773 -0.00000801 -0.04808044
v 0.02340539 -0.00627647 -0.04984335
v 0.02417290 -0.00159043 -0.04984335
v 0.02172646 -0.01072232 -0.04984335
v 0.02412057 -0.00000801 -0.04984335
v 0.02071910 -0.01590286 -0.04949585
v 0.01973354 -0.01514462 -0.04972469
v 0.01973354 -0.01694839 -0.04949585
v 0.01721296 -0.01962814 -0.04949415
v 0.01305706 -0.02261402 -0.04949415
v 0.00839530 -0.02471450 -0.04949415
v -0.00001245 -0.02411638 -0.04984165
v 0.00341083 -0.02587776 -0.04949415
v -0.00001245 -0.02534087 -0.04961620
v -0.00001245 -0.02948531 -0.04862626
v 0.00000063 -0.02948531 -0.04862626
v 0.00017071 -0.02948531 -0.04862457
v 0.00349805 -0.02948531 -0.04859067
v 0.00387308 -0.02936286 -0.04862457
v 0.00952476 -0.02804417 -0.04862457
v 0.01000882 -0.02948531 -0.04813130
v 0.01023994 -0.02948531 -0.04810078
v 0.01481013 -0.02564699 -0.04862457
v 0.01973354 -0.02386206 -0.04816520
v 0.01952858 -0.02227022 -0.04862288
v 0.01973354 -0.02249628 -0.04852456
v 0.01973354 -0.02205358 -0.04862457
v 0.02350133 -0.01804101 -0.04862457
v 0.02656265 -0.01311008 -0.04862457
v 0.02861226 -0.00767521 -0.04862457
v 0.02955420 -0.00194365 -0.04862457
v 0.02949315 -0.00000801 -0.04862457
v 0.02605243 -0.00170817 -0.04949585
v 0.02521951 -0.00676155 -0.04949585
v 0.02340975 -0.01155120 -0.04949585
v 0.02599574 -0.00000801 -0.04949585
v 0.02501455 -0.01234241 -0.04909242
v 0.02213638 -0.01699078 -0.04909242
v 0.01973354 -0.01955750 -0.04909242
v 0.01839039 -0.02097508 -0.04909242
v 0.01395104 -0.02415406 -0.04909242
v 0.00897093 -0.02640995 -0.04909242
v 0.00364632 -0.02765328 -0.04909242
v -0.00001245 -0.02599080 -0.04949415
v -0.00001245 -0.02777573 -0.04909242
v 0.02695077 -0.00722780 -0.04909242
v 0.02783602 -0.00183062 -0.04909242
v 0.02777933 -0.00000801 -0.04909242
f 1 2 6
f 1 6 16
f 1 16 26
f 1 26 42
f 1 42 43
f 1 43 27
f 1 27 17
f 1 17 7
f 1 7 3
f 1 3 10
f 1 10 19
f 1 19 34
f 1 34 52
f 1 52 76
f 1 76 97
f 1 97 120
f 1 120 119
f 1 119 145
f 1 145 168
f 1 168 192
f 1 192 215
f 1 215 217
f 1 217 247
f 1 247 248
f 1 248 218
f 1 218 193
f 1 193 169
f 1 169 146
f 1 146 122
f 1 122 121
f 1 121 98
f 1 98 77
f 1 77 53
f 1 53 35
f 1 35 20
f 1 20 11
f 1 11 4
f 1 4 5
f 1 5 2
f 2 5 6
f 3 7 8
f 3 8 9
f 3 9 10
f 4 11 5
f 5 11 12
f 5 12 13
f 5 13 14
f 5 14 6
f 6 14 15
f 6 15 16
f 7 17 18
f 7 18 8
f 8 18 32
f 8 32 50
f 8 50 70
f 8 70 91
f 8 91 109
f 8 109 134
f 8 134 133
f 8 133 157
f 8 157 181
f 8 181 204
f 8 204 235
f 8 235 251
f 8 251 239
f 8 239 208
f 8 208 185
f 8 185 162
f 8 162 158
f 8 158 135
f 8 135 110
f 8 110 92
f 8 92 72
f 8 72 51
f 8 51 33
f 8 33 19
f 8 19 9
f 9 19 10
f 11 20 21
f 11 21 12
f 12 21 13
f 13 15 14
f 13 21 22
f 13 22 23
f 13 23 24
f 13 24 15
f 15 24 25
f 15 25 16
f 16 25 26
f 17 27 28
f 17 28 29
f 17 29 30
f 17 30 31
f 17 31 18
f 18 31 32
f 19 33 34
f 20 35 21
f 21 35 36
f 21 36 37
f 21 37 22
f 22 37 23
f 23 37 38
f 23 38 39
f 23 39 40
f 23 40 24
f 24 40 25
f 25 40 41
f 25 41 42
f 25 42 26
f 27 43 28
f 28 44 45
f 28 45 29
f 28 43 41
f 28 41 44
f 29 45 30
f 30 46 47
f 30 47 31
f 30 45 48
f 30 48 46
f 31 47 49
f 31 49 32
f 32 49 50
f 33 51 52
f 33 52 34
f 35 53 54
f 35 54 36
f 36 54 55
f 36 55 37
f 37 55 56
f 37 56 57
f 37 57 38
f 38 57 58
f 38 58 59
f 38 59 39
f 39 59 58
f 39 58 60
f 39 60 40
f 40 60 61
f 40 61 41
f 41 61 44
f 41 43 42
f 44 62 63
f 44 63 48
f 44 48 45
f 44 61 60
f 44 60 62
f 46 64 47
f 46 48 63
f 46 63 65
f 46 65 66
f 46 66 64
f 47 67 49
f 47 64 68
f 47 68 67
f 49 69 50
f 49 67 69
f 50 69 70
f 51 71 52
f 51 72 71
f 52 71 73
f 52 73 74
f 52 74 75
f 52 75 76
f 53 77 54
f 54 77 78
f 54 78 55
f 55 78 79
f 55 79 80
f 55 80 56
f 56 80 81
f 56 81 82
f 56 82 58
f 56 58 57
f 58 82 83
f 58 83 84
f 58 84 85
f 58 85 60
f 60 85 84
f 60 84 65
f 60 65 62
f 62 65 63
f 64 66 86
f 64 86 68
f 65 84 66
f 66 84 83
f 66 83 86
f 67 68 87
f 67 87 88
f 67 88 69
f 68 86 89
f 68 89 87
f 69 90 70
f 69 88 90
f 70 90 91
f 71 72 92
f 71 92 93
f 71 93 73
f 73 93 94
f 73 94 74
f 74 94 95
f 74 95 75
f 75 95 96
f 75 96 76
f 76 96 97
f 77 98 78
f 78 98 99
f 78 99 79
f 79 99 100
f 79 100 80
f 80 101 81
f 80 100 101
f 81 101 102
f 81 102 103
f 81 103 104
f 81 104 83
f 81 83 82
f 83 104 89
f 83 89 86
f 87 105 106
f 87 106 88
f 87 89 107
f 87 107 105
f 88 106 108
f 88 108 90
f 89 104 107
f 90 108 91
f 91 108 109
f 92 110 93
f 93 111 112
f 93 112 94
f 93 110 113
f 93 113 111
f 94 112 114
f 94 114 115
f 94 115 95
f 95 115 116
f 95 116 117
f 95 117 96
f 96 117 118
f 96 118 119
f 96 119 120
f 96 120 97
f 98 121 99
f 99 121 122
f 99 122 123
f 99 123 124
f 99 124 100
f 100 124 125
f 100 125 101
f 101 103 102
f 101 125 103
f 103 125 126
f 103 126 127
f 103 127 128
f 103 128 104
f 104 128 107
f 105 129 130
f 105 130 106
f 105 107 129
f 106 130 108
f 107 128 127
f 107 127 131
f 107 131 129
f 108 132 133
f 108 133 134
f 108 134 109
f 108 130 132
f 110 135 113
f 111 136 137
f 111 137 112
f 111 113 138
f 111 138 139
f 111 139 136
f 112 137 114
f 113 135 138
f 114 140 115
f 114 137 140
f 115 141 116
f 115 140 141
f 116 141 142
f 116 142 117
f 117 142 143
f 117 143 144
f 117 144 118
f 118 144 145
f 118 145 119
f 122 146 147
f 122 147 123
f 123 147 124
f 124 147 148
f 124 148 149
f 124 149 125
f 125 149 150
f 125 150 151
f 125 151 126
f 126 151 127
f 127 152 153
f 127 153 131
f 127 151 150
f 127 150 152
f 129 154 130
f 129 131 154
f 130 154 155
f 130 155 156
f 130 156 132
f 131 153 154
f 132 156 157
f 132 157 133
f 135 158 138
f 136 159 137
f 136 139 159
f 137 159 160
f 137 160 140
f 138 161 139
f 138 158 162
f 138 162 161
f 139 161 159
f 140 160 163
f 140 163 141
f 141 163 164
f 141 164 142
f 142 164 165
f 142 165 166
f 142 166 143
f 143 166 144
f 144 166 167
f 144 167 168
f 144 168 145
f 146 169 147
f 147 169 170
f 147 170 171
f 147 171 148
f 148 171 172
f 148 172 173
f 148 173 174
f 148 174 149
f 149 174 175
f 149 175 152
f 149 152 150
f 152 175 176
f 152 176 153
f 153 177 178
f 153 178 154
f 153 176 177
f 154 178 179
f 154 179 155
f 155 179 156
f 156 179 180
f 156 180 181
f 156 181 157
f 159 182 160
f 159 161 183
f 159 183 182
f 160 184 163
f 160 182 184
f 161 162 185
f 161 185 183
f 163 186 187
f 163 187 164
f 163 184 186
f 164 188 189
f 164 189 165
f 164 187 188
f 165 189 166
f 166 189 190
f 166 190 191
f 166 191 167
f 167 192 168
f 167 191 192
f 169 193 194
f 169 194 170
f 170 194 195
f 170 195 171
f 171 195 172
f 172 196 173
f 172 195 197
f 172 197 196
f 173 196 174
f 174 196 198
f 174 198 175
f 175 198 176
f 176 198 199
f 176 199 177
f 177 200 178
f 177 199 200
f 178 200 201
f 178 201 202
f 178 202 179
f 179 202 203
f 179 203 180
f 180 203 181
f 181 203 204
f 182 183 205
f 182 205 184
f 183 206 205
f 183 185 206
f 184 207 186
f 184 205 207
f 185 208 206
f 186 209 210
f 186 210 187
f 186 207 209
f 187 210 188
f 188 210 211
f 188 211 212
f 188 212 189
f 189 212 213
f 189 213 214
f 189 214 190
f 190 214 191
f 191 215 192
f 191 214 216
f 191 216 217
f 191 217 215
f 193 218 219
f 193 219 220
f 193 220 221
f 193 221 194
f 194 221 222
f 194 222 223
f 194 223 224
f 194 224 195
f 195 224 225
f 195 225 197
f 196 197 199
f 196 199 198
f 197 226 227
f 197 227 199
f 197 225 223
f 197 223 226
f 199 227 228
f 199 228 229
f 199 229 230
f 199 230 231
f 199 231 200
f 200 231 232
f 200 232 201
f 201 232 202
f 202 233 234
f 202 234 203
f 202 232 233
f 203 234 235
f 203 235 204
f 205 206 236
f 205 236 237
f 205 237 207
f 206 208 236
f 207 238 209
f 207 237 238
f 208 239 236
f 209 238 240
f 209 240 241
f 209 241 242
f 209 242 211
f 209 211 210
f 211 242 212
f 212 242 243
f 212 243 213
f 213 244 245
f 213 245 214
f 213 243 244
f 214 245 246
f 214 246 216
f 216 247 217
f 216 246 248
f 216 248 247
f 218 248 219
f 219 248 222
f 219 222 220
f 220 222 221
f 222 248 246
f 222 246 223
f 223 225 224
f 223 246 245
f 223 245 244
f 223 244 226
f 226 244 243
f 226 243 228
f 226 228 227
f 228 243 230
f 228 230 229
f 230 243 242
f 230 242 231
f 231 242 241
f 231 241 232
f 232 241 240
f 232 240 249
f 232 249 233
f 233 249 234
f 234 249 250
f 234 250 251
f 234 251 235
f 236 250 249
f 236 249 237
f 236 239 251
f 236 251 250
f 237 249 238
f 238 249 240

