# https://github.com/mikedh/trimesh
v 0.03093049 -0.03882448 -0.01505934
v 0.03284444 -0.03744904 -0.01505934
v 0.03278138 -0.03737685 -0.01330583
v 0.03093049 -0.03870670 -0.01330583
v 0.03093049 -0.03654094 -0.01505934
v 0.03207478 -0.03324291 -0.03359138
v 0.03476210 -0.03324291 -0.03359138
v 0.03523502 -0.03324291 -0.03259446
v 0.03601581 -0.03324291 -0.03025348
v 0.03624949 -0.03324291 -0.02920315
v 0.03653881 -0.03324291 -0.02789469
v 0.03414822 -0.03606219 -0.01505934
v 0.03684853 -0.03324291 -0.02556261
v 0.03699689 -0.03324291 -0.02329284
v 0.03700988 -0.03324291 -0.02243833
v 0.03702657 -0.03324291 -0.02111207
v 0.03699875 -0.03324291 -0.01988372
v 0.03698020 -0.03324291 -0.01907372
v 0.03693198 -0.03324291 -0.01794329
v 0.03682256 -0.03324291 -0.01547769
v 0.03945424 -0.03026784 -0.01330583
v 0.03926137 -0.03012345 -0.01002133
v 0.03262189 -0.03719067 -0.01002133
v 0.03093049 -0.03841033 -0.01002133
v 0.03093049 -0.02499403 0.05037248
v 0.03489377 -0.02293845 -0.04001796
v 0.03834705 -0.02942053 -0.03359138
v 0.03862338 -0.02963331 -0.03259446
v 0.03804660 -0.02293845 -0.04001796
v 0.03862338 -0.02293845 -0.03948390
v 0.03900914 -0.02293845 -0.03911895
v 0.03907776 -0.02997907 -0.03025348
v 0.03938191 -0.03020704 -0.02789469
v 0.03956181 -0.03035143 -0.02556261
v 0.03954697 -0.03034003 -0.01547769
v 0.03964712 -0.03041602 -0.02329284
v 0.03966567 -0.03043122 -0.02111207
v 0.03963785 -0.03040842 -0.01907372
v 0.03958963 -0.03037423 -0.01718670
v 0.04467310 -0.02203035 -0.01505934
v 0.04458779 -0.02198476 -0.01330583
v 0.04437265 -0.02187837 -0.01002133
v 0.04406850 -0.02173019 -0.00607815
v 0.03899430 -0.02991448 -0.00607815
v 0.03240119 -0.03693989 -0.00607815
v 0.03093049 -0.03832294 -0.00918463
v 0.03093049 -0.02511561 0.05062171
v 0.03968236 -0.00000801 0.05037248
v 0.04176508 -0.00001180 -0.04001796
v 0.04059111 -0.02293845 -0.03708060
v 0.04153696 -0.02293845 -0.03541610
v 0.04183555 -0.02293845 -0.03488204
v 0.04293348 -0.02117165 -0.03488204
v 0.04364750 -0.02152501 -0.03259446
v 0.04416308 -0.02177578 -0.03025348
v 0.04333778 -0.02136923 -0.03359138
v 0.04003473 -0.01973541 -0.04001796
v 0.04076916 -0.02010017 -0.03911895
v 0.04450618 -0.02194296 -0.02789469
v 0.04471019 -0.02204555 -0.02556261
v 0.04480663 -0.02209495 -0.02329284
v 0.04474357 -0.02206075 -0.01718670
v 0.04469164 -0.02203795 -0.01547769
v 0.04482703 -0.02210255 -0.02111207
v 0.04479550 -0.02208735 -0.01907372
v 0.04803178 -0.01287337 -0.01330583
v 0.04814306 -0.01290757 -0.01547769
v 0.04779625 -0.01280878 -0.01002133
v 0.04746984 -0.01272139 -0.00607815
v 0.04371056 -0.02155541 -0.00195695
v 0.03867531 -0.02966750 -0.00195695
v 0.03213783 -0.03663973 -0.00195695
v 0.03093049 -0.03799618 -0.00607815
v 0.03093049 -0.02559816 0.05075523
v 0.03976211 -0.00000801 0.05062171
v 0.03973429 -0.00000801 0.05054160
v 0.04774246 -0.00000801 -0.01505934
v 0.04444312 -0.00001180 -0.04001796
v 0.04197836 -0.02069670 -0.03708060
v 0.04522020 -0.01212106 -0.03708060
v 0.04624765 -0.01239463 -0.03488204
v 0.04668349 -0.01251621 -0.03359138
v 0.04701917 -0.01260740 -0.03259446
v 0.04757184 -0.01275559 -0.03025348
v 0.04794091 -0.01285438 -0.02789469
v 0.04152954 -0.01577245 -0.04001796
v 0.04391271 -0.01176770 -0.03911895
v 0.04816160 -0.01291517 -0.02556261
v 0.04826546 -0.01293797 -0.02329284
v 0.04828772 -0.01294556 -0.02111207
v 0.04819684 -0.01292277 -0.01718670
v 0.04825433 -0.01293417 -0.01907372
v 0.04961005 -0.00325284 -0.01330583
v 0.04936709 -0.00323765 -0.01002133
v 0.04978067 -0.00326804 -0.01718670
v 0.04972318 -0.00326804 -0.01547769
v 0.04970278 -0.00326044 -0.01505934
v 0.04903141 -0.00321485 -0.00607815
v 0.04708408 -0.01261880 -0.00195695
v 0.04664083 -0.01250101 0.00232447
v 0.04329884 -0.02135023 0.00232447
v 0.03830995 -0.02939394 0.00232447
v 0.03183553 -0.03629777 0.00232447
v 0.03093049 -0.03750603 -0.00195695
v 0.04009594 -0.00000801 0.05075523
v 0.03998281 -0.00000801 0.05071072
v 0.03093049 -0.02626688 0.05083534
v 0.04959892 -0.00000801 -0.01505934
v 0.04526286 -0.00001180 -0.03911895
v 0.04453771 -0.00292228 -0.04001796
v 0.04670574 -0.00306667 -0.03708060
v 0.04776843 -0.00313506 -0.03488204
v 0.04535745 -0.00297548 -0.03911895
v 0.04821910 -0.00316545 -0.03359138
v 0.04856405 -0.00318825 -0.03259446
v 0.04913342 -0.00322625 -0.03025348
v 0.04951732 -0.00325284 -0.02789469
v 0.04311894 -0.01155492 -0.04001796
v 0.04384965 -0.00711321 -0.04001796
v 0.04974358 -0.00326804 -0.02556261
v 0.04985115 -0.00327184 -0.02329284
v 0.04987526 -0.00327564 -0.02111207
v 0.04984002 -0.00327184 -0.01907372
v 0.04950619 -0.00000801 -0.01330583
v 0.04942644 -0.00000801 -0.01221099
v 0.04926509 -0.00000801 -0.01002133
v 0.04964343 -0.00135685 -0.01505934
v 0.04958408 -0.00000801 -0.01474780
v 0.04973616 -0.00001180 -0.01907372
v 0.04965827 -0.00001180 -0.01661703
v 0.04961932 -0.00001180 -0.01547769
v 0.04892941 -0.00000801 -0.00607815
v 0.04863267 -0.00318825 -0.00195695
v 0.04817459 -0.00316165 0.00232447
v 0.04614565 -0.01236803 0.00673940
v 0.04283889 -0.02112606 0.00673940
v 0.03790380 -0.02907857 0.00673940
v 0.03149800 -0.03591021 0.00673940
v 0.03093049 -0.03687530 0.00282293
v 0.03093049 -0.02693181 0.05089764
v 0.04039638 -0.00000801 0.05080864
v 0.04976954 -0.00001180 -0.02111207
v 0.04974914 -0.00001180 -0.02329284
v 0.04964158 -0.00001180 -0.02556261
v 0.04941346 -0.00001180 -0.02789469
v 0.04928735 -0.00001180 -0.02868689
v 0.04903327 -0.00001180 -0.03025348
v 0.04846205 -0.00001180 -0.03259446
v 0.04811895 -0.00001180 -0.03359138
v 0.04766828 -0.00001180 -0.03488204
v 0.04660930 -0.00001180 -0.03708060
v 0.04853067 -0.00000801 -0.00195695
v 0.04837859 -0.00000801 -0.00052388
v 0.04807258 -0.00000801 0.00232447
v 0.04756442 -0.00000801 0.00673940
v 0.04766086 -0.00312746 0.00673940
v 0.04710263 -0.00308946 0.01131455
v 0.04560411 -0.01222365 0.01131455
v 0.04233630 -0.02087528 0.01131455
v 0.03745869 -0.02874041 0.01131455
v 0.03093049 -0.03631676 0.00673940
v 0.03112708 -0.03548846 0.01131455
v 0.03093049 -0.02710659 0.05088874
v 0.03267938 -0.02507382 0.05089764
v 0.04100654 -0.00000801 0.05089764
v 0.04085262 -0.00000801 0.05087984
v 0.04737711 -0.00000801 0.00827929
v 0.04700619 -0.00000801 0.01131455
v 0.04640715 -0.00000801 0.01601432
v 0.04650173 -0.00305147 0.01601432
v 0.04502176 -0.01206406 0.01601432
v 0.04179475 -0.02060551 0.01601432
v 0.03698206 -0.02837185 0.01601432
v 0.03093049 -0.03482353 0.01601432
v 0.03093049 -0.03562904 0.01131455
v 0.03093049 -0.03526428 0.01363773
v 0.03093049 -0.02745995 0.05085314
v 0.03296499 -0.02529039 0.05085314
v 0.03693755 -0.01821938 0.05089764
v 0.04109186 -0.00269431 0.05089764
v 0.04124393 -0.00000801 0.05087984
v 0.04576917 -0.00000801 0.02080310
v 0.04586190 -0.00300967 0.02080310
v 0.04440418 -0.01190068 0.02080310
v 0.04122168 -0.02032814 0.02080310
v 0.03647390 -0.02798429 0.02080310
v 0.03093049 -0.03389263 0.02080310
v 0.03093049 -0.02754354 0.05075523
v 0.03725839 -0.01837516 0.05085314
v 0.03309295 -0.02538918 0.05056831
v 0.03740305 -0.01844735 0.05056831
v 0.03978807 -0.01066202 0.05089764
v 0.04013488 -0.01075701 0.05085314
v 0.04144980 -0.00271710 0.05085314
v 0.04136448 -0.00000801 0.05085314
v 0.04509966 -0.00000801 0.02568979
v 0.04519238 -0.00296408 0.02568979
v 0.04375692 -0.01172590 0.02568979
v 0.04061893 -0.02003178 0.02568979
v 0.03594162 -0.02757394 0.02568979
v 0.03093049 -0.03291614 0.02568979
v 0.03093049 -0.02769172 0.05056831
v 0.03326543 -0.02552217 0.04909073
v 0.04029067 -0.01079500 0.05056831
v 0.03807627 -0.01878172 0.04545019
v 0.04160929 -0.00272850 0.05056831
v 0.04147205 -0.00000801 0.05066622
v 0.04486597 -0.00000801 0.02736320
v 0.04449691 -0.00291848 0.03066550
v 0.04307999 -0.01154732 0.03066550
v 0.03999764 -0.01971641 0.03066550
v 0.03538710 -0.02714838 0.03066550
v 0.03093049 -0.03189786 0.03066550
v 0.03093049 -0.02878600 0.04545019
v 0.03424281 -0.02627068 0.04066141
v 0.03870498 -0.01908948 0.04066141
v 0.04101211 -0.01099258 0.04545019
v 0.04168904 -0.01117116 0.04066141
v 0.04305959 -0.00282349 0.04066141
v 0.04235855 -0.00277790 0.04545019
v 0.04152213 -0.00000801 0.05056831
v 0.04166864 -0.00000801 0.04958029
v 0.04440232 -0.00000801 0.03066550
v 0.04368830 -0.00000801 0.03568571
v 0.04377732 -0.00287289 0.03568571
v 0.04238452 -0.01136114 0.03568571
v 0.03935038 -0.01941245 0.03568571
v 0.03481588 -0.02670763 0.03568571
v 0.03093049 -0.03085297 0.03568571
v 0.03093049 -0.02980049 0.04066141
v 0.04296872 -0.00000801 0.04066141
v 0.04273504 -0.00000801 0.04227250
v 0.04227138 -0.00000801 0.04545019
f 1 2 3
f 1 3 4
f 1 4 24
f 1 24 46
f 1 46 73
f 1 73 104
f 1 104 139
f 1 139 161
f 1 161 175
f 1 175 176
f 1 176 174
f 1 174 187
f 1 187 201
f 1 201 213
f 1 213 229
f 1 229 230
f 1 230 214
f 1 214 202
f 1 202 188
f 1 188 177
f 1 177 163
f 1 163 140
f 1 140 107
f 1 107 74
f 1 74 47
f 1 47 25
f 1 25 5
f 1 5 6
f 1 6 7
f 1 7 8
f 1 8 9
f 1 9 10
f 1 10 11
f 1 11 2
f 2 12 3
f 2 11 13
f 2 13 14
f 2 14 15
f 2 15 16
f 2 16 17
f 2 17 18
f 2 18 19
f 2 19 20
f 2 20 12
f 3 21 22
f 3 22 23
f 3 23 24
f 3 24 4
f 3 12 21
f 5 25 6
f 6 26 29
f 6 29 7
f 6 25 26
f 7 27 28
f 7 28 8
f 7 29 30
f 7 30 31
f 7 31 27
f 8 28 9
f 9 28 32
f 9 32 10
f 10 32 11
f 11 32 33
f 11 33 34
f 11 34 13
f 12 20 35
f 12 35 21
f 13 34 14
f 14 34 36
f 14 36 15
f 15 37 16
f 15 36 37
f 16 37 17
f 17 37 18
f 18 37 38
f 18 38 39
f 18 39 19
f 19 39 35
f 19 35 20
f 21 35 40
f 21 40 41
f 21 41 42
f 21 42 22
f 22 42 43
f 22 43 44
f 22 44 45
f 22 45 23
f 23 45 24
f 24 45 46
f 25 47 48
f 25 48 49
f 25 49 26
f 26 49 78
f 26 78 110
f 26 110 119
f 26 119 118
f 26 118 86
f 26 86 57
f 26 57 29
f 27 31 50
f 27 50 51
f 27 51 52
f 27 52 53
f 27 53 28
f 28 54 55
f 28 55 32
f 28 53 56
f 28 56 54
f 29 57 30
f 30 58 31
f 30 57 58
f 31 58 50
f 32 55 59
f 32 59 33
f 33 59 34
f 34 59 60
f 34 60 61
f 34 61 36
f 35 39 62
f 35 62 63
f 35 63 40
f 36 61 37
f 37 64 65
f 37 65 38
f 37 61 64
f 38 65 62
f 38 62 39
f 40 66 41
f 40 63 67
f 40 67 66
f 41 66 42
f 42 66 68
f 42 68 69
f 42 69 43
f 43 69 70
f 43 70 44
f 44 70 71
f 44 71 72
f 44 72 45
f 45 73 46
f 45 72 73
f 47 74 75
f 47 75 76
f 47 76 48
f 48 77 49
f 48 76 75
f 48 75 106
f 48 106 105
f 48 105 141
f 48 141 166
f 48 166 165
f 48 165 181
f 48 181 195
f 48 195 207
f 48 207 221
f 48 221 222
f 48 222 233
f 48 233 232
f 48 232 231
f 48 231 224
f 48 224 223
f 48 223 208
f 48 208 196
f 48 196 182
f 48 182 169
f 48 169 168
f 48 168 167
f 48 167 155
f 48 155 154
f 48 154 153
f 48 153 152
f 48 152 132
f 48 132 126
f 48 126 125
f 48 125 124
f 48 124 128
f 48 128 108
f 48 108 77
f 49 77 108
f 49 108 78
f 50 79 51
f 50 58 79
f 51 53 52
f 51 79 53
f 53 79 80
f 53 80 81
f 53 81 82
f 53 82 83
f 53 83 56
f 54 83 55
f 54 56 83
f 55 84 85
f 55 85 59
f 55 83 84
f 57 86 87
f 57 87 58
f 58 87 80
f 58 80 79
f 59 85 88
f 59 88 60
f 60 88 61
f 61 89 90
f 61 90 64
f 61 88 89
f 62 91 67
f 62 67 63
f 62 65 91
f 64 90 65
f 65 90 92
f 65 92 91
f 66 67 93
f 66 93 94
f 66 94 68
f 67 91 95
f 67 95 96
f 67 96 97
f 67 97 93
f 68 94 98
f 68 98 69
f 69 98 99
f 69 99 70
f 70 99 100
f 70 100 101
f 70 101 102
f 70 102 71
f 71 102 72
f 72 102 103
f 72 103 104
f 72 104 73
f 74 105 106
f 74 106 75
f 74 107 105
f 78 108 109
f 78 109 110
f 80 111 112
f 80 112 81
f 80 87 113
f 80 113 111
f 81 112 82
f 82 114 83
f 82 112 114
f 83 114 115
f 83 115 84
f 84 115 116
f 84 116 117
f 84 117 85
f 85 117 88
f 86 118 87
f 87 118 119
f 87 119 113
f 88 117 120
f 88 120 121
f 88 121 89
f 89 121 122
f 89 122 90
f 90 122 92
f 91 92 123
f 91 123 95
f 92 122 123
f 93 124 125
f 93 125 126
f 93 126 94
f 93 97 127
f 93 127 128
f 93 128 124
f 94 126 98
f 95 123 129
f 95 129 130
f 95 130 96
f 96 130 131
f 96 131 127
f 96 127 97
f 98 126 132
f 98 132 133
f 98 133 99
f 99 133 134
f 99 134 100
f 100 134 135
f 100 135 136
f 100 136 101
f 101 136 102
f 102 136 137
f 102 137 138
f 102 138 103
f 103 138 139
f 103 139 104
f 105 107 140
f 105 140 141
f 108 128 131
f 108 131 130
f 108 130 129
f 108 129 142
f 108 142 143
f 108 143 144
f 108 144 145
f 108 145 146
f 108 146 147
f 108 147 148
f 108 148 149
f 108 149 150
f 108 150 151
f 108 151 109
f 109 113 110
f 109 151 113
f 110 113 119
f 111 113 151
f 111 151 112
f 112 151 150
f 112 150 149
f 112 149 114
f 114 149 115
f 115 148 147
f 115 147 116
f 115 149 148
f 116 147 117
f 117 145 144
f 117 144 120
f 117 147 146
f 117 146 145
f 120 144 143
f 120 143 121
f 121 143 122
f 122 143 142
f 122 142 129
f 122 129 123
f 127 131 128
f 132 152 133
f 133 152 153
f 133 153 134
f 134 153 154
f 134 154 155
f 134 155 156
f 134 156 135
f 135 156 157
f 135 157 158
f 135 158 136
f 136 158 159
f 136 159 160
f 136 160 137
f 137 160 138
f 138 161 139
f 138 160 162
f 138 162 161
f 140 163 164
f 140 164 179
f 140 179 192
f 140 192 180
f 140 180 165
f 140 165 166
f 140 166 141
f 155 167 156
f 156 167 157
f 157 167 168
f 157 168 169
f 157 169 170
f 157 170 158
f 158 170 171
f 158 171 159
f 159 171 172
f 159 172 173
f 159 173 160
f 160 173 174
f 160 174 162
f 161 162 175
f 162 174 176
f 162 176 175
f 163 177 178
f 163 178 164
f 164 178 179
f 165 180 181
f 169 182 170
f 170 182 183
f 170 183 184
f 170 184 171
f 171 184 185
f 171 185 172
f 172 185 173
f 173 185 186
f 173 186 174
f 174 186 187
f 177 188 178
f 178 189 179
f 178 188 190
f 178 190 191
f 178 191 189
f 179 189 193
f 179 193 192
f 180 192 193
f 180 193 194
f 180 194 181
f 181 194 195
f 182 196 197
f 182 197 183
f 183 197 198
f 183 198 184
f 184 198 185
f 185 198 199
f 185 199 186
f 186 199 200
f 186 200 201
f 186 201 187
f 188 202 190
f 189 191 193
f 190 202 203
f 190 203 191
f 191 204 193
f 191 203 205
f 191 205 204
f 193 204 194
f 194 204 206
f 194 206 207
f 194 207 195
f 196 208 209
f 196 209 197
f 197 209 198
f 198 209 210
f 198 210 211
f 198 211 199
f 199 211 200
f 200 211 212
f 200 212 201
f 201 212 213
f 202 214 203
f 203 214 215
f 203 215 216
f 203 216 205
f 204 205 216
f 204 216 217
f 204 217 218
f 204 218 219
f 204 219 220
f 204 220 206
f 206 221 207
f 206 220 219
f 206 219 222
f 206 222 221
f 208 223 209
f 209 223 224
f 209 224 225
f 209 225 226
f 209 226 210
f 210 226 227
f 210 227 211
f 211 227 212
f 212 227 228
f 212 228 229
f 212 229 213
f 214 230 215
f 215 230 229
f 215 229 228
f 215 228 227
f 215 227 216
f 216 227 218
f 216 218 217
f 218 227 226
f 218 226 219
f 219 226 225
f 219 225 224
f 219 224 231
f 219 231 232
f 219 232 233
f 219 233 222

