# https://github.com/mikedh/trimesh
v -0.01244148 0.00039989 0.00202863
v -0.01208580 0.00039989 0.00306713
v -0.01204195 0.00145578 0.00306509
v -0.01194207 0.00357458 0.00305816
v -0.01235621 0.00145578 0.00202863
v -0.01208824 0.00039989 0.00097137
v -0.01243173 -0.00065951 0.00202863
v -0.01207849 -0.00065951 0.00306713
v -0.01110890 0.00039989 0.00357945
v -0.01110890 0.00145578 0.00357701
v -0.01110890 0.00251518 0.00357416
v -0.01110890 0.00357458 0.00357008
v -0.01110890 -0.00277130 0.00357334
v -0.01110890 -0.00171190 0.00357660
v -0.01110890 -0.00065951 0.00357905
v -0.01110890 0.00463048 0.00352158
v -0.01185680 0.00463048 0.00300966
v -0.01200053 0.00145578 0.00097137
v -0.01215645 0.00357458 0.00202863
v -0.01185193 0.00357458 0.00107164
v -0.01168627 0.00145578 0.00034860
v -0.01173012 0.00039989 0.00026912
v -0.01207605 -0.00065951 0.00097137
v -0.01202977 -0.00171190 0.00306469
v -0.01183731 -0.00383070 0.00110384
v -0.01223197 -0.00277130 0.00202863
v -0.01192989 -0.00383070 0.00305653
v -0.01110890 -0.00383070 0.00356845
v -0.01004917 0.00568988 0.00358149
v -0.01004917 -0.00594599 0.00358108
v -0.01004917 0.00674577 0.00357823
v -0.01004917 0.00780517 0.00355622
v -0.01087503 0.00780517 0.00304431
v -0.01171794 0.00568988 0.00276634
v -0.01162049 0.00286598 0.00047617
v -0.01198348 0.00463048 0.00202863
v -0.01176179 0.00463048 0.00125179
v -0.01158639 0.00357458 0.00054260
v -0.01165216 0.00216088 0.00041096
v -0.01096029 0.00463048 -0.00003371
v -0.01105774 0.00357458 -0.00006632
v -0.01110890 0.00039989 -0.00024320
v -0.01110890 -0.00065951 -0.00023220
v -0.01172281 -0.00065951 0.00028012
v -0.01167409 -0.00171190 0.00037101
v -0.01164485 -0.00232929 0.00042604
v -0.01197617 -0.00171190 0.00097137
v -0.01197861 -0.00277130 0.00306142
v -0.01212965 -0.00383070 0.00202863
v -0.01184218 -0.00271868 0.00089516
v -0.01161075 -0.00303439 0.00049206
v -0.01156690 -0.00383070 0.00057480
v -0.01173743 -0.00488659 0.00130722
v -0.01183244 -0.00488659 0.00297746
v -0.01110890 -0.00488659 0.00348938
v -0.01004917 -0.00806129 0.00353014
v -0.01004917 -0.00700188 0.00357619
v -0.00370297 0.01415456 0.00358190
v -0.00793458 0.00992046 0.00358108
v -0.00899187 0.00886457 0.00358027
v -0.00793458 -0.01017658 0.00358190
v -0.00899187 -0.00912069 0.00357864
v -0.00793458 0.01097986 0.00357905
v -0.00899187 0.00992046 0.00354400
v -0.00987133 0.00992046 0.00303167
v -0.01072399 0.00864357 0.00286946
v -0.01163755 0.00622659 0.00256540
v -0.01163755 0.00622659 0.00254584
v -0.01172768 0.00566883 0.00212726
v -0.01167896 0.00530400 0.00142175
v -0.01148894 0.00463048 0.00072275
v -0.01080925 0.00568988 0.00009060
v -0.01004917 0.00568988 -0.00042132
v -0.01004917 0.00463048 -0.00054603
v -0.01004917 0.00357458 -0.00057823
v -0.01004917 0.00251518 -0.00058027
v -0.01004917 0.00145578 -0.00058149
v -0.01004917 0.00039989 -0.00058190
v -0.01004917 -0.00065951 -0.00058190
v -0.01004917 -0.00171190 -0.00058108
v -0.01004917 -0.00277130 -0.00057986
v -0.01004917 -0.00383070 -0.00057579
v -0.01004917 -0.00488659 -0.00052647
v -0.01103825 -0.00383070 -0.00006387
v -0.01193232 -0.00488659 0.00202863
v -0.01171794 -0.00568991 0.00278672
v -0.01092862 -0.00488659 -0.00001455
v -0.01145727 -0.00488659 0.00077818
v -0.01165460 -0.00547242 0.00146862
v -0.01083361 -0.00806129 0.00301822
v -0.01011251 -0.00914875 0.00313234
v -0.00899187 -0.01017658 0.00349549
v -0.00793458 -0.01123598 0.00357701
v -0.00158594 0.01521045 0.00358190
v -0.00264324 0.01521045 0.00358108
v -0.00581755 0.01309516 0.00358108
v -0.00687485 0.01203576 0.00358068
v -0.00687485 -0.01229187 0.00357823
v -0.00581755 -0.01335127 0.00357905
v -0.00476026 -0.01335127 0.00358190
v -0.00581755 0.01415456 0.00349590
v -0.00687485 0.01309516 0.00346778
v -0.00793458 0.01203576 0.00343069
v -0.00906252 0.01102196 0.00314090
v -0.00965695 0.01069923 0.00285071
v -0.01049011 0.00922238 0.00202863
v -0.01074835 0.00869268 0.00202863
v -0.01107723 0.00780517 0.00202863
v -0.01157421 0.00600910 0.00184033
v -0.01066064 0.00850676 0.00135083
v -0.01078002 0.00780517 0.00112829
v -0.01092619 0.00684750 0.00086907
v -0.01135982 0.00566883 0.00103006
v -0.01068013 0.00655985 0.00026993
v -0.00995416 0.00780517 -0.00003371
v -0.00899187 0.00886457 -0.00033206
v -0.00899187 0.00780517 -0.00054563
v -0.00899187 0.00674577 -0.00058068
v -0.00899187 0.00568988 -0.00058190
v -0.00899187 -0.00594599 -0.00058190
v -0.00899187 -0.00700188 -0.00057986
v -0.00899187 -0.00806129 -0.00051343
v -0.01004917 -0.00594599 -0.00037404
v -0.01171063 -0.00566535 0.00202863
v -0.01155472 -0.00619506 0.00202863
v -0.01131354 -0.00700188 0.00202863
v -0.01098953 -0.00806129 0.00202863
v -0.01069475 -0.00881549 0.00283685
v -0.00990056 -0.00806129 -0.00000151
v -0.01077027 -0.00594599 0.00013788
v -0.01065577 -0.00673177 0.00030988
v -0.01055102 -0.00743687 0.00049532
v -0.01087990 -0.00705099 0.00089719
v -0.01073373 -0.00806129 0.00121510
v -0.01062654 -0.00868219 0.00141971
v -0.00980068 -0.01017658 0.00298358
v -0.00903572 -0.01122896 0.00310178
v -0.00802715 -0.01238659 0.00316576
v -0.00687485 -0.01335127 0.00332676
v -0.00370297 -0.01866231 0.00287190
v -0.00581755 -0.01441067 0.00337159
v 0.00158594 0.01521045 0.00358190
v -0.00052865 0.01626985 0.00354726
v -0.00370297 0.01521045 0.00356234
v -0.00476026 0.01415456 0.00357986
v -0.00476026 -0.01441067 0.00357579
v -0.00264324 -0.01546656 0.00357782
v -0.00370297 -0.01441067 0.00358027
v -0.00158594 -0.01546656 0.00357905
v 0.00476026 -0.01335127 0.00358190
v -0.00683343 0.01410194 0.00301537
v -0.00482847 0.01529464 0.00315517
v -0.00581755 0.01499296 0.00298439
v -0.00787855 0.01302851 0.00296361
v -0.00872633 0.01203576 0.00292000
v -0.00851926 0.01262860 0.00270276
v -0.00937922 0.01125348 0.00202863
v -0.01011007 0.00992046 0.00202863
v -0.00958386 0.01056593 0.00139933
v -0.01025624 0.00886106 0.00098768
v -0.00972029 0.00886457 0.00017864
v -0.01048280 0.00780517 0.00059926
v -0.01057538 0.00726495 0.00044805
v -0.00900405 0.00985381 0.00004495
v -0.00793458 0.01097986 -0.00026073
v -0.00793458 0.00992046 -0.00052362
v -0.00687485 0.01097986 -0.00057130
v -0.00793458 0.00886457 -0.00058068
v -0.00793458 0.00780517 -0.00058190
v -0.00793458 -0.00806129 -0.00058190
v -0.00687485 -0.01017658 -0.00058190
v -0.00793458 -0.00912069 -0.00057945
v -0.00264324 -0.01866231 -0.00057945
v -0.00793458 -0.01017658 -0.00048408
v -0.01069962 -0.00882953 0.00202863
v -0.00961066 -0.01087115 0.00278835
v -0.00909176 -0.00921189 -0.00011686
v -0.00883109 -0.01017658 0.00002783
v -0.00970323 -0.00892424 0.00018964
v -0.01042921 -0.00806129 0.00068607
v -0.00951078 -0.00962934 0.00045946
v -0.00953757 -0.01073785 0.00147392
v -0.01041946 -0.00935572 0.00202863
v -0.00871171 -0.01209192 0.00289310
v -0.00427546 -0.01866231 0.00261350
v -0.00264324 -0.01866231 0.00307895
v 0.00370297 0.01415456 0.00358190
v 0.00264324 0.01521045 0.00358108
v 0.00052865 0.01626985 0.00354726
v -0.00052865 0.01704160 0.00303534
v -0.00158594 0.01626985 0.00345107
v -0.00264324 0.01626985 0.00322975
v -0.00359821 0.01626283 0.00295749
v -0.00370297 -0.01546656 0.00352810
v -0.00052865 -0.01652597 0.00352565
v 0.00158594 -0.01546656 0.00357905
v 0.00581755 -0.01335127 0.00357905
v 0.00793458 -0.01017658 0.00358190
v 0.00370297 -0.01441067 0.00358027
v -0.00748633 0.01371256 0.00274922
v -0.00645339 0.01477897 0.00278794
v -0.00452152 0.01590853 0.00287353
v -0.00851926 0.01262860 0.00232290
v -0.00880673 0.01211995 0.00199357
v -0.00842912 0.01252687 0.00161738
v -0.00936461 0.01016251 0.00069381
v -0.00973490 0.00985381 0.00101621
v -0.00863132 0.01174459 0.00097137
v -0.00846566 0.01150956 0.00043908
v -0.00955706 0.00945741 0.00038569
v -0.00861183 0.01097986 0.00024100
v -0.00784688 0.01193403 0.00022103
v -0.00687485 0.01203576 -0.00033858
v -0.00581755 0.01309516 -0.00036140
v -0.00581755 0.01203576 -0.00057579
v -0.00687485 0.00992046 -0.00058190
v -0.00158594 -0.01866231 -0.00058190
v -0.00368348 -0.01866231 -0.00028396
v -0.00370297 -0.01866231 -0.00027785
v -0.00931101 -0.01137980 0.00202863
v -0.00877993 -0.01218312 0.00202863
v -0.00440458 -0.01866231 0.00202863
v -0.00427790 -0.01866231 0.00260331
v -0.00431932 -0.01866231 0.00022266
v -0.00432906 -0.01866231 0.00023162
v -0.00861183 -0.01095885 0.00022755
v -0.00935973 -0.01017658 0.00069993
v -0.00158594 -0.01866231 0.00308425
v 0.01004917 0.00568988 0.00358149
v 0.00793458 0.00992046 0.00358108
v 0.00581755 0.01309516 0.00358108
v 0.00476026 0.01415456 0.00357986
v 0.00370297 0.01521045 0.00356234
v 0.00158594 0.01626985 0.00345107
v 0.00052865 0.01704160 0.00303534
v -0.00052865 0.01717490 0.00202863
v -0.00158594 0.01694688 0.00293915
v -0.00264324 0.01685217 0.00271825
v -0.00317676 0.01679955 0.00256703
v -0.00054814 -0.01866231 0.00308588
v 0.00052865 -0.01652597 0.00352565
v 0.00264324 -0.01546656 0.00357782
v 0.00793458 -0.01123598 0.00357701
v 0.00687485 -0.01229187 0.00357823
v 0.00476026 -0.01441067 0.00357579
v 0.00581755 -0.01441067 0.00337159
v 0.00899187 -0.00912069 0.00357864
v 0.01004917 -0.00594599 0.00358108
v -0.00748633 0.01371256 0.00223690
v -0.00581755 0.01517888 0.00202863
v -0.00643878 0.01476494 0.00202863
v -0.00704782 0.01410194 0.00194222
v -0.00739619 0.01361433 0.00153179
v -0.00819768 0.01227430 0.00097137
v -0.00743517 0.01260054 0.00040362
v -0.00640223 0.01368449 0.00037427
v -0.00680420 0.01301097 0.00017823
v -0.00581755 0.01390900 0.00014440
v -0.00483335 0.01424225 -0.00009159
v -0.00370297 0.01415456 -0.00048816
v -0.00476026 0.01309516 -0.00057253
v -0.00264324 0.01415456 -0.00057986
v -0.00370297 0.01309516 -0.00058190
v -0.00581755 0.01097986 -0.00058190
v 0.00158594 -0.01866231 -0.00058190
v -0.00445818 -0.01866231 0.00097137
v 0.01110890 0.00039989 0.00357945
v 0.01110890 0.00145578 0.00357701
v 0.01110890 0.00251518 0.00357416
v 0.01004917 0.00674577 0.00357823
v 0.00899187 0.00886457 0.00358027
v 0.00687485 0.01203576 0.00358068
v 0.00581755 0.01415456 0.00349590
v 0.00482847 0.01529464 0.00315517
v 0.00359821 0.01626283 0.00295749
v 0.00264324 0.01626985 0.00322975
v 0.00158594 0.01694688 0.00293915
v 0.00052865 0.01717140 0.00202863
v 0.00052865 0.01692935 0.00130966
v -0.00052865 0.01692935 0.00130966
v -0.00137156 0.01685568 0.00141767
v -0.00207561 0.01679253 0.00152812
v -0.00264324 0.01685217 0.00230415
v -0.00317676 0.01679955 0.00254421
v 0.00052865 -0.01866231 0.00308588
v 0.00370297 -0.01546656 0.00352810
v 0.00158594 -0.01866231 0.00308425
v 0.00264324 -0.01866231 0.00307895
v 0.00370297 -0.01866231 0.00287190
v 0.00687485 -0.01335127 0.00332676
v 0.00899187 -0.01017658 0.00349549
v 0.01004917 -0.00806129 0.00353014
v 0.00368348 -0.01866231 0.00287598
v 0.01004917 -0.00700188 0.00357619
v 0.01110890 -0.00383070 0.00356845
v 0.01110890 -0.00277130 0.00357334
v 0.01110890 -0.00171190 0.00357660
v 0.01110890 -0.00065951 0.00357905
v -0.00508914 0.01562439 0.00202863
v -0.00636082 0.01469478 0.00148207
v -0.00766660 0.01284960 0.00097137
v -0.00659469 0.01408440 0.00106634
v -0.00581755 0.01443870 0.00072357
v -0.00523531 0.01465269 0.00048269
v -0.00453126 0.01485615 0.00022306
v -0.00362257 0.01521045 0.00008693
v -0.00264324 0.01521045 -0.00019796
v -0.00158594 0.01521045 -0.00034225
v -0.00052865 0.01521045 -0.00045392
v -0.00158594 0.01415456 -0.00058190
v 0.00264324 -0.01866231 -0.00057945
v 0.00687485 -0.01017658 -0.00058190
v 0.01208580 0.00039989 0.00306713
v 0.01110890 0.00357458 0.00357008
v 0.01004917 0.00780517 0.00355622
v 0.00793458 0.01097986 0.00357905
v 0.00581755 0.01499296 0.00298439
v 0.00687485 0.01309516 0.00346778
v 0.00683343 0.01410194 0.00301537
v 0.00452152 0.01590853 0.00287353
v 0.00317676 0.01679955 0.00256703
v 0.00264324 0.01685217 0.00271825
v 0.00166877 0.01695039 0.00193977
v 0.00207561 0.01679253 0.00152812
v 0.00137156 0.01685568 0.00141767
v 0.00317676 0.01679955 0.00254421
v 0.00264324 0.01685217 0.00230415
v 0.00052865 0.01656101 0.00078063
v -0.00052865 0.01656101 0.00078063
v -0.00166877 0.01652944 0.00102762
v -0.00264324 0.01629792 0.00097137
v -0.00264324 0.01673641 0.00177511
v -0.00359821 0.01648033 0.00212644
v -0.00456050 0.01592958 0.00202863
v 0.00426572 -0.01866231 0.00261839
v 0.00802715 -0.01238659 0.00316576
v 0.00903572 -0.01122896 0.00310178
v 0.00980068 -0.01017658 0.00298358
v 0.01011251 -0.00914875 0.00313234
v 0.01083361 -0.00806129 0.00301822
v 0.01110890 -0.00488659 0.00348938
v 0.01192989 -0.00383070 0.00305653
v 0.01197861 -0.00277130 0.00306142
v 0.01202977 -0.00171190 0.00306469
v 0.01207849 -0.00065951 0.00306713
v -0.00438022 0.01582434 0.00138506
v -0.00581755 0.01486667 0.00125260
v -0.00480898 0.01523851 0.00093388
v -0.00321817 0.01576471 0.00040810
v -0.00264324 0.01583136 0.00031191
v -0.00158594 0.01593660 0.00016967
v -0.00052865 0.01603131 0.00005799
v 0.00052865 0.01521045 -0.00045392
v 0.00158594 0.01415456 -0.00058190
v 0.00370297 -0.01866231 -0.00027785
v 0.00793458 -0.00912069 -0.00057945
v 0.00899187 -0.00806129 -0.00051343
v 0.00793458 -0.01017658 -0.00048408
v 0.00793458 -0.00806129 -0.00058190
v 0.00899187 -0.00700188 -0.00057986
v 0.01244148 0.00039989 0.00202863
v 0.01204195 0.00145578 0.00306509
v 0.01194207 0.00357458 0.00305816
v 0.01110890 0.00463048 0.00352158
v 0.01087503 0.00780517 0.00304431
v 0.00987133 0.00992046 0.00303167
v 0.00899187 0.00992046 0.00354400
v 0.00645339 0.01477897 0.00278794
v 0.00793458 0.01203576 0.00343069
v 0.00787855 0.01302851 0.00296361
v 0.00748633 0.01371256 0.00274922
v 0.00581755 0.01517888 0.00202863
v 0.00264324 0.01673641 0.00177511
v 0.00264324 0.01629792 0.00097137
v 0.00166877 0.01652944 0.00102762
v 0.00456050 0.01592958 0.00202863
v 0.00359821 0.01648033 0.00212644
v 0.00508914 0.01562439 0.00202863
v 0.00158594 0.01593660 0.00017008
v 0.00052865 0.01603131 0.00005799
v -0.00362257 0.01597167 0.00100806
v 0.00427546 -0.01866231 0.00261350
v 0.00871171 -0.01209192 0.00289310
v 0.00961066 -0.01087115 0.00278835
v 0.01069475 -0.00881549 0.00283685
v 0.01171794 -0.00568991 0.00278672
v 0.01183244 -0.00488659 0.00297746
v 0.01212965 -0.00383070 0.00202863
v 0.01223197 -0.00277130 0.00202863
v 0.01243173 -0.00065951 0.00202863
v -0.00392222 0.01556124 0.00067996
v 0.00158594 0.01521045 -0.00034225
v 0.00370297 0.01415456 -0.00048816
v 0.00264324 0.01415456 -0.00057986
v 0.00370297 0.01309516 -0.00058190
v 0.00432906 -0.01866231 0.00023162
v 0.00883109 -0.01017658 0.00002783
v 0.01004917 -0.00488659 -0.00052647
v 0.01004917 -0.00594599 -0.00037404
v 0.00990056 -0.00806129 -0.00000151
v 0.00909176 -0.00921189 -0.00011686
v 0.00899187 -0.00594599 -0.00058190
v 0.01004917 -0.00277130 -0.00057986
v 0.01004917 -0.00383070 -0.00057579
v 0.01208824 0.00039989 0.00097137
v 0.01235621 0.00145578 0.00202863
v 0.01185680 0.00463048 0.00300966
v 0.01072399 0.00864357 0.00286946
v 0.01171794 0.00568988 0.00276634
v 0.00965695 0.01069923 0.00285071
v 0.00906252 0.01102196 0.00314090
v 0.00748633 0.01371256 0.00223690
v 0.00643878 0.01476494 0.00202863
v 0.00872633 0.01203576 0.00292000
v 0.00851926 0.01262860 0.00270276
v 0.00636082 0.01469478 0.00148207
v 0.00438022 0.01582434 0.00138506
v 0.00362257 0.01597167 0.00100806
v 0.00321817 0.01576471 0.00040810
v 0.00264324 0.01583136 0.00031191
v 0.00264324 0.01521045 -0.00019796
v 0.00440458 -0.01866231 0.00202863
v 0.00931101 -0.01137980 0.00202863
v 0.01041946 -0.00935572 0.00202863
v 0.01069962 -0.00882953 0.00202863
v 0.00877993 -0.01218312 0.00202863
v 0.01098953 -0.00806129 0.00202863
v 0.01131354 -0.00700188 0.00202863
v 0.01155472 -0.00619506 0.00202863
v 0.01171063 -0.00566535 0.00202863
v 0.01193232 -0.00488659 0.00202863
v 0.01173743 -0.00488659 0.00130722
v 0.01183731 -0.00383070 0.00110384
v 0.01207605 -0.00065951 0.00097137
v 0.00362257 0.01521045 0.00008693
v 0.00483335 0.01424225 -0.00009159
v 0.00581755 0.01309516 -0.00036140
v 0.00476026 0.01309516 -0.00057253
v 0.00581755 0.01203576 -0.00057579
v 0.00581755 0.01097986 -0.00058190
v 0.00433150 -0.01866231 0.00024507
v 0.00970323 -0.00892424 0.00018964
v 0.00861183 -0.01095885 0.00022755
v 0.00951078 -0.00962934 0.00045946
v 0.00935973 -0.01017658 0.00069993
v 0.00953757 -0.01073785 0.00147392
v 0.01103825 -0.00383070 -0.00006387
v 0.01092862 -0.00488659 -0.00001455
v 0.01110890 -0.00065951 -0.00023220
v 0.01077027 -0.00594599 0.00013788
v 0.01065577 -0.00673177 0.00030988
v 0.01055102 -0.00743687 0.00049532
v 0.01004917 -0.00171190 -0.00058108
v 0.01004917 -0.00065951 -0.00058190
v 0.01110890 0.00039989 -0.00024320
v 0.01173012 0.00039989 0.00026912
v 0.01168627 0.00145578 0.00034860
v 0.01200053 0.00145578 0.00097137
v 0.01185193 0.00357458 0.00107164
v 0.01215645 0.00357458 0.00202863
v 0.01074835 0.00869268 0.00202863
v 0.01049011 0.00922238 0.00202863
v 0.01163755 0.00622659 0.00256540
v 0.01198348 0.00463048 0.00202863
v 0.00937922 0.01125348 0.00202863
v 0.01011007 0.00992046 0.00202863
v 0.00851926 0.01262860 0.00232290
v 0.00704782 0.01410194 0.00194222
v 0.00581755 0.01443870 0.00072357
v 0.00523531 0.01465269 0.00048269
v 0.00581755 0.01486667 0.00125260
v 0.00739619 0.01361433 0.00153179
v 0.00766660 0.01284960 0.00097137
v 0.00659469 0.01408440 0.00106634
v 0.00640223 0.01368449 0.00037427
v 0.00480898 0.01523851 0.00093388
v 0.00392222 0.01556124 0.00067996
v 0.00453126 0.01485615 0.00022266
v 0.00445818 -0.01866231 0.00099053
v 0.00445818 -0.01866231 0.00097137
v 0.01062654 -0.00868219 0.00141971
v 0.01165460 -0.00547242 0.00146862
v 0.01145727 -0.00488659 0.00077818
v 0.01156690 -0.00383070 0.00057480
v 0.01161075 -0.00303439 0.00049206
v 0.01184218 -0.00271868 0.00089516
v 0.01197617 -0.00171190 0.00097137
v 0.01164485 -0.00232929 0.00042604
v 0.01167409 -0.00171190 0.00037101
v 0.01172281 -0.00065951 0.00028012
v 0.00581755 0.01390900 0.00014440
v 0.00680420 0.01301097 0.00017823
v 0.00687485 0.01203576 -0.00033817
v 0.00687485 0.01097986 -0.00057130
v 0.00793458 0.00886457 -0.00058068
v 0.00687485 0.00992046 -0.00058190
v 0.01042921 -0.00806129 0.00068607
v 0.01087990 -0.00705099 0.00089719
v 0.01073373 -0.00806129 0.00121510
v 0.01004917 0.00039989 -0.00058190
v 0.01004917 0.00145578 -0.00058149
v 0.01004917 0.00251518 -0.00058027
v 0.01004917 0.00357458 -0.00057823
v 0.01004917 0.00463048 -0.00054603
v 0.01105774 0.00357458 -0.00006632
v 0.01165216 0.00216088 0.00041055
v 0.01162049 0.00286598 0.00047617
v 0.01096029 0.00463048 -0.00003371
v 0.01158639 0.00357458 0.00054260
v 0.01176179 0.00463048 0.00125179
v 0.01107723 0.00780517 0.00202863
v 0.01066064 0.00850676 0.00135083
v 0.00958386 0.01056593 0.00139933
v 0.01163755 0.00622659 0.00254584
v 0.01167896 0.00530400 0.00142175
v 0.01172768 0.00566883 0.00212726
v 0.00842912 0.01252687 0.00161738
v 0.00880673 0.01211995 0.00199357
v 0.00819525 0.01227430 0.00097137
v 0.00743517 0.01260054 0.00040362
v 0.00784688 0.01193403 0.00022103
v 0.00793458 0.01097986 -0.00026073
v 0.00793458 0.00992046 -0.00052362
v 0.00899187 0.00780517 -0.00054563
v 0.00899187 0.00674577 -0.00058068
v 0.00899187 0.00568988 -0.00058190
v 0.00793458 0.00780517 -0.00058190
v 0.01004917 0.00568988 -0.00042132
v 0.01148894 0.00463048 0.00072275
v 0.01080925 0.00568988 0.00009060
v 0.01157421 0.00600910 0.00184033
v 0.00972029 0.00886457 0.00017864
v 0.01025624 0.00886106 0.00098768
v 0.01078002 0.00780517 0.00112829
v 0.01048280 0.00780517 0.00059926
v 0.00973490 0.00985381 0.00101621
v 0.00936461 0.01016251 0.00069381
v 0.00846566 0.01150956 0.00043908
v 0.00863132 0.01174459 0.00097137
v 0.01135982 0.00566883 0.00103006
v 0.01092619 0.00684750 0.00086907
v 0.00861183 0.01097986 0.00024100
v 0.00900405 0.00985381 0.00004495
v 0.00899187 0.00886457 -0.00033206
v 0.00995416 0.00780517 -0.00003371
v 0.01068013 0.00655985 0.00026993
v 0.01057538 0.00726495 0.00044805
v 0.00955706 0.00945741 0.00038569
f 1 2 3
f 1 3 4
f 1 4 5
f 1 5 6
f 1 6 7
f 1 7 8
f 1 8 2
f 2 9 10
f 2 10 11
f 2 11 12
f 2 12 3
f 2 8 13
f 2 13 14
f 2 14 15
f 2 15 9
f 3 12 4
f 4 12 16
f 4 16 17
f 4 17 5
f 5 18 6
f 5 17 19
f 5 19 20
f 5 20 18
f 6 18 21
f 6 21 22
f 6 22 23
f 6 23 7
f 7 24 8
f 7 23 25
f 7 25 26
f 7 26 27
f 7 27 24
f 8 24 28
f 8 28 13
f 9 29 10
f 9 15 30
f 9 30 29
f 10 29 11
f 11 29 31
f 11 31 12
f 12 31 32
f 12 32 16
f 13 28 30
f 13 30 14
f 14 30 15
f 16 32 33
f 16 33 17
f 17 34 19
f 17 33 34
f 18 20 35
f 18 35 21
f 19 34 36
f 19 36 37
f 19 37 20
f 20 37 38
f 20 38 35
f 21 35 39
f 21 39 40
f 21 40 41
f 21 41 22
f 22 41 42
f 22 42 43
f 22 43 44
f 22 44 23
f 23 44 45
f 23 45 46
f 23 46 47
f 23 47 25
f 24 27 48
f 24 48 28
f 25 49 26
f 25 47 50
f 25 50 51
f 25 51 52
f 25 52 53
f 25 53 49
f 26 49 27
f 27 28 48
f 27 49 54
f 27 54 55
f 27 55 28
f 28 55 56
f 28 56 57
f 28 57 30
f 29 58 59
f 29 59 60
f 29 60 31
f 29 30 61
f 29 61 58
f 30 57 62
f 30 62 61
f 31 60 32
f 32 60 63
f 32 63 64
f 32 64 65
f 32 65 33
f 33 65 66
f 33 66 34
f 34 67 36
f 34 66 67
f 35 38 40
f 35 40 39
f 36 67 68
f 36 68 69
f 36 69 70
f 36 70 37
f 37 70 71
f 37 71 38
f 38 71 40
f 40 71 72
f 40 72 73
f 40 73 74
f 40 74 41
f 41 74 42
f 42 74 75
f 42 75 76
f 42 76 77
f 42 77 78
f 42 78 79
f 42 79 80
f 42 80 81
f 42 81 82
f 42 82 43
f 43 82 83
f 43 83 84
f 43 84 44
f 44 84 45
f 45 84 46
f 46 84 51
f 46 51 47
f 47 51 50
f 49 53 85
f 49 85 86
f 49 86 54
f 51 84 52
f 52 84 87
f 52 87 88
f 52 88 53
f 53 88 89
f 53 89 85
f 54 86 90
f 54 90 55
f 55 90 56
f 56 90 91
f 56 91 92
f 56 92 93
f 56 93 62
f 56 62 57
f 58 94 95
f 58 95 96
f 58 96 59
f 58 61 100
f 58 100 150
f 58 150 198
f 58 198 187
f 58 187 142
f 58 142 94
f 59 96 97
f 59 97 60
f 60 97 63
f 61 62 93
f 61 93 98
f 61 98 99
f 61 99 100
f 63 97 101
f 63 101 102
f 63 102 64
f 64 102 103
f 64 103 104
f 64 104 65
f 65 104 105
f 65 105 66
f 66 105 106
f 66 106 107
f 66 107 67
f 67 107 108
f 67 108 68
f 68 108 69
f 69 109 70
f 69 108 109
f 70 109 108
f 70 108 110
f 70 110 111
f 70 111 112
f 70 112 113
f 70 113 71
f 71 113 114
f 71 114 72
f 72 114 115
f 72 115 73
f 73 115 116
f 73 116 117
f 73 117 74
f 74 117 118
f 74 118 75
f 75 118 76
f 76 118 119
f 76 119 77
f 77 119 78
f 78 119 169
f 78 169 216
f 78 216 264
f 78 264 263
f 78 263 310
f 78 310 354
f 78 354 395
f 78 395 440
f 78 440 496
f 78 496 527
f 78 527 526
f 78 526 500
f 78 500 454
f 78 454 402
f 78 402 359
f 78 359 312
f 78 312 265
f 78 265 217
f 78 217 171
f 78 171 170
f 78 170 120
f 78 120 79
f 79 120 80
f 80 120 81
f 81 120 121
f 81 121 82
f 82 121 83
f 83 121 122
f 83 122 123
f 83 123 87
f 83 87 84
f 85 89 124
f 85 124 86
f 86 124 125
f 86 125 126
f 86 126 127
f 86 127 128
f 86 128 90
f 87 123 129
f 87 129 130
f 87 130 88
f 88 130 131
f 88 131 132
f 88 132 89
f 89 125 124
f 89 132 133
f 89 133 134
f 89 134 135
f 89 135 127
f 89 127 126
f 89 126 125
f 90 128 136
f 90 136 91
f 91 136 92
f 92 136 137
f 92 137 138
f 92 138 139
f 92 139 93
f 93 139 140
f 93 140 141
f 93 141 99
f 93 99 98
f 94 142 189
f 94 189 143
f 94 143 95
f 95 143 144
f 95 144 145
f 95 145 96
f 96 145 101
f 96 101 97
f 99 141 146
f 99 146 147
f 99 147 148
f 99 148 100
f 100 148 149
f 100 149 196
f 100 196 150
f 101 151 102
f 101 145 144
f 101 144 152
f 101 152 153
f 101 153 151
f 102 151 103
f 103 151 154
f 103 154 155
f 103 155 104
f 104 155 105
f 105 155 156
f 105 156 157
f 105 157 158
f 105 158 106
f 106 110 107
f 106 158 159
f 106 159 110
f 107 110 108
f 110 159 160
f 110 160 161
f 110 161 162
f 110 162 111
f 111 162 163
f 111 163 112
f 112 163 113
f 113 163 114
f 114 163 115
f 115 161 116
f 115 163 161
f 116 161 164
f 116 164 165
f 116 165 166
f 116 166 117
f 117 166 167
f 117 167 168
f 117 168 118
f 118 168 119
f 119 168 169
f 120 170 121
f 121 170 171
f 121 171 172
f 121 172 122
f 122 129 123
f 122 172 173
f 122 173 174
f 122 174 129
f 127 135 175
f 127 175 128
f 128 175 176
f 128 176 136
f 129 132 131
f 129 131 130
f 129 174 177
f 129 177 178
f 129 178 179
f 129 179 132
f 132 179 180
f 132 180 135
f 132 135 134
f 132 134 133
f 135 180 179
f 135 179 181
f 135 181 182
f 135 182 183
f 135 183 175
f 136 176 137
f 137 184 185
f 137 185 138
f 137 176 184
f 138 185 140
f 138 140 139
f 140 185 223
f 140 223 222
f 140 222 266
f 140 266 225
f 140 225 224
f 140 224 219
f 140 219 218
f 140 218 173
f 140 173 217
f 140 217 265
f 140 265 311
f 140 311 355
f 140 355 396
f 140 396 441
f 140 441 480
f 140 480 479
f 140 479 422
f 140 422 382
f 140 382 335
f 140 335 289
f 140 289 293
f 140 293 288
f 140 288 287
f 140 287 285
f 140 285 240
f 140 240 228
f 140 228 186
f 140 186 141
f 141 186 146
f 142 187 188
f 142 188 189
f 143 189 235
f 143 235 190
f 143 190 191
f 143 191 144
f 144 191 192
f 144 192 193
f 144 193 152
f 146 186 194
f 146 194 147
f 147 149 148
f 147 194 195
f 147 195 149
f 149 195 241
f 149 241 196
f 150 197 198
f 150 196 199
f 150 199 197
f 151 200 154
f 151 153 201
f 151 201 200
f 152 193 202
f 152 202 153
f 153 202 201
f 154 156 155
f 154 200 156
f 156 200 249
f 156 249 203
f 156 203 157
f 157 159 158
f 157 203 204
f 157 204 205
f 157 205 159
f 159 206 207
f 159 207 160
f 159 205 208
f 159 208 209
f 159 209 206
f 160 207 210
f 160 210 161
f 161 163 162
f 161 210 211
f 161 211 164
f 164 211 165
f 165 211 212
f 165 212 213
f 165 213 166
f 166 213 167
f 167 213 214
f 167 214 215
f 167 215 168
f 168 215 216
f 168 216 169
f 171 217 173
f 171 173 172
f 173 218 174
f 174 218 219
f 174 219 178
f 174 178 177
f 175 183 176
f 176 183 220
f 176 220 221
f 176 221 222
f 176 222 223
f 176 223 185
f 176 185 184
f 178 219 224
f 178 224 225
f 178 225 179
f 179 225 226
f 179 226 181
f 181 226 225
f 181 225 227
f 181 227 182
f 182 227 225
f 182 225 220
f 182 220 183
f 186 228 195
f 186 195 194
f 187 229 230
f 187 230 231
f 187 231 188
f 187 198 229
f 188 231 232
f 188 232 233
f 188 233 189
f 189 234 235
f 189 233 234
f 190 235 236
f 190 236 237
f 190 237 191
f 191 237 192
f 192 237 238
f 192 238 193
f 193 238 239
f 193 239 202
f 195 228 240
f 195 240 285
f 195 285 241
f 196 241 242
f 196 242 199
f 197 243 244
f 197 244 198
f 197 199 242
f 197 242 245
f 197 245 246
f 197 246 243
f 198 244 243
f 198 243 247
f 198 247 248
f 198 248 229
f 200 201 249
f 201 202 239
f 201 239 250
f 201 250 251
f 201 251 249
f 203 205 204
f 203 249 252
f 203 252 253
f 203 253 205
f 205 254 209
f 205 209 208
f 205 253 254
f 206 210 207
f 206 209 210
f 209 211 210
f 209 254 255
f 209 255 212
f 209 212 211
f 212 255 256
f 212 256 257
f 212 257 213
f 213 257 214
f 214 258 259
f 214 259 260
f 214 260 261
f 214 261 215
f 214 257 258
f 215 261 262
f 215 262 263
f 215 263 264
f 215 264 216
f 220 225 266
f 220 266 221
f 221 266 222
f 229 267 268
f 229 268 269
f 229 269 270
f 229 270 271
f 229 271 230
f 229 248 267
f 230 271 272
f 230 272 231
f 231 272 273
f 231 273 232
f 232 273 233
f 233 273 274
f 233 274 275
f 233 275 276
f 233 276 234
f 234 276 277
f 234 277 235
f 235 277 278
f 235 278 236
f 236 278 279
f 236 279 280
f 236 280 281
f 236 281 282
f 236 282 283
f 236 283 284
f 236 284 239
f 236 239 238
f 236 238 237
f 239 284 250
f 241 286 242
f 241 285 287
f 241 287 288
f 241 288 286
f 242 286 245
f 243 246 289
f 243 289 290
f 243 290 291
f 243 291 292
f 243 292 247
f 245 286 288
f 245 288 246
f 246 288 293
f 246 293 289
f 247 292 294
f 247 294 248
f 248 294 295
f 248 295 296
f 248 296 297
f 248 297 298
f 248 298 267
f 249 251 252
f 250 299 300
f 250 300 251
f 250 284 299
f 251 300 252
f 252 300 253
f 253 300 254
f 254 300 301
f 254 301 255
f 255 301 256
f 256 302 300
f 256 300 303
f 256 303 304
f 256 304 258
f 256 258 257
f 256 301 302
f 258 304 305
f 258 305 259
f 259 305 306
f 259 306 260
f 260 262 261
f 260 306 307
f 260 307 308
f 260 308 309
f 260 309 262
f 262 309 310
f 262 310 263
f 265 312 311
f 267 298 313
f 267 313 268
f 268 313 269
f 269 313 314
f 269 314 270
f 270 314 315
f 270 315 271
f 271 315 316
f 271 316 272
f 272 316 273
f 273 317 274
f 273 316 318
f 273 318 319
f 273 319 317
f 274 317 320
f 274 320 275
f 275 320 321
f 275 321 322
f 275 322 276
f 276 322 277
f 277 322 278
f 278 323 324
f 278 324 325
f 278 325 279
f 278 322 321
f 278 321 326
f 278 326 327
f 278 327 323
f 279 325 328
f 279 328 329
f 279 329 280
f 280 329 281
f 281 329 330
f 281 330 282
f 282 330 331
f 282 331 332
f 282 332 283
f 283 332 284
f 284 332 333
f 284 333 334
f 284 334 299
f 289 335 336
f 289 336 290
f 290 336 291
f 291 336 337
f 291 337 338
f 291 338 339
f 291 339 292
f 292 340 341
f 292 341 295
f 292 295 294
f 292 339 340
f 295 341 342
f 295 342 343
f 295 343 344
f 295 344 345
f 295 345 296
f 296 345 313
f 296 313 297
f 297 313 298
f 299 334 346
f 299 346 300
f 300 346 347
f 300 347 304
f 300 304 303
f 300 302 301
f 304 347 348
f 304 348 349
f 304 349 305
f 305 349 306
f 306 349 307
f 307 349 350
f 307 350 351
f 307 351 352
f 307 352 308
f 308 352 309
f 309 352 380
f 309 380 353
f 309 353 354
f 309 354 310
f 311 312 356
f 311 356 357
f 311 357 358
f 311 358 355
f 312 359 360
f 312 360 356
f 313 345 361
f 313 361 362
f 313 362 314
f 314 363 364
f 314 364 315
f 314 362 363
f 315 365 366
f 315 366 367
f 315 367 316
f 315 364 365
f 316 367 318
f 317 319 368
f 317 368 320
f 318 369 319
f 318 367 369
f 319 369 370
f 319 370 371
f 319 371 368
f 320 368 321
f 321 368 372
f 321 372 326
f 323 327 324
f 324 373 374
f 324 374 375
f 324 375 325
f 324 327 373
f 325 375 328
f 326 376 377
f 326 377 373
f 326 373 327
f 326 372 378
f 326 378 376
f 328 375 379
f 328 379 380
f 328 380 352
f 328 352 329
f 329 352 351
f 329 351 330
f 330 351 350
f 330 350 331
f 331 350 349
f 331 349 381
f 331 381 332
f 332 381 346
f 332 346 333
f 333 346 334
f 335 382 336
f 336 382 337
f 337 382 383
f 337 383 384
f 337 384 338
f 338 384 385
f 338 385 340
f 338 340 339
f 340 385 386
f 340 386 387
f 340 387 341
f 341 387 342
f 342 344 343
f 342 387 388
f 342 388 389
f 342 389 390
f 342 390 344
f 344 390 345
f 345 390 361
f 346 381 349
f 346 349 391
f 346 391 348
f 346 348 347
f 348 391 349
f 353 392 393
f 353 393 394
f 353 394 354
f 353 380 392
f 354 394 395
f 355 358 397
f 355 397 396
f 356 360 357
f 357 360 398
f 357 398 399
f 357 399 400
f 357 400 358
f 358 401 397
f 358 400 401
f 359 402 360
f 360 402 403
f 360 403 404
f 360 404 398
f 361 390 405
f 361 405 406
f 361 406 363
f 361 363 362
f 363 407 364
f 363 406 407
f 364 407 365
f 365 408 366
f 365 407 409
f 365 409 408
f 366 410 411
f 366 411 367
f 366 408 410
f 367 411 369
f 368 412 413
f 368 413 372
f 368 371 412
f 369 414 370
f 369 411 414
f 370 414 415
f 370 415 371
f 371 415 467
f 371 467 412
f 372 413 416
f 372 416 378
f 373 377 417
f 373 417 418
f 373 418 374
f 374 418 419
f 374 419 420
f 374 420 375
f 375 420 379
f 376 417 377
f 376 378 417
f 378 416 417
f 379 420 421
f 379 421 380
f 380 421 392
f 382 422 384
f 382 384 383
f 384 423 424
f 384 424 425
f 384 425 385
f 384 422 426
f 384 426 423
f 385 427 386
f 385 425 427
f 386 427 428
f 386 428 429
f 386 429 430
f 386 430 431
f 386 431 388
f 386 388 387
f 388 431 432
f 388 432 433
f 388 433 389
f 389 433 390
f 390 433 434
f 390 434 405
f 392 421 393
f 393 421 435
f 393 435 436
f 393 436 437
f 393 437 438
f 393 438 394
f 394 438 439
f 394 439 395
f 395 439 440
f 396 397 442
f 396 442 443
f 396 443 444
f 396 444 445
f 396 445 446
f 396 446 423
f 396 423 441
f 397 401 400
f 397 400 442
f 398 447 448
f 398 448 399
f 398 404 449
f 398 449 447
f 399 448 400
f 400 448 450
f 400 450 451
f 400 451 452
f 400 452 442
f 402 453 403
f 402 454 453
f 403 453 455
f 403 455 404
f 404 455 449
f 405 434 456
f 405 456 457
f 405 457 458
f 405 458 406
f 406 458 459
f 406 459 460
f 406 460 407
f 407 460 409
f 408 461 462
f 408 462 410
f 408 409 463
f 408 463 461
f 409 460 464
f 409 464 463
f 410 465 415
f 410 415 414
f 410 414 411
f 410 462 466
f 410 466 465
f 412 467 468
f 412 468 413
f 413 468 416
f 415 465 467
f 416 469 470
f 416 470 471
f 416 471 417
f 416 468 472
f 416 472 473
f 416 473 474
f 416 474 475
f 416 475 469
f 417 419 418
f 417 471 476
f 417 476 477
f 417 477 419
f 419 477 476
f 419 476 470
f 419 470 478
f 419 478 435
f 419 435 421
f 419 421 420
f 422 479 426
f 423 446 424
f 423 426 480
f 423 480 441
f 424 446 481
f 424 481 425
f 425 481 427
f 426 479 480
f 427 481 482
f 427 482 428
f 428 482 429
f 429 482 430
f 430 482 431
f 431 482 432
f 432 482 483
f 432 483 484
f 432 484 433
f 433 484 485
f 433 485 486
f 433 486 487
f 433 487 434
f 434 487 488
f 434 488 489
f 434 489 490
f 434 490 456
f 435 478 436
f 436 478 491
f 436 491 437
f 437 491 492
f 437 492 493
f 437 493 494
f 437 494 439
f 437 439 438
f 439 494 495
f 439 495 496
f 439 496 440
f 442 444 443
f 442 452 497
f 442 497 481
f 442 481 444
f 444 446 445
f 444 481 446
f 447 489 488
f 447 488 485
f 447 485 484
f 447 484 448
f 447 449 490
f 447 490 489
f 448 483 450
f 448 484 483
f 449 455 456
f 449 456 490
f 450 483 451
f 451 483 452
f 452 482 498
f 452 498 499
f 452 499 481
f 452 481 497
f 452 483 482
f 453 454 455
f 454 500 455
f 455 500 501
f 455 501 502
f 455 502 503
f 455 503 504
f 455 504 505
f 455 505 456
f 456 505 457
f 457 506 507
f 457 507 458
f 457 505 508
f 457 508 506
f 458 507 459
f 459 507 509
f 459 509 510
f 459 510 460
f 460 510 464
f 461 463 511
f 461 511 512
f 461 512 462
f 462 512 513
f 462 513 466
f 463 464 514
f 463 514 511
f 464 510 515
f 464 515 516
f 464 516 514
f 465 466 513
f 465 513 517
f 465 517 518
f 465 518 467
f 467 518 517
f 467 517 472
f 467 472 468
f 469 475 470
f 470 476 471
f 470 475 491
f 470 491 478
f 472 517 519
f 472 519 473
f 473 519 520
f 473 520 475
f 473 475 474
f 475 520 521
f 475 521 492
f 475 492 491
f 481 499 482
f 482 499 498
f 485 488 487
f 485 487 486
f 492 521 493
f 493 521 522
f 493 522 523
f 493 523 494
f 494 523 524
f 494 524 495
f 495 524 525
f 495 525 526
f 495 526 527
f 495 527 496
f 500 526 501
f 501 526 502
f 502 526 525
f 502 525 503
f 503 525 504
f 504 508 505
f 504 525 524
f 504 524 528
f 504 528 508
f 506 508 507
f 507 508 509
f 508 529 509
f 508 528 530
f 508 530 529
f 509 529 510
f 510 529 515
f 511 514 516
f 511 516 531
f 511 531 515
f 511 515 512
f 512 532 533
f 512 533 513
f 512 515 534
f 512 534 535
f 512 535 532
f 513 533 536
f 513 536 537
f 513 537 538
f 513 538 539
f 513 539 517
f 515 540 541
f 515 541 534
f 515 531 516
f 515 529 540
f 517 539 538
f 517 538 519
f 519 538 520
f 520 538 521
f 521 538 542
f 521 542 522
f 522 542 543
f 522 543 544
f 522 544 523
f 523 544 524
f 524 544 528
f 528 544 545
f 528 545 530
f 529 530 546
f 529 546 540
f 530 545 546
f 532 535 547
f 532 547 545
f 532 545 544
f 532 544 543
f 532 543 542
f 532 542 548
f 532 548 533
f 533 548 536
f 534 541 547
f 534 547 535
f 536 548 537
f 537 548 538
f 538 548 542
f 540 546 547
f 540 547 541
f 545 547 546

