mtllib material.mtl
usemtl Spoon_Silver
v 0.00000000 0.00000000 0.00000000
v 0.01100000 0.00000000 0.00000000
v 0.01200000 0.00000000 0.00200000
v 0.01200000 0.00000000 0.00300000
v 0.01000000 0.00000000 0.00300000
v 0.00900000 0.00000000 0.00200000
v 0.00500000 0.00000000 0.00070000
v 0.00000000 0.00000000 0.00070000
v 0.01062500 0.00398600 0.00000000
v 0.01159100 0.00434800 0.00200000
v 0.01159100 0.00434800 0.00300000
v 0.00965900 0.00362300 0.00300000
v 0.00869300 0.00326100 0.00200000
v 0.00483000 0.00181200 0.00070000
v 0.00952600 0.00770000 0.00000000
v 0.01039200 0.00840000 0.00200000
v 0.01039200 0.00840000 0.00300000
v 0.00866000 0.00700000 0.00300000
v 0.00779400 0.00630000 0.00200000
v 0.00433000 0.00350000 0.00070000
v 0.00777800 0.01088900 0.00000000
v 0.00848500 0.01187900 0.00200000
v 0.00848500 0.01187900 0.00300000
v 0.00707100 0.00989900 0.00300000
v 0.00636400 0.00891000 0.00200000
v 0.00353600 0.00495000 0.00070000
v 0.00550000 0.01333700 0.00000000
v 0.00600000 0.01454900 0.00200000
v 0.00600000 0.01454900 0.00300000
v 0.00500000 0.01212400 0.00300000
v 0.00450000 0.01091200 0.00200000
v 0.00250000 0.00606200 0.00070000
v 0.00284700 0.01487500 0.00000000
v 0.00310600 0.01622800 0.00200000
v 0.00310600 0.01622800 0.00300000
v 0.00258800 0.01352300 0.00300000
v 0.00232900 0.01217100 0.00200000
v 0.00129400 0.00676100 0.00070000
v -0.00000000 0.01540000 0.00000000
v -0.00000000 0.01680000 0.00200000
v -0.00000000 0.01680000 0.00300000
v -0.00000000 0.01400000 0.00300000
v -0.00000000 0.01260000 0.00200000
v -0.00000000 0.00700000 0.00070000
v -0.00284700 0.01487500 0.00000000
v -0.00310600 0.01622800 0.00200000
v -0.00310600 0.01622800 0.00300000
v -0.00258800 0.01352300 0.00300000
v -0.00232900 0.01217100 0.00200000
v -0.00129400 0.00676100 0.00070000
v -0.00550000 0.01333700 0.00000000
v -0.00600000 0.01454900 0.00200000
v -0.00600000 0.01454900 0.00300000
v -0.00500000 0.01212400 0.00300000
v -0.00450000 0.01091200 0.00200000
v -0.00250000 0.00606200 0.00070000
v -0.00777800 0.01088900 0.00000000
v -0.00848500 0.01187900 0.00200000
v -0.00848500 0.01187900 0.00300000
v -0.00707100 0.00989900 0.00300000
v -0.00636400 0.00891000 0.00200000
v -0.00353600 0.00495000 0.00070000
v -0.00952600 0.00770000 0.00000000
v -0.01039200 0.00840000 0.00200000
v -0.01039200 0.00840000 0.00300000
v -0.00866000 0.00700000 0.00300000
v -0.00779400 0.00630000 0.00200000
v -0.00433000 0.00350000 0.00070000
v -0.01062500 0.00398600 0.00000000
v -0.01159100 0.00434800 0.00200000
v -0.01159100 0.00434800 0.00300000
v -0.00965900 0.00362300 0.00300000
v -0.00869300 0.00326100 0.00200000
v -0.00483000 0.00181200 0.00070000
v -0.01100000 -0.00000000 0.00000000
v -0.01200000 0.00000000 0.00200000
v -0.01200000 0.00000000 0.00300000
v -0.01000000 -0.00000000 0.00300000
v -0.00900000 -0.00000000 0.00200000
v -0.00500000 -0.00000000 0.00070000
v -0.01062500 -0.00398600 0.00000000
v -0.01159100 -0.00434800 0.00200000
v -0.01159100 -0.00434800 0.00300000
v -0.00965900 -0.00362300 0.00300000
v -0.00869300 -0.00326100 0.00200000
v -0.00483000 -0.00181200 0.00070000
v -0.00952600 -0.00770000 0.00000000
v -0.01039200 -0.00840000 0.00200000
v -0.01039200 -0.00840000 0.00300000
v -0.00866000 -0.00700000 0.00300000
v -0.00779400 -0.00630000 0.00200000
v -0.00433000 -0.00350000 0.00070000
v -0.00777800 -0.01088900 0.00000000
v -0.00848500 -0.01187900 0.00200000
v -0.00848500 -0.01187900 0.00300000
v -0.00707100 -0.00989900 0.00300000
v -0.00636400 -0.00891000 0.00200000
v -0.00353600 -0.00495000 0.00070000
v -0.00550000 -0.01333700 0.00000000
v -0.00600000 -0.01454900 0.00200000
v -0.00600000 -0.01454900 0.00300000
v -0.00500000 -0.01212400 0.00300000
v -0.00450000 -0.01091200 0.00200000
v -0.00250000 -0.00606200 0.00070000
v -0.00284700 -0.01487500 0.00000000
v -0.00310600 -0.01622800 0.00200000
v -0.00310600 -0.01622800 0.00300000
v -0.00258800 -0.01352300 0.00300000
v -0.00232900 -0.01217100 0.00200000
v -0.00129400 -0.00676100 0.00070000
v 0.00000000 -0.01540000 0.00000000
v -0.00000000 -0.01680000 0.00200000
v -0.00000000 -0.01680000 0.00300000
v 0.00000000 -0.01400000 0.00300000
v 0.00000000 -0.01260000 0.00200000
v 0.00000000 -0.00700000 0.00070000
v 0.00284700 -0.01487500 0.00000000
v 0.00310600 -0.01622800 0.00200000
v 0.00310600 -0.01622800 0.00300000
v 0.00258800 -0.01352300 0.00300000
v 0.00232900 -0.01217100 0.00200000
v 0.00129400 -0.00676100 0.00070000
v 0.00550000 -0.01333700 0.00000000
v 0.00600000 -0.01454900 0.00200000
v 0.00600000 -0.01454900 0.00300000
v 0.00500000 -0.01212400 0.00300000
v 0.00450000 -0.01091200 0.00200000
v 0.00250000 -0.00606200 0.00070000
v 0.00777800 -0.01088900 0.00000000
v 0.00848500 -0.01187900 0.00200000
v 0.00848500 -0.01187900 0.00300000
v 0.00707100 -0.00989900 0.00300000
v 0.00636400 -0.00891000 0.00200000
v 0.00353600 -0.00495000 0.00070000
v 0.00952600 -0.00770000 0.00000000
v 0.01039200 -0.00840000 0.00200000
v 0.01039200 -0.00840000 0.00300000
v 0.00866000 -0.00700000 0.00300000
v 0.00779400 -0.00630000 0.00200000
v 0.00433000 -0.00350000 0.00070000
v 0.01062500 -0.00398600 0.00000000
v 0.01159100 -0.00434800 0.00200000
v 0.01159100 -0.00434800 0.00300000
v 0.00965900 -0.00362300 0.00300000
v 0.00869300 -0.00326100 0.00200000
v 0.00483000 -0.00181200 0.00070000
v -0.00398400 -0.01480000 0.00080000
v -0.00398400 -0.01480000 0.00080000
v -0.00398400 -0.01480000 0.00080000
v -0.00398400 -0.01480000 0.00080000
v -0.00320000 -0.01400000 0.00080000
v -0.00320000 -0.01400000 0.00080000
v -0.00320000 -0.01400000 0.00080000
v -0.00320000 -0.01400000 0.00080000
v -0.00318400 -0.01480000 0.00000000
v -0.00318400 -0.01480000 0.00000000
v -0.00318400 -0.01480000 0.00000000
v -0.00318400 -0.01480000 0.00000000
v -0.00386700 -0.01413100 0.00080000
v -0.00386700 -0.01413100 0.00080000
v -0.00386700 -0.01413100 0.00080000
v -0.00386700 -0.01413100 0.00080000
v -0.00379900 -0.01419700 0.00019700
v -0.00379900 -0.01419700 0.00019700
v -0.00379900 -0.01419700 0.00019700
v -0.00319700 -0.01413100 0.00013100
v -0.00319700 -0.01413100 0.00013100
v -0.00319700 -0.01413100 0.00013100
v -0.00319700 -0.01413100 0.00013100
v -0.00385300 -0.01480000 0.00013100
v -0.00385300 -0.01480000 0.00013100
v -0.00385300 -0.01480000 0.00013100
v -0.00385300 -0.01480000 0.00013100
v 0.00320000 -0.01400000 0.00080000
v 0.00320000 -0.01400000 0.00080000
v 0.00320000 -0.01400000 0.00080000
v 0.00320000 -0.01400000 0.00080000
v 0.00398400 -0.01480000 0.00080000
v 0.00398400 -0.01480000 0.00080000
v 0.00398400 -0.01480000 0.00080000
v 0.00398400 -0.01480000 0.00080000
v 0.00318400 -0.01480000 0.00000000
v 0.00318400 -0.01480000 0.00000000
v 0.00318400 -0.01480000 0.00000000
v 0.00318400 -0.01480000 0.00000000
v 0.00386700 -0.01413100 0.00080000
v 0.00386700 -0.01413100 0.00080000
v 0.00386700 -0.01413100 0.00080000
v 0.00386700 -0.01413100 0.00080000
v 0.00379900 -0.01419700 0.00019700
v 0.00379900 -0.01419700 0.00019700
v 0.00379900 -0.01419700 0.00019700
v 0.00385300 -0.01480000 0.00013100
v 0.00385300 -0.01480000 0.00013100
v 0.00385300 -0.01480000 0.00013100
v 0.00385300 -0.01480000 0.00013100
v 0.00319700 -0.01413100 0.00013100
v 0.00319700 -0.01413100 0.00013100
v 0.00319700 -0.01413100 0.00013100
v 0.00319700 -0.01413100 0.00013100
v -0.00251600 -0.08820000 0.00080000
v -0.00251600 -0.08820000 0.00080000
v -0.00251600 -0.08820000 0.00080000
v -0.00251600 -0.08820000 0.00080000
v -0.00171600 -0.08820000 0.00000000
v -0.00171600 -0.08820000 0.00000000
v -0.00171600 -0.08820000 0.00000000
v -0.00171600 -0.08820000 0.00000000
v -0.00170000 -0.08900000 0.00080000
v -0.00170000 -0.08900000 0.00080000
v -0.00170000 -0.08900000 0.00080000
v -0.00170000 -0.08900000 0.00080000
v -0.00238500 -0.08820000 0.00013100
v -0.00238500 -0.08820000 0.00013100
v -0.00238500 -0.08820000 0.00013100
v -0.00238500 -0.08820000 0.00013100
v -0.00230700 -0.08880300 0.00019700
v -0.00230700 -0.08880300 0.00019700
v -0.00230700 -0.08880300 0.00019700
v -0.00170300 -0.08886900 0.00013100
v -0.00170300 -0.08886900 0.00013100
v -0.00170300 -0.08886900 0.00013100
v -0.00170300 -0.08886900 0.00013100
v -0.00237200 -0.08886900 0.00080000
v -0.00237200 -0.08886900 0.00080000
v -0.00237200 -0.08886900 0.00080000
v -0.00237200 -0.08886900 0.00080000
v 0.00251600 -0.08820000 0.00080000
v 0.00251600 -0.08820000 0.00080000
v 0.00251600 -0.08820000 0.00080000
v 0.00251600 -0.08820000 0.00080000
v 0.00170000 -0.08900000 0.00080000
v 0.00170000 -0.08900000 0.00080000
v 0.00170000 -0.08900000 0.00080000
v 0.00170000 -0.08900000 0.00080000
v 0.00171600 -0.08820000 0.00000000
v 0.00171600 -0.08820000 0.00000000
v 0.00171600 -0.08820000 0.00000000
v 0.00171600 -0.08820000 0.00000000
v 0.00237200 -0.08886900 0.00080000
v 0.00237200 -0.08886900 0.00080000
v 0.00237200 -0.08886900 0.00080000
v 0.00237200 -0.08886900 0.00080000
v 0.00230700 -0.08880300 0.00019700
v 0.00230700 -0.08880300 0.00019700
v 0.00230700 -0.08880300 0.00019700
v 0.00170300 -0.08886900 0.00013100
v 0.00170300 -0.08886900 0.00013100
v 0.00170300 -0.08886900 0.00013100
v 0.00170300 -0.08886900 0.00013100
v 0.00238500 -0.08820000 0.00013100
v 0.00238500 -0.08820000 0.00013100
v 0.00238500 -0.08820000 0.00013100
v 0.00238500 -0.08820000 0.00013100
v -0.00320000 -0.01400000 0.00170000
v -0.00320000 -0.01400000 0.00170000
v -0.00320000 -0.01400000 0.00170000
v -0.00320000 -0.01400000 0.00170000
v -0.00398400 -0.01480000 0.00170000
v -0.00398400 -0.01480000 0.00170000
v -0.00398400 -0.01480000 0.00170000
v -0.00398400 -0.01480000 0.00170000
v -0.00318400 -0.01480000 0.00250000
v -0.00318400 -0.01480000 0.00250000
v -0.00318400 -0.01480000 0.00250000
v -0.00318400 -0.01480000 0.00250000
v -0.00386700 -0.01413100 0.00170000
v -0.00386700 -0.01413100 0.00170000
v -0.00386700 -0.01413100 0.00170000
v -0.00386700 -0.01413100 0.00170000
v -0.00379900 -0.01419700 0.00230300
v -0.00379900 -0.01419700 0.00230300
v -0.00379900 -0.01419700 0.00230300
v -0.00385300 -0.01480000 0.00236900
v -0.00385300 -0.01480000 0.00236900
v -0.00385300 -0.01480000 0.00236900
v -0.00385300 -0.01480000 0.00236900
v -0.00319700 -0.01413100 0.00236900
v -0.00319700 -0.01413100 0.00236900
v -0.00319700 -0.01413100 0.00236900
v -0.00319700 -0.01413100 0.00236900
v 0.00320000 -0.01400000 0.00170000
v 0.00320000 -0.01400000 0.00170000
v 0.00320000 -0.01400000 0.00170000
v 0.00320000 -0.01400000 0.00170000
v 0.00318400 -0.01480000 0.00250000
v 0.00318400 -0.01480000 0.00250000
v 0.00318400 -0.01480000 0.00250000
v 0.00318400 -0.01480000 0.00250000
v 0.00398400 -0.01480000 0.00170000
v 0.00398400 -0.01480000 0.00170000
v 0.00398400 -0.01480000 0.00170000
v 0.00398400 -0.01480000 0.00170000
v 0.00319700 -0.01413100 0.00236900
v 0.00319700 -0.01413100 0.00236900
v 0.00319700 -0.01413100 0.00236900
v 0.00319700 -0.01413100 0.00236900
v 0.00379900 -0.01419700 0.00230300
v 0.00379900 -0.01419700 0.00230300
v 0.00379900 -0.01419700 0.00230300
v 0.00385300 -0.01480000 0.00236900
v 0.00385300 -0.01480000 0.00236900
v 0.00385300 -0.01480000 0.00236900
v 0.00385300 -0.01480000 0.00236900
v 0.00386700 -0.01413100 0.00170000
v 0.00386700 -0.01413100 0.00170000
v 0.00386700 -0.01413100 0.00170000
v 0.00386700 -0.01413100 0.00170000
v -0.00251600 -0.08820000 0.00170000
v -0.00251600 -0.08820000 0.00170000
v -0.00251600 -0.08820000 0.00170000
v -0.00251600 -0.08820000 0.00170000
v -0.00170000 -0.08900000 0.00170000
v -0.00170000 -0.08900000 0.00170000
v -0.00170000 -0.08900000 0.00170000
v -0.00170000 -0.08900000 0.00170000
v -0.00171600 -0.08820000 0.00250000
v -0.00171600 -0.08820000 0.00250000
v -0.00171600 -0.08820000 0.00250000
v -0.00171600 -0.08820000 0.00250000
v -0.00237200 -0.08886900 0.00170000
v -0.00237200 -0.08886900 0.00170000
v -0.00237200 -0.08886900 0.00170000
v -0.00237200 -0.08886900 0.00170000
v -0.00230700 -0.08880300 0.00230300
v -0.00230700 -0.08880300 0.00230300
v -0.00230700 -0.08880300 0.00230300
v -0.00170300 -0.08886900 0.00236900
v -0.00170300 -0.08886900 0.00236900
v -0.00170300 -0.08886900 0.00236900
v -0.00170300 -0.08886900 0.00236900
v -0.00238500 -0.08820000 0.00236900
v -0.00238500 -0.08820000 0.00236900
v -0.00238500 -0.08820000 0.00236900
v -0.00238500 -0.08820000 0.00236900
v 0.00170000 -0.08900000 0.00170000
v 0.00170000 -0.08900000 0.00170000
v 0.00170000 -0.08900000 0.00170000
v 0.00170000 -0.08900000 0.00170000
v 0.00251600 -0.08820000 0.00170000
v 0.00251600 -0.08820000 0.00170000
v 0.00251600 -0.08820000 0.00170000
v 0.00251600 -0.08820000 0.00170000
v 0.00171600 -0.08820000 0.00250000
v 0.00171600 -0.08820000 0.00250000
v 0.00171600 -0.08820000 0.00250000
v 0.00171600 -0.08820000 0.00250000
v 0.00237200 -0.08886900 0.00170000
v 0.00237200 -0.08886900 0.00170000
v 0.00237200 -0.08886900 0.00170000
v 0.00237200 -0.08886900 0.00170000
v 0.00230700 -0.08880300 0.00230300
v 0.00230700 -0.08880300 0.00230300
v 0.00230700 -0.08880300 0.00230300
v 0.00238500 -0.08820000 0.00236900
v 0.00238500 -0.08820000 0.00236900
v 0.00238500 -0.08820000 0.00236900
v 0.00238500 -0.08820000 0.00236900
v 0.00170300 -0.08886900 0.00236900
v 0.00170300 -0.08886900 0.00236900
v 0.00170300 -0.08886900 0.00236900
v 0.00170300 -0.08886900 0.00236900
vn -0.00000000 -0.00000000 -1.00000000
vn 0.54770000 -0.00000000 -0.83670000
vn 0.97400000 -0.00000000 -0.22680000
vn 0.72700000 -0.00000000 0.68660000
vn -0.36290000 -0.00000000 0.93180000
vn -0.53250000 -0.00000000 0.84640000
vn -0.16550000 -0.00000000 0.98620000
vn -0.00000000 -0.00000000 1.00000000
vn 0.53630000 0.10080000 -0.83800000
vn 0.95510000 0.18650000 -0.23000000
vn 0.71450000 0.13790000 0.68590000
vn -0.35120000 -0.07030000 0.93370000
vn -0.51800000 -0.09830000 0.84970000
vn -0.16090000 -0.02930000 0.98650000
vn 0.50010000 0.20250000 -0.84200000
vn 0.89480000 0.37680000 -0.23960000
vn 0.67360000 0.28040000 0.68390000
vn -0.31620000 -0.13660000 0.93880000
vn -0.47390000 -0.19370000 0.85900000
vn -0.14690000 -0.05760000 0.98750000
vn 0.43370000 0.30410000 -0.84820000
vn 0.78080000 0.57070000 -0.25440000
vn 0.59420000 0.42910000 0.68030000
vn -0.25900000 -0.19420000 0.94620000
vn -0.39900000 -0.28220000 0.87240000
vn -0.12310000 -0.08380000 0.98890000
vn 0.32900000 0.39950000 -0.85570000
vn 0.59570000 0.75600000 -0.27140000
vn 0.45990000 0.57650000 0.67540000
vn -0.18260000 -0.23800000 0.95400000
vn -0.29230000 -0.35760000 0.88690000
vn -0.08970000 -0.10590000 0.99030000
vn 0.18080000 0.47310000 -0.86220000
vn 0.32840000 0.90030000 -0.28560000
vn 0.25710000 0.69580000 0.67060000
vn -0.09370000 -0.26410000 0.95990000
vn -0.15580000 -0.41060000 0.89840000
vn -0.04760000 -0.12120000 0.99150000
vn -0.00000000 0.50190000 -0.86490000
vn -0.00000000 0.95670000 -0.29110000
vn -0.00000000 0.74370000 0.66850000
vn -0.00000000 -0.27240000 0.96220000
vn -0.00000000 -0.43000000 0.90280000
vn -0.00000000 -0.12680000 0.99190000
vn -0.18080000 0.47310000 -0.86220000
vn -0.32840000 0.90030000 -0.28560000
vn -0.25710000 0.69580000 0.67060000
vn 0.09370000 -0.26410000 0.95990000
vn 0.15580000 -0.41060000 0.89840000
vn 0.04760000 -0.12120000 0.99150000
vn -0.32900000 0.39950000 -0.85570000
vn -0.59570000 0.75600000 -0.27140000
vn -0.45990000 0.57650000 0.67540000
vn 0.18260000 -0.23800000 0.95400000
vn 0.29230000 -0.35760000 0.88690000
vn 0.08970000 -0.10590000 0.99030000
vn -0.43370000 0.30410000 -0.84820000
vn -0.78080000 0.57070000 -0.25440000
vn -0.59420000 0.42910000 0.68030000
vn 0.25900000 -0.19420000 0.94620000
vn 0.39900000 -0.28220000 0.87240000
vn 0.12310000 -0.08380000 0.98890000
vn -0.50010000 0.20250000 -0.84200000
vn -0.89480000 0.37680000 -0.23960000
vn -0.67360000 0.28040000 0.68390000
vn 0.31620000 -0.13660000 0.93880000
vn 0.47390000 -0.19370000 0.85900000
vn 0.14690000 -0.05760000 0.98750000
vn -0.53630000 0.10080000 -0.83800000
vn -0.95510000 0.18650000 -0.23000000
vn -0.71450000 0.13790000 0.68590000
vn 0.35120000 -0.07030000 0.93370000
vn 0.51800000 -0.09830000 0.84970000
vn 0.16090000 -0.02930000 0.98650000
vn -0.54770000 -0.00000000 -0.83670000
vn -0.97400000 -0.00000000 -0.22680000
vn -0.72700000 -0.00000000 0.68660000
vn 0.36290000 -0.00000000 0.93180000
vn 0.53250000 -0.00000000 0.84640000
vn 0.16550000 -0.00000000 0.98620000
vn -0.53630000 -0.10080000 -0.83800000
vn -0.95510000 -0.18650000 -0.23000000
vn -0.71450000 -0.13790000 0.68590000
vn 0.35120000 0.07030000 0.93370000
vn 0.51800000 0.09830000 0.84970000
vn 0.16090000 0.02930000 0.98650000
vn -0.50010000 -0.20250000 -0.84200000
vn -0.89480000 -0.37680000 -0.23960000
vn -0.67360000 -0.28040000 0.68390000
vn 0.31620000 0.13660000 0.93880000
vn 0.47390000 0.19370000 0.85900000
vn 0.14690000 0.05760000 0.98750000
vn -0.43370000 -0.30410000 -0.84820000
vn -0.78080000 -0.57070000 -0.25440000
vn -0.59420000 -0.42910000 0.68030000
vn 0.25900000 0.19420000 0.94620000
vn 0.39900000 0.28220000 0.87240000
vn 0.12310000 0.08380000 0.98890000
vn -0.32900000 -0.39950000 -0.85570000
vn -0.59570000 -0.75600000 -0.27140000
vn -0.45990000 -0.57650000 0.67540000
vn 0.18260000 0.23800000 0.95400000
vn 0.29230000 0.35760000 0.88690000
vn 0.08970000 0.10590000 0.99030000
vn -0.18080000 -0.47310000 -0.86220000
vn -0.32840000 -0.90030000 -0.28560000
vn -0.25710000 -0.69580000 0.67060000
vn 0.09370000 0.26410000 0.95990000
vn 0.15580000 0.41060000 0.89840000
vn 0.04760000 0.12120000 0.99150000
vn -0.00000000 -0.50190000 -0.86490000
vn -0.00000000 -0.95670000 -0.29110000
vn -0.00000000 -0.74370000 0.66850000
vn -0.00000000 0.27240000 0.96220000
vn -0.00000000 0.43000000 0.90280000
vn -0.00000000 0.12680000 0.99190000
vn 0.18080000 -0.47310000 -0.86220000
vn 0.32840000 -0.90030000 -0.28560000
vn 0.25710000 -0.69580000 0.67060000
vn -0.09370000 0.26410000 0.95990000
vn -0.15580000 0.41060000 0.89840000
vn -0.04760000 0.12120000 0.99150000
vn 0.32900000 -0.39950000 -0.85570000
vn 0.59570000 -0.75600000 -0.27140000
vn 0.45990000 -0.57650000 0.67540000
vn -0.18260000 0.23800000 0.95400000
vn -0.29230000 0.35760000 0.88690000
vn -0.08970000 0.10590000 0.99030000
vn 0.43370000 -0.30410000 -0.84820000
vn 0.78080000 -0.57070000 -0.25440000
vn 0.59420000 -0.42910000 0.68030000
vn -0.25900000 0.19420000 0.94620000
vn -0.39900000 0.28220000 0.87240000
vn -0.12310000 0.08380000 0.98890000
vn 0.50010000 -0.20250000 -0.84200000
vn 0.89480000 -0.37680000 -0.23960000
vn 0.67360000 -0.28040000 0.68390000
vn -0.31620000 0.13660000 0.93880000
vn -0.47390000 0.19370000 0.85900000
vn -0.14690000 0.05760000 0.98750000
vn 0.53630000 -0.10080000 -0.83800000
vn 0.95510000 -0.18650000 -0.23000000
vn 0.71450000 -0.13790000 0.68590000
vn -0.35120000 0.07030000 0.93370000
vn -0.51800000 0.09830000 0.84970000
vn -0.16090000 0.02930000 0.98650000
vn -0.98500000 0.17250000 -0.00000000
vn -0.97720000 0.14000000 -0.15970000
vn -0.99980000 -0.02000000 -0.00000000
vn -0.98130000 -0.01960000 -0.19170000
vn -0.19220000 0.98140000 -0.00000000
vn -0.00000000 1.00000000 -0.00000000
vn -0.00000000 0.98150000 -0.19170000
vn -0.15950000 0.97420000 -0.15970000
vn -0.00000000 0.19160000 -0.98150000
vn -0.00000000 -0.00000000 -1.00000000
vn -0.19160000 -0.00380000 -0.98150000
vn -0.15920000 0.15600000 -0.97480000
vn -0.19220000 0.98140000 -0.00000000
vn -0.98500000 0.17250000 -0.00000000
vn -0.15950000 0.97420000 -0.15970000
vn -0.97720000 0.14000000 -0.15970000
vn -0.15920000 0.15600000 -0.97480000
vn -0.97720000 0.14000000 -0.15970000
vn -0.15950000 0.97420000 -0.15970000
vn -0.15950000 0.97420000 -0.15970000
vn -0.00000000 0.19160000 -0.98150000
vn -0.15920000 0.15600000 -0.97480000
vn -0.00000000 0.98150000 -0.19170000
vn -0.98130000 -0.01960000 -0.19170000
vn -0.19160000 -0.00380000 -0.98150000
vn -0.97720000 0.14000000 -0.15970000
vn -0.15920000 0.15600000 -0.97480000
vn -0.00000000 0.98150000 -0.19170000
vn 0.15950000 0.97420000 -0.15970000
vn 0.19220000 0.98140000 -0.00000000
vn -0.00000000 1.00000000 -0.00000000
vn 0.98500000 0.17250000 -0.00000000
vn 0.97720000 0.14000000 -0.15970000
vn 0.98130000 -0.01960000 -0.19170000
vn 0.99980000 -0.02000000 -0.00000000
vn -0.00000000 0.19160000 -0.98150000
vn 0.15920000 0.15600000 -0.97480000
vn 0.19160000 -0.00380000 -0.98150000
vn -0.00000000 -0.00000000 -1.00000000
vn 0.98500000 0.17250000 -0.00000000
vn 0.19220000 0.98140000 -0.00000000
vn 0.97720000 0.14000000 -0.15970000
vn 0.15950000 0.97420000 -0.15970000
vn 0.97720000 0.14000000 -0.15970000
vn 0.15950000 0.97420000 -0.15970000
vn 0.15920000 0.15600000 -0.97480000
vn 0.15920000 0.15600000 -0.97480000
vn 0.19160000 -0.00380000 -0.98150000
vn 0.97720000 0.14000000 -0.15970000
vn 0.98130000 -0.01960000 -0.19170000
vn 0.15950000 0.97420000 -0.15970000
vn 0.15920000 0.15600000 -0.97480000
vn -0.00000000 0.98150000 -0.19170000
vn -0.00000000 0.19160000 -0.98150000
vn -0.98130000 -0.01960000 -0.19170000
vn -0.97760000 -0.21040000 -0.00000000
vn -0.97110000 -0.17800000 -0.15870000
vn -0.99980000 -0.02000000 -0.00000000
vn -0.00000000 -0.19160000 -0.98150000
vn -0.15900000 -0.16220000 -0.97390000
vn -0.19160000 -0.00380000 -0.98150000
vn -0.00000000 -0.00000000 -1.00000000
vn -0.00000000 -1.00000000 -0.00000000
vn -0.19080000 -0.98160000 -0.00000000
vn -0.15850000 -0.97450000 -0.15870000
vn -0.00000000 -0.98150000 -0.19170000
vn -0.15900000 -0.16220000 -0.97390000
vn -0.19160000 -0.00380000 -0.98150000
vn -0.97110000 -0.17800000 -0.15870000
vn -0.98130000 -0.01960000 -0.19170000
vn -0.97110000 -0.17800000 -0.15870000
vn -0.15850000 -0.97450000 -0.15870000
vn -0.15900000 -0.16220000 -0.97390000
vn -0.15850000 -0.97450000 -0.15870000
vn -0.00000000 -0.98150000 -0.19170000
vn -0.15900000 -0.16220000 -0.97390000
vn -0.00000000 -0.19160000 -0.98150000
vn -0.19080000 -0.98160000 -0.00000000
vn -0.15850000 -0.97450000 -0.15870000
vn -0.97110000 -0.17800000 -0.15870000
vn -0.97760000 -0.21040000 -0.00000000
vn 0.98130000 -0.01960000 -0.19170000
vn 0.97110000 -0.17800000 -0.15870000
vn 0.99980000 -0.02000000 -0.00000000
vn 0.97760000 -0.21040000 -0.00000000
vn 0.19080000 -0.98160000 -0.00000000
vn 0.15850000 -0.97450000 -0.15870000
vn -0.00000000 -1.00000000 -0.00000000
vn -0.00000000 -0.98150000 -0.19170000
vn -0.00000000 -0.00000000 -1.00000000
vn 0.15900000 -0.16220000 -0.97390000
vn -0.00000000 -0.19160000 -0.98150000
vn 0.19160000 -0.00380000 -0.98150000
vn 0.97760000 -0.21040000 -0.00000000
vn 0.19080000 -0.98160000 -0.00000000
vn 0.97110000 -0.17800000 -0.15870000
vn 0.15850000 -0.97450000 -0.15870000
vn 0.15900000 -0.16220000 -0.97390000
vn 0.15850000 -0.97450000 -0.15870000
vn 0.97110000 -0.17800000 -0.15870000
vn 0.15850000 -0.97450000 -0.15870000
vn 0.15900000 -0.16220000 -0.97390000
vn -0.00000000 -0.98150000 -0.19170000
vn -0.00000000 -0.19160000 -0.98150000
vn 0.19160000 -0.00380000 -0.98150000
vn 0.97110000 -0.17800000 -0.15870000
vn 0.98130000 -0.01960000 -0.19170000
vn 0.15900000 -0.16220000 -0.97390000
vn -0.15950000 0.97420000 0.15970000
vn -0.19220000 0.98140000 -0.00000000
vn -0.00000000 0.98150000 0.19170000
vn -0.00000000 1.00000000 -0.00000000
vn -0.98130000 -0.01960000 0.19170000
vn -0.99980000 -0.02000000 -0.00000000
vn -0.98500000 0.17250000 -0.00000000
vn -0.97720000 0.14000000 0.15970000
vn -0.00000000 0.19160000 0.98150000
vn -0.15920000 0.15600000 0.97480000
vn -0.19160000 -0.00380000 0.98150000
vn -0.00000000 -0.00000000 1.00000000
vn -0.15950000 0.97420000 0.15970000
vn -0.97720000 0.14000000 0.15970000
vn -0.98500000 0.17250000 -0.00000000
vn -0.19220000 0.98140000 -0.00000000
vn -0.15920000 0.15600000 0.97480000
vn -0.15950000 0.97420000 0.15970000
vn -0.97720000 0.14000000 0.15970000
vn -0.19160000 -0.00380000 0.98150000
vn -0.97720000 0.14000000 0.15970000
vn -0.15920000 0.15600000 0.97480000
vn -0.98130000 -0.01960000 0.19170000
vn -0.00000000 0.98150000 0.19170000
vn -0.15920000 0.15600000 0.97480000
vn -0.00000000 0.19160000 0.98150000
vn -0.15950000 0.97420000 0.15970000
vn 0.15950000 0.97420000 0.15970000
vn 0.19220000 0.98140000 -0.00000000
vn -0.00000000 1.00000000 -0.00000000
vn -0.00000000 0.98150000 0.19170000
vn -0.00000000 -0.00000000 1.00000000
vn 0.19160000 -0.00380000 0.98150000
vn 0.15920000 0.15600000 0.97480000
vn -0.00000000 0.19160000 0.98150000
vn 0.98130000 -0.01960000 0.19170000
vn 0.98500000 0.17250000 -0.00000000
vn 0.99980000 -0.02000000 -0.00000000
vn 0.97720000 0.14000000 0.15970000
vn -0.00000000 0.98150000 0.19170000
vn 0.15950000 0.97420000 0.15970000
vn 0.15920000 0.15600000 0.97480000
vn -0.00000000 0.19160000 0.98150000
vn 0.97720000 0.14000000 0.15970000
vn 0.15920000 0.15600000 0.97480000
vn 0.15950000 0.97420000 0.15970000
vn 0.98130000 -0.01960000 0.19170000
vn 0.97720000 0.14000000 0.15970000
vn 0.15920000 0.15600000 0.97480000
vn 0.19160000 -0.00380000 0.98150000
vn 0.19220000 0.98140000 -0.00000000
vn 0.98500000 0.17250000 -0.00000000
vn 0.15950000 0.97420000 0.15970000
vn 0.97720000 0.14000000 0.15970000
vn -0.99980000 -0.02000000 -0.00000000
vn -0.97110000 -0.17800000 0.15870000
vn -0.97760000 -0.21040000 -0.00000000
vn -0.98130000 -0.01960000 0.19170000
vn -0.00000000 -1.00000000 -0.00000000
vn -0.00000000 -0.98150000 0.19170000
vn -0.15850000 -0.97450000 0.15870000
vn -0.19080000 -0.98160000 -0.00000000
vn -0.15900000 -0.16220000 0.97390000
vn -0.00000000 -0.19160000 0.98150000
vn -0.00000000 -0.00000000 1.00000000
vn -0.19160000 -0.00380000 0.98150000
vn -0.97760000 -0.21040000 -0.00000000
vn -0.15850000 -0.97450000 0.15870000
vn -0.19080000 -0.98160000 -0.00000000
vn -0.97110000 -0.17800000 0.15870000
vn -0.15900000 -0.16220000 0.97390000
vn -0.97110000 -0.17800000 0.15870000
vn -0.15850000 -0.97450000 0.15870000
vn -0.00000000 -0.98150000 0.19170000
vn -0.15900000 -0.16220000 0.97390000
vn -0.00000000 -0.19160000 0.98150000
vn -0.15850000 -0.97450000 0.15870000
vn -0.97110000 -0.17800000 0.15870000
vn -0.98130000 -0.01960000 0.19170000
vn -0.19160000 -0.00380000 0.98150000
vn -0.15900000 -0.16220000 0.97390000
vn 0.19080000 -0.98160000 -0.00000000
vn 0.15850000 -0.97450000 0.15870000
vn -0.00000000 -1.00000000 -0.00000000
vn -0.00000000 -0.98150000 0.19170000
vn 0.99980000 -0.02000000 -0.00000000
vn 0.97760000 -0.21040000 -0.00000000
vn 0.98130000 -0.01960000 0.19170000
vn 0.97110000 -0.17800000 0.15870000
vn -0.00000000 -0.00000000 1.00000000
vn -0.00000000 -0.19160000 0.98150000
vn 0.19160000 -0.00380000 0.98150000
vn 0.15900000 -0.16220000 0.97390000
vn 0.97760000 -0.21040000 -0.00000000
vn 0.15850000 -0.97450000 0.15870000
vn 0.19080000 -0.98160000 -0.00000000
vn 0.97110000 -0.17800000 0.15870000
vn 0.15900000 -0.16220000 0.97390000
vn 0.97110000 -0.17800000 0.15870000
vn 0.15850000 -0.97450000 0.15870000
vn 0.15900000 -0.16220000 0.97390000
vn 0.19160000 -0.00380000 0.98150000
vn 0.98130000 -0.01960000 0.19170000
vn 0.97110000 -0.17800000 0.15870000
vn -0.00000000 -0.19160000 0.98150000
vn 0.15900000 -0.16220000 0.97390000
vn -0.00000000 -0.98150000 0.19170000
vn 0.15850000 -0.97450000 0.15870000
f 7//7 14//14 8//8
f 5//5 12//12 13//13
f 13//13 6//6 5//5
f 3//3 10//10 11//11
f 11//11 4//4 3//3
f 1//1 9//9 2//2
f 6//6 13//13 14//14
f 14//14 7//7 6//6
f 4//4 11//11 12//12
f 12//12 5//5 4//4
f 2//2 9//9 10//10
f 10//10 3//3 2//2
f 14//14 20//20 8//8
f 12//12 18//18 19//19
f 19//19 13//13 12//12
f 10//10 16//16 17//17
f 17//17 11//11 10//10
f 1//1 15//15 9//9
f 13//13 19//19 20//20
f 20//20 14//14 13//13
f 11//11 17//17 18//18
f 18//18 12//12 11//11
f 9//9 15//15 16//16
f 16//16 10//10 9//9
f 20//20 26//26 8//8
f 18//18 24//24 25//25
f 25//25 19//19 18//18
f 16//16 22//22 23//23
f 23//23 17//17 16//16
f 1//1 21//21 15//15
f 19//19 25//25 26//26
f 26//26 20//20 19//19
f 17//17 23//23 24//24
f 24//24 18//18 17//17
f 15//15 21//21 22//22
f 22//22 16//16 15//15
f 22//22 28//28 29//29
f 29//29 23//23 22//22
f 1//1 27//27 21//21
f 25//25 31//31 32//32
f 32//32 26//26 25//25
f 23//23 29//29 30//30
f 30//30 24//24 23//23
f 21//21 27//27 28//28
f 28//28 22//22 21//21
f 26//26 32//32 8//8
f 24//24 30//30 31//31
f 31//31 25//25 24//24
f 31//31 37//37 38//38
f 38//38 32//32 31//31
f 29//29 35//35 36//36
f 36//36 30//30 29//29
f 27//27 33//33 34//34
f 34//34 28//28 27//27
f 32//32 38//38 8//8
f 30//30 36//36 37//37
f 37//37 31//31 30//30
f 28//28 34//34 35//35
f 35//35 29//29 28//28
f 1//1 33//33 27//27
f 37//37 43//43 44//44
f 44//44 38//38 37//37
f 35//35 41//41 42//42
f 42//42 36//36 35//35
f 33//33 39//39 40//40
f 40//40 34//34 33//33
f 38//38 44//44 8//8
f 36//36 42//42 43//43
f 43//43 37//37 36//36
f 34//34 40//40 41//41
f 41//41 35//35 34//34
f 1//1 39//39 33//33
f 39//39 45//45 46//46
f 46//46 40//40 39//39
f 44//44 50//50 8//8
f 42//42 48//48 49//49
f 49//49 43//43 42//42
f 40//40 46//46 47//47
f 47//47 41//41 40//40
f 1//1 45//45 39//39
f 43//43 49//49 50//50
f 50//50 44//44 43//43
f 41//41 47//47 48//48
f 48//48 42//42 41//41
f 50//50 56//56 8//8
f 48//48 54//54 55//55
f 55//55 49//49 48//48
f 46//46 52//52 53//53
f 53//53 47//47 46//46
f 1//1 51//51 45//45
f 49//49 55//55 56//56
f 56//56 50//50 49//49
f 47//47 53//53 54//54
f 54//54 48//48 47//47
f 45//45 51//51 52//52
f 52//52 46//46 45//45
f 54//54 60//60 61//61
f 61//61 55//55 54//54
f 52//52 58//58 59//59
f 59//59 53//53 52//52
f 1//1 57//57 51//51
f 55//55 61//61 62//62
f 62//62 56//56 55//55
f 53//53 59//59 60//60
f 60//60 54//54 53//53
f 51//51 57//57 58//58
f 58//58 52//52 51//51
f 56//56 62//62 8//8
f 1//1 63//63 57//57
f 61//61 67//67 68//68
f 68//68 62//62 61//61
f 59//59 65//65 66//66
f 66//66 60//60 59//59
f 57//57 63//63 64//64
f 64//64 58//58 57//57
f 62//62 68//68 8//8
f 60//60 66//66 67//67
f 67//67 61//61 60//60
f 58//58 64//64 65//65
f 65//65 59//59 58//58
f 67//67 73//73 74//74
f 74//74 68//68 67//67
f 65//65 71//71 72//72
f 72//72 66//66 65//65
f 63//63 69//69 70//70
f 70//70 64//64 63//63
f 68//68 74//74 8//8
f 66//66 72//72 73//73
f 73//73 67//67 66//66
f 64//64 70//70 71//71
f 71//71 65//65 64//64
f 1//1 69//69 63//63
f 71//71 77//77 78//78
f 78//78 72//72 71//71
f 69//69 75//75 76//76
f 76//76 70//70 69//69
f 74//74 80//80 8//8
f 72//72 78//78 79//79
f 79//79 73//73 72//72
f 70//70 76//76 77//77
f 77//77 71//71 70//70
f 1//1 75//75 69//69
f 73//73 79//79 80//80
f 80//80 74//74 73//73
f 80//80 86//86 8//8
f 78//78 84//84 85//85
f 85//85 79//79 78//78
f 76//76 82//82 83//83
f 83//83 77//77 76//76
f 1//1 81//81 75//75
f 79//79 85//85 86//86
f 86//86 80//80 79//79
f 77//77 83//83 84//84
f 84//84 78//78 77//77
f 75//75 81//81 82//82
f 82//82 76//76 75//75
f 86//86 92//92 8//8
f 84//84 90//90 91//91
f 91//91 85//85 84//84
f 82//82 88//88 89//89
f 89//89 83//83 82//82
f 1//1 87//87 81//81
f 85//85 91//91 92//92
f 92//92 86//86 85//85
f 83//83 89//89 90//90
f 90//90 84//84 83//83
f 81//81 87//87 88//88
f 88//88 82//82 81//81
f 88//88 94//94 95//95
f 95//95 89//89 88//88
f 1//1 93//93 87//87
f 91//91 97//97 98//98
f 98//98 92//92 91//91
f 89//89 95//95 96//96
f 96//96 90//90 89//89
f 87//87 93//93 94//94
f 94//94 88//88 87//87
f 92//92 98//98 8//8
f 90//90 96//96 97//97
f 97//97 91//91 90//90
f 97//97 103//103 104//104
f 104//104 98//98 97//97
f 95//95 101//101 102//102
f 102//102 96//96 95//95
f 93//93 99//99 100//100
f 100//100 94//94 93//93
f 98//98 104//104 8//8
f 96//96 102//102 103//103
f 103//103 97//97 96//96
f 94//94 100//100 101//101
f 101//101 95//95 94//94
f 1//1 99//99 93//93
f 103//103 109//109 110//110
f 110//110 104//104 103//103
f 101//101 107//107 108//108
f 108//108 102//102 101//101
f 99//99 105//105 106//106
f 106//106 100//100 99//99
f 104//104 110//110 8//8
f 102//102 108//108 109//109
f 109//109 103//103 102//102
f 100//100 106//106 107//107
f 107//107 101//101 100//100
f 1//1 105//105 99//99
f 105//105 111//111 112//112
f 112//112 106//106 105//105
f 110//110 116//116 8//8
f 108//108 114//114 115//115
f 115//115 109//109 108//108
f 106//106 112//112 113//113
f 113//113 107//107 106//106
f 1//1 111//111 105//105
f 109//109 115//115 116//116
f 116//116 110//110 109//109
f 107//107 113//113 114//114
f 114//114 108//108 107//107
f 116//116 122//122 8//8
f 114//114 120//120 121//121
f 121//121 115//115 114//114
f 112//112 118//118 119//119
f 119//119 113//113 112//112
f 1//1 117//117 111//111
f 115//115 121//121 122//122
f 122//122 116//116 115//115
f 113//113 119//119 120//120
f 120//120 114//114 113//113
f 111//111 117//117 118//118
f 118//118 112//112 111//111
f 120//120 126//126 127//127
f 127//127 121//121 120//120
f 118//118 124//124 125//125
f 125//125 119//119 118//118
f 1//1 123//123 117//117
f 121//121 127//127 128//128
f 128//128 122//122 121//121
f 119//119 125//125 126//126
f 126//126 120//120 119//119
f 117//117 123//123 124//124
f 124//124 118//118 117//117
f 122//122 128//128 8//8
f 1//1 129//129 123//123
f 127//127 133//133 134//134
f 134//134 128//128 127//127
f 125//125 131//131 132//132
f 132//132 126//126 125//125
f 123//123 129//129 130//130
f 130//130 124//124 123//123
f 128//128 134//134 8//8
f 126//126 132//132 133//133
f 133//133 127//127 126//126
f 124//124 130//130 131//131
f 131//131 125//125 124//124
f 133//133 139//139 140//140
f 140//140 134//134 133//133
f 131//131 137//137 138//138
f 138//138 132//132 131//131
f 129//129 135//135 136//136
f 136//136 130//130 129//129
f 134//134 140//140 8//8
f 132//132 138//138 139//139
f 139//139 133//133 132//132
f 130//130 136//136 137//137
f 137//137 131//131 130//130
f 1//1 135//135 129//129
f 137//137 143//143 144//144
f 144//144 138//138 137//137
f 135//135 141//141 142//142
f 142//142 136//136 135//135
f 140//140 146//146 8//8
f 138//138 144//144 145//145
f 145//145 139//139 138//138
f 136//136 142//142 143//143
f 143//143 137//137 136//136
f 1//1 141//141 135//135
f 139//139 145//145 146//146
f 146//146 140//140 139//139
f 146//146 7//7 8//8
f 144//144 5//5 6//6
f 6//6 145//145 144//144
f 142//142 3//3 4//4
f 4//4 143//143 142//142
f 1//1 2//2 141//141
f 145//145 6//6 7//7
f 7//7 146//146 145//145
f 143//143 4//4 5//5
f 5//5 144//144 143//143
f 141//141 2//2 3//3
f 3//3 142//142 141//141
f 148//148 162//162 164//164
f 164//164 172//172 148//148
f 154//154 166//166 165//165
f 165//165 161//161 154//154
f 158//158 173//173 163//163
f 163//163 168//168 158//158
f 175//175 189//189 191//191
f 191//191 197//197 175//175
f 179//179 195//195 190//190
f 190//190 188//188 179//179
f 183//183 198//198 192//192
f 192//192 193//193 183//183
f 203//203 215//215 217//217
f 217//217 226//226 203//203
f 206//206 222//222 219//219
f 219//219 213//213 206//206
f 211//211 225//225 218//218
f 218//218 220//220 211//211
f 229//229 242//242 246//246
f 246//246 252//252 229//229
f 233//233 247//247 245//245
f 245//245 243//243 233//233
f 237//237 254//254 244//244
f 244//244 248//248 237//237
f 255//255 267//267 272//272
f 272//272 281//281 255//255
f 262//262 275//275 273//273
f 273//273 268//268 262//262
f 264//264 279//279 271//271
f 271//271 276//276 264//264
f 282//282 295//295 300//300
f 300//300 307//307 282//282
f 288//288 303//303 299//299
f 299//299 296//296 288//288
f 293//293 308//308 298//298
f 298//298 302//302 293//293
f 310//310 324//324 326//326
f 326//326 332//332 310//310
f 315//315 331//331 327//327
f 327//327 322//322 315//315
f 317//317 335//335 325//325
f 325//325 329//329 317//317
f 337//337 349//349 354//354
f 354//354 362//362 337//337
f 343//343 358//358 353//353
f 353//353 351//351 343//343
f 347//347 360//360 352//352
f 352//352 355//355 347//347
f 201//201 150//150 170//170
f 170//170 216//216 201//201
f 214//214 171//171 157//157
f 157//157 207//207 214//214
f 153//153 174//174 199//199
f 199//199 169//169 153//153
f 167//167 200//200 182//182
f 182//182 155//155 167//167
f 180//180 228//228 253//253
f 253//253 196//196 180//180
f 194//194 251//251 239//239
f 239//239 184//184 194//194
f 235//235 212//212 221//221
f 221//221 249//249 235//235
f 250//250 223//223 205//205
f 205//205 238//238 250//250
f 285//285 257//257 278//278
f 278//278 294//294 285//285
f 297//297 280//280 263//263
f 263//263 289//289 297//297
f 259//259 312//312 333//333
f 333//333 277//277 259//259
f 274//274 334//334 320//320
f 320//320 265//265 274//274
f 314//314 339//339 361//361
f 361//361 328//328 314//314
f 330//330 359//359 345//345
f 345//345 318//318 330//330
f 342//342 290//290 301//301
f 301//301 357//357 342//342
f 356//356 304//304 287//287
f 287//287 346//346 356//356
f 256//256 151//151 159//159
f 159//159 270//270 256//256
f 269//269 160//160 147//147
f 147//147 261//261 269//269
f 210//210 316//316 323//323
f 323//323 224//224 210//210
f 227//227 321//321 311//311
f 311//311 202//202 227//227
f 176//176 283//283 305//305
f 305//305 187//187 176//176
f 186//186 306//306 291//291
f 291//291 178//178 186//186
f 336//336 232//232 241//241
f 241//241 350//350 336//336
f 348//348 240//240 231//231
f 231//231 341//341 348//348
f 149//149 204//204 309//309
f 309//309 260//260 149//149
f 156//156 185//185 236//236
f 236//236 208//208 156//156
f 152//152 258//258 284//284
f 284//284 177//177 152//152
f 181//181 292//292 340//340
f 340//340 230//230 181//181
f 209//209 234//234 338//338
f 338//338 313//313 209//209
f 266//266 319//319 344//344
f 344//344 286//286 266//266

