# https://github.com/mikedh/trimesh
v -0.01435328 -0.03464200 0.09997524
v -0.01434905 -0.03464374 0.09997494
v -0.01435328 -0.03465154 0.09997494
v -0.01435328 -0.03464547 0.10000011
v 0.00005195 -0.03749727 0.10000011
v 0.00005195 -0.03749467 0.09997494
v -0.01435328 -0.03682876 0.09997494
v -0.01435328 -0.03465154 0.10000722
v 0.00005195 -0.03999617 0.10300000
v 0.00005195 -0.03996929 0.10296802
v 0.00005195 -0.03999357 0.09997494
v -0.01035151 -0.03863487 0.09997494
v -0.01435328 -0.04096729 0.10000011
v -0.01435328 -0.03683049 0.10248891
v 0.00005195 -0.04349653 0.10300000
v -0.01435328 -0.03727964 0.10300000
v 0.00005195 -0.04349653 0.10000011
v -0.00000022 -0.03999703 0.09997494
v -0.01125818 -0.04201731 0.10000011
v -0.00522169 -0.03965541 0.09997494
v -0.01435328 -0.04096729 0.10300000
v -0.00000022 -0.04350000 0.10300000
v -0.00000022 -0.04350000 0.10000011
v -0.00567855 -0.04312716 0.10000011
v -0.01125818 -0.04201731 0.10300000
v -0.00567855 -0.04312716 0.10300000
f 1 2 3
f 1 3 7
f 1 7 13
f 1 13 21
f 1 21 16
f 1 16 14
f 1 14 8
f 1 8 4
f 1 4 5
f 1 5 6
f 1 6 2
f 2 6 11
f 2 11 18
f 2 18 20
f 2 20 12
f 2 12 7
f 2 7 3
f 4 8 9
f 4 9 10
f 4 10 5
f 5 10 9
f 5 9 15
f 5 15 17
f 5 17 11
f 5 11 6
f 7 12 13
f 8 14 9
f 9 14 16
f 9 16 21
f 9 21 25
f 9 25 26
f 9 26 22
f 9 22 15
f 11 17 23
f 11 23 18
f 12 19 13
f 12 20 19
f 13 19 25
f 13 25 21
f 15 22 23
f 15 23 17
f 18 23 20
f 19 20 24
f 19 24 26
f 19 26 25
f 20 23 24
f 22 26 24
f 22 24 23

