# https://github.com/mikedh/trimesh
v -0.02182368 -0.01674040 0.00306438
v -0.02518457 -0.01674040 0.00306438
v -0.02589090 -0.00912163 0.00306438
v -0.03097286 -0.00912163 0.04986733
v -0.03241371 -0.00912163 0.06311899
v -0.03621896 -0.00970635 0.09997134
v -0.03341518 -0.01683861 0.09997134
v -0.02921034 -0.01683861 0.06329922
v -0.02919210 -0.01683861 0.06312848
v -0.02624738 -0.01515243 0.00306438
v -0.03209868 -0.01683861 0.06312848
v -0.02705486 -0.01674040 0.01863058
v -0.02884059 -0.00912163 0.00306438
v -0.03512962 -0.00912163 0.06311899
v -0.03876077 -0.00970635 0.09997134
v -0.03619575 -0.01683861 0.09997134
v -0.02793032 -0.01174230 0.00306438
v -0.02899811 -0.01674040 0.03484182
v -0.03695183 -0.01530579 0.09997134
v -0.02998963 -0.00912163 0.01396357
v -0.02799995 -0.01159877 0.00306438
v -0.03403696 -0.00912163 0.05238107
v -0.03507490 -0.00939964 0.06311899
v -0.03832968 -0.00970635 0.09572170
v -0.03863310 -0.01035302 0.09997134
v -0.03354783 -0.01389535 0.06311899
f 1 2 10
f 1 10 17
f 1 17 21
f 1 21 13
f 1 13 3
f 1 3 4
f 1 4 5
f 1 5 6
f 1 6 7
f 1 7 8
f 1 8 9
f 1 9 11
f 1 11 2
f 2 11 12
f 2 12 10
f 3 13 20
f 3 20 22
f 3 22 14
f 3 14 5
f 3 5 4
f 5 14 15
f 5 15 6
f 6 15 25
f 6 25 19
f 6 19 16
f 6 16 7
f 7 16 11
f 7 11 9
f 7 9 8
f 10 12 18
f 10 18 11
f 10 11 17
f 11 16 19
f 11 19 17
f 11 18 12
f 13 21 20
f 14 22 23
f 14 23 24
f 14 24 15
f 15 24 25
f 17 19 21
f 19 26 21
f 19 25 23
f 19 23 26
f 20 21 23
f 20 23 22
f 21 26 23
f 23 25 24

