# https://github.com/mikedh/trimesh
v 0.00005195 0.04349660 0.10300000
v 0.00567856 0.04312774 0.10300000
v 0.00005195 0.04349660 0.10000011
v 0.00005195 0.03999584 0.10300000
v 0.00567856 0.04312774 0.10000011
v 0.01125800 0.04201724 0.10300000
v 0.00005195 0.03999388 0.09997494
v 0.00522160 0.03965535 0.09997494
v 0.00005195 0.03749698 0.10000011
v 0.01666506 0.03350407 0.10000011
v 0.01666506 0.03628570 0.10300000
v 0.01125800 0.04201724 0.10000011
v 0.01664555 0.04018859 0.10300000
v 0.00005195 0.03749404 0.09997494
v 0.01035221 0.03863389 0.09997494
v 0.01666506 0.03350114 0.09997494
v 0.01666506 0.04017978 0.10300000
v 0.01664555 0.04018859 0.10000011
v 0.01530557 0.03695298 0.09997494
v 0.01666506 0.03628276 0.09997494
v 0.01666506 0.04017978 0.10000011
f 1 2 5
f 1 5 3
f 1 3 7
f 1 7 14
f 1 14 9
f 1 9 4
f 1 4 11
f 1 11 17
f 1 17 13
f 1 13 6
f 1 6 2
f 2 6 12
f 2 12 5
f 3 5 8
f 3 8 7
f 4 9 10
f 4 10 11
f 5 12 8
f 6 13 18
f 6 18 12
f 7 8 15
f 7 15 19
f 7 19 20
f 7 20 16
f 7 16 14
f 8 12 15
f 9 14 16
f 9 16 10
f 10 16 20
f 10 20 21
f 10 21 17
f 10 17 11
f 12 18 19
f 12 19 15
f 13 17 21
f 13 21 18
f 18 21 19
f 19 21 20

