# https://github.com/mikedh/trimesh
v 0.00872118 -0.03895910 0.09997134
v 0.01035310 -0.03863371 0.09997134
v 0.00872118 -0.03641341 0.09997134
v 0.00872118 -0.03520996 0.06313354
v 0.00939980 -0.03507478 0.06313354
v 0.01461641 -0.03718621 0.09997134
v 0.01461757 -0.03529011 0.08197793
v 0.02051164 -0.03129692 0.09997134
v 0.02051164 -0.02674747 0.06321287
v 0.02051164 -0.02673790 0.06313354
v 0.00872118 -0.03255182 0.06313354
v 0.01252630 -0.03401367 0.06313354
v 0.01530542 -0.03695174 0.09997134
v 0.01999806 -0.03463813 0.09997134
v 0.01389624 -0.03354832 0.06313354
v 0.01685886 -0.03208886 0.06313354
v 0.02051164 -0.03429480 0.09997134
v 0.02051164 -0.02987574 0.06313354
v 0.01815609 -0.03144885 0.06313354
v 0.02051164 -0.03155771 0.07714964
f 1 2 6
f 1 6 13
f 1 13 14
f 1 14 17
f 1 17 8
f 1 8 3
f 1 3 11
f 1 11 4
f 1 4 5
f 1 5 2
f 2 5 7
f 2 7 6
f 3 8 9
f 3 9 10
f 3 10 11
f 4 11 10
f 4 10 18
f 4 18 19
f 4 19 16
f 4 16 15
f 4 15 12
f 4 12 5
f 5 12 7
f 6 7 13
f 7 14 13
f 7 12 15
f 7 15 16
f 7 16 14
f 8 17 20
f 8 20 18
f 8 18 10
f 8 10 9
f 14 16 19
f 14 19 20
f 14 20 17
f 18 20 19

