# https://github.com/mikedh/trimesh
v 0.03465756 0.01430608 0.09997524
v 0.03466102 0.01430608 0.10000011
v 0.03682229 0.01430608 0.09997494
v 0.03621987 0.00970505 0.09997494
v 0.03749742 -0.00000698 0.09997494
v 0.03750002 -0.00000698 0.10000011
v 0.03469045 0.01430608 0.10003387
v 0.03999972 0.00000002 0.10300000
v 0.03729229 0.01430608 0.09997494
v 0.03999626 -0.00000698 0.09997494
v 0.04000319 -0.00000698 0.10300000
v 0.03729488 0.01430608 0.10300000
v 0.04098299 0.01430608 0.10000011
v 0.03863475 0.01035233 0.09997494
v 0.04349481 -0.00000698 0.10000011
v 0.03999713 0.00000002 0.09997494
v 0.04350000 0.00000002 0.10000011
v 0.04349914 -0.00000698 0.10300000
v 0.04098299 0.01430608 0.10300000
v 0.04201732 0.01125881 0.10000011
v 0.04312782 0.00567845 0.10000011
v 0.03965524 0.00522171 0.09997494
v 0.04350000 0.00000002 0.10300000
v 0.04201732 0.01125881 0.10300000
v 0.04312782 0.00567845 0.10300000
f 1 2 7
f 1 7 12
f 1 12 19
f 1 19 13
f 1 13 9
f 1 9 3
f 1 3 4
f 1 4 5
f 1 5 6
f 1 6 2
f 2 6 8
f 2 8 7
f 3 9 14
f 3 14 22
f 3 22 16
f 3 16 10
f 3 10 5
f 3 5 4
f 5 10 15
f 5 15 18
f 5 18 11
f 5 11 6
f 6 11 8
f 7 8 12
f 8 11 18
f 8 18 23
f 8 23 25
f 8 25 24
f 8 24 19
f 8 19 12
f 9 13 14
f 10 16 17
f 10 17 15
f 13 19 24
f 13 24 20
f 13 20 14
f 14 20 21
f 14 21 22
f 15 17 18
f 16 22 17
f 17 23 18
f 17 22 21
f 17 21 25
f 17 25 23
f 20 24 25
f 20 25 21

