# https://github.com/mikedh/trimesh
v 0.01432168 -0.04097835 0.10000011
v 0.01664730 -0.04018868 0.10000011
v 0.01432168 -0.04097835 0.10300000
v 0.01432168 -0.03728686 0.09997494
v 0.02174889 -0.03767076 0.10000011
v 0.01664730 -0.04018868 0.10300000
v 0.01530652 -0.03695214 0.09997494
v 0.01999984 -0.03463778 0.09997494
v 0.01432168 -0.03728822 0.10300000
v 0.01432168 -0.03682371 0.09997494
v 0.02593956 -0.03487141 0.10000011
v 0.02174889 -0.03767076 0.10300000
v 0.02434745 -0.03173323 0.09997494
v 0.01432168 -0.03467331 0.10002203
v 0.02593956 -0.03034107 0.10300000
v 0.02593956 -0.02790785 0.10079961
v 0.02593956 -0.02702392 0.10000011
v 0.01432168 -0.03465145 0.09997524
v 0.01435011 -0.03464188 0.09997494
v 0.02593956 -0.03487141 0.10300000
v 0.02593956 -0.03033697 0.09997494
v 0.01432168 -0.03465418 0.10000011
v 0.02593956 -0.03032740 0.09997494
v 0.02593728 -0.02702255 0.09997494
f 1 2 6
f 1 6 3
f 1 3 9
f 1 9 14
f 1 14 22
f 1 22 18
f 1 18 10
f 1 10 4
f 1 4 2
f 2 5 12
f 2 12 6
f 2 4 7
f 2 7 8
f 2 8 5
f 3 6 12
f 3 12 20
f 3 20 15
f 3 15 9
f 4 10 19
f 4 19 24
f 4 24 23
f 4 23 21
f 4 21 13
f 4 13 8
f 4 8 7
f 5 11 20
f 5 20 12
f 5 8 11
f 8 13 11
f 9 15 16
f 9 16 17
f 9 17 14
f 10 18 19
f 11 13 21
f 11 21 23
f 11 23 17
f 11 17 16
f 11 16 15
f 11 15 20
f 14 17 22
f 17 23 24
f 17 24 22
f 18 22 24
f 18 24 19

