# https://github.com/mikedh/trimesh
v 0.02983776 -0.02310641 0.05965009
v 0.02977349 -0.02310641 0.05985751
v 0.02947552 -0.02350900 0.05985751
v 0.02952519 -0.02354977 0.05957649
v 0.02559606 -0.02041395 -0.00782817
v 0.02585021 -0.02041395 -0.00458305
v 0.02943755 -0.02310641 0.06000471
v 0.02810252 -0.02511598 0.05985751
v 0.02922721 -0.02331195 0.06002478
v 0.02555516 -0.02041395 -0.00826977
v 0.02064156 -0.02041395 -0.00458305
v 0.02086358 -0.02055834 -0.00096994
v 0.02886498 -0.02310641 0.06007162
v 0.02897014 -0.02310641 0.06006493
v 0.02663896 -0.02664653 0.05985751
v 0.02303994 -0.02889222 0.06008500
v 0.02330870 -0.02923197 0.06002478
v 0.02039033 -0.02557634 -0.00826977
v 0.02026764 -0.02041395 -0.00826977
v 0.02041078 -0.02041395 -0.00635616
v 0.00000854 -0.02989956 -0.00826977
v -0.00000022 -0.03042616 -0.00096994
v -0.00000314 -0.03093238 0.00608232
v 0.02129593 -0.02110702 0.00951478
v 0.02149750 -0.02127010 0.01290040
v 0.02608684 -0.02310641 0.05761604
v 0.02753871 -0.02310641 0.05976384
v 0.02770230 -0.02310641 0.05985751
v 0.02800028 -0.02310641 0.05994449
v 0.02867509 -0.02310641 0.06004485
v 0.00000270 -0.03652114 0.06002478
v 0.00000270 -0.03695092 0.06008500
v 0.02511113 -0.02810912 0.05985751
v 0.01603178 -0.03329019 0.06008500
v 0.01621874 -0.03368259 0.06002478
v 0.02004562 -0.03190234 0.05985751
v 0.02180716 -0.03073533 0.05985751
v 0.02350442 -0.02947318 0.05985751
v 0.01952856 -0.02611823 -0.00826977
v 0.02354532 -0.02952754 0.05957649
v 0.00000854 -0.03270753 -0.00826977
v -0.00000606 -0.03144539 0.01290040
v -0.00000022 -0.03319676 -0.00096994
v -0.00000606 -0.03244423 0.02613511
v -0.00000606 -0.03375054 0.04246103
v 0.02309836 -0.02310641 0.04373231
v 0.02379947 -0.02310641 0.04737888
v 0.02480439 -0.02310641 0.05243724
v -0.00000606 -0.03466105 0.05243724
v -0.00000606 -0.03528788 0.05762942
v -0.00000606 -0.03573974 0.05957649
v -0.00000606 -0.03611175 0.05985751
v -0.00000606 -0.03651944 0.06001809
v -0.00000606 -0.03694752 0.06007831
v -0.00000606 -0.03695092 0.06007831
v -0.00000606 -0.03738579 0.06001809
v 0.00000270 -0.03738409 0.06002478
v 0.00831959 -0.03644810 0.06002478
v 0.00822319 -0.03602342 0.06008500
v 0.01244737 -0.03556307 0.05985751
v 0.01442507 -0.03482073 0.05985751
v 0.01635312 -0.03396458 0.05985751
v 0.01822566 -0.03298612 0.05985751
v 0.01419137 -0.02946809 -0.00826977
v 0.01433744 -0.02937975 -0.00826977
v 0.00728254 -0.03189045 -0.00826977
v 0.00422103 -0.03744185 0.05985751
v 0.00211479 -0.03762871 0.05985751
v 0.00000270 -0.03776800 0.05957649
v -0.00000606 -0.03776630 0.05957649
v -0.00000606 -0.03414295 0.01290040
v -0.00000606 -0.03769835 0.05985751
v 0.00000270 -0.03769835 0.05985751
v 0.00631559 -0.03715476 0.05985751
v 0.00838970 -0.03675217 0.05985751
v 0.01043460 -0.03621537 0.05985751
v 0.01323319 -0.02980613 -0.00826977
v 0.01638526 -0.03402404 0.05957649
v 0.00840431 -0.03682012 0.05957649
f 1 2 3
f 1 3 4
f 1 4 5
f 1 5 6
f 1 6 2
f 2 7 3
f 2 6 7
f 3 8 4
f 3 7 9
f 3 9 8
f 4 8 10
f 4 10 5
f 5 10 19
f 5 19 20
f 5 20 11
f 5 11 6
f 6 11 12
f 6 12 13
f 6 13 14
f 6 14 7
f 7 14 9
f 8 15 10
f 8 9 15
f 9 14 16
f 9 16 17
f 9 17 15
f 10 18 39
f 10 39 65
f 10 65 64
f 10 64 77
f 10 77 66
f 10 66 41
f 10 41 21
f 10 21 19
f 10 15 18
f 11 20 21
f 11 21 12
f 12 21 22
f 12 22 23
f 12 23 24
f 12 24 25
f 12 25 26
f 12 26 27
f 12 27 28
f 12 28 29
f 12 29 30
f 12 30 13
f 13 30 31
f 13 31 32
f 13 32 16
f 13 16 14
f 15 17 33
f 15 33 18
f 16 32 59
f 16 59 34
f 16 34 35
f 16 35 17
f 17 35 36
f 17 36 37
f 17 37 38
f 17 38 33
f 18 33 40
f 18 40 37
f 18 37 36
f 18 36 39
f 19 21 20
f 21 41 43
f 21 43 22
f 22 42 23
f 22 43 71
f 22 71 42
f 23 42 24
f 24 42 44
f 24 44 25
f 25 44 45
f 25 45 46
f 25 46 47
f 25 47 48
f 25 48 26
f 26 48 49
f 26 49 50
f 26 50 51
f 26 51 27
f 27 51 28
f 28 51 52
f 28 52 29
f 29 52 31
f 29 31 30
f 31 53 54
f 31 54 32
f 31 52 53
f 32 54 55
f 32 55 56
f 32 56 57
f 32 57 58
f 32 58 59
f 33 38 40
f 34 59 58
f 34 58 35
f 35 58 60
f 35 60 61
f 35 61 62
f 35 62 63
f 35 63 36
f 36 63 64
f 36 64 65
f 36 65 39
f 37 40 38
f 41 66 67
f 41 67 68
f 41 68 69
f 41 69 70
f 41 70 43
f 42 71 70
f 42 70 72
f 42 72 56
f 42 56 55
f 42 55 54
f 42 54 53
f 42 53 52
f 42 52 51
f 42 51 50
f 42 50 49
f 42 49 45
f 42 45 44
f 43 70 71
f 45 49 47
f 45 47 46
f 47 49 48
f 56 72 57
f 57 72 73
f 57 73 68
f 57 68 67
f 57 67 58
f 58 67 74
f 58 74 75
f 58 75 76
f 58 76 60
f 60 76 66
f 60 66 77
f 60 77 64
f 60 64 61
f 61 64 78
f 61 78 62
f 62 78 63
f 63 78 64
f 66 76 79
f 66 79 74
f 66 74 67
f 68 73 69
f 69 73 72
f 69 72 70
f 74 79 75
f 75 79 76

