# https://github.com/mikedh/trimesh
v 0.02087155 -0.02641198 0.00606211
v 0.01865947 -0.02607063 -0.01581902
v 0.01865947 -0.02519658 -0.02794429
v 0.01865947 -0.02489920 -0.03199292
v 0.02100235 -0.02632923 0.00606211
v 0.02983721 -0.02310196 0.05964202
v 0.02977181 -0.02310196 0.05984806
v 0.02943519 -0.02310196 0.06000259
v 0.02896969 -0.02310196 0.06006440
v 0.02886582 -0.02310196 0.06006440
v 0.02867539 -0.02310196 0.06004379
v 0.02800214 -0.02310196 0.05994077
v 0.02770399 -0.02310196 0.05984806
v 0.02754242 -0.02310196 0.05976564
v 0.02609591 -0.02310196 0.05761256
v 0.02481675 -0.02310196 0.05243073
v 0.02380496 -0.02310196 0.04737252
v 0.02310671 -0.02310196 0.04373597
v 0.02294129 -0.02310196 0.04245854
v 0.02228728 -0.02310196 0.03585505
v 0.01865947 -0.02236497 -0.01581902
v 0.01811703 -0.02024966 -0.04515868
v 0.02146208 -0.02310196 0.02613011
v 0.02041375 -0.02310196 0.01289223
v 0.01865947 -0.02442080 -0.03777226
v 0.01917306 -0.02403549 -0.03777226
v 0.02030603 -0.02308386 -0.03777226
v 0.03073550 -0.02180899 0.05984806
v 0.02137937 -0.02206500 -0.03777226
v 0.02207184 -0.02137455 -0.03777226
v 0.02284126 -0.02024966 -0.04109976
v 0.02302977 -0.01960835 -0.04515868
v 0.02365877 -0.01886360 -0.04515868
v 0.02424545 -0.01808264 -0.04515868
v 0.02494178 -0.01769216 -0.04030651
v 0.03368046 -0.01621817 0.06002319
v 0.02889082 -0.02303990 0.06008500
v 0.03190310 -0.02004279 0.05984806
v 0.02855805 -0.02276838 0.06002319
v 0.03652154 -0.00000170 0.06002319
v 0.03611182 0.00000606 0.05984806
v 0.03573865 0.00000606 0.05956991
v 0.03528662 0.00000606 0.05762286
v 0.03465762 0.00000606 0.05239982
v 0.03374971 0.00000606 0.04245854
v 0.02989876 0.00000089 -0.00826776
v 0.02955829 -0.00001204 -0.01299631
v 0.02936594 -0.00000945 -0.01581902
v 0.02843110 -0.00000945 -0.02949987
v 0.02793097 -0.00000945 -0.03777226
v 0.02781171 -0.00001204 -0.03975021
v 0.01865947 -0.02070221 -0.02949987
v 0.01818628 -0.02024966 -0.04236688
v 0.03093363 0.00000348 0.00608271
v 0.02242385 -0.02024966 -0.04515868
v 0.02750779 -0.00001204 -0.04515868
v 0.03244362 0.00000606 0.02613011
v 0.03119139 0.00000348 0.00951323
v 0.03097210 0.00000348 0.00659780
v 0.02589393 -0.01626472 -0.04030651
v 0.02478597 -0.01727324 -0.04515868
v 0.03298606 -0.01823004 0.05984806
v 0.03396514 -0.01635523 0.05984806
v 0.03481920 -0.01442352 0.05984806
v 0.03556361 -0.01244527 0.05984806
v 0.03644844 -0.00832069 0.06002319
v 0.03328998 -0.01603198 0.06008500
v 0.03695049 -0.00000170 0.06008500
v 0.03651769 0.00000606 0.06001289
v 0.03694472 0.00000606 0.06007470
v 0.03270714 0.00000089 -0.00826776
v 0.03144722 0.00000606 0.01289223
v 0.03025654 -0.00001204 -0.04515868
v 0.02631904 -0.01482952 -0.04515868
v 0.02681339 -0.01399167 -0.04515868
v 0.02676338 -0.01478814 -0.04030651
v 0.03402477 -0.01638367 0.05956991
v 0.02824836 -0.01170311 -0.04030651
v 0.02886197 -0.01010241 -0.04030651
v 0.03621377 -0.01043599 0.05984806
v 0.03738521 -0.00000170 0.06002319
v 0.03602142 -0.00822501 0.06008500
v 0.03675236 -0.00839310 0.05984806
v 0.03715631 -0.00631658 0.05984806
v 0.03744099 -0.00422196 0.05984806
v 0.03695241 0.00000606 0.06007470
v 0.03414403 0.00000606 0.01289223
v 0.03776608 0.00000606 0.05956991
v 0.03022961 -0.00097918 -0.04515868
v 0.03776800 -0.00000170 0.05956991
v 0.02726158 -0.01313055 -0.04515868
v 0.02765975 -0.01223840 -0.04515868
v 0.02800599 -0.01133073 -0.04515868
v 0.02895815 -0.00860773 -0.04515868
v 0.02925437 -0.00767937 -0.04515868
v 0.02938325 -0.00846809 -0.04030651
v 0.03681969 -0.00840602 0.05956991
v 0.03762950 -0.00211442 0.05984806
v 0.03769683 -0.00000170 0.05984806
v 0.03769683 0.00000606 0.05984806
v 0.03738714 0.00000606 0.06001289
v 0.03014498 -0.00512446 -0.04030651
v 0.03038542 -0.00342808 -0.04030651
v 0.03052968 -0.00171877 -0.04030651
v 0.03014498 -0.00194633 -0.04515868
v 0.02949674 -0.00673550 -0.04515868
v 0.02968717 -0.00578129 -0.04515868
v 0.02982182 -0.00481414 -0.04515868
f 1 2 3
f 1 3 4
f 1 4 5
f 1 5 6
f 1 6 7
f 1 7 8
f 1 8 9
f 1 9 10
f 1 10 11
f 1 11 12
f 1 12 13
f 1 13 14
f 1 14 15
f 1 15 16
f 1 16 17
f 1 17 18
f 1 18 19
f 1 19 20
f 1 20 2
f 2 21 22
f 2 22 3
f 2 20 23
f 2 23 24
f 2 24 21
f 3 22 4
f 4 22 25
f 4 25 5
f 5 25 26
f 5 26 27
f 5 27 6
f 6 28 7
f 6 27 29
f 6 29 30
f 6 30 31
f 6 31 32
f 6 32 33
f 6 33 34
f 6 34 35
f 6 35 28
f 7 28 8
f 8 36 37
f 8 37 9
f 8 28 38
f 8 38 36
f 9 37 10
f 10 37 11
f 11 37 12
f 12 37 39
f 12 39 40
f 12 40 13
f 13 40 41
f 13 41 14
f 14 41 42
f 14 42 15
f 15 42 16
f 16 42 43
f 16 43 17
f 17 43 18
f 18 43 19
f 19 43 44
f 19 44 20
f 20 44 45
f 20 45 23
f 21 46 47
f 21 47 48
f 21 48 49
f 21 49 50
f 21 50 51
f 21 51 52
f 21 52 53
f 21 53 22
f 21 24 54
f 21 54 46
f 22 55 25
f 22 53 56
f 22 56 73
f 22 73 89
f 22 89 105
f 22 105 108
f 22 108 107
f 22 107 106
f 22 106 95
f 22 95 94
f 22 94 93
f 22 93 92
f 22 92 91
f 22 91 75
f 22 75 74
f 22 74 61
f 22 61 34
f 22 34 33
f 22 33 32
f 22 32 55
f 23 45 57
f 23 57 24
f 24 57 58
f 24 58 59
f 24 59 54
f 25 55 26
f 26 55 27
f 27 55 29
f 28 35 60
f 28 60 38
f 29 55 30
f 30 55 31
f 31 55 32
f 34 61 35
f 35 61 60
f 36 38 62
f 36 62 63
f 36 63 64
f 36 64 65
f 36 65 66
f 36 66 67
f 36 67 37
f 37 67 82
f 37 82 68
f 37 68 40
f 37 40 39
f 38 60 62
f 40 69 41
f 40 68 70
f 40 70 69
f 41 69 70
f 41 70 86
f 41 86 101
f 41 101 100
f 41 100 88
f 41 88 87
f 41 87 72
f 41 72 57
f 41 57 45
f 41 45 44
f 41 44 43
f 41 43 42
f 46 71 73
f 46 73 56
f 46 56 50
f 46 50 49
f 46 49 48
f 46 48 47
f 46 54 72
f 46 72 87
f 46 87 71
f 50 56 51
f 51 56 52
f 52 56 53
f 54 59 72
f 57 72 58
f 58 72 59
f 60 61 74
f 60 74 75
f 60 75 76
f 60 76 62
f 62 77 63
f 62 76 77
f 63 77 64
f 64 77 78
f 64 78 79
f 64 79 65
f 65 80 66
f 65 79 80
f 66 81 68
f 66 68 82
f 66 82 67
f 66 80 83
f 66 83 84
f 66 84 85
f 66 85 81
f 68 81 101
f 68 101 86
f 68 86 70
f 71 87 88
f 71 88 73
f 73 88 90
f 73 90 89
f 75 91 77
f 75 77 76
f 77 91 92
f 77 92 78
f 78 92 79
f 79 92 93
f 79 93 94
f 79 94 95
f 79 95 96
f 79 96 80
f 80 97 83
f 80 96 97
f 81 85 98
f 81 98 99
f 81 99 100
f 81 100 101
f 83 97 84
f 84 97 102
f 84 102 103
f 84 103 85
f 85 103 98
f 88 100 90
f 89 104 103
f 89 103 105
f 89 90 104
f 90 100 99
f 90 99 98
f 90 98 104
f 95 106 97
f 95 97 96
f 97 106 107
f 97 107 102
f 98 103 104
f 102 107 103
f 103 107 108
f 103 108 105

