# https://github.com/mikedh/trimesh
v 0.02312694 -0.02025189 -0.03777823
v 0.02018287 -0.01986332 -0.01582103
v 0.02018287 -0.02005320 -0.01300822
v 0.02018287 -0.02018524 -0.01121005
v 0.02018287 -0.02057256 -0.00827448
v 0.02018287 -0.02570700 -0.00827448
v 0.02308339 -0.02030219 -0.03777823
v 0.02280036 -0.02037764 -0.04031301
v 0.02290680 -0.02025189 -0.04031301
v 0.02283664 -0.02025189 -0.04110377
v 0.02242056 -0.02025189 -0.04515868
v 0.01865641 -0.01999033 -0.03777823
v -0.00158675 -0.02711668 -0.04515868
v -0.00158675 -0.02717075 -0.04238199
v -0.00158434 -0.02786616 -0.02950592
v -0.00158434 -0.02873762 -0.01582464
v 0.00000744 -0.02990082 -0.00827448
v 0.02018287 -0.02531340 -0.01330070
v 0.01433345 -0.02938021 -0.00827448
v 0.01626874 -0.02589185 -0.04031301
v 0.01769360 -0.02494117 -0.04031301
v 0.02206737 -0.02137611 -0.03777823
v 0.02162225 -0.02162384 -0.04031301
v 0.02235766 -0.02031854 -0.04515868
v 0.01811695 -0.02025189 -0.04515868
v -0.00158675 -0.03017873 -0.04515868
v -0.00158675 -0.02742728 -0.03777823
v -0.00158434 -0.03202476 -0.01582464
v 0.00000744 -0.03271011 -0.00827448
v 0.01886446 -0.02365851 -0.04515868
v 0.01960954 -0.02302975 -0.04515868
v 0.02037640 -0.02280339 -0.04031301
v 0.01418830 -0.02946949 -0.00827448
v 0.01478824 -0.02676331 -0.04031301
v 0.01399236 -0.02681361 -0.04515868
v 0.01483179 -0.02631815 -0.04515868
v 0.01727510 -0.02478524 -0.04515868
v 0.01808550 -0.02424325 -0.04515868
v 0.02031351 -0.02235949 -0.04515868
v -0.00097230 -0.03023029 -0.04515868
v -0.00158675 -0.03047928 -0.04115071
v -0.00158675 -0.03069557 -0.03777823
v -0.00158434 -0.03114073 -0.03043750
v 0.00728415 -0.03188769 -0.00827448
v -0.00158675 -0.03062515 -0.03893730
v 0.00000019 -0.03025795 -0.04515868
v 0.00097509 -0.03023029 -0.04515868
v 0.00171534 -0.03053083 -0.04031301
v 0.00342565 -0.03038622 -0.04031301
v 0.01316744 -0.02982788 -0.00827448
v 0.01010242 -0.02886211 -0.04031301
v 0.01170145 -0.02825096 -0.04031301
v 0.01312631 -0.02726129 -0.04515868
v 0.00512387 -0.03014729 -0.04031301
v 0.00673501 -0.02949841 -0.04515868
v 0.00767846 -0.02925571 -0.04515868
v 0.00846709 -0.02938398 -0.04031301
v 0.00194516 -0.03014855 -0.04515868
v 0.00481423 -0.02982411 -0.04515868
v 0.00860740 -0.02895894 -0.04515868
v 0.01132649 -0.02800700 -0.04515868
v 0.01223608 -0.02765867 -0.04515868
v 0.00577946 -0.02968830 -0.04515868
f 1 2 3
f 1 3 4
f 1 4 5
f 1 5 6
f 1 6 7
f 1 7 8
f 1 8 9
f 1 9 2
f 2 9 10
f 2 10 11
f 2 11 12
f 2 12 13
f 2 13 14
f 2 14 15
f 2 15 16
f 2 16 3
f 3 16 4
f 4 16 5
f 5 16 17
f 5 17 29
f 5 29 44
f 5 44 50
f 5 50 33
f 5 33 19
f 5 19 6
f 6 18 7
f 6 19 20
f 6 20 21
f 6 21 18
f 7 22 23
f 7 23 8
f 7 18 22
f 8 23 24
f 8 24 11
f 8 11 10
f 8 10 9
f 11 24 39
f 11 39 31
f 11 31 30
f 11 30 38
f 11 38 37
f 11 37 36
f 11 36 35
f 11 35 53
f 11 53 62
f 11 62 61
f 11 61 60
f 11 60 56
f 11 56 55
f 11 55 63
f 11 63 59
f 11 59 58
f 11 58 47
f 11 47 46
f 11 46 40
f 11 40 26
f 11 26 13
f 11 13 25
f 11 25 12
f 12 25 13
f 13 26 41
f 13 41 45
f 13 45 42
f 13 42 27
f 13 27 14
f 14 27 15
f 15 27 16
f 16 27 42
f 16 42 28
f 16 28 29
f 16 29 17
f 18 21 30
f 18 30 31
f 18 31 32
f 18 32 23
f 18 23 22
f 19 33 20
f 20 34 35
f 20 35 36
f 20 36 37
f 20 37 21
f 20 33 34
f 21 37 38
f 21 38 30
f 23 32 31
f 23 31 39
f 23 39 24
f 26 40 41
f 28 42 43
f 28 43 29
f 29 43 42
f 29 42 45
f 29 45 41
f 29 41 46
f 29 46 47
f 29 47 48
f 29 48 49
f 29 49 44
f 33 50 51
f 33 51 52
f 33 52 53
f 33 53 35
f 33 35 34
f 40 46 41
f 44 49 54
f 44 54 55
f 44 55 56
f 44 56 57
f 44 57 51
f 44 51 50
f 47 58 48
f 48 58 49
f 49 58 59
f 49 59 54
f 51 57 56
f 51 56 60
f 51 60 61
f 51 61 52
f 52 61 62
f 52 62 53
f 54 59 63
f 54 63 55

