# https://github.com/mikedh/trimesh
v -0.03023786 -0.00000269 -0.04547145
v -0.02983525 -0.00000269 -0.05151656
v -0.03020826 -0.00092466 -0.04547145
v -0.02747881 -0.00000269 -0.04547145
v 0.00000517 0.03022162 -0.04567172
v -0.00089774 0.03019206 -0.04567172
v -0.00179177 0.03011524 -0.04567172
v -0.00496232 0.02976063 -0.04567172
v -0.00585042 0.02963652 -0.04567172
v -0.00672965 0.02945921 -0.04567172
v -0.00759407 0.02924054 -0.04567172
v -0.00844962 0.02896867 -0.04567172
v -0.01146326 0.02791076 -0.04567172
v -0.01229808 0.02759162 -0.04567172
v -0.01311811 0.02722519 -0.04567172
v -0.01391148 0.02681739 -0.04567172
v -0.01468413 0.02636232 -0.04567172
v -0.01738102 0.02466020 -0.04567172
v -0.01812703 0.02416375 -0.04567172
v -0.01884344 0.02362593 -0.04567172
v -0.01952728 0.02304674 -0.04567172
v -0.02017856 0.02243209 -0.04567172
v -0.02243139 0.02017443 -0.04567172
v -0.02305011 0.01952432 -0.04567172
v -0.02362738 0.01883874 -0.04567172
v -0.02416616 0.01812362 -0.04567172
v -0.02466351 0.01737895 -0.04567172
v -0.02636275 0.01467803 -0.04567172
v -0.02681865 0.01390971 -0.04567172
v -0.02723014 0.01311185 -0.04567172
v -0.02759426 0.01229034 -0.04567172
v -0.02791398 0.01145702 -0.04567172
v -0.02896787 0.00844877 -0.04567172
v -0.02924022 0.00759181 -0.04567172
v -0.02946225 0.00672302 -0.04567172
v -0.02963987 0.00584241 -0.04567172
v -0.02976420 0.00495590 -0.04567172
v -0.03011945 0.00178808 -0.04567172
v -0.03019642 0.00089565 -0.04567172
v -0.02937936 -0.00000269 -0.05733709
v -0.03013129 -0.00185255 -0.04547145
v -0.00158751 -0.02708872 -0.04547145
v 0.00000517 0.02983155 -0.05153802
v 0.00000517 0.02763890 -0.04567172
v -0.00000075 0.02983155 -0.05153373
v 0.00000517 0.02937647 -0.05734997
v -0.00654315 0.02863771 -0.05734138
v -0.00664380 0.02908096 -0.05153373
v -0.01275102 0.02646870 -0.05734138
v -0.01294936 0.02687649 -0.05153373
v -0.01831650 0.02296400 -0.05734138
v -0.01860069 0.02331861 -0.05153373
v -0.02296722 0.01831274 -0.05734138
v -0.02332246 0.01859643 -0.05153373
v -0.02646932 0.01274542 -0.05734138
v -0.02688082 0.01294636 -0.05153373
v -0.02863927 0.00653981 -0.05734138
v -0.02908332 0.00664028 -0.05153373
v -0.02902707 0.00000322 -0.05950996
v -0.02902707 -0.00000269 -0.05950853
v -0.02830179 -0.00646244 -0.05950853
v -0.02863927 -0.00653927 -0.05734138
v -0.02978789 -0.00490217 -0.04547145
v -0.02829883 0.00645706 -0.05950853
v -0.00158751 -0.03015606 -0.04547145
v 0.00000517 0.00000322 -0.04865994
v 0.00000517 0.02902777 -0.05950996
v -0.00000075 0.02902777 -0.05950853
v -0.00646322 0.02830083 -0.05950853
v -0.01260004 0.02615546 -0.05950853
v -0.01809743 0.02269214 -0.05950853
v -0.02269487 0.01809407 -0.05950853
v -0.02615553 0.01259176 -0.05950853
v -0.02860374 -0.00000269 -0.05979605
v -0.02855934 -0.00160433 -0.05979605
v -0.02842316 -0.00320006 -0.05979605
v -0.02842316 0.00320059 -0.05979605
v -0.02855638 0.00159895 -0.05979605
v -0.02820114 -0.00478987 -0.05979605
v -0.02788734 -0.00636787 -0.05979605
v -0.02748473 -0.00791632 -0.05979605
v -0.02699627 -0.00944704 -0.05979605
v -0.02615257 -0.01259713 -0.05950853
v -0.02646637 -0.01274488 -0.05734138
v -0.02794950 -0.01140329 -0.04547145
v -0.02896195 -0.00850733 -0.04547145
v -0.02908332 -0.00663974 -0.05153373
v -0.02965763 -0.00581823 -0.04547145
v -0.02699923 0.00944758 -0.05979605
v -0.02748473 0.00791686 -0.05979605
v -0.02788438 0.00636841 -0.05979605
v -0.02819818 0.00479041 -0.05979605
v -0.00185098 -0.03013243 -0.04547145
v -0.00158751 -0.03009106 -0.04633545
v 0.00000517 0.00000322 -0.06008500
v 0.00000517 0.02860225 -0.05979605
v -0.00000075 0.02860225 -0.05979605
v -0.00160527 0.02855497 -0.05979605
v -0.00320682 0.02842494 -0.05979605
v -0.00479653 0.02820036 -0.05979605
v -0.00637145 0.02788121 -0.05979605
v -0.00791971 0.02748524 -0.05979605
v -0.00945022 0.02699470 -0.05979605
v -0.01241650 0.02576539 -0.05979605
v -0.01383747 0.02503254 -0.05979605
v -0.01521404 0.02421694 -0.05979605
v -0.01095112 0.02642733 -0.05979605
v -0.01783396 0.02236117 -0.05979605
v -0.01905955 0.02132690 -0.05979605
v -0.02022593 0.02022171 -0.05979605
v -0.01655212 0.02332452 -0.05979605
v -0.02132718 0.01905742 -0.05979605
v -0.02236035 0.01783403 -0.05979605
v -0.02332542 0.01655153 -0.05979605
v -0.02421945 0.01521585 -0.05979605
v -0.02577068 0.01240855 -0.05979605
v -0.02642788 0.01094875 -0.05979605
v -0.02503355 0.01383288 -0.05979605
v -0.02791694 0.00000322 -0.05996913
v -0.02721534 -0.00621421 -0.05996770
v -0.02721830 0.00621475 -0.05996913
v -0.02515197 -0.01211250 -0.05996770
v -0.02642492 -0.01094821 -0.05979605
v -0.02576772 -0.01240801 -0.05979605
v -0.02503355 -0.01383234 -0.05979605
v -0.02421649 -0.01521531 -0.05979605
v -0.02269487 -0.01809944 -0.05950853
v -0.02296722 -0.01831812 -0.05734138
v -0.02634499 -0.01473659 -0.04547145
v -0.02688082 -0.01294583 -0.05153373
v -0.02762091 -0.01227207 -0.04547145
v -0.02924614 -0.00762673 -0.04547145
v -0.02947705 -0.00672839 -0.04547145
v -0.02515197 0.01211304 -0.05996913
v -0.00490607 -0.02978373 -0.04547145
v -0.00654019 -0.02863717 -0.05734138
v -0.00158751 -0.02919863 -0.05734138
v -0.00158751 -0.02890312 -0.05855727
v -0.00158751 -0.02856034 -0.05979318
v -0.00158751 -0.02854852 -0.05979748
v -0.00158751 -0.02754380 -0.05992622
v -0.00158751 -0.02442326 -0.06008500
v 0.00000517 0.02460110 -0.06008500
v 0.00000517 0.02791667 -0.05996913
v -0.00000075 0.02791667 -0.05996913
v -0.00621751 0.02721337 -0.05996913
v -0.01211750 0.02515074 -0.05996913
v -0.01740470 0.02182335 -0.05996913
v -0.02182452 0.01740259 -0.05996913
v -0.02668247 0.00000322 -0.06005639
v -0.02601047 -0.00593644 -0.06005496
v -0.02403887 -0.01157468 -0.06005496
v -0.02601343 0.00593697 -0.06005639
v -0.02403887 0.01157522 -0.06005639
v -0.02085944 -0.01663373 -0.06005496
v -0.02182452 -0.01740205 -0.05996770
v -0.02332542 -0.01655099 -0.05979605
v -0.02236035 -0.01783349 -0.05979605
v -0.02132718 -0.01905688 -0.05979605
v -0.02022297 -0.02022708 -0.05979605
v -0.01809743 -0.02269160 -0.05950853
v -0.01831650 -0.02296937 -0.05734138
v -0.02470791 -0.01733704 -0.04547145
v -0.02240475 -0.02023299 -0.04547145
v -0.02332246 -0.01859589 -0.05153373
v -0.02681569 -0.01393872 -0.04547145
v -0.02724198 -0.01311722 -0.04547145
v -0.02085648 0.01663427 -0.06005639
v -0.00582378 -0.02965962 -0.04547145
v -0.00664084 -0.02908634 -0.05153373
v -0.00851179 -0.02896222 -0.04547145
v -0.01275102 -0.02646816 -0.05734138
v -0.00646322 -0.02830029 -0.05950853
v -0.00160823 -0.02855443 -0.05979605
v -0.00320682 -0.02841849 -0.05979605
v -0.00621455 -0.02721874 -0.05996770
v -0.00594219 -0.02600717 -0.06005496
v -0.00547742 -0.02398591 -0.06008500
v -0.00000075 0.02460110 -0.06008500
v -0.00000075 0.02668146 -0.06005639
v 0.00000517 0.02668146 -0.06005496
v -0.00594219 0.02601362 -0.06005639
v -0.01158168 0.02403964 -0.06005639
v -0.01663501 0.02085409 -0.06005639
v -0.02460430 0.00000322 -0.06008500
v -0.02460430 -0.00000269 -0.06008500
v -0.02398854 -0.00547545 -0.06008500
v -0.02398854 0.00547599 -0.06008500
v -0.02216792 -0.01067634 -0.06008500
v -0.02216792 0.01067688 -0.06008500
v -0.01923717 0.01533996 -0.06008500
v -0.01923717 -0.01533942 -0.06008500
v -0.01534429 -0.01923418 -0.06008500
v -0.01663501 -0.02085355 -0.06005496
v -0.01740470 -0.02182281 -0.05996770
v -0.01905955 -0.02132636 -0.05979605
v -0.01783100 -0.02236063 -0.05979605
v -0.01654916 -0.02332398 -0.05979605
v -0.01521700 -0.02421641 -0.05979605
v -0.01260004 -0.02615492 -0.05950853
v -0.01474334 -0.02634405 -0.04547145
v -0.01733958 -0.02470695 -0.04547145
v -0.01860069 -0.02331807 -0.05153373
v -0.02023185 -0.02240200 -0.04547145
v -0.02419577 -0.01811126 -0.04547145
v -0.02304123 -0.01955924 -0.04547145
v -0.02363626 -0.01885003 -0.04547145
v -0.00673261 -0.02947640 -0.04547145
v -0.00762960 -0.02924591 -0.04547145
v -0.01140998 -0.02794569 -0.04547145
v -0.01294640 -0.02687596 -0.05153373
v -0.00945318 -0.02699416 -0.05979605
v -0.00791971 -0.02748470 -0.05979605
v -0.00636849 -0.02788067 -0.05979605
v -0.00479357 -0.02819391 -0.05979605
v -0.01211750 -0.02515020 -0.05996770
v -0.01158168 -0.02403910 -0.06005496
v -0.01068173 -0.02216560 -0.06008500
v -0.00548038 0.02398645 -0.06008500
v -0.01067877 0.02216614 -0.06008500
v -0.01533837 0.01923472 -0.06008500
v -0.01384043 -0.02503200 -0.05979605
v -0.01241354 -0.02576486 -0.05979605
v -0.01095112 -0.02642679 -0.05979605
v -0.01394404 -0.02681094 -0.04547145
v -0.01810927 -0.02419276 -0.04547145
v -0.01884936 -0.02363722 -0.04547145
v -0.01955985 -0.02304030 -0.04547145
v -0.01227736 -0.02762063 -0.04547145
v -0.01312403 -0.02724238 -0.04547145
f 1 2 3
f 1 3 41
f 1 41 63
f 1 63 88
f 1 88 133
f 1 133 132
f 1 132 86
f 1 86 85
f 1 85 131
f 1 131 167
f 1 167 166
f 1 166 129
f 1 129 163
f 1 163 205
f 1 205 207
f 1 207 206
f 1 206 164
f 1 164 204
f 1 204 228
f 1 228 227
f 1 227 226
f 1 226 202
f 1 202 201
f 1 201 225
f 1 225 230
f 1 230 229
f 1 229 210
f 1 210 171
f 1 171 209
f 1 209 208
f 1 208 169
f 1 169 135
f 1 135 93
f 1 93 65
f 1 65 42
f 1 42 4
f 1 4 5
f 1 5 6
f 1 6 7
f 1 7 8
f 1 8 9
f 1 9 10
f 1 10 11
f 1 11 12
f 1 12 13
f 1 13 14
f 1 14 15
f 1 15 16
f 1 16 17
f 1 17 18
f 1 18 19
f 1 19 20
f 1 20 21
f 1 21 22
f 1 22 23
f 1 23 24
f 1 24 25
f 1 25 26
f 1 26 27
f 1 27 28
f 1 28 29
f 1 29 30
f 1 30 31
f 1 31 32
f 1 32 33
f 1 33 34
f 1 34 35
f 1 35 36
f 1 36 37
f 1 37 38
f 1 38 39
f 1 39 2
f 2 40 41
f 2 41 3
f 2 39 38
f 2 38 40
f 4 42 5
f 5 43 6
f 5 42 65
f 5 65 44
f 5 44 66
f 5 66 95
f 5 95 143
f 5 143 181
f 5 181 144
f 5 144 96
f 5 96 67
f 5 67 46
f 5 46 43
f 6 43 45
f 6 45 7
f 7 45 46
f 7 46 8
f 8 46 47
f 8 47 48
f 8 48 9
f 9 48 10
f 10 48 11
f 11 48 12
f 12 48 47
f 12 47 49
f 12 49 13
f 13 49 50
f 13 50 14
f 14 50 15
f 15 50 16
f 16 50 17
f 17 50 49
f 17 49 51
f 17 51 18
f 18 51 52
f 18 52 19
f 19 52 20
f 20 52 21
f 21 52 22
f 22 52 51
f 22 51 53
f 22 53 23
f 23 53 54
f 23 54 24
f 24 54 25
f 25 54 26
f 26 54 27
f 27 54 53
f 27 53 28
f 28 55 56
f 28 56 29
f 28 53 55
f 29 56 30
f 30 56 31
f 31 56 32
f 32 56 55
f 32 55 33
f 33 57 58
f 33 58 34
f 33 55 57
f 34 58 35
f 35 58 36
f 36 58 37
f 37 58 57
f 37 57 40
f 37 40 38
f 40 59 60
f 40 60 61
f 40 61 62
f 40 62 63
f 40 63 41
f 40 57 64
f 40 64 59
f 43 46 45
f 44 65 66
f 46 67 68
f 46 68 69
f 46 69 47
f 47 69 49
f 49 70 51
f 49 69 70
f 51 70 71
f 51 71 53
f 53 72 55
f 53 71 72
f 55 72 73
f 55 73 57
f 57 73 64
f 59 74 75
f 59 75 76
f 59 76 61
f 59 61 60
f 59 64 77
f 59 77 78
f 59 78 74
f 61 76 79
f 61 79 80
f 61 80 81
f 61 81 82
f 61 82 83
f 61 83 84
f 61 84 62
f 62 84 85
f 62 85 86
f 62 86 87
f 62 87 63
f 63 87 88
f 64 73 89
f 64 89 90
f 64 90 91
f 64 91 92
f 64 92 77
f 65 93 94
f 65 94 95
f 65 95 66
f 67 96 97
f 67 97 98
f 67 98 99
f 67 99 69
f 67 69 68
f 69 99 100
f 69 100 101
f 69 101 102
f 69 102 103
f 69 103 70
f 70 104 105
f 70 105 106
f 70 106 71
f 70 103 107
f 70 107 104
f 71 108 109
f 71 109 110
f 71 110 72
f 71 106 111
f 71 111 108
f 72 110 112
f 72 112 113
f 72 113 114
f 72 114 115
f 72 115 73
f 73 116 117
f 73 117 89
f 73 115 118
f 73 118 116
f 74 78 119
f 74 119 75
f 75 119 76
f 76 120 79
f 76 119 120
f 77 119 78
f 77 92 121
f 77 121 119
f 79 120 80
f 80 120 81
f 81 120 82
f 82 120 122
f 82 122 123
f 82 123 83
f 83 123 124
f 83 124 125
f 83 125 126
f 83 126 127
f 83 127 128
f 83 128 84
f 84 128 129
f 84 129 130
f 84 130 85
f 85 130 131
f 86 132 87
f 87 132 133
f 87 133 88
f 89 121 90
f 89 117 134
f 89 134 121
f 90 121 91
f 91 121 92
f 93 135 136
f 93 136 137
f 93 137 94
f 94 137 95
f 95 137 138
f 95 138 139
f 95 139 140
f 95 140 141
f 95 141 142
f 95 142 178
f 95 178 218
f 95 218 193
f 95 193 192
f 95 192 189
f 95 189 187
f 95 187 186
f 95 186 185
f 95 185 188
f 95 188 190
f 95 190 191
f 95 191 221
f 95 221 220
f 95 220 219
f 95 219 179
f 95 179 143
f 96 144 145
f 96 145 97
f 97 145 98
f 98 145 99
f 99 145 146
f 99 146 100
f 100 146 101
f 101 146 102
f 102 146 103
f 103 147 107
f 103 146 147
f 104 147 105
f 104 107 147
f 105 147 106
f 106 148 111
f 106 147 148
f 108 148 109
f 108 111 148
f 109 148 110
f 110 149 112
f 110 148 149
f 112 149 113
f 113 149 114
f 114 149 115
f 115 134 118
f 115 149 134
f 116 118 134
f 116 134 117
f 119 121 150
f 119 150 120
f 120 151 152
f 120 152 122
f 120 150 151
f 121 153 150
f 121 134 154
f 121 154 153
f 122 152 155
f 122 155 156
f 122 156 126
f 122 126 125
f 122 125 124
f 122 124 123
f 126 156 157
f 126 157 127
f 127 157 158
f 127 158 159
f 127 159 160
f 127 160 161
f 127 161 162
f 127 162 128
f 128 163 129
f 128 162 164
f 128 164 165
f 128 165 163
f 129 166 130
f 130 166 167
f 130 167 131
f 134 149 168
f 134 168 154
f 135 169 170
f 135 170 136
f 136 170 171
f 136 171 172
f 136 172 173
f 136 173 137
f 137 173 138
f 138 173 139
f 139 174 140
f 139 173 175
f 139 175 174
f 140 174 175
f 140 175 176
f 140 176 141
f 141 176 177
f 141 177 142
f 142 177 178
f 143 179 180
f 143 180 181
f 144 181 180
f 144 180 145
f 145 180 182
f 145 182 146
f 146 182 147
f 147 182 183
f 147 183 148
f 148 183 184
f 148 184 168
f 148 168 149
f 150 185 186
f 150 186 187
f 150 187 151
f 150 153 188
f 150 188 185
f 151 187 152
f 152 189 155
f 152 187 189
f 153 154 190
f 153 190 188
f 154 168 191
f 154 191 190
f 155 189 192
f 155 192 193
f 155 193 194
f 155 194 195
f 155 195 156
f 156 195 160
f 156 160 159
f 156 159 158
f 156 158 157
f 160 195 196
f 160 196 161
f 161 196 197
f 161 197 198
f 161 198 199
f 161 199 200
f 161 200 162
f 162 200 172
f 162 172 201
f 162 201 202
f 162 202 203
f 162 203 204
f 162 204 164
f 163 165 205
f 164 206 165
f 165 206 207
f 165 207 205
f 168 184 191
f 169 208 170
f 170 208 209
f 170 209 171
f 171 210 172
f 172 210 211
f 172 211 201
f 172 200 173
f 173 212 213
f 173 213 214
f 173 214 215
f 173 215 175
f 173 200 212
f 175 215 176
f 176 215 214
f 176 214 213
f 176 213 212
f 176 212 216
f 176 216 217
f 176 217 177
f 177 217 178
f 178 217 218
f 179 219 180
f 180 219 182
f 182 219 183
f 183 219 220
f 183 220 221
f 183 221 184
f 184 221 191
f 193 218 217
f 193 217 194
f 194 217 195
f 195 217 216
f 195 216 199
f 195 199 198
f 195 198 197
f 195 197 196
f 199 216 222
f 199 222 200
f 200 222 223
f 200 223 224
f 200 224 212
f 201 211 225
f 202 226 203
f 203 226 227
f 203 227 228
f 203 228 204
f 210 229 211
f 211 230 225
f 211 229 230
f 212 224 216
f 216 223 222
f 216 224 223

