# https://github.com/mikedh/trimesh
v -0.03201899 -0.00160915 -0.01581496
v -0.02871726 -0.00160915 -0.01581496
v -0.03252454 -0.00160915 -0.00827879
v -0.03776577 0.00000732 0.05957776
v -0.03022289 0.00000116 -0.04566977
v -0.02764548 -0.00000192 -0.04566977
v -0.01963381 0.02009768 -0.01966585
v -0.01963381 0.02059648 -0.01581496
v -0.02879631 -0.00160915 -0.01452097
v -0.02746532 0.00000116 -0.04566977
v -0.01899222 0.01909393 -0.04541097
v -0.01909701 0.01909393 -0.04167394
v -0.01915584 0.01909393 -0.03983131
v -0.02921913 -0.00160915 -0.00827879
v -0.03695321 0.00000732 0.06007465
v -0.03738522 0.00000732 0.06002289
v -0.03769959 0.00000732 0.05985726
v -0.03762973 0.00211334 0.05985726
v -0.03052990 0.00171923 -0.04030749
v -0.03019715 0.00090022 -0.04566977
v -0.02889374 -0.00160915 -0.01299925
v -0.01963381 0.02545511 -0.01581496
v -0.02309365 0.02886971 0.06007465
v -0.02309365 0.02871268 0.06005394
v -0.02309365 0.02801991 0.05995043
v -0.02309365 0.02771201 0.05985726
v -0.02309365 0.02754266 0.05976409
v -0.02309365 0.02610478 0.05762126
v -0.02086553 0.02124922 0.00605856
v -0.01898854 0.01909393 -0.04566977
v -0.02108430 0.02134159 0.00950573
v -0.02309365 0.02308738 0.04358411
v -0.02309365 0.02380170 0.04729008
v -0.02309365 0.02482700 0.05243496
v -0.03466258 0.00000732 0.05243496
v -0.03528947 0.00000732 0.05763161
v -0.03573988 0.00000732 0.05957776
v -0.03611123 0.00000732 0.05985726
v -0.03651935 0.00000732 0.06002289
v -0.03694585 0.00000732 0.06007465
v -0.03602482 0.00822820 0.06008500
v -0.03644765 0.00832365 0.06002289
v -0.03744221 0.00422245 0.05985726
v -0.03038467 0.00343115 -0.04030749
v -0.03012178 0.00179313 -0.04566977
v -0.01963381 0.02486395 -0.02355816
v -0.02309365 0.02984574 0.05965022
v -0.02309365 0.02978109 0.05985726
v -0.02309365 0.02944548 0.05999183
v -0.02309365 0.02895284 0.06006430
v -0.02331242 0.02922687 0.06002289
v -0.02889006 0.02303503 0.06008500
v -0.02342088 0.01909393 -0.04566977
v -0.01963381 0.02353383 -0.03902386
v -0.01963381 0.02461455 -0.02654985
v -0.03329115 0.01603035 0.06008500
v -0.03368456 0.01621816 0.06002289
v -0.03556523 0.01244641 0.05985726
v -0.03621602 0.01043583 0.05985726
v -0.03675466 0.00839447 0.05985726
v -0.03715543 0.00631615 0.05985726
v -0.03014568 0.00512459 -0.04030749
v -0.02964013 0.00585123 -0.04566977
v -0.02976513 0.00496140 -0.04566977
v -0.02354957 0.02952553 0.05957776
v -0.02350728 0.02947319 0.05985726
v -0.02511587 0.02810304 0.05985726
v -0.02664540 0.02664052 0.05985726
v -0.02923016 0.02330598 0.06002289
v -0.02294842 0.02033169 -0.03902386
v -0.02184906 0.02149246 -0.03902386
v -0.02150161 0.02184039 -0.03902386
v -0.02034159 0.02293343 -0.03902386
v -0.02363229 0.01884146 -0.04566977
v -0.02952798 0.02354306 0.05957776
v -0.03190317 0.02004534 0.05985726
v -0.03298598 0.01822874 0.05985726
v -0.03396583 0.01635672 0.05985726
v -0.03481885 0.01442620 0.05985726
v -0.02886249 0.01010330 -0.04030749
v -0.03682084 0.00840678 0.05957776
v -0.02938275 0.00846836 -0.04030749
v -0.02946364 0.00672874 -0.04566977
v -0.02810691 0.02511335 0.05985726
v -0.02947467 0.02350304 0.05985726
v -0.03073580 0.02180960 0.05985726
v -0.02417094 0.01812406 -0.04566977
v -0.02494122 0.01769300 -0.04030749
v -0.02589350 0.01626743 -0.04030749
v -0.03402650 0.01638443 0.05957776
v -0.02676490 0.01478952 -0.04030749
v -0.02825031 0.01170437 -0.04030749
v -0.02759585 0.01229862 -0.04566977
v -0.02791572 0.01146114 -0.04566977
v -0.02896912 0.00844989 -0.04566977
v -0.02924120 0.00759701 -0.04566977
v -0.02466914 0.01737894 -0.04566977
v -0.02636597 0.01467867 -0.04566977
v -0.02682005 0.01390893 -0.04566977
v -0.02723184 0.01311147 -0.04566977
f 1 2 9
f 1 9 21
f 1 21 14
f 1 14 3
f 1 3 4
f 1 4 5
f 1 5 6
f 1 6 2
f 2 7 8
f 2 8 9
f 2 6 10
f 2 10 11
f 2 11 12
f 2 12 13
f 2 13 7
f 3 14 40
f 3 40 15
f 3 15 16
f 3 16 17
f 3 17 4
f 4 17 18
f 4 18 19
f 4 19 20
f 4 20 5
f 5 20 45
f 5 45 64
f 5 64 63
f 5 63 83
f 5 83 96
f 5 96 95
f 5 95 94
f 5 94 93
f 5 93 100
f 5 100 99
f 5 99 98
f 5 98 97
f 5 97 87
f 5 87 74
f 5 74 53
f 5 53 30
f 5 30 10
f 5 10 6
f 7 13 8
f 8 21 9
f 8 13 12
f 8 12 11
f 8 11 22
f 8 22 23
f 8 23 24
f 8 24 25
f 8 25 26
f 8 26 27
f 8 27 28
f 8 28 29
f 8 29 21
f 10 30 11
f 11 30 22
f 14 21 29
f 14 29 31
f 14 31 32
f 14 32 33
f 14 33 34
f 14 34 35
f 14 35 36
f 14 36 37
f 14 37 38
f 14 38 39
f 14 39 40
f 15 40 41
f 15 41 16
f 16 41 42
f 16 42 43
f 16 43 18
f 16 18 17
f 18 43 44
f 18 44 19
f 19 44 45
f 19 45 20
f 22 30 46
f 22 46 47
f 22 47 48
f 22 48 49
f 22 49 50
f 22 50 23
f 23 50 51
f 23 51 52
f 23 52 40
f 23 40 39
f 23 39 24
f 24 39 25
f 25 39 38
f 25 38 26
f 26 38 37
f 26 37 27
f 27 37 28
f 28 37 36
f 28 36 35
f 28 35 34
f 28 34 29
f 29 34 31
f 30 53 54
f 30 54 55
f 30 55 46
f 31 34 33
f 31 33 32
f 40 52 41
f 41 52 56
f 41 56 57
f 41 57 42
f 42 57 58
f 42 58 59
f 42 59 60
f 42 60 61
f 42 61 43
f 43 61 44
f 44 62 63
f 44 63 64
f 44 64 45
f 44 61 62
f 46 55 47
f 47 55 54
f 47 54 65
f 47 65 66
f 47 66 48
f 48 66 51
f 48 51 49
f 49 51 50
f 51 66 67
f 51 67 68
f 51 68 69
f 51 69 52
f 52 69 57
f 52 57 56
f 53 70 71
f 53 71 72
f 53 72 73
f 53 73 54
f 53 74 75
f 53 75 70
f 54 73 65
f 57 69 76
f 57 76 77
f 57 77 78
f 57 78 79
f 57 79 58
f 58 79 80
f 58 80 59
f 59 81 60
f 59 80 82
f 59 82 81
f 60 81 61
f 61 81 62
f 62 81 63
f 63 81 83
f 65 67 66
f 65 73 67
f 67 73 72
f 67 72 68
f 68 84 69
f 68 72 71
f 68 71 84
f 69 84 85
f 69 85 86
f 69 86 76
f 70 75 84
f 70 84 71
f 74 87 75
f 75 86 85
f 75 85 84
f 75 87 88
f 75 88 86
f 76 86 89
f 76 89 77
f 77 90 78
f 77 89 91
f 77 91 90
f 78 90 79
f 79 90 92
f 79 92 80
f 80 92 93
f 80 93 94
f 80 94 95
f 80 95 96
f 80 96 82
f 81 82 96
f 81 96 83
f 86 88 89
f 87 97 88
f 88 97 89
f 89 97 98
f 89 98 99
f 89 99 91
f 90 91 99
f 90 99 100
f 90 100 93
f 90 93 92

