# https://github.com/mikedh/trimesh
v 0.02754137 -0.00000517 -0.04539693
v 0.03024145 0.00000243 -0.04539693
v 0.03057811 -0.00000517 -0.04031195
v 0.02749894 -0.00000517 -0.04528109
v 0.02749073 0.00000243 -0.04539693
v 0.03021545 0.00093891 -0.04539693
v 0.03295523 0.00000749 -0.00458929
v 0.03270890 0.00000243 -0.00827620
v 0.03270753 -0.00000264 -0.00827620
v 0.03220255 -0.00000517 -0.01582178
v 0.02781233 -0.00000517 -0.03976072
v 0.01965185 0.02009895 -0.01943279
v 0.01912634 0.01911691 -0.03977270
v 0.01897444 0.01911691 -0.04539693
v 0.03013608 0.00187287 -0.04539693
v 0.03053158 0.00171595 -0.04031195
v 0.03212728 0.00733741 -0.00458929
v 0.03016482 0.00000749 -0.00458929
v 0.03038515 0.00342693 -0.04031195
v 0.02990069 -0.00000264 -0.00827620
v 0.02936834 -0.00000517 -0.01582178
v 0.02781644 -0.00000517 -0.03968881
v 0.02843090 -0.00000517 -0.02950288
v 0.01965185 0.02058745 -0.01582178
v 0.02342486 0.01911691 -0.04539693
v 0.01965185 0.02544706 -0.01582178
v 0.01965185 0.02486492 -0.02342727
v 0.01965185 0.02463713 -0.02614352
v 0.01965185 0.02359433 -0.03818689
v 0.02979669 0.00488229 -0.04539693
v 0.03207254 0.00749686 -0.00458929
v 0.03014703 0.00512527 -0.04031195
v 0.03188915 0.00728425 -0.00827620
v 0.02938339 0.00846878 -0.04031195
v 0.02886336 0.01010131 -0.04031195
v 0.02041685 0.02064313 -0.00458929
v 0.02966668 0.00581118 -0.04539693
v 0.02955856 -0.00000264 -0.01300966
v 0.02018831 0.02056973 -0.00827620
v 0.02364519 0.01885368 -0.04539693
v 0.02031558 0.02303750 -0.03818689
v 0.02141861 0.02199218 -0.03818689
v 0.02199886 0.02141257 -0.03818689
v 0.02304168 0.02030650 -0.03818689
v 0.02576913 0.02054189 -0.00458929
v 0.02386689 0.01911691 -0.04031195
v 0.02041685 0.02585203 -0.00458929
v 0.02055097 0.02576597 -0.00458929
v 0.02041685 0.02559639 -0.00784080
v 0.03047000 0.01207553 -0.00458929
v 0.02948330 0.00673248 -0.04539693
v 0.02924928 0.00764113 -0.04539693
v 0.02896463 0.00853459 -0.04539693
v 0.02796424 0.01138961 -0.04539693
v 0.02825163 0.01170347 -0.04031195
v 0.02969131 0.01429526 -0.00458929
v 0.02986922 0.01378905 -0.00458929
v 0.02421039 0.01810449 -0.04539693
v 0.02397364 0.01911691 -0.03906967
v 0.02559123 0.02072412 -0.00458929
v 0.02955856 0.01450787 -0.00458929
v 0.02589230 0.01626695 -0.04031195
v 0.02493981 0.01769446 -0.04031195
v 0.02762895 0.01226536 -0.04539693
v 0.02829679 0.01194898 -0.03818689
v 0.02755095 0.01326765 -0.04031195
v 0.02676268 0.01479134 -0.04031195
v 0.02473043 0.01732493 -0.04539693
v 0.02633981 0.01476097 -0.04539693
v 0.02724577 0.01311832 -0.04539693
v 0.02681468 0.01395357 -0.04539693
f 1 2 3
f 1 3 10
f 1 10 21
f 1 21 23
f 1 23 22
f 1 22 11
f 1 11 4
f 1 4 5
f 1 5 14
f 1 14 25
f 1 25 40
f 1 40 58
f 1 58 68
f 1 68 69
f 1 69 71
f 1 71 70
f 1 70 64
f 1 64 54
f 1 54 53
f 1 53 52
f 1 52 51
f 1 51 37
f 1 37 30
f 1 30 15
f 1 15 6
f 1 6 2
f 2 6 7
f 2 7 3
f 3 7 8
f 3 8 9
f 3 9 10
f 4 11 12
f 4 12 13
f 4 13 5
f 5 13 14
f 6 15 16
f 6 16 7
f 7 17 31
f 7 31 50
f 7 50 57
f 7 57 56
f 7 56 61
f 7 61 45
f 7 45 60
f 7 60 48
f 7 48 47
f 7 47 36
f 7 36 18
f 7 18 20
f 7 20 9
f 7 9 8
f 7 16 19
f 7 19 17
f 9 20 21
f 9 21 10
f 11 22 12
f 12 23 24
f 12 24 13
f 12 22 23
f 13 24 14
f 14 24 26
f 14 26 27
f 14 27 28
f 14 28 29
f 14 29 25
f 15 30 19
f 15 19 16
f 17 19 32
f 17 32 33
f 17 33 34
f 17 34 35
f 17 35 31
f 18 36 20
f 19 30 37
f 19 37 32
f 20 38 21
f 20 36 38
f 21 38 23
f 23 38 24
f 24 38 39
f 24 39 36
f 24 36 47
f 24 47 26
f 25 29 41
f 25 41 42
f 25 42 43
f 25 43 44
f 25 44 45
f 25 45 46
f 25 46 40
f 26 47 27
f 27 47 48
f 27 48 49
f 27 49 28
f 28 49 29
f 29 49 41
f 31 35 50
f 32 37 33
f 33 37 51
f 33 51 52
f 33 52 34
f 34 52 35
f 35 52 53
f 35 53 54
f 35 54 55
f 35 55 56
f 35 56 57
f 35 57 50
f 36 39 38
f 40 46 59
f 40 59 58
f 41 49 48
f 41 48 42
f 42 48 43
f 43 48 60
f 43 60 45
f 43 45 44
f 45 61 62
f 45 62 63
f 45 63 58
f 45 58 59
f 45 59 46
f 54 64 55
f 55 64 65
f 55 65 56
f 56 65 66
f 56 66 67
f 56 67 62
f 56 62 61
f 58 63 62
f 58 62 68
f 62 67 69
f 62 69 68
f 64 70 66
f 64 66 65
f 66 70 71
f 66 71 67
f 67 71 69

