# https://github.com/mikedh/trimesh
v -0.00158675 -0.03017574 -0.04515868
v -0.00158675 -0.03008691 -0.04633485
v 0.00000301 -0.02983225 -0.05153334
v -0.00096955 -0.03022904 -0.04515868
v -0.00158675 -0.02711396 -0.04515868
v -0.00158675 -0.02919858 -0.05734257
v 0.00000301 -0.02937624 -0.05734257
v 0.00194814 -0.03014021 -0.04515868
v 0.00097558 -0.03022904 -0.04515868
v 0.00000301 -0.03025273 -0.04515868
v 0.02750603 -0.00000800 -0.04515868
v 0.00000613 0.03023674 -0.04539976
v -0.00158675 -0.00000800 -0.04865941
v 0.00000301 -0.02902683 -0.05950934
v -0.00158675 -0.02890246 -0.05855818
v 0.00481596 -0.02982041 -0.04515868
v 0.00646184 -0.02829840 -0.05950934
v 0.00653977 -0.02863596 -0.05734257
v 0.03025851 -0.00000800 -0.04515868
v 0.00094129 0.03021305 -0.04539976
v 0.00000613 0.02983403 -0.05153919
v -0.00158675 -0.00000800 -0.06008500
v -0.00158675 -0.02855898 -0.05979278
v 0.00000301 -0.02860043 -0.05979571
v 0.00160525 -0.02855305 -0.05979571
v 0.00320437 -0.02842277 -0.05979571
v 0.00663952 -0.02908013 -0.05153334
v 0.00577918 -0.02968420 -0.04515868
v 0.00479414 -0.02819772 -0.05979571
v 0.00637144 -0.02788384 -0.05979571
v 0.00792069 -0.02748113 -0.05979571
v 0.00945123 -0.02699551 -0.05979571
v 0.01260272 -0.02614864 -0.05950934
v 0.01274922 -0.02646251 -0.05734257
v 0.01133090 -0.02800229 -0.04515868
v 0.00860647 -0.02895576 -0.04515868
v 0.03023046 -0.00097332 -0.04515868
v 0.02983769 -0.00000800 -0.05149974
v 0.03021487 0.00093364 -0.04539976
v 0.03013382 0.00186935 -0.04539976
v 0.02979405 0.00487783 -0.04539976
v 0.02966312 0.00580762 -0.04539976
v 0.02947921 0.00672556 -0.04539976
v 0.02924542 0.00763758 -0.04539976
v 0.02896176 0.00853183 -0.04539976
v 0.02796114 0.01138634 -0.04539976
v 0.02762760 0.01226283 -0.04539976
v 0.02724730 0.01312155 -0.04539976
v 0.02681401 0.01395066 -0.04539976
v 0.02633708 0.01476200 -0.04539976
v 0.02472860 0.01732039 -0.04539976
v 0.02420492 0.01810213 -0.04539976
v 0.02364070 0.01885425 -0.04539976
v 0.02303597 0.01957084 -0.04539976
v 0.02239071 0.02025189 -0.04539976
v 0.02025231 0.02238981 -0.04539976
v 0.01956965 0.02303533 -0.04539976
v 0.01885269 0.02363940 -0.04539976
v 0.01810145 0.02420793 -0.04539976
v 0.01732527 0.02472316 -0.04539976
v 0.01475982 0.02633400 -0.04539976
v 0.01395870 0.02681370 -0.04539976
v 0.01312329 0.02724602 -0.04539976
v 0.01226918 0.02762504 -0.04539976
v 0.01139325 0.02796261 -0.04539976
v 0.00853478 0.02896346 -0.04539976
v 0.00764014 0.02924773 -0.04539976
v 0.00672992 0.02947869 -0.04539976
v 0.00581347 0.02966228 -0.04539976
v 0.00488454 0.02979257 -0.04539976
v 0.00187333 0.03013606 -0.04539976
v 0.00000613 0.02937802 -0.05734987
v -0.00158675 -0.02442527 -0.06008500
v 0.00000613 0.02902861 -0.05950934
v 0.00000613 0.02860221 -0.05979717
v 0.00000613 0.02792115 -0.05996812
v 0.00000613 0.02668341 -0.06005578
v 0.00000613 0.02460471 -0.06008500
v -0.00158675 -0.02854713 -0.05979717
v 0.00000301 -0.02791345 -0.05996812
v 0.00621870 -0.02721463 -0.05996812
v 0.00767755 -0.02925188 -0.04515868
v 0.00673616 -0.02949468 -0.04515868
v 0.01211643 -0.02514778 -0.05996812
v 0.01094749 -0.02642106 -0.05979571
v 0.01241257 -0.02576962 -0.05979571
v 0.01383713 -0.02502934 -0.05979571
v 0.01521493 -0.02421800 -0.05979571
v 0.01809522 -0.02269006 -0.05950934
v 0.01831654 -0.02296841 -0.05734257
v 0.01482839 -0.02631446 -0.04515868
v 0.01294561 -0.02687707 -0.05153334
v 0.01224424 -0.02765288 -0.04515868
v 0.03014629 -0.00194456 -0.04515868
v 0.02937946 -0.00000800 -0.05734257
v 0.02864069 0.00653605 -0.05734111
v 0.02908333 0.00663673 -0.05153334
v 0.02646800 0.01274845 -0.05734111
v 0.02687947 0.01294388 -0.05153334
v 0.02296739 0.01831533 -0.05734111
v 0.02332275 0.01859959 -0.05153334
v 0.01831654 0.02297019 -0.05734111
v 0.01860020 0.02331960 -0.05153334
v 0.01275234 0.02647021 -0.05734111
v 0.01294561 0.02687884 -0.05153334
v 0.00654289 0.02864366 -0.05734111
v 0.00664264 0.02908783 -0.05153334
v 0.00000301 -0.02460294 -0.06008500
v 0.00000301 -0.02667571 -0.06005578
v -0.00158675 -0.02754036 -0.05992867
v 0.00646184 0.02830018 -0.05950934
v 0.00320749 0.02842454 -0.05979717
v 0.00160837 0.02856075 -0.05979717
v 0.00621558 0.02721641 -0.05996957
v 0.00594127 0.02600828 -0.06005578
v 0.00547993 0.02398881 -0.06008500
v 0.00593815 -0.02600650 -0.06005578
v 0.01158028 -0.02403441 -0.06005578
v 0.01740631 -0.02182542 -0.05996812
v 0.01655220 -0.02332374 -0.05979571
v 0.01783337 -0.02235842 -0.05979571
v 0.01905843 -0.02132203 -0.05979571
v 0.02022738 -0.02022050 -0.05979571
v 0.02269619 -0.01809443 -0.05950934
v 0.02297051 -0.01831355 -0.05734257
v 0.02031777 -0.02235250 -0.04515868
v 0.01859708 -0.02331782 -0.05153334
v 0.01727228 -0.02478061 -0.04515868
v 0.01399922 -0.02680600 -0.04515868
v 0.01312952 -0.02725609 -0.04515868
v 0.02982522 -0.00481091 -0.04515868
v 0.02864380 -0.00654019 -0.05734257
v 0.02902722 -0.00000800 -0.05951080
v 0.02902722 -0.00000207 -0.05950934
v 0.02830091 0.00645906 -0.05950934
v 0.02615316 0.01259447 -0.05950934
v 0.02269308 0.01809621 -0.05950934
v 0.01809833 0.02269184 -0.05950934
v 0.01259960 0.02615633 -0.05950934
v 0.00547993 -0.02398703 -0.06008500
v 0.00945123 0.02699729 -0.05979717
v 0.00792069 0.02748291 -0.05979717
v 0.00637144 0.02788562 -0.05979717
v 0.00479726 0.02819950 -0.05979717
v 0.01211955 0.02514956 -0.05996957
v 0.01158028 0.02403618 -0.06005578
v 0.01067941 0.02216476 -0.06008500
v 0.01068252 -0.02216299 -0.06008500
v 0.01534273 -0.01923149 -0.06008500
v 0.01663325 -0.02085418 -0.06005578
v 0.02085705 -0.01663164 -0.06005578
v 0.02182650 -0.01740153 -0.05996812
v 0.02132775 -0.01905975 -0.05979571
v 0.02236265 -0.01783385 -0.05979571
v 0.02332899 -0.01654873 -0.05979571
v 0.02422050 -0.01521623 -0.05979571
v 0.02615316 -0.01259862 -0.05950934
v 0.02646488 -0.01274667 -0.05734257
v 0.02631526 -0.01483129 -0.04515868
v 0.02477848 -0.01727124 -0.04515868
v 0.02332275 -0.01859782 -0.05153334
v 0.02235330 -0.02031526 -0.04515868
v 0.01960705 -0.02302171 -0.04515868
v 0.01886204 -0.02364946 -0.04515868
v 0.01808274 -0.02423576 -0.04515868
v 0.02968806 -0.00577623 -0.04515868
v 0.02908644 -0.00664087 -0.05153334
v 0.02895552 -0.00860705 -0.04515868
v 0.02800478 -0.01132534 -0.04515868
v 0.02829779 -0.00645728 -0.05950934
v 0.02842248 -0.00320007 -0.05979571
v 0.02855652 -0.00160107 -0.05979571
v 0.02860328 -0.00000800 -0.05979571
v 0.02855652 0.00160285 -0.05979717
v 0.02842248 0.00320184 -0.05979717
v 0.02748421 0.00791592 -0.05979717
v 0.02699792 0.00944385 -0.05979717
v 0.02819804 0.00478900 -0.05979717
v 0.02788632 0.00636430 -0.05979717
v 0.02642748 0.01094810 -0.05979717
v 0.02576975 0.01241088 -0.05979717
v 0.02503409 0.01383813 -0.05979717
v 0.02421738 0.01521209 -0.05979717
v 0.02332587 0.01655051 -0.05979717
v 0.02236265 0.01782970 -0.05979717
v 0.02132775 0.01905560 -0.05979717
v 0.02022426 0.02022228 -0.05979717
v 0.01905843 0.02132381 -0.05979717
v 0.01783337 0.02236020 -0.05979717
v 0.01655220 0.02332552 -0.05979717
v 0.01521804 0.02421977 -0.05979717
v 0.01384024 0.02503111 -0.05979717
v 0.01241569 0.02577139 -0.05979717
v 0.01095060 0.02642283 -0.05979717
v 0.01740320 0.02182720 -0.05996957
v 0.01663637 0.02085596 -0.06005578
v 0.01533961 0.01923327 -0.06008500
v 0.01923611 -0.01534060 -0.06008500
v 0.02403971 -0.01157407 -0.06005578
v 0.02515254 -0.01211300 -0.05996812
v 0.02503097 -0.01383636 -0.05979571
v 0.02577287 -0.01240911 -0.05979571
v 0.02642436 -0.01094632 -0.05979571
v 0.02699792 -0.00944800 -0.05979571
v 0.02687947 -0.01294210 -0.05153334
v 0.02681401 -0.01399034 -0.04515868
v 0.02423921 -0.01808258 -0.04515868
v 0.02365629 -0.01885839 -0.04515868
v 0.02302350 -0.01960459 -0.04515868
v 0.02949791 -0.00672971 -0.04515868
v 0.02925477 -0.00767726 -0.04515868
v 0.02765565 -0.01223736 -0.04515868
v 0.02748732 -0.00792007 -0.05979571
v 0.02788321 -0.00636253 -0.05979571
v 0.02820116 -0.00479314 -0.05979571
v 0.02721613 -0.00621447 -0.05996812
v 0.02791749 -0.00000207 -0.05996957
v 0.02860016 -0.00000800 -0.05979717
v 0.02860016 -0.00000207 -0.05979717
v 0.02721613 0.00621033 -0.05996957
v 0.02515254 0.01211477 -0.05996957
v 0.02182338 0.01740331 -0.05996957
v 0.02085705 0.01663342 -0.06005578
v 0.01923611 0.01533645 -0.06008500
v 0.02216939 -0.01067390 -0.06008500
v 0.02398671 -0.00547420 -0.06008500
v 0.02600977 -0.00593613 -0.06005578
v 0.02725977 -0.01312569 -0.04515868
v 0.02601289 0.00593791 -0.06005578
v 0.02668309 -0.00000800 -0.06005578
v 0.02403659 0.01157585 -0.06005578
v 0.02216627 0.01067567 -0.06008500
v 0.02460704 -0.00000800 -0.06008500
v 0.02460704 -0.00000207 -0.06008500
v 0.02398671 0.00547597 -0.06008500
f 1 2 3
f 1 3 4
f 1 4 10
f 1 10 9
f 1 9 8
f 1 8 16
f 1 16 28
f 1 28 83
f 1 83 82
f 1 82 36
f 1 36 35
f 1 35 93
f 1 93 130
f 1 130 129
f 1 129 91
f 1 91 128
f 1 128 165
f 1 165 164
f 1 164 163
f 1 163 126
f 1 126 162
f 1 162 209
f 1 209 208
f 1 208 207
f 1 207 160
f 1 160 159
f 1 159 206
f 1 206 228
f 1 228 212
f 1 212 169
f 1 169 168
f 1 168 211
f 1 211 210
f 1 210 166
f 1 166 131
f 1 131 94
f 1 94 37
f 1 37 19
f 1 19 11
f 1 11 5
f 1 5 13
f 1 13 22
f 1 22 73
f 1 73 110
f 1 110 79
f 1 79 23
f 1 23 15
f 1 15 6
f 1 6 2
f 2 6 7
f 2 7 3
f 3 7 8
f 3 8 9
f 3 9 10
f 3 10 4
f 5 11 12
f 5 12 13
f 6 14 7
f 6 15 14
f 7 16 8
f 7 14 17
f 7 17 18
f 7 18 16
f 11 19 12
f 12 19 20
f 12 20 21
f 12 21 22
f 12 22 13
f 14 15 23
f 14 23 24
f 14 24 25
f 14 25 26
f 14 26 17
f 16 18 27
f 16 27 28
f 17 26 29
f 17 29 30
f 17 30 31
f 17 31 32
f 17 32 33
f 17 33 34
f 17 34 18
f 18 35 36
f 18 36 27
f 18 34 35
f 19 37 38
f 19 38 39
f 19 39 40
f 19 40 41
f 19 41 42
f 19 42 43
f 19 43 44
f 19 44 45
f 19 45 46
f 19 46 47
f 19 47 48
f 19 48 49
f 19 49 50
f 19 50 51
f 19 51 52
f 19 52 53
f 19 53 54
f 19 54 55
f 19 55 56
f 19 56 57
f 19 57 58
f 19 58 59
f 19 59 60
f 19 60 61
f 19 61 62
f 19 62 63
f 19 63 64
f 19 64 65
f 19 65 66
f 19 66 67
f 19 67 68
f 19 68 69
f 19 69 70
f 19 70 71
f 19 71 20
f 20 71 21
f 21 71 72
f 21 72 22
f 22 72 74
f 22 74 75
f 22 75 76
f 22 76 77
f 22 77 78
f 22 78 116
f 22 116 147
f 22 147 197
f 22 197 224
f 22 224 232
f 22 232 235
f 22 235 234
f 22 234 233
f 22 233 226
f 22 226 225
f 22 225 198
f 22 198 149
f 22 149 148
f 22 148 140
f 22 140 108
f 22 108 73
f 23 79 24
f 24 79 80
f 24 80 25
f 25 80 26
f 26 80 81
f 26 81 29
f 27 82 83
f 27 83 28
f 27 36 82
f 29 81 30
f 30 81 31
f 31 81 32
f 32 81 84
f 32 84 85
f 32 85 33
f 33 85 86
f 33 86 87
f 33 87 88
f 33 88 89
f 33 89 90
f 33 90 34
f 34 90 91
f 34 91 92
f 34 92 35
f 35 92 93
f 37 94 38
f 38 94 95
f 38 95 40
f 38 40 39
f 40 95 96
f 40 96 41
f 41 96 97
f 41 97 42
f 42 97 43
f 43 97 44
f 44 97 45
f 45 97 96
f 45 96 98
f 45 98 46
f 46 98 99
f 46 99 47
f 47 99 48
f 48 99 49
f 49 99 50
f 50 99 98
f 50 98 51
f 51 98 100
f 51 100 101
f 51 101 52
f 52 101 53
f 53 101 54
f 54 101 55
f 55 101 100
f 55 100 102
f 55 102 56
f 56 102 103
f 56 103 57
f 57 103 58
f 58 103 59
f 59 103 60
f 60 103 102
f 60 102 104
f 60 104 61
f 61 104 105
f 61 105 62
f 62 105 63
f 63 105 64
f 64 105 65
f 65 105 104
f 65 104 66
f 66 104 106
f 66 106 107
f 66 107 67
f 67 107 68
f 68 107 69
f 69 107 70
f 70 107 106
f 70 106 71
f 71 106 72
f 72 106 74
f 73 108 109
f 73 109 110
f 74 106 111
f 74 111 112
f 74 112 113
f 74 113 75
f 75 113 76
f 76 112 114
f 76 114 77
f 76 113 112
f 77 114 115
f 77 115 116
f 77 116 78
f 79 110 80
f 80 110 109
f 80 109 81
f 81 109 117
f 81 117 118
f 81 118 84
f 84 87 86
f 84 86 85
f 84 118 119
f 84 119 88
f 84 88 87
f 88 119 120
f 88 120 89
f 89 120 121
f 89 121 122
f 89 122 123
f 89 123 124
f 89 124 90
f 90 124 125
f 90 125 126
f 90 126 127
f 90 127 128
f 90 128 91
f 91 129 92
f 92 129 130
f 92 130 93
f 94 131 95
f 95 131 132
f 95 132 133
f 95 133 134
f 95 134 135
f 95 135 96
f 96 135 98
f 98 135 136
f 98 136 100
f 100 136 137
f 100 137 102
f 102 138 139
f 102 139 104
f 102 137 138
f 104 139 106
f 106 139 111
f 108 140 109
f 109 140 117
f 111 141 142
f 111 142 143
f 111 143 144
f 111 144 112
f 111 139 141
f 112 144 114
f 114 142 141
f 114 141 145
f 114 145 146
f 114 146 115
f 114 144 143
f 114 143 142
f 115 146 116
f 116 146 147
f 117 140 118
f 118 140 148
f 118 148 149
f 118 149 150
f 118 150 119
f 119 121 120
f 119 150 151
f 119 151 152
f 119 152 123
f 119 123 122
f 119 122 121
f 123 153 124
f 123 152 153
f 124 153 154
f 124 154 155
f 124 155 156
f 124 156 157
f 124 157 125
f 125 157 158
f 125 158 159
f 125 159 160
f 125 160 161
f 125 161 162
f 125 162 126
f 126 163 127
f 127 163 164
f 127 164 165
f 127 165 128
f 131 166 167
f 131 167 132
f 132 167 168
f 132 168 169
f 132 169 158
f 132 158 157
f 132 157 170
f 132 170 133
f 133 170 171
f 133 171 172
f 133 172 173
f 133 173 174
f 133 174 175
f 133 175 135
f 133 135 134
f 135 176 177
f 135 177 136
f 135 175 178
f 135 178 179
f 135 179 176
f 136 177 180
f 136 180 181
f 136 181 182
f 136 182 183
f 136 183 137
f 137 183 184
f 137 184 185
f 137 185 186
f 137 186 187
f 137 187 138
f 138 187 188
f 138 188 189
f 138 189 190
f 138 190 191
f 138 191 139
f 139 191 192
f 139 192 193
f 139 193 194
f 139 194 141
f 141 194 145
f 145 194 193
f 145 193 192
f 145 192 191
f 145 191 195
f 145 195 146
f 146 195 196
f 146 196 147
f 147 196 197
f 149 198 150
f 150 198 151
f 151 198 199
f 151 199 152
f 152 199 200
f 152 200 156
f 152 156 155
f 152 155 154
f 152 154 153
f 156 201 157
f 156 200 201
f 157 201 202
f 157 202 203
f 157 203 204
f 157 204 170
f 158 169 205
f 158 205 159
f 159 205 206
f 160 207 161
f 161 207 208
f 161 208 209
f 161 209 162
f 166 210 167
f 167 210 211
f 167 211 168
f 169 212 205
f 170 204 213
f 170 213 214
f 170 214 215
f 170 215 171
f 171 215 216
f 171 216 217
f 171 217 172
f 172 217 218
f 172 218 173
f 173 218 219
f 173 219 174
f 174 219 217
f 174 217 175
f 175 217 220
f 175 220 178
f 176 179 220
f 176 220 177
f 177 220 221
f 177 221 180
f 178 220 179
f 180 221 181
f 181 221 182
f 182 221 183
f 183 221 222
f 183 222 184
f 184 222 185
f 185 222 186
f 186 222 187
f 187 222 195
f 187 195 188
f 188 195 189
f 189 195 190
f 190 195 191
f 195 222 223
f 195 223 196
f 196 223 224
f 196 224 197
f 198 225 199
f 199 225 226
f 199 226 227
f 199 227 216
f 199 216 200
f 200 216 204
f 200 204 203
f 200 203 202
f 200 202 201
f 204 216 213
f 205 228 206
f 205 212 228
f 213 216 214
f 214 216 215
f 216 227 217
f 217 229 220
f 217 219 218
f 217 227 230
f 217 230 229
f 220 229 221
f 221 231 223
f 221 223 222
f 221 229 231
f 223 231 232
f 223 232 224
f 226 233 230
f 226 230 227
f 229 230 234
f 229 234 235
f 229 235 232
f 229 232 231
f 230 233 234

