# https://github.com/mikedh/trimesh
v -0.02310858 -0.02983448 0.05964340
v -0.02310858 -0.02977022 0.05985082
v -0.02350878 -0.02947520 0.05985082
v -0.02354947 -0.02952778 0.05957649
v -0.02044288 -0.02562830 -0.00717245
v -0.02044288 -0.02583276 -0.00458305
v -0.02310858 -0.02943139 0.06000471
v -0.02511464 -0.02810235 0.05985082
v -0.02331207 -0.02922984 0.06002478
v -0.02044288 -0.02552314 -0.00826977
v -0.02044288 -0.02059256 -0.00458305
v -0.02055649 -0.02087005 -0.00096994
v -0.02310858 -0.02897572 0.06006493
v -0.02664759 -0.02664479 0.05985082
v -0.02889275 -0.02303448 0.06008500
v -0.02923190 -0.02330905 0.06002478
v -0.02366987 -0.02229840 -0.00826977
v -0.02044288 -0.02025373 -0.00826977
v -0.02044288 -0.02043483 -0.00576736
v -0.02989833 -0.00000270 -0.00826977
v -0.02990002 -0.00000270 -0.00824301
v -0.02095329 -0.02107452 0.00607563
v -0.02126361 -0.02150974 0.01290040
v -0.02310858 -0.02608397 0.05761604
v -0.02310858 -0.02753568 0.05976384
v -0.02310858 -0.02769634 0.05985082
v -0.02310858 -0.02799428 0.05994449
v -0.02310858 -0.02866025 0.06004485
v -0.02310858 -0.02886472 0.06007162
v -0.02810762 -0.02511129 0.05985082
v -0.02557758 -0.02039101 -0.00826977
v -0.03329151 -0.01603002 0.06008500
v -0.03695091 -0.00000270 0.06008500
v -0.03368153 -0.01621404 0.06002478
v -0.03190269 -0.02004342 0.05985082
v -0.03073772 -0.02181060 0.05985082
v -0.02947609 -0.02350476 0.05985082
v -0.03270817 -0.00000270 -0.00826977
v -0.03144654 0.00000606 0.01290040
v -0.03093443 0.00000314 0.00607563
v -0.03097173 0.00000314 0.00659084
v -0.03119048 0.00000314 0.00951478
v -0.03244703 0.00000606 0.02618863
v -0.03374936 0.00000606 0.04246103
v -0.02310858 -0.02310751 0.04379253
v -0.02310858 -0.02379978 0.04741234
v -0.02310858 -0.02480459 0.05243724
v -0.03466167 0.00000606 0.05243724
v -0.03528739 0.00000606 0.05762942
v -0.03573846 0.00000606 0.05957649
v -0.03611152 0.00000606 0.05985082
v -0.03652189 -0.00000270 0.06002478
v -0.02952696 -0.02354565 0.05957649
v -0.02615413 -0.01947383 -0.00826977
v -0.03602504 -0.00822521 0.06008500
v -0.03644728 -0.00832160 0.06002478
v -0.03694752 0.00000606 0.06007831
v -0.03695261 0.00000606 0.06007831
v -0.03738502 -0.00000270 0.06002478
v -0.03556380 -0.01244600 0.05985082
v -0.03481937 -0.01442641 0.05985082
v -0.03396471 -0.01635132 0.05985082
v -0.03298627 -0.01822658 0.05985082
v -0.02946931 -0.01419273 -0.00826977
v -0.03414277 0.00000606 0.01290040
v -0.03270817 -0.00000562 -0.00826977
v -0.03776657 0.00000606 0.05957649
v -0.03651850 0.00000606 0.06001809
v -0.03744268 -0.00422057 0.05985082
v -0.03715440 -0.00631782 0.05985082
v -0.03675252 -0.00839170 0.05985082
v -0.03621496 -0.01043346 0.05985082
v -0.03738502 0.00000606 0.06001809
v -0.03769874 0.00000606 0.05985082
v -0.03769874 -0.00000270 0.05985082
v -0.03762921 -0.00211456 0.05985082
v -0.03188743 -0.00728466 -0.00826977
v -0.03402576 -0.01638053 0.05957649
v -0.03268952 -0.00017504 -0.00826977
v -0.03776657 -0.00000270 0.05957649
v -0.03200274 -0.00627693 -0.00826977
v -0.03681865 -0.00840631 0.05957649
f 1 2 3
f 1 3 4
f 1 4 5
f 1 5 6
f 1 6 2
f 2 6 7
f 2 7 3
f 3 8 4
f 3 7 9
f 3 9 8
f 4 8 10
f 4 10 5
f 5 10 18
f 5 18 19
f 5 19 11
f 5 11 6
f 6 11 12
f 6 12 7
f 7 13 9
f 7 12 13
f 8 9 14
f 8 14 10
f 9 13 15
f 9 15 16
f 9 16 14
f 10 17 31
f 10 31 54
f 10 54 64
f 10 64 77
f 10 77 81
f 10 81 79
f 10 79 66
f 10 66 38
f 10 38 20
f 10 20 18
f 10 14 17
f 11 19 20
f 11 20 21
f 11 21 12
f 12 21 22
f 12 22 23
f 12 23 24
f 12 24 25
f 12 25 26
f 12 26 27
f 12 27 28
f 12 28 29
f 12 29 13
f 13 29 15
f 14 16 30
f 14 30 31
f 14 31 17
f 15 32 16
f 15 29 33
f 15 33 55
f 15 55 32
f 16 32 34
f 16 34 35
f 16 35 36
f 16 36 37
f 16 37 30
f 18 20 19
f 20 38 65
f 20 65 39
f 20 39 40
f 20 40 21
f 21 40 22
f 22 40 41
f 22 41 42
f 22 42 39
f 22 39 43
f 22 43 23
f 23 43 44
f 23 44 45
f 23 45 46
f 23 46 47
f 23 47 24
f 24 47 48
f 24 48 49
f 24 49 50
f 24 50 25
f 25 50 26
f 26 50 51
f 26 51 27
f 27 51 52
f 27 52 28
f 28 52 29
f 29 52 33
f 30 37 53
f 30 53 31
f 31 53 36
f 31 36 35
f 31 35 54
f 32 55 56
f 32 56 34
f 33 52 68
f 33 68 57
f 33 57 58
f 33 58 59
f 33 59 55
f 34 56 60
f 34 60 61
f 34 61 62
f 34 62 63
f 34 63 35
f 35 63 64
f 35 64 54
f 36 53 37
f 38 66 80
f 38 80 67
f 38 67 65
f 39 42 41
f 39 41 40
f 39 65 67
f 39 67 74
f 39 74 73
f 39 73 58
f 39 58 57
f 39 57 68
f 39 68 51
f 39 51 50
f 39 50 49
f 39 49 48
f 39 48 44
f 39 44 43
f 44 48 46
f 44 46 45
f 46 48 47
f 51 68 52
f 55 59 56
f 56 59 69
f 56 69 70
f 56 70 71
f 56 71 72
f 56 72 60
f 58 73 59
f 59 73 74
f 59 74 75
f 59 75 76
f 59 76 69
f 60 72 77
f 60 77 64
f 60 64 61
f 61 78 62
f 61 64 78
f 62 78 63
f 63 78 64
f 66 79 69
f 66 69 76
f 66 76 80
f 67 80 75
f 67 75 74
f 69 79 81
f 69 81 77
f 69 77 70
f 70 77 82
f 70 82 71
f 71 82 72
f 72 82 77
f 75 80 76

