# https://github.com/mikedh/trimesh
v 0.00000533 -0.03042246 -0.00097903
v -0.00000767 -0.03093274 0.00606761
v 0.00000013 -0.03119161 0.00949794
v 0.00000013 -0.03144489 0.01288694
v -0.00001027 -0.03465933 0.05240809
v -0.00001027 -0.03466305 0.05243908
v -0.00001027 -0.03528881 0.05762591
v -0.00001027 -0.03573950 0.05957872
v -0.00001027 -0.03611197 0.05985769
v -0.00001027 -0.03651983 0.06002301
v -0.00001027 -0.03694817 0.06007466
v 0.00000533 -0.03319551 -0.00097903
v 0.00000533 -0.03016172 -0.00458502
v -0.02310454 -0.02041226 0.01288694
v -0.00001027 -0.03244684 0.02616398
v -0.00001027 -0.03375050 0.04245806
v -0.02310454 -0.02228580 0.03589703
v -0.02310454 -0.02293762 0.04245806
v -0.02310454 -0.02311082 0.04379093
v -0.02310454 -0.02380362 0.04741757
v -0.02310454 -0.02480743 0.05243908
v -0.02310454 -0.02608688 0.05761558
v -0.02310454 -0.02753766 0.05976470
v -0.02310454 -0.02770154 0.05985769
v -0.02310454 -0.02799766 0.05995068
v -0.02276912 -0.02855451 0.06002301
v -0.02303694 -0.02888973 0.06008500
v -0.00822405 -0.03602258 0.06008500
v -0.00001027 -0.03695190 0.06007466
v 0.00000533 -0.03294968 -0.00458502
v -0.00001027 -0.03738583 0.06002301
v -0.00001027 -0.03769870 0.05985769
v -0.00001027 -0.03776761 0.05957872
v 0.00000013 -0.02936463 -0.01581625
v 0.00000013 -0.02956018 -0.01297486
v -0.02097504 -0.01943080 -0.01581625
v -0.02558245 -0.01943080 -0.01581625
v -0.02655750 -0.02108457 0.00949794
v -0.02310454 -0.02145891 0.02613298
v -0.02310454 -0.02886552 0.06007466
v -0.01603221 -0.03329049 0.06008500
v -0.02310454 -0.02897540 0.06006434
v -0.02310454 -0.02943168 0.06000234
v -0.01621942 -0.03368345 0.06002301
v -0.00832286 -0.03644906 0.06002301
v 0.00000013 -0.03220101 -0.01581625
v -0.00422247 -0.03744170 0.05985769
v -0.00211377 -0.03763166 0.05985769
v -0.00171595 -0.03053047 -0.04030386
v -0.00159115 -0.03047832 -0.04114078
v -0.00159115 -0.02709255 -0.04547002
v -0.00159115 -0.02717077 -0.04238066
v -0.00228538 -0.02752648 -0.02949625
v -0.02009620 -0.01943080 -0.02261492
v -0.01940197 -0.01888699 -0.04041751
v -0.01940197 -0.01874172 -0.04547002
v -0.02487002 -0.01943080 -0.02535299
v -0.02651590 -0.02114976 0.00949794
v -0.02310454 -0.02983209 0.05964071
v -0.02310454 -0.02977063 0.05985769
v -0.02180968 -0.03073533 0.05985769
v -0.02004420 -0.03190303 0.05985769
v -0.01822932 -0.03298506 0.05985769
v -0.01635723 -0.03396653 0.05985769
v -0.01442274 -0.03481949 0.05985769
v -0.01244405 -0.03556443 0.05985769
v -0.01043415 -0.03621626 0.05985769
v -0.00839306 -0.03675449 0.05985769
v -0.00631557 -0.03715675 0.05985769
v -0.00159115 -0.03015241 -0.04547002
v -0.00342943 -0.03038521 -0.04030386
v -0.00185116 -0.03013193 -0.04547002
v -0.00160675 -0.03015241 -0.04547002
v -0.01940197 -0.02317787 -0.04547002
v -0.02378057 -0.01943080 -0.03812374
v -0.02435780 -0.01943080 -0.03154205
v -0.02304214 -0.02031542 -0.03812374
v -0.02199949 -0.02141421 -0.03812374
v -0.02140666 -0.02201017 -0.03812374
v -0.02030161 -0.02305123 -0.03812374
v -0.01885074 -0.02364346 -0.04547002
v -0.01810711 -0.02420031 -0.04547002
v -0.01769369 -0.02494152 -0.04030386
v -0.01626362 -0.02589505 -0.04030386
v -0.01638323 -0.03402612 0.05957872
v -0.01478676 -0.02676478 -0.04030386
v -0.01170301 -0.02825280 -0.04030386
v -0.01010134 -0.02886179 -0.04030386
v -0.00840606 -0.03681780 0.05957872
v -0.00847106 -0.02938326 -0.04030386
v -0.00512471 -0.03014496 -0.04030386
v -0.00582414 -0.02965889 -0.04547002
v -0.00490370 -0.02978739 -0.04547002
v -0.01733747 -0.02471432 -0.04547002
v -0.01473735 -0.02634761 -0.04547002
v -0.01393912 -0.02681692 -0.04547002
v -0.01312268 -0.02724340 -0.04547002
v -0.01227504 -0.02762146 -0.04547002
v -0.01140920 -0.02795110 -0.04547002
v -0.00851267 -0.02896609 -0.04547002
v -0.00762862 -0.02924544 -0.04547002
v -0.00672898 -0.02947824 -0.04547002
f 1 2 3
f 1 3 4
f 1 4 5
f 1 5 6
f 1 6 7
f 1 7 8
f 1 8 9
f 1 9 10
f 1 10 11
f 1 11 29
f 1 29 12
f 1 12 30
f 1 30 13
f 1 13 14
f 1 14 2
f 2 14 3
f 3 14 4
f 4 15 16
f 4 16 5
f 4 14 15
f 5 16 17
f 5 17 18
f 5 18 6
f 6 18 7
f 7 18 19
f 7 19 20
f 7 20 21
f 7 21 8
f 8 21 22
f 8 22 23
f 8 23 9
f 9 23 24
f 9 24 10
f 10 24 25
f 10 25 26
f 10 26 27
f 10 27 11
f 11 27 28
f 11 28 29
f 12 29 31
f 12 31 32
f 12 32 33
f 12 33 30
f 13 30 46
f 13 46 34
f 13 34 35
f 13 35 14
f 14 35 36
f 14 36 37
f 14 37 38
f 14 38 39
f 14 39 15
f 15 39 16
f 16 39 17
f 17 39 38
f 17 38 18
f 18 38 19
f 19 38 20
f 20 38 21
f 21 38 22
f 22 38 23
f 23 38 24
f 24 38 25
f 25 40 27
f 25 27 26
f 25 38 40
f 27 41 28
f 27 40 42
f 27 42 43
f 27 43 44
f 27 44 41
f 28 41 45
f 28 45 31
f 28 31 29
f 30 33 46
f 31 45 47
f 31 47 48
f 31 48 32
f 32 48 33
f 33 48 49
f 33 49 50
f 33 50 46
f 34 46 70
f 34 70 51
f 34 51 52
f 34 52 53
f 34 53 54
f 34 54 36
f 34 36 35
f 36 54 55
f 36 55 56
f 36 56 37
f 37 56 57
f 37 57 38
f 38 57 58
f 38 58 59
f 38 59 60
f 38 60 43
f 38 43 42
f 38 42 40
f 41 44 45
f 43 60 61
f 43 61 62
f 43 62 44
f 44 62 63
f 44 63 64
f 44 64 65
f 44 65 66
f 44 66 45
f 45 66 67
f 45 67 68
f 45 68 69
f 45 69 47
f 46 50 70
f 47 69 71
f 47 71 48
f 48 71 49
f 49 71 72
f 49 72 50
f 50 72 73
f 50 73 70
f 51 70 73
f 51 73 72
f 51 72 93
f 51 93 92
f 51 92 102
f 51 102 101
f 51 101 100
f 51 100 99
f 51 99 98
f 51 98 97
f 51 97 96
f 51 96 95
f 51 95 94
f 51 94 82
f 51 82 81
f 51 81 74
f 51 74 56
f 51 56 52
f 52 56 55
f 52 55 54
f 52 54 53
f 56 74 75
f 56 75 76
f 56 76 57
f 57 76 58
f 58 76 77
f 58 77 59
f 59 61 60
f 59 77 78
f 59 78 79
f 59 79 80
f 59 80 74
f 59 74 81
f 59 81 82
f 59 82 83
f 59 83 61
f 61 83 84
f 61 84 62
f 62 84 63
f 63 85 64
f 63 84 86
f 63 86 85
f 64 85 65
f 65 85 87
f 65 87 88
f 65 88 66
f 66 88 67
f 67 89 68
f 67 88 90
f 67 90 89
f 68 89 69
f 69 89 91
f 69 91 71
f 71 91 92
f 71 92 93
f 71 93 72
f 74 80 79
f 74 79 78
f 74 78 77
f 74 77 75
f 75 77 76
f 82 94 83
f 83 94 84
f 84 94 95
f 84 95 86
f 85 86 96
f 85 96 97
f 85 97 98
f 85 98 87
f 86 95 96
f 87 98 99
f 87 99 88
f 88 99 100
f 88 100 90
f 89 90 101
f 89 101 102
f 89 102 92
f 89 92 91
f 90 100 101

