# https://github.com/mikedh/trimesh
v -0.01940767 -0.02380995 -0.03813287
v -0.01901886 -0.01942496 -0.03813287
v -0.01980044 -0.02031500 -0.01581921
v -0.01996707 -0.02031500 -0.01323391
v -0.01998162 -0.02031500 -0.01301179
v -0.02009270 -0.02031500 -0.01148610
v -0.02032149 -0.02031500 -0.00835098
v -0.02033207 -0.02031500 -0.00827087
v -0.02562458 -0.02031500 -0.00827087
v -0.02031223 -0.02304339 -0.03813287
v -0.02037835 -0.02279874 -0.04031035
v -0.01940767 -0.02317154 -0.04547002
v -0.01940767 -0.01873762 -0.04547002
v -0.02748264 -0.00000940 -0.04547002
v -0.01906912 -0.01942496 -0.03656349
v -0.01941560 -0.01942496 -0.02950672
v -0.02781194 -0.00000940 -0.03976052
v -0.02790980 -0.00000707 -0.03813287
v -0.02843085 -0.00000707 -0.02950672
v -0.02936716 -0.00000707 -0.01581921
v -0.02922301 -0.00161707 -0.00827087
v -0.02548175 -0.02031500 -0.01008058
v -0.02937906 -0.01433400 -0.00827087
v -0.02589039 -0.01626553 -0.04031035
v -0.02494086 -0.01769380 -0.04031035
v -0.02141120 -0.02200190 -0.03813287
v -0.02162412 -0.02161978 -0.04031035
v -0.02023553 -0.02240265 -0.04547002
v -0.01956239 -0.02303873 -0.04547002
v -0.03023734 -0.00000940 -0.04547002
v -0.03072136 -0.00000707 -0.03813287
v -0.03220120 -0.00000707 -0.01581921
v -0.03252785 -0.00161707 -0.00827087
v -0.02493293 -0.01794544 -0.03813287
v -0.02364220 -0.01884946 -0.04547002
v -0.02379428 -0.01942496 -0.03813287
v -0.02280376 -0.02037326 -0.04031035
v -0.02946899 -0.01418954 -0.00827087
v -0.02676322 -0.01478834 -0.04031035
v -0.02634532 -0.01473941 -0.04547002
v -0.02471340 -0.01733732 -0.04547002
v -0.02419896 -0.01810853 -0.04547002
v -0.02240702 -0.02023113 -0.04547002
v -0.03021089 -0.00092973 -0.04547002
v -0.03053093 -0.00171726 -0.04031035
v -0.03038546 -0.00342745 -0.04031035
v -0.03200283 -0.00627233 -0.00827087
v -0.02304312 -0.01955777 -0.04547002
v -0.02982870 -0.01316669 -0.00827087
v -0.02886330 -0.01010279 -0.04031035
v -0.02825099 -0.01170347 -0.04031035
v -0.02724195 -0.01311776 -0.04547002
v -0.02681744 -0.01394023 -0.04547002
v -0.02698672 -0.01467184 -0.03813287
v -0.03013286 -0.00185240 -0.04547002
v -0.02978770 -0.00490465 -0.04547002
v -0.02965942 -0.00582265 -0.04547002
v -0.03014741 -0.00512366 -0.04031035
v -0.03188778 -0.00728121 -0.00827087
v -0.03183223 -0.00744197 -0.00827087
v -0.02938435 -0.00846949 -0.04031035
v -0.02896645 -0.00851143 -0.04547002
v -0.02795080 -0.01140990 -0.04547002
v -0.02762018 -0.01226965 -0.04547002
v -0.02947824 -0.00673134 -0.04547002
v -0.02924813 -0.00762837 -0.04547002
f 1 2 3
f 1 3 4
f 1 4 5
f 1 5 6
f 1 6 7
f 1 7 8
f 1 8 9
f 1 9 10
f 1 10 11
f 1 11 12
f 1 12 2
f 2 12 13
f 2 13 14
f 2 14 15
f 2 15 3
f 3 15 16
f 3 16 17
f 3 17 18
f 3 18 19
f 3 19 4
f 4 19 5
f 5 19 20
f 5 20 6
f 6 20 7
f 7 20 21
f 7 21 8
f 8 21 33
f 8 33 47
f 8 47 59
f 8 59 60
f 8 60 49
f 8 49 38
f 8 38 23
f 8 23 9
f 9 22 10
f 9 23 24
f 9 24 25
f 9 25 22
f 10 22 26
f 10 26 27
f 10 27 11
f 11 28 29
f 11 29 12
f 11 27 28
f 12 29 28
f 12 28 43
f 12 43 48
f 12 48 35
f 12 35 42
f 12 42 41
f 12 41 40
f 12 40 53
f 12 53 52
f 12 52 64
f 12 64 63
f 12 63 62
f 12 62 66
f 12 66 65
f 12 65 57
f 12 57 56
f 12 56 55
f 12 55 44
f 12 44 30
f 12 30 14
f 12 14 13
f 14 30 31
f 14 31 18
f 14 18 17
f 14 17 16
f 14 16 15
f 18 31 32
f 18 32 20
f 18 20 19
f 20 32 33
f 20 33 21
f 22 25 34
f 22 34 35
f 22 35 36
f 22 36 37
f 22 37 27
f 22 27 26
f 23 38 24
f 24 39 40
f 24 40 41
f 24 41 25
f 24 38 39
f 25 41 42
f 25 42 35
f 25 35 34
f 27 37 43
f 27 43 28
f 30 44 45
f 30 45 32
f 30 32 31
f 32 45 46
f 32 46 33
f 33 46 47
f 35 48 37
f 35 37 36
f 37 48 43
f 38 49 50
f 38 50 51
f 38 51 52
f 38 52 53
f 38 53 54
f 38 54 39
f 39 53 40
f 39 54 53
f 44 55 45
f 45 55 46
f 46 55 56
f 46 56 57
f 46 57 58
f 46 58 59
f 46 59 47
f 49 60 50
f 50 61 62
f 50 62 63
f 50 63 51
f 50 60 59
f 50 59 61
f 51 63 64
f 51 64 52
f 57 65 59
f 57 59 58
f 59 65 66
f 59 66 61
f 61 66 62

