# https://github.com/mikedh/trimesh
v 0.03016316 0.00000160 -0.00458296
v 0.03295364 0.00000160 -0.00458296
v 0.03093330 0.00000160 0.00607158
v 0.02093843 0.02110755 0.00607158
v 0.02055845 0.02085928 -0.00096814
v 0.02043631 0.02059933 -0.00458296
v 0.03295364 0.00000452 -0.00458296
v 0.03776617 0.00000744 0.05957855
v 0.03414448 0.00000160 0.01288973
v 0.03144729 0.00000160 0.01289606
v 0.03243965 0.00000744 0.02607022
v 0.02112842 0.02125944 0.00951548
v 0.02310466 0.02609050 0.05762236
v 0.02310466 0.02753631 0.05976847
v 0.02310466 0.02770280 0.05985710
v 0.02310466 0.02800073 0.05994573
v 0.02310466 0.02867544 0.06004702
v 0.02310466 0.02886529 0.06007234
v 0.02310466 0.02896752 0.06006601
v 0.02310466 0.02943778 0.06000270
v 0.02310466 0.02977367 0.05985710
v 0.02310466 0.02983793 0.05965452
v 0.02310466 0.02488127 0.01289606
v 0.02571534 0.02059933 -0.00458296
v 0.03212752 0.00734166 -0.00458296
v 0.03744217 0.00422221 0.05985710
v 0.03763046 0.00211629 0.05985710
v 0.03770001 0.00000744 0.05985710
v 0.03412921 0.00000160 0.01289606
v 0.03738619 0.00000744 0.06002169
v 0.03694684 0.00000744 0.06007867
v 0.03652105 0.00000744 0.06002169
v 0.03611224 0.00000744 0.05985710
v 0.03574074 0.00000744 0.05957855
v 0.03528951 0.00000744 0.05762870
v 0.03466186 0.00000744 0.05244386
v 0.03375092 0.00000744 0.04246670
v 0.02126582 0.02125944 0.01122476
v 0.02310466 0.02309956 0.04373284
v 0.02310466 0.02380056 0.04737931
v 0.02310466 0.02481117 0.05244386
v 0.02889259 0.02303823 0.06007867
v 0.02331162 0.02922748 0.06002802
v 0.02350670 0.02947283 0.05985710
v 0.02354911 0.02952540 0.05957855
v 0.02576792 0.02054383 -0.00458296
v 0.02511483 0.02810295 0.05985710
v 0.02664494 0.02664254 0.05985710
v 0.02810718 0.02511202 0.05985710
v 0.02968987 0.01429909 -0.00458296
v 0.03556432 0.01244728 0.05985710
v 0.03621571 0.01043482 0.05985710
v 0.03681961 0.00840484 0.05957855
v 0.03715719 0.00631645 0.05985710
v 0.03644981 0.00832014 0.06002802
v 0.03695362 0.00000744 0.06007867
v 0.03329121 0.01603114 0.06007867
v 0.03368307 0.01622100 0.06002802
v 0.02923016 0.02330694 0.06002802
v 0.02609193 0.02002977 -0.00458296
v 0.02952702 0.02354353 0.05957855
v 0.03073652 0.02180855 0.05985710
v 0.03190360 0.02004437 0.05985710
v 0.02947444 0.02350264 0.05985710
v 0.03298757 0.01822761 0.05985710
v 0.03402573 0.01638456 0.05957855
v 0.03481962 0.01442761 0.05985710
v 0.03675345 0.00839024 0.05985710
v 0.03602403 0.00822375 0.06007867
v 0.03396636 0.01635536 0.05985710
f 1 2 9
f 1 9 29
f 1 29 10
f 1 10 3
f 1 3 4
f 1 4 5
f 1 5 6
f 1 6 24
f 1 24 46
f 1 46 60
f 1 60 50
f 1 50 25
f 1 25 7
f 1 7 2
f 2 7 8
f 2 8 9
f 3 10 4
f 4 10 11
f 4 11 12
f 4 12 13
f 4 13 5
f 5 13 14
f 5 14 15
f 5 15 16
f 5 16 17
f 5 17 18
f 5 18 19
f 5 19 20
f 5 20 21
f 5 21 22
f 5 22 6
f 6 22 23
f 6 23 24
f 7 25 26
f 7 26 27
f 7 27 8
f 8 27 28
f 8 28 9
f 9 28 30
f 9 30 29
f 10 29 56
f 10 56 31
f 10 31 32
f 10 32 33
f 10 33 34
f 10 34 35
f 10 35 36
f 10 36 37
f 10 37 11
f 11 37 12
f 12 38 39
f 12 39 40
f 12 40 41
f 12 41 13
f 12 37 38
f 13 41 36
f 13 36 35
f 13 35 34
f 13 34 14
f 14 34 15
f 15 34 33
f 15 33 16
f 16 33 32
f 16 32 17
f 17 32 18
f 18 32 31
f 18 31 42
f 18 42 19
f 19 42 43
f 19 43 20
f 20 43 21
f 21 43 44
f 21 44 22
f 22 44 45
f 22 45 23
f 23 45 24
f 24 45 47
f 24 47 48
f 24 48 49
f 24 49 46
f 25 50 51
f 25 51 52
f 25 52 53
f 25 53 54
f 25 54 26
f 26 54 55
f 26 55 30
f 26 30 27
f 27 30 28
f 29 30 56
f 30 55 56
f 31 56 69
f 31 69 57
f 31 57 42
f 36 41 40
f 36 40 37
f 37 40 39
f 37 39 38
f 42 57 58
f 42 58 59
f 42 59 43
f 43 59 48
f 43 48 47
f 43 47 44
f 44 47 45
f 46 49 61
f 46 61 62
f 46 62 63
f 46 63 60
f 48 59 49
f 49 64 61
f 49 59 64
f 50 60 63
f 50 63 65
f 50 65 66
f 50 66 67
f 50 67 51
f 51 67 58
f 51 58 55
f 51 55 52
f 52 55 68
f 52 68 53
f 53 68 54
f 54 68 55
f 55 58 57
f 55 57 69
f 55 69 56
f 58 67 70
f 58 70 65
f 58 65 63
f 58 63 59
f 59 63 62
f 59 62 64
f 61 64 62
f 65 70 66
f 66 70 67

