# https://github.com/mikedh/trimesh
v 0.02404534 0.01911819 -0.03818689
v 0.02401709 0.01915544 -0.03818689
v 0.02040839 0.02585490 -0.00458929
v 0.02040839 0.02064819 -0.00458929
v 0.02040839 0.02041641 -0.00636684
v 0.02040839 0.02027569 -0.00827620
v 0.02018240 0.01986456 -0.01582178
v 0.01964804 0.01902851 -0.03423235
v 0.01964804 0.01886158 -0.03818689
v 0.02386408 0.01911819 -0.04031195
v 0.02349921 0.01911819 -0.04452214
v 0.02280007 0.02037916 -0.04031195
v 0.02303782 0.02031570 -0.03818689
v 0.02040839 0.02560105 -0.00784080
v 0.02040133 0.02586042 -0.00458929
v -0.00000329 0.03016623 -0.00458929
v -0.00000329 0.03016347 -0.00461725
v -0.00000329 0.02989996 -0.00827620
v 0.00000848 0.02955919 -0.01300966
v 0.02018240 0.02005495 -0.01300966
v 0.00001083 0.02843204 -0.02950288
v 0.01964804 0.01926029 -0.02950288
v 0.00000612 0.02748837 -0.04539693
v 0.01897244 0.01911819 -0.04539693
v 0.02342153 0.01911819 -0.04539693
v 0.02303782 0.01957346 -0.04539693
v 0.02239282 0.02025500 -0.04539693
v 0.02162071 0.02162497 -0.04031195
v 0.02199499 0.02141664 -0.03818689
v 0.01793902 0.02493331 -0.03818689
v 0.01769185 0.02494021 -0.04031195
v 0.02037543 0.02280317 -0.04031195
v 0.01957036 0.02304046 -0.04539693
v 0.01906424 0.02390963 -0.04031195
v 0.01429736 0.02969164 -0.00458929
v 0.01626767 0.02589215 -0.04031195
v -0.00000329 0.03295583 -0.00458929
v -0.00000329 0.03270888 -0.00827620
v 0.00000612 0.02781259 -0.03976072
v 0.00000612 0.02790778 -0.03818689
v 0.00000848 0.02936743 -0.01582178
v 0.00001083 0.02790502 -0.03818689
v 0.00000612 0.03024211 -0.04539693
v 0.02025067 0.02239618 -0.04539693
v 0.01810381 0.02420900 -0.04539693
v 0.01885238 0.02364474 -0.04539693
v 0.01287553 0.03018968 -0.00458929
v 0.01478935 0.02676269 -0.04031195
v 0.01395367 0.02681650 -0.04539693
v 0.01311800 0.02724694 -0.04539693
v 0.01226349 0.02762910 -0.04539693
v 0.01170323 0.02824993 -0.04031195
v 0.01010250 0.02886248 -0.04031195
v 0.01732462 0.02472912 -0.04539693
v 0.01476110 0.02633915 -0.04539693
v 0.00000377 0.03295583 -0.00458929
v 0.00094067 0.03021589 -0.04539693
v 0.00733653 0.03212806 -0.00458929
v 0.01139015 0.02796435 -0.04539693
v 0.00853473 0.02896320 -0.04539693
v 0.00764020 0.02924878 -0.04539693
v 0.00846881 0.02938398 -0.04031195
v 0.00708701 0.03215841 -0.00458929
v 0.00342651 0.03038559 -0.04031195
v 0.00171749 0.03053045 -0.04031195
v 0.00187521 0.03013588 -0.04539693
v 0.00728239 0.03188938 -0.00827620
v 0.00512376 0.03014691 -0.04031195
v 0.00673155 0.02948331 -0.04539693
v 0.00488365 0.02979787 -0.04539693
v 0.00581113 0.02966680 -0.04539693
f 1 2 3
f 1 3 4
f 1 4 5
f 1 5 6
f 1 6 7
f 1 7 8
f 1 8 9
f 1 9 10
f 1 10 2
f 2 10 11
f 2 11 12
f 2 12 13
f 2 13 3
f 3 13 14
f 3 14 15
f 3 15 35
f 3 35 47
f 3 47 58
f 3 58 63
f 3 63 56
f 3 56 37
f 3 37 16
f 3 16 4
f 4 16 5
f 5 16 17
f 5 17 6
f 6 18 19
f 6 19 20
f 6 20 7
f 6 17 18
f 7 20 21
f 7 21 22
f 7 22 8
f 8 22 23
f 8 23 9
f 9 23 24
f 9 24 25
f 9 25 11
f 9 11 10
f 11 25 26
f 11 26 12
f 12 26 27
f 12 27 28
f 12 28 13
f 13 29 14
f 13 28 29
f 14 30 31
f 14 31 15
f 14 29 28
f 14 28 32
f 14 32 33
f 14 33 34
f 14 34 30
f 15 31 36
f 15 36 35
f 16 37 38
f 16 38 18
f 16 18 17
f 18 38 43
f 18 43 23
f 18 23 39
f 18 39 40
f 18 40 21
f 18 21 41
f 18 41 19
f 19 41 21
f 19 21 20
f 21 40 42
f 21 42 22
f 22 42 39
f 22 39 23
f 23 43 57
f 23 57 66
f 23 66 70
f 23 70 71
f 23 71 69
f 23 69 61
f 23 61 60
f 23 60 59
f 23 59 51
f 23 51 50
f 23 50 49
f 23 49 55
f 23 55 54
f 23 54 45
f 23 45 46
f 23 46 33
f 23 33 44
f 23 44 27
f 23 27 26
f 23 26 25
f 23 25 24
f 27 44 28
f 28 44 33
f 28 33 32
f 30 34 45
f 30 45 31
f 31 45 36
f 33 46 34
f 34 46 45
f 35 36 48
f 35 48 49
f 35 49 50
f 35 50 51
f 35 51 52
f 35 52 53
f 35 53 47
f 36 45 54
f 36 54 55
f 36 55 49
f 36 49 48
f 37 56 43
f 37 43 38
f 39 42 40
f 43 56 57
f 47 53 58
f 51 59 52
f 52 59 53
f 53 59 60
f 53 60 61
f 53 61 62
f 53 62 58
f 56 63 64
f 56 64 65
f 56 65 57
f 57 65 64
f 57 64 66
f 58 67 68
f 58 68 64
f 58 64 63
f 58 62 67
f 61 69 62
f 62 69 67
f 64 68 70
f 64 70 66
f 67 69 71
f 67 71 68
f 68 71 70

