# https://github.com/mikedh/trimesh
v 0.02671403 0.02126509 0.01289606
v 0.02669573 0.02129227 0.01289606
v 0.02310211 0.02983675 0.05965452
v 0.02310211 0.02977390 0.05985710
v 0.02310211 0.02943586 0.06000270
v 0.02310211 0.02897211 0.06006601
v 0.02310211 0.02886849 0.06007234
v 0.02310211 0.02867993 0.06004702
v 0.02310211 0.02800385 0.05994573
v 0.02310211 0.02770488 0.05985710
v 0.02310211 0.02754180 0.05976847
v 0.02310211 0.02609451 0.05762236
v 0.02310211 0.02481538 0.05244386
v 0.02310211 0.02380465 0.04737931
v 0.02310211 0.02310479 0.04373284
v 0.02310211 0.02294171 0.04246670
v 0.02310211 0.02228431 0.03585746
v 0.02310211 0.02146214 0.02613986
v 0.02310211 0.02041404 0.01289606
v 0.02641326 0.02086929 0.00607158
v 0.02597386 0.02060429 -0.00148726
v 0.02651526 0.02114958 0.00951548
v 0.02180746 0.03073536 0.05985710
v 0.02583263 0.02060429 -0.00324719
v 0.02570709 0.02060429 -0.00458296
v 0.02558416 0.02073000 -0.00458296
v 0.02054682 0.02576835 -0.00458296
v 0.02004466 0.03190237 0.05985710
v 0.01622088 0.03368261 0.06002802
v 0.02303934 0.02889227 0.06007867
v 0.02276995 0.02855593 0.06002802
v 0.00000252 0.03652115 0.06002802
v -0.00000271 0.03611176 0.05985710
v -0.00000271 0.03573975 0.05957855
v -0.00000271 0.03528789 0.05762870
v -0.00000271 0.03466107 0.05244386
v -0.00000271 0.03465767 0.05241221
v -0.00000271 0.03375056 0.04246670
v -0.00000271 0.03244426 0.02613986
v -0.00000271 0.03144712 0.01289606
v 0.00000775 0.03096979 0.00659070
v -0.00000533 0.03042620 -0.00097447
v -0.00000533 0.03016630 -0.00458296
v 0.02077436 0.02060429 -0.00097447
v 0.02060174 0.02060429 -0.00229126
v 0.02043436 0.02060429 -0.00458296
v 0.02601309 0.02060429 -0.00097447
v 0.01927310 0.02657014 -0.00458296
v 0.01822954 0.03298615 0.05985710
v 0.01429853 0.02969066 -0.00458296
v 0.00832224 0.03644811 0.06002802
v 0.00822547 0.03602343 0.06007867
v 0.01602995 0.03329022 0.06007867
v 0.01635688 0.03396460 0.05985710
v 0.01442145 0.03481905 0.05985710
v 0.01244680 0.03556308 0.05985710
v -0.00000271 0.03694583 0.06007867
v -0.00000271 0.03651945 0.06002169
v -0.00000533 0.03319509 -0.00097447
v -0.00000533 0.03295387 -0.00458296
v 0.01638304 0.03402406 0.05957855
v 0.01288357 0.03019008 -0.00458296
v 0.00000252 0.03738409 0.06002802
v -0.00000271 0.03695262 0.06007867
v 0.01043552 0.03621539 0.05985710
v 0.00839286 0.03675218 0.05985710
v 0.00631881 0.03715477 0.05985710
v 0.00422123 0.03744185 0.05985710
v 0.00733622 0.03212830 -0.00458296
v -0.00000271 0.03738579 0.06002169
v -0.00000271 0.03769835 0.05985710
v -0.00000271 0.03776460 0.05957855
v 0.00000252 0.03295387 -0.00458296
v 0.00211580 0.03762871 0.05985710
v 0.00000252 0.03769835 0.05985710
v 0.00840594 0.03681843 0.05957855
v 0.00050207 0.03289951 -0.00458296
v 0.00000252 0.03776460 0.05957855
f 1 2 3
f 1 3 4
f 1 4 5
f 1 5 6
f 1 6 7
f 1 7 8
f 1 8 9
f 1 9 10
f 1 10 11
f 1 11 12
f 1 12 13
f 1 13 14
f 1 14 15
f 1 15 16
f 1 16 17
f 1 17 18
f 1 18 19
f 1 19 20
f 1 20 21
f 1 21 22
f 1 22 2
f 2 22 3
f 3 23 4
f 3 22 24
f 3 24 25
f 3 25 26
f 3 26 27
f 3 27 23
f 4 23 5
f 5 23 28
f 5 28 29
f 5 29 6
f 6 29 30
f 6 30 7
f 7 30 8
f 8 30 31
f 8 31 9
f 9 32 10
f 9 31 32
f 10 32 33
f 10 33 11
f 11 33 34
f 11 34 12
f 12 34 13
f 13 34 35
f 13 35 14
f 14 35 15
f 15 35 16
f 16 35 36
f 16 36 37
f 16 37 17
f 17 38 18
f 17 37 38
f 18 38 39
f 18 39 19
f 19 39 40
f 19 40 41
f 19 41 42
f 19 42 43
f 19 43 44
f 19 44 45
f 19 45 46
f 19 46 25
f 19 25 24
f 19 24 21
f 19 21 47
f 19 47 20
f 20 47 21
f 21 24 22
f 23 27 28
f 25 46 43
f 25 43 60
f 25 60 73
f 25 73 77
f 25 77 69
f 25 69 62
f 25 62 50
f 25 50 48
f 25 48 27
f 25 27 26
f 27 48 28
f 28 49 29
f 28 48 50
f 28 50 49
f 29 51 52
f 29 52 53
f 29 53 30
f 29 49 54
f 29 54 55
f 29 55 56
f 29 56 51
f 30 53 52
f 30 52 64
f 30 64 57
f 30 57 31
f 31 57 32
f 32 58 33
f 32 57 58
f 33 58 42
f 33 42 34
f 34 42 35
f 35 42 36
f 36 42 37
f 37 42 38
f 38 42 39
f 39 42 40
f 40 42 41
f 42 59 60
f 42 60 43
f 42 58 57
f 42 57 64
f 42 64 59
f 43 46 45
f 43 45 44
f 49 50 61
f 49 61 54
f 50 62 56
f 50 56 55
f 50 55 61
f 51 63 64
f 51 64 52
f 51 56 65
f 51 65 66
f 51 66 67
f 51 67 68
f 51 68 63
f 54 61 55
f 56 62 69
f 56 69 65
f 59 64 70
f 59 70 71
f 59 71 72
f 59 72 60
f 60 72 78
f 60 78 73
f 63 70 64
f 63 68 74
f 63 74 75
f 63 75 71
f 63 71 70
f 65 69 76
f 65 76 66
f 66 76 67
f 67 76 69
f 67 69 68
f 68 69 77
f 68 77 73
f 68 73 74
f 71 75 78
f 71 78 72
f 73 78 74
f 74 78 75

