# https://github.com/mikedh/trimesh
v -0.00440058 -0.03602492 0.06312766
v -0.00474136 -0.03600128 0.06312766
v -0.00440058 -0.03342369 0.03712924
v -0.00440058 -0.03340978 0.06312766
v -0.00616009 -0.03572045 0.06312766
v -0.00440058 -0.02995770 0.00306437
v -0.01674617 -0.02923475 0.06312766
v -0.00440058 -0.02845758 0.01591072
v -0.01674617 -0.02182451 0.00309377
v -0.00939875 -0.03507535 0.06312766
v -0.00761870 -0.02931816 0.00306437
v -0.00440058 -0.02711038 0.00306437
v -0.01674617 -0.03214323 0.06312766
v -0.01674617 -0.02182173 0.00306437
v -0.01389542 -0.03354881 0.06312766
v -0.01144588 -0.02805161 0.00306437
v -0.01052383 -0.02836443 0.00306437
v -0.00784468 -0.02927229 0.00306437
v -0.01674617 -0.02900396 0.03491861
v -0.01515222 -0.02624702 0.00306437
v -0.01159694 -0.02800017 0.00306437
v -0.01674617 -0.02518345 0.00306437
f 1 2 3
f 1 3 6
f 1 6 12
f 1 12 8
f 1 8 4
f 1 4 7
f 1 7 13
f 1 13 15
f 1 15 10
f 1 10 5
f 1 5 2
f 2 5 3
f 3 5 6
f 4 8 9
f 4 9 7
f 5 10 11
f 5 11 6
f 6 11 18
f 6 18 17
f 6 17 16
f 6 16 21
f 6 21 20
f 6 20 22
f 6 22 14
f 6 14 12
f 7 9 14
f 7 14 22
f 7 22 19
f 7 19 13
f 8 12 9
f 9 12 14
f 10 15 16
f 10 16 17
f 10 17 18
f 10 18 11
f 13 19 20
f 13 20 21
f 13 21 15
f 15 21 16
f 19 22 20

