# https://github.com/mikedh/trimesh
v -0.01302402 -0.03772774 0.09997134
v -0.01302402 -0.03509199 0.09997134
v -0.01530729 -0.03695104 0.09997134
v -0.01389721 -0.03354745 0.06313354
v -0.01302402 -0.03384425 0.06313354
v -0.02487058 -0.02795849 0.09997134
v -0.01302402 -0.03107118 0.06313354
v -0.02487058 -0.02264270 0.06313354
v -0.01999791 -0.03463719 0.09997134
v -0.01815761 -0.03144772 0.06313354
v -0.02487058 -0.03127200 0.09997134
v -0.02487058 -0.02638590 0.06313354
v -0.02051045 -0.03429610 0.09997134
v -0.02051045 -0.02987661 0.06313354
v -0.02434760 -0.03172975 0.09997134
v -0.02210607 -0.02881049 0.06313354
f 1 2 6
f 1 6 11
f 1 11 15
f 1 15 13
f 1 13 9
f 1 9 3
f 1 3 4
f 1 4 5
f 1 5 7
f 1 7 2
f 2 7 8
f 2 8 6
f 3 9 10
f 3 10 4
f 4 10 14
f 4 14 16
f 4 16 12
f 4 12 8
f 4 8 7
f 4 7 5
f 6 8 12
f 6 12 11
f 9 13 10
f 10 13 14
f 11 12 16
f 11 16 15
f 13 15 16
f 13 16 14

