# https://github.com/mikedh/trimesh
v -0.01674691 0.02182112 0.00306437
v -0.01674691 0.02518187 0.00306437
v -0.00911491 0.02589208 0.00306437
v -0.00911491 0.03099640 0.05006122
v -0.00911491 0.03241681 0.06312766
v -0.01674691 0.02182503 0.00309966
v -0.01674691 0.02672607 0.01593087
v -0.01528565 0.02615791 0.00306437
v -0.00911491 0.02884104 0.00306437
v -0.00911491 0.03513251 0.06312766
v -0.01674691 0.02923458 0.06312766
v -0.01674691 0.02705706 0.01868882
v -0.01674691 0.02900653 0.03493661
v -0.01515268 0.02624652 0.00306437
v -0.01159815 0.02799922 0.00306437
v -0.00911491 0.03004252 0.01445488
v -0.00939954 0.03507517 0.06312766
v -0.00911491 0.03401573 0.05215467
v -0.01674691 0.03214315 0.06312766
v -0.01674691 0.03067453 0.04992597
v -0.01180508 0.02789758 0.00306437
v -0.01174158 0.02792885 0.00306437
v -0.01389611 0.03354791 0.06312766
v -0.01252675 0.03401313 0.06312766
f 1 2 8
f 1 8 14
f 1 14 21
f 1 21 22
f 1 22 15
f 1 15 9
f 1 9 3
f 1 3 4
f 1 4 5
f 1 5 6
f 1 6 11
f 1 11 19
f 1 19 20
f 1 20 13
f 1 13 12
f 1 12 7
f 1 7 2
f 2 7 8
f 3 9 16
f 3 16 18
f 3 18 10
f 3 10 5
f 3 5 4
f 5 10 17
f 5 17 24
f 5 24 23
f 5 23 19
f 5 19 11
f 5 11 6
f 7 12 8
f 8 12 13
f 8 13 14
f 9 15 16
f 10 18 17
f 13 20 14
f 14 20 21
f 15 22 23
f 15 23 24
f 15 24 18
f 15 18 16
f 17 18 24
f 19 23 21
f 19 21 20
f 21 23 22

