# https://github.com/mikedh/trimesh
v 0.03999704 -0.00000698 0.09997134
v 0.03631147 -0.00000698 0.06312848
v 0.03749626 -0.00000698 0.09997134
v 0.03965458 -0.00521998 0.09997134
v 0.03600215 -0.00473969 0.06311899
v 0.03005884 -0.00379713 0.00306438
v 0.03030602 -0.00001362 0.00306438
v 0.03369884 -0.00000698 0.06312848
v 0.03621757 -0.00970400 0.09996185
v 0.03621895 -0.00970400 0.09997134
v 0.03370437 -0.00000698 0.06318540
v 0.02751940 -0.00001362 0.00319718
v 0.02588996 -0.00911929 0.00306438
v 0.03221854 -0.00970400 0.06312848
v 0.03876253 -0.00970400 0.09997134
v 0.03513081 -0.00911929 0.06311899
v 0.02930626 -0.00768600 0.00306438
v 0.03004641 -0.00395660 0.00306438
v 0.02750698 -0.00001362 0.00306438
v 0.02884091 -0.00911929 0.00306438
v 0.03497201 -0.00970400 0.06312848
v 0.03621757 -0.00970400 0.07495728
v 0.03403301 -0.00911929 0.05233364
v 0.03507558 -0.00939741 0.06312848
v 0.02927450 -0.00784262 0.00306438
f 1 2 8
f 1 8 11
f 1 11 3
f 1 3 10
f 1 10 15
f 1 15 4
f 1 4 5
f 1 5 6
f 1 6 7
f 1 7 2
f 2 7 19
f 2 19 8
f 3 9 10
f 3 11 12
f 3 12 13
f 3 13 14
f 3 14 9
f 4 15 5
f 5 16 17
f 5 17 18
f 5 18 6
f 5 15 16
f 6 18 17
f 6 17 25
f 6 25 20
f 6 20 13
f 6 13 19
f 6 19 7
f 8 19 12
f 8 12 11
f 9 14 21
f 9 21 22
f 9 22 15
f 9 15 10
f 12 19 13
f 13 20 21
f 13 21 14
f 15 22 16
f 16 23 17
f 16 22 24
f 16 24 23
f 17 23 25
f 20 25 23
f 20 23 21
f 21 23 22
f 22 23 24

