# https://github.com/mikedh/trimesh
v 0.03895755 0.00872192 0.09997134
v 0.03863301 0.01035286 0.09997134
v 0.03641408 0.00872192 0.09997134
v 0.03539216 0.00779916 0.06311899
v 0.03511895 0.00779916 0.06042503
v 0.03535745 0.00798053 0.06311899
v 0.03672352 0.01458599 0.09548455
v 0.03719599 0.01458599 0.09997134
v 0.03507517 0.00939954 0.06312848
v 0.02920180 0.00806290 0.00306438
v 0.03452572 0.01458599 0.09997134
v 0.02353824 0.01417610 0.00306438
v 0.03273398 0.00779916 0.06311899
v 0.02928331 0.00779916 0.00306438
v 0.02927426 0.00784500 0.00306438
v 0.03619068 0.01458599 0.09042862
v 0.03354909 0.01389641 0.06312848
v 0.02800026 0.01159716 0.00306438
v 0.03030070 0.01458599 0.06312848
v 0.02672777 0.01417610 0.00306438
v 0.02633983 0.00779916 0.00306438
v 0.03521405 0.01458599 0.08117048
v 0.03341022 0.01417610 0.06311899
v 0.02922444 0.01417610 0.02549830
v 0.03320795 0.01458599 0.06312848
v 0.03367287 0.01458599 0.06730223
f 1 2 8
f 1 8 11
f 1 11 3
f 1 3 13
f 1 13 4
f 1 4 5
f 1 5 6
f 1 6 2
f 2 7 8
f 2 6 9
f 2 9 10
f 2 10 7
f 3 11 12
f 3 12 13
f 4 13 21
f 4 21 14
f 4 14 5
f 5 14 6
f 6 14 15
f 6 15 9
f 7 16 22
f 7 22 26
f 7 26 25
f 7 25 19
f 7 19 11
f 7 11 8
f 7 10 17
f 7 17 16
f 9 15 10
f 10 15 14
f 10 14 21
f 10 21 12
f 10 12 20
f 10 20 18
f 10 18 17
f 11 19 12
f 12 19 25
f 12 25 20
f 12 21 13
f 16 17 22
f 17 18 23
f 17 23 22
f 18 20 24
f 18 24 23
f 20 25 26
f 20 26 24
f 22 23 26
f 23 24 26

