# https://github.com/mikedh/trimesh
v 0.00509192 0.03415170 0.04551475
v 0.00509192 0.03511295 0.04549222
v 0.00488466 0.03511295 0.04549673
v 0.00392125 0.03511295 0.04550574
v 0.00103557 0.03511295 0.04551926
v -0.01050486 0.03318866 0.04552827
v -0.01723734 0.03030313 0.04552377
v -0.01817570 0.02936685 0.04551926
v -0.01817570 0.02934188 0.04551475
v -0.01817570 0.02835566 0.04510013
v 0.00509192 0.03329032 0.04504605
v 0.00103557 0.03598859 0.04506859
v 0.00509192 0.03582452 0.04504155
v 0.00488466 0.03583879 0.04504605
v 0.00392125 0.03587624 0.04505507
v 0.00007672 0.03601177 0.04506859
v -0.00088669 0.03511295 0.04551926
v -0.00761690 0.03415170 0.04552377
v -0.01146371 0.03318866 0.04552377
v -0.01627393 0.03126616 0.04551475
v -0.01817570 0.03030313 0.04549673
v -0.01817570 0.02834318 0.04509112
v -0.01817570 0.02788663 0.04447820
v 0.00509192 0.03285517 0.04414020
v 0.00007672 0.03633279 0.04414020
v 0.00509192 0.03595471 0.04414020
v 0.00488466 0.03598324 0.04414020
v 0.00103557 0.03628642 0.04414020
v -0.00088669 0.03599572 0.04506859
v -0.00473350 0.03511295 0.04550123
v -0.00858031 0.03415170 0.04551475
v -0.00953917 0.03415170 0.04548771
v -0.01242940 0.03318866 0.04548321
v -0.01435167 0.03222741 0.04551025
v -0.01531052 0.03222741 0.04536603
v -0.01817570 0.03032631 0.04549222
v -0.01817570 0.01899997 0.02004262
v 0.00509192 0.01814930 0.00753189
v 0.00079187 0.03561051 0.04068352
v 0.00007672 0.03552848 0.04013820
v -0.00069310 0.03561764 0.04066099
v -0.00088669 0.03629712 0.04414020
v 0.00509192 0.03573000 0.04297746
v 0.00488466 0.03540720 0.04125588
v 0.00103557 0.03590299 0.04221581
v -0.00473350 0.03584235 0.04505056
v -0.00569691 0.03511295 0.04546969
v -0.01050486 0.03415170 0.04537054
v -0.01242940 0.03393412 0.04503253
v -0.01531052 0.03285695 0.04491536
v -0.01622155 0.03225595 0.04504155
v -0.01723734 0.03126616 0.04531195
v -0.01817570 0.03119839 0.04499197
v -0.01817570 0.01899997 0.01248931
v -0.00519585 0.01811363 0.00753189
v 0.00368666 0.01899997 -0.00048111
v 0.00464552 0.01899997 -0.00044505
v 0.00509192 0.01899997 -0.00039097
v 0.00108112 0.03551956 0.04033650
v 0.00103557 0.03529663 0.03933150
v 0.00007672 0.03534122 0.03933150
v -0.00088669 0.03530912 0.03933150
v -0.00096185 0.03552848 0.04031848
v -0.00088669 0.03591369 0.04221581
v -0.00473350 0.03599572 0.04414020
v -0.00569691 0.03578707 0.04501901
v 0.00509192 0.03563370 0.04249974
v 0.00488466 0.03521281 0.04029143
v 0.00200126 0.03543930 0.04029143
v -0.00665121 0.03511295 0.04532998
v -0.00953917 0.03486505 0.04503704
v -0.01050486 0.03474735 0.04491986
v -0.01109475 0.03467066 0.04475311
v -0.01317417 0.03378075 0.04487480
v -0.01586853 0.03274103 0.04473058
v -0.01723734 0.03190818 0.04486578
v -0.01817570 0.03122336 0.04497394
v -0.01817570 0.01945296 0.01218285
v -0.01817342 0.01899997 0.01150684
v -0.01501444 0.01899997 0.00736965
v -0.01438583 0.01899997 0.00656294
v -0.01344975 0.01899997 0.00544977
v -0.01249773 0.01899997 0.00441773
v -0.01025433 0.01899997 0.00206521
v -0.00955284 0.01899997 0.00142525
v -0.00881946 0.01899997 0.00082134
v -0.00863725 0.01899997 0.00069065
v -0.00751441 0.01899997 0.00005520
v -0.00665121 0.01899997 -0.00021070
v -0.00569691 0.01899997 -0.00036844
v -0.00377237 0.01899997 -0.00045407
v -0.00280896 0.01899997 -0.00048561
v -0.00088669 0.01899997 -0.00050815
v 0.00007672 0.01899997 -0.00051265
v 0.00079871 0.01899997 -0.00051265
v 0.00176212 0.01899997 -0.00050815
v 0.00272097 0.01899997 -0.00049913
v -0.01792061 0.01899997 0.01116884
v -0.01733300 0.01899997 0.01038917
v -0.01667251 0.01899997 0.00952387
v 0.00007672 0.01972760 -0.00046759
v 0.00103557 0.01972760 -0.00044505
v 0.00200126 0.01972760 -0.00040900
v 0.00296239 0.01972760 -0.00034590
v 0.00392125 0.01972760 -0.00021070
v 0.00509192 0.01952073 -0.00012507
v 0.00488466 0.03499524 0.03933150
v 0.00103557 0.03481690 0.03740712
v 0.00007672 0.03486148 0.03740712
v -0.00184555 0.03523422 0.03933150
v -0.00184555 0.03545357 0.04029143
v -0.00088669 0.03073649 0.02104762
v -0.00184555 0.03557306 0.04088632
v -0.00473350 0.03541790 0.04125588
v -0.00536667 0.03561943 0.04257185
v -0.00569691 0.03587802 0.04414020
v -0.00665121 0.03569076 0.04487930
v 0.00509192 0.03518250 0.04029143
v -0.00724110 0.03562121 0.04471706
v -0.01109475 0.03467066 0.04443764
v -0.01586853 0.03274103 0.04447820
v -0.01773158 0.03175660 0.04465396
v -0.01817570 0.03139813 0.04426639
v -0.01817570 0.01971155 0.01256593
v -0.01764275 0.01917831 0.01106067
v -0.01472974 0.01916048 0.00723895
v -0.01382783 0.01921755 0.00618888
v -0.01318783 0.01941729 0.00585538
v -0.01250684 0.01911054 0.00461603
v -0.01004251 0.01925500 0.00228153
v -0.01577515 0.02308038 0.01482831
v -0.01341331 0.02477817 0.01525645
v -0.00901761 0.01922646 0.00137117
v -0.00865092 0.01908201 0.00082585
v -0.00795626 0.01918545 0.00048334
v -0.00731626 0.01931920 0.00024899
v -0.00665121 0.01944582 0.00008224
v -0.00569691 0.01959384 -0.00004846
v -0.00377237 0.01972760 -0.00024225
v -0.00280896 0.01972760 -0.00036393
v -0.00184555 0.01972760 -0.00041351
v -0.00088669 0.01972760 -0.00045407
v -0.01728517 0.01903921 0.01038466
v -0.01586397 0.01930672 0.00893800
v 0.00007672 0.02047662 -0.00001691
v 0.00103557 0.02045344 0.00000112
v 0.00200126 0.02041421 0.00004168
v 0.00296239 0.02036962 0.00010026
v 0.00509192 0.01972938 -0.00000790
v 0.00509192 0.03491677 0.03913771
v 0.00509192 0.03466353 0.03806961
v 0.00392125 0.03070439 0.02186785
v 0.00103557 0.03081675 0.02141718
v 0.00007672 0.03083993 0.02132704
v -0.00473350 0.03500416 0.03933150
v -0.00280896 0.03537689 0.04029143
v -0.00377237 0.03070974 0.02184532
v -0.00510702 0.03366305 0.03407212
v -0.00510702 0.03462429 0.03792088
v -0.00088669 0.03070083 0.02090792
v -0.00377237 0.03051000 0.02104762
v -0.00473350 0.03522173 0.04029143
v -0.00569691 0.03509689 0.04029143
v -0.00569691 0.03529663 0.04125588
v -0.00600438 0.03556414 0.04283775
v -0.00632780 0.03563191 0.04347770
v -0.00664894 0.03569433 0.04416273
v -0.00711356 0.03563726 0.04442863
v -0.00724110 0.03562121 0.04450074
v -0.01143410 0.03447984 0.04412668
v -0.01242940 0.03409463 0.04414470
v -0.01053219 0.03475448 0.04412668
v -0.01087155 0.03460468 0.04379318
v -0.01105375 0.03369693 0.03970556
v -0.01121546 0.03376113 0.04029594
v -0.01773158 0.03175660 0.04458186
v -0.01472974 0.03266613 0.04193189
v -0.01531052 0.03227735 0.04125588
v -0.01580248 0.03175303 0.03979118
v -0.01622155 0.03250384 0.04415372
v -0.01727151 0.03195455 0.04421230
v -0.01817570 0.03139992 0.04420780
v -0.01817570 0.02257390 0.01693296
v -0.01598013 0.02036962 0.01070915
v -0.01484818 0.02022160 0.00901010
v -0.01672034 0.02306790 0.01580628
v -0.01011312 0.02025548 0.00413831
v -0.01392804 0.02697353 0.01956040
v -0.01680688 0.02408622 0.01763602
v -0.01659052 0.02491549 0.01882580
v -0.01586169 0.02409692 0.01665805
v -0.01414441 0.02614782 0.01836611
v -0.01090115 0.02209416 0.00813579
v -0.01284392 0.02595343 0.01677974
v -0.00949362 0.02135584 0.00567962
v -0.00762829 0.01950646 0.00082585
v -0.00737548 0.02030542 0.00211478
v -0.00711356 0.02020555 0.00174072
v -0.00692452 0.02013243 0.00147482
v -0.00662161 0.01993804 0.00091148
v -0.00569691 0.02007179 0.00063657
v -0.00500226 0.02015740 0.00047432
v -0.00436226 0.02023230 0.00032560
v -0.00377237 0.02030185 0.00020843
v -0.00280896 0.02038032 0.00008674
v -0.00184555 0.02042134 0.00003266
v -0.00088669 0.02045879 -0.00000339
v 0.00007672 0.02095636 0.00079881
v 0.00106746 0.02097419 0.00093401
v 0.00200126 0.02086362 0.00085740
v 0.00296239 0.02077623 0.00085740
v 0.00392125 0.02028759 0.00023997
v 0.00446331 0.02022160 0.00035264
v 0.00509192 0.02014491 0.00049235
v 0.00509192 0.03458684 0.03776315
v 0.00448836 0.03079713 0.02245373
v 0.00392125 0.03050109 0.02106114
v 0.00297834 0.03057064 0.02104312
v 0.00154803 0.03068299 0.02104312
v 0.00103557 0.03069369 0.02093496
v 0.00076910 0.03073649 0.02104762
v 0.00007672 0.03071509 0.02084482
v -0.00569691 0.03487754 0.03933150
v -0.00569691 0.03457436 0.03811918
v -0.00509336 0.03270001 0.03023237
v -0.00088669 0.03047255 0.02009670
v -0.00377237 0.03024428 0.02009670
v -0.00473350 0.03040657 0.02106114
v -0.00438048 0.03080248 0.02243570
v -0.00665121 0.03489894 0.04029143
v -0.00711356 0.03518428 0.04221581
v -0.00711356 0.03559089 0.04419428
v -0.01186229 0.03363808 0.04093590
v -0.00953917 0.03440494 0.04125588
v -0.01050486 0.03417131 0.04125588
v -0.01050486 0.03396979 0.04029594
v -0.01141133 0.03345795 0.03936304
v -0.01375039 0.03266078 0.04003906
v -0.01169375 0.03356674 0.04029594
v -0.01046386 0.03376470 0.03936304
v -0.01075995 0.03361133 0.03907011
v -0.01001290 0.03078286 0.02731200
v -0.01016778 0.02988225 0.02420235
v -0.01392121 0.03273033 0.04067901
v -0.01252050 0.03296574 0.03924136
v -0.01348164 0.02815592 0.02288638
v -0.01386199 0.02789555 0.02251232
v -0.01573415 0.03075611 0.03605960
v -0.01590269 0.03084707 0.03669956
v -0.01618511 0.03143737 0.03941712
v -0.01639465 0.03154794 0.04029594
v -0.01659962 0.03166208 0.04125588
v -0.01672034 0.03172806 0.04181922
v -0.01684788 0.03180296 0.04245918
v -0.01698681 0.03188857 0.04318026
v -0.01723734 0.03128400 0.04125588
v -0.01817570 0.03070796 0.04125588
v -0.01817570 0.02349413 0.01833907
v -0.01773158 0.02406660 0.01863651
v -0.01722368 0.02470327 0.01914578
v -0.01191012 0.02788128 0.01966405
v -0.01338826 0.02709480 0.01933055
v -0.01508960 0.02613712 0.01934407
v -0.01689571 0.02510275 0.01947026
v -0.01573415 0.02594095 0.01971363
v -0.01457487 0.02678271 0.02010121
v -0.01409202 0.02706983 0.02010121
v -0.01338826 0.02740333 0.02010121
v -0.01290541 0.02693965 0.01865905
v -0.01252050 0.02681303 0.01812275
v -0.00743698 0.02129164 0.00398959
v -0.01146371 0.02622807 0.01622541
v -0.00908821 0.02695213 0.01574769
v -0.00711356 0.02117393 0.00354342
v -0.00703612 0.02210843 0.00523345
v -0.00628680 0.02024300 0.00126751
v -0.00569691 0.02031969 0.00111428
v -0.00470617 0.02040529 0.00081684
v -0.00377237 0.02064605 0.00085740
v -0.00280896 0.02079764 0.00085740
v -0.00184555 0.02087789 0.00085740
v -0.00094819 0.02098311 0.00092500
v 0.00076910 0.02118463 0.00130357
v -0.00067260 0.02118998 0.00129455
v 0.00007672 0.02696997 0.01282281
v 0.00296239 0.02206028 0.00339920
v 0.00296239 0.02133979 0.00196606
v 0.00392125 0.02061038 0.00085740
v 0.00392125 0.02198359 0.00354793
v 0.00392125 0.02125775 0.00212379
v 0.00449747 0.02118998 0.00225449
v 0.00509192 0.02599267 0.01189442
v 0.00509192 0.03362381 0.03393241
v 0.00509192 0.03076503 0.02268808
v 0.00488466 0.03037982 0.02106114
v 0.00392125 0.03023358 0.02009670
v 0.00103557 0.03046007 0.02009670
v 0.00007672 0.03050287 0.02009670
v -0.00622303 0.03464391 0.03880421
v -0.00658744 0.03470455 0.03938558
v -0.00502275 0.03075789 0.02259795
v -0.00544410 0.03084172 0.02323790
v -0.00551471 0.03277848 0.03087233
v 0.00007672 0.03011587 0.01913676
v -0.00094819 0.03003562 0.01904212
v -0.00184555 0.03003562 0.01918634
v -0.00377237 0.02996072 0.01933957
v -0.00473350 0.02990543 0.01945224
v -0.00473350 0.03013371 0.02009670
v -0.00569691 0.03021574 0.02104312
v -0.00567414 0.02995002 0.02008769
v -0.00720466 0.03464926 0.03975062
v -0.00784466 0.03457257 0.04010215
v -0.00953917 0.03420341 0.04029594
v -0.01050486 0.02941322 0.02297651
v -0.01146144 0.03159966 0.03254884
v -0.00858031 0.03421233 0.03933150
v -0.01011995 0.03369336 0.03875463
v -0.00945262 0.03156042 0.02979973
v -0.00900166 0.02980913 0.02255288
v -0.00953917 0.02925093 0.02106565
v -0.00993547 0.02979665 0.02355788
v -0.01010628 0.02889246 0.02047076
v -0.01030215 0.02897628 0.02106565
v -0.01280292 0.02785453 0.02074117
v -0.01335637 0.02770651 0.02106565
v -0.01439950 0.02718932 0.02106565
v -0.01476163 0.02882648 0.02742016
v -0.01492789 0.02891743 0.02806012
v -0.01581387 0.02983410 0.03303557
v -0.01624433 0.03055459 0.03640662
v -0.01684788 0.03084172 0.03865548
v -0.01700959 0.03093980 0.03933150
v -0.01728745 0.03102897 0.04031397
v -0.01764275 0.03074006 0.04000751
v -0.01817570 0.03048682 0.04031397
v -0.01817570 0.02401131 0.01913676
v -0.01792517 0.02421819 0.01913676
v -0.01245901 0.02777428 0.02002910
v -0.01216293 0.02798828 0.02030401
v -0.01045703 0.02863744 0.02013275
v -0.00982614 0.02878903 0.01982630
v -0.01126556 0.02801682 0.01939815
v -0.01252050 0.02730524 0.01904212
v -0.01754026 0.02490301 0.01992544
v -0.01722368 0.02519192 0.02018684
v -0.01772247 0.02502071 0.02056991
v -0.01591636 0.02605508 0.02035809
v -0.01475252 0.02689328 0.02074567
v -0.01021105 0.02797580 0.01851033
v -0.00914971 0.02793300 0.01762700
v -0.00639840 0.02218690 0.00508022
v -0.00858031 0.02800790 0.01747828
v -0.00781505 0.02591063 0.01301660
v -0.00754174 0.02570554 0.01248481
v -0.00439642 0.02120603 0.00223196
v -0.00456496 0.02605152 0.01177274
v -0.00377237 0.02102948 0.00161002
v -0.00377237 0.02199964 0.00352089
v -0.00377237 0.02587139 0.01116884
v -0.00280896 0.02110438 0.00146581
v -0.00280896 0.02399348 0.00723445
v 0.00076910 0.02599445 0.01092096
v -0.00067260 0.02599802 0.01091195
v -0.00067260 0.02984123 0.01861398
v 0.00007672 0.02984836 0.01859595
v 0.00076910 0.02983766 0.01861849
v 0.00296239 0.02422532 0.00773019
v 0.00392125 0.02803108 0.01549982
v 0.00469790 0.02701098 0.01370613
v 0.00466601 0.02604260 0.01179527
v 0.00509192 0.02669176 0.01325997
v 0.00509192 0.03073471 0.02257090
v 0.00509192 0.03033345 0.02104762
v 0.00509192 0.03006950 0.02010121
v 0.00488466 0.03010874 0.02009670
v 0.00488466 0.02989295 0.01947477
v 0.00392125 0.02995180 0.01934858
v 0.00200126 0.03002849 0.01919986
v 0.00106746 0.03002849 0.01904663
v -0.00858031 0.03396622 0.03836705
v -0.00703612 0.02979843 0.02066906
v -0.00858031 0.03026746 0.02393645
v -0.00280896 0.02975919 0.01878073
v -0.00377237 0.02972174 0.01885735
v -0.00534389 0.02985193 0.01955589
v -0.00377237 0.02683621 0.01308420
v -0.00639840 0.02987511 0.02040316
v -0.00598389 0.02977346 0.01975869
v -0.00858031 0.02952735 0.02106565
v -0.00952095 0.02899234 0.02013275
v -0.01483907 0.02790446 0.02439614
v -0.01817570 0.03018364 0.03917827
v -0.01535152 0.02718575 0.02299454
v -0.01817570 0.03021039 0.03927291
v -0.01817570 0.02452136 0.02016881
v -0.01817342 0.02451780 0.02015529
v -0.00918615 0.02890138 0.01953336
v -0.00952095 0.02859999 0.01918634
v -0.01051852 0.02816484 0.01910522
v -0.01817570 0.02483168 0.02106565
v -0.01817570 0.02512950 0.02202108
v -0.01817570 0.02530071 0.02257541
v -0.01817570 0.02600872 0.02490089
v -0.01817570 0.02621559 0.02559493
v -0.01729884 0.02626374 0.02391392
v -0.01526269 0.02667570 0.02106565
v -0.00711356 0.02672921 0.01428300
v -0.00858031 0.02873552 0.01889791
v 0.00200126 0.02952022 0.01817232
v 0.00509192 0.02986976 0.01951082
v 0.00509192 0.02890138 0.01760447
v 0.00509192 0.03001065 0.01990742
v -0.00858031 0.02925271 0.02010121
v -0.00858031 0.02898163 0.01938013
v -0.00711356 0.02960582 0.02009219
v -0.01817570 0.02714831 0.02878120
v -0.01621472 0.02665787 0.02299454
f 1 2 3
f 1 3 4
f 1 4 5
f 1 5 6
f 1 6 7
f 1 7 8
f 1 8 9
f 1 9 10
f 1 10 11
f 1 11 24
f 1 24 38
f 1 38 58
f 1 58 106
f 1 106 149
f 1 149 214
f 1 214 292
f 1 292 372
f 1 372 412
f 1 412 411
f 1 411 413
f 1 413 375
f 1 375 374
f 1 374 373
f 1 373 294
f 1 294 293
f 1 293 215
f 1 215 151
f 1 151 150
f 1 150 118
f 1 118 67
f 1 67 43
f 1 43 26
f 1 26 13
f 1 13 2
f 2 12 3
f 2 13 14
f 2 14 15
f 2 15 12
f 3 12 16
f 3 16 4
f 4 16 5
f 5 17 18
f 5 18 6
f 5 16 17
f 6 18 19
f 6 19 7
f 7 19 20
f 7 20 21
f 7 21 8
f 8 21 36
f 8 36 53
f 8 53 77
f 8 77 123
f 8 123 182
f 8 182 257
f 8 257 336
f 8 336 395
f 8 395 393
f 8 393 417
f 8 417 405
f 8 405 404
f 8 404 403
f 8 403 402
f 8 402 401
f 8 401 396
f 8 396 337
f 8 337 258
f 8 258 183
f 8 183 124
f 8 124 78
f 8 78 54
f 8 54 37
f 8 37 23
f 8 23 22
f 8 22 10
f 8 10 9
f 10 22 11
f 11 22 23
f 11 23 24
f 12 15 25
f 12 25 16
f 13 26 27
f 13 27 28
f 13 28 14
f 14 28 25
f 14 25 15
f 16 29 30
f 16 30 17
f 16 25 29
f 17 30 18
f 18 30 31
f 18 31 19
f 19 31 32
f 19 32 33
f 19 33 34
f 19 34 20
f 20 34 35
f 20 35 36
f 20 36 21
f 23 37 38
f 23 38 24
f 25 28 39
f 25 39 40
f 25 40 41
f 25 41 42
f 25 42 29
f 26 43 27
f 27 43 44
f 27 44 45
f 27 45 28
f 28 45 39
f 29 46 30
f 29 42 46
f 30 47 32
f 30 32 31
f 30 46 47
f 32 47 48
f 32 48 33
f 33 48 35
f 33 35 34
f 35 48 49
f 35 49 50
f 35 50 51
f 35 51 52
f 35 52 36
f 36 52 53
f 37 54 55
f 37 55 38
f 38 55 56
f 38 56 57
f 38 57 58
f 39 45 59
f 39 59 40
f 40 60 61
f 40 61 62
f 40 62 41
f 40 59 60
f 41 63 64
f 41 64 42
f 41 62 63
f 42 64 65
f 42 65 66
f 42 66 46
f 43 67 68
f 43 68 44
f 44 68 69
f 44 69 45
f 45 69 59
f 46 66 47
f 47 70 48
f 47 66 70
f 48 70 71
f 48 71 72
f 48 72 49
f 49 72 73
f 49 73 74
f 49 74 50
f 50 74 75
f 50 75 76
f 50 76 51
f 51 76 77
f 51 77 53
f 51 53 52
f 54 78 79
f 54 79 55
f 55 80 81
f 55 81 82
f 55 82 83
f 55 83 84
f 55 84 85
f 55 85 86
f 55 86 87
f 55 87 88
f 55 88 89
f 55 89 90
f 55 90 91
f 55 91 92
f 55 92 93
f 55 93 94
f 55 94 95
f 55 95 96
f 55 96 97
f 55 97 56
f 55 79 98
f 55 98 99
f 55 99 100
f 55 100 80
f 56 97 101
f 56 101 102
f 56 102 103
f 56 103 57
f 57 103 104
f 57 104 58
f 58 104 105
f 58 105 106
f 59 69 60
f 60 107 108
f 60 108 109
f 60 109 61
f 60 69 107
f 61 109 62
f 62 110 111
f 62 111 63
f 62 109 112
f 62 112 110
f 63 113 64
f 63 111 113
f 64 113 65
f 65 113 114
f 65 114 115
f 65 115 116
f 65 116 117
f 65 117 66
f 66 117 72
f 66 72 71
f 66 71 70
f 67 118 68
f 68 118 107
f 68 107 69
f 72 117 119
f 72 119 73
f 73 119 169
f 73 169 120
f 73 120 121
f 73 121 75
f 73 75 74
f 75 121 176
f 75 176 122
f 75 122 76
f 76 122 77
f 77 122 123
f 78 124 79
f 79 124 125
f 79 125 98
f 80 100 126
f 80 126 81
f 81 126 127
f 81 127 82
f 82 127 83
f 83 127 128
f 83 128 129
f 83 129 84
f 84 130 85
f 84 129 131
f 84 131 132
f 84 132 130
f 85 130 133
f 85 133 86
f 86 133 134
f 86 134 135
f 86 135 87
f 87 135 136
f 87 136 88
f 88 136 137
f 88 137 89
f 89 137 138
f 89 138 90
f 90 138 139
f 90 139 140
f 90 140 141
f 90 141 91
f 91 141 142
f 91 142 92
f 92 142 101
f 92 101 93
f 93 101 94
f 94 101 95
f 95 101 96
f 96 101 97
f 98 125 99
f 99 125 143
f 99 143 100
f 100 143 125
f 100 125 124
f 100 124 144
f 100 144 126
f 101 142 145
f 101 145 102
f 102 145 146
f 102 146 103
f 103 146 104
f 104 146 147
f 104 147 148
f 104 148 105
f 105 149 106
f 105 148 149
f 107 118 150
f 107 150 151
f 107 151 108
f 108 151 152
f 108 152 153
f 108 153 154
f 108 154 109
f 109 154 112
f 110 155 156
f 110 156 111
f 110 112 157
f 110 157 158
f 110 158 159
f 110 159 155
f 111 156 114
f 111 114 113
f 112 154 160
f 112 160 161
f 112 161 157
f 114 156 162
f 114 162 115
f 115 162 163
f 115 163 164
f 115 164 165
f 115 165 116
f 116 165 166
f 116 166 167
f 116 167 168
f 116 168 169
f 116 169 119
f 116 119 117
f 120 170 171
f 120 171 121
f 120 169 172
f 120 172 173
f 120 173 174
f 120 174 175
f 120 175 170
f 121 171 177
f 121 177 178
f 121 178 179
f 121 179 180
f 121 180 181
f 121 181 176
f 122 176 182
f 122 182 123
f 124 183 184
f 124 184 144
f 126 144 185
f 126 185 127
f 127 185 186
f 127 186 131
f 127 131 128
f 128 131 129
f 130 187 133
f 130 132 188
f 130 188 187
f 131 186 189
f 131 189 190
f 131 190 191
f 131 191 132
f 132 191 192
f 132 192 188
f 133 187 193
f 133 193 194
f 133 194 195
f 133 195 196
f 133 196 135
f 133 135 134
f 135 196 136
f 136 196 197
f 136 197 198
f 136 198 199
f 136 199 200
f 136 200 137
f 137 200 201
f 137 201 202
f 137 202 203
f 137 203 204
f 137 204 138
f 138 204 205
f 138 205 139
f 139 205 140
f 140 205 206
f 140 206 207
f 140 207 141
f 141 207 142
f 142 207 145
f 144 184 185
f 145 207 208
f 145 208 146
f 146 208 209
f 146 209 147
f 147 209 210
f 147 210 148
f 148 210 211
f 148 211 212
f 148 212 149
f 149 212 213
f 149 213 214
f 151 215 152
f 152 215 216
f 152 216 217
f 152 217 218
f 152 218 219
f 152 219 153
f 153 219 220
f 153 220 221
f 153 221 154
f 154 221 222
f 154 222 160
f 155 223 163
f 155 163 162
f 155 162 156
f 155 159 223
f 157 161 158
f 158 224 223
f 158 223 159
f 158 161 225
f 158 225 224
f 160 222 226
f 160 226 227
f 160 227 161
f 161 227 228
f 161 228 229
f 161 229 225
f 163 223 230
f 163 230 166
f 163 166 165
f 163 165 164
f 166 231 232
f 166 232 167
f 166 230 231
f 167 232 168
f 168 232 169
f 169 232 172
f 170 175 171
f 171 175 233
f 171 233 177
f 172 232 173
f 173 232 234
f 173 234 235
f 173 235 236
f 173 236 174
f 174 237 179
f 174 179 238
f 174 238 239
f 174 239 175
f 174 236 240
f 174 240 241
f 174 241 242
f 174 242 243
f 174 243 237
f 175 239 233
f 176 181 182
f 177 233 244
f 177 244 178
f 178 244 179
f 179 237 245
f 179 245 246
f 179 246 247
f 179 247 248
f 179 248 249
f 179 249 250
f 179 250 251
f 179 251 252
f 179 252 253
f 179 253 180
f 179 244 238
f 180 253 254
f 180 254 255
f 180 255 181
f 181 255 182
f 182 255 256
f 182 256 257
f 183 258 185
f 183 185 184
f 185 258 259
f 185 259 186
f 186 259 260
f 186 260 189
f 187 188 193
f 188 261 262
f 188 262 194
f 188 194 193
f 188 192 263
f 188 263 264
f 188 264 265
f 188 265 266
f 188 266 267
f 188 267 268
f 188 268 261
f 189 260 264
f 189 264 190
f 190 192 191
f 190 264 263
f 190 263 192
f 194 262 269
f 194 269 270
f 194 270 195
f 195 271 196
f 195 270 272
f 195 272 273
f 195 273 271
f 196 271 197
f 197 271 198
f 198 271 274
f 198 274 199
f 199 274 275
f 199 275 200
f 200 275 276
f 200 276 201
f 201 276 275
f 201 275 277
f 201 277 202
f 202 277 278
f 202 278 203
f 203 278 279
f 203 279 204
f 204 279 280
f 204 280 205
f 205 280 281
f 205 281 282
f 205 282 206
f 206 282 207
f 207 282 208
f 208 283 209
f 208 282 284
f 208 284 285
f 208 285 283
f 209 283 210
f 210 283 286
f 210 286 287
f 210 287 211
f 211 288 212
f 211 287 289
f 211 289 290
f 211 290 288
f 212 288 213
f 213 288 214
f 214 288 291
f 214 291 292
f 215 293 216
f 216 294 295
f 216 295 217
f 216 293 294
f 217 295 296
f 217 296 218
f 218 220 219
f 218 296 220
f 220 222 221
f 220 296 297
f 220 297 222
f 222 297 298
f 222 298 226
f 223 224 299
f 223 299 300
f 223 300 230
f 224 225 299
f 225 229 228
f 225 228 301
f 225 301 302
f 225 302 303
f 225 303 299
f 226 298 304
f 226 304 305
f 226 305 306
f 226 306 307
f 226 307 227
f 227 307 308
f 227 308 309
f 227 309 228
f 228 310 301
f 228 309 311
f 228 311 310
f 230 300 312
f 230 312 313
f 230 313 234
f 230 234 231
f 231 234 232
f 233 239 238
f 233 238 244
f 234 314 236
f 234 236 235
f 234 313 314
f 236 313 312
f 236 312 240
f 236 314 313
f 237 243 315
f 237 315 316
f 237 316 245
f 240 312 317
f 240 317 318
f 240 318 319
f 240 319 242
f 240 242 241
f 242 319 320
f 242 320 321
f 242 321 322
f 242 322 243
f 243 322 323
f 243 323 324
f 243 324 315
f 245 316 246
f 246 316 315
f 246 315 325
f 246 325 247
f 247 326 267
f 247 267 327
f 247 327 328
f 247 328 248
f 247 325 326
f 248 328 249
f 249 328 329
f 249 329 392
f 249 392 330
f 249 330 331
f 249 331 332
f 249 332 333
f 249 333 250
f 250 333 251
f 251 333 334
f 251 334 252
f 252 334 253
f 253 334 256
f 253 256 254
f 254 256 255
f 256 334 335
f 256 335 336
f 256 336 257
f 258 337 259
f 259 337 338
f 259 338 260
f 260 338 264
f 261 268 339
f 261 339 340
f 261 340 341
f 261 341 342
f 261 342 343
f 261 343 262
f 262 343 344
f 262 344 269
f 264 345 265
f 264 338 345
f 265 345 346
f 265 346 347
f 265 347 348
f 265 348 266
f 266 348 349
f 266 349 267
f 267 349 327
f 267 326 268
f 268 326 325
f 268 325 340
f 268 340 339
f 269 344 270
f 270 344 343
f 270 343 350
f 270 350 272
f 271 275 274
f 271 273 275
f 272 350 273
f 273 350 351
f 273 351 275
f 275 352 277
f 275 351 353
f 275 353 354
f 275 354 355
f 275 355 352
f 277 352 278
f 278 352 356
f 278 356 279
f 279 356 357
f 279 357 358
f 279 358 280
f 280 358 359
f 280 359 360
f 280 360 361
f 280 361 281
f 281 361 362
f 281 362 282
f 282 362 284
f 283 285 363
f 283 363 286
f 284 362 364
f 284 364 285
f 285 364 365
f 285 365 366
f 285 366 367
f 285 367 363
f 286 363 368
f 286 368 369
f 286 369 287
f 287 369 370
f 287 370 289
f 288 290 371
f 288 371 292
f 288 292 291
f 289 370 290
f 290 370 371
f 292 371 372
f 294 373 295
f 295 373 374
f 295 374 375
f 295 375 376
f 295 376 296
f 296 376 377
f 296 377 378
f 296 378 297
f 297 378 379
f 297 379 380
f 297 380 304
f 297 304 298
f 299 381 317
f 299 317 300
f 299 303 302
f 299 302 381
f 300 317 312
f 301 310 302
f 302 310 382
f 302 382 383
f 302 383 381
f 304 380 367
f 304 367 366
f 304 366 365
f 304 365 305
f 305 365 364
f 305 364 384
f 305 384 385
f 305 385 307
f 305 307 306
f 307 385 308
f 308 386 309
f 308 385 387
f 308 387 360
f 308 360 357
f 308 357 386
f 309 386 311
f 310 311 388
f 310 388 382
f 311 386 389
f 311 389 388
f 315 324 325
f 317 381 318
f 318 381 319
f 319 383 320
f 319 381 383
f 320 390 321
f 320 383 382
f 320 382 390
f 321 390 391
f 321 391 323
f 321 323 322
f 323 391 342
f 323 342 341
f 323 341 340
f 323 340 325
f 323 325 324
f 327 392 329
f 327 329 328
f 327 349 392
f 330 393 331
f 330 392 349
f 330 349 394
f 330 394 393
f 331 393 332
f 332 393 333
f 333 393 395
f 333 395 335
f 333 335 334
f 335 395 336
f 337 396 397
f 337 397 338
f 338 397 345
f 342 398 343
f 342 391 398
f 343 399 400
f 343 400 350
f 343 398 399
f 345 397 347
f 345 347 346
f 347 349 348
f 347 397 396
f 347 396 401
f 347 401 402
f 347 402 403
f 347 403 404
f 347 404 405
f 347 405 406
f 347 406 407
f 347 407 349
f 349 407 394
f 350 400 399
f 350 399 351
f 351 399 398
f 351 398 353
f 352 355 408
f 352 408 356
f 353 398 409
f 353 409 354
f 354 409 355
f 355 409 408
f 356 408 386
f 356 386 357
f 357 360 359
f 357 359 358
f 360 387 361
f 361 387 362
f 362 387 385
f 362 385 364
f 363 367 410
f 363 410 368
f 364 385 384
f 367 380 410
f 368 410 369
f 369 410 378
f 369 378 377
f 369 377 370
f 370 372 371
f 370 377 411
f 370 411 412
f 370 412 372
f 375 413 376
f 376 413 377
f 377 413 411
f 378 410 380
f 378 380 379
f 382 388 414
f 382 414 390
f 386 398 389
f 386 408 409
f 386 409 415
f 386 415 398
f 388 389 416
f 388 416 414
f 389 398 414
f 389 414 416
f 390 414 391
f 391 414 398
f 393 394 406
f 393 406 417
f 394 407 418
f 394 418 406
f 398 415 409
f 405 417 406
f 406 418 407

