# https://github.com/mikedh/trimesh
v 0.03656512 0.00397028 0.03940694
v 0.03641673 0.00397028 0.03883636
v 0.03231438 0.01444881 0.03978816
v 0.03322233 0.01239133 0.04003234
v 0.03342735 0.01205404 0.04033133
v 0.03329262 0.01256159 0.04067518
v 0.03384910 0.01202674 0.04222248
v 0.03427476 0.01164929 0.04346829
v 0.03434701 0.01182436 0.04414602
v 0.03460474 0.01106465 0.04414602
v 0.03523152 0.00881764 0.04444252
v 0.03523152 0.00881764 0.04475646
v 0.03578605 0.00625423 0.04414602
v 0.03594616 0.00529214 0.04414602
v 0.03613165 0.00397028 0.04452225
v 0.03037939 0.01538520 0.03405492
v 0.03128148 0.01523744 0.03716946
v 0.03024271 0.00397028 0.02013669
v 0.03023685 0.00424493 0.02018902
v 0.03035791 0.00450834 0.02067488
v 0.03004355 0.00529214 0.02009682
v 0.03002988 0.00531944 0.02007440
v 0.02957884 0.00721470 0.02007440
v 0.02933477 0.00823300 0.02007440
v 0.02910632 0.00914048 0.02009682
v 0.02941092 0.00958378 0.02157685
v 0.02906141 0.01010257 0.02105859
v 0.02864746 0.01110159 0.02105361
v 0.02850493 0.01165411 0.02137254
v 0.02786644 0.01298721 0.02105859
v 0.02858303 0.01376459 0.02490567
v 0.03205664 0.01482626 0.03941442
v 0.03217185 0.01506558 0.04029645
v 0.03263460 0.01394930 0.04029645
v 0.03232219 0.01542696 0.04167432
v 0.03330433 0.01451306 0.04446993
v 0.03330433 0.01451306 0.04473902
v 0.03434310 0.01181633 0.04488105
v 0.03446806 0.01106465 0.04503553
v 0.03530767 0.00817840 0.04492091
v 0.03542482 0.00721631 0.04503802
v 0.03606136 0.00397028 0.04472407
v 0.03139082 0.01643081 0.03965610
v 0.03129905 0.01626377 0.03901576
v 0.03155484 0.01591523 0.03933718
v 0.03136739 0.01543981 0.03780981
v 0.02845025 0.01441187 0.02541645
v 0.02753255 0.01448736 0.02238165
v 0.03021928 0.00397028 0.02007440
v 0.03021733 0.00399276 0.02007440
v 0.03018999 0.00425296 0.02007440
v 0.03003574 0.00529214 0.02007440
v 0.02923909 0.00860081 0.02007440
v 0.02909070 0.00916297 0.02007440
v 0.02899893 0.00942959 0.02007440
v 0.02875485 0.01012666 0.02007440
v 0.02873728 0.01017645 0.02007440
v 0.02854984 0.01080445 0.02029366
v 0.02841706 0.01144531 0.02073219
v 0.02827648 0.01199622 0.02105361
v 0.02751107 0.01349637 0.02053286
v 0.03181453 0.01587347 0.04029645
v 0.03225385 0.01623485 0.04293259
v 0.03246083 0.01589756 0.04322411
v 0.03266975 0.01587347 0.04414602
v 0.03238858 0.01650308 0.04414602
v 0.03239639 0.01651593 0.04485364
v 0.03341954 0.01394930 0.04492340
v 0.03254088 0.01587347 0.04501560
v 0.03278886 0.01394930 0.04537439
v 0.03375147 0.01106465 0.04548402
v 0.03471214 0.00817840 0.04537190
v 0.03471214 0.00721631 0.04548900
v 0.03554002 0.00625423 0.04506543
v 0.03561813 0.00529214 0.04507539
v 0.03573138 0.00397028 0.04504549
v 0.03037548 0.01634247 0.03599341
v 0.03070156 0.01691586 0.03831062
v 0.03017437 0.01777676 0.03831062
v 0.02961008 0.01876936 0.03846012
v 0.02920394 0.01984870 0.03933468
v 0.03035791 0.01823612 0.03992271
v 0.03147088 0.01656251 0.04029645
v 0.03232610 0.01639065 0.04357294
v 0.02743882 0.01431711 0.02173881
v 0.02683158 0.01498045 0.02101873
v 0.02650940 0.01534665 0.02067239
v 0.02601931 0.00397028 0.02007440
v 0.02868651 0.01030173 0.02007440
v 0.02837996 0.01104377 0.02007440
v 0.02754817 0.01304825 0.02007440
v 0.02726114 0.01366501 0.02007440
v 0.02719085 0.01387060 0.02016659
v 0.02733924 0.01412598 0.02105859
v 0.03210936 0.01698332 0.04414602
v 0.03137520 0.01832767 0.04449983
v 0.03137520 0.01832767 0.04472158
v 0.03053755 0.01949213 0.04490098
v 0.03085972 0.01869227 0.04502805
v 0.03186529 0.01683716 0.04511775
v 0.03182624 0.01587347 0.04546658
v 0.03278886 0.01298721 0.04551392
v 0.03375147 0.01010257 0.04551890
v 0.03471214 0.00625423 0.04551641
v 0.03471214 0.00529214 0.04552389
v 0.03471214 0.00397028 0.04552887
v 0.02953979 0.01654805 0.03356158
v 0.02648207 0.01818954 0.02653768
v 0.02839753 0.02010729 0.03712959
v 0.02849321 0.02025345 0.03777243
v 0.02858498 0.02037873 0.03837292
v 0.02887201 0.02037873 0.03939199
v 0.02900088 0.02037873 0.03986291
v 0.02933086 0.02005589 0.04029645
v 0.02555850 0.01825379 0.02351783
v 0.02962570 0.01957565 0.04029645
v 0.03043406 0.01836140 0.04056555
v 0.03117799 0.01704275 0.04029645
v 0.03127171 0.01719694 0.04109377
v 0.03140449 0.01741217 0.04222248
v 0.02670271 0.01470419 0.02009682
v 0.02626338 0.01541251 0.02007440
v 0.02567175 0.01651111 0.02030114
v 0.02549407 0.01718570 0.02105859
v 0.02578891 0.01670546 0.02105859
v 0.02556827 0.01730616 0.02156190
v 0.02591192 0.01692550 0.02193814
v 0.02639811 0.01708933 0.02394390
v 0.01661770 0.02037873 0.02007440
v 0.03316961 0.00397028 0.04486610
v 0.02710689 0.01396054 0.02007440
v 0.02669880 0.01469777 0.02007440
v 0.03158998 0.01784904 0.04416595
v 0.03130100 0.01820560 0.04385699
v 0.03026419 0.02000771 0.04414602
v 0.03003574 0.02037873 0.04414602
v 0.02978581 0.02037873 0.04505048
v 0.03086363 0.01779764 0.04536442
v 0.02990296 0.01875973 0.04550894
v 0.03086363 0.01683556 0.04551890
v 0.03182624 0.01491139 0.04552140
v 0.03278886 0.01202674 0.04552638
v 0.03375147 0.00914048 0.04552638
v 0.02990296 0.01779764 0.04552638
v 0.02894035 0.01972181 0.04552389
v 0.02894035 0.01875973 0.04551641
v 0.02797773 0.02037873 0.04549399
v 0.03375147 0.00397028 0.04531459
v 0.02566199 0.01745874 0.02220225
v 0.02656603 0.01928012 0.02913396
v 0.02746226 0.02015708 0.03414711
v 0.02844049 0.02037873 0.03789452
v 0.02911803 0.02037873 0.04029645
v 0.02929962 0.02037873 0.04102650
v 0.02939920 0.02016672 0.04087202
v 0.02509574 0.01779764 0.02105859
v 0.02461737 0.01828431 0.02056525
v 0.02970771 0.01979730 0.04121835
v 0.03051607 0.01849471 0.04126071
v 0.03031300 0.01912593 0.04204308
v 0.02587287 0.01605175 0.02007440
v 0.02542768 0.01677773 0.02007440
v 0.02520314 0.01712948 0.02007440
v 0.02481067 0.01779603 0.02018403
v 0.02645083 0.02037873 0.04472407
v 0.02263551 0.02037873 0.02007440
v 0.02992835 0.02037873 0.04368257
v 0.02894035 0.02037873 0.04547655
v 0.02797773 0.01972181 0.04542920
v 0.02703074 0.02037873 0.04517008
v 0.02746030 0.02037873 0.03471022
v 0.02756184 0.02028718 0.03478995
v 0.02763408 0.02037873 0.03526586
v 0.02944216 0.02037873 0.04161452
v 0.02952807 0.02037873 0.04197332
v 0.02467790 0.01793095 0.02007440
v 0.02425809 0.01847062 0.02007440
v 0.02409603 0.01871797 0.02018154
v 0.02370161 0.01930100 0.02044067
v 0.02299088 0.02037873 0.02105859
v 0.02428738 0.01886091 0.02105859
v 0.02444554 0.01904562 0.02202036
v 0.02657384 0.02037873 0.03198687
v 0.02960422 0.02037873 0.04229723
v 0.02479700 0.01774946 0.02007440
v 0.02327791 0.01962705 0.02007440
v 0.02271557 0.02037873 0.02027622
v 0.02751888 0.02037873 0.03489211
v 0.02394959 0.01884003 0.02007440
v 0.02283858 0.02037873 0.02062007
v 0.02275852 0.02037873 0.02039582
v 0.02393787 0.02037873 0.02394390
v 0.02588068 0.02037873 0.02987148
f 1 2 3
f 1 3 4
f 1 4 5
f 1 5 6
f 1 6 7
f 1 7 8
f 1 8 9
f 1 9 10
f 1 10 11
f 1 11 12
f 1 12 13
f 1 13 14
f 1 14 15
f 1 15 42
f 1 42 76
f 1 76 106
f 1 106 148
f 1 148 130
f 1 130 88
f 1 88 49
f 1 49 18
f 1 18 2
f 2 16 17
f 2 17 3
f 2 18 19
f 2 19 20
f 2 20 21
f 2 21 22
f 2 22 23
f 2 23 24
f 2 24 25
f 2 25 26
f 2 26 27
f 2 27 28
f 2 28 29
f 2 29 30
f 2 30 31
f 2 31 16
f 3 17 32
f 3 32 33
f 3 33 4
f 4 33 34
f 4 34 6
f 4 6 5
f 6 34 33
f 6 33 35
f 6 35 7
f 7 35 8
f 8 35 36
f 8 36 9
f 9 36 37
f 9 37 38
f 9 38 10
f 10 38 12
f 10 12 11
f 12 38 39
f 12 39 40
f 12 40 15
f 12 15 13
f 13 15 14
f 15 40 41
f 15 41 42
f 16 43 44
f 16 44 45
f 16 45 46
f 16 46 17
f 16 31 47
f 16 47 48
f 16 48 43
f 17 46 32
f 18 49 50
f 18 50 19
f 19 50 51
f 19 51 52
f 19 52 21
f 19 21 20
f 21 52 22
f 22 52 51
f 22 51 50
f 22 50 49
f 22 49 88
f 22 88 129
f 22 129 166
f 22 166 186
f 22 186 189
f 22 189 177
f 22 177 176
f 22 176 185
f 22 185 163
f 22 163 162
f 22 162 161
f 22 161 122
f 22 122 132
f 22 132 131
f 22 131 92
f 22 92 91
f 22 91 90
f 22 90 89
f 22 89 57
f 22 57 56
f 22 56 55
f 22 55 54
f 22 54 53
f 22 53 24
f 22 24 23
f 24 53 25
f 25 53 54
f 25 54 55
f 25 55 26
f 26 55 56
f 26 56 57
f 26 57 27
f 27 57 58
f 27 58 59
f 27 59 28
f 28 59 60
f 28 60 29
f 29 60 30
f 30 60 61
f 30 61 31
f 31 61 47
f 32 45 62
f 32 62 33
f 32 46 45
f 33 62 63
f 33 63 35
f 35 63 64
f 35 64 65
f 35 65 36
f 36 65 66
f 36 66 67
f 36 67 37
f 37 67 38
f 38 67 68
f 38 68 69
f 38 69 39
f 39 41 40
f 39 69 70
f 39 70 71
f 39 71 72
f 39 72 41
f 41 72 73
f 41 73 74
f 41 74 42
f 42 74 75
f 42 75 76
f 43 77 78
f 43 78 79
f 43 79 80
f 43 80 81
f 43 81 82
f 43 82 83
f 43 83 84
f 43 84 63
f 43 63 62
f 43 62 45
f 43 45 44
f 43 48 77
f 47 61 85
f 47 85 48
f 48 85 86
f 48 86 87
f 48 87 77
f 57 89 58
f 58 89 90
f 58 90 61
f 58 61 59
f 59 61 60
f 61 90 91
f 61 91 92
f 61 92 93
f 61 93 94
f 61 94 85
f 63 84 64
f 64 84 65
f 65 84 66
f 66 95 96
f 66 96 67
f 66 84 95
f 67 96 97
f 67 97 98
f 67 98 99
f 67 99 100
f 67 100 69
f 67 69 68
f 69 100 101
f 69 101 70
f 70 101 71
f 71 101 102
f 71 102 103
f 71 103 73
f 71 73 72
f 73 103 104
f 73 104 75
f 73 75 74
f 75 104 76
f 76 104 105
f 76 105 106
f 77 107 78
f 77 87 107
f 78 107 79
f 79 107 80
f 80 107 108
f 80 108 81
f 81 109 110
f 81 110 111
f 81 111 112
f 81 112 113
f 81 113 114
f 81 114 82
f 81 108 115
f 81 115 109
f 82 114 116
f 82 116 117
f 82 117 118
f 82 118 83
f 83 118 119
f 83 119 120
f 83 120 95
f 83 95 84
f 85 94 86
f 86 94 121
f 86 121 87
f 87 121 122
f 87 122 123
f 87 123 124
f 87 124 125
f 87 125 126
f 87 126 127
f 87 127 128
f 87 128 107
f 88 130 129
f 92 131 93
f 93 121 94
f 93 131 132
f 93 132 121
f 95 133 96
f 95 120 133
f 96 133 134
f 96 134 135
f 96 135 136
f 96 136 97
f 97 136 98
f 98 137 99
f 98 136 137
f 99 137 100
f 100 137 138
f 100 138 101
f 101 138 139
f 101 139 140
f 101 140 141
f 101 141 102
f 102 141 142
f 102 142 103
f 103 142 143
f 103 143 105
f 103 105 104
f 105 143 106
f 106 143 142
f 106 142 144
f 106 144 145
f 106 145 146
f 106 146 147
f 106 147 148
f 107 128 108
f 108 128 127
f 108 127 126
f 108 126 149
f 108 149 115
f 109 115 150
f 109 150 110
f 110 150 151
f 110 151 152
f 110 152 111
f 111 152 173
f 111 173 188
f 111 188 171
f 111 171 183
f 111 183 193
f 111 193 192
f 111 192 180
f 111 180 190
f 111 190 191
f 111 191 187
f 111 187 166
f 111 166 129
f 111 129 165
f 111 165 170
f 111 170 147
f 111 147 168
f 111 168 137
f 111 137 136
f 111 136 167
f 111 167 184
f 111 184 175
f 111 175 174
f 111 174 154
f 111 154 153
f 111 153 113
f 111 113 112
f 113 153 114
f 114 153 154
f 114 154 155
f 114 155 116
f 115 149 126
f 115 126 124
f 115 124 156
f 115 156 157
f 115 157 150
f 116 155 158
f 116 158 117
f 117 158 159
f 117 159 119
f 117 119 118
f 119 159 160
f 119 160 120
f 120 160 134
f 120 134 133
f 121 132 122
f 122 161 123
f 123 161 162
f 123 162 124
f 124 126 125
f 124 162 163
f 124 163 164
f 124 164 156
f 129 130 165
f 130 148 165
f 134 160 135
f 135 167 136
f 135 160 167
f 137 168 138
f 138 168 139
f 139 168 145
f 139 145 140
f 140 145 144
f 140 144 141
f 141 144 142
f 145 168 147
f 145 147 146
f 147 169 148
f 147 170 169
f 148 169 170
f 148 170 165
f 150 157 151
f 151 171 172
f 151 172 152
f 151 157 171
f 152 172 173
f 154 174 155
f 155 174 175
f 155 175 158
f 156 164 157
f 157 164 176
f 157 176 177
f 157 177 178
f 157 178 179
f 157 179 180
f 157 180 181
f 157 181 182
f 157 182 183
f 157 183 171
f 158 175 184
f 158 184 160
f 158 160 159
f 160 184 167
f 163 185 164
f 164 185 176
f 166 187 186
f 171 188 172
f 172 188 173
f 177 189 178
f 178 189 179
f 179 190 180
f 179 189 186
f 179 186 187
f 179 187 191
f 179 191 190
f 180 192 182
f 180 182 181
f 182 192 193
f 182 193 183

