# https://github.com/mikedh/trimesh
v 0.03589311 -0.00561592 0.04414192
v 0.03581171 -0.00561592 0.04444561
v 0.03542277 -0.00721981 0.04503424
v 0.03530820 -0.00818214 0.04491802
v 0.03578457 -0.00625747 0.04414192
v 0.03519665 -0.00580304 0.04074882
v 0.03521172 -0.00561592 0.04067759
v 0.02983599 -0.00561295 0.01978664
v 0.03559161 -0.00561592 0.04506799
v 0.03553734 -0.00625747 0.04506424
v 0.03471124 -0.00721981 0.04548791
v 0.03471124 -0.00818214 0.04536793
v 0.03446702 -0.01106915 0.04503050
v 0.03522981 -0.00882370 0.04475305
v 0.03522981 -0.00882370 0.04443811
v 0.03525092 -0.00601986 0.04125498
v 0.03503082 -0.00617728 0.04037015
v 0.03477153 -0.00625747 0.03933160
v 0.03517554 -0.00561592 0.04050137
v 0.02554263 -0.00561295 0.01978664
v 0.03471124 -0.00561592 0.04551790
v 0.03531725 -0.00561592 0.04521796
v 0.03489213 -0.00561592 0.03933160
v 0.03425898 -0.00561592 0.03681209
v 0.03138569 -0.00561592 0.02554177
v 0.03023095 -0.00561592 0.02103140
v 0.02996262 -0.00561592 0.02009783
v 0.02959780 -0.00561295 0.01918675
v 0.03471124 -0.00625747 0.04551040
v 0.03374945 -0.01010681 0.04551415
v 0.03374945 -0.01106915 0.04548041
v 0.03278767 -0.01395318 0.04537168
v 0.03253742 -0.01587785 0.04501175
v 0.03434341 -0.01182060 0.04487677
v 0.03460571 -0.01106915 0.04414192
v 0.03485897 -0.01010681 0.04414192
v 0.03417155 -0.01034443 0.04106002
v 0.03424994 -0.00970287 0.04068509
v 0.03409316 -0.01005632 0.04033640
v 0.03418060 -0.00942367 0.04004396
v 0.03425898 -0.00878212 0.03970278
v 0.03384593 -0.01010681 0.03933160
v 0.03321278 -0.00939100 0.03618221
v 0.03424391 -0.00583274 0.03687208
v 0.01797198 -0.00561295 0.00748902
v 0.03306203 -0.00561592 0.04499300
v 0.03349921 -0.00561592 0.04529294
v 0.03374945 -0.00561592 0.04544292
v 0.03439165 -0.00561592 0.04551040
v 0.00509192 -0.03415032 0.04551790
v 0.00681348 -0.03415032 0.04552915
v 0.03374945 -0.00818214 0.04552165
v 0.03374945 -0.00914448 0.04552165
v 0.03333037 -0.00617728 0.03362895
v 0.02987217 -0.00818214 0.02202120
v 0.02940786 -0.00861282 0.02062272
v 0.02948625 -0.00797423 0.02036028
v 0.02942293 -0.00749603 0.01978664
v 0.02938675 -0.00755841 0.01971915
v 0.02946213 -0.00691685 0.01953169
v 0.02954052 -0.00625747 0.01937797
v 0.02895561 -0.00818214 0.01913426
v 0.02550645 -0.00742475 0.01204814
v 0.02938072 -0.00561295 0.01876309
v 0.03278767 -0.01299381 0.04551040
v 0.03278767 -0.01203148 0.04552165
v 0.03182588 -0.01587785 0.04546166
v 0.03341780 -0.01395318 0.04492177
v 0.03186508 -0.01684018 0.04511298
v 0.03239572 -0.01651940 0.04485053
v 0.03330323 -0.01451454 0.04473430
v 0.03434642 -0.01182951 0.04414192
v 0.03427406 -0.01165130 0.04346330
v 0.03420472 -0.01146715 0.04282217
v 0.03423788 -0.01061174 0.04170114
v 0.03379166 -0.01106915 0.04029516
v 0.03329720 -0.01067411 0.03776440
v 0.03321580 -0.01037413 0.03712703
v 0.03038472 -0.00963158 0.02538430
v 0.01782726 -0.00561295 0.00722657
v 0.00509192 -0.03328897 0.04504924
v 0.03293842 -0.00561592 0.04469681
v 0.00509192 -0.03285236 0.04414567
v 0.00509192 -0.03317313 0.04481304
v 0.00509192 -0.03395429 0.04541292
v 0.00509192 -0.03490771 0.04550290
v 0.00777828 -0.03415032 0.04552165
v 0.01162542 -0.03318798 0.04551790
v 0.01547557 -0.03126331 0.04552165
v 0.01739612 -0.03030098 0.04552165
v 0.02028147 -0.02837631 0.04552165
v 0.02797875 -0.02068952 0.04552165
v 0.02989930 -0.01779955 0.04552165
v 0.03182588 -0.01395318 0.04552165
v 0.02935057 -0.00921873 0.02099015
v 0.02910033 -0.00914448 0.02009783
v 0.02932645 -0.00825046 0.02006408
v 0.02937469 -0.00769504 0.01978664
v 0.02868124 -0.00913854 0.01909677
v 0.02897370 -0.00914151 0.01978664
v 0.02850035 -0.00881182 0.01856437
v 0.02796971 -0.00818214 0.01721089
v 0.02663406 -0.00818214 0.01460889
v 0.02382710 -0.00721981 0.00868129
v 0.02329646 -0.00633173 0.00722657
v 0.02335978 -0.00607035 0.00722657
v 0.02346832 -0.00561295 0.00722657
v 0.03182588 -0.01491551 0.04551790
v 0.03086410 -0.01684018 0.04551790
v 0.02989930 -0.01876188 0.04550290
v 0.02893450 -0.02068952 0.04545041
v 0.03086410 -0.01779955 0.04536043
v 0.02968825 -0.02068952 0.04499675
v 0.03330323 -0.01451454 0.04446810
v 0.03053245 -0.01949551 0.04489552
v 0.02950132 -0.02127464 0.04482803
v 0.03137364 -0.01832824 0.04471930
v 0.03137364 -0.01832824 0.04449810
v 0.03238366 -0.01650752 0.04414192
v 0.03323389 -0.01435118 0.04382323
v 0.03364091 -0.01203148 0.04125498
v 0.03342685 -0.01205524 0.04032516
v 0.03334846 -0.01175525 0.03949657
v 0.03350524 -0.01116419 0.03923787
v 0.03232034 -0.01063550 0.03396639
v 0.02940786 -0.00958703 0.02157879
v 0.00509494 -0.01795399 0.00722657
v 0.00509192 -0.02565564 0.01978664
v 0.00509192 -0.03511265 0.04549166
v 0.00874007 -0.03415032 0.04551040
v 0.00970185 -0.03415032 0.04547666
v 0.01451077 -0.03222565 0.04550290
v 0.01643433 -0.03126331 0.04551040
v 0.01931968 -0.02933865 0.04551790
v 0.02413162 -0.02549228 0.04551790
v 0.02509038 -0.02452995 0.04551790
v 0.02701697 -0.02260528 0.04551040
v 0.02893450 -0.01972718 0.04551790
v 0.02871742 -0.01018107 0.02002284
v 0.02866617 -0.01008305 0.01978664
v 0.02857572 -0.00991375 0.01939296
v 0.02840085 -0.00945634 0.01875184
v 0.02655869 -0.00873162 0.01475136
v 0.02752952 -0.00877024 0.01665599
v 0.02357686 -0.00721981 0.00820138
v 0.02314873 -0.00690794 0.00722657
v 0.02797875 -0.02164591 0.04549540
v 0.02799684 -0.02261716 0.04512798
v 0.02892847 -0.02161324 0.04508298
v 0.03266707 -0.01587785 0.04414192
v 0.02860888 -0.02230232 0.04488802
v 0.02642603 -0.02488339 0.04414192
v 0.02821090 -0.02279537 0.04414192
v 0.02861491 -0.02231420 0.04414192
v 0.02910033 -0.02173502 0.04414192
v 0.02948625 -0.02125385 0.04414192
v 0.02984805 -0.02068952 0.04414192
v 0.03210929 -0.01698572 0.04414192
v 0.03127113 -0.01719957 0.04109001
v 0.03140077 -0.01741639 0.04221854
v 0.03232637 -0.01639466 0.04356828
v 0.03225100 -0.01526599 0.04103002
v 0.03237160 -0.01458879 0.04029516
v 0.03321881 -0.01239681 0.04002896
v 0.03231130 -0.01445217 0.03978526
v 0.03205804 -0.01483235 0.03941033
v 0.03326705 -0.01154437 0.03885544
v 0.03207914 -0.01100083 0.03361021
v 0.02949529 -0.00980979 0.02221992
v 0.02906113 -0.01010681 0.02106139
v 0.00509494 -0.02359137 0.00722657
v 0.00509192 -0.02995941 0.01978664
v 0.00585773 -0.03511265 0.04546166
v 0.00509192 -0.03567995 0.04513548
v 0.01066363 -0.03415032 0.04533419
v 0.01258720 -0.03318798 0.04546166
v 0.01547557 -0.03222565 0.04531169
v 0.01836092 -0.03030098 0.04547291
v 0.02124325 -0.02837928 0.04548416
v 0.02220503 -0.02741695 0.04550665
v 0.02316380 -0.02645461 0.04551415
v 0.02518686 -0.02558435 0.04515422
v 0.02854557 -0.01041868 0.01978664
v 0.02854557 -0.01080777 0.02029654
v 0.02844306 -0.01055234 0.01965166
v 0.02753555 -0.01261363 0.01953918
v 0.02720390 -0.01295817 0.01918300
v 0.02642904 -0.00937318 0.01499507
v 0.02281406 -0.00797720 0.00722657
v 0.02372761 -0.00790592 0.00887625
v 0.02306431 -0.00721981 0.00722657
v 0.02613056 -0.02460420 0.04515047
v 0.02706521 -0.02360919 0.04514297
v 0.02586222 -0.02532892 0.04491802
v 0.02677577 -0.02433391 0.04491427
v 0.02769534 -0.02331812 0.04490302
v 0.03245903 -0.01590161 0.04322335
v 0.02594363 -0.02541803 0.04414192
v 0.02561198 -0.02505269 0.04159241
v 0.02630241 -0.02473786 0.04318210
v 0.02824407 -0.02187164 0.04125498
v 0.02942595 -0.02117366 0.04363202
v 0.02846115 -0.02116475 0.03980776
v 0.02939881 -0.02017271 0.04086880
v 0.03147012 -0.01656395 0.04029516
v 0.03225401 -0.01623724 0.04293090
v 0.03138871 -0.01643624 0.03965404
v 0.03181382 -0.01587785 0.04029516
v 0.03216658 -0.01506996 0.04029516
v 0.03155152 -0.01591943 0.03933160
v 0.03144298 -0.01560459 0.03837179
v 0.03037869 -0.01538777 0.03405262
v 0.02786720 -0.01299381 0.02106139
v 0.02965509 -0.01114340 0.02484816
v 0.02841592 -0.01144636 0.02073145
v 0.00666575 -0.02321713 0.00722657
v 0.00509494 -0.02779119 0.01541498
v 0.00509494 -0.02875649 0.01731212
v 0.00509494 -0.02987328 0.01951294
v 0.00509192 -0.03006634 0.02010158
v 0.00509192 -0.03581955 0.04504174
v 0.00585773 -0.03577203 0.04501175
v 0.00970185 -0.03484237 0.04502675
v 0.01066363 -0.03472653 0.04488052
v 0.01258720 -0.03390082 0.04501175
v 0.01451077 -0.03302166 0.04505299
v 0.01634991 -0.03223456 0.04499675
v 0.01720014 -0.03191972 0.04490677
v 0.01836092 -0.03108213 0.04502300
v 0.01932873 -0.03033959 0.04512048
v 0.02028147 -0.02933865 0.04536418
v 0.02220202 -0.02838819 0.04512048
v 0.02319395 -0.02745556 0.04514297
v 0.02418890 -0.02651996 0.04515047
v 0.02492456 -0.02624373 0.04491427
v 0.02751143 -0.01350171 0.02053649
v 0.02840688 -0.01075431 0.01978664
v 0.02740289 -0.01325222 0.01989162
v 0.02737575 -0.01320767 0.01978664
v 0.02542806 -0.01211465 0.01524252
v 0.02673657 -0.01391754 0.01917551
v 0.02658884 -0.01357300 0.01854938
v 0.02456879 -0.01242651 0.01390778
v 0.02190655 -0.01017513 0.00722657
v 0.02260904 -0.00847619 0.00722657
v 0.02549439 -0.02589919 0.04414192
v 0.02552153 -0.02495765 0.04094754
v 0.02591951 -0.02459529 0.04126247
v 0.02735163 -0.02291714 0.04125498
v 0.02891340 -0.02068952 0.04029516
v 0.02584715 -0.02437252 0.04029516
v 0.02663105 -0.02319931 0.03951906
v 0.02682099 -0.02071922 0.03362895
v 0.02756268 -0.02029152 0.03478373
v 0.02858175 -0.02038656 0.03837179
v 0.02866617 -0.02070437 0.03942533
v 0.02932947 -0.02005984 0.04029516
v 0.03035457 -0.01823913 0.03992024
v 0.02920284 -0.01985193 0.03933160
v 0.03056863 -0.01762430 0.03933160
v 0.03108118 -0.01678672 0.03933160
v 0.02720993 -0.01485611 0.02204370
v 0.02752952 -0.01449078 0.02238113
v 0.02844909 -0.01441652 0.02541805
v 0.00711800 -0.02310426 0.00722657
v 0.00874007 -0.02896143 0.01941171
v 0.00798933 -0.02783277 0.01685470
v 0.00769386 -0.02709320 0.01527251
v 0.00578235 -0.02902975 0.01815195
v 0.00544769 -0.02984061 0.01958043
v 0.00580346 -0.02992377 0.02011657
v 0.00585773 -0.03018217 0.02106139
v 0.00509192 -0.03033662 0.02106139
v 0.00558638 -0.02987328 0.01978664
v 0.00509192 -0.03593836 0.04432938
v 0.00681348 -0.03566807 0.04483928
v 0.00735015 -0.03560570 0.04467431
v 0.01121236 -0.03465525 0.04471930
v 0.01328366 -0.03375528 0.04485053
v 0.01547557 -0.03282265 0.04485803
v 0.01597605 -0.03271573 0.04466307
v 0.01900914 -0.03088313 0.04485803
v 0.02117391 -0.02932082 0.04500800
v 0.02028147 -0.03000991 0.04491427
v 0.02187338 -0.02898817 0.04487303
v 0.02289245 -0.02807336 0.04489927
v 0.02391152 -0.02715854 0.04491052
v 0.02718882 -0.01387298 0.02016906
v 0.02743907 -0.01432148 0.02174376
v 0.02733957 -0.01412842 0.02106139
v 0.02658582 -0.01452345 0.01952044
v 0.02172867 -0.01059095 0.00722657
v 0.02178595 -0.01045729 0.00722657
v 0.02639889 -0.01421752 0.01887931
v 0.02557881 -0.01348983 0.01671223
v 0.02273266 -0.01163348 0.00990730
v 0.02501200 -0.02631799 0.04414192
v 0.02453261 -0.02590810 0.04102252
v 0.02442106 -0.02581009 0.04029516
v 0.02495170 -0.02532892 0.04029516
v 0.02542806 -0.02485369 0.04029516
v 0.02570846 -0.02420620 0.03933160
v 0.02495471 -0.02362107 0.03549984
v 0.02434870 -0.01989945 0.02394458
v 0.02660994 -0.02029746 0.03188554
v 0.02461100 -0.01828665 0.02056649
v 0.02656472 -0.01928463 0.02913358
v 0.02839784 -0.02011034 0.03712703
v 0.02705918 -0.01876188 0.02971471
v 0.02566022 -0.01746392 0.02220492
v 0.02716470 -0.01771341 0.02787007
v 0.02650743 -0.01534916 0.02067521
v 0.02683305 -0.01498383 0.02102390
v 0.00723558 -0.02307159 0.00722657
v 0.00930688 -0.02888718 0.01955418
v 0.00608386 -0.02975744 0.01978664
v 0.00650595 -0.02986140 0.02044651
v 0.00874007 -0.02948715 0.02106139
v 0.00911091 -0.02979605 0.02260609
v 0.00970185 -0.03264741 0.03427758
v 0.00585773 -0.03215436 0.02875490
v 0.00555322 -0.03082670 0.02329971
v 0.00714212 -0.02978417 0.02072396
v 0.00509192 -0.03073166 0.02258359
v 0.00509192 -0.03595321 0.04414567
v 0.00585773 -0.03585222 0.04414567
v 0.00735015 -0.03560570 0.04456184
v 0.01121236 -0.03465525 0.04449810
v 0.01597605 -0.03271573 0.04457683
v 0.02080909 -0.02984951 0.04471930
v 0.02084527 -0.02979605 0.04474930
v 0.02187640 -0.02899114 0.04414192
v 0.02445121 -0.02679915 0.04414192
v 0.02670039 -0.01470760 0.02009783
v 0.02664009 -0.01460958 0.01978664
v 0.02555469 -0.01632931 0.01965916
v 0.02575067 -0.01569073 0.01930673
v 0.02168043 -0.01068896 0.00722657
v 0.02506024 -0.01486799 0.01726338
v 0.02159601 -0.01211761 0.00845633
v 0.02171962 -0.01154437 0.00807391
v 0.02144526 -0.01114637 0.00722657
v 0.02304622 -0.02724171 0.04125498
v 0.02232865 -0.02759516 0.04029516
v 0.02175882 -0.02792485 0.03972527
v 0.02425523 -0.02566752 0.03933160
v 0.02479793 -0.02518635 0.03933160
v 0.02528033 -0.02468736 0.03933160
v 0.02465020 -0.02409333 0.03583353
v 0.02365525 -0.02309535 0.03017587
v 0.02380600 -0.01942720 0.02106139
v 0.02370047 -0.01930542 0.02044276
v 0.02357083 -0.01915691 0.01980163
v 0.02448739 -0.01811735 0.01992536
v 0.02480999 -0.01779658 0.02018406
v 0.02509038 -0.01779955 0.02106139
v 0.02555469 -0.01825398 0.02352091
v 0.02549138 -0.01718769 0.02106139
v 0.02566926 -0.01651643 0.02030404
v 0.00779336 -0.02287556 0.00722657
v 0.00843555 -0.02508240 0.01178569
v 0.00925864 -0.02791296 0.01766080
v 0.00965662 -0.02856343 0.01919425
v 0.01137517 -0.02799316 0.01943795
v 0.01201737 -0.02785950 0.01972290
v 0.00994606 -0.02876540 0.01989537
v 0.00965662 -0.02896441 0.02016906
v 0.00874007 -0.02921390 0.02010158
v 0.00681951 -0.02968319 0.02011657
v 0.00970185 -0.02919905 0.02106139
v 0.01010284 -0.03076136 0.02739766
v 0.01016314 -0.03173854 0.03118068
v 0.01019329 -0.03270978 0.03498994
v 0.00988878 -0.03359787 0.03816558
v 0.00731397 -0.03463446 0.03979651
v 0.00632807 -0.03462851 0.03885544
v 0.00565271 -0.03373449 0.03474249
v 0.00561955 -0.03276622 0.03092948
v 0.00520046 -0.03365430 0.03409761
v 0.00509192 -0.03369588 0.03422134
v 0.00548086 -0.03561164 0.04259722
v 0.00509192 -0.03563243 0.04249974
v 0.00585773 -0.03527007 0.04125873
v 0.00612607 -0.03554927 0.04290466
v 0.00643661 -0.03561461 0.04354578
v 0.00678032 -0.03566807 0.04420191
v 0.00823656 -0.03462554 0.04080881
v 0.01066062 -0.03472950 0.04416441
v 0.01157115 -0.03444436 0.04416441
v 0.01258720 -0.03402854 0.04414567
v 0.01097719 -0.03458990 0.04386072
v 0.01116111 -0.03367509 0.03978901
v 0.01548159 -0.03284344 0.04421315
v 0.01581023 -0.03264741 0.04393571
v 0.01547557 -0.03221080 0.04125873
v 0.01591877 -0.03172666 0.03988649
v 0.01634991 -0.03245138 0.04421315
v 0.01725441 -0.03194942 0.04414567
v 0.02080909 -0.02984951 0.04449810
v 0.02167741 -0.02882184 0.04284467
v 0.02200001 -0.02813276 0.04125498
v 0.02084527 -0.02981684 0.04446060
v 0.02117391 -0.02951686 0.04416066
v 0.02083020 -0.02891094 0.04056136
v 0.02567831 -0.01620159 0.01978664
v 0.02471652 -0.01747580 0.01943046
v 0.02549138 -0.01650455 0.01978664
v 0.02492456 -0.01685503 0.01911927
v 0.02269346 -0.01636792 0.01478886
v 0.02170455 -0.01344231 0.01002728
v 0.02070658 -0.01239681 0.00722657
v 0.02091160 -0.01206118 0.00722657
v 0.02099904 -0.01191267 0.00722657
v 0.02184625 -0.02800504 0.04029516
v 0.02118898 -0.02854264 0.04026142
v 0.02084527 -0.02875352 0.04001397
v 0.02128245 -0.02820404 0.03937284
v 0.02086939 -0.02798722 0.03760318
v 0.02074276 -0.02788624 0.03696206
v 0.02164425 -0.02686450 0.03617846
v 0.01887346 -0.02504082 0.02338969
v 0.01965736 -0.02392403 0.02202495
v 0.02003424 -0.02328545 0.02106139
v 0.02367937 -0.02407848 0.03299158
v 0.02468035 -0.02507646 0.03865298
v 0.02167440 -0.02207956 0.02167627
v 0.02265125 -0.02209144 0.02451822
v 0.02261507 -0.02108158 0.02175875
v 0.02339294 -0.01990836 0.02106139
v 0.02278391 -0.02032122 0.02032653
v 0.02279899 -0.02005687 0.01978664
v 0.02265427 -0.02016974 0.01968541
v 0.02356781 -0.01915097 0.01978664
v 0.02384218 -0.01851239 0.01931423
v 0.02537078 -0.01683721 0.02003034
v 0.00836621 -0.02264983 0.00722657
v 0.00831194 -0.02310724 0.00803267
v 0.00870992 -0.02251023 0.00722657
v 0.01166763 -0.02770505 0.01912302
v 0.01064856 -0.02812385 0.01912302
v 0.00970486 -0.02608037 0.01460514
v 0.01265051 -0.02725953 0.01906303
v 0.01354898 -0.02705162 0.01940046
v 0.01403440 -0.02693578 0.01961042
v 0.01212591 -0.02783871 0.01978664
v 0.01195104 -0.02791000 0.01978664
v 0.01058826 -0.02859610 0.02016906
v 0.01021138 -0.02886936 0.02054024
v 0.01027470 -0.02985843 0.02428951
v 0.01033500 -0.03084452 0.02803879
v 0.01059127 -0.03373449 0.03941408
v 0.01022344 -0.03367806 0.03881045
v 0.00970185 -0.03393943 0.03933160
v 0.00970185 -0.03416220 0.04029516
v 0.00874007 -0.03439684 0.04029516
v 0.00801345 -0.03457208 0.04029516
v 0.00681348 -0.03485722 0.04029516
v 0.00585773 -0.03507107 0.04029516
v 0.00681348 -0.03469386 0.03956780
v 0.00594516 -0.03480673 0.03924162
v 0.00568587 -0.03469683 0.03858174
v 0.00521252 -0.03461663 0.03794062
v 0.00509192 -0.03466118 0.03807559
v 0.00509192 -0.03518097 0.04029516
v 0.00681348 -0.03505622 0.04125873
v 0.01129678 -0.03372855 0.04029516
v 0.01162542 -0.03421269 0.04318210
v 0.01197214 -0.03361272 0.04103377
v 0.01451680 -0.03283453 0.04230102
v 0.01066363 -0.03391865 0.04029516
v 0.01258720 -0.03319689 0.04029516
v 0.01038625 -0.02894361 0.02106139
v 0.01282538 -0.03260583 0.03837179
v 0.01525849 -0.03185438 0.03933160
v 0.01729964 -0.03101976 0.04029516
v 0.01639815 -0.03153657 0.04024267
v 0.01682930 -0.03169399 0.04195234
v 0.01605444 -0.03179794 0.04053137
v 0.01500221 -0.03078809 0.03498619
v 0.01494191 -0.02979902 0.03123692
v 0.01600922 -0.03081482 0.03681209
v 0.01643433 -0.03127817 0.03933160
v 0.01695593 -0.03176824 0.04259722
v 0.01787550 -0.03078215 0.04078257
v 0.01990158 -0.02987922 0.04221854
v 0.01947948 -0.03058612 0.04414567
v 0.02038096 -0.02958517 0.04221854
v 0.02142114 -0.02861393 0.04125498
v 0.02035684 -0.02913964 0.04026142
v 0.02071563 -0.02883075 0.03992398
v 0.02418589 -0.01787083 0.01905178
v 0.02369143 -0.01738075 0.01761206
v 0.02452658 -0.01718769 0.01878933
v 0.01985032 -0.01449672 0.00798767
v 0.01991364 -0.01368883 0.00722657
v 0.01886442 -0.02598830 0.02629538
v 0.01832172 -0.02471112 0.02102390
v 0.01887648 -0.02408145 0.02049525
v 0.01898803 -0.02417649 0.02106139
v 0.01989856 -0.02316664 0.02037527
v 0.02107441 -0.02239142 0.02106139
v 0.02155681 -0.02196669 0.02106139
v 0.02202112 -0.02148552 0.02106139
v 0.02249749 -0.02094495 0.02106139
v 0.02184323 -0.02129543 0.02009783
v 0.02237990 -0.02065982 0.02004534
v 0.02257889 -0.02031231 0.01978664
v 0.02174072 -0.02117960 0.01958793
v 0.02195780 -0.02064497 0.01921300
v 0.02248543 -0.01996777 0.01913426
v 0.02347133 -0.01807280 0.01817070
v 0.00992194 -0.02200827 0.00722657
v 0.01067871 -0.02239142 0.00852007
v 0.01295503 -0.02592295 0.01681721
v 0.01301533 -0.02691202 0.01869560
v 0.01217113 -0.02408442 0.01281674
v 0.01208973 -0.02307753 0.01097210
v 0.01446253 -0.02642788 0.01918300
v 0.01700718 -0.02506458 0.01952044
v 0.01583133 -0.02589919 0.01978664
v 0.01584038 -0.02590216 0.01980913
v 0.01408867 -0.02696845 0.01978664
v 0.01354898 -0.02732487 0.02010158
v 0.01259021 -0.02773476 0.02006783
v 0.01227062 -0.02796346 0.02036777
v 0.01291282 -0.02783277 0.02082144
v 0.00509192 -0.03500572 0.03953406
v 0.00509192 -0.03495523 0.03931660
v 0.01452584 -0.03161974 0.03733324
v 0.01709160 -0.03088907 0.03933160
v 0.01891869 -0.02986733 0.03965404
v 0.01968450 -0.02974853 0.04109376
v 0.01503839 -0.02888718 0.02817751
v 0.01360928 -0.02811494 0.02294727
v 0.01396807 -0.02786841 0.02259859
v 0.01414595 -0.02795752 0.02323972
v 0.01637102 -0.03049701 0.03647465
v 0.01615092 -0.03090096 0.03740822
v 0.02010961 -0.02904460 0.03933160
v 0.01929556 -0.01488284 0.00763524
v 0.01914180 -0.01474918 0.00722657
v 0.01959405 -0.01417000 0.00722657
v 0.01783631 -0.02498141 0.02067896
v 0.01838805 -0.02434579 0.02014282
v 0.01872874 -0.02395670 0.01985412
v 0.02084527 -0.02229341 0.02023655
v 0.01975987 -0.02305080 0.01978664
v 0.02079402 -0.02215975 0.01978664
v 0.02090557 -0.02224886 0.02026279
v 0.02123421 -0.02184491 0.02000409
v 0.02178294 -0.02122712 0.01978664
v 0.02075784 -0.02212114 0.01962167
v 0.02121612 -0.02142909 0.01921300
v 0.02087542 -0.02127167 0.01848939
v 0.02074276 -0.02018162 0.01675722
v 0.02096587 -0.02200233 0.01978664
v 0.01802625 -0.01653128 0.00784520
v 0.02080909 -0.01929354 0.01569618
v 0.01825841 -0.01578577 0.00722657
v 0.01026565 -0.02185976 0.00722657
v 0.01101036 -0.02206471 0.00817514
v 0.01140532 -0.02130731 0.00722657
v 0.01230982 -0.02225183 0.00978358
v 0.01543336 -0.02524278 0.01817070
v 0.01402837 -0.02020241 0.00807391
v 0.01691975 -0.02404878 0.01769079
v 0.01742024 -0.02454777 0.01911177
v 0.01808655 -0.02421808 0.01934422
v 0.01766747 -0.02487448 0.02010158
v 0.01709160 -0.02511804 0.01978664
v 0.01718808 -0.02518041 0.02010158
v 0.01638308 -0.02568237 0.02011657
v 0.01602731 -0.02601800 0.02045026
v 0.01417610 -0.02702191 0.02010158
v 0.01348265 -0.02766347 0.02111013
v 0.01841217 -0.03008416 0.03933160
v 0.01453187 -0.02713181 0.02112888
v 0.01486051 -0.02685558 0.02085518
v 0.01666046 -0.02581603 0.02106139
v 0.01733582 -0.02569128 0.02205120
v 0.01825539 -0.02428936 0.01978664
v 0.01870463 -0.02394185 0.01978664
v 0.01974480 -0.02303595 0.01973040
v 0.02084527 -0.02220133 0.02000409
v 0.01838805 -0.02378740 0.01906678
v 0.01905135 -0.02326465 0.01913426
v 0.02057392 -0.02196372 0.01913426
v 0.02026036 -0.02162512 0.01820444
v 0.01787852 -0.01827774 0.00999728
v 0.01689864 -0.01730056 0.00722657
v 0.01698909 -0.01720848 0.00722657
v 0.01796294 -0.01741045 0.00890625
v 0.01782123 -0.01629367 0.00722657
v 0.01066062 -0.02168453 0.00722657
v 0.01218319 -0.02083506 0.00722657
v 0.01495397 -0.02017568 0.00907871
v 0.01607555 -0.02221321 0.01369032
v 0.01368466 -0.01991727 0.00722657
v 0.01435097 -0.01945987 0.00722657
v 0.01682327 -0.02302110 0.01587240
v 0.01783631 -0.02401611 0.01870310
v 0.01796897 -0.02316664 0.01757082
v 0.01875287 -0.02013113 0.01395277
v 0.01680518 -0.01738372 0.00722657
v 0.01735994 -0.01681345 0.00722657
v 0.01481528 -0.01908266 0.00722657
v 0.01543336 -0.01997965 0.00939740
v 0.01543336 -0.01855991 0.00722657
v 0.01639212 -0.01774014 0.00722657
f 1 2 3
f 1 3 4
f 1 4 5
f 1 5 6
f 1 6 7
f 1 7 8
f 1 8 2
f 2 8 9
f 2 9 10
f 2 10 3
f 3 10 11
f 3 11 12
f 3 12 13
f 3 13 4
f 4 13 14
f 4 14 5
f 5 14 15
f 5 15 16
f 5 16 6
f 6 17 18
f 6 18 19
f 6 19 7
f 6 16 17
f 7 19 8
f 8 20 21
f 8 21 22
f 8 22 9
f 8 19 23
f 8 23 24
f 8 24 25
f 8 25 26
f 8 26 27
f 8 27 28
f 8 28 64
f 8 64 107
f 8 107 80
f 8 80 45
f 8 45 20
f 9 22 11
f 9 11 10
f 11 29 30
f 11 30 31
f 11 31 12
f 11 22 29
f 12 31 13
f 13 31 32
f 13 32 33
f 13 33 34
f 13 34 14
f 14 34 35
f 14 35 15
f 15 35 36
f 15 36 37
f 15 37 38
f 15 38 16
f 16 38 17
f 17 38 39
f 17 39 40
f 17 40 41
f 17 41 18
f 18 42 43
f 18 43 44
f 18 44 23
f 18 23 19
f 18 41 42
f 20 45 46
f 20 46 47
f 20 47 48
f 20 48 49
f 20 49 21
f 21 49 50
f 21 50 51
f 21 51 52
f 21 52 53
f 21 53 30
f 21 30 29
f 21 29 22
f 23 44 24
f 24 44 25
f 25 44 26
f 26 44 54
f 26 54 55
f 26 55 56
f 26 56 57
f 26 57 27
f 27 57 58
f 27 58 59
f 27 59 60
f 27 60 61
f 27 61 28
f 28 61 60
f 28 60 62
f 28 62 63
f 28 63 64
f 30 65 31
f 30 53 66
f 30 66 65
f 31 67 32
f 31 65 67
f 32 67 33
f 33 68 34
f 33 67 69
f 33 69 70
f 33 70 68
f 34 70 71
f 34 71 72
f 34 72 35
f 34 68 70
f 35 72 73
f 35 73 74
f 35 74 75
f 35 75 36
f 36 75 37
f 37 39 38
f 37 75 39
f 39 41 40
f 39 75 76
f 39 76 42
f 39 42 41
f 42 77 78
f 42 78 43
f 42 76 77
f 43 54 44
f 43 78 79
f 43 79 55
f 43 55 54
f 45 80 46
f 46 81 47
f 46 80 82
f 46 82 83
f 46 83 84
f 46 84 81
f 47 81 48
f 48 81 85
f 48 85 50
f 48 50 49
f 50 86 51
f 50 85 81
f 50 81 84
f 50 84 83
f 50 83 128
f 50 128 172
f 50 172 220
f 50 220 273
f 50 273 324
f 50 324 380
f 50 380 463
f 50 463 528
f 50 528 527
f 50 527 464
f 50 464 382
f 50 382 325
f 50 325 275
f 50 275 221
f 50 221 174
f 50 174 129
f 50 129 86
f 51 86 87
f 51 87 88
f 51 88 89
f 51 89 90
f 51 90 91
f 51 91 92
f 51 92 93
f 51 93 94
f 51 94 66
f 51 66 53
f 51 53 52
f 55 79 56
f 56 79 95
f 56 95 96
f 56 96 97
f 56 97 57
f 57 97 98
f 57 98 59
f 57 59 58
f 59 99 62
f 59 62 60
f 59 98 96
f 59 96 100
f 59 100 99
f 62 99 101
f 62 101 102
f 62 102 63
f 63 103 104
f 63 104 105
f 63 105 106
f 63 106 64
f 63 102 103
f 64 106 107
f 65 66 108
f 65 108 67
f 66 94 109
f 66 109 108
f 67 108 109
f 67 109 110
f 67 110 111
f 67 111 112
f 67 112 69
f 69 112 113
f 69 113 70
f 70 114 71
f 70 113 115
f 70 115 116
f 70 116 117
f 70 117 118
f 70 118 119
f 70 119 114
f 71 114 72
f 72 120 73
f 72 114 120
f 73 120 121
f 73 121 74
f 74 121 122
f 74 122 76
f 74 76 75
f 76 122 123
f 76 123 124
f 76 124 77
f 77 124 125
f 77 125 126
f 77 126 79
f 77 79 78
f 79 126 95
f 80 107 106
f 80 106 105
f 80 105 146
f 80 146 191
f 80 191 189
f 80 189 245
f 80 245 244
f 80 244 293
f 80 293 292
f 80 292 338
f 80 338 342
f 80 342 413
f 80 413 412
f 80 412 411
f 80 411 495
f 80 495 542
f 80 542 541
f 80 541 559
f 80 559 593
f 80 593 605
f 80 605 591
f 80 591 590
f 80 590 604
f 80 604 609
f 80 609 608
f 80 608 606
f 80 606 599
f 80 599 598
f 80 598 595
f 80 595 562
f 80 562 594
f 80 594 560
f 80 560 512
f 80 512 438
f 80 438 436
f 80 436 360
f 80 360 314
f 80 314 265
f 80 265 216
f 80 216 171
f 80 171 127
f 80 127 82
f 82 127 83
f 83 127 128
f 86 129 87
f 87 129 130
f 87 130 88
f 88 130 131
f 88 131 176
f 88 176 132
f 88 132 133
f 88 133 89
f 89 133 90
f 90 133 134
f 90 134 91
f 91 134 135
f 91 135 92
f 92 135 136
f 92 136 137
f 92 137 138
f 92 138 109
f 92 109 93
f 93 109 94
f 95 126 96
f 96 139 140
f 96 140 141
f 96 141 100
f 96 98 97
f 96 126 139
f 99 142 143
f 99 143 144
f 99 144 101
f 99 100 141
f 99 141 142
f 101 144 103
f 101 103 102
f 103 143 104
f 103 144 143
f 104 143 145
f 104 145 146
f 104 146 105
f 109 138 110
f 110 147 111
f 110 138 147
f 111 148 149
f 111 149 113
f 111 113 112
f 111 147 148
f 113 149 116
f 113 116 115
f 114 119 150
f 114 150 120
f 116 118 117
f 116 149 151
f 116 151 152
f 116 152 153
f 116 153 154
f 116 154 155
f 116 155 156
f 116 156 157
f 116 157 118
f 118 158 119
f 118 157 159
f 118 159 160
f 118 160 158
f 119 158 161
f 119 161 150
f 120 150 162
f 120 162 121
f 121 162 163
f 121 163 122
f 122 163 164
f 122 164 123
f 123 164 165
f 123 165 166
f 123 166 167
f 123 167 124
f 124 167 125
f 125 167 168
f 125 168 169
f 125 169 126
f 126 169 170
f 126 170 139
f 127 171 172
f 127 172 128
f 129 173 131
f 129 131 130
f 129 174 173
f 131 173 175
f 131 175 176
f 132 176 177
f 132 177 133
f 133 177 178
f 133 178 179
f 133 179 134
f 134 179 180
f 134 180 181
f 134 181 135
f 135 181 182
f 135 182 136
f 136 182 137
f 137 147 138
f 137 182 147
f 139 183 140
f 139 170 184
f 139 184 183
f 140 183 141
f 141 185 186
f 141 186 187
f 141 187 188
f 141 188 143
f 141 143 142
f 141 183 185
f 143 189 190
f 143 190 145
f 143 188 189
f 145 190 191
f 145 191 146
f 147 182 192
f 147 192 193
f 147 193 148
f 148 193 194
f 148 194 195
f 148 195 196
f 148 196 151
f 148 151 149
f 150 161 197
f 150 197 162
f 151 196 152
f 152 198 199
f 152 199 200
f 152 200 153
f 152 196 198
f 153 200 201
f 153 201 154
f 154 201 155
f 155 202 156
f 155 201 203
f 155 203 202
f 156 202 157
f 157 202 204
f 157 204 159
f 158 160 159
f 158 159 205
f 158 205 161
f 159 204 205
f 161 206 162
f 161 162 197
f 161 205 207
f 161 207 208
f 161 208 206
f 162 208 209
f 162 209 163
f 162 206 208
f 163 209 165
f 163 165 164
f 165 209 166
f 166 168 167
f 166 209 208
f 166 208 210
f 166 210 211
f 166 211 212
f 166 212 213
f 166 213 168
f 168 213 214
f 168 214 170
f 168 170 169
f 170 214 213
f 170 213 215
f 170 215 184
f 171 216 217
f 171 217 172
f 172 217 218
f 172 218 219
f 172 219 220
f 173 174 221
f 173 221 222
f 173 222 223
f 173 223 175
f 175 223 224
f 175 224 225
f 175 225 176
f 176 225 177
f 177 225 226
f 177 226 227
f 177 227 228
f 177 228 229
f 177 229 178
f 178 229 230
f 178 230 231
f 178 231 179
f 179 231 232
f 179 232 233
f 179 233 234
f 179 234 182
f 179 182 180
f 180 182 181
f 182 234 235
f 182 235 194
f 182 194 192
f 183 184 236
f 183 236 237
f 183 237 185
f 184 215 236
f 185 237 238
f 185 238 186
f 186 238 239
f 186 239 187
f 187 240 188
f 187 239 241
f 187 241 242
f 187 242 243
f 187 243 240
f 188 240 244
f 188 244 245
f 188 245 189
f 189 191 190
f 192 194 193
f 194 235 246
f 194 246 198
f 194 198 195
f 195 198 196
f 198 246 199
f 199 247 248
f 199 248 200
f 199 246 247
f 200 248 249
f 200 249 201
f 201 249 203
f 202 203 250
f 202 250 204
f 203 249 248
f 203 248 251
f 203 251 252
f 203 252 253
f 203 253 254
f 203 254 255
f 203 255 256
f 203 256 250
f 204 250 257
f 204 257 258
f 204 258 205
f 205 258 207
f 207 212 210
f 207 210 208
f 207 258 259
f 207 259 260
f 207 260 261
f 207 261 262
f 207 262 263
f 207 263 264
f 207 264 212
f 210 212 211
f 212 264 213
f 213 264 236
f 213 236 215
f 216 265 266
f 216 266 267
f 216 267 268
f 216 268 269
f 216 269 217
f 217 269 270
f 217 270 218
f 218 270 219
f 219 270 220
f 220 271 272
f 220 272 273
f 220 270 274
f 220 274 271
f 221 275 222
f 222 275 276
f 222 276 224
f 222 224 223
f 224 276 277
f 224 277 278
f 224 278 225
f 225 278 279
f 225 279 280
f 225 280 226
f 226 280 227
f 227 280 228
f 228 280 281
f 228 281 282
f 228 282 229
f 229 283 230
f 229 282 284
f 229 284 283
f 230 283 231
f 231 283 232
f 232 283 285
f 232 285 286
f 232 286 287
f 232 287 235
f 232 235 233
f 233 235 234
f 235 287 246
f 236 288 238
f 236 238 237
f 236 264 289
f 236 289 290
f 236 290 288
f 238 288 291
f 238 291 241
f 238 241 239
f 240 243 292
f 240 292 293
f 240 293 244
f 241 291 242
f 242 291 294
f 242 294 295
f 242 295 296
f 242 296 243
f 243 296 292
f 246 287 286
f 246 286 285
f 246 285 297
f 246 297 298
f 246 298 299
f 246 299 300
f 246 300 247
f 247 300 301
f 247 301 251
f 247 251 248
f 250 256 257
f 251 301 302
f 251 302 252
f 252 302 303
f 252 303 253
f 253 303 304
f 253 304 305
f 253 305 254
f 254 305 306
f 254 306 307
f 254 307 255
f 255 259 256
f 255 307 308
f 255 308 259
f 256 259 257
f 257 259 258
f 259 308 309
f 259 309 310
f 259 310 311
f 259 311 260
f 260 311 261
f 261 311 262
f 262 310 312
f 262 312 313
f 262 313 263
f 262 311 310
f 263 313 289
f 263 289 264
f 265 314 315
f 265 315 266
f 266 315 270
f 266 270 269
f 266 269 267
f 267 269 268
f 270 315 316
f 270 316 274
f 271 317 272
f 271 274 317
f 272 318 319
f 272 319 320
f 272 320 321
f 272 321 322
f 272 322 273
f 272 317 323
f 272 323 318
f 273 322 324
f 274 316 317
f 275 325 326
f 275 326 276
f 276 326 277
f 277 327 328
f 277 328 278
f 277 326 327
f 278 328 329
f 278 329 281
f 278 281 279
f 279 281 280
f 281 329 399
f 281 399 330
f 281 330 282
f 282 330 284
f 283 284 285
f 284 330 331
f 284 331 285
f 285 331 330
f 285 330 332
f 285 332 333
f 285 333 297
f 288 290 334
f 288 334 335
f 288 335 291
f 289 313 290
f 290 313 334
f 291 336 337
f 291 337 294
f 291 335 336
f 292 296 338
f 294 337 295
f 295 337 339
f 295 339 340
f 295 340 341
f 295 341 296
f 296 341 342
f 296 342 338
f 297 333 298
f 298 343 299
f 298 333 343
f 299 344 345
f 299 345 346
f 299 346 347
f 299 347 300
f 299 343 344
f 300 347 301
f 301 347 348
f 301 348 302
f 302 348 349
f 302 349 350
f 302 350 303
f 303 350 351
f 303 351 304
f 304 351 305
f 305 351 306
f 306 351 352
f 306 352 353
f 306 353 354
f 306 354 355
f 306 355 356
f 306 356 357
f 306 357 307
f 307 309 308
f 307 357 310
f 307 310 309
f 310 357 358
f 310 358 312
f 312 358 359
f 312 359 334
f 312 334 313
f 314 360 361
f 314 361 362
f 314 362 315
f 315 362 363
f 315 363 364
f 315 364 365
f 315 365 366
f 315 366 367
f 315 367 368
f 315 368 316
f 316 368 369
f 316 369 317
f 317 369 368
f 317 368 323
f 318 367 370
f 318 370 319
f 318 323 368
f 318 368 367
f 319 370 371
f 319 371 372
f 319 372 373
f 319 373 320
f 320 373 374
f 320 374 375
f 320 375 321
f 321 375 376
f 321 376 377
f 321 377 378
f 321 378 322
f 322 378 324
f 324 378 379
f 324 379 380
f 325 381 326
f 325 382 381
f 326 381 383
f 326 383 384
f 326 384 385
f 326 385 386
f 326 386 327
f 327 386 387
f 327 387 388
f 327 388 328
f 328 389 390
f 328 390 329
f 328 388 391
f 328 391 392
f 328 392 389
f 329 393 394
f 329 394 395
f 329 395 396
f 329 396 397
f 329 397 398
f 329 398 399
f 329 390 393
f 330 399 332
f 332 400 401
f 332 401 333
f 332 399 402
f 332 402 403
f 332 403 404
f 332 404 400
f 333 401 343
f 334 405 336
f 334 336 335
f 334 359 405
f 336 406 337
f 336 405 359
f 336 359 407
f 336 407 355
f 336 355 406
f 337 406 408
f 337 408 409
f 337 409 410
f 337 410 339
f 339 410 340
f 340 410 411
f 340 411 412
f 340 412 341
f 341 412 413
f 341 413 342
f 343 401 344
f 344 401 414
f 344 414 345
f 345 414 415
f 345 415 416
f 345 416 417
f 345 417 418
f 345 418 419
f 345 419 420
f 345 420 346
f 346 420 421
f 346 421 422
f 346 422 423
f 346 423 424
f 346 424 425
f 346 425 347
f 347 425 348
f 348 425 349
f 349 425 350
f 350 425 424
f 350 424 426
f 350 426 427
f 350 427 428
f 350 428 429
f 350 429 351
f 351 429 352
f 352 429 430
f 352 430 431
f 352 431 353
f 353 431 432
f 353 432 433
f 353 433 354
f 354 433 434
f 354 434 406
f 354 406 355
f 355 407 435
f 355 435 359
f 355 359 358
f 355 358 356
f 356 358 357
f 359 435 407
f 360 436 437
f 360 437 361
f 361 437 438
f 361 438 362
f 362 439 440
f 362 440 363
f 362 438 441
f 362 441 439
f 363 440 364
f 364 440 439
f 364 439 442
f 364 442 443
f 364 443 365
f 365 443 444
f 365 444 445
f 365 445 446
f 365 446 366
f 366 446 445
f 366 445 447
f 366 447 448
f 366 448 367
f 367 448 370
f 370 448 449
f 370 449 371
f 371 450 392
f 371 392 372
f 371 449 450
f 372 392 373
f 373 392 451
f 373 451 452
f 373 452 374
f 374 452 453
f 374 453 375
f 375 454 455
f 375 455 456
f 375 456 457
f 375 457 458
f 375 458 459
f 375 459 376
f 375 453 454
f 376 460 461
f 376 461 377
f 376 459 460
f 377 379 378
f 377 461 379
f 379 461 462
f 379 462 380
f 380 462 463
f 381 382 464
f 381 464 458
f 381 458 383
f 383 458 385
f 383 385 384
f 385 458 457
f 385 457 465
f 385 465 386
f 386 465 387
f 387 465 457
f 387 457 456
f 387 456 455
f 387 455 391
f 387 391 388
f 389 392 466
f 389 466 467
f 389 467 390
f 390 467 468
f 390 468 469
f 390 469 393
f 391 455 454
f 391 454 470
f 391 470 392
f 392 396 471
f 392 471 468
f 392 468 466
f 392 470 451
f 392 450 472
f 392 472 473
f 392 473 474
f 392 474 396
f 393 469 394
f 394 469 395
f 395 469 468
f 395 468 471
f 395 471 396
f 396 475 476
f 396 476 477
f 396 477 478
f 396 478 397
f 396 474 479
f 396 479 480
f 396 480 481
f 396 481 482
f 396 482 475
f 397 478 398
f 398 483 475
f 398 475 484
f 398 484 485
f 398 485 486
f 398 486 399
f 398 478 483
f 399 486 487
f 399 487 404
f 399 404 402
f 400 404 415
f 400 415 488
f 400 488 401
f 401 488 415
f 401 415 414
f 402 404 403
f 404 487 489
f 404 489 490
f 404 490 416
f 404 416 415
f 406 434 491
f 406 491 492
f 406 492 409
f 406 409 493
f 406 493 408
f 408 493 409
f 409 494 495
f 409 495 410
f 409 492 494
f 410 495 411
f 416 490 417
f 417 490 418
f 418 490 419
f 419 490 496
f 419 496 421
f 419 421 420
f 421 497 498
f 421 498 499
f 421 499 422
f 421 496 497
f 422 499 423
f 423 499 498
f 423 498 500
f 423 500 501
f 423 501 426
f 423 426 424
f 426 501 502
f 426 502 503
f 426 503 427
f 427 503 428
f 428 503 504
f 428 504 429
f 429 504 430
f 430 504 503
f 430 503 505
f 430 505 506
f 430 506 507
f 430 507 431
f 431 507 508
f 431 508 432
f 432 508 434
f 432 434 433
f 434 508 509
f 434 509 510
f 434 510 511
f 434 511 492
f 434 492 491
f 436 438 437
f 438 512 441
f 439 441 512
f 439 512 513
f 439 513 514
f 439 514 515
f 439 515 442
f 442 515 443
f 443 515 514
f 443 514 444
f 444 514 516
f 444 516 517
f 444 517 518
f 444 518 519
f 444 519 520
f 444 520 521
f 444 521 522
f 444 522 523
f 444 523 445
f 445 523 524
f 445 524 525
f 445 525 447
f 447 525 448
f 448 526 472
f 448 472 449
f 448 525 526
f 449 472 450
f 451 453 452
f 451 470 454
f 451 454 453
f 458 464 527
f 458 527 528
f 458 528 461
f 458 461 460
f 458 460 459
f 461 528 462
f 462 528 463
f 466 468 467
f 472 526 473
f 473 529 474
f 473 526 529
f 474 529 479
f 475 482 530
f 475 530 531
f 475 531 489
f 475 489 532
f 475 532 484
f 475 483 477
f 475 477 476
f 477 483 478
f 479 529 526
f 479 526 480
f 480 533 481
f 480 526 534
f 480 534 535
f 480 535 536
f 480 536 533
f 481 533 537
f 481 537 530
f 481 530 538
f 481 538 482
f 482 538 530
f 484 532 485
f 485 532 487
f 485 487 486
f 487 532 489
f 489 531 490
f 490 531 539
f 490 539 496
f 492 511 540
f 492 540 494
f 494 540 541
f 494 541 542
f 494 542 495
f 496 539 543
f 496 543 497
f 497 543 498
f 498 544 545
f 498 545 500
f 498 543 544
f 500 546 501
f 500 545 547
f 500 547 548
f 500 548 546
f 501 546 502
f 502 546 549
f 502 549 550
f 502 550 551
f 502 551 505
f 502 505 503
f 505 551 506
f 506 551 507
f 507 551 508
f 508 552 553
f 508 553 554
f 508 554 555
f 508 555 509
f 508 551 550
f 508 550 556
f 508 556 552
f 509 555 557
f 509 557 558
f 509 558 510
f 510 558 559
f 510 559 511
f 511 559 540
f 512 560 561
f 512 561 513
f 513 561 514
f 514 561 516
f 516 561 517
f 517 561 562
f 517 562 563
f 517 563 518
f 518 564 519
f 518 563 565
f 518 565 564
f 519 564 566
f 519 566 567
f 519 567 568
f 519 568 569
f 519 569 570
f 519 570 520
f 520 570 571
f 520 571 521
f 521 571 572
f 521 572 522
f 522 572 573
f 522 573 574
f 522 574 575
f 522 575 523
f 523 575 526
f 523 526 524
f 524 526 525
f 526 575 535
f 526 535 534
f 530 537 576
f 530 576 531
f 531 576 539
f 533 576 537
f 533 536 577
f 533 577 578
f 533 578 579
f 533 579 576
f 535 575 574
f 535 574 577
f 535 577 536
f 539 576 579
f 539 579 580
f 539 580 543
f 540 559 541
f 543 580 579
f 543 579 578
f 543 578 573
f 543 573 572
f 543 572 571
f 543 571 569
f 543 569 544
f 544 569 581
f 544 581 545
f 545 581 568
f 545 568 582
f 545 582 583
f 545 583 547
f 546 548 584
f 546 584 549
f 547 583 552
f 547 552 548
f 548 556 584
f 548 552 556
f 549 584 550
f 550 584 556
f 552 583 568
f 552 568 585
f 552 585 586
f 552 586 587
f 552 587 554
f 552 554 553
f 554 588 589
f 554 589 555
f 554 587 588
f 555 589 590
f 555 590 591
f 555 591 592
f 555 592 557
f 557 592 593
f 557 593 559
f 557 559 558
f 560 594 561
f 561 594 562
f 562 595 563
f 563 595 565
f 564 565 566
f 565 596 597
f 565 597 566
f 565 595 598
f 565 598 599
f 565 599 596
f 566 597 600
f 566 600 601
f 566 601 567
f 567 601 568
f 568 583 582
f 568 581 569
f 568 601 585
f 569 571 570
f 573 578 574
f 574 578 577
f 585 601 602
f 585 602 603
f 585 603 588
f 585 588 587
f 585 587 586
f 588 603 589
f 589 603 604
f 589 604 590
f 591 605 592
f 592 605 593
f 596 599 606
f 596 606 607
f 596 607 601
f 596 601 600
f 596 600 597
f 601 607 602
f 602 607 608
f 602 608 603
f 603 608 609
f 603 609 604
f 606 608 607

