# https://github.com/mikedh/trimesh
v 0.06070385 -0.00048068 0.02586842
v 0.06045636 -0.00144282 0.02586842
v 0.06066632 -0.00048068 0.02490575
v 0.06066632 0.00048069 0.02490575
v 0.06070283 0.00048069 0.02586842
v 0.06068255 0.00048069 0.02682876
v 0.06068255 -0.00048068 0.02682876
v 0.06022104 -0.00194742 0.02586842
v 0.06021597 -0.00193739 0.02528200
v 0.06038637 -0.00151920 0.02493943
v 0.06039449 -0.00153078 0.02684618
v 0.06021800 -0.00194125 0.02653613
v 0.06037826 -0.00132863 0.02394425
v 0.06057199 -0.00048068 0.02394425
v 0.06057199 0.00048069 0.02394425
v 0.06037826 0.00132863 0.02394425
v 0.06038637 0.00151921 0.02493943
v 0.06045636 0.00144283 0.02586842
v 0.06039449 0.00153078 0.02684502
v 0.06039449 0.00136336 0.02779143
v 0.06060445 0.00048069 0.02779143
v 0.06060445 -0.00048068 0.02779143
v 0.06039449 -0.00136335 0.02779143
v 0.05984779 -0.00242810 0.02586842
v 0.05989343 -0.00231700 0.02493943
v 0.06019265 -0.00189110 0.02464099
v 0.06020177 -0.00190961 0.02717830
v 0.05990560 -0.00231931 0.02684618
v 0.06015309 -0.00181008 0.02394425
v 0.06030422 -0.00116968 0.02298159
v 0.06024336 -0.00103775 0.02235800
v 0.06042086 -0.00048068 0.02298159
v 0.06042086 0.00048069 0.02298159
v 0.06024336 0.00103776 0.02235800
v 0.06030422 0.00116969 0.02298159
v 0.06015309 0.00181009 0.02394425
v 0.06019265 0.00189110 0.02464099
v 0.06021597 0.00193740 0.02528200
v 0.06021800 0.00194126 0.02653613
v 0.06022104 0.00194743 0.02586842
v 0.06020177 0.00190962 0.02717713
v 0.06017033 0.00184481 0.02779143
v 0.06032754 0.00121907 0.02875293
v 0.06026060 0.00107633 0.02946825
v 0.06046752 0.00048069 0.02875293
v 0.06046752 -0.00048068 0.02875293
v 0.06026060 -0.00107633 0.02946825
v 0.06032754 -0.00121906 0.02875293
v 0.06017033 -0.00184480 0.02779143
v 0.05935484 -0.00297283 0.02682876
v 0.05936600 -0.00298208 0.02586842
v 0.05934571 -0.00296588 0.02490575
v 0.05929500 -0.00292499 0.02394425
v 0.05971998 -0.00240496 0.02394425
v 0.05975447 -0.00240496 0.02779143
v 0.05931123 -0.00293888 0.02779143
v 0.05953031 -0.00246977 0.02304545
v 0.05948365 -0.00225527 0.02202008
v 0.06007397 -0.00165114 0.02298159
v 0.06027074 -0.00048068 0.02225117
v 0.05998471 -0.00139189 0.02203053
v 0.05967434 -0.00144282 0.02105742
v 0.05944815 -0.00141427 0.02037229
v 0.05993400 -0.00048068 0.02105742
v 0.06014802 -0.00048068 0.02177042
v 0.06027074 0.00048069 0.02225117
v 0.06007397 0.00165115 0.02298159
v 0.06014802 0.00048069 0.02177042
v 0.05993400 0.00048069 0.02105742
v 0.05950698 0.00119824 0.02037229
v 0.05944815 0.00141428 0.02037229
v 0.05967434 0.00144283 0.02105742
v 0.05998471 0.00139190 0.02203053
v 0.05948365 0.00225528 0.02202008
v 0.05953031 0.00246978 0.02304545
v 0.05971998 0.00240496 0.02394425
v 0.05989343 0.00231701 0.02493943
v 0.05984779 0.00242811 0.02586842
v 0.05990560 0.00231855 0.02684502
v 0.05975447 0.00240496 0.02779143
v 0.05955770 0.00248212 0.02873668
v 0.05951611 0.00229309 0.02971560
v 0.06009933 0.00170053 0.02875293
v 0.06029712 0.00048069 0.02962270
v 0.06002731 0.00141505 0.02975972
v 0.05975853 0.00144283 0.03067710
v 0.05934267 0.00116815 0.03223548
v 0.06001616 0.00048069 0.03067710
v 0.06018656 0.00048069 0.03010345
v 0.06029712 -0.00048068 0.02962270
v 0.06009832 -0.00170052 0.02875293
v 0.06018656 -0.00048068 0.03010345
v 0.06001616 -0.00048068 0.03067710
v 0.05937411 -0.00105086 0.03223548
v 0.05934267 -0.00116814 0.03223548
v 0.05975853 -0.00144282 0.03067710
v 0.06002731 -0.00141504 0.02975972
v 0.05951611 -0.00229308 0.02971560
v 0.05955770 -0.00248211 0.02873668
v 0.05876554 -0.00332312 0.02779143
v 0.05876554 -0.00337172 0.02682876
v 0.05876554 -0.00338561 0.02586842
v 0.05876554 -0.00336247 0.02490575
v 0.05876554 -0.00330228 0.02394425
v 0.05925645 -0.00289490 0.02340892
v 0.05927065 -0.00290570 0.02840572
v 0.05884059 -0.00317729 0.02873668
v 0.05919052 -0.00283394 0.02276792
v 0.05909721 -0.00273673 0.02202008
v 0.05934165 -0.00206855 0.02105742
v 0.05925747 -0.00194279 0.02054763
v 0.05931630 -0.00169049 0.02037229
v 0.05969361 -0.00048068 0.02037229
v 0.05969361 0.00048069 0.02037229
v 0.05931630 0.00169050 0.02037229
v 0.05925747 0.00194280 0.02054879
v 0.05934165 0.00206856 0.02105742
v 0.05909721 0.00273674 0.02202008
v 0.05919052 0.00283395 0.02276792
v 0.05925645 0.00289491 0.02340892
v 0.05929500 0.00292500 0.02394425
v 0.05934571 0.00296589 0.02490575
v 0.05936600 0.00298209 0.02586842
v 0.05935484 0.00297283 0.02682876
v 0.05931123 0.00293889 0.02779143
v 0.05927065 0.00290571 0.02840572
v 0.05921081 0.00285401 0.02904673
v 0.05913170 0.00277377 0.02971560
v 0.05938426 0.00212952 0.03067710
v 0.05928891 0.00199449 0.03127282
v 0.05944106 0.00144823 0.03161190
v 0.05910634 0.00162569 0.03223548
v 0.05946236 0.00048069 0.03223548
v 0.05969361 0.00048069 0.03163977
v 0.05916720 0.00177228 0.03191382
v 0.05938426 -0.00212951 0.03067710
v 0.05969361 -0.00048068 0.03163977
v 0.05946236 -0.00048068 0.03223548
v 0.05929601 -0.00126381 0.03223548
v 0.05944106 -0.00144822 0.03161190
v 0.05928891 -0.00199448 0.03127282
v 0.05913170 -0.00277376 0.02971560
v 0.05921081 -0.00285401 0.02904673
v 0.05780297 -0.00362248 0.02971560
v 0.05789832 -0.00375133 0.02779143
v 0.05794700 -0.00376599 0.02682876
v 0.05796019 -0.00377062 0.02586842
v 0.05793788 -0.00376368 0.02490575
v 0.05787803 -0.00374439 0.02394425
v 0.05882842 -0.00315877 0.02304545
v 0.05780297 -0.00358699 0.02202008
v 0.05865092 -0.00316572 0.02971560
v 0.05861542 -0.00313948 0.02202008
v 0.05846632 -0.00302375 0.02105742
v 0.05835069 -0.00293579 0.02041409
v 0.05894811 -0.00254924 0.02105742
v 0.05902317 -0.00214262 0.02037229
v 0.05922298 -0.00187644 0.02037229
v 0.05902317 0.00214263 0.02037229
v 0.05894811 0.00254925 0.02105742
v 0.05835069 0.00293580 0.02041409
v 0.05846632 0.00302376 0.02105742
v 0.05861542 0.00313949 0.02202008
v 0.05882842 0.00315878 0.02304545
v 0.05876554 0.00330229 0.02394425
v 0.05876554 0.00336247 0.02490575
v 0.05876554 0.00338562 0.02586842
v 0.05876554 0.00337173 0.02682876
v 0.05876554 0.00332312 0.02779143
v 0.05884059 0.00317730 0.02873668
v 0.05865092 0.00316573 0.02971560
v 0.05851095 0.00305848 0.03067710
v 0.05838315 0.00296049 0.03140984
v 0.05899274 0.00261020 0.03067710
v 0.05877568 0.00242811 0.03166183
v 0.05863165 0.00232164 0.03223548
v 0.05899274 -0.00261019 0.03067710
v 0.05910634 -0.00162568 0.03223548
v 0.05916720 -0.00177227 0.03191498
v 0.05887406 -0.00199680 0.03223548
v 0.05863165 -0.00232163 0.03223548
v 0.05877568 -0.00242810 0.03166183
v 0.05838315 -0.00296048 0.03140984
v 0.05851095 -0.00305847 0.03067710
v 0.05773197 -0.00373899 0.02877267
v 0.05780297 -0.00347974 0.03067710
v 0.05704935 -0.00378760 0.03067710
v 0.05736379 -0.00385704 0.02846495
v 0.05741754 -0.00386938 0.02779143
v 0.05729380 -0.00384161 0.02910711
v 0.05746522 -0.00388095 0.02682876
v 0.05747942 -0.00388404 0.02586842
v 0.05745609 -0.00387864 0.02490575
v 0.05739726 -0.00386475 0.02394425
v 0.05734654 -0.00385318 0.02335899
v 0.05727047 -0.00383698 0.02271682
v 0.05772183 -0.00372433 0.02301526
v 0.05699864 -0.00377448 0.02105742
v 0.05780297 -0.00343191 0.02105742
v 0.05784253 -0.00325213 0.02037229
v 0.05803423 -0.00313408 0.02037229
v 0.05828679 -0.00296742 0.02037229
v 0.05834156 -0.00292885 0.02037229
v 0.05878886 -0.00242347 0.02037229
v 0.05878886 0.00242348 0.02037229
v 0.05841459 0.00284476 0.02037229
v 0.05828578 0.00296743 0.02037229
v 0.05780297 0.00343191 0.02105742
v 0.05784253 0.00325214 0.02037229
v 0.05780297 0.00358700 0.02202008
v 0.05787803 0.00374440 0.02394425
v 0.05793788 0.00376369 0.02490575
v 0.05796019 0.00377063 0.02586842
v 0.05794700 0.00376600 0.02682876
v 0.05789832 0.00375134 0.02779143
v 0.05780297 0.00362249 0.02971560
v 0.05780297 0.00347975 0.03067710
v 0.05788310 0.00321588 0.03169435
v 0.05774212 0.00315801 0.03223548
v 0.05825636 0.00286250 0.03205201
v 0.05821376 0.00282007 0.03223548
v 0.05825636 -0.00286249 0.03205201
v 0.05835069 -0.00265957 0.03223548
v 0.05788310 -0.00321587 0.03169435
v 0.05805350 -0.00294736 0.03223548
v 0.05774212 -0.00315800 0.03223548
v 0.05720860 -0.00382386 0.02971560
v 0.05682215 -0.00362402 0.03223548
v 0.05679274 -0.00374053 0.03164790
v 0.05656858 -0.00389253 0.03067710
v 0.05629270 -0.00383389 0.03197536
v 0.05643875 -0.00386475 0.03133320
v 0.05672782 -0.00392571 0.02971560
v 0.05692054 -0.00391876 0.02877267
v 0.05684143 -0.00393342 0.02779143
v 0.05684143 -0.00393342 0.02394425
v 0.05690634 -0.00391722 0.02301526
v 0.05668827 -0.00391876 0.02202008
v 0.05716904 -0.00381460 0.02202008
v 0.05651787 -0.00388173 0.02105742
v 0.05640224 -0.00385704 0.02048725
v 0.05637384 -0.00385086 0.02037229
v 0.05682824 -0.00372819 0.02037229
v 0.05703414 -0.00364100 0.02037229
v 0.05699864 0.00377449 0.02105742
v 0.05682824 0.00372819 0.02037229
v 0.05772183 0.00372434 0.02301526
v 0.05727047 0.00383698 0.02271682
v 0.05734654 0.00385319 0.02335899
v 0.05739726 0.00386476 0.02394425
v 0.05745609 0.00387865 0.02490575
v 0.05747942 0.00388405 0.02586842
v 0.05746522 0.00388096 0.02682876
v 0.05741754 0.00386939 0.02779143
v 0.05736379 0.00385705 0.02846495
v 0.05729380 0.00384161 0.02910711
v 0.05773197 0.00373900 0.02877267
v 0.05704935 0.00378760 0.03067710
v 0.05679274 0.00374054 0.03164790
v 0.05682215 0.00362403 0.03223548
v 0.05726236 0.00341571 0.03223548
v 0.05821376 -0.00282006 0.03223548
v 0.05622372 -0.00382000 0.03223548
v 0.05575614 -0.00390487 0.03223548
v 0.05593465 -0.00391645 0.03164790
v 0.05602391 -0.00386089 0.03223548
v 0.05587886 -0.00394037 0.03067710
v 0.05587886 -0.00394114 0.02105742
v 0.05590016 -0.00391799 0.02037229
v 0.05606245 -0.00390333 0.02037229
v 0.05623894 -0.00387478 0.02037229
v 0.05640224 0.00385705 0.02048725
v 0.05651787 0.00388174 0.02105742
v 0.05716904 0.00381461 0.02202008
v 0.05652294 0.00380921 0.02037229
v 0.05668827 0.00391877 0.02202008
v 0.05690634 0.00391723 0.02301526
v 0.05684143 0.00393343 0.02394425
v 0.05684143 0.00393343 0.02779143
v 0.05692054 0.00391877 0.02877267
v 0.05672782 0.00392571 0.02971560
v 0.05720860 0.00382387 0.02971560
v 0.05656858 0.00389254 0.03067710
v 0.05643875 0.00386476 0.03133436
v 0.05629270 0.00383390 0.03197536
v 0.05638297 0.00377757 0.03223548
v 0.05490413 -0.00393496 0.03223548
v 0.05512322 -0.00392571 0.02037229
v 0.05623894 0.00387479 0.02037229
v 0.05590016 0.00391800 0.02037229
v 0.05587886 0.00394115 0.02105742
v 0.05587886 0.00394037 0.03067710
v 0.05530984 0.00393574 0.03223548
v 0.05593465 0.00391646 0.03164790
v 0.05575715 0.00390488 0.03223548
v 0.05622372 0.00382001 0.03223548
v 0.05428947 -0.00387633 0.03223548
v 0.05492239 -0.00391645 0.02037229
v 0.05492239 0.00391646 0.02037229
v 0.05490413 0.00393497 0.03223548
v 0.05409574 -0.00383852 0.03223548
v 0.05446393 -0.00384238 0.02037229
v 0.05459984 0.00386167 0.02037229
v 0.05444973 0.00390411 0.03223548
v 0.05381681 -0.00377448 0.03223548
v 0.05414747 -0.00377139 0.02037229
v 0.05433917 0.00381384 0.02037229
v 0.05428846 0.00387633 0.03223548
v 0.05296886 -0.00345582 0.03223548
v 0.05397200 -0.00371044 0.02037229
v 0.05397200 0.00371045 0.02037229
v 0.05381681 0.00377449 0.03223548
v 0.05219394 -0.00306001 0.03223548
v 0.05327112 -0.00343576 0.02037229
v 0.05299523 0.00328763 0.02037229
v 0.05338776 0.00364024 0.03223548
v 0.05182981 -0.00279691 0.03223548
v 0.05254286 -0.00302992 0.02037229
v 0.05299523 -0.00328762 0.02037229
v 0.05242723 0.00294120 0.02037229
v 0.05236536 0.00316727 0.03223548
v 0.05296886 0.00345583 0.03223548
v 0.05173853 -0.00271821 0.03223548
v 0.05242723 -0.00294119 0.02037229
v 0.05212903 0.00266112 0.02037229
v 0.05143424 0.00243428 0.03223548
v 0.05173853 0.00271822 0.03223548
v 0.05219394 0.00306002 0.03223548
v 0.05126485 -0.00224216 0.03223548
v 0.05191197 -0.00244431 0.02037229
v 0.05191197 0.00244431 0.02037229
v 0.05126485 0.00224216 0.03223548
v 0.05087841 -0.00173833 0.03223548
v 0.05149713 -0.00197442 0.02037229
v 0.05167970 0.00216732 0.02037229
v 0.05059238 0.00136490 0.03223548
v 0.05132875 0.00172676 0.02037229
v 0.05079726 -0.00162028 0.03223548
v 0.05132875 -0.00172675 0.02037229
v 0.05046660 0.00109099 0.03223548
v 0.05114719 0.00142971 0.02037229
v 0.05046660 -0.00109099 0.03223548
v 0.05118979 -0.00151612 0.02037229
v 0.05034185 0.00048069 0.03223548
v 0.05088043 0.00058331 0.02037229
v 0.05085305 0.00048069 0.02037229
v 0.05038850 -0.00083251 0.03223548
v 0.05085305 -0.00048068 0.02037229
v 0.05114719 -0.00142970 0.02037229
v 0.05034185 -0.00048068 0.03223548
f 1 2 3
f 1 3 4
f 1 4 5
f 1 5 6
f 1 6 7
f 1 7 2
f 2 8 9
f 2 9 10
f 2 10 3
f 2 7 11
f 2 11 12
f 2 12 8
f 3 13 14
f 3 14 15
f 3 15 4
f 3 10 13
f 4 15 16
f 4 16 17
f 4 17 18
f 4 18 5
f 5 18 6
f 6 19 20
f 6 20 21
f 6 21 22
f 6 22 7
f 6 18 19
f 7 22 23
f 7 23 11
f 8 24 9
f 8 12 24
f 9 24 25
f 9 25 26
f 9 26 10
f 10 26 13
f 11 23 27
f 11 27 12
f 12 27 28
f 12 28 24
f 13 29 30
f 13 30 14
f 13 26 29
f 14 30 31
f 14 31 32
f 14 32 33
f 14 33 15
f 15 33 34
f 15 34 35
f 15 35 16
f 16 36 37
f 16 37 17
f 16 35 36
f 17 38 18
f 17 37 38
f 18 39 19
f 18 38 40
f 18 40 39
f 19 41 20
f 19 39 41
f 20 41 42
f 20 42 43
f 20 43 21
f 21 43 44
f 21 44 45
f 21 45 46
f 21 46 22
f 22 46 47
f 22 47 48
f 22 48 23
f 23 49 27
f 23 48 49
f 24 28 50
f 24 50 51
f 24 51 52
f 24 52 25
f 25 52 53
f 25 53 54
f 25 54 26
f 26 54 29
f 27 49 55
f 27 55 28
f 28 55 56
f 28 56 50
f 29 54 57
f 29 57 58
f 29 58 59
f 29 59 30
f 30 59 31
f 31 60 32
f 31 59 61
f 31 61 62
f 31 62 63
f 31 63 64
f 31 64 65
f 31 65 60
f 32 60 66
f 32 66 33
f 33 66 34
f 34 67 35
f 34 66 68
f 34 68 69
f 34 69 70
f 34 70 71
f 34 71 72
f 34 72 73
f 34 73 67
f 35 67 36
f 36 67 74
f 36 74 75
f 36 75 76
f 36 76 37
f 37 76 77
f 37 77 38
f 38 78 40
f 38 77 78
f 39 40 78
f 39 78 79
f 39 79 41
f 41 79 80
f 41 80 42
f 42 80 81
f 42 81 82
f 42 82 83
f 42 83 43
f 43 83 44
f 44 84 45
f 44 83 85
f 44 85 86
f 44 86 87
f 44 87 88
f 44 88 89
f 44 89 84
f 45 84 90
f 45 90 46
f 46 90 47
f 47 91 48
f 47 90 92
f 47 92 93
f 47 93 94
f 47 94 95
f 47 95 96
f 47 96 97
f 47 97 91
f 48 91 49
f 49 91 98
f 49 98 99
f 49 99 55
f 50 56 100
f 50 100 101
f 50 101 51
f 51 102 103
f 51 103 52
f 51 101 102
f 52 103 104
f 52 104 53
f 53 104 105
f 53 105 54
f 54 105 57
f 55 99 106
f 55 106 56
f 56 106 107
f 56 107 100
f 57 105 108
f 57 108 58
f 58 61 59
f 58 108 109
f 58 109 110
f 58 110 61
f 60 65 68
f 60 68 66
f 61 110 62
f 62 110 111
f 62 111 63
f 63 112 158
f 63 158 157
f 63 157 204
f 63 204 203
f 63 203 202
f 63 202 201
f 63 201 200
f 63 200 244
f 63 244 243
f 63 243 242
f 63 242 271
f 63 271 270
f 63 270 269
f 63 269 288
f 63 288 298
f 63 298 302
f 63 302 306
f 63 306 310
f 63 310 314
f 63 314 319
f 63 319 318
f 63 318 324
f 63 324 330
f 63 330 334
f 63 334 339
f 63 339 343
f 63 343 349
f 63 349 348
f 63 348 346
f 63 346 345
f 63 345 341
f 63 341 337
f 63 337 335
f 63 335 331
f 63 331 325
f 63 325 320
f 63 320 315
f 63 315 311
f 63 311 307
f 63 307 303
f 63 303 299
f 63 299 290
f 63 290 289
f 63 289 275
f 63 275 246
f 63 246 209
f 63 209 207
f 63 207 206
f 63 206 205
f 63 205 159
f 63 159 115
f 63 115 71
f 63 71 70
f 63 70 114
f 63 114 113
f 63 113 64
f 63 111 112
f 64 113 114
f 64 114 69
f 64 69 68
f 64 68 65
f 67 73 74
f 69 114 70
f 71 115 72
f 72 115 116
f 72 116 117
f 72 117 73
f 73 117 74
f 74 118 119
f 74 119 75
f 74 117 118
f 75 119 120
f 75 120 76
f 76 120 121
f 76 121 77
f 77 122 78
f 77 121 122
f 78 122 123
f 78 123 124
f 78 124 79
f 79 124 125
f 79 125 80
f 80 126 81
f 80 125 126
f 81 126 127
f 81 127 82
f 82 127 128
f 82 128 129
f 82 129 83
f 83 129 85
f 84 89 92
f 84 92 90
f 85 129 86
f 86 129 130
f 86 130 131
f 86 131 87
f 87 132 176
f 87 176 221
f 87 221 219
f 87 219 261
f 87 261 260
f 87 260 286
f 87 286 296
f 87 296 295
f 87 295 293
f 87 293 300
f 87 300 304
f 87 304 308
f 87 308 312
f 87 312 316
f 87 316 322
f 87 322 321
f 87 321 328
f 87 328 327
f 87 327 326
f 87 326 332
f 87 332 336
f 87 336 340
f 87 340 344
f 87 344 350
f 87 350 347
f 87 347 342
f 87 342 338
f 87 338 333
f 87 333 329
f 87 329 323
f 87 323 317
f 87 317 313
f 87 313 309
f 87 309 305
f 87 305 301
f 87 301 297
f 87 297 287
f 87 287 264
f 87 264 266
f 87 266 263
f 87 263 228
f 87 228 226
f 87 226 225
f 87 225 262
f 87 262 223
f 87 223 181
f 87 181 180
f 87 180 178
f 87 178 139
f 87 139 95
f 87 95 94
f 87 94 138
f 87 138 133
f 87 133 134
f 87 134 88
f 87 131 135
f 87 135 132
f 88 134 137
f 88 137 93
f 88 93 92
f 88 92 89
f 91 97 136
f 91 136 98
f 93 137 94
f 94 137 138
f 95 139 140
f 95 140 96
f 96 140 141
f 96 141 136
f 96 136 97
f 98 142 143
f 98 143 99
f 98 136 142
f 99 143 106
f 100 107 144
f 100 144 145
f 100 145 101
f 101 146 102
f 101 145 146
f 102 147 148
f 102 148 103
f 102 146 147
f 103 148 149
f 103 149 104
f 104 150 105
f 104 149 151
f 104 151 150
f 105 150 108
f 106 143 107
f 107 143 152
f 107 152 144
f 108 150 153
f 108 153 109
f 109 153 154
f 109 154 155
f 109 155 156
f 109 156 110
f 110 156 111
f 111 156 157
f 111 157 158
f 111 158 112
f 115 159 116
f 116 160 117
f 116 159 160
f 117 160 118
f 118 160 161
f 118 161 162
f 118 162 163
f 118 163 119
f 119 164 120
f 119 163 164
f 120 165 121
f 120 164 165
f 121 165 122
f 122 166 123
f 122 165 166
f 123 166 167
f 123 167 168
f 123 168 124
f 124 168 169
f 124 169 125
f 125 169 170
f 125 170 126
f 126 170 127
f 127 171 128
f 127 170 171
f 128 171 172
f 128 172 173
f 128 173 174
f 128 174 129
f 129 174 130
f 130 174 175
f 130 175 176
f 130 176 135
f 130 135 131
f 132 135 176
f 133 138 137
f 133 137 134
f 136 177 142
f 136 141 177
f 139 178 179
f 139 179 140
f 140 179 141
f 141 179 180
f 141 180 181
f 141 181 182
f 141 182 177
f 142 152 143
f 142 177 183
f 142 183 184
f 142 184 152
f 144 185 145
f 144 152 186
f 144 186 187
f 144 187 185
f 145 188 189
f 145 189 146
f 145 185 190
f 145 190 188
f 146 191 147
f 146 189 191
f 147 192 193
f 147 193 148
f 147 191 192
f 148 193 194
f 148 194 149
f 149 194 195
f 149 195 196
f 149 196 197
f 149 197 151
f 150 151 153
f 151 198 199
f 151 199 153
f 151 197 198
f 152 184 186
f 153 199 154
f 154 199 200
f 154 200 201
f 154 201 202
f 154 202 155
f 155 202 203
f 155 203 156
f 156 203 204
f 156 204 157
f 159 205 160
f 160 205 161
f 161 205 206
f 161 206 207
f 161 207 162
f 162 208 163
f 162 207 209
f 162 209 208
f 163 208 210
f 163 210 164
f 164 210 165
f 165 211 166
f 165 210 211
f 166 212 167
f 166 211 212
f 167 212 213
f 167 213 214
f 167 214 168
f 168 214 215
f 168 215 169
f 169 215 216
f 169 216 170
f 170 216 171
f 171 216 217
f 171 217 172
f 172 217 218
f 172 218 173
f 173 218 219
f 173 219 220
f 173 220 174
f 174 220 175
f 175 220 176
f 176 220 221
f 177 182 222
f 177 222 183
f 178 180 179
f 181 223 182
f 182 223 222
f 183 224 184
f 183 222 225
f 183 225 226
f 183 226 224
f 184 224 186
f 185 187 227
f 185 227 190
f 186 224 228
f 186 228 229
f 186 229 187
f 187 230 227
f 187 229 231
f 187 231 232
f 187 232 230
f 188 190 233
f 188 233 189
f 189 233 234
f 189 234 191
f 190 227 233
f 191 234 235
f 191 235 192
f 192 236 193
f 192 235 236
f 193 236 237
f 193 237 194
f 194 237 195
f 195 237 238
f 195 238 196
f 196 238 239
f 196 239 197
f 197 239 198
f 198 239 240
f 198 240 241
f 198 241 242
f 198 242 243
f 198 243 244
f 198 244 199
f 199 244 200
f 208 245 210
f 208 209 246
f 208 246 245
f 210 245 247
f 210 247 211
f 211 247 248
f 211 248 249
f 211 249 250
f 211 250 212
f 212 251 213
f 212 250 251
f 213 251 252
f 213 252 253
f 213 253 214
f 214 253 254
f 214 254 215
f 215 254 255
f 215 255 256
f 215 256 257
f 215 257 216
f 216 257 258
f 216 258 217
f 217 258 259
f 217 259 260
f 217 260 261
f 217 261 218
f 218 261 219
f 219 221 220
f 222 223 262
f 222 262 225
f 224 226 228
f 227 230 233
f 228 263 229
f 229 263 231
f 230 232 264
f 230 264 265
f 230 265 233
f 231 263 266
f 231 266 232
f 232 266 264
f 233 235 234
f 233 265 267
f 233 267 235
f 235 267 268
f 235 268 236
f 236 268 238
f 236 238 237
f 238 268 269
f 238 269 270
f 238 270 240
f 238 240 239
f 240 270 271
f 240 271 241
f 241 271 242
f 245 246 272
f 245 272 273
f 245 273 274
f 245 274 247
f 246 275 272
f 247 274 248
f 248 274 276
f 248 276 249
f 249 276 277
f 249 277 250
f 250 277 251
f 251 277 278
f 251 278 252
f 252 278 279
f 252 279 253
f 253 279 280
f 253 280 254
f 254 280 281
f 254 281 255
f 255 281 256
f 256 281 282
f 256 282 257
f 257 282 258
f 258 282 283
f 258 283 284
f 258 284 285
f 258 285 259
f 259 285 286
f 259 286 260
f 264 287 265
f 265 287 267
f 267 287 268
f 268 288 269
f 268 287 288
f 272 275 289
f 272 289 273
f 273 276 274
f 273 289 290
f 273 290 276
f 276 290 291
f 276 291 278
f 276 278 277
f 278 291 279
f 279 292 281
f 279 281 280
f 279 291 292
f 281 292 293
f 281 293 294
f 281 294 283
f 281 283 282
f 283 294 295
f 283 295 284
f 284 295 285
f 285 295 296
f 285 296 286
f 287 297 298
f 287 298 288
f 290 299 291
f 291 299 300
f 291 300 292
f 292 300 293
f 293 295 294
f 297 301 302
f 297 302 298
f 299 303 304
f 299 304 300
f 301 305 306
f 301 306 302
f 303 307 308
f 303 308 304
f 305 309 310
f 305 310 306
f 307 311 312
f 307 312 308
f 309 313 314
f 309 314 310
f 311 315 316
f 311 316 312
f 313 317 318
f 313 318 319
f 313 319 314
f 315 320 321
f 315 321 322
f 315 322 316
f 317 323 324
f 317 324 318
f 320 325 326
f 320 326 327
f 320 327 328
f 320 328 321
f 323 329 330
f 323 330 324
f 325 331 326
f 326 331 332
f 329 333 334
f 329 334 330
f 331 335 332
f 332 335 337
f 332 337 336
f 333 338 334
f 334 338 339
f 336 337 341
f 336 341 340
f 338 342 343
f 338 343 339
f 340 341 345
f 340 345 346
f 340 346 344
f 342 347 348
f 342 348 349
f 342 349 343
f 344 346 348
f 344 348 350
f 347 350 348

