# https://github.com/mikedh/trimesh
v -0.01785794 -0.01900424 0.01963856
v -0.01785794 -0.01900424 0.01108925
v -0.00804275 -0.01900424 0.01053282
v -0.01628597 -0.00001141 0.00553606
v -0.01785794 -0.00000583 0.00599031
v -0.01772438 -0.01900424 0.01090837
v -0.01785794 -0.01840542 0.01017798
v -0.01776762 -0.01832360 0.00992531
v -0.00804275 -0.01900424 0.00553606
v -0.00804275 -0.01397569 0.00553606
v -0.01676928 -0.00000583 0.00553606
v -0.01676352 -0.00000583 0.00561476
v -0.01785794 -0.00000583 0.00553606
v -0.01730929 -0.01900424 0.01036023
v -0.01785794 -0.01828455 0.00999849
v -0.01785794 -0.01745885 0.00882627
v -0.01763694 -0.01722825 0.00818425
v -0.01676640 -0.01732496 0.00709487
v -0.01351965 -0.01900424 0.00553606
v -0.01785794 -0.01494829 0.00553606
v -0.01554227 -0.01900424 0.00805860
v -0.01547981 -0.01740306 0.00553606
v -0.01524824 -0.01774152 0.00575007
v -0.01785794 -0.01707948 0.00832094
v -0.01685672 -0.01646021 0.00599307
v -0.01620526 -0.01676333 0.00553606
v -0.01592853 -0.01700881 0.00553606
v -0.01397991 -0.01900424 0.00605106
v -0.01421820 -0.01847609 0.00553606
v -0.01714402 -0.01578143 0.00553606
v -0.01720936 -0.01583908 0.00571003
v -0.01785794 -0.01511938 0.00575835
v -0.01522806 -0.01900424 0.00764991
v -0.01517714 -0.01766156 0.00553606
v -0.01453913 -0.01820458 0.00553606
v -0.01486294 -0.01830314 0.00610629
v -0.01480528 -0.01900424 0.00710039
v -0.01785794 -0.01672614 0.00785564
v -0.01643298 -0.01654389 0.00553606
v -0.01693071 -0.01602504 0.00553606
v -0.01438251 -0.01900424 0.00656054
v -0.01785794 -0.01593578 0.00682287
f 1 2 6
f 1 6 14
f 1 14 21
f 1 21 33
f 1 33 37
f 1 37 41
f 1 41 28
f 1 28 19
f 1 19 9
f 1 9 3
f 1 3 4
f 1 4 5
f 1 5 13
f 1 13 20
f 1 20 32
f 1 32 42
f 1 42 38
f 1 38 24
f 1 24 16
f 1 16 15
f 1 15 7
f 1 7 2
f 2 7 8
f 2 8 6
f 3 9 10
f 3 10 4
f 4 10 9
f 4 9 19
f 4 19 29
f 4 29 35
f 4 35 34
f 4 34 22
f 4 22 27
f 4 27 26
f 4 26 39
f 4 39 40
f 4 40 30
f 4 30 20
f 4 20 13
f 4 13 11
f 4 11 12
f 4 12 5
f 5 12 11
f 5 11 13
f 6 8 14
f 7 15 8
f 8 15 16
f 8 16 17
f 8 17 18
f 8 18 14
f 14 18 22
f 14 22 23
f 14 23 21
f 16 24 17
f 17 24 25
f 17 25 18
f 18 25 26
f 18 26 27
f 18 27 22
f 19 28 29
f 20 30 31
f 20 31 32
f 21 23 33
f 22 34 23
f 23 34 35
f 23 35 36
f 23 36 37
f 23 37 33
f 24 38 25
f 25 39 26
f 25 38 31
f 25 31 30
f 25 30 40
f 25 40 39
f 28 41 29
f 29 41 37
f 29 37 35
f 31 42 32
f 31 38 42
f 35 37 36

