# https://github.com/mikedh/trimesh
v -0.04299040 -0.01553645 -0.04061062
v -0.04288938 -0.01581370 -0.03523103
v -0.04298619 -0.01553645 -0.03653163
v -0.03662652 -0.00000164 -0.03777577
v -0.03662652 -0.00000164 -0.05386780
v -0.04298198 -0.01553645 -0.04961164
v -0.04289359 -0.01581370 -0.04198326
v -0.04289359 -0.01581370 -0.03980261
v -0.04261580 -0.01657837 -0.03762196
v -0.04261159 -0.01657389 -0.03523103
v -0.04297777 -0.01553645 -0.03523103
v -0.04298198 -0.01553645 -0.03544131
v -0.03695902 -0.01553645 -0.03523103
v 0.00000786 0.00000283 -0.03893424
v -0.01882281 0.00000283 -0.03891088
v -0.01882281 0.00000283 -0.04884841
v 0.00000786 0.00000283 -0.04759843
v -0.03662652 -0.00189319 -0.05450057
v -0.04181190 -0.01553645 -0.05459598
v -0.04221595 -0.01553645 -0.05416958
v -0.04267472 -0.01553645 -0.05362442
v -0.04276732 -0.01553645 -0.05338688
v -0.04287676 -0.01553645 -0.05288261
v -0.04289359 -0.01553645 -0.05260029
v -0.04293568 -0.01553645 -0.05179229
v -0.04296514 -0.01553645 -0.05070196
v -0.04288517 -0.01581370 -0.04961164
v -0.04261159 -0.01656942 -0.04961164
v -0.04261580 -0.01657837 -0.04198326
v -0.04200972 -0.01799590 -0.05070196
v -0.04161408 -0.01891261 -0.05179229
v -0.04207285 -0.01783045 -0.03523103
v -0.01882281 -0.03526574 -0.03523103
v 0.00000786 -0.03982244 -0.03562043
v 0.00000786 -0.03979114 -0.05505547
v -0.03761561 -0.01553645 -0.05511194
v -0.03870572 -0.01553645 -0.05511583
v -0.03979583 -0.01553645 -0.05511583
v -0.04007783 -0.01553645 -0.05511194
v -0.04088594 -0.01553645 -0.05501069
v -0.04113005 -0.01553645 -0.05493281
v -0.04167301 -0.01553645 -0.05471085
v 0.00000786 -0.04088672 -0.05511388
v -0.04162250 -0.01581370 -0.05468359
v -0.04148781 -0.01651576 -0.05457456
v -0.04134892 -0.01724018 -0.05442659
v -0.04216545 -0.01581370 -0.05410728
v -0.04252741 -0.01637714 -0.05343556
v -0.04254846 -0.01643080 -0.05288261
v -0.04257371 -0.01649340 -0.05179229
v -0.04259055 -0.01653812 -0.05070196
v -0.04286413 -0.01581370 -0.05070196
v -0.04200130 -0.01799590 -0.05179229
v -0.04158462 -0.01886789 -0.05288261
v -0.04134471 -0.01945816 -0.05179229
v -0.04134892 -0.01946263 -0.05070196
v -0.04136155 -0.01947158 -0.03762196
v -0.04136155 -0.01947158 -0.03523103
v -0.01882281 -0.04120421 -0.03523103
v 0.00000786 -0.04526454 -0.03562043
v 0.00000786 -0.04197782 -0.05511778
v -0.01799366 -0.03870451 -0.05511778
v -0.01882281 -0.03870451 -0.05511778
v -0.03979583 -0.01690927 -0.05511583
v -0.03979583 -0.01799590 -0.05505742
v -0.04088594 -0.01581370 -0.05498343
v -0.04065445 -0.01799590 -0.05475758
v -0.04047767 -0.01880529 -0.05463881
v -0.04120161 -0.01799590 -0.05426499
v -0.04166038 -0.01799590 -0.05371982
v -0.04151728 -0.01872927 -0.05354459
v -0.04193817 -0.01799590 -0.05288261
v -0.04131104 -0.01940897 -0.05288261
v -0.04097853 -0.02017811 -0.05070196
v -0.04048609 -0.02099644 -0.05288261
v -0.03982108 -0.02235585 -0.05179229
v -0.04025039 -0.02163143 -0.04525034
v -0.04101641 -0.02017811 -0.03653163
v -0.04101641 -0.02017811 -0.03523103
v -0.02499308 -0.03823945 -0.03523103
v -0.01694143 -0.04238922 -0.03562043
v -0.01648687 -0.04257256 -0.03562043
v -0.01581344 -0.04281403 -0.03562043
v -0.01329230 -0.04368155 -0.03562043
v -0.01266938 -0.04388725 -0.03562043
v -0.01162978 -0.04420474 -0.03562043
v -0.01144880 -0.04425393 -0.03562043
v -0.01035869 -0.04452224 -0.03562043
v -0.00952533 -0.04468769 -0.03562043
v -0.00907076 -0.04476371 -0.03562043
v -0.00817847 -0.04491128 -0.03562043
v -0.00617924 -0.04521536 -0.03562043
v -0.00600246 -0.04524218 -0.03562043
v -0.00508913 -0.04537187 -0.03562043
v -0.00490815 -0.04538528 -0.03562043
v -0.00399902 -0.04539869 -0.03562043
v 0.00000786 -0.04554179 -0.03653358
v 0.00000786 -0.04306892 -0.05511778
v -0.01690355 -0.03979114 -0.05511778
v -0.02126398 -0.03761341 -0.05511583
v -0.02453431 -0.03543120 -0.05511583
v -0.02998485 -0.03106679 -0.05511583
v -0.03107075 -0.02998015 -0.05511583
v -0.03543540 -0.02453358 -0.05511583
v -0.03761561 -0.02126027 -0.05511583
v -0.03870572 -0.02017811 -0.05504768
v -0.03987159 -0.01913620 -0.05482962
v -0.03957276 -0.02017811 -0.05474785
v -0.03845319 -0.02235585 -0.05473616
v -0.03937073 -0.02094725 -0.05462518
v -0.04028827 -0.01953418 -0.05446163
v -0.04090698 -0.01913173 -0.05400409
v -0.04042296 -0.02087570 -0.05352902
v -0.03984213 -0.02235585 -0.04961164
v -0.03985897 -0.02235585 -0.04743099
v -0.03931180 -0.02301319 -0.05350760
v -0.03936652 -0.02310710 -0.05288261
v -0.03939598 -0.02315182 -0.05179229
v -0.04025460 -0.02162695 -0.04416391
v -0.03986317 -0.02235585 -0.04634066
v -0.04054502 -0.02109035 -0.03544131
v -0.04054502 -0.02109035 -0.03523103
v -0.02510251 -0.03817685 -0.03523103
v -0.02163858 -0.04023832 -0.03762196
v -0.02109984 -0.04053345 -0.03762196
v -0.02101145 -0.04048873 -0.03653163
v -0.02017808 -0.04096721 -0.03871228
v -0.01799366 -0.04199570 -0.04198521
v -0.01708874 -0.04239369 -0.04307358
v -0.01648687 -0.04258598 -0.03653358
v -0.01581344 -0.04284534 -0.03653358
v -0.01471912 -0.04322544 -0.03653358
v -0.01387734 -0.04351610 -0.03653358
v -0.01333018 -0.04369496 -0.03653358
v -0.01253891 -0.04394091 -0.03871228
v -0.01144880 -0.04425840 -0.03762196
v -0.01253891 -0.04393644 -0.03653358
v -0.01035869 -0.04452671 -0.03980261
v -0.00963476 -0.04466981 -0.03653358
v -0.00817847 -0.04496047 -0.03871228
v -0.00817847 -0.04495152 -0.03762196
v -0.00817847 -0.04493811 -0.03653358
v -0.00709257 -0.04511250 -0.03653358
v -0.00600246 -0.04526901 -0.03653358
v -0.00490815 -0.04543447 -0.04416391
v -0.00381804 -0.04553285 -0.04198521
v -0.00054771 -0.04567594 -0.03762196
v -0.00054771 -0.04554179 -0.03653358
v 0.00000786 -0.04568042 -0.03762196
v 0.00000786 -0.04415556 -0.05481599
v -0.00381804 -0.04306892 -0.05511778
v -0.01799366 -0.03979114 -0.05505742
v -0.01882281 -0.03896834 -0.05510220
v -0.01035869 -0.04197782 -0.05511778
v -0.01471912 -0.04088672 -0.05508857
v -0.02017808 -0.03870451 -0.05504768
v -0.02234988 -0.03761341 -0.05503600
v -0.02344420 -0.03652230 -0.05509052
v -0.02671453 -0.03434010 -0.05508273
v -0.02889474 -0.03216236 -0.05510804
v -0.03107075 -0.03106679 -0.05498343
v -0.03216507 -0.02889352 -0.05510804
v -0.03652551 -0.02343801 -0.05509052
v -0.03325097 -0.02780242 -0.05509831
v -0.03434529 -0.02671579 -0.05508273
v -0.03761561 -0.02235585 -0.05503600
v -0.03764507 -0.02342906 -0.05479263
v -0.03729994 -0.02431447 -0.05468359
v -0.03825957 -0.02305791 -0.05460961
v -0.03917712 -0.02167614 -0.05444021
v -0.04011992 -0.02017811 -0.05428056
v -0.03900034 -0.02235585 -0.05424746
v -0.03940019 -0.02315629 -0.05070196
v -0.03849948 -0.02449334 -0.05288261
v -0.03904243 -0.02365265 -0.05288261
v -0.03867626 -0.02339776 -0.05394568
v -0.03836901 -0.02429658 -0.05365557
v -0.03714842 -0.02628203 -0.05351928
v -0.03908031 -0.02369737 -0.05179229
v -0.03986317 -0.02235585 -0.04416391
v -0.03941282 -0.02315182 -0.04743099
v -0.04024618 -0.02163143 -0.03523103
v -0.02512356 -0.03819473 -0.04198326
v -0.02370515 -0.03908461 -0.05070196
v -0.02369674 -0.03908461 -0.04961164
v -0.02646199 -0.03726908 -0.03523103
v -0.02315800 -0.03939315 -0.05070196
v -0.02017808 -0.04096721 -0.05179229
v -0.01945415 -0.04134283 -0.05179229
v -0.01945836 -0.04134283 -0.05070196
v -0.01882281 -0.04165585 -0.05059293
v -0.02315379 -0.03939315 -0.05179229
v -0.01708874 -0.04239369 -0.04416391
v -0.01654579 -0.04259492 -0.04525228
v -0.01471912 -0.04326121 -0.03762196
v -0.01389838 -0.04352951 -0.03762196
v -0.01390680 -0.04353398 -0.03871228
v -0.01338069 -0.04369944 -0.05070001
v -0.01144880 -0.04425840 -0.04198521
v -0.01035869 -0.04452671 -0.04198521
v -0.00910022 -0.04478607 -0.05070001
v -0.00817847 -0.04496494 -0.05070001
v -0.00709257 -0.04513933 -0.03762196
v -0.00490815 -0.04543447 -0.04525228
v -0.00381804 -0.04554626 -0.04525228
v -0.00272793 -0.04561781 -0.04851936
v -0.00272793 -0.04562228 -0.05070001
v -0.00163782 -0.04564911 -0.05179034
v 0.00000786 -0.04564911 -0.05179034
v 0.00000786 -0.04470111 -0.05451420
v -0.00163782 -0.04415556 -0.05481599
v -0.00490815 -0.04306892 -0.05511388
v -0.01882281 -0.03984928 -0.05489387
v -0.01581344 -0.04088672 -0.05498343
v -0.01799366 -0.04065866 -0.05475758
v -0.01144880 -0.04197782 -0.05508857
v -0.00600246 -0.04306892 -0.05509636
v -0.01253891 -0.04197782 -0.05501069
v -0.02017808 -0.03957203 -0.05474785
v -0.02234988 -0.03845409 -0.05473616
v -0.02343158 -0.03764024 -0.05479263
v -0.02562442 -0.03543120 -0.05502432
v -0.02784672 -0.03439376 -0.05483351
v -0.03107075 -0.03189853 -0.05468359
v -0.03189991 -0.03106679 -0.05468359
v -0.03301948 -0.02978340 -0.05470696
v -0.03439579 -0.02784714 -0.05483546
v -0.02897050 -0.03332949 -0.05485493
v -0.02979124 -0.03301199 -0.05470501
v -0.03543540 -0.02562021 -0.05502627
v -0.03544382 -0.02668001 -0.05477705
v -0.03630243 -0.02562021 -0.05472642
v -0.03509447 -0.02751176 -0.05467191
v -0.03607094 -0.02629992 -0.05459598
v -0.03704741 -0.02504783 -0.05449473
v -0.03802388 -0.02378233 -0.05438181
v -0.03812910 -0.02503442 -0.05288261
v -0.03815856 -0.02507019 -0.05202398
v -0.03684959 -0.02562021 -0.05429614
v -0.03582261 -0.02702881 -0.05435844
v -0.03616354 -0.02752517 -0.05363221
v -0.03589417 -0.02824065 -0.05288261
v -0.03628139 -0.02769063 -0.05288261
v -0.03720735 -0.02637147 -0.05288261
v -0.03908031 -0.02370184 -0.05070196
v -0.03846161 -0.02463196 -0.05171246
v -0.03941282 -0.02314734 -0.04634066
v -0.03939598 -0.02312499 -0.04089293
v -0.03817540 -0.02509702 -0.03784392
v -0.03788498 -0.02552183 -0.03753629
v -0.03815856 -0.02505677 -0.03711574
v -0.03938757 -0.02294164 -0.03523103
v -0.02700915 -0.03689346 -0.03523103
v -0.02512356 -0.03819473 -0.04307358
v -0.02453431 -0.03854353 -0.05070196
v -0.02370094 -0.03907566 -0.05179229
v -0.01940785 -0.04130706 -0.05288261
v -0.02099461 -0.04047979 -0.05288261
v -0.01886490 -0.04158431 -0.05288261
v -0.01891120 -0.04161114 -0.05179229
v -0.01882281 -0.04165585 -0.05059487
v -0.02310749 -0.03936185 -0.05288261
v -0.01799366 -0.04200465 -0.04960969
v -0.01799366 -0.04200018 -0.05179034
v -0.01708874 -0.04238922 -0.04525228
v -0.01581344 -0.04284534 -0.04960969
v -0.01471912 -0.04324779 -0.05070001
v -0.01392785 -0.04353398 -0.05070001
v -0.01337227 -0.04369944 -0.05179034
v -0.01253891 -0.04394091 -0.05070001
v -0.01144880 -0.04424499 -0.04960969
v -0.01035869 -0.04450882 -0.04960969
v -0.00905814 -0.04478607 -0.05179034
v -0.00817847 -0.04496494 -0.05179034
v -0.00964317 -0.04466533 -0.05070001
v -0.00709257 -0.04513486 -0.04960969
v -0.00709257 -0.04513039 -0.05070001
v -0.00490815 -0.04542106 -0.04743099
v -0.00381804 -0.04554626 -0.04851936
v -0.00272793 -0.04561781 -0.05179034
v -0.00163782 -0.04559098 -0.05288066
v 0.00000786 -0.04562228 -0.05232771
v 0.00000786 -0.04512592 -0.05396709
v -0.00163782 -0.04470111 -0.05451420
v -0.00272793 -0.04413319 -0.05481599
v -0.00381804 -0.04407953 -0.05481599
v -0.01471912 -0.04182578 -0.05478873
v -0.01581344 -0.04162008 -0.05468359
v -0.01651212 -0.04148593 -0.05457456
v -0.01880177 -0.04047979 -0.05463686
v -0.00709257 -0.04306892 -0.05506326
v -0.00817847 -0.04306892 -0.05500095
v -0.00490815 -0.04401693 -0.05481404
v -0.01144880 -0.04286770 -0.05478873
v -0.01253891 -0.04273354 -0.05471085
v -0.02306119 -0.03825734 -0.05460961
v -0.02431966 -0.03729591 -0.05468359
v -0.01882281 -0.04047532 -0.05463297
v -0.02094832 -0.03936633 -0.05462518
v -0.02562442 -0.03629872 -0.05472448
v -0.02668085 -0.03544461 -0.05477510
v -0.02865063 -0.03406732 -0.05469138
v -0.02751001 -0.03509135 -0.05466996
v -0.03164316 -0.03164364 -0.05453951
v -0.03406750 -0.02864758 -0.05469138
v -0.03269539 -0.03051229 -0.05450642
v -0.03479564 -0.02824512 -0.05443243
v -0.03816277 -0.02507913 -0.05129775
v -0.03686222 -0.02695279 -0.05179229
v -0.03549853 -0.02788291 -0.05403134
v -0.03517865 -0.02867441 -0.05370619
v -0.03381076 -0.03053912 -0.05344140
v -0.03485878 -0.02939883 -0.05310068
v -0.03525862 -0.02897849 -0.05279499
v -0.03488824 -0.02943908 -0.05237249
v -0.03592363 -0.02827642 -0.05179229
v -0.03631506 -0.02773535 -0.05179229
v -0.03817540 -0.02509702 -0.03845333
v -0.03727048 -0.02642513 -0.03762196
v -0.03497242 -0.02936306 -0.03523103
v -0.02700915 -0.03689346 -0.03653163
v -0.02757735 -0.03645075 -0.03523103
v -0.02828024 -0.03592756 -0.05179229
v -0.02697127 -0.03686663 -0.04961164
v -0.02511514 -0.03818579 -0.04525034
v -0.02509830 -0.03817237 -0.04852131
v -0.02641990 -0.03724225 -0.05070196
v -0.02508147 -0.03815896 -0.05132500
v -0.02507305 -0.03815449 -0.05205124
v -0.02463532 -0.03845856 -0.05172998
v -0.02449222 -0.03849881 -0.05288261
v -0.02365465 -0.03904436 -0.05288261
v -0.02301489 -0.03930819 -0.05350955
v -0.02087676 -0.04041718 -0.05352902
v -0.01882281 -0.04156642 -0.05308121
v -0.01882281 -0.04160219 -0.05288066
v -0.01882281 -0.04160666 -0.05283004
v -0.01882281 -0.04165138 -0.05179034
v -0.01799366 -0.04194205 -0.05288066
v -0.01642794 -0.04255020 -0.05288066
v -0.01471912 -0.04323885 -0.05179034
v -0.01391522 -0.04352951 -0.05179034
v -0.01330072 -0.04367708 -0.05288066
v -0.01253891 -0.04392302 -0.05179034
v -0.01144880 -0.04422710 -0.05070001
v -0.00960108 -0.04465192 -0.05179034
v -0.00897396 -0.04476371 -0.05288066
v -0.00709257 -0.04512145 -0.05179034
v -0.00817847 -0.04491575 -0.05288066
v -0.00490815 -0.04538975 -0.05179034
v -0.00381804 -0.04551943 -0.05179034
v -0.00272793 -0.04555968 -0.05288066
v -0.00272793 -0.04510803 -0.05394762
v -0.00163782 -0.04512592 -0.05396709
v 0.00000786 -0.04559098 -0.05288066
v -0.00272793 -0.04467875 -0.05449279
v -0.01336385 -0.04261728 -0.05461350
v -0.01724026 -0.04135177 -0.05442854
v -0.01408779 -0.04248760 -0.05448110
v -0.00600246 -0.04395880 -0.05479652
v -0.00709257 -0.04389172 -0.05476342
v -0.00817847 -0.04380676 -0.05470112
v -0.00927279 -0.04368602 -0.05459013
v -0.00982837 -0.04361895 -0.05452005
v -0.02378512 -0.03802481 -0.05438181
v -0.02504359 -0.03704102 -0.05449473
v -0.02629785 -0.03606619 -0.05459403
v -0.02167225 -0.03917404 -0.05444021
v -0.02234988 -0.03899517 -0.05424746
v -0.02339790 -0.03867321 -0.05394568
v -0.01799366 -0.04120421 -0.05426499
v -0.01882281 -0.04050215 -0.05460571
v -0.01952991 -0.04028303 -0.05446163
v -0.02937456 -0.03374536 -0.05446747
v -0.03051518 -0.03269003 -0.05450447
v -0.02823815 -0.03479174 -0.05443048
v -0.02702599 -0.03581577 -0.05435649
v -0.03275853 -0.03167047 -0.05348423
v -0.03244707 -0.03106679 -0.05427862
v -0.03107075 -0.03244408 -0.05427862
v -0.03167263 -0.03275710 -0.05348423
v -0.03202618 -0.03202374 -0.05384832
v -0.03317521 -0.03097288 -0.05368088
v -0.03280903 -0.03173307 -0.05288261
v -0.03384022 -0.03057489 -0.05288261
v -0.03538910 -0.02889352 -0.05179229
v -0.03283850 -0.03175990 -0.05179229
v -0.03441263 -0.02999357 -0.05179229
v -0.03593205 -0.02828537 -0.05070196
v -0.03494295 -0.02949274 -0.04198326
v -0.03490507 -0.02945696 -0.03544131
v -0.03490507 -0.02944802 -0.03523103
v -0.02773308 -0.03632107 -0.05070196
v -0.02782147 -0.03625847 -0.03523103
v -0.02823815 -0.03588732 -0.05288261
v -0.02769099 -0.03628083 -0.05288261
v -0.02773308 -0.03631213 -0.05179229
v -0.02937035 -0.03501086 -0.03523103
v -0.03003115 -0.03446083 -0.04089293
v -0.03002694 -0.03445636 -0.04961164
v -0.02947558 -0.03491248 -0.05070196
v -0.02944611 -0.03489012 -0.05235692
v -0.02695444 -0.03685768 -0.05179229
v -0.02636940 -0.03720648 -0.05288261
v -0.02562442 -0.03772520 -0.05288261
v -0.02628101 -0.03714387 -0.05351733
v -0.02430282 -0.03836466 -0.05365557
v -0.02017808 -0.04011758 -0.05428056
v -0.01882281 -0.04137414 -0.05365363
v -0.01872601 -0.04151723 -0.05354459
v -0.01637323 -0.04252337 -0.05343556
v -0.01384788 -0.04349821 -0.05288066
v -0.01319129 -0.04364578 -0.05347061
v -0.01253891 -0.04387383 -0.05288066
v -0.00884769 -0.04473241 -0.05346671
v -0.00709257 -0.04506779 -0.05288066
v -0.00381804 -0.04546130 -0.05288066
v -0.00709257 -0.04486209 -0.05365363
v -0.00381804 -0.04505437 -0.05388727
v -0.00381804 -0.04462061 -0.05443438
v -0.01253891 -0.04327909 -0.05412285
v -0.01363743 -0.04306892 -0.05397683
v -0.01471912 -0.04237133 -0.05434676
v -0.01581344 -0.04217010 -0.05410923
v -0.01471912 -0.04282298 -0.05380354
v -0.00600246 -0.04450435 -0.05427667
v -0.00709257 -0.04443727 -0.05419684
v -0.00817847 -0.04435231 -0.05409560
v -0.02562442 -0.03737193 -0.05375097
v -0.02562442 -0.03684427 -0.05429614
v -0.01799366 -0.04166033 -0.05371982
v -0.01913007 -0.04090460 -0.05400409
v -0.03008587 -0.03332949 -0.05427083
v -0.02788040 -0.03549380 -0.05402940
v -0.02868009 -0.03517184 -0.05370230
v -0.03054464 -0.03380796 -0.05344140
v -0.02752264 -0.03616009 -0.05363026
v -0.03227450 -0.03227415 -0.05288261
v -0.03097395 -0.03317297 -0.05368088
v -0.03173155 -0.03281076 -0.05288261
v -0.03231238 -0.03230993 -0.05179229
v -0.03338986 -0.03116069 -0.05070196
v -0.03540173 -0.02889352 -0.05070196
v -0.03284691 -0.03176438 -0.05070196
v -0.03388231 -0.03061514 -0.03653163
v -0.03493874 -0.02948826 -0.04307358
v -0.03285533 -0.03176438 -0.03871228
v -0.03339828 -0.03116964 -0.03762196
v -0.03397911 -0.03044969 -0.03523103
v -0.02898313 -0.03525233 -0.05278526
v -0.02940402 -0.03485435 -0.05308315
v -0.03002694 -0.03445636 -0.03523103
v -0.03065828 -0.03391528 -0.03523103
v -0.03065828 -0.03391528 -0.04198326
v -0.03064986 -0.03391081 -0.04961164
v -0.03063723 -0.03389292 -0.05070196
v -0.03176522 -0.03283759 -0.05179229
v -0.03058252 -0.03383926 -0.05288261
v -0.01253891 -0.04372180 -0.05357769
v -0.00817847 -0.04479054 -0.05355043
v -0.03176943 -0.03284654 -0.05070196
v -0.03231659 -0.03231440 -0.05070196
v -0.03285112 -0.03175990 -0.03762196
v -0.03283008 -0.03174202 -0.03653163
v -0.03229975 -0.03231440 -0.03871228
v -0.03175260 -0.03284207 -0.03653163
v -0.03228713 -0.03226074 -0.03544131
v -0.03279641 -0.03170624 -0.03523103
v -0.03163475 -0.03293150 -0.03523103
v -0.03184098 -0.03271686 -0.03523103
f 1 2 3
f 1 3 4
f 1 4 5
f 1 5 6
f 1 6 7
f 1 7 8
f 1 8 2
f 2 8 9
f 2 9 10
f 2 10 32
f 2 32 58
f 2 58 79
f 2 79 122
f 2 122 182
f 2 182 252
f 2 252 320
f 2 320 392
f 2 392 449
f 2 449 468
f 2 468 470
f 2 470 469
f 2 469 453
f 2 453 452
f 2 452 398
f 2 398 394
f 2 394 322
f 2 322 253
f 2 253 186
f 2 186 123
f 2 123 80
f 2 80 59
f 2 59 33
f 2 33 13
f 2 13 11
f 2 11 12
f 2 12 3
f 3 12 4
f 4 13 14
f 4 14 15
f 4 15 16
f 4 16 5
f 4 12 11
f 4 11 13
f 5 16 17
f 5 17 18
f 5 18 19
f 5 19 20
f 5 20 21
f 5 21 22
f 5 22 23
f 5 23 24
f 5 24 25
f 5 25 26
f 5 26 6
f 6 27 7
f 6 26 27
f 7 27 28
f 7 28 29
f 7 29 9
f 7 9 8
f 9 29 30
f 9 30 31
f 9 31 32
f 9 32 10
f 13 33 34
f 13 34 14
f 14 17 16
f 14 16 15
f 14 34 60
f 14 60 97
f 14 97 149
f 14 149 209
f 14 209 282
f 14 282 355
f 14 355 283
f 14 283 210
f 14 210 150
f 14 150 98
f 14 98 61
f 14 61 43
f 14 43 35
f 14 35 17
f 17 35 18
f 18 36 37
f 18 37 38
f 18 38 39
f 18 39 40
f 18 40 41
f 18 41 42
f 18 42 19
f 18 35 43
f 18 43 36
f 19 42 44
f 19 44 45
f 19 45 20
f 20 45 46
f 20 46 47
f 20 47 48
f 20 48 21
f 21 48 22
f 22 48 23
f 23 48 49
f 23 49 24
f 24 49 25
f 25 49 50
f 25 50 51
f 25 51 52
f 25 52 26
f 26 52 28
f 26 28 27
f 28 53 30
f 28 30 29
f 28 52 51
f 28 51 53
f 30 53 31
f 31 54 55
f 31 55 56
f 31 56 57
f 31 57 58
f 31 58 32
f 31 53 54
f 33 59 60
f 33 60 34
f 36 43 37
f 37 43 61
f 37 61 62
f 37 62 63
f 37 63 38
f 38 63 64
f 38 64 39
f 39 64 40
f 40 64 65
f 40 65 66
f 40 66 41
f 41 66 67
f 41 67 42
f 42 67 44
f 44 67 45
f 45 67 68
f 45 68 46
f 46 69 47
f 46 68 69
f 47 69 48
f 48 69 70
f 48 70 71
f 48 71 54
f 48 54 72
f 48 72 49
f 49 72 53
f 49 53 50
f 50 53 51
f 53 72 54
f 54 71 73
f 54 73 55
f 55 74 56
f 55 73 75
f 55 75 76
f 55 76 74
f 56 74 77
f 56 77 78
f 56 78 57
f 57 78 79
f 57 79 58
f 59 80 81
f 59 81 82
f 59 82 83
f 59 83 84
f 59 84 85
f 59 85 86
f 59 86 87
f 59 87 88
f 59 88 89
f 59 89 90
f 59 90 91
f 59 91 92
f 59 92 93
f 59 93 94
f 59 94 95
f 59 95 96
f 59 96 60
f 60 96 97
f 61 98 151
f 61 151 154
f 61 154 99
f 61 99 63
f 61 63 62
f 63 99 100
f 63 100 101
f 63 101 102
f 63 102 103
f 63 103 104
f 63 104 105
f 63 105 64
f 64 105 65
f 65 67 66
f 65 105 106
f 65 106 107
f 65 107 67
f 67 107 108
f 67 108 68
f 68 108 109
f 68 109 110
f 68 110 111
f 68 111 112
f 68 112 69
f 69 112 71
f 69 71 70
f 71 112 113
f 71 113 73
f 73 113 75
f 74 76 114
f 74 114 115
f 74 115 77
f 75 113 116
f 75 116 117
f 75 117 76
f 76 117 118
f 76 118 114
f 77 119 78
f 77 115 120
f 77 120 119
f 78 119 121
f 78 121 122
f 78 122 79
f 80 123 124
f 80 124 125
f 80 125 126
f 80 126 81
f 81 126 125
f 81 125 127
f 81 127 128
f 81 128 129
f 81 129 130
f 81 130 82
f 82 130 131
f 82 131 83
f 83 131 132
f 83 132 133
f 83 133 84
f 84 133 85
f 85 133 134
f 85 134 86
f 86 135 136
f 86 136 87
f 86 134 137
f 86 137 135
f 87 136 88
f 88 138 139
f 88 139 89
f 88 136 138
f 89 139 140
f 89 140 141
f 89 141 142
f 89 142 90
f 90 142 91
f 91 142 143
f 91 143 92
f 92 143 93
f 93 144 94
f 93 143 144
f 94 144 145
f 94 145 146
f 94 146 95
f 95 146 147
f 95 147 96
f 96 147 148
f 96 148 97
f 97 148 149
f 98 150 211
f 98 211 151
f 99 152 153
f 99 153 100
f 99 154 155
f 99 155 152
f 100 153 152
f 100 152 156
f 100 156 157
f 100 157 158
f 100 158 101
f 101 159 160
f 101 160 102
f 101 158 159
f 102 161 103
f 102 160 161
f 103 161 162
f 103 162 104
f 104 163 105
f 104 162 164
f 104 164 165
f 104 165 163
f 105 163 166
f 105 166 106
f 106 166 108
f 106 108 107
f 108 166 109
f 109 166 167
f 109 167 168
f 109 168 169
f 109 169 110
f 110 169 170
f 110 170 111
f 111 171 112
f 111 170 171
f 112 171 113
f 113 171 172
f 113 172 116
f 114 118 115
f 115 118 173
f 115 173 120
f 116 174 175
f 116 175 117
f 116 172 169
f 116 169 176
f 116 176 177
f 116 177 178
f 116 178 174
f 117 175 179
f 117 179 118
f 118 179 173
f 119 120 121
f 120 180 122
f 120 122 121
f 120 173 181
f 120 181 180
f 122 180 182
f 123 183 184
f 123 184 185
f 123 185 124
f 123 186 183
f 124 185 184
f 124 184 187
f 124 187 125
f 125 188 189
f 125 189 190
f 125 190 191
f 125 191 127
f 125 187 192
f 125 192 188
f 127 191 128
f 128 191 129
f 129 193 194
f 129 194 195
f 129 195 131
f 129 131 130
f 129 191 261
f 129 261 193
f 131 195 132
f 132 195 133
f 133 195 196
f 133 196 134
f 134 196 137
f 135 137 197
f 135 197 198
f 135 198 136
f 136 198 199
f 136 199 200
f 136 200 138
f 137 196 197
f 138 200 201
f 138 201 139
f 139 201 140
f 140 201 202
f 140 202 203
f 140 203 141
f 141 203 142
f 142 203 143
f 143 203 144
f 144 203 145
f 145 203 204
f 145 204 279
f 145 279 205
f 145 205 146
f 146 205 206
f 146 206 147
f 147 206 207
f 147 207 208
f 147 208 149
f 147 149 148
f 149 208 209
f 150 210 284
f 150 284 211
f 151 211 212
f 151 212 154
f 152 213 156
f 152 155 214
f 152 214 215
f 152 215 213
f 154 216 155
f 154 212 217
f 154 217 216
f 155 216 218
f 155 218 214
f 156 213 219
f 156 219 157
f 157 220 221
f 157 221 222
f 157 222 159
f 157 159 158
f 157 219 220
f 159 222 223
f 159 223 161
f 159 161 160
f 161 224 225
f 161 225 226
f 161 226 227
f 161 227 165
f 161 165 164
f 161 164 162
f 161 223 228
f 161 228 229
f 161 229 224
f 163 165 166
f 165 227 230
f 165 230 166
f 166 230 167
f 167 230 231
f 167 231 232
f 167 232 168
f 168 232 233
f 168 233 234
f 168 234 169
f 169 234 235
f 169 235 236
f 169 236 176
f 169 172 170
f 170 172 171
f 173 179 181
f 174 237 238
f 174 238 179
f 174 179 175
f 174 178 237
f 176 236 177
f 177 236 178
f 178 239 240
f 178 240 241
f 178 241 242
f 178 242 243
f 178 243 244
f 178 244 237
f 178 236 239
f 179 245 181
f 179 238 246
f 179 246 245
f 180 181 247
f 180 247 182
f 181 245 247
f 182 247 248
f 182 248 249
f 182 249 250
f 182 250 251
f 182 251 252
f 183 186 253
f 183 253 321
f 183 321 254
f 183 254 184
f 184 254 255
f 184 255 256
f 184 256 192
f 184 192 187
f 188 257 189
f 188 192 258
f 188 258 257
f 189 257 259
f 189 259 260
f 189 260 190
f 190 260 261
f 190 261 191
f 192 256 332
f 192 332 262
f 192 262 258
f 193 261 263
f 193 263 264
f 193 264 265
f 193 265 194
f 194 265 266
f 194 266 267
f 194 267 268
f 194 268 195
f 195 268 197
f 195 197 196
f 197 268 198
f 198 268 269
f 198 269 270
f 198 270 199
f 199 270 271
f 199 271 200
f 200 271 272
f 200 272 201
f 201 273 274
f 201 274 202
f 201 272 275
f 201 275 273
f 202 274 203
f 203 276 204
f 203 274 276
f 204 276 277
f 204 277 278
f 204 278 279
f 205 279 207
f 205 207 206
f 207 279 280
f 207 280 208
f 208 280 352
f 208 352 281
f 208 281 282
f 208 282 209
f 210 283 354
f 210 354 284
f 211 285 212
f 211 284 285
f 212 285 286
f 212 286 217
f 213 215 219
f 214 218 287
f 214 287 215
f 215 287 288
f 215 288 289
f 215 289 290
f 215 290 219
f 216 217 291
f 216 291 292
f 216 292 218
f 217 286 293
f 217 293 291
f 218 292 294
f 218 294 295
f 218 295 287
f 219 290 220
f 220 296 297
f 220 297 221
f 220 290 298
f 220 298 299
f 220 299 296
f 221 297 300
f 221 300 301
f 221 301 222
f 222 301 223
f 223 302 229
f 223 229 228
f 223 301 303
f 223 303 302
f 224 304 225
f 224 229 302
f 224 302 304
f 225 304 226
f 226 304 305
f 226 305 227
f 227 305 233
f 227 233 231
f 227 231 230
f 231 233 232
f 233 240 234
f 233 305 306
f 233 306 307
f 233 307 240
f 234 240 235
f 235 240 239
f 235 239 236
f 237 244 238
f 238 308 246
f 238 244 309
f 238 309 308
f 240 307 310
f 240 310 241
f 241 310 311
f 241 311 312
f 241 312 242
f 242 313 314
f 242 314 315
f 242 315 316
f 242 316 317
f 242 317 243
f 242 312 313
f 243 317 244
f 244 317 309
f 245 246 318
f 245 318 249
f 245 249 247
f 246 308 318
f 247 249 248
f 249 318 319
f 249 319 250
f 250 319 320
f 250 320 251
f 251 320 252
f 253 322 323
f 253 323 321
f 254 321 324
f 254 324 325
f 254 325 255
f 255 325 326
f 255 326 327
f 255 327 328
f 255 328 329
f 255 329 330
f 255 330 256
f 256 330 329
f 256 329 331
f 256 331 332
f 257 258 333
f 257 333 334
f 257 334 335
f 257 335 259
f 258 262 333
f 259 335 336
f 259 336 337
f 259 337 260
f 260 337 338
f 260 338 261
f 261 264 263
f 261 338 264
f 262 332 333
f 264 338 337
f 264 337 339
f 264 339 340
f 264 340 341
f 264 341 266
f 264 266 265
f 266 341 267
f 267 341 268
f 268 341 342
f 268 342 269
f 269 342 343
f 269 343 344
f 269 344 270
f 270 344 345
f 270 345 271
f 271 345 275
f 271 275 272
f 273 346 347
f 273 347 274
f 273 275 345
f 273 345 346
f 274 348 277
f 274 277 276
f 274 347 349
f 274 349 348
f 277 350 278
f 277 348 350
f 278 350 279
f 279 350 351
f 279 351 280
f 280 351 417
f 280 417 352
f 281 352 353
f 281 353 354
f 281 354 283
f 281 283 355
f 281 355 282
f 284 353 356
f 284 356 286
f 284 286 285
f 284 354 353
f 286 356 293
f 287 295 357
f 287 357 288
f 288 357 289
f 289 358 290
f 289 357 359
f 289 359 358
f 290 358 298
f 291 293 360
f 291 360 361
f 291 361 292
f 292 361 362
f 292 362 294
f 293 356 360
f 294 362 295
f 295 362 363
f 295 363 364
f 295 364 357
f 296 365 366
f 296 366 367
f 296 367 297
f 296 299 368
f 296 368 369
f 296 369 333
f 296 333 370
f 296 370 365
f 297 367 303
f 297 303 300
f 298 358 371
f 298 371 372
f 298 372 373
f 298 373 299
f 299 373 368
f 300 303 301
f 302 374 375
f 302 375 304
f 302 303 376
f 302 376 374
f 303 367 377
f 303 377 376
f 304 378 379
f 304 379 306
f 304 306 305
f 304 375 380
f 304 380 381
f 304 381 382
f 304 382 378
f 306 379 307
f 307 311 310
f 307 379 383
f 307 383 312
f 307 312 311
f 308 309 319
f 308 319 318
f 309 317 319
f 312 383 378
f 312 378 384
f 312 384 385
f 312 385 313
f 313 385 314
f 314 385 315
f 315 386 316
f 315 385 384
f 315 384 387
f 315 387 388
f 315 388 386
f 316 389 317
f 316 386 389
f 317 389 319
f 319 389 390
f 319 390 391
f 319 391 320
f 320 391 392
f 321 323 393
f 321 393 324
f 322 394 323
f 323 395 396
f 323 396 397
f 323 397 324
f 323 324 393
f 323 394 398
f 323 398 399
f 323 399 400
f 323 400 401
f 323 401 402
f 323 402 395
f 324 403 327
f 324 327 325
f 324 397 403
f 325 327 326
f 327 403 328
f 328 403 329
f 329 403 404
f 329 404 405
f 329 405 331
f 331 333 332
f 331 405 406
f 331 406 333
f 333 406 407
f 333 407 370
f 333 369 408
f 333 408 334
f 334 409 410
f 334 410 335
f 334 408 409
f 335 410 411
f 335 411 336
f 336 411 339
f 336 339 337
f 339 411 340
f 340 411 412
f 340 412 341
f 341 412 342
f 342 412 343
f 343 413 414
f 343 414 344
f 343 412 413
f 344 414 347
f 344 347 346
f 344 346 345
f 347 415 349
f 347 414 415
f 348 349 416
f 348 416 350
f 349 415 416
f 350 417 351
f 350 416 417
f 352 417 418
f 352 418 419
f 352 419 353
f 353 419 356
f 356 419 420
f 356 420 361
f 356 361 360
f 357 364 421
f 357 421 413
f 357 413 422
f 357 422 359
f 358 359 423
f 358 423 424
f 358 424 371
f 359 422 425
f 359 425 423
f 361 420 426
f 361 426 427
f 361 427 362
f 362 427 428
f 362 428 363
f 363 428 415
f 363 415 364
f 364 415 421
f 365 370 407
f 365 407 429
f 365 429 430
f 365 430 377
f 365 377 366
f 366 377 367
f 368 373 408
f 368 408 369
f 371 424 411
f 371 411 431
f 371 431 410
f 371 410 409
f 371 409 372
f 372 409 432
f 372 432 373
f 373 432 408
f 374 433 375
f 374 376 433
f 375 433 380
f 376 377 434
f 376 434 435
f 376 435 436
f 376 436 433
f 377 430 406
f 377 406 437
f 377 437 434
f 378 383 379
f 378 382 381
f 378 381 438
f 378 438 384
f 380 433 439
f 380 439 381
f 381 440 438
f 381 439 436
f 381 436 440
f 384 438 441
f 384 441 387
f 386 388 442
f 386 442 443
f 386 443 389
f 387 444 442
f 387 442 388
f 387 441 444
f 389 443 390
f 390 445 391
f 390 443 446
f 390 446 442
f 390 442 444
f 390 444 447
f 390 447 448
f 390 448 445
f 391 445 392
f 392 445 449
f 395 437 406
f 395 406 396
f 395 402 450
f 395 450 451
f 395 451 436
f 395 436 437
f 396 406 404
f 396 404 403
f 396 403 397
f 398 452 399
f 399 452 453
f 399 453 454
f 399 454 400
f 400 454 455
f 400 455 401
f 401 455 456
f 401 456 402
f 402 451 450
f 402 456 457
f 402 457 440
f 402 440 458
f 402 458 451
f 404 406 405
f 406 430 429
f 406 429 407
f 408 432 409
f 410 431 411
f 411 425 413
f 411 413 412
f 411 424 425
f 413 425 422
f 413 421 459
f 413 459 415
f 413 415 414
f 415 460 417
f 415 417 416
f 415 459 421
f 415 428 460
f 417 460 418
f 418 460 427
f 418 427 426
f 418 426 419
f 419 426 420
f 423 425 424
f 427 460 428
f 433 436 439
f 434 437 435
f 435 437 436
f 436 458 440
f 436 451 458
f 438 440 441
f 440 457 441
f 441 457 461
f 441 461 462
f 441 462 444
f 442 446 443
f 444 462 447
f 445 448 463
f 445 463 464
f 445 464 449
f 447 463 448
f 447 462 465
f 447 465 466
f 447 466 463
f 449 464 467
f 449 467 468
f 453 469 463
f 453 463 466
f 453 466 465
f 453 465 462
f 453 462 461
f 453 461 454
f 454 461 455
f 455 461 457
f 455 457 456
f 463 469 464
f 464 469 470
f 464 470 467
f 467 470 468

