# https://github.com/mikedh/trimesh
v 0.00004535 0.04415596 0.05497264
v -0.00600350 0.04415596 0.05497264
v -0.01036910 0.04306759 0.05498046
v -0.02779426 0.03435114 0.05501175
v -0.03178731 0.03035833 0.05498828
v 0.00004535 0.04325578 0.05473793
v 0.00004535 0.04511888 0.05475358
v -0.00055073 0.04511888 0.05475358
v -0.00164129 0.04510791 0.05474576
v -0.00273184 0.04507184 0.05473793
v -0.00709067 0.04415596 0.05494916
v -0.01145288 0.04306759 0.05497264
v -0.01690904 0.04088769 0.05498828
v -0.01472793 0.04197764 0.05498046
v -0.02343543 0.03762255 0.05499610
v -0.02671048 0.03544109 0.05499610
v -0.03106931 0.03217125 0.05492570
v -0.03215986 0.03035833 0.05496481
v -0.03431388 0.03020464 0.05209369
v -0.03020229 0.03020464 0.05209369
v -0.03071708 0.03035833 0.05474576
v -0.03036147 0.03035833 0.05461276
v 0.00004535 0.04280255 0.05396344
v 0.00004535 0.04561759 0.05396344
v -0.00055073 0.04561759 0.05396344
v -0.00164129 0.04560191 0.05396344
v -0.00491295 0.04497774 0.05471447
v -0.00600350 0.04492755 0.05469100
v -0.00709067 0.04486326 0.05465971
v -0.00818461 0.04415596 0.05488658
v -0.01254683 0.04306759 0.05491005
v -0.01798605 0.04088769 0.05494916
v -0.02016716 0.03979618 0.05495699
v -0.01582187 0.04197764 0.05491005
v -0.02234149 0.03870623 0.05494134
v -0.02561993 0.03653261 0.05494916
v -0.02888820 0.03435114 0.05487094
v -0.02997876 0.03326119 0.05491005
v -0.03215986 0.03107973 0.05491787
v -0.03098464 0.03319376 0.05465971
v -0.03209551 0.03210067 0.05466753
v -0.03288126 0.03035833 0.05491005
v -0.03322332 0.03035833 0.05481617
v -0.03375844 0.03035833 0.05465188
v -0.03394133 0.03035833 0.05458930
v -0.03406664 0.03035833 0.05438589
v -0.03413099 0.03035833 0.05399473
v -0.03417840 0.03035833 0.05287601
v -0.03391423 0.03066257 0.05287601
v -0.03447306 0.03005408 0.00927723
v -0.03455434 0.02995528 0.01164766
v -0.03454757 0.02995528 0.01979945
v 0.00004535 0.04270532 0.05287601
v -0.03012778 0.03035833 0.05396344
v -0.03010407 0.02995528 0.01979945
v -0.02826503 0.02969809 -0.02491023
v 0.00000471 0.04088769 -0.02491023
v 0.00004535 0.04566307 0.05337670
v -0.00055073 0.04570071 0.05287601
v -0.00164129 0.04568817 0.05287601
v -0.00273184 0.04562857 0.05287601
v -0.00273184 0.04553448 0.05396344
v -0.00491295 0.04535413 0.05396344
v -0.00818461 0.04479268 0.05460495
v -0.01145288 0.04384702 0.05469100
v -0.01254683 0.04373567 0.05462841
v -0.01582187 0.04265043 0.05462841
v -0.01909015 0.04093631 0.05476141
v -0.02126787 0.03983381 0.05476141
v -0.01798605 0.04164830 0.05466753
v -0.02462759 0.03772136 0.05479270
v -0.02340495 0.03870779 0.05473793
v -0.02561993 0.03742025 0.05469100
v -0.02668339 0.03652947 0.05473793
v -0.02783829 0.03549284 0.05478487
v -0.02987038 0.03426489 0.05462059
v -0.03056467 0.03384616 0.05455018
v -0.03169248 0.03278914 0.05457365
v -0.03317591 0.03100132 0.05465971
v -0.03384311 0.03058416 0.05455018
v -0.03388714 0.03063591 0.05396344
v -0.03339605 0.03120676 0.05287601
v -0.03354507 0.03105464 0.05209369
v -0.03370425 0.03088840 0.04915216
v -0.03341976 0.03121931 0.00818198
v -0.03380586 0.03080215 0.00793163
v -0.03392101 0.03067355 0.00818198
v -0.03392101 0.03067355 0.00793163
v -0.03447306 0.03005251 0.00793163
v -0.03455434 0.02995528 0.00793163
v 0.00004535 0.04270532 0.05209369
v -0.02826503 0.03511646 -0.02491023
v 0.00000471 0.04570855 -0.02491023
v 0.00004535 0.04570071 0.05287601
v -0.00055412 0.04571953 0.02561993
v -0.00085893 0.04569914 0.05209369
v -0.00164129 0.04569130 0.02780260
v -0.00273184 0.04563955 0.01799229
v -0.00194948 0.04567248 0.05209369
v -0.00273523 0.04563014 0.04915216
v -0.00382239 0.04557211 0.01254733
v -0.00382239 0.04554232 0.05287601
v -0.00491295 0.04545292 0.05287601
v -0.00600350 0.04523650 0.05396344
v -0.00890600 0.04473936 0.05455018
v -0.01321741 0.04365255 0.05455801
v -0.01645182 0.04255633 0.05455018
v -0.01874131 0.04151343 0.05458930
v -0.02016716 0.04061168 0.05468317
v -0.02090210 0.04043917 0.05459712
v -0.02234149 0.03949193 0.05466753
v -0.02301885 0.03932883 0.05458147
v -0.02630406 0.03718187 0.05458930
v -0.02750638 0.03616406 0.05462841
v -0.02888820 0.03509764 0.05461276
v -0.02943348 0.03489847 0.05451106
v -0.03175345 0.03285188 0.05396344
v -0.03229872 0.03229514 0.05396344
v -0.03336557 0.03118167 0.05396344
v -0.03232582 0.03231866 0.05287601
v -0.03217341 0.03248020 0.05209369
v -0.03285755 0.03178859 0.02860839
v -0.03341976 0.03121774 0.01036465
v -0.03287110 0.03178859 0.00818198
v -0.03287110 0.03178859 0.00793163
v -0.03341637 0.03121774 0.00793163
v -0.02826503 0.03590843 -0.02490241
v 0.00004535 0.04570071 0.05209369
v -0.02825826 0.03591314 -0.02491023
v -0.00054734 0.04571483 -0.01580400
v 0.00000471 0.04571326 -0.01580400
v -0.00054734 0.04570855 -0.02491023
v 0.00000132 0.04571640 0.02567469
v -0.00001561 0.04571953 0.02561993
v -0.00163790 0.04568503 -0.01253390
v -0.00272845 0.04564112 -0.01035122
v -0.00490956 0.04546704 0.01145990
v -0.00381901 0.04556114 -0.01143865
v -0.00490956 0.04546704 0.00708673
v -0.00600350 0.04532590 0.04915216
v -0.00600350 0.04532433 0.05287601
v -0.00709067 0.04508752 0.05396344
v -0.00818461 0.04492912 0.05396344
v -0.00907534 0.04477230 0.05396344
v -0.01254683 0.04391132 0.05396344
v -0.01334273 0.04369333 0.05396344
v -0.01653988 0.04259554 0.05396344
v -0.01888694 0.04157930 0.05396344
v -0.01943560 0.04132681 0.05396344
v -0.02104434 0.04051288 0.05396344
v -0.02505433 0.03814792 0.05441718
v -0.02312385 0.03939156 0.05396344
v -0.02641583 0.03726185 0.05396344
v -0.02822439 0.03588334 0.05396344
v -0.02826164 0.03592882 0.05287601
v -0.02945380 0.03491885 0.05396344
v -0.03000585 0.03443426 0.05396344
v -0.03061887 0.03388693 0.05396344
v -0.03116414 0.03339606 0.05396344
v -0.03178054 0.03287697 0.05287601
v -0.03178054 0.03287697 0.05209369
v -0.03183812 0.03281894 0.04621063
v -0.03177716 0.03287854 0.04621063
v -0.03177377 0.03288011 0.04306570
v -0.03065951 0.03392771 0.03870817
v -0.02826503 0.03595078 0.00381662
v -0.02771298 0.03634128 -0.02491023
v -0.02975861 0.03471341 0.04034322
v -0.00709067 0.04513770 -0.02491023
v -0.00709067 0.04515182 -0.02452689
v -0.00600011 0.04528198 -0.02343946
v -0.00490956 0.04539647 -0.02234421
v -0.00381901 0.04550625 -0.02125678
v -0.00381901 0.04551252 -0.02016936
v -0.00574610 0.04536667 0.00792381
v -0.00600350 0.04533531 0.01145990
v -0.00490956 0.04544665 -0.01035122
v -0.00490956 0.04546234 0.00054652
v -0.00490956 0.04546547 0.00490405
v -0.00600011 0.04533060 -0.00054091
v -0.00709744 0.04517691 0.02567469
v -0.00740564 0.04509850 0.05209369
v -0.00818461 0.04496990 0.05287601
v -0.00915324 0.04479111 0.05287601
v -0.00969852 0.04467663 0.05287601
v -0.01036910 0.04451510 0.05287601
v -0.01145288 0.04424693 0.05287601
v -0.01254683 0.04396464 0.05287601
v -0.01339014 0.04371214 0.05287601
v -0.01472793 0.04326676 0.05287601
v -0.01582187 0.04289508 0.05287601
v -0.01658052 0.04261436 0.05287601
v -0.01948302 0.04137072 0.05287601
v -0.02016716 0.04102570 0.05287601
v -0.02163365 0.04025568 0.05287601
v -0.02234149 0.03987459 0.05287601
v -0.02552171 0.03787034 0.05401820
v -0.02510174 0.03817772 0.05368962
v -0.02316449 0.03941665 0.05287601
v -0.02566057 0.03783427 0.05287601
v -0.02644970 0.03729165 0.05287601
v -0.02699497 0.03688390 0.05287601
v -0.02844114 0.03578611 0.05209369
v -0.02888820 0.03542541 0.05287601
v -0.02772991 0.03635225 0.02889785
v -0.02826503 0.03595078 0.00386356
v -0.02948090 0.03493924 0.05287601
v -0.03002956 0.03445622 0.05287601
v -0.03064257 0.03391203 0.05287601
v -0.03118785 0.03342273 0.05287601
v -0.03119124 0.03342273 0.05209369
v -0.02701530 0.03690272 0.00927723
v -0.02773668 0.03634598 -0.00708112
v -0.02948428 0.03494865 0.04034322
v -0.02697804 0.03688390 -0.02452689
v -0.02688660 0.03689017 -0.02491023
v -0.02701530 0.03690115 0.00793163
v -0.02948428 0.03494865 0.04088302
v -0.00818122 0.04495892 -0.02491023
v -0.00818122 0.04498088 0.00054652
v -0.00709067 0.04516750 -0.00599369
v -0.00600011 0.04533531 0.00792381
v -0.00600350 0.04533531 0.00927723
v -0.00683666 0.04521612 0.00792381
v -0.00845894 0.04492285 0.05209369
v -0.00709067 0.04517848 0.01036465
v -0.00818122 0.04498088 0.00381662
v -0.00915662 0.04479268 0.04915216
v -0.00938354 0.04474721 0.04915216
v -0.01036910 0.04452765 0.04034322
v -0.01036233 0.04454333 -0.00272359
v -0.01145288 0.04425947 0.04034322
v -0.01339353 0.04371214 0.04915216
v -0.01201510 0.04411206 0.04034322
v -0.01145288 0.04427516 -0.00272359
v -0.01254344 0.04396934 -0.00163616
v -0.01339692 0.04371528 0.00164177
v -0.01472793 0.04329655 0.01036465
v -0.01582187 0.04289665 0.05209369
v -0.01658729 0.04261593 0.04621063
v -0.01697339 0.04244812 0.05209369
v -0.01948302 0.04137072 0.04034322
v -0.02111885 0.04055365 -0.01471658
v -0.01798605 0.04204037 0.01690486
v -0.01893774 0.04161537 -0.01035122
v -0.02111208 0.04055208 0.02567469
v -0.02163365 0.04028234 0.02567469
v -0.02234149 0.03987616 0.05209369
v -0.02370976 0.03907634 0.05287601
v -0.02511529 0.03818713 0.05287601
v -0.02370976 0.03907791 0.05209369
v -0.02169800 0.04024627 0.02567469
v -0.02317126 0.03941509 -0.01035122
v -0.02371654 0.03908732 -0.01035122
v -0.02370299 0.03909202 0.01799229
v -0.02452599 0.03858704 0.01580961
v -0.02511868 0.03818713 0.05209369
v -0.02550478 0.03793621 0.05209369
v -0.02513561 0.03819968 0.02274098
v -0.02514238 0.03820438 0.00792381
v -0.02567750 0.03783584 0.02274098
v -0.02646663 0.03729635 0.02670735
v -0.02700513 0.03690272 0.02453250
v -0.02701530 0.03690272 0.01036465
v -0.02647002 0.03729635 0.00818198
v -0.02647340 0.03729322 0.00708673
v -0.02646663 0.03729008 -0.00054091
v -0.02512884 0.03820125 -0.01143865
v -0.02509158 0.03817145 -0.02292313
v -0.02643276 0.03724303 -0.02452689
v -0.02652421 0.03712855 -0.02491023
v -0.00910244 0.04477857 -0.02491023
v -0.00917017 0.04479425 -0.00163616
v -0.00709067 0.04517848 0.00792381
v -0.00915662 0.04479739 0.00054652
v -0.00971545 0.04468290 -0.00163616
v -0.00969852 0.04468604 -0.00272359
v -0.01036233 0.04452765 -0.02491023
v -0.01107356 0.04435357 -0.02491023
v -0.01394558 0.04354277 0.00490405
v -0.01145288 0.04425947 -0.02491023
v -0.01216412 0.04405246 -0.02491023
v -0.01254344 0.04394111 -0.02491023
v -0.01355610 0.04364001 -0.02491023
v -0.01339692 0.04371528 0.00054652
v -0.01472793 0.04329655 0.00793163
v -0.01581510 0.04291076 0.01254733
v -0.01659745 0.04261593 0.01254733
v -0.01714273 0.04240107 0.01036465
v -0.01948302 0.04136288 -0.01035122
v -0.02111208 0.04055051 -0.02491023
v -0.02166413 0.04026509 -0.01471658
v -0.01798605 0.04204037 0.01580961
v -0.01798943 0.04202782 -0.01143865
v -0.01798943 0.04199019 -0.02016936
v -0.02078356 0.04070891 -0.02491023
v -0.01947286 0.04136444 -0.01143865
v -0.02165735 0.04025725 -0.02491023
v -0.02453276 0.03857763 -0.01143865
v -0.02452599 0.03858704 0.01472219
v -0.02568766 0.03783427 0.00792381
v -0.02568428 0.03783427 0.00490405
v -0.00964771 0.04467036 -0.02491023
v -0.01011171 0.04457783 -0.02491023
v -0.01390832 0.04353336 -0.02491023
v -0.01581510 0.04291076 0.00927723
v -0.01444005 0.04336242 -0.02491023
v -0.01472116 0.04326989 -0.02452689
v -0.01581171 0.04290605 -0.00054091
v -0.01659745 0.04261593 0.01145990
v -0.01714273 0.04240107 0.00793163
v -0.02130174 0.04045014 -0.02491023
v -0.01713257 0.04240107 0.00164177
v -0.01711225 0.04239166 -0.01035122
v -0.01648569 0.04259083 -0.02343946
v -0.01472116 0.04324951 -0.02491023
v -0.01659068 0.04261593 0.00490405
v -0.01581171 0.04285273 -0.02343946
v -0.01656697 0.04260651 -0.01035122
v -0.01658391 0.04261436 0.00054652
v -0.01658729 0.04261436 0.00164177
f 1 2 3
f 1 3 4
f 1 4 5
f 1 5 6
f 1 6 23
f 1 23 53
f 1 53 91
f 1 91 128
f 1 128 94
f 1 94 58
f 1 58 24
f 1 24 7
f 1 7 8
f 1 8 2
f 2 8 9
f 2 9 10
f 2 10 11
f 2 11 12
f 2 12 3
f 3 13 4
f 3 12 14
f 3 14 13
f 4 15 16
f 4 16 17
f 4 17 18
f 4 18 5
f 4 13 15
f 5 18 19
f 5 19 20
f 5 20 21
f 5 21 6
f 6 21 22
f 6 22 23
f 7 24 25
f 7 25 8
f 8 25 26
f 8 26 9
f 9 26 10
f 10 27 11
f 10 26 27
f 11 27 28
f 11 28 29
f 11 29 30
f 11 30 31
f 11 31 12
f 12 31 14
f 13 14 32
f 13 32 33
f 13 33 15
f 14 31 34
f 14 34 32
f 15 33 35
f 15 35 36
f 15 36 16
f 16 36 37
f 16 37 38
f 16 38 17
f 17 39 18
f 17 38 40
f 17 40 41
f 17 41 39
f 18 39 42
f 18 42 19
f 19 42 43
f 19 43 44
f 19 44 45
f 19 45 46
f 19 46 47
f 19 47 48
f 19 48 49
f 19 49 50
f 19 50 51
f 19 51 52
f 19 52 55
f 19 55 20
f 20 53 54
f 20 54 22
f 20 22 21
f 20 55 56
f 20 56 57
f 20 57 53
f 22 54 23
f 23 54 53
f 24 58 25
f 25 58 59
f 25 59 60
f 25 60 26
f 26 60 61
f 26 61 62
f 26 62 28
f 26 28 27
f 28 62 29
f 29 62 63
f 29 63 64
f 29 64 30
f 30 64 65
f 30 65 31
f 31 65 66
f 31 66 67
f 31 67 34
f 32 34 68
f 32 68 33
f 33 68 69
f 33 69 35
f 34 67 70
f 34 70 68
f 35 71 36
f 35 69 72
f 35 72 71
f 36 71 73
f 36 73 74
f 36 74 75
f 36 75 37
f 37 75 76
f 37 76 40
f 37 40 38
f 39 41 42
f 40 76 77
f 40 77 78
f 40 78 41
f 41 79 43
f 41 43 42
f 41 78 79
f 43 79 44
f 44 79 45
f 45 79 80
f 45 80 46
f 46 80 47
f 47 80 81
f 47 81 49
f 47 49 48
f 49 81 82
f 49 82 83
f 49 83 84
f 49 84 85
f 49 85 86
f 49 86 87
f 49 87 50
f 50 87 88
f 50 88 89
f 50 89 90
f 50 90 51
f 51 90 56
f 51 56 52
f 52 56 55
f 53 57 91
f 56 92 129
f 56 129 167
f 56 167 216
f 56 216 271
f 56 271 298
f 56 298 312
f 56 312 291
f 56 291 296
f 56 296 316
f 56 316 307
f 56 307 305
f 56 305 284
f 56 284 283
f 56 283 282
f 56 282 281
f 56 281 279
f 56 279 278
f 56 278 304
f 56 304 303
f 56 303 272
f 56 272 219
f 56 219 169
f 56 169 132
f 56 132 93
f 56 93 57
f 56 90 92
f 57 93 128
f 57 128 91
f 58 94 59
f 59 94 134
f 59 134 95
f 59 95 96
f 59 96 60
f 60 96 95
f 60 95 97
f 60 97 98
f 60 98 99
f 60 99 61
f 61 99 100
f 61 100 101
f 61 101 102
f 61 102 62
f 62 102 103
f 62 103 63
f 63 104 105
f 63 105 64
f 63 103 104
f 64 105 66
f 64 66 65
f 66 105 106
f 66 106 67
f 67 106 107
f 67 107 108
f 67 108 70
f 68 70 108
f 68 108 109
f 68 109 69
f 69 109 110
f 69 110 111
f 69 111 72
f 71 72 73
f 72 111 112
f 72 112 73
f 73 112 113
f 73 113 74
f 74 113 114
f 74 114 75
f 75 114 115
f 75 115 76
f 76 115 116
f 76 116 77
f 77 116 117
f 77 117 78
f 78 117 118
f 78 118 80
f 78 80 79
f 80 118 119
f 80 119 81
f 81 119 82
f 82 119 118
f 82 118 120
f 82 120 121
f 82 121 83
f 83 121 122
f 83 122 123
f 83 123 84
f 84 123 85
f 85 123 122
f 85 122 124
f 85 124 125
f 85 125 126
f 85 126 86
f 86 126 127
f 86 127 88
f 86 88 87
f 88 127 89
f 89 127 90
f 90 127 92
f 92 127 129
f 93 130 131
f 93 131 128
f 93 132 130
f 94 128 133
f 94 133 134
f 95 134 130
f 95 130 97
f 97 130 135
f 97 135 136
f 97 136 98
f 98 136 101
f 98 101 100
f 98 100 99
f 101 137 103
f 101 103 102
f 101 136 138
f 101 138 139
f 101 139 137
f 103 140 141
f 103 141 104
f 103 137 140
f 104 142 105
f 104 141 142
f 105 142 143
f 105 143 144
f 105 144 145
f 105 145 106
f 106 145 146
f 106 146 107
f 107 146 147
f 107 147 148
f 107 148 108
f 108 148 149
f 108 149 110
f 108 110 109
f 110 149 150
f 110 150 112
f 110 112 111
f 112 151 113
f 112 150 152
f 112 152 151
f 113 151 116
f 113 116 114
f 114 116 115
f 116 151 153
f 116 153 154
f 116 154 155
f 116 155 156
f 116 156 157
f 116 157 158
f 116 158 159
f 116 159 117
f 117 159 160
f 117 160 118
f 118 160 120
f 120 160 121
f 121 160 124
f 121 124 122
f 124 160 161
f 124 161 125
f 125 127 126
f 125 161 162
f 125 162 163
f 125 163 164
f 125 164 165
f 125 165 127
f 127 166 167
f 127 167 129
f 127 165 168
f 127 168 166
f 128 131 133
f 130 132 135
f 130 134 131
f 131 134 133
f 132 169 170
f 132 170 171
f 132 171 172
f 132 172 173
f 132 173 174
f 132 174 138
f 132 138 136
f 132 136 135
f 137 139 175
f 137 175 176
f 137 176 140
f 138 174 172
f 138 172 171
f 138 171 177
f 138 177 178
f 138 178 179
f 138 179 139
f 139 179 180
f 139 180 175
f 140 181 141
f 140 176 181
f 141 181 182
f 141 182 183
f 141 183 143
f 141 143 142
f 143 183 144
f 144 183 184
f 144 184 185
f 144 185 186
f 144 186 187
f 144 187 145
f 145 187 188
f 145 188 146
f 146 188 189
f 146 189 190
f 146 190 191
f 146 191 147
f 147 191 192
f 147 192 193
f 147 193 148
f 148 193 149
f 149 193 194
f 149 194 150
f 150 194 195
f 150 195 196
f 150 196 152
f 151 197 153
f 151 152 198
f 151 198 197
f 152 196 199
f 152 199 198
f 153 198 200
f 153 200 201
f 153 201 202
f 153 202 155
f 153 155 154
f 153 197 198
f 155 203 204
f 155 204 156
f 155 202 205
f 155 205 206
f 155 206 203
f 156 204 207
f 156 207 157
f 157 207 208
f 157 208 209
f 157 209 158
f 158 209 210
f 158 210 159
f 159 210 160
f 160 210 211
f 160 211 165
f 160 165 161
f 161 165 163
f 161 163 162
f 163 165 164
f 165 211 209
f 165 209 208
f 165 208 207
f 165 207 168
f 166 206 264
f 166 264 212
f 166 212 213
f 166 213 167
f 166 168 214
f 166 214 218
f 166 218 206
f 167 215 216
f 167 213 217
f 167 217 215
f 168 207 218
f 168 218 214
f 169 219 170
f 170 219 220
f 170 220 221
f 170 221 180
f 170 180 177
f 170 177 171
f 172 174 173
f 175 222 223
f 175 223 176
f 175 180 222
f 176 223 224
f 176 224 181
f 177 180 178
f 178 180 179
f 180 221 224
f 180 224 222
f 181 225 183
f 181 183 182
f 181 224 226
f 181 226 227
f 181 227 225
f 183 225 184
f 184 225 228
f 184 228 229
f 184 229 185
f 185 230 186
f 185 229 231
f 185 231 230
f 186 230 232
f 186 232 187
f 187 232 188
f 188 233 189
f 188 232 234
f 188 234 235
f 188 235 236
f 188 236 237
f 188 237 233
f 189 233 238
f 189 238 190
f 190 239 191
f 190 238 239
f 191 239 192
f 192 239 240
f 192 240 241
f 192 241 193
f 193 242 243
f 193 243 194
f 193 241 244
f 193 244 245
f 193 245 242
f 194 243 246
f 194 246 247
f 194 247 195
f 195 247 248
f 195 248 196
f 196 248 199
f 198 199 249
f 198 249 250
f 198 250 200
f 199 251 249
f 199 248 247
f 199 247 252
f 199 252 253
f 199 253 254
f 199 254 255
f 199 255 256
f 199 256 251
f 200 250 257
f 200 257 258
f 200 258 259
f 200 259 260
f 200 260 261
f 200 261 262
f 200 262 201
f 201 262 263
f 201 263 202
f 202 263 205
f 203 206 204
f 204 206 218
f 204 218 207
f 205 263 264
f 205 264 206
f 209 211 210
f 212 264 265
f 212 265 266
f 212 266 267
f 212 267 217
f 212 217 213
f 215 267 268
f 215 268 269
f 215 269 270
f 215 270 216
f 215 217 267
f 216 270 271
f 219 272 273
f 219 273 220
f 220 227 226
f 220 226 274
f 220 274 221
f 220 273 275
f 220 275 227
f 221 274 224
f 222 224 223
f 224 274 226
f 225 227 228
f 227 275 228
f 228 275 229
f 229 275 276
f 229 276 231
f 230 231 235
f 230 235 232
f 231 276 277
f 231 277 278
f 231 278 279
f 231 279 235
f 232 235 234
f 233 237 280
f 233 280 238
f 235 279 281
f 235 281 236
f 236 281 282
f 236 282 283
f 236 283 284
f 236 284 285
f 236 285 237
f 237 285 280
f 238 280 286
f 238 286 306
f 238 306 287
f 238 287 239
f 239 287 240
f 240 287 288
f 240 288 289
f 240 289 244
f 240 244 241
f 242 245 290
f 242 290 243
f 243 290 291
f 243 291 312
f 243 312 292
f 243 292 247
f 243 247 246
f 244 289 311
f 244 311 293
f 244 293 245
f 245 293 294
f 245 294 295
f 245 295 296
f 245 296 297
f 245 297 290
f 247 292 252
f 249 251 257
f 249 257 250
f 251 256 259
f 251 259 257
f 252 292 253
f 253 292 298
f 253 298 254
f 254 298 269
f 254 269 299
f 254 299 260
f 254 260 300
f 254 300 256
f 254 256 255
f 256 300 260
f 256 260 259
f 257 259 258
f 260 301 261
f 260 299 268
f 260 268 301
f 261 301 262
f 262 301 265
f 262 265 264
f 262 264 263
f 265 301 266
f 266 302 268
f 266 268 267
f 266 301 302
f 268 299 269
f 268 302 301
f 269 298 270
f 270 298 271
f 272 303 273
f 273 277 276
f 273 276 275
f 273 303 304
f 273 304 278
f 273 278 277
f 280 285 286
f 284 305 285
f 285 305 286
f 286 305 307
f 286 307 308
f 286 308 309
f 286 309 306
f 287 306 310
f 287 310 288
f 288 310 311
f 288 311 289
f 290 297 296
f 290 296 291
f 292 312 298
f 293 311 294
f 294 311 313
f 294 313 314
f 294 314 295
f 295 314 315
f 295 315 296
f 296 315 316
f 306 309 317
f 306 317 310
f 307 316 308
f 308 316 315
f 308 315 318
f 308 318 319
f 308 319 309
f 309 319 320
f 309 320 321
f 309 321 317
f 310 317 311
f 311 317 313
f 313 317 321
f 313 321 320
f 313 320 319
f 313 319 314
f 314 319 315
f 315 319 318

