# https://github.com/mikedh/trimesh
v 0.00000339 0.04571837 -0.04089108
v 0.00000339 0.04571390 -0.03586676
v 0.00000339 0.04570047 -0.04961295
v -0.00054704 0.04570047 -0.04961295
v -0.00054704 0.04571390 -0.04198225
v -0.00054704 0.04571390 -0.03586676
v 0.00000339 0.03969069 -0.03586676
v 0.00000339 0.04569600 -0.05016514
v -0.00054704 0.04568705 -0.05070225
v -0.00163896 0.04566915 -0.05070225
v -0.00272639 0.04562887 -0.05070225
v -0.00120935 0.04568705 -0.03586676
v 0.00000339 0.00000283 -0.03893110
v -0.03960980 0.00000283 -0.03586676
v 0.00000339 0.04568705 -0.05070225
v 0.00000339 0.04566915 -0.05125632
v -0.00163896 0.04565125 -0.05179342
v -0.00272639 0.04561992 -0.05179342
v -0.00381831 0.04553490 -0.05070225
v -0.00381831 0.04555728 -0.03761943
v -0.00381831 0.04555728 -0.03586676
v -0.00272639 0.04561545 -0.03586676
v 0.00000339 0.00000283 -0.04759833
v -0.04566455 0.00000283 -0.03586676
v 0.00000339 0.04565125 -0.05179342
v -0.00163896 0.04559755 -0.05288271
v 0.00000339 0.04562440 -0.05234561
v -0.00272639 0.04556175 -0.05288271
v -0.00381831 0.04552148 -0.05179342
v -0.00491022 0.04539170 -0.05179342
v -0.00708957 0.04513664 -0.05070225
v -0.00708957 0.04514559 -0.04961295
v -0.00491022 0.04540961 -0.04961295
v -0.00599766 0.04529773 -0.04634131
v -0.00599766 0.04530221 -0.04525202
v -0.00491022 0.04544988 -0.03653014
v -0.00491022 0.04544988 -0.03586676
v 0.00000339 0.03979808 -0.05506130
v -0.03979776 0.00000283 -0.05505942
v -0.04570483 0.00054876 -0.03586676
v -0.04567798 0.00000283 -0.04525202
v -0.00163896 0.04512769 -0.05397201
v -0.00272639 0.04510979 -0.05395128
v 0.00000339 0.04559308 -0.05288271
v 0.00000339 0.04535591 -0.05343490
v -0.00381831 0.04505609 -0.05389097
v -0.00708957 0.04485919 -0.05364974
v -0.00381831 0.04546330 -0.05288271
v -0.00708957 0.04506504 -0.05288271
v -0.00708957 0.04512321 -0.05179342
v -0.00818149 0.04496211 -0.05179342
v -0.00708957 0.04515901 -0.04634131
v -0.00557253 0.04535591 -0.03586676
v 0.00000339 0.04088996 -0.05511407
v -0.04088967 0.00000283 -0.05511407
v -0.04569588 0.00121105 -0.03586676
v -0.04570483 0.00054876 -0.03653014
v -0.04567798 0.00000283 -0.04743060
v -0.00163896 0.04470257 -0.05451665
v 0.00000339 0.04512321 -0.05397012
v 0.00000339 0.04490841 -0.05424716
v -0.00272639 0.04468020 -0.05449592
v -0.00381831 0.04462650 -0.05443562
v -0.00599766 0.04450120 -0.05427543
v -0.00708957 0.04443408 -0.05419439
v -0.00818149 0.04478759 -0.05354798
v -0.00883485 0.04472942 -0.05346694
v -0.00818149 0.04491289 -0.05288271
v -0.00896462 0.04476074 -0.05288271
v -0.00905412 0.04478312 -0.05179342
v -0.00818149 0.04496659 -0.05070225
v -0.00818149 0.04496659 -0.04961295
v -0.00708957 0.04515006 -0.04198225
v -0.00900042 0.04476969 -0.03979990
v -0.01036084 0.04448777 -0.03761943
v -0.00599766 0.04526641 -0.03586676
v 0.00000339 0.04197736 -0.05511972
v -0.04197711 0.00000283 -0.05511972
v -0.04568693 0.00163616 -0.03761943
v -0.04568693 0.00163616 -0.03586676
v -0.04566008 0.00163616 -0.05070225
v -0.04567798 0.00054876 -0.04743060
v -0.04567350 0.00000283 -0.04852178
v -0.00163896 0.04415663 -0.05481819
v -0.00272639 0.04413426 -0.05481819
v -0.00381831 0.04408056 -0.05481819
v 0.00000339 0.04469810 -0.05451477
v 0.00000339 0.04442513 -0.05466930
v -0.00054704 0.04415663 -0.05481819
v -0.00491022 0.04401791 -0.05481630
v -0.00599766 0.04395526 -0.05479745
v -0.00708957 0.04388814 -0.05476165
v -0.00818149 0.04380312 -0.05469757
v -0.00818149 0.04434458 -0.05409262
v -0.00981936 0.04361517 -0.05452042
v -0.01145275 0.04341380 -0.05428485
v -0.01254019 0.04327956 -0.05412466
v -0.01319355 0.04364650 -0.05347636
v -0.01254019 0.04387471 -0.05288271
v -0.01254019 0.04392394 -0.05179342
v -0.01145275 0.04419243 -0.05179342
v -0.00960008 0.04465335 -0.05070225
v -0.00905412 0.04478759 -0.05070225
v -0.01145275 0.04419691 -0.05070225
v -0.01145275 0.04421033 -0.03871061
v -0.01145275 0.04421033 -0.03761943
v -0.01036084 0.04434905 -0.03653014
v -0.01089785 0.04404923 -0.03586676
v 0.00000339 0.04306923 -0.05511972
v -0.04306902 0.00000283 -0.05511972
v -0.04562428 0.00272804 -0.05070225
v -0.04561533 0.00272804 -0.03586676
v -0.04565113 0.00163616 -0.05179342
v -0.04566008 0.00000283 -0.05070225
v -0.04566455 0.00000283 -0.05015383
v -0.04567350 0.00054876 -0.04852178
v -0.04561981 0.00272804 -0.05179342
v -0.00381831 0.04306923 -0.05511972
v -0.00491022 0.04306923 -0.05511595
v 0.00000339 0.04360622 -0.05497084
v -0.00599766 0.04306923 -0.05509710
v 0.00000339 0.04415216 -0.05481819
v -0.00708957 0.04306923 -0.05506130
v -0.00818149 0.04306923 -0.05499722
v -0.01145275 0.04286786 -0.05479180
v -0.00926893 0.04368229 -0.05458638
v -0.01254019 0.04273361 -0.05471454
v -0.01336808 0.04262174 -0.05461654
v -0.01364553 0.04306923 -0.05397955
v -0.01472402 0.04282311 -0.05380428
v -0.01637084 0.04252777 -0.05343678
v -0.01385138 0.04350330 -0.05288271
v -0.01330543 0.04368229 -0.05288271
v -0.01337255 0.04370467 -0.05179342
v -0.01338150 0.04370467 -0.05070225
v -0.01391403 0.04354357 -0.04743060
v -0.01329200 0.04368677 -0.03979990
v -0.01581146 0.04281864 -0.03586676
v -0.04306902 0.00381991 -0.05511972
v -0.04361498 0.00000283 -0.05496896
v -0.04553478 0.00381991 -0.03586676
v -0.04545423 0.00490731 -0.03979990
v -0.04553925 0.00381991 -0.05070225
v -0.04565113 0.00000283 -0.05179342
v -0.04559743 0.00163616 -0.05288271
v -0.04552583 0.00381991 -0.05179342
v -0.04556610 0.00272804 -0.05288271
v -0.01036084 0.04197736 -0.05511972
v -0.01145275 0.04197736 -0.05509146
v -0.01254019 0.04197736 -0.05501419
v -0.01472402 0.04182521 -0.05479180
v -0.01581146 0.04161937 -0.05468438
v -0.01650509 0.04148960 -0.05457507
v -0.01409304 0.04248750 -0.05448461
v -0.01472402 0.04237115 -0.05435081
v -0.01799528 0.04119873 -0.05426223
v -0.01799528 0.04165964 -0.05371759
v -0.01872024 0.04151644 -0.05354232
v -0.01885450 0.04158357 -0.05288271
v -0.01799528 0.04193708 -0.05288271
v -0.01642902 0.04255015 -0.05288271
v -0.01472402 0.04318110 -0.05288271
v -0.01581146 0.04216530 -0.05410958
v -0.01391851 0.04353015 -0.05179342
v -0.01472402 0.04323928 -0.05179342
v -0.01392746 0.04353462 -0.05070225
v -0.01392746 0.04353910 -0.04961295
v -0.01392298 0.04354357 -0.04852178
v -0.01389166 0.04354357 -0.04634131
v -0.01472402 0.04327061 -0.04416272
v -0.01472402 0.04326613 -0.04307155
v -0.01651404 0.04258594 -0.03653014
v -0.01648272 0.04257252 -0.03586676
v -0.04306902 0.00490731 -0.05511595
v -0.04197711 0.01036221 -0.05511972
v -0.04415646 0.00163616 -0.05481819
v -0.04415646 0.00000283 -0.05481819
v -0.04544975 0.00490731 -0.03586676
v -0.04545423 0.00490731 -0.04089108
v -0.04537368 0.00556960 -0.03586676
v -0.04532445 0.00599919 -0.03871061
v -0.04543633 0.00490731 -0.04961295
v -0.04559743 0.00000283 -0.05288271
v -0.04510965 0.00272804 -0.05395316
v -0.04512755 0.00163616 -0.05397389
v -0.04546318 0.00381991 -0.05288271
v -0.04542290 0.00490731 -0.05070225
v -0.04529313 0.00599919 -0.05070225
v -0.04512755 0.00709106 -0.05179342
v -0.04505595 0.00381991 -0.05389097
v -0.04485905 0.00709106 -0.05365163
v -0.01363211 0.04088996 -0.05511972
v -0.01472402 0.04088996 -0.05509146
v -0.01581146 0.04088996 -0.05498403
v -0.01799528 0.04065279 -0.05475788
v -0.01879632 0.04047379 -0.05463727
v -0.01723005 0.04135087 -0.05442619
v -0.01912300 0.04090338 -0.05400216
v -0.02087275 0.04042009 -0.05352913
v -0.01940045 0.04131060 -0.05288271
v -0.01945415 0.04134640 -0.05179342
v -0.01891267 0.04161042 -0.05179342
v -0.01799528 0.04199973 -0.05179342
v -0.01703315 0.04236667 -0.05179342
v -0.01472402 0.04325270 -0.05070225
v -0.01472402 0.04326166 -0.04961295
v -0.01472402 0.04327508 -0.04634131
v -0.01581146 0.04287234 -0.04525202
v -0.01799528 0.04200868 -0.03761943
v -0.01706000 0.04236220 -0.03653014
v -0.01669752 0.04248750 -0.03586676
v -0.04306902 0.00599919 -0.05509710
v -0.04413856 0.00272804 -0.05481819
v -0.04408038 0.00381991 -0.05481819
v -0.04197711 0.01144961 -0.05509146
v -0.04088967 0.01363336 -0.05511972
v -0.04470242 0.00163616 -0.05451854
v -0.04470242 0.00000283 -0.05451665
v -0.04532445 0.00599919 -0.04198225
v -0.04531997 0.00599919 -0.03586676
v -0.04514097 0.00709106 -0.03653014
v -0.04497092 0.00817846 -0.05070225
v -0.04530655 0.00599919 -0.04961295
v -0.04512755 0.00000283 -0.05397201
v -0.04462634 0.00381991 -0.05443750
v -0.04468004 0.00272804 -0.05449781
v -0.04506490 0.00709106 -0.05288271
v -0.04472927 0.00883627 -0.05346694
v -0.04478744 0.00817846 -0.05354798
v -0.04514545 0.00709106 -0.05070225
v -0.04496197 0.00817846 -0.05179342
v -0.04491275 0.00817846 -0.05288271
v -0.04450104 0.00599919 -0.05427543
v -0.04443391 0.00709106 -0.05419627
v -0.01690337 0.03979808 -0.05511972
v -0.01799528 0.03979808 -0.05505753
v -0.02017464 0.03956986 -0.05474846
v -0.02235399 0.03845561 -0.05473903
v -0.02094435 0.03936849 -0.05462596
v -0.01952128 0.04028585 -0.05446012
v -0.02017464 0.04011580 -0.05427731
v -0.02235399 0.03900155 -0.05425093
v -0.02301182 0.03931479 -0.05351028
v -0.02099357 0.04048274 -0.05288271
v -0.02017464 0.04097051 -0.05179342
v -0.02108755 0.04053644 -0.05070225
v -0.02110992 0.04054539 -0.04961295
v -0.01946310 0.04135087 -0.05070225
v -0.01892162 0.04161489 -0.05070225
v -0.01799528 0.04200421 -0.05070225
v -0.01705552 0.04237562 -0.04961295
v -0.01704657 0.04237115 -0.05070225
v -0.01581146 0.04286786 -0.04634131
v -0.01652299 0.04258594 -0.04852178
v -0.01652747 0.04259042 -0.04743060
v -0.01799528 0.04197736 -0.03653014
v -0.01890372 0.04160147 -0.03761943
v -0.01889477 0.04159251 -0.03653014
v -0.01762833 0.04210266 -0.03586676
v -0.04306902 0.00709106 -0.05506318
v -0.04401773 0.00490731 -0.05481630
v -0.04306902 0.00817846 -0.05499911
v -0.04197711 0.01254149 -0.05501419
v -0.04088967 0.01472076 -0.05509146
v -0.03979776 0.01690451 -0.05511972
v -0.04513202 0.00709106 -0.03586676
v -0.04495302 0.00817846 -0.03761943
v -0.04495750 0.00817846 -0.03871061
v -0.04478297 0.00911819 -0.03761943
v -0.04479192 0.00907792 -0.05070225
v -0.04388796 0.00709106 -0.05476353
v -0.04395508 0.00599919 -0.05479745
v -0.04476059 0.00896605 -0.05288271
v -0.04387453 0.01254149 -0.05288271
v -0.04364630 0.01319482 -0.05347636
v -0.04372238 0.01254149 -0.05358190
v -0.04327935 0.01254149 -0.05412654
v -0.04341360 0.01144961 -0.05428673
v -0.04352548 0.01054568 -0.05441677
v -0.04361498 0.00982075 -0.05452042
v -0.04434889 0.00817846 -0.05409450
v -0.04478297 0.00905554 -0.05179342
v -0.04380293 0.00817846 -0.05469946
v -0.01908272 0.03870621 -0.05511972
v -0.02126655 0.03761433 -0.05511784
v -0.02235399 0.03761433 -0.05503868
v -0.02342800 0.03764566 -0.05479557
v -0.02431854 0.03730109 -0.05468626
v -0.02306105 0.03826319 -0.05461277
v -0.02167378 0.03918055 -0.05444316
v -0.02340115 0.03867936 -0.05394751
v -0.02430064 0.03837059 -0.05365917
v -0.02627861 0.03714447 -0.05351971
v -0.02448859 0.03850484 -0.05288271
v -0.02365623 0.03904630 -0.05288271
v -0.02311027 0.03936849 -0.05288271
v -0.02235399 0.03976676 -0.05288271
v -0.02158875 0.04022767 -0.05179342
v -0.02163351 0.04025005 -0.05070225
v -0.02111887 0.04054987 -0.04198225
v -0.02017464 0.04100630 -0.04961295
v -0.02165588 0.04025900 -0.04961295
v -0.02017464 0.04101078 -0.04089108
v -0.02017464 0.04101078 -0.03761943
v -0.01852334 0.04173124 -0.03586676
v -0.01799528 0.04195051 -0.03586676
v -0.02017464 0.04100630 -0.03653014
v -0.01944073 0.04134640 -0.03653014
v -0.01988376 0.04113608 -0.03586676
v -0.01942283 0.04134192 -0.03586676
v -0.01887687 0.04157909 -0.03586676
v -0.04286764 0.01144961 -0.05479180
v -0.04273787 0.01254149 -0.05471454
v -0.04182496 0.01472076 -0.05479180
v -0.04088967 0.01581264 -0.05498403
v -0.03979776 0.01799191 -0.05505753
v -0.03870584 0.01908379 -0.05511972
v -0.04492170 0.00817846 -0.03586676
v -0.04493960 0.00817846 -0.03653014
v -0.04476954 0.00902422 -0.03653014
v -0.04467109 0.00966413 -0.03761943
v -0.04424149 0.01144961 -0.04525202
v -0.04448314 0.01036221 -0.04961295
v -0.04465767 0.00962385 -0.05070225
v -0.04465319 0.00960148 -0.05179342
v -0.04392823 0.01254149 -0.05179342
v -0.04368210 0.01330670 -0.05288271
v -0.04350310 0.01385263 -0.05288271
v -0.04252754 0.01637200 -0.05343678
v -0.04282737 0.01472076 -0.05380428
v -0.04307350 0.01364231 -0.05397955
v -0.04262151 0.01336487 -0.05461654
v -0.04368210 0.00927034 -0.05458827
v -0.02453334 0.03543506 -0.05511972
v -0.02344143 0.03652694 -0.05509334
v -0.02562078 0.03543506 -0.05502737
v -0.02668137 0.03544848 -0.05477673
v -0.02562078 0.03630319 -0.05472585
v -0.02750925 0.03509049 -0.05467119
v -0.02629651 0.03607050 -0.05459581
v -0.02504350 0.03704602 -0.05449592
v -0.02378601 0.03802602 -0.05438473
v -0.02562078 0.03684912 -0.05429804
v -0.02691407 0.03682675 -0.05288271
v -0.02636812 0.03721159 -0.05288271
v -0.02503455 0.03813342 -0.05288271
v -0.02702147 0.03581990 -0.05435835
v -0.02752268 0.03615999 -0.05363090
v -0.02823421 0.03589150 -0.05288271
v -0.02768825 0.03628081 -0.05288271
v -0.02370098 0.03908210 -0.05179342
v -0.02507035 0.03816027 -0.05210249
v -0.02315502 0.03939535 -0.05179342
v -0.02235399 0.03982494 -0.05179342
v -0.02111887 0.04054987 -0.03979990
v -0.02166483 0.04026347 -0.04198225
v -0.02315950 0.03940429 -0.05070225
v -0.02111440 0.04054987 -0.03586676
v -0.02074297 0.04072886 -0.03586676
v -0.02017464 0.04100183 -0.03586676
v -0.04161910 0.01581264 -0.05468438
v -0.04065249 0.01799191 -0.05475788
v -0.03987383 0.01912854 -0.05482950
v -0.03761841 0.02235494 -0.05503868
v -0.03761841 0.02126306 -0.05511784
v -0.03543458 0.02452974 -0.05511972
v -0.04471137 0.00918084 -0.03586676
v -0.04465319 0.00957016 -0.03653014
v -0.04445629 0.01036221 -0.03586676
v -0.04430861 0.01102450 -0.03586676
v -0.04394614 0.01254149 -0.04198225
v -0.04423701 0.01144961 -0.04416272
v -0.04395508 0.01254149 -0.04634131
v -0.04395508 0.01254149 -0.04743060
v -0.04394614 0.01254149 -0.04961295
v -0.04370448 0.01337382 -0.05179342
v -0.04352995 0.01391975 -0.05179342
v -0.04323907 0.01472076 -0.05179342
v -0.04254992 0.01642570 -0.05288271
v -0.04193683 0.01799191 -0.05288271
v -0.04158331 0.01885557 -0.05288271
v -0.04151618 0.01872132 -0.05354421
v -0.04165938 0.01799191 -0.05371759
v -0.04119845 0.01799191 -0.05426223
v -0.04135060 0.01723118 -0.05442619
v -0.04216506 0.01581264 -0.05410958
v -0.04237092 0.01472076 -0.05435081
v -0.04248727 0.01409428 -0.05448461
v -0.04148933 0.01650625 -0.05457507
v -0.02998396 0.03107204 -0.05511972
v -0.02889205 0.03216391 -0.05511030
v -0.02780461 0.03325578 -0.05509899
v -0.02671269 0.03434318 -0.05508203
v -0.02784488 0.03439688 -0.05483327
v -0.02865039 0.03406574 -0.05469192
v -0.02937535 0.03374355 -0.05446765
v -0.02823421 0.03479068 -0.05442996
v -0.02773301 0.03631662 -0.05179342
v -0.02695435 0.03686255 -0.05179342
v -0.02788068 0.03549771 -0.05403043
v -0.02867724 0.03517552 -0.05370251
v -0.03054334 0.03381515 -0.05344244
v -0.02827896 0.03592730 -0.05179342
v -0.02940220 0.03485780 -0.05308248
v -0.02898155 0.03525606 -0.05278472
v -0.02943800 0.03489360 -0.05235692
v -0.02370546 0.03908210 -0.05070225
v -0.02463627 0.03846456 -0.05176139
v -0.02453334 0.03854511 -0.05070225
v -0.02512852 0.03820054 -0.03761943
v -0.02513300 0.03820054 -0.03653014
v -0.02507930 0.03816475 -0.05137693
v -0.02235399 0.03986073 -0.03586676
v -0.02166036 0.04026347 -0.03871061
v -0.02283729 0.03957881 -0.03586676
v -0.02368756 0.03907763 -0.03586676
v -0.02166036 0.04025900 -0.03586676
v -0.04047796 0.01879739 -0.05463727
v -0.03956953 0.02017566 -0.05474846
v -0.03845524 0.02235494 -0.05473903
v -0.03764526 0.02342891 -0.05479557
v -0.03543458 0.02562161 -0.05502737
v -0.03434714 0.02671349 -0.05508392
v -0.03652649 0.02344234 -0.05509334
v -0.03325522 0.02780088 -0.05509899
v -0.03216331 0.02889276 -0.05511030
v -0.03107587 0.02998464 -0.05511972
v -0.04416989 0.01144961 -0.03586676
v -0.04259019 0.01647492 -0.03653014
v -0.04286764 0.01581264 -0.03761943
v -0.04369553 0.01331117 -0.04089108
v -0.04371343 0.01336039 -0.04743060
v -0.04371343 0.01337382 -0.04852178
v -0.04371343 0.01337829 -0.04961295
v -0.04370896 0.01338277 -0.05070225
v -0.04352995 0.01392871 -0.05070225
v -0.04260362 0.01653757 -0.03761943
v -0.04282737 0.01581264 -0.05179342
v -0.04236644 0.01702981 -0.05179342
v -0.04199948 0.01799191 -0.05179342
v -0.04161015 0.01890927 -0.05179342
v -0.04134165 0.01945520 -0.05179342
v -0.04131033 0.01940150 -0.05288271
v -0.04041979 0.02087375 -0.05353101
v -0.04090310 0.01912406 -0.05400216
v -0.03107587 0.03107204 -0.05498780
v -0.02978706 0.03301862 -0.05470700
v -0.03107587 0.03190437 -0.05468815
v -0.03164868 0.03164930 -0.05454304
v -0.03051202 0.03269642 -0.05450723
v -0.03107587 0.03245030 -0.05428108
v -0.02902630 0.03446401 -0.05408508
v -0.02773301 0.03632556 -0.05070225
v -0.02697225 0.03687150 -0.04961295
v -0.03168000 0.03276355 -0.05348767
v -0.03173371 0.03281277 -0.05288271
v -0.03112062 0.03335871 -0.05288271
v -0.03057467 0.03384200 -0.05288271
v -0.02987656 0.03446848 -0.05278472
v -0.02944695 0.03489807 -0.05179342
v -0.03064179 0.03390912 -0.03761943
v -0.02827896 0.03592730 -0.05070225
v -0.02700357 0.03688940 -0.04416272
v -0.03176951 0.03283962 -0.05179342
v -0.02999291 0.03441478 -0.05179342
v -0.02453334 0.03857196 -0.03761943
v -0.02453334 0.03857196 -0.03586676
v -0.02509720 0.03817370 -0.04852178
v -0.02645762 0.03726529 -0.04416272
v -0.02513300 0.03820054 -0.03586676
v -0.02699015 0.03688493 -0.04634131
v -0.02564316 0.03779781 -0.04852178
v -0.04028554 0.01952233 -0.05446012
v -0.03937263 0.02094534 -0.05462596
v -0.03826281 0.02305750 -0.05461277
v -0.03730068 0.02431494 -0.05468626
v -0.03544800 0.02668216 -0.05477673
v -0.03439636 0.02784563 -0.05483327
v -0.04395061 0.01211637 -0.03586676
v -0.04254992 0.01638990 -0.03591953
v -0.04052719 0.02109749 -0.03586676
v -0.04161463 0.01891822 -0.05070225
v -0.04199948 0.01799191 -0.05070225
v -0.04135955 0.01943283 -0.04198225
v -0.04136850 0.01946863 -0.04525202
v -0.04135060 0.01946415 -0.05070225
v -0.04097022 0.02017566 -0.05179342
v -0.04048244 0.02099457 -0.05288271
v -0.03931445 0.02301275 -0.05351217
v -0.04011549 0.02017566 -0.05427919
v -0.03900120 0.02235494 -0.05425093
v -0.03301805 0.02978774 -0.05470700
v -0.03190376 0.03107204 -0.05468815
v -0.03269584 0.03051267 -0.05450723
v -0.03244972 0.03107204 -0.05428108
v -0.03276297 0.03167614 -0.05348767
v -0.03202906 0.03202519 -0.05384951
v -0.03406521 0.02865111 -0.05469192
v -0.03227966 0.03228026 -0.05288271
v -0.03231546 0.03231158 -0.05179342
v -0.03060599 0.03387780 -0.03672425
v -0.02988998 0.03453560 -0.03755535
v -0.02946485 0.03491150 -0.03787762
v -0.03176951 0.03284409 -0.05070225
v -0.03231546 0.03232053 -0.05070225
v -0.03286589 0.03177907 -0.04634131
v -0.03286589 0.03177460 -0.04525202
v -0.03284352 0.03176117 -0.04089108
v -0.03387726 0.03061112 -0.03586676
v -0.02700357 0.03688940 -0.04307155
v -0.02644867 0.03726529 -0.04525202
v -0.02613541 0.03747561 -0.03586676
v -0.03918020 0.02167475 -0.05444316
v -0.03867899 0.02339759 -0.05394751
v -0.03802563 0.02378690 -0.05438473
v -0.03704560 0.02504435 -0.05449592
v -0.03607004 0.02629732 -0.05459581
v -0.03509000 0.02751002 -0.05467119
v -0.03630274 0.02562161 -0.05472585
v -0.04247832 0.01644807 -0.03586676
v -0.04042874 0.02131228 -0.03586676
v -0.04136403 0.01946863 -0.04743060
v -0.04135955 0.01946863 -0.04852178
v -0.04101945 0.02017566 -0.04416272
v -0.04101945 0.02017566 -0.04525202
v -0.04100602 0.02017566 -0.04743060
v -0.04098812 0.02017566 -0.04961295
v -0.04053167 0.02107959 -0.04743060
v -0.04024079 0.02161658 -0.04852178
v -0.04023631 0.02160763 -0.04961295
v -0.04022736 0.02158973 -0.05179342
v -0.04019604 0.02154050 -0.05288271
v -0.03936815 0.02311119 -0.05288271
v -0.03904595 0.02365713 -0.05288271
v -0.03849999 0.02448946 -0.05288271
v -0.03714852 0.02627942 -0.05351971
v -0.03837021 0.02430152 -0.05365728
v -0.03374301 0.02937605 -0.05446954
v -0.03479464 0.02823495 -0.05442996
v -0.03333130 0.03008308 -0.05427354
v -0.03317915 0.03097359 -0.05368366
v -0.03381461 0.03054400 -0.05344244
v -0.03281219 0.03173432 -0.05288271
v -0.03284352 0.03177012 -0.05179342
v -0.03284800 0.03177460 -0.05070225
v -0.03052544 0.03379277 -0.03599680
v -0.02640839 0.03726082 -0.03586676
v -0.03286142 0.03177907 -0.04743060
v -0.03341185 0.03118391 -0.04634131
v -0.03341185 0.03118838 -0.04525202
v -0.03340738 0.03119286 -0.04416272
v -0.03340290 0.03118838 -0.04307155
v -0.03492890 0.02947897 -0.03761943
v -0.03414576 0.03030683 -0.03586676
v -0.03048964 0.03375697 -0.03586676
v -0.03581943 0.02702225 -0.05435646
v -0.04025869 0.02164343 -0.03586676
v -0.04053614 0.02107959 -0.04634131
v -0.04024526 0.02162105 -0.04743060
v -0.03983356 0.02235494 -0.05070225
v -0.03982461 0.02235494 -0.05179342
v -0.03939500 0.02315594 -0.05179342
v -0.03908175 0.02370188 -0.05179342
v -0.03846419 0.02463713 -0.05177835
v -0.03815541 0.02507120 -0.05213076
v -0.03813304 0.02503540 -0.05288271
v -0.03720670 0.02636892 -0.05288271
v -0.03628036 0.02768901 -0.05288271
v -0.03589103 0.02823495 -0.05288271
v -0.03615954 0.02751897 -0.05363090
v -0.03549723 0.02787696 -0.05403043
v -0.03517502 0.02867349 -0.05370440
v -0.03446349 0.02902701 -0.05408697
v -0.03485729 0.02940290 -0.05309190
v -0.03446797 0.02987724 -0.05279037
v -0.03384146 0.03057532 -0.05288271
v -0.03335815 0.03112126 -0.05288271
v -0.03489309 0.02943870 -0.05236445
v -0.03538983 0.02889276 -0.05179342
v -0.03490652 0.02945660 -0.05070225
v -0.03442322 0.03000253 -0.05070225
v -0.03339395 0.03116153 -0.05070225
v -0.03340738 0.03117943 -0.04743060
v -0.03388621 0.03062902 -0.04852178
v -0.03389963 0.03064245 -0.04525202
v -0.03389963 0.03064692 -0.04416272
v -0.03540325 0.02889276 -0.03761943
v -0.03589998 0.02824838 -0.03653014
v -0.03530480 0.02892856 -0.03586676
v -0.03490652 0.02945660 -0.03675817
v -0.03475437 0.02958637 -0.03586676
v -0.03491547 0.02946555 -0.04852178
v -0.03592683 0.02827970 -0.05179342
v -0.03987383 0.02235494 -0.03586676
v -0.03987383 0.02235494 -0.03761943
v -0.03939948 0.02316042 -0.05070225
v -0.03908175 0.02370636 -0.05070225
v -0.03855817 0.02452974 -0.05070225
v -0.03817779 0.02510252 -0.05070225
v -0.03780636 0.02564846 -0.05070225
v -0.03726487 0.02643604 -0.05070225
v -0.03686212 0.02695513 -0.05179342
v -0.03631616 0.02773376 -0.05179342
v -0.03525558 0.02898226 -0.05279037
v -0.03491100 0.02946107 -0.04961295
v -0.03591341 0.02825733 -0.03761943
v -0.03615506 0.02789933 -0.03586676
v -0.03588208 0.02823047 -0.03586676
v -0.03632959 0.02770244 -0.03653014
v -0.03687107 0.02699540 -0.03586676
v -0.03500945 0.02928208 -0.03586676
v -0.03632959 0.02771586 -0.03871061
v -0.03687554 0.02698198 -0.05070225
v -0.03727830 0.02644947 -0.04961295
v -0.03728725 0.02645394 -0.04089108
v -0.03712167 0.02666426 -0.03586676
v -0.03959190 0.02284270 -0.03586676
v -0.03941290 0.02315147 -0.03761943
v -0.03941290 0.02315147 -0.03586676
v -0.03907280 0.02369741 -0.03586676
v -0.03832994 0.02488773 -0.03586676
v -0.03818674 0.02511595 -0.03586676
v -0.03818674 0.02511595 -0.04961295
v -0.03782426 0.02565741 -0.04961295
v -0.03782873 0.02566188 -0.04198225
v -0.03782873 0.02566188 -0.03586676
v -0.03749758 0.02614070 -0.03586676
v -0.03728278 0.02644947 -0.03586676
f 1 2 7
f 1 7 13
f 1 13 23
f 1 23 38
f 1 38 54
f 1 54 77
f 1 77 109
f 1 109 120
f 1 120 122
f 1 122 88
f 1 88 87
f 1 87 61
f 1 61 60
f 1 60 45
f 1 45 44
f 1 44 27
f 1 27 25
f 1 25 16
f 1 16 15
f 1 15 8
f 1 8 3
f 1 3 4
f 1 4 5
f 1 5 6
f 1 6 2
f 2 6 12
f 2 12 22
f 2 22 21
f 2 21 37
f 2 37 53
f 2 53 76
f 2 76 108
f 2 108 138
f 2 138 173
f 2 173 211
f 2 211 259
f 2 259 306
f 2 306 305
f 2 305 311
f 2 311 310
f 2 310 309
f 2 309 360
f 2 360 359
f 2 359 358
f 2 358 417
f 2 417 413
f 2 413 415
f 2 415 416
f 2 416 467
f 2 467 470
f 2 470 512
f 2 512 547
f 2 547 555
f 2 555 509
f 2 509 554
f 2 554 591
f 2 591 611
f 2 611 589
f 2 589 608
f 2 608 607
f 2 607 610
f 2 610 616
f 2 616 628
f 2 628 627
f 2 627 626
f 2 626 622
f 2 622 621
f 2 621 620
f 2 620 619
f 2 619 617
f 2 617 594
f 2 594 557
f 2 557 521
f 2 521 481
f 2 481 520
f 2 520 479
f 2 479 428
f 2 428 370
f 2 370 369
f 2 369 367
f 2 367 318
f 2 318 266
f 2 266 220
f 2 220 180
f 2 180 178
f 2 178 141
f 2 141 112
f 2 112 80
f 2 80 56
f 2 56 40
f 2 40 24
f 2 24 14
f 2 14 7
f 3 8 4
f 4 8 9
f 4 9 10
f 4 10 5
f 5 10 11
f 5 11 6
f 6 11 12
f 7 14 13
f 8 15 9
f 9 15 16
f 9 16 17
f 9 17 10
f 10 17 18
f 10 18 11
f 11 18 19
f 11 19 20
f 11 20 21
f 11 21 22
f 11 22 12
f 13 14 24
f 13 24 41
f 13 41 58
f 13 58 83
f 13 83 115
f 13 115 114
f 13 114 144
f 13 144 183
f 13 183 224
f 13 224 218
f 13 218 177
f 13 177 140
f 13 140 110
f 13 110 78
f 13 78 55
f 13 55 39
f 13 39 23
f 16 25 17
f 17 26 18
f 17 25 27
f 17 27 26
f 18 28 48
f 18 48 29
f 18 29 19
f 18 26 28
f 19 29 30
f 19 30 31
f 19 31 32
f 19 32 33
f 19 33 34
f 19 34 35
f 19 35 36
f 19 36 20
f 20 36 37
f 20 37 21
f 23 39 38
f 24 40 41
f 26 42 43
f 26 43 28
f 26 27 44
f 26 44 45
f 26 45 42
f 28 43 46
f 28 46 47
f 28 47 48
f 29 48 30
f 30 49 50
f 30 50 31
f 30 48 49
f 31 50 51
f 31 51 32
f 32 51 52
f 32 52 35
f 32 35 34
f 32 34 33
f 35 52 36
f 36 52 37
f 37 52 53
f 38 39 55
f 38 55 54
f 40 56 57
f 40 57 58
f 40 58 41
f 42 59 43
f 42 45 60
f 42 60 61
f 42 61 59
f 43 62 63
f 43 63 46
f 43 59 62
f 46 63 64
f 46 64 47
f 47 64 65
f 47 65 66
f 47 66 48
f 48 66 67
f 48 67 49
f 49 67 68
f 49 68 50
f 50 68 51
f 51 68 69
f 51 69 70
f 51 70 103
f 51 103 71
f 51 71 52
f 52 71 72
f 52 72 73
f 52 73 53
f 53 73 74
f 53 74 75
f 53 75 76
f 54 55 78
f 54 78 77
f 56 79 57
f 56 80 79
f 57 79 81
f 57 81 82
f 57 82 58
f 58 82 116
f 58 116 83
f 59 84 85
f 59 85 86
f 59 86 62
f 59 61 87
f 59 87 88
f 59 88 89
f 59 89 84
f 62 86 90
f 62 90 91
f 62 91 92
f 62 92 63
f 63 92 64
f 64 92 65
f 65 92 93
f 65 93 94
f 65 94 66
f 66 94 67
f 67 69 68
f 67 94 95
f 67 95 96
f 67 96 97
f 67 97 98
f 67 98 99
f 67 99 69
f 69 99 100
f 69 100 101
f 69 101 70
f 70 102 103
f 70 101 102
f 71 103 72
f 72 103 75
f 72 75 74
f 72 74 73
f 75 104 100
f 75 100 105
f 75 105 106
f 75 106 107
f 75 107 76
f 75 103 102
f 75 102 104
f 76 107 108
f 77 78 110
f 77 110 139
f 77 139 175
f 77 175 216
f 77 216 265
f 77 265 317
f 77 317 366
f 77 366 427
f 77 427 390
f 77 390 334
f 77 334 284
f 77 284 235
f 77 235 192
f 77 192 148
f 77 148 118
f 77 118 109
f 79 80 111
f 79 111 81
f 80 112 111
f 81 113 144
f 81 144 114
f 81 114 115
f 81 115 116
f 81 116 82
f 81 111 117
f 81 117 113
f 83 116 115
f 84 118 119
f 84 119 85
f 84 89 120
f 84 120 118
f 85 119 86
f 86 119 121
f 86 121 90
f 88 122 89
f 89 122 120
f 90 121 123
f 90 123 91
f 91 123 92
f 92 123 124
f 92 124 125
f 92 125 93
f 93 126 94
f 93 125 127
f 93 127 126
f 94 126 95
f 95 126 127
f 95 127 128
f 95 128 96
f 96 128 97
f 97 128 98
f 98 128 129
f 98 129 130
f 98 130 131
f 98 131 132
f 98 132 133
f 98 133 99
f 99 133 100
f 100 104 101
f 100 133 134
f 100 134 135
f 100 135 105
f 101 104 102
f 105 135 106
f 106 135 136
f 106 136 137
f 106 137 138
f 106 138 107
f 107 138 108
f 109 118 120
f 110 140 139
f 111 112 141
f 111 141 142
f 111 142 143
f 111 143 117
f 113 117 147
f 113 147 145
f 113 145 183
f 113 183 144
f 117 143 146
f 117 146 147
f 118 148 119
f 119 148 121
f 121 148 149
f 121 149 123
f 123 149 124
f 124 149 150
f 124 150 125
f 125 150 127
f 127 150 151
f 127 151 128
f 128 151 152
f 128 152 153
f 128 153 154
f 128 154 129
f 129 154 155
f 129 155 130
f 130 155 131
f 131 156 157
f 131 157 158
f 131 158 159
f 131 159 160
f 131 160 161
f 131 161 162
f 131 162 132
f 131 155 163
f 131 163 156
f 132 164 133
f 132 162 165
f 132 165 164
f 133 164 134
f 134 164 166
f 134 166 167
f 134 167 168
f 134 168 135
f 135 168 136
f 136 169 137
f 136 168 170
f 136 170 171
f 136 171 169
f 137 169 171
f 137 171 138
f 138 171 172
f 138 172 173
f 139 174 175
f 139 140 176
f 139 176 174
f 140 177 176
f 141 178 142
f 142 179 143
f 142 178 180
f 142 180 181
f 142 181 219
f 142 219 179
f 143 179 182
f 143 182 146
f 145 147 184
f 145 184 185
f 145 185 183
f 146 186 147
f 146 182 187
f 146 187 188
f 146 188 189
f 146 189 227
f 146 227 186
f 147 190 184
f 147 186 191
f 147 191 190
f 148 192 193
f 148 193 149
f 149 193 150
f 150 193 194
f 150 194 151
f 151 194 195
f 151 195 152
f 152 195 153
f 153 195 196
f 153 196 197
f 153 197 155
f 153 155 154
f 155 197 163
f 156 158 157
f 156 163 197
f 156 197 196
f 156 196 198
f 156 198 158
f 158 198 199
f 158 199 200
f 158 200 159
f 159 200 201
f 159 201 202
f 159 202 203
f 159 203 160
f 160 203 161
f 161 203 204
f 161 204 165
f 161 165 162
f 164 165 205
f 164 205 206
f 164 206 166
f 165 204 205
f 166 206 167
f 167 206 207
f 167 207 168
f 168 207 170
f 170 207 208
f 170 208 172
f 170 172 171
f 172 209 210
f 172 210 211
f 172 211 173
f 172 208 209
f 174 212 175
f 174 176 213
f 174 213 214
f 174 214 212
f 175 212 215
f 175 215 264
f 175 264 216
f 176 177 217
f 176 217 213
f 177 218 217
f 179 219 182
f 180 220 181
f 181 220 221
f 181 221 222
f 181 222 219
f 182 219 223
f 182 223 188
f 182 188 187
f 183 185 224
f 184 190 225
f 184 225 226
f 184 226 217
f 184 217 185
f 185 217 218
f 185 218 224
f 186 227 228
f 186 228 229
f 186 229 191
f 188 223 230
f 188 230 189
f 189 230 231
f 189 231 232
f 189 232 227
f 190 191 233
f 190 233 225
f 191 229 234
f 191 234 233
f 192 235 193
f 193 235 236
f 193 236 194
f 194 236 195
f 195 236 237
f 195 237 196
f 196 237 238
f 196 238 239
f 196 239 240
f 196 240 198
f 198 240 241
f 198 241 199
f 199 241 242
f 199 242 243
f 199 243 200
f 200 243 244
f 200 244 201
f 201 245 246
f 201 246 247
f 201 247 248
f 201 248 249
f 201 249 202
f 201 244 245
f 202 249 203
f 203 250 251
f 203 251 252
f 203 252 204
f 203 249 250
f 204 252 205
f 205 252 206
f 206 253 208
f 206 208 207
f 206 252 254
f 206 254 255
f 206 255 253
f 208 253 255
f 208 255 209
f 209 256 210
f 209 255 250
f 209 250 249
f 209 249 257
f 209 257 258
f 209 258 256
f 210 256 211
f 211 256 259
f 212 260 215
f 212 214 261
f 212 261 260
f 213 217 226
f 213 226 214
f 214 226 261
f 215 260 262
f 215 262 263
f 215 263 264
f 216 264 265
f 219 222 230
f 219 230 223
f 220 266 221
f 221 267 268
f 221 268 222
f 221 266 269
f 221 269 267
f 222 268 269
f 222 269 270
f 222 270 231
f 222 231 230
f 225 233 271
f 225 271 226
f 226 271 272
f 226 272 261
f 227 232 228
f 228 232 273
f 228 273 274
f 228 274 275
f 228 275 276
f 228 276 277
f 228 277 278
f 228 278 279
f 228 279 280
f 228 280 281
f 228 281 229
f 229 281 234
f 231 270 282
f 231 282 273
f 231 273 232
f 233 234 271
f 234 281 283
f 234 283 271
f 235 284 236
f 236 284 285
f 236 285 286
f 236 286 237
f 237 286 238
f 238 286 287
f 238 287 288
f 238 288 289
f 238 289 239
f 239 289 290
f 239 290 240
f 240 290 241
f 241 290 242
f 242 290 289
f 242 289 243
f 243 289 291
f 243 291 292
f 243 292 293
f 243 293 294
f 243 294 295
f 243 295 296
f 243 296 297
f 243 297 244
f 244 297 354
f 244 354 298
f 244 298 245
f 245 298 299
f 245 299 246
f 246 299 302
f 246 302 247
f 247 300 301
f 247 301 248
f 247 302 356
f 247 356 300
f 248 301 249
f 249 301 303
f 249 303 304
f 249 304 257
f 250 255 251
f 251 255 254
f 251 254 252
f 256 258 305
f 256 305 306
f 256 306 259
f 257 304 307
f 257 307 308
f 257 308 258
f 258 308 309
f 258 309 310
f 258 310 311
f 258 311 305
f 260 261 272
f 260 272 271
f 260 271 262
f 262 312 263
f 262 271 312
f 263 312 313
f 263 313 314
f 263 314 315
f 263 315 264
f 264 315 316
f 264 316 265
f 265 316 317
f 266 318 319
f 266 319 269
f 267 269 268
f 269 320 321
f 269 321 270
f 269 319 318
f 269 318 320
f 270 321 322
f 270 322 323
f 270 323 324
f 270 324 325
f 270 325 282
f 271 283 312
f 273 282 325
f 273 325 326
f 273 326 274
f 274 326 327
f 274 327 275
f 275 327 328
f 275 328 329
f 275 329 330
f 275 330 331
f 275 331 332
f 275 332 277
f 275 277 276
f 277 332 278
f 278 332 279
f 279 332 280
f 280 333 281
f 280 332 313
f 280 313 333
f 281 333 283
f 283 333 313
f 283 313 312
f 284 334 285
f 285 334 335
f 285 335 286
f 286 335 336
f 286 336 287
f 287 336 337
f 287 337 288
f 288 337 338
f 288 338 339
f 288 339 340
f 288 340 289
f 289 340 341
f 289 341 342
f 289 342 291
f 291 342 292
f 292 342 343
f 292 343 293
f 293 344 345
f 293 345 346
f 293 346 294
f 293 343 347
f 293 347 348
f 293 348 349
f 293 349 350
f 293 350 344
f 294 351 295
f 294 346 352
f 294 352 351
f 295 351 296
f 296 351 353
f 296 353 354
f 296 354 297
f 298 354 299
f 299 354 353
f 299 353 302
f 300 355 304
f 300 304 303
f 300 303 301
f 300 356 355
f 302 353 357
f 302 357 356
f 304 355 358
f 304 358 307
f 307 358 359
f 307 359 360
f 307 360 308
f 308 360 309
f 313 332 314
f 314 361 362
f 314 362 315
f 314 332 361
f 315 362 316
f 316 362 363
f 316 363 364
f 316 364 365
f 316 365 317
f 317 365 366
f 318 367 320
f 320 367 368
f 320 368 321
f 321 368 369
f 321 369 370
f 321 370 371
f 321 371 372
f 321 372 322
f 322 372 371
f 322 371 373
f 322 373 374
f 322 374 375
f 322 375 323
f 323 375 324
f 324 375 326
f 324 326 325
f 326 375 376
f 326 376 327
f 327 376 377
f 327 377 328
f 328 377 378
f 328 378 379
f 328 379 329
f 329 379 380
f 329 380 381
f 329 381 382
f 329 382 383
f 329 383 384
f 329 384 385
f 329 385 386
f 329 386 387
f 329 387 330
f 330 387 388
f 330 388 331
f 331 388 332
f 332 388 389
f 332 389 361
f 334 390 391
f 334 391 392
f 334 392 393
f 334 393 335
f 335 393 336
f 336 393 394
f 336 394 337
f 337 394 339
f 337 339 338
f 339 394 395
f 339 395 396
f 339 396 397
f 339 397 347
f 339 347 340
f 340 347 341
f 341 347 343
f 341 343 342
f 344 350 398
f 344 398 345
f 345 398 399
f 345 399 352
f 345 352 346
f 347 397 400
f 347 400 348
f 348 400 401
f 348 401 402
f 348 402 349
f 349 403 398
f 349 398 350
f 349 402 404
f 349 404 405
f 349 405 406
f 349 406 403
f 351 407 357
f 351 357 353
f 351 352 408
f 351 408 409
f 351 409 410
f 351 410 411
f 351 411 407
f 352 412 408
f 352 399 412
f 355 356 358
f 356 357 413
f 356 413 414
f 356 414 358
f 357 415 413
f 357 407 416
f 357 416 415
f 358 414 417
f 361 389 362
f 362 389 418
f 362 418 419
f 362 419 363
f 363 419 364
f 364 420 421
f 364 421 422
f 364 422 423
f 364 423 424
f 364 424 365
f 364 419 420
f 365 424 366
f 366 424 423
f 366 423 425
f 366 425 426
f 366 426 427
f 367 369 368
f 370 428 429
f 370 429 430
f 370 430 431
f 370 431 371
f 371 431 432
f 371 432 433
f 371 433 373
f 373 433 434
f 373 434 374
f 374 434 435
f 374 435 375
f 375 435 376
f 376 435 377
f 377 436 378
f 377 435 434
f 377 434 436
f 378 436 437
f 378 437 438
f 378 438 379
f 379 439 440
f 379 440 380
f 379 438 439
f 380 440 381
f 381 440 441
f 381 441 442
f 381 442 443
f 381 443 382
f 382 443 444
f 382 444 445
f 382 445 418
f 382 418 384
f 382 384 383
f 384 418 385
f 385 418 389
f 385 389 388
f 385 388 387
f 385 387 386
f 390 427 446
f 390 446 391
f 391 446 392
f 392 446 393
f 393 446 394
f 394 446 447
f 394 447 395
f 395 447 448
f 395 448 449
f 395 449 450
f 395 450 396
f 396 450 451
f 396 451 397
f 397 401 400
f 397 451 452
f 397 452 401
f 398 403 453
f 398 453 454
f 398 454 399
f 399 454 412
f 401 452 402
f 402 451 455
f 402 455 456
f 402 456 457
f 402 457 458
f 402 458 459
f 402 459 404
f 402 452 451
f 403 406 460
f 403 460 461
f 403 461 462
f 403 462 510
f 403 510 463
f 403 463 453
f 404 459 405
f 405 459 406
f 406 459 457
f 406 457 456
f 406 456 464
f 406 464 465
f 406 465 460
f 407 411 466
f 407 466 467
f 407 467 416
f 408 412 409
f 409 412 468
f 409 468 410
f 410 468 469
f 410 469 463
f 410 463 411
f 411 463 510
f 411 510 470
f 411 470 467
f 411 467 466
f 412 454 471
f 412 471 472
f 412 472 468
f 413 417 414
f 418 473 474
f 418 474 420
f 418 420 419
f 418 445 473
f 420 474 475
f 420 475 476
f 420 476 421
f 421 476 477
f 421 477 422
f 422 477 478
f 422 478 423
f 423 478 446
f 423 446 425
f 425 446 426
f 426 446 427
f 428 479 429
f 429 480 481
f 429 481 437
f 429 437 430
f 429 479 480
f 430 437 436
f 430 436 433
f 430 433 432
f 430 432 431
f 433 436 434
f 437 482 483
f 437 483 440
f 437 440 439
f 437 439 438
f 437 481 484
f 437 484 485
f 437 485 482
f 440 483 482
f 440 482 441
f 441 482 486
f 441 486 442
f 442 486 487
f 442 487 443
f 443 487 488
f 443 488 489
f 443 489 444
f 444 490 445
f 444 489 491
f 444 491 490
f 445 490 473
f 446 492 493
f 446 493 448
f 446 448 447
f 446 478 492
f 448 493 449
f 449 494 495
f 449 495 496
f 449 496 497
f 449 497 455
f 449 455 451
f 449 451 450
f 449 493 498
f 449 498 494
f 453 463 471
f 453 471 454
f 455 497 496
f 455 496 499
f 455 499 456
f 456 499 500
f 456 500 464
f 457 459 458
f 460 465 461
f 461 501 502
f 461 502 503
f 461 503 462
f 461 465 464
f 461 464 504
f 461 504 505
f 461 505 506
f 461 506 507
f 461 507 508
f 461 508 509
f 461 509 501
f 462 503 510
f 463 469 511
f 463 511 471
f 464 500 505
f 464 505 504
f 468 472 511
f 468 511 469
f 470 510 512
f 471 511 472
f 473 490 513
f 473 513 474
f 474 513 475
f 475 513 491
f 475 491 489
f 475 489 514
f 475 514 515
f 475 515 516
f 475 516 517
f 475 517 476
f 476 517 518
f 476 518 519
f 476 519 477
f 477 519 518
f 477 518 478
f 478 518 498
f 478 498 492
f 479 520 480
f 480 520 481
f 481 521 484
f 482 485 522
f 482 522 523
f 482 523 486
f 484 521 485
f 485 521 524
f 485 524 525
f 485 525 522
f 486 523 525
f 486 525 526
f 486 526 527
f 486 527 487
f 487 527 528
f 487 528 529
f 487 529 530
f 487 530 531
f 487 531 532
f 487 532 488
f 488 532 489
f 489 533 534
f 489 534 535
f 489 535 536
f 489 536 537
f 489 537 514
f 489 532 533
f 490 491 513
f 492 498 493
f 494 498 538
f 494 538 495
f 495 538 539
f 495 539 540
f 495 540 541
f 495 541 496
f 496 541 542
f 496 542 543
f 496 543 499
f 498 518 539
f 498 539 538
f 499 543 500
f 500 543 544
f 500 544 545
f 500 545 505
f 501 546 547
f 501 547 502
f 501 509 546
f 502 547 503
f 503 547 512
f 503 512 510
f 505 545 548
f 505 548 506
f 506 548 549
f 506 549 550
f 506 550 551
f 506 551 507
f 507 551 552
f 507 552 508
f 508 552 509
f 509 552 551
f 509 551 553
f 509 553 554
f 509 555 546
f 514 537 515
f 515 537 536
f 515 536 556
f 515 556 516
f 516 556 517
f 517 556 518
f 518 556 539
f 521 557 524
f 522 525 523
f 524 557 525
f 525 558 559
f 525 559 528
f 525 528 526
f 525 557 558
f 526 528 527
f 528 559 529
f 529 559 560
f 529 560 561
f 529 561 530
f 530 561 531
f 531 561 532
f 532 561 533
f 533 562 563
f 533 563 534
f 533 561 562
f 534 563 535
f 535 564 565
f 535 565 566
f 535 566 536
f 535 563 564
f 536 566 567
f 536 567 568
f 536 568 569
f 536 569 570
f 536 570 556
f 539 556 571
f 539 571 572
f 539 572 573
f 539 573 541
f 539 541 540
f 541 573 542
f 542 573 572
f 542 572 570
f 542 570 569
f 542 569 574
f 542 574 575
f 542 575 576
f 542 576 577
f 542 577 543
f 543 577 578
f 543 578 544
f 544 578 579
f 544 579 580
f 544 580 581
f 544 581 582
f 544 582 583
f 544 583 549
f 544 549 545
f 545 549 548
f 546 555 547
f 549 583 584
f 549 584 585
f 549 585 586
f 549 586 550
f 550 586 551
f 551 586 553
f 553 587 588
f 553 588 589
f 553 589 590
f 553 590 591
f 553 591 554
f 553 586 592
f 553 592 593
f 553 593 587
f 556 570 571
f 557 559 558
f 557 594 595
f 557 595 559
f 559 595 596
f 559 596 560
f 560 596 562
f 560 562 561
f 562 596 563
f 563 596 597
f 563 597 598
f 563 598 564
f 564 598 599
f 564 599 600
f 564 600 565
f 565 600 601
f 565 601 602
f 565 602 567
f 565 567 566
f 567 602 603
f 567 603 568
f 568 603 593
f 568 593 569
f 569 593 578
f 569 578 604
f 569 604 574
f 570 572 571
f 574 604 575
f 575 577 576
f 575 604 578
f 575 578 577
f 578 593 579
f 579 593 580
f 580 593 605
f 580 605 584
f 580 584 581
f 581 584 583
f 581 583 582
f 584 605 585
f 585 605 592
f 585 592 586
f 587 593 606
f 587 606 588
f 588 607 608
f 588 608 589
f 588 606 609
f 588 609 610
f 588 610 607
f 589 611 590
f 590 611 591
f 592 605 593
f 593 612 606
f 593 603 601
f 593 601 613
f 593 613 614
f 593 614 615
f 593 615 616
f 593 616 610
f 593 610 612
f 594 617 595
f 595 617 618
f 595 618 596
f 596 618 597
f 597 618 619
f 597 619 620
f 597 620 621
f 597 621 622
f 597 622 623
f 597 623 598
f 598 623 599
f 599 623 624
f 599 624 600
f 600 624 601
f 601 624 614
f 601 614 613
f 601 603 602
f 606 612 610
f 606 610 609
f 614 624 615
f 615 624 625
f 615 625 626
f 615 626 627
f 615 627 628
f 615 628 616
f 617 619 618
f 622 626 625
f 622 625 623
f 623 625 624

