# https://github.com/mikedh/trimesh
v -0.02938965 -0.03501913 -0.01252505
v -0.03025158 -0.03428133 0.02566984
v -0.02949199 -0.03493334 -0.01252505
v -0.02982621 -0.03462106 -0.02491766
v -0.02947280 -0.03491275 -0.02491766
v -0.02938965 -0.03494363 -0.02491766
v -0.02938965 -0.03501226 -0.01228252
v -0.03018922 -0.03430879 0.04915633
v -0.03066736 -0.03392102 0.02566984
v -0.03066736 -0.03391758 -0.01470784
v -0.03065777 -0.03391415 -0.02491766
v -0.03001811 -0.03445978 -0.02491766
v -0.02938965 -0.02822800 -0.02491766
v -0.02938965 -0.03498481 -0.01157057
v -0.03011246 -0.03029039 0.05288037
v -0.03019082 -0.03029039 0.05396785
v -0.03030756 -0.03029039 0.05428862
v -0.03049465 -0.03029039 0.05464069
v -0.03108314 -0.03029039 0.05481281
v -0.03217056 -0.03029039 0.05496928
v -0.03323879 -0.03029039 0.05483627
v -0.03397599 -0.03029039 0.05460157
v -0.03418707 -0.03029039 0.05400697
v -0.03064977 -0.03390386 0.04915633
v -0.02938965 -0.03395876 0.00712004
v -0.02938965 -0.03390043 0.00791805
v -0.03178836 -0.03287095 0.02860369
v -0.03119508 -0.03340971 0.04915633
v -0.03178836 -0.03286408 0.04915633
v -0.03178836 -0.03285379 -0.01035009
v -0.03178356 -0.03285722 -0.01144540
v -0.03233527 -0.03231846 -0.01035009
v -0.03284060 -0.03176255 -0.02016090
v -0.03284699 -0.03174882 -0.02124838
v -0.03493228 -0.02947367 -0.02491766
v -0.04078514 -0.00000315 -0.02491766
v -0.02938965 -0.03000900 0.00791805
v -0.04271530 0.00000371 0.05288037
v -0.04281285 0.00000371 0.05396785
v -0.04326221 0.00000371 0.05473457
v -0.04415773 0.00000371 0.05497710
v -0.03217056 -0.02997811 0.05499275
v -0.03325957 -0.02889030 0.05500057
v -0.03435179 -0.02779905 0.05500840
v -0.03325957 -0.02997811 0.05491451
v -0.03410872 -0.02997811 0.05465633
v -0.03617161 -0.02750051 0.05463286
v -0.03489070 -0.02942563 0.05446856
v -0.03453089 -0.02988889 0.05405391
v -0.03492108 -0.02946338 0.05374097
v -0.03423825 -0.03029039 0.05288037
v -0.03287898 -0.03178314 0.01688392
v -0.03210979 -0.03254152 0.04915633
v -0.03286778 -0.03177627 -0.01035009
v -0.03286938 -0.03177284 -0.01144540
v -0.03493387 -0.02947710 -0.02452648
v -0.03341309 -0.03119633 -0.01035009
v -0.03591735 -0.02825546 -0.02491766
v -0.04542745 -0.00000315 -0.02491766
v -0.04202287 0.00003803 0.00791805
v -0.04202607 0.00003803 0.00802758
v -0.04241946 0.00003803 0.01978648
v -0.04572169 0.00003803 0.01978648
v -0.04512841 0.00000371 0.05475022
v -0.04415773 -0.00600158 0.05497710
v -0.04306711 -0.01036313 0.05498492
v -0.03870465 -0.02125501 0.05500057
v -0.03762043 -0.02343750 0.05500057
v -0.03544240 -0.02670781 0.05500057
v -0.03653302 -0.02561999 0.05495363
v -0.03549038 -0.02784023 0.05478151
v -0.03653302 -0.02668379 0.05474239
v -0.03717427 -0.02630631 0.05459374
v -0.03814975 -0.02505378 0.05443727
v -0.03685285 -0.02696174 0.05396785
v -0.03630754 -0.02767208 0.05396785
v -0.03635071 -0.02772013 0.05288037
v -0.03592214 -0.02826575 0.05288037
v -0.03541362 -0.02889030 0.05288037
v -0.03493228 -0.02947710 0.05288037
v -0.03446853 -0.03002616 0.05288037
v -0.03431820 -0.03020460 0.04328862
v -0.03392322 -0.03065414 0.04915633
v -0.03233367 -0.03231160 0.04915633
v -0.03342428 -0.03120663 0.01362929
v -0.03342588 -0.03120319 0.01035902
v -0.03342269 -0.03119976 -0.00054710
v -0.03391682 -0.03064727 -0.01035009
v -0.03393121 -0.03065757 0.00791805
v -0.03494667 -0.02949426 -0.00272206
v -0.03606447 -0.02806329 -0.02491766
v -0.03593654 -0.02827605 0.00490596
v -0.03635231 -0.02772356 -0.00162676
v -0.04547702 -0.00019875 -0.02491766
v -0.04561295 -0.00000315 -0.02397883
v -0.04572489 0.00003803 0.00791805
v -0.04572649 0.00003803 0.01144650
v -0.04571529 0.00000371 0.05209801
v -0.04571369 0.00000371 0.05288037
v -0.04567372 0.00000371 0.05342802
v -0.04563373 0.00000371 0.05396785
v -0.04563373 -0.00055221 0.05396785
v -0.04512681 -0.00055221 0.05475022
v -0.04306711 -0.01145438 0.05497710
v -0.04506924 -0.00273127 0.05474239
v -0.04415773 -0.00709282 0.05496145
v -0.04197650 -0.01473155 0.05498492
v -0.04088588 -0.01690375 0.05499275
v -0.03979527 -0.02016719 0.05496145
v -0.03870465 -0.02234625 0.05493798
v -0.03772278 -0.02462483 0.05479716
v -0.03741414 -0.02561999 0.05468763
v -0.03931872 -0.02301198 0.05457809
v -0.03835124 -0.02432971 0.05464069
v -0.03937469 -0.02310807 0.05396785
v -0.03818013 -0.02510182 0.05370967
v -0.03724783 -0.02641269 0.05396785
v -0.03689762 -0.02699263 0.05288037
v -0.03689762 -0.02699606 0.04915633
v -0.03689922 -0.02700636 -0.00162676
v -0.03543440 -0.02889030 0.02889317
v -0.03580541 -0.02842704 0.02860369
v -0.03506980 -0.02931238 0.05209801
v -0.03494827 -0.02949426 0.02016201
v -0.03494987 -0.02949426 0.01797922
v -0.03392802 -0.03066100 0.02566984
v -0.03393281 -0.03065757 0.01580426
v -0.03393281 -0.03065757 0.01144650
v -0.03494987 -0.02949769 0.00927154
v -0.03728941 -0.02644701 -0.02491766
v -0.03494987 -0.02949769 0.01144650
v -0.04556497 -0.00055221 -0.02491766
v -0.04563214 -0.00055221 -0.02452648
v -0.04566252 -0.00000315 -0.02288352
v -0.04572009 -0.00000315 -0.00054710
v -0.04572649 0.00003803 0.00877083
v -0.04572649 -0.00055221 0.01144650
v -0.04572489 -0.00055221 0.02452759
v -0.04571849 0.00000371 0.04621465
v -0.04571529 -0.00055221 0.05209801
v -0.04571369 -0.00055221 0.05288037
v -0.04567052 -0.00164345 0.05288037
v -0.04562574 -0.00273127 0.05288037
v -0.04553139 -0.00273127 0.05396785
v -0.04502926 -0.00382252 0.05472674
v -0.04306711 -0.01254906 0.05490669
v -0.04492052 -0.00600158 0.05469545
v -0.04486935 -0.00709282 0.05466415
v -0.04415773 -0.00818407 0.05489104
v -0.04197650 -0.01581250 0.05489886
v -0.04088588 -0.01798127 0.05495363
v -0.03983525 -0.02126873 0.05476586
v -0.03871105 -0.02339975 0.05473457
v -0.03948663 -0.02234625 0.05466415
v -0.04044132 -0.02091528 0.05460157
v -0.04051968 -0.02106284 0.05396785
v -0.04026062 -0.02164964 0.05288037
v -0.03986243 -0.02234625 0.05288037
v -0.03940028 -0.02314925 0.05288037
v -0.03908525 -0.02369487 0.05288037
v -0.03856873 -0.02452875 0.05288037
v -0.03818973 -0.02511212 0.05288037
v -0.03782033 -0.02566117 0.05288037
v -0.03727662 -0.02645044 0.05288037
v -0.03729101 -0.02645387 0.03871180
v -0.03729421 -0.02646417 -0.00272206
v -0.03782672 -0.02565431 -0.02491766
v -0.03783312 -0.02567833 -0.00272206
v -0.04563533 -0.00093311 -0.02491766
v -0.04567052 -0.00055221 -0.02343117
v -0.04567372 -0.00164002 -0.02452648
v -0.04571849 -0.00055221 -0.00162676
v -0.04572009 -0.00055221 -0.00054710
v -0.04572169 -0.00000315 0.00109586
v -0.04572649 -0.00000315 0.00791805
v -0.04572649 -0.00055221 0.00927154
v -0.04569770 -0.00164345 0.01035902
v -0.04569770 -0.00158512 0.02566984
v -0.04569610 -0.00164002 0.02671038
v -0.04571689 -0.00055221 0.04915633
v -0.04567212 -0.00164345 0.05209801
v -0.04555538 -0.00382252 0.05288037
v -0.04562734 -0.00273127 0.05209801
v -0.04545463 -0.00382252 0.05396785
v -0.04385229 -0.01145438 0.05469545
v -0.04372916 -0.01254906 0.05461722
v -0.04281765 -0.01473155 0.05471109
v -0.04479419 -0.00818407 0.05460157
v -0.04264494 -0.01581250 0.05461722
v -0.04165347 -0.01798127 0.05467198
v -0.04092586 -0.01907595 0.05475804
v -0.04060284 -0.02016719 0.05468763
v -0.04151754 -0.01872249 0.05459374
v -0.04158471 -0.01885975 0.05396785
v -0.04101222 -0.02016719 0.05288037
v -0.04054686 -0.02110745 0.05288037
v -0.04026701 -0.02166680 0.02671038
v -0.03990721 -0.02231537 0.02566984
v -0.03908685 -0.02369487 0.04915633
v -0.03887256 -0.02404146 0.04915633
v -0.03871585 -0.02429197 0.05209801
v -0.03857192 -0.02452875 0.04088677
v -0.03819613 -0.02512241 0.04088677
v -0.03829847 -0.02494740 0.05209801
v -0.03782992 -0.02566803 0.03979929
v -0.03795306 -0.02546557 -0.02491766
v -0.03819932 -0.02513271 -0.00272206
v -0.04566092 -0.00164002 -0.02491766
v -0.04565293 -0.00202436 -0.02491766
v -0.04569770 -0.00164002 0.00791805
v -0.04569770 -0.00164345 0.00927154
v -0.04563214 -0.00273470 0.00381848
v -0.04562254 -0.00285481 0.04621465
v -0.04562894 -0.00273127 0.04915633
v -0.04543864 -0.00491033 0.05288037
v -0.04534269 -0.00491033 0.05396785
v -0.04555698 -0.00382252 0.05209801
v -0.04544024 -0.00491376 0.05209801
v -0.04473182 -0.00887725 0.05454680
v -0.04364600 -0.01322165 0.05454680
v -0.04522276 -0.00600158 0.05396785
v -0.04254739 -0.01643362 0.05453898
v -0.04257937 -0.01651255 0.05396785
v -0.04202447 -0.01798127 0.05288037
v -0.04160869 -0.01890437 0.05288037
v -0.04136403 -0.01947744 0.01797922
v -0.04103460 -0.02016376 0.01797922
v -0.04054047 -0.02114863 0.02566984
v -0.04027021 -0.02167023 0.00791805
v -0.03989122 -0.02234969 0.00791805
v -0.03941307 -0.02316640 0.00599344
v -0.03908845 -0.02370860 0.00272317
v -0.03857672 -0.02452875 -0.00162676
v -0.03818333 -0.02511212 -0.02491766
v -0.03842001 -0.02473464 -0.02491766
v -0.04561295 -0.00273470 -0.02491766
v -0.04563214 -0.00273470 0.00054821
v -0.04555858 -0.00382595 0.00054821
v -0.04555698 -0.00382595 0.04915633
v -0.04530751 -0.00600158 0.05288037
v -0.04509962 -0.00709282 0.05396785
v -0.04545143 -0.00491719 0.04034694
v -0.04545143 -0.00491376 0.04088677
v -0.04546423 -0.00491376 -0.00272206
v -0.04532191 -0.00600501 0.03979929
v -0.04492852 -0.00818407 0.05396785
v -0.04476380 -0.00903510 0.05396785
v -0.04417692 -0.01145438 0.05396785
v -0.04389547 -0.01254906 0.05396785
v -0.04368118 -0.01333832 0.05396785
v -0.04349568 -0.01388051 0.05396785
v -0.04328140 -0.01473155 0.05288037
v -0.04288001 -0.01581250 0.05288037
v -0.04239228 -0.01710621 0.05288037
v -0.04172863 -0.01864356 0.05209801
v -0.04239228 -0.01710964 0.04915633
v -0.04239547 -0.01711994 0.02779786
v -0.04202927 -0.01798470 0.02779786
v -0.04161189 -0.01893525 0.01688392
v -0.04161349 -0.01892496 -0.01035009
v -0.04136243 -0.01946371 -0.01144540
v -0.04103460 -0.02016376 -0.00054710
v -0.04103620 -0.02016376 0.01035902
v -0.04103620 -0.02016376 0.01254181
v -0.04055486 -0.02112461 0.00791805
v -0.04027021 -0.02167023 0.00490596
v -0.03989122 -0.02234969 0.00708875
v -0.03940987 -0.02316297 -0.00707982
v -0.03940508 -0.02314238 -0.02491766
v -0.03918759 -0.02349584 -0.02491766
v -0.03888695 -0.02398312 -0.02491766
v -0.04553139 -0.00382595 -0.02491766
v -0.04555858 -0.00382595 -0.00054710
v -0.04516199 -0.00709282 0.05288037
v -0.04533470 -0.00600501 -0.00272206
v -0.04544983 -0.00491376 -0.02491766
v -0.04532191 -0.00600501 -0.02491766
v -0.04516359 -0.00709625 0.04915633
v -0.04497329 -0.00818407 0.05288037
v -0.04452713 -0.01036313 0.05288037
v -0.04425847 -0.01145438 0.05288037
v -0.04394664 -0.01254906 0.05288037
v -0.04354366 -0.01394571 0.05288037
v -0.04288161 -0.01581593 0.05209801
v -0.04347809 -0.01414818 0.02860369
v -0.04328460 -0.01472469 0.02779786
v -0.04291839 -0.01576103 0.02566984
v -0.04260176 -0.01660863 0.02566984
v -0.04261455 -0.01657431 -0.01580315
v -0.04239387 -0.01712337 0.02671038
v -0.04201967 -0.01798470 -0.01144540
v -0.04201808 -0.01798470 -0.01252505
v -0.04159750 -0.01889064 -0.02016090
v -0.04102021 -0.02016376 -0.01035009
v -0.04133524 -0.01943626 -0.02016090
v -0.04055326 -0.02112461 0.00381848
v -0.04026861 -0.02166680 -0.00054710
v -0.03969932 -0.02262764 -0.02491766
v -0.04497329 -0.00818750 0.05209801
v -0.04516998 -0.00709282 -0.00162676
v -0.04516519 -0.00709282 0.04197425
v -0.04513960 -0.00709282 -0.02491766
v -0.04480058 -0.00917237 0.02671038
v -0.04452713 -0.01036656 0.05209801
v -0.04394664 -0.01255249 0.05209801
v -0.04453832 -0.01036656 0.02671038
v -0.04453992 -0.01036313 0.02452759
v -0.04426807 -0.01145438 0.02452759
v -0.04397223 -0.01254906 0.01254181
v -0.04397063 -0.01254906 0.01688392
v -0.04370997 -0.01341725 0.01797922
v -0.04354366 -0.01395601 -0.00925478
v -0.04289121 -0.01581936 -0.01580315
v -0.04285762 -0.01581936 -0.02452648
v -0.04259217 -0.01652970 -0.02452648
v -0.04050689 -0.02104911 -0.02343117
v -0.04054846 -0.02112117 -0.00054710
v -0.03985603 -0.02234969 -0.02452648
v -0.04233311 -0.01706160 -0.02491766
v -0.04495570 -0.00818407 -0.02491766
v -0.04497649 -0.00818407 -0.00054710
v -0.04497649 -0.00818407 0.00381848
v -0.04479899 -0.00918266 0.00791805
v -0.04471103 -0.00960475 0.00791805
v -0.04468224 -0.00972142 0.02566984
v -0.04468224 -0.00973515 0.01035902
v -0.04453992 -0.01036313 0.01035902
v -0.04447596 -0.01062393 0.00791805
v -0.04427127 -0.01145438 0.01144650
v -0.04427127 -0.01145438 0.00791805
v -0.04396103 -0.01254562 -0.01144540
v -0.04370837 -0.01340352 -0.01035009
v -0.04354206 -0.01395258 -0.01035009
v -0.04370357 -0.01332460 -0.02016090
v -0.04467425 -0.00967681 -0.02452648
v -0.04284643 -0.01581936 -0.02491766
v -0.04258257 -0.01651598 -0.02491766
v -0.04478139 -0.00911403 -0.02491766
v -0.04478139 -0.00913119 -0.02452648
v -0.04479739 -0.00915864 -0.00599233
v -0.04468224 -0.00973515 0.00927154
v -0.04453832 -0.01036313 0.00791805
v -0.04426807 -0.01145438 0.00164351
v -0.04426487 -0.01145438 -0.00054710
v -0.04425048 -0.01145438 -0.01035009
v -0.04471103 -0.00946749 -0.02491766
v -0.04466146 -0.00965965 -0.02491766
f 1 2 3
f 1 3 4
f 1 4 5
f 1 5 6
f 1 6 13
f 1 13 37
f 1 37 26
f 1 26 25
f 1 25 14
f 1 14 7
f 1 7 8
f 1 8 2
f 2 9 10
f 2 10 3
f 2 8 9
f 3 10 11
f 3 11 12
f 3 12 4
f 4 12 11
f 4 11 35
f 4 35 58
f 4 58 91
f 4 91 130
f 4 130 167
f 4 167 206
f 4 206 234
f 4 234 235
f 4 235 271
f 4 271 270
f 4 270 269
f 4 269 298
f 4 298 319
f 4 319 337
f 4 337 336
f 4 336 347
f 4 347 346
f 4 346 338
f 4 338 320
f 4 320 302
f 4 302 277
f 4 277 276
f 4 276 272
f 4 272 236
f 4 236 209
f 4 209 208
f 4 208 169
f 4 169 132
f 4 132 94
f 4 94 59
f 4 59 36
f 4 36 13
f 4 13 6
f 4 6 5
f 7 14 8
f 8 15 16
f 8 16 17
f 8 17 18
f 8 18 19
f 8 19 20
f 8 20 21
f 8 21 22
f 8 22 23
f 8 23 24
f 8 24 9
f 8 14 25
f 8 25 26
f 8 26 15
f 9 27 10
f 9 24 28
f 9 28 29
f 9 29 27
f 10 27 30
f 10 30 31
f 10 31 11
f 11 31 32
f 11 32 33
f 11 33 34
f 11 34 35
f 13 36 15
f 13 15 37
f 15 38 16
f 15 26 37
f 15 36 38
f 16 38 39
f 16 39 17
f 17 39 18
f 18 39 40
f 18 40 19
f 19 41 42
f 19 42 20
f 19 40 41
f 20 42 43
f 20 43 44
f 20 44 45
f 20 45 21
f 21 45 46
f 21 46 22
f 22 46 47
f 22 47 48
f 22 48 23
f 23 48 49
f 23 49 50
f 23 50 51
f 23 51 29
f 23 29 28
f 23 28 24
f 27 52 32
f 27 32 30
f 27 29 52
f 29 51 53
f 29 53 52
f 30 32 31
f 32 54 55
f 32 55 33
f 32 52 54
f 33 56 34
f 33 55 57
f 33 57 56
f 34 56 35
f 35 56 58
f 36 59 96
f 36 96 60
f 36 60 38
f 38 60 61
f 38 61 62
f 38 62 39
f 39 62 40
f 40 62 41
f 41 63 64
f 41 64 65
f 41 65 66
f 41 66 67
f 41 67 44
f 41 44 43
f 41 43 42
f 41 62 63
f 44 67 68
f 44 68 69
f 44 69 45
f 45 70 71
f 45 71 46
f 45 69 70
f 46 71 72
f 46 72 47
f 47 73 48
f 47 72 73
f 48 74 75
f 48 75 76
f 48 76 50
f 48 50 49
f 48 73 74
f 50 76 77
f 50 77 78
f 50 78 79
f 50 79 80
f 50 80 81
f 50 81 51
f 51 81 82
f 51 82 83
f 51 83 84
f 51 84 53
f 52 85 86
f 52 86 87
f 52 87 54
f 52 53 84
f 52 84 83
f 52 83 85
f 54 57 55
f 54 87 57
f 56 57 88
f 56 88 89
f 56 89 90
f 56 90 58
f 57 87 89
f 57 89 88
f 58 90 92
f 58 92 93
f 58 93 91
f 59 94 95
f 59 95 96
f 60 96 136
f 60 136 97
f 60 97 63
f 60 63 62
f 60 62 61
f 63 97 98
f 63 98 99
f 63 99 100
f 63 100 101
f 63 101 64
f 64 101 102
f 64 102 103
f 64 103 65
f 65 104 66
f 65 103 105
f 65 105 106
f 65 106 104
f 66 107 108
f 66 108 67
f 66 104 107
f 67 108 109
f 67 109 68
f 68 109 110
f 68 110 70
f 68 70 69
f 70 110 111
f 70 111 72
f 70 72 71
f 72 111 112
f 72 112 73
f 73 113 74
f 73 112 114
f 73 114 113
f 74 113 115
f 74 115 116
f 74 116 117
f 74 117 75
f 75 117 118
f 75 118 77
f 75 77 76
f 77 118 119
f 77 119 120
f 77 120 92
f 77 92 78
f 78 121 79
f 78 92 122
f 78 122 121
f 79 121 123
f 79 123 80
f 80 123 124
f 80 124 81
f 81 124 125
f 81 125 82
f 82 125 83
f 83 125 126
f 83 126 85
f 85 126 127
f 85 127 128
f 85 128 89
f 85 89 86
f 86 89 87
f 89 128 129
f 89 129 90
f 90 129 92
f 91 93 120
f 91 120 130
f 92 120 93
f 92 129 131
f 92 131 121
f 92 121 122
f 94 132 95
f 95 132 133
f 95 133 134
f 95 134 96
f 96 134 135
f 96 135 136
f 97 136 175
f 97 175 176
f 97 176 137
f 97 137 138
f 97 138 139
f 97 139 98
f 98 139 180
f 98 180 140
f 98 140 141
f 98 141 99
f 99 141 100
f 100 141 102
f 100 102 101
f 102 141 142
f 102 142 143
f 102 143 144
f 102 144 145
f 102 145 105
f 102 105 103
f 104 106 146
f 104 146 107
f 105 145 106
f 106 145 147
f 106 147 148
f 106 148 149
f 106 149 146
f 107 146 150
f 107 150 151
f 107 151 109
f 107 109 108
f 109 151 152
f 109 152 110
f 110 152 153
f 110 153 111
f 111 153 112
f 112 153 114
f 113 114 153
f 113 153 154
f 113 154 155
f 113 155 156
f 113 156 115
f 115 156 157
f 115 157 158
f 115 158 159
f 115 159 160
f 115 160 116
f 116 160 161
f 116 161 162
f 116 162 163
f 116 163 164
f 116 164 118
f 116 118 117
f 118 164 165
f 118 165 119
f 119 165 166
f 119 166 120
f 120 166 130
f 121 131 125
f 121 125 124
f 121 124 123
f 125 131 126
f 126 131 127
f 127 131 129
f 127 129 128
f 130 166 168
f 130 168 167
f 132 169 133
f 133 170 134
f 133 169 170
f 134 170 135
f 135 170 171
f 135 171 172
f 135 172 173
f 135 173 174
f 135 174 136
f 136 174 175
f 137 176 211
f 137 211 177
f 137 177 178
f 137 178 138
f 138 178 179
f 138 179 180
f 138 180 139
f 140 181 142
f 140 142 141
f 140 180 179
f 140 179 181
f 142 181 183
f 142 183 143
f 143 182 144
f 143 183 217
f 143 217 182
f 144 184 148
f 144 148 147
f 144 147 145
f 144 182 184
f 146 149 185
f 146 185 186
f 146 186 187
f 146 187 150
f 148 188 149
f 148 184 188
f 149 188 185
f 150 187 189
f 150 189 190
f 150 190 151
f 151 190 191
f 151 191 192
f 151 192 152
f 152 192 155
f 152 155 154
f 152 154 153
f 155 192 193
f 155 193 156
f 156 193 194
f 156 194 195
f 156 195 196
f 156 196 157
f 157 196 197
f 157 197 198
f 157 198 158
f 158 198 159
f 159 198 160
f 160 199 200
f 160 200 201
f 160 201 161
f 160 198 199
f 161 201 200
f 161 200 202
f 161 202 203
f 161 203 204
f 161 204 162
f 162 204 203
f 162 203 163
f 163 203 205
f 163 205 165
f 163 165 164
f 165 205 166
f 166 205 168
f 167 168 207
f 167 207 206
f 168 205 203
f 168 203 207
f 169 208 170
f 170 208 171
f 171 173 172
f 171 208 209
f 171 209 210
f 171 210 173
f 173 210 176
f 173 176 175
f 173 175 174
f 176 210 211
f 177 179 178
f 177 211 237
f 177 237 212
f 177 212 213
f 177 213 179
f 179 213 214
f 179 214 183
f 179 183 181
f 182 215 216
f 182 216 184
f 182 217 218
f 182 218 215
f 183 214 217
f 184 216 188
f 185 188 219
f 185 219 186
f 186 219 220
f 186 220 187
f 187 220 189
f 188 216 221
f 188 221 219
f 189 220 222
f 189 222 193
f 189 193 190
f 190 193 191
f 191 193 192
f 193 222 194
f 194 222 223
f 194 223 224
f 194 224 225
f 194 225 195
f 195 225 226
f 195 226 227
f 195 227 196
f 196 227 228
f 196 228 197
f 197 228 229
f 197 229 198
f 198 229 230
f 198 230 231
f 198 231 199
f 199 231 232
f 199 232 200
f 200 232 202
f 202 232 233
f 202 233 207
f 202 207 203
f 206 207 234
f 207 233 235
f 207 235 234
f 209 236 237
f 209 237 210
f 210 237 211
f 212 237 273
f 212 273 238
f 212 238 239
f 212 239 213
f 213 239 217
f 213 217 214
f 215 240 241
f 215 241 221
f 215 221 216
f 215 218 240
f 217 242 243
f 217 243 218
f 217 239 244
f 217 244 242
f 218 243 245
f 218 245 240
f 219 221 241
f 219 241 246
f 219 246 247
f 219 247 248
f 219 248 220
f 220 248 249
f 220 249 250
f 220 250 251
f 220 251 222
f 222 251 223
f 223 251 252
f 223 252 253
f 223 253 254
f 223 254 224
f 224 255 225
f 224 254 256
f 224 256 257
f 224 257 258
f 224 258 259
f 224 259 255
f 225 255 226
f 226 259 260
f 226 260 261
f 226 261 262
f 226 262 263
f 226 263 264
f 226 264 227
f 226 255 259
f 227 264 228
f 228 264 265
f 228 265 229
f 229 265 266
f 229 266 267
f 229 267 230
f 230 267 231
f 231 267 268
f 231 268 232
f 232 268 269
f 232 269 270
f 232 270 271
f 232 271 233
f 233 271 235
f 236 272 273
f 236 273 237
f 238 273 244
f 238 244 239
f 240 274 241
f 240 245 274
f 241 274 246
f 242 245 243
f 242 244 275
f 242 275 245
f 244 273 276
f 244 276 277
f 244 277 275
f 245 278 274
f 245 275 278
f 246 274 279
f 246 279 247
f 247 279 280
f 247 280 248
f 248 280 281
f 248 281 249
f 249 281 250
f 250 281 282
f 250 282 283
f 250 283 252
f 250 252 251
f 252 284 253
f 252 283 285
f 252 285 286
f 252 286 287
f 252 287 284
f 253 284 254
f 254 284 288
f 254 288 256
f 256 288 257
f 257 288 289
f 257 289 290
f 257 290 258
f 258 290 291
f 258 291 260
f 258 260 259
f 260 291 292
f 260 292 293
f 260 293 261
f 261 294 262
f 261 293 295
f 261 295 294
f 262 294 296
f 262 296 265
f 262 265 263
f 263 265 264
f 265 296 266
f 266 296 297
f 266 297 267
f 267 297 298
f 267 298 269
f 267 269 268
f 272 276 273
f 274 278 299
f 274 299 279
f 275 277 300
f 275 300 301
f 275 301 278
f 277 302 300
f 278 301 299
f 279 299 303
f 279 303 280
f 280 303 304
f 280 304 281
f 281 305 282
f 281 304 306
f 281 306 307
f 281 307 308
f 281 308 309
f 281 309 310
f 281 310 305
f 282 305 283
f 283 305 310
f 283 310 309
f 283 309 311
f 283 311 312
f 283 312 285
f 284 287 288
f 285 312 286
f 286 312 313
f 286 313 287
f 287 313 289
f 287 289 288
f 289 313 314
f 289 314 315
f 289 315 293
f 289 293 292
f 289 292 291
f 289 291 290
f 293 316 295
f 293 315 316
f 294 297 317
f 294 317 296
f 294 295 318
f 294 318 297
f 295 316 318
f 296 317 297
f 297 318 298
f 298 318 319
f 299 301 300
f 299 300 303
f 300 302 320
f 300 320 321
f 300 321 322
f 300 322 303
f 303 322 323
f 303 323 324
f 303 324 325
f 303 325 304
f 304 325 306
f 306 325 307
f 307 325 326
f 307 326 341
f 307 341 327
f 307 327 328
f 307 328 329
f 307 329 308
f 308 329 309
f 309 329 330
f 309 330 331
f 309 331 332
f 309 332 312
f 309 312 311
f 312 332 333
f 312 333 313
f 313 333 314
f 314 333 334
f 314 334 335
f 314 335 336
f 314 336 315
f 315 336 337
f 315 337 319
f 315 319 316
f 316 319 318
f 320 338 339
f 320 339 340
f 320 340 321
f 321 340 323
f 321 323 322
f 323 340 324
f 324 341 326
f 324 326 325
f 324 340 335
f 324 335 341
f 327 341 335
f 327 335 342
f 327 342 328
f 328 335 343
f 328 343 330
f 328 330 329
f 328 342 335
f 330 343 331
f 331 343 344
f 331 344 345
f 331 345 335
f 331 335 334
f 331 334 332
f 332 334 333
f 335 345 344
f 335 344 343
f 335 340 339
f 335 339 338
f 335 338 346
f 335 346 347
f 335 347 336

