# https://github.com/mikedh/trimesh
v 0.00000786 0.04571824 -0.02562537
v 0.00000786 0.04571657 -0.03586569
v -0.00054666 0.04571657 -0.03586569
v -0.00054666 0.04571657 -0.02562537
v -0.00054666 0.04570988 -0.02491344
v 0.00000786 0.04570988 -0.02491344
v 0.00000786 0.03969376 -0.03586569
v -0.00120930 0.04568647 -0.03586569
v -0.00163827 0.04566807 -0.02780617
v -0.00163827 0.04566807 -0.02671577
v -0.00272639 0.04561622 -0.02780617
v -0.00381800 0.04555768 -0.02889657
v -0.00708934 0.04513955 -0.02491344
v 0.00000786 0.04088795 -0.02491344
v -0.02923542 0.02863158 -0.02491344
v -0.02765206 0.02863158 -0.03586569
v -0.00229742 0.04563629 -0.03586569
v -0.00272639 0.04561622 -0.03586569
v -0.00338903 0.04558110 -0.03586569
v -0.00381800 0.04555768 -0.03586569
v -0.00490961 0.04545064 -0.03107630
v -0.00490961 0.04544228 -0.02998697
v -0.00708934 0.04514958 -0.03325709
v -0.00818095 0.04496226 -0.02562537
v -0.00818095 0.04496058 -0.02491344
v -0.03475624 0.02863158 -0.02491344
v -0.03496898 0.02863158 -0.03586569
v -0.00490961 0.04545064 -0.03586569
v -0.00556876 0.04535865 -0.03586569
v -0.00599773 0.04529844 -0.03543789
v -0.00708934 0.04514122 -0.03434750
v -0.01036068 0.04452907 -0.02889657
v -0.00910167 0.04477995 -0.02671577
v -0.00964573 0.04467291 -0.02671577
v -0.00964573 0.04467291 -0.02562537
v -0.00878082 0.04484351 -0.02491344
v -0.03429588 0.02964514 -0.02491344
v -0.03535262 0.02863158 -0.02671577
v -0.03555141 0.02863158 -0.03586248
v -0.03530379 0.02893097 -0.03586569
v -0.00599773 0.04526833 -0.03586569
v -0.00879128 0.04474817 -0.03391219
v -0.01326234 0.04366437 -0.03393685
v -0.01145229 0.04425812 -0.02889657
v -0.01145229 0.04426314 -0.02780617
v -0.01036068 0.04453074 -0.02780617
v -0.01011307 0.04457924 -0.02491344
v -0.00910167 0.04477995 -0.02491344
v -0.03385296 0.03060518 -0.02491344
v -0.03558280 0.02863158 -0.02783083
v -0.03562116 0.02863158 -0.02889657
v -0.03541191 0.02889585 -0.02889657
v -0.03493411 0.02948792 -0.02889657
v -0.03501084 0.02928387 -0.03586569
v -0.01089777 0.04404905 -0.03586569
v -0.01472364 0.04316261 -0.03543789
v -0.01472364 0.04322951 -0.03434750
v -0.01376455 0.04353391 -0.03325709
v -0.01254042 0.04394368 -0.02671577
v -0.01145229 0.04426314 -0.02671577
v -0.01036068 0.04452907 -0.02491344
v -0.01107215 0.04435513 -0.02491344
v -0.03492713 0.02947789 -0.02824683
v -0.03285901 0.03177261 -0.02491344
v -0.03387738 0.03061522 -0.03586569
v -0.03414941 0.03030747 -0.03586569
v -0.03475624 0.02958995 -0.03586569
v -0.03285901 0.03177428 -0.02562537
v -0.03283808 0.03176927 -0.03325709
v -0.01581176 0.04281973 -0.03586569
v -0.01581176 0.04283144 -0.03543789
v -0.01653368 0.04259562 -0.02998697
v -0.01444114 0.04336331 -0.02491344
v -0.01391103 0.04353726 -0.02562537
v -0.01254042 0.04394368 -0.02562537
v -0.01145229 0.04426146 -0.02491344
v -0.03230797 0.03231786 -0.02491344
v -0.03284157 0.03175756 -0.03434750
v -0.03280321 0.03170738 -0.03515270
v -0.03048746 0.03375959 -0.03586569
v -0.03230797 0.03231953 -0.02562537
v -0.03120241 0.03339498 -0.02780617
v -0.03065486 0.03392350 -0.02889657
v -0.01648137 0.04257555 -0.03586569
v -0.01799149 0.04201692 -0.02889657
v -0.01391103 0.04353558 -0.02491344
v -0.01472364 0.04324958 -0.02491344
v -0.01355530 0.04364262 -0.02491344
v -0.01254042 0.04394201 -0.02491344
v -0.01216027 0.04405407 -0.02491344
v -0.03195224 0.03266575 -0.02491344
v -0.03063045 0.03391012 -0.02998697
v -0.02826936 0.03587535 -0.03325709
v -0.02766950 0.03633363 -0.03434750
v -0.02641049 0.03726189 -0.03586569
v -0.03120241 0.03339665 -0.02562537
v -0.03120241 0.03339665 -0.02671577
v -0.03065486 0.03392182 -0.02491344
v -0.03002710 0.03446875 -0.02889657
v -0.03084668 0.03373952 -0.02491344
v -0.01702892 0.04235142 -0.03586569
v -0.01762530 0.04210389 -0.03586569
v -0.01799149 0.04195169 -0.03586569
v -0.01851811 0.04173091 -0.03586569
v -0.01887385 0.04158038 -0.03586569
v -0.01941791 0.04134455 -0.03586569
v -0.01988175 0.04113883 -0.03586569
v -0.01889826 0.04160380 -0.02889657
v -0.01889826 0.04160380 -0.02780617
v -0.01888780 0.04158540 -0.02671577
v -0.02017122 0.04101005 -0.02562537
v -0.02078503 0.04071066 -0.02491344
v -0.02772530 0.03633363 -0.03325709
v -0.02698593 0.03687888 -0.03434750
v -0.02643490 0.03726691 -0.03543789
v -0.02613497 0.03747597 -0.03586569
v -0.03002710 0.03446707 -0.02491344
v -0.02948304 0.03492869 -0.02671577
v -0.02948304 0.03492869 -0.02780617
v -0.02948304 0.03492535 -0.02889657
v -0.02017122 0.04100503 -0.03586569
v -0.02017122 0.04101005 -0.02998697
v -0.01944581 0.04134957 -0.02780617
v -0.02017122 0.04101172 -0.02671577
v -0.02111287 0.04055010 -0.02491344
v -0.02825890 0.03591215 -0.02562537
v -0.02825890 0.03591215 -0.02491344
v -0.02771484 0.03634032 -0.02491344
v -0.02698593 0.03687888 -0.03325709
v -0.02567810 0.03781382 -0.03107630
v -0.02567810 0.03781215 -0.03543789
v -0.02567810 0.03780713 -0.03586569
v -0.02967137 0.03476646 -0.02491344
v -0.02947955 0.03492702 -0.02491344
v -0.02927727 0.03509260 -0.02491344
v -0.02867392 0.03557931 -0.02491344
v -0.02073970 0.04073073 -0.03586569
v -0.02111287 0.04055010 -0.03586569
v -0.02130468 0.04045142 -0.02491344
v -0.02688828 0.03689058 -0.02491344
v -0.02512706 0.03820352 -0.02889657
v -0.02513404 0.03820185 -0.02998697
v -0.02513404 0.03820185 -0.03107630
v -0.02513055 0.03820018 -0.03586569
v -0.02165693 0.04026242 -0.03586569
v -0.02165693 0.04026410 -0.02562537
v -0.02166041 0.04025740 -0.02491344
v -0.02652558 0.03712808 -0.02491344
v -0.02510962 0.03819015 -0.02827042
v -0.02313566 0.03939939 -0.02671577
v -0.02369018 0.03907826 -0.02780617
v -0.02453069 0.03857316 -0.02889657
v -0.02489688 0.03834736 -0.03586569
v -0.02235095 0.03986101 -0.03586569
v -0.02235095 0.03986269 -0.02889657
v -0.02235095 0.03986269 -0.02671577
v -0.02369018 0.03907994 -0.03586569
v -0.02453069 0.03857149 -0.03586569
f 1 2 3
f 1 3 4
f 1 4 5
f 1 5 6
f 1 6 14
f 1 14 7
f 1 7 2
f 2 7 16
f 2 16 27
f 2 27 40
f 2 40 54
f 2 54 67
f 2 67 66
f 2 66 65
f 2 65 80
f 2 80 95
f 2 95 116
f 2 116 132
f 2 132 144
f 2 144 153
f 2 153 158
f 2 158 157
f 2 157 154
f 2 154 145
f 2 145 138
f 2 138 137
f 2 137 121
f 2 121 107
f 2 107 106
f 2 106 105
f 2 105 104
f 2 104 103
f 2 103 102
f 2 102 101
f 2 101 84
f 2 84 70
f 2 70 55
f 2 55 41
f 2 41 29
f 2 29 28
f 2 28 20
f 2 20 19
f 2 19 18
f 2 18 17
f 2 17 8
f 2 8 3
f 3 8 9
f 3 9 10
f 3 10 4
f 4 10 5
f 5 10 11
f 5 11 12
f 5 12 13
f 5 13 25
f 5 25 36
f 5 36 48
f 5 48 47
f 5 47 61
f 5 61 62
f 5 62 76
f 5 76 90
f 5 90 89
f 5 89 88
f 5 88 86
f 5 86 73
f 5 73 87
f 5 87 112
f 5 112 125
f 5 125 139
f 5 139 147
f 5 147 148
f 5 148 140
f 5 140 128
f 5 128 127
f 5 127 136
f 5 136 135
f 5 135 134
f 5 134 133
f 5 133 117
f 5 117 98
f 5 98 100
f 5 100 91
f 5 91 77
f 5 77 64
f 5 64 49
f 5 49 37
f 5 37 26
f 5 26 15
f 5 15 14
f 5 14 6
f 7 14 15
f 7 15 16
f 8 17 9
f 9 17 18
f 9 18 11
f 9 11 10
f 11 18 19
f 11 19 12
f 12 19 20
f 12 20 28
f 12 28 21
f 12 21 22
f 12 22 13
f 13 22 21
f 13 21 23
f 13 23 24
f 13 24 25
f 15 26 38
f 15 38 50
f 15 50 51
f 15 51 39
f 15 39 27
f 15 27 16
f 21 28 23
f 23 28 29
f 23 29 30
f 23 30 31
f 23 31 32
f 23 32 24
f 24 33 34
f 24 34 35
f 24 35 36
f 24 36 25
f 24 32 33
f 26 37 38
f 27 39 40
f 29 41 30
f 30 41 31
f 31 42 32
f 31 41 43
f 31 43 42
f 32 43 44
f 32 44 45
f 32 45 46
f 32 46 33
f 32 42 43
f 33 46 34
f 34 46 35
f 35 46 47
f 35 47 48
f 35 48 36
f 37 49 38
f 38 49 50
f 39 51 52
f 39 52 53
f 39 53 40
f 40 53 54
f 41 55 56
f 41 56 43
f 43 56 57
f 43 57 58
f 43 58 44
f 44 58 59
f 44 59 45
f 45 60 46
f 45 59 75
f 45 75 60
f 46 61 47
f 46 60 62
f 46 62 61
f 49 63 50
f 49 64 63
f 50 52 51
f 50 63 52
f 52 63 53
f 53 65 66
f 53 66 67
f 53 67 54
f 53 63 64
f 53 64 68
f 53 68 69
f 53 69 65
f 55 70 56
f 56 70 57
f 57 70 71
f 57 71 72
f 57 72 73
f 57 73 74
f 57 74 58
f 58 74 59
f 59 74 75
f 60 76 62
f 60 75 76
f 64 77 81
f 64 81 68
f 65 69 78
f 65 78 79
f 65 79 80
f 68 81 69
f 69 81 82
f 69 82 83
f 69 83 78
f 70 84 71
f 71 84 72
f 72 84 85
f 72 85 73
f 73 86 74
f 73 85 87
f 74 86 88
f 74 88 75
f 75 89 90
f 75 90 76
f 75 88 89
f 77 91 81
f 78 83 92
f 78 92 93
f 78 93 80
f 78 80 79
f 80 93 94
f 80 94 95
f 81 91 96
f 81 96 97
f 81 97 82
f 82 97 83
f 83 98 117
f 83 117 99
f 83 99 93
f 83 93 92
f 83 97 100
f 83 100 98
f 84 101 85
f 85 101 102
f 85 102 103
f 85 103 104
f 85 104 105
f 85 105 106
f 85 106 107
f 85 107 108
f 85 108 109
f 85 109 110
f 85 110 87
f 87 110 111
f 87 111 112
f 91 100 96
f 93 113 94
f 93 99 113
f 94 113 114
f 94 114 115
f 94 115 95
f 95 115 116
f 96 100 97
f 99 117 118
f 99 118 119
f 99 119 120
f 99 120 113
f 107 121 108
f 108 121 122
f 108 122 123
f 108 123 109
f 109 123 124
f 109 124 111
f 109 111 110
f 111 124 112
f 112 124 125
f 113 120 119
f 113 119 126
f 113 126 127
f 113 127 128
f 113 128 129
f 113 129 114
f 114 129 130
f 114 130 131
f 114 131 115
f 115 131 132
f 115 132 116
f 117 133 118
f 118 133 134
f 118 134 135
f 118 135 136
f 118 136 119
f 119 136 126
f 121 137 122
f 122 137 138
f 122 138 124
f 122 124 123
f 124 138 125
f 125 138 139
f 126 136 127
f 128 140 141
f 128 141 142
f 128 142 130
f 128 130 129
f 130 142 143
f 130 143 131
f 131 143 144
f 131 144 132
f 138 145 139
f 139 145 146
f 139 146 147
f 140 148 149
f 140 149 141
f 141 149 150
f 141 150 151
f 141 151 152
f 141 152 142
f 142 152 143
f 143 152 153
f 143 153 144
f 145 154 155
f 145 155 146
f 146 155 156
f 146 156 147
f 147 156 150
f 147 150 148
f 148 150 149
f 150 156 151
f 151 157 152
f 151 156 157
f 152 158 153
f 152 157 158
f 154 157 155
f 155 157 156

