# https://github.com/mikedh/trimesh
v 0.03497397 -0.02946949 0.00793691
v 0.03496712 -0.02939820 0.03447567
v 0.03496712 -0.02939820 0.03740267
v 0.03483000 -0.02957464 0.03740267
v 0.03431583 -0.03019844 0.04915517
v 0.03418557 -0.03035350 0.05286507
v 0.03443923 -0.03008259 0.02567686
v 0.03494312 -0.02950335 -0.00272130
v 0.03497054 -0.02946949 -0.00162701
v 0.03494312 -0.02946949 -0.02457151
v 0.02863935 -0.02751968 -0.03587917
v 0.03097370 -0.02939820 0.03740267
v 0.03179638 -0.03035350 0.05498248
v 0.03288643 -0.03035350 0.05491131
v 0.03377081 -0.03035350 0.05465331
v 0.03394220 -0.03035350 0.05458213
v 0.03406903 -0.03035350 0.05436861
v 0.03413758 -0.03035350 0.05399495
v 0.03391477 -0.03066361 0.05286507
v 0.03392163 -0.03066718 0.02567686
v 0.03392163 -0.03066896 0.00793691
v 0.03392163 -0.03066896 0.00599744
v 0.03446665 -0.03004873 0.00793691
v 0.03391135 -0.03065826 -0.01034574
v 0.03492941 -0.02948553 -0.02451813
v 0.03492598 -0.02948375 -0.02493627
v 0.03493627 -0.02946949 -0.02493627
v 0.02863935 -0.03558091 -0.03587917
v 0.00001016 -0.03968549 -0.03587917
v -0.00004469 -0.04270466 0.05286507
v 0.03018530 -0.03022517 0.05208217
v 0.03036355 -0.03035350 0.05460882
v 0.03038411 -0.03035350 0.05461772
v 0.03071319 -0.03035350 0.05474227
v -0.00004469 -0.04415721 0.05496469
v 0.02779954 -0.03435114 0.05500917
v -0.00004469 -0.04325538 0.05473338
v 0.03106968 -0.03216963 0.05492021
v 0.03209803 -0.03210369 0.05467110
v 0.03317779 -0.03100224 0.05465331
v 0.03384622 -0.03058697 0.05454654
v 0.03388735 -0.03063509 0.05396826
v 0.03284872 -0.03177575 0.05286507
v 0.03247509 -0.03216785 0.05208217
v 0.03337661 -0.03124463 0.02567686
v 0.03337318 -0.03118403 0.05396826
v 0.03341431 -0.03120899 -0.00054161
v 0.03341774 -0.03120542 -0.00162701
v 0.03340746 -0.03120364 -0.01034574
v 0.03283844 -0.03175793 -0.02125305
v 0.03085373 -0.03372199 -0.02493627
v 0.02822459 -0.03589459 -0.03587917
v 0.03065149 -0.03392339 -0.02493627
v 0.03001048 -0.03446877 -0.02493627
v 0.02863935 -0.03560229 -0.02889529
v 0.02825543 -0.03591063 -0.02889529
v 0.02771041 -0.03634372 -0.02889529
v -0.00004469 -0.04270466 0.05208217
v 0.00001016 -0.04534421 -0.03587917
v -0.00004469 -0.04279734 0.05396826
v 0.03013046 -0.03035350 0.05396826
v 0.00491195 -0.04415721 0.05497359
v -0.00004469 -0.04511786 0.05474227
v 0.01036219 -0.04306646 0.05498248
v 0.01473267 -0.04197571 0.05498248
v 0.02343934 -0.03761983 0.05499138
v 0.02670949 -0.03544189 0.05499138
v 0.02997620 -0.03326217 0.05490241
v 0.03098741 -0.03319801 0.05465331
v 0.03169354 -0.03278808 0.05456434
v 0.03175182 -0.03285046 0.05396826
v 0.03229341 -0.03229439 0.05396826
v 0.03232426 -0.03231934 0.05286507
v 0.03178267 -0.03287898 0.04915517
v 0.03232769 -0.03232291 0.04915517
v 0.03177924 -0.03287541 0.05286507
v 0.03286586 -0.03177931 -0.00272130
v 0.03286243 -0.03178110 -0.01144003
v 0.03232769 -0.03232826 -0.01034574
v 0.02738134 -0.03651838 -0.03587917
v 0.03065149 -0.03392518 -0.01471400
v 0.03003105 -0.03447411 0.02561459
v 0.02948259 -0.03494285 -0.01253432
v 0.03177581 -0.03286650 -0.01144003
v 0.03178267 -0.03286294 -0.01034574
v 0.03178267 -0.03287541 0.02860386
v 0.03178267 -0.03287720 0.03447567
v 0.02863935 -0.03560408 -0.02823693
v 0.02827258 -0.03593202 -0.01034574
v 0.02642840 -0.03725981 -0.02998068
v 0.02639413 -0.03724020 -0.03587917
v 0.02661693 -0.03707802 -0.03587917
v 0.02773441 -0.03634372 -0.01034574
v 0.02701114 -0.03689444 -0.00054161
v 0.02699400 -0.03689266 -0.01144003
v -0.00004469 -0.04569710 0.05208217
v 0.00490852 -0.04536916 -0.03587917
v 0.00381847 -0.04541371 -0.03543434
v 0.00381847 -0.04550461 -0.03434005
v 0.00272842 -0.04555451 -0.03325465
v 0.00001016 -0.04571136 -0.02889529
v 0.00055176 -0.04511786 0.05474227
v 0.00163838 -0.04510717 0.05474227
v 0.00600200 -0.04415721 0.05496469
v -0.00004469 -0.04561689 0.05396826
v 0.01145567 -0.04306646 0.05496469
v 0.01254571 -0.04306646 0.05490241
v 0.01582271 -0.04197571 0.05490241
v 0.01797539 -0.04088496 0.05493800
v 0.02016577 -0.03979420 0.05495579
v 0.02234929 -0.03870523 0.05493800
v 0.02561258 -0.03653086 0.05494689
v 0.02783724 -0.03549179 0.05477786
v 0.02899928 -0.03446342 0.05479565
v 0.02997620 -0.03410875 0.05464441
v 0.03056579 -0.03384675 0.05454654
v 0.03116223 -0.03339584 0.05396826
v 0.03118965 -0.03342257 0.05286507
v 0.03065149 -0.03392696 0.02567686
v 0.03178267 -0.03287898 0.04621037
v 0.03003105 -0.03445986 0.05286507
v 0.02947917 -0.03494107 0.05286507
v 0.02948602 -0.03494820 0.02671777
v 0.02828286 -0.03593023 0.01689585
v 0.02773783 -0.03635441 0.01689585
v 0.02509155 -0.03817055 -0.03587917
v 0.02645240 -0.03727941 -0.01034574
v 0.02511212 -0.03818837 -0.02451813
v 0.02701114 -0.03689979 0.01036570
v 0.02646954 -0.03729011 0.00599744
v 0.02646954 -0.03728833 0.00382665
v 0.02646611 -0.03728654 0.00055268
v -0.00004469 -0.04569710 0.05286507
v 0.00001016 -0.04571314 -0.02833479
v 0.00001016 -0.04572562 -0.00272130
v 0.00599857 -0.04525153 -0.03587917
v 0.00490852 -0.04539233 -0.03543434
v 0.00381847 -0.04551174 -0.03325465
v 0.00054833 -0.04571136 -0.02889529
v 0.00054833 -0.04571492 -0.02780099
v 0.00055176 -0.04561689 0.05396826
v 0.00272842 -0.04506974 0.05473338
v 0.00163838 -0.04559907 0.05396826
v 0.00709205 -0.04415721 0.05493800
v 0.00818209 -0.04415721 0.05488462
v 0.01254571 -0.04373303 0.05461772
v 0.01582271 -0.04264763 0.05461772
v 0.01797539 -0.04164777 0.05467110
v 0.01908600 -0.04093486 0.05475117
v 0.02016577 -0.04061049 0.05467999
v 0.02126610 -0.03982985 0.05475117
v 0.02234929 -0.03949122 0.05467110
v 0.02340164 -0.03870523 0.05473338
v 0.02462537 -0.03771964 0.05479565
v 0.02668206 -0.03652730 0.05473338
v 0.02870448 -0.03516386 0.05464441
v 0.02943118 -0.03489829 0.05450206
v 0.02946546 -0.03492681 0.05377254
v 0.02888958 -0.03542585 0.05286507
v 0.02826572 -0.03593023 0.05286507
v 0.02701114 -0.03689979 0.01798125
v 0.02421746 -0.03875157 -0.02493627
v 0.02368614 -0.03907773 -0.02562131
v 0.02314112 -0.03939676 -0.02670671
v 0.02234929 -0.03986015 -0.02780099
v 0.02165345 -0.04025938 -0.02889529
v 0.02108100 -0.04052850 -0.02998068
v 0.01879464 -0.04161212 -0.03325465
v 0.02085476 -0.04041087 -0.03587917
v 0.02513611 -0.03820085 -0.00272130
v 0.02646268 -0.03729545 0.01036570
v 0.02628444 -0.03741843 0.00793691
v 0.00002044 -0.04571670 0.03978698
v 0.00055176 -0.04569710 0.05286507
v 0.00054833 -0.04572740 -0.00272130
v 0.00708862 -0.04508756 -0.03587917
v 0.00708862 -0.04515529 -0.02889529
v 0.00381847 -0.04554204 -0.02451813
v 0.00341399 -0.04557056 -0.02493627
v 0.00272842 -0.04561333 -0.02562131
v 0.00163838 -0.04566502 -0.02670671
v 0.00163838 -0.04569353 -0.00162701
v 0.00163838 -0.04568462 0.05286507
v 0.00491195 -0.04497706 0.05470669
v 0.00272842 -0.04553313 0.05396826
v 0.00600200 -0.04492715 0.05467999
v 0.00272842 -0.04562581 0.05286507
v 0.00709205 -0.04486299 0.05465331
v 0.00818209 -0.04479170 0.05459993
v 0.00890194 -0.04473823 0.05454654
v 0.01321757 -0.04364926 0.05454654
v 0.01645001 -0.04255495 0.05454654
v 0.01872951 -0.04151232 0.05458213
v 0.02090275 -0.04043939 0.05459103
v 0.02301772 -0.03932546 0.05457324
v 0.02630843 -0.03718139 0.05459103
v 0.02561258 -0.03741665 0.05467999
v 0.02641127 -0.03725981 0.05396826
v 0.02821773 -0.03588568 0.05396826
v 0.02699400 -0.03688375 0.05286507
v 0.02644897 -0.03729189 0.05208217
v 0.02646268 -0.03729545 0.01472507
v 0.02452939 -0.03858760 0.00709173
v 0.02316854 -0.03941814 -0.00054161
v 0.02165345 -0.04026116 -0.02780099
v 0.02111185 -0.04054810 -0.02889529
v 0.01798910 -0.04201314 -0.03325465
v 0.01798910 -0.04196323 -0.03434005
v 0.01651856 -0.04259594 -0.03587917
v 0.01707730 -0.04235355 -0.03543434
v 0.02568114 -0.03783192 0.00793691
v 0.02513611 -0.03820085 0.00793691
v 0.02499557 -0.03829175 0.00793691
v 0.02619531 -0.03748081 0.01978727
v 0.00055518 -0.04571314 0.04034747
v 0.00164866 -0.04568640 0.04196666
v 0.00110706 -0.04570245 0.04034747
v 0.00773990 -0.04498775 -0.03587917
v 0.00817867 -0.04492002 -0.03587917
v 0.00870655 -0.04483626 -0.03587917
v 0.00907676 -0.04477031 -0.03587917
v 0.00817867 -0.04495745 -0.02889529
v 0.00818209 -0.04497884 -0.01034574
v 0.00709205 -0.04516598 -0.01144003
v 0.00599857 -0.04533529 0.00793691
v 0.00599857 -0.04533173 0.00382665
v 0.00599857 -0.04532817 0.00055268
v 0.00491195 -0.04545649 -0.00054161
v 0.00382190 -0.04557234 0.00928031
v 0.00273185 -0.04563472 0.00055268
v 0.00194688 -0.04567036 0.05208217
v 0.00491195 -0.04535133 0.05396826
v 0.00382533 -0.04554026 0.05286507
v 0.00491195 -0.04545114 0.05286507
v 0.00600200 -0.04523727 0.05396826
v 0.00709205 -0.04508578 0.05396826
v 0.00818209 -0.04492715 0.05396826
v 0.00906647 -0.04477388 0.05396826
v 0.01254571 -0.04390769 0.05396826
v 0.01333754 -0.04369026 0.05396826
v 0.01653227 -0.04259238 0.05396826
v 0.01888376 -0.04157826 0.05396826
v 0.01942879 -0.04132161 0.05396826
v 0.02103644 -0.04051246 0.05396826
v 0.02311713 -0.03939141 0.05396826
v 0.02505728 -0.03814560 0.05439530
v 0.02552346 -0.03786222 0.05400385
v 0.02509841 -0.03817412 0.05367467
v 0.02644897 -0.03728833 0.05286507
v 0.02550289 -0.03793173 0.05208217
v 0.02565714 -0.03782657 0.05286507
v 0.02452939 -0.03858760 0.00793691
v 0.02315826 -0.03941636 0.05286507
v 0.02234929 -0.03988510 -0.00162701
v 0.02166030 -0.04027007 -0.00272130
v 0.02016920 -0.04100971 -0.02670671
v 0.02016920 -0.04100793 -0.02780099
v 0.02111870 -0.04055523 -0.00272130
v 0.02016577 -0.04103645 -0.00272130
v 0.01708073 -0.04237850 -0.03434005
v 0.01653570 -0.04259594 -0.03543434
v 0.01948020 -0.04136974 -0.00162701
v 0.01798567 -0.04203631 0.00709173
v 0.01713900 -0.04239632 0.00793691
v 0.01712872 -0.04239276 -0.00054161
v 0.01624091 -0.04271179 -0.03587917
v 0.02511212 -0.03818481 0.05208217
v 0.00962178 -0.04467051 -0.03587917
v 0.01006740 -0.04458496 -0.03587917
v 0.00969719 -0.04467942 -0.01253432
v 0.00916588 -0.04479170 0.02780317
v 0.00818552 -0.04498062 0.01798125
v 0.00709547 -0.04517489 0.01254538
v 0.00491195 -0.04546362 0.00793691
v 0.00600200 -0.04532282 0.05286507
v 0.00491195 -0.04546362 0.01036570
v 0.00709205 -0.04514637 0.05286507
v 0.00818209 -0.04496815 0.05286507
v 0.00914874 -0.04479170 0.05286507
v 0.00969376 -0.04467229 0.05286507
v 0.01036219 -0.04451189 0.05286507
v 0.01145567 -0.04424276 0.05286507
v 0.01254571 -0.04395938 0.05286507
v 0.01338896 -0.04370986 0.05286507
v 0.01393741 -0.04352807 0.05286507
v 0.01473267 -0.04326429 0.05286507
v 0.01582271 -0.04289180 0.05286507
v 0.01658369 -0.04261198 0.05286507
v 0.01948020 -0.04136974 0.05286507
v 0.02016577 -0.04102219 0.05286507
v 0.02162945 -0.04025403 0.05286507
v 0.02234929 -0.03987084 0.05286507
v 0.02511212 -0.03818125 0.05286507
v 0.02370328 -0.03907773 0.05286507
v 0.02165345 -0.04026116 0.03869269
v 0.02110499 -0.04054989 0.03869269
v 0.01653913 -0.04259594 -0.03434005
v 0.01658369 -0.04261198 -0.00054161
v 0.01581243 -0.04288467 -0.03587917
v 0.01711843 -0.04240523 0.02567686
v 0.01659398 -0.04261555 0.00793691
v 0.01036219 -0.04452614 -0.03587917
v 0.01036219 -0.04452793 -0.02562131
v 0.00971090 -0.04467764 0.02671777
v 0.00915902 -0.04479170 0.04915517
v 0.00845632 -0.04492002 0.05208217
v 0.00819238 -0.04496815 0.04915517
v 0.00818552 -0.04496815 0.05208217
v 0.01036905 -0.04452793 0.02671777
v 0.01010168 -0.04457961 0.04915517
v 0.01101691 -0.04435504 0.04915517
v 0.01146938 -0.04424276 0.04915517
v 0.01176417 -0.04416434 0.05208217
v 0.01211381 -0.04407701 0.04915517
v 0.01145909 -0.04425880 0.02567686
v 0.01255600 -0.04395938 0.02780317
v 0.01340267 -0.04371164 0.04915517
v 0.01474295 -0.04326429 0.04915517
v 0.01583300 -0.04289180 0.04915517
v 0.01659398 -0.04261198 0.04915517
v 0.01713900 -0.04238028 0.04915517
v 0.01472238 -0.04327855 -0.03587917
v 0.01581586 -0.04290784 0.00709173
v 0.01659398 -0.04261555 0.02780317
v 0.01145224 -0.04425702 -0.03587917
v 0.01145224 -0.04426058 -0.02562131
v 0.01036905 -0.04452793 0.02567686
v 0.01145909 -0.04425880 0.02561459
v 0.01255600 -0.04395938 0.02671777
v 0.01339924 -0.04371699 -0.00926035
v 0.01396141 -0.04353876 0.01798125
v 0.01473267 -0.04329281 0.01254538
v 0.01473267 -0.04329103 0.01798125
v 0.01581586 -0.04290784 0.00793691
v 0.01390999 -0.04353520 -0.03587917
v 0.01210010 -0.04406810 -0.03587917
v 0.01254229 -0.04393799 -0.03587917
f 1 2 3
f 1 3 4
f 1 4 5
f 1 5 6
f 1 6 7
f 1 7 8
f 1 8 9
f 1 9 2
f 2 9 10
f 2 10 11
f 2 11 3
f 3 5 4
f 3 11 12
f 3 12 13
f 3 13 14
f 3 14 15
f 3 15 16
f 3 16 17
f 3 17 18
f 3 18 6
f 3 6 5
f 6 18 19
f 6 19 7
f 7 20 21
f 7 21 22
f 7 22 23
f 7 23 8
f 7 19 20
f 8 23 22
f 8 22 24
f 8 24 25
f 8 25 10
f 8 10 9
f 10 25 26
f 10 26 27
f 10 27 11
f 11 27 28
f 11 28 52
f 11 52 80
f 11 80 92
f 11 92 91
f 11 91 126
f 11 126 169
f 11 169 209
f 11 209 266
f 11 266 299
f 11 299 322
f 11 322 335
f 11 335 337
f 11 337 336
f 11 336 325
f 11 325 302
f 11 302 269
f 11 269 268
f 11 268 221
f 11 221 220
f 11 220 219
f 11 219 218
f 11 218 176
f 11 176 136
f 11 136 97
f 11 97 59
f 11 59 29
f 11 29 30
f 11 30 31
f 11 31 12
f 12 31 32
f 12 32 33
f 12 33 34
f 12 34 13
f 13 35 36
f 13 36 14
f 13 34 37
f 13 37 35
f 14 36 38
f 14 38 39
f 14 39 40
f 14 40 15
f 15 40 41
f 15 41 16
f 16 41 17
f 17 41 18
f 18 41 42
f 18 42 19
f 19 43 44
f 19 44 45
f 19 45 20
f 19 42 46
f 19 46 43
f 20 45 47
f 20 47 21
f 21 47 48
f 21 48 22
f 22 48 24
f 24 48 49
f 24 49 25
f 25 50 26
f 25 49 50
f 26 51 28
f 26 28 27
f 26 50 51
f 28 51 53
f 28 53 54
f 28 54 55
f 28 55 56
f 28 56 57
f 28 57 52
f 29 58 30
f 29 59 96
f 29 96 58
f 30 58 96
f 30 96 133
f 30 133 105
f 30 105 63
f 30 63 35
f 30 35 37
f 30 37 60
f 30 60 61
f 30 61 31
f 31 61 32
f 32 37 33
f 32 61 60
f 32 60 37
f 33 37 34
f 35 62 36
f 35 63 62
f 36 62 64
f 36 64 65
f 36 65 66
f 36 66 67
f 36 67 38
f 38 67 68
f 38 68 39
f 39 69 70
f 39 70 41
f 39 41 40
f 39 68 69
f 41 70 71
f 41 71 72
f 41 72 46
f 41 46 42
f 43 73 44
f 43 46 73
f 44 74 75
f 44 75 45
f 44 73 76
f 44 76 74
f 45 75 77
f 45 77 47
f 46 72 73
f 47 77 48
f 48 77 78
f 48 78 49
f 49 78 50
f 50 78 79
f 50 79 51
f 51 79 53
f 52 57 80
f 53 81 82
f 53 82 83
f 53 83 54
f 53 79 84
f 53 84 85
f 53 85 86
f 53 86 87
f 53 87 81
f 54 83 88
f 54 88 55
f 55 88 56
f 56 88 89
f 56 89 57
f 57 90 91
f 57 91 92
f 57 92 80
f 57 89 93
f 57 93 94
f 57 94 95
f 57 95 90
f 59 97 98
f 59 98 99
f 59 99 100
f 59 100 101
f 59 101 96
f 62 63 102
f 62 102 103
f 62 103 104
f 62 104 64
f 63 105 141
f 63 141 102
f 64 104 106
f 64 106 65
f 65 106 107
f 65 107 108
f 65 108 109
f 65 109 110
f 65 110 66
f 66 110 111
f 66 111 112
f 66 112 67
f 67 112 68
f 68 113 114
f 68 114 115
f 68 115 69
f 68 112 113
f 69 115 116
f 69 116 70
f 70 116 71
f 71 117 118
f 71 118 76
f 71 76 73
f 71 73 72
f 71 116 117
f 74 119 120
f 74 120 79
f 74 79 77
f 74 77 75
f 74 76 118
f 74 118 119
f 77 79 78
f 79 120 87
f 79 87 86
f 79 86 85
f 79 85 84
f 81 87 120
f 81 120 119
f 81 119 82
f 82 119 121
f 82 121 122
f 82 122 123
f 82 123 83
f 83 89 88
f 83 123 124
f 83 124 89
f 89 124 125
f 89 125 93
f 90 126 91
f 90 95 127
f 90 127 128
f 90 128 126
f 93 125 129
f 93 129 94
f 94 130 131
f 94 131 95
f 94 129 130
f 95 131 132
f 95 132 127
f 96 101 134
f 96 134 135
f 96 135 133
f 97 136 137
f 97 137 99
f 97 99 98
f 99 137 138
f 99 138 139
f 99 139 100
f 100 139 101
f 101 139 140
f 101 140 134
f 102 141 103
f 103 142 104
f 103 141 143
f 103 143 142
f 104 142 144
f 104 144 106
f 105 133 174
f 105 174 141
f 106 144 145
f 106 145 107
f 107 145 146
f 107 146 147
f 107 147 108
f 108 147 148
f 108 148 149
f 108 149 109
f 109 149 110
f 110 149 150
f 110 150 151
f 110 151 111
f 111 151 152
f 111 152 153
f 111 153 154
f 111 154 112
f 112 154 155
f 112 155 113
f 113 155 156
f 113 156 115
f 113 115 114
f 115 156 157
f 115 157 116
f 116 157 117
f 117 157 158
f 117 158 118
f 118 121 119
f 118 158 121
f 121 158 122
f 122 159 123
f 122 158 159
f 123 159 124
f 124 159 160
f 124 160 125
f 125 161 129
f 125 160 161
f 126 128 162
f 126 162 163
f 126 163 164
f 126 164 165
f 126 165 166
f 126 166 167
f 126 167 168
f 126 168 169
f 127 132 128
f 128 132 170
f 128 170 162
f 129 161 202
f 129 202 171
f 129 171 130
f 130 170 131
f 130 171 172
f 130 172 170
f 131 170 132
f 133 135 173
f 133 173 174
f 134 140 175
f 134 175 135
f 135 175 173
f 136 176 177
f 136 177 137
f 137 177 178
f 137 178 138
f 138 179 180
f 138 180 139
f 138 178 179
f 139 180 181
f 139 181 140
f 140 181 182
f 140 182 175
f 141 174 183
f 141 183 143
f 142 184 144
f 142 143 184
f 143 185 186
f 143 186 184
f 143 183 187
f 143 187 185
f 144 184 186
f 144 186 188
f 144 188 145
f 145 188 189
f 145 189 146
f 146 189 190
f 146 190 191
f 146 191 147
f 147 191 192
f 147 192 148
f 148 192 193
f 148 193 150
f 148 150 149
f 150 152 151
f 150 193 194
f 150 194 152
f 152 194 195
f 152 195 153
f 153 195 196
f 153 196 197
f 153 197 154
f 154 197 155
f 155 197 196
f 155 196 156
f 156 196 157
f 157 198 199
f 157 199 158
f 157 196 198
f 158 160 159
f 158 199 160
f 160 199 198
f 160 198 200
f 160 200 161
f 161 201 202
f 161 200 201
f 162 170 203
f 162 203 204
f 162 204 163
f 163 204 164
f 164 204 165
f 165 205 166
f 165 204 205
f 166 205 206
f 166 206 167
f 167 206 168
f 168 206 207
f 168 207 208
f 168 208 169
f 169 208 210
f 169 210 209
f 170 172 211
f 170 211 212
f 170 212 213
f 170 213 203
f 171 202 214
f 171 214 172
f 172 214 211
f 173 215 174
f 173 175 215
f 174 215 183
f 175 182 216
f 175 216 183
f 175 183 217
f 175 217 215
f 176 218 177
f 177 218 219
f 177 219 220
f 177 220 221
f 177 221 222
f 177 222 223
f 177 223 224
f 177 224 225
f 177 225 226
f 177 226 227
f 177 227 228
f 177 228 178
f 178 228 229
f 178 229 179
f 179 229 230
f 179 230 180
f 180 230 182
f 180 182 181
f 182 230 231
f 182 231 216
f 183 215 217
f 183 216 231
f 183 231 187
f 185 232 188
f 185 188 186
f 185 187 233
f 185 233 234
f 185 234 232
f 187 231 229
f 187 229 233
f 188 232 189
f 189 232 190
f 190 232 235
f 190 235 236
f 190 236 237
f 190 237 238
f 190 238 239
f 190 239 191
f 191 239 240
f 191 240 192
f 192 240 241
f 192 241 242
f 192 242 193
f 193 242 243
f 193 243 194
f 194 243 244
f 194 244 195
f 195 244 245
f 195 245 246
f 195 246 196
f 196 246 198
f 198 246 247
f 198 247 248
f 198 248 249
f 198 249 200
f 200 249 201
f 201 250 214
f 201 214 202
f 201 249 251
f 201 251 250
f 203 213 252
f 203 252 204
f 204 252 253
f 204 253 254
f 204 254 205
f 205 254 255
f 205 255 206
f 206 256 257
f 206 257 207
f 206 255 258
f 206 258 259
f 206 259 256
f 207 260 261
f 207 261 209
f 207 209 210
f 207 210 208
f 207 257 256
f 207 256 262
f 207 262 263
f 207 263 264
f 207 264 265
f 207 265 260
f 209 261 266
f 211 214 212
f 212 214 250
f 212 250 267
f 212 267 213
f 213 267 252
f 221 268 222
f 222 268 269
f 222 269 223
f 223 269 270
f 223 270 271
f 223 271 272
f 223 272 273
f 223 273 224
f 224 273 225
f 225 274 228
f 225 228 226
f 225 273 275
f 225 275 276
f 225 276 274
f 226 228 227
f 228 274 229
f 229 276 234
f 229 234 233
f 229 231 230
f 229 274 276
f 232 234 235
f 234 275 235
f 234 276 275
f 235 275 236
f 236 275 237
f 237 275 277
f 237 277 278
f 237 278 238
f 238 278 279
f 238 279 280
f 238 280 281
f 238 281 282
f 238 282 239
f 239 282 283
f 239 283 240
f 240 283 284
f 240 284 285
f 240 285 286
f 240 286 287
f 240 287 241
f 241 287 288
f 241 288 289
f 241 289 242
f 242 289 243
f 243 289 244
f 244 289 290
f 244 290 291
f 244 291 292
f 244 292 245
f 245 248 246
f 245 292 253
f 245 253 248
f 246 248 247
f 248 293 251
f 248 251 249
f 248 253 294
f 248 294 293
f 250 251 293
f 250 293 267
f 252 267 294
f 252 294 253
f 253 292 254
f 254 292 255
f 255 292 295
f 255 295 258
f 256 259 262
f 258 295 296
f 258 296 290
f 258 290 289
f 258 289 259
f 259 289 262
f 260 297 261
f 260 265 298
f 260 298 297
f 261 297 299
f 261 299 266
f 262 289 263
f 263 289 300
f 263 300 264
f 264 300 301
f 264 301 298
f 264 298 265
f 267 293 294
f 269 302 270
f 270 302 303
f 270 303 304
f 270 304 271
f 271 304 305
f 271 305 272
f 272 305 306
f 272 306 307
f 272 307 273
f 273 307 308
f 273 308 278
f 273 278 277
f 273 277 275
f 278 308 306
f 278 306 279
f 279 306 305
f 279 305 280
f 280 305 304
f 280 304 309
f 280 309 310
f 280 310 281
f 281 310 311
f 281 311 282
f 282 311 312
f 282 312 313
f 282 313 283
f 283 313 314
f 283 314 315
f 283 315 316
f 283 316 317
f 283 317 284
f 284 317 285
f 285 317 286
f 286 317 318
f 286 318 319
f 286 319 287
f 287 319 320
f 287 320 288
f 288 320 321
f 288 321 289
f 289 321 300
f 290 296 291
f 291 296 295
f 291 295 292
f 297 298 299
f 298 301 299
f 299 301 323
f 299 323 322
f 300 324 301
f 300 321 320
f 300 320 324
f 301 324 334
f 301 334 323
f 302 325 326
f 302 326 303
f 303 326 327
f 303 327 304
f 304 327 309
f 306 308 307
f 309 327 326
f 309 326 315
f 309 315 311
f 309 311 310
f 311 315 312
f 312 314 313
f 312 315 314
f 315 326 328
f 315 328 329
f 315 329 316
f 316 329 330
f 316 330 317
f 317 331 332
f 317 332 333
f 317 333 318
f 317 330 331
f 318 333 319
f 319 333 332
f 319 332 334
f 319 334 320
f 320 334 324
f 322 330 335
f 322 323 332
f 322 332 330
f 323 334 332
f 325 336 330
f 325 330 326
f 326 330 329
f 326 329 328
f 330 336 337
f 330 337 335
f 330 332 331

