# https://github.com/mikedh/trimesh
v -0.01881900 -0.04108654 -0.03561751
v -0.01859048 -0.04148764 -0.03500585
v -0.01881900 -0.04121364 -0.03522056
v -0.01881900 -0.03507431 -0.03561751
v -0.01796022 -0.04174600 -0.03561751
v -0.01802656 -0.04176475 -0.03539652
v -0.01872317 -0.04156473 -0.03434706
v -0.01881900 -0.04147722 -0.03434706
v -0.01881900 -0.03631197 -0.02491871
v 0.00000786 -0.04088652 -0.02491871
v 0.00000786 -0.03982492 -0.03561751
v -0.01693926 -0.04239192 -0.03561751
v -0.01799155 -0.04194707 -0.03434706
v -0.01879873 -0.04161369 -0.03325676
v -0.01881900 -0.04159702 -0.03325676
v -0.01881900 -0.04149909 -0.03418053
v -0.01881900 -0.04163974 -0.02491871
v 0.00000786 -0.04571526 -0.02491871
v 0.00000786 -0.04526624 -0.03561751
v -0.01648407 -0.04257527 -0.03561751
v -0.01799155 -0.04198874 -0.03325676
v -0.01881900 -0.04163974 -0.02556284
v -0.01881900 -0.04163453 -0.02661962
v -0.01831037 -0.04186789 -0.02491871
v 0.00000786 -0.04571630 -0.02780524
v -0.00054684 -0.04571526 -0.02491871
v 0.00000786 -0.04571318 -0.02889659
v -0.00272697 -0.04555690 -0.03325676
v -0.00272697 -0.04547460 -0.03434706
v -0.00381796 -0.04541626 -0.03543737
v -0.00399671 -0.04540376 -0.03561751
v -0.01580958 -0.04281489 -0.03561751
v -0.01471859 -0.04326182 -0.02889659
v -0.01649144 -0.04258048 -0.03107615
v -0.01799155 -0.04200645 -0.02491871
v -0.00054684 -0.04571526 -0.02780524
v -0.00054684 -0.04571318 -0.02889659
v -0.00163599 -0.04566629 -0.02491871
v -0.00381796 -0.04550690 -0.03434706
v -0.00490710 -0.04538605 -0.03561751
v -0.01397223 -0.04345143 -0.03561751
v -0.01328852 -0.04368479 -0.03561751
v -0.01390404 -0.04353477 -0.02889659
v -0.01390404 -0.04353060 -0.02780524
v -0.01719174 -0.04229295 -0.02491871
v -0.00163599 -0.04566629 -0.02671493
v -0.00272697 -0.04561524 -0.02562463
v -0.00381796 -0.04551419 -0.03325676
v -0.00272697 -0.04561420 -0.02491871
v -0.00490710 -0.04539543 -0.03543737
v -0.00508770 -0.04537563 -0.03561751
v -0.01266931 -0.04388794 -0.03561751
v -0.01335855 -0.04369729 -0.02889659
v -0.01335855 -0.04369729 -0.02780524
v -0.01162808 -0.04420569 -0.03561751
v -0.01253847 -0.04394107 -0.02671493
v -0.01330879 -0.04369729 -0.02671493
v -0.01144748 -0.04424320 -0.02491871
v -0.00381796 -0.04553398 -0.02491871
v -0.00599808 -0.04528083 -0.02998689
v -0.00708907 -0.04515685 -0.02889659
v -0.00599808 -0.04524332 -0.03561751
v -0.01253847 -0.04394003 -0.02889659
v -0.01144748 -0.04425882 -0.03561751
v -0.01144748 -0.04426091 -0.02562463
v -0.01074166 -0.04442343 -0.02491871
v -0.01035834 -0.04451719 -0.02491871
v -0.00909596 -0.04477868 -0.02671493
v -0.00817821 -0.04495891 -0.02780524
v -0.00817821 -0.04495891 -0.02889659
v -0.00952167 -0.04468804 -0.03561751
v -0.00906832 -0.04476722 -0.03561751
v -0.00817821 -0.04491203 -0.03561751
v -0.00708907 -0.04507872 -0.03561751
v -0.00617684 -0.04521728 -0.03561751
v -0.01053710 -0.04448177 -0.03561751
v -0.01035834 -0.04452761 -0.02780524
v -0.01035834 -0.04452761 -0.02562463
v -0.00909228 -0.04477868 -0.02998689
v -0.00963961 -0.04467137 -0.02671493
v -0.00973176 -0.04464741 -0.03561751
v -0.01035834 -0.04452552 -0.03561751
v -0.00963593 -0.04467137 -0.02889659
f 1 2 3
f 1 3 8
f 1 8 16
f 1 16 15
f 1 15 23
f 1 23 22
f 1 22 17
f 1 17 9
f 1 9 4
f 1 4 11
f 1 11 19
f 1 19 31
f 1 31 40
f 1 40 51
f 1 51 62
f 1 62 75
f 1 75 74
f 1 74 73
f 1 73 72
f 1 72 71
f 1 71 81
f 1 81 82
f 1 82 76
f 1 76 64
f 1 64 55
f 1 55 52
f 1 52 42
f 1 42 41
f 1 41 32
f 1 32 20
f 1 20 12
f 1 12 5
f 1 5 2
f 2 6 7
f 2 7 8
f 2 8 3
f 2 5 6
f 4 9 10
f 4 10 11
f 5 12 6
f 6 12 7
f 7 12 13
f 7 13 14
f 7 14 15
f 7 15 16
f 7 16 8
f 9 17 24
f 9 24 35
f 9 35 45
f 9 45 58
f 9 58 66
f 9 66 67
f 9 67 59
f 9 59 49
f 9 49 38
f 9 38 26
f 9 26 18
f 9 18 10
f 10 18 25
f 10 25 27
f 10 27 19
f 10 19 11
f 12 20 21
f 12 21 14
f 12 14 13
f 14 22 23
f 14 23 15
f 14 21 22
f 17 22 24
f 18 26 25
f 19 27 28
f 19 28 29
f 19 29 30
f 19 30 31
f 20 32 33
f 20 33 34
f 20 34 35
f 20 35 21
f 21 35 24
f 21 24 22
f 25 26 36
f 25 36 37
f 25 37 27
f 26 38 46
f 26 46 36
f 27 37 28
f 28 39 29
f 28 37 39
f 29 39 30
f 30 39 31
f 31 39 40
f 32 41 33
f 33 41 42
f 33 42 43
f 33 43 44
f 33 44 45
f 33 45 35
f 33 35 34
f 36 46 37
f 37 46 47
f 37 47 48
f 37 48 39
f 38 49 47
f 38 47 46
f 39 48 50
f 39 50 40
f 40 50 51
f 42 52 43
f 43 53 54
f 43 54 44
f 43 52 55
f 43 55 53
f 44 54 56
f 44 56 57
f 44 57 45
f 45 57 58
f 47 49 59
f 47 59 48
f 48 59 50
f 50 59 51
f 51 59 60
f 51 60 61
f 51 61 62
f 53 55 63
f 53 63 56
f 53 56 54
f 55 64 56
f 55 56 63
f 56 64 65
f 56 65 57
f 57 65 58
f 58 65 66
f 59 67 68
f 59 68 69
f 59 69 61
f 59 61 60
f 61 69 70
f 61 70 71
f 61 71 72
f 61 72 73
f 61 73 74
f 61 74 75
f 61 75 62
f 64 76 77
f 64 77 65
f 65 77 78
f 65 78 66
f 66 78 67
f 67 78 68
f 68 79 70
f 68 70 69
f 68 78 80
f 68 80 79
f 70 81 71
f 70 79 82
f 70 82 81
f 76 82 77
f 77 80 78
f 77 82 80
f 79 80 83
f 79 83 82
f 80 82 83

