# https://github.com/mikedh/trimesh
v -0.04297903 -0.01552997 -0.03522714
v -0.04284896 -0.01581111 -0.02491766
v -0.04292464 -0.01552997 -0.02562508
v -0.03696031 -0.01552997 -0.03522714
v -0.04289153 -0.01581111 -0.03522714
v -0.04290809 -0.01552997 -0.02491766
v -0.04261484 -0.01656764 -0.03434716
v -0.04258646 -0.01650886 -0.02491766
v -0.01881900 -0.03526864 -0.03522714
v -0.03789445 -0.01552997 -0.02491766
v -0.04261484 -0.01657020 -0.03522714
v -0.04238071 -0.01711459 -0.03434716
v -0.04238071 -0.01710692 -0.03325626
v -0.04233577 -0.01705325 -0.02491766
v -0.04136379 -0.01945828 -0.02998662
v -0.04135906 -0.01943528 -0.02889573
v -0.04134014 -0.01943017 -0.02780585
v -0.04158846 -0.01882444 -0.02671496
v -0.01881900 -0.03631142 -0.02491766
v -0.01881900 -0.04121094 -0.03522714
v -0.04256990 -0.01667499 -0.03522714
v -0.04238071 -0.01711459 -0.03522714
v -0.04136379 -0.01946595 -0.03107549
v -0.04199759 -0.01799379 -0.03216639
v -0.03970125 -0.02263518 -0.02491766
v -0.04102088 -0.02017391 -0.02998662
v -0.01881900 -0.04163776 -0.02491766
v -0.01881900 -0.04121350 -0.03522108
v -0.02499381 -0.03824618 -0.03522714
v -0.04136379 -0.01946595 -0.03522714
v -0.03985497 -0.02235404 -0.03325626
v -0.03940564 -0.02315912 -0.03325626
v -0.03941037 -0.02315401 -0.02562508
v -0.03940564 -0.02315145 -0.02491766
v -0.04054553 -0.02109146 -0.03107549
v -0.04102088 -0.02017391 -0.03522714
v -0.01889941 -0.04160198 -0.02491766
v -0.01881900 -0.04164032 -0.02552921
v -0.01881900 -0.04147675 -0.03434716
v -0.01881900 -0.04149719 -0.03418065
v -0.01881900 -0.04159687 -0.03325626
v -0.02453501 -0.03853243 -0.03434716
v -0.02453501 -0.03855544 -0.03325626
v -0.02510496 -0.03817717 -0.03522714
v -0.03985261 -0.02235404 -0.03434716
v -0.04048877 -0.02119369 -0.03522714
v -0.04024755 -0.02163329 -0.03522714
v -0.03907218 -0.02369840 -0.02562508
v -0.03940327 -0.02312334 -0.03434716
v -0.03783060 -0.02566383 -0.02889573
v -0.03818534 -0.02511944 -0.02889573
v -0.03818771 -0.02511944 -0.02780585
v -0.03907218 -0.02369585 -0.02491766
v -0.03919043 -0.02350416 -0.02491766
v -0.04063776 -0.02091255 -0.03522714
v -0.04054553 -0.02108890 -0.03522714
v -0.01925415 -0.04143841 -0.02491766
v -0.01889941 -0.04159943 -0.02671496
v -0.01944570 -0.04134895 -0.02671496
v -0.02017410 -0.04100903 -0.02780585
v -0.02111534 -0.04054898 -0.02889573
v -0.02108460 -0.04052854 -0.02998662
v -0.02165927 -0.04026017 -0.02889573
v -0.02369074 -0.03907682 -0.02562508
v -0.02369074 -0.03907682 -0.02491766
v -0.02486610 -0.03834586 -0.02491766
v -0.02511442 -0.03818739 -0.02491766
v -0.02510496 -0.03817973 -0.03434716
v -0.02235456 -0.03985891 -0.02780585
v -0.02314444 -0.03939630 -0.02671496
v -0.02564889 -0.03781680 -0.03522714
v -0.03939145 -0.02294699 -0.03522714
v -0.03935124 -0.02301855 -0.03518677
v -0.03818771 -0.02511944 -0.02562508
v -0.03842183 -0.02474118 -0.02491766
v -0.03592684 -0.02822222 -0.03325626
v -0.03497614 -0.02936979 -0.03522714
v -0.03783060 -0.02566383 -0.02491766
v -0.03728667 -0.02645103 -0.02889573
v -0.03728667 -0.02645614 -0.02780585
v -0.02017410 -0.04100903 -0.02491766
v -0.02111534 -0.04054898 -0.02780585
v -0.02165927 -0.04026273 -0.02780585
v -0.02235456 -0.03986146 -0.02671496
v -0.02263362 -0.03969789 -0.02491766
v -0.02771583 -0.03632164 -0.02780585
v -0.02771583 -0.03634720 -0.02889573
v -0.02701109 -0.03689415 -0.02998662
v -0.02646715 -0.03726985 -0.02998662
v -0.02646715 -0.03726985 -0.03522714
v -0.02630871 -0.03737720 -0.03522714
v -0.02565126 -0.03781680 -0.03434716
v -0.02947297 -0.03491593 -0.02491766
v -0.03795594 -0.02547215 -0.02491766
v -0.03818534 -0.02511944 -0.02491766
v -0.03514878 -0.02920621 -0.02491766
v -0.03591265 -0.02826056 -0.02562508
v -0.03687281 -0.02700053 -0.02780585
v -0.03490519 -0.02945669 -0.03522714
v -0.03492648 -0.02947969 -0.02491766
v -0.03728667 -0.02645614 -0.02671496
v -0.03763904 -0.02594242 -0.02491766
v -0.03701943 -0.02680885 -0.02491766
v -0.02111297 -0.04054898 -0.02491766
v -0.02165927 -0.04026273 -0.02671496
v -0.02165927 -0.04026017 -0.02491766
v -0.02825977 -0.03590760 -0.02780585
v -0.02771583 -0.03634975 -0.03522714
v -0.02948243 -0.03492360 -0.02562508
v -0.02701109 -0.03689415 -0.03522714
v -0.02657121 -0.03719829 -0.03522714
v -0.02982534 -0.03462713 -0.02491766
v -0.03591265 -0.02826056 -0.02491766
v -0.03605928 -0.02806887 -0.02491766
v -0.03632888 -0.02771617 -0.02562508
v -0.03398051 -0.03045346 -0.03522714
v -0.03285954 -0.03176971 -0.02889573
v -0.03389301 -0.03063236 -0.02998662
v -0.03285244 -0.03176971 -0.02780585
v -0.03065543 -0.03391916 -0.02491766
v -0.03728430 -0.02645359 -0.02491766
v -0.03632888 -0.02771617 -0.02491766
v -0.02948243 -0.03492360 -0.02889573
v -0.02948007 -0.03492360 -0.03522714
v -0.03001690 -0.03446611 -0.02491766
v -0.03002873 -0.03446355 -0.02562508
v -0.03228250 -0.03225787 -0.03522714
v -0.03173856 -0.03283293 -0.03522714
v -0.03163687 -0.03293772 -0.03522714
v -0.03119700 -0.03337733 -0.03522714
v -0.03065543 -0.03391661 -0.03522714
v -0.03230615 -0.03231410 -0.02889573
v -0.03230615 -0.03231666 -0.02780585
v -0.03175985 -0.03284827 -0.02671496
v -0.03120173 -0.03339266 -0.02671496
v -0.03065780 -0.03391916 -0.02562508
v -0.03002636 -0.03446355 -0.03522714
v -0.02958649 -0.03483415 -0.03522714
v -0.03065780 -0.03391916 -0.02998662
v -0.03053482 -0.03402395 -0.03522714
v -0.03119936 -0.03339266 -0.02998662
f 1 2 3
f 1 3 6
f 1 6 10
f 1 10 4
f 1 4 9
f 1 9 20
f 1 20 29
f 1 29 44
f 1 44 71
f 1 71 91
f 1 91 90
f 1 90 111
f 1 111 110
f 1 110 108
f 1 108 124
f 1 124 138
f 1 138 137
f 1 137 140
f 1 140 131
f 1 131 130
f 1 130 129
f 1 129 128
f 1 128 127
f 1 127 116
f 1 116 99
f 1 99 77
f 1 77 72
f 1 72 47
f 1 47 46
f 1 46 56
f 1 56 55
f 1 55 36
f 1 36 30
f 1 30 22
f 1 22 21
f 1 21 11
f 1 11 5
f 1 5 2
f 2 6 3
f 2 5 7
f 2 7 8
f 2 8 14
f 2 14 25
f 2 25 34
f 2 34 54
f 2 54 53
f 2 53 75
f 2 75 95
f 2 95 94
f 2 94 78
f 2 78 102
f 2 102 121
f 2 121 103
f 2 103 122
f 2 122 114
f 2 114 113
f 2 113 96
f 2 96 100
f 2 100 120
f 2 120 125
f 2 125 112
f 2 112 93
f 2 93 67
f 2 67 66
f 2 66 65
f 2 65 85
f 2 85 106
f 2 106 104
f 2 104 81
f 2 81 57
f 2 57 37
f 2 37 27
f 2 27 19
f 2 19 10
f 2 10 6
f 4 10 9
f 5 11 7
f 7 11 12
f 7 12 13
f 7 13 8
f 8 13 15
f 8 15 16
f 8 16 17
f 8 17 18
f 8 18 14
f 9 19 27
f 9 27 38
f 9 38 41
f 9 41 40
f 9 40 39
f 9 39 28
f 9 28 20
f 9 10 19
f 11 21 12
f 12 21 22
f 12 22 30
f 12 30 23
f 12 23 24
f 12 24 13
f 13 24 15
f 14 18 25
f 15 24 23
f 15 23 26
f 15 26 16
f 16 26 17
f 17 26 25
f 17 25 18
f 20 28 29
f 23 30 36
f 23 36 26
f 25 31 32
f 25 32 33
f 25 33 34
f 25 26 35
f 25 35 31
f 26 36 35
f 27 37 38
f 28 39 29
f 29 39 40
f 29 40 41
f 29 41 42
f 29 42 43
f 29 43 44
f 31 45 32
f 31 35 46
f 31 46 47
f 31 47 45
f 32 48 33
f 32 45 49
f 32 49 50
f 32 50 51
f 32 51 52
f 32 52 48
f 33 48 53
f 33 53 54
f 33 54 34
f 35 36 55
f 35 55 56
f 35 56 46
f 37 57 38
f 38 58 41
f 38 57 59
f 38 59 58
f 41 58 60
f 41 60 61
f 41 61 62
f 41 62 42
f 42 63 43
f 42 62 63
f 43 64 65
f 43 65 66
f 43 66 67
f 43 67 68
f 43 68 44
f 43 63 69
f 43 69 70
f 43 70 64
f 44 68 71
f 45 47 49
f 47 72 73
f 47 73 49
f 48 52 74
f 48 74 75
f 48 75 53
f 49 76 50
f 49 73 77
f 49 77 76
f 50 78 74
f 50 74 52
f 50 52 51
f 50 76 79
f 50 79 80
f 50 80 101
f 50 101 78
f 57 60 59
f 57 81 60
f 58 59 60
f 60 81 82
f 60 82 61
f 61 82 105
f 61 105 83
f 61 83 63
f 61 63 62
f 63 83 69
f 64 70 84
f 64 84 85
f 64 85 65
f 67 86 87
f 67 87 88
f 67 88 89
f 67 89 90
f 67 90 91
f 67 91 92
f 67 92 68
f 67 93 86
f 68 92 71
f 69 83 84
f 69 84 70
f 71 92 91
f 72 77 73
f 74 78 94
f 74 94 95
f 74 95 75
f 76 96 97
f 76 97 98
f 76 98 80
f 76 80 79
f 76 77 99
f 76 99 100
f 76 100 96
f 78 101 102
f 80 98 103
f 80 103 101
f 81 104 82
f 82 104 105
f 83 105 84
f 84 105 85
f 85 105 106
f 86 107 87
f 86 93 107
f 87 108 88
f 87 107 109
f 87 109 108
f 88 108 110
f 88 110 111
f 88 111 89
f 89 111 90
f 93 112 109
f 93 109 107
f 96 113 97
f 97 113 114
f 97 114 115
f 97 115 98
f 98 115 103
f 99 116 117
f 99 117 118
f 99 118 100
f 100 118 117
f 100 117 119
f 100 119 120
f 101 121 102
f 101 103 121
f 103 115 122
f 104 106 105
f 108 109 123
f 108 123 124
f 109 112 125
f 109 125 126
f 109 126 123
f 114 122 115
f 116 127 117
f 117 127 128
f 117 128 129
f 117 129 130
f 117 130 131
f 117 131 132
f 117 132 133
f 117 133 119
f 119 133 134
f 119 134 120
f 120 134 135
f 120 135 136
f 120 136 126
f 120 126 125
f 123 126 137
f 123 137 138
f 123 138 124
f 126 136 139
f 126 139 137
f 131 140 139
f 131 139 141
f 131 141 133
f 131 133 132
f 133 141 135
f 133 135 134
f 135 141 139
f 135 139 136
f 137 139 140

