# https://github.com/mikedh/trimesh
v 0.04260365 -0.00002141 0.02568326
v 0.04572180 -0.00002141 0.02568326
v 0.04269636 -0.00002141 0.02860978
v 0.03961209 -0.00000795 -0.03586257
v 0.04078518 -0.00001132 -0.02490370
v 0.04571823 0.00001223 0.05287586
v 0.04572001 -0.00002141 0.02727550
v 0.04541515 -0.00001132 -0.02490370
v 0.04550073 -0.00001132 -0.02452120
v 0.04563266 -0.00001132 -0.02343599
v 0.04565761 -0.00000795 -0.03586257
v 0.04570040 -0.00001132 -0.00979966
v 0.04572001 -0.00001132 -0.00054866
v 0.04572536 -0.00001132 0.00751928
v 0.04572893 -0.00000122 0.01144206
v 0.04571645 -0.00002141 0.02860978
v 0.04415648 0.00001223 0.05497513
v 0.04326151 0.00001223 0.05473496
v 0.04281402 0.00001223 0.05396108
v 0.04271419 0.00001223 0.05287586
v 0.02751748 0.02850390 -0.03586257
v 0.04573071 0.00055374 0.01035685
v 0.04571645 0.00055374 0.05287586
v 0.04563444 0.00055374 0.05396108
v 0.04563444 0.00001223 0.05396108
v 0.04565227 0.00021067 -0.03586257
v 0.04567901 0.00164350 -0.02888874
v 0.04567544 0.00055038 -0.02997395
v 0.04572180 0.00054702 0.00054545
v 0.04572536 0.00054702 0.00381888
v 0.04572893 -0.00000122 0.00928053
v 0.04512634 0.00001223 0.05475275
v 0.04415648 0.00600587 0.05497513
v 0.03435457 0.02779758 0.05501071
v 0.03217062 0.02997709 0.05498402
v 0.03108667 0.03029661 0.05481502
v 0.03048586 0.03029661 0.05463712
v 0.03031828 0.03029661 0.05430799
v 0.03018992 0.03029661 0.05396108
v 0.03011147 0.03029661 0.05287586
v 0.02996885 0.03375759 0.00792846
v 0.03572377 0.02850390 -0.03586257
v 0.02940013 0.03099285 0.03740712
v 0.03018992 0.03432938 0.04034254
v 0.03018992 0.03433947 0.03954197
v 0.04570040 0.00164013 0.01253617
v 0.04572893 0.00055374 0.00792846
v 0.04569149 0.00164013 -0.01144527
v 0.04568436 0.00133742 0.05209309
v 0.04562553 0.00273325 0.05287586
v 0.04553104 0.00273325 0.05396108
v 0.04502828 0.00382300 0.05472607
v 0.04506928 0.00273325 0.05473496
v 0.04512634 0.00055374 0.05475275
v 0.04564335 0.00055038 -0.03586257
v 0.04561126 0.00164350 -0.03586257
v 0.04557560 0.00272989 -0.03586257
v 0.04552390 0.00382300 -0.03586257
v 0.04561483 0.00272989 -0.02888874
v 0.04563800 0.00272652 -0.01035116
v 0.04306540 0.01145801 0.05497513
v 0.04088502 0.01690004 0.05498402
v 0.03870464 0.02124897 0.05499292
v 0.04415648 0.00709563 0.05495734
v 0.03761712 0.02343857 0.05499292
v 0.03544387 0.02670783 0.05499292
v 0.03326349 0.02997709 0.05491286
v 0.03217062 0.03029661 0.05496623
v 0.03214566 0.03232477 0.00792846
v 0.03018992 0.03432938 0.03740712
v 0.03519606 0.02918668 -0.01144527
v 0.03593236 0.02827855 -0.01035116
v 0.03591810 0.02825501 -0.03586257
v 0.03288018 0.03178325 0.00792846
v 0.03354517 0.03108030 0.00792846
v 0.03393026 0.03066323 0.00792846
v 0.03035215 0.03419147 0.04034254
v 0.03324031 0.03029661 0.05483281
v 0.03397305 0.03029661 0.05459264
v 0.03418342 0.03029661 0.05400556
v 0.03066236 0.03391904 0.03979104
v 0.03066414 0.03391904 0.03870582
v 0.03066058 0.03391904 0.03740712
v 0.04563979 0.00273325 0.01798892
v 0.04555421 0.00382300 0.05287586
v 0.04559878 0.00318395 0.04914878
v 0.04545259 0.00382300 0.05396108
v 0.04486961 0.00709563 0.05466380
v 0.04492131 0.00600587 0.05469048
v 0.04545081 0.00491276 -0.03586257
v 0.04555065 0.00381964 -0.01253938
v 0.04555956 0.00382300 0.02780032
v 0.04197254 0.01472727 0.05497513
v 0.04415648 0.00818538 0.05488618
v 0.04306540 0.01254440 0.05490397
v 0.04088502 0.01798307 0.05494845
v 0.03979394 0.02016258 0.05495734
v 0.03870464 0.02234209 0.05493065
v 0.03653317 0.02561807 0.05494845
v 0.03549022 0.02784467 0.05477944
v 0.03411211 0.02997709 0.05465490
v 0.03447759 0.03004772 0.00792846
v 0.03495181 0.02949948 0.00928053
v 0.03634954 0.02772022 -0.01144527
v 0.03728374 0.02644884 -0.03586257
v 0.03633349 0.02771349 -0.03586257
v 0.03544744 0.02888733 0.01580960
v 0.03593949 0.02827519 0.01689481
v 0.03689508 0.02700045 0.02780032
v 0.03288018 0.03178325 0.00818642
v 0.03342929 0.03121147 0.01035685
v 0.03393026 0.03066323 0.00928053
v 0.03093870 0.03365333 0.04034254
v 0.03423512 0.03029661 0.05287586
v 0.03617304 0.02750832 0.05462821
v 0.03489120 0.02942549 0.05446810
v 0.03453107 0.02988964 0.05405003
v 0.03492151 0.02946248 0.05374759
v 0.04543655 0.00491276 0.05287586
v 0.04534206 0.00491276 0.05396108
v 0.04545972 0.00485558 0.02568326
v 0.04543833 0.00491948 0.05209309
v 0.04479117 0.00818538 0.05460153
v 0.04532066 0.00600251 -0.03586257
v 0.04545259 0.00491276 -0.02779463
v 0.04197254 0.01581366 0.05489507
v 0.04384984 0.01145801 0.05469048
v 0.04372504 0.01254440 0.05461043
v 0.04281581 0.01472727 0.05470827
v 0.04165163 0.01798307 0.05467269
v 0.04092424 0.01907955 0.05476164
v 0.03983494 0.02126915 0.05476164
v 0.03870999 0.02340493 0.05472607
v 0.03771874 0.02462586 0.05479723
v 0.03741210 0.02561807 0.05469048
v 0.03653317 0.02668765 0.05473496
v 0.03447759 0.03004772 0.00928053
v 0.03495181 0.02949948 0.01035685
v 0.03783106 0.02566180 -0.03586257
v 0.03728552 0.02644884 -0.02670942
v 0.03494825 0.02949612 0.01979465
v 0.03592701 0.02826846 0.05209309
v 0.03635489 0.02772022 0.05287586
v 0.03650999 0.02751505 0.05209309
v 0.03689508 0.02699708 0.05287586
v 0.03728908 0.02645557 0.02568326
v 0.03176058 0.03284610 0.04034254
v 0.03431892 0.03021926 0.02568326
v 0.03493399 0.02947930 0.05287586
v 0.03717142 0.02630421 0.05459264
v 0.03814840 0.02505974 0.05443252
v 0.03684873 0.02696009 0.05396108
v 0.03630854 0.02767650 0.05396108
v 0.03592523 0.02826846 0.05287586
v 0.04530462 0.00600587 0.05287586
v 0.04509959 0.00709563 0.05396108
v 0.04533136 0.00594870 0.02568326
v 0.04472877 0.00888161 0.05454816
v 0.04506928 0.00751942 -0.03586257
v 0.04498371 0.00818202 -0.01035116
v 0.04515664 0.00708890 -0.01253938
v 0.04532244 0.00600251 -0.02779463
v 0.04264287 0.01581366 0.05461043
v 0.04364660 0.01321372 0.05454816
v 0.04254482 0.01642916 0.05453926
v 0.04151435 0.01871966 0.05459264
v 0.04044110 0.02091599 0.05460153
v 0.04060334 0.02016258 0.05468159
v 0.03948551 0.02234209 0.05466380
v 0.03931971 0.02301477 0.05457485
v 0.03834986 0.02432988 0.05463712
v 0.03819475 0.02512365 -0.01362459
v 0.03818406 0.02511019 -0.03586257
v 0.03783106 0.02567189 0.02568326
v 0.03727482 0.02645221 0.05287586
v 0.03743349 0.02622686 0.05209309
v 0.03724808 0.02641521 0.05396108
v 0.03937498 0.02311568 0.05396108
v 0.03817871 0.02509674 0.05370312
v 0.04516199 0.00709563 0.05287586
v 0.04532423 0.00600587 0.02568326
v 0.04492844 0.00818538 0.05396108
v 0.04532423 0.00600587 0.02452689
v 0.04476443 0.00903633 0.05396108
v 0.04417431 0.01145801 0.05396108
v 0.04495697 0.00818202 -0.03586257
v 0.04498371 0.00818202 -0.00926595
v 0.04516377 0.00709563 0.02671510
v 0.04478404 0.00917087 -0.03586257
v 0.04472342 0.00950385 -0.03586257
v 0.04468420 0.00971574 -0.03586257
v 0.04479830 0.00918769 0.01253617
v 0.04389263 0.01254440 0.05396108
v 0.04367869 0.01333817 0.05396108
v 0.04349506 0.01387968 0.05396108
v 0.04257869 0.01650989 0.05396108
v 0.04158388 0.01886093 0.05396108
v 0.04051954 0.02106398 0.05396108
v 0.03908794 0.02371437 -0.01035116
v 0.03819475 0.02512701 0.02671510
v 0.03857449 0.02453168 0.02860978
v 0.03853705 0.02452832 -0.03586257
v 0.03940528 0.02314931 -0.02888874
v 0.03819119 0.02511356 0.05287586
v 0.04026103 0.02164922 0.05287586
v 0.03986525 0.02234209 0.05287586
v 0.03908616 0.02369419 0.05287586
v 0.03856736 0.02452159 0.05287586
v 0.04497123 0.00818538 0.05287586
v 0.04516199 0.00709899 0.05209309
v 0.04516377 0.00709563 0.02860978
v 0.04478047 0.00911705 0.05287586
v 0.04452374 0.01036489 0.05287586
v 0.04425632 0.01145801 0.05287586
v 0.04498193 0.00818202 0.01798892
v 0.04462180 0.00996800 -0.03586257
v 0.04427237 0.01145801 0.00928053
v 0.04454157 0.01036489 0.00792846
v 0.04468420 0.00972247 -0.02888874
v 0.04468420 0.00973256 0.01144206
v 0.04468420 0.00973256 0.01253617
v 0.04468420 0.00972583 0.01908303
v 0.04479652 0.00917759 0.01798892
v 0.04497123 0.00818874 0.05209309
v 0.04354141 0.01394358 0.05287586
v 0.04327934 0.01472727 0.05287586
v 0.04287821 0.01581366 0.05287586
v 0.04238793 0.01710185 0.05287586
v 0.04202246 0.01798307 0.05287586
v 0.04160884 0.01890129 0.05287586
v 0.04135033 0.01945289 0.05287586
v 0.04101160 0.02016258 0.05287586
v 0.04054807 0.02110434 0.05287586
v 0.03941242 0.02316276 -0.01144527
v 0.03908260 0.02371773 0.01798892
v 0.03941598 0.02317622 0.01689481
v 0.03871533 0.02428952 0.05209309
v 0.03905764 0.02364374 -0.03586257
v 0.03984385 0.02234881 -0.02888874
v 0.03983851 0.02234881 -0.02997395
v 0.04022003 0.02158531 -0.03586257
v 0.04005958 0.02187457 -0.03586257
v 0.03918065 0.02343184 -0.03586257
v 0.03987773 0.02234881 -0.01144527
v 0.04054807 0.02110771 0.05209309
v 0.04053916 0.02115143 0.02568326
v 0.04027173 0.02166603 0.01580960
v 0.03989199 0.02234545 0.01798892
v 0.03930901 0.02331076 0.05209309
v 0.04475016 0.00927177 0.05209309
v 0.04425632 0.01146473 0.05209309
v 0.04454157 0.01036489 0.01144206
v 0.04452374 0.01036152 -0.03586257
v 0.04427237 0.01145801 0.01144206
v 0.04427237 0.01145464 0.00791956
v 0.04426702 0.01145464 -0.00054866
v 0.04397820 0.01254776 0.00791956
v 0.04328291 0.01472727 0.04328685
v 0.04328112 0.01472727 0.04914878
v 0.04394433 0.01254776 0.05209309
v 0.04396751 0.01254776 0.02860978
v 0.04354498 0.01395031 0.00054545
v 0.04289782 0.01581702 0.03979104
v 0.04261435 0.01658052 0.03761172
v 0.04239150 0.01712540 0.04034254
v 0.04202780 0.01798307 0.04197926
v 0.04172473 0.01864903 0.05209309
v 0.04136281 0.01946635 0.02889443
v 0.04111144 0.01996414 0.05209309
v 0.03989378 0.02234545 0.01144206
v 0.03989378 0.02234545 0.01363028
v 0.04051598 0.02103707 -0.03586257
v 0.04026103 0.02164249 -0.01035116
v 0.04026817 0.02166603 0.00599820
v 0.04026638 0.02166603 0.00381888
v 0.04026460 0.02166267 -0.00054866
v 0.04103478 0.02016594 0.02671510
v 0.04103834 0.02016258 0.02452689
v 0.04104012 0.02016594 0.01144206
v 0.04055698 0.02112116 0.00791956
v 0.04027173 0.02166603 0.01471549
v 0.04428128 0.01140419 0.02568326
v 0.04419571 0.01145464 -0.03586257
v 0.04423136 0.01145464 -0.03542671
v 0.04394790 0.01254440 -0.03324739
v 0.04370543 0.01336844 -0.02562421
v 0.04328647 0.01472054 -0.00163387
v 0.04290851 0.01580693 -0.00271909
v 0.04370900 0.01333144 -0.03324739
v 0.04325973 0.01472054 -0.02670942
v 0.04289604 0.01581029 -0.02888874
v 0.04261613 0.01658725 -0.00271909
v 0.04239685 0.01713549 -0.00271909
v 0.04202959 0.01798644 -0.00163387
v 0.04161597 0.01893156 0.00490409
v 0.04136816 0.01947307 0.00708342
v 0.04135390 0.01945626 -0.02562421
v 0.04133964 0.01943608 -0.03324739
v 0.04076736 0.02051574 -0.03586257
v 0.04055520 0.02111780 0.00054545
v 0.04055520 0.02111443 -0.00054866
v 0.04033591 0.02154159 0.00791956
v 0.04104012 0.02016594 0.00818642
v 0.04055698 0.02112116 0.00708342
v 0.04253234 0.01633835 -0.03586257
v 0.04369652 0.01328435 -0.03434149
v 0.04393541 0.01254440 -0.03434149
v 0.04261613 0.01657043 -0.02888874
v 0.04261613 0.01652670 -0.02997395
v 0.04238080 0.01711867 -0.02779463
v 0.04200284 0.01798980 -0.02670942
v 0.04161419 0.01892820 -0.00708663
v 0.04136103 0.01947644 -0.00708663
v 0.04102943 0.02016594 -0.00163387
v 0.04144126 0.01926454 -0.02491259
v 0.04159815 0.01891474 -0.02562421
v 0.04159280 0.01888784 -0.03324739
f 1 2 7
f 1 7 16
f 1 16 3
f 1 3 4
f 1 4 5
f 1 5 8
f 1 8 2
f 2 6 7
f 2 8 9
f 2 9 10
f 2 10 11
f 2 11 12
f 2 12 13
f 2 13 14
f 2 14 31
f 2 31 15
f 2 15 6
f 3 16 17
f 3 17 18
f 3 18 19
f 3 19 20
f 3 20 4
f 4 21 42
f 4 42 73
f 4 73 106
f 4 106 105
f 4 105 139
f 4 139 173
f 4 173 202
f 4 202 238
f 4 238 243
f 4 243 242
f 4 242 241
f 4 241 272
f 4 272 299
f 4 299 305
f 4 305 283
f 4 283 253
f 4 253 216
f 4 216 191
f 4 191 190
f 4 190 189
f 4 189 186
f 4 186 159
f 4 159 124
f 4 124 90
f 4 90 58
f 4 58 57
f 4 57 56
f 4 56 55
f 4 55 26
f 4 26 11
f 4 11 8
f 4 8 5
f 4 20 21
f 6 16 7
f 6 15 22
f 6 22 23
f 6 23 24
f 6 24 25
f 6 25 16
f 8 11 9
f 9 11 10
f 11 26 27
f 11 27 28
f 11 28 13
f 11 13 12
f 13 29 30
f 13 30 31
f 13 31 14
f 13 28 27
f 13 27 29
f 15 31 22
f 16 25 32
f 16 32 17
f 17 33 34
f 17 34 35
f 17 35 36
f 17 36 18
f 17 32 54
f 17 54 33
f 18 36 37
f 18 37 19
f 19 37 38
f 19 38 39
f 19 39 20
f 20 39 40
f 20 40 21
f 21 41 42
f 21 40 43
f 21 43 44
f 21 44 45
f 21 45 41
f 22 46 23
f 22 31 47
f 22 47 27
f 22 27 48
f 22 48 46
f 23 49 50
f 23 50 24
f 23 46 49
f 24 51 52
f 24 52 53
f 24 53 54
f 24 54 32
f 24 32 25
f 24 50 51
f 26 55 27
f 27 55 56
f 27 56 57
f 27 57 58
f 27 58 59
f 27 59 60
f 27 60 48
f 27 47 30
f 27 30 29
f 30 47 31
f 33 61 62
f 33 62 63
f 33 63 34
f 33 54 64
f 33 64 61
f 34 63 65
f 34 65 66
f 34 66 67
f 34 67 68
f 34 68 35
f 35 68 36
f 36 68 44
f 36 44 37
f 37 44 38
f 38 44 39
f 39 44 40
f 40 44 43
f 41 69 42
f 41 45 70
f 41 70 69
f 42 71 72
f 42 72 73
f 42 69 74
f 42 74 75
f 42 75 76
f 42 76 71
f 44 77 45
f 44 68 78
f 44 78 79
f 44 79 80
f 44 80 77
f 45 77 81
f 45 81 82
f 45 82 83
f 45 83 70
f 46 48 60
f 46 60 84
f 46 84 50
f 46 50 49
f 50 85 51
f 50 84 86
f 50 86 85
f 51 87 88
f 51 88 89
f 51 89 52
f 51 85 87
f 52 89 64
f 52 64 53
f 53 64 54
f 58 90 59
f 59 90 60
f 60 90 91
f 60 91 92
f 60 92 84
f 61 93 62
f 61 64 94
f 61 94 95
f 61 95 93
f 62 93 96
f 62 96 97
f 62 97 63
f 63 97 65
f 64 89 88
f 64 88 94
f 65 97 98
f 65 98 99
f 65 99 66
f 66 99 67
f 67 99 100
f 67 100 101
f 67 101 78
f 67 78 68
f 69 70 74
f 70 83 74
f 71 76 102
f 71 102 103
f 71 103 72
f 72 104 105
f 72 105 106
f 72 106 73
f 72 103 107
f 72 107 108
f 72 108 109
f 72 109 104
f 74 83 82
f 74 82 110
f 74 110 111
f 74 111 75
f 75 111 76
f 76 111 112
f 76 112 137
f 76 137 102
f 77 113 81
f 77 80 114
f 77 114 113
f 78 101 79
f 79 101 115
f 79 115 116
f 79 116 80
f 80 116 117
f 80 117 118
f 80 118 114
f 81 113 82
f 82 113 110
f 84 92 85
f 84 85 86
f 85 119 120
f 85 120 87
f 85 92 121
f 85 121 122
f 85 122 119
f 87 120 123
f 87 123 88
f 88 123 94
f 90 124 162
f 90 162 125
f 90 125 92
f 90 92 91
f 92 125 121
f 93 95 126
f 93 126 96
f 94 123 127
f 94 127 95
f 95 127 128
f 95 128 129
f 95 129 126
f 96 126 130
f 96 130 131
f 96 131 97
f 97 131 132
f 97 132 98
f 98 132 133
f 98 133 134
f 98 134 99
f 99 134 135
f 99 135 136
f 99 136 100
f 100 136 115
f 100 115 101
f 102 137 138
f 102 138 103
f 103 138 107
f 104 109 105
f 105 109 140
f 105 140 139
f 107 141 142
f 107 142 108
f 107 138 141
f 108 142 143
f 108 143 144
f 108 144 109
f 109 144 145
f 109 145 146
f 109 146 140
f 110 113 147
f 110 147 114
f 110 114 111
f 111 114 112
f 112 114 148
f 112 148 137
f 113 114 147
f 114 118 149
f 114 149 141
f 114 141 138
f 114 138 148
f 115 150 116
f 115 136 150
f 116 151 152
f 116 152 153
f 116 153 118
f 116 118 117
f 116 150 151
f 118 154 149
f 118 153 154
f 119 155 156
f 119 156 120
f 119 122 155
f 120 156 123
f 121 157 122
f 121 125 157
f 122 157 155
f 123 156 158
f 123 158 127
f 124 159 160
f 124 160 161
f 124 161 162
f 125 162 157
f 126 129 163
f 126 163 130
f 127 158 128
f 128 158 164
f 128 164 129
f 129 164 163
f 130 163 165
f 130 165 166
f 130 166 131
f 131 166 167
f 131 167 168
f 131 168 132
f 132 168 167
f 132 167 169
f 132 169 133
f 133 169 170
f 133 170 171
f 133 171 135
f 133 135 134
f 135 171 150
f 135 150 136
f 137 148 138
f 139 172 173
f 139 140 146
f 139 146 174
f 139 174 172
f 141 149 142
f 142 149 154
f 142 154 143
f 143 145 144
f 143 154 153
f 143 153 152
f 143 152 145
f 145 175 176
f 145 176 146
f 145 152 177
f 145 177 175
f 146 176 174
f 150 171 170
f 150 170 151
f 151 170 178
f 151 178 179
f 151 179 177
f 151 177 152
f 155 180 156
f 155 157 181
f 155 181 180
f 156 182 158
f 156 180 182
f 157 183 181
f 157 162 183
f 158 182 184
f 158 184 185
f 158 185 164
f 159 186 160
f 160 187 211
f 160 211 188
f 160 188 161
f 160 186 189
f 160 189 190
f 160 190 191
f 160 191 192
f 160 192 187
f 161 188 162
f 162 188 183
f 163 164 165
f 164 185 193
f 164 193 194
f 164 194 195
f 164 195 165
f 165 195 196
f 165 196 197
f 165 197 166
f 166 197 198
f 166 198 167
f 167 198 170
f 167 170 169
f 170 198 178
f 172 199 173
f 172 174 200
f 172 200 201
f 172 201 199
f 173 199 203
f 173 203 202
f 174 176 204
f 174 204 200
f 175 177 179
f 175 179 204
f 175 204 176
f 178 198 205
f 178 205 206
f 178 206 207
f 178 207 179
f 179 207 208
f 179 208 204
f 180 209 182
f 180 181 210
f 180 210 224
f 180 224 209
f 181 211 210
f 181 183 188
f 181 188 211
f 182 209 184
f 184 209 212
f 184 212 213
f 184 213 185
f 185 213 214
f 185 214 193
f 187 192 215
f 187 215 210
f 187 210 211
f 191 216 217
f 191 217 218
f 191 218 219
f 191 219 192
f 192 219 220
f 192 220 221
f 192 221 222
f 192 222 223
f 192 223 224
f 192 224 215
f 193 214 194
f 194 214 225
f 194 225 226
f 194 226 195
f 195 226 196
f 196 226 227
f 196 227 228
f 196 228 229
f 196 229 197
f 197 229 230
f 197 230 231
f 197 231 232
f 197 232 198
f 198 232 233
f 198 233 205
f 199 234 203
f 199 201 235
f 199 235 236
f 199 236 234
f 200 204 201
f 201 204 237
f 201 237 207
f 201 207 235
f 202 203 238
f 203 239 240
f 203 240 241
f 203 241 242
f 203 242 243
f 203 243 238
f 203 234 244
f 203 244 239
f 204 208 237
f 205 233 245
f 205 245 246
f 205 246 247
f 205 247 248
f 205 248 206
f 206 248 236
f 206 236 249
f 206 249 207
f 207 249 236
f 207 236 235
f 207 237 208
f 209 224 250
f 209 250 212
f 210 215 224
f 212 250 213
f 213 251 214
f 213 250 222
f 213 222 252
f 213 252 251
f 214 251 225
f 216 253 217
f 217 254 252
f 217 252 218
f 217 253 255
f 217 255 256
f 217 256 257
f 217 257 254
f 218 252 221
f 218 221 220
f 218 220 219
f 221 252 222
f 222 250 224
f 222 224 223
f 225 258 259
f 225 259 226
f 225 251 260
f 225 260 261
f 225 261 257
f 225 257 262
f 225 262 258
f 226 259 263
f 226 263 227
f 227 263 264
f 227 264 228
f 228 264 265
f 228 265 229
f 229 265 266
f 229 266 267
f 229 267 230
f 230 267 268
f 230 268 269
f 230 269 231
f 231 269 232
f 232 269 233
f 233 269 245
f 234 270 244
f 234 236 270
f 236 248 271
f 236 271 270
f 239 272 240
f 239 244 273
f 239 273 272
f 240 272 241
f 244 270 274
f 244 274 275
f 244 275 276
f 244 276 273
f 245 269 277
f 245 277 278
f 245 278 246
f 246 278 279
f 246 279 280
f 246 280 247
f 247 280 304
f 247 304 281
f 247 281 270
f 247 270 271
f 247 271 248
f 251 252 282
f 251 282 254
f 251 254 257
f 251 257 261
f 251 261 260
f 252 254 282
f 253 283 284
f 253 284 285
f 253 285 256
f 253 256 255
f 256 285 257
f 257 285 286
f 257 286 262
f 258 263 259
f 258 262 287
f 258 287 288
f 258 288 263
f 262 286 289
f 262 289 290
f 262 290 291
f 262 291 287
f 263 288 264
f 264 288 292
f 264 292 293
f 264 293 265
f 265 293 266
f 266 293 294
f 266 294 295
f 266 295 267
f 267 295 268
f 268 278 269
f 268 295 296
f 268 296 278
f 269 278 277
f 270 281 274
f 272 273 297
f 272 297 298
f 272 298 299
f 273 276 300
f 273 300 301
f 273 301 297
f 274 281 302
f 274 302 276
f 274 276 275
f 276 302 300
f 278 296 279
f 279 296 303
f 279 303 304
f 279 304 280
f 281 304 302
f 283 305 284
f 284 306 307
f 284 307 285
f 284 305 306
f 285 307 289
f 285 289 286
f 287 291 288
f 288 291 308
f 288 308 292
f 289 307 306
f 289 306 305
f 289 305 309
f 289 309 291
f 289 291 290
f 291 309 308
f 292 308 293
f 293 308 310
f 293 310 294
f 294 310 311
f 294 311 312
f 294 312 295
f 295 312 296
f 296 312 313
f 296 313 303
f 297 301 300
f 297 300 314
f 297 314 303
f 297 303 313
f 297 313 312
f 297 312 315
f 297 315 316
f 297 316 317
f 297 317 298
f 298 317 299
f 299 317 305
f 300 302 304
f 300 304 303
f 300 303 314
f 305 317 309
f 308 309 317
f 308 317 310
f 310 317 311
f 311 316 312
f 311 317 316
f 312 316 315

