# https://github.com/mikedh/trimesh
v 1.01100004 0.73506546 0.69243881
v 0.85171497 0.73506546 0.69243881
v 1.01100004 0.00018011 0.69243881
v 1.01100004 0.73506546 0.11773017
v 0.85155892 0.73506546 0.11767390
v 0.85202712 -0.72982991 0.11784264
v 0.85218322 -0.72982991 0.69243881
v 1.01098442 -0.72982991 0.69243881
v 1.01100004 0.00018011 0.11773017
v 1.01100004 0.72990334 0.11767390
v 0.89234000 0.73506546 0.11767390
v 0.85204273 0.00018011 0.11767390
v 1.01098442 -0.72982991 0.11784264
v 1.01100004 0.00032350 0.11767390
v 0.85219884 0.00018011 0.11767390
f 1 2 7
f 1 7 8
f 1 8 3
f 1 3 9
f 1 9 14
f 1 14 10
f 1 10 4
f 1 4 11
f 1 11 5
f 1 5 2
f 2 5 6
f 2 6 7
f 3 8 13
f 3 13 9
f 4 10 11
f 5 11 10
f 5 10 14
f 5 14 15
f 5 15 12
f 5 12 6
f 6 12 15
f 6 15 13
f 6 13 8
f 6 8 7
f 9 13 14
f 13 15 14

