# https://github.com/mikedh/trimesh
v -0.39456534 -0.15025795 1.35768470
v -0.39456534 -0.15025795 1.37767556
v -0.39456534 -0.15013002 1.33769384
v -0.09907427 -0.63809681 1.33769384
v -0.09911346 -0.63809681 1.35755053
v -0.39456534 -0.15000209 1.39767858
v -0.09911346 -0.63809681 1.35768470
v -0.09907427 -0.63809681 1.37767556
v -0.09895670 -0.63809681 1.39758101
v -0.39456534 -0.14923455 1.33244911
v -0.09648775 -0.63809681 1.31778833
v -0.39456534 -0.14546078 1.41501054
v -0.12023677 -0.60029519 1.40853390
v -0.09621342 -0.63809681 1.41298583
v -0.39456534 -0.14578059 1.31758103
v -0.14014518 -0.56019098 1.30759165
v -0.10146485 -0.62274587 1.30667689
v -0.08719977 -0.63809681 1.30594507
v -0.39456534 -0.13759345 1.42269459
v -0.10248379 -0.62447286 1.41768166
v -0.10028916 -0.62050724 1.42785391
v -0.09358770 -0.63809681 1.41808417
v -0.39456534 -0.13752948 1.31047013
v -0.39456534 -0.13023780 1.30583528
v -0.08167401 -0.63809681 1.30520108
v -0.39456534 -0.11002578 1.30412772
v -0.39456534 -0.12518480 1.42815885
v -0.08837546 -0.63809681 1.42435339
v -0.08394702 -0.63809681 1.42807349
v -0.08864979 -0.62831062 1.42818329
v -0.39456534 -0.11405540 1.42856136
v -0.09002143 -0.60995352 1.30422529
v -0.07003464 -0.63809681 1.30427411
v -0.39456534 -0.10548447 1.30411550
v -0.11000823 -0.56997716 1.30409112
v -0.07023059 -0.63809681 1.42852476
v -0.09002143 -0.60995352 1.42856136
v -0.39456534 -0.11002578 1.42863455
v -0.07003464 -0.62997365 1.30407891
v -0.06192236 -0.63809681 1.30407891
v -0.39456534 -0.09000565 1.30407891
v -0.05000865 -0.63809681 1.42867115
v -0.07003464 -0.62997365 1.42867115
v -0.11000823 -0.56997716 1.42867115
v -0.39456534 -0.09461091 1.42867115
v 0.00579761 -0.63809681 1.30407891
v -0.39456534 0.01533991 1.30407891
v 0.00579761 -0.63809681 1.42867115
v -0.39456534 0.01533991 1.42867115
v 0.00579761 0.01533991 1.30407891
v 0.00579761 0.01533991 1.42867115
f 1 2 6
f 1 6 12
f 1 12 19
f 1 19 27
f 1 27 31
f 1 31 38
f 1 38 45
f 1 45 49
f 1 49 47
f 1 47 41
f 1 41 34
f 1 34 26
f 1 26 24
f 1 24 23
f 1 23 15
f 1 15 10
f 1 10 3
f 1 3 4
f 1 4 5
f 1 5 7
f 1 7 2
f 2 7 8
f 2 8 9
f 2 9 6
f 3 10 4
f 4 11 18
f 4 18 25
f 4 25 33
f 4 33 40
f 4 40 46
f 4 46 48
f 4 48 42
f 4 42 36
f 4 36 29
f 4 29 28
f 4 28 22
f 4 22 14
f 4 14 9
f 4 9 8
f 4 8 7
f 4 7 5
f 4 10 11
f 6 9 13
f 6 13 12
f 9 14 13
f 10 15 11
f 11 16 17
f 11 17 18
f 11 15 16
f 12 13 14
f 12 14 20
f 12 20 21
f 12 21 19
f 14 22 21
f 14 21 20
f 15 23 16
f 16 23 24
f 16 24 17
f 17 24 18
f 18 24 26
f 18 26 25
f 19 21 27
f 21 22 28
f 21 28 29
f 21 29 30
f 21 30 31
f 21 31 27
f 25 32 33
f 25 26 32
f 26 34 35
f 26 35 32
f 29 36 30
f 30 36 37
f 30 37 31
f 31 37 38
f 32 35 39
f 32 39 33
f 33 39 40
f 34 41 35
f 35 41 39
f 36 42 43
f 36 43 37
f 37 43 44
f 37 44 38
f 38 44 45
f 39 41 47
f 39 47 50
f 39 50 46
f 39 46 40
f 42 48 51
f 42 51 49
f 42 49 45
f 42 45 44
f 42 44 43
f 46 50 51
f 46 51 48
f 47 49 51
f 47 51 50

