# https://github.com/mikedh/trimesh
v 0.77989161 0.80623841 0.05701068
v 0.82689667 0.80608803 0.11766925
v 0.82646686 0.80623841 0.11462292
v 1.01095831 0.80623841 0.05701068
v 0.81667227 0.72955531 0.05701068
v 0.81669492 0.00016341 0.05701664
v 0.82725859 -0.72982991 0.06586405
v 0.85205048 -0.72982991 0.11779418
v 0.84458578 0.80623841 0.11766925
v 0.85205048 -0.72952920 0.11779418
v 0.85207307 0.00016341 0.11779418
v 1.01098096 0.72955531 0.05701664
v 1.01095831 0.72955531 0.05701068
v 1.01095831 0.80623841 0.11766925
v 1.01098096 0.00016341 0.05701664
v 1.01098096 -0.72982991 0.06586405
v 1.01098096 -0.72982991 0.11779418
v 1.01098096 0.00016341 0.11779418
v 1.01098096 0.72955531 0.11766925
f 1 2 3
f 1 3 9
f 1 9 14
f 1 14 4
f 1 4 13
f 1 13 5
f 1 5 6
f 1 6 7
f 1 7 8
f 1 8 2
f 2 9 3
f 2 8 10
f 2 10 11
f 2 11 9
f 4 12 15
f 4 15 13
f 4 14 19
f 4 19 12
f 5 13 15
f 5 15 6
f 6 15 16
f 6 16 7
f 7 16 17
f 7 17 8
f 8 17 18
f 8 18 11
f 8 11 10
f 9 11 18
f 9 18 14
f 12 19 18
f 12 18 17
f 12 17 16
f 12 16 15
f 14 18 19

