# https://github.com/mikedh/trimesh
v -0.13436058 0.16997743 1.35768470
v -0.13434687 0.16997743 1.33769384
v -0.13436058 0.16997743 1.37767556
v -0.13434687 0.62815183 1.33769384
v -0.13050541 0.16997743 1.31769076
v -0.13434687 0.16997743 1.39767858
v -0.13434687 0.62815183 1.39767858
v -0.13050541 0.62815183 1.31769076
v -0.12333012 0.16997743 1.30588409
v -0.12824169 0.16997743 1.41768166
v -0.12822798 0.62815183 1.41768166
v -0.12331641 0.62815183 1.30588409
v -0.10999478 0.16997743 1.30407891
v -0.10999478 0.62815183 1.30407891
v -0.12105268 0.16997743 1.42818329
v -0.12105268 0.62815183 1.42818329
v 0.00579762 0.16997743 1.30407891
v 0.00579762 0.62815183 1.30407891
v -0.10999478 0.16997743 1.42867115
v -0.11101003 0.62815183 1.42863455
v 0.00579762 0.16997743 1.42867115
v 0.00579762 0.62815183 1.42867115
v -0.10999478 0.62815183 1.42867115
f 1 2 5
f 1 5 9
f 1 9 13
f 1 13 17
f 1 17 21
f 1 21 19
f 1 19 15
f 1 15 10
f 1 10 6
f 1 6 3
f 1 3 7
f 1 7 4
f 1 4 2
f 2 4 8
f 2 8 5
f 3 6 7
f 4 7 11
f 4 11 16
f 4 16 20
f 4 20 23
f 4 23 22
f 4 22 18
f 4 18 14
f 4 14 12
f 4 12 8
f 5 8 9
f 6 10 7
f 7 10 11
f 8 12 9
f 9 12 14
f 9 14 13
f 10 15 16
f 10 16 11
f 13 14 18
f 13 18 17
f 15 19 20
f 15 20 16
f 17 18 22
f 17 22 21
f 19 21 22
f 19 22 23
f 19 23 20

