# https://github.com/mikedh/trimesh
v -0.73509264 -0.84668058 1.23737499
v -0.85222363 -0.72909677 0.69242090
v -0.84574187 -0.74972278 1.23737499
v -0.73509264 -0.85153449 1.23737499
v -0.73509264 -0.85153449 1.21764621
v -0.73638898 -0.85143858 0.11820230
v -0.85203457 -0.72909677 0.11765429
v -0.85203457 -0.72909677 0.11776396
v -1.01100004 -0.72909677 0.69242090
v -1.01100004 -0.74972278 1.23737499
v -0.81916660 -0.85153449 1.23737499
v -0.73682112 -0.85153449 0.69242090
v -0.76825774 -0.85143858 0.11820230
v -0.76825774 -0.85142660 0.11765429
v -0.76825774 -0.84470308 0.11765429
v -1.01100004 -0.72909677 0.11765429
v -1.01100004 -0.83029723 1.23737499
v -1.01089203 -0.85152251 1.23737499
v -0.81916660 -0.85153449 0.69242090
v -1.01091897 -0.85142660 0.11765429
v -1.01100004 -0.82999760 0.11765429
v -1.01100004 -0.84998846 1.21753654
v -1.01094604 -0.85028803 1.23737499
v -1.01091897 -0.85142660 0.69242090
v -1.01089203 -0.85152251 0.69242090
v -1.01097298 -0.85000044 0.11765429
v -1.01100004 -0.84998846 0.69242090
v -1.01100004 -0.84997642 0.11776396
f 1 2 3
f 1 3 10
f 1 10 17
f 1 17 23
f 1 23 18
f 1 18 11
f 1 11 4
f 1 4 5
f 1 5 6
f 1 6 7
f 1 7 8
f 1 8 2
f 2 8 7
f 2 7 16
f 2 16 9
f 2 9 10
f 2 10 3
f 4 11 19
f 4 19 12
f 4 12 5
f 5 12 6
f 6 13 20
f 6 20 14
f 6 14 15
f 6 15 7
f 6 12 19
f 6 19 13
f 7 15 14
f 7 14 20
f 7 20 26
f 7 26 21
f 7 21 16
f 9 16 21
f 9 21 28
f 9 28 27
f 9 27 22
f 9 22 17
f 9 17 10
f 11 18 25
f 11 25 19
f 13 19 20
f 17 22 23
f 18 23 22
f 18 22 24
f 18 24 20
f 18 20 25
f 19 25 20
f 20 24 22
f 20 22 27
f 20 27 28
f 20 28 26
f 21 26 28

