# https://github.com/mikedh/trimesh
v -0.80991232 0.82483965 0.11764225
v -0.85197616 0.72953784 0.11764225
v -1.01098037 0.82483965 0.11764225
v -0.81001073 0.82483965 0.69228159
v -0.81115240 0.82052004 1.23753664
v -0.85219270 0.72953784 0.69228159
v -1.01098037 0.72953784 0.11764225
v -1.01100004 0.82051075 0.69239123
v -1.01100004 0.82052004 1.14664247
v -1.01098037 0.82483965 0.69228159
v -1.01062608 0.82052004 1.23753664
v -0.84565777 0.74988574 1.23753664
v -0.85219270 0.73008829 1.14664247
v -1.01098037 0.72953784 0.69228159
v -1.01100004 0.73008829 0.69239123
v -1.01100004 0.82052004 1.22810730
v -1.01100004 0.82050139 1.23753664
v -1.01100004 0.74988574 1.23753664
v -1.01100004 0.73008829 1.14664247
f 1 2 7
f 1 7 3
f 1 3 10
f 1 10 4
f 1 4 5
f 1 5 2
f 2 6 14
f 2 14 7
f 2 5 6
f 3 7 15
f 3 15 8
f 3 8 9
f 3 9 16
f 3 16 10
f 4 10 11
f 4 11 5
f 5 11 17
f 5 17 18
f 5 18 12
f 5 12 13
f 5 13 6
f 6 13 19
f 6 19 14
f 7 14 19
f 7 19 15
f 8 15 19
f 8 19 18
f 8 18 17
f 8 17 16
f 8 16 9
f 10 16 17
f 10 17 11
f 12 18 19
f 12 19 13

