# https://github.com/mikedh/trimesh
v 0.70933592 -0.81900847 -0.09328553
v 0.70933592 -0.81900847 0.05864808
v 0.70933592 0.00001614 -0.09328553
v 0.73021263 0.00001614 -0.09330109
v 0.85003966 -0.81900847 -0.09328553
v 0.78339362 -0.81900847 0.06586227
v 0.82727313 0.00001614 0.06586227
v 0.81528449 0.75022542 0.05699643
v 0.73021263 0.75007188 0.03262725
v 0.70933592 0.00001614 0.03128728
v 0.73021263 0.75022542 0.01994404
v 0.73021263 0.75007188 -0.09330109
v 0.85003966 0.00001614 -0.09330109
v 0.85951835 0.00001614 -0.09306738
v 0.85872108 -0.81900847 -0.09306738
v 1.01100004 -0.81900847 0.06586227
v 1.01100004 0.00001614 0.06586227
v 1.01097047 0.75022542 0.05699643
v 0.73024213 0.75022542 0.03262725
v 0.74981964 0.75022542 -0.09330109
v 0.85003966 0.75022542 -0.09330109
v 0.86926281 0.75022542 -0.09280250
v 0.86926281 0.00001614 -0.09280250
v 0.86923325 -0.81900847 -0.09280250
v 1.01100004 -0.81900847 0.03766003
v 1.01100004 0.00001614 0.03766003
v 1.01097047 0.75022542 0.03744188
v 0.87924343 0.75022542 -0.09225717
v 0.87924343 0.00001614 -0.09227273
v 0.87375116 -0.81900847 -0.09256879
v 1.01037991 -0.81900847 0.01766917
v 1.01070476 0.00001614 0.02751657
v 1.01037991 0.75022542 0.01766917
v 0.88996232 0.75022542 -0.08881369
v 0.87924343 -0.81900847 -0.09227273
v 1.00736797 -0.81900847 0.00736990
v 1.00760424 0.00001614 0.00814900
v 1.01032090 0.75022542 0.01746663
v 0.94984633 0.75022542 -0.06835535
v 0.94447213 0.00001614 -0.07019398
v 0.88996232 -0.81900847 -0.08881369
v 1.00488758 -0.81900847 -0.00104401
v 1.00488758 0.75022542 -0.00104401
v 0.94996440 0.75022542 -0.06830862
v 0.94996440 0.00001614 -0.06830862
v 0.94996440 -0.81900847 -0.06829307
v 0.94399965 -0.81900847 -0.07033423
v 0.93912745 -0.81900847 -0.07200143
v 1.00175762 -0.81900847 -0.00654420
v 1.00482857 0.75022542 -0.00116864
v 0.96700245 0.75022542 -0.05860147
v 0.95764184 -0.81900847 -0.06394586
v 0.99918860 -0.81900847 -0.01104722
v 1.00199378 0.00001614 -0.00613913
v 0.99918860 0.75022542 -0.01104722
v 0.97701263 0.75022542 -0.04749194
v 0.97152030 -0.81900847 -0.05359987
v 0.96700245 -0.81900847 -0.05860147
v 0.99233794 -0.81900847 -0.02231255
v 0.98312503 0.00001614 -0.03748873
v 0.98306596 0.75022542 -0.03759781
v 0.97701263 0.00001614 -0.04749194
v 0.97701263 -0.81900847 -0.04747638
v 0.97975880 -0.81900847 -0.04298899
f 1 2 10
f 1 10 3
f 1 3 12
f 1 12 4
f 1 4 13
f 1 13 5
f 1 5 15
f 1 15 24
f 1 24 30
f 1 30 35
f 1 35 41
f 1 41 48
f 1 48 47
f 1 47 46
f 1 46 52
f 1 52 58
f 1 58 57
f 1 57 63
f 1 63 64
f 1 64 59
f 1 59 53
f 1 53 49
f 1 49 42
f 1 42 36
f 1 36 31
f 1 31 25
f 1 25 16
f 1 16 6
f 1 6 2
f 2 6 7
f 2 7 8
f 2 8 9
f 2 9 10
f 3 10 11
f 3 11 12
f 4 12 20
f 4 20 21
f 4 21 13
f 5 13 14
f 5 14 15
f 6 16 17
f 6 17 7
f 7 17 18
f 7 18 8
f 8 18 27
f 8 27 33
f 8 33 38
f 8 38 43
f 8 43 50
f 8 50 55
f 8 55 61
f 8 61 56
f 8 56 51
f 8 51 44
f 8 44 39
f 8 39 34
f 8 34 28
f 8 28 22
f 8 22 21
f 8 21 20
f 8 20 11
f 8 11 19
f 8 19 9
f 9 19 11
f 9 11 10
f 11 20 12
f 13 21 14
f 14 21 22
f 14 22 23
f 14 23 24
f 14 24 15
f 16 25 26
f 16 26 17
f 17 26 27
f 17 27 18
f 22 28 29
f 22 29 30
f 22 30 23
f 23 30 24
f 25 31 32
f 25 32 26
f 26 32 27
f 27 32 33
f 28 34 29
f 29 35 30
f 29 34 41
f 29 41 35
f 31 36 37
f 31 37 38
f 31 38 33
f 31 33 32
f 34 39 40
f 34 40 41
f 36 42 37
f 37 43 38
f 37 42 43
f 39 44 45
f 39 45 40
f 40 45 46
f 40 46 47
f 40 47 48
f 40 48 41
f 42 49 50
f 42 50 43
f 44 51 52
f 44 52 45
f 45 52 46
f 49 53 54
f 49 54 50
f 50 54 55
f 51 56 57
f 51 57 58
f 51 58 52
f 53 59 60
f 53 60 61
f 53 61 55
f 53 55 54
f 56 61 62
f 56 62 57
f 57 62 63
f 59 64 60
f 60 64 61
f 61 64 62
f 62 64 63

