# https://github.com/mikedh/trimesh
v -0.73509264 -0.63809681 1.30375317
v -0.70999306 -0.62997365 1.30414453
v -0.70985973 -0.63809681 1.30470708
v -0.73509264 -0.63809681 1.42868325
v -0.73509264 0.01533991 1.30375317
v -0.39456534 -0.09000565 1.30408338
v -0.39456534 -0.10548447 1.30412003
v -0.39456534 -0.11002578 1.30413225
v -0.69466001 -0.62997365 1.30594233
v -0.69676000 -0.63809681 1.30630925
v -0.72999275 -0.63809681 1.42868325
v -0.73509264 0.01533991 1.42868325
v -0.39456534 0.01533991 1.30408338
v -0.39456534 -0.13023780 1.30583224
v -0.65949398 -0.58085072 1.30728766
v -0.68126023 -0.61871630 1.30988040
v -0.68902677 -0.63809681 1.31677815
v -0.71809292 -0.63809681 1.42864659
v -0.68999344 -0.58999729 1.42868325
v -0.39456534 0.01533991 1.42868325
v -0.39456534 -0.13752948 1.31046745
v -0.39456534 -0.14578059 1.31758538
v -0.68579352 -0.63809681 1.32613417
v -0.71052641 -0.63809681 1.42846313
v -0.70999306 -0.62997365 1.42863437
v -0.39456534 -0.11002578 1.42863437
v -0.39456534 -0.09000565 1.42868325
v -0.39456534 -0.14923455 1.33245709
v -0.68519354 -0.63809681 1.33769157
v -0.39456534 -0.15013002 1.33769157
v -0.69919324 -0.63809681 1.42799839
v -0.39456534 -0.11405540 1.42856100
v -0.68512684 -0.63809681 1.34465048
v -0.39456534 -0.15025795 1.35768774
v -0.69689333 -0.63809681 1.42541787
v -0.63986099 -0.54023480 1.42776605
v -0.39456534 -0.12518480 1.42815742
v -0.68512684 -0.63809681 1.37767169
v -0.39456534 -0.15025795 1.37767169
v -0.69129342 -0.63809681 1.41776183
v -0.39456534 -0.13759345 1.42269054
v -0.68529350 -0.63809681 1.39768007
v -0.39456534 -0.15000209 1.39768007
v -0.39456534 -0.14546078 1.41501006
f 1 2 3
f 1 3 10
f 1 10 17
f 1 17 23
f 1 23 29
f 1 29 33
f 1 33 38
f 1 38 42
f 1 42 40
f 1 40 35
f 1 35 31
f 1 31 24
f 1 24 18
f 1 18 11
f 1 11 4
f 1 4 12
f 1 12 5
f 1 5 13
f 1 13 6
f 1 6 7
f 1 7 8
f 1 8 2
f 2 8 3
f 3 9 10
f 3 8 9
f 4 11 19
f 4 19 27
f 4 27 20
f 4 20 12
f 5 12 20
f 5 20 13
f 6 13 20
f 6 20 27
f 6 27 26
f 6 26 32
f 6 32 37
f 6 37 41
f 6 41 44
f 6 44 43
f 6 43 39
f 6 39 34
f 6 34 30
f 6 30 28
f 6 28 22
f 6 22 21
f 6 21 14
f 6 14 8
f 6 8 7
f 8 14 10
f 8 10 9
f 10 15 16
f 10 16 17
f 10 14 15
f 11 18 19
f 14 21 15
f 15 17 16
f 15 21 22
f 15 22 17
f 17 22 23
f 18 24 25
f 18 25 19
f 19 25 26
f 19 26 27
f 22 28 23
f 23 28 30
f 23 30 29
f 24 31 32
f 24 32 25
f 25 32 26
f 29 30 33
f 30 34 33
f 31 35 36
f 31 36 37
f 31 37 32
f 33 34 39
f 33 39 38
f 35 40 36
f 36 40 41
f 36 41 37
f 38 39 43
f 38 43 42
f 40 42 44
f 40 44 41
f 42 43 44

