# https://github.com/mikedh/trimesh
v -0.70966733 1.01100004 0.69232415
v -0.72969520 1.01100004 1.19746920
v -0.70966733 0.85220522 0.69232415
v -0.70966733 1.01100004 0.03783414
v -0.85003954 1.01100004 1.19746920
v -0.72969520 0.85220522 1.19746920
v -0.70966733 0.82489109 0.06285128
v -0.70966733 1.01040339 0.01787087
v -0.85003954 1.01100004 0.03783414
v -0.86475813 1.01047802 0.69232415
v -0.87000841 1.01029158 1.19746920
v -0.81691533 0.82058418 1.19746920
v -0.81700385 0.82052827 1.19317326
v -0.70966733 0.82489109 -0.09331659
v -0.70966733 1.00490332 -0.00095514
v -0.85003954 1.01040339 0.01787087
v -0.86994940 1.00980675 0.01787087
v -0.86994940 1.01029158 0.03783414
v -0.87000841 1.01029158 0.69245051
v -0.88478601 1.00648808 0.69232415
v -0.88997734 1.00514567 1.19746920
v -1.00147271 0.82052827 1.19746920
v -0.81700385 0.82052827 0.69245051
v -0.85003954 0.82489109 -0.09331659
v -0.70966733 0.82994372 -0.09331659
v -0.85003954 1.00490332 -0.00095514
v -0.70966733 0.99919808 -0.01093677
v -0.86994940 1.00464225 -0.00044981
v -0.88661474 1.00294566 0.00245628
v -0.89195359 1.00380325 0.01584932
v -0.88997734 1.00514567 0.03783414
v -0.90086138 1.00029814 1.19746920
v -1.01100004 0.82052827 1.19746920
v -1.01100004 0.82052827 0.69245051
v -0.85003954 0.83001828 -0.09331659
v -0.86924154 0.82489109 -0.09268490
v -0.70966733 0.85002381 -0.09319022
v -0.71002126 0.83001828 -0.09331659
v -0.85003954 0.99919808 -0.01093677
v -0.86994940 0.99897438 -0.01043144
v -0.70966733 0.98312658 -0.03747013
v -0.88997734 0.98875719 -0.02218190
v -0.89994699 0.99998116 0.00788924
v -0.91345626 0.97827899 -0.02849940
v -0.94525313 0.96259904 -0.03734389
v -0.92283601 0.98129940 -0.01523271
v -0.90050745 1.00022352 0.02115592
v -0.90074342 1.00033545 0.03783414
v -0.89797080 1.00158453 0.69232415
v -0.93941289 0.98273504 0.69232415
v -0.93941289 0.98273504 0.69245051
v -0.95271564 0.97665697 1.19746920
v -1.01100004 0.85000515 1.19746920
v -1.01100004 0.82489109 0.03783414
v -1.01038063 0.82489109 0.01787087
v -1.00899434 0.82489109 0.01294324
v -1.00489438 0.82489109 -0.00095514
v -0.99917209 0.82489109 -0.01093677
v -0.98312616 0.82489109 -0.03747013
v -0.97699094 0.82489109 -0.04745177
v -0.96702129 0.82489109 -0.05844417
v -0.96265584 0.82489109 -0.06097117
v -0.94997251 0.82489109 -0.06829944
v -0.88997734 0.82489109 -0.08876804
v -0.88720465 0.82489109 -0.08965245
v -0.87921125 0.82489109 -0.09217945
v -0.86924154 0.85002381 -0.09268490
v -0.85003954 0.85002381 -0.09319022
v -0.70966733 0.86928350 -0.09268490
v -0.85003954 0.98312658 -0.03747013
v -0.86994940 0.97678745 -0.04707268
v -0.70966733 0.97702986 -0.04745177
v -0.88997734 0.97525859 -0.04441944
v -0.90012401 0.98001295 -0.03228989
v -0.93003309 0.96507871 -0.04328230
v -0.95230269 0.97648913 0.01787087
v -0.93616831 0.97824174 -0.00727263
v -0.94127113 0.98057228 0.00599405
v -0.95858538 0.95859045 -0.03039459
v -0.95112282 0.96560079 -0.02306631
v -0.93675822 0.95832944 -0.05061057
v -0.95271564 0.97665697 0.03783414
v -0.96303928 0.96927375 0.69245051
v -0.96663785 0.96666354 1.19746920
v -1.01029217 0.87002933 1.19746920
v -1.01100004 0.85002381 0.69232415
v -1.01100004 0.85002381 0.03783414
v -1.01038063 0.85002381 0.01787087
v -1.00489438 0.85002381 -0.00095514
v -0.99917209 0.85002381 -0.01093677
v -0.98312616 0.85002381 -0.03747013
v -0.97699094 0.85002381 -0.04745177
v -0.96702129 0.85002381 -0.05844417
v -0.94997251 0.85002381 -0.06829944
v -0.88997734 0.85002381 -0.08876804
v -0.87921125 0.85002381 -0.09217945
v -0.86617392 0.86620718 -0.09255853
v -0.85003954 0.86928350 -0.09268490
v -0.70966733 0.87927693 -0.09217945
v -0.85003954 0.97702986 -0.04745177
v -0.86994940 0.96679401 -0.05831781
v -0.88997734 0.96526515 -0.05705431
v -0.70966733 0.96701777 -0.05844417
v -0.90805846 0.97309583 -0.04024986
v -0.92342597 0.96088374 -0.05313745
v -0.94873363 0.97455013 -0.00120786
v -0.96445513 0.96448213 -0.00221864
v -0.96646082 0.96647710 0.01787087
v -0.95177174 0.95180386 -0.04391399
v -0.95831990 0.93673915 -0.05061057
v -0.96256733 0.94525969 -0.03734389
v -0.96557593 0.95113266 -0.02306631
v -0.96180046 0.96177864 -0.01700154
v -0.93003309 0.95100218 -0.05629626
v -0.94498765 0.94499868 -0.05452731
v -0.96663785 0.96666354 0.03783414
v -0.96675581 0.96653301 1.19746920
v -1.00515985 0.89001614 1.19746920
v -1.01029217 0.87002933 0.03783414
v -1.00982022 0.87002933 0.01787087
v -1.00462890 0.87002933 -0.00044981
v -0.99896562 0.87002933 -0.01043144
v -0.97678447 0.87002933 -0.04707268
v -0.96678531 0.87002933 -0.05831781
v -0.94997251 0.87002933 -0.06779400
v -0.88997734 0.87002933 -0.08838895
v -0.87166023 0.87172592 -0.09205309
v -0.85003954 0.87927693 -0.09217945
v -0.85003954 0.89001614 -0.08876804
v -0.70966733 0.88984835 -0.08876804
v -0.85003954 0.96701777 -0.05844417
v -0.85003954 0.94997674 -0.06829944
v -0.86994940 0.94997674 -0.06779400
v -0.88997734 0.94997674 -0.06539336
v -0.70966733 0.94997674 -0.06829944
v -0.90997571 0.94997674 -0.06109753
v -0.97454280 0.94874620 -0.00120786
v -0.97648954 0.95230728 0.01787087
v -0.97666651 0.95269883 0.03783414
v -0.95100486 0.93004578 -0.05629626
v -0.96085656 0.92342705 -0.05313745
v -0.96507454 0.93004578 -0.04328230
v -0.97825933 0.91347086 -0.02849940
v -1.00291812 0.88667881 0.00245628
v -0.98129743 0.92286772 -0.01523271
v -0.97825933 0.93619847 -0.00727263
v -0.90956277 0.92888987 -0.06893113
v -0.92994463 0.92998987 -0.06375089
v -0.96926296 0.96302783 0.69245051
v -0.97666651 0.95271748 0.69245051
v -0.97666651 0.95271748 1.19746920
v -1.00038147 0.90066212 1.19746920
v -1.00515985 0.89001614 0.03783414
v -1.00383246 0.89201111 0.01584932
v -0.98875993 0.89001614 -0.02218190
v -0.97525072 0.89001614 -0.04441944
v -0.96525151 0.89001614 -0.05705431
v -0.94997251 0.89001614 -0.06539336
v -0.93510646 0.89001614 -0.07057372
v -0.90997571 0.89001614 -0.07903913
v -0.88997734 0.89001614 -0.08523026
v -0.86994940 0.89001614 -0.08838895
v -0.70966733 0.90968609 -0.08207157
v -0.88997734 0.93511713 -0.07057372
v -0.98056000 0.94126976 0.00599405
v -0.99996847 0.90000957 0.00788924
v -1.00020444 0.90053165 0.02115592
v -0.98123842 0.94270539 0.03783414
v -0.92888272 0.90959287 -0.06893113
v -0.94997251 0.91002166 -0.06109753
v -0.97306800 0.90810126 -0.04024986
v -0.98002911 0.90014011 -0.03228989
v -0.88997734 0.91002166 -0.07903913
v -0.91590446 0.91595060 -0.07145813
v -0.99914259 0.90338421 0.69232415
v -1.00032246 0.90077400 0.03783414
f 1 2 6
f 1 6 3
f 1 3 7
f 1 7 14
f 1 14 25
f 1 25 37
f 1 37 69
f 1 69 99
f 1 99 130
f 1 130 163
f 1 163 135
f 1 135 103
f 1 103 72
f 1 72 41
f 1 41 27
f 1 27 15
f 1 15 8
f 1 8 4
f 1 4 9
f 1 9 5
f 1 5 2
f 2 5 11
f 2 11 21
f 2 21 32
f 2 32 52
f 2 52 84
f 2 84 117
f 2 117 151
f 2 151 152
f 2 152 118
f 2 118 85
f 2 85 53
f 2 53 33
f 2 33 22
f 2 22 12
f 2 12 6
f 3 6 7
f 4 8 16
f 4 16 9
f 5 10 11
f 5 9 10
f 6 12 7
f 7 12 13
f 7 13 23
f 7 23 14
f 8 15 26
f 8 26 16
f 9 16 17
f 9 17 18
f 9 18 19
f 9 19 10
f 10 19 11
f 11 19 20
f 11 20 21
f 12 22 13
f 13 22 33
f 13 33 34
f 13 34 23
f 14 24 35
f 14 35 38
f 14 38 25
f 14 23 34
f 14 34 24
f 15 27 39
f 15 39 26
f 16 26 28
f 16 28 17
f 17 28 29
f 17 29 30
f 17 30 31
f 17 31 18
f 18 31 19
f 19 31 20
f 20 31 21
f 21 31 32
f 24 34 36
f 24 36 67
f 24 67 35
f 25 38 37
f 26 39 40
f 26 40 28
f 27 41 70
f 27 70 39
f 28 40 42
f 28 42 29
f 29 43 30
f 29 42 44
f 29 44 45
f 29 45 46
f 29 46 43
f 30 43 47
f 30 47 31
f 31 47 48
f 31 48 49
f 31 49 32
f 32 49 48
f 32 48 50
f 32 50 51
f 32 51 52
f 33 53 86
f 33 86 87
f 33 87 54
f 33 54 34
f 34 54 55
f 34 55 56
f 34 56 57
f 34 57 58
f 34 58 59
f 34 59 60
f 34 60 61
f 34 61 62
f 34 62 63
f 34 63 64
f 34 64 65
f 34 65 66
f 34 66 36
f 35 67 68
f 35 68 37
f 35 37 38
f 36 66 96
f 36 96 67
f 37 68 98
f 37 98 69
f 39 70 71
f 39 71 40
f 40 71 42
f 41 72 100
f 41 100 70
f 42 71 73
f 42 73 74
f 42 74 75
f 42 75 44
f 43 76 47
f 43 46 77
f 43 77 78
f 43 78 76
f 44 75 45
f 45 79 80
f 45 80 46
f 45 75 81
f 45 81 79
f 46 80 77
f 47 82 48
f 47 76 82
f 48 82 50
f 50 82 52
f 50 52 51
f 52 83 84
f 52 82 83
f 53 85 86
f 54 87 88
f 54 88 55
f 55 88 56
f 56 88 89
f 56 89 57
f 57 89 90
f 57 90 58
f 58 90 91
f 58 91 59
f 59 91 92
f 59 92 60
f 60 92 93
f 60 93 61
f 61 93 62
f 62 93 94
f 62 94 63
f 63 94 95
f 63 95 64
f 64 95 65
f 65 95 96
f 65 96 66
f 67 96 97
f 67 97 68
f 68 97 98
f 69 98 128
f 69 128 99
f 70 100 71
f 71 100 101
f 71 101 102
f 71 102 73
f 72 103 131
f 72 131 100
f 73 104 74
f 73 102 105
f 73 105 104
f 74 104 75
f 75 104 105
f 75 105 81
f 76 78 106
f 76 106 107
f 76 107 108
f 76 108 82
f 77 106 78
f 77 80 106
f 79 81 109
f 79 109 110
f 79 110 111
f 79 111 112
f 79 112 113
f 79 113 80
f 80 113 106
f 81 105 114
f 81 114 115
f 81 115 110
f 81 110 109
f 82 108 116
f 82 116 83
f 83 116 84
f 84 116 117
f 85 118 153
f 85 153 119
f 85 119 87
f 85 87 86
f 87 119 120
f 87 120 88
f 88 120 121
f 88 121 89
f 89 121 122
f 89 122 90
f 90 122 91
f 91 122 123
f 91 123 92
f 92 123 124
f 92 124 93
f 93 124 94
f 94 124 125
f 94 125 126
f 94 126 95
f 95 126 96
f 96 126 127
f 96 127 97
f 97 127 128
f 97 128 98
f 99 128 129
f 99 129 130
f 100 131 101
f 101 131 132
f 101 132 133
f 101 133 102
f 102 133 134
f 102 134 105
f 103 135 132
f 103 132 131
f 105 134 136
f 105 136 114
f 106 113 107
f 107 137 138
f 107 138 108
f 107 113 137
f 108 138 139
f 108 139 116
f 110 115 140
f 110 140 141
f 110 141 142
f 110 142 111
f 111 143 144
f 111 144 145
f 111 145 112
f 111 142 143
f 112 145 146
f 112 146 137
f 112 137 113
f 114 136 147
f 114 147 148
f 114 148 115
f 115 148 140
f 116 139 149
f 116 149 117
f 117 149 150
f 117 150 151
f 118 152 153
f 119 153 120
f 120 154 144
f 120 144 121
f 120 153 154
f 121 144 155
f 121 155 122
f 122 155 123
f 123 156 157
f 123 157 124
f 123 155 156
f 124 157 125
f 125 158 159
f 125 159 126
f 125 157 158
f 126 160 161
f 126 161 127
f 126 159 160
f 127 161 162
f 127 162 128
f 128 162 129
f 129 162 132
f 129 132 163
f 129 163 130
f 132 135 163
f 132 162 133
f 133 162 164
f 133 164 134
f 134 164 147
f 134 147 136
f 137 146 165
f 137 165 138
f 138 165 166
f 138 166 167
f 138 167 168
f 138 168 139
f 139 168 150
f 139 150 149
f 140 148 169
f 140 169 170
f 140 170 141
f 141 170 158
f 141 158 157
f 141 157 156
f 141 156 171
f 141 171 142
f 142 171 172
f 142 172 155
f 142 155 143
f 143 155 144
f 144 154 166
f 144 166 145
f 145 166 146
f 146 166 165
f 147 164 173
f 147 173 161
f 147 161 174
f 147 174 148
f 148 174 169
f 150 168 151
f 151 168 152
f 152 168 175
f 152 175 176
f 152 176 153
f 153 176 167
f 153 167 154
f 154 167 166
f 155 172 156
f 156 172 171
f 158 170 169
f 158 169 159
f 159 169 160
f 160 169 161
f 161 169 174
f 161 173 162
f 162 173 164
f 167 176 168
f 168 176 175

