# https://github.com/mikedh/trimesh
v -0.00009081 -0.81885487 0.03137168
v -0.00001931 -0.81900847 -0.09331665
v -0.00009081 -0.81885487 0.05865374
v -0.00009081 -0.73114610 0.03137168
v 0.70925552 -0.81900847 -0.09331665
v -0.00001931 -0.81900847 0.03137168
v -0.00001931 0.75022542 -0.09331665
v 0.70925552 -0.81885487 0.05865374
v 0.73020273 0.75007182 0.03263607
v -0.00001931 0.75022542 0.03260633
v 0.70925552 -0.81900847 0.03137168
v 0.73020273 0.00001611 -0.09331665
v 0.72991681 0.75022542 -0.09331665
v 0.73020273 0.00001611 0.02870890
v 0.73020273 0.00016972 0.03128239
v 0.73020273 0.75022542 0.01994708
v 0.72991681 0.75022542 0.03260633
v 0.73020273 0.75007182 -0.09331665
f 1 2 6
f 1 6 3
f 1 3 4
f 1 4 7
f 1 7 2
f 2 5 11
f 2 11 6
f 2 7 13
f 2 13 18
f 2 18 12
f 2 12 5
f 3 8 9
f 3 9 10
f 3 10 4
f 3 6 11
f 3 11 8
f 4 10 7
f 5 12 14
f 5 14 11
f 7 10 17
f 7 17 16
f 7 16 13
f 8 11 14
f 8 14 15
f 8 15 9
f 9 15 14
f 9 14 12
f 9 12 18
f 9 18 16
f 9 16 17
f 9 17 10
f 13 16 18

