# https://github.com/mikedh/trimesh
v 0.66832429 0.72220802 1.42868325
v 0.66832429 0.65000904 1.42868325
v 0.66832429 0.72220802 1.30408498
v 0.55000514 0.72220802 1.42868325
v 0.66832429 0.63009256 1.42864671
v 0.64998645 0.65000904 1.42868325
v 0.66832429 0.63167602 1.30408498
v 0.53779435 0.72220802 1.30408498
v 0.44714433 0.72220802 1.42831734
v 0.55000514 0.70999062 1.42868325
v 0.66832429 0.61121351 1.42823198
v 0.66832429 0.61151379 1.30481687
v 0.44714433 0.72220802 1.30515841
v 0.51778942 0.72220802 1.30418256
v 0.55000514 0.70999062 1.30408498
v 0.44714433 0.72178489 1.42830518
v 0.66832429 0.60833317 1.42768308
v 0.44714433 0.71905470 1.42818317
v 0.66832429 0.59514654 1.30631718
v 0.44714433 0.71880901 1.30563411
v 0.66358286 0.60360998 1.42618278
v 0.66832429 0.59075093 1.41873005
v 0.44714433 0.71280265 1.41768107
v 0.66832429 0.59363127 1.30654892
v 0.44714433 0.71700710 1.30589023
v 0.66832429 0.58294272 1.39767703
v 0.44714433 0.70736963 1.39767703
v 0.66832429 0.58668303 1.31625816
v 0.44714433 0.71151948 1.31600204
v 0.66832429 0.58287448 1.39189538
v 0.44714433 0.70726043 1.37767300
v 0.66832429 0.58277893 1.37767300
v 0.66832429 0.58597320 1.31768527
v 0.44714433 0.71072775 1.31768527
v 0.66832429 0.58276522 1.35769334
v 0.44714433 0.70726043 1.35769334
v 0.66832429 0.58284718 1.33768931
v 0.44714433 0.70776552 1.33483508
v 0.44714433 0.70734233 1.33768931
f 1 2 5
f 1 5 11
f 1 11 17
f 1 17 22
f 1 22 26
f 1 26 30
f 1 30 32
f 1 32 35
f 1 35 37
f 1 37 33
f 1 33 28
f 1 28 24
f 1 24 19
f 1 19 12
f 1 12 7
f 1 7 3
f 1 3 8
f 1 8 14
f 1 14 13
f 1 13 9
f 1 9 4
f 1 4 10
f 1 10 6
f 1 6 2
f 2 6 5
f 3 7 15
f 3 15 8
f 4 9 10
f 5 6 10
f 5 10 9
f 5 9 11
f 7 12 13
f 7 13 14
f 7 14 15
f 8 15 14
f 9 13 20
f 9 20 25
f 9 25 29
f 9 29 34
f 9 34 38
f 9 38 39
f 9 39 36
f 9 36 31
f 9 31 27
f 9 27 23
f 9 23 18
f 9 18 16
f 9 16 11
f 11 16 18
f 11 18 17
f 12 19 13
f 13 19 20
f 17 18 21
f 17 21 22
f 18 23 22
f 18 22 21
f 19 24 25
f 19 25 20
f 22 23 26
f 23 27 26
f 24 28 25
f 25 28 29
f 26 27 30
f 27 31 32
f 27 32 30
f 28 33 29
f 29 33 34
f 31 35 32
f 31 36 35
f 33 37 38
f 33 38 34
f 35 36 39
f 35 39 37
f 37 39 38

