# https://github.com/mikedh/trimesh
v 0.00579762 0.27854487 1.30407891
v 0.00582152 0.00321561 1.30407891
v 0.00579762 0.27854487 1.42865899
v 0.00579762 0.44771051 1.30407891
v 0.23679599 0.00321561 1.30407891
v 0.00582152 0.00321561 1.42865899
v 0.00579762 0.44771051 1.42865899
v 0.09000558 0.44771051 1.30407891
v 0.24991465 0.00325912 1.30407891
v 0.24991465 0.00321561 1.30565217
v 0.24991465 0.00321561 1.42865899
v 0.09000558 0.44771051 1.42865899
v 0.11000615 0.44771051 1.30413994
v 0.24991465 0.13004634 1.30407891
v 0.24991465 0.12995932 1.42865899
v 0.10771218 0.44771051 1.42864677
v 0.11139210 0.44771051 1.30433503
v 0.24991465 0.15001728 1.30487165
v 0.24991465 0.13413624 1.42858580
v 0.11000615 0.44771051 1.42863461
v 0.12269469 0.44771051 1.30593267
v 0.24991465 0.16298316 1.30666444
v 0.24991465 0.14949515 1.42826870
v 0.11961216 0.44771051 1.42819556
v 0.12840573 0.44771051 1.31770167
v 0.24991465 0.16885696 1.31770167
v 0.24991465 0.14993025 1.42813459
v 0.12080695 0.44771051 1.42813459
v 0.13144048 0.44771051 1.33770272
v 0.24991465 0.17172861 1.33770272
v 0.24991465 0.16494110 1.41881695
v 0.12601618 0.44771051 1.41885355
v 0.13146436 0.44771051 1.35769167
v 0.24991465 0.17177212 1.35769167
v 0.24991465 0.16528918 1.41830477
v 0.12654188 0.44771051 1.41767058
v 0.13146436 0.44771051 1.37766835
v 0.24991465 0.17177212 1.37782690
v 0.24991465 0.17172861 1.39766946
v 0.13144048 0.44771051 1.39766946
v 0.13096255 0.44771051 1.39996227
f 1 2 6
f 1 6 3
f 1 3 7
f 1 7 4
f 1 4 8
f 1 8 14
f 1 14 9
f 1 9 5
f 1 5 2
f 2 5 10
f 2 10 11
f 2 11 6
f 3 6 11
f 3 11 15
f 3 15 12
f 3 12 7
f 4 7 12
f 4 12 16
f 4 16 20
f 4 20 24
f 4 24 28
f 4 28 32
f 4 32 36
f 4 36 41
f 4 41 40
f 4 40 37
f 4 37 33
f 4 33 29
f 4 29 25
f 4 25 21
f 4 21 17
f 4 17 13
f 4 13 8
f 5 9 10
f 8 13 14
f 9 14 18
f 9 18 22
f 9 22 26
f 9 26 30
f 9 30 34
f 9 34 38
f 9 38 39
f 9 39 35
f 9 35 31
f 9 31 27
f 9 27 23
f 9 23 19
f 9 19 15
f 9 15 11
f 9 11 10
f 12 15 16
f 13 17 18
f 13 18 14
f 15 19 20
f 15 20 16
f 17 21 18
f 18 21 22
f 19 23 24
f 19 24 20
f 21 25 22
f 22 25 26
f 23 27 28
f 23 28 24
f 25 29 26
f 26 29 30
f 27 31 28
f 28 31 32
f 29 33 30
f 30 33 34
f 31 35 36
f 31 36 32
f 33 37 38
f 33 38 34
f 35 39 40
f 35 40 41
f 35 41 36
f 37 40 39
f 37 39 38

