# https://github.com/mikedh/trimesh
v 0.72302562 0.72222173 1.30409202
v 0.85219830 0.72222173 1.18267926
v 0.72302562 0.72222173 1.42865929
v 0.72302562 0.85222286 1.18267926
v 1.01097178 0.72222173 1.18267926
v 0.85002756 0.72222173 1.42865929
v 0.72302562 0.85004628 1.42865929
v 0.72302562 1.01100004 1.18267926
v 1.01097178 0.72222173 1.29771075
v 1.01097178 0.85007453 1.18267926
v 0.86922586 0.72222173 1.42817768
v 0.85002756 0.85004628 1.42865929
v 0.72302562 0.86923975 1.42817768
v 0.72302562 1.01100004 1.27266726
v 0.81089801 1.01100004 1.18267926
v 1.01037979 0.72222173 1.31767329
v 1.01097178 0.85004628 1.29771075
v 1.01026702 0.86991817 1.18267926
v 1.01026702 0.86994642 1.27269134
v 1.01097178 0.85007453 1.27266726
v 0.87534338 0.72222173 1.42784056
v 0.86922586 0.85004628 1.42817768
v 0.86620939 0.86618686 1.42800912
v 0.85002756 0.86923975 1.42817768
v 0.72302562 0.87924635 1.42762384
v 0.81089801 1.01100004 1.27266726
v 0.72302562 1.01097178 1.29771075
v 0.85002756 1.01097178 1.18267926
v 1.00488257 0.72222173 1.33640775
v 1.01037979 0.85004628 1.31767329
v 1.01026702 0.86994642 1.29771075
v 1.00978780 0.86994642 1.31767329
v 1.00510812 0.88993138 1.18267926
v 1.00513625 0.88995963 1.27269134
v 0.87923378 0.72222173 1.42762384
v 0.87923378 0.85004628 1.42762384
v 0.87167847 0.87167072 1.42745527
v 0.85002756 0.87924635 1.42762384
v 0.72302562 0.88995963 1.42415628
v 0.85002756 1.01097178 1.29771075
v 0.72302562 1.01077390 1.30474219
v 0.86505353 1.01046300 1.18267926
v 0.99918789 0.72222173 1.34640106
v 1.00488257 0.85004628 1.33640775
v 1.00462878 0.86994642 1.33597430
v 1.00513625 0.88995963 1.29771075
v 1.00290918 0.88662410 1.33294019
v 1.00378311 0.89196664 1.31959972
v 1.00031555 0.90075773 1.18267926
v 0.88580233 0.72222173 1.42550477
v 0.88997465 0.85004628 1.42415628
v 0.88997465 0.86994642 1.42374691
v 0.88997465 0.88995963 1.42066464
v 0.86995882 0.88995963 1.42374691
v 0.85002756 0.88995963 1.42415628
v 0.72302562 0.90293431 1.41974959
v 0.85002756 1.01040637 1.31767329
v 0.86995882 1.00981283 1.31767329
v 0.86995882 1.01029336 1.29771075
v 0.86998701 1.01029336 1.27266726
v 0.72302562 1.01040637 1.31767329
v 0.86998701 1.01029336 1.18267926
v 0.98311883 0.72222173 1.37286529
v 0.99918789 0.85004628 1.34640106
v 0.99893415 0.86994642 1.34596762
v 0.98872888 0.88995963 1.35767063
v 1.00031555 0.90075773 1.29771075
v 1.00020278 0.90050334 1.31422981
v 0.99994904 0.89993799 1.32757029
v 0.98125821 0.92286271 1.35063919
v 0.96259552 0.94525039 1.37274489
v 0.97826993 0.91344970 1.36395559
v 0.98700923 0.92998606 1.27269134
v 0.97663480 0.95271295 1.18267926
v 0.88997465 0.72222173 1.42415628
v 0.94996583 0.85004628 1.40366396
v 0.93854833 0.86994642 1.40717968
v 0.90996230 0.86994642 1.41693219
v 0.90996230 0.88995963 1.41459641
v 0.91591066 0.91593724 1.40686664
v 0.88997465 0.90994459 1.41459641
v 0.86995882 0.93857932 1.40717968
v 0.85002756 0.94999927 1.40366396
v 0.72302562 0.94999927 1.40366396
v 0.72302562 1.00848424 1.32427129
v 0.85002756 1.00489426 1.33640775
v 0.86995882 1.00466824 1.33597430
v 0.88997465 1.00514865 1.29771075
v 0.88661993 1.00294387 1.33294019
v 0.89197624 1.00382018 1.31959972
v 0.87497687 1.00902128 1.27269134
v 0.88997465 1.00514865 1.27269134
v 0.88997465 1.00512040 1.18267926
v 0.97700131 0.72222173 1.38285860
v 0.98311883 0.85004628 1.37286529
v 0.98286510 0.86994642 1.37243184
v 0.98131454 0.88995963 1.36990341
v 0.96504819 0.93004262 1.37871680
v 0.97998959 0.90010756 1.36773619
v 0.98700923 0.92998606 1.29771075
v 0.97663480 0.95271295 1.29771075
v 0.97646564 0.95231724 1.31767329
v 0.98052520 0.94126469 1.32937631
v 0.97824174 0.93620485 1.34271678
v 0.96558380 0.95115823 1.35853752
v 0.95856416 0.95859253 1.36578569
v 0.95831043 0.93677020 1.38608536
v 0.97779065 0.95019716 1.27269134
v 0.96662688 0.96664870 1.18267926
v 0.96665508 0.96667695 1.27269134
v 0.97415400 0.95621812 1.27269134
v 0.94996583 0.72222173 1.40366396
v 0.96699339 0.85004628 1.39395961
v 0.96676785 0.86994642 1.39376697
v 0.94996583 0.86994642 1.40327868
v 0.92512923 0.88995963 1.40941915
v 0.92887872 0.90954888 1.40429005
v 0.92149258 0.90259510 1.40816697
v 0.92997813 0.92998606 1.39920911
v 0.90953946 0.92891192 1.40429005
v 0.90260440 0.92150593 1.40816697
v 0.88997465 0.92512411 1.40941915
v 0.86995882 0.94999927 1.40327868
v 0.86995882 0.96679002 1.39376697
v 0.85002756 0.96704447 1.39395961
v 0.72302562 0.96704447 1.39395961
v 0.72302562 1.00489426 1.33640775
v 0.72302562 1.00291562 1.33992347
v 0.85002756 0.99921262 1.34640106
v 0.86995882 0.99895817 1.34596762
v 0.88997465 0.98875368 1.35767063
v 0.90049005 1.00020194 1.31422981
v 0.90074372 1.00034332 1.29771075
v 0.89995438 0.99997580 1.32757029
v 0.91342986 0.97829485 1.36395559
v 0.94522965 0.96260649 1.37274489
v 0.92284578 0.98129117 1.35063919
v 0.90074372 1.00034332 1.18267926
v 0.96699339 0.72222173 1.39395961
v 0.97700131 0.85004628 1.38285860
v 0.97677577 0.86994642 1.38244924
v 0.97308272 0.90805066 1.37570676
v 0.97522527 0.88995963 1.37989673
v 0.96087587 0.92339981 1.38854155
v 0.96665508 0.96667695 1.29771075
v 0.96645772 0.96647912 1.31767329
v 0.97452044 0.94875550 1.33669671
v 0.96445614 0.96450043 1.33768400
v 0.96174979 0.96178675 1.35244521
v 0.95112169 0.96560282 1.35853752
v 0.93674409 0.95833814 1.38608536
v 0.95177007 0.95180839 1.37941512
v 0.94497597 0.94499600 1.38993820
v 0.95098072 0.93004262 1.39172014
v 0.95267218 0.97668362 1.18267926
v 0.95270038 0.97668362 1.27269134
v 0.96524549 0.88995963 1.39246663
v 0.94996583 0.88995963 1.40082249
v 0.93510896 0.88995963 1.40599975
v 0.94996583 0.90994459 1.39656028
v 0.93003452 0.95098865 1.39172014
v 0.90996230 0.94999927 1.39656028
v 0.88997465 0.94999927 1.40082249
v 0.88997465 0.93513072 1.40599975
v 0.88997465 0.96526361 1.39246663
v 0.86995882 0.97679663 1.38244924
v 0.85002756 0.97702277 1.38285860
v 0.72302562 0.97702277 1.38285860
v 0.72302562 0.99921262 1.34640106
v 0.85002756 0.99237192 1.35767063
v 0.86995882 0.98290241 1.37243184
v 0.88997465 0.98134768 1.36990341
v 0.90009534 0.98001909 1.36773619
v 0.93003452 0.96509403 1.37871680
v 0.94229776 0.98103672 1.31767329
v 0.95227748 0.97648573 1.31767329
v 0.95270038 0.97668362 1.29771075
v 0.91075170 0.99579227 1.27266726
v 0.93618023 0.97826654 1.34271678
v 0.94125468 0.98055619 1.32937631
v 0.91075170 0.99579227 1.18267926
v 0.96262372 0.90994459 1.39017901
v 0.94872540 0.97456354 1.33669671
v 0.92340958 0.96088219 1.38854155
v 0.90996230 0.96263474 1.39017901
v 0.88997465 0.97527021 1.37989673
v 0.85002756 0.98312855 1.37286529
v 0.72302562 0.98312855 1.37286529
v 0.72302562 0.99237192 1.35767063
v 0.72302562 0.98912120 1.36301645
v 0.90804529 0.97309363 1.37570676
f 1 2 5
f 1 5 9
f 1 9 16
f 1 16 29
f 1 29 43
f 1 43 63
f 1 63 94
f 1 94 139
f 1 139 112
f 1 112 75
f 1 75 50
f 1 50 35
f 1 35 21
f 1 21 11
f 1 11 6
f 1 6 3
f 1 3 7
f 1 7 13
f 1 13 25
f 1 25 39
f 1 39 56
f 1 56 84
f 1 84 126
f 1 126 168
f 1 168 188
f 1 188 190
f 1 190 189
f 1 189 169
f 1 169 128
f 1 128 127
f 1 127 85
f 1 85 61
f 1 61 41
f 1 41 27
f 1 27 14
f 1 14 8
f 1 8 4
f 1 4 2
f 2 4 8
f 2 8 15
f 2 15 28
f 2 28 42
f 2 42 62
f 2 62 93
f 2 93 138
f 2 138 181
f 2 181 155
f 2 155 109
f 2 109 74
f 2 74 49
f 2 49 33
f 2 33 18
f 2 18 10
f 2 10 5
f 3 6 12
f 3 12 7
f 5 10 20
f 5 20 17
f 5 17 9
f 6 11 22
f 6 22 12
f 7 12 24
f 7 24 13
f 8 14 26
f 8 26 15
f 9 17 30
f 9 30 16
f 10 18 19
f 10 19 31
f 10 31 20
f 11 21 22
f 12 22 23
f 12 23 24
f 13 24 38
f 13 38 25
f 14 27 40
f 14 40 26
f 15 26 40
f 15 40 28
f 16 30 44
f 16 44 29
f 17 20 31
f 17 31 32
f 17 32 30
f 18 33 34
f 18 34 19
f 19 34 46
f 19 46 31
f 21 35 36
f 21 36 22
f 22 36 23
f 23 36 37
f 23 37 38
f 23 38 24
f 25 38 55
f 25 55 39
f 27 41 40
f 28 40 42
f 29 44 64
f 29 64 43
f 30 32 45
f 30 45 44
f 31 46 32
f 32 47 45
f 32 46 48
f 32 48 47
f 33 49 34
f 34 49 67
f 34 67 46
f 35 50 36
f 36 51 52
f 36 52 37
f 36 50 51
f 37 53 54
f 37 54 38
f 37 52 53
f 38 54 55
f 39 55 56
f 40 41 57
f 40 57 58
f 40 58 59
f 40 59 60
f 40 60 42
f 41 61 57
f 42 60 62
f 43 64 95
f 43 95 63
f 44 45 65
f 44 65 64
f 45 47 66
f 45 66 65
f 46 67 68
f 46 68 48
f 47 48 69
f 47 69 70
f 47 70 71
f 47 71 72
f 47 72 66
f 48 68 69
f 49 73 100
f 49 100 67
f 49 74 73
f 50 75 51
f 51 75 112
f 51 112 76
f 51 76 77
f 51 77 78
f 51 78 52
f 52 78 79
f 52 79 53
f 53 79 80
f 53 80 81
f 53 81 54
f 54 81 82
f 54 82 55
f 55 82 83
f 55 83 56
f 56 83 84
f 57 61 85
f 57 85 86
f 57 86 87
f 57 87 58
f 58 88 59
f 58 87 89
f 58 89 90
f 58 90 88
f 59 88 91
f 59 91 60
f 60 91 62
f 62 91 92
f 62 92 93
f 63 95 140
f 63 140 94
f 64 65 96
f 64 96 95
f 65 66 97
f 65 97 96
f 66 72 98
f 66 98 99
f 66 99 97
f 67 100 68
f 68 100 101
f 68 101 102
f 68 102 69
f 69 102 103
f 69 103 104
f 69 104 70
f 70 104 105
f 70 105 71
f 71 105 106
f 71 106 107
f 71 107 98
f 71 98 72
f 73 74 108
f 73 108 100
f 74 109 110
f 74 110 111
f 74 111 101
f 74 101 108
f 76 113 114
f 76 114 115
f 76 115 77
f 76 112 139
f 76 139 113
f 77 115 116
f 77 116 79
f 77 79 78
f 79 116 117
f 79 117 118
f 79 118 80
f 80 119 120
f 80 120 121
f 80 121 81
f 80 118 117
f 80 117 119
f 81 121 120
f 81 120 122
f 81 122 82
f 82 123 83
f 82 122 123
f 83 123 124
f 83 124 125
f 83 125 126
f 83 126 84
f 85 127 86
f 86 127 128
f 86 128 129
f 86 129 87
f 87 129 130
f 87 130 131
f 87 131 89
f 88 92 91
f 88 90 132
f 88 132 133
f 88 133 138
f 88 138 92
f 89 134 90
f 89 131 135
f 89 135 136
f 89 136 137
f 89 137 134
f 90 134 132
f 92 138 93
f 94 140 113
f 94 113 139
f 95 96 141
f 95 141 140
f 96 97 141
f 97 99 142
f 97 142 143
f 97 143 141
f 98 144 142
f 98 142 99
f 98 107 144
f 100 108 101
f 101 111 145
f 101 145 146
f 101 146 102
f 102 147 103
f 102 146 148
f 102 148 147
f 103 147 104
f 104 147 105
f 105 149 106
f 105 147 149
f 106 149 150
f 106 150 136
f 106 136 151
f 106 151 152
f 106 152 107
f 107 152 151
f 107 151 153
f 107 153 154
f 107 154 144
f 109 155 110
f 110 145 111
f 110 155 156
f 110 156 177
f 110 177 145
f 113 140 114
f 114 141 157
f 114 157 115
f 114 140 141
f 115 157 158
f 115 158 159
f 115 159 116
f 116 159 117
f 117 159 158
f 117 158 160
f 117 160 154
f 117 154 119
f 119 154 153
f 119 153 161
f 119 161 120
f 120 161 162
f 120 162 163
f 120 163 164
f 120 164 122
f 122 164 123
f 123 164 163
f 123 163 165
f 123 165 124
f 124 165 166
f 124 166 167
f 124 167 125
f 125 167 168
f 125 168 126
f 128 169 129
f 129 169 189
f 129 189 170
f 129 170 171
f 129 171 130
f 130 171 172
f 130 172 131
f 131 172 173
f 131 173 174
f 131 174 135
f 132 134 175
f 132 175 176
f 132 176 177
f 132 177 133
f 133 178 181
f 133 181 138
f 133 177 178
f 134 137 179
f 134 179 180
f 134 180 176
f 134 176 175
f 135 174 136
f 136 174 151
f 136 150 137
f 137 150 179
f 141 143 157
f 142 144 143
f 143 144 182
f 143 182 157
f 144 154 160
f 144 160 158
f 144 158 182
f 145 177 146
f 146 177 176
f 146 176 148
f 147 148 149
f 148 176 183
f 148 183 149
f 149 183 150
f 150 183 179
f 151 184 161
f 151 161 153
f 151 174 184
f 155 181 156
f 156 181 178
f 156 178 177
f 157 182 158
f 161 184 162
f 162 184 163
f 163 184 185
f 163 185 165
f 165 185 186
f 165 186 166
f 166 186 171
f 166 171 187
f 166 187 167
f 167 187 188
f 167 188 168
f 170 189 190
f 170 190 187
f 170 187 171
f 171 186 172
f 172 186 191
f 172 191 173
f 173 191 174
f 174 191 184
f 176 180 183
f 179 183 180
f 184 191 186
f 184 186 185
f 187 190 188

