# https://github.com/mikedh/trimesh
v 0.85065520 1.01097453 0.05701068
v 0.86995602 1.01031089 0.05701068
v 0.86995602 1.01031089 0.03767529
v 0.84996235 1.01097453 0.03767529
v -0.00016224 1.01097453 0.05701068
v 0.88994956 1.00515461 0.05701068
v 0.86995602 1.00982583 0.01767775
v 0.88994956 1.00515461 0.03767529
v 0.84996235 1.01041293 0.01767775
v -0.00016224 1.01097453 0.03767529
v -0.00016224 0.81666982 0.05701068
v 0.89034551 1.00500143 0.05701068
v 0.89192915 1.00382721 0.01575014
v 0.88658434 1.00293374 0.00241843
v 0.86995602 1.00466955 -0.00062755
v 0.90073824 1.00033009 0.03767529
v 0.90044129 1.00022805 0.02112105
v 0.84996235 1.00489926 -0.00103954
v -0.00016224 1.00770712 0.00846627
v -0.00016224 1.01041293 0.01767775
v -0.00016224 0.75025094 0.03262809
v 0.81522095 0.75025094 0.05701068
v 0.90073824 1.00033009 0.05701068
v 0.89994639 0.99997276 0.00778934
v 0.88994956 0.98876679 -0.02230260
v 0.92281038 0.98128766 -0.01528356
v 0.94517946 0.96260256 -0.03740004
v 0.91340744 0.97827560 -0.02860055
v 0.86995602 0.99895173 -0.01061896
v 0.84996235 0.99920696 -0.01104567
v 0.91073501 0.99578649 0.03767529
v 0.94270504 0.98123664 0.03767529
v 0.95230591 0.97648877 0.01767775
v 0.90826058 0.99647570 0.01575014
v -0.00016224 1.00211692 -0.00596908
v -0.00016224 1.00489926 -0.00103954
v -0.00016224 0.75025094 -0.09331665
v 1.01100004 0.75025094 0.05701068
v 0.91073501 0.99578649 0.05701068
v 0.94122034 0.98057294 0.00597945
v 0.93617249 0.97825003 -0.00735226
v 0.90806264 0.97309381 -0.04034302
v 0.88994956 0.98133874 -0.03454539
v 0.86995602 0.98289579 -0.03709105
v 0.93003583 0.96507859 -0.04335961
v 0.95111817 0.96561462 -0.02318546
v 0.95854151 0.95859498 -0.03042522
v 0.93676633 0.95833969 -0.05073175
v 0.84996235 0.99236596 -0.02230260
v -0.00016224 0.99583757 -0.01659319
v -0.00016224 0.99920696 -0.01104567
v 0.94270504 0.98123664 0.05701068
v 0.95270181 0.97666746 0.03767529
v 0.96645981 0.96648252 0.01767775
v 0.96448028 0.96449149 -0.00231978
v 0.94874275 0.97454876 -0.00134859
v -0.00016224 0.83002001 -0.09331665
v 0.84996235 0.75025094 -0.09331665
v 1.01100004 0.75025094 0.03767529
v 1.01100004 0.85000694 0.05701068
v 0.88994956 0.97526348 -0.04453680
v 0.92340422 0.96089232 -0.05318913
v 0.86995602 0.97679508 -0.04709718
v 0.84996235 0.98312557 -0.03750304
v 0.96170890 0.96178573 -0.01710823
v 0.96556902 0.95114136 -0.02318546
v 0.96259964 0.94527036 -0.03740004
v 0.95834363 0.93677014 -0.05073175
v 0.95171201 0.95180500 -0.04406592
v 0.93003583 0.95098817 -0.05636755
v 0.94498152 0.94498956 -0.05460176
v -0.00016224 0.98013902 -0.04241786
v 0.95270181 0.97666746 0.05701068
v 0.96665776 0.96666121 0.03767529
v 0.97665459 0.95272398 0.03767529
v 0.97645664 0.95231557 0.01767775
v 0.97447705 0.94876742 -0.00134859
v -0.00016224 0.85000694 -0.09330192
v 0.84996235 0.83002001 -0.09331665
v 0.86926317 0.75025094 -0.09281632
v 1.01040626 0.75025094 0.01767775
v 1.01100004 0.85000694 0.03767529
v 1.01030719 0.87001938 0.05701068
v 0.88994956 0.96525729 -0.05711803
v 0.90994322 0.96265364 -0.05482248
v 0.90994322 0.94999266 -0.06120876
v 0.88994956 0.94999266 -0.06546137
v 0.86995602 0.96678883 -0.05841294
v 0.84996235 0.97702479 -0.04749450
v 0.97823822 0.93620855 -0.00735226
v 0.98130655 0.92285842 -0.01528356
v 0.96507412 0.93005681 -0.04335961
v 1.00288379 0.88663691 0.00241843
v 0.97823822 0.91343927 -0.02860055
v 0.96081805 0.92342001 -0.05318913
v 0.95092022 0.93005681 -0.05636755
v 0.92993683 0.92998022 -0.06384275
v 0.90954733 0.92890811 -0.06893405
v -0.00016224 0.97702479 -0.04749450
v 0.96665776 0.96666121 0.05701068
v 0.97665459 0.95272398 0.05701068
v 0.99575740 0.91075903 0.03767529
v 1.00021148 0.90049756 0.02112105
v 0.98665142 0.92998022 0.01767775
v 0.99991453 0.89998704 0.00778934
v 0.98051476 0.94126272 0.00597945
v -0.00016224 0.86927915 -0.09281632
v 0.84996235 0.85000694 -0.09330192
v 0.86926317 0.85000694 -0.09281632
v 0.87925994 0.75025094 -0.09227190
v 1.01040626 0.85000694 0.01767775
v 1.00486338 0.75025094 -0.00103954
v 1.00981236 0.87001938 0.01767775
v 1.01030719 0.87001938 0.03767529
v 1.00516033 0.88998079 0.05701068
v 0.86995602 0.94999266 -0.06791875
v 0.88994956 0.93513650 -0.07065573
v 0.84996235 0.94999266 -0.06831607
v 0.84996235 0.96704412 -0.05860421
v -0.00016224 0.97212380 -0.05295369
v 0.98328614 0.92972493 -0.00134859
v 0.97309136 0.90805328 -0.04034302
v 0.98872995 0.88998079 -0.02230260
v 0.98001981 0.90011466 -0.03236756
v 1.00377464 0.89197183 0.01575014
v 1.00466537 0.87001938 -0.00062755
v 0.97526890 0.88998079 -0.04453680
v 0.96259964 0.90999329 -0.05482248
v 0.94993043 0.88998079 -0.06546137
v 0.94993043 0.90999329 -0.06120876
v 0.92884803 0.90955931 -0.06893405
v 0.91588187 0.91594088 -0.07150915
v 0.90261883 0.92150557 -0.07283351
v 0.99575740 0.91075903 0.05701068
v 1.00031042 0.90075284 0.03767529
v 1.00516033 0.88998079 0.03767529
v -0.00016224 0.87928540 -0.09227190
v 0.84996235 0.86927915 -0.09281632
v 0.86609578 0.86619049 -0.09263978
v 0.87925994 0.85000694 -0.09227190
v 0.88994956 0.75025094 -0.08881387
v 1.00486338 0.85000694 -0.00103954
v 0.99922162 0.75025094 -0.01104567
v 1.00031042 0.90075284 0.05701068
v 0.86995602 0.92857629 -0.07524678
v 0.88994956 0.90999329 -0.07923451
v 0.86995602 0.90999329 -0.08158890
v 0.84996235 0.93914407 -0.07202420
v -0.00016224 0.94465768 -0.07014069
v -0.00016224 0.94999266 -0.06831607
v -0.00016224 0.96704412 -0.05860421
v 0.99892473 0.87001938 -0.01061896
v 0.99922162 0.85000694 -0.01104567
v 0.96527207 0.88998079 -0.05711803
v 0.98289025 0.87001938 -0.03709105
v 0.97675359 0.87001938 -0.04709718
v 0.94993043 0.87001938 -0.06791875
v 0.93508369 0.88998079 -0.07065573
v 0.92152369 0.90261620 -0.07283351
v 0.88994956 0.88998079 -0.08531174
v -0.00016224 0.88998079 -0.08881387
v 0.84996235 0.87928540 -0.09227190
v 0.87163860 0.87172967 -0.09209529
v 0.88994956 0.87001938 -0.08840189
v 0.88994956 0.85000694 -0.08881387
v 0.90974522 0.75025094 -0.08205977
v 0.98308814 0.75025094 -0.03750304
v 0.84996235 0.88998079 -0.08881387
v 0.86995602 0.88998079 -0.08840189
v -0.00016224 0.93914407 -0.07202420
v 0.98308814 0.85000694 -0.03750304
v 0.96675676 0.87001938 -0.05841294
v 0.97695148 0.85000694 -0.04749450
v 0.94993043 0.85000694 -0.06831607
v 0.93914181 0.85000694 -0.07202420
v 0.92855114 0.87001938 -0.07524678
v 0.92508686 0.88998079 -0.07406959
v 0.90994322 0.88998079 -0.07923451
v 0.90994322 0.87001938 -0.08158890
v 0.92914498 0.85000694 -0.07543805
v 0.92914498 0.75025094 -0.07543805
v 0.97695148 0.75025094 -0.04749450
v 0.96695471 0.85000694 -0.05860421
v 0.97685254 0.75025094 -0.04762688
v 0.94993043 0.75025094 -0.06831607
v 0.94983149 0.75025094 -0.06836018
v 0.93914181 0.75025094 -0.07202420
v 0.96695471 0.75025094 -0.05860421
f 1 2 3
f 1 3 4
f 1 4 10
f 1 10 5
f 1 5 11
f 1 11 22
f 1 22 38
f 1 38 60
f 1 60 83
f 1 83 115
f 1 115 144
f 1 144 134
f 1 134 101
f 1 101 100
f 1 100 73
f 1 73 52
f 1 52 39
f 1 39 23
f 1 23 12
f 1 12 6
f 1 6 2
f 2 6 8
f 2 8 3
f 3 7 4
f 3 8 7
f 4 7 9
f 4 9 20
f 4 20 10
f 5 10 20
f 5 20 19
f 5 19 36
f 5 36 35
f 5 35 51
f 5 51 50
f 5 50 72
f 5 72 99
f 5 99 120
f 5 120 151
f 5 151 150
f 5 150 149
f 5 149 170
f 5 170 161
f 5 161 137
f 5 137 107
f 5 107 78
f 5 78 57
f 5 57 37
f 5 37 21
f 5 21 11
f 6 12 8
f 7 8 13
f 7 13 14
f 7 14 15
f 7 15 9
f 8 12 16
f 8 16 17
f 8 17 13
f 9 15 18
f 9 18 19
f 9 19 20
f 11 21 22
f 12 23 16
f 13 17 24
f 13 24 14
f 14 25 15
f 14 24 26
f 14 26 27
f 14 27 28
f 14 28 25
f 15 29 30
f 15 30 18
f 15 25 29
f 16 23 39
f 16 39 31
f 16 31 17
f 17 31 32
f 17 32 33
f 17 33 34
f 17 34 24
f 18 30 35
f 18 35 36
f 18 36 19
f 21 37 58
f 21 58 80
f 21 80 110
f 21 110 141
f 21 141 166
f 21 166 181
f 21 181 187
f 21 187 186
f 21 186 185
f 21 185 188
f 21 188 184
f 21 184 182
f 21 182 167
f 21 167 143
f 21 143 112
f 21 112 81
f 21 81 59
f 21 59 38
f 21 38 22
f 24 34 33
f 24 33 40
f 24 40 41
f 24 41 26
f 25 42 43
f 25 43 44
f 25 44 29
f 25 28 45
f 25 45 42
f 26 41 46
f 26 46 27
f 27 46 47
f 27 47 48
f 27 48 45
f 27 45 28
f 29 44 30
f 30 44 49
f 30 49 50
f 30 50 51
f 30 51 35
f 31 39 52
f 31 52 32
f 32 52 73
f 32 73 53
f 32 53 33
f 33 53 54
f 33 54 55
f 33 55 56
f 33 56 40
f 37 57 79
f 37 79 58
f 38 59 82
f 38 82 60
f 40 56 41
f 41 56 46
f 42 61 43
f 42 45 62
f 42 62 61
f 43 61 44
f 44 63 64
f 44 64 49
f 44 61 63
f 45 48 62
f 46 56 65
f 46 65 47
f 47 65 66
f 47 66 67
f 47 67 68
f 47 68 69
f 47 69 48
f 48 70 62
f 48 69 68
f 48 68 71
f 48 71 70
f 49 64 72
f 49 72 50
f 53 73 100
f 53 100 74
f 53 74 54
f 54 74 75
f 54 75 76
f 54 76 55
f 55 65 56
f 55 76 77
f 55 77 65
f 57 78 108
f 57 108 79
f 58 79 109
f 58 109 80
f 59 81 111
f 59 111 82
f 60 82 114
f 60 114 83
f 61 84 63
f 61 62 85
f 61 85 84
f 62 70 86
f 62 86 87
f 62 87 85
f 63 88 89
f 63 89 64
f 63 84 88
f 64 89 72
f 65 77 66
f 66 77 90
f 66 90 91
f 66 91 67
f 67 92 68
f 67 91 93
f 67 93 94
f 67 94 92
f 68 92 95
f 68 95 96
f 68 96 71
f 70 71 97
f 70 97 98
f 70 98 86
f 71 96 97
f 72 89 99
f 74 100 101
f 74 101 75
f 75 101 134
f 75 134 102
f 75 102 103
f 75 103 76
f 76 103 104
f 76 104 105
f 76 105 106
f 76 106 77
f 77 106 90
f 78 107 138
f 78 138 108
f 79 108 109
f 80 109 140
f 80 140 110
f 81 112 142
f 81 142 111
f 82 111 113
f 82 113 114
f 83 114 136
f 83 136 115
f 84 87 116
f 84 116 88
f 84 85 87
f 86 98 87
f 87 117 116
f 87 98 117
f 88 116 118
f 88 118 119
f 88 119 89
f 89 119 120
f 89 120 99
f 90 106 121
f 90 121 105
f 90 105 91
f 91 105 93
f 92 122 95
f 92 94 123
f 92 123 124
f 92 124 122
f 93 105 125
f 93 125 113
f 93 113 126
f 93 126 123
f 93 123 94
f 95 122 127
f 95 127 128
f 95 128 129
f 95 129 130
f 95 130 96
f 96 130 131
f 96 131 97
f 97 131 132
f 97 132 98
f 98 132 133
f 98 133 117
f 102 134 144
f 102 144 135
f 102 135 103
f 103 105 104
f 103 135 136
f 103 136 125
f 103 125 105
f 105 121 106
f 107 137 162
f 107 162 138
f 108 138 139
f 108 139 109
f 109 139 140
f 110 140 165
f 110 165 141
f 111 142 126
f 111 126 113
f 112 143 153
f 112 153 142
f 113 125 136
f 113 136 114
f 115 136 135
f 115 135 144
f 116 145 118
f 116 117 145
f 117 133 146
f 117 146 147
f 117 147 145
f 118 145 148
f 118 148 149
f 118 149 150
f 118 150 151
f 118 151 119
f 119 151 120
f 122 124 127
f 123 126 152
f 123 152 127
f 123 127 124
f 126 153 152
f 126 142 153
f 127 154 128
f 127 152 155
f 127 155 156
f 127 156 154
f 128 154 129
f 129 154 157
f 129 157 158
f 129 158 131
f 129 131 130
f 131 158 159
f 131 159 132
f 132 159 160
f 132 160 146
f 132 146 133
f 137 161 168
f 137 168 162
f 138 162 139
f 139 162 163
f 139 163 140
f 140 163 164
f 140 164 165
f 141 165 166
f 143 167 171
f 143 171 153
f 145 147 168
f 145 168 148
f 146 160 169
f 146 169 147
f 147 169 168
f 148 168 161
f 148 161 170
f 148 170 149
f 152 153 155
f 153 171 155
f 154 156 172
f 154 172 157
f 155 171 156
f 156 171 173
f 156 173 172
f 157 174 175
f 157 175 176
f 157 176 158
f 157 172 174
f 158 176 177
f 158 177 159
f 159 177 178
f 159 178 160
f 160 164 163
f 160 163 169
f 160 178 164
f 162 168 169
f 162 169 163
f 164 178 179
f 164 179 165
f 165 179 176
f 165 176 180
f 165 180 166
f 166 180 181
f 167 182 173
f 167 173 171
f 172 183 174
f 172 173 183
f 173 182 184
f 173 184 183
f 174 185 186
f 174 186 175
f 174 183 188
f 174 188 185
f 175 186 187
f 175 187 181
f 175 181 180
f 175 180 176
f 176 179 178
f 176 178 177
f 183 184 188

