# https://github.com/mikedh/trimesh
v 0.96998918 -0.25373119 1.12835637
v 0.89000410 -0.25373119 1.12835637
v 0.98999715 -0.25377819 1.12835637
v 0.97050226 -0.24014544 1.06726071
v 0.87001169 -0.25406027 1.12835637
v 0.89000410 -0.24014544 1.06726071
v 0.87260795 -0.24014544 1.06662074
v 0.87001169 -0.24014544 1.06645009
v 0.99469209 -0.25401324 1.12835637
v 0.98999715 -0.24014544 1.06691941
v 0.85923821 -0.25598764 1.12835637
v 0.86261171 -0.24014544 1.06179964
v 0.85606676 -0.24014544 1.05744788
v 1.00143909 -0.25579959 1.12835637
v 1.00563657 -0.24014544 1.05800250
v 0.85219580 -0.24014544 1.03765151
v 0.85724831 -0.26120567 1.12835637
v 1.01100004 -0.24014544 1.03765151
v 1.00815511 -0.24014544 1.04942691
v 1.00705135 -0.27004349 1.12835637
v 0.85219580 -0.24014544 0.69249506
v 0.85218024 -0.72039431 1.12835637
v 0.85219580 -0.29002249 1.12835637
v 0.85348612 -0.27935135 1.12835637
v 0.85522729 -0.27004349 1.12835637
v 1.01100004 -0.24014544 0.69249506
v 1.01100004 -0.29002249 1.12835637
v 0.85218024 -0.72039431 0.69249506
v 1.01100004 -0.72039431 1.12835637
v 1.01100004 -0.72039431 0.69249506
f 1 2 5
f 1 5 11
f 1 11 17
f 1 17 25
f 1 25 24
f 1 24 23
f 1 23 22
f 1 22 29
f 1 29 27
f 1 27 20
f 1 20 14
f 1 14 9
f 1 9 3
f 1 3 4
f 1 4 6
f 1 6 2
f 2 6 7
f 2 7 8
f 2 8 5
f 3 9 10
f 3 10 4
f 4 10 15
f 4 15 19
f 4 19 18
f 4 18 26
f 4 26 21
f 4 21 16
f 4 16 13
f 4 13 12
f 4 12 8
f 4 8 7
f 4 7 6
f 5 8 12
f 5 12 13
f 5 13 11
f 9 14 15
f 9 15 10
f 11 13 16
f 11 16 17
f 14 18 19
f 14 19 15
f 14 20 18
f 16 21 28
f 16 28 22
f 16 22 23
f 16 23 24
f 16 24 25
f 16 25 17
f 18 20 27
f 18 27 29
f 18 29 30
f 18 30 26
f 21 26 30
f 21 30 28
f 22 28 30
f 22 30 29

