# https://github.com/mikedh/trimesh
v 0.72296923 0.85201788 1.42863098
v 0.72296923 0.86250675 1.42834279
v 0.00579762 0.86523008 1.42827067
v 0.00579762 0.85201788 1.42863098
v 0.72296923 0.85201788 1.21764764
v 0.72296923 0.86927623 1.42812654
v 0.00579762 0.86927623 1.42812654
v 0.00579762 0.85201788 1.21771970
v 0.72296923 0.85218906 0.69249508
v 0.72296923 0.87926710 1.42762217
v 0.00579762 0.87926710 1.42762217
v 0.00579762 0.85220462 0.69249508
v 0.72296923 1.01100004 0.69249508
v 0.72296923 0.88623887 1.42538842
v 0.00579762 0.89000493 1.42416343
v 0.00579762 1.01100004 0.69249508
v 0.72296923 1.01100004 1.29763105
v 0.72296923 0.89000493 1.42416343
v 0.00579762 0.93704903 1.40809467
v 0.00579762 1.01100004 1.29763105
v 0.00579762 1.01087558 1.30188247
v 0.72296923 1.01040864 1.31766292
v 0.72296923 0.93914992 1.40737411
v 0.00579762 0.93914992 1.40737411
v 0.00579762 1.01040864 1.31766292
v 0.72296923 1.00491524 1.33639786
v 0.72296923 0.94999671 1.40362713
v 0.00579762 0.94770908 1.40441975
v 0.00579762 1.00491524 1.33639786
v 0.72296923 0.99921954 1.34634170
v 0.72296923 0.96703720 1.39397147
v 0.00579762 0.94999671 1.40362713
v 0.00579762 0.99921954 1.34634170
v 0.72296923 0.99237221 1.35765466
v 0.72296923 0.97352654 1.38676581
v 0.00579762 0.96703720 1.39397147
v 0.00579762 0.99237221 1.35765466
v 0.72296923 0.98314393 1.37285873
v 0.72296923 0.97704357 1.38280263
v 0.00579762 0.97494268 1.38518050
v 0.00579762 0.98314393 1.37285873
v 0.00579762 0.97704357 1.38280263
f 1 2 3
f 1 3 4
f 1 4 8
f 1 8 5
f 1 5 9
f 1 9 13
f 1 13 17
f 1 17 22
f 1 22 26
f 1 26 30
f 1 30 34
f 1 34 38
f 1 38 39
f 1 39 35
f 1 35 31
f 1 31 27
f 1 27 23
f 1 23 18
f 1 18 14
f 1 14 10
f 1 10 6
f 1 6 2
f 2 6 3
f 3 6 7
f 3 7 11
f 3 11 15
f 3 15 19
f 3 19 24
f 3 24 28
f 3 28 32
f 3 32 36
f 3 36 40
f 3 40 42
f 3 42 41
f 3 41 37
f 3 37 33
f 3 33 29
f 3 29 25
f 3 25 21
f 3 21 20
f 3 20 16
f 3 16 12
f 3 12 8
f 3 8 4
f 5 8 9
f 6 10 11
f 6 11 7
f 8 12 9
f 9 12 16
f 9 16 13
f 10 14 11
f 11 14 15
f 13 16 20
f 13 20 17
f 14 18 15
f 15 18 19
f 17 20 21
f 17 21 22
f 18 23 19
f 19 23 24
f 21 25 22
f 22 25 29
f 22 29 26
f 23 27 28
f 23 28 24
f 26 29 33
f 26 33 30
f 27 31 36
f 27 36 32
f 27 32 28
f 30 33 37
f 30 37 34
f 31 35 36
f 34 37 41
f 34 41 38
f 35 39 40
f 35 40 36
f 38 41 42
f 38 42 39
f 39 42 40

