# https://github.com/mikedh/trimesh
v 1.01097047 -0.81903040 0.69243684
v 1.01097047 -0.85001779 0.69243684
v 1.01097047 -0.72983861 0.69237551
v 0.81929260 -0.81903040 0.69243684
v 1.01029170 -0.87002468 0.69243684
v 1.01097047 -0.85001779 0.09763738
v 0.85220313 -0.72983861 0.69237551
v 1.01097047 -0.72983861 0.06586733
v 0.70949250 -0.85221934 0.69243684
v 1.00512636 -0.89000410 0.69243684
v 1.01029170 -0.87002468 0.09763738
v 1.01097047 -0.81900293 0.06586733
v 0.82723248 -0.72983861 0.06586733
v 0.70949250 -1.01098132 0.69243684
v 0.70949250 -0.84693551 0.09769878
v 1.00034475 -0.90076435 0.69243684
v 1.00512636 -0.89000410 0.09763738
v 0.78337145 -0.81900293 0.06586733
v 1.00034475 -0.90076435 0.09763738
v 0.97667277 -0.95272183 0.09763738
v 0.96666676 -0.96667439 0.09763738
v 0.95267612 -0.97666407 0.09763738
v 0.90072769 -1.00033116 0.09763738
v 0.88998377 -1.00514710 0.09763738
v 0.86997187 -1.01029336 0.09763738
v 0.85001892 -1.01098132 0.09763738
v 0.85001892 -1.01098132 0.69243684
v 0.70949250 -1.01098132 0.09776005
v 0.70949250 -0.85133874 0.09763738
v 0.97667277 -0.95272183 0.69243684
v 0.71002382 -1.01098132 0.09763738
v 0.96666676 -0.96667439 0.69243684
v 0.95267612 -0.97666407 0.69243684
v 0.93942338 -0.98271847 0.69243684
v 0.90072769 -1.00033116 0.69243684
v 0.88998377 -1.00514710 0.69243684
v 0.86997187 -1.01029336 0.69243684
f 1 2 6
f 1 6 12
f 1 12 8
f 1 8 3
f 1 3 7
f 1 7 4
f 1 4 9
f 1 9 14
f 1 14 27
f 1 27 37
f 1 37 36
f 1 36 35
f 1 35 34
f 1 34 33
f 1 33 32
f 1 32 30
f 1 30 16
f 1 16 10
f 1 10 5
f 1 5 2
f 2 5 11
f 2 11 6
f 3 8 13
f 3 13 7
f 4 7 9
f 5 10 17
f 5 17 11
f 6 11 12
f 7 13 9
f 8 12 18
f 8 18 13
f 9 13 15
f 9 15 29
f 9 29 28
f 9 28 14
f 10 16 19
f 10 19 17
f 11 17 12
f 12 17 19
f 12 19 20
f 12 20 21
f 12 21 22
f 12 22 23
f 12 23 24
f 12 24 25
f 12 25 26
f 12 26 31
f 12 31 18
f 13 18 15
f 14 28 31
f 14 31 26
f 14 26 27
f 15 18 29
f 16 30 20
f 16 20 19
f 18 31 28
f 18 28 29
f 20 30 32
f 20 32 21
f 21 32 33
f 21 33 22
f 22 33 34
f 22 34 23
f 23 34 35
f 23 35 36
f 23 36 24
f 24 36 37
f 24 37 25
f 25 37 27
f 25 27 26

