# https://github.com/mikedh/trimesh
v -0.79372197 0.01539990 1.29030427
v -0.64864248 0.01539990 1.30407992
v -0.79372197 0.01539990 1.42866978
v -0.79372197 0.62815183 1.29030427
v -0.64864248 0.01539990 1.42866978
v -0.64864248 0.11005703 1.30407992
v -0.79372197 0.62815183 1.42866978
v -0.67000109 0.62815183 1.30410698
v -0.64864248 0.11005703 1.42866978
v -0.64864248 0.13147186 1.30552927
v -0.66885078 0.62815183 1.30426952
v -0.65756083 0.62815183 1.30590853
v -0.65234900 0.62815183 1.31769296
v -0.67000109 0.62815183 1.42866978
v -0.64864248 0.12853256 1.42826345
v -0.65926498 0.62815183 1.42816862
v -0.64864248 0.14526851 1.30695149
v -0.64957976 0.62815183 1.33768585
v -0.64864248 0.13141187 1.42732879
v -0.64957976 0.62815183 1.39767811
v -0.64999157 0.62815183 1.39952025
v -0.65405315 0.62815183 1.41767099
v -0.65452176 0.62815183 1.41864624
v -0.64864248 0.15492618 1.31341264
v -0.64864248 0.16698328 1.33768585
v -0.64864248 0.15900519 1.31681248
v -0.64864248 0.15030730 1.41844305
v -0.64864248 0.16698328 1.39767811
f 1 2 5
f 1 5 3
f 1 3 7
f 1 7 4
f 1 4 6
f 1 6 2
f 2 6 10
f 2 10 17
f 2 17 24
f 2 24 26
f 2 26 25
f 2 25 28
f 2 28 27
f 2 27 19
f 2 19 15
f 2 15 9
f 2 9 5
f 3 5 9
f 3 9 14
f 3 14 7
f 4 7 14
f 4 14 16
f 4 16 23
f 4 23 22
f 4 22 21
f 4 21 20
f 4 20 18
f 4 18 13
f 4 13 12
f 4 12 11
f 4 11 8
f 4 8 6
f 6 8 11
f 6 11 12
f 6 12 13
f 6 13 10
f 9 15 16
f 9 16 14
f 10 13 18
f 10 18 17
f 15 19 20
f 15 20 21
f 15 21 22
f 15 22 23
f 15 23 16
f 17 18 24
f 18 25 26
f 18 26 24
f 18 20 28
f 18 28 25
f 19 27 20
f 20 27 28

