# https://github.com/mikedh/trimesh
v -0.85000587 -0.84999305 -0.09329596
v -0.85000587 -0.85143030 -0.09327528
v -0.86901623 -0.85143030 -0.09277973
v -0.86930144 -0.84999305 -0.09277973
v -0.85000587 -0.72908485 -0.09329596
v -0.76823747 -0.84999305 -0.09329596
v -0.76823747 -0.85143030 -0.09327528
v -0.87814122 -0.85143030 -0.09228411
v -0.87930560 -0.84999305 -0.09224287
v -0.86930144 -0.72908485 -0.09277973
v -0.86975288 -0.72908485 -0.09275904
v -0.76823747 -0.72908485 -0.09329596
v -0.76823747 -0.85143030 0.11761305
v -0.87878281 -0.85143030 -0.09222219
v -0.88999897 -0.85143030 -0.08875314
v -0.88999897 -0.84999305 -0.08879444
v -0.87930560 -0.72908485 -0.09224287
v -0.76823747 -0.72908485 0.03664824
v -1.01092875 -0.85143030 0.11761305
v -0.76823747 -0.84471112 0.11761305
v -0.92775834 -0.85143030 -0.07586816
v -0.88999897 -0.72908485 -0.08879444
v -0.93914080 -0.84999305 -0.07200679
v -0.85204947 -0.72908485 0.11761305
v -1.01097631 -0.85001695 0.11761305
v -1.01100004 -0.84999305 0.09764543
v -1.01092875 -0.85143030 0.03766009
v -0.94995296 -0.85143030 -0.06826934
v -0.93914080 -0.72908485 -0.07200679
v -0.94995296 -0.84999305 -0.06828997
v -0.85226333 -0.72908485 0.11761305
v -1.01100004 -0.83001530 0.11761305
v -1.01100004 -0.84999305 0.03766009
v -1.01090503 -0.85143030 0.03621462
v -0.96701479 -0.85143030 -0.05856434
v -0.94995296 -0.72908485 -0.06828997
v -0.95128369 -0.80843270 -0.06754664
v -0.95076090 -0.72908485 -0.06785634
v -0.96701479 -0.84999305 -0.05858496
v -1.01100004 -0.72908485 0.09857461
v -1.01100004 -0.72909677 0.11761305
v -1.01100004 -0.72908485 0.03766009
v -1.01040602 -0.84999305 0.01767185
v -1.01035845 -0.85143030 0.01767185
v -0.97699523 -0.85143030 -0.04745516
v -0.97701895 -0.84999305 -0.04747579
v -0.96701479 -0.72908485 -0.05858496
v -0.96782273 -0.80843270 -0.05771771
v -1.01040602 -0.72908485 0.01767185
v -1.00489295 -0.84999305 -0.00101552
v -1.00489295 -0.85143030 -0.00099489
v -1.01000202 -0.85143030 0.01632961
v -0.98310232 -0.85143030 -0.03744039
v -0.98314983 -0.84999305 -0.03748170
v -0.97701895 -0.72908485 -0.04747579
v -1.00489295 -0.72908485 -0.00101552
v -0.99947500 -0.72908485 -0.01055536
v -0.99964130 -0.80843270 -0.01024565
v -0.99918985 -0.84999305 -0.01100966
v -0.99918985 -0.85143030 -0.01098898
v -0.99869084 -0.85143030 -0.01183561
v -0.98314983 -0.72908485 -0.03748170
f 1 2 3
f 1 3 4
f 1 4 10
f 1 10 5
f 1 5 12
f 1 12 6
f 1 6 7
f 1 7 2
f 2 7 13
f 2 13 19
f 2 19 27
f 2 27 34
f 2 34 44
f 2 44 52
f 2 52 51
f 2 51 60
f 2 60 61
f 2 61 53
f 2 53 45
f 2 45 35
f 2 35 28
f 2 28 21
f 2 21 15
f 2 15 14
f 2 14 8
f 2 8 3
f 3 8 9
f 3 9 4
f 4 9 11
f 4 11 10
f 5 10 11
f 5 11 17
f 5 17 22
f 5 22 29
f 5 29 36
f 5 36 38
f 5 38 47
f 5 47 55
f 5 55 62
f 5 62 57
f 5 57 56
f 5 56 49
f 5 49 42
f 5 42 40
f 5 40 31
f 5 31 24
f 5 24 18
f 5 18 12
f 6 12 18
f 6 18 20
f 6 20 13
f 6 13 7
f 8 14 9
f 9 14 15
f 9 15 16
f 9 16 22
f 9 22 17
f 9 17 11
f 13 20 24
f 13 24 31
f 13 31 41
f 13 41 32
f 13 32 25
f 13 25 19
f 15 21 16
f 16 21 23
f 16 23 29
f 16 29 22
f 18 24 20
f 19 25 26
f 19 26 33
f 19 33 27
f 21 28 23
f 23 28 30
f 23 30 36
f 23 36 29
f 25 32 26
f 26 32 41
f 26 41 40
f 26 40 42
f 26 42 33
f 27 33 34
f 28 35 39
f 28 39 30
f 30 37 38
f 30 38 36
f 30 39 37
f 31 40 41
f 33 42 49
f 33 49 43
f 33 43 44
f 33 44 34
f 35 45 46
f 35 46 39
f 37 39 38
f 38 39 47
f 39 46 48
f 39 48 47
f 43 49 56
f 43 56 50
f 43 50 51
f 43 51 52
f 43 52 44
f 45 53 54
f 45 54 46
f 46 55 48
f 46 54 62
f 46 62 55
f 47 48 55
f 50 56 57
f 50 57 58
f 50 58 59
f 50 59 60
f 50 60 51
f 53 61 54
f 54 61 57
f 54 57 62
f 57 61 59
f 57 59 58
f 59 61 60

