# https://github.com/mikedh/trimesh
v 0.24993396 0.17174536 1.37767556
v 0.24993396 0.17171237 1.33769384
v 0.24993396 0.17169586 1.39767858
v 0.44714433 0.11445984 1.39767858
v 0.44714433 0.11445984 1.33769384
v 0.24993396 0.16884148 1.31784931
v 0.24993396 0.17166287 1.39780059
v 0.44714433 0.11358538 1.40053269
v 0.44714433 0.11059900 1.31769076
v 0.24993396 0.16880849 1.31769076
v 0.24993396 0.16527763 1.41831592
v 0.44714433 0.10830560 1.41768166
v 0.44714433 0.10439527 1.30756727
v 0.24993396 0.16296774 1.30665251
v 0.24993396 0.16489816 1.41882816
v 0.44714433 0.10106242 1.42818329
v 0.44714433 0.10335582 1.30588409
v 0.25001118 0.14999929 1.30485955
v 0.24993396 0.14999929 1.30485955
v 0.24993396 0.14990030 1.42814669
v 0.25599602 0.15598854 1.42565849
v 0.44714433 0.08999140 1.42867115
v 0.24993396 0.14947131 1.42828086
v 0.44714433 0.08999140 1.30407891
v 0.27001214 0.12998566 1.30407891
v 0.24993396 0.12998566 1.30407891
v 0.44714433 0.00318865 1.42867115
v 0.27001214 0.12998566 1.42867115
v 0.24993396 0.13411048 1.42859796
v 0.44714433 0.00318865 1.30407891
v 0.24993396 0.00322165 1.30407891
v 0.24993396 0.00318865 1.42867115
v 0.25001118 0.12998566 1.42867115
v 0.24993396 0.12990317 1.42867115
v 0.25001118 0.00318865 1.30407891
v 0.24993396 0.00318865 1.30564013
f 1 2 6
f 1 6 10
f 1 10 14
f 1 14 19
f 1 19 26
f 1 26 31
f 1 31 36
f 1 36 32
f 1 32 34
f 1 34 29
f 1 29 23
f 1 23 20
f 1 20 15
f 1 15 11
f 1 11 7
f 1 7 3
f 1 3 4
f 1 4 5
f 1 5 2
f 2 5 6
f 3 7 4
f 4 8 12
f 4 12 16
f 4 16 22
f 4 22 27
f 4 27 30
f 4 30 24
f 4 24 17
f 4 17 13
f 4 13 9
f 4 9 5
f 4 7 8
f 5 9 6
f 6 9 10
f 7 11 12
f 7 12 8
f 9 13 14
f 9 14 10
f 11 15 16
f 11 16 12
f 13 17 14
f 14 18 19
f 14 17 18
f 15 20 21
f 15 21 16
f 16 21 20
f 16 20 23
f 16 23 22
f 17 24 18
f 18 25 26
f 18 26 19
f 18 24 25
f 22 23 28
f 22 28 33
f 22 33 34
f 22 34 32
f 22 32 27
f 23 29 28
f 24 30 35
f 24 35 31
f 24 31 26
f 24 26 25
f 27 32 36
f 27 36 35
f 27 35 30
f 28 29 33
f 29 34 33
f 31 35 36

