# https://github.com/mikedh/trimesh
v -0.89002413 -0.25910944 1.10581243
v -0.98997509 -0.25910944 1.10581243
v -0.87815142 -0.25925428 1.10581243
v -0.85220444 0.72978818 1.06725612
v -0.93429130 0.73007786 1.06725612
v -0.99428391 -0.25925428 1.10581243
v -1.01100004 0.72978818 1.06725612
v -0.87002134 -0.25939912 1.10581243
v -0.85217297 0.73007786 1.05754623
v -0.85986274 -0.25983369 1.10581243
v -0.85827446 -0.26388952 1.10581243
v -0.85596281 -0.26997325 1.10581243
v -0.85443747 -0.27808490 1.10581243
v -0.85222018 -0.28996268 1.10581243
v -0.85034883 -0.74971962 1.10581243
v -1.01100004 0.73007786 1.05762714
v -1.00057411 -0.25954399 1.10581243
v -1.01100004 -0.28996268 1.10581243
v -1.00606227 -0.26997325 1.10581243
v -0.85217297 0.73007786 0.69253550
v -1.01100004 -0.74971962 1.10581243
v -0.85034883 -0.74971962 0.69249505
v -1.01100004 0.73007786 0.69253550
v -0.85223591 0.01509346 0.69249505
v -0.85472047 0.01538316 0.69249505
v -1.01100004 -0.74971962 0.69249505
v -1.01100004 0.01538316 0.69249505
f 1 2 6
f 1 6 17
f 1 17 19
f 1 19 18
f 1 18 21
f 1 21 15
f 1 15 14
f 1 14 13
f 1 13 12
f 1 12 11
f 1 11 10
f 1 10 8
f 1 8 3
f 1 3 4
f 1 4 5
f 1 5 2
f 2 5 7
f 2 7 6
f 3 8 4
f 4 9 5
f 4 8 10
f 4 10 11
f 4 11 12
f 4 12 13
f 4 13 14
f 4 14 15
f 4 15 9
f 5 9 20
f 5 20 23
f 5 23 16
f 5 16 7
f 6 7 17
f 7 16 23
f 7 23 27
f 7 27 26
f 7 26 21
f 7 21 18
f 7 18 19
f 7 19 17
f 9 15 22
f 9 22 20
f 15 21 26
f 15 26 22
f 20 22 24
f 20 24 25
f 20 25 27
f 20 27 23
f 22 26 27
f 22 27 25
f 22 25 24

