# https://github.com/mikedh/trimesh
v 1.01100004 0.72222173 1.07177880
v 0.85217786 0.72222173 1.07177880
v 1.01100004 0.29003388 1.07177880
v 1.01100004 0.72222173 0.69249505
v 0.85217786 0.72222173 0.69249505
v 0.85222447 -0.24012157 1.03762248
v 0.85222447 0.29003388 1.07177880
v 1.00823283 0.26996934 1.07177880
v 0.98999685 -0.24012157 1.06691524
v 1.00563657 -0.24012157 1.05796775
v 1.00815499 -0.24012157 1.04942867
v 1.01100004 -0.24012157 1.03762248
v 1.01100004 -0.24012157 0.69249505
v 0.85222447 -0.24012157 0.69249505
v 0.85609555 -0.24012157 1.05741086
v 0.85248876 0.28409928 1.07177880
v 1.00319576 0.25339022 1.07177880
v 0.97050160 -0.24012157 1.06724939
v 0.86262506 -0.24012157 1.06182891
v 0.85533381 0.26337537 1.07177880
v 0.87000960 -0.24012157 1.06643259
v 0.99532926 0.24754983 1.07177880
v 0.95049340 -0.24012157 1.06728649
v 0.98999685 0.24528904 1.07177880
v 0.85797668 0.25404960 1.07177880
v 0.87262142 -0.24012157 1.06661823
v 0.94998038 -0.24012157 1.06728649
v 0.97858578 0.24472386 1.07177880
v 0.96997303 0.24444126 1.07177880
v 0.87002516 0.24613684 1.07177880
v 0.89001781 -0.24012157 1.06724939
v 0.89001781 0.24444126 1.07177880
f 1 2 7
f 1 7 16
f 1 16 20
f 1 20 25
f 1 25 30
f 1 30 32
f 1 32 29
f 1 29 28
f 1 28 24
f 1 24 22
f 1 22 17
f 1 17 8
f 1 8 3
f 1 3 12
f 1 12 13
f 1 13 4
f 1 4 5
f 1 5 2
f 2 5 14
f 2 14 6
f 2 6 7
f 3 8 9
f 3 9 10
f 3 10 11
f 3 11 12
f 4 13 14
f 4 14 5
f 6 14 13
f 6 13 12
f 6 12 11
f 6 11 10
f 6 10 9
f 6 9 18
f 6 18 23
f 6 23 27
f 6 27 31
f 6 31 26
f 6 26 21
f 6 21 19
f 6 19 15
f 6 15 7
f 7 15 16
f 8 17 9
f 9 17 18
f 15 19 16
f 16 19 21
f 16 21 20
f 17 22 18
f 18 22 24
f 18 24 23
f 20 21 26
f 20 26 25
f 23 24 28
f 23 28 29
f 23 29 32
f 23 32 27
f 25 26 31
f 25 31 30
f 27 32 31
f 30 31 32

