# https://github.com/mikedh/trimesh
v 0.72296923 0.85201401 1.21769079
v 0.72296923 0.72223049 1.30408284
v 0.71777439 0.72223049 1.30408284
v 0.00579762 0.72223049 1.30410352
v 0.00579762 0.85201401 1.21777341
v 0.72296923 0.85201401 1.42862126
v 0.72296923 0.72223049 1.42868325
v 0.00579762 0.72223049 1.42868325
v 0.00579762 0.85201401 1.42862126
v 0.72296923 0.84999406 1.42866263
v 0.72296923 0.81270802 1.42868325
v 0.00579762 0.81270802 1.42868325
v 0.00579762 0.84999406 1.42866263
f 1 2 3
f 1 3 4
f 1 4 5
f 1 5 9
f 1 9 6
f 1 6 10
f 1 10 11
f 1 11 7
f 1 7 2
f 2 7 8
f 2 8 4
f 2 4 3
f 4 8 12
f 4 12 13
f 4 13 9
f 4 9 5
f 6 9 13
f 6 13 10
f 7 11 12
f 7 12 8
f 10 13 12
f 10 12 11

