# https://github.com/mikedh/trimesh
v 0.44714433 0.00314265 1.30407891
v 0.45364398 -0.11359039 1.30407891
v 0.45364398 -0.12996861 1.30431065
v 0.45364398 -0.13368170 1.30457899
v 0.45364398 -0.14487180 1.30604246
v 0.45364398 -0.14772019 1.30949387
v 0.45364398 -0.15255226 1.31770167
v 0.45364398 -0.15565498 1.33770272
v 0.44714433 0.00314265 1.42865899
v 0.44714433 0.08996762 1.30407891
v 0.47002390 -0.12996861 1.30407891
v 0.49002445 -0.14995821 1.30411550
v 0.58998352 -0.20997781 1.30427405
v 0.55002606 -0.18993735 1.30462774
v 0.49002445 -0.16562434 1.30593267
v 0.47628361 -0.16175866 1.30654248
v 0.50090808 -0.17905244 1.30906704
v 0.47248852 -0.16404755 1.31770167
v 0.49861792 -0.18078183 1.32240924
v 0.45364398 -0.15565498 1.39766946
v 0.59986383 -0.24003847 1.32721433
v 0.66337705 -0.27757615 1.33770272
v 0.66337705 -0.27767789 1.35769167
v 0.45364398 -0.14227772 1.42800042
v 0.45364398 -0.12996861 1.42848822
v 0.45364398 -0.10997904 1.42865899
v 0.44714433 0.08996762 1.42865899
v 0.45364398 -0.14975475 1.41767058
v 0.44714433 0.10334487 1.30589613
v 0.66996390 0.22740233 1.30634734
v 0.66996390 0.20995596 1.30493262
v 0.66996390 0.18996638 1.30409112
v 0.64998519 0.16997680 1.30407891
v 0.53002554 -0.16994777 1.30407891
v 0.62998462 -0.22996739 1.30409112
v 0.66337705 -0.26358855 1.30576196
v 0.62998462 -0.24639648 1.30590829
v 0.57737684 -0.22132050 1.30673763
v 0.53892434 -0.20056795 1.30721328
v 0.63999581 -0.25992632 1.30772546
v 0.66337705 -0.27762699 1.37766835
v 0.66337705 -0.27752531 1.39766946
v 0.59986383 -0.24003847 1.40795055
v 0.49861792 -0.18078183 1.41081652
v 0.63809824 -0.26104534 1.32105550
v 0.66337705 -0.27427000 1.31745770
v 0.66996390 0.00319351 1.30407891
v 0.66996390 0.00314265 1.30476191
v 0.66996390 0.00314265 1.42865899
v 0.47133255 -0.14868660 1.42824432
v 0.47887909 -0.16048707 1.42796382
v 0.49002445 -0.14995821 1.42863461
v 0.47002390 -0.12996861 1.42865899
v 0.44714433 0.10105598 1.42817113
v 0.66996390 0.18991551 1.42865899
v 0.66996390 0.20893867 1.42826870
v 0.47445151 -0.16308112 1.41767058
v 0.44714433 0.11056757 1.31770167
v 0.66996390 0.23803292 1.31770167
v 0.66996390 0.16997680 1.30407891
v 0.66337705 -0.24334463 1.30407891
v 0.66337705 -0.25056732 1.30453017
v 0.66337705 -0.26638606 1.30615219
v 0.61578578 -0.24192044 1.30651811
v 0.65332222 -0.26241866 1.30650589
v 0.66337705 -0.27325273 1.31576249
v 0.66337705 -0.27101469 1.41903648
v 0.63809824 -0.26104534 1.41165802
v 0.53683054 -0.20178869 1.41341427
v 0.57955796 -0.22015062 1.42780527
v 0.66337705 -0.22996739 1.42865899
v 0.66337705 -0.24975350 1.42852482
v 0.66337705 -0.26231694 1.42807361
v 0.61859936 -0.24054711 1.42798820
v 0.62998462 -0.22996739 1.42865899
v 0.53002554 -0.16994777 1.42865899
v 0.66996390 0.20919299 1.42825654
v 0.66996390 0.22185814 1.42670765
v 0.66996390 0.23131886 1.42010972
v 0.66996390 0.23289566 1.41828033
v 0.44714433 0.10726140 1.41917065
v 0.44714433 0.11112706 1.32055548
v 0.66996390 0.23991488 1.32728752
v 0.65768439 -0.26074016 1.42800042
v 0.66996390 0.23864330 1.40658459
v 0.44714433 0.10827868 1.41767058
v 0.44714433 0.11443323 1.33770272
v 0.66996390 0.24189858 1.33770272
v 0.66996390 0.24189858 1.39766946
v 0.44714433 0.11356854 1.40052327
v 0.44714433 0.11443323 1.39766946
v 0.66996390 0.24194945 1.38870558
f 1 2 3
f 1 3 4
f 1 4 5
f 1 5 6
f 1 6 7
f 1 7 8
f 1 8 20
f 1 20 9
f 1 9 27
f 1 27 54
f 1 54 81
f 1 81 86
f 1 86 90
f 1 90 91
f 1 91 87
f 1 87 82
f 1 82 58
f 1 58 29
f 1 29 10
f 1 10 33
f 1 33 60
f 1 60 47
f 1 47 61
f 1 61 34
f 1 34 11
f 1 11 2
f 2 11 3
f 3 11 12
f 3 12 4
f 4 12 13
f 4 13 14
f 4 14 15
f 4 15 5
f 5 15 16
f 5 16 6
f 6 16 7
f 7 16 17
f 7 17 18
f 7 18 19
f 7 19 8
f 8 19 21
f 8 21 22
f 8 22 23
f 8 23 20
f 9 24 25
f 9 25 26
f 9 26 53
f 9 53 76
f 9 76 75
f 9 75 71
f 9 71 49
f 9 49 55
f 9 55 27
f 9 20 28
f 9 28 24
f 10 29 30
f 10 30 31
f 10 31 32
f 10 32 33
f 11 34 12
f 12 34 35
f 12 35 13
f 13 35 36
f 13 36 37
f 13 37 14
f 14 37 15
f 15 37 16
f 16 37 38
f 16 38 39
f 16 39 17
f 17 39 40
f 17 40 19
f 17 19 18
f 19 40 21
f 20 23 41
f 20 41 42
f 20 42 43
f 20 43 44
f 20 44 28
f 21 40 45
f 21 45 22
f 22 45 40
f 22 40 46
f 22 46 47
f 22 47 48
f 22 48 23
f 23 48 49
f 23 49 41
f 24 50 25
f 24 28 51
f 24 51 50
f 25 50 52
f 25 52 53
f 25 53 26
f 27 55 56
f 27 56 54
f 28 44 57
f 28 57 51
f 29 58 59
f 29 59 30
f 30 59 83
f 30 83 88
f 30 88 92
f 30 92 89
f 30 89 85
f 30 85 80
f 30 80 79
f 30 79 78
f 30 78 77
f 30 77 56
f 30 56 55
f 30 55 49
f 30 49 48
f 30 48 47
f 30 47 60
f 30 60 32
f 30 32 31
f 32 60 33
f 34 61 35
f 35 61 62
f 35 62 36
f 36 63 37
f 36 62 47
f 36 47 63
f 37 63 64
f 37 64 38
f 38 64 40
f 38 40 39
f 40 64 65
f 40 65 63
f 40 63 66
f 40 66 46
f 41 49 42
f 42 49 67
f 42 67 68
f 42 68 43
f 43 68 44
f 44 69 70
f 44 70 57
f 44 68 69
f 46 66 47
f 47 66 63
f 47 62 61
f 49 71 72
f 49 72 73
f 49 73 67
f 50 51 52
f 51 57 70
f 51 70 74
f 51 74 52
f 52 74 75
f 52 75 76
f 52 76 53
f 54 56 77
f 54 77 78
f 54 78 79
f 54 79 80
f 54 80 81
f 58 82 83
f 58 83 59
f 63 65 64
f 67 73 84
f 67 84 74
f 67 74 70
f 67 70 68
f 68 70 69
f 71 75 72
f 72 75 73
f 73 75 74
f 73 74 84
f 80 85 86
f 80 86 81
f 82 87 83
f 83 87 88
f 85 89 86
f 86 89 90
f 87 91 92
f 87 92 88
f 89 92 91
f 89 91 90

