# https://github.com/mikedh/trimesh
v -1.01100004 -0.68564379 1.23739377
v -1.01097298 -0.85026169 1.23739377
v -1.01100004 -0.68564379 1.29770538
v -1.01100004 0.01517022 1.23739377
v -1.01091897 -0.85153449 1.23739377
v -1.01091897 -0.85153449 1.29770538
v -1.01097298 -0.84992230 1.29770538
v -1.01040590 -0.84992230 1.31770316
v -1.01100004 0.01533991 1.29770538
v -1.01100004 0.01533991 1.23771205
v -1.00851536 0.01533991 1.23739377
v -0.73511964 -0.85153449 1.23739377
v -1.01035190 -0.85153449 1.31770316
v -1.00486934 -0.85153449 1.33635279
v -1.00489640 -0.84992230 1.33639023
v -1.00894749 0.01533991 1.32270261
v -1.01040590 0.01533991 1.31770316
v -0.84703821 0.01533991 1.23739377
v -0.73511964 -0.85153449 1.42857095
v -0.73511964 -0.84661293 1.23739377
v -0.73509264 -0.68564379 1.30375340
v -0.99917078 -0.85153449 1.34633294
v -0.99919784 -0.84992230 1.34637037
v -1.00368106 -0.68564379 1.33854356
v -1.00489640 0.01533991 1.33639023
v -0.73509264 0.01533991 1.30375340
v -0.73509264 -0.68564379 1.42866459
v -0.73511964 -0.85034657 1.42866459
v -0.82478416 -0.85111022 1.42864588
v -0.82478416 -0.85153449 1.42858967
v -0.98380363 -0.85153449 1.37166718
v -0.98312843 -0.84992230 1.37282809
v -0.99236494 -0.68564379 1.35766128
v -0.99773943 -0.68564379 1.34880456
v -0.99919784 -0.68564379 1.34638908
v -0.99919784 0.01533991 1.34638908
v -1.00338399 0.01533991 1.33904913
v -0.73509264 0.01533991 1.42866459
v -0.73511964 -0.78195369 1.42868331
v -0.82478416 -0.78195369 1.42868331
v -0.85003603 -0.84992230 1.42866459
v -0.85003603 -0.85153449 1.42858967
v -0.97699773 -0.85153449 1.38280830
v -0.97699773 -0.84992230 1.38284573
v -0.98183209 -0.68564379 1.37500015
v -0.98990726 0.01533991 1.36172446
v -0.85000902 0.01533991 1.42866459
v -0.73511964 -0.68564379 1.42868331
v -0.82478416 -0.68564379 1.42868331
v -0.85003603 -0.68564379 1.42866459
v -0.86513317 -0.68564379 1.42827138
v -0.86929232 -0.84992230 1.42815903
v -0.86899525 -0.85153449 1.42814031
v -0.85154849 -0.85153449 1.42857095
v -0.96700501 -0.85153449 1.39393064
v -0.96700501 -0.84992230 1.39394936
v -0.97489119 -0.68564379 1.38524243
v -0.97699773 0.01533991 1.38284573
v -0.98148096 0.01533991 1.37552443
v -0.86929232 0.01533991 1.42815903
v -0.87923104 -0.84992230 1.42761603
v -0.87655729 0.01533991 1.42776581
v -0.87925804 -0.68564379 1.42761603
v -0.87871790 -0.85153449 1.42759731
v -0.94996333 -0.85153449 1.40362993
v -0.94996333 -0.84992230 1.40364864
v -0.94999039 -0.68564379 1.40366736
v -0.96703202 -0.68564379 1.39394936
v -0.96703202 0.01533991 1.39394936
v -0.88997996 -0.84992230 1.42415199
v -0.88997996 -0.85153449 1.42413327
v -0.88006824 -0.85153449 1.42729768
v -0.88768435 -0.68564379 1.42490098
v -0.87925804 0.01533991 1.42761603
v -0.88711721 0.01533991 1.42508820
v -0.90999246 -0.85153449 1.41729882
v -0.90567124 -0.68564379 1.41879675
v -0.94710058 0.01533991 1.40465978
v -0.94999039 0.01533991 1.40366736
v -0.88997996 -0.68564379 1.42415199
v -0.88995296 0.01533991 1.42415199
v -0.90461797 0.01533991 1.41915253
f 1 2 3
f 1 3 9
f 1 9 10
f 1 10 4
f 1 4 11
f 1 11 18
f 1 18 20
f 1 20 12
f 1 12 5
f 1 5 2
f 2 5 6
f 2 6 7
f 2 7 3
f 3 7 8
f 3 8 17
f 3 17 9
f 4 10 11
f 5 12 19
f 5 19 30
f 5 30 42
f 5 42 54
f 5 54 53
f 5 53 64
f 5 64 72
f 5 72 71
f 5 71 76
f 5 76 65
f 5 65 55
f 5 55 43
f 5 43 31
f 5 31 22
f 5 22 14
f 5 14 13
f 5 13 6
f 6 13 8
f 6 8 7
f 8 13 14
f 8 14 15
f 8 15 16
f 8 16 17
f 9 17 16
f 9 16 25
f 9 25 37
f 9 37 36
f 9 36 46
f 9 46 59
f 9 59 58
f 9 58 69
f 9 69 79
f 9 79 78
f 9 78 82
f 9 82 81
f 9 81 75
f 9 75 74
f 9 74 62
f 9 62 60
f 9 60 47
f 9 47 38
f 9 38 26
f 9 26 18
f 9 18 11
f 9 11 10
f 12 20 26
f 12 26 21
f 12 21 27
f 12 27 19
f 14 22 23
f 14 23 15
f 15 23 24
f 15 24 25
f 15 25 16
f 18 26 20
f 19 27 28
f 19 28 29
f 19 29 30
f 21 26 38
f 21 38 27
f 22 31 23
f 23 32 33
f 23 33 34
f 23 34 35
f 23 35 24
f 23 31 32
f 24 35 36
f 24 36 37
f 24 37 25
f 27 38 48
f 27 48 39
f 27 39 28
f 28 39 40
f 28 40 41
f 28 41 29
f 29 42 30
f 29 41 42
f 31 43 32
f 32 44 45
f 32 45 33
f 32 43 44
f 33 45 46
f 33 46 34
f 34 46 36
f 34 36 35
f 38 47 49
f 38 49 48
f 39 48 49
f 39 49 40
f 40 49 50
f 40 50 41
f 41 50 51
f 41 51 52
f 41 52 53
f 41 53 54
f 41 54 42
f 43 55 44
f 44 55 56
f 44 56 57
f 44 57 58
f 44 58 45
f 45 58 59
f 45 59 46
f 47 60 51
f 47 51 50
f 47 50 49
f 51 60 52
f 52 61 53
f 52 60 62
f 52 62 63
f 52 63 61
f 53 61 64
f 55 65 66
f 55 66 56
f 56 66 67
f 56 67 68
f 56 68 57
f 57 68 69
f 57 69 58
f 61 70 71
f 61 71 72
f 61 72 64
f 61 63 73
f 61 73 70
f 62 74 63
f 63 74 75
f 63 75 73
f 65 76 66
f 66 76 70
f 66 70 67
f 67 70 77
f 67 77 78
f 67 78 79
f 67 79 69
f 67 69 68
f 70 76 71
f 70 73 75
f 70 75 80
f 70 80 78
f 70 78 77
f 75 81 80
f 78 80 82
f 80 81 82

