# https://github.com/mikedh/trimesh
v -0.77759326 0.00022091 -0.09330055
v -0.76823306 -0.76949084 -0.09331665
v -0.77759326 0.00022091 0.03960410
v -0.77759326 0.72951192 -0.09331665
v -0.00016224 -0.76949084 -0.09331665
v -0.76823306 -0.76949084 0.04050538
v -0.77759326 0.82471144 0.07106796
v -0.77759326 0.82486749 -0.09331665
v -0.00016224 -0.76949084 0.03701296
v -0.00016224 0.82486749 -0.09331665
v -0.77751720 0.82486749 0.07110014
v -0.77759326 0.82486749 0.03146049
v -0.00016224 0.82486749 0.06271514
f 1 2 6
f 1 6 3
f 1 3 7
f 1 7 12
f 1 12 8
f 1 8 4
f 1 4 2
f 2 5 9
f 2 9 6
f 2 4 8
f 2 8 10
f 2 10 5
f 3 6 7
f 5 10 13
f 5 13 9
f 6 9 11
f 6 11 7
f 7 11 12
f 8 12 11
f 8 11 13
f 8 13 10
f 9 13 11

