# https://github.com/mikedh/trimesh
v 0.00579762 0.16997743 1.42865899
v 0.00579762 0.16997743 1.30407891
v -0.11001669 0.16997743 1.42865899
v 0.00579762 0.01533994 1.42865899
v 0.00579762 0.01533994 1.30407891
v -0.11001669 0.16997743 1.30407891
v -0.12109849 0.16997743 1.42817113
v -0.64860457 0.15026933 1.41843888
v -0.64469713 0.13526876 1.42565879
v -0.64860457 0.13136347 1.42731747
v -0.64860457 0.12848747 1.42824432
v -0.64860457 0.10997517 1.42865899
v -0.64860457 0.01533994 1.42865899
v -0.64860457 0.01533994 1.30407891
v -0.12334047 0.16997743 1.30589613
v -0.64860457 0.10997517 1.30407891
v -0.64860457 0.13157538 1.30555460
v -0.64860457 0.14522877 1.30695715
v -0.64860457 0.15490118 1.31342092
v -0.64860457 0.15897298 1.31682357
v -0.64860457 0.16695008 1.33770272
v -0.12827283 0.16997743 1.41767058
v -0.64860457 0.16693494 1.39766946
v -0.13051480 0.16997743 1.31770167
v -0.64860457 0.16696522 1.34150782
v -0.13435820 0.16997743 1.39766946
v -0.64860457 0.16696522 1.37766835
v -0.13435820 0.16997743 1.33770272
f 1 2 6
f 1 6 15
f 1 15 24
f 1 24 28
f 1 28 26
f 1 26 22
f 1 22 7
f 1 7 3
f 1 3 12
f 1 12 13
f 1 13 4
f 1 4 5
f 1 5 2
f 2 5 14
f 2 14 16
f 2 16 6
f 3 7 8
f 3 8 9
f 3 9 10
f 3 10 11
f 3 11 12
f 4 13 14
f 4 14 5
f 6 16 17
f 6 17 18
f 6 18 19
f 6 19 20
f 6 20 21
f 6 21 15
f 7 22 23
f 7 23 8
f 8 23 27
f 8 27 25
f 8 25 21
f 8 21 20
f 8 20 19
f 8 19 18
f 8 18 17
f 8 17 16
f 8 16 14
f 8 14 13
f 8 13 12
f 8 12 11
f 8 11 10
f 8 10 9
f 15 21 25
f 15 25 24
f 22 26 23
f 23 26 27
f 24 25 28
f 25 27 26
f 25 26 28

