# https://github.com/mikedh/trimesh
v 0.72969306 -1.01098132 0.69249508
v 0.72969306 -0.86157960 0.69249508
v 0.81869406 -1.01098132 0.69249508
v 0.72969306 -1.01098132 1.21734044
v 0.72969306 -0.85218573 0.69259786
v 0.73000675 -0.85218573 0.69249508
v 0.81869406 -0.81946659 0.69249508
v 0.81869406 -1.01098132 1.21744320
v 0.72976279 -1.01098132 1.21744320
v 0.72969306 -1.01043761 1.21744320
v 0.72969306 -0.85201699 1.21744320
v 0.81869406 -0.81944788 1.21744320
f 1 2 6
f 1 6 7
f 1 7 3
f 1 3 8
f 1 8 9
f 1 9 4
f 1 4 10
f 1 10 11
f 1 11 5
f 1 5 2
f 2 5 6
f 3 7 12
f 3 12 8
f 4 9 10
f 5 7 6
f 5 11 7
f 7 11 12
f 8 12 11
f 8 11 10
f 8 10 9

