# https://github.com/mikedh/trimesh
v 0.81868005 -0.79517066 1.42868325
v 0.81868005 -0.85003644 1.42868325
v 0.81868005 -0.79517066 1.26392135
v 0.00579759 -0.79517066 1.42868325
v 0.81868005 -0.86091661 1.42839381
v 0.00579759 -0.85003644 1.42868325
v 0.81868005 -0.81948733 1.21746382
v 0.00579759 -0.79517066 1.28982755
v 0.81868005 -0.86928278 1.42814568
v 0.00579759 -0.86928278 1.42814568
v 0.81868005 -1.01097894 1.21746382
v 0.00579759 -0.85206461 1.21746382
v 0.58570039 -0.87139547 1.42804232
v 0.81868005 -0.87494469 1.42785624
v 0.00579759 -0.87139547 1.42804232
v 0.81868005 -1.01097894 1.29770490
v 0.00579759 -1.01097894 1.21746382
v 0.81868005 -0.87929678 1.42760810
v 0.00579759 -0.87929678 1.42760810
v 0.81868005 -1.01072538 1.30640921
v 0.00579759 -1.01097894 1.29770490
v 0.58570039 -0.88155735 1.42688450
v 0.81868005 -0.88536012 1.42566463
v 0.00579759 -0.89002913 1.42415532
v 0.81868005 -1.01038742 1.31769797
v 0.58570039 -1.01051414 1.31348017
v 0.00579759 -1.01051414 1.31350085
v 0.81868005 -0.89002913 1.42415532
v 0.00579759 -0.94996530 1.40366605
v 0.81868005 -0.94525409 1.40527877
v 0.81868005 -1.00489450 1.33638844
v 0.00579759 -1.01038742 1.31769797
v 0.00579759 -0.95355684 1.40161922
v 0.81868005 -0.94996530 1.40366605
v 0.81868005 -0.99919027 1.34637466
v 0.00579759 -1.00039446 1.34428647
v 0.00579759 -1.00489450 1.33638844
v 0.00579759 -0.96701449 1.39394864
v 0.81868005 -0.96701449 1.39394864
v 0.81868005 -0.99621141 1.35129538
v 0.00579759 -0.99919027 1.34637466
v 0.00579759 -0.96912712 1.39161232
v 0.81868005 -0.97267640 1.38768402
v 0.58570039 -0.96912712 1.39161232
v 0.81868005 -0.99234527 1.35766342
v 0.58570039 -0.98507774 1.36963442
v 0.00579759 -0.99234527 1.35766342
v 0.00579759 -0.97700733 1.38284597
v 0.81868005 -0.97700733 1.38284597
v 0.81868005 -0.98047209 1.37720165
v 0.58570039 -0.97831720 1.38073709
v 0.00579759 -0.98505658 1.36965510
v 0.00579759 -0.97829610 1.38073709
f 1 2 5
f 1 5 9
f 1 9 14
f 1 14 18
f 1 18 23
f 1 23 28
f 1 28 30
f 1 30 34
f 1 34 39
f 1 39 43
f 1 43 49
f 1 49 50
f 1 50 45
f 1 45 40
f 1 40 35
f 1 35 31
f 1 31 25
f 1 25 20
f 1 20 16
f 1 16 11
f 1 11 7
f 1 7 3
f 1 3 8
f 1 8 4
f 1 4 6
f 1 6 2
f 2 6 5
f 3 7 8
f 4 8 12
f 4 12 17
f 4 17 21
f 4 21 27
f 4 27 32
f 4 32 37
f 4 37 36
f 4 36 41
f 4 41 47
f 4 47 52
f 4 52 53
f 4 53 48
f 4 48 42
f 4 42 38
f 4 38 33
f 4 33 29
f 4 29 24
f 4 24 19
f 4 19 15
f 4 15 10
f 4 10 6
f 5 6 10
f 5 10 9
f 7 11 17
f 7 17 12
f 7 12 8
f 9 13 14
f 9 10 15
f 9 15 13
f 11 16 21
f 11 21 17
f 13 15 14
f 14 15 19
f 14 19 18
f 16 20 21
f 18 22 23
f 18 19 22
f 19 24 23
f 19 23 22
f 20 25 26
f 20 26 27
f 20 27 21
f 23 24 28
f 24 29 30
f 24 30 28
f 25 31 37
f 25 37 32
f 25 32 27
f 25 27 26
f 29 33 34
f 29 34 30
f 31 35 36
f 31 36 37
f 33 38 39
f 33 39 34
f 35 40 41
f 35 41 36
f 38 42 44
f 38 44 39
f 39 44 43
f 40 45 46
f 40 46 47
f 40 47 41
f 42 48 43
f 42 43 44
f 43 48 49
f 45 50 46
f 46 51 52
f 46 52 47
f 46 50 51
f 48 53 51
f 48 51 49
f 49 51 50
f 51 53 52

