# https://github.com/mikedh/trimesh
v 0.13454440 -0.59420139 1.39766607
v 0.13454440 -0.59420139 1.33769485
v 0.13364223 -0.59420139 1.40273616
v 0.38982013 -0.75303614 1.39766607
v 0.38982013 -0.75299680 1.37788859
v 0.13123646 -0.59420139 1.31768635
v 0.38982013 -0.75299680 1.33769485
v 0.38982013 -0.75435406 1.31769994
v 0.12931934 -0.59420139 1.41767457
v 0.38982013 -0.75697017 1.41653278
v 0.12631214 -0.59420139 1.30909577
v 0.38982013 -0.75777662 1.30626848
v 0.12244032 -0.59420139 1.42819533
v 0.38147509 -0.75935024 1.42799148
v 0.38982013 -0.75817001 1.41767457
v 0.12435743 -0.59420139 1.30581990
v 0.38982013 -0.75783563 1.30614611
v 0.11003552 -0.59420139 1.42867109
v 0.38982013 -0.77134889 1.42826328
v 0.38982013 -0.77091616 1.42799148
v 0.38982013 -0.77014899 1.42740700
v 0.11390733 -0.59420139 1.30437907
v 0.38982013 -0.76983428 1.29986629
v 0.38982013 -0.78979927 1.29168346
v 0.38982013 -0.79509050 1.28984842
v 0.00583522 -0.59420139 1.42867109
v 0.22998618 -0.69001365 1.42867109
v 0.36997247 -0.76999164 1.42865750
v 0.38982013 -0.78690779 1.42860314
v 0.11003552 -0.59420139 1.30409363
v 0.38982013 -0.79514951 1.29467383
v 0.37974593 -0.79514951 1.28980765
v 0.00579762 -0.59420139 1.30409363
v 0.00579762 -0.59422106 1.42867109
v 0.24998420 -0.70997864 1.42867109
v 0.38982013 -0.79003531 1.42865750
v 0.38982013 -0.79514951 1.42865750
v 0.00579762 -0.79514951 1.28980765
v 0.00579762 -0.72038406 1.42867109
v 0.24998420 -0.72038406 1.42867109
v 0.00579762 -0.79514951 1.42865750
f 1 2 6
f 1 6 11
f 1 11 16
f 1 16 22
f 1 22 30
f 1 30 33
f 1 33 26
f 1 26 18
f 1 18 13
f 1 13 9
f 1 9 3
f 1 3 4
f 1 4 5
f 1 5 7
f 1 7 2
f 2 7 8
f 2 8 6
f 3 9 4
f 4 10 15
f 4 15 21
f 4 21 20
f 4 20 19
f 4 19 29
f 4 29 36
f 4 36 37
f 4 37 31
f 4 31 25
f 4 25 24
f 4 24 23
f 4 23 17
f 4 17 12
f 4 12 8
f 4 8 7
f 4 7 5
f 4 9 10
f 6 8 12
f 6 12 11
f 9 13 10
f 10 14 15
f 10 13 14
f 11 12 16
f 12 17 16
f 13 18 14
f 14 19 20
f 14 20 21
f 14 21 15
f 14 18 19
f 16 17 23
f 16 23 24
f 16 24 25
f 16 25 22
f 18 26 34
f 18 34 39
f 18 39 40
f 18 40 35
f 18 35 27
f 18 27 28
f 18 28 19
f 19 28 29
f 22 25 30
f 25 31 32
f 25 32 30
f 26 33 34
f 27 35 28
f 28 36 29
f 28 35 36
f 30 32 38
f 30 38 33
f 31 37 41
f 31 41 38
f 31 38 32
f 33 38 41
f 33 41 39
f 33 39 34
f 35 40 37
f 35 37 36
f 37 40 39
f 37 39 41

