# https://github.com/mikedh/trimesh
v 0.81870276 0.72222167 1.42868325
v 0.81870276 0.72222167 1.27694037
v 0.66832429 0.72222167 1.42868325
v 0.81870276 0.40033686 1.42868325
v 0.66832429 0.72222167 1.30408028
v 0.81870276 0.40033686 1.27694037
v 0.66832429 0.64999843 1.42868325
v 0.74999028 0.40033686 1.42868325
v 0.66832429 0.63165903 1.30408028
v 0.73553532 0.40033686 1.30587771
v 0.66832429 0.59510630 1.30632338
v 0.66832429 0.61149204 1.30480817
v 0.66832429 0.63008350 1.42863873
v 0.67000234 0.62998897 1.42868325
v 0.73855293 0.40033686 1.42817822
v 0.72686529 0.40033686 1.31768736
v 0.66832429 0.59359378 1.30654618
v 0.66832429 0.61120844 1.42823765
v 0.73419583 0.40033686 1.42308298
v 0.66832429 0.60830939 1.42768797
v 0.72470152 0.40033686 1.32799670
v 0.66832429 0.58666134 1.31626132
v 0.72988290 0.40033686 1.41767582
v 0.66832429 0.59072626 1.41873047
v 0.72267014 0.40033686 1.33769694
v 0.66832429 0.58593661 1.31768736
v 0.72627652 0.40033686 1.40797552
v 0.66832429 0.58291155 1.39768109
v 0.72267014 0.40033686 1.39768109
v 0.66832429 0.58275402 1.35767677
v 0.66832429 0.58281702 1.33769694
v 0.66832429 0.58284855 1.39188763
v 0.66832429 0.58275402 1.37767151
f 1 2 5
f 1 5 3
f 1 3 7
f 1 7 14
f 1 14 8
f 1 8 4
f 1 4 6
f 1 6 2
f 2 6 9
f 2 9 5
f 3 5 9
f 3 9 12
f 3 12 11
f 3 11 17
f 3 17 22
f 3 22 26
f 3 26 31
f 3 31 30
f 3 30 33
f 3 33 32
f 3 32 28
f 3 28 24
f 3 24 20
f 3 20 18
f 3 18 13
f 3 13 7
f 4 8 15
f 4 15 19
f 4 19 23
f 4 23 27
f 4 27 29
f 4 29 25
f 4 25 21
f 4 21 16
f 4 16 10
f 4 10 6
f 6 10 11
f 6 11 12
f 6 12 9
f 7 13 14
f 8 14 13
f 8 13 15
f 10 16 17
f 10 17 11
f 13 18 15
f 15 18 20
f 15 20 19
f 16 21 22
f 16 22 17
f 19 20 23
f 20 24 23
f 21 25 22
f 22 25 26
f 23 24 27
f 24 28 29
f 24 29 27
f 25 29 33
f 25 33 30
f 25 30 31
f 25 31 26
f 28 32 29
f 29 32 33

