# https://github.com/mikedh/trimesh
v 1.01100004 -0.81900847 0.09757510
v 1.01100004 -0.85001725 0.09757510
v 1.01100004 -0.81900847 0.03768203
v 0.81343937 -0.81900847 0.09757510
v 1.01030719 -0.87001324 0.09757510
v 1.01100004 -0.85001725 0.03768203
v 1.01040626 -0.81900847 0.01766780
v -0.00016224 -0.81900847 0.05864927
v -0.00016224 -0.84689760 0.09757510
v 1.01030719 -0.87001324 0.03768203
v 1.00516033 -0.89000928 0.09757510
v 1.00981236 -0.87001324 0.01766780
v 1.01040626 -0.85001725 0.01766780
v 1.00486338 -0.81900847 -0.00101957
v -0.00016224 -0.81900847 -0.09331665
v -0.00016224 -1.01098132 0.09757510
v 1.00516033 -0.89000928 0.03768203
v 1.00031042 -0.90077776 0.09757510
v 1.00377464 -0.89200133 0.01574299
v 1.00288379 -0.88666409 0.00241890
v 1.00466537 -0.87001324 -0.00060848
v 1.00486338 -0.85001725 -0.00101957
v 0.99922162 -0.81900847 -0.01103601
v -0.00016224 -0.85001725 -0.09331665
v 0.84996235 -0.81900847 -0.09331665
v 0.84996235 -1.01098132 0.09757510
v -0.00016224 -1.01098132 0.03768203
v 1.00031042 -0.90077776 0.03768203
v 1.00021148 -0.90051466 0.02112499
v 0.99575740 -0.91077578 0.09757510
v 0.99991453 -0.90000725 0.00778219
v 0.98130655 -0.92285985 -0.01527807
v 0.96259964 -0.94526136 -0.03740391
v 0.97823822 -0.91348201 -0.02860215
v 0.98872995 -0.89000928 -0.02230451
v 0.99892473 -0.87001324 -0.01060620
v 0.99922162 -0.85001725 -0.01103601
v 0.98308814 -0.81900847 -0.03749737
v -0.00016224 -0.86928034 -0.09281209
v 0.84996235 -0.85001725 -0.09331665
v 0.86926317 -0.81900847 -0.09281209
v 0.84996235 -1.01098132 0.03768203
v 0.86995602 -1.01030469 0.09757510
v -0.00016224 -1.01069939 0.02751604
v 0.99575740 -0.91077578 0.03768203
v 0.97665459 -0.95272225 0.03768203
v 0.97645664 -0.95230883 0.01766780
v 0.98665142 -0.92998248 0.01766780
v 0.99645025 -0.90831387 0.01574299
v 0.97665459 -0.95272225 0.09757510
v 0.98051476 -0.94127721 0.00596949
v 0.98328614 -0.92971933 -0.00131861
v 0.97823822 -0.93620300 -0.00733593
v 0.96556902 -0.95116246 -0.02318284
v 0.95854151 -0.95860457 -0.03041485
v 0.95834363 -0.93676680 -0.05072805
v 0.96507412 -0.93005764 -0.04336521
v 0.98001981 -0.90013880 -0.03235832
v 0.97526890 -0.89000928 -0.04454252
v 0.98289025 -0.87001324 -0.03708628
v 0.98308814 -0.85001725 -0.03749737
v 0.97972292 -0.81900847 -0.04299149
v -0.00016224 -0.87927830 -0.09227011
v 0.84996235 -0.86928034 -0.09281209
v 0.86926317 -0.85001725 -0.09281209
v 0.86609578 -0.86617947 -0.09264389
v 0.87925994 -0.81900847 -0.09227011
v 0.84996235 -1.01041746 0.01766780
v 0.86995602 -1.00981605 0.01766780
v 0.86995602 -1.01030469 0.03768203
v 0.88994956 -1.00515532 0.09757510
v -0.00016224 -1.01041746 0.01766780
v 0.96665776 -0.96668565 0.03768203
v 0.96645981 -0.96647888 0.01766780
v 0.96448028 -0.96448684 -0.00230900
v 0.97447705 -0.94875687 -0.00131861
v 0.96665776 -0.96668565 0.09757510
v 0.96170890 -0.96179938 -0.01709077
v 0.95111817 -0.96561444 -0.02318284
v 0.94517946 -0.96260750 -0.03740391
v 0.93676633 -0.95834142 -0.05072805
v 0.95171201 -0.95180142 -0.04405663
v 0.96081805 -0.92342365 -0.05317608
v 0.94498152 -0.94499826 -0.05459634
v 0.95092022 -0.93005764 -0.05637166
v 0.97309136 -0.90808833 -0.04033783
v 0.97675359 -0.87001324 -0.04708401
v 0.96259964 -0.91000527 -0.05482057
v 0.96527207 -0.89000928 -0.05711916
v 0.97695148 -0.85001725 -0.04749516
v 0.97695148 -0.81900847 -0.04749516
v -0.00016224 -0.88455921 -0.09056959
v 0.84996235 -0.87927830 -0.09227011
v 0.87925994 -0.85001725 -0.09227011
v 0.87163860 -0.87172347 -0.09208325
v 0.88994956 -0.81900847 -0.08881298
v 0.84996235 -1.00491107 -0.00101957
v 0.86995602 -1.00466681 -0.00060848
v -0.00016224 -1.00761724 0.00815591
v 0.88658434 -1.00293779 0.00241890
v 0.89192915 -1.00382102 0.01574299
v 0.88994956 -1.00515532 0.03768203
v 0.90073824 -1.00034428 0.09757510
v 0.95270181 -0.97668362 0.03768203
v 0.95230591 -0.97647691 0.01766780
v 0.94874275 -0.97456002 -0.00131861
v 0.95270181 -0.97668362 0.09757510
v 0.93617249 -0.97826225 -0.00733593
v 0.92281038 -0.98130679 -0.01527807
v 0.91340744 -0.97828108 -0.02860215
v 0.93003583 -0.96508819 -0.04336521
v 0.92340422 -0.96089733 -0.05317608
v 0.93003583 -0.95099330 -0.05637166
v 0.94993043 -0.91000527 -0.06121168
v 0.94993043 -0.89000928 -0.06545374
v 0.92993683 -0.92998248 -0.06382790
v 0.92884803 -0.90959179 -0.06892958
v 0.96675676 -0.87001324 -0.05840859
v 0.94993043 -0.87001324 -0.06792048
v 0.96695471 -0.85001725 -0.05859545
v 0.97150767 -0.81900847 -0.05360589
v -0.00016224 -0.89000928 -0.08881298
v 0.84996235 -0.89000928 -0.08881298
v 0.86995602 -0.89000928 -0.08840183
v 0.88994956 -0.85001725 -0.08881298
v 0.88994956 -0.87001324 -0.08840183
v 0.88994956 -0.89000928 -0.08531842
v 0.92914498 -0.81900847 -0.07543281
v 0.84996235 -0.99921674 -0.01103601
v -0.00016224 -1.00491107 -0.00101957
v 0.86995602 -0.99897242 -0.01060620
v 0.88994956 -0.98876768 -0.02230451
v 0.89994639 -0.99998724 0.00778219
v 0.90044129 -1.00023150 0.02112499
v 0.90073824 -1.00034428 0.03768203
v 0.94230914 -0.98104364 0.01766780
v 0.94122034 -0.98057383 0.00596949
v 0.90806264 -0.97309411 -0.04033783
v 0.88994956 -0.97527415 -0.04454252
v 0.90994322 -0.96264511 -0.05482057
v 0.88994956 -0.94999725 -0.06545374
v 0.90994322 -0.94999725 -0.06121168
v 0.90954733 -0.92891127 -0.06892958
v 0.93508369 -0.89000928 -0.07064882
v 0.91588187 -0.91594392 -0.07150844
v 0.92152369 -0.90263832 -0.07283524
v 0.94993043 -0.85001725 -0.06831291
v 0.93854797 -0.87001324 -0.07182613
v 0.96695471 -0.81900847 -0.05859545
v 0.95765078 -0.81900847 -0.06394002
v -0.00016224 -0.94999725 -0.06831291
v 0.86995602 -0.91000527 -0.08158091
v 0.86995602 -0.92857295 -0.07524589
v 0.84996235 -0.94999725 -0.06831291
v 0.88994956 -0.91000527 -0.07922635
v 0.88994956 -0.92513382 -0.07406858
v 0.92914498 -0.85001725 -0.07543281
v 0.92855114 -0.87001324 -0.07524589
v 0.92508686 -0.89000928 -0.07406858
v 0.90994322 -0.89000928 -0.07922635
v 0.90261883 -0.92152548 -0.07283524
v 0.93914181 -0.81900847 -0.07201299
v 0.84996235 -0.98314852 -0.03749737
v -0.00016224 -0.99921674 -0.01103601
v 0.86995602 -0.99186856 -0.02230451
v 0.88994956 -0.98134434 -0.03454474
v 0.86995602 -0.98288542 -0.03708628
v 0.86995602 -0.97679639 -0.04708401
v 0.88994956 -0.96527612 -0.05711916
v 0.86995602 -0.94999725 -0.06792048
v 0.88994956 -0.93513179 -0.07064882
v 0.94399178 -0.81900847 -0.07034984
v 0.94993043 -0.81900847 -0.06831291
v 0.93914181 -0.85001725 -0.07201299
v -0.00016224 -0.96704268 -0.05859545
v 0.86995602 -0.96679837 -0.05840859
v 0.84996235 -0.96704268 -0.05859545
v 0.84996235 -0.97704071 -0.04749516
v -0.00016224 -0.98314852 -0.03749737
v -0.00016224 -0.98004764 -0.04258034
v -0.00016224 -0.97704071 -0.04749516
f 1 2 6
f 1 6 3
f 1 3 7
f 1 7 14
f 1 14 23
f 1 23 38
f 1 38 62
f 1 62 91
f 1 91 121
f 1 121 149
f 1 149 150
f 1 150 173
f 1 173 172
f 1 172 162
f 1 162 128
f 1 128 96
f 1 96 67
f 1 67 41
f 1 41 25
f 1 25 15
f 1 15 8
f 1 8 4
f 1 4 9
f 1 9 16
f 1 16 26
f 1 26 43
f 1 43 71
f 1 71 103
f 1 103 107
f 1 107 77
f 1 77 50
f 1 50 30
f 1 30 18
f 1 18 11
f 1 11 5
f 1 5 2
f 2 5 10
f 2 10 6
f 3 6 13
f 3 13 7
f 4 8 9
f 5 11 17
f 5 17 10
f 6 10 12
f 6 12 13
f 7 13 22
f 7 22 14
f 8 15 24
f 8 24 39
f 8 39 63
f 8 63 92
f 8 92 122
f 8 122 151
f 8 151 175
f 8 175 181
f 8 181 180
f 8 180 179
f 8 179 164
f 8 164 130
f 8 130 99
f 8 99 72
f 8 72 44
f 8 44 27
f 8 27 16
f 8 16 9
f 10 17 12
f 11 18 28
f 11 28 17
f 12 17 19
f 12 19 20
f 12 20 21
f 12 21 13
f 13 21 22
f 14 22 37
f 14 37 23
f 15 25 40
f 15 40 24
f 16 27 42
f 16 42 26
f 17 28 29
f 17 29 19
f 18 30 45
f 18 45 28
f 19 29 31
f 19 31 20
f 20 31 32
f 20 32 33
f 20 33 34
f 20 34 35
f 20 35 21
f 21 35 36
f 21 36 37
f 21 37 22
f 23 37 61
f 23 61 38
f 24 40 64
f 24 64 39
f 25 41 65
f 25 65 40
f 26 42 70
f 26 70 43
f 27 44 42
f 28 45 29
f 29 45 46
f 29 46 47
f 29 47 48
f 29 48 49
f 29 49 31
f 30 50 46
f 30 46 45
f 31 49 48
f 31 48 47
f 31 47 51
f 31 51 52
f 31 52 53
f 31 53 32
f 32 53 54
f 32 54 33
f 33 55 56
f 33 56 57
f 33 57 34
f 33 54 55
f 34 57 35
f 35 57 58
f 35 58 59
f 35 59 36
f 36 59 60
f 36 60 37
f 37 60 61
f 38 61 62
f 39 64 93
f 39 93 63
f 40 65 66
f 40 66 64
f 41 67 94
f 41 94 65
f 42 68 69
f 42 69 70
f 42 44 68
f 43 70 102
f 43 102 71
f 44 72 68
f 46 50 77
f 46 77 73
f 46 73 74
f 46 74 47
f 47 74 75
f 47 75 76
f 47 76 51
f 51 76 53
f 51 53 52
f 53 76 54
f 54 78 55
f 54 76 78
f 55 78 79
f 55 79 80
f 55 80 81
f 55 81 82
f 55 82 56
f 56 83 57
f 56 82 81
f 56 81 84
f 56 84 85
f 56 85 83
f 57 83 86
f 57 86 58
f 58 86 59
f 59 87 60
f 59 86 83
f 59 83 88
f 59 88 89
f 59 89 87
f 60 87 90
f 60 90 61
f 61 90 62
f 62 90 91
f 63 93 92
f 64 66 93
f 65 94 66
f 66 94 95
f 66 95 93
f 67 96 125
f 67 125 94
f 68 97 98
f 68 98 69
f 68 72 99
f 68 99 97
f 69 98 100
f 69 100 101
f 69 101 102
f 69 102 70
f 71 102 135
f 71 135 103
f 73 77 107
f 73 107 104
f 73 104 74
f 74 104 105
f 74 105 75
f 75 105 106
f 75 106 78
f 75 78 76
f 78 106 79
f 79 106 108
f 79 108 109
f 79 109 80
f 80 109 100
f 80 100 110
f 80 110 111
f 80 111 81
f 81 111 112
f 81 112 113
f 81 113 84
f 83 85 114
f 83 114 115
f 83 115 88
f 84 113 116
f 84 116 85
f 85 116 117
f 85 117 114
f 87 89 118
f 87 118 90
f 88 115 89
f 89 115 119
f 89 119 118
f 90 118 120
f 90 120 121
f 90 121 91
f 92 93 123
f 92 123 122
f 93 95 124
f 93 124 123
f 94 125 126
f 94 126 95
f 95 126 127
f 95 127 124
f 96 128 157
f 96 157 125
f 97 129 98
f 97 99 130
f 97 130 164
f 97 164 129
f 98 129 131
f 98 131 132
f 98 132 100
f 100 133 101
f 100 132 110
f 100 109 133
f 101 133 134
f 101 134 102
f 102 134 135
f 103 135 104
f 103 104 107
f 104 136 105
f 104 135 134
f 104 134 136
f 105 137 106
f 105 136 133
f 105 133 137
f 106 137 108
f 108 137 133
f 108 133 109
f 110 132 111
f 111 132 138
f 111 138 112
f 112 138 139
f 112 139 140
f 112 140 141
f 112 141 142
f 112 142 113
f 113 142 143
f 113 143 116
f 114 117 115
f 115 117 144
f 115 144 119
f 116 143 145
f 116 145 117
f 117 145 146
f 117 146 144
f 118 119 147
f 118 147 120
f 119 144 148
f 119 148 147
f 120 149 121
f 120 147 150
f 120 150 149
f 122 123 154
f 122 154 151
f 123 124 152
f 123 152 153
f 123 153 154
f 124 127 155
f 124 155 156
f 124 156 152
f 125 157 158
f 125 158 126
f 126 158 159
f 126 159 160
f 126 160 127
f 127 160 146
f 127 146 145
f 127 145 161
f 127 161 155
f 128 162 174
f 128 174 157
f 129 163 131
f 129 164 179
f 129 179 163
f 131 163 165
f 131 165 139
f 131 139 166
f 131 166 132
f 132 166 138
f 133 136 134
f 138 166 139
f 139 165 167
f 139 167 168
f 139 168 169
f 139 169 140
f 140 169 141
f 141 169 170
f 141 170 171
f 141 171 143
f 141 143 142
f 143 171 161
f 143 161 145
f 144 146 159
f 144 159 158
f 144 158 148
f 146 160 159
f 147 172 173
f 147 173 150
f 147 148 174
f 147 174 172
f 148 158 157
f 148 157 174
f 151 154 177
f 151 177 175
f 152 156 153
f 153 170 154
f 153 156 170
f 154 170 176
f 154 176 177
f 155 161 156
f 156 171 170
f 156 161 171
f 162 172 174
f 163 178 168
f 163 168 167
f 163 167 165
f 163 179 180
f 163 180 178
f 168 178 176
f 168 176 169
f 169 176 170
f 175 177 178
f 175 178 181
f 176 178 177
f 178 180 181

