# https://github.com/mikedh/trimesh
v 0.00579762 -0.59417164 1.30407891
v 0.10999278 -0.59417164 1.30407891
v 0.00581087 -0.59417164 1.42867115
v 0.00579762 -0.58997035 1.42867115
v 0.00579762 -0.28980428 1.30407891
v 0.11387443 -0.59417164 1.30438384
v 0.10999278 -0.28980428 1.30407891
v 0.10999278 -0.59417164 1.42867115
v 0.00579762 -0.28980428 1.42867115
v 0.12431382 -0.59417164 1.30582312
v 0.11217869 -0.28980428 1.30431065
v 0.12879163 -0.28980428 1.30610362
v 0.12240611 -0.59417164 1.42819545
v 0.11017825 -0.28980428 1.42867115
v 0.12628776 -0.59417164 1.30907968
v 0.13731006 -0.28980428 1.31769076
v 0.12928180 -0.59417164 1.41768166
v 0.13296473 -0.28980428 1.41881600
v 0.13279250 -0.28980428 1.41899893
v 0.12276381 -0.28980428 1.42814669
v 0.12264457 -0.28980428 1.42818329
v 0.13120276 -0.59417164 1.31769076
v 0.13883358 -0.28980428 1.32543585
v 0.13358739 -0.59417164 1.40274033
v 0.13960195 -0.28980428 1.40444794
v 0.13448824 -0.59417164 1.33769384
v 0.14107248 -0.28980428 1.33769384
v 0.13448824 -0.59417164 1.39767858
v 0.14097974 -0.28980428 1.39767858
v 0.14111222 -0.28980428 1.34815886
v 0.14113872 -0.28980428 1.35768470
v 0.14112547 -0.28980428 1.37767556
f 1 2 6
f 1 6 10
f 1 10 15
f 1 15 22
f 1 22 26
f 1 26 28
f 1 28 24
f 1 24 17
f 1 17 13
f 1 13 8
f 1 8 3
f 1 3 4
f 1 4 9
f 1 9 5
f 1 5 7
f 1 7 2
f 2 7 6
f 3 8 14
f 3 14 9
f 3 9 4
f 5 9 14
f 5 14 21
f 5 21 20
f 5 20 19
f 5 19 18
f 5 18 25
f 5 25 29
f 5 29 32
f 5 32 31
f 5 31 30
f 5 30 27
f 5 27 23
f 5 23 16
f 5 16 12
f 5 12 11
f 5 11 7
f 6 7 11
f 6 11 12
f 6 12 10
f 8 13 14
f 10 12 16
f 10 16 15
f 13 17 18
f 13 18 19
f 13 19 20
f 13 20 21
f 13 21 14
f 15 16 22
f 16 23 22
f 17 24 25
f 17 25 18
f 22 23 27
f 22 27 26
f 24 28 29
f 24 29 25
f 26 27 30
f 26 30 31
f 26 31 28
f 28 31 32
f 28 32 29

