# https://github.com/mikedh/trimesh
v 0.00579762 0.44771057 1.30408498
v 0.09001869 0.44771057 1.30408498
v 0.00579762 0.44771057 1.42868325
v 0.00579762 0.72219479 1.30408498
v 0.11001913 0.45002145 1.30410936
v 0.11001913 0.44771057 1.30412158
v 0.11001913 0.47001323 1.30408498
v 0.09001869 0.44771057 1.42868325
v 0.00579762 0.72219479 1.42868325
v 0.21709488 0.72219479 1.30408498
v 0.21709488 0.66998506 1.30408498
v 0.20997995 0.64999324 1.30409720
v 0.12267711 0.44771057 1.30592683
v 0.21709488 0.65002012 1.30462167
v 0.10772332 0.44771057 1.42865887
v 0.11001913 0.45002145 1.42865887
v 0.11001913 0.47001323 1.42868325
v 0.21709488 0.72219479 1.42868325
v 0.12840629 0.44771057 1.31768527
v 0.21709488 0.63443512 1.30608538
v 0.11001913 0.44771057 1.42864671
v 0.21709488 0.65708709 1.42867109
v 0.21709488 0.66998506 1.42868325
v 0.13144669 0.44771057 1.33768931
v 0.21709488 0.62621266 1.31768527
v 0.11959535 0.44771057 1.42820760
v 0.21709488 0.64002419 1.42826858
v 0.13146737 0.44771057 1.35769334
v 0.21709488 0.62575585 1.32028338
v 0.21709488 0.62298816 1.33748194
v 0.21709488 0.62296128 1.33768931
v 0.21709488 0.62288070 1.35769334
v 0.12081564 0.44771057 1.42814657
v 0.21709488 0.63682657 1.42807337
v 0.13146737 0.44771057 1.37996617
v 0.21709488 0.62288070 1.37767300
v 0.12600707 0.44771057 1.41886422
v 0.21709488 0.63166744 1.42210880
v 0.12652414 0.44771057 1.41768107
v 0.13144669 0.44771057 1.39767703
v 0.21709488 0.62298816 1.39767703
v 0.21709488 0.62871164 1.41768107
v 0.13099167 0.44771057 1.39997020
v 0.21709488 0.62301505 1.39778682
f 1 2 6
f 1 6 13
f 1 13 19
f 1 19 24
f 1 24 28
f 1 28 35
f 1 35 40
f 1 40 43
f 1 43 39
f 1 39 37
f 1 37 33
f 1 33 26
f 1 26 21
f 1 21 15
f 1 15 8
f 1 8 3
f 1 3 9
f 1 9 4
f 1 4 10
f 1 10 11
f 1 11 7
f 1 7 2
f 2 5 6
f 2 7 5
f 3 8 17
f 3 17 23
f 3 23 18
f 3 18 9
f 4 9 18
f 4 18 10
f 5 7 11
f 5 11 12
f 5 12 6
f 6 12 14
f 6 14 13
f 8 15 16
f 8 16 17
f 10 18 23
f 10 23 22
f 10 22 27
f 10 27 34
f 10 34 38
f 10 38 42
f 10 42 44
f 10 44 41
f 10 41 36
f 10 36 32
f 10 32 31
f 10 31 30
f 10 30 29
f 10 29 25
f 10 25 20
f 10 20 14
f 10 14 11
f 11 14 12
f 13 14 20
f 13 20 19
f 15 21 16
f 16 21 22
f 16 22 17
f 17 22 23
f 19 20 25
f 19 25 24
f 21 26 22
f 22 26 27
f 24 25 29
f 24 29 30
f 24 30 31
f 24 31 32
f 24 32 28
f 26 33 27
f 27 33 34
f 28 32 36
f 28 36 35
f 33 37 34
f 34 37 39
f 34 39 38
f 35 36 40
f 36 41 40
f 38 39 42
f 39 43 42
f 40 41 44
f 40 44 42
f 40 42 43

