# https://github.com/mikedh/trimesh
v -1.01100004 0.29003227 1.06730255
v -1.01045585 0.27964485 1.06730255
v -1.01100004 0.29003227 1.14670306
v -1.01100004 0.72997987 1.06730255
v -1.00877666 0.27004135 1.06730255
v -1.00899434 0.27004135 1.14670306
v -1.01100004 0.73002887 1.14670306
v -1.01100004 0.73002887 1.07768720
v -0.93430114 0.73002887 1.06730255
v -1.00652218 0.25793898 1.06730255
v -1.00073826 0.23143139 1.14670306
v -0.85216033 0.73002887 1.14670306
v -0.85216033 0.73002887 1.07760948
v -0.85217589 0.72997987 1.06730255
v -1.00414336 0.25166732 1.06730255
v -0.98999453 0.24127987 1.06730255
v -0.99004114 0.23010847 1.14670306
v -0.85220701 0.29003227 1.14670306
v -0.85220701 0.29003227 1.06730255
v -0.98952806 0.24123088 1.06730255
v -0.87027389 0.22952050 1.14670306
v -0.96999961 0.24025093 1.06730255
v -0.85244018 0.28101677 1.14670306
v -0.85401058 0.27004135 1.06730255
v -0.86949652 0.22956949 1.14670306
v -0.95039344 0.24020192 1.06730255
v -0.91001493 0.24020192 1.06730255
v -0.89000452 0.24025093 1.06730255
v -0.85452366 0.26097682 1.14670306
v -0.85774213 0.24167185 1.14670306
v -0.85730678 0.25240228 1.06730255
v -0.86030757 0.23549818 1.14670306
v -0.87000960 0.24221082 1.06730255
v -0.86940324 0.24250481 1.06730255
v -0.85956126 0.23598816 1.14670306
f 1 2 3
f 1 3 7
f 1 7 8
f 1 8 4
f 1 4 9
f 1 9 14
f 1 14 19
f 1 19 24
f 1 24 31
f 1 31 34
f 1 34 33
f 1 33 28
f 1 28 27
f 1 27 26
f 1 26 22
f 1 22 20
f 1 20 16
f 1 16 15
f 1 15 10
f 1 10 5
f 1 5 2
f 2 5 6
f 2 6 3
f 3 6 11
f 3 11 17
f 3 17 21
f 3 21 25
f 3 25 32
f 3 32 35
f 3 35 30
f 3 30 29
f 3 29 23
f 3 23 18
f 3 18 12
f 3 12 7
f 4 8 9
f 5 10 6
f 6 10 11
f 7 12 13
f 7 13 9
f 7 9 8
f 9 13 14
f 10 15 11
f 11 15 16
f 11 16 17
f 12 18 19
f 12 19 13
f 13 19 14
f 16 20 17
f 17 20 22
f 17 22 21
f 18 23 19
f 19 23 24
f 21 22 26
f 21 26 27
f 21 27 28
f 21 28 25
f 23 29 24
f 24 29 30
f 24 30 31
f 25 28 33
f 25 33 34
f 25 34 32
f 30 35 31
f 31 35 34
f 32 34 35

