# https://github.com/mikedh/trimesh
v 0.21709488 0.67000115 1.30408498
v 0.21709488 0.72222167 1.30408498
v 0.23002052 0.67000115 1.30408498
v 0.21709488 0.65003073 1.30462167
v 0.21709488 0.72222167 1.42868325
v 0.31000641 0.72222167 1.30408498
v 0.31000641 0.70999050 1.30408498
v 0.44712183 0.72222167 1.30515841
v 0.21709488 0.63445497 1.30608538
v 0.21709488 0.67000115 1.42868325
v 0.32223397 0.72222167 1.42868325
v 0.44712183 0.72222167 1.42831734
v 0.44712183 0.71881872 1.30563411
v 0.21709488 0.62621987 1.31768527
v 0.44712183 0.71701032 1.30589023
v 0.21709488 0.65709913 1.42867109
v 0.23002052 0.67000115 1.42868325
v 0.31000641 0.70999050 1.42868325
v 0.21709488 0.64004552 1.42826858
v 0.44712183 0.72178417 1.42830518
v 0.21709488 0.62578237 1.32028338
v 0.44712183 0.71151698 1.31600204
v 0.44712183 0.71072948 1.31768527
v 0.44712183 0.70777375 1.33483508
v 0.21709488 0.63685650 1.42807337
v 0.44712183 0.71905208 1.42818317
v 0.21709488 0.62300164 1.33748194
v 0.44712183 0.70734596 1.33768931
v 0.21709488 0.63169372 1.42210880
v 0.44712183 0.71280038 1.41768107
v 0.21709488 0.62871861 1.41768107
v 0.21709488 0.62297249 1.33768931
v 0.44712183 0.70726818 1.35483911
v 0.44712183 0.70737511 1.39767703
v 0.21709488 0.62299192 1.39767703
v 0.21709488 0.62290442 1.35769334
v 0.44712183 0.70725846 1.35769334
v 0.44712183 0.70735568 1.39482280
v 0.21709488 0.62289470 1.37767300
v 0.44712183 0.70725846 1.37767300
f 1 2 6
f 1 6 7
f 1 7 3
f 1 3 4
f 1 4 9
f 1 9 14
f 1 14 21
f 1 21 27
f 1 27 32
f 1 32 36
f 1 36 39
f 1 39 35
f 1 35 31
f 1 31 29
f 1 29 25
f 1 25 19
f 1 19 16
f 1 16 10
f 1 10 5
f 1 5 2
f 2 5 11
f 2 11 12
f 2 12 8
f 2 8 6
f 3 7 8
f 3 8 4
f 4 8 9
f 5 10 17
f 5 17 18
f 5 18 11
f 6 8 7
f 8 12 20
f 8 20 26
f 8 26 30
f 8 30 34
f 8 34 38
f 8 38 40
f 8 40 37
f 8 37 33
f 8 33 28
f 8 28 24
f 8 24 23
f 8 23 22
f 8 22 15
f 8 15 13
f 8 13 9
f 9 13 15
f 9 15 14
f 10 16 17
f 11 18 12
f 12 18 16
f 12 16 19
f 12 19 20
f 14 15 22
f 14 22 23
f 14 23 24
f 14 24 21
f 16 18 17
f 19 25 26
f 19 26 20
f 21 24 27
f 24 28 27
f 25 29 26
f 26 29 31
f 26 31 30
f 27 28 32
f 28 33 32
f 30 31 35
f 30 35 34
f 32 33 37
f 32 37 36
f 34 35 38
f 35 39 40
f 35 40 38
f 36 37 39
f 37 40 39

