# https://github.com/mikedh/trimesh
v 0.85217786 0.72222167 1.07177880
v 0.85217786 0.72222167 1.14533576
v 1.01100004 0.72222167 1.07177880
v 0.85220897 0.29001847 1.07177880
v 1.01100004 0.72222167 1.14533576
v 0.85220897 0.29001847 1.14533576
v 1.01100004 0.29001847 1.07177880
v 0.85247326 0.28412086 1.07177880
v 1.01100004 0.29001847 1.14533576
v 0.85388798 0.27002415 1.14533576
v 1.01073575 0.28234679 1.14533576
v 1.00823283 0.27002415 1.07177880
v 0.85531825 0.26340735 1.07177880
v 0.85939139 0.23900180 1.14533576
v 1.00796843 0.26235247 1.14533576
v 1.00356889 0.24470761 1.14533576
v 1.00103474 0.23521391 1.14533576
v 1.00321126 0.25338620 1.07177880
v 0.85797668 0.25410542 1.07177880
v 0.87000960 0.24619401 1.07177880
v 0.86955875 0.23238498 1.14533576
v 0.99870282 0.23353572 1.14533576
v 0.99532926 0.24753654 1.07177880
v 0.89000231 0.24456377 1.07177880
v 0.98999685 0.23276857 1.14533576
v 0.96998858 0.24456377 1.07177880
v 0.98999685 0.24528299 1.07177880
v 0.97858578 0.24480350 1.07177880
f 1 2 5
f 1 5 3
f 1 3 7
f 1 7 12
f 1 12 18
f 1 18 23
f 1 23 27
f 1 27 28
f 1 28 26
f 1 26 24
f 1 24 20
f 1 20 19
f 1 19 13
f 1 13 8
f 1 8 4
f 1 4 6
f 1 6 2
f 2 6 10
f 2 10 14
f 2 14 21
f 2 21 25
f 2 25 22
f 2 22 17
f 2 17 16
f 2 16 15
f 2 15 11
f 2 11 9
f 2 9 5
f 3 5 9
f 3 9 7
f 4 8 6
f 6 8 10
f 7 9 11
f 7 11 15
f 7 15 12
f 8 13 10
f 10 13 14
f 12 15 16
f 12 16 17
f 12 17 18
f 13 19 14
f 14 19 20
f 14 20 21
f 17 22 23
f 17 23 18
f 20 24 21
f 21 24 26
f 21 26 25
f 22 25 27
f 22 27 23
f 25 26 28
f 25 28 27

