# https://github.com/mikedh/trimesh
v -0.85217673 0.72946644 0.69243881
v -0.85197437 0.72946644 0.11753258
v -1.01100004 0.72946644 0.69243881
v -0.85220784 0.00023362 0.69243881
v -1.01100004 0.72946644 0.11753258
v -0.85200548 0.00030503 0.11753258
v -1.01100004 0.00023362 0.69243881
v -0.85203665 0.00023362 0.11770138
v -1.01100004 0.00023362 0.11753258
v -0.85284609 0.00023362 0.11753258
f 1 2 5
f 1 5 3
f 1 3 7
f 1 7 4
f 1 4 2
f 2 4 6
f 2 6 10
f 2 10 9
f 2 9 5
f 3 5 9
f 3 9 7
f 4 7 9
f 4 9 10
f 4 10 8
f 4 8 6
f 6 8 10

