# https://github.com/mikedh/trimesh
v 0.00565258 -0.63809681 1.42863420
v 0.00565258 -0.84998846 1.42863420
v 0.00579762 -0.80947793 1.28318080
v 0.00565258 -0.63809681 1.30413088
v -0.73502016 -0.63809681 1.42863420
v 0.00565258 -0.85153449 1.42861357
v 0.00579762 -0.85153449 1.28318080
v -0.64987862 -0.85153449 1.42863420
v 0.00579762 -0.85153449 1.21964946
v -0.73509264 -0.85153449 1.21779176
v -0.73502016 -0.63809681 1.30375936
v -0.73509264 -0.80918539 1.28318080
v -0.73502016 -0.85153449 1.42863420
v -0.73509264 -0.85153449 1.28318080
f 1 2 7
f 1 7 3
f 1 3 4
f 1 4 11
f 1 11 5
f 1 5 13
f 1 13 8
f 1 8 2
f 2 6 7
f 2 8 6
f 3 9 4
f 3 7 9
f 4 9 10
f 4 10 11
f 5 11 12
f 5 12 14
f 5 14 13
f 6 8 13
f 6 13 14
f 6 14 10
f 6 10 9
f 6 9 7
f 10 14 12
f 10 12 11

