# https://github.com/mikedh/trimesh
v 0.66341025 -0.27766395 1.35716686
v 0.67736471 -0.60425752 1.35765520
v 0.66341025 -0.27766395 1.37766334
v 0.66341025 -0.27756560 1.33770814
v 0.67736471 -0.60425752 1.37766334
v 0.67744362 -0.60425752 1.33770814
v 0.66341025 -0.27756560 1.39767149
v 0.66341025 -0.27432033 1.31745580
v 0.67741209 -0.60425752 1.38422587
v 0.68232143 -0.60425752 1.31770000
v 0.66341025 -0.27333692 1.31576177
v 0.66341025 -0.26635462 1.30614689
v 0.66341025 -0.27107504 1.41905317
v 0.67752260 -0.60425752 1.39767149
v 0.69188744 -0.60425752 1.30562797
v 0.66341025 -0.26360106 1.30576536
v 0.66341025 -0.26232260 1.42807284
v 0.67897487 -0.60425752 1.40162429
v 0.82466006 -0.60425752 1.27276948
v 0.66341025 -0.25061992 1.30452916
v 0.66341025 -0.24334262 1.30408653
v 0.66341025 -0.24973485 1.42854598
v 0.68508387 -0.60425752 1.41767964
v 0.68547851 -0.60425752 1.41816798
v 0.69382912 -0.60425752 1.42824074
v 0.82466006 -0.60425752 1.42868331
v 0.82466006 0.00310227 1.27276948
v 0.66341025 0.00310227 1.30408653
v 0.66341025 -0.22996812 1.42868331
v 0.69760185 -0.60425752 1.42839333
v 0.71002507 -0.60425752 1.42868331
v 0.82466006 0.00310227 1.42868331
v 0.66997707 0.18995197 1.30408653
v 0.81869310 0.40020698 1.27695116
v 0.66341025 0.00310227 1.42868331
v 0.66997707 0.24187650 1.33770814
v 0.66997707 0.23990966 1.32728436
v 0.66997707 0.23804118 1.31770000
v 0.66997707 0.22742023 1.30634531
v 0.66997707 0.20991538 1.30492595
v 0.81869310 0.40020698 1.42866805
v 0.73555040 0.40020698 1.30588743
v 0.74999422 0.40020698 1.42866805
v 0.66997707 0.18995197 1.42866805
v 0.66997707 0.20893194 1.42827126
v 0.66997707 0.20912863 1.42825600
v 0.66997707 0.22181474 1.42671457
v 0.66997707 0.23135392 1.42010620
v 0.66997707 0.23282905 1.41827479
v 0.66997707 0.23863120 1.40658435
v 0.66997707 0.24187650 1.39767149
v 0.72266936 0.40020698 1.33770814
v 0.72686833 0.40020698 1.31770000
v 0.73856544 0.40020698 1.42816439
v 0.67948002 0.24099143 1.42796603
v 0.73419285 0.40020698 1.42308226
v 0.72988337 0.40020698 1.41766432
v 0.72628427 0.40020698 1.40797314
v 0.72266936 0.40020698 1.39767149
f 1 2 5
f 1 5 3
f 1 3 7
f 1 7 13
f 1 13 17
f 1 17 22
f 1 22 29
f 1 29 35
f 1 35 28
f 1 28 21
f 1 21 20
f 1 20 16
f 1 16 12
f 1 12 11
f 1 11 8
f 1 8 4
f 1 4 2
f 2 4 6
f 2 6 10
f 2 10 15
f 2 15 19
f 2 19 26
f 2 26 31
f 2 31 30
f 2 30 25
f 2 25 24
f 2 24 23
f 2 23 18
f 2 18 14
f 2 14 9
f 2 9 5
f 3 5 7
f 4 8 6
f 5 9 7
f 6 8 11
f 6 11 12
f 6 12 10
f 7 9 14
f 7 14 13
f 10 12 16
f 10 16 15
f 13 14 17
f 14 18 17
f 15 16 20
f 15 20 21
f 15 21 19
f 17 18 23
f 17 23 24
f 17 24 25
f 17 25 22
f 19 21 28
f 19 28 27
f 19 27 32
f 19 32 26
f 22 25 29
f 25 30 29
f 26 32 35
f 26 35 29
f 26 29 31
f 27 28 33
f 27 33 34
f 27 34 41
f 27 41 32
f 28 35 51
f 28 51 36
f 28 36 37
f 28 37 38
f 28 38 39
f 28 39 40
f 28 40 33
f 29 30 31
f 32 41 43
f 32 43 35
f 33 40 34
f 34 40 39
f 34 39 42
f 34 42 53
f 34 53 52
f 34 52 59
f 34 59 58
f 34 58 57
f 34 57 56
f 34 56 54
f 34 54 43
f 34 43 41
f 35 43 44
f 35 44 45
f 35 45 46
f 35 46 47
f 35 47 48
f 35 48 49
f 35 49 50
f 35 50 51
f 36 51 59
f 36 59 52
f 36 52 37
f 37 52 38
f 38 52 53
f 38 53 39
f 39 53 42
f 43 54 44
f 44 54 45
f 45 54 55
f 45 55 46
f 46 55 47
f 47 55 54
f 47 54 56
f 47 56 57
f 47 57 48
f 48 57 58
f 48 58 59
f 48 59 49
f 49 59 50
f 50 59 51

