# https://github.com/mikedh/trimesh
v -1.01097882 0.01533997 1.24147937
v -1.01065981 0.74982369 1.23766497
v -0.84503770 0.01533997 1.24147937
v -1.01097882 0.01533997 1.29770413
v -1.01097882 0.74990249 1.23766497
v -0.84565443 0.74982369 1.23766497
v -0.79372203 0.01533997 1.29031840
v -0.81118166 0.82052135 1.23766497
v -0.81116045 0.82052135 1.23768368
v -1.01038337 0.01533997 1.31769225
v -1.01038337 0.74982369 1.31771090
v -1.01097882 0.82052135 1.29770413
v -1.01097882 0.82044256 1.23766497
v -0.79372203 0.01533997 1.42868331
v -0.79372203 0.82052135 1.26159838
v -1.01061726 0.82052135 1.23766497
v -1.00489664 0.01533997 1.33639017
v -1.01038337 0.82052135 1.31771090
v -1.01097882 0.82052135 1.23768368
v -0.85003525 0.01533997 1.42868331
v -0.79372203 0.74982369 1.42868331
v -0.79372203 0.82052135 1.42864594
v -0.99919724 0.01533997 1.34639361
v -1.00489664 0.82052135 1.33639017
v -0.86415613 0.01533997 1.42830935
v -0.85003525 0.74982369 1.42868331
v -0.85003525 0.82052135 1.42864594
v -0.98311990 0.01533997 1.37285122
v -0.99234951 0.74982369 1.35766849
v -0.99919724 0.74982369 1.34639361
v -1.00189805 0.82052135 1.34164432
v -0.86928129 0.01533997 1.42815974
v -0.85915852 0.82052135 1.42844024
v -0.86928129 0.82052135 1.42815974
v -0.97701651 0.01533997 1.38285461
v -0.98311990 0.82052135 1.37285122
v -0.99234951 0.82052135 1.35766849
v -0.99919724 0.82052135 1.34637490
v -0.87929773 0.01533997 1.42763623
v -0.87929773 0.82052135 1.42761752
v -0.87929773 0.74982369 1.42763623
v -0.96702135 0.01533997 1.39396122
v -0.97701651 0.82052135 1.38285461
v -0.89001596 0.01533997 1.42415842
v -0.89014357 0.74982369 1.42412099
v -0.89001596 0.82052135 1.42415842
v -0.94996572 0.01533997 1.40368411
v -0.96702135 0.82052135 1.39396122
v -0.90464717 0.01533997 1.41916606
v -0.94996572 0.74982369 1.40368411
v -0.93646163 0.01533997 1.40830251
v -0.89950073 0.82052135 1.42092368
v -0.94996572 0.82052135 1.40366545
f 1 2 6
f 1 6 3
f 1 3 7
f 1 7 14
f 1 14 20
f 1 20 25
f 1 25 32
f 1 32 39
f 1 39 44
f 1 44 49
f 1 49 51
f 1 51 47
f 1 47 42
f 1 42 35
f 1 35 28
f 1 28 23
f 1 23 17
f 1 17 10
f 1 10 4
f 1 4 12
f 1 12 19
f 1 19 13
f 1 13 5
f 1 5 2
f 2 5 13
f 2 13 16
f 2 16 8
f 2 8 6
f 3 6 8
f 3 8 9
f 3 9 7
f 4 10 11
f 4 11 18
f 4 18 12
f 7 9 15
f 7 15 22
f 7 22 21
f 7 21 14
f 8 16 19
f 8 19 12
f 8 12 18
f 8 18 24
f 8 24 31
f 8 31 38
f 8 38 37
f 8 37 36
f 8 36 43
f 8 43 48
f 8 48 53
f 8 53 52
f 8 52 46
f 8 46 40
f 8 40 34
f 8 34 33
f 8 33 27
f 8 27 22
f 8 22 15
f 8 15 9
f 10 17 11
f 11 17 24
f 11 24 18
f 13 19 16
f 14 21 26
f 14 26 20
f 17 23 30
f 17 30 24
f 20 26 25
f 21 22 27
f 21 27 26
f 23 28 29
f 23 29 37
f 23 37 30
f 24 30 31
f 25 26 33
f 25 33 34
f 25 34 32
f 26 27 33
f 28 35 43
f 28 43 36
f 28 36 37
f 28 37 29
f 30 37 38
f 30 38 31
f 32 34 41
f 32 41 39
f 34 40 41
f 35 42 48
f 35 48 43
f 39 41 45
f 39 45 44
f 40 46 41
f 41 46 45
f 42 47 50
f 42 50 48
f 44 45 49
f 45 50 51
f 45 51 49
f 45 46 52
f 45 52 50
f 47 51 50
f 48 50 53
f 50 52 53

