# https://github.com/mikedh/trimesh
v 0.85000569 0.72222173 1.42865392
v 0.86271131 0.00317309 1.42833057
v 0.86928058 0.72222173 1.42815420
v 0.81870282 0.72222173 1.42865392
v 0.85002452 0.00303188 1.42865392
v 0.86928058 0.00317309 1.42815420
v 0.85002452 -0.72039425 1.42865392
v 0.87927568 0.72222173 1.42762515
v 0.81870282 0.72222173 1.27694723
v 0.81870282 0.00317309 1.42865392
v 0.86928058 -0.72039425 1.42812481
v 0.87408048 -0.72039425 1.42788967
v 0.87927568 0.00317309 1.42762515
v 0.82466972 -0.72039425 1.42865392
v 0.88582611 0.72222173 1.42550871
v 0.85218918 0.72222173 1.14534661
v 0.85220802 -0.28998184 1.12838581
v 0.85218918 -0.71912336 1.12838581
v 0.81870282 0.00317309 1.27694723
v 0.87927568 -0.72039425 1.42759570
v 0.88443321 -0.72039425 1.42594960
v 0.88637203 0.00317309 1.42533234
v 0.82466972 -0.72039425 1.27280256
v 0.89000487 0.72222173 1.42415652
v 1.01096237 0.72222173 1.14534661
v 0.89002371 -0.25369051 1.12838581
v 0.87899333 -0.25383171 1.12838581
v 0.87001473 -0.25397295 1.12838581
v 0.85924786 -0.25594988 1.12838581
v 0.85725260 -0.26117471 1.12838581
v 0.85523856 -0.26992983 1.12838581
v 0.85348797 -0.27924979 1.12838581
v 0.85218918 -0.72039425 1.12838581
v 0.89002371 -0.72039425 1.42412713
v 0.89000487 0.00317309 1.42415652
v 0.90223992 0.72222173 1.41998246
v 0.90321875 0.00317309 1.41965911
v 1.01096237 0.72222173 1.29764119
v 1.01100004 0.00303188 1.17771032
v 1.01100004 -0.28998184 1.12838581
v 1.00702834 -0.26992983 1.12838581
v 1.00143790 -0.25580868 1.12838581
v 0.99468040 -0.25397295 1.12838581
v 0.98997462 -0.25369051 1.12838581
v 1.01100004 -0.72039425 1.12838581
v 0.89962351 -0.72039425 1.42086431
v 0.93523687 0.72222173 1.40869483
v 0.94630492 0.00317309 1.40493229
v 0.94434726 -0.72039425 1.40557900
v 1.01075530 0.72222173 1.30543080
v 1.01100004 0.00303188 1.29764119
v 1.01100004 -0.72039425 1.29764119
v 0.94999421 0.72222173 1.40363893
v 0.94997543 -0.72039425 1.40363893
v 0.94999421 0.00317309 1.40363893
v 1.01039767 0.72222173 1.31765905
v 1.01039767 -0.72039425 1.31765905
v 0.96702915 0.72222173 1.39393863
v 0.95816350 -0.72039425 1.39899453
v 1.00827074 0.72222173 1.32494899
v 1.00490129 -0.72039425 1.33638355
v 0.97704309 0.72222173 1.38285681
v 0.96702915 -0.72039425 1.39393863
v 1.00490129 0.72222173 1.33635416
v 1.00490129 0.00303188 1.33638355
v 0.99921674 -0.72039425 1.34637782
v 0.99236512 0.72222173 1.35766545
v 0.97704309 0.00317309 1.38285681
v 0.98314178 0.00303188 1.37283316
v 0.97702426 -0.72039425 1.38282737
v 0.99921674 0.72222173 1.34637782
v 0.98314178 -0.72039425 1.37283316
v 0.99236512 0.00317309 1.35766545
v 0.97996068 -0.72039425 1.37803605
f 1 2 3
f 1 3 8
f 1 8 15
f 1 15 24
f 1 24 36
f 1 36 47
f 1 47 53
f 1 53 58
f 1 58 62
f 1 62 67
f 1 67 71
f 1 71 64
f 1 64 60
f 1 60 56
f 1 56 50
f 1 50 38
f 1 38 25
f 1 25 16
f 1 16 9
f 1 9 4
f 1 4 10
f 1 10 14
f 1 14 7
f 1 7 5
f 1 5 2
f 2 6 3
f 2 5 7
f 2 7 6
f 3 6 13
f 3 13 8
f 4 9 19
f 4 19 10
f 6 7 11
f 6 11 12
f 6 12 13
f 7 14 23
f 7 23 33
f 7 33 45
f 7 45 52
f 7 52 57
f 7 57 61
f 7 61 66
f 7 66 72
f 7 72 74
f 7 74 70
f 7 70 63
f 7 63 59
f 7 59 54
f 7 54 49
f 7 49 46
f 7 46 34
f 7 34 21
f 7 21 20
f 7 20 12
f 7 12 11
f 8 13 22
f 8 22 15
f 9 16 17
f 9 17 18
f 9 18 33
f 9 33 19
f 10 19 23
f 10 23 14
f 12 20 13
f 13 20 21
f 13 21 22
f 15 22 24
f 16 25 44
f 16 44 26
f 16 26 27
f 16 27 28
f 16 28 29
f 16 29 30
f 16 30 31
f 16 31 32
f 16 32 17
f 17 32 31
f 17 31 30
f 17 30 29
f 17 29 28
f 17 28 27
f 17 27 26
f 17 26 44
f 17 44 43
f 17 43 42
f 17 42 41
f 17 41 40
f 17 40 45
f 17 45 33
f 17 33 18
f 19 33 23
f 21 34 35
f 21 35 22
f 22 35 24
f 24 35 37
f 24 37 36
f 25 38 51
f 25 51 39
f 25 39 40
f 25 40 41
f 25 41 42
f 25 42 43
f 25 43 44
f 34 46 35
f 35 46 37
f 36 37 48
f 36 48 47
f 37 46 49
f 37 49 48
f 38 50 51
f 39 51 52
f 39 52 45
f 39 45 40
f 47 48 53
f 48 49 54
f 48 54 55
f 48 55 53
f 50 56 51
f 51 56 57
f 51 57 52
f 53 55 59
f 53 59 58
f 54 59 55
f 56 60 57
f 57 60 61
f 58 59 63
f 58 63 68
f 58 68 62
f 60 64 65
f 60 65 61
f 61 65 71
f 61 71 66
f 62 68 72
f 62 72 69
f 62 69 67
f 63 70 68
f 64 71 65
f 66 71 67
f 66 67 73
f 66 73 72
f 67 69 72
f 67 72 73
f 68 70 74
f 68 74 72

