# https://github.com/mikedh/trimesh
v 0.72969306 -0.85202873 1.21744320
v 0.00583893 -0.85206085 1.21744320
v 0.72969306 -1.01045394 1.21744320
v 0.72969306 -0.85217327 0.69259598
v 0.70940340 -0.84693688 0.09770337
v 0.69011396 -0.84690475 0.09759375
v -0.00016224 -0.84690475 0.09759375
v 0.00583893 -1.01100004 1.21744320
v -0.00016224 -0.85222149 0.69237675
v 0.70997494 -1.01100004 1.21744320
v 0.72969306 -1.01100004 1.21733358
v 0.72969306 -0.86156988 0.69248637
v 0.70940340 -0.85135406 0.09759375
v -0.00016224 -1.01100004 0.09759375
v -0.00016224 -1.01100004 0.69237675
v 0.72969306 -1.01100004 0.69248637
v 0.70940340 -1.01100004 0.09781298
v 0.68989968 -1.01100004 0.09759375
f 1 2 8
f 1 8 10
f 1 10 3
f 1 3 11
f 1 11 16
f 1 16 12
f 1 12 4
f 1 4 5
f 1 5 6
f 1 6 7
f 1 7 2
f 2 7 9
f 2 9 15
f 2 15 8
f 3 10 11
f 4 12 13
f 4 13 5
f 5 13 6
f 6 13 18
f 6 18 14
f 6 14 7
f 7 14 15
f 7 15 9
f 8 15 14
f 8 14 18
f 8 18 17
f 8 17 16
f 8 16 11
f 8 11 10
f 12 16 13
f 13 16 17
f 13 17 18

