# https://github.com/mikedh/trimesh
v 0.82462668 -0.60435587 1.42866710
v 0.82462668 -0.60435587 1.27279672
v 0.70996642 -0.60435587 1.42866710
v 0.81862551 -0.72038960 1.42868325
v 0.82462668 -0.72038960 1.42866710
v 0.69183528 -0.60435587 1.30563530
v 0.82462668 -0.72038960 1.27278063
v 0.81862551 -0.79514951 1.26390967
v 0.39003295 -0.79514951 1.28982892
v 0.38986269 -0.79509348 1.28984508
v 0.38986269 -0.78980815 1.29168376
v 0.38986269 -0.76982492 1.29986116
v 0.53005970 -0.72998905 1.42868325
v 0.55963981 -0.72038960 1.42868325
v 0.69753855 -0.60435587 1.42839292
v 0.38986269 -0.77135634 1.42824778
v 0.38986269 -0.79003227 1.42868325
v 0.81862551 -0.79514951 1.42868325
v 0.68225902 -0.60435587 1.31769982
v 0.38986269 -0.75783491 1.30615148
v 0.38986269 -0.75777888 1.30626437
v 0.38986269 -0.79514951 1.29468372
v 0.69375056 -0.60435587 1.42823163
v 0.38986269 -0.77092677 1.42798969
v 0.38986269 -0.79514951 1.42868325
v 0.67736447 -0.60435587 1.33769974
v 0.38986269 -0.75436121 1.31769982
v 0.68540853 -0.60435587 1.41816714
v 0.38986269 -0.75695717 1.41652199
v 0.38986269 -0.75817108 1.41766718
v 0.38986269 -0.77016109 1.42740908
v 0.67732191 -0.60435587 1.35766736
v 0.38986269 -0.75434256 1.31790945
v 0.38986269 -0.75299788 1.33769974
v 0.68502551 -0.60435587 1.41766718
v 0.38986269 -0.75303519 1.39766726
v 0.67732191 -0.60435587 1.37766728
v 0.38986269 -0.75299788 1.37787697
v 0.67889667 -0.60435587 1.40161881
v 0.67744958 -0.60435587 1.39766726
f 1 2 6
f 1 6 19
f 1 19 26
f 1 26 32
f 1 32 37
f 1 37 40
f 1 40 39
f 1 39 35
f 1 35 28
f 1 28 23
f 1 23 15
f 1 15 3
f 1 3 14
f 1 14 4
f 1 4 18
f 1 18 5
f 1 5 7
f 1 7 2
f 2 7 8
f 2 8 9
f 2 9 10
f 2 10 11
f 2 11 12
f 2 12 6
f 3 13 14
f 3 15 16
f 3 16 17
f 3 17 13
f 4 14 13
f 4 13 17
f 4 17 25
f 4 25 18
f 5 18 8
f 5 8 7
f 6 12 20
f 6 20 21
f 6 21 19
f 8 18 25
f 8 25 22
f 8 22 9
f 9 22 10
f 10 22 25
f 10 25 17
f 10 17 16
f 10 16 24
f 10 24 31
f 10 31 30
f 10 30 29
f 10 29 36
f 10 36 38
f 10 38 34
f 10 34 33
f 10 33 27
f 10 27 21
f 10 21 20
f 10 20 12
f 10 12 11
f 15 23 16
f 16 23 24
f 19 21 27
f 19 27 26
f 23 28 29
f 23 29 30
f 23 30 31
f 23 31 24
f 26 27 33
f 26 33 34
f 26 34 32
f 28 35 29
f 29 35 36
f 32 34 38
f 32 38 37
f 35 39 36
f 36 39 40
f 36 40 37
f 36 37 38

