# https://github.com/mikedh/trimesh
v -0.72365367 -0.84999698 -0.09331659
v -0.76823747 -0.85144639 -0.09327522
v -0.76823747 -0.85011709 -0.09329590
v -0.72365367 -0.76963758 -0.09331659
v -0.00016221 -0.84999698 -0.09331659
v -0.76823747 -0.85144639 0.11809787
v -0.00016221 -0.85144639 -0.09327522
v -0.76823747 -0.76963758 -0.09329590
v -0.00016221 -0.76963758 -0.09331659
v -0.73635966 -0.85144639 0.11809787
v -0.76823747 -0.84471977 0.11809787
v -0.00016221 -0.85144639 0.11534551
v -0.76823747 -0.76963758 0.04049370
v -0.00016221 -0.76963758 0.03701702
f 1 2 3
f 1 3 8
f 1 8 4
f 1 4 9
f 1 9 5
f 1 5 7
f 1 7 2
f 2 6 11
f 2 11 13
f 2 13 8
f 2 8 3
f 2 7 12
f 2 12 10
f 2 10 6
f 4 8 13
f 4 13 14
f 4 14 9
f 5 9 14
f 5 14 12
f 5 12 7
f 6 10 11
f 10 12 11
f 11 12 14
f 11 14 13

