# Blender 5.1.1
# www.blender.org
mtllib SugarBowl_Lid.mtl
o SugarBowl_Lid
v 0.000000 0.000000 0.000000
v 0.020000 0.000000 0.000000
v 0.020000 0.000000 0.004000
v 0.038000 0.000000 0.004000
v 0.038000 0.000000 0.007000
v 0.030000 0.000000 0.011000
v 0.020000 0.000000 0.014000
v 0.000000 0.000000 0.016000
v 0.019754 0.003129 0.000000
v 0.019754 0.003129 0.004000
v 0.037532 0.005945 0.004000
v 0.037532 0.005945 0.007000
v 0.029631 0.004693 0.011000
v 0.019754 0.003129 0.014000
v 0.019021 0.006180 0.000000
v 0.019021 0.006180 0.004000
v 0.036140 0.011743 0.004000
v 0.036140 0.011743 0.007000
v 0.028532 0.009271 0.011000
v 0.019021 0.006180 0.014000
v 0.017820 0.009080 0.000000
v 0.017820 0.009080 0.004000
v 0.033858 0.017252 0.004000
v 0.033858 0.017252 0.007000
v 0.026730 0.013620 0.011000
v 0.017820 0.009080 0.014000
v 0.016180 0.011756 0.000000
v 0.016180 0.011756 0.004000
v 0.030743 0.022336 0.004000
v 0.030743 0.022336 0.007000
v 0.024271 0.017634 0.011000
v 0.016180 0.011756 0.014000
v 0.014142 0.014142 0.000000
v 0.014142 0.014142 0.004000
v 0.026870 0.026870 0.004000
v 0.026870 0.026870 0.007000
v 0.021213 0.021213 0.011000
v 0.014142 0.014142 0.014000
v 0.011756 0.016180 0.000000
v 0.011756 0.016180 0.004000
v 0.022336 0.030743 0.004000
v 0.022336 0.030743 0.007000
v 0.017634 0.024271 0.011000
v 0.011756 0.016180 0.014000
v 0.009080 0.017820 0.000000
v 0.009080 0.017820 0.004000
v 0.017252 0.033858 0.004000
v 0.017252 0.033858 0.007000
v 0.013620 0.026730 0.011000
v 0.009080 0.017820 0.014000
v 0.006180 0.019021 0.000000
v 0.006180 0.019021 0.004000
v 0.011743 0.036140 0.004000
v 0.011743 0.036140 0.007000
v 0.009271 0.028532 0.011000
v 0.006180 0.019021 0.014000
v 0.003129 0.019754 0.000000
v 0.003129 0.019754 0.004000
v 0.005945 0.037532 0.004000
v 0.005945 0.037532 0.007000
v 0.004693 0.029631 0.011000
v 0.003129 0.019754 0.014000
v -0.000000 0.020000 0.000000
v -0.000000 0.020000 0.004000
v -0.000000 0.038000 0.004000
v -0.000000 0.038000 0.007000
v -0.000000 0.030000 0.011000
v -0.000000 0.020000 0.014000
v -0.003129 0.019754 0.000000
v -0.003129 0.019754 0.004000
v -0.005945 0.037532 0.004000
v -0.005945 0.037532 0.007000
v -0.004693 0.029631 0.011000
v -0.003129 0.019754 0.014000
v -0.006180 0.019021 0.000000
v -0.006180 0.019021 0.004000
v -0.011743 0.036140 0.004000
v -0.011743 0.036140 0.007000
v -0.009271 0.028532 0.011000
v -0.006180 0.019021 0.014000
v -0.009080 0.017820 0.000000
v -0.009080 0.017820 0.004000
v -0.017252 0.033858 0.004000
v -0.017252 0.033858 0.007000
v -0.013620 0.026730 0.011000
v -0.009080 0.017820 0.014000
v -0.011756 0.016180 0.000000
v -0.011756 0.016180 0.004000
v -0.022336 0.030743 0.004000
v -0.022336 0.030743 0.007000
v -0.017634 0.024271 0.011000
v -0.011756 0.016180 0.014000
v -0.014142 0.014142 0.000000
v -0.014142 0.014142 0.004000
v -0.026870 0.026870 0.004000
v -0.026870 0.026870 0.007000
v -0.021213 0.021213 0.011000
v -0.014142 0.014142 0.014000
v -0.016180 0.011756 0.000000
v -0.016180 0.011756 0.004000
v -0.030743 0.022336 0.004000
v -0.030743 0.022336 0.007000
v -0.024271 0.017634 0.011000
v -0.016180 0.011756 0.014000
v -0.017820 0.009080 0.000000
v -0.017820 0.009080 0.004000
v -0.033858 0.017252 0.004000
v -0.033858 0.017252 0.007000
v -0.026730 0.013620 0.011000
v -0.017820 0.009080 0.014000
v -0.019021 0.006180 0.000000
v -0.019021 0.006180 0.004000
v -0.036140 0.011743 0.004000
v -0.036140 0.011743 0.007000
v -0.028532 0.009271 0.011000
v -0.019021 0.006180 0.014000
v -0.019754 0.003129 0.000000
v -0.019754 0.003129 0.004000
v -0.037532 0.005945 0.004000
v -0.037532 0.005945 0.007000
v -0.029631 0.004693 0.011000
v -0.019754 0.003129 0.014000
v -0.020000 -0.000000 0.000000
v -0.020000 -0.000000 0.004000
v -0.038000 -0.000000 0.004000
v -0.038000 -0.000000 0.007000
v -0.030000 -0.000000 0.011000
v -0.020000 -0.000000 0.014000
v -0.019754 -0.003129 0.000000
v -0.019754 -0.003129 0.004000
v -0.037532 -0.005945 0.004000
v -0.037532 -0.005945 0.007000
v -0.029631 -0.004693 0.011000
v -0.019754 -0.003129 0.014000
v -0.019021 -0.006180 0.000000
v -0.019021 -0.006180 0.004000
v -0.036140 -0.011743 0.004000
v -0.036140 -0.011743 0.007000
v -0.028532 -0.009271 0.011000
v -0.019021 -0.006180 0.014000
v -0.017820 -0.009080 0.000000
v -0.017820 -0.009080 0.004000
v -0.033858 -0.017252 0.004000
v -0.033858 -0.017252 0.007000
v -0.026730 -0.013620 0.011000
v -0.017820 -0.009080 0.014000
v -0.016180 -0.011756 0.000000
v -0.016180 -0.011756 0.004000
v -0.030743 -0.022336 0.004000
v -0.030743 -0.022336 0.007000
v -0.024270 -0.017634 0.011000
v -0.016180 -0.011756 0.014000
v -0.014142 -0.014142 0.000000
v -0.014142 -0.014142 0.004000
v -0.026870 -0.026870 0.004000
v -0.026870 -0.026870 0.007000
v -0.021213 -0.021213 0.011000
v -0.014142 -0.014142 0.014000
v -0.011756 -0.016180 0.000000
v -0.011756 -0.016180 0.004000
v -0.022336 -0.030743 0.004000
v -0.022336 -0.030743 0.007000
v -0.017634 -0.024270 0.011000
v -0.011756 -0.016180 0.014000
v -0.009080 -0.017820 0.000000
v -0.009080 -0.017820 0.004000
v -0.017252 -0.033858 0.004000
v -0.017252 -0.033858 0.007000
v -0.013620 -0.026730 0.011000
v -0.009080 -0.017820 0.014000
v -0.006180 -0.019021 0.000000
v -0.006180 -0.019021 0.004000
v -0.011743 -0.036140 0.004000
v -0.011743 -0.036140 0.007000
v -0.009271 -0.028532 0.011000
v -0.006180 -0.019021 0.014000
v -0.003129 -0.019754 0.000000
v -0.003129 -0.019754 0.004000
v -0.005944 -0.037532 0.004000
v -0.005944 -0.037532 0.007000
v -0.004693 -0.029631 0.011000
v -0.003129 -0.019754 0.014000
v -0.000000 -0.020000 0.000000
v -0.000000 -0.020000 0.004000
v -0.000000 -0.038000 0.004000
v -0.000000 -0.038000 0.007000
v -0.000000 -0.030000 0.011000
v -0.000000 -0.020000 0.014000
v 0.003129 -0.019754 0.000000
v 0.003129 -0.019754 0.004000
v 0.005945 -0.037532 0.004000
v 0.005945 -0.037532 0.007000
v 0.004693 -0.029631 0.011000
v 0.003129 -0.019754 0.014000
v 0.006180 -0.019021 0.000000
v 0.006180 -0.019021 0.004000
v 0.011743 -0.036140 0.004000
v 0.011743 -0.036140 0.007000
v 0.009271 -0.028532 0.011000
v 0.006180 -0.019021 0.014000
v 0.009080 -0.017820 0.000000
v 0.009080 -0.017820 0.004000
v 0.017252 -0.033858 0.004000
v 0.017252 -0.033858 0.007000
v 0.013620 -0.026730 0.011000
v 0.009080 -0.017820 0.014000
v 0.011756 -0.016180 0.000000
v 0.011756 -0.016180 0.004000
v 0.022336 -0.030743 0.004000
v 0.022336 -0.030743 0.007000
v 0.017634 -0.024270 0.011000
v 0.011756 -0.016180 0.014000
v 0.014142 -0.014142 0.000000
v 0.014142 -0.014142 0.004000
v 0.026870 -0.026870 0.004000
v 0.026870 -0.026870 0.007000
v 0.021213 -0.021213 0.011000
v 0.014142 -0.014142 0.014000
v 0.016180 -0.011756 0.000000
v 0.016180 -0.011756 0.004000
v 0.030743 -0.022336 0.004000
v 0.030743 -0.022336 0.007000
v 0.024271 -0.017634 0.011000
v 0.016180 -0.011756 0.014000
v 0.017820 -0.009080 0.000000
v 0.017820 -0.009080 0.004000
v 0.033858 -0.017252 0.004000
v 0.033858 -0.017252 0.007000
v 0.026730 -0.013620 0.011000
v 0.017820 -0.009080 0.014000
v 0.019021 -0.006180 0.000000
v 0.019021 -0.006180 0.004000
v 0.036140 -0.011743 0.004000
v 0.036140 -0.011743 0.007000
v 0.028532 -0.009271 0.011000
v 0.019021 -0.006180 0.014000
v 0.019754 -0.003129 0.000000
v 0.019754 -0.003129 0.004000
v 0.037532 -0.005945 0.004000
v 0.037532 -0.005945 0.007000
v 0.029631 -0.004693 0.011000
v 0.019754 -0.003129 0.014000
v 0.000000 0.000000 0.024000
v 0.000000 0.002351 0.023236
v 0.000000 0.003236 0.022351
v 0.000000 0.003236 0.017649
v 0.000000 0.002351 0.016764
v 0.000000 0.001236 0.016196
v 0.000000 0.000000 0.016000
v 0.000382 0.001176 0.023804
v 0.000727 0.002236 0.023236
v 0.001000 0.003078 0.022351
v 0.001176 0.003618 0.021236
v 0.001236 0.003804 0.020000
v 0.001176 0.003618 0.018764
v 0.001000 0.003078 0.017649
v 0.000727 0.002236 0.016764
v 0.000382 0.001176 0.016196
v 0.000727 0.001000 0.023804
v 0.001382 0.001902 0.023236
v 0.001902 0.002618 0.022351
v 0.002236 0.003078 0.021236
v 0.002351 0.003236 0.020000
v 0.002236 0.003078 0.018764
v 0.001902 0.002618 0.017649
v 0.001382 0.001902 0.016764
v 0.000727 0.001000 0.016196
v 0.001000 0.000727 0.023804
v 0.001902 0.001382 0.023236
v 0.002618 0.001902 0.022351
v 0.003078 0.002236 0.021236
v 0.003236 0.002351 0.020000
v 0.003078 0.002236 0.018764
v 0.002618 0.001902 0.017649
v 0.001902 0.001382 0.016764
v 0.001000 0.000727 0.016196
v 0.001176 0.000382 0.023804
v 0.002236 0.000727 0.023236
v 0.003078 0.001000 0.022351
v 0.003618 0.001176 0.021236
v 0.003804 0.001236 0.020000
v 0.003618 0.001176 0.018764
v 0.003078 0.001000 0.017649
v 0.002236 0.000727 0.016764
v 0.001176 0.000382 0.016196
v 0.001236 0.000000 0.023804
v 0.002351 0.000000 0.023236
v 0.003236 0.000000 0.022351
v 0.003804 0.000000 0.021236
v 0.004000 -0.000000 0.020000
v 0.003804 0.000000 0.018764
v 0.003236 0.000000 0.017649
v 0.002351 0.000000 0.016764
v 0.001236 0.000000 0.016196
v 0.001176 -0.000382 0.023804
v 0.002236 -0.000727 0.023236
v 0.003078 -0.001000 0.022351
v 0.003618 -0.001176 0.021236
v 0.003804 -0.001236 0.020000
v 0.003618 -0.001176 0.018764
v 0.003078 -0.001000 0.017649
v 0.002236 -0.000727 0.016764
v 0.001176 -0.000382 0.016196
v 0.001000 -0.000727 0.023804
v 0.001902 -0.001382 0.023236
v 0.002618 -0.001902 0.022351
v 0.003078 -0.002236 0.021236
v 0.003236 -0.002351 0.020000
v 0.003078 -0.002236 0.018764
v 0.002618 -0.001902 0.017649
v 0.001902 -0.001382 0.016764
v 0.001000 -0.000727 0.016196
v 0.000727 -0.001000 0.023804
v 0.001382 -0.001902 0.023236
v 0.001902 -0.002618 0.022351
v 0.002236 -0.003078 0.021236
v 0.002351 -0.003236 0.020000
v 0.002236 -0.003078 0.018764
v 0.001902 -0.002618 0.017649
v 0.001382 -0.001902 0.016764
v 0.000727 -0.001000 0.016196
v 0.000382 -0.001176 0.023804
v 0.000727 -0.002236 0.023236
v 0.001000 -0.003078 0.022351
v 0.001176 -0.003618 0.021236
v 0.001236 -0.003804 0.020000
v 0.001176 -0.003618 0.018764
v 0.001000 -0.003078 0.017649
v 0.000727 -0.002236 0.016764
v 0.000382 -0.001176 0.016196
v -0.000000 -0.001236 0.023804
v 0.000000 -0.002351 0.023236
v -0.000000 -0.003236 0.022351
v -0.000000 -0.003804 0.021236
v -0.000000 -0.004000 0.020000
v -0.000000 -0.003804 0.018764
v -0.000000 -0.003236 0.017649
v 0.000000 -0.002351 0.016764
v -0.000000 -0.001236 0.016196
v -0.000382 -0.001176 0.023804
v -0.000727 -0.002236 0.023236
v -0.001000 -0.003078 0.022351
v -0.001176 -0.003618 0.021236
v -0.001236 -0.003804 0.020000
v -0.001176 -0.003618 0.018764
v -0.001000 -0.003078 0.017649
v -0.000727 -0.002236 0.016764
v -0.000382 -0.001176 0.016196
v -0.000727 -0.001000 0.023804
v -0.001382 -0.001902 0.023236
v -0.001902 -0.002618 0.022351
v -0.002236 -0.003078 0.021236
v -0.002351 -0.003236 0.020000
v -0.002236 -0.003078 0.018764
v -0.001902 -0.002618 0.017649
v -0.001382 -0.001902 0.016764
v -0.000727 -0.001000 0.016196
v -0.001000 -0.000727 0.023804
v -0.001902 -0.001382 0.023236
v -0.002618 -0.001902 0.022351
v -0.003078 -0.002236 0.021236
v -0.003236 -0.002351 0.020000
v -0.003078 -0.002236 0.018764
v -0.002618 -0.001902 0.017649
v -0.001902 -0.001382 0.016764
v -0.001000 -0.000727 0.016196
v -0.001176 -0.000382 0.023804
v -0.002236 -0.000727 0.023236
v -0.003078 -0.001000 0.022351
v -0.003618 -0.001176 0.021236
v -0.003804 -0.001236 0.020000
v -0.003618 -0.001176 0.018764
v -0.003078 -0.001000 0.017649
v -0.002236 -0.000727 0.016764
v -0.001176 -0.000382 0.016196
v -0.001236 0.000000 0.023804
v -0.002351 0.000000 0.023236
v -0.003236 0.000000 0.022351
v -0.003804 0.000000 0.021236
v -0.004000 0.000000 0.020000
v -0.003804 0.000000 0.018764
v -0.003236 0.000000 0.017649
v -0.002351 0.000000 0.016764
v -0.001236 0.000000 0.016196
v -0.001176 0.000382 0.023804
v -0.002236 0.000727 0.023236
v -0.003078 0.001000 0.022351
v -0.003618 0.001176 0.021236
v -0.003804 0.001236 0.020000
v -0.003618 0.001176 0.018764
v -0.003078 0.001000 0.017649
v -0.002236 0.000727 0.016764
v -0.001176 0.000382 0.016196
v -0.001000 0.000727 0.023804
v -0.001902 0.001382 0.023236
v -0.002618 0.001902 0.022351
v -0.003078 0.002236 0.021236
v -0.003236 0.002351 0.020000
v -0.003078 0.002236 0.018764
v -0.002618 0.001902 0.017649
v -0.001902 0.001382 0.016764
v -0.001000 0.000727 0.016196
v -0.000727 0.001000 0.023804
v -0.001382 0.001902 0.023236
v -0.001902 0.002618 0.022351
v -0.002236 0.003078 0.021236
v -0.002351 0.003236 0.020000
v -0.002236 0.003078 0.018764
v -0.001902 0.002618 0.017649
v -0.001382 0.001902 0.016764
v -0.000727 0.001000 0.016196
v -0.000382 0.001176 0.023804
v -0.000727 0.002236 0.023236
v -0.001000 0.003078 0.022351
v -0.001176 0.003618 0.021236
v -0.001236 0.003804 0.020000
v -0.001176 0.003618 0.018764
v -0.001000 0.003078 0.017649
v -0.000727 0.002236 0.016764
v -0.000382 0.001176 0.016196
v 0.000000 0.001236 0.023804
v 0.000000 0.003804 0.021236
v 0.000000 0.004000 0.020000
v 0.000000 0.003804 0.018764
vn -0.0000 -0.0000 -1.0000
vn 0.7239 -0.0000 -0.6899
vn 0.6885 -0.0000 -0.7252
vn 0.8576 -0.0000 0.5143
vn 0.3723 -0.0000 0.9281
vn 0.1989 -0.0000 0.9800
vn -0.0000 -0.0000 1.0000
vn 0.7150 0.1132 -0.6899
vn 0.6801 0.1077 -0.7252
vn 0.8470 0.1342 0.5143
vn 0.3678 0.0582 0.9281
vn 0.1965 0.0311 0.9800
vn 0.6885 0.2237 -0.6899
vn 0.6548 0.2128 -0.7252
vn 0.8156 0.2650 0.5143
vn 0.3541 0.1151 0.9281
vn 0.1892 0.0615 0.9800
vn 0.6450 0.3287 -0.6899
vn 0.6135 0.3126 -0.7252
vn 0.7641 0.3893 0.5143
vn 0.3318 0.1690 0.9281
vn 0.1772 0.0903 0.9800
vn 0.5857 0.4255 -0.6899
vn 0.5570 0.4047 -0.7252
vn 0.6938 0.5041 0.5143
vn 0.3012 0.2189 0.9281
vn 0.1609 0.1169 0.9800
vn 0.5119 0.5119 -0.6899
vn 0.4869 0.4869 -0.7252
vn 0.6064 0.6064 0.5143
vn 0.2633 0.2633 0.9281
vn 0.1407 0.1407 0.9800
vn 0.4255 0.5857 -0.6899
vn 0.4047 0.5570 -0.7252
vn 0.5041 0.6938 0.5143
vn 0.2189 0.3012 0.9281
vn 0.1169 0.1609 0.9800
vn 0.3287 0.6450 -0.6899
vn 0.3126 0.6135 -0.7252
vn 0.3893 0.7641 0.5143
vn 0.1690 0.3318 0.9281
vn 0.0903 0.1772 0.9800
vn 0.2237 0.6885 -0.6899
vn 0.2128 0.6548 -0.7252
vn 0.2650 0.8156 0.5143
vn 0.1151 0.3541 0.9281
vn 0.0615 0.1892 0.9800
vn 0.1132 0.7150 -0.6899
vn 0.1077 0.6801 -0.7252
vn 0.1342 0.8470 0.5143
vn 0.0582 0.3678 0.9281
vn 0.0311 0.1965 0.9800
vn -0.0000 0.7239 -0.6899
vn -0.0000 0.6885 -0.7252
vn -0.0000 0.8576 0.5143
vn -0.0000 0.3723 0.9281
vn -0.0000 0.1989 0.9800
vn -0.1132 0.7150 -0.6899
vn -0.1077 0.6801 -0.7252
vn -0.1342 0.8470 0.5143
vn -0.0582 0.3678 0.9281
vn -0.0311 0.1965 0.9800
vn -0.2237 0.6885 -0.6899
vn -0.2128 0.6548 -0.7252
vn -0.2650 0.8156 0.5143
vn -0.1151 0.3541 0.9281
vn -0.0615 0.1892 0.9800
vn -0.3287 0.6450 -0.6899
vn -0.3126 0.6135 -0.7252
vn -0.3893 0.7641 0.5143
vn -0.1690 0.3318 0.9281
vn -0.0903 0.1772 0.9800
vn -0.4255 0.5857 -0.6899
vn -0.4047 0.5570 -0.7252
vn -0.5041 0.6938 0.5143
vn -0.2189 0.3012 0.9281
vn -0.1169 0.1609 0.9800
vn -0.5119 0.5119 -0.6899
vn -0.4869 0.4869 -0.7252
vn -0.6064 0.6064 0.5143
vn -0.2633 0.2633 0.9281
vn -0.1407 0.1407 0.9800
vn -0.5857 0.4255 -0.6899
vn -0.5570 0.4047 -0.7252
vn -0.6938 0.5041 0.5143
vn -0.3012 0.2189 0.9281
vn -0.1609 0.1169 0.9800
vn -0.6450 0.3287 -0.6899
vn -0.6135 0.3126 -0.7252
vn -0.7641 0.3893 0.5143
vn -0.3318 0.1690 0.9281
vn -0.1772 0.0903 0.9800
vn -0.6885 0.2237 -0.6899
vn -0.6548 0.2128 -0.7252
vn -0.8156 0.2650 0.5143
vn -0.3541 0.1151 0.9281
vn -0.1892 0.0615 0.9800
vn -0.7150 0.1132 -0.6899
vn -0.6801 0.1077 -0.7252
vn -0.8470 0.1342 0.5143
vn -0.3678 0.0582 0.9281
vn -0.1965 0.0311 0.9800
vn -0.7239 -0.0000 -0.6899
vn -0.6885 -0.0000 -0.7252
vn -0.8576 -0.0000 0.5143
vn -0.3723 -0.0000 0.9281
vn -0.1989 -0.0000 0.9800
vn -0.7150 -0.1132 -0.6899
vn -0.6801 -0.1077 -0.7252
vn -0.8470 -0.1342 0.5143
vn -0.3678 -0.0582 0.9281
vn -0.1965 -0.0311 0.9800
vn -0.6885 -0.2237 -0.6899
vn -0.6548 -0.2128 -0.7252
vn -0.8156 -0.2650 0.5143
vn -0.3541 -0.1151 0.9281
vn -0.1892 -0.0615 0.9800
vn -0.6450 -0.3287 -0.6899
vn -0.6135 -0.3126 -0.7252
vn -0.7641 -0.3893 0.5143
vn -0.3318 -0.1690 0.9281
vn -0.1772 -0.0903 0.9800
vn -0.5857 -0.4255 -0.6899
vn -0.5570 -0.4047 -0.7252
vn -0.6938 -0.5041 0.5143
vn -0.3012 -0.2189 0.9281
vn -0.1609 -0.1169 0.9800
vn -0.5119 -0.5119 -0.6899
vn -0.4869 -0.4869 -0.7252
vn -0.6064 -0.6064 0.5143
vn -0.2633 -0.2633 0.9281
vn -0.1407 -0.1407 0.9800
vn -0.4255 -0.5857 -0.6899
vn -0.4047 -0.5570 -0.7252
vn -0.5041 -0.6938 0.5143
vn -0.2189 -0.3012 0.9281
vn -0.1169 -0.1609 0.9800
vn -0.3287 -0.6450 -0.6899
vn -0.3126 -0.6135 -0.7252
vn -0.3893 -0.7641 0.5143
vn -0.1690 -0.3318 0.9281
vn -0.0903 -0.1772 0.9800
vn -0.2237 -0.6885 -0.6899
vn -0.2128 -0.6548 -0.7252
vn -0.2650 -0.8156 0.5143
vn -0.1151 -0.3541 0.9281
vn -0.0615 -0.1892 0.9800
vn -0.1132 -0.7150 -0.6899
vn -0.1077 -0.6801 -0.7252
vn -0.1342 -0.8470 0.5143
vn -0.0582 -0.3678 0.9281
vn -0.0311 -0.1965 0.9800
vn -0.0000 -0.7239 -0.6899
vn -0.0000 -0.6885 -0.7252
vn -0.0000 -0.8576 0.5143
vn -0.0000 -0.3723 0.9281
vn -0.0000 -0.1989 0.9800
vn 0.1132 -0.7150 -0.6899
vn 0.1077 -0.6801 -0.7252
vn 0.1342 -0.8470 0.5143
vn 0.0582 -0.3678 0.9281
vn 0.0311 -0.1965 0.9800
vn 0.2237 -0.6885 -0.6899
vn 0.2128 -0.6548 -0.7252
vn 0.2650 -0.8156 0.5143
vn 0.1151 -0.3541 0.9281
vn 0.0615 -0.1892 0.9800
vn 0.3287 -0.6450 -0.6899
vn 0.3126 -0.6135 -0.7252
vn 0.3893 -0.7641 0.5143
vn 0.1690 -0.3318 0.9281
vn 0.0903 -0.1772 0.9800
vn 0.4255 -0.5857 -0.6899
vn 0.4047 -0.5570 -0.7252
vn 0.5041 -0.6938 0.5143
vn 0.2189 -0.3012 0.9281
vn 0.1169 -0.1609 0.9800
vn 0.5119 -0.5119 -0.6899
vn 0.4869 -0.4869 -0.7252
vn 0.6064 -0.6064 0.5143
vn 0.2633 -0.2633 0.9281
vn 0.1407 -0.1407 0.9800
vn 0.5857 -0.4255 -0.6899
vn 0.5570 -0.4047 -0.7252
vn 0.6938 -0.5041 0.5143
vn 0.3012 -0.2189 0.9281
vn 0.1609 -0.1169 0.9800
vn 0.6450 -0.3287 -0.6899
vn 0.6135 -0.3126 -0.7252
vn 0.7641 -0.3893 0.5143
vn 0.3318 -0.1690 0.9281
vn 0.1772 -0.0903 0.9800
vn 0.6885 -0.2237 -0.6899
vn 0.6548 -0.2128 -0.7252
vn 0.8156 -0.2650 0.5143
vn 0.3541 -0.1151 0.9281
vn 0.1892 -0.0615 0.9800
vn 0.7150 -0.1132 -0.6899
vn 0.6801 -0.1077 -0.7252
vn 0.8470 -0.1342 0.5143
vn 0.3678 -0.0582 0.9281
vn 0.1965 -0.0311 0.9800
vn -0.0000 0.5978 0.8016
vn -0.0000 0.8143 0.5805
vn -0.0000 0.8143 -0.5805
vn -0.0000 0.5978 -0.8016
vn -0.0000 0.3230 -0.9464
vn 0.0998 0.3072 0.9464
vn 0.1847 0.5686 0.8016
vn 0.2516 0.7744 0.5805
vn 0.2943 0.9059 0.3045
vn 0.3090 0.9511 -0.0000
vn 0.2943 0.9059 -0.3045
vn 0.2516 0.7744 -0.5805
vn 0.1847 0.5686 -0.8016
vn 0.0998 0.3072 -0.9464
vn 0.1899 0.2613 0.9464
vn 0.3514 0.4836 0.8016
vn 0.4786 0.6588 0.5805
vn 0.5599 0.7706 0.3045
vn 0.5878 0.8090 -0.0000
vn 0.5599 0.7706 -0.3045
vn 0.4786 0.6588 -0.5805
vn 0.3514 0.4836 -0.8016
vn 0.1899 0.2613 -0.9464
vn 0.2613 0.1899 0.9464
vn 0.4836 0.3514 0.8016
vn 0.6588 0.4786 0.5805
vn 0.7706 0.5599 0.3045
vn 0.8090 0.5878 -0.0000
vn 0.7706 0.5599 -0.3045
vn 0.6588 0.4786 -0.5805
vn 0.4836 0.3514 -0.8016
vn 0.2613 0.1899 -0.9464
vn 0.3072 0.0998 0.9464
vn 0.5686 0.1847 0.8016
vn 0.7744 0.2516 0.5805
vn 0.9059 0.2943 0.3045
vn 0.9511 0.3090 -0.0000
vn 0.9059 0.2943 -0.3045
vn 0.7744 0.2516 -0.5805
vn 0.5686 0.1847 -0.8016
vn 0.3072 0.0998 -0.9464
vn 0.3230 -0.0000 0.9464
vn 0.5978 -0.0000 0.8016
vn 0.8143 -0.0000 0.5805
vn 0.9525 -0.0000 0.3045
vn 1.0000 -0.0000 -0.0000
vn 0.9525 -0.0000 -0.3045
vn 0.8143 -0.0000 -0.5805
vn 0.5978 -0.0000 -0.8016
vn 0.3230 -0.0000 -0.9464
vn 0.3072 -0.0998 0.9464
vn 0.5686 -0.1847 0.8016
vn 0.7744 -0.2516 0.5805
vn 0.9059 -0.2943 0.3045
vn 0.9511 -0.3090 -0.0000
vn 0.9059 -0.2943 -0.3045
vn 0.7744 -0.2516 -0.5805
vn 0.5686 -0.1847 -0.8016
vn 0.3072 -0.0998 -0.9464
vn 0.2613 -0.1899 0.9464
vn 0.4836 -0.3514 0.8016
vn 0.6588 -0.4786 0.5805
vn 0.7706 -0.5599 0.3045
vn 0.8090 -0.5878 -0.0000
vn 0.7706 -0.5599 -0.3045
vn 0.6588 -0.4786 -0.5805
vn 0.4836 -0.3514 -0.8016
vn 0.2613 -0.1899 -0.9464
vn 0.1899 -0.2613 0.9464
vn 0.3514 -0.4836 0.8016
vn 0.4786 -0.6588 0.5805
vn 0.5599 -0.7706 0.3045
vn 0.5878 -0.8090 -0.0000
vn 0.5599 -0.7706 -0.3045
vn 0.4786 -0.6588 -0.5805
vn 0.3514 -0.4836 -0.8016
vn 0.1899 -0.2613 -0.9464
vn 0.0998 -0.3072 0.9464
vn 0.1847 -0.5686 0.8016
vn 0.2516 -0.7744 0.5805
vn 0.2943 -0.9059 0.3045
vn 0.3090 -0.9511 -0.0000
vn 0.2943 -0.9059 -0.3045
vn 0.2516 -0.7744 -0.5805
vn 0.1847 -0.5686 -0.8016
vn 0.0998 -0.3072 -0.9464
vn -0.0000 -0.3230 0.9464
vn -0.0000 -0.5978 0.8016
vn -0.0000 -0.8143 0.5805
vn -0.0000 -0.9525 0.3045
vn -0.0000 -1.0000 -0.0000
vn -0.0000 -0.9525 -0.3045
vn -0.0000 -0.8143 -0.5805
vn -0.0000 -0.5978 -0.8016
vn -0.0000 -0.3230 -0.9464
vn -0.0998 -0.3072 0.9464
vn -0.1847 -0.5686 0.8016
vn -0.2516 -0.7744 0.5805
vn -0.2943 -0.9059 0.3045
vn -0.3090 -0.9511 -0.0000
vn -0.2943 -0.9059 -0.3045
vn -0.2516 -0.7744 -0.5805
vn -0.1847 -0.5686 -0.8016
vn -0.0998 -0.3072 -0.9464
vn -0.1899 -0.2613 0.9464
vn -0.3514 -0.4836 0.8016
vn -0.4786 -0.6588 0.5805
vn -0.5599 -0.7706 0.3045
vn -0.5878 -0.8090 -0.0000
vn -0.5599 -0.7706 -0.3045
vn -0.4786 -0.6588 -0.5805
vn -0.3514 -0.4836 -0.8016
vn -0.1899 -0.2613 -0.9464
vn -0.2613 -0.1899 0.9464
vn -0.4836 -0.3514 0.8016
vn -0.6588 -0.4786 0.5805
vn -0.7706 -0.5599 0.3045
vn -0.8090 -0.5878 -0.0000
vn -0.7706 -0.5599 -0.3045
vn -0.6588 -0.4786 -0.5805
vn -0.4836 -0.3514 -0.8016
vn -0.2613 -0.1899 -0.9464
vn -0.3072 -0.0998 0.9464
vn -0.5686 -0.1847 0.8016
vn -0.7744 -0.2516 0.5805
vn -0.9059 -0.2943 0.3045
vn -0.9511 -0.3090 -0.0000
vn -0.9059 -0.2943 -0.3045
vn -0.7744 -0.2516 -0.5805
vn -0.5686 -0.1847 -0.8016
vn -0.3072 -0.0998 -0.9464
vn -0.3230 -0.0000 0.9464
vn -0.5978 -0.0000 0.8016
vn -0.8143 -0.0000 0.5805
vn -0.9525 -0.0000 0.3045
vn -1.0000 -0.0000 -0.0000
vn -0.9525 -0.0000 -0.3045
vn -0.8143 -0.0000 -0.5805
vn -0.5978 -0.0000 -0.8016
vn -0.3230 -0.0000 -0.9464
vn -0.3072 0.0998 0.9464
vn -0.5686 0.1847 0.8016
vn -0.7744 0.2516 0.5805
vn -0.9059 0.2943 0.3045
vn -0.9511 0.3090 -0.0000
vn -0.9059 0.2943 -0.3045
vn -0.7744 0.2516 -0.5805
vn -0.5686 0.1847 -0.8016
vn -0.3072 0.0998 -0.9464
vn -0.2613 0.1899 0.9464
vn -0.4836 0.3514 0.8016
vn -0.6588 0.4786 0.5805
vn -0.7706 0.5599 0.3045
vn -0.8090 0.5878 -0.0000
vn -0.7706 0.5599 -0.3045
vn -0.6588 0.4786 -0.5805
vn -0.4836 0.3514 -0.8016
vn -0.2613 0.1899 -0.9464
vn -0.1899 0.2613 0.9464
vn -0.3514 0.4836 0.8016
vn -0.4786 0.6588 0.5805
vn -0.5599 0.7706 0.3045
vn -0.5878 0.8090 -0.0000
vn -0.5599 0.7706 -0.3045
vn -0.4786 0.6588 -0.5805
vn -0.3514 0.4836 -0.8016
vn -0.1899 0.2613 -0.9464
vn -0.0998 0.3072 0.9464
vn -0.1847 0.5686 0.8016
vn -0.2516 0.7744 0.5805
vn -0.2943 0.9059 0.3045
vn -0.3090 0.9511 -0.0000
vn -0.2943 0.9059 -0.3045
vn -0.2516 0.7744 -0.5805
vn -0.1847 0.5686 -0.8016
vn -0.0998 0.3072 -0.9464
vn -0.0000 0.3230 0.9464
vn -0.0000 0.9525 0.3045
vn -0.0000 1.0000 -0.0000
vn -0.0000 0.9525 -0.3045
s 1
usemtl Porcelain_White
f 6//5 13//11 14//12 7//6
f 4//2 11//8 12//10 5//4
f 2//2 9//8 10//9 3//3
f 7//6 14//12 8//7
f 5//4 12//10 13//11 6//5
f 3//3 10//9 11//8 4//2
f 1//1 9//8 2//2
f 10//9 16//14 17//13 11//8
f 1//1 15//13 9//8
f 13//11 19//16 20//17 14//12
f 11//8 17//13 18//15 12//10
f 9//8 15//13 16//14 10//9
f 14//12 20//17 8//7
f 12//10 18//15 19//16 13//11
f 19//16 25//21 26//22 20//17
f 17//13 23//18 24//20 18//15
f 15//13 21//18 22//19 16//14
f 20//17 26//22 8//7
f 18//15 24//20 25//21 19//16
f 16//14 22//19 23//18 17//13
f 1//1 21//18 15//13
f 25//21 31//26 32//27 26//22
f 23//18 29//23 30//25 24//20
f 21//18 27//23 28//24 22//19
f 26//22 32//27 8//7
f 24//20 30//25 31//26 25//21
f 22//19 28//24 29//23 23//18
f 1//1 27//23 21//18
f 27//23 33//28 34//29 28//24
f 32//27 38//32 8//7
f 30//25 36//30 37//31 31//26
f 28//24 34//29 35//28 29//23
f 1//1 33//28 27//23
f 31//26 37//31 38//32 32//27
f 29//23 35//28 36//30 30//25
f 38//32 44//37 8//7
f 36//30 42//35 43//36 37//31
f 34//29 40//34 41//33 35//28
f 1//1 39//33 33//28
f 37//31 43//36 44//37 38//32
f 35//28 41//33 42//35 36//30
f 33//28 39//33 40//34 34//29
f 42//35 48//40 49//41 43//36
f 40//34 46//39 47//38 41//33
f 1//1 45//38 39//33
f 43//36 49//41 50//42 44//37
f 41//33 47//38 48//40 42//35
f 39//33 45//38 46//39 40//34
f 44//37 50//42 8//7
f 1//1 51//43 45//38
f 49//41 55//46 56//47 50//42
f 47//38 53//43 54//45 48//40
f 45//38 51//43 52//44 46//39
f 50//42 56//47 8//7
f 48//40 54//45 55//46 49//41
f 46//39 52//44 53//43 47//38
f 55//46 61//51 62//52 56//47
f 53//43 59//48 60//50 54//45
f 51//43 57//48 58//49 52//44
f 56//47 62//52 8//7
f 54//45 60//50 61//51 55//46
f 52//44 58//49 59//48 53//43
f 1//1 57//48 51//43
f 59//48 65//53 66//55 60//50
f 57//48 63//53 64//54 58//49
f 62//52 68//57 8//7
f 60//50 66//55 67//56 61//51
f 58//49 64//54 65//53 59//48
f 1//1 63//53 57//48
f 61//51 67//56 68//57 62//52
f 68//57 74//62 8//7
f 66//55 72//60 73//61 67//56
f 64//54 70//59 71//58 65//53
f 1//1 69//58 63//53
f 67//56 73//61 74//62 68//57
f 65//53 71//58 72//60 66//55
f 63//53 69//58 70//59 64//54
f 74//62 80//67 8//7
f 72//60 78//65 79//66 73//61
f 70//59 76//64 77//63 71//58
f 1//1 75//63 69//58
f 73//61 79//66 80//67 74//62
f 71//58 77//63 78//65 72//60
f 69//58 75//63 76//64 70//59
f 76//64 82//69 83//68 77//63
f 1//1 81//68 75//63
f 79//66 85//71 86//72 80//67
f 77//63 83//68 84//70 78//65
f 75//63 81//68 82//69 76//64
f 80//67 86//72 8//7
f 78//65 84//70 85//71 79//66
f 85//71 91//76 92//77 86//72
f 83//68 89//73 90//75 84//70
f 81//68 87//73 88//74 82//69
f 86//72 92//77 8//7
f 84//70 90//75 91//76 85//71
f 82//69 88//74 89//73 83//68
f 1//1 87//73 81//68
f 91//76 97//81 98//82 92//77
f 89//73 95//78 96//80 90//75
f 87//73 93//78 94//79 88//74
f 92//77 98//82 8//7
f 90//75 96//80 97//81 91//76
f 88//74 94//79 95//78 89//73
f 1//1 93//78 87//73
f 93//78 99//83 100//84 94//79
f 98//82 104//87 8//7
f 96//80 102//85 103//86 97//81
f 94//79 100//84 101//83 95//78
f 1//1 99//83 93//78
f 97//81 103//86 104//87 98//82
f 95//78 101//83 102//85 96//80
f 104//87 110//92 8//7
f 102//85 108//90 109//91 103//86
f 100//84 106//89 107//88 101//83
f 1//1 105//88 99//83
f 103//86 109//91 110//92 104//87
f 101//83 107//88 108//90 102//85
f 99//83 105//88 106//89 100//84
f 108//90 114//95 115//96 109//91
f 106//89 112//94 113//93 107//88
f 1//1 111//93 105//88
f 109//91 115//96 116//97 110//92
f 107//88 113//93 114//95 108//90
f 105//88 111//93 112//94 106//89
f 110//92 116//97 8//7
f 1//1 117//98 111//93
f 115//96 121//101 122//102 116//97
f 113//93 119//98 120//100 114//95
f 111//93 117//98 118//99 112//94
f 116//97 122//102 8//7
f 114//95 120//100 121//101 115//96
f 112//94 118//99 119//98 113//93
f 121//101 127//106 128//107 122//102
f 119//98 125//103 126//105 120//100
f 117//98 123//103 124//104 118//99
f 122//102 128//107 8//7
f 120//100 126//105 127//106 121//101
f 118//99 124//104 125//103 119//98
f 1//1 123//103 117//98
f 125//103 131//108 132//110 126//105
f 123//103 129//108 130//109 124//104
f 128//107 134//112 8//7
f 126//105 132//110 133//111 127//106
f 124//104 130//109 131//108 125//103
f 1//1 129//108 123//103
f 127//106 133//111 134//112 128//107
f 134//112 140//117 8//7
f 132//110 138//115 139//116 133//111
f 130//109 136//114 137//113 131//108
f 1//1 135//113 129//108
f 133//111 139//116 140//117 134//112
f 131//108 137//113 138//115 132//110
f 129//108 135//113 136//114 130//109
f 140//117 146//122 8//7
f 138//115 144//120 145//121 139//116
f 136//114 142//119 143//118 137//113
f 1//1 141//118 135//113
f 139//116 145//121 146//122 140//117
f 137//113 143//118 144//120 138//115
f 135//113 141//118 142//119 136//114
f 142//119 148//124 149//123 143//118
f 1//1 147//123 141//118
f 145//121 151//126 152//127 146//122
f 143//118 149//123 150//125 144//120
f 141//118 147//123 148//124 142//119
f 146//122 152//127 8//7
f 144//120 150//125 151//126 145//121
f 151//126 157//131 158//132 152//127
f 149//123 155//128 156//130 150//125
f 147//123 153//128 154//129 148//124
f 152//127 158//132 8//7
f 150//125 156//130 157//131 151//126
f 148//124 154//129 155//128 149//123
f 1//1 153//128 147//123
f 157//131 163//136 164//137 158//132
f 155//128 161//133 162//135 156//130
f 153//128 159//133 160//134 154//129
f 158//132 164//137 8//7
f 156//130 162//135 163//136 157//131
f 154//129 160//134 161//133 155//128
f 1//1 159//133 153//128
f 159//133 165//138 166//139 160//134
f 164//137 170//142 8//7
f 162//135 168//140 169//141 163//136
f 160//134 166//139 167//138 161//133
f 1//1 165//138 159//133
f 163//136 169//141 170//142 164//137
f 161//133 167//138 168//140 162//135
f 170//142 176//147 8//7
f 168//140 174//145 175//146 169//141
f 166//139 172//144 173//143 167//138
f 1//1 171//143 165//138
f 169//141 175//146 176//147 170//142
f 167//138 173//143 174//145 168//140
f 165//138 171//143 172//144 166//139
f 174//145 180//150 181//151 175//146
f 172//144 178//149 179//148 173//143
f 1//1 177//148 171//143
f 175//146 181//151 182//152 176//147
f 173//143 179//148 180//150 174//145
f 171//143 177//148 178//149 172//144
f 176//147 182//152 8//7
f 1//1 183//153 177//148
f 181//151 187//156 188//157 182//152
f 179//148 185//153 186//155 180//150
f 177//148 183//153 184//154 178//149
f 182//152 188//157 8//7
f 180//150 186//155 187//156 181//151
f 178//149 184//154 185//153 179//148
f 187//156 193//161 194//162 188//157
f 185//153 191//158 192//160 186//155
f 183//153 189//158 190//159 184//154
f 188//157 194//162 8//7
f 186//155 192//160 193//161 187//156
f 184//154 190//159 191//158 185//153
f 1//1 189//158 183//153
f 191//158 197//163 198//165 192//160
f 189//158 195//163 196//164 190//159
f 194//162 200//167 8//7
f 192//160 198//165 199//166 193//161
f 190//159 196//164 197//163 191//158
f 1//1 195//163 189//158
f 193//161 199//166 200//167 194//162
f 200//167 206//172 8//7
f 198//165 204//170 205//171 199//166
f 196//164 202//169 203//168 197//163
f 1//1 201//168 195//163
f 199//166 205//171 206//172 200//167
f 197//163 203//168 204//170 198//165
f 195//163 201//168 202//169 196//164
f 206//172 212//177 8//7
f 204//170 210//175 211//176 205//171
f 202//169 208//174 209//173 203//168
f 1//1 207//173 201//168
f 205//171 211//176 212//177 206//172
f 203//168 209//173 210//175 204//170
f 201//168 207//173 208//174 202//169
f 208//174 214//179 215//178 209//173
f 1//1 213//178 207//173
f 211//176 217//181 218//182 212//177
f 209//173 215//178 216//180 210//175
f 207//173 213//178 214//179 208//174
f 212//177 218//182 8//7
f 210//175 216//180 217//181 211//176
f 217//181 223//186 224//187 218//182
f 215//178 221//183 222//185 216//180
f 213//178 219//183 220//184 214//179
f 218//182 224//187 8//7
f 216//180 222//185 223//186 217//181
f 214//179 220//184 221//183 215//178
f 1//1 219//183 213//178
f 223//186 229//191 230//192 224//187
f 221//183 227//188 228//190 222//185
f 219//183 225//188 226//189 220//184
f 224//187 230//192 8//7
f 222//185 228//190 229//191 223//186
f 220//184 226//189 227//188 221//183
f 1//1 225//188 219//183
f 225//188 231//193 232//194 226//189
f 230//192 236//197 8//7
f 228//190 234//195 235//196 229//191
f 226//189 232//194 233//193 227//188
f 1//1 231//193 225//188
f 229//191 235//196 236//197 230//192
f 227//188 233//193 234//195 228//190
f 236//197 242//202 8//7
f 234//195 240//200 241//201 235//196
f 232//194 238//199 239//198 233//193
f 1//1 237//198 231//193
f 235//196 241//201 242//202 236//197
f 233//193 239//198 240//200 234//195
f 231//193 237//198 238//199 232//194
f 240//200 5//4 6//5 241//201
f 238//199 3//3 4//2 239//198
f 1//1 2//2 237//198
f 241//201 6//5 7//6 242//202
f 239//198 4//2 5//4 240//200
f 237//198 2//2 3//3 238//199
f 242//202 7//6 8//7
f 245//204 244//203 251//209 252//210
f 249//1 248//207 258//216
f 246//205 424//382 255//213 256//214
f 422//380 245//204 252//210 253//211
f 421//379 243//7 250//208
f 247//206 246//205 256//214 257//215
f 423//381 422//380 253//211 254//212
f 244//203 421//379 250//208 251//209
f 248//207 247//206 257//215 258//216
f 424//382 423//381 254//212 255//213
f 252//210 251//209 260//218 261//219
f 249//1 258//216 267//225
f 256//214 255//213 264//222 265//223
f 253//211 252//210 261//219 262//220
f 250//208 243//7 259//217
f 257//215 256//214 265//223 266//224
f 254//212 253//211 262//220 263//221
f 251//209 250//208 259//217 260//218
f 258//216 257//215 266//224 267//225
f 255//213 254//212 263//221 264//222
f 264//222 263//221 272//230 273//231
f 261//219 260//218 269//227 270//228
f 249//1 267//225 276//234
f 265//223 264//222 273//231 274//232
f 262//220 261//219 270//228 271//229
f 259//217 243//7 268//226
f 266//224 265//223 274//232 275//233
f 263//221 262//220 271//229 272//230
f 260//218 259//217 268//226 269//227
f 267//225 266//224 275//233 276//234
f 269//227 268//226 277//235 278//236
f 276//234 275//233 284//242 285//243
f 273//231 272//230 281//239 282//240
f 270//228 269//227 278//236 279//237
f 249//1 276//234 285//243
f 274//232 273//231 282//240 283//241
f 271//229 270//228 279//237 280//238
f 268//226 243//7 277//235
f 275//233 274//232 283//241 284//242
f 272//230 271//229 280//238 281//239
f 284//242 283//241 292//250 293//251
f 281//239 280//238 289//247 290//248
f 278//236 277//235 286//244 287//245
f 285//243 284//242 293//251 294//252
f 282//240 281//239 290//248 291//249
f 279//237 278//236 287//245 288//246
f 249//1 285//243 294//252
f 283//241 282//240 291//249 292//250
f 280//238 279//237 288//246 289//247
f 277//235 243//7 286//244
f 289//247 288//246 297//255 298//256
f 286//244 243//7 295//253
f 293//251 292//250 301//259 302//260
f 290//248 289//247 298//256 299//257
f 287//245 286//244 295//253 296//254
f 294//252 293//251 302//260 303//261
f 291//249 290//248 299//257 300//258
f 288//246 287//245 296//254 297//255
f 249//1 294//252 303//261
f 292//250 291//249 300//258 301//259
f 301//259 300//258 309//267 310//268
f 298//256 297//255 306//264 307//265
f 295//253 243//7 304//262
f 302//260 301//259 310//268 311//269
f 299//257 298//256 307//265 308//266
f 296//254 295//253 304//262 305//263
f 303//261 302//260 311//269 312//270
f 300//258 299//257 308//266 309//267
f 297//255 296//254 305//263 306//264
f 249//1 303//261 312//270
f 306//264 305//263 314//272 315//273
f 249//1 312//270 321//279
f 310//268 309//267 318//276 319//277
f 307//265 306//264 315//273 316//274
f 304//262 243//7 313//271
f 311//269 310//268 319//277 320//278
f 308//266 307//265 316//274 317//275
f 305//263 304//262 313//271 314//272
f 312//270 311//269 320//278 321//279
f 309//267 308//266 317//275 318//276
f 321//279 320//278 329//287 330//288
f 318//276 317//275 326//284 327//285
f 315//273 314//272 323//281 324//282
f 249//1 321//279 330//288
f 319//277 318//276 327//285 328//286
f 316//274 315//273 324//282 325//283
f 313//271 243//7 322//280
f 320//278 319//277 328//286 329//287
f 317//275 316//274 325//283 326//284
f 314//272 313//271 322//280 323//281
f 326//284 325//283 334//292 335//293
f 323//281 322//280 331//289 332//290
f 330//288 329//287 338//296 339//297
f 327//285 326//284 335//293 336//294
f 324//282 323//281 332//290 333//291
f 249//1 330//288 339//297
f 328//286 327//285 336//294 337//295
f 325//283 324//282 333//291 334//292
f 322//280 243//7 331//289
f 329//287 328//286 337//295 338//296
f 331//289 243//7 340//298
f 338//296 337//295 346//304 347//305
f 335//293 334//292 343//301 344//302
f 332//290 331//289 340//298 341//299
f 339//297 338//296 347//305 348//306
f 336//294 335//293 344//302 345//303
f 333//291 332//290 341//299 342//300
f 249//1 339//297 348//306
f 337//295 336//294 345//303 346//304
f 334//292 333//291 342//300 343//301
f 343//301 342//300 351//309 352//310
f 340//298 243//7 349//307
f 347//305 346//304 355//313 356//314
f 344//302 343//301 352//310 353//311
f 341//299 340//298 349//307 350//308
f 348//306 347//305 356//314 357//315
f 345//303 344//302 353//311 354//312
f 342//300 341//299 350//308 351//309
f 249//1 348//306 357//315
f 346//304 345//303 354//312 355//313
f 249//1 357//315 366//324
f 355//313 354//312 363//321 364//322
f 352//310 351//309 360//318 361//319
f 349//307 243//7 358//316
f 356//314 355//313 364//322 365//323
f 353//311 352//310 361//319 362//320
f 350//308 349//307 358//316 359//317
f 357//315 356//314 365//323 366//324
f 354//312 353//311 362//320 363//321
f 351//309 350//308 359//317 360//318
f 363//321 362//320 371//329 372//330
f 360//318 359//317 368//326 369//327
f 249//1 366//324 375//333
f 364//322 363//321 372//330 373//331
f 361//319 360//318 369//327 370//328
f 358//316 243//7 367//325
f 365//323 364//322 373//331 374//332
f 362//320 361//319 370//328 371//329
f 359//317 358//316 367//325 368//326
f 366//324 365//323 374//332 375//333
f 368//326 367//325 376//334 377//335
f 375//333 374//332 383//341 384//342
f 372//330 371//329 380//338 381//339
f 369//327 368//326 377//335 378//336
f 249//1 375//333 384//342
f 373//331 372//330 381//339 382//340
f 370//328 369//327 378//336 379//337
f 367//325 243//7 376//334
f 374//332 373//331 382//340 383//341
f 371//329 370//328 379//337 380//338
f 380//338 379//337 388//346 389//347
f 377//335 376//334 385//343 386//344
f 384//342 383//341 392//350 393//351
f 381//339 380//338 389//347 390//348
f 378//336 377//335 386//344 387//345
f 249//1 384//342 393//351
f 382//340 381//339 390//348 391//349
f 379//337 378//336 387//345 388//346
f 376//334 243//7 385//343
f 383//341 382//340 391//349 392//350
f 385//343 243//7 394//352
f 392//350 391//349 400//358 401//359
f 389//347 388//346 397//355 398//356
f 386//344 385//343 394//352 395//353
f 393//351 392//350 401//359 402//360
f 390//348 389//347 398//356 399//357
f 387//345 386//344 395//353 396//354
f 249//1 393//351 402//360
f 391//349 390//348 399//357 400//358
f 388//346 387//345 396//354 397//355
f 400//358 399//357 408//366 409//367
f 397//355 396//354 405//363 406//364
f 394//352 243//7 403//361
f 401//359 400//358 409//367 410//368
f 398//356 397//355 406//364 407//365
f 395//353 394//352 403//361 404//362
f 402//360 401//359 410//368 411//369
f 399//357 398//356 407//365 408//366
f 396//354 395//353 404//362 405//363
f 249//1 402//360 411//369
f 405//363 404//362 413//371 414//372
f 249//1 411//369 420//378
f 409//367 408//366 417//375 418//376
f 406//364 405//363 414//372 415//373
f 403//361 243//7 412//370
f 410//368 409//367 418//376 419//377
f 407//365 406//364 415//373 416//374
f 404//362 403//361 412//370 413//371
f 411//369 410//368 419//377 420//378
f 408//366 407//365 416//374 417//375
f 417//375 416//374 423//381 424//382
f 414//372 413//371 244//203 245//204
f 249//1 420//378 248//207
f 418//376 417//375 424//382 246//205
f 415//373 414//372 245//204 422//380
f 412//370 243//7 421//379
f 419//377 418//376 246//205 247//206
f 416//374 415//373 422//380 423//381
f 413//371 412//370 421//379 244//203
f 420//378 419//377 247//206 248//207
