mtllib material.mtl
usemtl material_0
v 0.00000000 0.31000000 -0.50000000
v 0.00000000 0.31000000 -0.50000000
v 0.00000000 0.31000000 -0.50000000
v 0.00000000 0.31000000 0.50000000
v 0.00000000 0.31000000 0.50000000
v 0.00000000 0.31000000 0.50000000
v 0.07709400 0.30026099 -0.50000000
v 0.07709400 0.30026099 -0.50000000
v 0.07709400 0.30026099 -0.50000000
v 0.07709400 0.30026099 0.50000000
v 0.07709400 0.30026099 0.50000000
v 0.07709400 0.30026099 0.50000000
v 0.14934400 0.27165499 -0.50000000
v 0.14934400 0.27165499 -0.50000000
v 0.14934400 0.27165499 -0.50000000
v 0.14934400 0.27165499 0.50000000
v 0.14934400 0.27165499 0.50000000
v 0.14934400 0.27165499 0.50000000
v 0.21221000 0.22598000 -0.50000000
v 0.21221000 0.22598000 -0.50000000
v 0.21221000 0.22598000 -0.50000000
v 0.21221000 0.22598000 0.50000000
v 0.21221000 0.22598000 0.50000000
v 0.21221000 0.22598000 0.50000000
v 0.26174200 0.16610600 -0.50000000
v 0.26174200 0.16610600 -0.50000000
v 0.26174200 0.16610600 -0.50000000
v 0.26174200 0.16610600 0.50000000
v 0.26174200 0.16610600 0.50000000
v 0.26174200 0.16610600 0.50000000
v 0.29482800 0.09579500 -0.50000000
v 0.29482800 0.09579500 -0.50000000
v 0.29482800 0.09579500 -0.50000000
v 0.29482800 0.09579500 0.50000000
v 0.29482800 0.09579500 0.50000000
v 0.29482800 0.09579500 0.50000000
v 0.30938801 0.01946500 -0.50000000
v 0.30938801 0.01946500 -0.50000000
v 0.30938801 0.01946500 -0.50000000
v 0.30938801 0.01946500 0.50000000
v 0.30938801 0.01946500 0.50000000
v 0.30938801 0.01946500 0.50000000
v 0.30450901 -0.05808800 -0.50000000
v 0.30450901 -0.05808800 -0.50000000
v 0.30450901 -0.05808800 -0.50000000
v 0.30450901 -0.05808800 0.50000000
v 0.30450901 -0.05808800 0.50000000
v 0.30450901 -0.05808800 0.50000000
v 0.28049600 -0.13199200 -0.50000000
v 0.28049600 -0.13199200 -0.50000000
v 0.28049600 -0.13199200 -0.50000000
v 0.28049600 -0.13199200 0.50000000
v 0.28049600 -0.13199200 0.50000000
v 0.28049600 -0.13199200 0.50000000
v 0.23885900 -0.19760100 -0.50000000
v 0.23885900 -0.19760100 -0.50000000
v 0.23885900 -0.19760100 -0.50000000
v 0.23885900 -0.19760100 0.50000000
v 0.23885900 -0.19760100 0.50000000
v 0.23885900 -0.19760100 0.50000000
v 0.18221299 -0.25079501 -0.50000000
v 0.18221299 -0.25079501 -0.50000000
v 0.18221299 -0.25079501 -0.50000000
v 0.18221299 -0.25079501 0.50000000
v 0.18221299 -0.25079501 0.50000000
v 0.18221299 -0.25079501 0.50000000
v 0.11411900 -0.28823098 -0.50000000
v 0.11411900 -0.28823098 -0.50000000
v 0.11411900 -0.28823098 -0.50000000
v 0.11411900 -0.28823098 0.50000000
v 0.11411900 -0.28823098 0.50000000
v 0.11411900 -0.28823098 0.50000000
v 0.03885300 -0.30755600 -0.50000000
v 0.03885300 -0.30755600 -0.50000000
v 0.03885300 -0.30755600 -0.50000000
v 0.03885300 -0.30755600 0.50000000
v 0.03885300 -0.30755600 0.50000000
v 0.03885300 -0.30755600 0.50000000
v -0.03885300 -0.30755600 -0.50000000
v -0.03885300 -0.30755600 -0.50000000
v -0.03885300 -0.30755600 -0.50000000
v -0.03885300 -0.30755600 0.50000000
v -0.03885300 -0.30755600 0.50000000
v -0.03885300 -0.30755600 0.50000000
v -0.11411900 -0.28823098 -0.50000000
v -0.11411900 -0.28823098 -0.50000000
v -0.11411900 -0.28823098 -0.50000000
v -0.11411900 -0.28823098 0.50000000
v -0.11411900 -0.28823098 0.50000000
v -0.11411900 -0.28823098 0.50000000
v -0.18221299 -0.25079501 -0.50000000
v -0.18221299 -0.25079501 -0.50000000
v -0.18221299 -0.25079501 -0.50000000
v -0.18221299 -0.25079501 0.50000000
v -0.18221299 -0.25079501 0.50000000
v -0.18221299 -0.25079501 0.50000000
v -0.23885900 -0.19760100 -0.50000000
v -0.23885900 -0.19760100 -0.50000000
v -0.23885900 -0.19760100 -0.50000000
v -0.23885900 -0.19760100 0.50000000
v -0.23885900 -0.19760100 0.50000000
v -0.23885900 -0.19760100 0.50000000
v -0.28049600 -0.13199200 -0.50000000
v -0.28049600 -0.13199200 -0.50000000
v -0.28049600 -0.13199200 -0.50000000
v -0.28049600 -0.13199200 0.50000000
v -0.28049600 -0.13199200 0.50000000
v -0.28049600 -0.13199200 0.50000000
v -0.30450901 -0.05808800 -0.50000000
v -0.30450901 -0.05808800 -0.50000000
v -0.30450901 -0.05808800 -0.50000000
v -0.30450901 -0.05808800 0.50000000
v -0.30450901 -0.05808800 0.50000000
v -0.30450901 -0.05808800 0.50000000
v -0.30938801 0.01946500 -0.50000000
v -0.30938801 0.01946500 -0.50000000
v -0.30938801 0.01946500 -0.50000000
v -0.30938801 0.01946500 0.50000000
v -0.30938801 0.01946500 0.50000000
v -0.30938801 0.01946500 0.50000000
v -0.29482800 0.09579500 -0.50000000
v -0.29482800 0.09579500 -0.50000000
v -0.29482800 0.09579500 -0.50000000
v -0.29482800 0.09579500 0.50000000
v -0.29482800 0.09579500 0.50000000
v -0.29482800 0.09579500 0.50000000
v -0.26174200 0.16610600 -0.50000000
v -0.26174200 0.16610600 -0.50000000
v -0.26174200 0.16610600 -0.50000000
v -0.26174200 0.16610600 0.50000000
v -0.26174200 0.16610600 0.50000000
v -0.26174200 0.16610600 0.50000000
v -0.21221000 0.22598000 -0.50000000
v -0.21221000 0.22598000 -0.50000000
v -0.21221000 0.22598000 -0.50000000
v -0.21221000 0.22598000 0.50000000
v -0.21221000 0.22598000 0.50000000
v -0.21221000 0.22598000 0.50000000
v -0.14934400 0.27165499 -0.50000000
v -0.14934400 0.27165499 -0.50000000
v -0.14934400 0.27165499 -0.50000000
v -0.14934400 0.27165499 0.50000000
v -0.14934400 0.27165499 0.50000000
v -0.14934400 0.27165499 0.50000000
v -0.07709400 0.30026099 0.50000000
v -0.07709400 0.30026099 0.50000000
v -0.07709400 0.30026099 0.50000000
v -0.07709400 0.30026099 -0.50000000
v -0.07709400 0.30026099 -0.50000000
v -0.07709400 0.30026099 -0.50000000
vn 0.12530000 0.99210000 -0.00000000
vn -0.12530000 0.99210000 -0.00000000
vn 0.00000000 -0.00000000 -1.00000000
vn 0.12530000 0.99210000 -0.00000000
vn 0.00000000 0.00000000 1.00000000
vn -0.12530000 0.99210000 -0.00000000
vn 0.36809999 0.92979997 -0.00000000
vn 0.00000000 -0.00000000 -1.00000000
vn 0.12530000 0.99210000 -0.00000000
vn 0.12530000 0.99210000 -0.00000000
vn 0.36809999 0.92979997 -0.00000000
vn 0.00000000 0.00000000 1.00000000
vn 0.00000000 -0.00000000 -1.00000000
vn 0.58780003 0.80900001 -0.00000000
vn 0.36809999 0.92979997 -0.00000000
vn 0.58780003 0.80900001 -0.00000000
vn 0.36809999 0.92979997 -0.00000000
vn 0.00000000 0.00000000 1.00000000
vn 0.00000000 -0.00000000 -1.00000000
vn 0.77050000 0.63739997 -0.00000000
vn 0.58780003 0.80900001 -0.00000000
vn 0.77050000 0.63739997 -0.00000000
vn 0.00000000 0.00000000 1.00000000
vn 0.58780003 0.80900001 -0.00000000
vn 0.77050000 0.63739997 -0.00000000
vn 0.90480000 0.42580000 -0.00000000
vn 0.00000000 -0.00000000 -1.00000000
vn 0.00000000 0.00000000 1.00000000
vn 0.90480000 0.42580000 -0.00000000
vn 0.77050000 0.63739997 -0.00000000
vn 0.00000000 -0.00000000 -1.00000000
vn 0.98229998 0.18740000 -0.00000000
vn 0.90480000 0.42580000 -0.00000000
vn 0.00000000 0.00000000 1.00000000
vn 0.98229998 0.18740000 -0.00000000
vn 0.90480000 0.42580000 -0.00000000
vn 0.99800003 -0.06280000 0.00000000
vn 0.98229998 0.18740000 -0.00000000
vn 0.00000000 -0.00000000 -1.00000000
vn 0.00000000 0.00000000 1.00000000
vn 0.99800003 -0.06280000 0.00000000
vn 0.98229998 0.18740000 -0.00000000
vn 0.95109999 -0.30899998 0.00000000
vn 0.00000000 -0.00000000 -1.00000000
vn 0.99800003 -0.06280000 0.00000000
vn 0.00000000 0.00000000 1.00000000
vn 0.99800003 -0.06280000 0.00000000
vn 0.95109999 -0.30899998 0.00000000
vn 0.84429997 -0.53579998 0.00000000
vn 0.00000000 -0.00000000 -1.00000000
vn 0.95109999 -0.30899998 0.00000000
vn 0.95109999 -0.30899998 0.00000000
vn 0.84429997 -0.53579998 0.00000000
vn 0.00000000 0.00000000 1.00000000
vn 0.84429997 -0.53579998 0.00000000
vn 0.00000000 -0.00000000 -1.00000000
vn 0.68449998 -0.72899997 0.00000000
vn 0.68449998 -0.72899997 0.00000000
vn 0.84429997 -0.53579998 0.00000000
vn 0.00000000 0.00000000 1.00000000
vn 0.00000000 -0.00000000 -1.00000000
vn 0.48179999 -0.87629998 0.00000000
vn 0.68449998 -0.72899997 0.00000000
vn 0.68449998 -0.72899997 0.00000000
vn 0.48179999 -0.87629998 0.00000000
vn 0.00000000 0.00000000 1.00000000
vn 0.48179999 -0.87629998 0.00000000
vn 0.00000000 -0.00000000 -1.00000000
vn 0.24869999 -0.96859997 0.00000000
vn 0.48179999 -0.87629998 0.00000000
vn 0.24869999 -0.96859997 0.00000000
vn 0.00000000 0.00000000 1.00000000
vn 0.00000000 -0.00000000 -1.00000000
vn 0.24869999 -0.96859997 0.00000000
vn 0.00000000 -1.00000000 0.00000000
vn 0.24869999 -0.96859997 0.00000000
vn 0.00000000 0.00000000 1.00000000
vn 0.00000000 -1.00000000 0.00000000
vn 0.00000000 -1.00000000 0.00000000
vn 0.00000000 -0.00000000 -1.00000000
vn -0.24869999 -0.96859997 0.00000000
vn 0.00000000 -1.00000000 0.00000000
vn -0.24869999 -0.96859997 0.00000000
vn 0.00000000 0.00000000 1.00000000
vn 0.00000000 -0.00000000 -1.00000000
vn -0.24869999 -0.96859997 0.00000000
vn -0.48179999 -0.87629998 0.00000000
vn 0.00000000 0.00000000 1.00000000
vn -0.48179999 -0.87629998 0.00000000
vn -0.24869999 -0.96859997 0.00000000
vn -0.48179999 -0.87629998 0.00000000
vn -0.68449998 -0.72899997 0.00000000
vn 0.00000000 -0.00000000 -1.00000000
vn -0.48179999 -0.87629998 0.00000000
vn -0.68449998 -0.72899997 0.00000000
vn 0.00000000 0.00000000 1.00000000
vn 0.00000000 -0.00000000 -1.00000000
vn -0.68449998 -0.72899997 0.00000000
vn -0.84429997 -0.53579998 0.00000000
vn -0.68449998 -0.72899997 0.00000000
vn 0.00000000 0.00000000 1.00000000
vn -0.84429997 -0.53579998 0.00000000
vn 0.00000000 -0.00000000 -1.00000000
vn -0.95109999 -0.30899998 0.00000000
vn -0.84429997 -0.53579998 0.00000000
vn 0.00000000 0.00000000 1.00000000
vn -0.84429997 -0.53579998 0.00000000
vn -0.95109999 -0.30899998 0.00000000
vn -0.95109999 -0.30899998 0.00000000
vn -0.99800003 -0.06280000 0.00000000
vn 0.00000000 -0.00000000 -1.00000000
vn -0.99800003 -0.06280000 0.00000000
vn 0.00000000 0.00000000 1.00000000
vn -0.95109999 -0.30899998 0.00000000
vn 0.00000000 -0.00000000 -1.00000000
vn -0.99800003 -0.06280000 0.00000000
vn -0.98229998 0.18740000 -0.00000000
vn 0.00000000 0.00000000 1.00000000
vn -0.98229998 0.18740000 -0.00000000
vn -0.99800003 -0.06280000 0.00000000
vn -0.90480000 0.42580000 -0.00000000
vn -0.98229998 0.18740000 -0.00000000
vn 0.00000000 -0.00000000 -1.00000000
vn -0.98229998 0.18740000 -0.00000000
vn -0.90480000 0.42580000 -0.00000000
vn 0.00000000 0.00000000 1.00000000
vn 0.00000000 -0.00000000 -1.00000000
vn -0.90480000 0.42580000 -0.00000000
vn -0.77050000 0.63739997 -0.00000000
vn 0.00000000 0.00000000 1.00000000
vn -0.77050000 0.63739997 -0.00000000
vn -0.90480000 0.42580000 -0.00000000
vn 0.00000000 -0.00000000 -1.00000000
vn -0.77050000 0.63739997 -0.00000000
vn -0.58780003 0.80900001 -0.00000000
vn -0.58780003 0.80900001 -0.00000000
vn 0.00000000 0.00000000 1.00000000
vn -0.77050000 0.63739997 -0.00000000
vn -0.58780003 0.80900001 -0.00000000
vn 0.00000000 -0.00000000 -1.00000000
vn -0.36809999 0.92979997 -0.00000000
vn -0.58780003 0.80900001 -0.00000000
vn 0.00000000 0.00000000 1.00000000
vn -0.36809999 0.92979997 -0.00000000
vn 0.00000000 0.00000000 1.00000000
vn -0.12530000 0.99210000 -0.00000000
vn -0.36809999 0.92979997 -0.00000000
vn -0.12530000 0.99210000 -0.00000000
vn -0.36809999 0.92979997 -0.00000000
vn 0.00000000 -0.00000000 -1.00000000
vt 1.00000000 0.50000000
vt -0.00000000 0.50000000
vt 0.75000000 0.49000001
vt 1.00000000 1.00000000
vt 0.25000000 0.49000001
vt -0.00000000 1.00000000
vt 0.95999998 0.50000000
vt 0.80968600 0.48245999
vt 0.95999998 0.50000000
vt 0.95999998 1.00000000
vt 0.95999998 1.00000000
vt 0.30968600 0.48245999
vt 0.86562097 0.46031401
vt 0.92000002 0.50000000
vt 0.92000002 0.50000000
vt 0.92000002 1.00000000
vt 0.92000002 1.00000000
vt 0.36562100 0.46031401
vt 0.91429102 0.42495200
vt 0.88000000 0.50000000
vt 0.88000000 0.50000000
vt 0.88000000 1.00000000
vt 0.41429099 0.42495200
vt 0.88000000 1.00000000
vt 0.83999997 0.50000000
vt 0.83999997 0.50000000
vt 0.95263898 0.37859801
vt 0.45263901 0.37859801
vt 0.83999997 1.00000000
vt 0.83999997 1.00000000
vt 0.97825402 0.32416400
vt 0.80000001 0.50000000
vt 0.80000001 0.50000000
vt 0.47825399 0.32416400
vt 0.80000001 1.00000000
vt 0.80000001 1.00000000
vt 0.75999999 0.50000000
vt 0.75999999 0.50000000
vt 0.98952597 0.26506999
vt 0.48952600 0.26506999
vt 0.75999999 1.00000000
vt 0.75999999 1.00000000
vt 0.72000003 0.50000000
vt 0.98574901 0.20502800
vt 0.72000003 0.50000000
vt 0.48574901 0.20502800
vt 0.72000003 1.00000000
vt 0.72000003 1.00000000
vt 0.68000001 0.50000000
vt 0.96715802 0.14781301
vt 0.68000001 0.50000000
vt 0.68000001 1.00000000
vt 0.68000001 1.00000000
vt 0.46715799 0.14781301
vt 0.63999999 0.50000000
vt 0.93492299 0.09701800
vt 0.63999999 0.50000000
vt 0.63999999 1.00000000
vt 0.63999999 1.00000000
vt 0.43492299 0.09701800
vt 0.89106798 0.05583600
vt 0.60000002 0.50000000
vt 0.60000002 0.50000000
vt 0.60000002 1.00000000
vt 0.60000002 1.00000000
vt 0.39106801 0.05583600
vt 0.56000000 0.50000000
vt 0.83835000 0.02685400
vt 0.56000000 0.50000000
vt 0.56000000 1.00000000
vt 0.56000000 1.00000000
vt 0.33835000 0.02685400
vt 0.78008002 0.01189200
vt 0.51999998 0.50000000
vt 0.51999998 0.50000000
vt 0.51999998 1.00000000
vt 0.28007999 0.01189200
vt 0.51999998 1.00000000
vt 0.47999999 0.50000000
vt 0.71991998 0.01189200
vt 0.47999999 0.50000000
vt 0.47999999 1.00000000
vt 0.47999999 1.00000000
vt 0.21991999 0.01189200
vt 0.66165000 0.02685400
vt 0.44000000 0.50000000
vt 0.44000000 0.50000000
vt 0.16165000 0.02685400
vt 0.44000000 1.00000000
vt 0.44000000 1.00000000
vt 0.40000001 0.50000000
vt 0.40000001 0.50000000
vt 0.60893202 0.05583600
vt 0.40000001 1.00000000
vt 0.40000001 1.00000000
vt 0.10893200 0.05583600
vt 0.56507701 0.09701800
vt 0.36000001 0.50000000
vt 0.36000001 0.50000000
vt 0.36000001 1.00000000
vt 0.06507700 0.09701800
vt 0.36000001 1.00000000
vt 0.53284198 0.14781301
vt 0.31999999 0.50000000
vt 0.31999999 0.50000000
vt 0.03284200 0.14781301
vt 0.31999999 1.00000000
vt 0.31999999 1.00000000
vt 0.28000000 0.50000000
vt 0.28000000 0.50000000
vt 0.51425099 0.20502800
vt 0.28000000 1.00000000
vt 0.01425100 0.20502800
vt 0.28000000 1.00000000
vt 0.51047403 0.26506999
vt 0.23999999 0.50000000
vt 0.23999999 0.50000000
vt 0.01047400 0.26506999
vt 0.23999999 1.00000000
vt 0.23999999 1.00000000
vt 0.20000000 0.50000000
vt 0.20000000 0.50000000
vt 0.52174598 0.32416400
vt 0.20000000 1.00000000
vt 0.20000000 1.00000000
vt 0.02174600 0.32416400
vt 0.54736102 0.37859801
vt 0.16000000 0.50000000
vt 0.16000000 0.50000000
vt 0.04736100 0.37859801
vt 0.16000000 1.00000000
vt 0.16000000 1.00000000
vt 0.58570898 0.42495200
vt 0.12000000 0.50000000
vt 0.12000000 0.50000000
vt 0.12000000 1.00000000
vt 0.08570900 0.42495200
vt 0.12000000 1.00000000
vt 0.08000000 0.50000000
vt 0.63437903 0.46031401
vt 0.08000000 0.50000000
vt 0.08000000 1.00000000
vt 0.13437900 0.46031401
vt 0.08000000 1.00000000
vt 0.19031400 0.48245999
vt 0.04000000 1.00000000
vt 0.04000000 1.00000000
vt 0.04000000 0.50000000
vt 0.04000000 0.50000000
vt 0.69031400 0.48245999
f 1/1/1 4/4/4 9/9/9
f 4/4/4 10/10/10 9/9/9
f 7/7/7 11/11/11 15/15/15
f 11/11/11 17/17/17 15/15/15
f 14/14/14 16/16/16 21/21/21
f 16/16/16 24/24/24 21/21/21
f 20/20/20 22/22/22 25/25/25
f 22/22/22 30/30/30 25/25/25
f 26/26/26 29/29/29 33/33/33
f 29/29/29 36/36/36 33/33/33
f 32/32/32 35/35/35 38/38/38
f 35/35/35 42/42/42 38/38/38
f 37/37/37 41/41/41 45/45/45
f 41/41/41 47/47/47 45/45/45
f 43/43/43 48/48/48 51/51/51
f 48/48/48 52/52/52 51/51/51
f 49/49/49 53/53/53 55/55/55
f 53/53/53 59/59/59 55/55/55
f 57/57/57 58/58/58 63/63/63
f 58/58/58 64/64/64 63/63/63
f 62/62/62 65/65/65 67/67/67
f 65/65/65 70/70/70 67/67/67
f 69/69/69 71/71/71 74/74/74
f 71/71/71 76/76/76 74/74/74
f 75/75/75 78/78/78 79/79/79
f 78/78/78 82/82/82 79/79/79
f 81/81/81 83/83/83 86/86/86
f 83/83/83 90/90/90 86/86/86
f 87/87/87 89/89/89 91/91/91
f 89/89/89 94/94/94 91/91/91
f 92/92/92 95/95/95 98/98/98
f 95/95/95 100/100/100 98/98/98
f 99/99/99 102/102/102 105/105/105
f 102/102/102 107/107/107 105/105/105
f 104/104/104 108/108/108 109/109/109
f 108/108/108 114/114/114 109/109/109
f 110/110/110 112/112/112 116/116/116
f 112/112/112 120/120/120 116/116/116
f 117/117/117 119/119/119 122/122/122
f 119/119/119 124/124/124 122/122/122
f 121/121/121 125/125/125 128/128/128
f 125/125/125 132/132/132 128/128/128
f 129/129/129 131/131/131 134/134/134
f 131/131/131 138/138/138 134/134/134
f 135/135/135 136/136/136 139/139/139
f 136/136/136 142/142/142 139/139/139
f 12/12/12 5/5/5 145/145/145
f 12/12/12 145/145/145 143/143/143
f 12/12/12 143/143/143 137/137/137
f 12/12/12 137/137/137 130/130/130
f 12/12/12 130/130/130 126/126/126
f 12/12/12 126/126/126 118/118/118
f 12/12/12 118/118/118 113/113/113
f 12/12/12 113/113/113 106/106/106
f 12/12/12 106/106/106 101/101/101
f 12/12/12 101/101/101 96/96/96
f 12/12/12 96/96/96 88/88/88
f 12/12/12 88/88/88 84/84/84
f 84/84/84 77/77/77 72/72/72
f 84/84/84 72/72/72 66/66/66
f 84/84/84 66/66/66 60/60/60
f 84/84/84 60/60/60 54/54/54
f 84/84/84 54/54/54 46/46/46
f 84/84/84 46/46/46 40/40/40
f 84/84/84 40/40/40 34/34/34
f 84/84/84 34/34/34 28/28/28
f 84/84/84 28/28/28 23/23/23
f 84/84/84 23/23/23 18/18/18
f 12/12/12 84/84/84 18/18/18
f 141/141/141 144/144/144 149/149/149
f 144/144/144 147/147/147 149/149/149
f 148/148/148 146/146/146 2/2/2
f 146/146/146 6/6/6 2/2/2
f 3/3/3 8/8/8 13/13/13
f 3/3/3 13/13/13 19/19/19
f 3/3/3 19/19/19 27/27/27
f 3/3/3 27/27/27 31/31/31
f 3/3/3 31/31/31 39/39/39
f 3/3/3 39/39/39 44/44/44
f 3/3/3 44/44/44 50/50/50
f 3/3/3 50/50/50 56/56/56
f 3/3/3 56/56/56 61/61/61
f 3/3/3 61/61/61 68/68/68
f 3/3/3 68/68/68 73/73/73
f 3/3/3 73/73/73 80/80/80
f 80/80/80 85/85/85 93/93/93
f 80/80/80 93/93/93 97/97/97
f 80/80/80 97/97/97 103/103/103
f 80/80/80 103/103/103 111/111/111
f 80/80/80 111/111/111 115/115/115
f 80/80/80 115/115/115 123/123/123
f 80/80/80 123/123/123 127/127/127
f 80/80/80 127/127/127 133/133/133
f 80/80/80 133/133/133 140/140/140
f 80/80/80 140/140/140 150/150/150
f 3/3/3 80/80/80 150/150/150

