# https://github.com/mikedh/trimesh
v 0.31451541 0.01616091 0.49491104
v 0.31365338 0.02618002 0.49491104
v 0.31180620 0.02618002 0.50213528
v 0.31223720 0.01616091 0.50243217
v 0.31199092 0.00620326 0.50233322
v 0.31137520 -0.01377349 0.50173944
v 0.31106731 -0.02373114 0.50144255
v 0.31045160 -0.04376936 0.50065088
v 0.31014374 -0.05188299 0.50025499
v 0.31402284 0.00620326 0.49491104
v 0.31451541 0.01616091 -0.49491104
v 0.31039003 0.04339076 0.49491104
v 0.31026688 0.04265316 0.50035399
v 0.31088260 0.03619913 0.50114566
v 0.31365338 0.02618002 -0.49491104
v 0.30109248 0.08617175 0.50144255
v 0.30207765 0.07621411 0.50223428
v 0.29499674 0.07621411 0.50500524
v 0.30497158 0.02618002 0.50480729
v 0.30497158 0.01616091 0.50520313
v 0.30497158 -0.04376936 0.50342184
v 0.30497158 -0.00375438 0.50480729
v 0.30497158 -0.01377349 0.50451040
v 0.30497158 -0.02373114 0.50421351
v 0.30595675 -0.05464901 0.50233322
v 0.30404800 -0.06374612 0.50272906
v 0.30244708 -0.07376523 0.50233322
v 0.30096933 -0.08372287 0.50114566
v 0.30004573 -0.08907049 0.50015604
v 0.30995899 -0.05845996 0.49491104
v 0.31217563 -0.02373114 0.49491104
v 0.31279138 -0.01377349 0.49491104
v 0.31402284 0.00620326 -0.49491104
v 0.31014374 -0.05188299 -0.50025499
v 0.31045160 -0.04376936 -0.50065088
v 0.31106731 -0.02373114 -0.50144255
v 0.31137520 -0.01377349 -0.50173944
v 0.31199092 0.00620326 -0.50233322
v 0.31223720 0.01616091 -0.50243217
v 0.31180620 0.02618002 -0.50213528
v 0.30410957 0.07621411 0.49491104
v 0.31039003 0.04339076 -0.49491104
v 0.30041519 0.09274872 0.50055188
v 0.30220079 0.08617175 0.49491104
v 0.31088260 0.03619913 -0.50114566
v 0.31026688 0.04265316 -0.50035399
v 0.29284167 0.10620998 0.50233322
v 0.29499674 0.08617175 0.50421351
v 0.28496033 0.10620998 0.50510418
v 0.29499674 0.06619500 0.50540107
v 0.29499674 -0.06374612 0.50540107
v 0.29499674 -0.07376523 0.50510418
v 0.29259539 -0.10376109 0.50243217
v 0.29105607 -0.11371874 0.50124466
v 0.29013246 -0.11931223 0.50025499
v 0.29025561 -0.11961956 0.49491104
v 0.30010730 -0.08925489 0.49491104
v 0.30189294 -0.08372287 0.49491104
v 0.30509472 -0.07376523 0.49491104
v 0.30835810 -0.06374612 0.48491585
v 0.30995899 -0.05845996 -0.49491104
v 0.31217563 -0.02373114 -0.49491104
v 0.31279138 -0.01377349 -0.49491104
v 0.30004573 -0.08907049 -0.50015604
v 0.30096933 -0.08372287 -0.50114566
v 0.30244708 -0.07376523 -0.50233322
v 0.30404800 -0.06374612 -0.50272906
v 0.30595675 -0.05464901 -0.50233322
v 0.30497158 -0.04376936 -0.50342184
v 0.30497158 -0.02373114 -0.50421351
v 0.30497158 -0.01377349 -0.50451040
v 0.30497158 -0.00375438 -0.50480729
v 0.30497158 0.01616091 -0.50520313
v 0.30497158 0.02618002 -0.50480729
v 0.30207765 0.07621411 -0.50223428
v 0.30109248 0.08617175 -0.50144255
v 0.29499674 0.07621411 -0.50500524
v 0.30410957 0.07621411 -0.49491104
v 0.29117921 0.11377041 0.50134361
v 0.30059990 0.09348632 0.49491104
v 0.29899898 0.09852661 0.49491104
v 0.29585877 0.10620998 0.49491104
v 0.30220079 0.08617175 -0.49491104
v 0.30041519 0.09274872 -0.50055188
v 0.28138909 0.13417743 0.50144255
v 0.27350771 0.14616349 0.50253117
v 0.26494905 0.15618260 0.50401556
v 0.27498549 0.12618673 0.50520313
v 0.28496033 0.09619086 0.50540107
v 0.27498549 -0.12373785 0.50540107
v 0.28496033 -0.10376109 0.50520313
v 0.28237426 -0.13375697 0.50213528
v 0.28496033 -0.11371874 0.50401556
v 0.28089651 -0.14014952 0.50094777
v 0.28483719 -0.13375697 0.49491104
v 0.28853157 -0.12459838 0.49491104
v 0.28865471 -0.12459838 0.48491585
v 0.29542774 -0.10376109 0.48491585
v 0.30515629 -0.07376523 0.48491585
v 0.30835810 -0.06374612 -0.48491585
v 0.30509472 -0.07376523 -0.49491104
v 0.30189294 -0.08372287 -0.49491104
v 0.30010730 -0.08925489 -0.49491104
v 0.29025561 -0.11961956 -0.49491104
v 0.29013246 -0.11931223 -0.50025499
v 0.29105607 -0.11371874 -0.50124466
v 0.29259539 -0.10376109 -0.50243217
v 0.29499674 -0.07376523 -0.50510418
v 0.29499674 -0.06374612 -0.50540107
v 0.29499674 0.06619500 -0.50540107
v 0.29499674 0.08617175 -0.50421351
v 0.29284167 0.10620998 -0.50233322
v 0.28496033 0.10620998 -0.50510418
v 0.26999807 0.16128436 0.50005710
v 0.27122954 0.15618260 0.50124466
v 0.29912215 0.09852661 0.48491585
v 0.30059990 0.09348632 -0.49491104
v 0.29598191 0.10620998 0.48491585
v 0.29179493 0.11506122 0.49491104
v 0.29117921 0.11377041 -0.50134361
v 0.29585877 0.10620998 -0.49491104
v 0.29899898 0.09852661 -0.49491104
v 0.25497422 0.16620171 0.50520313
v 0.26494905 0.14616349 0.50530207
v 0.26488748 0.16521823 0.50193739
v 0.26150098 0.17308600 0.50144255
v 0.25522050 0.17634375 0.50292701
v 0.27498549 0.11616762 0.50540107
v 0.26494905 -0.14377607 0.50540107
v 0.27498549 -0.13375697 0.50490624
v 0.27523178 -0.14359167 0.50272906
v 0.26119310 -0.17069860 0.50124466
v 0.25029466 -0.18926160 0.50035399
v 0.26999807 -0.15877400 0.49995813
v 0.28132752 -0.14088713 0.49491104
v 0.28496033 -0.13375697 0.48491585
v 0.28865471 -0.12459838 -0.48491585
v 0.29542774 -0.10376109 -0.48491585
v 0.30515629 -0.07376523 -0.48491585
v 0.28853157 -0.12459838 -0.49491104
v 0.28089651 -0.14014952 -0.50094777
v 0.28237426 -0.13375697 -0.50213528
v 0.28483719 -0.13375697 -0.49491104
v 0.28496033 -0.11371874 -0.50401556
v 0.28496033 -0.10376109 -0.50520313
v 0.27498549 -0.12373785 -0.50540107
v 0.28496033 0.09619086 -0.50540107
v 0.27350771 0.14616349 -0.50253117
v 0.28138909 0.13417743 -0.50144255
v 0.26494905 0.15618260 -0.50401556
v 0.27498549 0.12618673 -0.50520313
v 0.27246100 0.15618260 0.49491104
v 0.26999807 0.16134582 0.49491104
v 0.26728883 0.16632465 0.49491104
v 0.26223984 0.17400801 0.49491104
v 0.29912215 0.09852661 -0.48491585
v 0.29598191 0.10620998 -0.48491585
v 0.27122954 0.15618260 -0.50124466
v 0.26999807 0.16128436 -0.50005710
v 0.29179493 0.11506122 -0.49491104
v 0.22498812 0.20621669 0.50451040
v 0.21495171 0.21617433 0.50490624
v 0.24499938 0.17622082 0.50540107
v 0.23046812 0.21181019 0.50055188
v 0.22104745 0.22250544 0.50104672
v 0.22461869 0.21555966 0.50213528
v 0.24555354 0.18673167 0.50322390
v 0.24499938 -0.17377193 0.50540107
v 0.23496297 -0.19374870 0.50520313
v 0.25497422 -0.16375282 0.50510418
v 0.24499938 -0.18372959 0.50441146
v 0.25540525 -0.17389487 0.50292701
v 0.24487624 -0.19307256 0.50223428
v 0.24148971 -0.20051005 0.50144255
v 0.24229017 -0.20137060 0.49491104
v 0.24727759 -0.19448629 0.49491104
v 0.25047940 -0.18950747 0.49491104
v 0.26999807 -0.15877400 -0.49995813
v 0.28132752 -0.14088713 -0.49491104
v 0.28496033 -0.13375697 -0.48491585
v 0.25029466 -0.18926160 -0.50035399
v 0.26119310 -0.17069860 -0.50124466
v 0.27523178 -0.14359167 -0.50272906
v 0.27498549 -0.13375697 -0.50490624
v 0.26494905 -0.14377607 -0.50540107
v 0.26494905 0.14616349 -0.50530207
v 0.27498549 0.11616762 -0.50540107
v 0.25497422 0.16620171 -0.50520313
v 0.25522050 0.17634375 -0.50292701
v 0.26150098 0.17308600 -0.50144255
v 0.26488748 0.16521823 -0.50193739
v 0.27246100 0.15618260 -0.49491104
v 0.26999807 0.16134582 -0.49491104
v 0.26728883 0.16632465 -0.49491104
v 0.25817603 0.17898683 0.49491104
v 0.26223984 0.17400801 -0.49491104
v 0.21476699 0.22600904 0.50243217
v 0.20497686 0.22619344 0.50490624
v 0.18496561 0.23621255 0.50540107
v 0.23077600 0.21211751 0.49491104
v 0.22160161 0.22318156 0.49491104
v 0.21698362 0.22816038 0.49491104
v 0.21131890 0.23221721 0.50104672
v 0.18496561 -0.23376368 0.50540107
v 0.22498812 -0.20376781 0.50510418
v 0.23496297 -0.20382927 0.50282806
v 0.17499076 -0.24372132 0.50540107
v 0.23163801 -0.21028329 0.50134361
v 0.23748747 -0.20641088 0.49491104
v 0.24229017 -0.20137060 -0.49491104
v 0.24727759 -0.19448629 -0.49491104
v 0.25047940 -0.18950747 -0.49491104
v 0.24148971 -0.20051005 -0.50144255
v 0.24487624 -0.19307256 -0.50223428
v 0.25540525 -0.17389487 -0.50292701
v 0.24499938 -0.18372959 -0.50441146
v 0.25497422 -0.16375282 -0.50510418
v 0.23496297 -0.19374870 -0.50520313
v 0.24499938 -0.17377193 -0.50540107
v 0.24499938 0.17622082 -0.50540107
v 0.21495171 0.21617433 -0.50490624
v 0.22498812 0.20621669 -0.50451040
v 0.24555354 0.18673167 -0.50322390
v 0.22461869 0.21555966 -0.50213528
v 0.22104745 0.22250544 -0.50104672
v 0.23046812 0.21181019 -0.50055188
v 0.23988882 0.20111494 0.48491585
v 0.25817603 0.17898683 -0.49491104
v 0.20411484 0.23584375 0.50183839
v 0.18533504 0.24666193 0.50312495
v 0.19494045 0.23621255 0.50421351
v 0.16495435 0.25618933 0.50470835
v 0.17499076 0.24617019 0.50520313
v 0.14494309 0.26620840 0.50540107
v 0.23077600 0.21211751 -0.49491104
v 0.22160161 0.22318156 -0.49491104
v 0.21199620 0.23277041 0.49491104
v 0.21698362 0.22816038 -0.49491104
v 0.17098852 0.26190571 0.50084877
v 0.18225639 0.25287007 0.50154155
v 0.20017417 0.24131431 0.50015604
v 0.16495435 -0.25374044 0.50530207
v 0.19494045 -0.23376368 0.50480729
v 0.21470541 -0.22356015 0.50253117
v 0.18496561 -0.24372132 0.50470835
v 0.14494309 -0.26375957 0.50540107
v 0.22141688 -0.22011802 0.50124466
v 0.20097461 -0.23972596 0.50094777
v 0.19075347 -0.24949922 0.50074983
v 0.19617191 -0.24519652 0.49491104
v 0.23748747 -0.20641088 -0.49491104
v 0.23163801 -0.21028329 -0.50134361
v 0.23496297 -0.20382927 -0.50282806
v 0.22498812 -0.20376781 -0.50510418
v 0.17499076 -0.24372132 -0.50540107
v 0.18496561 -0.23376368 -0.50540107
v 0.20497686 0.22619344 -0.50490624
v 0.18496561 0.23621255 -0.50540107
v 0.21476699 0.22600904 -0.50243217
v 0.21131890 0.23221721 -0.50104672
v 0.23988882 0.20111494 -0.48491585
v 0.17455976 0.25618933 0.50253117
v 0.15584153 0.26706897 0.50322390
v 0.15307073 0.27321564 0.50173944
v 0.13496825 0.27616607 0.50381768
v 0.12499340 0.27616607 0.50520313
v 0.09494573 0.28618519 0.50540107
v 0.20528473 0.23774923 0.49491104
v 0.21199620 0.23277041 -0.49491104
v 0.15959749 0.27087991 0.49491104
v 0.15461007 0.27419911 0.49491104
v 0.17653009 0.25864796 0.49491104
v 0.11495698 -0.28373630 0.50480729
v 0.13496825 -0.27371718 0.50460935
v 0.15497950 -0.26375957 0.50421351
v 0.20460743 -0.23345634 0.50233322
v 0.17579122 -0.25460096 0.50312495
v 0.18496561 -0.25165053 0.50193739
v 0.19444786 -0.24329105 0.50213528
v 0.10498215 -0.28373630 0.50540107
v 0.17302042 -0.26044030 0.50154155
v 0.17954718 -0.25847341 0.49491104
v 0.18496561 -0.25453950 0.49491104
v 0.19118449 -0.24986799 0.49491104
v 0.19617191 -0.24519652 -0.49491104
v 0.19075347 -0.24949922 -0.50074983
v 0.20097461 -0.23972596 -0.50094777
v 0.22141688 -0.22011802 -0.50124466
v 0.21470541 -0.22356015 -0.50253117
v 0.18496561 -0.24372132 -0.50470835
v 0.19494045 -0.23376368 -0.50480729
v 0.16495435 -0.25374044 -0.50530207
v 0.14494309 -0.26375957 -0.50540107
v 0.17499076 0.24617019 -0.50520313
v 0.16495435 0.25618933 -0.50470835
v 0.19494045 0.23621255 -0.50421351
v 0.14494309 0.26620840 -0.50540107
v 0.18533504 0.24666193 -0.50312495
v 0.20411484 0.23584375 -0.50183839
v 0.18225639 0.25287007 -0.50154155
v 0.17098852 0.26190571 -0.50084877
v 0.20017417 0.24131431 -0.50015604
v 0.14001724 0.28120635 0.49995813
v 0.13496825 0.28218983 0.50104672
v 0.14401948 0.27641194 0.50213528
v 0.12499340 0.28403382 0.50243217
v 0.10498215 0.28618519 0.50470835
v 0.07499604 0.29620431 0.50510418
v 0.06495962 0.29620431 0.50540107
v 0.16495435 0.26706897 0.48491585
v 0.20528473 0.23774923 -0.49491104
v 0.15959749 0.27094136 0.48491585
v 0.14500466 0.27917795 0.49491104
v 0.15461007 0.27419911 -0.49491104
v 0.07499604 -0.29375543 0.50520313
v 0.08497088 -0.29375543 0.50431246
v 0.10498215 -0.29228021 0.50272906
v 0.11495698 -0.29086645 0.50203633
v 0.12487026 -0.28410508 0.50272906
v 0.14451207 -0.27396305 0.50253117
v 0.06495962 -0.29375543 0.50540107
v 0.13496825 -0.28078587 0.50183839
v 0.12148374 -0.28957565 0.50094777
v 0.14087926 -0.27924921 0.50065088
v 0.16027479 -0.26892276 0.50015604
v 0.18496561 -0.25460096 0.48491585
v 0.16544694 -0.26627971 0.49491104
v 0.17954718 -0.25847341 -0.49491104
v 0.19118449 -0.24986799 -0.49491104
v 0.17302042 -0.26044030 -0.50154155
v 0.18496561 -0.25165053 -0.50193739
v 0.19444786 -0.24329105 -0.50213528
v 0.18496561 -0.25453950 -0.49491104
v 0.20460743 -0.23345634 -0.50233322
v 0.15497950 -0.26375957 -0.50421351
v 0.17579122 -0.25460096 -0.50312495
v 0.13496825 -0.27371718 -0.50460935
v 0.11495698 -0.28373630 -0.50480729
v 0.10498215 -0.28373630 -0.50540107
v 0.15584153 0.26706897 -0.50322390
v 0.17455976 0.25618933 -0.50253117
v 0.09494573 0.28618519 -0.50540107
v 0.12499340 0.27616607 -0.50520313
v 0.13496825 0.27616607 -0.50381768
v 0.15307073 0.27321564 -0.50173944
v 0.15959749 0.27087991 -0.49491104
v 0.17653009 0.25864796 -0.49491104
v 0.13496825 0.28323476 0.49491104
v 0.08478616 0.30308859 0.49491104
v 0.11157046 0.29184012 0.50084877
v 0.14001724 0.28120635 -0.49995813
v 0.10498215 0.29313092 0.50193739
v 0.09494573 0.29509787 0.50272906
v 0.07499604 0.30351888 0.50243217
v 0.06495962 0.30413352 0.50272906
v 0.00498742 0.30616193 0.50490624
v -0.06495962 0.29620431 0.50540107
v 0.16495435 0.26706897 -0.48491585
v 0.15959749 0.27094136 -0.48491585
v 0.14500466 0.27917795 -0.49491104
v 0.03497352 -0.30377449 0.50510418
v 0.04494837 -0.30377449 0.50441146
v 0.07499604 -0.30125435 0.50243217
v 0.08497088 -0.30002506 0.50154155
v 0.09168235 -0.29916449 0.50055188
v -0.06495962 -0.29375543 0.50540107
v 0.11495698 -0.29301782 0.49491104
v 0.12222261 -0.29000594 0.49491104
v 0.18496561 -0.25460096 -0.48491585
v 0.16544694 -0.26627971 -0.49491104
v 0.16027479 -0.26892276 -0.50015604
v 0.14087926 -0.27924921 -0.50065088
v 0.12148374 -0.28957565 -0.50094777
v 0.13496825 -0.28078587 -0.50183839
v 0.14451207 -0.27396305 -0.50253117
v 0.12487026 -0.28410508 -0.50272906
v 0.08497088 -0.29375543 -0.50431246
v 0.07499604 -0.29375543 -0.50520313
v 0.11495698 -0.29086645 -0.50203633
v 0.10498215 -0.29228021 -0.50272906
v 0.06495962 -0.29375543 -0.50540107
v 0.07499604 0.29620431 -0.50510418
v 0.06495962 0.29620431 -0.50540107
v 0.10498215 0.28618519 -0.50470835
v 0.12499340 0.28403382 -0.50243217
v 0.14401948 0.27641194 -0.50213528
v 0.13496825 0.28218983 -0.50104672
v 0.11741991 0.29018055 0.48491585
v 0.08977359 0.30112164 0.48491585
v 0.13496825 0.28323476 -0.49491104
v 0.07499604 0.30579315 0.49491104
v 0.08318526 0.30247395 0.50134361
v 0.08478616 0.30308859 -0.49491104
v 0.11157046 0.29184012 -0.50084877
v 0.03140228 0.31138663 0.50025499
v 0.02499868 0.31175540 0.50084877
v 0.01496226 0.31243156 0.50154155
v 0.00498742 0.31304620 0.50213528
v -0.00498742 0.30616193 0.50490624
v -0.07499604 0.29620431 0.50510418
v -0.09494573 0.28618519 0.50540107
v -0.03497352 -0.30377449 0.50510418
v 0.02499868 -0.31090470 0.50233322
v 0.03497352 -0.31084324 0.50233322
v 0.04494837 -0.31016709 0.50164050
v 0.05202927 -0.30930652 0.50074983
v 0.05307602 -0.30955239 0.49491104
v 0.08497088 -0.30137731 0.49491104
v 0.09254438 -0.29941036 0.49491104
v 0.10498215 -0.29602970 0.49491104
v -0.10498215 -0.28373630 0.50540107
v -0.07499604 -0.29375543 0.50520313
v 0.10498215 -0.29621406 0.48491585
v 0.11495698 -0.29307927 0.48491585
v 0.12222261 -0.29000594 -0.49491104
v 0.11495698 -0.29301782 -0.49491104
v 0.09168235 -0.29916449 -0.50055188
v 0.04494837 -0.30377449 -0.50441146
v 0.07499604 -0.30125435 -0.50243217
v 0.03497352 -0.30377449 -0.50510418
v 0.08497088 -0.30002506 -0.50154155
v -0.06495962 -0.29375543 -0.50540107
v 0.00498742 0.30616193 -0.50490624
v 0.06495962 0.30413352 -0.50272906
v 0.07499604 0.30351888 -0.50243217
v -0.06495962 0.29620431 -0.50540107
v 0.09494573 0.29509787 -0.50272906
v 0.10498215 0.29313092 -0.50193739
v 0.11741991 0.29018055 -0.48491585
v 0.08977359 0.30112164 -0.48491585
v 0.06495962 0.30732982 0.48491585
v 0.06495962 0.30720685 0.49491104
v 0.07499604 0.30579315 -0.49491104
v 0.08318526 0.30247395 -0.50134361
v 0.02499868 0.31237011 0.49491104
v 0.00498742 0.31489025 0.49491104
v -0.00498742 0.31304620 0.50213528
v -0.06495962 0.30413352 0.50272906
v -0.07499604 0.30351888 0.50243217
v -0.10498215 0.28618519 0.50470835
v -0.12499340 0.27616607 0.50520313
v -0.14494309 0.26620840 0.50540107
v -0.04494837 -0.30377449 0.50441146
v -0.03497352 -0.31084324 0.50233322
v -0.02499868 -0.31090470 0.50233322
v 0.02499868 -0.31305601 0.49491104
v 0.03497352 -0.31293310 0.49491104
v 0.04494837 -0.31158079 0.49491104
v 0.05307602 -0.30955239 -0.49491104
v 0.08497088 -0.30137731 -0.49491104
v -0.14494309 -0.26375957 0.50540107
v -0.11495698 -0.28373630 0.50480729
v -0.08497088 -0.29375543 0.50431246
v 0.10498215 -0.29621406 -0.48491585
v 0.11495698 -0.29307927 -0.48491585
v 0.10498215 -0.29602970 -0.49491104
v 0.05202927 -0.30930652 -0.50074983
v 0.09254438 -0.29941036 -0.49491104
v 0.04494837 -0.31016709 -0.50164050
v 0.03497352 -0.31084324 -0.50233322
v 0.02499868 -0.31090470 -0.50233322
v -0.03497352 -0.30377449 -0.50510418
v -0.07499604 -0.29375543 -0.50520313
v -0.10498215 -0.28373630 -0.50540107
v -0.00498742 0.30616193 -0.50490624
v 0.00498742 0.31304620 -0.50213528
v 0.01496226 0.31243156 -0.50154155
v 0.02499868 0.31175540 -0.50084877
v 0.03140228 0.31138663 -0.50025499
v -0.09494573 0.28618519 -0.50540107
v -0.07499604 0.29620431 -0.50510418
v 0.06495962 0.30732982 -0.48491585
v 0.06495962 0.30720685 -0.49491104
v 0.02499868 0.31237011 -0.49491104
v -0.00498742 0.31489025 0.49491104
v 0.00498742 0.31489025 -0.49491104
v -0.01496226 0.31243156 0.50154155
v -0.02499868 0.31175540 0.50084877
v -0.03140228 0.31138663 0.50025499
v -0.07499604 0.30579315 0.49491104
v -0.08318526 0.30247395 0.50134361
v -0.10498215 0.29313092 0.50193739
v -0.09494573 0.29509787 0.50272906
v -0.12499340 0.28403382 0.50243217
v -0.13496825 0.27616607 0.50381768
v -0.15307073 0.27321564 0.50173944
v -0.15584153 0.26706897 0.50322390
v -0.16495435 0.25618933 0.50470835
v -0.17499076 0.24617019 0.50520313
v -0.18496561 0.23621255 0.50540107
v -0.07499604 -0.30125435 0.50243217
v -0.04494837 -0.31016709 0.50164050
v -0.03497352 -0.31293310 0.49491104
v -0.02499868 -0.31305601 0.49491104
v 0.02499868 -0.31305601 -0.49491104
v 0.03497352 -0.31293310 -0.49491104
v 0.04494837 -0.31158079 -0.49491104
v -0.17499076 -0.24372132 0.50540107
v -0.16495435 -0.25374044 0.50530207
v -0.13496825 -0.27371718 0.50460935
v -0.12487026 -0.28410508 0.50272906
v -0.11495698 -0.29086645 0.50203633
v -0.10498215 -0.29228021 0.50272906
v -0.02499868 -0.31090470 -0.50233322
v -0.03497352 -0.31084324 -0.50233322
v -0.04494837 -0.30377449 -0.50441146
v -0.08497088 -0.29375543 -0.50431246
v -0.11495698 -0.28373630 -0.50480729
v -0.14494309 -0.26375957 -0.50540107
v -0.06495962 0.30413352 -0.50272906
v -0.00498742 0.31304620 -0.50213528
v -0.14494309 0.26620840 -0.50540107
v -0.12499340 0.27616607 -0.50520313
v -0.10498215 0.28618519 -0.50470835
v -0.07499604 0.30351888 -0.50243217
v -0.02499868 0.31237011 0.49491104
v -0.00498742 0.31489025 -0.49491104
v -0.06495962 0.30720685 0.49491104
v -0.08478616 0.30308859 0.49491104
v -0.06495962 0.30732982 0.48491585
v -0.07499604 0.30579315 -0.49491104
v -0.11157046 0.29184012 0.50084877
v -0.13496825 0.28218983 0.50104672
v -0.14401948 0.27641194 0.50213528
v -0.14001724 0.28120635 0.49995813
v -0.15461007 0.27419911 0.49491104
v -0.17098852 0.26190571 0.50084877
v -0.18225639 0.25287007 0.50154155
v -0.17455976 0.25618933 0.50253117
v -0.19494045 0.23621255 0.50421351
v -0.20497686 0.22619344 0.50490624
v -0.18533504 0.24666193 0.50312495
v -0.24499938 0.17622082 0.50540107
v -0.08497088 -0.30002506 0.50154155
v -0.05202927 -0.30930652 0.50074983
v -0.04494837 -0.31158079 0.49491104
v -0.03497352 -0.31293310 -0.49491104
v -0.02499868 -0.31305601 -0.49491104
v -0.18496561 -0.23376368 0.50540107
v -0.23496297 -0.19374870 0.50520313
v -0.22498812 -0.20376781 0.50510418
v -0.19494045 -0.23376368 0.50480729
v -0.18496561 -0.24372132 0.50470835
v -0.15497950 -0.26375957 0.50421351
v -0.14451207 -0.27396305 0.50253117
v -0.13496825 -0.28078587 0.50183839
v -0.12148374 -0.28957565 0.50094777
v -0.09168235 -0.29916449 0.50055188
v -0.04494837 -0.31016709 -0.50164050
v -0.07499604 -0.30125435 -0.50243217
v -0.10498215 -0.29228021 -0.50272906
v -0.13496825 -0.27371718 -0.50460935
v -0.16495435 -0.25374044 -0.50530207
v -0.11495698 -0.29086645 -0.50203633
v -0.12487026 -0.28410508 -0.50272906
v -0.17499076 -0.24372132 -0.50540107
v -0.01496226 0.31243156 -0.50154155
v -0.18496561 0.23621255 -0.50540107
v -0.17499076 0.24617019 -0.50520313
v -0.16495435 0.25618933 -0.50470835
v -0.15584153 0.26706897 -0.50322390
v -0.15307073 0.27321564 -0.50173944
v -0.13496825 0.27616607 -0.50381768
v -0.12499340 0.28403382 -0.50243217
v -0.09494573 0.29509787 -0.50272906
v -0.10498215 0.29313092 -0.50193739
v -0.08318526 0.30247395 -0.50134361
v -0.03140228 0.31138663 -0.50025499
v -0.02499868 0.31175540 -0.50084877
v -0.02499868 0.31237011 -0.49491104
v -0.08977359 0.30112164 0.48491585
v -0.13496825 0.28323476 0.49491104
v -0.08478616 0.30308859 -0.49491104
v -0.06495962 0.30732982 -0.48491585
v -0.06495962 0.30720685 -0.49491104
v -0.14500466 0.27917795 0.49491104
v -0.14001724 0.28120635 -0.49995813
v -0.15959749 0.27094136 0.48491585
v -0.15959749 0.27087991 0.49491104
v -0.15461007 0.27419911 -0.49491104
v -0.21131890 0.23221721 0.50104672
v -0.20017417 0.24131431 0.50015604
v -0.20411484 0.23584375 0.50183839
v -0.21476699 0.22600904 0.50243217
v -0.21495171 0.21617433 0.50490624
v -0.25497422 0.16620171 0.50520313
v -0.26494905 0.14616349 0.50530207
v -0.27498549 0.11616762 0.50540107
v -0.05307602 -0.30955239 0.49491104
v -0.04494837 -0.31158079 -0.49491104
v -0.24499938 -0.17377193 0.50540107
v -0.26494905 -0.14377607 0.50540107
v -0.25497422 -0.16375282 0.50510418
v -0.24499938 -0.18372959 0.50441146
v -0.23496297 -0.20382927 0.50282806
v -0.21470541 -0.22356015 0.50253117
v -0.20460743 -0.23345634 0.50233322
v -0.19444786 -0.24329105 0.50213528
v -0.18496561 -0.25165053 0.50193739
v -0.17579122 -0.25460096 0.50312495
v -0.17302042 -0.26044030 0.50154155
v -0.14087926 -0.27924921 0.50065088
v -0.12222261 -0.29000594 0.49491104
v -0.11495698 -0.29301782 0.49491104
v -0.10498215 -0.29602970 0.49491104
v -0.09254438 -0.29941036 0.49491104
v -0.08497088 -0.30137731 0.49491104
v -0.05202927 -0.30930652 -0.50074983
v -0.08497088 -0.30002506 -0.50154155
v -0.14451207 -0.27396305 -0.50253117
v -0.15497950 -0.26375957 -0.50421351
v -0.18496561 -0.24372132 -0.50470835
v -0.19494045 -0.23376368 -0.50480729
v -0.22498812 -0.20376781 -0.50510418
v -0.09168235 -0.29916449 -0.50055188
v -0.12148374 -0.28957565 -0.50094777
v -0.13496825 -0.28078587 -0.50183839
v -0.18496561 -0.23376368 -0.50540107
v -0.23496297 -0.19374870 -0.50520313
v -0.24499938 0.17622082 -0.50540107
v -0.20497686 0.22619344 -0.50490624
v -0.19494045 0.23621255 -0.50421351
v -0.18533504 0.24666193 -0.50312495
v -0.17455976 0.25618933 -0.50253117
v -0.18225639 0.25287007 -0.50154155
v -0.17098852 0.26190571 -0.50084877
v -0.13496825 0.28218983 -0.50104672
v -0.14401948 0.27641194 -0.50213528
v -0.11157046 0.29184012 -0.50084877
v -0.11741991 0.29018055 0.48491585
v -0.08977359 0.30112164 -0.48491585
v -0.13496825 0.28323476 -0.49491104
v -0.14500466 0.27917795 -0.49491104
v -0.16495435 0.26706897 0.48491585
v -0.17653009 0.25864796 0.49491104
v -0.15959749 0.27094136 -0.48491585
v -0.15959749 0.27087991 -0.49491104
v -0.22104745 0.22250544 0.50104672
v -0.21199620 0.23277041 0.49491104
v -0.21698362 0.22816038 0.49491104
v -0.20528473 0.23774923 0.49491104
v -0.22461869 0.21555966 0.50213528
v -0.22498812 0.20621669 0.50451040
v -0.25522050 0.17634375 0.50292701
v -0.26494905 0.15618260 0.50401556
v -0.27498549 0.12618673 0.50520313
v -0.28496033 0.09619086 0.50540107
v -0.05307602 -0.30955239 -0.49491104
v -0.27498549 -0.12373785 0.50540107
v -0.27498549 -0.13375697 0.50490624
v -0.27523178 -0.14359167 0.50272906
v -0.25540525 -0.17389487 0.50292701
v -0.24487624 -0.19307256 0.50223428
v -0.24148971 -0.20051005 0.50144255
v -0.23163801 -0.21028329 0.50134361
v -0.22141688 -0.22011802 0.50124466
v -0.20097461 -0.23972596 0.50094777
v -0.19075347 -0.24949922 0.50074983
v -0.17954718 -0.25847341 0.49491104
v -0.16027479 -0.26892276 0.50015604
v -0.11495698 -0.29307927 0.48491585
v -0.16544694 -0.26627971 0.49491104
v -0.12222261 -0.29000594 -0.49491104
v -0.10498215 -0.29621406 0.48491585
v -0.08497088 -0.30137731 -0.49491104
v -0.17302042 -0.26044030 -0.50154155
v -0.17579122 -0.25460096 -0.50312495
v -0.18496561 -0.25165053 -0.50193739
v -0.19444786 -0.24329105 -0.50213528
v -0.20460743 -0.23345634 -0.50233322
v -0.21470541 -0.22356015 -0.50253117
v -0.23496297 -0.20382927 -0.50282806
v -0.09254438 -0.29941036 -0.49491104
v -0.10498215 -0.29602970 -0.49491104
v -0.11495698 -0.29301782 -0.49491104
v -0.14087926 -0.27924921 -0.50065088
v -0.24499938 -0.17377193 -0.50540107
v -0.24499938 -0.18372959 -0.50441146
v -0.25497422 -0.16375282 -0.50510418
v -0.26494905 -0.14377607 -0.50540107
v -0.27498549 0.11616762 -0.50540107
v -0.26494905 0.14616349 -0.50530207
v -0.25497422 0.16620171 -0.50520313
v -0.21495171 0.21617433 -0.50490624
v -0.21476699 0.22600904 -0.50243217
v -0.20411484 0.23584375 -0.50183839
v -0.21131890 0.23221721 -0.50104672
v -0.20017417 0.24131431 -0.50015604
v -0.11741991 0.29018055 -0.48491585
v -0.16495435 0.26706897 -0.48491585
v -0.17653009 0.25864796 -0.49491104
v -0.22160161 0.22318156 0.49491104
v -0.23046812 0.21181019 0.50055188
v -0.26150098 0.17308600 0.50144255
v -0.21199620 0.23277041 -0.49491104
v -0.21698362 0.22816038 -0.49491104
v -0.20528473 0.23774923 -0.49491104
v -0.24555354 0.18673167 0.50322390
v -0.28496033 0.10620998 0.50510418
v -0.26488748 0.16521823 0.50193739
v -0.27122954 0.15618260 0.50124466
v -0.27350771 0.14616349 0.50253117
v -0.29284167 0.10620998 0.50233322
v -0.29499674 0.06619500 0.50540107
v -0.29499674 -0.06374612 0.50540107
v -0.28496033 -0.10376109 0.50520313
v -0.28496033 -0.11371874 0.50401556
v -0.28237426 -0.13375697 0.50213528
v -0.28089651 -0.14014952 0.50094777
v -0.26119310 -0.17069860 0.50124466
v -0.25029466 -0.18926160 0.50035399
v -0.24229017 -0.20137060 0.49491104
v -0.23748747 -0.20641088 0.49491104
v -0.19617191 -0.24519652 0.49491104
v -0.19118449 -0.24986799 0.49491104
v -0.18496561 -0.25453950 0.49491104
v -0.18496561 -0.25460096 0.48491585
v -0.17954718 -0.25847341 -0.49491104
v -0.11495698 -0.29307927 -0.48491585
v -0.16544694 -0.26627971 -0.49491104
v -0.16027479 -0.26892276 -0.50015604
v -0.10498215 -0.29621406 -0.48491585
v -0.19075347 -0.24949922 -0.50074983
v -0.20097461 -0.23972596 -0.50094777
v -0.22141688 -0.22011802 -0.50124466
v -0.23163801 -0.21028329 -0.50134361
v -0.24148971 -0.20051005 -0.50144255
v -0.24487624 -0.19307256 -0.50223428
v -0.27498549 -0.13375697 -0.50490624
v -0.25540525 -0.17389487 -0.50292701
v -0.27523178 -0.14359167 -0.50272906
v -0.27498549 -0.12373785 -0.50540107
v -0.28496033 0.09619086 -0.50540107
v -0.27498549 0.12618673 -0.50520313
v -0.26494905 0.15618260 -0.50401556
v -0.25522050 0.17634375 -0.50292701
v -0.22498812 0.20621669 -0.50451040
v -0.22461869 0.21555966 -0.50213528
v -0.22104745 0.22250544 -0.50104672
v -0.23077600 0.21211751 0.49491104
v -0.22160161 0.22318156 -0.49491104
v -0.25817603 0.17898683 0.49491104
v -0.26223984 0.17400801 0.49491104
v -0.26999807 0.16128436 0.50005710
v -0.29499674 0.08617175 0.50421351
v -0.29499674 0.07621411 0.50500524
v -0.29117921 0.11377041 0.50134361
v -0.28138909 0.13417743 0.50144255
v -0.30041519 0.09274872 0.50055188
v -0.30109248 0.08617175 0.50144255
v -0.30497158 0.01616091 0.50520313
v -0.30497158 -0.00375438 0.50480729
v -0.29499674 -0.07376523 0.50510418
v -0.29259539 -0.10376109 0.50243217
v -0.29105607 -0.11371874 0.50124466
v -0.29013246 -0.11931223 0.50025499
v -0.28483719 -0.13375697 0.49491104
v -0.28132752 -0.14088713 0.49491104
v -0.26999807 -0.15877400 0.49995813
v -0.24727759 -0.19448629 0.49491104
v -0.24229017 -0.20137060 -0.49491104
v -0.23748747 -0.20641088 -0.49491104
v -0.19617191 -0.24519652 -0.49491104
v -0.19118449 -0.24986799 -0.49491104
v -0.18496561 -0.25460096 -0.48491585
v -0.18496561 -0.25453950 -0.49491104
v -0.25029466 -0.18926160 -0.50035399
v -0.26119310 -0.17069860 -0.50124466
v -0.28496033 -0.11371874 -0.50401556
v -0.28496033 -0.10376109 -0.50520313
v -0.28237426 -0.13375697 -0.50213528
v -0.28089651 -0.14014952 -0.50094777
v -0.29499674 -0.06374612 -0.50540107
v -0.29499674 0.06619500 -0.50540107
v -0.28496033 0.10620998 -0.50510418
v -0.29284167 0.10620998 -0.50233322
v -0.27350771 0.14616349 -0.50253117
v -0.27122954 0.15618260 -0.50124466
v -0.26488748 0.16521823 -0.50193739
v -0.26150098 0.17308600 -0.50144255
v -0.24555354 0.18673167 -0.50322390
v -0.23046812 0.21181019 -0.50055188
v -0.23988882 0.20111494 0.48491585
v -0.23077600 0.21211751 -0.49491104
v -0.25817603 0.17898683 -0.49491104
v -0.26728883 0.16632465 0.49491104
v -0.26223984 0.17400801 -0.49491104
v -0.26999807 0.16134582 0.49491104
v -0.27246100 0.15618260 0.49491104
v -0.29179493 0.11506122 0.49491104
v -0.29585877 0.10620998 0.49491104
v -0.30207765 0.07621411 0.50223428
v -0.31180620 0.02618002 0.50213528
v -0.30497158 0.02618002 0.50480729
v -0.31026688 0.04265316 0.50035399
v -0.29899898 0.09852661 0.49491104
v -0.30059990 0.09348632 0.49491104
v -0.30220079 0.08617175 0.49491104
v -0.31088260 0.03619913 0.50114566
v -0.31223720 0.01616091 0.50243217
v -0.31199092 0.00620326 0.50233322
v -0.30497158 -0.01377349 0.50451040
v -0.30497158 -0.02373114 0.50421351
v -0.30497158 -0.04376936 0.50342184
v -0.30404800 -0.06374612 0.50272906
v -0.30244708 -0.07376523 0.50233322
v -0.30096933 -0.08372287 0.50114566
v -0.30004573 -0.08907049 0.50015604
v -0.29025561 -0.11961956 0.49491104
v -0.28853157 -0.12459838 0.49491104
v -0.28496033 -0.13375697 0.48491585
v -0.28132752 -0.14088713 -0.49491104
v -0.25047940 -0.18950747 0.49491104
v -0.26999807 -0.15877400 -0.49995813
v -0.24727759 -0.19448629 -0.49491104
v -0.29259539 -0.10376109 -0.50243217
v -0.29499674 -0.07376523 -0.50510418
v -0.29013246 -0.11931223 -0.50025499
v -0.29105607 -0.11371874 -0.50124466
v -0.28483719 -0.13375697 -0.49491104
v -0.30497158 -0.00375438 -0.50480729
v -0.30497158 0.01616091 -0.50520313
v -0.29499674 0.07621411 -0.50500524
v -0.29499674 0.08617175 -0.50421351
v -0.30109248 0.08617175 -0.50144255
v -0.30041519 0.09274872 -0.50055188
v -0.29117921 0.11377041 -0.50134361
v -0.28138909 0.13417743 -0.50144255
v -0.26999807 0.16128436 -0.50005710
v -0.23988882 0.20111494 -0.48491585
v -0.26728883 0.16632465 -0.49491104
v -0.26999807 0.16134582 -0.49491104
v -0.29598191 0.10620998 0.48491585
v -0.27246100 0.15618260 -0.49491104
v -0.31365338 0.02618002 0.49491104
v -0.31451541 0.01616091 0.49491104
v -0.30410957 0.07621411 0.49491104
v -0.31039003 0.04339076 0.49491104
v -0.29912215 0.09852661 0.48491585
v -0.30059990 0.09348632 -0.49491104
v -0.30220079 0.08617175 -0.49491104
v -0.31137520 -0.01377349 0.50173944
v -0.31106731 -0.02373114 0.50144255
v -0.30595675 -0.05464901 0.50233322
v -0.31014374 -0.05188299 0.50025499
v -0.30995899 -0.05845996 0.49491104
v -0.30509472 -0.07376523 0.49491104
v -0.30189294 -0.08372287 0.49491104
v -0.30010730 -0.08925489 0.49491104
v -0.29542774 -0.10376109 0.48491585
v -0.28865471 -0.12459838 0.48491585
v -0.28496033 -0.13375697 -0.48491585
v -0.25047940 -0.18950747 -0.49491104
v -0.30096933 -0.08372287 -0.50114566
v -0.30244708 -0.07376523 -0.50233322
v -0.30404800 -0.06374612 -0.50272906
v -0.30497158 -0.04376936 -0.50342184
v -0.30497158 -0.02373114 -0.50421351
v -0.30497158 -0.01377349 -0.50451040
v -0.28853157 -0.12459838 -0.49491104
v -0.29025561 -0.11961956 -0.49491104
v -0.30004573 -0.08907049 -0.50015604
v -0.31199092 0.00620326 -0.50233322
v -0.31223720 0.01616091 -0.50243217
v -0.30497158 0.02618002 -0.50480729
v -0.31180620 0.02618002 -0.50213528
v -0.30207765 0.07621411 -0.50223428
v -0.31088260 0.03619913 -0.50114566
v -0.31026688 0.04265316 -0.50035399
v -0.29899898 0.09852661 -0.49491104
v -0.29585877 0.10620998 -0.49491104
v -0.29179493 0.11506122 -0.49491104
v -0.29598191 0.10620998 -0.48491585
v -0.31365338 0.02618002 -0.49491104
v -0.31402284 0.00620326 0.49491104
v -0.31045160 -0.04376936 0.50065088
v -0.31451541 0.01616091 -0.49491104
v -0.30410957 0.07621411 -0.49491104
v -0.31039003 0.04339076 -0.49491104
v -0.29912215 0.09852661 -0.48491585
v -0.31279138 -0.01377349 0.49491104
v -0.31217563 -0.02373114 0.49491104
v -0.30835810 -0.06374612 0.48491585
v -0.30995899 -0.05845996 -0.49491104
v -0.30515629 -0.07376523 0.48491585
v -0.29542774 -0.10376109 -0.48491585
v -0.28865471 -0.12459838 -0.48491585
v -0.31014374 -0.05188299 -0.50025499
v -0.30595675 -0.05464901 -0.50233322
v -0.31106731 -0.02373114 -0.50144255
v -0.31137520 -0.01377349 -0.50173944
v -0.30010730 -0.08925489 -0.49491104
v -0.30189294 -0.08372287 -0.49491104
v -0.30509472 -0.07376523 -0.49491104
v -0.31402284 0.00620326 -0.49491104
v -0.31045160 -0.04376936 -0.50065088
v -0.31279138 -0.01377349 -0.49491104
v -0.31217563 -0.02373114 -0.49491104
v -0.30835810 -0.06374612 -0.48491585
v -0.30515629 -0.07376523 -0.48491585
f 1 2 3
f 1 3 4
f 1 4 5
f 1 5 6
f 1 6 7
f 1 7 8
f 1 8 9
f 1 9 10
f 1 10 33
f 1 33 11
f 1 11 15
f 1 15 2
f 2 12 13
f 2 13 14
f 2 14 3
f 2 15 42
f 2 42 12
f 3 14 16
f 3 16 17
f 3 17 18
f 3 18 19
f 3 19 4
f 4 19 20
f 4 20 5
f 5 21 6
f 5 20 22
f 5 22 23
f 5 23 24
f 5 24 21
f 6 21 7
f 7 21 25
f 7 25 8
f 8 25 9
f 9 25 26
f 9 26 27
f 9 27 28
f 9 28 29
f 9 29 30
f 9 30 31
f 9 31 32
f 9 32 10
f 10 32 63
f 10 63 33
f 11 33 34
f 11 34 35
f 11 35 36
f 11 36 37
f 11 37 38
f 11 38 39
f 11 39 40
f 11 40 15
f 12 41 13
f 12 42 78
f 12 78 41
f 13 43 16
f 13 16 14
f 13 41 44
f 13 44 43
f 15 40 45
f 15 45 46
f 15 46 42
f 16 43 47
f 16 47 48
f 16 48 17
f 17 48 18
f 18 48 49
f 18 49 50
f 18 50 20
f 18 20 19
f 20 50 51
f 20 51 22
f 21 26 25
f 21 24 52
f 21 52 26
f 22 51 52
f 22 52 23
f 23 52 24
f 26 52 27
f 27 53 28
f 27 52 53
f 28 54 55
f 28 55 29
f 28 53 54
f 29 56 57
f 29 57 58
f 29 58 59
f 29 59 30
f 29 55 56
f 30 59 60
f 30 60 100
f 30 100 61
f 30 61 62
f 30 62 31
f 31 62 63
f 31 63 32
f 33 63 34
f 34 64 65
f 34 65 66
f 34 66 67
f 34 67 68
f 34 68 35
f 34 63 62
f 34 62 61
f 34 61 64
f 35 68 36
f 36 68 69
f 36 69 37
f 37 69 38
f 38 69 70
f 38 70 71
f 38 71 72
f 38 72 73
f 38 73 39
f 39 73 74
f 39 74 40
f 40 75 76
f 40 76 45
f 40 74 77
f 40 77 75
f 41 78 83
f 41 83 44
f 42 46 78
f 43 79 47
f 43 44 80
f 43 80 81
f 43 81 82
f 43 82 79
f 44 83 117
f 44 117 80
f 45 76 46
f 46 76 84
f 46 84 83
f 46 83 78
f 47 79 85
f 47 85 86
f 47 86 87
f 47 87 49
f 47 49 48
f 49 87 88
f 49 88 89
f 49 89 50
f 50 89 128
f 50 128 163
f 50 163 199
f 50 199 234
f 50 234 267
f 50 267 309
f 50 309 357
f 50 357 401
f 50 401 442
f 50 442 490
f 50 490 533
f 50 533 588
f 50 588 647
f 50 647 704
f 50 704 705
f 50 705 649
f 50 649 592
f 50 592 591
f 50 591 539
f 50 539 498
f 50 498 451
f 50 451 411
f 50 411 366
f 50 366 321
f 50 321 280
f 50 280 246
f 50 246 207
f 50 207 204
f 50 204 168
f 50 168 129
f 50 129 90
f 50 90 51
f 51 90 91
f 51 91 52
f 52 91 53
f 53 92 54
f 53 91 93
f 53 93 92
f 54 92 55
f 55 92 94
f 55 94 95
f 55 95 96
f 55 96 56
f 56 96 97
f 56 97 98
f 56 98 57
f 57 98 99
f 57 99 58
f 58 99 59
f 59 99 60
f 60 99 139
f 60 139 100
f 61 100 101
f 61 101 64
f 64 101 102
f 64 102 103
f 64 103 104
f 64 104 105
f 64 105 65
f 65 105 106
f 65 106 107
f 65 107 66
f 66 107 108
f 66 108 67
f 67 69 68
f 67 108 69
f 69 108 70
f 70 108 71
f 71 108 109
f 71 109 72
f 72 109 73
f 73 109 110
f 73 110 77
f 73 77 74
f 75 77 111
f 75 111 76
f 76 112 84
f 76 111 112
f 77 110 113
f 77 113 111
f 79 82 114
f 79 114 115
f 79 115 85
f 80 116 81
f 80 117 156
f 80 156 116
f 81 116 118
f 81 118 82
f 82 118 119
f 82 119 114
f 83 84 117
f 84 112 120
f 84 120 121
f 84 121 122
f 84 122 117
f 85 115 86
f 86 115 87
f 87 123 124
f 87 124 88
f 87 115 125
f 87 125 126
f 87 126 127
f 87 127 123
f 88 124 89
f 89 124 128
f 90 129 130
f 90 130 91
f 91 130 93
f 92 131 94
f 92 93 130
f 92 130 131
f 94 132 133
f 94 133 134
f 94 134 135
f 94 135 95
f 94 131 132
f 95 135 136
f 95 136 97
f 95 97 96
f 97 136 180
f 97 180 137
f 97 137 138
f 97 138 98
f 98 138 139
f 98 139 99
f 100 139 101
f 101 139 102
f 102 139 103
f 103 139 138
f 103 138 104
f 104 140 105
f 104 138 137
f 104 137 140
f 105 141 142
f 105 142 106
f 105 140 143
f 105 143 141
f 106 142 107
f 107 142 144
f 107 144 145
f 107 145 108
f 108 145 109
f 109 145 146
f 109 146 185
f 109 185 219
f 109 219 256
f 109 256 255
f 109 255 293
f 109 293 339
f 109 339 381
f 109 381 422
f 109 422 464
f 109 464 509
f 109 509 556
f 109 556 618
f 109 618 677
f 109 677 680
f 109 680 732
f 109 732 773
f 109 773 774
f 109 774 733
f 109 733 681
f 109 681 620
f 109 620 558
f 109 558 512
f 109 512 470
f 109 470 426
f 109 426 383
f 109 383 342
f 109 342 297
f 109 297 258
f 109 258 220
f 109 220 187
f 109 187 147
f 109 147 110
f 110 147 113
f 111 113 112
f 112 148 149
f 112 149 120
f 112 113 150
f 112 150 148
f 113 147 151
f 113 151 150
f 114 119 152
f 114 152 153
f 114 153 154
f 114 154 155
f 114 155 126
f 114 126 115
f 115 126 125
f 116 156 157
f 116 157 118
f 117 122 156
f 118 152 119
f 118 157 192
f 118 192 152
f 120 149 158
f 120 158 159
f 120 159 121
f 121 159 160
f 121 160 157
f 121 157 156
f 121 156 122
f 123 127 161
f 123 161 162
f 123 162 163
f 123 163 124
f 124 163 128
f 126 155 164
f 126 164 165
f 126 165 166
f 126 166 127
f 127 166 167
f 127 167 161
f 129 168 169
f 129 169 170
f 129 170 130
f 130 170 171
f 130 171 131
f 131 172 173
f 131 173 132
f 131 171 172
f 132 174 133
f 132 173 174
f 133 174 175
f 133 175 176
f 133 176 134
f 134 176 177
f 134 177 212
f 134 212 178
f 134 178 179
f 134 179 135
f 135 179 180
f 135 180 136
f 137 180 143
f 137 143 140
f 141 143 179
f 141 179 178
f 141 178 181
f 141 181 182
f 141 182 183
f 141 183 142
f 142 183 184
f 142 184 144
f 143 180 179
f 144 184 145
f 145 184 146
f 146 184 185
f 147 186 151
f 147 187 186
f 148 158 149
f 148 150 158
f 150 151 186
f 150 186 188
f 150 188 189
f 150 189 190
f 150 190 191
f 150 191 158
f 152 192 193
f 152 193 153
f 153 193 194
f 153 194 154
f 154 194 196
f 154 196 155
f 155 195 164
f 155 196 228
f 155 228 195
f 157 160 192
f 158 191 190
f 158 190 159
f 159 196 194
f 159 194 193
f 159 193 192
f 159 192 160
f 159 190 196
f 161 167 166
f 161 166 197
f 161 197 162
f 162 197 198
f 162 198 163
f 163 198 199
f 164 195 200
f 164 200 201
f 164 201 165
f 165 201 202
f 165 202 203
f 165 203 197
f 165 197 166
f 168 204 169
f 169 205 206
f 169 206 171
f 169 171 170
f 169 204 207
f 169 207 205
f 171 206 173
f 171 173 172
f 173 206 174
f 174 208 209
f 174 209 175
f 174 206 208
f 175 209 251
f 175 251 210
f 175 210 211
f 175 211 176
f 176 211 212
f 176 212 177
f 178 212 211
f 178 211 181
f 181 213 182
f 181 211 210
f 181 210 213
f 182 213 214
f 182 214 183
f 183 214 215
f 183 215 216
f 183 216 184
f 184 216 217
f 184 217 185
f 185 217 218
f 185 218 219
f 186 187 220
f 186 220 188
f 188 221 222
f 188 222 189
f 188 220 221
f 189 223 224
f 189 224 190
f 189 222 223
f 190 224 225
f 190 225 226
f 190 226 196
f 195 227 200
f 195 228 261
f 195 261 227
f 196 226 228
f 197 203 229
f 197 229 230
f 197 230 231
f 197 231 198
f 198 231 232
f 198 232 233
f 198 233 199
f 199 233 234
f 200 227 261
f 200 261 235
f 200 235 236
f 200 236 201
f 201 236 238
f 201 238 202
f 202 237 203
f 202 238 269
f 202 269 237
f 203 239 240
f 203 240 229
f 203 237 241
f 203 241 239
f 205 207 242
f 205 242 243
f 205 243 206
f 206 244 208
f 206 243 245
f 206 245 244
f 207 246 242
f 208 244 247
f 208 247 209
f 209 247 248
f 209 248 249
f 209 249 250
f 209 250 285
f 209 285 251
f 210 251 213
f 213 251 252
f 213 252 253
f 213 253 214
f 214 253 216
f 214 216 215
f 216 218 217
f 216 253 218
f 218 253 254
f 218 254 255
f 218 255 256
f 218 256 219
f 220 257 221
f 220 258 257
f 221 257 259
f 221 259 222
f 222 259 224
f 222 224 223
f 224 259 225
f 225 260 238
f 225 238 236
f 225 236 226
f 225 259 260
f 226 236 235
f 226 235 228
f 228 235 261
f 229 240 262
f 229 262 230
f 230 262 232
f 230 232 231
f 232 262 263
f 232 263 234
f 232 234 233
f 234 263 264
f 234 264 265
f 234 265 266
f 234 266 267
f 237 268 241
f 237 269 311
f 237 311 268
f 238 260 269
f 239 264 240
f 239 241 270
f 239 270 271
f 239 271 264
f 240 264 262
f 241 268 272
f 241 272 270
f 242 273 274
f 242 274 275
f 242 275 245
f 242 245 243
f 242 246 273
f 244 276 247
f 244 245 276
f 245 275 277
f 245 277 278
f 245 278 279
f 245 279 276
f 246 280 273
f 247 276 248
f 248 276 279
f 248 279 249
f 249 279 278
f 249 278 281
f 249 281 282
f 249 282 283
f 249 283 284
f 249 284 250
f 250 284 329
f 250 329 285
f 251 285 286
f 251 286 287
f 251 287 288
f 251 288 252
f 252 288 289
f 252 289 253
f 253 289 290
f 253 290 291
f 253 291 254
f 254 291 292
f 254 292 255
f 255 292 293
f 257 258 294
f 257 294 295
f 257 295 296
f 257 296 259
f 258 297 294
f 259 298 299
f 259 299 260
f 259 296 298
f 260 299 300
f 260 300 301
f 260 301 302
f 260 302 269
f 262 264 263
f 264 271 303
f 264 303 304
f 264 304 305
f 264 305 265
f 265 305 306
f 265 306 307
f 265 307 266
f 266 307 308
f 266 308 267
f 267 308 309
f 268 310 272
f 268 311 358
f 268 358 310
f 269 302 311
f 270 272 312
f 270 312 271
f 271 313 303
f 271 312 359
f 271 359 314
f 271 314 360
f 271 360 313
f 272 310 312
f 273 280 315
f 273 315 316
f 273 316 317
f 273 317 318
f 273 318 319
f 273 319 274
f 274 319 320
f 274 320 275
f 275 320 281
f 275 281 277
f 277 281 278
f 280 321 315
f 281 320 322
f 281 322 323
f 281 323 324
f 281 324 325
f 281 325 282
f 282 326 283
f 282 325 327
f 282 327 370
f 282 370 328
f 282 328 369
f 282 369 326
f 283 326 284
f 284 326 369
f 284 369 329
f 285 329 286
f 286 330 331
f 286 331 332
f 286 332 287
f 286 329 333
f 286 333 328
f 286 328 330
f 287 332 334
f 287 334 288
f 288 334 289
f 289 334 290
f 290 335 292
f 290 292 291
f 290 334 332
f 290 332 331
f 290 331 336
f 290 336 335
f 292 335 337
f 292 337 338
f 292 338 293
f 293 338 339
f 294 297 295
f 295 297 340
f 295 340 341
f 295 341 298
f 295 298 296
f 297 342 343
f 297 343 344
f 297 344 345
f 297 345 340
f 298 341 299
f 299 341 300
f 300 345 301
f 300 341 345
f 301 345 314
f 301 314 346
f 301 346 302
f 302 346 347
f 302 347 311
f 303 348 349
f 303 349 350
f 303 350 304
f 303 313 360
f 303 360 351
f 303 351 390
f 303 390 348
f 304 350 352
f 304 352 306
f 304 306 305
f 306 353 307
f 306 352 353
f 307 353 354
f 307 354 308
f 308 354 355
f 308 355 356
f 308 356 309
f 309 356 399
f 309 399 357
f 310 358 359
f 310 359 312
f 311 347 358
f 314 359 346
f 314 345 351
f 314 351 360
f 315 361 362
f 315 362 316
f 315 321 361
f 316 362 363
f 316 363 317
f 317 363 318
f 318 364 365
f 318 365 323
f 318 323 322
f 318 322 319
f 318 363 364
f 319 322 320
f 321 366 402
f 321 402 361
f 323 365 367
f 323 367 368
f 323 368 324
f 324 368 325
f 325 368 327
f 327 368 415
f 327 415 370
f 328 370 371
f 328 371 330
f 328 333 369
f 329 369 333
f 330 371 372
f 330 372 373
f 330 373 374
f 330 374 375
f 330 375 335
f 330 335 336
f 330 336 331
f 335 375 337
f 337 375 376
f 337 376 338
f 338 377 378
f 338 378 339
f 338 376 379
f 338 379 380
f 338 380 377
f 339 378 381
f 340 345 341
f 342 382 343
f 342 383 382
f 343 382 384
f 343 384 344
f 344 385 386
f 344 386 345
f 344 384 385
f 345 387 351
f 345 386 387
f 346 359 347
f 347 359 358
f 348 388 389
f 348 389 349
f 348 390 429
f 348 429 388
f 349 391 392
f 349 392 350
f 349 389 430
f 349 430 393
f 349 393 433
f 349 433 391
f 350 392 352
f 351 387 394
f 351 394 393
f 351 393 390
f 352 392 354
f 352 354 353
f 354 392 391
f 354 391 395
f 354 395 396
f 354 396 397
f 354 397 398
f 354 398 355
f 355 398 356
f 356 398 437
f 356 437 399
f 357 399 400
f 357 400 401
f 361 402 445
f 361 445 403
f 361 403 404
f 361 404 362
f 362 404 405
f 362 405 363
f 363 405 364
f 364 405 406
f 364 406 365
f 365 406 407
f 365 407 408
f 365 408 409
f 365 409 410
f 365 410 367
f 366 411 412
f 366 412 402
f 367 410 413
f 367 413 414
f 367 414 368
f 368 414 455
f 368 455 415
f 370 415 371
f 371 415 372
f 372 415 373
f 373 415 416
f 373 416 417
f 373 417 379
f 373 379 374
f 374 379 376
f 374 376 375
f 377 418 378
f 377 380 419
f 377 419 418
f 378 418 420
f 378 420 381
f 379 417 421
f 379 421 419
f 379 419 380
f 381 420 462
f 381 462 422
f 382 383 423
f 382 423 424
f 382 424 425
f 382 425 384
f 383 426 465
f 383 465 423
f 384 425 427
f 384 427 385
f 385 427 428
f 385 428 387
f 385 387 386
f 387 428 394
f 388 429 430
f 388 430 389
f 390 393 430
f 390 430 429
f 391 431 432
f 391 432 395
f 391 433 472
f 391 472 431
f 393 394 434
f 393 434 433
f 394 428 434
f 395 432 435
f 395 435 436
f 395 436 397
f 395 397 396
f 397 436 398
f 398 436 475
f 398 475 437
f 399 437 438
f 399 438 400
f 400 438 439
f 400 439 440
f 400 440 441
f 400 441 401
f 401 441 442
f 402 412 443
f 402 443 444
f 402 444 445
f 403 445 494
f 403 494 446
f 403 446 404
f 404 446 447
f 404 447 405
f 405 447 448
f 405 448 406
f 406 448 407
f 407 448 497
f 407 497 449
f 407 449 450
f 407 450 408
f 408 413 409
f 408 450 454
f 408 454 413
f 409 413 410
f 411 451 452
f 411 452 412
f 412 452 453
f 412 453 443
f 413 454 455
f 413 455 414
f 415 455 416
f 416 455 454
f 416 454 456
f 416 456 417
f 417 457 421
f 417 456 458
f 417 458 450
f 417 450 449
f 417 449 457
f 418 419 459
f 418 459 460
f 418 460 420
f 419 421 459
f 420 460 461
f 420 461 504
f 420 504 462
f 421 457 459
f 422 462 463
f 422 463 464
f 423 465 511
f 423 511 466
f 423 466 424
f 424 466 425
f 425 466 467
f 425 467 468
f 425 468 469
f 425 469 433
f 425 433 434
f 425 434 428
f 425 428 427
f 426 470 471
f 426 471 465
f 431 435 432
f 431 472 474
f 431 474 435
f 433 469 473
f 433 473 472
f 435 474 476
f 435 476 436
f 436 476 517
f 436 517 475
f 437 475 477
f 437 477 439
f 437 439 438
f 439 477 478
f 439 478 479
f 439 479 480
f 439 480 481
f 439 481 482
f 439 482 483
f 439 483 440
f 440 483 484
f 440 484 485
f 440 485 441
f 441 485 442
f 442 485 486
f 442 486 487
f 442 487 488
f 442 488 489
f 442 489 490
f 443 453 491
f 443 491 492
f 443 492 444
f 444 492 493
f 444 493 494
f 444 494 445
f 446 494 538
f 446 538 495
f 446 495 496
f 446 496 447
f 447 496 497
f 447 497 448
f 449 497 457
f 450 458 454
f 451 498 499
f 451 499 452
f 452 499 500
f 452 500 501
f 452 501 502
f 452 502 503
f 452 503 453
f 453 503 491
f 454 458 456
f 457 497 459
f 459 497 496
f 459 496 460
f 460 496 495
f 460 495 461
f 461 495 538
f 461 538 504
f 462 504 505
f 462 505 506
f 462 506 463
f 463 506 507
f 463 507 508
f 463 508 464
f 464 508 509
f 465 471 510
f 465 510 511
f 466 511 517
f 466 517 476
f 466 476 467
f 467 469 468
f 467 476 469
f 469 476 474
f 469 474 473
f 470 512 513
f 470 513 471
f 471 513 514
f 471 514 515
f 471 515 510
f 472 473 474
f 475 516 479
f 475 479 477
f 475 517 570
f 475 570 516
f 477 479 478
f 479 516 518
f 479 518 480
f 480 519 481
f 480 518 520
f 480 520 574
f 480 574 521
f 480 521 573
f 480 573 519
f 481 522 482
f 481 519 522
f 482 522 523
f 482 523 484
f 482 484 483
f 484 523 524
f 484 524 485
f 485 524 486
f 486 524 523
f 486 523 525
f 486 525 526
f 486 526 527
f 486 527 528
f 486 528 529
f 486 529 487
f 487 529 488
f 488 530 531
f 488 531 489
f 488 529 532
f 488 532 530
f 489 531 490
f 490 531 533
f 491 503 502
f 491 502 534
f 491 534 492
f 492 534 535
f 492 535 536
f 492 536 493
f 493 536 590
f 493 590 537
f 493 537 538
f 493 538 494
f 498 539 540
f 498 540 541
f 498 541 499
f 499 541 542
f 499 542 543
f 499 543 544
f 499 544 500
f 500 544 545
f 500 545 501
f 501 545 546
f 501 546 502
f 502 546 547
f 502 547 548
f 502 548 534
f 504 538 505
f 505 538 537
f 505 537 549
f 505 549 506
f 506 549 550
f 506 550 507
f 507 550 551
f 507 551 508
f 508 552 553
f 508 553 509
f 508 551 554
f 508 554 555
f 508 555 552
f 509 553 556
f 510 515 511
f 511 515 557
f 511 557 517
f 512 558 559
f 512 559 560
f 512 560 561
f 512 561 562
f 512 562 563
f 512 563 513
f 513 563 514
f 514 563 564
f 514 564 565
f 514 565 515
f 515 565 566
f 515 566 567
f 515 567 521
f 515 521 568
f 515 568 569
f 515 569 557
f 516 520 518
f 516 570 574
f 516 574 520
f 517 557 568
f 517 568 570
f 519 571 572
f 519 572 525
f 519 525 522
f 519 573 631
f 519 631 571
f 521 574 575
f 521 575 568
f 521 567 573
f 522 525 523
f 525 576 526
f 525 572 632
f 525 632 577
f 525 577 633
f 525 633 576
f 526 578 579
f 526 579 527
f 526 576 633
f 526 633 580
f 526 580 636
f 526 636 578
f 527 581 528
f 527 579 582
f 527 582 581
f 528 581 583
f 528 583 529
f 529 583 532
f 530 532 584
f 530 584 531
f 531 585 533
f 531 584 585
f 532 583 584
f 533 585 586
f 533 586 587
f 533 587 588
f 534 548 535
f 535 548 589
f 535 589 536
f 536 589 648
f 536 648 590
f 537 590 549
f 539 591 540
f 540 591 592
f 540 592 593
f 540 593 594
f 540 594 595
f 540 595 541
f 541 595 542
f 542 595 543
f 543 595 596
f 543 596 597
f 543 597 598
f 543 598 599
f 543 599 600
f 543 600 544
f 544 600 601
f 544 601 545
f 545 601 546
f 546 601 547
f 547 602 603
f 547 603 604
f 547 604 548
f 547 601 602
f 548 604 605
f 548 605 606
f 548 606 607
f 548 607 589
f 549 608 609
f 549 609 550
f 549 590 608
f 550 609 554
f 550 554 551
f 552 555 610
f 552 610 611
f 552 611 553
f 553 611 612
f 553 612 613
f 553 613 614
f 553 614 556
f 554 609 615
f 554 615 616
f 554 616 617
f 554 617 555
f 555 617 610
f 556 614 619
f 556 619 618
f 557 569 568
f 558 620 621
f 558 621 559
f 559 621 560
f 560 621 622
f 560 622 623
f 560 623 624
f 560 624 561
f 561 624 562
f 562 625 626
f 562 626 580
f 562 580 577
f 562 577 627
f 562 627 628
f 562 628 563
f 562 624 625
f 563 628 564
f 564 628 627
f 564 627 566
f 564 566 565
f 566 627 629
f 566 629 567
f 567 629 573
f 568 575 570
f 570 575 574
f 571 630 572
f 571 631 689
f 571 689 630
f 572 630 689
f 572 689 632
f 573 629 577
f 573 577 632
f 573 632 631
f 577 629 627
f 577 580 633
f 578 634 635
f 578 635 579
f 578 636 690
f 578 690 634
f 579 635 582
f 580 626 637
f 580 637 636
f 581 638 584
f 581 584 583
f 581 582 639
f 581 639 640
f 581 640 638
f 582 635 641
f 582 641 639
f 584 638 642
f 584 642 643
f 584 643 585
f 585 643 586
f 586 643 644
f 586 644 645
f 586 645 587
f 587 645 646
f 587 646 647
f 587 647 588
f 589 607 665
f 589 665 648
f 590 648 608
f 592 649 650
f 592 650 593
f 593 650 594
f 594 650 651
f 594 651 652
f 594 652 653
f 594 653 595
f 595 653 654
f 595 654 655
f 595 655 596
f 596 655 656
f 596 656 597
f 597 656 657
f 597 657 598
f 598 657 658
f 598 658 599
f 599 658 601
f 599 601 600
f 601 658 659
f 601 659 660
f 601 660 602
f 602 660 603
f 603 661 604
f 603 660 662
f 603 662 720
f 603 720 663
f 603 663 719
f 603 719 661
f 604 661 664
f 604 664 605
f 605 664 606
f 606 664 607
f 607 664 722
f 607 722 665
f 608 615 609
f 608 648 615
f 610 617 666
f 610 666 611
f 611 666 667
f 611 667 612
f 612 667 668
f 612 668 669
f 612 669 670
f 612 670 671
f 612 671 672
f 612 672 613
f 613 672 614
f 614 672 619
f 615 648 665
f 615 665 673
f 615 673 674
f 615 674 675
f 615 675 616
f 616 675 663
f 616 663 676
f 616 676 666
f 616 666 617
f 618 619 677
f 619 672 678
f 619 678 679
f 619 679 680
f 619 680 677
f 620 681 682
f 620 682 683
f 620 683 684
f 620 684 621
f 621 684 685
f 621 685 622
f 622 685 623
f 623 685 686
f 623 686 624
f 624 686 625
f 625 686 687
f 625 687 626
f 626 687 688
f 626 688 637
f 631 632 689
f 634 641 635
f 634 690 697
f 634 697 641
f 636 637 691
f 636 691 690
f 637 688 691
f 638 640 692
f 638 692 693
f 638 693 694
f 638 694 642
f 639 641 697
f 639 697 695
f 639 695 696
f 639 696 640
f 640 696 741
f 640 741 692
f 642 694 644
f 642 644 698
f 642 698 643
f 643 698 644
f 644 694 645
f 645 699 646
f 645 694 700
f 645 700 701
f 645 701 702
f 645 702 703
f 645 703 699
f 646 699 647
f 647 699 704
f 649 705 706
f 649 706 650
f 650 706 707
f 650 707 708
f 650 708 651
f 651 708 709
f 651 709 710
f 651 710 653
f 651 653 652
f 653 710 654
f 654 710 711
f 654 711 712
f 654 712 713
f 654 713 655
f 655 713 656
f 656 713 657
f 657 713 658
f 658 713 714
f 658 714 715
f 658 715 716
f 658 716 659
f 659 662 660
f 659 716 717
f 659 717 765
f 659 765 718
f 659 718 720
f 659 720 662
f 661 719 722
f 661 722 664
f 663 720 721
f 663 721 676
f 663 675 719
f 665 722 673
f 666 668 667
f 666 676 721
f 666 721 718
f 666 718 723
f 666 723 668
f 668 723 669
f 669 723 724
f 669 724 670
f 670 724 725
f 670 725 671
f 671 725 726
f 671 726 672
f 672 726 727
f 672 727 728
f 672 728 678
f 673 722 674
f 674 722 675
f 675 722 719
f 678 729 679
f 678 728 730
f 678 730 731
f 678 731 729
f 679 729 680
f 680 729 732
f 681 733 682
f 682 734 735
f 682 735 683
f 682 733 734
f 683 735 736
f 683 736 737
f 683 737 684
f 684 737 685
f 685 738 739
f 685 739 687
f 685 687 686
f 685 737 738
f 687 739 696
f 687 696 695
f 687 695 688
f 688 695 697
f 688 697 691
f 690 691 697
f 692 740 693
f 692 741 784
f 692 784 740
f 693 740 742
f 693 742 743
f 693 743 694
f 694 743 744
f 694 744 701
f 694 701 700
f 696 739 741
f 699 703 745
f 699 745 746
f 699 746 704
f 701 747 748
f 701 748 702
f 701 744 747
f 702 748 703
f 703 748 747
f 703 747 749
f 703 749 750
f 703 750 745
f 704 746 794
f 704 794 751
f 704 751 705
f 705 751 752
f 705 752 802
f 705 802 753
f 705 753 706
f 706 753 754
f 706 754 707
f 707 754 708
f 708 754 755
f 708 755 756
f 708 756 709
f 709 711 710
f 709 756 757
f 709 757 758
f 709 758 759
f 709 759 711
f 711 759 760
f 711 760 712
f 712 760 815
f 712 815 761
f 712 761 762
f 712 762 713
f 713 762 763
f 713 763 714
f 714 763 764
f 714 764 715
f 715 717 716
f 715 764 765
f 715 765 717
f 718 765 766
f 718 766 723
f 718 721 720
f 723 766 764
f 723 764 763
f 723 763 762
f 723 762 724
f 724 762 725
f 725 762 726
f 726 762 727
f 727 762 761
f 727 761 767
f 727 767 768
f 727 768 728
f 728 731 730
f 728 768 731
f 729 769 770
f 729 770 732
f 729 731 771
f 729 771 769
f 731 768 772
f 731 772 771
f 732 770 773
f 733 774 775
f 733 775 734
f 734 775 735
f 735 775 776
f 735 776 777
f 735 777 778
f 735 778 779
f 735 779 780
f 735 780 736
f 736 780 738
f 736 738 781
f 736 781 737
f 737 781 738
f 738 780 739
f 739 780 782
f 739 782 741
f 740 783 742
f 740 784 830
f 740 830 783
f 741 782 784
f 742 783 830
f 742 830 785
f 742 785 787
f 742 787 743
f 743 786 744
f 743 787 831
f 743 831 786
f 744 786 788
f 744 788 789
f 744 789 790
f 744 790 791
f 744 791 747
f 745 750 792
f 745 792 746
f 746 792 793
f 746 793 794
f 747 791 749
f 749 795 750
f 749 791 796
f 749 796 797
f 749 797 798
f 749 798 795
f 750 795 799
f 750 799 793
f 750 793 792
f 751 794 800
f 751 800 801
f 751 801 752
f 752 801 802
f 753 802 803
f 753 803 804
f 753 804 805
f 753 805 806
f 753 806 754
f 754 806 807
f 754 807 755
f 755 807 756
f 756 808 809
f 756 809 810
f 756 810 757
f 756 807 808
f 757 810 851
f 757 851 811
f 757 811 758
f 758 811 852
f 758 852 812
f 758 812 814
f 758 814 759
f 759 813 760
f 759 814 853
f 759 853 813
f 760 813 853
f 760 853 815
f 761 815 767
f 764 766 765
f 767 772 768
f 767 815 814
f 767 814 772
f 769 771 816
f 769 816 770
f 770 816 817
f 770 817 773
f 771 772 818
f 771 818 819
f 771 819 816
f 772 814 812
f 772 812 820
f 772 820 818
f 773 817 859
f 773 859 821
f 773 821 822
f 773 822 774
f 774 822 865
f 774 865 823
f 774 823 775
f 775 823 824
f 775 824 776
f 776 825 826
f 776 826 827
f 776 827 828
f 776 828 777
f 776 824 825
f 777 828 778
f 778 780 779
f 778 828 827
f 778 827 829
f 778 829 780
f 780 829 787
f 780 787 782
f 782 787 785
f 782 785 784
f 784 785 830
f 786 831 832
f 786 832 788
f 787 829 831
f 788 832 834
f 788 834 789
f 789 833 790
f 789 834 873
f 789 873 833
f 790 833 791
f 791 833 839
f 791 839 796
f 793 799 835
f 793 835 836
f 793 836 800
f 793 800 794
f 795 798 837
f 795 837 838
f 795 838 835
f 795 835 799
f 796 839 797
f 797 839 880
f 797 880 840
f 797 840 841
f 797 841 798
f 798 841 878
f 798 878 837
f 800 836 801
f 801 836 842
f 801 842 804
f 801 804 803
f 801 803 802
f 804 842 843
f 804 843 844
f 804 844 805
f 805 844 845
f 805 845 806
f 806 845 807
f 807 845 808
f 808 845 846
f 808 846 847
f 808 847 848
f 808 848 849
f 808 849 809
f 809 849 850
f 809 850 851
f 809 851 810
f 811 851 887
f 811 887 852
f 812 852 820
f 814 815 853
f 816 819 854
f 816 854 855
f 816 855 817
f 817 855 856
f 817 856 857
f 817 857 858
f 817 858 859
f 818 854 819
f 818 820 860
f 818 860 861
f 818 861 862
f 818 862 854
f 820 852 887
f 820 887 860
f 821 859 863
f 821 863 822
f 822 863 864
f 822 864 865
f 823 865 866
f 823 866 867
f 823 867 824
f 824 867 825
f 825 867 866
f 825 866 868
f 825 868 869
f 825 869 826
f 826 869 841
f 826 841 840
f 826 840 870
f 826 870 871
f 826 871 827
f 827 871 829
f 829 871 872
f 829 872 834
f 829 834 832
f 829 832 831
f 833 873 880
f 833 880 839
f 834 872 873
f 835 838 879
f 835 879 874
f 835 874 877
f 835 877 836
f 836 875 845
f 836 845 876
f 836 876 843
f 836 843 842
f 836 877 895
f 836 895 875
f 837 878 879
f 837 879 838
f 840 880 870
f 841 869 878
f 843 876 844
f 844 876 845
f 845 875 881
f 845 881 882
f 845 882 846
f 846 883 847
f 846 882 898
f 846 898 884
f 846 884 899
f 846 899 883
f 847 883 885
f 847 885 848
f 848 885 849
f 849 885 850
f 850 885 900
f 850 900 886
f 850 886 887
f 850 887 851
f 854 862 888
f 854 888 855
f 855 888 856
f 856 888 889
f 856 889 857
f 857 889 890
f 857 890 891
f 857 891 863
f 857 863 858
f 858 863 859
f 860 887 861
f 861 887 886
f 861 886 892
f 861 892 862
f 862 892 893
f 862 893 894
f 862 894 884
f 862 884 888
f 863 891 877
f 863 877 864
f 864 877 866
f 864 866 865
f 866 877 874
f 866 874 868
f 868 874 869
f 869 874 879
f 869 879 878
f 870 880 873
f 870 873 871
f 871 873 872
f 875 895 897
f 875 897 881
f 877 891 890
f 877 890 896
f 877 896 888
f 877 888 895
f 881 897 898
f 881 898 882
f 883 899 900
f 883 900 885
f 884 898 888
f 884 894 899
f 886 900 892
f 888 896 889
f 888 898 897
f 888 897 895
f 889 896 890
f 892 900 893
f 893 900 894
f 894 900 899

