# https://github.com/mikedh/trimesh
v 0.160862300 0.009636655 -0.004036790
v 0.038662740 -0.004257085 0.002193430
v 0.098516630 0.007655075 -0.005445570
v 0.131012410 -0.009378525 -0.005434280
v 0.081215520 -0.007627845 -0.001306660
v 0.057029920 0.001734955 0.004759980
v 0.162570580 -0.009685125 -0.003802690
v 0.122458190 0.007666435 -0.007056000
v 0.103076320 -0.007629735 -0.005461080
v 0.148429130 -0.005108765 -0.009443450
v 0.082975170 0.007880305 -0.002423530
v 0.137318910 0.005043265 -0.009440630
v 0.167875220 0.000376055 -0.008835660
v 0.045508690 0.005925225 0.002175100
v 0.164638490 0.000355235 0.002981730
v 0.149315380 0.006807185 -0.009440630
v 0.094522090 -0.006183775 0.002366890
v 0.105388270 0.006125845 0.002376760
v 0.085004550 -0.000025185 0.004765620
v 0.121058180 -0.007627845 -0.007050360
v 0.131359210 0.009417115 -0.002605440
v 0.038662740 0.003481845 -0.004723550
v 0.138449200 -0.005101195 -0.009439220
v 0.092492710 0.006994555 0.001571540
v 0.047049990 -0.003356195 0.004585120
v 0.158409060 -0.005112555 -0.009442040
v 0.169570650 -0.004972495 -0.002663260
v 0.168864230 0.006004715 -0.002886070
v 0.088986250 -0.007739515 -0.003856280
v 0.122907740 -0.000036535 -0.009638060
v 0.105375430 0.005041365 -0.007844300
v 0.158845760 0.005243875 -0.009632420
v 0.038662740 0.003470495 0.002942240
v 0.158871450 -0.006838625 0.001368470
v 0.038662740 -0.003403515 -0.004603680
v 0.158845760 0.006776905 0.001385390
v 0.164715560 -0.006036155 -0.008835660
v 0.142443740 -0.008801275 -0.006436930
f 35 22 30
f 28 15 27
f 27 13 28
f 27 15 34
f 27 34 7
f 12 16 30
f 32 16 1
f 1 28 32
f 32 28 13
f 13 26 32
f 30 16 32
f 32 26 30
f 22 11 3
f 17 7 34
f 23 35 30
f 37 26 13
f 37 13 27
f 27 7 37
f 36 28 1
f 15 28 36
f 1 3 21
f 21 3 11
f 21 36 1
f 15 36 19
f 19 34 15
f 22 16 31
f 16 12 31
f 30 22 31
f 31 12 30
f 8 16 22
f 22 3 8
f 1 16 8
f 8 3 1
f 4 29 9
f 9 29 35
f 4 7 5
f 7 17 5
f 5 29 4
f 2 35 5
f 35 29 5
f 30 26 10
f 10 23 30
f 26 37 10
f 10 37 23
f 23 37 38
f 38 7 4
f 38 37 7
f 14 21 11
f 22 33 14
f 14 11 22
f 25 17 34
f 34 19 25
f 2 5 25
f 25 5 17
f 25 33 2
f 35 23 20
f 20 9 35
f 4 9 20
f 20 38 4
f 23 38 20
f 24 14 18
f 21 14 24
f 18 36 24
f 36 21 24
f 6 25 19
f 33 25 6
f 6 14 33
f 18 14 6
f 6 36 18
f 6 19 36
f 22 35 33
f 33 35 2

