# https://github.com/mikedh/trimesh
v -0.018852220 0.016630925 0.003950680
v 0.002916670 -0.016483265 -0.005450360
v -0.028617110 -0.014642675 0.008288810
v 0.002916670 0.012607095 -0.006650750
v -0.012848530 -0.016698645 0.000744990
v -0.028593440 0.004810725 0.010964870
v -0.006516740 0.016317635 0.002016810
v -0.000878340 0.001726765 -0.006424260
v -0.028620490 0.014689175 0.007128490
v -0.002633790 -0.008680365 -0.006143760
v -0.002782620 -0.015298635 0.001339080
v -0.020600910 -0.016385355 0.005077890
v -0.031620650 -0.006637445 0.008532720
v 0.002916670 -0.010390405 -0.000016370
v -0.006628360 0.013987535 -0.004652420
v 0.002916670 0.015534405 -0.000300350
v -0.026834610 -0.001774915 0.011146060
v -0.006621590 -0.013957355 -0.004563570
v -0.002647320 0.008723595 -0.006243070
v -0.030846090 0.000362645 0.006320100
v -0.012865440 0.016630925 0.000760670
v -0.025065630 0.010903575 0.010954410
v -0.025055480 -0.010129335 0.010950930
v -0.026611360 -0.012302785 0.003311280
v -0.001223340 0.016317635 -0.005283110
v -0.022484880 0.014561895 0.008382890
v 0.002916670 0.010453225 -0.000016370
v -0.026604600 0.012238325 0.003318250
v -0.031495500 0.010955795 0.008546660
v 0.002916670 -0.015252945 -0.000751580
v 0.002916670 -0.011901385 -0.006622870
v -0.022481500 -0.013650595 0.009260970
v -0.030859620 -0.010938665 0.009539730
v -0.000871580 -0.016701915 -0.002436310
v -0.000952750 -0.013875765 -0.006203000
v -0.010846170 -0.015468325 -0.002918910
v -0.010284700 0.015557245 -0.002969430
v 0.002916670 0.016539545 -0.004652420
v -0.029834760 -0.010935405 0.005525650
v -0.000885100 0.012228535 -0.006426000
f 33 29 13
f 28 29 9
f 9 29 22
f 17 33 23
f 23 22 17
f 39 33 13
f 39 28 24
f 36 12 24
f 9 22 26
f 17 22 6
f 6 22 29
f 6 33 17
f 29 33 6
f 30 23 32
f 14 23 30
f 7 26 16
f 16 26 22
f 16 38 7
f 33 39 3
f 3 12 32
f 24 12 3
f 3 39 24
f 32 23 3
f 3 23 33
f 29 28 20
f 28 39 20
f 13 29 20
f 20 39 13
f 5 36 2
f 12 36 5
f 35 31 2
f 2 36 35
f 10 31 35
f 10 36 19
f 19 36 24
f 8 31 10
f 10 19 8
f 8 19 40
f 4 31 8
f 8 40 4
f 1 26 7
f 7 38 1
f 1 38 21
f 9 26 1
f 25 38 4
f 4 40 25
f 21 38 25
f 32 12 11
f 11 30 32
f 27 16 22
f 22 23 27
f 27 23 14
f 2 30 34
f 34 5 2
f 12 5 34
f 34 11 12
f 30 11 34
f 18 36 10
f 10 35 18
f 18 35 36
f 21 25 37
f 37 1 21
f 37 28 9
f 9 1 37
f 24 28 15
f 15 19 24
f 28 37 15
f 40 19 15
f 15 25 40
f 15 37 25
f 2 31 27
f 4 38 27
f 27 31 4
f 27 30 2
f 14 30 27
f 38 16 27

