# https://github.com/mikedh/trimesh
v -0.04981966 -0.00000799 0.01811683
v -0.04784878 -0.00000799 0.01811683
v -0.04966416 -0.00000799 0.02108569
v -0.04951054 -0.00000435 0.02407029
v -0.05227950 0.00001385 -0.02883363
v -0.04774762 -0.00000799 0.02108569
v -0.04774949 0.00001385 -0.02883363
v -0.04935317 -0.00000435 0.02706278
v -0.04951241 0.00000657 0.02407029
v -0.04808671 0.00001749 0.05127037
v -0.05149640 0.00001385 -0.01386334
v -0.04921641 0.01319170 -0.00344478
v -0.05049785 0.01353389 -0.02883363
v -0.04755278 -0.00000435 0.02706278
v -0.04633878 0.00001749 0.05130975
v -0.03360117 0.03389039 -0.02883363
v -0.04719495 0.00001749 0.05161687
v -0.04767268 0.01278763 0.02706278
v -0.04558753 0.01222702 0.05161687
v -0.04644744 0.01245272 0.05127037
v -0.04658420 0.01249640 0.04857714
v -0.04412623 0.02547404 -0.00344478
v -0.04605214 0.01710501 0.02407029
v -0.04527466 0.02613657 -0.02883363
v -0.03314030 0.03228866 0.05130975
v -0.03314030 0.03355548 0.05161687
v -0.03933019 0.03389039 -0.02883363
v -0.03394963 0.03718121 0.00339067
v -0.03314030 0.03624930 0.02706278
v -0.03314030 0.03399960 0.02706278
v -0.04087954 0.02359565 0.05161687
v -0.04164765 0.02403612 0.05127037
v -0.04177130 0.02410529 0.04857714
v -0.03742676 0.03389039 0.00031944
v -0.04161205 0.03091627 -0.02883363
v -0.03401145 0.03399960 0.05127037
v -0.03314030 0.03466577 0.05127037
v -0.03337823 0.03336619 0.05161687
v -0.03903231 0.03389039 -0.02426615
v -0.03577812 0.03577242 0.00339067
v -0.03488074 0.03486963 0.02777152
v -0.03314030 0.03482958 0.04883702
f 1 2 6
f 1 6 3
f 1 3 4
f 1 4 5
f 1 5 7
f 1 7 2
f 2 7 6
f 3 6 14
f 3 14 8
f 3 8 4
f 4 9 5
f 4 8 10
f 4 10 9
f 5 11 12
f 5 12 13
f 5 13 24
f 5 24 35
f 5 35 27
f 5 27 16
f 5 16 7
f 5 9 11
f 6 7 15
f 6 15 14
f 7 16 15
f 8 14 17
f 8 17 10
f 9 10 18
f 9 18 12
f 9 12 11
f 10 17 19
f 10 19 20
f 10 20 21
f 10 21 18
f 12 22 13
f 12 18 23
f 12 23 22
f 13 22 24
f 14 15 17
f 15 25 26
f 15 26 17
f 15 16 25
f 16 27 28
f 16 28 29
f 16 29 30
f 16 30 25
f 17 26 38
f 17 38 31
f 17 31 19
f 18 21 23
f 19 31 20
f 20 31 32
f 20 32 21
f 21 32 33
f 21 33 23
f 22 34 35
f 22 35 24
f 22 23 33
f 22 33 36
f 22 36 34
f 25 30 29
f 25 29 42
f 25 42 37
f 25 37 26
f 26 37 36
f 26 36 38
f 27 35 39
f 27 39 40
f 27 40 28
f 28 40 41
f 28 41 42
f 28 42 29
f 31 38 36
f 31 36 32
f 32 36 33
f 34 39 35
f 34 36 41
f 34 41 39
f 36 37 42
f 36 42 41
f 39 41 40

