# https://github.com/mikedh/trimesh
v 0.04024441 -0.03357816 -0.03922626
v 0.04014589 -0.03357816 -0.03767286
v 0.03735203 -0.03735345 -0.03922626
v 0.03328141 -0.03357816 -0.03922626
v 0.03968879 -0.03357816 -0.03068916
v 0.03718258 -0.03718578 -0.03467592
v 0.03091706 -0.04161100 -0.02883363
v 0.02629083 -0.04554077 -0.03467592
v 0.03254058 -0.04104396 -0.03922626
v 0.03390796 -0.03357816 -0.02883363
v -0.00000464 -0.04730408 -0.03922626
v 0.03956663 -0.03357816 -0.02883363
v 0.03696585 -0.03696914 -0.02883363
v 0.02613714 -0.04527514 -0.02883363
v 0.01909533 -0.04819327 -0.02883363
v 0.02080949 -0.04806705 -0.03922626
v 0.02640904 -0.04574611 -0.03922626
v -0.00000858 -0.04775055 -0.02883363
v -0.00000858 -0.04901275 -0.03922626
v -0.00000858 -0.04764883 -0.03194959
v 0.01353124 -0.05049725 -0.02883363
v 0.01367310 -0.05102285 -0.03922626
v -0.00000858 -0.05227939 -0.02883363
v -0.00000858 -0.05282195 -0.03922626
v 0.01361005 -0.05079301 -0.03467592
v 0.00756127 -0.05128471 -0.02883363
v 0.00766372 -0.05181408 -0.03922626
v -0.00000858 -0.05258458 -0.03467592
v 0.00000324 -0.05227939 -0.02883363
v 0.00000324 -0.05282195 -0.03922626
v 0.00000324 -0.05258458 -0.03467592
f 1 2 3
f 1 3 9
f 1 9 17
f 1 17 16
f 1 16 22
f 1 22 27
f 1 27 30
f 1 30 24
f 1 24 19
f 1 19 11
f 1 11 4
f 1 4 10
f 1 10 12
f 1 12 5
f 1 5 2
f 2 5 3
f 3 5 6
f 3 6 7
f 3 7 8
f 3 8 9
f 4 11 10
f 5 12 13
f 5 13 6
f 6 13 7
f 7 14 8
f 7 13 12
f 7 12 10
f 7 10 18
f 7 18 23
f 7 23 29
f 7 29 26
f 7 26 21
f 7 21 15
f 7 15 14
f 8 14 15
f 8 15 16
f 8 16 17
f 8 17 9
f 10 11 18
f 11 19 20
f 11 20 18
f 15 21 22
f 15 22 16
f 18 20 19
f 18 19 24
f 18 24 28
f 18 28 23
f 21 25 22
f 21 26 25
f 22 25 26
f 22 26 27
f 23 28 31
f 23 31 29
f 24 30 31
f 24 31 28
f 26 29 31
f 26 31 27
f 27 31 30

