# https://github.com/mikedh/trimesh
v -0.05345800 -0.00000189 -0.05136312
v -0.05202968 -0.00601518 -0.03922774
v -0.05312839 -0.00000189 -0.04508490
v -0.05312839 0.00000858 -0.04507762
v -0.05345277 0.00000858 -0.05136312
v -0.04736280 0.00000858 -0.05162279
v -0.04736280 -0.00000189 -0.05162279
v -0.04575136 -0.01226398 -0.05162279
v -0.05163206 -0.01383927 -0.05136312
v -0.05131814 -0.01375553 -0.04508490
v -0.05281970 -0.00000189 -0.03922774
v -0.05101992 -0.01367179 -0.03922774
v -0.05281970 0.00000858 -0.03922774
v -0.00000858 0.00000858 -0.05162279
v -0.04101646 -0.02368348 -0.05162279
v -0.04629548 -0.02672415 -0.05136312
v -0.04574613 -0.02641537 -0.03922774
v -0.04870217 -0.01927687 -0.03922774
v -0.04730002 0.00000858 -0.03922774
v -0.00000858 -0.04736508 -0.05162279
v -0.00000858 0.00000858 -0.04401588
v -0.03349294 -0.03349106 -0.05162279
v -0.03779882 -0.03779824 -0.05136312
v -0.03756862 -0.03756796 -0.04508490
v -0.03734888 -0.03734815 -0.03922774
v -0.00000858 -0.04730227 -0.03922774
v -0.00000858 -0.05345687 -0.05136312
v -0.01383658 -0.05163561 -0.05136312
v -0.01226176 -0.04574792 -0.05162279
v -0.02368307 -0.04101684 -0.05162279
v -0.02673329 -0.04629221 -0.05136312
v -0.02641414 -0.04574269 -0.03922774
v -0.00000858 -0.05281839 -0.03922774
v -0.00000858 -0.05312716 -0.04507762
v -0.00766813 -0.05181355 -0.03922774
v -0.01367438 -0.05102329 -0.03922774
v -0.02081074 -0.04806637 -0.03922774
v -0.02656587 -0.04600960 -0.04508490
f 1 2 3
f 1 3 4
f 1 4 5
f 1 5 6
f 1 6 7
f 1 7 8
f 1 8 9
f 1 9 10
f 1 10 2
f 2 11 3
f 2 10 12
f 2 12 18
f 2 18 17
f 2 17 25
f 2 25 32
f 2 32 37
f 2 37 36
f 2 36 35
f 2 35 33
f 2 33 26
f 2 26 19
f 2 19 13
f 2 13 11
f 3 11 4
f 4 13 19
f 4 19 21
f 4 21 14
f 4 14 6
f 4 6 5
f 4 11 13
f 6 14 20
f 6 20 29
f 6 29 30
f 6 30 22
f 6 22 15
f 6 15 8
f 6 8 7
f 8 15 16
f 8 16 9
f 9 16 10
f 10 16 17
f 10 17 18
f 10 18 12
f 14 21 26
f 14 26 33
f 14 33 34
f 14 34 27
f 14 27 20
f 15 22 16
f 16 22 23
f 16 23 17
f 17 23 24
f 17 24 25
f 19 26 21
f 20 27 28
f 20 28 29
f 22 30 31
f 22 31 23
f 23 31 24
f 24 31 32
f 24 32 25
f 27 34 35
f 27 35 36
f 27 36 28
f 28 36 31
f 28 31 30
f 28 30 29
f 31 36 37
f 31 37 38
f 31 38 32
f 32 38 37
f 33 35 34

