# https://github.com/mikedh/trimesh
v 0.00000794 0.04933765 0.02706606
v -0.00001516 0.04808768 0.05127508
v -0.00001516 0.04719568 0.05162159
v 0.00000794 0.04755366 0.02706606
v 0.00000794 0.04935525 0.02705818
v -0.01278300 0.04767494 0.02706606
v -0.01245187 0.04645040 0.05127508
v -0.01222085 0.04558971 0.05162159
v -0.00000361 0.04951174 0.02406552
v -0.00001516 0.05059348 0.00339256
v -0.03313223 0.03356343 0.05162159
v -0.03313223 0.03229390 0.05131446
v -0.00001516 0.04634086 0.05131446
v 0.00000794 0.04755366 0.02705818
v 0.00000794 0.04950979 0.02406552
v -0.00001516 0.05227771 -0.02883363
v -0.00001516 0.05149526 -0.01385459
v -0.00001516 0.05095145 -0.00345117
v -0.01710697 0.04605135 0.02406552
v -0.02410695 0.04177134 0.04858169
v -0.01305253 0.04869017 0.00696800
v -0.02403764 0.04164811 0.05127508
v -0.02359485 0.04087739 0.05162159
v -0.03313223 0.03467646 0.05127508
v -0.03600076 0.03371796 0.02406552
v -0.03619713 0.03371796 0.02108862
v -0.03932748 0.03389401 -0.02883363
v -0.03359427 0.03389401 -0.02883363
v -0.00001516 0.04774927 -0.02883363
v 0.00000794 0.04765342 0.02406552
v -0.00756574 0.05128399 -0.02883363
v -0.02438418 0.04224081 0.03817826
v -0.02057616 0.04757909 -0.02883363
v -0.02547383 0.04412456 -0.00345117
v -0.01353382 0.05049763 -0.02883363
v -0.02950132 0.03924207 0.02406552
v -0.03525379 0.03526722 0.01736355
v -0.03500736 0.03501683 0.02406552
v -0.03634729 0.03386663 0.01706428
v -0.03722133 0.03389401 0.00338469
v -0.03602771 0.03603206 -0.00345117
v -0.03679779 0.03680082 -0.02426589
v -0.03696335 0.03696905 -0.02883363
v -0.02697933 0.04156399 0.01811171
v -0.02613610 0.04527281 -0.02883363
v -0.03394466 0.03684385 0.00861396
f 1 2 3
f 1 3 4
f 1 4 14
f 1 14 30
f 1 30 15
f 1 15 5
f 1 5 2
f 2 6 7
f 2 7 8
f 2 8 3
f 2 5 9
f 2 9 10
f 2 10 6
f 3 8 23
f 3 23 11
f 3 11 12
f 3 12 13
f 3 13 4
f 4 13 14
f 5 15 16
f 5 16 17
f 5 17 18
f 5 18 10
f 5 10 9
f 6 19 20
f 6 20 7
f 6 10 18
f 6 18 21
f 6 21 19
f 7 20 22
f 7 22 23
f 7 23 8
f 11 23 24
f 11 24 25
f 11 25 12
f 12 25 26
f 12 26 27
f 12 27 28
f 12 28 29
f 12 29 13
f 13 29 14
f 14 29 30
f 15 30 29
f 15 29 16
f 16 29 28
f 16 28 27
f 16 27 43
f 16 43 45
f 16 45 33
f 16 33 35
f 16 35 31
f 16 31 17
f 17 31 21
f 17 21 18
f 19 32 20
f 19 21 33
f 19 33 34
f 19 34 32
f 20 32 22
f 21 31 35
f 21 35 33
f 22 32 24
f 22 24 23
f 24 32 36
f 24 36 37
f 24 37 38
f 24 38 25
f 25 38 26
f 26 38 39
f 26 39 40
f 26 40 27
f 27 40 41
f 27 41 42
f 27 42 43
f 32 44 36
f 32 34 44
f 33 45 34
f 34 45 44
f 36 44 46
f 36 46 37
f 37 46 42
f 37 42 41
f 37 41 40
f 37 40 38
f 38 40 39
f 42 45 43
f 42 46 45
f 44 45 46

