# https://github.com/mikedh/trimesh
v -0.05282233 0.00001251 -0.03921920
v -0.04730527 0.00001251 -0.03921920
v -0.05227871 0.00001251 -0.02883465
v -0.05049738 0.01353142 -0.02883465
v -0.05079270 0.01361015 -0.03467500
v -0.05102219 0.01367314 -0.03921920
v -0.04774919 0.00001251 -0.02883465
v -0.03360573 0.03324682 -0.03921920
v -0.03360573 0.03388851 -0.02883465
v -0.04527564 0.02613699 -0.02883465
v -0.04554087 0.02629052 -0.03467500
v -0.04574590 0.02640863 -0.03921920
v -0.03360573 0.04022279 -0.03921920
v -0.03360573 0.03954567 -0.02883465
v -0.04161140 0.03091624 -0.02883465
v -0.03718533 0.03718360 -0.03467500
v -0.04103768 0.03254607 -0.03921920
v -0.03735274 0.03734894 -0.03921920
v -0.03360573 0.03980549 -0.03278311
v -0.03360573 0.03971101 -0.03134056
v -0.03696901 0.03696707 -0.02883465
f 1 2 7
f 1 7 3
f 1 3 4
f 1 4 5
f 1 5 6
f 1 6 12
f 1 12 17
f 1 17 18
f 1 18 13
f 1 13 8
f 1 8 2
f 2 8 9
f 2 9 7
f 3 7 9
f 3 9 14
f 3 14 21
f 3 21 15
f 3 15 10
f 3 10 4
f 4 6 5
f 4 10 11
f 4 11 6
f 6 11 12
f 8 13 19
f 8 19 20
f 8 20 14
f 8 14 9
f 10 15 11
f 11 15 16
f 11 16 12
f 12 16 17
f 13 18 16
f 13 16 19
f 14 20 21
f 15 21 16
f 16 21 19
f 16 18 17
f 19 21 20

