# https://github.com/mikedh/trimesh
v -0.00000858 0.05345687 -0.05136293
v -0.00000858 0.05312727 -0.04507796
v -0.00000858 0.04736180 -0.05162400
v -0.01226151 0.04575040 -0.05162400
v -0.01383628 0.05163620 -0.05136293
v -0.00000858 0.05281859 -0.03922041
v -0.01375257 0.05131706 -0.04508404
v -0.01367410 0.05101884 -0.03922041
v -0.00000858 0.00000858 -0.05162400
v -0.02368780 0.04101560 -0.05162400
v -0.02673272 0.04629451 -0.05136293
v -0.02082077 0.04806286 -0.03922041
v -0.00000858 0.04730425 -0.03922041
v -0.00000858 0.00000858 -0.04401549
v -0.04736180 0.00000858 -0.05162400
v -0.03349224 0.03349224 -0.05162400
v -0.02641358 0.04574516 -0.03922041
v -0.02656531 0.04601199 -0.04508404
v -0.03779803 0.03779803 -0.05136293
v -0.03756783 0.03756783 -0.04508404
v -0.04730425 0.00000858 -0.03922041
v -0.05345687 0.00000858 -0.05136293
v -0.04575040 0.01226151 -0.05162400
v -0.04101560 0.02368780 -0.05162400
v -0.04629451 0.02673272 -0.05136293
v -0.03734809 0.03734809 -0.03922041
v -0.04574516 0.02641358 -0.03922041
v -0.04103652 0.03254528 -0.03922041
v -0.05281859 0.00000858 -0.03922041
v -0.05312727 0.00000858 -0.04507796
v -0.05163620 0.01383628 -0.05136293
v -0.04806286 0.02082077 -0.03922041
v -0.04601199 0.02656531 -0.04508404
v -0.05101884 0.01367410 -0.03922041
v -0.05131706 0.01375257 -0.04508404
f 1 2 6
f 1 6 13
f 1 13 14
f 1 14 9
f 1 9 3
f 1 3 4
f 1 4 5
f 1 5 2
f 2 5 7
f 2 7 8
f 2 8 6
f 3 9 15
f 3 15 23
f 3 23 24
f 3 24 16
f 3 16 10
f 3 10 4
f 4 10 11
f 4 11 5
f 5 12 7
f 5 11 12
f 6 8 12
f 6 12 17
f 6 17 26
f 6 26 28
f 6 28 27
f 6 27 32
f 6 32 34
f 6 34 29
f 6 29 21
f 6 21 13
f 7 12 8
f 9 14 21
f 9 21 29
f 9 29 30
f 9 30 22
f 9 22 15
f 10 16 11
f 11 17 18
f 11 18 12
f 11 16 19
f 11 19 20
f 11 20 17
f 12 18 17
f 13 21 14
f 15 22 23
f 16 24 25
f 16 25 19
f 17 20 26
f 19 25 20
f 20 25 27
f 20 27 28
f 20 28 26
f 22 30 31
f 22 31 23
f 23 25 24
f 23 31 25
f 25 31 32
f 25 32 33
f 25 33 27
f 27 33 32
f 29 34 30
f 30 34 35
f 30 35 31
f 31 35 32
f 32 35 34

