# https://github.com/mikedh/trimesh
v 0.03328564 -0.03357487 -0.03922626
v 0.04024959 -0.03357487 -0.03922626
v 0.03391108 -0.03357487 -0.02883363
v 0.04774908 0.00000858 -0.02883363
v 0.04730343 0.00000858 -0.03922626
v 0.04205704 -0.03122091 -0.03922626
v 0.04014822 -0.03357487 -0.03767286
v 0.03957060 -0.03357487 -0.02883363
v 0.05227823 0.00000858 -0.02883363
v 0.04901143 0.00000858 -0.03922626
v 0.04574654 -0.02641106 -0.03922626
v 0.04553997 -0.02629270 -0.03467592
v 0.04527603 -0.02613818 -0.02883363
v 0.05258425 0.00000858 -0.03466880
v 0.05228014 -0.00000128 -0.02883363
v 0.05258425 0.00000858 -0.03468202
v 0.05282334 0.00000200 -0.03922626
v 0.05102353 -0.01367466 -0.03922626
v 0.05049756 -0.01353329 -0.02883363
f 1 2 7
f 1 7 8
f 1 8 3
f 1 3 4
f 1 4 5
f 1 5 10
f 1 10 17
f 1 17 18
f 1 18 11
f 1 11 6
f 1 6 2
f 2 6 7
f 3 8 13
f 3 13 19
f 3 19 15
f 3 15 9
f 3 9 4
f 4 9 14
f 4 14 16
f 4 16 10
f 4 10 5
f 6 11 12
f 6 12 13
f 6 13 8
f 6 8 7
f 9 15 14
f 10 16 17
f 11 13 12
f 11 18 13
f 13 18 19
f 14 15 17
f 14 17 16
f 15 19 18
f 15 18 17

