# https://github.com/mikedh/trimesh
v 0.04779269 -0.00248490 0.00339004
v 0.04723363 0.00002060 -0.04066359
v 0.05026498 -0.00248490 0.00339004
v 0.04758957 -0.00248490 0.01515092
v 0.03352386 0.03323841 -0.04066359
v 0.05289589 0.00002060 -0.04066359
v 0.05007927 -0.00248490 0.00695805
v 0.04964981 -0.00248490 0.01515092
v 0.04719494 0.00001641 0.05161688
v 0.04634182 0.00001641 0.05130976
v 0.03313696 0.03228993 0.05130976
v 0.03352386 0.04038139 -0.04066359
v 0.03313696 0.03399803 0.02706536
v 0.05109294 0.01369803 -0.04066359
v 0.05072346 0.01359731 -0.03332884
v 0.04869030 0.01305592 0.00695805
v 0.05059578 0.00000801 0.00339004
v 0.04951246 0.00000801 0.02406643
v 0.04808674 0.00001641 0.05127363
v 0.04558930 0.01222495 0.05161688
v 0.03313696 0.03355317 0.05161688
v 0.03381597 0.03968052 -0.03332884
v 0.03740833 0.03739745 -0.04066359
v 0.03313696 0.03625592 0.02706536
v 0.04580984 0.02643957 -0.04066359
v 0.04506893 0.02601988 -0.02425978
v 0.04288101 0.02475244 0.02406643
v 0.04758957 0.01339166 0.02406643
v 0.04644822 0.01245157 0.05127363
v 0.04877348 0.00001641 0.03817587
v 0.04088074 0.02358993 0.05161688
v 0.03338071 0.03336851 0.05161688
v 0.03313696 0.03466952 0.05127363
v 0.03381597 0.03787589 -0.00569710
v 0.03680283 0.03679311 -0.02425978
v 0.04095812 0.03277256 -0.04066359
v 0.03313696 0.03482900 0.04884377
v 0.03411195 0.03410295 0.04857278
v 0.04547710 0.02625490 -0.03332884
v 0.03643721 0.03385534 0.01590969
v 0.04156556 0.02698095 0.01811372
v 0.04164874 0.02403479 0.05127363
v 0.03400942 0.03399803 0.05127363
v 0.03577948 0.03577328 0.00339004
f 1 2 6
f 1 6 3
f 1 3 7
f 1 7 8
f 1 8 4
f 1 4 2
f 2 5 12
f 2 12 23
f 2 23 36
f 2 36 25
f 2 25 14
f 2 14 6
f 2 4 5
f 3 6 7
f 4 8 9
f 4 9 10
f 4 10 11
f 4 11 5
f 5 11 13
f 5 13 24
f 5 24 12
f 6 14 15
f 6 15 16
f 6 16 17
f 6 17 7
f 7 18 8
f 7 17 18
f 8 18 19
f 8 19 9
f 9 20 31
f 9 31 32
f 9 32 21
f 9 21 10
f 9 19 20
f 10 21 11
f 11 21 33
f 11 33 37
f 11 37 24
f 11 24 13
f 12 22 23
f 12 24 22
f 14 25 26
f 14 26 16
f 14 16 15
f 16 27 28
f 16 28 29
f 16 29 30
f 16 30 17
f 16 26 27
f 17 30 18
f 18 30 19
f 19 30 29
f 19 29 20
f 20 29 31
f 21 32 33
f 22 24 34
f 22 34 35
f 22 35 23
f 23 35 36
f 24 37 38
f 24 38 34
f 25 36 39
f 25 39 26
f 26 39 36
f 26 36 40
f 26 40 41
f 26 41 27
f 27 41 42
f 27 42 28
f 28 42 29
f 29 42 31
f 31 42 43
f 31 43 32
f 32 43 33
f 33 43 38
f 33 38 37
f 34 38 44
f 34 44 35
f 35 44 38
f 35 38 40
f 35 40 36
f 38 43 42
f 38 42 41
f 38 41 40

