# https://github.com/mikedh/trimesh
v 0.03648044 0.03386333 0.01514474
v 0.03533391 0.03534932 0.01514474
v 0.03525890 0.03526464 0.01735792
v 0.03635543 0.03386333 0.01705982
v 0.03634471 0.03378671 0.01809866
v 0.03488030 0.03258904 0.01514474
v 0.03488030 0.03291769 0.00338326
v 0.03351589 0.03324836 -0.04066359
v 0.03351589 0.04038798 -0.04066359
v 0.03381234 0.03968632 -0.03331944
v 0.03381234 0.03956938 -0.03151276
v 0.02658669 0.04148282 0.02406070
v 0.03313014 0.03553683 0.03817990
v 0.03313014 0.03467992 0.05127833
v 0.03489815 0.03490574 0.02705979
v 0.03584467 0.03367178 0.02705979
v 0.03603754 0.03367178 0.02406070
v 0.03313014 0.03230273 0.05131446
v -0.00000501 0.04723323 -0.04066359
v 0.03351589 0.04023273 -0.03825167
v 0.02644382 0.04580773 -0.04066359
v 0.02601878 0.04506573 -0.02425894
v 0.02404360 0.04164815 0.05127833
v 0.02359713 0.04087794 0.05162160
v 0.03313014 0.03356492 0.05162160
v -0.00000501 0.04719694 0.05162160
v -0.00000501 0.04634204 0.05131446
v -0.00000858 0.04764657 -0.03193733
v -0.00000858 0.05015481 -0.03331944
v -0.00000501 0.05289492 -0.04066359
v 0.01369623 0.05109237 -0.04066359
v 0.01521780 0.05005198 -0.03331944
v 0.02438292 0.04224295 0.03817990
v 0.01244969 0.04645091 0.05127833
v 0.01712869 0.04620896 0.02107968
v 0.01222110 0.04558997 0.05162160
v 0.00000214 0.04719895 0.05162160
v -0.00000501 0.04809014 0.05127833
v -0.00000858 0.05059032 0.00338326
v -0.00000858 0.04811636 0.00338326
v -0.00000858 0.04764657 -0.03192829
v -0.00000858 0.05250981 -0.03331944
v 0.00000214 0.05289896 -0.04066359
v 0.01277829 0.04767479 0.02705979
v 0.00000214 0.04823129 0.04858638
v 0.00000214 0.04809014 0.05127833
v -0.00000501 0.04935636 0.02705979
v -0.00000858 0.05094922 -0.00344599
f 1 2 3
f 1 3 4
f 1 4 5
f 1 5 6
f 1 6 7
f 1 7 8
f 1 8 9
f 1 9 10
f 1 10 2
f 2 10 11
f 2 11 3
f 3 11 12
f 3 12 13
f 3 13 14
f 3 14 15
f 3 15 4
f 4 15 16
f 4 16 5
f 5 16 17
f 5 17 6
f 6 8 7
f 6 17 18
f 6 18 8
f 8 19 30
f 8 30 43
f 8 43 31
f 8 31 21
f 8 21 9
f 8 18 19
f 9 20 10
f 9 21 20
f 10 20 21
f 10 21 11
f 11 21 22
f 11 22 12
f 12 23 14
f 12 14 13
f 12 22 23
f 14 24 25
f 14 25 16
f 14 16 15
f 14 23 24
f 16 25 18
f 16 18 17
f 18 25 26
f 18 26 27
f 18 27 19
f 19 28 29
f 19 29 42
f 19 42 30
f 19 27 28
f 21 31 32
f 21 32 22
f 22 32 33
f 22 33 23
f 23 34 24
f 23 33 35
f 23 35 34
f 24 34 36
f 24 36 37
f 24 37 26
f 24 26 25
f 26 37 38
f 26 38 39
f 26 39 40
f 26 40 27
f 27 40 41
f 27 41 28
f 28 41 40
f 28 40 39
f 28 39 48
f 28 48 42
f 28 42 29
f 30 42 43
f 31 43 44
f 31 44 32
f 32 35 33
f 32 44 35
f 34 45 46
f 34 46 36
f 34 35 44
f 34 44 45
f 36 46 37
f 37 46 38
f 38 46 45
f 38 45 43
f 38 43 47
f 38 47 48
f 38 48 39
f 42 48 43
f 43 48 47
f 43 45 44

