# https://github.com/mikedh/trimesh
v 0.05345277 0.00000334 -0.05135944
v 0.05312828 0.00000334 -0.04508412
v 0.05312828 -0.00000189 -0.04508412
v 0.05345277 -0.00000189 -0.05136309
v 0.04736084 0.00000334 -0.05162400
v 0.05281950 0.00000334 -0.03922626
v 0.05202922 -0.00601531 -0.03922626
v 0.05163670 -0.01383956 -0.05136309
v 0.04736084 -0.00000189 -0.05162400
v -0.00000334 0.00000334 -0.05162400
v 0.04730327 0.00000334 -0.03922626
v 0.05101914 -0.01367208 -0.03922626
v 0.05131745 -0.01375582 -0.04508412
v 0.04870065 -0.01927728 -0.03922626
v 0.04574365 -0.02641593 -0.03922626
v 0.04601057 -0.02656770 -0.04508412
v 0.04629318 -0.02672471 -0.05136309
v 0.04101771 -0.02368398 -0.05162400
v 0.04574889 -0.01225901 -0.05162400
v -0.00000334 -0.04735561 -0.05162400
v -0.00000334 0.00000334 -0.04401618
v -0.00000334 -0.04730327 -0.03922626
v 0.03734894 -0.03734894 -0.03922626
v 0.03756875 -0.03756875 -0.04508412
v 0.03779903 -0.03779903 -0.05136309
v 0.03349177 -0.03349177 -0.05162400
v -0.00000334 -0.05345277 -0.05136309
v 0.00000189 -0.04736084 -0.05162400
v -0.00000334 -0.05281950 -0.03922626
v 0.02641593 -0.04574365 -0.03922626
v 0.02656770 -0.04601057 -0.04508412
v 0.02672471 -0.04629318 -0.05136309
v 0.02368398 -0.04101771 -0.05162400
v -0.00000334 -0.05312828 -0.04507805
v 0.00000189 -0.05345277 -0.05136309
v 0.01225901 -0.04574889 -0.05162400
v 0.01383956 -0.05163670 -0.05136309
v 0.00000189 -0.05281950 -0.03922626
v 0.02081073 -0.04806738 -0.03922626
v 0.00000189 -0.05312828 -0.04508412
v 0.01375582 -0.05131745 -0.04508412
v 0.00766390 -0.05181465 -0.03922626
v 0.01367208 -0.05101914 -0.03922626
f 1 2 3
f 1 3 4
f 1 4 5
f 1 5 10
f 1 10 21
f 1 21 11
f 1 11 6
f 1 6 2
f 2 6 3
f 3 6 7
f 3 7 8
f 3 8 4
f 4 8 9
f 4 9 5
f 5 9 19
f 5 19 18
f 5 18 26
f 5 26 33
f 5 33 36
f 5 36 28
f 5 28 20
f 5 20 10
f 6 11 22
f 6 22 29
f 6 29 38
f 6 38 42
f 6 42 43
f 6 43 39
f 6 39 30
f 6 30 23
f 6 23 15
f 6 15 14
f 6 14 12
f 6 12 7
f 7 12 13
f 7 13 8
f 8 13 14
f 8 14 15
f 8 15 16
f 8 16 17
f 8 17 18
f 8 18 19
f 8 19 9
f 10 20 27
f 10 27 34
f 10 34 29
f 10 29 22
f 10 22 21
f 11 21 22
f 12 14 13
f 15 23 24
f 15 24 16
f 16 24 25
f 16 25 17
f 17 25 18
f 18 25 26
f 20 28 27
f 23 30 24
f 24 30 31
f 24 31 25
f 25 31 32
f 25 32 33
f 25 33 26
f 27 28 35
f 27 35 34
f 28 36 37
f 28 37 35
f 29 34 38
f 30 39 31
f 31 39 37
f 31 37 32
f 32 37 33
f 33 37 36
f 34 35 40
f 34 40 38
f 35 37 40
f 37 39 41
f 37 41 42
f 37 42 40
f 38 40 42
f 39 43 41
f 41 43 42

