# https://github.com/mikedh/trimesh
v 0.09594151 -0.30801994 0.49974272
v 0.09594151 -0.30759400 0.48963958
v 0.10280555 -0.30644402 0.48963958
v 0.10295204 -0.30682737 0.49974272
v 0.10186384 -0.30361164 0.50000000
v 0.09594151 -0.30461255 0.50000000
v 0.09594151 -0.28989691 0.26110235
v 0.19247751 -0.25967765 0.48963958
v 0.09719713 -0.28968394 0.26110235
v 0.16537711 -0.25414065 0.26110235
v 0.19260307 -0.25984800 0.49490163
v 0.19272864 -0.25999707 0.49974272
v 0.19069873 -0.25727117 0.50000000
v 0.09594151 -0.28857654 0.50000000
v 0.09594151 -0.27196553 0.26110235
v 0.26329428 -0.18750493 0.48963958
v 0.26362914 -0.18773919 0.49974272
v 0.18197219 -0.24547309 0.26110235
v 0.26086676 -0.18577994 0.50000000
v 0.29033190 -0.09045830 0.50000000
v 0.29031098 -0.09045830 0.49978951
v 0.28849036 -0.09045830 0.47787595
v 0.09594151 -0.28672376 0.47794610
v 0.27388334 -0.09045830 0.26110235
v 0.30832908 -0.09695364 0.48963958
v 0.30853835 -0.09703882 0.49490163
v 0.23579629 -0.19061418 0.26110235
v 0.24889655 -0.17726147 0.26110235
v 0.28315395 -0.10843227 0.26110235
v 0.30872670 -0.09708142 0.49974272
v 0.30548301 -0.09608049 0.50000000
v 0.30632010 -0.09045830 0.50000000
v 0.28844848 -0.09045830 0.47731465
v 0.29167122 -0.09045830 0.26110235
v 0.30929172 -0.09045830 0.48963958
v 0.30931264 -0.09045830 0.48999035
v 0.30954283 -0.09045830 0.49522904
v 0.29148290 -0.09167219 0.26110235
v 0.30973119 -0.09045830 0.49974272
v 0.30950099 -0.09045830 0.49976611
f 1 2 3
f 1 3 4
f 1 4 5
f 1 5 6
f 1 6 14
f 1 14 23
f 1 23 15
f 1 15 7
f 1 7 2
f 2 7 3
f 3 8 4
f 3 7 9
f 3 9 10
f 3 10 8
f 4 11 12
f 4 12 5
f 4 8 11
f 5 13 19
f 5 19 31
f 5 31 32
f 5 32 20
f 5 20 14
f 5 14 6
f 5 12 13
f 7 15 24
f 7 24 34
f 7 34 38
f 7 38 29
f 7 29 28
f 7 28 27
f 7 27 18
f 7 18 10
f 7 10 9
f 8 16 17
f 8 17 12
f 8 12 11
f 8 10 18
f 8 18 16
f 12 17 19
f 12 19 13
f 14 20 21
f 14 21 22
f 14 22 23
f 15 23 24
f 16 25 26
f 16 26 17
f 16 18 27
f 16 27 28
f 16 28 29
f 16 29 25
f 17 26 30
f 17 30 19
f 19 30 31
f 20 32 40
f 20 40 39
f 20 39 37
f 20 37 36
f 20 36 35
f 20 35 34
f 20 34 24
f 20 24 33
f 20 33 22
f 20 22 21
f 22 33 23
f 23 33 24
f 25 35 36
f 25 36 37
f 25 37 26
f 25 29 38
f 25 38 34
f 25 34 35
f 26 37 39
f 26 39 30
f 30 39 40
f 30 40 31
f 31 40 32

