# https://github.com/mikedh/trimesh
v -0.25155494 0.16898865 0.50000000
v -0.24951501 0.16898865 0.47787595
v -0.26922256 0.16898865 0.50000000
v -0.28857115 -0.09620407 0.50000000
v -0.23420247 0.16898865 0.26110235
v -0.28666255 -0.09620407 0.47780576
v -0.27219927 0.16898865 0.49981290
v -0.30550337 0.09604508 0.50000000
v -0.30456656 -0.09620407 0.50000000
v -0.25302577 0.16898865 0.26110235
v -0.27184907 -0.09620407 0.26110235
v -0.27296969 0.16898865 0.49974272
v -0.30874270 0.09705746 0.49974272
v -0.32363501 -0.00306473 0.49974272
v -0.32022929 -0.00303877 0.50000000
v -0.30797228 -0.09620407 0.49974272
v -0.28316054 0.10840136 0.26110235
v -0.27250570 0.16898865 0.48963958
v -0.28986689 -0.09620407 0.26110235
v -0.27275082 0.16898865 0.49490163
v -0.30855012 0.09700555 0.49490163
v -0.32321477 -0.00306473 0.48963958
v -0.30755204 -0.09620407 0.48963958
v -0.29149532 0.09163212 0.26110235
v -0.30833998 0.09692767 0.48963958
v -0.27255821 0.16898865 0.49071538
v -0.30555588 -0.00288302 0.26110235
f 1 2 5
f 1 5 10
f 1 10 18
f 1 18 26
f 1 26 20
f 1 20 12
f 1 12 7
f 1 7 3
f 1 3 8
f 1 8 15
f 1 15 9
f 1 9 4
f 1 4 2
f 2 4 6
f 2 6 5
f 3 7 8
f 4 9 16
f 4 16 23
f 4 23 19
f 4 19 11
f 4 11 6
f 5 6 11
f 5 11 19
f 5 19 27
f 5 27 24
f 5 24 17
f 5 17 10
f 7 12 13
f 7 13 8
f 8 13 14
f 8 14 15
f 9 15 14
f 9 14 16
f 10 17 18
f 12 20 21
f 12 21 13
f 13 21 14
f 14 22 23
f 14 23 16
f 14 21 22
f 17 24 25
f 17 25 18
f 18 25 26
f 19 23 22
f 19 22 27
f 20 26 21
f 21 25 22
f 21 26 25
f 22 25 27
f 24 27 25

