# https://github.com/mikedh/trimesh
v 0.27239317 0.16898865 0.49974272
v 0.25728387 0.19070613 0.50000000
v 0.26859245 0.16898865 0.50000000
v 0.27192509 0.16898865 0.48963958
v 0.25984889 0.19261214 0.49490163
v 0.25999868 0.19272345 0.49974272
v 0.18772875 0.26363569 0.49974272
v 0.18576285 0.26086709 0.50000000
v 0.25076836 0.16898865 0.50000000
v 0.25966167 0.19247302 0.48963958
v 0.25224745 0.16898865 0.26110235
v 0.24548852 0.18195513 0.26110235
v 0.18748535 0.26328787 0.48963958
v 0.18761641 0.26346874 0.49490163
v 0.09709176 0.30874014 0.49974272
v 0.09703559 0.30854538 0.49490163
v 0.09606201 0.30549854 0.50000000
v 0.08113996 0.29172510 0.50000000
v 0.08113996 0.28988865 0.47787595
v 0.24897097 0.16898865 0.48082268
v 0.23388040 0.16898865 0.26110235
v 0.19059333 0.23581059 0.26110235
v 0.09696071 0.30833668 0.48963958
v 0.17724399 0.24890231 0.26110235
v 0.10841905 0.28315499 0.26110235
v 0.08113996 0.31111920 0.49974272
v 0.08113996 0.31057662 0.49978951
v 0.08113996 0.30771062 0.50000000
v 0.08113996 0.28852522 0.45565835
v 0.24870884 0.16898865 0.47787595
v 0.23447953 0.16898865 0.27005956
v 0.08113996 0.27658826 0.26110235
v 0.08113996 0.31068790 0.48963958
v 0.08113996 0.31072965 0.49048150
v 0.09166216 0.29148859 0.26110235
v 0.08113996 0.29306072 0.26110235
f 1 2 3
f 1 3 9
f 1 9 20
f 1 20 30
f 1 30 31
f 1 31 21
f 1 21 11
f 1 11 4
f 1 4 5
f 1 5 6
f 1 6 2
f 2 6 7
f 2 7 8
f 2 8 17
f 2 17 28
f 2 28 18
f 2 18 9
f 2 9 3
f 4 10 5
f 4 11 12
f 4 12 10
f 5 10 13
f 5 13 14
f 5 14 7
f 5 7 6
f 7 15 8
f 7 14 16
f 7 16 15
f 8 15 17
f 9 18 19
f 9 19 20
f 10 12 13
f 11 21 32
f 11 32 36
f 11 36 35
f 11 35 25
f 11 25 24
f 11 24 22
f 11 22 12
f 12 22 13
f 13 23 14
f 13 22 24
f 13 24 25
f 13 25 23
f 14 23 16
f 15 26 27
f 15 27 17
f 15 16 23
f 15 23 26
f 17 27 28
f 18 28 27
f 18 27 26
f 18 26 34
f 18 34 33
f 18 33 36
f 18 36 32
f 18 32 29
f 18 29 19
f 19 29 30
f 19 30 20
f 21 31 32
f 23 33 34
f 23 34 26
f 23 25 35
f 23 35 36
f 23 36 33
f 29 32 30
f 30 32 31

