# https://github.com/mikedh/trimesh
v -0.09218755 0.30523342 0.50000000
v -0.09218755 0.28919739 0.50000000
v -0.09218755 0.30557519 0.49997661
v -0.10186702 0.30360657 0.50000000
v -0.25153595 0.16898865 0.50000000
v -0.09218755 0.28735179 0.47787595
v -0.09218755 0.30865115 0.49974272
v -0.10294645 0.30683291 0.49974272
v -0.19271594 0.26000988 0.49974272
v -0.19068097 0.25727570 0.50000000
v -0.26921380 0.16898865 0.50000000
v -0.24950096 0.16898865 0.47787595
v -0.09218755 0.27392691 0.26110235
v -0.09218755 0.30822736 0.48963958
v -0.10280488 0.30643645 0.48963958
v -0.19246821 0.25966811 0.48963958
v -0.26328579 0.18749912 0.48963958
v -0.26362199 0.18774520 0.49974272
v -0.26086149 0.18577658 0.50000000
v -0.27218664 0.16898865 0.49981290
v -0.23417661 0.16898865 0.26110235
v -0.09218755 0.29053712 0.26110235
v -0.09719539 0.28968954 0.26110235
v -0.16535863 0.25414503 0.26110235
v -0.18195707 0.24547765 0.26110235
v -0.24889931 0.17725958 0.26110235
v -0.27248746 0.16898865 0.48963958
v -0.27254057 0.16898865 0.49071538
v -0.27278829 0.16898865 0.49590728
v -0.27296525 0.16898865 0.49974272
v -0.25300467 0.16898865 0.26110235
f 1 2 6
f 1 6 13
f 1 13 22
f 1 22 14
f 1 14 7
f 1 7 3
f 1 3 4
f 1 4 10
f 1 10 19
f 1 19 11
f 1 11 5
f 1 5 2
f 2 5 6
f 3 7 8
f 3 8 4
f 4 8 9
f 4 9 10
f 5 11 20
f 5 20 30
f 5 30 29
f 5 29 28
f 5 28 27
f 5 27 31
f 5 31 21
f 5 21 12
f 5 12 6
f 6 12 13
f 7 14 15
f 7 15 8
f 8 15 9
f 9 15 16
f 9 16 17
f 9 17 18
f 9 18 19
f 9 19 10
f 11 19 20
f 12 21 13
f 13 21 31
f 13 31 26
f 13 26 25
f 13 25 24
f 13 24 23
f 13 23 22
f 14 22 15
f 15 22 23
f 15 23 24
f 15 24 16
f 16 24 25
f 16 25 26
f 16 26 17
f 17 27 28
f 17 28 29
f 17 29 30
f 17 30 18
f 17 26 27
f 18 30 20
f 18 20 19
f 26 31 27

