# https://github.com/mikedh/trimesh
v -0.22434063 0.10134743 -0.39064592
v -0.21884382 0.10134743 -0.47158033
v -0.24133383 0.10134743 -0.39064592
v -0.20158249 -0.14545280 -0.39064592
v -0.19597173 -0.14545280 -0.47158033
v -0.23569624 0.10134743 -0.47158033
v -0.24741383 0.07776903 -0.47158033
v -0.25228053 0.07931515 -0.39064592
v -0.21874326 -0.14545280 -0.39064592
v -0.21306548 -0.14545280 -0.47158033
v -0.25934595 -0.00248454 -0.47158033
v -0.26445395 -0.00253285 -0.39064592
v -0.21782491 -0.14545280 -0.40386036
v -0.25073203 -0.08409096 -0.39064592
v -0.24588545 -0.08247235 -0.47158033
v -0.25915825 -0.00361997 -0.47158033
v -0.25769690 -0.01231693 -0.47158033
f 1 2 6
f 1 6 3
f 1 3 8
f 1 8 12
f 1 12 14
f 1 14 9
f 1 9 4
f 1 4 5
f 1 5 2
f 2 5 10
f 2 10 15
f 2 15 17
f 2 17 16
f 2 16 11
f 2 11 7
f 2 7 6
f 3 6 7
f 3 7 8
f 4 9 13
f 4 13 10
f 4 10 5
f 7 11 12
f 7 12 8
f 9 14 13
f 10 13 14
f 10 14 15
f 11 16 12
f 12 16 17
f 12 17 14
f 14 17 15

