# https://github.com/mikedh/trimesh
v -0.19596604 -0.14545280 -0.47158033
v -0.21305399 -0.14545280 -0.47158033
v -0.20156795 -0.14545280 -0.39064592
v -0.07460061 -0.23215045 -0.47158033
v -0.20835516 -0.15444258 -0.47158033
v -0.21246134 -0.15748478 -0.39064592
v -0.21874057 -0.14545280 -0.39064592
v -0.07460061 -0.23760326 -0.39064592
v -0.07460061 -0.23218203 -0.47109705
v -0.07460061 -0.24788782 -0.47158033
v -0.20733918 -0.15544261 -0.47158033
v -0.20402320 -0.16576926 -0.39064592
v -0.07460061 -0.25299326 -0.39064592
v -0.07752150 -0.24745622 -0.47158033
v -0.15043107 -0.21126553 -0.47158033
v -0.15339430 -0.21542357 -0.39064592
v -0.07932767 -0.25228798 -0.39064592
v -0.07780372 -0.24741413 -0.47158033
v -0.14152727 -0.21570779 -0.47158033
v -0.14489971 -0.21965529 -0.39064592
f 1 2 7
f 1 7 3
f 1 3 4
f 1 4 10
f 1 10 14
f 1 14 18
f 1 18 19
f 1 19 15
f 1 15 11
f 1 11 5
f 1 5 2
f 2 5 6
f 2 6 7
f 3 7 6
f 3 6 12
f 3 12 16
f 3 16 20
f 3 20 17
f 3 17 13
f 3 13 8
f 3 8 9
f 3 9 4
f 4 9 8
f 4 8 13
f 4 13 10
f 5 11 6
f 6 11 12
f 10 13 14
f 11 15 12
f 12 15 16
f 13 17 18
f 13 18 14
f 15 19 16
f 16 19 20
f 17 20 19
f 17 19 18

