# https://github.com/mikedh/trimesh
v -0.25934964 -0.00248590 -0.47158852
v -0.24413761 -0.08187281 -0.49999639
v -0.24586165 -0.08238105 -0.47158852
v -0.23622736 0.10134730 -0.46313328
v -0.24738285 0.07771420 -0.47158852
v -0.24565881 0.07720596 -0.49999639
v -0.25752419 -0.00243507 -0.49999639
v -0.15332179 0.20685770 -0.50000000
v -0.20691885 -0.15328038 -0.49999639
v -0.20778087 -0.15399191 -0.48266008
v -0.24520245 -0.08365165 -0.47158852
v 0.23661324 0.10134730 -0.46313328
v -0.21280083 0.14851187 -0.46313328
v -0.23566958 0.10134730 -0.47158852
v -0.20828792 -0.15439850 -0.47158852
v -0.20752732 -0.15521167 -0.47158852
v -0.15038081 -0.21121961 -0.47158852
v -0.14911313 -0.21188031 -0.47158852
v -0.07771800 -0.24740621 -0.47158852
v 0.00239869 -0.25934982 -0.47158852
v -0.23450333 0.10134730 -0.48839435
v -0.23369202 0.10134730 -0.49999639
v -0.14551295 0.19633715 -0.50000000
v -0.20975843 0.14937589 -0.49999279
v -0.15474159 0.20873818 -0.46313328
v -0.08187596 0.24416244 -0.50000000
v -0.14936666 -0.20974571 -0.49999639
v -0.15002586 -0.21066055 -0.48266008
v 0.08246467 -0.24583067 -0.47158852
v 0.08373234 -0.24522078 -0.47158852
v 0.13043328 -0.22082531 -0.47158852
v 0.24675460 -0.07755278 -0.48223063
v 0.25867069 0.00244402 -0.48223063
v 0.24518269 0.08223753 -0.48223063
v 0.24518269 0.08218670 -0.48266008
v 0.24416855 0.08188176 -0.49999639
v 0.23529486 0.10129648 -0.48223063
v 0.20872453 0.15476322 -0.46313328
v -0.21163458 0.15074813 -0.46313328
v -0.07721094 -0.24567820 -0.49999639
v 0.00239869 -0.25752017 -0.49999639
v 0.08221114 -0.24522078 -0.48266008
v -0.09475548 0.15313685 -0.50000000
v -0.09703729 0.23882593 -0.46313328
v -0.08258586 0.24634786 -0.46313328
v -0.00241846 0.25986701 -0.46313328
v -0.00236775 0.25752911 -0.50000000
v 0.08190690 -0.24415348 -0.49999639
v 0.13043328 -0.21884319 -0.49999639
v 0.15401192 -0.20776358 -0.48266008
v 0.15406263 -0.20771275 -0.48223063
v 0.21070209 -0.14992599 -0.48223063
v 0.21065138 -0.14997682 -0.48266008
v 0.20978937 -0.14936693 -0.49999639
v 0.24568975 -0.07719701 -0.49999639
v 0.25750443 0.00239320 -0.49999639
v 0.14934690 0.20975466 -0.50000000
v 0.23402719 0.10129648 -0.49999639
v 0.20684837 0.15334015 -0.49999279
v 0.15071598 0.21168597 -0.46313328
v 0.14174089 0.19903082 -0.50000000
v 0.07790107 0.24787258 -0.46313328
v 0.07719117 0.24568716 -0.50000000
v 0.15335274 -0.20684876 -0.49999639
f 1 2 3
f 1 3 4
f 1 4 5
f 1 5 6
f 1 6 7
f 1 7 2
f 2 7 8
f 2 8 9
f 2 9 10
f 2 10 11
f 2 11 3
f 3 11 4
f 4 12 38
f 4 38 60
f 4 60 62
f 4 62 46
f 4 46 45
f 4 45 44
f 4 44 25
f 4 25 39
f 4 39 13
f 4 13 14
f 4 14 5
f 4 11 15
f 4 15 16
f 4 16 17
f 4 17 18
f 4 18 19
f 4 19 20
f 4 20 12
f 5 14 21
f 5 21 6
f 6 21 22
f 6 22 8
f 6 8 7
f 8 23 9
f 8 22 24
f 8 24 25
f 8 25 26
f 8 26 47
f 8 47 63
f 8 63 57
f 8 57 61
f 8 61 43
f 8 43 23
f 9 23 27
f 9 27 28
f 9 28 10
f 10 28 16
f 10 16 15
f 10 15 11
f 12 20 29
f 12 29 30
f 12 30 31
f 12 31 32
f 12 32 33
f 12 33 34
f 12 34 35
f 12 35 36
f 12 36 37
f 12 37 38
f 13 22 21
f 13 21 14
f 13 39 24
f 13 24 22
f 16 28 17
f 17 28 18
f 18 28 19
f 19 40 20
f 19 28 40
f 20 41 42
f 20 42 29
f 20 40 41
f 23 43 27
f 24 39 25
f 25 44 26
f 26 44 45
f 26 45 46
f 26 46 47
f 27 40 28
f 27 43 40
f 29 42 30
f 30 42 48
f 30 48 49
f 30 49 50
f 30 50 31
f 31 50 51
f 31 51 52
f 31 52 32
f 32 52 53
f 32 53 54
f 32 54 55
f 32 55 33
f 33 55 56
f 33 56 36
f 33 36 35
f 33 35 34
f 36 56 57
f 36 57 58
f 36 58 59
f 36 59 37
f 37 59 38
f 38 59 60
f 40 43 41
f 41 43 48
f 41 48 42
f 43 61 48
f 46 62 63
f 46 63 47
f 48 61 49
f 49 64 50
f 49 61 64
f 50 64 54
f 50 54 53
f 50 53 52
f 50 52 51
f 54 64 61
f 54 61 57
f 54 57 55
f 55 57 56
f 57 63 60
f 57 60 59
f 57 59 58
f 60 63 62

