# https://github.com/mikedh/trimesh
v -0.09479996 0.29010424 0.26107898
v -0.09479996 0.27256995 0.26107898
v -0.09479996 0.28258428 0.14198437
v -0.09720407 0.28969777 0.26107898
v -0.26847786 0.10134745 0.26107898
v -0.09479996 0.22301576 -0.46312967
v -0.09479996 0.24657340 -0.37047690
v -0.09709138 0.23886867 -0.46312967
v -0.15477115 0.20878878 -0.46312967
v -0.18196760 0.24548328 0.26107898
v -0.28665891 0.10134745 0.26107898
v -0.23752499 0.10134745 -0.19566302
v -0.21940029 0.10134745 -0.46312967
v -0.09479996 0.24005117 -0.46312967
v -0.09479996 0.24526156 -0.38912088
v -0.21169963 0.15077230 -0.46312967
v -0.23579705 0.19062631 0.26107898
v -0.28314668 0.10842398 0.26107898
v -0.27807552 0.10134745 0.13758922
v -0.23628537 0.10134745 -0.46312967
v -0.21260117 0.14896160 -0.46312967
v -0.24890693 0.17724925 0.26107898
f 1 2 6
f 1 6 14
f 1 14 15
f 1 15 7
f 1 7 3
f 1 3 4
f 1 4 10
f 1 10 17
f 1 17 22
f 1 22 18
f 1 18 11
f 1 11 5
f 1 5 2
f 2 5 6
f 3 7 8
f 3 8 9
f 3 9 4
f 4 9 10
f 5 11 19
f 5 19 20
f 5 20 13
f 5 13 12
f 5 12 6
f 6 13 20
f 6 20 21
f 6 21 16
f 6 16 9
f 6 9 8
f 6 8 14
f 6 12 13
f 7 15 8
f 8 15 14
f 9 16 17
f 9 17 10
f 11 18 19
f 16 21 22
f 16 22 17
f 18 22 21
f 18 21 20
f 18 20 19

