# https://github.com/mikedh/trimesh
v -0.08650365 -0.27578342 0.26103556
v -0.28664759 -0.09621761 0.47785589
v -0.28855518 -0.09621761 0.50000000
v -0.10737862 -0.28221655 0.50000000
v -0.08650365 -0.29225141 0.26103556
v -0.08650365 -0.23574804 -0.33083943
v -0.27420497 -0.09097116 0.26103556
v -0.30455279 -0.09621761 0.50000000
v -0.10737862 -0.29987127 0.50000000
v -0.10737862 -0.30363953 0.49973845
v -0.10737862 -0.30341053 0.49485627
v -0.10737862 -0.30316067 0.48962539
v -0.09166279 -0.29146028 0.26103556
v -0.08650365 -0.27503392 -0.01227833
v -0.08650365 -0.23170911 -0.39064592
v -0.23000553 -0.09097116 -0.39064592
v -0.29074454 -0.09097116 0.26103556
v -0.30795610 -0.09621761 0.49973845
v -0.30682889 -0.10296304 0.49973845
v -0.30359900 -0.10188044 0.50000000
v -0.18578441 -0.26085603 0.50000000
v -0.18775702 -0.26360416 0.49973845
v -0.18751857 -0.26329187 0.48962539
v -0.14492323 -0.21965478 -0.39064592
v -0.08650365 -0.24869759 -0.39064592
v -0.24715206 -0.09097116 -0.39064592
v -0.27101845 -0.09097116 -0.05081254
v -0.30752257 -0.09621761 0.48962539
v -0.30795610 -0.09621761 0.49938971
v -0.25998485 -0.19273552 0.49973845
v -0.25725356 -0.19071606 0.50000000
v -0.30643871 -0.10283812 0.48962539
v -0.25983310 -0.19263142 0.49485627
v -0.25965971 -0.19250651 0.48962539
v -0.20566224 -0.16415073 -0.39064592
v -0.15342063 -0.21540765 -0.39064592
v -0.21244715 -0.15748858 -0.39064592
f 1 2 3
f 1 3 4
f 1 4 9
f 1 9 5
f 1 5 14
f 1 14 25
f 1 25 15
f 1 15 6
f 1 6 7
f 1 7 2
f 2 7 3
f 3 8 20
f 3 20 31
f 3 31 21
f 3 21 9
f 3 9 4
f 3 7 17
f 3 17 8
f 5 9 10
f 5 10 11
f 5 11 12
f 5 12 13
f 5 13 14
f 6 15 7
f 7 15 16
f 7 16 26
f 7 26 27
f 7 27 17
f 8 17 18
f 8 18 19
f 8 19 20
f 9 21 10
f 10 21 22
f 10 22 23
f 10 23 11
f 11 23 12
f 12 23 24
f 12 24 25
f 12 25 14
f 12 14 13
f 15 25 24
f 15 24 36
f 15 36 35
f 15 35 37
f 15 37 26
f 15 26 16
f 17 27 28
f 17 28 29
f 17 29 18
f 18 29 19
f 19 30 31
f 19 31 20
f 19 29 32
f 19 32 33
f 19 33 30
f 21 31 30
f 21 30 22
f 22 30 33
f 22 33 23
f 23 33 34
f 23 34 35
f 23 35 36
f 23 36 24
f 26 37 34
f 26 34 32
f 26 32 27
f 27 32 28
f 28 32 29
f 32 34 33
f 34 37 35

