# https://github.com/mikedh/trimesh
v 0.28753302 0.10134745 0.26107898
v 0.24548097 0.18196249 0.26107898
v 0.26914263 0.10134745 0.26107898
v 0.23664965 0.10134745 -0.46312967
v 0.19060482 0.23579928 0.26107898
v 0.20877886 0.15477313 -0.46312967
v 0.20698899 0.15652969 -0.46312967
v 0.08659583 0.27577046 0.26107898
v 0.08659583 0.22694172 -0.46008140
v 0.21959674 0.10134745 -0.46312967
v 0.17724966 0.24889876 0.26107898
v 0.15075569 0.21169326 -0.46312967
v 0.08659583 0.29225224 0.26107898
v 0.08659583 0.22675486 -0.46312967
v 0.10842828 0.28315175 0.26107898
v 0.14896582 0.21259023 -0.46312967
v 0.09167040 0.29148608 0.26107898
v 0.08659583 0.27539670 -0.00645855
v 0.08659583 0.24361038 -0.46312967
f 1 2 5
f 1 5 11
f 1 11 15
f 1 15 17
f 1 17 13
f 1 13 8
f 1 8 3
f 1 3 10
f 1 10 4
f 1 4 2
f 2 4 6
f 2 6 7
f 2 7 5
f 3 8 9
f 3 9 10
f 4 10 14
f 4 14 19
f 4 19 16
f 4 16 12
f 4 12 7
f 4 7 6
f 5 7 12
f 5 12 11
f 8 13 18
f 8 18 19
f 8 19 14
f 8 14 9
f 9 14 10
f 11 12 16
f 11 16 15
f 13 17 18
f 15 16 18
f 15 18 17
f 16 19 18

