# https://github.com/mikedh/trimesh
v 0.13044801 -0.25399584 0.26100415
v 0.13044801 -0.27234355 0.26100415
v 0.13044801 -0.20386492 -0.47158030
v -0.10734382 -0.28018677 0.47784081
v -0.10734382 -0.28221497 0.49999997
v 0.09592909 -0.28856927 0.49999997
v 0.13044801 -0.25042006 -0.05141178
v 0.09592909 -0.30460739 0.49999997
v 0.09592909 -0.30800730 0.49971467
v 0.09592909 -0.30799559 0.49933425
v 0.09592909 -0.30759698 0.48963368
v 0.13044801 -0.22088785 -0.47158030
v -0.07457063 -0.23216614 -0.47158030
v -0.08646487 -0.23175581 -0.39055189
v -0.10734382 -0.26549685 0.26109928
v -0.10734382 -0.29988271 0.49999997
v 0.13044801 -0.22658563 -0.39055189
v 0.00305620 -0.32022348 0.49999997
v 0.00307948 -0.32362339 0.49971467
v 0.00307948 -0.32321304 0.48963368
v 0.08247533 -0.24590641 -0.47158030
v -0.07457063 -0.24791119 -0.47158030
v -0.08646487 -0.24873185 -0.39055189
v -0.10734382 -0.28369218 0.26109928
v -0.10734382 -0.30363435 0.49971467
v -0.09603148 -0.30549842 0.49999997
v -0.09705564 -0.30873418 0.49971467
v -0.09700909 -0.30854660 0.49486437
v -0.09691598 -0.30833557 0.48963368
v 0.00135703 -0.25918946 -0.47158030
v 0.00249757 -0.25934187 -0.47158030
v -0.07927246 -0.25230759 -0.39055189
v -0.10734382 -0.30316538 0.48963368
v -0.10734382 -0.30341157 0.49486437
f 1 2 7
f 1 7 17
f 1 17 12
f 1 12 3
f 1 3 4
f 1 4 5
f 1 5 6
f 1 6 8
f 1 8 2
f 2 8 9
f 2 9 10
f 2 10 11
f 2 11 7
f 3 12 21
f 3 21 31
f 3 31 30
f 3 30 22
f 3 22 13
f 3 13 14
f 3 14 15
f 3 15 4
f 4 15 24
f 4 24 33
f 4 33 34
f 4 34 25
f 4 25 16
f 4 16 5
f 5 16 26
f 5 26 18
f 5 18 8
f 5 8 6
f 7 11 17
f 8 18 19
f 8 19 9
f 9 19 10
f 10 19 20
f 10 20 11
f 11 20 21
f 11 21 12
f 11 12 17
f 13 22 23
f 13 23 14
f 14 23 24
f 14 24 15
f 16 25 26
f 18 26 19
f 19 27 28
f 19 28 20
f 19 26 27
f 20 28 29
f 20 29 22
f 20 22 30
f 20 30 31
f 20 31 21
f 22 32 23
f 22 29 32
f 23 32 33
f 23 33 24
f 25 28 27
f 25 27 26
f 25 34 28
f 28 34 33
f 28 33 29
f 29 33 32

