# https://github.com/mikedh/trimesh
v 0.08659585 0.29224300 0.26100883
v 0.08110923 0.31069621 0.48962957
v 0.08110923 0.31110978 0.49971718
v 0.08110923 0.30772242 0.50000000
v 0.08659585 0.27577889 0.26100883
v 0.08659585 0.27539486 -0.00645385
v -0.00310771 0.32321167 0.48962957
v -0.00310771 0.32363510 0.49971718
v 0.07793089 0.24794155 -0.46312964
v 0.08110923 0.29173097 0.50000000
v -0.00307220 0.32022804 0.50000000
v 0.08110923 0.28988957 0.47784501
v 0.08659585 0.22696754 -0.46001852
v 0.08659585 0.24363844 -0.46312964
v -0.09217206 0.30822462 0.48962957
v -0.00250401 0.25988591 -0.46312964
v -0.00534497 0.25941327 -0.46312964
v -0.08265481 0.24640544 -0.46312964
v -0.09217206 0.30861849 0.49915153
v -0.09217206 0.30863819 0.49971718
v -0.09217206 0.30524099 0.50000000
v -0.09217206 0.28920031 0.50000000
v -0.09217206 0.28735891 0.47784501
v -0.09479995 0.22303861 -0.46312964
v 0.08659585 0.22677061 -0.46312964
v -0.09479995 0.28257331 0.14193749
v -0.09479995 0.29009637 0.26100883
v -0.08444817 0.24547982 -0.46312964
v -0.09479995 0.27257866 0.26100883
v -0.09479995 0.24007384 -0.46312964
f 1 2 3
f 1 3 4
f 1 4 10
f 1 10 5
f 1 5 13
f 1 13 25
f 1 25 14
f 1 14 6
f 1 6 2
f 2 7 8
f 2 8 3
f 2 6 9
f 2 9 7
f 3 8 4
f 4 8 11
f 4 11 21
f 4 21 22
f 4 22 10
f 5 10 12
f 5 12 13
f 6 14 9
f 7 15 8
f 7 9 16
f 7 16 17
f 7 17 18
f 7 18 15
f 8 15 19
f 8 19 20
f 8 20 21
f 8 21 11
f 9 14 25
f 9 25 24
f 9 24 30
f 9 30 28
f 9 28 18
f 9 18 17
f 9 17 16
f 10 22 23
f 10 23 12
f 12 23 24
f 12 24 13
f 13 24 25
f 15 18 26
f 15 26 27
f 15 27 19
f 18 28 26
f 19 27 20
f 20 27 21
f 21 27 29
f 21 29 22
f 22 29 23
f 23 29 24
f 24 29 27
f 24 27 26
f 24 26 30
f 26 28 30

