# https://github.com/mikedh/trimesh
v 0.26861101 0.16896325 0.50000000
v 0.25077632 0.16896325 0.50000000
v 0.30361271 0.10184126 0.50000000
v 0.30683702 0.10293329 0.49974272
v 0.27239761 0.16896325 0.49974272
v 0.24899286 0.16896325 0.48082268
v 0.29034650 -0.09043291 0.50000000
v 0.32363501 0.00310107 0.49974272
v 0.32023501 0.00305028 0.50000000
v 0.30644166 0.10278092 0.48963958
v 0.27193198 0.16896325 0.48963958
v 0.24872050 0.16896325 0.47787595
v 0.29032895 -0.09043291 0.49978951
v 0.30633622 -0.09043291 0.50000000
v 0.30949903 -0.09043291 0.49976611
v 0.30972746 -0.09043291 0.49974272
v 0.30954295 -0.09043291 0.49522904
v 0.32321331 0.00310107 0.48963958
v 0.29280648 0.07870538 0.26110235
v 0.28969637 0.09716837 0.26110235
v 0.25414997 0.16535699 0.26110235
v 0.25226107 0.16896325 0.26110235
v 0.23388168 0.16896325 0.26110235
v 0.28850153 -0.09043291 0.47787595
v 0.30932334 -0.09043291 0.48999035
v 0.30930576 -0.09043291 0.48963958
v 0.30555433 0.00292330 0.26110235
v 0.27390870 -0.09043291 0.26110235
v 0.27452371 -0.09043291 0.27024665
v 0.29167312 -0.09043291 0.26110235
f 1 2 7
f 1 7 14
f 1 14 9
f 1 9 3
f 1 3 4
f 1 4 5
f 1 5 11
f 1 11 22
f 1 22 23
f 1 23 12
f 1 12 6
f 1 6 2
f 2 6 7
f 3 8 4
f 3 9 8
f 4 8 10
f 4 10 11
f 4 11 5
f 6 12 7
f 7 13 24
f 7 24 29
f 7 29 28
f 7 28 30
f 7 30 26
f 7 26 25
f 7 25 17
f 7 17 16
f 7 16 15
f 7 15 14
f 7 12 13
f 8 9 15
f 8 15 16
f 8 16 17
f 8 17 18
f 8 18 10
f 9 14 15
f 10 18 19
f 10 19 20
f 10 20 21
f 10 21 11
f 11 21 22
f 12 23 24
f 12 24 13
f 17 25 18
f 18 25 26
f 18 26 27
f 18 27 19
f 19 27 30
f 19 30 28
f 19 28 23
f 19 23 22
f 19 22 21
f 19 21 20
f 23 28 29
f 23 29 24
f 26 30 27

