# https://github.com/mikedh/trimesh
v -0.03554585 0.00000908 -0.04351291
v -0.03528741 0.00428539 -0.04351291
v -0.03067212 0.00000908 -0.04351291
v -0.03628117 0.00000908 -0.03371224
v -0.03835371 0.00001135 -0.00609747
v -0.03516903 0.00493559 -0.04351291
v -0.03811027 0.00399894 -0.00609747
v -0.03807193 0.00462640 -0.00609747
v -0.02131981 0.02197945 -0.04351291
v -0.02137817 0.02323438 -0.03371224
v -0.03422196 0.00001135 -0.00609747
v -0.03160251 0.00000908 -0.03371224
v -0.03522905 0.00868446 -0.03371224
v -0.03468048 0.00855033 -0.04123854
v -0.03451375 0.00850941 -0.04351291
v -0.03723824 0.00918007 -0.00609747
v -0.02785759 0.02197945 -0.04351291
v -0.02780756 0.02323438 -0.03371224
v -0.02507974 0.02323438 -0.00609747
v -0.03343329 0.01197411 -0.04351291
v -0.03586099 0.01359733 -0.00609747
v -0.02925651 0.02019253 -0.04351291
v -0.02807435 0.02197945 -0.04123854
v -0.02878965 0.02197945 -0.03371224
v -0.02902642 0.02323438 -0.02088639
v -0.03043034 0.02323438 -0.00609747
v -0.03323487 0.01260385 -0.04351291
v -0.03392350 0.01286302 -0.03371224
v -0.03395851 0.01782135 -0.00609747
v -0.03247788 0.01607991 -0.03371224
v -0.03147412 0.01651868 -0.04351291
v -0.03162586 0.01659825 -0.04123854
v -0.03212607 0.01685970 -0.03371224
v -0.03168254 0.01759401 -0.03371224
v -0.03156249 0.02178393 -0.00609747
f 1 2 6
f 1 6 15
f 1 15 20
f 1 20 27
f 1 27 31
f 1 31 22
f 1 22 17
f 1 17 9
f 1 9 3
f 1 3 12
f 1 12 4
f 1 4 5
f 1 5 2
f 2 5 7
f 2 7 8
f 2 8 6
f 3 9 10
f 3 10 11
f 3 11 12
f 4 12 11
f 4 11 5
f 5 11 19
f 5 19 26
f 5 26 35
f 5 35 29
f 5 29 21
f 5 21 16
f 5 16 8
f 5 8 7
f 6 13 14
f 6 14 15
f 6 8 13
f 8 16 13
f 9 17 18
f 9 18 10
f 10 18 25
f 10 25 26
f 10 26 19
f 10 19 11
f 13 20 14
f 13 16 21
f 13 21 20
f 14 20 15
f 17 22 23
f 17 23 18
f 18 24 25
f 18 23 24
f 20 21 28
f 20 28 27
f 21 29 30
f 21 30 28
f 22 31 32
f 22 32 33
f 22 33 34
f 22 34 29
f 22 29 35
f 22 35 26
f 22 26 25
f 22 25 24
f 22 24 23
f 27 32 31
f 27 28 30
f 27 30 32
f 29 34 33
f 29 33 30
f 30 33 32

