# https://github.com/mikedh/trimesh
v 0.03409182 0.02633116 0.05791324
v 0.03230016 0.02861762 0.05791324
v 0.03225679 0.02858139 0.05865491
v 0.03401842 0.02633116 0.05865491
v 0.02323176 0.02138320 -0.03366880
v 0.02971443 0.02633116 0.01193909
v 0.03135595 0.02778444 0.04112045
v 0.02861341 0.03230195 0.05791324
v 0.02857671 0.03225933 0.05865491
v 0.02837986 0.03203985 0.05926839
v 0.03203325 0.02838535 0.05926839
v 0.03364474 0.02633116 0.05926839
v 0.00001026 0.03160727 -0.03366880
v 0.02323176 0.02781214 -0.03366880
v 0.02780933 0.02633116 -0.00608065
v 0.02796948 0.02633116 -0.00458816
v 0.02891035 0.02633116 0.00429352
v 0.03334446 0.02633116 0.05949730
v 0.03308755 0.02633116 0.05968958
v 0.03245363 0.02633116 0.05985439
v 0.03179636 0.02633116 0.05979030
v 0.03116578 0.02633116 0.05945151
v 0.03074538 0.02633116 0.05894791
v 0.03067866 0.02633116 0.05886551
v 0.03045512 0.02633116 0.05801396
v 0.02543046 0.02871138 -0.00608065
v 0.02573074 0.02904593 -0.00008323
v 0.02061267 0.02986633 -0.03366880
v 0.02379895 0.03447760 0.04112045
v 0.02447291 0.03545569 0.05697013
v 0.02451295 0.03551322 0.05791324
v 0.02447958 0.03546634 0.05865491
v 0.02431276 0.03522342 0.05926839
v 0.02406253 0.03486116 0.05968958
v 0.02808626 0.03170956 0.05968958
v 0.03170628 0.02809342 0.05968958
v 0.00001026 0.03628461 -0.03366880
v 0.00001026 0.03169677 -0.03271654
v 0.03132926 0.02776313 0.05985439
v 0.00001026 0.04186118 0.05985439
v 0.00001026 0.04133911 0.05979030
v 0.00001026 0.04084261 0.05945151
v 0.00001026 0.04045904 0.05886551
v 0.00001026 0.04028218 0.05801396
v 0.01686253 0.03212935 -0.03366880
v 0.01782342 0.03396192 -0.00608065
v 0.02005215 0.03820881 0.05791324
v 0.02002546 0.03815980 0.05865491
v 0.01988867 0.03789770 0.05926839
v 0.01968514 0.03750562 0.05968958
v 0.02377893 0.03445203 0.05985439
v 0.02775595 0.03133452 0.05985439
v 0.00001026 0.04315251 0.05791324
v 0.00520841 0.04283927 0.05791324
v 0.00437764 0.03602038 -0.03366880
v 0.00505159 0.04155646 0.05985439
v 0.00001026 0.04235981 0.05968958
v 0.01286883 0.03392783 -0.03366880
v 0.01360618 0.03586269 -0.00608065
v 0.01530776 0.04034824 0.05791324
v 0.01528774 0.04029497 0.05865491
v 0.01518431 0.04002008 0.05926839
v 0.01502750 0.03960881 0.05968958
v 0.01945159 0.03706452 0.05985439
v 0.00001026 0.04309284 0.05866407
v 0.00519840 0.04278173 0.05865491
v 0.01031981 0.04184200 0.05865491
v 0.01033315 0.04189741 0.05791324
v 0.00918208 0.03723925 -0.00608065
v 0.00535521 0.03584138 -0.03366880
v 0.01002286 0.04064443 0.05985439
v 0.01014297 0.04112815 0.05968958
v 0.00511165 0.04205083 0.05968958
v 0.00516503 0.04248980 0.05926839
v 0.00001026 0.04279878 0.05926839
v 0.00868829 0.03522981 -0.03366880
v 0.01024640 0.04155646 0.05926839
v 0.01485067 0.03914002 0.05985439
f 1 2 3
f 1 3 4
f 1 4 5
f 1 5 6
f 1 6 7
f 1 7 2
f 2 7 8
f 2 8 9
f 2 9 3
f 3 9 10
f 3 10 11
f 3 11 12
f 3 12 4
f 4 12 5
f 5 13 37
f 5 37 55
f 5 55 70
f 5 70 76
f 5 76 58
f 5 58 45
f 5 45 28
f 5 28 14
f 5 14 15
f 5 15 16
f 5 16 17
f 5 17 6
f 5 12 18
f 5 18 19
f 5 19 20
f 5 20 21
f 5 21 22
f 5 22 23
f 5 23 24
f 5 24 25
f 5 25 13
f 6 17 7
f 7 17 26
f 7 26 27
f 7 27 8
f 8 27 26
f 8 26 14
f 8 14 28
f 8 28 29
f 8 29 30
f 8 30 31
f 8 31 9
f 9 31 32
f 9 32 33
f 9 33 10
f 10 34 35
f 10 35 36
f 10 36 11
f 10 33 34
f 11 18 12
f 11 36 18
f 13 25 38
f 13 38 44
f 13 44 43
f 13 43 42
f 13 42 41
f 13 41 40
f 13 40 57
f 13 57 75
f 13 75 65
f 13 65 53
f 13 53 37
f 14 26 15
f 15 26 16
f 16 26 17
f 18 36 19
f 19 36 20
f 20 39 52
f 20 52 51
f 20 51 64
f 20 64 78
f 20 78 71
f 20 71 56
f 20 56 40
f 20 40 41
f 20 41 21
f 20 36 39
f 21 41 42
f 21 42 22
f 22 42 43
f 22 43 23
f 23 43 24
f 24 43 44
f 24 44 25
f 25 44 38
f 28 45 46
f 28 46 47
f 28 47 30
f 28 30 29
f 30 47 31
f 31 47 48
f 31 48 32
f 32 48 33
f 33 48 49
f 33 49 34
f 34 50 51
f 34 51 35
f 34 49 50
f 35 51 52
f 35 52 36
f 36 52 39
f 37 53 54
f 37 54 55
f 40 56 57
f 45 58 59
f 45 59 46
f 46 59 60
f 46 60 47
f 47 60 48
f 48 60 61
f 48 61 62
f 48 62 49
f 49 62 63
f 49 63 50
f 50 63 64
f 50 64 51
f 53 65 66
f 53 66 54
f 54 66 67
f 54 67 68
f 54 68 69
f 54 69 70
f 54 70 55
f 56 71 72
f 56 72 73
f 56 73 57
f 57 73 74
f 57 74 75
f 58 76 59
f 59 76 69
f 59 69 68
f 59 68 60
f 60 68 61
f 61 67 62
f 61 68 67
f 62 77 63
f 62 67 77
f 63 72 71
f 63 71 78
f 63 78 64
f 63 77 72
f 65 75 74
f 65 74 66
f 66 74 67
f 67 74 77
f 69 76 70
f 72 77 74
f 72 74 73

