# https://github.com/mikedh/trimesh
v 0.02180068 -0.02632471 -0.00603362
v 0.03154907 0.00000466 -0.03428067
v 0.02132853 -0.02320364 -0.03428067
v 0.02782533 -0.02632471 -0.00603362
v 0.03046378 -0.02632471 0.05800837
v 0.04028268 0.00000209 0.05800837
v 0.03623847 0.00000466 -0.03428067
v 0.03422598 0.00000466 -0.00603362
v 0.02777405 -0.02320364 -0.03428067
v 0.02871407 -0.02543297 -0.00603362
v 0.02830815 -0.02632471 -0.00147170
v 0.03048515 -0.02632471 0.05810053
v 0.04046000 0.00000209 0.05886546
v 0.03835778 -0.00000307 -0.00603362
v 0.03623847 -0.00000307 -0.03428067
v 0.03835564 0.00000466 -0.00603362
v 0.04315186 0.00000209 0.05791621
v 0.04315400 -0.00000307 0.05791621
v 0.04084455 0.00000209 0.05945528
v 0.04134019 0.00000209 0.05978706
v 0.04186148 0.00000209 0.05986079
v 0.02982713 -0.02058513 -0.03428067
v 0.02971604 -0.02632471 0.01183620
v 0.03068597 -0.02632471 0.05886546
v 0.03597356 -0.00437154 -0.03428067
v 0.04235926 0.00000209 0.05969490
v 0.04279936 0.00000209 0.05927097
v 0.04309418 0.00000209 0.05866271
v 0.04309418 -0.00000307 0.05866271
v 0.04278013 -0.00519884 0.05866271
v 0.04283568 -0.00520400 0.05791621
v 0.04276518 -0.00519626 0.05696697
v 0.03811423 -0.00400299 -0.00603362
v 0.03075433 -0.02632471 0.05894841
v 0.03117307 -0.02632471 0.05945528
v 0.03180544 -0.02632471 0.05978706
v 0.04186148 -0.00000307 0.05987000
v 0.03167939 -0.01751818 -0.03428067
v 0.03821037 -0.02005164 0.05791621
v 0.03189303 -0.02125264 -0.00603362
v 0.03156830 -0.02178872 -0.00603362
v 0.03409353 -0.02632471 0.05791621
v 0.03310010 -0.02632471 0.04745605
v 0.03796468 -0.00524008 -0.00603362
v 0.03535186 -0.00777611 -0.03428067
v 0.04236139 -0.00000307 0.05969490
v 0.04280149 -0.00000307 0.05927097
v 0.04184225 -0.01031730 0.05866271
v 0.04189780 -0.01033018 0.05791621
v 0.04248744 -0.00516276 0.05927097
v 0.04155811 -0.01024513 0.05927097
v 0.04067578 -0.01002864 0.04111544
v 0.03245918 -0.02632471 0.05987000
v 0.04155383 -0.00504936 0.05987000
v 0.03208958 -0.01683778 -0.03428067
v 0.04034677 -0.01529916 0.05791621
v 0.04029336 -0.01527854 0.05866271
v 0.03815910 -0.02002587 0.05866271
v 0.03551210 -0.02451031 0.05791621
v 0.03388416 -0.01285075 -0.03428067
v 0.03402302 -0.02632471 0.05866271
v 0.03518736 -0.00867558 -0.03428067
v 0.04204948 -0.00510864 0.05969490
v 0.04001990 -0.01517545 0.05927097
v 0.04112869 -0.01013947 0.05969490
v 0.03444817 -0.02377579 0.05987000
v 0.03308942 -0.02632471 0.05969490
v 0.03486049 -0.02405929 0.05969490
v 0.04064373 -0.01002091 0.05987000
v 0.03546509 -0.02447681 0.05866271
v 0.03789845 -0.01988927 0.05927097
v 0.03522368 -0.02430929 0.05927097
v 0.03365129 -0.02632471 0.05927097
v 0.03960544 -0.01501823 0.05969490
v 0.03750749 -0.01968309 0.05969490
v 0.03913970 -0.01484040 0.05987000
v 0.03706526 -0.01945114 0.05987000
f 1 2 3
f 1 3 9
f 1 9 4
f 1 4 11
f 1 11 23
f 1 23 43
f 1 43 42
f 1 42 61
f 1 61 73
f 1 73 67
f 1 67 53
f 1 53 36
f 1 36 35
f 1 35 34
f 1 34 24
f 1 24 12
f 1 12 5
f 1 5 6
f 1 6 2
f 2 7 15
f 2 15 25
f 2 25 45
f 2 45 62
f 2 62 60
f 2 60 55
f 2 55 38
f 2 38 22
f 2 22 9
f 2 9 3
f 2 6 8
f 2 8 16
f 2 16 7
f 4 10 11
f 4 9 10
f 5 12 13
f 5 13 6
f 6 13 8
f 7 14 15
f 7 16 17
f 7 17 18
f 7 18 14
f 8 13 19
f 8 19 20
f 8 20 21
f 8 21 16
f 9 22 23
f 9 23 10
f 10 23 11
f 12 24 13
f 13 24 19
f 14 25 15
f 14 18 25
f 16 21 26
f 16 26 27
f 16 27 28
f 16 28 17
f 17 28 18
f 18 28 29
f 18 29 30
f 18 30 31
f 18 31 32
f 18 32 33
f 18 33 25
f 19 24 34
f 19 34 35
f 19 35 20
f 20 35 36
f 20 36 37
f 20 37 21
f 21 37 26
f 22 38 39
f 22 39 40
f 22 40 41
f 22 41 42
f 22 42 43
f 22 43 23
f 25 44 45
f 25 33 32
f 25 32 44
f 26 37 46
f 26 46 47
f 26 47 27
f 27 47 28
f 28 47 29
f 29 47 30
f 30 48 49
f 30 49 31
f 30 47 50
f 30 50 51
f 30 51 48
f 31 49 32
f 32 49 52
f 32 52 44
f 36 53 37
f 37 53 66
f 37 66 77
f 37 77 76
f 37 76 69
f 37 69 54
f 37 54 46
f 38 55 39
f 39 56 57
f 39 57 58
f 39 58 59
f 39 59 40
f 39 55 60
f 39 60 56
f 40 59 41
f 41 59 42
f 42 59 61
f 44 52 62
f 44 62 45
f 46 63 50
f 46 50 47
f 46 54 63
f 48 57 56
f 48 56 49
f 48 51 64
f 48 64 57
f 49 56 52
f 50 63 51
f 51 63 65
f 51 65 64
f 52 60 62
f 52 56 60
f 53 67 68
f 53 68 66
f 54 69 65
f 54 65 63
f 57 64 58
f 58 70 59
f 58 64 71
f 58 71 72
f 58 72 70
f 59 70 61
f 61 70 73
f 64 65 74
f 64 74 75
f 64 75 71
f 65 69 76
f 65 76 74
f 66 68 77
f 67 73 68
f 68 75 77
f 68 73 72
f 68 72 71
f 68 71 75
f 70 72 73
f 74 76 75
f 75 76 77

