# https://github.com/mikedh/trimesh
v 0.03067498 0.00000991 -0.04349901
v 0.02131436 0.02198888 -0.04349901
v 0.03554711 0.00000991 -0.04349901
v 0.03169578 0.00000991 -0.03272143
v 0.02323419 0.02507428 -0.00609061
v 0.02785112 0.02198888 -0.04349901
v 0.02323419 0.03043202 -0.00609061
v 0.02323419 0.02780825 -0.03367724
v 0.03528858 0.00428658 -0.04349901
v 0.03571725 0.00000991 -0.04123583
v 0.03422275 0.00000991 -0.00609061
v 0.02885357 0.02070826 -0.04349901
v 0.02406317 0.02715900 -0.03367724
v 0.02716225 0.02406170 -0.03367724
v 0.02806795 0.02198888 -0.04123583
v 0.02543424 0.02870468 -0.00609061
v 0.03451631 0.00850964 -0.04349901
v 0.03538699 0.00783955 -0.03367724
v 0.03545704 0.00430743 -0.04123583
v 0.03835430 0.00000991 -0.00609061
v 0.02925555 0.02019006 -0.04349901
v 0.02939732 0.02028834 -0.04123583
v 0.02587791 0.02826391 -0.00609061
v 0.02871012 0.02543166 -0.00609061
v 0.03156234 0.02178637 -0.00609061
v 0.03323698 0.01260761 -0.04349901
v 0.03493497 0.00963837 -0.03367724
v 0.03523020 0.00868833 -0.03367724
v 0.03723843 0.00917973 -0.00609061
v 0.03807242 0.00462311 -0.00609061
v 0.03811078 0.00399769 -0.00609061
v 0.02959581 0.01963016 -0.04349901
v 0.03162739 0.01659838 -0.04123583
v 0.03188760 0.02125029 -0.00609061
v 0.03161405 0.01771519 -0.03367724
v 0.03147561 0.01651796 -0.04349901
v 0.03392585 0.01286969 -0.03367724
v 0.03604750 0.01300371 -0.00609061
v 0.03395921 0.01781943 -0.00609061
v 0.03585902 0.01360530 -0.00609061
f 1 2 6
f 1 6 12
f 1 12 21
f 1 21 32
f 1 32 36
f 1 36 26
f 1 26 17
f 1 17 9
f 1 9 3
f 1 3 10
f 1 10 20
f 1 20 11
f 1 11 4
f 1 4 5
f 1 5 2
f 2 5 7
f 2 7 8
f 2 8 6
f 3 9 10
f 4 11 5
f 5 11 20
f 5 20 31
f 5 31 30
f 5 30 29
f 5 29 38
f 5 38 40
f 5 40 39
f 5 39 34
f 5 34 25
f 5 25 24
f 5 24 23
f 5 23 16
f 5 16 7
f 6 8 13
f 6 13 14
f 6 14 15
f 6 15 12
f 7 16 13
f 7 13 8
f 9 17 18
f 9 18 19
f 9 19 20
f 9 20 10
f 12 15 22
f 12 22 21
f 13 16 23
f 13 23 14
f 14 23 24
f 14 24 15
f 15 24 25
f 15 25 22
f 17 26 27
f 17 27 28
f 17 28 29
f 17 29 18
f 18 29 30
f 18 30 19
f 19 30 31
f 19 31 20
f 21 22 32
f 22 33 32
f 22 25 34
f 22 34 35
f 22 35 33
f 26 36 33
f 26 33 37
f 26 37 27
f 27 37 38
f 27 38 29
f 27 29 28
f 32 33 36
f 33 35 39
f 33 39 40
f 33 40 37
f 34 39 35
f 37 40 38

