# https://github.com/mikedh/trimesh
v 0.03552639 0.00000693 -0.04371686
v 0.03553334 -0.00000350 -0.04371686
v 0.03463712 0.00000693 -0.05562775
v 0.03294194 0.00000693 -0.04371686
v 0.03526934 -0.00428942 -0.04371686
v 0.03422722 -0.00415722 -0.05768325
v 0.03447733 -0.00000350 -0.05768325
v 0.03447733 0.00000693 -0.05768325
v 0.03064928 0.00000345 -0.04371686
v 0.00001102 0.00000693 -0.04820736
v -0.03543488 0.00000345 -0.04493910
v 0.03449817 -0.00850575 -0.04371686
v 0.03362974 -0.00829007 -0.05564988
v 0.03347690 -0.00825876 -0.05768325
v 0.03328237 -0.00820657 -0.05857187
v 0.03402575 -0.00413287 -0.05857187
v 0.03428280 -0.00000350 -0.05857187
v 0.03428280 0.00000693 -0.05856870
v 0.00001102 -0.03064848 -0.04371686
v -0.03544183 -0.00000002 -0.04493910
v 0.00001102 0.00000693 -0.05987000
v -0.03455950 0.00000345 -0.05668554
v 0.03343521 -0.01191848 -0.04371686
v 0.03224025 -0.01223505 -0.05768325
v 0.03205267 -0.01215852 -0.05857187
v 0.03283773 -0.00809525 -0.05926758
v 0.03357416 -0.00408069 -0.05926758
v 0.03382427 -0.00000350 -0.05926758
v 0.03382427 0.00000693 -0.05926758
v 0.00001102 -0.03553275 -0.04371686
v -0.03455950 -0.00000002 -0.05668554
v -0.03524730 -0.00320402 -0.04493910
v 0.00326937 0.00000693 -0.05987000
v -0.00327513 0.00000345 -0.05987000
v -0.03156515 0.00000345 -0.05986842
v -0.03244053 0.00000345 -0.05986684
v -0.03318391 0.00000345 -0.05971663
v -0.03382307 0.00000345 -0.05926758
v -0.03428161 0.00000345 -0.05857187
v -0.03448308 0.00000345 -0.05768325
v -0.03448308 -0.00000002 -0.05768484
v 0.03321984 -0.01260033 -0.04371686
v 0.03053118 -0.01603045 -0.05768325
v 0.03162193 -0.01199849 -0.05926758
v 0.03035054 -0.01593652 -0.05857187
v 0.02994759 -0.01572432 -0.05926758
v 0.03221941 -0.00794218 -0.05971663
v 0.03294194 -0.00400067 -0.05971663
v 0.03318510 -0.00000350 -0.05971663
v 0.03318510 0.00000693 -0.05971663
v 0.00428370 -0.03526836 -0.04371686
v -0.03517783 -0.00427550 -0.04493910
v -0.03440666 -0.00848488 -0.04493910
v -0.03345486 -0.01154625 -0.04493910
v -0.03312833 -0.01256902 -0.04493910
v -0.03269064 -0.01355005 -0.04493910
v -0.03137757 -0.01647226 -0.04493910
v -0.02916133 -0.02013199 -0.04493910
v -0.02652130 -0.02349949 -0.04493910
v -0.02349916 -0.02652607 -0.04493910
v -0.02012965 -0.02916650 -0.04493910
v -0.01738540 -0.03082242 -0.04493910
v -0.01646834 -0.03137555 -0.04493910
v -0.01256387 -0.03313584 -0.04493910
v -0.00847877 -0.03440909 -0.04493910
v -0.00742276 -0.03460390 -0.04493910
v -0.00426861 -0.03517791 -0.04493910
v -0.00415745 -0.03423167 -0.05768484
v 0.00001102 -0.03455868 -0.05668554
v 0.00416560 -0.03430821 -0.05668554
v -0.03430245 -0.00416766 -0.05668554
v 0.01631669 -0.00105411 -0.05987000
v 0.03155940 0.00000693 -0.05986842
v -0.01632244 -0.00105411 -0.05987000
v -0.03156515 -0.00000002 -0.05986842
v -0.03244053 -0.00000002 -0.05986684
v -0.03318391 -0.00000002 -0.05971663
v -0.03382307 -0.00000002 -0.05926758
v -0.03428161 -0.00000002 -0.05857187
v -0.03403150 -0.00413287 -0.05857187
v -0.03422603 -0.00416070 -0.05768484
v 0.03145519 -0.01651749 -0.04371686
v 0.02923895 -0.02018069 -0.04371686
v 0.02837747 -0.01958929 -0.05768325
v 0.02821073 -0.01947449 -0.05857187
v 0.02938485 -0.01542514 -0.05971663
v 0.03102445 -0.01176889 -0.05971663
v 0.02783557 -0.01921010 -0.05926758
v 0.03032970 -0.01151146 -0.05986684
v 0.03149687 -0.00777172 -0.05986684
v 0.03220551 -0.00391718 -0.05986684
v 0.03244172 -0.00000350 -0.05986684
v 0.03244172 0.00000693 -0.05986684
v 0.00850081 -0.03449954 -0.04371686
v -0.03362855 -0.00829354 -0.05565146
v -0.03223906 -0.01223158 -0.05768484
v -0.03066893 -0.01610351 -0.05565146
v -0.02843880 -0.01963104 -0.05668554
v -0.02581266 -0.02286634 -0.05768484
v -0.02285999 -0.02580943 -0.05768484
v -0.01962943 -0.02843942 -0.05668554
v -0.01605844 -0.03059977 -0.05668554
v -0.01227902 -0.03238789 -0.05565146
v -0.00828424 -0.03362983 -0.05565146
v -0.00412966 -0.03402990 -0.05857187
v 0.00000407 -0.03428037 -0.05857187
v 0.00000407 -0.03448214 -0.05768484
v -0.00824950 -0.03348024 -0.05768484
v -0.00820087 -0.03328543 -0.05857187
v 0.00001102 -0.03448214 -0.05768484
v 0.00415865 -0.03422819 -0.05768325
v 0.00825070 -0.03347677 -0.05768325
v 0.00828543 -0.03362983 -0.05564988
v 0.01628890 -0.00132893 -0.05987000
v 0.03155940 -0.00000350 -0.05986842
v 0.03130929 -0.00380934 -0.05986842
v -0.01613486 -0.00261610 -0.05987000
v -0.03131504 -0.00380586 -0.05986842
v -0.03220432 -0.00391718 -0.05986684
v -0.03294075 -0.00400415 -0.05971663
v -0.03357297 -0.00407721 -0.05926758
v -0.03283654 -0.00809873 -0.05926758
v -0.03328117 -0.00820657 -0.05857187
v -0.03347570 -0.00825528 -0.05768484
v 0.02659197 -0.02355863 -0.04371686
v 0.02580691 -0.02286287 -0.05768325
v 0.02565406 -0.02273415 -0.05857187
v 0.02531364 -0.02242801 -0.05926758
v 0.02730756 -0.01885178 -0.05971663
v 0.02669618 -0.01842736 -0.05986684
v 0.02872484 -0.01508073 -0.05986684
v 0.02794672 -0.01467371 -0.05986842
v 0.02949601 -0.01118793 -0.05986842
v 0.03064234 -0.00755603 -0.05986842
v 0.01228022 -0.03238789 -0.05564988
v 0.01259980 -0.03321933 -0.04371686
v -0.03205147 -0.01215852 -0.05857187
v -0.03052998 -0.01603045 -0.05768484
v -0.02837627 -0.01958581 -0.05768484
v -0.02565982 -0.02273415 -0.05857187
v -0.02272799 -0.02565984 -0.05857187
v -0.01946964 -0.02821330 -0.05857187
v -0.01958080 -0.02837680 -0.05768484
v -0.01602370 -0.03053020 -0.05768484
v -0.01223039 -0.03224178 -0.05768484
v -0.00407408 -0.03357765 -0.05926758
v 0.00001102 -0.03382465 -0.05926758
v 0.00001102 -0.03428037 -0.05857187
v -0.00808971 -0.03284014 -0.05926758
v -0.01215397 -0.03205392 -0.05857187
v 0.00413086 -0.03403338 -0.05857187
v 0.00820206 -0.03328543 -0.05857187
v 0.01222464 -0.03223830 -0.05768325
v 0.01621248 -0.00196904 -0.05987000
v 0.01609437 -0.00288745 -0.05987000
v -0.01610012 -0.00288745 -0.05987000
v -0.03064809 -0.00755951 -0.05986842
v -0.03149568 -0.00776824 -0.05986684
v -0.03221821 -0.00794914 -0.05971663
v -0.03162073 -0.01199849 -0.05926758
v 0.02355593 -0.02659565 -0.04371686
v 0.02291677 -0.02586509 -0.05668554
v 0.02286119 -0.02581291 -0.05768325
v 0.02272919 -0.02565984 -0.05857187
v 0.02242350 -0.02531892 -0.05926758
v 0.02483427 -0.02200360 -0.05971663
v 0.02427847 -0.02150960 -0.05986684
v 0.02362541 -0.02092864 -0.05986842
v 0.02595975 -0.01791946 -0.05986842
v 0.01396150 -0.00851619 -0.05987000
v 0.01494109 -0.00665502 -0.05987000
v 0.01503836 -0.00640106 -0.05987000
v 0.01559415 -0.00492952 -0.05987000
v 0.01602490 -0.03053368 -0.05768325
v 0.01609437 -0.03066935 -0.05564988
v 0.01651122 -0.03145556 -0.04371686
v -0.02994640 -0.01572432 -0.05926758
v -0.03034935 -0.01593652 -0.05857187
v -0.02820953 -0.01947101 -0.05857187
v -0.02531245 -0.02242801 -0.05926758
v -0.02242925 -0.02531544 -0.05926758
v -0.02783437 -0.01921010 -0.05926758
v -0.01921258 -0.02783759 -0.05926758
v -0.01593339 -0.03035278 -0.05857187
v -0.00793687 -0.03222091 -0.05971663
v -0.00399766 -0.03294102 -0.05971663
v 0.00000407 -0.03318454 -0.05971663
v 0.00001102 -0.03318454 -0.05971663
v 0.00399886 -0.03294451 -0.05971663
v 0.00407528 -0.03357417 -0.05926758
v -0.01199418 -0.03162255 -0.05926758
v -0.01176491 -0.03103115 -0.05971663
v 0.00809091 -0.03284014 -0.05926758
v 0.01199537 -0.03162255 -0.05926758
v 0.01215517 -0.03205045 -0.05857187
v -0.01559296 -0.00492952 -0.05987000
v -0.02949481 -0.01119141 -0.05986842
v -0.03032851 -0.01150798 -0.05986684
v -0.03102325 -0.01177237 -0.05971663
v -0.02938365 -0.01542514 -0.05971663
v 0.02017947 -0.02924303 -0.04371686
v 0.01962368 -0.02844290 -0.05668554
v 0.01958199 -0.02838028 -0.05768325
v 0.01947083 -0.02821330 -0.05857187
v 0.02199971 -0.02483536 -0.05971663
v 0.01920683 -0.02783759 -0.05926758
v 0.01884556 -0.02730880 -0.05971663
v 0.02150644 -0.02428571 -0.05986684
v 0.02091590 -0.02360734 -0.05986842
v 0.01151600 -0.01161582 -0.05987000
v 0.01291244 -0.01003991 -0.05987000
v 0.01307223 -0.00981379 -0.05987000
v 0.01380866 -0.00874579 -0.05987000
v 0.01712954 -0.03109029 -0.04371686
v 0.01592763 -0.03035626 -0.05857187
v -0.02484002 -0.02200360 -0.05971663
v -0.02200546 -0.02483884 -0.05971663
v -0.02730636 -0.01885178 -0.05971663
v -0.01885132 -0.02730880 -0.05971663
v -0.01541927 -0.02938218 -0.05971663
v -0.01571801 -0.02994576 -0.05926758
v -0.00776318 -0.03149731 -0.05986684
v -0.00390734 -0.03220699 -0.05986684
v 0.00000407 -0.03244007 -0.05986684
v 0.00776438 -0.03150079 -0.05986684
v 0.00793806 -0.03222091 -0.05971663
v 0.00390854 -0.03220351 -0.05986684
v -0.01507885 -0.02872469 -0.05986684
v -0.01150091 -0.03033538 -0.05986684
v 0.01176611 -0.03102767 -0.05971663
v 0.01571921 -0.02994923 -0.05926758
v -0.01550264 -0.00519043 -0.05987000
v -0.01493990 -0.00665850 -0.05987000
v -0.02794553 -0.01467371 -0.05986842
v -0.02872364 -0.01508073 -0.05986684
v -0.02669499 -0.01842736 -0.05986684
v 0.01842872 -0.02670001 -0.05986684
v 0.01542047 -0.02938218 -0.05971663
v 0.01792850 -0.02597642 -0.05986842
v 0.01014040 -0.01284037 -0.05987000
v 0.01131452 -0.01179672 -0.05987000
v -0.02427728 -0.02151308 -0.05986684
v -0.02151219 -0.02428571 -0.05986684
v -0.01842752 -0.02670001 -0.05986684
v -0.00754781 -0.03062761 -0.05986842
v -0.00380313 -0.03133381 -0.05986842
v -0.01119522 -0.02951438 -0.05986842
v 0.00001102 -0.03154602 -0.05986842
v 0.00380433 -0.03133033 -0.05986842
v 0.00754900 -0.03063108 -0.05986842
v 0.01118947 -0.02951090 -0.05986842
v 0.01150210 -0.03033191 -0.05986684
v -0.01466200 -0.02793152 -0.05986842
v -0.01792730 -0.02597294 -0.05986842
v 0.01507309 -0.02872469 -0.05986684
v -0.01396031 -0.00851967 -0.05987000
v -0.02595856 -0.01791946 -0.05986842
v -0.02362422 -0.02092864 -0.05986842
v 0.01465625 -0.02793499 -0.05986842
v 0.00840354 -0.01403361 -0.05987000
v -0.02091471 -0.02361081 -0.05986842
v -0.00480357 -0.01563735 -0.05987000
v -0.00453262 -0.01570692 -0.05987000
v -0.00390734 -0.01586347 -0.05987000
v -0.00301112 -0.01608264 -0.05987000
v -0.00091994 -0.01633311 -0.05987000
v -0.00676970 -0.01488940 -0.05987000
v 0.00001102 -0.01633659 -0.05987000
v 0.00092113 -0.01633311 -0.05987000
v 0.00000407 -0.01633659 -0.05987000
v 0.00300537 -0.01607916 -0.05987000
v 0.00390854 -0.01586347 -0.05987000
v 0.00480476 -0.01563735 -0.05987000
v 0.00677089 -0.01489288 -0.05987000
v -0.00840235 -0.01403361 -0.05987000
v -0.00758949 -0.01446498 -0.05987000
v -0.00701286 -0.01476764 -0.05987000
v -0.01013226 -0.01284037 -0.05987000
v -0.01380746 -0.00874927 -0.05987000
v -0.01307103 -0.00981379 -0.05987000
v -0.01291124 -0.01003991 -0.05987000
v -0.01151481 -0.01161582 -0.05987000
v 0.00759069 -0.01446846 -0.05987000
v 0.00816038 -0.01416580 -0.05987000
v -0.01131333 -0.01180020 -0.05987000
f 1 2 3
f 1 3 8
f 1 8 18
f 1 18 29
f 1 29 50
f 1 50 93
f 1 93 73
f 1 73 33
f 1 33 21
f 1 21 10
f 1 10 4
f 1 4 9
f 1 9 19
f 1 19 30
f 1 30 51
f 1 51 94
f 1 94 136
f 1 136 176
f 1 176 214
f 1 214 201
f 1 201 161
f 1 161 125
f 1 125 83
f 1 83 82
f 1 82 42
f 1 42 23
f 1 23 12
f 1 12 5
f 1 5 2
f 2 5 6
f 2 6 3
f 3 7 8
f 3 6 7
f 4 10 11
f 4 11 9
f 5 12 13
f 5 13 6
f 6 13 14
f 6 14 15
f 6 15 16
f 6 16 17
f 6 17 7
f 7 17 8
f 8 17 18
f 9 11 20
f 9 20 19
f 10 21 11
f 11 22 20
f 11 21 22
f 12 23 13
f 13 23 24
f 13 24 14
f 14 24 15
f 15 24 25
f 15 25 26
f 15 26 27
f 15 27 16
f 16 27 17
f 17 27 28
f 17 28 29
f 17 29 18
f 19 20 30
f 20 31 32
f 20 32 30
f 20 22 31
f 21 33 72
f 21 72 114
f 21 114 154
f 21 154 155
f 21 155 173
f 21 173 172
f 21 172 171
f 21 171 170
f 21 170 213
f 21 213 212
f 21 212 211
f 21 211 210
f 21 210 241
f 21 241 240
f 21 240 260
f 21 260 284
f 21 284 283
f 21 283 274
f 21 274 273
f 21 273 272
f 21 272 271
f 21 271 269
f 21 269 268
f 21 268 270
f 21 270 266
f 21 266 265
f 21 265 264
f 21 264 263
f 21 263 262
f 21 262 267
f 21 267 277
f 21 277 276
f 21 276 275
f 21 275 278
f 21 278 285
f 21 285 282
f 21 282 281
f 21 281 280
f 21 280 279
f 21 279 256
f 21 256 233
f 21 233 232
f 21 232 196
f 21 196 156
f 21 156 117
f 21 117 74
f 21 74 34
f 21 34 35
f 21 35 36
f 21 36 37
f 21 37 38
f 21 38 39
f 21 39 40
f 21 40 22
f 22 40 41
f 22 41 31
f 23 42 24
f 24 42 43
f 24 43 25
f 25 44 26
f 25 43 45
f 25 45 46
f 25 46 44
f 26 44 47
f 26 47 27
f 27 47 48
f 27 48 28
f 28 48 49
f 28 49 50
f 28 50 29
f 30 32 52
f 30 52 53
f 30 53 54
f 30 54 55
f 30 55 56
f 30 56 57
f 30 57 58
f 30 58 59
f 30 59 60
f 30 60 61
f 30 61 62
f 30 62 63
f 30 63 64
f 30 64 65
f 30 65 66
f 30 66 67
f 30 67 68
f 30 68 69
f 30 69 70
f 30 70 51
f 31 41 71
f 31 71 32
f 32 71 52
f 33 73 72
f 34 74 35
f 35 75 76
f 35 76 36
f 35 74 75
f 36 76 77
f 36 77 37
f 37 77 78
f 37 78 38
f 38 78 79
f 38 79 39
f 39 79 41
f 39 41 40
f 41 79 80
f 41 80 81
f 41 81 71
f 42 82 43
f 43 83 84
f 43 84 85
f 43 85 45
f 43 82 83
f 44 46 86
f 44 86 87
f 44 87 47
f 45 85 46
f 46 85 88
f 46 88 86
f 47 87 89
f 47 89 90
f 47 90 91
f 47 91 48
f 48 91 49
f 49 91 92
f 49 92 93
f 49 93 50
f 51 70 94
f 52 71 95
f 52 95 53
f 53 95 54
f 54 95 96
f 54 96 55
f 55 96 56
f 56 96 97
f 56 97 57
f 57 97 58
f 58 97 98
f 58 98 99
f 58 99 59
f 59 99 60
f 60 99 100
f 60 100 101
f 60 101 61
f 61 101 102
f 61 102 62
f 62 102 63
f 63 102 64
f 64 103 65
f 64 102 103
f 65 103 104
f 65 104 66
f 66 68 67
f 66 104 68
f 68 105 106
f 68 106 107
f 68 107 69
f 68 104 108
f 68 108 109
f 68 109 105
f 69 110 70
f 69 107 110
f 70 111 112
f 70 112 113
f 70 113 94
f 70 110 111
f 71 81 95
f 72 73 115
f 72 115 116
f 72 116 114
f 73 93 92
f 73 92 115
f 74 117 118
f 74 118 75
f 75 119 76
f 75 118 119
f 76 119 77
f 77 119 120
f 77 120 78
f 78 80 79
f 78 120 121
f 78 121 80
f 80 121 122
f 80 122 123
f 80 123 124
f 80 124 81
f 81 124 95
f 83 125 84
f 84 125 126
f 84 126 127
f 84 127 85
f 85 127 128
f 85 128 88
f 86 89 87
f 86 88 129
f 86 129 130
f 86 130 131
f 86 131 89
f 88 128 129
f 89 131 132
f 89 132 133
f 89 133 134
f 89 134 90
f 90 134 91
f 91 134 116
f 91 116 115
f 91 115 92
f 94 135 136
f 94 113 135
f 95 124 96
f 96 124 123
f 96 123 137
f 96 137 138
f 96 138 97
f 97 138 139
f 97 139 98
f 98 139 99
f 99 140 141
f 99 141 100
f 99 139 140
f 100 141 142
f 100 142 143
f 100 143 101
f 101 143 144
f 101 144 102
f 102 144 145
f 102 145 103
f 103 145 108
f 103 108 104
f 105 109 146
f 105 146 106
f 106 147 148
f 106 148 110
f 106 110 107
f 106 146 147
f 108 145 109
f 109 149 146
f 109 145 150
f 109 150 149
f 110 148 151
f 110 151 111
f 111 151 112
f 112 151 152
f 112 152 153
f 112 153 135
f 112 135 113
f 114 116 154
f 116 134 155
f 116 155 154
f 117 156 118
f 118 156 157
f 118 157 119
f 119 157 158
f 119 158 159
f 119 159 120
f 120 159 122
f 120 122 121
f 122 159 160
f 122 160 137
f 122 137 123
f 125 161 162
f 125 162 126
f 126 162 163
f 126 163 127
f 127 163 164
f 127 164 128
f 128 164 165
f 128 165 166
f 128 166 129
f 129 166 167
f 129 167 130
f 130 132 131
f 130 167 168
f 130 168 169
f 130 169 132
f 132 169 170
f 132 170 171
f 132 171 133
f 133 171 172
f 133 172 173
f 133 173 134
f 134 173 155
f 135 153 174
f 135 174 175
f 135 175 136
f 136 175 176
f 137 160 177
f 137 177 178
f 137 178 138
f 138 178 179
f 138 179 139
f 139 179 140
f 140 180 181
f 140 181 141
f 140 179 182
f 140 182 180
f 141 181 183
f 141 183 142
f 142 183 184
f 142 184 144
f 142 144 143
f 144 184 145
f 145 184 150
f 146 149 185
f 146 185 186
f 146 186 187
f 146 187 147
f 147 187 188
f 147 188 189
f 147 189 190
f 147 190 151
f 147 151 148
f 149 150 191
f 149 191 192
f 149 192 185
f 150 184 191
f 151 190 193
f 151 193 152
f 152 193 194
f 152 194 195
f 152 195 153
f 153 195 174
f 156 196 157
f 157 197 198
f 157 198 158
f 157 196 197
f 158 198 159
f 159 198 199
f 159 199 160
f 160 199 200
f 160 200 177
f 161 201 162
f 162 201 202
f 162 202 203
f 162 203 163
f 163 203 204
f 163 204 164
f 164 204 165
f 165 205 166
f 165 204 206
f 165 206 207
f 165 207 205
f 166 205 208
f 166 208 167
f 167 208 168
f 168 208 209
f 168 209 210
f 168 210 211
f 168 211 169
f 169 211 212
f 169 212 213
f 169 213 170
f 174 214 175
f 174 195 215
f 174 215 204
f 174 204 203
f 174 203 202
f 174 202 214
f 175 214 176
f 177 200 182
f 177 182 179
f 177 179 178
f 180 216 181
f 180 182 216
f 181 217 183
f 181 216 217
f 182 200 218
f 182 218 216
f 183 217 219
f 183 219 220
f 183 220 221
f 183 221 184
f 184 221 191
f 185 222 223
f 185 223 186
f 185 192 222
f 186 223 187
f 187 224 188
f 187 223 224
f 188 224 189
f 189 225 226
f 189 226 193
f 189 193 190
f 189 224 227
f 189 227 225
f 191 221 192
f 192 221 220
f 192 220 228
f 192 228 229
f 192 229 222
f 193 226 230
f 193 230 194
f 194 230 231
f 194 231 215
f 194 215 195
f 196 232 197
f 197 232 233
f 197 233 234
f 197 234 198
f 198 234 235
f 198 235 200
f 198 200 199
f 200 235 236
f 200 236 218
f 201 214 202
f 204 215 231
f 204 231 206
f 205 207 237
f 205 237 208
f 206 231 207
f 207 231 238
f 207 238 237
f 208 237 239
f 208 239 209
f 209 239 240
f 209 240 241
f 209 241 210
f 216 242 243
f 216 243 217
f 216 218 236
f 216 236 242
f 217 243 219
f 219 243 244
f 219 244 228
f 219 228 220
f 222 245 246
f 222 246 223
f 222 229 247
f 222 247 245
f 223 246 224
f 224 246 248
f 224 248 249
f 224 249 227
f 225 227 249
f 225 249 250
f 225 250 251
f 225 251 252
f 225 252 230
f 225 230 226
f 228 253 247
f 228 247 229
f 228 244 254
f 228 254 253
f 230 252 255
f 230 255 238
f 230 238 231
f 233 256 234
f 234 236 235
f 234 256 257
f 234 257 236
f 236 257 258
f 236 258 242
f 237 238 255
f 237 255 239
f 239 255 259
f 239 259 260
f 239 260 240
f 242 258 243
f 243 258 261
f 243 261 254
f 243 254 244
f 245 262 263
f 245 263 264
f 245 264 265
f 245 265 246
f 245 247 262
f 246 265 266
f 246 266 248
f 247 253 267
f 247 267 262
f 248 268 269
f 248 269 249
f 248 266 270
f 248 270 268
f 249 269 271
f 249 271 250
f 250 271 272
f 250 272 273
f 250 273 251
f 251 259 255
f 251 255 252
f 251 273 274
f 251 274 259
f 253 254 275
f 253 275 276
f 253 276 277
f 253 277 267
f 254 278 275
f 254 261 278
f 256 279 257
f 257 279 280
f 257 280 281
f 257 281 258
f 258 281 282
f 258 282 261
f 259 274 283
f 259 283 284
f 259 284 260
f 261 282 285
f 261 285 278

