# https://github.com/mikedh/trimesh
v 0.03409272 -0.02632822 0.05791306
v 0.03229768 -0.02861778 0.05791306
v 0.03309844 -0.02632822 0.04745916
v 0.02768662 -0.02331182 -0.03427599
v 0.03045259 -0.02320921 -0.00603727
v 0.03401932 -0.02632822 0.05866339
v 0.03225431 -0.02858143 0.05866339
v 0.02861084 -0.03230116 0.05791306
v 0.02850407 -0.03218144 0.05575333
v 0.02782008 -0.02632822 -0.00603727
v 0.02970855 -0.02632822 0.01182867
v 0.02857413 -0.03225840 0.05866339
v 0.02711942 -0.02403439 -0.03427599
v 0.02195783 -0.02785459 -0.04371594
v 0.02776670 -0.02320921 -0.03427599
v 0.02195783 -0.02131301 -0.04371594
v 0.03308843 -0.02632822 0.05968749
v 0.03364563 -0.02632822 0.05927176
v 0.03203410 -0.02838689 0.05927176
v 0.02451026 -0.03551423 0.05791306
v 0.02447022 -0.03545651 0.05697008
v 0.02379625 -0.03447955 0.04111178
v 0.02195783 -0.02838689 -0.03812903
v 0.02195783 -0.02809188 -0.04123175
v 0.02572809 -0.02904747 -0.00008533
v 0.02402647 -0.02712775 -0.03427599
v 0.02447690 -0.03546506 0.05866339
v 0.02837728 -0.03204035 0.05927176
v 0.02018281 -0.02924628 -0.04371594
v 0.00001026 -0.03065293 -0.04371594
v 0.03045593 -0.02632822 0.05800432
v 0.03047928 -0.02632822 0.05809557
v 0.03067947 -0.02632822 0.05886618
v 0.03074620 -0.02632822 0.05894730
v 0.03116660 -0.02632822 0.05945428
v 0.03179720 -0.02632822 0.05978888
v 0.03245450 -0.02632822 0.05987000
v 0.03133009 -0.02776267 0.05987000
v 0.03170378 -0.02809402 0.05968749
v 0.02808700 -0.03171113 0.05968749
v 0.02004935 -0.03820782 0.05791306
v 0.01997594 -0.03806459 0.05575333
v 0.02002599 -0.03815865 0.05866339
v 0.01782390 -0.03396435 -0.00603727
v 0.02543114 -0.02871397 -0.00603727
v 0.02431007 -0.03522349 0.05927176
v 0.01684296 -0.03208738 -0.03427599
v 0.01650931 -0.03146315 -0.04371594
v 0.00001026 -0.03552919 -0.04371594
v 0.00000693 -0.03154866 -0.03427599
v 0.00000693 -0.04028146 0.05800432
v 0.00000693 -0.04045889 0.05886618
v 0.00000693 -0.04084370 0.05945428
v 0.00000693 -0.04133966 0.05978888
v 0.00000693 -0.04185914 0.05987000
v 0.02775335 -0.03133702 0.05987000
v 0.02405983 -0.03486007 0.05968749
v 0.02377623 -0.03445176 0.05987000
v 0.01530817 -0.04034773 0.05791306
v 0.01528481 -0.04029429 0.05866339
v 0.01988586 -0.03789785 0.05927176
v 0.01518138 -0.04002065 0.05927176
v 0.01360655 -0.03586482 -0.00603727
v 0.01968233 -0.03750663 0.05968749
v 0.01266899 -0.03339570 -0.04123175
v 0.01259892 -0.03322254 -0.04371594
v 0.01285583 -0.03388311 -0.03427599
v 0.00428433 -0.03527266 -0.04371594
v 0.00001026 -0.03571732 -0.04123175
v 0.00000693 -0.03623680 -0.03427599
v 0.00000693 -0.04235724 0.05968749
v 0.00511179 -0.04205154 0.05968749
v 0.00505173 -0.04155557 0.05987000
v 0.01944878 -0.03706411 0.05987000
v 0.01033009 -0.04189762 0.05791306
v 0.00977957 -0.03705770 -0.00603727
v 0.01031675 -0.04184204 0.05866339
v 0.01024668 -0.04155557 0.05927176
v 0.01502456 -0.03960592 0.05968749
v 0.01014325 -0.04112802 0.05968749
v 0.00919234 -0.03428501 -0.04371594
v 0.01484773 -0.03913989 0.05987000
v 0.00850836 -0.03449665 -0.04371594
v 0.00855173 -0.03467836 -0.04123175
v 0.00928910 -0.03767552 -0.00008533
v 0.00462799 -0.03807742 -0.00603727
v 0.00520521 -0.04283824 0.05791306
v 0.00000693 -0.04315249 0.05791306
v 0.00000693 -0.03880212 -0.00008533
v 0.00000693 -0.04279976 0.05927176
v 0.00516184 -0.04248978 0.05927176
v 0.01002313 -0.04064275 0.05987000
v 0.00519854 -0.04278052 0.05866339
v 0.00000693 -0.04309477 0.05866339
f 1 2 3
f 1 3 4
f 1 4 5
f 1 5 6
f 1 6 7
f 1 7 2
f 2 8 9
f 2 9 10
f 2 10 11
f 2 11 3
f 2 7 12
f 2 12 8
f 3 11 4
f 4 13 14
f 4 14 15
f 4 15 5
f 4 11 13
f 5 15 16
f 5 16 17
f 5 17 18
f 5 18 6
f 6 18 19
f 6 19 7
f 7 19 12
f 8 20 9
f 8 12 20
f 9 20 21
f 9 21 22
f 9 22 23
f 9 23 24
f 9 24 25
f 9 25 10
f 10 25 26
f 10 26 13
f 10 13 11
f 12 27 20
f 12 19 28
f 12 28 27
f 13 26 14
f 14 29 48
f 14 48 66
f 14 66 81
f 14 81 83
f 14 83 68
f 14 68 49
f 14 49 30
f 14 30 16
f 14 16 15
f 14 26 24
f 14 24 29
f 16 30 31
f 16 31 32
f 16 32 33
f 16 33 34
f 16 34 35
f 16 35 36
f 16 36 37
f 16 37 17
f 17 37 38
f 17 38 39
f 17 39 19
f 17 19 18
f 19 39 40
f 19 40 28
f 20 41 42
f 20 42 21
f 20 27 43
f 20 43 41
f 21 42 22
f 22 44 29
f 22 29 23
f 22 42 44
f 23 29 24
f 24 26 45
f 24 45 25
f 25 45 26
f 27 28 46
f 27 46 43
f 28 40 46
f 29 47 48
f 29 44 47
f 30 49 70
f 30 70 50
f 30 50 51
f 30 51 31
f 31 51 32
f 32 51 33
f 33 52 34
f 33 51 52
f 34 52 35
f 35 53 36
f 35 52 53
f 36 54 37
f 36 53 54
f 37 54 55
f 37 55 73
f 37 73 92
f 37 92 82
f 37 82 74
f 37 74 58
f 37 58 56
f 37 56 38
f 38 56 40
f 38 40 39
f 40 57 46
f 40 56 58
f 40 58 57
f 41 59 42
f 41 43 59
f 42 59 44
f 43 60 59
f 43 46 61
f 43 61 62
f 43 62 60
f 44 59 63
f 44 63 48
f 44 48 47
f 46 57 64
f 46 64 61
f 48 65 66
f 48 63 67
f 48 67 65
f 49 68 69
f 49 69 70
f 50 70 89
f 50 89 88
f 50 88 94
f 50 94 90
f 50 90 71
f 50 71 55
f 50 55 54
f 50 54 53
f 50 53 52
f 50 52 51
f 55 71 72
f 55 72 73
f 57 58 64
f 58 74 64
f 59 75 76
f 59 76 63
f 59 60 77
f 59 77 75
f 60 62 77
f 61 64 62
f 62 78 77
f 62 64 79
f 62 79 80
f 62 80 78
f 63 76 81
f 63 81 65
f 63 65 67
f 64 74 82
f 64 82 79
f 65 81 66
f 68 83 84
f 68 84 85
f 68 85 86
f 68 86 87
f 68 87 88
f 68 88 69
f 69 89 70
f 69 88 89
f 71 90 72
f 72 80 73
f 72 90 91
f 72 91 80
f 73 80 92
f 75 77 87
f 75 87 85
f 75 85 76
f 76 85 84
f 76 84 81
f 77 93 87
f 77 78 91
f 77 91 93
f 78 80 91
f 79 82 80
f 80 82 92
f 81 84 83
f 85 87 86
f 87 93 94
f 87 94 88
f 90 94 91
f 91 94 93

