# https://github.com/mikedh/trimesh
v 0.02196144 -0.02874929 -0.03428067
v 0.02196144 -0.02785136 -0.04371594
v 0.02356325 -0.02659595 -0.04371594
v 0.02403289 -0.02712514 -0.03428067
v 0.02196144 -0.02257357 -0.03428067
v 0.02196144 -0.02130971 -0.04371594
v 0.02659774 -0.02356157 -0.04371594
v 0.02712749 -0.02403165 -0.03428067
v 0.02196144 -0.02182764 -0.03984300
v 0.03154993 0.00000412 -0.03428067
v 0.03065398 0.00000412 -0.04371594
v 0.02196144 -0.02172631 -0.04060041
v 0.02769217 -0.02331105 -0.03428067
v 0.02880058 -0.02074956 -0.04371594
v 0.03623934 0.00000412 -0.03428067
v 0.03553209 0.00000412 -0.04371594
v 0.02982512 -0.02058630 -0.03428067
v 0.02924226 -0.02018378 -0.04371594
v 0.03624074 -0.00000151 -0.03428067
v 0.03571798 0.00000412 -0.04123866
v 0.03553209 -0.00000151 -0.04371594
v 0.03146327 -0.01651326 -0.04371594
v 0.03161562 -0.01762511 -0.03428067
v 0.03597517 -0.00437011 -0.03428067
v 0.03527350 -0.00428285 -0.04371594
v 0.03246545 -0.01600659 -0.03428067
v 0.03208946 -0.01683978 -0.03428067
v 0.03292810 -0.01325651 -0.04371594
v 0.03339634 -0.01266821 -0.04123866
v 0.03535317 -0.00777323 -0.03428067
v 0.03450056 -0.00850509 -0.04371594
v 0.03388415 -0.01285117 -0.03428067
v 0.03322302 -0.01260065 -0.04371594
v 0.03491568 -0.00954939 -0.03428067
v 0.03518824 -0.00867398 -0.03428067
f 1 2 3
f 1 3 4
f 1 4 8
f 1 8 13
f 1 13 17
f 1 17 23
f 1 23 27
f 1 27 26
f 1 26 32
f 1 32 34
f 1 34 35
f 1 35 30
f 1 30 24
f 1 24 19
f 1 19 15
f 1 15 10
f 1 10 5
f 1 5 9
f 1 9 12
f 1 12 6
f 1 6 2
f 2 6 11
f 2 11 16
f 2 16 21
f 2 21 25
f 2 25 31
f 2 31 33
f 2 33 28
f 2 28 22
f 2 22 18
f 2 18 14
f 2 14 7
f 2 7 3
f 3 7 8
f 3 8 4
f 5 10 11
f 5 11 9
f 6 12 11
f 7 13 8
f 7 14 13
f 9 11 12
f 10 15 20
f 10 20 16
f 10 16 11
f 13 14 17
f 14 18 17
f 15 19 20
f 16 20 19
f 16 19 21
f 17 18 22
f 17 22 23
f 19 24 25
f 19 25 21
f 22 26 27
f 22 27 23
f 22 28 29
f 22 29 26
f 24 30 25
f 25 30 31
f 26 29 32
f 28 33 29
f 29 33 34
f 29 34 32
f 30 35 31
f 31 35 34
f 31 34 33

