# https://github.com/mikedh/trimesh
v -0.02301181 -0.03036311 -0.00865174
v -0.02301181 -0.02894509 -0.02356243
v -0.02178211 -0.02800569 -0.04356649
v -0.02178211 -0.02853782 -0.03795811
v -0.02301181 -0.02495561 -0.00865174
v -0.02530766 -0.02856457 -0.00865174
v -0.02265909 -0.02718817 -0.04493751
v -0.02178211 -0.02787191 -0.04493751
v -0.02178211 -0.02225928 -0.03795811
v -0.03119801 0.00000395 -0.03795811
v -0.03397965 0.00000395 -0.00865174
v -0.03053747 0.00000395 -0.04493751
v -0.02856547 -0.02530640 -0.00865174
v -0.02665760 -0.02411133 -0.03795811
v -0.02368838 -0.02673333 -0.04123648
v -0.02350240 -0.02652524 -0.04493751
v -0.02178211 -0.02132285 -0.04493751
v -0.02178211 -0.02218794 -0.03848734
v -0.03816093 0.00000395 -0.00865174
v -0.03544021 0.00000395 -0.04493751
v -0.03085171 -0.02238414 -0.00865174
v -0.02959957 -0.02042804 -0.03795811
v -0.02850775 -0.02097504 -0.04493751
v -0.02720752 -0.02348110 -0.03795811
v -0.02652934 -0.02349894 -0.04493751
v -0.03596447 -0.00000199 -0.03795811
v -0.03816093 -0.00000199 -0.00865174
v -0.03544021 -0.00000199 -0.04493751
v -0.03140483 -0.02167364 -0.00865174
v -0.02972462 -0.01921217 -0.04493751
v -0.02916669 -0.02013076 -0.04493751
v -0.03186817 -0.02090964 -0.00865174
v -0.03160523 -0.01711041 -0.03795811
v -0.03793647 -0.00370609 -0.00865174
v -0.03524622 -0.00320369 -0.04493751
v -0.03138078 -0.01646828 -0.04493751
v -0.03162768 -0.01659909 -0.04123648
v -0.03378886 -0.01773172 -0.00865174
v -0.03788196 -0.00460090 -0.00865174
v -0.03518049 -0.00427687 -0.04493751
v -0.03313634 -0.01257096 -0.04493751
v -0.03531195 -0.01435463 -0.00865174
v -0.03362533 -0.01275824 -0.03795811
v -0.03705148 -0.00913441 -0.00865174
v -0.03498810 -0.00533221 -0.04493751
v -0.03468027 -0.00855174 -0.04123648
v -0.03339607 -0.01266906 -0.04123648
v -0.03441093 -0.00848337 -0.04493751
v -0.03568070 -0.01353414 -0.00865174
f 1 2 3
f 1 3 4
f 1 4 9
f 1 9 5
f 1 5 11
f 1 11 19
f 1 19 27
f 1 27 34
f 1 34 39
f 1 39 44
f 1 44 49
f 1 49 42
f 1 42 38
f 1 38 32
f 1 32 29
f 1 29 21
f 1 21 13
f 1 13 6
f 1 6 2
f 2 6 7
f 2 7 3
f 3 7 8
f 3 8 17
f 3 17 18
f 3 18 9
f 3 9 4
f 5 10 11
f 5 9 12
f 5 12 10
f 6 13 14
f 6 14 15
f 6 15 7
f 7 15 16
f 7 16 25
f 7 25 23
f 7 23 31
f 7 31 30
f 7 30 36
f 7 36 41
f 7 41 48
f 7 48 45
f 7 45 40
f 7 40 35
f 7 35 28
f 7 28 20
f 7 20 12
f 7 12 17
f 7 17 8
f 9 18 12
f 10 12 20
f 10 20 19
f 10 19 11
f 12 18 17
f 13 21 22
f 13 22 23
f 13 23 24
f 13 24 25
f 13 25 14
f 14 25 15
f 15 25 16
f 19 20 26
f 19 26 27
f 20 28 26
f 21 29 22
f 22 30 31
f 22 31 23
f 22 29 32
f 22 32 33
f 22 33 30
f 23 25 24
f 26 34 27
f 26 28 35
f 26 35 34
f 30 33 37
f 30 37 36
f 32 38 33
f 33 38 37
f 34 35 39
f 35 40 39
f 36 37 41
f 37 38 42
f 37 42 43
f 37 43 41
f 39 40 45
f 39 45 46
f 39 46 44
f 41 43 47
f 41 47 46
f 41 46 48
f 42 49 43
f 43 49 46
f 43 46 47
f 44 46 49
f 45 48 46

