# https://github.com/mikedh/trimesh
v -0.03835352 0.00000693 -0.00609477
v -0.03807349 0.00462507 -0.00609477
v -0.03422389 0.00000693 -0.00609477
v -0.04315358 0.00000693 0.05791998
v -0.04158705 0.00505218 0.04111886
v -0.04183084 0.01031099 0.05697080
v -0.03723998 0.00917981 -0.00609477
v -0.02632702 0.02178960 -0.00609477
v -0.02632702 0.03045529 0.05801684
v -0.04028573 0.00000693 0.05801684
v -0.04309592 0.00000693 0.05866900
v -0.04278130 0.00519566 0.05866900
v -0.04283731 0.00520234 0.05791998
v -0.04276647 0.00519566 0.05697080
v -0.04019678 0.01524613 0.05575689
v -0.03917055 0.01485906 0.04111886
v -0.04189838 0.01032767 0.05791998
v -0.04034833 0.01530285 0.05791998
v -0.03586125 0.01360108 -0.00609477
v -0.02632702 0.02781254 -0.00609477
v -0.02632702 0.03065216 0.05875939
v -0.02632702 0.03068219 0.05886916
v -0.04046199 0.00000693 0.05886916
v -0.04280271 0.00000693 0.05927595
v -0.04248974 0.00516229 0.05927595
v -0.04184402 0.01031432 0.05866900
v -0.03814762 0.02002110 0.05697080
v -0.03436061 0.01803236 -0.00008975
v -0.04029397 0.01528283 0.05866900
v -0.03816079 0.02002777 0.05866900
v -0.03821021 0.02005446 0.05791998
v -0.03396198 0.01782214 -0.00609477
v -0.02870893 0.02543340 -0.00609477
v -0.02632702 0.02844987 -0.00008975
v -0.02632702 0.03107927 0.05935344
v -0.02632702 0.03116937 0.05945675
v -0.04084580 0.00000693 0.05946321
v -0.04236125 0.00000693 0.05969566
v -0.04205157 0.00510890 0.05969566
v -0.04113077 0.01014081 0.05969566
v -0.04155905 0.01024425 0.05927595
v -0.04002053 0.01517939 0.05927595
v -0.03447921 0.02379502 0.04111886
v -0.03551368 0.02451244 0.05791998
v -0.03156525 0.02178627 -0.00609477
v -0.03546591 0.02447907 0.05866900
v -0.03790053 0.01989096 0.05927595
v -0.03522541 0.02431223 0.05927595
v -0.03230156 0.02861671 0.05791998
v -0.02861669 0.03230055 0.05791998
v -0.02632702 0.02971452 0.01186217
v -0.02632702 0.03180002 0.05979252
v -0.04134326 0.00000693 0.05979252
v -0.04186214 0.00000693 0.05986354
v -0.04155575 0.00504884 0.05986354
v -0.04064483 0.01002068 0.05986354
v -0.03914090 0.01484571 0.05986354
v -0.03960707 0.01502256 0.05969566
v -0.03226038 0.02857667 0.05866900
v -0.03750848 0.01968408 0.05969566
v -0.03486137 0.02406197 0.05969566
v -0.03203965 0.02838314 0.05927595
v -0.03171020 0.02808950 0.05969566
v -0.02857880 0.03225717 0.05866900
v -0.02632702 0.03405571 0.05833323
v -0.02632702 0.03409575 0.05791998
v -0.02632702 0.03400565 0.05697080
v -0.02632702 0.03324486 0.04897057
v -0.02632702 0.03223715 0.05984417
v -0.02632702 0.03245738 0.05986354
v -0.03706702 0.01945384 0.05986354
v -0.03445121 0.02377834 0.05986354
v -0.02838443 0.03203694 0.05927595
v -0.03133628 0.02775915 0.05986354
v -0.02809122 0.03170660 0.05969566
v -0.02632702 0.03402234 0.05866900
v -0.02632702 0.03283110 0.05976669
v -0.02776012 0.03133287 0.05986354
v -0.02632702 0.03364862 0.05927595
v -0.02632702 0.03309137 0.05969566
f 1 2 7
f 1 7 19
f 1 19 32
f 1 32 45
f 1 45 33
f 1 33 20
f 1 20 8
f 1 8 3
f 1 3 10
f 1 10 23
f 1 23 37
f 1 37 53
f 1 53 54
f 1 54 38
f 1 38 24
f 1 24 11
f 1 11 4
f 1 4 2
f 2 5 6
f 2 6 7
f 2 4 5
f 3 8 9
f 3 9 10
f 4 11 12
f 4 12 13
f 4 13 5
f 5 14 6
f 5 13 14
f 6 15 16
f 6 16 7
f 6 14 13
f 6 13 17
f 6 17 18
f 6 18 15
f 7 16 19
f 8 20 34
f 8 34 51
f 8 51 68
f 8 68 67
f 8 67 66
f 8 66 65
f 8 65 76
f 8 76 79
f 8 79 80
f 8 80 77
f 8 77 70
f 8 70 69
f 8 69 52
f 8 52 36
f 8 36 35
f 8 35 22
f 8 22 21
f 8 21 9
f 9 21 10
f 10 21 22
f 10 22 23
f 11 24 12
f 12 24 25
f 12 25 26
f 12 26 13
f 13 26 17
f 15 27 16
f 15 18 27
f 16 27 28
f 16 28 19
f 17 26 18
f 18 26 29
f 18 29 30
f 18 30 31
f 18 31 27
f 19 28 32
f 20 33 34
f 22 35 23
f 23 35 36
f 23 36 37
f 24 38 39
f 24 39 25
f 25 39 40
f 25 40 41
f 25 41 26
f 26 41 42
f 26 42 29
f 27 43 28
f 27 31 44
f 27 44 43
f 28 45 32
f 28 43 45
f 29 42 30
f 30 46 44
f 30 44 31
f 30 42 47
f 30 47 48
f 30 48 46
f 33 45 49
f 33 49 50
f 33 50 34
f 34 50 51
f 36 52 37
f 37 52 53
f 38 54 39
f 39 54 55
f 39 55 40
f 40 55 56
f 40 56 57
f 40 57 58
f 40 58 42
f 40 42 41
f 42 58 47
f 43 44 49
f 43 49 45
f 44 46 59
f 44 59 49
f 46 48 59
f 47 58 60
f 47 60 61
f 47 61 48
f 48 62 59
f 48 61 63
f 48 63 62
f 49 59 50
f 50 59 64
f 50 64 65
f 50 65 66
f 50 66 67
f 50 67 68
f 50 68 51
f 52 69 53
f 53 69 70
f 53 70 54
f 54 70 78
f 54 78 74
f 54 74 72
f 54 72 71
f 54 71 57
f 54 57 56
f 54 56 55
f 57 71 58
f 58 71 60
f 59 62 64
f 60 71 61
f 61 71 72
f 61 72 63
f 62 73 64
f 62 63 73
f 63 72 74
f 63 74 75
f 63 75 73
f 64 76 65
f 64 73 76
f 70 77 78
f 73 79 76
f 73 75 80
f 73 80 79
f 74 78 75
f 75 78 77
f 75 77 80

