# https://github.com/mikedh/trimesh
v 0.00000692 0.04185870 0.05986354
v -0.00000202 0.04185870 0.05986354
v -0.02632501 0.03245991 0.05986354
v -0.02632501 0.03223827 0.05984330
v -0.02632501 0.03180335 0.05978259
v 0.00000692 0.04134015 0.05978259
v 0.00000692 0.04235844 0.05969152
v -0.00000202 0.04235844 0.05969152
v -0.00504912 0.04155343 0.05986354
v -0.02377763 0.03445049 0.05986354
v -0.02406365 0.03486031 0.05969152
v -0.02632501 0.03308928 0.05969152
v -0.03043063 0.02323884 -0.00609258
v -0.02632501 0.03117188 0.05944866
v 0.00000692 0.04084250 0.05944866
v 0.00000692 0.04279754 0.05926652
v -0.00000202 0.04279963 0.05926652
v -0.00516234 0.04248808 0.05926652
v -0.00510871 0.04204898 0.05969152
v -0.01002174 0.04064178 0.05986354
v -0.01014091 0.04112687 0.05969152
v -0.01945154 0.03706417 0.05986354
v -0.01968393 0.03750745 0.05969152
v -0.02431392 0.03522414 0.05926652
v -0.02632501 0.03338201 0.05946890
v -0.02632501 0.03364756 0.05926652
v -0.02632501 0.03402184 0.05865937
v -0.02632501 0.03409294 0.05791056
v -0.02870257 0.02543642 -0.00609258
v -0.02715329 0.02406267 -0.03370753
v -0.02660210 0.02357548 -0.04351291
v -0.02878600 0.02198218 -0.03370753
v -0.02632501 0.02179400 -0.00609258
v -0.02632501 0.03046097 0.05801175
v -0.02632501 0.03068679 0.05886175
v -0.02632501 0.03108198 0.05934747
v 0.00000692 0.04045777 0.05886175
v 0.00000692 0.04309236 0.05865937
v -0.00000202 0.04309236 0.05865937
v -0.00519809 0.04278081 0.05865937
v -0.01024519 0.04155552 0.05926652
v -0.01031670 0.04184198 0.05865937
v -0.01502117 0.03960676 0.05969152
v -0.01484538 0.03913839 0.05986354
v -0.01517908 0.04001867 0.05926652
v -0.01988653 0.03789637 0.05926652
v -0.02002358 0.03815773 0.05865937
v -0.02447779 0.03546459 0.05865937
v -0.02451056 0.03551269 0.05791056
v -0.02632501 0.03404484 0.05739449
v -0.02655145 0.02466905 -0.03370753
v -0.02632501 0.03150644 0.03065989
v -0.02632501 0.02971868 0.01185866
v -0.02785046 0.02198218 -0.04351291
v -0.02806796 0.02198218 -0.04123612
v -0.02368527 0.02673908 -0.04123612
v -0.02403385 0.02614525 -0.04351291
v -0.02131366 0.02198218 -0.04351291
v 0.00000394 0.03067215 -0.04351291
v 0.00000692 0.04028004 0.05799151
v 0.00000692 0.04028213 0.05801175
v 0.00000692 0.04314882 0.05791056
v -0.00000202 0.04315091 0.05791056
v -0.00520405 0.04283727 0.05791056
v -0.01033159 0.04189634 0.05791056
v -0.01529825 0.04034695 0.05791056
v -0.01528038 0.04029259 0.05865937
v -0.02005040 0.03820792 0.05791056
v -0.02002060 0.03814519 0.05696948
v -0.02379550 0.03447767 0.04111290
v -0.02178441 0.03156707 -0.00609258
v -0.02019341 0.02925658 -0.04351291
v -0.02305065 0.02701927 -0.04351291
v -0.02356609 0.02660944 -0.04351291
v 0.00000692 0.03078506 -0.04351291
v 0.00000692 0.03160262 -0.03370753
v 0.00000692 0.04298782 0.05575520
v -0.00000499 0.03628216 -0.03370753
v -0.00428937 0.03528895 -0.04351291
v -0.01029286 0.04173952 0.05575520
v -0.00522192 0.03586397 -0.03370753
v -0.01485730 0.03916975 0.04111290
v -0.01377578 0.03351793 -0.03370753
v -0.01782181 0.03395911 -0.00609258
v -0.01651683 0.03147507 -0.04351291
v 0.00000692 0.03554405 -0.04351291
v 0.00000692 0.03628006 -0.03370753
v -0.00000499 0.03571760 -0.04123612
v -0.00000499 0.03554614 -0.04351291
v -0.00786167 0.03463240 -0.04351291
v -0.00918155 0.03723772 -0.00609258
v -0.00914281 0.03431667 -0.04351291
v -0.01287004 0.03392357 -0.03370753
v -0.01260786 0.03323565 -0.04351291
v -0.00850820 0.03451322 -0.04351291
v -0.00855289 0.03467840 -0.04123612
f 1 2 9
f 1 9 20
f 1 20 44
f 1 44 22
f 1 22 10
f 1 10 3
f 1 3 4
f 1 4 5
f 1 5 6
f 1 6 15
f 1 15 37
f 1 37 61
f 1 61 60
f 1 60 76
f 1 76 75
f 1 75 86
f 1 86 87
f 1 87 77
f 1 77 62
f 1 62 38
f 1 38 16
f 1 16 7
f 1 7 8
f 1 8 2
f 2 8 9
f 3 10 11
f 3 11 12
f 3 12 13
f 3 13 4
f 4 13 5
f 5 13 14
f 5 14 6
f 6 14 15
f 7 16 17
f 7 17 8
f 8 17 18
f 8 18 19
f 8 19 9
f 9 19 21
f 9 21 20
f 10 22 23
f 10 23 11
f 11 23 24
f 11 24 12
f 12 24 25
f 12 25 13
f 13 25 26
f 13 26 27
f 13 27 28
f 13 28 29
f 13 29 30
f 13 30 31
f 13 31 32
f 13 32 33
f 13 33 34
f 13 34 35
f 13 35 36
f 13 36 14
f 14 36 15
f 15 36 35
f 15 35 37
f 16 38 17
f 17 38 39
f 17 39 40
f 17 40 18
f 18 41 21
f 18 21 19
f 18 40 42
f 18 42 41
f 20 21 43
f 20 43 44
f 21 41 43
f 22 44 23
f 23 44 43
f 23 43 45
f 23 45 46
f 23 46 24
f 24 26 25
f 24 46 47
f 24 47 48
f 24 48 27
f 24 27 26
f 27 48 49
f 27 49 28
f 28 49 50
f 28 50 29
f 29 51 30
f 29 50 52
f 29 52 53
f 29 53 51
f 30 51 31
f 31 54 55
f 31 55 32
f 31 51 56
f 31 56 57
f 31 57 74
f 31 74 73
f 31 73 72
f 31 72 85
f 31 85 94
f 31 94 92
f 31 92 95
f 31 95 90
f 31 90 79
f 31 79 89
f 31 89 86
f 31 86 75
f 31 75 59
f 31 59 58
f 31 58 54
f 32 55 33
f 33 55 54
f 33 54 58
f 33 58 59
f 33 59 60
f 33 60 61
f 33 61 34
f 34 61 37
f 34 37 35
f 38 62 63
f 38 63 39
f 39 63 40
f 40 63 64
f 40 64 42
f 41 45 43
f 41 42 45
f 42 64 65
f 42 65 66
f 42 66 67
f 42 67 45
f 45 67 47
f 45 47 46
f 47 67 66
f 47 66 68
f 47 68 49
f 47 49 48
f 49 68 69
f 49 69 70
f 49 70 50
f 50 70 52
f 51 53 56
f 52 70 71
f 52 71 72
f 52 72 56
f 52 56 53
f 56 72 73
f 56 73 74
f 56 74 57
f 59 75 76
f 59 76 60
f 62 77 63
f 63 77 78
f 63 78 79
f 63 79 64
f 64 80 65
f 64 79 81
f 64 81 80
f 65 80 82
f 65 82 66
f 66 82 69
f 66 69 68
f 69 82 83
f 69 83 84
f 69 84 72
f 69 72 71
f 69 71 70
f 72 84 85
f 77 87 78
f 78 87 88
f 78 88 79
f 79 88 89
f 79 90 81
f 80 81 91
f 80 91 92
f 80 92 82
f 81 90 91
f 82 92 93
f 82 93 83
f 83 93 94
f 83 94 85
f 83 85 84
f 86 89 88
f 86 88 87
f 90 95 96
f 90 96 91
f 91 96 92
f 92 94 93
f 92 96 95

