# https://github.com/mikedh/trimesh
v 0.00000693 0.03554909 -0.04349901
v 0.00000693 0.03455756 -0.05668746
v 0.00000693 0.03067144 -0.04349901
v 0.00428620 0.03528816 -0.04349901
v 0.00415747 0.03423400 -0.05768581
v 0.00000693 0.03448101 -0.05768742
v 0.00000693 0.00001041 -0.04820711
v 0.03067505 0.00001041 -0.04349901
v 0.00850981 0.03451581 -0.04349901
v 0.00827323 0.03355558 -0.05668586
v 0.00825583 0.03348253 -0.05768581
v 0.00413312 0.03403221 -0.05857199
v 0.00000693 0.03428271 -0.05857359
v 0.00000693 0.00001041 -0.05747749
v 0.03554924 0.00001041 -0.04349901
v 0.00913604 0.03432098 -0.04349901
v 0.01223243 0.03224397 -0.05768581
v 0.01215936 0.03205611 -0.05857199
v 0.00820713 0.03328422 -0.05857199
v 0.00407745 0.03357994 -0.05926747
v 0.00809580 0.03284237 -0.05926747
v 0.00000693 0.03382347 -0.05926747
v 0.00000693 0.00002085 -0.05986840
v 0.00001041 0.00001041 -0.05986840
v 0.03463772 0.00001041 -0.05565226
v 0.03430721 0.00416790 -0.05668586
v 0.03528831 0.00428619 -0.04349901
v 0.01260817 0.03323899 -0.04349901
v 0.01606290 0.03060185 -0.05668586
v 0.01602811 0.03053228 -0.05768581
v 0.01593417 0.03035484 -0.05857199
v 0.01199585 0.03162470 -0.05926747
v 0.01572195 0.02994779 -0.05926747
v 0.00400091 0.03294327 -0.05971777
v 0.00000693 0.03318333 -0.05971777
v 0.01176971 0.03102978 -0.05971777
v 0.00794272 0.03221962 -0.05971777
v 0.00000693 0.03154120 -0.05986840
v 0.03156569 0.00001041 -0.05986840
v 0.03448464 0.00001041 -0.05768581
v 0.03423067 0.00415746 -0.05768581
v 0.03348267 0.00825580 -0.05768581
v 0.03355573 0.00827320 -0.05668586
v 0.03451596 0.00850977 -0.04349901
v 0.03517002 0.00493329 -0.04349901
v 0.01652214 0.03147510 -0.04349901
v 0.01708227 0.03113763 -0.04349901
v 0.02019257 0.02925546 -0.04349901
v 0.01963244 0.02844136 -0.05668586
v 0.01958721 0.02837873 -0.05768581
v 0.01947588 0.02821521 -0.05857199
v 0.01921495 0.02783600 -0.05926747
v 0.01542622 0.02938418 -0.05971777
v 0.00776528 0.03149945 -0.05986680
v 0.00391394 0.03220571 -0.05986680
v 0.00000693 0.03244228 -0.05986680
v 0.01150878 0.03033745 -0.05986680
v 0.00380609 0.03133594 -0.05986840
v 0.03131520 0.00380608 -0.05986840
v 0.03220584 0.00391393 -0.05986680
v 0.03244590 0.00001041 -0.05986680
v 0.03428286 0.00001041 -0.05857038
v 0.03403236 0.00413311 -0.05857199
v 0.03328784 0.00820710 -0.05857199
v 0.03224063 0.01223238 -0.05768581
v 0.03231370 0.01225673 -0.05668586
v 0.03238676 0.01228456 -0.05565226
v 0.03323565 0.01260812 -0.04349901
v 0.02305586 0.02701146 -0.04349901
v 0.02296888 0.02592599 -0.05565226
v 0.02286798 0.02581118 -0.05768581
v 0.02273230 0.02566158 -0.05857199
v 0.02242962 0.02531715 -0.05926747
v 0.01884964 0.02731066 -0.05971777
v 0.02200517 0.02484052 -0.05971777
v 0.01842867 0.02670182 -0.05986680
v 0.01507832 0.02872664 -0.05986680
v 0.01119566 0.02951291 -0.05986840
v 0.00755306 0.03062969 -0.05986840
v 0.03064721 0.00755651 -0.05986840
v 0.03149959 0.00776525 -0.05986680
v 0.03222324 0.00794269 -0.05971777
v 0.03294341 0.00400090 -0.05971777
v 0.03318694 0.00001041 -0.05971616
v 0.03382710 0.00001041 -0.05926747
v 0.03357660 0.00407744 -0.05926747
v 0.03284252 0.00809577 -0.05926747
v 0.03162484 0.01199580 -0.05926747
v 0.03205277 0.01215932 -0.05857199
v 0.03053588 0.01602804 -0.05768581
v 0.03296777 0.01320652 -0.04349901
v 0.02357076 0.02660789 -0.04349901
v 0.02403696 0.02614517 -0.04349901
v 0.02592610 0.02296878 -0.05565226
v 0.02581129 0.02286789 -0.05768581
v 0.02566169 0.02273220 -0.05857199
v 0.02531726 0.02242952 -0.05926747
v 0.02151462 0.02428387 -0.05986680
v 0.02484062 0.02200508 -0.05971777
v 0.01793116 0.02597817 -0.05986840
v 0.01466431 0.02793341 -0.05986840
v 0.02949564 0.01118866 -0.05986840
v 0.03033410 0.01150525 -0.05986680
v 0.03102991 0.01176966 -0.05971777
v 0.02995140 0.01572188 -0.05926747
v 0.03035497 0.01593411 -0.05857199
v 0.03147524 0.01652207 -0.04349901
v 0.02821186 0.01947232 -0.05857199
v 0.02837885 0.01958713 -0.05768581
v 0.02844148 0.01962888 -0.05668586
v 0.02925558 0.02019248 -0.04349901
v 0.02660800 0.02357066 -0.04349901
v 0.02783612 0.01921487 -0.05926747
v 0.02091970 0.02361241 -0.05986840
v 0.02428397 0.02151453 -0.05986680
v 0.02362642 0.02093005 -0.05986840
v 0.02731077 0.01884956 -0.05971777
v 0.02670193 0.01842860 -0.05986680
v 0.02795093 0.01467120 -0.05986840
v 0.02872676 0.01507825 -0.05986680
v 0.02938431 0.01542616 -0.05971777
v 0.02596089 0.01792065 -0.05986840
f 1 2 6
f 1 6 13
f 1 13 22
f 1 22 35
f 1 35 56
f 1 56 38
f 1 38 23
f 1 23 14
f 1 14 7
f 1 7 3
f 1 3 8
f 1 8 15
f 1 15 27
f 1 27 45
f 1 45 44
f 1 44 68
f 1 68 91
f 1 91 107
f 1 107 111
f 1 111 112
f 1 112 93
f 1 93 92
f 1 92 69
f 1 69 48
f 1 48 47
f 1 47 46
f 1 46 28
f 1 28 16
f 1 16 9
f 1 9 4
f 1 4 5
f 1 5 2
f 2 5 6
f 3 7 8
f 4 9 5
f 5 9 10
f 5 10 11
f 5 11 12
f 5 12 13
f 5 13 6
f 7 14 24
f 7 24 39
f 7 39 61
f 7 61 84
f 7 84 85
f 7 85 62
f 7 62 40
f 7 40 25
f 7 25 15
f 7 15 8
f 9 16 10
f 10 16 17
f 10 17 11
f 11 17 18
f 11 18 19
f 11 19 12
f 12 20 13
f 12 19 21
f 12 21 20
f 13 20 22
f 14 23 24
f 15 25 26
f 15 26 27
f 16 28 17
f 17 28 29
f 17 29 30
f 17 30 31
f 17 31 18
f 18 32 21
f 18 21 19
f 18 31 33
f 18 33 32
f 20 21 34
f 20 34 35
f 20 35 22
f 21 32 36
f 21 36 37
f 21 37 34
f 23 38 58
f 23 58 79
f 23 79 78
f 23 78 101
f 23 101 100
f 23 100 114
f 23 114 116
f 23 116 122
f 23 122 119
f 23 119 102
f 23 102 80
f 23 80 59
f 23 59 39
f 23 39 24
f 25 40 26
f 26 41 42
f 26 42 43
f 26 43 44
f 26 44 45
f 26 45 27
f 26 40 41
f 28 46 29
f 29 46 47
f 29 47 48
f 29 48 49
f 29 49 50
f 29 50 30
f 30 50 51
f 30 51 31
f 31 51 33
f 32 33 36
f 33 51 52
f 33 52 53
f 33 53 36
f 34 37 54
f 34 54 55
f 34 55 56
f 34 56 35
f 36 57 37
f 36 53 57
f 37 57 54
f 38 56 58
f 39 59 60
f 39 60 61
f 40 62 63
f 40 63 41
f 41 63 42
f 42 63 64
f 42 64 65
f 42 65 66
f 42 66 67
f 42 67 43
f 43 67 44
f 44 67 68
f 48 69 70
f 48 70 49
f 49 70 71
f 49 71 50
f 50 71 51
f 51 71 72
f 51 72 73
f 51 73 52
f 52 74 53
f 52 73 75
f 52 75 74
f 53 74 76
f 53 76 77
f 53 77 57
f 54 57 78
f 54 78 79
f 54 79 58
f 54 58 55
f 55 58 56
f 57 77 78
f 59 80 60
f 60 80 81
f 60 81 82
f 60 82 83
f 60 83 61
f 61 83 84
f 62 85 63
f 63 85 86
f 63 86 87
f 63 87 64
f 64 87 88
f 64 88 89
f 64 89 65
f 65 89 90
f 65 90 66
f 66 90 67
f 67 91 68
f 67 90 91
f 69 92 70
f 70 92 93
f 70 93 94
f 70 94 95
f 70 95 71
f 71 95 96
f 71 96 72
f 72 96 97
f 72 97 73
f 73 97 99
f 73 99 75
f 74 75 76
f 75 98 76
f 75 99 115
f 75 115 98
f 76 98 100
f 76 100 77
f 77 100 101
f 77 101 78
f 80 102 103
f 80 103 81
f 81 103 82
f 82 87 83
f 82 103 104
f 82 104 87
f 83 87 86
f 83 86 85
f 83 85 84
f 87 104 88
f 88 104 105
f 88 105 89
f 89 105 106
f 89 106 90
f 90 107 91
f 90 106 108
f 90 108 109
f 90 109 110
f 90 110 111
f 90 111 107
f 93 112 94
f 94 112 111
f 94 111 110
f 94 110 95
f 95 110 109
f 95 109 96
f 96 109 108
f 96 108 113
f 96 113 97
f 97 113 99
f 98 114 100
f 98 115 116
f 98 116 114
f 99 113 117
f 99 117 118
f 99 118 115
f 102 119 103
f 103 119 120
f 103 120 104
f 104 120 121
f 104 121 105
f 105 121 113
f 105 113 106
f 106 113 108
f 113 121 117
f 115 118 116
f 116 118 122
f 117 121 118
f 118 121 120
f 118 120 119
f 118 119 122

