# https://github.com/mikedh/trimesh
v -0.02624767 -0.03415664 0.05791818
v -0.02624767 -0.03408307 0.05866269
v -0.02857941 -0.03225717 0.05866269
v -0.02861747 -0.03230065 0.05791818
v -0.02624767 -0.03151143 0.03010973
v -0.02624767 -0.03371187 0.05927305
v -0.03225988 -0.02857864 0.05866269
v -0.02838413 -0.03203646 0.05927305
v -0.03230125 -0.02861542 0.05791818
v -0.03218044 -0.02850841 0.05575843
v -0.03135962 -0.02777939 0.04111640
v -0.02856617 -0.02530474 -0.00865174
v -0.02624767 -0.02852847 -0.00009323
v -0.02624767 -0.02962535 0.01030308
v -0.02778010 -0.03135760 0.04111640
v -0.02624767 -0.03315005 0.05969561
v -0.02809122 -0.03170539 0.05969561
v -0.03546539 -0.02447874 0.05866269
v -0.03551339 -0.02451218 0.05791818
v -0.03203978 -0.02838133 0.05927305
v -0.03522544 -0.02431154 0.05927305
v -0.03171045 -0.02809039 0.05969561
v -0.03538099 -0.02442189 0.05575843
v -0.03447908 -0.02379654 0.04111640
v -0.03140761 -0.02167637 -0.00865174
v -0.02624767 -0.02762222 -0.00865174
v -0.02624767 -0.03251802 0.05987000
v -0.02776024 -0.03133085 0.05987000
v -0.03133645 -0.02775933 0.05987000
v -0.03815955 -0.02002771 0.05866269
v -0.03821085 -0.02005447 0.05791818
v -0.03486136 -0.02406073 0.05969561
v -0.03750918 -0.01968662 0.05969561
v -0.03789973 -0.01989061 0.05927305
v -0.03445260 -0.02377982 0.05987000
v -0.03379230 -0.01773365 -0.00865174
v -0.03187098 -0.02091056 -0.00865174
v -0.02624767 -0.02149578 -0.00865174
v -0.02624767 -0.03185922 0.05978951
v -0.04134355 0.00000358 0.05978951
v -0.04186153 -0.00000311 0.05987000
v -0.04029436 -0.01528240 0.05866269
v -0.04034897 -0.01530247 0.05791818
v -0.04001964 -0.01517874 0.05927305
v -0.03917069 -0.01485770 0.04111640
v -0.03706732 -0.01945252 0.05987000
v -0.03914090 -0.01484432 0.05987000
v -0.03960758 -0.01502156 0.05969561
v -0.03531315 -0.01435274 -0.00865174
v -0.03398262 0.00000358 -0.00865174
v -0.02624767 -0.03051823 0.05801208
v -0.02624767 -0.03123053 0.05946086
v -0.04084709 0.00000358 0.05946086
v -0.04186319 0.00000358 0.05986329
v -0.04236131 0.00000358 0.05969561
v -0.04236131 -0.00000311 0.05969561
v -0.04205184 -0.00510624 0.05969561
v -0.04155538 -0.00504604 0.05987000
v -0.04184498 -0.01031638 0.05866269
v -0.04189960 -0.01032976 0.05791818
v -0.04067663 -0.01002879 0.04111640
v -0.04155869 -0.01024616 0.05927305
v -0.03594862 -0.01267733 -0.00865174
v -0.03628125 -0.01376083 -0.00009323
v -0.04064519 -0.01001876 0.05987000
v -0.04113007 -0.01013914 0.05969561
v -0.03568053 -0.01353343 -0.00865174
v -0.03816120 0.00000358 -0.00865174
v -0.04028443 0.00000358 0.05801879
v -0.02624767 -0.03070884 0.05874318
v -0.02624767 -0.03113020 0.05934012
v -0.04046150 0.00000358 0.05887061
v -0.04280151 0.00000358 0.05927305
v -0.04280151 -0.00000311 0.05927305
v -0.04248874 -0.00515974 0.05927305
v -0.04278165 -0.00519653 0.05866269
v -0.04283792 -0.00520322 0.05791818
v -0.03788318 -0.00460128 -0.00865174
v -0.03767632 -0.00928639 -0.00009323
v -0.03705243 -0.00913256 -0.00865174
v -0.03816120 -0.00000311 -0.00865174
v -0.03880330 0.00000358 -0.00009323
v -0.02624767 -0.03074229 0.05887061
v -0.04309608 0.00000358 0.05866269
v -0.04309608 -0.00000311 0.05866269
v -0.04315235 -0.00000311 0.05791818
v -0.04308284 -0.00000311 0.05697245
v -0.04189463 -0.00000311 0.04111640
v -0.03880330 -0.00000311 -0.00009323
v -0.04189463 0.00000358 0.04113652
v -0.04315235 0.00000358 0.05791818
f 1 2 3
f 1 3 4
f 1 4 5
f 1 5 14
f 1 14 13
f 1 13 26
f 1 26 38
f 1 38 51
f 1 51 70
f 1 70 83
f 1 83 71
f 1 71 52
f 1 52 39
f 1 39 27
f 1 27 16
f 1 16 6
f 1 6 2
f 2 6 3
f 3 7 4
f 3 6 8
f 3 8 7
f 4 7 9
f 4 9 10
f 4 10 11
f 4 11 12
f 4 12 13
f 4 13 14
f 4 14 15
f 4 15 5
f 5 15 14
f 6 16 17
f 6 17 8
f 7 18 19
f 7 19 9
f 7 8 20
f 7 20 21
f 7 21 18
f 8 17 22
f 8 22 20
f 9 19 23
f 9 23 10
f 10 23 24
f 10 24 11
f 11 24 12
f 12 25 37
f 12 37 36
f 12 36 49
f 12 49 67
f 12 67 63
f 12 63 80
f 12 80 78
f 12 78 81
f 12 81 68
f 12 68 50
f 12 50 38
f 12 38 26
f 12 26 13
f 12 24 25
f 16 27 17
f 17 27 28
f 17 28 29
f 17 29 22
f 18 30 19
f 18 21 30
f 19 30 31
f 19 31 23
f 20 22 21
f 21 22 32
f 21 32 33
f 21 33 34
f 21 34 30
f 22 29 35
f 22 35 32
f 23 31 24
f 24 36 37
f 24 37 25
f 24 31 36
f 27 39 40
f 27 40 41
f 27 41 58
f 27 58 65
f 27 65 47
f 27 47 46
f 27 46 35
f 27 35 29
f 27 29 28
f 30 42 43
f 30 43 31
f 30 34 44
f 30 44 42
f 31 43 45
f 31 45 36
f 32 35 33
f 33 35 46
f 33 46 47
f 33 47 48
f 33 48 44
f 33 44 34
f 36 45 49
f 38 50 51
f 39 52 53
f 39 53 40
f 40 54 41
f 40 53 72
f 40 72 69
f 40 69 50
f 40 50 68
f 40 68 82
f 40 82 90
f 40 90 91
f 40 91 84
f 40 84 73
f 40 73 55
f 40 55 54
f 41 54 55
f 41 55 56
f 41 56 57
f 41 57 58
f 42 59 43
f 42 44 59
f 43 59 60
f 43 60 61
f 43 61 45
f 44 62 59
f 44 48 62
f 45 61 63
f 45 63 64
f 45 64 49
f 47 65 66
f 47 66 48
f 48 66 62
f 49 64 67
f 50 69 51
f 51 69 70
f 52 71 72
f 52 72 53
f 55 73 74
f 55 74 56
f 56 74 57
f 57 74 75
f 57 75 62
f 57 62 66
f 57 66 65
f 57 65 58
f 59 76 77
f 59 77 60
f 59 62 76
f 60 77 61
f 61 78 79
f 61 79 63
f 61 77 78
f 62 75 76
f 63 67 64
f 63 79 80
f 68 81 89
f 68 89 82
f 69 72 83
f 69 83 70
f 71 83 72
f 73 84 85
f 73 85 74
f 74 85 76
f 74 76 75
f 76 85 77
f 77 85 86
f 77 86 87
f 77 87 88
f 77 88 78
f 78 88 89
f 78 89 81
f 78 80 79
f 82 89 88
f 82 88 90
f 84 91 86
f 84 86 85
f 86 91 87
f 87 91 88
f 88 91 90

