# https://github.com/mikedh/trimesh
v 0.00000714 -0.04118618 -0.03334760
v 0.00000714 -0.03979542 -0.06067832
v 0.00363518 -0.04134779 -0.03334760
v 0.00000714 -0.03923401 -0.03334760
v 0.00351397 -0.03994853 -0.06068100
v 0.00000714 -0.03670769 -0.06067832
v 0.00323925 -0.03685229 -0.06068100
v 0.01371127 -0.03766463 -0.06068100
v 0.01419204 -0.03898308 -0.03334760
v 0.03874393 0.00209741 -0.03334760
v 0.00000714 0.00209741 -0.03835355
v 0.00000714 0.00209741 -0.05938871
v 0.03680466 0.00209741 -0.06068100
v 0.02298741 -0.03285865 -0.06068100
v 0.02379140 -0.03400698 -0.03334760
v 0.04128113 0.00209741 -0.03334760
v 0.03988728 0.00209741 -0.06068100
v 0.02829614 -0.02988149 -0.03334760
v 0.03635217 -0.01693512 -0.06068100
v 0.03071618 -0.02577302 -0.06067832
v 0.04109528 -0.00195152 -0.03334760
v 0.03947115 -0.00696165 -0.06068100
v 0.03179086 -0.02667467 -0.03334760
v 0.03762077 -0.01753055 -0.03334760
v 0.03434018 -0.02267678 -0.03334760
v 0.03903481 -0.01301803 -0.03334760
v 0.04085287 -0.00720407 -0.03334760
f 1 2 3
f 1 3 9
f 1 9 15
f 1 15 18
f 1 18 23
f 1 23 25
f 1 25 24
f 1 24 26
f 1 26 27
f 1 27 21
f 1 21 16
f 1 16 10
f 1 10 4
f 1 4 11
f 1 11 12
f 1 12 6
f 1 6 2
f 2 5 3
f 2 6 7
f 2 7 5
f 3 5 8
f 3 8 9
f 4 10 11
f 5 7 13
f 5 13 17
f 5 17 22
f 5 22 19
f 5 19 14
f 5 14 8
f 6 12 13
f 6 13 7
f 8 14 9
f 9 14 15
f 10 16 17
f 10 17 13
f 10 13 12
f 10 12 11
f 14 18 15
f 14 19 20
f 14 20 18
f 16 21 17
f 17 21 22
f 18 20 23
f 19 24 25
f 19 25 23
f 19 23 20
f 19 22 26
f 19 26 24
f 21 27 22
f 22 27 26

