# https://github.com/mikedh/trimesh
v 0.00000739 -0.04465672 0.03814835
v 0.00000739 -0.04588250 0.03814835
v 0.00000739 -0.04378614 0.03302378
v -0.00052449 -0.04490745 0.04956258
v -0.00803431 -0.04552904 0.03814835
v -0.00775604 -0.04396896 0.01418664
v 0.00000739 -0.04430849 0.01418664
v -0.00052449 -0.04648320 0.04956258
v -0.00035894 -0.04621158 0.04388278
v -0.00035894 -0.04612626 0.04214424
v -0.00808011 -0.04578847 0.04214424
v 0.00000739 -0.04242107 0.02168691
v -0.03284983 -0.02920393 0.05542444
v -0.00241604 -0.04539497 0.06067645
v -0.01955266 -0.04189524 0.03814835
v -0.01888340 -0.04045879 0.01418664
v 0.00000739 -0.04171242 0.01418664
v -0.00241604 -0.04685058 0.06067645
v -0.00241604 -0.04685058 0.05866940
v -0.00241604 -0.04646752 0.05086421
v -0.01697776 -0.04307575 0.04388278
v -0.01966186 -0.04213378 0.04214424
v -0.00813999 -0.04615238 0.04956714
v -0.00822100 -0.04659811 0.05866940
v 0.00000739 -0.04204672 0.01781389
v -0.03284983 -0.03142391 0.06067645
v -0.03284983 -0.02906464 0.04956714
v -0.03597775 -0.02930318 0.04672268
v -0.03595310 -0.02954520 0.04956258
v -0.00796387 -0.04515295 0.06068100
v -0.02970078 -0.03540594 0.03814835
v -0.02868280 -0.03419061 0.01418664
v -0.03017983 -0.03078665 0.01418664
v -0.03220171 -0.02944247 0.03814835
v -0.00822100 -0.04659811 0.06068100
v -0.02001410 -0.04287900 0.05866940
v -0.02860883 -0.03651680 0.04388278
v -0.02986634 -0.03560792 0.04214424
v -0.02720338 -0.03758413 0.04672268
v -0.03284983 -0.03357076 0.06067645
v -0.03518873 -0.02944247 0.03814835
v -0.03578402 -0.02930318 0.04388278
v -0.03585095 -0.02930318 0.04486127
v -0.03554802 -0.02944247 0.04214424
v -0.03010939 -0.03588998 0.04956258
v -0.03040175 -0.03623473 0.05866940
v -0.03284983 -0.03357076 0.05866940
v -0.03340286 -0.03078665 0.03195881
v -0.03181776 -0.03078665 0.01418664
v -0.03040175 -0.03623473 0.06067645
v -0.02001410 -0.04287900 0.06067645
f 1 2 7
f 1 7 17
f 1 17 25
f 1 25 12
f 1 12 3
f 1 3 4
f 1 4 8
f 1 8 2
f 2 5 6
f 2 6 7
f 2 8 9
f 2 9 10
f 2 10 11
f 2 11 5
f 3 12 4
f 4 13 14
f 4 14 18
f 4 18 8
f 4 12 13
f 5 11 15
f 5 15 16
f 5 16 6
f 6 16 32
f 6 32 49
f 6 49 33
f 6 33 17
f 6 17 7
f 8 18 19
f 8 19 9
f 9 19 10
f 10 19 20
f 10 20 11
f 11 21 22
f 11 22 15
f 11 20 23
f 11 23 24
f 11 24 21
f 12 25 13
f 13 26 14
f 13 25 17
f 13 17 27
f 13 27 28
f 13 28 29
f 13 29 26
f 14 26 30
f 14 30 18
f 15 22 31
f 15 31 16
f 16 31 32
f 17 33 34
f 17 34 27
f 18 30 35
f 18 35 24
f 18 24 19
f 19 24 20
f 20 24 23
f 21 24 36
f 21 36 22
f 22 37 38
f 22 38 31
f 22 36 39
f 22 39 37
f 24 35 51
f 24 51 36
f 26 35 30
f 26 29 40
f 26 40 35
f 27 34 41
f 27 41 42
f 27 42 43
f 27 43 28
f 28 43 44
f 28 44 29
f 29 45 46
f 29 46 47
f 29 47 40
f 29 44 45
f 31 48 49
f 31 49 32
f 31 38 44
f 31 44 48
f 33 49 41
f 33 41 34
f 35 40 50
f 35 50 51
f 36 51 50
f 36 50 46
f 36 46 39
f 37 39 45
f 37 45 38
f 38 45 44
f 39 46 45
f 40 47 46
f 40 46 50
f 41 49 44
f 41 44 42
f 42 44 43
f 44 49 48

