# https://github.com/mikedh/trimesh
v 0.03449625 -0.02824078 0.01418664
v 0.03083330 -0.02824078 0.01418664
v 0.03420254 -0.02870163 0.01418664
v 0.03365225 -0.02824078 0.00334534
v 0.03250104 -0.02710651 -0.02071492
v 0.03030665 -0.02824078 0.01017117
v 0.00000714 -0.04134008 0.01017117
v 0.00000714 -0.04148973 0.01179039
v 0.00000714 -0.04171250 0.01418664
v 0.03014122 -0.02710651 -0.02071492
v 0.02828781 -0.03412296 0.01418664
v 0.02477678 -0.03541878 -0.00741687
v 0.02829793 -0.02988350 -0.03334760
v 0.03131607 -0.02824078 -0.02071492
v 0.03132620 -0.02710651 -0.03334760
v 0.03243015 -0.02721705 -0.02071492
v 0.03230186 -0.02710651 -0.02326472
v 0.00000714 -0.03923481 -0.03334760
v 0.00000714 -0.04430753 0.01418664
v 0.02949641 -0.02710651 -0.03334760
v 0.02559377 -0.03658536 0.01418664
v 0.02540134 -0.03631157 0.00910100
v 0.01526661 -0.04193697 0.01418664
v 0.01448001 -0.03976708 -0.02071492
v 0.02414884 -0.03452260 -0.02393474
v 0.02378761 -0.03401073 -0.03334760
v 0.03223771 -0.02710651 -0.02393474
v 0.00000714 -0.04118703 -0.03334760
v 0.00390978 -0.04447759 0.01418664
v 0.00000714 -0.04252196 -0.01303295
v 0.00388278 -0.04414428 0.00910100
v 0.00746132 -0.04368344 0.01418664
v 0.00371060 -0.04218015 -0.02071492
v 0.00369372 -0.04196759 -0.02393474
v 0.01419305 -0.03898143 -0.03334760
v 0.00125626 -0.04124315 -0.03334760
v 0.00363633 -0.04134518 -0.03334760
f 1 2 9
f 1 9 19
f 1 19 29
f 1 29 32
f 1 32 23
f 1 23 21
f 1 21 11
f 1 11 3
f 1 3 4
f 1 4 5
f 1 5 10
f 1 10 2
f 2 6 7
f 2 7 8
f 2 8 9
f 2 10 6
f 3 11 12
f 3 12 13
f 3 13 14
f 3 14 15
f 3 15 4
f 4 16 5
f 4 15 16
f 5 16 17
f 5 17 27
f 5 27 15
f 5 15 20
f 5 20 10
f 6 10 18
f 6 18 7
f 7 18 28
f 7 28 30
f 7 30 19
f 7 19 9
f 7 9 8
f 10 20 18
f 11 21 22
f 11 22 12
f 12 22 23
f 12 23 24
f 12 24 25
f 12 25 13
f 13 25 26
f 13 26 35
f 13 35 37
f 13 37 36
f 13 36 28
f 13 28 18
f 13 18 20
f 13 20 15
f 13 15 14
f 15 27 16
f 16 27 17
f 19 30 31
f 19 31 29
f 21 23 22
f 23 32 31
f 23 31 33
f 23 33 34
f 23 34 24
f 24 34 35
f 24 35 25
f 25 35 26
f 28 36 30
f 29 31 32
f 30 36 33
f 30 33 31
f 33 36 34
f 34 36 37
f 34 37 35

