# https://github.com/mikedh/trimesh
v -0.02880117 -0.03405766 0.01417595
v -0.02880117 -0.03405429 0.01410219
v -0.02867098 -0.03074209 -0.02151419
v -0.02880117 -0.03240660 0.01417595
v -0.03058591 -0.03077908 0.03813841
v -0.03285707 -0.03356671 0.06067178
v -0.03285707 -0.03356671 0.05867107
v -0.03398541 -0.02380831 -0.03350925
v -0.03285707 -0.03290091 0.04956183
v -0.03396009 -0.03077908 0.03813841
v -0.02867098 -0.02740298 -0.02151419
v -0.02867098 -0.02957861 -0.03350925
v -0.02880117 -0.03164664 0.01017452
v -0.03862898 0.00003621 -0.03350925
v -0.04399404 0.00000259 0.05541645
v -0.03285707 -0.02919864 0.05541645
v -0.03285707 -0.03141798 0.06067178
v -0.04308449 -0.01568416 0.06068100
v -0.04446237 -0.01618856 0.06068100
v -0.03875194 -0.02715415 0.06067178
v -0.03875194 -0.02715415 0.05867107
v -0.03838306 -0.02689522 0.04956183
v -0.03579365 -0.02953154 0.04707246
v -0.03463638 -0.03097075 0.04956183
v -0.03898882 -0.01419451 -0.03350925
v -0.03718781 -0.02605456 0.02561781
v -0.03463638 -0.02426227 -0.02151419
v -0.04195253 -0.01527728 0.01417595
v -0.03555497 -0.02943066 0.04213983
v -0.02867098 -0.02583599 -0.03350925
v -0.04116956 0.00003621 -0.03350925
v -0.04253479 0.00029177 0.01417595
v -0.04387650 0.00029177 0.03813841
v -0.04549850 0.00000259 0.06067178
v -0.04695413 0.00000259 0.06067178
v -0.04714400 -0.00410993 0.06067178
v -0.04446237 -0.01618856 0.05867107
v -0.04403744 -0.01603388 0.04956183
v -0.03808108 -0.02668001 0.04213983
v -0.04212793 -0.00367951 -0.02151419
v -0.04133592 -0.00360890 -0.03350925
v -0.04448226 -0.00388127 0.01417595
v -0.04369025 -0.01589937 0.04213983
v -0.04632486 -0.00404268 0.04213983
v -0.04126540 -0.00205199 -0.03350925
v -0.04429059 0.00029177 0.01417595
v -0.04586196 0.00029177 0.03813841
v -0.04695413 0.00000259 0.05867107
v -0.04714400 -0.00410993 0.05867107
v -0.04655270 -0.00406958 0.04671289
v -0.04622541 -0.00001759 0.04387317
v -0.04613681 -0.00001759 0.04213983
v -0.04650569 0.00000259 0.04956183
v -0.04665577 0.00000259 0.05258595
f 1 2 3
f 1 3 11
f 1 11 4
f 1 4 5
f 1 5 6
f 1 6 7
f 1 7 2
f 2 8 3
f 2 7 9
f 2 9 10
f 2 10 8
f 3 8 12
f 3 12 30
f 3 30 11
f 4 11 13
f 4 13 5
f 5 13 11
f 5 11 14
f 5 14 15
f 5 15 16
f 5 16 17
f 5 17 6
f 6 17 18
f 6 18 19
f 6 19 20
f 6 20 21
f 6 21 7
f 7 21 22
f 7 22 23
f 7 23 24
f 7 24 9
f 8 25 41
f 8 41 45
f 8 45 31
f 8 31 14
f 8 14 30
f 8 30 12
f 8 10 26
f 8 26 27
f 8 27 28
f 8 28 25
f 9 24 29
f 9 29 10
f 10 29 26
f 11 30 14
f 14 31 46
f 14 46 32
f 14 32 33
f 14 33 15
f 15 34 17
f 15 17 16
f 15 33 34
f 17 34 18
f 18 34 35
f 18 35 19
f 19 35 36
f 19 36 49
f 19 49 37
f 19 37 21
f 19 21 20
f 21 37 22
f 22 38 39
f 22 39 29
f 22 29 23
f 22 37 38
f 23 29 24
f 25 40 41
f 25 28 42
f 25 42 40
f 26 29 39
f 26 39 28
f 26 28 27
f 28 39 43
f 28 43 44
f 28 44 42
f 31 45 42
f 31 42 46
f 32 46 47
f 32 47 33
f 33 47 35
f 33 35 34
f 35 47 48
f 35 48 49
f 35 49 36
f 37 49 50
f 37 50 38
f 38 50 43
f 38 43 39
f 40 45 41
f 40 42 45
f 42 44 46
f 43 50 44
f 44 51 52
f 44 52 47
f 44 47 46
f 44 50 51
f 47 52 51
f 47 51 53
f 47 53 54
f 47 54 48
f 48 54 49
f 49 54 50
f 50 54 51
f 51 54 53

