# https://github.com/mikedh/trimesh
v 0.04252577 -0.00021960 0.01418079
v 0.03872063 0.00210425 -0.03359289
v 0.04429442 -0.00021960 0.01418079
v 0.04388978 -0.00021960 0.03814607
v 0.04399426 0.00001279 0.05542100
v 0.02773642 0.02784767 -0.02430023
v 0.02773642 0.02684295 -0.03359289
v 0.04126056 0.00210425 -0.03359289
v 0.04448249 0.00387447 0.01418079
v 0.04606306 0.00401458 0.03814607
v 0.04586739 -0.00021960 0.03814607
v 0.04133085 0.00360449 -0.03359289
v 0.04549694 0.00001279 0.06067177
v 0.03149218 0.03067730 0.05542100
v 0.02773642 0.02818600 -0.02151336
v 0.02773642 0.03059186 -0.03359289
v 0.04448249 0.00388131 0.01418079
v 0.04344334 0.01581494 0.03814607
v 0.04632522 0.00404192 0.04215105
v 0.04195396 0.01527840 0.01418079
v 0.04613715 -0.00000430 0.04215105
v 0.04622454 -0.00000430 0.04387670
v 0.04636512 -0.00000430 0.04672817
v 0.04695403 0.00001279 0.05866928
v 0.04695403 0.00001279 0.06067177
v 0.03898279 0.01419166 -0.03359289
v 0.04308619 0.01567824 0.06068100
v 0.03353248 0.03067730 0.06067177
v 0.03035994 0.03469276 0.03814607
v 0.02804798 0.03459366 0.01418079
v 0.02804798 0.03304215 0.01418079
v 0.02773642 0.03176062 -0.02151336
v 0.03089186 0.02716760 -0.03359289
v 0.02869008 0.03418357 0.01418079
v 0.03035994 0.03237233 0.01418079
v 0.03718565 0.02606036 0.02562359
v 0.03786575 0.02652855 0.03814607
v 0.03808232 0.02667891 0.04215105
v 0.04368840 0.01590379 0.04215105
v 0.04377199 0.01593113 0.04387670
v 0.04524238 0.01061020 0.04956118
v 0.04714210 0.00411027 0.05866928
v 0.04669187 0.00406926 0.04956118
v 0.04650760 0.00001279 0.04956118
v 0.03656824 0.02562293 0.01418079
v 0.03398271 0.02380828 -0.03359289
v 0.04714210 0.00411027 0.06067177
v 0.04446349 0.01618060 0.06068100
v 0.03551009 0.03067730 0.06067177
v 0.03551009 0.03067730 0.05866928
v 0.03490218 0.03067730 0.04956118
v 0.03555948 0.02942652 0.04215105
v 0.02804798 0.03341807 -0.00087941
v 0.03786195 0.02653538 0.03814607
v 0.03727874 0.02768705 0.04387670
v 0.03815261 0.02673359 0.04387670
v 0.03826849 0.02681561 0.04672817
v 0.04403795 0.01602682 0.04956118
v 0.04446349 0.01618060 0.05866928
v 0.03875292 0.02715393 0.06067177
v 0.03875292 0.02715393 0.05866928
v 0.03595273 0.02954271 0.04956118
v 0.03582545 0.02954271 0.04764175
v 0.03838437 0.02689421 0.04956118
f 1 2 8
f 1 8 3
f 1 3 11
f 1 11 4
f 1 4 5
f 1 5 2
f 2 6 7
f 2 7 16
f 2 16 33
f 2 33 46
f 2 46 26
f 2 26 12
f 2 12 8
f 2 5 6
f 3 9 10
f 3 10 11
f 3 8 12
f 3 12 9
f 4 11 25
f 4 25 13
f 4 13 5
f 5 13 14
f 5 14 15
f 5 15 6
f 6 15 32
f 6 32 16
f 6 16 7
f 9 17 10
f 9 12 17
f 10 18 19
f 10 19 11
f 10 17 20
f 10 20 18
f 11 19 21
f 11 21 22
f 11 22 23
f 11 23 24
f 11 24 25
f 12 26 17
f 13 25 27
f 13 27 28
f 13 28 14
f 14 28 29
f 14 29 30
f 14 30 31
f 14 31 15
f 15 31 30
f 15 30 32
f 16 32 34
f 16 34 35
f 16 35 33
f 17 26 20
f 18 36 37
f 18 37 38
f 18 38 39
f 18 39 19
f 18 20 36
f 19 39 40
f 19 40 41
f 19 41 42
f 19 42 43
f 19 43 44
f 19 44 22
f 19 22 21
f 20 45 36
f 20 26 46
f 20 46 45
f 22 44 23
f 23 44 24
f 24 42 47
f 24 47 25
f 24 44 42
f 25 47 48
f 25 48 27
f 27 48 28
f 28 48 49
f 28 49 29
f 29 36 35
f 29 35 34
f 29 34 30
f 29 49 50
f 29 50 51
f 29 51 52
f 29 52 36
f 30 34 53
f 30 53 32
f 32 53 34
f 33 35 46
f 35 36 46
f 36 52 54
f 36 54 37
f 36 45 46
f 37 54 38
f 38 52 55
f 38 55 56
f 38 56 39
f 38 54 52
f 39 56 40
f 40 56 57
f 40 57 58
f 40 58 41
f 41 58 59
f 41 59 42
f 42 44 43
f 42 59 48
f 42 48 47
f 48 59 61
f 48 61 60
f 48 60 49
f 49 60 61
f 49 61 50
f 50 61 62
f 50 62 63
f 50 63 51
f 51 63 52
f 52 63 55
f 55 63 61
f 55 61 57
f 55 57 56
f 57 61 64
f 57 64 59
f 57 59 58
f 59 64 61
f 61 63 62

