# https://github.com/mikedh/trimesh
v 0.00051614 0.04634519 0.04672905
v 0.00051614 0.04504114 0.04672905
v 0.00051614 0.04620400 0.04388189
v 0.00034830 0.04612556 0.04214042
v -0.00410993 0.04668836 0.04955779
v 0.00028536 0.04664914 0.05267217
v 0.00028536 0.04694328 0.05866135
v 0.00051264 0.04648245 0.04955779
v 0.00051614 0.04501172 0.04460059
v 0.00051264 0.04490779 0.04955779
v 0.00051614 0.04504506 0.04388189
v 0.00000563 0.04117802 -0.03345229
v 0.00034830 0.04586279 0.03814149
v 0.00034830 0.04595888 0.03959732
v -0.00407846 0.04631970 0.04214042
v -0.01603001 0.04401751 0.04955779
v -0.01618387 0.04444304 0.05866135
v -0.00414839 0.04713938 0.05866135
v -0.01592861 0.04375278 0.04387267
v 0.00028536 0.04694328 0.06067924
v 0.00000563 0.03921901 -0.03345229
v 0.00028536 0.04548628 0.06067924
v 0.00028536 0.04455678 0.05541797
v 0.00000563 0.04133882 0.01017661
v 0.00000563 0.04143295 -0.02957314
v -0.00363788 0.04133882 -0.03345229
v 0.00000563 0.04429597 0.01400047
v -0.00391762 0.04448030 0.01418475
v -0.01581672 0.04342334 0.03814149
v -0.01590413 0.04367042 0.04214042
v -0.02686614 0.03840716 0.04955779
v -0.02712139 0.03877779 0.05866135
v -0.01618387 0.04444304 0.06067924
v -0.00414839 0.04713938 0.06067924
v -0.02947114 0.02710803 -0.03345229
v -0.03304822 0.03137511 0.06067924
v -0.02862845 0.02978280 0.01017661
v -0.02862845 0.02902391 -0.00135948
v -0.02862845 0.02884938 -0.00487928
v -0.01419078 0.03897389 -0.03345229
v -0.01440407 0.03956610 -0.02393409
v -0.02650248 0.03788751 0.03814149
v -0.02378559 0.03400674 -0.03345229
v -0.02558986 0.03659130 0.01418475
v -0.02664934 0.03810321 0.04214042
v -0.02669830 0.03817577 0.04387267
v -0.02785918 0.03711684 0.04388189
v -0.03314612 0.03248306 0.04695019
v -0.03520565 0.03137511 0.05866135
v -0.02712139 0.03877779 0.06067924
v -0.02947114 0.02880035 -0.03345229
v -0.03296779 0.03058484 0.04388189
v -0.03520565 0.03137511 0.06067924
v -0.03490843 0.03065544 0.04387267
v -0.02862845 0.03381064 0.01418475
v -0.03427904 0.03076329 0.03814149
v -0.03477906 0.03065544 0.04214042
v -0.03296779 0.03243600 0.04388189
v -0.03454128 0.03137511 0.04955779
f 1 2 9
f 1 9 11
f 1 11 3
f 1 3 4
f 1 4 5
f 1 5 6
f 1 6 7
f 1 7 8
f 1 8 10
f 1 10 2
f 2 10 9
f 3 11 21
f 3 21 12
f 3 12 13
f 3 13 14
f 3 14 4
f 4 14 15
f 4 15 5
f 5 16 17
f 5 17 18
f 5 18 6
f 5 15 19
f 5 19 16
f 6 18 7
f 7 18 34
f 7 34 20
f 7 20 8
f 8 20 22
f 8 22 10
f 9 10 21
f 9 21 11
f 10 22 23
f 10 23 24
f 10 24 21
f 12 25 14
f 12 14 13
f 12 21 35
f 12 35 51
f 12 51 43
f 12 43 40
f 12 40 26
f 12 26 25
f 14 25 27
f 14 27 28
f 14 28 15
f 15 29 30
f 15 30 19
f 15 28 29
f 16 31 17
f 16 19 30
f 16 30 31
f 17 31 32
f 17 32 50
f 17 50 33
f 17 33 34
f 17 34 18
f 20 34 33
f 20 33 50
f 20 50 53
f 20 53 36
f 20 36 22
f 21 24 35
f 22 36 23
f 23 36 24
f 24 37 38
f 24 38 39
f 24 39 35
f 24 36 37
f 25 26 27
f 26 40 28
f 26 28 27
f 28 40 41
f 28 41 29
f 29 42 30
f 29 41 40
f 29 40 43
f 29 43 44
f 29 44 42
f 30 45 46
f 30 46 31
f 30 42 45
f 31 46 47
f 31 47 48
f 31 48 49
f 31 49 32
f 32 49 53
f 32 53 50
f 35 39 38
f 35 38 36
f 35 36 52
f 35 52 53
f 35 53 54
f 35 54 51
f 36 53 52
f 36 38 37
f 42 44 43
f 42 43 55
f 42 55 56
f 42 56 45
f 43 51 55
f 45 57 47
f 45 47 46
f 45 56 57
f 47 57 58
f 47 58 48
f 48 59 49
f 48 58 57
f 48 57 54
f 48 54 59
f 49 59 54
f 49 54 53
f 51 54 57
f 51 57 56
f 51 56 55

