# https://github.com/mikedh/trimesh
v 0.00035614 0.04458926 0.03814890
v 0.00028625 0.04455817 0.05542292
v 0.00028625 0.04488982 0.04956713
v 0.00035614 0.04586578 0.03814890
v 0.03220874 0.02943343 0.03814890
v 0.00028625 0.04548922 0.06067879
v 0.03252674 0.02930043 0.04465754
v 0.03254072 0.02930043 0.04540082
v 0.03257217 0.02930043 0.04673077
v 0.03240443 0.02954744 0.04956493
v 0.03148537 0.03068750 0.05542292
v 0.03352617 0.03068750 0.06067879
v 0.00028625 0.04649799 0.04956713
v 0.00035614 0.04596078 0.03960458
v 0.00808254 0.04578977 0.04215201
v 0.00803362 0.04552894 0.03814890
v 0.03519307 0.02943343 0.03814890
v 0.03259663 0.02930043 0.04388559
v 0.03257566 0.02930043 0.04388779
v 0.00028625 0.04694710 0.06067879
v 0.00796722 0.04515410 0.06068100
v 0.03598632 0.02930043 0.04673077
v 0.03594788 0.02954744 0.04956493
v 0.03550757 0.03068750 0.06067879
v 0.00028625 0.04694710 0.05867173
v 0.00035614 0.04618361 0.04325480
v 0.00035614 0.04612661 0.04215201
v 0.00814195 0.04615425 0.04956713
v 0.00933707 0.04548403 0.04388559
v 0.01966339 0.04213469 0.04215201
v 0.01077682 0.04466526 0.03814890
v 0.03530839 0.02943343 0.03942813
v 0.03579063 0.02930043 0.04388559
v 0.02969967 0.03540491 0.03814890
v 0.00822232 0.04659818 0.06068100
v 0.03550757 0.03068750 0.05867173
v 0.03555300 0.02943343 0.04215201
v 0.02987090 0.03560701 0.04215201
v 0.02992682 0.03567264 0.04388559
v 0.03010853 0.03588856 0.04956713
v 0.03039858 0.03623576 0.05867173
v 0.03039858 0.03623576 0.06067879
v 0.00822232 0.04659818 0.05867173
v 0.01344663 0.04448216 0.04956493
v 0.01982414 0.04246979 0.04956713
v 0.01955157 0.04189459 0.03814890
v 0.02001285 0.04287918 0.06067879
v 0.02001285 0.04287918 0.05867173
f 1 2 3
f 1 3 13
f 1 13 4
f 1 4 16
f 1 16 31
f 1 31 46
f 1 46 34
f 1 34 17
f 1 17 5
f 1 5 2
f 2 6 20
f 2 20 25
f 2 25 13
f 2 13 3
f 2 5 7
f 2 7 8
f 2 8 9
f 2 9 10
f 2 10 11
f 2 11 12
f 2 12 6
f 4 13 14
f 4 14 15
f 4 15 16
f 5 17 33
f 5 33 18
f 5 18 19
f 5 19 7
f 6 12 21
f 6 21 20
f 7 19 18
f 7 18 33
f 7 33 22
f 7 22 9
f 7 9 8
f 9 22 23
f 9 23 10
f 10 23 24
f 10 24 12
f 10 12 11
f 12 24 21
f 13 25 26
f 13 26 27
f 13 27 14
f 14 27 15
f 15 28 29
f 15 29 30
f 15 30 31
f 15 31 16
f 15 27 26
f 15 26 28
f 17 32 33
f 17 34 32
f 20 21 35
f 20 35 43
f 20 43 25
f 21 24 35
f 22 36 23
f 22 33 37
f 22 37 38
f 22 38 39
f 22 39 40
f 22 40 41
f 22 41 36
f 23 36 24
f 24 36 41
f 24 41 42
f 24 42 35
f 25 43 28
f 25 28 26
f 28 43 44
f 28 44 29
f 29 44 45
f 29 45 30
f 30 46 31
f 30 45 38
f 30 38 34
f 30 34 46
f 32 37 33
f 32 34 37
f 34 38 37
f 35 42 47
f 35 47 48
f 35 48 43
f 38 45 39
f 39 45 41
f 39 41 40
f 41 45 48
f 41 48 47
f 41 47 42
f 43 48 44
f 44 48 45

