# https://github.com/mikedh/trimesh
v -0.04117675 0.00004161 -0.03345618
v -0.03978998 0.00004161 -0.06068100
v -0.03863702 0.00004161 -0.03345618
v -0.04084618 0.00720510 -0.03345618
v -0.03947150 0.00696254 -0.06068100
v -0.03670602 0.00004161 -0.06068100
v 0.00000311 0.00004161 -0.03835212
v 0.00000311 0.03921845 -0.03345618
v -0.03900790 0.01308304 -0.03345618
v -0.03635127 0.01693563 -0.06068100
v 0.00000311 0.00004161 -0.05938839
v -0.00324210 0.03684948 -0.06068100
v 0.00000311 0.03670799 -0.06067833
v 0.00000311 0.04117911 -0.03345618
v -0.03761710 0.01752585 -0.03345618
v -0.03178782 0.02667021 -0.03345618
v -0.03071549 0.02577276 -0.06067833
v -0.02298747 0.03285944 -0.06068100
v -0.00351220 0.03994611 -0.06068100
v 0.00000311 0.03979249 -0.06067833
v -0.00363313 0.04134081 -0.03345618
v -0.02378970 0.03400349 -0.03345618
v -0.01418711 0.03897589 -0.03345618
v -0.01371142 0.03766204 -0.06068100
f 1 2 6
f 1 6 11
f 1 11 7
f 1 7 3
f 1 3 8
f 1 8 14
f 1 14 21
f 1 21 23
f 1 23 22
f 1 22 16
f 1 16 15
f 1 15 9
f 1 9 4
f 1 4 5
f 1 5 2
f 2 5 10
f 2 10 18
f 2 18 24
f 2 24 19
f 2 19 12
f 2 12 6
f 3 7 8
f 4 9 5
f 5 9 10
f 6 12 13
f 6 13 11
f 7 11 13
f 7 13 20
f 7 20 14
f 7 14 8
f 9 15 10
f 10 15 16
f 10 16 17
f 10 17 18
f 12 19 20
f 12 20 13
f 14 20 21
f 16 22 18
f 16 18 17
f 18 22 23
f 18 23 24
f 19 24 21
f 19 21 20
f 21 24 23

