# https://github.com/mikedh/trimesh
v 0.00000309 0.00004161 -0.03835357
v 0.00000309 -0.03920940 -0.03351043
v 0.00000309 0.00004161 -0.05938843
v -0.03863242 0.00004161 -0.03351043
v 0.00000309 -0.04117841 -0.03351043
v 0.00000309 -0.03671183 -0.06067834
v -0.03670590 0.00004161 -0.06068100
v -0.04117008 0.00004161 -0.03351043
v 0.00000309 -0.03979446 -0.06067834
v -0.00412515 -0.04099685 -0.03351043
v -0.00696636 -0.03949185 -0.06067834
v -0.01565186 -0.03352027 -0.06068100
v -0.03978995 0.00004161 -0.06068100
v -0.04134006 -0.00360186 -0.03351043
v -0.01696318 -0.03633659 -0.06068100
v -0.00720515 -0.04085966 -0.03351043
v -0.01755409 -0.03759950 -0.03351043
v -0.03995184 -0.00348082 -0.06068100
v -0.03898858 -0.01419334 -0.03351043
v -0.03768131 -0.01371723 -0.06067834
v -0.02576201 -0.03070394 -0.06068100
v -0.02665646 -0.03176914 -0.03351043
v -0.03284073 -0.02301352 -0.06068100
v -0.03685161 -0.01830485 -0.03351043
v -0.03398207 -0.02381242 -0.03351043
f 1 2 5
f 1 5 9
f 1 9 6
f 1 6 3
f 1 3 7
f 1 7 13
f 1 13 8
f 1 8 4
f 1 4 2
f 2 4 8
f 2 8 14
f 2 14 19
f 2 19 24
f 2 24 25
f 2 25 22
f 2 22 17
f 2 17 16
f 2 16 10
f 2 10 5
f 3 6 7
f 5 10 11
f 5 11 9
f 6 9 12
f 6 12 7
f 7 12 15
f 7 15 21
f 7 21 23
f 7 23 18
f 7 18 13
f 8 13 14
f 9 11 15
f 9 15 12
f 10 16 11
f 11 16 17
f 11 17 15
f 13 18 14
f 14 18 20
f 14 20 19
f 15 17 21
f 17 22 21
f 18 23 20
f 19 20 24
f 20 23 24
f 21 22 25
f 21 25 23
f 23 25 24

