# https://github.com/mikedh/trimesh
v 0.02919530 -0.02823913 -0.02071492
v 0.02949832 -0.02710461 -0.03334760
v 0.03131948 -0.02823913 -0.02071492
v 0.02910851 -0.02823913 -0.01890028
v 0.03874574 0.00210166 -0.03334760
v 0.03132862 -0.02710461 -0.03334760
v 0.02884812 -0.02823913 -0.01272585
v 0.03227270 -0.02707788 -0.02393474
v 0.03365532 -0.02823913 0.00334534
v 0.04127952 0.00210166 -0.03334760
v 0.02907653 -0.02823913 -0.00648629
v 0.02928971 -0.02823913 -0.00136342
v 0.04164954 0.00210166 0.01017117
v 0.03179457 -0.02667694 -0.03334760
v 0.03434358 -0.02267645 -0.03334760
v 0.03411822 -0.02823913 0.00929177
v 0.04109528 -0.00195526 -0.03334760
v 0.04440260 0.00210166 0.01418664
v 0.03031145 -0.02823913 0.01017117
v 0.03083983 -0.02823913 0.01418664
v 0.04225254 0.00210166 0.01418664
v 0.03762350 -0.01752362 -0.03334760
v 0.04016947 -0.01871160 0.00910100
v 0.03449738 -0.02823913 0.01418664
v 0.04085469 -0.00720609 -0.03334760
v 0.04394883 -0.00775256 0.01418664
v 0.04361840 -0.00769613 0.00910100
v 0.04047401 -0.01885118 0.01418664
f 1 2 6
f 1 6 3
f 1 3 9
f 1 9 16
f 1 16 24
f 1 24 20
f 1 20 19
f 1 19 12
f 1 12 11
f 1 11 7
f 1 7 4
f 1 4 2
f 2 5 10
f 2 10 17
f 2 17 25
f 2 25 22
f 2 22 15
f 2 15 14
f 2 14 6
f 2 4 7
f 2 7 5
f 3 6 8
f 3 8 9
f 5 7 11
f 5 11 12
f 5 12 13
f 5 13 21
f 5 21 18
f 5 18 10
f 6 14 8
f 8 14 15
f 8 15 16
f 8 16 9
f 10 18 17
f 12 19 13
f 13 19 20
f 13 20 21
f 15 22 23
f 15 23 16
f 16 23 24
f 17 18 25
f 18 21 20
f 18 20 24
f 18 24 28
f 18 28 26
f 18 26 27
f 18 27 25
f 22 25 23
f 23 27 28
f 23 28 24
f 23 25 27
f 26 28 27

