# https://github.com/mikedh/trimesh
v 0.00000714 0.04117230 -0.03359407
v 0.00000714 0.03979549 -0.06067835
v 0.00000714 0.03919505 -0.03359407
v 0.00720771 0.04085487 -0.03359407
v 0.00696499 0.03948954 -0.06067835
v 0.00000714 0.03670916 -0.06067835
v 0.01696488 0.03633818 -0.06068100
v 0.01565017 0.03351956 -0.06068100
v 0.00000714 0.00210167 -0.03835337
v 0.03872031 0.00210167 -0.03359407
v 0.01318661 0.03896941 -0.03359407
v 0.00000714 0.00210167 -0.05938710
v 0.03680285 0.00210167 -0.06068100
v 0.01755144 0.03759261 -0.03359407
v 0.02576333 0.03070476 -0.06068100
v 0.04126478 0.00210167 -0.03359407
v 0.03988939 0.00210167 -0.06068100
v 0.02665329 0.03176414 -0.03359407
v 0.03088463 0.02716714 -0.03359407
v 0.03397522 0.02380927 -0.03359407
v 0.03283849 0.02301378 -0.06068100
v 0.04133355 0.00360085 -0.03359407
v 0.03995007 0.00348229 -0.06068100
v 0.03609089 0.01975153 -0.03359407
v 0.03768068 0.01371654 -0.06067835
v 0.04034246 0.00807164 -0.03359407
v 0.03898325 0.01419077 -0.03359407
f 1 2 6
f 1 6 12
f 1 12 9
f 1 9 3
f 1 3 10
f 1 10 16
f 1 16 22
f 1 22 26
f 1 26 27
f 1 27 24
f 1 24 20
f 1 20 19
f 1 19 18
f 1 18 14
f 1 14 11
f 1 11 4
f 1 4 5
f 1 5 2
f 2 5 7
f 2 7 8
f 2 8 6
f 3 9 10
f 4 11 7
f 4 7 5
f 6 8 13
f 6 13 12
f 7 14 15
f 7 15 21
f 7 21 23
f 7 23 17
f 7 17 13
f 7 13 8
f 7 11 14
f 9 12 13
f 9 13 17
f 9 17 16
f 9 16 10
f 14 18 15
f 15 18 19
f 15 19 20
f 15 20 21
f 16 17 22
f 17 23 22
f 20 24 21
f 21 24 25
f 21 25 23
f 22 23 26
f 23 25 26
f 24 27 25
f 25 27 26

