# https://github.com/mikedh/trimesh
v 0.03035417 0.03469415 0.03814890
v 0.03035417 0.03097151 0.03814890
v 0.03035417 0.03458982 0.03705339
v 0.02970356 0.03540403 0.03814890
v 0.00001011 0.04465475 0.03814890
v 0.00001011 0.04415169 0.03519243
v 0.00001011 0.04378464 0.03302248
v 0.00001011 0.04242266 0.02168115
v 0.00001011 0.04205002 0.01783985
v 0.00001011 0.04133828 0.01016426
v 0.02773093 0.02684828 -0.03359289
v 0.03035417 0.03082618 0.03338765
v 0.03035417 0.03321665 0.02287498
v 0.02804584 0.03460099 0.01418113
v 0.01955520 0.04189537 0.03814890
v 0.02804584 0.03273967 -0.00798888
v 0.02804584 0.03342532 -0.00088212
v 0.02716647 0.03238194 -0.02152123
v 0.00001011 0.04588259 0.03814890
v 0.00001011 0.03919562 -0.03359289
v 0.02773093 0.03059887 -0.03359289
v 0.03035417 0.03053738 0.01418113
v 0.03035417 0.03237262 0.01418113
v 0.01888676 0.04045886 0.01418113
v 0.02138820 0.03513759 -0.03359289
v 0.00803135 0.04553045 0.03814890
v 0.02664955 0.03177082 -0.03359289
v 0.00775803 0.04396910 0.01418113
v 0.00001011 0.04117059 -0.03359289
v 0.01788262 0.03831806 -0.02152123
v 0.01318871 0.03896831 -0.03359289
v 0.01754395 0.03759327 -0.03359289
v 0.00734509 0.04164198 -0.02152123
v 0.00263632 0.04105507 -0.03359289
v 0.00720843 0.04085385 -0.03359289
f 1 2 12
f 1 12 22
f 1 22 23
f 1 23 13
f 1 13 3
f 1 3 4
f 1 4 15
f 1 15 26
f 1 26 19
f 1 19 5
f 1 5 2
f 2 5 6
f 2 6 7
f 2 7 8
f 2 8 9
f 2 9 10
f 2 10 11
f 2 11 12
f 3 13 4
f 4 14 15
f 4 13 16
f 4 16 17
f 4 17 18
f 4 18 14
f 5 19 29
f 5 29 20
f 5 20 10
f 5 10 9
f 5 9 8
f 5 8 7
f 5 7 6
f 10 20 11
f 11 20 29
f 11 29 34
f 11 34 35
f 11 35 31
f 11 31 32
f 11 32 25
f 11 25 27
f 11 27 21
f 11 21 23
f 11 23 22
f 11 22 12
f 13 23 21
f 13 21 16
f 14 24 15
f 14 18 25
f 14 25 24
f 15 24 26
f 16 21 18
f 16 18 17
f 18 21 27
f 18 27 25
f 19 26 28
f 19 28 29
f 24 25 30
f 24 30 31
f 24 31 28
f 24 28 26
f 25 32 30
f 28 31 33
f 28 33 29
f 29 33 34
f 30 32 31
f 31 35 33
f 33 35 34

