# https://github.com/mikedh/trimesh
v -0.04622367 -0.00000747 0.04387412
v -0.04386162 -0.00000747 0.04387412
v -0.04635090 -0.00000747 0.04647255
v -0.04622551 -0.00000416 0.04387412
v -0.04613885 -0.00000416 0.04214183
v -0.04587517 -0.00000416 0.03814282
v -0.04382843 -0.00000747 0.04463890
v -0.04392984 -0.00000416 0.03814282
v -0.03863597 0.00004218 -0.03345229
v -0.04636196 -0.00000747 0.04673055
v -0.04695570 0.00000908 0.05866307
v -0.04576822 0.00807860 0.04214183
v -0.04430416 0.00004218 0.01418564
v -0.04199742 0.00004218 -0.02091163
v -0.04117319 0.00004218 -0.03345229
v -0.04385424 -0.00000747 0.04655548
v -0.02947542 0.02709725 -0.03345229
v -0.02863275 0.02891769 -0.02091163
v -0.02863275 0.02890114 -0.02059834
v -0.02863275 0.02849071 -0.01271090
v -0.02811830 0.03075467 0.01418564
v -0.04398885 0.00000908 0.05541963
v -0.04385793 -0.00000747 0.04673055
v -0.04695570 0.00000908 0.06067178
v -0.04657585 0.00821762 0.05866307
v -0.04599318 0.00811501 0.04673055
v -0.04585304 0.00809515 0.04387412
v -0.04222791 0.01966654 0.04387412
v -0.04214862 0.01962682 0.04214183
v -0.04191076 0.01951759 0.03814282
v -0.04155857 0.01538684 0.01418564
v -0.03818790 0.01778652 -0.02393392
v -0.04084682 0.00720810 -0.03345229
v -0.04112710 0.00105501 -0.03345229
v -0.02947542 0.02879191 -0.03345229
v -0.02863275 0.03067855 -0.02091163
v -0.02863275 0.03127764 -0.01421283
v -0.02863275 0.03380640 0.01418564
v -0.03305630 0.03137032 0.06067178
v -0.04549532 0.00000908 0.06067178
v -0.03512885 0.02946713 0.06068100
v -0.03625179 0.03041045 0.06068100
v -0.04657585 0.00821762 0.06067178
v -0.04289356 0.01998098 0.05866307
v -0.03569124 0.02993713 0.04387412
v -0.03562302 0.02988417 0.04214183
v -0.03729176 0.02768641 0.04673055
v -0.03542203 0.02971537 0.03814282
v -0.03511226 0.02145719 -0.03345229
v -0.03761444 0.01752173 -0.03345229
v -0.02947542 0.02905008 -0.03055900
v -0.03179137 0.02667027 -0.03345229
v -0.03478957 0.03064876 0.04214183
v -0.03297701 0.03242617 0.04387412
v -0.03297701 0.03261814 0.04673055
v -0.03315033 0.03264793 0.04955934
v -0.03520814 0.03137032 0.06067178
v -0.03625179 0.03041045 0.05866307
v -0.04289356 0.01998098 0.06067178
v -0.03590698 0.03011918 0.04955934
v -0.03454617 0.03137032 0.04955934
v -0.03520814 0.03137032 0.05866307
f 1 2 7
f 1 7 16
f 1 16 23
f 1 23 10
f 1 10 3
f 1 3 4
f 1 4 5
f 1 5 6
f 1 6 8
f 1 8 2
f 2 8 9
f 2 9 7
f 3 10 11
f 3 11 4
f 4 12 5
f 4 11 12
f 5 12 13
f 5 13 14
f 5 14 15
f 5 15 6
f 6 15 9
f 6 9 8
f 7 9 16
f 9 15 34
f 9 34 33
f 9 33 50
f 9 50 49
f 9 49 52
f 9 52 35
f 9 35 17
f 9 17 18
f 9 18 19
f 9 19 20
f 9 20 21
f 9 21 22
f 9 22 23
f 9 23 16
f 10 23 40
f 10 40 24
f 10 24 11
f 11 24 43
f 11 43 25
f 11 25 26
f 11 26 27
f 11 27 12
f 12 27 28
f 12 28 29
f 12 29 30
f 12 30 31
f 12 31 32
f 12 32 33
f 12 33 13
f 13 33 34
f 13 34 14
f 14 34 15
f 17 35 36
f 17 36 18
f 18 36 21
f 18 21 19
f 19 21 20
f 21 36 37
f 21 37 38
f 21 38 39
f 21 39 22
f 22 39 40
f 22 40 23
f 24 40 41
f 24 41 42
f 24 42 43
f 25 43 59
f 25 59 44
f 25 44 27
f 25 27 26
f 27 44 28
f 28 45 46
f 28 46 29
f 28 44 47
f 28 47 45
f 29 46 30
f 30 46 48
f 30 48 32
f 30 32 31
f 32 49 50
f 32 50 33
f 32 48 49
f 35 51 37
f 35 37 36
f 35 52 51
f 37 51 38
f 38 51 52
f 38 52 48
f 38 48 53
f 38 53 54
f 38 54 55
f 38 55 56
f 38 56 39
f 39 56 57
f 39 57 42
f 39 42 41
f 39 41 40
f 42 57 62
f 42 62 58
f 42 58 44
f 42 44 59
f 42 59 43
f 44 58 47
f 45 47 60
f 45 60 46
f 46 53 48
f 46 60 61
f 46 61 53
f 47 58 60
f 48 52 49
f 53 61 54
f 54 61 55
f 55 61 56
f 56 61 62
f 56 62 57
f 58 62 60
f 60 62 61

