# https://github.com/mikedh/trimesh
v 0.00400000 0.00000000 0.01999983
v 0.00380345 0.00123571 0.01999983
v 0.00361785 0.00117541 0.02123524
v 0.00380345 0.00000000 0.02123524
v 0.00361785 -0.00117541 0.02123524
v 0.00380345 -0.00123571 0.01999983
v 0.00361785 -0.00117541 0.01876443
v 0.00380345 0.00000000 0.01876443
v 0.00361785 0.00117541 0.01876443
v 0.00323571 0.00235082 0.01999983
v 0.00307753 0.00223571 0.02123524
v 0.00307753 0.00100000 0.02235070
v 0.00323571 0.00000000 0.02235070
v 0.00307753 -0.00223571 0.02123524
v 0.00323571 -0.00235082 0.01999983
v 0.00307753 -0.00100000 0.02235070
v 0.00307753 -0.00223571 0.01876443
v 0.00307753 -0.00100000 0.01764975
v 0.00323571 0.00000000 0.01764975
v 0.00307753 0.00100000 0.01764975
v 0.00307753 0.00223571 0.01876443
v 0.00235082 0.00323571 0.01999983
v 0.00223571 0.00307753 0.02123524
v 0.00261785 0.00190133 0.02235070
v 0.00223571 0.00072670 0.02323571
v 0.00235082 0.00000000 0.02323571
v 0.00223571 -0.00307753 0.02123524
v 0.00261785 -0.00190133 0.02235070
v 0.00235082 -0.00323571 0.01999983
v 0.00223571 -0.00072670 0.02323571
v 0.00223571 -0.00307753 0.01876443
v 0.00261785 -0.00190133 0.01764975
v 0.00223571 -0.00072670 0.01676474
v 0.00235082 0.00000000 0.01676474
v 0.00223571 0.00072670 0.01676474
v 0.00261785 0.00190133 0.01764975
v 0.00223571 0.00307753 0.01876443
v 0.00117541 0.00361785 0.01876443
v 0.00123571 0.00380345 0.01999983
v 0.00117541 0.00361785 0.02123524
v 0.00100000 0.00307753 0.02235070
v 0.00190133 0.00261785 0.02235070
v 0.00190133 0.00138136 0.02323571
v 0.00100000 0.00072670 0.02380324
v 0.00117541 0.00038136 0.02380324
v 0.00123571 0.00000000 0.02380324
v 0.00117541 -0.00038136 0.02380324
v 0.00117541 -0.00361785 0.02123524
v 0.00190133 -0.00261785 0.02235070
v 0.00100000 -0.00307753 0.02235070
v 0.00190133 -0.00138136 0.02323571
v 0.00123571 -0.00380345 0.01999983
v 0.00117541 -0.00361785 0.01876443
v 0.00100000 -0.00072670 0.02380324
v 0.00100000 -0.00307753 0.01764975
v 0.00190133 -0.00261785 0.01764975
v 0.00190133 -0.00138136 0.01676474
v 0.00100000 -0.00072670 0.01619642
v 0.00117541 -0.00038136 0.01619642
v 0.00123571 0.00000000 0.01619642
v 0.00117541 0.00038136 0.01619642
v 0.00100000 0.00072670 0.01619642
v 0.00190133 0.00138136 0.01676474
v 0.00190133 0.00261785 0.01764975
v 0.00100000 0.00307753 0.01764975
v 0.00000000 0.00323571 0.01764975
v 0.00000000 0.00380345 0.01876443
v 0.00000000 0.00400000 0.01999983
v 0.00000000 0.00380345 0.02123524
v 0.00000000 0.00323571 0.02235070
v 0.00000000 0.00235082 0.02323571
v 0.00072670 0.00223571 0.02323571
v 0.00138136 0.00190133 0.02323571
v 0.00000000 0.00000000 0.02400000
v 0.00072670 0.00100000 0.02380324
v 0.00000000 -0.00380345 0.02123524
v 0.00000000 -0.00400000 0.01999983
v 0.00000000 -0.00323571 0.02235070
v 0.00138136 -0.00190133 0.02323571
v 0.00072670 -0.00223571 0.02323571
v 0.00000000 -0.00235082 0.02323571
v 0.00000000 -0.00380345 0.01876443
v 0.00000000 -0.00323571 0.01764975
v 0.00072670 -0.00100000 0.02380324
v 0.00000000 -0.00235082 0.01676474
v 0.00072670 -0.00223571 0.01676474
v 0.00138136 -0.00190133 0.01676474
v 0.00072670 -0.00100000 0.01619642
v 0.00005717 -0.00005717 0.01599261
v 0.00006578 -0.00004777 0.01599261
v 0.00007204 -0.00003681 0.01599261
v 0.00007753 -0.00002506 0.01599261
v 0.00008066 -0.00001253 0.01599261
v 0.00008144 0.00000000 0.01599261
v 0.00008066 0.00001253 0.01599261
v 0.00007753 0.00002506 0.01599261
v 0.00007204 0.00003681 0.01599261
v 0.00006578 0.00004777 0.01599261
v 0.00005717 0.00005717 0.01599261
v 0.00072670 0.00100000 0.01619642
v 0.00138136 0.00190133 0.01676474
v 0.00072670 0.00223571 0.01676474
v 0.00000000 0.00235082 0.01676474
v -0.00100000 0.00307753 0.01764975
v -0.00117541 0.00361785 0.01876443
v -0.00123571 0.00380345 0.01999983
v -0.00117541 0.00361785 0.02123524
v -0.00100000 0.00307753 0.02235070
v -0.00072670 0.00223571 0.02323571
v -0.00038136 0.00117541 0.02380324
v 0.00000000 0.00123571 0.02380324
v 0.00038136 0.00117541 0.02380324
v -0.00072670 0.00100000 0.02380324
v -0.00100000 0.00072670 0.02380324
v -0.00117541 0.00038136 0.02380324
v -0.00123571 0.00000000 0.02380324
v -0.00117541 -0.00038136 0.02380324
v -0.00100000 -0.00072670 0.02380324
v -0.00072670 -0.00100000 0.02380324
v -0.00038136 -0.00117541 0.02380324
v 0.00000000 -0.00123571 0.02380324
v 0.00038136 -0.00117541 0.02380324
v -0.00117541 -0.00361785 0.02123524
v -0.00123571 -0.00380345 0.01999983
v -0.00117541 -0.00361785 0.01876443
v -0.00100000 -0.00307753 0.02235070
v -0.00072670 -0.00223571 0.02323571
v -0.00100000 -0.00307753 0.01764975
v -0.00072670 -0.00223571 0.01676474
v -0.00038136 -0.00117541 0.01619642
v 0.00000000 -0.00123571 0.01619642
v 0.00038136 -0.00117541 0.01619642
v 0.00003681 -0.00007204 0.01599261
v 0.00004777 -0.00006578 0.01599261
v 0.00004777 0.00006578 0.01599261
v 0.00003681 0.00007204 0.01599261
v 0.00038136 0.00117541 0.01619642
v -0.00072670 0.00223571 0.01676474
v 0.00000000 0.00123571 0.01619642
v -0.00038136 0.00117541 0.01619642
v -0.00190133 0.00261785 0.01764975
v -0.00223571 0.00307753 0.01876443
v -0.00235082 0.00323571 0.01999983
v -0.00223571 0.00307753 0.02123524
v -0.00190133 0.00261785 0.02235070
v -0.00138136 0.00190133 0.02323571
v -0.00190133 0.00138136 0.02323571
v -0.00223571 0.00072670 0.02323571
v -0.00235082 0.00000000 0.02323571
v -0.00223571 -0.00072670 0.02323571
v -0.00190133 -0.00138136 0.02323571
v -0.00138136 -0.00190133 0.02323571
v -0.00223571 -0.00307753 0.02123524
v -0.00235082 -0.00323571 0.01999983
v -0.00223571 -0.00307753 0.01876443
v -0.00190133 -0.00261785 0.02235070
v -0.00190133 -0.00261785 0.01764975
v -0.00138136 -0.00190133 0.01676474
v -0.00072670 -0.00100000 0.01619642
v -0.00003681 -0.00007204 0.01599261
v -0.00002506 -0.00007753 0.01599261
v -0.00001253 -0.00008066 0.01599261
v 0.00000000 -0.00008144 0.01599261
v 0.00001253 -0.00008066 0.01599261
v 0.00002506 -0.00007753 0.01599261
v 0.00002506 0.00007753 0.01599261
v 0.00001253 0.00008066 0.01599261
v -0.00138136 0.00190133 0.01676474
v -0.00072670 0.00100000 0.01619642
v 0.00000000 0.00008144 0.01599261
v -0.00001253 0.00008066 0.01599261
v -0.00002506 0.00007753 0.01599261
v -0.00003681 0.00007204 0.01599261
v -0.00261785 0.00190133 0.01764975
v -0.00307753 0.00223571 0.01876443
v -0.00323571 0.00235082 0.01999983
v -0.00307753 0.00223571 0.02123524
v -0.00261785 0.00190133 0.02235070
v -0.00307753 0.00100000 0.02235070
v -0.00323571 0.00000000 0.02235070
v -0.00307753 -0.00100000 0.02235070
v -0.00261785 -0.00190133 0.02235070
v -0.00307753 -0.00223571 0.02123524
v -0.00323571 -0.00235082 0.01999983
v -0.00307753 -0.00223571 0.01876443
v -0.00261785 -0.00190133 0.01764975
v -0.00190133 -0.00138136 0.01676474
v -0.00100000 -0.00072670 0.01619642
v -0.00005717 -0.00005717 0.01599261
v -0.00004777 -0.00006578 0.01599261
v -0.00190133 0.00138136 0.01676474
v -0.00100000 0.00072670 0.01619642
v -0.00004777 0.00006578 0.01599261
v -0.00005717 0.00005717 0.01599261
v -0.00223571 0.00072670 0.01676474
v -0.00307753 0.00100000 0.01764975
v -0.00361785 0.00117541 0.01876443
v -0.00380345 0.00123571 0.01999983
v -0.00361785 0.00117541 0.02123524
v -0.00380345 0.00000000 0.02123524
v -0.00361785 -0.00117541 0.02123524
v -0.00380345 -0.00123571 0.01999983
v -0.00361785 -0.00117541 0.01876443
v -0.00307753 -0.00100000 0.01764975
v -0.00223571 -0.00072670 0.01676474
v -0.00117541 -0.00038136 0.01619642
v -0.00007204 -0.00003681 0.01599261
v -0.00006578 -0.00004777 0.01599261
v -0.00117541 0.00038136 0.01619642
v -0.00006578 0.00004777 0.01599261
v -0.00007204 0.00003681 0.01599261
v -0.00235082 0.00000000 0.01676474
v -0.00323571 0.00000000 0.01764975
v -0.00380345 0.00000000 0.01876443
v -0.00400000 0.00000000 0.01999983
v -0.00123571 0.00000000 0.01619642
v -0.00008066 -0.00001253 0.01599261
v -0.00007753 -0.00002506 0.01599261
v -0.00007753 0.00002506 0.01599261
v -0.00008066 0.00001253 0.01599261
v -0.00008144 0.00000000 0.01599261
f 1 2 3
f 1 3 4
f 1 4 5
f 1 5 6
f 1 6 7
f 1 7 8
f 1 8 9
f 1 9 2
f 2 9 10
f 2 10 3
f 3 10 11
f 3 11 12
f 3 12 13
f 3 13 4
f 4 13 5
f 5 14 15
f 5 15 6
f 5 13 16
f 5 16 14
f 6 15 7
f 7 17 18
f 7 18 19
f 7 19 8
f 7 15 17
f 8 19 9
f 9 19 20
f 9 20 21
f 9 21 10
f 10 21 37
f 10 37 22
f 10 22 23
f 10 23 11
f 11 23 42
f 11 42 24
f 11 24 12
f 12 24 25
f 12 25 26
f 12 26 13
f 13 26 16
f 14 27 29
f 14 29 15
f 14 16 28
f 14 28 49
f 14 49 27
f 15 29 31
f 15 31 17
f 16 26 30
f 16 30 28
f 17 31 56
f 17 56 32
f 17 32 18
f 18 32 33
f 18 33 34
f 18 34 19
f 19 34 20
f 20 34 35
f 20 35 36
f 20 36 21
f 21 36 64
f 21 64 37
f 22 37 38
f 22 38 39
f 22 39 40
f 22 40 23
f 23 40 41
f 23 41 42
f 24 42 73
f 24 73 43
f 24 43 25
f 25 43 44
f 25 44 45
f 25 45 26
f 26 45 46
f 26 46 47
f 26 47 30
f 27 48 29
f 27 49 50
f 27 50 48
f 28 30 51
f 28 51 79
f 28 79 49
f 29 52 53
f 29 53 31
f 29 48 52
f 30 47 54
f 30 54 51
f 31 53 55
f 31 55 56
f 32 56 87
f 32 87 57
f 32 57 33
f 33 57 58
f 33 58 59
f 33 59 34
f 34 59 60
f 34 60 61
f 34 61 35
f 35 61 62
f 35 62 63
f 35 63 36
f 36 63 101
f 36 101 64
f 37 64 65
f 37 65 38
f 38 65 66
f 38 66 67
f 38 67 68
f 38 68 39
f 39 68 40
f 40 68 69
f 40 69 70
f 40 70 41
f 41 70 71
f 41 71 72
f 41 72 42
f 42 72 73
f 43 73 75
f 43 75 44
f 44 74 45
f 44 75 74
f 45 74 46
f 46 74 47
f 47 74 54
f 48 76 77
f 48 77 52
f 48 50 78
f 48 78 76
f 49 79 80
f 49 80 50
f 50 80 81
f 50 81 78
f 51 54 84
f 51 84 79
f 52 77 53
f 53 77 82
f 53 82 83
f 53 83 55
f 54 74 84
f 55 83 85
f 55 85 86
f 55 86 56
f 56 86 87
f 57 87 88
f 57 88 58
f 58 88 89
f 58 89 90
f 58 90 91
f 58 91 59
f 59 91 92
f 59 92 93
f 59 93 60
f 60 93 94
f 60 94 95
f 60 95 61
f 61 95 96
f 61 96 97
f 61 97 62
f 62 97 98
f 62 98 99
f 62 99 100
f 62 100 101
f 62 101 63
f 64 101 102
f 64 102 65
f 65 102 103
f 65 103 66
f 66 103 104
f 66 104 105
f 66 105 67
f 67 105 68
f 68 105 106
f 68 106 107
f 68 107 69
f 69 107 70
f 70 107 108
f 70 108 71
f 71 108 109
f 71 109 110
f 71 110 111
f 71 111 112
f 71 112 72
f 72 112 75
f 72 75 73
f 74 75 112
f 74 112 111
f 74 111 110
f 74 110 113
f 74 113 114
f 74 114 115
f 74 115 116
f 74 116 117
f 74 117 118
f 74 118 119
f 74 119 120
f 74 120 121
f 74 121 122
f 74 122 84
f 76 123 77
f 76 78 123
f 77 124 125
f 77 125 82
f 77 123 124
f 78 126 123
f 78 81 126
f 79 84 80
f 80 84 122
f 80 122 81
f 81 127 126
f 81 122 121
f 81 121 120
f 81 120 127
f 82 125 83
f 83 125 128
f 83 128 85
f 85 128 129
f 85 129 130
f 85 130 131
f 85 131 132
f 85 132 86
f 86 132 88
f 86 88 87
f 88 132 133
f 88 133 134
f 88 134 89
f 89 134 133
f 89 133 165
f 89 165 164
f 89 164 163
f 89 163 162
f 89 162 161
f 89 161 160
f 89 160 190
f 89 190 189
f 89 189 208
f 89 208 207
f 89 207 218
f 89 218 217
f 89 217 221
f 89 221 220
f 89 220 219
f 89 219 211
f 89 211 210
f 89 210 194
f 89 194 193
f 89 193 173
f 89 173 172
f 89 172 171
f 89 171 170
f 89 170 167
f 89 167 166
f 89 166 136
f 89 136 135
f 89 135 99
f 89 99 98
f 89 98 97
f 89 97 96
f 89 96 95
f 89 95 94
f 89 94 93
f 89 93 92
f 89 92 91
f 89 91 90
f 99 135 100
f 100 102 101
f 100 135 136
f 100 136 137
f 100 137 102
f 102 137 103
f 103 138 104
f 103 137 139
f 103 139 140
f 103 140 138
f 104 138 141
f 104 141 142
f 104 142 105
f 105 142 143
f 105 143 106
f 106 143 107
f 107 143 144
f 107 144 108
f 108 144 145
f 108 145 109
f 109 145 146
f 109 146 113
f 109 113 110
f 113 146 147
f 113 147 114
f 114 147 148
f 114 148 115
f 115 148 149
f 115 149 116
f 116 149 117
f 117 149 150
f 117 150 118
f 118 150 151
f 118 151 152
f 118 152 119
f 119 152 127
f 119 127 120
f 123 153 154
f 123 154 124
f 123 126 153
f 124 154 125
f 125 154 155
f 125 155 128
f 126 127 156
f 126 156 153
f 127 152 156
f 128 157 129
f 128 155 157
f 129 157 158
f 129 158 159
f 129 159 130
f 130 159 160
f 130 160 161
f 130 161 162
f 130 162 131
f 131 162 163
f 131 163 164
f 131 164 132
f 132 164 165
f 132 165 133
f 136 166 137
f 137 166 167
f 137 167 139
f 138 168 141
f 138 140 169
f 138 169 168
f 139 167 170
f 139 170 171
f 139 171 140
f 140 171 172
f 140 172 173
f 140 173 169
f 141 168 191
f 141 191 174
f 141 174 175
f 141 175 142
f 142 175 176
f 142 176 143
f 143 176 177
f 143 177 144
f 144 177 178
f 144 178 145
f 145 178 147
f 145 147 146
f 147 178 148
f 148 178 179
f 148 179 149
f 149 179 180
f 149 180 181
f 149 181 150
f 150 181 182
f 150 182 151
f 151 182 156
f 151 156 152
f 153 156 182
f 153 182 183
f 153 183 184
f 153 184 154
f 154 184 185
f 154 185 155
f 155 185 186
f 155 186 157
f 157 186 187
f 157 187 158
f 158 187 188
f 158 188 159
f 159 188 189
f 159 189 190
f 159 190 160
f 168 169 192
f 168 192 191
f 169 173 193
f 169 193 194
f 169 194 192
f 174 191 195
f 174 195 196
f 174 196 175
f 175 197 176
f 175 196 197
f 176 198 199
f 176 199 177
f 176 197 198
f 177 199 179
f 177 179 178
f 179 199 180
f 180 199 200
f 180 200 201
f 180 201 181
f 181 201 183
f 181 183 182
f 183 201 184
f 184 201 202
f 184 202 203
f 184 203 185
f 185 203 204
f 185 204 186
f 186 204 205
f 186 205 187
f 187 205 188
f 188 205 206
f 188 206 207
f 188 207 208
f 188 208 189
f 191 192 195
f 192 209 195
f 192 194 210
f 192 210 211
f 192 211 209
f 195 212 196
f 195 209 212
f 196 212 213
f 196 213 197
f 197 214 215
f 197 215 198
f 197 213 214
f 198 215 199
f 199 215 200
f 200 215 201
f 201 215 202
f 202 215 203
f 203 215 214
f 203 214 213
f 203 213 204
f 204 213 212
f 204 212 205
f 205 212 206
f 206 212 216
f 206 216 217
f 206 217 218
f 206 218 207
f 209 216 212
f 209 211 219
f 209 219 220
f 209 220 216
f 216 220 221
f 216 221 217

