mtllib material.mtl
usemtl Porcelain_White
v 0.00000000 0.00000000 0.00000000
v 0.02000000 0.00000000 0.00000000
v 0.02000000 0.00000000 0.00400000
v 0.03800000 0.00000000 0.00400000
v 0.03800000 0.00000000 0.00700000
v 0.03000000 0.00000000 0.01100000
v 0.02000000 0.00000000 0.01400000
v 0.00000000 0.00000000 0.01600000
v 0.01975400 0.00312900 0.00000000
v 0.01975400 0.00312900 0.00400000
v 0.03753200 0.00594500 0.00400000
v 0.03753200 0.00594500 0.00700000
v 0.02963100 0.00469300 0.01100000
v 0.01975400 0.00312900 0.01400000
v 0.01902100 0.00618000 0.00000000
v 0.01902100 0.00618000 0.00400000
v 0.03614000 0.01174300 0.00400000
v 0.03614000 0.01174300 0.00700000
v 0.02853200 0.00927100 0.01100000
v 0.01902100 0.00618000 0.01400000
v 0.01782000 0.00908000 0.00000000
v 0.01782000 0.00908000 0.00400000
v 0.03385800 0.01725200 0.00400000
v 0.03385800 0.01725200 0.00700000
v 0.02673000 0.01362000 0.01100000
v 0.01782000 0.00908000 0.01400000
v 0.01618000 0.01175600 0.00000000
v 0.01618000 0.01175600 0.00400000
v 0.03074300 0.02233600 0.00400000
v 0.03074300 0.02233600 0.00700000
v 0.02427100 0.01763400 0.01100000
v 0.01618000 0.01175600 0.01400000
v 0.01414200 0.01414200 0.00000000
v 0.01414200 0.01414200 0.00400000
v 0.02687000 0.02687000 0.00400000
v 0.02687000 0.02687000 0.00700000
v 0.02121300 0.02121300 0.01100000
v 0.01414200 0.01414200 0.01400000
v 0.01175600 0.01618000 0.00000000
v 0.01175600 0.01618000 0.00400000
v 0.02233600 0.03074300 0.00400000
v 0.02233600 0.03074300 0.00700000
v 0.01763400 0.02427100 0.01100000
v 0.01175600 0.01618000 0.01400000
v 0.00908000 0.01782000 0.00000000
v 0.00908000 0.01782000 0.00400000
v 0.01725200 0.03385800 0.00400000
v 0.01725200 0.03385800 0.00700000
v 0.01362000 0.02673000 0.01100000
v 0.00908000 0.01782000 0.01400000
v 0.00618000 0.01902100 0.00000000
v 0.00618000 0.01902100 0.00400000
v 0.01174300 0.03614000 0.00400000
v 0.01174300 0.03614000 0.00700000
v 0.00927100 0.02853200 0.01100000
v 0.00618000 0.01902100 0.01400000
v 0.00312900 0.01975400 0.00000000
v 0.00312900 0.01975400 0.00400000
v 0.00594500 0.03753200 0.00400000
v 0.00594500 0.03753200 0.00700000
v 0.00469300 0.02963100 0.01100000
v 0.00312900 0.01975400 0.01400000
v -0.00000000 0.02000000 0.00000000
v -0.00000000 0.02000000 0.00400000
v -0.00000000 0.03800000 0.00400000
v -0.00000000 0.03800000 0.00700000
v -0.00000000 0.03000000 0.01100000
v -0.00000000 0.02000000 0.01400000
v -0.00312900 0.01975400 0.00000000
v -0.00312900 0.01975400 0.00400000
v -0.00594500 0.03753200 0.00400000
v -0.00594500 0.03753200 0.00700000
v -0.00469300 0.02963100 0.01100000
v -0.00312900 0.01975400 0.01400000
v -0.00618000 0.01902100 0.00000000
v -0.00618000 0.01902100 0.00400000
v -0.01174300 0.03614000 0.00400000
v -0.01174300 0.03614000 0.00700000
v -0.00927100 0.02853200 0.01100000
v -0.00618000 0.01902100 0.01400000
v -0.00908000 0.01782000 0.00000000
v -0.00908000 0.01782000 0.00400000
v -0.01725200 0.03385800 0.00400000
v -0.01725200 0.03385800 0.00700000
v -0.01362000 0.02673000 0.01100000
v -0.00908000 0.01782000 0.01400000
v -0.01175600 0.01618000 0.00000000
v -0.01175600 0.01618000 0.00400000
v -0.02233600 0.03074300 0.00400000
v -0.02233600 0.03074300 0.00700000
v -0.01763400 0.02427100 0.01100000
v -0.01175600 0.01618000 0.01400000
v -0.01414200 0.01414200 0.00000000
v -0.01414200 0.01414200 0.00400000
v -0.02687000 0.02687000 0.00400000
v -0.02687000 0.02687000 0.00700000
v -0.02121300 0.02121300 0.01100000
v -0.01414200 0.01414200 0.01400000
v -0.01618000 0.01175600 0.00000000
v -0.01618000 0.01175600 0.00400000
v -0.03074300 0.02233600 0.00400000
v -0.03074300 0.02233600 0.00700000
v -0.02427100 0.01763400 0.01100000
v -0.01618000 0.01175600 0.01400000
v -0.01782000 0.00908000 0.00000000
v -0.01782000 0.00908000 0.00400000
v -0.03385800 0.01725200 0.00400000
v -0.03385800 0.01725200 0.00700000
v -0.02673000 0.01362000 0.01100000
v -0.01782000 0.00908000 0.01400000
v -0.01902100 0.00618000 0.00000000
v -0.01902100 0.00618000 0.00400000
v -0.03614000 0.01174300 0.00400000
v -0.03614000 0.01174300 0.00700000
v -0.02853200 0.00927100 0.01100000
v -0.01902100 0.00618000 0.01400000
v -0.01975400 0.00312900 0.00000000
v -0.01975400 0.00312900 0.00400000
v -0.03753200 0.00594500 0.00400000
v -0.03753200 0.00594500 0.00700000
v -0.02963100 0.00469300 0.01100000
v -0.01975400 0.00312900 0.01400000
v -0.02000000 -0.00000000 0.00000000
v -0.02000000 -0.00000000 0.00400000
v -0.03800000 -0.00000000 0.00400000
v -0.03800000 -0.00000000 0.00700000
v -0.03000000 -0.00000000 0.01100000
v -0.02000000 -0.00000000 0.01400000
v -0.01975400 -0.00312900 0.00000000
v -0.01975400 -0.00312900 0.00400000
v -0.03753200 -0.00594500 0.00400000
v -0.03753200 -0.00594500 0.00700000
v -0.02963100 -0.00469300 0.01100000
v -0.01975400 -0.00312900 0.01400000
v -0.01902100 -0.00618000 0.00000000
v -0.01902100 -0.00618000 0.00400000
v -0.03614000 -0.01174300 0.00400000
v -0.03614000 -0.01174300 0.00700000
v -0.02853200 -0.00927100 0.01100000
v -0.01902100 -0.00618000 0.01400000
v -0.01782000 -0.00908000 0.00000000
v -0.01782000 -0.00908000 0.00400000
v -0.03385800 -0.01725200 0.00400000
v -0.03385800 -0.01725200 0.00700000
v -0.02673000 -0.01362000 0.01100000
v -0.01782000 -0.00908000 0.01400000
v -0.01618000 -0.01175600 0.00000000
v -0.01618000 -0.01175600 0.00400000
v -0.03074300 -0.02233600 0.00400000
v -0.03074300 -0.02233600 0.00700000
v -0.02427000 -0.01763400 0.01100000
v -0.01618000 -0.01175600 0.01400000
v -0.01414200 -0.01414200 0.00000000
v -0.01414200 -0.01414200 0.00400000
v -0.02687000 -0.02687000 0.00400000
v -0.02687000 -0.02687000 0.00700000
v -0.02121300 -0.02121300 0.01100000
v -0.01414200 -0.01414200 0.01400000
v -0.01175600 -0.01618000 0.00000000
v -0.01175600 -0.01618000 0.00400000
v -0.02233600 -0.03074300 0.00400000
v -0.02233600 -0.03074300 0.00700000
v -0.01763400 -0.02427000 0.01100000
v -0.01175600 -0.01618000 0.01400000
v -0.00908000 -0.01782000 0.00000000
v -0.00908000 -0.01782000 0.00400000
v -0.01725200 -0.03385800 0.00400000
v -0.01725200 -0.03385800 0.00700000
v -0.01362000 -0.02673000 0.01100000
v -0.00908000 -0.01782000 0.01400000
v -0.00618000 -0.01902100 0.00000000
v -0.00618000 -0.01902100 0.00400000
v -0.01174300 -0.03614000 0.00400000
v -0.01174300 -0.03614000 0.00700000
v -0.00927100 -0.02853200 0.01100000
v -0.00618000 -0.01902100 0.01400000
v -0.00312900 -0.01975400 0.00000000
v -0.00312900 -0.01975400 0.00400000
v -0.00594400 -0.03753200 0.00400000
v -0.00594400 -0.03753200 0.00700000
v -0.00469300 -0.02963100 0.01100000
v -0.00312900 -0.01975400 0.01400000
v -0.00000000 -0.02000000 0.00000000
v -0.00000000 -0.02000000 0.00400000
v -0.00000000 -0.03800000 0.00400000
v -0.00000000 -0.03800000 0.00700000
v -0.00000000 -0.03000000 0.01100000
v -0.00000000 -0.02000000 0.01400000
v 0.00312900 -0.01975400 0.00000000
v 0.00312900 -0.01975400 0.00400000
v 0.00594500 -0.03753200 0.00400000
v 0.00594500 -0.03753200 0.00700000
v 0.00469300 -0.02963100 0.01100000
v 0.00312900 -0.01975400 0.01400000
v 0.00618000 -0.01902100 0.00000000
v 0.00618000 -0.01902100 0.00400000
v 0.01174300 -0.03614000 0.00400000
v 0.01174300 -0.03614000 0.00700000
v 0.00927100 -0.02853200 0.01100000
v 0.00618000 -0.01902100 0.01400000
v 0.00908000 -0.01782000 0.00000000
v 0.00908000 -0.01782000 0.00400000
v 0.01725200 -0.03385800 0.00400000
v 0.01725200 -0.03385800 0.00700000
v 0.01362000 -0.02673000 0.01100000
v 0.00908000 -0.01782000 0.01400000
v 0.01175600 -0.01618000 0.00000000
v 0.01175600 -0.01618000 0.00400000
v 0.02233600 -0.03074300 0.00400000
v 0.02233600 -0.03074300 0.00700000
v 0.01763400 -0.02427000 0.01100000
v 0.01175600 -0.01618000 0.01400000
v 0.01414200 -0.01414200 0.00000000
v 0.01414200 -0.01414200 0.00400000
v 0.02687000 -0.02687000 0.00400000
v 0.02687000 -0.02687000 0.00700000
v 0.02121300 -0.02121300 0.01100000
v 0.01414200 -0.01414200 0.01400000
v 0.01618000 -0.01175600 0.00000000
v 0.01618000 -0.01175600 0.00400000
v 0.03074300 -0.02233600 0.00400000
v 0.03074300 -0.02233600 0.00700000
v 0.02427100 -0.01763400 0.01100000
v 0.01618000 -0.01175600 0.01400000
v 0.01782000 -0.00908000 0.00000000
v 0.01782000 -0.00908000 0.00400000
v 0.03385800 -0.01725200 0.00400000
v 0.03385800 -0.01725200 0.00700000
v 0.02673000 -0.01362000 0.01100000
v 0.01782000 -0.00908000 0.01400000
v 0.01902100 -0.00618000 0.00000000
v 0.01902100 -0.00618000 0.00400000
v 0.03614000 -0.01174300 0.00400000
v 0.03614000 -0.01174300 0.00700000
v 0.02853200 -0.00927100 0.01100000
v 0.01902100 -0.00618000 0.01400000
v 0.01975400 -0.00312900 0.00000000
v 0.01975400 -0.00312900 0.00400000
v 0.03753200 -0.00594500 0.00400000
v 0.03753200 -0.00594500 0.00700000
v 0.02963100 -0.00469300 0.01100000
v 0.01975400 -0.00312900 0.01400000
v 0.00000000 0.00000000 0.02400000
v 0.00000000 0.00235100 0.02323600
v 0.00000000 0.00323600 0.02235100
v 0.00000000 0.00323600 0.01764900
v 0.00000000 0.00235100 0.01676400
v 0.00000000 0.00123600 0.01619600
v 0.00000000 0.00000000 0.01600000
v 0.00038200 0.00117600 0.02380400
v 0.00072700 0.00223600 0.02323600
v 0.00100000 0.00307800 0.02235100
v 0.00117600 0.00361800 0.02123600
v 0.00123600 0.00380400 0.02000000
v 0.00117600 0.00361800 0.01876400
v 0.00100000 0.00307800 0.01764900
v 0.00072700 0.00223600 0.01676400
v 0.00038200 0.00117600 0.01619600
v 0.00072700 0.00100000 0.02380400
v 0.00138200 0.00190200 0.02323600
v 0.00190200 0.00261800 0.02235100
v 0.00223600 0.00307800 0.02123600
v 0.00235100 0.00323600 0.02000000
v 0.00223600 0.00307800 0.01876400
v 0.00190200 0.00261800 0.01764900
v 0.00138200 0.00190200 0.01676400
v 0.00072700 0.00100000 0.01619600
v 0.00100000 0.00072700 0.02380400
v 0.00190200 0.00138200 0.02323600
v 0.00261800 0.00190200 0.02235100
v 0.00307800 0.00223600 0.02123600
v 0.00323600 0.00235100 0.02000000
v 0.00307800 0.00223600 0.01876400
v 0.00261800 0.00190200 0.01764900
v 0.00190200 0.00138200 0.01676400
v 0.00100000 0.00072700 0.01619600
v 0.00117600 0.00038200 0.02380400
v 0.00223600 0.00072700 0.02323600
v 0.00307800 0.00100000 0.02235100
v 0.00361800 0.00117600 0.02123600
v 0.00380400 0.00123600 0.02000000
v 0.00361800 0.00117600 0.01876400
v 0.00307800 0.00100000 0.01764900
v 0.00223600 0.00072700 0.01676400
v 0.00117600 0.00038200 0.01619600
v 0.00123600 0.00000000 0.02380400
v 0.00235100 0.00000000 0.02323600
v 0.00323600 0.00000000 0.02235100
v 0.00380400 0.00000000 0.02123600
v 0.00400000 -0.00000000 0.02000000
v 0.00380400 0.00000000 0.01876400
v 0.00323600 0.00000000 0.01764900
v 0.00235100 0.00000000 0.01676400
v 0.00123600 0.00000000 0.01619600
v 0.00117600 -0.00038200 0.02380400
v 0.00223600 -0.00072700 0.02323600
v 0.00307800 -0.00100000 0.02235100
v 0.00361800 -0.00117600 0.02123600
v 0.00380400 -0.00123600 0.02000000
v 0.00361800 -0.00117600 0.01876400
v 0.00307800 -0.00100000 0.01764900
v 0.00223600 -0.00072700 0.01676400
v 0.00117600 -0.00038200 0.01619600
v 0.00100000 -0.00072700 0.02380400
v 0.00190200 -0.00138200 0.02323600
v 0.00261800 -0.00190200 0.02235100
v 0.00307800 -0.00223600 0.02123600
v 0.00323600 -0.00235100 0.02000000
v 0.00307800 -0.00223600 0.01876400
v 0.00261800 -0.00190200 0.01764900
v 0.00190200 -0.00138200 0.01676400
v 0.00100000 -0.00072700 0.01619600
v 0.00072700 -0.00100000 0.02380400
v 0.00138200 -0.00190200 0.02323600
v 0.00190200 -0.00261800 0.02235100
v 0.00223600 -0.00307800 0.02123600
v 0.00235100 -0.00323600 0.02000000
v 0.00223600 -0.00307800 0.01876400
v 0.00190200 -0.00261800 0.01764900
v 0.00138200 -0.00190200 0.01676400
v 0.00072700 -0.00100000 0.01619600
v 0.00038200 -0.00117600 0.02380400
v 0.00072700 -0.00223600 0.02323600
v 0.00100000 -0.00307800 0.02235100
v 0.00117600 -0.00361800 0.02123600
v 0.00123600 -0.00380400 0.02000000
v 0.00117600 -0.00361800 0.01876400
v 0.00100000 -0.00307800 0.01764900
v 0.00072700 -0.00223600 0.01676400
v 0.00038200 -0.00117600 0.01619600
v -0.00000000 -0.00123600 0.02380400
v 0.00000000 -0.00235100 0.02323600
v -0.00000000 -0.00323600 0.02235100
v -0.00000000 -0.00380400 0.02123600
v -0.00000000 -0.00400000 0.02000000
v -0.00000000 -0.00380400 0.01876400
v -0.00000000 -0.00323600 0.01764900
v 0.00000000 -0.00235100 0.01676400
v -0.00000000 -0.00123600 0.01619600
v -0.00038200 -0.00117600 0.02380400
v -0.00072700 -0.00223600 0.02323600
v -0.00100000 -0.00307800 0.02235100
v -0.00117600 -0.00361800 0.02123600
v -0.00123600 -0.00380400 0.02000000
v -0.00117600 -0.00361800 0.01876400
v -0.00100000 -0.00307800 0.01764900
v -0.00072700 -0.00223600 0.01676400
v -0.00038200 -0.00117600 0.01619600
v -0.00072700 -0.00100000 0.02380400
v -0.00138200 -0.00190200 0.02323600
v -0.00190200 -0.00261800 0.02235100
v -0.00223600 -0.00307800 0.02123600
v -0.00235100 -0.00323600 0.02000000
v -0.00223600 -0.00307800 0.01876400
v -0.00190200 -0.00261800 0.01764900
v -0.00138200 -0.00190200 0.01676400
v -0.00072700 -0.00100000 0.01619600
v -0.00100000 -0.00072700 0.02380400
v -0.00190200 -0.00138200 0.02323600
v -0.00261800 -0.00190200 0.02235100
v -0.00307800 -0.00223600 0.02123600
v -0.00323600 -0.00235100 0.02000000
v -0.00307800 -0.00223600 0.01876400
v -0.00261800 -0.00190200 0.01764900
v -0.00190200 -0.00138200 0.01676400
v -0.00100000 -0.00072700 0.01619600
v -0.00117600 -0.00038200 0.02380400
v -0.00223600 -0.00072700 0.02323600
v -0.00307800 -0.00100000 0.02235100
v -0.00361800 -0.00117600 0.02123600
v -0.00380400 -0.00123600 0.02000000
v -0.00361800 -0.00117600 0.01876400
v -0.00307800 -0.00100000 0.01764900
v -0.00223600 -0.00072700 0.01676400
v -0.00117600 -0.00038200 0.01619600
v -0.00123600 0.00000000 0.02380400
v -0.00235100 0.00000000 0.02323600
v -0.00323600 0.00000000 0.02235100
v -0.00380400 0.00000000 0.02123600
v -0.00400000 0.00000000 0.02000000
v -0.00380400 0.00000000 0.01876400
v -0.00323600 0.00000000 0.01764900
v -0.00235100 0.00000000 0.01676400
v -0.00123600 0.00000000 0.01619600
v -0.00117600 0.00038200 0.02380400
v -0.00223600 0.00072700 0.02323600
v -0.00307800 0.00100000 0.02235100
v -0.00361800 0.00117600 0.02123600
v -0.00380400 0.00123600 0.02000000
v -0.00361800 0.00117600 0.01876400
v -0.00307800 0.00100000 0.01764900
v -0.00223600 0.00072700 0.01676400
v -0.00117600 0.00038200 0.01619600
v -0.00100000 0.00072700 0.02380400
v -0.00190200 0.00138200 0.02323600
v -0.00261800 0.00190200 0.02235100
v -0.00307800 0.00223600 0.02123600
v -0.00323600 0.00235100 0.02000000
v -0.00307800 0.00223600 0.01876400
v -0.00261800 0.00190200 0.01764900
v -0.00190200 0.00138200 0.01676400
v -0.00100000 0.00072700 0.01619600
v -0.00072700 0.00100000 0.02380400
v -0.00138200 0.00190200 0.02323600
v -0.00190200 0.00261800 0.02235100
v -0.00223600 0.00307800 0.02123600
v -0.00235100 0.00323600 0.02000000
v -0.00223600 0.00307800 0.01876400
v -0.00190200 0.00261800 0.01764900
v -0.00138200 0.00190200 0.01676400
v -0.00072700 0.00100000 0.01619600
v -0.00038200 0.00117600 0.02380400
v -0.00072700 0.00223600 0.02323600
v -0.00100000 0.00307800 0.02235100
v -0.00117600 0.00361800 0.02123600
v -0.00123600 0.00380400 0.02000000
v -0.00117600 0.00361800 0.01876400
v -0.00100000 0.00307800 0.01764900
v -0.00072700 0.00223600 0.01676400
v -0.00038200 0.00117600 0.01619600
v 0.00000000 0.00123600 0.02380400
v 0.00000000 0.00380400 0.02123600
v 0.00000000 0.00400000 0.02000000
v 0.00000000 0.00380400 0.01876400
vn -0.00000000 -0.00000000 -1.00000000
vn 0.72390000 -0.00000000 -0.68990000
vn 0.68850000 -0.00000000 -0.72520000
vn 0.72390000 -0.00000000 -0.68990000
vn 0.85760000 -0.00000000 0.51430000
vn 0.37230000 -0.00000000 0.92810000
vn 0.19890000 -0.00000000 0.98000000
vn -0.00000000 -0.00000000 1.00000000
vn 0.71500000 0.11320000 -0.68990000
vn 0.68010000 0.10770000 -0.72520000
vn 0.71500000 0.11320000 -0.68990000
vn 0.84700000 0.13420000 0.51430000
vn 0.36780000 0.05820000 0.92810000
vn 0.19650000 0.03110000 0.98000000
vn 0.68850000 0.22370000 -0.68990000
vn 0.65480000 0.21280000 -0.72520000
vn 0.68850000 0.22370000 -0.68990000
vn 0.81560000 0.26500000 0.51430000
vn 0.35410000 0.11510000 0.92810000
vn 0.18920000 0.06150000 0.98000000
vn 0.64500000 0.32870000 -0.68990000
vn 0.61350000 0.31260000 -0.72520000
vn 0.64500000 0.32870000 -0.68990000
vn 0.76410000 0.38930000 0.51430000
vn 0.33180000 0.16900000 0.92810000
vn 0.17720000 0.09030000 0.98000000
vn 0.58570000 0.42550000 -0.68990000
vn 0.55700000 0.40470000 -0.72520000
vn 0.58570000 0.42550000 -0.68990000
vn 0.69380000 0.50410000 0.51430000
vn 0.30120000 0.21890000 0.92810000
vn 0.16090000 0.11690000 0.98000000
vn 0.51190000 0.51190000 -0.68990000
vn 0.48690000 0.48690000 -0.72520000
vn 0.51190000 0.51190000 -0.68990000
vn 0.60640000 0.60640000 0.51430000
vn 0.26330000 0.26330000 0.92810000
vn 0.14070000 0.14070000 0.98000000
vn 0.42550000 0.58570000 -0.68990000
vn 0.40470000 0.55700000 -0.72520000
vn 0.42550000 0.58570000 -0.68990000
vn 0.50410000 0.69380000 0.51430000
vn 0.21890000 0.30120000 0.92810000
vn 0.11690000 0.16090000 0.98000000
vn 0.32870000 0.64500000 -0.68990000
vn 0.31260000 0.61350000 -0.72520000
vn 0.32870000 0.64500000 -0.68990000
vn 0.38930000 0.76410000 0.51430000
vn 0.16900000 0.33180000 0.92810000
vn 0.09030000 0.17720000 0.98000000
vn 0.22370000 0.68850000 -0.68990000
vn 0.21280000 0.65480000 -0.72520000
vn 0.22370000 0.68850000 -0.68990000
vn 0.26500000 0.81560000 0.51430000
vn 0.11510000 0.35410000 0.92810000
vn 0.06150000 0.18920000 0.98000000
vn 0.11320000 0.71500000 -0.68990000
vn 0.10770000 0.68010000 -0.72520000
vn 0.11320000 0.71500000 -0.68990000
vn 0.13420000 0.84700000 0.51430000
vn 0.05820000 0.36780000 0.92810000
vn 0.03110000 0.19650000 0.98000000
vn -0.00000000 0.72390000 -0.68990000
vn -0.00000000 0.68850000 -0.72520000
vn -0.00000000 0.72390000 -0.68990000
vn -0.00000000 0.85760000 0.51430000
vn -0.00000000 0.37230000 0.92810000
vn -0.00000000 0.19890000 0.98000000
vn -0.11320000 0.71500000 -0.68990000
vn -0.10770000 0.68010000 -0.72520000
vn -0.11320000 0.71500000 -0.68990000
vn -0.13420000 0.84700000 0.51430000
vn -0.05820000 0.36780000 0.92810000
vn -0.03110000 0.19650000 0.98000000
vn -0.22370000 0.68850000 -0.68990000
vn -0.21280000 0.65480000 -0.72520000
vn -0.22370000 0.68850000 -0.68990000
vn -0.26500000 0.81560000 0.51430000
vn -0.11510000 0.35410000 0.92810000
vn -0.06150000 0.18920000 0.98000000
vn -0.32870000 0.64500000 -0.68990000
vn -0.31260000 0.61350000 -0.72520000
vn -0.32870000 0.64500000 -0.68990000
vn -0.38930000 0.76410000 0.51430000
vn -0.16900000 0.33180000 0.92810000
vn -0.09030000 0.17720000 0.98000000
vn -0.42550000 0.58570000 -0.68990000
vn -0.40470000 0.55700000 -0.72520000
vn -0.42550000 0.58570000 -0.68990000
vn -0.50410000 0.69380000 0.51430000
vn -0.21890000 0.30120000 0.92810000
vn -0.11690000 0.16090000 0.98000000
vn -0.51190000 0.51190000 -0.68990000
vn -0.48690000 0.48690000 -0.72520000
vn -0.51190000 0.51190000 -0.68990000
vn -0.60640000 0.60640000 0.51430000
vn -0.26330000 0.26330000 0.92810000
vn -0.14070000 0.14070000 0.98000000
vn -0.58570000 0.42550000 -0.68990000
vn -0.55700000 0.40470000 -0.72520000
vn -0.58570000 0.42550000 -0.68990000
vn -0.69380000 0.50410000 0.51430000
vn -0.30120000 0.21890000 0.92810000
vn -0.16090000 0.11690000 0.98000000
vn -0.64500000 0.32870000 -0.68990000
vn -0.61350000 0.31260000 -0.72520000
vn -0.64500000 0.32870000 -0.68990000
vn -0.76410000 0.38930000 0.51430000
vn -0.33180000 0.16900000 0.92810000
vn -0.17720000 0.09030000 0.98000000
vn -0.68850000 0.22370000 -0.68990000
vn -0.65480000 0.21280000 -0.72520000
vn -0.68850000 0.22370000 -0.68990000
vn -0.81560000 0.26500000 0.51430000
vn -0.35410000 0.11510000 0.92810000
vn -0.18920000 0.06150000 0.98000000
vn -0.71500000 0.11320000 -0.68990000
vn -0.68010000 0.10770000 -0.72520000
vn -0.71500000 0.11320000 -0.68990000
vn -0.84700000 0.13420000 0.51430000
vn -0.36780000 0.05820000 0.92810000
vn -0.19650000 0.03110000 0.98000000
vn -0.72390000 -0.00000000 -0.68990000
vn -0.68850000 -0.00000000 -0.72520000
vn -0.72390000 -0.00000000 -0.68990000
vn -0.85760000 -0.00000000 0.51430000
vn -0.37230000 -0.00000000 0.92810000
vn -0.19890000 -0.00000000 0.98000000
vn -0.71500000 -0.11320000 -0.68990000
vn -0.68010000 -0.10770000 -0.72520000
vn -0.71500000 -0.11320000 -0.68990000
vn -0.84700000 -0.13420000 0.51430000
vn -0.36780000 -0.05820000 0.92810000
vn -0.19650000 -0.03110000 0.98000000
vn -0.68850000 -0.22370000 -0.68990000
vn -0.65480000 -0.21280000 -0.72520000
vn -0.68850000 -0.22370000 -0.68990000
vn -0.81560000 -0.26500000 0.51430000
vn -0.35410000 -0.11510000 0.92810000
vn -0.18920000 -0.06150000 0.98000000
vn -0.64500000 -0.32870000 -0.68990000
vn -0.61350000 -0.31260000 -0.72520000
vn -0.64500000 -0.32870000 -0.68990000
vn -0.76410000 -0.38930000 0.51430000
vn -0.33180000 -0.16900000 0.92810000
vn -0.17720000 -0.09030000 0.98000000
vn -0.58570000 -0.42550000 -0.68990000
vn -0.55700000 -0.40470000 -0.72520000
vn -0.58570000 -0.42550000 -0.68990000
vn -0.69380000 -0.50410000 0.51430000
vn -0.30120000 -0.21890000 0.92810000
vn -0.16090000 -0.11690000 0.98000000
vn -0.51190000 -0.51190000 -0.68990000
vn -0.48690000 -0.48690000 -0.72520000
vn -0.51190000 -0.51190000 -0.68990000
vn -0.60640000 -0.60640000 0.51430000
vn -0.26330000 -0.26330000 0.92810000
vn -0.14070000 -0.14070000 0.98000000
vn -0.42550000 -0.58570000 -0.68990000
vn -0.40470000 -0.55700000 -0.72520000
vn -0.42550000 -0.58570000 -0.68990000
vn -0.50410000 -0.69380000 0.51430000
vn -0.21890000 -0.30120000 0.92810000
vn -0.11690000 -0.16090000 0.98000000
vn -0.32870000 -0.64500000 -0.68990000
vn -0.31260000 -0.61350000 -0.72520000
vn -0.32870000 -0.64500000 -0.68990000
vn -0.38930000 -0.76410000 0.51430000
vn -0.16900000 -0.33180000 0.92810000
vn -0.09030000 -0.17720000 0.98000000
vn -0.22370000 -0.68850000 -0.68990000
vn -0.21280000 -0.65480000 -0.72520000
vn -0.22370000 -0.68850000 -0.68990000
vn -0.26500000 -0.81560000 0.51430000
vn -0.11510000 -0.35410000 0.92810000
vn -0.06150000 -0.18920000 0.98000000
vn -0.11320000 -0.71500000 -0.68990000
vn -0.10770000 -0.68010000 -0.72520000
vn -0.11320000 -0.71500000 -0.68990000
vn -0.13420000 -0.84700000 0.51430000
vn -0.05820000 -0.36780000 0.92810000
vn -0.03110000 -0.19650000 0.98000000
vn -0.00000000 -0.72390000 -0.68990000
vn -0.00000000 -0.68850000 -0.72520000
vn -0.00000000 -0.72390000 -0.68990000
vn -0.00000000 -0.85760000 0.51430000
vn -0.00000000 -0.37230000 0.92810000
vn -0.00000000 -0.19890000 0.98000000
vn 0.11320000 -0.71500000 -0.68990000
vn 0.10770000 -0.68010000 -0.72520000
vn 0.11320000 -0.71500000 -0.68990000
vn 0.13420000 -0.84700000 0.51430000
vn 0.05820000 -0.36780000 0.92810000
vn 0.03110000 -0.19650000 0.98000000
vn 0.22370000 -0.68850000 -0.68990000
vn 0.21280000 -0.65480000 -0.72520000
vn 0.22370000 -0.68850000 -0.68990000
vn 0.26500000 -0.81560000 0.51430000
vn 0.11510000 -0.35410000 0.92810000
vn 0.06150000 -0.18920000 0.98000000
vn 0.32870000 -0.64500000 -0.68990000
vn 0.31260000 -0.61350000 -0.72520000
vn 0.32870000 -0.64500000 -0.68990000
vn 0.38930000 -0.76410000 0.51430000
vn 0.16900000 -0.33180000 0.92810000
vn 0.09030000 -0.17720000 0.98000000
vn 0.42550000 -0.58570000 -0.68990000
vn 0.40470000 -0.55700000 -0.72520000
vn 0.42550000 -0.58570000 -0.68990000
vn 0.50410000 -0.69380000 0.51430000
vn 0.21890000 -0.30120000 0.92810000
vn 0.11690000 -0.16090000 0.98000000
vn 0.51190000 -0.51190000 -0.68990000
vn 0.48690000 -0.48690000 -0.72520000
vn 0.51190000 -0.51190000 -0.68990000
vn 0.60640000 -0.60640000 0.51430000
vn 0.26330000 -0.26330000 0.92810000
vn 0.14070000 -0.14070000 0.98000000
vn 0.58570000 -0.42550000 -0.68990000
vn 0.55700000 -0.40470000 -0.72520000
vn 0.58570000 -0.42550000 -0.68990000
vn 0.69380000 -0.50410000 0.51430000
vn 0.30120000 -0.21890000 0.92810000
vn 0.16090000 -0.11690000 0.98000000
vn 0.64500000 -0.32870000 -0.68990000
vn 0.61350000 -0.31260000 -0.72520000
vn 0.64500000 -0.32870000 -0.68990000
vn 0.76410000 -0.38930000 0.51430000
vn 0.33180000 -0.16900000 0.92810000
vn 0.17720000 -0.09030000 0.98000000
vn 0.68850000 -0.22370000 -0.68990000
vn 0.65480000 -0.21280000 -0.72520000
vn 0.68850000 -0.22370000 -0.68990000
vn 0.81560000 -0.26500000 0.51430000
vn 0.35410000 -0.11510000 0.92810000
vn 0.18920000 -0.06150000 0.98000000
vn 0.71500000 -0.11320000 -0.68990000
vn 0.68010000 -0.10770000 -0.72520000
vn 0.71500000 -0.11320000 -0.68990000
vn 0.84700000 -0.13420000 0.51430000
vn 0.36780000 -0.05820000 0.92810000
vn 0.19650000 -0.03110000 0.98000000
vn -0.00000000 -0.00000000 1.00000000
vn -0.00000000 0.59780000 0.80160000
vn -0.00000000 0.81430000 0.58050000
vn -0.00000000 0.81430000 -0.58050000
vn -0.00000000 0.59780000 -0.80160000
vn -0.00000000 0.32300000 -0.94640000
vn -0.00000000 -0.00000000 -1.00000000
vn 0.09980000 0.30720000 0.94640000
vn 0.18470000 0.56860000 0.80160000
vn 0.25160000 0.77440000 0.58050000
vn 0.29430000 0.90590000 0.30450000
vn 0.30900000 0.95110000 -0.00000000
vn 0.29430000 0.90590000 -0.30450000
vn 0.25160000 0.77440000 -0.58050000
vn 0.18470000 0.56860000 -0.80160000
vn 0.09980000 0.30720000 -0.94640000
vn 0.18990000 0.26130000 0.94640000
vn 0.35140000 0.48360000 0.80160000
vn 0.47860000 0.65880000 0.58050000
vn 0.55990000 0.77060000 0.30450000
vn 0.58780000 0.80900000 -0.00000000
vn 0.55990000 0.77060000 -0.30450000
vn 0.47860000 0.65880000 -0.58050000
vn 0.35140000 0.48360000 -0.80160000
vn 0.18990000 0.26130000 -0.94640000
vn 0.26130000 0.18990000 0.94640000
vn 0.48360000 0.35140000 0.80160000
vn 0.65880000 0.47860000 0.58050000
vn 0.77060000 0.55990000 0.30450000
vn 0.80900000 0.58780000 -0.00000000
vn 0.77060000 0.55990000 -0.30450000
vn 0.65880000 0.47860000 -0.58050000
vn 0.48360000 0.35140000 -0.80160000
vn 0.26130000 0.18990000 -0.94640000
vn 0.30720000 0.09980000 0.94640000
vn 0.56860000 0.18470000 0.80160000
vn 0.77440000 0.25160000 0.58050000
vn 0.90590000 0.29430000 0.30450000
vn 0.95110000 0.30900000 -0.00000000
vn 0.90590000 0.29430000 -0.30450000
vn 0.77440000 0.25160000 -0.58050000
vn 0.56860000 0.18470000 -0.80160000
vn 0.30720000 0.09980000 -0.94640000
vn 0.32300000 -0.00000000 0.94640000
vn 0.59780000 -0.00000000 0.80160000
vn 0.81430000 -0.00000000 0.58050000
vn 0.95250000 -0.00000000 0.30450000
vn 1.00000000 -0.00000000 -0.00000000
vn 0.95250000 -0.00000000 -0.30450000
vn 0.81430000 -0.00000000 -0.58050000
vn 0.59780000 -0.00000000 -0.80160000
vn 0.32300000 -0.00000000 -0.94640000
vn 0.30720000 -0.09980000 0.94640000
vn 0.56860000 -0.18470000 0.80160000
vn 0.77440000 -0.25160000 0.58050000
vn 0.90590000 -0.29430000 0.30450000
vn 0.95110000 -0.30900000 -0.00000000
vn 0.90590000 -0.29430000 -0.30450000
vn 0.77440000 -0.25160000 -0.58050000
vn 0.56860000 -0.18470000 -0.80160000
vn 0.30720000 -0.09980000 -0.94640000
vn 0.26130000 -0.18990000 0.94640000
vn 0.48360000 -0.35140000 0.80160000
vn 0.65880000 -0.47860000 0.58050000
vn 0.77060000 -0.55990000 0.30450000
vn 0.80900000 -0.58780000 -0.00000000
vn 0.77060000 -0.55990000 -0.30450000
vn 0.65880000 -0.47860000 -0.58050000
vn 0.48360000 -0.35140000 -0.80160000
vn 0.26130000 -0.18990000 -0.94640000
vn 0.18990000 -0.26130000 0.94640000
vn 0.35140000 -0.48360000 0.80160000
vn 0.47860000 -0.65880000 0.58050000
vn 0.55990000 -0.77060000 0.30450000
vn 0.58780000 -0.80900000 -0.00000000
vn 0.55990000 -0.77060000 -0.30450000
vn 0.47860000 -0.65880000 -0.58050000
vn 0.35140000 -0.48360000 -0.80160000
vn 0.18990000 -0.26130000 -0.94640000
vn 0.09980000 -0.30720000 0.94640000
vn 0.18470000 -0.56860000 0.80160000
vn 0.25160000 -0.77440000 0.58050000
vn 0.29430000 -0.90590000 0.30450000
vn 0.30900000 -0.95110000 -0.00000000
vn 0.29430000 -0.90590000 -0.30450000
vn 0.25160000 -0.77440000 -0.58050000
vn 0.18470000 -0.56860000 -0.80160000
vn 0.09980000 -0.30720000 -0.94640000
vn -0.00000000 -0.32300000 0.94640000
vn -0.00000000 -0.59780000 0.80160000
vn -0.00000000 -0.81430000 0.58050000
vn -0.00000000 -0.95250000 0.30450000
vn -0.00000000 -1.00000000 -0.00000000
vn -0.00000000 -0.95250000 -0.30450000
vn -0.00000000 -0.81430000 -0.58050000
vn -0.00000000 -0.59780000 -0.80160000
vn -0.00000000 -0.32300000 -0.94640000
vn -0.09980000 -0.30720000 0.94640000
vn -0.18470000 -0.56860000 0.80160000
vn -0.25160000 -0.77440000 0.58050000
vn -0.29430000 -0.90590000 0.30450000
vn -0.30900000 -0.95110000 -0.00000000
vn -0.29430000 -0.90590000 -0.30450000
vn -0.25160000 -0.77440000 -0.58050000
vn -0.18470000 -0.56860000 -0.80160000
vn -0.09980000 -0.30720000 -0.94640000
vn -0.18990000 -0.26130000 0.94640000
vn -0.35140000 -0.48360000 0.80160000
vn -0.47860000 -0.65880000 0.58050000
vn -0.55990000 -0.77060000 0.30450000
vn -0.58780000 -0.80900000 -0.00000000
vn -0.55990000 -0.77060000 -0.30450000
vn -0.47860000 -0.65880000 -0.58050000
vn -0.35140000 -0.48360000 -0.80160000
vn -0.18990000 -0.26130000 -0.94640000
vn -0.26130000 -0.18990000 0.94640000
vn -0.48360000 -0.35140000 0.80160000
vn -0.65880000 -0.47860000 0.58050000
vn -0.77060000 -0.55990000 0.30450000
vn -0.80900000 -0.58780000 -0.00000000
vn -0.77060000 -0.55990000 -0.30450000
vn -0.65880000 -0.47860000 -0.58050000
vn -0.48360000 -0.35140000 -0.80160000
vn -0.26130000 -0.18990000 -0.94640000
vn -0.30720000 -0.09980000 0.94640000
vn -0.56860000 -0.18470000 0.80160000
vn -0.77440000 -0.25160000 0.58050000
vn -0.90590000 -0.29430000 0.30450000
vn -0.95110000 -0.30900000 -0.00000000
vn -0.90590000 -0.29430000 -0.30450000
vn -0.77440000 -0.25160000 -0.58050000
vn -0.56860000 -0.18470000 -0.80160000
vn -0.30720000 -0.09980000 -0.94640000
vn -0.32300000 -0.00000000 0.94640000
vn -0.59780000 -0.00000000 0.80160000
vn -0.81430000 -0.00000000 0.58050000
vn -0.95250000 -0.00000000 0.30450000
vn -1.00000000 -0.00000000 -0.00000000
vn -0.95250000 -0.00000000 -0.30450000
vn -0.81430000 -0.00000000 -0.58050000
vn -0.59780000 -0.00000000 -0.80160000
vn -0.32300000 -0.00000000 -0.94640000
vn -0.30720000 0.09980000 0.94640000
vn -0.56860000 0.18470000 0.80160000
vn -0.77440000 0.25160000 0.58050000
vn -0.90590000 0.29430000 0.30450000
vn -0.95110000 0.30900000 -0.00000000
vn -0.90590000 0.29430000 -0.30450000
vn -0.77440000 0.25160000 -0.58050000
vn -0.56860000 0.18470000 -0.80160000
vn -0.30720000 0.09980000 -0.94640000
vn -0.26130000 0.18990000 0.94640000
vn -0.48360000 0.35140000 0.80160000
vn -0.65880000 0.47860000 0.58050000
vn -0.77060000 0.55990000 0.30450000
vn -0.80900000 0.58780000 -0.00000000
vn -0.77060000 0.55990000 -0.30450000
vn -0.65880000 0.47860000 -0.58050000
vn -0.48360000 0.35140000 -0.80160000
vn -0.26130000 0.18990000 -0.94640000
vn -0.18990000 0.26130000 0.94640000
vn -0.35140000 0.48360000 0.80160000
vn -0.47860000 0.65880000 0.58050000
vn -0.55990000 0.77060000 0.30450000
vn -0.58780000 0.80900000 -0.00000000
vn -0.55990000 0.77060000 -0.30450000
vn -0.47860000 0.65880000 -0.58050000
vn -0.35140000 0.48360000 -0.80160000
vn -0.18990000 0.26130000 -0.94640000
vn -0.09980000 0.30720000 0.94640000
vn -0.18470000 0.56860000 0.80160000
vn -0.25160000 0.77440000 0.58050000
vn -0.29430000 0.90590000 0.30450000
vn -0.30900000 0.95110000 -0.00000000
vn -0.29430000 0.90590000 -0.30450000
vn -0.25160000 0.77440000 -0.58050000
vn -0.18470000 0.56860000 -0.80160000
vn -0.09980000 0.30720000 -0.94640000
vn -0.00000000 0.32300000 0.94640000
vn -0.00000000 0.95250000 0.30450000
vn -0.00000000 1.00000000 -0.00000000
vn -0.00000000 0.95250000 -0.30450000
f 6//6 13//13 14//14
f 14//14 7//7 6//6
f 4//4 11//11 12//12
f 12//12 5//5 4//4
f 2//2 9//9 10//10
f 10//10 3//3 2//2
f 7//7 14//14 8//8
f 5//5 12//12 13//13
f 13//13 6//6 5//5
f 3//3 10//10 11//11
f 11//11 4//4 3//3
f 1//1 9//9 2//2
f 10//10 16//16 17//17
f 17//17 11//11 10//10
f 1//1 15//15 9//9
f 13//13 19//19 20//20
f 20//20 14//14 13//13
f 11//11 17//17 18//18
f 18//18 12//12 11//11
f 9//9 15//15 16//16
f 16//16 10//10 9//9
f 14//14 20//20 8//8
f 12//12 18//18 19//19
f 19//19 13//13 12//12
f 19//19 25//25 26//26
f 26//26 20//20 19//19
f 17//17 23//23 24//24
f 24//24 18//18 17//17
f 15//15 21//21 22//22
f 22//22 16//16 15//15
f 20//20 26//26 8//8
f 18//18 24//24 25//25
f 25//25 19//19 18//18
f 16//16 22//22 23//23
f 23//23 17//17 16//16
f 1//1 21//21 15//15
f 25//25 31//31 32//32
f 32//32 26//26 25//25
f 23//23 29//29 30//30
f 30//30 24//24 23//23
f 21//21 27//27 28//28
f 28//28 22//22 21//21
f 26//26 32//32 8//8
f 24//24 30//30 31//31
f 31//31 25//25 24//24
f 22//22 28//28 29//29
f 29//29 23//23 22//22
f 1//1 27//27 21//21
f 27//27 33//33 34//34
f 34//34 28//28 27//27
f 32//32 38//38 8//8
f 30//30 36//36 37//37
f 37//37 31//31 30//30
f 28//28 34//34 35//35
f 35//35 29//29 28//28
f 1//1 33//33 27//27
f 31//31 37//37 38//38
f 38//38 32//32 31//31
f 29//29 35//35 36//36
f 36//36 30//30 29//29
f 38//38 44//44 8//8
f 36//36 42//42 43//43
f 43//43 37//37 36//36
f 34//34 40//40 41//41
f 41//41 35//35 34//34
f 1//1 39//39 33//33
f 37//37 43//43 44//44
f 44//44 38//38 37//37
f 35//35 41//41 42//42
f 42//42 36//36 35//35
f 33//33 39//39 40//40
f 40//40 34//34 33//33
f 42//42 48//48 49//49
f 49//49 43//43 42//42
f 40//40 46//46 47//47
f 47//47 41//41 40//40
f 1//1 45//45 39//39
f 43//43 49//49 50//50
f 50//50 44//44 43//43
f 41//41 47//47 48//48
f 48//48 42//42 41//41
f 39//39 45//45 46//46
f 46//46 40//40 39//39
f 44//44 50//50 8//8
f 1//1 51//51 45//45
f 49//49 55//55 56//56
f 56//56 50//50 49//49
f 47//47 53//53 54//54
f 54//54 48//48 47//47
f 45//45 51//51 52//52
f 52//52 46//46 45//45
f 50//50 56//56 8//8
f 48//48 54//54 55//55
f 55//55 49//49 48//48
f 46//46 52//52 53//53
f 53//53 47//47 46//46
f 55//55 61//61 62//62
f 62//62 56//56 55//55
f 53//53 59//59 60//60
f 60//60 54//54 53//53
f 51//51 57//57 58//58
f 58//58 52//52 51//51
f 56//56 62//62 8//8
f 54//54 60//60 61//61
f 61//61 55//55 54//54
f 52//52 58//58 59//59
f 59//59 53//53 52//52
f 1//1 57//57 51//51
f 59//59 65//65 66//66
f 66//66 60//60 59//59
f 57//57 63//63 64//64
f 64//64 58//58 57//57
f 62//62 68//68 8//8
f 60//60 66//66 67//67
f 67//67 61//61 60//60
f 58//58 64//64 65//65
f 65//65 59//59 58//58
f 1//1 63//63 57//57
f 61//61 67//67 68//68
f 68//68 62//62 61//61
f 68//68 74//74 8//8
f 66//66 72//72 73//73
f 73//73 67//67 66//66
f 64//64 70//70 71//71
f 71//71 65//65 64//64
f 1//1 69//69 63//63
f 67//67 73//73 74//74
f 74//74 68//68 67//67
f 65//65 71//71 72//72
f 72//72 66//66 65//65
f 63//63 69//69 70//70
f 70//70 64//64 63//63
f 74//74 80//80 8//8
f 72//72 78//78 79//79
f 79//79 73//73 72//72
f 70//70 76//76 77//77
f 77//77 71//71 70//70
f 1//1 75//75 69//69
f 73//73 79//79 80//80
f 80//80 74//74 73//73
f 71//71 77//77 78//78
f 78//78 72//72 71//71
f 69//69 75//75 76//76
f 76//76 70//70 69//69
f 76//76 82//82 83//83
f 83//83 77//77 76//76
f 1//1 81//81 75//75
f 79//79 85//85 86//86
f 86//86 80//80 79//79
f 77//77 83//83 84//84
f 84//84 78//78 77//77
f 75//75 81//81 82//82
f 82//82 76//76 75//75
f 80//80 86//86 8//8
f 78//78 84//84 85//85
f 85//85 79//79 78//78
f 85//85 91//91 92//92
f 92//92 86//86 85//85
f 83//83 89//89 90//90
f 90//90 84//84 83//83
f 81//81 87//87 88//88
f 88//88 82//82 81//81
f 86//86 92//92 8//8
f 84//84 90//90 91//91
f 91//91 85//85 84//84
f 82//82 88//88 89//89
f 89//89 83//83 82//82
f 1//1 87//87 81//81
f 91//91 97//97 98//98
f 98//98 92//92 91//91
f 89//89 95//95 96//96
f 96//96 90//90 89//89
f 87//87 93//93 94//94
f 94//94 88//88 87//87
f 92//92 98//98 8//8
f 90//90 96//96 97//97
f 97//97 91//91 90//90
f 88//88 94//94 95//95
f 95//95 89//89 88//88
f 1//1 93//93 87//87
f 93//93 99//99 100//100
f 100//100 94//94 93//93
f 98//98 104//104 8//8
f 96//96 102//102 103//103
f 103//103 97//97 96//96
f 94//94 100//100 101//101
f 101//101 95//95 94//94
f 1//1 99//99 93//93
f 97//97 103//103 104//104
f 104//104 98//98 97//97
f 95//95 101//101 102//102
f 102//102 96//96 95//95
f 104//104 110//110 8//8
f 102//102 108//108 109//109
f 109//109 103//103 102//102
f 100//100 106//106 107//107
f 107//107 101//101 100//100
f 1//1 105//105 99//99
f 103//103 109//109 110//110
f 110//110 104//104 103//103
f 101//101 107//107 108//108
f 108//108 102//102 101//101
f 99//99 105//105 106//106
f 106//106 100//100 99//99
f 108//108 114//114 115//115
f 115//115 109//109 108//108
f 106//106 112//112 113//113
f 113//113 107//107 106//106
f 1//1 111//111 105//105
f 109//109 115//115 116//116
f 116//116 110//110 109//109
f 107//107 113//113 114//114
f 114//114 108//108 107//107
f 105//105 111//111 112//112
f 112//112 106//106 105//105
f 110//110 116//116 8//8
f 1//1 117//117 111//111
f 115//115 121//121 122//122
f 122//122 116//116 115//115
f 113//113 119//119 120//120
f 120//120 114//114 113//113
f 111//111 117//117 118//118
f 118//118 112//112 111//111
f 116//116 122//122 8//8
f 114//114 120//120 121//121
f 121//121 115//115 114//114
f 112//112 118//118 119//119
f 119//119 113//113 112//112
f 121//121 127//127 128//128
f 128//128 122//122 121//121
f 119//119 125//125 126//126
f 126//126 120//120 119//119
f 117//117 123//123 124//124
f 124//124 118//118 117//117
f 122//122 128//128 8//8
f 120//120 126//126 127//127
f 127//127 121//121 120//120
f 118//118 124//124 125//125
f 125//125 119//119 118//118
f 1//1 123//123 117//117
f 125//125 131//131 132//132
f 132//132 126//126 125//125
f 123//123 129//129 130//130
f 130//130 124//124 123//123
f 128//128 134//134 8//8
f 126//126 132//132 133//133
f 133//133 127//127 126//126
f 124//124 130//130 131//131
f 131//131 125//125 124//124
f 1//1 129//129 123//123
f 127//127 133//133 134//134
f 134//134 128//128 127//127
f 134//134 140//140 8//8
f 132//132 138//138 139//139
f 139//139 133//133 132//132
f 130//130 136//136 137//137
f 137//137 131//131 130//130
f 1//1 135//135 129//129
f 133//133 139//139 140//140
f 140//140 134//134 133//133
f 131//131 137//137 138//138
f 138//138 132//132 131//131
f 129//129 135//135 136//136
f 136//136 130//130 129//129
f 140//140 146//146 8//8
f 138//138 144//144 145//145
f 145//145 139//139 138//138
f 136//136 142//142 143//143
f 143//143 137//137 136//136
f 1//1 141//141 135//135
f 139//139 145//145 146//146
f 146//146 140//140 139//139
f 137//137 143//143 144//144
f 144//144 138//138 137//137
f 135//135 141//141 142//142
f 142//142 136//136 135//135
f 142//142 148//148 149//149
f 149//149 143//143 142//142
f 1//1 147//147 141//141
f 145//145 151//151 152//152
f 152//152 146//146 145//145
f 143//143 149//149 150//150
f 150//150 144//144 143//143
f 141//141 147//147 148//148
f 148//148 142//142 141//141
f 146//146 152//152 8//8
f 144//144 150//150 151//151
f 151//151 145//145 144//144
f 151//151 157//157 158//158
f 158//158 152//152 151//151
f 149//149 155//155 156//156
f 156//156 150//150 149//149
f 147//147 153//153 154//154
f 154//154 148//148 147//147
f 152//152 158//158 8//8
f 150//150 156//156 157//157
f 157//157 151//151 150//150
f 148//148 154//154 155//155
f 155//155 149//149 148//148
f 1//1 153//153 147//147
f 157//157 163//163 164//164
f 164//164 158//158 157//157
f 155//155 161//161 162//162
f 162//162 156//156 155//155
f 153//153 159//159 160//160
f 160//160 154//154 153//153
f 158//158 164//164 8//8
f 156//156 162//162 163//163
f 163//163 157//157 156//156
f 154//154 160//160 161//161
f 161//161 155//155 154//154
f 1//1 159//159 153//153
f 159//159 165//165 166//166
f 166//166 160//160 159//159
f 164//164 170//170 8//8
f 162//162 168//168 169//169
f 169//169 163//163 162//162
f 160//160 166//166 167//167
f 167//167 161//161 160//160
f 1//1 165//165 159//159
f 163//163 169//169 170//170
f 170//170 164//164 163//163
f 161//161 167//167 168//168
f 168//168 162//162 161//161
f 170//170 176//176 8//8
f 168//168 174//174 175//175
f 175//175 169//169 168//168
f 166//166 172//172 173//173
f 173//173 167//167 166//166
f 1//1 171//171 165//165
f 169//169 175//175 176//176
f 176//176 170//170 169//169
f 167//167 173//173 174//174
f 174//174 168//168 167//167
f 165//165 171//171 172//172
f 172//172 166//166 165//165
f 174//174 180//180 181//181
f 181//181 175//175 174//174
f 172//172 178//178 179//179
f 179//179 173//173 172//172
f 1//1 177//177 171//171
f 175//175 181//181 182//182
f 182//182 176//176 175//175
f 173//173 179//179 180//180
f 180//180 174//174 173//173
f 171//171 177//177 178//178
f 178//178 172//172 171//171
f 176//176 182//182 8//8
f 1//1 183//183 177//177
f 181//181 187//187 188//188
f 188//188 182//182 181//181
f 179//179 185//185 186//186
f 186//186 180//180 179//179
f 177//177 183//183 184//184
f 184//184 178//178 177//177
f 182//182 188//188 8//8
f 180//180 186//186 187//187
f 187//187 181//181 180//180
f 178//178 184//184 185//185
f 185//185 179//179 178//178
f 187//187 193//193 194//194
f 194//194 188//188 187//187
f 185//185 191//191 192//192
f 192//192 186//186 185//185
f 183//183 189//189 190//190
f 190//190 184//184 183//183
f 188//188 194//194 8//8
f 186//186 192//192 193//193
f 193//193 187//187 186//186
f 184//184 190//190 191//191
f 191//191 185//185 184//184
f 1//1 189//189 183//183
f 191//191 197//197 198//198
f 198//198 192//192 191//191
f 189//189 195//195 196//196
f 196//196 190//190 189//189
f 194//194 200//200 8//8
f 192//192 198//198 199//199
f 199//199 193//193 192//192
f 190//190 196//196 197//197
f 197//197 191//191 190//190
f 1//1 195//195 189//189
f 193//193 199//199 200//200
f 200//200 194//194 193//193
f 200//200 206//206 8//8
f 198//198 204//204 205//205
f 205//205 199//199 198//198
f 196//196 202//202 203//203
f 203//203 197//197 196//196
f 1//1 201//201 195//195
f 199//199 205//205 206//206
f 206//206 200//200 199//199
f 197//197 203//203 204//204
f 204//204 198//198 197//197
f 195//195 201//201 202//202
f 202//202 196//196 195//195
f 206//206 212//212 8//8
f 204//204 210//210 211//211
f 211//211 205//205 204//204
f 202//202 208//208 209//209
f 209//209 203//203 202//202
f 1//1 207//207 201//201
f 205//205 211//211 212//212
f 212//212 206//206 205//205
f 203//203 209//209 210//210
f 210//210 204//204 203//203
f 201//201 207//207 208//208
f 208//208 202//202 201//201
f 208//208 214//214 215//215
f 215//215 209//209 208//208
f 1//1 213//213 207//207
f 211//211 217//217 218//218
f 218//218 212//212 211//211
f 209//209 215//215 216//216
f 216//216 210//210 209//209
f 207//207 213//213 214//214
f 214//214 208//208 207//207
f 212//212 218//218 8//8
f 210//210 216//216 217//217
f 217//217 211//211 210//210
f 217//217 223//223 224//224
f 224//224 218//218 217//217
f 215//215 221//221 222//222
f 222//222 216//216 215//215
f 213//213 219//219 220//220
f 220//220 214//214 213//213
f 218//218 224//224 8//8
f 216//216 222//222 223//223
f 223//223 217//217 216//216
f 214//214 220//220 221//221
f 221//221 215//215 214//214
f 1//1 219//219 213//213
f 223//223 229//229 230//230
f 230//230 224//224 223//223
f 221//221 227//227 228//228
f 228//228 222//222 221//221
f 219//219 225//225 226//226
f 226//226 220//220 219//219
f 224//224 230//230 8//8
f 222//222 228//228 229//229
f 229//229 223//223 222//222
f 220//220 226//226 227//227
f 227//227 221//221 220//220
f 1//1 225//225 219//219
f 225//225 231//231 232//232
f 232//232 226//226 225//225
f 230//230 236//236 8//8
f 228//228 234//234 235//235
f 235//235 229//229 228//228
f 226//226 232//232 233//233
f 233//233 227//227 226//226
f 1//1 231//231 225//225
f 229//229 235//235 236//236
f 236//236 230//230 229//229
f 227//227 233//233 234//234
f 234//234 228//228 227//227
f 236//236 242//242 8//8
f 234//234 240//240 241//241
f 241//241 235//235 234//234
f 232//232 238//238 239//239
f 239//239 233//233 232//232
f 1//1 237//237 231//231
f 235//235 241//241 242//242
f 242//242 236//236 235//235
f 233//233 239//239 240//240
f 240//240 234//234 233//233
f 231//231 237//237 238//238
f 238//238 232//232 231//231
f 240//240 5//5 6//6
f 6//6 241//241 240//240
f 238//238 3//3 4//4
f 4//4 239//239 238//238
f 1//1 2//2 237//237
f 241//241 6//6 7//7
f 7//7 242//242 241//241
f 239//239 4//4 5//5
f 5//5 240//240 239//239
f 237//237 2//2 3//3
f 3//3 238//238 237//237
f 242//242 7//7 8//8
f 245//245 244//244 251//251
f 251//251 252//252 245//245
f 249//249 248//248 258//258
f 246//246 424//424 255//255
f 255//255 256//256 246//246
f 422//422 245//245 252//252
f 252//252 253//253 422//422
f 421//421 243//243 250//250
f 247//247 246//246 256//256
f 256//256 257//257 247//247
f 423//423 422//422 253//253
f 253//253 254//254 423//423
f 244//244 421//421 250//250
f 250//250 251//251 244//244
f 248//248 247//247 257//257
f 257//257 258//258 248//248
f 424//424 423//423 254//254
f 254//254 255//255 424//424
f 252//252 251//251 260//260
f 260//260 261//261 252//252
f 249//249 258//258 267//267
f 256//256 255//255 264//264
f 264//264 265//265 256//256
f 253//253 252//252 261//261
f 261//261 262//262 253//253
f 250//250 243//243 259//259
f 257//257 256//256 265//265
f 265//265 266//266 257//257
f 254//254 253//253 262//262
f 262//262 263//263 254//254
f 251//251 250//250 259//259
f 259//259 260//260 251//251
f 258//258 257//257 266//266
f 266//266 267//267 258//258
f 255//255 254//254 263//263
f 263//263 264//264 255//255
f 264//264 263//263 272//272
f 272//272 273//273 264//264
f 261//261 260//260 269//269
f 269//269 270//270 261//261
f 249//249 267//267 276//276
f 265//265 264//264 273//273
f 273//273 274//274 265//265
f 262//262 261//261 270//270
f 270//270 271//271 262//262
f 259//259 243//243 268//268
f 266//266 265//265 274//274
f 274//274 275//275 266//266
f 263//263 262//262 271//271
f 271//271 272//272 263//263
f 260//260 259//259 268//268
f 268//268 269//269 260//260
f 267//267 266//266 275//275
f 275//275 276//276 267//267
f 269//269 268//268 277//277
f 277//277 278//278 269//269
f 276//276 275//275 284//284
f 284//284 285//285 276//276
f 273//273 272//272 281//281
f 281//281 282//282 273//273
f 270//270 269//269 278//278
f 278//278 279//279 270//270
f 249//249 276//276 285//285
f 274//274 273//273 282//282
f 282//282 283//283 274//274
f 271//271 270//270 279//279
f 279//279 280//280 271//271
f 268//268 243//243 277//277
f 275//275 274//274 283//283
f 283//283 284//284 275//275
f 272//272 271//271 280//280
f 280//280 281//281 272//272
f 284//284 283//283 292//292
f 292//292 293//293 284//284
f 281//281 280//280 289//289
f 289//289 290//290 281//281
f 278//278 277//277 286//286
f 286//286 287//287 278//278
f 285//285 284//284 293//293
f 293//293 294//294 285//285
f 282//282 281//281 290//290
f 290//290 291//291 282//282
f 279//279 278//278 287//287
f 287//287 288//288 279//279
f 249//249 285//285 294//294
f 283//283 282//282 291//291
f 291//291 292//292 283//283
f 280//280 279//279 288//288
f 288//288 289//289 280//280
f 277//277 243//243 286//286
f 289//289 288//288 297//297
f 297//297 298//298 289//289
f 286//286 243//243 295//295
f 293//293 292//292 301//301
f 301//301 302//302 293//293
f 290//290 289//289 298//298
f 298//298 299//299 290//290
f 287//287 286//286 295//295
f 295//295 296//296 287//287
f 294//294 293//293 302//302
f 302//302 303//303 294//294
f 291//291 290//290 299//299
f 299//299 300//300 291//291
f 288//288 287//287 296//296
f 296//296 297//297 288//288
f 249//249 294//294 303//303
f 292//292 291//291 300//300
f 300//300 301//301 292//292
f 301//301 300//300 309//309
f 309//309 310//310 301//301
f 298//298 297//297 306//306
f 306//306 307//307 298//298
f 295//295 243//243 304//304
f 302//302 301//301 310//310
f 310//310 311//311 302//302
f 299//299 298//298 307//307
f 307//307 308//308 299//299
f 296//296 295//295 304//304
f 304//304 305//305 296//296
f 303//303 302//302 311//311
f 311//311 312//312 303//303
f 300//300 299//299 308//308
f 308//308 309//309 300//300
f 297//297 296//296 305//305
f 305//305 306//306 297//297
f 249//249 303//303 312//312
f 306//306 305//305 314//314
f 314//314 315//315 306//306
f 249//249 312//312 321//321
f 310//310 309//309 318//318
f 318//318 319//319 310//310
f 307//307 306//306 315//315
f 315//315 316//316 307//307
f 304//304 243//243 313//313
f 311//311 310//310 319//319
f 319//319 320//320 311//311
f 308//308 307//307 316//316
f 316//316 317//317 308//308
f 305//305 304//304 313//313
f 313//313 314//314 305//305
f 312//312 311//311 320//320
f 320//320 321//321 312//312
f 309//309 308//308 317//317
f 317//317 318//318 309//309
f 321//321 320//320 329//329
f 329//329 330//330 321//321
f 318//318 317//317 326//326
f 326//326 327//327 318//318
f 315//315 314//314 323//323
f 323//323 324//324 315//315
f 249//249 321//321 330//330
f 319//319 318//318 327//327
f 327//327 328//328 319//319
f 316//316 315//315 324//324
f 324//324 325//325 316//316
f 313//313 243//243 322//322
f 320//320 319//319 328//328
f 328//328 329//329 320//320
f 317//317 316//316 325//325
f 325//325 326//326 317//317
f 314//314 313//313 322//322
f 322//322 323//323 314//314
f 326//326 325//325 334//334
f 334//334 335//335 326//326
f 323//323 322//322 331//331
f 331//331 332//332 323//323
f 330//330 329//329 338//338
f 338//338 339//339 330//330
f 327//327 326//326 335//335
f 335//335 336//336 327//327
f 324//324 323//323 332//332
f 332//332 333//333 324//324
f 249//249 330//330 339//339
f 328//328 327//327 336//336
f 336//336 337//337 328//328
f 325//325 324//324 333//333
f 333//333 334//334 325//325
f 322//322 243//243 331//331
f 329//329 328//328 337//337
f 337//337 338//338 329//329
f 331//331 243//243 340//340
f 338//338 337//337 346//346
f 346//346 347//347 338//338
f 335//335 334//334 343//343
f 343//343 344//344 335//335
f 332//332 331//331 340//340
f 340//340 341//341 332//332
f 339//339 338//338 347//347
f 347//347 348//348 339//339
f 336//336 335//335 344//344
f 344//344 345//345 336//336
f 333//333 332//332 341//341
f 341//341 342//342 333//333
f 249//249 339//339 348//348
f 337//337 336//336 345//345
f 345//345 346//346 337//337
f 334//334 333//333 342//342
f 342//342 343//343 334//334
f 343//343 342//342 351//351
f 351//351 352//352 343//343
f 340//340 243//243 349//349
f 347//347 346//346 355//355
f 355//355 356//356 347//347
f 344//344 343//343 352//352
f 352//352 353//353 344//344
f 341//341 340//340 349//349
f 349//349 350//350 341//341
f 348//348 347//347 356//356
f 356//356 357//357 348//348
f 345//345 344//344 353//353
f 353//353 354//354 345//345
f 342//342 341//341 350//350
f 350//350 351//351 342//342
f 249//249 348//348 357//357
f 346//346 345//345 354//354
f 354//354 355//355 346//346
f 249//249 357//357 366//366
f 355//355 354//354 363//363
f 363//363 364//364 355//355
f 352//352 351//351 360//360
f 360//360 361//361 352//352
f 349//349 243//243 358//358
f 356//356 355//355 364//364
f 364//364 365//365 356//356
f 353//353 352//352 361//361
f 361//361 362//362 353//353
f 350//350 349//349 358//358
f 358//358 359//359 350//350
f 357//357 356//356 365//365
f 365//365 366//366 357//357
f 354//354 353//353 362//362
f 362//362 363//363 354//354
f 351//351 350//350 359//359
f 359//359 360//360 351//351
f 363//363 362//362 371//371
f 371//371 372//372 363//363
f 360//360 359//359 368//368
f 368//368 369//369 360//360
f 249//249 366//366 375//375
f 364//364 363//363 372//372
f 372//372 373//373 364//364
f 361//361 360//360 369//369
f 369//369 370//370 361//361
f 358//358 243//243 367//367
f 365//365 364//364 373//373
f 373//373 374//374 365//365
f 362//362 361//361 370//370
f 370//370 371//371 362//362
f 359//359 358//358 367//367
f 367//367 368//368 359//359
f 366//366 365//365 374//374
f 374//374 375//375 366//366
f 368//368 367//367 376//376
f 376//376 377//377 368//368
f 375//375 374//374 383//383
f 383//383 384//384 375//375
f 372//372 371//371 380//380
f 380//380 381//381 372//372
f 369//369 368//368 377//377
f 377//377 378//378 369//369
f 249//249 375//375 384//384
f 373//373 372//372 381//381
f 381//381 382//382 373//373
f 370//370 369//369 378//378
f 378//378 379//379 370//370
f 367//367 243//243 376//376
f 374//374 373//373 382//382
f 382//382 383//383 374//374
f 371//371 370//370 379//379
f 379//379 380//380 371//371
f 380//380 379//379 388//388
f 388//388 389//389 380//380
f 377//377 376//376 385//385
f 385//385 386//386 377//377
f 384//384 383//383 392//392
f 392//392 393//393 384//384
f 381//381 380//380 389//389
f 389//389 390//390 381//381
f 378//378 377//377 386//386
f 386//386 387//387 378//378
f 249//249 384//384 393//393
f 382//382 381//381 390//390
f 390//390 391//391 382//382
f 379//379 378//378 387//387
f 387//387 388//388 379//379
f 376//376 243//243 385//385
f 383//383 382//382 391//391
f 391//391 392//392 383//383
f 385//385 243//243 394//394
f 392//392 391//391 400//400
f 400//400 401//401 392//392
f 389//389 388//388 397//397
f 397//397 398//398 389//389
f 386//386 385//385 394//394
f 394//394 395//395 386//386
f 393//393 392//392 401//401
f 401//401 402//402 393//393
f 390//390 389//389 398//398
f 398//398 399//399 390//390
f 387//387 386//386 395//395
f 395//395 396//396 387//387
f 249//249 393//393 402//402
f 391//391 390//390 399//399
f 399//399 400//400 391//391
f 388//388 387//387 396//396
f 396//396 397//397 388//388
f 400//400 399//399 408//408
f 408//408 409//409 400//400
f 397//397 396//396 405//405
f 405//405 406//406 397//397
f 394//394 243//243 403//403
f 401//401 400//400 409//409
f 409//409 410//410 401//401
f 398//398 397//397 406//406
f 406//406 407//407 398//398
f 395//395 394//394 403//403
f 403//403 404//404 395//395
f 402//402 401//401 410//410
f 410//410 411//411 402//402
f 399//399 398//398 407//407
f 407//407 408//408 399//399
f 396//396 395//395 404//404
f 404//404 405//405 396//396
f 249//249 402//402 411//411
f 405//405 404//404 413//413
f 413//413 414//414 405//405
f 249//249 411//411 420//420
f 409//409 408//408 417//417
f 417//417 418//418 409//409
f 406//406 405//405 414//414
f 414//414 415//415 406//406
f 403//403 243//243 412//412
f 410//410 409//409 418//418
f 418//418 419//419 410//410
f 407//407 406//406 415//415
f 415//415 416//416 407//407
f 404//404 403//403 412//412
f 412//412 413//413 404//404
f 411//411 410//410 419//419
f 419//419 420//420 411//411
f 408//408 407//407 416//416
f 416//416 417//417 408//408
f 417//417 416//416 423//423
f 423//423 424//424 417//417
f 414//414 413//413 244//244
f 244//244 245//245 414//414
f 249//249 420//420 248//248
f 418//418 417//417 424//424
f 424//424 246//246 418//418
f 415//415 414//414 245//245
f 245//245 422//422 415//415
f 412//412 243//243 421//421
f 419//419 418//418 246//246
f 246//246 247//247 419//419
f 416//416 415//415 422//422
f 422//422 423//423 416//416
f 413//413 412//412 421//421
f 421//421 244//244 413//413
f 420//420 419//419 247//247
f 247//247 248//248 420//420

