# https://github.com/mikedh/trimesh
v 0.00000000 0.02000000 0.00399709
v 0.00312843 0.01975333 0.00399709
v 0.00000000 0.02000000 0.00000000
v -0.00312843 0.01975333 0.00399709
v 0.00617854 0.01901723 0.00399709
v 0.00312843 0.01975333 0.00000000
v -0.00312843 0.01975333 0.00000000
v -0.00617854 0.01901723 0.00399709
v 0.00617854 0.01901723 0.00000000
v 0.00907988 0.01781911 0.00399709
v -0.00617854 0.01901723 0.00000000
v -0.00907988 0.01781911 0.00399709
v 0.00907988 0.01781911 0.00000000
v 0.01175411 0.01617854 0.00399709
v -0.00907988 0.01781911 0.00000000
v -0.01175411 0.01617854 0.00399709
v 0.01175411 0.01617854 0.00000000
v 0.01413861 0.01413861 0.00399709
v -0.01175411 0.01617854 0.00000000
v -0.01413861 0.01413861 0.00399709
v 0.01413861 0.01413861 0.00000000
v 0.01617854 0.01175411 0.00399709
v -0.01413861 0.01413861 0.00000000
v -0.01617854 0.01175411 0.00399709
v 0.01617854 0.01175411 0.00000000
v 0.01781911 0.00907988 0.00399709
v -0.01617854 0.01175411 0.00000000
v -0.01781911 0.00907988 0.00399709
v 0.01781911 0.00907988 0.00000000
v 0.01901723 0.00617854 0.00399709
v -0.01781911 0.00907988 0.00000000
v -0.01901723 0.00617854 0.00399709
v 0.01901723 0.00617854 0.00000000
v 0.01975333 0.00312843 0.00399709
v -0.01901723 0.00617854 0.00000000
v -0.01975333 0.00312843 0.00399709
v 0.01975333 0.00312843 0.00000000
v 0.02000000 0.00000000 0.00399709
v -0.01975333 0.00312843 0.00000000
v -0.02000000 0.00000000 0.00399709
v 0.02000000 0.00000000 0.00000000
v 0.01975333 -0.00312843 0.00399709
v -0.02000000 0.00000000 0.00000000
v -0.01975333 -0.00312843 0.00399709
v 0.01975333 -0.00312843 0.00000000
v 0.01901723 -0.00617854 0.00399709
v -0.01975333 -0.00312843 0.00000000
v -0.01901723 -0.00617854 0.00399709
v 0.01901723 -0.00617854 0.00000000
v 0.01781911 -0.00907988 0.00399709
v -0.01901723 -0.00617854 0.00000000
v -0.01781911 -0.00907988 0.00399709
v 0.01781911 -0.00907988 0.00000000
v 0.01617854 -0.01175411 0.00399709
v -0.01781911 -0.00907988 0.00000000
v -0.01617854 -0.01175411 0.00399709
v 0.01617854 -0.01175411 0.00000000
v 0.01413861 -0.01413861 0.00399709
v -0.01617854 -0.01175411 0.00000000
v -0.01413861 -0.01413861 0.00399709
v 0.01413861 -0.01413861 0.00000000
v 0.01175411 -0.01617854 0.00399709
v -0.01413861 -0.01413861 0.00000000
v -0.01175411 -0.01617854 0.00399709
v 0.01175411 -0.01617854 0.00000000
v 0.00907988 -0.01781911 0.00399709
v -0.01175411 -0.01617854 0.00000000
v -0.00907988 -0.01781911 0.00399709
v 0.00907988 -0.01781911 0.00000000
v 0.00617854 -0.01901723 0.00399709
v -0.00907988 -0.01781911 0.00000000
v -0.00617854 -0.01901723 0.00399709
v 0.00617854 -0.01901723 0.00000000
v 0.00312843 -0.01975333 0.00399709
v -0.00617854 -0.01901723 0.00000000
v -0.00312843 -0.01975333 0.00399709
v 0.00312843 -0.01975333 0.00000000
v 0.00000000 -0.02000000 0.00399709
v -0.00312843 -0.01975333 0.00000000
v 0.00000000 -0.02000000 0.00000000
f 1 2 6
f 1 6 3
f 1 3 7
f 1 7 4
f 1 4 8
f 1 8 12
f 1 12 16
f 1 16 20
f 1 20 24
f 1 24 28
f 1 28 32
f 1 32 36
f 1 36 40
f 1 40 44
f 1 44 48
f 1 48 52
f 1 52 56
f 1 56 60
f 1 60 64
f 1 64 68
f 1 68 72
f 1 72 76
f 1 76 78
f 1 78 74
f 1 74 70
f 1 70 66
f 1 66 62
f 1 62 58
f 1 58 54
f 1 54 50
f 1 50 46
f 1 46 42
f 1 42 38
f 1 38 34
f 1 34 30
f 1 30 26
f 1 26 22
f 1 22 18
f 1 18 14
f 1 14 10
f 1 10 5
f 1 5 2
f 2 5 9
f 2 9 6
f 3 6 9
f 3 9 13
f 3 13 17
f 3 17 21
f 3 21 25
f 3 25 29
f 3 29 33
f 3 33 37
f 3 37 41
f 3 41 45
f 3 45 49
f 3 49 53
f 3 53 57
f 3 57 61
f 3 61 65
f 3 65 69
f 3 69 73
f 3 73 77
f 3 77 80
f 3 80 79
f 3 79 75
f 3 75 71
f 3 71 67
f 3 67 63
f 3 63 59
f 3 59 55
f 3 55 51
f 3 51 47
f 3 47 43
f 3 43 39
f 3 39 35
f 3 35 31
f 3 31 27
f 3 27 23
f 3 23 19
f 3 19 15
f 3 15 11
f 3 11 7
f 4 7 11
f 4 11 8
f 5 10 13
f 5 13 9
f 8 11 15
f 8 15 12
f 10 14 17
f 10 17 13
f 12 15 19
f 12 19 16
f 14 18 21
f 14 21 17
f 16 19 23
f 16 23 20
f 18 22 25
f 18 25 21
f 20 23 27
f 20 27 24
f 22 26 29
f 22 29 25
f 24 27 31
f 24 31 28
f 26 30 33
f 26 33 29
f 28 31 35
f 28 35 32
f 30 34 37
f 30 37 33
f 32 35 39
f 32 39 36
f 34 38 41
f 34 41 37
f 36 39 43
f 36 43 40
f 38 42 45
f 38 45 41
f 40 43 47
f 40 47 44
f 42 46 49
f 42 49 45
f 44 47 51
f 44 51 48
f 46 50 53
f 46 53 49
f 48 51 55
f 48 55 52
f 50 54 57
f 50 57 53
f 52 55 59
f 52 59 56
f 54 58 61
f 54 61 57
f 56 59 63
f 56 63 60
f 58 62 65
f 58 65 61
f 60 63 67
f 60 67 64
f 62 66 69
f 62 69 65
f 64 67 71
f 64 71 68
f 66 70 73
f 66 73 69
f 68 71 75
f 68 75 72
f 70 74 77
f 70 77 73
f 72 75 79
f 72 79 76
f 74 78 80
f 74 80 77
f 76 79 80
f 76 80 78

