# https://github.com/mikedh/trimesh
v -0.02241441 0.01585710 0.00306437
v -0.02657128 0.00711488 0.00306437
v -0.02577534 0.01585710 0.00306437
v -0.02967288 0.01585710 0.06312766
v -0.03286948 0.00711488 0.06312766
v -0.03089503 0.00711488 0.04431379
v -0.02941869 0.00711488 0.00306437
v -0.02746864 0.01585710 0.01716302
v -0.02624777 0.01515190 0.00306437
v -0.03258063 0.01585710 0.06312766
v -0.03552818 0.00711488 0.06312766
v -0.03507501 0.00939907 0.06312766
v -0.02927362 0.00784490 0.00306437
v -0.02800012 0.01159682 0.00306437
v -0.03290799 0.01519299 0.06312766
v -0.03454609 0.01095667 0.06312766
v -0.03310954 0.01095752 0.04949348
v -0.03354731 0.01389556 0.06312766
f 1 2 7
f 1 7 13
f 1 13 14
f 1 14 9
f 1 9 3
f 1 3 8
f 1 8 10
f 1 10 4
f 1 4 5
f 1 5 6
f 1 6 2
f 2 6 5
f 2 5 11
f 2 11 7
f 3 9 8
f 4 10 15
f 4 15 18
f 4 18 16
f 4 16 12
f 4 12 11
f 4 11 5
f 7 11 12
f 7 12 13
f 8 9 14
f 8 14 15
f 8 15 10
f 12 16 17
f 12 17 13
f 13 17 14
f 14 17 18
f 14 18 15
f 16 18 17

