# https://github.com/mikedh/trimesh
v 0.00000690 -0.03631100 0.06312766
v 0.00329626 -0.03609660 0.06312766
v 0.00000690 -0.03369797 0.06312766
v 0.00000690 -0.03030680 0.00306437
v 0.00016037 -0.03029701 0.00306437
v 0.00392086 -0.03496367 0.05220385
v 0.00474078 -0.03600192 0.06312766
v 0.01096963 -0.03178690 0.06312766
v 0.01096963 -0.02519393 0.00306437
v 0.00000690 -0.02750659 0.00306437
v 0.00395735 -0.03004779 0.00306437
v 0.00797862 -0.03535764 0.06312766
v 0.01096963 -0.03454141 0.06312766
v 0.01096963 -0.02821290 0.00306437
v 0.00784340 -0.02927400 0.00306437
v 0.00939739 -0.03507468 0.06312766
v 0.00806126 -0.02920108 0.00306437
f 1 2 7
f 1 7 12
f 1 12 16
f 1 16 13
f 1 13 8
f 1 8 3
f 1 3 10
f 1 10 4
f 1 4 5
f 1 5 2
f 2 5 6
f 2 6 7
f 3 8 9
f 3 9 10
f 4 10 9
f 4 9 14
f 4 14 17
f 4 17 15
f 4 15 11
f 4 11 5
f 5 11 6
f 6 11 7
f 7 11 12
f 8 13 14
f 8 14 9
f 11 15 12
f 12 15 16
f 13 16 17
f 13 17 14
f 15 17 16

