# https://github.com/mikedh/trimesh
v -0.03105100 0.01875019 0.06313354
v -0.03064401 0.01936190 0.06313354
v -0.02791491 0.01875019 0.06313354
v -0.03247400 0.01875019 0.07498250
v -0.02880825 0.02210850 0.06313354
v -0.03463737 0.02000099 0.09997134
v -0.03173075 0.02434990 0.09997134
v -0.02051125 0.02673739 0.06313354
v -0.02051125 0.03129477 0.09997134
v -0.03247256 0.01875019 0.09997134
v -0.03525362 0.01875019 0.09997134
v -0.02785718 0.02319496 0.06313354
v -0.02828148 0.02828188 0.09997134
v -0.02051125 0.02987354 0.06313354
v -0.02051125 0.03429549 0.09997134
v -0.02567793 0.02567831 0.06313354
v -0.02487262 0.03127347 0.09997134
v -0.02210743 0.02880837 0.06313354
v -0.02434874 0.03173149 0.09997134
v -0.02487118 0.02638589 0.06313354
f 1 2 5
f 1 5 12
f 1 12 16
f 1 16 20
f 1 20 18
f 1 18 14
f 1 14 8
f 1 8 3
f 1 3 10
f 1 10 11
f 1 11 4
f 1 4 2
f 2 4 6
f 2 6 7
f 2 7 5
f 3 8 9
f 3 9 10
f 4 11 6
f 5 7 12
f 6 11 10
f 6 10 9
f 6 9 15
f 6 15 19
f 6 19 17
f 6 17 13
f 6 13 7
f 7 13 12
f 8 14 15
f 8 15 9
f 12 13 16
f 13 17 16
f 14 18 15
f 15 18 19
f 16 17 20
f 17 19 18
f 17 18 20

