# https://github.com/mikedh/trimesh
v 0.03487802 0.02593009 0.10300000
v 0.03767131 0.02174972 0.10300000
v 0.03487802 0.02593009 0.10000011
v 0.03034865 0.02593009 0.10300000
v 0.04018869 0.01664772 0.10300000
v 0.03767131 0.02174972 0.10000011
v 0.03463762 0.01999975 0.09997494
v 0.03173232 0.02434737 0.09997494
v 0.03034592 0.02593009 0.09997494
v 0.02703222 0.02593009 0.10000011
v 0.03729432 0.01430721 0.10300000
v 0.04098228 0.01430721 0.10300000
v 0.04018869 0.01664772 0.10000011
v 0.03695148 0.01530622 0.09997494
v 0.03033500 0.02593009 0.09997494
v 0.02702949 0.02592781 0.09997494
v 0.03465947 0.01430721 0.10000011
v 0.04098228 0.01430721 0.10000011
v 0.03729159 0.01430721 0.09997494
v 0.03465674 0.01430721 0.09997524
v 0.03464172 0.01435045 0.09997494
v 0.03682171 0.01430721 0.09997494
f 1 2 6
f 1 6 3
f 1 3 9
f 1 9 15
f 1 15 10
f 1 10 4
f 1 4 11
f 1 11 12
f 1 12 5
f 1 5 2
f 2 5 13
f 2 13 6
f 3 6 7
f 3 7 8
f 3 8 9
f 4 10 11
f 5 12 18
f 5 18 13
f 6 13 7
f 7 13 14
f 7 14 19
f 7 19 22
f 7 22 21
f 7 21 16
f 7 16 15
f 7 15 9
f 7 9 8
f 10 15 16
f 10 16 17
f 10 17 11
f 11 17 20
f 11 20 22
f 11 22 19
f 11 19 18
f 11 18 12
f 13 18 19
f 13 19 14
f 16 20 17
f 16 21 20
f 20 21 22

