mtllib material.mtl
usemtl Cup_Purple_Mat
v 0.00000000 0.00000000 0.00000000
v 0.03000000 0.00000000 0.00000000
v 0.04000000 0.00000000 0.10000000
v 0.04350000 0.00000000 0.10000000
v 0.04350000 0.00000000 0.10300000
v 0.04000000 0.00000000 0.10300000
v 0.03750000 0.00000000 0.10000000
v 0.02750000 0.00000000 0.00300000
v 0.00000000 0.00000000 0.00300000
v 0.02974300 0.00391600 0.00000000
v 0.03965800 0.00522100 0.10000000
v 0.04312800 0.00567800 0.10000000
v 0.04312800 0.00567800 0.10300000
v 0.03965800 0.00522100 0.10300000
v 0.03717900 0.00489500 0.10000000
v 0.02726500 0.00358900 0.00300000
v 0.02897800 0.00776500 0.00000000
v 0.03863700 0.01035300 0.10000000
v 0.04201800 0.01125900 0.10000000
v 0.04201800 0.01125900 0.10300000
v 0.03863700 0.01035300 0.10300000
v 0.03622200 0.00970600 0.10000000
v 0.02656300 0.00711800 0.00300000
v 0.02771600 0.01148100 0.00000000
v 0.03695500 0.01530700 0.10000000
v 0.04018900 0.01664700 0.10000000
v 0.04018900 0.01664700 0.10300000
v 0.03695500 0.01530700 0.10300000
v 0.03464500 0.01435100 0.10000000
v 0.02540700 0.01052400 0.00300000
v 0.02598100 0.01500000 0.00000000
v 0.03464100 0.02000000 0.10000000
v 0.03767200 0.02175000 0.10000000
v 0.03767200 0.02175000 0.10300000
v 0.03464100 0.02000000 0.10300000
v 0.03247600 0.01875000 0.10000000
v 0.02381600 0.01375000 0.00300000
v 0.02380100 0.01826300 0.00000000
v 0.03173400 0.02435000 0.10000000
v 0.03451100 0.02648100 0.10000000
v 0.03451100 0.02648100 0.10300000
v 0.03173400 0.02435000 0.10300000
v 0.02975100 0.02282900 0.10000000
v 0.02181700 0.01674100 0.00300000
v 0.02121300 0.02121300 0.00000000
v 0.02828400 0.02828400 0.10000000
v 0.03075900 0.03075900 0.10000000
v 0.03075900 0.03075900 0.10300000
v 0.02828400 0.02828400 0.10300000
v 0.02651700 0.02651700 0.10000000
v 0.01944500 0.01944500 0.00300000
v 0.01826300 0.02380100 0.00000000
v 0.02435000 0.03173400 0.10000000
v 0.02648100 0.03451100 0.10000000
v 0.02648100 0.03451100 0.10300000
v 0.02435000 0.03173400 0.10300000
v 0.02282900 0.02975100 0.10000000
v 0.01674100 0.02181700 0.00300000
v 0.01500000 0.02598100 0.00000000
v 0.02000000 0.03464100 0.10000000
v 0.02175000 0.03767200 0.10000000
v 0.02175000 0.03767200 0.10300000
v 0.02000000 0.03464100 0.10300000
v 0.01875000 0.03247600 0.10000000
v 0.01375000 0.02381600 0.00300000
v 0.01148100 0.02771600 0.00000000
v 0.01530700 0.03695500 0.10000000
v 0.01664700 0.04018900 0.10000000
v 0.01664700 0.04018900 0.10300000
v 0.01530700 0.03695500 0.10300000
v 0.01435100 0.03464500 0.10000000
v 0.01052400 0.02540700 0.00300000
v 0.00776500 0.02897800 0.00000000
v 0.01035300 0.03863700 0.10000000
v 0.01125900 0.04201800 0.10000000
v 0.01125900 0.04201800 0.10300000
v 0.01035300 0.03863700 0.10300000
v 0.00970600 0.03622200 0.10000000
v 0.00711800 0.02656300 0.00300000
v 0.00391600 0.02974300 0.00000000
v 0.00522100 0.03965800 0.10000000
v 0.00567800 0.04312800 0.10000000
v 0.00567800 0.04312800 0.10300000
v 0.00522100 0.03965800 0.10300000
v 0.00489500 0.03717900 0.10000000
v 0.00358900 0.02726500 0.00300000
v -0.00000000 0.03000000 0.00000000
v -0.00000000 0.04000000 0.10000000
v -0.00000000 0.04350000 0.10000000
v -0.00000000 0.04350000 0.10300000
v -0.00000000 0.04000000 0.10300000
v -0.00000000 0.03750000 0.10000000
v -0.00000000 0.02750000 0.00300000
v -0.00391600 0.02974300 0.00000000
v -0.00522100 0.03965800 0.10000000
v -0.00567800 0.04312800 0.10000000
v -0.00567800 0.04312800 0.10300000
v -0.00522100 0.03965800 0.10300000
v -0.00489500 0.03717900 0.10000000
v -0.00358900 0.02726500 0.00300000
v -0.00776500 0.02897800 0.00000000
v -0.01035300 0.03863700 0.10000000
v -0.01125900 0.04201800 0.10000000
v -0.01125900 0.04201800 0.10300000
v -0.01035300 0.03863700 0.10300000
v -0.00970600 0.03622200 0.10000000
v -0.00711800 0.02656300 0.00300000
v -0.01148100 0.02771600 0.00000000
v -0.01530700 0.03695500 0.10000000
v -0.01664700 0.04018900 0.10000000
v -0.01664700 0.04018900 0.10300000
v -0.01530700 0.03695500 0.10300000
v -0.01435100 0.03464500 0.10000000
v -0.01052400 0.02540700 0.00300000
v -0.01500000 0.02598100 0.00000000
v -0.02000000 0.03464100 0.10000000
v -0.02175000 0.03767200 0.10000000
v -0.02175000 0.03767200 0.10300000
v -0.02000000 0.03464100 0.10300000
v -0.01875000 0.03247600 0.10000000
v -0.01375000 0.02381600 0.00300000
v -0.01826300 0.02380100 0.00000000
v -0.02435000 0.03173400 0.10000000
v -0.02648100 0.03451100 0.10000000
v -0.02648100 0.03451100 0.10300000
v -0.02435000 0.03173400 0.10300000
v -0.02282900 0.02975100 0.10000000
v -0.01674100 0.02181700 0.00300000
v -0.02121300 0.02121300 0.00000000
v -0.02828400 0.02828400 0.10000000
v -0.03075900 0.03075900 0.10000000
v -0.03075900 0.03075900 0.10300000
v -0.02828400 0.02828400 0.10300000
v -0.02651700 0.02651700 0.10000000
v -0.01944500 0.01944500 0.00300000
v -0.02380100 0.01826300 0.00000000
v -0.03173400 0.02435000 0.10000000
v -0.03451100 0.02648100 0.10000000
v -0.03451100 0.02648100 0.10300000
v -0.03173400 0.02435000 0.10300000
v -0.02975100 0.02282900 0.10000000
v -0.02181700 0.01674100 0.00300000
v -0.02598100 0.01500000 0.00000000
v -0.03464100 0.02000000 0.10000000
v -0.03767200 0.02175000 0.10000000
v -0.03767200 0.02175000 0.10300000
v -0.03464100 0.02000000 0.10300000
v -0.03247600 0.01875000 0.10000000
v -0.02381600 0.01375000 0.00300000
v -0.02771600 0.01148000 0.00000000
v -0.03695500 0.01530700 0.10000000
v -0.04018900 0.01664700 0.10000000
v -0.04018900 0.01664700 0.10300000
v -0.03695500 0.01530700 0.10300000
v -0.03464500 0.01435100 0.10000000
v -0.02540700 0.01052400 0.00300000
v -0.02897800 0.00776500 0.00000000
v -0.03863700 0.01035300 0.10000000
v -0.04201800 0.01125900 0.10000000
v -0.04201800 0.01125900 0.10300000
v -0.03863700 0.01035300 0.10300000
v -0.03622200 0.00970600 0.10000000
v -0.02656300 0.00711800 0.00300000
v -0.02974300 0.00391600 0.00000000
v -0.03965800 0.00522100 0.10000000
v -0.04312800 0.00567800 0.10000000
v -0.04312800 0.00567800 0.10300000
v -0.03965800 0.00522100 0.10300000
v -0.03717900 0.00489500 0.10000000
v -0.02726500 0.00358900 0.00300000
v -0.03000000 -0.00000000 0.00000000
v -0.04000000 -0.00000000 0.10000000
v -0.04350000 -0.00000000 0.10000000
v -0.04350000 -0.00000000 0.10300000
v -0.04000000 -0.00000000 0.10300000
v -0.03750000 -0.00000000 0.10000000
v -0.02750000 -0.00000000 0.00300000
v -0.02974300 -0.00391600 0.00000000
v -0.03965800 -0.00522100 0.10000000
v -0.04312800 -0.00567800 0.10000000
v -0.04312800 -0.00567800 0.10300000
v -0.03965800 -0.00522100 0.10300000
v -0.03717900 -0.00489500 0.10000000
v -0.02726500 -0.00358900 0.00300000
v -0.02897800 -0.00776500 0.00000000
v -0.03863700 -0.01035300 0.10000000
v -0.04201800 -0.01125900 0.10000000
v -0.04201800 -0.01125900 0.10300000
v -0.03863700 -0.01035300 0.10300000
v -0.03622200 -0.00970600 0.10000000
v -0.02656300 -0.00711800 0.00300000
v -0.02771600 -0.01148100 0.00000000
v -0.03695500 -0.01530700 0.10000000
v -0.04018900 -0.01664700 0.10000000
v -0.04018900 -0.01664700 0.10300000
v -0.03695500 -0.01530700 0.10300000
v -0.03464500 -0.01435100 0.10000000
v -0.02540700 -0.01052400 0.00300000
v -0.02598100 -0.01500000 0.00000000
v -0.03464100 -0.02000000 0.10000000
v -0.03767200 -0.02175000 0.10000000
v -0.03767200 -0.02175000 0.10300000
v -0.03464100 -0.02000000 0.10300000
v -0.03247600 -0.01875000 0.10000000
v -0.02381600 -0.01375000 0.00300000
v -0.02380100 -0.01826300 0.00000000
v -0.03173400 -0.02435000 0.10000000
v -0.03451100 -0.02648100 0.10000000
v -0.03451100 -0.02648100 0.10300000
v -0.03173400 -0.02435000 0.10300000
v -0.02975100 -0.02282900 0.10000000
v -0.02181700 -0.01674100 0.00300000
v -0.02121300 -0.02121300 0.00000000
v -0.02828400 -0.02828400 0.10000000
v -0.03075900 -0.03075900 0.10000000
v -0.03075900 -0.03075900 0.10300000
v -0.02828400 -0.02828400 0.10300000
v -0.02651700 -0.02651700 0.10000000
v -0.01944500 -0.01944500 0.00300000
v -0.01826300 -0.02380100 0.00000000
v -0.02435000 -0.03173400 0.10000000
v -0.02648100 -0.03451100 0.10000000
v -0.02648100 -0.03451100 0.10300000
v -0.02435000 -0.03173400 0.10300000
v -0.02282900 -0.02975100 0.10000000
v -0.01674100 -0.02181700 0.00300000
v -0.01500000 -0.02598100 0.00000000
v -0.02000000 -0.03464100 0.10000000
v -0.02175000 -0.03767200 0.10000000
v -0.02175000 -0.03767200 0.10300000
v -0.02000000 -0.03464100 0.10300000
v -0.01875000 -0.03247600 0.10000000
v -0.01375000 -0.02381600 0.00300000
v -0.01148000 -0.02771600 0.00000000
v -0.01530700 -0.03695500 0.10000000
v -0.01664700 -0.04018900 0.10000000
v -0.01664700 -0.04018900 0.10300000
v -0.01530700 -0.03695500 0.10300000
v -0.01435100 -0.03464600 0.10000000
v -0.01052400 -0.02540700 0.00300000
v -0.00776500 -0.02897800 0.00000000
v -0.01035300 -0.03863700 0.10000000
v -0.01125900 -0.04201800 0.10000000
v -0.01125900 -0.04201800 0.10300000
v -0.01035300 -0.03863700 0.10300000
v -0.00970600 -0.03622200 0.10000000
v -0.00711800 -0.02656300 0.00300000
v -0.00391600 -0.02974300 0.00000000
v -0.00522100 -0.03965800 0.10000000
v -0.00567800 -0.04312800 0.10000000
v -0.00567800 -0.04312800 0.10300000
v -0.00522100 -0.03965800 0.10300000
v -0.00489500 -0.03717900 0.10000000
v -0.00358900 -0.02726500 0.00300000
v 0.00000000 -0.03000000 0.00000000
v 0.00000000 -0.04000000 0.10000000
v 0.00000000 -0.04350000 0.10000000
v 0.00000000 -0.04350000 0.10300000
v 0.00000000 -0.04000000 0.10300000
v 0.00000000 -0.03750000 0.10000000
v 0.00000000 -0.02750000 0.00300000
v 0.00391600 -0.02974300 0.00000000
v 0.00522100 -0.03965800 0.10000000
v 0.00567800 -0.04312800 0.10000000
v 0.00567800 -0.04312800 0.10300000
v 0.00522100 -0.03965800 0.10300000
v 0.00489500 -0.03717900 0.10000000
v 0.00358900 -0.02726500 0.00300000
v 0.00776500 -0.02897800 0.00000000
v 0.01035300 -0.03863700 0.10000000
v 0.01125900 -0.04201800 0.10000000
v 0.01125900 -0.04201800 0.10300000
v 0.01035300 -0.03863700 0.10300000
v 0.00970600 -0.03622200 0.10000000
v 0.00711800 -0.02656300 0.00300000
v 0.01148100 -0.02771600 0.00000000
v 0.01530700 -0.03695500 0.10000000
v 0.01664700 -0.04018900 0.10000000
v 0.01664700 -0.04018900 0.10300000
v 0.01530700 -0.03695500 0.10300000
v 0.01435100 -0.03464500 0.10000000
v 0.01052400 -0.02540700 0.00300000
v 0.01500000 -0.02598100 0.00000000
v 0.02000000 -0.03464100 0.10000000
v 0.02175000 -0.03767200 0.10000000
v 0.02175000 -0.03767200 0.10300000
v 0.02000000 -0.03464100 0.10300000
v 0.01875000 -0.03247600 0.10000000
v 0.01375000 -0.02381600 0.00300000
v 0.01826300 -0.02380100 0.00000000
v 0.02435000 -0.03173400 0.10000000
v 0.02648100 -0.03451100 0.10000000
v 0.02648100 -0.03451100 0.10300000
v 0.02435000 -0.03173400 0.10300000
v 0.02282900 -0.02975100 0.10000000
v 0.01674100 -0.02181700 0.00300000
v 0.02121300 -0.02121300 0.00000000
v 0.02828400 -0.02828400 0.10000000
v 0.03075900 -0.03075900 0.10000000
v 0.03075900 -0.03075900 0.10300000
v 0.02828400 -0.02828400 0.10300000
v 0.02651700 -0.02651700 0.10000000
v 0.01944500 -0.01944500 0.00300000
v 0.02380100 -0.01826300 0.00000000
v 0.03173400 -0.02435000 0.10000000
v 0.03451100 -0.02648100 0.10000000
v 0.03451100 -0.02648100 0.10300000
v 0.03173400 -0.02435000 0.10300000
v 0.02975100 -0.02282900 0.10000000
v 0.02181700 -0.01674100 0.00300000
v 0.02598100 -0.01500000 0.00000000
v 0.03464100 -0.02000000 0.10000000
v 0.03767200 -0.02175000 0.10000000
v 0.03767200 -0.02175000 0.10300000
v 0.03464100 -0.02000000 0.10300000
v 0.03247600 -0.01875000 0.10000000
v 0.02381600 -0.01375000 0.00300000
v 0.02771600 -0.01148000 0.00000000
v 0.03695500 -0.01530700 0.10000000
v 0.04018900 -0.01664700 0.10000000
v 0.04018900 -0.01664700 0.10300000
v 0.03695500 -0.01530700 0.10300000
v 0.03464600 -0.01435100 0.10000000
v 0.02540700 -0.01052400 0.00300000
v 0.02897800 -0.00776500 0.00000000
v 0.03863700 -0.01035300 0.10000000
v 0.04201800 -0.01125900 0.10000000
v 0.04201800 -0.01125900 0.10300000
v 0.03863700 -0.01035300 0.10300000
v 0.03622200 -0.00970600 0.10000000
v 0.02656300 -0.00711800 0.00300000
v 0.02974300 -0.00391600 0.00000000
v 0.03965800 -0.00522100 0.10000000
v 0.04312800 -0.00567800 0.10000000
v 0.04312800 -0.00567800 0.10300000
v 0.03965800 -0.00522100 0.10300000
v 0.03717900 -0.00489500 0.10000000
v 0.02726500 -0.00358900 0.00300000
vn -0.00000000 -0.00000000 -1.00000000
vn 0.68580000 -0.00000000 -0.72780000
vn 0.65510000 -0.00000000 -0.75560000
vn 0.72120000 -0.00000000 -0.69270000
vn 0.72120000 -0.00000000 0.69270000
vn -0.40950000 -0.00000000 0.91230000
vn -0.91970000 -0.00000000 0.39270000
vn -0.68470000 -0.00000000 0.72880000
vn -0.00000000 -0.00000000 1.00000000
vn 0.67990000 0.08950000 -0.72780000
vn 0.64950000 0.08550000 -0.75560000
vn 0.71510000 0.09410000 -0.69270000
vn 0.71510000 0.09410000 0.69270000
vn -0.40600000 -0.05340000 0.91230000
vn -0.91180000 -0.12000000 0.39270000
vn -0.67880000 -0.08940000 0.72880000
vn 0.66240000 0.17750000 -0.72780000
vn 0.63270000 0.16950000 -0.75560000
vn 0.69670000 0.18670000 -0.69270000
vn 0.69670000 0.18670000 0.69270000
vn -0.39550000 -0.10600000 0.91230000
vn -0.88830000 -0.23800000 0.39270000
vn -0.66140000 -0.17720000 0.72880000
vn 0.63360000 0.26240000 -0.72780000
vn 0.60520000 0.25070000 -0.75560000
vn 0.66630000 0.27600000 -0.69270000
vn 0.66630000 0.27600000 0.69270000
vn -0.37830000 -0.15670000 0.91230000
vn -0.84970000 -0.35190000 0.39270000
vn -0.63260000 -0.26200000 0.72880000
vn 0.59390000 0.34290000 -0.72780000
vn 0.56730000 0.32750000 -0.75560000
vn 0.62460000 0.36060000 -0.69270000
vn 0.62460000 0.36060000 0.69270000
vn -0.35460000 -0.20470000 0.91230000
vn -0.79650000 -0.45980000 0.39270000
vn -0.59300000 -0.34230000 0.72880000
vn 0.54410000 0.41750000 -0.72780000
vn 0.51970000 0.39880000 -0.75560000
vn 0.57220000 0.43910000 -0.69270000
vn 0.57220000 0.43910000 0.69270000
vn -0.32480000 -0.24930000 0.91230000
vn -0.72960000 -0.55990000 0.39270000
vn -0.54320000 -0.41680000 0.72880000
vn 0.48490000 0.48490000 -0.72780000
vn 0.46320000 0.46320000 -0.75560000
vn 0.51000000 0.51000000 -0.69270000
vn 0.51000000 0.51000000 0.69270000
vn -0.28950000 -0.28950000 0.91230000
vn -0.65030000 -0.65030000 0.39270000
vn -0.48410000 -0.48410000 0.72880000
vn 0.41750000 0.54410000 -0.72780000
vn 0.39880000 0.51970000 -0.75560000
vn 0.43910000 0.57220000 -0.69270000
vn 0.43910000 0.57220000 0.69270000
vn -0.24930000 -0.32480000 0.91230000
vn -0.55990000 -0.72960000 0.39270000
vn -0.41680000 -0.54320000 0.72880000
vn 0.34290000 0.59390000 -0.72780000
vn 0.32750000 0.56730000 -0.75560000
vn 0.36060000 0.62460000 -0.69270000
vn 0.36060000 0.62460000 0.69270000
vn -0.20470000 -0.35460000 0.91230000
vn -0.45980000 -0.79650000 0.39270000
vn -0.34230000 -0.59300000 0.72880000
vn 0.26240000 0.63360000 -0.72780000
vn 0.25070000 0.60520000 -0.75560000
vn 0.27600000 0.66630000 -0.69270000
vn 0.27600000 0.66630000 0.69270000
vn -0.15670000 -0.37830000 0.91230000
vn -0.35190000 -0.84970000 0.39270000
vn -0.26200000 -0.63260000 0.72880000
vn 0.17750000 0.66240000 -0.72780000
vn 0.16950000 0.63270000 -0.75560000
vn 0.18670000 0.69670000 -0.69270000
vn 0.18670000 0.69670000 0.69270000
vn -0.10600000 -0.39550000 0.91230000
vn -0.23800000 -0.88830000 0.39270000
vn -0.17720000 -0.66140000 0.72880000
vn 0.08950000 0.67990000 -0.72780000
vn 0.08550000 0.64950000 -0.75560000
vn 0.09410000 0.71510000 -0.69270000
vn 0.09410000 0.71510000 0.69270000
vn -0.05340000 -0.40600000 0.91230000
vn -0.12000000 -0.91180000 0.39270000
vn -0.08940000 -0.67880000 0.72880000
vn -0.00000000 0.68580000 -0.72780000
vn -0.00000000 0.65510000 -0.75560000
vn -0.00000000 0.72120000 -0.69270000
vn -0.00000000 0.72120000 0.69270000
vn -0.00000000 -0.40950000 0.91230000
vn -0.00000000 -0.91970000 0.39270000
vn -0.00000000 -0.68470000 0.72880000
vn -0.08950000 0.67990000 -0.72780000
vn -0.08550000 0.64950000 -0.75560000
vn -0.09410000 0.71510000 -0.69270000
vn -0.09410000 0.71510000 0.69270000
vn 0.05340000 -0.40600000 0.91230000
vn 0.12000000 -0.91180000 0.39270000
vn 0.08940000 -0.67880000 0.72880000
vn -0.17750000 0.66240000 -0.72780000
vn -0.16950000 0.63270000 -0.75560000
vn -0.18670000 0.69670000 -0.69270000
vn -0.18670000 0.69670000 0.69270000
vn 0.10600000 -0.39550000 0.91230000
vn 0.23800000 -0.88830000 0.39270000
vn 0.17720000 -0.66140000 0.72880000
vn -0.26240000 0.63360000 -0.72780000
vn -0.25070000 0.60520000 -0.75560000
vn -0.27600000 0.66630000 -0.69270000
vn -0.27600000 0.66630000 0.69270000
vn 0.15670000 -0.37830000 0.91230000
vn 0.35190000 -0.84970000 0.39270000
vn 0.26200000 -0.63260000 0.72880000
vn -0.34290000 0.59390000 -0.72780000
vn -0.32750000 0.56730000 -0.75560000
vn -0.36060000 0.62460000 -0.69270000
vn -0.36060000 0.62460000 0.69270000
vn 0.20470000 -0.35460000 0.91230000
vn 0.45980000 -0.79650000 0.39270000
vn 0.34230000 -0.59300000 0.72880000
vn -0.41750000 0.54410000 -0.72780000
vn -0.39880000 0.51970000 -0.75560000
vn -0.43910000 0.57220000 -0.69270000
vn -0.43910000 0.57220000 0.69270000
vn 0.24930000 -0.32480000 0.91230000
vn 0.55990000 -0.72960000 0.39270000
vn 0.41680000 -0.54320000 0.72880000
vn -0.48490000 0.48490000 -0.72780000
vn -0.46320000 0.46320000 -0.75560000
vn -0.51000000 0.51000000 -0.69270000
vn -0.51000000 0.51000000 0.69270000
vn 0.28950000 -0.28950000 0.91230000
vn 0.65030000 -0.65030000 0.39270000
vn 0.48410000 -0.48410000 0.72880000
vn -0.54410000 0.41750000 -0.72780000
vn -0.51970000 0.39880000 -0.75560000
vn -0.57220000 0.43910000 -0.69270000
vn -0.57220000 0.43910000 0.69270000
vn 0.32480000 -0.24930000 0.91230000
vn 0.72960000 -0.55990000 0.39270000
vn 0.54320000 -0.41680000 0.72880000
vn -0.59390000 0.34290000 -0.72780000
vn -0.56730000 0.32750000 -0.75560000
vn -0.62460000 0.36060000 -0.69270000
vn -0.62460000 0.36060000 0.69270000
vn 0.35460000 -0.20470000 0.91230000
vn 0.79650000 -0.45980000 0.39270000
vn 0.59300000 -0.34230000 0.72880000
vn -0.63360000 0.26240000 -0.72780000
vn -0.60520000 0.25070000 -0.75560000
vn -0.66630000 0.27600000 -0.69270000
vn -0.66630000 0.27600000 0.69270000
vn 0.37830000 -0.15670000 0.91230000
vn 0.84970000 -0.35190000 0.39270000
vn 0.63260000 -0.26200000 0.72880000
vn -0.66240000 0.17750000 -0.72780000
vn -0.63270000 0.16950000 -0.75560000
vn -0.69670000 0.18670000 -0.69270000
vn -0.69670000 0.18670000 0.69270000
vn 0.39550000 -0.10600000 0.91230000
vn 0.88830000 -0.23800000 0.39270000
vn 0.66140000 -0.17720000 0.72880000
vn -0.67990000 0.08950000 -0.72780000
vn -0.64950000 0.08550000 -0.75560000
vn -0.71510000 0.09410000 -0.69270000
vn -0.71510000 0.09410000 0.69270000
vn 0.40600000 -0.05340000 0.91230000
vn 0.91180000 -0.12000000 0.39270000
vn 0.67880000 -0.08940000 0.72880000
vn -0.68580000 -0.00000000 -0.72780000
vn -0.65510000 -0.00000000 -0.75560000
vn -0.72120000 -0.00000000 -0.69270000
vn -0.72120000 -0.00000000 0.69270000
vn 0.40950000 -0.00000000 0.91230000
vn 0.91970000 -0.00000000 0.39270000
vn 0.68470000 -0.00000000 0.72880000
vn -0.67990000 -0.08950000 -0.72780000
vn -0.64950000 -0.08550000 -0.75560000
vn -0.71510000 -0.09410000 -0.69270000
vn -0.71510000 -0.09410000 0.69270000
vn 0.40600000 0.05340000 0.91230000
vn 0.91180000 0.12000000 0.39270000
vn 0.67880000 0.08940000 0.72880000
vn -0.66240000 -0.17750000 -0.72780000
vn -0.63270000 -0.16950000 -0.75560000
vn -0.69670000 -0.18670000 -0.69270000
vn -0.69670000 -0.18670000 0.69270000
vn 0.39550000 0.10600000 0.91230000
vn 0.88830000 0.23800000 0.39270000
vn 0.66140000 0.17720000 0.72880000
vn -0.63360000 -0.26240000 -0.72780000
vn -0.60520000 -0.25070000 -0.75560000
vn -0.66630000 -0.27600000 -0.69270000
vn -0.66630000 -0.27600000 0.69270000
vn 0.37830000 0.15670000 0.91230000
vn 0.84970000 0.35190000 0.39270000
vn 0.63260000 0.26200000 0.72880000
vn -0.59390000 -0.34290000 -0.72780000
vn -0.56730000 -0.32750000 -0.75560000
vn -0.62460000 -0.36060000 -0.69270000
vn -0.62460000 -0.36060000 0.69270000
vn 0.35460000 0.20470000 0.91230000
vn 0.79650000 0.45980000 0.39270000
vn 0.59300000 0.34230000 0.72880000
vn -0.54410000 -0.41750000 -0.72780000
vn -0.51970000 -0.39880000 -0.75560000
vn -0.57220000 -0.43910000 -0.69270000
vn -0.57220000 -0.43910000 0.69270000
vn 0.32480000 0.24930000 0.91230000
vn 0.72960000 0.55990000 0.39270000
vn 0.54320000 0.41680000 0.72880000
vn -0.48490000 -0.48490000 -0.72780000
vn -0.46320000 -0.46320000 -0.75560000
vn -0.51000000 -0.51000000 -0.69270000
vn -0.51000000 -0.51000000 0.69270000
vn 0.28950000 0.28950000 0.91230000
vn 0.65030000 0.65030000 0.39270000
vn 0.48410000 0.48410000 0.72880000
vn -0.41750000 -0.54410000 -0.72780000
vn -0.39880000 -0.51970000 -0.75560000
vn -0.43910000 -0.57220000 -0.69270000
vn -0.43910000 -0.57220000 0.69270000
vn 0.24930000 0.32480000 0.91230000
vn 0.55990000 0.72960000 0.39270000
vn 0.41680000 0.54320000 0.72880000
vn -0.34290000 -0.59390000 -0.72780000
vn -0.32750000 -0.56730000 -0.75560000
vn -0.36060000 -0.62460000 -0.69270000
vn -0.36060000 -0.62460000 0.69270000
vn 0.20470000 0.35460000 0.91230000
vn 0.45980000 0.79650000 0.39270000
vn 0.34230000 0.59300000 0.72880000
vn -0.26240000 -0.63360000 -0.72780000
vn -0.25070000 -0.60520000 -0.75560000
vn -0.27600000 -0.66630000 -0.69270000
vn -0.27600000 -0.66630000 0.69270000
vn 0.15670000 0.37830000 0.91230000
vn 0.35190000 0.84970000 0.39270000
vn 0.26200000 0.63260000 0.72880000
vn -0.17750000 -0.66240000 -0.72780000
vn -0.16950000 -0.63270000 -0.75560000
vn -0.18670000 -0.69670000 -0.69270000
vn -0.18670000 -0.69670000 0.69270000
vn 0.10600000 0.39550000 0.91230000
vn 0.23800000 0.88830000 0.39270000
vn 0.17720000 0.66140000 0.72880000
vn -0.08950000 -0.67990000 -0.72780000
vn -0.08550000 -0.64950000 -0.75560000
vn -0.09410000 -0.71510000 -0.69270000
vn -0.09410000 -0.71510000 0.69270000
vn 0.05340000 0.40600000 0.91230000
vn 0.12000000 0.91180000 0.39270000
vn 0.08940000 0.67880000 0.72880000
vn -0.00000000 -0.68580000 -0.72780000
vn -0.00000000 -0.65510000 -0.75560000
vn -0.00000000 -0.72120000 -0.69270000
vn -0.00000000 -0.72120000 0.69270000
vn -0.00000000 0.40950000 0.91230000
vn -0.00000000 0.91970000 0.39270000
vn -0.00000000 0.68470000 0.72880000
vn 0.08950000 -0.67990000 -0.72780000
vn 0.08550000 -0.64950000 -0.75560000
vn 0.09410000 -0.71510000 -0.69270000
vn 0.09410000 -0.71510000 0.69270000
vn -0.05340000 0.40600000 0.91230000
vn -0.12000000 0.91180000 0.39270000
vn -0.08940000 0.67880000 0.72880000
vn 0.17750000 -0.66240000 -0.72780000
vn 0.16950000 -0.63270000 -0.75560000
vn 0.18670000 -0.69670000 -0.69270000
vn 0.18670000 -0.69670000 0.69270000
vn -0.10600000 0.39550000 0.91230000
vn -0.23800000 0.88830000 0.39270000
vn -0.17720000 0.66140000 0.72880000
vn 0.26240000 -0.63360000 -0.72780000
vn 0.25070000 -0.60520000 -0.75560000
vn 0.27600000 -0.66630000 -0.69270000
vn 0.27600000 -0.66630000 0.69270000
vn -0.15670000 0.37830000 0.91230000
vn -0.35190000 0.84970000 0.39270000
vn -0.26200000 0.63260000 0.72880000
vn 0.34290000 -0.59390000 -0.72780000
vn 0.32750000 -0.56730000 -0.75560000
vn 0.36060000 -0.62460000 -0.69270000
vn 0.36060000 -0.62460000 0.69270000
vn -0.20470000 0.35460000 0.91230000
vn -0.45980000 0.79650000 0.39270000
vn -0.34230000 0.59300000 0.72880000
vn 0.41750000 -0.54410000 -0.72780000
vn 0.39880000 -0.51970000 -0.75560000
vn 0.43910000 -0.57220000 -0.69270000
vn 0.43910000 -0.57220000 0.69270000
vn -0.24930000 0.32480000 0.91230000
vn -0.55990000 0.72960000 0.39270000
vn -0.41680000 0.54320000 0.72880000
vn 0.48490000 -0.48490000 -0.72780000
vn 0.46320000 -0.46320000 -0.75560000
vn 0.51000000 -0.51000000 -0.69270000
vn 0.51000000 -0.51000000 0.69270000
vn -0.28950000 0.28950000 0.91230000
vn -0.65030000 0.65030000 0.39270000
vn -0.48410000 0.48410000 0.72880000
vn 0.54410000 -0.41750000 -0.72780000
vn 0.51970000 -0.39880000 -0.75560000
vn 0.57220000 -0.43910000 -0.69270000
vn 0.57220000 -0.43910000 0.69270000
vn -0.32480000 0.24930000 0.91230000
vn -0.72960000 0.55990000 0.39270000
vn -0.54320000 0.41680000 0.72880000
vn 0.59390000 -0.34290000 -0.72780000
vn 0.56730000 -0.32750000 -0.75560000
vn 0.62460000 -0.36060000 -0.69270000
vn 0.62460000 -0.36060000 0.69270000
vn -0.35460000 0.20470000 0.91230000
vn -0.79650000 0.45980000 0.39270000
vn -0.59300000 0.34230000 0.72880000
vn 0.63360000 -0.26240000 -0.72780000
vn 0.60520000 -0.25070000 -0.75560000
vn 0.66630000 -0.27600000 -0.69270000
vn 0.66630000 -0.27600000 0.69270000
vn -0.37830000 0.15670000 0.91230000
vn -0.84970000 0.35190000 0.39270000
vn -0.63260000 0.26200000 0.72880000
vn 0.66240000 -0.17750000 -0.72780000
vn 0.63270000 -0.16950000 -0.75560000
vn 0.69670000 -0.18670000 -0.69270000
vn 0.69670000 -0.18670000 0.69270000
vn -0.39550000 0.10600000 0.91230000
vn -0.88830000 0.23800000 0.39270000
vn -0.66140000 0.17720000 0.72880000
vn 0.67990000 -0.08950000 -0.72780000
vn 0.64950000 -0.08550000 -0.75560000
vn 0.71510000 -0.09410000 -0.69270000
vn 0.71510000 -0.09410000 0.69270000
vn -0.40600000 0.05340000 0.91230000
vn -0.91180000 0.12000000 0.39270000
vn -0.67880000 0.08940000 0.72880000
f 5//5 13//13 14//14
f 14//14 6//6 5//5
f 3//3 11//11 12//12
f 12//12 4//4 3//3
f 1//1 10//10 2//2
f 8//8 16//16 9//9
f 6//6 14//14 15//15
f 15//15 7//7 6//6
f 4//4 12//12 13//13
f 13//13 5//5 4//4
f 2//2 10//10 11//11
f 11//11 3//3 2//2
f 7//7 15//15 16//16
f 16//16 8//8 7//7
f 16//16 23//23 9//9
f 14//14 21//21 22//22
f 22//22 15//15 14//14
f 12//12 19//19 20//20
f 20//20 13//13 12//12
f 10//10 17//17 18//18
f 18//18 11//11 10//10
f 15//15 22//22 23//23
f 23//23 16//16 15//15
f 13//13 20//20 21//21
f 21//21 14//14 13//13
f 11//11 18//18 19//19
f 19//19 12//12 11//11
f 1//1 17//17 10//10
f 17//17 24//24 25//25
f 25//25 18//18 17//17
f 22//22 29//29 30//30
f 30//30 23//23 22//22
f 20//20 27//27 28//28
f 28//28 21//21 20//20
f 18//18 25//25 26//26
f 26//26 19//19 18//18
f 1//1 24//24 17//17
f 23//23 30//30 9//9
f 21//21 28//28 29//29
f 29//29 22//22 21//21
f 19//19 26//26 27//27
f 27//27 20//20 19//19
f 29//29 36//36 37//37
f 37//37 30//30 29//29
f 27//27 34//34 35//35
f 35//35 28//28 27//27
f 25//25 32//32 33//33
f 33//33 26//26 25//25
f 1//1 31//31 24//24
f 30//30 37//37 9//9
f 28//28 35//35 36//36
f 36//36 29//29 28//28
f 26//26 33//33 34//34
f 34//34 27//27 26//26
f 24//24 31//31 32//32
f 32//32 25//25 24//24
f 1//1 38//38 31//31
f 37//37 44//44 9//9
f 35//35 42//42 43//43
f 43//43 36//36 35//35
f 33//33 40//40 41//41
f 41//41 34//34 33//33
f 31//31 38//38 39//39
f 39//39 32//32 31//31
f 36//36 43//43 44//44
f 44//44 37//37 36//36
f 34//34 41//41 42//42
f 42//42 35//35 34//34
f 32//32 39//39 40//40
f 40//40 33//33 32//32
f 42//42 49//49 50//50
f 50//50 43//43 42//42
f 40//40 47//47 48//48
f 48//48 41//41 40//40
f 38//38 45//45 46//46
f 46//46 39//39 38//38
f 43//43 50//50 51//51
f 51//51 44//44 43//43
f 41//41 48//48 49//49
f 49//49 42//42 41//41
f 39//39 46//46 47//47
f 47//47 40//40 39//39
f 1//1 45//45 38//38
f 44//44 51//51 9//9
f 50//50 57//57 58//58
f 58//58 51//51 50//50
f 48//48 55//55 56//56
f 56//56 49//49 48//48
f 46//46 53//53 54//54
f 54//54 47//47 46//46
f 1//1 52//52 45//45
f 51//51 58//58 9//9
f 49//49 56//56 57//57
f 57//57 50//50 49//49
f 47//47 54//54 55//55
f 55//55 48//48 47//47
f 45//45 52//52 53//53
f 53//53 46//46 45//45
f 55//55 62//62 63//63
f 63//63 56//56 55//55
f 53//53 60//60 61//61
f 61//61 54//54 53//53
f 1//1 59//59 52//52
f 58//58 65//65 9//9
f 56//56 63//63 64//64
f 64//64 57//57 56//56
f 54//54 61//61 62//62
f 62//62 55//55 54//54
f 52//52 59//59 60//60
f 60//60 53//53 52//52
f 57//57 64//64 65//65
f 65//65 58//58 57//57
f 65//65 72//72 9//9
f 63//63 70//70 71//71
f 71//71 64//64 63//63
f 61//61 68//68 69//69
f 69//69 62//62 61//61
f 59//59 66//66 67//67
f 67//67 60//60 59//59
f 64//64 71//71 72//72
f 72//72 65//65 64//64
f 62//62 69//69 70//70
f 70//70 63//63 62//62
f 60//60 67//67 68//68
f 68//68 61//61 60//60
f 1//1 66//66 59//59
f 68//68 75//75 76//76
f 76//76 69//69 68//68
f 66//66 73//73 74//74
f 74//74 67//67 66//66
f 71//71 78//78 79//79
f 79//79 72//72 71//71
f 69//69 76//76 77//77
f 77//77 70//70 69//69
f 67//67 74//74 75//75
f 75//75 68//68 67//67
f 1//1 73//73 66//66
f 72//72 79//79 9//9
f 70//70 77//77 78//78
f 78//78 71//71 70//70
f 78//78 85//85 86//86
f 86//86 79//79 78//78
f 76//76 83//83 84//84
f 84//84 77//77 76//76
f 74//74 81//81 82//82
f 82//82 75//75 74//74
f 1//1 80//80 73//73
f 79//79 86//86 9//9
f 77//77 84//84 85//85
f 85//85 78//78 77//77
f 75//75 82//82 83//83
f 83//83 76//76 75//75
f 73//73 80//80 81//81
f 81//81 74//74 73//73
f 81//81 88//88 89//89
f 89//89 82//82 81//81
f 1//1 87//87 80//80
f 86//86 93//93 9//9
f 84//84 91//91 92//92
f 92//92 85//85 84//84
f 82//82 89//89 90//90
f 90//90 83//83 82//82
f 80//80 87//87 88//88
f 88//88 81//81 80//80
f 85//85 92//92 93//93
f 93//93 86//86 85//85
f 83//83 90//90 91//91
f 91//91 84//84 83//83
f 93//93 100//100 9//9
f 91//91 98//98 99//99
f 99//99 92//92 91//91
f 89//89 96//96 97//97
f 97//97 90//90 89//89
f 87//87 94//94 95//95
f 95//95 88//88 87//87
f 92//92 99//99 100//100
f 100//100 93//93 92//92
f 90//90 97//97 98//98
f 98//98 91//91 90//90
f 88//88 95//95 96//96
f 96//96 89//89 88//88
f 1//1 94//94 87//87
f 94//94 101//101 102//102
f 102//102 95//95 94//94
f 99//99 106//106 107//107
f 107//107 100//100 99//99
f 97//97 104//104 105//105
f 105//105 98//98 97//97
f 95//95 102//102 103//103
f 103//103 96//96 95//95
f 1//1 101//101 94//94
f 100//100 107//107 9//9
f 98//98 105//105 106//106
f 106//106 99//99 98//98
f 96//96 103//103 104//104
f 104//104 97//97 96//96
f 106//106 113//113 114//114
f 114//114 107//107 106//106
f 104//104 111//111 112//112
f 112//112 105//105 104//104
f 102//102 109//109 110//110
f 110//110 103//103 102//102
f 1//1 108//108 101//101
f 107//107 114//114 9//9
f 105//105 112//112 113//113
f 113//113 106//106 105//105
f 103//103 110//110 111//111
f 111//111 104//104 103//103
f 101//101 108//108 109//109
f 109//109 102//102 101//101
f 1//1 115//115 108//108
f 114//114 121//121 9//9
f 112//112 119//119 120//120
f 120//120 113//113 112//112
f 110//110 117//117 118//118
f 118//118 111//111 110//110
f 108//108 115//115 116//116
f 116//116 109//109 108//108
f 113//113 120//120 121//121
f 121//121 114//114 113//113
f 111//111 118//118 119//119
f 119//119 112//112 111//111
f 109//109 116//116 117//117
f 117//117 110//110 109//109
f 119//119 126//126 127//127
f 127//127 120//120 119//119
f 117//117 124//124 125//125
f 125//125 118//118 117//117
f 115//115 122//122 123//123
f 123//123 116//116 115//115
f 120//120 127//127 128//128
f 128//128 121//121 120//120
f 118//118 125//125 126//126
f 126//126 119//119 118//118
f 116//116 123//123 124//124
f 124//124 117//117 116//116
f 1//1 122//122 115//115
f 121//121 128//128 9//9
f 127//127 134//134 135//135
f 135//135 128//128 127//127
f 125//125 132//132 133//133
f 133//133 126//126 125//125
f 123//123 130//130 131//131
f 131//131 124//124 123//123
f 1//1 129//129 122//122
f 128//128 135//135 9//9
f 126//126 133//133 134//134
f 134//134 127//127 126//126
f 124//124 131//131 132//132
f 132//132 125//125 124//124
f 122//122 129//129 130//130
f 130//130 123//123 122//122
f 132//132 139//139 140//140
f 140//140 133//133 132//132
f 130//130 137//137 138//138
f 138//138 131//131 130//130
f 1//1 136//136 129//129
f 135//135 142//142 9//9
f 133//133 140//140 141//141
f 141//141 134//134 133//133
f 131//131 138//138 139//139
f 139//139 132//132 131//131
f 129//129 136//136 137//137
f 137//137 130//130 129//129
f 134//134 141//141 142//142
f 142//142 135//135 134//134
f 142//142 149//149 9//9
f 140//140 147//147 148//148
f 148//148 141//141 140//140
f 138//138 145//145 146//146
f 146//146 139//139 138//138
f 136//136 143//143 144//144
f 144//144 137//137 136//136
f 141//141 148//148 149//149
f 149//149 142//142 141//141
f 139//139 146//146 147//147
f 147//147 140//140 139//139
f 137//137 144//144 145//145
f 145//145 138//138 137//137
f 1//1 143//143 136//136
f 145//145 152//152 153//153
f 153//153 146//146 145//145
f 143//143 150//150 151//151
f 151//151 144//144 143//143
f 148//148 155//155 156//156
f 156//156 149//149 148//148
f 146//146 153//153 154//154
f 154//154 147//147 146//146
f 144//144 151//151 152//152
f 152//152 145//145 144//144
f 1//1 150//150 143//143
f 149//149 156//156 9//9
f 147//147 154//154 155//155
f 155//155 148//148 147//147
f 155//155 162//162 163//163
f 163//163 156//156 155//155
f 153//153 160//160 161//161
f 161//161 154//154 153//153
f 151//151 158//158 159//159
f 159//159 152//152 151//151
f 1//1 157//157 150//150
f 156//156 163//163 9//9
f 154//154 161//161 162//162
f 162//162 155//155 154//154
f 152//152 159//159 160//160
f 160//160 153//153 152//152
f 150//150 157//157 158//158
f 158//158 151//151 150//150
f 158//158 165//165 166//166
f 166//166 159//159 158//158
f 1//1 164//164 157//157
f 163//163 170//170 9//9
f 161//161 168//168 169//169
f 169//169 162//162 161//161
f 159//159 166//166 167//167
f 167//167 160//160 159//159
f 157//157 164//164 165//165
f 165//165 158//158 157//157
f 162//162 169//169 170//170
f 170//170 163//163 162//162
f 160//160 167//167 168//168
f 168//168 161//161 160//160
f 170//170 177//177 9//9
f 168//168 175//175 176//176
f 176//176 169//169 168//168
f 166//166 173//173 174//174
f 174//174 167//167 166//166
f 164//164 171//171 172//172
f 172//172 165//165 164//164
f 169//169 176//176 177//177
f 177//177 170//170 169//169
f 167//167 174//174 175//175
f 175//175 168//168 167//167
f 165//165 172//172 173//173
f 173//173 166//166 165//165
f 1//1 171//171 164//164
f 171//171 178//178 179//179
f 179//179 172//172 171//171
f 176//176 183//183 184//184
f 184//184 177//177 176//176
f 174//174 181//181 182//182
f 182//182 175//175 174//174
f 172//172 179//179 180//180
f 180//180 173//173 172//172
f 1//1 178//178 171//171
f 177//177 184//184 9//9
f 175//175 182//182 183//183
f 183//183 176//176 175//175
f 173//173 180//180 181//181
f 181//181 174//174 173//173
f 183//183 190//190 191//191
f 191//191 184//184 183//183
f 181//181 188//188 189//189
f 189//189 182//182 181//181
f 179//179 186//186 187//187
f 187//187 180//180 179//179
f 1//1 185//185 178//178
f 184//184 191//191 9//9
f 182//182 189//189 190//190
f 190//190 183//183 182//182
f 180//180 187//187 188//188
f 188//188 181//181 180//180
f 178//178 185//185 186//186
f 186//186 179//179 178//178
f 1//1 192//192 185//185
f 191//191 198//198 9//9
f 189//189 196//196 197//197
f 197//197 190//190 189//189
f 187//187 194//194 195//195
f 195//195 188//188 187//187
f 185//185 192//192 193//193
f 193//193 186//186 185//185
f 190//190 197//197 198//198
f 198//198 191//191 190//190
f 188//188 195//195 196//196
f 196//196 189//189 188//188
f 186//186 193//193 194//194
f 194//194 187//187 186//186
f 196//196 203//203 204//204
f 204//204 197//197 196//196
f 194//194 201//201 202//202
f 202//202 195//195 194//194
f 192//192 199//199 200//200
f 200//200 193//193 192//192
f 197//197 204//204 205//205
f 205//205 198//198 197//197
f 195//195 202//202 203//203
f 203//203 196//196 195//195
f 193//193 200//200 201//201
f 201//201 194//194 193//193
f 1//1 199//199 192//192
f 198//198 205//205 9//9
f 204//204 211//211 212//212
f 212//212 205//205 204//204
f 202//202 209//209 210//210
f 210//210 203//203 202//202
f 200//200 207//207 208//208
f 208//208 201//201 200//200
f 1//1 206//206 199//199
f 205//205 212//212 9//9
f 203//203 210//210 211//211
f 211//211 204//204 203//203
f 201//201 208//208 209//209
f 209//209 202//202 201//201
f 199//199 206//206 207//207
f 207//207 200//200 199//199
f 209//209 216//216 217//217
f 217//217 210//210 209//209
f 207//207 214//214 215//215
f 215//215 208//208 207//207
f 1//1 213//213 206//206
f 212//212 219//219 9//9
f 210//210 217//217 218//218
f 218//218 211//211 210//210
f 208//208 215//215 216//216
f 216//216 209//209 208//208
f 206//206 213//213 214//214
f 214//214 207//207 206//206
f 211//211 218//218 219//219
f 219//219 212//212 211//211
f 219//219 226//226 9//9
f 217//217 224//224 225//225
f 225//225 218//218 217//217
f 215//215 222//222 223//223
f 223//223 216//216 215//215
f 213//213 220//220 221//221
f 221//221 214//214 213//213
f 218//218 225//225 226//226
f 226//226 219//219 218//218
f 216//216 223//223 224//224
f 224//224 217//217 216//216
f 214//214 221//221 222//222
f 222//222 215//215 214//214
f 1//1 220//220 213//213
f 222//222 229//229 230//230
f 230//230 223//223 222//222
f 220//220 227//227 228//228
f 228//228 221//221 220//220
f 225//225 232//232 233//233
f 233//233 226//226 225//225
f 223//223 230//230 231//231
f 231//231 224//224 223//223
f 221//221 228//228 229//229
f 229//229 222//222 221//221
f 1//1 227//227 220//220
f 226//226 233//233 9//9
f 224//224 231//231 232//232
f 232//232 225//225 224//224
f 232//232 239//239 240//240
f 240//240 233//233 232//232
f 230//230 237//237 238//238
f 238//238 231//231 230//230
f 228//228 235//235 236//236
f 236//236 229//229 228//228
f 1//1 234//234 227//227
f 233//233 240//240 9//9
f 231//231 238//238 239//239
f 239//239 232//232 231//231
f 229//229 236//236 237//237
f 237//237 230//230 229//229
f 227//227 234//234 235//235
f 235//235 228//228 227//227
f 235//235 242//242 243//243
f 243//243 236//236 235//235
f 1//1 241//241 234//234
f 240//240 247//247 9//9
f 238//238 245//245 246//246
f 246//246 239//239 238//238
f 236//236 243//243 244//244
f 244//244 237//237 236//236
f 234//234 241//241 242//242
f 242//242 235//235 234//234
f 239//239 246//246 247//247
f 247//247 240//240 239//239
f 237//237 244//244 245//245
f 245//245 238//238 237//237
f 247//247 254//254 9//9
f 245//245 252//252 253//253
f 253//253 246//246 245//245
f 243//243 250//250 251//251
f 251//251 244//244 243//243
f 241//241 248//248 249//249
f 249//249 242//242 241//241
f 246//246 253//253 254//254
f 254//254 247//247 246//246
f 244//244 251//251 252//252
f 252//252 245//245 244//244
f 242//242 249//249 250//250
f 250//250 243//243 242//242
f 1//1 248//248 241//241
f 248//248 255//255 256//256
f 256//256 249//249 248//248
f 253//253 260//260 261//261
f 261//261 254//254 253//253
f 251//251 258//258 259//259
f 259//259 252//252 251//251
f 249//249 256//256 257//257
f 257//257 250//250 249//249
f 1//1 255//255 248//248
f 254//254 261//261 9//9
f 252//252 259//259 260//260
f 260//260 253//253 252//252
f 250//250 257//257 258//258
f 258//258 251//251 250//250
f 260//260 267//267 268//268
f 268//268 261//261 260//260
f 258//258 265//265 266//266
f 266//266 259//259 258//258
f 256//256 263//263 264//264
f 264//264 257//257 256//256
f 1//1 262//262 255//255
f 261//261 268//268 9//9
f 259//259 266//266 267//267
f 267//267 260//260 259//259
f 257//257 264//264 265//265
f 265//265 258//258 257//257
f 255//255 262//262 263//263
f 263//263 256//256 255//255
f 1//1 269//269 262//262
f 268//268 275//275 9//9
f 266//266 273//273 274//274
f 274//274 267//267 266//266
f 264//264 271//271 272//272
f 272//272 265//265 264//264
f 262//262 269//269 270//270
f 270//270 263//263 262//262
f 267//267 274//274 275//275
f 275//275 268//268 267//267
f 265//265 272//272 273//273
f 273//273 266//266 265//265
f 263//263 270//270 271//271
f 271//271 264//264 263//263
f 273//273 280//280 281//281
f 281//281 274//274 273//273
f 271//271 278//278 279//279
f 279//279 272//272 271//271
f 269//269 276//276 277//277
f 277//277 270//270 269//269
f 274//274 281//281 282//282
f 282//282 275//275 274//274
f 272//272 279//279 280//280
f 280//280 273//273 272//272
f 270//270 277//277 278//278
f 278//278 271//271 270//270
f 1//1 276//276 269//269
f 275//275 282//282 9//9
f 281//281 288//288 289//289
f 289//289 282//282 281//281
f 279//279 286//286 287//287
f 287//287 280//280 279//279
f 277//277 284//284 285//285
f 285//285 278//278 277//277
f 1//1 283//283 276//276
f 282//282 289//289 9//9
f 280//280 287//287 288//288
f 288//288 281//281 280//280
f 278//278 285//285 286//286
f 286//286 279//279 278//278
f 276//276 283//283 284//284
f 284//284 277//277 276//276
f 286//286 293//293 294//294
f 294//294 287//287 286//286
f 284//284 291//291 292//292
f 292//292 285//285 284//284
f 1//1 290//290 283//283
f 289//289 296//296 9//9
f 287//287 294//294 295//295
f 295//295 288//288 287//287
f 285//285 292//292 293//293
f 293//293 286//286 285//285
f 283//283 290//290 291//291
f 291//291 284//284 283//283
f 288//288 295//295 296//296
f 296//296 289//289 288//288
f 296//296 303//303 9//9
f 294//294 301//301 302//302
f 302//302 295//295 294//294
f 292//292 299//299 300//300
f 300//300 293//293 292//292
f 290//290 297//297 298//298
f 298//298 291//291 290//290
f 295//295 302//302 303//303
f 303//303 296//296 295//295
f 293//293 300//300 301//301
f 301//301 294//294 293//293
f 291//291 298//298 299//299
f 299//299 292//292 291//291
f 1//1 297//297 290//290
f 299//299 306//306 307//307
f 307//307 300//300 299//299
f 297//297 304//304 305//305
f 305//305 298//298 297//297
f 302//302 309//309 310//310
f 310//310 303//303 302//302
f 300//300 307//307 308//308
f 308//308 301//301 300//300
f 298//298 305//305 306//306
f 306//306 299//299 298//298
f 1//1 304//304 297//297
f 303//303 310//310 9//9
f 301//301 308//308 309//309
f 309//309 302//302 301//301
f 309//309 316//316 317//317
f 317//317 310//310 309//309
f 307//307 314//314 315//315
f 315//315 308//308 307//307
f 305//305 312//312 313//313
f 313//313 306//306 305//305
f 1//1 311//311 304//304
f 310//310 317//317 9//9
f 308//308 315//315 316//316
f 316//316 309//309 308//308
f 306//306 313//313 314//314
f 314//314 307//307 306//306
f 304//304 311//311 312//312
f 312//312 305//305 304//304
f 312//312 319//319 320//320
f 320//320 313//313 312//312
f 1//1 318//318 311//311
f 317//317 324//324 9//9
f 315//315 322//322 323//323
f 323//323 316//316 315//315
f 313//313 320//320 321//321
f 321//321 314//314 313//313
f 311//311 318//318 319//319
f 319//319 312//312 311//311
f 316//316 323//323 324//324
f 324//324 317//317 316//316
f 314//314 321//321 322//322
f 322//322 315//315 314//314
f 324//324 331//331 9//9
f 322//322 329//329 330//330
f 330//330 323//323 322//322
f 320//320 327//327 328//328
f 328//328 321//321 320//320
f 318//318 325//325 326//326
f 326//326 319//319 318//318
f 323//323 330//330 331//331
f 331//331 324//324 323//323
f 321//321 328//328 329//329
f 329//329 322//322 321//321
f 319//319 326//326 327//327
f 327//327 320//320 319//319
f 1//1 325//325 318//318
f 325//325 332//332 333//333
f 333//333 326//326 325//325
f 330//330 337//337 338//338
f 338//338 331//331 330//330
f 328//328 335//335 336//336
f 336//336 329//329 328//328
f 326//326 333//333 334//334
f 334//334 327//327 326//326
f 1//1 332//332 325//325
f 331//331 338//338 9//9
f 329//329 336//336 337//337
f 337//337 330//330 329//329
f 327//327 334//334 335//335
f 335//335 328//328 327//327
f 337//337 7//7 8//8
f 8//8 338//338 337//337
f 335//335 5//5 6//6
f 6//6 336//336 335//335
f 333//333 3//3 4//4
f 4//4 334//334 333//333
f 1//1 2//2 332//332
f 338//338 8//8 9//9
f 336//336 6//6 7//7
f 7//7 337//337 336//336
f 334//334 4//4 5//5
f 5//5 335//335 334//334
f 332//332 2//2 3//3
f 3//3 333//333 332//332

