# https://github.com/mikedh/trimesh
v 0.18827626 0.34269542 0.50000000
v 0.18827626 0.35935441 0.49631119
v 0.13911244 0.38225740 0.49631119
v 0.13392958 0.36800858 0.50000000
v 0.06158955 0.38624108 0.50000000
v -0.06147893 0.37104318 0.46232340
v 0.18827626 0.33078185 0.49086705
v 0.18827626 0.36798361 0.48755985
v 0.14180166 0.38963780 0.48755985
v 0.07200417 0.40835732 0.48755985
v 0.07063511 0.40060228 0.49631119
v 0.06799479 0.38567913 0.50000000
v 0.06158955 0.40140152 0.49631119
v -0.06147893 0.37551388 0.46232340
v -0.06147893 0.36850810 0.45619237
v 0.18827626 0.32597399 0.46232340
v 0.17641924 0.28200373 0.24280190
v 0.18827626 0.36798361 0.47555220
v 0.14180166 0.38963780 0.47555220
v 0.07200417 0.40835732 0.47555220
v 0.06158955 0.40928143 0.48755985
v 0.06158955 0.40928143 0.47555220
v -0.06018321 0.34154651 0.24783903
v -0.06147893 0.34120932 0.24783903
v -0.06147893 0.34766564 0.35440704
v 0.18827626 0.33089423 0.46232340
v 0.17641924 0.28192878 0.24224223
v 0.17641924 0.28170401 0.24010527
v -0.06147893 0.32744756 0.24280190
v 0.18827626 0.35434672 0.46507090
v 0.17641924 0.29825062 0.24783903
v 0.17338777 0.30036110 0.24783903
v 0.11860102 0.32592401 0.24783903
v 0.06156511 0.34119684 0.24783903
v 0.06022050 0.34154651 0.24783903
v 0.00003087 0.34680396 0.24783903
v -0.05849634 0.33186832 0.24010527
v -0.06147893 0.33109406 0.24018160
v 0.18827626 0.35101241 0.46252692
v 0.17641924 0.28628710 0.24010527
v -0.06147893 0.32719779 0.24010527
v 0.16847382 0.29184428 0.24010527
v 0.11525172 0.31667042 0.24010527
v 0.06156511 0.33106908 0.24010527
v 0.05850917 0.33186832 0.24010527
v 0.00003087 0.33697590 0.24010527
v -0.06147893 0.33088174 0.24010527
f 1 2 3
f 1 3 4
f 1 4 12
f 1 12 5
f 1 5 6
f 1 6 7
f 1 7 16
f 1 16 26
f 1 26 39
f 1 39 30
f 1 30 18
f 1 18 8
f 1 8 2
f 2 8 9
f 2 9 3
f 3 9 10
f 3 10 11
f 3 11 12
f 3 12 4
f 5 12 13
f 5 13 14
f 5 14 6
f 6 14 24
f 6 24 38
f 6 38 47
f 6 47 41
f 6 41 29
f 6 29 25
f 6 25 15
f 6 15 7
f 7 15 17
f 7 17 16
f 8 18 19
f 8 19 9
f 9 19 20
f 9 20 10
f 10 20 22
f 10 22 21
f 10 21 11
f 11 21 13
f 11 13 12
f 13 21 14
f 14 21 22
f 14 22 23
f 14 23 24
f 15 25 17
f 16 17 27
f 16 27 28
f 16 28 40
f 16 40 26
f 17 25 29
f 17 29 27
f 18 30 31
f 18 31 32
f 18 32 33
f 18 33 19
f 19 33 20
f 20 33 34
f 20 34 35
f 20 35 22
f 22 35 36
f 22 36 23
f 23 36 37
f 23 37 24
f 24 37 38
f 26 40 39
f 27 29 28
f 28 29 41
f 28 41 47
f 28 47 37
f 28 37 46
f 28 46 45
f 28 45 44
f 28 44 43
f 28 43 42
f 28 42 40
f 30 39 31
f 31 40 42
f 31 42 32
f 31 39 40
f 32 42 33
f 33 42 43
f 33 43 44
f 33 44 34
f 34 44 45
f 34 45 35
f 35 45 36
f 36 45 46
f 36 46 37
f 37 47 38

