# https://github.com/mikedh/trimesh
v -0.06147893 0.37552440 0.46233565
v -0.06615327 0.37511638 0.46233565
v -0.06147893 0.37104812 0.46233565
v -0.06147893 0.34120229 0.24782765
v -0.11889142 0.36097950 0.46233565
v -0.11863342 0.32588935 0.24782765
v -0.21652149 0.30618414 0.46233565
v -0.21652149 0.30312395 0.45620126
v -0.06147893 0.36892399 0.45718014
v -0.06147893 0.33107367 0.24014878
v -0.11520354 0.31667277 0.24010527
v -0.13028893 0.35791931 0.46233565
v -0.11526425 0.31664878 0.24010527
v -0.16848804 0.29184327 0.24010527
v -0.17340520 0.30035177 0.24782765
v -0.21652149 0.31162047 0.46233565
v -0.06147893 0.36852798 0.45620126
v -0.21652149 0.27780238 0.35439643
v -0.06147893 0.33085766 0.24010527
v -0.19044836 0.32986158 0.46233565
v -0.21652149 0.25821719 0.24010527
v -0.21652149 0.27016991 0.24782765
v -0.21652149 0.25326088 0.24275917
v -0.06147893 0.34767067 0.35439643
v -0.06147893 0.32718542 0.24010527
v -0.21652149 0.25292486 0.24010527
v -0.06147893 0.32742545 0.24275917
v -0.06147893 0.32719743 0.24027929
f 1 2 5
f 1 5 12
f 1 12 20
f 1 20 16
f 1 16 7
f 1 7 3
f 1 3 9
f 1 9 17
f 1 17 24
f 1 24 27
f 1 27 28
f 1 28 25
f 1 25 19
f 1 19 10
f 1 10 4
f 1 4 2
f 2 4 6
f 2 6 5
f 3 7 8
f 3 8 9
f 4 10 11
f 4 11 6
f 5 6 12
f 6 11 13
f 6 13 14
f 6 14 15
f 6 15 12
f 7 16 22
f 7 22 21
f 7 21 26
f 7 26 23
f 7 23 18
f 7 18 8
f 8 17 9
f 8 18 17
f 10 19 11
f 11 19 25
f 11 25 26
f 11 26 21
f 11 21 14
f 11 14 13
f 12 15 20
f 14 21 22
f 14 22 15
f 15 22 16
f 15 16 20
f 17 18 23
f 17 23 24
f 23 26 27
f 23 27 24
f 25 28 26
f 26 28 27

