# https://github.com/mikedh/trimesh
v 0.05790035 0.33189946 0.24010527
v 0.05790035 0.32813746 0.24010527
v 0.05790035 0.32834509 0.19959778
v -0.00001615 0.33698064 0.24010527
v -0.13259387 0.30442941 0.24010527
v -0.13259387 0.21219885 -0.45183146
v 0.05790035 0.25615829 -0.43485144
v 0.05790035 0.29060274 -0.21569377
v 0.05154185 0.29231277 -0.21569377
v -0.00001615 0.29680765 -0.21569377
v -0.05153686 0.29231277 -0.21569377
v -0.05845477 0.33186284 0.24010527
v -0.13259387 0.30857006 0.24010527
v -0.13259387 0.21421422 -0.49492913
v 0.05790035 0.26031119 -0.43485144
v -0.00005345 0.25248179 -0.49492913
v 0.04643267 0.26337698 -0.43485144
v -0.00005345 0.26723671 -0.43665016
v -0.10150990 0.27892584 -0.21569377
v -0.11519654 0.31666818 0.24010527
v -0.05851071 0.33185062 0.24010527
v -0.04639038 0.26318154 -0.43665016
v -0.11525248 0.31664374 0.24010527
v -0.13259387 0.26445183 -0.21569377
v -0.13259387 0.21789074 -0.49492913
v -0.00005345 0.25549871 -0.49492913
v -0.03958436 0.25204206 -0.49492913
v -0.09138477 0.25112599 -0.43665016
v -0.04435790 0.25161457 -0.49492913
v -0.08737573 0.24009642 -0.49492913
v -0.13259387 0.23192503 -0.43665016
v -0.12772709 0.22128633 -0.49492913
v -0.12338243 0.22331391 -0.49492913
f 1 2 7
f 1 7 15
f 1 15 8
f 1 8 3
f 1 3 4
f 1 4 12
f 1 12 21
f 1 21 20
f 1 20 23
f 1 23 13
f 1 13 5
f 1 5 2
f 2 5 6
f 2 6 7
f 3 8 9
f 3 9 4
f 4 9 10
f 4 10 11
f 4 11 12
f 5 13 24
f 5 24 31
f 5 31 25
f 5 25 14
f 5 14 6
f 6 14 7
f 7 14 16
f 7 16 26
f 7 26 15
f 8 15 9
f 9 15 17
f 9 17 18
f 9 18 10
f 10 18 11
f 11 19 20
f 11 20 21
f 11 21 12
f 11 18 22
f 11 22 19
f 13 23 19
f 13 19 24
f 14 25 32
f 14 32 33
f 14 33 30
f 14 30 29
f 14 29 27
f 14 27 26
f 14 26 16
f 15 26 17
f 17 26 18
f 18 26 27
f 18 27 22
f 19 23 20
f 19 22 28
f 19 28 24
f 22 27 29
f 22 29 30
f 22 30 28
f 24 28 31
f 25 31 32
f 28 30 31
f 30 33 31
f 31 33 32

