# https://github.com/mikedh/trimesh
v -0.25544715 -0.00003535 -0.49241328
v -0.25544715 0.00002506 -0.49241328
v -0.25236633 -0.00003535 -0.49241328
v -0.26723036 -0.00003535 -0.43662831
v -0.25482699 0.00721467 -0.49241328
v -0.26723036 0.00002506 -0.43662831
v -0.20621382 0.14387752 -0.49241328
v -0.13261387 0.21344750 -0.47886142
v -0.25080591 -0.00003535 -0.45182934
v -0.29679838 -0.00003535 -0.21571115
v -0.25156611 0.04440123 -0.49241328
v -0.26316926 0.04642519 -0.43662831
v -0.29679838 0.00002506 -0.21571115
v -0.29229715 0.05159083 -0.21571115
v -0.20995483 0.14387752 -0.49241328
v -0.13261387 0.21752563 -0.47886142
v -0.13259387 0.23640588 -0.35840026
v -0.13261387 0.21217874 -0.45175764
v -0.13259387 0.30440503 0.24010527
v -0.33318824 -0.00003535 0.24003357
v -0.33696926 -0.00003535 0.24003357
v -0.24004298 0.08738779 -0.49241328
v -0.25112599 0.09140551 -0.43662831
v -0.33696926 0.00008549 0.24003357
v -0.33184788 0.05853876 0.24003357
v -0.27891353 0.10152534 -0.21571115
v -0.19553092 0.16405675 -0.47886142
v -0.18138710 0.17819428 -0.47886142
v -0.16406240 0.19550370 -0.47886142
v -0.22125790 0.12771602 -0.49241328
v -0.23146066 0.13363688 -0.43662831
v -0.20473342 0.17175989 -0.43662831
v -0.17178449 0.20471726 -0.43662831
v -0.13363415 0.23142150 -0.43662831
v -0.13261387 0.23190483 -0.43662831
v -0.13259387 0.24084653 -0.35840026
v -0.13259387 0.30857378 0.24010527
v -0.29915902 0.14387752 0.24010527
v -0.30330014 0.14387752 0.24010527
v -0.31664374 0.11523995 0.24003357
v -0.25918818 0.14387752 -0.21571115
v -0.25700760 0.14843899 -0.21571115
v -0.22739956 0.19079119 -0.21571115
v -0.19082965 0.22737357 -0.21571115
v -0.14843816 0.25700802 -0.21571115
v -0.13259387 0.26440910 -0.21571115
v -0.16852361 0.29180813 0.24010527
v -0.29177701 0.16852759 0.24010527
v -0.30330014 0.14387752 0.24003357
v -0.25812790 0.21658917 0.24010527
v -0.21663664 0.25812572 0.24010527
f 1 2 5
f 1 5 11
f 1 11 22
f 1 22 30
f 1 30 15
f 1 15 7
f 1 7 3
f 1 3 9
f 1 9 20
f 1 20 21
f 1 21 10
f 1 10 4
f 1 4 6
f 1 6 2
f 2 6 5
f 3 7 8
f 3 8 9
f 4 10 13
f 4 13 6
f 5 6 12
f 5 12 11
f 6 13 14
f 6 14 12
f 7 15 16
f 7 16 8
f 8 16 36
f 8 36 17
f 8 17 18
f 8 18 9
f 9 18 19
f 9 19 20
f 10 21 24
f 10 24 13
f 11 12 23
f 11 23 22
f 12 14 23
f 13 24 14
f 14 24 25
f 14 25 26
f 14 26 23
f 15 27 28
f 15 28 29
f 15 29 16
f 15 30 31
f 15 31 32
f 15 32 27
f 16 29 33
f 16 33 34
f 16 34 35
f 16 35 36
f 17 36 46
f 17 46 37
f 17 37 19
f 17 19 18
f 19 37 47
f 19 47 51
f 19 51 50
f 19 50 48
f 19 48 39
f 19 39 38
f 19 38 20
f 20 38 39
f 20 39 21
f 21 39 24
f 22 23 31
f 22 31 30
f 23 26 31
f 24 39 25
f 25 39 40
f 25 40 26
f 26 40 41
f 26 41 31
f 27 32 33
f 27 33 28
f 28 33 29
f 31 41 42
f 31 42 43
f 31 43 32
f 32 43 44
f 32 44 33
f 33 44 34
f 34 44 45
f 34 45 35
f 35 45 46
f 35 46 36
f 37 46 47
f 39 48 49
f 39 49 40
f 40 49 41
f 41 49 48
f 41 48 42
f 42 48 43
f 43 48 50
f 43 50 51
f 43 51 44
f 44 51 47
f 44 47 45
f 45 47 46

