# https://github.com/mikedh/trimesh
v -0.33189258 -0.05823366 0.24010527
v -0.33698151 0.00000887 0.24010527
v -0.32806310 -0.05823366 0.24010527
v -0.34172228 -0.05823366 0.24781358
v -0.34682143 0.00000887 0.24781358
v -0.33698151 0.00007888 0.24010527
v -0.31006253 0.12051911 0.24010527
v -0.32829863 -0.05823366 0.24275103
v -0.40956753 -0.05823366 0.47555220
v -0.34155843 0.06021149 0.24781358
v -0.41465643 0.00000887 0.47555220
v -0.33187211 0.05851392 0.24010527
v -0.31419918 0.12051911 0.24010527
v -0.31032872 0.12051911 0.24275103
v -0.34799892 -0.05823366 0.35440704
v -0.40956753 -0.05823366 0.48758531
v -0.32590264 0.11861153 0.24781358
v -0.31666684 0.11525138 0.24010527
v -0.40835929 0.07200700 0.47555220
v -0.39535546 0.12051911 0.47555220
v -0.41465643 0.00000887 0.48758531
v -0.32501182 0.12051911 0.24781358
v -0.33186188 0.12051911 0.35440704
v -0.37569609 -0.05823366 0.49086705
v -0.40307584 -0.05823366 0.49478480
v -0.40679270 0.00000887 0.49631119
v -0.40835929 0.07200700 0.48758531
v -0.39535546 0.12051911 0.48758531
v -0.36042938 0.12051911 0.49086705
v -0.37698624 -0.05823366 0.49196097
v -0.40169355 -0.05823366 0.49631119
v -0.38653946 -0.05823366 0.50000000
v -0.39162835 0.00000887 0.50000000
v -0.38568959 0.06799933 0.50000000
v -0.40060818 0.07064194 0.49631119
v -0.38724595 0.12051911 0.49631119
v -0.36939895 0.12051911 0.49819374
v -0.37161064 0.12051911 0.50000000
v -0.38316050 0.12051911 0.49727792
f 1 2 6
f 1 6 12
f 1 12 18
f 1 18 13
f 1 13 7
f 1 7 3
f 1 3 8
f 1 8 15
f 1 15 24
f 1 24 30
f 1 30 32
f 1 32 31
f 1 31 25
f 1 25 16
f 1 16 9
f 1 9 4
f 1 4 5
f 1 5 2
f 2 5 6
f 3 7 8
f 4 9 5
f 5 10 6
f 5 9 11
f 5 11 10
f 6 10 12
f 7 13 22
f 7 22 20
f 7 20 28
f 7 28 36
f 7 36 39
f 7 39 38
f 7 38 37
f 7 37 29
f 7 29 23
f 7 23 14
f 7 14 8
f 8 14 15
f 9 16 21
f 9 21 11
f 10 17 18
f 10 18 12
f 10 11 19
f 10 19 20
f 10 20 17
f 11 21 27
f 11 27 19
f 13 18 22
f 14 23 15
f 15 23 24
f 16 25 26
f 16 26 21
f 17 22 18
f 17 20 22
f 19 27 28
f 19 28 20
f 21 26 27
f 23 29 24
f 24 29 30
f 25 31 26
f 26 31 32
f 26 32 33
f 26 33 34
f 26 34 35
f 26 35 27
f 27 35 36
f 27 36 28
f 29 37 32
f 29 32 30
f 32 37 38
f 32 38 34
f 32 34 33
f 34 38 39
f 34 39 35
f 35 39 36

