# https://github.com/mikedh/trimesh
v -0.21653005 -0.35264531 0.47552860
v -0.21653005 -0.35264531 0.48747063
v -0.26656651 -0.31761411 0.47552860
v -0.19923352 -0.17728224 -0.43657008
v -0.19923352 -0.21894003 -0.21564212
v -0.19923352 -0.23737024 -0.06734534
v -0.19923352 -0.27033064 0.24001566
v -0.26656651 -0.31761411 0.48747063
v -0.21653005 -0.34305054 0.49628034
v -0.26152167 -0.31160876 0.49628034
v -0.31763250 -0.26653415 0.47552860
v -0.20475194 -0.17179461 -0.43657008
v -0.19923352 -0.15943877 -0.50000000
v -0.19923352 -0.26570582 0.24001566
v -0.21653005 -0.32462037 0.50000000
v -0.31763250 -0.26653415 0.48747063
v -0.25176150 -0.29997772 0.50000000
v -0.30002707 -0.25172785 0.50000000
v -0.31161988 -0.26146066 0.49628034
v -0.35908243 -0.20730899 0.47552860
v -0.23145863 -0.13365719 -0.43657008
v -0.22138956 -0.12782441 -0.50000000
v -0.19923352 -0.11225882 -0.50000000
v -0.19923352 -0.11225882 -0.49647611
v -0.25085548 -0.00008997 -0.45174235
v -0.33317879 -0.00008997 0.24001566
v -0.21653005 -0.31143618 0.49079874
v -0.38650981 -0.05827972 0.50000000
v -0.37565827 -0.05827972 0.49079874
v -0.35908243 -0.20730899 0.48747063
v -0.33912963 -0.19585051 0.50000000
v -0.35226676 -0.20337445 0.49628034
v -0.36768952 -0.18887877 0.47552860
v -0.24144533 -0.11225882 -0.43657008
v -0.22865823 -0.11225882 -0.50000000
v -0.25237921 -0.00008997 -0.49236491
v -0.25085548 -0.00008997 -0.45184025
v -0.33696756 -0.00008997 0.24001566
v -0.40166488 -0.05827972 0.49628034
v -0.40059415 -0.07067006 0.49628034
v -0.38566557 -0.06804704 0.50000000
v -0.36768952 -0.18887877 0.48747063
v -0.36110035 -0.18887877 0.49422476
v -0.34240362 -0.18884426 0.50000000
v -0.35904124 -0.18887877 0.49628034
v -0.38961905 -0.14187139 0.47552860
v -0.25114375 -0.09144719 -0.43657008
v -0.24006572 -0.08737460 -0.49236491
v -0.25159675 -0.04440530 -0.49236491
v -0.25546789 -0.00008997 -0.49236491
v -0.29681486 -0.00008997 -0.21564212
v -0.40957186 -0.05827972 0.47552860
v -0.40957186 -0.05827972 0.48747063
v -0.40833640 -0.07208512 0.48747063
v -0.38222685 -0.13917935 0.49628034
v -0.36799839 -0.13400233 0.50000000
v -0.38961905 -0.14187139 0.48747063
v -0.40833640 -0.07208512 0.47552860
v -0.26321015 -0.04644158 -0.43657008
v -0.26726660 -0.00008997 -0.43657008
f 1 2 8
f 1 8 3
f 1 3 4
f 1 4 5
f 1 5 6
f 1 6 7
f 1 7 2
f 2 7 9
f 2 9 10
f 2 10 8
f 3 8 16
f 3 16 11
f 3 11 12
f 3 12 4
f 4 12 13
f 4 13 23
f 4 23 24
f 4 24 14
f 4 14 7
f 4 7 6
f 4 6 5
f 7 14 15
f 7 15 9
f 8 10 16
f 9 15 10
f 10 15 17
f 10 17 18
f 10 18 19
f 10 19 16
f 11 16 30
f 11 30 20
f 11 20 21
f 11 21 12
f 12 21 22
f 12 22 13
f 13 22 35
f 13 35 23
f 14 24 25
f 14 25 26
f 14 26 27
f 14 27 15
f 15 28 41
f 15 41 56
f 15 56 44
f 15 44 31
f 15 31 18
f 15 18 17
f 15 27 29
f 15 29 28
f 16 19 30
f 18 31 19
f 19 31 32
f 19 32 30
f 20 30 42
f 20 42 33
f 20 33 21
f 21 34 35
f 21 35 22
f 21 33 34
f 23 35 50
f 23 50 36
f 23 36 37
f 23 37 25
f 23 25 24
f 25 37 36
f 25 36 50
f 25 50 60
f 25 60 51
f 25 51 38
f 25 38 26
f 26 38 28
f 26 28 29
f 26 29 27
f 28 39 40
f 28 40 41
f 28 38 39
f 30 32 43
f 30 43 42
f 31 44 45
f 31 45 32
f 32 45 43
f 33 42 57
f 33 57 46
f 33 46 34
f 34 47 35
f 34 46 47
f 35 47 48
f 35 48 49
f 35 49 50
f 38 51 52
f 38 52 53
f 38 53 39
f 39 53 40
f 40 53 54
f 40 54 55
f 40 55 56
f 40 56 41
f 42 43 57
f 43 45 55
f 43 55 57
f 44 56 45
f 45 56 55
f 46 57 54
f 46 54 58
f 46 58 47
f 47 59 49
f 47 49 48
f 47 58 59
f 49 59 60
f 49 60 50
f 51 60 52
f 52 58 54
f 52 54 53
f 52 60 59
f 52 59 58
f 54 57 55

