# https://github.com/mikedh/trimesh
v 0.32058561 0.10060570 0.24010527
v 0.31665164 0.10060570 0.24010527
v 0.27913737 0.10060570 -0.21571046
v 0.27890599 0.10157928 -0.21571046
v 0.31665164 0.11523202 0.24010527
v 0.05790877 0.32812884 0.24010527
v 0.22879270 0.10062834 -0.45182833
v 0.24730556 0.10060570 -0.39360553
v 0.25175378 0.10060570 -0.39360553
v 0.24679132 0.10062834 -0.43662730
v 0.23144107 0.13366210 -0.43662730
v 0.25702482 0.14844692 -0.21571046
v 0.29181355 0.16852981 0.24010527
v 0.31662589 0.11529995 0.24010527
v 0.05790877 0.33190995 0.24010527
v 0.05790877 0.25615191 -0.43483472
v 0.23048972 0.10062834 -0.49241221
v 0.23385802 0.10062834 -0.49241221
v 0.22123329 0.12775269 -0.49241221
v 0.19570097 0.16425060 -0.49241221
v 0.20470028 0.17181282 -0.43662730
v 0.22737853 0.19083157 -0.21571046
v 0.25810474 0.21657480 0.24010527
v 0.05852588 0.33186466 0.24010527
v 0.05790877 0.32835525 0.19966480
v 0.05790877 0.26029530 -0.43483472
v 0.14386499 0.20618242 -0.49241221
v 0.16422912 0.19572210 -0.49241221
v 0.17178854 0.20471072 -0.43662730
v 0.19078992 0.22735210 -0.21571046
v 0.21663079 0.25809908 0.24010527
v 0.11527291 0.31664968 0.24010527
v 0.10151684 0.27890649 -0.21571046
v 0.05790877 0.29058945 -0.21571046
v 0.09105193 0.25141987 -0.43483472
v 0.14386499 0.20994088 -0.49241221
v 0.14386499 0.22425023 -0.43662730
v 0.14841606 0.25701231 -0.21571046
v 0.16849737 0.29178944 0.24010527
v 0.11532433 0.31662703 0.24010527
v 0.14386499 0.25918585 -0.21571046
v 0.09148904 0.25128403 -0.43483472
v 0.13373435 0.23158604 -0.43483472
v 0.14386499 0.30331391 0.24010527
v 0.14386499 0.26525375 -0.15304208
f 1 2 8
f 1 8 9
f 1 9 3
f 1 3 4
f 1 4 5
f 1 5 14
f 1 14 13
f 1 13 23
f 1 23 31
f 1 31 39
f 1 39 44
f 1 44 40
f 1 40 32
f 1 32 24
f 1 24 15
f 1 15 6
f 1 6 2
f 2 6 7
f 2 7 8
f 3 9 10
f 3 10 4
f 4 10 11
f 4 11 12
f 4 12 13
f 4 13 14
f 4 14 5
f 6 15 25
f 6 25 34
f 6 34 26
f 6 26 16
f 6 16 7
f 7 16 17
f 7 17 8
f 8 17 18
f 8 18 9
f 9 18 10
f 10 18 11
f 11 18 19
f 11 19 20
f 11 20 21
f 11 21 22
f 11 22 12
f 12 22 13
f 13 22 23
f 15 24 25
f 16 26 36
f 16 36 27
f 16 27 17
f 17 27 36
f 17 36 28
f 17 28 20
f 17 20 19
f 17 19 18
f 20 28 21
f 21 28 29
f 21 29 22
f 22 29 30
f 22 30 31
f 22 31 23
f 24 32 25
f 25 32 33
f 25 33 34
f 26 34 35
f 26 35 36
f 28 36 37
f 28 37 29
f 29 37 38
f 29 38 30
f 30 38 31
f 31 38 39
f 32 40 33
f 33 40 41
f 33 41 42
f 33 42 35
f 33 35 34
f 35 42 36
f 36 42 43
f 36 43 37
f 37 43 38
f 38 43 41
f 38 41 39
f 39 41 45
f 39 45 44
f 40 44 45
f 40 45 41
f 41 43 42

