# https://github.com/mikedh/trimesh
v -0.06151219 -0.40926236 0.47547016
v -0.06151219 -0.40926236 0.48754039
v -0.07201813 -0.40835273 0.47547016
v -0.05775119 -0.26013416 -0.43661186
v -0.05775119 -0.29063192 -0.21564856
v -0.05775119 -0.29379034 -0.18099529
v -0.05775119 -0.32749707 0.18987265
v -0.05775119 -0.33191887 0.24010043
v -0.06151219 -0.40140420 0.49630105
v -0.07201813 -0.40835273 0.48754039
v -0.14181428 -0.38962960 0.47547016
v -0.09141372 -0.25111371 -0.43661186
v -0.08740406 -0.24007186 -0.49443221
v -0.05775119 -0.24800582 -0.49443221
v -0.05775119 -0.32812876 0.24010043
v -0.06151219 -0.38624376 0.50000000
v -0.07066604 -0.40059566 0.49630105
v -0.13912563 -0.38225153 0.49630105
v -0.14181428 -0.38962960 0.48754039
v -0.20732102 -0.35908133 0.47547016
v -0.13360846 -0.23145568 -0.43661186
v -0.12778045 -0.22129819 -0.49443221
v -0.09219079 -0.23787360 -0.49443221
v -0.05775119 -0.24489793 -0.49443221
v -0.05775119 -0.24320501 -0.45169967
v -0.19919291 -0.15115587 -0.45169967
v -0.21650594 -0.25328672 0.24272864
v -0.06151219 -0.34766045 0.35437837
v -0.06151219 -0.37537879 0.49084997
v -0.06802401 -0.38566262 0.50000000
v -0.21650594 -0.31147754 0.49084997
v -0.21650594 -0.32466713 0.50000000
v -0.13396591 -0.36800072 0.50000000
v -0.20338906 -0.35228437 0.49630105
v -0.20732102 -0.35908133 0.48754039
v -0.21650594 -0.35266340 0.47547016
v -0.17176244 -0.20472276 -0.43661186
v -0.16420935 -0.19575283 -0.49443221
v -0.19919291 -0.15401109 -0.49443221
v -0.05775119 -0.24439259 -0.48197260
v -0.21650594 -0.25293297 0.24010043
v -0.21650594 -0.27782136 0.35437837
v -0.21650594 -0.34308705 0.49630105
v -0.19580489 -0.33914533 0.50000000
v -0.21650594 -0.35266340 0.48754039
v -0.21650594 -0.27019060 0.24779035
v -0.19919291 -0.15926671 -0.49443221
v -0.19919291 -0.17733291 -0.43661186
v -0.19569610 -0.16424438 -0.49443221
v -0.21650594 -0.25823912 0.24010043
v -0.19874221 -0.15992366 -0.49443221
v -0.19619343 -0.16356216 -0.49443221
f 1 2 10
f 1 10 3
f 1 3 4
f 1 4 5
f 1 5 6
f 1 6 7
f 1 7 8
f 1 8 2
f 2 9 10
f 2 8 9
f 3 10 19
f 3 19 11
f 3 11 12
f 3 12 4
f 4 12 13
f 4 13 14
f 4 14 24
f 4 24 40
f 4 40 25
f 4 25 15
f 4 15 8
f 4 8 7
f 4 7 6
f 4 6 5
f 8 15 16
f 8 16 9
f 9 16 17
f 9 17 10
f 10 17 18
f 10 18 19
f 11 19 35
f 11 35 20
f 11 20 21
f 11 21 12
f 12 21 22
f 12 22 23
f 12 23 13
f 13 23 22
f 13 22 38
f 13 38 49
f 13 49 52
f 13 52 51
f 13 51 47
f 13 47 39
f 13 39 24
f 13 24 14
f 15 25 26
f 15 26 27
f 15 27 28
f 15 28 29
f 15 29 16
f 16 30 17
f 16 29 31
f 16 31 32
f 16 32 44
f 16 44 33
f 16 33 30
f 17 30 33
f 17 33 18
f 18 33 34
f 18 34 19
f 19 34 35
f 20 35 45
f 20 45 36
f 20 36 21
f 21 37 22
f 21 36 37
f 22 37 38
f 24 39 26
f 24 26 40
f 25 40 26
f 26 39 41
f 26 41 27
f 27 41 50
f 27 50 46
f 27 46 36
f 27 36 45
f 27 45 43
f 27 43 32
f 27 32 31
f 27 31 42
f 27 42 29
f 27 29 28
f 29 42 31
f 32 43 34
f 32 34 44
f 33 44 34
f 34 43 45
f 34 45 35
f 36 46 47
f 36 47 48
f 36 48 37
f 37 48 38
f 38 48 49
f 39 47 50
f 39 50 41
f 46 50 47
f 47 51 48
f 48 51 52
f 48 52 49

