# https://github.com/mikedh/trimesh
v -0.00000229 0.41466665 0.48758286
v -0.00000229 0.40678722 0.49631688
v 0.06157257 0.40140328 0.49631688
v 0.06157257 0.40813586 0.48885113
v 0.06157257 0.40927210 0.48758286
v -0.00000229 0.41466665 0.47555652
v -0.07203017 0.40835884 0.48758286
v -0.07064188 0.40060684 0.49631688
v -0.00000229 0.39163363 0.50000000
v -0.06802863 0.38568687 0.50000000
v 0.06157257 0.38624969 0.50000000
v 0.06157257 0.40927210 0.47555652
v 0.06157257 0.39555210 0.46398365
v -0.00000229 0.39920512 0.46252736
v -0.06933525 0.39314154 0.46252736
v -0.07203017 0.40835884 0.47555652
v -0.14179868 0.38964784 0.48758286
v -0.13913098 0.38225687 0.49631688
v -0.13393170 0.36801654 0.50000000
v 0.06157257 0.38521963 0.49913728
v -0.21652149 0.32466897 0.50000000
v -0.21652149 0.31149054 0.49087885
v 0.06157257 0.39382118 0.46252736
v -0.00000229 0.38089761 0.46233565
v -0.05441792 0.37614021 0.46233565
v -0.06615035 0.37511015 0.46233565
v -0.13025680 0.35793892 0.46233565
v -0.13651773 0.37513140 0.46252736
v -0.14179868 0.38964784 0.47555652
v -0.20732065 0.35911766 0.48758286
v -0.20337354 0.35230011 0.49631688
v -0.19580598 0.33917481 0.50000000
v 0.06157257 0.37539688 0.49087885
v -0.21652149 0.33811286 0.49731600
v -0.21652149 0.30618095 0.46233565
v 0.06157257 0.37551367 0.46233565
v -0.19044337 0.32987237 0.46233565
v -0.19958976 0.34573746 0.46252736
v -0.20732065 0.35911766 0.47555652
v -0.21652149 0.35268241 0.48758286
v -0.21652149 0.34311453 0.49631688
v 0.06157257 0.37104300 0.46233565
v -0.21652149 0.31161797 0.46233565
v -0.21652149 0.33389705 0.46252736
v -0.21652149 0.35268241 0.47555652
f 1 2 3
f 1 3 4
f 1 4 5
f 1 5 12
f 1 12 6
f 1 6 16
f 1 16 7
f 1 7 8
f 1 8 2
f 2 9 11
f 2 11 3
f 2 8 10
f 2 10 9
f 3 11 20
f 3 20 33
f 3 33 42
f 3 42 36
f 3 36 23
f 3 23 13
f 3 13 12
f 3 12 5
f 3 5 4
f 6 12 13
f 6 13 14
f 6 14 15
f 6 15 16
f 7 16 29
f 7 29 17
f 7 17 18
f 7 18 8
f 8 18 10
f 9 10 19
f 9 19 32
f 9 32 21
f 9 21 11
f 10 18 19
f 11 21 22
f 11 22 20
f 13 23 14
f 14 23 36
f 14 36 24
f 14 24 25
f 14 25 15
f 15 25 26
f 15 26 27
f 15 27 28
f 15 28 16
f 16 28 29
f 17 29 39
f 17 39 30
f 17 30 18
f 18 30 31
f 18 31 32
f 18 32 19
f 20 22 33
f 21 32 34
f 21 34 41
f 21 41 40
f 21 40 45
f 21 45 44
f 21 44 43
f 21 43 35
f 21 35 22
f 22 35 33
f 24 36 42
f 24 42 35
f 24 35 43
f 24 43 37
f 24 37 27
f 24 27 26
f 24 26 25
f 27 37 38
f 27 38 28
f 28 38 39
f 28 39 29
f 30 39 45
f 30 45 40
f 30 40 41
f 30 41 31
f 31 41 32
f 32 41 34
f 33 35 42
f 37 43 44
f 37 44 38
f 38 44 39
f 39 44 45

