# https://github.com/mikedh/trimesh
v -0.25550807 0.00001785 -0.50000000
v -0.25535798 0.00001785 -0.49240336
v -0.25150576 0.04429467 -0.49240336
v -0.25160581 0.04429467 -0.50000000
v -0.25160581 -0.04431017 -0.50000000
v -0.25150576 -0.04431017 -0.49240336
v -0.20953159 0.14385355 -0.47889891
v -0.23994911 0.08724064 -0.49240336
v -0.24009919 0.08734301 -0.50000000
v -0.24009919 -0.08735850 -0.50000000
v -0.24185020 -0.08034588 -0.49240336
v -0.00001093 0.26337537 -0.43489319
v -0.20958161 0.14385355 -0.47907099
v -0.22113827 0.12767842 -0.49240336
v -0.00001093 0.26741916 -0.43489319
v -0.20948157 0.14395592 -0.47889891
v -0.22128837 0.12772962 -0.50000000
v -0.23994911 -0.08730732 -0.49240336
v -0.22854254 -0.11213305 -0.50000000
v -0.22839245 -0.11213305 -0.49240336
v 0.14382191 0.21955924 -0.43489319
v -0.16410543 -0.19561918 -0.49442998
v -0.12768446 -0.22116153 -0.49442998
v -0.08731120 -0.23999839 -0.49442998
v -0.19542347 0.16402125 -0.47889891
v -0.19572364 0.16427720 -0.50000000
v -0.21003188 0.14385355 -0.50000000
v 0.00003910 0.26741916 -0.43489319
v -0.00001093 0.26721442 -0.43669039
v -0.04433646 0.25165355 -0.50000000
v -0.08731120 0.24008526 -0.50000000
v -0.08731120 0.24003407 -0.49492708
v -0.13253725 0.21751176 -0.47889891
v -0.16400537 0.19550131 -0.47889891
v 0.14382191 -0.21005394 -0.50000000
v -0.04433646 -0.25156665 -0.49999362
v -0.08731120 -0.24004957 -0.49999362
v -0.12773448 -0.22126392 -0.49999362
v -0.16420549 -0.19572155 -0.49999362
v -0.19572364 -0.16419031 -0.49999362
v -0.19912560 -0.15932754 -0.49999362
v -0.19912560 -0.15917398 -0.49442998
v -0.19562358 -0.16413912 -0.49442998
v -0.16785759 -0.19188252 -0.49442998
v 0.14382191 0.22447319 -0.43489319
v -0.04433646 -0.25151548 -0.49442998
v -0.00006096 -0.25540569 -0.49442998
v 0.04431460 -0.25151548 -0.49442998
v 0.14382191 -0.20984919 -0.49240974
v 0.16418363 -0.19561918 -0.49240974
v 0.19565175 -0.16413912 -0.49240974
v 0.21706408 -0.13358045 -0.49240974
v 0.22121647 -0.12759155 -0.49240974
v 0.24002731 -0.08730732 -0.49240974
v 0.25153393 -0.04431017 -0.49240974
v 0.25543618 0.00006903 -0.49240974
v -0.16425551 0.19570605 -0.50000000
v 0.04641581 0.26332420 -0.43489319
v 0.04636578 0.26317063 -0.43669039
v 0.00003910 0.26721442 -0.43669039
v -0.00001093 0.25554377 -0.50000000
v -0.12773448 0.22129960 -0.50000000
v -0.12768446 0.22119723 -0.49492708
v 0.12766260 -0.22116153 -0.49442998
v 0.12771262 -0.22126392 -0.49999362
v 0.08733938 -0.24004957 -0.49999362
v 0.04431460 -0.25156665 -0.49999362
v -0.00006096 -0.25550807 -0.49999362
v 0.16428369 -0.19572155 -0.50000000
v 0.19575182 0.16422601 -0.49999362
v 0.14382191 0.22426845 -0.43669039
v 0.13366605 0.23158820 -0.43489319
v 0.25218430 0.03707729 -0.49240974
v 0.25153393 0.04429467 -0.49240974
v 0.24002731 0.08724064 -0.49240974
v 0.22121647 0.12767842 -0.49240974
v 0.19565175 0.16417482 -0.49240974
v 0.08728935 -0.23999839 -0.49442998
v 0.19575182 -0.16424151 -0.50000000
v 0.22131653 -0.12769392 -0.50000000
v 0.24012737 -0.08735850 -0.50000000
v 0.25168401 -0.04431017 -0.50000000
v 0.25558627 0.00006903 -0.50000000
v 0.09144174 0.25129524 -0.43489319
v 0.09139171 0.25109047 -0.43669039
v 0.04431460 0.25165355 -0.50000000
v 0.22131653 0.12772962 -0.49999362
v 0.23397382 0.10049809 -0.50000000
v 0.14382191 0.21003844 -0.50000000
v 0.16428369 0.19570605 -0.49999362
v 0.14387193 0.21003844 -0.49999362
v 0.13356599 0.23143464 -0.43669039
v 0.25168401 0.04429467 -0.50000000
v 0.24012737 0.08734301 -0.50000000
v 0.12771262 0.22129960 -0.50000000
v 0.08733938 0.24008526 -0.50000000
f 1 2 3
f 1 3 4
f 1 4 9
f 1 9 17
f 1 17 27
f 1 27 26
f 1 26 57
f 1 57 62
f 1 62 31
f 1 31 30
f 1 30 61
f 1 61 86
f 1 86 96
f 1 96 95
f 1 95 89
f 1 89 88
f 1 88 94
f 1 94 93
f 1 93 83
f 1 83 82
f 1 82 81
f 1 81 80
f 1 80 79
f 1 79 69
f 1 69 35
f 1 35 19
f 1 19 10
f 1 10 5
f 1 5 6
f 1 6 2
f 2 6 7
f 2 7 3
f 3 7 8
f 3 8 9
f 3 9 4
f 5 10 6
f 6 10 11
f 6 11 12
f 6 12 7
f 7 13 14
f 7 14 8
f 7 12 15
f 7 15 16
f 7 16 13
f 8 14 9
f 9 14 17
f 10 18 11
f 10 19 20
f 10 20 18
f 11 18 12
f 12 21 45
f 12 45 72
f 12 72 84
f 12 84 58
f 12 58 28
f 12 28 15
f 12 18 20
f 12 20 22
f 12 22 23
f 12 23 24
f 12 24 21
f 13 16 25
f 13 25 26
f 13 26 27
f 13 27 17
f 13 17 14
f 15 28 60
f 15 60 29
f 15 29 30
f 15 30 31
f 15 31 32
f 15 32 33
f 15 33 34
f 15 34 25
f 15 25 16
f 19 35 36
f 19 36 37
f 19 37 38
f 19 38 39
f 19 39 40
f 19 40 41
f 19 41 42
f 19 42 20
f 20 42 43
f 20 43 44
f 20 44 22
f 21 24 46
f 21 46 47
f 21 47 48
f 21 48 49
f 21 49 50
f 21 50 51
f 21 51 52
f 21 52 53
f 21 53 54
f 21 54 55
f 21 55 56
f 21 56 45
f 22 44 39
f 22 39 23
f 23 39 38
f 23 38 24
f 24 38 37
f 24 37 36
f 24 36 46
f 25 34 26
f 26 34 57
f 28 58 59
f 28 59 60
f 29 60 61
f 29 61 30
f 31 62 32
f 32 62 63
f 32 63 33
f 33 63 62
f 33 62 34
f 34 62 57
f 35 49 64
f 35 64 65
f 35 65 66
f 35 66 67
f 35 67 68
f 35 68 36
f 35 69 50
f 35 50 49
f 36 68 46
f 39 44 43
f 39 43 40
f 40 43 42
f 40 42 41
f 45 70 71
f 45 71 72
f 45 56 73
f 45 73 74
f 45 74 75
f 45 75 76
f 45 76 77
f 45 77 70
f 46 68 47
f 47 68 48
f 48 68 67
f 48 67 66
f 48 66 78
f 48 78 49
f 49 78 64
f 50 69 79
f 50 79 51
f 51 79 52
f 52 79 80
f 52 80 53
f 53 80 54
f 54 80 81
f 54 81 82
f 54 82 55
f 55 82 83
f 55 83 56
f 56 83 73
f 58 84 59
f 59 61 60
f 59 84 85
f 59 85 86
f 59 86 61
f 64 78 65
f 65 78 66
f 70 87 88
f 70 88 89
f 70 89 90
f 70 90 71
f 70 77 76
f 70 76 87
f 71 90 91
f 71 91 92
f 71 92 72
f 72 92 84
f 73 83 93
f 73 93 74
f 74 93 75
f 75 93 94
f 75 94 76
f 76 94 87
f 84 92 85
f 85 92 95
f 85 95 96
f 85 96 86
f 87 94 88
f 89 95 91
f 89 91 90
f 91 95 92

