# https://github.com/mikedh/trimesh
v 0.12094694 -0.39523277 0.47551996
v 0.12094694 -0.32476506 0.24781668
v 0.14390747 -0.20992205 -0.49231616
v 0.14390747 -0.22426985 -0.43655604
v 0.14189339 -0.38963288 0.47551996
v 0.12094694 -0.39523277 0.48746857
v 0.12094694 -0.31398904 0.24004523
v 0.14390747 -0.20616861 -0.49231616
v 0.16423626 -0.19569531 -0.49231616
v 0.17180921 -0.20471567 -0.43655604
v 0.20736447 -0.35909081 0.47551996
v 0.14189339 -0.38963288 0.48746857
v 0.13918109 -0.38224709 0.49630859
v 0.12094694 -0.38709024 0.49630859
v 0.12094694 -0.30984211 0.24004523
v 0.14390747 -0.20535132 -0.47444183
v 0.23558846 -0.08599815 -0.45180750
v 0.23725343 -0.08599815 -0.49231616
v 0.19570965 -0.16424516 -0.49231616
v 0.20473273 -0.17178230 -0.43655604
v 0.29243925 -0.29171062 0.47551996
v 0.26649788 -0.31762141 0.47551996
v 0.20736447 -0.35909081 0.48746857
v 0.20344372 -0.35224986 0.49630859
v 0.19587077 -0.33914313 0.49990287
v 0.13399819 -0.36799008 0.49990287
v 0.12094694 -0.37147111 0.49990287
v 0.12094694 -0.30987239 0.24043381
v 0.14390747 -0.20432216 -0.45180750
v 0.24925736 -0.08599815 -0.42888173
v 0.12094694 -0.31008428 0.24276525
v 0.31948167 -0.09023590 0.23994809
v 0.24042225 -0.08599815 -0.49231616
v 0.22124819 -0.12777025 -0.49231616
v 0.23145288 -0.13364255 -0.43655604
v 0.35901135 -0.20737940 0.47551996
v 0.31757501 -0.26646572 0.47551996
v 0.29243925 -0.29171062 0.48746857
v 0.26649788 -0.31762141 0.48746857
v 0.26144928 -0.31159776 0.49630859
v 0.25175482 -0.29997420 0.49990287
v 0.37149867 -0.12083850 0.49990287
v 0.12094694 -0.36196643 0.49222857
v 0.25339293 -0.08599815 -0.42888173
v 0.12094694 -0.33166653 0.35438260
v 0.32334870 -0.09023590 0.23994809
v 0.12094694 -0.36030161 0.49077141
v 0.36027354 -0.12083850 0.49077141
v 0.24004629 -0.08739056 -0.49231616
v 0.25256044 -0.08599815 -0.43655604
v 0.25111032 -0.09144668 -0.43655604
v 0.38959855 -0.14187589 0.47551996
v 0.35901135 -0.20737940 0.48746857
v 0.31757501 -0.26646572 0.48746857
v 0.31158647 -0.26144096 0.49621144
v 0.28132153 -0.29171062 0.49630859
v 0.30001220 -0.25169414 0.49990287
v 0.36795390 -0.13400578 0.49990287
v 0.38221359 -0.13915163 0.49621144
v 0.38710108 -0.12083850 0.49621144
v 0.25266787 -0.08599815 -0.43568176
v 0.28191233 -0.09023590 -0.21565278
v 0.39284796 -0.12083850 0.49009141
v 0.39529169 -0.12083850 0.48746857
v 0.39529169 -0.12083850 0.47551996
v 0.38959855 -0.14187589 0.48746857
v 0.35221720 -0.20347461 0.49621144
v 0.33911225 -0.19590721 0.49990287
f 1 2 3
f 1 3 4
f 1 4 5
f 1 5 12
f 1 12 6
f 1 6 14
f 1 14 27
f 1 27 43
f 1 43 47
f 1 47 45
f 1 45 31
f 1 31 28
f 1 28 15
f 1 15 7
f 1 7 2
f 2 7 3
f 3 8 18
f 3 18 33
f 3 33 49
f 3 49 34
f 3 34 19
f 3 19 9
f 3 9 4
f 3 7 15
f 3 15 8
f 4 9 10
f 4 10 11
f 4 11 5
f 5 11 23
f 5 23 12
f 6 12 13
f 6 13 14
f 8 16 17
f 8 17 18
f 8 15 16
f 9 19 10
f 10 19 20
f 10 20 21
f 10 21 22
f 10 22 11
f 11 22 39
f 11 39 23
f 12 23 13
f 13 24 25
f 13 25 26
f 13 26 27
f 13 27 14
f 13 23 24
f 15 28 29
f 15 29 16
f 16 29 17
f 17 30 44
f 17 44 61
f 17 61 50
f 17 50 33
f 17 33 18
f 17 29 31
f 17 31 32
f 17 32 30
f 19 34 35
f 19 35 20
f 20 35 36
f 20 36 37
f 20 37 21
f 21 37 54
f 21 54 38
f 21 38 39
f 21 39 22
f 23 39 40
f 23 40 24
f 24 40 25
f 25 41 57
f 25 57 68
f 25 68 58
f 25 58 42
f 25 42 27
f 25 27 26
f 25 40 41
f 27 42 43
f 28 31 29
f 30 32 46
f 30 46 44
f 31 45 32
f 32 45 47
f 32 47 48
f 32 48 42
f 32 42 46
f 33 50 51
f 33 51 49
f 34 49 51
f 34 51 35
f 35 51 52
f 35 52 36
f 36 52 66
f 36 66 53
f 36 53 54
f 36 54 37
f 38 54 55
f 38 55 56
f 38 56 40
f 38 40 39
f 40 56 57
f 40 57 41
f 42 48 43
f 42 58 59
f 42 59 60
f 42 60 46
f 43 48 47
f 44 46 62
f 44 62 61
f 46 60 63
f 46 63 64
f 46 64 65
f 46 65 62
f 50 61 65
f 50 65 51
f 51 65 52
f 52 65 64
f 52 64 66
f 53 66 67
f 53 67 55
f 53 55 54
f 55 67 57
f 55 57 56
f 57 67 68
f 58 68 59
f 59 68 67
f 59 67 66
f 59 66 64
f 59 64 63
f 59 63 60
f 61 62 65

