# https://github.com/mikedh/trimesh
v -0.31418726 0.12053662 0.24010527
v -0.29184964 0.16850489 0.24010527
v -0.31005585 0.12053662 0.24010527
v -0.32498842 0.12053662 0.24781358
v -0.25815067 0.21660951 0.24010527
v -0.30035755 0.17341307 0.24781358
v -0.26567823 0.22294924 0.24781358
v -0.21652150 0.25292090 0.24010527
v -0.21652150 0.25292090 0.24025792
v -0.21652150 0.25323901 0.24275103
v -0.31028342 0.12053662 0.24242032
v -0.39534488 0.12053662 0.47555220
v -0.38965544 0.14182809 0.47555220
v -0.21660903 0.25812447 0.24010527
v -0.22294618 0.26566851 0.24781358
v -0.35910755 0.20733853 0.47555220
v -0.31765342 0.26653197 0.47555220
v -0.26655352 0.31763601 0.47555220
v -0.21652150 0.25819263 0.24010527
v -0.31031844 0.12053662 0.24275103
v -0.21652150 0.27777988 0.35440704
v -0.39534488 0.12053662 0.48758531
v -0.38965544 0.14182809 0.48758531
v -0.21655652 0.25816989 0.24010527
v -0.21652150 0.27014494 0.24781358
v -0.21652150 0.35265219 0.47555220
v -0.35910755 0.20733853 0.48758531
v -0.31765342 0.26653197 0.48758531
v -0.26655352 0.31763601 0.48758531
v -0.21652150 0.31147808 0.49086705
v -0.33185077 0.12053662 0.35440704
v -0.38723961 0.12053662 0.49631119
v -0.38225043 0.13914678 0.49631119
v -0.21652150 0.35265219 0.48758531
v -0.35228020 0.20340744 0.49631119
v -0.31161386 0.26146474 0.49631119
v -0.26149431 0.31161442 0.49631119
v -0.21652150 0.35103884 0.48906082
v -0.21652150 0.32465744 0.50000000
v -0.36042050 0.12053662 0.49086705
v -0.38316071 0.12053662 0.49727792
v -0.36801806 0.13396591 0.50000000
v -0.33915076 0.19581796 0.50000000
v -0.30002493 0.25171655 0.50000000
v -0.25174350 0.30000296 0.50000000
v -0.21652150 0.34308580 0.49631119
v -0.37160680 0.12053662 0.50000000
f 1 2 5
f 1 5 14
f 1 14 24
f 1 24 19
f 1 19 8
f 1 8 3
f 1 3 11
f 1 11 20
f 1 20 31
f 1 31 40
f 1 40 47
f 1 47 41
f 1 41 32
f 1 32 22
f 1 22 12
f 1 12 4
f 1 4 2
f 2 4 6
f 2 6 7
f 2 7 5
f 3 8 9
f 3 9 10
f 3 10 11
f 4 12 13
f 4 13 6
f 5 7 15
f 5 15 14
f 6 13 16
f 6 16 7
f 7 16 17
f 7 17 18
f 7 18 15
f 8 19 25
f 8 25 26
f 8 26 34
f 8 34 38
f 8 38 46
f 8 46 39
f 8 39 30
f 8 30 21
f 8 21 10
f 8 10 9
f 10 20 11
f 10 21 20
f 12 22 23
f 12 23 13
f 13 23 27
f 13 27 16
f 14 15 24
f 15 25 24
f 15 18 26
f 15 26 25
f 16 27 28
f 16 28 17
f 17 28 29
f 17 29 18
f 18 29 34
f 18 34 26
f 19 24 25
f 20 21 30
f 20 30 31
f 22 32 23
f 23 32 33
f 23 33 27
f 27 33 35
f 27 35 28
f 28 35 36
f 28 36 37
f 28 37 29
f 29 37 38
f 29 38 34
f 30 39 40
f 30 40 31
f 32 41 33
f 33 41 42
f 33 42 35
f 35 42 43
f 35 43 44
f 35 44 36
f 36 44 37
f 37 44 45
f 37 45 39
f 37 39 46
f 37 46 38
f 39 45 44
f 39 44 43
f 39 43 42
f 39 42 47
f 39 47 40
f 41 47 42

