# https://github.com/mikedh/trimesh
v 0.02093703 0.02801164 0.04999119
v 0.02093703 0.02407895 0.04999119
v 0.02093703 0.02652877 0.03699668
v 0.01968254 0.02752028 0.03699668
v 0.02036103 0.02846616 0.04999119
v -0.00000391 0.03187764 0.04999119
v 0.02093703 0.01727002 -0.00721988
v 0.02093703 0.02070081 -0.00721988
v 0.02002076 0.01875290 -0.03140288
v 0.01946731 0.01823170 -0.03999247
v 0.01689069 0.02931727 0.03699668
v 0.01901840 0.01857565 -0.03999247
v 0.01147302 0.02397893 -0.03999247
v 0.01100566 0.02429305 -0.03999247
v 0.01733755 0.03008942 0.04696061
v 0.01747284 0.03032457 0.04999119
v -0.00000391 0.03496096 0.04999119
v -0.00000391 0.02936816 0.01970298
v -0.00000391 0.02442642 -0.03999247
v 0.01849160 0.01705242 -0.03140288
v 0.02078739 0.01753150 -0.03140288
v 0.02034258 0.01827030 -0.03140288
v 0.01977888 0.01776490 -0.03999247
v 0.01393690 0.03083173 0.03699668
v 0.01094417 0.02431060 -0.03999247
v 0.01084783 0.03204962 0.03699668
v 0.01441246 0.03189168 0.04999119
v 0.01430382 0.03164424 0.04696061
v 0.00111529 0.03497851 0.04999119
v 0.00110709 0.03470826 0.04696061
v 0.00107840 0.03381854 0.03699668
v -0.00000391 0.03380099 0.03699668
v -0.00000391 0.02652350 -0.03999247
v 0.01700343 0.01753150 -0.03999247
v 0.01991827 0.01753150 -0.03999247
v 0.01122089 0.03315168 0.04999119
v 0.01046451 0.02443871 -0.03999247
v 0.00765421 0.03295689 0.03699668
v 0.00767061 0.03302182 0.03773671
v 0.00792069 0.03409230 0.04999119
v 0.00453849 0.03470300 0.04999119
v 0.00450364 0.03443450 0.04696061
v 0.00438885 0.03354829 0.03699668
v 0.00087546 0.02665512 -0.03999247
v 0.00081397 0.02664810 -0.03999247
v 0.00031791 0.02658141 -0.03999247
v 0.00142891 0.02654456 -0.03999247
v 0.00132027 0.02656738 -0.03999247
f 1 2 7
f 1 7 8
f 1 8 3
f 1 3 4
f 1 4 5
f 1 5 16
f 1 16 27
f 1 27 36
f 1 36 40
f 1 40 41
f 1 41 29
f 1 29 17
f 1 17 6
f 1 6 2
f 2 6 7
f 3 8 9
f 3 9 10
f 3 10 4
f 4 11 5
f 4 10 12
f 4 12 13
f 4 13 14
f 4 14 11
f 5 11 15
f 5 15 16
f 6 17 32
f 6 32 33
f 6 33 19
f 6 19 18
f 6 18 7
f 7 18 19
f 7 19 20
f 7 20 21
f 7 21 8
f 8 21 22
f 8 22 9
f 9 22 23
f 9 23 10
f 10 23 35
f 10 35 34
f 10 34 19
f 10 19 33
f 10 33 46
f 10 46 45
f 10 45 44
f 10 44 48
f 10 48 47
f 10 47 37
f 10 37 25
f 10 25 14
f 10 14 13
f 10 13 12
f 11 24 15
f 11 14 24
f 14 25 26
f 14 26 24
f 15 24 16
f 16 24 28
f 16 28 27
f 17 29 30
f 17 30 31
f 17 31 32
f 19 34 20
f 20 34 35
f 20 35 21
f 21 35 23
f 21 23 22
f 24 26 36
f 24 36 28
f 25 37 38
f 25 38 26
f 26 38 39
f 26 39 40
f 26 40 36
f 27 28 36
f 29 41 30
f 30 41 42
f 30 42 31
f 31 42 43
f 31 43 44
f 31 44 32
f 32 44 45
f 32 45 46
f 32 46 33
f 37 47 38
f 38 43 39
f 38 47 48
f 38 48 44
f 38 44 43
f 39 43 40
f 40 43 42
f 40 42 41

