# https://github.com/mikedh/trimesh
v -0.00000131 -0.00000300 -0.04333386
v -0.00000131 -0.00000300 -0.04317922
v -0.00000131 -0.00000039 -0.04871297
v 0.00000128 -0.00000300 -0.04871297
v 0.02442606 -0.00000300 -0.04000129
v -0.00000131 0.02442577 -0.04000129
v -0.00000131 0.02066488 -0.04999902
v 0.02066301 -0.00000300 -0.04999902
v 0.02652704 -0.00000300 -0.04000129
v -0.00000131 0.02652414 -0.04000129
v -0.00000131 0.02319389 -0.04999902
v 0.02319508 -0.00000300 -0.04999902
v 0.02602062 -0.00000300 -0.04582180
v 0.02534540 0.00415980 -0.04720083
v 0.02507012 0.00884199 -0.04000129
v 0.00028176 0.02657633 -0.04000129
v -0.00000131 0.02601781 -0.04582963
v -0.00000131 0.02418044 -0.04926302
v 0.00078558 0.02320694 -0.04999902
v 0.02418714 -0.00000300 -0.04925812
v 0.02317171 0.00149508 -0.04999902
v 0.02565704 -0.00000300 -0.04720083
v 0.02563107 0.00165429 -0.04720083
v 0.02481561 0.00662356 -0.04720083
v 0.02449878 0.00922042 -0.04556831
v 0.02460785 0.00867756 -0.04556831
v 0.02476367 0.00873237 -0.04370187
v 0.02504934 0.00895160 -0.04000129
v 0.02443645 0.00401104 -0.04884706
v 0.00029734 0.02657894 -0.04000129
v -0.00000131 0.02565503 -0.04720083
v 0.00031033 0.02609089 -0.04556831
v 0.00085829 0.02616397 -0.04556831
v -0.00000131 0.02473635 -0.04884706
v 0.00083752 0.02474940 -0.04884706
v 0.00305535 0.02301641 -0.04999902
v 0.00326052 0.02454843 -0.04884706
v 0.02473511 -0.00000300 -0.04884706
v 0.02471173 0.00159426 -0.04884706
v 0.02291461 0.00376049 -0.04999902
v 0.02533501 -0.00000300 -0.04777730
v 0.02392484 0.00638606 -0.04884706
v 0.02318470 0.00870105 -0.04884706
v 0.02404690 0.00902468 -0.04720083
v 0.02304706 0.01133706 -0.04720083
v 0.02182387 0.01353983 -0.04720083
v 0.02422350 0.00969804 -0.04556831
v 0.02465460 0.00928045 -0.04370187
v 0.02496884 0.00936136 -0.04000129
v 0.00070247 0.02663375 -0.04000129
v 0.00086868 0.02567070 -0.04720083
v -0.00000131 0.02533141 -0.04778318
v 0.00087647 0.02665724 -0.04000129
v 0.00140107 0.02605435 -0.04556831
v 0.00586011 0.02500778 -0.04720083
v 0.00337998 0.02546190 -0.04720083
v 0.00131796 0.02656850 -0.04000129
v 0.00529657 0.02260666 -0.04999902
v 0.00564976 0.02410997 -0.04884706
v 0.02243416 0.00598935 -0.04999902
v 0.02174077 0.00815819 -0.04999902
v 0.02221861 0.01093252 -0.04884706
v 0.02104217 0.01305699 -0.04884706
v 0.02039292 0.01561471 -0.04720083
v 0.01910741 0.01789316 -0.04556831
v 0.01941385 0.01743381 -0.04556831
v 0.01978003 0.01776005 -0.04000129
v 0.02468057 0.00988334 -0.04000129
v 0.02437672 0.00976067 -0.04370187
v 0.02492988 0.00945009 -0.04000129
v 0.02496105 0.00939529 -0.04000129
v 0.01046459 0.02443882 -0.04000129
v 0.01033734 0.02413868 -0.04370187
v 0.01080740 0.02384376 -0.04556831
v 0.00828311 0.02431354 -0.04720083
v 0.00798446 0.02344183 -0.04884706
v 0.00142704 0.02654501 -0.04000129
v 0.00748843 0.02198028 -0.04999902
v 0.02083441 0.01025134 -0.04999902
v 0.01843479 0.01411662 -0.04999902
v 0.01966057 0.01505357 -0.04884706
v 0.01973069 0.01224270 -0.04999902
v 0.01809198 0.01690922 -0.04884706
v 0.01876460 0.01753821 -0.04720083
v 0.01695450 0.01929207 -0.04720083
v 0.01498078 0.02086063 -0.04720083
v 0.01866851 0.01822984 -0.04556831
v 0.01932815 0.01833684 -0.04000129
v 0.01941645 0.01826899 -0.04000129
v 0.01943982 0.01825072 -0.04000129
v 0.01946579 0.01822984 -0.04000129
v 0.01948657 0.01820113 -0.04000129
v 0.01971770 0.01785401 -0.04000129
v 0.01100996 0.02429266 -0.04000129
v 0.01126707 0.02353579 -0.04556831
v 0.01286682 0.02223083 -0.04720083
v 0.01062561 0.02338441 -0.04720083
v 0.01024385 0.02254402 -0.04884706
v 0.00960758 0.02113989 -0.04999902
v 0.01696229 0.01585482 -0.04999902
v 0.01532877 0.01744164 -0.04999902
v 0.01634680 0.01860044 -0.04884706
v 0.01444320 0.02011419 -0.04884706
v 0.01901911 0.01857174 -0.04000129
v 0.01133719 0.02368455 -0.04370187
v 0.01138653 0.02403950 -0.04000129
v 0.01147742 0.02397686 -0.04000129
v 0.01240455 0.02143220 -0.04884706
v 0.01163324 0.02009592 -0.04999902
v 0.01354464 0.01885883 -0.04999902
f 1 2 6
f 1 6 10
f 1 10 17
f 1 17 31
f 1 31 52
f 1 52 34
f 1 34 18
f 1 18 11
f 1 11 7
f 1 7 3
f 1 3 4
f 1 4 8
f 1 8 12
f 1 12 20
f 1 20 38
f 1 38 41
f 1 41 22
f 1 22 13
f 1 13 9
f 1 9 5
f 1 5 2
f 2 5 6
f 3 7 4
f 4 7 8
f 5 9 15
f 5 15 28
f 5 28 49
f 5 49 71
f 5 71 70
f 5 70 68
f 5 68 67
f 5 67 93
f 5 93 92
f 5 92 91
f 5 91 90
f 5 90 89
f 5 89 88
f 5 88 104
f 5 104 107
f 5 107 106
f 5 106 94
f 5 94 72
f 5 72 77
f 5 77 57
f 5 57 53
f 5 53 50
f 5 50 30
f 5 30 16
f 5 16 10
f 5 10 6
f 7 11 19
f 7 19 36
f 7 36 58
f 7 58 78
f 7 78 99
f 7 99 109
f 7 109 110
f 7 110 101
f 7 101 100
f 7 100 80
f 7 80 82
f 7 82 79
f 7 79 61
f 7 61 60
f 7 60 40
f 7 40 21
f 7 21 12
f 7 12 8
f 9 13 14
f 9 14 15
f 10 16 17
f 11 18 19
f 12 21 20
f 13 22 23
f 13 23 14
f 14 24 25
f 14 25 26
f 14 26 27
f 14 27 28
f 14 28 15
f 14 23 29
f 14 29 24
f 16 30 17
f 17 30 32
f 17 32 33
f 17 33 31
f 18 34 35
f 18 35 19
f 19 35 37
f 19 37 36
f 20 21 39
f 20 39 38
f 21 40 39
f 22 41 23
f 23 41 39
f 23 39 29
f 24 29 42
f 24 42 43
f 24 43 44
f 24 44 25
f 25 44 45
f 25 45 46
f 25 46 47
f 25 47 48
f 25 48 26
f 26 48 27
f 27 48 49
f 27 49 28
f 29 39 40
f 29 40 42
f 30 50 32
f 31 33 51
f 31 51 52
f 32 50 53
f 32 53 33
f 33 54 55
f 33 55 56
f 33 56 51
f 33 53 57
f 33 57 54
f 34 52 51
f 34 51 35
f 35 51 37
f 36 37 58
f 37 51 56
f 37 56 55
f 37 55 59
f 37 59 58
f 38 39 41
f 40 60 42
f 42 60 61
f 42 61 43
f 43 61 62
f 43 62 45
f 43 45 44
f 45 62 63
f 45 63 46
f 46 63 64
f 46 64 65
f 46 65 66
f 46 66 67
f 46 67 68
f 46 68 69
f 46 69 47
f 47 69 48
f 48 69 68
f 48 68 70
f 48 70 71
f 48 71 49
f 54 57 55
f 55 72 73
f 55 73 74
f 55 74 75
f 55 75 76
f 55 76 59
f 55 57 77
f 55 77 72
f 58 59 78
f 59 76 78
f 61 79 62
f 62 79 63
f 63 80 81
f 63 81 64
f 63 79 82
f 63 82 80
f 64 83 84
f 64 84 65
f 64 81 83
f 65 84 85
f 65 85 86
f 65 86 87
f 65 87 88
f 65 88 89
f 65 89 90
f 65 90 91
f 65 91 92
f 65 92 66
f 66 92 93
f 66 93 67
f 72 94 73
f 73 94 74
f 74 94 95
f 74 95 86
f 74 86 96
f 74 96 97
f 74 97 75
f 75 97 76
f 76 97 98
f 76 98 99
f 76 99 78
f 80 100 83
f 80 83 81
f 83 100 101
f 83 101 102
f 83 102 84
f 84 102 85
f 85 102 103
f 85 103 86
f 86 104 88
f 86 88 87
f 86 103 96
f 86 95 105
f 86 105 106
f 86 106 107
f 86 107 104
f 94 106 105
f 94 105 95
f 96 103 108
f 96 108 97
f 97 108 98
f 98 108 99
f 99 108 109
f 101 110 103
f 101 103 102
f 103 109 108
f 103 110 109

