# https://github.com/mikedh/trimesh
v -0.00000572 0.02947943 -0.00641580
v -0.00000777 0.03496279 0.05000000
v -0.00000572 0.02720434 -0.00641580
v -0.00000572 0.02730432 -0.03110817
v -0.00000777 0.03187730 0.05000000
v -0.00000777 0.03384542 0.03749542
v -0.00230431 0.03465056 0.04696405
v -0.00232274 0.03492070 0.05000000
v -0.00000777 0.02936716 0.01970214
v -0.02091617 0.01740760 -0.00641580
v -0.00000572 0.02525551 -0.02996419
v -0.00000572 0.02516254 -0.03110817
v -0.00000777 0.02653251 -0.03989921
v -0.00000777 0.03379982 0.03700263
v -0.02091617 0.02405570 0.05000000
v -0.00224496 0.03376122 0.03700263
v -0.00568978 0.03425939 0.04696405
v -0.00573481 0.03452602 0.05000000
v -0.02091617 0.02074919 -0.00641580
v -0.02052523 0.01755319 -0.03110817
v -0.01851728 0.01704274 -0.03110817
v -0.00000777 0.02443459 -0.03989921
v -0.00884395 0.02508010 -0.03989921
v -0.00554241 0.03337883 0.03700263
v -0.02091617 0.02803403 0.05000000
v -0.00901998 0.03353494 0.04696405
v -0.00909161 0.03379631 0.05000000
v -0.00878868 0.03267367 0.03700263
v -0.02091617 0.02142102 -0.00198948
v -0.01857664 0.01902840 -0.03989921
v -0.01960006 0.01755319 -0.03989921
v -0.01701081 0.01755319 -0.03989921
v -0.00939864 0.02497135 -0.03989921
v -0.01850705 0.02970395 0.05000000
v -0.02091617 0.02773584 0.04724565
v -0.01235631 0.03274559 0.05000000
v -0.01194490 0.03165629 0.03700263
v -0.02091617 0.02233666 0.00439921
v -0.01823277 0.01947570 -0.03989921
v -0.00988988 0.02468893 -0.03989921
v -0.01789095 0.02871639 0.03700263
v -0.01499059 0.03033193 0.03700263
v -0.01550639 0.03137563 0.05000000
v -0.01538563 0.03113356 0.04696405
v -0.02066032 0.02687807 0.03773302
v -0.02091617 0.02720609 0.04237933
v -0.02091617 0.02657286 0.03700263
v -0.02025914 0.02164028 -0.00641580
v -0.01776405 0.01978793 -0.03989921
v -0.02061938 0.02682369 0.03700263
v -0.02091617 0.02666056 0.03773302
v -0.02091617 0.02675002 0.03848980
f 1 2 5
f 1 5 3
f 1 3 11
f 1 11 12
f 1 12 4
f 1 4 2
f 2 4 6
f 2 6 7
f 2 7 8
f 2 8 18
f 2 18 27
f 2 27 36
f 2 36 43
f 2 43 34
f 2 34 25
f 2 25 15
f 2 15 5
f 3 5 9
f 3 9 10
f 3 10 11
f 4 12 22
f 4 22 13
f 4 13 14
f 4 14 6
f 5 15 10
f 5 10 9
f 6 14 16
f 6 16 7
f 7 17 8
f 7 16 17
f 8 17 18
f 10 19 20
f 10 20 21
f 10 21 22
f 10 22 11
f 10 15 25
f 10 25 35
f 10 35 46
f 10 46 52
f 10 52 51
f 10 51 47
f 10 47 38
f 10 38 29
f 10 29 19
f 11 22 12
f 13 22 32
f 13 32 31
f 13 31 30
f 13 30 39
f 13 39 49
f 13 49 40
f 13 40 33
f 13 33 23
f 13 23 24
f 13 24 16
f 13 16 14
f 16 24 17
f 17 26 27
f 17 27 18
f 17 24 28
f 17 28 26
f 19 29 30
f 19 30 31
f 19 31 20
f 20 31 21
f 21 31 32
f 21 32 22
f 23 33 24
f 24 33 28
f 25 34 35
f 26 36 27
f 26 28 36
f 28 37 36
f 28 33 37
f 29 38 39
f 29 39 30
f 33 40 41
f 33 41 42
f 33 42 37
f 34 43 44
f 34 44 41
f 34 41 45
f 34 45 35
f 35 45 46
f 36 37 44
f 36 44 43
f 37 42 44
f 38 47 48
f 38 48 39
f 39 48 47
f 39 47 45
f 39 45 50
f 39 50 41
f 39 41 49
f 40 49 41
f 41 50 45
f 41 44 42
f 45 51 52
f 45 52 46
f 45 47 51

