# https://github.com/mikedh/trimesh
v 0.02653747 -0.00000561 -0.03988020
v 0.02658747 -0.00028226 -0.03988020
v 0.02601795 -0.00000561 -0.04582131
v 0.02443441 -0.00000561 -0.03988020
v 0.02659025 -0.00029792 -0.03988020
v 0.02625687 -0.00031358 -0.04370125
v 0.02609018 -0.00031097 -0.04556868
v 0.02616242 -0.00085904 -0.04556868
v 0.02565680 -0.00000561 -0.04720033
v -0.00171349 -0.00000561 -0.04317916
v -0.00171349 -0.02437396 -0.03988020
v 0.02659303 -0.00031619 -0.03988020
v 0.02632911 -0.00086426 -0.04370125
v 0.02666804 -0.00087731 -0.03988020
v 0.02605407 -0.00140189 -0.04556868
v 0.02500671 -0.00585955 -0.04720033
v 0.02545955 -0.00338018 -0.04720033
v 0.02567068 -0.00086948 -0.04720033
v 0.02622076 -0.00140972 -0.04370125
v 0.02473723 -0.00000561 -0.04884784
v -0.00171349 -0.00000561 -0.04871211
v -0.00171349 -0.02648535 -0.03988020
v 0.02655692 -0.00142799 -0.03988020
v 0.02431217 -0.00828151 -0.04720033
v 0.02343983 -0.00798659 -0.04884784
v 0.02410937 -0.00564815 -0.04884784
v 0.02454831 -0.00326012 -0.04884784
v 0.02444830 -0.01047119 -0.03988020
v 0.02413715 -0.01033809 -0.04370125
v 0.02384267 -0.01080786 -0.04556868
v 0.02474834 -0.00083816 -0.04884784
v 0.02320647 -0.00078597 -0.05000000
v 0.02319536 -0.00000561 -0.05000000
v -0.00171349 -0.02058965 -0.05000000
v 0.02066447 -0.00000561 -0.05000000
v -0.00171349 -0.02596076 -0.04582626
v -0.00143846 -0.02655320 -0.03988020
v 0.02338427 -0.01062517 -0.04720033
v 0.02254527 -0.01024413 -0.04884784
v 0.02113953 -0.00960732 -0.05000000
v 0.02197853 -0.00748811 -0.05000000
v 0.02260639 -0.00529843 -0.05000000
v 0.02301756 -0.00305655 -0.05000000
v 0.02434829 -0.01084179 -0.03988020
v 0.02368431 -0.01133767 -0.04370125
v 0.02353429 -0.01126720 -0.04556868
v 0.02086172 -0.01498104 -0.04720033
v 0.02222856 -0.01286705 -0.04720033
v 0.02431773 -0.01095402 -0.03988020
v 0.02430106 -0.01101404 -0.03988020
v 0.02428161 -0.01104536 -0.03988020
v -0.00171349 -0.02312906 -0.05000000
v -0.00171349 -0.02559799 -0.04720033
v -0.00085782 -0.02616172 -0.04556868
v -0.00139956 -0.02605472 -0.04556868
v -0.00140234 -0.02656103 -0.03988020
v 0.02143123 -0.01240510 -0.04884784
v 0.02009773 -0.01163258 -0.05000000
v 0.02398713 -0.01148382 -0.03988020
v 0.01858086 -0.01902634 -0.03988020
v 0.01834472 -0.01878623 -0.04370125
v 0.01822803 -0.01866879 -0.04556868
v 0.01789188 -0.01910725 -0.04556868
v 0.01929206 -0.01695411 -0.04720033
v 0.02011440 -0.01444341 -0.04884784
v -0.00078281 -0.02320735 -0.05000000
v -0.00171349 -0.02467671 -0.04884784
v -0.00171349 -0.02499511 -0.04827919
v -0.00086616 -0.02566846 -0.04720033
v -0.00086338 -0.02632875 -0.04370125
v 0.00165640 -0.02563192 -0.04720033
v 0.00415951 -0.02534484 -0.04720033
v -0.00030775 -0.02609126 -0.04556868
v -0.00129122 -0.02658452 -0.03988020
v 0.01885867 -0.01354301 -0.05000000
v 0.01834472 -0.01933431 -0.03988020
v 0.01825859 -0.01944653 -0.03988020
v 0.01800578 -0.01922730 -0.04370125
v 0.01743348 -0.01941260 -0.04556868
v 0.01353852 -0.02182412 -0.04720033
v 0.01561380 -0.02039391 -0.04720033
v 0.01753628 -0.01876274 -0.04720033
v 0.01823637 -0.01947524 -0.03988020
v 0.01690841 -0.01808940 -0.04884784
v 0.01860030 -0.01634601 -0.04884784
v 0.01744182 -0.01532816 -0.05000000
v -0.00083560 -0.02474979 -0.04884784
v 0.00149526 -0.02317081 -0.05000000
v -0.00069669 -0.02664455 -0.03988020
v -0.00083838 -0.02666282 -0.03988020
v -0.00087449 -0.02666543 -0.03988020
v -0.00090505 -0.02666021 -0.03988020
v 0.00159528 -0.02471064 -0.04884784
v 0.00400949 -0.02443660 -0.04884784
v 0.00662372 -0.02481503 -0.04720033
v 0.00922129 -0.02449924 -0.04556868
v 0.00867955 -0.02460885 -0.04556868
v 0.00887402 -0.02507602 -0.03988020
v 0.00884624 -0.02508124 -0.03988020
v -0.00031331 -0.02659235 -0.03988020
v 0.01788632 -0.01970752 -0.03988020
v 0.01779186 -0.01977015 -0.03988020
v 0.00988804 -0.02468976 -0.03988020
v 0.00976025 -0.02437657 -0.04370125
v 0.00969913 -0.02422259 -0.04556868
v 0.01133823 -0.02304554 -0.04720033
v 0.01093262 -0.02222082 -0.04884784
v 0.01305513 -0.02104116 -0.04884784
v 0.01776686 -0.01978581 -0.03988020
v 0.01505261 -0.01966054 -0.04884784
v 0.01411638 -0.01843651 -0.05000000
v 0.01585550 -0.01696194 -0.05000000
v 0.00375945 -0.02291244 -0.05000000
v 0.00598753 -0.02243483 -0.05000000
v 0.00638758 -0.02392507 -0.04884784
v 0.00902404 -0.02404773 -0.04720033
v 0.00927963 -0.02465583 -0.04370125
v 0.00939909 -0.02497162 -0.03988020
v 0.00945465 -0.02494031 -0.03988020
v 0.01024920 -0.02083498 -0.05000000
v 0.01224391 -0.01973101 -0.05000000
v 0.00870177 -0.02318386 -0.04884784
v 0.00815726 -0.02174061 -0.05000000
f 1 2 3
f 1 3 9
f 1 9 20
f 1 20 33
f 1 33 35
f 1 35 21
f 1 21 10
f 1 10 4
f 1 4 11
f 1 11 22
f 1 22 37
f 1 37 56
f 1 56 74
f 1 74 92
f 1 92 91
f 1 91 90
f 1 90 89
f 1 89 100
f 1 100 99
f 1 99 98
f 1 98 118
f 1 118 119
f 1 119 103
f 1 103 109
f 1 109 102
f 1 102 101
f 1 101 83
f 1 83 77
f 1 77 76
f 1 76 60
f 1 60 59
f 1 59 51
f 1 51 50
f 1 50 49
f 1 49 44
f 1 44 28
f 1 28 23
f 1 23 14
f 1 14 12
f 1 12 5
f 1 5 2
f 2 5 3
f 3 5 6
f 3 6 7
f 3 7 8
f 3 8 9
f 4 10 11
f 5 12 6
f 6 13 8
f 6 8 7
f 6 12 14
f 6 14 13
f 8 15 16
f 8 16 17
f 8 17 18
f 8 18 9
f 8 13 19
f 8 19 15
f 9 18 20
f 10 21 34
f 10 34 52
f 10 52 67
f 10 67 68
f 10 68 53
f 10 53 36
f 10 36 22
f 10 22 11
f 13 14 19
f 14 23 19
f 15 19 16
f 16 24 25
f 16 25 26
f 16 26 27
f 16 27 17
f 16 19 23
f 16 23 28
f 16 28 29
f 16 29 30
f 16 30 24
f 17 27 18
f 18 27 31
f 18 31 20
f 20 31 32
f 20 32 33
f 21 35 34
f 22 36 37
f 24 30 38
f 24 38 25
f 25 38 39
f 25 39 40
f 25 40 41
f 25 41 42
f 25 42 26
f 26 42 27
f 27 42 43
f 27 43 32
f 27 32 31
f 28 44 30
f 28 30 29
f 30 45 46
f 30 46 47
f 30 47 48
f 30 48 38
f 30 44 49
f 30 49 50
f 30 50 51
f 30 51 45
f 32 43 42
f 32 42 41
f 32 41 40
f 32 40 58
f 32 58 75
f 32 75 86
f 32 86 112
f 32 112 111
f 32 111 121
f 32 121 120
f 32 120 123
f 32 123 114
f 32 114 113
f 32 113 88
f 32 88 66
f 32 66 52
f 32 52 34
f 32 34 35
f 32 35 33
f 36 53 54
f 36 54 55
f 36 55 37
f 37 55 56
f 38 48 39
f 39 48 57
f 39 57 58
f 39 58 40
f 45 59 47
f 45 47 46
f 45 51 59
f 47 59 60
f 47 60 61
f 47 61 62
f 47 62 63
f 47 63 64
f 47 64 65
f 47 65 48
f 48 65 57
f 52 66 67
f 53 68 69
f 53 69 54
f 54 70 55
f 54 69 71
f 54 71 72
f 54 72 73
f 54 73 70
f 55 70 74
f 55 74 56
f 57 65 58
f 58 65 75
f 60 76 61
f 61 76 77
f 61 77 78
f 61 78 63
f 61 63 62
f 63 79 80
f 63 80 81
f 63 81 82
f 63 82 64
f 63 78 83
f 63 83 79
f 64 82 84
f 64 84 85
f 64 85 65
f 65 85 86
f 65 86 75
f 66 87 67
f 66 88 87
f 67 87 68
f 68 87 69
f 69 87 71
f 70 73 89
f 70 89 90
f 70 90 91
f 70 91 92
f 70 92 74
f 71 93 94
f 71 94 72
f 71 87 93
f 72 94 95
f 72 95 96
f 72 96 97
f 72 97 98
f 72 98 99
f 72 99 100
f 72 100 89
f 72 89 73
f 77 83 78
f 79 83 101
f 79 101 102
f 79 102 80
f 80 103 104
f 80 104 105
f 80 105 96
f 80 96 106
f 80 106 107
f 80 107 108
f 80 108 81
f 80 102 109
f 80 109 103
f 81 110 84
f 81 84 82
f 81 108 110
f 84 110 111
f 84 111 112
f 84 112 86
f 84 86 85
f 87 88 93
f 88 113 94
f 88 94 93
f 94 113 114
f 94 114 115
f 94 115 95
f 95 115 116
f 95 116 96
f 96 105 117
f 96 117 97
f 96 116 106
f 97 117 98
f 98 117 118
f 103 119 117
f 103 117 104
f 104 117 105
f 106 116 107
f 107 120 121
f 107 121 108
f 107 116 122
f 107 122 123
f 107 123 120
f 108 121 110
f 110 121 111
f 114 123 115
f 115 123 122
f 115 122 116
f 117 119 118

