# https://github.com/mikedh/trimesh
v -0.00000391 0.02653393 -0.03990433
v -0.00000391 0.02443227 -0.03990433
v -0.00000391 0.02601696 -0.04582930
v -0.00415875 0.02534671 -0.04720010
v -0.00884600 0.02507914 -0.03990433
v -0.00000391 -0.00000302 -0.04317962
v -0.02443450 -0.00000302 -0.03990433
v -0.00000391 0.02565586 -0.04720010
v -0.00165593 0.02562988 -0.04720010
v -0.00159590 0.02471284 -0.04884762
v -0.00400999 0.02443487 -0.04884762
v -0.00638755 0.02392570 -0.04884762
v -0.00662243 0.02481676 -0.04720010
v -0.00922182 0.02449982 -0.04556838
v -0.00867897 0.02460893 -0.04556838
v -0.00939668 0.02497003 -0.03990433
v -0.00000391 -0.00000302 -0.04333380
v -0.02653280 -0.00000302 -0.03990433
v -0.00000391 0.02533113 -0.04778320
v -0.00149673 0.02317232 -0.05000000
v -0.00375945 0.02291254 -0.05000000
v -0.00000391 0.02473622 -0.04884762
v -0.00000391 0.02319570 -0.05000000
v -0.00598824 0.02243454 -0.05000000
v -0.00815701 0.02174091 -0.05000000
v -0.00869985 0.02318531 -0.04884762
v -0.00902347 0.02404779 -0.04720010
v -0.01133839 0.02304763 -0.04720010
v -0.01353847 0.02182404 -0.04720010
v -0.00969942 0.02422445 -0.04556838
v -0.00976205 0.02437772 -0.04370145
v -0.00927923 0.02465569 -0.04370145
v -0.00988472 0.02468686 -0.03990433
v -0.00000913 -0.00000302 -0.04871222
v -0.00000391 -0.00000042 -0.04871222
v -0.02654063 0.00003335 -0.03990433
v -0.02601606 -0.00000302 -0.04583029
v -0.00000391 0.02066281 -0.05000000
v -0.01025009 0.02083686 -0.05000000
v -0.01093126 0.02221892 -0.04884762
v -0.01305826 0.02104209 -0.04884762
v -0.01561328 0.02039263 -0.04720010
v -0.01789166 0.01910670 -0.04556838
v -0.01743234 0.01941325 -0.04556838
v -0.01800650 0.01922880 -0.04370145
v -0.01776639 0.01978474 -0.03990433
v -0.02066330 -0.00000302 -0.05000000
v -0.02658500 0.00028015 -0.03990433
v -0.02565590 -0.00000302 -0.04720010
v -0.02609174 0.00031132 -0.04556838
v -0.02616221 0.00085947 -0.04556838
v -0.01224400 0.01973018 -0.05000000
v -0.01411524 0.01843646 -0.05000000
v -0.01505478 0.01966004 -0.04884762
v -0.01690776 0.01809095 -0.04884762
v -0.01753673 0.01876379 -0.04720010
v -0.01929314 0.01695309 -0.04720010
v -0.02086165 0.01498133 -0.04720010
v -0.01822833 0.01866767 -0.04556838
v -0.01834577 0.01878457 -0.04370145
v -0.01834316 0.01933531 -0.03990433
v -0.01827531 0.01942364 -0.03990433
v -0.01823616 0.01947300 -0.03990433
v -0.02319483 -0.00000302 -0.05000000
v -0.02659022 0.00031652 -0.03990433
v -0.02566895 0.00086726 -0.04720010
v -0.02532967 -0.00000302 -0.04778419
v -0.02666590 0.00087505 -0.03990433
v -0.02632923 0.00086466 -0.04370145
v -0.02605520 0.00140241 -0.04556838
v -0.02500866 0.00586031 -0.04720010
v -0.02546016 0.00337937 -0.04720010
v -0.01585600 0.01696348 -0.05000000
v -0.01860154 0.01634520 -0.04884762
v -0.01857805 0.01902617 -0.03990433
v -0.02011263 0.01444358 -0.04884762
v -0.02143320 0.01240427 -0.04884762
v -0.02222920 0.01286669 -0.04720010
v -0.02384207 0.01080660 -0.04556838
v -0.02353672 0.01126642 -0.04556838
v -0.02398561 0.01148204 -0.03990433
v -0.02417874 -0.00000302 -0.04926370
v -0.02320788 0.00078413 -0.05000000
v -0.02454672 0.00325987 -0.04884762
v -0.02474768 0.00083609 -0.04884762
v -0.02473463 -0.00000302 -0.04884762
v -0.02658239 0.00129071 -0.03990433
v -0.02444494 0.01046888 -0.03990433
v -0.02434577 0.01084557 -0.03990433
v -0.02398561 0.01027404 -0.04556838
v -0.02431184 0.00828150 -0.04720010
v -0.02344016 0.00798534 -0.04884762
v -0.02411088 0.00564988 -0.04884762
v -0.02655368 0.00142839 -0.03990433
v -0.01744277 0.01532684 -0.05000000
v -0.01885991 0.01354472 -0.05000000
v -0.02009697 0.01163271 -0.05000000
v -0.02114090 0.00960640 -0.05000000
v -0.02254499 0.01024547 -0.04884762
v -0.02338274 0.01062735 -0.04720010
v -0.02399344 0.01087414 -0.04370145
v -0.02428052 0.01104300 -0.03990433
v -0.02301736 0.00305724 -0.05000000
v -0.02431706 0.01095208 -0.03990433
v -0.02197865 0.00748916 -0.05000000
v -0.02260762 0.00529658 -0.05000000
v -0.02430923 0.01098065 -0.03990433
v -0.02429879 0.01101443 -0.03990433
f 1 2 6
f 1 6 17
f 1 17 35
f 1 35 38
f 1 38 23
f 1 23 22
f 1 22 19
f 1 19 8
f 1 8 3
f 1 3 4
f 1 4 5
f 1 5 16
f 1 16 33
f 1 33 46
f 1 46 63
f 1 63 62
f 1 62 61
f 1 61 75
f 1 75 81
f 1 81 102
f 1 102 108
f 1 108 107
f 1 107 104
f 1 104 89
f 1 89 88
f 1 88 94
f 1 94 87
f 1 87 68
f 1 68 65
f 1 65 48
f 1 48 36
f 1 36 18
f 1 18 7
f 1 7 2
f 2 7 6
f 3 8 9
f 3 9 4
f 4 9 10
f 4 10 11
f 4 11 12
f 4 12 13
f 4 13 14
f 4 14 15
f 4 15 5
f 5 15 16
f 6 7 18
f 6 18 37
f 6 37 49
f 6 49 67
f 6 67 86
f 6 86 82
f 6 82 64
f 6 64 47
f 6 47 34
f 6 34 17
f 8 19 9
f 9 19 10
f 10 20 21
f 10 21 11
f 10 19 22
f 10 22 23
f 10 23 20
f 11 21 12
f 12 24 25
f 12 25 26
f 12 26 13
f 12 21 24
f 13 26 27
f 13 27 14
f 14 27 28
f 14 28 29
f 14 29 30
f 14 30 31
f 14 31 32
f 14 32 15
f 15 32 16
f 16 32 31
f 16 31 33
f 17 34 35
f 18 36 37
f 20 23 38
f 20 38 47
f 20 47 64
f 20 64 83
f 20 83 103
f 20 103 106
f 20 106 105
f 20 105 98
f 20 98 97
f 20 97 96
f 20 96 95
f 20 95 73
f 20 73 53
f 20 53 52
f 20 52 39
f 20 39 25
f 20 25 24
f 20 24 21
f 25 39 26
f 26 39 40
f 26 40 28
f 26 28 27
f 28 40 41
f 28 41 29
f 29 41 42
f 29 42 43
f 29 43 44
f 29 44 45
f 29 45 46
f 29 46 33
f 29 33 31
f 29 31 30
f 34 47 35
f 35 47 38
f 36 48 37
f 37 48 50
f 37 50 51
f 37 51 49
f 39 52 41
f 39 41 40
f 41 53 54
f 41 54 42
f 41 52 53
f 42 55 56
f 42 56 43
f 42 54 55
f 43 45 44
f 43 56 57
f 43 57 58
f 43 58 59
f 43 59 45
f 45 59 60
f 45 60 61
f 45 61 62
f 45 62 63
f 45 63 46
f 48 65 50
f 49 51 66
f 49 66 67
f 50 65 68
f 50 68 69
f 50 69 51
f 51 70 71
f 51 71 72
f 51 72 66
f 51 69 70
f 53 73 54
f 54 73 55
f 55 73 74
f 55 74 56
f 56 74 57
f 57 74 58
f 58 75 61
f 58 61 60
f 58 60 59
f 58 74 76
f 58 76 77
f 58 77 78
f 58 78 79
f 58 79 80
f 58 80 81
f 58 81 75
f 64 82 83
f 66 72 84
f 66 84 85
f 66 85 67
f 67 85 86
f 68 87 70
f 68 70 69
f 70 87 71
f 71 88 89
f 71 89 90
f 71 90 79
f 71 79 91
f 71 91 92
f 71 92 93
f 71 93 84
f 71 84 72
f 71 87 94
f 71 94 88
f 73 95 74
f 74 96 76
f 74 95 96
f 76 96 77
f 77 96 97
f 77 97 98
f 77 98 99
f 77 99 100
f 77 100 78
f 78 100 79
f 79 90 101
f 79 101 102
f 79 102 80
f 79 100 91
f 80 102 81
f 82 86 83
f 83 86 85
f 83 85 84
f 83 84 103
f 84 93 103
f 89 104 101
f 89 101 90
f 91 100 92
f 92 100 99
f 92 99 98
f 92 98 105
f 92 105 93
f 93 105 106
f 93 106 103
f 101 104 107
f 101 107 108
f 101 108 102

