# https://github.com/mikedh/trimesh
v -0.02730421 -0.00000561 -0.03110817
v -0.02653218 -0.00000287 -0.03989921
v -0.02516221 -0.00000561 -0.03110817
v -0.02947964 -0.00000561 -0.00641580
v -0.03496128 -0.00000287 0.05000000
v -0.03477838 -0.00000287 0.04794964
v -0.03380058 -0.00000287 0.03700263
v -0.02659021 0.00032102 -0.03989921
v -0.02443414 -0.00000287 -0.03989921
v -0.02720573 -0.00000561 -0.00641580
v -0.02091688 0.02405029 0.05000000
v -0.03470979 0.00110605 0.04696405
v -0.03187665 -0.00000287 0.05000000
v -0.03497887 0.00111429 0.05000000
v -0.03381993 0.00107860 0.03700263
v -0.02666408 0.00087823 -0.03989921
v -0.02665704 0.00081510 -0.03989921
v -0.01701449 0.01754773 -0.03989921
v -0.02091688 0.02803582 0.05000000
v -0.03470276 0.00453987 0.05000000
v -0.03361593 0.00439713 0.03773302
v -0.03354910 0.00438890 0.03700263
v -0.02655328 0.00142995 -0.03989921
v -0.03295820 0.00765527 0.03700263
v -0.01960495 0.01754773 -0.03989921
v -0.01851987 0.02020475 -0.03110817
v -0.01851987 0.02061923 -0.02716584
v -0.01851987 0.02271629 -0.00641580
v -0.02133368 0.02774761 0.05000000
v -0.02091688 0.02773663 0.04724565
v -0.03409252 0.00791878 0.05000000
v -0.02444645 0.01047150 -0.03989921
v -0.03204899 0.01085029 0.03700263
v -0.02430048 0.01101498 -0.03989921
v -0.02434620 0.01084754 -0.03989921
v -0.01877136 0.02004006 -0.03110817
v -0.02398744 0.01147886 -0.03989921
v -0.02752053 0.01968323 0.03700263
v -0.02091688 0.02720688 0.04237933
v -0.02319958 0.02472278 0.03773302
v -0.02395051 0.02552153 0.05000000
v -0.03315165 0.01122359 0.05000000
v -0.03083202 0.01394099 0.03700263
v -0.02428114 0.01104517 -0.03989921
v -0.02931609 0.01689171 0.03700263
v -0.02546117 0.02228535 0.03700263
v -0.02315385 0.02467338 0.03700263
v -0.02091688 0.02657556 0.03700263
v -0.02757504 0.01972166 0.03773302
v -0.02633521 0.02305391 0.05000000
v -0.03189071 0.01441585 0.05000000
v -0.03032378 0.01746813 0.05000000
v -0.02937412 0.01692190 0.03773302
v -0.02846667 0.02036121 0.05000000
f 1 2 9
f 1 9 3
f 1 3 10
f 1 10 4
f 1 4 5
f 1 5 6
f 1 6 7
f 1 7 2
f 2 8 17
f 2 17 16
f 2 16 23
f 2 23 32
f 2 32 35
f 2 35 34
f 2 34 44
f 2 44 37
f 2 37 25
f 2 25 18
f 2 18 9
f 2 7 8
f 3 9 11
f 3 11 10
f 4 10 13
f 4 13 5
f 5 12 6
f 5 13 11
f 5 11 19
f 5 19 29
f 5 29 41
f 5 41 50
f 5 50 54
f 5 54 52
f 5 52 51
f 5 51 42
f 5 42 31
f 5 31 20
f 5 20 14
f 5 14 12
f 6 12 15
f 6 15 7
f 7 15 16
f 7 16 17
f 7 17 8
f 9 18 11
f 10 11 13
f 11 18 19
f 12 14 20
f 12 20 21
f 12 21 15
f 15 21 22
f 15 22 16
f 16 22 24
f 16 24 23
f 18 25 26
f 18 26 27
f 18 27 28
f 18 28 19
f 19 28 27
f 19 27 26
f 19 26 30
f 19 30 29
f 20 31 21
f 21 24 22
f 21 31 24
f 23 24 32
f 24 31 33
f 24 33 34
f 24 34 35
f 24 35 32
f 25 36 26
f 25 37 38
f 25 38 36
f 26 36 39
f 26 39 30
f 29 30 39
f 29 39 40
f 29 40 41
f 31 42 33
f 33 42 43
f 33 43 34
f 34 43 45
f 34 45 44
f 36 38 46
f 36 46 47
f 36 47 48
f 36 48 39
f 37 44 38
f 38 45 49
f 38 49 46
f 38 44 45
f 39 48 40
f 40 50 41
f 40 48 47
f 40 47 46
f 40 46 50
f 42 51 43
f 43 51 52
f 43 52 53
f 43 53 45
f 45 53 52
f 45 52 54
f 45 54 49
f 46 49 50
f 49 54 50

