# https://github.com/mikedh/trimesh
v -0.00171349 -0.01374787 -0.04317957
v -0.00171349 -0.02435876 -0.04006451
v -0.00171349 -0.01374787 -0.04871235
v -0.02018002 -0.01374787 -0.04006451
v -0.00171349 -0.02646824 -0.04006451
v -0.00171349 -0.02059059 -0.04999903
v -0.01543315 -0.01374787 -0.04999903
v -0.02218377 -0.01374787 -0.04006451
v -0.00171349 -0.02596141 -0.04582682
v -0.01046386 -0.02443347 -0.04006451
v -0.00585925 -0.02500879 -0.04720005
v -0.00171349 -0.02312968 -0.04999903
v -0.01869124 -0.01374787 -0.04999903
v -0.01991753 -0.01752351 -0.04006451
v -0.02168283 -0.01374787 -0.04720005
v -0.00171349 -0.02560028 -0.04720005
v -0.00338061 -0.02546082 -0.04720005
v -0.01085459 -0.02432887 -0.04006451
v -0.01033762 -0.02413835 -0.04370182
v -0.01027350 -0.02398642 -0.04556813
v -0.01080650 -0.02384322 -0.04556813
v -0.00828177 -0.02431393 -0.04720005
v -0.00798522 -0.02344100 -0.04884754
v -0.00564885 -0.02411095 -0.04884754
v -0.00325838 -0.02454804 -0.04884754
v -0.00171349 -0.02467630 -0.04884754
v -0.00305600 -0.02301885 -0.04999903
v -0.01843676 -0.01411771 -0.04999903
v -0.02056474 -0.01374787 -0.04884754
v -0.01977527 -0.01775886 -0.04006451
v -0.02086731 -0.01374787 -0.04840212
v -0.02039242 -0.01561576 -0.04720005
v -0.01910602 -0.01789459 -0.04556813
v -0.01941459 -0.01743509 -0.04556813
v -0.01971916 -0.01784478 -0.04006451
v -0.00171349 -0.02499509 -0.04827957
v -0.01097481 -0.02429649 -0.04006451
v -0.01062616 -0.02338496 -0.04720005
v -0.01100687 -0.02428778 -0.04006451
v -0.01087462 -0.02399389 -0.04370182
v -0.01105496 -0.02425665 -0.04006451
v -0.01126535 -0.02353688 -0.04556813
v -0.01498230 -0.02086206 -0.04720005
v -0.01286434 -0.02223060 -0.04720005
v -0.00748829 -0.02198030 -0.04999903
v -0.01024344 -0.02254565 -0.04884754
v -0.00960625 -0.02114100 -0.04999903
v -0.00529619 -0.02260792 -0.04999903
v -0.01809012 -0.01691084 -0.04884754
v -0.01966105 -0.01505539 -0.04884754
v -0.01696201 -0.01585610 -0.04999903
v -0.01876338 -0.01753969 -0.04720005
v -0.01922824 -0.01800791 -0.04370182
v -0.01695399 -0.01929427 -0.04720005
v -0.01866719 -0.01823082 -0.04556813
v -0.01949474 -0.01818101 -0.04006451
v -0.01240348 -0.02143363 -0.04884754
v -0.01147575 -0.02397397 -0.04006451
v -0.01634686 -0.01860315 -0.04884754
v -0.01444330 -0.02011490 -0.04884754
v -0.01901585 -0.01857077 -0.04006451
v -0.01878542 -0.01834663 -0.04370182
v -0.01163204 -0.02009871 -0.04999903
v -0.01532895 -0.01744381 -0.04999903
v -0.01943663 -0.01824825 -0.04006451
v -0.01946268 -0.01822708 -0.04006451
v -0.01354361 -0.01886216 -0.04999903
f 1 2 5
f 1 5 9
f 1 9 16
f 1 16 36
f 1 36 26
f 1 26 12
f 1 12 6
f 1 6 3
f 1 3 7
f 1 7 13
f 1 13 29
f 1 29 31
f 1 31 15
f 1 15 8
f 1 8 4
f 1 4 2
f 2 4 8
f 2 8 14
f 2 14 30
f 2 30 35
f 2 35 56
f 2 56 66
f 2 66 65
f 2 65 61
f 2 61 58
f 2 58 41
f 2 41 39
f 2 39 37
f 2 37 18
f 2 18 10
f 2 10 5
f 3 6 7
f 5 10 11
f 5 11 9
f 6 12 27
f 6 27 48
f 6 48 45
f 6 45 47
f 6 47 63
f 6 63 67
f 6 67 64
f 6 64 51
f 6 51 28
f 6 28 13
f 6 13 7
f 8 15 14
f 9 11 17
f 9 17 16
f 10 18 19
f 10 19 11
f 11 19 20
f 11 20 21
f 11 21 22
f 11 22 23
f 11 23 24
f 11 24 25
f 11 25 17
f 12 26 27
f 13 28 29
f 14 15 30
f 15 31 32
f 15 32 33
f 15 33 34
f 15 34 35
f 15 35 30
f 16 17 25
f 16 25 36
f 18 37 21
f 18 21 19
f 19 21 20
f 21 38 22
f 21 37 39
f 21 39 40
f 21 40 41
f 21 41 42
f 21 42 43
f 21 43 44
f 21 44 38
f 22 38 23
f 23 45 24
f 23 38 46
f 23 46 47
f 23 47 45
f 24 45 48
f 24 48 27
f 24 27 25
f 25 27 26
f 25 26 36
f 28 49 50
f 28 50 29
f 28 51 49
f 29 50 31
f 31 50 32
f 32 50 49
f 32 49 52
f 32 52 33
f 33 53 34
f 33 52 54
f 33 54 43
f 33 43 55
f 33 55 53
f 34 53 56
f 34 56 35
f 38 44 57
f 38 57 46
f 39 41 40
f 41 58 42
f 42 58 43
f 43 54 59
f 43 59 60
f 43 60 57
f 43 57 44
f 43 58 61
f 43 61 62
f 43 62 55
f 46 57 63
f 46 63 47
f 49 51 64
f 49 64 59
f 49 59 52
f 52 59 54
f 53 55 62
f 53 62 61
f 53 61 65
f 53 65 66
f 53 66 56
f 57 60 63
f 59 64 67
f 59 67 60
f 60 67 63

