# https://github.com/mikedh/trimesh
v 0.02442632 -0.00000561 -0.03999247
v 0.01700761 0.01752757 -0.03999247
v 0.02652662 -0.00000561 -0.03999247
v 0.02525589 -0.00000561 -0.02996688
v 0.02093754 0.02407680 0.04999119
v 0.01849627 0.01983955 -0.03140288
v 0.01992166 0.01752757 -0.03999247
v 0.02093754 0.02801237 0.04999119
v 0.01849627 0.02239013 -0.00721988
v 0.02941079 -0.00000561 -0.00721988
v 0.02507135 0.00884188 -0.03999247
v 0.03337939 0.00554259 0.03699668
v 0.03376078 0.00224329 0.03699668
v 0.03380120 -0.00000287 0.03699668
v 0.03477841 -0.00000287 0.04793850
v 0.03496120 -0.00000287 0.04999119
v 0.02713825 -0.00000561 -0.00721988
v 0.03187666 -0.00000287 0.04999119
v 0.01956487 0.01910180 -0.03140288
v 0.02093754 0.02652865 0.03699668
v 0.02468116 0.00988406 -0.03999247
v 0.02002536 0.01874801 -0.03140288
v 0.02682540 0.02061843 0.03699668
v 0.02871831 0.01788959 0.03699668
v 0.02305541 0.02633393 0.04999119
v 0.02228911 0.02545905 0.03699668
v 0.02496238 0.00939588 -0.03999247
v 0.03267460 0.00878703 0.03699668
v 0.03379769 0.00909146 0.04999119
v 0.03425817 0.00569068 0.04696061
v 0.03492078 0.00232008 0.04999119
v 0.03465011 0.00230362 0.04696061
v 0.02467765 0.02314982 0.03699668
v 0.02687813 0.02065957 0.03773671
v 0.02753370 0.02116146 0.04696061
v 0.02970431 0.01850392 0.04999119
v 0.03113321 0.01538289 0.04696061
v 0.03039151 0.01501813 0.03773671
v 0.03033176 0.01498796 0.03699668
v 0.02552480 0.02394516 0.04999119
v 0.03165521 0.01194920 0.03699668
v 0.03274490 0.01236059 0.04999119
v 0.03452532 0.00573457 0.04999119
v 0.02774813 0.02132601 0.04999119
v 0.03137575 0.01550356 0.04999119
f 1 2 7
f 1 7 21
f 1 21 27
f 1 27 11
f 1 11 3
f 1 3 10
f 1 10 17
f 1 17 4
f 1 4 5
f 1 5 2
f 2 6 7
f 2 5 8
f 2 8 9
f 2 9 6
f 3 11 12
f 3 12 13
f 3 13 14
f 3 14 15
f 3 15 16
f 3 16 10
f 4 17 5
f 5 18 16
f 5 16 31
f 5 31 43
f 5 43 29
f 5 29 42
f 5 42 45
f 5 45 36
f 5 36 44
f 5 44 40
f 5 40 25
f 5 25 8
f 5 17 18
f 6 19 7
f 6 9 8
f 6 8 20
f 6 20 19
f 7 19 22
f 7 22 23
f 7 23 24
f 7 24 21
f 8 25 26
f 8 26 20
f 10 16 18
f 10 18 17
f 11 27 12
f 12 28 29
f 12 29 30
f 12 30 31
f 12 31 32
f 12 32 13
f 12 27 28
f 13 32 31
f 13 31 14
f 14 31 15
f 15 31 16
f 19 20 22
f 20 26 22
f 21 24 27
f 22 26 33
f 22 33 23
f 23 33 34
f 23 34 24
f 24 34 35
f 24 35 36
f 24 36 37
f 24 37 38
f 24 38 39
f 24 39 27
f 25 40 33
f 25 33 26
f 27 39 41
f 27 41 28
f 28 41 42
f 28 42 29
f 29 43 30
f 30 43 31
f 33 40 35
f 33 35 34
f 35 40 44
f 35 44 36
f 36 45 37
f 37 45 42
f 37 42 38
f 38 41 39
f 38 42 41

