# https://github.com/mikedh/trimesh
v 0.04722583 -0.00000681 -0.04635142
v 0.04722121 -0.00075557 -0.04635142
v 0.04722121 -0.00075557 -0.06241130
v 0.04722121 -0.00000681 -0.06993012
v 0.03836526 -0.00000681 -0.04635142
v 0.04720272 -0.00177702 -0.04635142
v 0.04721659 -0.00075557 -0.06993012
v 0.04719348 -0.00225771 -0.05790118
v 0.04721197 -0.00075557 -0.07143446
v 0.04721197 -0.00000681 -0.07143446
v 0.00000640 -0.00000681 -0.05350141
v 0.00000640 -0.03835977 -0.04635142
v 0.04719348 -0.00225771 -0.04635142
v 0.04718423 -0.00225771 -0.06993012
v 0.04711953 -0.00375984 -0.06993012
v 0.04717961 -0.00225771 -0.07143446
v 0.04715188 -0.00075557 -0.07293880
v 0.04718423 -0.00000681 -0.07218082
v 0.00000640 -0.00000681 -0.07280521
v 0.00000640 -0.04722005 -0.04635142
v 0.04699473 -0.00526660 -0.07143446
v 0.04711953 -0.00375984 -0.06842577
v 0.04662496 -0.00756371 -0.04635142
v 0.04710566 -0.00375984 -0.07143446
v 0.04705944 -0.00375984 -0.07293880
v 0.04711953 -0.00225771 -0.07293880
v 0.04684682 -0.00225771 -0.07437345
v 0.04685607 -0.00075557 -0.07441411
v 0.04685607 -0.00000681 -0.07441991
v 0.04715188 -0.00000681 -0.07293880
v 0.00000640 -0.03534164 -0.07595040
v 0.03533777 -0.00000681 -0.07594459
v 0.00000640 -0.04722005 -0.06241130
v 0.00075518 -0.04722468 -0.04635142
v 0.04697162 -0.00526660 -0.07293880
v 0.04679598 -0.00676873 -0.07143446
v 0.04658799 -0.00780405 -0.04635142
v 0.04665269 -0.00767926 -0.06391565
v 0.04678211 -0.00526660 -0.07416725
v 0.04681909 -0.00375984 -0.07428923
v 0.04656949 -0.00225771 -0.07512562
v 0.04659723 -0.00075557 -0.07516628
v 0.04660185 -0.00000681 -0.07517208
v 0.04673127 -0.00000681 -0.07479164
v 0.00000640 -0.03684377 -0.07600267
v 0.03610042 -0.00000681 -0.07597362
v 0.03684458 -0.00000681 -0.07599976
v 0.00000640 -0.04721543 -0.07067648
v 0.00075518 -0.04722005 -0.06842577
v 0.00177666 -0.04719232 -0.04635142
v 0.00225736 -0.04717383 -0.06541999
v 0.04674976 -0.00687966 -0.07295042
v 0.04670816 -0.00644982 -0.07395815
v 0.04665269 -0.00767926 -0.06541999
v 0.04664345 -0.00765152 -0.07143446
v 0.04663420 -0.00760530 -0.07245381
v 0.04650016 -0.00831709 -0.04635142
v 0.04630603 -0.00931080 -0.04635142
v 0.04621359 -0.00977762 -0.04635142
v 0.04650016 -0.00843263 -0.06391565
v 0.04644932 -0.00526660 -0.07491942
v 0.04651403 -0.00375984 -0.07504140
v 0.04558961 -0.00676873 -0.07548863
v 0.04569592 -0.00526660 -0.07550606
v 0.04576525 -0.00375984 -0.07551768
v 0.04582072 -0.00225771 -0.07552929
v 0.04584845 -0.00075557 -0.07553510
v 0.04585307 -0.00000681 -0.07553510
v 0.00000640 -0.03834590 -0.07601719
v 0.03760261 -0.00000681 -0.07600848
v 0.00000640 -0.04721081 -0.07143446
v 0.00075518 -0.04721543 -0.07143446
v 0.00225736 -0.04716921 -0.07143446
v 0.00225736 -0.04717383 -0.04635142
v 0.00376417 -0.04707215 -0.06391565
v 0.04660647 -0.00745278 -0.07345864
v 0.04522446 -0.01278651 -0.07403076
v 0.04540472 -0.01135371 -0.07455350
v 0.04507193 -0.01190834 -0.07512852
v 0.04638923 -0.00687966 -0.07445186
v 0.04650016 -0.00843263 -0.06541999
v 0.04650016 -0.00842339 -0.06692434
v 0.04650016 -0.00841415 -0.06842577
v 0.04649554 -0.00840028 -0.07143446
v 0.04620435 -0.00977762 -0.07143446
v 0.04613964 -0.00977762 -0.07293880
v 0.04648630 -0.00817380 -0.07295042
v 0.04598249 -0.01079907 -0.04635142
v 0.04621359 -0.00977762 -0.06541999
v 0.04518749 -0.01090538 -0.07526792
v 0.04530304 -0.00977762 -0.07535794
v 0.04544632 -0.00827549 -0.07544508
v 0.04436475 -0.00827549 -0.07583422
v 0.04436475 -0.00676873 -0.07588650
v 0.04436475 -0.00526660 -0.07590393
v 0.04436475 -0.00375984 -0.07591555
v 0.04436475 -0.00225771 -0.07592426
v 0.04436475 -0.00075557 -0.07593007
v 0.04511353 -0.00000681 -0.07573258
v 0.00676854 -0.03684377 -0.07602009
v 0.00225736 -0.03834590 -0.07601719
v 0.00000640 -0.04135479 -0.07600848
v 0.03834677 -0.00000681 -0.07601428
v 0.03684458 -0.00526660 -0.07601719
v 0.00000640 -0.04718307 -0.07218082
v 0.00075518 -0.04715534 -0.07293880
v 0.00225736 -0.04710912 -0.07293880
v 0.00376417 -0.04706290 -0.07143446
v 0.00376417 -0.04706753 -0.06993012
v 0.00376417 -0.04707215 -0.04635142
v 0.00526635 -0.04694273 -0.06692434
v 0.00478565 -0.04698433 -0.04635142
v 0.04578374 -0.01127976 -0.07293880
v 0.04511815 -0.01354913 -0.07370550
v 0.04360210 -0.01652567 -0.07518080
v 0.04374539 -0.01552271 -0.07531148
v 0.04620897 -0.00977762 -0.06993012
v 0.04587156 -0.01127976 -0.06842577
v 0.04586231 -0.01127976 -0.06993012
v 0.04584845 -0.01127976 -0.07143446
v 0.04587156 -0.01127976 -0.04635142
v 0.04393489 -0.01428865 -0.07543346
v 0.04417986 -0.01278651 -0.07550896
v 0.04436475 -0.00977762 -0.07572677
v 0.04285794 -0.01428865 -0.07581390
v 0.04285794 -0.01278651 -0.07590102
v 0.04285794 -0.01127976 -0.07593588
v 0.04285794 -0.00977762 -0.07596201
v 0.04285794 -0.00827549 -0.07598524
v 0.04285794 -0.00676873 -0.07599395
v 0.04361597 -0.00000681 -0.07596201
v 0.04436475 -0.00000681 -0.07593007
v 0.02030669 -0.03233275 -0.07601719
v 0.01729769 -0.03383488 -0.07601719
v 0.00977753 -0.03684377 -0.07601719
v 0.00376417 -0.03985266 -0.07601138
v 0.00075518 -0.04135479 -0.07600848
v 0.03684458 -0.00827549 -0.07601719
v 0.03533777 -0.01428865 -0.07601719
v 0.03233341 -0.02030643 -0.07601719
v 0.03082660 -0.02331532 -0.07601719
v 0.02631542 -0.02782172 -0.07601719
v 0.00000640 -0.04211279 -0.07600557
v 0.03910479 -0.00000681 -0.07601138
v 0.03834677 -0.00526660 -0.07601428
v 0.00000640 -0.04715072 -0.07293880
v 0.00075518 -0.04685954 -0.07442572
v 0.00225736 -0.04683643 -0.07436474
v 0.00000640 -0.04700744 -0.07367064
v 0.00000640 -0.04685954 -0.07441991
v 0.00376417 -0.04678096 -0.07422243
v 0.00526635 -0.04672088 -0.07402785
v 0.00376417 -0.04700282 -0.07293880
v 0.00526635 -0.04693349 -0.07143446
v 0.00526635 -0.04693811 -0.06993012
v 0.00676854 -0.04677634 -0.06692434
v 0.00526635 -0.04694273 -0.04635142
v 0.04545556 -0.01278651 -0.07143446
v 0.04538624 -0.01278651 -0.07293880
v 0.04514588 -0.01363695 -0.07293880
v 0.04490091 -0.01439033 -0.07293880
v 0.04443870 -0.01579540 -0.07293880
v 0.04360210 -0.01801856 -0.07350511
v 0.04378236 -0.01701560 -0.07417887
v 0.04295500 -0.01879967 -0.07444314
v 0.04236338 -0.02025096 -0.07437345
v 0.04217849 -0.01971482 -0.07525921
v 0.04235875 -0.01879967 -0.07537247
v 0.04267306 -0.01729754 -0.07548863
v 0.04561734 -0.01230583 -0.04635142
v 0.04549717 -0.01278651 -0.05038237
v 0.04549254 -0.01278651 -0.06842577
v 0.04547867 -0.01278651 -0.06993012
v 0.04135576 -0.01879967 -0.07573548
v 0.04135576 -0.01729754 -0.07587779
v 0.04135576 -0.01579540 -0.07593878
v 0.04135576 -0.01428865 -0.07597362
v 0.04135576 -0.01278651 -0.07598815
v 0.04135576 -0.01127976 -0.07599395
v 0.04135576 -0.00827549 -0.07599976
v 0.04135576 -0.00526660 -0.07600267
v 0.04285794 -0.00225771 -0.07599395
v 0.04285794 -0.00000681 -0.07599105
v 0.02180887 -0.03383488 -0.07600848
v 0.02180887 -0.03534164 -0.07600267
v 0.02030669 -0.03534164 -0.07600557
v 0.01579551 -0.03534164 -0.07601428
v 0.02932442 -0.02932386 -0.07600557
v 0.00977753 -0.03834590 -0.07601138
v 0.00676854 -0.03985266 -0.07600848
v 0.01428870 -0.03684377 -0.07601138
v 0.00075518 -0.04286155 -0.07600267
v 0.03985357 -0.00526660 -0.07600848
v 0.03985357 -0.00827549 -0.07600557
v 0.03684458 -0.01428865 -0.07601138
v 0.03533777 -0.01879967 -0.07601138
v 0.03383559 -0.02180856 -0.07601138
v 0.03383559 -0.02331532 -0.07600848
v 0.03383559 -0.02631496 -0.07600267
v 0.03082660 -0.02481283 -0.07601428
v 0.03233341 -0.02782172 -0.07600267
v 0.00000640 -0.04286155 -0.07600267
v 0.04061160 -0.00000681 -0.07600557
v 0.00075518 -0.04660533 -0.07517499
v 0.00225736 -0.04656835 -0.07511691
v 0.00000640 -0.04660071 -0.07517208
v 0.00376417 -0.04648978 -0.07497170
v 0.00526635 -0.04641121 -0.07478003
v 0.00642188 -0.04666079 -0.07383908
v 0.00526635 -0.04687340 -0.07293880
v 0.00765136 -0.04663768 -0.07251480
v 0.00676854 -0.04676710 -0.07143446
v 0.00676854 -0.04677172 -0.06993012
v 0.00676854 -0.04677634 -0.06541999
v 0.00768834 -0.04665155 -0.07143446
v 0.00758203 -0.04665155 -0.06541999
v 0.00613069 -0.04680870 -0.04635142
v 0.04519211 -0.01377099 -0.06993012
v 0.04517824 -0.01373863 -0.07143446
v 0.04493789 -0.01448739 -0.07143446
v 0.04450341 -0.01579540 -0.07143446
v 0.04385170 -0.01743157 -0.07297656
v 0.04362984 -0.01809713 -0.07250028
v 0.04338024 -0.01867950 -0.07297656
v 0.04267768 -0.02030643 -0.07293880
v 0.04215538 -0.02114300 -0.07382747
v 0.04191965 -0.02071778 -0.07482940
v 0.04065320 -0.02265438 -0.07524179
v 0.04087506 -0.02180856 -0.07536956
v 0.04139273 -0.02025096 -0.07547993
v 0.04549717 -0.01278651 -0.04635142
v 0.04529842 -0.01347056 -0.04635142
v 0.04520135 -0.01379410 -0.06090987
v 0.04520135 -0.01378948 -0.06692434
v 0.04520135 -0.01378485 -0.06842577
v 0.03985357 -0.02180856 -0.07573258
v 0.03985357 -0.02030643 -0.07589521
v 0.03985357 -0.01879967 -0.07595330
v 0.03985357 -0.01729754 -0.07598234
v 0.03834677 -0.02030643 -0.07598815
v 0.03985357 -0.01579540 -0.07599105
v 0.03985357 -0.01428865 -0.07599686
v 0.03985357 -0.01278651 -0.07599976
v 0.03985357 -0.01127976 -0.07600267
v 0.04135576 -0.00000681 -0.07600267
v 0.04211379 -0.00000681 -0.07599686
v 0.02180887 -0.03684377 -0.07599686
v 0.02030669 -0.03684377 -0.07599976
v 0.01579551 -0.03834590 -0.07600267
v 0.00676854 -0.04135479 -0.07600267
v 0.01428870 -0.03834590 -0.07600557
v 0.00376417 -0.04286155 -0.07599686
v 0.00075518 -0.04436368 -0.07593588
v 0.00827534 -0.04135479 -0.07599976
v 0.03684458 -0.02030643 -0.07600267
v 0.03533777 -0.02331532 -0.07600267
v 0.03533777 -0.02481283 -0.07599976
v 0.03233341 -0.02932386 -0.07597943
v 0.03082660 -0.03082599 -0.07598234
v 0.02481324 -0.03534164 -0.07599105
v 0.00000640 -0.04436368 -0.07593588
v 0.00075518 -0.04585657 -0.07553510
v 0.00225736 -0.04581960 -0.07552929
v 0.00376417 -0.04574103 -0.07552058
v 0.00526635 -0.04565783 -0.07550896
v 0.00676854 -0.04557001 -0.07548863
v 0.00000640 -0.04623096 -0.07535504
v 0.00827534 -0.04546371 -0.07544508
v 0.00977753 -0.04532505 -0.07536375
v 0.00827534 -0.04615700 -0.07444314
v 0.00686098 -0.04637423 -0.07438216
v 0.00742488 -0.04660995 -0.07351673
v 0.00686098 -0.04670239 -0.07298527
v 0.00820139 -0.04653600 -0.07298527
v 0.00977753 -0.04624020 -0.07293880
v 0.00844174 -0.04650827 -0.07143446
v 0.00977753 -0.04624944 -0.07143446
v 0.01127971 -0.04581960 -0.04635142
v 0.00654205 -0.04674399 -0.04635142
v 0.04451266 -0.01579540 -0.06993012
v 0.04395800 -0.01729754 -0.07143446
v 0.04364370 -0.01812949 -0.07143446
v 0.04333864 -0.01888287 -0.07143446
v 0.04271003 -0.02030643 -0.07143446
v 0.04222934 -0.02127704 -0.07143446
v 0.04220623 -0.02123082 -0.07293880
v 0.04178099 -0.02198420 -0.07293880
v 0.04056538 -0.02399937 -0.07327278
v 0.03925270 -0.02580193 -0.07410917
v 0.04083808 -0.02296405 -0.07444314
v 0.03904471 -0.02549226 -0.07511400
v 0.03933590 -0.02448929 -0.07535504
v 0.03984433 -0.02321826 -0.07545379
v 0.04520135 -0.01379410 -0.04635142
v 0.04512277 -0.01403444 -0.04635142
v 0.04494713 -0.01454748 -0.05489540
v 0.03846694 -0.02491913 -0.07556705
v 0.03684458 -0.02631496 -0.07577615
v 0.03834677 -0.02331532 -0.07586908
v 0.03684458 -0.02481283 -0.07593878
v 0.03834677 -0.02180856 -0.07595621
v 0.03684458 -0.02331532 -0.07598234
v 0.03684458 -0.02180856 -0.07599686
v 0.02030669 -0.03834590 -0.07599105
v 0.01879988 -0.03834590 -0.07599686
v 0.01579551 -0.03985266 -0.07599395
v 0.01278652 -0.03985266 -0.07599976
v 0.01127971 -0.03985266 -0.07600267
v 0.00977753 -0.04135479 -0.07599686
v 0.01278652 -0.04135479 -0.07598524
v 0.00827534 -0.04286155 -0.07597943
v 0.00225736 -0.04436368 -0.07593007
v 0.03533777 -0.02631496 -0.07596781
v 0.03383559 -0.02782172 -0.07597362
v 0.03233341 -0.03082599 -0.07590683
v 0.03082660 -0.03233275 -0.07590683
v 0.02932442 -0.03233275 -0.07597362
v 0.02631542 -0.03534164 -0.07595621
v 0.02331106 -0.03684377 -0.07597943
v 0.00000640 -0.04585196 -0.07553510
v 0.00376417 -0.04436368 -0.07591845
v 0.00526635 -0.04436368 -0.07590393
v 0.00676854 -0.04436368 -0.07587779
v 0.00827534 -0.04436368 -0.07582841
v 0.00977753 -0.04436368 -0.07572968
v 0.01278652 -0.04417880 -0.07550606
v 0.01428870 -0.04393384 -0.07543346
v 0.01092381 -0.04520026 -0.07527082
v 0.01192681 -0.04508009 -0.07514304
v 0.00977753 -0.04587044 -0.07444314
v 0.01127971 -0.04589355 -0.07143446
v 0.01278652 -0.04523261 -0.07402785
v 0.01353992 -0.04511706 -0.07369388
v 0.01127971 -0.04583809 -0.07293880
v 0.01127971 -0.04589355 -0.06692434
v 0.01230582 -0.04558388 -0.04635142
v 0.04451728 -0.01579540 -0.04737368
v 0.04397649 -0.01729754 -0.06541999
v 0.04397187 -0.01729754 -0.06842577
v 0.04396725 -0.01729754 -0.06993012
v 0.04364832 -0.01814335 -0.06993012
v 0.04365295 -0.01813873 -0.06842577
v 0.04365757 -0.01810638 -0.04635142
v 0.04222472 -0.02127704 -0.06842577
v 0.04107843 -0.02331532 -0.04635142
v 0.04181335 -0.02203041 -0.06842577
v 0.04180872 -0.02202579 -0.07143446
v 0.04107381 -0.02331532 -0.07143446
v 0.04061160 -0.02407332 -0.07227085
v 0.04094439 -0.02342624 -0.07283716
v 0.04019099 -0.02466955 -0.07283716
v 0.03936363 -0.02596370 -0.07293880
v 0.03790305 -0.02749356 -0.07444314
v 0.03871191 -0.02630572 -0.07454479
v 0.03885520 -0.02671707 -0.07293880
v 0.03810642 -0.02776626 -0.07293880
v 0.03616051 -0.03016505 -0.07387684
v 0.03768581 -0.02719776 -0.07526792
v 0.03590630 -0.02986462 -0.07487877
v 0.03800011 -0.02631496 -0.07540732
v 0.04494713 -0.01454748 -0.04635142
v 0.03682147 -0.02774777 -0.07545960
v 0.03537937 -0.02934696 -0.07552348
v 0.03533777 -0.02782172 -0.07584875
v 0.03383559 -0.02932386 -0.07588360
v 0.01879988 -0.03985266 -0.07596201
v 0.01729769 -0.03985266 -0.07598815
v 0.02180887 -0.03834590 -0.07595330
v 0.01428870 -0.04135479 -0.07597362
v 0.00977753 -0.04286155 -0.07595911
v 0.03243047 -0.03242981 -0.07556995
v 0.03393728 -0.03092305 -0.07555543
v 0.03090518 -0.03391807 -0.07555834
v 0.02932442 -0.03383488 -0.07588360
v 0.02481324 -0.03684377 -0.07593297
v 0.01127971 -0.04286155 -0.07593007
v 0.01278652 -0.04286155 -0.07589812
v 0.01428870 -0.04286155 -0.07581100
v 0.01729769 -0.04266281 -0.07549154
v 0.01551356 -0.04374896 -0.07531439
v 0.01651656 -0.04359644 -0.07517499
v 0.01136753 -0.04543598 -0.07456221
v 0.01278652 -0.04546371 -0.07143446
v 0.01278652 -0.04547296 -0.06842577
v 0.01363236 -0.04514479 -0.07293880
v 0.01278652 -0.04540363 -0.07293880
v 0.01695566 -0.04378132 -0.07417016
v 0.01579551 -0.04443763 -0.07293880
v 0.01438577 -0.04490445 -0.07293880
v 0.01278652 -0.04547296 -0.04635142
v 0.04451728 -0.01579540 -0.04635142
v 0.04397649 -0.01729754 -0.04635142
v 0.04062547 -0.02409643 -0.04635142
v 0.04108306 -0.02331532 -0.06541999
v 0.04108306 -0.02331532 -0.06692434
v 0.04107843 -0.02331532 -0.06993012
v 0.04062084 -0.02408718 -0.07143446
v 0.04014939 -0.02483594 -0.07143446
v 0.03940061 -0.02601916 -0.07143446
v 0.03889680 -0.02677254 -0.07143446
v 0.03734377 -0.02824232 -0.07444314
v 0.03759336 -0.02856585 -0.07191074
v 0.03755639 -0.02851964 -0.07293880
v 0.03622522 -0.03024362 -0.07293880
v 0.03562435 -0.03099700 -0.07293880
v 0.03487094 -0.03190753 -0.07293880
v 0.03476463 -0.03178273 -0.07408594
v 0.03533777 -0.03082599 -0.07448090
v 0.03653490 -0.02934696 -0.07440249
v 0.03694165 -0.02932386 -0.07293880
v 0.03630380 -0.02886166 -0.07533762
v 0.03450117 -0.03148693 -0.07508787
v 0.03490330 -0.03048396 -0.07536666
v 0.02030669 -0.03985266 -0.07590102
v 0.01729769 -0.04135479 -0.07588360
v 0.01579551 -0.04135479 -0.07594168
v 0.03199599 -0.03346974 -0.07538408
v 0.03349818 -0.03199534 -0.07538408
v 0.03045221 -0.03489331 -0.07536956
v 0.02933828 -0.03537399 -0.07552639
v 0.02782223 -0.03534164 -0.07584875
v 0.02331106 -0.03834590 -0.07586617
v 0.01879988 -0.04135479 -0.07573258
v 0.01879988 -0.04233927 -0.07536666
v 0.01968732 -0.04216364 -0.07524759
v 0.02023273 -0.04231616 -0.07435312
v 0.01373405 -0.04517715 -0.07143446
v 0.01374329 -0.04518177 -0.06993012
v 0.01374792 -0.04518177 -0.05639974
v 0.02112942 -0.04214052 -0.07379262
v 0.01795866 -0.04357333 -0.07323793
v 0.01579551 -0.04449772 -0.07143446
v 0.01448283 -0.04493681 -0.07143446
v 0.01739476 -0.04384141 -0.07281683
v 0.01806034 -0.04361493 -0.07223600
v 0.01729769 -0.04393384 -0.07143446
v 0.01374792 -0.04518177 -0.04635142
v 0.04062547 -0.02409643 -0.06090987
v 0.04048218 -0.02433677 -0.04635142
v 0.04062547 -0.02409181 -0.06842577
v 0.04017250 -0.02484518 -0.06692434
v 0.04016325 -0.02484518 -0.06993012
v 0.03940985 -0.02604227 -0.06993012
v 0.03891067 -0.02679103 -0.06993012
v 0.03803709 -0.02796962 -0.07141994
v 0.03759799 -0.02857510 -0.07090881
v 0.03712653 -0.02917595 -0.07141994
v 0.03626220 -0.03028522 -0.07143446
v 0.03564746 -0.03103860 -0.07143446
v 0.03489405 -0.03193064 -0.07143446
v 0.03419150 -0.03268401 -0.07143446
v 0.03416376 -0.03266090 -0.07293880
v 0.03328094 -0.03326176 -0.07408303
v 0.03389106 -0.03239283 -0.07458545
v 0.03299899 -0.03299831 -0.07508496
v 0.02180887 -0.03985266 -0.07573839
v 0.03145521 -0.03447271 -0.07501236
v 0.02884834 -0.03630762 -0.07533762
v 0.02774828 -0.03682066 -0.07546250
v 0.02631542 -0.03684377 -0.07577324
v 0.02023273 -0.04138715 -0.07547702
v 0.02180887 -0.04088336 -0.07537828
v 0.02268707 -0.04067075 -0.07525340
v 0.02069032 -0.04190943 -0.07479454
v 0.01398827 -0.04510782 -0.04635142
v 0.01449208 -0.04493681 -0.06993012
v 0.01449670 -0.04494143 -0.05940552
v 0.02197527 -0.04183548 -0.07293880
v 0.02122186 -0.04218212 -0.07293880
v 0.02030669 -0.04259810 -0.07293880
v 0.02170256 -0.04161362 -0.07435312
v 0.02323710 -0.04082789 -0.07429504
v 0.02405984 -0.04060604 -0.07369388
v 0.01865659 -0.04331912 -0.07281683
v 0.01579551 -0.04450234 -0.06993012
v 0.01806959 -0.04361955 -0.07143446
v 0.02030669 -0.04265819 -0.07143446
v 0.01882299 -0.04330526 -0.07143446
v 0.01729769 -0.04393846 -0.06993012
v 0.01807883 -0.04362417 -0.06993012
v 0.04017250 -0.02484980 -0.05038237
v 0.04017250 -0.02484980 -0.04635142
v 0.03941909 -0.02606076 -0.05188671
v 0.03941909 -0.02605613 -0.06692434
v 0.03941909 -0.02605151 -0.06842577
v 0.03891529 -0.02680489 -0.06842577
v 0.03816188 -0.02782172 -0.06993012
v 0.03760261 -0.02857972 -0.06993012
v 0.03626682 -0.03029446 -0.06993012
v 0.03626682 -0.03029446 -0.06842577
v 0.03627144 -0.03026673 -0.04635142
v 0.03344271 -0.03341428 -0.07143446
v 0.03262922 -0.03408909 -0.04635142
v 0.03212079 -0.03461137 -0.04635142
v 0.03188044 -0.03485633 -0.04635142
v 0.03341036 -0.03338193 -0.07293880
v 0.03172329 -0.03471305 -0.07401043
v 0.02492417 -0.03846608 -0.07556415
v 0.02323710 -0.03985266 -0.07545960
v 0.03013791 -0.03614123 -0.07382747
v 0.02985134 -0.03589627 -0.07482940
v 0.02719825 -0.03768496 -0.07526792
v 0.02631542 -0.03799926 -0.07540441
v 0.02449431 -0.03935349 -0.07535504
v 0.02549731 -0.03904844 -0.07512271
v 0.02368545 -0.04035645 -0.07469581
v 0.01450132 -0.04494143 -0.04635142
v 0.01450132 -0.04494143 -0.05188671
v 0.01579551 -0.04450697 -0.05790118
v 0.02331106 -0.04110521 -0.07293880
v 0.02203073 -0.04184472 -0.07143446
v 0.02127733 -0.04220986 -0.07143446
v 0.02580237 -0.03926567 -0.07412079
v 0.02672217 -0.03885432 -0.07293880
v 0.02596877 -0.03937660 -0.07293880
v 0.02484559 -0.04012998 -0.07293880
v 0.02409219 -0.04062453 -0.07293880
v 0.01729769 -0.04394309 -0.05940552
v 0.02030669 -0.04266281 -0.06993012
v 0.01882761 -0.04330988 -0.06993012
v 0.01883223 -0.04330988 -0.06541999
v 0.01808345 -0.04362417 -0.05339105
v 0.03941909 -0.02606076 -0.04635142
v 0.03926194 -0.02630110 -0.04635142
v 0.03891991 -0.02680951 -0.06692434
v 0.03817113 -0.02782172 -0.06842577
v 0.03817575 -0.02782172 -0.05940552
v 0.03778749 -0.02833938 -0.04635142
v 0.03741772 -0.02882468 -0.04635142
v 0.03702484 -0.02933310 -0.05790118
v 0.03702484 -0.02933310 -0.04635142
v 0.03263384 -0.03417690 -0.06541999
v 0.03262922 -0.03416766 -0.07143446
v 0.03188044 -0.03485633 -0.06541999
v 0.03101611 -0.03560971 -0.04635142
v 0.03258762 -0.03413531 -0.07293880
v 0.03183422 -0.03481473 -0.07293880
v 0.03096064 -0.03556811 -0.07293880
v 0.03021186 -0.03620594 -0.07293880
v 0.02932442 -0.03692234 -0.07293880
v 0.02852479 -0.03756017 -0.07293880
v 0.02824746 -0.03734756 -0.07444314
v 0.02933828 -0.03652485 -0.07437345
v 0.02631080 -0.03871104 -0.07455060
v 0.02749406 -0.03789757 -0.07444314
v 0.01579551 -0.04450697 -0.04635142
v 0.02331106 -0.04114218 -0.07143446
v 0.02413379 -0.04065226 -0.07143446
v 0.02117102 -0.04220523 -0.04635142
v 0.02089369 -0.04235313 -0.04635142
v 0.02030669 -0.04265819 -0.04635142
v 0.02030669 -0.04267205 -0.06241130
v 0.02030669 -0.04267205 -0.06391565
v 0.02030669 -0.04266743 -0.06692434
v 0.02677301 -0.03889129 -0.07143446
v 0.02602423 -0.03941357 -0.07143446
v 0.02857101 -0.03759715 -0.07216630
v 0.02488719 -0.04016233 -0.07143446
v 0.01783386 -0.04372586 -0.04635142
v 0.01729769 -0.04394309 -0.04635142
v 0.01883686 -0.04330988 -0.04887803
v 0.01808345 -0.04362417 -0.04635142
v 0.03891991 -0.02680951 -0.04635142
v 0.03841610 -0.02749818 -0.04635142
v 0.03817575 -0.02782172 -0.04635142
v 0.03187582 -0.03485171 -0.07143446
v 0.03101611 -0.03560971 -0.05038237
v 0.03101149 -0.03560509 -0.07143446
v 0.03026270 -0.03625216 -0.04635142
v 0.03025808 -0.03624754 -0.07143446
v 0.02415228 -0.04066150 -0.06842577
v 0.02414766 -0.04065688 -0.06692434
v 0.02414766 -0.04065688 -0.06993012
v 0.02603348 -0.03941820 -0.04635142
v 0.01883686 -0.04330988 -0.04635142
v 0.02677764 -0.03889592 -0.06993012
v 0.02797014 -0.03803624 -0.07157386
v 0.02782223 -0.03815178 -0.06993012
v 0.02602885 -0.03941357 -0.06993012
v 0.02490106 -0.04016695 -0.06993012
v 0.02858026 -0.03760177 -0.07116438
v 0.03026270 -0.03625216 -0.05940552
v 0.03026270 -0.03624754 -0.06993012
v 0.02933828 -0.03700554 -0.04635142
v 0.02933366 -0.03700092 -0.06993012
v 0.02490568 -0.04016695 -0.06842577
v 0.02603348 -0.03941820 -0.05489540
v 0.02678226 -0.03890054 -0.04635142
v 0.02678226 -0.03889592 -0.06842577
v 0.02782223 -0.03815640 -0.06090987
v 0.02678226 -0.03890054 -0.06241130
v 0.02602885 -0.03941820 -0.06541999
v 0.02858488 -0.03760639 -0.05489540
v 0.02858488 -0.03760639 -0.04635142
v 0.02748944 -0.03839674 -0.04635142
f 1 2 3
f 1 3 4
f 1 4 10
f 1 10 18
f 1 18 30
f 1 30 29
f 1 29 44
f 1 44 43
f 1 43 68
f 1 68 99
f 1 99 132
f 1 132 131
f 1 131 183
f 1 183 246
f 1 246 245
f 1 245 203
f 1 203 144
f 1 144 103
f 1 103 70
f 1 70 47
f 1 47 46
f 1 46 32
f 1 32 19
f 1 19 11
f 1 11 5
f 1 5 12
f 1 12 20
f 1 20 34
f 1 34 50
f 1 50 74
f 1 74 110
f 1 110 112
f 1 112 157
f 1 157 217
f 1 217 279
f 1 279 278
f 1 278 336
f 1 336 390
f 1 390 437
f 1 437 465
f 1 465 507
f 1 507 546
f 1 546 560
f 1 560 559
f 1 559 562
f 1 562 575
f 1 575 551
f 1 551 550
f 1 550 549
f 1 549 574
f 1 574 588
f 1 588 595
f 1 595 594
f 1 594 584
f 1 584 569
f 1 569 535
f 1 535 495
f 1 495 494
f 1 494 493
f 1 493 491
f 1 491 531
f 1 531 529
f 1 529 528
f 1 528 565
f 1 565 564
f 1 564 563
f 1 563 524
f 1 524 523
f 1 523 482
f 1 482 439
f 1 439 393
f 1 393 345
f 1 345 343
f 1 343 392
f 1 392 391
f 1 391 361
f 1 361 295
f 1 295 294
f 1 294 232
f 1 232 231
f 1 231 170
f 1 170 121
f 1 121 88
f 1 88 59
f 1 59 58
f 1 58 57
f 1 57 37
f 1 37 23
f 1 23 13
f 1 13 6
f 1 6 2
f 2 6 3
f 3 7 4
f 3 6 8
f 3 8 7
f 4 7 9
f 4 9 10
f 5 11 12
f 6 13 8
f 7 8 14
f 7 14 16
f 7 16 9
f 8 13 22
f 8 22 15
f 8 15 14
f 9 16 26
f 9 26 17
f 9 17 18
f 9 18 10
f 11 19 31
f 11 31 45
f 11 45 69
f 11 69 102
f 11 102 143
f 11 143 202
f 11 202 261
f 11 261 320
f 11 320 267
f 11 267 206
f 11 206 150
f 11 150 149
f 11 149 146
f 11 146 105
f 11 105 71
f 11 71 48
f 11 48 33
f 11 33 20
f 11 20 12
f 13 21 22
f 13 23 21
f 14 15 16
f 15 22 21
f 15 21 24
f 15 24 16
f 16 24 25
f 16 25 26
f 17 26 27
f 17 27 28
f 17 28 29
f 17 29 30
f 17 30 18
f 19 32 31
f 20 33 34
f 21 35 24
f 21 23 36
f 21 36 35
f 23 37 38
f 23 38 36
f 24 35 25
f 25 35 39
f 25 39 26
f 26 39 40
f 26 40 27
f 27 40 41
f 27 41 42
f 27 42 28
f 28 42 43
f 28 43 44
f 28 44 29
f 31 32 46
f 31 46 47
f 31 47 45
f 33 48 49
f 33 49 34
f 34 49 51
f 34 51 50
f 35 36 52
f 35 52 53
f 35 53 39
f 36 38 54
f 36 54 55
f 36 55 56
f 36 56 52
f 37 57 38
f 38 57 58
f 38 58 59
f 38 59 60
f 38 60 81
f 38 81 54
f 39 53 61
f 39 61 62
f 39 62 41
f 39 41 40
f 41 62 63
f 41 63 64
f 41 64 42
f 42 64 65
f 42 65 66
f 42 66 67
f 42 67 43
f 43 67 68
f 45 47 70
f 45 70 69
f 48 71 72
f 48 72 49
f 49 72 73
f 49 73 51
f 50 51 74
f 51 73 109
f 51 109 75
f 51 75 110
f 51 110 74
f 52 56 76
f 52 76 53
f 53 76 77
f 53 77 78
f 53 78 79
f 53 79 80
f 53 80 61
f 54 81 82
f 54 82 83
f 54 83 84
f 54 84 55
f 55 84 56
f 56 84 85
f 56 85 86
f 56 86 87
f 56 87 76
f 59 88 89
f 59 89 81
f 59 81 60
f 61 80 79
f 61 79 90
f 61 90 91
f 61 91 92
f 61 92 62
f 62 92 63
f 63 92 93
f 63 93 94
f 63 94 64
f 64 94 65
f 65 94 66
f 66 94 95
f 66 95 67
f 67 95 96
f 67 96 97
f 67 97 98
f 67 98 99
f 67 99 68
f 69 100 101
f 69 101 137
f 69 137 102
f 69 70 103
f 69 103 104
f 69 104 100
f 71 105 72
f 72 106 107
f 72 107 73
f 72 105 106
f 73 107 153
f 73 153 108
f 73 108 109
f 75 109 111
f 75 111 112
f 75 112 110
f 76 87 86
f 76 86 113
f 76 113 114
f 76 114 77
f 77 114 79
f 77 79 78
f 79 114 115
f 79 115 116
f 79 116 90
f 81 89 117
f 81 117 82
f 82 117 83
f 83 117 84
f 84 117 85
f 85 117 118
f 85 118 119
f 85 119 120
f 85 120 113
f 85 113 86
f 88 121 118
f 88 118 89
f 89 118 117
f 90 116 122
f 90 122 91
f 91 122 123
f 91 123 124
f 91 124 92
f 92 124 93
f 93 124 125
f 93 125 126
f 93 126 94
f 94 126 127
f 94 127 128
f 94 128 129
f 94 129 95
f 95 129 96
f 96 129 97
f 97 129 130
f 97 130 98
f 98 130 131
f 98 131 132
f 98 132 99
f 100 133 134
f 100 134 135
f 100 135 136
f 100 136 137
f 100 137 101
f 100 104 138
f 100 138 139
f 100 139 140
f 100 140 141
f 100 141 142
f 100 142 133
f 102 137 143
f 103 144 145
f 103 145 138
f 103 138 104
f 105 146 106
f 106 147 148
f 106 148 107
f 106 146 149
f 106 149 150
f 106 150 147
f 107 148 151
f 107 151 152
f 107 152 153
f 108 153 210
f 108 210 154
f 108 154 155
f 108 155 109
f 109 155 111
f 111 155 213
f 111 213 156
f 111 156 214
f 111 214 157
f 111 157 112
f 113 120 158
f 113 158 159
f 113 159 114
f 114 159 160
f 114 160 161
f 114 161 162
f 114 162 163
f 114 163 164
f 114 164 115
f 115 164 165
f 115 165 166
f 115 166 167
f 115 167 168
f 115 168 116
f 116 168 169
f 116 169 122
f 118 121 170
f 118 170 171
f 118 171 172
f 118 172 119
f 119 172 173
f 119 173 120
f 120 173 158
f 122 169 125
f 122 125 123
f 123 125 124
f 125 169 174
f 125 174 175
f 125 175 126
f 126 175 176
f 126 176 177
f 126 177 127
f 127 177 128
f 128 177 129
f 129 177 178
f 129 178 130
f 130 178 179
f 130 179 242
f 130 242 243
f 130 243 180
f 130 180 181
f 130 181 245
f 130 245 182
f 130 182 131
f 131 182 183
f 133 184 185
f 133 185 186
f 133 186 187
f 133 187 134
f 133 142 188
f 133 188 184
f 134 187 135
f 135 189 250
f 135 250 190
f 135 190 192
f 135 192 136
f 135 187 191
f 135 191 251
f 135 251 189
f 136 192 137
f 137 192 143
f 138 145 193
f 138 193 194
f 138 194 195
f 138 195 139
f 139 196 197
f 139 197 140
f 139 195 196
f 140 197 141
f 141 197 198
f 141 198 199
f 141 199 200
f 141 200 142
f 142 200 201
f 142 201 188
f 143 192 202
f 144 203 193
f 144 193 145
f 147 204 148
f 147 150 204
f 148 205 151
f 148 204 205
f 150 206 204
f 151 205 207
f 151 207 152
f 152 208 209
f 152 209 153
f 152 207 208
f 153 209 210
f 154 210 211
f 154 211 212
f 154 212 213
f 154 213 155
f 156 213 215
f 156 215 214
f 157 214 216
f 157 216 217
f 158 173 218
f 158 218 219
f 158 219 160
f 158 160 159
f 160 220 161
f 160 219 220
f 161 220 162
f 162 220 221
f 162 221 222
f 162 222 163
f 163 222 223
f 163 223 224
f 163 224 225
f 163 225 226
f 163 226 166
f 163 166 165
f 163 165 164
f 166 226 227
f 166 227 167
f 167 227 228
f 167 228 229
f 167 229 230
f 167 230 168
f 168 230 174
f 168 174 169
f 170 231 171
f 171 231 232
f 171 232 233
f 171 233 234
f 171 234 172
f 172 234 235
f 172 235 218
f 172 218 173
f 174 236 237
f 174 237 175
f 174 230 236
f 175 237 176
f 176 237 238
f 176 238 177
f 177 238 239
f 177 239 178
f 178 239 240
f 178 240 241
f 178 241 242
f 178 242 179
f 180 243 244
f 180 244 194
f 180 194 193
f 180 193 181
f 181 193 203
f 181 203 245
f 182 245 246
f 182 246 183
f 184 188 185
f 185 247 248
f 185 248 186
f 185 188 247
f 186 248 249
f 186 249 187
f 187 249 251
f 187 251 191
f 188 201 247
f 189 251 250
f 190 250 192
f 192 252 253
f 192 253 261
f 192 261 202
f 192 250 254
f 192 254 252
f 194 244 195
f 195 244 255
f 195 255 196
f 196 255 197
f 197 255 198
f 198 256 199
f 198 255 256
f 199 256 257
f 199 257 258
f 199 258 259
f 199 259 201
f 199 201 200
f 201 259 260
f 201 260 247
f 204 262 263
f 204 263 264
f 204 264 265
f 204 265 266
f 204 266 205
f 204 206 267
f 204 267 262
f 205 266 268
f 205 268 207
f 207 268 269
f 207 269 208
f 208 269 270
f 208 270 271
f 208 271 209
f 209 271 270
f 209 270 272
f 209 272 210
f 210 272 273
f 210 273 211
f 211 274 215
f 211 215 212
f 211 273 272
f 211 272 274
f 212 215 213
f 214 215 216
f 215 274 275
f 215 275 276
f 215 276 216
f 216 276 277
f 216 277 278
f 216 278 279
f 216 279 217
f 218 235 221
f 218 221 220
f 218 220 219
f 221 280 340
f 221 340 281
f 221 281 223
f 221 223 222
f 221 235 280
f 223 282 283
f 223 283 224
f 223 281 282
f 224 283 225
f 225 283 284
f 225 284 285
f 225 285 286
f 225 286 226
f 226 286 287
f 226 287 288
f 226 288 289
f 226 289 290
f 226 290 228
f 226 228 227
f 228 290 291
f 228 291 292
f 228 292 229
f 229 292 293
f 229 293 236
f 229 236 230
f 232 294 233
f 233 294 295
f 233 295 296
f 233 296 234
f 234 296 280
f 234 280 235
f 236 293 297
f 236 297 298
f 236 298 299
f 236 299 237
f 237 299 300
f 237 300 301
f 237 301 238
f 238 301 240
f 238 240 239
f 240 301 302
f 240 302 257
f 240 257 303
f 240 303 241
f 241 303 255
f 241 255 242
f 242 255 243
f 243 255 244
f 247 304 305
f 247 305 249
f 247 249 248
f 247 260 304
f 249 306 307
f 249 307 308
f 249 308 251
f 249 305 306
f 250 251 308
f 250 308 307
f 250 307 254
f 252 254 309
f 252 309 310
f 252 310 311
f 252 311 253
f 253 311 312
f 253 312 262
f 253 262 261
f 254 307 306
f 254 306 309
f 255 303 257
f 255 257 256
f 257 313 314
f 257 314 258
f 257 302 313
f 258 315 259
f 258 314 315
f 259 315 316
f 259 316 317
f 259 317 260
f 260 317 318
f 260 318 319
f 260 319 304
f 261 262 320
f 262 312 321
f 262 321 322
f 262 322 263
f 262 267 320
f 263 322 323
f 263 323 264
f 264 323 265
f 265 323 266
f 266 323 324
f 266 324 268
f 268 324 325
f 268 325 269
f 269 325 326
f 269 326 327
f 269 327 328
f 269 328 270
f 270 328 329
f 270 329 330
f 270 330 272
f 272 330 275
f 272 275 274
f 275 331 277
f 275 277 276
f 275 330 332
f 275 332 333
f 275 333 334
f 275 334 331
f 277 331 335
f 277 335 278
f 278 335 336
f 280 296 337
f 280 337 338
f 280 338 339
f 280 339 340
f 281 340 341
f 281 341 282
f 282 341 283
f 283 342 343
f 283 343 284
f 283 341 342
f 284 344 285
f 284 343 344
f 285 344 345
f 285 345 346
f 285 346 347
f 285 347 286
f 286 347 287
f 287 347 348
f 287 348 349
f 287 349 350
f 287 350 288
f 288 350 349
f 288 349 351
f 288 351 352
f 288 352 289
f 289 353 354
f 289 354 291
f 289 291 290
f 289 352 355
f 289 355 356
f 289 356 357
f 289 357 353
f 291 358 292
f 291 354 353
f 291 353 359
f 291 359 358
f 292 358 360
f 292 360 297
f 292 297 293
f 295 361 296
f 296 361 391
f 296 391 337
f 297 360 298
f 298 360 362
f 298 362 363
f 298 363 364
f 298 364 299
f 299 364 300
f 300 364 365
f 300 365 313
f 300 313 301
f 301 313 302
f 304 366 367
f 304 367 306
f 304 306 305
f 304 319 368
f 304 368 366
f 306 367 310
f 306 310 309
f 310 367 369
f 310 369 311
f 311 370 322
f 311 322 321
f 311 321 312
f 311 369 370
f 313 365 315
f 313 315 314
f 315 371 316
f 315 365 372
f 315 372 371
f 316 371 373
f 316 373 374
f 316 374 375
f 316 375 318
f 316 318 317
f 318 375 319
f 319 375 368
f 322 370 323
f 323 370 376
f 323 376 377
f 323 377 324
f 324 377 378
f 324 378 325
f 325 378 326
f 326 378 327
f 327 378 379
f 327 379 380
f 327 380 328
f 328 380 329
f 329 380 381
f 329 381 332
f 329 332 382
f 329 382 330
f 330 382 332
f 331 334 383
f 331 383 384
f 331 384 390
f 331 390 335
f 332 381 333
f 333 385 386
f 333 386 334
f 333 381 387
f 333 387 388
f 333 388 389
f 333 389 385
f 334 386 383
f 335 390 336
f 337 391 392
f 337 392 338
f 338 392 342
f 338 342 339
f 339 342 341
f 339 341 340
f 342 392 343
f 343 345 344
f 345 393 394
f 345 394 346
f 346 394 395
f 346 395 396
f 346 396 347
f 347 396 348
f 348 396 397
f 348 397 349
f 349 397 398
f 349 398 399
f 349 399 352
f 349 352 351
f 352 399 400
f 352 400 355
f 353 401 359
f 353 357 401
f 355 400 402
f 355 402 356
f 356 402 403
f 356 403 357
f 357 404 405
f 357 405 406
f 357 406 407
f 357 407 408
f 357 408 359
f 357 359 409
f 357 409 401
f 357 403 410
f 357 410 404
f 358 411 360
f 358 359 412
f 358 412 411
f 359 408 412
f 359 401 409
f 360 411 362
f 362 411 363
f 363 413 372
f 363 372 364
f 363 411 413
f 364 372 365
f 366 368 414
f 366 414 415
f 366 415 416
f 366 416 369
f 366 369 367
f 368 375 414
f 369 376 370
f 369 416 377
f 369 377 376
f 371 417 373
f 371 372 418
f 371 418 417
f 372 413 418
f 373 419 420
f 373 420 421
f 373 421 374
f 373 417 419
f 374 421 375
f 375 421 422
f 375 422 414
f 377 416 415
f 377 415 378
f 378 415 423
f 378 423 379
f 379 423 424
f 379 424 380
f 380 424 381
f 381 424 425
f 381 425 426
f 381 426 387
f 383 386 427
f 383 427 428
f 383 428 384
f 384 428 429
f 384 429 437
f 384 437 390
f 385 427 386
f 385 389 427
f 387 426 430
f 387 430 431
f 387 431 388
f 388 432 433
f 388 433 389
f 388 431 434
f 388 434 435
f 388 435 436
f 388 436 432
f 389 433 427
f 393 438 395
f 393 395 394
f 393 439 438
f 395 438 440
f 395 440 396
f 396 440 397
f 397 440 441
f 397 441 442
f 397 442 443
f 397 443 398
f 398 443 399
f 399 443 444
f 399 444 400
f 400 444 445
f 400 445 402
f 402 446 447
f 402 447 448
f 402 448 404
f 402 404 410
f 402 410 403
f 402 445 446
f 404 448 405
f 405 448 449
f 405 449 406
f 406 450 451
f 406 451 452
f 406 452 407
f 406 449 450
f 407 452 453
f 407 453 454
f 407 454 412
f 407 412 408
f 411 412 413
f 412 454 455
f 412 455 418
f 412 418 413
f 414 423 415
f 414 422 456
f 414 456 423
f 417 418 455
f 417 455 419
f 419 455 457
f 419 457 458
f 419 458 420
f 420 458 459
f 420 459 460
f 420 460 421
f 421 460 422
f 422 460 456
f 423 456 461
f 423 461 424
f 424 461 462
f 424 462 425
f 425 462 463
f 425 463 464
f 425 464 426
f 426 464 430
f 427 433 428
f 428 465 429
f 428 433 466
f 428 466 467
f 428 467 465
f 429 465 437
f 430 468 469
f 430 469 470
f 430 470 431
f 430 464 471
f 430 471 472
f 430 472 473
f 430 473 468
f 431 470 474
f 431 474 435
f 431 435 434
f 432 436 479
f 432 479 475
f 432 475 433
f 433 475 466
f 435 476 436
f 435 474 470
f 435 470 477
f 435 477 478
f 435 478 476
f 436 476 480
f 436 480 479
f 438 439 481
f 438 481 441
f 438 441 440
f 439 482 481
f 441 481 483
f 441 483 484
f 441 484 485
f 441 485 442
f 442 485 443
f 443 485 444
f 444 485 486
f 444 486 487
f 444 487 445
f 445 487 446
f 446 487 488
f 446 488 447
f 447 488 489
f 447 489 448
f 448 489 449
f 449 489 490
f 449 490 491
f 449 491 450
f 450 491 451
f 451 492 452
f 451 491 493
f 451 493 494
f 451 494 495
f 451 495 492
f 452 492 496
f 452 496 453
f 453 496 497
f 453 497 457
f 453 457 455
f 453 455 454
f 456 460 498
f 456 498 499
f 456 499 462
f 456 462 461
f 457 497 500
f 457 500 501
f 457 501 502
f 457 502 458
f 458 502 459
f 459 502 503
f 459 503 460
f 460 503 498
f 462 499 463
f 463 499 504
f 463 504 505
f 463 505 506
f 463 506 472
f 463 472 471
f 463 471 464
f 465 467 508
f 465 508 507
f 466 475 467
f 467 475 509
f 467 509 508
f 468 510 511
f 468 511 512
f 468 512 477
f 468 477 469
f 468 473 510
f 469 477 470
f 472 506 505
f 472 505 473
f 473 505 513
f 473 513 514
f 473 514 515
f 473 515 516
f 473 516 517
f 473 517 510
f 475 479 518
f 475 518 509
f 476 478 480
f 477 519 520
f 477 520 478
f 477 512 519
f 478 520 480
f 479 480 518
f 480 520 521
f 480 521 522
f 480 522 518
f 481 482 523
f 481 523 483
f 483 524 484
f 483 523 524
f 484 524 525
f 484 525 485
f 485 525 486
f 486 525 526
f 486 526 487
f 487 526 488
f 488 526 527
f 488 527 528
f 488 528 529
f 488 529 530
f 488 530 489
f 489 530 531
f 489 531 490
f 490 531 491
f 492 495 532
f 492 532 533
f 492 533 496
f 495 534 532
f 495 535 567
f 495 567 534
f 496 533 536
f 496 536 497
f 497 536 537
f 497 537 500
f 498 503 504
f 498 504 499
f 500 537 538
f 500 538 539
f 500 539 540
f 500 540 541
f 500 541 513
f 500 513 542
f 500 542 543
f 500 543 501
f 501 543 542
f 501 542 502
f 502 542 505
f 502 505 504
f 502 504 503
f 505 544 513
f 505 542 545
f 505 545 544
f 507 508 509
f 507 509 546
f 509 518 560
f 509 560 546
f 510 547 511
f 510 517 548
f 510 548 547
f 511 547 549
f 511 549 550
f 511 550 551
f 511 551 512
f 512 551 552
f 512 552 553
f 512 553 554
f 512 554 519
f 513 544 545
f 513 545 542
f 513 541 514
f 514 555 556
f 514 556 515
f 514 541 557
f 514 557 555
f 515 556 516
f 516 556 558
f 516 558 517
f 517 558 548
f 518 522 559
f 518 559 560
f 519 554 520
f 520 554 553
f 520 553 521
f 521 561 522
f 521 553 561
f 522 562 559
f 522 561 575
f 522 575 562
f 524 563 525
f 525 563 564
f 525 564 527
f 525 527 526
f 527 564 565
f 527 565 528
f 529 531 530
f 532 534 566
f 532 566 533
f 533 566 536
f 534 567 568
f 534 568 566
f 535 569 582
f 535 582 567
f 536 566 537
f 537 566 568
f 537 568 538
f 538 568 570
f 538 570 539
f 539 570 557
f 539 557 540
f 540 557 541
f 547 571 572
f 547 572 549
f 547 548 573
f 547 573 571
f 548 558 580
f 548 580 573
f 549 572 574
f 551 575 552
f 552 575 561
f 552 561 553
f 555 576 556
f 555 557 577
f 555 577 578
f 555 578 576
f 556 579 586
f 556 586 580
f 556 580 558
f 556 576 589
f 556 589 579
f 557 581 577
f 557 570 581
f 567 582 568
f 568 582 583
f 568 583 570
f 569 584 582
f 570 583 585
f 570 585 581
f 571 573 580
f 571 580 586
f 571 586 574
f 571 574 572
f 574 586 587
f 574 587 591
f 574 591 588
f 576 578 589
f 577 581 578
f 578 590 591
f 578 591 589
f 578 581 590
f 579 592 586
f 579 589 592
f 581 585 593
f 581 593 590
f 582 584 585
f 582 585 583
f 584 594 593
f 584 593 585
f 586 592 587
f 587 592 591
f 588 591 595
f 589 591 592
f 590 593 595
f 590 595 591
f 593 594 595

