# https://github.com/mikedh/trimesh
v -0.00000499 0.04722553 -0.04636095
v -0.00000499 0.04722091 -0.06993133
v -0.00000499 0.03836253 -0.04636095
v 0.00075326 0.04722091 -0.04636095
v 0.00075326 0.04722091 -0.06391534
v -0.00000499 0.04721166 -0.07143533
v 0.00075326 0.04721629 -0.06993133
v 0.00075326 0.04721166 -0.07143533
v -0.00000499 -0.00000219 -0.05350059
v 0.03836061 -0.00000219 -0.04636095
v 0.00225589 0.04719317 -0.04636095
v 0.00225589 0.04719317 -0.06541934
v -0.00000499 0.04718393 -0.07218152
v 0.00225589 0.04718855 -0.06993133
v 0.00075326 0.04714694 -0.07293933
v -0.00000499 0.04715156 -0.07293933
v 0.00225589 0.04717930 -0.07143533
v 0.00225589 0.04711920 -0.07293933
v -0.00000499 -0.00000219 -0.07280577
v 0.04722381 -0.00000219 -0.04636095
v 0.00754515 0.04662450 -0.04636095
v 0.00526577 0.04699436 -0.07143533
v 0.00376314 0.04712382 -0.06842734
v 0.00376314 0.04711920 -0.06993133
v 0.00075326 0.04685566 -0.07441429
v -0.00000499 0.04700823 -0.07367100
v 0.00225589 0.04684642 -0.07437365
v 0.00376314 0.04710532 -0.07143533
v 0.00376314 0.04705909 -0.07293933
v 0.00526577 0.04678169 -0.07416750
v 0.00376314 0.04681868 -0.07428944
v -0.00000499 0.03533885 -0.07595894
v 0.03534148 -0.00000219 -0.07594442
v 0.04722381 -0.00000219 -0.06091025
v 0.04722844 0.00075604 -0.04636095
v 0.00805373 0.04654127 -0.04636095
v 0.00767923 0.04665224 -0.06391534
v 0.00676840 0.04679556 -0.07143533
v 0.00526577 0.04697124 -0.07293933
v 0.00075326 0.04660138 -0.07516629
v -0.00000499 0.04673083 -0.07479174
v -0.00000499 0.04685566 -0.07442010
v 0.00225589 0.04656901 -0.07512564
v 0.00526577 0.04644881 -0.07491949
v 0.00376314 0.04651816 -0.07504144
v 0.00644938 0.04670771 -0.07395845
v -0.00000499 0.03609708 -0.07598797
v 0.03609973 -0.00000219 -0.07597345
v 0.04721919 -0.00000219 -0.07067462
v 0.04722381 0.00075604 -0.06993133
v 0.04717758 0.00225863 -0.06993133
v 0.04717758 0.00225863 -0.04636095
v 0.00829877 0.04649966 -0.04636095
v 0.00767460 0.04665224 -0.06541934
v 0.00877961 0.04640720 -0.04636095
v 0.00977829 0.04620839 -0.04636095
v 0.00843285 0.04649966 -0.06391534
v 0.00765611 0.04664761 -0.06993133
v 0.00764686 0.04664299 -0.07143533
v 0.00760525 0.04663374 -0.07245154
v 0.00687937 0.04674933 -0.07294804
v 0.00075326 0.04584777 -0.07553503
v -0.00000499 0.04623151 -0.07535501
v -0.00000499 0.04660138 -0.07517210
v 0.00526577 0.04569520 -0.07550600
v 0.00376314 0.04576455 -0.07551761
v 0.00225589 0.04582003 -0.07552922
v 0.00676840 0.04558886 -0.07548858
v 0.00687937 0.04638871 -0.07445204
v 0.01090641 0.04519125 -0.07526791
v 0.00977829 0.04530221 -0.07535792
v 0.00827566 0.04545016 -0.07544502
v 0.00745268 0.04660600 -0.07345615
v 0.01278355 0.04522361 -0.07402813
v 0.01135489 0.04540392 -0.07455366
v 0.01190509 0.04507104 -0.07513145
v -0.00000499 0.03684144 -0.07601411
v 0.03684411 -0.00000219 -0.07599958
v 0.04721456 -0.00000219 -0.07143533
v 0.04721456 0.00075604 -0.07143533
v 0.04716833 0.00225863 -0.07143533
v 0.04706661 0.00376123 -0.07143533
v 0.04707124 0.00376123 -0.06993133
v 0.04714521 0.00274871 -0.04636095
v 0.00842823 0.04649966 -0.06541934
v 0.00841436 0.04649966 -0.06842734
v 0.01128092 0.04585702 -0.04636095
v 0.00977829 0.04620839 -0.06692334
v 0.00840049 0.04649504 -0.07143533
v 0.00977829 0.04619914 -0.07143533
v 0.00977829 0.04614366 -0.07293933
v 0.00817394 0.04649042 -0.07294804
v 0.00225589 0.04436367 -0.07591829
v 0.00075326 0.04436367 -0.07592700
v -0.00000499 0.04585239 -0.07553503
v 0.00526577 0.04436367 -0.07589797
v 0.00827566 0.04436367 -0.07582828
v 0.00676840 0.04436367 -0.07587765
v 0.01552064 0.04374414 -0.07531147
v 0.01429080 0.04393832 -0.07543051
v 0.01278355 0.04417873 -0.07550890
v 0.00977829 0.04436367 -0.07572666
v 0.01355104 0.04511728 -0.07370294
v 0.01652394 0.04360081 -0.07518081
v -0.00000499 0.03834866 -0.07601411
v 0.00676840 0.03684144 -0.07601701
v 0.03684411 0.00526382 -0.07601991
v 0.03834674 -0.00000219 -0.07601411
v 0.03760236 -0.00000219 -0.07600830
v 0.04715446 -0.00000219 -0.07293933
v 0.04715446 0.00075604 -0.07293933
v 0.04710822 0.00225863 -0.07293933
v 0.04700188 0.00376123 -0.07293933
v 0.04687705 0.00526382 -0.07293933
v 0.04693253 0.00526382 -0.07143533
v 0.04702963 0.00425131 -0.04636095
v 0.04707124 0.00376123 -0.04636095
v 0.04693715 0.00526382 -0.06993133
v 0.04694178 0.00526382 -0.06692334
v 0.00977829 0.04620377 -0.06993133
v 0.01128092 0.04585702 -0.05489426
v 0.01278355 0.04546865 -0.04636095
v 0.01128092 0.04585239 -0.06993133
v 0.01128092 0.04584777 -0.07143533
v 0.01128092 0.04578304 -0.07293933
v 0.00827566 0.04286107 -0.07597926
v 0.00676840 0.04286107 -0.07598507
v 0.00376314 0.04286107 -0.07598797
v -0.00000499 0.04436367 -0.07592700
v 0.00977829 0.04286107 -0.07596184
v 0.01429080 0.04286107 -0.07581667
v 0.01278355 0.04286107 -0.07590958
v 0.01128092 0.04286107 -0.07593862
v 0.01880331 0.04235712 -0.07537244
v 0.01729606 0.04267152 -0.07548858
v 0.01278355 0.04539468 -0.07293933
v 0.01364351 0.04514964 -0.07293933
v 0.01439714 0.04490460 -0.07293933
v 0.01579343 0.04443764 -0.07293933
v 0.01802194 0.04360081 -0.07349970
v 0.01701865 0.04378575 -0.07417911
v 0.01880331 0.04295354 -0.07444333
v 0.02025046 0.04236174 -0.07437365
v 0.01971413 0.04218144 -0.07525921
v -0.00000499 0.03910689 -0.07601120
v 0.00676840 0.03834866 -0.07601411
v 0.00977829 0.03684144 -0.07601701
v 0.02631646 0.02782125 -0.07601701
v 0.02781909 0.02631403 -0.07601701
v 0.03082897 0.02181087 -0.07601701
v 0.03383423 0.01729846 -0.07601701
v 0.03534148 0.01428864 -0.07601701
v 0.03684411 0.01278605 -0.07601411
v 0.03984937 0.01128345 -0.07600539
v 0.04135662 0.01128345 -0.07599958
v 0.03984937 0.00526382 -0.07600830
v 0.04061224 -0.00000219 -0.07600539
v 0.03910499 -0.00000219 -0.07601120
v 0.01429080 0.03533885 -0.07601701
v 0.02030594 0.03233366 -0.07601701
v 0.04685856 -0.00000219 -0.07442010
v 0.04685856 0.00075604 -0.07442591
v 0.04683544 0.00225863 -0.07436784
v 0.04678458 0.00376123 -0.07422266
v 0.04671986 0.00526382 -0.07403104
v 0.04666437 0.00642891 -0.07384231
v 0.04660889 0.00743219 -0.07352583
v 0.04670598 0.00686351 -0.07299159
v 0.04664125 0.00766335 -0.07252413
v 0.04677071 0.00677104 -0.07143533
v 0.04694178 0.00526382 -0.04636095
v 0.04677996 0.00677104 -0.06692334
v 0.01278355 0.04546865 -0.04887826
v 0.01278355 0.04546403 -0.06993133
v 0.01375910 0.04518663 -0.04636095
v 0.01278355 0.04545478 -0.07143533
v 0.01429080 0.04135385 -0.07598217
v 0.01278355 0.04135385 -0.07599669
v 0.01128092 0.04135385 -0.07599958
v -0.00000499 0.04135385 -0.07600249
v -0.00000499 0.04286107 -0.07598797
v 0.01880331 0.04135385 -0.07573827
v 0.01729606 0.04135385 -0.07588055
v 0.01579343 0.04135385 -0.07594442
v 0.02025046 0.04139084 -0.07547986
v 0.01374060 0.04518200 -0.07143533
v 0.01449423 0.04493697 -0.07143533
v 0.01579343 0.04450237 -0.07143533
v 0.01743014 0.04385047 -0.07297417
v 0.01809592 0.04362855 -0.07249800
v 0.01867848 0.04337889 -0.07297417
v 0.02030594 0.04267614 -0.07293933
v 0.02114279 0.04215370 -0.07382779
v 0.02071743 0.04191790 -0.07482949
v 0.02265466 0.04065572 -0.07524178
v 0.02180857 0.04087765 -0.07536954
v -0.00000499 0.04060949 -0.07600539
v 0.00376314 0.03985126 -0.07600830
v 0.01128092 0.03834866 -0.07601120
v 0.02932634 0.03082644 -0.07600249
v 0.03082897 0.02932384 -0.07600249
v 0.02180857 0.03233366 -0.07601411
v 0.03383423 0.02181087 -0.07600830
v 0.03984937 0.01428864 -0.07600249
v 0.04135662 0.00225863 -0.07600249
v 0.04135662 0.01278605 -0.07599669
v 0.04285925 0.00677104 -0.07598507
v 0.04285925 0.00526382 -0.07598797
v 0.04285925 0.00225863 -0.07599088
v 0.04135662 -0.00000219 -0.07600249
v 0.01579343 0.03834866 -0.07600539
v 0.01729606 0.03684144 -0.07600830
v 0.04673372 -0.00000219 -0.07479174
v 0.04660889 0.00075604 -0.07517791
v 0.04657190 0.00225863 -0.07511984
v 0.04649330 0.00376123 -0.07497466
v 0.04641008 0.00526382 -0.07478303
v 0.04637309 0.00686351 -0.07438235
v 0.04616041 0.00827364 -0.07444333
v 0.04586913 0.00977623 -0.07444333
v 0.04623901 0.00977623 -0.07293933
v 0.04653954 0.00820891 -0.07299159
v 0.04665050 0.00770034 -0.07143533
v 0.04677533 0.00677104 -0.06541934
v 0.04665513 0.00759400 -0.06692334
v 0.04674297 0.00654450 -0.04636095
v 0.01375447 0.04518663 -0.06541934
v 0.01375910 0.04518663 -0.04737427
v 0.01374985 0.04518663 -0.06993133
v 0.01450810 0.04494159 -0.04636095
v 0.01880331 0.03985126 -0.07595604
v 0.01729606 0.03985126 -0.07598797
v 0.01579343 0.03985126 -0.07599958
v 0.01429080 0.03985126 -0.07600249
v 0.02180857 0.03985126 -0.07573246
v 0.02030594 0.03985126 -0.07589506
v 0.01450348 0.04493697 -0.06993133
v 0.01579343 0.04450699 -0.06993133
v 0.01729606 0.04397068 -0.06993133
v 0.01729606 0.04396144 -0.07143533
v 0.01812828 0.04364242 -0.07143533
v 0.01888191 0.04334190 -0.07143533
v 0.02030594 0.04271312 -0.07143533
v 0.02127687 0.04223229 -0.07143533
v 0.02123063 0.04220455 -0.07293933
v 0.02198426 0.04177920 -0.07293933
v 0.02400010 0.04056788 -0.07327904
v 0.02579863 0.03925484 -0.07411233
v 0.02296444 0.04084066 -0.07444333
v 0.02549348 0.03904679 -0.07511403
v 0.02449018 0.03933806 -0.07535501
v 0.02321873 0.03984201 -0.07545373
v 0.02331120 0.03383625 -0.07600539
v 0.01729606 0.03834866 -0.07600249
v 0.02781909 0.03233366 -0.07599958
v 0.03082897 0.03082644 -0.07598507
v 0.03233160 0.02782125 -0.07599958
v 0.03534148 0.02181087 -0.07600249
v 0.03383423 0.02331346 -0.07600539
v 0.03684411 0.02030365 -0.07599958
v 0.03684411 0.02181087 -0.07599378
v 0.03984937 0.01579124 -0.07599669
v 0.04211487 -0.00000219 -0.07599669
v 0.03984937 0.01729846 -0.07598797
v 0.04135662 0.01428864 -0.07597926
v 0.04285925 0.00827364 -0.07597926
v 0.04436188 0.00075604 -0.07592991
v 0.04361750 -0.00000219 -0.07596184
v 0.04285925 -0.00000219 -0.07599088
v 0.04660426 -0.00000219 -0.07517210
v 0.04585064 -0.00000219 -0.07553503
v 0.04585526 0.00075604 -0.07553503
v 0.04581828 0.00225863 -0.07552922
v 0.04573968 0.00376123 -0.07552052
v 0.04566107 0.00526382 -0.07550890
v 0.04556861 0.00677104 -0.07548858
v 0.04546689 0.00827364 -0.07544502
v 0.04532356 0.00977623 -0.07536373
v 0.04519873 0.01092745 -0.07527081
v 0.04507852 0.01193072 -0.07514306
v 0.04543453 0.01137130 -0.07456237
v 0.04523110 0.01278605 -0.07403104
v 0.04624364 0.00977623 -0.07143533
v 0.04651180 0.00845395 -0.07143533
v 0.04511550 0.01353966 -0.07369423
v 0.04583215 0.01128345 -0.07293933
v 0.04588301 0.01128345 -0.07143533
v 0.04665050 0.00758476 -0.06541934
v 0.04580441 0.01128345 -0.04636095
v 0.01450810 0.04494159 -0.05790225
v 0.01450348 0.04494159 -0.06241134
v 0.01579343 0.04451161 -0.06692334
v 0.01492421 0.04480289 -0.04636095
v 0.02180857 0.03834866 -0.07595313
v 0.02030594 0.03834866 -0.07598797
v 0.01880331 0.03834866 -0.07599669
v 0.02492017 0.03846425 -0.07556697
v 0.02631646 0.03684144 -0.07577312
v 0.02331120 0.03834866 -0.07586603
v 0.02481383 0.03684144 -0.07593281
v 0.01729606 0.04397530 -0.06842734
v 0.01814215 0.04364705 -0.06993133
v 0.01814215 0.04365167 -0.06842734
v 0.01810979 0.04365629 -0.04636095
v 0.02128149 0.04222767 -0.06842734
v 0.02203049 0.04181619 -0.06692334
v 0.02203512 0.04181157 -0.06842734
v 0.02203049 0.04181157 -0.06993133
v 0.02203049 0.04180694 -0.07143533
v 0.02407407 0.04060949 -0.07227734
v 0.02342678 0.04094700 -0.07284352
v 0.02467050 0.04019339 -0.07284352
v 0.02596970 0.03936580 -0.07293933
v 0.02672332 0.03886186 -0.07293933
v 0.03016781 0.03616181 -0.07387715
v 0.02749082 0.03790482 -0.07444333
v 0.02630721 0.03871391 -0.07454495
v 0.02986266 0.03590752 -0.07487885
v 0.02719954 0.03768752 -0.07526791
v 0.02631646 0.03800191 -0.07540728
v 0.02481383 0.03533885 -0.07598797
v 0.02932634 0.03233366 -0.07597926
v 0.02180857 0.03684144 -0.07599378
v 0.03082897 0.03233366 -0.07590668
v 0.03233160 0.03082644 -0.07590958
v 0.03233160 0.02932384 -0.07598217
v 0.03383423 0.02631403 -0.07599669
v 0.03834674 0.02030365 -0.07598507
v 0.03534148 0.02481143 -0.07598797
v 0.03984937 0.01880105 -0.07595894
v 0.04135662 0.01579124 -0.07594151
v 0.04285925 0.01278605 -0.07590668
v 0.04285925 0.01128345 -0.07593571
v 0.04285925 0.00977623 -0.07596184
v 0.04436188 0.00526382 -0.07590087
v 0.04436188 0.00225863 -0.07592410
v 0.04436188 -0.00000219 -0.07592991
v 0.04511088 -0.00000219 -0.07573246
v 0.04436188 0.00677104 -0.07587765
v 0.04436188 0.00827364 -0.07582828
v 0.04436188 0.00977623 -0.07572957
v 0.04418157 0.01278605 -0.07550600
v 0.04393652 0.01428864 -0.07543341
v 0.04374696 0.01551384 -0.07531437
v 0.04359901 0.01651711 -0.07517500
v 0.04588763 0.01128345 -0.06993133
v 0.04588763 0.01128345 -0.06842734
v 0.04547614 0.01278605 -0.04636095
v 0.04490745 0.01438573 -0.07293933
v 0.04514787 0.01363675 -0.07293933
v 0.04540217 0.01278605 -0.07293933
v 0.04400125 0.01592532 -0.07457979
v 0.04377932 0.01695633 -0.07417330
v 0.04443586 0.01579124 -0.07293933
v 0.04546227 0.01278605 -0.07143533
v 0.01579343 0.04451161 -0.04636095
v 0.01628352 0.04434055 -0.04636095
v 0.01729606 0.04397993 -0.06391534
v 0.02631646 0.03533885 -0.07595604
v 0.02331120 0.03684144 -0.07597636
v 0.02774973 0.03682295 -0.07546245
v 0.02934946 0.03538046 -0.07552633
v 0.02781909 0.03533885 -0.07584860
v 0.02932634 0.03383625 -0.07588344
v 0.01729606 0.04397993 -0.04636095
v 0.02331120 0.04108570 -0.04636095
v 0.02331120 0.04108570 -0.06541934
v 0.02331120 0.04108108 -0.06842734
v 0.02331120 0.04107182 -0.07143533
v 0.02408332 0.04061874 -0.07143533
v 0.02483695 0.04015178 -0.07143533
v 0.02602518 0.03939817 -0.07143533
v 0.02677418 0.03889884 -0.07143533
v 0.02856809 0.03759505 -0.07193183
v 0.02776823 0.03810825 -0.07293933
v 0.02934946 0.03653168 -0.07440268
v 0.02824445 0.03734077 -0.07444333
v 0.02852186 0.03755807 -0.07293933
v 0.02932634 0.03694316 -0.07293933
v 0.03024641 0.03622653 -0.07293933
v 0.03099541 0.03562550 -0.07293933
v 0.03191086 0.03487189 -0.07293933
v 0.03178140 0.03476555 -0.07408620
v 0.03082434 0.03533885 -0.07448398
v 0.03148550 0.03450202 -0.07508790
v 0.02885937 0.03630513 -0.07533760
v 0.02781909 0.03383625 -0.07597055
v 0.03092144 0.03393334 -0.07555826
v 0.03243332 0.03243075 -0.07556987
v 0.03391745 0.03090504 -0.07555826
v 0.03383423 0.02932384 -0.07588635
v 0.03534148 0.02631403 -0.07595894
v 0.03684411 0.02331346 -0.07597636
v 0.03834674 0.02181087 -0.07595023
v 0.03984937 0.02030365 -0.07589797
v 0.04135662 0.01729846 -0.07588344
v 0.04285925 0.01428864 -0.07581667
v 0.04266044 0.01729846 -0.07549439
v 0.04233680 0.01880105 -0.07536663
v 0.04216573 0.01968874 -0.07524759
v 0.04231368 0.02023430 -0.07435332
v 0.04214261 0.02113123 -0.07379295
v 0.04546689 0.01278605 -0.06993133
v 0.04547151 0.01278605 -0.06541934
v 0.04547614 0.01278605 -0.05940625
v 0.04518486 0.01375233 -0.04636095
v 0.04493519 0.01448745 -0.07143533
v 0.04518023 0.01373384 -0.07143533
v 0.04450059 0.01579124 -0.07143533
v 0.04357589 0.01795960 -0.07324419
v 0.04383943 0.01739555 -0.07282029
v 0.04361750 0.01806131 -0.07224249
v 0.03048221 0.03490425 -0.07536663
v 0.02357011 0.04093775 -0.04636095
v 0.02409257 0.04062336 -0.06993133
v 0.02484157 0.04015640 -0.06993133
v 0.02602518 0.03940279 -0.06993133
v 0.02677881 0.03889884 -0.06993133
v 0.02781909 0.03814985 -0.06993133
v 0.02796704 0.03803890 -0.07143243
v 0.02857734 0.03759968 -0.07093013
v 0.03028802 0.03626352 -0.07143533
v 0.03103703 0.03564861 -0.07143533
v 0.03193398 0.03489500 -0.07143533
v 0.03268298 0.03419225 -0.07143533
v 0.03265986 0.03416451 -0.07293933
v 0.03326092 0.03328145 -0.07408330
v 0.03239170 0.03389173 -0.07458560
v 0.03300200 0.03299942 -0.07508499
v 0.03199871 0.03349875 -0.07538405
v 0.03346897 0.03199615 -0.07538405
v 0.03489763 0.03045194 -0.07536954
v 0.03537385 0.02934234 -0.07552633
v 0.03534148 0.02782125 -0.07584860
v 0.03684411 0.02481143 -0.07592991
v 0.03834674 0.02331346 -0.07586312
v 0.03984937 0.02181087 -0.07573827
v 0.04135662 0.01880105 -0.07573246
v 0.04138899 0.02023430 -0.07547696
v 0.04088503 0.02181087 -0.07537824
v 0.04067235 0.02268468 -0.07525340
v 0.04191144 0.02069201 -0.07479465
v 0.04183284 0.02197731 -0.07293933
v 0.04218422 0.02122370 -0.07293933
v 0.04260034 0.02030365 -0.07293933
v 0.04161554 0.02170453 -0.07435332
v 0.04082954 0.02323949 -0.07429525
v 0.04060762 0.02406245 -0.07369714
v 0.04518023 0.01374309 -0.06993133
v 0.04518486 0.01374771 -0.06241134
v 0.04518486 0.01375233 -0.05038226
v 0.04493982 0.01450132 -0.04636095
v 0.04493982 0.01449669 -0.06993133
v 0.04393652 0.01729846 -0.07143533
v 0.04450521 0.01579124 -0.06993133
v 0.04332160 0.01865773 -0.07282029
v 0.04266044 0.02030365 -0.07143533
v 0.04330773 0.01882417 -0.07143533
v 0.04362213 0.01807056 -0.07143533
v 0.02409719 0.04062336 -0.04636095
v 0.02409719 0.04062336 -0.05038226
v 0.02484619 0.04015640 -0.06692334
v 0.02602980 0.03940279 -0.05940625
v 0.02678343 0.03890347 -0.05038226
v 0.02781909 0.03815448 -0.06541934
v 0.02858196 0.03760430 -0.04887826
v 0.02933096 0.03702638 -0.06391534
v 0.02933096 0.03702175 -0.06993133
v 0.03029727 0.03626815 -0.06993133
v 0.03030189 0.03627277 -0.06692334
v 0.03030189 0.03627277 -0.06541934
v 0.03027415 0.03627277 -0.04636095
v 0.03408852 0.03263418 -0.04636095
v 0.03433819 0.03238914 -0.04636095
v 0.03485601 0.03188057 -0.04636095
v 0.03341812 0.03344326 -0.07143533
v 0.03338113 0.03341090 -0.07293933
v 0.03471269 0.03172337 -0.07401071
v 0.03447227 0.03145522 -0.07501241
v 0.03630779 0.02884764 -0.07533760
v 0.03682099 0.02774727 -0.07546245
v 0.03684411 0.02631403 -0.07577312
v 0.03846695 0.02492240 -0.07556697
v 0.03985399 0.02323949 -0.07545954
v 0.03935466 0.02449704 -0.07535501
v 0.03904951 0.02549569 -0.07512274
v 0.04184671 0.02203279 -0.07143533
v 0.04221196 0.02127918 -0.07143533
v 0.04110696 0.02331346 -0.07293933
v 0.03926681 0.02580546 -0.07412104
v 0.03755150 0.02851013 -0.07320645
v 0.03885532 0.02672551 -0.07293933
v 0.03937777 0.02597190 -0.07293933
v 0.04013140 0.02484842 -0.07293933
v 0.04062611 0.02409481 -0.07293933
v 0.04493982 0.01450132 -0.05940625
v 0.04480111 0.01492205 -0.04636095
v 0.04450983 0.01579124 -0.05188626
v 0.04394114 0.01729846 -0.06993133
v 0.04394577 0.01729846 -0.05489426
v 0.04266507 0.02030365 -0.06993133
v 0.04331235 0.01882879 -0.06993133
v 0.04362213 0.01807981 -0.06993133
v 0.02484619 0.04015640 -0.04636095
v 0.02602980 0.03940279 -0.04636095
v 0.02678343 0.03890347 -0.04636095
v 0.02781909 0.03815911 -0.04636095
v 0.02806875 0.03797879 -0.04636095
v 0.02858196 0.03760430 -0.04636095
v 0.02933096 0.03702638 -0.05940625
v 0.02909054 0.03721131 -0.04636095
v 0.02933096 0.03702175 -0.04636095
v 0.02964074 0.03677672 -0.04636095
v 0.03485601 0.03188057 -0.06993133
v 0.03417636 0.03263418 -0.06541934
v 0.03536460 0.03129802 -0.04636095
v 0.03417636 0.03263418 -0.06692334
v 0.03417174 0.03262955 -0.06993133
v 0.03416712 0.03262955 -0.07143533
v 0.03413475 0.03258794 -0.07293933
v 0.03481440 0.03183433 -0.07293933
v 0.03614134 0.03013756 -0.07382779
v 0.03589630 0.02985091 -0.07482949
v 0.03768558 0.02719709 -0.07526791
v 0.03799998 0.02631403 -0.07540728
v 0.03871200 0.02630940 -0.07455075
v 0.03734807 0.02824660 -0.07444333
v 0.03789826 0.02749299 -0.07444333
v 0.04114394 0.02331346 -0.07143533
v 0.04222121 0.02118671 -0.04636095
v 0.04267431 0.02030365 -0.04636095
v 0.04267431 0.02030365 -0.06241134
v 0.04064923 0.02413180 -0.07143533
v 0.03620607 0.03021153 -0.07293933
v 0.03705679 0.02917590 -0.07279996
v 0.03759774 0.02857486 -0.07220475
v 0.03800460 0.02793221 -0.07279996
v 0.03889231 0.02677637 -0.07143533
v 0.03941014 0.02602276 -0.07143533
v 0.04016377 0.02488541 -0.07143533
v 0.04450983 0.01579124 -0.04636095
v 0.04362675 0.01808443 -0.05639825
v 0.04362675 0.01807981 -0.06091025
v 0.04394577 0.01729846 -0.04636095
v 0.04331235 0.01883342 -0.06842734
v 0.03485139 0.03187594 -0.07143533
v 0.03560964 0.03101600 -0.06091025
v 0.03560964 0.03101137 -0.06993133
v 0.03560502 0.03101137 -0.07143533
v 0.03560964 0.03101600 -0.04636095
v 0.03556803 0.03096052 -0.07293933
v 0.03652509 0.02934234 -0.07437365
v 0.04065848 0.02415029 -0.06993133
v 0.04066310 0.02415491 -0.06842734
v 0.04065848 0.02415029 -0.06692334
v 0.03941939 0.02603200 -0.04636095
v 0.04331235 0.01883804 -0.04636095
v 0.04331235 0.01883804 -0.05038226
v 0.03624306 0.03025776 -0.07143533
v 0.03759774 0.02857948 -0.07143533
v 0.03814793 0.02782125 -0.07143533
v 0.03699669 0.02932847 -0.07143533
v 0.03889693 0.02678099 -0.06993133
v 0.03941476 0.02602738 -0.06993133
v 0.04016839 0.02489928 -0.06993133
v 0.04362675 0.01808443 -0.04636095
v 0.03625231 0.03026239 -0.04636095
v 0.03624768 0.03026239 -0.06993133
v 0.04016839 0.02490390 -0.06842734
v 0.03941939 0.02603200 -0.06241134
v 0.03890156 0.02678561 -0.04636095
v 0.03760236 0.02857948 -0.06993133
v 0.03815255 0.02782125 -0.06993133
v 0.03700131 0.02933309 -0.06842734
v 0.03890156 0.02678561 -0.05940625
v 0.03941476 0.02603200 -0.06692334
v 0.03700131 0.02933771 -0.04636095
v 0.03700131 0.02933771 -0.04737427
v 0.03866114 0.02712312 -0.04636095
v 0.03760236 0.02858410 -0.05639825
v 0.03815718 0.02782125 -0.05639825
v 0.03760236 0.02858410 -0.04636095
v 0.03815718 0.02782125 -0.04636095
f 1 2 6
f 1 6 13
f 1 13 16
f 1 16 26
f 1 26 42
f 1 42 41
f 1 41 64
f 1 64 63
f 1 63 95
f 1 95 129
f 1 129 181
f 1 181 180
f 1 180 197
f 1 197 145
f 1 145 105
f 1 105 77
f 1 77 47
f 1 47 32
f 1 32 19
f 1 19 9
f 1 9 3
f 1 3 10
f 1 10 20
f 1 20 35
f 1 35 52
f 1 52 84
f 1 84 117
f 1 117 116
f 1 116 171
f 1 171 226
f 1 226 289
f 1 289 348
f 1 348 406
f 1 406 452
f 1 452 497
f 1 497 541
f 1 541 544
f 1 544 566
f 1 566 557
f 1 557 531
f 1 531 530
f 1 530 556
f 1 556 571
f 1 571 579
f 1 579 583
f 1 583 582
f 1 582 577
f 1 577 567
f 1 567 550
f 1 550 516
f 1 516 475
f 1 475 474
f 1 474 473
f 1 473 472
f 1 472 513
f 1 513 512
f 1 512 511
f 1 511 509
f 1 509 508
f 1 508 507
f 1 507 506
f 1 506 505
f 1 505 504
f 1 504 460
f 1 460 414
f 1 414 366
f 1 366 304
f 1 304 365
f 1 365 357
f 1 357 356
f 1 356 293
f 1 293 230
f 1 230 175
f 1 175 122
f 1 122 87
f 1 87 56
f 1 56 55
f 1 55 53
f 1 53 36
f 1 36 21
f 1 21 11
f 1 11 4
f 1 4 5
f 1 5 2
f 2 5 7
f 2 7 8
f 2 8 6
f 3 9 10
f 4 11 12
f 4 12 5
f 5 12 7
f 6 8 13
f 7 12 14
f 7 14 8
f 8 15 16
f 8 16 13
f 8 14 17
f 8 17 18
f 8 18 15
f 9 19 33
f 9 33 48
f 9 48 78
f 9 78 109
f 9 109 108
f 9 108 158
f 9 158 157
f 9 157 210
f 9 210 263
f 9 263 269
f 9 269 268
f 9 268 337
f 9 337 338
f 9 338 271
f 9 271 270
f 9 270 213
f 9 213 161
f 9 161 110
f 9 110 79
f 9 79 49
f 9 49 34
f 9 34 20
f 9 20 10
f 11 21 22
f 11 22 23
f 11 23 12
f 12 23 14
f 14 23 24
f 14 24 17
f 15 25 26
f 15 26 16
f 15 18 27
f 15 27 25
f 17 24 28
f 17 28 29
f 17 29 18
f 18 29 30
f 18 30 31
f 18 31 27
f 19 32 33
f 20 34 35
f 21 36 37
f 21 37 38
f 21 38 22
f 22 39 28
f 22 28 24
f 22 24 23
f 22 38 39
f 25 40 41
f 25 41 42
f 25 42 26
f 25 27 40
f 27 43 40
f 27 31 43
f 28 39 29
f 29 39 30
f 30 44 45
f 30 45 31
f 30 39 46
f 30 46 44
f 31 45 43
f 32 47 48
f 32 48 33
f 34 49 50
f 34 50 35
f 35 50 51
f 35 51 52
f 36 53 37
f 37 54 38
f 37 53 55
f 37 55 56
f 37 56 57
f 37 57 85
f 37 85 54
f 38 54 58
f 38 58 59
f 38 59 60
f 38 60 61
f 38 61 39
f 39 61 46
f 40 62 63
f 40 63 64
f 40 64 41
f 40 43 65
f 40 65 66
f 40 66 67
f 40 67 62
f 43 45 68
f 43 68 65
f 44 46 69
f 44 69 70
f 44 70 71
f 44 71 72
f 44 72 45
f 45 72 68
f 46 61 73
f 46 73 74
f 46 74 75
f 46 75 76
f 46 76 69
f 47 77 78
f 47 78 48
f 49 79 50
f 50 79 80
f 50 80 81
f 50 81 51
f 51 81 82
f 51 82 83
f 51 83 84
f 51 84 52
f 54 85 86
f 54 86 58
f 56 87 121
f 56 121 88
f 56 88 57
f 57 88 85
f 58 86 89
f 58 89 59
f 59 89 60
f 60 89 90
f 60 90 91
f 60 91 92
f 60 92 73
f 60 73 61
f 62 93 94
f 62 94 95
f 62 95 63
f 62 67 96
f 62 96 93
f 65 68 97
f 65 97 98
f 65 98 66
f 66 98 67
f 67 98 96
f 68 72 97
f 69 76 70
f 70 76 99
f 70 99 100
f 70 100 101
f 70 101 71
f 71 101 72
f 72 101 102
f 72 102 97
f 73 92 91
f 73 91 103
f 73 103 74
f 74 103 76
f 74 76 75
f 76 103 104
f 76 104 99
f 77 105 106
f 77 106 107
f 77 107 108
f 77 108 109
f 77 109 78
f 79 110 111
f 79 111 80
f 80 111 112
f 80 112 81
f 81 112 82
f 82 112 113
f 82 113 114
f 82 114 115
f 82 115 118
f 82 118 83
f 83 116 117
f 83 117 84
f 83 118 119
f 83 119 116
f 85 88 86
f 86 88 120
f 86 120 89
f 87 122 173
f 87 173 121
f 88 121 123
f 88 123 120
f 89 120 90
f 90 120 123
f 90 123 124
f 90 124 91
f 91 124 125
f 91 125 103
f 93 96 126
f 93 126 94
f 94 126 127
f 94 127 128
f 94 128 181
f 94 181 129
f 94 129 95
f 96 98 130
f 96 130 126
f 97 102 131
f 97 131 132
f 97 132 98
f 98 132 133
f 98 133 130
f 99 104 134
f 99 134 135
f 99 135 100
f 100 131 101
f 100 135 131
f 101 131 102
f 103 125 136
f 103 136 137
f 103 137 138
f 103 138 139
f 103 139 140
f 103 140 141
f 103 141 104
f 104 141 142
f 104 142 143
f 104 143 144
f 104 144 134
f 105 145 146
f 105 146 147
f 105 147 106
f 106 147 107
f 107 148 149
f 107 149 150
f 107 150 151
f 107 151 152
f 107 152 153
f 107 153 154
f 107 154 155
f 107 155 156
f 107 156 157
f 107 157 158
f 107 158 108
f 107 147 159
f 107 159 160
f 107 160 148
f 110 161 162
f 110 162 111
f 111 162 163
f 111 163 112
f 112 163 164
f 112 164 165
f 112 165 113
f 113 165 166
f 113 166 114
f 114 166 167
f 114 167 168
f 114 168 169
f 114 169 115
f 115 169 170
f 115 170 118
f 116 119 171
f 118 170 172
f 118 172 119
f 119 172 171
f 121 173 174
f 121 174 123
f 122 175 228
f 122 228 173
f 123 174 124
f 124 174 176
f 124 176 136
f 124 136 125
f 126 130 177
f 126 177 178
f 126 178 127
f 127 178 179
f 127 179 128
f 128 180 181
f 128 179 180
f 130 133 177
f 131 135 182
f 131 182 183
f 131 183 132
f 132 183 184
f 132 184 177
f 132 177 133
f 134 144 185
f 134 185 182
f 134 182 135
f 136 176 137
f 137 176 186
f 137 186 187
f 137 187 138
f 138 187 139
f 139 187 188
f 139 188 189
f 139 189 140
f 140 189 190
f 140 190 191
f 140 191 192
f 140 192 193
f 140 193 143
f 140 143 142
f 140 142 141
f 143 193 194
f 143 194 144
f 144 194 195
f 144 195 196
f 144 196 185
f 145 197 146
f 146 197 198
f 146 198 179
f 146 179 199
f 146 199 147
f 147 199 159
f 148 200 201
f 148 201 149
f 148 160 202
f 148 202 200
f 149 201 150
f 150 201 259
f 150 259 203
f 150 203 151
f 151 203 204
f 151 204 152
f 152 204 153
f 153 204 154
f 154 204 155
f 155 205 156
f 155 204 206
f 155 206 207
f 155 207 208
f 155 208 209
f 155 209 205
f 156 205 157
f 157 205 210
f 159 199 211
f 159 211 212
f 159 212 160
f 160 212 202
f 161 213 214
f 161 214 162
f 162 214 163
f 163 214 215
f 163 215 164
f 164 215 216
f 164 216 165
f 165 216 217
f 165 217 166
f 166 217 218
f 166 218 219
f 166 219 167
f 167 169 168
f 167 219 220
f 167 220 221
f 167 221 222
f 167 222 169
f 169 223 170
f 169 222 223
f 170 223 172
f 171 172 224
f 171 224 225
f 171 225 226
f 172 223 225
f 172 225 224
f 173 227 174
f 173 228 227
f 174 227 229
f 174 229 186
f 174 186 176
f 175 230 290
f 175 290 228
f 177 184 231
f 177 231 232
f 177 232 178
f 178 232 233
f 178 233 234
f 178 234 179
f 179 234 199
f 179 198 180
f 180 198 197
f 182 185 235
f 182 235 236
f 182 236 183
f 183 236 184
f 184 236 231
f 185 196 235
f 186 229 187
f 187 237 238
f 187 238 188
f 187 229 237
f 188 238 301
f 188 301 239
f 188 239 240
f 188 240 189
f 189 240 190
f 190 240 241
f 190 241 242
f 190 242 191
f 191 242 192
f 192 243 244
f 192 244 245
f 192 245 193
f 192 242 243
f 193 245 246
f 193 246 247
f 193 247 248
f 193 248 249
f 193 249 195
f 193 195 194
f 195 249 250
f 195 250 251
f 195 251 196
f 196 251 252
f 196 252 235
f 199 234 211
f 200 202 253
f 200 253 254
f 200 254 255
f 200 255 256
f 200 256 201
f 201 256 326
f 201 326 257
f 201 257 258
f 201 258 259
f 202 212 253
f 203 259 204
f 204 260 261
f 204 261 262
f 204 262 206
f 204 259 258
f 204 258 260
f 205 209 263
f 205 263 210
f 206 262 264
f 206 264 265
f 206 265 334
f 206 334 266
f 206 266 207
f 207 266 336
f 207 336 267
f 207 267 208
f 208 267 268
f 208 268 209
f 209 268 269
f 209 269 263
f 211 234 233
f 211 233 254
f 211 254 212
f 212 254 253
f 213 270 214
f 214 270 271
f 214 271 272
f 214 272 273
f 214 273 274
f 214 274 275
f 214 275 276
f 214 276 215
f 215 276 277
f 215 277 216
f 216 277 278
f 216 278 217
f 217 219 218
f 217 278 219
f 219 278 279
f 219 279 280
f 219 280 220
f 220 280 281
f 220 281 282
f 220 282 221
f 221 283 284
f 221 284 222
f 221 282 285
f 221 285 286
f 221 286 287
f 221 287 346
f 221 346 283
f 222 284 223
f 223 284 225
f 225 284 288
f 225 288 226
f 226 288 289
f 227 228 290
f 227 290 229
f 229 290 291
f 229 291 292
f 229 292 237
f 230 293 290
f 231 236 294
f 231 294 295
f 231 295 232
f 232 295 233
f 233 295 296
f 233 296 255
f 233 255 254
f 235 252 297
f 235 297 298
f 235 298 299
f 235 299 236
f 236 299 300
f 236 300 294
f 237 292 238
f 238 292 301
f 239 301 303
f 239 303 302
f 239 302 240
f 240 302 241
f 241 302 242
f 242 302 303
f 242 303 304
f 242 304 243
f 243 305 244
f 243 304 305
f 244 305 306
f 244 306 307
f 244 307 308
f 244 308 309
f 244 309 246
f 244 246 245
f 246 309 310
f 246 310 311
f 246 311 247
f 247 311 310
f 247 310 312
f 247 312 313
f 247 313 248
f 248 313 314
f 248 314 315
f 248 315 316
f 248 316 317
f 248 317 250
f 248 250 249
f 250 317 316
f 250 316 318
f 250 318 319
f 250 319 251
f 251 319 320
f 251 320 297
f 251 297 252
f 255 321 322
f 255 322 256
f 255 296 323
f 255 323 295
f 255 295 321
f 256 324 325
f 256 325 326
f 256 322 324
f 257 326 327
f 257 327 260
f 257 260 258
f 260 327 261
f 261 328 264
f 261 264 262
f 261 327 329
f 261 329 328
f 264 328 330
f 264 330 265
f 265 330 331
f 265 331 332
f 265 332 333
f 265 333 334
f 266 334 335
f 266 335 336
f 267 337 268
f 267 336 272
f 267 272 338
f 267 338 337
f 271 338 272
f 272 336 335
f 272 335 273
f 273 335 339
f 273 339 274
f 274 339 275
f 275 339 340
f 275 340 276
f 276 340 277
f 277 340 341
f 277 341 278
f 278 341 342
f 278 342 343
f 278 343 279
f 279 343 344
f 279 344 280
f 280 282 281
f 280 344 345
f 280 345 282
f 282 345 285
f 283 346 347
f 283 347 348
f 283 348 289
f 283 289 284
f 284 289 288
f 285 349 350
f 285 350 351
f 285 351 286
f 285 345 352
f 285 352 353
f 285 353 354
f 285 354 349
f 286 351 355
f 286 355 287
f 287 355 403
f 287 403 346
f 290 293 292
f 290 292 291
f 292 293 356
f 292 356 357
f 292 357 358
f 292 358 301
f 294 300 359
f 294 359 360
f 294 360 295
f 295 360 321
f 295 323 296
f 297 320 298
f 298 320 361
f 298 361 362
f 298 362 363
f 298 363 299
f 299 363 300
f 300 363 364
f 300 364 324
f 300 324 359
f 301 358 303
f 303 358 365
f 303 365 304
f 304 366 305
f 305 366 306
f 306 366 367
f 306 367 307
f 307 367 368
f 307 368 308
f 308 368 369
f 308 369 309
f 309 369 310
f 310 369 370
f 310 370 371
f 310 371 372
f 310 372 313
f 310 313 312
f 313 372 373
f 313 373 314
f 314 373 374
f 314 374 375
f 314 375 315
f 315 318 376
f 315 376 377
f 315 377 316
f 315 375 378
f 315 378 379
f 315 379 380
f 315 380 381
f 315 381 382
f 315 382 383
f 315 383 384
f 315 384 318
f 316 377 318
f 318 384 385
f 318 385 319
f 318 377 376
f 319 386 361
f 319 361 320
f 319 385 386
f 321 360 387
f 321 387 322
f 322 387 324
f 324 388 389
f 324 389 325
f 324 387 359
f 324 364 388
f 325 389 390
f 325 390 391
f 325 391 392
f 325 392 326
f 326 392 393
f 326 393 329
f 326 329 327
f 328 329 393
f 328 393 394
f 328 394 330
f 330 394 395
f 330 395 396
f 330 396 331
f 331 396 332
f 332 397 340
f 332 340 339
f 332 339 333
f 332 396 397
f 333 339 334
f 334 339 335
f 340 397 341
f 341 397 342
f 342 397 343
f 343 397 398
f 343 398 344
f 344 398 399
f 344 399 345
f 345 353 352
f 345 399 400
f 345 400 401
f 345 401 402
f 345 402 353
f 346 403 404
f 346 404 405
f 346 405 348
f 346 348 347
f 348 405 451
f 348 451 406
f 349 407 408
f 349 408 350
f 349 354 409
f 349 409 407
f 350 408 351
f 351 408 355
f 353 410 354
f 353 402 410
f 354 410 411
f 354 411 412
f 354 412 409
f 355 408 403
f 357 365 358
f 359 387 360
f 361 386 362
f 362 413 388
f 362 388 363
f 362 386 413
f 363 388 364
f 366 414 367
f 367 414 415
f 367 415 368
f 368 415 369
f 369 415 370
f 370 415 371
f 371 416 372
f 371 415 416
f 372 416 417
f 372 417 373
f 373 418 419
f 373 419 420
f 373 420 374
f 373 417 418
f 374 379 378
f 374 378 375
f 374 420 421
f 374 421 422
f 374 422 380
f 374 380 379
f 380 422 381
f 381 423 382
f 381 422 423
f 382 423 424
f 382 424 425
f 382 425 426
f 382 426 383
f 383 385 384
f 383 426 427
f 383 427 428
f 383 428 385
f 385 428 429
f 385 429 430
f 385 430 413
f 385 413 386
f 388 413 430
f 388 430 389
f 389 431 390
f 389 430 431
f 390 431 432
f 390 432 433
f 390 433 434
f 390 434 391
f 391 434 435
f 391 435 392
f 392 435 394
f 392 394 393
f 394 435 395
f 395 435 436
f 395 436 437
f 395 437 438
f 395 438 396
f 396 438 397
f 397 438 398
f 398 438 399
f 399 438 439
f 399 439 440
f 399 440 400
f 400 440 441
f 400 441 442
f 400 442 401
f 401 442 402
f 402 443 444
f 402 444 445
f 402 445 410
f 402 442 446
f 402 446 447
f 402 447 448
f 402 448 443
f 403 408 449
f 403 449 404
f 404 449 450
f 404 450 405
f 405 450 451
f 406 451 496
f 406 496 452
f 407 453 408
f 407 409 453
f 408 453 449
f 409 412 454
f 409 454 499
f 409 499 455
f 409 455 453
f 410 456 412
f 410 412 411
f 410 445 456
f 412 456 445
f 412 445 457
f 412 457 458
f 412 458 459
f 412 459 454
f 414 460 461
f 414 461 415
f 415 461 462
f 415 462 416
f 416 462 417
f 417 462 463
f 417 463 464
f 417 464 418
f 418 464 465
f 418 465 419
f 419 465 421
f 419 421 420
f 421 465 466
f 421 466 467
f 421 467 468
f 421 468 422
f 422 469 423
f 422 468 469
f 423 469 470
f 423 470 424
f 424 470 471
f 424 471 472
f 424 472 425
f 425 473 474
f 425 474 475
f 425 475 476
f 425 476 426
f 425 472 473
f 426 476 477
f 426 477 427
f 427 429 428
f 427 477 478
f 427 478 479
f 427 479 429
f 429 479 432
f 429 432 431
f 429 431 430
f 432 479 480
f 432 480 433
f 433 480 481
f 433 481 482
f 433 482 434
f 434 482 436
f 434 436 435
f 436 482 437
f 437 482 483
f 437 483 484
f 437 484 440
f 437 440 439
f 437 439 438
f 440 484 441
f 441 447 446
f 441 446 442
f 441 484 485
f 441 485 486
f 441 486 447
f 443 487 488
f 443 488 444
f 443 448 489
f 443 489 487
f 444 488 457
f 444 457 445
f 447 486 448
f 448 486 490
f 448 490 491
f 448 491 492
f 448 492 493
f 448 493 494
f 448 494 495
f 448 495 489
f 449 453 450
f 450 453 496
f 450 496 451
f 452 496 497
f 453 498 496
f 453 455 498
f 454 459 499
f 455 499 500
f 455 500 498
f 457 488 501
f 457 501 502
f 457 502 458
f 458 502 459
f 459 502 503
f 459 503 499
f 460 504 462
f 460 462 461
f 462 504 505
f 462 505 463
f 463 505 506
f 463 506 464
f 464 506 507
f 464 507 465
f 465 507 508
f 465 508 466
f 466 508 509
f 466 509 510
f 466 510 467
f 467 510 471
f 467 471 470
f 467 470 468
f 468 470 469
f 471 510 511
f 471 511 512
f 471 512 513
f 471 513 472
f 475 514 517
f 475 517 515
f 475 515 476
f 475 516 514
f 476 515 517
f 476 517 518
f 476 518 519
f 476 519 477
f 477 519 520
f 477 520 478
f 478 520 521
f 478 521 522
f 478 522 479
f 479 522 523
f 479 523 524
f 479 524 480
f 480 524 481
f 481 524 525
f 481 525 482
f 482 525 483
f 483 485 484
f 483 525 485
f 485 525 524
f 485 524 486
f 486 526 490
f 486 524 527
f 486 527 528
f 486 528 526
f 487 489 529
f 487 529 530
f 487 530 531
f 487 531 488
f 488 532 501
f 488 531 532
f 489 495 533
f 489 533 529
f 490 526 528
f 490 528 527
f 490 527 522
f 490 522 491
f 491 522 534
f 491 534 535
f 491 535 536
f 491 536 537
f 491 537 492
f 492 538 493
f 492 537 536
f 492 536 538
f 493 538 539
f 493 539 494
f 494 540 495
f 494 539 540
f 495 540 533
f 496 498 497
f 497 498 541
f 498 500 544
f 498 544 541
f 499 542 500
f 499 503 543
f 499 543 542
f 500 542 566
f 500 566 544
f 501 532 545
f 501 545 502
f 502 545 503
f 503 545 543
f 509 511 510
f 514 546 519
f 514 519 518
f 514 518 517
f 514 516 547
f 514 547 548
f 514 548 549
f 514 549 546
f 516 550 547
f 519 546 520
f 520 546 521
f 521 546 549
f 521 549 551
f 521 551 522
f 522 527 552
f 522 552 523
f 522 551 534
f 523 552 527
f 523 527 524
f 529 533 553
f 529 553 554
f 529 554 530
f 530 554 555
f 530 555 556
f 531 557 558
f 531 558 532
f 532 558 545
f 533 540 553
f 534 559 536
f 534 536 535
f 534 551 549
f 534 549 559
f 536 560 561
f 536 561 538
f 536 559 562
f 536 562 560
f 538 563 564
f 538 564 539
f 538 561 563
f 539 564 565
f 539 565 540
f 540 565 553
f 542 543 545
f 542 545 558
f 542 558 557
f 542 557 566
f 547 550 567
f 547 567 568
f 547 568 548
f 548 568 549
f 549 568 559
f 553 565 554
f 554 565 569
f 554 569 556
f 554 556 555
f 556 569 570
f 556 570 575
f 556 575 571
f 559 568 562
f 560 572 573
f 560 573 561
f 560 562 572
f 561 573 563
f 562 568 574
f 562 574 572
f 563 575 570
f 563 570 576
f 563 576 564
f 563 573 575
f 564 576 569
f 564 569 565
f 567 577 578
f 567 578 574
f 567 574 568
f 569 576 570
f 571 575 579
f 572 580 581
f 572 581 573
f 572 574 580
f 573 581 575
f 574 578 580
f 575 581 579
f 577 582 580
f 577 580 578
f 579 581 583
f 580 582 583
f 580 583 581

