# https://github.com/mikedh/trimesh
v 0.00000816 0.04722901 0.03181309
v 0.00000454 0.04723426 0.03569078
v 0.00000091 0.04723426 0.04533694
v 0.00000816 0.04304179 0.03181309
v 0.00000816 0.04722901 0.02986890
v 0.00000454 0.04723426 0.03375728
v -0.00076033 0.04724127 0.04533694
v 0.00000091 0.04324326 0.04533694
v -0.00233357 0.04718871 0.07292946
v -0.00233357 0.04718696 0.07299355
v -0.00233357 0.04713790 0.07443567
v -0.00233357 0.04712914 0.07447840
v -0.00233357 0.04685583 0.07546117
v -0.00233357 0.04586421 0.07586710
v 0.00000816 0.04301200 0.02986890
v -0.00000634 0.04029119 -0.03314629
v -0.00000634 0.04722550 -0.03314629
v -0.00000634 0.04722725 -0.02404493
v -0.00000634 0.04723075 0.00074881
v -0.00233357 0.04718871 0.05939492
v -0.00075671 0.04723776 0.02010523
v -0.00226107 0.04718520 -0.01428126
v -0.00226107 0.04718871 0.01278782
v -0.00233357 0.04579764 0.07586710
v -0.00233357 0.04436453 0.07577096
v -0.00233357 0.04346226 0.07535436
v -0.00233357 0.04345175 0.07531162
v -0.00233357 0.04329232 0.07443567
v -0.03144568 0.02983190 0.07443567
v -0.00376905 0.04708710 0.07292946
v -0.00376905 0.04703804 0.07443567
v -0.00649140 0.04667363 0.07525821
v -0.00526979 0.04673845 0.07533299
v -0.00376905 0.04680328 0.07540777
v -0.00526979 0.04586421 0.07574960
v -0.00376905 0.04586421 0.07582438
v -0.00978287 0.04436453 0.07598461
v -0.02759596 0.02934485 -0.03314629
v -0.03143843 0.02983190 0.07431816
v -0.00075671 0.04722725 -0.03314629
v -0.00075671 0.04722901 -0.02932201
v -0.00376905 0.04708534 0.03684448
v -0.00376905 0.04708710 0.05788871
v -0.00226107 0.04718345 -0.02480338
v -0.00376543 0.04707658 -0.02630959
v -0.00376543 0.04707833 -0.01577679
v -0.00376543 0.04708009 -0.00375914
v -0.03382729 0.02983190 0.07589916
v -0.03331979 0.02983190 0.07586710
v -0.03196405 0.02983190 0.07546117
v -0.03167768 0.02983190 0.07532230
v -0.03156168 0.02983190 0.07514071
v -0.03087656 0.02934485 0.01416584
v -0.00526979 0.04695570 0.06690461
v -0.00526979 0.04695394 0.07292946
v -0.00526979 0.04690664 0.07443567
v -0.00749190 0.04661231 0.07511934
v -0.01128724 0.04544900 0.07551458
v -0.00978287 0.04563120 0.07557868
v -0.01128724 0.04436453 0.07593120
v -0.01879092 0.04135638 0.07596325
v -0.02631273 0.03685031 0.07594188
v -0.03382729 0.03083578 0.07590984
v -0.01580032 0.04285958 0.07593120
v -0.03702088 0.02934485 -0.03314629
v -0.00226107 0.04718170 -0.03314629
v -0.00526979 0.04695394 0.04533694
v -0.00526979 0.04694869 -0.00826709
v -0.00526979 0.04695044 0.00526744
v -0.00295344 0.04713265 -0.03314629
v -0.00376543 0.04707483 -0.03314629
v -0.00445780 0.04701526 -0.03314629
v -0.00526979 0.04694519 -0.03232375
v -0.03482415 0.02983190 0.07587779
v -0.03702451 0.02934485 0.01417652
v -0.03115568 0.02934485 0.01417652
v -0.00677778 0.04678225 0.06841082
v -0.00677778 0.04678225 0.07292946
v -0.00772752 0.04664385 0.07410452
v -0.00690465 0.04671743 0.07454249
v -0.01359272 0.04512839 0.07520480
v -0.01279522 0.04525102 0.07533299
v -0.00825314 0.04653347 0.07454249
v -0.00978287 0.04623038 0.07443567
v -0.01580032 0.04399836 0.07553595
v -0.02179964 0.03985144 0.07595257
v -0.02029166 0.04135638 0.07581370
v -0.02480474 0.03835525 0.07592051
v -0.03082219 0.03384217 0.07589916
v -0.03379466 0.03230744 0.07554664
v -0.03532077 0.02983190 0.07573892
v -0.01879092 0.04265985 0.07557868
v -0.03668013 0.02976707 -0.03314629
v -0.03627051 0.03030493 0.06690461
v -0.00526979 0.04694343 -0.03314629
v -0.00653853 0.04674546 -0.03314629
v -0.00853589 0.04654048 0.07292946
v -0.00778189 0.04665786 0.07292946
v -0.03662938 0.02983190 0.07292946
v -0.03664026 0.02983190 0.06616753
v -0.03606751 0.02983190 0.07546117
v -0.03629951 0.02983190 0.07535436
v -0.03649164 0.02983190 0.07494842
v -0.03657863 0.02983190 0.07439294
v -0.01128724 0.04584319 0.07443567
v -0.01279522 0.04543323 0.07443567
v -0.01369784 0.04516518 0.07443567
v -0.01580032 0.04445913 0.07443567
v -0.01800793 0.04357964 0.07489501
v -0.01700019 0.04379689 0.07537571
v -0.00978287 0.04628469 0.07292946
v -0.01128724 0.04590101 0.07292946
v -0.02329675 0.03985144 0.07578164
v -0.02169814 0.04137916 0.07552527
v -0.02631635 0.03839730 0.07560005
v -0.02931420 0.03534536 0.07586710
v -0.03226855 0.03380187 0.07552527
v -0.03327992 0.03327628 0.07535436
v -0.03475528 0.03179060 0.07535436
v -0.03528815 0.03074467 0.07549322
v -0.02029166 0.04233399 0.07540777
v -0.03627414 0.03027164 -0.02781580
v -0.03627414 0.03026989 -0.03314629
v -0.03626326 0.03030318 0.07292946
v -0.03565789 0.03105478 0.07292946
v -0.01128361 0.04580290 -0.03314629
v -0.03616539 0.03018755 0.07526890
v -0.03623426 0.03027164 0.07443567
v -0.01279522 0.04547878 0.07292946
v -0.01377396 0.04518795 0.07292946
v -0.01452796 0.04494793 0.07292946
v -0.01580032 0.04452921 0.07292946
v -0.01742431 0.04386346 0.07440362
v -0.02029166 0.04262306 0.07443567
v -0.02113627 0.04214477 0.07523684
v -0.01808405 0.04362169 0.07388019
v -0.01278797 0.04547703 -0.03314629
v -0.01278797 0.04547878 -0.01428126
v -0.01279160 0.04548053 0.01580024
v -0.01279160 0.04548053 0.01616344
v -0.02329675 0.04082729 0.07537571
v -0.02465612 0.03980764 0.07546117
v -0.02794034 0.03697995 0.07566414
v -0.02581973 0.03927679 0.07535436
v -0.02751984 0.03792252 0.07543980
v -0.02931420 0.03649816 0.07545049
v -0.03072069 0.03528404 0.07547186
v -0.03173568 0.03474093 0.07532230
v -0.03341404 0.03340242 0.07443567
v -0.03416441 0.03267885 0.07443567
v -0.03488215 0.03192726 0.07443567
v -0.03263467 0.03410496 -0.03314629
v -0.03490753 0.03195879 0.07292946
v -0.03420428 0.03271390 0.07292946
v -0.03563614 0.03102499 0.07443567
v -0.01329909 0.04532986 0.03763497
v -0.01377396 0.04518445 0.02180372
v -0.01403496 0.04510561 0.04533694
v -0.01452796 0.04494793 0.04135243
v -0.01580032 0.04452921 0.06089045
v -0.01730468 0.04396157 0.07292946
v -0.02123415 0.04219383 0.07443567
v -0.02029166 0.04267562 0.07292946
v -0.02198452 0.04182942 0.07443567
v -0.02406525 0.04061005 0.07519412
v -0.01810218 0.04363045 0.07292946
v -0.01884167 0.04331684 0.07292946
v -0.01375584 0.04518445 -0.03314629
v -0.01376309 0.04518620 0.00225502
v -0.02852033 0.03756511 0.07484160
v -0.03015157 0.03616879 0.07525821
v -0.03184805 0.03484079 0.07443567
v -0.03260205 0.03415227 0.07443567
v -0.03345029 0.03343396 0.07292946
v -0.03229030 0.03445360 -0.03314629
v -0.03188430 0.03486181 -0.03314629
v -0.01451346 0.04494618 -0.00074672
v -0.01482883 0.04484457 0.01616344
v -0.01730468 0.04396157 0.06239666
v -0.01569882 0.04455549 0.01417652
v -0.01579670 0.04452220 0.01128161
v -0.01663406 0.04421035 0.01812899
v -0.02128852 0.04221836 0.07292946
v -0.02203889 0.04186446 0.07292946
v -0.02029166 0.04267562 0.04736659
v -0.02329675 0.04111286 0.07443567
v -0.02410875 0.04063808 0.07443567
v -0.02486274 0.04014752 0.07443567
v -0.02599010 0.03939417 0.07443567
v -0.01810218 0.04363045 0.04533694
v -0.01884167 0.04331684 0.05187454
v -0.01450621 0.04494268 -0.03314629
v -0.01450983 0.04494268 -0.02781580
v -0.02674047 0.03886858 0.07443567
v -0.02794034 0.03802763 0.07437158
v -0.02858196 0.03761417 0.07383746
v -0.02917283 0.03708857 0.07437158
v -0.03022769 0.03623536 0.07443567
v -0.03098168 0.03559414 0.07443567
v -0.03188430 0.03486882 0.07292946
v -0.03188430 0.03487233 0.06992772
v -0.03188430 0.03487233 0.05939492
v -0.03188793 0.03486532 0.00526744
v -0.03176830 0.03497219 0.02010523
v -0.03102156 0.03561867 0.01128161
v -0.03101793 0.03561517 -0.02480338
v -0.03101793 0.03561341 -0.02932201
v -0.03101431 0.03561341 -0.03314629
v -0.01729743 0.04395632 0.00677366
v -0.01730468 0.04395456 0.01417652
v -0.01809130 0.04363045 -0.01878921
v -0.01810218 0.04362870 0.01417652
v -0.01579670 0.04452045 0.00225502
v -0.01579670 0.04451344 -0.03081754
v -0.01729743 0.04394931 -0.03314629
v -0.01729743 0.04395281 -0.01728300
v -0.01729743 0.04395456 -0.00526536
v -0.02029891 0.04267037 0.00677366
v -0.02029891 0.04266686 -0.01277505
v -0.02029891 0.04266336 -0.03081754
v -0.02329675 0.04117593 0.07292946
v -0.02029891 0.04266161 -0.03314629
v -0.02069765 0.04245487 -0.03314629
v -0.02116890 0.04220960 -0.03314629
v -0.02018653 0.04272117 0.01417652
v -0.02414500 0.04066611 0.07292946
v -0.02489899 0.04017205 0.07292946
v -0.02602636 0.03942045 0.07292946
v -0.02677672 0.03890537 0.07292946
v -0.01815293 0.04360767 0.01417652
v -0.01883805 0.04331509 -0.00526536
v -0.01579670 0.04451169 -0.03314629
v -0.02780984 0.03818005 0.07292946
v -0.02858921 0.03761942 0.07292946
v -0.02933958 0.03701674 0.07292946
v -0.03026394 0.03626690 0.07292946
v -0.03101793 0.03562217 0.07292946
v -0.03052856 0.03604615 0.03375728
v -0.03052856 0.03604615 0.03181309
v -0.03026394 0.03625639 -0.03314629
v -0.03066994 0.03590950 -0.03314629
v -0.03045969 0.03610396 0.02598052
v -0.03026757 0.03625989 -0.00826709
v -0.01808768 0.04362870 -0.03314629
v -0.01883442 0.04331334 -0.02932201
v -0.01883079 0.04331334 -0.03314629
v -0.02603361 0.03942220 -0.03314629
v -0.02603723 0.03942220 -0.00526536
v -0.02603723 0.03942220 0.01417652
v -0.02678035 0.03890537 0.05638250
v -0.02678760 0.03890362 0.01417652
v -0.02780984 0.03818005 0.05638250
v -0.02858921 0.03761942 0.06390287
v -0.02934320 0.03701324 0.01278782
v -0.02994495 0.03652969 0.03181309
v -0.03026394 0.03626690 0.02792471
v -0.02976370 0.03666284 -0.03314629
v -0.02933958 0.03701149 -0.01277505
v -0.02678760 0.03890187 -0.03314629
v -0.02678760 0.03890362 -0.01277505
v -0.02781709 0.03817305 0.01417652
v -0.02858558 0.03761942 0.02206010
v -0.02869071 0.03753708 0.02010523
v -0.02933595 0.03700798 -0.03314629
v -0.02933595 0.03700974 -0.03081754
v -0.02858921 0.03761417 -0.00074672
v -0.02858558 0.03761066 -0.03081754
v -0.02781709 0.03816429 -0.03314629
v -0.02853121 0.03765797 0.01417652
v -0.02858921 0.03761592 0.01417652
v -0.02858196 0.03761066 -0.03314629
f 1 2 3
f 1 3 8
f 1 8 4
f 1 4 15
f 1 15 5
f 1 5 6
f 1 6 2
f 2 6 7
f 2 7 3
f 3 7 9
f 3 9 10
f 3 10 11
f 3 11 12
f 3 12 13
f 3 13 14
f 3 14 24
f 3 24 8
f 4 8 16
f 4 16 15
f 5 15 16
f 5 16 17
f 5 17 6
f 6 17 18
f 6 18 19
f 6 19 7
f 7 20 9
f 7 19 21
f 7 21 22
f 7 22 23
f 7 23 20
f 8 24 25
f 8 25 26
f 8 26 27
f 8 27 28
f 8 28 29
f 8 29 16
f 9 30 10
f 9 20 43
f 9 43 30
f 10 30 31
f 10 31 11
f 11 31 12
f 12 31 32
f 12 32 33
f 12 33 34
f 12 34 13
f 13 34 35
f 13 35 36
f 13 36 14
f 14 36 37
f 14 37 24
f 16 38 65
f 16 65 93
f 16 93 123
f 16 123 152
f 16 152 175
f 16 175 176
f 16 176 208
f 16 208 241
f 16 241 240
f 16 240 257
f 16 257 264
f 16 264 271
f 16 271 268
f 16 268 259
f 16 259 247
f 16 247 224
f 16 224 223
f 16 223 222
f 16 222 246
f 16 246 244
f 16 244 215
f 16 215 232
f 16 232 192
f 16 192 168
f 16 168 137
f 16 137 126
f 16 126 96
f 16 96 95
f 16 95 72
f 16 72 71
f 16 71 70
f 16 70 66
f 16 66 40
f 16 40 17
f 16 29 39
f 16 39 38
f 17 40 41
f 17 41 18
f 18 41 21
f 18 21 19
f 20 42 43
f 20 23 42
f 21 41 44
f 21 44 22
f 22 44 45
f 22 45 46
f 22 46 47
f 22 47 42
f 22 42 23
f 24 37 48
f 24 48 25
f 25 48 49
f 25 49 26
f 26 49 50
f 26 50 51
f 26 51 52
f 26 52 27
f 27 52 28
f 28 52 29
f 29 52 53
f 29 53 38
f 29 38 39
f 30 43 54
f 30 54 55
f 30 55 56
f 30 56 31
f 31 56 57
f 31 57 32
f 32 57 58
f 32 58 59
f 32 59 33
f 33 59 34
f 34 59 35
f 35 59 60
f 35 60 36
f 36 60 37
f 37 61 62
f 37 62 63
f 37 63 48
f 37 60 64
f 37 64 61
f 38 53 76
f 38 76 75
f 38 75 65
f 40 66 41
f 41 66 44
f 42 67 43
f 42 47 68
f 42 68 69
f 42 69 67
f 43 67 54
f 44 66 45
f 45 66 70
f 45 70 71
f 45 71 72
f 45 72 73
f 45 73 46
f 46 73 47
f 47 73 68
f 48 63 74
f 48 74 75
f 48 75 76
f 48 76 53
f 48 53 49
f 49 53 50
f 50 53 51
f 51 53 52
f 54 77 78
f 54 78 55
f 54 67 77
f 55 78 79
f 55 79 56
f 56 80 57
f 56 79 80
f 57 81 82
f 57 82 58
f 57 80 79
f 57 79 83
f 57 83 84
f 57 84 81
f 58 85 60
f 58 60 59
f 58 82 85
f 60 85 64
f 61 86 62
f 61 64 87
f 61 87 86
f 62 86 88
f 62 88 89
f 62 89 63
f 63 89 90
f 63 90 91
f 63 91 74
f 64 85 92
f 64 92 87
f 65 75 94
f 65 94 93
f 67 69 77
f 68 73 77
f 68 77 69
f 72 95 73
f 73 95 96
f 73 96 97
f 73 97 98
f 73 98 77
f 74 91 75
f 75 99 100
f 75 100 94
f 75 91 101
f 75 101 102
f 75 102 103
f 75 103 104
f 75 104 99
f 77 98 78
f 78 98 79
f 79 98 97
f 79 97 83
f 81 84 105
f 81 105 106
f 81 106 107
f 81 107 108
f 81 108 109
f 81 109 110
f 81 110 82
f 82 110 85
f 83 97 84
f 84 97 111
f 84 111 112
f 84 112 105
f 85 110 92
f 86 87 88
f 87 113 88
f 87 92 114
f 87 114 113
f 88 113 115
f 88 115 116
f 88 116 89
f 89 116 117
f 89 117 90
f 90 117 118
f 90 118 119
f 90 119 120
f 90 120 91
f 91 120 101
f 92 110 121
f 92 121 114
f 93 94 122
f 93 122 123
f 94 100 124
f 94 124 125
f 94 125 122
f 96 126 97
f 97 126 111
f 99 104 124
f 99 124 100
f 101 120 102
f 102 120 119
f 102 119 127
f 102 127 103
f 103 127 128
f 103 128 104
f 104 128 124
f 105 112 106
f 106 112 129
f 106 129 107
f 107 129 130
f 107 130 131
f 107 131 132
f 107 132 108
f 108 132 133
f 108 133 109
f 109 134 135
f 109 135 110
f 109 133 136
f 109 136 134
f 110 135 121
f 111 126 137
f 111 137 112
f 112 137 138
f 112 138 139
f 112 139 140
f 112 140 129
f 113 114 141
f 113 141 142
f 113 142 115
f 114 121 141
f 115 143 116
f 115 142 144
f 115 144 145
f 115 145 143
f 116 143 146
f 116 146 147
f 116 147 117
f 117 147 148
f 117 148 118
f 118 148 149
f 118 149 150
f 118 150 119
f 119 150 151
f 119 151 127
f 121 135 141
f 122 125 123
f 123 125 153
f 123 153 154
f 123 154 152
f 124 128 155
f 124 155 125
f 125 155 153
f 127 151 155
f 127 155 128
f 129 156 130
f 129 140 156
f 130 156 157
f 130 157 158
f 130 158 131
f 131 158 159
f 131 159 160
f 131 160 132
f 132 160 179
f 132 179 161
f 132 161 133
f 133 161 136
f 134 162 135
f 134 136 163
f 134 163 162
f 135 162 164
f 135 164 165
f 135 165 141
f 136 161 166
f 136 166 167
f 136 167 163
f 137 168 169
f 137 169 156
f 137 156 139
f 137 139 138
f 139 156 140
f 141 144 142
f 141 165 144
f 143 145 146
f 144 165 170
f 144 170 171
f 144 171 145
f 145 171 146
f 146 171 148
f 146 148 147
f 148 171 172
f 148 172 173
f 148 173 149
f 149 173 174
f 149 174 154
f 149 154 150
f 150 154 151
f 151 154 153
f 151 153 155
f 152 154 175
f 154 174 176
f 154 176 175
f 156 169 157
f 157 169 158
f 158 169 168
f 158 168 159
f 159 168 177
f 159 177 178
f 159 178 160
f 160 178 180
f 160 180 181
f 160 181 182
f 160 182 179
f 161 179 190
f 161 190 166
f 162 163 183
f 162 183 184
f 162 184 164
f 163 167 191
f 163 191 185
f 163 185 183
f 164 186 165
f 164 184 186
f 165 186 187
f 165 187 188
f 165 188 189
f 165 189 170
f 166 190 191
f 166 191 167
f 168 192 193
f 168 193 177
f 170 189 194
f 170 194 195
f 170 195 196
f 170 196 197
f 170 197 198
f 170 198 171
f 171 198 199
f 171 199 172
f 172 199 237
f 172 237 200
f 172 200 173
f 173 200 174
f 174 200 201
f 174 201 202
f 174 202 203
f 174 203 176
f 176 203 204
f 176 204 205
f 176 205 206
f 176 206 207
f 176 207 208
f 177 193 178
f 178 193 180
f 179 182 209
f 179 209 210
f 179 210 211
f 179 211 212
f 179 212 190
f 180 193 213
f 180 213 181
f 181 213 182
f 182 213 214
f 182 214 215
f 182 215 216
f 182 216 217
f 182 217 209
f 183 185 218
f 183 218 219
f 183 219 220
f 183 220 184
f 184 221 186
f 184 220 222
f 184 222 223
f 184 223 224
f 184 224 221
f 185 191 225
f 185 225 218
f 186 221 187
f 187 221 226
f 187 226 188
f 188 226 227
f 188 227 228
f 188 228 189
f 189 228 229
f 189 229 196
f 189 196 194
f 190 212 230
f 190 230 191
f 191 230 231
f 191 231 225
f 192 232 214
f 192 214 193
f 193 214 213
f 194 196 195
f 196 229 233
f 196 233 234
f 196 234 235
f 196 235 236
f 196 236 198
f 196 198 197
f 198 236 199
f 199 236 237
f 200 237 201
f 201 237 238
f 201 238 239
f 201 239 202
f 202 239 204
f 202 204 203
f 204 239 205
f 205 239 206
f 206 240 241
f 206 241 207
f 206 239 242
f 206 242 243
f 206 243 240
f 207 241 208
f 209 217 210
f 210 217 216
f 210 216 211
f 211 216 215
f 211 215 244
f 211 244 245
f 211 245 231
f 211 231 230
f 211 230 212
f 214 232 215
f 218 225 245
f 218 245 219
f 219 245 220
f 220 245 246
f 220 246 222
f 221 224 247
f 221 247 226
f 225 231 245
f 226 247 248
f 226 248 227
f 227 248 249
f 227 249 228
f 228 249 229
f 229 249 250
f 229 250 233
f 233 250 251
f 233 251 260
f 233 260 252
f 233 252 253
f 233 253 234
f 234 253 235
f 235 253 254
f 235 254 255
f 235 255 236
f 236 255 256
f 236 256 242
f 236 242 238
f 236 238 237
f 238 242 239
f 240 243 257
f 242 256 243
f 243 258 257
f 243 256 255
f 243 255 258
f 244 246 245
f 247 259 248
f 248 259 260
f 248 260 251
f 248 251 249
f 249 251 250
f 252 260 261
f 252 261 253
f 253 262 263
f 253 263 254
f 253 261 262
f 254 258 255
f 254 263 258
f 257 258 265
f 257 265 264
f 258 263 266
f 258 266 267
f 258 267 265
f 259 268 261
f 259 261 260
f 261 268 266
f 261 266 269
f 261 269 262
f 262 269 270
f 262 270 263
f 263 270 266
f 264 265 267
f 264 267 271
f 266 270 269
f 266 268 267
f 267 268 271

