# https://github.com/mikedh/trimesh
v -0.02941772 -0.03696682 0.01417891
v -0.02941977 -0.03695958 -0.03034554
v -0.02623264 -0.02797957 -0.04635661
v -0.02983924 -0.03663396 0.07293010
v -0.03030189 -0.03626853 0.07293010
v -0.03028338 -0.03626853 -0.03034554
v -0.03804148 -0.02797957 -0.04635661
v -0.03836019 -0.00000838 -0.04635661
v -0.04334034 -0.00000838 0.07442703
v -0.02983924 -0.03144566 0.07442703
v -0.02983924 -0.03167722 0.07532518
v -0.02983924 -0.03236827 0.07557667
v -0.02983924 -0.03383358 0.07590000
v -0.02983924 -0.03532422 0.07574431
v -0.02983924 -0.03630471 0.07533715
v -0.02983924 -0.03657607 0.07439110
v -0.03027310 -0.03623959 0.07442703
v -0.03105446 -0.03566432 0.07293010
v -0.03410383 -0.03263600 -0.03034554
v -0.03195920 -0.03491176 0.07293010
v -0.03271177 -0.03420624 0.07293010
v -0.03815663 -0.02782037 -0.04635661
v -0.03462611 -0.03212224 -0.03034554
v -0.03486463 -0.03187621 -0.03034554
v -0.03510109 -0.03161210 -0.03034554
v -0.03561720 -0.03101512 -0.03034554
v -0.03625669 -0.03026256 -0.03034554
v -0.03649521 -0.02997312 -0.03034554
v -0.03700720 -0.02933634 -0.03034554
v -0.03742050 -0.02881896 -0.03034554
v -0.03760968 -0.02857655 -0.03034554
v -0.03778445 -0.02834499 -0.03034554
v -0.04722042 -0.00000838 -0.04635661
v -0.04312650 -0.00000476 0.03761472
v -0.04324164 -0.00000476 0.04533883
v -0.04348428 -0.00000838 0.07533715
v -0.04586537 -0.00075732 0.07590000
v -0.04436022 -0.00978075 0.07598382
v -0.03684682 -0.02631526 0.07594791
v -0.03083445 -0.03383358 0.07590000
v -0.04436022 -0.00000838 0.07574431
v -0.04586537 -0.00000838 0.07588803
v -0.03231081 -0.03380464 0.07554074
v -0.03074809 -0.03529166 0.07550481
v -0.03018674 -0.03617446 0.07526530
v -0.03102568 -0.03563537 0.07442703
v -0.03192835 -0.03488282 0.07442703
v -0.03268093 -0.03417368 0.07442703
v -0.03343145 -0.03345730 0.07293010
v -0.03889892 -0.02678199 -0.04635661
v -0.03816279 -0.02782037 -0.03034554
v -0.03486668 -0.03188345 0.00076649
v -0.03486874 -0.03188345 0.01128087
v -0.03561926 -0.03101873 0.00977197
v -0.03561926 -0.03101512 -0.02028622
v -0.03625874 -0.03026256 -0.02629786
v -0.03701132 -0.02933996 -0.01276569
v -0.03700926 -0.02933996 -0.01878930
v -0.03700926 -0.02933634 -0.02629786
v -0.03626491 -0.03026618 0.03180666
v -0.03665559 -0.02978859 0.03761472
v -0.03761379 -0.02859102 0.00076649
v -0.03762201 -0.02859102 0.03180666
v -0.04722248 -0.00075732 -0.04635661
v -0.04722248 -0.00000838 -0.03984201
v -0.04722864 -0.00000476 0.04209351
v -0.04722659 -0.00000476 0.03761472
v -0.04722864 -0.00000476 0.04533883
v -0.04687497 -0.00000838 0.07548086
v -0.04687703 -0.00075732 0.07548086
v -0.04586537 -0.00226243 0.07587605
v -0.04135404 -0.01878971 0.07595987
v -0.03985095 -0.02180355 0.07595987
v -0.04436022 -0.01128224 0.07592395
v -0.04285919 -0.01580119 0.07593593
v -0.03834991 -0.02480653 0.07591198
v -0.03384269 -0.03081974 0.07590000
v -0.03233754 -0.03232847 0.07590000
v -0.03380362 -0.03227420 0.07551679
v -0.03327723 -0.03328002 0.07533715
v -0.03179059 -0.03476342 0.07533715
v -0.03340266 -0.03342112 0.07442703
v -0.03418402 -0.03263962 0.07293010
v -0.03906753 -0.02653958 -0.04635661
v -0.03816691 -0.02782037 -0.01125679
v -0.03817719 -0.02781675 0.03232161
v -0.03890098 -0.02678561 -0.00826294
v -0.03487080 -0.03188345 0.06239177
v -0.03562131 -0.03101873 0.05488321
v -0.03626491 -0.03026979 0.07293010
v -0.03695374 -0.02941594 0.01417891
v -0.03761995 -0.02859825 0.07293010
v -0.04720808 -0.00124214 -0.04635661
v -0.04722453 -0.00075732 -0.03984201
v -0.04722659 -0.00052215 -0.03034554
v -0.04722453 -0.00000838 -0.03034554
v -0.04723687 -0.00000838 0.05788903
v -0.04723687 -0.00000838 0.07293010
v -0.04718546 -0.00000838 0.07442703
v -0.04718957 -0.00075732 0.07442703
v -0.04685647 -0.00226243 0.07545691
v -0.04586537 -0.00376392 0.07581617
v -0.04680095 -0.00376392 0.07542098
v -0.04135404 -0.02029844 0.07581617
v -0.03985095 -0.02330142 0.07578024
v -0.04586537 -0.00527265 0.07574431
v -0.04563302 -0.00978075 0.07557667
v -0.04545002 -0.01128224 0.07551679
v -0.04399627 -0.01580119 0.07552876
v -0.04265562 -0.01878971 0.07557667
v -0.03839309 -0.02631888 0.07560061
v -0.03534578 -0.02931825 0.07585210
v -0.03528410 -0.03072567 0.07548086
v -0.03474125 -0.03173873 0.07532518
v -0.03415523 -0.03260344 0.07442703
v -0.03484201 -0.03185088 0.07442703
v -0.03487080 -0.03188345 0.07293010
v -0.03925464 -0.02626823 -0.03034554
v -0.03941709 -0.02602943 -0.04635661
v -0.03817719 -0.02782037 0.06841539
v -0.03890509 -0.02678561 0.07142121
v -0.03562131 -0.03101873 0.07293010
v -0.03761173 -0.02858740 0.07384023
v -0.03559458 -0.03098617 0.07442703
v -0.03623407 -0.03023362 0.07442703
v -0.03817719 -0.02782037 0.07293010
v -0.04717518 -0.00225881 -0.04635661
v -0.04717724 -0.00225881 -0.04135091
v -0.04722659 -0.00075732 -0.03034554
v -0.04723276 -0.00075370 0.00226341
v -0.04723687 -0.00075732 0.02401069
v -0.04723892 -0.00075732 0.05939793
v -0.04723892 -0.00075732 0.07293010
v -0.04714434 -0.00226243 0.07442703
v -0.04673926 -0.00527265 0.07533715
v -0.04233691 -0.02029844 0.07540900
v -0.04137666 -0.02170586 0.07551679
v -0.04082354 -0.02330142 0.07537308
v -0.03980982 -0.02466181 0.07545691
v -0.04667347 -0.00648470 0.07526530
v -0.04660767 -0.00748690 0.07509765
v -0.04524851 -0.01279459 0.07533715
v -0.04379477 -0.01700239 0.07538505
v -0.03927932 -0.02582682 0.07536110
v -0.03792016 -0.02752369 0.07543296
v -0.03697636 -0.02794700 0.07566049
v -0.03649932 -0.02931825 0.07544493
v -0.03616827 -0.03015764 0.07526530
v -0.03941914 -0.02603305 0.05337431
v -0.04221970 -0.02118124 -0.04635661
v -0.04066315 -0.02415167 0.07293010
v -0.04117103 -0.02330142 0.07293010
v -0.03890509 -0.02678561 0.07293010
v -0.03802503 -0.02794700 0.07437912
v -0.03886602 -0.02674943 0.07442703
v -0.03939447 -0.02599687 0.07442703
v -0.03756444 -0.02852951 0.07484616
v -0.04714228 -0.00274725 -0.04635661
v -0.04707443 -0.00376392 -0.03984201
v -0.04707648 -0.00376392 -0.03034554
v -0.04718752 -0.00225881 0.01128087
v -0.04719163 -0.00226243 0.06539759
v -0.04719163 -0.00226243 0.07293010
v -0.04703536 -0.00376392 0.07442703
v -0.04708471 -0.00376392 0.07293010
v -0.04214774 -0.02114144 0.07524136
v -0.04060969 -0.02406845 0.07518147
v -0.04690376 -0.00527265 0.07442703
v -0.04671870 -0.00690440 0.07454678
v -0.04664468 -0.00772569 0.07410369
v -0.04653159 -0.00824669 0.07454678
v -0.04622521 -0.00978075 0.07442703
v -0.04512925 -0.01359418 0.07519345
v -0.04357886 -0.01800459 0.07488209
v -0.03941914 -0.02603305 0.06239177
v -0.04266796 -0.02030205 -0.04635661
v -0.04186193 -0.02204234 0.07293010
v -0.04016966 -0.02489698 0.07293010
v -0.04014499 -0.02486080 0.07442703
v -0.04063848 -0.02410825 0.07442703
v -0.04111141 -0.02330142 0.07442703
v -0.03941709 -0.02603305 0.07293010
v -0.04707237 -0.00376392 -0.04635661
v -0.04703125 -0.00425236 -0.04635661
v -0.04694489 -0.00527265 -0.03034554
v -0.04708060 -0.00376392 0.00827505
v -0.04708471 -0.00376392 0.06841539
v -0.04694900 -0.00527265 0.07293010
v -0.04262067 -0.02029844 0.07442703
v -0.04219297 -0.02123551 0.07442703
v -0.04182697 -0.02198807 0.07442703
v -0.04678244 -0.00677776 0.07293010
v -0.04665702 -0.00778358 0.07293010
v -0.04653570 -0.00853614 0.07293010
v -0.04584481 -0.01128224 0.07442703
v -0.04628073 -0.00978075 0.07293010
v -0.04542946 -0.01279459 0.07442703
v -0.04516421 -0.01369549 0.07442703
v -0.04445276 -0.01580119 0.07442703
v -0.04385851 -0.01742570 0.07439110
v -0.04362204 -0.01808419 0.07387616
v -0.04331155 -0.01885483 0.00977197
v -0.04331155 -0.01884760 -0.03233345
v -0.04310182 -0.01931794 -0.04635661
v -0.04221765 -0.02128978 0.07293010
v -0.04267002 -0.02029844 0.07293010
v -0.04694283 -0.00526542 -0.04635661
v -0.04694694 -0.00527265 0.00676615
v -0.04708060 -0.00377478 0.02009475
v -0.04694900 -0.00527265 0.05939793
v -0.04687908 -0.00567787 -0.04635661
v -0.04674338 -0.00653535 -0.04635661
v -0.04580369 -0.01128224 -0.04635661
v -0.04589827 -0.01128224 0.07293010
v -0.04547469 -0.01278735 -0.04635661
v -0.04547675 -0.01279459 0.07293010
v -0.04518888 -0.01377870 0.07293010
v -0.04494624 -0.01452764 0.07293010
v -0.04452267 -0.01580119 0.07293010
v -0.04395721 -0.01730269 0.07293010
v -0.04363027 -0.01810228 0.07293010
v -0.04331155 -0.01884036 0.07293010
v -0.04331155 -0.01885483 0.01417891
v -0.04363438 -0.01811675 0.00676615
v -0.04363232 -0.01809866 -0.04435673
v -0.04341437 -0.01860157 -0.04635661
v -0.04330950 -0.01884398 -0.04635661
v -0.04331361 -0.01884036 0.06539759
v -0.04547675 -0.01278735 -0.03984201
v -0.04548292 -0.01279459 0.04533883
v -0.04548292 -0.01279459 0.06841539
v -0.04518477 -0.01376423 -0.04635661
v -0.04503466 -0.01427437 0.04533883
v -0.04494830 -0.01453487 0.05639211
v -0.04494624 -0.01453126 0.07142121
v -0.04518888 -0.01378594 0.02205871
v -0.04395926 -0.01730269 0.06539759
v -0.04453089 -0.01580481 0.02205871
v -0.04396543 -0.01731354 0.01614287
v -0.04381738 -0.01767535 0.01811881
v -0.04363232 -0.01810589 0.05488321
v -0.04363438 -0.01811675 0.01417891
v -0.04396749 -0.01730630 -0.03034554
v -0.04396954 -0.01729545 -0.04635661
v -0.04363232 -0.01809504 -0.04635661
v -0.04518682 -0.01377508 -0.02329204
v -0.04518888 -0.01377870 0.00076649
v -0.04518888 -0.01378594 0.02009475
v -0.04495447 -0.01451317 -0.04635661
v -0.04495653 -0.01452764 -0.01878930
v -0.04495653 -0.01452764 -0.00975987
v -0.04495447 -0.01453126 0.01128087
v -0.04495241 -0.01453487 0.02401069
v -0.04453912 -0.01579758 -0.01426261
v -0.04453912 -0.01579758 -0.03034554
v -0.04453912 -0.01579034 -0.04635661
f 1 2 3
f 1 3 4
f 1 4 5
f 1 5 2
f 2 6 7
f 2 7 3
f 2 5 6
f 3 7 22
f 3 22 50
f 3 50 84
f 3 84 119
f 3 119 150
f 3 150 176
f 3 176 204
f 3 204 227
f 3 227 226
f 3 226 245
f 3 245 244
f 3 244 256
f 3 256 249
f 3 249 232
f 3 232 215
f 3 215 213
f 3 213 212
f 3 212 211
f 3 211 207
f 3 207 184
f 3 184 183
f 3 183 158
f 3 158 127
f 3 127 93
f 3 93 64
f 3 64 33
f 3 33 8
f 3 8 9
f 3 9 10
f 3 10 11
f 3 11 12
f 3 12 13
f 3 13 14
f 3 14 15
f 3 15 16
f 3 16 4
f 4 16 17
f 4 17 5
f 5 17 46
f 5 46 18
f 5 18 6
f 6 19 7
f 6 18 20
f 6 20 21
f 6 21 19
f 7 19 23
f 7 23 24
f 7 24 25
f 7 25 26
f 7 26 27
f 7 27 28
f 7 28 29
f 7 29 30
f 7 30 31
f 7 31 32
f 7 32 22
f 8 33 67
f 8 67 34
f 8 34 35
f 8 35 9
f 9 35 36
f 9 36 11
f 9 11 10
f 11 36 12
f 12 36 13
f 13 37 38
f 13 38 39
f 13 39 40
f 13 40 14
f 13 36 41
f 13 41 42
f 13 42 37
f 14 40 43
f 14 43 44
f 14 44 15
f 15 44 45
f 15 45 16
f 16 45 17
f 17 45 46
f 18 46 20
f 19 21 23
f 20 46 47
f 20 47 21
f 21 47 48
f 21 48 49
f 21 49 24
f 21 24 23
f 22 32 51
f 22 51 50
f 24 49 52
f 24 52 25
f 25 52 53
f 25 53 54
f 25 54 55
f 25 55 26
f 26 55 56
f 26 56 27
f 27 56 28
f 28 57 58
f 28 58 59
f 28 59 29
f 28 56 60
f 28 60 61
f 28 61 57
f 29 59 30
f 30 59 58
f 30 58 62
f 30 62 31
f 31 62 32
f 32 62 63
f 32 63 51
f 33 64 94
f 33 94 65
f 33 65 66
f 33 66 67
f 34 67 66
f 34 66 68
f 34 68 35
f 35 68 42
f 35 42 41
f 35 41 36
f 37 42 69
f 37 69 70
f 37 70 71
f 37 71 38
f 38 72 73
f 38 73 39
f 38 71 102
f 38 102 74
f 38 74 75
f 38 75 72
f 39 73 76
f 39 76 77
f 39 77 78
f 39 78 40
f 40 78 43
f 42 68 69
f 43 79 80
f 43 80 81
f 43 81 44
f 43 78 77
f 43 77 79
f 44 81 45
f 45 81 47
f 45 47 46
f 47 81 48
f 48 81 80
f 48 80 82
f 48 82 49
f 49 82 115
f 49 115 83
f 49 83 53
f 49 53 52
f 50 51 85
f 50 85 86
f 50 86 87
f 50 87 84
f 51 63 85
f 53 83 88
f 53 88 89
f 53 89 54
f 54 89 90
f 54 90 60
f 54 60 55
f 55 60 56
f 57 91 63
f 57 63 62
f 57 62 58
f 57 61 91
f 60 90 61
f 61 90 92
f 61 92 63
f 61 63 91
f 63 92 86
f 63 86 85
f 64 93 94
f 65 94 95
f 65 95 96
f 65 96 66
f 66 96 97
f 66 97 98
f 66 98 68
f 68 98 99
f 68 99 69
f 69 99 100
f 69 100 70
f 70 100 101
f 70 101 71
f 71 101 103
f 71 103 102
f 72 75 104
f 72 104 73
f 73 104 105
f 73 105 76
f 74 102 106
f 74 106 107
f 74 107 108
f 74 108 109
f 74 109 75
f 75 109 110
f 75 110 104
f 76 105 111
f 76 111 112
f 76 112 77
f 77 112 79
f 79 112 113
f 79 113 114
f 79 114 80
f 80 114 82
f 82 114 115
f 83 115 116
f 83 116 117
f 83 117 88
f 84 118 119
f 84 87 118
f 86 92 120
f 86 120 87
f 87 120 121
f 87 121 118
f 88 117 122
f 88 122 89
f 89 122 90
f 90 123 92
f 90 122 124
f 90 124 125
f 90 125 123
f 92 123 126
f 92 126 120
f 93 127 128
f 93 128 129
f 93 129 94
f 94 129 95
f 95 129 130
f 95 130 131
f 95 131 96
f 96 131 97
f 97 132 133
f 97 133 98
f 97 131 132
f 98 133 100
f 98 100 99
f 100 133 134
f 100 134 101
f 101 134 103
f 102 103 106
f 103 107 106
f 103 134 135
f 103 135 107
f 104 110 136
f 104 136 137
f 104 137 105
f 105 137 138
f 105 138 139
f 105 139 111
f 107 135 140
f 107 140 108
f 108 140 141
f 108 141 142
f 108 142 109
f 109 142 143
f 109 143 110
f 110 143 136
f 111 139 144
f 111 144 145
f 111 145 146
f 111 146 112
f 112 146 113
f 113 146 147
f 113 147 148
f 113 148 114
f 114 148 116
f 114 116 115
f 116 148 124
f 116 124 117
f 117 124 122
f 118 121 149
f 118 149 119
f 119 149 151
f 119 151 152
f 119 152 150
f 120 126 153
f 120 153 121
f 121 153 175
f 121 175 149
f 123 154 155
f 123 155 156
f 123 156 153
f 123 153 126
f 123 125 157
f 123 157 154
f 124 148 125
f 125 148 157
f 127 158 128
f 128 158 159
f 128 159 160
f 128 160 161
f 128 161 129
f 129 161 131
f 129 131 130
f 131 161 162
f 131 162 132
f 132 162 163
f 132 163 133
f 133 163 134
f 134 164 140
f 134 140 135
f 134 163 165
f 134 165 164
f 136 143 166
f 136 166 138
f 136 138 137
f 138 166 167
f 138 167 144
f 138 144 139
f 140 164 168
f 140 168 141
f 141 169 170
f 141 170 171
f 141 171 172
f 141 172 173
f 141 173 142
f 141 168 169
f 142 173 143
f 143 173 174
f 143 174 166
f 144 167 157
f 144 157 148
f 144 148 145
f 145 147 146
f 145 148 147
f 149 175 151
f 150 152 177
f 150 177 176
f 151 175 178
f 151 178 156
f 151 156 179
f 151 179 180
f 151 180 152
f 152 180 181
f 152 181 177
f 153 182 175
f 153 156 182
f 154 157 155
f 155 157 156
f 156 178 182
f 156 157 167
f 156 167 179
f 158 183 159
f 159 183 184
f 159 184 160
f 160 185 186
f 160 186 161
f 160 184 185
f 161 186 162
f 162 187 165
f 162 165 163
f 162 186 187
f 164 165 168
f 165 187 210
f 165 210 188
f 165 188 168
f 166 174 189
f 166 189 190
f 166 190 191
f 166 191 167
f 167 191 181
f 167 181 180
f 167 180 179
f 168 188 170
f 168 170 169
f 170 188 192
f 170 192 193
f 170 193 194
f 170 194 171
f 171 194 172
f 172 195 173
f 172 194 196
f 172 196 195
f 173 195 197
f 173 197 198
f 173 198 199
f 173 199 174
f 174 199 200
f 174 200 201
f 174 201 189
f 175 182 178
f 176 202 203
f 176 203 204
f 176 177 205
f 176 205 206
f 176 206 202
f 177 181 191
f 177 191 190
f 177 190 205
f 184 207 185
f 185 208 187
f 185 187 209
f 185 209 186
f 185 207 192
f 185 192 208
f 186 209 187
f 187 208 210
f 188 210 192
f 189 201 206
f 189 206 205
f 189 205 190
f 192 210 208
f 192 207 193
f 193 207 211
f 193 211 212
f 193 212 194
f 194 212 213
f 194 213 196
f 195 196 214
f 195 214 197
f 196 213 215
f 196 215 214
f 197 214 216
f 197 216 217
f 197 217 198
f 198 217 218
f 198 218 219
f 198 219 199
f 199 219 200
f 200 219 220
f 200 220 201
f 201 220 221
f 201 221 222
f 201 222 206
f 202 223 242
f 202 242 224
f 202 224 203
f 202 206 223
f 203 225 226
f 203 226 227
f 203 227 204
f 203 224 225
f 206 222 228
f 206 228 223
f 214 215 229
f 214 229 230
f 214 230 231
f 214 231 216
f 215 232 229
f 216 231 217
f 217 233 234
f 217 234 235
f 217 235 218
f 217 231 236
f 217 236 233
f 218 235 219
f 219 237 220
f 219 235 234
f 219 234 238
f 219 238 239
f 219 239 237
f 220 237 221
f 221 237 240
f 221 240 241
f 221 241 228
f 221 228 222
f 223 228 242
f 224 242 240
f 224 240 243
f 224 243 244
f 224 244 225
f 225 244 245
f 225 245 226
f 228 241 242
f 229 232 246
f 229 246 247
f 229 247 248
f 229 248 230
f 230 248 236
f 230 236 231
f 232 249 250
f 232 250 246
f 233 236 251
f 233 251 252
f 233 252 253
f 233 253 234
f 234 253 254
f 234 254 238
f 236 248 250
f 236 250 251
f 237 239 240
f 238 254 239
f 239 254 255
f 239 255 243
f 239 243 240
f 240 242 241
f 243 255 244
f 244 255 256
f 246 250 247
f 247 250 248
f 249 256 250
f 250 255 254
f 250 254 251
f 250 256 255
f 251 254 252
f 252 254 253

