# https://github.com/mikedh/trimesh
v -0.00000499 0.04722783 -0.03035610
v -0.00000499 0.04722594 -0.04286037
v -0.00000499 0.04051345 -0.03035610
v 0.00075496 0.04722406 -0.03035610
v 0.00075496 0.04722406 -0.03835081
v -0.00000499 0.04722406 -0.04635649
v 0.00075496 0.04722218 -0.04635649
v 0.00025950 0.04722406 -0.04635649
v -0.00000499 0.03836327 -0.04635649
v 0.02929018 0.02797793 -0.03035610
v 0.00178312 0.04720522 -0.03035610
v 0.00225622 0.04719579 -0.03835081
v 0.00225622 0.04719391 -0.04635649
v 0.02623922 0.02797793 -0.04635649
v 0.03805191 0.02797793 -0.03035610
v 0.00225622 0.04719579 -0.03035610
v 0.00755349 0.04662480 -0.03083071
v 0.00754604 0.04662480 -0.04635649
v 0.03804818 0.02797793 -0.04635649
v 0.03760860 0.02859039 -0.03035610
v 0.00755349 0.04662480 -0.03035610
v 0.00778818 0.04658711 -0.03035610
v 0.00830226 0.04650231 -0.03684710
v 0.00805267 0.04654188 -0.04635649
v 0.03760488 0.02858662 -0.04635649
v 0.03719883 0.02909543 -0.04635649
v 0.03700512 0.02934041 -0.03985295
v 0.03700512 0.02934229 -0.03083071
v 0.03700512 0.02934229 -0.03035610
v 0.00830226 0.04650231 -0.03035610
v 0.00829854 0.04650231 -0.04135666
v 0.00931180 0.04630444 -0.03035610
v 0.00977745 0.04621210 -0.04135666
v 0.00829854 0.04650042 -0.04586935
v 0.00829481 0.04650042 -0.04635649
v 0.03675926 0.02964004 -0.04635649
v 0.03625262 0.03026945 -0.03835081
v 0.03649104 0.02997736 -0.03035610
v 0.03625262 0.03026757 -0.04436407
v 0.00877909 0.04640620 -0.04635649
v 0.00977745 0.04621210 -0.03035610
v 0.00977745 0.04621021 -0.04635649
v 0.01128244 0.04585970 -0.03835081
v 0.01128244 0.04585782 -0.04635649
v 0.03624890 0.03026757 -0.04635649
v 0.03625262 0.03026945 -0.03035610
v 0.03561189 0.03101947 -0.04635649
v 0.03561189 0.03102136 -0.03835081
v 0.03605146 0.03050690 -0.03035610
v 0.01128244 0.04585970 -0.03035610
v 0.01231061 0.04559399 -0.03035610
v 0.01278371 0.04547150 -0.03083071
v 0.01278371 0.04546962 -0.04286037
v 0.01177045 0.04573156 -0.04635649
v 0.03485939 0.03188445 -0.04635649
v 0.03509780 0.03161308 -0.03035610
v 0.03561189 0.03102136 -0.03035610
v 0.01278371 0.04547150 -0.03035610
v 0.01345425 0.04527929 -0.03035610
v 0.01375599 0.04518883 -0.04635649
v 0.01310035 0.04537728 -0.04635649
v 0.01278371 0.04546773 -0.04635649
v 0.03408827 0.03263635 -0.04635649
v 0.03409199 0.03263635 -0.04135666
v 0.03461725 0.03212189 -0.03035610
v 0.03485939 0.03188445 -0.03035610
v 0.01375972 0.04519071 -0.03035610
v 0.01375972 0.04519071 -0.03233441
v 0.01375972 0.04518883 -0.04135666
v 0.01451221 0.04494385 -0.03684710
v 0.01426262 0.04502300 -0.04635649
v 0.03027736 0.03627527 -0.04635649
v 0.03409199 0.03263635 -0.03035610
v 0.01451221 0.04494385 -0.03035610
v 0.01450849 0.04494196 -0.04635649
v 0.01579369 0.04451607 -0.03233441
v 0.01579369 0.04451419 -0.04635649
v 0.02933488 0.03702718 -0.04635649
v 0.03027736 0.03627527 -0.04586935
v 0.03027364 0.03627339 -0.03035610
v 0.01579369 0.04451607 -0.03035610
v 0.01729868 0.04398277 -0.03985295
v 0.01729868 0.04398088 -0.04635649
v 0.02858239 0.03760382 -0.04635649
v 0.02858239 0.03760571 -0.03083071
v 0.02882080 0.03742291 -0.03035610
v 0.02933488 0.03702718 -0.04436407
v 0.02933488 0.03702529 -0.03035610
v 0.02997935 0.03651083 -0.03035610
v 0.01729868 0.04398277 -0.03035610
v 0.01785374 0.04376040 -0.03035610
v 0.01810706 0.04365864 -0.04635649
v 0.01755945 0.04387724 -0.04635649
v 0.02834397 0.03778097 -0.03035610
v 0.02806831 0.03797883 -0.04635649
v 0.02782244 0.03815974 -0.04436407
v 0.02782244 0.03816163 -0.03383969
v 0.02858239 0.03760571 -0.03035610
v 0.01810706 0.04365864 -0.03035610
v 0.02330747 0.04108822 -0.04635649
v 0.02782244 0.03816163 -0.03035610
v 0.02782244 0.03815786 -0.04635649
v 0.02678310 0.03890411 -0.04635649
v 0.02678683 0.03890600 -0.03083071
v 0.02330747 0.04108822 -0.03035610
v 0.02384763 0.04077351 -0.03035610
v 0.02409722 0.04062652 -0.04635649
v 0.02678683 0.03890600 -0.03035610
v 0.02603061 0.03940727 -0.04635649
v 0.02603433 0.03940915 -0.03083071
v 0.02409722 0.04062652 -0.03035610
v 0.02433563 0.04047953 -0.03035610
v 0.02484971 0.04016105 -0.03083071
v 0.02484971 0.04015917 -0.04635649
v 0.02603433 0.03940915 -0.03035610
v 0.02484971 0.04016105 -0.03035610
f 1 2 6
f 1 6 9
f 1 9 3
f 1 3 10
f 1 10 15
f 1 15 20
f 1 20 29
f 1 29 38
f 1 38 46
f 1 46 49
f 1 49 57
f 1 57 56
f 1 56 66
f 1 66 65
f 1 65 73
f 1 73 80
f 1 80 89
f 1 89 88
f 1 88 86
f 1 86 98
f 1 98 94
f 1 94 101
f 1 101 108
f 1 108 115
f 1 115 116
f 1 116 112
f 1 112 111
f 1 111 106
f 1 106 105
f 1 105 99
f 1 99 91
f 1 91 90
f 1 90 81
f 1 81 74
f 1 74 67
f 1 67 59
f 1 59 58
f 1 58 51
f 1 51 50
f 1 50 41
f 1 41 32
f 1 32 30
f 1 30 22
f 1 22 21
f 1 21 16
f 1 16 11
f 1 11 4
f 1 4 5
f 1 5 2
f 2 5 7
f 2 7 8
f 2 8 6
f 3 9 10
f 4 11 5
f 5 11 12
f 5 12 13
f 5 13 7
f 6 8 7
f 6 7 13
f 6 13 18
f 6 18 24
f 6 24 35
f 6 35 40
f 6 40 42
f 6 42 44
f 6 44 54
f 6 54 62
f 6 62 61
f 6 61 60
f 6 60 71
f 6 71 75
f 6 75 77
f 6 77 83
f 6 83 93
f 6 93 92
f 6 92 100
f 6 100 107
f 6 107 114
f 6 114 109
f 6 109 103
f 6 103 102
f 6 102 95
f 6 95 84
f 6 84 78
f 6 78 72
f 6 72 63
f 6 63 55
f 6 55 47
f 6 47 45
f 6 45 36
f 6 36 26
f 6 26 25
f 6 25 19
f 6 19 14
f 6 14 9
f 9 14 10
f 10 14 19
f 10 19 15
f 11 16 12
f 12 16 21
f 12 21 17
f 12 17 18
f 12 18 13
f 15 19 20
f 17 21 22
f 17 22 18
f 18 22 23
f 18 23 24
f 19 25 20
f 20 25 26
f 20 26 27
f 20 27 28
f 20 28 29
f 22 30 23
f 23 31 24
f 23 30 32
f 23 32 33
f 23 33 31
f 24 31 34
f 24 34 35
f 26 36 27
f 27 37 38
f 27 38 28
f 27 36 39
f 27 39 37
f 28 38 29
f 31 33 40
f 31 40 34
f 32 41 33
f 33 42 40
f 33 41 50
f 33 50 43
f 33 43 44
f 33 44 42
f 34 40 35
f 36 45 39
f 37 46 38
f 37 39 47
f 37 47 48
f 37 48 49
f 37 49 46
f 39 45 47
f 43 50 51
f 43 51 52
f 43 52 53
f 43 53 54
f 43 54 44
f 47 55 48
f 48 55 56
f 48 56 57
f 48 57 49
f 51 58 52
f 52 58 59
f 52 59 53
f 53 59 60
f 53 60 61
f 53 61 62
f 53 62 54
f 55 63 64
f 55 64 65
f 55 65 66
f 55 66 56
f 59 67 68
f 59 68 69
f 59 69 60
f 60 69 70
f 60 70 71
f 63 72 64
f 64 73 65
f 64 72 79
f 64 79 73
f 67 74 70
f 67 70 68
f 68 70 69
f 70 75 71
f 70 74 81
f 70 81 76
f 70 76 77
f 70 77 75
f 72 78 87
f 72 87 79
f 73 79 80
f 76 81 90
f 76 90 82
f 76 82 77
f 77 82 83
f 78 84 85
f 78 85 86
f 78 86 87
f 79 87 88
f 79 88 89
f 79 89 80
f 82 90 91
f 82 91 92
f 82 92 93
f 82 93 83
f 84 94 85
f 84 95 96
f 84 96 97
f 84 97 94
f 85 94 98
f 85 98 86
f 86 88 87
f 91 99 92
f 92 99 105
f 92 105 100
f 94 97 101
f 95 102 96
f 96 102 103
f 96 103 104
f 96 104 97
f 97 104 108
f 97 108 101
f 100 105 106
f 100 106 107
f 103 109 110
f 103 110 104
f 104 110 115
f 104 115 108
f 106 111 107
f 107 111 112
f 107 112 113
f 107 113 114
f 109 114 110
f 110 114 113
f 110 113 116
f 110 116 115
f 112 116 113

