# https://github.com/mikedh/trimesh
v 0.04325040 -0.00000721 0.04532941
v 0.04723462 -0.00000721 0.04532941
v 0.04332236 -0.00000721 0.07292978
v 0.03836161 -0.00000359 -0.04635648
v 0.04723668 -0.00000721 0.05488477
v 0.04722434 -0.00000359 -0.04635648
v 0.04722640 -0.00000359 -0.03834580
v 0.04334497 -0.00000721 0.07443852
v 0.02624037 0.02797183 -0.04635648
v 0.04723874 -0.00000721 0.07292978
v 0.04722640 0.00075592 -0.04635648
v 0.04722845 0.00075592 -0.04286004
v 0.04723051 0.00075592 -0.03034708
v 0.04724079 0.00075592 0.04532941
v 0.04341281 -0.00000721 0.07486959
v 0.02984015 0.03168260 0.07532461
v 0.02984015 0.03144751 0.07443852
v 0.02944543 0.03693771 0.01417273
v 0.02944543 0.03694133 -0.02946099
v 0.02944543 0.03693771 -0.03033510
v 0.03804707 0.02797183 -0.04635648
v 0.02984015 0.03236978 0.07557606
v 0.02984015 0.03383456 0.07588739
v 0.02984015 0.03532103 0.07573173
v 0.02984015 0.03630840 0.07534855
v 0.02984015 0.03657965 0.07440260
v 0.02984015 0.03663390 0.07292978
v 0.04724285 0.00075592 0.07292978
v 0.04718734 -0.00000721 0.07443852
v 0.04721201 0.00124418 -0.04635648
v 0.04718117 0.00226048 -0.04635648
v 0.04718323 0.00226048 -0.03534029
v 0.04719556 0.00225687 0.06390129
v 0.04348682 -0.00000721 0.07532461
v 0.03028421 0.03627223 -0.03033510
v 0.03030271 0.03626861 0.07292978
v 0.03890230 0.02678554 -0.04435681
v 0.03890024 0.02678554 -0.04635648
v 0.03410191 0.03263380 -0.03033510
v 0.03462820 0.03212022 -0.03033510
v 0.03486873 0.03188152 -0.03033510
v 0.03562117 0.03101712 -0.03033510
v 0.03626260 0.03026484 -0.03033510
v 0.03649902 0.02997550 -0.03033510
v 0.03701092 0.02933896 -0.03033510
v 0.03761328 0.02858306 -0.03033510
v 0.03816836 0.02781993 -0.03033510
v 0.04436261 -0.00000721 0.07574370
v 0.04510683 -0.00000721 0.07581554
v 0.04586749 -0.00000721 0.07588739
v 0.04436261 0.00977967 0.07597121
v 0.03083312 0.03383456 0.07591134
v 0.03230716 0.03380562 0.07555212
v 0.03074677 0.03529571 0.07550422
v 0.03018758 0.03617458 0.07527671
v 0.03027393 0.03624330 0.07443852
v 0.04719556 0.00225687 0.07292978
v 0.04714622 0.00225687 0.07443852
v 0.04719145 0.00075592 0.07443852
v 0.04688102 0.00075592 0.07549224
v 0.04687896 -0.00000721 0.07548027
v 0.04707427 0.00376504 -0.04635648
v 0.04707632 0.00376504 -0.03834580
v 0.04708866 0.00376504 0.05789027
v 0.03105515 0.03566824 0.07292978
v 0.03195972 0.03491234 0.07292978
v 0.03271216 0.03421069 0.07292978
v 0.03907088 0.02654322 -0.04635648
v 0.03818070 0.02781993 0.01613649
v 0.03890641 0.02679278 0.04736502
v 0.03343376 0.03345841 0.07292978
v 0.03487079 0.03188514 -0.01576259
v 0.03562734 0.03102435 0.01613649
v 0.03626671 0.03026484 0.00677272
v 0.03701915 0.02934619 0.03178667
v 0.03701709 0.02934619 0.01278373
v 0.03701503 0.02934257 -0.01576259
v 0.03701298 0.02933896 -0.02779659
v 0.03761534 0.02859029 -0.01878007
v 0.03761945 0.02859391 0.00526398
v 0.04586749 0.00225687 0.07588739
v 0.03985004 0.02180169 0.07595924
v 0.03684646 0.02631537 0.07594726
v 0.04436261 0.01128423 0.07593528
v 0.04285773 0.01579429 0.07593528
v 0.04135697 0.01879257 0.07595924
v 0.03384081 0.03082905 0.07588739
v 0.03380381 0.03227574 0.07552817
v 0.03327751 0.03328481 0.07534855
v 0.03178908 0.03476767 0.07534855
v 0.03534569 0.02932087 0.07586345
v 0.03192683 0.03488702 0.07443852
v 0.03102431 0.03563930 0.07443852
v 0.04708866 0.00376504 0.07292978
v 0.04703932 0.00376504 0.07443852
v 0.04667543 0.00648844 0.07525276
v 0.04674122 0.00526599 0.07533657
v 0.04680701 0.00376504 0.07540843
v 0.04685635 0.00225687 0.07546829
v 0.04694269 0.00526960 -0.04635648
v 0.04694475 0.00526960 -0.03534029
v 0.04695503 0.00526599 0.06089578
v 0.03268132 0.03417453 0.07443852
v 0.03942242 0.02603326 -0.04635648
v 0.03761945 0.02860114 0.06240452
v 0.03818070 0.02781993 0.07292978
v 0.03890641 0.02679278 0.07142104
v 0.03942448 0.02604050 0.04532941
v 0.03340292 0.03342225 0.07443852
v 0.03415536 0.03261210 0.07443852
v 0.03486873 0.03188875 0.07292978
v 0.03487696 0.03188514 0.02007598
v 0.03487696 0.03188514 0.01613649
v 0.03562323 0.03102435 0.07292978
v 0.03626465 0.03027207 0.07292978
v 0.03626465 0.03027207 0.06541003
v 0.03701709 0.02934981 0.06390129
v 0.04586749 0.00376504 0.07582752
v 0.04135697 0.02029713 0.07581554
v 0.03985004 0.02330625 0.07579160
v 0.03834927 0.02480719 0.07592331
v 0.04586749 0.00526599 0.07575568
v 0.04563312 0.00977967 0.07558803
v 0.04545427 0.01128423 0.07551620
v 0.04399873 0.01579429 0.07554014
v 0.03528196 0.03072778 0.07548027
v 0.03474127 0.03174770 0.07532461
v 0.03839245 0.02632260 0.07561199
v 0.03650107 0.02932087 0.07544435
v 0.04695092 0.00526599 0.07292978
v 0.04690980 0.00526599 0.07443852
v 0.04695503 0.00526599 0.06390129
v 0.04661376 0.00748666 0.07512105
v 0.04687896 0.00568553 -0.04635648
v 0.04665899 0.00778323 0.07292978
v 0.04678439 0.00677055 0.07292978
v 0.04222043 0.02117961 -0.04635648
v 0.04066621 0.02415618 0.07292978
v 0.04117606 0.02330625 0.07292978
v 0.03761945 0.02860114 0.07292978
v 0.03761328 0.02859029 0.07386376
v 0.03890641 0.02678554 0.07292978
v 0.03942448 0.02604050 0.06541003
v 0.03942242 0.02604050 0.07292978
v 0.03484407 0.03185258 0.07443852
v 0.03559445 0.03098819 0.07443852
v 0.03701709 0.02934981 0.07292978
v 0.03623587 0.03023591 0.07443852
v 0.04266037 0.01879257 0.07556409
v 0.04233967 0.02029713 0.07540843
v 0.04137959 0.02170765 0.07552817
v 0.04082656 0.02330625 0.07537250
v 0.03981098 0.02466975 0.07546829
v 0.04525279 0.01278879 0.07533657
v 0.04379520 0.01700228 0.07538448
v 0.03617008 0.03015995 0.07525276
v 0.03928057 0.02582711 0.07536053
v 0.03792166 0.02752697 0.07543237
v 0.04664665 0.00772537 0.07411522
v 0.04671861 0.00690437 0.07453431
v 0.04513150 0.01359170 0.07520487
v 0.04653358 0.00824617 0.07453431
v 0.04622932 0.00977967 0.07443852
v 0.04674533 0.00654631 -0.04635648
v 0.04653975 0.00853551 0.07292978
v 0.04267271 0.02030074 -0.04635648
v 0.04186476 0.02204763 0.07292978
v 0.04017281 0.02490484 0.07292978
v 0.04064154 0.02411640 0.07443852
v 0.04111644 0.02330625 0.07443852
v 0.03756394 0.02853242 0.07485762
v 0.03886940 0.02674938 0.07443852
v 0.03939570 0.02600071 0.07443852
v 0.04014814 0.02486506 0.07443852
v 0.04214847 0.02113983 0.07524078
v 0.04061070 0.02406938 0.07519289
v 0.04358139 0.01800412 0.07489354
v 0.04584693 0.01128423 0.07443852
v 0.04543576 0.01278879 0.07443852
v 0.04516439 0.01370021 0.07443852
v 0.04445718 0.01579429 0.07443852
v 0.04628483 0.00977967 0.07292978
v 0.04580376 0.01128423 -0.04635648
v 0.04331208 0.01883597 -0.03082604
v 0.04331208 0.01883235 -0.04635648
v 0.04221631 0.02129173 0.07292978
v 0.04267476 0.02029713 0.07292978
v 0.04331619 0.01883958 0.05337603
v 0.04182776 0.02198976 0.07443852
v 0.04219576 0.02124471 0.07443852
v 0.04262337 0.02029713 0.07443852
v 0.04386099 0.01741821 0.07440260
v 0.04362457 0.01808369 0.07389968
v 0.04590244 0.01128423 0.07292978
v 0.04548099 0.01278879 0.07292978
v 0.04518906 0.01377254 0.07292978
v 0.04495058 0.01452482 0.07292978
v 0.04453119 0.01579429 0.07292978
v 0.04547688 0.01278517 -0.04635648
v 0.04362662 0.01811624 0.01417273
v 0.04362662 0.01810900 -0.02628785
v 0.04362662 0.01808369 -0.04635648
v 0.04331619 0.01883958 0.07292978
v 0.04396172 0.01729886 0.07292978
v 0.04363073 0.01810177 0.07292978
v 0.04547688 0.01279602 -0.02929335
v 0.04547893 0.01279602 -0.00825481
v 0.04548099 0.01279241 0.02399152
v 0.04548099 0.01279241 0.04532941
v 0.04518906 0.01377254 0.06240452
v 0.04495058 0.01452482 0.06541003
v 0.04453119 0.01579429 0.06991230
v 0.04518289 0.01375446 -0.04635648
v 0.04518495 0.01375446 -0.04586555
v 0.04518495 0.01376531 -0.03033510
v 0.04362662 0.01811624 0.01812420
v 0.04396172 0.01729886 0.06240452
v 0.04395555 0.01731332 0.02595527
v 0.04395144 0.01730971 -0.01727133
v 0.04394939 0.01730971 -0.02479108
v 0.04372736 0.01785583 -0.03033510
v 0.04394733 0.01729524 -0.04635648
v 0.04518495 0.01377978 0.01417273
v 0.04509860 0.01405465 0.02985884
v 0.04494442 0.01452482 -0.01576259
v 0.04454969 0.01572919 0.02789508
v 0.04452091 0.01580876 0.01278373
v 0.04502048 0.01425718 -0.04635648
v 0.04494030 0.01450312 -0.04635648
v 0.04494236 0.01452121 -0.03033510
v 0.04451063 0.01580876 -0.03033510
v 0.04450858 0.01579068 -0.04635648
f 1 2 5
f 1 5 10
f 1 10 29
f 1 29 61
f 1 61 50
f 1 50 49
f 1 49 48
f 1 48 34
f 1 34 15
f 1 15 8
f 1 8 3
f 1 3 4
f 1 4 6
f 1 6 2
f 2 6 7
f 2 7 5
f 3 8 4
f 4 9 21
f 4 21 38
f 4 38 68
f 4 68 104
f 4 104 137
f 4 137 166
f 4 166 185
f 4 185 202
f 4 202 222
f 4 222 232
f 4 232 229
f 4 229 228
f 4 228 213
f 4 213 199
f 4 199 183
f 4 183 164
f 4 164 134
f 4 134 100
f 4 100 62
f 4 62 31
f 4 31 30
f 4 30 11
f 4 11 6
f 4 8 9
f 5 7 10
f 6 11 12
f 6 12 7
f 7 12 13
f 7 13 14
f 7 14 10
f 8 15 16
f 8 16 17
f 8 17 9
f 9 18 19
f 9 19 20
f 9 20 21
f 9 17 16
f 9 16 22
f 9 22 23
f 9 23 24
f 9 24 25
f 9 25 26
f 9 26 27
f 9 27 18
f 10 14 28
f 10 28 59
f 10 59 29
f 11 30 12
f 12 30 31
f 12 31 32
f 12 32 13
f 13 32 14
f 14 33 28
f 14 32 33
f 15 34 16
f 16 34 22
f 18 27 19
f 19 35 20
f 19 27 36
f 19 36 35
f 20 35 21
f 21 37 38
f 21 35 39
f 21 39 40
f 21 40 41
f 21 41 42
f 21 42 43
f 21 43 44
f 21 44 45
f 21 45 46
f 21 46 47
f 21 47 37
f 22 34 23
f 23 48 49
f 23 49 50
f 23 50 51
f 23 51 52
f 23 52 24
f 23 34 48
f 24 52 53
f 24 53 54
f 24 54 25
f 25 54 55
f 25 55 26
f 26 55 56
f 26 56 27
f 27 56 36
f 28 57 58
f 28 58 59
f 28 33 57
f 29 59 60
f 29 60 61
f 31 62 63
f 31 63 32
f 32 63 64
f 32 64 33
f 33 64 94
f 33 94 57
f 35 36 65
f 35 65 66
f 35 66 67
f 35 67 39
f 36 56 65
f 37 68 38
f 37 47 69
f 37 69 70
f 37 70 68
f 39 67 40
f 40 67 41
f 41 67 71
f 41 71 72
f 41 72 42
f 42 72 73
f 42 73 43
f 43 73 74
f 43 74 44
f 44 74 75
f 44 75 76
f 44 76 77
f 44 77 78
f 44 78 45
f 45 78 46
f 46 78 79
f 46 79 47
f 47 79 80
f 47 80 69
f 50 81 51
f 50 61 60
f 50 60 81
f 51 82 83
f 51 83 52
f 51 81 84
f 51 84 85
f 51 85 86
f 51 86 82
f 52 83 87
f 52 87 53
f 53 88 89
f 53 89 90
f 53 90 54
f 53 87 91
f 53 91 88
f 54 90 55
f 55 90 92
f 55 92 93
f 55 93 56
f 56 93 65
f 57 94 95
f 57 95 58
f 58 95 96
f 58 96 97
f 58 97 98
f 58 98 99
f 58 99 59
f 59 99 60
f 60 99 81
f 62 100 63
f 63 100 101
f 63 101 64
f 64 102 132
f 64 132 94
f 64 101 102
f 65 93 92
f 65 92 66
f 66 92 67
f 67 92 103
f 67 103 109
f 67 109 71
f 68 70 104
f 69 80 105
f 69 105 140
f 69 140 106
f 69 106 107
f 69 107 70
f 70 107 143
f 70 143 108
f 70 108 104
f 71 109 110
f 71 110 111
f 71 111 112
f 71 112 113
f 71 113 72
f 72 113 73
f 73 113 112
f 73 112 114
f 73 114 115
f 73 115 116
f 73 116 74
f 74 116 75
f 75 80 76
f 75 116 117
f 75 117 105
f 75 105 80
f 76 80 77
f 77 80 79
f 77 79 78
f 81 99 118
f 81 118 84
f 82 86 119
f 82 119 120
f 82 120 121
f 82 121 83
f 83 121 91
f 83 91 87
f 84 118 122
f 84 122 123
f 84 123 124
f 84 124 125
f 84 125 85
f 85 119 86
f 85 125 119
f 88 91 126
f 88 126 127
f 88 127 89
f 89 127 109
f 89 109 103
f 89 103 90
f 90 103 92
f 91 121 128
f 91 128 129
f 91 129 126
f 94 130 131
f 94 131 95
f 94 132 130
f 95 131 133
f 95 133 96
f 96 133 124
f 96 124 123
f 96 123 97
f 97 123 98
f 98 123 122
f 98 122 99
f 99 122 118
f 100 134 135
f 100 135 136
f 100 136 101
f 101 136 102
f 102 136 132
f 104 108 138
f 104 138 139
f 104 139 137
f 105 117 147
f 105 147 140
f 106 140 141
f 106 141 142
f 106 142 107
f 107 142 144
f 107 144 143
f 108 143 138
f 109 127 110
f 110 145 111
f 110 127 145
f 111 145 114
f 111 114 112
f 114 145 146
f 114 146 148
f 114 148 115
f 115 141 147
f 115 147 117
f 115 117 116
f 115 148 141
f 119 125 149
f 119 149 150
f 119 150 151
f 119 151 120
f 120 151 152
f 120 152 153
f 120 153 128
f 120 128 121
f 124 133 154
f 124 154 125
f 125 154 155
f 125 155 150
f 125 150 149
f 126 129 127
f 127 156 145
f 127 129 156
f 128 153 157
f 128 157 158
f 128 158 129
f 129 158 156
f 130 136 159
f 130 159 131
f 130 132 136
f 131 159 160
f 131 160 133
f 133 161 154
f 133 160 159
f 133 159 162
f 133 162 163
f 133 163 161
f 134 164 135
f 135 165 159
f 135 159 136
f 135 164 165
f 137 139 167
f 137 167 166
f 138 143 168
f 138 168 174
f 138 174 169
f 138 169 139
f 139 169 170
f 139 170 167
f 140 147 141
f 141 148 171
f 141 171 172
f 141 172 173
f 141 173 142
f 142 173 144
f 143 144 168
f 144 173 174
f 144 174 168
f 145 156 146
f 146 156 148
f 148 156 171
f 150 155 175
f 150 175 152
f 150 152 151
f 152 175 176
f 152 176 157
f 152 157 153
f 154 161 155
f 155 161 177
f 155 177 175
f 156 158 157
f 156 157 171
f 157 176 171
f 159 165 162
f 161 163 178
f 161 178 179
f 161 179 180
f 161 180 181
f 161 181 177
f 162 165 163
f 163 165 182
f 163 182 194
f 163 194 178
f 164 183 165
f 165 183 182
f 166 184 185
f 166 167 186
f 166 186 187
f 166 187 188
f 166 188 184
f 167 170 189
f 167 189 190
f 167 190 186
f 169 174 176
f 169 176 170
f 170 176 189
f 171 173 172
f 171 176 173
f 173 176 174
f 175 177 191
f 175 191 190
f 175 190 189
f 175 189 176
f 177 181 192
f 177 192 193
f 177 193 191
f 178 194 179
f 179 194 195
f 179 195 196
f 179 196 180
f 180 196 197
f 180 197 198
f 180 198 181
f 181 198 192
f 182 183 199
f 182 199 194
f 184 188 200
f 184 200 201
f 184 201 185
f 185 201 202
f 186 190 187
f 187 203 188
f 187 190 191
f 187 191 193
f 187 193 203
f 188 203 216
f 188 216 200
f 192 198 204
f 192 204 193
f 193 204 205
f 193 205 203
f 194 199 206
f 194 206 207
f 194 207 208
f 194 208 209
f 194 209 195
f 195 209 196
f 196 209 208
f 196 208 210
f 196 210 211
f 196 211 197
f 197 211 212
f 197 212 198
f 198 212 217
f 198 217 204
f 199 213 214
f 199 214 215
f 199 215 206
f 200 216 204
f 200 204 217
f 200 217 218
f 200 218 201
f 201 218 219
f 201 219 220
f 201 220 221
f 201 221 222
f 201 222 202
f 203 205 216
f 204 216 205
f 206 215 223
f 206 223 207
f 207 223 210
f 207 210 208
f 210 223 224
f 210 224 211
f 211 224 225
f 211 225 226
f 211 226 212
f 212 226 227
f 212 227 218
f 212 218 217
f 213 228 214
f 214 228 229
f 214 229 230
f 214 230 215
f 215 230 225
f 215 225 223
f 218 227 219
f 219 227 231
f 219 231 220
f 220 231 222
f 220 222 221
f 222 231 232
f 223 225 224
f 225 230 227
f 225 227 226
f 227 230 231
f 229 232 231
f 229 231 230

