# https://github.com/mikedh/trimesh
v -0.00035043 0.04722801 -0.03314629
v -0.00000499 0.04722595 -0.03314629
v -0.00000499 0.04722595 -0.04286058
v -0.00075299 0.04722801 -0.04436547
v -0.00075299 0.04722801 -0.03314629
v -0.00000499 0.04029099 -0.03314629
v -0.00000499 0.04722388 -0.04736829
v -0.00075843 0.04722595 -0.04736829
v -0.00226258 0.04718053 -0.04736829
v -0.00225714 0.04718259 -0.03835007
v -0.00144658 0.04720737 -0.03314629
v -0.00000499 0.03816034 -0.04736829
v -0.02779233 0.02916079 -0.03314629
v -0.02779233 0.02613823 -0.04736829
v -0.00376673 0.04707317 -0.04736829
v -0.00376129 0.04707524 -0.04436547
v -0.00225714 0.04718259 -0.03314629
v -0.02779233 0.03818305 -0.03314629
v -0.02779233 0.03818098 -0.04736829
v -0.00526816 0.04694310 -0.04736829
v -0.00526544 0.04694516 -0.04135707
v -0.00376129 0.04707524 -0.03314629
v -0.02779233 0.03818305 -0.03388273
v -0.02678594 0.03890152 -0.03314629
v -0.02678866 0.03889946 -0.04736829
v -0.00653839 0.04674490 -0.04736829
v -0.00653839 0.04674696 -0.04436547
v -0.00585023 0.04685432 -0.03314629
v -0.00526544 0.04694516 -0.03314629
v -0.02678594 0.03890152 -0.04586897
v -0.02644050 0.03914102 -0.03314629
v -0.02603522 0.03942180 -0.04135707
v -0.02603250 0.03942180 -0.04736829
v -0.01128476 0.04580138 -0.04736829
v -0.01128204 0.04580345 -0.04586897
v -0.00653839 0.04674696 -0.03314629
v -0.02603522 0.03942180 -0.03314629
v -0.02117189 0.04221106 -0.03534307
v -0.02116917 0.04220900 -0.04736829
v -0.01278891 0.04547518 -0.04736829
v -0.01278347 0.04547724 -0.04586897
v -0.01197291 0.04565480 -0.03314629
v -0.01128204 0.04580345 -0.03314629
v -0.02117189 0.04221106 -0.03314629
v -0.02030150 0.04266321 -0.03314629
v -0.02030150 0.04266114 -0.04286058
v -0.02030422 0.04265701 -0.04736829
v -0.01374906 0.04518613 -0.04736829
v -0.01375178 0.04518613 -0.04135707
v -0.01278347 0.04547724 -0.03314629
v -0.01883543 0.04331355 -0.03314629
v -0.01883543 0.04331355 -0.03383957
v -0.01882999 0.04331355 -0.04736829
v -0.01450250 0.04494045 -0.04736829
v -0.01449978 0.04494251 -0.04586897
v -0.01450250 0.04494458 -0.03314629
v -0.01375178 0.04518613 -0.03314629
v -0.01848999 0.04345807 -0.03314629
v -0.01808199 0.04362737 -0.04286058
v -0.01807927 0.04362737 -0.04736829
v -0.01579449 0.04450688 -0.04736829
v -0.01578905 0.04451101 -0.04135707
v -0.01578905 0.04451101 -0.03314629
v -0.01808199 0.04362737 -0.03314629
v -0.01765768 0.04380079 -0.03314629
v -0.01729320 0.04394945 -0.03314629
v -0.01729320 0.04394738 -0.04286058
v -0.01729592 0.04394532 -0.04736829
v -0.01648264 0.04425294 -0.03314629
f 1 2 3
f 1 3 4
f 1 4 5
f 1 5 11
f 1 11 17
f 1 17 22
f 1 22 29
f 1 29 28
f 1 28 36
f 1 36 43
f 1 43 42
f 1 42 50
f 1 50 57
f 1 57 56
f 1 56 63
f 1 63 69
f 1 69 66
f 1 66 65
f 1 65 64
f 1 64 58
f 1 58 51
f 1 51 45
f 1 45 44
f 1 44 37
f 1 37 31
f 1 31 24
f 1 24 18
f 1 18 13
f 1 13 6
f 1 6 2
f 2 6 12
f 2 12 7
f 2 7 3
f 3 7 4
f 4 8 9
f 4 9 10
f 4 10 11
f 4 11 5
f 4 7 8
f 6 13 14
f 6 14 12
f 7 12 14
f 7 14 19
f 7 19 25
f 7 25 33
f 7 33 39
f 7 39 47
f 7 47 53
f 7 53 60
f 7 60 68
f 7 68 61
f 7 61 54
f 7 54 48
f 7 48 40
f 7 40 34
f 7 34 26
f 7 26 20
f 7 20 15
f 7 15 9
f 7 9 8
f 9 15 16
f 9 16 10
f 10 16 22
f 10 22 17
f 10 17 11
f 13 18 23
f 13 23 19
f 13 19 14
f 15 20 16
f 16 20 21
f 16 21 29
f 16 29 22
f 18 24 30
f 18 30 23
f 19 23 25
f 20 26 27
f 20 27 21
f 21 27 28
f 21 28 29
f 23 30 25
f 24 31 30
f 25 30 32
f 25 32 33
f 26 34 35
f 26 35 27
f 27 36 28
f 27 35 43
f 27 43 36
f 30 31 32
f 31 37 32
f 32 37 44
f 32 44 38
f 32 38 33
f 33 38 39
f 34 40 35
f 35 40 41
f 35 41 42
f 35 42 43
f 38 44 45
f 38 45 46
f 38 46 39
f 39 46 47
f 40 48 41
f 41 48 49
f 41 49 57
f 41 57 50
f 41 50 42
f 45 51 52
f 45 52 53
f 45 53 46
f 46 53 47
f 48 54 55
f 48 55 56
f 48 56 49
f 49 56 57
f 51 58 52
f 52 58 59
f 52 59 53
f 53 59 60
f 54 61 55
f 55 61 62
f 55 62 56
f 56 62 63
f 58 64 59
f 59 64 65
f 59 65 66
f 59 66 67
f 59 67 68
f 59 68 60
f 61 68 62
f 62 68 67
f 62 67 66
f 62 66 69
f 62 69 63

