# https://github.com/mikedh/trimesh
v -0.02623097 -0.02798022 -0.04635661
v -0.03804225 -0.02798022 -0.04635661
v -0.02928529 -0.02798022 -0.03035619
v 0.00000267 -0.03836204 -0.04635661
v -0.03760272 -0.02858493 -0.04635661
v -0.03760645 -0.02858682 -0.03684721
v -0.03778152 -0.02834757 -0.03035619
v -0.03804225 -0.02798022 -0.03035619
v 0.00000267 -0.04051150 -0.03035619
v 0.00000267 -0.04722173 -0.04635661
v -0.03719672 -0.02909357 -0.04635661
v -0.03760645 -0.02858682 -0.03035619
v -0.03700304 -0.02933847 -0.04286049
v -0.03700304 -0.02934035 -0.03083080
v -0.03741649 -0.02882418 -0.03035619
v 0.00000267 -0.04722550 -0.03035619
v 0.00000267 -0.04722361 -0.04135677
v -0.00025806 -0.04722173 -0.04635661
v -0.03675720 -0.02963800 -0.04635661
v -0.03625063 -0.03026531 -0.04635661
v -0.03625063 -0.03026720 -0.03985306
v -0.03648902 -0.02997520 -0.03035619
v -0.03700304 -0.02934035 -0.03035619
v -0.00075346 -0.04722173 -0.03035619
v -0.00075346 -0.04722173 -0.03985306
v -0.00075346 -0.04721984 -0.04635661
v -0.03581856 -0.03077395 -0.04635661
v -0.03625063 -0.03026720 -0.03035619
v -0.03604949 -0.03050456 -0.03035619
v -0.00178522 -0.04720289 -0.03035619
v -0.00225827 -0.04719347 -0.04135677
v -0.00225827 -0.04719159 -0.04635661
v -0.03560997 -0.03101885 -0.04286049
v -0.03560997 -0.03101696 -0.04635661
v -0.03560997 -0.03101885 -0.03035619
v -0.00225827 -0.04719347 -0.03035619
v -0.00827379 -0.04649268 -0.03383822
v -0.00827379 -0.04649080 -0.04135677
v -0.00827379 -0.04648891 -0.04635661
v -0.03485756 -0.03188541 -0.04635661
v -0.03485756 -0.03188730 -0.03985306
v -0.03509595 -0.03161414 -0.03035619
v -0.00827379 -0.04649268 -0.03035619
v -0.00977861 -0.04621388 -0.03035619
v -0.00977861 -0.04621199 -0.04135677
v -0.00977861 -0.04621011 -0.04635661
v -0.03434727 -0.03239405 -0.04635661
v -0.03485756 -0.03188730 -0.03035619
v -0.03410143 -0.03263895 -0.04635661
v -0.03461918 -0.03212466 -0.03035619
v -0.01127969 -0.04587479 -0.03035619
v -0.01127969 -0.04587479 -0.03083080
v -0.01127969 -0.04587290 -0.04286049
v -0.01026655 -0.04610085 -0.04635661
v -0.03410143 -0.03263895 -0.03835092
v -0.03027608 -0.03627475 -0.04635661
v -0.03027608 -0.03627664 -0.03233451
v -0.03409771 -0.03263895 -0.03035619
v -0.01278450 -0.04549614 -0.03035619
v -0.01177136 -0.04575045 -0.04635661
v -0.01278450 -0.04549614 -0.04635661
v -0.01127969 -0.04587102 -0.04635661
v -0.03027608 -0.03627664 -0.03035619
v -0.02933371 -0.03702640 -0.04635661
v -0.02933744 -0.03702829 -0.03383822
v -0.01379765 -0.04520414 -0.03035619
v -0.01379765 -0.04520602 -0.03684721
v -0.01379765 -0.04520602 -0.04635661
v -0.02933744 -0.03702829 -0.03035619
v -0.02909160 -0.03721479 -0.04635661
v -0.02858503 -0.03760663 -0.03083080
v -0.01455005 -0.04494794 -0.03035619
v -0.01455005 -0.04494794 -0.04635661
v -0.02858503 -0.03760663 -0.03035619
v -0.02858131 -0.03760474 -0.04635661
v -0.02858503 -0.03760474 -0.03835092
v -0.02782145 -0.03817931 -0.04436419
v -0.01579413 -0.04451842 -0.03035619
v -0.01579413 -0.04451842 -0.04135677
v -0.01579413 -0.04451654 -0.04635661
v -0.02782145 -0.03817931 -0.03035619
v -0.02782145 -0.03817743 -0.04635661
v -0.02681203 -0.03892343 -0.04635661
v -0.01682217 -0.04414919 -0.03035619
v -0.01729522 -0.04397776 -0.04635661
v -0.02681203 -0.03892343 -0.03985306
v -0.02681203 -0.03892154 -0.03035619
v -0.02605963 -0.03942076 -0.04635661
v -0.01729522 -0.04397776 -0.03035619
v -0.01755967 -0.04387415 -0.04635661
v -0.02605963 -0.03942076 -0.03035619
v -0.02484535 -0.04017241 -0.04635661
v -0.02484907 -0.04017429 -0.03835092
v -0.01785021 -0.04375735 -0.03035619
v -0.01810722 -0.04365751 -0.04586947
v -0.01810722 -0.04365751 -0.04635661
v -0.02484907 -0.04017429 -0.03035619
v -0.02460324 -0.04031935 -0.04635661
v -0.02409667 -0.04062642 -0.03985306
v -0.02433505 -0.04048324 -0.03035619
v -0.01810349 -0.04365563 -0.03035619
v -0.02331074 -0.04108796 -0.03035619
v -0.02331074 -0.04108796 -0.03684721
v -0.02331074 -0.04108607 -0.04635661
v -0.02409294 -0.04062453 -0.04635661
v -0.02409667 -0.04062453 -0.04286049
v -0.02409667 -0.04062642 -0.03035619
f 1 2 8
f 1 8 3
f 1 3 4
f 1 4 10
f 1 10 18
f 1 18 26
f 1 26 32
f 1 32 39
f 1 39 46
f 1 46 54
f 1 54 62
f 1 62 60
f 1 60 61
f 1 61 68
f 1 68 73
f 1 73 80
f 1 80 85
f 1 85 90
f 1 90 96
f 1 96 104
f 1 104 105
f 1 105 98
f 1 98 92
f 1 92 88
f 1 88 83
f 1 83 82
f 1 82 75
f 1 75 70
f 1 70 64
f 1 64 56
f 1 56 49
f 1 49 47
f 1 47 40
f 1 40 34
f 1 34 27
f 1 27 20
f 1 20 19
f 1 19 11
f 1 11 5
f 1 5 2
f 2 5 6
f 2 6 7
f 2 7 8
f 3 8 7
f 3 7 12
f 3 12 15
f 3 15 23
f 3 23 22
f 3 22 28
f 3 28 29
f 3 29 35
f 3 35 42
f 3 42 48
f 3 48 50
f 3 50 58
f 3 58 63
f 3 63 69
f 3 69 74
f 3 74 81
f 3 81 87
f 3 87 91
f 3 91 97
f 3 97 100
f 3 100 107
f 3 107 102
f 3 102 101
f 3 101 94
f 3 94 89
f 3 89 84
f 3 84 78
f 3 78 72
f 3 72 66
f 3 66 59
f 3 59 51
f 3 51 44
f 3 44 43
f 3 43 36
f 3 36 30
f 3 30 24
f 3 24 16
f 3 16 9
f 3 9 4
f 4 9 16
f 4 16 17
f 4 17 10
f 5 11 6
f 6 12 7
f 6 11 13
f 6 13 14
f 6 14 15
f 6 15 12
f 10 17 18
f 11 19 13
f 13 19 20
f 13 20 21
f 13 21 22
f 13 22 14
f 14 22 23
f 14 23 15
f 16 24 25
f 16 25 17
f 17 25 18
f 18 25 26
f 20 27 21
f 21 28 22
f 21 27 29
f 21 29 28
f 24 30 25
f 25 30 31
f 25 31 26
f 26 31 32
f 27 33 29
f 27 34 33
f 29 33 35
f 30 36 31
f 31 36 43
f 31 43 37
f 31 37 38
f 31 38 39
f 31 39 32
f 33 34 40
f 33 40 41
f 33 41 42
f 33 42 35
f 37 43 44
f 37 44 45
f 37 45 38
f 38 45 46
f 38 46 39
f 40 47 41
f 41 48 42
f 41 47 49
f 41 49 50
f 41 50 48
f 44 51 52
f 44 52 53
f 44 53 45
f 45 53 54
f 45 54 46
f 49 55 50
f 49 56 57
f 49 57 63
f 49 63 55
f 50 55 58
f 51 59 61
f 51 61 52
f 52 60 53
f 52 61 60
f 53 60 62
f 53 62 54
f 55 63 58
f 56 64 65
f 56 65 57
f 57 65 69
f 57 69 63
f 59 66 67
f 59 67 68
f 59 68 61
f 64 70 65
f 65 70 71
f 65 71 74
f 65 74 69
f 66 72 67
f 67 72 73
f 67 73 68
f 70 75 76
f 70 76 71
f 71 76 77
f 71 77 81
f 71 81 74
f 72 78 79
f 72 79 73
f 73 79 80
f 75 82 77
f 75 77 76
f 77 82 83
f 77 83 86
f 77 86 81
f 78 84 79
f 79 84 85
f 79 85 80
f 81 86 87
f 83 88 91
f 83 91 86
f 84 89 85
f 85 89 90
f 86 91 87
f 88 92 93
f 88 93 97
f 88 97 91
f 89 94 95
f 89 95 90
f 90 95 96
f 92 98 93
f 93 98 99
f 93 99 100
f 93 100 97
f 94 101 95
f 95 101 102
f 95 102 103
f 95 103 96
f 96 103 104
f 98 105 106
f 98 106 99
f 99 103 102
f 99 102 107
f 99 107 100
f 99 106 104
f 99 104 103
f 104 106 105

