# https://github.com/mikedh/trimesh
v -0.04722302 -0.00000219 -0.04737390
v -0.04721840 -0.00000219 -0.06993128
v -0.04721840 -0.00000219 -0.04737110
v -0.04721840 0.00075607 -0.04737110
v -0.04721840 0.00075607 -0.06541868
v -0.04721378 0.00075607 -0.06993128
v -0.04721378 -0.00000219 -0.07143455
v -0.03815934 -0.00000219 -0.04737110
v -0.04719067 0.00225874 -0.04737110
v -0.04719067 0.00225874 -0.06541868
v -0.04718604 0.00225874 -0.06993128
v -0.04720915 0.00075607 -0.07143455
v -0.04715369 -0.00000219 -0.07293781
v -0.00000961 -0.00000219 -0.05350195
v -0.00000961 0.03816086 -0.04737110
v -0.04712133 0.00376140 -0.06842802
v -0.04648813 0.00827402 -0.04737110
v -0.04699192 0.00526407 -0.07143455
v -0.04711671 0.00376140 -0.06993128
v -0.04717680 0.00225874 -0.07143455
v -0.04714906 0.00075607 -0.07293781
v -0.04685788 0.00075607 -0.07441303
v -0.04685788 -0.00000219 -0.07441864
v -0.00000961 -0.00000219 -0.07280599
v -0.00000961 0.04722309 -0.04737110
v -0.04620619 0.00977668 -0.04737110
v -0.04664989 0.00766833 -0.06391542
v -0.04679317 0.00677135 -0.07143455
v -0.04696881 0.00526407 -0.07293781
v -0.04710285 0.00376140 -0.07143455
v -0.04705663 0.00376140 -0.07293781
v -0.04711671 0.00225874 -0.07293781
v -0.04684402 0.00225874 -0.07437096
v -0.04659905 0.00075607 -0.07516466
v -0.04660367 -0.00000219 -0.07517027
v -0.03533994 -0.00000219 -0.07595837
v -0.00000961 0.03534048 -0.07595837
v -0.00000961 0.04722309 -0.06315818
v -0.00075837 0.04722309 -0.04737110
v -0.04620619 0.00977668 -0.04737390
v -0.04649737 0.00842197 -0.06692195
v -0.04664989 0.00767758 -0.06541868
v -0.04585491 0.01128397 -0.04737110
v -0.04664989 0.00766833 -0.06692195
v -0.04664528 0.00764984 -0.07143455
v -0.04675158 0.00687770 -0.07294623
v -0.04670998 0.00644770 -0.07395588
v -0.04677931 0.00526407 -0.07416342
v -0.04682091 0.00376140 -0.07428682
v -0.04657132 0.00225874 -0.07512259
v -0.04569315 0.00526407 -0.07550682
v -0.04576248 0.00376140 -0.07551804
v -0.04581794 0.00225874 -0.07552926
v -0.04584567 0.00075607 -0.07553487
v -0.04585029 -0.00000219 -0.07553487
v -0.03684208 -0.00000219 -0.07601165
v -0.00000961 0.03684314 -0.07601445
v -0.00000961 0.04721846 -0.07067731
v -0.00075375 0.04722309 -0.06993128
v -0.00226513 0.04717685 -0.04737110
v -0.04585491 0.01128397 -0.05038324
v -0.04620156 0.00977668 -0.06993128
v -0.04649737 0.00841273 -0.06842802
v -0.04546667 0.01278664 -0.04737110
v -0.04649737 0.00840348 -0.06993128
v -0.04663603 0.00760360 -0.07245262
v -0.04649275 0.00839886 -0.07143455
v -0.04660367 0.00745102 -0.07345386
v -0.04638644 0.00687770 -0.07445230
v -0.04644653 0.00526407 -0.07491786
v -0.04522171 0.01278664 -0.07402599
v -0.04540196 0.01135333 -0.07455326
v -0.04507380 0.01190353 -0.07512820
v -0.04651586 0.00376140 -0.07503846
v -0.04558684 0.00677135 -0.07548719
v -0.04436202 0.00827402 -0.07583496
v -0.04436202 0.00677135 -0.07588544
v -0.04436202 0.00526407 -0.07590508
v -0.04436202 0.00225874 -0.07592471
v -0.04436202 0.00075607 -0.07593032
v -0.04436202 -0.00000219 -0.07593032
v -0.03834884 -0.00000219 -0.07601445
v -0.01880253 0.03233052 -0.07602007
v -0.00827369 0.03684314 -0.07601726
v -0.00000961 0.03834581 -0.07601445
v -0.03684208 0.00677135 -0.07601726
v -0.00000961 0.04721384 -0.07143455
v -0.00075375 0.04721384 -0.07143455
v -0.00225589 0.04717223 -0.07143455
v -0.00225589 0.04717685 -0.06993128
v -0.00376265 0.04707051 -0.06993128
v -0.00376727 0.04707051 -0.04737110
v -0.04546667 0.01278664 -0.04737390
v -0.04546205 0.01278664 -0.06993128
v -0.04585029 0.01128397 -0.06993128
v -0.04619694 0.00977668 -0.07143455
v -0.04518473 0.01375297 -0.04737110
v -0.04614148 0.00977668 -0.07293781
v -0.04648813 0.00817230 -0.07294623
v -0.04512002 0.01354953 -0.07370347
v -0.04518935 0.01090022 -0.07526562
v -0.04530028 0.00977668 -0.07535818
v -0.04544818 0.00827402 -0.07544512
v -0.04359939 0.01652249 -0.07518149
v -0.04374730 0.01551918 -0.07531330
v -0.04436202 0.00977668 -0.07572838
v -0.04285988 0.01428930 -0.07581252
v -0.04285988 0.01278664 -0.07590227
v -0.04285988 0.01128397 -0.07593593
v -0.04285988 0.00977668 -0.07596397
v -0.04285988 0.00827402 -0.07598641
v -0.04285988 0.00677135 -0.07599482
v -0.04285988 0.00376140 -0.07599482
v -0.04285988 -0.00000219 -0.07599202
v -0.03985098 -0.00000219 -0.07600884
v -0.03834884 0.00526407 -0.07601445
v -0.02181144 0.03082786 -0.07601726
v -0.02030467 0.03233052 -0.07601726
v -0.01278473 0.04135576 -0.07600324
v -0.01278473 0.03834581 -0.07601165
v -0.01128259 0.03684314 -0.07601726
v -0.03684208 0.00827402 -0.07601726
v -0.03533994 0.01278664 -0.07601726
v -0.03233104 0.02030458 -0.07601726
v -0.00977583 0.03834581 -0.07601445
v -0.00000961 0.03910407 -0.07601165
v -0.00000961 0.04715373 -0.07293781
v -0.00075375 0.04715373 -0.07293781
v -0.00225589 0.04710750 -0.07293781
v -0.00376265 0.04700578 -0.07293781
v -0.00376265 0.04706589 -0.07143455
v -0.00526479 0.04693643 -0.06993128
v -0.00526479 0.04694105 -0.06541868
v -0.00526941 0.04694105 -0.04737110
v -0.04518473 0.01375297 -0.06090889
v -0.04518473 0.01374834 -0.06993128
v -0.04518011 0.01373910 -0.07143455
v -0.04545280 0.01278664 -0.07143455
v -0.04584567 0.01128397 -0.07143455
v -0.04493976 0.01450199 -0.04737110
v -0.04493976 0.01450661 -0.04737390
v -0.04578096 0.01128397 -0.07293781
v -0.04539272 0.01278664 -0.07293781
v -0.04514776 0.01364200 -0.07293781
v -0.04490279 0.01439102 -0.07293781
v -0.04443597 0.01579197 -0.07293781
v -0.04359939 0.01801591 -0.07349032
v -0.04378427 0.01701722 -0.07417745
v -0.04393680 0.01428930 -0.07543110
v -0.04417714 0.01278664 -0.07550963
v -0.04295232 0.01880192 -0.07444388
v -0.04236070 0.02024910 -0.07437377
v -0.04218045 0.01971277 -0.07525722
v -0.04235609 0.01880192 -0.07537220
v -0.04267038 0.01729926 -0.07548999
v -0.04135774 0.01880192 -0.07573680
v -0.04135774 0.01729926 -0.07587703
v -0.04135774 0.01579197 -0.07593873
v -0.04135774 0.01428930 -0.07597519
v -0.04135774 0.01278664 -0.07598641
v -0.04135774 0.00827402 -0.07600043
v -0.03985098 0.00526407 -0.07600884
v -0.04059512 -0.00000219 -0.07600604
v -0.04135774 0.01128397 -0.07599482
v -0.04210188 -0.00000219 -0.07599763
v -0.03834884 0.00827402 -0.07601165
v -0.02331357 0.03082786 -0.07601445
v -0.03082890 0.02331454 -0.07601445
v -0.02030467 0.03383781 -0.07601165
v -0.01729577 0.03684314 -0.07600884
v -0.01729577 0.03834581 -0.07600324
v -0.01579363 0.03985310 -0.07600043
v -0.01729577 0.03985310 -0.07598921
v -0.01429149 0.04135576 -0.07598360
v -0.00977583 0.04285843 -0.07596397
v -0.00827369 0.04285843 -0.07598080
v -0.00677155 0.04285843 -0.07598641
v -0.00526479 0.04285843 -0.07598921
v -0.00376265 0.04135576 -0.07600324
v -0.01128259 0.03985310 -0.07600884
v -0.03834884 0.01278664 -0.07600604
v -0.03383780 0.01880192 -0.07601445
v -0.03233104 0.02331454 -0.07601165
v -0.00000961 0.03985310 -0.07600884
v -0.00000961 0.04685782 -0.07441864
v -0.00075375 0.04685782 -0.07442425
v -0.00225589 0.04683471 -0.07436535
v -0.00376265 0.04678385 -0.07422231
v -0.00526479 0.04671912 -0.07402880
v -0.00642490 0.04666363 -0.07384089
v -0.00526479 0.04687632 -0.07293781
v -0.00526479 0.04693180 -0.07143455
v -0.00677155 0.04676997 -0.07143455
v -0.00677155 0.04677460 -0.06842802
v -0.00677155 0.04677460 -0.06541868
v -0.00759426 0.04665439 -0.06692195
v -0.00653583 0.04674223 -0.04737110
v -0.04493976 0.01450661 -0.05489583
v -0.04493976 0.01450199 -0.06993128
v -0.04493514 0.01449274 -0.07143455
v -0.04450992 0.01579197 -0.04737110
v -0.04450068 0.01579197 -0.07143455
v -0.04384898 0.01742872 -0.07296866
v -0.04362713 0.01809451 -0.07248627
v -0.04337754 0.01867708 -0.07296866
v -0.04267500 0.02030458 -0.07293781
v -0.04215734 0.02114145 -0.07382687
v -0.04191700 0.02071608 -0.07483092
v -0.04065520 0.02265337 -0.07524039
v -0.04087705 0.02180725 -0.07536940
v -0.04139009 0.02024910 -0.07548158
v -0.03985098 0.02180725 -0.07573119
v -0.03985098 0.02030458 -0.07589667
v -0.03985098 0.01880192 -0.07595276
v -0.03985098 0.01729926 -0.07598360
v -0.03684208 0.02030458 -0.07600043
v -0.03834884 0.01880192 -0.07599482
v -0.02331357 0.03383781 -0.07600324
v -0.02631786 0.02932520 -0.07601165
v -0.02481109 0.03383781 -0.07599763
v -0.02181144 0.03684314 -0.07598921
v -0.02331357 0.03534048 -0.07599482
v -0.01880253 0.03985310 -0.07595837
v -0.02030467 0.03834581 -0.07598360
v -0.01579363 0.04135576 -0.07594434
v -0.01278473 0.04285843 -0.07590788
v -0.01128259 0.04285843 -0.07593873
v -0.00677155 0.04436109 -0.07587983
v -0.00526479 0.04436109 -0.07590227
v -0.00376265 0.04436109 -0.07591349
v -0.00225589 0.04436109 -0.07592190
v -0.00075375 0.04436109 -0.07592751
v -0.00000961 0.04361670 -0.07595837
v -0.00075375 0.04285843 -0.07598921
v -0.00000961 0.04211403 -0.07599482
v -0.00000961 0.04135576 -0.07600043
v -0.03533994 0.01880192 -0.07600884
v -0.03383780 0.02331454 -0.07600604
v -0.03383780 0.02631524 -0.07600043
v -0.03233104 0.02481258 -0.07600884
v -0.03082890 0.02631524 -0.07600884
v -0.00000961 0.04660353 -0.07517027
v -0.00075375 0.04660815 -0.07517588
v -0.00225589 0.04657116 -0.07511698
v -0.00376265 0.04649256 -0.07497395
v -0.00526479 0.04640934 -0.07478043
v -0.00742787 0.04660815 -0.07351836
v -0.00686399 0.04637235 -0.07438218
v -0.00827369 0.04615967 -0.07444388
v -0.00686399 0.04670524 -0.07298549
v -0.00765897 0.04664052 -0.07251712
v -0.00769594 0.04664977 -0.07143455
v -0.00844932 0.04651106 -0.07143455
v -0.00758502 0.04664977 -0.06541868
v -0.01128259 0.04580365 -0.04737390
v -0.01128721 0.04579902 -0.04737110
v -0.04450992 0.01579197 -0.06993128
v -0.04397840 0.01729926 -0.04737110
v -0.04395991 0.01729926 -0.07143455
v -0.04364099 0.01812688 -0.07143455
v -0.04334057 0.01888052 -0.07143455
v -0.04223129 0.02127554 -0.07143455
v -0.04220356 0.02122930 -0.07293781
v -0.04271198 0.02030458 -0.07143455
v -0.04177834 0.02198295 -0.07293781
v -0.04056738 0.02399883 -0.07327437
v -0.03925475 0.02580203 -0.07411013
v -0.04084008 0.02296315 -0.07444388
v -0.03904675 0.02549225 -0.07511418
v -0.03933794 0.02448893 -0.07535537
v -0.03984174 0.02321744 -0.07545354
v -0.03846439 0.02491892 -0.07556572
v -0.03684208 0.02631524 -0.07577606
v -0.03834884 0.02331454 -0.07586862
v -0.03684208 0.02481258 -0.07593873
v -0.03834884 0.02180725 -0.07595556
v -0.03834884 0.02030458 -0.07598641
v -0.03533994 0.02481258 -0.07599763
v -0.03533994 0.02331454 -0.07600043
v -0.02932213 0.02932520 -0.07600324
v -0.03082890 0.02932520 -0.07599763
v -0.02481109 0.03534048 -0.07598360
v -0.02781999 0.03233052 -0.07599202
v -0.02030467 0.03985310 -0.07589667
v -0.01729577 0.04135576 -0.07588544
v -0.02331357 0.03684314 -0.07597239
v -0.02181144 0.03834581 -0.07594714
v -0.01429149 0.04285843 -0.07581813
v -0.00827369 0.04436109 -0.07582935
v -0.00677155 0.04556784 -0.07548999
v -0.00526479 0.04566032 -0.07550963
v -0.00376265 0.04573892 -0.07552085
v -0.00225589 0.04581752 -0.07552926
v -0.00075375 0.04585451 -0.07553487
v -0.00000961 0.04436109 -0.07592751
v -0.00000961 0.04511473 -0.07573119
v -0.00000961 0.04285843 -0.07598641
v -0.03383780 0.02781791 -0.07597239
v -0.03082890 0.03082786 -0.07597800
v -0.00000961 0.04622902 -0.07535537
v -0.00827369 0.04546612 -0.07544512
v -0.00977583 0.04532280 -0.07536379
v -0.00977583 0.04587300 -0.07444388
v -0.00977583 0.04623826 -0.07293781
v -0.00820898 0.04653880 -0.07298549
v -0.01092670 0.04519796 -0.07527124
v -0.01192967 0.04507775 -0.07514222
v -0.00977583 0.04624289 -0.07143455
v -0.01278935 0.04547538 -0.04737110
v -0.04397840 0.01729926 -0.06391542
v -0.04397377 0.01729926 -0.06842802
v -0.04396915 0.01729926 -0.06993128
v -0.04365486 0.01810838 -0.04737110
v -0.04365486 0.01813150 -0.06692195
v -0.04365024 0.01814075 -0.06993128
v -0.04222667 0.02128016 -0.06842802
v -0.04181531 0.02202456 -0.06692195
v -0.04181069 0.02203380 -0.06842802
v -0.04181069 0.02202918 -0.07143455
v -0.04060898 0.02407280 -0.07227032
v -0.04094639 0.02342550 -0.07283965
v -0.04019301 0.02466925 -0.07283965
v -0.03936567 0.02596847 -0.07293781
v -0.03885725 0.02671750 -0.07293781
v -0.03810849 0.02776705 -0.07293781
v -0.03616265 0.03016669 -0.07387454
v -0.03790051 0.02748963 -0.07444388
v -0.03870935 0.02630600 -0.07454485
v -0.03734125 0.02824328 -0.07444388
v -0.03590844 0.02986153 -0.07487859
v -0.03768790 0.02719835 -0.07526843
v -0.03799757 0.02631524 -0.07540866
v -0.03681897 0.02774855 -0.07545915
v -0.03538153 0.02934831 -0.07552365
v -0.03533994 0.02781791 -0.07584899
v -0.03383780 0.02932520 -0.07588264
v -0.03533994 0.02631524 -0.07596677
v -0.03684208 0.02331454 -0.07598080
v -0.02932213 0.03233052 -0.07597239
v -0.02631786 0.03534048 -0.07595276
v -0.02181144 0.03985310 -0.07573680
v -0.01880253 0.04135576 -0.07573400
v -0.02481109 0.03684314 -0.07592751
v -0.02331357 0.03834581 -0.07586301
v -0.01429149 0.04393572 -0.07543391
v -0.01278473 0.04418077 -0.07550682
v -0.00977583 0.04436109 -0.07572838
v -0.01729577 0.04265961 -0.07549280
v -0.00000961 0.04584988 -0.07553487
v -0.03233104 0.03082786 -0.07590508
v -0.03082890 0.03233052 -0.07590508
v -0.01137041 0.04543376 -0.07456168
v -0.01278473 0.04523032 -0.07403160
v -0.01354273 0.04511473 -0.07369505
v -0.01128259 0.04583139 -0.07293781
v -0.01128259 0.04588225 -0.07143455
v -0.01551169 0.04375078 -0.07531611
v -0.01651466 0.04359820 -0.07517307
v -0.01128259 0.04588687 -0.06993128
v -0.01128259 0.04588687 -0.06842802
v -0.01128259 0.04588225 -0.06692195
v -0.01278473 0.04547538 -0.05940563
v -0.01374610 0.04518409 -0.06541868
v -0.01375072 0.04518409 -0.05188650
v -0.01375072 0.04518409 -0.04737110
v -0.04108042 0.02331454 -0.04737110
v -0.04108042 0.02331454 -0.06391542
v -0.04107580 0.02331454 -0.06842802
v -0.04107118 0.02331454 -0.07143455
v -0.04061823 0.02408205 -0.07143455
v -0.04015140 0.02483107 -0.07143455
v -0.03940264 0.02602396 -0.07143455
v -0.03889423 0.02677298 -0.07143455
v -0.03759084 0.02856693 -0.07189731
v -0.03755848 0.02851607 -0.07293781
v -0.03653241 0.02934831 -0.07440462
v -0.03693914 0.02932520 -0.07293781
v -0.03622735 0.03024529 -0.07293781
v -0.03562650 0.03099431 -0.07293781
v -0.03487312 0.03190978 -0.07293781
v -0.03476681 0.03178494 -0.07408489
v -0.03533531 0.03082786 -0.07448314
v -0.03450336 0.03148441 -0.07508894
v -0.03630593 0.02886284 -0.07533574
v -0.03490547 0.03048109 -0.07536660
v -0.03393486 0.03092033 -0.07555731
v -0.02932213 0.03383781 -0.07588264
v -0.02631786 0.03684314 -0.07577045
v -0.02492202 0.03846602 -0.07556572
v -0.02323962 0.03985310 -0.07545915
v -0.02181144 0.04088415 -0.07537781
v -0.02023534 0.04138813 -0.07547597
v -0.01880253 0.04233596 -0.07536660
v -0.02781999 0.03534048 -0.07584618
v -0.03243272 0.03243224 -0.07557133
v -0.03090285 0.03391642 -0.07556011
v -0.01438855 0.04490667 -0.07293781
v -0.01363517 0.04514710 -0.07293781
v -0.01278473 0.04540140 -0.07293781
v -0.01592767 0.04400045 -0.07458131
v -0.01695837 0.04377852 -0.07417183
v -0.01579363 0.04443507 -0.07293781
v -0.01278473 0.04546150 -0.07143455
v -0.01968533 0.04216489 -0.07524599
v -0.02023534 0.04231284 -0.07435413
v -0.02113201 0.04214177 -0.07379321
v -0.01278473 0.04546612 -0.06993128
v -0.01278473 0.04547075 -0.06541868
v -0.01374148 0.04518409 -0.06842802
v -0.01449486 0.04493904 -0.06993128
v -0.01450872 0.04493904 -0.04737110
v -0.04062285 0.02408668 -0.04737110
v -0.04062285 0.02408668 -0.04737390
v -0.04061823 0.02408668 -0.06993128
v -0.04015603 0.02483570 -0.06993128
v -0.03940264 0.02602858 -0.06993128
v -0.03889886 0.02678223 -0.06993128
v -0.03760008 0.02857618 -0.07089607
v -0.03803455 0.02796586 -0.07141211
v -0.03712864 0.02917724 -0.07141211
v -0.03625971 0.03028690 -0.07143455
v -0.03564499 0.03103592 -0.07143455
v -0.03489623 0.03193290 -0.07143455
v -0.03419369 0.03268192 -0.07143455
v -0.03416134 0.03265880 -0.07293781
v -0.03327854 0.03325986 -0.07408209
v -0.03389326 0.03239063 -0.07458411
v -0.03300122 0.03300094 -0.07508333
v -0.03350039 0.03199763 -0.07538342
v -0.02774604 0.03682465 -0.07546195
v -0.02631786 0.03800366 -0.07540586
v -0.02934062 0.03537284 -0.07552645
v -0.02449680 0.03935375 -0.07535537
v -0.02268499 0.04067147 -0.07525160
v -0.03199825 0.03346793 -0.07538342
v -0.03044990 0.03489661 -0.07536940
v -0.01448562 0.04493441 -0.07143455
v -0.01373223 0.04517946 -0.07143455
v -0.01579363 0.04449980 -0.07143455
v -0.01796134 0.04357508 -0.07324071
v -0.01739283 0.04383863 -0.07281722
v -0.01805840 0.04361670 -0.07223666
v -0.02068830 0.04191059 -0.07479445
v -0.02197320 0.04183199 -0.07293781
v -0.02122445 0.04218338 -0.07293781
v -0.02030467 0.04259951 -0.07293781
v -0.02170051 0.04161468 -0.07435413
v -0.02323962 0.04082867 -0.07429524
v -0.02406233 0.04060674 -0.07369505
v -0.01579363 0.04450905 -0.05038324
v -0.01579363 0.04450442 -0.06993128
v -0.01579363 0.04450905 -0.04737390
v -0.01579825 0.04450442 -0.04737110
v -0.04016065 0.02483570 -0.04737110
v -0.04015603 0.02484032 -0.05940563
v -0.03940727 0.02603320 -0.05038324
v -0.03890347 0.02678223 -0.05940563
v -0.03815472 0.02781791 -0.06692195
v -0.03815010 0.02781791 -0.06993128
v -0.03760008 0.02858080 -0.05790236
v -0.03702696 0.02932982 -0.04737110
v -0.03702233 0.02932982 -0.06090889
v -0.03701771 0.02932982 -0.06993128
v -0.03626433 0.03029615 -0.06993128
v -0.03626433 0.03029615 -0.06842802
v -0.03627357 0.03026841 -0.04737110
v -0.03263609 0.03410598 -0.04737390
v -0.03188270 0.03485500 -0.04737110
v -0.03344031 0.03341707 -0.07143455
v -0.03340796 0.03338008 -0.07293781
v -0.03172556 0.03471630 -0.07400917
v -0.03145286 0.03447125 -0.07501321
v -0.02885069 0.03630681 -0.07533855
v -0.02719603 0.03768464 -0.07526562
v -0.02549977 0.03904859 -0.07512259
v -0.02368333 0.04035707 -0.07469910
v -0.01729577 0.04393572 -0.07143455
v -0.01865463 0.04332078 -0.07281722
v -0.02030467 0.04265499 -0.07143455
v -0.01882102 0.04330692 -0.07143455
v -0.01807226 0.04362132 -0.07143455
v -0.02202867 0.04184586 -0.07143455
v -0.02127991 0.04221112 -0.07143455
v -0.02331357 0.04110609 -0.07293781
v -0.02580482 0.03926590 -0.07412135
v -0.02777377 0.03810538 -0.07293781
v -0.02672459 0.03885440 -0.07293781
v -0.02597121 0.03937686 -0.07293781
v -0.02484807 0.04013051 -0.07293781
v -0.02409469 0.04062524 -0.07293781
v -0.01730039 0.04394497 -0.04737110
v -0.01729577 0.04394034 -0.06993128
v -0.03940727 0.02603320 -0.04737110
v -0.03890347 0.02678223 -0.04737110
v -0.03815472 0.02781791 -0.04737110
v -0.03760008 0.02858080 -0.04737110
v -0.03263609 0.03410136 -0.04737110
v -0.03188270 0.03485500 -0.06541868
v -0.03263146 0.03417534 -0.06541868
v -0.03101840 0.03560402 -0.04737110
v -0.03101378 0.03560865 -0.04737390
v -0.03263146 0.03417534 -0.06692195
v -0.03262684 0.03416609 -0.07143455
v -0.03258524 0.03413372 -0.07293781
v -0.03079654 0.03530811 -0.07441864
v -0.03183648 0.03481339 -0.07293781
v -0.03013560 0.03614036 -0.07382687
v -0.02985366 0.03589993 -0.07482811
v -0.02824522 0.03734711 -0.07444388
v -0.02749183 0.03789732 -0.07444388
v -0.02030467 0.04266424 -0.06842802
v -0.01883027 0.04331154 -0.06993128
v -0.01807688 0.04362132 -0.06993128
v -0.02117360 0.04220650 -0.04737110
v -0.02030467 0.04265961 -0.04737390
v -0.02331357 0.04113845 -0.07143455
v -0.02415477 0.04066222 -0.06842802
v -0.02030467 0.04266886 -0.05940563
v -0.02030467 0.04266886 -0.06541868
v -0.02413166 0.04064835 -0.07143455
v -0.02852253 0.03755980 -0.07293781
v -0.02857337 0.03759679 -0.07215813
v -0.02677543 0.03889601 -0.07143455
v -0.02602205 0.03941385 -0.07143455
v -0.02488504 0.04016288 -0.07143455
v -0.01808151 0.04362594 -0.04737110
v -0.01808151 0.04362594 -0.06241215
v -0.03101378 0.03560865 -0.06692195
v -0.03187808 0.03485500 -0.06993128
v -0.03026502 0.03625132 -0.04737110
v -0.03187346 0.03485038 -0.07143455
v -0.03100915 0.03560402 -0.07143455
v -0.03096293 0.03556703 -0.07293781
v -0.03020955 0.03620509 -0.07293781
v -0.02932213 0.03692174 -0.07293781
v -0.02934062 0.03652411 -0.07437377
v -0.01883489 0.04331154 -0.05639910
v -0.02030930 0.04265499 -0.04737110
v -0.02415015 0.04065760 -0.06692195
v -0.02603129 0.03941848 -0.04737110
v -0.01883489 0.04331154 -0.04737110
v -0.02414553 0.04065760 -0.06993128
v -0.02490815 0.04017212 -0.06842802
v -0.03025577 0.03624670 -0.07143455
v -0.02917885 0.03711594 -0.07156636
v -0.02857800 0.03760141 -0.07115409
v -0.02797252 0.03803603 -0.07156636
v -0.02781999 0.03815162 -0.06993128
v -0.02678005 0.03889601 -0.06993128
v -0.02603129 0.03941848 -0.06993128
v -0.02489891 0.04016750 -0.06993128
v -0.03101378 0.03560402 -0.06993128
v -0.03026502 0.03625132 -0.05338976
v -0.03026039 0.03625132 -0.06842802
v -0.02934062 0.03700034 -0.04737110
v -0.02933600 0.03700497 -0.04737390
v -0.02678467 0.03890064 -0.04737390
v -0.02678930 0.03889601 -0.04737110
v -0.02933138 0.03700034 -0.06993128
v -0.02858262 0.03760141 -0.06993128
v -0.02781999 0.03815624 -0.06391542
v -0.02678467 0.03890064 -0.06391542
v -0.02933600 0.03700497 -0.05188650
v -0.02933600 0.03700034 -0.06692195
v -0.02858262 0.03760603 -0.04737110
v -0.02782462 0.03815624 -0.04737110
v -0.02858262 0.03760603 -0.05940563
f 1 2 7
f 1 7 13
f 1 13 23
f 1 23 35
f 1 35 55
f 1 55 81
f 1 81 114
f 1 114 165
f 1 165 163
f 1 163 115
f 1 115 82
f 1 82 56
f 1 56 36
f 1 36 24
f 1 24 14
f 1 14 8
f 1 8 3
f 1 3 4
f 1 4 5
f 1 5 2
f 2 5 6
f 2 6 12
f 2 12 7
f 3 8 15
f 3 15 25
f 3 25 39
f 3 39 60
f 3 60 92
f 3 92 134
f 3 134 197
f 3 197 256
f 3 256 309
f 3 309 365
f 3 365 411
f 3 411 453
f 3 453 491
f 3 491 526
f 3 526 541
f 3 541 538
f 3 538 514
f 3 514 540
f 3 540 558
f 3 558 566
f 3 566 565
f 3 565 555
f 3 555 530
f 3 530 500
f 3 500 468
f 3 468 497
f 3 497 466
f 3 466 461
f 3 461 496
f 3 496 495
f 3 495 494
f 3 494 493
f 3 493 454
f 3 454 412
f 3 412 366
f 3 366 313
f 3 313 258
f 3 258 201
f 3 201 140
f 3 140 97
f 3 97 64
f 3 64 43
f 3 43 26
f 3 26 17
f 3 17 9
f 3 9 4
f 4 9 10
f 4 10 5
f 5 10 11
f 5 11 6
f 6 11 12
f 7 12 21
f 7 21 13
f 8 14 15
f 9 16 10
f 9 17 18
f 9 18 16
f 10 16 11
f 11 16 19
f 11 19 20
f 11 20 12
f 12 20 32
f 12 32 21
f 13 21 22
f 13 22 23
f 14 24 37
f 14 37 57
f 14 57 85
f 14 85 126
f 14 126 184
f 14 184 236
f 14 236 235
f 14 235 297
f 14 297 233
f 14 233 295
f 14 295 296
f 14 296 349
f 14 349 300
f 14 300 242
f 14 242 185
f 14 185 127
f 14 127 87
f 14 87 58
f 14 58 38
f 14 38 25
f 14 25 15
f 16 18 19
f 17 26 27
f 17 27 18
f 18 27 28
f 18 28 29
f 18 29 30
f 18 30 19
f 19 30 20
f 20 30 31
f 20 31 32
f 21 32 33
f 21 33 22
f 22 33 34
f 22 34 35
f 22 35 23
f 24 36 37
f 25 38 59
f 25 59 39
f 26 40 41
f 26 41 42
f 26 42 27
f 26 43 61
f 26 61 40
f 27 42 28
f 28 42 44
f 28 44 45
f 28 45 46
f 28 46 29
f 29 46 47
f 29 47 48
f 29 48 31
f 29 31 30
f 31 48 49
f 31 49 32
f 32 49 33
f 33 49 50
f 33 50 34
f 34 50 51
f 34 51 52
f 34 52 53
f 34 53 54
f 34 54 35
f 35 54 55
f 36 56 57
f 36 57 37
f 38 58 59
f 39 59 60
f 40 61 62
f 40 62 41
f 41 62 63
f 41 63 42
f 42 63 65
f 42 65 44
f 43 64 93
f 43 93 61
f 44 65 45
f 45 66 46
f 45 65 67
f 45 67 66
f 46 66 68
f 46 68 47
f 47 69 70
f 47 70 48
f 47 68 71
f 47 71 72
f 47 72 73
f 47 73 69
f 48 70 74
f 48 74 49
f 49 74 50
f 50 74 75
f 50 75 51
f 51 75 76
f 51 76 77
f 51 77 52
f 52 77 53
f 53 77 78
f 53 78 54
f 54 79 80
f 54 80 55
f 54 78 79
f 55 80 81
f 56 82 57
f 57 83 84
f 57 84 85
f 57 82 86
f 57 86 83
f 58 87 59
f 59 87 88
f 59 88 89
f 59 89 90
f 59 90 60
f 60 90 91
f 60 91 92
f 61 93 94
f 61 94 95
f 61 95 62
f 62 65 63
f 62 95 139
f 62 139 96
f 62 96 65
f 64 97 135
f 64 135 93
f 65 96 67
f 66 67 96
f 66 96 98
f 66 98 99
f 66 99 68
f 68 99 98
f 68 98 100
f 68 100 71
f 69 73 70
f 70 73 101
f 70 101 102
f 70 102 103
f 70 103 74
f 71 100 73
f 71 73 72
f 73 100 104
f 73 104 105
f 73 105 101
f 74 103 75
f 75 103 76
f 76 103 106
f 76 106 107
f 76 107 108
f 76 108 77
f 77 108 109
f 77 109 110
f 77 110 111
f 77 111 78
f 78 111 79
f 79 111 112
f 79 112 80
f 80 112 113
f 80 113 81
f 81 113 114
f 82 115 162
f 82 162 116
f 82 116 122
f 82 122 86
f 83 117 167
f 83 167 118
f 83 118 170
f 83 170 119
f 83 119 120
f 83 120 121
f 83 121 84
f 83 86 122
f 83 122 123
f 83 123 124
f 83 124 168
f 83 168 117
f 84 121 125
f 84 125 85
f 85 125 126
f 87 127 128
f 87 128 88
f 88 128 89
f 89 128 129
f 89 129 130
f 89 130 131
f 89 131 91
f 89 91 90
f 91 131 192
f 91 192 132
f 91 132 133
f 91 133 134
f 91 134 92
f 93 135 136
f 93 136 94
f 94 136 137
f 94 137 138
f 94 138 139
f 94 139 95
f 96 139 98
f 97 140 141
f 97 141 198
f 97 198 135
f 98 139 142
f 98 142 100
f 100 142 143
f 100 143 144
f 100 144 145
f 100 145 146
f 100 146 147
f 100 147 148
f 100 148 104
f 101 105 149
f 101 149 102
f 102 106 103
f 102 149 150
f 102 150 106
f 104 148 151
f 104 151 152
f 104 152 153
f 104 153 154
f 104 154 105
f 105 154 155
f 105 155 149
f 106 150 107
f 107 150 149
f 107 149 155
f 107 155 156
f 107 156 157
f 107 157 108
f 108 157 158
f 108 158 159
f 108 159 109
f 109 159 110
f 110 159 111
f 111 159 160
f 111 160 164
f 111 164 112
f 112 161 162
f 112 162 163
f 112 163 113
f 112 164 161
f 113 163 165
f 113 165 114
f 115 163 162
f 116 162 161
f 116 161 166
f 116 166 122
f 117 168 183
f 117 183 167
f 118 167 169
f 118 169 170
f 119 170 171
f 119 171 172
f 119 172 173
f 119 173 174
f 119 174 175
f 119 175 176
f 119 176 177
f 119 177 178
f 119 178 234
f 119 234 179
f 119 179 126
f 119 126 180
f 119 180 121
f 119 121 120
f 121 180 125
f 122 166 123
f 123 181 182
f 123 182 124
f 123 166 161
f 123 161 181
f 124 182 183
f 124 183 168
f 125 180 126
f 126 179 184
f 127 185 186
f 127 186 128
f 128 186 187
f 128 187 129
f 129 187 188
f 129 188 189
f 129 189 130
f 130 189 190
f 130 190 191
f 130 191 131
f 131 191 192
f 132 192 193
f 132 193 194
f 132 194 133
f 133 194 134
f 134 194 195
f 134 195 196
f 134 196 197
f 135 198 199
f 135 199 136
f 136 199 200
f 136 200 137
f 137 144 143
f 137 143 138
f 137 200 144
f 138 143 139
f 139 143 142
f 140 201 141
f 141 201 257
f 141 257 198
f 144 200 145
f 145 200 146
f 146 200 202
f 146 202 203
f 146 203 147
f 147 203 204
f 147 204 205
f 147 205 206
f 147 206 207
f 147 207 152
f 147 152 151
f 147 151 148
f 152 207 208
f 152 208 153
f 153 208 209
f 153 209 210
f 153 210 211
f 153 211 154
f 154 211 156
f 154 156 155
f 156 211 212
f 156 212 213
f 156 213 157
f 157 213 158
f 158 213 214
f 158 214 159
f 159 214 215
f 159 215 160
f 160 215 164
f 161 164 216
f 161 216 181
f 164 215 217
f 164 217 216
f 167 218 169
f 167 183 219
f 167 219 218
f 169 218 171
f 169 171 170
f 171 218 220
f 171 220 172
f 172 221 173
f 172 220 222
f 172 222 221
f 173 223 174
f 173 221 224
f 173 224 223
f 174 223 225
f 174 225 226
f 174 226 227
f 174 227 175
f 175 227 228
f 175 228 229
f 175 229 176
f 176 229 230
f 176 230 231
f 176 231 232
f 176 232 177
f 177 232 178
f 178 232 233
f 178 233 234
f 179 234 235
f 179 235 236
f 179 236 184
f 181 216 237
f 181 237 182
f 182 237 279
f 182 279 238
f 182 238 183
f 183 238 239
f 183 239 240
f 183 240 241
f 183 241 219
f 185 242 243
f 185 243 186
f 186 243 187
f 187 243 244
f 187 244 188
f 188 244 245
f 188 245 189
f 189 245 246
f 189 246 190
f 190 247 191
f 190 246 248
f 190 248 249
f 190 249 247
f 191 247 250
f 191 250 251
f 191 251 192
f 192 251 193
f 193 251 252
f 193 252 194
f 194 252 195
f 195 252 196
f 196 252 253
f 196 253 254
f 196 254 197
f 197 254 255
f 197 255 256
f 198 257 199
f 199 257 200
f 200 257 202
f 201 258 310
f 201 310 257
f 202 257 312
f 202 312 259
f 202 259 203
f 203 259 204
f 204 259 260
f 204 260 261
f 204 261 205
f 205 261 206
f 206 262 263
f 206 263 207
f 206 261 264
f 206 264 262
f 207 263 265
f 207 265 266
f 207 266 267
f 207 267 268
f 207 268 209
f 207 209 208
f 209 268 269
f 209 269 270
f 209 270 210
f 210 270 271
f 210 271 212
f 210 212 211
f 212 271 272
f 212 272 273
f 212 273 274
f 212 274 213
f 213 274 275
f 213 275 276
f 213 276 214
f 214 276 277
f 214 277 215
f 215 277 217
f 216 217 278
f 216 278 279
f 216 279 237
f 217 277 278
f 218 219 280
f 218 280 281
f 218 281 220
f 219 241 239
f 219 239 280
f 220 281 222
f 221 222 282
f 221 282 224
f 222 281 283
f 222 283 282
f 223 284 285
f 223 285 225
f 223 224 286
f 223 286 287
f 223 287 284
f 224 282 286
f 225 285 226
f 226 288 289
f 226 289 228
f 226 228 227
f 226 285 288
f 228 289 290
f 228 290 291
f 228 291 292
f 228 292 293
f 228 293 229
f 229 293 294
f 229 294 230
f 230 294 231
f 231 294 232
f 232 295 233
f 232 294 296
f 232 296 295
f 233 297 234
f 234 297 235
f 238 279 239
f 239 281 280
f 239 241 240
f 239 279 278
f 239 278 298
f 239 298 299
f 239 299 281
f 242 300 243
f 243 300 294
f 243 294 293
f 243 293 292
f 243 292 291
f 243 291 290
f 243 290 244
f 244 290 301
f 244 301 245
f 245 301 302
f 245 302 246
f 246 249 248
f 246 302 249
f 247 251 250
f 247 249 303
f 247 303 304
f 247 304 305
f 247 305 251
f 249 302 306
f 249 306 307
f 249 307 303
f 251 305 252
f 252 305 253
f 253 305 304
f 253 304 308
f 253 308 255
f 253 255 254
f 255 309 256
f 255 308 309
f 257 310 311
f 257 311 312
f 258 313 314
f 258 314 310
f 259 312 315
f 259 315 260
f 260 315 261
f 261 315 314
f 261 314 313
f 261 313 264
f 262 264 316
f 262 316 317
f 262 317 318
f 262 318 319
f 262 319 263
f 263 319 265
f 264 313 316
f 265 319 320
f 265 320 321
f 265 321 266
f 266 321 320
f 266 320 322
f 266 322 323
f 266 323 267
f 267 323 324
f 267 324 325
f 267 325 326
f 267 326 327
f 267 327 328
f 267 328 269
f 267 269 268
f 269 328 327
f 269 327 329
f 269 329 330
f 269 330 331
f 269 331 270
f 270 331 332
f 270 332 272
f 270 272 271
f 272 332 273
f 273 332 333
f 273 333 334
f 273 334 335
f 273 335 274
f 274 335 275
f 275 335 336
f 275 336 337
f 275 337 276
f 276 337 338
f 276 338 277
f 277 338 278
f 278 338 337
f 278 337 298
f 281 299 283
f 282 283 299
f 282 299 339
f 282 339 340
f 282 340 286
f 284 341 342
f 284 342 285
f 284 287 343
f 284 343 344
f 284 344 341
f 285 342 288
f 286 340 287
f 287 340 343
f 288 345 346
f 288 346 347
f 288 347 289
f 288 342 348
f 288 348 345
f 289 347 301
f 289 301 290
f 294 300 349
f 294 349 296
f 298 337 350
f 298 350 299
f 299 350 351
f 299 351 339
f 301 347 302
f 302 347 346
f 302 346 345
f 302 345 306
f 303 307 352
f 303 352 353
f 303 353 304
f 304 353 354
f 304 354 355
f 304 355 356
f 304 356 359
f 304 359 308
f 306 345 357
f 306 357 307
f 307 353 352
f 307 357 358
f 307 358 353
f 308 359 360
f 308 360 361
f 308 361 309
f 309 362 363
f 309 363 364
f 309 364 365
f 309 361 360
f 309 360 359
f 309 359 362
f 310 314 315
f 310 315 311
f 311 315 312
f 313 366 316
f 316 366 317
f 317 366 318
f 318 366 367
f 318 367 319
f 319 367 368
f 319 368 369
f 319 369 320
f 320 369 370
f 320 370 371
f 320 371 372
f 320 372 323
f 320 323 322
f 323 372 373
f 323 373 324
f 324 373 325
f 325 373 374
f 325 374 375
f 325 375 326
f 326 330 376
f 326 376 329
f 326 329 327
f 326 375 377
f 326 377 378
f 326 378 379
f 326 379 380
f 326 380 381
f 326 381 382
f 326 382 330
f 329 376 330
f 330 382 383
f 330 383 331
f 331 384 332
f 331 383 384
f 332 384 333
f 333 384 334
f 334 385 386
f 334 386 335
f 334 384 385
f 335 386 336
f 336 386 350
f 336 350 337
f 339 351 340
f 340 351 387
f 340 387 343
f 341 344 388
f 341 388 389
f 341 389 390
f 341 390 391
f 341 391 392
f 341 392 342
f 342 392 393
f 342 393 348
f 343 387 394
f 343 394 344
f 344 394 388
f 345 348 357
f 348 393 357
f 350 386 395
f 350 395 351
f 351 395 396
f 351 396 387
f 353 358 354
f 354 397 398
f 354 398 399
f 354 399 355
f 354 358 400
f 354 400 401
f 354 401 402
f 354 402 397
f 355 399 403
f 355 403 356
f 356 403 407
f 356 407 359
f 357 393 358
f 358 401 400
f 358 393 404
f 358 404 405
f 358 405 406
f 358 406 401
f 359 407 408
f 359 408 362
f 362 408 409
f 362 409 363
f 363 409 410
f 363 410 411
f 363 411 364
f 364 411 365
f 366 412 413
f 366 413 367
f 367 413 414
f 367 414 368
f 368 414 369
f 369 414 370
f 370 414 415
f 370 415 371
f 371 415 372
f 372 415 416
f 372 416 417
f 372 417 373
f 373 417 418
f 373 418 419
f 373 419 374
f 374 419 418
f 374 418 420
f 374 420 421
f 374 421 378
f 374 378 377
f 374 377 375
f 378 421 379
f 379 422 380
f 379 421 422
f 380 422 423
f 380 423 424
f 380 424 425
f 380 425 381
f 381 383 382
f 381 425 426
f 381 426 427
f 381 427 383
f 383 427 428
f 383 428 429
f 383 429 385
f 383 385 384
f 385 429 386
f 386 429 395
f 387 396 394
f 388 430 431
f 388 431 389
f 388 394 432
f 388 432 430
f 389 433 390
f 389 431 433
f 390 433 434
f 390 434 391
f 391 434 404
f 391 404 393
f 391 393 392
f 394 396 432
f 395 435 396
f 395 429 435
f 396 435 436
f 396 436 432
f 397 437 438
f 397 438 398
f 397 402 439
f 397 439 437
f 398 438 399
f 399 438 403
f 401 440 402
f 401 406 440
f 402 440 441
f 402 441 442
f 402 442 439
f 403 438 407
f 404 434 443
f 404 443 405
f 405 443 406
f 406 444 445
f 406 445 446
f 406 446 440
f 406 443 447
f 406 447 448
f 406 448 449
f 406 449 444
f 407 438 409
f 407 409 408
f 409 438 410
f 410 450 411
f 410 438 437
f 410 437 439
f 410 439 451
f 410 451 450
f 411 450 452
f 411 452 453
f 412 454 413
f 413 454 455
f 413 455 414
f 414 455 415
f 415 455 456
f 415 456 416
f 416 456 457
f 416 457 417
f 417 457 458
f 417 458 459
f 417 459 418
f 418 459 458
f 418 458 460
f 418 460 461
f 418 461 462
f 418 462 463
f 418 463 464
f 418 464 420
f 420 464 421
f 421 464 422
f 422 464 423
f 423 464 465
f 423 465 466
f 423 466 424
f 424 467 468
f 424 468 469
f 424 469 425
f 424 466 467
f 425 469 470
f 425 470 426
f 426 428 427
f 426 470 471
f 426 471 472
f 426 472 428
f 428 472 436
f 428 436 435
f 428 435 429
f 430 432 473
f 430 473 431
f 431 473 474
f 431 474 433
f 432 436 473
f 433 474 475
f 433 475 434
f 434 448 447
f 434 447 443
f 434 475 476
f 434 476 448
f 436 472 473
f 439 442 477
f 439 477 492
f 439 492 451
f 440 478 442
f 440 442 441
f 440 446 478
f 442 478 446
f 442 446 479
f 442 479 480
f 442 480 481
f 442 481 477
f 444 482 483
f 444 483 445
f 444 449 484
f 444 484 482
f 445 483 479
f 445 479 446
f 448 476 475
f 448 475 449
f 449 475 485
f 449 485 486
f 449 486 487
f 449 487 488
f 449 488 489
f 449 489 490
f 449 490 484
f 450 451 491
f 450 491 452
f 451 492 491
f 452 491 453
f 454 493 456
f 454 456 455
f 456 493 494
f 456 494 457
f 457 494 495
f 457 495 458
f 458 495 496
f 458 496 460
f 460 496 461
f 461 466 465
f 461 465 464
f 461 464 462
f 462 464 463
f 466 497 467
f 467 497 468
f 468 498 502
f 468 502 499
f 468 499 469
f 468 500 501
f 468 501 528
f 468 528 498
f 469 499 502
f 469 502 503
f 469 503 470
f 470 503 504
f 470 504 471
f 471 505 472
f 471 504 506
f 471 506 507
f 471 507 505
f 472 505 508
f 472 508 473
f 473 508 474
f 474 508 509
f 474 509 475
f 475 509 510
f 475 510 485
f 477 481 492
f 479 483 511
f 479 511 512
f 479 512 480
f 480 512 481
f 481 512 513
f 481 513 492
f 482 514 515
f 482 515 483
f 482 484 516
f 482 516 517
f 482 517 514
f 483 515 518
f 483 518 519
f 483 519 511
f 484 490 520
f 484 520 516
f 485 510 509
f 485 509 507
f 485 507 521
f 485 521 486
f 486 521 522
f 486 522 487
f 487 523 488
f 487 522 523
f 488 523 524
f 488 524 489
f 489 525 490
f 489 524 525
f 490 525 520
f 491 492 527
f 491 527 526
f 492 513 527
f 498 528 529
f 498 529 502
f 500 530 501
f 501 530 553
f 501 553 528
f 502 529 503
f 503 529 531
f 503 531 504
f 504 531 506
f 505 507 508
f 506 531 532
f 506 532 533
f 506 533 507
f 507 534 535
f 507 535 521
f 507 509 536
f 507 536 508
f 507 533 534
f 508 536 509
f 511 519 512
f 512 537 527
f 512 527 513
f 512 519 537
f 514 538 515
f 514 517 539
f 514 539 540
f 515 538 541
f 515 541 518
f 516 520 542
f 516 542 517
f 517 542 551
f 517 551 543
f 517 543 540
f 517 540 539
f 518 541 537
f 518 537 519
f 520 525 542
f 521 535 522
f 522 535 534
f 522 534 544
f 522 544 545
f 522 545 546
f 522 546 547
f 522 547 523
f 523 547 548
f 523 548 549
f 523 549 550
f 523 550 524
f 524 550 543
f 524 543 551
f 524 551 525
f 525 551 542
f 526 527 537
f 526 537 541
f 528 552 529
f 528 553 554
f 528 554 552
f 529 552 532
f 529 532 531
f 530 555 556
f 530 556 563
f 530 563 553
f 532 552 554
f 532 554 544
f 532 544 533
f 533 544 534
f 540 543 550
f 540 550 562
f 540 562 557
f 540 557 558
f 544 554 559
f 544 559 545
f 545 559 546
f 546 559 560
f 546 560 548
f 546 548 547
f 548 560 561
f 548 561 562
f 548 562 549
f 549 562 550
f 553 563 554
f 554 563 564
f 554 564 559
f 555 565 556
f 556 565 567
f 556 567 563
f 557 562 566
f 557 566 558
f 559 564 560
f 560 567 561
f 560 564 567
f 561 567 566
f 561 566 562
f 563 567 564
f 565 566 567

