# https://github.com/mikedh/trimesh
v -0.04723543 -0.00000721 0.04533757
v -0.04324924 -0.00000721 0.04533757
v -0.04723735 -0.00000721 0.05863720
v -0.04722966 -0.00000366 -0.00074646
v -0.04722774 -0.00000366 -0.01277489
v -0.04722582 -0.00000366 -0.02406622
v -0.04722390 -0.00000366 -0.03313561
v -0.04332227 -0.00000721 0.07293031
v -0.04028938 -0.00000366 -0.03313561
v -0.04723735 -0.00000721 0.07293031
v -0.04723159 0.00075444 0.06240810
v -0.04722774 0.00075799 0.01417690
v -0.04722582 0.00075799 -0.00375891
v -0.04722390 0.00075799 -0.01878910
v -0.04722198 0.00075799 -0.03232375
v -0.04722006 0.00075799 -0.03313561
v -0.04334341 -0.00000721 0.07443653
v -0.02760237 0.02933937 -0.03313561
v -0.04723159 0.00075444 0.07293031
v -0.04718738 -0.00000721 0.07443653
v -0.04718354 0.00075444 0.07443653
v -0.04719315 0.00226003 -0.03313561
v -0.04720852 0.00144524 -0.03313561
v -0.03145787 0.02982825 0.07443653
v -0.04348756 -0.00000721 0.07533385
v -0.03702393 0.02933937 -0.03313561
v -0.03037002 0.03618006 0.02010566
v -0.03037002 0.03618360 0.02206054
v -0.03061027 0.03597459 0.04532689
v -0.04715086 0.00225649 0.07443653
v -0.04719315 0.00225649 0.07293031
v -0.04719315 0.00226003 0.01417690
v -0.04687794 -0.00000721 0.07548341
v -0.04687602 0.00075444 0.07547272
v -0.04686064 0.00225649 0.07546204
v -0.04649354 0.00827530 -0.03313561
v -0.04712587 0.00376208 0.07293031
v -0.04702593 0.00526767 0.07293031
v -0.03157511 0.02982825 0.07514157
v -0.03169619 0.02982825 0.07532316
v -0.03198065 0.02982825 0.07546204
v -0.04436398 -0.00000721 0.07575046
v -0.03703931 0.02933229 0.02206054
v -0.03628397 0.03027461 0.02010566
v -0.03628589 0.03026398 0.01616383
v -0.03265142 0.03410057 0.02010566
v -0.03200179 0.03475949 0.02010566
v -0.03189992 0.03486223 0.02010566
v -0.03103503 0.03561325 0.02010566
v -0.03038348 0.03616943 0.02010566
v -0.03729493 0.02898512 -0.03313561
v -0.03761782 0.02858481 0.02206054
v -0.03730838 0.02898866 0.02401543
v -0.03103888 0.03561325 0.02792520
v -0.03047766 0.03609150 0.02792520
v -0.03159433 0.03512792 0.04532689
v -0.03659148 0.02982825 0.07440448
v -0.03650307 0.02982825 0.07494929
v -0.03631472 0.02982825 0.07535522
v -0.03607832 0.02982825 0.07547272
v -0.03533066 0.02982825 0.07573979
v -0.03484056 0.02982825 0.07587866
v -0.03384113 0.02982825 0.07590002
v -0.03333564 0.02982825 0.07586797
v -0.04682989 0.00376208 0.07544068
v -0.04678184 0.00526767 0.07538727
v -0.04708551 0.00376208 0.07443653
v -0.04586698 -0.00000721 0.07590002
v -0.04586698 0.00075444 0.07590002
v -0.04586698 0.00376208 0.07585730
v -0.04620717 0.00978089 -0.03313561
v -0.04682413 0.00676971 0.07293031
v -0.04665115 0.00768724 0.06691609
v -0.04699518 0.00526767 0.07443653
v -0.03664915 0.02982825 0.06691609
v -0.03664915 0.02982825 0.06617901
v -0.03628397 0.03027461 0.02206054
v -0.03253033 0.03422811 0.02206054
v -0.03190185 0.03486223 0.02206054
v -0.03760245 0.02858127 -0.03313561
v -0.03815982 0.02781961 -0.03313561
v -0.03827706 0.02768145 0.02010566
v -0.03817904 0.02781607 0.02782906
v -0.03761782 0.02858481 0.02597031
v -0.03761014 0.02858835 0.07293031
v -0.03703162 0.02933937 0.06540987
v -0.03190185 0.03486223 0.02792520
v -0.03189800 0.03486223 0.04532689
v -0.03661647 0.02982825 0.07372081
v -0.03760629 0.02858127 0.07378490
v -0.03755824 0.02852813 0.07478905
v -0.03927265 0.02582869 0.07536590
v -0.03792342 0.02752204 0.07544068
v -0.03650692 0.02932520 0.07546204
v -0.03839430 0.02632465 0.07561159
v -0.03534604 0.02932520 0.07586797
v -0.03684903 0.02631403 0.07595344
v -0.03534604 0.02781961 0.07594275
v -0.04586698 0.00526767 0.07580388
v -0.04559021 0.00977735 0.07559023
v -0.04543453 0.01128648 0.07551546
v -0.04670881 0.00648277 0.07529113
v -0.04436398 0.00977735 0.07598548
v -0.04436398 0.01128648 0.07593207
v -0.04620909 0.00978089 -0.02480331
v -0.04585737 0.01128294 -0.02932198
v -0.04604572 0.01047169 -0.03313561
v -0.04650315 0.00844180 0.06691609
v -0.04665307 0.00768724 0.07293031
v -0.04676070 0.00689724 0.07451131
v -0.04664154 0.00763764 0.07405196
v -0.04660502 0.00748177 0.07505611
v -0.03628012 0.03027461 0.04532689
v -0.03702970 0.02933937 0.06842232
v -0.03702585 0.02933937 0.07293031
v -0.03664338 0.02982825 0.07293031
v -0.03265142 0.03410057 0.02985872
v -0.03264757 0.03410057 0.04532689
v -0.03215939 0.03460008 0.04532689
v -0.03890363 0.02678519 -0.03313561
v -0.03890555 0.02678519 -0.02932198
v -0.03857689 0.02726697 0.02401543
v -0.03817520 0.02781961 0.07293031
v -0.03817904 0.02781607 0.02792520
v -0.03887672 0.02675330 0.07443653
v -0.03802336 0.02794360 0.07435107
v -0.03891516 0.02679581 0.07293031
v -0.04087174 0.02301944 0.07543000
v -0.03958401 0.02481198 0.07552614
v -0.03938605 0.02599874 0.07443653
v -0.04057576 0.02402553 0.07493860
v -0.04216139 0.02114543 0.07524839
v -0.03835010 0.02481198 0.07592139
v -0.04135608 0.01878962 0.07596411
v -0.03985117 0.02180435 0.07595344
v -0.04400073 0.01579616 0.07553681
v -0.04524810 0.01278852 0.07534453
v -0.04436398 0.01278852 0.07576115
v -0.04513470 0.01359977 0.07521635
v -0.04285907 0.01579616 0.07594275
v -0.04621101 0.00978089 -0.01277489
v -0.04621293 0.00978089 0.00074908
v -0.04586121 0.01128294 -0.00225269
v -0.04546913 0.01278852 -0.02330777
v -0.04546720 0.01278852 -0.03313561
v -0.04585545 0.01128294 -0.03313561
v -0.04650123 0.00844180 0.07293031
v -0.04622062 0.00977735 0.06842232
v -0.04614374 0.00977735 0.07443653
v -0.04581124 0.01128648 0.07443653
v -0.04621870 0.00977735 0.07293031
v -0.03940719 0.02603416 -0.03313561
v -0.03940911 0.02603416 -0.02630953
v -0.03890747 0.02678873 -0.01126866
v -0.03891516 0.02679581 0.05037968
v -0.03879216 0.02696231 0.02206054
v -0.03941296 0.02604479 0.07293031
v -0.04236128 0.02029521 0.07541931
v -0.04136569 0.02170515 0.07553681
v -0.04135608 0.02029521 0.07583593
v -0.04062188 0.02408575 0.07393446
v -0.04021442 0.02468090 0.07443653
v -0.04096016 0.02343746 0.07443653
v -0.04178853 0.02199564 0.07443653
v -0.04221521 0.02124108 0.07443653
v -0.04268225 0.02029521 0.07443653
v -0.04360672 0.01804569 0.07514157
v -0.04269378 0.01878962 0.07557955
v -0.04379892 0.01703606 0.07538727
v -0.04445432 0.01579616 0.07443653
v -0.04516930 0.01370605 0.07443653
v -0.04543069 0.01278852 0.07443653
v -0.04586698 0.01128648 0.04736723
v -0.04547297 0.01278852 0.00376153
v -0.04518852 0.01376273 -0.02932198
v -0.04519620 0.01378044 0.05338144
v -0.04518852 0.01375919 -0.03313561
v -0.04586698 0.01128648 0.07293031
v -0.03981465 0.02538942 -0.03313561
v -0.04016061 0.02484386 -0.02932198
v -0.04016253 0.02484740 -0.00977312
v -0.03941296 0.02604479 0.04285925
v -0.04016445 0.02485449 0.07293031
v -0.04063149 0.02409992 0.07293031
v -0.04109277 0.02330639 0.07293031
v -0.04224019 0.02129067 0.07293031
v -0.04274183 0.02029521 0.07293031
v -0.04338185 0.01869043 0.07455403
v -0.04335879 0.01889944 0.07293031
v -0.04363940 0.01811654 0.07413742
v -0.04387004 0.01744699 0.07455403
v -0.04451967 0.01579616 0.07293031
v -0.04494635 0.01453501 0.07293031
v -0.04519620 0.01378044 0.07293031
v -0.04548066 0.01278852 0.07293031
v -0.04548066 0.01278852 0.06691609
v -0.04500209 0.01435434 0.01616383
v -0.04494250 0.01451375 -0.02480331
v -0.04494635 0.01453501 0.06842232
v -0.04494058 0.01451021 -0.03313561
v -0.04016061 0.02484032 -0.03313561
v -0.04062381 0.02408930 -0.03232375
v -0.04062765 0.02409638 0.00677397
v -0.04016253 0.02485095 0.00526775
v -0.04016445 0.02485449 0.06391433
v -0.04063149 0.02409992 0.06089120
v -0.04109469 0.02330639 0.06089120
v -0.04109469 0.02330639 0.05790012
v -0.04108893 0.02330639 0.00977574
v -0.04108701 0.02330639 -0.00526513
v -0.04108508 0.02330639 -0.02029532
v -0.04108316 0.02330639 -0.03313561
v -0.04365477 0.01809882 -0.03313561
v -0.04365093 0.01814842 0.07293031
v -0.04397767 0.01729466 -0.03313561
v -0.04397575 0.01729821 0.07293031
v -0.04397382 0.01730529 0.04135302
v -0.04451967 0.01579616 0.05940634
v -0.04451390 0.01579262 -0.01728288
v -0.04451198 0.01579262 -0.03313561
v -0.04062188 0.02408930 -0.03313561
v -0.04087174 0.02366773 -0.03313561
v -0.04397382 0.01730529 0.03762485
f 1 2 8
f 1 8 17
f 1 17 25
f 1 25 42
f 1 42 68
f 1 68 33
f 1 33 20
f 1 20 10
f 1 10 3
f 1 3 4
f 1 4 5
f 1 5 6
f 1 6 7
f 1 7 9
f 1 9 2
f 2 9 8
f 3 10 19
f 3 19 11
f 3 11 12
f 3 12 13
f 3 13 14
f 3 14 4
f 4 14 15
f 4 15 5
f 5 15 6
f 6 15 7
f 7 15 16
f 7 16 23
f 7 23 22
f 7 22 36
f 7 36 71
f 7 71 107
f 7 107 146
f 7 146 145
f 7 145 177
f 7 177 200
f 7 200 220
f 7 220 215
f 7 215 213
f 7 213 212
f 7 212 222
f 7 222 221
f 7 221 201
f 7 201 179
f 7 179 152
f 7 152 120
f 7 120 81
f 7 81 80
f 7 80 51
f 7 51 26
f 7 26 18
f 7 18 9
f 8 9 17
f 9 18 17
f 10 20 21
f 10 21 19
f 11 19 32
f 11 32 22
f 11 22 12
f 12 22 13
f 13 22 14
f 14 22 15
f 15 22 23
f 15 23 16
f 17 24 25
f 17 18 24
f 18 26 27
f 18 27 28
f 18 28 29
f 18 29 24
f 19 21 30
f 19 30 31
f 19 31 32
f 20 33 21
f 21 33 34
f 21 34 35
f 21 35 30
f 22 32 37
f 22 37 38
f 22 38 36
f 24 29 39
f 24 39 25
f 25 40 41
f 25 41 42
f 25 39 40
f 26 43 44
f 26 44 45
f 26 45 46
f 26 46 47
f 26 47 48
f 26 48 49
f 26 49 50
f 26 50 27
f 26 51 52
f 26 52 53
f 26 53 43
f 27 50 28
f 28 50 49
f 28 49 54
f 28 54 55
f 28 55 29
f 29 55 54
f 29 54 56
f 29 56 57
f 29 57 58
f 29 58 59
f 29 59 60
f 29 60 61
f 29 61 62
f 29 62 63
f 29 63 64
f 29 64 41
f 29 41 40
f 29 40 39
f 30 35 65
f 30 65 66
f 30 66 67
f 30 67 31
f 31 67 37
f 31 37 32
f 33 68 69
f 33 69 35
f 33 35 34
f 35 69 70
f 35 70 65
f 36 38 72
f 36 72 73
f 36 73 71
f 37 67 74
f 37 74 38
f 38 74 72
f 41 64 42
f 42 64 68
f 43 53 75
f 43 75 76
f 43 76 44
f 44 76 75
f 44 75 77
f 44 77 117
f 44 117 78
f 44 78 46
f 44 46 45
f 46 78 47
f 47 78 79
f 47 79 48
f 48 79 49
f 49 79 54
f 51 80 52
f 52 80 81
f 52 81 82
f 52 82 83
f 52 83 124
f 52 124 84
f 52 84 53
f 53 84 85
f 53 85 86
f 53 86 75
f 54 79 87
f 54 87 56
f 56 87 88
f 56 88 89
f 56 89 57
f 57 89 90
f 57 90 91
f 57 91 58
f 58 91 59
f 59 91 92
f 59 92 93
f 59 93 94
f 59 94 60
f 60 94 61
f 61 94 95
f 61 95 96
f 61 96 62
f 62 96 97
f 62 97 98
f 62 98 63
f 63 68 64
f 63 98 68
f 65 70 99
f 65 99 66
f 66 99 100
f 66 100 101
f 66 101 102
f 66 102 74
f 66 74 67
f 68 98 103
f 68 103 69
f 69 103 70
f 70 103 104
f 70 104 99
f 71 105 106
f 71 106 107
f 71 73 108
f 71 108 105
f 72 109 73
f 72 74 110
f 72 110 111
f 72 111 109
f 73 109 108
f 74 102 112
f 74 112 110
f 75 113 77
f 75 86 114
f 75 114 115
f 75 115 116
f 75 116 113
f 77 113 117
f 78 117 118
f 78 118 119
f 78 119 87
f 78 87 79
f 81 120 121
f 81 121 122
f 81 122 82
f 82 122 123
f 82 123 124
f 82 124 83
f 84 124 123
f 84 123 85
f 85 114 86
f 85 123 90
f 85 90 115
f 85 115 114
f 87 119 88
f 88 119 116
f 88 116 89
f 89 116 90
f 90 125 126
f 90 126 91
f 90 116 115
f 90 123 127
f 90 127 125
f 91 126 125
f 91 125 92
f 92 128 129
f 92 129 95
f 92 95 93
f 92 125 130
f 92 130 131
f 92 131 132
f 92 132 128
f 93 95 94
f 95 133 96
f 95 129 133
f 96 133 97
f 97 134 103
f 97 103 98
f 97 133 135
f 97 135 134
f 99 104 100
f 100 104 101
f 101 136 137
f 101 137 102
f 101 104 138
f 101 138 136
f 102 139 112
f 102 137 139
f 103 134 140
f 103 140 104
f 104 140 138
f 105 141 106
f 105 108 141
f 106 141 142
f 106 142 143
f 106 143 174
f 106 174 144
f 106 144 145
f 106 145 146
f 106 146 107
f 108 109 147
f 108 147 148
f 108 148 142
f 108 142 141
f 109 111 147
f 110 112 111
f 111 112 149
f 111 149 150
f 111 150 151
f 111 151 147
f 112 139 150
f 112 150 149
f 113 116 118
f 113 118 117
f 116 119 118
f 120 152 121
f 121 152 153
f 121 153 154
f 121 154 122
f 122 155 127
f 122 127 123
f 122 154 156
f 122 156 155
f 125 127 130
f 127 157 130
f 127 155 182
f 127 182 157
f 128 132 158
f 128 158 159
f 128 159 129
f 129 159 160
f 129 160 133
f 130 161 162
f 130 162 131
f 130 157 161
f 131 162 161
f 131 161 163
f 131 163 164
f 131 164 165
f 131 165 132
f 132 165 166
f 132 166 167
f 132 167 158
f 133 160 135
f 134 135 160
f 134 160 140
f 136 138 140
f 136 140 168
f 136 168 169
f 136 169 137
f 137 169 139
f 139 167 170
f 139 170 171
f 139 171 172
f 139 172 150
f 139 169 167
f 140 160 168
f 142 148 173
f 142 173 143
f 143 173 174
f 144 175 145
f 144 174 176
f 144 176 175
f 145 175 177
f 147 151 148
f 148 151 178
f 148 178 173
f 150 172 178
f 150 178 151
f 152 179 180
f 152 180 153
f 153 180 181
f 153 181 182
f 153 182 155
f 153 155 154
f 154 155 156
f 157 183 161
f 157 182 205
f 157 205 183
f 158 169 168
f 158 168 160
f 158 160 159
f 158 167 169
f 161 164 163
f 161 183 184
f 161 184 185
f 161 185 186
f 161 186 164
f 164 186 165
f 165 186 187
f 165 187 166
f 166 188 167
f 166 187 189
f 166 189 188
f 167 188 190
f 167 190 191
f 167 191 170
f 170 191 192
f 170 192 171
f 171 192 193
f 171 193 194
f 171 194 195
f 171 195 172
f 172 195 178
f 173 178 195
f 173 195 196
f 173 196 174
f 174 196 176
f 175 197 198
f 175 198 177
f 175 176 197
f 176 196 195
f 176 195 194
f 176 194 193
f 176 193 199
f 176 199 197
f 177 198 200
f 179 201 180
f 180 201 202
f 180 202 203
f 180 203 181
f 181 203 204
f 181 204 182
f 182 204 205
f 183 205 206
f 183 206 184
f 184 206 208
f 184 208 207
f 184 207 185
f 185 207 186
f 186 207 208
f 186 208 209
f 186 209 210
f 186 210 211
f 186 211 212
f 186 212 187
f 187 212 213
f 187 213 189
f 188 189 190
f 189 214 190
f 189 213 215
f 189 215 214
f 190 214 216
f 190 216 191
f 191 216 192
f 192 216 217
f 192 217 223
f 192 223 215
f 192 215 218
f 192 218 199
f 192 199 193
f 197 219 220
f 197 220 198
f 197 199 219
f 198 220 200
f 199 218 219
f 201 221 202
f 202 221 222
f 202 222 203
f 203 222 212
f 203 212 211
f 203 211 210
f 203 210 209
f 203 209 208
f 203 208 206
f 203 206 204
f 204 206 205
f 214 215 223
f 214 223 217
f 214 217 216
f 215 220 219
f 215 219 218

