# https://github.com/mikedh/trimesh
v -0.04025341 -0.01645912 0.10000011
v -0.04018867 -0.01664824 0.10000011
v -0.04025341 -0.01645912 0.10300000
v -0.03638361 -0.01645912 0.09997494
v -0.04018867 -0.01664824 0.10300000
v -0.03463844 -0.02000007 0.09997494
v -0.03767104 -0.02175088 0.10000011
v -0.03638662 -0.01645912 0.10300000
v -0.03360247 -0.01645912 0.09997494
v -0.03767104 -0.02175088 0.10300000
v -0.03173232 -0.02434995 0.09997494
v -0.03451045 -0.02648089 0.10000011
v -0.03360549 -0.01645912 0.10000011
v -0.02487209 -0.03127643 0.10300000
v -0.02487209 -0.02795644 0.09997494
v -0.03360398 -0.01645912 0.09998827
v -0.02487209 -0.02796019 0.10000011
v -0.03451045 -0.02648089 0.10300000
v -0.02828263 -0.02828039 0.09997494
v -0.03075960 -0.03075774 0.10000011
v -0.02487209 -0.03558700 0.10300000
v -0.02487209 -0.03127269 0.09997494
v -0.03075960 -0.03075774 0.10300000
v -0.02648174 -0.03451029 0.10000011
v -0.02648174 -0.03451029 0.10300000
v -0.02487209 -0.03558700 0.10000011
f 1 2 5
f 1 5 3
f 1 3 8
f 1 8 13
f 1 13 16
f 1 16 9
f 1 9 4
f 1 4 2
f 2 4 6
f 2 6 7
f 2 7 10
f 2 10 5
f 3 5 10
f 3 10 18
f 3 18 23
f 3 23 25
f 3 25 21
f 3 21 14
f 3 14 8
f 4 9 15
f 4 15 22
f 4 22 19
f 4 19 11
f 4 11 6
f 6 11 7
f 7 11 12
f 7 12 18
f 7 18 10
f 8 14 13
f 9 16 17
f 9 17 15
f 11 19 20
f 11 20 12
f 12 20 23
f 12 23 18
f 13 14 17
f 13 17 16
f 14 21 26
f 14 26 22
f 14 22 15
f 14 15 17
f 19 22 20
f 20 22 24
f 20 24 25
f 20 25 23
f 21 25 24
f 21 24 26
f 22 26 24

