# https://github.com/mikedh/trimesh
v 0.02051283 -0.03429482 0.09997134
v 0.02434868 -0.03173106 0.09997134
v 0.02051283 -0.03129289 0.09997134
v 0.01944896 -0.03058321 0.06311899
v 0.02051283 -0.02987354 0.06312848
v 0.02210782 -0.02880646 0.06311899
v 0.02567975 -0.02567737 0.06312848
v 0.02828288 -0.02828065 0.09997134
v 0.03341373 -0.01683998 0.09997134
v 0.01944896 -0.02744726 0.06311899
v 0.01944896 -0.02777546 0.03972701
v 0.01944896 -0.02534573 0.01949379
v 0.01944896 -0.02316861 0.00306438
v 0.02594203 -0.02538010 0.06312848
v 0.02143081 -0.02142965 0.00306438
v 0.03173022 -0.02434910 0.09997134
v 0.02923692 -0.01674032 0.06311899
v 0.02182587 -0.01674032 0.00306438
v 0.03619554 -0.01683998 0.09997134
v 0.01944896 -0.01945185 0.00306438
v 0.02404542 -0.01845178 0.00306438
v 0.02842057 -0.02255001 0.06311899
v 0.03064504 -0.01936250 0.06312848
v 0.03463825 -0.02000000 0.09997134
v 0.02880744 -0.02210839 0.06311899
v 0.03214659 -0.01674032 0.06311899
v 0.02518797 -0.01674032 0.00306438
v 0.02899267 -0.01674032 0.03479439
f 1 2 8
f 1 8 16
f 1 16 24
f 1 24 19
f 1 19 9
f 1 9 3
f 1 3 10
f 1 10 4
f 1 4 5
f 1 5 6
f 1 6 2
f 2 7 8
f 2 6 7
f 3 9 10
f 4 10 20
f 4 20 13
f 4 13 12
f 4 12 11
f 4 11 5
f 5 11 6
f 6 11 12
f 6 12 13
f 6 13 7
f 7 14 8
f 7 13 15
f 7 15 14
f 8 14 16
f 9 17 18
f 9 18 10
f 9 19 26
f 9 26 17
f 10 18 20
f 13 20 18
f 13 18 27
f 13 27 21
f 13 21 15
f 14 15 21
f 14 21 22
f 14 22 16
f 16 23 24
f 16 22 25
f 16 25 23
f 17 26 28
f 17 28 27
f 17 27 18
f 19 24 26
f 21 25 22
f 21 27 23
f 21 23 25
f 23 27 28
f 23 28 24
f 24 28 26

