# https://github.com/mikedh/trimesh
v 0.01771002 -0.01007829 -0.05706400
v 0.01771002 -0.00979900 -0.05706400
v 0.02096181 -0.01007829 -0.05706400
v 0.01771002 -0.01007829 -0.04544675
v 0.02033600 0.00000388 -0.05706400
v 0.01771002 -0.00000007 -0.05428263
v 0.02157243 -0.00893546 -0.05706400
v 0.02189197 -0.01007829 -0.03336554
v 0.01839467 -0.01007829 -0.03336554
v 0.01771002 0.00000388 -0.04544675
v 0.02335050 0.00000388 -0.05706400
v 0.01820421 0.00000388 -0.05460740
v 0.01771002 0.00000388 -0.05232477
v 0.02290187 -0.00455560 -0.05706400
v 0.02233428 -0.00925028 -0.03336554
v 0.02107444 0.00000388 -0.03336554
v 0.02335050 -0.00000007 -0.05706400
v 0.02417373 0.00000388 -0.03336554
v 0.02370992 -0.00471745 -0.03336554
v 0.02417373 -0.00000007 -0.03336554
v 0.02410982 -0.00065537 -0.03336554
f 1 2 5
f 1 5 11
f 1 11 17
f 1 17 14
f 1 14 7
f 1 7 3
f 1 3 8
f 1 8 9
f 1 9 4
f 1 4 10
f 1 10 13
f 1 13 6
f 1 6 2
f 2 6 5
f 3 7 8
f 4 9 10
f 5 6 12
f 5 12 13
f 5 13 10
f 5 10 16
f 5 16 18
f 5 18 11
f 6 13 12
f 7 14 15
f 7 15 8
f 8 15 19
f 8 19 21
f 8 21 20
f 8 20 18
f 8 18 16
f 8 16 9
f 9 16 10
f 11 18 20
f 11 20 17
f 14 17 19
f 14 19 15
f 17 20 21
f 17 21 19

