# https://github.com/mikedh/trimesh
v 0.02111576 0.01592038 0.00222593
v 0.01876912 0.01877464 0.00222593
v 0.01661080 0.02327864 0.03409466
v 0.01661080 0.01741989 0.03409466
v 0.01661080 0.01580430 0.00882943
v 0.01903814 0.01471996 -0.03335536
v 0.01815660 0.01471996 -0.04362578
v 0.01660459 0.01661278 -0.04362578
v 0.01778412 0.01779136 -0.01864965
v 0.01752752 0.01979480 0.00222593
v 0.01661080 0.02111404 0.00882943
v 0.01661080 0.02212464 0.02062139
v 0.01474632 0.02207411 0.00223354
v 0.01592584 0.02383856 0.03409466
v -0.00000189 0.02411579 0.03409466
v -0.00002465 0.02139127 -0.02624976
v -0.00002465 0.02107034 -0.03335536
v 0.00000639 0.02061147 -0.04362578
v 0.01504844 0.01471996 -0.03335536
v 0.01439246 0.01471996 -0.04362578
v 0.01652802 0.01667697 -0.04362578
v 0.01557613 0.02003106 -0.01367420
v 0.01613692 0.02093650 0.00223354
v 0.01304532 0.01953259 -0.04362578
v 0.01016479 0.02452550 0.00222593
v 0.01385443 0.02494612 0.03409466
v -0.00000189 0.02867168 0.03409466
v -0.00002465 0.02140766 -0.02589219
v -0.00002465 0.02416769 -0.03335536
v 0.00000639 0.02348758 -0.04362578
v 0.00903286 0.02167943 -0.04362578
v 0.00899148 0.02169855 -0.04362578
v 0.00889629 0.02172996 -0.04362578
v 0.00553567 0.02593078 0.00222593
v 0.00872453 0.02717081 0.03409466
v 0.01096977 0.02648797 0.03409466
v 0.00000225 0.02867168 0.03409466
v 0.00000225 0.02654806 0.00222593
v -0.00000396 0.02654669 0.00222593
v -0.00002465 0.02418135 -0.03317278
v -0.00002465 0.02466616 -0.02589219
v 0.00389261 0.02477132 -0.01864965
v 0.00429821 0.02306423 -0.04362578
v 0.00458791 0.02303555 -0.04362578
v 0.00518388 0.02603730 0.00223354
v 0.00559568 0.02811995 0.03409466
v 0.00518182 0.02603730 0.00222593
f 1 2 3
f 1 3 4
f 1 4 5
f 1 5 6
f 1 6 7
f 1 7 8
f 1 8 9
f 1 9 2
f 2 9 10
f 2 10 11
f 2 11 12
f 2 12 3
f 3 12 13
f 3 13 14
f 3 14 26
f 3 26 36
f 3 36 35
f 3 35 46
f 3 46 37
f 3 37 27
f 3 27 15
f 3 15 4
f 4 15 5
f 5 15 16
f 5 16 17
f 5 17 18
f 5 18 19
f 5 19 6
f 6 19 20
f 6 20 7
f 7 20 18
f 7 18 30
f 7 30 43
f 7 43 44
f 7 44 33
f 7 33 32
f 7 32 31
f 7 31 24
f 7 24 21
f 7 21 8
f 8 21 9
f 9 21 22
f 9 22 10
f 10 22 11
f 11 22 23
f 11 23 12
f 12 23 13
f 13 23 22
f 13 22 24
f 13 24 25
f 13 25 14
f 14 25 26
f 15 27 41
f 15 41 28
f 15 28 16
f 16 28 41
f 16 41 40
f 16 40 29
f 16 29 17
f 17 29 30
f 17 30 18
f 18 20 19
f 21 24 22
f 24 31 25
f 25 31 32
f 25 32 33
f 25 33 34
f 25 34 35
f 25 35 36
f 25 36 26
f 27 37 38
f 27 38 39
f 27 39 40
f 27 40 41
f 29 40 30
f 30 40 38
f 30 38 42
f 30 42 43
f 33 44 34
f 34 44 45
f 34 45 46
f 34 46 35
f 37 46 47
f 37 47 38
f 38 47 42
f 38 40 39
f 42 47 43
f 43 47 44
f 44 47 45
f 45 47 46

