# https://github.com/mikedh/trimesh
v 0.01770782 0.00000388 -0.04545120
v 0.02110929 -0.01007920 -0.04376796
v 0.01770782 0.00000388 -0.05232357
v -0.02061650 0.00000388 -0.04350246
v -0.00000686 -0.02061548 -0.04350246
v -0.00000686 -0.02349800 -0.04350246
v 0.01953300 -0.01302154 -0.04376796
v 0.01941074 -0.01297093 -0.05706400
v 0.02095646 -0.01007920 -0.05706400
v 0.01770782 -0.00000072 -0.05428293
v 0.01707469 0.00000388 -0.05386610
v -0.02325820 0.00000388 -0.04350246
v 0.00457791 -0.02302640 -0.04376796
v 0.00894873 -0.02170362 -0.04376796
v 0.00898366 -0.02169211 -0.04376796
v 0.00905789 -0.02165300 -0.04376796
v 0.01304446 -0.01952044 -0.04376796
v 0.01657255 -0.01662642 -0.04376796
v 0.01659875 -0.01660111 -0.04376796
v 0.01661621 -0.01658041 -0.04376796
v 0.01951990 -0.01304224 -0.04376796
v -0.00458290 -0.02304711 -0.04350246
v -0.00000686 -0.02334847 -0.05706267
v -0.00000249 -0.02334847 -0.05706400
v 0.00455171 -0.02289757 -0.05706400
v 0.01650705 -0.01650909 -0.05706400
v 0.01770782 -0.00980084 -0.05706400
v -0.02033268 0.00000388 -0.05706267
v -0.02343723 0.00000388 -0.04434276
v -0.02349836 -0.00000072 -0.04350246
v 0.00893563 -0.02157019 -0.05706400
v 0.01297023 -0.01941002 -0.05706400
v -0.00895808 -0.02171972 -0.04350246
v -0.00893188 -0.02157249 -0.05706267
v -0.00455233 -0.02289988 -0.05706267
v -0.00000686 -0.02334617 -0.05706400
v -0.00000686 -0.02033252 -0.05706400
v -0.02334553 0.00000388 -0.05706267
v -0.02334553 -0.00000072 -0.05706267
v -0.02290015 -0.00455571 -0.05706267
v -0.02304424 -0.00458561 -0.04350246
v -0.00899301 -0.02170822 -0.04350246
v -0.00904104 -0.02168291 -0.04350246
v -0.01297085 -0.01941462 -0.05706267
v -0.01650767 -0.01650909 -0.05706267
v -0.01941136 -0.01296863 -0.05706267
v -0.02156839 -0.00893816 -0.05706267
v -0.02303551 -0.00462012 -0.04350246
v -0.02170811 -0.00899567 -0.04350246
v -0.01275689 -0.01969528 -0.04350246
v -0.01301888 -0.01955495 -0.04350246
v -0.01304944 -0.01953655 -0.04350246
v -0.01658627 -0.01663562 -0.04350246
v -0.01661247 -0.01661261 -0.04350246
v -0.01664740 -0.01657121 -0.04350246
v -0.01953799 -0.01305144 -0.04350246
f 1 2 3
f 1 3 11
f 1 11 28
f 1 28 38
f 1 38 29
f 1 29 12
f 1 12 4
f 1 4 2
f 2 5 6
f 2 6 7
f 2 7 8
f 2 8 9
f 2 9 10
f 2 10 3
f 2 4 5
f 3 10 11
f 4 12 30
f 4 30 41
f 4 41 48
f 4 48 49
f 4 49 56
f 4 56 55
f 4 55 54
f 4 54 53
f 4 53 52
f 4 52 51
f 4 51 50
f 4 50 43
f 4 43 42
f 4 42 33
f 4 33 22
f 4 22 6
f 4 6 5
f 6 13 14
f 6 14 15
f 6 15 16
f 6 16 17
f 6 17 18
f 6 18 19
f 6 19 20
f 6 20 21
f 6 21 7
f 6 22 23
f 6 23 24
f 6 24 25
f 6 25 13
f 7 21 8
f 8 21 20
f 8 20 26
f 8 26 32
f 8 32 31
f 8 31 25
f 8 25 24
f 8 24 36
f 8 36 37
f 8 37 27
f 8 27 9
f 9 27 28
f 9 28 10
f 10 28 11
f 12 29 30
f 13 25 14
f 14 25 31
f 14 31 15
f 15 31 16
f 16 31 17
f 17 31 32
f 17 32 26
f 17 26 18
f 18 26 19
f 19 26 20
f 22 33 34
f 22 34 35
f 22 35 23
f 23 35 24
f 24 35 34
f 24 34 36
f 27 37 38
f 27 38 28
f 29 38 30
f 30 38 39
f 30 39 40
f 30 40 41
f 33 42 34
f 34 42 43
f 34 43 44
f 34 44 36
f 36 44 45
f 36 45 46
f 36 46 47
f 36 47 40
f 36 40 39
f 36 39 38
f 36 38 37
f 40 48 41
f 40 47 49
f 40 49 48
f 43 50 44
f 44 51 52
f 44 52 53
f 44 53 45
f 44 50 51
f 45 53 54
f 45 54 55
f 45 55 56
f 45 56 46
f 46 56 47
f 47 56 49

