# https://github.com/mikedh/trimesh
v 0.00000000 0.02348997 -0.04362954
v 0.00455261 0.02303938 -0.04362954
v 0.00000000 0.02334974 -0.05706269
v -0.00455261 0.02290144 -0.05706269
v -0.00458020 0.02303708 -0.04362954
v 0.00458020 0.02303478 -0.04362954
v 0.00455261 0.02289914 -0.05706269
v -0.00893507 0.02157265 -0.05706269
v -0.00465378 0.02301639 -0.04362954
v 0.00462619 0.02302328 -0.04362954
v 0.00893507 0.02157035 -0.05706269
v -0.01296803 0.01941393 -0.05706269
v -0.01304621 0.01953118 -0.04362954
v -0.00898565 0.02170139 -0.04362954
v 0.00899025 0.02169909 -0.04362954
v 0.01304621 0.01952888 -0.04362954
v 0.01296803 0.01941163 -0.05706269
v -0.01650895 0.01651035 -0.05706269
v -0.01307380 0.01951049 -0.04362954
v 0.01660552 0.01660691 -0.04362954
v 0.01650895 0.01650805 -0.05706269
v -0.01941066 0.01297227 -0.05706269
v -0.01949804 0.01308492 -0.04362954
v -0.01660552 0.01660921 -0.04362954
v 0.01953023 0.01304813 -0.04362954
v 0.01941066 0.01296997 -0.05706269
v -0.01954402 0.01302054 -0.04362954
v -0.01952563 0.01304813 -0.04362954
v -0.02156740 0.00893990 -0.05706269
v -0.02167777 0.00903416 -0.04362954
v 0.02168697 0.00901807 -0.04362954
v 0.02157200 0.00893761 -0.05706269
v -0.02289640 0.00455810 -0.05706269
v -0.02178354 0.00871691 -0.04362954
v -0.02169616 0.00899278 -0.04362954
v 0.02170076 0.00899048 -0.04362954
v 0.02171456 0.00894680 -0.04362954
v 0.02302976 0.00461328 -0.04362954
v 0.02290100 0.00455580 -0.05706269
v -0.02302056 0.00463167 -0.04362954
v -0.02334706 0.00000618 -0.05706269
v -0.02348962 0.00000618 -0.04362954
v -0.02303436 0.00458569 -0.04362954
v 0.02303436 0.00458339 -0.04362954
v 0.02303895 0.00453741 -0.04362954
v 0.02348962 0.00000388 -0.04362954
v 0.02334706 0.00000388 -0.05706269
v 0.00000000 0.00000388 -0.05332797
v 0.02033498 0.00000388 -0.05706269
v 0.00000920 0.00000388 -0.04545088
v 0.02061090 0.00000388 -0.04362954
f 1 2 7
f 1 7 3
f 1 3 4
f 1 4 5
f 1 5 9
f 1 9 14
f 1 14 13
f 1 13 19
f 1 19 24
f 1 24 23
f 1 23 28
f 1 28 27
f 1 27 30
f 1 30 35
f 1 35 34
f 1 34 40
f 1 40 43
f 1 43 42
f 1 42 51
f 1 51 46
f 1 46 45
f 1 45 44
f 1 44 38
f 1 38 37
f 1 37 36
f 1 36 31
f 1 31 25
f 1 25 20
f 1 20 16
f 1 16 15
f 1 15 10
f 1 10 6
f 1 6 2
f 2 6 7
f 3 7 11
f 3 11 17
f 3 17 21
f 3 21 26
f 3 26 32
f 3 32 39
f 3 39 47
f 3 47 49
f 3 49 41
f 3 41 33
f 3 33 29
f 3 29 22
f 3 22 18
f 3 18 12
f 3 12 8
f 3 8 4
f 4 8 9
f 4 9 5
f 6 10 7
f 7 10 11
f 8 12 13
f 8 13 14
f 8 14 9
f 10 15 11
f 11 15 16
f 11 16 17
f 12 18 19
f 12 19 13
f 16 20 21
f 16 21 17
f 18 22 23
f 18 23 24
f 18 24 19
f 20 25 21
f 21 25 26
f 22 27 28
f 22 28 23
f 22 29 30
f 22 30 27
f 25 31 32
f 25 32 26
f 29 33 34
f 29 34 35
f 29 35 30
f 31 36 32
f 32 36 37
f 32 37 38
f 32 38 39
f 33 40 34
f 33 41 42
f 33 42 43
f 33 43 40
f 38 44 39
f 39 44 45
f 39 45 46
f 39 46 47
f 41 48 42
f 41 49 48
f 42 48 50
f 42 50 51
f 46 51 50
f 46 50 48
f 46 48 49
f 46 49 47

