# https://github.com/mikedh/trimesh
v 0.00000388 0.02417067 -0.03335425
v 0.00000388 0.02107460 -0.03335425
v 0.00000388 0.02328687 -0.04362440
v -0.00000033 0.02348773 -0.04362440
v 0.00000177 0.02609203 -0.00458204
v 0.00000177 0.02887087 0.03707526
v 0.00000177 0.02879606 0.03708316
v 0.00000388 0.02061192 -0.04362440
v 0.00000177 0.02425101 0.03708316
v 0.00000177 0.02411664 0.03411272
v 0.00000177 0.02237259 -0.00453464
v -0.01661305 0.01579952 0.00882446
v -0.00033503 0.02345587 -0.04362440
v -0.00000665 0.02698691 0.00882446
v -0.00000244 0.02887225 0.03708316
v -0.01504903 0.01472040 -0.03335425
v -0.01439226 0.01472040 -0.04362440
v -0.01710141 0.01719032 0.03708316
v -0.01710141 0.01699777 0.03408902
v -0.02150087 0.01613752 0.00882446
v -0.01903801 0.01472040 -0.03335425
v -0.00458504 0.02303613 -0.04362440
v -0.00471976 0.02370937 -0.03335425
v -0.00345465 0.02575679 -0.00453464
v -0.00559754 0.02812144 0.03408902
v -0.00364410 0.02851347 0.03708316
v -0.01815602 0.01472040 -0.04362440
v -0.01710141 0.02313310 0.03708316
v -0.01907801 0.01908536 0.00882446
v -0.01877068 0.01877506 0.00222786
v -0.02111566 0.01591865 0.00222786
v -0.00490500 0.02294055 -0.04362440
v -0.00674477 0.02309570 -0.03335425
v -0.00526916 0.02646882 0.00882446
v -0.00758046 0.02772802 0.03708316
v -0.00563543 0.02831676 0.03708316
v -0.01662778 0.01658773 -0.04362440
v -0.01603838 0.02400443 0.03708316
v -0.01710141 0.02287821 0.03408902
v -0.01327240 0.01935133 -0.04362440
v -0.01709299 0.01709612 -0.03335425
v -0.00899503 0.02170074 -0.04362440
v -0.01104741 0.02667245 0.03708316
v -0.01016541 0.02452529 0.00222786
v -0.01660462 0.01661267 -0.04362440
v -0.01219464 0.02606016 0.03708316
v -0.01592681 0.02383959 0.03408902
v -0.01312926 0.01946770 -0.04362440
v -0.00908344 0.02165364 -0.04362440
v -0.01033381 0.02493118 0.00882446
v -0.01449541 0.02169936 -0.00453464
v -0.01304927 0.01953142 -0.04362440
f 1 2 8
f 1 8 3
f 1 3 4
f 1 4 5
f 1 5 6
f 1 6 7
f 1 7 9
f 1 9 2
f 2 9 10
f 2 10 11
f 2 11 12
f 2 12 8
f 3 8 17
f 3 17 27
f 3 27 37
f 3 37 45
f 3 45 40
f 3 40 48
f 3 48 52
f 3 52 49
f 3 49 42
f 3 42 32
f 3 32 22
f 3 22 13
f 3 13 4
f 4 13 14
f 4 14 15
f 4 15 5
f 5 15 6
f 6 15 7
f 7 15 26
f 7 26 36
f 7 36 35
f 7 35 43
f 7 43 46
f 7 46 38
f 7 38 28
f 7 28 18
f 7 18 9
f 8 16 17
f 8 12 16
f 9 18 19
f 9 19 12
f 9 12 10
f 10 12 11
f 12 19 20
f 12 20 21
f 12 21 16
f 13 22 23
f 13 23 24
f 13 24 14
f 14 24 15
f 15 25 26
f 15 24 25
f 16 21 27
f 16 27 17
f 18 28 20
f 18 20 19
f 20 28 29
f 20 29 30
f 20 30 31
f 20 31 21
f 21 31 27
f 22 32 23
f 23 32 33
f 23 33 34
f 23 34 24
f 24 34 25
f 25 34 35
f 25 35 36
f 25 36 26
f 27 31 37
f 28 38 39
f 28 39 29
f 29 39 30
f 30 40 41
f 30 41 31
f 30 39 40
f 31 41 37
f 32 42 33
f 33 42 35
f 33 35 34
f 35 42 44
f 35 44 43
f 37 41 45
f 38 46 47
f 38 47 39
f 39 47 40
f 40 45 41
f 40 47 48
f 42 49 44
f 43 44 50
f 43 50 46
f 44 49 51
f 44 51 47
f 44 47 50
f 46 50 47
f 47 51 52
f 47 52 48
f 49 52 51

