# https://github.com/mikedh/trimesh
v -0.02308168 0.01716356 0.03708346
v -0.02309823 0.01716356 0.03725166
v -0.02297290 0.01730063 0.03708346
v -0.01712739 0.01716356 0.03708346
v -0.01731656 0.01715468 0.04004455
v -0.02320937 0.01716356 0.03856596
v -0.02328977 0.01722448 0.04004260
v -0.02270569 0.01793649 0.04004260
v -0.02092272 0.01979966 0.03708346
v 0.00000243 0.02425069 0.03708346
v -0.01750810 0.01733490 0.04586308
v -0.02287122 0.01782481 0.05673738
v -0.02328268 0.01782481 0.05644401
v -0.02415288 0.01782481 0.05581815
v -0.02054673 0.02041141 0.03856596
v -0.02041194 0.02041775 0.03708346
v -0.02129870 0.02130111 0.05581815
v 0.00000243 0.02887053 0.03708346
v 0.00000243 0.02431796 0.03856596
v -0.00000940 0.02490179 0.05155840
v -0.00001176 0.02509724 0.05581815
v -0.01765235 0.01782481 0.05581815
v -0.01900495 0.01782481 0.05671391
v -0.02093454 0.01782481 0.05706400
v -0.02059403 0.02059925 0.05673738
v -0.02055383 0.02055609 0.04004260
v -0.02048288 0.02048756 0.03856596
v -0.01915393 0.02145087 0.03708346
v -0.01618151 0.02421770 0.05673738
v -0.01673249 0.02504521 0.05581815
v -0.01731656 0.02321377 0.04004455
v -0.01876848 0.02202200 0.04004260
v 0.00000243 0.02896826 0.03856205
v -0.00000230 0.02887053 0.03708346
v -0.00000703 0.02906852 0.04004260
v -0.00001176 0.03012068 0.05581815
v -0.00001176 0.02762165 0.05706204
v -0.00001176 0.02612401 0.05671391
v 0.00000243 0.02434462 0.03856596
v -0.01952992 0.01953567 0.05706400
v -0.00539616 0.02709240 0.05706400
v -0.01534678 0.02297262 0.05706400
v -0.01603727 0.02400447 0.03708346
v -0.01115182 0.02690837 0.05673738
v -0.01153253 0.02782853 0.05581815
v -0.01134809 0.02651619 0.03708346
v -0.01657642 0.02480787 0.05155840
v -0.01614841 0.02416947 0.04004260
v -0.01616969 0.02402478 0.03856596
v -0.00001176 0.02912564 0.05673738
v -0.00379290 0.02849866 0.03708346
v -0.00551203 0.02929571 0.05155840
v -0.00588329 0.02954193 0.05581815
v -0.00568938 0.02856720 0.05673738
v -0.01057720 0.02552115 0.05706400
v -0.00963841 0.02810775 0.05155840
v -0.01060557 0.02680937 0.03708346
v -0.01142376 0.02756581 0.05155840
v -0.01105013 0.02667357 0.03708346
v -0.00563499 0.02831717 0.03708346
v -0.00586200 0.02944167 0.05427893
v -0.00565628 0.02841363 0.03856596
v -0.00948471 0.02725232 0.03856596
f 1 2 3
f 1 3 9
f 1 9 16
f 1 16 28
f 1 28 43
f 1 43 46
f 1 46 59
f 1 59 57
f 1 57 60
f 1 60 51
f 1 51 34
f 1 34 18
f 1 18 10
f 1 10 4
f 1 4 5
f 1 5 2
f 2 6 7
f 2 7 3
f 2 5 6
f 3 7 8
f 3 8 9
f 4 10 5
f 5 11 6
f 5 10 11
f 6 12 13
f 6 13 14
f 6 14 7
f 6 11 12
f 7 14 8
f 8 14 9
f 9 15 16
f 9 14 17
f 9 17 15
f 10 18 33
f 10 33 39
f 10 39 19
f 10 19 20
f 10 20 11
f 11 20 21
f 11 21 22
f 11 22 23
f 11 23 24
f 11 24 12
f 12 24 25
f 12 25 13
f 13 25 17
f 13 17 14
f 15 26 27
f 15 27 16
f 15 17 26
f 16 27 28
f 17 27 26
f 17 25 29
f 17 29 30
f 17 30 31
f 17 31 32
f 17 32 27
f 18 34 35
f 18 35 36
f 18 36 33
f 19 37 38
f 19 38 21
f 19 21 20
f 19 39 37
f 21 38 23
f 21 23 22
f 23 38 24
f 24 40 25
f 24 38 37
f 24 37 41
f 24 41 55
f 24 55 42
f 24 42 40
f 25 40 42
f 25 42 29
f 27 32 28
f 28 32 31
f 28 31 43
f 29 42 44
f 29 44 45
f 29 45 30
f 30 45 46
f 30 46 47
f 30 47 31
f 31 47 48
f 31 48 49
f 31 49 43
f 33 36 50
f 33 50 37
f 33 37 39
f 34 51 35
f 35 51 52
f 35 52 36
f 36 52 53
f 36 53 54
f 36 54 50
f 37 50 41
f 41 54 55
f 41 50 54
f 42 55 44
f 43 49 48
f 43 48 46
f 44 55 54
f 44 54 45
f 45 54 53
f 45 53 56
f 45 56 57
f 45 57 58
f 45 58 46
f 46 58 59
f 46 48 47
f 51 60 52
f 52 60 61
f 52 61 53
f 53 61 56
f 56 61 62
f 56 62 60
f 56 60 63
f 56 63 57
f 57 59 58
f 57 63 60
f 60 62 61

