# https://github.com/mikedh/trimesh
v 0.01782669 -0.02415211 0.05580996
v 0.02110124 -0.02109712 0.05155255
v 0.02130394 -0.02129574 0.05580996
v 0.02059895 -0.02059347 0.05673048
v 0.01782669 -0.02287053 0.05673048
v 0.01661792 -0.02327486 0.03408034
v 0.01666115 -0.02324176 0.03408034
v 0.01501120 -0.01880352 -0.03336554
v 0.01709636 -0.01709159 -0.03336554
v 0.02355752 -0.01750302 0.04585240
v 0.02504202 -0.01672982 0.05580996
v 0.02421631 -0.01618124 0.05673048
v 0.01985968 -0.01523306 -0.01895584
v 0.02112210 -0.01591169 0.00224270
v 0.01953923 -0.01953180 0.05705797
v 0.01782669 -0.02093397 0.05705797
v 0.01661792 -0.01740844 0.03408034
v 0.01489495 -0.02137377 -0.00452844
v 0.01501120 -0.01476488 -0.03336554
v 0.01489495 -0.02016076 -0.01864605
v 0.02009965 -0.01342892 -0.03336554
v 0.02244266 -0.01498951 0.00883682
v 0.02782472 -0.01153256 0.05580996
v 0.02721214 -0.01128428 0.04585240
v 0.02690659 -0.01114950 0.05673048
v 0.02552046 -0.01057492 0.05705797
v 0.02296879 -0.01534420 0.05705797
v 0.02030980 -0.01395621 -0.02589516
v 0.02762053 -0.00001015 0.05705797
v 0.02612410 -0.00001015 0.05671278
v 0.01782669 -0.01900450 0.05671278
v 0.01782669 -0.01764726 0.05580996
v 0.02509568 -0.00001015 0.05580996
v 0.01489495 -0.01658085 -0.00452844
v 0.02107441 0.00000167 -0.03336554
v 0.01489495 -0.01576035 -0.01864605
v 0.02233236 -0.00925787 -0.03336554
v 0.02944038 -0.00586002 0.05426986
v 0.02954024 -0.00587894 0.05580996
v 0.02856548 -0.00568741 0.05673048
v 0.02811983 -0.00559992 0.03408034
v 0.02419693 -0.00481962 -0.02589516
v 0.02709141 -0.00539184 0.05705797
v 0.02912440 -0.00001015 0.05673048
v 0.02983386 0.00000167 0.05155255
v 0.02490192 0.00000167 0.05155255
v 0.02140678 0.00000167 -0.02594827
v 0.02437877 -0.00000069 0.04001947
v 0.02297326 -0.00000069 0.00883682
v 0.02141125 0.00000404 -0.02588631
v 0.02417159 0.00000167 -0.03336554
v 0.02351728 -0.00535165 -0.03336554
v 0.03012003 -0.00001015 0.05580996
v 0.02929432 -0.00551007 0.05155255
v 0.02370806 -0.00472268 -0.03336554
v 0.02417308 -0.00000542 -0.03336554
v 0.02983536 -0.00000306 0.05155255
v 0.02609578 0.00000167 -0.00452844
v 0.02515232 0.00000404 -0.01864605
v 0.02173767 0.00000404 -0.01864605
v 0.02464407 0.00000167 0.04585240
v 0.02466941 0.00000404 -0.02588631
f 1 2 3
f 1 3 4
f 1 4 5
f 1 5 6
f 1 6 7
f 1 7 8
f 1 8 9
f 1 9 2
f 2 9 3
f 3 10 11
f 3 11 12
f 3 12 4
f 3 9 13
f 3 13 14
f 3 14 10
f 4 12 15
f 4 15 5
f 5 15 16
f 5 16 6
f 6 16 17
f 6 17 34
f 6 34 18
f 6 18 7
f 7 18 8
f 8 19 35
f 8 35 51
f 8 51 56
f 8 56 55
f 8 55 52
f 8 52 37
f 8 37 21
f 8 21 9
f 8 18 20
f 8 20 36
f 8 36 19
f 9 21 13
f 10 22 11
f 10 14 22
f 11 23 12
f 11 22 24
f 11 24 23
f 12 25 26
f 12 26 27
f 12 27 15
f 12 23 25
f 13 21 28
f 13 28 22
f 13 22 14
f 15 27 26
f 15 26 43
f 15 43 29
f 15 29 16
f 16 29 30
f 16 30 31
f 16 31 17
f 17 31 32
f 17 32 33
f 17 33 34
f 18 34 36
f 18 36 20
f 19 36 35
f 21 37 22
f 21 22 28
f 22 37 24
f 23 24 38
f 23 38 39
f 23 39 40
f 23 40 25
f 24 41 38
f 24 37 42
f 24 42 41
f 25 40 26
f 26 40 43
f 29 44 45
f 29 45 46
f 29 46 30
f 29 43 44
f 30 46 33
f 30 33 31
f 31 33 32
f 33 46 34
f 34 47 35
f 34 35 36
f 34 46 48
f 34 48 49
f 34 49 47
f 35 47 50
f 35 50 62
f 35 62 51
f 37 52 42
f 38 53 39
f 38 41 54
f 38 54 53
f 39 53 40
f 40 44 43
f 40 53 44
f 41 42 54
f 42 52 55
f 42 55 56
f 42 56 54
f 44 53 45
f 45 53 57
f 45 57 58
f 45 58 59
f 45 59 60
f 45 60 46
f 46 60 61
f 46 61 48
f 47 49 48
f 47 48 50
f 48 61 60
f 48 60 50
f 50 60 59
f 50 59 62
f 51 62 58
f 51 58 56
f 53 54 56
f 53 56 58
f 53 58 57
f 58 62 59

