# https://github.com/mikedh/trimesh
v 0.00000419 -0.02237348 -0.00454269
v 0.00000215 -0.02411491 0.03409466
v 0.00000419 -0.02609515 -0.00454269
v 0.00000419 -0.02173668 -0.01864718
v -0.01661207 -0.01580575 0.00882506
v -0.01661207 -0.01741871 0.03409466
v 0.00000215 -0.02867029 0.03409466
v -0.00000193 -0.02609654 -0.00454269
v 0.00000419 -0.02515670 -0.01860920
v 0.00000419 -0.02515251 -0.01864718
v 0.00000215 -0.02107334 -0.03335929
v 0.00000215 -0.02140711 -0.02594627
v -0.00000600 -0.02061669 -0.04349903
v -0.01471872 -0.01440646 -0.04349903
v -0.02081658 -0.01557533 -0.00454269
v -0.01661207 -0.02327841 0.03409466
v -0.00000193 -0.02867029 0.03409466
v -0.00559638 -0.02812146 0.03409466
v -0.00526826 -0.02646941 0.00882506
v -0.00458755 -0.02304520 -0.04349903
v -0.00000600 -0.02349626 -0.04349903
v 0.00000215 -0.02417357 -0.03332891
v 0.00000215 -0.02417077 -0.03335929
v -0.01471872 -0.01817282 -0.04349903
v -0.01960393 -0.01557533 -0.01864718
v -0.01845039 -0.01845491 -0.00454269
v -0.01661207 -0.02212490 0.02062817
v -0.01592728 -0.02383980 0.03409466
v -0.01007195 -0.02676267 0.03409466
v -0.00847208 -0.02457017 -0.00454269
v -0.00463850 -0.02302984 -0.04349903
v -0.01305159 -0.01953999 -0.04349903
v -0.01523842 -0.01926069 -0.02589311
v -0.01699522 -0.01843955 -0.01864718
v -0.01778395 -0.01779018 -0.01864718
v -0.01722756 -0.01946039 -0.00454269
v -0.01661207 -0.02111384 0.00882506
v -0.01096870 -0.02648756 0.03409466
v -0.01397483 -0.02091554 -0.01864718
v -0.00963173 -0.02323931 -0.01864718
v -0.01032671 -0.02493186 0.00882506
v -0.00899382 -0.02170875 -0.04349903
v -0.01523842 -0.01988213 -0.01864718
f 1 2 7
f 1 7 3
f 1 3 9
f 1 9 10
f 1 10 4
f 1 4 2
f 2 5 6
f 2 6 16
f 2 16 28
f 2 28 38
f 2 38 29
f 2 29 18
f 2 18 17
f 2 17 7
f 2 4 5
f 3 8 9
f 3 7 8
f 4 10 23
f 4 23 11
f 4 11 12
f 4 12 5
f 5 12 11
f 5 11 13
f 5 13 14
f 5 14 15
f 5 15 6
f 6 15 16
f 7 17 8
f 8 17 18
f 8 18 19
f 8 19 20
f 8 20 21
f 8 21 9
f 9 21 22
f 9 22 23
f 9 23 10
f 11 23 21
f 11 21 13
f 13 21 20
f 13 20 31
f 13 31 42
f 13 42 32
f 13 32 24
f 13 24 14
f 14 24 25
f 14 25 15
f 15 25 26
f 15 26 16
f 16 26 27
f 16 27 28
f 18 29 30
f 18 30 19
f 19 30 31
f 19 31 20
f 21 23 22
f 24 32 33
f 24 33 34
f 24 34 35
f 24 35 25
f 25 35 26
f 26 36 37
f 26 37 27
f 26 35 34
f 26 34 36
f 27 37 28
f 28 37 39
f 28 39 32
f 28 32 40
f 28 40 38
f 29 38 41
f 29 41 40
f 29 40 30
f 30 40 42
f 30 42 31
f 32 39 43
f 32 43 33
f 32 42 40
f 33 43 37
f 33 37 36
f 33 36 34
f 37 43 39
f 38 40 41

