# https://github.com/mikedh/trimesh
v -0.02379905 -0.01780672 0.05155999
v -0.02288300 -0.01710061 0.03409466
v -0.01737384 -0.01780672 0.05155999
v -0.02385173 -0.01780672 0.05216705
v -0.02472795 -0.01667346 0.05155999
v -0.02480761 -0.01657582 0.05155999
v -0.02408684 -0.01609462 0.03856891
v -0.02383760 -0.01592376 0.03409466
v -0.01699611 -0.01710061 0.03409466
v -0.02416522 -0.01780672 0.05581840
v -0.02495793 -0.01667694 0.05427827
v -0.02411382 -0.00000057 0.03409466
v -0.02424873 0.00000292 0.03708499
v -0.02431811 0.00000466 0.03860713
v -0.02465600 0.00000292 0.04609420
v -0.02490397 0.00000292 0.05155999
v -0.02509540 -0.00000580 0.05581840
v -0.01749204 -0.01780672 0.05323503
v -0.02504401 -0.01673273 0.05581840
v -0.02501575 -0.01618703 0.05155999
v -0.02634935 -0.01186145 0.03856891
v -0.02648683 -0.01097054 0.03409466
v -0.02750566 -0.01152845 0.05155999
v -0.02329413 -0.01780672 0.05644570
v -0.02866968 -0.00000057 0.03409466
v -0.02431811 0.00000466 0.03856891
v -0.02438363 0.00000466 0.04004384
v -0.02983626 0.00000292 0.05155999
v -0.02762386 -0.00000580 0.05706400
v -0.02612580 -0.00000580 0.05671550
v -0.01767576 -0.01780672 0.05581840
v -0.02288814 -0.01780672 0.05673799
v -0.02421661 -0.01618179 0.05673799
v -0.02690952 -0.01114663 0.05673799
v -0.02782686 -0.01152496 0.05581840
v -0.02676177 -0.01129657 0.04004384
v -0.02743757 -0.00784796 0.03409466
v -0.02756476 -0.01141687 0.05155999
v -0.02769324 -0.01099494 0.05155999
v -0.02811850 -0.00559888 0.03409466
v -0.02889837 -0.00072934 0.03856891
v -0.02896004 -0.00009994 0.03856891
v -0.02896903 -0.00000057 0.03856891
v -0.02896903 0.00000466 0.03856891
v -0.02906539 0.00000466 0.04004384
v -0.02906539 0.00000466 0.04003485
v -0.02983498 0.00000292 0.05153751
v -0.03012149 -0.00000580 0.05581840
v -0.02912706 -0.00000580 0.05673799
v -0.02709325 -0.00539140 0.05706400
v -0.02095325 -0.01780672 0.05706400
v -0.01902222 -0.01780672 0.05671325
v -0.02297037 -0.01534492 0.05706400
v -0.02552067 -0.01057128 0.05706400
v -0.02856689 -0.00568431 0.05673799
v -0.02954205 -0.00587783 0.05581840
v -0.02944184 -0.00585866 0.05427827
v -0.02803499 -0.00690474 0.03856891
v -0.02828681 -0.00573312 0.03708499
v -0.02851036 -0.00567559 0.04004609
v -0.02873648 -0.00337768 0.04004384
v -0.02941614 -0.00428255 0.05155999
f 1 2 9
f 1 9 3
f 1 3 18
f 1 18 31
f 1 31 52
f 1 52 51
f 1 51 32
f 1 32 24
f 1 24 10
f 1 10 4
f 1 4 2
f 2 5 6
f 2 6 7
f 2 7 8
f 2 8 22
f 2 22 37
f 2 37 40
f 2 40 25
f 2 25 12
f 2 12 9
f 2 4 10
f 2 10 11
f 2 11 5
f 3 9 12
f 3 12 13
f 3 13 14
f 3 14 15
f 3 15 16
f 3 16 17
f 3 17 18
f 5 11 6
f 6 11 19
f 6 19 20
f 6 20 7
f 7 21 22
f 7 22 8
f 7 20 23
f 7 23 21
f 10 24 19
f 10 19 11
f 12 25 44
f 12 44 26
f 12 26 13
f 13 26 14
f 14 27 16
f 14 16 15
f 14 26 44
f 14 44 46
f 14 46 45
f 14 45 27
f 16 28 29
f 16 29 30
f 16 30 17
f 16 27 45
f 16 45 28
f 17 30 31
f 17 31 18
f 19 24 32
f 19 32 33
f 19 33 34
f 19 34 35
f 19 35 23
f 19 23 20
f 21 36 22
f 21 23 36
f 22 36 23
f 22 23 38
f 22 38 39
f 22 39 37
f 23 35 38
f 25 40 41
f 25 41 42
f 25 42 43
f 25 43 44
f 28 45 46
f 28 46 47
f 28 47 48
f 28 48 49
f 28 49 29
f 29 49 50
f 29 50 54
f 29 54 53
f 29 53 51
f 29 51 52
f 29 52 30
f 30 52 31
f 32 51 53
f 32 53 33
f 33 53 34
f 34 53 54
f 34 54 50
f 34 50 55
f 34 55 56
f 34 56 35
f 35 56 57
f 35 57 39
f 35 39 38
f 37 39 58
f 37 58 59
f 37 59 40
f 39 57 58
f 40 59 60
f 40 60 41
f 41 60 61
f 41 61 48
f 41 48 42
f 42 48 43
f 43 48 44
f 44 48 47
f 44 47 46
f 48 62 57
f 48 57 56
f 48 56 55
f 48 55 49
f 48 61 62
f 49 55 50
f 57 62 60
f 57 60 58
f 58 60 59
f 60 62 61

