# https://github.com/mikedh/trimesh
v 0.00000699 0.02411585 0.03409466
v 0.00000699 0.02411585 0.03411714
v -0.00000247 0.02431712 0.03856891
v 0.00000699 0.02867115 0.03409466
v 0.01698732 0.01710711 0.03409466
v -0.00000247 0.02438209 0.04003485
v 0.01718358 0.01710711 0.03708499
v 0.01730891 0.01716189 0.04004609
v 0.01750044 0.01733895 0.04585813
v -0.00000483 0.02490437 0.05155999
v -0.00000247 0.02434132 0.03856891
v 0.00161493 0.02891063 0.04004609
v 0.00527772 0.02845205 0.03856891
v 0.00559695 0.02811957 0.03409466
v -0.00000247 0.02896796 0.03857341
v -0.00000483 0.03001761 0.05428052
v 0.00000226 0.03012080 0.05581840
v 0.02287049 0.01710711 0.03409466
v -0.00000483 0.02503175 0.05439968
v 0.02313060 0.01710711 0.03708499
v 0.02286812 0.01782556 0.05673799
v 0.02093623 0.01782556 0.05706400
v 0.01940632 0.01782556 0.05678745
v 0.01900670 0.01782556 0.05671325
v 0.01765178 0.01782556 0.05581840
v -0.00000483 0.02509672 0.05582065
v -0.00000483 0.02982017 0.05155999
v 0.00582159 0.02926476 0.05155999
v 0.00567498 0.02851065 0.04004609
v 0.00913915 0.02725463 0.03708499
v 0.01008027 0.02676037 0.03409466
v -0.00000483 0.02983545 0.05156224
v -0.00000483 0.03011952 0.05582065
v 0.00587834 0.02954247 0.05581840
v 0.02234555 0.01774913 0.03409466
v 0.02041129 0.02041913 0.03708499
v 0.02208071 0.01990322 0.05155999
v 0.02415211 0.01782556 0.05581840
v 0.02328193 0.01782556 0.05644345
v 0.02059573 0.02059874 0.05673799
v 0.00000226 0.02762532 0.05706400
v -0.00000483 0.02612472 0.05671325
v 0.01953165 0.01953508 0.05706400
v 0.01148958 0.02773359 0.05427827
v 0.01109232 0.02676419 0.03856891
v 0.01097646 0.02648777 0.03409466
v -0.00000483 0.02912592 0.05673799
v 0.00000226 0.02912719 0.05673799
v 0.00568444 0.02856669 0.05673799
v 0.01115144 0.02690941 0.05673799
v 0.01152978 0.02782786 0.05581840
v 0.02026941 0.02027773 0.03409466
v 0.02129802 0.02130191 0.05581840
v 0.02109703 0.02110064 0.05155999
v 0.01729708 0.02297830 0.03708499
v 0.01618098 0.02421776 0.05673799
v 0.01534391 0.02297066 0.05706400
v 0.00539123 0.02709412 0.05706400
v -0.00000483 0.02762277 0.05706175
v 0.01181117 0.02735781 0.05155999
v 0.01646237 0.02486870 0.05155999
v 0.01603674 0.02400503 0.03708499
v 0.01592560 0.02383688 0.03409466
v 0.01057211 0.02552219 0.05706400
v 0.01673194 0.02504449 0.05581840
v 0.01954347 0.02087390 0.03409466
f 1 2 3
f 1 3 11
f 1 11 4
f 1 4 14
f 1 14 31
f 1 31 46
f 1 46 63
f 1 63 66
f 1 66 52
f 1 52 35
f 1 35 18
f 1 18 5
f 1 5 2
f 2 6 3
f 2 5 7
f 2 7 8
f 2 8 9
f 2 9 6
f 3 6 10
f 3 10 27
f 3 27 11
f 4 12 13
f 4 13 14
f 4 11 15
f 4 15 16
f 4 16 17
f 4 17 12
f 5 18 20
f 5 20 7
f 6 19 10
f 6 9 19
f 7 20 8
f 8 20 9
f 9 20 21
f 9 21 22
f 9 22 23
f 9 23 24
f 9 24 25
f 9 25 26
f 9 26 19
f 10 19 26
f 10 26 42
f 10 42 59
f 10 59 47
f 10 47 33
f 10 33 16
f 10 16 32
f 10 32 27
f 11 27 15
f 12 28 13
f 12 17 28
f 13 28 29
f 13 29 14
f 14 29 30
f 14 30 31
f 15 27 32
f 15 32 16
f 16 33 17
f 17 33 34
f 17 34 28
f 18 35 20
f 20 35 36
f 20 36 37
f 20 37 38
f 20 38 39
f 20 39 21
f 21 39 40
f 21 40 22
f 22 41 42
f 22 42 23
f 22 40 43
f 22 43 57
f 22 57 64
f 22 64 58
f 22 58 41
f 23 42 24
f 24 42 26
f 24 26 25
f 28 30 29
f 28 34 44
f 28 44 30
f 30 45 31
f 30 44 45
f 31 45 46
f 33 47 48
f 33 48 34
f 34 48 49
f 34 49 50
f 34 50 51
f 34 51 44
f 35 52 36
f 36 53 54
f 36 54 37
f 36 52 55
f 36 55 53
f 37 54 53
f 37 53 38
f 38 53 40
f 38 40 39
f 40 53 56
f 40 56 57
f 40 57 43
f 41 58 48
f 41 48 47
f 41 47 59
f 41 59 42
f 44 51 60
f 44 60 45
f 45 60 61
f 45 61 62
f 45 62 46
f 46 62 63
f 48 58 49
f 49 58 50
f 50 58 64
f 50 64 57
f 50 57 56
f 50 56 65
f 50 65 51
f 51 65 60
f 52 66 55
f 53 55 65
f 53 65 56
f 55 63 62
f 55 62 65
f 55 66 63
f 60 65 61
f 61 65 62

