# https://github.com/mikedh/trimesh
v 0.02425066 -0.03233617 0.02255349
v 0.02425066 -0.03232351 0.02365426
v 0.02425066 -0.03233300 0.02145273
v 0.02468211 -0.03214945 0.02035750
v 0.02456754 -0.03213996 0.02365426
v 0.02425066 -0.03228553 0.02475502
v 0.02525372 -0.03187096 0.01925673
v 0.02523178 -0.03185514 0.02035750
v 0.02425066 -0.03232351 0.02035750
v 0.02470283 -0.03213046 0.01925673
v 0.02525006 -0.03187729 0.01705521
v 0.02451635 -0.03212097 0.02475502
v 0.02425066 -0.03223490 0.02585578
v 0.02585214 -0.03155450 0.01595444
v 0.02679305 -0.03104499 0.01467667
v 0.02678695 -0.03104499 0.01485368
v 0.02519278 -0.03182666 0.02145273
v 0.02687958 -0.03099119 0.01467667
v 0.02673942 -0.03103233 0.01595444
v 0.02425066 -0.03229187 0.01925673
v 0.02520375 -0.03187096 0.01595444
v 0.02585214 -0.03153551 0.01467667
v 0.02585214 -0.03153868 0.01485368
v 0.02446029 -0.03209566 0.02585578
v 0.02425066 -0.03217477 0.02695655
v 0.02515744 -0.03179501 0.02255349
v 0.03040553 -0.02551635 -0.00099399
v 0.02734272 -0.03067789 0.01467667
v 0.02425066 -0.03224123 0.01815044
v 0.02465408 -0.03201970 0.01595444
v 0.02508431 -0.03184248 0.01485368
v 0.02505384 -0.03183932 0.01467667
v 0.02511843 -0.03175704 0.02365426
v 0.02440544 -0.03206401 0.02695655
v 0.02425066 -0.03209249 0.02805178
v 0.03187660 -0.02402897 0.01233133
v 0.03191073 -0.02425682 0.01306148
v 0.03131352 -0.02573788 0.00934986
v 0.03066025 -0.02732020 0.01467667
v 0.03009961 -0.02798162 0.01467667
v 0.03002161 -0.02807339 0.01467667
v 0.02962916 -0.02851960 0.01467667
v 0.02896127 -0.02920950 0.01467667
v 0.02853956 -0.02963672 0.01467667
v 0.02810934 -0.03002597 0.01467667
v 0.02800452 -0.03011775 0.01467667
v 0.02459070 -0.03195008 0.01467667
v 0.02450417 -0.03196907 0.01467667
v 0.02425066 -0.03201654 0.01467667
v 0.02537804 -0.02551635 -0.00099399
v 0.03041040 -0.02540242 -0.00099399
v 0.03259568 -0.01265523 0.00934986
v 0.03254815 -0.01374703 0.00934986
v 0.03299423 -0.01310777 0.01212667
v 0.03318436 -0.01374703 0.01375292
v 0.03330868 -0.01375336 0.01467667
v 0.03333061 -0.01375336 0.01485368
v 0.03336596 -0.01485149 0.01595444
v 0.03325992 -0.01595279 0.01595444
v 0.03338546 -0.01595279 0.01705521
v 0.03325627 -0.01704776 0.01705521
v 0.03343543 -0.01814905 0.02035750
v 0.03350733 -0.01924402 0.02255349
v 0.03336352 -0.02034532 0.02255349
v 0.03346833 -0.02034532 0.02365426
v 0.02733662 -0.03067156 0.01485368
v 0.02425066 -0.03218110 0.01705521
v 0.02453342 -0.03197856 0.01485368
v 0.02662973 -0.03098170 0.01815044
v 0.02657123 -0.03094056 0.01925673
v 0.02434451 -0.03201970 0.02805178
v 0.02425066 -0.03198806 0.02914701
v 0.03296132 -0.02171561 0.02035750
v 0.03193876 -0.02439290 0.01375292
v 0.03298935 -0.02193081 0.02103787
v 0.03141224 -0.02568408 0.01045063
v 0.03133059 -0.02573788 0.00957112
v 0.03098811 -0.02685500 0.01467667
v 0.03102589 -0.02670626 0.01595444
v 0.03099786 -0.02665246 0.01705521
v 0.03065294 -0.02731387 0.01485368
v 0.03010570 -0.02795630 0.01485368
v 0.03091742 -0.02653853 0.01925673
v 0.03086745 -0.02647841 0.02035750
v 0.03044209 -0.02708918 0.01925673
v 0.03005330 -0.02789617 0.01595444
v 0.02950850 -0.02838669 0.01705521
v 0.02901489 -0.02901645 0.01595444
v 0.02895883 -0.02895316 0.01705521
v 0.02889789 -0.02888987 0.01815044
v 0.02852860 -0.02962723 0.01485368
v 0.02712090 -0.03044371 0.01925673
v 0.02791189 -0.03007661 0.01595444
v 0.02729031 -0.03062409 0.01595444
v 0.02425066 -0.03203236 0.01485368
v 0.02425066 -0.02676955 0.01467667
v 0.02539144 -0.00001246 -0.00099399
v 0.03042503 -0.02474418 -0.00099399
v 0.03267125 -0.01045896 0.00934986
v 0.03263956 -0.01155709 0.00934986
v 0.03276144 -0.01265523 0.01045063
v 0.03302348 -0.01246218 0.01214879
v 0.03324895 -0.01265523 0.01375292
v 0.03331842 -0.01357930 0.01467667
v 0.03339033 -0.01265206 0.01485368
v 0.03345249 -0.01375336 0.01595444
v 0.03348540 -0.01485149 0.01705521
v 0.03359509 -0.01485149 0.01815044
v 0.03370356 -0.01485149 0.01925673
v 0.03349271 -0.01595279 0.01815044
v 0.03336230 -0.01704776 0.01815044
v 0.03354024 -0.01814905 0.02145273
v 0.03361337 -0.01924402 0.02365426
v 0.03371819 -0.01924402 0.02475502
v 0.03382057 -0.01924402 0.02585578
v 0.03392050 -0.01924402 0.02695655
v 0.03356706 -0.02034532 0.02475502
v 0.02425066 -0.03211148 0.01595444
v 0.02650419 -0.03088676 0.02035750
v 0.02427869 -0.03196590 0.02914701
v 0.02425066 -0.03194059 0.02961166
v 0.03182419 -0.02494355 0.01375292
v 0.03301617 -0.02207638 0.02177356
v 0.03233974 -0.02364605 0.01705521
v 0.03365968 -0.02034532 0.02585578
v 0.03374866 -0.02034532 0.02695655
v 0.03408870 -0.01972821 0.02983845
v 0.03185101 -0.02508596 0.01467667
v 0.03185588 -0.02511128 0.01485368
v 0.03147806 -0.02568408 0.01155139
v 0.03104295 -0.02676955 0.01467667
v 0.03184126 -0.02519989 0.02035750
v 0.03180835 -0.02515875 0.02145273
v 0.03176691 -0.02511444 0.02255349
v 0.03206186 -0.02441506 0.02585578
v 0.03202407 -0.02436126 0.02695655
v 0.03096129 -0.02659550 0.01815044
v 0.03060053 -0.02726007 0.01595444
v 0.03198385 -0.02430429 0.02805178
v 0.03193998 -0.02424733 0.02914701
v 0.03082723 -0.02643094 0.02120935
v 0.03191073 -0.02420935 0.02980526
v 0.03079188 -0.02638980 0.02193950
v 0.03076141 -0.02635498 0.02255349
v 0.02994482 -0.02777275 0.01815044
v 0.02989120 -0.02770629 0.01925673
v 0.02983391 -0.02764300 0.02035750
v 0.02944756 -0.02832340 0.01815044
v 0.02938053 -0.02826010 0.01925673
v 0.02882964 -0.02882341 0.01925673
v 0.02748775 -0.02968103 0.02297942
v 0.02832750 -0.02944052 0.01815044
v 0.02531953 -0.03081397 0.03093368
v 0.02425066 -0.03163045 0.03244930
v 0.02425066 -0.03190894 0.02991036
v 0.02643716 -0.03082980 0.02145273
v 0.02538901 -0.00001246 -0.00077273
v 0.02425066 -0.02366187 0.04344587
v 0.02681011 -0.00000613 0.01214879
v 0.02910386 -0.00001246 -0.00099399
v 0.03054934 -0.01427236 -0.00099399
v 0.03246162 -0.01045896 0.00825463
v 0.03243968 -0.00935450 0.00825463
v 0.03264687 -0.00935450 0.00934986
v 0.03270416 -0.01045896 0.00957112
v 0.03280532 -0.01155709 0.01045063
v 0.03294304 -0.01155709 0.01137991
v 0.03305395 -0.01155709 0.01214879
v 0.03327698 -0.01155709 0.01375292
v 0.03336840 -0.01265206 0.01467667
v 0.03341593 -0.01155393 0.01485368
v 0.03353293 -0.01155393 0.01595444
v 0.03350368 -0.01265206 0.01595444
v 0.03339399 -0.01155709 0.01467667
v 0.03367187 -0.01375336 0.01815044
v 0.03389125 -0.01375336 0.02035750
v 0.03410576 -0.01437363 0.02301814
v 0.03380838 -0.01485149 0.02035750
v 0.03391197 -0.01485149 0.02145273
v 0.03402532 -0.01478503 0.02261434
v 0.03359387 -0.01595279 0.01925673
v 0.03367065 -0.01704776 0.02145273
v 0.03374622 -0.01814905 0.02365426
v 0.03356949 -0.01704776 0.02035750
v 0.03364384 -0.01814905 0.02255349
v 0.03433611 -0.01814905 0.03024777
v 0.03443361 -0.01814905 0.03134854
v 0.03402532 -0.01918706 0.02809050
v 0.03406432 -0.01953201 0.02914701
v 0.03384616 -0.01814905 0.02475502
v 0.03290282 -0.02248462 0.02142507
v 0.03241774 -0.02364605 0.01815044
v 0.03291988 -0.02274729 0.02255349
v 0.03383153 -0.02034532 0.02805178
v 0.03411429 -0.01987062 0.03057413
v 0.03336352 -0.02144662 0.02475502
v 0.03488944 -0.01814905 0.03684682
v 0.03497110 -0.01814905 0.03794206
v 0.03186929 -0.02519672 0.01595444
v 0.03400704 -0.02052254 0.03134854
v 0.03294182 -0.02287704 0.02365426
v 0.03154631 -0.02584548 0.01467667
v 0.03154997 -0.02584548 0.01485368
v 0.03154631 -0.02584548 0.01595444
v 0.03185954 -0.02522521 0.01925673
v 0.03293451 -0.02297831 0.02805178
v 0.03290648 -0.02295615 0.02914701
v 0.03287113 -0.02291501 0.03024777
v 0.03209598 -0.02446885 0.02475502
v 0.03316242 -0.02221246 0.03355007
v 0.03312220 -0.02215233 0.03465083
v 0.03186563 -0.02415872 0.03053541
v 0.03134765 -0.02474734 0.03024224
v 0.03102101 -0.02553218 0.02695655
v 0.03070291 -0.02629169 0.02365426
v 0.03307223 -0.02208588 0.03574606
v 0.03299301 -0.02199094 0.03733913
v 0.03296010 -0.02195296 0.03794206
v 0.03289429 -0.02188017 0.03904835
v 0.03063588 -0.02622523 0.02475502
v 0.02976932 -0.02757021 0.02145273
v 0.02972422 -0.02752274 0.02217735
v 0.02930862 -0.02819048 0.02035750
v 0.02875895 -0.02875379 0.02035750
v 0.02744388 -0.02963989 0.02365426
v 0.02527200 -0.03076650 0.03166936
v 0.02459558 -0.03117474 0.03355007
v 0.02425066 -0.03150070 0.03355007
v 0.02538901 -0.00001246 -0.00054594
v 0.02425066 -0.02354794 0.04454111
v 0.02425066 -0.02350997 0.04491171
v 0.02425066 -0.02330743 0.04690858
v 0.02425066 -0.02297831 0.05017768
v 0.02425066 -0.02292767 0.05114569
v 0.02425066 -0.02291185 0.05200860
v 0.02425066 -0.02290868 0.05224645
v 0.02714406 -0.00000613 0.01467667
v 0.03209964 -0.00000613 0.01214879
v 0.02540729 -0.00001246 -0.00000386
v 0.02542679 -0.00001246 0.00055482
v 0.02551088 -0.00001246 0.00165558
v 0.02556695 -0.00001246 0.00219767
v 0.02562667 -0.00001246 0.00275082
v 0.02568639 -0.00001246 0.00329843
v 0.02578877 -0.00001246 0.00416687
v 0.02588261 -0.00001246 0.00495234
v 0.02601912 -0.00001246 0.00605311
v 0.02615928 -0.00001246 0.00715387
v 0.02630066 -0.00001246 0.00825463
v 0.02646519 -0.00001246 0.00952134
v 0.02425066 -0.02307008 0.05388377
v 0.02972788 -0.00213277 -0.00099399
v 0.03211426 -0.00000613 0.01219857
v 0.03223492 -0.00000613 0.01265215
v 0.03237752 -0.00000613 0.01320530
v 0.03251159 -0.00000613 0.01375292
v 0.03055422 -0.01315524 -0.00099399
v 0.03055178 -0.01205711 -0.00099399
v 0.03054691 -0.01095581 -0.00099399
v 0.03053837 -0.00985768 -0.00099399
v 0.03052619 -0.00875638 -0.00099399
v 0.03051887 -0.00825320 -0.00099399
v 0.03050912 -0.00767091 -0.00099399
v 0.03237143 -0.00825637 0.00825463
v 0.03049572 -0.00715507 -0.00099399
v 0.03267978 -0.00935450 0.00957112
v 0.03257375 -0.00825637 0.00934986
v 0.03381081 -0.00011689 0.01992051
v 0.03388272 -0.00011689 0.02035750
v 0.03403507 -0.00011689 0.02130338
v 0.03423495 -0.00011689 0.02255349
v 0.03458474 -0.00011689 0.02475502
v 0.03475659 -0.00011689 0.02585578
v 0.03283335 -0.01045896 0.01045063
v 0.03295279 -0.01045896 0.01133013
v 0.03306248 -0.01045896 0.01214879
v 0.03312951 -0.01045896 0.01265215
v 0.03327333 -0.01045896 0.01375292
v 0.03339399 -0.01137987 0.01467667
v 0.03490894 -0.00011689 0.02695655
v 0.03498572 -0.00011689 0.02761479
v 0.03503204 -0.00055045 0.02805178
v 0.03515513 -0.00062007 0.02922445
v 0.03519657 -0.00103464 0.02971122
v 0.03557805 -0.00165175 0.03355007
v 0.03569018 -0.00165175 0.03465083
v 0.03361337 -0.01265206 0.01705521
v 0.03383153 -0.01265206 0.01925673
v 0.03394001 -0.01265206 0.02035750
v 0.03399729 -0.01375336 0.02145273
v 0.03484800 -0.01704776 0.03465083
v 0.03475050 -0.01704776 0.03355007
v 0.03407285 -0.01375336 0.02230458
v 0.03585350 -0.00275304 0.03684682
v 0.03548786 -0.01595279 0.04124435
v 0.03520754 -0.01657622 0.03839011
v 0.03494428 -0.01704776 0.03574606
v 0.03406310 -0.01617748 0.02475502
v 0.03389125 -0.01595279 0.02255349
v 0.03379253 -0.01595279 0.02145273
v 0.03452746 -0.01814905 0.03244930
v 0.03480168 -0.01814905 0.03574606
v 0.03344030 -0.02144662 0.02585578
v 0.03399851 -0.02027886 0.03022565
v 0.03451893 -0.01924402 0.03465083
v 0.03503325 -0.01704776 0.03684682
v 0.03516976 -0.01734523 0.03904835
v 0.03519291 -0.01755094 0.03967894
v 0.03521729 -0.01767119 0.04041463
v 0.03503691 -0.01814905 0.03904835
v 0.03186929 -0.02521888 0.01705521
v 0.03295523 -0.02295932 0.02475502
v 0.03296010 -0.02299729 0.02585578
v 0.03458230 -0.01924402 0.03574606
v 0.03421911 -0.02016493 0.03355007
v 0.03402410 -0.02063647 0.03244930
v 0.03186807 -0.02522837 0.01815044
v 0.03295279 -0.02299729 0.02695655
v 0.03402288 -0.02074090 0.03574606
v 0.03400094 -0.02072508 0.03684682
v 0.03319289 -0.02226943 0.03244930
v 0.03396438 -0.02068710 0.03794206
v 0.03391319 -0.02063647 0.03904835
v 0.03385713 -0.02058583 0.04014358
v 0.03341471 -0.02140231 0.03794206
v 0.03126233 -0.02468405 0.03134854
v 0.03312220 -0.02103205 0.04344587
v 0.03267491 -0.02165865 0.04234511
v 0.03083088 -0.02532964 0.02994355
v 0.03095398 -0.02545622 0.02805178
v 0.03073825 -0.02523470 0.03134854
v 0.03078335 -0.02527900 0.03067923
v 0.03336352 -0.02132952 0.03904835
v 0.03402410 -0.01970606 0.04564740
v 0.03318923 -0.02110483 0.04234511
v 0.02863463 -0.02863037 0.02226033
v 0.02994604 -0.02665246 0.02695655
v 0.02861026 -0.02750692 0.03086730
v 0.02723059 -0.02942469 0.02695655
v 0.02522081 -0.03071587 0.03244930
v 0.02425066 -0.03136462 0.03465083
v 0.02425066 -0.02294349 0.05296001
v 0.02425066 -0.02295932 0.05319233
v 0.02425066 -0.02299096 0.05345231
v 0.02425066 -0.02305109 0.05381186
v 0.03272366 -0.00000613 0.01467667
v 0.03013130 -0.00011689 0.03727828
v 0.03022027 -0.00011689 0.03794206
v 0.03037018 -0.00011689 0.03904835
v 0.03084794 -0.00011689 0.04253871
v 0.03112339 -0.00011689 0.04454111
v 0.03127696 -0.00011689 0.04564740
v 0.03143540 -0.00011689 0.04674817
v 0.03159872 -0.00011689 0.04784340
v 0.03166453 -0.00011689 0.04828038
v 0.03176569 -0.00011689 0.04894416
v 0.03180957 -0.00011689 0.04922626
v 0.03196070 -0.00011689 0.05019427
v 0.03211670 -0.00011689 0.05114569
v 0.03232268 -0.00011689 0.05224645
v 0.03258350 -0.00011689 0.05334722
v 0.03286504 -0.00011689 0.05417140
v 0.03318801 -0.00011689 0.05471902
v 0.03340618 -0.00011689 0.05492922
v 0.03373890 -0.00011689 0.05524451
v 0.03464812 -0.00011689 0.05551002
v 0.02425066 -0.02334857 0.05444797
v 0.02973763 -0.00216758 -0.00099399
v 0.03042015 -0.00605694 -0.00099399
v 0.03206429 -0.00715507 0.00715387
v 0.03361459 -0.00011689 0.01881975
v 0.03369625 -0.00011689 0.01925673
v 0.03280775 -0.00935450 0.01045063
v 0.03484922 -0.00011689 0.02651956
v 0.03503447 -0.00011689 0.02805178
v 0.03520388 -0.00030361 0.02964484
v 0.03560608 -0.00011689 0.03355007
v 0.03571821 -0.00011689 0.03465083
v 0.03579744 -0.00165175 0.03574606
v 0.03405213 -0.01259826 0.02154123
v 0.03575356 -0.00275304 0.03574606
v 0.03589372 -0.00165175 0.03684682
v 0.03598147 -0.00165175 0.03794206
v 0.03593759 -0.00275304 0.03794206
v 0.03631298 -0.00784496 0.04604567
v 0.03557562 -0.01595279 0.04234511
v 0.03651896 -0.01155393 0.05114569
v 0.03566093 -0.01595279 0.04344587
v 0.03523436 -0.01679775 0.03904835
v 0.03513076 -0.01698446 0.03799737
v 0.03527701 -0.01713004 0.04008827
v 0.03537451 -0.01704776 0.04124435
v 0.03544642 -0.01704776 0.04234511
v 0.03550493 -0.01704776 0.04344587
v 0.03524410 -0.01775031 0.04124435
v 0.03463471 -0.01924402 0.03684682
v 0.03527579 -0.01781677 0.04234511
v 0.03403629 -0.02071875 0.03355007
v 0.03403629 -0.02075039 0.03465083
v 0.03425079 -0.02019974 0.03465083
v 0.03531601 -0.01781677 0.04564740
v 0.03530870 -0.01778195 0.04674817
v 0.03425933 -0.02003518 0.04014358
v 0.03422764 -0.01997505 0.04124435
v 0.03418254 -0.01990860 0.04234511
v 0.03413257 -0.01984214 0.04344587
v 0.03379984 -0.02052570 0.04124435
v 0.03118920 -0.02460810 0.03244930
v 0.03004477 -0.02565876 0.03355007
v 0.03395829 -0.01963011 0.04674817
v 0.03305151 -0.02095293 0.04454111
v 0.03167550 -0.02286438 0.04124435
v 0.03042503 -0.02600687 0.02805178
v 0.02958894 -0.02628220 0.03244930
v 0.03406798 -0.01975986 0.04479002
v 0.03522339 -0.01763005 0.04973516
v 0.03518438 -0.01757625 0.05046531
v 0.02836284 -0.02725374 0.03465083
v 0.02726959 -0.02836453 0.03465083
v 0.02882354 -0.02663031 0.03574606
v 0.02896858 -0.02677588 0.03355007
v 0.02576805 -0.03016839 0.03244930
v 0.02514647 -0.03064308 0.03355007
v 0.02451879 -0.03110512 0.03465083
v 0.02444079 -0.03103233 0.03574606
v 0.02425066 -0.03106715 0.03684682
v 0.03013374 -0.00382586 -0.00099399
v 0.02989729 -0.00275304 -0.00099399
v 0.03559755 -0.00011689 0.05525557
v 0.03614722 -0.00011689 0.05475774
v 0.03625692 -0.00011689 0.05454201
v 0.03642389 -0.00011689 0.05421012
v 0.03650067 -0.00011689 0.05386717
v 0.03661524 -0.00011689 0.05334722
v 0.03664571 -0.00011689 0.05291023
v 0.03668959 -0.00011689 0.05224645
v 0.03669446 -0.00011689 0.05114569
v 0.03668227 -0.00011689 0.05071423
v 0.03666277 -0.00011689 0.05004492
v 0.03664083 -0.00011689 0.04960794
v 0.03637148 -0.00011689 0.04454111
v 0.03629104 -0.00011689 0.04303654
v 0.03619354 -0.00011689 0.04124435
v 0.03613260 -0.00011689 0.04014358
v 0.03610701 -0.00011689 0.03971213
v 0.03604119 -0.00011689 0.03861136
v 0.03599610 -0.00011689 0.03794206
v 0.03596685 -0.00011689 0.03751060
v 0.03588031 -0.00011689 0.03640984
v 0.03582181 -0.00011689 0.03574606
v 0.03578159 -0.00011689 0.03530907
v 0.03519170 -0.00011689 0.02952315
v 0.03348296 -0.00011689 0.01815044
v 0.02425066 -0.02349414 0.05465817
v 0.02425066 -0.02391504 0.05515047
v 0.02425066 -0.02416505 0.05525004
v 0.02425066 -0.02524736 0.05547130
v 0.03464812 -0.00385434 0.05551555
v 0.03562437 -0.00385434 0.05526111
v 0.03561584 -0.00275304 0.05526111
v 0.03029462 -0.00495880 -0.00099399
v 0.03581571 -0.00055045 0.03574606
v 0.03591322 -0.00055045 0.03684682
v 0.03600097 -0.00055045 0.03794206
v 0.03606191 -0.00165175 0.03904835
v 0.03632760 -0.00715190 0.04581334
v 0.03654333 -0.00935450 0.05004492
v 0.03657380 -0.01045263 0.05114569
v 0.03607044 -0.01485149 0.04784340
v 0.03653114 -0.01265206 0.05224645
v 0.03645436 -0.01265206 0.05114569
v 0.03574259 -0.01595279 0.04454111
v 0.03581815 -0.01595279 0.04564740
v 0.03588762 -0.01595279 0.04674817
v 0.03594369 -0.01595279 0.04784340
v 0.03555246 -0.01704776 0.04454111
v 0.03467371 -0.01924402 0.03794206
v 0.03559024 -0.01704776 0.04564740
v 0.03529651 -0.01784208 0.04344587
v 0.03469199 -0.01924402 0.03904835
v 0.03530992 -0.01783575 0.04454111
v 0.03560974 -0.01704776 0.04674817
v 0.03560730 -0.01704776 0.04784340
v 0.03558536 -0.01704776 0.04894416
v 0.03528555 -0.01772815 0.04784340
v 0.03525385 -0.01767436 0.04894416
v 0.02951825 -0.02620625 0.03355007
v 0.03012764 -0.02464608 0.04014358
v 0.02875163 -0.02655436 0.03684682
v 0.03427761 -0.01890540 0.04894416
v 0.03387663 -0.01954466 0.04784340
v 0.03340740 -0.02023456 0.04674817
v 0.03295766 -0.02085483 0.04590738
v 0.03300885 -0.02090863 0.04517169
v 0.03546836 -0.01714586 0.05007811
v 0.03548177 -0.01695915 0.05114569
v 0.03542327 -0.01683256 0.05224645
v 0.03513563 -0.01750980 0.05114569
v 0.03451283 -0.01824716 0.05118441
v 0.02821903 -0.02710184 0.03684682
v 0.02759623 -0.02759236 0.03794206
v 0.02766935 -0.02766515 0.03684682
v 0.02719646 -0.02829175 0.03574606
v 0.02617147 -0.02946900 0.03465083
v 0.02657123 -0.02876645 0.03684682
v 0.02638597 -0.02858290 0.03947981
v 0.02425066 -0.03084562 0.03843436
v 0.02425066 -0.03092473 0.03787015
v 0.03617526 -0.00495564 0.05481858
v 0.03617404 -0.00385434 0.05480752
v 0.03616551 -0.00275304 0.05479646
v 0.03615088 -0.00055045 0.05476327
v 0.03642755 -0.00055045 0.05421565
v 0.03644948 -0.00385434 0.05425991
v 0.03661889 -0.00055045 0.05334722
v 0.03663474 -0.00275304 0.05334722
v 0.03664205 -0.00385434 0.05334722
v 0.03664571 -0.00495564 0.05334722
v 0.03669081 -0.00055045 0.05224645
v 0.03669934 -0.00055045 0.05114569
v 0.03666765 -0.00055045 0.05004492
v 0.03625935 -0.00055045 0.04234511
v 0.03620085 -0.00055045 0.04124435
v 0.03614113 -0.00055045 0.04014358
v 0.03607532 -0.00055045 0.03904835
v 0.02425066 -0.02586447 0.05536620
v 0.03134887 -0.01814905 0.05547683
v 0.03464812 -0.01265206 0.05548790
v 0.03464812 -0.00605377 0.05551002
v 0.03561949 -0.00605377 0.05526111
v 0.03562559 -0.00495564 0.05526111
v 0.03613260 -0.00165175 0.04014358
v 0.03658111 -0.00825320 0.05004492
v 0.03650799 -0.00825320 0.04894416
v 0.03661158 -0.00935450 0.05114569
v 0.03662499 -0.01045263 0.05224645
v 0.03658477 -0.01155393 0.05224645
v 0.03614601 -0.01485149 0.04894416
v 0.03636295 -0.01385779 0.05104059
v 0.03643973 -0.01375336 0.05224645
v 0.03650799 -0.01265206 0.05334722
v 0.03621913 -0.01485149 0.05004492
v 0.03598756 -0.01595279 0.04894416
v 0.03600950 -0.01595279 0.05004492
v 0.03598269 -0.01595279 0.05114569
v 0.02857857 -0.02637397 0.03942449
v 0.03419961 -0.01881046 0.05004492
v 0.03378887 -0.01945289 0.04894416
v 0.03332695 -0.02014595 0.04784340
v 0.03289307 -0.02078837 0.04674817
v 0.03009474 -0.02372516 0.04664860
v 0.03187172 -0.02197195 0.04600695
v 0.03038846 -0.02356377 0.04570272
v 0.02897833 -0.02569041 0.04124435
v 0.03590591 -0.01595279 0.05224645
v 0.03570359 -0.01595279 0.05334722
v 0.03530626 -0.01664585 0.05334722
v 0.03503082 -0.01738005 0.05224645
v 0.03448115 -0.01804146 0.05224645
v 0.03407895 -0.01867755 0.05157714
v 0.03413745 -0.01874084 0.05084145
v 0.02754016 -0.02753540 0.03876072
v 0.02748653 -0.02748476 0.03949640
v 0.02633844 -0.02853543 0.04014358
v 0.02425066 -0.03038675 0.04170346
v 0.03560121 -0.00935450 0.05525004
v 0.03559511 -0.01045263 0.05524451
v 0.03558780 -0.01155393 0.05523898
v 0.03615819 -0.00825320 0.05477987
v 0.03644827 -0.00605377 0.05425991
v 0.03645314 -0.00495564 0.05426544
v 0.03664205 -0.00605377 0.05334722
v 0.03669081 -0.00495564 0.05224645
v 0.03669324 -0.00385434 0.05224645
v 0.03669324 -0.00275304 0.05224645
v 0.03670056 -0.00165175 0.05114569
v 0.03666643 -0.00165175 0.05004492
v 0.03660914 -0.00165175 0.04894416
v 0.03629470 -0.00165175 0.04297017
v 0.03626057 -0.00165175 0.04234511
v 0.03619963 -0.00165175 0.04124435
v 0.02425066 -0.02642144 0.05526663
v 0.03244821 -0.01704776 0.05547683
v 0.03464812 -0.01375336 0.05547683
v 0.03631176 -0.00359484 0.04380542
v 0.03660914 -0.00715190 0.05004492
v 0.03663962 -0.00825320 0.05114569
v 0.03665424 -0.00935450 0.05224645
v 0.03655796 -0.01155393 0.05334722
v 0.03633857 -0.01451604 0.05224645
v 0.03632395 -0.01445908 0.05133376
v 0.03638489 -0.01379133 0.05337487
v 0.03632639 -0.01443692 0.05302086
v 0.03637757 -0.01265206 0.05411056
v 0.03633614 -0.01345272 0.05399993
v 0.03625935 -0.01483567 0.05104059
v 0.03623132 -0.01506985 0.05224645
v 0.02837015 -0.02615878 0.04234511
v 0.03369990 -0.01936111 0.05004492
v 0.03315023 -0.01996240 0.05004492
v 0.03272000 -0.02060482 0.04894416
v 0.03208379 -0.02108901 0.05004492
v 0.03173035 -0.02182321 0.04784340
v 0.03010570 -0.02351946 0.04784340
v 0.02970351 -0.02419986 0.04621161
v 0.02856394 -0.02525685 0.04704133
v 0.02866510 -0.02536445 0.04564740
v 0.03616551 -0.01482301 0.05337487
v 0.03575234 -0.01485149 0.05444797
v 0.03534527 -0.01585468 0.05435394
v 0.03521729 -0.01652243 0.05392802
v 0.03487359 -0.01719966 0.05334722
v 0.03432392 -0.01786107 0.05334722
v 0.03400338 -0.01858894 0.05224645
v 0.03300885 -0.01981049 0.05173755
v 0.03306004 -0.01986429 0.05114569
v 0.02774126 -0.02663980 0.04344587
v 0.02757916 -0.02647524 0.04564740
v 0.02719403 -0.02719045 0.04344587
v 0.02593136 -0.02812719 0.04564740
v 0.02425066 -0.02982027 0.04556996
v 0.02444445 -0.02994053 0.04344587
v 0.02425066 -0.03029497 0.04234511
v 0.03555977 -0.01265206 0.05522792
v 0.03613748 -0.01155393 0.05472455
v 0.03614479 -0.01045263 0.05474668
v 0.03643120 -0.00825320 0.05422672
v 0.03662499 -0.00825320 0.05334722
v 0.03663474 -0.00715190 0.05334722
v 0.03668349 -0.00715190 0.05224645
v 0.03669324 -0.00385434 0.05114569
v 0.03665424 -0.00385434 0.05004492
v 0.03653846 -0.00385434 0.04784340
v 0.03637026 -0.00275304 0.04454111
v 0.03632029 -0.00275304 0.04363394
v 0.02698318 -0.02368086 0.05526663
v 0.02425066 -0.02672841 0.05516707
v 0.02917943 -0.02147510 0.05526111
v 0.03027755 -0.02037064 0.05525557
v 0.03136715 -0.01925984 0.05525004
v 0.03354877 -0.01595279 0.05546024
v 0.03464812 -0.01485149 0.05536620
v 0.03549030 -0.01375336 0.05519473
v 0.03663352 -0.00605377 0.05004492
v 0.03666277 -0.00715190 0.05114569
v 0.03667374 -0.00825320 0.05224645
v 0.03660914 -0.00935450 0.05334722
v 0.03658599 -0.01045263 0.05334722
v 0.03640317 -0.01155393 0.05417693
v 0.03628007 -0.01418691 0.05375654
v 0.03611066 -0.01265206 0.05466370
v 0.03608019 -0.01379133 0.05439819
v 0.02829093 -0.02607650 0.04344587
v 0.03263347 -0.02050988 0.05004492
v 0.02902830 -0.02463975 0.04784340
v 0.03198995 -0.02099407 0.05114569
v 0.02861757 -0.02531382 0.04631118
v 0.02849447 -0.02518723 0.04784340
v 0.02747069 -0.02636448 0.04709665
v 0.02752675 -0.02642144 0.04636096
v 0.03532942 -0.01485149 0.05508963
v 0.03520998 -0.01542429 0.05500665
v 0.03495038 -0.01615533 0.05466370
v 0.03456890 -0.01694649 0.05434288
v 0.03418742 -0.01770284 0.05402758
v 0.03383763 -0.01840856 0.05334722
v 0.03291257 -0.01970606 0.05247324
v 0.03192657 -0.02092445 0.05179287
v 0.02813005 -0.02591193 0.04564740
v 0.02703071 -0.02702589 0.04564740
v 0.02694905 -0.02694361 0.04672604
v 0.02425066 -0.02997218 0.04454111
v 0.02637013 -0.02746578 0.04709665
v 0.02425066 -0.02969685 0.04637203
v 0.02425066 -0.03020003 0.04299229
v 0.03641292 -0.01045263 0.05419353
v 0.03667740 -0.00605377 0.05114569
v 0.03668593 -0.00495564 0.05114569
v 0.03664693 -0.00495564 0.05004492
v 0.03658721 -0.00495564 0.04894416
v 0.02773517 -0.02333275 0.05512282
v 0.02425066 -0.02703222 0.05499559
v 0.02444445 -0.02664297 0.05512282
v 0.02992898 -0.02112382 0.05511728
v 0.03101248 -0.02002253 0.05511175
v 0.03208379 -0.01890224 0.05510622
v 0.03244943 -0.01813956 0.05523898
v 0.03353171 -0.01701927 0.05522238
v 0.03460912 -0.01585468 0.05515601
v 0.03046890 -0.02275994 0.05004492
v 0.03036287 -0.02265235 0.05114569
v 0.02740366 -0.02629802 0.04784340
v 0.02511356 -0.02840884 0.04894416
v 0.02425066 -0.02927596 0.04894416
v 0.02465895 -0.02905443 0.04784340
v 0.03421667 -0.01663319 0.05507857
v 0.03388760 -0.01736739 0.05475774
v 0.03350612 -0.01810475 0.05441479
v 0.03312586 -0.01883262 0.05406631
v 0.03328795 -0.01900667 0.05334722
v 0.03276753 -0.01955416 0.05334722
v 0.03182541 -0.02082318 0.05252856
v 0.02864560 -0.02424100 0.05189244
v 0.03073825 -0.02193714 0.05255621
v 0.02856394 -0.02415872 0.05262812
v 0.02425066 -0.02946267 0.04784340
v 0.02526956 -0.02856707 0.04709112
v 0.02517816 -0.02627270 0.05487943
v 0.02425066 -0.02728223 0.05479646
v 0.02846888 -0.02296248 0.05486284
v 0.03065904 -0.02075672 0.05484624
v 0.03174619 -0.01963327 0.05482965
v 0.03315389 -0.01776930 0.05509516
v 0.02937809 -0.02387074 0.05004492
v 0.02425066 -0.02885822 0.05114569
v 0.02501240 -0.02830441 0.05004492
v 0.02425066 -0.02907658 0.05004492
v 0.03281750 -0.01850033 0.05479646
v 0.03204357 -0.01994657 0.05409396
v 0.03221786 -0.02012696 0.05334722
v 0.02645544 -0.02645309 0.05193116
v 0.03168403 -0.02067761 0.05334722
v 0.02951825 -0.02290868 0.05334722
v 0.02843109 -0.02402264 0.05334722
v 0.02734150 -0.02513343 0.05334722
v 0.02746947 -0.02526318 0.05265025
v 0.02425066 -0.02778224 0.05423225
v 0.02440179 -0.02769996 0.05414928
v 0.02549382 -0.02659550 0.05414375
v 0.02767910 -0.02437708 0.05413269
v 0.03095154 -0.02105420 0.05411609
v 0.02426650 -0.02866201 0.05195328
v 0.02425066 -0.02868416 0.05192563
v 0.02515500 -0.02734868 0.05334722
v 0.02425066 -0.02826327 0.05334722
v 0.02637135 -0.02636764 0.05266131
v 0.02425066 -0.02803541 0.05378973
v 0.02425066 -0.02850695 0.05263918
v 0.02425066 -0.02867467 0.05196435
v 0.02425066 -0.02845315 0.05280513
v 0.02527322 -0.02746894 0.05267237
f 1 2 6
f 1 6 13
f 1 13 25
f 1 25 35
f 1 35 72
f 1 72 121
f 1 121 155
f 1 155 154
f 1 154 228
f 1 228 341
f 1 341 426
f 1 426 508
f 1 508 507
f 1 507 565
f 1 565 623
f 1 623 675
f 1 675 672
f 1 672 621
f 1 621 674
f 1 674 706
f 1 706 694
f 1 694 717
f 1 717 715
f 1 715 733
f 1 733 739
f 1 739 738
f 1 738 740
f 1 740 735
f 1 735 737
f 1 737 727
f 1 727 709
f 1 709 682
f 1 682 637
f 1 637 582
f 1 582 526
f 1 526 457
f 1 457 456
f 1 456 455
f 1 455 454
f 1 454 367
f 1 367 251
f 1 251 345
f 1 345 344
f 1 344 343
f 1 343 342
f 1 342 236
f 1 236 235
f 1 235 234
f 1 234 233
f 1 233 232
f 1 232 231
f 1 231 230
f 1 230 158
f 1 158 96
f 1 96 49
f 1 49 95
f 1 95 118
f 1 118 67
f 1 67 29
f 1 29 20
f 1 20 9
f 1 9 3
f 1 3 4
f 1 4 2
f 2 5 6
f 2 4 7
f 2 7 8
f 2 8 5
f 3 9 4
f 4 9 10
f 4 10 11
f 4 11 7
f 5 12 13
f 5 13 6
f 5 8 12
f 7 11 14
f 7 14 15
f 7 15 16
f 7 16 8
f 8 17 12
f 8 16 18
f 8 18 19
f 8 19 17
f 9 20 21
f 9 21 10
f 10 21 11
f 11 21 22
f 11 22 23
f 11 23 14
f 12 24 25
f 12 25 13
f 12 17 26
f 12 26 24
f 14 23 15
f 15 23 22
f 15 22 27
f 15 27 18
f 15 18 16
f 17 19 26
f 18 28 19
f 18 27 28
f 19 28 26
f 20 29 21
f 21 30 31
f 21 31 22
f 21 29 30
f 22 31 32
f 22 32 27
f 24 26 33
f 24 33 34
f 24 34 25
f 25 34 35
f 26 28 33
f 27 36 37
f 27 37 38
f 27 38 39
f 27 39 40
f 27 40 41
f 27 41 42
f 27 42 43
f 27 43 44
f 27 44 45
f 27 45 46
f 27 46 28
f 27 32 47
f 27 47 48
f 27 48 49
f 27 49 50
f 27 50 97
f 27 97 160
f 27 160 252
f 27 252 368
f 27 368 428
f 27 428 427
f 27 427 461
f 27 461 369
f 27 369 265
f 27 265 263
f 27 263 262
f 27 262 261
f 27 261 260
f 27 260 259
f 27 259 258
f 27 258 257
f 27 257 161
f 27 161 98
f 27 98 51
f 27 51 52
f 27 52 53
f 27 53 54
f 27 54 55
f 27 55 56
f 27 56 57
f 27 57 58
f 27 58 59
f 27 59 60
f 27 60 61
f 27 61 62
f 27 62 63
f 27 63 64
f 27 64 65
f 27 65 36
f 28 46 66
f 28 66 33
f 29 67 30
f 30 68 32
f 30 32 31
f 30 67 68
f 32 68 47
f 33 66 69
f 33 69 70
f 33 70 34
f 34 71 35
f 34 70 71
f 35 71 72
f 36 65 73
f 36 73 37
f 37 74 38
f 37 73 75
f 37 75 74
f 38 74 76
f 38 76 77
f 38 77 78
f 38 78 39
f 39 78 79
f 39 79 80
f 39 80 81
f 39 81 40
f 40 81 41
f 41 81 82
f 41 82 83
f 41 83 84
f 41 84 85
f 41 85 86
f 41 86 42
f 42 86 85
f 42 85 87
f 42 87 88
f 42 88 43
f 43 88 44
f 44 88 89
f 44 89 90
f 44 90 91
f 44 91 92
f 44 92 93
f 44 93 45
f 45 93 70
f 45 70 94
f 45 94 46
f 46 94 66
f 47 68 48
f 48 68 95
f 48 95 49
f 49 96 50
f 50 96 97
f 51 98 99
f 51 99 100
f 51 100 52
f 52 100 166
f 52 166 101
f 52 101 54
f 52 54 53
f 54 101 102
f 54 102 103
f 54 103 55
f 55 103 56
f 56 104 57
f 56 103 104
f 57 105 106
f 57 106 58
f 57 104 105
f 58 106 107
f 58 107 60
f 58 60 59
f 60 107 108
f 60 108 109
f 60 109 110
f 60 110 61
f 61 110 111
f 61 111 62
f 62 111 112
f 62 112 113
f 62 113 63
f 63 113 64
f 64 113 114
f 64 114 65
f 65 114 115
f 65 115 116
f 65 116 117
f 65 117 75
f 65 75 73
f 66 94 69
f 67 118 68
f 68 118 95
f 69 94 70
f 70 119 120
f 70 120 71
f 70 93 119
f 71 120 72
f 72 120 121
f 74 122 76
f 74 75 123
f 74 123 124
f 74 124 122
f 75 117 125
f 75 125 126
f 75 126 127
f 75 127 123
f 76 122 128
f 76 128 129
f 76 129 130
f 76 130 77
f 77 130 131
f 77 131 78
f 78 131 132
f 78 132 79
f 79 132 133
f 79 133 80
f 80 133 134
f 80 134 135
f 80 135 136
f 80 136 137
f 80 137 81
f 81 137 83
f 81 83 138
f 81 138 82
f 82 138 83
f 83 137 139
f 83 139 140
f 83 140 84
f 84 141 85
f 84 140 142
f 84 142 141
f 85 141 143
f 85 143 144
f 85 144 145
f 85 145 87
f 87 89 88
f 87 145 144
f 87 144 146
f 87 146 147
f 87 147 148
f 87 148 90
f 87 90 89
f 90 148 149
f 90 149 150
f 90 150 151
f 90 151 152
f 90 152 91
f 91 152 151
f 91 151 153
f 91 153 92
f 92 153 154
f 92 154 155
f 92 155 156
f 92 156 119
f 92 119 93
f 96 157 97
f 96 158 157
f 97 157 159
f 97 159 238
f 97 238 160
f 98 161 162
f 98 162 99
f 99 162 163
f 99 163 164
f 99 164 266
f 99 266 165
f 99 165 166
f 99 166 100
f 101 166 102
f 102 166 167
f 102 167 103
f 103 167 168
f 103 168 169
f 103 169 170
f 103 170 104
f 104 170 105
f 105 171 172
f 105 172 173
f 105 173 106
f 105 170 174
f 105 174 171
f 106 173 175
f 106 175 108
f 106 108 107
f 108 175 176
f 108 176 109
f 109 176 177
f 109 177 178
f 109 178 110
f 110 178 179
f 110 179 180
f 110 180 181
f 110 181 182
f 110 182 183
f 110 183 184
f 110 184 111
f 111 184 185
f 111 185 112
f 112 185 114
f 112 114 113
f 114 185 183
f 114 183 115
f 115 183 190
f 115 190 116
f 116 186 187
f 116 187 188
f 116 188 189
f 116 189 117
f 116 190 186
f 117 189 125
f 119 156 120
f 120 155 121
f 120 156 155
f 122 124 123
f 122 123 191
f 122 191 192
f 122 192 193
f 122 193 128
f 123 127 194
f 123 194 195
f 123 195 196
f 123 196 191
f 125 189 127
f 125 127 126
f 127 195 194
f 127 189 197
f 127 197 198
f 127 198 195
f 128 193 129
f 129 199 130
f 129 193 200
f 129 200 201
f 129 201 199
f 130 199 202
f 130 202 131
f 131 202 203
f 131 203 204
f 131 204 205
f 131 205 132
f 132 205 206
f 132 206 207
f 132 207 133
f 133 207 208
f 133 208 209
f 133 209 135
f 133 135 134
f 135 209 208
f 135 208 210
f 135 210 136
f 136 210 139
f 136 139 137
f 139 210 211
f 139 211 140
f 140 211 142
f 141 142 143
f 142 212 213
f 142 213 214
f 142 214 215
f 142 215 144
f 142 144 143
f 142 211 216
f 142 216 217
f 142 217 218
f 142 218 219
f 142 219 212
f 144 215 147
f 144 147 146
f 147 149 148
f 147 215 220
f 147 220 221
f 147 221 149
f 149 221 222
f 149 222 223
f 149 223 224
f 149 224 150
f 150 224 225
f 150 225 151
f 151 225 153
f 153 225 226
f 153 226 227
f 153 227 228
f 153 228 154
f 157 229 159
f 157 158 230
f 157 230 231
f 157 231 232
f 157 232 233
f 157 233 234
f 157 234 235
f 157 235 236
f 157 236 229
f 159 237 346
f 159 346 256
f 159 256 255
f 159 255 254
f 159 254 253
f 159 253 238
f 159 229 239
f 159 239 240
f 159 240 241
f 159 241 242
f 159 242 243
f 159 243 244
f 159 244 245
f 159 245 246
f 159 246 247
f 159 247 248
f 159 248 249
f 159 249 250
f 159 250 251
f 159 251 237
f 160 238 253
f 160 253 254
f 160 254 255
f 160 255 256
f 160 256 252
f 161 257 162
f 162 257 258
f 162 258 259
f 162 259 260
f 162 260 261
f 162 261 262
f 162 262 263
f 162 263 163
f 163 264 164
f 163 263 265
f 163 265 264
f 164 264 267
f 164 267 268
f 164 268 269
f 164 269 270
f 164 270 271
f 164 271 272
f 164 272 273
f 164 273 266
f 165 266 274
f 165 274 167
f 165 167 166
f 167 274 168
f 168 274 169
f 169 274 275
f 169 275 276
f 169 276 277
f 169 277 278
f 169 278 279
f 169 279 174
f 169 174 170
f 171 174 279
f 171 279 280
f 171 280 281
f 171 281 282
f 171 282 172
f 172 282 283
f 172 283 284
f 172 284 285
f 172 285 286
f 172 286 173
f 173 286 287
f 173 287 175
f 175 287 176
f 176 287 288
f 176 288 289
f 176 289 290
f 176 290 177
f 177 291 292
f 177 292 180
f 177 180 179
f 177 179 178
f 177 290 293
f 177 293 294
f 177 294 295
f 177 295 296
f 177 296 297
f 177 297 291
f 180 292 186
f 180 186 298
f 180 298 190
f 180 190 299
f 180 299 300
f 180 300 181
f 181 300 182
f 182 300 190
f 182 190 183
f 183 185 184
f 186 292 291
f 186 291 187
f 186 190 298
f 187 291 297
f 187 297 301
f 187 301 188
f 188 301 302
f 188 302 189
f 189 302 197
f 190 300 299
f 191 196 303
f 191 303 192
f 192 303 193
f 193 303 304
f 193 304 200
f 195 304 303
f 195 303 196
f 195 198 305
f 195 305 304
f 197 302 306
f 197 306 307
f 197 307 308
f 197 308 198
f 198 308 309
f 198 309 310
f 198 310 305
f 199 311 203
f 199 203 202
f 199 201 312
f 199 312 313
f 199 313 311
f 200 304 305
f 200 305 314
f 200 314 315
f 200 315 201
f 201 315 316
f 201 316 312
f 203 311 317
f 203 317 204
f 204 317 205
f 205 317 318
f 205 318 206
f 206 318 319
f 206 319 320
f 206 320 207
f 207 321 208
f 207 320 321
f 208 321 210
f 210 321 322
f 210 322 211
f 211 322 323
f 211 323 324
f 211 324 325
f 211 325 216
f 212 326 213
f 212 219 327
f 212 327 328
f 212 328 326
f 213 329 330
f 213 330 214
f 213 326 331
f 213 331 332
f 213 332 329
f 214 330 222
f 214 222 221
f 214 221 220
f 214 220 215
f 216 325 217
f 217 325 333
f 217 333 334
f 217 334 218
f 218 334 335
f 218 335 219
f 219 335 327
f 222 336 223
f 222 330 337
f 222 337 338
f 222 338 336
f 223 336 224
f 224 336 339
f 224 339 225
f 225 339 226
f 226 340 227
f 226 339 340
f 227 340 341
f 227 341 228
f 229 236 342
f 229 342 343
f 229 343 344
f 229 344 345
f 229 345 239
f 237 251 347
f 237 347 348
f 237 348 349
f 237 349 350
f 237 350 351
f 237 351 352
f 237 352 353
f 237 353 354
f 237 354 355
f 237 355 356
f 237 356 357
f 237 357 358
f 237 358 359
f 237 359 360
f 237 360 361
f 237 361 362
f 237 362 363
f 237 363 364
f 237 364 365
f 237 365 366
f 237 366 346
f 239 345 251
f 239 251 240
f 240 251 241
f 241 251 242
f 242 251 243
f 243 251 244
f 244 251 245
f 245 251 246
f 246 251 247
f 247 251 248
f 248 251 249
f 249 251 250
f 251 367 359
f 251 359 358
f 251 358 357
f 251 357 356
f 251 356 355
f 251 355 354
f 251 354 353
f 251 353 352
f 251 352 351
f 251 351 350
f 251 350 349
f 251 349 348
f 251 348 347
f 252 256 346
f 252 346 368
f 264 265 369
f 264 369 370
f 264 370 371
f 264 371 372
f 264 372 267
f 266 373 274
f 266 273 373
f 267 372 268
f 268 372 346
f 268 346 269
f 269 346 270
f 270 346 271
f 271 346 272
f 272 346 273
f 273 346 374
f 273 374 274
f 273 274 373
f 274 374 280
f 274 280 275
f 275 280 276
f 276 280 277
f 277 280 278
f 278 280 279
f 280 374 346
f 280 346 281
f 281 346 375
f 281 375 282
f 282 375 376
f 282 376 283
f 283 376 285
f 283 285 284
f 285 376 377
f 285 377 378
f 285 378 286
f 286 289 288
f 286 288 287
f 286 378 379
f 286 379 289
f 289 380 290
f 289 379 380
f 290 380 381
f 290 381 294
f 290 294 293
f 294 381 379
f 294 379 382
f 294 382 383
f 294 383 384
f 294 384 385
f 294 385 295
f 295 386 296
f 295 385 387
f 295 387 386
f 296 386 388
f 296 388 389
f 296 389 306
f 296 306 297
f 297 306 302
f 297 302 301
f 305 310 314
f 306 389 390
f 306 390 391
f 306 391 307
f 307 391 308
f 308 391 392
f 308 392 393
f 308 393 309
f 309 393 394
f 309 394 395
f 309 395 310
f 310 396 314
f 310 395 397
f 310 397 396
f 311 313 317
f 312 316 398
f 312 398 313
f 313 398 399
f 313 399 318
f 313 318 317
f 314 396 315
f 315 400 316
f 315 396 400
f 316 400 398
f 318 399 319
f 319 401 402
f 319 402 320
f 319 399 401
f 320 402 403
f 320 403 322
f 320 322 321
f 322 403 404
f 322 404 323
f 323 404 324
f 324 404 405
f 324 405 406
f 324 406 407
f 324 407 325
f 325 407 333
f 326 408 409
f 326 409 331
f 326 328 408
f 327 335 334
f 327 334 410
f 327 410 411
f 327 411 328
f 328 411 412
f 328 412 409
f 328 409 408
f 329 413 330
f 329 332 409
f 329 409 414
f 329 414 413
f 330 413 337
f 331 409 332
f 333 407 415
f 333 415 334
f 334 415 416
f 334 416 417
f 334 417 410
f 336 338 418
f 336 418 419
f 336 419 339
f 337 413 414
f 337 414 420
f 337 420 421
f 337 421 338
f 338 421 418
f 339 419 422
f 339 422 340
f 340 422 423
f 340 423 341
f 341 423 424
f 341 424 425
f 341 425 426
f 346 427 428
f 346 428 368
f 346 366 429
f 346 429 430
f 346 430 431
f 346 431 432
f 346 432 433
f 346 433 434
f 346 434 435
f 346 435 436
f 346 436 437
f 346 437 438
f 346 438 439
f 346 439 440
f 346 440 441
f 346 441 442
f 346 442 443
f 346 443 444
f 346 444 445
f 346 445 446
f 346 446 447
f 346 447 448
f 346 448 449
f 346 449 450
f 346 450 451
f 346 451 378
f 346 378 377
f 346 377 452
f 346 452 375
f 346 372 371
f 346 371 453
f 346 453 427
f 359 367 360
f 360 367 361
f 361 367 454
f 361 454 455
f 361 455 362
f 362 455 363
f 363 455 456
f 363 456 364
f 364 456 365
f 365 456 457
f 365 457 366
f 366 457 458
f 366 458 459
f 366 459 460
f 366 460 429
f 369 461 371
f 369 371 370
f 371 461 453
f 375 452 376
f 376 452 377
f 378 451 379
f 379 381 380
f 379 451 462
f 379 462 463
f 379 463 382
f 382 463 464
f 382 464 383
f 383 464 465
f 383 465 384
f 384 465 466
f 384 466 385
f 385 466 467
f 385 467 468
f 385 468 387
f 386 469 388
f 386 387 469
f 387 468 470
f 387 470 471
f 387 471 469
f 388 469 472
f 388 472 392
f 388 392 389
f 389 392 391
f 389 391 390
f 392 472 473
f 392 473 393
f 393 473 474
f 393 474 394
f 394 474 475
f 394 475 476
f 394 476 395
f 395 476 397
f 396 397 477
f 396 477 400
f 397 476 478
f 397 478 479
f 397 479 477
f 398 400 477
f 398 477 480
f 398 480 399
f 399 480 481
f 399 481 401
f 401 481 482
f 401 482 483
f 401 483 484
f 401 484 402
f 402 484 485
f 402 485 403
f 403 485 486
f 403 486 404
f 404 486 416
f 404 416 405
f 405 416 406
f 406 416 415
f 406 415 407
f 409 420 487
f 409 487 414
f 409 412 488
f 409 488 489
f 409 489 420
f 410 490 491
f 410 491 492
f 410 492 493
f 410 493 494
f 410 494 411
f 410 417 490
f 411 494 488
f 411 488 412
f 414 487 420
f 416 486 495
f 416 495 496
f 416 496 417
f 417 496 497
f 417 497 498
f 417 498 499
f 417 499 490
f 418 421 420
f 418 420 489
f 418 489 500
f 418 500 501
f 418 501 502
f 418 502 419
f 419 502 501
f 419 501 503
f 419 503 504
f 419 504 422
f 422 504 423
f 423 425 424
f 423 504 505
f 423 505 506
f 423 506 507
f 423 507 508
f 423 508 426
f 423 426 425
f 427 453 461
f 429 460 509
f 429 509 510
f 429 510 511
f 429 511 430
f 430 511 512
f 430 512 431
f 431 513 432
f 431 512 511
f 431 511 513
f 432 513 433
f 433 513 514
f 433 514 434
f 434 514 515
f 434 515 435
f 435 515 516
f 435 516 436
f 436 516 517
f 436 517 518
f 436 518 519
f 436 519 520
f 436 520 437
f 437 520 438
f 438 521 439
f 438 520 521
f 439 521 440
f 440 522 523
f 440 523 441
f 440 521 522
f 441 523 442
f 442 523 524
f 442 524 443
f 443 524 444
f 444 524 445
f 445 524 446
f 446 525 464
f 446 464 447
f 446 524 525
f 447 464 448
f 448 464 449
f 449 464 463
f 449 463 450
f 450 463 462
f 450 462 451
f 457 526 527
f 457 527 528
f 457 528 529
f 457 529 458
f 458 529 530
f 458 530 531
f 458 531 459
f 459 531 509
f 459 509 460
f 464 525 465
f 465 525 532
f 465 532 533
f 465 533 534
f 465 534 467
f 465 467 466
f 467 534 533
f 467 533 535
f 467 535 468
f 468 535 536
f 468 536 537
f 468 537 470
f 469 538 472
f 469 471 539
f 469 539 538
f 470 540 539
f 470 539 471
f 470 537 541
f 470 541 540
f 472 538 473
f 473 538 542
f 473 542 474
f 474 542 475
f 475 542 543
f 475 543 476
f 476 543 478
f 477 479 480
f 478 482 479
f 478 543 544
f 478 544 482
f 479 482 481
f 479 481 480
f 482 544 483
f 483 544 484
f 484 486 485
f 484 544 545
f 484 545 495
f 484 495 486
f 488 546 489
f 488 494 546
f 489 546 501
f 489 501 500
f 490 547 491
f 490 499 547
f 491 547 548
f 491 548 549
f 491 549 492
f 492 549 493
f 493 549 550
f 493 550 551
f 493 551 552
f 493 552 553
f 493 553 554
f 493 554 546
f 493 546 494
f 495 545 555
f 495 555 496
f 496 555 497
f 497 555 556
f 497 556 557
f 497 557 558
f 497 558 498
f 498 558 559
f 498 559 560
f 498 560 499
f 499 560 561
f 499 561 547
f 501 546 562
f 501 562 504
f 501 504 503
f 504 562 505
f 505 562 506
f 506 562 563
f 506 563 564
f 506 564 565
f 506 565 507
f 509 531 530
f 509 530 566
f 509 566 567
f 509 567 568
f 509 568 569
f 509 569 570
f 509 570 571
f 509 571 514
f 509 514 510
f 510 514 511
f 511 514 513
f 514 571 517
f 514 517 516
f 514 516 515
f 517 571 518
f 518 572 630
f 518 630 573
f 518 573 574
f 518 574 575
f 518 575 519
f 518 571 572
f 519 575 576
f 519 576 520
f 520 576 521
f 521 576 577
f 521 577 578
f 521 578 579
f 521 579 522
f 522 579 523
f 523 579 524
f 524 579 580
f 524 580 581
f 524 581 525
f 525 581 532
f 526 582 527
f 527 583 528
f 527 582 583
f 528 583 584
f 528 584 568
f 528 568 567
f 528 567 566
f 528 566 530
f 528 530 529
f 532 581 585
f 532 585 533
f 533 586 587
f 533 587 535
f 533 585 586
f 535 587 588
f 535 588 536
f 536 588 589
f 536 589 537
f 537 589 541
f 538 539 542
f 539 540 542
f 540 590 591
f 540 591 542
f 540 541 592
f 540 592 593
f 540 593 590
f 541 589 594
f 541 594 595
f 541 595 592
f 542 591 596
f 542 596 543
f 543 596 544
f 544 596 597
f 544 597 545
f 545 597 555
f 546 554 598
f 546 598 563
f 546 563 562
f 547 599 548
f 547 561 599
f 548 599 600
f 548 600 549
f 549 600 601
f 549 601 550
f 550 601 602
f 550 602 603
f 550 603 604
f 550 604 551
f 551 605 552
f 551 604 606
f 551 606 605
f 552 605 553
f 553 605 607
f 553 607 554
f 554 607 598
f 555 597 608
f 555 608 556
f 556 608 609
f 556 609 610
f 556 610 611
f 556 611 557
f 557 611 612
f 557 612 558
f 558 612 613
f 558 613 559
f 559 613 614
f 559 614 560
f 560 614 615
f 560 615 616
f 560 616 600
f 560 600 599
f 560 599 561
f 563 598 617
f 563 617 618
f 563 618 619
f 563 619 620
f 563 620 621
f 563 621 622
f 563 622 564
f 564 622 623
f 564 623 565
f 568 624 625
f 568 625 626
f 568 626 569
f 568 584 624
f 569 626 570
f 570 626 627
f 570 627 628
f 570 628 629
f 570 629 572
f 570 572 571
f 572 629 630
f 573 630 631
f 573 631 576
f 573 576 574
f 574 576 575
f 576 631 577
f 577 632 578
f 577 631 632
f 578 633 579
f 578 632 633
f 579 633 634
f 579 634 580
f 580 634 635
f 580 635 581
f 581 635 585
f 582 636 583
f 582 637 636
f 583 636 638
f 583 638 639
f 583 639 640
f 583 640 641
f 583 641 584
f 584 641 642
f 584 642 643
f 584 643 624
f 585 635 586
f 586 635 644
f 586 644 587
f 587 644 645
f 587 645 588
f 588 645 646
f 588 646 647
f 588 647 648
f 588 648 589
f 589 648 649
f 589 649 594
f 590 597 596
f 590 596 591
f 590 593 597
f 592 595 650
f 592 650 593
f 593 650 608
f 593 608 597
f 594 649 651
f 594 651 595
f 595 651 652
f 595 652 650
f 598 653 617
f 598 607 653
f 600 654 601
f 600 616 654
f 601 654 602
f 602 655 604
f 602 604 603
f 602 654 656
f 602 656 655
f 604 655 606
f 605 657 607
f 605 606 657
f 606 655 658
f 606 658 659
f 606 659 660
f 606 660 657
f 607 657 617
f 607 617 653
f 608 650 609
f 609 650 652
f 609 652 661
f 609 661 662
f 609 662 610
f 610 662 611
f 611 662 663
f 611 663 664
f 611 664 665
f 611 665 613
f 611 613 612
f 613 665 666
f 613 666 614
f 614 666 667
f 614 667 615
f 615 668 656
f 615 656 616
f 615 667 668
f 616 656 654
f 617 657 669
f 617 669 618
f 618 669 657
f 618 657 660
f 618 660 619
f 619 660 670
f 619 670 620
f 620 670 660
f 620 660 671
f 620 671 621
f 621 672 622
f 621 671 673
f 621 673 674
f 622 675 623
f 622 672 675
f 624 643 651
f 624 651 625
f 625 651 649
f 625 649 626
f 626 649 676
f 626 676 627
f 627 676 628
f 628 676 649
f 628 649 647
f 628 647 646
f 628 646 630
f 628 630 629
f 630 646 677
f 630 677 678
f 630 678 631
f 631 678 679
f 631 679 632
f 632 679 633
f 633 679 680
f 633 680 634
f 634 680 635
f 635 680 644
f 636 637 681
f 636 681 638
f 637 682 683
f 637 683 681
f 638 681 684
f 638 684 639
f 639 684 685
f 639 685 640
f 640 685 686
f 640 686 687
f 640 687 641
f 641 687 688
f 641 688 689
f 641 689 642
f 642 689 661
f 642 661 643
f 643 661 652
f 643 652 651
f 644 679 677
f 644 677 645
f 644 680 679
f 645 677 646
f 647 649 648
f 655 656 690
f 655 690 658
f 656 668 691
f 656 691 690
f 658 692 659
f 658 690 714
f 658 714 692
f 659 692 693
f 659 693 694
f 659 694 695
f 659 695 673
f 659 673 671
f 659 671 660
f 661 689 662
f 662 689 696
f 662 696 663
f 663 697 664
f 663 696 697
f 664 697 665
f 665 697 698
f 665 698 699
f 665 699 700
f 665 700 666
f 666 700 667
f 667 700 701
f 667 701 702
f 667 702 668
f 668 703 691
f 668 702 704
f 668 704 705
f 668 705 703
f 673 695 706
f 673 706 707
f 673 707 674
f 674 707 706
f 677 679 678
f 681 683 682
f 681 682 708
f 681 708 684
f 682 709 708
f 684 708 710
f 684 710 711
f 684 711 685
f 685 711 686
f 686 688 687
f 686 711 712
f 686 712 713
f 686 713 688
f 688 713 696
f 688 696 689
f 690 691 714
f 691 703 715
f 691 715 716
f 691 716 714
f 692 714 716
f 692 716 717
f 692 717 693
f 693 717 694
f 694 706 695
f 696 713 712
f 696 712 718
f 696 718 697
f 697 718 698
f 698 718 712
f 698 712 699
f 699 712 719
f 699 719 720
f 699 720 701
f 699 701 700
f 701 720 702
f 702 720 704
f 703 721 715
f 703 705 721
f 704 720 705
f 705 720 722
f 705 722 723
f 705 723 724
f 705 724 725
f 705 725 726
f 705 726 721
f 708 709 727
f 708 727 710
f 710 727 711
f 711 727 728
f 711 728 729
f 711 729 730
f 711 730 731
f 711 731 719
f 711 719 712
f 715 721 732
f 715 732 733
f 715 717 716
f 719 731 724
f 719 724 723
f 719 723 722
f 719 722 720
f 721 726 732
f 724 731 725
f 725 731 730
f 725 730 729
f 725 729 728
f 725 728 734
f 725 734 726
f 726 734 735
f 726 735 736
f 726 736 732
f 727 737 728
f 728 737 735
f 728 735 734
f 732 736 738
f 732 738 739
f 732 739 733
f 735 740 736
f 736 740 741
f 736 741 738
f 738 741 740

