# https://github.com/mikedh/trimesh
v 0.03366381 -0.02099892 -0.02570643
v 0.03364023 -0.02099892 -0.02520173
v 0.03348931 -0.02145054 -0.02474935
v 0.03352704 -0.02145054 -0.02570643
v 0.00005154 -0.03559078 -0.02917614
v 0.00005154 -0.02625971 -0.02917614
v -0.01451676 -0.02348140 -0.02917614
v 0.01975577 -0.02099892 -0.02570643
v 0.03356477 -0.02099892 -0.02410185
v 0.03334782 -0.02145054 -0.02255067
v 0.03307900 -0.02223802 -0.02145079
v 0.03311202 -0.02229375 -0.02255067
v 0.03348460 -0.02156488 -0.02570643
v 0.01374735 -0.03469898 -0.02570643
v 0.01374735 -0.03461323 -0.02474935
v 0.01222874 -0.03410587 -0.01863077
v 0.00005154 -0.03558792 -0.02914888
v -0.00054741 -0.03559936 -0.02917614
v 0.03315918 -0.02231233 -0.02570643
v 0.03284791 -0.02286114 -0.02570643
v 0.03276773 -0.02297976 -0.02570643
v 0.03229140 -0.02361717 -0.02570643
v 0.03185280 -0.02415454 -0.02570643
v 0.03180092 -0.02421599 -0.02570643
v 0.03116895 -0.02491772 -0.02570643
v 0.03080580 -0.02531217 -0.02570643
v 0.03026816 -0.02586955 -0.02570643
v 0.02952300 -0.02663130 -0.02570643
v 0.02906553 -0.02709578 -0.02570643
v 0.02849487 -0.02767459 -0.02570643
v 0.02753748 -0.02864071 -0.02570643
v 0.02575948 -0.03041432 -0.02570643
v 0.02533502 -0.03083592 -0.02570643
v 0.02518411 -0.03098170 -0.02570643
v 0.02487755 -0.03127468 -0.02570643
v 0.02420314 -0.03190780 -0.02570643
v 0.02394847 -0.03211503 -0.02570643
v 0.02381641 -0.03221936 -0.02570643
v 0.02301466 -0.03282819 -0.02570643
v 0.02292034 -0.03289250 -0.02570643
v 0.02236854 -0.03319549 -0.02570643
v 0.02157151 -0.03353849 -0.02570643
v 0.02144417 -0.03358422 -0.02570643
v 0.02049150 -0.03384719 -0.02570643
v 0.02034530 -0.03388149 -0.02570643
v 0.01964259 -0.03401726 -0.02570643
v 0.01894931 -0.03414732 -0.02570643
v 0.01827018 -0.03425165 -0.02570643
v 0.01719488 -0.03439599 -0.02570643
v 0.01594981 -0.03453891 -0.02570643
v 0.01485094 -0.03462752 -0.02570643
v -0.01451676 -0.03501482 -0.02917614
v -0.01451676 -0.02669275 -0.01804213
v 0.02319387 -0.02099892 -0.01804104
v 0.03348460 -0.02099892 -0.02300305
v 0.03326765 -0.02145054 -0.02145079
v 0.03303184 -0.02211654 -0.02035090
v 0.03271114 -0.02266105 -0.01804104
v 0.03243289 -0.02365147 -0.01815114
v 0.03313560 -0.02231519 -0.02364946
v 0.03288564 -0.02278825 -0.02145079
v 0.03314975 -0.02232520 -0.02474935
v 0.01485094 -0.03453891 -0.02474935
v 0.01374735 -0.03451033 -0.02364946
v 0.01278997 -0.03401726 -0.01804104
v 0.01262490 -0.03402584 -0.01804104
v 0.00055618 -0.03518061 -0.02570643
v 0.00005154 -0.03552075 -0.02854934
v 0.01374735 -0.03419448 -0.02035090
v 0.01374735 -0.03396724 -0.01804104
v 0.00005154 -0.03539212 -0.02744837
v -0.00054741 -0.03546501 -0.02804791
v -0.01264443 -0.03410444 -0.01804213
v -0.00165100 -0.03558078 -0.02917614
v 0.03288564 -0.02286543 -0.02364946
v 0.03287149 -0.02287543 -0.02474935
v 0.03205559 -0.02443609 -0.02035090
v 0.03203201 -0.02438606 -0.02145079
v 0.03199428 -0.02433176 -0.02255067
v 0.03195183 -0.02427316 -0.02364946
v 0.03191882 -0.02422886 -0.02443977
v 0.03188581 -0.02418598 -0.02517339
v 0.03093314 -0.02544937 -0.02364946
v 0.03086711 -0.02537934 -0.02474935
v 0.03081995 -0.02532789 -0.02548842
v 0.02965977 -0.02746450 -0.01842474
v 0.02978710 -0.02649124 -0.02474935
v 0.02914099 -0.02804475 -0.01804104
v 0.02859391 -0.02859784 -0.01804104
v 0.02804683 -0.02914664 -0.01804104
v 0.02719792 -0.02939818 -0.02255067
v 0.02602359 -0.03042432 -0.02364946
v 0.02539633 -0.03089738 -0.02474935
v 0.02546708 -0.03096598 -0.02364946
v 0.02554254 -0.03102886 -0.02255067
v 0.02421729 -0.03191638 -0.02550041
v 0.02636787 -0.03077161 -0.01804104
v 0.02432104 -0.03199927 -0.02364946
v 0.02437764 -0.03204071 -0.02255067
v 0.02442952 -0.03206787 -0.02145079
v 0.02508507 -0.03176917 -0.01815114
v 0.02293449 -0.03291394 -0.02474935
v 0.02293449 -0.03292395 -0.02364946
v 0.02238741 -0.03318263 -0.02474935
v 0.02238741 -0.03316547 -0.02364946
v 0.02234496 -0.03312832 -0.02255067
v 0.02144417 -0.03352849 -0.02474935
v 0.02144417 -0.03346131 -0.02364946
v 0.02144417 -0.03337414 -0.02255067
v 0.02034530 -0.03380003 -0.02474935
v 0.02034530 -0.03370427 -0.02364946
v 0.02034530 -0.03360709 -0.02255067
v 0.01880782 -0.03411873 -0.02509599
v 0.01857201 -0.03408300 -0.02436346
v 0.01814755 -0.03396009 -0.02255067
v 0.01655348 -0.03410587 -0.02193042
v 0.01552064 -0.03411301 -0.02074660
v -0.01451676 -0.03498481 -0.02881532
v -0.01451676 -0.03397439 -0.01804213
v 0.00005154 -0.02638548 -0.01804104
v 0.03303656 -0.02099892 -0.01804104
v 0.03339499 -0.02099892 -0.02190208
v 0.03317333 -0.02145054 -0.02035090
v 0.03300355 -0.02202507 -0.01973283
v 0.03274887 -0.02255244 -0.01815114
v 0.03273944 -0.02255244 -0.01804104
v 0.03242345 -0.02365147 -0.01804104
v 0.03246590 -0.02365147 -0.01925102
v 0.03239044 -0.02373722 -0.01804104
v 0.03206031 -0.02450469 -0.01804104
v 0.03289036 -0.02284542 -0.02255067
v 0.01509618 -0.03407872 -0.02001407
v 0.01485094 -0.03423021 -0.02145079
v 0.01436517 -0.03410301 -0.01975790
v 0.01154018 -0.03404013 -0.01804104
v 0.00055618 -0.03516346 -0.02557126
v 0.01485094 -0.03390436 -0.01804104
v -0.01204548 -0.03410587 -0.01804213
v 0.00048543 -0.03392579 -0.01804104
v 0.00005154 -0.03391579 -0.01804104
v -0.01295098 -0.03409587 -0.01804213
v -0.01264443 -0.03413731 -0.01834190
v -0.01347448 -0.03412588 -0.01847380
v -0.01374802 -0.03438170 -0.02145188
v -0.01374802 -0.03447888 -0.02255176
v -0.01374802 -0.03467182 -0.02474935
v -0.01374802 -0.03476615 -0.02584923
v 0.03206031 -0.02450183 -0.01815114
v 0.03206031 -0.02447181 -0.01925102
v 0.03173961 -0.02505349 -0.01804104
v 0.03167829 -0.02514210 -0.01804104
v 0.03169716 -0.02502205 -0.01925102
v 0.03165000 -0.02498632 -0.02035090
v 0.03118781 -0.02578665 -0.01815114
v 0.03073978 -0.02633689 -0.01815114
v 0.03061715 -0.02620683 -0.02035090
v 0.03055112 -0.02613823 -0.02145079
v 0.02968335 -0.02749023 -0.01804104
v 0.02749032 -0.02969544 -0.01804104
v 0.02746674 -0.02966829 -0.01846508
v 0.02679233 -0.03008989 -0.02035090
v 0.02616036 -0.03056867 -0.02145079
v 0.02622638 -0.03064013 -0.02035090
v 0.02629241 -0.03070444 -0.01925102
v 0.02713189 -0.03003987 -0.01804104
v 0.02582551 -0.03121465 -0.01804104
v 0.02574533 -0.03118464 -0.01925102
v 0.02506149 -0.03173487 -0.01925102
v 0.02517939 -0.03170486 -0.01804104
v 0.02508507 -0.03177060 -0.01804104
v 0.02450969 -0.03208502 -0.01925102
v 0.02453327 -0.03207644 -0.01815114
v 0.02453327 -0.03207502 -0.01804104
v 0.02289204 -0.03291823 -0.02255067
v 0.02364663 -0.03249805 -0.01925102
v 0.02364663 -0.03243660 -0.01804104
v 0.02265623 -0.03288965 -0.02035090
v 0.02244400 -0.03287106 -0.01934150
v 0.02254776 -0.03273387 -0.01804104
v 0.02146775 -0.03307687 -0.01934150
v 0.02034530 -0.03350133 -0.02145079
v 0.01924643 -0.03380574 -0.02255067
v 0.01924643 -0.03390722 -0.02364946
v 0.01814755 -0.03384862 -0.02145079
v 0.01594981 -0.03391722 -0.01925102
v 0.01594981 -0.03380574 -0.01815114
v -0.01451676 -0.03449032 -0.02331699
v -0.01451676 -0.03398439 -0.01811625
v -0.01379990 -0.03404727 -0.01804213
v 0.03302713 -0.02105752 -0.01804104
v 0.03306014 -0.02099892 -0.01828304
v 0.03329595 -0.02099892 -0.02080328
v 0.03307429 -0.02147484 -0.01931969
v 0.03289979 -0.02172923 -0.01804104
v 0.01478020 -0.03403441 -0.01933496
v 0.01594981 -0.03379288 -0.01804104
v -0.01374802 -0.03428023 -0.02035090
v -0.01420549 -0.03409015 -0.01878556
v -0.01380461 -0.03416733 -0.01919216
v -0.01451676 -0.03439028 -0.02221820
v 0.03118310 -0.02580238 -0.01804104
v 0.03074449 -0.02634260 -0.01804104
v 0.03011252 -0.02703003 -0.01804104
v 0.02373623 -0.03240373 -0.01804104
v 0.02265623 -0.03270671 -0.01804104
v 0.02171771 -0.03289965 -0.01804104
v 0.02159509 -0.03292395 -0.01804104
v 0.02104801 -0.03302970 -0.01804104
v 0.02034530 -0.03338985 -0.02035090
v 0.01924643 -0.03369427 -0.02145079
v 0.01715715 -0.03361852 -0.01804104
v -0.01451676 -0.03407443 -0.01896760
v 0.03292337 -0.02160775 -0.01804104
v -0.01451676 -0.03413017 -0.01950392
v -0.01451676 -0.03428595 -0.02111832
v 0.02045377 -0.03312546 -0.01804104
v 0.01924643 -0.03356993 -0.02035090
f 1 2 3
f 1 3 4
f 1 4 5
f 1 5 6
f 1 6 7
f 1 7 8
f 1 8 54
f 1 54 121
f 1 121 191
f 1 191 192
f 1 192 122
f 1 122 55
f 1 55 9
f 1 9 2
f 2 9 10
f 2 10 11
f 2 11 3
f 3 12 4
f 3 11 12
f 4 12 13
f 4 13 5
f 5 14 15
f 5 15 16
f 5 16 17
f 5 17 18
f 5 18 74
f 5 74 52
f 5 52 7
f 5 7 6
f 5 13 19
f 5 19 20
f 5 20 21
f 5 21 22
f 5 22 23
f 5 23 24
f 5 24 25
f 5 25 26
f 5 26 27
f 5 27 28
f 5 28 29
f 5 29 30
f 5 30 31
f 5 31 32
f 5 32 33
f 5 33 34
f 5 34 35
f 5 35 36
f 5 36 37
f 5 37 38
f 5 38 39
f 5 39 40
f 5 40 41
f 5 41 42
f 5 42 43
f 5 43 44
f 5 44 45
f 5 45 46
f 5 46 47
f 5 47 48
f 5 48 49
f 5 49 50
f 5 50 51
f 5 51 14
f 7 52 118
f 7 118 187
f 7 187 200
f 7 200 215
f 7 215 214
f 7 214 212
f 7 212 188
f 7 188 119
f 7 119 53
f 7 53 54
f 7 54 8
f 9 55 56
f 9 56 10
f 10 56 57
f 10 57 11
f 11 57 58
f 11 58 59
f 11 59 12
f 12 60 13
f 12 59 61
f 12 61 60
f 13 60 62
f 13 62 19
f 14 51 15
f 15 51 63
f 15 63 64
f 15 64 16
f 16 65 66
f 16 66 67
f 16 67 68
f 16 68 17
f 16 64 69
f 16 69 70
f 16 70 65
f 17 68 18
f 18 68 71
f 18 71 72
f 18 72 73
f 18 73 74
f 19 62 75
f 19 75 76
f 19 76 20
f 20 76 77
f 20 77 21
f 21 77 78
f 21 78 79
f 21 79 22
f 22 79 80
f 22 80 81
f 22 81 82
f 22 82 23
f 23 82 24
f 24 83 84
f 24 84 25
f 24 82 83
f 25 84 85
f 25 85 26
f 26 85 27
f 27 86 87
f 27 87 28
f 27 85 84
f 27 84 86
f 28 87 29
f 29 87 88
f 29 88 30
f 30 88 89
f 30 89 31
f 31 89 90
f 31 90 91
f 31 91 92
f 31 92 32
f 32 92 33
f 33 93 34
f 33 92 93
f 34 93 94
f 34 94 35
f 35 94 95
f 35 95 36
f 36 96 37
f 36 95 97
f 36 97 96
f 37 96 98
f 37 98 38
f 38 98 39
f 39 98 99
f 39 99 100
f 39 100 40
f 40 100 101
f 40 101 102
f 40 102 41
f 41 103 104
f 41 104 42
f 41 102 103
f 42 104 105
f 42 105 43
f 43 105 106
f 43 106 107
f 43 107 44
f 44 107 108
f 44 108 45
f 45 108 109
f 45 109 110
f 45 110 46
f 46 110 111
f 46 111 47
f 47 111 112
f 47 112 113
f 47 113 48
f 48 113 114
f 48 114 49
f 49 114 115
f 49 115 116
f 49 116 117
f 49 117 50
f 50 117 63
f 50 63 51
f 52 74 118
f 53 119 140
f 53 140 120
f 53 120 54
f 54 120 140
f 54 140 139
f 54 139 135
f 54 135 66
f 54 66 65
f 54 65 70
f 54 70 137
f 54 137 196
f 54 196 211
f 54 211 216
f 54 216 208
f 54 208 207
f 54 207 206
f 54 206 179
f 54 179 205
f 54 205 176
f 54 176 204
f 54 204 173
f 54 173 170
f 54 170 169
f 54 169 166
f 54 166 97
f 54 97 165
f 54 165 159
f 54 159 90
f 54 90 89
f 54 89 88
f 54 88 158
f 54 158 203
f 54 203 202
f 54 202 201
f 54 201 151
f 54 151 150
f 54 150 130
f 54 130 129
f 54 129 127
f 54 127 58
f 54 58 126
f 54 126 194
f 54 194 213
f 54 213 190
f 54 190 121
f 55 122 56
f 56 122 123
f 56 123 124
f 56 124 57
f 57 124 125
f 57 125 58
f 58 127 59
f 58 125 126
f 59 128 61
f 59 127 129
f 59 129 130
f 59 130 128
f 60 61 131
f 60 131 62
f 61 128 131
f 62 131 75
f 63 117 132
f 63 132 133
f 63 133 64
f 64 133 132
f 64 132 134
f 64 134 69
f 66 135 136
f 66 136 67
f 67 71 68
f 67 136 73
f 67 73 72
f 67 72 71
f 69 134 70
f 70 134 137
f 73 138 135
f 73 135 139
f 73 139 140
f 73 140 141
f 73 141 142
f 73 142 74
f 73 136 138
f 74 142 143
f 74 143 144
f 74 144 145
f 74 145 146
f 74 146 147
f 74 147 118
f 75 131 130
f 75 130 76
f 76 130 148
f 76 148 149
f 76 149 77
f 77 149 150
f 77 150 151
f 77 151 78
f 78 151 152
f 78 152 153
f 78 153 79
f 79 153 80
f 80 153 154
f 80 154 155
f 80 155 81
f 81 155 82
f 82 155 83
f 83 155 156
f 83 156 157
f 83 157 84
f 84 157 158
f 84 158 86
f 86 158 88
f 86 88 87
f 90 159 160
f 90 160 92
f 90 92 91
f 92 160 161
f 92 161 162
f 92 162 93
f 93 162 94
f 94 162 95
f 95 162 163
f 95 163 164
f 95 164 97
f 96 97 98
f 97 164 165
f 97 166 167
f 97 167 98
f 98 167 99
f 99 168 100
f 99 167 166
f 99 166 168
f 100 168 101
f 101 169 170
f 101 170 171
f 101 171 102
f 101 168 169
f 102 171 103
f 103 172 173
f 103 173 174
f 103 174 105
f 103 105 104
f 103 171 172
f 105 174 175
f 105 175 106
f 106 175 176
f 106 176 177
f 106 177 108
f 106 108 107
f 108 177 178
f 108 178 109
f 109 178 179
f 109 179 112
f 109 112 111
f 109 111 110
f 112 179 180
f 112 180 181
f 112 181 182
f 112 182 183
f 112 183 113
f 113 183 182
f 113 182 114
f 114 182 115
f 115 182 210
f 115 210 184
f 115 184 186
f 115 186 185
f 115 185 116
f 116 185 117
f 117 185 186
f 117 186 137
f 117 137 132
f 118 147 146
f 118 146 145
f 118 145 144
f 118 144 187
f 119 188 189
f 119 189 140
f 121 190 191
f 122 192 123
f 123 192 193
f 123 193 124
f 124 193 126
f 124 126 125
f 126 193 194
f 128 130 131
f 130 150 148
f 132 137 195
f 132 195 134
f 134 195 137
f 135 138 136
f 137 186 196
f 140 189 141
f 141 143 142
f 141 189 143
f 143 197 144
f 143 189 198
f 143 198 199
f 143 199 197
f 144 197 200
f 144 200 187
f 148 150 149
f 151 201 152
f 152 201 154
f 152 154 153
f 154 201 202
f 154 202 155
f 155 202 203
f 155 203 156
f 156 203 158
f 156 158 157
f 159 165 163
f 159 163 160
f 160 163 162
f 160 162 161
f 163 165 164
f 166 169 168
f 170 173 172
f 170 172 171
f 173 204 175
f 173 175 174
f 175 204 176
f 176 205 178
f 176 178 177
f 178 205 179
f 179 206 180
f 180 206 207
f 180 207 208
f 180 208 181
f 181 208 209
f 181 209 210
f 181 210 182
f 184 210 186
f 186 211 196
f 186 210 211
f 188 212 198
f 188 198 189
f 190 193 191
f 190 213 193
f 191 193 192
f 193 213 194
f 197 199 200
f 198 212 214
f 198 214 199
f 199 214 215
f 199 215 200
f 208 216 210
f 208 210 209
f 210 216 217
f 210 217 211
f 211 217 216

