# https://github.com/mikedh/trimesh
v -0.00179589 0.01478537 -0.05560018
v -0.00179589 0.01610209 -0.05560018
v 0.00056232 0.01478537 -0.05560018
v 0.02546182 0.01478322 -0.02570935
v -0.00179589 0.01478537 -0.03033085
v -0.01536190 0.02436112 -0.05535017
v -0.01484903 0.02436112 -0.05536120
v -0.01154552 0.02436112 -0.05542738
v -0.01115835 0.02436112 -0.05543473
v -0.00895601 0.02436112 -0.05547518
v -0.00179589 0.01815127 -0.05558915
v -0.00054388 0.01705150 -0.05560018
v -0.00785987 0.02436112 -0.05549355
v -0.00715090 0.02436112 -0.05550459
v -0.00604973 0.02436112 -0.05551562
v 0.00165343 0.01595388 -0.05560018
v 0.01381658 0.01478537 -0.05557444
v 0.03439688 0.01478322 -0.02570935
v 0.02640712 0.01478322 -0.01804730
v -0.01536190 0.02654348 -0.01803995
v -0.01536190 0.02436112 -0.02747780
v -0.01536190 0.02584968 -0.05528399
v -0.01374786 0.02694945 -0.05527296
v -0.01374786 0.02475205 -0.05536855
v -0.00934821 0.02475205 -0.05545679
v -0.00179589 0.02035296 -0.05557076
v -0.00054388 0.01815127 -0.05559283
v -0.00494856 0.02436112 -0.05552297
v 0.00056232 0.01705150 -0.05560018
v -0.00604973 0.02584968 -0.05547885
v -0.00494856 0.02584968 -0.05549723
v -0.00604973 0.02475205 -0.05550826
v -0.00384739 0.02584968 -0.05550826
v 0.00825542 0.01595388 -0.05558547
v 0.01485238 0.01595388 -0.05556341
v 0.01704969 0.01595388 -0.05555606
v 0.01814583 0.01478537 -0.05555606
v 0.01924700 0.01478537 -0.05553032
v 0.02041354 0.01478537 -0.05549723
v 0.02364162 0.01478537 -0.05539797
v 0.02474782 0.01478537 -0.05536120
v 0.02584396 0.01478537 -0.05532076
v 0.02590933 0.01478537 -0.05531708
v 0.02694513 0.01478537 -0.05523987
v 0.02700547 0.01478537 -0.05523252
v 0.02811167 0.01478537 -0.05509649
v 0.02837816 0.01478537 -0.05505972
v 0.02867482 0.01478537 -0.05501192
v 0.02914747 0.01478537 -0.05482074
v 0.02999221 0.01478537 -0.05422145
v 0.03436671 0.01478537 -0.05073970
v 0.03488964 0.01478537 -0.05029483
v 0.03536732 0.01478537 -0.04974334
v 0.03569918 0.01478537 -0.04894552
v 0.03593047 0.01478537 -0.04784253
v 0.03600590 0.01478537 -0.04674323
v 0.03599081 0.01478537 -0.04564392
v 0.03594556 0.01478537 -0.04454462
v 0.03586511 0.01478537 -0.04337913
v 0.03569918 0.01478537 -0.04124670
v 0.03488964 0.01478537 -0.03128677
v 0.03480416 0.01478537 -0.03025732
v 0.03470360 0.01478537 -0.02908816
v 0.03460806 0.01478537 -0.02798885
v 0.03441197 0.01478537 -0.02585274
v 0.03379350 0.01478322 -0.01925691
v 0.03367282 0.01478322 -0.01804730
v -0.00179589 0.02635445 -0.01803995
v -0.00263560 0.02635660 -0.01803995
v -0.00494856 0.02636519 -0.01803995
v -0.00604973 0.02637808 -0.01803995
v -0.01536190 0.03382947 -0.01803995
v -0.01536190 0.02694945 -0.05521414
v -0.01484903 0.02694945 -0.05523987
v -0.01264669 0.02804922 -0.05524355
v -0.01154552 0.02804922 -0.05526928
v -0.01154552 0.02694945 -0.05532076
v -0.00494856 0.02694945 -0.05546046
v -0.00179589 0.02436112 -0.05553032
v -0.00346022 0.02436112 -0.05552665
v 0.00715425 0.01815127 -0.05557444
v -0.00274622 0.02584968 -0.05551194
v 0.00496197 0.01705150 -0.05558915
v -0.00384739 0.02694945 -0.05547885
v -0.00274622 0.02694945 -0.05549355
v 0.01485238 0.01705150 -0.05555606
v 0.01704969 0.01705150 -0.05554503
v 0.01814583 0.01595388 -0.05554135
v 0.01924700 0.01485196 -0.05553032
v 0.01924700 0.01595388 -0.05551562
v 0.01924700 0.01925104 -0.05546782
v 0.02364162 0.01595388 -0.05537958
v 0.02474782 0.01485196 -0.05536120
v 0.02034817 0.02035296 -0.05540900
v 0.02034817 0.02145274 -0.05536855
v 0.02364162 0.01815127 -0.05531340
v 0.02584396 0.01595388 -0.05526560
v 0.02694513 0.01485196 -0.05523619
v 0.02694513 0.01595388 -0.05514428
v 0.02854409 0.01533096 -0.05498619
v 0.02910725 0.01491854 -0.05480971
v 0.02997209 0.01485196 -0.05421777
v 0.03418067 0.01555005 -0.05065882
v 0.03487959 0.01485196 -0.05028013
v 0.03535726 0.01485196 -0.04973231
v 0.03568912 0.01485196 -0.04894552
v 0.03592042 0.01485196 -0.04784253
v 0.03599081 0.01485196 -0.04674323
v 0.03577963 0.01595388 -0.04564392
v 0.03578969 0.01595388 -0.04454462
v 0.03598578 0.01485196 -0.04564392
v 0.03587516 0.01485196 -0.04344164
v 0.03576454 0.01595388 -0.04344164
v 0.03570923 0.01595388 -0.04234601
v 0.03578969 0.01485196 -0.04234601
v 0.03502540 0.01595388 -0.03355524
v 0.03534218 0.01485196 -0.03684580
v 0.03556845 0.01595388 -0.04014739
v 0.03529692 0.01595388 -0.03684580
v 0.03483433 0.01595388 -0.03135662
v 0.03473377 0.01595388 -0.03025732
v 0.03410022 0.01545554 -0.02304381
v 0.03366780 0.01485625 -0.01804730
v -0.00179589 0.03375214 -0.01803995
v -0.01536190 0.03384235 -0.01815025
v -0.01484903 0.03388102 -0.01803995
v -0.01536190 0.02800626 -0.05508545
v -0.01374786 0.02804922 -0.05519942
v -0.01044435 0.02914899 -0.05521781
v -0.00934821 0.02914899 -0.05525090
v -0.00824704 0.02914899 -0.05527663
v -0.00604973 0.02804922 -0.05538325
v -0.00384739 0.02804922 -0.05542738
v -0.00179589 0.02600003 -0.05551194
v 0.01375121 0.01815127 -0.05554870
v -0.00274622 0.02804922 -0.05544576
v -0.00179589 0.02804922 -0.05545311
v -0.00179589 0.02709981 -0.05548988
v -0.00179589 0.02694945 -0.05549355
v 0.01814583 0.02035296 -0.05546782
v 0.01814583 0.01815127 -0.05551194
v 0.01154887 0.02035296 -0.05552665
v 0.01594852 0.01815127 -0.05553400
v 0.01594852 0.01925104 -0.05551194
v 0.01924700 0.02035296 -0.05544576
v 0.02034817 0.01925104 -0.05543105
v 0.01924700 0.02145274 -0.05542002
v 0.02034817 0.02255036 -0.05530237
v 0.02143928 0.02145274 -0.05528767
v 0.02254548 0.02035296 -0.05526928
v 0.01924700 0.02255036 -0.05536488
v 0.02364162 0.01925104 -0.05524355
v 0.02474782 0.01815127 -0.05521414
v 0.02364162 0.02035296 -0.05515531
v 0.02485341 0.01935844 -0.05509649
v 0.02555735 0.01906417 -0.05503030
v 0.02529589 0.01979878 -0.05499354
v 0.02629147 0.01855295 -0.05497883
v 0.02727699 0.01730496 -0.05495677
v 0.02692502 0.01817275 -0.05486853
v 0.02830777 0.01595388 -0.05490898
v 0.02918770 0.01595388 -0.05435013
v 0.02804630 0.01808254 -0.05425454
v 0.03393932 0.01628467 -0.05046028
v 0.03525670 0.01550280 -0.04957789
v 0.02881058 0.01705150 -0.05413689
v 0.02767925 0.01895892 -0.05410012
v 0.03533212 0.01590018 -0.04885360
v 0.03556845 0.01595388 -0.04784253
v 0.03571426 0.01595388 -0.04674323
v 0.03540755 0.01689255 -0.04564392
v 0.03542766 0.01697417 -0.04454462
v 0.03522150 0.01765294 -0.04234601
v 0.03523156 0.01767012 -0.04124670
v 0.03543268 0.01705150 -0.04234601
v 0.03542263 0.01705150 -0.04124670
v 0.03520139 0.01761642 -0.03840836
v 0.03517625 0.01748754 -0.03767671
v 0.03520642 0.01655746 -0.03619504
v 0.03523156 0.01673145 -0.03684580
v 0.03481422 0.01705150 -0.03245593
v 0.03451253 0.01705150 -0.02915434
v 0.03378847 0.01595388 -0.02035621
v 0.03367785 0.01595388 -0.01925691
v 0.03355215 0.01595388 -0.01804730
v 0.03339125 0.01705150 -0.01804730
v 0.03293368 0.02010594 -0.01804730
v 0.03270239 0.02145488 -0.01804730
v 0.03247612 0.02255465 -0.01804730
v 0.03218449 0.02365657 -0.01804730
v 0.03195319 0.02431386 -0.01804730
v 0.03192302 0.02436971 -0.01804730
v 0.03164647 0.02486375 -0.01804730
v 0.03109840 0.02568858 -0.01804730
v 0.03065090 0.02623417 -0.01804730
v 0.03010282 0.02683775 -0.01804730
v 0.02958492 0.02738764 -0.01804730
v 0.02902680 0.02795685 -0.01804730
v 0.02849381 0.02849815 -0.01804730
v 0.02738258 0.02959148 -0.01804730
v 0.02688982 0.03006404 -0.01804730
v 0.02625124 0.03066762 -0.01804730
v 0.02575848 0.03108863 -0.01804730
v 0.02498415 0.03168362 -0.01804730
v 0.02449641 0.03201012 -0.01804730
v 0.02444110 0.03204233 -0.01804730
v 0.02364162 0.03241179 -0.01804730
v 0.02254548 0.03276621 -0.01804730
v 0.02170578 0.03294879 -0.01804730
v 0.02116274 0.03304545 -0.01804730
v 0.02034817 0.03317862 -0.01804730
v 0.01924700 0.03333972 -0.01804730
v 0.01693907 0.03365977 -0.01804730
v 0.01594852 0.03379080 -0.01804730
v 0.01503842 0.03389820 -0.01804730
v 0.01485238 0.03391753 -0.01804730
v 0.01376127 0.03402493 -0.01804730
v 0.01282603 0.03407433 -0.01804730
v 0.01265004 0.03408078 -0.01804730
v -0.01154552 0.03401849 -0.01803995
v -0.01536190 0.03411085 -0.02078638
v -0.01484903 0.03389390 -0.01815025
v -0.01374786 0.03394546 -0.01803995
v -0.01536190 0.02854541 -0.05498619
v -0.01458756 0.02872583 -0.05503030
v -0.01374786 0.02890412 -0.05507442
v -0.01263160 0.02920699 -0.05509649
v -0.01154552 0.02914899 -0.05516634
v -0.00824704 0.03024876 -0.05517369
v -0.00715090 0.03024876 -0.05522149
v -0.00604973 0.03024876 -0.05525458
v -0.00164505 0.02694730 -0.05549355
v -0.00054388 0.02584538 -0.05550826
v -0.00494856 0.03024876 -0.05527296
v -0.00384739 0.03024876 -0.05528767
v -0.00179589 0.02929935 -0.05537590
v -0.00054388 0.03024661 -0.05532443
v 0.00056232 0.03024661 -0.05532443
v 0.00165343 0.03024661 -0.05531708
v -0.00054388 0.02804707 -0.05544208
v 0.00165343 0.02694730 -0.05545679
v 0.01814583 0.02145274 -0.05544208
v 0.01154887 0.02255036 -0.05547885
v 0.00825542 0.02255036 -0.05550826
v 0.00056232 0.02584538 -0.05550091
v 0.00165343 0.02584538 -0.05549355
v 0.01704969 0.02255036 -0.05542370
v 0.01814583 0.02255036 -0.05540164
v 0.02034817 0.02365228 -0.05521046
v 0.02143928 0.02255036 -0.05521781
v 0.01924700 0.02365228 -0.05528399
v 0.01594852 0.02475420 -0.05534281
v 0.01814583 0.02365228 -0.05533546
v 0.02254548 0.02145274 -0.05518839
v 0.02364162 0.02140763 -0.05505604
v 0.02453664 0.02035296 -0.05504133
v 0.02429026 0.02101455 -0.05500824
v 0.02508974 0.02035296 -0.05495309
v 0.02584396 0.02035296 -0.05460749
v 0.02699541 0.01929830 -0.05437954
v 0.02795580 0.01698491 -0.05472514
v 0.02469251 0.02140763 -0.05477662
v 0.03290854 0.01749828 -0.05052278
v 0.03359740 0.01712238 -0.05012571
v 0.03428123 0.01674434 -0.04972863
v 0.02640712 0.02091789 -0.05390894
v 0.03521145 0.01652309 -0.04842711
v 0.03501032 0.01623311 -0.04915876
v 0.02578362 0.02135178 -0.05414792
v 0.03527178 0.01661975 -0.04784253
v 0.03535223 0.01677656 -0.04674323
v 0.03509077 0.01744029 -0.04564392
v 0.03514608 0.01752621 -0.04454462
v 0.03520642 0.01762287 -0.04307765
v 0.03409519 0.01980308 -0.03850763
v 0.03415553 0.01989759 -0.03575385
v 0.03521145 0.01763575 -0.03904809
v 0.03416056 0.01992336 -0.03465454
v 0.03416056 0.01993196 -0.03355524
v 0.03415553 0.01993410 -0.03245593
v 0.03415050 0.01992336 -0.03135662
v 0.03412033 0.01986107 -0.03025732
v 0.03409519 0.01980308 -0.02969847
v 0.03472371 0.01815127 -0.03355524
v 0.03514608 0.01728134 -0.03684580
v 0.03500529 0.01705150 -0.03465454
v 0.03444214 0.01815127 -0.03025732
v 0.03407005 0.01850569 -0.02672777
v 0.03403485 0.01814698 -0.02581965
v 0.03360746 0.01815342 -0.02145552
v 0.03352701 0.01705150 -0.01925691
v 0.03332588 0.01925319 -0.02035621
v 0.03291357 0.02032504 -0.01816128
v 0.03296385 0.02072027 -0.01925691
v 0.03298899 0.02089641 -0.01981943
v 0.03335605 0.02035296 -0.02255483
v 0.03363260 0.02035296 -0.02571303
v 0.03258171 0.02255465 -0.01925691
v 0.03300911 0.02204988 -0.02291513
v 0.03303425 0.02209928 -0.02365413
v 0.03195822 0.02431816 -0.01925691
v 0.03304933 0.02213580 -0.02475344
v 0.03306944 0.02214654 -0.02571303
v 0.03164647 0.02486375 -0.01815760
v 0.03195822 0.02430527 -0.02035621
v 0.03194313 0.02427520 -0.02145552
v 0.03191799 0.02423653 -0.02255483
v 0.03109840 0.02567998 -0.01815760
v 0.03064587 0.02622772 -0.01815760
v 0.03189788 0.02421290 -0.02316882
v 0.03178223 0.02407329 -0.02570935
v 0.03090733 0.02542437 -0.02255483
v 0.03084699 0.02535778 -0.02365413
v 0.03080677 0.02531482 -0.02432695
v 0.03110846 0.02452436 -0.02805503
v 0.02848878 0.02849171 -0.01815760
v 0.02771947 0.02881820 -0.02145552
v 0.02651271 0.02870865 -0.03135662
v 0.02428523 0.03088027 -0.03135662
v 0.02311869 0.03191990 -0.03208827
v 0.02542160 0.03091464 -0.02255483
v 0.02675406 0.03004470 -0.01925691
v 0.02617582 0.03059674 -0.01925691
v 0.02407405 0.03178887 -0.02570935
v 0.02417461 0.03187479 -0.02396664
v 0.02424500 0.03193494 -0.02255483
v 0.02430031 0.03198004 -0.02145552
v 0.02498415 0.03168147 -0.01815760
v 0.02439585 0.03203159 -0.01925691
v 0.02224882 0.03315500 -0.02585274
v 0.02225385 0.03315500 -0.02571303
v 0.02282706 0.03287146 -0.02255483
v 0.02278683 0.03287361 -0.02145552
v 0.02223876 0.03308841 -0.02145552
v 0.02254548 0.03277695 -0.01815760
v 0.02193205 0.03298316 -0.01885983
v 0.02174600 0.03295523 -0.01815760
v 0.02034314 0.03342994 -0.02035621
v 0.02034314 0.03331395 -0.01925691
v 0.01924700 0.03347075 -0.01925691
v 0.01814583 0.03350727 -0.01815760
v 0.01704969 0.03365763 -0.01815760
v 0.01660218 0.03410870 -0.02187098
v 0.01503842 0.03404212 -0.01942236
v 0.01485238 0.03393042 -0.01815760
v 0.01376127 0.03404212 -0.01816495
v 0.01340930 0.03411730 -0.01853997
v 0.01265004 0.03412589 -0.01844438
v -0.00054388 0.03571755 -0.03025732
v 0.00056232 0.03544261 -0.02805503
v 0.00056232 0.03531373 -0.02695572
v 0.00056232 0.03522136 -0.02622776
v 0.00055729 0.03515478 -0.02570935
v 0.01155390 0.03408078 -0.01804730
v -0.01264669 0.03400345 -0.01803995
v -0.00054388 0.03544261 -0.02805503
v -0.01536190 0.03478532 -0.02805503
v -0.01484903 0.03407648 -0.02004370
v -0.01484903 0.03412804 -0.02059152
v -0.01484903 0.03441587 -0.02365413
v -0.01484903 0.03472303 -0.02695205
v -0.01424062 0.03409582 -0.01983414
v -0.01382328 0.03416025 -0.02026062
v -0.01351153 0.03411515 -0.01963560
v -0.01536190 0.02916403 -0.05467735
v -0.01491439 0.02911462 -0.05485015
v -0.01374786 0.02945400 -0.05493103
v -0.01298860 0.02961296 -0.05497515
v -0.00989125 0.03079650 -0.05499721
v -0.01044435 0.03012633 -0.05508545
v -0.00945380 0.03035831 -0.05510016
v -0.00715090 0.03123254 -0.05508545
v -0.00494856 0.03134853 -0.05513693
v 0.00275460 0.02584538 -0.05548253
v -0.00384739 0.03134853 -0.05515531
v 0.00056232 0.03134853 -0.05519942
v -0.00179589 0.03134853 -0.05517737
v 0.00165343 0.03134853 -0.05519575
v 0.00275460 0.03024661 -0.05529869
v 0.00715425 0.02914469 -0.05529135
v 0.00935156 0.02475420 -0.05544208
v 0.01154887 0.02804707 -0.05527663
v 0.01594852 0.02365228 -0.05539797
v 0.00605308 0.02475420 -0.05547885
v 0.01485238 0.02365228 -0.05541267
v 0.01814583 0.02475420 -0.05524722
v 0.01924700 0.02475420 -0.05517001
v 0.02030292 0.02474990 -0.05506707
v 0.02146945 0.02368020 -0.05508913
v 0.02256559 0.02255036 -0.05508177
v 0.01704969 0.02475420 -0.05530237
v 0.01594852 0.02584538 -0.05526928
v 0.01485238 0.02694730 -0.05523252
v 0.01375121 0.02694730 -0.05528399
v 0.02326451 0.02218520 -0.05502295
v 0.02399862 0.02174486 -0.05495677
v 0.02469754 0.02249666 -0.05422145
v 0.02364162 0.02255036 -0.05480971
v 0.03326051 0.01791929 -0.04979114
v 0.02537131 0.02208854 -0.05398983
v 0.03185765 0.01866464 -0.05056690
v 0.03256160 0.01829304 -0.05017718
v 0.03294877 0.01865175 -0.04941245
v 0.03398960 0.01747895 -0.04930215
v 0.03418067 0.01770019 -0.04857050
v 0.03430637 0.01785700 -0.04784253
v 0.03485947 0.01717179 -0.04784253
v 0.03500026 0.01732430 -0.04674323
v 0.03447231 0.01825008 -0.04568069
v 0.03433151 0.01900188 -0.04234601
v 0.03438180 0.01907920 -0.04124670
v 0.03487959 0.01820497 -0.04234601
v 0.03394937 0.01962694 -0.04124670
v 0.03317001 0.02110047 -0.03684580
v 0.03322532 0.02117350 -0.03575385
v 0.03287837 0.02185871 -0.03355524
v 0.03300408 0.02201336 -0.03090440
v 0.03302419 0.02204129 -0.03025732
v 0.03307447 0.02212720 -0.02805503
v 0.03307447 0.02214868 -0.02695572
v 0.03389909 0.02047325 -0.03135662
v 0.03384881 0.01925319 -0.02570935
v 0.03453767 0.01815127 -0.03135662
v 0.03355718 0.01925319 -0.02255483
v 0.03344656 0.01925319 -0.02145552
v 0.03325046 0.02035296 -0.02145552
v 0.03297391 0.02192744 -0.02217981
v 0.03213420 0.02338808 -0.02805503
v 0.03202861 0.02325920 -0.03025732
v 0.03165653 0.02394011 -0.02805503
v 0.03196828 0.02318616 -0.03135662
v 0.03151574 0.02380693 -0.03025732
v 0.03096767 0.02437615 -0.03025732
v 0.02987655 0.02548881 -0.03025732
v 0.03057044 0.02507210 -0.02805503
v 0.02854409 0.02744134 -0.02571303
v 0.02824743 0.02714062 -0.03025732
v 0.02768930 0.02769480 -0.03025732
v 0.02743789 0.02853896 -0.02571303
v 0.02754851 0.02754444 -0.03245593
v 0.02417964 0.03078361 -0.03288977
v 0.02294271 0.03174806 -0.03465454
v 0.02239464 0.03227861 -0.03465454
v 0.02180634 0.03282635 -0.03465454
v 0.02323937 0.03203159 -0.03025732
v 0.02187674 0.03289294 -0.03355524
v 0.02193707 0.03294879 -0.03245593
v 0.02132866 0.03334187 -0.03355524
v 0.02211306 0.03308411 -0.02915434
v 0.02435563 0.03201226 -0.02035621
v 0.02220859 0.03313996 -0.02695572
v 0.02063980 0.03395620 -0.03135662
v 0.02063478 0.03398412 -0.03025732
v 0.02000626 0.03423329 -0.03465454
v 0.02227396 0.03315070 -0.02475344
v 0.02059455 0.03398412 -0.02915434
v 0.02227396 0.03311418 -0.02255483
v 0.02004145 0.03418603 -0.02915434
v 0.01994592 0.03414737 -0.02805503
v 0.02214323 0.03304545 -0.02035621
v 0.02205775 0.03301538 -0.01959516
v 0.02144431 0.03321729 -0.02035621
v 0.02151471 0.03310344 -0.01923852
v 0.02034314 0.03353304 -0.02145552
v 0.01885480 0.03412804 -0.02501448
v 0.01863859 0.03408937 -0.02427915
v 0.01924700 0.03382087 -0.02255483
v 0.01924700 0.03370703 -0.02145552
v 0.01704969 0.03388961 -0.02035621
v 0.01594852 0.03436861 -0.02365413
v 0.01704969 0.03446312 -0.02585274
v 0.01704969 0.03457697 -0.02695572
v 0.01503842 0.03411944 -0.02018341
v 0.01449538 0.03411944 -0.01959148
v 0.01413838 0.03408078 -0.01885616
v 0.01485238 0.03426766 -0.02145552
v 0.01485238 0.03437291 -0.02255483
v 0.01594852 0.03540394 -0.03465454
v 0.01493786 0.03516981 -0.03130515
v 0.01463617 0.03521922 -0.03164340
v 0.00275460 0.03593879 -0.03355524
v 0.00165343 0.03578414 -0.03135662
v 0.00056232 0.03569177 -0.03025732
v 0.00056232 0.03580776 -0.03135662
v -0.00054388 0.03582710 -0.03135662
v -0.00164505 0.03579703 -0.03135662
v -0.00164505 0.03568103 -0.03025732
v -0.01264669 0.03408293 -0.01885248
v -0.01536190 0.03488628 -0.02915434
v -0.01374786 0.03448890 -0.02365413
v -0.01374786 0.03459200 -0.02475344
v -0.01484903 0.03482398 -0.02805503
v -0.01374786 0.03438365 -0.02255115
v -0.01536190 0.02994375 -0.05416998
v -0.01484903 0.03006833 -0.05426924
v -0.01264669 0.03110366 -0.05425086
v -0.01263160 0.03018003 -0.05482441
v -0.01154552 0.03045067 -0.05490162
v -0.01044435 0.03067407 -0.05496780
v -0.00824704 0.03161918 -0.05492736
v -0.00715090 0.03178243 -0.05497148
v -0.00824704 0.03106930 -0.05505236
v -0.00641176 0.03186190 -0.05498619
v -0.00604470 0.03143660 -0.05508913
v -0.00567764 0.03191775 -0.05500456
v -0.00494856 0.03196071 -0.05501560
v -0.00384739 0.03202086 -0.05502663
v -0.00274622 0.03205952 -0.05503398
v 0.00056232 0.03214329 -0.05504869
v 0.00165343 0.03211537 -0.05504133
v 0.00275460 0.03134853 -0.05516634
v 0.00715425 0.03024661 -0.05519575
v 0.00496197 0.03024661 -0.05524722
v 0.00935156 0.02914469 -0.05525090
v 0.00825542 0.02914469 -0.05527296
v 0.01045273 0.02914469 -0.05522516
v 0.01265004 0.02804707 -0.05524722
v 0.01704969 0.02584538 -0.05520678
v 0.01594852 0.02694730 -0.05515531
v 0.01824640 0.02594633 -0.05509649
v 0.01924700 0.02562199 -0.05504869
v 0.02111748 0.02438045 -0.05503030
v 0.01991072 0.02537712 -0.05501192
v 0.02220859 0.02333438 -0.05503765
v 0.01375121 0.02804707 -0.05518839
v 0.02294271 0.02291767 -0.05496045
v 0.02361145 0.02361362 -0.05425086
v 0.02430534 0.02322483 -0.05401924
v 0.02256559 0.02368020 -0.05482074
v 0.03080174 0.01981167 -0.05059999
v 0.03221466 0.01903624 -0.04983526
v 0.03312978 0.01885367 -0.04867712
v 0.02972571 0.02093722 -0.05062205
v 0.03053022 0.02061717 -0.05004482
v 0.03186268 0.01976871 -0.04943818
v 0.03250629 0.01931334 -0.04905949
v 0.03383373 0.01840688 -0.04784253
v 0.03444716 0.01804172 -0.04674323
v 0.03399966 0.01858946 -0.04674323
v 0.03408011 0.01868183 -0.04607408
v 0.03425609 0.01891166 -0.04344164
v 0.03413039 0.01874412 -0.04534244
v 0.03387898 0.01955391 -0.04234601
v 0.03300408 0.02091144 -0.03966208
v 0.03310464 0.02102958 -0.03794878
v 0.03192302 0.02313032 -0.03211033
v 0.03144032 0.02373820 -0.03135662
v 0.02980113 0.02541148 -0.03135662
v 0.02863963 0.02644037 -0.03245593
v 0.02817201 0.02706759 -0.03135662
v 0.02786026 0.02676472 -0.03575385
v 0.02660825 0.02770554 -0.03794878
v 0.02438077 0.02987286 -0.03794878
v 0.02230916 0.03220129 -0.03575385
v 0.02640209 0.02750363 -0.04074300
v 0.02094652 0.03304330 -0.03881646
v 0.02109234 0.03317218 -0.03684580
v 0.02117782 0.03323877 -0.03575385
v 0.02045879 0.03372636 -0.03684580
v 0.01990569 0.03417744 -0.03684580
v 0.02215831 0.03312063 -0.02805503
v 0.01996100 0.03421396 -0.03575385
v 0.02007665 0.03425047 -0.03245593
v 0.02004145 0.03424403 -0.03355524
v 0.01834193 0.03505812 -0.03684580
v 0.02009173 0.03423329 -0.03135662
v 0.01775364 0.03529010 -0.04124670
v 0.01779386 0.03530728 -0.04014739
v 0.01924700 0.03462637 -0.03575385
v 0.02008168 0.03421181 -0.03025732
v 0.01778883 0.03526862 -0.03684580
v 0.01771844 0.03523210 -0.03575385
v 0.01764302 0.03520848 -0.03505897
v 0.01985541 0.03411730 -0.02727559
v 0.02144431 0.03330535 -0.02145552
v 0.02034314 0.03372636 -0.02365413
v 0.01960400 0.03406145 -0.02585274
v 0.01905090 0.03416670 -0.02585274
v 0.01814583 0.03461778 -0.02915434
v 0.01814583 0.03452112 -0.02805503
v 0.01814583 0.03441801 -0.02695572
v 0.01815589 0.03429988 -0.02571303
v 0.01704969 0.03468222 -0.02805503
v 0.01503842 0.03437291 -0.02273866
v 0.01650665 0.03519774 -0.03298904
v 0.01594852 0.03559511 -0.03684580
v 0.01485238 0.03593020 -0.04014739
v 0.00275460 0.03602686 -0.03465454
v 0.00165343 0.03597960 -0.03355524
v 0.00165343 0.03588295 -0.03245593
v 0.00554021 0.03629966 -0.03956649
v 0.00056232 0.03591087 -0.03245593
v 0.00056232 0.03610419 -0.03465454
v -0.00054388 0.03592161 -0.03245593
v -0.00164505 0.03589154 -0.03245593
v -0.01484903 0.03492065 -0.02915434
v -0.01374786 0.03469081 -0.02585642
v -0.01536190 0.03498508 -0.03025364
v -0.01536190 0.03431491 -0.05074705
v -0.01348639 0.03093397 -0.05408541
v -0.01044435 0.03206167 -0.05411483
v -0.00934821 0.03222921 -0.05428763
v -0.01044435 0.03134853 -0.05463323
v -0.01408977 0.03511826 -0.05053013
v -0.00945380 0.03130558 -0.05487221
v -0.00824704 0.03237098 -0.05437587
v -0.00604470 0.03235165 -0.05473617
v -0.00494856 0.03251060 -0.05477294
v -0.00384739 0.03256859 -0.05484647
v -0.00274622 0.03260940 -0.05488691
v -0.00179589 0.03263303 -0.05489794
v -0.00054388 0.03266310 -0.05490898
v 0.00056232 0.03269533 -0.05491265
v 0.00165343 0.03266740 -0.05490162
v 0.00453960 0.03191346 -0.05499721
v 0.00275460 0.03202945 -0.05502663
v 0.00527874 0.03185546 -0.05498619
v 0.00605308 0.03123899 -0.05507810
v 0.00935156 0.03024661 -0.05513325
v 0.00825542 0.03024661 -0.05516634
v 0.01154887 0.02914469 -0.05518472
v 0.01702455 0.02696663 -0.05506339
v 0.01867379 0.02638238 -0.05498986
v 0.02063980 0.02511291 -0.05494207
v 0.02185160 0.02406899 -0.05496780
v 0.01268524 0.02921773 -0.05509649
v 0.01375121 0.02890412 -0.05505604
v 0.01489261 0.02811795 -0.05508177
v 0.02249017 0.02471554 -0.05423983
v 0.02321926 0.02432245 -0.05403027
v 0.02646243 0.02427090 -0.05064779
v 0.02755354 0.02316254 -0.05064043
v 0.02864466 0.02204988 -0.05063308
v 0.02146945 0.02474990 -0.05479132
v 0.03205375 0.01996632 -0.04870286
v 0.03277781 0.01956895 -0.04784253
v 0.03328566 0.01902121 -0.04784253
v 0.02944413 0.02174271 -0.05004482
v 0.03077660 0.02088137 -0.04945289
v 0.03096767 0.02107469 -0.04871757
v 0.03345158 0.01918016 -0.04674323
v 0.03299402 0.01979878 -0.04618438
v 0.03315492 0.01997062 -0.04454462
v 0.03325046 0.02007587 -0.04344164
v 0.03380356 0.01946155 -0.04344164
v 0.03332588 0.02016394 -0.04234601
v 0.03281301 0.02071383 -0.04234601
v 0.03234539 0.02136037 -0.04124670
v 0.03204370 0.02215513 -0.03794878
v 0.02894131 0.02566065 -0.03575385
v 0.02902177 0.02573798 -0.03465454
v 0.03103806 0.02334941 -0.03684580
v 0.02859437 0.02529979 -0.04067683
v 0.02770439 0.02660792 -0.03794878
v 0.02754851 0.02644897 -0.04014739
v 0.02700044 0.02699670 -0.04014739
v 0.02524561 0.02854970 -0.04124670
v 0.02106720 0.03206811 -0.04454462
v 0.02075545 0.03286287 -0.04124670
v 0.02236447 0.03115522 -0.04234601
v 0.02692502 0.02692367 -0.04111066
v 0.02634175 0.02744134 -0.04147465
v 0.01994592 0.03313996 -0.04454462
v 0.01879447 0.03418603 -0.04454462
v 0.01887995 0.03426336 -0.04344164
v 0.01959897 0.03391753 -0.04124670
v 0.01967440 0.03399486 -0.04014739
v 0.01975987 0.03406145 -0.03904809
v 0.01979507 0.03409582 -0.03849292
v 0.01758268 0.03519129 -0.04500052
v 0.01765307 0.03524070 -0.04344164
v 0.01770838 0.03526862 -0.04234601
v 0.01781397 0.03530299 -0.03904809
v 0.01780895 0.03528795 -0.03794878
v 0.01826651 0.03505812 -0.03575385
v 0.01704969 0.03556719 -0.04344164
v 0.01704969 0.03558652 -0.04234601
v 0.01704969 0.03559082 -0.04124670
v 0.01704969 0.03558652 -0.04014739
v 0.01704969 0.03555645 -0.03904809
v 0.01704969 0.03550919 -0.03794878
v 0.01704969 0.03544261 -0.03684580
v 0.01704969 0.03536313 -0.03575385
v 0.01747206 0.03518055 -0.03432365
v 0.02034314 0.03381228 -0.02475344
v 0.01704969 0.03478103 -0.02915434
v 0.01669269 0.03522566 -0.03355524
v 0.01594852 0.03456623 -0.02570935
v 0.01594852 0.03568318 -0.03794878
v 0.01485238 0.03600753 -0.04124670
v 0.01432945 0.03629966 -0.04504464
v 0.00715425 0.03652519 -0.04344164
v 0.00605308 0.03649298 -0.04234601
v 0.00605308 0.03640920 -0.04124670
v 0.01594852 0.03576910 -0.03904809
v 0.00275460 0.03631469 -0.03830541
v 0.00165343 0.03615574 -0.03575385
v 0.00496197 0.03637054 -0.04014739
v 0.00118581 0.03629966 -0.03736052
v 0.00056232 0.03626744 -0.03672080
v -0.00054388 0.03619011 -0.03575385
v -0.00164505 0.03597960 -0.03355524
v -0.00384739 0.03613211 -0.03684580
v -0.01536190 0.03585717 -0.04073197
v -0.01536190 0.03571970 -0.03904441
v -0.01536190 0.03553927 -0.03684580
v -0.01536190 0.03521062 -0.03286403
v -0.01484903 0.03501516 -0.03025364
v -0.01536190 0.03508174 -0.03135295
v -0.01536190 0.03484332 -0.05025807
v -0.01484903 0.03497649 -0.05038675
v -0.01335566 0.03524499 -0.05064043
v -0.00694977 0.03308411 -0.05401924
v -0.00604973 0.03316788 -0.05412953
v -0.01484903 0.03546409 -0.04983893
v -0.00494856 0.03324736 -0.05422513
v -0.00384739 0.03332039 -0.05429866
v -0.00274622 0.03336550 -0.05433543
v -0.00179589 0.03338698 -0.05434645
v -0.00054388 0.03340846 -0.05435748
v 0.00056232 0.03340846 -0.05436484
v 0.00165343 0.03338268 -0.05435013
v 0.00275460 0.03335906 -0.05431704
v 0.00385577 0.03330321 -0.05426557
v 0.00275460 0.03258363 -0.05486853
v 0.00715425 0.03168362 -0.05494942
v 0.00605308 0.03178887 -0.05497148
v 0.00935156 0.03090605 -0.05501928
v 0.01007059 0.03083302 -0.05500456
v 0.01043765 0.03031320 -0.05507442
v 0.01154887 0.02998671 -0.05505236
v 0.01736144 0.02735112 -0.05496780
v 0.01529486 0.02853037 -0.05498251
v 0.01824640 0.02696663 -0.05489059
v 0.02030292 0.02577879 -0.05471044
v 0.01234332 0.02978694 -0.05501928
v 0.01307744 0.02963229 -0.05498251
v 0.01455572 0.02870221 -0.05501928
v 0.02136386 0.02578738 -0.05417365
v 0.02208792 0.02538786 -0.05399718
v 0.01982524 0.03082228 -0.05061470
v 0.02093647 0.02973969 -0.05062940
v 0.02204769 0.02864636 -0.05063676
v 0.02426512 0.02645970 -0.05065146
v 0.02536629 0.02537282 -0.05065146
v 0.02610040 0.02500337 -0.05023233
v 0.02727196 0.02397233 -0.05004482
v 0.02780998 0.02342244 -0.05004482
v 0.03113863 0.02125512 -0.04784253
v 0.03292866 0.01973005 -0.04674323
v 0.03181743 0.02082337 -0.04698588
v 0.02858934 0.02309595 -0.04947862
v 0.03004751 0.02236348 -0.04784253
v 0.02767925 0.02438904 -0.04875801
v 0.03082688 0.02203269 -0.04630571
v 0.03196828 0.02098232 -0.04564392
v 0.03089225 0.02210358 -0.04564392
v 0.03262697 0.02051836 -0.04454462
v 0.03272250 0.02062361 -0.04344164
v 0.03217443 0.02118853 -0.04344164
v 0.02964023 0.02414202 -0.04124670
v 0.02854912 0.02525683 -0.04124670
v 0.02162030 0.03153111 -0.04454462
v 0.01987049 0.03306478 -0.04543068
v 0.02743789 0.02634371 -0.04147465
v 0.02736750 0.02626639 -0.04234601
v 0.02626130 0.02736401 -0.04234601
v 0.01873413 0.03412804 -0.04525788
v 0.01749720 0.03512470 -0.04564392
v 0.01679828 0.03540394 -0.04674323
v 0.01695416 0.03546838 -0.04564392
v 0.01714523 0.03546194 -0.04459977
v 0.01864865 0.03405286 -0.04598952
v 0.01594852 0.03596027 -0.04564392
v 0.01594852 0.03599894 -0.04454462
v 0.01594852 0.03598390 -0.04344164
v 0.01594852 0.03594094 -0.04234601
v 0.01594852 0.03589368 -0.04124670
v 0.01594852 0.03583569 -0.04014739
v 0.01708489 0.03526862 -0.03467660
v 0.01485238 0.03616004 -0.04344164
v 0.01265004 0.03645861 -0.04674323
v 0.01154887 0.03651660 -0.04674323
v 0.01045273 0.03657030 -0.04674323
v 0.00935156 0.03656386 -0.04564392
v 0.01475684 0.03623736 -0.04462550
v 0.01440487 0.03631040 -0.04564392
v 0.00825542 0.03660252 -0.04564392
v 0.00715425 0.03658319 -0.04454462
v 0.00605308 0.03655527 -0.04344164
v 0.00496197 0.03658104 -0.04344164
v 0.00496197 0.03651660 -0.04234601
v 0.00275460 0.03649727 -0.04124670
v 0.00056232 0.03634476 -0.03794878
v 0.00056232 0.03630395 -0.03726493
v -0.00029750 0.03630395 -0.03726126
v -0.00061930 0.03626744 -0.03687154
v -0.00103161 0.03629536 -0.03742671
v -0.00179589 0.03628247 -0.03763627
v -0.00179589 0.03614070 -0.03575385
v -0.00274622 0.03618366 -0.03684580
v -0.00384739 0.03628032 -0.03873925
v -0.00455636 0.03630610 -0.03949663
v -0.00528545 0.03628891 -0.03973194
v -0.00824704 0.03651875 -0.04454462
v -0.01484903 0.03609560 -0.04344531
v -0.01536190 0.03594309 -0.04183496
v -0.01536190 0.03520418 -0.04989776
v -0.01373277 0.03555001 -0.05011836
v -0.01264669 0.03578629 -0.05004850
v -0.01264669 0.03530943 -0.05070293
v -0.01536190 0.03536528 -0.04971393
v -0.01484903 0.03591516 -0.04894552
v -0.01375288 0.03617507 -0.04887934
v -0.01154552 0.03537602 -0.05076544
v -0.01044435 0.03542757 -0.05081691
v -0.00934821 0.03600753 -0.05007423
v -0.00824704 0.03602257 -0.05010733
v -0.00715090 0.03603975 -0.05012571
v -0.00604973 0.03605693 -0.05014409
v -0.00494856 0.03607412 -0.05015880
v -0.00274622 0.03610419 -0.05019189
v -0.00164505 0.03611278 -0.05020292
v -0.00054388 0.03611278 -0.05021027
v -0.00179589 0.03611063 -0.05020292
v 0.00165343 0.03610419 -0.05021027
v 0.00385577 0.03608915 -0.05018821
v 0.00605308 0.03607197 -0.05016248
v 0.00825542 0.03604619 -0.05013674
v 0.00935156 0.03602686 -0.05011468
v 0.01045273 0.03544261 -0.05082426
v 0.01154887 0.03539320 -0.05076912
v 0.00496197 0.03322803 -0.05419571
v 0.00605308 0.03244616 -0.05463323
v 0.00385577 0.03249986 -0.05481338
v 0.00825542 0.03156118 -0.05490898
v 0.01079465 0.03071917 -0.05497883
v 0.01594852 0.02831987 -0.05492368
v 0.01702455 0.02797619 -0.05477294
v 0.01375121 0.02944971 -0.05492736
v 0.01489261 0.02909744 -0.05482074
v 0.01811064 0.02806211 -0.05429498
v 0.01930734 0.02700959 -0.05440160
v 0.01898051 0.02770769 -0.05411483
v 0.01154887 0.03053445 -0.05491265
v 0.02034817 0.02664014 -0.05412586
v 0.02093647 0.02643393 -0.05393835
v 0.01753240 0.03294879 -0.05055219
v 0.01868385 0.03188768 -0.05058528
v 0.01829165 0.03257504 -0.05020292
v 0.01789945 0.03326454 -0.04981687
v 0.01901571 0.03220773 -0.04985364
v 0.02005654 0.03105641 -0.05004482
v 0.02117782 0.02997812 -0.05004482
v 0.02173595 0.02943467 -0.05004482
v 0.02452155 0.02670887 -0.05004482
v 0.02639706 0.02530623 -0.04949701
v 0.02853906 0.02414202 -0.04707780
v 0.03072129 0.02193174 -0.04704103
v 0.02731722 0.02512795 -0.04784253
v 0.02653785 0.02544370 -0.04894552
v 0.02548194 0.02657784 -0.04875066
v 0.02511990 0.02732105 -0.04784253
v 0.02622107 0.02622343 -0.04784253
v 0.02973074 0.02314321 -0.04633512
v 0.03035423 0.02265346 -0.04564392
v 0.03099281 0.02220024 -0.04454462
v 0.03045480 0.02275012 -0.04454462
v 0.03055033 0.02284678 -0.04344164
v 0.02900165 0.02461458 -0.04234601
v 0.02207786 0.03087812 -0.04564392
v 0.02151471 0.03142586 -0.04564392
v 0.02273153 0.03043779 -0.04454462
v 0.02484838 0.02815232 -0.04564392
v 0.01978502 0.03298960 -0.04616600
v 0.02201250 0.03081368 -0.04626527
v 0.02790551 0.02572294 -0.04234601
v 0.02935865 0.02386278 -0.04454462
v 0.02925809 0.02376183 -0.04564392
v 0.02815692 0.02486375 -0.04564392
v 0.02650768 0.02650696 -0.04564392
v 0.02595458 0.02705685 -0.04564392
v 0.01734133 0.03499797 -0.04674323
v 0.01663235 0.03529654 -0.04784253
v 0.01800002 0.03444379 -0.04674323
v 0.01594852 0.03568103 -0.04784253
v 0.01594852 0.03586576 -0.04674323
v 0.01855311 0.03396479 -0.04674323
v 0.01495294 0.03620944 -0.04674323
v 0.01495294 0.03624381 -0.04564392
v 0.01265004 0.03646720 -0.04784253
v 0.01375121 0.03638128 -0.04674323
v 0.01154887 0.03652090 -0.04784253
v 0.01045273 0.03657030 -0.04784253
v 0.00935156 0.03661326 -0.04674323
v 0.01440487 0.03631469 -0.04674323
v 0.00825542 0.03664978 -0.04674323
v 0.00605308 0.03661111 -0.04454462
v 0.00275460 0.03667556 -0.04454462
v 0.00275460 0.03662185 -0.04344164
v 0.00165343 0.03664119 -0.04344164
v 0.00056232 0.03653379 -0.04124670
v -0.00054388 0.03640491 -0.03904809
v -0.00179589 0.03644787 -0.04014739
v -0.00274622 0.03642639 -0.04014739
v -0.00494856 0.03650372 -0.04234601
v -0.00384739 0.03638772 -0.04014739
v -0.00604973 0.03645646 -0.04234601
v -0.00934821 0.03653593 -0.04564760
v -0.01044435 0.03648009 -0.04564760
v -0.00604973 0.03654023 -0.04344531
v -0.00715090 0.03656815 -0.04454462
v -0.01484903 0.03616648 -0.04454462
v -0.01536190 0.03602042 -0.04293426
v -0.01264669 0.03622662 -0.04915508
v -0.01154552 0.03626314 -0.04932421
v -0.01154552 0.03589154 -0.05004850
v -0.01536190 0.03570896 -0.04894184
v -0.01536190 0.03586147 -0.04843447
v -0.01484903 0.03615789 -0.04784621
v -0.01416017 0.03628891 -0.04784621
v -0.01339086 0.03631254 -0.04846756
v -0.01034881 0.03603115 -0.04993820
v -0.00991136 0.03629966 -0.04949701
v -0.00934821 0.03631040 -0.04952274
v -0.00824704 0.03632543 -0.04955583
v -0.00715090 0.03633402 -0.04957422
v -0.00604973 0.03634047 -0.04959260
v -0.00179589 0.03614500 -0.05012938
v 0.00056232 0.03637269 -0.04966246
v -0.00179589 0.03636195 -0.04965142
v 0.00165343 0.03637269 -0.04966246
v 0.00605308 0.03634906 -0.04961466
v 0.00715425 0.03634262 -0.04960363
v 0.00825542 0.03633402 -0.04958892
v 0.00935156 0.03632543 -0.04956319
v 0.01016110 0.03631469 -0.04953010
v 0.01049296 0.03605478 -0.04995291
v 0.01154887 0.03591087 -0.05004482
v 0.01265004 0.03579488 -0.05004482
v 0.01265004 0.03530728 -0.05069558
v 0.00605308 0.03313996 -0.05410380
v 0.00825542 0.03233661 -0.05435748
v 0.00935156 0.03145379 -0.05482441
v 0.01043765 0.03126261 -0.05469573
v 0.01598372 0.02920054 -0.05437954
v 0.01268524 0.03018862 -0.05479868
v 0.01485238 0.03002537 -0.05423615
v 0.01704969 0.02885686 -0.05418468
v 0.01555130 0.03419462 -0.05065882
v 0.01628541 0.03395620 -0.05045293
v 0.01265004 0.03108004 -0.05421042
v 0.01674297 0.03429128 -0.04972128
v 0.01863356 0.03294020 -0.04939039
v 0.01746200 0.03399486 -0.04931686
v 0.01974982 0.03184902 -0.04941612
v 0.02418467 0.02748430 -0.04947127
v 0.02106720 0.03096404 -0.04869551
v 0.02634678 0.02634801 -0.04709251
v 0.02524561 0.02744563 -0.04708148
v 0.02400868 0.02841223 -0.04784253
v 0.02753846 0.02534275 -0.04635351
v 0.02422992 0.02862488 -0.04632042
v 0.02533109 0.02753155 -0.04634983
v 0.01953864 0.03275762 -0.04784253
v 0.01899057 0.03327528 -0.04784253
v 0.01839221 0.03382302 -0.04784253
v 0.02140409 0.03130987 -0.04660719
v 0.02011688 0.03220773 -0.04784253
v 0.02413439 0.02853896 -0.04705206
v 0.01718042 0.03486694 -0.04784253
v 0.01784917 0.03431276 -0.04784253
v 0.01652173 0.03521277 -0.04843447
v 0.01591835 0.03538461 -0.04886096
v 0.01485238 0.03585073 -0.04894552
v 0.01475684 0.03615144 -0.04778371
v 0.01416855 0.03627603 -0.04811460
v 0.01433448 0.03630395 -0.04738296
v 0.01265004 0.03637054 -0.04868816
v 0.01378138 0.03635980 -0.04778371
v 0.01343444 0.03633402 -0.04854477
v 0.01154887 0.03639846 -0.04883154
v 0.00935156 0.03646720 -0.04894552
v 0.00935156 0.03661111 -0.04784253
v 0.00825542 0.03663045 -0.04784253
v 0.00715425 0.03666911 -0.04674323
v 0.00496197 0.03667556 -0.04564392
v 0.00165343 0.03669274 -0.04454462
v 0.00056232 0.03665408 -0.04344164
v -0.00054388 0.03664978 -0.04344164
v -0.00054388 0.03646720 -0.04014739
v -0.00179589 0.03662400 -0.04329825
v -0.00384739 0.03660037 -0.04344531
v -0.00494856 0.03657675 -0.04344531
v -0.00824704 0.03657889 -0.04564760
v -0.01044435 0.03653593 -0.04674691
v -0.01154552 0.03648009 -0.04674691
v -0.00604973 0.03660467 -0.04454462
v -0.01484903 0.03620729 -0.04564760
v -0.01536190 0.03608486 -0.04403724
v -0.01264669 0.03641565 -0.04674691
v -0.01370260 0.03634047 -0.04674691
v -0.01264669 0.03633832 -0.04860727
v -0.01154552 0.03637483 -0.04877272
v -0.01034881 0.03638772 -0.04901537
v -0.01064548 0.03628247 -0.04942715
v -0.01536190 0.03599034 -0.04784621
v -0.01536190 0.03606123 -0.04733516
v -0.01484903 0.03621803 -0.04674691
v -0.01425570 0.03629536 -0.04674691
v -0.01361210 0.03633832 -0.04784621
v -0.01264669 0.03640920 -0.04784621
v -0.01154552 0.03647579 -0.04784621
v -0.00934821 0.03644142 -0.04894552
v -0.00824704 0.03646505 -0.04894552
v -0.00715090 0.03647794 -0.04894552
v -0.00604973 0.03648868 -0.04894552
v -0.00274622 0.03651875 -0.04894552
v -0.00179589 0.03652734 -0.04894552
v -0.00494856 0.03634691 -0.04960731
v -0.00274622 0.03635765 -0.04964040
v 0.00056232 0.03654453 -0.04894552
v 0.00165343 0.03654453 -0.04894552
v 0.00825542 0.03648653 -0.04894552
v 0.01089018 0.03629321 -0.04946760
v 0.01265004 0.03622877 -0.04923597
v 0.01372607 0.03554786 -0.05010733
v 0.01333890 0.03524070 -0.05063676
v 0.00935156 0.03219699 -0.05427292
v 0.01563678 0.02982775 -0.05405600
v 0.01407301 0.03510752 -0.05051175
v 0.01485238 0.03492494 -0.05033528
v 0.01553118 0.03527936 -0.04960363
v 0.01626530 0.03502160 -0.04916611
v 0.01883469 0.03313137 -0.04865874
v 0.01995597 0.03205308 -0.04868448
v 0.01770335 0.03419462 -0.04858521
v 0.01699438 0.03460919 -0.04887198
v 0.02234938 0.03003826 -0.04784253
v 0.02190690 0.03071488 -0.04699691
v 0.02066997 0.03167503 -0.04784253
v 0.01485238 0.03542972 -0.04978746
v 0.01378138 0.03616218 -0.04892346
v 0.00496197 0.03669703 -0.04674323
v 0.00605308 0.03668629 -0.04674323
v 0.00165343 0.03668844 -0.04784253
v 0.00385577 0.03670777 -0.04674323
v 0.00275460 0.03670777 -0.04564392
v 0.00165343 0.03671637 -0.04564392
v 0.00056232 0.03669918 -0.04454462
v -0.00054388 0.03669703 -0.04454462
v -0.00494856 0.03663045 -0.04454462
v -0.00934821 0.03657460 -0.04674691
v -0.00715090 0.03661111 -0.04564760
v -0.01044435 0.03653379 -0.04784621
v -0.01536190 0.03611493 -0.04513287
v -0.01536190 0.03609130 -0.04674691
v -0.01536190 0.03611493 -0.04623218
v -0.00934821 0.03657245 -0.04784621
v -0.00824704 0.03658964 -0.04784621
v -0.00054388 0.03667770 -0.04784253
v 0.00056232 0.03668844 -0.04784253
v 0.00165343 0.03672711 -0.04674323
v 0.00056232 0.03671637 -0.04564392
v -0.00054388 0.03670777 -0.04564392
v -0.00179589 0.03669274 -0.04564760
v -0.00604973 0.03663259 -0.04564760
v -0.00824704 0.03660037 -0.04674691
v -0.00715090 0.03661971 -0.04674691
v 0.00056232 0.03672496 -0.04674323
f 1 2 12
f 1 12 29
f 1 29 16
f 1 16 3
f 1 3 18
f 1 18 4
f 1 4 5
f 1 5 21
f 1 21 6
f 1 6 7
f 1 7 8
f 1 8 9
f 1 9 10
f 1 10 2
f 2 11 12
f 2 10 13
f 2 13 14
f 2 14 15
f 2 15 11
f 3 16 17
f 3 17 18
f 4 18 66
f 4 66 67
f 4 67 19
f 4 19 5
f 5 20 21
f 5 19 20
f 6 22 23
f 6 23 24
f 6 24 7
f 6 21 20
f 6 20 72
f 6 72 125
f 6 125 221
f 6 221 357
f 6 357 489
f 6 489 598
f 6 598 709
f 6 709 707
f 6 707 706
f 6 706 705
f 6 705 704
f 6 704 807
f 6 807 914
f 6 914 1000
f 6 1000 1056
f 6 1056 1058
f 6 1058 1057
f 6 1057 1008
f 6 1008 1007
f 6 1007 919
f 6 919 918
f 6 918 812
f 6 812 808
f 6 808 710
f 6 710 599
f 6 599 494
f 6 494 365
f 6 365 224
f 6 224 127
f 6 127 73
f 6 73 22
f 7 24 25
f 7 25 8
f 8 25 9
f 9 25 10
f 10 25 13
f 11 26 27
f 11 27 12
f 11 15 28
f 11 28 26
f 12 27 29
f 13 25 30
f 13 30 31
f 13 31 14
f 14 31 32
f 14 32 15
f 15 32 33
f 15 33 28
f 16 29 34
f 16 34 17
f 17 34 35
f 17 35 36
f 17 36 37
f 17 37 18
f 18 37 38
f 18 38 39
f 18 39 40
f 18 40 41
f 18 41 42
f 18 42 43
f 18 43 44
f 18 44 45
f 18 45 46
f 18 46 47
f 18 47 48
f 18 48 49
f 18 49 50
f 18 50 51
f 18 51 52
f 18 52 53
f 18 53 54
f 18 54 55
f 18 55 56
f 18 56 57
f 18 57 58
f 18 58 59
f 18 59 60
f 18 60 61
f 18 61 62
f 18 62 63
f 18 63 64
f 18 64 65
f 18 65 66
f 19 67 68
f 19 68 69
f 19 69 70
f 19 70 71
f 19 71 20
f 20 71 70
f 20 70 69
f 20 69 68
f 20 68 124
f 20 124 220
f 20 220 355
f 20 355 223
f 20 223 126
f 20 126 72
f 22 73 74
f 22 74 23
f 23 74 75
f 23 75 76
f 23 76 77
f 23 77 24
f 24 77 78
f 24 78 25
f 25 78 30
f 26 79 27
f 26 28 80
f 26 80 79
f 27 81 29
f 27 79 81
f 28 33 82
f 28 82 80
f 29 81 83
f 29 83 34
f 30 78 84
f 30 84 31
f 31 84 85
f 31 85 33
f 31 33 32
f 33 85 82
f 34 83 35
f 35 83 86
f 35 86 36
f 36 87 37
f 36 86 87
f 37 87 88
f 37 88 89
f 37 89 38
f 38 89 39
f 39 89 90
f 39 90 91
f 39 91 40
f 40 91 92
f 40 92 93
f 40 93 41
f 41 93 42
f 42 93 92
f 42 92 94
f 42 94 95
f 42 95 96
f 42 96 43
f 43 97 44
f 43 96 97
f 44 97 98
f 44 98 45
f 45 98 46
f 46 98 99
f 46 99 100
f 46 100 47
f 47 100 48
f 48 100 49
f 49 100 101
f 49 101 102
f 49 102 50
f 50 102 51
f 51 103 52
f 51 102 103
f 52 103 104
f 52 104 105
f 52 105 53
f 53 105 106
f 53 106 54
f 54 106 107
f 54 107 55
f 55 107 56
f 56 108 109
f 56 109 110
f 56 110 111
f 56 111 57
f 56 107 108
f 57 111 58
f 58 112 59
f 58 111 113
f 58 113 114
f 58 114 112
f 59 112 60
f 60 112 115
f 60 115 61
f 61 116 62
f 61 115 117
f 61 117 118
f 61 118 119
f 61 119 116
f 62 116 63
f 63 116 120
f 63 120 64
f 64 120 121
f 64 121 65
f 65 121 122
f 65 122 66
f 66 122 123
f 66 123 67
f 67 123 124
f 67 124 68
f 72 126 222
f 72 222 125
f 73 127 128
f 73 128 74
f 74 128 75
f 75 129 130
f 75 130 131
f 75 131 76
f 75 128 129
f 76 131 132
f 76 132 78
f 76 78 77
f 78 132 133
f 78 133 136
f 78 136 84
f 79 80 82
f 79 82 134
f 79 134 81
f 81 135 86
f 81 86 83
f 81 134 135
f 82 85 134
f 84 136 85
f 85 136 137
f 85 137 138
f 85 138 139
f 85 139 134
f 86 135 87
f 87 140 141
f 87 141 88
f 87 135 142
f 87 142 143
f 87 143 144
f 87 144 140
f 88 141 90
f 88 90 89
f 90 141 91
f 91 141 145
f 91 145 94
f 91 94 146
f 91 146 92
f 92 146 94
f 94 145 147
f 94 147 95
f 95 148 149
f 95 149 150
f 95 150 96
f 95 147 151
f 95 151 148
f 96 150 97
f 97 150 152
f 97 152 153
f 97 153 98
f 98 153 99
f 99 153 154
f 99 154 155
f 99 155 156
f 99 156 100
f 100 156 157
f 100 157 158
f 100 158 159
f 100 159 160
f 100 160 161
f 100 161 101
f 101 162 102
f 101 161 163
f 101 163 162
f 102 162 103
f 103 164 165
f 103 165 104
f 103 162 166
f 103 166 163
f 103 163 167
f 103 167 164
f 104 165 105
f 105 165 106
f 106 165 168
f 106 168 169
f 106 169 107
f 107 169 170
f 107 170 108
f 108 170 109
f 109 170 171
f 109 171 172
f 109 172 173
f 109 173 174
f 109 174 110
f 110 174 175
f 110 175 176
f 110 176 113
f 110 113 111
f 112 114 118
f 112 118 115
f 113 176 177
f 113 177 114
f 114 177 178
f 114 178 118
f 115 118 117
f 116 179 120
f 116 119 179
f 118 180 179
f 118 179 119
f 118 178 180
f 120 179 181
f 120 181 182
f 120 182 121
f 121 182 122
f 122 183 123
f 122 182 183
f 123 183 184
f 123 184 185
f 123 185 124
f 124 185 186
f 124 186 187
f 124 187 188
f 124 188 189
f 124 189 190
f 124 190 191
f 124 191 192
f 124 192 193
f 124 193 194
f 124 194 195
f 124 195 196
f 124 196 197
f 124 197 198
f 124 198 199
f 124 199 200
f 124 200 201
f 124 201 202
f 124 202 203
f 124 203 204
f 124 204 205
f 124 205 206
f 124 206 207
f 124 207 208
f 124 208 209
f 124 209 210
f 124 210 211
f 124 211 212
f 124 212 213
f 124 213 214
f 124 214 215
f 124 215 216
f 124 216 217
f 124 217 218
f 124 218 219
f 124 219 220
f 125 222 221
f 126 223 222
f 127 224 225
f 127 225 226
f 127 226 128
f 128 226 227
f 128 227 228
f 128 228 129
f 129 228 229
f 129 229 230
f 129 230 130
f 130 230 231
f 130 231 131
f 131 231 133
f 131 133 132
f 133 231 234
f 133 234 136
f 134 139 232
f 134 232 233
f 134 233 135
f 135 233 142
f 136 234 235
f 136 235 236
f 136 236 137
f 137 236 237
f 137 237 238
f 137 238 239
f 137 239 240
f 137 240 138
f 138 240 241
f 138 241 232
f 138 232 139
f 140 242 147
f 140 147 145
f 140 145 141
f 140 144 243
f 140 243 242
f 142 244 144
f 142 144 143
f 142 233 245
f 142 245 246
f 142 246 244
f 144 244 243
f 147 242 247
f 147 247 248
f 147 248 151
f 148 249 250
f 148 250 149
f 148 151 251
f 148 251 249
f 149 250 150
f 150 250 152
f 151 248 252
f 151 252 253
f 151 253 251
f 152 250 254
f 152 254 153
f 153 254 154
f 154 254 255
f 154 255 155
f 155 255 256
f 155 256 157
f 155 157 156
f 157 256 257
f 157 257 258
f 157 258 158
f 158 258 159
f 159 258 160
f 160 259 260
f 160 260 163
f 160 163 261
f 160 261 161
f 160 258 262
f 160 262 259
f 161 261 163
f 162 163 166
f 163 260 167
f 164 263 264
f 164 264 265
f 164 265 165
f 164 167 266
f 164 266 263
f 165 267 168
f 165 265 268
f 165 268 267
f 167 260 269
f 167 269 266
f 168 267 169
f 169 267 270
f 169 270 271
f 169 271 170
f 170 271 171
f 171 271 272
f 171 272 273
f 171 273 274
f 171 274 172
f 172 274 173
f 173 274 275
f 173 275 276
f 173 276 174
f 174 277 176
f 174 176 175
f 174 276 278
f 174 278 279
f 174 279 280
f 174 280 281
f 174 281 277
f 176 277 177
f 177 277 281
f 177 281 282
f 177 282 283
f 177 283 178
f 178 283 284
f 178 284 285
f 178 285 180
f 179 285 286
f 179 286 181
f 179 180 285
f 181 286 423
f 181 423 287
f 181 287 288
f 181 288 182
f 182 288 289
f 182 289 290
f 182 290 183
f 183 290 184
f 184 290 185
f 185 290 291
f 185 291 186
f 186 291 292
f 186 292 187
f 187 292 293
f 187 293 188
f 188 293 294
f 188 294 295
f 188 295 189
f 189 295 296
f 189 296 297
f 189 297 298
f 189 298 190
f 190 298 299
f 190 299 300
f 190 300 191
f 191 301 192
f 191 300 302
f 191 302 303
f 191 303 301
f 192 301 193
f 193 304 194
f 193 301 304
f 194 304 305
f 194 305 306
f 194 306 307
f 194 307 308
f 194 308 195
f 195 309 196
f 195 308 310
f 195 310 311
f 195 311 309
f 196 309 312
f 196 312 313
f 196 313 197
f 197 313 314
f 197 314 315
f 197 315 316
f 197 316 198
f 198 316 199
f 199 316 200
f 200 316 317
f 200 317 318
f 200 318 319
f 200 319 320
f 200 320 321
f 200 321 322
f 200 322 201
f 201 322 321
f 201 321 323
f 201 323 202
f 202 323 321
f 202 321 324
f 202 324 325
f 202 325 203
f 203 325 326
f 203 326 327
f 203 327 328
f 203 328 204
f 204 328 205
f 205 328 329
f 205 329 330
f 205 330 206
f 206 330 331
f 206 331 332
f 206 332 333
f 206 333 207
f 207 333 334
f 207 334 335
f 207 335 208
f 208 335 336
f 208 336 337
f 208 337 209
f 209 337 210
f 210 338 339
f 210 339 211
f 210 337 338
f 211 339 212
f 212 340 341
f 212 341 213
f 212 339 340
f 213 342 214
f 213 341 342
f 214 342 343
f 214 343 344
f 214 344 215
f 215 344 345
f 215 345 216
f 216 345 346
f 216 346 217
f 217 346 347
f 217 347 218
f 218 347 219
f 219 347 348
f 219 348 349
f 219 349 350
f 219 350 351
f 219 351 352
f 219 352 353
f 219 353 354
f 219 354 220
f 220 354 353
f 220 353 356
f 220 356 355
f 221 222 358
f 221 358 359
f 221 359 360
f 221 360 361
f 221 361 357
f 222 223 362
f 222 362 358
f 223 363 362
f 223 355 364
f 223 364 363
f 224 365 366
f 224 366 367
f 224 367 225
f 225 367 368
f 225 368 226
f 226 368 369
f 226 369 370
f 226 370 227
f 227 370 228
f 228 370 229
f 229 371 372
f 229 372 230
f 229 370 371
f 230 372 373
f 230 373 231
f 231 373 375
f 231 375 234
f 232 241 374
f 232 374 246
f 232 246 245
f 232 245 233
f 234 375 235
f 235 375 237
f 235 237 236
f 237 376 238
f 237 375 377
f 237 377 376
f 238 376 378
f 238 378 239
f 239 378 379
f 239 379 515
f 239 515 380
f 239 380 240
f 240 381 241
f 240 380 382
f 240 382 383
f 240 383 381
f 241 381 374
f 242 243 384
f 242 384 247
f 243 244 384
f 244 246 384
f 246 374 384
f 247 383 248
f 247 384 374
f 247 374 381
f 247 381 385
f 247 385 383
f 248 383 252
f 249 251 386
f 249 386 387
f 249 387 388
f 249 388 389
f 249 389 250
f 250 389 390
f 250 390 254
f 251 253 391
f 251 391 392
f 251 392 393
f 251 393 386
f 252 383 394
f 252 394 253
f 253 394 391
f 254 390 255
f 255 390 257
f 255 257 256
f 257 390 395
f 257 395 396
f 257 396 258
f 258 396 262
f 259 262 269
f 259 269 260
f 262 397 269
f 262 396 398
f 262 398 397
f 263 399 264
f 263 266 400
f 263 400 401
f 263 401 402
f 263 402 399
f 264 399 265
f 265 399 403
f 265 403 404
f 265 404 268
f 266 269 400
f 267 405 406
f 267 406 407
f 267 407 408
f 267 408 270
f 267 268 404
f 267 404 405
f 269 397 400
f 270 408 271
f 271 408 272
f 272 408 409
f 272 409 410
f 272 410 273
f 273 410 411
f 273 411 412
f 273 412 274
f 274 412 275
f 275 413 414
f 275 414 415
f 275 415 416
f 275 416 417
f 275 417 418
f 275 418 419
f 275 419 276
f 275 412 411
f 275 411 410
f 275 410 413
f 276 419 278
f 278 419 420
f 278 420 421
f 278 421 279
f 279 421 280
f 280 421 281
f 281 421 303
f 281 303 302
f 281 302 300
f 281 300 282
f 282 300 299
f 282 299 283
f 283 299 297
f 283 297 296
f 283 296 422
f 283 422 423
f 283 423 284
f 284 423 286
f 284 286 285
f 287 423 422
f 287 422 288
f 288 422 424
f 288 424 289
f 289 424 290
f 290 424 425
f 290 425 292
f 290 292 291
f 292 425 293
f 293 425 294
f 294 426 295
f 294 425 424
f 294 424 426
f 295 426 296
f 296 426 424
f 296 424 422
f 297 299 427
f 297 427 298
f 298 427 299
f 301 305 304
f 301 303 420
f 301 420 305
f 303 421 420
f 305 420 419
f 305 419 306
f 306 419 307
f 307 310 308
f 307 419 418
f 307 418 310
f 309 311 312
f 310 418 417
f 310 417 428
f 310 428 311
f 311 428 429
f 311 429 430
f 311 430 312
f 312 430 313
f 313 430 315
f 313 315 314
f 315 430 431
f 315 431 432
f 315 432 433
f 315 433 434
f 315 434 435
f 315 435 316
f 316 436 437
f 316 437 438
f 316 438 439
f 316 439 317
f 316 435 434
f 316 434 436
f 317 439 318
f 318 439 438
f 318 438 440
f 318 440 441
f 318 441 319
f 319 441 320
f 320 441 442
f 320 442 443
f 320 443 444
f 320 444 445
f 320 445 321
f 321 445 324
f 324 445 446
f 324 446 325
f 325 446 447
f 325 447 448
f 325 448 449
f 325 449 326
f 326 449 327
f 327 450 328
f 327 449 450
f 328 450 329
f 329 450 451
f 329 451 330
f 330 452 453
f 330 453 331
f 330 451 454
f 330 454 452
f 331 453 455
f 331 455 332
f 332 455 453
f 332 453 333
f 333 453 456
f 333 456 457
f 333 457 334
f 334 457 456
f 334 456 458
f 334 458 459
f 334 459 460
f 334 460 335
f 335 460 461
f 335 461 336
f 336 461 462
f 336 462 463
f 336 463 337
f 337 463 338
f 338 463 464
f 338 464 465
f 338 465 466
f 338 466 467
f 338 467 468
f 338 468 339
f 339 468 340
f 340 468 341
f 341 468 342
f 342 469 343
f 342 468 466
f 342 466 469
f 343 470 344
f 343 469 466
f 343 466 471
f 343 471 472
f 343 472 470
f 344 473 474
f 344 474 345
f 344 470 473
f 345 474 475
f 345 475 346
f 346 475 347
f 347 475 474
f 347 474 476
f 347 476 477
f 347 477 478
f 347 478 479
f 347 479 480
f 347 480 481
f 347 481 482
f 347 482 348
f 348 482 483
f 348 483 349
f 349 356 351
f 349 351 350
f 349 483 482
f 349 482 484
f 349 484 485
f 349 485 486
f 349 486 487
f 349 487 355
f 349 355 356
f 351 356 352
f 352 356 353
f 355 488 364
f 355 487 486
f 355 486 488
f 357 361 489
f 358 362 490
f 358 490 359
f 359 490 360
f 360 490 491
f 360 491 361
f 361 492 489
f 361 491 492
f 362 363 493
f 362 493 490
f 363 364 488
f 363 488 493
f 365 494 495
f 365 495 366
f 366 495 496
f 366 496 497
f 366 497 367
f 367 497 498
f 367 498 499
f 367 499 368
f 368 499 369
f 369 499 500
f 369 500 501
f 369 501 502
f 369 502 370
f 370 502 372
f 370 372 371
f 372 501 503
f 372 503 504
f 372 504 373
f 372 502 501
f 373 504 505
f 373 505 506
f 373 506 507
f 373 507 375
f 375 507 508
f 375 508 377
f 376 509 378
f 376 377 508
f 376 508 509
f 378 509 510
f 378 510 511
f 378 511 620
f 378 620 512
f 378 512 513
f 378 513 379
f 379 513 514
f 379 514 515
f 380 515 382
f 381 383 385
f 382 515 514
f 382 514 516
f 382 516 517
f 382 517 394
f 382 394 383
f 386 518 387
f 386 393 518
f 387 518 519
f 387 519 520
f 387 520 521
f 387 521 388
f 388 522 389
f 388 521 523
f 388 523 522
f 389 524 390
f 389 522 524
f 390 524 395
f 391 394 392
f 392 394 393
f 393 394 517
f 393 517 525
f 393 525 518
f 395 524 396
f 396 524 526
f 396 526 398
f 397 398 527
f 397 527 528
f 397 528 400
f 398 526 529
f 398 529 527
f 399 402 530
f 399 530 531
f 399 531 403
f 400 528 530
f 400 530 401
f 401 530 402
f 403 532 405
f 403 405 404
f 403 531 533
f 403 533 534
f 403 534 535
f 403 535 536
f 403 536 532
f 405 532 537
f 405 537 406
f 406 538 407
f 406 537 539
f 406 539 538
f 407 538 408
f 408 538 540
f 408 540 409
f 409 541 410
f 409 540 542
f 409 542 541
f 410 541 543
f 410 543 413
f 413 543 544
f 413 544 545
f 413 545 414
f 414 416 415
f 414 545 431
f 414 431 429
f 414 429 416
f 416 429 428
f 416 428 417
f 429 431 430
f 431 546 547
f 431 547 432
f 431 545 544
f 431 544 546
f 432 547 433
f 433 547 548
f 433 548 434
f 434 548 549
f 434 549 550
f 434 550 437
f 434 437 436
f 437 550 440
f 437 440 438
f 440 550 549
f 440 549 551
f 440 551 552
f 440 552 441
f 441 552 442
f 442 553 554
f 442 554 443
f 442 552 555
f 442 555 553
f 443 554 556
f 443 556 444
f 444 556 557
f 444 557 558
f 444 558 446
f 444 446 445
f 446 558 559
f 446 559 448
f 446 448 447
f 448 559 560
f 448 560 449
f 449 561 450
f 449 560 562
f 449 562 561
f 450 561 451
f 451 561 562
f 451 562 454
f 452 563 453
f 452 454 564
f 452 564 563
f 453 563 565
f 453 565 566
f 453 566 456
f 454 562 567
f 454 567 568
f 454 568 569
f 454 569 564
f 456 566 565
f 456 565 570
f 456 570 458
f 458 570 571
f 458 571 572
f 458 572 459
f 459 572 573
f 459 573 574
f 459 574 575
f 459 575 460
f 460 575 461
f 461 575 462
f 462 575 576
f 462 576 464
f 462 464 463
f 464 576 577
f 464 577 578
f 464 578 465
f 465 578 579
f 465 579 580
f 465 580 581
f 465 581 582
f 465 582 466
f 466 468 467
f 466 582 472
f 466 472 471
f 470 472 476
f 470 476 474
f 470 474 473
f 472 582 583
f 472 583 584
f 472 584 476
f 476 584 477
f 477 584 585
f 477 585 478
f 478 585 586
f 478 586 480
f 478 480 479
f 480 586 587
f 480 587 481
f 481 588 697
f 481 697 589
f 481 589 590
f 481 590 482
f 481 587 591
f 481 591 588
f 482 590 592
f 482 592 484
f 484 592 485
f 485 592 593
f 485 593 594
f 485 594 595
f 485 595 486
f 486 595 708
f 486 708 596
f 486 596 597
f 486 597 491
f 486 491 490
f 486 490 488
f 488 490 493
f 489 492 598
f 491 597 492
f 492 596 709
f 492 709 598
f 492 597 596
f 494 599 495
f 495 599 600
f 495 600 496
f 496 601 602
f 496 602 603
f 496 603 497
f 496 600 599
f 496 599 604
f 496 604 601
f 497 603 605
f 497 605 498
f 498 605 500
f 498 500 499
f 500 606 607
f 500 607 501
f 500 605 603
f 500 603 602
f 500 602 606
f 501 607 608
f 501 608 609
f 501 609 503
f 503 609 505
f 503 505 504
f 505 609 610
f 505 610 506
f 506 610 507
f 507 610 611
f 507 611 508
f 508 611 612
f 508 612 509
f 509 612 613
f 509 613 510
f 510 613 614
f 510 614 615
f 510 615 616
f 510 616 511
f 511 616 615
f 511 615 617
f 511 617 618
f 511 618 619
f 511 619 620
f 512 620 516
f 512 516 513
f 513 516 514
f 516 621 517
f 516 620 619
f 516 619 621
f 517 621 525
f 518 525 519
f 519 622 520
f 519 525 622
f 520 622 521
f 521 622 623
f 521 623 523
f 522 523 624
f 522 624 625
f 522 625 524
f 523 623 624
f 524 625 526
f 525 621 626
f 525 626 627
f 525 627 628
f 525 628 622
f 526 625 529
f 527 529 629
f 527 629 630
f 527 630 528
f 528 630 631
f 528 631 632
f 528 632 633
f 528 633 533
f 528 533 530
f 529 625 634
f 529 634 629
f 530 533 531
f 532 536 635
f 532 635 636
f 532 636 637
f 532 637 537
f 533 633 534
f 534 633 638
f 534 638 639
f 534 639 535
f 535 639 536
f 536 639 640
f 536 640 635
f 537 637 539
f 538 539 540
f 539 637 636
f 539 636 641
f 539 641 540
f 540 641 642
f 540 642 643
f 540 643 644
f 540 644 645
f 540 645 542
f 541 542 645
f 541 645 543
f 543 645 644
f 543 644 646
f 543 646 544
f 544 646 647
f 544 647 648
f 544 648 649
f 544 649 546
f 546 649 547
f 547 650 651
f 547 651 548
f 547 649 652
f 547 652 653
f 547 653 650
f 548 651 549
f 549 651 551
f 551 654 552
f 551 651 654
f 552 654 655
f 552 655 656
f 552 656 555
f 553 657 554
f 553 555 657
f 554 658 659
f 554 659 556
f 554 657 660
f 554 660 658
f 555 656 655
f 555 655 661
f 555 661 662
f 555 662 657
f 556 659 663
f 556 663 664
f 556 664 665
f 556 665 666
f 556 666 667
f 556 667 557
f 557 667 558
f 558 667 668
f 558 668 559
f 559 668 669
f 559 669 560
f 560 669 670
f 560 670 562
f 562 670 671
f 562 671 672
f 562 672 567
f 563 564 569
f 563 569 568
f 563 568 673
f 563 673 565
f 565 673 674
f 565 674 571
f 565 571 675
f 565 675 570
f 567 672 676
f 567 676 568
f 568 676 677
f 568 677 678
f 568 678 673
f 570 675 571
f 571 674 679
f 571 679 680
f 571 680 681
f 571 681 572
f 572 681 573
f 573 681 682
f 573 682 683
f 573 683 684
f 573 684 577
f 573 577 574
f 574 577 576
f 574 576 685
f 574 685 575
f 575 685 576
f 577 684 579
f 577 579 578
f 579 684 580
f 580 684 686
f 580 686 583
f 580 583 581
f 581 583 582
f 583 686 687
f 583 687 585
f 583 585 688
f 583 688 584
f 584 688 585
f 585 687 586
f 586 689 587
f 586 687 683
f 586 683 689
f 587 690 691
f 587 691 692
f 587 692 693
f 587 693 694
f 587 694 591
f 587 689 695
f 587 695 690
f 588 696 697
f 588 591 698
f 588 698 696
f 589 697 593
f 589 593 592
f 589 592 590
f 591 694 698
f 593 697 699
f 593 699 700
f 593 700 701
f 593 701 594
f 594 701 595
f 595 701 702
f 595 702 703
f 595 703 704
f 595 704 705
f 595 705 706
f 595 706 707
f 595 707 708
f 596 708 709
f 599 710 711
f 599 711 604
f 601 604 712
f 601 712 602
f 602 712 713
f 602 713 714
f 602 714 606
f 604 711 715
f 604 715 712
f 606 714 607
f 607 714 608
f 608 714 716
f 608 716 717
f 608 717 609
f 609 717 610
f 610 717 718
f 610 718 611
f 611 718 719
f 611 719 612
f 612 719 613
f 613 720 721
f 613 721 614
f 613 719 720
f 614 721 722
f 614 722 723
f 614 723 724
f 614 724 725
f 614 725 726
f 614 726 727
f 614 727 617
f 614 617 615
f 617 727 618
f 618 727 728
f 618 728 619
f 619 728 729
f 619 729 730
f 619 730 621
f 621 730 731
f 621 731 626
f 622 732 623
f 622 628 733
f 622 733 732
f 623 734 624
f 623 732 734
f 624 735 634
f 624 634 625
f 624 734 735
f 626 736 737
f 626 737 738
f 626 738 627
f 626 731 736
f 627 738 628
f 628 738 733
f 629 634 739
f 629 739 740
f 629 740 630
f 630 740 741
f 630 741 742
f 630 742 743
f 630 743 744
f 630 744 745
f 630 745 631
f 631 746 747
f 631 747 632
f 631 745 746
f 632 747 748
f 632 748 633
f 633 748 638
f 634 735 739
f 635 640 749
f 635 749 636
f 636 750 641
f 636 749 751
f 636 751 750
f 638 748 639
f 639 748 752
f 639 752 640
f 640 753 749
f 640 752 754
f 640 754 753
f 641 750 642
f 642 750 755
f 642 755 756
f 642 756 643
f 643 756 757
f 643 757 758
f 643 758 759
f 643 759 644
f 644 759 647
f 644 647 646
f 647 759 760
f 647 760 761
f 647 761 648
f 648 761 649
f 649 761 653
f 649 653 652
f 650 653 655
f 650 655 651
f 651 655 654
f 653 762 655
f 653 761 762
f 655 762 661
f 657 763 658
f 657 658 660
f 657 662 763
f 658 763 764
f 658 764 663
f 658 663 659
f 661 762 765
f 661 765 766
f 661 766 662
f 662 766 767
f 662 767 763
f 663 764 768
f 663 768 664
f 664 768 670
f 664 670 665
f 665 670 668
f 665 668 667
f 665 667 666
f 668 670 669
f 670 769 770
f 670 770 771
f 670 771 772
f 670 772 671
f 670 768 773
f 670 773 769
f 671 772 672
f 672 772 676
f 673 678 679
f 673 679 674
f 676 772 774
f 676 774 775
f 676 775 677
f 677 775 678
f 678 775 679
f 679 775 776
f 679 776 680
f 680 776 777
f 680 777 778
f 680 778 681
f 681 778 779
f 681 779 682
f 682 779 695
f 682 695 683
f 683 780 684
f 683 695 689
f 683 687 780
f 684 780 686
f 686 780 687
f 690 781 691
f 690 695 781
f 691 782 783
f 691 783 784
f 691 784 785
f 691 785 692
f 691 781 786
f 691 786 787
f 691 787 782
f 692 785 788
f 692 788 789
f 692 789 790
f 692 790 693
f 693 790 791
f 693 791 792
f 693 792 699
f 693 699 696
f 693 696 698
f 693 698 694
f 695 779 781
f 696 699 697
f 699 793 794
f 699 794 795
f 699 795 700
f 699 792 793
f 700 795 796
f 700 796 701
f 701 796 797
f 701 797 798
f 701 798 799
f 701 799 800
f 701 800 702
f 702 800 801
f 702 801 802
f 702 802 803
f 702 803 703
f 703 803 804
f 703 804 704
f 704 804 805
f 704 805 806
f 704 806 807
f 707 709 708
f 710 808 711
f 711 808 715
f 712 715 809
f 712 809 810
f 712 810 811
f 712 811 714
f 712 714 713
f 714 811 716
f 715 808 812
f 715 812 813
f 715 813 814
f 715 814 809
f 716 811 717
f 717 811 815
f 717 815 816
f 717 816 718
f 718 816 817
f 718 817 818
f 718 818 719
f 719 818 819
f 719 819 820
f 719 820 821
f 719 821 822
f 719 822 720
f 720 823 824
f 720 824 721
f 720 822 825
f 720 825 823
f 721 826 827
f 721 827 828
f 721 828 829
f 721 829 830
f 721 830 722
f 721 824 826
f 722 830 723
f 723 830 831
f 723 831 832
f 723 832 724
f 724 832 833
f 724 833 834
f 724 834 725
f 725 834 835
f 725 835 726
f 726 835 834
f 726 834 836
f 726 836 729
f 726 729 728
f 726 728 727
f 729 837 730
f 729 836 837
f 730 837 731
f 731 837 736
f 732 733 838
f 732 838 839
f 732 839 734
f 733 738 737
f 733 737 840
f 733 840 841
f 733 841 838
f 734 839 842
f 734 842 735
f 735 842 843
f 735 843 844
f 735 844 739
f 736 837 737
f 737 837 845
f 737 845 840
f 739 844 846
f 739 846 847
f 739 847 740
f 740 847 848
f 740 848 849
f 740 849 741
f 741 849 850
f 741 850 851
f 741 851 852
f 741 852 853
f 741 853 854
f 741 854 742
f 742 854 855
f 742 855 743
f 743 855 856
f 743 856 744
f 744 856 746
f 744 746 745
f 746 857 747
f 746 856 857
f 747 857 752
f 747 752 748
f 749 753 858
f 749 858 859
f 749 859 751
f 750 751 755
f 751 859 755
f 752 857 754
f 753 754 860
f 753 860 858
f 754 857 861
f 754 861 862
f 754 862 863
f 754 863 864
f 754 864 860
f 755 859 865
f 755 865 866
f 755 866 757
f 755 757 756
f 757 866 868
f 757 868 867
f 757 867 760
f 757 760 759
f 757 759 758
f 760 867 868
f 760 868 869
f 760 869 870
f 760 870 761
f 761 870 762
f 762 870 765
f 763 871 872
f 763 872 764
f 763 767 873
f 763 873 874
f 763 874 871
f 764 875 768
f 764 872 876
f 764 876 875
f 765 870 877
f 765 877 766
f 766 877 878
f 766 878 879
f 766 879 880
f 766 880 881
f 766 881 882
f 766 882 767
f 767 882 874
f 767 874 873
f 768 875 773
f 769 883 884
f 769 884 770
f 769 773 885
f 769 885 883
f 770 884 886
f 770 886 887
f 770 887 771
f 771 887 774
f 771 774 772
f 773 888 885
f 773 875 888
f 774 887 889
f 774 889 775
f 775 889 890
f 775 890 776
f 776 890 777
f 777 890 786
f 777 786 778
f 778 786 779
f 779 786 781
f 782 891 783
f 782 787 892
f 782 892 891
f 783 891 784
f 784 893 894
f 784 894 895
f 784 895 785
f 784 891 893
f 785 895 788
f 786 890 787
f 787 890 896
f 787 896 892
f 788 895 897
f 788 897 898
f 788 898 789
f 789 898 790
f 790 898 791
f 791 898 899
f 791 899 900
f 791 900 793
f 791 793 792
f 793 900 901
f 793 901 902
f 793 902 794
f 794 902 796
f 794 796 795
f 796 798 797
f 796 902 903
f 796 903 904
f 796 904 905
f 796 905 798
f 798 905 906
f 798 906 907
f 798 907 799
f 799 907 800
f 800 907 801
f 801 907 802
f 802 907 908
f 802 908 803
f 803 908 804
f 804 908 805
f 805 909 910
f 805 910 806
f 805 908 911
f 805 911 912
f 805 912 909
f 806 913 914
f 806 914 807
f 806 910 913
f 809 814 810
f 810 915 916
f 810 916 917
f 810 917 815
f 810 815 811
f 810 814 915
f 812 918 813
f 813 918 919
f 813 919 920
f 813 920 814
f 814 920 921
f 814 921 922
f 814 922 915
f 815 917 816
f 816 917 817
f 817 917 923
f 817 923 924
f 817 924 925
f 817 925 926
f 817 926 818
f 818 926 819
f 819 926 820
f 820 926 821
f 821 926 822
f 822 926 927
f 822 927 928
f 822 928 929
f 822 929 823
f 822 823 825
f 823 930 824
f 823 929 931
f 823 931 930
f 824 930 932
f 824 932 826
f 826 932 933
f 826 933 934
f 826 934 827
f 827 934 828
f 828 934 935
f 828 935 829
f 829 935 936
f 829 936 830
f 830 936 937
f 830 937 938
f 830 938 939
f 830 939 831
f 831 939 832
f 832 939 940
f 832 940 941
f 832 941 833
f 833 941 942
f 833 942 834
f 834 942 943
f 834 943 944
f 834 944 836
f 836 944 837
f 837 944 945
f 837 945 845
f 838 841 839
f 839 841 946
f 839 946 842
f 840 845 841
f 841 845 947
f 841 947 948
f 841 948 946
f 842 844 843
f 842 946 949
f 842 949 950
f 842 950 844
f 844 950 951
f 844 951 848
f 844 848 847
f 844 847 846
f 845 945 952
f 845 952 947
f 848 951 953
f 848 953 851
f 848 851 850
f 848 850 849
f 851 954 852
f 851 953 955
f 851 955 954
f 852 956 853
f 852 954 956
f 853 956 854
f 854 956 855
f 855 956 957
f 855 957 857
f 855 857 856
f 857 957 958
f 857 958 861
f 858 860 959
f 858 959 865
f 858 865 859
f 860 864 959
f 861 958 862
f 862 958 863
f 863 960 959
f 863 959 864
f 863 958 961
f 863 961 960
f 865 879 866
f 865 959 962
f 865 962 879
f 866 879 878
f 866 878 868
f 868 878 870
f 868 870 869
f 870 878 877
f 871 876 872
f 871 874 963
f 871 963 876
f 874 964 963
f 874 882 964
f 875 965 966
f 875 966 967
f 875 967 888
f 875 876 968
f 875 968 969
f 875 969 965
f 876 963 960
f 876 960 970
f 876 970 968
f 879 962 880
f 880 962 881
f 881 962 882
f 882 962 964
f 883 971 884
f 883 885 972
f 883 972 971
f 884 973 886
f 884 971 973
f 885 888 972
f 886 973 974
f 886 974 975
f 886 975 976
f 886 976 887
f 887 976 889
f 888 967 972
f 889 976 977
f 889 977 978
f 889 978 896
f 889 896 890
f 891 979 893
f 891 892 980
f 891 980 981
f 891 981 979
f 892 896 980
f 893 979 894
f 894 979 982
f 894 982 983
f 894 983 984
f 894 984 895
f 895 984 897
f 896 978 980
f 897 985 986
f 897 986 987
f 897 987 898
f 897 984 985
f 898 987 899
f 899 988 901
f 899 901 900
f 899 987 988
f 901 988 989
f 901 989 902
f 902 989 990
f 902 990 991
f 902 991 903
f 903 991 904
f 904 992 993
f 904 993 994
f 904 994 905
f 904 991 992
f 905 994 906
f 906 994 911
f 906 911 907
f 907 911 908
f 909 912 995
f 909 995 996
f 909 996 997
f 909 997 910
f 910 997 913
f 911 994 998
f 911 998 912
f 912 998 995
f 913 999 1000
f 913 1000 914
f 913 997 1001
f 913 1001 1002
f 913 1002 999
f 915 1003 916
f 915 922 1003
f 916 1004 1005
f 916 1005 1006
f 916 1006 917
f 916 1003 1004
f 917 1006 924
f 917 924 923
f 919 1007 920
f 920 1007 1008
f 920 1008 1009
f 920 1009 921
f 921 1009 1010
f 921 1010 1011
f 921 1011 922
f 922 1011 1012
f 922 1012 1013
f 922 1013 1003
f 924 1006 1005
f 924 1005 1014
f 924 1014 925
f 925 1014 1015
f 925 1015 926
f 926 1015 1016
f 926 1016 927
f 927 1016 1017
f 927 1017 928
f 928 1017 1018
f 928 1018 1019
f 928 1019 1020
f 928 1020 929
f 929 1020 1021
f 929 1021 931
f 930 1022 1023
f 930 1023 932
f 930 931 1022
f 931 1021 1022
f 932 1023 933
f 933 1023 934
f 934 1023 1024
f 934 1024 935
f 935 1024 936
f 936 983 937
f 936 1024 983
f 937 983 982
f 937 982 1025
f 937 1025 938
f 938 1025 939
f 939 1025 940
f 940 1026 1027
f 940 1027 1028
f 940 1028 941
f 940 1025 1026
f 941 1028 942
f 942 1029 943
f 942 1028 1029
f 943 1029 944
f 944 1029 945
f 945 1029 952
f 946 948 1030
f 946 1030 949
f 947 952 948
f 948 950 1030
f 948 952 1031
f 948 1031 950
f 949 1030 950
f 950 1031 1032
f 950 1032 1033
f 950 1033 951
f 951 1033 953
f 952 1028 1031
f 952 1029 1028
f 953 1033 1034
f 953 1034 955
f 954 1035 1036
f 954 1036 956
f 954 955 1037
f 954 1037 1035
f 955 1034 1038
f 955 1038 1037
f 956 1036 958
f 956 958 957
f 958 1039 961
f 958 1036 1039
f 959 960 962
f 960 961 1039
f 960 1039 970
f 960 963 964
f 960 964 962
f 965 1035 966
f 965 969 1035
f 966 1035 1037
f 966 1037 967
f 967 1037 972
f 968 970 1040
f 968 1040 1041
f 968 1041 969
f 969 1041 1036
f 969 1036 1035
f 970 1039 1041
f 970 1041 1040
f 971 972 1037
f 971 1037 973
f 973 1034 1033
f 973 1033 974
f 973 1037 1038
f 973 1038 1034
f 974 1033 975
f 975 1033 1042
f 975 1042 1043
f 975 1043 977
f 975 977 976
f 977 1043 981
f 977 981 980
f 977 980 978
f 979 981 1026
f 979 1026 1025
f 979 1025 982
f 981 1043 1026
f 983 1024 985
f 983 985 984
f 985 1044 1045
f 985 1045 986
f 985 1024 1023
f 985 1023 1046
f 985 1046 1047
f 985 1047 1044
f 986 1045 987
f 987 1045 1048
f 987 1048 988
f 988 1049 1050
f 988 1050 989
f 988 1048 1049
f 989 1050 1051
f 989 1051 990
f 990 1051 993
f 990 993 992
f 990 992 991
f 993 1052 994
f 993 1051 1052
f 994 1052 998
f 995 1053 996
f 995 998 1054
f 995 1054 1053
f 996 1053 1059
f 996 1059 1055
f 996 1055 997
f 997 1013 1001
f 997 1055 1013
f 998 1052 1054
f 999 1002 1010
f 999 1010 1009
f 999 1009 1056
f 999 1056 1000
f 1001 1013 1012
f 1001 1012 1002
f 1002 1012 1011
f 1002 1011 1010
f 1003 1013 1055
f 1003 1055 1004
f 1004 1055 1014
f 1004 1014 1005
f 1008 1057 1009
f 1009 1057 1058
f 1009 1058 1056
f 1014 1059 1015
f 1014 1055 1059
f 1015 1059 1060
f 1015 1060 1016
f 1016 1060 1061
f 1016 1061 1017
f 1017 1061 1062
f 1017 1062 1018
f 1018 1062 1019
f 1019 1021 1020
f 1019 1062 1022
f 1019 1022 1021
f 1022 1062 1046
f 1022 1046 1023
f 1026 1043 1027
f 1027 1043 1042
f 1027 1042 1031
f 1027 1031 1028
f 1031 1042 1032
f 1032 1042 1033
f 1036 1041 1039
f 1044 1047 1048
f 1044 1048 1045
f 1046 1062 1063
f 1046 1063 1047
f 1047 1063 1048
f 1048 1063 1049
f 1049 1063 1064
f 1049 1064 1050
f 1050 1064 1051
f 1051 1064 1065
f 1051 1065 1066
f 1051 1066 1067
f 1051 1067 1052
f 1052 1067 1054
f 1053 1054 1068
f 1053 1068 1059
f 1054 1067 1068
f 1059 1068 1069
f 1059 1069 1060
f 1060 1069 1070
f 1060 1070 1061
f 1061 1070 1062
f 1062 1070 1063
f 1063 1070 1064
f 1064 1070 1065
f 1065 1070 1066
f 1066 1069 1067
f 1066 1070 1069
f 1067 1069 1068

