# https://github.com/mikedh/trimesh
v -0.02577166 0.03152823 0.01467636
v -0.01536378 0.03382528 -0.01803799
v -0.01536378 0.03383841 -0.01814882
v -0.01536378 0.03410749 -0.02078100
v -0.01536378 0.03456690 -0.02571290
v -0.01595138 0.03451440 -0.02571290
v -0.01705170 0.03438970 -0.02571290
v -0.01815201 0.03424532 -0.02571290
v -0.01889900 0.03413374 -0.02571290
v -0.02035265 0.03385809 -0.02571290
v -0.02048707 0.03382528 -0.02571290
v -0.02145296 0.03355620 -0.02571290
v -0.02585231 0.03150197 0.01467636
v -0.02534920 -0.02565537 0.01467636
v -0.01536378 0.02654033 -0.01803799
v -0.01536378 0.02516209 -0.02571290
v -0.02494018 -0.01542362 -0.02576039
v -0.02657817 -0.00000709 -0.02576039
v -0.03496977 -0.00000709 -0.02576039
v -0.02156434 0.03351682 -0.02571290
v -0.02742117 0.03075379 0.01044507
v -0.02684125 0.03102287 0.01264186
v -0.02680092 0.03102287 0.01374619
v -0.02676828 0.03101631 0.01467636
v -0.02235357 0.03318211 -0.02571290
v -0.02534920 -0.03175898 0.01467636
v -0.02272610 -0.03215932 -0.01217592
v -0.02272610 -0.03217245 -0.01225113
v -0.02272610 -0.03224464 -0.01281715
v -0.02272610 -0.03246122 -0.01488332
v -0.02272610 -0.03248091 -0.01508914
v -0.02167956 -0.02238698 -0.01803799
v -0.03434184 -0.01542362 -0.02576039
v -0.03495632 -0.00049931 -0.02576039
v -0.03324536 -0.01154488 0.01467636
v -0.03498129 0.00055077 -0.02571290
v -0.03461067 0.01374244 -0.02571290
v -0.03455115 0.01483846 -0.02571290
v -0.03453770 0.01502223 -0.02571290
v -0.03446281 0.01594761 -0.02571290
v -0.03435528 0.01705020 -0.02571290
v -0.03433800 0.01718803 -0.02571290
v -0.03419974 0.01828405 -0.02571290
v -0.03412100 0.01882222 -0.02571290
v -0.03404611 0.01923569 -0.02571290
v -0.03399235 0.01951790 -0.02571290
v -0.03382528 0.02034484 -0.02571290
v -0.03379072 0.02048266 -0.02571290
v -0.03351228 0.02144743 -0.02571290
v -0.03347195 0.02155243 -0.02571290
v -0.03315895 0.02228749 -0.02571290
v -0.03283634 0.02283879 -0.02571290
v -0.03275953 0.02294379 -0.02571290
v -0.03227754 0.02359353 -0.02571290
v -0.03183972 0.02413170 -0.02571290
v -0.03116571 0.02487988 -0.02571290
v -0.03079317 0.02529336 -0.02571290
v -0.02970822 0.02640251 -0.02571290
v -0.02908413 0.02703912 -0.02571290
v -0.02816624 0.02797107 -0.02571290
v -0.02752487 0.02862081 -0.02571290
v -0.02665306 0.02949369 -0.02571290
v -0.02532039 0.03081942 -0.02571290
v -0.02419511 0.03188919 -0.02571290
v -0.02373617 0.03225672 -0.02571290
v -0.02299302 0.03281458 -0.02571290
v -0.02290277 0.03287364 -0.02571290
v -0.02741925 0.03075379 0.00956240
v -0.02805102 0.03039938 0.00824036
v -0.02741733 0.03074066 0.01154544
v -0.02740389 0.03073410 0.01214313
v -0.02685469 0.03096380 0.01467636
v -0.02739237 0.03072097 0.01264186
v -0.02291429 0.03289989 -0.02474710
v -0.02291237 0.03290646 -0.02364673
v -0.02585039 -0.03151614 0.01467636
v -0.02534920 -0.03175898 0.01453387
v -0.02365552 -0.03227089 -0.01508914
v -0.03251374 -0.02238698 -0.01803799
v -0.03166497 -0.02472998 0.01467636
v -0.03181284 -0.02404087 0.01467636
v -0.03184356 -0.02385710 0.01467636
v -0.03193381 -0.02330581 0.01467636
v -0.03202407 -0.02270201 0.01467636
v -0.03217769 -0.02161255 0.01467636
v -0.03235627 -0.02033932 0.01467636
v -0.03248301 -0.01941394 0.01467636
v -0.03263279 -0.01831135 0.01467636
v -0.03279410 -0.01703156 0.01467636
v -0.03295732 -0.01571239 0.01467636
v -0.03303221 -0.01498390 0.01467636
v -0.03439752 -0.01475419 -0.02576039
v -0.02448123 -0.03200837 -0.01508914
v -0.02503043 -0.03175898 -0.01508914
v -0.02587343 -0.03121425 -0.01508914
v -0.02643991 -0.03082046 -0.01508914
v -0.02678556 -0.03051200 -0.01508914
v -0.02759784 -0.02977695 -0.01508914
v -0.02802414 -0.02936348 -0.01508914
v -0.02869623 -0.02868748 -0.01508914
v -0.02936449 -0.02799837 -0.01508914
v -0.02976967 -0.02757177 -0.01508914
v -0.03057234 -0.02665951 -0.01508914
v -0.03446473 -0.01374349 -0.02576039
v -0.03321271 -0.01265403 0.01467636
v -0.03338938 0.01044780 0.01467636
v -0.03338938 0.01137319 0.01467636
v -0.03336634 0.01246921 0.01467636
v -0.03336058 0.01263985 0.01467636
v -0.03330489 0.01357180 0.01467636
v -0.03329337 0.01374900 0.01467636
v -0.03283634 0.01813966 0.01467636
v -0.03271152 0.01923569 0.01467636
v -0.03257711 0.02033828 0.01467636
v -0.03319927 0.01468095 0.01467636
v -0.03243501 0.02143430 0.01467636
v -0.03229098 0.02253689 0.01467636
v -0.03212968 0.02363947 0.01467636
v -0.03196838 0.02449923 0.01467636
v -0.03194918 0.02459111 0.01467636
v -0.03184356 0.02505709 0.01467636
v -0.03154016 0.02583152 0.01467636
v -0.03205671 0.02447954 -0.01814882
v -0.03205479 0.02445329 -0.01924919
v -0.03285938 0.02284535 -0.02474710
v -0.03077589 0.02745259 0.01044507
v -0.03202407 0.02436797 -0.02144994
v -0.03199334 0.02432203 -0.02254635
v -0.03194726 0.02425640 -0.02364673
v -0.03191269 0.02421702 -0.02433941
v -0.03187428 0.02417108 -0.02507167
v -0.03091991 0.02543118 -0.02364673
v -0.03085654 0.02535898 -0.02474710
v -0.03032078 0.02591028 -0.02474710
v -0.02875384 0.02765604 -0.02364673
v -0.02858102 0.02858143 -0.01803799
v -0.02748070 0.02967745 -0.01803799
v -0.02545673 0.03095068 -0.02364673
v -0.02762088 0.02980871 -0.01594807
v -0.02424696 0.03193513 -0.02474710
v -0.02628053 0.03068816 -0.01924919
v -0.02634582 0.03074722 -0.01814882
v -0.02635158 0.03075379 -0.01803799
v -0.02643415 0.03081285 -0.01674762
v -0.02430649 0.03198107 -0.02364673
v -0.02436794 0.03202045 -0.02254635
v -0.02441595 0.03205326 -0.02144994
v -0.02445819 0.03206639 -0.02034956
v -0.02741733 0.03075379 0.00934074
v -0.02888442 0.02988747 0.00604357
v -0.02886906 0.02990059 0.00714395
v -0.02805102 0.03037969 0.00934074
v -0.02506500 0.03175793 -0.01803799
v -0.02722338 0.03062253 -0.01044620
v -0.02884025 0.02988747 0.00824036
v -0.02731748 0.03064878 0.01467636
v -0.02880185 0.02986122 0.00934074
v -0.02879417 0.02985465 0.00956240
v -0.02875576 0.02982840 0.01044507
v -0.02585039 -0.03151614 0.01374619
v -0.02599441 -0.03143739 0.01467636
v -0.02742885 -0.03074171 0.01044507
v -0.02687773 -0.03101736 0.01044507
v -0.03107737 -0.02591133 -0.01508914
v -0.03169378 -0.02465779 -0.01508914
v -0.03173026 -0.02457247 -0.01508914
v -0.03176675 -0.02447402 -0.01508914
v -0.03130205 -0.02583913 0.01467636
v -0.03161505 -0.02490718 0.01467636
v -0.03095831 -0.02612134 -0.01508914
v -0.03313398 -0.01374349 0.01467636
v -0.02585231 -0.03124706 -0.01484374
v -0.02742309 -0.03074171 0.00956240
v -0.02881721 -0.02987539 0.00384679
v -0.02875960 -0.02981632 -0.00275150
v -0.02658009 -0.03091235 -0.01217592
v -0.02651096 -0.03087297 -0.01374732
v -0.02865207 -0.02973100 -0.00637719
v -0.02778410 -0.02994102 -0.01217592
v -0.02768809 -0.02986226 -0.01374732
v -0.02761320 -0.02979663 -0.01484374
v -0.02822961 -0.02933066 -0.01374732
v -0.02878265 -0.02877937 -0.01374732
v -0.02887674 -0.02888437 -0.01217592
v -0.02971206 -0.02797868 -0.01217592
v -0.02984263 -0.02765052 -0.01374732
v -0.03081238 -0.02641668 -0.01460624
v -0.02991753 -0.02774241 -0.01217592
v -0.02970822 -0.02860216 -0.00637719
v -0.03104281 0.02676347 0.01467636
v -0.03076629 0.02743946 0.01154544
v -0.03094871 0.02666503 -0.01044620
v -0.03094871 0.02663221 -0.01154657
v -0.03172643 0.02503083 -0.01814882
v -0.02991753 0.02887676 0.00604357
v -0.02991753 0.02888333 0.00494716
v -0.02990985 0.02888333 0.00423864
v -0.03062035 0.02720976 -0.01044620
v -0.02979655 0.02871269 -0.00637719
v -0.03087382 0.02648782 -0.01509310
v -0.03080853 0.02640251 -0.01659721
v -0.03069524 0.02636969 -0.01803799
v -0.03066836 0.02625156 -0.01924919
v -0.03060499 0.02618593 -0.02034956
v -0.02980423 0.02760354 -0.01594807
v -0.02965253 0.02745259 -0.01835068
v -0.02871927 0.02871269 -0.01594807
v -0.02822192 0.02932305 -0.01509310
v -0.02621524 0.03062253 -0.02034956
v -0.02754407 0.02997935 -0.01509310
v -0.02900348 0.02898833 -0.01154657
v -0.02843700 0.02953963 -0.01154657
v -0.02647448 0.03085223 -0.01594807
v -0.02863862 0.02972339 -0.00806338
v -0.02652056 0.03088505 -0.01509310
v -0.02638422 0.03098349 -0.01509310
v -0.02871544 0.02977590 -0.00637719
v -0.02887674 0.02987434 0.00494716
v -0.02922239 0.02959213 0.00423864
v -0.02942018 0.02943462 0.00423864
v -0.02942786 0.02943462 0.00494716
v -0.02943170 0.02942806 0.00604357
v -0.02942018 0.02940180 0.00714395
v -0.02852341 0.02990059 -0.00637719
v -0.02870200 0.02977590 0.01154544
v -0.02798765 0.03008436 0.01467636
v -0.02938945 0.02935586 0.00824036
v -0.02923391 0.02941493 0.00956240
v -0.02930496 0.02927055 0.01044507
v -0.02970246 0.02860112 0.01326725
v -0.02675292 -0.03102392 0.01374619
v -0.02671451 -0.03101079 0.01467636
v -0.02739429 -0.03072202 0.01154544
v -0.02857142 -0.02987539 0.00956240
v -0.02882105 -0.02987539 0.00423864
v -0.03106777 -0.02594414 -0.01492290
v -0.03114842 -0.02583913 -0.01374732
v -0.03093143 -0.02665295 0.01264186
v -0.03124828 -0.02595727 0.01467636
v -0.02656281 -0.03089922 -0.01264299
v -0.02936833 -0.02926503 0.00423864
v -0.02936641 -0.02925847 0.00384679
v -0.02971014 -0.02860873 -0.00604075
v -0.02944898 -0.02889094 -0.00637719
v -0.02873272 -0.02979663 -0.00384791
v -0.02870200 -0.02977038 -0.00495225
v -0.02866359 -0.02974413 -0.00604075
v -0.02832946 -0.02942911 -0.01217592
v -0.03083158 -0.02643637 -0.01374732
v -0.03065683 0.02730164 0.01467636
v -0.03073556 0.02739352 0.01264186
v -0.02988488 0.02881113 0.00824036
v -0.02990985 0.02885707 0.00714395
v -0.03066643 0.02722288 -0.00824941
v -0.03064531 0.02722288 -0.00934583
v -0.02992521 0.02851580 -0.00637719
v -0.03022093 0.02803013 -0.00637719
v -0.02926655 0.02925742 -0.00637719
v -0.02923391 0.02922460 -0.00714904
v -0.02969861 0.02858799 -0.00881939
v -0.02977159 0.02866675 -0.00714904
v -0.02961605 0.02849611 -0.01044620
v -0.02932608 0.02820734 -0.01509310
v -0.02955268 0.02842392 -0.01154657
v -0.02896315 0.02894896 -0.01217592
v -0.02868471 0.02975621 -0.00714904
v -0.02860598 0.02969058 0.01323559
v -0.02851957 0.02960526 0.01467636
v -0.02962373 0.02850923 0.01467636
v -0.02918782 0.02894239 0.01467636
v -0.03021709 0.02803670 0.01264186
v -0.03009419 0.02797763 0.01467636
v -0.02736740 -0.03051200 0.01467636
v -0.02730404 -0.03063670 0.01374619
v -0.02736933 -0.03070233 0.01214313
v -0.02807983 -0.03011166 0.01214313
v -0.02858294 -0.02967194 0.01214313
v -0.02869047 -0.02976382 0.00956240
v -0.02923775 -0.02923221 0.00956240
v -0.02977351 -0.02868748 0.00956240
v -0.03083542 -0.02645606 -0.01264299
v -0.03028622 -0.02786054 0.00956240
v -0.03065683 -0.02715830 0.01044507
v -0.03064723 -0.02719112 0.01154544
v -0.03063763 -0.02719768 0.01214313
v -0.03093143 -0.02660701 0.01467636
v -0.02977351 -0.02870717 0.00423864
v -0.02795117 -0.03009197 0.01374619
v -0.02789740 -0.03004603 0.01467636
v -0.02850037 -0.02959318 0.01374619
v -0.02971974 -0.02861529 0.01124066
v -0.02974854 -0.02865467 0.01044507
v -0.03056466 -0.02715830 0.01467636
v -0.03059730 -0.02717799 0.01374619
v -0.02985608 -0.02856278 0.00956240
v -0.03018828 -0.02803118 0.00956240
v -0.03062803 -0.02719768 0.01264186
v -0.02844852 -0.02953411 0.01467636
v -0.02953347 -0.02841840 0.01467636
v -0.02903612 -0.02904188 0.01374619
v -0.02968325 -0.02857591 0.01197293
v -0.03001546 -0.02786054 0.01467636
v -0.03048017 -0.02727643 0.01467636
f 1 2 3
f 1 3 4
f 1 4 5
f 1 5 6
f 1 6 7
f 1 7 8
f 1 8 9
f 1 9 10
f 1 10 11
f 1 11 12
f 1 12 13
f 1 13 24
f 1 24 72
f 1 72 156
f 1 156 226
f 1 226 268
f 1 268 270
f 1 270 269
f 1 269 272
f 1 272 250
f 1 250 190
f 1 190 122
f 1 122 121
f 1 121 120
f 1 120 119
f 1 119 118
f 1 118 117
f 1 117 116
f 1 116 114
f 1 114 113
f 1 113 112
f 1 112 115
f 1 115 111
f 1 111 110
f 1 110 109
f 1 109 108
f 1 108 107
f 1 107 106
f 1 106 35
f 1 35 105
f 1 105 171
f 1 171 91
f 1 91 90
f 1 90 89
f 1 89 88
f 1 88 87
f 1 87 86
f 1 86 85
f 1 85 84
f 1 84 83
f 1 83 82
f 1 82 81
f 1 81 80
f 1 80 169
f 1 169 168
f 1 168 239
f 1 239 286
f 1 286 293
f 1 293 303
f 1 303 302
f 1 302 299
f 1 299 298
f 1 298 289
f 1 289 273
f 1 273 232
f 1 232 161
f 1 161 76
f 1 76 26
f 1 26 14
f 1 14 2
f 2 14 26
f 2 26 15
f 2 15 16
f 2 16 5
f 2 5 4
f 2 4 3
f 5 16 17
f 5 17 18
f 5 18 19
f 5 19 6
f 6 19 7
f 7 19 8
f 8 19 9
f 9 19 10
f 10 19 11
f 11 19 12
f 12 19 20
f 12 20 13
f 13 21 22
f 13 22 23
f 13 23 24
f 13 20 25
f 13 25 21
f 15 26 27
f 15 27 16
f 16 27 28
f 16 28 29
f 16 29 30
f 16 30 31
f 16 31 32
f 16 32 17
f 17 32 31
f 17 31 33
f 17 33 92
f 17 92 104
f 17 104 34
f 17 34 19
f 17 19 18
f 19 34 35
f 19 35 36
f 19 36 37
f 19 37 38
f 19 38 39
f 19 39 40
f 19 40 41
f 19 41 42
f 19 42 43
f 19 43 44
f 19 44 45
f 19 45 46
f 19 46 47
f 19 47 48
f 19 48 49
f 19 49 50
f 19 50 51
f 19 51 52
f 19 52 53
f 19 53 54
f 19 54 55
f 19 55 56
f 19 56 57
f 19 57 58
f 19 58 59
f 19 59 60
f 19 60 61
f 19 61 62
f 19 62 63
f 19 63 64
f 19 64 65
f 19 65 66
f 19 66 67
f 19 67 25
f 19 25 20
f 21 68 69
f 21 69 70
f 21 70 22
f 21 25 68
f 22 70 23
f 23 70 71
f 23 71 24
f 24 71 73
f 24 73 72
f 25 67 74
f 25 74 75
f 25 75 68
f 26 76 160
f 26 160 77
f 26 77 78
f 26 78 31
f 26 31 30
f 26 30 29
f 26 29 28
f 26 28 27
f 31 78 33
f 33 79 80
f 33 80 81
f 33 81 82
f 33 82 83
f 33 83 84
f 33 84 85
f 33 85 86
f 33 86 87
f 33 87 88
f 33 88 89
f 33 89 90
f 33 90 91
f 33 91 92
f 33 78 93
f 33 93 94
f 33 94 95
f 33 95 96
f 33 96 97
f 33 97 98
f 33 98 99
f 33 99 100
f 33 100 101
f 33 101 102
f 33 102 103
f 33 103 79
f 34 104 105
f 34 105 35
f 35 106 36
f 36 106 107
f 36 107 108
f 36 108 37
f 37 108 109
f 37 109 38
f 38 109 110
f 38 110 111
f 38 111 39
f 39 111 40
f 40 111 41
f 41 112 113
f 41 113 114
f 41 114 42
f 41 111 115
f 41 115 112
f 42 114 43
f 43 114 116
f 43 116 117
f 43 117 118
f 43 118 44
f 44 118 45
f 45 118 119
f 45 119 46
f 46 119 47
f 47 119 120
f 47 120 121
f 47 121 48
f 48 121 49
f 49 121 50
f 50 121 122
f 50 122 51
f 51 123 124
f 51 124 125
f 51 125 52
f 51 122 126
f 51 126 123
f 52 125 124
f 52 124 127
f 52 127 128
f 52 128 53
f 53 128 54
f 54 128 129
f 54 129 130
f 54 130 131
f 54 131 55
f 55 131 132
f 55 132 133
f 55 133 56
f 56 133 57
f 57 133 134
f 57 134 58
f 58 134 59
f 59 135 60
f 59 134 135
f 60 135 61
f 61 136 62
f 61 135 136
f 62 136 137
f 62 137 63
f 63 138 64
f 63 137 139
f 63 139 138
f 64 140 65
f 64 138 141
f 64 141 142
f 64 142 143
f 64 143 144
f 64 144 140
f 65 140 145
f 65 145 146
f 65 146 66
f 66 146 147
f 66 147 67
f 67 147 148
f 67 148 74
f 68 75 149
f 68 149 69
f 69 150 151
f 69 151 152
f 69 152 70
f 69 149 74
f 69 74 153
f 69 153 154
f 69 154 150
f 70 152 151
f 70 151 71
f 71 151 155
f 71 155 73
f 72 73 156
f 73 155 157
f 73 157 158
f 73 158 159
f 73 159 156
f 74 149 75
f 74 148 153
f 76 161 162
f 76 162 163
f 76 163 160
f 77 160 163
f 77 163 94
f 77 94 93
f 77 93 78
f 79 164 165
f 79 165 166
f 79 166 167
f 79 167 168
f 79 168 169
f 79 169 80
f 79 103 170
f 79 170 164
f 91 171 92
f 92 171 105
f 92 105 104
f 94 172 95
f 94 163 173
f 94 173 174
f 94 174 175
f 94 175 176
f 94 176 172
f 95 172 177
f 95 177 96
f 96 177 178
f 96 178 179
f 96 179 180
f 96 180 97
f 97 180 181
f 97 181 98
f 98 181 99
f 99 182 183
f 99 183 100
f 99 181 180
f 99 180 182
f 100 183 101
f 101 183 184
f 101 184 102
f 102 185 186
f 102 186 103
f 102 184 185
f 103 187 170
f 103 186 185
f 103 185 188
f 103 188 189
f 103 189 187
f 122 190 191
f 122 191 126
f 123 126 192
f 123 192 124
f 124 192 193
f 124 193 198
f 124 198 194
f 124 194 127
f 126 191 195
f 126 195 196
f 126 196 197
f 126 197 192
f 127 194 198
f 127 198 199
f 127 199 128
f 128 199 200
f 128 200 201
f 128 201 129
f 129 201 202
f 129 202 130
f 130 202 132
f 130 132 131
f 132 202 203
f 132 203 204
f 132 204 205
f 132 205 133
f 133 205 206
f 133 206 134
f 134 206 135
f 135 206 136
f 136 207 208
f 136 208 137
f 136 206 207
f 137 208 139
f 138 139 209
f 138 209 141
f 139 210 141
f 139 141 209
f 139 208 211
f 139 211 212
f 139 212 210
f 140 144 213
f 140 213 145
f 141 210 142
f 142 210 143
f 143 210 214
f 143 214 144
f 144 214 213
f 145 213 215
f 145 215 146
f 146 215 147
f 147 215 216
f 147 216 217
f 147 217 154
f 147 154 153
f 147 153 148
f 150 218 219
f 150 219 220
f 150 220 221
f 150 221 151
f 150 154 218
f 151 221 222
f 151 222 223
f 151 223 155
f 154 217 224
f 154 224 218
f 155 223 157
f 156 159 225
f 156 225 226
f 157 223 158
f 158 223 227
f 158 227 228
f 158 228 159
f 159 228 229
f 159 229 230
f 159 230 225
f 161 231 162
f 161 232 231
f 162 173 163
f 162 231 233
f 162 233 234
f 162 234 235
f 162 235 173
f 164 236 165
f 164 170 236
f 165 236 237
f 165 237 238
f 165 238 168
f 165 168 166
f 166 168 167
f 168 238 239
f 170 187 236
f 172 176 240
f 172 240 177
f 173 235 174
f 174 235 241
f 174 241 175
f 175 241 242
f 175 242 243
f 175 243 189
f 175 189 244
f 175 244 245
f 175 245 176
f 176 245 246
f 176 246 247
f 176 247 240
f 177 240 247
f 177 247 178
f 178 247 244
f 178 244 184
f 178 184 248
f 178 248 179
f 179 248 180
f 180 248 182
f 182 248 184
f 182 184 183
f 184 244 185
f 185 189 188
f 185 244 189
f 187 249 236
f 187 189 249
f 189 243 249
f 190 250 251
f 190 251 191
f 191 251 252
f 191 252 253
f 191 253 195
f 192 197 254
f 192 254 193
f 193 254 255
f 193 255 198
f 195 253 222
f 195 222 196
f 196 222 221
f 196 221 220
f 196 220 197
f 197 199 256
f 197 256 257
f 197 257 254
f 197 220 199
f 198 255 256
f 198 256 199
f 199 220 258
f 199 258 259
f 199 259 260
f 199 260 261
f 199 261 200
f 200 261 260
f 200 260 201
f 201 260 202
f 202 260 262
f 202 262 203
f 203 262 204
f 204 262 205
f 205 263 206
f 205 262 264
f 205 264 263
f 206 263 207
f 207 265 208
f 207 263 265
f 208 265 211
f 210 212 214
f 211 265 263
f 211 263 264
f 211 264 262
f 211 262 260
f 211 260 214
f 211 214 212
f 213 214 215
f 214 260 259
f 214 259 266
f 214 266 215
f 215 266 216
f 216 266 217
f 217 266 258
f 217 258 220
f 217 220 219
f 217 219 218
f 217 218 224
f 222 253 223
f 223 253 252
f 223 252 227
f 225 267 226
f 225 230 267
f 226 267 268
f 227 229 228
f 227 252 229
f 229 252 230
f 230 269 270
f 230 270 268
f 230 268 267
f 230 252 271
f 230 271 250
f 230 250 272
f 230 272 269
f 231 232 233
f 232 273 274
f 232 274 275
f 232 275 233
f 233 275 276
f 233 276 234
f 234 277 278
f 234 278 235
f 234 276 277
f 235 278 279
f 235 279 280
f 235 280 241
f 236 249 237
f 237 249 281
f 237 281 282
f 237 282 283
f 237 283 238
f 238 283 284
f 238 284 285
f 238 285 286
f 238 286 239
f 241 287 243
f 241 243 242
f 241 280 287
f 243 281 249
f 243 287 281
f 244 247 246
f 244 246 245
f 250 271 251
f 251 271 252
f 254 257 255
f 255 257 256
f 258 266 259
f 273 288 276
f 273 276 274
f 273 289 288
f 274 276 275
f 276 288 277
f 277 279 278
f 277 288 290
f 277 290 291
f 277 291 292
f 277 292 279
f 279 292 280
f 280 292 293
f 280 293 294
f 280 294 295
f 280 295 287
f 281 287 282
f 282 296 285
f 282 285 284
f 282 284 283
f 282 287 296
f 285 297 286
f 285 296 297
f 286 297 294
f 286 294 293
f 287 295 296
f 288 289 290
f 289 298 290
f 290 298 299
f 290 299 300
f 290 300 301
f 290 301 291
f 291 301 302
f 291 302 303
f 291 303 292
f 292 303 293
f 294 297 295
f 295 297 296
f 299 302 301
f 299 301 300

