# https://github.com/mikedh/trimesh
v 0.00004963 -0.03674055 -0.04674898
v 0.00055353 -0.03673695 -0.04674898
v 0.00055353 -0.03673695 -0.04564859
v 0.00004963 -0.03673695 -0.04564859
v 0.00004963 -0.03672257 -0.04724942
v 0.00385209 -0.03670100 -0.04674898
v 0.00055353 -0.03669741 -0.04784936
v 0.00605351 -0.03664348 -0.04784936
v 0.00275138 -0.03670819 -0.04564859
v 0.00055353 -0.03672616 -0.04454821
v 0.00004963 -0.03673336 -0.04504865
v 0.00495280 -0.03668662 -0.04674898
v 0.00004963 -0.03670100 -0.04784936
v 0.00004963 -0.03663989 -0.04834981
v 0.00385209 -0.03652844 -0.04894975
v 0.00605351 -0.03650688 -0.04894975
v 0.00715064 -0.03662910 -0.04784936
v 0.00715064 -0.03649609 -0.04894975
v 0.00165067 -0.03671179 -0.04454821
v 0.00004963 -0.03672616 -0.04454821
v 0.00055353 -0.03668662 -0.04344782
v 0.00605351 -0.03666864 -0.04674898
v 0.00004963 -0.03656080 -0.04894975
v 0.00055353 -0.03655720 -0.04894975
v 0.00275138 -0.03636667 -0.04966383
v 0.00495280 -0.03635589 -0.04962871
v 0.00605351 -0.03634870 -0.04961408
v 0.00825136 -0.03660753 -0.04784936
v 0.00825136 -0.03647811 -0.04894975
v 0.00715064 -0.03634151 -0.04959652
v 0.00825136 -0.03633431 -0.04957603
v 0.00275138 -0.03669022 -0.04454821
v 0.00165067 -0.03667224 -0.04344782
v 0.00004963 -0.03670459 -0.04394826
v 0.00165067 -0.03660753 -0.04234743
v 0.00055353 -0.03661832 -0.04234743
v 0.00004963 -0.03664708 -0.04284787
v 0.00004963 -0.03668303 -0.04344782
v 0.00495280 -0.03666864 -0.04564859
v 0.00715064 -0.03664708 -0.04674898
v 0.00004963 -0.03647811 -0.04928631
v 0.00055353 -0.03637746 -0.04968724
v 0.00165067 -0.03612222 -0.05022866
v 0.00935207 -0.03657158 -0.04784936
v 0.00935207 -0.03658956 -0.04674898
v 0.00825136 -0.03662191 -0.04674898
v 0.00935207 -0.03644576 -0.04894975
v 0.00935207 -0.03631994 -0.04954384
v 0.01006681 -0.03630556 -0.04951458
v 0.00275138 -0.03611143 -0.05021403
v 0.00605351 -0.03606829 -0.05016427
v 0.00715064 -0.03605032 -0.05014671
v 0.00825136 -0.03603234 -0.05012623
v 0.00605351 -0.03664348 -0.04564859
v 0.00605351 -0.03660394 -0.04454821
v 0.00275138 -0.03664708 -0.04344782
v 0.00385209 -0.03656439 -0.04234743
v 0.00055353 -0.03648171 -0.04015251
v 0.00385209 -0.03649968 -0.04124997
v 0.00275138 -0.03644936 -0.04015251
v 0.00165067 -0.03646733 -0.04015251
v 0.00055353 -0.03620130 -0.03575097
v 0.00055353 -0.03630196 -0.03732838
v 0.00004963 -0.03657877 -0.04174749
v 0.00004963 -0.03637386 -0.03845218
v 0.00004963 -0.03637746 -0.04968724
v 0.00055353 -0.03612222 -0.05023744
v 0.00055353 -0.03341881 -0.05434925
v 0.01265062 -0.03635948 -0.04869514
v 0.01045278 -0.03653204 -0.04784936
v 0.01045278 -0.03655001 -0.04674898
v 0.00935207 -0.03655361 -0.04564859
v 0.00825136 -0.03658596 -0.04564859
v 0.01155349 -0.03638105 -0.04882684
v 0.01079943 -0.03629118 -0.04945604
v 0.00935207 -0.03601436 -0.05009403
v 0.01044206 -0.03604313 -0.04994771
v 0.00165067 -0.03340084 -0.05434340
v 0.00275138 -0.03337568 -0.05432292
v 0.00715064 -0.03657518 -0.04454821
v 0.00495280 -0.03658596 -0.04344782
v 0.00495280 -0.03653563 -0.04234743
v 0.00004963 -0.03628758 -0.03707963
v 0.00495280 -0.03646733 -0.04124997
v 0.00385209 -0.03642419 -0.04015251
v 0.00275138 -0.03637746 -0.03905213
v 0.00155060 -0.03632353 -0.03789613
v 0.00184722 -0.03629118 -0.03748935
v 0.00055353 -0.03612222 -0.03465058
v 0.00004963 -0.03612940 -0.03465058
v 0.00004963 -0.03620130 -0.03575097
v 0.00004963 -0.03611862 -0.05023744
v 0.00004963 -0.03341881 -0.05434633
v 0.00055353 -0.03267106 -0.05489945
v 0.00165067 -0.03266747 -0.05489359
v 0.01344757 -0.03633072 -0.04854589
v 0.01265062 -0.03644216 -0.04784936
v 0.01155349 -0.03648890 -0.04784936
v 0.01155349 -0.03627320 -0.04937703
v 0.01265062 -0.03623725 -0.04924533
v 0.01155349 -0.03649609 -0.04674898
v 0.01045278 -0.03649968 -0.04564859
v 0.00825136 -0.03653563 -0.04454821
v 0.01155349 -0.03591011 -0.05004721
v 0.01045278 -0.03543558 -0.05082860
v 0.00275138 -0.03263512 -0.05487311
v 0.00385209 -0.03332894 -0.05428194
v 0.00605351 -0.03649249 -0.04234743
v 0.00419874 -0.03628758 -0.03862778
v 0.00383779 -0.03633791 -0.03901701
v 0.00346255 -0.03630556 -0.03840243
v 0.00275138 -0.03627680 -0.03766786
v 0.01595275 -0.03580945 -0.04015251
v 0.01647095 -0.03519831 -0.03301756
v 0.00055353 -0.03603593 -0.03355020
v 0.00004963 -0.03604313 -0.03355020
v 0.00004963 -0.03266747 -0.05489652
v 0.00004963 -0.03241582 -0.05497261
v 0.00004963 -0.03211744 -0.05506041
v 0.00055353 -0.03212104 -0.05506041
v 0.00165067 -0.03211744 -0.05506041
v 0.00275138 -0.03208509 -0.05505748
v 0.01379064 -0.03634870 -0.04778791
v 0.01379064 -0.03617973 -0.04892634
v 0.01418376 -0.03628039 -0.04811568
v 0.01265062 -0.03643138 -0.04674898
v 0.01375133 -0.03635589 -0.04674898
v 0.01265062 -0.03580586 -0.05004721
v 0.01375133 -0.03556140 -0.05012330
v 0.01433743 -0.03630196 -0.04610806
v 0.01485204 -0.03618692 -0.04454821
v 0.01485204 -0.03611503 -0.04344782
v 0.01155349 -0.03538525 -0.05077885
v 0.00385209 -0.03202757 -0.05504285
v 0.00566754 -0.03191612 -0.05500480
v 0.00640016 -0.03185860 -0.05499017
v 0.00385209 -0.03257760 -0.05483213
v 0.00495280 -0.03250929 -0.05477360
v 0.00495280 -0.03325704 -0.05422341
v 0.00275138 -0.03611503 -0.03575097
v 0.01705347 -0.03551107 -0.03795174
v 0.01705347 -0.03542839 -0.03685135
v 0.01595275 -0.03588495 -0.04124997
v 0.01375133 -0.03471299 -0.02585042
v 0.01668894 -0.03522707 -0.03374920
v 0.01705347 -0.03514439 -0.03345069
v 0.01705347 -0.03505811 -0.03245274
v 0.01705347 -0.03485679 -0.03025196
v 0.01705347 -0.03475254 -0.02915158
v 0.01705347 -0.03442899 -0.02585042
v 0.01609570 -0.03452246 -0.02570994
v 0.01595275 -0.03455122 -0.02585042
v 0.01595275 -0.03476332 -0.02805119
v 0.01485204 -0.03464110 -0.02585042
v 0.00055353 -0.03593887 -0.03245274
v 0.00004963 -0.03594606 -0.03245274
v 0.00004963 -0.03176873 -0.05511894
v 0.00165067 -0.03134812 -0.05519211
v 0.00275138 -0.03134812 -0.05519211
v 0.00385209 -0.03134812 -0.05517747
v 0.01433028 -0.03630196 -0.04738111
v 0.01435172 -0.03630556 -0.04674898
v 0.01485204 -0.03547512 -0.04985406
v 0.01485204 -0.03592809 -0.04894975
v 0.01475913 -0.03618692 -0.04778791
v 0.01265062 -0.03531695 -0.05071447
v 0.01338324 -0.03525223 -0.05065008
v 0.01476270 -0.03624085 -0.04570420
v 0.01595275 -0.03600718 -0.04344782
v 0.01595275 -0.03594966 -0.04234743
v 0.00495280 -0.03134812 -0.05515113
v 0.00603921 -0.03143440 -0.05509260
v 0.00715064 -0.03177233 -0.05497261
v 0.00603921 -0.03234752 -0.05475019
v 0.00605351 -0.03317436 -0.05414439
v 0.01705347 -0.03557938 -0.03905213
v 0.01785756 -0.03527381 -0.03685135
v 0.01771103 -0.03522707 -0.03575097
v 0.01761454 -0.03520191 -0.03516566
v 0.01705347 -0.03533852 -0.03575097
v 0.00275138 -0.03562971 -0.03025196
v 0.01375133 -0.03469862 -0.02570994
v 0.01815060 -0.03468064 -0.03025196
v 0.01815060 -0.03458358 -0.02915158
v 0.01898686 -0.03415218 -0.02585042
v 0.01895112 -0.03414499 -0.02570994
v 0.01815060 -0.03428160 -0.02585042
v 0.01815775 -0.03426722 -0.02570994
v 0.01705347 -0.03441461 -0.02570994
v 0.01595275 -0.03453684 -0.02570994
v 0.01499499 -0.03461593 -0.02570994
v 0.01485204 -0.03462672 -0.02570994
v 0.00055353 -0.03582743 -0.03135235
v 0.00004963 -0.03583462 -0.03135235
v 0.00004963 -0.03134812 -0.05518918
v 0.00165067 -0.03024807 -0.05529746
v 0.00385209 -0.03024807 -0.05529746
v 0.00495280 -0.03024807 -0.05529161
v 0.00605351 -0.03024807 -0.05526819
v 0.01490208 -0.03622287 -0.04674898
v 0.01411585 -0.03512642 -0.05053887
v 0.01485204 -0.03498980 -0.05040425
v 0.01562755 -0.03532414 -0.04966676
v 0.01595275 -0.03581665 -0.04784936
v 0.01597777 -0.03547872 -0.04895268
v 0.01595275 -0.03597482 -0.04674898
v 0.00935207 -0.03223967 -0.05429950
v 0.01045278 -0.03207430 -0.05413269
v 0.01595275 -0.03603593 -0.04454821
v 0.01705347 -0.03566925 -0.04124997
v 0.01705347 -0.03563330 -0.04015251
v 0.00715064 -0.03024807 -0.05522722
v 0.00715064 -0.03122230 -0.05508089
v 0.00825136 -0.03106053 -0.05504870
v 0.00991314 -0.03080169 -0.05499895
v 0.00825136 -0.03161056 -0.05493457
v 0.00715064 -0.03244818 -0.05452777
v 0.01792903 -0.03531335 -0.03795174
v 0.02016619 -0.03423127 -0.03025196
v 0.02051999 -0.03400479 -0.02805119
v 0.02027697 -0.03399760 -0.02696544
v 0.02034845 -0.03388256 -0.02570994
v 0.01930492 -0.03418813 -0.02696544
v 0.00275138 -0.03551467 -0.02915158
v 0.00165067 -0.03567285 -0.03025196
v 0.00166139 -0.03514079 -0.02570994
v 0.00165067 -0.03521269 -0.02625721
v 0.00165067 -0.03529897 -0.02695080
v 0.00165067 -0.03543198 -0.02805119
v 0.01949433 -0.03404434 -0.02570994
v 0.01939783 -0.03406231 -0.02570994
v 0.01827568 -0.03424925 -0.02570994
v 0.00165067 -0.03555421 -0.02915158
v 0.00055353 -0.03558297 -0.02915158
v 0.00004963 -0.03576991 -0.03075240
v 0.00004963 -0.03084843 -0.05523600
v 0.00055353 -0.03024807 -0.05529453
v 0.00004963 -0.02974837 -0.05532087
v 0.00004963 -0.02914802 -0.05535306
v 0.00165067 -0.02914802 -0.05535306
v 0.00495280 -0.02914802 -0.05534136
v 0.00605351 -0.02914802 -0.05533550
v 0.00715064 -0.02914802 -0.05532380
v 0.00825136 -0.02914802 -0.05530039
v 0.00935207 -0.02914802 -0.05526819
v 0.01045278 -0.02914802 -0.05522722
v 0.01595275 -0.03603234 -0.04564859
v 0.01265062 -0.03111805 -0.05425853
v 0.01568830 -0.03425644 -0.05071154
v 0.01642091 -0.03404074 -0.05055643
v 0.01705347 -0.03430677 -0.04974578
v 0.01636373 -0.03510844 -0.04932435
v 0.01663534 -0.03528459 -0.04858978
v 0.01679258 -0.03539244 -0.04784936
v 0.01695697 -0.03550029 -0.04674898
v 0.01715353 -0.03550388 -0.04571590
v 0.01705347 -0.03564408 -0.04454821
v 0.00935207 -0.03143440 -0.05484970
v 0.01705347 -0.03567644 -0.04234743
v 0.01793260 -0.03535290 -0.04015251
v 0.01794332 -0.03533852 -0.03905213
v 0.00825136 -0.03024807 -0.05518040
v 0.00935207 -0.03024807 -0.05513065
v 0.01228610 -0.02977354 -0.05501943
v 0.01155349 -0.03046017 -0.05491115
v 0.01034914 -0.03026245 -0.05506918
v 0.01375133 -0.02891434 -0.05507797
v 0.01840434 -0.03510844 -0.03685135
v 0.02019478 -0.03426362 -0.03135235
v 0.02064149 -0.03401917 -0.02915158
v 0.02144916 -0.03359137 -0.02585042
v 0.02144916 -0.03358418 -0.02570994
v 0.02049140 -0.03384661 -0.02570994
v 0.00055353 -0.03518034 -0.02570994
v 0.00055353 -0.03523426 -0.02612259
v 0.00055353 -0.03533133 -0.02695080
v 0.00004963 -0.03539244 -0.02745125
v 0.00004963 -0.03024807 -0.05529161
v 0.00004963 -0.02864832 -0.05537647
v 0.00055353 -0.02804796 -0.05540281
v 0.00715064 -0.02694791 -0.05542623
v 0.00715064 -0.02804796 -0.05537940
v 0.00935207 -0.02694791 -0.05540867
v 0.00935207 -0.02804796 -0.05534428
v 0.01155349 -0.02804796 -0.05528868
v 0.01265062 -0.02804796 -0.05525941
v 0.01155349 -0.02914802 -0.05517747
v 0.01705347 -0.03567285 -0.04344782
v 0.01265062 -0.03018336 -0.05483506
v 0.01492709 -0.02911925 -0.05486140
v 0.01485204 -0.03007911 -0.05428487
v 0.01351189 -0.03094189 -0.05409464
v 0.01572046 -0.02986701 -0.05410635
v 0.01705347 -0.02893951 -0.05424975
v 0.01760739 -0.03300180 -0.05060326
v 0.01705347 -0.03378550 -0.05029597
v 0.01760739 -0.03410186 -0.04950287
v 0.01778965 -0.02871662 -0.05405367
v 0.01905118 -0.02774599 -0.05415025
v 0.02034845 -0.02672502 -0.05419707
v 0.02099887 -0.02647697 -0.05399514
v 0.01702130 -0.03482084 -0.04895268
v 0.01776821 -0.03424565 -0.04894975
v 0.01734294 -0.03500419 -0.04784936
v 0.01750733 -0.03512642 -0.04674898
v 0.01758595 -0.03518753 -0.04612855
v 0.01766457 -0.03524505 -0.04539398
v 0.01773962 -0.03529178 -0.04454821
v 0.01781467 -0.03532773 -0.04344782
v 0.01787185 -0.03534211 -0.04234743
v 0.01791474 -0.03535290 -0.04124997
v 0.01849011 -0.03510484 -0.03905213
v 0.01847581 -0.03511203 -0.03795174
v 0.01461260 -0.02873100 -0.05503407
v 0.01375133 -0.02946437 -0.05493749
v 0.01265062 -0.02920913 -0.05510138
v 0.01375133 -0.02804796 -0.05520966
v 0.01492709 -0.02813783 -0.05510723
v 0.02071654 -0.03402996 -0.03025196
v 0.02144916 -0.03364170 -0.02695080
v 0.02157067 -0.03353745 -0.02570994
v 0.00032481 -0.03517674 -0.02570994
v 0.00004963 -0.03527381 -0.02650011
v 0.00004963 -0.02804796 -0.05540281
v 0.00004963 -0.02694791 -0.05544964
v 0.00825136 -0.02694791 -0.05542038
v 0.00004963 -0.02584785 -0.05549353
v 0.00605351 -0.02584785 -0.05547305
v 0.01045278 -0.02694791 -0.05538525
v 0.00935207 -0.02584785 -0.05545257
v 0.01045278 -0.02584785 -0.05543500
v 0.01155349 -0.02694791 -0.05535599
v 0.01265062 -0.02694791 -0.05532672
v 0.01375133 -0.02694791 -0.05529453
v 0.01595275 -0.02584785 -0.05529161
v 0.01485204 -0.02694791 -0.05525356
v 0.01603495 -0.02924148 -0.05442827
v 0.01534522 -0.02856563 -0.05499310
v 0.01595275 -0.02838948 -0.05495212
v 0.01707491 -0.02801201 -0.05482921
v 0.01815418 -0.02808751 -0.05435510
v 0.01833644 -0.03267825 -0.05028426
v 0.01797191 -0.03339005 -0.04989503
v 0.02215319 -0.02544162 -0.05405660
v 0.01874384 -0.03304494 -0.04955262
v 0.01831499 -0.03375674 -0.04894975
v 0.02031629 -0.02579393 -0.05477653
v 0.02139913 -0.02582269 -0.05424975
v 0.01856158 -0.03397603 -0.04784936
v 0.01801480 -0.03445416 -0.04784936
v 0.01824352 -0.03452246 -0.04679580
v 0.01877243 -0.03416656 -0.04645925
v 0.01807913 -0.03486758 -0.04571590
v 0.01828998 -0.03487477 -0.04454821
v 0.01836145 -0.03495385 -0.04344782
v 0.01841863 -0.03502216 -0.04234743
v 0.01846152 -0.03506530 -0.04124997
v 0.01847939 -0.03508687 -0.04015251
v 0.02073441 -0.03401198 -0.03245274
v 0.02074513 -0.03402636 -0.03135235
v 0.01705347 -0.02584785 -0.05523893
v 0.01595275 -0.02694791 -0.05519211
v 0.01707491 -0.02700183 -0.05508674
v 0.01595275 -0.02783945 -0.05506041
v 0.02144916 -0.03365967 -0.02805119
v 0.02237118 -0.03319593 -0.02570994
v 0.00004963 -0.03516596 -0.02570994
v 0.00004963 -0.03519112 -0.02586798
v 0.00004963 -0.03523067 -0.02616941
v 0.00825136 -0.02584785 -0.05546134
v 0.00004963 -0.02474780 -0.05553451
v 0.00055353 -0.02474780 -0.05553451
v 0.00495280 -0.02474780 -0.05551109
v 0.01155349 -0.02584785 -0.05541159
v 0.00605351 -0.02474780 -0.05550232
v 0.00935207 -0.02474780 -0.05547598
v 0.01155349 -0.02364774 -0.05547598
v 0.01155349 -0.02474780 -0.05544964
v 0.01265062 -0.02474780 -0.05542915
v 0.01705347 -0.02474780 -0.05532087
v 0.01815060 -0.02474780 -0.05527697
v 0.01672111 -0.02762016 -0.05502236
v 0.01745372 -0.02740447 -0.05498432
v 0.01815060 -0.02715641 -0.05490237
v 0.02253200 -0.02474061 -0.05431413
v 0.02328249 -0.02437033 -0.05408293
v 0.02095241 -0.03085202 -0.04957018
v 0.01946931 -0.03267466 -0.04894975
v 0.01891895 -0.03320671 -0.04894975
v 0.01989101 -0.03088438 -0.05066471
v 0.02062363 -0.03053926 -0.05030475
v 0.02174220 -0.02944999 -0.05031060
v 0.02285364 -0.02835713 -0.05031353
v 0.02066294 -0.02512167 -0.05496383
v 0.02148490 -0.02475139 -0.05484091
v 0.01944429 -0.02612466 -0.05493457
v 0.01914767 -0.03342600 -0.04784936
v 0.01866522 -0.03406950 -0.04719381
v 0.01886178 -0.03424206 -0.04564859
v 0.01978380 -0.03298383 -0.04724357
v 0.01988029 -0.03308089 -0.04650900
v 0.01941213 -0.03372438 -0.04564859
v 0.01895469 -0.03432474 -0.04454821
v 0.01904404 -0.03440383 -0.04344782
v 0.01913695 -0.03447213 -0.04234743
v 0.01991960 -0.03419892 -0.03905213
v 0.01998393 -0.03423846 -0.03795174
v 0.02003753 -0.03426722 -0.03685135
v 0.02008757 -0.03428520 -0.03575097
v 0.02013045 -0.03429598 -0.03465058
v 0.02071297 -0.03398682 -0.03355020
v 0.02230328 -0.03319952 -0.02805119
v 0.02234617 -0.03320671 -0.02695080
v 0.02237118 -0.03319593 -0.02585042
v 0.02034845 -0.02364774 -0.05523893
v 0.01924774 -0.02474780 -0.05520088
v 0.01815060 -0.02584785 -0.05515113
v 0.02292154 -0.03289395 -0.02570994
v 0.00004963 -0.02673940 -0.02570994
v 0.00004963 -0.02364774 -0.05556085
v 0.00055353 -0.02364774 -0.05556085
v 0.00165067 -0.02364774 -0.05555792
v 0.00275138 -0.02364774 -0.05555207
v 0.01705347 -0.02364774 -0.05536770
v 0.01815060 -0.02364774 -0.05534136
v 0.00385209 -0.02364774 -0.05554329
v 0.01595275 -0.02034758 -0.05549353
v 0.01265062 -0.02364774 -0.05546134
v 0.01595275 -0.01924753 -0.05551402
v 0.01924774 -0.01815107 -0.05549939
v 0.02034845 -0.01815107 -0.05547890
v 0.01815060 -0.02034758 -0.05545549
v 0.01705347 -0.02254769 -0.05540574
v 0.01924774 -0.02364774 -0.05530624
v 0.01914410 -0.02579393 -0.05504870
v 0.01871168 -0.02640507 -0.05499895
v 0.02258203 -0.02369088 -0.05486725
v 0.02364701 -0.02364774 -0.05432292
v 0.02436533 -0.02328106 -0.05407416
v 0.02506578 -0.02616421 -0.05032231
v 0.02322888 -0.02762376 -0.05069983
v 0.02100959 -0.02980589 -0.05068520
v 0.02205669 -0.02975556 -0.04957603
v 0.02396150 -0.02726067 -0.05031645
v 0.01969803 -0.03290114 -0.04784936
v 0.02278216 -0.02938528 -0.04894975
v 0.02409015 -0.02849014 -0.04803959
v 0.02298587 -0.02958660 -0.04803374
v 0.02114539 -0.02438830 -0.05503407
v 0.02187801 -0.02408273 -0.05498139
v 0.01950505 -0.03382504 -0.04454821
v 0.01959439 -0.03391132 -0.04344782
v 0.02089166 -0.03189096 -0.04726991
v 0.02098815 -0.03198802 -0.04653827
v 0.01997678 -0.03317436 -0.04564859
v 0.02442251 -0.02882087 -0.04564859
v 0.02200666 -0.03190894 -0.04184699
v 0.02073799 -0.03284362 -0.04344782
v 0.02083805 -0.03294068 -0.04234743
v 0.01968373 -0.03399401 -0.04234743
v 0.01975164 -0.03405871 -0.04147825
v 0.01980524 -0.03410545 -0.04074368
v 0.02197807 -0.03298023 -0.03393358
v 0.02202453 -0.03301978 -0.03320194
v 0.02206742 -0.03305932 -0.03245274
v 0.02213532 -0.03310605 -0.03135235
v 0.02219607 -0.03314919 -0.03025196
v 0.02224968 -0.03318155 -0.02915158
v 0.02068081 -0.03395087 -0.03465058
v 0.02289652 -0.03285800 -0.02695080
v 0.02292154 -0.03289036 -0.02585042
v 0.02034845 -0.02254769 -0.05532087
v 0.02144916 -0.02254769 -0.05524478
v 0.02148490 -0.02369088 -0.05509845
v 0.02031629 -0.02475139 -0.05508089
v 0.02301445 -0.03282924 -0.02570994
v 0.02658462 -0.00001456 -0.02570994
v 0.00004963 -0.00001456 -0.03033391
v 0.00004963 -0.02254769 -0.05556963
v 0.00165067 -0.02254769 -0.05556963
v 0.00385209 -0.02254769 -0.05555792
v 0.00715064 -0.02144764 -0.05554914
v 0.01485204 -0.01924753 -0.05552280
v 0.01924774 -0.02254769 -0.05535306
v 0.01815060 -0.01815107 -0.05551109
v 0.01705347 -0.01815107 -0.05551988
v 0.02034845 -0.01705101 -0.05550817
v 0.02144916 -0.01705101 -0.05547598
v 0.02144916 -0.01815107 -0.05544086
v 0.02034845 -0.01924753 -0.05544086
v 0.02297157 -0.02297189 -0.05497846
v 0.02367202 -0.02258364 -0.05485555
v 0.02475844 -0.02146921 -0.05483213
v 0.02473699 -0.02252612 -0.05429657
v 0.02651672 -0.02432360 -0.05069691
v 0.02542673 -0.02543084 -0.05070276
v 0.02543030 -0.02214506 -0.05404489
v 0.03085880 -0.01986226 -0.05064716
v 0.02977953 -0.02098389 -0.05066471
v 0.02869312 -0.02209832 -0.05067642
v 0.02616291 -0.02505697 -0.05030475
v 0.02535883 -0.02645899 -0.04958774
v 0.02425812 -0.02755905 -0.04958481
v 0.02333609 -0.02883525 -0.04894975
v 0.02191374 -0.03071541 -0.04784936
v 0.02199594 -0.03079810 -0.04729624
v 0.02498716 -0.02718877 -0.04894975
v 0.02519086 -0.02739009 -0.04804252
v 0.02530164 -0.02750153 -0.04731088
v 0.02420093 -0.02860158 -0.04730502
v 0.02259275 -0.03007192 -0.04774108
v 0.02223895 -0.02334936 -0.05503699
v 0.02332180 -0.02223852 -0.05503699
v 0.02028770 -0.03344398 -0.04234743
v 0.02209601 -0.03089516 -0.04656461
v 0.02231043 -0.03110367 -0.04454821
v 0.02185299 -0.03175795 -0.04344782
v 0.02483349 -0.02813783 -0.04674898
v 0.02497286 -0.02827444 -0.04564859
v 0.02397222 -0.02947516 -0.04454821
v 0.02286078 -0.03056442 -0.04454821
v 0.02317885 -0.02977713 -0.04674898
v 0.02352193 -0.03011865 -0.04344782
v 0.02304662 -0.03074417 -0.04258156
v 0.02362556 -0.03022650 -0.04220696
v 0.02310737 -0.03080529 -0.04184992
v 0.02260705 -0.03140564 -0.04124997
v 0.02205669 -0.03195567 -0.04124997
v 0.02452615 -0.02892513 -0.04454821
v 0.02088808 -0.03298742 -0.04172700
v 0.02094169 -0.03303775 -0.04099536
v 0.02100244 -0.03309167 -0.04015251
v 0.02170289 -0.03272858 -0.03795174
v 0.02330393 -0.03208868 -0.03135235
v 0.02337540 -0.03215339 -0.03025196
v 0.02345045 -0.03221091 -0.02915158
v 0.02352193 -0.03226484 -0.02805119
v 0.02274642 -0.03270342 -0.03025196
v 0.02280003 -0.03276094 -0.02915158
v 0.02285364 -0.03281486 -0.02805119
v 0.02381855 -0.03221810 -0.02570994
v 0.02034845 -0.02144764 -0.05536184
v 0.02144916 -0.02144764 -0.05531794
v 0.02254987 -0.02144764 -0.05523893
v 0.02258203 -0.02258364 -0.05509845
v 0.03497575 -0.00001456 -0.02570994
v 0.00004963 -0.00001456 -0.05560182
v 0.00004963 -0.01815107 -0.05558133
v 0.00605351 -0.01815107 -0.05558133
v 0.01155349 -0.01815107 -0.05555207
v 0.01595275 -0.01815107 -0.05552866
v 0.01815060 -0.01705101 -0.05552573
v 0.02034845 -0.01595096 -0.05551988
v 0.02144916 -0.01595096 -0.05549939
v 0.02254987 -0.01705101 -0.05542038
v 0.02254987 -0.01595096 -0.05545257
v 0.02254987 -0.01815107 -0.05538525
v 0.02254987 -0.01924753 -0.05534721
v 0.02254987 -0.02034758 -0.05530624
v 0.02439749 -0.02111331 -0.05503407
v 0.02405441 -0.02184668 -0.05497261
v 0.02513011 -0.02069629 -0.05496676
v 0.02580554 -0.02033680 -0.05476482
v 0.02581626 -0.02139012 -0.05423804
v 0.02646311 -0.02098389 -0.05398343
v 0.03297445 -0.01756869 -0.05057692
v 0.03192378 -0.01872626 -0.05061789
v 0.03297445 -0.01866874 -0.04945312
v 0.03051573 -0.02059563 -0.05023744
v 0.02942574 -0.02171726 -0.05025500
v 0.02644881 -0.02534816 -0.04957311
v 0.03011547 -0.02131103 -0.04987747
v 0.02971521 -0.02201564 -0.04952043
v 0.02608429 -0.02607434 -0.04894975
v 0.02553394 -0.02663874 -0.04894975
v 0.02310022 -0.02969804 -0.04730210
v 0.02956868 -0.02296470 -0.04784936
v 0.02630944 -0.02630801 -0.04784936
v 0.02566974 -0.02699464 -0.04774401
v 0.03208817 -0.01999887 -0.04875075
v 0.02538384 -0.02758781 -0.04674898
v 0.02367202 -0.02146921 -0.05509260
v 0.02507650 -0.02837510 -0.04454821
v 0.02551964 -0.02772442 -0.04564859
v 0.02461906 -0.02902219 -0.04344782
v 0.02420451 -0.02970523 -0.04183236
v 0.02616649 -0.02836432 -0.03795174
v 0.02379353 -0.03039187 -0.04015251
v 0.02324317 -0.03094189 -0.04015251
v 0.02268925 -0.03149192 -0.04015251
v 0.02214246 -0.03203476 -0.04015251
v 0.02155280 -0.03258478 -0.04015251
v 0.02322531 -0.03202038 -0.03245274
v 0.02400081 -0.03170762 -0.02915158
v 0.02407228 -0.03177952 -0.02805119
v 0.02414018 -0.03184423 -0.02695080
v 0.02358983 -0.03230797 -0.02695080
v 0.02417949 -0.03188377 -0.02623672
v 0.02395077 -0.03211385 -0.02570994
v 0.02364701 -0.02034758 -0.05522722
v 0.03507224 -0.00001456 -0.02640354
v 0.03499004 -0.00055020 -0.02570994
v 0.03501148 -0.00055020 -0.02585042
v 0.00991672 -0.00001456 -0.05560182
v 0.01265062 -0.00935064 -0.05560475
v 0.00004963 -0.00935064 -0.05560182
v 0.00004963 -0.01595096 -0.05558719
v 0.01155349 -0.01265080 -0.05559597
v 0.01705347 -0.01705101 -0.05553158
v 0.01924774 -0.01595096 -0.05552866
v 0.01485204 -0.01045069 -0.05559597
v 0.02034845 -0.01375085 -0.05553158
v 0.02144916 -0.01265080 -0.05552573
v 0.02254987 -0.01485091 -0.05547305
v 0.02254987 -0.01265080 -0.05549939
v 0.02254987 -0.01375085 -0.05548769
v 0.02364701 -0.01815107 -0.05532965
v 0.02364701 -0.01595096 -0.05539403
v 0.02474772 -0.01375085 -0.05538818
v 0.02694914 -0.01265080 -0.05530039
v 0.02584843 -0.01375085 -0.05533258
v 0.02694914 -0.01375085 -0.05527405
v 0.02364701 -0.01924753 -0.05529161
v 0.02475844 -0.02033680 -0.05508382
v 0.02541243 -0.01996292 -0.05502236
v 0.02640593 -0.01871188 -0.05500188
v 0.02614505 -0.01944525 -0.05492286
v 0.02669183 -0.02034758 -0.05417951
v 0.02714212 -0.01815107 -0.05489067
v 0.02807844 -0.01812950 -0.05432292
v 0.02772821 -0.01902105 -0.05414147
v 0.03328537 -0.01793897 -0.04984235
v 0.03276361 -0.01824454 -0.05014671
v 0.03396438 -0.01628529 -0.05047156
v 0.03430746 -0.01676701 -0.04973700
v 0.03316029 -0.01887365 -0.04871855
v 0.03189161 -0.01979037 -0.04948531
v 0.03402156 -0.01750038 -0.04936240
v 0.03421454 -0.01774124 -0.04862783
v 0.02933997 -0.02272744 -0.04894975
v 0.03118758 -0.02129665 -0.04784936
v 0.02857519 -0.02417620 -0.04721723
v 0.03225971 -0.02018221 -0.04784936
v 0.03173437 -0.02073224 -0.04784936
v 0.03042281 -0.02160941 -0.04894975
v 0.03095529 -0.02105938 -0.04894975
v 0.03158070 -0.02035837 -0.04904925
v 0.02649885 -0.02650213 -0.04654997
v 0.02561971 -0.02782508 -0.04454821
v 0.02617006 -0.02726426 -0.04454821
v 0.02660606 -0.02661358 -0.04564859
v 0.02662035 -0.02772442 -0.03905213
v 0.02607715 -0.02827444 -0.03905213
v 0.02670970 -0.02781429 -0.03795174
v 0.02624868 -0.02845060 -0.03685135
v 0.02561613 -0.02891434 -0.03795174
v 0.02332537 -0.03102458 -0.03905213
v 0.02276787 -0.03157461 -0.03905213
v 0.02305734 -0.03185860 -0.03489934
v 0.02315026 -0.03194848 -0.03355020
v 0.02385071 -0.03156022 -0.03135235
v 0.02441179 -0.03101020 -0.03135235
v 0.02455831 -0.03115759 -0.02915158
v 0.02545889 -0.03071541 -0.02570994
v 0.02533738 -0.03083404 -0.02570994
v 0.02518371 -0.03098144 -0.02570994
v 0.02420808 -0.03190534 -0.02570994
v 0.02487637 -0.03127263 -0.02570994
v 0.02474772 -0.01924753 -0.05520088
v 0.03518660 -0.00001456 -0.02725224
v 0.03498647 -0.00069400 -0.02570994
v 0.03520089 -0.00116134 -0.02747173
v 0.03514014 -0.00055020 -0.02686886
v 0.03462194 -0.01375085 -0.02570994
v 0.01265062 -0.00001456 -0.05559597
v 0.01045278 -0.00055020 -0.05560182
v 0.01375133 -0.01045069 -0.05560182
v 0.00495280 -0.01045069 -0.05560182
v 0.01155349 -0.00275031 -0.05560182
v 0.01375133 -0.00715053 -0.05560182
v 0.00004963 -0.01105105 -0.05559889
v 0.00055353 -0.01485091 -0.05559011
v 0.01705347 -0.01375085 -0.05555792
v 0.01485204 -0.00935064 -0.05559889
v 0.01705347 -0.00825058 -0.05558426
v 0.01924774 -0.00715053 -0.05556963
v 0.02144916 -0.00715053 -0.05554914
v 0.02254987 -0.00935064 -0.05552573
v 0.02254987 -0.00605047 -0.05554329
v 0.02364701 -0.00275031 -0.05554622
v 0.02364701 -0.00385037 -0.05554036
v 0.02364701 -0.01265080 -0.05545842
v 0.02584843 -0.01045069 -0.05539403
v 0.02474772 -0.01265080 -0.05540867
v 0.02364701 -0.00715053 -0.05551695
v 0.02474772 -0.00385037 -0.05551402
v 0.02364701 -0.00935064 -0.05549647
v 0.02364701 -0.01045069 -0.05548476
v 0.02474772 -0.01815107 -0.05526234
v 0.02584843 -0.01595096 -0.05527112
v 0.02694914 -0.01045069 -0.05534136
v 0.02914698 -0.00825058 -0.05527405
v 0.02804985 -0.01155074 -0.05526526
v 0.02804985 -0.01265080 -0.05523893
v 0.02580554 -0.01914687 -0.05505455
v 0.02659176 -0.01815107 -0.05503114
v 0.02738156 -0.01740332 -0.05497846
v 0.02834289 -0.01595096 -0.05494335
v 0.02799267 -0.01704023 -0.05479994
v 0.02888610 -0.01705101 -0.05421463
v 0.03418952 -0.01555192 -0.05066179
v 0.03527594 -0.01553754 -0.04959945
v 0.03504007 -0.01627091 -0.04918095
v 0.03332111 -0.01904621 -0.04784936
v 0.03281006 -0.01959624 -0.04784936
v 0.03387146 -0.01844226 -0.04784936
v 0.03462552 -0.01701507 -0.04890585
v 0.03521876 -0.01652975 -0.04844931
v 0.03490070 -0.01720919 -0.04784936
v 0.03435034 -0.01789583 -0.04784936
v 0.03184158 -0.02084009 -0.04709139
v 0.03134840 -0.02144764 -0.04674605
v 0.02867525 -0.02428045 -0.04648266
v 0.02758883 -0.02539129 -0.04651778
v 0.03243482 -0.02033320 -0.04669630
v 0.03292442 -0.01971847 -0.04703286
v 0.03302449 -0.01982632 -0.04630121
v 0.02726005 -0.02725348 -0.03795174
v 0.02670612 -0.02671423 -0.04454821
v 0.03194165 -0.02094434 -0.04635682
v 0.03094100 -0.02214506 -0.04564859
v 0.03212748 -0.02113488 -0.04454821
v 0.02887538 -0.02448177 -0.04454821
v 0.02679189 -0.02790057 -0.03685135
v 0.02742087 -0.02741885 -0.03575097
v 0.02687052 -0.02797606 -0.03575097
v 0.02632373 -0.02852609 -0.03575097
v 0.02488709 -0.03039187 -0.03245274
v 0.02514083 -0.02954346 -0.03685135
v 0.02340399 -0.03110007 -0.03795174
v 0.02433674 -0.03093470 -0.03245274
v 0.02642380 -0.02862315 -0.03428476
v 0.02525519 -0.03075496 -0.02695080
v 0.02654530 -0.02963333 -0.02570994
v 0.02584843 -0.01705101 -0.05522137
v 0.02694914 -0.01595096 -0.05517162
v 0.02584843 -0.01815107 -0.05514820
v 0.03520804 -0.00001456 -0.02742198
v 0.03550466 -0.00165026 -0.03025196
v 0.03528309 -0.00055020 -0.02805119
v 0.03520804 -0.00055020 -0.02741905
v 0.03461480 -0.01389465 -0.02570994
v 0.03463624 -0.01375085 -0.02585042
v 0.03562259 -0.00165026 -0.03135235
v 0.01595275 -0.00001456 -0.05558719
v 0.01485204 -0.00165026 -0.05559304
v 0.00165067 -0.01375085 -0.05559304
v 0.01485204 -0.00715053 -0.05559889
v 0.01705347 -0.00715053 -0.05558719
v 0.02254987 -0.00385037 -0.05555207
v 0.02474772 -0.00055020 -0.05554036
v 0.02364701 -0.00055020 -0.05555207
v 0.02694914 -0.00715053 -0.05539403
v 0.02804985 -0.00605047 -0.05536184
v 0.02914698 -0.00495042 -0.05532965
v 0.02914698 -0.00605047 -0.05531209
v 0.02804985 -0.00825058 -0.05532672
v 0.02584843 -0.00055020 -0.05550817
v 0.02694914 -0.00275031 -0.05544378
v 0.02914698 -0.00275031 -0.05535892
v 0.02804985 -0.00495042 -0.05537647
v 0.02694914 -0.01485091 -0.05523307
v 0.03024770 -0.00275031 -0.05531209
v 0.02914698 -0.00935064 -0.05524770
v 0.02804985 -0.01375085 -0.05518918
v 0.02914698 -0.01045069 -0.05521844
v 0.02914698 -0.01155074 -0.05517747
v 0.02698845 -0.01704023 -0.05507797
v 0.02779254 -0.01595096 -0.05505163
v 0.02853588 -0.01529668 -0.05498724
v 0.02946862 -0.01375085 -0.05494335
v 0.02911125 -0.01489764 -0.05483506
v 0.02921488 -0.01598691 -0.05439608
v 0.03002255 -0.01485091 -0.05425268
v 0.03436464 -0.01485091 -0.05078178
v 0.03491499 -0.01485091 -0.05033401
v 0.03538315 -0.01592220 -0.04886781
v 0.03541174 -0.01485091 -0.04978382
v 0.03581200 -0.01485091 -0.04894975
v 0.03401441 -0.01860403 -0.04674898
v 0.03530453 -0.01665917 -0.04784936
v 0.03567263 -0.01595096 -0.04784936
v 0.03503650 -0.01739254 -0.04674898
v 0.03448972 -0.01805760 -0.04674898
v 0.03408588 -0.01868312 -0.04614611
v 0.03416808 -0.01877659 -0.04541154
v 0.03372851 -0.01918641 -0.04572761
v 0.03309596 -0.01990540 -0.04564859
v 0.03257420 -0.02045543 -0.04564859
v 0.02787831 -0.02678973 -0.03685135
v 0.02734225 -0.02733976 -0.03685135
v 0.03095887 -0.02326309 -0.03905213
v 0.02942931 -0.02502102 -0.03795174
v 0.03122332 -0.02243625 -0.04234743
v 0.03202384 -0.02102703 -0.04564859
v 0.03267783 -0.02055968 -0.04454821
v 0.03195237 -0.02205518 -0.04015251
v 0.03113398 -0.02234278 -0.04344782
v 0.02756739 -0.02756983 -0.03355020
v 0.02795336 -0.02686882 -0.03575097
v 0.02942216 -0.02611388 -0.03025196
v 0.03025484 -0.02585504 -0.02589432
v 0.02709566 -0.02819176 -0.03245274
v 0.02731366 -0.02841105 -0.02915158
v 0.02753880 -0.02864113 -0.02570994
v 0.02697058 -0.02916959 -0.02600845
v 0.02573407 -0.03013303 -0.02805119
v 0.02812132 -0.01489764 -0.05509260
v 0.03534742 -0.00001456 -0.02858675
v 0.03553325 -0.00055020 -0.03025196
v 0.03554040 -0.00001456 -0.03025196
v 0.03547607 -0.00001456 -0.02968714
v 0.03456477 -0.01485091 -0.02570994
v 0.03487568 -0.01485091 -0.02915158
v 0.03519732 -0.01534701 -0.03301464
v 0.03578341 -0.00275031 -0.03355020
v 0.03568692 -0.00275031 -0.03245274
v 0.03572623 -0.00165026 -0.03245274
v 0.03564761 -0.00055020 -0.03135235
v 0.01924774 -0.00001456 -0.05557255
v 0.01595275 -0.00275031 -0.05559011
v 0.01705347 -0.00495042 -0.05558719
v 0.02254987 -0.00165026 -0.05555792
v 0.02474772 -0.00001456 -0.05554036
v 0.02531237 -0.00001456 -0.05552573
v 0.02364701 -0.00001456 -0.05555207
v 0.02584843 -0.00001456 -0.05550817
v 0.02641308 -0.00001456 -0.05548476
v 0.02804985 -0.00055020 -0.05541452
v 0.02804985 -0.00165026 -0.05541159
v 0.02694914 -0.00165026 -0.05545549
v 0.02914698 -0.00165026 -0.05536476
v 0.03024770 -0.00165026 -0.05531501
v 0.03134840 -0.00165026 -0.05518625
v 0.03134840 -0.00275031 -0.05517162
v 0.03024770 -0.00385037 -0.05528575
v 0.02922203 -0.01269394 -0.05509845
v 0.02892184 -0.01375085 -0.05506626
v 0.03024770 -0.00495042 -0.05525648
v 0.03024770 -0.00715053 -0.05519211
v 0.03024770 -0.00825058 -0.05515698
v 0.03013333 -0.01045069 -0.05508674
v 0.02994750 -0.01155074 -0.05505748
v 0.02871813 -0.01456331 -0.05502529
v 0.02964016 -0.01308938 -0.05498724
v 0.03049786 -0.01155074 -0.05491115
v 0.03020124 -0.01269394 -0.05480872
v 0.03106608 -0.01265080 -0.05422048
v 0.03509725 -0.01398452 -0.05050961
v 0.03549751 -0.01367176 -0.05010574
v 0.03607646 -0.01375085 -0.04894975
v 0.03606573 -0.01485091 -0.04784936
v 0.03541174 -0.01684251 -0.04674898
v 0.03583702 -0.01595096 -0.04674898
v 0.03513299 -0.01750757 -0.04564859
v 0.03423598 -0.01885568 -0.04454821
v 0.03374281 -0.01940571 -0.04454821
v 0.03319245 -0.02000966 -0.04454821
v 0.03159499 -0.02278496 -0.03795174
v 0.03004042 -0.02455367 -0.03685135
v 0.03211676 -0.02223493 -0.03795174
v 0.02778539 -0.02778913 -0.03025196
v 0.02894685 -0.02675378 -0.02915158
v 0.02909338 -0.02690117 -0.02695080
v 0.02995465 -0.02556385 -0.03025196
v 0.03167362 -0.02286405 -0.03685135
v 0.03119831 -0.02351114 -0.03575097
v 0.03072658 -0.02522233 -0.02695080
v 0.03080877 -0.02530861 -0.02570994
v 0.03051573 -0.02561059 -0.02570994
v 0.03035491 -0.02577595 -0.02570994
v 0.03017622 -0.02595930 -0.02570994
v 0.02952222 -0.02662796 -0.02570994
v 0.02763529 -0.02854407 -0.02570994
v 0.03565476 -0.00001456 -0.03135235
v 0.03446828 -0.01595096 -0.02570994
v 0.03448257 -0.01595096 -0.02585042
v 0.03458621 -0.01595096 -0.02695080
v 0.03530453 -0.01595096 -0.03465058
v 0.03540460 -0.01595096 -0.03575097
v 0.03629445 -0.00646030 -0.04186455
v 0.03600141 -0.00385037 -0.03685135
v 0.03599783 -0.00165026 -0.03575097
v 0.03581915 -0.00165026 -0.03355020
v 0.03549751 -0.01595096 -0.03685135
v 0.03558685 -0.01595096 -0.03795174
v 0.03594066 -0.00055020 -0.03465058
v 0.03584416 -0.00055020 -0.03355020
v 0.03574767 -0.00055020 -0.03245274
v 0.02254987 -0.00055020 -0.05555792
v 0.02694914 -0.00001456 -0.05546134
v 0.02914698 -0.00055020 -0.05536184
v 0.02751379 -0.00001456 -0.05543500
v 0.02861450 -0.00001456 -0.05538233
v 0.02971164 -0.00001456 -0.05532672
v 0.03024770 -0.00055020 -0.05530331
v 0.03134840 -0.00001456 -0.05518332
v 0.03205600 -0.00165026 -0.05503992
v 0.03206673 -0.00001456 -0.05504870
v 0.03207030 -0.00055020 -0.05504870
v 0.03199525 -0.00275031 -0.05502821
v 0.03193450 -0.00385037 -0.05501065
v 0.03190233 -0.00445432 -0.05499895
v 0.03134840 -0.00385037 -0.05513649
v 0.02980098 -0.01235601 -0.05502529
v 0.03122332 -0.00605047 -0.05508089
v 0.03111969 -0.00715053 -0.05505748
v 0.03034776 -0.00942973 -0.05509553
v 0.03078376 -0.00984674 -0.05499602
v 0.03068369 -0.01045069 -0.05496968
v 0.03153067 -0.00825058 -0.05490237
v 0.03128050 -0.00942973 -0.05482921
v 0.03134840 -0.01045069 -0.05456582
v 0.03217036 -0.00935064 -0.05423804
v 0.03521161 -0.01325116 -0.05061204
v 0.03569764 -0.01265080 -0.05004721
v 0.03621583 -0.01155074 -0.04912534
v 0.03620511 -0.01274786 -0.04887951
v 0.03629803 -0.01317926 -0.04837907
v 0.03614078 -0.01485091 -0.04674898
v 0.03625872 -0.01374366 -0.04794594
v 0.03546535 -0.01695755 -0.04564859
v 0.03590134 -0.01595096 -0.04564859
v 0.03545105 -0.01714089 -0.04453650
v 0.03517587 -0.01756869 -0.04489354
v 0.03485424 -0.01805760 -0.04453650
v 0.03430388 -0.01893836 -0.04344782
v 0.03403943 -0.01973285 -0.04015251
v 0.03281006 -0.02178556 -0.03575097
v 0.03273859 -0.02170288 -0.03685135
v 0.03218823 -0.02231402 -0.03685135
v 0.02878604 -0.02737930 -0.02570994
v 0.02821424 -0.02795809 -0.02570994
v 0.02928993 -0.02686522 -0.02570994
v 0.03096244 -0.02436674 -0.03135235
v 0.03182014 -0.02301503 -0.03465058
v 0.03187017 -0.02306896 -0.03387797
v 0.03165575 -0.02393534 -0.02915158
v 0.03209531 -0.02331342 -0.03025196
v 0.03172365 -0.02400724 -0.02805119
v 0.03179155 -0.02407554 -0.02695080
v 0.03121618 -0.02484486 -0.02585627
v 0.03105536 -0.02503899 -0.02570994
v 0.03575124 -0.00001456 -0.03245274
v 0.03445398 -0.01609476 -0.02570994
v 0.03458263 -0.01705101 -0.02805119
v 0.03489712 -0.01705101 -0.03135235
v 0.03500076 -0.01705101 -0.03245274
v 0.03520089 -0.01651896 -0.03408283
v 0.03511870 -0.01695395 -0.03364970
v 0.03642311 -0.00825058 -0.04454821
v 0.03638380 -0.00715053 -0.04344782
v 0.03633734 -0.00607923 -0.04228012
v 0.03608360 -0.00165026 -0.03685135
v 0.03617295 -0.00385037 -0.03905213
v 0.03567263 -0.01595096 -0.03905213
v 0.03603000 -0.00055020 -0.03575097
v 0.03516515 -0.01728469 -0.03465058
v 0.03593351 -0.00001456 -0.03465058
v 0.03588705 -0.00001456 -0.03408576
v 0.02914698 -0.00001456 -0.05535599
v 0.03024770 -0.00001456 -0.05529746
v 0.03260279 -0.00165026 -0.05486140
v 0.03262065 -0.00055020 -0.05487018
v 0.03234905 -0.00001456 -0.05495798
v 0.03184515 -0.00518769 -0.05498724
v 0.03177368 -0.00605047 -0.05497261
v 0.03142703 -0.00487493 -0.05508382
v 0.03166647 -0.00715053 -0.05495212
v 0.03098031 -0.00825058 -0.05503407
v 0.03244912 -0.00605047 -0.05456289
v 0.03230259 -0.00825058 -0.05435218
v 0.03526164 -0.01265080 -0.05065886
v 0.03309239 -0.00605047 -0.05403904
v 0.03533669 -0.01155074 -0.05073495
v 0.03580485 -0.01155074 -0.05004721
v 0.03633734 -0.01155074 -0.04857515
v 0.03624442 -0.01045069 -0.04924826
v 0.03633734 -0.01274786 -0.04794594
v 0.03631590 -0.01336979 -0.04764451
v 0.03644812 -0.01045069 -0.04784936
v 0.03639809 -0.01155074 -0.04784936
v 0.03614436 -0.01485091 -0.04564859
v 0.03593351 -0.01595096 -0.04454821
v 0.03521518 -0.01762621 -0.04415897
v 0.03555112 -0.01705101 -0.04344782
v 0.03527594 -0.01773765 -0.04234743
v 0.03524378 -0.01767294 -0.04344782
v 0.03485424 -0.01822297 -0.04344782
v 0.03442539 -0.01910014 -0.04124997
v 0.03408231 -0.01977958 -0.03946477
v 0.03328537 -0.02123553 -0.03575097
v 0.03322104 -0.02115285 -0.03685135
v 0.03287796 -0.02186465 -0.03465058
v 0.03225971 -0.02238951 -0.03575097
v 0.03230974 -0.02264116 -0.03352678
v 0.03298875 -0.02198328 -0.03290343
v 0.03302806 -0.02203361 -0.03217179
v 0.03180584 -0.02421215 -0.02570994
v 0.03116972 -0.02491317 -0.02570994
v 0.03435391 -0.01705101 -0.02570994
v 0.03436821 -0.01705101 -0.02585042
v 0.03445041 -0.01815107 -0.02805119
v 0.03465768 -0.01815107 -0.03025196
v 0.03644455 -0.00935064 -0.04564859
v 0.03648386 -0.00825058 -0.04564859
v 0.03645885 -0.00715053 -0.04454821
v 0.03588705 -0.01485091 -0.04124997
v 0.03596925 -0.01485091 -0.04234743
v 0.03604787 -0.01485091 -0.04344782
v 0.03631590 -0.00495042 -0.04151922
v 0.03629088 -0.00407685 -0.04080221
v 0.03626229 -0.00376768 -0.04025202
v 0.03620869 -0.00275031 -0.03905213
v 0.03616223 -0.00165026 -0.03795174
v 0.03519017 -0.01752914 -0.03536466
v 0.03575482 -0.01595096 -0.04015251
v 0.03610862 -0.00055020 -0.03685135
v 0.03606216 -0.00001456 -0.03628653
v 0.03602285 -0.00001456 -0.03575097
v 0.03331753 -0.00165026 -0.05431121
v 0.03329609 -0.00275031 -0.05427609
v 0.03254561 -0.00275031 -0.05482335
v 0.03333898 -0.00055020 -0.05431999
v 0.03261708 -0.00001456 -0.05486140
v 0.03333898 -0.00001456 -0.05431121
v 0.03248128 -0.00385037 -0.05476482
v 0.03324606 -0.00385037 -0.05421463
v 0.03317101 -0.00495042 -0.05413562
v 0.03538315 -0.01045069 -0.05078470
v 0.03587633 -0.01045069 -0.05004721
v 0.03636236 -0.01045069 -0.04869807
v 0.03626229 -0.00935064 -0.04933898
v 0.03631590 -0.01336979 -0.04706212
v 0.03648386 -0.00935064 -0.04784936
v 0.03649458 -0.00935064 -0.04674898
v 0.03611219 -0.01485091 -0.04454821
v 0.03592636 -0.01595096 -0.04344782
v 0.03556899 -0.01705101 -0.04124997
v 0.03557256 -0.01705101 -0.04234743
v 0.03497575 -0.01833801 -0.04124997
v 0.03491499 -0.01828768 -0.04234743
v 0.03529024 -0.01778798 -0.04124997
v 0.03502578 -0.01836317 -0.04015251
v 0.03447542 -0.01918282 -0.04015251
v 0.03412520 -0.01982991 -0.03873313
v 0.03306380 -0.02207675 -0.03135235
v 0.03190591 -0.02408992 -0.02570994
v 0.03416451 -0.01988383 -0.03795174
v 0.03433605 -0.01720200 -0.02570994
v 0.03423241 -0.01815107 -0.02585042
v 0.03412162 -0.01883411 -0.02570994
v 0.03412877 -0.01887725 -0.02585042
v 0.03417166 -0.01927629 -0.02699763
v 0.03407516 -0.01965735 -0.02666400
v 0.03410733 -0.01983350 -0.02739564
v 0.03475060 -0.01815107 -0.03135235
v 0.03644455 -0.01045069 -0.04674898
v 0.03651960 -0.00825058 -0.04674898
v 0.03650173 -0.00715053 -0.04564859
v 0.03647672 -0.00605047 -0.04454821
v 0.03636950 -0.00495042 -0.04234743
v 0.03582987 -0.01595096 -0.04124997
v 0.03627301 -0.00275031 -0.04005886
v 0.03623013 -0.00165026 -0.03905213
v 0.03618009 -0.00055020 -0.03795174
v 0.03521161 -0.01764418 -0.03609923
v 0.03544033 -0.01705101 -0.03795174
v 0.03617652 -0.00001456 -0.03795174
v 0.03610147 -0.00001456 -0.03685135
v 0.03595495 -0.00825058 -0.05004721
v 0.03592279 -0.00935064 -0.05004721
v 0.03542961 -0.00825058 -0.05083738
v 0.03540817 -0.00935064 -0.05081690
v 0.03547607 -0.00055020 -0.05094274
v 0.03547249 -0.00275031 -0.05091933
v 0.03546892 -0.00385037 -0.05090762
v 0.03546535 -0.00495042 -0.05089299
v 0.03597282 -0.00715053 -0.05004721
v 0.03547607 -0.00001456 -0.05094859
v 0.03637665 -0.00935064 -0.04878879
v 0.03627658 -0.00825058 -0.04938581
v 0.03650173 -0.00825058 -0.04784936
v 0.03588705 -0.01595096 -0.04234743
v 0.03554040 -0.01705101 -0.04015251
v 0.03528309 -0.01781674 -0.03905213
v 0.03529024 -0.01781314 -0.04015251
v 0.03420739 -0.01994854 -0.03685135
v 0.03505079 -0.01836317 -0.03905213
v 0.03426458 -0.02008875 -0.03355020
v 0.03425385 -0.02004920 -0.03465058
v 0.03423598 -0.02000606 -0.03575097
v 0.03310311 -0.02213427 -0.03025196
v 0.03229902 -0.02359382 -0.02585042
v 0.03229187 -0.02361539 -0.02570994
v 0.03421812 -0.01814388 -0.02570994
v 0.03403228 -0.01938414 -0.02570994
v 0.03403943 -0.01942728 -0.02585042
v 0.03400369 -0.01954591 -0.02570994
v 0.03384645 -0.02034758 -0.02570994
v 0.03412877 -0.01990900 -0.02805119
v 0.03450759 -0.01924753 -0.03135235
v 0.03381071 -0.02049138 -0.02570994
v 0.03396438 -0.02026130 -0.02699763
v 0.03651603 -0.00605047 -0.04784936
v 0.03655891 -0.00165026 -0.04674898
v 0.03655176 -0.00165026 -0.04564859
v 0.03652675 -0.00165026 -0.04454821
v 0.03651603 -0.00275031 -0.04454821
v 0.03648029 -0.00165026 -0.04344782
v 0.03644812 -0.00385037 -0.04344782
v 0.03630518 -0.00275031 -0.04060906
v 0.03631232 -0.00165026 -0.04046858
v 0.03636593 -0.00055020 -0.04124997
v 0.03626229 -0.00001456 -0.03946770
v 0.03507581 -0.01806839 -0.03573926
v 0.03523306 -0.01771249 -0.03685135
v 0.03549751 -0.01705101 -0.03905213
v 0.03601213 -0.00385037 -0.05004721
v 0.03600141 -0.00495042 -0.05004721
v 0.03575482 -0.00001456 -0.05048912
v 0.03601927 -0.00165026 -0.05004721
v 0.03638380 -0.00825058 -0.04883561
v 0.03628016 -0.00715053 -0.04940629
v 0.03639094 -0.00715053 -0.04885610
v 0.03526164 -0.01778079 -0.03795174
v 0.03506152 -0.01825892 -0.03685135
v 0.03460765 -0.01924753 -0.03355020
v 0.03425385 -0.02011391 -0.03245274
v 0.03506152 -0.01833082 -0.03795174
v 0.03393579 -0.02063877 -0.03355020
v 0.03313527 -0.02219179 -0.02915158
v 0.03316386 -0.02231042 -0.02570994
v 0.03316386 -0.02230683 -0.02585042
v 0.03316743 -0.02227088 -0.02695080
v 0.03396438 -0.02066394 -0.03245274
v 0.03276003 -0.02278855 -0.02805119
v 0.03280649 -0.02282091 -0.02695080
v 0.03276718 -0.02297549 -0.02570994
v 0.03397153 -0.02045903 -0.02805119
v 0.03416451 -0.02000966 -0.02915158
v 0.03456477 -0.01924753 -0.03245274
v 0.03352838 -0.02144764 -0.02570994
v 0.03639452 -0.00605047 -0.04887366
v 0.03652675 -0.00165026 -0.04784936
v 0.03655533 -0.00055020 -0.04674898
v 0.03655176 -0.00055020 -0.04564859
v 0.03653390 -0.00055020 -0.04454821
v 0.03648744 -0.00055020 -0.04344782
v 0.03642668 -0.00055020 -0.04234743
v 0.03639094 -0.00001456 -0.04178261
v 0.03629088 -0.00275031 -0.04946775
v 0.03629088 -0.00385037 -0.04945897
v 0.03601570 -0.00001456 -0.05004721
v 0.03629088 -0.00165026 -0.04947068
v 0.03398940 -0.02055968 -0.02915158
v 0.03422884 -0.02010672 -0.03135235
v 0.03399297 -0.02062439 -0.03025196
v 0.03315672 -0.02223852 -0.02805119
v 0.03284580 -0.02285686 -0.02585042
v 0.03284937 -0.02286045 -0.02570994
v 0.03356412 -0.02144764 -0.02695080
v 0.03348550 -0.02156267 -0.02570994
v 0.03353553 -0.02144764 -0.02585042
v 0.03639452 -0.00385037 -0.04890878
v 0.03639452 -0.00275031 -0.04891756
v 0.03639452 -0.00165026 -0.04892049
v 0.03639094 -0.00055020 -0.04890000
v 0.03651960 -0.00055020 -0.04784936
v 0.03651245 -0.00001456 -0.04784936
v 0.03653032 -0.00001456 -0.04728454
v 0.03654462 -0.00001456 -0.04674898
v 0.03654462 -0.00001456 -0.04564859
v 0.03652675 -0.00001456 -0.04454821
v 0.03650531 -0.00001456 -0.04398338
v 0.03648029 -0.00001456 -0.04344782
v 0.03645170 -0.00001456 -0.04288299
v 0.03615508 -0.00001456 -0.04974285
v 0.03628730 -0.00055020 -0.04945019
v 0.03633734 -0.00001456 -0.04914876
v 0.03638737 -0.00001456 -0.04888244
v 0.03645527 -0.00001456 -0.04834103
v 0.03628373 -0.00001456 -0.04943263
f 1 2 3
f 1 3 4
f 1 4 11
f 1 11 20
f 1 20 34
f 1 34 38
f 1 38 37
f 1 37 64
f 1 64 65
f 1 65 83
f 1 83 91
f 1 91 90
f 1 90 116
f 1 116 156
f 1 156 194
f 1 194 235
f 1 235 277
f 1 277 323
f 1 323 369
f 1 369 368
f 1 368 367
f 1 367 419
f 1 419 478
f 1 478 547
f 1 547 606
f 1 606 681
f 1 681 607
f 1 607 548
f 1 548 479
f 1 479 420
f 1 420 371
f 1 371 327
f 1 327 325
f 1 325 324
f 1 324 279
f 1 279 239
f 1 239 238
f 1 238 278
f 1 278 236
f 1 236 195
f 1 195 157
f 1 157 119
f 1 119 118
f 1 118 117
f 1 117 93
f 1 93 92
f 1 92 66
f 1 66 41
f 1 41 23
f 1 23 14
f 1 14 13
f 1 13 5
f 1 5 2
f 2 6 3
f 2 5 7
f 2 7 8
f 2 8 6
f 3 9 10
f 3 10 11
f 3 11 4
f 3 6 12
f 3 12 9
f 5 13 7
f 6 8 12
f 7 13 14
f 7 14 15
f 7 15 16
f 7 16 8
f 8 17 12
f 8 16 18
f 8 18 17
f 9 19 10
f 9 12 22
f 9 22 19
f 10 20 11
f 10 19 33
f 10 33 21
f 10 21 20
f 12 17 22
f 14 23 24
f 14 24 15
f 15 25 26
f 15 26 27
f 15 27 16
f 15 24 25
f 16 27 18
f 17 28 22
f 17 18 29
f 17 29 28
f 18 27 30
f 18 30 31
f 18 31 29
f 19 22 39
f 19 39 32
f 19 32 33
f 20 21 34
f 21 33 35
f 21 35 36
f 21 36 64
f 21 64 37
f 21 37 38
f 21 38 34
f 22 28 40
f 22 40 39
f 23 41 42
f 23 42 24
f 24 42 25
f 25 42 43
f 25 43 26
f 26 43 27
f 27 43 30
f 28 44 45
f 28 45 46
f 28 46 40
f 28 29 47
f 28 47 44
f 29 31 48
f 29 48 49
f 29 49 47
f 30 43 31
f 31 43 50
f 31 50 51
f 31 51 52
f 31 52 53
f 31 53 48
f 32 39 54
f 32 54 55
f 32 55 56
f 32 56 33
f 33 56 57
f 33 57 35
f 35 58 36
f 35 57 59
f 35 59 60
f 35 60 61
f 35 61 62
f 35 62 63
f 35 63 58
f 36 58 65
f 36 65 64
f 39 40 46
f 39 46 54
f 41 66 42
f 42 66 67
f 42 67 43
f 43 67 68
f 43 68 50
f 44 47 69
f 44 69 70
f 44 70 71
f 44 71 45
f 45 71 72
f 45 72 73
f 45 73 46
f 46 73 54
f 47 74 69
f 47 49 75
f 47 75 74
f 48 53 76
f 48 76 49
f 49 76 77
f 49 77 75
f 50 68 78
f 50 78 51
f 51 78 52
f 52 78 53
f 53 78 79
f 53 79 76
f 54 73 55
f 55 73 80
f 55 80 56
f 56 80 81
f 56 81 82
f 56 82 57
f 57 82 59
f 58 63 83
f 58 83 65
f 59 82 84
f 59 84 85
f 59 85 86
f 59 86 60
f 60 86 87
f 60 87 61
f 61 87 62
f 62 88 89
f 62 89 90
f 62 90 91
f 62 91 83
f 62 83 63
f 62 87 86
f 62 86 88
f 66 92 67
f 67 92 93
f 67 93 68
f 68 93 94
f 68 94 95
f 68 95 78
f 69 96 97
f 69 97 98
f 69 98 70
f 69 74 75
f 69 75 99
f 69 99 100
f 69 100 96
f 70 98 71
f 71 98 97
f 71 97 101
f 71 101 102
f 71 102 72
f 72 80 73
f 72 102 103
f 72 103 80
f 75 77 104
f 75 104 99
f 76 105 104
f 76 104 77
f 76 79 105
f 78 95 79
f 79 95 106
f 79 106 107
f 79 107 105
f 80 103 82
f 80 82 81
f 82 103 108
f 82 108 84
f 84 109 110
f 84 110 111
f 84 111 112
f 84 112 85
f 84 108 113
f 84 113 114
f 84 114 109
f 85 112 88
f 85 88 86
f 88 112 89
f 89 115 116
f 89 116 90
f 89 112 115
f 93 117 94
f 94 117 118
f 94 118 119
f 94 119 120
f 94 120 121
f 94 121 95
f 95 121 122
f 95 122 106
f 96 123 97
f 96 100 124
f 96 124 125
f 96 125 123
f 97 126 101
f 97 123 127
f 97 127 126
f 99 104 128
f 99 128 100
f 100 128 129
f 100 129 124
f 101 126 130
f 101 130 102
f 102 130 131
f 102 131 132
f 102 132 103
f 103 132 108
f 104 105 133
f 104 133 128
f 105 107 133
f 106 122 134
f 106 134 135
f 106 135 136
f 106 136 137
f 106 137 107
f 107 137 138
f 107 138 139
f 107 139 133
f 108 132 113
f 109 111 110
f 109 114 111
f 111 114 140
f 111 140 115
f 111 115 112
f 113 141 142
f 113 142 114
f 113 132 143
f 113 143 141
f 114 144 115
f 114 115 140
f 114 142 145
f 114 145 146
f 114 146 147
f 114 147 148
f 114 148 149
f 114 149 150
f 114 150 151
f 114 151 152
f 114 152 153
f 114 153 154
f 114 154 144
f 115 155 156
f 115 156 116
f 115 144 155
f 119 157 158
f 119 158 120
f 120 158 159
f 120 159 121
f 121 159 122
f 122 159 160
f 122 160 134
f 123 125 161
f 123 161 162
f 123 162 127
f 124 129 163
f 124 163 164
f 124 164 125
f 125 164 165
f 125 165 161
f 126 127 130
f 127 162 130
f 128 133 166
f 128 166 167
f 128 167 129
f 129 167 163
f 130 162 168
f 130 168 131
f 131 168 169
f 131 169 170
f 131 170 143
f 131 143 132
f 133 139 166
f 134 160 171
f 134 171 135
f 135 171 136
f 136 171 172
f 136 172 173
f 136 173 137
f 137 173 138
f 138 173 174
f 138 174 175
f 138 175 139
f 139 175 166
f 141 143 176
f 141 176 177
f 141 177 178
f 141 178 179
f 141 179 142
f 142 180 145
f 142 179 180
f 143 170 176
f 144 181 155
f 144 154 192
f 144 192 182
f 144 182 181
f 145 179 146
f 145 180 179
f 146 179 147
f 147 179 183
f 147 183 184
f 147 184 185
f 147 185 186
f 147 186 148
f 148 186 187
f 148 187 149
f 149 187 188
f 149 188 150
f 150 188 189
f 150 189 151
f 151 189 188
f 151 188 232
f 151 232 186
f 151 186 231
f 151 231 230
f 151 230 222
f 151 222 273
f 151 273 272
f 151 272 321
f 151 321 366
f 151 366 418
f 151 418 476
f 151 476 541
f 151 541 599
f 151 599 667
f 151 667 668
f 151 668 666
f 151 666 665
f 151 665 664
f 151 664 744
f 151 744 815
f 151 815 884
f 151 884 943
f 151 943 942
f 151 942 944
f 151 944 883
f 151 883 882
f 151 882 881
f 151 881 880
f 151 880 879
f 151 879 953
f 151 953 1010
f 151 1010 1009
f 151 1009 1058
f 151 1058 1105
f 151 1105 1149
f 151 1149 1171
f 151 1171 1143
f 151 1143 1173
f 151 1173 1153
f 151 1153 1113
f 151 1113 1110
f 151 1110 1109
f 151 1109 1107
f 151 1107 1062
f 151 1062 1106
f 151 1106 1060
f 151 1060 1011
f 151 1011 955
f 151 955 886
f 151 886 823
f 151 823 752
f 151 752 674
f 151 674 671
f 151 671 602
f 151 602 546
f 151 546 477
f 151 477 419
f 151 419 367
f 151 367 322
f 151 322 274
f 151 274 226
f 151 226 182
f 151 182 192
f 151 192 191
f 151 191 190
f 151 190 152
f 152 190 191
f 152 191 153
f 153 191 154
f 154 191 192
f 155 193 194
f 155 194 156
f 155 181 193
f 157 195 158
f 158 195 196
f 158 196 197
f 158 197 159
f 159 197 198
f 159 198 160
f 160 198 199
f 160 199 171
f 161 165 200
f 161 200 162
f 162 200 168
f 163 167 201
f 163 201 202
f 163 202 203
f 163 203 164
f 164 204 165
f 164 203 205
f 164 205 204
f 165 204 206
f 165 206 200
f 166 175 167
f 167 175 207
f 167 207 208
f 167 208 201
f 168 200 209
f 168 209 169
f 169 209 210
f 169 210 211
f 169 211 176
f 169 176 170
f 171 199 212
f 171 212 213
f 171 213 172
f 172 213 173
f 173 213 214
f 173 214 215
f 173 215 216
f 173 216 174
f 174 217 175
f 174 216 217
f 175 217 207
f 176 211 218
f 176 218 177
f 177 218 219
f 177 219 220
f 177 220 221
f 177 221 178
f 178 221 179
f 179 221 222
f 179 222 223
f 179 223 185
f 179 185 183
f 181 182 224
f 181 224 225
f 181 225 193
f 182 226 227
f 182 227 228
f 182 228 229
f 182 229 224
f 183 185 184
f 185 223 230
f 185 230 231
f 185 231 186
f 186 232 187
f 187 232 188
f 193 225 233
f 193 233 229
f 193 229 234
f 193 234 235
f 193 235 194
f 195 236 237
f 195 237 196
f 196 237 238
f 196 238 239
f 196 239 240
f 196 240 197
f 197 240 241
f 197 241 242
f 197 242 198
f 198 242 243
f 198 243 244
f 198 244 199
f 199 244 245
f 199 245 246
f 199 246 212
f 200 206 247
f 200 247 209
f 201 208 248
f 201 248 202
f 202 248 249
f 202 249 250
f 202 250 203
f 203 250 251
f 203 251 252
f 203 252 205
f 204 205 253
f 204 253 254
f 204 254 255
f 204 255 206
f 205 252 253
f 206 255 256
f 206 256 257
f 206 257 247
f 207 217 216
f 207 216 258
f 207 258 248
f 207 248 208
f 209 247 288
f 209 288 259
f 209 259 210
f 210 259 260
f 210 260 261
f 210 261 218
f 210 218 211
f 212 262 213
f 212 246 262
f 213 262 263
f 213 263 214
f 214 263 215
f 215 264 265
f 215 265 216
f 215 263 266
f 215 266 267
f 215 267 264
f 216 265 258
f 218 261 268
f 218 268 219
f 219 269 270
f 219 270 271
f 219 271 220
f 219 268 269
f 220 271 272
f 220 272 221
f 221 272 273
f 221 273 222
f 222 230 223
f 224 229 233
f 224 233 225
f 226 274 275
f 226 275 227
f 227 275 228
f 228 275 229
f 229 275 276
f 229 276 234
f 234 276 277
f 234 277 235
f 236 278 237
f 237 278 238
f 239 279 240
f 240 279 280
f 240 280 281
f 240 281 241
f 241 281 282
f 241 282 242
f 242 282 243
f 243 282 283
f 243 283 284
f 243 284 244
f 244 284 285
f 244 285 286
f 244 286 245
f 245 286 246
f 246 286 317
f 246 317 287
f 246 287 263
f 246 263 262
f 247 257 288
f 248 258 289
f 248 289 290
f 248 290 291
f 248 291 292
f 248 292 249
f 249 292 291
f 249 291 293
f 249 293 294
f 249 294 250
f 250 295 296
f 250 296 297
f 250 297 251
f 250 294 298
f 250 298 299
f 250 299 300
f 250 300 301
f 250 301 295
f 251 297 252
f 252 302 253
f 252 297 302
f 253 302 303
f 253 303 304
f 253 304 254
f 254 304 305
f 254 305 255
f 255 305 306
f 255 306 307
f 255 307 256
f 256 307 308
f 256 308 257
f 257 308 309
f 257 309 310
f 257 310 311
f 257 311 288
f 258 265 289
f 259 288 260
f 260 288 311
f 260 311 312
f 260 312 313
f 260 313 261
f 261 313 268
f 263 287 266
f 264 267 314
f 264 314 315
f 264 315 265
f 265 315 289
f 266 287 316
f 266 316 267
f 267 316 317
f 267 317 318
f 267 318 314
f 268 313 269
f 269 319 320
f 269 320 270
f 269 313 319
f 270 320 271
f 271 320 321
f 271 321 272
f 274 322 275
f 275 323 277
f 275 277 276
f 275 322 323
f 279 324 280
f 280 324 325
f 280 325 281
f 281 326 282
f 281 325 327
f 281 327 328
f 281 328 326
f 282 326 283
f 283 329 284
f 283 326 330
f 283 330 331
f 283 331 374
f 283 374 329
f 284 329 285
f 285 329 332
f 285 332 333
f 285 333 286
f 286 333 334
f 286 334 335
f 286 335 336
f 286 336 317
f 287 317 316
f 289 315 290
f 290 337 291
f 290 315 338
f 290 338 339
f 290 339 340
f 290 340 337
f 291 337 293
f 293 337 294
f 294 337 340
f 294 340 341
f 294 341 298
f 295 342 343
f 295 343 297
f 295 297 296
f 295 301 344
f 295 344 342
f 297 303 302
f 297 343 345
f 297 345 346
f 297 346 303
f 298 341 299
f 299 341 300
f 300 347 348
f 300 348 301
f 300 341 347
f 301 348 344
f 303 346 349
f 303 349 350
f 303 350 304
f 304 350 351
f 304 351 305
f 305 351 352
f 305 352 306
f 306 352 353
f 306 353 307
f 307 353 354
f 307 354 308
f 308 354 355
f 308 355 356
f 308 356 309
f 309 356 357
f 309 357 310
f 310 357 311
f 311 357 358
f 311 358 312
f 312 358 359
f 312 359 360
f 312 360 313
f 313 360 319
f 314 318 338
f 314 338 315
f 317 336 361
f 317 361 362
f 317 362 318
f 318 362 363
f 318 363 364
f 318 364 338
f 319 360 365
f 319 365 320
f 320 365 366
f 320 366 321
f 322 367 368
f 322 368 369
f 322 369 323
f 326 328 370
f 326 370 330
f 327 371 372
f 327 372 328
f 328 372 373
f 328 373 370
f 329 374 332
f 330 370 373
f 330 373 375
f 330 375 376
f 330 376 377
f 330 377 378
f 330 378 331
f 331 378 379
f 331 379 374
f 332 374 380
f 332 380 333
f 333 380 335
f 333 335 334
f 335 361 336
f 335 380 381
f 335 381 361
f 338 364 382
f 338 382 383
f 338 383 339
f 339 383 340
f 340 383 384
f 340 384 341
f 341 384 347
f 342 345 343
f 342 344 345
f 344 348 385
f 344 385 386
f 344 386 345
f 345 387 388
f 345 388 389
f 345 389 346
f 345 386 390
f 345 390 391
f 345 391 392
f 345 392 393
f 345 393 387
f 346 389 349
f 347 394 395
f 347 395 348
f 347 384 396
f 347 396 394
f 348 395 385
f 349 389 397
f 349 397 398
f 349 398 350
f 350 398 352
f 350 352 351
f 352 399 353
f 352 398 400
f 352 400 401
f 352 401 402
f 352 402 399
f 353 399 354
f 354 399 403
f 354 403 404
f 354 404 405
f 354 405 355
f 355 405 356
f 356 405 406
f 356 406 407
f 356 407 357
f 357 407 408
f 357 408 409
f 357 409 359
f 357 359 410
f 357 410 358
f 358 410 359
f 359 411 412
f 359 412 413
f 359 413 360
f 359 409 411
f 360 413 414
f 360 414 366
f 360 366 365
f 361 381 415
f 361 415 416
f 361 416 362
f 362 416 417
f 362 417 363
f 363 383 382
f 363 382 364
f 363 417 383
f 366 414 418
f 371 420 421
f 371 421 372
f 372 421 422
f 372 422 423
f 372 423 373
f 373 423 426
f 373 426 375
f 374 379 424
f 374 424 425
f 374 425 380
f 375 426 376
f 376 426 377
f 377 427 428
f 377 428 378
f 377 426 429
f 377 429 427
f 378 428 430
f 378 430 431
f 378 431 379
f 379 431 432
f 379 432 433
f 379 433 424
f 380 425 434
f 380 434 381
f 381 434 415
f 383 417 435
f 383 435 436
f 383 436 394
f 383 394 396
f 383 396 384
f 385 437 438
f 385 438 386
f 385 395 437
f 386 438 439
f 386 439 440
f 386 440 441
f 386 441 392
f 386 392 442
f 386 442 391
f 386 391 390
f 387 443 388
f 387 393 444
f 387 444 440
f 387 440 443
f 388 445 389
f 388 443 446
f 388 446 447
f 388 447 448
f 388 448 445
f 389 445 397
f 391 442 392
f 392 441 393
f 393 441 444
f 394 436 449
f 394 449 450
f 394 450 395
f 395 450 437
f 397 445 398
f 398 445 400
f 399 402 451
f 399 451 452
f 399 452 403
f 400 445 453
f 400 453 515
f 400 515 454
f 400 454 401
f 401 455 402
f 401 454 456
f 401 456 455
f 402 455 457
f 402 457 458
f 402 458 459
f 402 459 451
f 403 452 460
f 403 460 404
f 404 460 461
f 404 461 405
f 405 461 462
f 405 462 406
f 406 462 463
f 406 463 464
f 406 464 465
f 406 465 466
f 406 466 467
f 406 467 407
f 407 467 468
f 407 468 469
f 407 469 408
f 408 469 411
f 408 411 409
f 411 469 468
f 411 468 412
f 412 468 470
f 412 470 471
f 412 471 413
f 413 471 418
f 413 418 414
f 415 434 472
f 415 472 473
f 415 473 474
f 415 474 475
f 415 475 416
f 416 475 435
f 416 435 417
f 418 471 476
f 419 477 478
f 420 479 480
f 420 480 421
f 421 480 422
f 422 480 481
f 422 481 423
f 423 481 482
f 423 482 483
f 423 483 429
f 423 429 426
f 424 433 431
f 424 431 425
f 425 431 484
f 425 484 472
f 425 472 434
f 427 429 485
f 427 485 430
f 427 430 428
f 429 483 551
f 429 551 486
f 429 486 485
f 430 485 487
f 430 487 431
f 431 487 488
f 431 488 489
f 431 489 490
f 431 490 484
f 431 433 432
f 435 475 436
f 436 475 449
f 437 450 491
f 437 491 492
f 437 492 438
f 438 492 493
f 438 493 494
f 438 494 439
f 439 495 496
f 439 496 440
f 439 494 497
f 439 497 567
f 439 567 498
f 439 498 499
f 439 499 500
f 439 500 495
f 440 444 441
f 440 496 495
f 440 495 501
f 440 501 502
f 440 502 503
f 440 503 443
f 443 503 504
f 443 504 446
f 445 448 505
f 445 505 506
f 445 506 453
f 446 504 447
f 447 504 507
f 447 507 508
f 447 508 509
f 447 509 510
f 447 510 511
f 447 511 505
f 447 505 448
f 449 474 450
f 449 475 474
f 450 474 512
f 450 512 513
f 450 513 491
f 451 459 452
f 452 459 514
f 452 514 460
f 453 506 515
f 454 515 456
f 455 516 517
f 455 517 457
f 455 456 516
f 456 518 519
f 456 519 520
f 456 520 521
f 456 521 516
f 456 515 522
f 456 522 518
f 457 523 524
f 457 524 525
f 457 525 526
f 457 526 527
f 457 527 528
f 457 528 459
f 457 459 458
f 457 517 516
f 457 516 521
f 457 521 520
f 457 520 529
f 457 529 523
f 459 530 514
f 459 528 530
f 460 514 461
f 461 514 530
f 461 530 531
f 461 531 462
f 462 531 532
f 462 532 463
f 463 532 533
f 463 533 534
f 463 534 535
f 463 535 536
f 463 536 464
f 464 536 537
f 464 537 538
f 464 538 465
f 465 538 466
f 466 538 539
f 466 539 540
f 466 540 467
f 467 540 470
f 467 470 468
f 470 540 541
f 470 541 476
f 470 476 471
f 472 484 542
f 472 542 489
f 472 489 543
f 472 543 473
f 473 543 544
f 473 544 545
f 473 545 474
f 474 545 512
f 477 546 601
f 477 601 670
f 477 670 748
f 477 748 819
f 477 819 822
f 477 822 821
f 477 821 885
f 477 885 954
f 477 954 970
f 477 970 969
f 477 969 1030
f 477 1030 1029
f 477 1029 1080
f 477 1080 1079
f 477 1079 1125
f 477 1125 1161
f 477 1161 1187
f 477 1187 1186
f 477 1186 1185
f 477 1185 1184
f 477 1184 1183
f 477 1183 1182
f 477 1182 1181
f 477 1181 1180
f 477 1180 1192
f 477 1192 1191
f 477 1191 1190
f 477 1190 1193
f 477 1193 1188
f 477 1188 1164
f 477 1164 1131
f 477 1131 1090
f 477 1090 1036
f 477 1036 1035
f 477 1035 975
f 477 975 909
f 477 909 907
f 477 907 972
f 477 972 905
f 477 905 971
f 477 971 904
f 477 904 903
f 477 903 901
f 477 901 838
f 477 838 837
f 477 837 835
f 477 835 834
f 477 834 836
f 477 836 830
f 477 830 755
f 477 755 675
f 477 675 604
f 477 604 547
f 477 547 478
f 479 548 549
f 479 549 480
f 480 549 481
f 481 549 550
f 481 550 551
f 481 551 482
f 482 551 483
f 484 490 542
f 485 486 487
f 486 551 552
f 486 552 487
f 487 552 553
f 487 553 554
f 487 554 488
f 488 555 557
f 488 557 489
f 488 554 556
f 488 556 555
f 489 557 558
f 489 558 559
f 489 559 543
f 489 542 490
f 491 513 560
f 491 560 561
f 491 561 492
f 492 561 562
f 492 562 493
f 493 562 563
f 493 563 564
f 493 564 494
f 494 564 497
f 495 500 501
f 497 564 565
f 497 565 566
f 497 566 567
f 498 567 568
f 498 568 569
f 498 569 499
f 499 569 570
f 499 570 501
f 499 501 500
f 501 571 502
f 501 570 572
f 501 572 637
f 501 637 573
f 501 573 571
f 502 571 574
f 502 574 575
f 502 575 507
f 502 507 503
f 503 507 504
f 505 511 510
f 505 510 576
f 505 576 506
f 506 576 518
f 506 518 522
f 506 522 515
f 507 575 508
f 508 577 578
f 508 578 579
f 508 579 509
f 508 575 574
f 508 574 580
f 508 580 577
f 509 579 581
f 509 581 518
f 509 518 510
f 510 518 576
f 512 545 513
f 513 582 560
f 513 545 582
f 518 581 519
f 519 583 529
f 519 529 520
f 519 581 584
f 519 584 583
f 523 529 524
f 524 529 583
f 524 583 585
f 524 585 525
f 525 586 587
f 525 587 588
f 525 588 527
f 525 527 526
f 525 585 586
f 527 588 589
f 527 589 528
f 528 589 590
f 528 590 591
f 528 591 530
f 530 591 592
f 530 592 531
f 531 592 532
f 532 592 533
f 533 592 593
f 533 593 534
f 534 593 594
f 534 594 595
f 534 595 535
f 535 595 596
f 535 596 536
f 536 596 537
f 537 597 539
f 537 539 538
f 537 596 598
f 537 598 597
f 539 597 540
f 540 597 599
f 540 599 541
f 543 559 544
f 544 582 545
f 544 559 600
f 544 600 582
f 546 602 603
f 546 603 601
f 547 604 605
f 547 605 606
f 548 607 682
f 548 682 757
f 548 757 678
f 548 678 605
f 548 605 677
f 548 677 608
f 548 608 549
f 549 608 683
f 549 683 609
f 549 609 550
f 550 609 551
f 551 609 552
f 552 609 683
f 552 683 610
f 552 610 553
f 553 610 611
f 553 611 612
f 553 612 613
f 553 613 554
f 554 614 556
f 554 613 688
f 554 688 615
f 554 615 616
f 554 616 614
f 555 556 618
f 555 618 617
f 555 617 557
f 556 614 694
f 556 694 619
f 556 619 620
f 556 620 621
f 556 621 622
f 556 622 618
f 557 617 623
f 557 623 558
f 558 623 559
f 559 623 600
f 560 624 562
f 560 562 561
f 560 582 624
f 562 624 625
f 562 625 626
f 562 626 627
f 562 627 563
f 563 628 564
f 563 627 629
f 563 629 630
f 563 630 631
f 563 631 628
f 564 628 565
f 565 628 631
f 565 631 566
f 566 632 633
f 566 633 567
f 566 631 634
f 566 634 635
f 566 635 632
f 567 633 568
f 568 636 580
f 568 580 637
f 568 637 569
f 568 633 632
f 568 632 638
f 568 638 639
f 568 639 636
f 569 637 570
f 570 637 572
f 571 573 640
f 571 640 574
f 573 637 640
f 574 640 580
f 577 641 642
f 577 642 578
f 577 580 641
f 578 581 579
f 578 642 581
f 580 636 643
f 580 643 644
f 580 644 641
f 580 640 645
f 580 645 646
f 580 646 647
f 580 647 637
f 581 648 584
f 581 642 648
f 582 600 624
f 583 584 649
f 583 649 585
f 584 650 649
f 584 648 651
f 584 651 650
f 585 649 652
f 585 652 653
f 585 653 586
f 586 653 587
f 587 653 652
f 587 652 654
f 587 654 734
f 587 734 655
f 587 655 656
f 587 656 589
f 587 589 588
f 589 656 655
f 589 655 590
f 590 657 591
f 590 655 657
f 591 657 658
f 591 658 659
f 591 659 660
f 591 660 592
f 592 660 593
f 593 660 594
f 594 660 661
f 594 661 662
f 594 662 663
f 594 663 664
f 594 664 595
f 595 664 665
f 595 665 596
f 596 665 666
f 596 666 598
f 597 598 667
f 597 667 599
f 598 666 668
f 598 668 667
f 600 623 669
f 600 669 624
f 601 603 670
f 602 671 603
f 603 672 673
f 603 673 748
f 603 748 670
f 603 671 674
f 603 674 672
f 604 675 676
f 604 676 605
f 605 678 606
f 605 676 679
f 605 679 680
f 605 680 758
f 605 758 684
f 605 684 677
f 606 678 681
f 607 681 682
f 608 677 611
f 608 611 683
f 610 683 611
f 611 677 684
f 611 684 759
f 611 759 685
f 611 685 760
f 611 760 686
f 611 686 612
f 612 686 687
f 612 687 689
f 612 689 613
f 613 689 690
f 613 690 691
f 613 691 761
f 613 761 688
f 614 616 692
f 614 692 693
f 614 693 694
f 615 688 695
f 615 695 696
f 615 696 697
f 615 697 698
f 615 698 616
f 616 698 692
f 617 699 623
f 617 618 622
f 617 622 700
f 617 700 699
f 619 694 701
f 619 701 620
f 620 622 621
f 620 701 702
f 620 702 703
f 620 703 704
f 620 704 622
f 622 704 700
f 623 699 669
f 624 669 705
f 624 705 625
f 625 705 626
f 626 705 706
f 626 706 707
f 626 707 629
f 626 629 627
f 629 707 708
f 629 708 709
f 629 709 630
f 630 709 710
f 630 710 711
f 630 711 634
f 630 634 631
f 632 635 638
f 634 711 712
f 634 712 635
f 635 712 713
f 635 713 638
f 636 714 715
f 636 715 643
f 636 639 716
f 636 716 714
f 637 647 640
f 638 713 717
f 638 717 639
f 639 717 718
f 639 718 719
f 639 719 720
f 639 720 716
f 640 647 645
f 641 644 642
f 642 644 721
f 642 721 722
f 642 722 723
f 642 723 724
f 642 724 648
f 643 725 721
f 643 721 644
f 643 715 726
f 643 726 727
f 643 727 725
f 645 647 646
f 648 724 651
f 649 650 652
f 650 728 652
f 650 651 729
f 650 729 728
f 651 724 723
f 651 723 730
f 651 730 731
f 651 731 732
f 651 732 733
f 651 733 729
f 652 728 654
f 654 728 801
f 654 801 734
f 655 734 735
f 655 735 736
f 655 736 737
f 655 737 738
f 655 738 739
f 655 739 658
f 655 658 657
f 658 740 659
f 658 739 740
f 659 661 660
f 659 740 739
f 659 739 741
f 659 741 662
f 659 662 661
f 662 741 738
f 662 738 742
f 662 742 663
f 663 743 664
f 663 742 743
f 664 743 744
f 669 699 745
f 669 745 746
f 669 746 747
f 669 747 705
f 672 749 750
f 672 750 751
f 672 751 673
f 672 674 749
f 673 751 748
f 674 752 753
f 674 753 754
f 674 754 749
f 675 755 756
f 675 756 676
f 676 756 679
f 678 757 681
f 679 756 680
f 680 756 758
f 681 757 682
f 684 758 832
f 684 832 759
f 685 759 833
f 685 833 760
f 686 760 689
f 686 689 687
f 688 761 695
f 689 760 690
f 690 762 761
f 690 761 691
f 690 760 833
f 690 833 762
f 692 698 763
f 692 763 764
f 692 764 693
f 693 764 765
f 693 765 766
f 693 766 767
f 693 767 701
f 693 701 694
f 695 761 696
f 696 761 768
f 696 768 841
f 696 841 769
f 696 769 698
f 696 698 697
f 698 769 770
f 698 770 771
f 698 771 763
f 699 700 772
f 699 772 745
f 700 704 772
f 701 767 702
f 702 767 766
f 702 766 773
f 702 773 846
f 702 846 774
f 702 774 704
f 702 704 703
f 704 775 772
f 704 774 776
f 704 776 777
f 704 777 775
f 705 747 706
f 706 747 778
f 706 778 707
f 707 778 779
f 707 779 780
f 707 780 708
f 708 780 781
f 708 781 782
f 708 782 709
f 709 782 783
f 709 783 710
f 710 783 784
f 710 784 711
f 711 784 785
f 711 785 786
f 711 786 712
f 712 787 713
f 712 786 788
f 712 788 789
f 712 789 787
f 713 718 717
f 713 787 718
f 714 727 726
f 714 726 715
f 714 716 727
f 716 720 790
f 716 790 727
f 718 791 719
f 718 787 792
f 718 792 791
f 719 793 720
f 719 791 793
f 720 793 794
f 720 794 790
f 721 725 730
f 721 730 722
f 722 730 723
f 725 727 730
f 727 790 795
f 727 795 796
f 727 796 797
f 727 797 798
f 727 798 799
f 727 799 730
f 728 800 801
f 728 729 802
f 728 802 803
f 728 803 800
f 729 733 808
f 729 808 804
f 729 804 802
f 730 799 805
f 730 805 731
f 731 805 732
f 732 805 799
f 732 799 806
f 732 806 807
f 732 807 804
f 732 804 808
f 732 808 733
f 734 801 735
f 735 809 736
f 735 801 800
f 735 800 810
f 735 810 875
f 735 875 811
f 735 811 812
f 735 812 809
f 736 809 742
f 736 742 737
f 737 742 738
f 738 741 739
f 742 809 813
f 742 813 814
f 742 814 815
f 742 815 816
f 742 816 744
f 742 744 817
f 742 817 743
f 743 817 744
f 744 816 815
f 745 772 775
f 745 775 746
f 746 818 747
f 746 775 818
f 747 818 778
f 748 751 819
f 749 754 820
f 749 820 750
f 750 820 821
f 750 821 822
f 750 822 819
f 750 819 751
f 752 823 753
f 753 823 824
f 753 824 825
f 753 825 826
f 753 826 827
f 753 827 754
f 754 827 828
f 754 828 829
f 754 829 820
f 755 830 831
f 755 831 756
f 756 831 758
f 758 831 832
f 759 832 900
f 759 900 833
f 761 762 836
f 761 836 834
f 761 834 835
f 761 835 768
f 762 833 900
f 762 900 836
f 763 771 764
f 764 771 773
f 764 773 765
f 765 773 766
f 768 835 837
f 768 837 838
f 768 838 839
f 768 839 840
f 768 840 841
f 769 841 770
f 770 841 840
f 770 840 773
f 770 773 771
f 773 840 842
f 773 842 843
f 773 843 844
f 773 844 845
f 773 845 846
f 774 846 849
f 774 849 776
f 775 777 847
f 775 847 848
f 775 848 818
f 776 849 850
f 776 850 851
f 776 851 777
f 777 851 852
f 777 852 853
f 777 853 847
f 778 818 779
f 779 818 848
f 779 848 854
f 779 854 780
f 780 854 855
f 780 855 781
f 781 855 856
f 781 856 857
f 781 857 782
f 782 784 783
f 782 857 784
f 784 857 858
f 784 858 785
f 785 858 859
f 785 859 786
f 786 859 788
f 787 789 792
f 788 859 860
f 788 860 861
f 788 861 789
f 789 862 792
f 789 861 862
f 790 794 795
f 791 792 863
f 791 863 793
f 792 864 863
f 792 862 864
f 793 865 796
f 793 796 794
f 793 863 865
f 794 796 795
f 796 866 867
f 796 867 868
f 796 868 798
f 796 798 797
f 796 865 866
f 798 868 806
f 798 806 799
f 800 803 869
f 800 869 870
f 800 870 810
f 802 804 807
f 802 807 869
f 802 869 803
f 806 868 807
f 807 868 871
f 807 871 869
f 809 872 813
f 809 812 873
f 809 873 874
f 809 874 872
f 810 870 876
f 810 876 877
f 810 877 875
f 811 875 878
f 811 878 879
f 811 879 812
f 812 879 880
f 812 880 881
f 812 881 882
f 812 882 883
f 812 883 874
f 812 874 873
f 813 872 814
f 814 872 884
f 814 884 815
f 820 829 885
f 820 885 821
f 823 886 887
f 823 887 888
f 823 888 889
f 823 889 825
f 823 825 824
f 825 889 890
f 825 890 826
f 826 891 892
f 826 892 893
f 826 893 894
f 826 894 828
f 826 828 827
f 826 890 895
f 826 895 896
f 826 896 891
f 828 894 897
f 828 897 898
f 828 898 899
f 828 899 829
f 829 899 885
f 830 836 900
f 830 900 832
f 830 832 831
f 838 901 839
f 839 902 843
f 839 843 842
f 839 842 840
f 839 901 903
f 839 903 904
f 839 904 902
f 843 902 905
f 843 905 906
f 843 906 907
f 843 907 844
f 844 908 845
f 844 907 909
f 844 909 910
f 844 910 908
f 845 908 911
f 845 911 912
f 845 912 913
f 845 913 914
f 845 914 851
f 845 851 850
f 845 850 849
f 845 849 846
f 847 915 848
f 847 853 915
f 848 915 855
f 848 855 854
f 851 914 916
f 851 916 917
f 851 917 918
f 851 918 852
f 852 918 919
f 852 919 853
f 853 919 920
f 853 920 915
f 855 915 856
f 856 920 921
f 856 921 922
f 856 922 923
f 856 923 858
f 856 858 857
f 856 915 920
f 858 923 924
f 858 924 859
f 859 925 860
f 859 924 925
f 860 925 926
f 860 926 861
f 861 926 927
f 861 927 928
f 861 928 929
f 861 929 862
f 862 930 864
f 862 929 931
f 862 931 930
f 863 864 932
f 863 932 865
f 864 933 934
f 864 934 932
f 864 930 933
f 865 935 936
f 865 936 866
f 865 932 935
f 866 936 937
f 866 937 938
f 866 938 939
f 866 939 940
f 866 940 871
f 866 871 867
f 867 871 868
f 869 871 876
f 869 876 870
f 871 940 939
f 871 939 941
f 871 941 876
f 872 874 942
f 872 942 943
f 872 943 884
f 874 883 944
f 874 944 942
f 875 877 945
f 875 945 878
f 876 946 879
f 876 879 878
f 876 878 945
f 876 945 877
f 876 941 946
f 879 946 947
f 879 947 948
f 879 948 949
f 879 949 950
f 879 950 951
f 879 951 952
f 879 952 953
f 885 899 898
f 885 898 897
f 885 897 954
f 886 955 887
f 887 955 956
f 887 956 957
f 887 957 958
f 887 958 888
f 888 958 959
f 888 959 889
f 889 959 890
f 890 959 960
f 890 960 895
f 891 961 962
f 891 962 963
f 891 963 964
f 891 964 965
f 891 965 892
f 891 896 966
f 891 966 961
f 892 965 964
f 892 964 893
f 893 964 967
f 893 967 897
f 893 897 894
f 895 960 968
f 895 968 896
f 896 968 966
f 897 967 1030
f 897 1030 969
f 897 969 970
f 897 970 954
f 902 904 971
f 902 971 905
f 905 972 906
f 906 972 907
f 908 973 911
f 908 910 974
f 908 974 973
f 909 975 910
f 910 975 974
f 911 973 912
f 912 973 913
f 913 976 914
f 913 973 976
f 914 976 977
f 914 977 978
f 914 978 916
f 916 978 977
f 916 977 979
f 916 979 917
f 917 979 980
f 917 980 918
f 918 980 919
f 919 980 979
f 919 979 921
f 919 921 920
f 921 979 981
f 921 981 982
f 921 982 924
f 921 924 922
f 922 924 923
f 924 982 925
f 925 983 926
f 925 982 984
f 925 984 983
f 926 983 985
f 926 985 986
f 926 986 927
f 927 987 929
f 927 929 928
f 927 986 988
f 927 988 987
f 929 989 990
f 929 990 931
f 929 987 991
f 929 991 992
f 929 992 989
f 930 993 994
f 930 994 933
f 930 931 990
f 930 990 993
f 932 934 995
f 932 995 935
f 933 994 996
f 933 996 934
f 934 997 998
f 934 998 995
f 934 996 997
f 935 995 999
f 935 999 936
f 936 999 937
f 937 1000 1001
f 937 1001 938
f 937 999 1000
f 938 1001 1002
f 938 1002 1003
f 938 1003 939
f 939 1004 1005
f 939 1005 941
f 939 1003 1004
f 941 1005 947
f 941 947 946
f 947 1005 1006
f 947 1006 949
f 947 949 948
f 949 951 950
f 949 1006 1007
f 949 1007 951
f 951 1007 1008
f 951 1008 1009
f 951 1009 952
f 952 1010 953
f 952 1009 1010
f 955 1011 1012
f 955 1012 956
f 956 1012 1013
f 956 1013 957
f 957 1013 1014
f 957 1014 958
f 958 960 959
f 958 1014 968
f 958 968 960
f 961 1015 1016
f 961 1016 1017
f 961 1017 962
f 961 966 1018
f 961 1018 1019
f 961 1019 1020
f 961 1020 1015
f 962 1017 963
f 963 1017 1021
f 963 1021 1022
f 963 1022 1023
f 963 1023 1024
f 963 1024 964
f 964 1024 1025
f 964 1025 1028
f 964 1028 967
f 966 968 1026
f 966 1026 1027
f 966 1027 1019
f 966 1019 1018
f 967 1028 1029
f 967 1029 1030
f 968 1014 1026
f 973 1031 1032
f 973 1032 1033
f 973 1033 977
f 973 977 976
f 973 974 1034
f 973 1034 1031
f 974 975 1035
f 974 1035 1036
f 974 1036 1034
f 977 1033 979
f 979 1033 1037
f 979 1037 981
f 981 1037 1038
f 981 1038 1039
f 981 1039 984
f 981 984 982
f 983 984 1039
f 983 1039 1038
f 983 1038 985
f 985 1040 986
f 985 1038 1032
f 985 1032 1040
f 986 1040 1041
f 986 1041 988
f 987 988 1042
f 987 1042 991
f 988 1041 1043
f 988 1043 1042
f 989 992 990
f 990 992 991
f 990 991 1044
f 990 1044 993
f 991 1042 1045
f 991 1045 1046
f 991 1046 1044
f 993 1047 1048
f 993 1048 994
f 993 1044 1047
f 994 1048 1049
f 994 1049 1050
f 994 1050 996
f 995 998 1051
f 995 1051 1052
f 995 1052 999
f 996 1050 1053
f 996 1053 997
f 997 1053 1054
f 997 1054 1051
f 997 1051 998
f 999 1052 1055
f 999 1055 1000
f 1000 1055 1056
f 1000 1056 1001
f 1001 1056 1007
f 1001 1007 1002
f 1002 1007 1004
f 1002 1004 1003
f 1004 1007 1006
f 1004 1006 1005
f 1007 1056 1008
f 1008 1057 1058
f 1008 1058 1009
f 1008 1056 1059
f 1008 1059 1057
f 1011 1060 1012
f 1012 1060 1013
f 1013 1060 1061
f 1013 1061 1062
f 1013 1062 1063
f 1013 1063 1014
f 1014 1063 1064
f 1014 1064 1065
f 1014 1065 1066
f 1014 1066 1067
f 1014 1067 1026
f 1015 1046 1016
f 1015 1020 1047
f 1015 1047 1044
f 1015 1044 1068
f 1015 1068 1046
f 1016 1046 1069
f 1016 1069 1070
f 1016 1070 1071
f 1016 1071 1017
f 1017 1071 1072
f 1017 1072 1022
f 1017 1022 1021
f 1019 1027 1020
f 1020 1027 1073
f 1020 1073 1047
f 1022 1072 1074
f 1022 1074 1024
f 1022 1024 1023
f 1024 1074 1025
f 1025 1074 1075
f 1025 1075 1076
f 1025 1076 1028
f 1026 1067 1066
f 1026 1066 1077
f 1026 1077 1078
f 1026 1078 1027
f 1027 1078 1073
f 1028 1076 1079
f 1028 1079 1080
f 1028 1080 1029
f 1031 1034 1081
f 1031 1081 1082
f 1031 1082 1083
f 1031 1083 1084
f 1031 1084 1032
f 1032 1084 1040
f 1032 1038 1033
f 1033 1038 1037
f 1034 1085 1086
f 1034 1086 1087
f 1034 1087 1088
f 1034 1088 1089
f 1034 1089 1081
f 1034 1036 1090
f 1034 1090 1085
f 1040 1084 1041
f 1041 1084 1082
f 1041 1082 1043
f 1042 1043 1091
f 1042 1091 1045
f 1043 1082 1092
f 1043 1092 1091
f 1044 1046 1068
f 1045 1091 1093
f 1045 1093 1069
f 1045 1069 1046
f 1047 1073 1094
f 1047 1094 1048
f 1048 1094 1095
f 1048 1095 1049
f 1049 1095 1096
f 1049 1096 1097
f 1049 1097 1050
f 1050 1097 1053
f 1051 1054 1098
f 1051 1098 1059
f 1051 1059 1055
f 1051 1055 1052
f 1053 1097 1099
f 1053 1099 1054
f 1054 1099 1100
f 1054 1100 1101
f 1054 1101 1102
f 1054 1102 1098
f 1055 1059 1056
f 1057 1103 1104
f 1057 1104 1058
f 1057 1059 1098
f 1057 1098 1103
f 1058 1104 1105
f 1060 1106 1061
f 1061 1106 1062
f 1062 1107 1108
f 1062 1108 1063
f 1063 1108 1064
f 1064 1108 1065
f 1065 1108 1109
f 1065 1109 1110
f 1065 1110 1066
f 1066 1111 1112
f 1066 1112 1077
f 1066 1110 1113
f 1066 1113 1114
f 1066 1114 1111
f 1069 1093 1115
f 1069 1115 1116
f 1069 1116 1117
f 1069 1117 1118
f 1069 1118 1119
f 1069 1119 1070
f 1070 1119 1071
f 1071 1119 1120
f 1071 1120 1121
f 1071 1121 1122
f 1071 1122 1072
f 1072 1122 1074
f 1073 1078 1094
f 1074 1122 1075
f 1075 1122 1123
f 1075 1123 1076
f 1076 1123 1120
f 1076 1120 1124
f 1076 1124 1125
f 1076 1125 1079
f 1077 1112 1126
f 1077 1126 1127
f 1077 1127 1128
f 1077 1128 1078
f 1078 1128 1094
f 1081 1089 1092
f 1081 1092 1082
f 1082 1084 1083
f 1085 1090 1129
f 1085 1129 1086
f 1086 1129 1130
f 1086 1130 1087
f 1087 1130 1088
f 1088 1130 1089
f 1089 1130 1092
f 1090 1131 1132
f 1090 1132 1129
f 1091 1092 1133
f 1091 1133 1093
f 1092 1130 1134
f 1092 1134 1135
f 1092 1135 1133
f 1093 1133 1135
f 1093 1135 1115
f 1094 1128 1095
f 1095 1128 1136
f 1095 1136 1096
f 1096 1136 1137
f 1096 1137 1138
f 1096 1138 1139
f 1096 1139 1140
f 1096 1140 1097
f 1097 1140 1099
f 1098 1102 1141
f 1098 1141 1142
f 1098 1142 1103
f 1099 1139 1100
f 1099 1140 1139
f 1100 1139 1143
f 1100 1143 1144
f 1100 1144 1145
f 1100 1145 1146
f 1100 1146 1101
f 1101 1146 1141
f 1101 1141 1102
f 1103 1142 1147
f 1103 1147 1104
f 1104 1147 1148
f 1104 1148 1105
f 1105 1148 1149
f 1107 1109 1108
f 1111 1114 1150
f 1111 1150 1151
f 1111 1151 1112
f 1112 1151 1152
f 1112 1152 1126
f 1113 1153 1114
f 1114 1153 1150
f 1115 1135 1154
f 1115 1154 1155
f 1115 1155 1116
f 1116 1155 1156
f 1116 1156 1157
f 1116 1157 1117
f 1117 1157 1158
f 1117 1158 1118
f 1118 1120 1119
f 1118 1158 1159
f 1118 1159 1120
f 1120 1159 1160
f 1120 1160 1124
f 1120 1123 1122
f 1120 1122 1121
f 1124 1160 1161
f 1124 1161 1125
f 1126 1136 1127
f 1126 1152 1136
f 1127 1136 1128
f 1129 1132 1162
f 1129 1162 1163
f 1129 1163 1130
f 1130 1163 1134
f 1131 1164 1132
f 1132 1165 1162
f 1132 1164 1165
f 1134 1163 1154
f 1134 1154 1135
f 1136 1152 1138
f 1136 1138 1137
f 1138 1152 1166
f 1138 1166 1167
f 1138 1167 1139
f 1139 1167 1168
f 1139 1168 1143
f 1141 1146 1169
f 1141 1169 1142
f 1142 1169 1170
f 1142 1170 1148
f 1142 1148 1147
f 1143 1171 1144
f 1143 1168 1172
f 1143 1172 1173
f 1144 1171 1145
f 1145 1169 1146
f 1145 1171 1169
f 1148 1170 1149
f 1149 1170 1171
f 1150 1153 1174
f 1150 1174 1166
f 1150 1166 1152
f 1150 1152 1151
f 1153 1173 1174
f 1154 1163 1175
f 1154 1175 1155
f 1155 1175 1176
f 1155 1176 1177
f 1155 1177 1178
f 1155 1178 1179
f 1155 1179 1156
f 1156 1179 1180
f 1156 1180 1181
f 1156 1181 1182
f 1156 1182 1183
f 1156 1183 1157
f 1157 1183 1184
f 1157 1184 1158
f 1158 1184 1185
f 1158 1185 1159
f 1159 1185 1186
f 1159 1186 1187
f 1159 1187 1161
f 1159 1161 1160
f 1162 1176 1175
f 1162 1175 1163
f 1162 1165 1177
f 1162 1177 1176
f 1164 1188 1165
f 1165 1188 1189
f 1165 1189 1178
f 1165 1178 1177
f 1166 1174 1173
f 1166 1173 1168
f 1166 1168 1167
f 1168 1173 1172
f 1169 1171 1170
f 1178 1189 1190
f 1178 1190 1191
f 1178 1191 1192
f 1178 1192 1179
f 1179 1192 1180
f 1188 1193 1189
f 1189 1193 1190

