# https://github.com/mikedh/trimesh
v 0.03164438 -0.02559197 0.01467966
v 0.03154525 -0.02585486 0.01467966
v 0.03067478 -0.02713259 -0.00637659
v 0.03085446 -0.02658185 -0.00637659
v 0.03091021 -0.02633952 -0.00637659
v 0.03099385 -0.02585192 -0.00637659
v 0.03104961 -0.02552294 -0.00637659
v 0.03114874 -0.02481065 -0.00637659
v 0.02424694 -0.02291020 0.05224258
v 0.02424694 -0.02294839 0.05296246
v 0.02424694 -0.02296454 0.05319282
v 0.02424694 -0.02299979 0.05345197
v 0.02424694 -0.02305707 0.05381190
v 0.02424694 -0.02307763 0.05388389
v 0.02424694 -0.02335374 0.05443819
v 0.02424694 -0.02350060 0.05465415
v 0.02424694 -0.02392064 0.05514367
v 0.02424694 -0.02417178 0.05524445
v 0.02424694 -0.02475777 0.05536682
v 0.02424694 -0.02525271 0.05546761
v 0.02424694 -0.02642617 0.05526605
v 0.02424694 -0.02673606 0.05515806
v 0.02424694 -0.02703860 0.05499250
v 0.02424694 -0.02728827 0.05479093
v 0.02424694 -0.02778908 0.05422223
v 0.02424694 -0.02804169 0.05379031
v 0.02424694 -0.02826933 0.05334399
v 0.03103722 -0.02677571 0.01467966
v 0.03104652 -0.02681683 0.01375103
v 0.03076152 -0.02744688 0.01154822
v 0.03104652 -0.02689614 0.01154822
v 0.03077081 -0.02742485 0.00825121
v 0.02424694 -0.02845732 0.05280408
v 0.02424694 -0.02851019 0.05263851
v 0.03038050 -0.02780083 -0.00637659
v 0.02234182 -0.03277077 -0.01803852
v 0.02234182 -0.02187774 -0.01803852
v 0.00011232 -0.02553469 -0.00054563
v 0.00011232 -0.02555085 -0.00009931
v 0.00011232 -0.02557581 0.00055577
v 0.00000081 -0.03067940 0.04014874
v 0.00011232 -0.02566247 0.00164998
v 0.00011232 -0.02577555 0.00275138
v 0.00011232 -0.02590186 0.00385279
v 0.00011232 -0.02594885 0.00424872
v 0.00000700 -0.02663178 0.00956857
v 0.00000700 -0.02674487 0.01044682
v 0.00000081 -0.02738079 0.01534194
v 0.00000081 -0.02775383 0.01815664
v 0.00000081 -0.02994654 0.03464891
v 0.00000081 -0.03081452 0.04112776
v 0.00000081 -0.03113909 0.04344575
v 0.00000081 -0.03121693 0.04400005
v 0.00000081 -0.03129330 0.04453995
v 0.00000081 -0.03145338 0.04564136
v 0.00000081 -0.03187929 0.04852085
v 0.00000081 -0.03211574 0.05004698
v 0.00000081 -0.03229492 0.05114118
v 0.00000081 -0.03239773 0.05170268
v 0.00000081 -0.03250200 0.05224258
v 0.00000081 -0.03276489 0.05334399
v 0.00000081 -0.03295582 0.05398468
v 0.00000081 -0.03329067 0.05453178
v 0.00000081 -0.03384142 0.05520126
v 0.00000081 -0.03424824 0.05534523
v 0.00000081 -0.03464918 0.05548201
v 0.01264894 -0.03464918 0.05550361
v 0.01600381 -0.03349335 0.05548201
v 0.01600381 -0.03354915 0.05547481
v 0.02148684 -0.02919312 0.05526605
v 0.01895597 -0.03215687 0.05512207
v 0.02334240 -0.02775089 0.05512207
v 0.02188335 -0.02958231 0.05489171
v 0.02297996 -0.02848376 0.05488451
v 0.02407656 -0.02737933 0.05487731
v 0.02220862 -0.02991276 0.05415744
v 0.02330522 -0.02881127 0.05415024
v 0.02241307 -0.03011543 0.05334399
v 0.03098456 -0.02686383 0.01467966
v 0.03073983 -0.02741457 0.01264962
v 0.02424694 -0.02868202 0.05196183
v 0.03044245 -0.02805197 0.00825121
v 0.03077081 -0.02745570 0.01044682
v 0.02994062 -0.02890085 0.00714980
v 0.03077391 -0.02745129 0.00956857
v 0.03077391 -0.02744982 0.00935261
v 0.03044865 -0.02805197 0.00714980
v 0.02416950 -0.02857481 0.05268891
v 0.02206922 -0.03087179 0.05196903
v 0.02316582 -0.02977030 0.05196183
v 0.03024110 -0.02805050 -0.00637659
v 0.03025039 -0.02805050 -0.00604545
v 0.02171607 -0.03289707 -0.01803852
v 0.02994062 -0.02854103 -0.00637659
v 0.02980431 -0.02873636 -0.00637659
v 0.02928079 -0.02928564 -0.00637659
v 0.02873249 -0.02980555 -0.00637659
v 0.02853423 -0.02993185 -0.00637659
v 0.02804789 -0.03022118 -0.00637659
v 0.02777528 -0.03036070 -0.00637659
v 0.02744382 -0.03077780 0.00935261
v 0.02304191 -0.03298078 0.02475067
v 0.02083941 -0.03407640 0.03464891
v 0.01851919 -0.03513530 0.04234434
v 0.01798328 -0.03537323 0.04453995
v 0.01704776 -0.03573598 0.04674276
v 0.01594805 -0.03608112 0.04894557
v 0.00007515 -0.02638798 -0.01803852
v 0.00006896 -0.02604725 -0.01216436
v 0.00006896 -0.02585633 -0.00886015
v 0.00006896 -0.02575940 -0.00714686
v 0.00006896 -0.02571974 -0.00637659
v 0.00007205 -0.02570212 -0.00604545
v 0.00007205 -0.02565072 -0.00494405
v 0.00007205 -0.02560666 -0.00384264
v 0.00007205 -0.02556994 -0.00274124
v 0.00007205 -0.02555525 -0.00225893
v 0.00007205 -0.02553763 -0.00164703
v 0.00007205 -0.02553616 -0.00116472
v 0.00007205 -0.02553616 -0.00099195
v 0.00000700 -0.03151947 0.00956857
v 0.00000081 -0.02729561 0.01467966
v 0.00000081 -0.02731764 0.01485243
v 0.00000081 -0.03519552 0.05538122
v 0.00000081 -0.03573452 0.05528045
v 0.00825323 -0.03569780 0.05526605
v 0.00935293 -0.03569192 0.05525885
v 0.01155234 -0.03564786 0.05525165
v 0.01264894 -0.03559646 0.05524445
v 0.01375174 -0.03464918 0.05548201
v 0.01484835 -0.03464918 0.05541002
v 0.01600381 -0.03456547 0.05520846
v 0.01706944 -0.03357853 0.05525165
v 0.01819083 -0.03249319 0.05526605
v 0.01929363 -0.03139170 0.05526605
v 0.01785317 -0.03323339 0.05511487
v 0.01858734 -0.03288973 0.05488451
v 0.02078675 -0.03068527 0.05489171
v 0.02110582 -0.03100397 0.05415024
v 0.01964987 -0.03285154 0.05334399
v 0.02075577 -0.03175886 0.05334399
v 0.01977378 -0.03297638 0.05269610
v 0.02087348 -0.03187342 0.05270330
v 0.03065620 -0.02732645 0.01467966
v 0.03069647 -0.02736758 0.01375103
v 0.02424694 -0.02869084 0.05192584
v 0.02424694 -0.02886267 0.05114118
v 0.02988176 -0.02880539 0.00935261
v 0.02991583 -0.02885826 0.00825121
v 0.02994062 -0.02891995 0.00605560
v 0.02942949 -0.02944720 0.00714980
v 0.02944807 -0.02946629 0.00605560
v 0.02992203 -0.02891701 0.00424872
v 0.02096952 -0.03197328 0.05196903
v 0.02106864 -0.03206581 0.05114118
v 0.02216525 -0.03096726 0.05114118
v 0.02983839 -0.02878189 -0.00494405
v 0.02985078 -0.02881127 -0.00384264
v 0.02104076 -0.03302631 -0.01803852
v 0.02981361 -0.02874958 -0.00604545
v 0.02929319 -0.02929886 -0.00604545
v 0.02874178 -0.02981583 -0.00604545
v 0.02804789 -0.03022852 -0.00604545
v 0.02803859 -0.03042973 0.00825121
v 0.02744382 -0.03077193 0.01044682
v 0.02305121 -0.03297785 0.02694628
v 0.02305121 -0.03298078 0.02585208
v 0.02084560 -0.03407347 0.03574312
v 0.01854397 -0.03513237 0.04344575
v 0.01795850 -0.03538204 0.04564136
v 0.01704776 -0.03574773 0.04784416
v 0.01594805 -0.03610462 0.05004698
v 0.01524486 -0.03627792 0.05114118
v 0.00007515 -0.03391338 -0.01803852
v 0.00000081 -0.03289854 0.01467966
v 0.00000081 -0.03601062 0.05512927
v 0.00165501 -0.03627792 0.05497090
v 0.00825323 -0.03624708 0.05493490
v 0.01045263 -0.03568311 0.05525165
v 0.01045263 -0.03623239 0.05490611
v 0.01375174 -0.03552597 0.05521566
v 0.01155234 -0.03619861 0.05485572
v 0.01484835 -0.03538057 0.05512207
v 0.01551127 -0.03525426 0.05504289
v 0.01590159 -0.03465359 0.05520126
v 0.01600381 -0.03461100 0.05519406
v 0.01671630 -0.03429230 0.05510047
v 0.01745046 -0.03396625 0.05485572
v 0.01776953 -0.03425852 0.05412145
v 0.01888782 -0.03318052 0.05415024
v 0.01909847 -0.03338026 0.05334399
v 0.01852229 -0.03393101 0.05334399
v 0.01865549 -0.03405731 0.05258812
v 0.01986362 -0.03305715 0.05196183
v 0.03009550 -0.02798735 0.01467966
v 0.02983219 -0.02874958 0.01044682
v 0.02987246 -0.02879511 0.00956857
v 0.02424694 -0.02891554 0.05088203
v 0.02424694 -0.02908150 0.05003978
v 0.02424694 -0.02928271 0.04893837
v 0.02424694 -0.02946482 0.04784416
v 0.02380706 -0.02930767 0.05114118
v 0.02933655 -0.02934439 0.00956857
v 0.02939231 -0.02940754 0.00825121
v 0.02944187 -0.02946629 0.00495419
v 0.02943878 -0.02946335 0.00424872
v 0.02943568 -0.02946188 0.00385279
v 0.02884401 -0.02990689 0.00825121
v 0.02887499 -0.02992157 0.00714980
v 0.02889667 -0.02991423 0.00605560
v 0.02049866 -0.03261656 0.05114118
v 0.02117087 -0.03216568 0.05003978
v 0.02172227 -0.03162081 0.05003978
v 0.02227057 -0.03107153 0.05003978
v 0.02931797 -0.02933117 -0.00494405
v 0.02934894 -0.02938111 -0.00274124
v 0.02933036 -0.02936054 -0.00384264
v 0.02941709 -0.02945307 0.00275138
v 0.02044909 -0.03312178 -0.01803852
v 0.01475851 -0.03639688 0.05224258
v 0.02876657 -0.02982464 -0.00494405
v 0.02743453 -0.03076311 0.01154822
v 0.02081773 -0.03405437 0.03683732
v 0.01853158 -0.03511327 0.04453995
v 0.02303882 -0.03296463 0.02804769
v 0.01792442 -0.03537616 0.04674276
v 0.01704776 -0.03573598 0.04893837
v 0.01594805 -0.03609727 0.05114118
v 0.01530682 -0.03627792 0.05224258
v 0.00048715 -0.03392366 -0.01803852
v 0.00000081 -0.03681104 0.04894557
v 0.00000081 -0.03666124 0.04619566
v 0.00000081 -0.03629848 0.03959443
v 0.00000081 -0.03619274 0.03794592
v 0.00000081 -0.03611490 0.03684452
v 0.00000081 -0.03602384 0.03574312
v 0.00000081 -0.03597097 0.03518881
v 0.00000081 -0.03591810 0.03464891
v 0.00000081 -0.03586229 0.03409461
v 0.00000081 -0.03540554 0.02969619
v 0.00000081 -0.03534826 0.02914909
v 0.00000081 -0.03524398 0.02818446
v 0.00000081 -0.03518083 0.02763736
v 0.00000081 -0.03508831 0.02694628
v 0.00000081 -0.03492969 0.02584488
v 0.00000081 -0.03484745 0.02529777
v 0.00000081 -0.03467708 0.02420357
v 0.00000081 -0.03450378 0.02309497
v 0.00000081 -0.03432901 0.02200076
v 0.00000081 -0.03418215 0.02108652
v 0.00000081 -0.03407934 0.02045304
v 0.00000081 -0.03403528 0.02018668
v 0.00000081 -0.03387667 0.01925085
v 0.00000081 -0.03366077 0.01815664
v 0.00000081 -0.03309828 0.01552191
v 0.00000081 -0.03303512 0.01524116
v 0.00000081 -0.03628233 0.05497090
v 0.00055530 -0.03652612 0.05442380
v 0.00715352 -0.03650997 0.05438780
v 0.00935293 -0.03650116 0.05438060
v 0.00935293 -0.03624267 0.05492051
v 0.01045263 -0.03648941 0.05435901
v 0.01155234 -0.03646297 0.05430862
v 0.01264894 -0.03614574 0.05476934
v 0.01375174 -0.03607524 0.05463976
v 0.01264894 -0.03643507 0.05422223
v 0.01479878 -0.03595481 0.05437340
v 0.01590159 -0.03544960 0.05442380
v 0.01600381 -0.03532770 0.05453178
v 0.01624234 -0.03502515 0.05477653
v 0.01703227 -0.03464184 0.05444539
v 0.01661407 -0.03527629 0.05404946
v 0.01733275 -0.03498697 0.05334399
v 0.01797089 -0.03443622 0.05334399
v 0.01751552 -0.03513530 0.05224258
v 0.01758986 -0.03519111 0.05165949
v 0.01807931 -0.03483129 0.05123476
v 0.01872984 -0.03412928 0.05185385
v 0.01935558 -0.03368721 0.05114118
v 0.01994726 -0.03313940 0.05114118
v 0.02962464 -0.02852341 0.01467966
v 0.02975165 -0.02865999 0.01214571
v 0.02424694 -0.02970715 0.04632523
v 0.02924981 -0.02924158 0.01154822
v 0.02196389 -0.03186607 0.04708830
v 0.02202275 -0.03192482 0.04635403
v 0.02864575 -0.02974240 0.01264962
v 0.02869842 -0.02979380 0.01154822
v 0.02878825 -0.02986870 0.00956857
v 0.02736638 -0.03071171 0.01375103
v 0.02740975 -0.03074255 0.01264962
v 0.02059778 -0.03271496 0.05003978
v 0.02078675 -0.03289266 0.04784416
v 0.02135054 -0.03234339 0.04784416
v 0.01935868 -0.03328480 -0.01803852
v 0.01460053 -0.03636751 0.05334399
v 0.01375174 -0.03650850 0.05334399
v 0.01375174 -0.03654375 0.05224258
v 0.01704776 -0.03362993 -0.01803852
v 0.02077745 -0.03402059 0.03794592
v 0.02013622 -0.03432608 0.04014154
v 0.01850680 -0.03508977 0.04564136
v 0.02300474 -0.03294113 0.02914909
v 0.02297066 -0.03291323 0.03025050
v 0.02234182 -0.03323192 0.03245330
v 0.02293349 -0.03287945 0.03135190
v 0.01787486 -0.03536441 0.04784416
v 0.01704776 -0.03569633 0.05003978
v 0.01594805 -0.03604440 0.05224258
v 0.01514883 -0.03622505 0.05334399
v 0.01154304 -0.03403822 -0.01803852
v 0.00000081 -0.03685657 0.05004698
v 0.00000081 -0.03652759 0.05442380
v 0.00055530 -0.03681839 0.05334399
v 0.00165501 -0.03681251 0.05334399
v 0.00385441 -0.03679489 0.05334399
v 0.00715352 -0.03676551 0.05334399
v 0.00935293 -0.03674348 0.05334399
v 0.01045263 -0.03672439 0.05334399
v 0.01155234 -0.03668033 0.05334399
v 0.01375174 -0.03637926 0.05409265
v 0.01439608 -0.03632492 0.05396308
v 0.01264894 -0.03661424 0.05334399
v 0.01600381 -0.03542610 0.05437340
v 0.01600381 -0.03582557 0.05340158
v 0.01678445 -0.03539526 0.05334399
v 0.01696721 -0.03551422 0.05224258
v 0.01767041 -0.03525280 0.05092522
v 0.01880418 -0.03419390 0.05114118
v 0.01829925 -0.03484598 0.05003978
v 0.01890951 -0.03429523 0.05003978
v 0.02004948 -0.03323339 0.05003978
v 0.02895243 -0.02921074 0.01467966
v 0.02857141 -0.02967190 0.01406057
v 0.02861168 -0.02971009 0.01332630
v 0.02424694 -0.02982170 0.04556217
v 0.02424694 -0.03013600 0.04344575
v 0.02424694 -0.03029608 0.04234434
v 0.02424694 -0.03045176 0.04124294
v 0.02424694 -0.03071318 0.03939287
v 0.02424694 -0.03084683 0.03843544
v 0.02424694 -0.03091439 0.03794592
v 0.02424694 -0.03106712 0.03683732
v 0.02424694 -0.03136379 0.03464891
v 0.02207851 -0.03197916 0.04564136
v 0.02085490 -0.03295875 0.04701631
v 0.02810364 -0.03002585 0.01467966
v 0.02733230 -0.03067940 0.01467966
v 0.01955694 -0.03387226 0.04893837
v 0.01264894 -0.03662599 0.05224258
v 0.01485145 -0.03390016 -0.01803852
v 0.01594495 -0.03378855 -0.01803852
v 0.01605338 -0.03377386 -0.01803852
v 0.02073409 -0.03397947 0.03904013
v 0.02007426 -0.03429964 0.04124294
v 0.02228606 -0.03320843 0.03355471
v 0.02223030 -0.03318052 0.03464891
v 0.01847272 -0.03505306 0.04674276
v 0.01781910 -0.03534679 0.04893837
v 0.02289012 -0.03283832 0.03245330
v 0.01774785 -0.03530860 0.05003978
v 0.01715308 -0.03552743 0.05123476
v 0.01600381 -0.03601650 0.05224258
v 0.01594805 -0.03587257 0.05334399
v 0.01262416 -0.03402500 -0.01803852
v 0.00055530 -0.03685363 0.05004698
v 0.00000081 -0.03687566 0.05114118
v 0.00000081 -0.03681985 0.05334399
v 0.00055530 -0.03688007 0.05224258
v 0.00165501 -0.03687273 0.05224258
v 0.00825323 -0.03678754 0.05224258
v 0.00935293 -0.03677286 0.05224258
v 0.01045263 -0.03674055 0.05224258
v 0.01155234 -0.03668914 0.05224258
v 0.01600381 -0.03584320 0.05334399
v 0.01837050 -0.03493263 0.04893837
v 0.01900863 -0.03438482 0.04893837
v 0.02853423 -0.02963665 0.01467966
v 0.02401151 -0.03172508 0.03355471
v 0.02424694 -0.03175299 0.03134470
v 0.02424694 -0.03190573 0.02995535
v 0.02424694 -0.03194097 0.02961701
v 0.02381016 -0.03041064 0.04453995
v 0.02389070 -0.03049141 0.04344575
v 0.02215905 -0.03205553 0.04453995
v 0.02307289 -0.03187195 0.03939287
v 0.02394026 -0.03165459 0.03464891
v 0.02424694 -0.03150331 0.03355471
v 0.02091066 -0.03301163 0.04628204
v 0.01964368 -0.03395597 0.04784416
v 0.02424694 -0.03198797 0.02914909
v 0.02424694 -0.03209225 0.02804769
v 0.01374865 -0.03396332 -0.01803852
v 0.02217454 -0.03314381 0.03574312
v 0.02068452 -0.03393247 0.04014154
v 0.02001231 -0.03426733 0.04234434
v 0.01842626 -0.03500312 0.04784416
v 0.00825323 -0.03676551 0.05114118
v 0.00715352 -0.03675376 0.05004698
v 0.00605382 -0.03677286 0.05004698
v 0.00165501 -0.03683895 0.05004698
v 0.00165501 -0.03686098 0.05114118
v 0.00055530 -0.03687273 0.05114118
v 0.00000081 -0.03687860 0.05168828
v 0.00000081 -0.03688007 0.05224258
v 0.00715352 -0.03678754 0.05114118
v 0.01994416 -0.03422033 0.04344575
v 0.01987291 -0.03416159 0.04453995
v 0.01909227 -0.03445238 0.04784416
v 0.02324327 -0.03203350 0.03683732
v 0.02199487 -0.03299694 0.03847863
v 0.02338886 -0.03217008 0.03464891
v 0.02346011 -0.03223324 0.03355471
v 0.02352826 -0.03228611 0.03245330
v 0.02278170 -0.03272083 0.03464891
v 0.02283746 -0.03278252 0.03355471
v 0.02223650 -0.03212896 0.04344575
v 0.02173156 -0.03275314 0.04234434
v 0.02095712 -0.03305128 0.04564136
v 0.01972112 -0.03402941 0.04674276
v 0.02210329 -0.03309240 0.03683732
v 0.01982335 -0.03411899 0.04526702
v 0.02204444 -0.03304100 0.03773716
f 1 2 3
f 1 3 4
f 1 4 5
f 1 5 6
f 1 6 7
f 1 7 8
f 1 8 9
f 1 9 10
f 1 10 11
f 1 11 12
f 1 12 13
f 1 13 14
f 1 14 15
f 1 15 16
f 1 16 17
f 1 17 18
f 1 18 19
f 1 19 20
f 1 20 21
f 1 21 22
f 1 22 23
f 1 23 24
f 1 24 25
f 1 25 26
f 1 26 27
f 1 27 2
f 2 28 29
f 2 29 30
f 2 30 31
f 2 31 32
f 2 32 3
f 2 27 33
f 2 33 34
f 2 34 28
f 3 32 35
f 3 35 36
f 3 36 4
f 4 36 5
f 5 36 6
f 6 36 7
f 7 36 8
f 8 36 37
f 8 37 9
f 9 37 38
f 9 38 39
f 9 39 40
f 9 40 10
f 10 40 11
f 11 41 12
f 11 40 42
f 11 42 43
f 11 43 44
f 11 44 45
f 11 45 46
f 11 46 47
f 11 47 48
f 11 48 49
f 11 49 50
f 11 50 41
f 12 41 51
f 12 51 52
f 12 52 53
f 12 53 54
f 12 54 55
f 12 55 56
f 12 56 57
f 12 57 13
f 13 57 58
f 13 58 59
f 13 59 60
f 13 60 61
f 13 61 14
f 14 61 62
f 14 62 15
f 15 62 63
f 15 63 16
f 16 63 64
f 16 64 17
f 17 64 18
f 18 64 65
f 18 65 66
f 18 66 19
f 19 66 20
f 20 66 67
f 20 67 68
f 20 68 69
f 20 69 21
f 21 69 70
f 21 70 71
f 21 71 72
f 21 72 22
f 22 72 23
f 23 72 73
f 23 73 74
f 23 74 75
f 23 75 24
f 24 75 74
f 24 74 76
f 24 76 77
f 24 77 25
f 25 77 26
f 26 77 27
f 27 77 76
f 27 76 78
f 27 78 33
f 28 79 80
f 28 80 30
f 28 30 29
f 28 34 81
f 28 81 79
f 30 82 83
f 30 83 31
f 30 80 84
f 30 84 82
f 31 83 85
f 31 85 86
f 31 86 32
f 32 86 87
f 32 87 35
f 33 88 34
f 33 78 88
f 34 88 89
f 34 89 90
f 34 90 81
f 35 91 36
f 35 87 92
f 35 92 91
f 36 93 159
f 36 159 219
f 36 219 295
f 36 295 299
f 36 299 353
f 36 353 352
f 36 352 351
f 36 351 393
f 36 393 365
f 36 365 311
f 36 311 230
f 36 230 174
f 36 174 108
f 36 108 37
f 36 91 94
f 36 94 95
f 36 95 96
f 36 96 97
f 36 97 98
f 36 98 99
f 36 99 100
f 36 100 101
f 36 101 102
f 36 102 103
f 36 103 104
f 36 104 105
f 36 105 106
f 36 106 107
f 36 107 93
f 37 108 109
f 37 109 110
f 37 110 111
f 37 111 112
f 37 112 113
f 37 113 114
f 37 114 115
f 37 115 116
f 37 116 117
f 37 117 118
f 37 118 119
f 37 119 120
f 37 120 38
f 38 120 39
f 39 120 40
f 40 120 42
f 41 50 49
f 41 49 48
f 41 48 123
f 41 123 122
f 41 122 175
f 41 175 256
f 41 256 255
f 41 255 254
f 41 254 253
f 41 253 252
f 41 252 251
f 41 251 250
f 41 250 249
f 41 249 248
f 41 248 247
f 41 247 246
f 41 246 245
f 41 245 244
f 41 244 243
f 41 243 242
f 41 242 241
f 41 241 240
f 41 240 239
f 41 239 238
f 41 238 237
f 41 237 236
f 41 236 235
f 41 235 234
f 41 234 233
f 41 233 232
f 41 232 231
f 41 231 312
f 41 312 367
f 41 367 404
f 41 404 405
f 41 405 368
f 41 368 313
f 41 313 257
f 41 257 176
f 41 176 125
f 41 125 124
f 41 124 66
f 41 66 65
f 41 65 64
f 41 64 63
f 41 63 62
f 41 62 61
f 41 61 60
f 41 60 59
f 41 59 58
f 41 58 57
f 41 57 56
f 41 56 55
f 41 55 54
f 41 54 53
f 41 53 52
f 41 52 51
f 42 120 46
f 42 46 43
f 43 46 44
f 44 46 45
f 46 120 119
f 46 119 118
f 46 118 112
f 46 112 111
f 46 111 110
f 46 110 109
f 46 109 108
f 46 108 174
f 46 174 121
f 46 121 175
f 46 175 122
f 46 122 123
f 46 123 47
f 47 123 48
f 66 124 67
f 67 124 125
f 67 125 126
f 67 126 127
f 67 127 128
f 67 128 129
f 67 129 130
f 67 130 68
f 68 130 131
f 68 131 69
f 69 131 132
f 69 132 133
f 69 133 134
f 69 134 135
f 69 135 70
f 70 135 71
f 71 135 134
f 71 134 136
f 71 136 137
f 71 137 138
f 71 138 72
f 72 138 73
f 73 138 76
f 73 76 74
f 76 139 140
f 76 140 141
f 76 141 78
f 76 138 137
f 76 137 139
f 78 141 142
f 78 142 143
f 78 143 88
f 79 144 145
f 79 145 80
f 79 81 146
f 79 146 147
f 79 147 144
f 80 145 148
f 80 148 149
f 80 149 84
f 81 90 146
f 82 84 150
f 82 150 87
f 82 87 83
f 83 87 85
f 84 149 151
f 84 151 152
f 84 152 150
f 85 87 86
f 87 150 153
f 87 153 92
f 88 143 89
f 89 154 155
f 89 155 156
f 89 156 90
f 89 143 154
f 90 156 146
f 91 92 157
f 91 157 94
f 92 153 158
f 92 158 157
f 93 107 159
f 94 157 160
f 94 160 95
f 95 160 161
f 95 161 96
f 96 161 97
f 97 161 162
f 97 162 98
f 98 162 99
f 99 162 163
f 99 163 100
f 100 163 101
f 101 163 164
f 101 164 165
f 101 165 166
f 101 166 167
f 101 167 102
f 102 167 103
f 103 167 168
f 103 168 169
f 103 169 104
f 104 169 105
f 105 169 170
f 105 170 171
f 105 171 106
f 106 171 172
f 106 172 107
f 107 172 173
f 107 173 159
f 112 118 117
f 112 117 116
f 112 116 115
f 112 115 114
f 112 114 113
f 121 174 175
f 125 176 126
f 126 176 177
f 126 177 178
f 126 178 127
f 127 179 128
f 127 178 179
f 128 179 180
f 128 180 129
f 129 181 130
f 129 180 182
f 129 182 181
f 130 181 131
f 131 181 183
f 131 183 184
f 131 184 185
f 131 185 132
f 132 185 186
f 132 186 133
f 133 186 187
f 133 187 136
f 133 136 134
f 136 187 137
f 137 188 189
f 137 189 190
f 137 190 139
f 137 187 188
f 139 190 140
f 140 191 142
f 140 142 141
f 140 190 191
f 142 191 192
f 142 192 193
f 142 193 194
f 142 194 154
f 142 154 143
f 144 195 196
f 144 196 197
f 144 197 148
f 144 148 145
f 144 147 198
f 144 198 199
f 144 199 200
f 144 200 201
f 144 201 195
f 146 156 202
f 146 202 147
f 147 202 198
f 148 197 203
f 148 203 204
f 148 204 149
f 149 204 151
f 150 152 205
f 150 205 206
f 150 206 207
f 150 207 153
f 151 204 208
f 151 208 209
f 151 209 152
f 152 209 210
f 152 210 205
f 153 207 158
f 154 194 155
f 155 211 212
f 155 212 213
f 155 213 214
f 155 214 156
f 155 194 211
f 156 214 199
f 156 199 198
f 156 198 202
f 157 158 217
f 157 217 215
f 157 215 161
f 157 161 160
f 158 216 217
f 158 207 218
f 158 218 216
f 159 173 220
f 159 220 219
f 161 215 162
f 162 215 217
f 162 217 216
f 162 216 221
f 162 221 163
f 163 221 210
f 163 210 164
f 164 210 209
f 164 209 222
f 164 222 165
f 165 222 166
f 166 222 168
f 166 168 167
f 168 223 224
f 168 224 169
f 168 222 225
f 168 225 223
f 169 224 226
f 169 226 170
f 170 226 227
f 170 227 171
f 171 227 228
f 171 228 172
f 172 228 229
f 172 229 173
f 173 229 220
f 174 230 231
f 174 231 232
f 174 232 233
f 174 233 234
f 174 234 235
f 174 235 236
f 174 236 237
f 174 237 238
f 174 238 239
f 174 239 240
f 174 240 241
f 174 241 242
f 174 242 243
f 174 243 244
f 174 244 245
f 174 245 246
f 174 246 247
f 174 247 248
f 174 248 249
f 174 249 250
f 174 250 251
f 174 251 252
f 174 252 253
f 174 253 254
f 174 254 255
f 174 255 256
f 174 256 175
f 176 257 177
f 177 257 258
f 177 258 259
f 177 259 260
f 177 260 178
f 178 260 261
f 178 261 179
f 179 261 180
f 180 261 260
f 180 260 262
f 180 262 263
f 180 263 182
f 181 182 264
f 181 264 265
f 181 265 183
f 182 263 266
f 182 266 264
f 183 265 184
f 184 187 186
f 184 186 185
f 184 265 267
f 184 267 268
f 184 268 269
f 184 269 270
f 184 270 187
f 187 270 188
f 188 270 271
f 188 271 189
f 189 271 272
f 189 272 273
f 189 273 274
f 189 274 192
f 189 192 190
f 190 192 191
f 192 274 193
f 193 275 276
f 193 276 277
f 193 277 278
f 193 278 279
f 193 279 280
f 193 280 194
f 193 274 273
f 193 273 275
f 194 280 211
f 195 281 282
f 195 282 196
f 195 201 283
f 195 283 281
f 196 282 284
f 196 284 197
f 197 284 203
f 199 214 200
f 200 214 213
f 200 213 201
f 201 285 286
f 201 286 283
f 201 213 285
f 203 284 287
f 203 287 288
f 203 288 204
f 204 288 289
f 204 289 208
f 205 210 206
f 206 210 207
f 207 210 221
f 207 221 218
f 208 289 290
f 208 290 291
f 208 291 222
f 208 222 209
f 211 280 292
f 211 292 212
f 212 292 293
f 212 293 294
f 212 294 285
f 212 285 213
f 216 218 221
f 219 220 295
f 220 229 296
f 220 296 297
f 220 297 298
f 220 298 299
f 220 299 295
f 222 291 225
f 223 300 301
f 223 301 302
f 223 302 224
f 223 225 291
f 223 291 303
f 223 303 304
f 223 304 305
f 223 305 306
f 223 306 300
f 224 302 226
f 226 307 227
f 226 302 307
f 227 307 308
f 227 308 228
f 228 309 229
f 228 308 309
f 229 309 310
f 229 310 296
f 230 311 231
f 231 311 312
f 257 313 258
f 258 313 368
f 258 368 314
f 258 314 259
f 259 314 260
f 260 314 315
f 260 315 316
f 260 316 317
f 260 317 318
f 260 318 262
f 262 318 319
f 262 319 263
f 263 319 320
f 263 320 266
f 264 266 321
f 264 321 265
f 265 321 322
f 265 322 267
f 266 320 323
f 266 323 321
f 267 322 268
f 268 322 324
f 268 324 269
f 269 324 272
f 269 272 270
f 270 272 271
f 272 324 325
f 272 325 326
f 272 326 273
f 273 326 275
f 275 326 327
f 275 327 276
f 276 327 328
f 276 328 277
f 277 329 278
f 277 328 330
f 277 330 329
f 278 329 279
f 279 329 331
f 279 331 280
f 280 331 332
f 280 332 292
f 281 333 334
f 281 334 335
f 281 335 284
f 281 284 282
f 281 283 336
f 281 336 337
f 281 337 338
f 281 338 339
f 281 339 340
f 281 340 341
f 281 341 342
f 281 342 343
f 281 343 344
f 281 344 333
f 283 286 345
f 283 345 336
f 284 335 287
f 285 294 346
f 285 346 286
f 286 346 345
f 287 335 347
f 287 347 288
f 288 347 348
f 288 348 289
f 289 348 290
f 290 348 306
f 290 306 291
f 291 306 304
f 291 304 303
f 292 332 293
f 293 346 294
f 293 332 349
f 293 349 346
f 296 310 322
f 296 322 297
f 297 323 298
f 297 322 321
f 297 321 323
f 298 323 350
f 298 350 351
f 298 351 352
f 298 352 353
f 298 353 299
f 300 354 355
f 300 355 301
f 300 306 356
f 300 356 357
f 300 357 354
f 301 355 358
f 301 358 302
f 302 358 359
f 302 359 307
f 304 306 305
f 306 360 357
f 306 357 356
f 306 348 360
f 307 359 308
f 308 359 361
f 308 361 362
f 308 362 363
f 308 363 309
f 309 363 364
f 309 364 310
f 310 364 322
f 311 365 366
f 311 366 312
f 312 366 403
f 312 403 367
f 314 368 369
f 314 369 315
f 315 369 370
f 315 370 316
f 316 370 317
f 317 370 318
f 318 370 371
f 318 371 372
f 318 372 319
f 319 372 373
f 319 373 320
f 320 373 374
f 320 374 350
f 320 350 323
f 322 364 325
f 322 325 324
f 325 364 375
f 325 375 326
f 326 375 327
f 327 363 362
f 327 362 328
f 327 375 364
f 327 364 363
f 328 361 330
f 328 362 361
f 329 330 331
f 330 361 376
f 330 376 377
f 330 377 331
f 331 377 332
f 332 377 349
f 333 378 334
f 333 344 378
f 334 378 379
f 334 379 380
f 334 380 381
f 334 381 382
f 334 382 347
f 334 347 335
f 336 345 383
f 336 383 337
f 337 384 338
f 337 383 345
f 337 345 384
f 338 384 345
f 338 345 385
f 338 385 339
f 339 385 340
f 340 385 341
f 341 385 386
f 341 386 342
f 342 386 343
f 343 386 344
f 344 386 387
f 344 387 388
f 344 388 378
f 345 346 389
f 345 389 385
f 346 349 377
f 346 377 390
f 346 390 389
f 347 382 391
f 347 391 392
f 347 392 348
f 348 392 360
f 350 374 351
f 351 374 393
f 354 357 394
f 354 394 395
f 354 395 396
f 354 396 355
f 355 396 358
f 357 360 394
f 358 397 359
f 358 396 397
f 359 397 361
f 360 392 394
f 361 397 376
f 365 393 374
f 365 374 373
f 365 373 398
f 365 398 399
f 365 399 400
f 365 400 401
f 365 401 366
f 366 401 406
f 366 406 402
f 366 402 403
f 367 403 369
f 367 369 404
f 368 405 369
f 369 405 404
f 369 403 370
f 370 403 402
f 370 402 371
f 371 402 406
f 371 406 372
f 372 406 398
f 372 398 373
f 376 397 407
f 376 407 408
f 376 408 409
f 376 409 377
f 377 409 390
f 378 388 379
f 379 388 387
f 379 387 410
f 379 410 411
f 379 411 412
f 379 412 413
f 379 413 380
f 380 413 381
f 381 413 382
f 382 413 414
f 382 414 415
f 382 415 416
f 382 416 391
f 385 389 417
f 385 417 386
f 386 417 389
f 386 389 418
f 386 418 411
f 386 411 410
f 386 410 387
f 389 419 418
f 389 390 420
f 389 420 419
f 390 409 420
f 391 416 392
f 392 416 394
f 394 421 407
f 394 407 395
f 394 416 415
f 394 415 421
f 395 407 396
f 396 407 397
f 398 406 399
f 399 406 400
f 400 406 401
f 407 421 408
f 408 422 409
f 408 421 423
f 408 423 411
f 408 411 422
f 409 422 420
f 411 423 412
f 411 418 419
f 411 419 422
f 412 423 413
f 413 423 421
f 413 421 415
f 413 415 414
f 419 420 422

