# https://github.com/mikedh/trimesh
v 0.02373354 -0.00001455 -0.05555133
v 0.02373354 0.00165121 -0.05554766
v 0.02475080 0.00055036 -0.05554032
v 0.02475080 -0.00001455 -0.05554032
v 0.02373354 -0.00001455 -0.03019002
v 0.02373354 0.00275061 -0.05554399
v 0.02475080 0.00165121 -0.05553664
v 0.02585085 0.00055036 -0.05551094
v 0.02531525 -0.00001455 -0.05552563
v 0.02623217 -0.00001455 -0.01803995
v 0.02373354 0.01478322 -0.02878372
v 0.02373354 0.00385002 -0.05553664
v 0.02373354 0.00486686 -0.05552930
v 0.02475080 0.00275061 -0.05552563
v 0.02585085 0.00165121 -0.05549993
v 0.02695090 0.00385002 -0.05543016
v 0.02695090 0.00055036 -0.05545953
v 0.02641530 -0.00001455 -0.05548523
v 0.02585085 -0.00001455 -0.05550727
v 0.03374186 -0.00001455 -0.01803995
v 0.02622715 0.00066044 -0.01803995
v 0.02373354 0.01478322 -0.05539711
v 0.02622088 0.00165121 -0.01803995
v 0.02620834 0.00385002 -0.01803995
v 0.02621210 0.00495087 -0.01803995
v 0.02623217 0.00605027 -0.01803995
v 0.02641530 0.01478322 -0.01803995
v 0.02373354 0.00605027 -0.05551461
v 0.02475080 0.00824908 -0.05545586
v 0.02585085 0.00495087 -0.05546320
v 0.02585085 0.00275061 -0.05548891
v 0.02695090 0.00495087 -0.05541914
v 0.02805095 0.00605027 -0.05535673
v 0.02915100 0.00055036 -0.05535306
v 0.02861540 -0.00001455 -0.05538243
v 0.02915100 -0.00001455 -0.05535673
v 0.03382339 0.01154874 -0.01803995
v 0.03410060 -0.00001455 -0.01979876
v 0.03410060 0.00003325 -0.01979508
v 0.02475080 0.01478322 -0.05536774
v 0.02373354 0.01470355 -0.05540079
v 0.03367914 0.01478322 -0.01803995
v 0.02373354 0.01366643 -0.05541547
v 0.02585085 0.01154874 -0.05537876
v 0.02695090 0.00934993 -0.05537141
v 0.02695090 0.00605027 -0.05540813
v 0.02805095 0.00715113 -0.05534571
v 0.02915100 0.00165121 -0.05534204
v 0.03024980 -0.00001455 -0.05529797
v 0.02971545 -0.00001455 -0.05532735
v 0.03380583 0.01253951 -0.01803995
v 0.03483815 -0.00001455 -0.02475205
v 0.03491592 -0.00001455 -0.02528814
v 0.03499494 -0.00001455 -0.02585360
v 0.03518936 -0.00001455 -0.02725256
v 0.03520943 0.00022590 -0.02742147
v 0.02585085 0.01478322 -0.05532368
v 0.02695090 0.01264959 -0.05532735
v 0.02585085 0.01264959 -0.05536407
v 0.03374186 0.01374900 -0.01803995
v 0.03368416 0.01478322 -0.01808401
v 0.02805095 0.01044934 -0.05531266
v 0.02915100 0.00495087 -0.05530899
v 0.02915100 0.00715113 -0.05528329
v 0.02915100 0.00934993 -0.05525759
v 0.03024980 0.00055036 -0.05529063
v 0.03134985 0.00165121 -0.05517680
v 0.03134985 0.00055036 -0.05518047
v 0.03134985 -0.00001455 -0.05518047
v 0.03380332 0.01264959 -0.01803995
v 0.03554685 0.00055036 -0.03025245
v 0.03520943 -0.00001455 -0.02742147
v 0.02591733 0.01478322 -0.05532000
v 0.02695090 0.01374900 -0.05530165
v 0.02805095 0.01154874 -0.05529797
v 0.03374813 0.01363891 -0.01803995
v 0.03375315 0.01374900 -0.01815011
v 0.03386102 0.01374900 -0.01925165
v 0.03412067 0.01352593 -0.02178889
v 0.03379078 0.01478322 -0.01918556
v 0.02915100 0.01044934 -0.05522454
v 0.03024980 0.00715113 -0.05519883
v 0.03024980 0.00605027 -0.05521719
v 0.03024980 0.00495087 -0.05523188
v 0.03024980 0.00165121 -0.05527594
v 0.02805095 0.01264959 -0.05526493
v 0.03134985 0.00275061 -0.05516212
v 0.03203471 0.00275061 -0.05505196
v 0.03205855 0.00165121 -0.05505564
v 0.03206482 0.00055036 -0.05505196
v 0.03206858 -0.00001455 -0.05504829
v 0.03381461 0.01264959 -0.01815011
v 0.03550796 0.00165121 -0.03025245
v 0.03534741 -0.00001455 -0.02858911
v 0.03547661 -0.00001455 -0.02968698
v 0.03554057 -0.00001455 -0.03025245
v 0.03565472 -0.00001455 -0.03135032
v 0.03565974 0.00055036 -0.03135032
v 0.02701738 0.01478322 -0.05523923
v 0.03428373 0.01374900 -0.02365050
v 0.03409684 0.01425887 -0.02203123
v 0.03389615 0.01478322 -0.02028344
v 0.03392123 0.01264959 -0.01925165
v 0.03561834 0.00165121 -0.03135032
v 0.02915100 0.01154874 -0.05516946
v 0.03100114 0.00824908 -0.05504829
v 0.03024980 0.00824908 -0.05516212
v 0.03115041 0.00715113 -0.05507400
v 0.02805095 0.01374900 -0.05520250
v 0.03134985 0.00385002 -0.05513274
v 0.03198203 0.00385002 -0.05503360
v 0.03258537 0.00275061 -0.05479861
v 0.03260794 0.00165121 -0.05482431
v 0.03261422 0.00055036 -0.05485001
v 0.03261923 -0.00001455 -0.05486103
v 0.03235081 -0.00001455 -0.05495650
v 0.03575130 -0.00001455 -0.03245187
v 0.03575256 0.00055036 -0.03245187
v 0.03571367 0.00165121 -0.03245187
v 0.02812119 0.01478322 -0.05510337
v 0.03438659 0.01374900 -0.02475205
v 0.03421098 0.01478322 -0.02365050
v 0.03407551 0.01478322 -0.02220013
v 0.03457976 0.01374900 -0.02695147
v 0.03448443 0.01374900 -0.02585360
v 0.02921497 0.01262642 -0.05509236
v 0.03006290 0.01044934 -0.05507767
v 0.03086944 0.00902257 -0.05501892
v 0.03169981 0.00715113 -0.05494548
v 0.03181019 0.00605027 -0.05497853
v 0.03187792 0.00542308 -0.05499321
v 0.03193311 0.00469014 -0.05501157
v 0.02822029 0.01478322 -0.05508868
v 0.02867937 0.01478322 -0.05501892
v 0.02891017 0.01374900 -0.05506298
v 0.03253268 0.00385002 -0.05475087
v 0.03328654 0.00275061 -0.05424783
v 0.03331413 0.00165121 -0.05427354
v 0.03334047 0.00055036 -0.05429924
v 0.03334047 -0.00001455 -0.05431026
v 0.03584412 -0.00001455 -0.03355342
v 0.03593569 -0.00001455 -0.03465129
v 0.03593067 0.00055036 -0.03465129
v 0.03580148 0.00165121 -0.03355342
v 0.03583158 0.00275061 -0.03465129
v 0.03523452 0.01478322 -0.03545542
v 0.03489209 0.01478322 -0.03128423
v 0.03480177 0.01478322 -0.03018635
v 0.03470770 0.01478322 -0.02908481
v 0.03461111 0.01478322 -0.02798326
v 0.03451704 0.01478322 -0.02695147
v 0.03440917 0.01478322 -0.02578383
v 0.02962514 0.01297840 -0.05498220
v 0.03074400 0.00975551 -0.05498587
v 0.03155054 0.00824908 -0.05488306
v 0.03227555 0.00824908 -0.05433228
v 0.03244990 0.00605027 -0.05454525
v 0.03235959 0.00501460 -0.05473619
v 0.02945957 0.01374900 -0.05493079
v 0.02915351 0.01478322 -0.05482431
v 0.03323386 0.00385002 -0.05420010
v 0.03528093 0.01154874 -0.05067882
v 0.03532734 0.01044934 -0.05073022
v 0.03535744 0.00934993 -0.05076694
v 0.03537751 0.00824908 -0.05079632
v 0.03539633 0.00715113 -0.05082569
v 0.03541640 0.00605027 -0.05084772
v 0.03543396 0.00495087 -0.05087342
v 0.03546406 0.00275061 -0.05092116
v 0.03547661 0.00165121 -0.05094319
v 0.03548037 0.00055036 -0.05095421
v 0.03547911 -0.00001455 -0.05094686
v 0.03602349 -0.00001455 -0.03575284
v 0.03601597 0.00055036 -0.03575284
v 0.03588552 0.00165121 -0.03465129
v 0.03600217 0.00275061 -0.03684705
v 0.03603353 0.00385002 -0.03794859
v 0.03552552 0.01478322 -0.03904647
v 0.03594698 0.00385002 -0.03684705
v 0.03570364 0.01478322 -0.04124957
v 0.03040283 0.01154874 -0.05486837
v 0.03061104 0.01044934 -0.05495282
v 0.03122316 0.01154874 -0.05432127
v 0.03213632 0.00934993 -0.05420377
v 0.03519438 0.01316670 -0.05059437
v 0.03302313 0.00669485 -0.05393573
v 0.03307456 0.00605027 -0.05401284
v 0.03251638 0.00709753 -0.05432127
v 0.03315609 0.00495087 -0.05412299
v 0.02925009 0.01478322 -0.05475822
v 0.03030123 0.01374176 -0.05435064
v 0.03102623 0.01264959 -0.05416338
v 0.03015823 0.01262642 -0.05475822
v 0.03523577 0.01243377 -0.05063475
v 0.03569235 0.01154874 -0.05004726
v 0.03577137 0.01044934 -0.05004726
v 0.03581904 0.00934993 -0.05004726
v 0.03584914 0.00824908 -0.05004726
v 0.03587674 0.00715113 -0.05004726
v 0.03590433 0.00605027 -0.05004726
v 0.03593067 0.00495087 -0.05004726
v 0.03595576 0.00385002 -0.05004726
v 0.03597959 0.00275061 -0.05004726
v 0.03599966 0.00165121 -0.05004726
v 0.03601220 0.00055036 -0.05004726
v 0.03601597 -0.00001455 -0.05004726
v 0.03575632 -0.00001455 -0.05048788
v 0.03610377 -0.00001455 -0.03684705
v 0.03609750 0.00055036 -0.03684705
v 0.03605109 0.00165121 -0.03684705
v 0.03630070 0.00441927 -0.04178565
v 0.03628314 0.00515221 -0.04200963
v 0.03631199 0.00572581 -0.04274400
v 0.03617652 0.00605027 -0.04124957
v 0.03578517 0.01478322 -0.04228135
v 0.03437655 0.01478322 -0.05074491
v 0.03508776 0.01374900 -0.05049155
v 0.03537124 0.01478322 -0.04974617
v 0.03548915 0.01374900 -0.04994445
v 0.03551298 0.01273940 -0.05015375
v 0.02999642 0.01478322 -0.05422947
v 0.03605485 0.01264959 -0.04894939
v 0.03613011 0.01154874 -0.04894939
v 0.03621039 0.00934993 -0.04903751
v 0.03622043 0.00824908 -0.04912931
v 0.03622920 0.00715113 -0.04918071
v 0.03628565 -0.00001455 -0.04943039
v 0.03615520 -0.00001455 -0.04974250
v 0.03614015 -0.00001455 -0.03738313
v 0.03617025 0.00055036 -0.03794859
v 0.03620913 0.00165121 -0.03904647
v 0.03630948 0.00385002 -0.04164245
v 0.03639101 0.00495087 -0.04344899
v 0.03634335 0.00607635 -0.04339759
v 0.03631701 0.00715113 -0.04378313
v 0.03587548 0.01478322 -0.04344899
v 0.03489334 0.01478322 -0.05029695
v 0.03539758 0.01478322 -0.04968742
v 0.03593067 0.01374900 -0.04894939
v 0.03610754 0.01374900 -0.04784784
v 0.03620412 0.01264959 -0.04784784
v 0.03628690 0.01071296 -0.04820033
v 0.03630321 0.00998003 -0.04841697
v 0.03620788 0.01038705 -0.04885025
v 0.03631575 0.00934993 -0.04848674
v 0.03633582 0.00824908 -0.04857853
v 0.03634711 0.00715113 -0.04862994
v 0.03628189 0.00055036 -0.04940836
v 0.03636216 0.00495087 -0.04870338
v 0.03637471 0.00275061 -0.04878048
v 0.03638976 -0.00001455 -0.04887962
v 0.03617652 -0.00001455 -0.03794859
v 0.03623548 0.00055036 -0.03904647
v 0.03627687 0.00172074 -0.04019575
v 0.03629067 0.00275061 -0.04084199
v 0.03641610 0.00385002 -0.04344899
v 0.03644369 0.00495087 -0.04454687
v 0.03641610 0.00605027 -0.04454687
v 0.03632328 0.00275061 -0.04139277
v 0.03637220 0.00715113 -0.04454687
v 0.03632328 0.00815493 -0.04458359
v 0.03630948 0.00897188 -0.04497647
v 0.03594698 0.01478322 -0.04454687
v 0.03628816 0.00970481 -0.04523717
v 0.03631701 0.01013212 -0.04597153
v 0.03570615 0.01478322 -0.04894939
v 0.03593444 0.01478322 -0.04784784
v 0.03600468 0.01478322 -0.04674996
v 0.03612259 0.01374900 -0.04674996
v 0.03620286 0.01264959 -0.04674996
v 0.03630948 0.01118807 -0.04711347
v 0.03630948 0.01118807 -0.04746597
v 0.03626934 0.01155309 -0.04784049
v 0.03632328 0.01038705 -0.04784049
v 0.03636342 0.00934993 -0.04784784
v 0.03639728 0.00824908 -0.04784784
v 0.03642112 0.00715113 -0.04784784
v 0.03643742 0.00605027 -0.04784784
v 0.03645248 0.00495087 -0.04784784
v 0.03646627 0.00385002 -0.04784784
v 0.03651394 -0.00001455 -0.04784784
v 0.03645498 -0.00001455 -0.04833986
v 0.03620788 -0.00001455 -0.03848468
v 0.03626307 -0.00001455 -0.03946506
v 0.03628314 0.00055036 -0.03990201
v 0.03629819 0.00213356 -0.04072082
v 0.03643742 0.00275061 -0.04344899
v 0.03652272 0.00055036 -0.04454687
v 0.03644871 0.00605027 -0.04564842
v 0.03642237 0.00715113 -0.04564842
v 0.03645749 0.00165121 -0.04344899
v 0.03647756 0.00055036 -0.04344899
v 0.03638349 0.00824908 -0.04564842
v 0.03633457 0.00934269 -0.04562271
v 0.03599339 0.01478322 -0.04564842
v 0.03638349 0.00934993 -0.04674996
v 0.03633206 0.01047831 -0.04674629
v 0.03626934 0.01155309 -0.04674629
v 0.03641610 0.00824908 -0.04674996
v 0.03643993 0.00715113 -0.04674996
v 0.03646000 0.00605027 -0.04674996
v 0.03654780 -0.00001455 -0.04674996
v 0.03653150 -0.00001455 -0.04728238
v 0.03631575 -0.00001455 -0.04041239
v 0.03642237 -0.00001455 -0.04234744
v 0.03635714 0.00055036 -0.04124957
v 0.03639728 0.00165121 -0.04234744
v 0.03652899 -0.00001455 -0.04454687
v 0.03654530 -0.00001455 -0.04564842
v 0.03653777 0.00055036 -0.04564842
v 0.03641735 0.00055036 -0.04234744
v 0.03648258 -0.00001455 -0.04344899
f 1 2 3
f 1 3 4
f 1 4 9
f 1 9 19
f 1 19 18
f 1 18 35
f 1 35 36
f 1 36 50
f 1 50 49
f 1 49 69
f 1 69 91
f 1 91 116
f 1 116 115
f 1 115 140
f 1 140 172
f 1 172 207
f 1 207 206
f 1 206 228
f 1 228 227
f 1 227 251
f 1 251 282
f 1 282 281
f 1 281 303
f 1 303 302
f 1 302 309
f 1 309 308
f 1 308 312
f 1 312 305
f 1 305 304
f 1 304 284
f 1 284 283
f 1 283 252
f 1 252 229
f 1 229 208
f 1 208 173
f 1 173 142
f 1 142 141
f 1 141 117
f 1 117 97
f 1 97 96
f 1 96 95
f 1 95 94
f 1 94 72
f 1 72 55
f 1 55 54
f 1 54 53
f 1 53 52
f 1 52 38
f 1 38 20
f 1 20 10
f 1 10 5
f 1 5 11
f 1 11 22
f 1 22 41
f 1 41 43
f 1 43 28
f 1 28 13
f 1 13 12
f 1 12 6
f 1 6 2
f 2 6 7
f 2 7 3
f 3 7 8
f 3 8 9
f 3 9 4
f 5 10 11
f 6 12 7
f 7 12 13
f 7 13 14
f 7 14 31
f 7 31 15
f 7 15 8
f 8 15 32
f 8 32 16
f 8 16 17
f 8 17 35
f 8 35 18
f 8 18 19
f 8 19 9
f 10 20 37
f 10 37 51
f 10 51 70
f 10 70 76
f 10 76 60
f 10 60 42
f 10 42 27
f 10 27 26
f 10 26 25
f 10 25 24
f 10 24 23
f 10 23 21
f 10 21 11
f 11 21 23
f 11 23 24
f 11 24 25
f 11 25 26
f 11 26 27
f 11 27 42
f 11 42 61
f 11 61 80
f 11 80 102
f 11 102 123
f 11 123 122
f 11 122 152
f 11 152 151
f 11 151 150
f 11 150 149
f 11 149 148
f 11 148 147
f 11 147 146
f 11 146 178
f 11 178 180
f 11 180 215
f 11 215 236
f 11 236 263
f 11 263 295
f 11 295 268
f 11 268 267
f 11 267 266
f 11 266 238
f 11 238 218
f 11 218 237
f 11 237 216
f 11 216 221
f 11 221 190
f 11 190 160
f 11 160 134
f 11 134 133
f 11 133 120
f 11 120 99
f 11 99 73
f 11 73 57
f 11 57 40
f 11 40 22
f 13 28 14
f 14 28 29
f 14 29 30
f 14 30 31
f 15 31 46
f 15 46 32
f 16 32 47
f 16 47 33
f 16 33 34
f 16 34 17
f 17 34 36
f 17 36 35
f 20 38 39
f 20 39 37
f 22 40 41
f 28 43 29
f 29 43 44
f 29 44 30
f 30 44 45
f 30 45 31
f 31 45 46
f 32 46 62
f 32 62 47
f 33 47 48
f 33 48 34
f 34 48 49
f 34 49 50
f 34 50 36
f 37 39 52
f 37 52 53
f 37 53 54
f 37 54 55
f 37 55 56
f 37 56 51
f 38 52 39
f 40 57 58
f 40 58 59
f 40 59 41
f 41 59 43
f 42 60 61
f 43 59 44
f 44 59 45
f 45 59 58
f 45 58 62
f 45 62 46
f 47 62 63
f 47 63 48
f 48 63 49
f 49 63 64
f 49 64 65
f 49 65 66
f 49 66 67
f 49 67 68
f 49 68 69
f 51 56 71
f 51 71 70
f 55 72 71
f 55 71 56
f 57 73 74
f 57 74 58
f 58 74 75
f 58 75 62
f 60 76 77
f 60 77 61
f 61 77 78
f 61 78 79
f 61 79 80
f 62 75 65
f 62 65 64
f 62 64 63
f 65 81 82
f 65 82 83
f 65 83 84
f 65 84 85
f 65 85 66
f 65 75 86
f 65 86 81
f 66 85 67
f 67 87 88
f 67 88 89
f 67 89 68
f 67 85 84
f 67 84 83
f 67 83 87
f 68 89 69
f 69 89 90
f 69 90 91
f 70 92 76
f 70 71 93
f 70 93 92
f 71 72 94
f 71 94 95
f 71 95 96
f 71 96 97
f 71 97 98
f 71 98 93
f 73 99 74
f 74 99 86
f 74 86 75
f 76 92 77
f 77 92 78
f 78 92 79
f 79 100 101
f 79 101 102
f 79 102 80
f 79 92 103
f 79 103 104
f 79 104 100
f 81 86 105
f 81 105 106
f 81 106 107
f 81 107 82
f 82 107 108
f 82 108 87
f 82 87 83
f 86 99 109
f 86 109 105
f 87 108 110
f 87 110 111
f 87 111 88
f 88 111 112
f 88 112 113
f 88 113 114
f 88 114 115
f 88 115 89
f 89 115 116
f 89 116 90
f 90 116 91
f 92 93 104
f 92 104 103
f 93 98 104
f 97 117 98
f 98 117 141
f 98 141 118
f 98 118 119
f 98 119 104
f 99 120 109
f 100 121 101
f 100 104 121
f 101 121 122
f 101 122 123
f 101 123 102
f 104 119 124
f 104 124 125
f 104 125 121
f 105 126 127
f 105 127 106
f 105 109 126
f 106 128 129
f 106 129 108
f 106 108 107
f 106 127 126
f 106 126 128
f 108 129 130
f 108 130 131
f 108 131 132
f 108 132 111
f 108 111 110
f 109 120 133
f 109 133 134
f 109 134 135
f 109 135 126
f 111 132 112
f 112 136 161
f 112 161 137
f 112 137 138
f 112 138 139
f 112 139 113
f 112 132 131
f 112 131 136
f 113 139 114
f 114 139 115
f 115 139 140
f 118 141 142
f 118 142 143
f 118 143 119
f 119 143 144
f 119 144 145
f 119 145 146
f 119 146 147
f 119 147 148
f 119 148 149
f 119 149 124
f 121 125 150
f 121 150 151
f 121 151 152
f 121 152 122
f 124 149 125
f 125 149 150
f 126 135 153
f 126 153 128
f 128 153 154
f 128 154 129
f 129 154 155
f 129 155 156
f 129 156 157
f 129 157 158
f 129 158 136
f 129 136 130
f 130 136 131
f 134 159 153
f 134 153 135
f 134 160 159
f 136 158 157
f 136 157 161
f 137 161 162
f 137 162 163
f 137 163 164
f 137 164 138
f 138 164 139
f 139 164 165
f 139 165 166
f 139 166 167
f 139 167 168
f 139 168 169
f 139 169 170
f 139 170 140
f 140 170 171
f 140 171 172
f 142 173 143
f 143 173 174
f 143 174 144
f 144 174 175
f 144 175 176
f 144 176 177
f 144 177 145
f 145 178 146
f 145 177 179
f 145 179 180
f 145 180 178
f 153 159 181
f 153 181 182
f 153 182 154
f 154 182 155
f 155 182 181
f 155 181 183
f 155 183 184
f 155 184 156
f 156 184 185
f 156 185 186
f 156 186 187
f 156 187 188
f 156 188 157
f 157 188 189
f 157 189 161
f 159 160 190
f 159 190 191
f 159 191 192
f 159 192 193
f 159 193 181
f 161 189 185
f 161 185 194
f 161 194 162
f 162 194 195
f 162 195 163
f 163 195 196
f 163 196 164
f 164 196 197
f 164 197 165
f 165 197 166
f 166 197 167
f 167 197 168
f 168 197 198
f 168 198 169
f 169 198 199
f 169 199 200
f 169 200 201
f 169 201 170
f 170 201 202
f 170 202 203
f 170 203 204
f 170 204 205
f 170 205 171
f 171 205 206
f 171 206 207
f 171 207 172
f 173 208 209
f 173 209 174
f 174 209 210
f 174 210 175
f 175 210 211
f 175 211 176
f 176 211 212
f 176 212 213
f 176 213 177
f 177 213 179
f 179 213 214
f 179 214 180
f 180 214 215
f 181 193 183
f 183 193 192
f 183 192 185
f 183 185 184
f 185 216 217
f 185 217 218
f 185 218 219
f 185 219 220
f 185 220 195
f 185 195 194
f 185 189 187
f 185 187 186
f 185 192 216
f 187 189 188
f 190 221 191
f 191 221 192
f 192 221 216
f 195 220 222
f 195 222 196
f 196 222 223
f 196 223 224
f 196 224 197
f 197 224 225
f 197 225 198
f 198 225 226
f 198 226 199
f 199 226 200
f 200 226 201
f 201 226 202
f 202 226 227
f 202 227 203
f 203 227 204
f 204 227 228
f 204 228 205
f 205 228 206
f 208 229 209
f 209 229 230
f 209 230 231
f 209 231 211
f 209 211 210
f 211 232 233
f 211 233 234
f 211 234 213
f 211 213 212
f 211 231 232
f 213 234 235
f 213 235 214
f 214 235 215
f 215 235 236
f 216 237 217
f 217 237 218
f 218 238 219
f 219 238 239
f 219 239 220
f 220 239 222
f 222 239 240
f 222 240 241
f 222 241 223
f 223 241 242
f 223 242 243
f 223 243 244
f 223 244 224
f 224 244 245
f 224 245 246
f 224 246 225
f 225 246 247
f 225 247 226
f 226 248 227
f 226 247 248
f 227 248 247
f 227 247 249
f 227 249 250
f 227 250 251
f 229 252 230
f 230 252 253
f 230 253 254
f 230 254 255
f 230 255 231
f 231 255 232
f 232 255 233
f 233 256 257
f 233 257 258
f 233 258 234
f 233 255 259
f 233 259 256
f 234 258 260
f 234 260 235
f 235 260 261
f 235 261 262
f 235 262 236
f 236 262 264
f 236 264 265
f 236 265 263
f 238 266 239
f 239 266 267
f 239 267 240
f 240 267 268
f 240 268 269
f 240 269 241
f 241 269 270
f 241 270 271
f 241 271 272
f 241 272 273
f 241 273 242
f 242 273 272
f 242 272 274
f 242 274 243
f 243 245 244
f 243 274 275
f 243 275 276
f 243 276 245
f 245 276 246
f 246 276 277
f 246 277 278
f 246 278 247
f 247 278 279
f 247 279 280
f 247 280 281
f 247 281 249
f 249 281 282
f 249 282 250
f 250 282 251
f 252 283 253
f 253 283 284
f 253 284 285
f 253 285 286
f 253 286 254
f 254 286 255
f 255 286 259
f 256 287 257
f 256 259 286
f 256 286 287
f 257 288 289
f 257 289 290
f 257 290 258
f 257 287 291
f 257 291 292
f 257 292 288
f 258 290 293
f 258 293 260
f 260 293 294
f 260 294 262
f 260 262 261
f 262 294 265
f 262 265 264
f 263 265 270
f 263 270 269
f 263 269 295
f 265 294 293
f 265 293 296
f 265 296 297
f 265 297 271
f 265 271 298
f 265 298 270
f 268 295 269
f 270 298 271
f 271 297 296
f 271 296 272
f 272 275 274
f 272 296 275
f 275 296 276
f 276 296 299
f 276 299 300
f 276 300 277
f 277 300 301
f 277 301 278
f 278 301 302
f 278 302 279
f 279 302 280
f 280 302 303
f 280 303 281
f 284 304 285
f 285 304 305
f 285 305 306
f 285 306 307
f 285 307 287
f 285 287 286
f 287 307 291
f 288 292 308
f 288 308 309
f 288 309 310
f 288 310 289
f 289 310 301
f 289 301 300
f 289 300 299
f 289 299 290
f 290 299 296
f 290 296 293
f 291 307 311
f 291 311 292
f 292 311 305
f 292 305 312
f 292 312 308
f 301 310 302
f 302 310 309
f 305 311 306
f 306 311 307

