# https://github.com/mikedh/trimesh
v 0.02373354 0.01478322 -0.02878414
v -0.00180000 0.01478322 -0.03032797
v -0.00180000 0.01359980 -0.03032797
v -0.00180000 0.00480023 -0.03033060
v -0.00180000 -0.00001455 -0.03033323
v 0.02373354 -0.00001455 -0.03018882
v 0.02373354 0.01478322 -0.05539961
v -0.00180000 0.01478322 -0.05560178
v -0.00180000 -0.00001455 -0.05560178
v 0.02373354 -0.00001455 -0.05554927
v 0.02373354 0.01366643 -0.05541536
v 0.02254884 0.01478322 -0.05543637
v 0.00171911 0.01478322 -0.05560178
v 0.00771509 -0.00001455 -0.05560441
v 0.02364856 -0.00001455 -0.05555189
v 0.02373354 0.00165121 -0.05554927
v 0.02373354 0.00706711 -0.05550201
v 0.02254884 0.01044934 -0.05549413
v 0.02034939 0.01374900 -0.05551776
v 0.02041438 0.01478322 -0.05550201
v 0.00825246 0.01374900 -0.05558865
v 0.00275135 0.01374900 -0.05560178
v 0.01711521 0.01478322 -0.05556502
v 0.00991704 -0.00001455 -0.05560178
v 0.02364856 0.00055036 -0.05555189
v 0.02311369 -0.00001455 -0.05555452
v 0.02373354 0.00266660 -0.05554664
v 0.01924967 0.01044934 -0.05556239
v 0.02034939 0.00934993 -0.05555715
v 0.02373354 0.00605027 -0.05551513
v 0.02364856 0.00605027 -0.05551776
v 0.02254884 0.00824908 -0.05552301
v 0.01924967 0.01478322 -0.05553614
v 0.01045190 0.01374900 -0.05558340
v 0.01594801 0.00824908 -0.05557815
v 0.01374857 0.00605027 -0.05558603
v 0.01154912 0.00385002 -0.05559390
v 0.01045190 0.00165121 -0.05559915
v 0.01814995 0.01478322 -0.05555977
v 0.01814995 0.01374900 -0.05556239
v 0.01814995 0.01264959 -0.05556502
v 0.01704773 0.01374900 -0.05556765
v 0.01541314 -0.00001455 -0.05558865
v 0.02091425 -0.00001455 -0.05556502
v 0.01814995 0.01044934 -0.05556765
v 0.02373354 0.00385002 -0.05553876
v 0.02034939 0.01044934 -0.05555189
v 0.02373354 0.00495087 -0.05552826
v 0.02364856 0.00495087 -0.05553089
v 0.02034939 0.01154874 -0.05554401
v 0.01924967 0.01374900 -0.05554664
v 0.01594801 0.00605027 -0.05558078
v 0.01484829 0.00165121 -0.05558865
v 0.01704773 0.00715113 -0.05557552
v 0.01704773 0.00165121 -0.05558078
v 0.01814995 0.00495087 -0.05557289
f 1 2 3
f 1 3 4
f 1 4 5
f 1 5 6
f 1 6 10
f 1 10 16
f 1 16 27
f 1 27 46
f 1 46 48
f 1 48 30
f 1 30 17
f 1 17 11
f 1 11 7
f 1 7 12
f 1 12 20
f 1 20 33
f 1 33 39
f 1 39 23
f 1 23 13
f 1 13 8
f 1 8 2
f 2 8 9
f 2 9 5
f 2 5 4
f 2 4 3
f 5 9 14
f 5 14 24
f 5 24 43
f 5 43 44
f 5 44 26
f 5 26 15
f 5 15 10
f 5 10 6
f 7 11 12
f 8 13 14
f 8 14 9
f 10 15 25
f 10 25 16
f 11 17 18
f 11 18 19
f 11 19 20
f 11 20 12
f 13 21 22
f 13 22 14
f 13 23 34
f 13 34 21
f 14 22 24
f 15 26 25
f 16 25 28
f 16 28 29
f 16 29 27
f 17 30 31
f 17 31 32
f 17 32 18
f 18 32 19
f 19 32 33
f 19 33 20
f 21 34 35
f 21 35 22
f 22 35 36
f 22 36 37
f 22 37 38
f 22 38 24
f 23 39 40
f 23 40 41
f 23 41 42
f 23 42 34
f 24 38 43
f 25 26 44
f 25 44 45
f 25 45 28
f 27 29 39
f 27 39 47
f 27 47 46
f 28 45 41
f 28 41 29
f 29 41 40
f 29 40 39
f 30 48 49
f 30 49 31
f 31 49 32
f 32 49 50
f 32 50 33
f 33 50 51
f 33 51 39
f 34 42 35
f 35 42 41
f 35 41 52
f 35 52 38
f 35 38 36
f 36 38 37
f 38 52 53
f 38 53 43
f 39 51 50
f 39 50 47
f 41 45 52
f 43 53 52
f 43 52 54
f 43 54 55
f 43 55 44
f 44 55 56
f 44 56 45
f 45 56 54
f 45 54 52
f 46 50 49
f 46 49 48
f 46 47 50
f 54 56 55

