# https://github.com/mikedh/trimesh
v -0.01536190 0.02436007 -0.02747193
v 0.00004821 -0.02625330 -0.02917645
v -0.00180113 0.02436007 -0.03014024
v -0.01536190 0.02436007 -0.05535012
v -0.01536190 -0.00001952 -0.03032198
v -0.01451567 -0.03500986 -0.02917645
v -0.00167744 -0.03557808 -0.02917645
v -0.00057779 -0.03559602 -0.02917645
v -0.00052047 -0.03559602 -0.02917645
v 0.00004821 -0.03559004 -0.02917645
v 0.00004821 -0.00001952 -0.03033575
v -0.00180113 0.02436007 -0.05552635
v -0.01518843 0.02436007 -0.05535563
v -0.01536190 0.02364831 -0.05538041
v -0.01536190 -0.00001952 -0.05559519
v -0.01451567 -0.03630779 -0.04546718
v -0.01451567 -0.03628387 -0.04478978
v -0.01451567 -0.03601471 -0.04125407
v -0.01451567 -0.03590107 -0.03981940
v -0.01451567 -0.03517734 -0.03101040
v -0.01451567 -0.03508163 -0.02991995
v -0.00165179 -0.03580537 -0.03135186
v -0.00165179 -0.03569770 -0.03025314
v -0.00055215 -0.03584126 -0.03135186
v 0.00004821 -0.03576948 -0.03075156
v 0.00004821 -0.00001952 -0.05559795
v -0.00180113 0.02379784 -0.05553461
v -0.00275144 0.02436007 -0.05552635
v -0.01374788 0.02436007 -0.05538592
v -0.01484904 0.02364831 -0.05539142
v -0.01536190 0.02254775 -0.05542171
v -0.01536190 0.00054870 -0.05559519
v -0.01264975 0.00054870 -0.05560070
v -0.01451567 -0.01045083 -0.05559519
v -0.01451567 -0.01374650 -0.05558969
v -0.01451567 -0.01484705 -0.05558418
v -0.01451567 -0.01518200 -0.05558142
v -0.01451567 -0.01628255 -0.05557041
v -0.01451567 -0.01847767 -0.05553461
v -0.01451567 -0.01957822 -0.05551258
v -0.01451567 -0.02177932 -0.05546577
v -0.01451567 -0.02287988 -0.05543824
v -0.01451567 -0.02364548 -0.05541896
v -0.01451567 -0.02398043 -0.05540795
v -0.01451567 -0.02474603 -0.05537766
v -0.01451567 -0.02584658 -0.05532258
v -0.01451567 -0.02617555 -0.05530330
v -0.01451567 -0.02727610 -0.05523721
v -0.01451567 -0.02810151 -0.05514084
v -0.01451567 -0.02841852 -0.05509678
v -0.01451567 -0.02876543 -0.05503895
v -0.01451567 -0.02882524 -0.05502518
v -0.01451567 -0.02924991 -0.05487098
v -0.01451567 -0.02955495 -0.05467271
v -0.01451567 -0.03011720 -0.05428995
v -0.01451567 -0.03501584 -0.05043206
v -0.01451567 -0.03546444 -0.04990060
v -0.01451567 -0.03566780 -0.04953161
v -0.01451567 -0.03596088 -0.04894508
v -0.01451567 -0.03608051 -0.04855405
v -0.01451567 -0.03621209 -0.04799230
v -0.01451567 -0.03628387 -0.04727359
v -0.01451567 -0.03630779 -0.04674764
v -0.01446137 -0.03631976 -0.04564893
v -0.01437841 -0.03630181 -0.04491094
v -0.00715152 -0.03654106 -0.04344599
v -0.00426288 -0.03628985 -0.03856373
v -0.00165179 -0.03609845 -0.03465351
v -0.00165179 -0.03600873 -0.03355204
v -0.00055215 -0.03605060 -0.03355204
v -0.00055215 -0.03594892 -0.03245333
v 0.00004821 -0.03594294 -0.03245333
v 0.00004821 -0.01045083 -0.05559795
v -0.00180113 0.01374933 -0.05560345
v -0.00180113 0.01609996 -0.05560070
v -0.00180113 0.01719453 -0.05559519
v -0.00180113 0.01814555 -0.05558969
v -0.00180113 0.02159673 -0.05555664
v -0.00275144 0.02364831 -0.05553461
v -0.00605188 0.02364831 -0.05552635
v -0.00495073 0.02436007 -0.05552084
v -0.01264975 0.02436007 -0.05540795
v -0.01374788 0.02364831 -0.05541345
v -0.00934930 0.02436007 -0.05547128
v -0.01264975 0.02254775 -0.05547128
v -0.01536190 0.02195561 -0.05544099
v -0.01536190 0.00385035 -0.05558969
v -0.01484904 0.00164925 -0.05559519
v -0.01264975 0.00164925 -0.05560070
v -0.01208408 -0.00001952 -0.05560070
v -0.01044744 -0.00935028 -0.05559795
v -0.00165179 -0.01265193 -0.05559519
v -0.01374939 -0.01484705 -0.05558693
v -0.01374939 -0.01594760 -0.05557867
v -0.01044744 -0.01814870 -0.05557041
v -0.00715152 -0.02034382 -0.05556215
v -0.00275144 -0.02364548 -0.05554563
v -0.01374939 -0.01814870 -0.05554838
v -0.01044744 -0.02254493 -0.05550157
v -0.01154859 -0.02254493 -0.05548780
v -0.01264824 -0.02364548 -0.05544925
v -0.00824815 -0.02584658 -0.05545476
v -0.00715152 -0.02694713 -0.05543273
v -0.00824815 -0.02694713 -0.05541070
v -0.01154859 -0.02694713 -0.05533635
v -0.01374939 -0.02694713 -0.05528403
v -0.01264824 -0.02804170 -0.05525374
v -0.01374939 -0.02804170 -0.05520968
v -0.01374939 -0.02894487 -0.05508026
v -0.01309473 -0.02965066 -0.05498663
v -0.01374939 -0.02949515 -0.05493982
v -0.01269651 -0.03019495 -0.05481866
v -0.01264824 -0.03108616 -0.05422937
v -0.01404655 -0.03512350 -0.05053669
v -0.01370715 -0.03553621 -0.05012089
v -0.01380068 -0.03617620 -0.04893957
v -0.01420041 -0.03627789 -0.04818506
v -0.01435427 -0.03630779 -0.04745258
v -0.01444327 -0.03631976 -0.04674764
v -0.01374939 -0.03640349 -0.04674764
v -0.01264824 -0.03648723 -0.04674764
v -0.00934930 -0.03659489 -0.04564893
v -0.00824815 -0.03664274 -0.04564893
v -0.00715152 -0.03661284 -0.04454746
v -0.00275144 -0.03627789 -0.03767704
v -0.00352828 -0.03630181 -0.03837648
v -0.00165179 -0.03617620 -0.03575223
v 0.00004821 -0.03603864 -0.03355204
v -0.00055215 -0.03612836 -0.03465351
v 0.00004821 -0.03620013 -0.03575223
v 0.00004821 -0.03612238 -0.03465351
v -0.00180113 -0.00001952 -0.05560070
v 0.00004821 -0.01374650 -0.05559244
v -0.00275144 -0.01045083 -0.05559795
v -0.00495073 0.01264878 -0.05560070
v -0.01154859 0.00385035 -0.05560070
v -0.00934930 0.00714602 -0.05560070
v -0.01536190 0.01704500 -0.05556215
v -0.01536190 0.01374933 -0.05557041
v -0.01374788 0.01814555 -0.05555939
v -0.00605188 0.02436007 -0.05551534
v -0.01264975 0.01924610 -0.05555113
v -0.01154859 0.02034665 -0.05554287
v -0.00715152 0.02436007 -0.05550432
v -0.01044744 0.02254775 -0.05550707
v -0.01484904 0.01924610 -0.05553461
v -0.01536190 0.01924610 -0.05552635
v -0.01484904 0.02034665 -0.05550157
v -0.01536190 0.01096206 -0.05557592
v -0.00055215 -0.01374650 -0.05559244
v -0.00824815 -0.01814870 -0.05557867
v -0.00934930 -0.01814870 -0.05557592
v 0.00004821 -0.01984140 -0.05557592
v -0.00275144 -0.02254493 -0.05555939
v -0.00055215 -0.02364548 -0.05555664
v -0.00275144 -0.02474603 -0.05552635
v -0.00495223 -0.02584658 -0.05549055
v -0.00715152 -0.02474603 -0.05549331
v -0.00715152 -0.02584658 -0.05547128
v -0.00605037 -0.02694713 -0.05545201
v -0.00605037 -0.02804170 -0.05539142
v -0.00715152 -0.02804170 -0.05536939
v -0.00824815 -0.02914225 -0.05527577
v -0.00934930 -0.02914225 -0.05525098
v -0.01044744 -0.02914225 -0.05521518
v -0.01154859 -0.02914225 -0.05517388
v -0.01269651 -0.02922599 -0.05510229
v -0.01154859 -0.02996168 -0.05504997
v -0.01236164 -0.02980019 -0.05502243
v -0.01154859 -0.03051196 -0.05492330
v -0.01148826 -0.03139718 -0.05430923
v -0.01331345 -0.03521920 -0.05061931
v -0.01044744 -0.03203718 -0.05408618
v -0.00934930 -0.03220465 -0.05426242
v -0.01264824 -0.03529098 -0.05068540
v -0.01264824 -0.03578144 -0.05004654
v -0.01264824 -0.03623602 -0.04927551
v -0.01346731 -0.03633770 -0.04856782
v -0.01380068 -0.03636162 -0.04782984
v -0.01264824 -0.03648723 -0.04784636
v -0.01154859 -0.03654106 -0.04674764
v -0.01044744 -0.03659489 -0.04674764
v -0.00934930 -0.03664274 -0.04674764
v -0.00715152 -0.03666667 -0.04564893
v -0.00605037 -0.03663676 -0.04454746
v -0.00275144 -0.03631377 -0.03822778
v -0.00165179 -0.03624798 -0.03685370
v -0.00165179 -0.03632574 -0.03805430
v -0.00106351 -0.03629583 -0.03741269
v -0.00033041 -0.03630181 -0.03730805
v 0.00004821 -0.03628387 -0.03707950
v -0.01536190 0.01814555 -0.05555113
v -0.01484904 0.01814555 -0.05555389
v -0.01374788 0.01924610 -0.05554563
v -0.01264975 0.02034665 -0.05553461
v -0.00275144 -0.02144438 -0.05557041
v -0.00165179 -0.02254493 -0.05556490
v 0.00004821 -0.02254493 -0.05556766
v -0.00055215 -0.02254493 -0.05556766
v 0.00004821 -0.02364548 -0.05555939
v -0.00165179 -0.02474603 -0.05553186
v -0.00385108 -0.02584658 -0.05549881
v -0.00605037 -0.02584658 -0.05548230
v -0.00495223 -0.02694713 -0.05546302
v -0.00495223 -0.02804170 -0.05540519
v -0.00495223 -0.03024280 -0.05526751
v -0.00605037 -0.02914225 -0.05531983
v -0.00605037 -0.03024280 -0.05524272
v -0.00715152 -0.03024280 -0.05520417
v -0.00824815 -0.03024280 -0.05516286
v -0.01044744 -0.03015308 -0.05508301
v -0.01044744 -0.03070336 -0.05497837
v -0.00824815 -0.03154073 -0.05490402
v -0.00944283 -0.03127756 -0.05484895
v -0.01044744 -0.03134335 -0.05461764
v -0.00605037 -0.03314969 -0.05412198
v -0.00824815 -0.03234820 -0.05435329
v -0.01154859 -0.03538668 -0.05077627
v -0.00495223 -0.03323343 -0.05422937
v -0.01154859 -0.03591901 -0.05004654
v -0.01098897 -0.03629583 -0.04949306
v -0.01264824 -0.03637359 -0.04872203
v -0.01154859 -0.03654106 -0.04784636
v -0.00934930 -0.03662480 -0.04784636
v -0.00824815 -0.03666667 -0.04674764
v -0.00495223 -0.03665471 -0.04454746
v -0.00495223 -0.03669658 -0.04564893
v -0.00055215 -0.03672050 -0.04454746
v -0.00055215 -0.03667863 -0.04344599
v 0.00004821 -0.03664274 -0.04284844
v 0.00004821 -0.02474603 -0.05553461
v -0.00055215 -0.02474603 -0.05553461
v -0.00385108 -0.02694713 -0.05546302
v -0.00385108 -0.02804170 -0.05541070
v -0.00385108 -0.03024280 -0.05527852
v -0.00165179 -0.03134335 -0.05517939
v -0.00385108 -0.03134335 -0.05515736
v -0.00495223 -0.03134335 -0.05513258
v -0.00715152 -0.03114597 -0.05507200
v -0.00987273 -0.03078709 -0.05499765
v -0.00715152 -0.03169625 -0.05495359
v -0.00495223 -0.03250371 -0.05478286
v -0.01044744 -0.03545247 -0.05083409
v -0.00385108 -0.03331119 -0.05429271
v -0.01055152 -0.03606256 -0.04996393
v -0.01025587 -0.03631976 -0.04954262
v -0.01055152 -0.03641546 -0.04905798
v -0.01154859 -0.03640349 -0.04887072
v -0.00934930 -0.03648723 -0.04894783
v -0.00824815 -0.03664873 -0.04784636
v -0.00715152 -0.03667863 -0.04674764
v -0.00055215 -0.03674442 -0.04674764
v -0.00165179 -0.03672648 -0.04564893
v 0.00004821 -0.03673246 -0.04504863
v 0.00004821 -0.03672050 -0.04454746
v 0.00004821 -0.03670255 -0.04394716
v 0.00004821 -0.03667863 -0.04344599
v -0.00165179 -0.02584658 -0.05549881
v 0.00004821 -0.02754525 -0.05542447
v -0.00275144 -0.02694713 -0.05546027
v 0.00004821 -0.02864581 -0.05537766
v -0.00275144 -0.02804170 -0.05541070
v -0.00055215 -0.02914225 -0.05535287
v 0.00004821 -0.03024280 -0.05529229
v -0.00055215 -0.03134335 -0.05518765
v -0.00055215 -0.03210895 -0.05505823
v -0.00165179 -0.03208503 -0.05505272
v -0.00385108 -0.03202522 -0.05503344
v -0.00495223 -0.03195344 -0.05501417
v -0.00555410 -0.03190559 -0.05500040
v -0.00597344 -0.03140316 -0.05508026
v -0.00385108 -0.03257549 -0.05484344
v -0.00934930 -0.03603266 -0.05013741
v -0.00275144 -0.03336502 -0.05431749
v -0.00934930 -0.03633770 -0.04958668
v -0.00824815 -0.03651116 -0.04894783
v -0.00715152 -0.03666069 -0.04784636
v -0.00275144 -0.03669658 -0.04784636
v -0.00165179 -0.03670255 -0.04784636
v -0.00055215 -0.03670255 -0.04784636
v 0.00004821 -0.03672050 -0.04724881
v 0.00004821 -0.03673246 -0.04674764
v 0.00004821 -0.02914225 -0.05535287
v 0.00004821 -0.02974636 -0.05531983
v 0.00004821 -0.03134335 -0.05518765
v 0.00004821 -0.03176802 -0.05511881
v 0.00004821 -0.03211493 -0.05505823
v 0.00004821 -0.03241400 -0.05497011
v 0.00004821 -0.03266521 -0.05489576
v -0.00055215 -0.03265923 -0.05489025
v -0.00165179 -0.03263530 -0.05487924
v -0.00275144 -0.03260540 -0.05486822
v -0.00824815 -0.03605658 -0.05016495
v -0.00165179 -0.03338894 -0.05433126
v -0.00824815 -0.03634368 -0.04961422
v -0.00715152 -0.03652312 -0.04894783
v -0.00495223 -0.03654106 -0.04894783
v -0.00165179 -0.03656499 -0.04894783
v 0.00004821 -0.03669658 -0.04784636
v -0.00055215 -0.03656499 -0.04894783
v 0.00004821 -0.03663676 -0.04834753
v 0.00004821 -0.03341286 -0.05434502
v -0.00055215 -0.03341286 -0.05434227
v -0.00385108 -0.03609845 -0.05021176
v -0.00605037 -0.03635564 -0.04963900
v -0.00165179 -0.03637957 -0.04968306
v -0.00055215 -0.03637957 -0.04968856
v 0.00004821 -0.03647527 -0.04928377
v 0.00004821 -0.03655901 -0.04894783
v 0.00004821 -0.03611639 -0.05023654
v -0.00055215 -0.03611639 -0.05023654
v -0.00165179 -0.03611041 -0.05023379
v 0.00004821 -0.03637359 -0.04968581
f 1 2 3
f 1 3 12
f 1 12 28
f 1 28 81
f 1 81 141
f 1 141 144
f 1 144 84
f 1 84 82
f 1 82 29
f 1 29 13
f 1 13 4
f 1 4 14
f 1 14 31
f 1 31 86
f 1 86 147
f 1 147 192
f 1 192 138
f 1 138 139
f 1 139 149
f 1 149 87
f 1 87 32
f 1 32 15
f 1 15 5
f 1 5 6
f 1 6 7
f 1 7 8
f 1 8 9
f 1 9 10
f 1 10 2
f 2 11 3
f 2 10 25
f 2 25 72
f 2 72 128
f 2 128 131
f 2 131 130
f 2 130 191
f 2 191 230
f 2 230 257
f 2 257 256
f 2 256 255
f 2 255 254
f 2 254 282
f 2 282 281
f 2 281 299
f 2 299 301
f 2 301 309
f 2 309 308
f 2 308 313
f 2 313 310
f 2 310 302
f 2 302 289
f 2 289 288
f 2 288 287
f 2 287 286
f 2 286 285
f 2 285 264
f 2 264 284
f 2 284 283
f 2 283 261
f 2 261 259
f 2 259 231
f 2 231 200
f 2 200 198
f 2 198 153
f 2 153 133
f 2 133 73
f 2 73 26
f 2 26 11
f 3 11 26
f 3 26 12
f 4 13 14
f 5 15 63
f 5 63 16
f 5 16 17
f 5 17 18
f 5 18 19
f 5 19 20
f 5 20 21
f 5 21 6
f 6 21 22
f 6 22 23
f 6 23 7
f 7 23 24
f 7 24 8
f 8 24 9
f 9 24 25
f 9 25 10
f 12 26 27
f 12 27 28
f 13 29 30
f 13 30 14
f 14 30 31
f 15 32 89
f 15 89 33
f 15 33 34
f 15 34 35
f 15 35 36
f 15 36 37
f 15 37 38
f 15 38 39
f 15 39 40
f 15 40 41
f 15 41 42
f 15 42 43
f 15 43 44
f 15 44 45
f 15 45 46
f 15 46 47
f 15 47 48
f 15 48 49
f 15 49 50
f 15 50 51
f 15 51 52
f 15 52 53
f 15 53 54
f 15 54 55
f 15 55 56
f 15 56 57
f 15 57 58
f 15 58 59
f 15 59 60
f 15 60 61
f 15 61 62
f 15 62 63
f 16 63 64
f 16 64 17
f 17 64 65
f 17 65 18
f 18 65 66
f 18 66 19
f 19 66 67
f 19 67 68
f 19 68 69
f 19 69 20
f 20 69 21
f 21 69 22
f 22 24 23
f 22 69 70
f 22 70 71
f 22 71 24
f 24 71 72
f 24 72 25
f 26 73 74
f 26 74 75
f 26 75 76
f 26 76 77
f 26 77 78
f 26 78 27
f 27 79 28
f 27 78 79
f 28 79 80
f 28 80 81
f 29 82 30
f 30 83 31
f 30 82 83
f 31 83 84
f 31 84 85
f 31 85 86
f 32 87 88
f 32 88 89
f 33 89 74
f 33 74 90
f 33 90 91
f 33 91 34
f 34 91 92
f 34 92 35
f 35 92 93
f 35 93 36
f 36 93 94
f 36 94 37
f 37 94 38
f 38 94 95
f 38 95 96
f 38 96 97
f 38 97 98
f 38 98 39
f 39 98 99
f 39 99 40
f 40 99 100
f 40 100 41
f 41 100 101
f 41 101 42
f 42 101 43
f 43 101 102
f 43 102 44
f 44 102 103
f 44 103 45
f 45 103 104
f 45 104 105
f 45 105 46
f 46 105 106
f 46 106 47
f 47 106 48
f 48 107 108
f 48 108 49
f 48 106 107
f 49 108 50
f 50 108 109
f 50 109 51
f 51 109 52
f 52 109 110
f 52 110 111
f 52 111 53
f 53 111 112
f 53 112 54
f 54 112 113
f 54 113 55
f 55 113 114
f 55 114 56
f 56 114 57
f 57 114 115
f 57 115 116
f 57 116 58
f 58 116 59
f 59 116 60
f 60 116 117
f 60 117 61
f 61 117 62
f 62 117 118
f 62 118 63
f 63 118 119
f 63 119 64
f 64 119 120
f 64 120 121
f 64 121 65
f 65 121 122
f 65 122 66
f 66 122 123
f 66 123 124
f 66 124 186
f 66 186 125
f 66 125 126
f 66 126 67
f 67 126 68
f 68 127 70
f 68 70 69
f 68 126 125
f 68 125 127
f 70 128 72
f 70 72 71
f 70 127 129
f 70 129 130
f 70 130 131
f 70 131 128
f 73 132 74
f 73 133 92
f 73 92 134
f 73 134 90
f 73 90 132
f 74 135 75
f 74 132 90
f 74 89 136
f 74 136 137
f 74 137 135
f 75 138 76
f 75 135 139
f 75 139 138
f 76 138 77
f 77 138 140
f 77 140 80
f 77 80 78
f 78 80 79
f 80 141 81
f 80 140 142
f 80 142 143
f 80 143 141
f 82 84 83
f 84 144 145
f 84 145 146
f 84 146 147
f 84 147 148
f 84 148 85
f 85 148 86
f 86 148 147
f 87 149 137
f 87 137 136
f 87 136 88
f 88 136 89
f 90 134 91
f 91 134 92
f 92 133 150
f 92 150 93
f 93 151 152
f 93 152 94
f 93 150 153
f 93 153 151
f 94 152 95
f 95 152 154
f 95 154 96
f 96 154 97
f 97 154 197
f 97 197 155
f 97 155 201
f 97 201 156
f 97 156 157
f 97 157 158
f 97 158 98
f 98 158 99
f 99 158 159
f 99 159 100
f 100 159 101
f 101 159 102
f 102 159 160
f 102 160 103
f 103 160 161
f 103 161 162
f 103 162 104
f 104 162 107
f 104 107 105
f 105 107 106
f 107 162 163
f 107 163 164
f 107 164 165
f 107 165 166
f 107 166 108
f 108 166 167
f 108 167 109
f 109 167 168
f 109 168 169
f 109 169 110
f 110 169 170
f 110 170 111
f 111 170 112
f 112 170 113
f 113 170 171
f 113 171 114
f 114 172 115
f 114 171 173
f 114 173 174
f 114 174 172
f 115 172 175
f 115 175 176
f 115 176 177
f 115 177 116
f 116 177 178
f 116 178 117
f 117 178 179
f 117 179 118
f 118 179 120
f 118 120 119
f 120 180 121
f 120 179 180
f 121 180 223
f 121 223 181
f 121 181 122
f 122 181 182
f 122 182 183
f 122 183 123
f 123 183 184
f 123 184 124
f 124 184 185
f 124 185 186
f 125 186 187
f 125 187 129
f 125 129 127
f 129 187 188
f 129 188 189
f 129 189 190
f 129 190 130
f 130 190 191
f 133 153 150
f 135 137 139
f 137 149 139
f 138 192 193
f 138 193 140
f 140 193 142
f 141 143 194
f 141 194 195
f 141 195 144
f 142 193 194
f 142 194 143
f 144 195 146
f 144 146 145
f 146 195 194
f 146 194 192
f 146 192 147
f 151 153 196
f 151 196 152
f 152 196 197
f 152 197 154
f 153 198 199
f 153 199 196
f 155 197 200
f 155 200 201
f 156 201 202
f 156 202 157
f 157 203 158
f 157 202 204
f 157 204 203
f 158 203 159
f 159 203 204
f 159 204 160
f 160 204 205
f 160 205 161
f 161 205 206
f 161 206 207
f 161 207 162
f 162 207 163
f 163 207 206
f 163 206 164
f 164 206 208
f 164 208 165
f 165 208 209
f 165 209 166
f 166 209 210
f 166 210 211
f 166 211 167
f 167 211 168
f 168 211 212
f 168 212 169
f 169 212 170
f 170 212 213
f 170 213 214
f 170 214 215
f 170 215 171
f 171 215 174
f 171 174 173
f 172 174 216
f 172 216 175
f 174 215 213
f 174 213 217
f 174 217 216
f 175 218 176
f 175 216 219
f 175 219 218
f 176 218 220
f 176 220 177
f 177 221 222
f 177 222 178
f 177 220 221
f 178 222 180
f 178 180 179
f 180 222 223
f 181 223 182
f 182 223 183
f 183 223 224
f 183 224 250
f 183 250 225
f 183 225 184
f 184 226 185
f 184 225 227
f 184 227 228
f 184 228 229
f 184 229 226
f 185 226 229
f 185 229 188
f 185 188 186
f 186 188 187
f 188 190 189
f 188 229 190
f 190 229 230
f 190 230 191
f 192 194 193
f 196 199 197
f 197 199 200
f 198 200 199
f 200 231 232
f 200 232 201
f 201 232 202
f 202 232 231
f 202 231 258
f 202 258 233
f 202 233 204
f 204 233 262
f 204 262 234
f 204 234 205
f 205 234 235
f 205 235 206
f 206 235 236
f 206 236 237
f 206 237 238
f 206 238 208
f 208 238 209
f 209 238 210
f 210 238 239
f 210 239 211
f 211 239 240
f 211 240 212
f 212 240 241
f 212 241 213
f 213 215 214
f 213 241 242
f 213 242 217
f 216 217 242
f 216 242 219
f 218 243 220
f 218 219 244
f 218 244 243
f 219 242 244
f 220 243 245
f 220 245 221
f 221 246 247
f 221 247 248
f 221 248 222
f 221 245 246
f 222 248 223
f 223 248 249
f 223 249 224
f 224 249 276
f 224 276 250
f 225 251 227
f 225 250 277
f 225 277 251
f 227 251 252
f 227 252 253
f 227 253 228
f 228 253 254
f 228 254 255
f 228 255 256
f 228 256 229
f 229 256 257
f 229 257 230
f 231 259 258
f 233 258 260
f 233 260 261
f 233 261 262
f 234 262 283
f 234 283 263
f 234 263 264
f 234 264 235
f 235 264 265
f 235 265 236
f 236 265 266
f 236 266 267
f 236 267 237
f 237 267 268
f 237 268 238
f 238 268 269
f 238 269 270
f 238 270 271
f 238 271 239
f 239 271 270
f 239 270 240
f 240 270 241
f 241 270 242
f 242 272 244
f 242 270 272
f 243 273 245
f 243 244 274
f 243 274 273
f 244 272 274
f 245 273 246
f 246 275 249
f 246 249 247
f 246 273 275
f 247 249 248
f 249 275 276
f 250 276 296
f 250 296 277
f 251 277 252
f 252 278 279
f 252 279 280
f 252 280 281
f 252 281 282
f 252 282 254
f 252 254 253
f 252 277 278
f 258 259 260
f 259 261 260
f 261 283 262
f 263 283 284
f 263 284 264
f 264 285 265
f 265 285 286
f 265 286 266
f 266 286 287
f 266 287 288
f 266 288 289
f 266 289 267
f 267 289 290
f 267 290 291
f 267 291 268
f 268 291 292
f 268 292 272
f 268 272 269
f 269 272 270
f 272 292 274
f 273 293 275
f 273 274 293
f 274 292 291
f 274 291 294
f 274 294 293
f 275 295 276
f 275 293 295
f 276 295 296
f 277 296 297
f 277 297 278
f 278 297 298
f 278 298 279
f 279 298 300
f 279 300 280
f 280 299 281
f 280 300 301
f 280 301 299
f 289 302 303
f 289 303 290
f 290 303 294
f 290 294 291
f 293 294 303
f 293 303 304
f 293 304 295
f 295 305 296
f 295 304 305
f 296 305 297
f 297 305 306
f 297 306 298
f 298 306 307
f 298 307 300
f 300 307 308
f 300 308 309
f 300 309 301
f 302 310 311
f 302 311 303
f 303 311 312
f 303 312 304
f 304 312 306
f 304 306 305
f 306 312 311
f 306 311 307
f 307 310 313
f 307 313 308
f 307 311 310

