# https://github.com/mikedh/trimesh
v 0.02647007 -0.00012045 0.00957385
v 0.02568907 -0.00000267 0.00330282
v 0.02562932 -0.00000267 0.00276088
v 0.02556957 -0.00000267 0.00220235
v 0.02551196 -0.00000267 0.00166041
v 0.02542873 -0.00000267 0.00055994
v 0.02538819 -0.00000267 -0.00054053
v 0.02539459 -0.00000267 -0.00098846
v 0.03135666 -0.00012045 0.00957385
v 0.02680936 -0.00012045 0.01215083
v 0.01489588 0.03166787 0.05334384
v 0.01489588 0.02774162 0.01468910
v 0.01489588 0.02774162 0.01467804
v 0.02910328 -0.00000267 -0.00098846
v 0.02538819 0.00055772 -0.00098846
v 0.03183466 -0.00012045 0.01121626
v 0.03027692 -0.00011331 0.03837964
v 0.03012968 -0.00011331 0.03727917
v 0.02973278 -0.00011331 0.03429297
v 0.03209712 -0.00012045 0.01215083
v 0.03464711 -0.00011331 0.05550607
v 0.03373808 -0.00011331 0.05524063
v 0.03340519 -0.00011331 0.05492542
v 0.03318754 -0.00011331 0.05471528
v 0.03286532 -0.00011331 0.05416781
v 0.03269461 -0.00011331 0.05367011
v 0.03258365 -0.00011331 0.05334384
v 0.03242361 -0.00011331 0.05267471
v 0.03232118 -0.00011331 0.05224337
v 0.03211633 -0.00011331 0.05113736
v 0.03196056 -0.00011331 0.05019173
v 0.03180905 -0.00011331 0.04922398
v 0.03159779 -0.00011331 0.04784148
v 0.03143349 -0.00011331 0.04674101
v 0.03127558 -0.00011331 0.04564054
v 0.03118382 -0.00011331 0.04497694
v 0.03080186 -0.00011331 0.04220088
v 0.01489588 0.03207120 0.05445537
v 0.01489588 0.03327049 0.01467804
v 0.02536899 0.02539658 -0.00098846
v 0.02983521 0.00288848 -0.00098846
v 0.03272448 -0.00011331 0.01468357
v 0.03199256 -0.00012045 0.01176373
v 0.03276289 -0.00011331 0.01485500
v 0.03301469 -0.00011331 0.01599418
v 0.03324515 -0.00011331 0.01705595
v 0.03339026 -0.00011331 0.01772507
v 0.03348202 -0.00011331 0.01815642
v 0.03361431 -0.00011331 0.01882002
v 0.03369540 -0.00011331 0.01925689
v 0.03380850 -0.00011331 0.01992049
v 0.03388105 -0.00011331 0.02035736
v 0.03403469 -0.00011331 0.02130299
v 0.03440812 -0.00011331 0.02365324
v 0.03458310 -0.00011331 0.02475924
v 0.03475594 -0.00011331 0.02585418
v 0.03490745 -0.00011331 0.02695465
v 0.03498427 -0.00011331 0.02761272
v 0.03503335 -0.00011331 0.02804960
v 0.03520406 -0.00011331 0.02964224
v 0.03556042 -0.00011331 0.03310955
v 0.03571619 -0.00011331 0.03464689
v 0.03578021 -0.00011331 0.03531049
v 0.03582075 -0.00011331 0.03574736
v 0.03588050 -0.00011331 0.03641096
v 0.03596586 -0.00011331 0.03750590
v 0.03599573 -0.00011331 0.03794277
v 0.03604054 -0.00011331 0.03860638
v 0.03613016 -0.00011331 0.04014371
v 0.03625393 -0.00011331 0.04234466
v 0.03658041 -0.00011331 0.04850508
v 0.03666150 -0.00011331 0.05004243
v 0.03669564 -0.00011331 0.05113736
v 0.03668924 -0.00011331 0.05224337
v 0.03664443 -0.00011331 0.05290697
v 0.03661456 -0.00011331 0.05334384
v 0.03642251 -0.00011331 0.05420652
v 0.03614724 -0.00011331 0.05475399
v 0.03559669 -0.00011331 0.05525169
v 0.03464711 0.00935608 0.05549501
v 0.01705110 0.03244598 0.05547289
v 0.01489588 0.03354890 0.05545077
v 0.01489588 0.03268869 0.05517980
v 0.01489588 0.03213902 0.05457150
v 0.02585124 0.03042931 -0.00098846
v 0.02536899 0.03044716 -0.00098846
v 0.01489588 0.03329548 0.01484947
v 0.03005713 0.00387718 -0.00098846
v 0.03014035 0.00434476 -0.00098846
v 0.03022784 0.00495868 -0.00098846
v 0.03026625 0.00534060 -0.00098846
v 0.03225930 0.00826030 0.00825218
v 0.03246202 0.00826030 0.00935265
v 0.03253030 0.00935965 0.00957385
v 0.03266260 0.00935965 0.01045312
v 0.03267967 0.01045543 0.01045312
v 0.03476235 0.00055415 0.02585418
v 0.03491172 0.00055415 0.02695465
v 0.03503548 0.00055415 0.02804960
v 0.03550280 0.00055415 0.03244595
v 0.03561590 0.00055415 0.03354642
v 0.03572686 0.00055415 0.03464689
v 0.03582929 0.00055415 0.03574736
v 0.03591464 0.00055415 0.03684230
v 0.03598719 0.00055415 0.03794277
v 0.03611950 0.00055415 0.04014371
v 0.03618351 0.00055415 0.04124418
v 0.03624540 0.00055415 0.04234466
v 0.03642251 0.00055415 0.04564054
v 0.03665724 0.00055415 0.05004243
v 0.03668924 0.00055415 0.05113736
v 0.03668498 0.00055415 0.05224337
v 0.03661029 0.00055415 0.05334384
v 0.03636916 0.00825673 0.05407933
v 0.03608535 0.00935608 0.05461021
v 0.03552414 0.01045543 0.05522404
v 0.03553481 0.00935608 0.05522957
v 0.03557109 0.00385576 0.05524616
v 0.02365121 0.02584988 0.05547842
v 0.03464711 0.01265770 0.05546736
v 0.03244708 0.01704795 0.05547289
v 0.01595215 0.03354890 0.05545077
v 0.02365334 0.02695280 0.05524616
v 0.02034796 0.03024728 0.05523510
v 0.01924687 0.03134306 0.05522957
v 0.01813512 0.03243527 0.05522404
v 0.01489588 0.03464468 0.05537335
v 0.02695019 0.03032937 -0.00098846
v 0.01489588 0.03344539 0.01595547
v 0.01489588 0.03358459 0.01705595
v 0.03031746 0.00602591 -0.00098846
v 0.03034734 0.00656131 -0.00098846
v 0.03037721 0.00715738 -0.00098846
v 0.03041776 0.00826030 -0.00098846
v 0.03230624 0.01045900 0.00825218
v 0.03249616 0.00936322 0.00935265
v 0.03251750 0.01045900 0.00935265
v 0.03254737 0.01024127 0.00957385
v 0.03267541 0.01155121 0.01045312
v 0.03302963 0.01155478 0.01297480
v 0.03313846 0.01155478 0.01375453
v 0.03327076 0.01155478 0.01485500
v 0.03520193 0.00118235 0.02966436
v 0.03559243 0.00165707 0.03354642
v 0.03570552 0.00165707 0.03464689
v 0.03581008 0.00165707 0.03574736
v 0.03589117 0.00165707 0.03684230
v 0.03595945 0.00165707 0.03794277
v 0.03609389 0.00165707 0.04014371
v 0.03626887 0.00275285 0.04350596
v 0.03630088 0.00238521 0.04391518
v 0.03627740 0.00165707 0.04325158
v 0.03640757 0.00165707 0.04564054
v 0.03655481 0.00385576 0.04894195
v 0.03658682 0.00495511 0.05004243
v 0.03667217 0.00165707 0.05113736
v 0.03662736 0.00495511 0.05224337
v 0.03667431 0.00165707 0.05224337
v 0.03659749 0.00165707 0.05334384
v 0.03635422 0.01045543 0.05404062
v 0.03607468 0.01045543 0.05458809
v 0.03550920 0.01155478 0.05521298
v 0.03464711 0.01375704 0.05543971
v 0.03354816 0.01595217 0.05543418
v 0.03244708 0.01813659 0.05522957
v 0.03134813 0.01924308 0.05523510
v 0.02915023 0.02144535 0.05524063
v 0.01700843 0.03352391 0.05520745
v 0.01586680 0.03459828 0.05515768
v 0.02409719 0.02673507 0.05516321
v 0.02328845 0.02768808 0.05510791
v 0.02108415 0.02987964 0.05509685
v 0.01998093 0.03097542 0.05509132
v 0.01887558 0.03205692 0.05509132
v 0.01775742 0.03313843 0.05509132
v 0.01489588 0.03469108 0.05535676
v 0.02203799 0.03300636 0.02081082
v 0.02214255 0.03303135 0.02145230
v 0.02805128 0.03009023 -0.00098846
v 0.01489588 0.03370595 0.01815642
v 0.01595215 0.03358102 0.01815642
v 0.01705110 0.03375235 0.02145230
v 0.01925114 0.03378090 0.02475371
v 0.01925114 0.03388441 0.02585418
v 0.01947093 0.03405931 0.02804960
v 0.01971633 0.03408786 0.02874085
v 0.03043269 0.00935965 -0.00098846
v 0.03230411 0.01155835 0.00825218
v 0.03250470 0.01155835 0.00935265
v 0.03254097 0.01155835 0.00957385
v 0.03278850 0.01265770 0.01155359
v 0.03301469 0.01265770 0.01308540
v 0.03310645 0.01265770 0.01375453
v 0.03323875 0.01265770 0.01485500
v 0.03547720 0.00165707 0.03244595
v 0.03335185 0.01265770 0.01595547
v 0.03363352 0.01375704 0.01925689
v 0.03374235 0.01375704 0.02035736
v 0.03591464 0.00275642 0.03794277
v 0.03383837 0.01375704 0.02145783
v 0.03393013 0.01375704 0.02255277
v 0.03540038 0.01595217 0.04234466
v 0.03599360 0.00275642 0.03904324
v 0.03630515 0.00458747 0.04497141
v 0.03619845 0.00275642 0.04234466
v 0.03631581 0.00385576 0.04478339
v 0.03653560 0.00495511 0.04894195
v 0.03643318 0.00385576 0.04674101
v 0.03656121 0.00605446 0.05004243
v 0.03656975 0.00715738 0.05113736
v 0.03659535 0.00605446 0.05113736
v 0.03661669 0.00495511 0.05113736
v 0.03663589 0.00385576 0.05113736
v 0.03657188 0.00825673 0.05224337
v 0.03649506 0.00935608 0.05334384
v 0.03633715 0.01155478 0.05400191
v 0.03605761 0.01155478 0.05455491
v 0.03647585 0.01045543 0.05334384
v 0.03547080 0.01265770 0.05519086
v 0.03540891 0.01375704 0.05515768
v 0.03474314 0.01494206 0.05526275
v 0.03442519 0.01595217 0.05515768
v 0.03352469 0.01700155 0.05520192
v 0.03314273 0.01776539 0.05508579
v 0.03208005 0.01887901 0.05509685
v 0.02988429 0.02107771 0.05510238
v 0.01661366 0.03419851 0.05506367
v 0.01544216 0.03522291 0.05501943
v 0.02878534 0.02218063 0.05510238
v 0.02841831 0.02291591 0.05480376
v 0.02512572 0.02621752 0.05479823
v 0.02402251 0.02732044 0.05479823
v 0.02181607 0.02951914 0.05479270
v 0.02071498 0.03061492 0.05478717
v 0.01960750 0.03171070 0.05478164
v 0.01849148 0.03279220 0.05475952
v 0.01734771 0.03387370 0.05473187
v 0.01489588 0.03533712 0.05510238
v 0.01986570 0.03411285 0.02947081
v 0.02269309 0.03289928 0.02145230
v 0.02365121 0.03237102 0.01705595
v 0.02684777 0.03098970 0.00935265
v 0.02730015 0.03072557 0.00715171
v 0.02875759 0.02979755 -0.00098846
v 0.02365121 0.03244241 0.01815642
v 0.02456451 0.03199625 0.01485500
v 0.02509371 0.03183919 0.01468357
v 0.02511292 0.03184276 0.01485500
v 0.01595215 0.03378804 0.02035736
v 0.01489588 0.03380589 0.01925689
v 0.01541228 0.03409857 0.02308918
v 0.01914658 0.03400934 0.02705419
v 0.01705110 0.03395580 0.02365324
v 0.01815219 0.03450904 0.03135101
v 0.01661366 0.03521220 0.03724599
v 0.01700843 0.03513010 0.03686442
v 0.01738399 0.03517293 0.03794831
v 0.01756751 0.03519435 0.03856213
v 0.03042416 0.01045543 -0.00098846
v 0.03208005 0.01155835 0.00715171
v 0.03037721 0.01485996 -0.00098846
v 0.03020437 0.02144178 -0.00098846
v 0.03008060 0.02584275 -0.00098846
v 0.03261993 0.01265770 0.01045312
v 0.03299762 0.01320737 0.01320706
v 0.03001872 0.02694209 -0.00098846
v 0.03297201 0.01393551 0.01342826
v 0.03314059 0.01373920 0.01468357
v 0.03328356 0.01375704 0.01595547
v 0.03351829 0.01375704 0.01815642
v 0.03343293 0.01485282 0.01815642
v 0.03354176 0.01485282 0.01925689
v 0.03364419 0.01485282 0.02035736
v 0.03383624 0.01485282 0.02255277
v 0.03548787 0.01595217 0.04343960
v 0.03630301 0.01217941 0.05054565
v 0.03638410 0.01155478 0.05113736
v 0.03628380 0.00715738 0.04638156
v 0.03609389 0.00385576 0.04124418
v 0.03393013 0.01485282 0.02365324
v 0.03410297 0.01437811 0.02521823
v 0.03520193 0.01653040 0.04064141
v 0.03410297 0.01545247 0.02634082
v 0.03650146 0.00605446 0.04894195
v 0.03646945 0.00495511 0.04784148
v 0.03652066 0.00715738 0.05004243
v 0.03653774 0.00825673 0.05113736
v 0.03654627 0.00935608 0.05224337
v 0.03631581 0.01265770 0.05393555
v 0.03630088 0.01322879 0.05390237
v 0.03602134 0.01265770 0.05448855
v 0.03643531 0.01155478 0.05334384
v 0.03651000 0.01045543 0.05224337
v 0.03599146 0.01366067 0.05433371
v 0.03531502 0.01463510 0.05508579
v 0.03517632 0.01536324 0.05496966
v 0.03418833 0.01660893 0.05505261
v 0.03387678 0.01734064 0.05472634
v 0.03281197 0.01849710 0.05476505
v 0.03171516 0.01960715 0.05478164
v 0.03061621 0.02071364 0.05479270
v 0.02951726 0.02181299 0.05480376
v 0.01617408 0.03493379 0.05463233
v 0.01650270 0.03519792 0.05389684
v 0.01586680 0.03535854 0.05433924
v 0.01489588 0.03583326 0.05434477
v 0.02983521 0.02213423 0.05406827
v 0.02873626 0.02323358 0.05406827
v 0.02763517 0.02432936 0.05406827
v 0.02409719 0.02774876 0.05417887
v 0.02100946 0.03090404 0.05405721
v 0.01990411 0.03199981 0.05404615
v 0.01880089 0.03309560 0.05402956
v 0.01808817 0.03348465 0.05438348
v 0.01768700 0.03416996 0.05400191
v 0.01815219 0.03503730 0.03794831
v 0.01995959 0.03413783 0.03025054
v 0.02145117 0.03348822 0.02585418
v 0.02051013 0.03399506 0.03025054
v 0.02282540 0.03292070 0.02255277
v 0.02685630 0.03101111 0.01045312
v 0.02736203 0.03073628 0.00825218
v 0.02516627 0.03184633 0.01595547
v 0.02907554 0.02941206 -0.00098846
v 0.02805128 0.03032937 0.00605677
v 0.02881308 0.02986179 0.00385582
v 0.02935935 0.02925858 0.00385582
v 0.02290648 0.03293497 0.02365324
v 0.02295983 0.03294568 0.02475371
v 0.01595215 0.03388798 0.02145230
v 0.01489588 0.03419137 0.02365324
v 0.01617408 0.03405931 0.02365324
v 0.01584760 0.03400934 0.02265784
v 0.01683558 0.03524075 0.03794831
v 0.01489588 0.03447335 0.02695465
v 0.01489588 0.03465896 0.02915006
v 0.01595215 0.03558698 0.04124418
v 0.01595215 0.03567621 0.04234466
v 0.01714073 0.03528358 0.03897688
v 0.01705110 0.03537996 0.04014371
v 0.01705110 0.03545848 0.04124418
v 0.01768487 0.03521933 0.03929763
v 0.03039001 0.01379631 -0.00098846
v 0.03279917 0.01484925 0.01265406
v 0.03298269 0.01523831 0.01442366
v 0.03294001 0.01486710 0.01377665
v 0.02982454 0.02805572 -0.00098846
v 0.03278850 0.02144178 0.02035736
v 0.03294001 0.02033529 0.02031865
v 0.03303176 0.01893969 0.01925689
v 0.03318327 0.01704795 0.01815642
v 0.03332411 0.01595217 0.01815642
v 0.03320888 0.01595217 0.01705595
v 0.03302536 0.01564878 0.01515915
v 0.03319394 0.01485282 0.01595547
v 0.03331770 0.01485282 0.01705595
v 0.03342654 0.01595217 0.01925689
v 0.03352469 0.01595217 0.02035736
v 0.03381703 0.01595217 0.02365324
v 0.03522753 0.01669816 0.04124418
v 0.03527661 0.01694444 0.04234466
v 0.03573113 0.01595217 0.04674101
v 0.03630301 0.01327162 0.05161847
v 0.03632221 0.01258988 0.05120925
v 0.03638623 0.01265770 0.05224337
v 0.03645665 0.01155478 0.05224337
v 0.03644384 0.01045543 0.05113736
v 0.03642464 0.00935608 0.05004243
v 0.03638196 0.00715738 0.04784148
v 0.03501414 0.01704795 0.03904324
v 0.03511657 0.01695872 0.04022114
v 0.03427369 0.01704795 0.03025054
v 0.03492239 0.01704795 0.03794277
v 0.03409657 0.01648400 0.02751319
v 0.03647585 0.00825673 0.05004243
v 0.03649506 0.00935608 0.05113736
v 0.03556255 0.01494206 0.05453832
v 0.03637556 0.01265770 0.05334384
v 0.03632221 0.01339298 0.05334384
v 0.03623899 0.01394265 0.05334384
v 0.03603414 0.01485282 0.05334384
v 0.03538117 0.01574158 0.05423417
v 0.03517845 0.01646972 0.05384154
v 0.03500774 0.01604498 0.05453832
v 0.03440385 0.01700155 0.05439454
v 0.03416699 0.01767615 0.05399085
v 0.03308725 0.01878978 0.05403508
v 0.03091922 0.02102060 0.05405721
v 0.01716847 0.03484099 0.05334384
v 0.01662006 0.03528715 0.05334384
v 0.01595215 0.03571190 0.05334384
v 0.01504952 0.03617234 0.05334384
v 0.01489588 0.03603314 0.05386919
v 0.03272662 0.01951435 0.05334384
v 0.03108993 0.02118836 0.05334384
v 0.03055219 0.02173803 0.05334384
v 0.03000378 0.02229842 0.05334384
v 0.02890483 0.02340133 0.05334384
v 0.02670266 0.02560003 0.05334384
v 0.02505104 0.02724549 0.05334384
v 0.02321803 0.02871604 0.05405721
v 0.02394142 0.02834484 0.05334384
v 0.02283393 0.02943705 0.05334384
v 0.01950507 0.03270654 0.05334384
v 0.01895666 0.03323837 0.05334384
v 0.01836985 0.03378804 0.05334384
v 0.01781930 0.03428775 0.05334384
v 0.01925114 0.03462326 0.03574736
v 0.01925114 0.03456972 0.03464689
v 0.01776382 0.03524432 0.04014371
v 0.01782784 0.03528001 0.04124418
v 0.02006628 0.03417352 0.03135101
v 0.02013883 0.03420922 0.03244595
v 0.02061469 0.03401291 0.03135101
v 0.02739831 0.03074341 0.00935265
v 0.02519187 0.03184990 0.01705595
v 0.02932948 0.02909439 -0.00098846
v 0.02881734 0.02987250 0.00495629
v 0.02881521 0.02986536 0.00425398
v 0.02936362 0.02927643 0.00495629
v 0.02936149 0.02926572 0.00425398
v 0.02976479 0.02870534 0.00385582
v 0.02977759 0.02871961 0.00495629
v 0.02068938 0.03402718 0.03244595
v 0.02073846 0.03403075 0.03355195
v 0.02298330 0.03294568 0.02585418
v 0.01489588 0.03609025 0.04669677
v 0.01489588 0.03617948 0.04780277
v 0.01595215 0.03575830 0.04344513
v 0.01595215 0.03583683 0.04454560
v 0.01595215 0.03590821 0.04564607
v 0.01705110 0.03552630 0.04234466
v 0.02969010 0.02856613 -0.00098846
v 0.03282051 0.02254827 0.02365324
v 0.03275009 0.02254827 0.02255277
v 0.03299549 0.02198789 0.02422283
v 0.03267114 0.02254827 0.02145783
v 0.03258792 0.02254827 0.02035736
v 0.03308298 0.02132399 0.02365324
v 0.03300616 0.02093494 0.02193341
v 0.03303390 0.02108842 0.02255277
v 0.03389385 0.01924308 0.02914454
v 0.03302109 0.01996408 0.02065598
v 0.03338812 0.01704795 0.02035736
v 0.03408804 0.01750483 0.02871319
v 0.03460657 0.01814373 0.03574736
v 0.03514858 0.01724783 0.04124418
v 0.03518059 0.01749412 0.04234466
v 0.03530649 0.01715503 0.04334006
v 0.03540038 0.01704795 0.04454007
v 0.03579728 0.01595217 0.04784148
v 0.03623899 0.01368566 0.05120925
v 0.03632435 0.01342510 0.05224337
v 0.03443586 0.01814373 0.03354642
v 0.03452335 0.01814373 0.03464689
v 0.03416699 0.01710506 0.02910583
v 0.03626460 0.01397477 0.05224337
v 0.03613016 0.01485282 0.05224337
v 0.03579941 0.01595217 0.05224337
v 0.03553694 0.01604498 0.05342126
v 0.03530222 0.01665176 0.05310605
v 0.03490959 0.01703011 0.05342126
v 0.03429929 0.01782606 0.05334384
v 0.03379996 0.01837217 0.05334384
v 0.03324942 0.01896468 0.05334384
v 0.01735625 0.03498733 0.05224337
v 0.01680784 0.03541922 0.05224337
v 0.01595215 0.03592249 0.05224337
v 0.01523730 0.03625087 0.05224337
v 0.01489588 0.03622231 0.05334384
v 0.03290160 0.01969638 0.05224337
v 0.03125851 0.02135969 0.05224337
v 0.03071437 0.02190936 0.05224337
v 0.02961755 0.02301228 0.05224337
v 0.02632497 0.02632103 0.05224337
v 0.02522602 0.02742038 0.05224337
v 0.02409932 0.02854115 0.05224337
v 0.02135515 0.03124669 0.05224337
v 0.02079607 0.03179636 0.05224337
v 0.02024553 0.03233176 0.05224337
v 0.01968005 0.03288143 0.05224337
v 0.01913164 0.03339184 0.05224337
v 0.01853202 0.03394152 0.05224337
v 0.01798148 0.03443765 0.05224337
v 0.01925114 0.03466252 0.03684230
v 0.02018792 0.03424135 0.03355195
v 0.01705110 0.03557270 0.04344513
v 0.01705110 0.03560839 0.04454560
v 0.01785344 0.03530500 0.04234466
v 0.02740471 0.03074341 0.01045312
v 0.02520254 0.03184633 0.01815642
v 0.02881094 0.02986536 0.00605677
v 0.02935722 0.02927999 0.00605677
v 0.02979253 0.02872318 0.00715171
v 0.02978826 0.02872675 0.00605677
v 0.03018943 0.02803787 0.00825218
v 0.03065888 0.02716339 0.01045312
v 0.03066102 0.02711342 0.00957385
v 0.02019432 0.03426633 0.03464689
v 0.01925114 0.03468751 0.03794831
v 0.01784918 0.03531214 0.04344513
v 0.01782997 0.03531571 0.04454560
v 0.02074486 0.03402005 0.03464689
v 0.02297263 0.03292783 0.02695465
v 0.01489588 0.03624730 0.04888665
v 0.01595215 0.03597246 0.04674654
v 0.01595215 0.03602600 0.04784701
v 0.03066102 0.02709914 0.00935265
v 0.03088081 0.02661372 0.01045312
v 0.03084880 0.02654947 0.00935265
v 0.03197549 0.02440074 0.01815642
v 0.03305524 0.02216278 0.02585418
v 0.03302323 0.02208069 0.02495832
v 0.03330917 0.02144178 0.02695465
v 0.03323022 0.02144178 0.02585418
v 0.03311925 0.02155243 0.02465417
v 0.03370180 0.02034243 0.02914454
v 0.03361431 0.02034243 0.02804960
v 0.03404109 0.01945367 0.03135101
v 0.03400482 0.01916099 0.03031137
v 0.03413285 0.01890400 0.03135101
v 0.03410511 0.01873981 0.03071506
v 0.03407097 0.01850066 0.02998509
v 0.03412005 0.01776895 0.02944316
v 0.03433984 0.01814373 0.03244595
v 0.03418406 0.01913600 0.03244595
v 0.03421820 0.01934659 0.03345794
v 0.03476448 0.01814373 0.03794277
v 0.03483916 0.01814373 0.03904324
v 0.03519552 0.01759406 0.04290319
v 0.03521686 0.01765117 0.04363868
v 0.03545159 0.01704795 0.04564054
v 0.03584209 0.01595217 0.04894195
v 0.03610456 0.01485282 0.05113736
v 0.03604481 0.01485282 0.05004243
v 0.03586130 0.01595217 0.05004243
v 0.03584636 0.01595217 0.05113736
v 0.03538117 0.01678025 0.05224337
v 0.03546013 0.01698727 0.05004243
v 0.03543238 0.01688376 0.05113736
v 0.03499494 0.01732993 0.05224337
v 0.03444440 0.01800096 0.05224337
v 0.03396640 0.01854707 0.05224337
v 0.03341800 0.01914314 0.05224337
v 0.01748855 0.03510512 0.05114290
v 0.01693801 0.03549774 0.05114290
v 0.01595215 0.03601886 0.05114290
v 0.01595215 0.03606526 0.05004243
v 0.01525224 0.03626872 0.05114290
v 0.01489588 0.03634367 0.05224337
v 0.03296988 0.01976777 0.05154659
v 0.03078479 0.02198075 0.05161847
v 0.02647647 0.02647095 0.05092169
v 0.02537752 0.02757029 0.05092169
v 0.02409719 0.02869463 0.05157976
v 0.02308573 0.02968333 0.05162953
v 0.02198251 0.03077911 0.05160742
v 0.02087929 0.03187489 0.05157976
v 0.01976754 0.03296710 0.05151340
v 0.01863445 0.03403789 0.05134751
v 0.01595215 0.03606170 0.04894748
v 0.01705110 0.03562981 0.04564607
v 0.02737697 0.03070772 0.01155359
v 0.02878320 0.02984395 0.00715171
v 0.02518334 0.03182849 0.01925689
v 0.02932948 0.02927643 0.00715171
v 0.02978826 0.02871248 0.00825218
v 0.03018730 0.02803787 0.00935265
v 0.03065248 0.02720266 0.01155359
v 0.03092349 0.02665655 0.01215083
v 0.03091068 0.02664941 0.01155359
v 0.01705110 0.03562981 0.04674654
v 0.01705110 0.03561196 0.04784701
v 0.01779796 0.03531214 0.04564607
v 0.02010256 0.03427347 0.03794831
v 0.02072139 0.03399863 0.03574736
v 0.02294276 0.03289928 0.02804960
v 0.01489588 0.03626158 0.04913550
v 0.01516902 0.03627228 0.05004243
v 0.03200963 0.02445071 0.01925689
v 0.03309365 0.02222703 0.02695465
v 0.03391092 0.02034243 0.03244595
v 0.03409444 0.01978205 0.03303213
v 0.03378076 0.02034243 0.03025054
v 0.03407737 0.01968568 0.03244595
v 0.03432063 0.01924308 0.03464689
v 0.03490532 0.01814373 0.04014371
v 0.03438678 0.01924308 0.03574736
v 0.03444226 0.01924308 0.03684230
v 0.03524033 0.01769400 0.04454007
v 0.03417339 0.01997836 0.03574736
v 0.03548360 0.01704795 0.04674101
v 0.03549427 0.01704795 0.04784148
v 0.03542385 0.01715146 0.04901384
v 0.03519339 0.01759049 0.04942306
v 0.03515498 0.01753695 0.05004243
v 0.03508029 0.01743344 0.05113736
v 0.03523607 0.01766188 0.04784148
v 0.03521686 0.01763332 0.04869310
v 0.03416699 0.01877550 0.05004243
v 0.03411364 0.01871125 0.05067837
v 0.03404536 0.01863630 0.05141386
v 0.03366553 0.01932518 0.05004243
v 0.01822047 0.03446621 0.05104888
v 0.01876035 0.03415211 0.05004243
v 0.01886491 0.03424135 0.04894748
v 0.01756324 0.03516580 0.05032445
v 0.01761445 0.03520863 0.04959449
v 0.01713859 0.03547633 0.04999265
v 0.01705110 0.03557984 0.04894748
v 0.01489588 0.03633653 0.05114290
v 0.03311499 0.01991411 0.05004243
v 0.02875973 0.02435791 0.05004243
v 0.02821772 0.02490759 0.05004243
v 0.02766718 0.02546440 0.05004243
v 0.02657250 0.02657089 0.05004243
v 0.02757542 0.02536803 0.05091063
v 0.02409719 0.02881955 0.05101571
v 0.02547568 0.02766667 0.05004243
v 0.02094544 0.03194270 0.05084427
v 0.02380058 0.02930855 0.05004243
v 0.01983369 0.03303135 0.05078344
v 0.01941545 0.03373807 0.04894748
v 0.02734923 0.03069344 0.01215083
v 0.02873839 0.02981539 0.00825218
v 0.02928680 0.02926572 0.00825218
v 0.02514279 0.03178922 0.02035736
v 0.02226418 0.03318840 0.03135101
v 0.02290862 0.03286002 0.02915006
v 0.02445142 0.03208548 0.02365324
v 0.02977119 0.02868392 0.00935265
v 0.02984801 0.02855899 0.00957385
v 0.03064181 0.02720266 0.01215083
v 0.03093629 0.02662086 0.01468357
v 0.03174717 0.02501823 0.02035736
v 0.03202884 0.02446856 0.02035736
v 0.01775529 0.03529429 0.04674654
v 0.02005135 0.03425562 0.03904324
v 0.02069365 0.03396651 0.03684230
v 0.01489588 0.03630441 0.05004243
v 0.03311712 0.02225558 0.02804960
v 0.03414138 0.01992125 0.03464689
v 0.03411578 0.01985343 0.03376762
v 0.03525314 0.01771185 0.04564054
v 0.03419687 0.01999978 0.03684230
v 0.03524887 0.01769400 0.04674101
v 0.03425021 0.01887544 0.04894195
v 0.03412645 0.01983916 0.04234466
v 0.03440385 0.01910031 0.04564054
v 0.03436544 0.01902892 0.04674101
v 0.03431637 0.01895754 0.04784148
v 0.03467486 0.01814373 0.05004243
v 0.03419900 0.01996408 0.03904324
v 0.03418193 0.01992482 0.04014371
v 0.03416059 0.01988556 0.04124418
v 0.03376369 0.01942512 0.04894195
v 0.01950934 0.03383444 0.04784701
v 0.01958829 0.03391654 0.04674654
v 0.01895880 0.03430916 0.04784701
v 0.01903988 0.03436627 0.04674654
v 0.01978034 0.03408072 0.04383223
v 0.01982729 0.03411999 0.04309674
v 0.01987423 0.03415568 0.04234466
v 0.01994252 0.03420565 0.04124418
v 0.01764646 0.03523004 0.04894748
v 0.01769981 0.03526574 0.04784701
v 0.03321315 0.02001405 0.04894195
v 0.03267541 0.02056730 0.04894195
v 0.02940843 0.02389747 0.04894195
v 0.02722760 0.02611758 0.04894195
v 0.02667706 0.02667440 0.04894195
v 0.02612438 0.02722407 0.04894195
v 0.02557597 0.02776304 0.04894195
v 0.02325004 0.02984395 0.05004243
v 0.02166670 0.03157506 0.04894748
v 0.02446422 0.02885168 0.04894195
v 0.02409719 0.02920861 0.04894748
v 0.02278272 0.03048999 0.04894748
v 0.02055068 0.03265657 0.04894748
v 0.02000013 0.03318840 0.04894748
v 0.02009616 0.03328477 0.04784701
v 0.02807262 0.03010451 0.01215083
v 0.02815157 0.03007952 0.01155912
v 0.02662798 0.03097542 0.01595547
v 0.02723400 0.03058280 0.01485500
v 0.02923985 0.02923716 0.00935265
v 0.02868291 0.02976899 0.00957385
v 0.02973918 0.02864466 0.01045312
v 0.02976479 0.02867678 0.00957385
v 0.02221084 0.03315984 0.03244595
v 0.02439593 0.03204622 0.02475924
v 0.03092562 0.02658159 0.01595547
v 0.03093629 0.02661372 0.01485500
v 0.03203311 0.02440074 0.02365324
v 0.03283332 0.02280169 0.02914454
v 0.03285039 0.02280526 0.02804960
v 0.03312352 0.02225201 0.02914454
v 0.02000013 0.03423421 0.04014371
v 0.02065310 0.03392724 0.03794831
v 0.03420540 0.01999264 0.03794277
v 0.03384264 0.01950721 0.04784148
v 0.03407524 0.01976420 0.04371057
v 0.03308511 0.02211281 0.03354642
v 0.03301683 0.02202001 0.03541556
v 0.03403683 0.01971780 0.04454007
v 0.03397708 0.01964998 0.04564054
v 0.03391306 0.01957860 0.04674101
v 0.03312352 0.02219847 0.03135101
v 0.03311285 0.02216635 0.03244595
v 0.03329423 0.02010686 0.04784148
v 0.02018578 0.03336686 0.04674654
v 0.02097105 0.03306347 0.04344513
v 0.02112042 0.03319910 0.04124418
v 0.02119511 0.03326335 0.04014371
v 0.01966085 0.03398078 0.04564607
v 0.01973340 0.03404146 0.04454560
v 0.02126766 0.03332403 0.03904324
v 0.02204226 0.03303491 0.03553169
v 0.02209347 0.03307418 0.03464689
v 0.02215536 0.03312058 0.03355195
v 0.03276716 0.02065653 0.04784148
v 0.03221662 0.02122048 0.04784148
v 0.03003792 0.02344060 0.04784148
v 0.02958768 0.02408307 0.04674101
v 0.02785923 0.02565714 0.04784148
v 0.02731082 0.02620682 0.04784148
v 0.02676028 0.02675649 0.04784148
v 0.02620760 0.02730616 0.04784148
v 0.02565919 0.02784513 0.04784148
v 0.02398623 0.02948702 0.04784701
v 0.02287447 0.03057566 0.04784701
v 0.02232393 0.03111462 0.04784701
v 0.02064670 0.03274937 0.04784701
v 0.02073419 0.03283503 0.04674654
v 0.02857622 0.02967262 0.01215083
v 0.02789337 0.03004026 0.01468357
v 0.02657250 0.03093259 0.01705595
v 0.02433832 0.03200339 0.02585418
v 0.02427857 0.03196055 0.02695465
v 0.02645727 0.03084336 0.01925689
v 0.02642099 0.03081123 0.01998685
v 0.02919718 0.02919433 0.01045312
v 0.02968157 0.02857684 0.01191304
v 0.03082533 0.02642811 0.01925689
v 0.03086587 0.02648165 0.01815642
v 0.03090215 0.02653162 0.01705595
v 0.03201817 0.02436148 0.02475924
v 0.03314059 0.02105629 0.04234466
v 0.03302536 0.02092423 0.04419721
v 0.03336252 0.02019252 0.04674101
v 0.03298482 0.02198075 0.03615105
v 0.03295494 0.02194149 0.03684230
v 0.03290373 0.02188081 0.03794277
v 0.03198616 0.02431151 0.02585418
v 0.03194562 0.02425440 0.02695465
v 0.03191574 0.02421514 0.02769568
v 0.03185173 0.02414018 0.02914454
v 0.03320034 0.02112768 0.04124418
v 0.03285252 0.02074219 0.04674101
v 0.03190081 0.02199502 0.04510966
v 0.02081528 0.03291356 0.04564607
v 0.02087076 0.03296710 0.04488293
v 0.02092197 0.03301707 0.04414744
v 0.02181820 0.03282789 0.03904324
v 0.02318175 0.03197483 0.03574736
v 0.02325857 0.03204265 0.03464689
v 0.02409932 0.03167501 0.03135101
v 0.02402891 0.03173925 0.03135101
v 0.02188862 0.03289571 0.03794831
v 0.02199745 0.03299565 0.03626718
v 0.02409719 0.03180350 0.03024501
v 0.02419535 0.03188916 0.02851965
v 0.03176637 0.02186296 0.04674101
v 0.03012755 0.02353340 0.04674101
v 0.03080826 0.02310508 0.04514837
v 0.02849299 0.02518956 0.04674101
v 0.02739191 0.02628891 0.04674101
v 0.02752208 0.02752033 0.03755014
v 0.02559091 0.02888023 0.04124418
v 0.02694379 0.02804144 0.03789300
v 0.02409719 0.02954769 0.04669677
v 0.02184594 0.03174639 0.04674654
v 0.02203373 0.03193200 0.04421933
v 0.02882801 0.02941920 0.01215083
v 0.02788270 0.03003312 0.01485500
v 0.02781655 0.02998315 0.01595547
v 0.02844178 0.02954056 0.01468357
v 0.02852714 0.02945489 0.01468357
v 0.02633990 0.03074341 0.02145783
v 0.02912036 0.02912295 0.01215083
v 0.02897952 0.02899088 0.01468357
v 0.02951939 0.02840551 0.01485500
v 0.02985654 0.02766310 0.01815642
v 0.03068022 0.02626392 0.02255277
v 0.03073570 0.02632460 0.02145783
v 0.03077412 0.02636386 0.02058962
v 0.03284185 0.02181656 0.03904324
v 0.03277143 0.02174874 0.04014371
v 0.03263059 0.02160597 0.04234466
v 0.03193922 0.02203786 0.04454007
v 0.03179625 0.02407950 0.03025054
v 0.03159779 0.02491116 0.02475924
v 0.03093416 0.02323358 0.04343960
v 0.03085307 0.02315148 0.04454007
v 0.02209134 0.03198554 0.04344513
v 0.02409932 0.03065418 0.03900453
v 0.02453677 0.03111819 0.03244595
v 0.02409932 0.03156436 0.03220816
v 0.02461146 0.03118958 0.03135101
v 0.02528363 0.03077911 0.02954822
v 0.02545007 0.03093616 0.02695465
v 0.02552049 0.03099684 0.02585418
v 0.02855488 0.02525381 0.04588939
v 0.02843111 0.02622823 0.04014371
v 0.03038575 0.02378325 0.04343960
v 0.02757542 0.02757029 0.03684230
v 0.02953006 0.02512531 0.04014371
v 0.02630363 0.02850189 0.03904324
v 0.02409932 0.03034365 0.04124418
v 0.02701634 0.02811997 0.03684230
v 0.02641886 0.02861253 0.03750590
v 0.02774827 0.02992961 0.01705595
v 0.02843324 0.02952985 0.01485500
v 0.02890696 0.02891236 0.01595547
v 0.02627375 0.03067917 0.02255277
v 0.02979466 0.02759528 0.01925689
v 0.03054579 0.02613186 0.02475924
v 0.03099604 0.02551437 0.02585418
v 0.03204164 0.02325142 0.03464689
v 0.03197549 0.02318004 0.03574736
v 0.03208218 0.02218777 0.04234466
v 0.03155725 0.02273744 0.04234466
v 0.03107713 0.02338706 0.04124418
v 0.03054366 0.02393673 0.04124418
v 0.02862103 0.02641741 0.03754461
v 0.02391581 0.03052212 0.04124418
v 0.02654476 0.02873746 0.03574736
v 0.02597501 0.02928713 0.03574736
v 0.02558024 0.02996530 0.03354642
v 0.02516200 0.03066132 0.03135101
v 0.02613718 0.03054353 0.02475924
v 0.02717212 0.02827702 0.03464689
v 0.02683923 0.02902658 0.03135101
v 0.02634844 0.02964763 0.03025054
v 0.02750074 0.02969760 0.02091036
v 0.02753488 0.02973330 0.02035736
v 0.02765438 0.02764882 0.03574736
v 0.02709530 0.02819849 0.03574736
v 0.02767785 0.02986536 0.01815642
v 0.02836709 0.02946203 0.01595547
v 0.02884295 0.02884097 0.01705595
v 0.02877466 0.02877315 0.01815642
v 0.02969650 0.02749177 0.02088271
v 0.03006566 0.02676720 0.02365324
v 0.02999738 0.02669581 0.02475924
v 0.03047537 0.02606404 0.02585418
v 0.03086801 0.02536803 0.02804960
v 0.03093416 0.02543941 0.02695465
v 0.03183679 0.02303369 0.03794277
v 0.03072504 0.02522168 0.03025054
v 0.02827534 0.02716339 0.03464689
v 0.02772693 0.02772734 0.03464689
v 0.02749647 0.02859469 0.02966436
v 0.02766931 0.02876602 0.02695465
v 0.02859969 0.02859825 0.02091589
v 0.02900939 0.02813068 0.02135276
v 0.02864023 0.02753817 0.02891781
v 0.02985654 0.02655661 0.02695465
v 0.02978613 0.02648522 0.02804960
v 0.02964316 0.02633888 0.03025054
v 0.02848659 0.02738112 0.03135101
v 0.02806835 0.02806643 0.02929384
f 1 2 3
f 1 3 4
f 1 4 5
f 1 5 6
f 1 6 7
f 1 7 8
f 1 8 14
f 1 14 9
f 1 9 16
f 1 16 43
f 1 43 20
f 1 20 10
f 1 10 11
f 1 11 2
f 2 11 3
f 3 11 4
f 4 11 5
f 5 11 6
f 6 11 12
f 6 12 7
f 7 12 13
f 7 13 8
f 8 13 15
f 8 15 40
f 8 40 86
f 8 86 85
f 8 85 128
f 8 128 179
f 8 179 244
f 8 244 324
f 8 324 417
f 8 417 433
f 8 433 347
f 8 347 266
f 8 266 263
f 8 263 262
f 8 262 261
f 8 261 343
f 8 343 259
f 8 259 187
f 8 187 134
f 8 134 133
f 8 133 132
f 8 132 131
f 8 131 91
f 8 91 90
f 8 90 89
f 8 89 88
f 8 88 41
f 8 41 14
f 9 14 16
f 10 17 18
f 10 18 19
f 10 19 11
f 10 20 21
f 10 21 22
f 10 22 23
f 10 23 24
f 10 24 25
f 10 25 26
f 10 26 27
f 10 27 28
f 10 28 29
f 10 29 30
f 10 30 31
f 10 31 32
f 10 32 33
f 10 33 34
f 10 34 35
f 10 35 36
f 10 36 37
f 10 37 17
f 11 37 36
f 11 36 35
f 11 35 34
f 11 34 33
f 11 33 32
f 11 32 31
f 11 31 30
f 11 30 29
f 11 29 38
f 11 38 84
f 11 84 83
f 11 83 82
f 11 82 127
f 11 127 176
f 11 176 238
f 11 238 306
f 11 306 393
f 11 393 470
f 11 470 550
f 11 550 611
f 11 611 640
f 11 640 578
f 11 578 505
f 11 505 428
f 11 428 427
f 11 427 336
f 11 336 335
f 11 335 331
f 11 331 250
f 11 250 180
f 11 180 130
f 11 130 129
f 11 129 87
f 11 87 39
f 11 39 13
f 11 13 12
f 11 19 18
f 11 18 17
f 11 17 37
f 13 39 86
f 13 86 40
f 13 40 15
f 14 41 42
f 14 42 20
f 14 20 43
f 14 43 16
f 20 42 44
f 20 44 45
f 20 45 46
f 20 46 47
f 20 47 48
f 20 48 49
f 20 49 50
f 20 50 51
f 20 51 52
f 20 52 53
f 20 53 54
f 20 54 55
f 20 55 56
f 20 56 57
f 20 57 58
f 20 58 59
f 20 59 60
f 20 60 61
f 20 61 62
f 20 62 63
f 20 63 64
f 20 64 65
f 20 65 66
f 20 66 67
f 20 67 68
f 20 68 69
f 20 69 70
f 20 70 71
f 20 71 72
f 20 72 73
f 20 73 74
f 20 74 75
f 20 75 76
f 20 76 77
f 20 77 78
f 20 78 79
f 20 79 21
f 21 80 81
f 21 81 82
f 21 82 22
f 21 79 80
f 22 82 83
f 22 83 23
f 23 83 24
f 24 83 25
f 25 83 84
f 25 84 26
f 26 84 27
f 27 84 38
f 27 38 28
f 28 38 29
f 39 85 86
f 39 87 85
f 41 88 42
f 42 88 44
f 44 88 45
f 45 88 46
f 46 88 47
f 47 88 89
f 47 89 48
f 48 89 90
f 48 90 49
f 49 90 91
f 49 91 92
f 49 92 50
f 50 92 93
f 50 93 51
f 51 93 52
f 52 93 53
f 53 93 54
f 54 93 55
f 55 93 56
f 56 93 94
f 56 94 95
f 56 95 96
f 56 96 97
f 56 97 57
f 57 97 98
f 57 98 58
f 58 98 99
f 58 99 59
f 59 99 60
f 60 99 100
f 60 100 61
f 61 100 101
f 61 101 62
f 62 101 102
f 62 102 63
f 63 103 64
f 63 102 103
f 64 103 65
f 65 103 104
f 65 104 66
f 66 104 67
f 67 104 68
f 68 104 105
f 68 105 106
f 68 106 69
f 69 106 107
f 69 107 108
f 69 108 70
f 70 108 109
f 70 109 110
f 70 110 71
f 71 110 72
f 72 110 73
f 73 111 112
f 73 112 74
f 73 110 111
f 74 112 75
f 75 113 76
f 75 112 113
f 76 113 77
f 77 114 78
f 77 113 114
f 78 114 115
f 78 115 116
f 78 116 117
f 78 117 118
f 78 118 79
f 79 118 80
f 80 119 81
f 80 118 117
f 80 117 116
f 80 116 120
f 80 120 121
f 80 121 119
f 81 122 82
f 81 119 123
f 81 123 124
f 81 124 125
f 81 125 126
f 81 126 122
f 82 122 127
f 85 87 129
f 85 129 130
f 85 130 128
f 91 131 92
f 92 131 132
f 92 132 133
f 92 133 134
f 92 134 135
f 92 135 136
f 92 136 93
f 93 136 94
f 94 136 137
f 94 137 138
f 94 138 95
f 95 138 96
f 96 138 137
f 96 137 139
f 96 139 140
f 96 140 141
f 96 141 97
f 97 141 98
f 98 141 142
f 98 142 99
f 99 142 143
f 99 143 100
f 100 144 145
f 100 145 101
f 100 143 144
f 101 145 102
f 102 145 146
f 102 146 103
f 103 146 104
f 104 146 147
f 104 147 105
f 105 148 149
f 105 149 106
f 105 147 148
f 106 149 150
f 106 150 151
f 106 151 152
f 106 152 107
f 107 152 108
f 108 153 109
f 108 152 154
f 108 154 153
f 109 153 154
f 109 154 110
f 110 154 155
f 110 155 156
f 110 156 111
f 111 156 157
f 111 157 158
f 111 158 112
f 112 158 113
f 113 159 160
f 113 160 114
f 113 158 159
f 114 160 115
f 115 160 161
f 115 161 162
f 115 162 116
f 116 162 120
f 119 121 123
f 120 162 163
f 120 163 121
f 121 163 164
f 121 164 165
f 121 165 166
f 121 166 167
f 121 167 123
f 122 126 168
f 122 168 169
f 122 169 127
f 123 167 170
f 123 170 171
f 123 171 124
f 124 171 125
f 125 171 172
f 125 172 173
f 125 173 174
f 125 174 126
f 126 174 175
f 126 175 168
f 127 169 176
f 128 177 178
f 128 178 179
f 128 130 180
f 128 180 181
f 128 181 182
f 128 182 183
f 128 183 184
f 128 184 185
f 128 185 186
f 128 186 177
f 134 187 135
f 135 188 137
f 135 137 136
f 135 187 188
f 137 189 190
f 137 190 139
f 137 188 189
f 139 190 191
f 139 191 192
f 139 192 140
f 140 192 141
f 141 192 193
f 141 193 194
f 141 194 142
f 142 194 143
f 143 195 144
f 143 194 195
f 144 195 194
f 144 194 196
f 144 196 145
f 145 196 197
f 145 197 198
f 145 198 146
f 146 199 147
f 146 198 200
f 146 200 201
f 146 201 202
f 146 202 199
f 147 199 203
f 147 203 204
f 147 204 148
f 148 204 205
f 148 205 149
f 149 205 150
f 150 205 206
f 150 206 207
f 150 207 208
f 150 208 151
f 151 208 152
f 152 208 154
f 154 208 207
f 154 207 155
f 155 207 209
f 155 209 210
f 155 210 211
f 155 211 212
f 155 212 213
f 155 213 156
f 156 213 157
f 157 214 215
f 157 215 158
f 157 213 214
f 158 215 159
f 159 215 160
f 160 216 217
f 160 217 161
f 160 215 218
f 160 218 216
f 161 217 162
f 162 219 163
f 162 217 219
f 163 219 220
f 163 220 221
f 163 221 164
f 164 221 222
f 164 222 223
f 164 223 165
f 165 223 224
f 165 224 225
f 165 225 166
f 166 225 167
f 167 225 226
f 167 226 170
f 168 175 227
f 168 227 169
f 169 227 228
f 169 228 176
f 170 226 171
f 171 226 229
f 171 229 230
f 171 230 231
f 171 231 232
f 171 232 233
f 171 233 234
f 171 234 172
f 172 234 173
f 173 234 235
f 173 235 174
f 174 235 175
f 175 235 236
f 175 236 237
f 175 237 227
f 176 228 238
f 177 186 239
f 177 239 178
f 178 240 241
f 178 241 179
f 178 239 240
f 179 242 243
f 179 243 244
f 179 241 240
f 179 240 245
f 179 245 246
f 179 246 247
f 179 247 248
f 179 248 242
f 180 249 181
f 180 250 251
f 180 251 249
f 181 249 182
f 182 249 252
f 182 252 184
f 182 184 183
f 184 252 185
f 185 252 253
f 185 253 254
f 185 254 255
f 185 255 256
f 185 256 186
f 186 256 257
f 186 257 258
f 186 258 239
f 187 259 260
f 187 260 188
f 188 260 261
f 188 261 262
f 188 262 263
f 188 263 189
f 189 263 190
f 190 264 191
f 190 263 264
f 191 265 192
f 191 264 266
f 191 266 265
f 192 265 193
f 193 265 267
f 193 267 268
f 193 268 194
f 194 269 270
f 194 270 197
f 194 197 196
f 194 268 269
f 197 270 356
f 197 356 271
f 197 271 272
f 197 272 198
f 198 272 273
f 198 273 274
f 198 274 200
f 199 202 275
f 199 275 276
f 199 276 277
f 199 277 278
f 199 278 279
f 199 279 203
f 200 274 280
f 200 280 281
f 200 281 201
f 201 281 202
f 202 282 275
f 202 281 283
f 202 283 282
f 203 279 204
f 204 206 205
f 204 279 284
f 204 284 285
f 204 285 206
f 206 285 207
f 207 285 284
f 207 284 209
f 209 284 286
f 209 286 287
f 209 287 210
f 210 287 288
f 210 288 214
f 210 214 211
f 211 214 212
f 212 214 213
f 214 288 218
f 214 218 215
f 216 218 289
f 216 289 217
f 217 289 290
f 217 290 291
f 217 291 220
f 217 220 219
f 218 292 290
f 218 290 289
f 218 288 293
f 218 293 292
f 220 291 294
f 220 294 295
f 220 295 221
f 221 295 222
f 222 295 296
f 222 296 297
f 222 297 223
f 223 297 224
f 224 297 298
f 224 298 299
f 224 299 225
f 225 299 300
f 225 300 301
f 225 301 302
f 225 302 226
f 226 302 230
f 226 230 229
f 227 237 228
f 228 237 303
f 228 303 304
f 228 304 305
f 228 305 306
f 228 306 238
f 230 302 307
f 230 307 231
f 231 307 308
f 231 308 232
f 232 308 309
f 232 309 233
f 233 309 310
f 233 310 234
f 234 310 311
f 234 311 235
f 235 311 312
f 235 312 313
f 235 313 314
f 235 314 236
f 236 314 237
f 237 314 315
f 237 315 303
f 239 258 316
f 239 316 317
f 239 317 318
f 239 318 240
f 240 247 245
f 240 318 319
f 240 319 320
f 240 320 247
f 242 321 322
f 242 322 243
f 242 248 323
f 242 323 321
f 243 322 244
f 244 322 325
f 244 325 326
f 244 326 327
f 244 327 324
f 245 247 246
f 247 320 248
f 248 320 328
f 248 328 329
f 248 329 323
f 249 330 253
f 249 253 252
f 249 251 330
f 250 331 251
f 251 331 255
f 251 255 332
f 251 332 333
f 251 333 330
f 253 333 332
f 253 332 254
f 253 330 333
f 254 332 255
f 255 334 257
f 255 257 256
f 255 331 335
f 255 335 336
f 255 336 337
f 255 337 338
f 255 338 334
f 257 334 339
f 257 339 258
f 258 339 340
f 258 340 341
f 258 341 342
f 258 342 316
f 259 343 260
f 260 343 261
f 263 266 264
f 265 266 344
f 265 344 267
f 266 345 346
f 266 346 344
f 266 347 348
f 266 348 349
f 266 349 350
f 266 350 351
f 266 351 352
f 266 352 353
f 266 353 354
f 266 354 345
f 267 344 346
f 267 346 268
f 268 346 355
f 268 355 269
f 269 355 356
f 269 356 270
f 271 356 353
f 271 353 352
f 271 352 272
f 272 352 357
f 272 357 273
f 273 357 358
f 273 358 359
f 273 359 274
f 274 359 283
f 274 283 280
f 275 282 360
f 275 360 361
f 275 361 362
f 275 362 363
f 275 363 276
f 276 363 364
f 276 364 277
f 277 364 365
f 277 365 366
f 277 366 367
f 277 367 278
f 278 368 369
f 278 369 279
f 278 367 368
f 279 369 284
f 280 283 281
f 282 370 371
f 282 371 360
f 282 283 372
f 282 372 373
f 282 373 370
f 283 359 374
f 283 374 372
f 284 369 375
f 284 375 376
f 284 376 286
f 286 376 287
f 287 376 293
f 287 293 288
f 290 377 294
f 290 294 291
f 290 292 378
f 290 378 379
f 290 379 380
f 290 380 381
f 290 381 377
f 292 293 366
f 292 366 378
f 293 376 367
f 293 367 366
f 294 377 295
f 295 377 296
f 296 377 382
f 296 382 383
f 296 383 384
f 296 384 297
f 297 384 385
f 297 385 298
f 298 385 386
f 298 386 299
f 299 386 387
f 299 387 388
f 299 388 307
f 299 307 300
f 300 307 301
f 301 307 302
f 303 315 304
f 304 315 389
f 304 389 390
f 304 390 391
f 304 391 305
f 305 391 392
f 305 392 393
f 305 393 306
f 307 388 394
f 307 394 395
f 307 395 396
f 307 396 397
f 307 397 398
f 307 398 308
f 308 398 399
f 308 399 400
f 308 400 309
f 309 401 310
f 309 400 401
f 310 401 311
f 311 401 402
f 311 402 312
f 312 402 313
f 313 315 314
f 313 402 403
f 313 403 404
f 313 404 405
f 313 405 315
f 315 405 406
f 315 406 407
f 315 407 389
f 316 408 409
f 316 409 317
f 316 342 410
f 316 410 411
f 316 411 408
f 317 319 318
f 317 409 412
f 317 412 319
f 319 412 409
f 319 409 413
f 319 413 414
f 319 414 320
f 320 414 328
f 321 415 322
f 321 323 416
f 321 416 415
f 322 415 325
f 323 329 416
f 324 327 417
f 325 415 418
f 325 418 419
f 325 419 326
f 326 419 420
f 326 420 421
f 326 421 327
f 327 422 417
f 327 421 423
f 327 423 422
f 328 414 424
f 328 424 329
f 329 424 425
f 329 425 426
f 329 426 416
f 334 338 339
f 336 427 337
f 337 427 338
f 338 427 428
f 338 428 429
f 338 429 339
f 339 429 340
f 340 429 430
f 340 430 341
f 341 430 431
f 341 431 432
f 341 432 342
f 342 432 410
f 345 354 355
f 345 355 346
f 347 433 434
f 347 434 435
f 347 435 436
f 347 436 437
f 347 437 438
f 347 438 439
f 347 439 348
f 348 440 349
f 348 439 441
f 348 441 440
f 349 440 442
f 349 442 443
f 349 443 350
f 350 443 444
f 350 444 351
f 351 444 357
f 351 357 352
f 353 356 355
f 353 355 354
f 357 444 445
f 357 445 358
f 358 445 359
f 359 445 374
f 360 371 361
f 361 371 446
f 361 446 447
f 361 447 448
f 361 448 449
f 361 449 362
f 362 449 450
f 362 450 451
f 362 451 452
f 362 452 363
f 363 452 453
f 363 453 365
f 363 365 364
f 365 453 379
f 365 379 378
f 365 378 366
f 367 376 375
f 367 375 368
f 368 375 369
f 370 373 454
f 370 454 455
f 370 455 371
f 371 455 446
f 372 374 456
f 372 456 445
f 372 445 454
f 372 454 373
f 374 445 456
f 377 381 382
f 379 453 457
f 379 457 380
f 380 457 458
f 380 458 381
f 381 458 459
f 381 459 460
f 381 460 382
f 382 460 383
f 383 460 461
f 383 461 462
f 383 462 386
f 383 386 385
f 383 385 384
f 386 462 463
f 386 463 464
f 386 464 465
f 386 465 387
f 387 465 394
f 387 394 388
f 389 407 466
f 389 466 390
f 390 466 467
f 390 467 391
f 391 467 468
f 391 468 392
f 392 468 469
f 392 469 470
f 392 470 393
f 394 465 471
f 394 471 395
f 395 471 396
f 396 471 397
f 397 471 472
f 397 472 473
f 397 473 474
f 397 474 475
f 397 475 398
f 398 475 476
f 398 476 399
f 399 476 400
f 400 476 477
f 400 477 402
f 400 402 401
f 402 477 403
f 403 477 478
f 403 478 479
f 403 479 404
f 404 479 480
f 404 480 481
f 404 481 405
f 405 481 406
f 406 481 482
f 406 482 483
f 406 483 407
f 407 483 484
f 407 484 466
f 408 411 485
f 408 485 486
f 408 486 413
f 408 413 409
f 410 432 411
f 411 432 487
f 411 487 488
f 411 488 489
f 411 489 485
f 413 486 414
f 414 486 424
f 415 416 490
f 415 490 418
f 416 491 490
f 416 426 491
f 417 422 433
f 418 420 419
f 418 490 492
f 418 492 493
f 418 493 420
f 420 493 494
f 420 494 495
f 420 495 421
f 421 495 423
f 422 423 496
f 422 496 497
f 422 497 498
f 422 498 433
f 423 495 496
f 424 486 499
f 424 499 425
f 425 499 500
f 425 500 501
f 425 501 502
f 425 502 503
f 425 503 426
f 426 503 504
f 426 504 491
f 428 505 431
f 428 431 430
f 428 430 429
f 431 505 506
f 431 506 432
f 432 506 507
f 432 507 487
f 433 498 508
f 433 508 509
f 433 509 510
f 433 510 511
f 433 511 434
f 434 512 513
f 434 513 435
f 434 511 512
f 435 513 436
f 436 513 514
f 436 514 515
f 436 515 516
f 436 516 437
f 437 516 438
f 438 516 439
f 439 516 517
f 439 517 518
f 439 518 519
f 439 519 441
f 440 441 442
f 441 519 520
f 441 520 442
f 442 520 521
f 442 521 522
f 442 522 523
f 442 523 444
f 442 444 443
f 444 523 524
f 444 524 445
f 445 524 525
f 445 525 454
f 446 455 526
f 446 526 527
f 446 527 528
f 446 528 447
f 447 528 448
f 448 528 529
f 448 529 530
f 448 530 450
f 448 450 449
f 450 530 531
f 450 531 532
f 450 532 451
f 451 533 534
f 451 534 535
f 451 535 452
f 451 532 533
f 452 457 453
f 452 535 457
f 454 525 522
f 454 522 521
f 454 521 526
f 454 526 455
f 457 535 534
f 457 534 458
f 458 534 533
f 458 533 536
f 458 536 537
f 458 537 459
f 459 538 461
f 459 461 460
f 459 537 539
f 459 539 540
f 459 540 538
f 461 538 541
f 461 541 463
f 461 463 462
f 463 541 542
f 463 542 543
f 463 543 464
f 464 543 544
f 464 544 465
f 465 544 471
f 466 484 545
f 466 545 467
f 467 545 546
f 467 546 468
f 468 546 547
f 468 547 469
f 469 547 548
f 469 548 549
f 469 549 550
f 469 550 470
f 471 544 551
f 471 551 552
f 471 552 472
f 472 552 473
f 473 552 474
f 474 552 553
f 474 553 475
f 475 553 554
f 475 554 476
f 476 554 555
f 476 555 477
f 477 555 556
f 477 556 557
f 477 557 558
f 477 558 478
f 478 558 479
f 479 558 480
f 480 558 481
f 481 558 559
f 481 559 482
f 482 559 483
f 483 559 560
f 483 560 484
f 484 560 545
f 485 499 486
f 485 489 499
f 487 507 561
f 487 561 488
f 488 561 489
f 489 561 562
f 489 562 501
f 489 501 500
f 489 500 499
f 490 563 564
f 490 564 492
f 490 491 565
f 490 565 563
f 491 504 565
f 492 564 566
f 492 566 493
f 493 566 567
f 493 567 494
f 494 567 568
f 494 568 496
f 494 496 495
f 496 568 569
f 496 569 497
f 497 569 570
f 497 570 498
f 498 570 571
f 498 571 508
f 501 562 572
f 501 572 502
f 502 572 573
f 502 573 574
f 502 574 503
f 503 575 576
f 503 576 504
f 503 574 575
f 504 576 577
f 504 577 565
f 505 578 506
f 506 578 579
f 506 579 507
f 507 579 561
f 508 571 509
f 509 571 580
f 509 580 511
f 509 511 510
f 511 580 581
f 511 581 512
f 512 514 513
f 512 581 582
f 512 582 583
f 512 583 514
f 514 584 517
f 514 517 515
f 514 583 584
f 515 517 516
f 517 584 585
f 517 585 519
f 517 519 518
f 519 585 526
f 519 526 520
f 520 526 521
f 522 525 524
f 522 524 523
f 526 585 527
f 527 585 586
f 527 586 528
f 528 586 529
f 529 587 530
f 529 586 588
f 529 588 587
f 530 587 588
f 530 588 589
f 530 589 531
f 531 590 532
f 531 589 591
f 531 591 590
f 532 590 592
f 532 592 533
f 533 592 536
f 536 592 593
f 536 593 537
f 537 593 594
f 537 594 539
f 538 540 595
f 538 595 596
f 538 596 597
f 538 597 541
f 539 594 598
f 539 598 599
f 539 599 595
f 539 595 540
f 541 597 600
f 541 600 542
f 542 600 601
f 542 601 602
f 542 602 543
f 543 602 544
f 544 602 603
f 544 603 551
f 545 604 605
f 545 605 606
f 545 606 607
f 545 607 546
f 545 560 604
f 546 607 608
f 546 608 609
f 546 609 547
f 547 609 610
f 547 610 548
f 548 610 573
f 548 573 572
f 548 572 562
f 548 562 561
f 548 561 549
f 549 611 550
f 549 561 579
f 549 579 611
f 551 603 612
f 551 612 613
f 551 613 552
f 552 613 614
f 552 614 615
f 552 615 616
f 552 616 617
f 552 617 553
f 553 617 616
f 553 616 554
f 554 618 555
f 554 616 619
f 554 619 618
f 555 618 557
f 555 557 556
f 557 618 558
f 558 620 559
f 558 618 619
f 558 619 621
f 558 621 620
f 559 620 622
f 559 622 623
f 559 623 605
f 559 605 560
f 560 605 604
f 563 624 625
f 563 625 564
f 563 565 624
f 564 625 626
f 564 626 566
f 565 627 624
f 565 577 628
f 565 628 629
f 565 629 630
f 565 630 627
f 566 626 631
f 566 631 567
f 567 631 632
f 567 632 633
f 567 633 568
f 568 633 569
f 569 633 634
f 569 634 635
f 569 635 636
f 569 636 570
f 570 636 580
f 570 580 571
f 573 610 574
f 574 610 637
f 574 637 575
f 575 637 638
f 575 638 576
f 576 638 639
f 576 639 577
f 577 639 628
f 578 640 579
f 579 640 611
f 580 636 641
f 580 641 581
f 581 641 591
f 581 591 642
f 581 642 582
f 582 642 643
f 582 643 583
f 583 643 588
f 583 588 586
f 583 586 585
f 583 585 584
f 588 643 642
f 588 642 589
f 589 642 591
f 590 644 592
f 590 591 645
f 590 645 644
f 591 641 645
f 592 644 593
f 593 644 646
f 593 646 594
f 594 646 598
f 595 647 596
f 595 599 648
f 595 648 649
f 595 649 650
f 595 650 651
f 595 651 647
f 596 647 652
f 596 652 597
f 597 652 600
f 598 646 653
f 598 653 654
f 598 654 655
f 598 655 599
f 599 655 648
f 600 652 647
f 600 647 656
f 600 656 603
f 600 603 601
f 601 603 602
f 603 656 667
f 603 667 612
f 605 623 606
f 606 623 657
f 606 657 658
f 606 658 659
f 606 659 607
f 607 659 608
f 608 659 660
f 608 660 661
f 608 661 662
f 608 662 663
f 608 663 664
f 608 664 665
f 608 665 609
f 609 665 666
f 609 666 637
f 609 637 610
f 612 667 668
f 612 668 613
f 613 668 669
f 613 669 670
f 613 670 614
f 614 670 671
f 614 671 615
f 615 671 616
f 616 671 619
f 619 671 672
f 619 672 673
f 619 673 621
f 620 621 674
f 620 674 675
f 620 675 622
f 621 673 676
f 621 676 677
f 621 677 678
f 621 678 674
f 622 675 679
f 622 679 680
f 622 680 623
f 623 680 681
f 623 681 657
f 624 682 683
f 624 683 625
f 624 627 630
f 624 630 684
f 624 684 685
f 624 685 682
f 625 686 626
f 625 683 687
f 625 687 686
f 626 686 688
f 626 688 689
f 626 689 631
f 628 639 690
f 628 690 629
f 629 690 630
f 630 690 720
f 630 720 691
f 630 691 684
f 631 689 692
f 631 692 632
f 632 692 633
f 633 692 693
f 633 693 634
f 634 693 694
f 634 694 635
f 635 694 695
f 635 695 696
f 635 696 636
f 636 696 697
f 636 697 641
f 637 666 698
f 637 698 638
f 638 698 639
f 639 699 690
f 639 698 699
f 641 697 700
f 641 700 645
f 644 645 700
f 644 700 646
f 646 700 653
f 647 651 701
f 647 701 656
f 648 702 649
f 648 655 703
f 648 703 704
f 648 704 702
f 649 702 650
f 650 702 705
f 650 705 651
f 651 705 706
f 651 706 707
f 651 707 701
f 653 700 708
f 653 708 709
f 653 709 654
f 654 709 655
f 655 709 703
f 656 701 710
f 656 710 667
f 657 681 711
f 657 711 658
f 658 711 712
f 658 712 713
f 658 713 714
f 658 714 715
f 658 715 659
f 659 715 660
f 660 715 716
f 660 716 661
f 661 716 717
f 661 717 662
f 662 717 718
f 662 718 663
f 663 718 664
f 664 698 666
f 664 666 665
f 664 718 719
f 664 719 720
f 664 720 699
f 664 699 698
f 667 710 721
f 667 721 668
f 668 721 722
f 668 722 669
f 669 722 723
f 669 723 774
f 669 774 724
f 669 724 670
f 670 724 725
f 670 725 671
f 671 725 776
f 671 776 726
f 671 726 727
f 671 727 728
f 671 728 672
f 672 728 729
f 672 729 673
f 673 729 730
f 673 730 731
f 673 731 676
f 674 678 675
f 675 678 681
f 675 681 679
f 676 731 732
f 676 732 677
f 677 732 678
f 678 732 733
f 678 733 681
f 679 681 680
f 681 733 734
f 681 734 711
f 682 735 687
f 682 687 683
f 682 685 736
f 682 736 735
f 684 737 685
f 684 691 737
f 685 737 691
f 685 691 738
f 685 738 739
f 685 739 740
f 685 740 741
f 685 741 736
f 686 687 742
f 686 742 688
f 687 735 742
f 688 742 743
f 688 743 744
f 688 744 745
f 688 745 746
f 688 746 689
f 689 746 692
f 690 699 720
f 691 720 738
f 692 746 747
f 692 747 694
f 692 694 693
f 694 747 709
f 694 709 695
f 695 709 708
f 695 708 696
f 696 708 700
f 696 700 697
f 701 707 748
f 701 748 749
f 701 749 750
f 701 750 710
f 702 704 751
f 702 751 752
f 702 752 753
f 702 753 705
f 703 709 747
f 703 747 754
f 703 754 704
f 704 754 755
f 704 755 756
f 704 756 757
f 704 757 751
f 705 753 758
f 705 758 706
f 706 758 748
f 706 748 707
f 710 750 749
f 710 749 759
f 710 759 760
f 710 760 721
f 711 734 761
f 711 761 762
f 711 762 763
f 711 763 712
f 712 764 713
f 712 763 765
f 712 765 766
f 712 766 764
f 713 764 767
f 713 767 768
f 713 768 769
f 713 769 714
f 714 717 716
f 714 716 715
f 714 769 770
f 714 770 717
f 717 770 718
f 718 770 771
f 718 771 772
f 718 772 719
f 719 772 739
f 719 739 720
f 720 739 738
f 721 760 722
f 722 760 773
f 722 773 774
f 722 774 723
f 724 774 775
f 724 775 725
f 725 775 776
f 726 776 777
f 726 777 727
f 727 777 778
f 727 778 728
f 728 779 729
f 728 778 780
f 728 780 779
f 729 779 781
f 729 781 730
f 730 781 782
f 730 782 734
f 730 734 731
f 731 734 732
f 732 734 733
f 734 782 783
f 734 783 761
f 735 784 742
f 735 736 785
f 735 785 786
f 735 786 787
f 735 787 788
f 735 788 784
f 736 741 789
f 736 789 785
f 739 772 741
f 739 741 740
f 741 772 789
f 742 784 743
f 743 784 790
f 743 790 788
f 743 788 791
f 743 791 792
f 743 792 793
f 743 793 794
f 743 794 795
f 743 795 796
f 743 796 744
f 744 796 754
f 744 754 745
f 745 754 746
f 746 754 747
f 748 758 797
f 748 797 798
f 748 798 799
f 748 799 749
f 749 799 800
f 749 800 759
f 751 757 752
f 752 757 753
f 753 757 801
f 753 801 797
f 753 797 758
f 754 796 802
f 754 802 755
f 755 802 796
f 755 796 795
f 755 795 756
f 756 795 757
f 757 795 801
f 759 800 760
f 760 800 803
f 760 803 804
f 760 804 775
f 760 775 773
f 761 783 805
f 761 805 762
f 762 805 806
f 762 806 763
f 763 806 807
f 763 807 765
f 764 766 767
f 765 807 808
f 765 808 767
f 765 767 766
f 767 808 809
f 767 809 810
f 767 810 811
f 767 811 771
f 767 771 768
f 768 770 769
f 768 771 770
f 771 811 812
f 771 812 789
f 771 789 772
f 773 775 774
f 775 804 776
f 776 813 814
f 776 814 778
f 776 778 777
f 776 804 815
f 776 815 813
f 778 816 780
f 778 814 803
f 778 803 817
f 778 817 816
f 779 818 819
f 779 819 781
f 779 780 818
f 780 816 820
f 780 820 821
f 780 821 819
f 780 819 818
f 781 819 782
f 782 819 783
f 783 819 805
f 784 788 790
f 785 789 786
f 786 822 787
f 786 789 822
f 787 822 823
f 787 823 788
f 788 823 824
f 788 824 791
f 789 812 811
f 789 811 825
f 789 825 822
f 791 824 826
f 791 826 793
f 791 793 792
f 793 826 794
f 794 827 828
f 794 828 801
f 794 801 795
f 794 826 827
f 797 801 828
f 797 828 829
f 797 829 830
f 797 830 798
f 798 830 799
f 799 831 800
f 799 830 831
f 800 831 832
f 800 832 803
f 803 815 804
f 803 832 833
f 803 833 834
f 803 834 835
f 803 835 817
f 803 814 815
f 805 819 836
f 805 836 837
f 805 837 806
f 806 837 838
f 806 838 839
f 806 839 807
f 807 839 840
f 807 840 809
f 807 809 808
f 809 840 810
f 810 841 811
f 810 840 842
f 810 842 843
f 810 843 844
f 810 844 845
f 810 845 846
f 810 846 841
f 811 841 825
f 813 815 814
f 816 847 848
f 816 848 820
f 816 817 835
f 816 835 847
f 819 821 837
f 819 837 836
f 820 848 821
f 821 848 837
f 822 849 850
f 822 850 823
f 822 825 849
f 823 850 824
f 824 850 851
f 824 851 826
f 825 841 849
f 826 851 852
f 826 852 853
f 826 853 854
f 826 854 827
f 827 854 855
f 827 855 856
f 827 856 857
f 827 857 858
f 827 858 828
f 828 858 829
f 829 858 830
f 830 858 857
f 830 857 859
f 830 859 831
f 831 859 832
f 832 859 833
f 833 859 857
f 833 857 860
f 833 860 861
f 833 861 835
f 833 835 834
f 835 861 862
f 835 862 847
f 837 848 842
f 837 842 839
f 837 839 838
f 839 842 840
f 841 846 849
f 842 848 847
f 842 847 862
f 842 862 863
f 842 863 843
f 843 863 844
f 844 863 845
f 845 850 846
f 845 863 864
f 845 864 850
f 846 850 849
f 850 852 851
f 850 864 852
f 852 864 865
f 852 865 866
f 852 866 854
f 852 854 853
f 854 866 855
f 855 867 868
f 855 868 856
f 855 866 867
f 856 868 869
f 856 869 857
f 857 869 870
f 857 870 860
f 860 870 861
f 861 870 869
f 861 869 862
f 862 869 868
f 862 868 871
f 862 871 867
f 862 867 872
f 862 872 863
f 863 872 864
f 864 872 866
f 864 866 865
f 866 872 867
f 867 871 868

