# https://github.com/mikedh/trimesh
v 0.03096090 -0.03888801 0.03510681
v 0.03109643 -0.03878521 0.03510681
v 0.03257848 -0.03778388 0.04212931
v 0.03257848 -0.03787525 0.05128909
v 0.03257848 -0.03789429 0.05341462
v 0.03257848 -0.03774962 0.05506456
v 0.03257848 -0.03772296 0.05535814
v 0.03257848 -0.03765062 0.05551668
v 0.03257848 -0.03734223 0.05591595
v 0.03257848 -0.03698053 0.05617430
v 0.02803397 -0.02969330 0.00592469
v 0.02767985 -0.02908413 -0.00036385
v 0.02887336 -0.03345875 -0.00036385
v 0.03096090 -0.03884613 0.03429065
v 0.03124070 -0.03865195 0.03445506
v 0.03319928 -0.03728131 0.04205885
v 0.03331513 -0.03729654 0.05339701
v 0.03316867 -0.03725085 0.05535814
v 0.03475128 -0.03540810 0.05591595
v 0.03270308 -0.03683966 0.05619192
v 0.03257848 -0.03693865 0.05619192
v 0.04088495 0.00000769 0.00665865
v 0.04079751 0.00000769 0.00592469
v 0.04043246 0.00000008 0.00285969
v 0.02785472 -0.02933160 0.00280684
v 0.03257848 -0.03679017 0.05622715
v 0.03257848 -0.03604012 0.05637981
v 0.03257848 -0.03460095 0.05639155
v 0.03257848 -0.03424306 0.05628586
v 0.03257848 -0.03380522 0.05585723
v 0.03257848 -0.03349682 0.05507043
v 0.04629071 -0.00001134 0.05209937
v 0.03984445 0.00000389 -0.00358739
v 0.02887336 -0.02744317 -0.00358739
v 0.02887336 -0.03316939 -0.00358739
v 0.03096090 -0.03839686 0.02889460
v 0.03096090 -0.03844636 0.02945828
v 0.03492834 -0.03529769 0.03160730
v 0.03257848 -0.03751356 0.03510681
v 0.03434907 -0.03596398 0.03510681
v 0.03557537 -0.03476467 0.03510681
v 0.03671860 -0.03381664 0.04134250
v 0.03681478 -0.03385091 0.05339114
v 0.03666395 -0.03381664 0.05535814
v 0.03674045 -0.03309705 0.05610384
v 0.03723884 -0.03139518 0.05637394
v 0.04154728 0.00000769 0.01201360
v 0.04612895 0.00000769 0.00592469
v 0.03994282 0.00000389 -0.00250113
v 0.04013736 0.00000389 -0.00036385
v 0.03487587 -0.03258306 0.05639155
v 0.04759570 -0.00001134 0.05639155
v 0.04725907 -0.00001134 0.05628586
v 0.04713010 -0.00001134 0.05610971
v 0.04694867 -0.00001134 0.05585723
v 0.04671915 -0.00001134 0.05507043
v 0.04533328 0.00000389 -0.00358739
v 0.03343317 -0.03169215 -0.00358739
v 0.03446929 -0.03504260 0.02565345
v 0.03350749 -0.03166550 -0.00358739
v 0.03431191 -0.03133045 -0.00358739
v 0.03450427 -0.03124669 -0.00358739
v 0.03453924 -0.03122004 -0.00358739
v 0.03485620 -0.03096495 -0.00358739
v 0.03719294 -0.03248027 0.02493123
v 0.03732191 -0.03275820 0.03073243
v 0.03707272 -0.03319605 0.03510681
v 0.03908376 -0.03102587 0.04158912
v 0.03917119 -0.03106775 0.05339701
v 0.03978980 -0.03007022 0.05535814
v 0.03956247 -0.02993697 0.05591595
v 0.03925644 -0.02975422 0.05619192
v 0.04055050 -0.02516638 0.05639155
v 0.04273204 -0.02359395 0.05634458
v 0.04670603 0.00000769 0.01201360
v 0.04913240 -0.00001515 0.02517784
v 0.04797605 -0.00001134 0.05639155
v 0.04429060 -0.01451347 -0.00358739
v 0.03612621 -0.03318462 0.02278221
v 0.03493708 -0.03088880 -0.00358739
v 0.04029694 -0.02813229 0.02645199
v 0.04087620 -0.02813229 0.03199483
v 0.03881926 -0.03093449 0.03090271
v 0.03506168 -0.03076697 -0.00358739
v 0.03514037 -0.03067559 -0.00358739
v 0.03519502 -0.03060706 -0.00358739
v 0.03527590 -0.03048903 -0.00358739
v 0.03537208 -0.03034816 -0.00358739
v 0.03892200 -0.03097256 0.03510681
v 0.04126092 -0.02808661 0.04171242
v 0.04137022 -0.02809422 0.05339701
v 0.04254406 -0.02602303 0.05535814
v 0.04215496 -0.02590881 0.05607448
v 0.04548411 -0.01712530 0.05638568
v 0.04468625 -0.01676741 0.05639155
v 0.04430590 -0.02151515 0.05619192
v 0.04962860 -0.00001515 0.03111408
v 0.04857499 -0.00001134 0.05636219
v 0.04895534 -0.00001134 0.05626238
v 0.04935317 -0.00001134 0.05613320
v 0.04945810 -0.00001134 0.05604513
v 0.04981877 -0.00001134 0.05535814
v 0.04998490 -0.00001134 0.05369059
v 0.04999802 -0.00001134 0.05339114
v 0.04990402 -0.00001134 0.04180049
v 0.04987342 -0.00001134 0.04053809
v 0.04974008 -0.00001134 0.03510681
v 0.04915426 -0.00042253 0.02565345
v 0.04709294 -0.00774403 0.05639155
v 0.04851815 -0.00322473 0.05637981
v 0.04422502 -0.01481805 -0.00358739
v 0.04904277 -0.00531115 0.02892396
v 0.04799135 -0.01058430 0.02645199
v 0.04678691 -0.01578892 0.02493123
v 0.04327852 -0.02366249 0.02892396
v 0.04365013 -0.02375386 0.03445506
v 0.04343591 -0.02414602 0.03510681
v 0.04383156 -0.01567851 -0.00358739
v 0.04381407 -0.02390996 0.04215866
v 0.04392774 -0.02389473 0.05339114
v 0.04489391 -0.02172075 0.05535814
v 0.04464253 -0.02163318 0.05591595
v 0.04775964 -0.01011219 0.05635045
v 0.04620764 -0.01707961 0.05619192
v 0.04765472 -0.01248035 0.05619192
v 0.04965046 -0.00001515 0.03154271
v 0.04965701 -0.00027785 0.03160730
v 0.04917174 -0.00293156 0.05619192
v 0.04952586 -0.00291253 0.05591595
v 0.04979036 -0.00290111 0.05535814
v 0.05001113 -0.00037304 0.05339114
v 0.04991714 -0.00043776 0.04181811
v 0.04974664 -0.00032735 0.03510681
v 0.04966357 -0.00001515 0.03205942
v 0.04419879 -0.01490562 -0.00358739
v 0.04942094 -0.00525404 0.03445506
v 0.04853127 -0.01035967 0.03199483
v 0.04770062 -0.01373677 0.03090271
v 0.04701206 -0.01599452 0.03073243
v 0.04577483 -0.01925740 0.03160730
v 0.04525459 -0.01920029 0.02565345
v 0.04606993 -0.01684736 0.02278221
v 0.04405015 -0.01527874 -0.00358739
v 0.04409387 -0.01517975 -0.00358739
v 0.04416163 -0.01501984 -0.00358739
v 0.04366543 -0.02376528 0.03510681
v 0.04583604 -0.01934497 0.03510681
v 0.04595408 -0.01949726 0.04181811
v 0.04606337 -0.01947442 0.05339114
v 0.04681096 -0.01722810 0.05535814
v 0.04655302 -0.01716337 0.05591595
v 0.04886353 -0.00781256 0.05607448
v 0.04800446 -0.01252985 0.05591595
v 0.04974664 -0.00033116 0.03510681
v 0.04968543 -0.00151524 0.03510681
v 0.04926574 -0.00777068 0.05535814
v 0.04972041 -0.00533399 0.05350270
v 0.04974227 -0.00408899 0.04239353
v 0.04933569 -0.00764123 0.04247574
v 0.04861215 -0.01130769 0.04209408
v 0.04769407 -0.01414796 0.03510681
v 0.04727874 -0.01552622 0.03510681
v 0.04659455 -0.01738420 0.03510681
v 0.04767876 -0.01480663 0.04181811
v 0.04734869 -0.01606686 0.05339701
v 0.04826896 -0.01256411 0.05535814
v 0.04918923 -0.00894715 0.05339701
v 0.04840012 -0.01257934 0.05350270
f 1 2 3
f 1 3 4
f 1 4 5
f 1 5 6
f 1 6 7
f 1 7 8
f 1 8 9
f 1 9 10
f 1 10 11
f 1 11 12
f 1 12 13
f 1 13 14
f 1 14 15
f 1 15 2
f 2 15 3
f 3 16 4
f 3 15 16
f 4 16 17
f 4 17 5
f 5 17 18
f 5 18 6
f 6 18 7
f 7 18 8
f 8 18 9
f 9 18 19
f 9 19 10
f 10 20 21
f 10 21 11
f 10 19 20
f 11 22 23
f 11 23 24
f 11 24 25
f 11 25 12
f 11 21 26
f 11 26 27
f 11 27 28
f 11 28 29
f 11 29 30
f 11 30 31
f 11 31 32
f 11 32 22
f 12 25 33
f 12 33 34
f 12 34 35
f 12 35 13
f 13 35 36
f 13 36 37
f 13 37 14
f 14 37 15
f 15 37 36
f 15 36 38
f 15 38 39
f 15 39 16
f 16 39 40
f 16 40 41
f 16 41 42
f 16 42 17
f 17 42 43
f 17 43 44
f 17 44 18
f 18 44 19
f 19 45 20
f 19 44 45
f 20 46 27
f 20 27 26
f 20 26 21
f 20 45 46
f 22 32 47
f 22 47 75
f 22 75 48
f 22 48 23
f 23 48 57
f 23 57 33
f 23 33 49
f 23 49 50
f 23 50 24
f 24 50 25
f 25 50 49
f 25 49 33
f 27 46 51
f 27 51 28
f 28 51 73
f 28 73 95
f 28 95 109
f 28 109 77
f 28 77 52
f 28 52 53
f 28 53 29
f 29 53 54
f 29 54 55
f 29 55 30
f 30 55 56
f 30 56 31
f 31 56 32
f 32 56 47
f 33 57 78
f 33 78 111
f 33 111 135
f 33 135 145
f 33 145 144
f 33 144 143
f 33 143 118
f 33 118 88
f 33 88 87
f 33 87 86
f 33 86 85
f 33 85 84
f 33 84 80
f 33 80 64
f 33 64 63
f 33 63 62
f 33 62 61
f 33 61 60
f 33 60 58
f 33 58 35
f 33 35 34
f 35 58 36
f 36 59 38
f 36 58 60
f 36 60 61
f 36 61 62
f 36 62 63
f 36 63 64
f 36 64 59
f 38 59 65
f 38 65 66
f 38 66 41
f 38 41 40
f 38 40 39
f 41 66 67
f 41 67 42
f 42 67 68
f 42 68 69
f 42 69 43
f 43 69 44
f 44 69 70
f 44 70 71
f 44 71 45
f 45 71 72
f 45 72 46
f 46 73 51
f 46 72 74
f 46 74 73
f 47 56 55
f 47 55 54
f 47 54 53
f 47 53 52
f 47 52 77
f 47 77 75
f 48 75 76
f 48 76 57
f 57 76 78
f 59 79 65
f 59 64 79
f 64 80 65
f 64 65 79
f 65 81 82
f 65 82 83
f 65 83 66
f 65 80 84
f 65 84 85
f 65 85 86
f 65 86 87
f 65 87 88
f 65 88 81
f 66 83 89
f 66 89 68
f 66 68 67
f 68 89 90
f 68 90 69
f 69 90 91
f 69 91 70
f 70 91 92
f 70 92 71
f 71 93 72
f 71 92 93
f 72 93 74
f 73 74 94
f 73 94 95
f 74 93 96
f 74 96 94
f 75 97 76
f 75 77 98
f 75 98 99
f 75 99 100
f 75 100 101
f 75 101 102
f 75 102 103
f 75 103 104
f 75 104 105
f 75 105 106
f 75 106 107
f 75 107 97
f 76 97 108
f 76 108 78
f 77 109 110
f 77 110 98
f 78 108 112
f 78 112 113
f 78 113 114
f 78 114 111
f 81 115 82
f 81 88 115
f 82 115 116
f 82 116 117
f 82 117 90
f 82 90 83
f 83 90 89
f 88 118 115
f 90 117 119
f 90 119 91
f 91 119 120
f 91 120 92
f 92 120 121
f 92 121 122
f 92 122 93
f 93 122 96
f 94 123 110
f 94 110 109
f 94 109 95
f 94 96 124
f 94 124 125
f 94 125 123
f 96 122 124
f 97 126 127
f 97 127 108
f 97 107 126
f 98 110 99
f 99 110 128
f 99 128 100
f 100 129 101
f 100 128 129
f 101 129 102
f 102 129 130
f 102 130 103
f 103 131 104
f 103 130 131
f 104 131 105
f 105 131 132
f 105 132 106
f 106 132 107
f 107 132 133
f 107 133 134
f 107 134 126
f 108 127 112
f 110 123 128
f 111 114 135
f 112 127 136
f 112 136 137
f 112 137 113
f 113 137 114
f 114 137 138
f 114 138 139
f 114 139 140
f 114 140 141
f 114 141 142
f 114 142 143
f 114 143 144
f 114 144 145
f 114 145 135
f 115 141 140
f 115 140 116
f 115 118 143
f 115 143 141
f 116 140 146
f 116 146 117
f 117 146 119
f 119 146 140
f 119 140 147
f 119 147 148
f 119 148 120
f 120 148 149
f 120 149 121
f 121 149 150
f 121 150 151
f 121 151 122
f 122 151 124
f 123 125 152
f 123 152 128
f 124 151 125
f 125 151 153
f 125 153 152
f 126 134 127
f 127 134 133
f 127 133 154
f 127 154 155
f 127 155 136
f 128 152 129
f 129 152 156
f 129 156 130
f 130 156 157
f 130 157 131
f 131 157 158
f 131 158 132
f 132 158 155
f 132 155 154
f 132 154 133
f 136 155 158
f 136 158 159
f 136 159 137
f 137 159 160
f 137 160 138
f 138 160 161
f 138 161 162
f 138 162 139
f 139 162 163
f 139 163 140
f 140 163 147
f 141 143 142
f 147 163 148
f 148 163 162
f 148 162 164
f 148 164 165
f 148 165 149
f 149 165 150
f 150 165 166
f 150 166 153
f 150 153 151
f 152 153 156
f 153 166 156
f 156 166 167
f 156 167 157
f 157 167 159
f 157 159 158
f 159 167 160
f 160 167 168
f 160 168 164
f 160 164 161
f 161 164 162
f 164 168 165
f 165 168 166
f 166 168 167

