# https://github.com/mikedh/trimesh
v 0.04390813 0.00195211 -0.04650021
v 0.04397700 -0.00038121 -0.04674582
v 0.04373595 -0.00037222 -0.04959914
v 0.04364126 0.00195211 -0.04959914
v 0.04346908 0.00195211 -0.03679664
v 0.04377039 -0.00259314 -0.04531437
v 0.04371013 -0.00485903 -0.04631792
v 0.04368430 -0.00360470 -0.04869344
v 0.04318500 -0.00354625 -0.05186912
v 0.04328830 -0.00035873 -0.05203222
v 0.04344326 0.00195211 -0.05071590
v 0.04148907 -0.01340105 -0.03679664
v 0.03398225 0.00195211 -0.03679664
v 0.04325386 -0.00789369 -0.04610109
v 0.04321082 -0.00679222 -0.04959914
v 0.04276317 -0.00671130 -0.05203222
v 0.04248769 -0.00574020 -0.05301467
v 0.04284926 -0.00153663 -0.05301467
v 0.04293534 0.00176779 -0.05283238
v 0.04295256 0.00195211 -0.05275946
v 0.04319360 0.00195211 -0.05203222
v 0.04138577 -0.01394055 -0.03679664
v 0.00000357 0.00195211 -0.04169735
v -0.04265272 -0.00003054 -0.03679664
v 0.04257377 -0.01106773 -0.04639659
v 0.04233273 -0.01100029 -0.04959914
v 0.04190229 -0.01087891 -0.05203222
v 0.04172151 -0.00988533 -0.05301467
v 0.04003420 -0.00835226 -0.05541897
v 0.04066264 -0.00438247 -0.05541897
v 0.04089507 -0.00037222 -0.05541897
v 0.04081759 0.00195211 -0.05541897
v 0.04290951 0.00195211 -0.05284581
v 0.04135994 -0.01402147 -0.03679664
v 0.04162681 -0.01416534 -0.04640427
v 0.00000357 0.00195211 -0.05374767
v -0.04396986 -0.00003054 -0.04664796
v -0.04395264 -0.00003054 -0.04649637
v -0.04381490 -0.00003054 -0.04537961
v -0.04297985 -0.00066894 -0.03679664
v 0.04111029 -0.01510946 -0.04915013
v 0.04061098 -0.01510046 -0.05192669
v 0.04080037 -0.01307735 -0.05303386
v 0.03901836 -0.01224113 -0.05541897
v 0.03956933 -0.00574920 -0.05612319
v 0.03864819 -0.01005168 -0.05614813
v 0.03994811 -0.00183335 -0.05612319
v 0.03999115 0.00195211 -0.05608097
v 0.04134273 -0.01407092 -0.03679664
v 0.04047324 -0.01718202 -0.04652899
v 0.03839854 0.00195211 -0.05639566
v -0.03875296 -0.00003054 -0.05638991
v -0.03969132 -0.00003054 -0.05618651
v -0.04006149 -0.00003054 -0.05601382
v -0.04049193 -0.00003054 -0.05575669
v -0.04074158 -0.00003054 -0.05548421
v -0.04113758 -0.00003054 -0.05502945
v -0.04285072 -0.00003054 -0.05299932
v -0.04292820 -0.00003054 -0.05283621
v -0.04325533 -0.00003054 -0.05196506
v -0.04362551 -0.00003054 -0.05007884
v -0.04372881 -0.00003054 -0.04940725
v -0.04387516 -0.00285390 -0.04640427
v -0.04357386 -0.00288537 -0.03679664
v -0.04357386 -0.00266957 -0.03679664
v -0.04353081 -0.00215255 -0.03679664
v -0.04372020 -0.00070041 -0.04959914
v -0.04337585 -0.00167600 -0.03679664
v 0.03947463 -0.01908824 -0.04869536
v 0.03902697 -0.01886345 -0.05186912
v 0.03948324 -0.01671446 -0.05299932
v 0.03791645 -0.01610303 -0.05502945
v 0.03775288 -0.01464189 -0.05579315
v 0.03843297 -0.00590655 -0.05638991
v 0.03682314 -0.01450252 -0.05627478
v 0.03919915 0.00175879 -0.05633618
v 0.03962959 0.00195211 -0.05621145
v 0.03993089 0.00195211 -0.05612319
v 0.04128246 -0.01422378 -0.03679664
v 0.03851906 -0.02121475 -0.04631792
v 0.03900115 0.00195211 -0.05635153
v 0.03644435 -0.01236702 -0.05639950
v -0.02536638 -0.02893854 -0.05639950
v -0.03884766 -0.00172096 -0.05638991
v -0.03978601 -0.00172995 -0.05618651
v -0.04050914 -0.00149617 -0.05575669
v -0.04115480 -0.00166701 -0.05502945
v -0.04269576 -0.00386995 -0.05299932
v -0.04325533 -0.00177940 -0.05203222
v -0.04356525 -0.00391041 -0.04959914
v -0.04355664 -0.00607739 -0.04639659
v -0.04356525 -0.00296629 -0.03679664
v 0.03732244 -0.02280627 -0.04959914
v 0.03694366 -0.02256349 -0.05203222
v 0.03764958 -0.02050891 -0.05299932
v 0.03615166 -0.01974912 -0.05502945
v 0.03642714 -0.01779345 -0.05575669
v 0.03403391 -0.02068425 -0.05618651
v 0.03325051 -0.02017173 -0.05638991
v 0.03916471 0.00195211 -0.05633618
v 0.03919054 0.00195211 -0.05633234
v 0.04104142 -0.01467786 -0.03679664
v 0.03319886 -0.02825518 -0.03679664
v 0.03694366 -0.02384030 -0.04610109
v 0.02893754 -0.02536888 -0.05639950
v -0.00590202 -0.03843817 -0.05638991
v -0.01327971 -0.03655443 -0.05638991
v -0.02016670 -0.03325002 -0.05638991
v -0.02676960 -0.02926673 -0.05625175
v -0.03134945 -0.02299959 -0.05638991
v -0.03523199 -0.01646269 -0.05638991
v -0.03776296 -0.00926042 -0.05638991
v 0.01703165 -0.03450884 -0.05639950
v -0.03868409 -0.00945374 -0.05618651
v -0.04016480 -0.00544798 -0.05575669
v -0.04079323 -0.00568176 -0.05502945
v -0.04211037 -0.00803756 -0.05299932
v -0.04298846 -0.00494894 -0.05203222
v -0.04296263 -0.00816794 -0.04959914
v -0.04297985 -0.00927390 -0.04610109
v -0.04345333 -0.00350129 -0.03679664
v 0.03490339 -0.02635795 -0.04959914
v 0.03455043 -0.02607921 -0.05203222
v 0.03545435 -0.02409656 -0.05299932
v 0.03404251 -0.02319291 -0.05502945
v 0.03450739 -0.02127320 -0.05575669
v 0.03225190 -0.02455513 -0.05575669
v 0.02926467 -0.02677606 -0.05625175
v 0.03289755 -0.02871375 -0.03679664
v 0.03509278 -0.02651081 -0.04639659
v 0.02299751 -0.03134829 -0.05638991
v -0.00607420 -0.03935981 -0.05618651
v 0.00171671 -0.03885179 -0.05638991
v 0.00172532 -0.03979141 -0.05618651
v 0.00000357 -0.03969699 -0.05618651
v -0.01363267 -0.03742212 -0.05618651
v -0.02067462 -0.03403678 -0.05618651
v -0.02455716 -0.03225644 -0.05575669
v -0.02758743 -0.02969833 -0.05575669
v -0.03036805 -0.02684799 -0.05575669
v -0.03212424 -0.02353009 -0.05618651
v -0.03609286 -0.01683135 -0.05618651
v 0.01679061 -0.03593851 -0.05625175
v 0.00924935 -0.03776830 -0.05638991
v -0.03833113 -0.01318975 -0.05575669
v -0.03944166 -0.00936382 -0.05575669
v -0.04004427 -0.00965605 -0.05502945
v -0.04152498 -0.01222765 -0.05203222
v -0.04252359 -0.00809600 -0.05203222
v -0.04111176 -0.01213323 -0.05299932
v -0.04195541 -0.01234454 -0.04959914
v -0.04219646 -0.01240298 -0.04639084
v -0.03939001 -0.01865215 -0.03679664
v 0.03304390 -0.02901497 -0.04640427
v 0.03215720 -0.02963989 -0.04959914
v 0.03253599 -0.02853841 -0.05203222
v 0.03292338 -0.02745942 -0.05299932
v 0.03160624 -0.02642089 -0.05502945
v 0.02969510 -0.02759430 -0.05575669
v 0.02684561 -0.03036821 -0.05575669
v 0.02353125 -0.03212607 -0.05618651
v 0.03282008 -0.02881715 -0.03679664
v -0.00645298 -0.04002069 -0.05575669
v -0.01034413 -0.03919347 -0.05575669
v 0.00000357 -0.04006565 -0.05601382
v -0.00249296 -0.04046128 -0.05575669
v 0.00944735 -0.03868994 -0.05618651
v 0.00544429 -0.04016905 -0.05575669
v 0.00148427 -0.04051074 -0.05575669
v -0.01412337 -0.03799758 -0.05575669
v -0.01778208 -0.03642855 -0.05575669
v -0.02127723 -0.03450434 -0.05575669
v -0.02483264 -0.03286338 -0.05502945
v -0.02792317 -0.03028279 -0.05502945
v -0.03076406 -0.02738749 -0.05502945
v -0.03329502 -0.02424043 -0.05502945
v -0.03285598 -0.02373690 -0.05575669
v -0.03502538 -0.02040551 -0.05575669
v -0.03685043 -0.01688979 -0.05575669
v 0.01687669 -0.03685565 -0.05575669
v 0.01318355 -0.03833477 -0.05575669
v 0.02040628 -0.03503035 -0.05575669
v -0.03889931 -0.01354042 -0.05502945
v -0.04055219 -0.01527130 -0.05186912
v -0.03972575 -0.01610752 -0.05299932
v -0.04064689 -0.01644021 -0.04869536
v -0.04075880 -0.01648517 -0.04652899
v -0.03923505 -0.01914668 -0.03679664
v -0.03938140 -0.01868362 -0.03679664
v 0.03082285 -0.03135728 -0.04674582
v 0.02909249 -0.03265207 -0.04959914
v 0.03035798 -0.03085825 -0.05203222
v 0.03008250 -0.03054354 -0.05299932
v 0.02814553 -0.03008947 -0.05503904
v 0.02694031 -0.03334892 -0.05299932
v 0.02423716 -0.03329947 -0.05502945
v 0.02373786 -0.03285888 -0.05575669
v 0.03269955 -0.02893405 -0.03679664
v -0.00640994 -0.04068607 -0.05502945
v -0.01036996 -0.03986784 -0.05502945
v -0.01421806 -0.03866746 -0.05502945
v 0.00000357 -0.04049275 -0.05575669
v -0.00238105 -0.04112217 -0.05502945
v 0.00000357 -0.04074901 -0.05547846
v 0.00935266 -0.03944073 -0.05575669
v 0.00567673 -0.04079847 -0.05502945
v 0.00165645 -0.04115813 -0.05502945
v -0.01793704 -0.03708044 -0.05502945
v -0.02149245 -0.03513825 -0.05502945
v -0.02409228 -0.03546195 -0.05299932
v -0.02745830 -0.03292632 -0.05299932
v -0.03054023 -0.03008047 -0.05299932
v -0.03334668 -0.02693791 -0.05299932
v -0.03582599 -0.02353459 -0.05299932
v -0.03551608 -0.02086408 -0.05502945
v -0.03738417 -0.01729441 -0.05502945
v 0.01728991 -0.03739065 -0.05502945
v 0.01353650 -0.03890573 -0.05502945
v 0.00964536 -0.04004317 -0.05502945
v 0.02085393 -0.03552040 -0.05502945
v -0.03938140 -0.01805420 -0.05192669
v -0.03796957 -0.01991547 -0.05299932
v -0.03921784 -0.01933101 -0.04959914
v -0.03944166 -0.01942992 -0.04640427
v -0.03915757 -0.01934450 -0.03679664
v -0.03920062 -0.01923660 -0.03679664
v 0.02760318 -0.03423909 -0.04639084
v 0.02575230 -0.03534956 -0.04959914
v 0.02718135 -0.03368611 -0.05203222
v 0.02374647 -0.03619027 -0.05203222
v 0.02353125 -0.03583060 -0.05299932
v 0.03230355 -0.02926224 -0.03679664
v -0.00363793 -0.04271817 -0.05301467
v -0.00781316 -0.04215620 -0.05301467
v -0.01105005 -0.04139641 -0.05303386
v -0.01375319 -0.04059166 -0.05299932
v -0.01670599 -0.03948120 -0.05299932
v 0.00000357 -0.04114464 -0.05502945
v 0.00057175 -0.04287103 -0.05301467
v 0.00000357 -0.04285305 -0.05301467
v 0.00803552 -0.04211124 -0.05299932
v 0.00407550 -0.04270019 -0.05297053
v -0.02050244 -0.03765141 -0.05299932
v -0.02435055 -0.03579014 -0.05203222
v -0.02071766 -0.03800657 -0.05203222
v -0.02774239 -0.03323203 -0.05203222
v -0.03012701 -0.03113699 -0.05186912
v -0.03234806 -0.02883963 -0.05186912
v -0.03498234 -0.02549476 -0.05203222
v -0.03731530 -0.02194307 -0.05203222
v 0.01610191 -0.03973296 -0.05299932
v 0.01990697 -0.03797061 -0.05299932
v 0.01212467 -0.04112217 -0.05299932
v -0.03770270 -0.02215887 -0.04959914
v -0.03791792 -0.02228026 -0.04639659
v -0.03911453 -0.01941643 -0.03679664
v 0.01984671 -0.03882031 -0.03679664
v 0.02500334 -0.03616330 -0.04610109
v 0.02307498 -0.03713889 -0.04959914
v 0.02010497 -0.03839771 -0.05186912
v -0.00248435 -0.04327565 -0.05186912
v -0.00671124 -0.04276763 -0.05203222
v -0.01086926 -0.04190443 -0.05203222
v -0.01392537 -0.04103225 -0.05186912
v -0.01674903 -0.03995775 -0.05193628
v 0.00176836 -0.04325767 -0.05203222
v 0.00000357 -0.04294746 -0.05280168
v 0.00808717 -0.04252935 -0.05203222
v 0.00494498 -0.04299692 -0.05203222
v -0.02460881 -0.03615880 -0.04959914
v -0.01805756 -0.03982288 -0.04959914
v -0.02094149 -0.03839321 -0.04959914
v -0.02803509 -0.03356922 -0.04959914
v -0.03048857 -0.03148317 -0.04869344
v -0.03273546 -0.02916783 -0.04869536
v -0.03534390 -0.02575102 -0.04959914
v 0.01221937 -0.04152679 -0.05203222
v 0.01625687 -0.04017805 -0.05186912
v -0.03616173 -0.02500472 -0.04610109
v -0.03880462 -0.01987051 -0.03679664
v 0.01940766 -0.03911704 -0.03679664
v 0.02242072 -0.03783124 -0.04633711
v 0.02032880 -0.03884729 -0.04869344
v 0.01643765 -0.04065011 -0.04869536
v 0.00000357 -0.04373423 -0.04940533
v -0.00251879 -0.04377469 -0.04869536
v -0.00678872 -0.04320822 -0.04959914
v 0.00000357 -0.04326666 -0.05196506
v 0.00069227 -0.04372074 -0.04959914
v -0.01099840 -0.04233603 -0.04959914
v -0.01512198 -0.04115813 -0.04869536
v 0.00390333 -0.04356339 -0.04959914
v 0.01233989 -0.04195838 -0.04959914
v 0.00816465 -0.04296994 -0.04959914
v -0.02200897 -0.03806502 -0.04638700
v -0.02383402 -0.03694556 -0.04610109
v -0.02650273 -0.03509330 -0.04639659
v -0.01927139 -0.03953065 -0.04648102
v -0.02900787 -0.03304321 -0.04640427
v -0.03134945 -0.03082228 -0.04652899
v -0.03433668 -0.02747291 -0.04631792
v -0.02925753 -0.03230140 -0.03679664
v 0.01933879 -0.03915750 -0.03679664
v 0.01942488 -0.03942275 -0.04581902
v 0.01647208 -0.04076700 -0.04652899
v 0.01240015 -0.04219666 -0.04639084
v -0.00021165 -0.04397700 -0.04666907
v -0.00486037 -0.04370725 -0.04631792
v -0.00789064 -0.04325767 -0.04610109
v 0.00284445 -0.04387809 -0.04640427
v -0.01105866 -0.04257431 -0.04639659
v -0.01516502 -0.04127502 -0.04652899
v 0.00607273 -0.04356339 -0.04639659
v 0.00926657 -0.04298343 -0.04610109
v -0.01467433 -0.04104124 -0.03679664
v -0.02825030 -0.03320056 -0.03679664
v -0.02870657 -0.03289934 -0.03679664
v -0.02877544 -0.03284989 -0.03679664
v -0.01406311 -0.04134695 -0.03679664
v -0.01421806 -0.04127952 -0.03679664
v -0.02893040 -0.03269703 -0.03679664
v 0.01929575 -0.03917998 -0.03679664
v 0.01914079 -0.03924292 -0.03679664
v 0.01867592 -0.03938678 -0.03679664
v 0.00351593 -0.04345099 -0.03679664
v 0.00282724 -0.04358137 -0.03679664
v 0.00275837 -0.04358137 -0.03679664
v 0.00266367 -0.04357687 -0.03679664
v -0.00258766 -0.04377469 -0.04531437
v 0.00217297 -0.04353641 -0.03679664
v -0.01340023 -0.04148633 -0.03679664
v -0.01393397 -0.04138292 -0.03679664
v -0.01402006 -0.04136494 -0.03679664
v 0.00287889 -0.04357687 -0.03679664
v 0.00295637 -0.04356788 -0.03679664
v 0.00349872 -0.04345549 -0.03679664
f 1 2 3
f 1 3 4
f 1 4 11
f 1 11 21
f 1 21 20
f 1 20 33
f 1 33 32
f 1 32 48
f 1 48 78
f 1 78 77
f 1 77 101
f 1 101 100
f 1 100 81
f 1 81 51
f 1 51 36
f 1 36 23
f 1 23 13
f 1 13 5
f 1 5 2
f 2 5 6
f 2 6 7
f 2 7 8
f 2 8 3
f 3 8 9
f 3 9 10
f 3 10 11
f 3 11 4
f 5 12 7
f 5 7 6
f 5 13 24
f 5 24 40
f 5 40 68
f 5 68 66
f 5 66 65
f 5 65 64
f 5 64 92
f 5 92 121
f 5 121 153
f 5 153 189
f 5 189 188
f 5 188 226
f 5 226 225
f 5 225 256
f 5 256 280
f 5 280 302
f 5 302 321
f 5 321 318
f 5 318 317
f 5 317 316
f 5 316 315
f 5 315 320
f 5 320 319
f 5 319 333
f 5 333 332
f 5 332 331
f 5 331 330
f 5 330 328
f 5 328 327
f 5 327 326
f 5 326 334
f 5 334 335
f 5 335 336
f 5 336 325
f 5 325 324
f 5 324 323
f 5 323 322
f 5 322 303
f 5 303 281
f 5 281 257
f 5 257 232
f 5 232 198
f 5 198 162
f 5 162 129
f 5 129 103
f 5 103 102
f 5 102 79
f 5 79 49
f 5 49 34
f 5 34 22
f 5 22 12
f 7 12 14
f 7 14 15
f 7 15 8
f 8 15 9
f 9 15 16
f 9 16 17
f 9 17 18
f 9 18 10
f 10 18 19
f 10 19 20
f 10 20 21
f 10 21 11
f 12 22 14
f 13 23 24
f 14 25 15
f 14 22 25
f 15 25 26
f 15 26 27
f 15 27 16
f 16 27 28
f 16 28 17
f 17 28 29
f 17 29 30
f 17 30 18
f 18 30 31
f 18 31 19
f 19 31 32
f 19 32 33
f 19 33 20
f 22 34 35
f 22 35 25
f 23 36 37
f 23 37 38
f 23 38 39
f 23 39 24
f 24 39 40
f 25 35 26
f 26 35 41
f 26 41 42
f 26 42 27
f 27 42 43
f 27 43 28
f 28 43 44
f 28 44 29
f 29 45 30
f 29 44 46
f 29 46 45
f 30 45 47
f 30 47 31
f 31 47 48
f 31 48 32
f 34 49 35
f 35 49 50
f 35 50 41
f 36 51 52
f 36 52 53
f 36 53 54
f 36 54 55
f 36 55 56
f 36 56 57
f 36 57 58
f 36 58 59
f 36 59 60
f 36 60 61
f 36 61 62
f 36 62 37
f 37 63 64
f 37 64 65
f 37 65 66
f 37 66 38
f 37 62 67
f 37 67 63
f 38 66 68
f 38 68 39
f 39 68 40
f 41 50 69
f 41 69 70
f 41 70 42
f 42 71 43
f 42 70 71
f 43 71 44
f 44 72 73
f 44 73 46
f 44 71 72
f 45 46 74
f 45 74 47
f 46 73 75
f 46 75 74
f 47 74 76
f 47 76 77
f 47 77 78
f 47 78 48
f 49 79 50
f 50 79 80
f 50 80 69
f 51 81 74
f 51 74 82
f 51 82 83
f 51 83 52
f 52 83 84
f 52 84 53
f 53 84 85
f 53 85 54
f 54 85 86
f 54 86 55
f 55 86 56
f 56 86 87
f 56 87 57
f 57 87 58
f 58 88 89
f 58 89 59
f 58 87 88
f 59 89 60
f 60 89 61
f 61 67 62
f 61 89 67
f 63 90 91
f 63 91 64
f 63 67 90
f 64 91 92
f 67 89 90
f 69 80 93
f 69 93 70
f 70 93 94
f 70 94 95
f 70 95 71
f 71 95 72
f 72 95 96
f 72 96 97
f 72 97 73
f 73 97 75
f 74 81 76
f 74 75 82
f 75 97 98
f 75 98 99
f 75 99 82
f 76 81 100
f 76 100 101
f 76 101 77
f 79 102 80
f 80 102 103
f 80 103 104
f 80 104 93
f 82 99 105
f 82 105 113
f 82 113 83
f 83 106 107
f 83 107 108
f 83 108 109
f 83 109 110
f 83 110 111
f 83 111 112
f 83 112 84
f 83 113 106
f 84 112 114
f 84 114 85
f 85 115 86
f 85 114 115
f 86 115 87
f 87 115 116
f 87 116 88
f 88 116 117
f 88 117 118
f 88 118 89
f 89 118 90
f 90 118 119
f 90 119 91
f 91 120 92
f 91 119 120
f 92 120 121
f 93 104 122
f 93 122 123
f 93 123 94
f 94 123 124
f 94 124 95
f 95 124 96
f 96 124 125
f 96 125 126
f 96 126 97
f 97 126 98
f 98 126 127
f 98 127 128
f 98 128 99
f 99 128 105
f 103 129 104
f 104 130 122
f 104 129 130
f 105 128 131
f 105 131 113
f 106 132 107
f 106 113 133
f 106 133 134
f 106 134 135
f 106 135 132
f 107 132 136
f 107 136 108
f 108 137 109
f 108 136 137
f 109 137 138
f 109 138 139
f 109 139 140
f 109 140 141
f 109 141 110
f 110 141 111
f 111 141 142
f 111 142 112
f 112 142 114
f 113 131 143
f 113 143 144
f 113 144 133
f 114 142 145
f 114 145 146
f 114 146 115
f 115 146 116
f 116 146 147
f 116 147 117
f 117 148 149
f 117 149 118
f 117 147 150
f 117 150 148
f 118 149 119
f 119 149 151
f 119 151 120
f 120 152 121
f 120 151 152
f 121 152 153
f 122 130 154
f 122 154 155
f 122 155 156
f 122 156 123
f 123 156 157
f 123 157 124
f 124 157 125
f 125 157 158
f 125 158 127
f 125 127 126
f 127 158 159
f 127 159 128
f 128 159 160
f 128 160 161
f 128 161 131
f 129 162 130
f 130 162 154
f 131 161 143
f 132 163 164
f 132 164 136
f 132 135 165
f 132 165 166
f 132 166 163
f 133 144 167
f 133 167 134
f 134 167 168
f 134 168 169
f 134 169 165
f 134 165 135
f 136 164 170
f 136 170 171
f 136 171 137
f 137 171 172
f 137 172 138
f 138 173 174
f 138 174 139
f 138 172 173
f 139 174 175
f 139 175 140
f 140 175 176
f 140 176 177
f 140 177 141
f 141 177 178
f 141 178 142
f 142 179 145
f 142 178 179
f 143 180 181
f 143 181 167
f 143 167 144
f 143 161 182
f 143 182 180
f 145 183 147
f 145 147 146
f 145 179 183
f 147 183 150
f 148 151 149
f 148 150 184
f 148 184 151
f 150 183 185
f 150 185 184
f 151 184 186
f 151 186 152
f 152 186 187
f 152 187 188
f 152 188 189
f 152 189 153
f 154 162 190
f 154 190 155
f 155 190 191
f 155 191 192
f 155 192 156
f 156 192 193
f 156 193 157
f 157 193 158
f 158 193 159
f 159 193 194
f 159 194 160
f 160 195 196
f 160 196 197
f 160 197 161
f 160 194 195
f 161 197 182
f 162 198 190
f 163 166 199
f 163 199 200
f 163 200 164
f 164 200 201
f 164 201 170
f 165 202 166
f 165 169 202
f 166 203 199
f 166 202 204
f 166 204 203
f 167 205 168
f 167 181 205
f 168 206 207
f 168 207 169
f 168 205 206
f 169 204 202
f 169 207 204
f 170 201 208
f 170 208 171
f 171 208 209
f 171 209 172
f 172 209 173
f 173 209 210
f 173 210 211
f 173 211 174
f 174 211 212
f 174 212 175
f 175 212 213
f 175 213 176
f 176 213 214
f 176 214 215
f 176 215 177
f 177 215 178
f 178 215 216
f 178 216 179
f 179 216 183
f 180 182 217
f 180 217 218
f 180 218 181
f 181 218 219
f 181 219 205
f 182 197 220
f 182 220 217
f 183 216 185
f 184 185 221
f 184 221 186
f 185 216 222
f 185 222 221
f 186 221 223
f 186 223 224
f 186 224 187
f 187 224 225
f 187 225 226
f 187 226 188
f 190 198 227
f 190 227 191
f 191 227 228
f 191 228 229
f 191 229 192
f 192 229 195
f 192 195 193
f 193 195 194
f 195 229 230
f 195 230 231
f 195 231 196
f 196 231 220
f 196 220 197
f 198 232 227
f 199 203 233
f 199 233 234
f 199 234 200
f 200 234 235
f 200 235 236
f 200 236 201
f 201 237 208
f 201 236 237
f 203 204 238
f 203 238 239
f 203 239 240
f 203 240 233
f 204 207 238
f 205 219 206
f 206 219 241
f 206 241 242
f 206 242 207
f 207 242 239
f 207 239 238
f 208 243 209
f 208 237 243
f 209 243 210
f 210 244 211
f 210 243 245
f 210 245 244
f 211 244 246
f 211 246 247
f 211 247 212
f 212 248 213
f 212 247 248
f 213 248 249
f 213 249 214
f 214 249 250
f 214 250 222
f 214 222 215
f 215 222 216
f 217 251 218
f 217 220 252
f 217 252 251
f 218 251 253
f 218 253 219
f 219 253 241
f 220 231 252
f 221 222 250
f 221 250 223
f 223 250 254
f 223 254 255
f 223 255 224
f 224 255 225
f 225 255 256
f 227 232 257
f 227 257 258
f 227 258 228
f 228 258 259
f 228 259 230
f 228 230 229
f 230 259 260
f 230 260 252
f 230 252 231
f 233 240 261
f 233 261 262
f 233 262 234
f 234 263 235
f 234 262 263
f 235 263 236
f 236 264 265
f 236 265 237
f 236 263 264
f 237 265 245
f 237 245 243
f 239 242 266
f 239 266 267
f 239 267 240
f 240 267 261
f 241 268 269
f 241 269 242
f 241 253 268
f 242 269 266
f 244 270 246
f 244 245 270
f 245 265 271
f 245 271 272
f 245 272 270
f 246 273 247
f 246 270 273
f 247 273 274
f 247 274 275
f 247 275 248
f 248 275 276
f 248 276 249
f 249 276 250
f 250 276 254
f 251 277 253
f 251 252 260
f 251 260 278
f 251 278 277
f 253 277 268
f 254 276 279
f 254 279 255
f 255 279 256
f 256 279 280
f 257 281 258
f 258 281 282
f 258 282 259
f 259 282 283
f 259 283 260
f 260 283 284
f 260 284 278
f 261 285 286
f 261 286 287
f 261 287 262
f 261 267 288
f 261 288 289
f 261 289 285
f 262 287 290
f 262 290 263
f 263 290 264
f 264 291 265
f 264 290 291
f 265 291 271
f 266 269 292
f 266 292 289
f 266 289 288
f 266 288 267
f 268 277 293
f 268 293 294
f 268 294 269
f 269 294 292
f 270 272 295
f 270 295 296
f 270 296 297
f 270 297 273
f 271 291 298
f 271 298 272
f 272 298 295
f 273 299 274
f 273 297 299
f 274 300 275
f 274 299 300
f 275 300 301
f 275 301 276
f 276 301 279
f 277 278 293
f 278 284 293
f 279 301 280
f 280 301 302
f 281 303 282
f 282 303 304
f 282 304 283
f 283 304 305
f 283 305 284
f 284 305 306
f 284 306 293
f 285 307 286
f 285 289 307
f 286 308 287
f 286 307 308
f 287 309 290
f 287 308 309
f 289 292 310
f 289 310 307
f 290 309 311
f 290 311 291
f 291 311 312
f 291 312 298
f 292 294 313
f 292 313 310
f 293 306 314
f 293 314 294
f 294 314 313
f 295 298 315
f 295 315 316
f 295 316 296
f 296 316 317
f 296 317 297
f 297 317 318
f 297 318 299
f 298 312 319
f 298 319 320
f 298 320 315
f 299 318 300
f 300 318 321
f 300 321 301
f 301 321 302
f 303 322 304
f 304 322 305
f 305 322 323
f 305 323 306
f 306 323 324
f 306 324 325
f 306 325 314
f 307 310 326
f 307 326 327
f 307 327 328
f 307 328 329
f 307 329 308
f 308 329 328
f 308 328 330
f 308 330 331
f 308 331 309
f 309 331 332
f 309 332 333
f 309 333 311
f 310 313 334
f 310 334 326
f 311 333 312
f 312 333 319
f 313 314 335
f 313 335 334
f 314 325 336
f 314 336 335

