# https://github.com/mikedh/trimesh
v -0.03092631 0.03605628 0.05639742
v -0.03092631 0.03577176 0.05629116
v -0.03092631 0.03674065 0.05639325
v -0.03487444 0.03258826 0.05639742
v -0.04709440 0.00773926 0.05639742
v -0.04742700 -0.00000418 0.05638700
v -0.04715793 -0.00000418 0.05618282
v -0.03092631 0.03532192 0.05585989
v -0.04703835 -0.00000418 0.05601615
v -0.03092631 0.03697903 0.05638700
v -0.03855164 0.02963929 0.05638075
v -0.04054906 0.02517162 0.05639742
v -0.04468965 0.01676687 0.05639742
v -0.04548563 0.01712059 0.05638909
v -0.04852007 0.00322161 0.05638075
v -0.04825101 -0.00000418 0.05638283
v -0.03092631 0.03496819 0.05507235
v -0.04672070 -0.00000418 0.05507235
v -0.03092631 0.03743656 0.05637450
v -0.03412331 0.03491437 0.05635575
v -0.03616183 0.03345334 0.05620157
v -0.03925606 0.02975848 0.05620157
v -0.04273520 0.02360294 0.05635367
v -0.04621061 0.01707446 0.05620157
v -0.04765682 0.01247607 0.05620157
v -0.04776146 0.01010766 0.05635575
v -0.04430848 0.02152290 0.05620157
v -0.04917217 0.00292940 0.05620157
v -0.04920580 -0.00000418 0.05620157
v -0.04857799 -0.00000418 0.05637033
v -0.03092631 0.03451066 0.05210759
v -0.04632832 -0.00000418 0.05210759
v -0.03092631 0.03826704 0.05620157
v -0.03270138 0.03684062 0.05620157
v -0.03296671 0.03707515 0.05592239
v -0.03644771 0.03366481 0.05592239
v -0.03956250 0.02993919 0.05592239
v -0.04215784 0.02590983 0.05608282
v -0.04655441 0.01715904 0.05592239
v -0.04464481 0.02163824 0.05592239
v -0.04800623 0.01252605 0.05592239
v -0.04886387 0.00780847 0.05608282
v -0.04952719 0.00291018 0.05592239
v -0.04955709 -0.00000418 0.05592239
v -0.03092631 0.03344181 0.03511497
v -0.04554542 -0.00000418 0.03511497
v -0.03092631 0.03849389 0.05606198
v -0.03092631 0.03871688 0.05592239
v -0.03092631 0.03905907 0.05535986
v -0.03316476 0.03725586 0.05535986
v -0.03579934 0.03471060 0.05535986
v -0.03826763 0.03199616 0.05535986
v -0.04121798 0.02808599 0.05535986
v -0.04377222 0.02390668 0.05535986
v -0.04590978 0.01950053 0.05535986
v -0.04720278 0.01607865 0.05535986
v -0.04827156 0.01256450 0.05535986
v -0.04926747 0.00776617 0.05535986
v -0.04979251 0.00289480 0.05535986
v -0.04966359 -0.00000418 0.05569530
v -0.03092631 0.03890528 0.03511497
v -0.04974020 -0.00000418 0.03511497
v -0.03092631 0.03924747 0.05388269
v -0.03144014 0.03889375 0.05340142
v -0.03510613 0.03562181 0.05339933
v -0.03842084 0.03201923 0.05340142
v -0.04137307 0.02809752 0.05340142
v -0.04392917 0.02389899 0.05340142
v -0.04601254 0.01959665 0.05350559
v -0.04774838 0.01488292 0.05340142
v -0.04897598 0.01012689 0.05340142
v -0.04973272 0.00527474 0.05340142
v -0.05001300 0.00036876 0.05339933
v -0.04982054 -0.00000418 0.05535986
v -0.03124582 0.03867075 0.03511497
v -0.03092631 0.03892835 0.03570250
v -0.04987473 -0.00000418 0.04049443
v -0.04991957 0.00043028 0.04182159
v -0.04974767 0.00032647 0.03511497
v -0.03092631 0.03926669 0.05340142
v -0.03092631 0.03917057 0.04334251
v -0.03133177 0.03886299 0.04216119
v -0.03499776 0.03559874 0.04182159
v -0.03830687 0.03200385 0.04117156
v -0.04126096 0.02808983 0.04171950
v -0.04381706 0.02391437 0.04216119
v -0.04600320 0.01940826 0.04219661
v -0.04763627 0.01491367 0.04117156
v -0.04886948 0.01016534 0.04171950
v -0.04963369 0.00532857 0.04216119
v -0.04990089 -0.00000418 0.04176534
v -0.04998871 -0.00000418 0.05245136
v -0.04999618 -0.00000418 0.05339933
v -0.04998497 -0.00000418 0.05370768
v -0.03373279 0.03648690 0.03511497
v -0.03092631 0.03915519 0.04211536
v -0.04965051 0.00195282 0.03511497
v -0.03495105 0.03540266 0.03511497
v -0.03640100 0.03388396 0.03511497
v -0.03860770 0.03137715 0.03511497
v -0.03773324 0.03244216 0.03511497
v -0.04100124 0.02812059 0.03511497
v -0.04343589 0.02414890 0.03511497
v -0.04366571 0.02377211 0.03511497
v -0.04512501 0.02080008 0.03511497
v -0.04585186 0.01930445 0.03511497
v -0.04662915 0.01729746 0.03511497
v -0.04727565 0.01554038 0.03511497
v -0.04767551 0.01421776 0.03511497
v -0.04864152 0.01029221 0.03511497
v -0.04937210 0.00569382 0.03511497
v -0.04943937 0.00525551 0.03511497
f 1 2 8
f 1 8 17
f 1 17 31
f 1 31 45
f 1 45 61
f 1 61 76
f 1 76 96
f 1 96 81
f 1 81 80
f 1 80 63
f 1 63 49
f 1 49 48
f 1 48 47
f 1 47 33
f 1 33 19
f 1 19 10
f 1 10 3
f 1 3 4
f 1 4 12
f 1 12 13
f 1 13 5
f 1 5 6
f 1 6 7
f 1 7 2
f 2 7 9
f 2 9 8
f 3 10 11
f 3 11 4
f 4 11 12
f 5 13 14
f 5 14 15
f 5 15 16
f 5 16 6
f 6 16 30
f 6 30 29
f 6 29 44
f 6 44 60
f 6 60 74
f 6 74 94
f 6 94 93
f 6 93 92
f 6 92 91
f 6 91 77
f 6 77 62
f 6 62 46
f 6 46 32
f 6 32 18
f 6 18 9
f 6 9 7
f 8 9 18
f 8 18 17
f 10 19 11
f 11 19 20
f 11 20 21
f 11 21 22
f 11 22 23
f 11 23 14
f 11 14 12
f 12 14 13
f 14 24 25
f 14 25 26
f 14 26 15
f 14 23 27
f 14 27 24
f 15 28 29
f 15 29 30
f 15 30 16
f 15 26 28
f 17 18 32
f 17 32 31
f 19 33 34
f 19 34 20
f 20 34 21
f 21 34 35
f 21 35 36
f 21 36 22
f 22 37 38
f 22 38 23
f 22 36 37
f 23 38 27
f 24 39 25
f 24 27 40
f 24 40 39
f 25 41 42
f 25 42 26
f 25 39 41
f 26 42 28
f 27 38 40
f 28 43 29
f 28 42 43
f 29 43 44
f 31 32 46
f 31 46 45
f 33 47 34
f 34 47 35
f 35 47 48
f 35 48 49
f 35 49 50
f 35 50 51
f 35 51 36
f 36 51 52
f 36 52 37
f 37 53 38
f 37 52 53
f 38 54 40
f 38 53 54
f 39 55 56
f 39 56 41
f 39 40 55
f 40 54 55
f 41 57 58
f 41 58 42
f 41 56 57
f 42 58 43
f 43 59 44
f 43 58 59
f 44 59 60
f 45 46 62
f 45 62 79
f 45 79 97
f 45 97 112
f 45 112 111
f 45 111 110
f 45 110 109
f 45 109 108
f 45 108 107
f 45 107 106
f 45 106 105
f 45 105 104
f 45 104 103
f 45 103 102
f 45 102 100
f 45 100 101
f 45 101 99
f 45 99 98
f 45 98 95
f 45 95 75
f 45 75 61
f 49 63 50
f 50 63 64
f 50 64 65
f 50 65 51
f 51 65 66
f 51 66 52
f 52 66 53
f 53 66 67
f 53 67 54
f 54 67 68
f 54 68 69
f 54 69 55
f 55 69 56
f 56 69 70
f 56 70 57
f 57 71 58
f 57 70 71
f 58 71 72
f 58 72 59
f 59 72 73
f 59 73 74
f 59 74 60
f 61 75 76
f 62 77 78
f 62 78 79
f 63 80 64
f 64 80 81
f 64 81 82
f 64 82 83
f 64 83 65
f 65 83 84
f 65 84 66
f 66 84 85
f 66 85 67
f 67 85 86
f 67 86 68
f 68 86 87
f 68 87 69
f 69 87 70
f 70 87 88
f 70 88 89
f 70 89 71
f 71 89 90
f 71 90 72
f 72 78 73
f 72 90 78
f 73 78 91
f 73 91 92
f 73 92 93
f 73 93 94
f 73 94 74
f 75 82 76
f 75 95 82
f 76 82 96
f 77 91 78
f 78 97 79
f 78 90 97
f 81 96 82
f 82 95 83
f 83 98 99
f 83 99 84
f 83 95 98
f 84 100 85
f 84 99 101
f 84 101 100
f 85 100 102
f 85 102 103
f 85 103 104
f 85 104 86
f 86 104 105
f 86 105 106
f 86 106 87
f 87 106 107
f 87 107 88
f 88 108 109
f 88 109 89
f 88 107 108
f 89 110 111
f 89 111 90
f 89 109 110
f 90 111 112
f 90 112 97

