# https://github.com/mikedh/trimesh
v -0.00288919 0.04442857 -0.02734886
v -0.00335786 0.04438494 -0.02734886
v -0.00264980 0.04442493 -0.02734886
v -0.00283187 0.04358508 -0.03679664
v -0.00344216 0.04436858 -0.02734886
v -0.00296337 0.04357236 -0.03679664
v -0.00230251 0.04441948 -0.02734886
v -0.00266666 0.04358145 -0.03679664
v -0.00350285 0.04345965 -0.03679664
v -0.01864532 0.03940037 -0.03679664
v -0.01900947 0.04019296 -0.02734886
v -0.00218450 0.04440857 -0.02734886
v -0.00218113 0.04353963 -0.03679664
v -0.01913759 0.03924586 -0.03679664
v -0.01912411 0.04015660 -0.02734886
v -0.00207323 0.04437403 -0.02734886
v -0.00215078 0.04353600 -0.03679664
v -0.01929269 0.03918405 -0.03679664
v -0.01944779 0.04002935 -0.02734886
v -0.00167537 0.04338694 -0.03679664
v -0.00126064 0.04403591 -0.02734886
v -0.00066385 0.04298882 -0.03679664
v -0.01933653 0.03916224 -0.03679664
v -0.01966696 0.03994028 -0.02734886
v -0.00099428 0.04391775 -0.02734886
v 0.00000039 0.04264707 -0.03679664
v -0.01941070 0.03912224 -0.03679664
v -0.02008505 0.03972214 -0.02734886
v -0.01982206 0.03986029 -0.02734886
v 0.00000713 0.04334513 -0.02734886
v 0.00000713 0.04264161 -0.03604748
v 0.00000713 0.03758070 -0.03679664
v -0.01984566 0.03882411 -0.03679664
v -0.02015923 0.03967305 -0.02734886
v 0.00000713 0.03728621 -0.02734886
v 0.00000713 0.03406133 -0.03679664
v -0.01986252 0.03881139 -0.03679664
v -0.03230422 0.02926582 -0.03679664
v -0.03294486 0.02986026 -0.02734886
v -0.02685887 0.02585734 -0.02734886
v -0.02215530 0.02585734 -0.03679664
v -0.03232783 0.02924764 -0.03679664
v -0.03270209 0.02893497 -0.03679664
v -0.03303589 0.02978210 -0.02734886
v -0.03443854 0.02585734 -0.02734886
v -0.03383837 0.02585734 -0.03679664
v -0.03282010 0.02882045 -0.03679664
v -0.03328540 0.02954214 -0.02734886
v -0.03424972 0.02721891 -0.02734886
v -0.03420251 0.02754795 -0.02734886
v -0.03367653 0.02670810 -0.03679664
v -0.03290440 0.02871683 -0.03679664
v -0.03376082 0.02901314 -0.02734886
v -0.03345736 0.02937489 -0.02734886
v -0.03417891 0.02765702 -0.02734886
v -0.03407102 0.02812421 -0.02734886
v -0.03402381 0.02832599 -0.02734886
v -0.03340341 0.02775155 -0.03679664
v -0.03319436 0.02827691 -0.03679664
v -0.03380465 0.02894043 -0.02734886
v -0.03383162 0.02887862 -0.02734886
v -0.03338993 0.02779336 -0.03679664
v -0.03320448 0.02825691 -0.03679664
v -0.03321122 0.02824237 -0.03679664
v -0.03336295 0.02786789 -0.03679664
f 1 2 5
f 1 5 11
f 1 11 15
f 1 15 19
f 1 19 24
f 1 24 29
f 1 29 28
f 1 28 34
f 1 34 39
f 1 39 44
f 1 44 48
f 1 48 54
f 1 54 53
f 1 53 60
f 1 60 61
f 1 61 57
f 1 57 56
f 1 56 55
f 1 55 50
f 1 50 49
f 1 49 45
f 1 45 40
f 1 40 35
f 1 35 30
f 1 30 25
f 1 25 21
f 1 21 16
f 1 16 12
f 1 12 7
f 1 7 3
f 1 3 4
f 1 4 2
f 2 4 6
f 2 6 5
f 3 7 4
f 4 7 8
f 4 8 13
f 4 13 17
f 4 17 20
f 4 20 22
f 4 22 26
f 4 26 32
f 4 32 36
f 4 36 41
f 4 41 46
f 4 46 51
f 4 51 58
f 4 58 62
f 4 62 65
f 4 65 64
f 4 64 63
f 4 63 59
f 4 59 52
f 4 52 47
f 4 47 43
f 4 43 42
f 4 42 38
f 4 38 37
f 4 37 33
f 4 33 27
f 4 27 23
f 4 23 18
f 4 18 14
f 4 14 10
f 4 10 9
f 4 9 6
f 5 6 9
f 5 9 10
f 5 10 11
f 7 12 13
f 7 13 8
f 10 14 11
f 11 14 15
f 12 16 17
f 12 17 13
f 14 18 19
f 14 19 15
f 16 20 17
f 16 21 22
f 16 22 20
f 18 23 24
f 18 24 19
f 21 25 22
f 22 25 26
f 23 27 28
f 23 28 29
f 23 29 24
f 25 30 26
f 26 30 31
f 26 31 32
f 27 33 34
f 27 34 28
f 30 35 36
f 30 36 32
f 30 32 31
f 33 37 34
f 34 37 38
f 34 38 39
f 35 40 36
f 36 40 41
f 38 42 39
f 39 42 43
f 39 43 44
f 40 45 46
f 40 46 41
f 43 47 48
f 43 48 44
f 45 49 46
f 46 49 50
f 46 50 51
f 47 52 53
f 47 53 54
f 47 54 48
f 50 55 51
f 51 55 56
f 51 56 57
f 51 57 58
f 52 59 53
f 53 59 60
f 57 61 62
f 57 62 58
f 59 63 60
f 60 63 64
f 60 64 61
f 61 64 65
f 61 65 62

