# https://github.com/mikedh/trimesh
v 0.00020730 0.04397700 -0.04666907
v 0.00468940 0.04371857 -0.04622006
v 0.00467219 0.04359797 -0.04869536
v 0.00037076 0.04379610 -0.04915013
v 0.00000084 0.04379179 -0.04909832
v -0.00284671 0.04374441 -0.04869344
v -0.00285532 0.04385640 -0.04581902
v -0.00282951 0.04358074 -0.03679664
v -0.00266605 0.04358074 -0.03679664
v 0.01339549 0.04148746 -0.03679664
v 0.00788106 0.04324048 -0.04596294
v 0.00786385 0.04311987 -0.04869344
v -0.00217569 0.04353767 -0.03679664
v 0.00775201 0.04262886 -0.05186912
v 0.00460337 0.04309834 -0.05186912
v 0.00000084 0.04373580 -0.04945714
v 0.00052561 0.04332231 -0.05192669
v -0.00282951 0.04324048 -0.05186912
v -0.00603837 0.04332231 -0.04959914
v -0.00607279 0.04356351 -0.04639659
v -0.00295855 0.04357213 -0.03679664
v 0.01393747 0.04138840 -0.03679664
v 0.01106412 0.04257287 -0.04639659
v 0.01099529 0.04233597 -0.04959914
v 0.01087485 0.04190525 -0.05203222
v 0.00900803 0.04188803 -0.05303386
v 0.00573034 0.04249103 -0.05301467
v 0.00153214 0.04284852 -0.05301467
v 0.00000084 0.04283129 -0.05301467
v 0.00000084 0.04323617 -0.05210514
v -0.00266605 0.04279684 -0.05301467
v -0.00598676 0.04287436 -0.05203222
v -0.01016775 0.04208185 -0.05203222
v -0.01026238 0.04251687 -0.04959914
v -0.00926445 0.04298635 -0.04610109
v -0.00350053 0.04345583 -0.03679664
v 0.01406652 0.04134533 -0.03679664
v 0.01516768 0.04127210 -0.04652899
v 0.01511606 0.04115581 -0.04869536
v 0.01392887 0.04103521 -0.05186912
v 0.01256962 0.04100937 -0.05297053
v 0.01036729 0.03986366 -0.05502945
v 0.00640997 0.04068633 -0.05502945
v 0.00238383 0.04112566 -0.05502945
v 0.00000084 0.04114720 -0.05502945
v -0.00165952 0.04116012 -0.05502945
v -0.00566845 0.04080263 -0.05502945
v -0.00683844 0.04232736 -0.05301467
v -0.01095921 0.04144870 -0.05301467
v -0.01424551 0.04088015 -0.05203222
v -0.01438315 0.04130656 -0.04959914
v -0.01239589 0.04219814 -0.04639084
v -0.00351774 0.04345153 -0.03679664
v 0.01412674 0.04131948 -0.03679664
v 0.01927125 0.03953201 -0.04648102
v 0.01805824 0.03982490 -0.04959914
v 0.01674201 0.03995411 -0.05193628
v 0.01588172 0.03982921 -0.05301467
v 0.01422137 0.03866628 -0.05502945
v 0.01034148 0.03919606 -0.05575669
v 0.00645298 0.04002303 -0.05575669
v 0.00248706 0.04046236 -0.05575669
v 0.00000084 0.04049681 -0.05575669
v 0.00000084 0.04075094 -0.05547654
v -0.00148746 0.04051405 -0.05575669
v -0.00544478 0.04017378 -0.05575669
v -0.00935908 0.03944156 -0.05575669
v -0.00965158 0.04004456 -0.05502945
v -0.01353147 0.03890748 -0.05502945
v -0.01497675 0.04017378 -0.05301467
v -0.01804797 0.03938988 -0.05192669
v -0.01839209 0.03975168 -0.04915013
v -0.01632740 0.04083277 -0.04665948
v -0.01914053 0.03924343 -0.03679664
v -0.01867598 0.03938988 -0.03679664
v 0.01421276 0.04128072 -0.03679664
v 0.01467732 0.04104383 -0.03679664
v 0.02278982 0.03760671 -0.04609534
v 0.02094020 0.03839492 -0.04959914
v 0.02071653 0.03800728 -0.05203222
v 0.01970999 0.03807619 -0.05301467
v 0.01793780 0.03708124 -0.05502945
v 0.01412674 0.03799866 -0.05575669
v 0.00607446 0.03935973 -0.05618651
v 0.01354174 0.03728798 -0.05625175
v 0.00000084 0.04006610 -0.05601190
v -0.00172834 0.03979044 -0.05618651
v -0.00944511 0.03869212 -0.05618651
v -0.01317875 0.03833462 -0.05575669
v -0.01687798 0.03685727 -0.05575669
v -0.01729092 0.03739136 -0.05502945
v -0.01806518 0.03898931 -0.05283238
v -0.02105037 0.03787806 -0.05186912
v -0.02127404 0.03832170 -0.04869344
v -0.01942443 0.03945018 -0.04640427
v -0.01929539 0.03918313 -0.03679664
v 0.02825264 0.03320049 -0.03679664
v 0.02476848 0.03634472 -0.04642154
v 0.02370172 0.03674097 -0.04959914
v 0.02451039 0.03572018 -0.05192669
v 0.02334900 0.03595707 -0.05301467
v 0.02149079 0.03513871 -0.05502945
v 0.01778295 0.03642655 -0.05575669
v 0.00590240 0.03843369 -0.05638991
v 0.00000084 0.03948463 -0.05623256
v 0.00000084 0.03969568 -0.05618651
v 0.02068212 0.03403608 -0.05618651
v 0.02016595 0.03325218 -0.05638991
v 0.01236315 0.03644378 -0.05639950
v -0.00171113 0.03885148 -0.05638991
v -0.01682636 0.03609921 -0.05618651
v -0.00925585 0.03777038 -0.05638991
v -0.02039655 0.03503103 -0.05575669
v -0.02086111 0.03552205 -0.05502945
v -0.02013847 0.03782207 -0.05302810
v -0.02353660 0.03583216 -0.05299932
v -0.02376887 0.03623704 -0.05186912
v -0.02403556 0.03666345 -0.04869536
v -0.02227198 0.03791252 -0.04622390
v -0.01940722 0.03911853 -0.03679664
v 0.02870859 0.03289899 -0.03679664
v 0.02832146 0.03364413 -0.04633327
v 0.02642023 0.03498796 -0.04869536
v 0.02763323 0.03336416 -0.05193628
v 0.02605030 0.03401455 -0.05303386
v 0.02483730 0.03286453 -0.05502945
v 0.02127572 0.03450556 -0.05575669
v 0.02455341 0.03225722 -0.05575669
v 0.02677295 0.02926375 -0.05625175
v 0.02536208 0.02894071 -0.05639950
v -0.02893059 0.02536577 -0.05639950
v -0.01645644 0.03523347 -0.05638991
v -0.02352800 0.03212801 -0.05618651
v -0.02373446 0.03285592 -0.05575669
v -0.02423343 0.03330386 -0.05502945
v -0.02693473 0.03334693 -0.05299932
v -0.02721002 0.03373027 -0.05186912
v -0.02751972 0.03412653 -0.04869536
v -0.02499048 0.03615089 -0.04596294
v -0.01984597 0.03882133 -0.03679664
v 0.02881182 0.03281715 -0.03679664
v 0.03135827 0.03082294 -0.04674582
v 0.02964630 0.03216247 -0.04959914
v 0.02888925 0.03170160 -0.05297053
v 0.03085930 0.03035777 -0.05203222
v 0.02792573 0.03028024 -0.05502945
v 0.02759022 0.02969877 -0.05575669
v 0.03036894 0.02685174 -0.05575669
v 0.03212392 0.02353093 -0.05618651
v 0.03134967 0.02300545 -0.05638991
v 0.03522956 0.01646288 -0.05638991
v 0.03840402 0.00252923 -0.05639950
v -0.03644089 0.01236677 -0.05639950
v -0.03324923 0.02017134 -0.05638991
v -0.02925750 0.02677421 -0.05625175
v -0.02300322 0.03135272 -0.05638991
v -0.02684870 0.03037069 -0.05575669
v -0.02739068 0.03076264 -0.05502945
v -0.03008338 0.03054298 -0.05299932
v -0.03035867 0.03085740 -0.05203222
v -0.03066837 0.03118474 -0.04959914
v -0.03082322 0.03135703 -0.04674582
v -0.02758855 0.03422990 -0.04622006
v -0.01986318 0.03880841 -0.03679664
v 0.02893226 0.03270086 -0.03679664
v 0.03424023 0.02760119 -0.04639084
v 0.03264870 0.02909577 -0.04959914
v 0.03137547 0.02921206 -0.05301467
v 0.03368965 0.02718339 -0.05203222
v 0.03075607 0.02739444 -0.05502945
v 0.03330252 0.02424161 -0.05502945
v 0.03285517 0.02373767 -0.05575669
v 0.03502309 0.02040824 -0.05575669
v 0.03609845 0.01682899 -0.05618651
v 0.03776740 0.00926131 -0.05638991
v 0.03916967 0.00195638 -0.05633618
v 0.03899761 0.00195638 -0.05635153
v 0.03840402 0.00195638 -0.05639566
v -0.03875506 -0.00002492 -0.05638991
v -0.03842816 0.00590604 -0.05638991
v -0.03728397 0.01354694 -0.05625175
v -0.03403209 0.02068389 -0.05618651
v -0.03225130 0.02455172 -0.05575669
v -0.02969625 0.02758827 -0.05575669
v -0.03028124 0.02792853 -0.05502945
v -0.03223409 0.02824295 -0.05299932
v -0.03336107 0.02763134 -0.05193628
v -0.03361055 0.02807497 -0.04915013
v -0.03303416 0.02900963 -0.04640427
v -0.03284490 0.02877704 -0.03679664
v -0.03269865 0.02892779 -0.03679664
v -0.03230292 0.02925944 -0.03679664
v 0.02925917 0.03230030 -0.03679664
v 0.03613286 0.02497813 -0.04581902
v 0.03678668 0.02409947 -0.04642154
v 0.03535000 0.02575342 -0.04959914
v 0.03880835 0.01986984 -0.03679664
v 0.03409398 0.02598600 -0.05301467
v 0.03631352 0.02361707 -0.05192669
v 0.03648558 0.02251874 -0.05301467
v 0.03552206 0.02086479 -0.05502945
v 0.03738888 0.01729416 -0.05502945
v 0.03685550 0.01688498 -0.05575669
v 0.03833519 0.01318944 -0.05575669
v 0.03868791 0.00945514 -0.05618651
v 0.03918687 0.00195638 -0.05633234
v 0.00000084 -0.00002492 -0.05374383
v -0.03970138 -0.00002492 -0.05618651
v -0.03935726 0.00608263 -0.05618651
v -0.03919381 0.01035102 -0.05575669
v -0.03799801 0.01413271 -0.05575669
v -0.03642369 0.01779379 -0.05575669
v -0.03450525 0.02128259 -0.05575669
v -0.03286210 0.02483169 -0.05502945
v -0.03400628 0.02605061 -0.05303386
v -0.03583009 0.02437943 -0.05186912
v -0.03624303 0.02466801 -0.04869536
v -0.03508164 0.02649856 -0.04622390
v -0.03289651 0.02871244 -0.03679664
v 0.03911805 0.01941759 -0.03679664
v 0.03897180 0.02039962 -0.04640427
v 0.03723403 0.02312605 -0.04869344
v 0.03875673 0.02028764 -0.04959914
v 0.03835240 0.02008951 -0.05203222
v 0.03809431 0.01961572 -0.05303386
v 0.03972886 0.01610969 -0.05299932
v 0.03890298 0.01353832 -0.05502945
v 0.04003856 0.00965327 -0.05502945
v 0.03943636 0.00936469 -0.05575669
v 0.04016760 0.00544517 -0.05575669
v 0.03992672 0.00209851 -0.05612319
v 0.03962562 0.00195638 -0.05621145
v 0.00000084 -0.00002492 -0.04171846
v 0.03992672 0.00195638 -0.05612319
v 0.03998694 0.00195638 -0.05608097
v 0.04082142 0.00195638 -0.05541897
v 0.04291192 0.00195638 -0.05284581
v 0.04294633 0.00195638 -0.05275946
v 0.04319581 0.00195638 -0.05203222
v 0.04364316 0.00195638 -0.04959914
v 0.04390985 0.00195638 -0.04650021
v -0.04006270 -0.00002492 -0.05601382
v -0.04045843 0.00249477 -0.05575669
v -0.04001968 0.00645305 -0.05575669
v -0.03866043 0.01422316 -0.05502945
v -0.03986483 0.01037687 -0.05502945
v -0.03707750 0.01794885 -0.05502945
v -0.03514186 0.02149795 -0.05502945
v -0.03595053 0.02335433 -0.05301467
v -0.03800662 0.02073127 -0.05203222
v -0.03839374 0.02095525 -0.04959914
v -0.03753346 0.02291069 -0.04612028
v -0.03319761 0.02825157 -0.03679664
v 0.03916107 0.01934437 -0.03679664
v 0.04076980 0.01648442 -0.04674582
v 0.04054613 0.01640258 -0.04959914
v 0.04012459 0.01624321 -0.05203222
v 0.04152685 0.01222894 -0.05203222
v 0.04111392 0.01212988 -0.05299932
v 0.04211185 0.00803808 -0.05299932
v 0.04079561 0.00568207 -0.05502945
v 0.04079561 0.00264121 -0.05541897
v 0.04347110 0.00195638 -0.03679664
v -0.03397187 -0.00002492 -0.03679664
v 0.04265383 0.00414010 -0.05302810
v 0.04311838 0.00388168 -0.05203222
v 0.04356573 0.00391182 -0.04959914
v 0.04387544 0.00285657 -0.04640427
v 0.04358294 0.00283504 -0.03679664
v 0.04358294 0.00276612 -0.03679664
v 0.04353132 0.00215451 -0.03679664
v 0.04347970 0.00197360 -0.03679664
v -0.04049284 -0.00002492 -0.05575669
v -0.04074232 -0.00002492 -0.05548421
v -0.04112085 0.00238709 -0.05502945
v -0.04069071 0.00641428 -0.05502945
v -0.04100901 0.01258213 -0.05297053
v -0.03983042 0.01588141 -0.05301467
v -0.04198114 0.00869708 -0.05299932
v -0.03807544 0.01971909 -0.05301467
v -0.03995086 0.01675577 -0.05193628
v -0.03982182 0.01806945 -0.04959914
v -0.03952932 0.01928407 -0.04648102
v -0.04104343 0.01467972 -0.03679664
v 0.03920408 0.01923669 -0.03679664
v 0.04219788 0.01240123 -0.04639084
v 0.04195700 0.01234524 -0.04959914
v 0.03923849 0.01914624 -0.03679664
v 0.04297213 0.00817160 -0.04959914
v 0.04252479 0.00809407 -0.05203222
v -0.04265216 -0.00002492 -0.03679664
v 0.04356573 0.00607402 -0.04639659
v 0.04356573 0.00296425 -0.03679664
v -0.04114666 -0.00002492 -0.05502945
v -0.04286723 0.00032827 -0.05299932
v -0.04262635 0.00453636 -0.05299932
v -0.04102622 0.01393458 -0.05186912
v -0.04190371 0.01087650 -0.05203222
v -0.04276400 0.00671148 -0.05203222
v -0.04115526 0.01512335 -0.04869536
v -0.04126710 0.01517504 -0.04652899
v -0.04134452 0.01406810 -0.03679664
v -0.04127570 0.01422316 -0.03679664
v 0.03938474 0.01868107 -0.03679664
v 0.03939335 0.01865092 -0.03679664
v 0.04346250 0.00348542 -0.03679664
v 0.04298074 0.00927424 -0.04610109
v -0.04148217 0.01340480 -0.03679664
v -0.04377053 0.00259384 -0.04531437
v -0.04381355 -0.00002492 -0.04537961
v -0.04285002 -0.00002492 -0.05299932
v -0.04293605 -0.00002492 -0.05283621
v -0.04327157 0.00248616 -0.05186912
v -0.04233385 0.01100140 -0.04959914
v -0.04320274 0.00679331 -0.04959914
v -0.04256613 0.01106601 -0.04639659
v -0.04138754 0.01394319 -0.03679664
v -0.04325436 0.00789164 -0.04610109
v -0.04370171 0.00485940 -0.04631792
v -0.04397700 0.00021198 -0.04666907
v -0.04395119 -0.00002492 -0.04649637
v -0.04326296 -0.00002492 -0.05196506
v -0.04362428 -0.00002492 -0.05007884
v -0.04377053 0.00252492 -0.04869536
v -0.04395979 -0.00002492 -0.04664796
v -0.04372752 -0.00002492 -0.04940725
v -0.04389958 -0.00002492 -0.04742317
f 1 2 3
f 1 3 4
f 1 4 5
f 1 5 6
f 1 6 7
f 1 7 8
f 1 8 9
f 1 9 2
f 2 10 11
f 2 11 12
f 2 12 3
f 2 9 13
f 2 13 10
f 3 12 14
f 3 14 15
f 3 15 4
f 4 16 5
f 4 15 17
f 4 17 16
f 5 16 6
f 6 18 19
f 6 19 20
f 6 20 7
f 6 16 18
f 7 20 21
f 7 21 8
f 8 21 36
f 8 36 53
f 8 53 75
f 8 75 74
f 8 74 96
f 8 96 120
f 8 120 140
f 8 140 164
f 8 164 192
f 8 192 191
f 8 191 190
f 8 190 219
f 8 219 253
f 8 253 284
f 8 284 303
f 8 303 302
f 8 302 317
f 8 317 308
f 8 308 291
f 8 291 264
f 8 264 263
f 8 263 272
f 8 272 271
f 8 271 270
f 8 270 269
f 8 269 293
f 8 293 306
f 8 306 305
f 8 305 304
f 8 304 288
f 8 288 285
f 8 285 254
f 8 254 220
f 8 220 197
f 8 197 193
f 8 193 165
f 8 165 141
f 8 141 121
f 8 121 97
f 8 97 77
f 8 77 76
f 8 76 54
f 8 54 37
f 8 37 22
f 8 22 10
f 8 10 13
f 8 13 9
f 10 22 11
f 11 23 12
f 11 22 23
f 12 23 24
f 12 24 14
f 14 24 25
f 14 25 26
f 14 26 27
f 14 27 15
f 15 28 17
f 15 27 28
f 16 17 18
f 17 28 29
f 17 29 30
f 17 30 18
f 18 31 32
f 18 32 19
f 18 30 31
f 19 32 33
f 19 33 34
f 19 34 35
f 19 35 20
f 20 35 21
f 21 35 36
f 22 37 38
f 22 38 23
f 23 38 39
f 23 39 24
f 24 39 40
f 24 40 25
f 25 40 41
f 25 41 26
f 26 41 42
f 26 42 43
f 26 43 27
f 27 43 44
f 27 44 28
f 28 44 45
f 28 45 46
f 28 46 29
f 29 46 31
f 29 31 30
f 31 46 47
f 31 47 48
f 31 48 32
f 32 48 33
f 33 49 50
f 33 50 51
f 33 51 34
f 33 48 49
f 34 51 52
f 34 52 35
f 35 53 36
f 35 52 53
f 37 54 55
f 37 55 38
f 38 55 39
f 39 55 56
f 39 56 57
f 39 57 40
f 40 57 58
f 40 58 41
f 41 58 59
f 41 59 42
f 42 60 61
f 42 61 43
f 42 59 60
f 43 61 62
f 43 62 44
f 44 62 63
f 44 63 64
f 44 64 45
f 45 64 46
f 46 65 66
f 46 66 47
f 46 64 65
f 47 66 67
f 47 67 68
f 47 68 48
f 48 68 49
f 49 69 70
f 49 70 50
f 49 68 69
f 50 70 71
f 50 71 51
f 51 71 72
f 51 72 73
f 51 73 52
f 52 73 74
f 52 74 75
f 52 75 53
f 54 76 55
f 55 76 77
f 55 77 78
f 55 78 79
f 55 79 56
f 56 79 80
f 56 80 57
f 57 80 81
f 57 81 58
f 58 81 82
f 58 82 59
f 59 82 83
f 59 83 60
f 60 84 61
f 60 83 85
f 60 85 84
f 61 84 62
f 62 84 86
f 62 86 63
f 63 86 65
f 63 65 64
f 65 86 87
f 65 87 66
f 66 87 88
f 66 88 67
f 67 88 89
f 67 89 68
f 68 89 69
f 69 89 90
f 69 90 91
f 69 91 70
f 70 91 92
f 70 92 71
f 71 92 93
f 71 93 72
f 72 93 94
f 72 94 95
f 72 95 73
f 73 95 96
f 73 96 74
f 77 97 78
f 78 98 99
f 78 99 79
f 78 97 98
f 79 99 80
f 80 99 100
f 80 100 101
f 80 101 81
f 81 101 102
f 81 102 82
f 82 103 83
f 82 102 103
f 83 103 85
f 84 104 105
f 84 105 106
f 84 106 86
f 84 85 104
f 85 103 107
f 85 107 108
f 85 108 109
f 85 109 104
f 86 106 87
f 87 106 105
f 87 105 110
f 87 110 88
f 88 111 89
f 88 110 112
f 88 112 111
f 89 111 90
f 90 111 113
f 90 113 91
f 91 113 114
f 91 114 115
f 91 115 92
f 92 115 93
f 93 115 116
f 93 116 117
f 93 117 118
f 93 118 94
f 94 118 119
f 94 119 95
f 95 119 96
f 96 119 120
f 97 121 98
f 98 121 122
f 98 122 123
f 98 123 99
f 99 123 100
f 100 123 124
f 100 124 125
f 100 125 101
f 101 125 126
f 101 126 102
f 102 126 127
f 102 127 103
f 103 127 107
f 104 109 110
f 104 110 105
f 107 127 128
f 107 128 129
f 107 129 108
f 108 129 130
f 108 130 109
f 109 130 152
f 109 152 153
f 109 153 131
f 109 131 112
f 109 112 110
f 111 112 132
f 111 132 133
f 111 133 113
f 112 131 132
f 113 133 134
f 113 134 114
f 114 134 135
f 114 135 116
f 114 116 115
f 116 135 136
f 116 136 137
f 116 137 117
f 117 137 138
f 117 138 118
f 118 139 119
f 118 138 139
f 119 139 120
f 120 139 140
f 121 141 122
f 122 141 142
f 122 142 143
f 122 143 123
f 123 143 124
f 124 144 125
f 124 143 145
f 124 145 144
f 125 144 146
f 125 146 126
f 126 146 128
f 126 128 127
f 128 146 147
f 128 147 129
f 129 147 148
f 129 148 149
f 129 149 150
f 129 150 130
f 130 150 151
f 130 151 152
f 131 153 154
f 131 154 155
f 131 155 156
f 131 156 132
f 132 156 133
f 133 156 155
f 133 155 157
f 133 157 134
f 134 157 135
f 135 157 158
f 135 158 136
f 136 158 159
f 136 159 160
f 136 160 137
f 137 160 161
f 137 161 138
f 138 161 162
f 138 162 163
f 138 163 139
f 139 164 140
f 139 163 164
f 141 165 142
f 142 166 167
f 142 167 143
f 142 165 166
f 143 167 145
f 144 145 168
f 144 168 146
f 145 167 169
f 145 169 168
f 146 168 170
f 146 170 147
f 147 170 148
f 148 170 171
f 148 171 172
f 148 172 149
f 149 172 173
f 149 173 174
f 149 174 150
f 150 174 151
f 151 174 175
f 151 175 152
f 152 175 176
f 152 176 177
f 152 177 178
f 152 178 179
f 152 179 153
f 153 179 180
f 153 180 181
f 153 181 154
f 154 181 182
f 154 182 155
f 155 182 183
f 155 183 184
f 155 184 157
f 157 184 158
f 158 184 185
f 158 185 159
f 159 185 186
f 159 186 160
f 160 186 187
f 160 187 161
f 161 187 188
f 161 188 162
f 162 188 189
f 162 189 190
f 162 190 191
f 162 191 163
f 163 191 192
f 163 192 164
f 165 193 166
f 166 194 195
f 166 195 196
f 166 196 167
f 166 193 197
f 166 197 194
f 167 196 169
f 168 169 198
f 168 198 170
f 169 196 199
f 169 199 198
f 170 198 171
f 171 198 200
f 171 200 201
f 171 201 172
f 172 201 173
f 173 201 202
f 173 202 203
f 173 203 174
f 174 203 204
f 174 204 205
f 174 205 175
f 175 205 176
f 176 206 207
f 176 207 177
f 176 205 206
f 177 207 178
f 178 207 179
f 179 207 233
f 179 233 264
f 179 264 291
f 179 291 310
f 179 310 321
f 179 321 325
f 179 325 327
f 179 327 326
f 179 326 323
f 179 323 322
f 179 322 312
f 179 312 311
f 179 311 294
f 179 294 274
f 179 274 273
f 179 273 242
f 179 242 208
f 179 208 180
f 180 208 209
f 180 209 181
f 181 209 210
f 181 210 211
f 181 211 212
f 181 212 182
f 182 212 213
f 182 213 183
f 183 214 185
f 183 185 184
f 183 213 214
f 185 214 186
f 186 214 215
f 186 215 187
f 187 215 216
f 187 216 188
f 188 216 217
f 188 217 218
f 188 218 189
f 189 218 190
f 190 218 219
f 194 197 220
f 194 220 195
f 195 220 221
f 195 221 222
f 195 222 196
f 196 222 199
f 198 199 200
f 199 222 223
f 199 223 224
f 199 224 200
f 200 224 225
f 200 225 201
f 201 225 202
f 202 225 226
f 202 226 227
f 202 227 203
f 203 227 204
f 204 227 228
f 204 228 229
f 204 229 205
f 205 229 230
f 205 230 231
f 205 231 206
f 206 231 232
f 206 232 207
f 207 232 234
f 207 234 235
f 207 235 236
f 207 236 237
f 207 237 238
f 207 238 239
f 207 239 240
f 207 240 241
f 207 241 233
f 208 242 209
f 209 242 243
f 209 243 244
f 209 244 210
f 210 245 211
f 210 244 246
f 210 246 245
f 211 247 212
f 211 245 247
f 212 248 213
f 212 247 248
f 213 248 214
f 214 248 249
f 214 249 215
f 215 249 216
f 216 249 250
f 216 250 251
f 216 251 217
f 217 251 252
f 217 252 218
f 218 252 219
f 219 252 253
f 220 254 221
f 221 223 222
f 221 254 255
f 221 255 223
f 223 255 256
f 223 256 257
f 223 257 224
f 224 257 226
f 224 226 225
f 226 257 258
f 226 258 259
f 226 259 227
f 227 259 228
f 228 259 260
f 228 260 261
f 228 261 229
f 229 261 230
f 230 261 262
f 230 262 231
f 231 262 235
f 231 235 234
f 231 234 232
f 233 241 263
f 233 263 264
f 235 262 236
f 236 262 237
f 237 265 266
f 237 266 238
f 237 262 265
f 238 266 239
f 239 266 267
f 239 267 240
f 240 267 241
f 241 268 269
f 241 269 270
f 241 270 271
f 241 271 272
f 241 272 263
f 241 267 268
f 242 273 243
f 243 273 274
f 243 274 275
f 243 275 276
f 243 276 244
f 244 276 246
f 245 246 277
f 245 277 278
f 245 278 247
f 246 276 279
f 246 279 277
f 247 278 280
f 247 280 248
f 248 280 249
f 249 280 250
f 250 280 281
f 250 281 282
f 250 282 251
f 251 282 283
f 251 283 252
f 252 283 284
f 252 284 253
f 254 285 255
f 255 286 287
f 255 287 256
f 255 285 288
f 255 288 286
f 256 287 258
f 256 258 257
f 258 287 289
f 258 289 290
f 258 290 260
f 258 260 259
f 260 290 265
f 260 265 261
f 261 265 262
f 265 290 266
f 266 290 289
f 266 289 267
f 267 292 268
f 267 289 292
f 268 292 269
f 269 292 293
f 274 294 275
f 275 294 295
f 275 295 296
f 275 296 276
f 276 296 279
f 277 297 278
f 277 279 298
f 277 298 297
f 278 297 281
f 278 281 280
f 279 296 299
f 279 299 298
f 281 297 300
f 281 300 282
f 282 300 283
f 283 300 301
f 283 301 302
f 283 302 303
f 283 303 284
f 286 288 304
f 286 304 305
f 286 305 306
f 286 306 307
f 286 307 289
f 286 289 287
f 289 307 292
f 291 308 309
f 291 309 310
f 292 307 293
f 293 307 306
f 294 311 295
f 295 311 312
f 295 312 313
f 295 313 296
f 296 313 299
f 297 298 314
f 297 314 300
f 298 299 314
f 299 315 314
f 299 313 315
f 300 314 316
f 300 316 301
f 301 317 302
f 301 316 317
f 308 317 318
f 308 318 319
f 308 319 309
f 309 319 320
f 309 320 310
f 310 320 321
f 312 322 313
f 313 322 323
f 313 323 324
f 313 324 315
f 314 315 318
f 314 318 316
f 315 324 319
f 315 319 318
f 316 318 317
f 319 324 320
f 320 325 321
f 320 324 326
f 320 326 327
f 320 327 325
f 323 326 324

