# https://github.com/mikedh/trimesh
v 0.03887894 0.03096834 0.03511495
v 0.03337820 0.03096834 0.03511495
v 0.02893193 0.02742292 -0.00358212
v 0.03295946 0.02557126 -0.02733675
v 0.03884087 0.03096834 0.03428481
v 0.03864673 0.03124346 0.03443989
v 0.03866576 0.03125063 0.03511495
v 0.03260163 0.03788454 0.05339616
v 0.03260163 0.03771708 0.05535748
v 0.03260163 0.03745392 0.05576798
v 0.03260163 0.03729603 0.05597779
v 0.03260163 0.03700177 0.05613287
v 0.03260163 0.03600178 0.05637918
v 0.03260163 0.03590370 0.05638830
v 0.03260163 0.03586542 0.05638830
v 0.03260163 0.03455443 0.05637918
v 0.03260163 0.03405204 0.05614200
v 0.03260163 0.03397788 0.05606901
v 0.03260163 0.03352094 0.05524801
v 0.03260163 0.03343961 0.05506555
v 0.03260163 0.03287023 0.05210079
v 0.02250234 0.02557126 -0.03678752
v 0.02713134 0.02557126 -0.02733675
v 0.03230090 0.02557126 -0.03678752
v 0.03845259 0.03096834 0.02954118
v 0.03529299 0.03493241 0.03159371
v 0.03648070 0.03373625 0.03511495
v 0.03539958 0.03495394 0.03511495
v 0.03260163 0.03777928 0.04318824
v 0.03201919 0.03841803 0.05339616
v 0.03199255 0.03826731 0.05535748
v 0.03184409 0.03804483 0.05591393
v 0.02975799 0.03925295 0.05619673
v 0.02761099 0.04026251 0.05635181
v 0.02153924 0.04359262 0.05637918
v 0.02517087 0.04054959 0.05638830
v -0.00001072 0.04759737 0.05638830
v -0.00001072 0.04726005 0.05628795
v -0.00001072 0.04694905 0.05585921
v -0.00001072 0.04671938 0.05506555
v 0.00001593 0.03406400 -0.03678752
v 0.02949152 0.03186546 -0.03678752
v 0.03838788 0.03096834 0.02888437
v 0.03504175 0.03447309 0.02563681
v 0.03247981 0.03719555 0.02491615
v 0.03275770 0.03732234 0.03072709
v 0.03388069 0.03640609 0.03511495
v 0.03260163 0.03775775 0.04127254
v 0.03200016 0.03830559 0.04116308
v 0.02808683 0.04126011 0.04171042
v 0.02809445 0.04137255 0.05339616
v 0.02808303 0.04121465 0.05535748
v 0.02796121 0.04098021 0.05591393
v 0.02576472 0.04198259 0.05619673
v 0.01676178 0.04468830 0.05638830
v 0.02152020 0.04430792 0.05619673
v 0.01476324 0.04641795 0.05637005
v -0.00001072 0.04832224 0.05638830
v -0.00001072 0.04636293 0.05237446
v -0.00000691 0.03985581 -0.00358212
v -0.00000691 0.03910223 -0.01134525
v -0.00000691 0.03889171 -0.01355286
v 0.00000070 0.03728646 -0.02733675
v 0.00001593 0.04264048 -0.03678752
v -0.00001072 0.04633183 0.05210079
v 0.02926311 0.03231043 -0.03678752
v 0.02892812 0.03270516 -0.03678752
v 0.02885960 0.03277693 -0.03678752
v 0.02877585 0.03285827 -0.03678752
v 0.02871495 0.03291330 -0.03678752
v 0.02893573 0.03381520 -0.02733675
v 0.02812871 0.04029361 0.02643958
v 0.02812871 0.04087494 0.03198597
v 0.03093047 0.03881754 0.03089129
v 0.03137205 0.03860702 0.03511495
v 0.03244174 0.03773382 0.03511495
v 0.03260163 0.03758789 0.03511495
v 0.02812109 0.04099934 0.03511495
v 0.02414686 0.04343473 0.03511495
v 0.02376999 0.04366439 0.03511495
v 0.02391084 0.04381511 0.04215741
v 0.02389942 0.04392754 0.05339616
v 0.02390322 0.04377204 0.05535748
v 0.02380425 0.04352563 0.05591393
v 0.00773980 0.04709498 0.05638830
v 0.01942269 0.04565480 0.05591393
v 0.01652576 0.04660695 0.05610551
v 0.01247920 0.04765478 0.05619673
v 0.00545576 0.04851363 0.05635181
v -0.00001072 0.04855908 0.05637918
v -0.00001072 0.04554475 0.03511495
v -0.00000691 0.04450170 -0.01355286
v 0.00000070 0.04334860 -0.02733675
v 0.01340804 0.04148738 -0.03678752
v 0.00000070 0.04335578 -0.02727290
v 0.00000451 0.04912606 0.02515333
v 0.00042325 0.04914998 0.02563681
v 0.02826956 0.03319798 -0.03678752
v 0.02825052 0.03320994 -0.03678752
v 0.02366340 0.04327683 0.02891174
v 0.02375476 0.04364764 0.03444901
v 0.01926281 0.04577202 0.03159371
v 0.01940746 0.04600169 0.04219390
v 0.01958638 0.04601126 0.05349651
v 0.01949502 0.04590839 0.05535748
v 0.01608037 0.04720024 0.05535748
v 0.01252488 0.04800645 0.05591393
v 0.00781213 0.04886291 0.05607814
v 0.00293189 0.04917151 0.05619673
v -0.00001072 0.04878157 0.05631532
v -0.00001072 0.04973849 0.03511495
v 0.01394860 0.04138690 -0.03678752
v 0.00531491 0.04903994 0.02891174
v 0.01058344 0.04799210 0.02643958
v 0.00000451 0.04916434 0.02555471
v 0.00027859 0.04965716 0.03159371
v 0.01465665 0.04105676 -0.03678752
v 0.01422649 0.04128164 -0.03678752
v 0.01920190 0.04525289 0.02563681
v 0.01579106 0.04678637 0.02491615
v 0.01599662 0.04700886 0.03072709
v 0.01730614 0.04662608 0.03511495
v 0.01491551 0.04763564 0.04116308
v 0.01488506 0.04774808 0.05339616
v 0.01256294 0.04826961 0.05535748
v 0.00777026 0.04926721 0.05535748
v 0.00291286 0.04952558 0.05591393
v -0.00001072 0.04945859 0.05605077
v -0.00001072 0.04935572 0.05613287
v -0.00001072 0.04987246 0.04046977
v 0.00043086 0.04991792 0.04181989
v 0.00000451 0.04966194 0.03206808
v 0.00000451 0.04964519 0.03152074
v 0.00000451 0.04962606 0.03108286
v 0.01402473 0.04136298 -0.03678752
v 0.01389150 0.04229120 -0.02733675
v 0.00525781 0.04941793 0.03443989
v 0.01036265 0.04853037 0.03198597
v 0.00194975 0.04964998 0.03511495
v 0.00533014 0.04963323 0.04215741
v 0.00525781 0.04943945 0.03511495
v 0.01407422 0.04134623 -0.03678752
v 0.01374684 0.04769785 0.03089129
v 0.01553982 0.04727440 0.03511495
v 0.01554743 0.04727201 0.03511495
v 0.01016850 0.04887008 0.04171042
v 0.01012663 0.04897295 0.05339616
v 0.00527684 0.04973132 0.05339616
v 0.00289763 0.04979112 0.05535748
v -0.00001072 0.04981983 0.05535748
v -0.00001072 0.04990357 0.04180164
v -0.00001072 0.04998969 0.05216465
v 0.00036615 0.05001122 0.05339616
v -0.00001072 0.04998251 0.05370632
v -0.00001072 0.04999687 0.05339616
f 1 2 3
f 1 3 4
f 1 4 5
f 1 5 6
f 1 6 7
f 1 7 8
f 1 8 9
f 1 9 10
f 1 10 11
f 1 11 12
f 1 12 13
f 1 13 14
f 1 14 15
f 1 15 16
f 1 16 17
f 1 17 18
f 1 18 19
f 1 19 20
f 1 20 21
f 1 21 2
f 2 21 3
f 3 22 23
f 3 23 4
f 3 21 22
f 4 23 22
f 4 22 24
f 4 24 5
f 5 24 25
f 5 25 6
f 6 25 26
f 6 26 27
f 6 27 7
f 7 27 8
f 8 27 28
f 8 28 29
f 8 29 30
f 8 30 9
f 9 31 32
f 9 32 10
f 9 30 31
f 10 32 11
f 11 32 33
f 11 33 12
f 12 33 13
f 13 33 34
f 13 34 14
f 14 34 35
f 14 35 36
f 14 36 55
f 14 55 85
f 14 85 58
f 14 58 37
f 14 37 15
f 15 37 16
f 16 37 38
f 16 38 17
f 17 38 18
f 18 38 39
f 18 39 19
f 19 39 20
f 20 39 40
f 20 40 21
f 21 40 41
f 21 41 22
f 22 41 64
f 22 64 94
f 22 94 112
f 22 112 135
f 22 135 142
f 22 142 118
f 22 118 117
f 22 117 99
f 22 99 98
f 22 98 70
f 22 70 69
f 22 69 68
f 22 68 67
f 22 67 66
f 22 66 42
f 22 42 24
f 24 42 43
f 24 43 25
f 25 43 26
f 26 43 44
f 26 44 45
f 26 45 46
f 26 46 47
f 26 47 28
f 26 28 27
f 28 47 48
f 28 48 29
f 29 48 49
f 29 49 30
f 30 49 50
f 30 50 51
f 30 51 52
f 30 52 31
f 31 52 53
f 31 53 32
f 32 53 33
f 33 54 34
f 33 53 54
f 34 54 35
f 35 55 36
f 35 54 56
f 35 56 57
f 35 57 55
f 37 58 90
f 37 90 110
f 37 110 129
f 37 129 128
f 37 128 150
f 37 150 154
f 37 154 155
f 37 155 152
f 37 152 151
f 37 151 130
f 37 130 111
f 37 111 91
f 37 91 65
f 37 65 59
f 37 59 40
f 37 40 39
f 37 39 38
f 40 59 41
f 41 60 61
f 41 61 62
f 41 62 63
f 41 63 93
f 41 93 64
f 41 59 65
f 41 65 60
f 42 66 43
f 43 66 44
f 44 66 67
f 44 67 45
f 45 67 68
f 45 68 69
f 45 69 70
f 45 70 71
f 45 71 72
f 45 72 73
f 45 73 74
f 45 74 46
f 46 74 75
f 46 75 76
f 46 76 77
f 46 77 47
f 47 77 48
f 48 77 49
f 49 77 76
f 49 76 75
f 49 75 50
f 50 75 74
f 50 74 78
f 50 78 79
f 50 79 80
f 50 80 81
f 50 81 51
f 51 81 82
f 51 82 83
f 51 83 52
f 52 83 84
f 52 84 53
f 53 84 54
f 54 84 56
f 55 57 85
f 56 84 86
f 56 86 87
f 56 87 57
f 57 87 88
f 57 88 89
f 57 89 85
f 58 85 89
f 58 89 90
f 60 65 61
f 61 65 62
f 62 65 91
f 62 91 111
f 62 111 92
f 62 92 93
f 62 93 63
f 64 93 95
f 64 95 96
f 64 96 97
f 64 97 94
f 70 98 72
f 70 72 71
f 72 98 99
f 72 99 100
f 72 100 73
f 73 100 101
f 73 101 79
f 73 79 78
f 73 78 74
f 79 101 80
f 80 101 102
f 80 102 81
f 81 103 82
f 81 102 103
f 82 103 104
f 82 104 83
f 83 104 105
f 83 105 86
f 83 86 84
f 86 105 106
f 86 106 87
f 87 106 107
f 87 107 88
f 88 107 108
f 88 108 89
f 89 108 109
f 89 109 90
f 90 109 110
f 92 111 95
f 92 95 93
f 94 97 113
f 94 113 114
f 94 114 112
f 95 111 96
f 96 115 97
f 96 111 115
f 97 115 116
f 97 116 113
f 99 117 100
f 100 102 101
f 100 117 118
f 100 118 119
f 100 119 102
f 102 119 120
f 102 120 121
f 102 121 122
f 102 122 103
f 103 123 124
f 103 124 104
f 103 122 123
f 104 124 106
f 104 106 105
f 106 125 107
f 106 124 125
f 107 125 126
f 107 126 108
f 108 127 109
f 108 126 127
f 109 127 128
f 109 128 129
f 109 129 110
f 111 130 131
f 111 131 116
f 111 116 132
f 111 132 133
f 111 133 134
f 111 134 115
f 112 114 136
f 112 136 120
f 112 120 135
f 113 116 137
f 113 137 138
f 113 138 114
f 114 138 120
f 114 120 136
f 115 134 116
f 116 139 140
f 116 140 141
f 116 141 137
f 116 134 133
f 116 133 132
f 116 131 139
f 118 142 120
f 118 120 119
f 120 142 135
f 120 138 143
f 120 143 121
f 121 143 144
f 121 144 145
f 121 145 122
f 122 145 123
f 123 146 124
f 123 145 144
f 123 144 143
f 123 143 146
f 124 146 147
f 124 147 125
f 125 147 126
f 126 147 148
f 126 148 149
f 126 149 127
f 127 149 150
f 127 150 128
f 130 151 131
f 131 151 152
f 131 152 153
f 131 153 148
f 131 148 140
f 131 140 139
f 137 141 138
f 138 141 146
f 138 146 143
f 140 148 147
f 140 147 146
f 140 146 141
f 148 153 149
f 149 153 150
f 150 153 154
f 152 155 153
f 153 155 154

