# https://github.com/mikedh/trimesh
v 0.04533612 0.00000247 -0.00358738
v 0.04479467 0.00162889 -0.02030579
v 0.03984304 0.00000247 -0.00358738
v 0.04428815 -0.01450808 -0.00358738
v 0.04432309 0.00195211 -0.02734683
v 0.03819032 0.00162889 -0.02030579
v 0.03398973 0.00195211 -0.03679664
v 0.02770851 -0.02865759 -0.00358738
v 0.04427724 -0.01457341 -0.00358738
v 0.04401743 -0.01441524 -0.00685760
v 0.04407638 0.00195211 -0.03018470
v 0.03723405 0.00195211 -0.02734683
v 0.04347380 0.00195211 -0.03679664
v 0.02303415 -0.02505058 -0.03679664
v 0.02724566 -0.02865759 -0.00685760
v 0.02831109 -0.03317580 -0.00685760
v 0.03580402 -0.02865759 -0.00358738
v 0.04422484 -0.01481411 -0.00358738
v 0.04396067 -0.01468344 -0.00685760
v 0.04260268 -0.01396135 -0.02378405
v 0.04345852 -0.01422956 -0.01355731
v 0.04260705 -0.01393385 -0.02378405
v 0.04245422 -0.01387539 -0.02558169
v 0.04230576 -0.01379974 -0.02734683
v 0.04148922 -0.01340088 -0.03679664
v 0.03400939 -0.02505058 -0.03679664
v 0.02716051 -0.03193794 -0.02734683
v 0.02716051 -0.03205141 -0.02613106
v 0.02716051 -0.03226115 -0.02378405
v 0.02783077 -0.03281820 -0.01355731
v 0.03321249 -0.03150468 -0.00685760
v 0.04383186 -0.01567030 -0.00358738
v 0.03328891 -0.03147717 -0.00685760
v 0.03428884 -0.03105423 -0.00685760
v 0.03458576 -0.03082042 -0.00685760
v 0.03467091 -0.03074133 -0.00685760
v 0.03484120 -0.03057284 -0.00685760
v 0.03489360 -0.03051439 -0.00685760
v 0.03500713 -0.03037341 -0.00685760
v 0.03515559 -0.03016022 -0.00685760
v 0.04419864 -0.01490007 -0.00358738
v 0.04391045 -0.01484849 -0.00685760
v 0.04134949 -0.01406451 -0.03679664
v 0.04138879 -0.01393729 -0.03679664
v 0.04229266 -0.01388227 -0.02734683
v 0.04220096 -0.01417798 -0.02734683
v 0.04104384 -0.01467313 -0.03679664
v 0.03381289 -0.02893611 -0.02734683
v 0.03376268 -0.02900832 -0.02734683
v 0.03346357 -0.02936592 -0.02734683
v 0.03304220 -0.02977855 -0.02734683
v 0.03294832 -0.02984731 -0.02734683
v 0.03284571 -0.02990577 -0.02734683
v 0.03203354 -0.03023930 -0.02734683
v 0.03176281 -0.03034590 -0.02734683
v 0.03211650 -0.03059347 -0.02287060
v 0.03229335 -0.03074133 -0.02030579
v 0.04385369 -0.01563247 -0.00358738
v 0.03314481 -0.03003299 -0.02448945
v 0.03404213 -0.03052126 -0.01355731
v 0.03393734 -0.02978542 -0.02030579
v 0.03392424 -0.02906333 -0.02558169
v 0.04217476 -0.01508575 -0.02378405
v 0.04358296 -0.01554651 -0.00685760
v 0.04416153 -0.01501354 -0.00358738
v 0.04331660 -0.01473502 -0.01355731
v 0.04214856 -0.01434303 -0.02734683
v 0.04205468 -0.01456310 -0.02734683
v 0.04191932 -0.01487256 -0.02734683
v 0.04128181 -0.01421581 -0.03679664
v 0.04186037 -0.01498603 -0.02734683
v 0.03361858 -0.02966163 -0.02378405
v 0.03269725 -0.03027713 -0.02378405
v 0.04363973 -0.01544679 -0.00685760
v 0.04374671 -0.01525424 -0.00685760
v 0.04399778 -0.01537115 -0.00358738
v 0.04411568 -0.01512357 -0.00358738
v 0.04404800 -0.01527831 -0.00358738
f 1 2 6
f 1 6 3
f 1 3 8
f 1 8 17
f 1 17 32
f 1 32 58
f 1 58 76
f 1 76 78
f 1 78 77
f 1 77 65
f 1 65 41
f 1 41 18
f 1 18 9
f 1 9 4
f 1 4 2
f 2 5 12
f 2 12 6
f 2 4 5
f 3 6 7
f 3 7 8
f 4 9 10
f 4 10 5
f 5 11 13
f 5 13 7
f 5 7 12
f 5 10 11
f 6 12 7
f 7 13 25
f 7 25 44
f 7 44 43
f 7 43 70
f 7 70 47
f 7 47 26
f 7 26 14
f 7 14 8
f 8 14 15
f 8 15 16
f 8 16 17
f 9 18 19
f 9 19 20
f 9 20 10
f 10 21 22
f 10 22 11
f 10 20 21
f 11 22 23
f 11 23 24
f 11 24 13
f 13 24 25
f 14 26 27
f 14 27 28
f 14 28 29
f 14 29 30
f 14 30 16
f 14 16 15
f 16 30 29
f 16 29 31
f 16 31 17
f 17 31 33
f 17 33 34
f 17 34 35
f 17 35 36
f 17 36 37
f 17 37 38
f 17 38 39
f 17 39 40
f 17 40 32
f 18 41 42
f 18 42 19
f 19 42 20
f 20 43 44
f 20 44 45
f 20 45 23
f 20 23 22
f 20 22 21
f 20 42 46
f 20 46 43
f 23 45 24
f 24 45 25
f 25 45 44
f 26 47 48
f 26 48 49
f 26 49 50
f 26 50 51
f 26 51 52
f 26 52 53
f 26 53 54
f 26 54 55
f 26 55 27
f 27 55 28
f 28 55 29
f 29 55 56
f 29 56 57
f 29 57 31
f 31 57 33
f 32 40 58
f 33 57 59
f 33 59 34
f 34 59 60
f 34 60 35
f 35 60 36
f 36 60 61
f 36 61 37
f 37 61 38
f 38 61 62
f 38 62 39
f 39 62 40
f 40 62 63
f 40 63 64
f 40 64 58
f 41 65 42
f 42 66 67
f 42 67 46
f 42 65 66
f 43 46 67
f 43 67 68
f 43 68 63
f 43 63 69
f 43 69 70
f 47 70 71
f 47 71 48
f 48 62 49
f 48 71 62
f 49 62 50
f 50 62 61
f 50 61 72
f 50 72 51
f 51 72 61
f 51 61 60
f 51 60 59
f 51 59 52
f 52 59 53
f 53 59 54
f 54 59 73
f 54 73 56
f 54 56 55
f 56 73 57
f 57 73 59
f 58 64 74
f 58 74 75
f 58 75 76
f 62 71 63
f 63 71 69
f 63 68 75
f 63 75 74
f 63 74 64
f 65 77 75
f 65 75 66
f 66 75 67
f 67 75 68
f 69 71 70
f 75 78 76
f 75 77 78

