# https://github.com/mikedh/trimesh
v -0.04394893 -0.00002988 -0.02030399
v -0.03825341 -0.00002988 -0.02030399
v -0.04451334 -0.00002988 -0.01353940
v -0.04916644 -0.00000973 0.02555584
v -0.04912863 -0.00000973 0.02515461
v -0.04265805 -0.00002316 -0.03679664
v -0.03890425 -0.00002988 -0.01353940
v -0.03397840 -0.00002316 -0.03679664
v -0.04973896 -0.00000973 0.03511496
v -0.04964984 -0.00000973 0.03153205
v -0.04962554 -0.00000973 0.03108154
v -0.04915293 0.00042003 0.02564031
v -0.04965794 0.00027230 0.03160244
v -0.04149140 0.01340031 -0.03679664
v -0.04554226 -0.00000973 0.03511496
v -0.02215798 0.02585681 -0.03679664
v -0.04157512 -0.00000973 0.01213929
v -0.04245551 -0.00000973 0.01735527
v -0.04974706 0.00032602 0.03511496
v -0.04904221 0.00530862 0.02891350
v -0.04964984 0.00195779 0.03511496
v -0.04942029 0.00524819 0.03445328
v -0.04229077 0.01388715 -0.02734311
v -0.04138878 0.01393752 -0.03679664
v -0.04799169 0.01057661 0.02644277
v -0.03358141 0.03074204 0.03511496
v -0.02796421 0.03074204 0.01200554
v -0.02799122 0.03074204 0.01215337
v -0.02936852 0.03074204 0.01786913
v -0.03384067 0.02585681 -0.03679664
v -0.02719995 0.03191383 -0.02734311
v -0.02719995 0.03223615 -0.02378132
v -0.02786430 0.03280022 -0.01353940
v -0.02967638 0.03427082 0.01200554
v -0.04853180 0.01035501 0.03198959
v -0.04943650 0.00525490 0.03511496
v -0.04936898 0.00569138 0.03511496
v -0.04863712 0.01029458 0.03511496
v -0.04678453 0.01578753 0.02492232
v -0.04134827 0.01406510 -0.03679664
v -0.03906358 0.03074204 0.03511496
v -0.04104311 0.01467618 -0.03679664
v -0.03381366 0.02892561 -0.02734311
v -0.03376505 0.02899947 -0.02734311
v -0.03346259 0.02936881 -0.02734311
v -0.03304400 0.02976835 -0.02734311
v -0.03294948 0.02985565 -0.02734311
v -0.03284956 0.02990937 -0.02734311
v -0.03203128 0.03023841 -0.02734311
v -0.03176393 0.03034249 -0.02734311
v -0.03204749 0.03054730 -0.02378132
v -0.03447260 0.03259876 0.01200554
v -0.04770002 0.01373271 0.03089853
v -0.04767302 0.01421955 0.03511496
v -0.04607158 0.01684515 0.02277539
v -0.04128346 0.01421619 -0.03679664
v -0.04132126 0.01412890 -0.03679664
v -0.04701408 0.01598898 0.03072959
v -0.04577451 0.01924244 0.03160244
v -0.04525330 0.01918536 0.02564031
v -0.03559064 0.03215557 0.01200554
v -0.03895556 0.03074204 0.03096892
v -0.04099720 0.02811308 0.03511496
v -0.04105931 0.01464932 -0.03679664
v -0.03392439 0.02905655 -0.02558333
v -0.04327918 0.02366433 0.02892054
v -0.04029234 0.02812987 0.02644277
v -0.03402971 0.02918750 -0.02378132
v -0.03613616 0.03168551 0.01200554
v -0.03314392 0.03003024 -0.02448523
v -0.04727333 0.01554243 0.03511496
v -0.04662790 0.01729171 0.03511496
v -0.04584743 0.01929616 0.03511496
v -0.04512368 0.02079699 0.03511496
v -0.04366536 0.02376842 0.03511496
v -0.04364916 0.02375498 0.03445328
v -0.03602543 0.03178624 0.01200554
v -0.04087567 0.02812987 0.03198959
v -0.03843435 0.03074204 0.02552768
v -0.04343582 0.02414446 0.03511496
f 1 2 7
f 1 7 3
f 1 3 4
f 1 4 5
f 1 5 6
f 1 6 8
f 1 8 2
f 2 8 7
f 3 7 15
f 3 15 9
f 3 9 10
f 3 10 11
f 3 11 4
f 4 12 5
f 4 11 13
f 4 13 12
f 5 12 6
f 6 14 24
f 6 24 40
f 6 40 57
f 6 57 56
f 6 56 64
f 6 64 42
f 6 42 30
f 6 30 16
f 6 16 8
f 6 12 14
f 7 8 15
f 8 16 17
f 8 17 18
f 8 18 15
f 9 15 26
f 9 26 41
f 9 41 63
f 9 63 80
f 9 80 75
f 9 75 74
f 9 74 73
f 9 73 72
f 9 72 71
f 9 71 54
f 9 54 38
f 9 38 37
f 9 37 36
f 9 36 21
f 9 21 19
f 9 19 10
f 10 13 11
f 10 19 13
f 12 13 20
f 12 20 14
f 13 19 21
f 13 21 22
f 13 22 20
f 14 23 24
f 14 20 25
f 14 25 23
f 15 18 27
f 15 27 28
f 15 28 29
f 15 29 26
f 16 30 31
f 16 31 32
f 16 32 33
f 16 33 34
f 16 34 27
f 16 27 17
f 17 27 18
f 20 22 35
f 20 35 25
f 21 36 22
f 22 36 37
f 22 37 38
f 22 38 35
f 23 25 39
f 23 39 24
f 24 39 40
f 25 35 39
f 26 29 34
f 26 34 41
f 27 34 28
f 28 34 29
f 30 42 43
f 30 43 44
f 30 44 45
f 30 45 46
f 30 46 47
f 30 47 48
f 30 48 49
f 30 49 50
f 30 50 31
f 31 50 32
f 32 50 51
f 32 51 34
f 32 34 33
f 34 51 52
f 34 52 41
f 35 38 53
f 35 53 39
f 38 54 53
f 39 55 56
f 39 56 57
f 39 57 40
f 39 53 58
f 39 58 59
f 39 59 60
f 39 60 55
f 41 52 61
f 41 61 62
f 41 62 63
f 42 64 43
f 43 65 44
f 43 64 66
f 43 66 67
f 43 67 65
f 44 65 68
f 44 68 45
f 45 68 69
f 45 69 70
f 45 70 46
f 46 70 47
f 47 70 48
f 48 70 61
f 48 61 51
f 48 51 49
f 49 51 50
f 51 61 52
f 53 54 58
f 54 71 58
f 55 60 56
f 56 60 66
f 56 66 64
f 58 71 72
f 58 72 59
f 59 72 73
f 59 73 74
f 59 74 75
f 59 75 76
f 59 76 66
f 59 66 60
f 61 77 62
f 61 70 77
f 62 78 63
f 62 77 69
f 62 69 79
f 62 79 78
f 63 78 80
f 65 67 79
f 65 79 68
f 66 76 78
f 66 78 67
f 67 78 79
f 68 79 69
f 69 77 70
f 75 80 76
f 76 80 78

