# https://github.com/mikedh/trimesh
v -0.04442855 -0.00288785 -0.02734886
v -0.04442491 -0.00264871 -0.02734886
v -0.04358291 -0.00266555 -0.03679664
v -0.04358473 -0.00283059 -0.03679664
v -0.04358110 -0.00288111 -0.03679664
v -0.04438499 -0.00335939 -0.02734886
v -0.04441947 -0.00230516 -0.02734886
v -0.04353936 -0.00218054 -0.03679664
v -0.04357202 -0.00296532 -0.03679664
v -0.04436866 -0.00344359 -0.02734886
v -0.04440858 -0.00218390 -0.02734886
v -0.04353573 -0.00215022 -0.03679664
v -0.04345952 -0.00350085 -0.03679664
v -0.03940012 -0.01864408 -0.03679664
v -0.04019313 -0.01901120 -0.02734886
v -0.04437411 -0.00207275 -0.02734886
v -0.04338693 -0.00167531 -0.03679664
v -0.03939105 -0.01867439 -0.03679664
v -0.03924588 -0.01913919 -0.03679664
v -0.04015684 -0.01912572 -0.02734886
v -0.04403477 -0.00126103 -0.02734886
v -0.04299134 -0.00066823 -0.03679664
v -0.03918418 -0.01929413 -0.03679664
v -0.04002981 -0.01944570 -0.02734886
v -0.04391863 -0.00099495 -0.02734886
v -0.04265925 -0.00002829 -0.03679664
v -0.03916240 -0.01933791 -0.03679664
v -0.03994089 -0.01966799 -0.02734886
v -0.04336334 -0.00002829 -0.02734886
v -0.03397974 -0.00002829 -0.03679664
v -0.03912248 -0.01941201 -0.03679664
v -0.03972313 -0.02008564 -0.02734886
v -0.03986105 -0.01982293 -0.02734886
v -0.03728242 -0.00002829 -0.02734886
v -0.02588999 -0.02215032 -0.03679664
v -0.02588999 -0.02682869 -0.02734886
v -0.03882488 -0.01984651 -0.03679664
v -0.03967414 -0.02015638 -0.02734886
v -0.02588999 -0.03383109 -0.03679664
v -0.02588999 -0.03443398 -0.02734886
v -0.03881218 -0.01986335 -0.03679664
v -0.02986046 -0.03294526 -0.02734886
v -0.02754858 -0.03420495 -0.02734886
v -0.02670840 -0.03367615 -0.03679664
v -0.02926707 -0.03230194 -0.03679664
v -0.02893498 -0.03269939 -0.03679664
v -0.02978243 -0.03303620 -0.02734886
v -0.02765746 -0.03418137 -0.02734886
v -0.02832707 -0.03402307 -0.02734886
v -0.02775183 -0.03340333 -0.03679664
v -0.02882066 -0.03282064 -0.03679664
v -0.02937595 -0.03345722 -0.02734886
v -0.02887873 -0.03383109 -0.02734886
v -0.02779356 -0.03338986 -0.03679664
v -0.02871723 -0.03290484 -0.03679664
v -0.02901301 -0.03375698 -0.02734886
v -0.02924166 -0.03356837 -0.02734886
v -0.02894043 -0.03380414 -0.02734886
v -0.02825812 -0.03320461 -0.03679664
v -0.02824178 -0.03321134 -0.03679664
v -0.02786796 -0.03336291 -0.03679664
f 1 2 3
f 1 3 4
f 1 4 5
f 1 5 6
f 1 6 10
f 1 10 15
f 1 15 20
f 1 20 24
f 1 24 28
f 1 28 33
f 1 33 32
f 1 32 38
f 1 38 42
f 1 42 47
f 1 47 52
f 1 52 57
f 1 57 56
f 1 56 58
f 1 58 53
f 1 53 49
f 1 49 48
f 1 48 43
f 1 43 40
f 1 40 36
f 1 36 34
f 1 34 29
f 1 29 25
f 1 25 21
f 1 21 16
f 1 16 11
f 1 11 7
f 1 7 2
f 2 7 3
f 3 7 11
f 3 11 8
f 3 8 12
f 3 12 17
f 3 17 22
f 3 22 26
f 3 26 30
f 3 30 35
f 3 35 39
f 3 39 44
f 3 44 50
f 3 50 54
f 3 54 61
f 3 61 60
f 3 60 59
f 3 59 55
f 3 55 51
f 3 51 46
f 3 46 45
f 3 45 41
f 3 41 37
f 3 37 31
f 3 31 27
f 3 27 23
f 3 23 19
f 3 19 18
f 3 18 14
f 3 14 13
f 3 13 9
f 3 9 5
f 3 5 4
f 5 9 6
f 6 9 10
f 8 11 12
f 9 13 10
f 10 13 14
f 10 14 15
f 11 16 12
f 12 16 17
f 14 18 15
f 15 18 19
f 15 19 20
f 16 21 22
f 16 22 17
f 19 23 24
f 19 24 20
f 21 25 22
f 22 25 26
f 23 27 28
f 23 28 24
f 25 29 26
f 26 29 34
f 26 34 30
f 27 31 32
f 27 32 33
f 27 33 28
f 30 34 36
f 30 36 35
f 31 37 32
f 32 37 38
f 35 36 40
f 35 40 39
f 37 41 38
f 38 41 42
f 39 40 43
f 39 43 44
f 41 45 42
f 42 45 46
f 42 46 47
f 43 48 44
f 44 48 49
f 44 49 50
f 46 51 47
f 47 51 52
f 49 53 54
f 49 54 50
f 51 55 56
f 51 56 57
f 51 57 52
f 53 58 59
f 53 59 60
f 53 60 61
f 53 61 54
f 55 59 56
f 56 59 58

