# https://github.com/mikedh/trimesh
v -0.03092444 0.03344394 0.03511497
v -0.03092444 0.03451368 0.05210759
v -0.03092444 0.03890931 0.03511497
v -0.00001391 0.04554652 0.03511497
v -0.00001391 0.04633261 0.05210759
v -0.03092444 0.03497074 0.05507235
v -0.00001391 0.04636341 0.05237844
v -0.00001391 0.04672161 0.05507235
v -0.03092444 0.03893038 0.03570250
v -0.02736925 0.04174086 0.04171950
v -0.02711811 0.04167279 0.03511497
v -0.00001391 0.04974117 0.03511497
v -0.03092444 0.03532732 0.05585989
v -0.00001391 0.04695014 0.05585989
v -0.03092444 0.03915891 0.04211536
v -0.02746909 0.04179110 0.05340142
v -0.02422857 0.04362748 0.04159866
v -0.02410149 0.04351241 0.03511497
v -0.03092444 0.03917188 0.04334251
v -0.00001391 0.04987570 0.04047568
v -0.00177790 0.04969903 0.03511497
v -0.03092444 0.03577466 0.05629116
v -0.00001391 0.04713329 0.05611407
v -0.00001391 0.04726134 0.05629116
v -0.02524823 0.04301482 0.05535986
v -0.02429514 0.04369880 0.05340142
v -0.03092444 0.03927075 0.05340142
v -0.02934502 0.04033076 0.05535986
v -0.02105159 0.04536661 0.05339933
v -0.02097595 0.04529692 0.04134657
v -0.02153873 0.04485930 0.03511497
v -0.00001391 0.04990487 0.04180909
v -0.00324536 0.04980276 0.04170284
v -0.00323023 0.04965365 0.03511497
v -0.03092444 0.03605830 0.05639742
v -0.00001391 0.04759846 0.05639742
v -0.02916651 0.04013302 0.05592239
v -0.02509089 0.04280249 0.05592239
v -0.02092451 0.04527746 0.05535986
v -0.03092444 0.03924806 0.05388269
v -0.03092444 0.03906004 0.05535986
v -0.03092444 0.03891255 0.05560571
v -0.03092444 0.03872129 0.05592239
v -0.01644345 0.04722730 0.05350559
v -0.01645253 0.04713815 0.04242788
v -0.01801076 0.04635692 0.03511497
v -0.01955387 0.04573453 0.03511497
v -0.00001391 0.04999077 0.05216801
v -0.00689738 0.04943646 0.04141324
v -0.00696697 0.04952560 0.05340142
v -0.00328469 0.04989191 0.05340142
v -0.00001391 0.05000050 0.05339933
v -0.00610162 0.04937001 0.03511497
v -0.02782915 0.03877478 0.05639742
v -0.03092444 0.03674553 0.05639325
v -0.00001391 0.04832459 0.05639117
v -0.00161451 0.04770382 0.05639742
v -0.03092444 0.03849762 0.05606198
v -0.02892748 0.03987207 0.05620157
v -0.02487607 0.04251885 0.05620157
v -0.02127246 0.04464049 0.05610782
v -0.01854934 0.04601655 0.05592239
v -0.01637991 0.04711060 0.05535986
v -0.01178993 0.04860175 0.05340142
v -0.01169916 0.04852719 0.04204869
v -0.01426495 0.04762440 0.03511497
v -0.00831038 0.04901181 0.03511497
v -0.01168100 0.04848991 0.05535986
v -0.00686712 0.04940404 0.05535986
v -0.00200785 0.04983842 0.05535986
v -0.00001391 0.04998429 0.05371393
v -0.02828906 0.03951549 0.05638909
v -0.01087617 0.04647200 0.05639742
v -0.03092444 0.03698217 0.05638700
v -0.00001391 0.04856122 0.05638075
v -0.00159333 0.04857419 0.05638909
v -0.03092444 0.03826909 0.05620157
v -0.02241013 0.04337626 0.05635367
v -0.01611062 0.04654980 0.05620157
v -0.01394725 0.04761143 0.05592239
v -0.01386253 0.04774109 0.03511497
v -0.00984743 0.04871520 0.03511497
v -0.00920901 0.04875086 0.05592239
v -0.00438302 0.04942187 0.05592239
v -0.00122117 0.04943160 0.05610990
v -0.00001391 0.04946077 0.05605573
v -0.00001391 0.04982059 0.05535986
v -0.03092444 0.03743924 0.05637450
v -0.01559021 0.04605869 0.05638075
v -0.00001391 0.04878328 0.05632241
v -0.00001391 0.04935704 0.05613699
v -0.00671583 0.04880272 0.05620157
v -0.00894275 0.04799394 0.05635575
v -0.01146921 0.04790642 0.05620157
f 1 2 6
f 1 6 13
f 1 13 22
f 1 22 35
f 1 35 55
f 1 55 74
f 1 74 88
f 1 88 77
f 1 77 58
f 1 58 43
f 1 43 42
f 1 42 41
f 1 41 40
f 1 40 27
f 1 27 19
f 1 19 15
f 1 15 9
f 1 9 3
f 1 3 11
f 1 11 18
f 1 18 31
f 1 31 47
f 1 47 46
f 1 46 66
f 1 66 81
f 1 81 82
f 1 82 67
f 1 67 53
f 1 53 34
f 1 34 21
f 1 21 12
f 1 12 4
f 1 4 5
f 1 5 2
f 2 5 7
f 2 7 8
f 2 8 6
f 3 9 10
f 3 10 11
f 4 12 20
f 4 20 32
f 4 32 48
f 4 48 52
f 4 52 71
f 4 71 87
f 4 87 86
f 4 86 91
f 4 91 90
f 4 90 75
f 4 75 56
f 4 56 36
f 4 36 24
f 4 24 23
f 4 23 14
f 4 14 8
f 4 8 7
f 4 7 5
f 6 8 14
f 6 14 13
f 9 15 10
f 10 16 17
f 10 17 18
f 10 18 11
f 10 15 19
f 10 19 16
f 12 21 20
f 13 14 23
f 13 23 24
f 13 24 22
f 16 25 26
f 16 26 17
f 16 19 27
f 16 27 28
f 16 28 25
f 17 26 29
f 17 29 30
f 17 30 31
f 17 31 18
f 20 21 33
f 20 33 32
f 21 34 33
f 22 24 35
f 24 36 35
f 25 28 37
f 25 37 38
f 25 38 39
f 25 39 26
f 26 39 29
f 27 40 28
f 28 40 41
f 28 41 42
f 28 42 43
f 28 43 37
f 29 39 44
f 29 44 45
f 29 45 30
f 30 45 46
f 30 46 47
f 30 47 31
f 32 33 48
f 33 34 49
f 33 49 50
f 33 50 51
f 33 51 52
f 33 52 48
f 34 53 49
f 35 54 55
f 35 36 57
f 35 57 73
f 35 73 54
f 36 56 57
f 37 43 58
f 37 58 59
f 37 59 38
f 38 60 61
f 38 61 39
f 38 59 60
f 39 61 62
f 39 62 63
f 39 63 44
f 44 63 64
f 44 64 45
f 45 64 65
f 45 65 66
f 45 66 46
f 49 53 67
f 49 67 65
f 49 65 50
f 50 65 64
f 50 64 68
f 50 68 69
f 50 69 51
f 51 70 52
f 51 69 70
f 52 70 71
f 54 72 55
f 54 73 72
f 55 72 74
f 56 75 76
f 56 76 57
f 57 76 73
f 58 77 59
f 59 72 60
f 59 77 72
f 60 78 61
f 60 72 78
f 61 78 79
f 61 79 62
f 62 79 80
f 62 80 63
f 63 80 68
f 63 68 64
f 65 81 66
f 65 67 82
f 65 82 81
f 68 80 83
f 68 83 69
f 69 83 84
f 69 84 70
f 70 85 86
f 70 86 87
f 70 87 71
f 70 84 85
f 72 77 88
f 72 88 74
f 72 73 89
f 72 89 78
f 73 76 89
f 75 90 76
f 76 90 91
f 76 91 85
f 76 85 92
f 76 92 93
f 76 93 89
f 78 89 79
f 79 89 94
f 79 94 80
f 80 94 83
f 83 92 84
f 83 94 92
f 84 92 85
f 85 91 86
f 89 93 94
f 92 94 93

