# https://github.com/mikedh/trimesh
v 0.03999616 0.00000121 0.09997134
v 0.03965387 0.00521964 0.09997134
v 0.03999616 -0.00000563 0.09997134
v 0.03631258 0.00000121 0.06311899
v 0.03895861 0.00872054 0.09997134
v 0.03609731 0.00329693 0.06312848
v 0.03600238 0.00473832 0.06312848
v 0.03749587 -0.00000563 0.09997134
v 0.03631124 -0.00001332 0.06311899
v 0.03030654 -0.00001332 0.00306438
v 0.03030654 0.00000121 0.00306438
v 0.03029183 0.00023033 0.00306438
v 0.03641420 0.00872054 0.09997134
v 0.03521085 0.00872054 0.06312848
v 0.03004715 0.00395607 0.00306438
v 0.02928369 0.00779894 0.00306438
v 0.02633817 0.00779894 0.00306438
v 0.03369731 -0.00001332 0.06311899
v 0.02750675 -0.00001332 0.00306438
v 0.03255145 0.00872054 0.06312848
v 0.02752681 -0.00001332 0.00327306
f 1 2 5
f 1 5 13
f 1 13 8
f 1 8 3
f 1 3 4
f 1 4 2
f 2 4 6
f 2 6 7
f 2 7 5
f 3 8 18
f 3 18 9
f 3 9 4
f 4 9 10
f 4 10 11
f 4 11 12
f 4 12 6
f 5 7 14
f 5 14 20
f 5 20 13
f 6 12 15
f 6 15 7
f 7 15 16
f 7 16 14
f 8 13 17
f 8 17 18
f 9 18 21
f 9 21 19
f 9 19 10
f 10 19 17
f 10 17 16
f 10 16 15
f 10 15 12
f 10 12 11
f 13 20 17
f 14 16 17
f 14 17 20
f 17 19 21
f 17 21 18

