# https://github.com/mikedh/trimesh
v 0.00665867 0.03561966 0.06312766
v 0.00665867 0.03296015 0.06312766
v 0.00665867 0.03380177 0.04525448
v 0.00615837 0.03571963 0.06312766
v -0.00911336 0.03241642 0.06312766
v -0.00911336 0.02589160 0.00306437
v 0.00665867 0.03176149 0.05170411
v 0.00665867 0.02950902 0.00306437
v 0.00395485 0.03004663 0.00306437
v 0.00473928 0.03600119 0.06312766
v -0.00911336 0.03513101 0.06312766
v -0.00911336 0.02884287 0.00306437
v 0.00665867 0.02666181 0.00306437
v 0.00372632 0.03006193 0.00306437
v -0.00000128 0.03631335 0.06312766
v -0.00000128 0.03030779 0.00306437
v -0.00473876 0.03600221 0.06312766
v -0.00911336 0.03401600 0.05215094
v -0.00784252 0.02927541 0.00306437
v -0.00329652 0.03609708 0.06312766
v -0.00395587 0.03004663 0.00306437
v -0.00411338 0.03001603 0.00306437
f 1 2 7
f 1 7 13
f 1 13 8
f 1 8 3
f 1 3 4
f 1 4 10
f 1 10 15
f 1 15 20
f 1 20 17
f 1 17 11
f 1 11 5
f 1 5 2
f 2 5 6
f 2 6 7
f 3 8 9
f 3 9 4
f 4 9 10
f 5 11 18
f 5 18 12
f 5 12 6
f 6 12 19
f 6 19 22
f 6 22 21
f 6 21 16
f 6 16 14
f 6 14 9
f 6 9 8
f 6 8 13
f 6 13 7
f 9 14 10
f 10 14 16
f 10 16 15
f 11 17 18
f 12 18 19
f 15 16 20
f 16 21 17
f 16 17 20
f 17 21 22
f 17 22 19
f 17 19 18

