# https://github.com/mikedh/trimesh
v -0.00000084 -0.03999749 0.09997134
v 0.00005147 -0.03631030 0.06312848
v 0.00005147 -0.03999245 0.09997134
v -0.00489522 -0.03967582 0.09997134
v -0.00440026 -0.03602395 0.06311899
v -0.00000035 -0.03631282 0.06311899
v 0.00005147 -0.03369532 0.06312848
v 0.00000546 -0.03030709 0.00306438
v 0.00005147 -0.03749353 0.09997134
v -0.00489522 -0.03717565 0.09997134
v -0.00489522 -0.03718952 0.07510905
v -0.00473928 -0.03600250 0.06312848
v -0.00379585 -0.03005858 0.00306438
v -0.00000035 -0.03030709 0.00306438
v 0.00005147 -0.03745064 0.09956345
v 0.00000546 -0.02750668 0.00306438
v -0.00440026 -0.02711185 0.00306438
v -0.00489522 -0.03331311 0.06312848
v -0.00489522 -0.03597097 0.06312848
v -0.00440026 -0.02995893 0.00306438
v -0.00395567 -0.03004723 0.00306438
f 1 2 3
f 1 3 9
f 1 9 10
f 1 10 4
f 1 4 5
f 1 5 6
f 1 6 2
f 2 7 15
f 2 15 9
f 2 9 3
f 2 6 8
f 2 8 16
f 2 16 7
f 4 10 18
f 4 18 19
f 4 19 11
f 4 11 12
f 4 12 5
f 5 13 6
f 5 12 13
f 6 13 14
f 6 14 8
f 7 16 17
f 7 17 15
f 8 14 13
f 8 13 21
f 8 21 20
f 8 20 17
f 8 17 16
f 9 15 10
f 10 15 18
f 11 19 12
f 12 19 20
f 12 20 21
f 12 21 13
f 15 17 18
f 17 20 19
f 17 19 18

