# https://github.com/mikedh/trimesh
v -0.04002729 0.01697366 0.10000011
v -0.04002729 0.01697366 0.10300000
v -0.03767111 0.02175131 0.10000011
v -0.03613098 0.01697366 0.09997494
v -0.03613395 0.01697366 0.10300000
v -0.03767111 0.02175131 0.10300000
v -0.03173316 0.02434969 0.09997494
v -0.03463833 0.02000024 0.09997494
v -0.03451073 0.02647977 0.10000011
v -0.03334896 0.01697366 0.09997494
v -0.03464278 0.01697366 0.10139213
v -0.02487084 0.03127564 0.10300000
v -0.03451073 0.02647977 0.10300000
v -0.03075983 0.03075815 0.10000011
v -0.02828197 0.02828186 0.09997494
v -0.03335044 0.01697366 0.09999005
v -0.02487084 0.02795570 0.09997494
v -0.03335193 0.01697366 0.10000011
v -0.02487084 0.02795935 0.10000011
v -0.02487084 0.03558500 0.10300000
v -0.03075983 0.03075815 0.10300000
v -0.02648219 0.03450994 0.10000011
v -0.02487084 0.03127382 0.09997494
v -0.02487084 0.03558500 0.10000011
v -0.02648219 0.03450994 0.10300000
f 1 2 6
f 1 6 3
f 1 3 4
f 1 4 10
f 1 10 16
f 1 16 18
f 1 18 11
f 1 11 5
f 1 5 2
f 2 5 12
f 2 12 20
f 2 20 25
f 2 25 21
f 2 21 13
f 2 13 6
f 3 7 8
f 3 8 4
f 3 6 13
f 3 13 9
f 3 9 7
f 4 8 7
f 4 7 15
f 4 15 23
f 4 23 17
f 4 17 10
f 5 11 12
f 7 9 14
f 7 14 15
f 9 13 21
f 9 21 14
f 10 17 16
f 11 18 12
f 12 19 17
f 12 17 23
f 12 23 24
f 12 24 20
f 12 18 19
f 14 21 25
f 14 25 22
f 14 22 23
f 14 23 15
f 16 17 19
f 16 19 18
f 20 24 22
f 20 22 25
f 22 24 23

