# https://github.com/mikedh/trimesh
v 0.03876338 -0.00970529 0.09997134
v 0.03621852 -0.00970529 0.09997134
v 0.03863240 -0.01035356 0.09997134
v 0.03507458 -0.00940004 0.06311899
v 0.03403342 -0.00912049 0.05233364
v 0.03513094 -0.00912049 0.06311899
v 0.03621686 -0.00970529 0.09996185
v 0.03341503 -0.01683849 0.09997134
v 0.03241532 -0.00912049 0.06311899
v 0.03695130 -0.01530547 0.09997134
v 0.03461037 -0.01076911 0.06311899
v 0.02805175 -0.01144685 0.00306438
v 0.02883925 -0.00912049 0.00306438
v 0.02182637 -0.01673876 0.00306438
v 0.03619531 -0.01683849 0.09997134
v 0.03203566 -0.01683849 0.08794334
v 0.02880277 -0.00912049 0.02987126
v 0.03209866 -0.01683849 0.06312848
v 0.03354931 -0.01389560 0.06312848
v 0.02800036 -0.01159796 0.00306438
v 0.02589152 -0.00912049 0.00306438
v 0.02518692 -0.01673876 0.00306438
v 0.02919072 -0.01683849 0.06312848
v 0.02899509 -0.01673876 0.03479439
v 0.02624797 -0.01515209 0.00306438
f 1 2 8
f 1 8 15
f 1 15 10
f 1 10 3
f 1 3 4
f 1 4 5
f 1 5 6
f 1 6 9
f 1 9 2
f 2 7 8
f 2 9 7
f 3 10 11
f 3 11 4
f 4 11 5
f 5 11 12
f 5 12 13
f 5 13 21
f 5 21 17
f 5 17 9
f 5 9 6
f 7 9 14
f 7 14 8
f 8 14 16
f 8 16 23
f 8 23 18
f 8 18 15
f 9 17 14
f 10 15 18
f 10 18 19
f 10 19 11
f 11 19 12
f 12 20 25
f 12 25 22
f 12 22 14
f 12 14 21
f 12 21 13
f 12 19 20
f 14 17 21
f 14 22 18
f 14 18 23
f 14 23 16
f 18 22 24
f 18 24 25
f 18 25 20
f 18 20 19
f 22 25 24

