# https://github.com/mikedh/trimesh
v 0.02111891 -0.02944096 -0.01011241
v 0.01939796 -0.02703987 -0.03383139
v 0.01939796 -0.02558711 -0.04322902
v 0.01987855 -0.02523256 -0.04322902
v 0.02112489 -0.02576582 -0.03383139
v 0.02299938 -0.02804297 -0.01011241
v 0.03177359 -0.02384322 0.01803851
v 0.02674238 -0.02384322 0.01803851
v 0.02082178 -0.02384322 -0.01011241
v 0.01939796 -0.02037849 -0.03383139
v 0.01939796 -0.01840400 -0.04322902
v 0.02038107 -0.02486073 -0.04322902
v 0.02387680 -0.02725894 -0.01011241
v 0.02127644 -0.02405940 -0.04322902
v 0.03307177 -0.02209644 0.01803851
v 0.02565358 -0.02565052 -0.01011241
v 0.03094403 -0.02384322 0.01265302
v 0.03586955 -0.00001099 0.01803851
v 0.03168784 0.00000630 -0.01011241
v 0.02677229 0.00000630 -0.04322902
v 0.02228747 -0.02314854 -0.04322902
v 0.03507190 -0.01874702 0.01803851
v 0.02912538 -0.02155454 -0.01011241
v 0.02771352 -0.01851354 -0.03383139
v 0.02274213 -0.02273347 -0.04322902
v 0.02352384 -0.02187161 -0.04322902
v 0.02903963 -0.02384322 0.00035873
v 0.03977009 -0.00001099 0.01803851
v 0.03626439 0.00000630 -0.01011241
v 0.03214051 0.00000630 -0.04322902
v 0.03674099 -0.01521600 0.01803851
v 0.03198497 -0.01709537 -0.01011241
v 0.02943247 -0.01287832 -0.04322902
v 0.02556185 -0.01944746 -0.04322902
v 0.02637546 -0.01835500 -0.04322902
v 0.02674038 -0.01786498 -0.04322902
v 0.02484196 -0.02041020 -0.04322902
v 0.03626639 -0.00000523 -0.01011241
v 0.03958064 -0.00388503 0.01803851
v 0.03202485 -0.00248991 -0.04322902
v 0.03214251 -0.00000523 -0.04322902
v 0.03709794 -0.01423019 0.01803851
v 0.03350450 -0.01388430 -0.01011241
v 0.02938062 -0.01570313 -0.03383139
v 0.02834966 -0.01514970 -0.04322902
v 0.02969570 -0.01231047 -0.04322902
v 0.03077652 -0.01275725 -0.03383139
v 0.03208069 -0.00131963 -0.04322902
v 0.03942710 -0.00494577 0.01803851
v 0.03583366 -0.00535797 -0.01011241
v 0.03592738 -0.00470365 -0.01011241
v 0.03315752 -0.00323647 -0.03383139
v 0.03199295 -0.00311253 -0.04322902
v 0.03805912 -0.01154950 0.01803851
v 0.03411670 -0.01218364 -0.01011241
v 0.02979939 -0.01202223 -0.04322902
v 0.03901032 -0.00776194 0.01803851
v 0.03557841 -0.00708168 -0.01011241
v 0.03154028 -0.00627459 -0.04322902
v 0.03284843 -0.00539832 -0.03383139
v 0.03167189 -0.00536950 -0.04322902
v 0.03061101 -0.00976526 -0.04322902
v 0.03076456 -0.00933577 -0.04322902
v 0.03160409 -0.00583646 -0.04322902
f 1 2 3
f 1 3 4
f 1 4 5
f 1 5 6
f 1 6 7
f 1 7 8
f 1 8 9
f 1 9 2
f 2 9 10
f 2 10 11
f 2 11 3
f 3 11 20
f 3 20 30
f 3 30 41
f 3 41 48
f 3 48 40
f 3 40 53
f 3 53 61
f 3 61 64
f 3 64 59
f 3 59 63
f 3 63 62
f 3 62 56
f 3 56 46
f 3 46 33
f 3 33 45
f 3 45 36
f 3 36 35
f 3 35 34
f 3 34 37
f 3 37 26
f 3 26 25
f 3 25 21
f 3 21 14
f 3 14 12
f 3 12 4
f 4 12 5
f 5 13 6
f 5 12 14
f 5 14 13
f 6 13 7
f 7 15 22
f 7 22 31
f 7 31 42
f 7 42 54
f 7 54 57
f 7 57 49
f 7 49 39
f 7 39 28
f 7 28 18
f 7 18 8
f 7 13 16
f 7 16 17
f 7 17 15
f 8 18 9
f 9 18 19
f 9 19 20
f 9 20 10
f 10 20 11
f 13 14 21
f 13 21 16
f 15 17 23
f 15 23 24
f 15 24 22
f 16 21 25
f 16 25 26
f 16 26 27
f 16 27 17
f 17 27 23
f 18 28 29
f 18 29 19
f 19 29 30
f 19 30 20
f 22 24 32
f 22 32 33
f 22 33 31
f 23 27 34
f 23 34 35
f 23 35 36
f 23 36 24
f 24 36 32
f 26 37 27
f 27 37 34
f 28 38 29
f 28 39 40
f 28 40 38
f 29 38 41
f 29 41 30
f 31 33 43
f 31 43 42
f 32 36 44
f 32 44 45
f 32 45 33
f 33 46 47
f 33 47 43
f 36 45 44
f 38 40 48
f 38 48 41
f 39 49 50
f 39 50 51
f 39 51 52
f 39 52 40
f 40 52 53
f 42 43 55
f 42 55 54
f 43 47 55
f 46 56 55
f 46 55 47
f 49 57 50
f 50 58 59
f 50 59 60
f 50 60 51
f 50 57 58
f 51 60 52
f 52 60 61
f 52 61 53
f 54 58 57
f 54 55 62
f 54 62 63
f 54 63 59
f 54 59 58
f 55 56 62
f 59 64 60
f 60 64 61

