# https://github.com/mikedh/trimesh
v -0.03209365 0.00179299 -0.04297837
v -0.03206524 0.00231463 -0.04297837
v -0.02671557 0.00179299 -0.04297837
v -0.03478378 0.00179299 -0.02139012
v -0.03203465 0.00286111 -0.04297837
v -0.01386368 0.02290374 -0.04297837
v -0.01386368 0.02844923 -0.01011018
v -0.02810325 0.00179299 -0.03364169
v -0.03618895 0.00179299 -0.01011018
v -0.03317320 0.00328649 -0.03364169
v -0.03201498 0.00317471 -0.04297837
v -0.03608842 0.00357215 -0.01011018
v -0.01386368 0.02899571 -0.04297837
v -0.01386368 0.03350724 -0.01011018
v -0.03160195 0.00179299 -0.01011018
v -0.03287381 0.00539787 -0.03364169
v -0.03166096 0.00566490 -0.04297837
v -0.03583492 0.00535440 -0.01011018
v -0.01432260 0.02878147 -0.04297837
v -0.01386368 0.03027807 -0.03364169
v -0.01389209 0.03349482 -0.01011018
v -0.01386368 0.03343272 -0.01066356
v -0.03283010 0.00569595 -0.03364169
v -0.03157136 0.00628279 -0.04297837
v -0.03557924 0.00708077 -0.01011018
v -0.03270991 0.00650946 -0.03364169
v -0.01473126 0.02858896 -0.04297837
v -0.01550267 0.03273721 -0.01011018
v -0.03515310 0.00877298 -0.01011018
v -0.03250886 0.00730744 -0.03364169
v -0.03141620 0.00689137 -0.04297837
v -0.01515302 0.02838714 -0.04297837
v -0.01570154 0.02941178 -0.03364169
v -0.01708703 0.03198891 -0.01011018
v -0.03469637 0.01055835 -0.01011018
v -0.03203246 0.00917042 -0.03364169
v -0.03108184 0.00819856 -0.04297837
v -0.01729683 0.02710478 -0.04297837
v -0.01617357 0.02912922 -0.03364169
v -0.02013119 0.03016629 -0.01011018
v -0.03349881 0.01389620 -0.01011018
v -0.03161288 0.01050246 -0.03364169
v -0.03189260 0.00971690 -0.03364169
v -0.03077808 0.00938467 -0.04297837
v -0.01784534 0.02677565 -0.04297837
v -0.01894893 0.02740596 -0.03364169
v -0.02024920 0.02645273 -0.03364169
v -0.02161284 0.02907644 -0.01011018
v -0.03275362 0.01547974 -0.01011018
v -0.03079557 0.01277841 -0.03364169
v -0.02982528 0.01204563 -0.04297837
v -0.01991703 0.02525421 -0.04297837
v -0.02301582 0.02803938 -0.01011018
v -0.02042402 0.02488161 -0.04297837
v -0.03198220 0.01710054 -0.01011018
v -0.02940133 0.01572193 -0.03364169
v -0.03043936 0.01353292 -0.03364169
v -0.02972039 0.01233750 -0.04297837
v -0.02430953 0.02686570 -0.01011018
v -0.02111459 0.02425130 -0.04297837
v -0.03016182 0.02014963 -0.01011018
v -0.02676365 0.01787989 -0.04297837
v -0.02837641 0.01517235 -0.04297837
v -0.02850753 0.01489600 -0.04297837
v -0.02240611 0.02464253 -0.03364169
v -0.02479030 0.02642479 -0.01011018
v -0.02276669 0.02273297 -0.04297837
v -0.02873262 0.02207471 -0.01011018
v -0.02705429 0.01943548 -0.03364169
v -0.02649048 0.01824938 -0.04297837
v -0.02565132 0.02562991 -0.01011018
v -0.02297430 0.02250941 -0.04297837
v -0.02802676 0.02301552 -0.01011018
v -0.02576058 0.02116495 -0.03364169
v -0.02558794 0.01945722 -0.04297837
v -0.02642055 0.02478536 -0.01011018
v -0.02454991 0.02077373 -0.04297837
v -0.02500009 0.02200330 -0.03364169
v -0.02486241 0.02042597 -0.04297837
f 1 2 5
f 1 5 11
f 1 11 17
f 1 17 24
f 1 24 31
f 1 31 37
f 1 37 44
f 1 44 51
f 1 51 58
f 1 58 64
f 1 64 63
f 1 63 62
f 1 62 70
f 1 70 75
f 1 75 79
f 1 79 77
f 1 77 72
f 1 72 67
f 1 67 60
f 1 60 54
f 1 54 52
f 1 52 45
f 1 45 38
f 1 38 32
f 1 32 27
f 1 27 19
f 1 19 13
f 1 13 6
f 1 6 3
f 1 3 8
f 1 8 15
f 1 15 9
f 1 9 4
f 1 4 2
f 2 4 5
f 3 6 7
f 3 7 8
f 4 9 5
f 5 10 11
f 5 9 12
f 5 12 10
f 6 13 20
f 6 20 22
f 6 22 14
f 6 14 7
f 7 14 21
f 7 21 28
f 7 28 34
f 7 34 40
f 7 40 48
f 7 48 53
f 7 53 59
f 7 59 66
f 7 66 71
f 7 71 76
f 7 76 73
f 7 73 68
f 7 68 61
f 7 61 55
f 7 55 49
f 7 49 41
f 7 41 35
f 7 35 29
f 7 29 25
f 7 25 18
f 7 18 12
f 7 12 9
f 7 9 15
f 7 15 8
f 10 16 11
f 10 12 16
f 11 16 17
f 12 18 16
f 13 19 20
f 14 22 21
f 16 18 23
f 16 23 24
f 16 24 17
f 18 25 26
f 18 26 24
f 18 24 23
f 19 27 28
f 19 28 22
f 19 22 20
f 21 22 28
f 24 26 29
f 24 29 30
f 24 30 31
f 25 29 26
f 27 32 33
f 27 33 34
f 27 34 28
f 29 35 36
f 29 36 30
f 30 36 31
f 31 36 37
f 32 38 33
f 33 39 34
f 33 38 39
f 34 39 40
f 35 41 42
f 35 42 43
f 35 43 36
f 36 43 37
f 37 43 44
f 38 45 40
f 38 40 39
f 40 46 47
f 40 47 48
f 40 45 46
f 41 49 50
f 41 50 42
f 42 50 51
f 42 51 44
f 42 44 43
f 45 52 47
f 45 47 46
f 47 53 48
f 47 52 54
f 47 54 53
f 49 55 56
f 49 56 57
f 49 57 50
f 50 57 58
f 50 58 51
f 53 54 59
f 54 60 59
f 55 61 62
f 55 62 56
f 56 62 63
f 56 63 64
f 56 64 57
f 57 64 58
f 59 65 66
f 59 60 65
f 60 67 65
f 61 68 69
f 61 69 70
f 61 70 62
f 65 67 66
f 66 67 71
f 67 72 71
f 68 73 74
f 68 74 69
f 69 74 75
f 69 75 70
f 71 72 76
f 72 77 78
f 72 78 76
f 73 76 78
f 73 78 74
f 74 78 77
f 74 77 79
f 74 79 75

