# https://github.com/mikedh/trimesh
v 0.00000722 -0.04331974 0.06002700
v -0.00000256 -0.04331974 0.06002700
v -0.00000256 -0.04396302 0.05992836
v 0.00000722 -0.04396108 0.05992836
v 0.00000722 -0.04267841 0.05982150
v -0.03004416 -0.03030307 0.05982150
v -0.03004416 -0.03116723 0.06002700
v -0.00424856 -0.04311049 0.06002700
v -0.00431378 -0.04375183 0.05992836
v -0.00000256 -0.04452298 0.05952968
v 0.00000722 -0.04452105 0.05952968
v 0.00000722 -0.04213782 0.05937761
v -0.03004416 -0.02952610 0.05937761
v -0.03004416 -0.02958810 0.05941460
v -0.03330855 -0.02651509 0.04076310
v -0.02748090 -0.03349039 0.06002700
v -0.03004416 -0.03203333 0.05992836
v -0.02788854 -0.03398835 0.05992836
v -0.00845543 -0.04248659 0.06002700
v -0.00857935 -0.04311824 0.05992836
v -0.00868697 -0.04366657 0.05952968
v -0.00436596 -0.04430791 0.05952968
v -0.00440509 -0.04468962 0.05894194
v -0.00000256 -0.04490469 0.05894194
v 0.00000722 -0.04490469 0.05894194
v 0.00000722 -0.04179681 0.05876932
v -0.03004416 -0.02901845 0.05876932
v -0.03004416 -0.02522273 0.04076721
v -0.03230738 -0.02651509 0.03431440
v -0.03293026 -0.02702662 0.04076310
v -0.03004416 -0.03345358 0.05827200
v -0.03004416 -0.03330438 0.05894194
v -0.03004416 -0.03278899 0.05952968
v -0.02406323 -0.03601893 0.06002700
v -0.02442521 -0.03655371 0.05992836
v -0.02824401 -0.03442043 0.05952968
v -0.01258076 -0.04145385 0.06002700
v -0.01276665 -0.04207001 0.05992836
v -0.01292645 -0.04260478 0.05952968
v -0.00876524 -0.04404246 0.05894194
v -0.00441488 -0.04480006 0.05827200
v -0.00000256 -0.04501513 0.05827200
v 0.00000722 -0.04501513 0.05827200
v 0.00000722 -0.03924501 0.04076721
v 0.00000396 -0.03586587 0.01803852
v -0.02408932 -0.02651509 0.01803852
v -0.02957781 -0.02651509 0.01803852
v -0.03017786 -0.02651509 0.02160606
v -0.03188996 -0.02651509 0.03181136
v -0.03012242 -0.03012481 0.04076310
v -0.02855708 -0.03480213 0.05827200
v -0.02812008 -0.02812329 0.01803852
v -0.02734393 -0.02882857 0.01803852
v -0.02848533 -0.03471688 0.05894194
v -0.02042054 -0.03820453 0.06002700
v -0.02072383 -0.03877224 0.05992836
v -0.02473176 -0.03702066 0.05952968
v -0.02494700 -0.03733843 0.05894194
v -0.01657892 -0.04002198 0.06002700
v -0.01682024 -0.04061682 0.05992836
v -0.01703548 -0.04113415 0.05952968
v -0.01303732 -0.04297098 0.05894194
v -0.01306994 -0.04307755 0.05827200
v -0.00878480 -0.04415097 0.05827200
v -0.00390288 -0.03958409 0.01803852
v -0.00000582 -0.03977010 0.01803852
v 0.00000396 -0.03977010 0.01803852
v 0.00000722 -0.04259703 0.04076721
v -0.02500896 -0.03742950 0.05827200
v -0.02523072 -0.03074484 0.01803852
v -0.02439260 -0.03136680 0.01803852
v -0.02210002 -0.03306606 0.01803852
v -0.02098472 -0.03926632 0.05952968
v -0.02121952 -0.03970228 0.05827200
v -0.02116734 -0.03960346 0.05894194
v -0.01718223 -0.04148679 0.05894194
v -0.01722462 -0.04158948 0.05827200
v -0.01423416 -0.03709817 0.01803852
v -0.01155025 -0.03805727 0.01803852
v -0.00878154 -0.03875286 0.01803852
v -0.00777059 -0.03900281 0.01803852
v -0.00672050 -0.03916557 0.01803852
v -0.02119017 -0.03361633 0.01803852
v -0.01874758 -0.03507921 0.01803852
v -0.01618106 -0.03629407 0.01803852
v -0.01522229 -0.03673971 0.01803852
f 1 2 3
f 1 3 4
f 1 4 11
f 1 11 25
f 1 25 43
f 1 43 68
f 1 68 44
f 1 44 26
f 1 26 12
f 1 12 5
f 1 5 6
f 1 6 7
f 1 7 16
f 1 16 34
f 1 34 55
f 1 55 59
f 1 59 37
f 1 37 19
f 1 19 8
f 1 8 2
f 2 8 9
f 2 9 3
f 3 9 10
f 3 10 11
f 3 11 4
f 5 12 13
f 5 13 14
f 5 14 6
f 6 14 15
f 6 15 7
f 7 15 17
f 7 17 18
f 7 18 16
f 8 19 9
f 9 20 21
f 9 21 22
f 9 22 10
f 9 19 20
f 10 22 23
f 10 23 24
f 10 24 25
f 10 25 11
f 12 26 27
f 12 27 13
f 13 27 15
f 13 15 14
f 15 27 28
f 15 28 29
f 15 29 30
f 15 30 31
f 15 31 32
f 15 32 33
f 15 33 17
f 16 18 35
f 16 35 34
f 17 33 18
f 18 33 36
f 18 36 35
f 19 37 38
f 19 38 20
f 20 38 21
f 21 39 40
f 21 40 23
f 21 23 22
f 21 38 39
f 23 40 41
f 23 41 24
f 24 41 42
f 24 42 43
f 24 43 25
f 26 44 45
f 26 45 28
f 26 28 27
f 28 45 46
f 28 46 47
f 28 47 48
f 28 48 49
f 28 49 29
f 29 49 30
f 30 49 48
f 30 48 50
f 30 50 31
f 31 51 32
f 31 50 52
f 31 52 53
f 31 53 51
f 32 54 36
f 32 36 33
f 32 51 54
f 34 35 55
f 35 56 55
f 35 36 57
f 35 57 56
f 36 54 58
f 36 58 57
f 37 59 38
f 38 60 61
f 38 61 39
f 38 59 60
f 39 61 62
f 39 62 40
f 40 62 63
f 40 63 64
f 40 64 41
f 41 64 82
f 41 82 65
f 41 65 42
f 42 65 66
f 42 66 67
f 42 67 43
f 43 67 68
f 44 68 67
f 44 67 45
f 45 67 66
f 45 66 65
f 45 65 82
f 45 82 81
f 45 81 80
f 45 80 79
f 45 79 78
f 45 78 86
f 45 86 85
f 45 85 84
f 45 84 83
f 45 83 72
f 45 72 71
f 45 71 70
f 45 70 53
f 45 53 52
f 45 52 47
f 45 47 46
f 47 52 48
f 48 52 50
f 51 69 58
f 51 58 54
f 51 53 70
f 51 70 71
f 51 71 72
f 51 72 69
f 55 56 59
f 56 57 73
f 56 73 61
f 56 61 60
f 56 60 59
f 57 58 73
f 58 69 74
f 58 74 75
f 58 75 73
f 61 73 75
f 61 75 76
f 61 76 62
f 62 76 63
f 63 76 77
f 63 77 78
f 63 78 79
f 63 79 80
f 63 80 64
f 64 80 81
f 64 81 82
f 69 72 83
f 69 83 74
f 74 77 76
f 74 76 75
f 74 83 84
f 74 84 85
f 74 85 77
f 77 85 86
f 77 86 78

