# https://github.com/mikedh/trimesh
v -0.01386368 0.02228740 -0.04560609
v -0.01386368 0.02863628 -0.04560609
v -0.00000059 0.02627547 -0.04560609
v 0.00000077 0.03168960 -0.01011018
v -0.01386368 0.02845426 -0.01011018
v -0.01220527 0.02941638 -0.04560609
v -0.01386368 0.03343729 -0.01066611
v 0.00000077 0.02651360 -0.04560609
v 0.00000077 0.02638769 -0.04535592
v 0.00000077 0.03626890 -0.01011018
v -0.01386368 0.03350983 -0.01011018
v -0.00975565 0.03029912 -0.04560609
v -0.01220391 0.03410790 -0.01011018
v 0.00000077 0.03185110 -0.04560609
v -0.00022316 0.03184152 -0.04560609
v -0.00277049 0.03172792 -0.04560609
v -0.00116229 0.03621689 -0.01011018
v -0.00928608 0.03046746 -0.04560609
v -0.01055364 0.03469776 -0.01011018
v -0.00312335 0.03171013 -0.04560609
v -0.00355627 0.03610193 -0.01011018
v -0.00181371 0.03618678 -0.01011018
v -0.00668989 0.03113259 -0.04560609
v -0.00940551 0.03499201 -0.01011018
v -0.00335813 0.03167592 -0.04560609
v -0.00707667 0.03557913 -0.01011018
v -0.00621761 0.03125166 -0.04560609
v -0.00656096 0.03116543 -0.04560609
v -0.00876901 0.03515487 -0.01011018
f 1 2 6
f 1 6 12
f 1 12 18
f 1 18 23
f 1 23 28
f 1 28 27
f 1 27 25
f 1 25 20
f 1 20 16
f 1 16 15
f 1 15 14
f 1 14 8
f 1 8 3
f 1 3 4
f 1 4 5
f 1 5 11
f 1 11 7
f 1 7 2
f 2 7 6
f 3 8 9
f 3 9 4
f 4 10 17
f 4 17 22
f 4 22 21
f 4 21 26
f 4 26 29
f 4 29 24
f 4 24 19
f 4 19 13
f 4 13 11
f 4 11 5
f 4 9 8
f 4 8 14
f 4 14 10
f 6 7 12
f 7 11 13
f 7 13 12
f 10 14 15
f 10 15 16
f 10 16 17
f 12 13 18
f 13 19 18
f 16 20 21
f 16 21 22
f 16 22 17
f 18 19 24
f 18 24 23
f 20 25 21
f 21 25 27
f 21 27 26
f 23 24 29
f 23 29 28
f 26 27 29
f 27 28 29

