# https://github.com/mikedh/trimesh
v 0.03464341 0.02873728 0.05826691
v 0.03183225 0.03183365 0.05826691
v 0.03175087 0.03175814 0.05893453
v 0.03448742 0.02873728 0.05893453
v 0.03331413 0.02651330 0.04075703
v 0.03177800 0.02384402 0.01802757
v 0.02944159 0.02112004 -0.01009344
v 0.02811231 0.02112004 -0.01873206
v 0.02573181 0.02112785 -0.03409746
v 0.02855653 0.03479722 0.05826691
v 0.02499257 0.02194035 -0.03409746
v 0.02353782 0.02352370 -0.03409746
v 0.02314446 0.02388568 -0.03409746
v 0.02174397 0.02516173 -0.03409746
v 0.02114037 0.02570861 -0.03409746
v 0.02848532 0.03471128 0.05893453
v 0.02824455 0.03441701 0.05952123
v 0.03148298 0.03148730 0.05952123
v 0.03397198 0.02873728 0.05952123
v 0.03322257 0.02873728 0.05991573
v 0.02674573 0.02384402 0.01802757
v 0.03235447 0.02873728 0.06002700
v 0.02357173 0.02112004 -0.01009344
v 0.01937704 0.01841429 -0.04331265
v 0.02573520 0.02112004 -0.03409746
v 0.01937704 0.02559924 -0.04331265
v 0.02500613 0.03742484 0.05826691
v 0.02494510 0.03733630 0.05893453
v 0.01834957 0.02636747 -0.04331265
v 0.01785787 0.02673206 -0.04331265
v 0.02473485 0.03701598 0.05952123
v 0.02788850 0.03398732 0.05991573
v 0.03108623 0.03109407 0.05991573
v 0.02887528 0.02651330 0.04075703
v 0.03029951 0.02873728 0.05876257
v 0.00001772 0.04179467 0.05876257
v 0.00000416 0.02675810 -0.04331265
v 0.03062844 0.03063573 0.06002700
v 0.00001772 0.04331551 0.06002700
v 0.00001772 0.04267748 0.05981458
v 0.03148637 0.02873728 0.05981458
v 0.02121837 0.03970090 0.05826691
v 0.02116411 0.03960194 0.05893453
v 0.02098439 0.03926340 0.05952123
v 0.01708472 0.02719560 -0.04331265
v 0.02442288 0.03655244 0.05991573
v 0.02406343 0.03601858 0.06002700
v 0.02747819 0.03348471 0.06002700
v 0.03061149 0.02873728 0.05917730
v 0.03076069 0.02873728 0.05936950
v 0.00001772 0.04213581 0.05936950
v 0.00001094 0.03924517 0.04075703
v 0.00000755 0.03587014 0.01802757
v 0.00000416 0.03169303 -0.01009344
v 0.00000416 0.03213574 -0.04331265
v 0.00425650 0.04310717 0.06002700
v 0.00431753 0.04375041 0.05991573
v 0.00001772 0.04395874 0.05991573
v 0.00001094 0.04259675 0.04075703
v 0.01723731 0.04158893 0.05826691
v 0.01514845 0.02833884 -0.04331265
v 0.01487377 0.02847165 -0.04331265
v 0.01270352 0.02951333 -0.04331265
v 0.01230338 0.02970343 -0.04331265
v 0.01719323 0.04148477 0.05893453
v 0.01704741 0.04113060 0.05952123
v 0.01683378 0.04061497 0.05991573
v 0.02071989 0.03876860 0.05991573
v 0.02041809 0.03820349 0.06002700
v 0.00000755 0.03976861 0.01802757
v 0.00000416 0.03626598 -0.01009344
v 0.00000416 0.03328158 -0.03409746
v 0.00001772 0.04501865 0.05826691
v 0.00002111 0.03213574 -0.04331265
v 0.00846136 0.04248477 0.06002700
v 0.00858683 0.04311499 0.05991573
v 0.00869534 0.04366707 0.05952123
v 0.00437518 0.04430771 0.05952123
v 0.00001772 0.04452125 0.05952123
v 0.00001772 0.04490146 0.05893453
v 0.01307653 0.04307853 0.05826691
v 0.01188629 0.02985448 -0.04331265
v 0.01304262 0.04296915 0.05893453
v 0.01293411 0.04260196 0.05952123
v 0.01277134 0.04207071 0.05991573
v 0.01658624 0.04002121 0.06002700
v 0.00441248 0.04468791 0.05893453
v 0.00442266 0.04479990 0.05826691
v 0.00315442 0.03199251 -0.04331265
v 0.01258484 0.04145091 0.06002700
v 0.00876994 0.04404208 0.05893453
v 0.00879368 0.04414885 0.05826691
v 0.00929216 0.03076594 -0.04331265
v 0.00868856 0.03091698 -0.04331265
v 0.00839693 0.03098990 -0.04331265
v 0.00623007 0.03152896 -0.04331265
f 1 2 3
f 1 3 4
f 1 4 5
f 1 5 6
f 1 6 7
f 1 7 8
f 1 8 9
f 1 9 2
f 2 10 3
f 2 9 11
f 2 11 12
f 2 12 13
f 2 13 14
f 2 14 15
f 2 15 10
f 3 10 16
f 3 16 17
f 3 17 18
f 3 18 4
f 4 18 19
f 4 19 5
f 5 19 20
f 5 20 6
f 6 21 23
f 6 23 7
f 6 20 22
f 6 22 21
f 7 23 24
f 7 24 8
f 8 24 25
f 8 25 9
f 9 25 26
f 9 26 11
f 10 27 28
f 10 28 16
f 10 15 26
f 10 26 29
f 10 29 30
f 10 30 27
f 11 26 12
f 12 26 13
f 13 26 14
f 14 26 15
f 16 28 17
f 17 31 32
f 17 32 18
f 17 28 31
f 18 32 33
f 18 33 20
f 18 20 19
f 20 33 22
f 21 22 34
f 21 34 35
f 21 35 36
f 21 36 37
f 21 37 23
f 22 38 48
f 22 48 47
f 22 47 69
f 22 69 86
f 22 86 90
f 22 90 75
f 22 75 56
f 22 56 39
f 22 39 40
f 22 40 41
f 22 41 34
f 22 33 38
f 23 37 24
f 24 37 55
f 24 55 74
f 24 74 89
f 24 89 96
f 24 96 95
f 24 95 94
f 24 94 93
f 24 93 82
f 24 82 64
f 24 64 63
f 24 63 62
f 24 62 61
f 24 61 45
f 24 45 30
f 24 30 29
f 24 29 26
f 24 26 25
f 27 42 28
f 27 30 42
f 28 42 43
f 28 43 44
f 28 44 31
f 30 45 42
f 31 44 46
f 31 46 32
f 32 46 47
f 32 47 48
f 32 48 38
f 32 38 33
f 34 49 35
f 34 41 50
f 34 50 49
f 35 49 36
f 36 49 50
f 36 50 51
f 36 51 52
f 36 52 53
f 36 53 54
f 36 54 37
f 37 54 71
f 37 71 72
f 37 72 55
f 39 56 57
f 39 57 58
f 39 58 59
f 39 59 52
f 39 52 40
f 40 52 51
f 40 51 41
f 41 51 50
f 42 60 43
f 42 45 61
f 42 61 62
f 42 62 63
f 42 63 64
f 42 64 60
f 43 60 65
f 43 65 66
f 43 66 44
f 44 66 67
f 44 67 68
f 44 68 46
f 46 68 69
f 46 69 47
f 52 59 70
f 52 70 53
f 53 70 71
f 53 71 54
f 55 72 73
f 55 73 74
f 56 75 57
f 57 75 76
f 57 76 77
f 57 77 78
f 57 78 79
f 57 79 58
f 58 79 59
f 59 79 80
f 59 80 73
f 59 73 70
f 60 81 65
f 60 64 82
f 60 82 81
f 65 81 83
f 65 83 84
f 65 84 66
f 66 84 85
f 66 85 67
f 67 86 69
f 67 69 68
f 67 85 86
f 70 73 71
f 71 73 72
f 73 80 87
f 73 87 88
f 73 88 89
f 73 89 74
f 75 90 85
f 75 85 76
f 76 85 77
f 77 85 84
f 77 84 83
f 77 83 91
f 77 91 78
f 78 91 87
f 78 87 79
f 79 87 80
f 81 92 91
f 81 91 83
f 81 82 93
f 81 93 94
f 81 94 95
f 81 95 92
f 85 90 86
f 87 91 88
f 88 91 92
f 88 92 89
f 89 92 96
f 92 95 96

