# https://github.com/mikedh/trimesh
v -0.03215116 -0.00000283 -0.04330020
v -0.03073806 -0.00000283 -0.05465170
v -0.03212913 -0.00044450 -0.04330020
v -0.03212913 0.00044216 -0.04330020
v -0.03061846 -0.00000283 -0.05522148
v -0.03052719 -0.00300818 -0.05500700
v -0.03061532 0.00178710 -0.05484981
v -0.03197806 -0.00315097 -0.04330020
v -0.03205359 0.00178710 -0.04330020
v -0.03044851 -0.00000283 -0.05577162
v -0.03056496 0.00178710 -0.05508395
v -0.03019359 -0.00295172 -0.05606470
v -0.02977816 -0.00587405 -0.05603851
v -0.03009603 -0.00598696 -0.05495788
v -0.03152171 -0.00626923 -0.04330020
v -0.02699917 0.00178710 -0.04330020
v -0.03009603 -0.00002607 -0.05657718
v -0.03030059 0.00178710 -0.05593535
v -0.03016526 0.00178710 -0.05624644
v -0.02967115 -0.00295172 -0.05705855
v -0.02924313 -0.00587073 -0.05704054
v -0.02879308 -0.00875985 -0.05657718
v -0.02913613 -0.00883955 -0.05577162
v -0.02937531 -0.00888936 -0.05492841
v -0.03091115 -0.00871004 -0.04330020
v -0.02666871 0.00178378 -0.04330020
v 0.00000077 0.00178710 -0.05164068
v -0.02984425 0.00178710 -0.05685716
v -0.02967430 0.00178710 -0.05713223
v -0.02966486 -0.00000283 -0.05727140
v -0.02898191 -0.00283217 -0.05794761
v -0.02875846 -0.00572129 -0.05771348
v -0.02825805 -0.00854732 -0.05747443
v -0.02755622 -0.01141983 -0.05704054
v -0.02804090 -0.01161908 -0.05603851
v -0.02828638 -0.01171871 -0.05522148
v -0.03065938 -0.00960002 -0.04330020
v -0.03076009 -0.00931111 -0.04330020
v -0.02839968 -0.01176520 -0.05465170
v 0.00000077 -0.02674545 -0.04330020
v 0.00000077 0.00178710 -0.06002536
v -0.02924628 0.00178710 -0.05768892
v -0.02916130 -0.00003272 -0.05790341
v -0.02835247 -0.00000283 -0.05865002
v -0.02817623 -0.00278568 -0.05868113
v -0.02819196 -0.00560839 -0.05831928
v -0.02769785 -0.00840452 -0.05812444
v -0.02690161 -0.01120730 -0.05792796
v -0.02585988 -0.01382411 -0.05771348
v -0.02630363 -0.01406653 -0.05704054
v -0.02676627 -0.01428239 -0.05606470
v -0.02705267 -0.01446171 -0.05500700
v -0.02990719 -0.01172867 -0.04330020
v -0.02944141 -0.01285775 -0.04330020
v -0.02970262 -0.01230650 -0.04330020
v 0.00000077 -0.03213848 -0.04330020
v 0.00000077 -0.00775364 -0.06002536
v -0.02411632 0.00178710 -0.06002536
v -0.02906059 0.00178710 -0.05791814
v -0.02877105 0.00178710 -0.05818830
v -0.02760973 -0.00000283 -0.05914285
v -0.02823917 0.00178710 -0.05866967
v -0.02797481 0.00178710 -0.05884650
v -0.02725409 -0.00273587 -0.05927056
v -0.02754364 -0.00548219 -0.05884158
v -0.02711561 -0.00815546 -0.05868113
v -0.02635714 -0.01091839 -0.05850102
v -0.02535003 -0.01355181 -0.05831928
v -0.02393378 -0.01591623 -0.05832092
v -0.02438069 -0.01628817 -0.05771348
v -0.02479927 -0.01654055 -0.05706346
v -0.02513287 -0.01679293 -0.05629884
v -0.02540038 -0.01694569 -0.05552766
v -0.02833673 -0.01514912 -0.04330020
v -0.02555774 -0.01707520 -0.05465170
v -0.02704323 -0.01733755 -0.04330020
v -0.00315274 -0.03199569 -0.04330020
v -0.00301426 -0.03059097 -0.05465170
v -0.00000553 -0.03068728 -0.05495788
v 0.00000077 -0.03068728 -0.05495788
v 0.00000077 -0.02442752 -0.06002045
v -0.01148656 -0.02148526 -0.06002536
v -0.02448140 0.00178710 -0.06001554
v -0.02437754 0.00029937 -0.06002536
v -0.02680404 -0.00000283 -0.05954399
v -0.02735795 0.00178710 -0.05923782
v -0.02621237 -0.00253662 -0.05971591
v -0.02683551 -0.00535600 -0.05928530
v -0.02642008 -0.00801599 -0.05914285
v -0.02569622 -0.01068261 -0.05901678
v -0.02476779 -0.01324297 -0.05884158
v -0.02315642 -0.01552106 -0.05898567
v -0.02184089 -0.01801500 -0.05868113
v -0.02237277 -0.01836037 -0.05812444
v -0.02277246 -0.01875886 -0.05749899
v -0.02327287 -0.01910423 -0.05655262
v -0.02353409 -0.01931344 -0.05577162
v -0.02372292 -0.01946288 -0.05495788
v -0.02484333 -0.02038607 -0.04330020
v -0.02673166 -0.01785892 -0.04330020
v -0.02695826 -0.01748034 -0.04330020
v -0.00359335 -0.03192927 -0.04330020
v -0.00629051 -0.03151416 -0.04330020
v -0.00600726 -0.03008621 -0.05498735
v -0.00300167 -0.03046810 -0.05522148
v -0.00000238 -0.03044818 -0.05577162
v 0.00000077 -0.03044818 -0.05577162
v 0.00000077 -0.02477620 -0.06000572
v -0.00308979 -0.02451054 -0.06002045
v -0.00622442 -0.02413196 -0.06000080
v -0.01062737 -0.02253132 -0.06000080
v -0.01484778 -0.02004070 -0.05999917
v -0.01758585 -0.01730434 -0.06001881
v -0.02280079 -0.00905208 -0.06002536
v -0.02474262 0.00178710 -0.05999917
v -0.02489683 -0.00103893 -0.06000080
v -0.02422962 -0.00586409 -0.05999917
v -0.02604242 -0.00000283 -0.05979614
v -0.02708729 0.00178710 -0.05937207
v -0.02638861 0.00178710 -0.05966025
v -0.02612739 0.00178710 -0.05974702
v -0.02519267 -0.00396126 -0.05992385
v -0.02580008 -0.00517336 -0.05972246
v -0.02573714 -0.00774368 -0.05951289
v -0.02484962 -0.01017784 -0.05952598
v -0.02417612 -0.01282122 -0.05928530
v -0.02117368 -0.01730766 -0.05929512
v -0.02254272 -0.01506610 -0.05940482
v -0.01952454 -0.01952265 -0.05914285
v -0.01997144 -0.02006727 -0.05868113
v -0.02046556 -0.02046577 -0.05812444
v -0.02082434 -0.02090080 -0.05749899
v -0.02129012 -0.02129266 -0.05655262
v -0.02152931 -0.02152843 -0.05577162
v -0.02169926 -0.02169780 -0.05495788
v -0.02464191 -0.02060857 -0.04330020
v -0.00844006 -0.03097951 -0.04330020
v -0.00891214 -0.02937555 -0.05490548
v -0.00883975 -0.02913645 -0.05577162
v -0.00594117 -0.02986039 -0.05577162
v -0.00297649 -0.03020243 -0.05603687
v 0.00000077 -0.03011277 -0.05654443
v 0.00000077 -0.02547690 -0.05992221
v -0.00000238 -0.02547690 -0.05992221
v -0.00357132 -0.02526769 -0.05991894
v -0.00838341 -0.02408547 -0.05992221
v -0.01311996 -0.02188376 -0.05992385
v -0.01712007 -0.01888838 -0.05992385
v -0.02035225 -0.01536830 -0.05992385
v -0.02014139 -0.01469085 -0.05999917
v -0.02260566 -0.01048668 -0.06000080
v -0.02548221 0.00102995 -0.05992385
v -0.02525247 0.00178710 -0.05994350
v -0.02396211 -0.00865359 -0.05992549
v -0.02579379 0.00178710 -0.05983216
v -0.02491886 -0.00756103 -0.05979614
v -0.02319419 -0.01249246 -0.05971100
v -0.02405967 -0.00996863 -0.05979614
v -0.02035225 -0.01663686 -0.05972901
v -0.01896119 -0.01904778 -0.05951289
v -0.02185662 -0.01465432 -0.05972246
v -0.01751662 -0.02134247 -0.05914285
v -0.01794778 -0.02192693 -0.05866148
v -0.01836007 -0.02237193 -0.05812444
v -0.01867479 -0.02284016 -0.05749899
v -0.01909966 -0.02327851 -0.05655262
v -0.01931368 -0.02353421 -0.05577162
v -0.01946789 -0.02371686 -0.05495788
v -0.02039002 -0.02483930 -0.04330020
v -0.02250180 -0.02292650 -0.04330020
v -0.02272525 -0.02272393 -0.04330020
v -0.00933072 -0.03075701 -0.04330020
v -0.00975874 -0.03060426 -0.04330020
v -0.00991610 -0.03054780 -0.04330020
v -0.01174148 -0.02833945 -0.05500700
v -0.01163448 -0.02802065 -0.05606470
v -0.00872330 -0.02883425 -0.05652479
v -0.00589711 -0.02951170 -0.05657718
v -0.00293873 -0.02982386 -0.05679986
v 0.00000077 -0.03010613 -0.05655590
v 0.00000077 -0.02604144 -0.05979614
v -0.00000238 -0.02604144 -0.05979614
v -0.00255477 -0.02591525 -0.05979614
v -0.00756198 -0.02491900 -0.05979614
v -0.00527081 -0.02578241 -0.05972083
v -0.01019935 -0.02425816 -0.05972083
v -0.01465580 -0.02185720 -0.05972246
v -0.01651895 -0.02013037 -0.05979614
v -0.01249366 -0.02319217 -0.05971100
v -0.01841357 -0.01841350 -0.05979614
v -0.02247033 -0.01201426 -0.05992221
v -0.02537835 0.00178710 -0.05992385
v -0.01705083 -0.02070819 -0.05953581
v -0.01513103 -0.02280363 -0.05928530
v -0.01572585 -0.02354750 -0.05868113
v -0.01607834 -0.02406555 -0.05812444
v -0.01635844 -0.02453046 -0.05752191
v -0.01664799 -0.02491900 -0.05679986
v -0.01679591 -0.02513485 -0.05629884
v -0.01691550 -0.02531418 -0.05577162
v -0.01706971 -0.02550679 -0.05492841
v -0.01823733 -0.02643994 -0.04330020
v -0.01117184 -0.03009285 -0.04330020
v -0.01475651 -0.02854202 -0.04330020
v -0.01449215 -0.02710742 -0.05465170
v -0.01443550 -0.02700116 -0.05522148
v -0.01229854 -0.02968439 -0.04330020
v -0.01352910 -0.02911320 -0.04330020
v -0.01429387 -0.02678862 -0.05601067
v -0.01413022 -0.02642998 -0.05679986
v -0.01141417 -0.02755906 -0.05704054
v -0.00861315 -0.02838594 -0.05727140
v -0.00573345 -0.02895712 -0.05747443
v -0.00289152 -0.02933238 -0.05753665
v -0.00002756 -0.02952167 -0.05747443
v 0.00000077 -0.02973420 -0.05714206
v 0.00000077 -0.02681187 -0.05953908
v -0.00004329 -0.02682183 -0.05953581
v -0.00263974 -0.02676870 -0.05950470
v -0.00786412 -0.02570271 -0.05951289
v -0.00529914 -0.02682183 -0.05929676
v -0.01039133 -0.02531418 -0.05928530
v -0.01282098 -0.02417513 -0.05928530
v -0.01334341 -0.02497545 -0.05868113
v -0.01364555 -0.02552671 -0.05812444
v -0.01394138 -0.02602151 -0.05747443
v -0.01554017 -0.02812360 -0.04330020
v -0.01761103 -0.02686833 -0.04330020
v -0.01787225 -0.02670893 -0.04330020
v -0.01515621 -0.02835274 -0.04330020
v -0.01122219 -0.02709082 -0.05771348
v -0.00848097 -0.02785793 -0.05794761
v -0.00564848 -0.02838594 -0.05812444
v -0.00279081 -0.02858519 -0.05834057
v -0.00000238 -0.02894384 -0.05812444
v 0.00000077 -0.02894384 -0.05812444
v 0.00000077 -0.02951835 -0.05747770
v 0.00000077 -0.02682847 -0.05953090
v 0.00000077 -0.02760887 -0.05914285
v -0.00000238 -0.02760887 -0.05914285
v -0.00277507 -0.02773838 -0.05898567
v -0.00801518 -0.02642001 -0.05914285
v -0.00548482 -0.02776163 -0.05869423
v -0.01075011 -0.02594514 -0.05884158
v -0.01096727 -0.02654620 -0.05834057
v -0.00821346 -0.02709746 -0.05868113
v 0.00000077 -0.02832949 -0.05866639
v 0.00000077 -0.02833945 -0.05865821
v 0.00000077 -0.02762547 -0.05913303
f 1 2 3
f 1 3 8
f 1 8 15
f 1 15 25
f 1 25 38
f 1 38 37
f 1 37 53
f 1 53 55
f 1 55 54
f 1 54 74
f 1 74 76
f 1 76 101
f 1 101 100
f 1 100 99
f 1 99 136
f 1 136 171
f 1 171 170
f 1 170 169
f 1 169 202
f 1 202 229
f 1 229 228
f 1 228 227
f 1 227 230
f 1 230 204
f 1 204 208
f 1 208 207
f 1 207 203
f 1 203 174
f 1 174 173
f 1 173 172
f 1 172 137
f 1 137 103
f 1 103 102
f 1 102 77
f 1 77 56
f 1 56 40
f 1 40 26
f 1 26 16
f 1 16 9
f 1 9 4
f 1 4 2
f 2 5 6
f 2 6 3
f 2 4 7
f 2 7 5
f 3 6 8
f 4 9 7
f 5 10 6
f 5 7 11
f 5 11 10
f 6 10 12
f 6 12 13
f 6 13 14
f 6 14 15
f 6 15 8
f 7 9 16
f 7 16 27
f 7 27 41
f 7 41 58
f 7 58 83
f 7 83 115
f 7 115 153
f 7 153 192
f 7 192 155
f 7 155 121
f 7 121 120
f 7 120 119
f 7 119 86
f 7 86 63
f 7 63 62
f 7 62 60
f 7 60 59
f 7 59 42
f 7 42 29
f 7 29 28
f 7 28 19
f 7 19 18
f 7 18 11
f 10 17 12
f 10 11 18
f 10 18 19
f 10 19 17
f 12 17 20
f 12 20 13
f 13 21 22
f 13 22 23
f 13 23 14
f 13 20 21
f 14 23 24
f 14 24 15
f 15 24 25
f 16 26 27
f 17 19 28
f 17 28 29
f 17 29 30
f 17 30 20
f 20 30 31
f 20 31 32
f 20 32 21
f 21 32 33
f 21 33 22
f 22 33 34
f 22 34 35
f 22 35 23
f 23 35 36
f 23 36 24
f 24 37 38
f 24 38 25
f 24 36 39
f 24 39 37
f 26 40 27
f 27 40 56
f 27 56 80
f 27 80 107
f 27 107 142
f 27 142 180
f 27 180 216
f 27 216 237
f 27 237 236
f 27 236 248
f 27 248 247
f 27 247 249
f 27 249 239
f 27 239 238
f 27 238 217
f 27 217 181
f 27 181 143
f 27 143 108
f 27 108 81
f 27 81 57
f 27 57 41
f 29 42 30
f 30 43 31
f 30 42 43
f 31 43 44
f 31 44 45
f 31 45 46
f 31 46 32
f 32 46 47
f 32 47 33
f 33 47 48
f 33 48 34
f 34 48 49
f 34 49 50
f 34 50 51
f 34 51 35
f 35 51 36
f 36 51 52
f 36 52 39
f 37 39 53
f 39 52 54
f 39 54 55
f 39 55 53
f 41 57 82
f 41 82 114
f 41 114 84
f 41 84 58
f 42 59 43
f 43 59 60
f 43 60 44
f 44 61 45
f 44 60 62
f 44 62 63
f 44 63 61
f 45 61 64
f 45 64 65
f 45 65 46
f 46 65 66
f 46 66 47
f 47 66 67
f 47 67 48
f 48 67 68
f 48 68 49
f 49 68 69
f 49 69 70
f 49 70 71
f 49 71 50
f 50 71 72
f 50 72 51
f 51 72 73
f 51 73 52
f 52 74 54
f 52 73 75
f 52 75 76
f 52 76 74
f 56 77 78
f 56 78 79
f 56 79 80
f 57 81 82
f 58 84 83
f 61 85 64
f 61 63 86
f 61 86 85
f 64 85 87
f 64 87 88
f 64 88 65
f 65 88 89
f 65 89 66
f 66 89 90
f 66 90 67
f 67 90 91
f 67 91 68
f 68 91 69
f 69 92 93
f 69 93 94
f 69 94 70
f 69 91 92
f 70 94 95
f 70 95 71
f 71 95 96
f 71 96 72
f 72 96 97
f 72 97 73
f 73 97 98
f 73 98 75
f 75 98 99
f 75 99 100
f 75 100 101
f 75 101 76
f 77 102 78
f 78 102 103
f 78 103 104
f 78 104 105
f 78 105 79
f 79 105 106
f 79 106 107
f 79 107 80
f 81 108 109
f 81 109 82
f 82 110 111
f 82 111 112
f 82 112 113
f 82 113 114
f 82 109 110
f 83 84 116
f 83 116 115
f 84 114 117
f 84 117 116
f 85 118 87
f 85 86 119
f 85 119 120
f 85 120 121
f 85 121 118
f 87 122 123
f 87 123 88
f 87 118 122
f 88 123 124
f 88 124 89
f 89 124 125
f 89 125 90
f 90 125 126
f 90 126 91
f 91 126 92
f 92 127 93
f 92 126 128
f 92 128 127
f 93 127 129
f 93 129 130
f 93 130 131
f 93 131 94
f 94 131 95
f 95 131 132
f 95 132 133
f 95 133 96
f 96 133 134
f 96 134 97
f 97 134 98
f 98 134 135
f 98 135 136
f 98 136 99
f 103 137 138
f 103 138 104
f 104 138 139
f 104 139 140
f 104 140 105
f 105 140 141
f 105 141 106
f 106 141 142
f 106 142 107
f 108 143 144
f 108 144 109
f 109 144 145
f 109 145 110
f 110 146 111
f 110 145 146
f 111 146 147
f 111 147 112
f 112 147 148
f 112 148 113
f 113 148 149
f 113 149 150
f 113 150 114
f 114 150 151
f 114 151 117
f 115 152 153
f 115 116 152
f 116 122 152
f 116 117 122
f 117 151 154
f 117 154 122
f 118 121 152
f 118 152 122
f 121 155 152
f 122 154 156
f 122 156 123
f 123 156 124
f 124 156 125
f 125 157 126
f 125 156 158
f 125 158 157
f 126 157 128
f 127 128 159
f 127 159 160
f 127 160 129
f 128 157 161
f 128 161 159
f 129 160 162
f 129 162 130
f 130 162 163
f 130 163 164
f 130 164 131
f 131 164 132
f 132 164 165
f 132 165 166
f 132 166 133
f 133 166 134
f 134 166 167
f 134 167 135
f 135 167 168
f 135 168 169
f 135 169 170
f 135 170 171
f 135 171 136
f 137 172 138
f 138 172 173
f 138 173 174
f 138 174 175
f 138 175 139
f 139 175 176
f 139 176 177
f 139 177 140
f 140 177 178
f 140 178 141
f 141 178 179
f 141 179 142
f 142 179 180
f 143 181 182
f 143 182 144
f 144 182 183
f 144 183 145
f 145 184 146
f 145 183 185
f 145 185 184
f 146 184 186
f 146 186 147
f 147 187 188
f 147 188 148
f 147 186 189
f 147 189 187
f 148 188 190
f 148 190 149
f 149 161 191
f 149 191 150
f 149 190 159
f 149 159 161
f 150 191 151
f 151 191 154
f 152 155 192
f 152 192 153
f 154 158 156
f 154 191 158
f 157 158 191
f 157 191 161
f 159 190 160
f 160 190 193
f 160 193 162
f 162 193 194
f 162 194 195
f 162 195 163
f 163 195 196
f 163 196 164
f 164 196 165
f 165 196 197
f 165 197 198
f 165 198 166
f 166 198 199
f 166 199 167
f 167 199 200
f 167 200 168
f 168 200 201
f 168 201 169
f 169 201 202
f 174 203 175
f 175 204 205
f 175 205 206
f 175 206 176
f 175 203 207
f 175 207 208
f 175 208 204
f 176 206 209
f 176 209 210
f 176 210 211
f 176 211 177
f 177 211 212
f 177 212 178
f 178 212 213
f 178 213 179
f 179 213 214
f 179 214 215
f 179 215 216
f 179 216 180
f 181 217 218
f 181 218 182
f 182 218 183
f 183 218 219
f 183 219 185
f 184 185 220
f 184 220 186
f 185 219 221
f 185 221 220
f 186 220 222
f 186 222 223
f 186 223 189
f 187 193 188
f 187 189 194
f 187 194 193
f 188 193 190
f 189 223 194
f 194 223 224
f 194 224 195
f 195 224 225
f 195 225 196
f 196 225 197
f 197 225 226
f 197 226 198
f 198 226 210
f 198 210 199
f 199 210 209
f 199 209 200
f 200 209 206
f 200 206 201
f 201 206 205
f 201 205 227
f 201 227 228
f 201 228 229
f 201 229 202
f 204 230 205
f 205 230 227
f 210 226 211
f 211 231 212
f 211 226 231
f 212 232 213
f 212 231 232
f 213 232 233
f 213 233 214
f 214 233 234
f 214 234 235
f 214 235 215
f 215 235 236
f 215 236 237
f 215 237 216
f 217 238 218
f 218 238 239
f 218 239 240
f 218 240 219
f 219 240 241
f 219 241 221
f 220 221 242
f 220 242 222
f 221 241 243
f 221 243 242
f 222 242 244
f 222 244 223
f 223 244 224
f 224 244 245
f 224 245 225
f 225 245 231
f 225 231 226
f 231 245 232
f 232 245 246
f 232 246 233
f 233 246 243
f 233 243 234
f 234 243 241
f 234 241 247
f 234 247 248
f 234 248 235
f 235 248 236
f 239 249 240
f 240 249 241
f 241 249 247
f 242 243 246
f 242 246 244
f 244 246 245

