# https://github.com/mikedh/trimesh
v -0.04259929 -0.00000722 0.04076262
v -0.03627536 -0.00000383 -0.01011018
v -0.03924436 -0.00000722 0.04076262
v -0.04501663 -0.00000722 0.05826945
v -0.03627536 0.00000295 -0.01011018
v -0.03168453 -0.00000383 -0.01011018
v -0.04179666 -0.00000722 0.05876376
v -0.04490535 -0.00000722 0.05893540
v -0.04501663 0.00000295 0.05826945
v -0.03619012 0.00174633 -0.01011018
v -0.04480118 0.00441566 0.05826945
v -0.02083133 0.02384040 -0.01011018
v -0.02873683 0.03030175 0.05876376
v -0.02873683 0.03076303 0.05937479
v -0.04213996 -0.00000722 0.05938165
v -0.02651363 0.02887380 0.04076262
v -0.04490535 0.00000295 0.05893540
v -0.04452180 -0.00000722 0.05952582
v -0.04452417 0.00000295 0.05952582
v -0.03608831 0.00356771 -0.01011018
v -0.04468753 0.00440209 0.05893540
v -0.04404354 0.00876393 0.05893540
v -0.04415245 0.00878428 0.05826945
v -0.03583498 0.00535179 -0.01011018
v -0.02728548 0.02384040 -0.01011018
v -0.02651363 0.02958269 0.01804493
v -0.02651363 0.03065110 0.02440917
v -0.02651363 0.03229951 0.03424046
v -0.02651363 0.03286932 0.03789974
v -0.02651363 0.03331026 0.04076262
v -0.02873683 0.03118361 0.05963567
v -0.02873683 0.03148887 0.05982104
v -0.04267979 -0.00000722 0.05982104
v -0.02873683 0.03235378 0.06002700
v -0.04430871 0.00436478 0.05952582
v -0.04396067 -0.00000722 0.05992402
v -0.04396067 0.00000295 0.05992402
v -0.04375232 0.00431052 0.05992402
v -0.04366709 0.00868931 0.05952582
v -0.04260402 0.01292564 0.05952582
v -0.04297100 0.01303757 0.05893540
v -0.04307755 0.01307488 0.05826945
v -0.03557690 0.00708160 -0.01011018
v -0.02812835 0.02811405 0.01804493
v -0.02734704 0.02882971 0.01804493
v -0.02803128 0.02301620 -0.01011018
v -0.03480032 0.02855837 0.05826945
v -0.03183605 0.03183144 0.05826945
v -0.02873683 0.03464323 0.05826945
v -0.02873683 0.03449060 0.05893540
v -0.02873683 0.03404967 0.05944344
v -0.02873683 0.03397504 0.05952582
v -0.02873683 0.03322207 0.05992402
v -0.04331904 -0.00000722 0.06002700
v -0.03063567 0.03063075 0.06002700
v -0.04331904 0.00000295 0.06002700
v -0.04311069 0.00424607 0.06002700
v -0.04248564 0.00845527 0.06002700
v -0.04311779 0.00857738 0.05992402
v -0.04206894 0.01276284 0.05992402
v -0.04113373 0.01704327 0.05952582
v -0.04148650 0.01718911 0.05893540
v -0.04159068 0.01723660 0.05826945
v -0.03469615 0.01055818 -0.01011018
v -0.03515310 0.00877071 -0.01011018
v -0.02912749 0.02155434 -0.01011018
v -0.03742839 0.02501056 0.05826945
v -0.03733842 0.02494273 0.05893540
v -0.03471509 0.02848036 0.05893540
v -0.03175792 0.03174664 0.05893540
v -0.03148802 0.03148209 0.05952582
v -0.03109025 0.03107846 0.05992402
v -0.03398586 0.02789019 0.05992402
v -0.03348866 0.02747978 0.06002700
v -0.04145335 0.01257629 0.06002700
v -0.04002094 0.01658877 0.06002700
v -0.04061522 0.01682619 0.05992402
v -0.03926567 0.02098791 0.05952582
v -0.03877083 0.02072335 0.05992402
v -0.03960187 0.02116767 0.05893540
v -0.03970131 0.02121516 0.05826945
v -0.03198522 0.01709754 -0.01011018
v -0.03350050 0.01389230 -0.01011018
v -0.03389115 0.01280693 -0.01011018
v -0.03016451 0.02015014 -0.01011018
v -0.03701879 0.02472905 0.05952582
v -0.03441914 0.02823954 0.05952582
v -0.03655473 0.02441700 0.05992402
v -0.03601965 0.02406086 0.06002700
v -0.03820497 0.02042148 0.06002700
f 1 2 6
f 1 6 3
f 1 3 7
f 1 7 15
f 1 15 33
f 1 33 54
f 1 54 36
f 1 36 18
f 1 18 8
f 1 8 4
f 1 4 2
f 2 5 10
f 2 10 20
f 2 20 24
f 2 24 43
f 2 43 65
f 2 65 64
f 2 64 84
f 2 84 83
f 2 83 82
f 2 82 85
f 2 85 66
f 2 66 46
f 2 46 25
f 2 25 12
f 2 12 6
f 2 4 9
f 2 9 5
f 3 6 7
f 4 8 17
f 4 17 9
f 5 9 11
f 5 11 10
f 6 12 7
f 7 13 14
f 7 14 15
f 7 12 16
f 7 16 13
f 8 18 19
f 8 19 17
f 9 17 11
f 10 11 20
f 11 17 21
f 11 21 22
f 11 22 23
f 11 23 24
f 11 24 20
f 12 25 26
f 12 26 27
f 12 27 28
f 12 28 29
f 12 29 30
f 12 30 16
f 13 16 14
f 14 31 15
f 14 16 31
f 15 31 32
f 15 32 33
f 16 30 34
f 16 34 32
f 16 32 31
f 17 19 35
f 17 35 21
f 18 36 19
f 19 36 37
f 19 37 38
f 19 38 35
f 21 35 22
f 22 35 39
f 22 39 40
f 22 40 41
f 22 41 42
f 22 42 23
f 23 42 43
f 23 43 24
f 25 44 45
f 25 45 26
f 25 46 47
f 25 47 48
f 25 48 44
f 26 45 49
f 26 49 27
f 27 49 28
f 28 49 29
f 29 49 30
f 30 49 50
f 30 50 51
f 30 51 52
f 30 52 53
f 30 53 34
f 32 34 33
f 33 34 54
f 34 53 55
f 34 55 74
f 34 74 89
f 34 89 90
f 34 90 76
f 34 76 75
f 34 75 58
f 34 58 57
f 34 57 56
f 34 56 54
f 35 38 39
f 36 54 56
f 36 56 37
f 37 56 38
f 38 56 57
f 38 57 58
f 38 58 59
f 38 59 39
f 39 59 60
f 39 60 40
f 40 60 61
f 40 61 41
f 41 62 63
f 41 63 42
f 41 61 62
f 42 63 64
f 42 64 65
f 42 65 43
f 44 48 45
f 45 48 49
f 46 66 47
f 47 67 68
f 47 68 69
f 47 69 70
f 47 70 48
f 47 66 67
f 48 70 50
f 48 50 49
f 50 70 71
f 50 71 51
f 51 71 52
f 52 71 53
f 53 71 72
f 53 72 55
f 55 72 73
f 55 73 74
f 58 75 59
f 59 75 60
f 60 75 76
f 60 76 77
f 60 77 61
f 61 78 62
f 61 77 79
f 61 79 78
f 62 80 63
f 62 78 80
f 63 80 81
f 63 81 82
f 63 82 83
f 63 83 84
f 63 84 64
f 66 85 67
f 67 81 80
f 67 80 68
f 67 85 81
f 68 80 78
f 68 78 86
f 68 86 87
f 68 87 69
f 69 87 71
f 69 71 70
f 71 87 73
f 71 73 72
f 73 87 86
f 73 86 88
f 73 88 89
f 73 89 74
f 76 90 79
f 76 79 77
f 78 79 88
f 78 88 86
f 79 90 88
f 81 85 82
f 88 90 89

