# https://github.com/mikedh/trimesh
v 0.00000250 0.04331951 0.06002700
v -0.00000373 0.04331951 0.06002700
v -0.02873155 0.03235806 0.06002700
v -0.02873155 0.03149367 0.05982104
v 0.00000250 0.04267691 0.05982104
v 0.00000250 0.04396210 0.05992402
v -0.00000373 0.04396210 0.05992402
v -0.00431306 0.04375067 0.05992402
v -0.00425083 0.04311014 0.06002700
v -0.02747764 0.03349193 0.06002700
v -0.02873155 0.03322660 0.05992402
v -0.03178075 0.02384263 0.01804493
v -0.02873155 0.03118895 0.05963567
v -0.02873155 0.03076608 0.05937479
v 0.00000250 0.04213589 0.05937479
v 0.00000250 0.04452178 0.05952582
v -0.00436595 0.04430828 0.05952582
v -0.00869084 0.04366775 0.05952582
v -0.00858194 0.04311636 0.05992402
v -0.00845437 0.04248620 0.06002700
v -0.02406129 0.03601878 0.06002700
v -0.02442222 0.03655152 0.05992402
v -0.02788524 0.03398942 0.05992402
v -0.02873155 0.03398113 0.05952582
v -0.03073842 0.02523975 0.01804493
v -0.03075086 0.02384263 0.01138546
v -0.02674646 0.02384263 0.01804493
v -0.02873155 0.02667419 0.04076262
v -0.02873155 0.03030797 0.05876376
v -0.02873155 0.03044064 0.05894913
v -0.02873155 0.03449314 0.05893540
v -0.02873155 0.03464239 0.05826945
v 0.00000250 0.04179800 0.05876376
v 0.00000250 0.04490320 0.05893540
v -0.00000373 0.04490527 0.05893540
v -0.00440640 0.04468761 0.05893540
v -0.01292860 0.04260436 0.05952582
v -0.01276370 0.04206955 0.05992402
v -0.00876551 0.04404087 0.05893540
v -0.01304061 0.04297126 0.05893540
v -0.01258012 0.04145390 0.06002700
v -0.02041470 0.03820361 0.06002700
v -0.02071962 0.03877158 0.05992402
v -0.02098409 0.03926493 0.05952582
v -0.02473025 0.03701792 0.05952582
v -0.02824305 0.03442059 0.05952582
v -0.02882178 0.02735203 0.01804493
v -0.02642287 0.02478994 -0.01011018
v -0.02903024 0.02384263 0.00031153
v -0.02985166 0.02384263 0.00559791
v -0.02082852 0.02384263 -0.01011018
v 0.00000250 0.03169266 -0.01011018
v 0.00000250 0.03170717 -0.01000720
v -0.02848263 0.03471287 0.05893540
v -0.02855420 0.03479785 0.05826945
v -0.02301274 0.02804438 -0.01011018
v -0.02430399 0.02687112 -0.01011018
v -0.02565123 0.02563568 -0.01011018
v -0.02812482 0.02811693 0.01804493
v 0.00000250 0.04501720 0.05826945
v -0.00000373 0.04501720 0.05826945
v -0.00441885 0.04479955 0.05826945
v -0.00878729 0.04415281 0.05826945
v -0.01703569 0.04113261 0.05952582
v -0.01682100 0.04061439 0.05992402
v -0.01307173 0.04307698 0.05826945
v -0.01718193 0.04148707 0.05893540
v -0.01657208 0.04002154 0.06002700
v -0.02116455 0.03960281 0.05893540
v -0.02494494 0.03733922 0.05893540
v -0.02728162 0.02384263 -0.01011018
v 0.00000250 0.03626753 -0.01011018
v -0.02500406 0.03742835 0.05826945
v -0.02160949 0.02908497 -0.01011018
v -0.00116429 0.03621571 -0.01011018
v -0.00355698 0.03610170 -0.01011018
v -0.00707912 0.03557933 -0.01011018
v -0.00877485 0.03515439 -0.01011018
v -0.01722237 0.04158864 0.05826945
v -0.01055769 0.03469835 -0.01011018
v -0.01220675 0.03410965 -0.01011018
v -0.02121745 0.03970231 0.05826945
v -0.02012534 0.03017323 -0.01011018
v -0.01281037 0.03389200 -0.01011018
v -0.01389314 0.03350022 -0.01011018
v -0.01492925 0.03301517 -0.01011018
v -0.01550487 0.03274362 -0.01011018
v -0.01708236 0.03199323 -0.01011018
v -0.01862252 0.03107494 -0.01011018
f 1 2 9
f 1 9 20
f 1 20 41
f 1 41 68
f 1 68 42
f 1 42 21
f 1 21 10
f 1 10 3
f 1 3 4
f 1 4 5
f 1 5 15
f 1 15 33
f 1 33 53
f 1 53 52
f 1 52 72
f 1 72 60
f 1 60 34
f 1 34 16
f 1 16 6
f 1 6 7
f 1 7 2
f 2 7 8
f 2 8 9
f 3 10 11
f 3 11 12
f 3 12 4
f 4 13 5
f 4 12 13
f 5 13 14
f 5 14 15
f 6 16 7
f 7 16 17
f 7 17 8
f 8 17 18
f 8 18 19
f 8 19 20
f 8 20 9
f 10 21 22
f 10 22 23
f 10 23 11
f 11 23 24
f 11 24 12
f 12 25 26
f 12 26 50
f 12 50 49
f 12 49 71
f 12 71 51
f 12 51 27
f 12 27 28
f 12 28 29
f 12 29 30
f 12 30 14
f 12 14 13
f 12 24 31
f 12 31 32
f 12 32 25
f 14 30 15
f 15 30 29
f 15 29 33
f 16 34 35
f 16 35 17
f 17 35 36
f 17 36 18
f 18 37 38
f 18 38 19
f 18 36 39
f 18 39 40
f 18 40 37
f 19 38 41
f 19 41 20
f 21 42 43
f 21 43 22
f 22 43 44
f 22 44 45
f 22 45 46
f 22 46 23
f 23 46 24
f 24 46 31
f 25 47 48
f 25 48 49
f 25 49 50
f 25 50 26
f 25 32 47
f 27 51 52
f 27 52 53
f 27 53 33
f 27 33 28
f 28 33 29
f 31 46 54
f 31 54 32
f 32 54 55
f 32 55 56
f 32 56 57
f 32 57 58
f 32 58 59
f 32 59 47
f 34 60 35
f 35 60 61
f 35 61 62
f 35 62 36
f 36 62 63
f 36 63 39
f 37 64 38
f 37 40 64
f 38 64 65
f 38 65 41
f 39 63 40
f 40 63 66
f 40 66 67
f 40 67 64
f 41 65 68
f 42 68 43
f 43 64 44
f 43 68 65
f 43 65 64
f 44 64 67
f 44 67 69
f 44 69 70
f 44 70 45
f 45 70 46
f 46 70 54
f 47 59 48
f 48 58 57
f 48 57 56
f 48 56 74
f 48 74 83
f 48 83 89
f 48 89 88
f 48 88 87
f 48 87 86
f 48 86 85
f 48 85 84
f 48 84 81
f 48 81 80
f 48 80 78
f 48 78 77
f 48 77 76
f 48 76 75
f 48 75 72
f 48 72 52
f 48 52 51
f 48 51 71
f 48 71 49
f 48 59 58
f 54 70 55
f 55 70 73
f 55 73 74
f 55 74 56
f 60 72 61
f 61 72 75
f 61 75 76
f 61 76 62
f 62 76 63
f 63 76 77
f 63 77 78
f 63 78 66
f 66 79 67
f 66 78 80
f 66 80 81
f 66 81 79
f 67 79 82
f 67 82 69
f 69 82 70
f 70 82 73
f 73 82 83
f 73 83 74
f 79 81 84
f 79 84 85
f 79 85 86
f 79 86 87
f 79 87 82
f 82 87 88
f 82 88 89
f 82 89 83

