# https://github.com/mikedh/trimesh
v 0.02873846 -0.03463880 0.05827200
v 0.03183580 -0.03183188 0.05827200
v 0.03175718 -0.03175391 0.05894194
v 0.02873846 -0.03448625 0.05894194
v 0.02633775 -0.03343874 0.04076310
v 0.02633775 -0.03284888 0.03696128
v 0.02633775 -0.03209630 0.03211140
v 0.02633775 -0.03173357 0.02992484
v 0.02633775 -0.02974365 0.01803852
v 0.02812777 -0.02812323 0.01803852
v 0.03480150 -0.02855715 0.05827200
v 0.03471557 -0.02848596 0.05894194
v 0.03441936 -0.02824527 0.05952968
v 0.03148658 -0.03148271 0.05952968
v 0.02873846 -0.03404555 0.05944748
v 0.02633775 -0.02903175 0.04076310
v 0.02873846 -0.03397097 0.05952968
v 0.02873846 -0.03384215 0.05959955
v 0.02873846 -0.03321500 0.05992836
v 0.02873846 -0.03235055 0.06002700
v 0.02633775 -0.02428576 0.01803852
v 0.03074058 -0.02523496 0.01803852
v 0.03743077 -0.02500783 0.05827200
v 0.03733752 -0.02494681 0.05894194
v 0.03137870 -0.02438407 0.01803852
v 0.03307547 -0.02209583 0.01803852
v 0.03702120 -0.02473663 0.05952968
v 0.03398785 -0.02788932 0.05992836
v 0.03108981 -0.03108609 0.05992836
v 0.03587113 -0.00000664 0.01803852
v 0.02873846 -0.03148611 0.05982150
v 0.02873846 -0.03075726 0.05937761
v 0.02873846 -0.03029622 0.05876932
v 0.04179886 -0.00001003 0.05876932
v 0.03063454 -0.03063183 0.06002700
v 0.04332011 -0.00001003 0.06002700
v 0.04268016 -0.00001003 0.05982150
v 0.03970349 -0.02122121 0.05827200
v 0.03960476 -0.02116697 0.05894194
v 0.03507394 -0.01874312 0.01803852
v 0.03926650 -0.02098730 0.05952968
v 0.03877283 -0.02072288 0.05992836
v 0.03655496 -0.02442475 0.05992836
v 0.03602106 -0.02406541 0.06002700
v 0.03348870 -0.02748252 0.06002700
v 0.03592415 -0.00000664 0.01839609
v 0.03976749 -0.00000664 0.01803852
v 0.04213712 -0.00001003 0.05937761
v 0.03924822 -0.00000664 0.04076310
v 0.04396188 -0.00001003 0.05992836
v 0.04259788 -0.00000664 0.04076310
v 0.04311167 -0.00425091 0.06002700
v 0.04375161 -0.00431532 0.05992836
v 0.04159042 -0.01723119 0.05827200
v 0.04148803 -0.01719051 0.05894194
v 0.03674145 -0.01522431 0.01803852
v 0.04113332 -0.01704474 0.05952968
v 0.04061770 -0.01683117 0.05992836
v 0.03820419 -0.02042117 0.06002700
v 0.03971995 -0.00103719 0.01803852
v 0.04501688 -0.00001003 0.05827200
v 0.04452321 -0.00001003 0.05952968
v 0.04490535 -0.00001003 0.05894194
v 0.04248635 -0.00845789 0.06002700
v 0.04311715 -0.00858332 0.05992836
v 0.04366751 -0.00869180 0.05952968
v 0.04430928 -0.00436956 0.05952968
v 0.04308058 -0.01307167 0.05827200
v 0.03709617 -0.01423443 0.01803852
v 0.04297271 -0.01304116 0.05894194
v 0.04260702 -0.01292929 0.05952968
v 0.04207130 -0.01276657 0.05992836
v 0.04002164 -0.01658370 0.06002700
v 0.03958099 -0.00388479 0.01803852
v 0.04469142 -0.00440685 0.05894194
v 0.04480113 -0.00441702 0.05827200
v 0.04145329 -0.01258012 0.06002700
v 0.04404416 -0.00876638 0.05894194
v 0.04415204 -0.00878672 0.05827200
v 0.03805792 -0.01154617 0.01803852
v 0.03901052 -0.00776294 0.01803852
v 0.03942740 -0.00494586 0.01803852
f 1 2 3
f 1 3 4
f 1 4 5
f 1 5 6
f 1 6 7
f 1 7 8
f 1 8 9
f 1 9 10
f 1 10 2
f 2 11 3
f 2 10 11
f 3 12 13
f 3 13 14
f 3 14 15
f 3 15 4
f 3 11 12
f 4 15 5
f 5 16 21
f 5 21 9
f 5 9 8
f 5 8 7
f 5 7 6
f 5 15 17
f 5 17 18
f 5 18 19
f 5 19 20
f 5 20 16
f 9 21 30
f 9 30 47
f 9 47 60
f 9 60 74
f 9 74 82
f 9 82 81
f 9 81 80
f 9 80 69
f 9 69 56
f 9 56 40
f 9 40 26
f 9 26 25
f 9 25 22
f 9 22 10
f 10 22 11
f 11 23 24
f 11 24 12
f 11 22 25
f 11 25 26
f 11 26 23
f 12 24 27
f 12 27 13
f 13 27 28
f 13 28 14
f 14 28 29
f 14 29 18
f 14 18 17
f 14 17 15
f 16 30 21
f 16 20 31
f 16 31 32
f 16 32 33
f 16 33 34
f 16 34 30
f 18 29 19
f 19 29 20
f 20 35 45
f 20 45 44
f 20 44 59
f 20 59 73
f 20 73 77
f 20 77 64
f 20 64 52
f 20 52 36
f 20 36 37
f 20 37 31
f 20 29 35
f 23 38 24
f 23 26 38
f 24 38 39
f 24 39 27
f 26 40 38
f 27 41 42
f 27 42 43
f 27 43 28
f 27 39 41
f 28 43 44
f 28 44 45
f 28 45 35
f 28 35 29
f 30 34 46
f 30 46 49
f 30 49 51
f 30 51 47
f 31 37 48
f 31 48 32
f 32 48 34
f 32 34 33
f 34 48 49
f 34 49 46
f 36 50 51
f 36 51 49
f 36 49 37
f 36 52 53
f 36 53 50
f 37 49 48
f 38 54 55
f 38 55 39
f 38 40 56
f 38 56 54
f 39 55 41
f 41 55 57
f 41 57 58
f 41 58 42
f 42 58 59
f 42 59 44
f 42 44 43
f 47 51 61
f 47 61 60
f 50 53 62
f 50 62 51
f 51 62 63
f 51 63 61
f 52 64 53
f 53 65 66
f 53 66 67
f 53 67 62
f 53 64 65
f 54 68 55
f 54 56 69
f 54 69 68
f 55 68 70
f 55 70 71
f 55 71 57
f 57 71 58
f 58 71 72
f 58 72 73
f 58 73 59
f 60 61 74
f 61 63 75
f 61 75 76
f 61 76 74
f 62 67 75
f 62 75 63
f 64 77 72
f 64 72 65
f 65 72 66
f 66 71 78
f 66 78 67
f 66 72 71
f 67 78 75
f 68 79 78
f 68 78 70
f 68 69 80
f 68 80 81
f 68 81 79
f 70 78 71
f 72 77 73
f 74 76 82
f 75 78 76
f 76 78 79
f 76 79 81
f 76 81 82

