# https://github.com/mikedh/trimesh
v 0.00000392 -0.03214733 -0.04323066
v 0.00000392 -0.03070584 -0.05481134
v 0.00300563 -0.03053902 -0.05495768
v 0.00252422 -0.03202144 -0.04323066
v 0.00000392 -0.02675902 -0.04323066
v 0.00000392 -0.03068695 -0.05495768
v 0.00627165 -0.03153045 -0.04323066
v 0.00432714 -0.03181686 -0.04323066
v 0.00315037 -0.03198996 -0.04323066
v 0.00000392 -0.03044775 -0.05577160
v 0.00298675 -0.03029982 -0.05577160
v 0.00598532 -0.03009839 -0.05495768
v 0.02677079 0.00000630 -0.04323066
v 0.00000392 0.00000630 -0.05170529
v 0.00888950 -0.02937764 -0.05492808
v 0.00741696 -0.03124404 -0.04323066
v 0.00000392 -0.03011098 -0.05654441
v 0.00005111 -0.03011098 -0.05655263
v 0.00296473 -0.03008580 -0.05629777
v 0.00592239 -0.02976792 -0.05603797
v 0.00883915 -0.02913529 -0.05577160
v 0.03214179 0.00000630 -0.04323066
v 0.00000392 0.00000630 -0.06002700
v 0.01167726 -0.02992528 -0.04323066
v 0.00959745 -0.03066807 -0.04323066
v 0.00931427 -0.03076878 -0.04323066
v 0.01170243 -0.02836733 -0.05495768
v 0.00000392 -0.03010469 -0.05655592
v 0.00000392 -0.02973329 -0.05714293
v 0.00000392 -0.02952242 -0.05747178
v 0.00289865 -0.02967035 -0.05706400
v 0.00577136 -0.02926433 -0.05704098
v 0.00879196 -0.02879852 -0.05655263
v 0.01157028 -0.02792985 -0.05629777
v 0.01165208 -0.02812813 -0.05577160
v 0.03071329 0.00000630 -0.05471103
v 0.03214493 -0.00000314 -0.04323066
v 0.02424733 0.00000630 -0.06002700
v 0.00000392 -0.00775514 -0.06002700
v 0.01226564 -0.02971441 -0.04323066
v 0.01443669 -0.02700137 -0.05522241
v 0.01449333 -0.02710838 -0.05465184
v 0.01336690 -0.02920139 -0.04323066
v 0.00287663 -0.02917935 -0.05771349
v 0.00000392 -0.02894330 -0.05812457
v 0.00572102 -0.02875761 -0.05771349
v 0.00861261 -0.02838622 -0.05727118
v 0.01138778 -0.02754901 -0.05706236
v 0.01422588 -0.02655444 -0.05652468
v 0.01435489 -0.02685029 -0.05577160
v 0.03068498 -0.00000314 -0.05495768
v 0.03068183 0.00000630 -0.05495768
v 0.03208200 -0.00131875 -0.04323066
v 0.03054339 -0.00296483 -0.05495768
v 0.02464693 0.00000630 -0.06001384
v 0.02490494 -0.00122432 -0.06000069
v 0.02341352 -0.00679204 -0.06002700
v 0.00822874 -0.02299475 -0.06002700
v 0.00000392 -0.02442681 -0.06002042
v 0.01691295 -0.02531437 -0.05577160
v 0.01704510 -0.02551580 -0.05495768
v 0.01785689 -0.02673069 -0.04323066
v 0.01516038 -0.02836104 -0.04323066
v 0.01475763 -0.02855303 -0.04323066
v 0.00288292 -0.02860024 -0.05832188
v 0.00000392 -0.02893071 -0.05813608
v 0.00561089 -0.02819108 -0.05831859
v 0.00846473 -0.02788578 -0.05792725
v 0.01115809 -0.02692268 -0.05792725
v 0.01393955 -0.02601939 -0.05748329
v 0.01673046 -0.02503426 -0.05655263
v 0.03044584 -0.00000314 -0.05577160
v 0.03044584 0.00000630 -0.05576995
v 0.03202536 -0.00248642 -0.04323066
v 0.03021301 -0.00300259 -0.05601002
v 0.03199390 -0.00311275 -0.04323066
v 0.03160689 -0.00583209 -0.04323066
v 0.03014693 -0.00599890 -0.05465184
v 0.02995500 -0.00596113 -0.05549865
v 0.02483572 0.00000630 -0.06000069
v 0.02521959 0.00000630 -0.05995629
v 0.02542725 0.00000630 -0.05992012
v 0.02518812 -0.00388701 -0.05992670
v 0.02416867 -0.00605555 -0.06000069
v 0.02262376 -0.01046189 -0.06000069
v 0.02053137 -0.01372257 -0.06001878
v 0.01523589 -0.01903220 -0.06002700
v 0.01173704 -0.02195612 -0.06000069
v 0.00842068 -0.02344483 -0.06000069
v 0.00447817 -0.02430721 -0.06001878
v 0.00119327 -0.02488003 -0.06000069
v 0.00000392 -0.02477617 -0.06000562
v 0.01931370 -0.02353610 -0.05577160
v 0.01945214 -0.02374068 -0.05492808
v 0.01809917 -0.02655129 -0.04323066
v 0.00003853 -0.02833586 -0.05866224
v 0.00275392 -0.02794873 -0.05884147
v 0.00548189 -0.02754586 -0.05884147
v 0.00000392 -0.02833901 -0.05865896
v 0.00828223 -0.02730037 -0.05850111
v 0.01084345 -0.02615472 -0.05868198
v 0.01354625 -0.02535214 -0.05832188
v 0.01596587 -0.02390435 -0.05832188
v 0.01643469 -0.02450235 -0.05749974
v 0.01908715 -0.02325599 -0.05659538
v 0.03035145 0.00000630 -0.05599193
v 0.02982285 -0.00293965 -0.05679927
v 0.03009344 0.00000630 -0.05657894
v 0.02964979 -0.00589818 -0.05629777
v 0.03154081 -0.00627587 -0.04323066
v 0.03087691 -0.00889134 -0.04323066
v 0.02937290 -0.00891337 -0.05490671
v 0.02913692 -0.00884098 -0.05577160
v 0.02569470 0.00000630 -0.05986257
v 0.02618240 -0.00262176 -0.05972281
v 0.02554052 -0.00508301 -0.05979680
v 0.02492067 -0.00756000 -0.05979680
v 0.02393583 -0.00880322 -0.05992341
v 0.02186547 -0.01310883 -0.05992341
v 0.01992411 -0.01627824 -0.05987737
v 0.01833515 -0.01688884 -0.05999905
v 0.01486461 -0.01998901 -0.06000069
v 0.01330397 -0.02176098 -0.05992341
v 0.00859688 -0.02402395 -0.05992341
v 0.00374190 -0.02521680 -0.05992341
v 0.00000392 -0.02547804 -0.05992176
v 0.02128337 -0.02131720 -0.05652468
v 0.02152880 -0.02152807 -0.05577160
v 0.02164836 -0.02165082 -0.05522241
v 0.02173332 -0.02173580 -0.05465184
v 0.02228395 -0.02315212 -0.04323066
v 0.02037720 -0.02486430 -0.04323066
v 0.00000392 -0.02832956 -0.05866553
v 0.00000392 -0.02761196 -0.05914237
v 0.00277279 -0.02722483 -0.05928543
v 0.00542840 -0.02682197 -0.05928543
v 0.00808715 -0.02665201 -0.05900097
v 0.01052880 -0.02528605 -0.05927063
v 0.01306484 -0.02459992 -0.05900261
v 0.01541209 -0.02320248 -0.05900261
v 0.01792296 -0.02188687 -0.05869677
v 0.01836032 -0.02237157 -0.05812457
v 0.01871587 -0.02280591 -0.05749645
v 0.02097502 -0.02097413 -0.05727118
v 0.02934459 -0.00286726 -0.05752111
v 0.02950191 -0.00000314 -0.05749974
v 0.02971587 0.00000630 -0.05716924
v 0.02923446 -0.00584153 -0.05706236
v 0.02881913 -0.00877174 -0.05652468
v 0.03076364 -0.00933512 -0.04323066
v 0.03055282 -0.00992368 -0.04323066
v 0.02835031 -0.01174602 -0.05495768
v 0.02801993 -0.01166104 -0.05603797
v 0.02633343 0.00000630 -0.05971623
v 0.02697845 -0.00265953 -0.05940381
v 0.02629882 -0.00527500 -0.05953536
v 0.02634602 0.00000630 -0.05971129
v 0.02573875 -0.00774570 -0.05951234
v 0.02429453 -0.01010938 -0.05972281
v 0.02296673 -0.01227792 -0.05979680
v 0.02184030 -0.01459440 -0.05973596
v 0.02055025 -0.01686680 -0.05962251
v 0.01841381 -0.01841217 -0.05979680
v 0.01729053 -0.01874579 -0.05992176
v 0.01651965 -0.02013064 -0.05979680
v 0.01447131 -0.02165397 -0.05979680
v 0.01235060 -0.02320563 -0.05972938
v 0.01003795 -0.02434813 -0.05971623
v 0.00757113 -0.02523254 -0.05971129
v 0.00509802 -0.02581795 -0.05972281
v 0.00248961 -0.02617676 -0.05972774
v 0.00000392 -0.02604142 -0.05979680
v 0.02308944 -0.01888113 -0.05704098
v 0.02336633 -0.01917698 -0.05629777
v 0.02353623 -0.01931547 -0.05577160
v 0.02370929 -0.01948857 -0.05492808
v 0.02483572 -0.02041075 -0.04323066
v 0.02273704 -0.02273981 -0.04323066
v 0.00000392 -0.02682826 -0.05953207
v 0.00000392 -0.02681252 -0.05953865
v 0.00787005 -0.02594385 -0.05940381
v 0.01278166 -0.02391064 -0.05940381
v 0.01500935 -0.02226456 -0.05952549
v 0.01751392 -0.02134238 -0.05914237
v 0.01964093 -0.01974980 -0.05900261
v 0.02032685 -0.02028801 -0.05833996
v 0.02073275 -0.02073493 -0.05771349
v 0.02858315 -0.00568102 -0.05792725
v 0.02860517 -0.00282319 -0.05832188
v 0.02876564 -0.00003462 -0.05830050
v 0.02950191 0.00000630 -0.05749974
v 0.02838807 -0.00861437 -0.05727118
v 0.02768641 -0.01146905 -0.05679927
v 0.02980082 -0.01201984 -0.04323066
v 0.02969699 -0.01230625 -0.04323066
v 0.02950191 -0.01272170 -0.04323066
v 0.02847931 -0.01488396 -0.04323066
v 0.02706026 -0.01447165 -0.05495768
v 0.02685260 -0.01435520 -0.05577160
v 0.02653166 -0.01424189 -0.05655263
v 0.02773990 -0.00277598 -0.05898453
v 0.02707914 -0.00538831 -0.05914237
v 0.02738435 0.00000630 -0.05927227
v 0.02642153 -0.00801637 -0.05914237
v 0.02526993 -0.01043041 -0.05929694
v 0.02373132 -0.01256119 -0.05952549
v 0.02271501 -0.01517981 -0.05930680
v 0.02120471 -0.01733576 -0.05927063
v 0.01900220 -0.01896925 -0.05952549
v 0.01709859 -0.02073808 -0.05951234
v 0.02248847 -0.01853177 -0.05792561
v 0.02419699 -0.01623733 -0.05792561
v 0.02482943 -0.01652689 -0.05704098
v 0.02521329 -0.01687310 -0.05606428
v 0.02545872 -0.01700844 -0.05522241
v 0.02555626 -0.01707768 -0.05465184
v 0.02502136 -0.02016526 -0.04323066
v 0.02189064 -0.01795580 -0.05868198
v 0.02777136 -0.00551735 -0.05868198
v 0.02788778 -0.00845700 -0.05792725
v 0.02712634 -0.00819262 -0.05866224
v 0.02808601 0.00000630 -0.05883983
v 0.02876249 0.00000630 -0.05830215
v 0.02723017 -0.01130853 -0.05752111
v 0.02604710 -0.01389568 -0.05747507
v 0.02834716 -0.01515778 -0.04323066
v 0.02811432 -0.01555120 -0.04323066
v 0.02799791 0.00000630 -0.05889573
v 0.02594642 -0.01074830 -0.05884147
v 0.02435117 -0.01301756 -0.05914237
v 0.02354882 -0.01569283 -0.05869349
v 0.02552479 -0.01364703 -0.05812457
v 0.02673932 -0.01786452 -0.04323066
v 0.02637119 -0.01835866 -0.04323066
v 0.02657886 -0.01094343 -0.05832188
v 0.02500878 -0.01332600 -0.05866224
f 1 2 3
f 1 3 4
f 1 4 9
f 1 9 8
f 1 8 7
f 1 7 16
f 1 16 26
f 1 26 25
f 1 25 24
f 1 24 40
f 1 40 43
f 1 43 64
f 1 64 63
f 1 63 62
f 1 62 95
f 1 95 132
f 1 132 131
f 1 131 178
f 1 178 177
f 1 177 217
f 1 217 234
f 1 234 233
f 1 233 227
f 1 227 226
f 1 226 197
f 1 197 196
f 1 196 195
f 1 195 194
f 1 194 151
f 1 151 150
f 1 150 111
f 1 111 110
f 1 110 77
f 1 77 76
f 1 76 74
f 1 74 53
f 1 53 37
f 1 37 22
f 1 22 13
f 1 13 5
f 1 5 14
f 1 14 23
f 1 23 39
f 1 39 59
f 1 59 92
f 1 92 126
f 1 126 172
f 1 172 180
f 1 180 179
f 1 179 134
f 1 134 133
f 1 133 99
f 1 99 66
f 1 66 45
f 1 45 30
f 1 30 29
f 1 29 28
f 1 28 17
f 1 17 10
f 1 10 6
f 1 6 2
f 2 6 3
f 3 7 8
f 3 8 9
f 3 9 4
f 3 6 10
f 3 10 11
f 3 11 12
f 3 12 7
f 5 13 14
f 7 12 15
f 7 15 16
f 10 17 18
f 10 18 19
f 10 19 11
f 11 19 20
f 11 20 12
f 12 20 21
f 12 21 15
f 13 22 36
f 13 36 52
f 13 52 73
f 13 73 106
f 13 106 108
f 13 108 147
f 13 147 191
f 13 191 223
f 13 223 222
f 13 222 228
f 13 228 203
f 13 203 157
f 13 157 154
f 13 154 114
f 13 114 82
f 13 82 81
f 13 81 80
f 13 80 55
f 13 55 38
f 13 38 23
f 13 23 14
f 15 24 25
f 15 25 26
f 15 26 16
f 15 21 27
f 15 27 24
f 17 28 18
f 18 28 29
f 18 29 30
f 18 30 31
f 18 31 19
f 19 31 32
f 19 32 20
f 20 32 33
f 20 33 21
f 21 33 34
f 21 34 35
f 21 35 27
f 22 37 36
f 23 38 57
f 23 57 87
f 23 87 58
f 23 58 39
f 24 27 40
f 27 35 41
f 27 41 42
f 27 42 43
f 27 43 40
f 30 44 31
f 30 45 44
f 31 44 32
f 32 44 46
f 32 46 47
f 32 47 33
f 33 47 48
f 33 48 34
f 34 48 49
f 34 49 50
f 34 50 35
f 35 50 41
f 36 37 51
f 36 51 52
f 37 53 54
f 37 54 51
f 38 55 56
f 38 56 57
f 39 58 59
f 41 50 60
f 41 60 61
f 41 61 42
f 42 61 62
f 42 62 63
f 42 63 64
f 42 64 43
f 44 45 65
f 44 65 46
f 45 66 65
f 46 65 67
f 46 67 68
f 46 68 47
f 47 68 69
f 47 69 48
f 48 69 70
f 48 70 49
f 49 70 71
f 49 71 60
f 49 60 50
f 51 72 73
f 51 73 52
f 51 54 72
f 53 74 54
f 54 75 72
f 54 74 76
f 54 76 77
f 54 77 78
f 54 78 79
f 54 79 75
f 55 80 56
f 56 80 81
f 56 81 82
f 56 82 83
f 56 83 84
f 56 84 57
f 57 84 85
f 57 85 86
f 57 86 87
f 58 87 88
f 58 88 89
f 58 89 90
f 58 90 59
f 59 90 91
f 59 91 92
f 60 71 93
f 60 93 61
f 61 93 94
f 61 94 62
f 62 94 95
f 65 66 96
f 65 96 97
f 65 97 98
f 65 98 67
f 66 99 96
f 67 98 100
f 67 100 68
f 68 100 69
f 69 100 101
f 69 101 102
f 69 102 70
f 70 102 103
f 70 103 104
f 70 104 71
f 71 104 105
f 71 105 93
f 72 106 73
f 72 75 106
f 75 107 108
f 75 108 106
f 75 79 109
f 75 109 107
f 77 110 78
f 78 110 111
f 78 111 112
f 78 112 79
f 79 112 113
f 79 113 109
f 82 114 83
f 83 114 115
f 83 115 116
f 83 116 117
f 83 117 118
f 83 118 84
f 84 118 85
f 85 118 119
f 85 119 86
f 86 119 120
f 86 120 121
f 86 121 87
f 87 121 122
f 87 122 88
f 88 123 124
f 88 124 89
f 88 122 123
f 89 124 90
f 90 124 125
f 90 125 91
f 91 125 126
f 91 126 92
f 93 105 127
f 93 127 128
f 93 128 129
f 93 129 94
f 94 129 130
f 94 130 131
f 94 131 132
f 94 132 95
f 96 133 134
f 96 134 97
f 96 99 133
f 97 134 135
f 97 135 98
f 98 135 136
f 98 136 137
f 98 137 100
f 100 137 101
f 101 138 139
f 101 139 102
f 101 137 138
f 102 139 140
f 102 140 103
f 103 140 141
f 103 141 142
f 103 142 104
f 104 142 143
f 104 143 105
f 105 143 144
f 105 144 127
f 107 145 146
f 107 146 147
f 107 147 108
f 107 109 148
f 107 148 145
f 109 113 149
f 109 149 148
f 111 150 112
f 112 150 151
f 112 151 152
f 112 152 113
f 113 152 153
f 113 153 149
f 114 154 115
f 115 155 156
f 115 156 116
f 115 154 157
f 115 157 155
f 116 156 117
f 117 158 159
f 117 159 118
f 117 156 158
f 118 159 160
f 118 160 119
f 119 160 161
f 119 161 120
f 120 162 163
f 120 163 164
f 120 164 121
f 120 161 162
f 121 164 122
f 122 164 123
f 123 164 165
f 123 165 166
f 123 166 167
f 123 167 124
f 124 168 169
f 124 169 170
f 124 170 125
f 124 167 168
f 125 170 171
f 125 171 172
f 125 172 126
f 127 144 173
f 127 173 174
f 127 174 128
f 128 174 175
f 128 175 129
f 129 175 176
f 129 176 130
f 130 176 177
f 130 177 178
f 130 178 131
f 134 179 135
f 135 179 180
f 135 180 171
f 135 171 170
f 135 170 136
f 136 170 181
f 136 181 137
f 137 181 138
f 138 168 182
f 138 182 139
f 138 181 168
f 139 182 140
f 140 182 183
f 140 183 184
f 140 184 141
f 141 184 185
f 141 185 186
f 141 186 142
f 142 186 187
f 142 187 143
f 143 187 144
f 144 187 173
f 145 148 188
f 145 188 189
f 145 189 190
f 145 190 146
f 146 191 147
f 146 190 191
f 148 149 192
f 148 192 188
f 149 153 193
f 149 193 192
f 151 194 152
f 152 194 195
f 152 195 196
f 152 196 197
f 152 197 198
f 152 198 199
f 152 199 153
f 153 199 200
f 153 200 193
f 155 201 202
f 155 202 156
f 155 157 203
f 155 203 201
f 156 202 158
f 158 204 205
f 158 205 159
f 158 202 204
f 159 205 206
f 159 206 160
f 160 206 161
f 161 206 207
f 161 207 162
f 162 208 209
f 162 209 163
f 162 207 208
f 163 209 165
f 163 165 164
f 165 209 210
f 165 210 183
f 165 183 166
f 166 183 167
f 167 183 182
f 167 182 168
f 168 181 169
f 169 181 170
f 171 180 172
f 173 211 212
f 173 212 213
f 173 213 174
f 173 187 211
f 174 213 214
f 174 214 175
f 175 214 215
f 175 215 176
f 176 215 216
f 176 216 217
f 176 217 177
f 183 210 184
f 184 210 209
f 184 209 185
f 185 209 208
f 185 208 218
f 185 218 186
f 186 218 211
f 186 211 187
f 188 219 189
f 188 192 220
f 188 220 221
f 188 221 219
f 189 201 222
f 189 222 190
f 189 219 201
f 190 222 223
f 190 223 191
f 192 193 224
f 192 224 220
f 193 200 225
f 193 225 224
f 197 226 198
f 198 226 227
f 198 227 216
f 198 216 215
f 198 215 199
f 199 215 214
f 199 214 200
f 200 214 213
f 200 213 225
f 201 219 202
f 201 203 228
f 201 228 222
f 202 219 204
f 204 221 229
f 204 229 205
f 204 219 221
f 205 229 230
f 205 230 206
f 206 230 207
f 207 230 231
f 207 231 208
f 208 231 218
f 211 218 212
f 212 218 231
f 212 231 232
f 212 232 225
f 212 225 213
f 216 233 234
f 216 234 217
f 216 227 233
f 220 224 235
f 220 235 221
f 221 235 229
f 224 225 232
f 224 232 235
f 229 235 236
f 229 236 230
f 230 236 231
f 231 236 232
f 232 236 235

