# https://github.com/mikedh/trimesh
v 0.03177732 -0.02384788 0.01804134
v 0.02873528 -0.02667166 0.04076251
v 0.02873528 -0.03030560 0.05876359
v 0.02873528 -0.03076407 0.05937003
v 0.02873528 -0.03149086 0.05981475
v 0.02873528 -0.03235049 0.06002700
v 0.02873528 -0.03321795 0.05991582
v 0.02873528 -0.03397860 0.05952164
v 0.02873528 -0.03448657 0.05892530
v 0.02873528 -0.03463766 0.05826833
v 0.03137607 -0.02438971 0.01804134
v 0.02903388 -0.02384788 0.00037381
v 0.02111463 -0.01859105 -0.03382925
v 0.02673525 -0.02384788 0.01804134
v 0.00001010 -0.04179611 0.05876359
v 0.00001010 -0.04213476 0.05937003
v 0.00001010 -0.04267659 0.05981475
v 0.00001010 -0.04331742 0.06002700
v 0.02747865 -0.03349147 0.06002700
v 0.02788612 -0.03398902 0.05991582
v 0.02824382 -0.03442145 0.05952164
v 0.02848644 -0.03471060 0.05892530
v 0.02855487 -0.03479916 0.05826833
v 0.02111463 -0.02577555 -0.03382925
v 0.02564658 -0.02565572 -0.01010745
v 0.02812563 -0.02813045 0.01804134
v 0.03073842 -0.02524153 0.01804134
v 0.02727958 -0.02384788 -0.01010745
v 0.01939454 -0.01840609 -0.04322902
v 0.00000388 -0.02676023 -0.04322902
v 0.00000388 -0.02815649 -0.03382925
v 0.00000388 -0.03168102 -0.01010745
v 0.00000388 -0.03586460 0.01804134
v 0.00000699 -0.03924064 0.04076251
v 0.00425278 -0.04310902 0.06002700
v 0.00000699 -0.04259584 0.04076251
v 0.00001010 -0.04395824 0.05991582
v 0.00431499 -0.04374984 0.05991582
v 0.02406335 -0.03601569 0.06002700
v 0.02442106 -0.03655231 0.05991582
v 0.02473210 -0.03701600 0.05952164
v 0.02494673 -0.03733380 0.05892530
v 0.02500583 -0.03742758 0.05826833
v 0.01939454 -0.02559581 -0.04322902
v 0.00000388 -0.03214470 -0.04322902
v 0.00000388 -0.03976945 0.01804134
v 0.00845813 -0.04248643 0.06002700
v 0.00001010 -0.04501846 0.05826833
v 0.00001010 -0.04490645 0.05892530
v 0.00001010 -0.04452091 0.05952164
v 0.00858255 -0.04311684 0.05991582
v 0.00437098 -0.04430731 0.05952164
v 0.00869142 -0.04366648 0.05952164
v 0.02041789 -0.03820386 0.06002700
v 0.02071960 -0.03877174 0.05991582
v 0.02098399 -0.03926408 0.05952164
v 0.02116751 -0.03960013 0.05892530
v 0.02121727 -0.03969651 0.05826833
v 0.01515808 -0.02836229 -0.04322902
v 0.01785486 -0.02673158 -0.04322902
v 0.00030560 -0.03213168 -0.04322902
v 0.01258261 -0.04145226 0.06002700
v 0.00441764 -0.04479964 0.05826833
v 0.00440519 -0.04468763 0.05892530
v 0.01276924 -0.04206703 0.05991582
v 0.01293099 -0.04260365 0.05952164
v 0.00876607 -0.04404420 0.05892530
v 0.01657335 -0.04001953 0.06002700
v 0.01682218 -0.04061606 0.05991582
v 0.01703370 -0.04113185 0.05952164
v 0.01717989 -0.04148612 0.05892530
v 0.01722343 -0.04158772 0.05826833
v 0.01475683 -0.02855505 -0.04322902
v 0.00315167 -0.03198840 -0.04322902
v 0.00878784 -0.04414840 0.05826833
v 0.00432743 -0.03181648 -0.04322902
v 0.00627458 -0.03152993 -0.04322902
v 0.01304296 -0.04297095 0.05892530
v 0.01307407 -0.04307776 0.05826833
v 0.01226535 -0.02971427 -0.04322902
v 0.00887183 -0.03088129 -0.04322902
v 0.00931662 -0.03076928 -0.04322902
f 1 2 3
f 1 3 4
f 1 4 5
f 1 5 6
f 1 6 7
f 1 7 8
f 1 8 9
f 1 9 10
f 1 10 11
f 1 11 12
f 1 12 13
f 1 13 14
f 1 14 2
f 2 15 3
f 2 14 15
f 3 15 16
f 3 16 4
f 4 16 17
f 4 17 5
f 5 17 18
f 5 18 6
f 6 19 20
f 6 20 7
f 6 18 35
f 6 35 47
f 6 47 62
f 6 62 68
f 6 68 54
f 6 54 39
f 6 39 19
f 7 20 8
f 8 20 21
f 8 21 9
f 9 22 10
f 9 21 22
f 10 22 23
f 10 23 24
f 10 24 25
f 10 25 26
f 10 26 27
f 10 27 11
f 11 27 12
f 12 28 13
f 12 27 28
f 13 28 29
f 13 29 30
f 13 30 15
f 13 15 14
f 15 30 31
f 15 31 32
f 15 32 33
f 15 33 34
f 15 34 16
f 16 34 17
f 17 34 18
f 18 34 36
f 18 36 37
f 18 37 38
f 18 38 35
f 19 39 40
f 19 40 20
f 20 40 21
f 21 41 42
f 21 42 22
f 21 40 41
f 22 42 23
f 23 42 43
f 23 43 44
f 23 44 24
f 24 44 28
f 24 28 25
f 25 28 27
f 25 27 26
f 28 44 29
f 29 44 60
f 29 60 59
f 29 59 73
f 29 73 80
f 29 80 82
f 29 82 81
f 29 81 77
f 29 77 76
f 29 76 74
f 29 74 61
f 29 61 45
f 29 45 30
f 30 45 46
f 30 46 33
f 30 33 32
f 30 32 31
f 33 46 36
f 33 36 34
f 35 38 47
f 36 48 49
f 36 49 50
f 36 50 37
f 36 46 48
f 37 50 38
f 38 51 47
f 38 50 52
f 38 52 53
f 38 53 51
f 39 54 40
f 40 55 56
f 40 56 41
f 40 54 55
f 41 56 42
f 42 57 43
f 42 56 57
f 43 57 58
f 43 58 59
f 43 59 60
f 43 60 44
f 45 61 48
f 45 48 46
f 47 51 62
f 48 61 63
f 48 63 49
f 49 63 64
f 49 64 52
f 49 52 50
f 51 65 62
f 51 53 66
f 51 66 65
f 52 64 67
f 52 67 53
f 53 67 66
f 54 68 69
f 54 69 55
f 55 69 56
f 56 70 71
f 56 71 57
f 56 69 70
f 57 71 72
f 57 72 58
f 58 72 73
f 58 73 59
f 61 74 63
f 62 65 69
f 62 69 68
f 63 75 67
f 63 67 64
f 63 74 76
f 63 76 77
f 63 77 75
f 65 66 69
f 66 67 78
f 66 78 70
f 66 70 69
f 67 75 79
f 67 79 78
f 70 78 71
f 71 78 79
f 71 79 72
f 72 79 80
f 72 80 73
f 75 77 81
f 75 81 79
f 79 81 82
f 79 82 80

