# https://github.com/mikedh/trimesh
v 0.03676063 -0.02507389 0.00566619
v 0.03672260 -0.02507389 -0.00420941
v 0.03321593 -0.02507389 0.00566619
v 0.02980815 -0.02907057 0.04908964
v 0.03185814 -0.03009924 0.04526889
v 0.03247428 -0.02993206 0.03705290
v 0.03270628 -0.02977078 0.03452701
v 0.02980815 -0.03375959 0.04898934
v 0.03357344 -0.02920825 0.01853274
v 0.03166417 -0.03165307 0.01913457
v 0.03166417 -0.03164520 0.01748408
v 0.03163755 -0.03154489 -0.00222152
v 0.03648679 -0.02507389 -0.02429800
v 0.03102521 -0.02507389 -0.02429800
v 0.00010414 -0.03811818 -0.04258109
v -0.00209419 -0.04110389 0.01748408
v 0.00001286 -0.04167822 0.04908964
v 0.00001286 -0.04247284 0.05005623
v 0.00001286 -0.04251217 0.05010183
v 0.02980815 -0.03036281 0.05010183
v 0.02980815 -0.03195991 0.05057600
v 0.02980815 -0.03321674 0.05001064
v 0.02980815 -0.03361798 0.04926290
v 0.02478014 -0.03781135 0.04898934
v 0.03139413 -0.03138951 -0.02364145
v 0.03320072 -0.02914531 -0.02429800
v 0.03491982 -0.02699749 -0.02492719
v 0.03433411 -0.02716270 -0.04258109
v 0.02698227 -0.02716270 -0.04258109
v -0.00209419 -0.04105276 0.01159337
v 0.00010414 -0.04378080 -0.04258109
v -0.00209419 -0.04352905 0.01748408
v 0.00001286 -0.04375720 0.05057600
v 0.02400807 -0.03664106 0.05057600
v 0.02454434 -0.03745535 0.05001064
v 0.01678174 -0.04154644 0.05001064
v 0.01694528 -0.04193982 0.04898934
v 0.02415640 -0.03669220 -0.04258109
v 0.02545714 -0.03567926 -0.04258109
v 0.03137892 -0.03138558 -0.02429800
v 0.03091872 -0.03129510 -0.04258109
v -0.00209419 -0.04354085 0.01159337
v 0.00117287 -0.04369033 -0.04258109
v 0.00001286 -0.04516548 0.04898934
v 0.00001286 -0.04473867 0.05001064
v 0.00001286 -0.04469147 0.05003800
v 0.00836877 -0.04399716 0.05001064
v 0.00818621 -0.04303143 0.05057600
v 0.01641282 -0.04063381 0.05057600
v 0.00844864 -0.04441414 0.04898934
v 0.01647747 -0.04068692 -0.04258109
v 0.01785428 -0.03999261 -0.04258109
v 0.02737402 -0.03414313 -0.04258109
v 0.00819382 -0.04307077 -0.04258109
v 0.00960105 -0.04267739 -0.04258109
v 0.01205040 -0.04196932 -0.04258109
f 1 2 13
f 1 13 14
f 1 14 3
f 1 3 4
f 1 4 5
f 1 5 6
f 1 6 7
f 1 7 8
f 1 8 9
f 1 9 10
f 1 10 11
f 1 11 2
f 2 12 13
f 2 11 12
f 3 14 15
f 3 15 16
f 3 16 17
f 3 17 4
f 4 17 18
f 4 18 19
f 4 19 20
f 4 20 5
f 5 20 21
f 5 21 22
f 5 22 23
f 5 23 8
f 5 8 6
f 6 8 7
f 8 11 10
f 8 10 9
f 8 23 24
f 8 24 12
f 8 12 11
f 12 25 26
f 12 26 13
f 12 24 25
f 13 26 27
f 13 27 28
f 13 28 29
f 13 29 14
f 14 29 15
f 15 30 16
f 15 29 28
f 15 28 41
f 15 41 53
f 15 53 39
f 15 39 38
f 15 38 52
f 15 52 51
f 15 51 56
f 15 56 55
f 15 55 54
f 15 54 43
f 15 43 31
f 15 31 42
f 15 42 30
f 16 32 33
f 16 33 19
f 16 19 18
f 16 18 17
f 16 30 42
f 16 42 32
f 19 33 20
f 20 33 21
f 21 34 22
f 21 33 48
f 21 48 49
f 21 49 34
f 22 34 35
f 22 35 23
f 23 35 24
f 24 35 36
f 24 36 37
f 24 37 38
f 24 38 25
f 25 38 39
f 25 39 40
f 25 40 28
f 25 28 26
f 26 28 27
f 28 40 41
f 31 43 44
f 31 44 42
f 32 44 45
f 32 45 46
f 32 46 33
f 32 42 44
f 33 46 47
f 33 47 48
f 34 49 36
f 34 36 35
f 36 47 37
f 36 49 48
f 36 48 47
f 37 47 50
f 37 50 51
f 37 51 52
f 37 52 38
f 39 53 40
f 40 53 41
f 43 54 44
f 44 50 47
f 44 47 45
f 44 54 50
f 45 47 46
f 50 54 55
f 50 55 56
f 50 56 51

