# https://github.com/mikedh/trimesh
v -0.02982682 -0.03371071 0.04899657
v -0.02943719 -0.02991183 0.04789020
v -0.02982682 -0.03315622 0.05001137
v -0.03194444 -0.03138385 0.05001137
v -0.03224475 -0.03168420 0.04899657
v -0.03205378 -0.03103400 0.02615204
v -0.03042130 -0.03233770 0.02615204
v -0.02982682 -0.02915271 0.04909576
v -0.02982682 -0.03026168 0.05011056
v -0.02982682 -0.03187893 0.05057600
v -0.02982682 -0.03278657 0.05017542
v -0.03055990 -0.02903059 0.01749569
v -0.03445630 0.00000065 0.01160144
v -0.03124216 -0.03069735 0.05057600
v -0.03663860 -0.02401382 0.05057600
v -0.03746100 -0.02454851 0.05001137
v -0.03781522 -0.02477954 0.04899657
v -0.03484440 -0.02755197 0.01160144
v -0.03376327 -0.02903059 0.01749569
v -0.03147317 -0.02755197 0.01160144
v -0.04168081 0.00000725 0.04909576
v -0.04251708 0.00000725 0.05011056
v -0.04376300 0.00000725 0.05057600
v -0.03699127 0.00000065 0.01160144
v -0.04199653 0.00000725 0.04789020
v -0.04193339 0.00000725 0.04800847
v -0.04063818 -0.01642266 0.05057600
v -0.04154837 -0.01679232 0.05001137
v -0.04194263 -0.01694414 0.04899657
v -0.03733163 -0.02426136 0.01160144
v -0.04474249 0.00000725 0.05001137
v -0.04400017 -0.00836283 0.05001137
v -0.04303300 -0.00817800 0.05057600
v -0.03991588 -0.01608601 0.01160144
v -0.03976034 0.00000065 0.01749187
v -0.04517063 0.00000725 0.04899657
v -0.04473941 0.00000725 0.04808477
v -0.04460542 0.00000725 0.04789020
v -0.04441907 -0.00844204 0.04899657
v -0.03949390 -0.01764385 0.01160144
v -0.04302530 0.00000065 0.03187843
v -0.04300528 0.00000065 0.03174872
v -0.04293444 0.00000065 0.03130999
v -0.04146828 0.00000065 0.02329075
v -0.04083069 0.00000065 0.01980380
v -0.04054578 0.00000065 0.01916668
f 1 2 3
f 1 3 4
f 1 4 5
f 1 5 6
f 1 6 7
f 1 7 2
f 2 8 9
f 2 9 10
f 2 10 11
f 2 11 3
f 2 7 12
f 2 12 13
f 2 13 8
f 3 11 4
f 4 11 14
f 4 14 15
f 4 15 16
f 4 16 5
f 5 16 17
f 5 17 18
f 5 18 19
f 5 19 6
f 6 19 7
f 7 19 18
f 7 18 20
f 7 20 12
f 8 21 9
f 8 13 21
f 9 22 10
f 9 21 22
f 10 23 33
f 10 33 27
f 10 27 15
f 10 15 14
f 10 14 11
f 10 22 23
f 12 20 13
f 13 20 18
f 13 18 30
f 13 30 40
f 13 40 34
f 13 34 24
f 13 24 38
f 13 38 25
f 13 25 26
f 13 26 21
f 15 27 28
f 15 28 16
f 16 28 17
f 17 28 29
f 17 29 30
f 17 30 18
f 21 26 25
f 21 25 38
f 21 38 37
f 21 37 36
f 21 36 31
f 21 31 23
f 21 23 22
f 23 31 32
f 23 32 33
f 24 34 35
f 24 35 36
f 24 36 37
f 24 37 38
f 27 33 32
f 27 32 28
f 28 32 39
f 28 39 29
f 29 39 40
f 29 40 30
f 31 36 32
f 32 36 39
f 34 41 42
f 34 42 43
f 34 43 44
f 34 44 45
f 34 45 46
f 34 46 35
f 34 40 39
f 34 39 36
f 34 36 41
f 35 46 36
f 36 46 45
f 36 45 44
f 36 44 43
f 36 43 42
f 36 42 41

