# https://github.com/mikedh/trimesh
v 0.02699127 -0.02716098 -0.04258109
v 0.03433958 -0.02716098 -0.04258109
v 0.02765901 -0.02716098 -0.03770643
v 0.03322461 -0.02506914 0.00566949
v 0.02844705 -0.00309561 -0.00578028
v 0.02810161 -0.00024891 -0.00576611
v 0.02813554 -0.00000969 -0.00577084
v 0.02924588 -0.00000969 -0.01255378
v 0.03613001 -0.00000703 -0.04258109
v 0.03639526 -0.02469171 -0.04258109
v 0.03492713 -0.02699087 -0.02493408
v 0.03439972 -0.02716098 -0.04001150
v 0.03445061 -0.02716098 -0.03770643
v 0.02961291 -0.02699087 -0.02430113
v 0.03675920 -0.02506914 0.00566949
v 0.03173952 -0.00468508 0.00566949
v 0.02959286 -0.00026220 0.00157421
v 0.02985657 -0.00376808 0.00156476
v 0.02961599 -0.00000969 0.00157421
v 0.03502583 -0.00000703 -0.02430113
v 0.04273501 -0.00000703 -0.04258109
v 0.04021977 -0.01697027 -0.04258109
v 0.03649087 -0.02471032 -0.03770643
v 0.03493330 -0.02699087 -0.02430113
v 0.03672682 -0.02475284 -0.02559065
v 0.03648933 -0.02506914 -0.02427279
v 0.03672373 -0.02506914 -0.00421208
v 0.03689645 -0.02489106 0.00566949
v 0.03688720 -0.02485916 -0.00427348
v 0.03158377 -0.00027815 0.00566949
v 0.03160844 -0.00000969 0.00566949
v 0.03728970 -0.00000703 -0.02430113
v 0.04274580 -0.00037383 -0.04258109
v 0.04190533 -0.00000703 -0.03770643
v 0.03937005 -0.01714304 0.00566949
v 0.03673607 -0.02476082 -0.02430113
v 0.04206726 -0.00869598 -0.04258109
v 0.03832293 -0.02076853 0.00566949
v 0.03393554 -0.00000969 0.00566949
v 0.04058834 -0.00000703 -0.03106046
v 0.04263939 -0.00289360 -0.04258109
v 0.04087518 -0.00000703 -0.03167452
f 1 2 12
f 1 12 13
f 1 13 3
f 1 3 4
f 1 4 5
f 1 5 6
f 1 6 7
f 1 7 8
f 1 8 9
f 1 9 21
f 1 21 33
f 1 33 41
f 1 41 37
f 1 37 22
f 1 22 10
f 1 10 2
f 2 10 11
f 2 11 12
f 3 13 24
f 3 24 14
f 3 14 4
f 4 15 28
f 4 28 38
f 4 38 35
f 4 35 39
f 4 39 31
f 4 31 30
f 4 30 16
f 4 16 17
f 4 17 18
f 4 18 5
f 4 14 24
f 4 24 15
f 5 18 6
f 6 18 17
f 6 17 19
f 6 19 7
f 7 20 9
f 7 9 8
f 7 19 20
f 9 20 32
f 9 32 40
f 9 40 42
f 9 42 34
f 9 34 21
f 10 22 23
f 10 23 11
f 11 24 13
f 11 13 12
f 11 23 25
f 11 25 26
f 11 26 27
f 11 27 24
f 15 24 27
f 15 27 29
f 15 29 28
f 16 30 17
f 17 30 19
f 19 30 31
f 19 31 20
f 20 31 39
f 20 39 32
f 21 34 35
f 21 35 33
f 22 36 25
f 22 25 23
f 22 37 35
f 22 35 38
f 22 38 28
f 22 28 29
f 22 29 36
f 25 36 26
f 26 36 27
f 27 36 29
f 32 39 40
f 33 35 41
f 34 42 35
f 35 37 41
f 35 42 39
f 39 42 40

