# https://github.com/mikedh/trimesh
v -0.04361946 0.00036895 -0.04775203
v -0.04271410 0.00036037 -0.04241904
v -0.04260307 0.00296877 -0.04241904
v -0.04278243 0.00892348 -0.04775203
v -0.04356821 0.00036895 -0.05023999
v -0.04293617 -0.00817699 -0.04775203
v -0.04267994 -0.00213648 -0.04259495
v -0.04270556 -0.00000858 -0.04241904
v -0.01992641 0.03290532 -0.03981522
v -0.01992641 0.03892867 -0.03981522
v -0.04203935 0.00868323 -0.04241904
v -0.04266286 0.00887200 -0.05023999
v -0.04020301 0.01696319 -0.04241904
v -0.04035676 0.01714337 -0.04766566
v -0.03858874 0.00801397 -0.05049068
v -0.03940015 0.00032605 -0.05049068
v -0.03953681 -0.00000858 -0.05048120
v -0.04281660 -0.00812551 -0.05023999
v -0.04064715 -0.01643121 -0.04766566
v -0.04050195 -0.01625960 -0.04259495
v -0.04221018 -0.00795391 -0.04259495
v 0.03883644 0.01932276 -0.04074109
v 0.00015374 0.03839670 -0.03981522
v -0.03681219 -0.02404190 -0.04259495
v -0.03145691 -0.03073451 -0.04259495
v -0.02957787 -0.03230470 -0.04259495
v -0.02606747 -0.03522199 -0.04259495
v -0.02478631 -0.03626020 -0.04259495
v -0.01866233 -0.03960651 -0.04259495
v -0.01855130 -0.03966657 -0.04259495
v -0.01717618 -0.04038731 -0.04259495
v -0.01490424 -0.04109089 -0.04259495
v -0.01033475 -0.04249806 -0.04259495
v -0.00893400 -0.04291849 -0.04259495
v 0.00010249 -0.04377652 -0.04258442
v 0.00819093 -0.04306436 -0.04258442
v -0.01876482 0.03954645 -0.03981522
v -0.02415426 0.03668064 -0.04241904
v -0.02550376 0.03562527 -0.04241904
v -0.03091883 0.03128365 -0.04241904
v -0.03638514 0.02468543 -0.04241904
v -0.04013469 0.01704041 -0.05023999
v -0.03629118 0.02466827 -0.04740760
v -0.03629972 0.01539300 -0.05049068
v -0.01992641 0.00844298 -0.05052965
v 0.00000000 0.00000000 -0.05057600
v -0.03937453 -0.00000858 -0.05049068
v -0.03870832 -0.00736187 -0.05049068
v -0.03655596 -0.01477522 -0.05049068
v -0.04042508 -0.01632825 -0.05023999
v -0.03671824 -0.02402474 -0.04740760
v 0.04243224 0.00801397 -0.04420338
v 0.04055320 0.01630251 -0.04420338
v 0.03684636 0.02405907 -0.04074109
v 0.00015374 0.04379368 -0.03981522
v 0.00959167 -0.04267824 -0.04258442
v 0.01646726 -0.04067904 -0.04258442
v 0.01785092 -0.03998404 -0.04258442
v 0.02415426 -0.03668064 -0.04258442
v 0.02549522 -0.03564243 -0.04258442
v 0.03091028 -0.03127507 -0.04258442
v 0.03639368 -0.02468542 -0.04258442
v 0.04021156 -0.01695460 -0.04258442
v 0.04205644 -0.00869181 -0.04258442
v 0.04263723 -0.00289155 -0.04258442
v 0.04273972 -0.00036895 -0.04258442
v 0.04273972 -0.00025741 -0.04258442
v 0.04273118 0.00000000 -0.04258442
v -0.03134588 -0.03071735 -0.04712109
v -0.02471798 -0.03624304 -0.04695256
v -0.01715909 -0.04037873 -0.04686092
v -0.00893400 -0.04290991 -0.04680509
v -0.00037581 -0.04382800 -0.04678719
v -0.00198154 -0.04365639 -0.04259495
v -0.00037581 -0.04381941 -0.04259495
v -0.00016228 -0.04380226 -0.04259495
v 0.00010249 -0.04378510 -0.04534308
v 0.00818238 -0.04306436 -0.04680404
v -0.02408594 0.03666348 -0.04695256
v -0.01647581 0.04068763 -0.03981522
v -0.01645018 0.04066188 -0.04686092
v -0.03079925 0.03126649 -0.04712109
v -0.03602641 0.02451382 -0.05023999
v -0.03258434 0.02215425 -0.05049068
v -0.03053448 0.03106914 -0.05023999
v -0.01992641 0.01354824 -0.05052439
v 0.03937453 0.00000000 -0.05049068
v 0.03940015 -0.00032605 -0.05049068
v 0.03858874 -0.00802255 -0.05049068
v 0.03629972 -0.01538442 -0.05049068
v 0.03258434 -0.02215425 -0.05049068
v 0.02762196 -0.02809179 -0.05049068
v 0.02162610 -0.03294822 -0.05049068
v 0.01478466 -0.03655193 -0.05049068
v 0.00737098 -0.03871416 -0.05049068
v 0.00009395 -0.03936626 -0.05049068
v -0.00033310 -0.03940058 -0.05049068
v -0.00802010 -0.03858546 -0.05049068
v -0.01539108 -0.03630310 -0.05049068
v -0.02215564 -0.03258785 -0.05049068
v -0.02809172 -0.02761987 -0.05049068
v -0.03295161 -0.02161369 -0.05049068
v -0.02762196 0.02809179 -0.05049068
v -0.01992641 0.03036556 -0.05049806
v -0.01992641 0.03384915 -0.05049173
v -0.01478466 0.03654335 -0.05049173
v -0.00737098 0.03871416 -0.05049173
v 0.00015374 0.03938342 -0.05049173
v 0.00802010 0.03858546 -0.05049068
v 0.01539963 0.03630311 -0.05049068
v 0.01314477 0.01932276 -0.05052544
v 0.02809172 0.02761988 -0.05049068
v 0.03295161 0.02161369 -0.05049068
v 0.03416445 0.01932276 -0.05049068
v 0.03655596 0.01477522 -0.05049068
v 0.03871686 0.00736187 -0.05049068
v -0.03644492 -0.02387888 -0.05023999
v -0.03107257 -0.03053716 -0.05023999
v 0.04297034 0.00134710 -0.04420338
v 0.04348280 0.00000000 -0.04698732
v 0.04292763 0.00816841 -0.04775203
v 0.04064715 0.01642263 -0.04766461
v 0.03915246 0.01932276 -0.04756770
v 0.03671824 0.02403333 -0.04740654
v 0.03149962 0.03074310 -0.04074109
v 0.01718472 0.04039589 -0.04074109
v 0.01094971 0.04231787 -0.04074109
v 0.00894254 0.04291849 -0.04074109
v 0.00240859 0.04361350 -0.04074109
v 0.00038435 0.04381942 -0.04074109
v 0.00016228 0.04380226 -0.04074109
v -0.00195591 0.04361350 -0.03981522
v 0.02700700 0.03449267 -0.04074109
v 0.02663973 0.03479298 -0.04074109
v 0.02482047 0.03626021 -0.04074109
v 0.01914917 0.03936626 -0.04074109
v 0.01645018 -0.04066188 -0.04685986
v 0.02407739 -0.03666348 -0.04695150
v 0.03080779 -0.03124933 -0.04712109
v 0.03629972 -0.02466826 -0.04740760
v 0.04035676 -0.01712621 -0.04766355
v 0.04277389 -0.00893206 -0.04775309
v 0.04361946 -0.00037753 -0.04775309
v -0.02451299 -0.03601996 -0.05023999
v -0.01703952 -0.04012990 -0.05023999
v -0.00888276 -0.04266108 -0.05023999
v -0.00037581 -0.04357059 -0.05023999
v 0.00813114 -0.04280695 -0.05023999
v -0.01633061 0.04042163 -0.05023999
v -0.02388095 0.03644039 -0.05023999
v -0.01051411 0.04241226 -0.03981522
v -0.00818238 0.04305578 -0.04680509
v -0.00813114 0.04280695 -0.05023999
v -0.02161756 0.03295680 -0.05049068
v 0.04356821 -0.00037753 -0.05023999
v 0.04266286 -0.00888057 -0.05023999
v 0.04012614 -0.01703183 -0.05023999
v 0.03601787 -0.02451382 -0.05023999
v 0.03053448 -0.03106914 -0.05023999
v 0.02388095 -0.03644039 -0.05023999
v 0.01633915 -0.04042163 -0.05023999
v 0.00015374 0.04354485 -0.05023999
v 0.00038435 0.04357059 -0.05023894
v 0.00033310 0.03940058 -0.05049068
v 0.00888276 0.04266109 -0.05023894
v 0.01703952 0.04012991 -0.05023894
v 0.02452153 0.03601996 -0.05023894
v 0.02215564 0.03258785 -0.05049068
v 0.03107257 0.03053717 -0.05023894
v 0.03644492 0.02388746 -0.05023894
v 0.04042508 0.01632825 -0.05023894
v 0.04280806 0.00812551 -0.05023894
v 0.04353405 0.00000000 -0.05023999
v 0.03133734 0.03071735 -0.04712109
v 0.01715055 0.04037874 -0.04686092
v 0.00893400 0.04291849 -0.04680509
v 0.00038435 0.04382800 -0.04678824
v -0.00819093 0.04306436 -0.03981522
v 0.02471798 0.03624305 -0.04695256
v 0.00016228 0.04355343 -0.05023894
f 1 2 3
f 1 3 4
f 1 4 5
f 1 5 6
f 1 6 7
f 1 7 8
f 1 8 2
f 2 9 10
f 2 10 3
f 2 8 9
f 3 11 4
f 3 10 11
f 4 12 5
f 4 11 13
f 4 13 14
f 4 14 12
f 5 15 16
f 5 16 17
f 5 17 18
f 5 18 6
f 5 12 15
f 6 18 19
f 6 19 20
f 6 20 21
f 6 21 7
f 7 21 8
f 8 21 20
f 8 20 9
f 9 22 23
f 9 23 55
f 9 55 132
f 9 132 178
f 9 178 151
f 9 151 80
f 9 80 37
f 9 37 10
f 9 20 24
f 9 24 25
f 9 25 26
f 9 26 27
f 9 27 28
f 9 28 29
f 9 29 30
f 9 30 31
f 9 31 32
f 9 32 33
f 9 33 34
f 9 34 35
f 9 35 36
f 9 36 22
f 10 37 38
f 10 38 39
f 10 39 40
f 10 40 41
f 10 41 13
f 10 13 11
f 12 14 42
f 12 42 15
f 13 41 14
f 14 41 43
f 14 43 42
f 15 42 44
f 15 44 45
f 15 45 46
f 15 46 16
f 16 46 47
f 16 47 17
f 17 47 48
f 17 48 18
f 18 48 49
f 18 49 50
f 18 50 19
f 19 50 51
f 19 51 24
f 19 24 20
f 22 52 53
f 22 53 54
f 22 54 55
f 22 55 23
f 22 36 56
f 22 56 57
f 22 57 58
f 22 58 59
f 22 59 60
f 22 60 61
f 22 61 62
f 22 62 63
f 22 63 64
f 22 64 65
f 22 65 66
f 22 66 67
f 22 67 68
f 22 68 52
f 24 51 25
f 25 51 69
f 25 69 26
f 26 69 70
f 26 70 27
f 27 70 28
f 28 70 71
f 28 71 29
f 29 71 30
f 30 71 31
f 31 71 32
f 32 71 33
f 33 71 72
f 33 72 34
f 34 72 73
f 34 73 74
f 34 74 35
f 35 74 75
f 35 75 76
f 35 76 36
f 36 76 77
f 36 77 73
f 36 73 78
f 36 78 56
f 37 79 38
f 37 80 81
f 37 81 79
f 38 79 39
f 39 79 40
f 40 79 82
f 40 82 43
f 40 43 41
f 42 43 83
f 42 83 84
f 42 84 44
f 43 82 85
f 43 85 83
f 44 86 45
f 44 84 86
f 45 86 46
f 46 87 88
f 46 88 89
f 46 89 90
f 46 90 91
f 46 91 92
f 46 92 93
f 46 93 94
f 46 94 95
f 46 95 96
f 46 96 97
f 46 97 98
f 46 98 99
f 46 99 100
f 46 100 101
f 46 101 102
f 46 102 49
f 46 49 48
f 46 48 47
f 46 86 103
f 46 103 104
f 46 104 105
f 46 105 106
f 46 106 107
f 46 107 108
f 46 108 109
f 46 109 110
f 46 110 111
f 46 111 112
f 46 112 113
f 46 113 114
f 46 114 115
f 46 115 116
f 46 116 87
f 49 102 50
f 50 102 117
f 50 117 51
f 51 117 118
f 51 118 69
f 52 119 120
f 52 120 121
f 52 121 53
f 52 68 119
f 53 121 122
f 53 122 54
f 54 123 124
f 54 124 125
f 54 125 55
f 54 122 123
f 55 126 127
f 55 127 128
f 55 128 129
f 55 129 130
f 55 130 131
f 55 131 132
f 55 125 133
f 55 133 134
f 55 134 135
f 55 135 136
f 55 136 126
f 56 78 137
f 56 137 57
f 57 137 58
f 58 137 138
f 58 138 59
f 59 138 60
f 60 138 139
f 60 139 61
f 61 139 140
f 61 140 62
f 62 140 141
f 62 141 63
f 63 141 142
f 63 142 64
f 64 142 65
f 65 142 143
f 65 143 66
f 66 143 67
f 67 143 120
f 67 120 119
f 67 119 68
f 69 118 144
f 69 144 70
f 70 144 145
f 70 145 71
f 71 145 146
f 71 146 72
f 72 146 73
f 73 77 76
f 73 76 75
f 73 75 74
f 73 146 147
f 73 147 78
f 78 148 137
f 78 147 148
f 79 81 149
f 79 149 150
f 79 150 82
f 80 151 152
f 80 152 81
f 81 152 153
f 81 153 149
f 82 150 85
f 83 85 103
f 83 103 84
f 84 103 86
f 85 150 154
f 85 154 103
f 87 155 88
f 87 116 155
f 88 155 89
f 89 155 156
f 89 156 90
f 90 157 91
f 90 156 157
f 91 157 158
f 91 158 92
f 92 158 159
f 92 159 93
f 93 160 161
f 93 161 94
f 93 159 160
f 94 161 95
f 95 161 148
f 95 148 147
f 95 147 96
f 96 147 97
f 97 147 98
f 98 147 146
f 98 146 99
f 99 146 145
f 99 145 100
f 100 145 144
f 100 144 118
f 100 118 101
f 101 118 102
f 102 118 117
f 103 154 105
f 103 105 104
f 105 154 150
f 105 150 149
f 105 149 106
f 106 149 107
f 107 149 153
f 107 153 162
f 107 162 108
f 108 162 163
f 108 163 164
f 108 164 109
f 109 164 163
f 109 163 165
f 109 165 110
f 110 165 166
f 110 166 167
f 110 167 168
f 110 168 111
f 111 168 112
f 112 168 167
f 112 167 169
f 112 169 113
f 113 169 170
f 113 170 114
f 114 170 171
f 114 171 115
f 115 171 116
f 116 171 172
f 116 172 173
f 116 173 155
f 120 143 121
f 121 143 155
f 121 155 172
f 121 172 122
f 122 172 171
f 122 171 123
f 123 171 124
f 124 169 174
f 124 174 125
f 124 171 170
f 124 170 169
f 125 174 133
f 126 136 175
f 126 175 176
f 126 176 127
f 127 176 128
f 128 176 177
f 128 177 129
f 129 177 130
f 130 177 131
f 131 177 178
f 131 178 132
f 133 174 179
f 133 179 134
f 134 179 135
f 135 179 136
f 136 179 175
f 137 148 161
f 137 161 138
f 138 160 139
f 138 161 160
f 139 159 140
f 139 160 159
f 140 158 157
f 140 157 141
f 140 159 158
f 141 157 156
f 141 156 142
f 142 156 155
f 142 155 143
f 151 178 152
f 152 178 177
f 152 177 180
f 152 180 153
f 153 180 162
f 155 173 172
f 162 180 163
f 163 180 177
f 163 177 176
f 163 176 165
f 165 176 175
f 165 175 166
f 166 175 179
f 166 179 167
f 167 179 174
f 167 174 169

