# https://github.com/mikedh/trimesh
v 0.03633646 0.01449703 0.00567374
v 0.03869200 0.01449703 0.00567374
v 0.03695915 0.01449703 0.01160143
v 0.02046658 0.03409383 -0.02762794
v 0.02073889 0.03236081 -0.04073854
v 0.03247468 0.01933248 -0.04073854
v 0.03912998 0.01449703 0.01160143
v 0.03884625 0.01933248 -0.04073854
v 0.03159111 0.02754897 0.01160143
v 0.02414747 0.03409383 0.00566861
v 0.02073889 0.03861525 -0.02762794
v 0.02073889 0.03857039 -0.03588162
v 0.02073889 0.03850665 -0.04073854
v 0.03991833 0.01608366 0.01160143
v 0.03685632 0.02406168 -0.04073854
v 0.03711339 0.02410891 -0.02762794
v 0.03714957 0.02411599 -0.02558372
v 0.03731524 0.02421751 -0.00427578
v 0.03732667 0.02424821 0.00567374
v 0.03733238 0.02426710 0.01160143
v 0.03949368 0.01764905 0.01160143
v 0.03159111 0.03153916 0.01160143
v 0.02831964 0.03409383 0.00566861
v 0.02342957 0.03721042 -0.02762794
v 0.02483299 0.03627072 -0.04073854
v 0.03150923 0.03075293 -0.04073854
v 0.03193959 0.03082848 -0.02364198
v 0.03218524 0.03098431 -0.00222644
v 0.03220809 0.03105278 0.01160143
v 0.02831012 0.03409383 0.00431093
v 0.02504626 0.03632503 -0.02762794
v 0.02665343 0.03479978 -0.04073854
v 0.02781311 0.03409383 -0.02762794
v 0.02701715 0.03449993 -0.04073854
v 0.02791404 0.03409383 -0.02290422
v 0.02826442 0.03409383 -0.00131961
v 0.02809494 0.03409383 -0.01393326
f 1 2 7
f 1 7 3
f 1 3 4
f 1 4 5
f 1 5 6
f 1 6 8
f 1 8 2
f 2 8 7
f 3 7 14
f 3 14 21
f 3 21 20
f 3 20 29
f 3 29 22
f 3 22 9
f 3 9 10
f 3 10 4
f 4 11 12
f 4 12 13
f 4 13 5
f 4 10 11
f 5 13 25
f 5 25 32
f 5 32 34
f 5 34 26
f 5 26 15
f 5 15 8
f 5 8 6
f 7 8 14
f 8 15 16
f 8 16 17
f 8 17 18
f 8 18 19
f 8 19 20
f 8 20 21
f 8 21 14
f 9 22 10
f 10 22 23
f 10 23 11
f 11 24 12
f 11 23 24
f 12 24 13
f 13 24 25
f 15 26 27
f 15 27 16
f 16 27 17
f 17 27 28
f 17 28 18
f 18 28 29
f 18 29 19
f 19 29 20
f 22 29 23
f 23 30 31
f 23 31 24
f 23 29 30
f 24 31 25
f 25 31 33
f 25 33 32
f 26 34 27
f 27 35 28
f 27 34 32
f 27 32 33
f 27 33 35
f 28 36 30
f 28 30 29
f 28 35 37
f 28 37 36
f 30 36 31
f 31 36 37
f 31 37 35
f 31 35 33

