# https://github.com/mikedh/trimesh
v -0.03951508 0.01693670 -0.02193302
v -0.03462091 0.01693670 -0.02193302
v -0.03926960 0.01693670 0.00567009
v -0.03936933 0.01714795 0.00567009
v -0.03942686 0.01790366 -0.03640299
v -0.03558555 0.01693670 -0.00395146
v -0.03303683 0.01790366 -0.03640299
v -0.01992690 0.03259527 -0.04241882
v -0.03627404 0.01693670 0.00567009
v -0.03832031 0.02077403 0.00567009
v -0.03874222 0.01970472 -0.04241882
v -0.03689348 0.02489883 0.00567009
v -0.01992690 0.03632806 0.00567009
v -0.03560281 0.01693670 -0.00369727
v -0.03181328 0.01970472 -0.04241882
v -0.01992690 0.03891314 -0.04241882
v -0.01992498 0.03331395 -0.03640299
v -0.03639869 0.02469412 -0.04241882
v -0.03688389 0.02486617 -0.00427625
v -0.03675348 0.02477687 -0.02193302
v -0.03672472 0.02475945 -0.02558581
v -0.03164836 0.03157822 0.00567009
v -0.01992498 0.03501047 -0.02193302
v -0.01992690 0.03918537 0.00567009
v -0.02232028 0.03766089 -0.04241882
v -0.01997292 0.03896758 -0.03640299
v -0.01992690 0.03898936 -0.03640299
v -0.01992498 0.03899154 -0.03629002
v -0.01992498 0.03898936 -0.03640299
v -0.03107686 0.03131906 -0.03640299
v -0.03092535 0.03129075 -0.04241882
v -0.03139521 0.03138222 -0.02364644
v -0.03163685 0.03153902 -0.00222391
v -0.03141631 0.03139528 -0.02193302
v -0.02689418 0.03521301 0.00567009
v -0.01992498 0.03906994 -0.02193302
v -0.01992690 0.03914399 -0.01293753
v -0.02466189 0.03690518 0.00567009
v -0.02416710 0.03669393 -0.04241882
v -0.02426491 0.03672007 -0.03640299
v -0.02449504 0.03677887 -0.02240374
v -0.02465614 0.03688558 -0.00063758
v -0.02551530 0.03564422 -0.04241882
v -0.02465997 0.03665909 -0.02193302
f 1 2 6
f 1 6 14
f 1 14 9
f 1 9 3
f 1 3 4
f 1 4 5
f 1 5 7
f 1 7 2
f 2 7 8
f 2 8 6
f 3 9 13
f 3 13 24
f 3 24 38
f 3 38 35
f 3 35 22
f 3 22 12
f 3 12 10
f 3 10 4
f 4 10 5
f 5 11 15
f 5 15 7
f 5 10 12
f 5 12 11
f 6 13 14
f 6 8 13
f 7 15 8
f 8 15 11
f 8 11 18
f 8 18 31
f 8 31 43
f 8 43 39
f 8 39 25
f 8 25 16
f 8 16 29
f 8 29 17
f 8 17 13
f 9 14 13
f 11 12 19
f 11 19 20
f 11 20 21
f 11 21 18
f 12 22 19
f 13 23 36
f 13 36 24
f 13 17 23
f 16 25 26
f 16 26 27
f 16 27 28
f 16 28 29
f 17 29 28
f 17 28 36
f 17 36 23
f 18 30 31
f 18 21 32
f 18 32 30
f 19 22 33
f 19 33 20
f 20 33 21
f 21 33 34
f 21 34 32
f 22 35 33
f 24 37 38
f 24 36 37
f 25 39 26
f 26 40 41
f 26 41 42
f 26 42 37
f 26 37 28
f 26 28 27
f 26 39 40
f 28 37 36
f 30 32 31
f 31 32 43
f 32 34 43
f 33 35 42
f 33 42 44
f 33 44 34
f 34 44 43
f 35 38 42
f 37 42 38
f 39 43 44
f 39 44 40
f 40 44 41
f 41 44 42

