# https://github.com/mikedh/trimesh
v -0.04399008 -0.00000078 0.04657206
v -0.04257714 -0.00000078 0.04657206
v -0.04460147 -0.00000078 0.04788619
v -0.03975910 0.00000889 0.01748968
v -0.03698979 0.00000889 0.01160464
v -0.04199561 -0.00000078 0.04788619
v -0.03445622 0.00000889 0.01160464
v -0.04302507 0.00000889 0.03188364
v -0.04317438 0.00000567 0.03453828
v -0.04094415 0.00000889 0.02040803
v -0.04376219 0.00001535 0.05057600
v -0.04470049 0.00001535 0.05003540
v -0.04474292 0.00001535 0.05000903
v -0.04517042 0.00001535 0.04899376
v -0.04083413 0.00001212 0.01979711
v -0.04054966 0.00001212 0.01916421
v -0.03937089 0.01714085 0.00568004
v -0.03599962 0.00001212 0.00949939
v -0.03560984 0.00001212 0.00874343
v -0.03393914 0.00001212 0.00568004
v -0.04168127 0.00001535 0.04909485
v -0.04251741 0.00001535 0.05010572
v -0.03162718 0.00001212 0.00568004
v -0.04304236 0.00037985 0.03188364
v -0.04293391 0.00000889 0.03131667
v -0.04520500 0.00039921 0.04899376
v -0.04379677 0.00038953 0.05057600
v -0.03026139 0.02982449 0.05010572
v -0.03188023 0.02982449 0.05057600
v -0.04477750 0.00039598 0.05000903
v -0.03832415 0.02076982 0.00568004
v -0.04426513 0.00921841 0.04899376
v -0.02914863 0.02982449 0.04909485
v -0.03160361 0.00027986 0.00568004
v -0.04384706 0.00913454 0.05000903
v -0.04288676 0.00893132 0.05057600
v -0.02992033 0.03295347 0.04788619
v -0.03621651 0.02464394 0.05057600
v -0.03315644 0.02982449 0.05000903
v -0.03689863 0.02489232 0.00568004
v -0.04164198 0.01766987 0.04899376
v -0.04125063 0.01750536 0.05000903
v -0.02939382 0.03051480 0.02898726
v -0.03113053 0.02766324 0.00568004
v -0.04034534 0.01712149 0.05057600
v -0.03129399 0.03183091 0.04788619
v -0.03370967 0.02982449 0.04899376
v -0.03024724 0.03270509 0.02040803
v -0.03084920 0.03226639 0.01748968
v -0.03167119 0.03163737 0.01748968
v -0.03702750 0.02519554 0.05000903
v -0.03471869 0.02766324 0.00568004
v -0.03737485 0.02543425 0.04899376
v -0.03084920 0.03223090 0.01160464
v -0.03166333 0.03160833 0.01160464
v -0.03084920 0.03226316 0.01680844
f 1 2 6
f 1 6 3
f 1 3 4
f 1 4 5
f 1 5 7
f 1 7 2
f 2 7 6
f 3 8 9
f 3 9 10
f 3 10 4
f 3 6 11
f 3 11 12
f 3 12 13
f 3 13 14
f 3 14 8
f 4 10 15
f 4 15 16
f 4 16 5
f 5 16 17
f 5 17 18
f 5 18 19
f 5 19 20
f 5 20 23
f 5 23 7
f 6 21 22
f 6 22 11
f 6 7 23
f 6 23 21
f 8 24 25
f 8 25 9
f 8 14 26
f 8 26 24
f 9 25 10
f 10 25 15
f 11 27 12
f 11 22 28
f 11 28 29
f 11 29 38
f 11 38 45
f 11 45 36
f 11 36 27
f 12 27 30
f 12 30 13
f 13 30 14
f 14 30 26
f 15 17 16
f 15 25 17
f 17 31 40
f 17 40 52
f 17 52 44
f 17 44 34
f 17 34 23
f 17 23 20
f 17 20 19
f 17 19 18
f 17 25 24
f 17 24 26
f 17 26 32
f 17 32 31
f 21 33 22
f 21 23 33
f 22 33 28
f 23 34 33
f 26 30 35
f 26 35 32
f 27 36 35
f 27 35 30
f 28 33 37
f 28 37 29
f 29 37 39
f 29 39 38
f 31 32 41
f 31 41 40
f 32 35 42
f 32 42 41
f 33 43 37
f 33 34 43
f 34 44 43
f 35 36 42
f 36 45 42
f 37 46 47
f 37 47 39
f 37 43 48
f 37 48 49
f 37 49 50
f 37 50 46
f 38 39 51
f 38 51 42
f 38 42 45
f 39 47 51
f 40 41 53
f 40 53 52
f 41 42 51
f 41 51 53
f 43 44 54
f 43 54 48
f 44 52 54
f 46 50 47
f 47 53 51
f 47 50 55
f 47 55 53
f 48 54 56
f 48 56 49
f 49 56 50
f 50 56 55
f 52 53 55
f 52 55 54
f 54 55 56

