# https://github.com/mikedh/trimesh
v 0.04090562 -0.00000118 0.03453418
v 0.04317833 -0.00000118 0.03453418
v 0.04136140 -0.00000118 0.03727712
v 0.03443703 0.00001202 0.01160639
v 0.04334924 -0.00000118 0.03727712
v 0.03698844 0.00001202 0.01160639
v 0.03976003 0.00001202 0.01748903
v 0.04053608 0.00001202 0.01913708
v 0.04083171 0.00001202 0.01980088
v 0.04198962 0.00000872 0.02615276
v 0.04250853 0.00000872 0.02899107
v 0.04302435 0.00001202 0.03187898
v 0.04516926 0.00001532 0.04899280
v 0.04266866 0.00000872 0.04527323
v 0.04199578 0.00001202 0.04788647
v 0.04167705 0.00001532 0.04909580
v 0.03051831 0.02928636 0.02040364
v 0.03067228 0.02897945 0.01748903
v 0.03123738 0.02802576 0.01160639
v 0.02982386 0.02915106 0.04909580
v 0.02943892 0.02991006 0.04788647
v 0.04460262 0.00001202 0.04788647
v 0.04384505 0.00000872 0.04527323
v 0.03991555 0.01607974 0.01160639
v 0.04147072 0.00001202 0.02329155
v 0.04292735 0.00001202 0.03129148
v 0.04155079 0.00001202 0.02373027
v 0.04199270 0.00001202 0.02615276
v 0.04441939 0.00844683 0.04899280
v 0.04474120 0.00001532 0.05001139
v 0.04376037 0.00001532 0.05057600
v 0.04251623 0.00001532 0.05010676
v 0.04247619 0.00001532 0.05006098
v 0.02982386 0.03025656 0.05010676
v 0.03049521 0.03234876 0.02329155
v 0.03123738 0.03182076 0.01160639
v 0.02982386 0.03188016 0.05057600
v 0.02982386 0.03315396 0.05001139
v 0.02982386 0.03371166 0.04899280
v 0.03949365 0.01764064 0.01160639
v 0.04194035 0.01694104 0.04899280
v 0.04154925 0.01679584 0.05001139
v 0.04399749 0.00836433 0.05001139
v 0.04303205 0.00818283 0.05057600
v 0.03221052 0.03105186 0.01160639
v 0.03124354 0.03068886 0.05057600
v 0.03194413 0.03138186 0.05001139
v 0.03224593 0.03167886 0.04899280
v 0.03733027 0.02426375 0.01160639
v 0.03781376 0.02477855 0.04899280
v 0.03745961 0.02454425 0.05001139
v 0.03664199 0.02400305 0.05057600
v 0.04063462 0.01642294 0.05057600
f 1 2 5
f 1 5 3
f 1 3 4
f 1 4 6
f 1 6 2
f 2 6 7
f 2 7 8
f 2 8 9
f 2 9 10
f 2 10 11
f 2 11 12
f 2 12 13
f 2 13 5
f 3 5 23
f 3 23 14
f 3 14 15
f 3 15 16
f 3 16 4
f 4 17 18
f 4 18 19
f 4 19 36
f 4 36 45
f 4 45 49
f 4 49 40
f 4 40 24
f 4 24 6
f 4 16 20
f 4 20 21
f 4 21 17
f 5 13 22
f 5 22 23
f 6 24 7
f 7 24 8
f 8 24 9
f 9 25 10
f 9 24 25
f 10 25 11
f 11 26 12
f 11 25 27
f 11 27 28
f 11 28 26
f 12 26 24
f 12 24 13
f 13 29 30
f 13 30 22
f 13 24 29
f 14 23 31
f 14 31 15
f 15 31 32
f 15 32 33
f 15 33 16
f 16 33 34
f 16 34 20
f 17 35 18
f 17 21 35
f 18 35 36
f 18 36 19
f 20 34 21
f 21 34 37
f 21 37 38
f 21 38 39
f 21 39 35
f 22 30 31
f 22 31 23
f 24 28 27
f 24 27 25
f 24 40 29
f 24 26 28
f 29 41 42
f 29 42 43
f 29 43 30
f 29 40 41
f 30 43 31
f 31 44 53
f 31 53 52
f 31 52 46
f 31 46 37
f 31 37 32
f 31 43 44
f 32 34 33
f 32 37 34
f 35 39 36
f 36 39 45
f 37 46 47
f 37 47 38
f 38 47 39
f 39 47 48
f 39 48 45
f 40 49 41
f 41 50 42
f 41 49 50
f 42 51 52
f 42 52 53
f 42 53 44
f 42 44 43
f 42 50 51
f 45 48 50
f 45 50 49
f 46 52 47
f 47 52 51
f 47 51 50
f 47 50 48

