# https://github.com/mikedh/trimesh
v 0.02981800 -0.03375492 0.04899385
v 0.03168998 -0.03224130 0.04899385
v 0.03139329 -0.03194057 0.05001346
v 0.02981800 -0.03320631 0.05001346
v 0.02981800 -0.03320631 0.04809290
v 0.03039329 -0.03257509 0.01160675
v 0.03166438 -0.03161008 0.01160675
v 0.03737972 -0.02543996 0.04899385
v 0.03702882 -0.02519871 0.05001346
v 0.03621707 -0.02464680 0.05057600
v 0.03070354 -0.03123663 0.05057600
v 0.02981800 -0.03195378 0.05057600
v 0.02981800 -0.03316996 0.04804456
v 0.03039329 -0.02902240 0.01160675
v 0.03158155 -0.00028027 0.00568248
v 0.03174118 -0.02705933 0.00568248
v 0.03519298 -0.02705933 0.00568248
v 0.02981800 -0.03303116 0.04789074
v 0.04163874 -0.01767360 0.04899385
v 0.04124718 -0.01750836 0.05001346
v 0.03689930 -0.02489136 0.00568248
v 0.04034357 -0.01712500 0.05057600
v 0.04251224 0.00000725 0.05011014
v 0.02981800 -0.03035424 0.05010575
v 0.04375922 0.00000725 0.05057600
v 0.02981800 -0.02955448 0.04789074
v 0.02981800 -0.02946525 0.04800061
v 0.02981800 -0.02945863 0.04800940
v 0.03160865 0.00000064 0.00568248
v 0.02981800 -0.02942559 0.04809290
v 0.02981800 -0.02905875 0.04909493
v 0.04426072 -0.00921653 0.04899385
v 0.03832399 -0.02076692 0.00568248
v 0.04384506 -0.00912730 0.05001346
v 0.04288272 -0.00892901 0.05057600
v 0.04167790 0.00000725 0.04909493
v 0.04379386 -0.00038272 0.05057600
v 0.04469446 0.00000725 0.05003983
v 0.03393997 0.00000064 0.00568248
v 0.04191886 0.00000725 0.04805774
v 0.04193091 0.00000725 0.04800940
v 0.04199416 0.00000725 0.04789074
v 0.04520198 -0.00039594 0.04899385
v 0.03937068 -0.01714152 0.00568248
v 0.04477428 -0.00039263 0.05001346
v 0.04473964 0.00000725 0.05001346
v 0.03559207 0.00000064 0.00871054
v 0.04460108 0.00000725 0.04789074
v 0.04473964 0.00000725 0.04809290
v 0.04516434 0.00000725 0.04899385
v 0.04304386 -0.00038272 0.03187586
v 0.04302278 0.00000064 0.03187586
v 0.03600021 0.00000064 0.00950161
v 0.03698514 0.00000064 0.01158917
v 0.04053483 -0.00000266 0.01914394
v 0.04083001 -0.00000266 0.01980757
v 0.04250922 0.00000064 0.02897964
v 0.04292940 0.00000064 0.03128695
v 0.04199115 0.00000064 0.02615375
f 1 2 3
f 1 3 4
f 1 4 12
f 1 12 24
f 1 24 31
f 1 31 30
f 1 30 28
f 1 28 27
f 1 27 26
f 1 26 18
f 1 18 13
f 1 13 5
f 1 5 6
f 1 6 7
f 1 7 2
f 2 8 3
f 2 7 8
f 3 9 10
f 3 10 11
f 3 11 12
f 3 12 4
f 3 8 9
f 5 13 6
f 6 14 15
f 6 15 16
f 6 16 17
f 6 17 7
f 6 13 18
f 6 18 26
f 6 26 14
f 7 17 8
f 8 19 20
f 8 20 9
f 8 17 21
f 8 21 19
f 9 20 22
f 9 22 10
f 10 22 35
f 10 35 37
f 10 37 25
f 10 25 12
f 10 12 11
f 12 23 24
f 12 25 23
f 14 26 27
f 14 27 28
f 14 28 15
f 15 29 39
f 15 39 44
f 15 44 33
f 15 33 21
f 15 21 17
f 15 17 16
f 15 28 30
f 15 30 31
f 15 31 29
f 19 32 20
f 19 21 33
f 19 33 32
f 20 32 34
f 20 34 22
f 22 34 35
f 23 36 24
f 23 25 38
f 23 38 46
f 23 46 50
f 23 50 49
f 23 49 48
f 23 48 42
f 23 42 41
f 23 41 40
f 23 40 36
f 24 36 31
f 25 37 38
f 29 31 36
f 29 36 40
f 29 40 41
f 29 41 42
f 29 42 48
f 29 48 39
f 32 43 34
f 32 33 44
f 32 44 43
f 34 43 45
f 34 45 37
f 34 37 35
f 37 45 38
f 38 45 46
f 39 47 44
f 39 48 49
f 39 49 47
f 43 50 46
f 43 46 45
f 43 44 51
f 43 51 52
f 43 52 50
f 44 47 53
f 44 53 54
f 44 54 55
f 44 55 56
f 44 56 57
f 44 57 58
f 44 58 51
f 47 49 53
f 49 50 54
f 49 54 53
f 50 52 58
f 50 58 57
f 50 57 59
f 50 59 54
f 51 58 52
f 54 56 55
f 54 59 56
f 56 59 57

