# https://github.com/mikedh/trimesh
v 0.00016335 0.03832548 -0.04073854
v -0.01992498 0.03290837 -0.03981174
v 0.00016335 0.04380316 -0.04073854
v 0.02072862 0.03236441 -0.04073854
v -0.01992498 0.03633472 0.00567421
v -0.01992498 0.03894795 -0.03981174
v 0.02414279 0.03409834 0.00566967
v -0.01876331 0.03955359 -0.03981174
v -0.01647775 0.04069757 -0.03981174
v -0.01051359 0.04242477 -0.03981174
v -0.00819026 0.04307527 -0.03981174
v -0.00195693 0.04362596 -0.03981174
v 0.00016335 0.04380428 -0.03981174
v 0.00033807 0.04381774 -0.04073854
v 0.02072862 0.03850830 -0.04073854
v 0.02780723 0.03409834 -0.02763158
v 0.02790640 0.03409834 -0.02290671
v 0.02809057 0.03409834 -0.01393400
v 0.02826056 0.03409834 -0.00131769
v 0.02831723 0.03409834 0.00566967
v 0.00016335 0.04115741 0.00567421
v -0.01992498 0.03918684 0.00567421
v -0.01992498 0.03899281 -0.03628626
v -0.01992498 0.03914646 -0.01293905
v -0.01656748 0.04074916 -0.02165734
v -0.01660998 0.04076262 0.00049048
v -0.00819970 0.04308761 -0.02121666
v 0.00016335 0.04379307 -0.02107582
v 0.00038529 0.04381550 -0.02763158
v 0.00039002 0.04382111 -0.04073854
v 0.02504001 0.03632911 -0.02763158
v 0.01914668 0.03937189 -0.04073854
v 0.02512501 0.03635155 -0.02239787
v 0.02529029 0.03645361 -0.00064076
v 0.02750029 0.03474324 0.00566967
v 0.00016335 0.04369998 0.00567421
v -0.01867831 0.03978575 0.00567421
v -0.01660998 0.04076487 0.00567421
v -0.01003192 0.04253805 0.00567421
v -0.00819970 0.04302480 0.00567421
v 0.00016335 0.04379195 -0.02050338
v 0.00038529 0.04380989 -0.02106673
v 0.00039002 0.04381550 -0.02763158
v 0.00241585 0.04361474 -0.04073854
v 0.02342029 0.03721290 -0.02763158
v 0.01718223 0.04039924 -0.04073854
v 0.02529501 0.03647492 0.00566967
v 0.01724835 0.04043737 -0.02763158
v 0.01727668 0.04045420 -0.02166189
v -0.00135248 0.04357997 0.00567421
v 0.01936862 0.03945265 0.00566967
v 0.01731446 0.04046878 0.00566967
v 0.01077418 0.04235523 0.00566967
v 0.00895140 0.04287451 0.00566967
v 0.00211835 0.04354857 0.00566967
v 0.00038529 0.04371568 0.00566967
v 0.00895140 0.04293732 -0.02122120
v 0.00893724 0.04292386 -0.04073854
v 0.01094890 0.04232495 -0.04073854
v 0.01731446 0.04046541 0.00048594
f 1 2 6
f 1 6 3
f 1 3 14
f 1 14 30
f 1 30 44
f 1 44 58
f 1 58 59
f 1 59 46
f 1 46 32
f 1 32 15
f 1 15 4
f 1 4 2
f 2 5 22
f 2 22 24
f 2 24 23
f 2 23 6
f 2 4 7
f 2 7 5
f 3 6 8
f 3 8 9
f 3 9 10
f 3 10 11
f 3 11 12
f 3 12 13
f 3 13 14
f 4 15 16
f 4 16 17
f 4 17 18
f 4 18 19
f 4 19 20
f 4 20 7
f 5 21 36
f 5 36 50
f 5 50 40
f 5 40 39
f 5 39 38
f 5 38 37
f 5 37 22
f 5 7 20
f 5 20 21
f 6 23 8
f 8 23 24
f 8 24 9
f 9 25 10
f 9 24 25
f 10 25 26
f 10 26 11
f 11 26 27
f 11 27 12
f 12 28 13
f 12 27 28
f 13 28 29
f 13 29 14
f 14 29 30
f 15 31 16
f 15 32 31
f 16 33 17
f 16 31 33
f 17 33 18
f 18 33 34
f 18 34 19
f 19 34 20
f 20 34 35
f 20 35 36
f 20 36 21
f 22 37 25
f 22 25 24
f 25 37 26
f 26 38 27
f 26 37 38
f 27 39 40
f 27 40 41
f 27 41 28
f 27 38 39
f 28 41 42
f 28 42 29
f 29 42 43
f 29 43 30
f 30 43 44
f 31 32 45
f 31 45 33
f 32 34 45
f 32 46 34
f 33 45 34
f 34 47 35
f 34 46 48
f 34 48 49
f 34 49 47
f 35 47 36
f 36 41 50
f 36 47 51
f 36 51 52
f 36 52 53
f 36 53 54
f 36 54 55
f 36 55 56
f 36 56 42
f 36 42 41
f 40 50 41
f 42 56 55
f 42 55 54
f 42 54 57
f 42 57 43
f 43 57 44
f 44 57 58
f 46 59 48
f 47 49 51
f 48 59 49
f 49 60 51
f 49 59 60
f 51 60 52
f 52 60 57
f 52 57 53
f 53 57 54
f 57 60 59
f 57 59 58

