# https://github.com/mikedh/trimesh
v -0.04270667 -0.00000703 -0.04241682
v -0.03577886 -0.00000703 -0.04241682
v -0.04168128 -0.00000703 -0.03640073
v -0.03927347 0.01693609 0.00567421
v -0.04271666 0.00037304 -0.04241682
v -0.03181726 0.01970271 -0.04241682
v -0.02918524 -0.00000703 -0.01263296
v -0.04087439 -0.00000703 -0.03167448
v -0.03846372 0.01970271 -0.03640544
v -0.03874221 0.01970271 -0.04241682
v -0.04021460 0.01696503 -0.04241682
v -0.04204545 0.00868833 -0.04241682
v -0.04260670 0.00297374 -0.04241682
v -0.03393944 -0.00000703 0.00567421
v -0.03627728 0.01693609 0.00567421
v -0.03210574 0.01970271 -0.03819426
v -0.02846261 0.00309335 -0.00577424
v -0.02812700 0.00024571 -0.00576012
v -0.02816271 -0.00000703 -0.00576012
v -0.03228283 0.01970271 -0.03640544
v -0.03162875 -0.00000703 0.00567421
v -0.03334249 0.00927869 0.00567421
v -0.02987359 0.00376668 0.00156934
v -0.03103322 0.00673780 0.00121157
v -0.03003925 0.00654487 -0.00554828
v -0.02961796 0.00025921 0.00158346
v -0.02964081 -0.00000703 0.00158346
v -0.03160304 0.00027850 0.00567421
v -0.03175300 0.00468310 0.00567421
f 1 2 7
f 1 7 19
f 1 19 27
f 1 27 21
f 1 21 14
f 1 14 8
f 1 8 3
f 1 3 4
f 1 4 5
f 1 5 13
f 1 13 12
f 1 12 11
f 1 11 10
f 1 10 6
f 1 6 2
f 2 6 7
f 3 8 4
f 4 9 10
f 4 10 11
f 4 11 12
f 4 12 13
f 4 13 5
f 4 8 14
f 4 14 21
f 4 21 28
f 4 28 29
f 4 29 22
f 4 22 15
f 4 15 20
f 4 20 9
f 6 10 9
f 6 9 20
f 6 20 16
f 6 16 17
f 6 17 18
f 6 18 7
f 7 18 19
f 15 22 23
f 15 23 24
f 15 24 25
f 15 25 20
f 16 20 17
f 17 25 24
f 17 24 23
f 17 23 18
f 17 20 25
f 18 23 26
f 18 26 27
f 18 27 19
f 21 27 28
f 22 29 23
f 23 29 26
f 26 29 28
f 26 28 27

