# https://github.com/mikedh/trimesh
v 0.03597734 -0.00000703 -0.04420063
v 0.03174964 0.01933030 -0.04420063
v 0.04301283 -0.00000703 -0.04420063
v 0.02924477 -0.00000703 -0.01255251
v 0.03900503 0.01933030 -0.04420063
v 0.02813506 -0.00000703 -0.00576843
v 0.02849623 0.00259563 -0.00577936
v 0.03594821 0.01933030 0.00566946
v 0.04149388 -0.00000703 -0.03530267
v 0.04297642 0.00135771 -0.04420063
v 0.03966474 0.01645318 0.00566946
v 0.03912882 0.01449597 0.01160143
v 0.03698803 0.00000811 0.01160143
v 0.04055601 0.01631878 -0.04420063
v 0.03888853 0.01933030 0.00566946
v 0.02961613 -0.00000703 0.00157279
v 0.02991759 0.00324677 0.00156187
v 0.03576181 0.01186113 0.01160143
v 0.03695890 0.01449597 0.01160143
v 0.04087349 -0.00000703 -0.03167029
v 0.04244049 0.00803379 -0.04420063
v 0.03443510 0.00000811 0.01160143
v 0.03393704 -0.00000703 0.00566946
v 0.03160838 -0.00000703 0.00566946
v 0.03451956 0.00537433 0.01160143
v 0.03463898 0.00668986 0.01160143
f 1 2 5
f 1 5 14
f 1 14 21
f 1 21 10
f 1 10 3
f 1 3 9
f 1 9 20
f 1 20 23
f 1 23 24
f 1 24 16
f 1 16 6
f 1 6 4
f 1 4 2
f 2 4 6
f 2 6 7
f 2 7 8
f 2 8 15
f 2 15 5
f 3 10 11
f 3 11 12
f 3 12 13
f 3 13 9
f 5 15 14
f 6 16 17
f 6 17 7
f 7 17 8
f 8 17 18
f 8 18 19
f 8 19 12
f 8 12 15
f 9 13 20
f 10 21 11
f 11 15 12
f 11 21 14
f 11 14 15
f 12 19 18
f 12 18 26
f 12 26 25
f 12 25 22
f 12 22 13
f 13 22 24
f 13 24 23
f 13 23 20
f 16 24 22
f 16 22 25
f 16 25 26
f 16 26 17
f 17 26 18

