mtllib material.mtl
usemtl material_0
v 0.00000000 0.33000001 -0.50000000
v 0.00000000 0.33000001 -0.50000000
v 0.00000000 0.33000001 -0.50000000
v 0.00000000 0.33000001 0.50000000
v 0.00000000 0.33000001 0.50000000
v 0.00000000 0.33000001 0.50000000
v 0.28578800 0.16500001 -0.50000000
v 0.28578800 0.16500001 -0.50000000
v 0.28578800 0.16500001 -0.50000000
v 0.28578800 0.16500001 0.50000000
v 0.28578800 0.16500001 0.50000000
v 0.28578800 0.16500001 0.50000000
v 0.28578800 -0.16500001 -0.50000000
v 0.28578800 -0.16500001 -0.50000000
v 0.28578800 -0.16500001 -0.50000000
v 0.28578800 -0.16500001 0.50000000
v 0.28578800 -0.16500001 0.50000000
v 0.28578800 -0.16500001 0.50000000
v 0.00000000 -0.33000001 -0.50000000
v 0.00000000 -0.33000001 -0.50000000
v 0.00000000 -0.33000001 -0.50000000
v 0.00000000 -0.33000001 0.50000000
v 0.00000000 -0.33000001 0.50000000
v 0.00000000 -0.33000001 0.50000000
v -0.28578800 -0.16500001 -0.50000000
v -0.28578800 -0.16500001 -0.50000000
v -0.28578800 -0.16500001 -0.50000000
v -0.28578800 -0.16500001 0.50000000
v -0.28578800 -0.16500001 0.50000000
v -0.28578800 -0.16500001 0.50000000
v -0.28578800 0.16500001 0.50000000
v -0.28578800 0.16500001 0.50000000
v -0.28578800 0.16500001 0.50000000
v -0.28578800 0.16500001 -0.50000000
v -0.28578800 0.16500001 -0.50000000
v -0.28578800 0.16500001 -0.50000000
vn 0.50000000 0.86600000 -0.00000000
vn 0.00000000 -0.00000000 -1.00000000
vn -0.50000000 0.86600000 -0.00000000
vn -0.50000000 0.86600000 -0.00000000
vn 0.00000000 0.00000000 1.00000000
vn 0.50000000 0.86600000 -0.00000000
vn 0.00000000 -0.00000000 -1.00000000
vn 0.50000000 0.86600000 -0.00000000
vn 1.00000000 0.00000000 0.00000000
vn 1.00000000 0.00000000 0.00000000
vn 0.00000000 0.00000000 1.00000000
vn 0.50000000 0.86600000 -0.00000000
vn 1.00000000 0.00000000 0.00000000
vn 0.50000000 -0.86600000 0.00000000
vn 0.00000000 -0.00000000 -1.00000000
vn 1.00000000 0.00000000 0.00000000
vn 0.50000000 -0.86600000 0.00000000
vn 0.00000000 0.00000000 1.00000000
vn 0.50000000 -0.86600000 0.00000000
vn 0.00000000 -0.00000000 -1.00000000
vn -0.50000000 -0.86600000 0.00000000
vn 0.00000000 0.00000000 1.00000000
vn -0.50000000 -0.86600000 0.00000000
vn 0.50000000 -0.86600000 0.00000000
vn -1.00000000 0.00000000 0.00000000
vn 0.00000000 -0.00000000 -1.00000000
vn -0.50000000 -0.86600000 0.00000000
vn -1.00000000 0.00000000 0.00000000
vn -0.50000000 -0.86600000 0.00000000
vn 0.00000000 0.00000000 1.00000000
vn -1.00000000 0.00000000 0.00000000
vn -0.50000000 0.86600000 -0.00000000
vn 0.00000000 0.00000000 1.00000000
vn -1.00000000 0.00000000 0.00000000
vn -0.50000000 0.86600000 -0.00000000
vn 0.00000000 -0.00000000 -1.00000000
vt 1.00000000 0.50000000
vt 0.75000000 0.49000001
vt -0.00000000 0.50000000
vt -0.00000000 1.00000000
vt 0.25000000 0.49000001
vt 1.00000000 1.00000000
vt 0.95784599 0.37000001
vt 0.83333302 0.50000000
vt 0.83333302 0.50000000
vt 0.83333302 1.00000000
vt 0.45784599 0.37000001
vt 0.83333302 1.00000000
vt 0.66666698 0.50000000
vt 0.66666698 0.50000000
vt 0.95784599 0.13000000
vt 0.66666698 1.00000000
vt 0.66666698 1.00000000
vt 0.45784599 0.13000000
vt 0.50000000 0.50000000
vt 0.75000000 0.01000000
vt 0.50000000 0.50000000
vt 0.25000000 0.01000000
vt 0.50000000 1.00000000
vt 0.50000000 1.00000000
vt 0.33333299 0.50000000
vt 0.54215401 0.13000000
vt 0.33333299 0.50000000
vt 0.33333299 1.00000000
vt 0.33333299 1.00000000
vt 0.04215400 0.13000000
vt 0.16666700 1.00000000
vt 0.16666700 1.00000000
vt 0.04215400 0.37000001
vt 0.16666700 0.50000000
vt 0.16666700 0.50000000
vt 0.54215401 0.37000001
f 1/1/1 6/6/6 8/8/8
f 6/6/6 12/12/12 8/8/8
f 9/9/9 10/10/10 13/13/13
f 10/10/10 16/16/16 13/13/13
f 14/14/14 17/17/17 19/19/19
f 17/17/17 24/24/24 19/19/19
f 21/21/21 23/23/23 27/27/27
f 23/23/23 29/29/29 27/27/27
f 11/11/11 5/5/5 33/33/33
f 11/11/11 33/33/33 30/30/30
f 11/11/11 30/30/30 22/22/22
f 11/11/11 22/22/22 18/18/18
f 25/25/25 28/28/28 34/34/34
f 28/28/28 31/31/31 34/34/34
f 35/35/35 32/32/32 3/3/3
f 32/32/32 4/4/4 3/3/3
f 2/2/2 7/7/7 15/15/15
f 2/2/2 15/15/15 20/20/20
f 2/2/2 20/20/20 26/26/26
f 2/2/2 26/26/26 36/36/36

