# https://github.com/mikedh/trimesh
v 0.03003706 0.02038025 0.04414595
v 0.02984905 0.02068677 0.04414595
v 0.02950231 0.02127998 0.04483364
v 0.02969033 0.02068677 0.04500307
v 0.02978556 0.02038025 0.04505291
v 0.02952673 0.02038025 0.04197326
v 0.02942662 0.02117628 0.04363517
v 0.02948522 0.02125863 0.04414595
v 0.02910186 0.02173899 0.04414595
v 0.02862084 0.02232001 0.04414595
v 0.02821062 0.02280037 0.04414595
v 0.02642568 0.02488957 0.04414595
v 0.02860863 0.02230476 0.04489095
v 0.02893338 0.02162005 0.04508779
v 0.02893827 0.02068677 0.04545406
v 0.02893827 0.02038025 0.04547648
v 0.02929721 0.02038025 0.04102645
v 0.02911651 0.02038025 0.04029640
v 0.02891385 0.02068677 0.04029640
v 0.02845968 0.02116866 0.03981053
v 0.02852316 0.02124491 0.04029640
v 0.02824236 0.02187624 0.04126066
v 0.02735111 0.02292084 0.04126066
v 0.02630115 0.02474165 0.04318419
v 0.02561013 0.02505731 0.04159453
v 0.02569315 0.02514728 0.04222242
v 0.02594465 0.02542178 0.04414595
v 0.02677730 0.02433906 0.04491587
v 0.02769296 0.02332191 0.04490839
v 0.02800062 0.02262042 0.04513264
v 0.02797621 0.02164902 0.04549890
v 0.02797621 0.02068677 0.04552382
v 0.02797621 0.02038025 0.04549392
v 0.02866967 0.02070202 0.03942682
v 0.02887234 0.02038025 0.03939194
v 0.02754401 0.02218733 0.03966851
v 0.02584942 0.02437870 0.04029640
v 0.02722170 0.02277139 0.04029640
v 0.02811295 0.02172679 0.04029640
v 0.02858177 0.02038483 0.03837287
v 0.02763436 0.02038025 0.03526582
v 0.02751960 0.02038025 0.03489207
v 0.02746099 0.02038025 0.03471018
v 0.02758552 0.02127388 0.03741110
v 0.02774424 0.02145688 0.03837287
v 0.02591779 0.02459830 0.04126813
v 0.02552223 0.02496124 0.04095419
v 0.02549293 0.02590367 0.04414595
v 0.02586163 0.02533333 0.04492085
v 0.02706543 0.02361470 0.04515008
v 0.02701415 0.02260975 0.04551385
v 0.02613023 0.02461050 0.04515506
v 0.02518526 0.02559105 0.04515755
v 0.02028218 0.02838021 0.04552631
v 0.01547433 0.03126696 0.04552880
v 0.00681337 0.03415219 0.04552631
v 0.00585375 0.03415219 0.04552382
v 0.00509192 0.03415219 0.04551884
v 0.02605453 0.02357200 0.04551884
v 0.02509003 0.02453577 0.04552133
v 0.00509192 0.03329211 0.04505041
v 0.02703124 0.02038025 0.04517001
v 0.02858421 0.02038025 0.03837287
v 0.02658928 0.02219343 0.03676328
v 0.02570536 0.02421248 0.03933463
v 0.02542944 0.02486059 0.04029640
v 0.02572245 0.02038025 0.02939805
v 0.02476039 0.02038025 0.02646043
v 0.02494841 0.02533485 0.04029640
v 0.02187666 0.02899172 0.04487600
v 0.02289244 0.02807826 0.04490341
v 0.02391066 0.02716176 0.04491337
v 0.02492643 0.02624831 0.04491836
v 0.02442099 0.02581522 0.04029640
v 0.02463098 0.02599669 0.04166928
v 0.02501190 0.02632151 0.04414595
v 0.02418902 0.02652585 0.04515257
v 0.02124424 0.02838021 0.04548894
v 0.02220630 0.02741948 0.04550887
v 0.02316592 0.02645875 0.04551635
v 0.02412797 0.02549650 0.04552133
v 0.01932013 0.02934246 0.04551884
v 0.01739845 0.03030471 0.04552382
v 0.01643639 0.03126696 0.04551385
v 0.01162366 0.03319146 0.04552133
v 0.01066160 0.03319146 0.04552631
v 0.00777787 0.03415219 0.04552382
v 0.00509192 0.03511444 0.04549392
v 0.02644766 0.02038025 0.04472401
v 0.00509192 0.03285597 0.04414595
v 0.02301453 0.02073252 0.02205275
v 0.02530002 0.02354760 0.03635964
v 0.02465296 0.02410116 0.03583640
v 0.02527805 0.02469285 0.03933463
v 0.02479702 0.02519151 0.03933463
v 0.02298767 0.02038025 0.02105859
v 0.02291197 0.02047023 0.02105859
v 0.02080961 0.02985332 0.04472152
v 0.02028218 0.03001649 0.04491587
v 0.02117587 0.02932568 0.04501304
v 0.02220142 0.02838936 0.04512267
v 0.02188154 0.02899476 0.04414595
v 0.02319522 0.02745760 0.04514509
v 0.02425250 0.02567340 0.03933463
v 0.02175946 0.02793034 0.03972831
v 0.02233327 0.02759790 0.04029640
v 0.02200119 0.02813621 0.04126066
v 0.02417925 0.02628948 0.04131298
v 0.02430134 0.02667682 0.04318419
v 0.02028218 0.02934246 0.04536436
v 0.01835807 0.03030471 0.04547399
v 0.01450983 0.03222768 0.04550638
v 0.01547433 0.03222921 0.04531203
v 0.01468808 0.03222921 0.04547150
v 0.01258572 0.03319146 0.04546402
v 0.00970199 0.03415219 0.04547897
v 0.00873749 0.03415219 0.04551385
v 0.00585375 0.03511444 0.04546402
v 0.00509192 0.03582507 0.04504294
v 0.00509192 0.02581369 0.02007689
v 0.01661953 0.02038025 0.02007440
v 0.02249931 0.02095059 0.02105859
v 0.02261408 0.02108479 0.02175624
v 0.02265314 0.02209584 0.02451447
v 0.02365427 0.02309926 0.03018042
v 0.02456261 0.02497192 0.03801657
v 0.02467737 0.02508019 0.03865691
v 0.02267756 0.02308249 0.02733748
v 0.02275570 0.02038025 0.02039582
v 0.02080961 0.02985332 0.04449977
v 0.01597734 0.03272025 0.04466421
v 0.01900514 0.03088724 0.04486105
v 0.01835807 0.03108549 0.04502550
v 0.01932257 0.03034436 0.04512018
v 0.02185224 0.02800811 0.04029640
v 0.02177899 0.02890784 0.04348817
v 0.02083158 0.02891242 0.04056549
v 0.02117587 0.02951783 0.04416589
v 0.02107576 0.02239625 0.02105859
v 0.02151040 0.02675612 0.03548757
v 0.02236013 0.02666005 0.03741110
v 0.02071926 0.02883312 0.03992515
v 0.02118808 0.02854643 0.04026650
v 0.02087309 0.02799134 0.03760794
v 0.02128575 0.02820788 0.03937699
v 0.01450983 0.03302371 0.04505540
v 0.01258572 0.03390362 0.04501304
v 0.01720067 0.03192269 0.04490839
v 0.01635337 0.03223683 0.04499809
v 0.01468808 0.03298712 0.04502051
v 0.01066160 0.03415219 0.04533446
v 0.00970199 0.03484604 0.04502799
v 0.00585375 0.03577627 0.04501304
v 0.00509192 0.03595774 0.04414595
v 0.00509192 0.03006224 0.02007689
v 0.01468808 0.02182592 0.02007440
v 0.02263117 0.02038025 0.02007440
v 0.02202073 0.02149043 0.02105859
v 0.02184248 0.02129523 0.02007440
v 0.02167399 0.02208211 0.02167402
v 0.02271175 0.02038025 0.02027871
v 0.02035300 0.02914269 0.04026650
v 0.02007952 0.02999514 0.04318419
v 0.01725194 0.03195319 0.04414595
v 0.01597734 0.03272025 0.04457950
v 0.01121100 0.03465847 0.04471903
v 0.01328162 0.03376027 0.04485108
v 0.01547433 0.03282395 0.04486105
v 0.02142493 0.02861505 0.04126066
v 0.02167888 0.02882244 0.04284533
v 0.02155679 0.02197231 0.02105859
v 0.02090972 0.02225443 0.02026376
v 0.01989150 0.02316941 0.02037339
v 0.01887572 0.02408591 0.02049548
v 0.02003068 0.02328836 0.02105859
v 0.01886840 0.02504206 0.02338576
v 0.01886107 0.02599517 0.02629349
v 0.01983290 0.02792272 0.03492945
v 0.02010393 0.02904661 0.03933463
v 0.01891479 0.02987009 0.03965855
v 0.01730078 0.03102144 0.04029640
v 0.01066160 0.03473015 0.04488348
v 0.00681337 0.03567258 0.04484112
v 0.00585375 0.03585709 0.04414595
v 0.00548016 0.03561615 0.04259866
v 0.00509192 0.03573205 0.04298237
v 0.00509192 0.03007139 0.02009932
v 0.00568039 0.02994329 0.02007689
v 0.01468808 0.02670732 0.02007440
v 0.02242850 0.02061815 0.02007440
v 0.02125889 0.02185794 0.02007440
v 0.01787460 0.03078507 0.04078476
v 0.01749368 0.03110836 0.04116598
v 0.02018695 0.02949953 0.04135285
v 0.01706881 0.03184034 0.04318419
v 0.01635337 0.03245338 0.04421323
v 0.01468808 0.03316401 0.04415841
v 0.01258572 0.03403019 0.04414595
v 0.01121100 0.03465847 0.04449977
v 0.01605548 0.03180222 0.04053061
v 0.01591630 0.03173055 0.03989027
v 0.01547433 0.03221244 0.04126066
v 0.01581374 0.03265010 0.04393915
v 0.01468564 0.03310454 0.04387437
v 0.00735056 0.03560853 0.04467667
v 0.02114413 0.02196469 0.02007440
v 0.02050194 0.02253045 0.02007440
v 0.01783064 0.02498564 0.02067239
v 0.01831656 0.02471420 0.02102122
v 0.01859492 0.02481942 0.02202036
v 0.01874143 0.02493684 0.02274043
v 0.01898560 0.02417893 0.02105859
v 0.01935187 0.02351405 0.02007440
v 0.01922734 0.02361927 0.02007440
v 0.01846306 0.02426128 0.02007440
v 0.01838737 0.02434820 0.02014416
v 0.01838004 0.02618883 0.02592971
v 0.01709323 0.03089334 0.03933463
v 0.01639977 0.03153993 0.04024657
v 0.01668545 0.03161617 0.04126066
v 0.01682952 0.03169700 0.04195831
v 0.01695649 0.03177172 0.04259866
v 0.00643489 0.03562073 0.04354548
v 0.00612235 0.03555363 0.04290513
v 0.00582201 0.03548043 0.04225481
v 0.00735056 0.03560853 0.04456206
v 0.00677918 0.03567258 0.04420326
v 0.00585375 0.03507631 0.04029640
v 0.00509192 0.03518306 0.04029640
v 0.00509192 0.03563598 0.04250398
v 0.00509192 0.03033978 0.02106108
v 0.00585375 0.03018271 0.02106108
v 0.00580003 0.02992804 0.02010928
v 0.00577806 0.02992347 0.02007689
v 0.00673767 0.02969320 0.02007689
v 0.00875946 0.02920521 0.02007689
v 0.00960187 0.02895359 0.02007689
v 0.00975082 0.02889869 0.02007689
v 0.01036859 0.02865622 0.02007689
v 0.01168959 0.02811486 0.02007689
v 0.01259304 0.02774125 0.02007689
v 0.01293001 0.02759485 0.02007689
v 0.01356975 0.02731426 0.02007689
v 0.01417043 0.02702299 0.02007689
v 0.01468808 0.02671647 0.02009433
v 0.01554515 0.02618578 0.02007440
v 0.01261014 0.03382279 0.04322655
v 0.01197039 0.03361540 0.04103641
v 0.01129402 0.03373282 0.04029640
v 0.01156994 0.03444803 0.04416589
v 0.01115972 0.03367792 0.03979060
v 0.01097659 0.03459290 0.04385942
v 0.01065916 0.03473167 0.04416589
v 0.01468808 0.03232833 0.04028893
v 0.01643639 0.03128068 0.03933463
v 0.01600908 0.03081862 0.03681311
v 0.01396776 0.02787697 0.02259592
v 0.01500307 0.03079117 0.03498925
v 0.01525946 0.03185712 0.03933463
v 0.01468808 0.03248540 0.04101150
v 0.01468808 0.03273397 0.04216263
v 0.01251002 0.03345376 0.04131796
v 0.01836295 0.02433906 0.02007440
v 0.01767925 0.02486212 0.02007440
v 0.01766705 0.02488042 0.02009682
v 0.01764507 0.02488652 0.02007440
v 0.01718357 0.02517778 0.02007440
v 0.01602618 0.02602261 0.02044565
v 0.01539131 0.02661735 0.02112836
v 0.01746682 0.02531351 0.02102122
v 0.01637291 0.03049838 0.03647425
v 0.00873749 0.03519069 0.04414595
v 0.00942118 0.03468288 0.04246660
v 0.00681337 0.03506107 0.04125817
v 0.00970199 0.03495889 0.04414595
v 0.00681337 0.03486130 0.04029640
v 0.00681337 0.03469660 0.03956885
v 0.00594410 0.03481097 0.03924244
v 0.00568527 0.03470270 0.03858216
v 0.00509192 0.03491924 0.03914278
v 0.00509192 0.03075000 0.02264326
v 0.00555097 0.03082929 0.02329607
v 0.00714301 0.02978775 0.02072222
v 0.00650082 0.02986247 0.02044316
v 0.00585375 0.03043128 0.02202285
v 0.00681825 0.02968405 0.02010928
v 0.00873749 0.02921741 0.02009682
v 0.00965559 0.02896579 0.02016908
v 0.01021232 0.02887582 0.02053784
v 0.01058346 0.02859980 0.02016908
v 0.01226829 0.02796847 0.02036592
v 0.01291047 0.02783579 0.02082189
v 0.01354778 0.02733103 0.02009682
v 0.01348429 0.02766805 0.02110842
v 0.01452937 0.02713736 0.02112836
v 0.01468808 0.02690099 0.02065744
v 0.01631675 0.02571305 0.02007440
v 0.01177505 0.03353610 0.04029640
v 0.01066160 0.03392344 0.04029640
v 0.01468808 0.03180374 0.03825576
v 0.01162610 0.03285597 0.03745844
v 0.01212178 0.02886972 0.02344058
v 0.01027336 0.02986247 0.02428773
v 0.01033440 0.03084759 0.02804011
v 0.01009999 0.03076220 0.02739977
v 0.01016104 0.03174275 0.03118205
v 0.01022208 0.03368402 0.03880890
v 0.01059079 0.03373740 0.03941686
v 0.01066160 0.03412626 0.04125817
v 0.00970199 0.03416744 0.04029640
v 0.00970199 0.03436721 0.04125817
v 0.01510319 0.02796847 0.02515731
v 0.01503970 0.02888802 0.02817964
v 0.01258816 0.02804776 0.02110842
v 0.01330116 0.02799896 0.02202285
v 0.01486145 0.02685829 0.02085428
v 0.01468808 0.02707789 0.02124546
v 0.00800984 0.03457460 0.04029640
v 0.00731149 0.03463713 0.03980057
v 0.00632746 0.03463255 0.03885873
v 0.00565353 0.03373740 0.03474258
v 0.00520180 0.03365657 0.03410223
v 0.00521157 0.03462187 0.03794182
v 0.00509192 0.03466457 0.03807636
v 0.00509192 0.03362607 0.03394027
v 0.00561934 0.03276905 0.03093039
v 0.00585375 0.03338818 0.03356155
v 0.00846889 0.02987467 0.02230440
v 0.00873749 0.02949038 0.02106108
v 0.00758741 0.03277972 0.03280908
v 0.00924537 0.03367792 0.03786707
v 0.00970199 0.03295814 0.03548757
v 0.00970199 0.02920216 0.02106108
v 0.01086427 0.02874772 0.02106108
v 0.01468808 0.02700469 0.02099630
v 0.00939676 0.02987924 0.02324623
v 0.00911108 0.02979689 0.02260589
v 0.00978501 0.03193032 0.03155828
v 0.00970199 0.03394327 0.03933463
v 0.00768997 0.03444956 0.03942184
v 0.00509192 0.03369775 0.03422432
f 1 2 3
f 1 3 4
f 1 4 5
f 1 5 16
f 1 16 33
f 1 33 62
f 1 62 89
f 1 89 121
f 1 121 157
f 1 157 161
f 1 161 129
f 1 129 96
f 1 96 68
f 1 68 67
f 1 67 43
f 1 43 42
f 1 42 41
f 1 41 63
f 1 63 35
f 1 35 18
f 1 18 17
f 1 17 6
f 1 6 2
f 2 6 7
f 2 7 8
f 2 8 3
f 3 8 9
f 3 9 10
f 3 10 11
f 3 11 12
f 3 12 13
f 3 13 14
f 3 14 4
f 4 14 15
f 4 15 5
f 5 15 16
f 6 17 7
f 7 17 18
f 7 18 19
f 7 19 20
f 7 20 21
f 7 21 9
f 7 9 8
f 9 21 10
f 10 21 22
f 10 22 23
f 10 23 24
f 10 24 11
f 11 24 12
f 12 24 25
f 12 25 26
f 12 26 27
f 12 27 28
f 12 28 29
f 12 29 13
f 13 29 30
f 13 30 14
f 14 30 15
f 15 30 31
f 15 31 16
f 16 31 32
f 16 32 33
f 18 34 19
f 18 35 34
f 19 34 20
f 20 36 37
f 20 37 38
f 20 38 39
f 20 39 22
f 20 22 21
f 20 34 40
f 20 40 41
f 20 41 42
f 20 42 43
f 20 43 44
f 20 44 45
f 20 45 36
f 22 39 38
f 22 38 23
f 23 38 37
f 23 37 24
f 24 37 46
f 24 46 25
f 25 46 37
f 25 37 47
f 25 47 48
f 25 48 26
f 26 48 27
f 27 48 49
f 27 49 28
f 28 49 50
f 28 50 30
f 28 30 29
f 30 50 31
f 31 51 32
f 31 50 52
f 31 52 53
f 31 53 51
f 32 54 55
f 32 55 56
f 32 56 57
f 32 57 58
f 32 58 33
f 32 51 59
f 32 59 60
f 32 60 54
f 33 58 61
f 33 61 62
f 34 35 40
f 35 63 40
f 36 45 64
f 36 64 65
f 36 65 37
f 37 66 47
f 37 65 66
f 40 63 41
f 43 67 44
f 44 64 45
f 44 67 68
f 44 68 64
f 47 66 69
f 47 69 48
f 48 70 71
f 48 71 72
f 48 72 73
f 48 73 49
f 48 69 74
f 48 74 75
f 48 75 76
f 48 76 70
f 49 73 53
f 49 53 52
f 49 52 50
f 51 53 59
f 53 77 78
f 53 78 79
f 53 79 80
f 53 80 81
f 53 81 60
f 53 60 59
f 53 73 77
f 54 60 81
f 54 81 80
f 54 80 79
f 54 79 82
f 54 82 83
f 54 83 55
f 55 83 84
f 55 84 85
f 55 85 86
f 55 86 56
f 56 86 87
f 56 87 88
f 56 88 57
f 57 88 58
f 58 88 119
f 58 119 154
f 58 154 186
f 58 186 230
f 58 230 229
f 58 229 280
f 58 280 324
f 58 324 341
f 58 341 325
f 58 325 281
f 58 281 231
f 58 231 187
f 58 187 155
f 58 155 120
f 58 120 90
f 58 90 61
f 61 89 62
f 61 90 89
f 64 68 91
f 64 91 92
f 64 92 65
f 65 92 93
f 65 93 94
f 65 94 66
f 66 94 95
f 66 95 69
f 68 96 97
f 68 97 91
f 69 95 74
f 70 98 99
f 70 99 100
f 70 100 101
f 70 101 71
f 70 76 102
f 70 102 98
f 71 101 72
f 72 101 73
f 73 101 103
f 73 103 77
f 74 95 104
f 74 104 105
f 74 105 106
f 74 106 107
f 74 107 108
f 74 108 75
f 75 108 109
f 75 109 76
f 76 109 102
f 77 103 78
f 78 103 101
f 78 101 110
f 78 110 111
f 78 111 84
f 78 84 82
f 78 82 79
f 82 84 83
f 84 112 85
f 84 111 113
f 84 113 114
f 84 114 112
f 85 87 86
f 85 112 115
f 85 115 116
f 85 116 117
f 85 117 87
f 87 117 88
f 88 117 116
f 88 116 118
f 88 118 119
f 89 90 120
f 89 120 121
f 91 97 122
f 91 122 123
f 91 123 124
f 91 124 125
f 91 125 92
f 92 125 93
f 93 126 127
f 93 127 94
f 93 125 128
f 93 128 126
f 94 127 95
f 95 127 104
f 96 129 97
f 97 129 122
f 98 130 165
f 98 165 131
f 98 131 132
f 98 132 99
f 98 102 130
f 99 132 133
f 99 133 100
f 100 133 134
f 100 134 110
f 100 110 101
f 102 109 107
f 102 107 135
f 102 135 136
f 102 136 137
f 102 137 138
f 102 138 130
f 104 127 126
f 104 126 128
f 104 128 139
f 104 139 140
f 104 140 141
f 104 141 105
f 105 142 143
f 105 143 135
f 105 135 106
f 105 141 140
f 105 140 144
f 105 144 145
f 105 145 142
f 106 135 107
f 107 109 108
f 110 134 111
f 111 134 133
f 111 133 113
f 112 114 115
f 113 146 147
f 113 147 115
f 113 115 114
f 113 133 148
f 113 148 149
f 113 149 150
f 113 150 146
f 115 151 116
f 115 147 151
f 116 151 118
f 118 151 152
f 118 152 153
f 118 153 119
f 119 153 154
f 120 155 189
f 120 189 156
f 120 156 121
f 121 156 189
f 121 189 246
f 121 246 297
f 121 297 267
f 121 267 266
f 121 266 264
f 121 264 263
f 121 263 215
f 121 215 214
f 121 214 213
f 121 213 207
f 121 207 206
f 121 206 191
f 121 191 159
f 121 159 190
f 121 190 157
f 122 158 124
f 122 124 123
f 122 129 159
f 122 159 158
f 124 128 125
f 124 158 160
f 124 160 128
f 128 160 139
f 129 161 159
f 130 138 137
f 130 137 142
f 130 142 162
f 130 162 163
f 130 163 164
f 130 164 165
f 131 166 167
f 131 167 168
f 131 168 148
f 131 148 132
f 131 165 199
f 131 199 166
f 132 148 133
f 135 143 169
f 135 169 170
f 135 170 136
f 136 170 137
f 137 170 169
f 137 169 143
f 137 143 142
f 139 160 171
f 139 171 172
f 139 172 173
f 139 173 174
f 139 174 175
f 139 175 140
f 140 175 176
f 140 176 144
f 142 145 144
f 142 144 177
f 142 177 178
f 142 178 179
f 142 179 180
f 142 180 181
f 142 181 162
f 144 176 177
f 146 150 147
f 147 150 168
f 147 168 167
f 147 167 166
f 147 166 182
f 147 182 151
f 148 168 149
f 149 168 150
f 151 182 152
f 152 182 153
f 153 182 183
f 153 183 154
f 154 183 184
f 154 184 185
f 154 185 186
f 155 187 188
f 155 188 189
f 157 190 161
f 158 159 171
f 158 171 160
f 159 161 190
f 159 191 171
f 162 181 192
f 162 192 193
f 162 193 194
f 162 194 163
f 163 194 193
f 163 193 164
f 164 193 195
f 164 195 196
f 164 196 165
f 165 197 198
f 165 198 199
f 165 196 200
f 165 200 201
f 165 201 202
f 165 202 203
f 165 203 204
f 165 204 197
f 166 199 226
f 166 226 205
f 166 205 182
f 171 191 206
f 171 206 172
f 172 206 207
f 172 207 173
f 173 207 174
f 174 208 209
f 174 209 210
f 174 210 211
f 174 211 212
f 174 212 175
f 174 207 213
f 174 213 214
f 174 214 215
f 174 215 216
f 174 216 208
f 175 212 176
f 176 212 211
f 176 211 177
f 177 217 179
f 177 179 178
f 177 211 210
f 177 210 208
f 177 208 217
f 179 217 218
f 179 218 180
f 180 218 181
f 181 219 220
f 181 220 221
f 181 221 222
f 181 222 193
f 181 193 192
f 181 218 219
f 182 205 183
f 183 205 184
f 184 223 224
f 184 224 225
f 184 225 185
f 184 205 226
f 184 226 227
f 184 227 223
f 185 225 228
f 185 228 229
f 185 229 230
f 185 230 186
f 187 231 232
f 187 232 233
f 187 233 234
f 187 234 188
f 188 234 189
f 189 234 235
f 189 235 236
f 189 236 237
f 189 237 238
f 189 238 239
f 189 239 240
f 189 240 241
f 189 241 242
f 189 242 243
f 189 243 244
f 189 244 245
f 189 245 246
f 193 222 195
f 195 222 200
f 195 200 196
f 197 204 198
f 198 204 247
f 198 247 248
f 198 248 249
f 198 249 250
f 198 250 199
f 199 250 251
f 199 251 252
f 199 252 253
f 199 253 226
f 200 222 221
f 200 221 220
f 200 220 219
f 200 219 201
f 201 251 254
f 201 254 202
f 201 219 255
f 201 255 256
f 201 256 257
f 201 257 258
f 201 258 259
f 201 259 251
f 202 254 260
f 202 260 203
f 203 260 261
f 203 261 204
f 204 261 262
f 204 262 247
f 208 210 209
f 208 216 263
f 208 263 264
f 208 264 265
f 208 265 266
f 208 266 267
f 208 267 268
f 208 268 269
f 208 269 270
f 208 270 217
f 215 263 216
f 217 270 269
f 217 269 218
f 218 269 271
f 218 271 256
f 218 256 255
f 218 255 219
f 223 227 272
f 223 272 273
f 223 273 274
f 223 274 228
f 223 228 224
f 224 228 225
f 226 253 275
f 226 275 272
f 226 272 227
f 228 274 276
f 228 276 277
f 228 277 278
f 228 278 279
f 228 279 280
f 228 280 229
f 231 281 282
f 231 282 232
f 232 283 284
f 232 284 233
f 232 282 285
f 232 285 283
f 233 284 234
f 234 284 286
f 234 286 235
f 235 286 287
f 235 287 236
f 236 287 288
f 236 288 237
f 237 288 238
f 238 288 289
f 238 289 239
f 239 290 240
f 239 289 290
f 240 290 289
f 240 289 241
f 241 289 291
f 241 291 292
f 241 292 242
f 242 293 243
f 242 292 293
f 243 293 244
f 244 293 294
f 244 294 257
f 244 257 295
f 244 295 296
f 244 296 245
f 245 296 268
f 245 268 246
f 246 268 297
f 247 262 248
f 248 298 249
f 248 262 298
f 249 298 251
f 249 251 250
f 251 299 252
f 251 298 254
f 251 259 300
f 251 300 301
f 251 301 314
f 251 314 302
f 251 302 303
f 251 303 304
f 251 304 305
f 251 305 306
f 251 306 307
f 251 307 308
f 251 308 299
f 252 299 309
f 252 309 310
f 252 310 311
f 252 311 273
f 252 273 275
f 252 275 253
f 254 298 260
f 256 271 312
f 256 312 313
f 256 313 257
f 257 313 295
f 257 294 292
f 257 292 314
f 257 314 315
f 257 315 300
f 257 300 258
f 258 300 259
f 260 298 262
f 260 262 261
f 264 266 265
f 267 297 268
f 268 296 316
f 268 316 269
f 269 316 317
f 269 317 312
f 269 312 271
f 272 275 273
f 273 311 274
f 274 318 276
f 274 311 318
f 276 318 319
f 276 319 277
f 277 319 320
f 277 320 278
f 278 320 279
f 279 320 321
f 279 321 322
f 279 322 323
f 279 323 280
f 280 323 324
f 281 325 322
f 281 322 321
f 281 321 326
f 281 326 282
f 282 326 327
f 282 327 285
f 283 285 328
f 283 328 329
f 283 329 287
f 283 287 284
f 284 287 286
f 285 327 320
f 285 320 330
f 285 330 331
f 285 331 332
f 285 332 328
f 287 329 288
f 288 329 333
f 288 333 289
f 289 334 314
f 289 314 292
f 289 292 291
f 289 333 303
f 289 303 334
f 292 294 293
f 295 317 335
f 295 335 296
f 295 313 317
f 296 335 316
f 299 308 310
f 299 310 309
f 300 315 314
f 300 314 301
f 302 314 303
f 303 314 334
f 303 333 305
f 303 305 304
f 305 333 336
f 305 336 306
f 306 336 337
f 306 337 338
f 306 338 307
f 307 339 308
f 307 338 332
f 307 332 331
f 307 331 340
f 307 340 339
f 308 339 310
f 310 319 318
f 310 318 311
f 310 339 319
f 312 317 313
f 316 335 317
f 319 340 320
f 319 339 340
f 320 331 330
f 320 327 321
f 320 340 331
f 321 327 326
f 322 325 341
f 322 341 323
f 323 341 324
f 328 337 329
f 328 332 338
f 328 338 337
f 329 337 333
f 333 337 336

