# https://github.com/mikedh/trimesh
v 0.03567595 -0.00048100 0.00839270
v 0.03567595 -0.00144298 0.00864719
v 0.03481883 -0.00144298 0.00877619
v 0.03477663 -0.00048100 0.00864836
v 0.03567595 0.00048098 0.00839270
v 0.04529689 -0.00048100 0.00951033
v 0.04721950 -0.00117542 0.00989499
v 0.04625688 -0.00133008 0.00982345
v 0.03567595 -0.00204306 0.00895562
v 0.03497179 -0.00206626 0.00893920
v 0.04531799 -0.00152109 0.00979765
v 0.04565029 -0.00189459 0.01000757
v 0.03417532 -0.00298262 0.00989616
v 0.03433884 -0.00144298 0.00920776
v 0.03477663 0.00048098 0.00864836
v 0.03429400 -0.00048100 0.00920776
v 0.03481883 0.00144296 0.00877619
v 0.03567595 0.00144296 0.00864719
v 0.04625688 0.00133006 0.00982345
v 0.04721950 0.00117540 0.00989499
v 0.04529689 0.00048098 0.00951033
v 0.04625688 -0.00048100 0.00962878
v 0.04788147 -0.00104705 0.00995480
v 0.04721950 -0.00165641 0.01012485
v 0.04625688 -0.00181107 0.01004862
v 0.03567595 -0.00252405 0.00934028
v 0.04500943 -0.00196109 0.00997239
v 0.04531799 -0.00233150 0.01029959
v 0.04433691 -0.00249544 0.01031600
v 0.03471597 -0.00304757 0.00980469
v 0.04715620 -0.00247379 0.01067017
v 0.04625688 -0.00240496 0.01048136
v 0.03471597 -0.00347675 0.01047433
v 0.03411994 -0.00390129 0.01167756
v 0.03407247 -0.00317362 0.01047433
v 0.03324435 -0.00298030 0.01278346
v 0.03390895 -0.00240496 0.01047433
v 0.03414367 -0.00240496 0.00976951
v 0.03429400 0.00048098 0.00920776
v 0.03433884 0.00144296 0.00920776
v 0.03414104 -0.00144298 0.00968976
v 0.03414104 -0.00048100 0.00968859
v 0.03497179 0.00206624 0.00893920
v 0.03417532 0.00298259 0.00989616
v 0.03567595 0.00204304 0.00895562
v 0.04565029 0.00189457 0.01000757
v 0.04531799 0.00152106 0.00979765
v 0.04625688 0.00181105 0.01004862
v 0.04721950 0.00165639 0.01012485
v 0.04788147 0.00104703 0.00995480
v 0.04625688 0.00048098 0.00962878
v 0.04721950 -0.00048100 0.00977537
v 0.04801333 -0.00048100 0.00992548
v 0.04849332 -0.00048100 0.01003220
v 0.04914474 -0.00048100 0.01020811
v 0.05080625 -0.00114062 0.01086954
v 0.04914474 -0.00144298 0.01046494
v 0.04819531 -0.00139736 0.01019639
v 0.04914474 -0.00211730 0.01082732
v 0.04818212 -0.00227428 0.01070418
v 0.03567595 -0.00301896 0.00982111
v 0.04625688 -0.00292539 0.01090707
v 0.04529689 -0.00297334 0.01084609
v 0.04679489 -0.00289369 0.01094577
v 0.04743576 -0.00283956 0.01100558
v 0.03567595 -0.00343113 0.01047433
v 0.03471597 -0.00379535 0.01113810
v 0.03413049 -0.00389201 0.01239880
v 0.03316259 -0.00308160 0.01336045
v 0.03391950 -0.00344273 0.01138907
v 0.03471597 -0.00391444 0.01161892
v 0.03471597 -0.00393609 0.01239880
v 0.03304655 -0.00240496 0.01336045
v 0.03322852 -0.00240496 0.01273538
v 0.03361885 -0.00240496 0.01143598
v 0.03414104 0.00048098 0.00968859
v 0.03414104 0.00144296 0.00968976
v 0.03414367 0.00240494 0.00976951
v 0.03304127 -0.00144298 0.01336045
v 0.03567595 0.00252403 0.00934028
v 0.03471597 0.00304832 0.00980469
v 0.03390895 0.00240494 0.01047433
v 0.03324435 0.00298027 0.01278346
v 0.03407247 0.00317360 0.01047433
v 0.03411994 0.00390127 0.01167756
v 0.03471597 0.00347673 0.01047433
v 0.04433691 0.00249542 0.01031600
v 0.04531799 0.00233148 0.01029841
v 0.04500943 0.00196107 0.00997239
v 0.04625688 0.00240494 0.01048136
v 0.04715620 0.00247377 0.01067017
v 0.04818212 0.00227425 0.01070418
v 0.04914474 0.00211728 0.01082732
v 0.04819531 0.00139734 0.01019639
v 0.04801333 0.00048098 0.00992548
v 0.04721950 0.00048098 0.00977537
v 0.04914474 0.00144296 0.01046494
v 0.05080625 0.00114060 0.01086954
v 0.04914474 0.00048098 0.01020811
v 0.04849332 0.00048098 0.01003220
v 0.05010472 -0.00048100 0.01050834
v 0.05205634 -0.00147159 0.01162127
v 0.05110163 -0.00145381 0.01115452
v 0.05038164 -0.00178246 0.01102903
v 0.05007835 -0.00145381 0.01076282
v 0.05093812 -0.00048100 0.01081442
v 0.05141811 -0.00048100 0.01101144
v 0.05269721 -0.00117078 0.01180774
v 0.04973814 -0.00198970 0.01091645
v 0.04914474 -0.00259829 0.01121667
v 0.04818212 -0.00275527 0.01108767
v 0.04625688 -0.00330199 0.01143598
v 0.04529689 -0.00337236 0.01143598
v 0.04715620 -0.00316125 0.01137030
v 0.04818212 -0.00315506 0.01156850
v 0.04433691 -0.00342649 0.01143598
v 0.04529689 -0.00376597 0.01225690
v 0.03421224 -0.00385335 0.01290308
v 0.03315468 -0.00305221 0.01407817
v 0.03300963 -0.00246296 0.01436901
v 0.03277490 -0.00144298 0.01432327
v 0.04625688 -0.00393377 0.01336045
v 0.03856382 -0.00393686 0.01245626
v 0.04529689 -0.00388041 0.01273889
v 0.04433691 -0.00389124 0.01268847
v 0.04719840 -0.00391830 0.01328891
v 0.04818212 -0.00392449 0.01348593
v 0.03471597 -0.00386959 0.01297579
v 0.05106735 -0.00394846 0.01528375
v 0.05395521 -0.00395001 0.01816987
v 0.05491519 -0.00394614 0.01913152
v 0.05512091 -0.00392526 0.02037229
v 0.05492047 -0.00391676 0.02037229
v 0.03275381 -0.00048100 0.01432327
v 0.03304127 0.00144296 0.01336045
v 0.03322852 0.00240494 0.01273538
v 0.03361885 0.00240494 0.01143598
v 0.03567595 0.00301894 0.00982111
v 0.04529689 0.00297331 0.01084609
v 0.04625688 0.00292537 0.01090707
v 0.03304655 0.00240494 0.01336045
v 0.03316259 0.00308158 0.01336045
v 0.03391950 0.00344271 0.01138907
v 0.03413049 0.00389199 0.01239880
v 0.03471597 0.00393607 0.01239880
v 0.03471597 0.00391442 0.01161892
v 0.03471597 0.00379533 0.01113810
v 0.03567595 0.00343111 0.01047433
v 0.04679489 0.00289367 0.01094577
v 0.04743576 0.00283953 0.01100558
v 0.04818212 0.00275524 0.01108767
v 0.04914474 0.00259827 0.01121667
v 0.04973814 0.00198968 0.01091645
v 0.05007835 0.00145379 0.01076282
v 0.05141811 0.00048098 0.01101144
v 0.05093812 0.00048098 0.01081442
v 0.05010472 0.00048098 0.01050834
v 0.05037901 0.00178244 0.01102903
v 0.05110163 0.00145379 0.01115452
v 0.05205634 0.00147157 0.01162127
v 0.05269721 0.00117076 0.01180774
v 0.05239656 -0.00181184 0.01198013
v 0.05175569 -0.00207709 0.01181008
v 0.05106735 -0.00226577 0.01165176
v 0.05202997 -0.00048100 0.01131518
v 0.05281061 -0.00048100 0.01173972
v 0.05329061 -0.00048100 0.01203173
v 0.05444311 -0.00097514 0.01287259
v 0.05390510 -0.00135405 0.01270019
v 0.05300841 -0.00147159 0.01216425
v 0.05013637 -0.00242894 0.01142425
v 0.05053197 -0.00286817 0.01193908
v 0.04989110 -0.00296096 0.01181829
v 0.04914474 -0.00305531 0.01169750
v 0.04625688 -0.00374431 0.01232257
v 0.04818212 -0.00360899 0.01239880
v 0.04914474 -0.00347521 0.01239880
v 0.04625688 -0.00386495 0.01280457
v 0.03471597 -0.00375359 0.01345661
v 0.03380346 -0.00314191 0.01436901
v 0.03351863 -0.00282254 0.01471849
v 0.03308083 -0.00218148 0.01499408
v 0.03298853 -0.00138344 0.01530251
v 0.03283556 -0.00048100 0.01528375
v 0.04914474 -0.00393996 0.01432327
v 0.04686346 -0.00385335 0.01285500
v 0.04750433 -0.00383943 0.01292067
v 0.04818212 -0.00382087 0.01300393
v 0.04914474 -0.00389356 0.01363253
v 0.05012583 -0.00391753 0.01426112
v 0.05106735 -0.00389975 0.01454375
v 0.05200623 -0.00390825 0.01527554
v 0.05301896 -0.00391289 0.01621725
v 0.05397631 -0.00391134 0.01720236
v 0.05489673 -0.00390129 0.01824376
v 0.05590683 -0.00391057 0.02013656
v 0.05589891 -0.00391830 0.02037229
v 0.05446158 -0.00384252 0.02037229
v 0.03275381 0.00048098 0.01432327
v 0.03283293 0.00048098 0.01528375
v 0.04529689 0.00337234 0.01143598
v 0.04625688 0.00330197 0.01143598
v 0.04715620 0.00316123 0.01137030
v 0.03277490 0.00144296 0.01432327
v 0.03300963 0.00246294 0.01436901
v 0.03315468 0.00305219 0.01407817
v 0.03421224 0.00385333 0.01290308
v 0.03856382 0.00393684 0.01245626
v 0.03471597 0.00386957 0.01297579
v 0.05492047 0.00391674 0.02037229
v 0.05491519 0.00394612 0.01913152
v 0.05395521 0.00394999 0.01816987
v 0.05106735 0.00394844 0.01528375
v 0.04625688 0.00393375 0.01336045
v 0.04818212 0.00392447 0.01348593
v 0.04719840 0.00391828 0.01328891
v 0.04433691 0.00389199 0.01268847
v 0.04529689 0.00388039 0.01273772
v 0.04529689 0.00376594 0.01225690
v 0.04433691 0.00342647 0.01143598
v 0.04818212 0.00315504 0.01156850
v 0.04914474 0.00305528 0.01169750
v 0.04989110 0.00296094 0.01181829
v 0.05053197 0.00286815 0.01193908
v 0.05013637 0.00242891 0.01142425
v 0.05106735 0.00226575 0.01165176
v 0.05202997 0.00048098 0.01131518
v 0.05175569 0.00207706 0.01181008
v 0.05239656 0.00181182 0.01198013
v 0.05300841 0.00147157 0.01216425
v 0.05390510 0.00135480 0.01270019
v 0.05444311 0.00097512 0.01287259
v 0.05329061 0.00048098 0.01203173
v 0.05281061 0.00048098 0.01173972
v 0.05354906 -0.00200362 0.01282450
v 0.05299259 -0.00220623 0.01264390
v 0.05210645 -0.00246992 0.01235423
v 0.05106735 -0.00274676 0.01206105
v 0.05395521 -0.00048100 0.01249145
v 0.05446158 -0.00048100 0.01285851
v 0.05494157 -0.00048100 0.01328305
v 0.05547695 -0.00048100 0.01376387
v 0.05544266 -0.00103314 0.01379788
v 0.05483080 -0.00132467 0.01343550
v 0.05418993 -0.00161620 0.01307313
v 0.05016802 -0.00322079 0.01231553
v 0.05181898 -0.00299344 0.01272834
v 0.05106735 -0.00312800 0.01254187
v 0.04719840 -0.00372885 0.01247972
v 0.04914474 -0.00378762 0.01315170
v 0.05106735 -0.00356413 0.01336045
v 0.05012583 -0.00374586 0.01340619
v 0.03471597 -0.00333911 0.01432327
v 0.05414510 -0.00377138 0.02037229
v 0.03380346 -0.00246296 0.01509494
v 0.05397104 -0.00371029 0.02037229
v 0.03375335 -0.00166183 0.01563440
v 0.03321270 -0.00102231 0.01579272
v 0.03316523 -0.00048100 0.01581617
v 0.04981990 -0.00386572 0.01375684
v 0.05106735 -0.00380308 0.01406410
v 0.05167129 -0.00386417 0.01472083
v 0.05046076 -0.00383634 0.01389991
v 0.05271567 -0.00387887 0.01558984
v 0.05366774 -0.00388119 0.01651865
v 0.05456443 -0.00387191 0.01751900
v 0.05542156 -0.00385257 0.01861434
v 0.05556925 -0.00388273 0.01913152
v 0.05623913 -0.00387423 0.02037229
v 0.05606243 -0.00390284 0.02037229
v 0.03298853 0.00138342 0.01530251
v 0.03316523 0.00048098 0.01581617
v 0.03321270 0.00102229 0.01579272
v 0.04625688 0.00374429 0.01232257
v 0.04818212 0.00360896 0.01239880
v 0.03308083 0.00218146 0.01499408
v 0.03351863 0.00282252 0.01471849
v 0.03380346 0.00314189 0.01436901
v 0.03471597 0.00375357 0.01345661
v 0.05459872 0.00386106 0.02037229
v 0.05589891 0.00391828 0.02037229
v 0.03471597 0.00333908 0.01432327
v 0.05590683 0.00391055 0.02013656
v 0.05489673 0.00390127 0.01824376
v 0.05397631 0.00391132 0.01720236
v 0.05301896 0.00391287 0.01621725
v 0.05200623 0.00390823 0.01527554
v 0.05106735 0.00389972 0.01454375
v 0.05012583 0.00391751 0.01426112
v 0.04914474 0.00393994 0.01432327
v 0.04914474 0.00389354 0.01363253
v 0.04818212 0.00382085 0.01300393
v 0.04750433 0.00383941 0.01292067
v 0.04686346 0.00385333 0.01285500
v 0.04625688 0.00386493 0.01280457
v 0.04914474 0.00347518 0.01239880
v 0.05016802 0.00322077 0.01231553
v 0.05106735 0.00312797 0.01254187
v 0.05181898 0.00299342 0.01272834
v 0.05106735 0.00274674 0.01206105
v 0.05210645 0.00246990 0.01235423
v 0.05299259 0.00220620 0.01264390
v 0.05354906 0.00200360 0.01282450
v 0.05418993 0.00161618 0.01307313
v 0.05483080 0.00132465 0.01343550
v 0.05544266 0.00103311 0.01379788
v 0.05547695 0.00048098 0.01376387
v 0.05494157 0.00048098 0.01328305
v 0.05446158 0.00048098 0.01285851
v 0.05395521 0.00048098 0.01249145
v 0.05457762 -0.00207786 0.01371462
v 0.05387345 -0.00236166 0.01342378
v 0.05299259 -0.00268722 0.01309306
v 0.05245985 -0.00286275 0.01291011
v 0.05595957 -0.00048100 0.01426463
v 0.05638418 -0.00100607 0.01477243
v 0.05581188 -0.00134013 0.01439246
v 0.05522112 -0.00167420 0.01401249
v 0.05209590 -0.00323007 0.01328305
v 0.05299259 -0.00345587 0.01432327
v 0.05200623 -0.00372653 0.01437018
v 0.05326951 -0.00343577 0.02037229
v 0.05299259 -0.00328807 0.02037229
v 0.05254161 -0.00302979 0.02037229
v 0.03375335 -0.00048100 0.01599209
v 0.05242556 -0.00294163 0.02037229
v 0.05191129 -0.00244440 0.02037229
v 0.05149459 -0.00197501 0.02037229
v 0.05132844 -0.00172678 0.02037229
v 0.05118866 -0.00151645 0.02037229
v 0.05114647 -0.00142984 0.02037229
v 0.05231216 -0.00382164 0.01494834
v 0.05335654 -0.00383015 0.01587716
v 0.05431125 -0.00382628 0.01687751
v 0.05520530 -0.00381236 0.01797285
v 0.05605188 -0.00378298 0.01913152
v 0.05624440 -0.00382474 0.01984455
v 0.05637363 -0.00385103 0.02037229
v 0.03375335 0.00048098 0.01599209
v 0.03375335 0.00166180 0.01563440
v 0.05114647 0.00142981 0.02037229
v 0.05132844 0.00172676 0.02037229
v 0.05167657 0.00216754 0.02037229
v 0.05191129 0.00244438 0.02037229
v 0.05212755 0.00266090 0.02037229
v 0.05242556 0.00294161 0.02037229
v 0.05299259 0.00328805 0.02037229
v 0.04719840 0.00372883 0.01247972
v 0.04914474 0.00378760 0.01315170
v 0.03380346 0.00246294 0.01509494
v 0.05396840 0.00371027 0.02037229
v 0.05433762 0.00381311 0.02037229
v 0.05623913 0.00387420 0.02037229
v 0.05556925 0.00388271 0.01913152
v 0.05542156 0.00385255 0.01861434
v 0.05456443 0.00387189 0.01751900
v 0.05366774 0.00388116 0.01651865
v 0.05271567 0.00387884 0.01558984
v 0.05167129 0.00386415 0.01472083
v 0.05106735 0.00380306 0.01406410
v 0.05046076 0.00383631 0.01389991
v 0.04981990 0.00386647 0.01375684
v 0.05012583 0.00374584 0.01340619
v 0.05106735 0.00356411 0.01336045
v 0.05209590 0.00323005 0.01328305
v 0.05245985 0.00286273 0.01291011
v 0.05299259 0.00268719 0.01309306
v 0.05387345 0.00236164 0.01342378
v 0.05457762 0.00207784 0.01371462
v 0.05522112 0.00167418 0.01401249
v 0.05581188 0.00134011 0.01439246
v 0.05638418 0.00100605 0.01477243
v 0.05595957 0.00048098 0.01426463
v 0.05554024 -0.00209023 0.01465281
v 0.05488618 -0.00240496 0.01435025
v 0.05419784 -0.00271969 0.01404768
v 0.05355698 -0.00292848 0.01377443
v 0.05299259 -0.00306227 0.01357389
v 0.05640792 -0.00048100 0.01474429
v 0.05618111 -0.00164713 0.01501285
v 0.05684044 -0.00048100 0.01528375
v 0.05727032 -0.00048100 0.01583494
v 0.05749977 -0.00127982 0.01646353
v 0.05715691 -0.00153732 0.01618324
v 0.05659517 -0.00137339 0.01531424
v 0.05390774 -0.00309010 0.01435025
v 0.05395521 -0.00351310 0.01528375
v 0.05301896 -0.00376751 0.01527554
v 0.05085109 -0.00048100 0.02037229
v 0.05397631 -0.00377292 0.01621725
v 0.05489673 -0.00374895 0.01720236
v 0.05579606 -0.00368864 0.01824376
v 0.05684044 -0.00348835 0.01913152
v 0.05676923 -0.00371261 0.02013656
v 0.05682725 -0.00372807 0.02037229
v 0.05085109 0.00048098 0.02037229
v 0.05087746 0.00058305 0.02037229
v 0.05652132 0.00380925 0.02037229
v 0.05624440 0.00382471 0.01984455
v 0.05605188 0.00378296 0.01913152
v 0.05520530 0.00381234 0.01797285
v 0.05431125 0.00382626 0.01687751
v 0.05335654 0.00383013 0.01587716
v 0.05231216 0.00382162 0.01494834
v 0.05200623 0.00372651 0.01437018
v 0.05299259 0.00345585 0.01432327
v 0.05299259 0.00306224 0.01357389
v 0.05355698 0.00292846 0.01377443
v 0.05419784 0.00271967 0.01404768
v 0.05488618 0.00240494 0.01435025
v 0.05554024 0.00209021 0.01465281
v 0.05618111 0.00164711 0.01501285
v 0.05640792 0.00048098 0.01474429
v 0.05659517 0.00137336 0.01531424
v 0.05715691 0.00153730 0.01618324
v 0.05749977 0.00127980 0.01646353
v 0.05727032 0.00048098 0.01583494
v 0.05684044 0.00048098 0.01528375
v 0.05519739 -0.00273129 0.01501636
v 0.05644748 -0.00203919 0.01565434
v 0.05583562 -0.00238563 0.01533535
v 0.05455388 -0.00295323 0.01468800
v 0.05759998 -0.00048100 0.01631576
v 0.05833580 -0.00106484 0.01759757
v 0.05732043 -0.00192088 0.01672974
v 0.05782943 -0.00149325 0.01716366
v 0.05489146 -0.00310170 0.01531541
v 0.05491519 -0.00348912 0.01624540
v 0.05587782 -0.00338396 0.01720822
v 0.05688264 -0.00317285 0.01816635
v 0.05758153 -0.00307309 0.01913152
v 0.05785844 -0.00317903 0.02009317
v 0.05784262 -0.00325172 0.02037229
v 0.05703296 -0.00364069 0.02037229
v 0.05682725 0.00372805 0.02037229
v 0.05676923 0.00371259 0.02013656
v 0.05684044 0.00348833 0.01913152
v 0.05579606 0.00368861 0.01824376
v 0.05489673 0.00374893 0.01720236
v 0.05397631 0.00377290 0.01621725
v 0.05301896 0.00376749 0.01527554
v 0.05395521 0.00351308 0.01528375
v 0.05390774 0.00309008 0.01435025
v 0.05455388 0.00295321 0.01468800
v 0.05519739 0.00273127 0.01501636
v 0.05583562 0.00238561 0.01533535
v 0.05644748 0.00203917 0.01565434
v 0.05732043 0.00192163 0.01672857
v 0.05782943 0.00149322 0.01716366
v 0.05833580 0.00106482 0.01759757
v 0.05759998 0.00048098 0.01631576
v 0.05613100 -0.00268103 0.01606245
v 0.05548749 -0.00294318 0.01565785
v 0.05661363 -0.00237790 0.01632866
v 0.05808261 -0.00048100 0.01705225
v 0.05837536 -0.00048100 0.01753307
v 0.05872084 -0.00048100 0.01816987
v 0.05929314 -0.00106020 0.01950211
v 0.05848085 -0.00140818 0.01820623
v 0.05816173 -0.00170668 0.01790835
v 0.05833843 -0.00200594 0.01854984
v 0.05752087 -0.00216833 0.01737006
v 0.05708307 -0.00245523 0.01711323
v 0.05583562 -0.00305453 0.01632866
v 0.05654506 -0.00301045 0.01720822
v 0.05741537 -0.00295246 0.01848534
v 0.05821712 -0.00282641 0.01977184
v 0.05834107 -0.00292848 0.02037229
v 0.05828569 -0.00296715 0.02037229
v 0.05803250 -0.00313418 0.02037229
v 0.05784262 0.00325170 0.02037229
v 0.05688264 0.00317283 0.01816635
v 0.05587782 0.00338394 0.01720822
v 0.05785844 0.00317901 0.02009317
v 0.05758153 0.00307307 0.01913152
v 0.05491519 0.00348910 0.01624540
v 0.05489146 0.00310168 0.01531541
v 0.05548749 0.00294316 0.01565785
v 0.05613100 0.00268101 0.01606245
v 0.05661363 0.00237788 0.01632866
v 0.05708307 0.00245521 0.01711323
v 0.05752087 0.00216831 0.01737006
v 0.05833843 0.00200592 0.01854984
v 0.05816173 0.00170665 0.01790835
v 0.05837536 0.00048098 0.01753307
v 0.05808261 0.00048098 0.01705225
v 0.05848085 0.00140894 0.01820623
v 0.05929314 0.00106018 0.01950211
v 0.05872084 0.00048098 0.01816987
v 0.05637627 -0.00289678 0.01670394
v 0.05910853 -0.00048100 0.01894388
v 0.05932743 -0.00048100 0.01942471
v 0.05959643 -0.00048100 0.02009435
v 0.05969402 -0.00048100 0.02037229
v 0.05944875 -0.00141437 0.02037229
v 0.05938281 -0.00140586 0.02017292
v 0.05912963 -0.00170204 0.01990553
v 0.05895557 -0.00140586 0.01916201
v 0.05922194 -0.00187680 0.02037229
v 0.05847557 -0.00218148 0.01913152
v 0.05806151 -0.00266247 0.01913152
v 0.05778987 -0.00240806 0.01819685
v 0.05723076 -0.00280940 0.01784385
v 0.05873931 -0.00238486 0.02016002
v 0.05878942 -0.00242352 0.02037229
v 0.05828569 0.00296713 0.02037229
v 0.05654506 0.00301043 0.01720822
v 0.05741537 0.00295244 0.01848417
v 0.05583562 0.00305451 0.01632866
v 0.05821712 0.00282639 0.01977184
v 0.05637627 0.00289676 0.01670394
v 0.05723076 0.00280938 0.01784385
v 0.05778987 0.00240803 0.01819685
v 0.05806151 0.00266245 0.01913152
v 0.05847821 0.00218146 0.01913152
v 0.05912963 0.00170202 0.01990553
v 0.05895557 0.00140584 0.01916201
v 0.05938281 0.00140584 0.02017292
v 0.05944875 0.00141435 0.02037229
v 0.05950677 0.00119783 0.02037229
v 0.05969402 0.00048098 0.02037229
v 0.05959643 0.00048098 0.02009435
v 0.05932743 0.00048098 0.01942471
v 0.05910853 0.00048098 0.01894388
v 0.05931688 -0.00169044 0.02037229
v 0.05902150 -0.00214282 0.02037229
v 0.05841491 0.00284495 0.02037229
v 0.05878942 0.00242350 0.02037229
v 0.05873931 0.00238484 0.02016002
v 0.05902150 0.00214279 0.02037229
v 0.05931424 0.00169042 0.02037229
f 1 2 3
f 1 3 4
f 1 4 15
f 1 15 5
f 1 5 21
f 1 21 6
f 1 6 7
f 1 7 8
f 1 8 2
f 2 9 10
f 2 10 3
f 2 8 11
f 2 11 12
f 2 12 9
f 3 10 13
f 3 13 14
f 3 14 4
f 4 14 16
f 4 16 39
f 4 39 15
f 5 15 17
f 5 17 18
f 5 18 19
f 5 19 20
f 5 20 21
f 6 21 51
f 6 51 22
f 6 22 7
f 7 23 24
f 7 24 25
f 7 25 8
f 7 22 23
f 8 25 12
f 8 12 11
f 9 26 10
f 9 12 27
f 9 27 28
f 9 28 29
f 9 29 26
f 10 26 30
f 10 30 13
f 12 25 31
f 12 31 32
f 12 32 27
f 13 30 33
f 13 33 34
f 13 34 35
f 13 35 36
f 13 36 37
f 13 37 38
f 13 38 14
f 14 38 16
f 15 39 40
f 15 40 17
f 16 38 41
f 16 41 42
f 16 42 76
f 16 76 39
f 17 43 18
f 17 40 44
f 17 44 43
f 18 43 45
f 18 45 46
f 18 46 47
f 18 47 19
f 19 47 46
f 19 46 48
f 19 48 20
f 20 49 50
f 20 50 51
f 20 51 21
f 20 48 49
f 22 51 96
f 22 96 52
f 22 52 23
f 23 52 53
f 23 53 54
f 23 54 55
f 23 55 56
f 23 56 57
f 23 57 58
f 23 58 24
f 24 58 59
f 24 59 60
f 24 60 25
f 25 60 31
f 26 61 30
f 26 29 62
f 26 62 63
f 26 63 61
f 27 32 28
f 28 32 64
f 28 64 29
f 29 64 62
f 30 61 33
f 31 60 65
f 31 65 64
f 31 64 32
f 33 61 66
f 33 66 67
f 33 67 34
f 34 68 69
f 34 69 36
f 34 36 70
f 34 70 35
f 34 67 71
f 34 71 72
f 34 72 68
f 35 70 36
f 36 69 73
f 36 73 74
f 36 74 75
f 36 75 37
f 37 75 41
f 37 41 38
f 39 76 77
f 39 77 78
f 39 78 40
f 40 78 44
f 41 75 74
f 41 74 42
f 42 74 79
f 42 79 135
f 42 135 76
f 43 80 45
f 43 44 81
f 43 81 80
f 44 78 82
f 44 82 83
f 44 83 84
f 44 84 85
f 44 85 86
f 44 86 81
f 45 80 87
f 45 87 88
f 45 88 89
f 45 89 46
f 46 89 88
f 46 88 90
f 46 90 91
f 46 91 48
f 48 91 92
f 48 92 49
f 49 92 93
f 49 93 94
f 49 94 50
f 50 95 96
f 50 96 51
f 50 94 97
f 50 97 98
f 50 98 99
f 50 99 100
f 50 100 95
f 52 96 95
f 52 95 53
f 53 95 100
f 53 100 54
f 54 100 99
f 54 99 55
f 55 99 157
f 55 157 101
f 55 101 56
f 56 102 103
f 56 103 104
f 56 104 105
f 56 105 57
f 56 101 106
f 56 106 107
f 56 107 108
f 56 108 102
f 57 109 59
f 57 59 58
f 57 105 109
f 59 109 110
f 59 110 111
f 59 111 60
f 60 111 65
f 61 63 112
f 61 112 113
f 61 113 66
f 62 112 63
f 62 64 114
f 62 114 112
f 64 65 115
f 64 115 114
f 65 111 115
f 66 113 116
f 66 116 117
f 66 117 67
f 67 117 71
f 68 72 118
f 68 118 119
f 68 119 69
f 69 119 120
f 69 120 121
f 69 121 73
f 71 122 123
f 71 123 72
f 71 117 124
f 71 124 125
f 71 125 126
f 71 126 127
f 71 127 122
f 72 128 118
f 72 123 129
f 72 129 130
f 72 130 131
f 72 131 132
f 72 132 133
f 72 133 128
f 73 121 134
f 73 134 74
f 74 134 79
f 76 135 136
f 76 136 77
f 77 136 137
f 77 137 82
f 77 82 78
f 79 134 199
f 79 199 135
f 80 81 138
f 80 138 139
f 80 139 140
f 80 140 87
f 81 86 138
f 82 137 83
f 83 136 141
f 83 141 142
f 83 142 85
f 83 85 143
f 83 143 84
f 83 137 136
f 84 143 85
f 85 142 144
f 85 144 145
f 85 145 146
f 85 146 147
f 85 147 86
f 86 147 148
f 86 148 138
f 87 140 149
f 87 149 88
f 88 149 90
f 90 149 91
f 91 149 150
f 91 150 92
f 92 150 151
f 92 151 93
f 93 152 153
f 93 153 97
f 93 97 94
f 93 151 152
f 97 153 154
f 97 154 98
f 98 155 156
f 98 156 157
f 98 157 99
f 98 154 158
f 98 158 159
f 98 159 160
f 98 160 161
f 98 161 155
f 101 157 156
f 101 156 106
f 102 162 163
f 102 163 103
f 102 108 162
f 103 163 104
f 104 163 164
f 104 164 109
f 104 109 105
f 106 156 155
f 106 155 107
f 107 155 227
f 107 227 165
f 107 165 108
f 108 166 167
f 108 167 168
f 108 168 169
f 108 169 170
f 108 170 162
f 108 165 166
f 109 164 171
f 109 171 110
f 110 171 172
f 110 172 173
f 110 173 111
f 111 173 174
f 111 174 115
f 112 175 113
f 112 114 115
f 112 115 176
f 112 176 175
f 113 175 116
f 115 174 177
f 115 177 176
f 116 175 117
f 117 175 178
f 117 178 124
f 118 128 133
f 118 133 179
f 118 179 180
f 118 180 119
f 119 180 181
f 119 181 182
f 119 182 120
f 120 182 121
f 121 183 184
f 121 184 134
f 121 182 183
f 122 127 185
f 122 185 129
f 122 129 123
f 124 178 127
f 124 127 126
f 124 126 125
f 127 178 186
f 127 186 187
f 127 187 188
f 127 188 189
f 127 189 190
f 127 190 129
f 127 129 185
f 129 190 191
f 129 191 192
f 129 192 193
f 129 193 130
f 130 193 194
f 130 194 131
f 131 194 195
f 131 195 196
f 131 196 197
f 131 197 132
f 132 197 270
f 132 270 269
f 132 269 338
f 132 338 395
f 132 395 434
f 132 434 433
f 132 433 470
f 132 470 469
f 132 469 468
f 132 468 505
f 132 505 526
f 132 526 499
f 132 499 525
f 132 525 495
f 132 495 494
f 132 494 521
f 132 521 520
f 132 520 519
f 132 519 531
f 132 531 530
f 132 530 528
f 132 528 527
f 132 527 506
f 132 506 471
f 132 471 435
f 132 435 398
f 132 398 353
f 132 353 281
f 132 281 210
f 132 210 280
f 132 280 352
f 132 352 351
f 132 351 347
f 132 347 346
f 132 346 345
f 132 345 344
f 132 344 343
f 132 343 342
f 132 342 341
f 132 341 397
f 132 397 396
f 132 396 389
f 132 389 331
f 132 331 330
f 132 330 329
f 132 329 328
f 132 328 327
f 132 327 326
f 132 326 324
f 132 324 323
f 132 323 322
f 132 322 256
f 132 256 254
f 132 254 198
f 132 198 133
f 133 198 179
f 134 184 200
f 134 200 199
f 135 199 136
f 136 199 141
f 138 148 201
f 138 201 202
f 138 202 139
f 139 202 140
f 140 202 203
f 140 203 149
f 141 199 204
f 141 204 142
f 142 204 205
f 142 205 206
f 142 206 144
f 144 207 145
f 144 206 207
f 145 208 146
f 145 207 209
f 145 209 210
f 145 210 211
f 145 211 212
f 145 212 213
f 145 213 208
f 146 208 214
f 146 214 215
f 146 215 216
f 146 216 217
f 146 217 218
f 146 218 219
f 146 219 147
f 147 219 148
f 148 219 220
f 148 220 201
f 149 203 221
f 149 221 150
f 150 221 151
f 151 221 222
f 151 222 223
f 151 223 152
f 152 223 224
f 152 224 225
f 152 225 153
f 153 225 226
f 153 226 158
f 153 158 154
f 155 161 227
f 158 226 228
f 158 228 159
f 159 228 160
f 160 228 229
f 160 229 161
f 161 230 231
f 161 231 232
f 161 232 233
f 161 233 234
f 161 234 227
f 161 229 230
f 162 170 235
f 162 235 236
f 162 236 163
f 163 236 237
f 163 237 238
f 163 238 164
f 164 238 172
f 164 172 171
f 165 227 234
f 165 234 166
f 166 234 233
f 166 233 167
f 167 233 310
f 167 310 239
f 167 239 168
f 168 240 241
f 168 241 242
f 168 242 243
f 168 243 244
f 168 244 245
f 168 245 235
f 168 235 169
f 168 239 240
f 169 235 170
f 172 246 173
f 172 238 247
f 172 247 248
f 172 248 246
f 173 246 174
f 174 246 177
f 175 176 249
f 175 249 188
f 175 188 187
f 175 187 186
f 175 186 178
f 176 177 250
f 176 250 249
f 177 246 251
f 177 251 252
f 177 252 250
f 179 253 180
f 179 198 253
f 180 253 198
f 180 198 254
f 180 254 181
f 181 255 182
f 181 254 256
f 181 256 255
f 182 255 257
f 182 257 258
f 182 258 183
f 183 258 184
f 184 258 259
f 184 259 200
f 188 249 250
f 188 250 189
f 189 250 260
f 189 260 191
f 189 191 190
f 191 261 262
f 191 262 192
f 191 260 263
f 191 263 261
f 192 262 264
f 192 264 193
f 193 264 265
f 193 265 194
f 194 265 266
f 194 266 195
f 195 267 268
f 195 268 196
f 195 266 267
f 196 269 270
f 196 270 197
f 196 268 269
f 199 200 204
f 200 271 204
f 200 259 272
f 200 272 273
f 200 273 271
f 201 220 274
f 201 274 202
f 202 274 275
f 202 275 221
f 202 221 203
f 204 271 276
f 204 276 205
f 205 276 206
f 206 276 277
f 206 277 278
f 206 278 207
f 207 279 210
f 207 210 209
f 207 278 279
f 208 213 214
f 210 281 211
f 210 279 282
f 210 282 280
f 211 281 283
f 211 283 284
f 211 284 285
f 211 285 212
f 212 285 286
f 212 286 213
f 213 286 287
f 213 287 288
f 213 288 289
f 213 289 215
f 213 215 290
f 213 290 214
f 214 290 215
f 215 289 291
f 215 291 292
f 215 292 293
f 215 293 294
f 215 294 295
f 215 295 218
f 215 218 216
f 216 218 217
f 218 295 219
f 219 295 274
f 219 274 220
f 221 275 296
f 221 296 222
f 222 296 297
f 222 297 223
f 223 297 224
f 224 297 298
f 224 298 299
f 224 299 300
f 224 300 226
f 224 226 225
f 226 300 228
f 228 301 302
f 228 302 229
f 228 300 301
f 229 302 303
f 229 303 230
f 230 303 231
f 231 303 232
f 232 304 305
f 232 305 306
f 232 306 307
f 232 307 308
f 232 308 309
f 232 309 310
f 232 310 233
f 232 303 304
f 235 245 311
f 235 311 312
f 235 312 313
f 235 313 236
f 236 313 314
f 236 314 237
f 237 314 238
f 238 314 247
f 239 310 309
f 239 309 240
f 240 309 308
f 240 308 241
f 241 308 307
f 241 307 242
f 242 307 373
f 242 373 315
f 242 315 243
f 243 315 316
f 243 316 317
f 243 317 318
f 243 318 244
f 244 311 245
f 244 318 311
f 246 248 251
f 247 314 319
f 247 319 248
f 248 319 251
f 250 252 263
f 250 263 260
f 251 319 320
f 251 320 321
f 251 321 261
f 251 261 252
f 252 261 263
f 255 256 322
f 255 322 257
f 257 322 323
f 257 323 324
f 257 324 258
f 258 325 259
f 258 324 326
f 258 326 327
f 258 327 328
f 258 328 329
f 258 329 330
f 258 330 331
f 258 331 325
f 259 325 339
f 259 339 272
f 261 321 332
f 261 332 262
f 262 332 264
f 264 333 265
f 264 332 333
f 265 333 334
f 265 334 266
f 266 334 335
f 266 335 267
f 267 335 336
f 267 336 268
f 268 336 337
f 268 337 338
f 268 338 269
f 271 273 276
f 272 339 273
f 273 340 276
f 273 339 341
f 273 341 342
f 273 342 343
f 273 343 344
f 273 344 345
f 273 345 346
f 273 346 347
f 273 347 340
f 274 295 294
f 274 294 293
f 274 293 292
f 274 292 348
f 274 348 275
f 275 348 349
f 275 349 296
f 276 340 350
f 276 350 277
f 277 350 351
f 277 351 352
f 277 352 278
f 278 282 279
f 278 352 282
f 280 282 352
f 281 353 283
f 283 353 354
f 283 354 284
f 284 354 355
f 284 355 356
f 284 356 285
f 285 357 286
f 285 356 357
f 286 357 358
f 286 358 287
f 287 359 288
f 287 358 359
f 288 359 360
f 288 360 361
f 288 361 362
f 288 362 291
f 288 291 289
f 291 362 349
f 291 349 292
f 292 349 348
f 296 349 363
f 296 363 364
f 296 364 297
f 297 364 298
f 298 364 365
f 298 365 299
f 299 365 366
f 299 366 300
f 300 366 301
f 301 366 302
f 302 367 303
f 302 366 367
f 303 368 369
f 303 369 304
f 303 367 368
f 304 369 305
f 305 369 370
f 305 370 306
f 306 370 371
f 306 371 372
f 306 372 373
f 306 373 307
f 311 318 374
f 311 374 375
f 311 375 376
f 311 376 312
f 312 377 313
f 312 376 377
f 313 377 314
f 314 377 378
f 314 378 319
f 315 373 413
f 315 413 379
f 315 379 316
f 316 380 317
f 316 379 381
f 316 381 382
f 316 382 383
f 316 383 384
f 316 384 385
f 316 385 380
f 317 374 318
f 317 380 374
f 319 378 320
f 320 378 386
f 320 386 387
f 320 387 388
f 320 388 321
f 321 388 332
f 325 331 389
f 325 389 396
f 325 396 339
f 332 388 333
f 333 390 334
f 333 388 390
f 334 391 335
f 334 390 391
f 335 391 392
f 335 392 336
f 336 393 394
f 336 394 395
f 336 395 337
f 336 392 393
f 337 395 338
f 339 396 397
f 339 397 341
f 340 347 350
f 347 351 350
f 349 362 361
f 349 361 363
f 353 398 399
f 353 399 354
f 354 399 400
f 354 400 355
f 355 401 356
f 355 400 401
f 356 401 402
f 356 402 357
f 357 403 358
f 357 402 403
f 358 403 404
f 358 404 359
f 359 404 360
f 360 404 405
f 360 405 364
f 360 364 363
f 360 363 361
f 364 405 406
f 364 406 365
f 365 406 407
f 365 407 366
f 366 407 408
f 366 408 367
f 367 408 368
f 368 408 409
f 368 409 369
f 369 410 411
f 369 411 370
f 369 409 410
f 370 411 371
f 371 412 372
f 371 411 412
f 372 413 373
f 372 412 414
f 372 414 415
f 372 415 416
f 372 416 417
f 372 417 418
f 372 418 413
f 374 419 375
f 374 380 420
f 374 420 421
f 374 421 419
f 375 419 376
f 376 419 422
f 376 422 377
f 377 422 386
f 377 386 378
f 379 413 418
f 379 418 381
f 380 385 420
f 381 418 417
f 381 417 382
f 382 417 451
f 382 451 423
f 382 423 424
f 382 424 383
f 383 425 384
f 383 424 426
f 383 426 425
f 384 425 420
f 384 420 385
f 386 422 427
f 386 427 387
f 387 390 388
f 387 427 428
f 387 428 390
f 390 428 391
f 391 428 392
f 392 428 429
f 392 429 393
f 393 430 431
f 393 431 432
f 393 432 433
f 393 433 434
f 393 434 394
f 393 429 430
f 394 434 395
f 398 435 399
f 399 435 400
f 400 435 436
f 400 436 437
f 400 437 438
f 400 438 401
f 401 438 439
f 401 439 402
f 402 439 440
f 402 440 403
f 403 440 441
f 403 441 404
f 404 441 405
f 405 441 406
f 406 441 442
f 406 442 443
f 406 443 407
f 407 443 408
f 408 443 444
f 408 444 409
f 409 444 445
f 409 445 410
f 410 445 411
f 411 445 446
f 411 446 447
f 411 447 412
f 412 447 414
f 414 447 415
f 415 448 416
f 415 447 448
f 416 448 449
f 416 449 450
f 416 450 417
f 417 450 451
f 419 421 452
f 419 452 453
f 419 453 422
f 420 452 421
f 420 425 454
f 420 454 452
f 422 453 427
f 423 451 486
f 423 486 455
f 423 455 424
f 424 456 457
f 424 457 458
f 424 458 459
f 424 459 460
f 424 460 426
f 424 455 456
f 425 426 460
f 425 460 461
f 425 461 462
f 425 462 463
f 425 463 454
f 427 453 464
f 427 464 428
f 428 464 429
f 429 464 465
f 429 465 430
f 430 465 466
f 430 466 431
f 431 466 467
f 431 467 468
f 431 468 432
f 432 468 469
f 432 469 470
f 432 470 433
f 435 471 436
f 436 471 437
f 437 472 473
f 437 473 438
f 437 471 474
f 437 474 475
f 437 475 472
f 438 476 439
f 438 473 476
f 439 476 440
f 440 442 441
f 440 476 442
f 442 476 477
f 442 477 443
f 443 477 444
f 444 477 478
f 444 478 445
f 445 478 479
f 445 479 446
f 446 479 447
f 447 479 480
f 447 480 448
f 448 480 481
f 448 481 482
f 448 482 483
f 448 483 484
f 448 484 449
f 449 484 450
f 450 485 486
f 450 486 451
f 450 484 487
f 450 487 488
f 450 488 489
f 450 489 485
f 452 454 490
f 452 490 453
f 453 490 464
f 454 463 490
f 455 486 485
f 455 485 456
f 456 485 489
f 456 489 457
f 457 489 524
f 457 524 491
f 457 491 458
f 458 492 493
f 458 493 494
f 458 494 495
f 458 495 496
f 458 496 497
f 458 497 498
f 458 498 459
f 458 491 492
f 459 461 460
f 459 498 461
f 461 498 497
f 461 497 499
f 461 499 500
f 461 500 501
f 461 501 502
f 461 502 462
f 462 503 463
f 462 502 503
f 463 503 490
f 464 490 465
f 465 503 466
f 465 490 503
f 466 503 501
f 466 501 467
f 467 501 500
f 467 500 504
f 467 504 505
f 467 505 468
f 471 506 474
f 472 507 473
f 472 475 508
f 472 508 507
f 473 507 509
f 473 509 476
f 474 506 475
f 475 506 510
f 475 510 508
f 476 509 477
f 477 509 478
f 478 509 511
f 478 511 479
f 479 511 480
f 480 511 481
f 481 512 482
f 481 511 512
f 482 512 513
f 482 513 483
f 483 513 514
f 483 514 515
f 483 515 516
f 483 516 517
f 483 517 487
f 483 487 484
f 487 517 488
f 488 518 519
f 488 519 520
f 488 520 521
f 488 521 522
f 488 522 523
f 488 523 524
f 488 524 489
f 488 517 516
f 488 516 518
f 491 524 523
f 491 523 492
f 492 523 522
f 492 522 493
f 493 522 521
f 493 521 494
f 495 525 496
f 496 525 497
f 497 525 499
f 499 526 500
f 500 526 504
f 501 503 502
f 504 526 505
f 506 527 510
f 507 508 512
f 507 512 511
f 507 511 509
f 508 510 514
f 508 514 512
f 510 527 528
f 510 528 529
f 510 529 515
f 510 515 514
f 512 514 513
f 515 529 530
f 515 530 516
f 516 530 531
f 516 531 518
f 518 531 519
f 528 530 529

