# https://github.com/mikedh/trimesh
v -0.01785890 -0.01359626 0.00380798
v -0.01794208 -0.01359626 0.00392069
v -0.01785890 -0.01329942 0.00343378
v -0.01785890 -0.01359626 0.01351917
v -0.01802526 -0.01359626 0.00404692
v -0.01785890 -0.01270042 0.00271693
v -0.01866899 -0.01359626 0.00503878
v -0.01785890 -0.00000755 0.00599457
v -0.01817896 0.01348044 0.01382575
v -0.03033403 0.01348044 0.04414055
v -0.03028521 -0.01359626 0.04414506
v -0.01785890 -0.01241418 0.00238331
v -0.01874132 -0.01354061 0.00508838
v -0.01875941 -0.01359626 0.00518756
v -0.01785890 -0.00000755 -0.00052915
v -0.01817896 0.01348044 0.00417316
v -0.03040997 0.01348044 0.04431638
v -0.03078067 0.01348044 0.04503773
v -0.03075173 -0.01359626 0.04504675
v -0.01891130 -0.01295486 0.00474123
v -0.01786794 -0.01194770 0.00190090
v -0.01785890 -0.01108632 0.00099020
v -0.01981724 -0.01359626 0.00696840
v -0.01785890 -0.00563440 -0.00052915
v -0.01916446 -0.00000755 -0.00052915
v -0.01817896 0.00625274 -0.00052464
v -0.01817896 0.00721219 -0.00048857
v -0.01817896 0.00817430 -0.00033529
v -0.01817896 0.00911520 -0.00005125
v -0.01817896 0.00930338 0.00001186
v -0.01817896 0.01009585 0.00053935
v -0.01817896 0.01046956 0.00089101
v -0.01817896 0.01198295 0.00247348
v -0.01817896 0.01297686 0.00357354
v -0.01817896 0.01306167 0.00367272
v -0.01818258 0.01348044 0.00417767
v -0.03115317 0.01348044 0.04526315
v -0.03166852 -0.01359626 0.04549759
v -0.02054596 -0.01359626 0.00821273
v -0.02544994 -0.01359626 0.01659393
v -0.01839052 -0.01009506 0.00085494
v -0.01788240 -0.01099355 0.00093159
v -0.01785890 -0.01053768 0.00041762
v -0.02364711 -0.01274813 0.01262199
v -0.01820247 -0.00529249 -0.00052915
v -0.01785890 -0.00659650 -0.00052464
v -0.01916446 -0.00048198 -0.00052915
v -0.02012825 -0.00000755 -0.00020003
v -0.01916627 0.00240433 -0.00052464
v -0.01820247 0.00625274 -0.00052464
v -0.01820247 0.00721219 -0.00048857
v -0.01820247 0.00817430 -0.00032627
v -0.01824406 0.00910989 -0.00001969
v -0.01886248 0.00817430 0.00012007
v -0.01873590 0.00877594 0.00029139
v -0.01858943 0.00941734 0.00053935
v -0.01839052 0.01009320 0.00085945
v -0.01978649 0.01080616 0.00398832
v -0.02350245 0.01348044 0.01314497
v -0.02223668 0.01348044 0.01098092
v -0.01965630 0.01348044 0.00657166
v -0.01890949 0.01295566 0.00474573
v -0.01876122 0.01348044 0.00505231
v -0.01854061 0.01325515 0.00444818
v -0.01869612 0.01348044 0.00494862
v -0.03166852 0.01348044 0.04549308
v -0.03213866 0.01348044 0.04551562
v -0.03263051 -0.01202191 0.04552464
v -0.03263051 -0.01298402 0.04551562
v -0.03263051 -0.01359626 0.04547505
v -0.02446987 -0.01253080 0.01381222
v -0.02650234 -0.01359626 0.01842887
v -0.01877387 -0.00976906 0.00117955
v -0.01859124 -0.00941655 0.00053935
v -0.02061287 -0.01058804 0.00518305
v -0.01791495 -0.01010036 0.00013810
v -0.01785890 -0.01027264 0.00020122
v -0.01820247 -0.00625460 -0.00052464
v -0.01916446 -0.00240619 -0.00052464
v -0.01785890 -0.00755595 -0.00049759
v -0.02012825 -0.00048198 -0.00020003
v -0.02039768 -0.00000755 0.00002088
v -0.02012825 0.00048012 -0.00019552
v -0.01916627 0.00336643 -0.00051562
v -0.01916627 0.00432853 -0.00047956
v -0.01916627 0.00529064 -0.00037586
v -0.01905958 0.00721219 -0.00003773
v -0.01973767 0.00607781 0.00022376
v -0.01964184 0.00671921 0.00038607
v -0.01954057 0.00721219 0.00057542
v -0.01934347 0.00812924 0.00091355
v -0.01954961 0.00842344 0.00151769
v -0.01958940 0.00948095 0.00240585
v -0.01890226 0.00910989 0.00085945
v -0.02061467 0.01058883 0.00517855
v -0.01877387 0.00976985 0.00117955
v -0.02447348 0.01253159 0.01381673
v -0.02446444 0.01348044 0.01479506
v -0.03263051 0.01348044 0.04548857
v -0.03263051 0.01298746 0.04551562
v -0.03263051 0.01202271 0.04552464
v -0.03359431 -0.00913826 0.04552915
v -0.03359431 -0.01105981 0.04550661
v -0.03359431 -0.01202191 0.04536685
v -0.03344061 -0.01359626 0.04501969
v -0.02630886 -0.01331002 0.01781572
v -0.02344820 -0.01142557 0.01104404
v -0.01958759 -0.00948016 0.00240585
v -0.02706832 -0.01359626 0.01950188
v -0.02730159 -0.01337098 0.01972730
v -0.01890226 -0.00911175 0.00085494
v -0.01873409 -0.00877515 0.00028688
v -0.01785890 -0.01016927 0.00012908
v -0.01886067 -0.00817350 0.00012007
v -0.01824225 -0.00911175 -0.00001969
v -0.01785890 -0.01010036 0.00009753
v -0.01820247 -0.00721405 -0.00048857
v -0.01916446 -0.00336829 -0.00051562
v -0.01785890 -0.00851806 -0.00038939
v -0.01916446 -0.00433039 -0.00047505
v -0.02005954 -0.00336829 -0.00006929
v -0.02067615 -0.00048198 0.00025081
v -0.02067615 -0.00000755 0.00025081
v -0.02067615 0.00048012 0.00025532
v -0.02005773 0.00336643 -0.00006478
v -0.01995647 0.00432853 -0.00002871
v -0.01984074 0.00529064 0.00007498
v -0.02043747 0.00432853 0.00071067
v -0.02033982 0.00522438 0.00094060
v -0.02044470 0.00625274 0.00164392
v -0.02063095 0.00678282 0.00226158
v -0.02071232 0.00890316 0.00403791
v -0.02344640 0.01142636 0.01104854
v -0.02630886 0.01331081 0.01781572
v -0.02639566 0.01348044 0.01812681
v -0.02543005 0.01348044 0.01645417
v -0.03309342 0.01348044 0.04526315
v -0.03359250 0.01202271 0.04536234
v -0.03359250 0.01106326 0.04550661
v -0.03359250 0.01009850 0.04552013
v -0.03359250 0.00913640 0.04552464
v -0.03455268 -0.00433039 0.04552915
v -0.03455268 -0.00529249 0.04552915
v -0.03455268 -0.00721405 0.04551112
v -0.03455268 -0.00817350 0.04546603
v -0.03438813 -0.01105981 0.04505125
v -0.03421996 -0.01202191 0.04491600
v -0.03410423 -0.01257850 0.04473115
v -0.03361239 -0.01359626 0.04414506
v -0.02663073 -0.01298667 0.01815386
v -0.02713885 -0.01302377 0.01912317
v -0.02833953 -0.01067285 0.01954246
v -0.02547525 -0.00879105 0.01277979
v -0.02035429 -0.00816820 0.00280710
v -0.01991307 -0.00915151 0.00274849
v -0.02723288 -0.01359626 0.01986707
v -0.02740647 -0.01359626 0.02036750
v -0.02831059 -0.01156869 0.02054784
v -0.02877170 -0.01010036 0.02009700
v -0.02820752 -0.01131425 0.01990313
v -0.02742998 -0.01272958 0.01944778
v -0.01954057 -0.00721405 0.00057091
v -0.01964364 -0.00672107 0.00038156
v -0.01973767 -0.00607967 0.00022376
v -0.01905958 -0.00721405 -0.00003322
v -0.01820247 -0.00817350 -0.00032627
v -0.01785890 -0.00948811 -0.00013241
v -0.01916446 -0.00529249 -0.00038037
v -0.01995647 -0.00433039 -0.00002871
v -0.02059117 -0.00265533 0.00041312
v -0.02061467 -0.00201392 0.00035902
v -0.02063999 -0.00144408 0.00031844
v -0.02098356 -0.00048198 0.00085494
v -0.02082805 -0.00000755 0.00054837
v -0.02061648 0.00201472 0.00036352
v -0.02098356 0.00048012 0.00085945
v -0.02059117 0.00265347 0.00041312
v -0.02053692 0.00336643 0.00051681
v -0.02100707 0.00432853 0.00181975
v -0.02062191 0.00485862 0.00131481
v -0.02069966 0.00625274 0.00212633
v -0.02443551 0.00760181 0.01004316
v -0.02345905 0.00755940 0.00814060
v -0.02645894 0.00885280 0.01465981
v -0.02547525 0.00878919 0.01277979
v -0.02414438 0.00908604 0.01053909
v -0.02370498 0.01006935 0.01048048
v -0.02707194 0.01200681 0.01821247
v -0.02663073 0.01298746 0.01815386
v -0.02714065 0.01302722 0.01913219
v -0.02729978 0.01337442 0.01973181
v -0.02652585 0.01348044 0.01837477
v -0.03347315 0.01348044 0.04502420
v -0.03421996 0.01202271 0.04491149
v -0.03438813 0.01106326 0.04505576
v -0.03455449 0.00817430 0.04546152
v -0.03455449 0.00721219 0.04550661
v -0.03455449 0.00625274 0.04552013
v -0.03455449 0.00529064 0.04552464
v -0.03551648 0.00048012 0.04549308
v -0.03551648 -0.00048198 0.04549308
v -0.03551648 -0.00144408 0.04547054
v -0.03551648 -0.00240619 0.04543447
v -0.03551648 -0.00336829 0.04537135
v -0.03551648 -0.00433039 0.04528569
v -0.03534650 -0.00721405 0.04506027
v -0.03522716 -0.00817350 0.04501068
v -0.03511143 -0.00913826 0.04483936
v -0.03504814 -0.00967364 0.04467254
v -0.03460512 -0.01105981 0.04414506
v -0.03410423 -0.01257850 0.04447868
v -0.03410062 -0.01160315 0.04258062
v -0.03348762 -0.01359626 0.04356347
v -0.02845706 -0.01010036 0.01932605
v -0.02829974 -0.00961268 0.01865429
v -0.02062914 -0.00678468 0.00226158
v -0.02835580 -0.01359626 0.02380294
v -0.02787661 -0.01297077 0.02107082
v -0.02907910 -0.01006855 0.02107533
v -0.02911346 -0.00913561 0.02011052
v -0.02921653 -0.00945631 0.02074621
v -0.01984074 -0.00529249 0.00007498
v -0.02044470 -0.00625460 0.00164392
v -0.02033982 -0.00522623 0.00094060
v -0.02043927 -0.00433039 0.00070617
v -0.02054054 -0.00336829 0.00051681
v -0.02150795 -0.00336829 0.00242388
v -0.02412268 -0.00336829 0.00759507
v -0.02561268 -0.00336829 0.01057065
v -0.02136148 -0.00144408 0.00175663
v -0.02098356 -0.00000755 0.00085494
v -0.02963785 -0.00048198 0.01817189
v -0.02579351 -0.00000755 0.01047597
v -0.02235964 0.00048012 0.00360961
v -0.02079912 0.00236192 0.00078281
v -0.02078284 0.00336643 0.00099922
v -0.02579351 0.00048012 0.01047597
v -0.02989281 0.00336643 0.01913670
v -0.02441020 0.00336643 0.00816765
v -0.02344278 0.00336643 0.00625156
v -0.02433425 0.00432853 0.00831642
v -0.02297987 0.00432853 0.00566997
v -0.02837750 0.00513161 0.01658041
v -0.02898869 0.00617853 0.01826206
v -0.02167431 0.00625274 0.00402438
v -0.02803032 0.00810538 0.01729725
v -0.02823465 0.00837838 0.01782474
v -0.02726181 0.00834392 0.01591767
v -0.02742998 0.00890581 0.01655787
v -0.02829974 0.00961613 0.01865880
v -0.02845887 0.01009850 0.01932605
v -0.02743359 0.01273037 0.01944327
v -0.02755294 0.01302722 0.02006995
v -0.02743721 0.01348044 0.02030889
v -0.02734680 0.01348044 0.02002937
v -0.02726723 0.01348044 0.01979944
v -0.02833953 0.01067364 0.01954697
v -0.02820752 0.01131505 0.01990313
v -0.02831240 0.01156949 0.02054784
v -0.03359431 0.01348044 0.04460943
v -0.03410423 0.01257930 0.04472665
v -0.03504995 0.00967443 0.04467254
v -0.03511324 0.00913640 0.04483485
v -0.03522896 0.00817430 0.04501068
v -0.03534289 0.00721219 0.04505576
v -0.03551648 0.00432853 0.04528569
v -0.03551648 0.00336643 0.04537135
v -0.03551648 0.00240433 0.04542996
v -0.03551648 0.00144223 0.04547054
v -0.03621265 0.00048012 0.04504224
v -0.03621265 -0.00000755 0.04504224
v -0.03621085 -0.00048198 0.04504224
v -0.03617287 -0.00144408 0.04501969
v -0.03613671 -0.00240619 0.04498363
v -0.03609874 -0.00336829 0.04492502
v -0.03606076 -0.00433039 0.04483936
v -0.03601917 -0.00529249 0.04470861
v -0.03599928 -0.00577487 0.04462746
v -0.03504814 -0.00967364 0.04455983
v -0.03397766 -0.01107836 0.04117850
v -0.03403009 -0.01140967 0.04194042
v -0.03424709 -0.01206432 0.04415407
v -0.03488901 -0.01003410 0.04419916
v -0.03406807 -0.01055358 0.04080430
v -0.03379321 -0.01105981 0.04029484
v -0.03342976 -0.01202191 0.04029484
v -0.03287281 -0.01359626 0.04072314
v -0.02861981 -0.00923102 0.01904202
v -0.02742817 -0.00890502 0.01655336
v -0.02645714 -0.00885201 0.01465981
v -0.02069785 -0.00625460 0.00212633
v -0.02345905 -0.00755861 0.00814060
v -0.02443370 -0.00760101 0.01004316
v -0.03231949 -0.01359626 0.03850499
v -0.03237735 -0.01208818 0.03639053
v -0.02915143 -0.01108367 0.02289223
v -0.02930513 -0.00972135 0.02138641
v -0.03322904 -0.01200071 0.03941569
v -0.02930513 -0.00881490 0.02043964
v -0.02920568 -0.00841204 0.01980395
v -0.03019660 -0.00950136 0.02452880
v -0.02939374 -0.00912235 0.02107082
v -0.02054415 -0.00550188 0.00146809
v -0.02167250 -0.00625460 0.00401988
v -0.02823465 -0.00837759 0.01782023
v -0.02964689 -0.00529249 0.01913670
v -0.02335960 -0.00433039 0.00641386
v -0.02396356 -0.00433039 0.00759507
v -0.02457655 -0.00433039 0.00879883
v -0.02554397 -0.00433039 0.01070139
v -0.02941544 -0.00433039 0.01835223
v -0.02980964 -0.00433039 0.01913670
v -0.02989100 -0.00336829 0.01913670
v -0.02905198 -0.00144408 0.01714847
v -0.03023096 -0.00201392 0.01960558
v -0.03029063 -0.00048198 0.01948385
v -0.03016948 -0.00000755 0.01923588
v -0.02554578 0.00432853 0.01070590
v -0.03029063 0.00048012 0.01948385
v -0.02956371 0.00144223 0.01817640
v -0.03023276 0.00201472 0.01960558
v -0.02980964 0.00432853 0.01913670
v -0.02964689 0.00529064 0.01913670
v -0.02928163 0.00776878 0.01958303
v -0.02900496 0.00812394 0.01921334
v -0.02861800 0.00923181 0.01904202
v -0.02839739 0.00897472 0.01846945
v -0.02911165 0.00913640 0.02011503
v -0.02877351 0.01009850 0.02010151
v -0.02786034 0.01298746 0.02103926
v -0.02830698 0.01347779 0.02343776
v -0.02830698 0.01348044 0.02344227
v -0.02841728 0.01102085 0.02017364
v -0.02907006 0.01006405 0.02103926
v -0.02930694 0.00971949 0.02138191
v -0.03365940 0.01348044 0.04414506
v -0.03410423 0.01257930 0.04447868
v -0.03460331 0.01106326 0.04414055
v -0.03504995 0.00967443 0.04455983
v -0.03599928 0.00577566 0.04462746
v -0.03602098 0.00529064 0.04470410
v -0.03606076 0.00432853 0.04483485
v -0.03609874 0.00336643 0.04492051
v -0.03613490 0.00240433 0.04497912
v -0.03617468 0.00144223 0.04501969
v -0.03633019 0.00048012 0.04414055
v -0.03633200 -0.00048198 0.04414506
v -0.03599928 -0.00577487 0.04462295
v -0.03517472 -0.00630231 0.04121456
v -0.03509516 -0.00601341 0.04049321
v -0.03496858 -0.00630231 0.04021820
v -0.03407711 -0.00963389 0.03979440
v -0.03401382 -0.01033360 0.04029484
v -0.03356176 -0.01105981 0.03933003
v -0.03311512 -0.01251489 0.03979440
v -0.03317118 -0.01264741 0.04029484
v -0.03277698 -0.01359626 0.04029484
v -0.02927982 -0.00777064 0.01957853
v -0.02900496 -0.00812314 0.01920883
v -0.02726181 -0.00834313 0.01591316
v -0.03254552 -0.01359626 0.03934356
v -0.03221823 -0.01075236 0.03377563
v -0.03213505 -0.01052708 0.03313543
v -0.03311331 -0.01058274 0.03691801
v -0.03307715 -0.01144942 0.03801808
v -0.03025266 -0.00492674 0.02048472
v -0.02963242 -0.00816025 0.02107533
v -0.03009353 -0.00624400 0.02107082
v -0.03006279 -0.00526599 0.02013757
v -0.03062697 -0.00913826 0.02585879
v -0.03013693 -0.00433039 0.01988510
v -0.03018033 -0.00336829 0.01975886
v -0.03020564 -0.00265533 0.01966870
v -0.03050219 -0.00048198 0.02009700
v -0.03050400 -0.00000755 0.02010151
v -0.03050400 0.00048012 0.02010151
v -0.03020745 0.00265347 0.01967320
v -0.03017852 0.00336643 0.01976337
v -0.03013693 0.00432853 0.01988961
v -0.03006279 0.00526413 0.02013757
v -0.02920387 0.00841018 0.01980395
v -0.02930513 0.00881570 0.02044415
v -0.02921834 0.00945445 0.02074621
v -0.02943714 0.01108446 0.02395172
v -0.03316213 0.01166755 0.03865827
v -0.03245330 0.01348044 0.03881607
v -0.03019660 0.00950216 0.02452880
v -0.03311331 0.01058353 0.03692252
v -0.03213324 0.01052787 0.03313092
v -0.03221823 0.01075316 0.03377112
v -0.03355814 0.01348044 0.04367167
v -0.03424889 0.01206511 0.04414956
v -0.03409881 0.01160394 0.04258062
v -0.03403009 0.01141311 0.04193592
v -0.03413316 0.01076906 0.04144449
v -0.03406626 0.01055702 0.04080430
v -0.03488721 0.01003754 0.04419916
v -0.03401563 0.01033439 0.04029033
v -0.03599928 0.00577566 0.04461844
v -0.03602098 0.00529064 0.04451024
v -0.03606076 0.00432853 0.04430736
v -0.03545138 0.00432853 0.04125514
v -0.03592334 0.00048012 0.04210724
v -0.03589621 -0.00136457 0.04230561
v -0.03596492 -0.00433039 0.04382496
v -0.03606076 -0.00433039 0.04430736
v -0.03601917 -0.00529249 0.04451024
v -0.03555988 -0.00048198 0.04029484
v -0.03545138 -0.00433039 0.04125965
v -0.03525609 -0.00433039 0.04029484
v -0.03506442 -0.00505661 0.03969973
v -0.03514217 -0.00534285 0.04021820
v -0.03502644 -0.00569801 0.03985301
v -0.03477148 -0.00625460 0.03933003
v -0.03388905 -0.01001290 0.03941569
v -0.03452556 -0.00625460 0.03836973
v -0.03028521 -0.00433039 0.02036750
v -0.03032680 -0.00526334 0.02107082
v -0.03121646 -0.00494264 0.02430338
v -0.03046965 -0.00433039 0.02107082
v -0.03032499 -0.00336829 0.02024127
v -0.03077524 -0.00048198 0.02107533
v -0.03077524 -0.00000755 0.02107082
v -0.03032499 0.00336643 0.02024578
v -0.03076439 0.00048012 0.02103926
v -0.03028701 0.00432853 0.02037201
v -0.03025085 0.00492488 0.02048472
v -0.03017490 0.00556893 0.02077326
v -0.03010619 0.00614937 0.02103926
v -0.02961796 0.00817430 0.02103926
v -0.02937385 0.00916025 0.02103926
v -0.03356176 0.01106326 0.03933003
v -0.03322723 0.01200150 0.03941569
v -0.03311693 0.01251569 0.03979440
v -0.03259796 0.01348044 0.03935258
v -0.03424528 0.00632165 0.03733730
v -0.03335381 0.01009850 0.03740493
v -0.03388905 0.01001369 0.03941569
v -0.03312778 0.01348044 0.04166992
v -0.03363951 0.01202271 0.04125514
v -0.03342976 0.01202271 0.04029033
v -0.03379140 0.01106326 0.04029033
v -0.03407711 0.00963468 0.03979440
v -0.03496858 0.00630310 0.04022271
v -0.03536097 0.00529064 0.04125514
v -0.03525609 0.00432853 0.04029033
v -0.03509335 0.00601420 0.04049321
v -0.03502644 0.00569880 0.03985301
v -0.03514398 0.00534100 0.04022271
v -0.03548393 0.00144223 0.04029033
v -0.03555807 0.00048012 0.04029033
v -0.03555988 -0.00000755 0.04029484
v -0.03572081 -0.00336829 0.04221995
v -0.03534108 -0.00048198 0.03933003
v -0.03509516 -0.00433039 0.03956447
v -0.03497762 -0.00433039 0.03908658
v -0.03383661 -0.00433039 0.03451952
v -0.03112785 -0.00433039 0.02369474
v -0.03071014 -0.00433039 0.02202661
v -0.03054921 -0.00335239 0.02107082
v -0.03070110 -0.00142818 0.02107082
v -0.03124358 -0.00144408 0.02323939
v -0.03416752 -0.00048198 0.03463223
v -0.03397223 -0.00000755 0.03384776
v -0.03389809 0.00048012 0.03355471
v -0.03189817 0.00144223 0.02586330
v -0.03102478 0.00336643 0.02297339
v -0.03054559 0.00336643 0.02106181
v -0.03046060 0.00432853 0.02103926
v -0.03121646 0.00494343 0.02430338
v -0.03413859 0.00604601 0.03667005
v -0.03030691 0.00530389 0.02103926
v -0.03021107 0.00570940 0.02103926
v -0.03282761 0.01348044 0.04029033
v -0.03477148 0.00625274 0.03933003
v -0.03506442 0.00505740 0.03969973
v -0.03509516 0.00432853 0.03956447
v -0.03533927 0.00048012 0.03933003
v -0.03534108 -0.00000755 0.03933003
v -0.03506803 -0.00000755 0.03823448
v -0.03454545 -0.00144408 0.03644463
v -0.03503548 -0.00286736 0.03885665
v -0.03512770 0.00048012 0.03847794
v -0.03506080 0.00222675 0.03875295
v -0.03497762 0.00432853 0.03908207
v -0.03112785 0.00432853 0.02369023
f 1 2 3
f 1 3 6
f 1 6 12
f 1 12 22
f 1 22 43
f 1 43 77
f 1 77 113
f 1 113 116
f 1 116 167
f 1 167 119
f 1 119 80
f 1 80 46
f 1 46 24
f 1 24 15
f 1 15 8
f 1 8 4
f 1 4 11
f 1 11 19
f 1 19 38
f 1 38 70
f 1 70 105
f 1 105 149
f 1 149 213
f 1 213 287
f 1 287 357
f 1 357 361
f 1 361 294
f 1 294 217
f 1 217 157
f 1 157 156
f 1 156 109
f 1 109 72
f 1 72 40
f 1 40 39
f 1 39 23
f 1 23 14
f 1 14 7
f 1 7 5
f 1 5 2
f 2 5 3
f 3 5 7
f 3 7 6
f 4 8 9
f 4 9 10
f 4 10 11
f 6 7 12
f 7 13 12
f 7 14 13
f 8 15 16
f 8 16 9
f 9 16 36
f 9 36 65
f 9 65 63
f 9 63 61
f 9 61 60
f 9 60 59
f 9 59 98
f 9 98 136
f 9 136 135
f 9 135 192
f 9 192 256
f 9 256 255
f 9 255 254
f 9 254 332
f 9 332 386
f 9 386 435
f 9 435 474
f 9 474 439
f 9 439 391
f 9 391 336
f 9 336 260
f 9 260 193
f 9 193 137
f 9 137 99
f 9 99 67
f 9 67 66
f 9 66 37
f 9 37 18
f 9 18 17
f 9 17 10
f 10 17 11
f 11 17 18
f 11 18 19
f 12 13 20
f 12 20 21
f 12 21 22
f 13 14 23
f 13 23 20
f 15 24 45
f 15 45 47
f 15 47 25
f 15 25 50
f 15 50 26
f 15 26 27
f 15 27 28
f 15 28 29
f 15 29 30
f 15 30 31
f 15 31 32
f 15 32 33
f 15 33 34
f 15 34 35
f 15 35 16
f 16 35 36
f 18 37 19
f 19 37 38
f 20 23 39
f 20 39 40
f 20 40 21
f 21 41 42
f 21 42 43
f 21 43 22
f 21 40 44
f 21 44 41
f 24 46 78
f 24 78 45
f 25 47 81
f 25 81 48
f 25 48 49
f 25 49 50
f 26 50 51
f 26 51 27
f 27 51 28
f 28 51 52
f 28 52 29
f 29 52 53
f 29 53 30
f 30 53 54
f 30 54 55
f 30 55 56
f 30 56 31
f 31 56 57
f 31 57 32
f 32 57 58
f 32 58 33
f 33 58 59
f 33 59 60
f 33 60 61
f 33 61 62
f 33 62 63
f 33 63 64
f 33 64 34
f 34 64 35
f 35 64 65
f 35 65 36
f 37 66 38
f 38 66 67
f 38 67 68
f 38 68 69
f 38 69 70
f 40 71 41
f 40 41 44
f 40 72 71
f 41 73 74
f 41 74 43
f 41 43 42
f 41 71 75
f 41 75 73
f 43 74 76
f 43 76 77
f 45 78 79
f 45 79 47
f 46 80 78
f 47 79 81
f 48 81 82
f 48 82 83
f 48 83 49
f 49 84 50
f 49 83 84
f 50 84 85
f 50 85 51
f 51 85 86
f 51 86 52
f 52 86 87
f 52 87 53
f 53 87 54
f 54 87 88
f 54 88 89
f 54 89 55
f 55 89 90
f 55 90 91
f 55 91 92
f 55 92 93
f 55 93 94
f 55 94 56
f 56 94 93
f 56 93 95
f 56 95 96
f 56 96 57
f 57 96 95
f 57 95 58
f 58 95 59
f 59 95 97
f 59 97 98
f 61 63 62
f 63 65 64
f 67 99 100
f 67 100 101
f 67 101 68
f 68 101 102
f 68 102 69
f 69 102 103
f 69 103 70
f 70 103 104
f 70 104 105
f 71 72 106
f 71 106 107
f 71 107 108
f 71 108 75
f 72 109 110
f 72 110 106
f 73 75 74
f 74 111 112
f 74 112 76
f 74 75 111
f 75 108 111
f 76 113 77
f 76 112 114
f 76 114 115
f 76 115 116
f 76 116 113
f 78 80 117
f 78 117 118
f 78 118 79
f 79 118 81
f 80 119 117
f 81 118 120
f 81 120 121
f 81 121 122
f 81 122 82
f 82 122 123
f 82 123 124
f 82 124 83
f 83 125 85
f 83 85 84
f 83 124 125
f 85 125 126
f 85 126 86
f 86 126 127
f 86 127 87
f 87 127 88
f 88 127 128
f 88 128 129
f 88 129 130
f 88 130 131
f 88 131 89
f 89 131 90
f 90 131 92
f 90 92 91
f 92 131 132
f 92 132 93
f 93 132 133
f 93 133 97
f 93 97 95
f 97 134 135
f 97 135 136
f 97 136 98
f 97 133 134
f 99 137 138
f 99 138 139
f 99 139 100
f 100 140 101
f 100 139 140
f 101 141 142
f 101 142 102
f 101 140 141
f 102 142 143
f 102 143 144
f 102 144 103
f 103 145 104
f 103 144 145
f 104 146 147
f 104 147 105
f 104 145 146
f 105 147 148
f 105 148 149
f 106 150 107
f 106 110 151
f 106 151 150
f 107 150 151
f 107 151 152
f 107 152 153
f 107 153 154
f 107 154 155
f 107 155 108
f 108 155 111
f 109 156 110
f 110 156 157
f 110 157 158
f 110 158 159
f 110 159 160
f 110 160 152
f 110 152 161
f 110 161 151
f 111 155 162
f 111 162 163
f 111 163 112
f 112 163 114
f 114 164 165
f 114 165 115
f 114 163 164
f 115 165 166
f 115 166 167
f 115 167 116
f 117 119 166
f 117 166 168
f 117 168 120
f 117 120 118
f 119 167 166
f 120 168 121
f 121 168 169
f 121 169 170
f 121 170 171
f 121 171 172
f 121 172 122
f 122 172 173
f 122 173 174
f 122 174 123
f 123 174 124
f 124 175 125
f 124 174 176
f 124 176 175
f 125 175 177
f 125 177 126
f 126 177 178
f 126 178 127
f 127 178 128
f 128 179 180
f 128 180 129
f 128 178 179
f 129 180 181
f 129 181 130
f 130 181 131
f 131 181 182
f 131 182 183
f 131 183 184
f 131 184 185
f 131 185 186
f 131 186 132
f 132 186 187
f 132 187 133
f 133 187 188
f 133 188 189
f 133 189 134
f 134 189 190
f 134 190 191
f 134 191 135
f 135 191 192
f 137 193 138
f 138 193 194
f 138 194 195
f 138 195 196
f 138 196 139
f 139 196 197
f 139 197 198
f 139 198 140
f 140 198 199
f 140 199 141
f 141 199 142
f 142 199 200
f 142 200 201
f 142 201 143
f 143 201 144
f 144 201 202
f 144 202 203
f 144 203 145
f 145 203 204
f 145 204 205
f 145 205 206
f 145 206 207
f 145 207 146
f 146 207 208
f 146 208 147
f 147 208 209
f 147 209 148
f 148 209 210
f 148 210 211
f 148 211 149
f 149 211 212
f 149 212 213
f 151 161 152
f 152 214 215
f 152 215 153
f 152 160 159
f 152 159 214
f 153 215 216
f 153 216 163
f 153 163 154
f 154 163 155
f 155 163 162
f 157 217 218
f 157 218 158
f 158 218 219
f 158 219 159
f 159 220 214
f 159 219 221
f 159 221 220
f 163 216 164
f 164 222 165
f 164 216 223
f 164 223 224
f 164 224 225
f 164 225 222
f 165 222 168
f 165 168 166
f 168 222 169
f 169 222 226
f 169 226 170
f 170 172 171
f 170 226 227
f 170 227 228
f 170 228 229
f 170 229 230
f 170 230 172
f 172 230 173
f 173 231 174
f 173 230 232
f 173 232 233
f 173 233 237
f 173 237 231
f 174 231 176
f 175 176 234
f 175 234 235
f 175 235 177
f 176 231 234
f 177 236 178
f 177 235 237
f 177 237 238
f 177 238 239
f 177 239 240
f 177 240 236
f 178 236 241
f 178 241 242
f 178 242 179
f 179 242 180
f 180 242 243
f 180 243 244
f 180 244 182
f 180 182 245
f 180 245 181
f 181 245 182
f 182 244 246
f 182 246 247
f 182 247 248
f 182 248 249
f 182 249 183
f 183 249 184
f 184 249 250
f 184 250 185
f 185 250 188
f 185 188 186
f 186 188 187
f 188 250 251
f 188 251 252
f 188 252 189
f 189 252 190
f 190 252 191
f 191 253 254
f 191 254 255
f 191 255 256
f 191 256 192
f 191 252 257
f 191 257 258
f 191 258 259
f 191 259 253
f 193 260 261
f 193 261 194
f 194 261 262
f 194 262 263
f 194 263 195
f 195 263 264
f 195 264 196
f 196 264 265
f 196 265 266
f 196 266 267
f 196 267 268
f 196 268 197
f 197 268 269
f 197 269 200
f 197 200 198
f 198 200 199
f 200 269 270
f 200 270 271
f 200 271 201
f 201 271 272
f 201 272 202
f 202 272 203
f 203 272 273
f 203 273 274
f 203 274 204
f 204 274 205
f 205 274 275
f 205 275 276
f 205 276 206
f 206 276 277
f 206 277 207
f 207 277 278
f 207 278 208
f 208 278 209
f 209 278 348
f 209 348 279
f 209 279 210
f 210 280 281
f 210 281 212
f 210 212 282
f 210 282 211
f 210 279 283
f 210 283 284
f 210 284 280
f 211 282 212
f 212 281 285
f 212 285 286
f 212 286 287
f 212 287 213
f 214 288 215
f 214 220 288
f 215 288 289
f 215 289 290
f 215 290 216
f 216 291 223
f 216 290 292
f 216 292 293
f 216 293 291
f 217 294 295
f 217 295 296
f 217 296 218
f 218 296 219
f 219 297 221
f 219 296 298
f 219 298 297
f 220 299 300
f 220 300 288
f 220 221 299
f 221 297 301
f 221 301 302
f 221 302 299
f 222 225 226
f 223 291 224
f 224 291 303
f 224 303 225
f 225 303 304
f 225 304 305
f 225 305 306
f 225 306 307
f 225 307 226
f 226 307 308
f 226 308 309
f 226 309 310
f 226 310 227
f 227 310 311
f 227 311 228
f 228 311 312
f 228 312 229
f 229 312 313
f 229 313 314
f 229 314 230
f 230 314 232
f 231 237 234
f 232 314 313
f 232 313 315
f 232 315 316
f 232 316 317
f 232 317 233
f 233 317 237
f 234 237 235
f 236 240 318
f 236 318 241
f 237 317 319
f 237 319 320
f 237 320 321
f 237 321 238
f 238 321 322
f 238 322 239
f 239 322 240
f 240 322 318
f 241 318 323
f 241 323 243
f 241 243 242
f 243 323 244
f 244 323 324
f 244 324 247
f 244 247 246
f 247 324 325
f 247 325 326
f 247 326 327
f 247 327 248
f 248 327 249
f 249 327 326
f 249 326 250
f 250 326 251
f 251 257 252
f 251 326 328
f 251 328 329
f 251 329 257
f 253 259 254
f 254 259 330
f 254 330 331
f 254 331 332
f 257 329 258
f 258 329 333
f 258 333 259
f 259 334 335
f 259 335 330
f 259 333 329
f 259 329 334
f 260 336 261
f 261 336 337
f 261 337 338
f 261 338 262
f 262 338 339
f 262 339 399
f 262 399 340
f 262 340 263
f 263 340 264
f 264 340 341
f 264 341 342
f 264 342 265
f 265 342 266
f 266 342 343
f 266 343 344
f 266 344 267
f 267 344 345
f 267 345 268
f 268 345 270
f 268 270 269
f 270 345 346
f 270 346 347
f 270 347 271
f 271 347 272
f 272 347 273
f 273 347 274
f 274 347 275
f 275 347 276
f 276 347 277
f 277 347 278
f 278 347 348
f 279 348 283
f 280 284 285
f 280 285 281
f 283 348 349
f 283 349 284
f 284 350 351
f 284 351 352
f 284 352 353
f 284 353 285
f 284 349 350
f 285 353 354
f 285 354 298
f 285 298 286
f 286 298 355
f 286 355 356
f 286 356 287
f 287 356 355
f 287 355 357
f 288 300 358
f 288 358 359
f 288 359 305
f 288 305 360
f 288 360 289
f 289 360 292
f 289 292 290
f 291 293 304
f 291 304 303
f 292 360 293
f 293 360 305
f 293 305 304
f 294 361 295
f 295 361 298
f 295 298 296
f 297 362 363
f 297 363 364
f 297 364 301
f 297 298 365
f 297 365 362
f 298 361 355
f 298 354 365
f 299 366 300
f 299 302 367
f 299 367 368
f 299 368 366
f 300 366 369
f 300 369 358
f 301 370 367
f 301 367 302
f 301 364 370
f 305 359 358
f 305 358 306
f 306 358 369
f 306 369 371
f 306 371 312
f 306 312 311
f 306 311 310
f 306 310 309
f 306 309 308
f 306 308 307
f 312 315 313
f 312 371 372
f 312 372 373
f 312 373 315
f 315 373 374
f 315 374 316
f 316 374 375
f 316 375 376
f 316 376 319
f 316 319 317
f 318 322 323
f 319 376 321
f 319 321 320
f 321 376 377
f 321 377 322
f 322 377 378
f 322 378 379
f 322 379 323
f 323 379 380
f 323 380 324
f 324 326 325
f 324 380 381
f 324 381 326
f 326 381 328
f 328 382 383
f 328 383 329
f 328 381 382
f 329 383 334
f 330 335 331
f 331 335 384
f 331 384 385
f 331 385 386
f 331 386 332
f 334 383 335
f 335 387 388
f 335 388 389
f 335 389 390
f 335 390 385
f 335 385 384
f 335 383 387
f 336 391 392
f 336 392 337
f 337 392 338
f 338 393 394
f 338 394 395
f 338 395 396
f 338 396 397
f 338 397 339
f 338 392 393
f 339 397 396
f 339 396 398
f 339 398 399
f 340 399 346
f 340 346 341
f 341 346 342
f 342 346 343
f 343 345 344
f 343 346 345
f 346 399 400
f 346 400 401
f 346 401 402
f 346 402 403
f 346 403 347
f 347 404 405
f 347 405 406
f 347 406 407
f 347 407 348
f 347 403 452
f 347 452 408
f 347 408 404
f 348 407 409
f 348 409 410
f 348 410 411
f 348 411 412
f 348 412 413
f 348 413 350
f 348 350 349
f 350 413 351
f 351 413 414
f 351 414 352
f 352 414 364
f 352 364 415
f 352 415 353
f 353 415 364
f 353 364 354
f 354 364 365
f 355 361 357
f 362 365 363
f 363 365 364
f 364 414 416
f 364 416 370
f 366 417 371
f 366 371 369
f 366 368 418
f 366 418 414
f 366 414 413
f 366 413 419
f 366 419 420
f 366 420 417
f 367 370 368
f 368 370 416
f 368 416 418
f 371 417 372
f 372 417 421
f 372 421 374
f 372 374 373
f 374 421 422
f 374 422 423
f 374 423 375
f 375 423 376
f 376 424 377
f 376 423 425
f 376 425 426
f 376 426 424
f 377 424 378
f 378 424 426
f 378 426 379
f 379 426 427
f 379 427 380
f 380 427 382
f 380 382 381
f 382 427 428
f 382 428 429
f 382 429 430
f 382 430 387
f 382 387 431
f 382 431 383
f 383 431 387
f 385 388 432
f 385 432 433
f 385 433 434
f 385 434 435
f 385 435 386
f 385 390 388
f 387 430 429
f 387 429 436
f 387 436 437
f 387 437 388
f 388 437 438
f 388 438 398
f 388 398 432
f 388 390 389
f 391 439 392
f 392 439 440
f 392 440 393
f 393 440 441
f 393 441 394
f 394 396 395
f 394 441 442
f 394 442 396
f 396 442 398
f 398 442 432
f 398 438 443
f 398 443 444
f 398 444 399
f 399 445 446
f 399 446 402
f 399 402 400
f 399 444 447
f 399 447 448
f 399 448 449
f 399 449 445
f 400 402 401
f 402 446 450
f 402 450 403
f 403 450 451
f 403 451 452
f 404 409 453
f 404 453 405
f 404 408 409
f 405 453 409
f 405 409 407
f 405 407 406
f 408 452 479
f 408 479 454
f 408 454 455
f 408 455 410
f 408 410 409
f 410 455 411
f 411 413 412
f 411 455 456
f 411 456 457
f 411 457 458
f 411 458 459
f 411 459 419
f 411 419 413
f 414 418 416
f 417 420 460
f 417 460 461
f 417 461 421
f 419 459 420
f 420 459 460
f 421 461 422
f 422 461 462
f 422 462 463
f 422 463 423
f 423 463 464
f 423 464 465
f 423 465 425
f 425 465 466
f 425 466 467
f 425 467 468
f 425 468 426
f 426 468 469
f 426 469 427
f 427 469 470
f 427 470 448
f 427 448 471
f 427 471 472
f 427 472 428
f 428 472 473
f 428 473 429
f 429 473 436
f 432 442 441
f 432 441 433
f 433 441 434
f 434 441 474
f 434 474 435
f 436 471 475
f 436 475 443
f 436 443 438
f 436 438 437
f 436 473 472
f 436 472 471
f 439 474 441
f 439 441 440
f 443 475 448
f 443 448 444
f 444 448 447
f 445 449 476
f 445 476 446
f 446 476 477
f 446 477 450
f 448 470 476
f 448 476 449
f 448 475 471
f 450 477 478
f 450 478 451
f 451 478 479
f 451 479 452
f 454 479 480
f 454 480 464
f 454 464 463
f 454 463 481
f 454 481 482
f 454 482 456
f 454 456 455
f 456 482 481
f 456 481 457
f 457 462 460
f 457 460 458
f 457 481 462
f 458 460 459
f 460 462 461
f 462 481 463
f 464 480 465
f 465 467 466
f 465 480 483
f 465 483 484
f 465 484 467
f 467 484 485
f 467 485 486
f 467 486 468
f 468 486 469
f 469 486 470
f 470 486 476
f 476 485 477
f 476 486 485
f 477 485 478
f 478 485 484
f 478 484 483
f 478 483 479
f 479 483 480

