# https://github.com/mikedh/trimesh
v -0.01817678 -0.00000283 -0.00052757
v -0.01785404 -0.00563056 -0.00052836
v -0.01785404 -0.00659139 -0.00052678
v -0.01785404 -0.00755680 -0.00050470
v -0.01785404 -0.00851763 -0.00039584
v -0.01785404 -0.00948762 -0.00013475
v -0.01785404 -0.01016935 0.00012477
v -0.01785404 -0.01027001 0.00019655
v -0.01785404 -0.01053538 0.00041505
v -0.01785404 -0.01101122 0.00091041
v -0.01785404 -0.01147791 0.00139789
v -0.01785404 -0.01241587 0.00238310
v -0.01785404 -0.01269954 0.00271046
v -0.01785404 -0.01329892 0.00342984
v -0.01785404 -0.01370155 0.00392048
v -0.01785404 -0.01454800 0.00502085
v -0.01785404 -0.01494148 0.00553436
v -0.01817678 -0.00000283 0.00642492
v -0.01817678 0.00528632 -0.00052757
v -0.01785404 -0.00000741 -0.00052836
v 0.00508969 -0.00560311 -0.00052915
v -0.01723714 -0.00817448 -0.00052836
v -0.01723714 -0.00913531 -0.00050627
v -0.01723714 -0.01009614 -0.00031617
v -0.01723305 -0.01099292 0.00003642
v -0.01691030 -0.01177074 0.00015790
v -0.01774781 -0.01062689 0.00032512
v -0.01755171 -0.01126744 0.00065800
v -0.01772739 -0.01251653 0.00227740
v -0.01768653 -0.01342703 0.00330521
v -0.01745775 -0.01397608 0.00366964
v -0.01713909 -0.01577878 0.00553436
v -0.01817678 0.00497520 0.00752924
v -0.01817678 0.00624716 -0.00052599
v -0.01723714 0.00817340 -0.00052757
v -0.01531290 0.01105589 -0.00052757
v -0.01434874 0.01202130 -0.00052757
v -0.01050028 0.01586921 -0.00052757
v 0.00508969 0.01779545 -0.00052836
v 0.00508969 0.00396861 -0.00052915
v 0.01739089 -0.00560311 -0.00052915
v -0.00377159 -0.01875736 -0.00052836
v -0.00665181 -0.01779195 -0.00052836
v -0.01050028 -0.01587029 -0.00052836
v -0.01338867 -0.01298322 -0.00052836
v -0.01530882 -0.01106155 -0.00052836
v -0.01627298 -0.01009614 -0.00052678
v -0.01530882 -0.01201781 -0.00050706
v -0.01627298 -0.01106155 -0.00046210
v -0.01633017 -0.01206356 -0.00009925
v -0.01604828 -0.01280020 0.00010031
v -0.01668560 -0.01241587 0.00047421
v -0.01722079 -0.01199493 0.00088675
v -0.01577456 -0.01344076 0.00040242
v -0.01633426 -0.01305642 0.00075896
v -0.01555394 -0.01398523 0.00077553
v -0.01585626 -0.01545850 0.00316165
v -0.01693073 -0.01602128 0.00553436
v 0.00508969 0.01813860 0.00752924
v -0.01817678 0.01610255 0.00752924
v 0.00508969 -0.02359355 0.00722555
v 0.00640111 -0.02327785 0.00722555
v 0.00711605 -0.02310398 0.00722555
v 0.00723045 -0.02306738 0.00722555
v 0.00779015 -0.02287521 0.00722555
v 0.00836211 -0.02264645 0.00722555
v 0.00991865 -0.02200589 0.00722555
v 0.01065811 -0.02168561 0.00722555
v 0.01140575 -0.02130128 0.00722555
v -0.01817678 0.00721256 -0.00049208
v -0.01723714 0.00913880 -0.00050627
v -0.01627298 0.01009964 -0.00052599
v -0.01338458 0.01394296 -0.00052205
v -0.00953612 0.01683004 -0.00052126
v -0.00761597 0.01779087 -0.00052205
v -0.00665181 0.01779087 -0.00052757
v -0.00377159 0.01875628 -0.00052757
v 0.00681373 0.01779545 -0.00052836
v 0.01835505 0.00396861 -0.00052915
v 0.01835505 -0.00528283 -0.00052915
v 0.00392534 -0.01875736 -0.00052836
v -0.00064216 -0.01899986 -0.00051337
v -0.00160223 -0.01899986 -0.00051022
v -0.00473166 -0.01875736 -0.00052442
v -0.00761189 -0.01779195 -0.00052205
v -0.00954020 -0.01683112 -0.00052126
v -0.01338867 -0.01394862 -0.00052284
v -0.01434874 -0.01298322 -0.00051968
v -0.01434874 -0.01394862 -0.00031854
v -0.01507595 -0.01394862 0.00012713
v -0.01485534 -0.01445649 0.00033301
v -0.01576230 -0.01632325 0.00426124
v -0.01663250 -0.01622259 0.00534978
v -0.01642822 -0.01653830 0.00553436
v 0.00508969 0.01899420 0.00752924
v 0.01187557 -0.02101761 0.00722555
v 0.01253332 -0.02061955 0.00722555
v 0.01368132 -0.01991493 0.00722555
v 0.01434316 -0.01945740 0.00722555
v 0.01480890 -0.01908221 0.00722555
v 0.01618977 -0.01790176 0.00722555
v 0.01689246 -0.01729781 0.00722555
v 0.01735412 -0.01680824 0.00722555
v 0.01778309 -0.01632783 0.00722555
v 0.01913945 -0.01474017 0.00722555
v 0.01959293 -0.01415909 0.00722555
v 0.01991159 -0.01367868 0.00722555
v 0.02099831 -0.01190800 0.00722555
v 0.02144362 -0.01113476 0.00722555
v 0.02168058 -0.01068179 0.00722555
v 0.02178680 -0.01044845 0.00722555
v 0.02231790 -0.00917192 0.00722555
v 0.02281632 -0.00796401 0.00722555
v 0.02306145 -0.00720907 0.00722555
v 0.02314724 -0.00689795 0.00722555
v 0.02329432 -0.00632145 0.00722555
v 0.02346591 -0.00560311 0.00722555
v -0.01784178 0.01649146 0.00752924
v -0.01577456 0.01344425 0.00040242
v -0.01817678 0.01480314 0.00583726
v -0.01620353 -0.01675791 0.00553436
v -0.01592572 -0.01700499 0.00553436
v -0.01547632 -0.01739847 0.00553436
v -0.01476954 -0.01800700 0.00553436
v -0.01421393 -0.01847369 0.00553436
v -0.01351532 -0.01899986 0.00553436
v -0.01344995 -0.01899986 0.00545391
v -0.01249805 -0.01899986 0.00442294
v -0.01163194 -0.01899986 0.00351582
v -0.01024698 -0.01899986 0.00206916
v -0.00954838 -0.01899986 0.00143181
v -0.00922154 -0.01899986 0.00116046
v -0.00871904 -0.01899986 0.00074792
v -0.00813890 -0.01899986 0.00034011
v -0.00750975 -0.01899986 0.00005535
v -0.00733816 -0.01899986 -0.00001722
v -0.00665181 -0.01899986 -0.00021126
v -0.00637400 -0.01899986 -0.00027752
v -0.00569582 -0.01899986 -0.00036744
v 0.00508969 -0.02115029 0.00246119
v 0.00584957 -0.02260984 0.00566136
v 0.00717734 -0.02305366 0.00716087
v 0.00584957 -0.02004305 0.00067062
v 0.00640111 -0.02022149 0.00128825
v 0.00713240 -0.02207910 0.00526302
v 0.00760630 -0.02224839 0.00590352
v 0.00873797 -0.02227584 0.00681932
v 0.01029043 -0.02120977 0.00604787
v 0.00969804 -0.02034045 0.00396307
v 0.01022914 -0.02022149 0.00417131
v 0.01127093 -0.02124180 0.00696998
v -0.01817678 0.00817340 -0.00033826
v -0.01723714 0.01009964 -0.00031538
v -0.01627298 0.01105589 -0.00046210
v -0.01531290 0.01202130 -0.00050706
v -0.01434874 0.01298671 -0.00051968
v -0.01434874 0.01394296 -0.00031775
v -0.01242451 0.01490837 -0.00051337
v -0.01146444 0.01586921 -0.00049523
v -0.00857605 0.01779087 -0.00044633
v -0.00569174 0.01875628 -0.00049996
v -0.00473575 0.01875628 -0.00052442
v 0.00007688 0.01899420 -0.00051337
v 0.00392534 0.01875628 -0.00052757
v 0.00777381 0.01779545 -0.00051732
v 0.00873797 0.01683004 -0.00052836
v 0.00488541 0.01875628 -0.00052284
v 0.01931512 0.00047759 -0.00052599
v 0.01162227 0.01490837 -0.00052836
v 0.01546665 0.01106047 -0.00052836
v 0.01739089 0.00721714 -0.00052836
v 0.01835505 0.00529090 -0.00052836
v 0.01931512 -0.00047410 -0.00052599
v 0.01931512 -0.00239576 -0.00051968
v 0.01835505 -0.00624824 -0.00052205
v 0.01739089 -0.00817448 -0.00052599
v 0.01546665 -0.01105698 -0.00052836
v 0.01450658 -0.01202696 -0.00052836
v 0.01354651 -0.01298779 -0.00052836
v 0.01162227 -0.01490946 -0.00052836
v 0.00873797 -0.01682655 -0.00052836
v 0.00681373 -0.01779653 -0.00052836
v 0.00488541 -0.01875736 -0.00052284
v 0.00104103 -0.01899986 -0.00050864
v 0.00007688 -0.01899986 -0.00051337
v 0.00508969 -0.01972277 -0.00000854
v -0.00256639 -0.01899986 -0.00050075
v -0.00352647 -0.01899986 -0.00048734
v -0.00569582 -0.01875736 -0.00049996
v -0.00857605 -0.01779195 -0.00044711
v -0.01146444 -0.01587029 -0.00049602
v -0.01242451 -0.01490488 -0.00051337
v -0.01338867 -0.01490488 -0.00028304
v -0.01425069 -0.01482710 0.00017288
v -0.01338867 -0.01559577 0.00016263
v -0.01386666 -0.01538987 0.00037245
v -0.01475729 -0.01532124 0.00143181
v -0.01562748 -0.01717428 0.00539159
v 0.01966238 0.01325208 0.00635472
v 0.01923750 0.01388348 0.00635472
v 0.01898420 0.01422664 0.00635472
v 0.01869414 0.01459267 0.00635472
v 0.01752162 0.01596529 0.00635472
v 0.01729692 0.01622609 0.00635472
v 0.01704771 0.01650061 0.00635472
v 0.01680667 0.01675226 0.00635472
v 0.01656563 0.01698103 0.00635472
v 0.01631234 0.01721437 0.00635472
v 0.01607538 0.01742484 0.00635472
v 0.01570769 0.01774054 0.00635472
v 0.01451884 0.01875628 0.00635472
v 0.01418792 0.01903538 0.00635472
v 0.01382431 0.01930532 0.00635472
v 0.01341986 0.01956155 0.00635472
v 0.01228003 0.02026158 0.00635472
v 0.01158550 0.02068709 0.00635472
v 0.01090732 0.02108058 0.00635472
v 0.01046610 0.02129562 0.00635472
v 0.00998402 0.02150609 0.00635472
v 0.00964493 0.02165250 0.00635472
v 0.00866443 0.02205513 0.00635472
v 0.00779423 0.02241202 0.00635472
v 0.00714874 0.02262248 0.00635472
v 0.00683007 0.02272314 0.00635472
v 0.00578421 0.02297936 0.00635472
v 0.00508969 0.02314865 0.00635472
v -0.01514131 0.01899420 0.00752924
v 0.01168355 -0.01906391 0.00367200
v 0.01258235 -0.01855604 0.00374536
v 0.01393462 -0.01917372 0.00624349
v 0.01419609 -0.01936589 0.00688479
v 0.01408170 -0.01832270 0.00511314
v 0.01547891 -0.01684485 0.00468561
v 0.01509488 -0.01549511 0.00214173
v 0.01496006 -0.01440159 0.00041110
v 0.01695783 -0.01640103 0.00607075
v 0.01608764 -0.01362835 0.00112418
v 0.01799553 -0.01361920 0.00402381
v 0.01884121 -0.01346821 0.00517309
v 0.01985848 -0.01355972 0.00700390
v 0.02055300 -0.01110273 0.00561482
v 0.02088801 -0.01080991 0.00590352
v 0.02071233 -0.01047133 0.00526223
v 0.02170509 -0.01053081 0.00713799
v 0.01899237 -0.00913531 0.00104372
v 0.01920073 -0.00826599 0.00075975
v 0.01964195 -0.00728228 0.00082128
v 0.01991159 -0.00701233 0.00111945
v 0.02274279 -0.00783590 0.00699364
v 0.02072867 -0.00660055 0.00235628
v 0.02170100 -0.00663715 0.00426203
v 0.02266925 -0.00666918 0.00617014
v 0.02266108 -0.00470176 0.00522831
v 0.02311864 -0.00436318 0.00596899
v 0.02324121 -0.00367687 0.00596899
v 0.02329432 -0.00336117 0.00596899
v 0.02334743 -0.00279839 0.00596899
v 0.02338420 -0.00239576 0.00596899
v 0.02346182 -0.00143493 0.00596899
v 0.02355987 -0.00021787 0.00596899
v 0.02355578 0.00021679 0.00596899
v 0.02338420 0.00397319 0.00635472
v 0.02331475 0.00438040 0.00635472
v 0.02280815 0.00649880 0.00635472
v 0.02260388 0.00721714 0.00635472
v 0.02257120 0.00731322 0.00635472
v 0.02226888 0.00815967 0.00635472
v 0.02190936 0.00902442 0.00635472
v 0.02143545 0.01015912 0.00635472
v 0.02132923 0.01039246 0.00635472
v 0.02102691 0.01100099 0.00635472
v 0.02064697 0.01165069 0.00635472
v 0.02040593 0.01204418 0.00635472
v -0.01748226 0.01688494 0.00752924
v -0.01747409 0.01687579 0.00750005
v -0.01685311 0.01645485 0.00599108
v -0.01585626 0.01545284 0.00316244
v -0.01485534 0.01445541 0.00033380
v -0.01604828 0.01279912 0.00010110
v -0.01668969 0.01241021 0.00047421
v -0.01789489 0.01367759 0.00394414
v -0.01817678 0.01472536 0.00573630
v -0.01284939 -0.01630495 0.00044344
v -0.01397288 -0.01836388 0.00504531
v -0.01296787 -0.01736187 0.00221588
v -0.01307409 -0.01839133 0.00401750
v -0.01279220 -0.01820374 0.00337778
v -0.01150121 -0.01806190 0.00177257
v -0.01025515 -0.01842336 0.00108632
v -0.01046759 -0.01873906 0.00184987
v -0.00994466 -0.01823119 0.00044581
v -0.00958923 -0.01862467 0.00080077
v -0.00930325 -0.01840506 0.00017288
v -0.00857605 -0.01856977 0.00000329
v -0.00665181 -0.01875736 -0.00037218
v -0.00545887 -0.01899986 -0.00038480
v 0.00508969 -0.02014828 0.00051443
v 0.00510603 -0.02013455 0.00049708
v 0.00681373 -0.01940707 0.00011372
v 0.00675654 -0.01989663 0.00092224
v 0.00703843 -0.02010710 0.00151069
v 0.00754502 -0.02126468 0.00402696
v 0.00912199 -0.01919660 0.00140893
v 0.00806387 -0.01916000 0.00052153
v 0.00941206 -0.01838218 0.00020049
v 0.01013926 -0.01921490 0.00233183
v 0.01005756 -0.01820374 0.00050024
v -0.01817678 0.00911135 -0.00005350
v -0.01817678 0.00930809 0.00000803
v -0.01790714 0.01009964 0.00013344
v -0.01723305 0.01099184 0.00003642
v -0.01633017 0.01206248 -0.00009925
v -0.01507595 0.01394296 0.00012713
v -0.01425478 0.01483059 0.00017367
v -0.01338458 0.01490837 -0.00028225
v -0.01248988 0.01593784 -0.00013002
v -0.01050028 0.01683004 -0.00039032
v -0.00958923 0.01786408 -0.00010162
v -0.00857605 0.01856869 0.00000408
v -0.00665181 0.01875628 -0.00037218
v -0.00569174 0.01899420 -0.00037060
v -0.00377159 0.01899420 -0.00045816
v -0.00280743 0.01899420 -0.00048813
v -0.00184327 0.01899420 -0.00050075
v -0.00088320 0.01899420 -0.00051022
v 0.00508969 0.01972169 -0.00000854
v 0.00080408 0.01899420 -0.00051337
v 0.00176824 0.01899420 -0.00050864
v 0.00873797 0.01779545 -0.00042187
v 0.00969804 0.01683004 -0.00051337
v 0.01066220 0.01586921 -0.00052757
v 0.00584957 0.01875628 -0.00048971
v 0.00272423 0.01899420 -0.00049917
v 0.00368430 0.01899420 -0.00048340
v 0.01931512 0.00144299 -0.00052284
v 0.02022617 0.00144299 -0.00007243
v 0.01354651 0.01394754 -0.00051337
v 0.01642673 0.01009964 -0.00052363
v 0.01739089 0.00817797 -0.00052678
v 0.01835505 0.00625173 -0.00052284
v 0.01931512 0.00240383 -0.00051968
v 0.02022617 -0.00143493 -0.00007243
v 0.01931512 -0.00336117 -0.00049839
v 0.01835505 -0.00720907 -0.00044790
v 0.01739089 -0.00913531 -0.00047551
v 0.01643081 -0.01009614 -0.00052363
v 0.01354651 -0.01394405 -0.00051337
v 0.01066220 -0.01587029 -0.00052678
v 0.00777381 -0.01779653 -0.00051732
v 0.00508969 -0.01875736 -0.00051574
v 0.00296118 -0.01899986 -0.00048340
v 0.00200111 -0.01899986 -0.00049917
v 0.00584957 -0.01956721 -0.00003930
v 0.00508969 -0.02011625 0.00047026
v -0.00448654 -0.01899986 -0.00045342
v 0.00392534 -0.01899986 -0.00044869
v 0.00584957 -0.01875279 -0.00048892
v -0.00958923 -0.01786516 -0.00010241
v -0.01050028 -0.01683112 -0.00039111
v -0.01248988 -0.01593892 -0.00013002
v -0.01220798 -0.01655202 0.00011609
v 0.02070416 0.01145395 0.00623955
v 0.01945811 0.01295468 0.00568818
v 0.01883713 0.01347170 0.00517309
v 0.01878810 0.01437305 0.00621431
v 0.01643898 0.01299586 0.00083863
v 0.01681076 0.01527440 0.00437088
v 0.01595690 0.01540251 0.00324132
v 0.01695783 0.01639995 0.00607154
v 0.01586294 0.01627184 0.00432908
v 0.01598142 0.01734248 0.00610151
v 0.01408170 0.01832161 0.00511235
v 0.01393462 0.01917264 0.00624428
v 0.01329321 0.01937853 0.00590273
v 0.01140166 0.01939683 0.00394729
v 0.01013926 0.01921839 0.00233183
v 0.01022914 0.02022498 0.00417053
v 0.01093184 0.02105312 0.00632790
v 0.01029043 0.02121326 0.00604787
v 0.00969804 0.02033936 0.00396307
v 0.00786369 0.02199108 0.00561482
v 0.00760630 0.02224730 0.00590352
v 0.00713240 0.02207801 0.00526302
v 0.00640111 0.02022498 0.00128746
v 0.00584957 0.02004654 0.00067062
v 0.00510603 0.02013805 0.00049629
v 0.00508969 0.02013805 0.00049314
v -0.00665181 0.01899420 -0.00021442
v -0.00751384 0.01899420 0.00005220
v -0.00778756 0.01899420 0.00020601
v -0.00863733 0.01899420 0.00068955
v -0.00881709 0.01899420 0.00081891
v -0.00954838 0.01899420 0.00142234
v -0.01025107 0.01899420 0.00206443
v -0.01064327 0.01899420 0.00247145
v -0.01133779 0.01899420 0.00319951
v -0.01249396 0.01899420 0.00441190
v -0.01344587 0.01899420 0.00544365
v -0.01437734 0.01899420 0.00654245
v -0.01501467 0.01899420 0.00736280
v -0.01575004 0.01823926 0.00716324
v -0.01630157 0.01800134 0.00752924
v 0.01157733 -0.01751285 0.00090884
v 0.01216155 -0.01735729 0.00126537
v 0.01307668 -0.01732069 0.00228450
v 0.01320742 -0.01646967 0.00115415
v 0.01397547 -0.01533954 0.00044108
v 0.01486201 -0.01526634 0.00150044
v 0.01432273 -0.01470356 0.00009243
v 0.01523378 -0.01376103 0.00010426
v 0.01615300 -0.01274072 0.00013423
v 0.01587520 -0.01338128 0.00048209
v 0.01699460 -0.01261261 0.00119517
v 0.01679441 -0.01233809 0.00055387
v 0.01783211 -0.01243875 0.00236654
v 0.01834687 -0.01201323 0.00279407
v 0.01785254 -0.01054453 0.00041189
v 0.01868188 -0.01032491 0.00160140
v 0.01887389 -0.00967978 0.00126537
v 0.01872273 -0.00913531 0.00056334
v 0.01883304 -0.00865032 0.00037639
v 0.01974000 -0.00654106 0.00047815
v 0.01983397 -0.00590051 0.00030225
v 0.02027519 -0.00528283 0.00085441
v 0.02079813 -0.00399257 0.00126458
v 0.02273461 -0.00405663 0.00507765
v 0.02085532 -0.00336117 0.00114705
v 0.02067148 -0.00239576 0.00054678
v 0.02095337 -0.00143493 0.00095222
v 0.02170509 -0.00069829 0.00233656
v 0.02076136 -0.00006231 0.00036456
v 0.02268559 -0.00006231 0.00420918
v 0.02268559 0.00006123 0.00420918
v 0.02170509 0.00070178 0.00233656
v 0.02346182 0.00144299 0.00596899
v 0.02338420 0.00240383 0.00596899
v 0.02329432 0.00336923 0.00596899
v 0.02279181 0.00397319 0.00515968
v 0.02273461 0.00406927 0.00507844
v 0.02053666 0.00432549 0.00090726
v 0.02099423 0.00627461 0.00271677
v 0.02072867 0.00660861 0.00235707
v 0.02266925 0.00667724 0.00617014
v 0.02061428 0.00721714 0.00257005
v 0.02162338 0.00842504 0.00536319
v 0.01883304 0.00865381 0.00037561
v 0.02104734 0.01013166 0.00561482
v 0.02071233 0.01047482 0.00526223
v 0.02088801 0.01080882 0.00590352
v -0.01691847 0.01746602 0.00752924
v -0.01676323 0.01731960 0.00709224
v -0.01576230 0.01632217 0.00426124
v -0.01475320 0.01532016 0.00143181
v -0.01453667 0.01511884 0.00085441
v -0.01387075 0.01538879 0.00037245
v -0.01691030 0.01177423 0.00015868
v -0.01722079 0.01199385 0.00088675
v -0.01772739 0.01252002 0.00227740
v -0.01817678 0.01392009 0.00469350
v -0.01175450 -0.01719715 0.00056886
v -0.01245311 -0.01685400 0.00082759
v -0.01269415 -0.01715597 0.00157458
v -0.01205274 -0.01738932 0.00121095
v -0.01111309 -0.01739389 0.00024703
v -0.01050028 -0.01758606 0.00006009
v 0.00741838 -0.01929268 0.00028253
v 0.00873797 -0.01853774 0.00002932
v 0.00877473 -0.01903646 0.00084731
v 0.00971847 -0.01784686 -0.00007953
v 0.01066220 -0.01753116 0.00010268
v 0.01122190 -0.01736187 0.00029436
v -0.01817678 0.01009506 0.00053337
v -0.01774373 0.01062581 0.00032512
v -0.01338458 0.01559468 0.00016263
v -0.01221207 0.01655551 0.00011609
v -0.01144810 0.01685749 -0.00003694
v -0.00930734 0.01840397 0.00017288
v -0.01050028 0.01758498 0.00006009
v 0.00584957 0.01956612 -0.00003930
v 0.00464846 0.01899420 -0.00044633
v 0.00873797 0.01853666 0.00002932
v 0.00972255 0.01784577 -0.00007953
v 0.01066220 0.01683004 -0.00034694
v 0.01162227 0.01586921 -0.00046920
v 0.00681373 0.01875628 -0.00033668
v 0.01258643 0.01490837 -0.00049681
v 0.02036099 0.00041811 0.00000881
v 0.01931512 0.00336923 -0.00049839
v 0.02018940 0.00240383 -0.00006849
v 0.01361187 0.01497700 -0.00013080
v 0.01458420 0.01402532 -0.00013790
v 0.01450249 0.01298213 -0.00050470
v 0.01739089 0.00913423 -0.00047630
v 0.01546665 0.01202588 -0.00048261
v 0.01835505 0.00721714 -0.00044869
v 0.02018940 -0.00239576 -0.00006849
v 0.02036099 -0.00041461 0.00000881
v 0.02013220 -0.00336117 -0.00004719
v 0.01931512 -0.00432200 -0.00042108
v 0.01913128 -0.00720907 0.00000171
v 0.01824474 -0.00913531 -0.00002511
v 0.01931512 -0.00528283 -0.00027279
v 0.01747668 -0.01017393 -0.00012449
v 0.01643081 -0.01105698 -0.00041241
v 0.01546665 -0.01202696 -0.00048182
v 0.01450658 -0.01298779 -0.00050470
v 0.01458420 -0.01402641 -0.00013712
v 0.01361187 -0.01497351 -0.00013080
v 0.01258643 -0.01490946 -0.00049602
v 0.00969804 -0.01682655 -0.00051337
v 0.00873797 -0.01779653 -0.00042187
v 0.00681373 -0.01875279 -0.00033668
v -0.01144810 -0.01685857 -0.00003694
v 0.01770955 0.01112452 0.00078105
v 0.01784028 0.01149055 0.00138843
v 0.01886981 0.00968328 0.00126537
v 0.01836322 0.01011336 0.00083863
v 0.01782803 0.01243766 0.00236654
v 0.01679033 0.01234158 0.00055387
v 0.01699460 0.01261153 0.00119517
v 0.01587520 0.01338019 0.00048209
v 0.01496006 0.01439593 0.00041110
v 0.01509488 0.01549402 0.00214252
v 0.01397547 0.01534761 0.00044029
v 0.01307668 0.01732418 0.00228371
v 0.01216563 0.01735163 0.00126537
v 0.01157325 0.01751177 0.00090805
v 0.01005756 0.01819808 0.00049945
v 0.00941206 0.01838110 0.00020049
v 0.00912199 0.01919551 0.00140893
v 0.00805979 0.01915891 0.00052153
v 0.00747966 0.02027988 0.00215277
v 0.00754502 0.02126359 0.00402696
v 0.00675654 0.01989555 0.00092303
v 0.00681373 0.01941056 0.00011372
v -0.00958923 0.01861902 0.00080156
v -0.00994466 0.01823011 0.00044581
v -0.01054522 0.01807454 0.00080156
v -0.01144810 0.01756668 0.00087571
v -0.01245311 0.01860987 0.00371302
v -0.01279220 0.01819808 0.00337857
v -0.01307409 0.01839025 0.00401750
v -0.01296379 0.01736536 0.00221588
v -0.01285348 0.01630387 0.00044423
v 0.01186331 -0.01716055 0.00062408
v 0.01231679 -0.01651999 0.00015001
v 0.01256192 -0.01681282 0.00088911
v 0.01295820 -0.01625920 0.00051286
v 0.01333406 -0.01561864 0.00011530
v 0.01551976 -0.01302897 -0.00011187
v 0.01645532 -0.01202238 -0.00004246
v 0.01701094 -0.01169753 0.00022021
v 0.01719478 -0.01202238 0.00086624
v 0.01804864 -0.00990398 0.00013897
v 0.01896786 -0.00800977 0.00017131
v 0.01987482 -0.00560311 0.00024230
v 0.02061020 -0.00336117 0.00066588
v 0.02053257 -0.00431285 0.00090726
v 0.02076136 0.00006123 0.00036456
v 0.02095337 0.00144299 0.00095222
v 0.02067148 0.00240383 0.00054678
v 0.02085532 0.00336923 0.00114705
v 0.02079813 0.00397319 0.00125827
v 0.02061020 0.00336923 0.00066588
v 0.02056526 0.00397319 0.00081812
v 0.01991159 0.00529090 0.00017683
v 0.01983397 0.00590858 0.00030225
v 0.02027519 0.00529090 0.00085362
v 0.01974000 0.00654913 0.00047815
v 0.01991159 0.00701582 0.00111866
v 0.01963787 0.00729034 0.00082128
v 0.01896786 0.00801326 0.00017052
v 0.01804455 0.00990289 0.00013818
v 0.01872273 0.00913423 0.00056334
v 0.01899237 0.00913423 0.00104451
v -0.01754763 0.01127094 0.00065800
v -0.01817678 0.01297298 0.00356630
v -0.01817678 0.01305991 0.00366569
v -0.01786220 0.01194809 0.00190036
v -0.01817678 0.01198012 0.00246987
v -0.01817678 0.01227295 0.00279013
v 0.01066220 -0.01682655 -0.00034694
v 0.01157733 -0.01684027 0.00001276
v -0.01817678 0.01047024 0.00088596
v -0.01175450 0.01719607 0.00056965
v -0.01111718 0.01739281 0.00024703
v 0.00742246 0.01929160 0.00028253
v 0.01066220 0.01753465 0.00010347
v 0.01157325 0.01683919 0.00001276
v 0.01261912 0.01591038 -0.00009610
v 0.02013220 0.00336923 -0.00004719
v 0.01931512 0.00433007 -0.00042187
v 0.01431865 0.01470248 0.00009164
v 0.01333406 0.01561756 0.00011451
v 0.01523378 0.01375995 0.00010347
v 0.01551976 0.01303246 -0.00011187
v 0.01642673 0.01106047 -0.00041320
v 0.01747259 0.01017284 -0.00012449
v 0.01824065 0.00913423 -0.00002511
v 0.01913128 0.00721714 0.00000171
v 0.01931512 0.00529090 -0.00027358
v 0.02002598 -0.00432200 0.00002932
v 0.01991159 -0.00528283 0.00017683
v 0.01721113 -0.01105698 0.00003721
v 0.01261912 -0.01590689 -0.00009610
v 0.01162227 -0.01587029 -0.00046841
v 0.01701094 0.01170102 0.00022021
v 0.01719478 0.01202130 0.00086545
v 0.01784845 0.01054345 0.00041110
v 0.01614892 0.01273964 0.00013344
v 0.01485792 0.01527440 0.00150122
v 0.01232088 0.01651891 0.00015080
v 0.01295820 0.01625811 0.00051207
v 0.01359144 0.01591038 0.00079840
v 0.01256192 0.01681631 0.00088911
v 0.01186331 0.01715947 0.00062408
v 0.01122190 0.01736536 0.00029436
v 0.00877473 0.01903538 0.00084731
v -0.01205274 0.01738366 0.00121095
v -0.01269415 0.01715489 0.00157458
v -0.01245311 0.01685291 0.00082759
v 0.02006684 0.00397319 0.00000014
v 0.02002598 0.00433007 0.00002932
v 0.01721113 0.01106047 0.00003721
v 0.01645532 0.01202130 -0.00004246
f 1 2 3
f 1 3 4
f 1 4 5
f 1 5 6
f 1 6 7
f 1 7 8
f 1 8 9
f 1 9 10
f 1 10 11
f 1 11 12
f 1 12 13
f 1 13 14
f 1 14 15
f 1 15 16
f 1 16 17
f 1 17 18
f 1 18 33
f 1 33 60
f 1 60 120
f 1 120 282
f 1 282 459
f 1 459 578
f 1 578 577
f 1 577 581
f 1 581 580
f 1 580 584
f 1 584 472
f 1 472 309
f 1 309 308
f 1 308 152
f 1 152 70
f 1 70 34
f 1 34 19
f 1 19 20
f 1 20 2
f 2 20 40
f 2 40 21
f 2 21 22
f 2 22 3
f 3 22 4
f 4 22 23
f 4 23 5
f 5 23 24
f 5 24 6
f 6 24 7
f 7 24 25
f 7 25 26
f 7 26 27
f 7 27 8
f 8 27 9
f 9 27 10
f 10 27 11
f 11 27 28
f 11 28 12
f 12 29 13
f 12 28 29
f 13 29 14
f 14 30 15
f 14 29 30
f 15 30 16
f 16 30 31
f 16 31 32
f 16 32 17
f 17 32 33
f 17 33 18
f 19 34 35
f 19 35 20
f 20 35 36
f 20 36 37
f 20 37 38
f 20 38 39
f 20 39 40
f 21 41 81
f 21 81 42
f 21 42 43
f 21 43 44
f 21 44 45
f 21 45 46
f 21 46 22
f 21 40 79
f 21 79 80
f 21 80 41
f 22 47 23
f 22 46 47
f 23 47 48
f 23 48 49
f 23 49 24
f 24 49 50
f 24 50 25
f 25 50 26
f 26 50 51
f 26 51 52
f 26 52 53
f 26 53 28
f 26 28 27
f 28 53 29
f 29 53 52
f 29 52 30
f 30 54 31
f 30 52 55
f 30 55 54
f 31 56 32
f 31 54 56
f 32 56 57
f 32 57 58
f 32 58 33
f 33 59 95
f 33 95 227
f 33 227 402
f 33 402 450
f 33 450 274
f 33 274 118
f 33 118 60
f 33 58 61
f 33 61 62
f 33 62 63
f 33 63 64
f 33 64 65
f 33 65 66
f 33 66 67
f 33 67 68
f 33 68 69
f 33 69 59
f 34 70 71
f 34 71 35
f 35 71 72
f 35 72 36
f 36 72 73
f 36 73 37
f 37 73 38
f 38 74 75
f 38 75 76
f 38 76 39
f 38 73 74
f 39 76 77
f 39 77 164
f 39 164 78
f 39 78 79
f 39 79 40
f 41 80 81
f 42 81 185
f 42 185 82
f 42 82 83
f 42 83 84
f 42 84 43
f 43 85 44
f 43 84 85
f 44 85 86
f 44 86 87
f 44 87 45
f 45 87 46
f 46 87 47
f 47 87 88
f 47 88 48
f 48 88 89
f 48 89 49
f 49 89 50
f 50 89 51
f 51 89 90
f 51 90 91
f 51 91 54
f 51 54 52
f 52 54 55
f 54 91 56
f 56 91 57
f 57 92 93
f 57 93 58
f 57 91 92
f 58 93 94
f 58 94 61
f 59 69 96
f 59 96 97
f 59 97 98
f 59 98 99
f 59 99 100
f 59 100 101
f 59 101 102
f 59 102 103
f 59 103 104
f 59 104 105
f 59 105 106
f 59 106 107
f 59 107 108
f 59 108 109
f 59 109 110
f 59 110 111
f 59 111 112
f 59 112 113
f 59 113 114
f 59 114 115
f 59 115 116
f 59 116 117
f 59 117 95
f 60 118 119
f 60 119 120
f 61 94 121
f 61 121 122
f 61 122 123
f 61 123 124
f 61 124 125
f 61 125 126
f 61 126 127
f 61 127 128
f 61 128 129
f 61 129 130
f 61 130 131
f 61 131 132
f 61 132 133
f 61 133 134
f 61 134 135
f 61 135 136
f 61 136 137
f 61 137 138
f 61 138 139
f 61 139 140
f 61 140 141
f 61 141 62
f 62 141 63
f 63 142 64
f 63 141 140
f 63 140 143
f 63 143 144
f 63 144 142
f 64 142 65
f 65 142 145
f 65 145 146
f 65 146 66
f 66 146 147
f 66 147 67
f 67 148 68
f 67 147 149
f 67 149 148
f 68 148 150
f 68 150 151
f 68 151 69
f 69 151 96
f 70 152 71
f 71 153 154
f 71 154 155
f 71 155 72
f 71 152 153
f 72 155 156
f 72 156 73
f 73 156 157
f 73 157 158
f 73 158 74
f 74 158 159
f 74 159 160
f 74 160 75
f 75 160 161
f 75 161 162
f 75 162 76
f 76 162 77
f 77 162 163
f 77 163 327
f 77 327 164
f 78 165 166
f 78 166 79
f 78 164 167
f 78 167 165
f 79 168 173
f 79 173 80
f 79 166 169
f 79 169 170
f 79 170 171
f 79 171 172
f 79 172 168
f 80 173 174
f 80 174 175
f 80 175 176
f 80 176 177
f 80 177 178
f 80 178 179
f 80 179 180
f 80 180 181
f 80 181 182
f 80 182 81
f 81 183 184
f 81 184 185
f 81 182 183
f 82 185 186
f 82 186 83
f 83 187 84
f 83 186 187
f 84 187 188
f 84 188 189
f 84 189 85
f 85 190 86
f 85 189 190
f 86 191 192
f 86 192 87
f 86 190 191
f 87 192 89
f 87 89 88
f 89 192 191
f 89 191 193
f 89 193 194
f 89 194 90
f 90 194 91
f 91 194 195
f 91 195 196
f 91 196 197
f 91 197 92
f 92 198 122
f 92 122 121
f 92 121 93
f 92 197 196
f 92 196 124
f 92 124 123
f 92 123 198
f 93 121 94
f 95 199 200
f 95 200 201
f 95 201 202
f 95 202 203
f 95 203 204
f 95 204 205
f 95 205 206
f 95 206 207
f 95 207 208
f 95 208 209
f 95 209 210
f 95 210 211
f 95 211 212
f 95 212 213
f 95 213 214
f 95 214 215
f 95 215 216
f 95 216 217
f 95 217 218
f 95 218 219
f 95 219 220
f 95 220 221
f 95 221 222
f 95 222 223
f 95 223 224
f 95 224 225
f 95 225 226
f 95 226 227
f 95 117 199
f 96 151 97
f 97 151 228
f 97 228 229
f 97 229 98
f 98 230 231
f 98 231 99
f 98 229 230
f 99 231 100
f 100 231 230
f 100 230 232
f 100 232 101
f 101 232 233
f 101 233 102
f 102 233 234
f 102 234 235
f 102 235 236
f 102 236 103
f 103 236 104
f 104 236 235
f 104 235 105
f 105 235 237
f 105 237 238
f 105 238 239
f 105 239 106
f 106 239 107
f 107 239 240
f 107 240 108
f 108 240 241
f 108 241 242
f 108 242 109
f 109 242 110
f 110 242 243
f 110 243 244
f 110 244 111
f 111 244 245
f 111 245 246
f 111 246 112
f 112 246 247
f 112 247 113
f 113 247 248
f 113 248 249
f 113 249 114
f 114 249 250
f 114 250 251
f 114 251 115
f 115 251 252
f 115 252 116
f 116 252 251
f 116 251 253
f 116 253 117
f 117 253 254
f 117 254 255
f 117 255 256
f 117 256 257
f 117 257 258
f 117 258 259
f 117 259 260
f 117 260 261
f 117 261 262
f 117 262 263
f 117 263 264
f 117 264 265
f 117 265 266
f 117 266 267
f 117 267 268
f 117 268 269
f 117 269 270
f 117 270 271
f 117 271 272
f 117 272 273
f 117 273 199
f 118 274 275
f 118 275 276
f 118 276 277
f 118 277 278
f 118 278 119
f 119 278 279
f 119 279 280
f 119 280 281
f 119 281 120
f 120 281 282
f 122 198 123
f 124 196 283
f 124 283 284
f 124 284 125
f 125 284 126
f 126 284 127
f 127 284 285
f 127 285 286
f 127 286 287
f 127 287 128
f 128 287 288
f 128 288 289
f 128 289 129
f 129 289 290
f 129 290 130
f 130 290 289
f 130 289 291
f 130 291 292
f 130 292 131
f 131 292 293
f 131 293 132
f 132 293 133
f 133 293 134
f 134 293 294
f 134 294 135
f 135 294 136
f 136 294 137
f 137 294 295
f 137 295 138
f 138 295 189
f 138 189 139
f 139 189 296
f 139 296 297
f 139 297 140
f 140 297 143
f 142 144 145
f 143 297 298
f 143 298 299
f 143 299 300
f 143 300 144
f 144 300 145
f 145 300 146
f 146 300 301
f 146 301 302
f 146 302 147
f 147 302 149
f 148 149 150
f 149 303 150
f 149 302 304
f 149 304 303
f 150 303 305
f 150 305 306
f 150 306 151
f 151 306 307
f 151 307 228
f 152 308 153
f 153 308 309
f 153 309 310
f 153 310 311
f 153 311 312
f 153 312 154
f 154 312 157
f 154 157 155
f 155 157 156
f 157 313 314
f 157 314 315
f 157 315 159
f 157 159 158
f 157 312 279
f 157 279 313
f 159 316 317
f 159 317 160
f 159 315 316
f 160 317 318
f 160 318 319
f 160 319 320
f 160 320 161
f 161 320 321
f 161 321 322
f 161 322 323
f 161 323 162
f 162 323 324
f 162 324 325
f 162 325 163
f 163 325 326
f 163 326 327
f 164 327 328
f 164 328 167
f 165 329 330
f 165 330 331
f 165 331 166
f 165 167 332
f 165 332 329
f 166 331 169
f 167 328 333
f 167 333 334
f 167 334 332
f 168 172 335
f 168 335 336
f 168 336 342
f 168 342 173
f 169 337 170
f 169 331 337
f 170 337 338
f 170 338 339
f 170 339 171
f 171 339 172
f 172 340 341
f 172 341 335
f 172 339 340
f 173 342 174
f 174 342 343
f 174 343 175
f 175 344 345
f 175 345 176
f 175 343 344
f 176 345 346
f 176 346 177
f 177 347 178
f 177 346 347
f 178 347 179
f 179 347 180
f 180 347 348
f 180 348 181
f 181 348 349
f 181 349 182
f 182 349 183
f 183 350 351
f 183 351 352
f 183 352 184
f 183 349 350
f 184 352 186
f 184 186 185
f 186 353 354
f 186 354 355
f 186 355 188
f 186 188 187
f 186 352 351
f 186 351 356
f 186 356 357
f 186 357 353
f 188 355 189
f 189 355 296
f 189 295 190
f 190 295 294
f 190 294 358
f 190 358 359
f 190 359 191
f 191 359 360
f 191 360 193
f 193 360 195
f 193 195 194
f 195 360 361
f 195 361 196
f 196 361 283
f 199 273 362
f 199 362 363
f 199 363 364
f 199 364 200
f 200 364 201
f 201 364 365
f 201 365 202
f 202 365 366
f 202 366 367
f 202 367 203
f 203 367 368
f 203 368 204
f 204 368 369
f 204 369 205
f 205 369 206
f 206 369 370
f 206 370 207
f 207 370 208
f 208 370 371
f 208 371 209
f 209 371 210
f 210 371 211
f 211 371 372
f 211 372 212
f 212 372 373
f 212 373 213
f 213 373 214
f 214 373 374
f 214 374 215
f 215 374 216
f 216 374 375
f 216 375 376
f 216 376 377
f 216 377 378
f 216 378 217
f 217 378 377
f 217 377 218
f 218 377 379
f 218 379 219
f 219 379 220
f 220 379 380
f 220 380 381
f 220 381 221
f 221 381 222
f 222 381 382
f 222 382 223
f 223 382 383
f 223 383 224
f 224 383 384
f 224 384 385
f 224 385 225
f 225 385 226
f 226 385 386
f 226 386 387
f 226 387 321
f 226 321 388
f 226 388 389
f 226 389 390
f 226 390 391
f 226 391 392
f 226 392 393
f 226 393 394
f 226 394 395
f 226 395 396
f 226 396 397
f 226 397 398
f 226 398 399
f 226 399 400
f 226 400 227
f 227 400 401
f 227 401 402
f 228 307 403
f 228 403 229
f 229 403 404
f 229 404 230
f 230 404 405
f 230 405 232
f 232 405 406
f 232 406 233
f 233 406 407
f 233 407 234
f 234 407 408
f 234 408 235
f 235 408 407
f 235 407 409
f 235 409 410
f 235 410 411
f 235 411 412
f 235 412 237
f 237 412 413
f 237 413 238
f 238 413 239
f 239 413 414
f 239 414 415
f 239 415 416
f 239 416 240
f 240 416 241
f 241 416 417
f 241 417 418
f 241 418 419
f 241 419 242
f 242 419 243
f 243 419 245
f 243 245 244
f 245 419 420
f 245 420 421
f 245 421 246
f 246 421 247
f 247 422 248
f 247 421 422
f 248 422 250
f 248 250 249
f 250 422 423
f 250 423 424
f 250 424 251
f 251 424 425
f 251 425 253
f 253 425 426
f 253 426 254
f 254 426 255
f 255 426 256
f 256 427 428
f 256 428 257
f 256 426 427
f 257 428 258
f 258 428 429
f 258 429 430
f 258 430 259
f 259 430 260
f 260 430 431
f 260 431 432
f 260 432 433
f 260 433 261
f 261 433 434
f 261 434 435
f 261 435 262
f 262 435 436
f 262 436 437
f 262 437 438
f 262 438 263
f 263 438 439
f 263 439 440
f 263 440 264
f 264 440 441
f 264 441 442
f 264 442 443
f 264 443 265
f 265 443 442
f 265 442 266
f 266 442 267
f 267 442 444
f 267 444 445
f 267 445 268
f 268 445 446
f 268 446 447
f 268 447 269
f 269 447 448
f 269 448 270
f 270 448 449
f 270 449 271
f 271 449 362
f 271 362 272
f 272 362 273
f 274 450 275
f 275 450 451
f 275 451 276
f 276 451 452
f 276 452 278
f 276 278 277
f 278 453 454
f 278 454 455
f 278 455 314
f 278 314 313
f 278 313 279
f 278 452 453
f 279 312 456
f 279 456 280
f 280 456 457
f 280 457 458
f 280 458 281
f 281 459 282
f 281 458 459
f 283 361 460
f 283 460 461
f 283 461 462
f 283 462 285
f 283 285 284
f 285 463 287
f 285 287 286
f 285 462 463
f 287 463 460
f 287 460 288
f 288 460 289
f 289 460 291
f 291 293 292
f 291 460 464
f 291 464 293
f 293 464 465
f 293 465 358
f 293 358 294
f 296 355 297
f 297 354 298
f 297 355 354
f 298 354 353
f 298 353 299
f 299 466 300
f 299 353 467
f 299 467 466
f 300 466 301
f 301 466 302
f 302 466 304
f 303 304 468
f 303 468 305
f 304 466 305
f 304 305 468
f 305 467 469
f 305 469 470
f 305 470 471
f 305 471 307
f 305 307 306
f 305 466 467
f 307 471 403
f 309 472 310
f 310 472 473
f 310 473 456
f 310 456 311
f 311 456 312
f 314 455 474
f 314 474 315
f 315 474 316
f 316 474 475
f 316 475 476
f 316 476 317
f 317 476 318
f 318 477 319
f 318 476 478
f 318 478 477
f 319 391 390
f 319 390 389
f 319 389 388
f 319 388 320
f 319 477 391
f 320 388 321
f 321 387 326
f 321 326 322
f 322 326 323
f 323 326 324
f 324 326 325
f 326 387 386
f 326 386 479
f 326 479 480
f 326 480 334
f 326 334 333
f 326 333 328
f 326 328 327
f 329 481 482
f 329 482 483
f 329 483 484
f 329 484 330
f 329 332 485
f 329 485 481
f 330 484 486
f 330 486 337
f 330 337 331
f 332 334 480
f 332 480 479
f 332 479 485
f 335 341 336
f 336 487 497
f 336 497 342
f 336 341 488
f 336 488 489
f 336 489 487
f 337 486 490
f 337 490 491
f 337 491 492
f 337 492 338
f 338 493 339
f 338 492 494
f 338 494 493
f 339 493 340
f 340 488 341
f 340 493 495
f 340 495 488
f 342 496 343
f 342 497 496
f 343 496 498
f 343 498 499
f 343 499 344
f 344 500 501
f 344 501 345
f 344 499 502
f 344 502 500
f 345 501 503
f 345 503 504
f 345 504 505
f 345 505 346
f 346 505 506
f 346 506 347
f 347 506 507
f 347 507 508
f 347 508 509
f 347 509 510
f 347 510 348
f 348 510 349
f 349 510 511
f 349 511 357
f 349 357 350
f 350 357 356
f 350 356 351
f 353 357 512
f 353 512 467
f 357 511 512
f 358 465 513
f 358 513 359
f 359 513 360
f 360 513 361
f 361 513 465
f 361 465 464
f 361 464 460
f 362 514 515
f 362 515 363
f 362 449 516
f 362 516 517
f 362 517 514
f 363 515 364
f 364 515 518
f 364 518 519
f 364 519 520
f 364 520 365
f 365 520 366
f 366 521 522
f 366 522 367
f 366 520 519
f 366 519 521
f 367 522 368
f 368 523 370
f 368 370 369
f 368 522 523
f 370 523 524
f 370 524 371
f 371 524 372
f 372 525 373
f 372 524 525
f 373 525 526
f 373 526 374
f 374 526 527
f 374 527 375
f 375 527 528
f 375 528 376
f 376 528 529
f 376 529 377
f 377 380 379
f 377 529 530
f 377 530 380
f 380 530 531
f 380 531 381
f 381 531 532
f 381 532 533
f 381 533 382
f 382 533 534
f 382 534 384
f 382 384 383
f 384 534 535
f 384 535 385
f 385 535 386
f 386 535 479
f 391 477 392
f 392 477 393
f 393 477 536
f 393 536 394
f 394 536 537
f 394 537 538
f 394 538 395
f 395 538 539
f 395 539 396
f 396 539 397
f 397 540 541
f 397 541 398
f 397 539 540
f 398 541 542
f 398 542 399
f 399 542 543
f 399 543 400
f 400 543 544
f 400 544 401
f 401 544 455
f 401 455 452
f 401 452 451
f 401 451 402
f 402 451 450
f 403 471 545
f 403 545 404
f 404 545 546
f 404 546 547
f 404 547 405
f 405 547 548
f 405 548 406
f 406 548 407
f 407 548 546
f 407 546 549
f 407 549 409
f 409 507 410
f 409 549 508
f 409 508 507
f 410 550 411
f 410 507 550
f 411 550 551
f 411 551 552
f 411 552 414
f 411 414 412
f 412 414 413
f 414 552 553
f 414 553 415
f 415 553 417
f 415 417 416
f 417 553 552
f 417 552 554
f 417 554 419
f 417 419 418
f 419 554 420
f 420 554 421
f 421 554 555
f 421 555 422
f 422 555 500
f 422 500 423
f 423 500 556
f 423 556 424
f 424 556 425
f 425 557 426
f 425 556 558
f 425 558 557
f 426 557 427
f 427 557 428
f 428 431 429
f 428 557 498
f 428 498 431
f 429 431 430
f 431 498 496
f 431 496 497
f 431 497 487
f 431 487 559
f 431 559 433
f 431 433 432
f 433 559 434
f 434 560 435
f 434 559 560
f 435 560 436
f 436 560 561
f 436 561 437
f 437 561 562
f 437 562 438
f 438 562 439
f 439 563 440
f 439 562 564
f 439 564 563
f 440 563 565
f 440 565 566
f 440 566 567
f 440 567 568
f 440 568 442
f 440 442 441
f 442 569 570
f 442 570 444
f 442 568 567
f 442 567 569
f 444 570 571
f 444 571 446
f 444 446 445
f 446 571 569
f 446 569 572
f 446 572 573
f 446 573 574
f 446 574 575
f 446 575 448
f 446 448 447
f 448 575 516
f 448 516 449
f 452 455 453
f 453 455 454
f 455 544 475
f 455 475 474
f 456 473 576
f 456 576 457
f 457 576 458
f 458 577 578
f 458 578 459
f 458 576 579
f 458 579 580
f 458 580 581
f 458 581 577
f 460 462 461
f 460 463 462
f 467 511 469
f 467 512 511
f 469 511 582
f 469 582 583
f 469 583 470
f 470 583 546
f 470 546 471
f 471 546 545
f 472 584 473
f 473 584 576
f 475 585 586
f 475 586 478
f 475 478 476
f 475 544 585
f 477 478 586
f 477 586 537
f 477 537 536
f 479 535 481
f 479 481 485
f 481 529 482
f 481 535 587
f 481 587 529
f 482 529 588
f 482 588 589
f 482 589 483
f 483 589 590
f 483 590 484
f 484 590 490
f 484 490 486
f 487 489 559
f 488 591 489
f 488 495 592
f 488 592 591
f 489 591 559
f 490 593 491
f 490 590 594
f 490 594 593
f 491 595 596
f 491 596 494
f 491 494 492
f 491 593 595
f 493 494 597
f 493 597 598
f 493 598 599
f 493 599 495
f 494 596 597
f 495 599 600
f 495 600 601
f 495 601 592
f 498 557 602
f 498 602 499
f 499 602 502
f 500 555 501
f 500 502 602
f 500 602 603
f 500 603 556
f 501 554 604
f 501 604 503
f 501 555 554
f 503 604 504
f 504 604 551
f 504 551 550
f 504 550 505
f 505 550 507
f 505 507 506
f 508 549 605
f 508 605 606
f 508 606 509
f 509 606 510
f 510 606 511
f 511 606 582
f 514 607 608
f 514 608 518
f 514 518 515
f 514 517 609
f 514 609 607
f 516 575 574
f 516 574 573
f 516 573 517
f 517 573 609
f 518 608 519
f 519 610 521
f 519 608 607
f 519 607 610
f 521 610 522
f 522 593 524
f 522 524 611
f 522 611 523
f 522 610 595
f 522 595 593
f 523 611 524
f 524 593 594
f 524 594 612
f 524 612 613
f 524 613 614
f 524 614 525
f 525 614 613
f 525 613 615
f 525 615 526
f 526 615 612
f 526 612 616
f 526 616 527
f 527 616 617
f 527 617 528
f 528 617 529
f 529 617 588
f 529 587 531
f 529 531 618
f 529 618 530
f 530 618 531
f 531 587 532
f 532 587 534
f 532 534 533
f 534 587 535
f 537 586 585
f 537 585 539
f 537 539 538
f 539 585 540
f 540 585 541
f 541 585 619
f 541 619 543
f 541 543 542
f 543 619 585
f 543 585 620
f 543 620 544
f 544 620 621
f 544 621 585
f 546 605 549
f 546 548 547
f 546 583 605
f 551 604 552
f 552 604 554
f 556 603 558
f 557 558 603
f 557 603 602
f 559 591 561
f 559 561 560
f 561 591 564
f 561 564 562
f 563 564 565
f 564 591 622
f 564 622 623
f 564 623 566
f 564 566 565
f 566 623 600
f 566 600 567
f 567 600 569
f 569 600 572
f 569 571 570
f 572 600 599
f 572 599 573
f 573 599 624
f 573 624 607
f 573 607 609
f 576 584 579
f 579 584 580
f 582 606 605
f 582 605 583
f 585 621 620
f 588 617 612
f 588 612 589
f 589 612 590
f 590 612 594
f 591 592 622
f 592 601 622
f 595 610 596
f 596 610 625
f 596 625 597
f 597 625 624
f 597 624 598
f 598 624 599
f 600 623 601
f 601 623 622
f 607 624 625
f 607 625 610
f 612 617 616
f 612 615 613

