# https://github.com/mikedh/trimesh
v 0.01096963 -0.03454277 0.06312766
v 0.01252755 -0.03401390 0.06312766
v 0.01096963 -0.03178763 0.06312766
v 0.01096963 -0.02821260 0.00306437
v 0.01389706 -0.03354707 0.06312766
v 0.01159878 -0.02799839 0.00306437
v 0.01944896 -0.02744736 0.06312766
v 0.01944896 -0.01945229 0.00306437
v 0.01096963 -0.02519450 0.00306437
v 0.01587081 -0.03257502 0.06312766
v 0.01515286 -0.02624781 0.00306437
v 0.01944896 -0.03058364 0.06312766
v 0.01944896 -0.02316914 0.00306437
v 0.01815581 -0.03144637 0.06312766
v 0.01844880 -0.02404517 0.00306437
v 0.01944896 -0.02534814 0.01949123
v 0.01944896 -0.02415597 0.01050173
f 1 2 5
f 1 5 10
f 1 10 14
f 1 14 12
f 1 12 7
f 1 7 3
f 1 3 9
f 1 9 4
f 1 4 2
f 2 4 6
f 2 6 5
f 3 7 8
f 3 8 9
f 4 9 8
f 4 8 13
f 4 13 15
f 4 15 11
f 4 11 6
f 5 6 10
f 6 11 10
f 7 12 16
f 7 16 17
f 7 17 13
f 7 13 8
f 10 11 14
f 11 15 16
f 11 16 12
f 11 12 14
f 13 17 15
f 15 17 16

