# https://github.com/mikedh/trimesh
v -0.02657071 0.00711488 0.00306437
v -0.02750539 -0.00001332 0.00306437
v -0.02941863 0.00711488 0.00306437
v -0.03242774 0.00711488 0.05891135
v -0.03367526 -0.00001332 0.06291008
v -0.03030563 -0.00001332 0.00306437
v -0.03004716 0.00395547 0.00306437
v -0.03060606 0.00711488 0.01472538
v -0.03287028 0.00711488 0.06312766
v -0.03369815 -0.00001332 0.06312766
v -0.03030658 0.00000063 0.00306437
v -0.03631240 -0.00001332 0.06312766
v -0.03005765 0.00379569 0.00306437
v -0.03600243 0.00473974 0.06312766
v -0.03553032 0.00711488 0.06312766
v -0.03631335 0.00000063 0.06312766
f 1 2 6
f 1 6 11
f 1 11 13
f 1 13 7
f 1 7 3
f 1 3 8
f 1 8 15
f 1 15 9
f 1 9 4
f 1 4 5
f 1 5 2
f 2 5 10
f 2 10 12
f 2 12 6
f 3 7 8
f 4 9 5
f 5 9 10
f 6 12 16
f 6 16 11
f 7 13 14
f 7 14 8
f 8 14 15
f 9 15 14
f 9 14 16
f 9 16 12
f 9 12 10
f 11 16 13
f 13 16 14

