# https://github.com/mikedh/trimesh
v -0.00000022 0.04350000 0.10300000
v 0.00005054 0.04349653 0.10300000
v -0.00000022 0.04350000 0.10000011
v -0.00567861 0.04312798 0.10300000
v 0.00005054 0.04349653 0.10000011
v 0.00005054 0.03999574 0.10300000
v -0.00000022 0.03999748 0.09997494
v -0.00567861 0.04312798 0.10000011
v -0.01125830 0.04201800 0.10300000
v 0.00005054 0.03999401 0.09997494
v 0.00005054 0.03752169 0.10003002
v -0.01435343 0.03727888 0.10300000
v -0.01435343 0.03464440 0.10000011
v -0.00522175 0.03965494 0.09997494
v -0.01035162 0.03863515 0.09997494
v -0.01125830 0.04201800 0.10000011
v -0.01435343 0.04096698 0.10300000
v 0.00005054 0.03749481 0.09997494
v 0.00005054 0.03749741 0.10000011
v -0.01435343 0.03464093 0.09997494
v -0.01435343 0.03727628 0.09997494
v -0.01435343 0.04096698 0.10000011
f 1 2 5
f 1 5 3
f 1 3 8
f 1 8 4
f 1 4 9
f 1 9 17
f 1 17 12
f 1 12 6
f 1 6 2
f 2 6 11
f 2 11 19
f 2 19 18
f 2 18 10
f 2 10 5
f 3 5 10
f 3 10 7
f 3 7 8
f 4 8 16
f 4 16 9
f 6 12 13
f 6 13 11
f 7 10 18
f 7 18 20
f 7 20 21
f 7 21 15
f 7 15 14
f 7 14 8
f 8 14 15
f 8 15 16
f 9 16 22
f 9 22 17
f 11 13 19
f 12 17 22
f 12 22 21
f 12 21 20
f 12 20 13
f 13 20 19
f 15 21 16
f 16 21 22
f 18 19 20

