# https://github.com/mikedh/trimesh
v 0.03247009 -0.01875335 0.09997524
v 0.03247441 -0.01874784 0.09997494
v 0.03248413 -0.01875335 0.09997494
v 0.03247441 -0.01875335 0.10000011
v 0.03750007 -0.00000882 0.10000011
v 0.03749791 -0.00000882 0.09997494
v 0.03525337 -0.01875335 0.09997494
v 0.03525661 -0.01875335 0.10300000
v 0.04000264 -0.00000882 0.10300000
v 0.03999616 -0.00000882 0.09997494
v 0.04018833 -0.01664677 0.10000011
v 0.03914865 -0.01875335 0.10000011
v 0.03695377 -0.01530538 0.09997494
v 0.03914865 -0.01875335 0.10300000
v 0.04349954 -0.00000882 0.10300000
v 0.04349415 -0.00000882 0.10000011
v 0.04312707 -0.00567897 0.10000011
v 0.03965500 -0.00522022 0.09997494
v 0.04201722 -0.01125920 0.10000011
v 0.04018833 -0.01664677 0.10300000
v 0.03863367 -0.01035271 0.09997494
v 0.04312707 -0.00567897 0.10300000
v 0.04228605 -0.00990864 0.10000011
v 0.04201722 -0.01125920 0.10300000
v 0.04228605 -0.00990864 0.10300000
f 1 2 3
f 1 3 7
f 1 7 12
f 1 12 14
f 1 14 8
f 1 8 4
f 1 4 5
f 1 5 6
f 1 6 2
f 2 6 10
f 2 10 18
f 2 18 21
f 2 21 13
f 2 13 7
f 2 7 3
f 4 8 9
f 4 9 5
f 5 9 15
f 5 15 16
f 5 16 10
f 5 10 6
f 7 11 12
f 7 13 11
f 8 14 20
f 8 20 24
f 8 24 25
f 8 25 22
f 8 22 15
f 8 15 9
f 10 16 17
f 10 17 18
f 11 13 19
f 11 19 24
f 11 24 20
f 11 20 14
f 11 14 12
f 13 21 19
f 15 22 17
f 15 17 16
f 17 23 18
f 17 22 25
f 17 25 23
f 18 23 21
f 19 21 23
f 19 23 25
f 19 25 24

