# https://github.com/mikedh/trimesh
v 0.01666685 0.04017870 0.10300000
v 0.02175165 0.03767072 0.10300000
v 0.01666685 0.04017870 0.10000011
v 0.01666685 0.03628422 0.10300000
v 0.02175165 0.03767072 0.10000011
v 0.02647989 0.03450994 0.10300000
v 0.01666685 0.03628143 0.09997494
v 0.01999907 0.03463827 0.09997494
v 0.01666685 0.03350284 0.10000011
v 0.03034698 0.02593009 0.10300000
v 0.02434933 0.03173275 0.09997494
v 0.02647989 0.03450994 0.10000011
v 0.03075883 0.03075913 0.10300000
v 0.01666685 0.03350005 0.09997494
v 0.01666685 0.03350145 0.09998827
v 0.02703080 0.02593009 0.10000011
v 0.03487909 0.02593009 0.10300000
v 0.03075883 0.03075913 0.10000011
v 0.02828061 0.02828324 0.09997494
v 0.03451003 0.02648106 0.10300000
v 0.02702723 0.02593009 0.09997494
v 0.03487909 0.02593009 0.10000011
v 0.03451003 0.02648106 0.10000011
v 0.03034341 0.02593009 0.09997494
f 1 2 5
f 1 5 3
f 1 3 7
f 1 7 14
f 1 14 15
f 1 15 9
f 1 9 4
f 1 4 10
f 1 10 17
f 1 17 20
f 1 20 13
f 1 13 6
f 1 6 2
f 2 6 12
f 2 12 5
f 3 5 8
f 3 8 7
f 4 9 10
f 5 11 8
f 5 12 11
f 6 13 18
f 6 18 12
f 7 8 11
f 7 11 19
f 7 19 24
f 7 24 21
f 7 21 14
f 9 15 16
f 9 16 10
f 10 16 21
f 10 21 24
f 10 24 22
f 10 22 17
f 11 12 18
f 11 18 19
f 13 20 23
f 13 23 18
f 14 21 16
f 14 16 15
f 17 22 23
f 17 23 20
f 18 23 19
f 19 23 24
f 22 24 23

