# https://github.com/mikedh/trimesh
v 0.03429180 0.02051773 0.09997134
v 0.03172890 0.02434963 0.09997134
v 0.03129119 0.02051773 0.09997134
v 0.02987111 0.02051634 0.06311899
v 0.02880851 0.02210650 0.06311899
v 0.03034400 0.02593147 0.09997134
v 0.01991366 0.03169318 0.09997134
v 0.02072433 0.02051634 0.01920921
v 0.02673539 0.02051634 0.06311899
v 0.02673680 0.02051634 0.03700458
v 0.02663406 0.02459086 0.06312848
v 0.02827933 0.02828135 0.09997134
v 0.01991366 0.03467802 0.09997134
v 0.01991366 0.02713899 0.06312848
v 0.02072433 0.02051634 0.00306438
v 0.02491561 0.02051634 0.02327862
v 0.02567843 0.02567776 0.06312848
v 0.02593176 0.02593147 0.06671411
v 0.02143085 0.02142996 0.00306438
v 0.02434983 0.03172923 0.09997134
v 0.02539131 0.02593147 0.06312848
v 0.01999951 0.03463643 0.09997134
v 0.01991366 0.03448809 0.09826389
v 0.01991366 0.03027216 0.06312848
v 0.02072433 0.02204966 0.00306438
v 0.02223167 0.02051634 0.00306438
v 0.02567702 0.02567776 0.06311899
v 0.01991366 0.03410545 0.09505769
v 0.02210782 0.02880817 0.06311899
v 0.02072433 0.02973287 0.06311899
v 0.02072433 0.02700728 0.04041947
f 1 2 6
f 1 6 12
f 1 12 20
f 1 20 22
f 1 22 13
f 1 13 7
f 1 7 3
f 1 3 9
f 1 9 4
f 1 4 5
f 1 5 2
f 2 5 6
f 3 7 8
f 3 8 9
f 4 9 8
f 4 8 15
f 4 15 26
f 4 26 16
f 4 16 10
f 4 10 5
f 5 10 11
f 5 11 6
f 6 11 12
f 7 13 23
f 7 23 28
f 7 28 24
f 7 24 14
f 7 14 8
f 8 14 15
f 10 16 11
f 11 17 18
f 11 18 12
f 11 16 19
f 11 19 17
f 12 18 21
f 12 21 20
f 13 22 23
f 14 24 25
f 14 25 15
f 15 25 19
f 15 19 26
f 16 26 19
f 17 19 27
f 17 27 18
f 18 27 21
f 19 25 21
f 19 21 27
f 20 28 22
f 20 21 29
f 20 29 28
f 21 25 29
f 22 28 23
f 24 28 30
f 24 30 31
f 24 31 25
f 25 31 29
f 28 29 30
f 29 31 30

