# https://github.com/mikedh/trimesh
v -0.03631185 -0.00000613 0.06313714
v -0.03369986 -0.00000613 0.06313714
v -0.03631776 -0.00000613 0.06318762
v -0.03631185 0.00000122 0.06313714
v -0.02791776 0.01874798 0.06313714
v -0.03749547 -0.00000613 0.09997134
v -0.03621844 0.00144412 0.06313714
v -0.03999631 -0.00000613 0.09997134
v -0.03999749 0.00000122 0.09997134
v -0.03105358 0.01874798 0.06313714
v -0.02936624 0.01874798 0.07484547
v -0.03247486 0.01874798 0.09997134
v -0.03600205 0.00474114 0.06313714
v -0.03965459 0.00522211 0.09997134
v -0.03144969 0.01815503 0.06313714
v -0.03247486 0.01874798 0.07498610
v -0.03525358 0.01874798 0.09997134
v -0.03521219 0.00871740 0.06313714
v -0.03895932 0.00871740 0.09997134
v -0.03304834 0.01491308 0.06313714
v -0.03695036 0.01530593 0.09997134
v -0.03507384 0.00940030 0.06313714
v -0.03863297 0.01035122 0.09997134
v -0.03354969 0.01389423 0.06313714
v -0.03708398 0.01491308 0.09997134
v -0.03461033 0.01076794 0.06313714
f 1 2 6
f 1 6 8
f 1 8 3
f 1 3 4
f 1 4 7
f 1 7 13
f 1 13 18
f 1 18 22
f 1 22 26
f 1 26 24
f 1 24 20
f 1 20 15
f 1 15 10
f 1 10 5
f 1 5 2
f 2 5 6
f 3 7 4
f 3 8 9
f 3 9 7
f 5 10 16
f 5 16 17
f 5 17 12
f 5 12 11
f 5 11 6
f 6 11 12
f 6 12 17
f 6 17 21
f 6 21 25
f 6 25 23
f 6 23 19
f 6 19 14
f 6 14 9
f 6 9 8
f 7 9 13
f 9 14 13
f 10 15 16
f 13 14 18
f 14 19 18
f 15 20 17
f 15 17 16
f 17 20 21
f 18 19 23
f 18 23 22
f 20 24 21
f 21 24 25
f 22 23 26
f 23 25 24
f 23 24 26

