# Blender 4.0.0
# www.blender.org
o GlassCup008_Clear
v -0.010385 0.038758 -0.051624
v 0.000000 0.040125 -0.051624
v 0.010385 0.038758 -0.051624
v 0.020063 0.034750 -0.051624
v 0.028373 0.028373 -0.051624
v 0.034750 0.020063 -0.051624
v 0.038758 0.010385 -0.051624
v -0.020063 0.034750 -0.051624
v -0.006973 0.026023 -0.051624
v 0.003516 0.026710 -0.051624
v 0.013470 0.023331 -0.051624
v 0.021373 0.016400 -0.051624
v 0.026023 0.006973 -0.051624
v 0.040125 -0.000000 -0.051624
v -0.028373 0.028373 -0.051624
v -0.016400 0.021374 -0.051624
v -0.004241 0.015828 -0.051624
v 0.005793 0.010034 -0.051624
v 0.015828 0.004241 -0.051624
v 0.026710 -0.003516 -0.051624
v 0.038758 -0.010385 -0.051624
v -0.034750 0.020063 -0.051624
v -0.023331 0.013470 -0.051624
v -0.010034 0.005793 -0.051624
v -0.000000 0.000000 -0.051624
v 0.010034 -0.005793 -0.051624
v 0.023331 -0.013470 -0.051624
v 0.034750 -0.020063 -0.051624
v -0.038758 0.010385 -0.051624
v -0.026710 0.003516 -0.051624
v -0.015828 -0.004241 -0.051624
v -0.005793 -0.010034 -0.051624
v 0.004241 -0.015828 -0.051624
v 0.016400 -0.021373 -0.051624
v 0.028373 -0.028373 -0.051624
v -0.040125 -0.000000 -0.051624
v -0.026023 -0.006973 -0.051624
v -0.021374 -0.016400 -0.051624
v -0.013470 -0.023331 -0.051624
v -0.003516 -0.026710 -0.051624
v 0.006973 -0.026023 -0.051624
v 0.020063 -0.034750 -0.051624
v -0.038758 -0.010385 -0.051624
v -0.034750 -0.020063 -0.051624
v -0.028373 -0.028373 -0.051624
v -0.020063 -0.034750 -0.051624
v -0.010385 -0.038758 -0.051624
v 0.000000 -0.040125 -0.051624
v 0.010385 -0.038758 -0.051624
v 0.026729 0.046296 -0.051364
v 0.037801 0.037801 -0.051364
v 0.046296 0.026729 -0.051364
v 0.051637 0.013836 -0.051364
v 0.053458 0.000000 -0.051364
v 0.051637 -0.013836 -0.051364
v 0.046296 -0.026729 -0.051364
v 0.037801 -0.037801 -0.051364
v 0.026729 -0.046296 -0.051364
v 0.013836 -0.051637 -0.051364
v 0.000000 -0.053458 -0.051364
v -0.013836 -0.051637 -0.051364
v -0.026729 -0.046296 -0.051364
v -0.037801 -0.037801 -0.051364
v -0.046296 -0.026729 -0.051364
v -0.051637 -0.013836 -0.051364
v -0.053458 -0.000000 -0.051364
v -0.051637 0.013836 -0.051364
v -0.046296 0.026729 -0.051364
v -0.037801 0.037801 -0.051364
v -0.026729 0.046296 -0.051364
v -0.013836 0.051637 -0.051364
v 0.000000 0.053458 -0.051364
v 0.013836 0.051637 -0.051364
v 0.024046 0.041649 0.051284
v 0.034006 0.034006 0.051284
v 0.041649 0.024046 0.051284
v 0.046453 0.012447 0.051284
v 0.048092 -0.000000 0.051284
v 0.046453 -0.012447 0.051284
v 0.041649 -0.024046 0.051284
v 0.034006 -0.034006 0.051284
v 0.024046 -0.041649 0.051284
v 0.012447 -0.046453 0.051284
v 0.000000 -0.048092 0.051284
v -0.012447 -0.046453 0.051284
v -0.024046 -0.041649 0.051284
v -0.034006 -0.034006 0.051284
v -0.041649 -0.024046 0.051284
v -0.046453 -0.012447 0.051284
v -0.048092 -0.000000 0.051284
v -0.046453 0.012447 0.051284
v -0.041649 0.024046 0.051284
v -0.034006 0.034006 0.051284
v -0.024046 0.041649 0.051284
v -0.012447 0.046453 0.051284
v -0.000000 0.048092 0.051284
v 0.012447 0.046453 0.051284
v 0.026565 0.046012 -0.045084
v 0.026293 0.045541 -0.034676
v 0.026021 0.045069 -0.024268
v 0.025749 0.044598 -0.013860
v 0.025477 0.044127 -0.003451
v 0.025205 0.043656 0.006957
v 0.024933 0.043185 0.017365
v 0.024661 0.042713 0.027773
v 0.024389 0.042242 0.038181
v 0.024116 0.041771 0.048589
v 0.037569 0.037569 -0.045084
v 0.037184 0.037184 -0.034676
v 0.036799 0.036799 -0.024268
v 0.036414 0.036414 -0.013860
v 0.036030 0.036030 -0.003451
v 0.035645 0.035645 0.006957
v 0.035260 0.035260 0.017365
v 0.034875 0.034875 0.027773
v 0.034491 0.034491 0.038181
v 0.034106 0.034106 0.048589
v 0.046012 0.026565 -0.045084
v 0.045541 0.026293 -0.034676
v 0.045070 0.026021 -0.024268
v 0.044598 0.025749 -0.013860
v 0.044127 0.025477 -0.003451
v 0.043656 0.025205 0.006957
v 0.043185 0.024933 0.017365
v 0.042713 0.024661 0.027773
v 0.042242 0.024389 0.038181
v 0.041771 0.024116 0.048589
v 0.051320 0.013751 -0.045084
v 0.050794 0.013610 -0.034676
v 0.050268 0.013469 -0.024268
v 0.049743 0.013329 -0.013860
v 0.049217 0.013188 -0.003451
v 0.048692 0.013047 0.006957
v 0.048166 0.012906 0.017365
v 0.047641 0.012765 0.027773
v 0.047115 0.012624 0.038181
v 0.046589 0.012484 0.048589
v 0.053130 0.000000 -0.045084
v 0.052586 0.000000 -0.034676
v 0.052042 0.000000 -0.024268
v 0.051498 -0.000000 -0.013860
v 0.050954 0.000000 -0.003451
v 0.050409 0.000000 0.006957
v 0.049865 0.000000 0.017365
v 0.049321 0.000000 0.027773
v 0.048777 0.000000 0.038181
v 0.048233 -0.000000 0.048589
v 0.051320 -0.013751 -0.045084
v 0.050794 -0.013610 -0.034676
v 0.050268 -0.013469 -0.024268
v 0.049743 -0.013329 -0.013860
v 0.049217 -0.013188 -0.003451
v 0.048692 -0.013047 0.006957
v 0.048166 -0.012906 0.017365
v 0.047641 -0.012765 0.027773
v 0.047115 -0.012624 0.038181
v 0.046589 -0.012484 0.048589
v 0.046012 -0.026565 -0.045084
v 0.045541 -0.026293 -0.034676
v 0.045069 -0.026021 -0.024268
v 0.044598 -0.025749 -0.013860
v 0.044127 -0.025477 -0.003451
v 0.043656 -0.025205 0.006957
v 0.043185 -0.024933 0.017365
v 0.042713 -0.024661 0.027773
v 0.042242 -0.024389 0.038181
v 0.041771 -0.024116 0.048589
v 0.037569 -0.037569 -0.045084
v 0.037184 -0.037184 -0.034676
v 0.036799 -0.036799 -0.024268
v 0.036414 -0.036414 -0.013860
v 0.036030 -0.036030 -0.003451
v 0.035645 -0.035645 0.006957
v 0.035260 -0.035260 0.017365
v 0.034875 -0.034875 0.027773
v 0.034491 -0.034491 0.038181
v 0.034106 -0.034106 0.048589
v 0.026565 -0.046012 -0.045084
v 0.026293 -0.045541 -0.034676
v 0.026021 -0.045069 -0.024268
v 0.025749 -0.044598 -0.013860
v 0.025477 -0.044127 -0.003451
v 0.025205 -0.043656 0.006957
v 0.024933 -0.043185 0.017365
v 0.024661 -0.042713 0.027773
v 0.024389 -0.042242 0.038181
v 0.024116 -0.041771 0.048589
v 0.013751 -0.051320 -0.045084
v 0.013610 -0.050794 -0.034676
v 0.013469 -0.050268 -0.024268
v 0.013329 -0.049743 -0.013860
v 0.013188 -0.049217 -0.003451
v 0.013047 -0.048692 0.006957
v 0.012906 -0.048166 0.017365
v 0.012765 -0.047641 0.027773
v 0.012624 -0.047115 0.038181
v 0.012484 -0.046589 0.048589
v 0.000000 -0.053130 -0.045084
v 0.000000 -0.052586 -0.034676
v 0.000000 -0.052042 -0.024268
v 0.000000 -0.051498 -0.013860
v 0.000000 -0.050954 -0.003451
v 0.000000 -0.050409 0.006957
v 0.000000 -0.049865 0.017365
v 0.000000 -0.049321 0.027773
v 0.000000 -0.048777 0.038181
v 0.000000 -0.048233 0.048589
v -0.013751 -0.051320 -0.045084
v -0.013610 -0.050794 -0.034676
v -0.013469 -0.050268 -0.024268
v -0.013329 -0.049743 -0.013860
v -0.013188 -0.049217 -0.003451
v -0.013047 -0.048692 0.006957
v -0.012906 -0.048166 0.017365
v -0.012765 -0.047641 0.027773
v -0.012624 -0.047115 0.038181
v -0.012484 -0.046589 0.048589
v -0.026565 -0.046012 -0.045084
v -0.026293 -0.045541 -0.034676
v -0.026021 -0.045069 -0.024268
v -0.025749 -0.044598 -0.013860
v -0.025477 -0.044127 -0.003451
v -0.025205 -0.043656 0.006957
v -0.024933 -0.043185 0.017365
v -0.024661 -0.042713 0.027773
v -0.024389 -0.042242 0.038181
v -0.024116 -0.041771 0.048589
v -0.037569 -0.037569 -0.045084
v -0.037184 -0.037184 -0.034676
v -0.036799 -0.036799 -0.024268
v -0.036414 -0.036414 -0.013860
v -0.036030 -0.036030 -0.003451
v -0.035645 -0.035645 0.006957
v -0.035260 -0.035260 0.017365
v -0.034875 -0.034875 0.027773
v -0.034491 -0.034491 0.038181
v -0.034106 -0.034106 0.048589
v -0.046012 -0.026565 -0.045084
v -0.045541 -0.026293 -0.034676
v -0.045069 -0.026021 -0.024268
v -0.044598 -0.025749 -0.013860
v -0.044127 -0.025477 -0.003451
v -0.043656 -0.025205 0.006957
v -0.043185 -0.024933 0.017365
v -0.042713 -0.024661 0.027773
v -0.042242 -0.024389 0.038181
v -0.041771 -0.024116 0.048589
v -0.051320 -0.013751 -0.045084
v -0.050794 -0.013610 -0.034676
v -0.050268 -0.013469 -0.024268
v -0.049743 -0.013329 -0.013860
v -0.049217 -0.013188 -0.003451
v -0.048692 -0.013047 0.006957
v -0.048166 -0.012906 0.017365
v -0.047641 -0.012765 0.027773
v -0.047115 -0.012624 0.038181
v -0.046589 -0.012484 0.048589
v -0.053130 -0.000000 -0.045084
v -0.052586 -0.000000 -0.034676
v -0.052042 -0.000000 -0.024268
v -0.051498 -0.000000 -0.013860
v -0.050954 -0.000000 -0.003451
v -0.050409 -0.000000 0.006957
v -0.049865 -0.000000 0.017365
v -0.049321 -0.000000 0.027773
v -0.048777 -0.000000 0.038181
v -0.048233 -0.000000 0.048589
v -0.051320 0.013751 -0.045084
v -0.050794 0.013610 -0.034676
v -0.050268 0.013469 -0.024268
v -0.049743 0.013329 -0.013860
v -0.049217 0.013188 -0.003451
v -0.048692 0.013047 0.006957
v -0.048166 0.012906 0.017365
v -0.047641 0.012765 0.027773
v -0.047115 0.012624 0.038181
v -0.046589 0.012484 0.048589
v -0.046012 0.026565 -0.045084
v -0.045541 0.026293 -0.034676
v -0.045069 0.026021 -0.024268
v -0.044598 0.025749 -0.013860
v -0.044127 0.025477 -0.003451
v -0.043656 0.025205 0.006957
v -0.043185 0.024933 0.017365
v -0.042713 0.024661 0.027773
v -0.042242 0.024388 0.038181
v -0.041771 0.024116 0.048589
v -0.037569 0.037569 -0.045084
v -0.037184 0.037184 -0.034676
v -0.036799 0.036799 -0.024268
v -0.036414 0.036414 -0.013860
v -0.036030 0.036030 -0.003451
v -0.035645 0.035645 0.006957
v -0.035260 0.035260 0.017365
v -0.034875 0.034875 0.027773
v -0.034491 0.034491 0.038181
v -0.034106 0.034106 0.048589
v -0.026565 0.046012 -0.045084
v -0.026293 0.045541 -0.034676
v -0.026021 0.045069 -0.024268
v -0.025749 0.044598 -0.013860
v -0.025477 0.044127 -0.003451
v -0.025205 0.043656 0.006957
v -0.024933 0.043185 0.017365
v -0.024661 0.042713 0.027773
v -0.024389 0.042242 0.038181
v -0.024116 0.041771 0.048589
v -0.013751 0.051320 -0.045084
v -0.013610 0.050794 -0.034676
v -0.013469 0.050268 -0.024268
v -0.013329 0.049743 -0.013860
v -0.013188 0.049217 -0.003451
v -0.013047 0.048692 0.006957
v -0.012906 0.048166 0.017365
v -0.012765 0.047641 0.027773
v -0.012624 0.047115 0.038181
v -0.012484 0.046589 0.048589
v -0.000000 0.053130 -0.045084
v -0.000000 0.052586 -0.034676
v -0.000000 0.052042 -0.024268
v -0.000000 0.051498 -0.013860
v -0.000000 0.050954 -0.003451
v 0.000000 0.050409 0.006957
v -0.000000 0.049865 0.017365
v -0.000000 0.049321 0.027773
v -0.000000 0.048777 0.038181
v -0.000000 0.048233 0.048589
v 0.013751 0.051320 -0.045084
v 0.013610 0.050794 -0.034676
v 0.013469 0.050268 -0.024268
v 0.013329 0.049743 -0.013860
v 0.013188 0.049217 -0.003451
v 0.013047 0.048692 0.006957
v 0.012906 0.048166 0.017365
v 0.012765 0.047641 0.027773
v 0.012624 0.047115 0.038181
v 0.012484 0.046589 0.048589
v -0.012259 -0.045752 -0.051624
v -0.023683 -0.041020 -0.051624
v -0.033493 -0.033493 -0.051624
v -0.041020 -0.023683 -0.051624
v -0.045752 -0.012259 -0.051624
v -0.047366 -0.000000 -0.051624
v -0.045752 0.012259 -0.051624
v -0.041020 0.023683 -0.051624
v -0.033493 0.033493 -0.051624
v -0.023683 0.041020 -0.051624
v -0.012259 0.045752 -0.051624
v 0.000000 0.047366 -0.051624
v 0.012259 0.045752 -0.051624
v 0.023683 0.041020 -0.051624
v 0.033493 0.033493 -0.051624
v 0.041020 0.023683 -0.051624
v 0.045752 0.012259 -0.051624
v 0.047366 0.000000 -0.051624
v 0.045752 -0.012259 -0.051624
v 0.041020 -0.023683 -0.051624
v 0.033493 -0.033493 -0.051624
v 0.023683 -0.041020 -0.051624
v 0.012259 -0.045752 -0.051624
v 0.000000 -0.047366 -0.051624
v 0.023172 0.040136 0.051321
v 0.032771 0.032771 0.051321
v 0.044766 0.011995 0.051321
v 0.032771 -0.032771 0.051322
v 0.011995 -0.044766 0.051321
v 0.000000 -0.046345 0.051321
v -0.032771 -0.032771 0.051321
v -0.040136 -0.023172 0.051321
v -0.044766 -0.011995 0.051321
v -0.044766 0.011995 0.051321
v -0.032771 0.032771 0.051321
v -0.023172 0.040136 0.051321
v -0.011995 0.044766 0.051321
v 0.033376 -0.033376 0.051624
v 0.040877 -0.023600 0.051624
v 0.045592 -0.012216 0.051624
v 0.047200 0.000000 0.051624
v 0.045592 0.012216 0.051624
v 0.040877 0.023600 0.051624
v 0.033376 0.033376 0.051624
v 0.023600 0.040877 0.051624
v 0.012216 0.045592 0.051624
v -0.000000 0.047200 0.051624
v -0.012216 0.045592 0.051624
v -0.023600 0.040877 0.051624
v -0.033376 0.033376 0.051624
v -0.040877 0.023600 0.051624
v -0.045592 0.012216 0.051624
v -0.047200 -0.000000 0.051624
v -0.045592 -0.012216 0.051624
v -0.040877 -0.023600 0.051624
v -0.033376 -0.033376 0.051624
v -0.023600 -0.040877 0.051624
v -0.012216 -0.045592 0.051624
v 0.000000 -0.047200 0.051624
v 0.012216 -0.045592 0.051624
v 0.023600 -0.040877 0.051624
v -0.009815 0.036632 -0.044015
v 0.000000 0.037924 -0.044015
v 0.009815 0.036632 -0.044015
v 0.018962 0.032843 -0.044015
v 0.026816 0.026816 -0.044015
v 0.032843 0.018962 -0.044015
v 0.036632 0.009815 -0.044015
v -0.018962 0.032843 -0.044015
v -0.006590 0.024595 -0.044015
v 0.003324 0.025245 -0.044015
v 0.012731 0.022051 -0.044015
v 0.020201 0.015501 -0.044015
v 0.024595 0.006590 -0.044015
v 0.037924 0.000000 -0.044015
v -0.026816 0.026816 -0.044015
v -0.015501 0.020201 -0.044015
v -0.004008 0.014959 -0.044015
v 0.005475 0.009484 -0.044015
v 0.014959 0.004008 -0.044015
v 0.025245 -0.003324 -0.044015
v 0.036632 -0.009815 -0.044015
v -0.032843 0.018962 -0.044015
v -0.022051 0.012731 -0.044015
v -0.009484 0.005476 -0.044015
v -0.000000 0.000000 -0.044015
v 0.009484 -0.005475 -0.044015
v 0.022051 -0.012731 -0.044015
v 0.032843 -0.018962 -0.044015
v -0.036632 0.009815 -0.044015
v -0.025245 0.003324 -0.044015
v -0.014959 -0.004008 -0.044015
v -0.005476 -0.009484 -0.044015
v 0.004008 -0.014959 -0.044015
v 0.015501 -0.020201 -0.044015
v 0.026816 -0.026816 -0.044015
v -0.037924 -0.000000 -0.044015
v -0.024595 -0.006590 -0.044015
v -0.020201 -0.015501 -0.044015
v -0.012731 -0.022051 -0.044015
v -0.003324 -0.025245 -0.044015
v 0.006590 -0.024595 -0.044015
v 0.018962 -0.032843 -0.044015
v -0.036632 -0.009815 -0.044015
v -0.032843 -0.018962 -0.044015
v -0.026816 -0.026816 -0.044015
v -0.018962 -0.032843 -0.044015
v -0.009815 -0.036632 -0.044015
v 0.000000 -0.037924 -0.044015
v 0.009815 -0.036632 -0.044015
v 0.023527 0.040750 -0.044015
v 0.033272 0.033272 -0.044015
v 0.040750 0.023527 -0.044015
v 0.045450 0.012178 -0.044015
v 0.047053 0.000000 -0.044015
v 0.045450 -0.012178 -0.044015
v 0.040750 -0.023527 -0.044015
v 0.033272 -0.033272 -0.044015
v 0.023527 -0.040750 -0.044015
v 0.012178 -0.045450 -0.044015
v 0.000000 -0.047053 -0.044015
v -0.012178 -0.045450 -0.044015
v -0.023527 -0.040749 -0.044015
v -0.033272 -0.033272 -0.044015
v -0.040749 -0.023527 -0.044014
v -0.045450 -0.012178 -0.044015
v -0.047053 -0.000000 -0.044015
v -0.045450 0.012178 -0.044015
v -0.040749 0.023527 -0.044015
v -0.033272 0.033272 -0.044015
v -0.023527 0.040750 -0.044015
v -0.012178 0.045450 -0.044015
v 0.000000 0.047053 -0.044015
v 0.012178 0.045450 -0.044015
v 0.040136 0.023172 0.051321
v 0.046345 0.000000 0.051321
v 0.044766 -0.011995 0.051322
v 0.040136 -0.023172 0.051321
v 0.023172 -0.040136 0.051321
v -0.011995 -0.044766 0.051321
v -0.023172 -0.040136 0.051321
v -0.046345 -0.000000 0.051321
v -0.040136 0.023172 0.051322
v 0.000000 0.046345 0.051321
v 0.011995 0.044766 0.051321
v 0.023598 0.040873 -0.041545
v 0.023826 0.041268 -0.031942
v 0.023982 0.041538 -0.022236
v 0.024069 0.041688 -0.012426
v 0.024088 0.041722 -0.002513
v 0.024043 0.041643 0.007504
v 0.023935 0.041456 0.017624
v 0.023766 0.041165 0.027847
v 0.023539 0.040771 0.038174
v 0.023255 0.040279 0.048604
v 0.033373 0.033373 -0.041545
v 0.033695 0.033695 -0.031942
v 0.033916 0.033916 -0.022236
v 0.034038 0.034038 -0.012426
v 0.034065 0.034065 -0.002513
v 0.034001 0.034001 0.007504
v 0.033849 0.033849 0.017624
v 0.033611 0.033611 0.027847
v 0.033290 0.033290 0.038174
v 0.032888 0.032888 0.048604
v 0.040873 0.023598 -0.041545
v 0.041268 0.023826 -0.031942
v 0.041538 0.023982 -0.022236
v 0.041688 0.024069 -0.012426
v 0.041722 0.024088 -0.002513
v 0.041643 0.024043 0.007504
v 0.041456 0.023935 0.017624
v 0.041165 0.023766 0.027847
v 0.040771 0.023539 0.038174
v 0.040279 0.023255 0.048604
v 0.045588 0.012215 -0.041545
v 0.046029 0.012333 -0.031942
v 0.046330 0.012414 -0.022236
v 0.046497 0.012459 -0.012426
v 0.046534 0.012469 -0.002513
v 0.046447 0.012445 0.007504
v 0.046238 0.012390 0.017624
v 0.045913 0.012302 0.027847
v 0.045474 0.012185 0.038174
v 0.044925 0.012038 0.048604
v 0.047196 0.000000 -0.041545
v 0.047652 0.000000 -0.031942
v 0.047964 0.000000 -0.022236
v 0.048137 0.000000 -0.012426
v 0.048176 0.000000 -0.002513
v 0.048085 0.000000 0.007504
v 0.047870 0.000000 0.017624
v 0.047533 0.000000 0.027847
v 0.047079 0.000000 0.038174
v 0.046510 0.000000 0.048604
v 0.045588 -0.012215 -0.041545
v 0.046029 -0.012333 -0.031942
v 0.046330 -0.012414 -0.022236
v 0.046497 -0.012459 -0.012426
v 0.046534 -0.012469 -0.002513
v 0.046447 -0.012445 0.007504
v 0.046238 -0.012390 0.017624
v 0.045913 -0.012302 0.027847
v 0.045474 -0.012185 0.038174
v 0.044925 -0.012038 0.048604
v 0.040873 -0.023598 -0.041545
v 0.041268 -0.023826 -0.031942
v 0.041538 -0.023982 -0.022236
v 0.041688 -0.024069 -0.012426
v 0.041722 -0.024088 -0.002513
v 0.041643 -0.024043 0.007504
v 0.041456 -0.023935 0.017624
v 0.041165 -0.023766 0.027847
v 0.040771 -0.023539 0.038174
v 0.040279 -0.023255 0.048604
v 0.033373 -0.033372 -0.041545
v 0.033695 -0.033695 -0.031942
v 0.033916 -0.033916 -0.022236
v 0.034038 -0.034038 -0.012426
v 0.034066 -0.034065 -0.002513
v 0.034001 -0.034001 0.007504
v 0.033849 -0.033849 0.017624
v 0.033611 -0.033611 0.027847
v 0.033290 -0.033290 0.038174
v 0.032888 -0.032888 0.048604
v 0.023598 -0.040873 -0.041545
v 0.023826 -0.041268 -0.031942
v 0.023982 -0.041538 -0.022236
v 0.024069 -0.041688 -0.012426
v 0.024088 -0.041722 -0.002513
v 0.024043 -0.041643 0.007504
v 0.023935 -0.041456 0.017624
v 0.023766 -0.041165 0.027847
v 0.023539 -0.040771 0.038174
v 0.023255 -0.040279 0.048604
v 0.012215 -0.045588 -0.041545
v 0.012333 -0.046029 -0.031942
v 0.012414 -0.046330 -0.022236
v 0.012459 -0.046497 -0.012426
v 0.012469 -0.046534 -0.002513
v 0.012445 -0.046447 0.007504
v 0.012390 -0.046238 0.017624
v 0.012302 -0.045913 0.027847
v 0.012185 -0.045474 0.038174
v 0.012038 -0.044925 0.048604
v 0.000000 -0.047196 -0.041545
v 0.000000 -0.047652 -0.031942
v 0.000000 -0.047964 -0.022236
v 0.000000 -0.048137 -0.012426
v 0.000000 -0.048176 -0.002513
v 0.000000 -0.048085 0.007504
v 0.000000 -0.047870 0.017624
v 0.000000 -0.047533 0.027847
v 0.000000 -0.047079 0.038174
v 0.000000 -0.046510 0.048604
v -0.012215 -0.045588 -0.041545
v -0.012333 -0.046029 -0.031942
v -0.012414 -0.046330 -0.022236
v -0.012459 -0.046497 -0.012426
v -0.012469 -0.046534 -0.002513
v -0.012445 -0.046447 0.007504
v -0.012390 -0.046238 0.017624
v -0.012302 -0.045913 0.027847
v -0.012185 -0.045474 0.038174
v -0.012038 -0.044925 0.048604
v -0.023598 -0.040873 -0.041545
v -0.023826 -0.041268 -0.031942
v -0.023982 -0.041538 -0.022236
v -0.024069 -0.041688 -0.012426
v -0.024088 -0.041722 -0.002513
v -0.024043 -0.041643 0.007504
v -0.023935 -0.041456 0.017624
v -0.023766 -0.041165 0.027847
v -0.023539 -0.040771 0.038174
v -0.023255 -0.040279 0.048604
v -0.033373 -0.033373 -0.041545
v -0.033695 -0.033695 -0.031942
v -0.033916 -0.033916 -0.022236
v -0.034038 -0.034038 -0.012426
v -0.034065 -0.034065 -0.002513
v -0.034001 -0.034001 0.007504
v -0.033849 -0.033849 0.017624
v -0.033611 -0.033611 0.027847
v -0.033290 -0.033290 0.038174
v -0.032888 -0.032888 0.048604
v -0.040873 -0.023598 -0.041545
v -0.041268 -0.023826 -0.031942
v -0.041538 -0.023982 -0.022236
v -0.041688 -0.024069 -0.012426
v -0.041721 -0.024088 -0.002513
v -0.041643 -0.024043 0.007504
v -0.041456 -0.023935 0.017624
v -0.041165 -0.023766 0.027847
v -0.040771 -0.023539 0.038174
v -0.040279 -0.023255 0.048604
v -0.045588 -0.012215 -0.041545
v -0.046029 -0.012333 -0.031942
v -0.046330 -0.012414 -0.022236
v -0.046497 -0.012459 -0.012426
v -0.046534 -0.012469 -0.002513
v -0.046447 -0.012445 0.007504
v -0.046238 -0.012390 0.017624
v -0.045913 -0.012302 0.027847
v -0.045474 -0.012185 0.038174
v -0.044925 -0.012038 0.048604
v -0.047196 -0.000000 -0.041545
v -0.047652 -0.000000 -0.031942
v -0.047964 -0.000000 -0.022236
v -0.048137 -0.000000 -0.012426
v -0.048176 -0.000000 -0.002513
v -0.048085 -0.000000 0.007504
v -0.047870 -0.000000 0.017624
v -0.047533 -0.000000 0.027847
v -0.047079 0.000000 0.038174
v -0.046510 0.000000 0.048604
v -0.045588 0.012215 -0.041545
v -0.046029 0.012333 -0.031942
v -0.046330 0.012414 -0.022236
v -0.046497 0.012459 -0.012426
v -0.046534 0.012469 -0.002513
v -0.046447 0.012445 0.007504
v -0.046238 0.012390 0.017624
v -0.045913 0.012302 0.027847
v -0.045474 0.012185 0.038174
v -0.044925 0.012038 0.048604
v -0.040873 0.023598 -0.041545
v -0.041268 0.023826 -0.031942
v -0.041538 0.023982 -0.022236
v -0.041688 0.024069 -0.012426
v -0.041722 0.024088 -0.002513
v -0.041643 0.024043 0.007504
v -0.041456 0.023935 0.017624
v -0.041165 0.023766 0.027847
v -0.040771 0.023539 0.038174
v -0.040279 0.023255 0.048604
v -0.033373 0.033373 -0.041545
v -0.033695 0.033695 -0.031942
v -0.033916 0.033916 -0.022236
v -0.034038 0.034038 -0.012426
v -0.034065 0.034065 -0.002513
v -0.034001 0.034001 0.007504
v -0.033849 0.033849 0.017624
v -0.033611 0.033611 0.027847
v -0.033290 0.033290 0.038174
v -0.032888 0.032888 0.048604
v -0.023598 0.040873 -0.041545
v -0.023826 0.041268 -0.031942
v -0.023982 0.041538 -0.022236
v -0.024069 0.041688 -0.012426
v -0.024088 0.041722 -0.002513
v -0.024043 0.041643 0.007504
v -0.023935 0.041456 0.017624
v -0.023766 0.041165 0.027847
v -0.023539 0.040771 0.038174
v -0.023255 0.040279 0.048604
v -0.012215 0.045588 -0.041545
v -0.012333 0.046029 -0.031942
v -0.012414 0.046330 -0.022236
v -0.012459 0.046497 -0.012426
v -0.012469 0.046534 -0.002513
v -0.012445 0.046447 0.007504
v -0.012390 0.046238 0.017624
v -0.012302 0.045913 0.027847
v -0.012185 0.045474 0.038174
v -0.012038 0.044925 0.048604
v 0.000000 0.047196 -0.041545
v 0.000000 0.047652 -0.031942
v 0.000000 0.047964 -0.022236
v -0.000000 0.048137 -0.012426
v -0.000000 0.048176 -0.002513
v 0.000000 0.048085 0.007504
v -0.000000 0.047870 0.017624
v 0.000000 0.047533 0.027847
v 0.000000 0.047079 0.038174
v 0.000000 0.046510 0.048604
v 0.012215 0.045588 -0.041545
v 0.012333 0.046029 -0.031942
v 0.012414 0.046330 -0.022236
v 0.012459 0.046497 -0.012426
v 0.012469 0.046534 -0.002513
v 0.012445 0.046447 0.007504
v 0.012390 0.046238 0.017624
v 0.012302 0.045913 0.027847
v 0.012185 0.045475 0.038174
v 0.012038 0.044925 0.048604
v -0.011587 -0.043242 -0.044015
v -0.022384 -0.038770 -0.044015
v -0.031655 -0.031655 -0.044015
v -0.038770 -0.022384 -0.044015
v -0.043242 -0.011587 -0.044015
v -0.044767 -0.000000 -0.044015
v -0.043242 0.011587 -0.044015
v -0.038770 0.022384 -0.044015
v -0.031655 0.031655 -0.044015
v -0.022384 0.038770 -0.044015
v -0.011587 0.043242 -0.044015
v 0.000000 0.044767 -0.044015
v 0.011587 0.043242 -0.044015
v 0.022384 0.038770 -0.044015
v 0.031655 0.031655 -0.044015
v 0.038770 0.022384 -0.044015
v 0.043242 0.011587 -0.044015
v 0.044767 0.000000 -0.044015
v 0.043242 -0.011587 -0.044015
v 0.038770 -0.022384 -0.044015
v 0.031655 -0.031655 -0.044015
v 0.022384 -0.038770 -0.044015
v 0.011587 -0.043242 -0.044015
v 0.000000 -0.044767 -0.044015
vn -0.0000 -0.0000 -1.0000
vn -0.0115 0.0200 -0.9997
vn -0.0060 0.0223 -0.9997
vn -0.0000 0.0231 -0.9997
vn 0.0060 0.0223 -0.9997
vn 0.0115 0.0200 -0.9997
vn 0.0163 0.0163 -0.9997
vn 0.0231 -0.0000 -0.9997
vn 0.0223 0.0060 -0.9997
vn 0.0200 0.0115 -0.9997
vn -0.0163 0.0163 -0.9997
vn -0.0200 0.0115 -0.9997
vn 0.0200 -0.0115 -0.9997
vn 0.0223 -0.0060 -0.9997
vn -0.0223 0.0060 -0.9997
vn 0.0163 -0.0163 -0.9997
vn -0.0231 -0.0000 -0.9997
vn 0.0115 -0.0200 -0.9997
vn -0.0223 -0.0060 -0.9997
vn -0.0200 -0.0115 -0.9997
vn -0.0163 -0.0163 -0.9997
vn -0.0115 -0.0200 -0.9997
vn -0.0060 -0.0223 -0.9997
vn -0.0000 -0.0231 -0.9997
vn 0.0060 -0.0223 -0.9997
vn -0.4993 0.8648 0.0522
vn -0.2585 0.9646 0.0522
vn -0.0000 0.9986 0.0522
vn 0.2585 0.9646 0.0522
vn 0.4993 0.8648 0.0522
vn 0.7061 0.7061 0.0522
vn 0.8648 0.4993 0.0522
vn 0.9986 -0.0000 0.0522
vn 0.9646 0.2585 0.0522
vn -0.7061 0.7061 0.0522
vn 0.9646 -0.2585 0.0522
vn -0.8648 0.4993 0.0522
vn 0.8648 -0.4993 0.0522
vn -0.9646 0.2585 0.0522
vn 0.7061 -0.7061 0.0522
vn -0.9986 -0.0000 0.0522
vn 0.4993 -0.8648 0.0522
vn -0.9646 -0.2585 0.0522
vn -0.8648 -0.4993 0.0522
vn -0.7061 -0.7061 0.0522
vn -0.4993 -0.8648 0.0522
vn -0.2585 -0.9646 0.0522
vn -0.0000 -0.9986 0.0522
vn 0.2585 -0.9646 0.0522
vn -0.2130 0.7950 0.5679
vn -0.4115 0.7128 0.5679
vn -0.3822 0.6620 -0.6447
vn -0.1978 0.7384 -0.6447
vn -0.0000 0.8231 0.5679
vn -0.0000 0.7644 -0.6447
vn 0.1978 0.7384 -0.6447
vn 0.2130 0.7951 0.5679
vn 0.3822 0.6620 -0.6447
vn 0.4115 0.7128 0.5679
vn 0.5405 0.5405 -0.6447
vn 0.7128 0.4115 0.5679
vn 0.5820 0.5820 0.5679
vn 0.6620 0.3822 -0.6447
vn 0.8231 -0.0000 0.5679
vn 0.7950 0.2130 0.5679
vn 0.7644 -0.0000 -0.6447
vn 0.7384 0.1978 -0.6447
vn -0.5820 0.5820 0.5679
vn -0.5405 0.5405 -0.6447
vn 0.7384 -0.1978 -0.6447
vn -0.7128 0.4115 0.5679
vn 0.7128 -0.4115 0.5679
vn 0.7950 -0.2130 0.5679
vn 0.6620 -0.3822 -0.6447
vn -0.7950 0.2130 0.5679
vn -0.6620 0.3822 -0.6447
vn 0.5820 -0.5820 0.5679
vn 0.5405 -0.5405 -0.6447
vn -0.8231 -0.0000 0.5679
vn -0.7644 -0.0000 -0.6447
vn -0.7384 0.1978 -0.6447
vn 0.4115 -0.7128 0.5679
vn 0.3822 -0.6620 -0.6447
vn -0.7951 -0.2130 0.5679
vn -0.7128 -0.4115 0.5679
vn -0.6620 -0.3822 -0.6447
vn -0.7384 -0.1978 -0.6447
vn -0.5820 -0.5820 0.5679
vn -0.4115 -0.7128 0.5679
vn -0.3822 -0.6620 -0.6447
vn -0.5405 -0.5405 -0.6447
vn -0.2130 -0.7950 0.5679
vn -0.0000 -0.8231 0.5679
vn -0.1978 -0.7384 -0.6447
vn 0.2130 -0.7950 0.5679
vn 0.1978 -0.7384 -0.6447
vn -0.0000 -0.7644 -0.6447
vn -0.0205 0.0355 0.9992
vn -0.0106 0.0396 0.9992
vn -0.0000 0.0410 0.9992
vn 0.0106 0.0396 0.9992
vn 0.0205 0.0355 0.9992
vn 0.0290 0.0290 0.9992
vn 0.0355 0.0205 0.9992
vn 0.0410 -0.0000 0.9992
vn 0.0396 0.0106 0.9992
vn -0.0290 0.0290 0.9992
vn 0.0396 -0.0106 0.9992
vn -0.0355 0.0205 0.9992
vn 0.0355 -0.0205 0.9992
vn -0.0396 0.0106 0.9992
vn 0.0290 -0.0290 0.9992
vn -0.0410 -0.0000 0.9992
vn 0.0205 -0.0355 0.9992
vn -0.0396 -0.0106 0.9992
vn -0.0355 -0.0205 0.9992
vn -0.0290 -0.0290 0.9992
vn -0.0205 -0.0355 0.9992
vn -0.0106 -0.0396 0.9992
vn -0.0000 -0.0410 0.9992
vn 0.0106 -0.0396 0.9992
vn 0.4085 -0.7076 0.5765
vn 0.2115 -0.7892 0.5765
vn -0.0000 -0.8171 0.5765
vn -0.2115 -0.7892 0.5765
vn -0.4085 -0.7076 0.5765
vn -0.5778 -0.5778 0.5765
vn -0.7076 -0.4085 0.5765
vn -0.8171 -0.0000 0.5765
vn -0.7892 -0.2115 0.5765
vn 0.5778 -0.5777 0.5765
vn -0.7892 0.2115 0.5766
vn 0.7076 -0.4085 0.5766
vn -0.7076 0.4085 0.5766
vn 0.7892 -0.2115 0.5765
vn -0.5777 0.5777 0.5766
vn 0.8171 -0.0000 0.5766
vn -0.4085 0.7076 0.5765
vn 0.7892 0.2115 0.5765
vn 0.7076 0.4085 0.5765
vn 0.5778 0.5778 0.5765
vn 0.4085 0.7076 0.5765
vn 0.2115 0.7892 0.5765
vn -0.0000 0.8171 0.5765
vn -0.2115 0.7892 0.5765
vn -0.0000 -0.0000 1.0000
vn 0.2588 -0.9658 -0.0152
vn 0.5000 -0.8660 -0.0026
vn 0.2588 -0.9659 -0.0026
vn -0.0000 -1.0000 -0.0026
vn -0.2588 -0.9659 -0.0026
vn -0.0000 -0.9999 -0.0152
vn -0.5000 -0.8660 -0.0026
vn -0.2588 -0.9658 -0.0152
vn -0.7070 -0.7070 -0.0152
vn -0.7071 -0.7071 -0.0026
vn -0.8660 -0.5000 -0.0026
vn -1.0000 -0.0000 -0.0026
vn -0.9658 -0.2588 -0.0152
vn -0.9659 -0.2588 -0.0026
vn 0.4999 -0.8659 -0.0152
vn 0.7071 -0.7071 -0.0026
vn -0.9658 0.2588 -0.0152
vn -0.9659 0.2588 -0.0026
vn 0.7070 -0.7070 -0.0152
vn 0.8660 -0.5000 -0.0026
vn -0.8659 0.4999 -0.0152
vn -0.8660 0.5000 -0.0026
vn 0.8659 -0.4999 -0.0152
vn 0.9659 -0.2588 -0.0026
vn -0.7071 0.7071 -0.0026
vn 0.9658 -0.2588 -0.0152
vn 1.0000 -0.0000 -0.0026
vn -0.5000 0.8660 -0.0026
vn -0.7070 0.7070 -0.0152
vn 0.9658 0.2588 -0.0152
vn 0.9659 0.2588 -0.0026
vn 0.8660 0.5000 -0.0026
vn 0.7070 0.7070 -0.0152
vn 0.7071 0.7071 -0.0026
vn 0.4999 0.8659 -0.0152
vn 0.5000 0.8660 -0.0026
vn 0.2588 0.9659 -0.0026
vn 0.2588 0.9658 -0.0152
vn -0.0000 1.0000 -0.0026
vn -0.0000 0.9999 -0.0152
vn -0.2588 0.9659 -0.0026
vn -0.2588 0.9658 -0.0152
vn 0.4992 -0.8646 -0.0576
vn 0.2584 -0.9643 -0.0576
vn 0.4994 -0.8650 -0.0492
vn 0.2585 -0.9648 -0.0492
vn 0.4996 -0.8654 -0.0384
vn 0.2586 -0.9652 -0.0384
vn 0.4998 -0.8657 -0.0271
vn 0.2587 -0.9656 -0.0271
vn 0.4993 -0.8648 0.0525
vn 0.1849 -0.6901 0.6997
vn 0.2585 -0.9646 0.0525
vn 0.2586 -0.9652 0.0398
vn 0.4996 -0.8653 0.0398
vn 0.2587 -0.9656 0.0249
vn 0.4998 -0.8658 0.0249
vn 0.5000 -0.8660 0.0108
vn 0.2588 -0.9659 0.0108
vn -0.0000 -0.9983 -0.0576
vn -0.0000 -0.9988 -0.0492
vn -0.0000 -0.9993 -0.0384
vn -0.0000 -0.9996 -0.0271
vn -0.0000 -0.7144 0.6997
vn -0.0000 -0.9986 0.0525
vn -0.0000 -0.9992 0.0398
vn -0.0000 -0.9997 0.0249
vn -0.0000 -0.9999 0.0108
vn -0.2584 -0.9643 -0.0576
vn -0.2585 -0.9648 -0.0492
vn -0.2586 -0.9652 -0.0384
vn -0.2587 -0.9656 -0.0271
vn -0.1849 -0.6901 0.6997
vn -0.2585 -0.9646 0.0525
vn -0.2586 -0.9652 0.0398
vn -0.2587 -0.9656 0.0249
vn -0.2588 -0.9659 0.0108
vn -0.4992 -0.8646 -0.0576
vn -0.4994 -0.8650 -0.0492
vn -0.4996 -0.8654 -0.0384
vn -0.4998 -0.8657 -0.0271
vn -0.4999 -0.8659 -0.0152
vn -0.3572 -0.6187 0.6997
vn -0.4993 -0.8648 0.0525
vn -0.4996 -0.8653 0.0398
vn -0.4998 -0.8658 0.0249
vn -0.5000 -0.8660 0.0108
vn -0.7059 -0.7059 -0.0576
vn -0.7063 -0.7063 -0.0492
vn -0.7066 -0.7066 -0.0384
vn -0.7068 -0.7068 -0.0271
vn -0.7061 -0.7061 0.0525
vn -0.7065 -0.7065 0.0398
vn -0.7069 -0.7069 0.0249
vn -0.7071 -0.7071 0.0108
vn -0.8646 -0.4992 -0.0576
vn -0.8650 -0.4994 -0.0492
vn -0.8654 -0.4996 -0.0384
vn -0.8657 -0.4998 -0.0271
vn -0.8659 -0.4999 -0.0152
vn -0.5052 -0.5052 0.6997
vn -0.8648 -0.4993 0.0525
vn -0.8653 -0.4996 0.0398
vn -0.8658 -0.4998 0.0249
vn -0.8660 -0.5000 0.0108
vn -0.9983 -0.0000 -0.0576
vn -0.9643 -0.2584 -0.0576
vn -0.9988 -0.0000 -0.0492
vn -0.9648 -0.2585 -0.0492
vn -0.9652 -0.2586 -0.0384
vn -0.9993 -0.0000 -0.0384
vn -0.9996 -0.0000 -0.0271
vn -0.9656 -0.2587 -0.0271
vn -0.9999 -0.0000 -0.0152
vn -0.6901 -0.1849 0.6997
vn -0.9986 -0.0000 0.0525
vn -0.9646 -0.2585 0.0525
vn -0.9652 -0.2586 0.0398
vn -0.9992 -0.0000 0.0398
vn -0.9997 -0.0000 0.0249
vn -0.9656 -0.2587 0.0249
vn -0.9659 -0.2588 0.0108
vn -0.9999 -0.0000 0.0108
vn -0.6187 -0.3572 0.6997
vn 0.7059 -0.7059 -0.0576
vn 0.7063 -0.7063 -0.0492
vn 0.7066 -0.7066 -0.0384
vn 0.7068 -0.7068 -0.0271
vn 0.5052 -0.5052 0.6997
vn 0.7061 -0.7061 0.0525
vn 0.7065 -0.7065 0.0398
vn 0.7069 -0.7069 0.0249
vn 0.7071 -0.7071 0.0108
vn -0.9643 0.2584 -0.0576
vn -0.9648 0.2585 -0.0492
vn -0.9652 0.2586 -0.0384
vn -0.9656 0.2587 -0.0271
vn -0.6901 0.1849 0.6997
vn -0.9646 0.2585 0.0525
vn -0.9652 0.2586 0.0398
vn -0.9656 0.2587 0.0249
vn -0.9659 0.2588 0.0108
vn 0.8646 -0.4992 -0.0576
vn 0.8650 -0.4994 -0.0492
vn 0.8654 -0.4996 -0.0384
vn 0.8657 -0.4998 -0.0271
vn 0.6187 -0.3572 0.6997
vn 0.8648 -0.4993 0.0525
vn 0.8653 -0.4996 0.0398
vn 0.8658 -0.4998 0.0249
vn 0.8660 -0.5000 0.0108
vn -0.8646 0.4992 -0.0576
vn -0.8650 0.4994 -0.0492
vn -0.8654 0.4996 -0.0384
vn -0.8657 0.4998 -0.0271
vn -0.6187 0.3572 0.6997
vn -0.8648 0.4993 0.0525
vn -0.8653 0.4996 0.0398
vn -0.8658 0.4998 0.0249
vn -0.8660 0.5000 0.0108
vn 0.9643 -0.2584 -0.0576
vn 0.9648 -0.2585 -0.0492
vn 0.9652 -0.2586 -0.0384
vn 0.9656 -0.2587 -0.0271
vn 0.9646 -0.2585 0.0525
vn 0.9652 -0.2586 0.0398
vn 0.9656 -0.2587 0.0249
vn 0.9659 -0.2588 0.0108
vn -0.7059 0.7059 -0.0576
vn -0.7063 0.7063 -0.0492
vn -0.7066 0.7066 -0.0384
vn -0.7068 0.7068 -0.0271
vn -0.7061 0.7061 0.0525
vn -0.7065 0.7065 0.0398
vn -0.7069 0.7069 0.0249
vn -0.7071 0.7071 0.0108
vn 0.9983 -0.0000 -0.0576
vn 0.9988 -0.0000 -0.0492
vn 0.9993 -0.0000 -0.0384
vn 0.9996 -0.0000 -0.0271
vn 0.9999 -0.0000 -0.0152
vn 0.9986 -0.0000 0.0525
vn 0.6901 -0.1849 0.6997
vn 0.9992 -0.0000 0.0398
vn 0.9997 -0.0000 0.0249
vn 0.9999 -0.0000 0.0108
vn -0.4992 0.8646 -0.0576
vn -0.4994 0.8650 -0.0492
vn -0.4996 0.8654 -0.0384
vn -0.4998 0.8657 -0.0271
vn -0.4999 0.8659 -0.0152
vn -0.5052 0.5052 0.6997
vn -0.4993 0.8648 0.0525
vn -0.4996 0.8653 0.0398
vn -0.4998 0.8658 0.0249
vn -0.5000 0.8660 0.0108
vn 0.9643 0.2584 -0.0576
vn 0.9648 0.2585 -0.0492
vn 0.9652 0.2586 -0.0384
vn 0.9656 0.2587 -0.0271
vn 0.6901 0.1849 0.6997
vn 0.9646 0.2585 0.0525
vn 0.9652 0.2586 0.0398
vn 0.9656 0.2587 0.0249
vn 0.9659 0.2588 0.0108
vn 0.8646 0.4992 -0.0576
vn 0.8650 0.4994 -0.0492
vn 0.8654 0.4996 -0.0384
vn 0.8657 0.4998 -0.0271
vn 0.8659 0.4999 -0.0152
vn 0.6187 0.3572 0.6997
vn 0.8648 0.4993 0.0525
vn 0.8653 0.4996 0.0398
vn 0.8658 0.4998 0.0249
vn 0.8660 0.5000 0.0108
vn 0.7059 0.7059 -0.0576
vn 0.7063 0.7063 -0.0492
vn 0.7066 0.7066 -0.0384
vn 0.7068 0.7068 -0.0271
vn 0.7061 0.7061 0.0525
vn 0.7065 0.7065 0.0398
vn 0.7069 0.7069 0.0249
vn 0.7071 0.7071 0.0108
vn 0.4992 0.8646 -0.0576
vn 0.4994 0.8650 -0.0492
vn 0.4996 0.8654 -0.0384
vn 0.4998 0.8657 -0.0271
vn 0.3572 0.6187 0.6997
vn 0.4993 0.8648 0.0525
vn 0.4996 0.8653 0.0398
vn 0.4998 0.8658 0.0249
vn 0.5000 0.8660 0.0108
vn 0.2584 0.9643 -0.0576
vn 0.2585 0.9648 -0.0492
vn 0.2586 0.9652 -0.0384
vn 0.2587 0.9656 -0.0271
vn 0.1849 0.6901 0.6997
vn 0.2585 0.9646 0.0525
vn 0.2586 0.9652 0.0398
vn 0.2587 0.9656 0.0249
vn 0.2588 0.9659 0.0108
vn -0.0000 0.9983 -0.0576
vn -0.0000 0.9988 -0.0492
vn -0.0000 0.9993 -0.0384
vn -0.0000 0.9996 -0.0271
vn -0.0000 0.9986 0.0525
vn -0.0000 0.9992 0.0398
vn -0.0000 0.9997 0.0249
vn -0.0000 0.9999 0.0108
vn -0.2584 0.9643 -0.0576
vn -0.2585 0.9648 -0.0492
vn -0.2586 0.9652 -0.0384
vn -0.2587 0.9656 -0.0271
vn -0.1849 0.6901 0.6997
vn -0.2585 0.9646 0.0525
vn -0.2586 0.9652 0.0398
vn -0.2587 0.9656 0.0249
vn -0.2588 0.9659 0.0108
vn -0.7144 -0.0000 0.6997
vn 0.3572 -0.6187 0.6997
vn 0.7144 -0.0000 0.6997
vn -0.3572 0.6187 0.6997
vn 0.5052 0.5052 0.6997
vn -0.0000 0.7144 0.6997
vt 0.000000 0.000000
s 1
f 1/1/1 9/1/1 8/1/1
f 2/1/1 10/1/1 9/1/1
f 3/1/1 11/1/1 10/1/1
f 5/1/1 11/1/1 4/1/1
f 6/1/1 12/1/1 5/1/1
f 7/1/1 13/1/1 6/1/1
f 8/1/1 16/1/1 15/1/1
f 9/1/1 17/1/1 16/1/1
f 10/1/1 18/1/1 17/1/1
f 12/1/1 18/1/1 11/1/1
f 13/1/1 19/1/1 12/1/1
f 14/1/1 20/1/1 13/1/1
f 15/1/1 23/1/1 22/1/1
f 16/1/1 24/1/1 23/1/1
f 17/1/1 25/1/1 24/1/1
f 19/1/1 25/1/1 18/1/1
f 20/1/1 26/1/1 19/1/1
f 21/1/1 27/1/1 20/1/1
f 23/1/1 29/1/1 22/1/1
f 24/1/1 30/1/1 23/1/1
f 25/1/1 31/1/1 24/1/1
f 26/1/1 32/1/1 25/1/1
f 26/1/1 34/1/1 33/1/1
f 27/1/1 35/1/1 34/1/1
f 30/1/1 36/1/1 29/1/1
f 31/1/1 37/1/1 30/1/1
f 32/1/1 38/1/1 31/1/1
f 32/1/1 40/1/1 39/1/1
f 33/1/1 41/1/1 40/1/1
f 34/1/1 42/1/1 41/1/1
f 37/1/1 43/1/1 36/1/1
f 38/1/1 44/1/1 37/1/1
f 39/1/1 45/1/1 38/1/1
f 39/1/1 47/1/1 46/1/1
f 40/1/1 48/1/1 47/1/1
f 41/1/1 49/1/1 48/1/1
f 347/1/2 1/1/1 8/1/1
f 348/1/3 2/1/1 1/1/1
f 349/1/4 3/1/1 2/1/1
f 350/1/5 4/1/1 3/1/1
f 351/1/6 5/1/1 4/1/1
f 352/1/7 6/1/1 5/1/1
f 355/1/8 7/1/1 354/1/9
f 354/1/9 6/1/1 353/1/10
f 346/1/11 8/1/1 15/1/1
f 355/1/8 21/1/1 14/1/1
f 345/1/12 15/1/1 22/1/1
f 357/1/13 21/1/1 356/1/14
f 345/1/12 29/1/1 344/1/15
f 358/1/16 28/1/1 357/1/13
f 344/1/15 36/1/1 343/1/17
f 359/1/18 35/1/1 358/1/16
f 342/1/19 36/1/1 43/1/1
f 342/1/19 44/1/1 341/1/20
f 341/1/20 45/1/1 340/1/21
f 339/1/22 45/1/1 46/1/1
f 338/1/23 46/1/1 47/1/1
f 361/1/24 47/1/1 48/1/1
f 361/1/24 49/1/1 360/1/25
f 359/1/18 49/1/1 42/1/1
f 303/1/26 312/1/27 302/1/26
f 313/1/27 322/1/28 312/1/27
f 323/1/28 332/1/29 322/1/28
f 103/1/30 332/1/29 333/1/29
f 113/1/31 102/1/30 103/1/30
f 123/1/32 112/1/31 113/1/31
f 143/1/33 132/1/34 133/1/34
f 133/1/34 122/1/32 123/1/32
f 293/1/35 302/1/26 292/1/35
f 153/1/36 142/1/33 143/1/33
f 293/1/35 282/1/37 283/1/37
f 163/1/38 152/1/36 153/1/36
f 273/1/39 282/1/37 272/1/39
f 163/1/38 172/1/40 162/1/38
f 263/1/41 272/1/39 262/1/41
f 183/1/42 172/1/40 173/1/40
f 263/1/41 252/1/43 253/1/43
f 243/1/44 252/1/43 242/1/44
f 233/1/45 242/1/44 232/1/45
f 223/1/46 232/1/45 222/1/46
f 213/1/47 222/1/46 212/1/47
f 213/1/47 202/1/48 203/1/48
f 203/1/48 192/1/49 193/1/49
f 193/1/49 182/1/42 183/1/42
f 95/1/50 307/1/26 94/1/51
f 317/1/27 306/1/26 307/1/26
f 316/1/27 305/1/26 306/1/26
f 315/1/27 304/1/26 305/1/26
f 314/1/27 303/1/26 304/1/26
f 70/1/52 308/1/27 71/1/53
f 308/1/27 299/1/26 309/1/27
f 309/1/27 300/1/26 310/1/27
f 300/1/26 311/1/27 310/1/27
f 301/1/26 312/1/27 311/1/27
f 96/1/54 317/1/27 95/1/50
f 317/1/27 326/1/28 316/1/27
f 326/1/28 315/1/27 316/1/27
f 315/1/27 324/1/28 314/1/27
f 324/1/28 313/1/27 314/1/27
f 71/1/53 318/1/28 72/1/55
f 318/1/28 309/1/27 319/1/28
f 319/1/28 310/1/27 320/1/28
f 310/1/27 321/1/28 320/1/28
f 311/1/27 322/1/28 321/1/28
f 96/1/54 337/1/29 327/1/28
f 337/1/29 326/1/28 327/1/28
f 336/1/29 325/1/28 326/1/28
f 335/1/29 324/1/28 325/1/28
f 324/1/28 333/1/29 323/1/28
f 72/1/55 328/1/29 73/1/56
f 328/1/29 319/1/28 329/1/29
f 319/1/28 330/1/29 329/1/29
f 330/1/29 321/1/28 331/1/29
f 321/1/28 332/1/29 331/1/29
f 97/1/57 107/1/30 337/1/29
f 107/1/30 336/1/29 337/1/29
f 336/1/29 105/1/30 335/1/29
f 105/1/30 334/1/29 335/1/29
f 334/1/29 103/1/30 333/1/29
f 50/1/58 328/1/29 98/1/30
f 98/1/30 329/1/29 99/1/30
f 329/1/29 100/1/30 99/1/30
f 100/1/30 331/1/29 101/1/30
f 331/1/29 102/1/30 101/1/30
f 74/1/59 117/1/31 107/1/30
f 117/1/31 106/1/30 107/1/30
f 106/1/30 115/1/31 105/1/30
f 115/1/31 104/1/30 105/1/30
f 104/1/30 113/1/31 103/1/30
f 51/1/60 98/1/30 108/1/31
f 98/1/30 109/1/31 108/1/31
f 109/1/31 100/1/30 110/1/31
f 110/1/31 101/1/30 111/1/31
f 101/1/30 112/1/31 111/1/31
f 76/1/61 117/1/31 75/1/62
f 117/1/31 126/1/32 116/1/31
f 116/1/31 125/1/32 115/1/31
f 115/1/31 124/1/32 114/1/31
f 114/1/31 123/1/32 113/1/31
f 52/1/63 108/1/31 118/1/32
f 108/1/31 119/1/32 118/1/32
f 119/1/32 110/1/31 120/1/32
f 110/1/31 121/1/32 120/1/32
f 111/1/31 122/1/32 121/1/32
f 78/1/64 137/1/34 77/1/65
f 137/1/34 146/1/33 136/1/34
f 146/1/33 135/1/34 136/1/34
f 135/1/34 144/1/33 134/1/34
f 134/1/34 143/1/33 133/1/34
f 54/1/66 128/1/34 138/1/33
f 128/1/34 139/1/33 138/1/33
f 139/1/33 130/1/34 140/1/33
f 140/1/33 131/1/34 141/1/33
f 131/1/34 142/1/33 141/1/33
f 77/1/65 127/1/32 76/1/61
f 127/1/32 136/1/34 126/1/32
f 136/1/34 125/1/32 126/1/32
f 135/1/34 124/1/32 125/1/32
f 124/1/32 133/1/34 123/1/32
f 53/1/67 118/1/32 128/1/34
f 118/1/32 129/1/34 128/1/34
f 129/1/34 120/1/32 130/1/34
f 130/1/34 121/1/32 131/1/34
f 121/1/32 132/1/34 131/1/34
f 94/1/51 297/1/35 93/1/68
f 307/1/26 296/1/35 297/1/35
f 296/1/35 305/1/26 295/1/35
f 295/1/35 304/1/26 294/1/35
f 304/1/26 293/1/35 294/1/35
f 69/1/69 298/1/26 70/1/52
f 288/1/35 299/1/26 298/1/26
f 289/1/35 300/1/26 299/1/26
f 290/1/35 301/1/26 300/1/26
f 291/1/35 302/1/26 301/1/26
f 78/1/64 157/1/36 147/1/33
f 147/1/33 156/1/36 146/1/33
f 146/1/33 155/1/36 145/1/33
f 145/1/33 154/1/36 144/1/33
f 144/1/33 153/1/36 143/1/33
f 55/1/70 138/1/33 148/1/36
f 148/1/36 139/1/33 149/1/36
f 139/1/33 150/1/36 149/1/36
f 150/1/36 141/1/33 151/1/36
f 141/1/33 152/1/36 151/1/36
f 93/1/68 287/1/37 92/1/71
f 297/1/35 286/1/37 287/1/37
f 286/1/37 295/1/35 285/1/37
f 285/1/37 294/1/35 284/1/37
f 294/1/35 283/1/37 284/1/37
f 69/1/69 278/1/37 288/1/35
f 278/1/37 289/1/35 288/1/35
f 289/1/35 280/1/37 290/1/35
f 280/1/37 291/1/35 290/1/35
f 291/1/35 282/1/37 292/1/35
f 80/1/72 157/1/36 79/1/73
f 157/1/36 166/1/38 156/1/36
f 166/1/38 155/1/36 156/1/36
f 165/1/38 154/1/36 155/1/36
f 154/1/36 163/1/38 153/1/36
f 55/1/70 158/1/38 56/1/74
f 158/1/38 149/1/36 159/1/38
f 149/1/36 160/1/38 159/1/38
f 160/1/38 151/1/36 161/1/38
f 151/1/36 162/1/38 161/1/38
f 92/1/71 277/1/39 91/1/75
f 277/1/39 286/1/37 276/1/39
f 286/1/37 275/1/39 276/1/39
f 275/1/39 284/1/37 274/1/39
f 284/1/37 273/1/39 274/1/39
f 68/1/76 268/1/39 278/1/37
f 268/1/39 279/1/37 278/1/37
f 269/1/39 280/1/37 279/1/37
f 270/1/39 281/1/37 280/1/37
f 281/1/37 272/1/39 282/1/37
f 81/1/77 167/1/38 80/1/72
f 167/1/38 176/1/40 166/1/38
f 176/1/40 165/1/38 166/1/38
f 175/1/40 164/1/38 165/1/38
f 174/1/40 163/1/38 164/1/38
f 56/1/74 168/1/40 57/1/78
f 168/1/40 159/1/38 169/1/40
f 159/1/38 170/1/40 169/1/40
f 170/1/40 161/1/38 171/1/40
f 171/1/40 162/1/38 172/1/40
f 91/1/75 267/1/41 90/1/79
f 267/1/41 276/1/39 266/1/41
f 276/1/39 265/1/41 266/1/41
f 275/1/39 264/1/41 265/1/41
f 274/1/39 263/1/41 264/1/41
f 66/1/80 268/1/39 67/1/81
f 258/1/41 269/1/39 268/1/39
f 259/1/41 270/1/39 269/1/39
f 270/1/39 261/1/41 271/1/39
f 261/1/41 272/1/39 271/1/39
f 82/1/82 177/1/40 81/1/77
f 187/1/42 176/1/40 177/1/40
f 186/1/42 175/1/40 176/1/40
f 185/1/42 174/1/40 175/1/40
f 174/1/40 183/1/42 173/1/40
f 57/1/78 178/1/42 58/1/83
f 178/1/42 169/1/40 179/1/42
f 169/1/40 180/1/42 179/1/42
f 170/1/40 181/1/42 180/1/42
f 181/1/42 172/1/40 182/1/42
f 90/1/79 257/1/43 89/1/84
f 257/1/43 266/1/41 256/1/43
f 266/1/41 255/1/43 256/1/43
f 265/1/41 254/1/43 255/1/43
f 254/1/43 263/1/41 253/1/43
f 66/1/80 248/1/43 258/1/41
f 248/1/43 259/1/41 258/1/41
f 259/1/41 250/1/43 260/1/41
f 260/1/41 251/1/43 261/1/41
f 251/1/43 262/1/41 261/1/41
f 88/1/85 257/1/43 247/1/44
f 247/1/44 256/1/43 246/1/44
f 246/1/44 255/1/43 245/1/44
f 245/1/44 254/1/43 244/1/44
f 244/1/44 253/1/43 243/1/44
f 64/1/86 248/1/43 65/1/87
f 238/1/44 249/1/43 248/1/43
f 249/1/43 240/1/44 250/1/43
f 240/1/44 251/1/43 250/1/43
f 251/1/43 242/1/44 252/1/43
f 87/1/88 247/1/44 237/1/45
f 247/1/44 236/1/45 237/1/45
f 236/1/45 245/1/44 235/1/45
f 235/1/45 244/1/44 234/1/45
f 244/1/44 233/1/45 234/1/45
f 64/1/86 228/1/45 238/1/44
f 238/1/44 229/1/45 239/1/44
f 229/1/45 240/1/44 239/1/44
f 240/1/44 231/1/45 241/1/44
f 231/1/45 242/1/44 241/1/44
f 86/1/89 237/1/45 227/1/46
f 237/1/45 226/1/46 227/1/46
f 226/1/46 235/1/45 225/1/46
f 235/1/45 224/1/46 225/1/46
f 224/1/46 233/1/45 223/1/46
f 62/1/90 228/1/45 63/1/91
f 218/1/46 229/1/45 228/1/45
f 219/1/46 230/1/45 229/1/45
f 230/1/45 221/1/46 231/1/45
f 221/1/46 232/1/45 231/1/45
f 85/1/92 227/1/46 217/1/47
f 227/1/46 216/1/47 217/1/47
f 216/1/47 225/1/46 215/1/47
f 225/1/46 214/1/47 215/1/47
f 214/1/47 223/1/46 213/1/47
f 62/1/90 208/1/47 218/1/46
f 208/1/47 219/1/46 218/1/46
f 219/1/46 210/1/47 220/1/46
f 210/1/47 221/1/46 220/1/46
f 211/1/47 222/1/46 221/1/46
f 84/1/93 217/1/47 207/1/48
f 217/1/47 206/1/48 207/1/48
f 206/1/48 215/1/47 205/1/48
f 215/1/47 204/1/48 205/1/48
f 204/1/48 213/1/47 203/1/48
f 61/1/94 198/1/48 208/1/47
f 198/1/48 209/1/47 208/1/47
f 209/1/47 200/1/48 210/1/47
f 200/1/48 211/1/47 210/1/47
f 211/1/47 202/1/48 212/1/47
f 84/1/93 197/1/49 83/1/95
f 197/1/49 206/1/48 196/1/49
f 206/1/48 195/1/49 196/1/49
f 195/1/49 204/1/48 194/1/49
f 194/1/49 203/1/48 193/1/49
f 59/1/96 198/1/48 60/1/97
f 198/1/48 189/1/49 199/1/48
f 199/1/48 190/1/49 200/1/48
f 190/1/49 201/1/48 200/1/48
f 201/1/48 192/1/49 202/1/48
f 83/1/95 187/1/42 82/1/82
f 197/1/49 186/1/42 187/1/42
f 196/1/49 185/1/42 186/1/42
f 195/1/49 184/1/42 185/1/42
f 194/1/49 183/1/42 184/1/42
f 58/1/83 188/1/49 59/1/96
f 188/1/49 179/1/42 189/1/49
f 179/1/42 190/1/49 189/1/49
f 180/1/42 191/1/49 190/1/49
f 191/1/49 182/1/42 192/1/49
f 71/1/53 347/1/2 70/1/52
f 72/1/55 348/1/3 71/1/53
f 73/1/56 349/1/4 72/1/55
f 50/1/58 350/1/5 73/1/56
f 51/1/60 351/1/6 50/1/58
f 51/1/60 353/1/10 352/1/7
f 53/1/67 355/1/8 354/1/9
f 53/1/67 353/1/10 52/1/63
f 69/1/69 347/1/2 346/1/11
f 55/1/70 355/1/8 54/1/66
f 68/1/76 346/1/11 345/1/12
f 56/1/74 356/1/14 55/1/70
f 68/1/76 344/1/15 67/1/81
f 57/1/78 357/1/13 56/1/74
f 67/1/81 343/1/17 66/1/80
f 58/1/83 358/1/16 57/1/78
f 65/1/87 343/1/17 342/1/19
f 64/1/86 342/1/19 341/1/20
f 63/1/91 341/1/20 340/1/21
f 63/1/91 339/1/22 62/1/90
f 62/1/90 338/1/23 61/1/94
f 61/1/94 361/1/24 60/1/97
f 60/1/97 360/1/25 59/1/96
f 58/1/83 360/1/25 359/1/18
f 95/1/50 386/1/98 385/1/99
f 96/1/54 385/1/99 384/1/100
f 383/1/101 96/1/54 384/1/100
f 382/1/102 97/1/57 383/1/101
f 75/1/62 382/1/102 381/1/103
f 76/1/61 381/1/103 380/1/104
f 378/1/105 77/1/65 379/1/106
f 77/1/65 380/1/104 379/1/106
f 386/1/98 93/1/68 387/1/107
f 377/1/108 78/1/64 378/1/105
f 93/1/68 388/1/109 387/1/107
f 376/1/110 79/1/73 377/1/108
f 92/1/71 389/1/111 388/1/109
f 375/1/112 80/1/72 376/1/110
f 91/1/75 390/1/113 389/1/111
f 398/1/114 81/1/77 375/1/112
f 90/1/79 391/1/115 390/1/113
f 89/1/84 392/1/116 391/1/115
f 88/1/85 393/1/117 392/1/116
f 393/1/117 86/1/89 394/1/118
f 394/1/118 85/1/92 395/1/119
f 395/1/119 84/1/93 396/1/120
f 396/1/120 83/1/95 397/1/121
f 83/1/95 398/1/114 397/1/121
f 385/1/99 373/1/122 374/1/123
f 384/1/100 374/1/123 481/1/124
f 383/1/101 481/1/124 482/1/125
f 382/1/102 482/1/125 362/1/126
f 382/1/102 363/1/127 381/1/103
f 381/1/103 472/1/128 380/1/104
f 379/1/106 473/1/129 378/1/105
f 380/1/104 364/1/130 379/1/106
f 386/1/98 372/1/131 373/1/122
f 378/1/105 474/1/132 377/1/108
f 387/1/107 480/1/133 372/1/131
f 377/1/108 475/1/134 376/1/110
f 388/1/109 371/1/135 480/1/133
f 376/1/110 365/1/136 375/1/112
f 389/1/111 479/1/137 371/1/135
f 375/1/112 476/1/138 398/1/114
f 390/1/113 370/1/139 479/1/137
f 391/1/115 369/1/140 370/1/139
f 392/1/116 368/1/141 369/1/140
f 393/1/117 478/1/142 368/1/141
f 394/1/118 477/1/143 478/1/142
f 396/1/120 477/1/143 395/1/119
f 397/1/121 367/1/144 396/1/120
f 398/1/114 366/1/145 397/1/121
f 1/1/1 2/1/1 9/1/1
f 2/1/1 3/1/1 10/1/1
f 3/1/1 4/1/1 11/1/1
f 5/1/1 12/1/1 11/1/1
f 6/1/1 13/1/1 12/1/1
f 7/1/1 14/1/1 13/1/1
f 8/1/1 9/1/1 16/1/1
f 9/1/1 10/1/1 17/1/1
f 10/1/1 11/1/1 18/1/1
f 12/1/1 19/1/1 18/1/1
f 13/1/1 20/1/1 19/1/1
f 14/1/1 21/1/1 20/1/1
f 15/1/1 16/1/1 23/1/1
f 16/1/1 17/1/1 24/1/1
f 17/1/1 18/1/1 25/1/1
f 19/1/1 26/1/1 25/1/1
f 20/1/1 27/1/1 26/1/1
f 21/1/1 28/1/1 27/1/1
f 23/1/1 30/1/1 29/1/1
f 24/1/1 31/1/1 30/1/1
f 25/1/1 32/1/1 31/1/1
f 26/1/1 33/1/1 32/1/1
f 26/1/1 27/1/1 34/1/1
f 27/1/1 28/1/1 35/1/1
f 30/1/1 37/1/1 36/1/1
f 31/1/1 38/1/1 37/1/1
f 32/1/1 39/1/1 38/1/1
f 32/1/1 33/1/1 40/1/1
f 33/1/1 34/1/1 41/1/1
f 34/1/1 35/1/1 42/1/1
f 37/1/1 44/1/1 43/1/1
f 38/1/1 45/1/1 44/1/1
f 39/1/1 46/1/1 45/1/1
f 39/1/1 40/1/1 47/1/1
f 40/1/1 41/1/1 48/1/1
f 41/1/1 42/1/1 49/1/1
f 347/1/2 348/1/3 1/1/1
f 348/1/3 349/1/4 2/1/1
f 349/1/4 350/1/5 3/1/1
f 350/1/5 351/1/6 4/1/1
f 351/1/6 352/1/7 5/1/1
f 352/1/7 353/1/10 6/1/1
f 355/1/8 14/1/1 7/1/1
f 354/1/9 7/1/1 6/1/1
f 346/1/11 347/1/2 8/1/1
f 355/1/8 356/1/14 21/1/1
f 345/1/12 346/1/11 15/1/1
f 357/1/13 28/1/1 21/1/1
f 345/1/12 22/1/1 29/1/1
f 358/1/16 35/1/1 28/1/1
f 344/1/15 29/1/1 36/1/1
f 359/1/18 42/1/1 35/1/1
f 342/1/19 343/1/17 36/1/1
f 342/1/19 43/1/1 44/1/1
f 341/1/20 44/1/1 45/1/1
f 339/1/22 340/1/21 45/1/1
f 338/1/23 339/1/22 46/1/1
f 361/1/24 338/1/23 47/1/1
f 361/1/24 48/1/1 49/1/1
f 359/1/18 360/1/25 49/1/1
f 303/1/26 313/1/27 312/1/27
f 313/1/27 323/1/28 322/1/28
f 323/1/28 333/1/29 332/1/29
f 103/1/30 102/1/30 332/1/29
f 113/1/31 112/1/31 102/1/30
f 123/1/32 122/1/32 112/1/31
f 143/1/33 142/1/33 132/1/34
f 133/1/34 132/1/34 122/1/32
f 293/1/35 303/1/26 302/1/26
f 153/1/36 152/1/36 142/1/33
f 293/1/35 292/1/35 282/1/37
f 163/1/38 162/1/38 152/1/36
f 273/1/39 283/1/37 282/1/37
f 163/1/38 173/1/40 172/1/40
f 263/1/41 273/1/39 272/1/39
f 183/1/42 182/1/42 172/1/40
f 263/1/41 262/1/41 252/1/43
f 243/1/44 253/1/43 252/1/43
f 233/1/45 243/1/44 242/1/44
f 223/1/46 233/1/45 232/1/45
f 213/1/47 223/1/46 222/1/46
f 213/1/47 212/1/47 202/1/48
f 203/1/48 202/1/48 192/1/49
f 193/1/49 192/1/49 182/1/42
f 95/1/50 317/1/27 307/1/26
f 317/1/27 316/1/27 306/1/26
f 316/1/27 315/1/27 305/1/26
f 315/1/27 314/1/27 304/1/26
f 314/1/27 313/1/27 303/1/26
f 70/1/52 298/1/26 308/1/27
f 308/1/27 298/1/26 299/1/26
f 309/1/27 299/1/26 300/1/26
f 300/1/26 301/1/26 311/1/27
f 301/1/26 302/1/26 312/1/27
f 96/1/54 327/1/28 317/1/27
f 317/1/27 327/1/28 326/1/28
f 326/1/28 325/1/28 315/1/27
f 315/1/27 325/1/28 324/1/28
f 324/1/28 323/1/28 313/1/27
f 71/1/53 308/1/27 318/1/28
f 318/1/28 308/1/27 309/1/27
f 319/1/28 309/1/27 310/1/27
f 310/1/27 311/1/27 321/1/28
f 311/1/27 312/1/27 322/1/28
f 96/1/54 97/1/57 337/1/29
f 337/1/29 336/1/29 326/1/28
f 336/1/29 335/1/29 325/1/28
f 335/1/29 334/1/29 324/1/28
f 324/1/28 334/1/29 333/1/29
f 72/1/55 318/1/28 328/1/29
f 328/1/29 318/1/28 319/1/28
f 319/1/28 320/1/28 330/1/29
f 330/1/29 320/1/28 321/1/28
f 321/1/28 322/1/28 332/1/29
f 97/1/57 74/1/59 107/1/30
f 107/1/30 106/1/30 336/1/29
f 336/1/29 106/1/30 105/1/30
f 105/1/30 104/1/30 334/1/29
f 334/1/29 104/1/30 103/1/30
f 50/1/58 73/1/56 328/1/29
f 98/1/30 328/1/29 329/1/29
f 329/1/29 330/1/29 100/1/30
f 100/1/30 330/1/29 331/1/29
f 331/1/29 332/1/29 102/1/30
f 74/1/59 75/1/62 117/1/31
f 117/1/31 116/1/31 106/1/30
f 106/1/30 116/1/31 115/1/31
f 115/1/31 114/1/31 104/1/30
f 104/1/30 114/1/31 113/1/31
f 51/1/60 50/1/58 98/1/30
f 98/1/30 99/1/30 109/1/31
f 109/1/31 99/1/30 100/1/30
f 110/1/31 100/1/30 101/1/30
f 101/1/30 102/1/30 112/1/31
f 76/1/61 127/1/32 117/1/31
f 117/1/31 127/1/32 126/1/32
f 116/1/31 126/1/32 125/1/32
f 115/1/31 125/1/32 124/1/32
f 114/1/31 124/1/32 123/1/32
f 52/1/63 51/1/60 108/1/31
f 108/1/31 109/1/31 119/1/32
f 119/1/32 109/1/31 110/1/31
f 110/1/31 111/1/31 121/1/32
f 111/1/31 112/1/31 122/1/32
f 78/1/64 147/1/33 137/1/34
f 137/1/34 147/1/33 146/1/33
f 146/1/33 145/1/33 135/1/34
f 135/1/34 145/1/33 144/1/33
f 134/1/34 144/1/33 143/1/33
f 54/1/66 53/1/67 128/1/34
f 128/1/34 129/1/34 139/1/33
f 139/1/33 129/1/34 130/1/34
f 140/1/33 130/1/34 131/1/34
f 131/1/34 132/1/34 142/1/33
f 77/1/65 137/1/34 127/1/32
f 127/1/32 137/1/34 136/1/34
f 136/1/34 135/1/34 125/1/32
f 135/1/34 134/1/34 124/1/32
f 124/1/32 134/1/34 133/1/34
f 53/1/67 52/1/63 118/1/32
f 118/1/32 119/1/32 129/1/34
f 129/1/34 119/1/32 120/1/32
f 130/1/34 120/1/32 121/1/32
f 121/1/32 122/1/32 132/1/34
f 94/1/51 307/1/26 297/1/35
f 307/1/26 306/1/26 296/1/35
f 296/1/35 306/1/26 305/1/26
f 295/1/35 305/1/26 304/1/26
f 304/1/26 303/1/26 293/1/35
f 69/1/69 288/1/35 298/1/26
f 288/1/35 289/1/35 299/1/26
f 289/1/35 290/1/35 300/1/26
f 290/1/35 291/1/35 301/1/26
f 291/1/35 292/1/35 302/1/26
f 78/1/64 79/1/73 157/1/36
f 147/1/33 157/1/36 156/1/36
f 146/1/33 156/1/36 155/1/36
f 145/1/33 155/1/36 154/1/36
f 144/1/33 154/1/36 153/1/36
f 55/1/70 54/1/66 138/1/33
f 148/1/36 138/1/33 139/1/33
f 139/1/33 140/1/33 150/1/36
f 150/1/36 140/1/33 141/1/33
f 141/1/33 142/1/33 152/1/36
f 93/1/68 297/1/35 287/1/37
f 297/1/35 296/1/35 286/1/37
f 286/1/37 296/1/35 295/1/35
f 285/1/37 295/1/35 294/1/35
f 294/1/35 293/1/35 283/1/37
f 69/1/69 68/1/76 278/1/37
f 278/1/37 279/1/37 289/1/35
f 289/1/35 279/1/37 280/1/37
f 280/1/37 281/1/37 291/1/35
f 291/1/35 281/1/37 282/1/37
f 80/1/72 167/1/38 157/1/36
f 157/1/36 167/1/38 166/1/38
f 166/1/38 165/1/38 155/1/36
f 165/1/38 164/1/38 154/1/36
f 154/1/36 164/1/38 163/1/38
f 55/1/70 148/1/36 158/1/38
f 158/1/38 148/1/36 149/1/36
f 149/1/36 150/1/36 160/1/38
f 160/1/38 150/1/36 151/1/36
f 151/1/36 152/1/36 162/1/38
f 92/1/71 287/1/37 277/1/39
f 277/1/39 287/1/37 286/1/37
f 286/1/37 285/1/37 275/1/39
f 275/1/39 285/1/37 284/1/37
f 284/1/37 283/1/37 273/1/39
f 68/1/76 67/1/81 268/1/39
f 268/1/39 269/1/39 279/1/37
f 269/1/39 270/1/39 280/1/37
f 270/1/39 271/1/39 281/1/37
f 281/1/37 271/1/39 272/1/39
f 81/1/77 177/1/40 167/1/38
f 167/1/38 177/1/40 176/1/40
f 176/1/40 175/1/40 165/1/38
f 175/1/40 174/1/40 164/1/38
f 174/1/40 173/1/40 163/1/38
f 56/1/74 158/1/38 168/1/40
f 168/1/40 158/1/38 159/1/38
f 159/1/38 160/1/38 170/1/40
f 170/1/40 160/1/38 161/1/38
f 171/1/40 161/1/38 162/1/38
f 91/1/75 277/1/39 267/1/41
f 267/1/41 277/1/39 276/1/39
f 276/1/39 275/1/39 265/1/41
f 275/1/39 274/1/39 264/1/41
f 274/1/39 273/1/39 263/1/41
f 66/1/80 258/1/41 268/1/39
f 258/1/41 259/1/41 269/1/39
f 259/1/41 260/1/41 270/1/39
f 270/1/39 260/1/41 261/1/41
f 261/1/41 262/1/41 272/1/39
f 82/1/82 187/1/42 177/1/40
f 187/1/42 186/1/42 176/1/40
f 186/1/42 185/1/42 175/1/40
f 185/1/42 184/1/42 174/1/40
f 174/1/40 184/1/42 183/1/42
f 57/1/78 168/1/40 178/1/42
f 178/1/42 168/1/40 169/1/40
f 169/1/40 170/1/40 180/1/42
f 170/1/40 171/1/40 181/1/42
f 181/1/42 171/1/40 172/1/40
f 90/1/79 267/1/41 257/1/43
f 257/1/43 267/1/41 266/1/41
f 266/1/41 265/1/41 255/1/43
f 265/1/41 264/1/41 254/1/43
f 254/1/43 264/1/41 263/1/41
f 66/1/80 65/1/87 248/1/43
f 248/1/43 249/1/43 259/1/41
f 259/1/41 249/1/43 250/1/43
f 260/1/41 250/1/43 251/1/43
f 251/1/43 252/1/43 262/1/41
f 88/1/85 89/1/84 257/1/43
f 247/1/44 257/1/43 256/1/43
f 246/1/44 256/1/43 255/1/43
f 245/1/44 255/1/43 254/1/43
f 244/1/44 254/1/43 253/1/43
f 64/1/86 238/1/44 248/1/43
f 238/1/44 239/1/44 249/1/43
f 249/1/43 239/1/44 240/1/44
f 240/1/44 241/1/44 251/1/43
f 251/1/43 241/1/44 242/1/44
f 87/1/88 88/1/85 247/1/44
f 247/1/44 246/1/44 236/1/45
f 236/1/45 246/1/44 245/1/44
f 235/1/45 245/1/44 244/1/44
f 244/1/44 243/1/44 233/1/45
f 64/1/86 63/1/91 228/1/45
f 238/1/44 228/1/45 229/1/45
f 229/1/45 230/1/45 240/1/44
f 240/1/44 230/1/45 231/1/45
f 231/1/45 232/1/45 242/1/44
f 86/1/89 87/1/88 237/1/45
f 237/1/45 236/1/45 226/1/46
f 226/1/46 236/1/45 235/1/45
f 235/1/45 234/1/45 224/1/46
f 224/1/46 234/1/45 233/1/45
f 62/1/90 218/1/46 228/1/45
f 218/1/46 219/1/46 229/1/45
f 219/1/46 220/1/46 230/1/45
f 230/1/45 220/1/46 221/1/46
f 221/1/46 222/1/46 232/1/45
f 85/1/92 86/1/89 227/1/46
f 227/1/46 226/1/46 216/1/47
f 216/1/47 226/1/46 225/1/46
f 225/1/46 224/1/46 214/1/47
f 214/1/47 224/1/46 223/1/46
f 62/1/90 61/1/94 208/1/47
f 208/1/47 209/1/47 219/1/46
f 219/1/46 209/1/47 210/1/47
f 210/1/47 211/1/47 221/1/46
f 211/1/47 212/1/47 222/1/46
f 84/1/93 85/1/92 217/1/47
f 217/1/47 216/1/47 206/1/48
f 206/1/48 216/1/47 215/1/47
f 215/1/47 214/1/47 204/1/48
f 204/1/48 214/1/47 213/1/47
f 61/1/94 60/1/97 198/1/48
f 198/1/48 199/1/48 209/1/47
f 209/1/47 199/1/48 200/1/48
f 200/1/48 201/1/48 211/1/47
f 211/1/47 201/1/48 202/1/48
f 84/1/93 207/1/48 197/1/49
f 197/1/49 207/1/48 206/1/48
f 206/1/48 205/1/48 195/1/49
f 195/1/49 205/1/48 204/1/48
f 194/1/49 204/1/48 203/1/48
f 59/1/96 188/1/49 198/1/48
f 198/1/48 188/1/49 189/1/49
f 199/1/48 189/1/49 190/1/49
f 190/1/49 191/1/49 201/1/48
f 201/1/48 191/1/49 192/1/49
f 83/1/95 197/1/49 187/1/42
f 197/1/49 196/1/49 186/1/42
f 196/1/49 195/1/49 185/1/42
f 195/1/49 194/1/49 184/1/42
f 194/1/49 193/1/49 183/1/42
f 58/1/83 178/1/42 188/1/49
f 188/1/49 178/1/42 179/1/42
f 179/1/42 180/1/42 190/1/49
f 180/1/42 181/1/42 191/1/49
f 191/1/49 181/1/42 182/1/42
f 71/1/53 348/1/3 347/1/2
f 72/1/55 349/1/4 348/1/3
f 73/1/56 350/1/5 349/1/4
f 50/1/58 351/1/6 350/1/5
f 51/1/60 352/1/7 351/1/6
f 51/1/60 52/1/63 353/1/10
f 53/1/67 54/1/66 355/1/8
f 53/1/67 354/1/9 353/1/10
f 69/1/69 70/1/52 347/1/2
f 55/1/70 356/1/14 355/1/8
f 68/1/76 69/1/69 346/1/11
f 56/1/74 357/1/13 356/1/14
f 68/1/76 345/1/12 344/1/15
f 57/1/78 358/1/16 357/1/13
f 67/1/81 344/1/15 343/1/17
f 58/1/83 359/1/18 358/1/16
f 65/1/87 66/1/80 343/1/17
f 64/1/86 65/1/87 342/1/19
f 63/1/91 64/1/86 341/1/20
f 63/1/91 340/1/21 339/1/22
f 62/1/90 339/1/22 338/1/23
f 61/1/94 338/1/23 361/1/24
f 60/1/97 361/1/24 360/1/25
f 58/1/83 59/1/96 360/1/25
f 95/1/50 94/1/51 386/1/98
f 96/1/54 95/1/50 385/1/99
f 383/1/101 97/1/57 96/1/54
f 382/1/102 74/1/59 97/1/57
f 75/1/62 74/1/59 382/1/102
f 76/1/61 75/1/62 381/1/103
f 378/1/105 78/1/64 77/1/65
f 77/1/65 76/1/61 380/1/104
f 386/1/98 94/1/51 93/1/68
f 377/1/108 79/1/73 78/1/64
f 93/1/68 92/1/71 388/1/109
f 376/1/110 80/1/72 79/1/73
f 92/1/71 91/1/75 389/1/111
f 375/1/112 81/1/77 80/1/72
f 91/1/75 90/1/79 390/1/113
f 398/1/114 82/1/82 81/1/77
f 90/1/79 89/1/84 391/1/115
f 89/1/84 88/1/85 392/1/116
f 88/1/85 87/1/88 393/1/117
f 393/1/117 87/1/88 86/1/89
f 394/1/118 86/1/89 85/1/92
f 395/1/119 85/1/92 84/1/93
f 396/1/120 84/1/93 83/1/95
f 83/1/95 82/1/82 398/1/114
f 385/1/99 386/1/98 373/1/122
f 384/1/100 385/1/99 374/1/123
f 383/1/101 384/1/100 481/1/124
f 382/1/102 383/1/101 482/1/125
f 382/1/102 362/1/126 363/1/127
f 381/1/103 363/1/127 472/1/128
f 379/1/106 364/1/130 473/1/129
f 380/1/104 472/1/128 364/1/130
f 386/1/98 387/1/107 372/1/131
f 378/1/105 473/1/129 474/1/132
f 387/1/107 388/1/109 480/1/133
f 377/1/108 474/1/132 475/1/134
f 388/1/109 389/1/111 371/1/135
f 376/1/110 475/1/134 365/1/136
f 389/1/111 390/1/113 479/1/137
f 375/1/112 365/1/136 476/1/138
f 390/1/113 391/1/115 370/1/139
f 391/1/115 392/1/116 369/1/140
f 392/1/116 393/1/117 368/1/141
f 393/1/117 394/1/118 478/1/142
f 394/1/118 395/1/119 477/1/143
f 396/1/120 367/1/144 477/1/143
f 397/1/121 366/1/145 367/1/144
f 398/1/114 476/1/138 366/1/145
f 407/1/146 399/1/146 406/1/146
f 408/1/146 400/1/146 407/1/146
f 409/1/146 401/1/146 408/1/146
f 403/1/146 409/1/146 410/1/146
f 404/1/146 410/1/146 411/1/146
f 405/1/146 411/1/146 412/1/146
f 414/1/146 406/1/146 413/1/146
f 415/1/146 407/1/146 414/1/146
f 416/1/146 408/1/146 415/1/146
f 410/1/146 416/1/146 417/1/146
f 411/1/146 417/1/146 418/1/146
f 412/1/146 418/1/146 419/1/146
f 421/1/146 413/1/146 420/1/146
f 422/1/146 414/1/146 421/1/146
f 416/1/146 422/1/146 423/1/146
f 424/1/146 416/1/146 423/1/146
f 418/1/146 424/1/146 425/1/146
f 419/1/146 425/1/146 426/1/146
f 421/1/146 427/1/146 428/1/146
f 422/1/146 428/1/146 429/1/146
f 430/1/146 422/1/146 429/1/146
f 424/1/146 430/1/146 431/1/146
f 432/1/146 424/1/146 431/1/146
f 433/1/146 425/1/146 432/1/146
f 428/1/146 434/1/146 435/1/146
f 429/1/146 435/1/146 436/1/146
f 430/1/146 436/1/146 437/1/146
f 438/1/146 430/1/146 437/1/146
f 439/1/146 431/1/146 438/1/146
f 440/1/146 432/1/146 439/1/146
f 435/1/146 441/1/146 442/1/146
f 436/1/146 442/1/146 443/1/146
f 437/1/146 443/1/146 444/1/146
f 445/1/146 437/1/146 444/1/146
f 446/1/146 438/1/146 445/1/146
f 447/1/146 439/1/146 446/1/146
f 399/1/146 732/1/146 406/1/146
f 400/1/146 733/1/146 399/1/146
f 735/1/146 400/1/146 401/1/146
f 402/1/146 735/1/146 401/1/146
f 403/1/146 736/1/146 402/1/146
f 738/1/146 403/1/146 404/1/146
f 412/1/146 739/1/146 405/1/146
f 405/1/146 738/1/146 404/1/146
f 406/1/146 731/1/146 413/1/146
f 419/1/146 740/1/146 412/1/146
f 413/1/146 730/1/146 420/1/146
f 742/1/146 419/1/146 426/1/146
f 730/1/146 427/1/146 420/1/146
f 743/1/146 426/1/146 433/1/146
f 729/1/146 434/1/146 427/1/146
f 744/1/146 433/1/146 440/1/146
f 728/1/146 441/1/146 434/1/146
f 727/1/146 442/1/146 441/1/146
f 726/1/146 443/1/146 442/1/146
f 725/1/146 444/1/146 443/1/146
f 724/1/146 445/1/146 444/1/146
f 723/1/146 446/1/146 445/1/146
f 746/1/146 447/1/146 446/1/146
f 447/1/146 744/1/146 440/1/146
f 698/1/147 687/1/148 697/1/149
f 707/1/150 698/1/147 697/1/149
f 717/1/151 708/1/152 707/1/150
f 487/1/153 718/1/154 717/1/151
f 498/1/155 487/1/153 497/1/156
f 507/1/157 498/1/155 497/1/156
f 527/1/158 518/1/159 517/1/160
f 518/1/159 507/1/157 517/1/160
f 688/1/161 677/1/162 687/1/148
f 538/1/163 527/1/158 537/1/164
f 678/1/165 667/1/166 677/1/162
f 548/1/167 537/1/164 547/1/168
f 668/1/169 657/1/170 667/1/166
f 557/1/171 548/1/167 547/1/168
f 658/1/172 647/1/173 657/1/170
f 567/1/174 558/1/175 557/1/171
f 647/1/173 638/1/176 637/1/177
f 638/1/176 627/1/178 637/1/177
f 627/1/178 618/1/179 617/1/180
f 617/1/180 608/1/181 607/1/182
f 608/1/181 597/1/183 607/1/182
f 598/1/184 587/1/185 597/1/183
f 588/1/186 577/1/187 587/1/185
f 578/1/188 567/1/174 577/1/187
f 374/1/123 692/1/189 702/1/190
f 702/1/190 691/1/191 701/1/192
f 701/1/192 690/1/193 700/1/194
f 700/1/194 689/1/195 699/1/196
f 699/1/196 688/1/161 698/1/147
f 683/1/197 469/1/198 693/1/199
f 683/1/197 694/1/200 684/1/201
f 684/1/201 695/1/202 685/1/203
f 686/1/204 695/1/202 696/1/205
f 687/1/148 696/1/205 697/1/149
f 712/1/206 374/1/123 702/1/190
f 712/1/206 701/1/192 711/1/207
f 711/1/207 700/1/194 710/1/208
f 709/1/209 700/1/194 699/1/196
f 709/1/209 698/1/147 708/1/152
f 693/1/199 470/1/210 703/1/211
f 693/1/199 704/1/212 694/1/200
f 694/1/200 705/1/213 695/1/202
f 695/1/202 706/1/214 696/1/205
f 697/1/149 706/1/214 707/1/150
f 722/1/215 481/1/124 712/1/206
f 722/1/215 711/1/207 721/1/216
f 721/1/216 710/1/208 720/1/217
f 719/1/218 710/1/208 709/1/209
f 719/1/218 708/1/152 718/1/154
f 703/1/211 471/1/219 713/1/220
f 703/1/211 714/1/221 704/1/212
f 704/1/212 715/1/222 705/1/213
f 705/1/213 716/1/223 706/1/214
f 706/1/214 717/1/151 707/1/150
f 492/1/224 482/1/125 722/1/215
f 492/1/224 721/1/216 491/1/225
f 491/1/225 720/1/217 490/1/226
f 489/1/227 720/1/217 719/1/218
f 488/1/228 719/1/218 718/1/154
f 713/1/220 448/1/229 483/1/230
f 713/1/220 484/1/231 714/1/221
f 714/1/221 485/1/232 715/1/222
f 715/1/222 486/1/233 716/1/223
f 716/1/223 487/1/153 717/1/151
f 363/1/127 492/1/224 502/1/234
f 501/1/235 492/1/224 491/1/225
f 501/1/235 490/1/226 500/1/236
f 500/1/236 489/1/227 499/1/237
f 499/1/237 488/1/228 498/1/155
f 448/1/229 493/1/238 483/1/230
f 483/1/230 494/1/239 484/1/231
f 484/1/231 495/1/240 485/1/232
f 485/1/232 496/1/241 486/1/233
f 486/1/233 497/1/156 487/1/153
f 472/1/128 502/1/234 512/1/242
f 511/1/243 502/1/234 501/1/235
f 510/1/244 501/1/235 500/1/236
f 509/1/245 500/1/236 499/1/237
f 509/1/245 498/1/155 508/1/246
f 449/1/247 503/1/248 493/1/238
f 494/1/239 503/1/248 504/1/249
f 494/1/239 505/1/250 495/1/240
f 495/1/240 506/1/251 496/1/241
f 497/1/156 506/1/251 507/1/157
f 532/1/252 364/1/130 522/1/253
f 531/1/254 522/1/253 521/1/255
f 531/1/254 520/1/256 530/1/257
f 529/1/258 520/1/256 519/1/259
f 528/1/260 519/1/259 518/1/159
f 451/1/261 523/1/262 513/1/263
f 514/1/264 523/1/262 524/1/265
f 514/1/264 525/1/266 515/1/267
f 516/1/268 525/1/266 526/1/269
f 516/1/268 527/1/158 517/1/160
f 364/1/130 512/1/242 522/1/253
f 521/1/255 512/1/242 511/1/243
f 521/1/255 510/1/244 520/1/256
f 519/1/259 510/1/244 509/1/245
f 519/1/259 508/1/246 518/1/159
f 450/1/270 513/1/263 503/1/248
f 504/1/249 513/1/263 514/1/264
f 504/1/249 515/1/267 505/1/250
f 506/1/251 515/1/267 516/1/268
f 507/1/157 516/1/268 517/1/160
f 373/1/122 682/1/271 692/1/189
f 691/1/191 682/1/271 681/1/272
f 690/1/193 681/1/272 680/1/273
f 689/1/195 680/1/273 679/1/274
f 688/1/161 679/1/274 678/1/165
f 467/1/275 683/1/197 673/1/276
f 674/1/277 683/1/197 684/1/201
f 675/1/278 684/1/201 685/1/203
f 675/1/278 686/1/204 676/1/279
f 676/1/279 687/1/148 677/1/162
f 542/1/280 473/1/129 532/1/252
f 541/1/281 532/1/252 531/1/254
f 541/1/281 530/1/257 540/1/282
f 540/1/282 529/1/258 539/1/283
f 538/1/163 529/1/258 528/1/260
f 523/1/262 453/1/284 533/1/285
f 523/1/262 534/1/286 524/1/265
f 524/1/265 535/1/287 525/1/266
f 526/1/269 535/1/287 536/1/288
f 526/1/269 537/1/164 527/1/158
f 372/1/131 672/1/289 682/1/271
f 682/1/271 671/1/290 681/1/272
f 680/1/273 671/1/290 670/1/291
f 679/1/274 670/1/291 669/1/292
f 679/1/274 668/1/169 678/1/165
f 466/1/293 673/1/276 663/1/294
f 663/1/294 674/1/277 664/1/295
f 665/1/296 674/1/277 675/1/278
f 665/1/296 676/1/279 666/1/297
f 666/1/297 677/1/162 667/1/166
f 475/1/134 542/1/280 552/1/298
f 552/1/298 541/1/281 551/1/299
f 551/1/299 540/1/282 550/1/300
f 550/1/300 539/1/283 549/1/301
f 548/1/167 539/1/283 538/1/163
f 533/1/285 454/1/302 543/1/303
f 534/1/286 543/1/303 544/1/304
f 534/1/286 545/1/305 535/1/287
f 535/1/287 546/1/306 536/1/288
f 537/1/164 546/1/306 547/1/168
f 480/1/133 662/1/307 672/1/289
f 671/1/290 662/1/307 661/1/308
f 670/1/291 661/1/308 660/1/309
f 670/1/291 659/1/310 669/1/292
f 669/1/292 658/1/172 668/1/169
f 653/1/311 466/1/293 663/1/294
f 653/1/311 664/1/295 654/1/312
f 655/1/313 664/1/295 665/1/296
f 655/1/313 666/1/297 656/1/314
f 657/1/170 666/1/297 667/1/166
f 562/1/315 475/1/134 552/1/298
f 562/1/315 551/1/299 561/1/316
f 561/1/316 550/1/300 560/1/317
f 560/1/317 549/1/301 559/1/318
f 558/1/175 549/1/301 548/1/167
f 454/1/302 553/1/319 543/1/303
f 544/1/304 553/1/319 554/1/320
f 545/1/305 554/1/320 555/1/321
f 546/1/306 555/1/321 556/1/322
f 546/1/306 557/1/171 547/1/168
f 371/1/135 652/1/323 662/1/307
f 662/1/307 651/1/324 661/1/308
f 661/1/308 650/1/325 660/1/309
f 659/1/310 650/1/325 649/1/326
f 659/1/310 648/1/327 658/1/172
f 643/1/328 465/1/329 653/1/311
f 643/1/328 654/1/312 644/1/330
f 644/1/330 655/1/313 645/1/331
f 645/1/331 656/1/314 646/1/332
f 646/1/332 657/1/170 647/1/173
f 572/1/333 365/1/136 562/1/315
f 572/1/333 561/1/316 571/1/334
f 571/1/334 560/1/317 570/1/335
f 570/1/335 559/1/318 569/1/336
f 569/1/336 558/1/175 568/1/337
f 455/1/338 563/1/339 553/1/319
f 554/1/320 563/1/339 564/1/340
f 554/1/320 565/1/341 555/1/321
f 555/1/321 566/1/342 556/1/322
f 556/1/322 567/1/174 557/1/171
f 479/1/137 642/1/343 652/1/323
f 652/1/323 641/1/344 651/1/324
f 650/1/325 641/1/344 640/1/345
f 649/1/326 640/1/345 639/1/346
f 648/1/327 639/1/346 638/1/176
f 463/1/347 643/1/328 633/1/348
f 633/1/348 644/1/330 634/1/349
f 635/1/350 644/1/330 645/1/331
f 635/1/350 646/1/332 636/1/351
f 637/1/177 646/1/332 647/1/173
f 642/1/343 369/1/140 632/1/352
f 641/1/344 632/1/352 631/1/353
f 640/1/345 631/1/353 630/1/354
f 639/1/346 630/1/354 629/1/355
f 638/1/176 629/1/355 628/1/356
f 462/1/357 633/1/348 623/1/358
f 624/1/359 633/1/348 634/1/349
f 625/1/360 634/1/349 635/1/350
f 626/1/361 635/1/350 636/1/351
f 626/1/361 637/1/177 627/1/178
f 632/1/352 368/1/141 622/1/362
f 632/1/352 621/1/363 631/1/353
f 631/1/353 620/1/364 630/1/354
f 629/1/355 620/1/364 619/1/365
f 628/1/356 619/1/365 618/1/179
f 613/1/366 462/1/357 623/1/358
f 613/1/366 624/1/359 614/1/367
f 614/1/367 625/1/360 615/1/368
f 615/1/368 626/1/361 616/1/369
f 616/1/369 627/1/178 617/1/180
f 622/1/362 478/1/142 612/1/370
f 621/1/363 612/1/370 611/1/371
f 621/1/363 610/1/372 620/1/364
f 619/1/365 610/1/372 609/1/373
f 618/1/179 609/1/373 608/1/181
f 460/1/374 613/1/366 603/1/375
f 603/1/375 614/1/367 604/1/376
f 605/1/377 614/1/367 615/1/368
f 605/1/377 616/1/369 606/1/378
f 607/1/182 616/1/369 617/1/180
f 612/1/370 477/1/143 602/1/379
f 611/1/371 602/1/379 601/1/380
f 611/1/371 600/1/381 610/1/372
f 609/1/373 600/1/381 599/1/382
f 608/1/181 599/1/382 598/1/184
f 459/1/383 603/1/375 593/1/384
f 594/1/385 603/1/375 604/1/376
f 594/1/385 605/1/377 595/1/386
f 595/1/386 606/1/378 596/1/387
f 597/1/183 606/1/378 607/1/182
f 477/1/143 592/1/388 602/1/379
f 602/1/379 591/1/389 601/1/380
f 601/1/380 590/1/390 600/1/381
f 599/1/382 590/1/390 589/1/391
f 598/1/184 589/1/391 588/1/186
f 583/1/392 459/1/383 593/1/384
f 584/1/393 593/1/384 594/1/385
f 584/1/393 595/1/386 585/1/394
f 586/1/395 595/1/386 596/1/387
f 586/1/395 597/1/183 587/1/185
f 367/1/144 582/1/396 592/1/388
f 591/1/389 582/1/396 581/1/397
f 590/1/390 581/1/397 580/1/398
f 589/1/391 580/1/398 579/1/399
f 588/1/186 579/1/399 578/1/188
f 457/1/400 583/1/392 573/1/401
f 573/1/401 584/1/393 574/1/402
f 574/1/402 585/1/394 575/1/403
f 576/1/404 585/1/394 586/1/395
f 576/1/404 587/1/185 577/1/187
f 366/1/145 572/1/333 582/1/396
f 582/1/396 571/1/334 581/1/397
f 581/1/397 570/1/335 580/1/398
f 580/1/398 569/1/336 579/1/399
f 579/1/399 568/1/337 578/1/188
f 563/1/339 457/1/400 573/1/401
f 564/1/340 573/1/401 574/1/402
f 564/1/340 575/1/403 565/1/341
f 566/1/342 575/1/403 576/1/404
f 566/1/342 577/1/187 567/1/174
f 469/1/198 732/1/146 733/1/146
f 470/1/210 733/1/146 734/1/146
f 471/1/219 734/1/146 735/1/146
f 736/1/146 471/1/219 735/1/146
f 737/1/146 448/1/229 736/1/146
f 450/1/270 737/1/146 738/1/146
f 452/1/405 739/1/146 740/1/146
f 739/1/146 450/1/270 738/1/146
f 468/1/406 731/1/146 732/1/146
f 453/1/284 740/1/146 741/1/146
f 467/1/275 730/1/146 731/1/146
f 454/1/302 741/1/146 742/1/146
f 466/1/293 729/1/146 730/1/146
f 743/1/146 454/1/302 742/1/146
f 729/1/146 464/1/407 728/1/146
f 456/1/408 743/1/146 744/1/146
f 728/1/146 463/1/347 727/1/146
f 727/1/146 462/1/357 726/1/146
f 726/1/146 461/1/409 725/1/146
f 461/1/409 724/1/146 725/1/146
f 460/1/374 723/1/146 724/1/146
f 723/1/146 458/1/410 746/1/146
f 746/1/146 457/1/400 745/1/146
f 745/1/146 456/1/408 744/1/146
f 407/1/146 400/1/146 399/1/146
f 408/1/146 401/1/146 400/1/146
f 409/1/146 402/1/146 401/1/146
f 403/1/146 402/1/146 409/1/146
f 404/1/146 403/1/146 410/1/146
f 405/1/146 404/1/146 411/1/146
f 414/1/146 407/1/146 406/1/146
f 415/1/146 408/1/146 407/1/146
f 416/1/146 409/1/146 408/1/146
f 410/1/146 409/1/146 416/1/146
f 411/1/146 410/1/146 417/1/146
f 412/1/146 411/1/146 418/1/146
f 421/1/146 414/1/146 413/1/146
f 422/1/146 415/1/146 414/1/146
f 416/1/146 415/1/146 422/1/146
f 424/1/146 417/1/146 416/1/146
f 418/1/146 417/1/146 424/1/146
f 419/1/146 418/1/146 425/1/146
f 421/1/146 420/1/146 427/1/146
f 422/1/146 421/1/146 428/1/146
f 430/1/146 423/1/146 422/1/146
f 424/1/146 423/1/146 430/1/146
f 432/1/146 425/1/146 424/1/146
f 433/1/146 426/1/146 425/1/146
f 428/1/146 427/1/146 434/1/146
f 429/1/146 428/1/146 435/1/146
f 430/1/146 429/1/146 436/1/146
f 438/1/146 431/1/146 430/1/146
f 439/1/146 432/1/146 431/1/146
f 440/1/146 433/1/146 432/1/146
f 435/1/146 434/1/146 441/1/146
f 436/1/146 435/1/146 442/1/146
f 437/1/146 436/1/146 443/1/146
f 445/1/146 438/1/146 437/1/146
f 446/1/146 439/1/146 438/1/146
f 447/1/146 440/1/146 439/1/146
f 399/1/146 733/1/146 732/1/146
f 400/1/146 734/1/146 733/1/146
f 735/1/146 734/1/146 400/1/146
f 402/1/146 736/1/146 735/1/146
f 403/1/146 737/1/146 736/1/146
f 738/1/146 737/1/146 403/1/146
f 412/1/146 740/1/146 739/1/146
f 405/1/146 739/1/146 738/1/146
f 406/1/146 732/1/146 731/1/146
f 419/1/146 741/1/146 740/1/146
f 413/1/146 731/1/146 730/1/146
f 742/1/146 741/1/146 419/1/146
f 730/1/146 729/1/146 427/1/146
f 743/1/146 742/1/146 426/1/146
f 729/1/146 728/1/146 434/1/146
f 744/1/146 743/1/146 433/1/146
f 728/1/146 727/1/146 441/1/146
f 727/1/146 726/1/146 442/1/146
f 726/1/146 725/1/146 443/1/146
f 725/1/146 724/1/146 444/1/146
f 724/1/146 723/1/146 445/1/146
f 723/1/146 746/1/146 446/1/146
f 746/1/146 745/1/146 447/1/146
f 447/1/146 745/1/146 744/1/146
f 698/1/147 688/1/161 687/1/148
f 707/1/150 708/1/152 698/1/147
f 717/1/151 718/1/154 708/1/152
f 487/1/153 488/1/228 718/1/154
f 498/1/155 488/1/228 487/1/153
f 507/1/157 508/1/246 498/1/155
f 527/1/158 528/1/260 518/1/159
f 518/1/159 508/1/246 507/1/157
f 688/1/161 678/1/165 677/1/162
f 538/1/163 528/1/260 527/1/158
f 678/1/165 668/1/169 667/1/166
f 548/1/167 538/1/163 537/1/164
f 668/1/169 658/1/172 657/1/170
f 557/1/171 558/1/175 548/1/167
f 658/1/172 648/1/327 647/1/173
f 567/1/174 568/1/337 558/1/175
f 647/1/173 648/1/327 638/1/176
f 638/1/176 628/1/356 627/1/178
f 627/1/178 628/1/356 618/1/179
f 617/1/180 618/1/179 608/1/181
f 608/1/181 598/1/184 597/1/183
f 598/1/184 588/1/186 587/1/185
f 588/1/186 578/1/188 577/1/187
f 578/1/188 568/1/337 567/1/174
f 374/1/123 373/1/122 692/1/189
f 702/1/190 692/1/189 691/1/191
f 701/1/192 691/1/191 690/1/193
f 700/1/194 690/1/193 689/1/195
f 699/1/196 689/1/195 688/1/161
f 683/1/197 468/1/406 469/1/198
f 683/1/197 693/1/199 694/1/200
f 684/1/201 694/1/200 695/1/202
f 686/1/204 685/1/203 695/1/202
f 687/1/148 686/1/204 696/1/205
f 712/1/206 481/1/124 374/1/123
f 712/1/206 702/1/190 701/1/192
f 711/1/207 701/1/192 700/1/194
f 709/1/209 710/1/208 700/1/194
f 709/1/209 699/1/196 698/1/147
f 693/1/199 469/1/198 470/1/210
f 693/1/199 703/1/211 704/1/212
f 694/1/200 704/1/212 705/1/213
f 695/1/202 705/1/213 706/1/214
f 697/1/149 696/1/205 706/1/214
f 722/1/215 482/1/125 481/1/124
f 722/1/215 712/1/206 711/1/207
f 721/1/216 711/1/207 710/1/208
f 719/1/218 720/1/217 710/1/208
f 719/1/218 709/1/209 708/1/152
f 703/1/211 470/1/210 471/1/219
f 703/1/211 713/1/220 714/1/221
f 704/1/212 714/1/221 715/1/222
f 705/1/213 715/1/222 716/1/223
f 706/1/214 716/1/223 717/1/151
f 492/1/224 362/1/126 482/1/125
f 492/1/224 722/1/215 721/1/216
f 491/1/225 721/1/216 720/1/217
f 489/1/227 490/1/226 720/1/217
f 488/1/228 489/1/227 719/1/218
f 713/1/220 471/1/219 448/1/229
f 713/1/220 483/1/230 484/1/231
f 714/1/221 484/1/231 485/1/232
f 715/1/222 485/1/232 486/1/233
f 716/1/223 486/1/233 487/1/153
f 363/1/127 362/1/126 492/1/224
f 501/1/235 502/1/234 492/1/224
f 501/1/235 491/1/225 490/1/226
f 500/1/236 490/1/226 489/1/227
f 499/1/237 489/1/227 488/1/228
f 448/1/229 449/1/247 493/1/238
f 483/1/230 493/1/238 494/1/239
f 484/1/231 494/1/239 495/1/240
f 485/1/232 495/1/240 496/1/241
f 486/1/233 496/1/241 497/1/156
f 472/1/128 363/1/127 502/1/234
f 511/1/243 512/1/242 502/1/234
f 510/1/244 511/1/243 501/1/235
f 509/1/245 510/1/244 500/1/236
f 509/1/245 499/1/237 498/1/155
f 449/1/247 450/1/270 503/1/248
f 494/1/239 493/1/238 503/1/248
f 494/1/239 504/1/249 505/1/250
f 495/1/240 505/1/250 506/1/251
f 497/1/156 496/1/241 506/1/251
f 532/1/252 473/1/129 364/1/130
f 531/1/254 532/1/252 522/1/253
f 531/1/254 521/1/255 520/1/256
f 529/1/258 530/1/257 520/1/256
f 528/1/260 529/1/258 519/1/259
f 451/1/261 452/1/405 523/1/262
f 514/1/264 513/1/263 523/1/262
f 514/1/264 524/1/265 525/1/266
f 516/1/268 515/1/267 525/1/266
f 516/1/268 526/1/269 527/1/158
f 364/1/130 472/1/128 512/1/242
f 521/1/255 522/1/253 512/1/242
f 521/1/255 511/1/243 510/1/244
f 519/1/259 520/1/256 510/1/244
f 519/1/259 509/1/245 508/1/246
f 450/1/270 451/1/261 513/1/263
f 504/1/249 503/1/248 513/1/263
f 504/1/249 514/1/264 515/1/267
f 506/1/251 505/1/250 515/1/267
f 507/1/157 506/1/251 516/1/268
f 373/1/122 372/1/131 682/1/271
f 691/1/191 692/1/189 682/1/271
f 690/1/193 691/1/191 681/1/272
f 689/1/195 690/1/193 680/1/273
f 688/1/161 689/1/195 679/1/274
f 467/1/275 468/1/406 683/1/197
f 674/1/277 673/1/276 683/1/197
f 675/1/278 674/1/277 684/1/201
f 675/1/278 685/1/203 686/1/204
f 676/1/279 686/1/204 687/1/148
f 542/1/280 474/1/132 473/1/129
f 541/1/281 542/1/280 532/1/252
f 541/1/281 531/1/254 530/1/257
f 540/1/282 530/1/257 529/1/258
f 538/1/163 539/1/283 529/1/258
f 523/1/262 452/1/405 453/1/284
f 523/1/262 533/1/285 534/1/286
f 524/1/265 534/1/286 535/1/287
f 526/1/269 525/1/266 535/1/287
f 526/1/269 536/1/288 537/1/164
f 372/1/131 480/1/133 672/1/289
f 682/1/271 672/1/289 671/1/290
f 680/1/273 681/1/272 671/1/290
f 679/1/274 680/1/273 670/1/291
f 679/1/274 669/1/292 668/1/169
f 466/1/293 467/1/275 673/1/276
f 663/1/294 673/1/276 674/1/277
f 665/1/296 664/1/295 674/1/277
f 665/1/296 675/1/278 676/1/279
f 666/1/297 676/1/279 677/1/162
f 475/1/134 474/1/132 542/1/280
f 552/1/298 542/1/280 541/1/281
f 551/1/299 541/1/281 540/1/282
f 550/1/300 540/1/282 539/1/283
f 548/1/167 549/1/301 539/1/283
f 533/1/285 453/1/284 454/1/302
f 534/1/286 533/1/285 543/1/303
f 534/1/286 544/1/304 545/1/305
f 535/1/287 545/1/305 546/1/306
f 537/1/164 536/1/288 546/1/306
f 480/1/133 371/1/135 662/1/307
f 671/1/290 672/1/289 662/1/307
f 670/1/291 671/1/290 661/1/308
f 670/1/291 660/1/309 659/1/310
f 669/1/292 659/1/310 658/1/172
f 653/1/311 465/1/329 466/1/293
f 653/1/311 663/1/294 664/1/295
f 655/1/313 654/1/312 664/1/295
f 655/1/313 665/1/296 666/1/297
f 657/1/170 656/1/314 666/1/297
f 562/1/315 365/1/136 475/1/134
f 562/1/315 552/1/298 551/1/299
f 561/1/316 551/1/299 550/1/300
f 560/1/317 550/1/300 549/1/301
f 558/1/175 559/1/318 549/1/301
f 454/1/302 455/1/338 553/1/319
f 544/1/304 543/1/303 553/1/319
f 545/1/305 544/1/304 554/1/320
f 546/1/306 545/1/305 555/1/321
f 546/1/306 556/1/322 557/1/171
f 371/1/135 479/1/137 652/1/323
f 662/1/307 652/1/323 651/1/324
f 661/1/308 651/1/324 650/1/325
f 659/1/310 660/1/309 650/1/325
f 659/1/310 649/1/326 648/1/327
f 643/1/328 464/1/407 465/1/329
f 643/1/328 653/1/311 654/1/312
f 644/1/330 654/1/312 655/1/313
f 645/1/331 655/1/313 656/1/314
f 646/1/332 656/1/314 657/1/170
f 572/1/333 476/1/138 365/1/136
f 572/1/333 562/1/315 561/1/316
f 571/1/334 561/1/316 560/1/317
f 570/1/335 560/1/317 559/1/318
f 569/1/336 559/1/318 558/1/175
f 455/1/338 456/1/408 563/1/339
f 554/1/320 553/1/319 563/1/339
f 554/1/320 564/1/340 565/1/341
f 555/1/321 565/1/341 566/1/342
f 556/1/322 566/1/342 567/1/174
f 479/1/137 370/1/139 642/1/343
f 652/1/323 642/1/343 641/1/344
f 650/1/325 651/1/324 641/1/344
f 649/1/326 650/1/325 640/1/345
f 648/1/327 649/1/326 639/1/346
f 463/1/347 464/1/407 643/1/328
f 633/1/348 643/1/328 644/1/330
f 635/1/350 634/1/349 644/1/330
f 635/1/350 645/1/331 646/1/332
f 637/1/177 636/1/351 646/1/332
f 642/1/343 370/1/139 369/1/140
f 641/1/344 642/1/343 632/1/352
f 640/1/345 641/1/344 631/1/353
f 639/1/346 640/1/345 630/1/354
f 638/1/176 639/1/346 629/1/355
f 462/1/357 463/1/347 633/1/348
f 624/1/359 623/1/358 633/1/348
f 625/1/360 624/1/359 634/1/349
f 626/1/361 625/1/360 635/1/350
f 626/1/361 636/1/351 637/1/177
f 632/1/352 369/1/140 368/1/141
f 632/1/352 622/1/362 621/1/363
f 631/1/353 621/1/363 620/1/364
f 629/1/355 630/1/354 620/1/364
f 628/1/356 629/1/355 619/1/365
f 613/1/366 461/1/409 462/1/357
f 613/1/366 623/1/358 624/1/359
f 614/1/367 624/1/359 625/1/360
f 615/1/368 625/1/360 626/1/361
f 616/1/369 626/1/361 627/1/178
f 622/1/362 368/1/141 478/1/142
f 621/1/363 622/1/362 612/1/370
f 621/1/363 611/1/371 610/1/372
f 619/1/365 620/1/364 610/1/372
f 618/1/179 619/1/365 609/1/373
f 460/1/374 461/1/409 613/1/366
f 603/1/375 613/1/366 614/1/367
f 605/1/377 604/1/376 614/1/367
f 605/1/377 615/1/368 616/1/369
f 607/1/182 606/1/378 616/1/369
f 612/1/370 478/1/142 477/1/143
f 611/1/371 612/1/370 602/1/379
f 611/1/371 601/1/380 600/1/381
f 609/1/373 610/1/372 600/1/381
f 608/1/181 609/1/373 599/1/382
f 459/1/383 460/1/374 603/1/375
f 594/1/385 593/1/384 603/1/375
f 594/1/385 604/1/376 605/1/377
f 595/1/386 605/1/377 606/1/378
f 597/1/183 596/1/387 606/1/378
f 477/1/143 367/1/144 592/1/388
f 602/1/379 592/1/388 591/1/389
f 601/1/380 591/1/389 590/1/390
f 599/1/382 600/1/381 590/1/390
f 598/1/184 599/1/382 589/1/391
f 583/1/392 458/1/410 459/1/383
f 584/1/393 583/1/392 593/1/384
f 584/1/393 594/1/385 595/1/386
f 586/1/395 585/1/394 595/1/386
f 586/1/395 596/1/387 597/1/183
f 367/1/144 366/1/145 582/1/396
f 591/1/389 592/1/388 582/1/396
f 590/1/390 591/1/389 581/1/397
f 589/1/391 590/1/390 580/1/398
f 588/1/186 589/1/391 579/1/399
f 457/1/400 458/1/410 583/1/392
f 573/1/401 583/1/392 584/1/393
f 574/1/402 584/1/393 585/1/394
f 576/1/404 575/1/403 585/1/394
f 576/1/404 586/1/395 587/1/185
f 366/1/145 476/1/138 572/1/333
f 582/1/396 572/1/333 571/1/334
f 581/1/397 571/1/334 570/1/335
f 580/1/398 570/1/335 569/1/336
f 579/1/399 569/1/336 568/1/337
f 563/1/339 456/1/408 457/1/400
f 564/1/340 563/1/339 573/1/401
f 564/1/340 574/1/402 575/1/403
f 566/1/342 565/1/341 575/1/403
f 566/1/342 576/1/404 577/1/187
f 469/1/198 468/1/406 732/1/146
f 470/1/210 469/1/198 733/1/146
f 471/1/219 470/1/210 734/1/146
f 736/1/146 448/1/229 471/1/219
f 737/1/146 449/1/247 448/1/229
f 450/1/270 449/1/247 737/1/146
f 452/1/405 451/1/261 739/1/146
f 739/1/146 451/1/261 450/1/270
f 468/1/406 467/1/275 731/1/146
f 453/1/284 452/1/405 740/1/146
f 467/1/275 466/1/293 730/1/146
f 454/1/302 453/1/284 741/1/146
f 466/1/293 465/1/329 729/1/146
f 743/1/146 455/1/338 454/1/302
f 729/1/146 465/1/329 464/1/407
f 456/1/408 455/1/338 743/1/146
f 728/1/146 464/1/407 463/1/347
f 727/1/146 463/1/347 462/1/357
f 726/1/146 462/1/357 461/1/409
f 461/1/409 460/1/374 724/1/146
f 460/1/374 459/1/383 723/1/146
f 723/1/146 459/1/383 458/1/410
f 746/1/146 458/1/410 457/1/400
f 745/1/146 457/1/400 456/1/408
