# https://github.com/mikedh/trimesh
v -0.00272189 0.05926391 0.02172814
v -0.00066699 0.05917054 0.02078179
v -0.00081377 0.05917054 0.02078179
v -0.00272189 0.05908754 0.02087999
v -0.00767784 0.05856361 0.01989569
v -0.00668492 0.05899935 0.02172814
v -0.00272189 0.05650421 0.02172814
v 0.05883890 0.00626933 0.02078179
v 0.05879573 0.00683475 0.02078179
v 0.05853671 0.00866591 0.02078179
v 0.05770785 0.01284696 0.02078179
v 0.05731068 0.01475593 0.02078179
v 0.05693942 0.01617728 0.02078179
v 0.05543709 0.02060214 0.02078179
v 0.05497085 0.02191974 0.02078179
v 0.05460822 0.02280160 0.02078179
v 0.05382252 0.02451345 0.02078179
v 0.05310590 0.02596592 0.02078179
v 0.05188849 0.02841957 0.02078179
v 0.05118050 0.02975792 0.02078179
v 0.05061065 0.03065016 0.02078179
v 0.04941916 0.03245537 0.02078179
v 0.04844351 0.03390266 0.02078179
v 0.04730381 0.03556263 0.02078179
v 0.04660445 0.03644968 0.02078179
v 0.04556837 0.03768947 0.02078179
v 0.04293498 0.04067742 0.02078179
v 0.04189889 0.04176159 0.02078179
v 0.04082827 0.04279388 0.02078179
v 0.03784089 0.04542909 0.02078179
v 0.03661486 0.04647176 0.02078179
v 0.03572555 0.04717725 0.02078179
v 0.03424912 0.04819916 0.02078179
v 0.03254822 0.04934039 0.02078179
v 0.03083004 0.05048682 0.02078179
v 0.02993210 0.05106780 0.02078179
v 0.02855065 0.05181479 0.02078179
v 0.02615038 0.05300789 0.02078179
v 0.02465669 0.05374451 0.02078179
v 0.02305939 0.05450187 0.02078179
v 0.02217008 0.05487018 0.02078179
v 0.02075410 0.05538372 0.02078179
v 0.01701555 0.05664946 0.02078179
v 0.01658385 0.05678433 0.02078179
v 0.01490021 0.05727194 0.02078179
v 0.01299209 0.05767657 0.02078179
v 0.00974568 0.05833536 0.02078179
v 0.00904632 0.05847542 0.02078179
v 0.00723317 0.05874517 0.02078179
v 0.00708639 0.05876592 0.02078179
v 0.00703459 0.05877110 0.02078179
v 0.00517827 0.05890598 0.02078179
v 0.00113753 0.05916016 0.02078179
v -0.00081377 0.05878148 0.01954750
v 0.00113753 0.05878148 0.01955420
v -0.00277370 0.05872442 0.01963455
v -0.00472499 0.05866217 0.01973499
v -0.00472499 0.05792556 0.01875738
v -0.00668492 0.05785293 0.01886229
v -0.00668492 0.05687770 0.01765256
v -0.00863622 0.05674283 0.01779987
v -0.00975001 0.05663389 0.01792040
v -0.01253881 0.05635377 0.01822841
v -0.01253881 0.05710076 0.01920378
v -0.01449010 0.05690364 0.01945599
v -0.01585429 0.05673764 0.01970374
v -0.01449010 0.05740163 0.02087999
v -0.01253881 0.05780106 0.02087999
v -0.01247837 0.05798781 0.02172814
v -0.00852397 0.05877110 0.02172814
v -0.00273053 0.05296121 0.02172814
v 0.05867486 0.00626933 0.02002291
v 0.05865759 0.00683475 0.02012335
v -0.02936658 0.04405961 0.02172814
v 0.05209571 0.00626933 0.02078179
v 0.05681854 0.01581416 0.01979971
v 0.05484997 0.02161369 0.01981980
v 0.05296775 0.02562874 0.01972829
v 0.05289005 0.02596592 0.02002738
v 0.05101645 0.02949855 0.01971713
v 0.04885794 0.03307268 0.02021933
v 0.04713113 0.03532920 0.01971490
v 0.04530935 0.03740416 0.01958322
v 0.04343576 0.03944800 0.01950286
v 0.04157080 0.04142959 0.01943367
v 0.03960224 0.04329706 0.01949840
v 0.03754733 0.04517490 0.01957652
v 0.03549243 0.04700087 0.01969258
v 0.03323894 0.04873347 0.02015014
v 0.02966444 0.05090181 0.01969035
v 0.02581366 0.05284190 0.01969258
v 0.02184199 0.05474049 0.01976847
v 0.01703282 0.05653015 0.02030414
v 0.01735228 0.05646789 0.02048939
v 0.01703282 0.05664427 0.02077509
v 0.01605717 0.05670133 0.01975285
v 0.00780302 0.05854286 0.01997158
v 0.00708639 0.05875555 0.02072375
v 0.00650791 0.05859992 0.01983543
v 0.00308883 0.05871404 0.01965017
v -0.00081377 0.05804487 0.01857213
v -0.00272189 0.05799299 0.01865695
v -0.00272189 0.05870886 0.01960554
v 0.00504012 0.05791518 0.01877524
v 0.00113753 0.05803968 0.01857660
v -0.00472499 0.05695033 0.01757221
v -0.00472499 0.04736399 0.00692346
v -0.00576108 0.04490516 0.00428081
v -0.00863622 0.05487536 0.01575538
v -0.00608054 0.04301694 0.00225641
v -0.01253881 0.05449149 0.01618169
v -0.01253881 0.05538372 0.01715929
v -0.01449010 0.05517104 0.01740035
v -0.01449010 0.05614628 0.01848062
v -0.01643277 0.05488573 0.01771059
v -0.01884167 0.05447593 0.01814136
v -0.02034399 0.05422175 0.01844044
v -0.02034399 0.05499467 0.01942028
v -0.02163047 0.05477161 0.01972160
v -0.01714939 0.05650421 0.02033093
v -0.01647594 0.05686733 0.02094025
v -0.01645867 0.05704370 0.02172814
v -0.01533624 0.05734976 0.02172814
v -0.01449010 0.05757800 0.02172814
v 0.05831223 0.00626933 0.01946492
v 0.05744019 0.00888897 0.01875292
v 0.05734522 0.01074087 0.01908548
v 0.05715527 0.01269653 0.01931091
v 0.05695668 0.01464699 0.01958991
v -0.02936658 0.05157617 0.02172814
v -0.02936658 0.01921710 0.00618468
v 0.03531975 0.00626933 0.00665340
v 0.05619689 0.01464699 0.01861231
v 0.05500539 0.01620322 0.01774407
v 0.05459959 0.01855311 0.01816591
v 0.05503992 0.02049839 0.01954974
v 0.05426286 0.02049839 0.01857436
v 0.05380525 0.02241255 0.01894041
v 0.05326131 0.02440451 0.01936448
v 0.05244971 0.02440451 0.01838911
v 0.05131001 0.02831582 0.01934886
v 0.05048114 0.02831582 0.01837125
v 0.04987676 0.03019885 0.01894264
v 0.04929828 0.03178101 0.01946715
v 0.04662172 0.03415685 0.01830653
v 0.04522301 0.03536551 0.01778648
v 0.04591373 0.03599837 0.01899621
v 0.04871116 0.03089915 0.01816591
v 0.04466179 0.03666236 0.01828198
v 0.04278820 0.03870620 0.01820162
v 0.04217519 0.04009643 0.01881765
v 0.04088871 0.04075004 0.01813020
v 0.04024116 0.04204171 0.01881542
v 0.03885107 0.04264863 0.01819716
v 0.03680481 0.04452129 0.01827528
v 0.03613998 0.04578183 0.01898505
v 0.03462902 0.04638357 0.01839134
v 0.03105452 0.04858303 0.01815029
v 0.03193520 0.04917440 0.01945153
v 0.03036380 0.04974501 0.01892032
v 0.02975078 0.04901877 0.01774630
v 0.02844704 0.05037269 0.01833331
v 0.02844704 0.05120787 0.01931091
v 0.02455308 0.05233872 0.01834224
v 0.02455308 0.05315314 0.01931761
v 0.02210101 0.05291452 0.01772175
v 0.02065049 0.05416987 0.01850740
v 0.02065049 0.05494280 0.01948278
v 0.02261905 0.05368745 0.01890246
v 0.01905319 0.05443962 0.01817484
v 0.01479660 0.05609959 0.01853865
v 0.01479660 0.05686214 0.01951402
v 0.00708639 0.05797224 0.01908102
v 0.01284531 0.05706964 0.01923949
v 0.00894271 0.05756244 0.01892701
v 0.00504012 0.05864661 0.01975061
v 0.00113753 0.05706445 0.01744052
v -0.00081377 0.05706964 0.01743829
v -0.00277370 0.05701257 0.01750078
v 0.00504012 0.05693476 0.01758337
v 0.00698278 0.05685695 0.01767488
v -0.00272189 0.05516067 0.01543844
v -0.00433646 0.04738993 0.00692346
v -0.00472499 0.04587002 0.00526511
v -0.00472499 0.04220252 0.00120292
v -0.00472499 0.04122210 0.00013157
v -0.00863622 0.04678819 0.00692346
v -0.01239203 0.05170067 0.01310157
v -0.00668492 0.04108722 0.00028112
v -0.01317773 0.05068393 0.01216860
v -0.01449010 0.05425806 0.01642051
v -0.01337631 0.04876459 0.01018215
v -0.01449010 0.05048163 0.01237841
v -0.01449010 0.04858822 0.01036740
v -0.02034399 0.05324651 0.01737803
v -0.02189812 0.05295602 0.01768604
v -0.02241617 0.05372894 0.01884889
v -0.02034399 0.05554454 0.02087999
v -0.02424658 0.05322576 0.01923503
v -0.02561940 0.05289896 0.01963232
v -0.02293421 0.05450706 0.02051618
v -0.02228666 0.05488573 0.02105408
v -0.01755519 0.05665464 0.02162993
v -0.01707169 0.05683620 0.02172814
v 0.05794960 0.00626933 0.01897835
v 0.05786326 0.00683475 0.01892701
v 0.05684444 0.00830798 0.01784451
v 0.05661132 0.01074087 0.01811011
v 0.05641274 0.01269653 0.01833331
v -0.02936658 0.05140498 0.02091570
v -0.02814918 0.05224016 0.02172814
v -0.02936658 0.01921710 -0.00107369
v 0.04694118 0.00626933 0.00665340
v 0.05522124 0.01464699 0.01750078
v 0.05242381 0.01464699 0.01450101
v 0.05144816 0.01464699 0.01345645
v 0.05053295 0.01464699 0.01248108
v 0.04500715 0.01464699 0.00665340
v 0.04435096 0.01659746 0.00665340
v 0.05347716 0.01837155 0.01691378
v 0.05328721 0.02049839 0.01748293
v 0.05302819 0.02189899 0.01775746
v 0.05274327 0.02320103 0.01805654
v 0.05079197 0.02714346 0.01804762
v 0.04951413 0.02831582 0.01739365
v 0.04913423 0.02959711 0.01776192
v 0.04696709 0.03316086 0.01796503
v 0.04336668 0.03740416 0.01771952
v 0.04565471 0.03415685 0.01738695
v 0.04295225 0.03300005 0.01415952
v 0.03936048 0.03144902 0.00999689
v 0.04792546 0.03020922 0.01701198
v 0.04130315 0.02562874 0.00804392
v 0.04670806 0.03082134 0.01625981
v 0.04619002 0.03248650 0.01681110
v 0.04148446 0.03944800 0.01765256
v 0.03711563 0.03696842 0.01218199
v 0.03959360 0.04135178 0.01764809
v 0.03813445 0.04190165 0.01702984
v 0.03754733 0.04321925 0.01771282
v 0.03550106 0.04508153 0.01778201
v 0.03411098 0.04579221 0.01748516
v 0.03332528 0.04684525 0.01794941
v 0.03325621 0.04484291 0.01604554
v 0.02844704 0.04939227 0.01736463
v 0.02691018 0.03894482 0.00665340
v 0.02455308 0.04051142 0.00665340
v 0.02729871 0.04674150 0.01413943
v 0.02733325 0.04872309 0.01607232
v 0.02733325 0.05067356 0.01802307
v 0.02340475 0.05261884 0.01803423
v 0.02210964 0.05098481 0.01575984
v 0.01942445 0.04675188 0.01024241
v 0.01934675 0.04868678 0.01221324
v 0.02065049 0.05319464 0.01743159
v 0.01774945 0.05466267 0.01794272
v 0.01673927 0.05483386 0.01776192
v 0.01479660 0.05512954 0.01744275
v 0.01284531 0.05632265 0.01826189
v 0.00894271 0.05671171 0.01783335
v 0.00996153 0.05661314 0.01794272
v 0.01125664 0.05648346 0.01808556
v 0.00504012 0.05508286 0.01552102
v 0.00105982 0.04735881 0.00665340
v 0.00018778 0.04879572 0.00819123
v 0.00012735 0.04879572 0.00819123
v -0.00117640 0.04876459 0.00823140
v 0.00698278 0.05596990 0.01669727
v 0.00504012 0.04709425 0.00665340
v -0.00272189 0.04724987 0.00665340
v -0.00272189 0.04227514 0.00112926
v -0.00277370 0.04129991 0.00005792
v -0.00472499 0.04001343 -0.00059605
v -0.00668492 0.04001343 -0.00044651
v -0.00843764 0.04013274 -0.00017198
v -0.00863622 0.04366018 0.00351078
v -0.00896431 0.04085898 0.00052663
v -0.01058751 0.04443829 0.00478747
v -0.01058751 0.03969700 -0.00020769
v -0.01058751 0.04345787 0.00372282
v -0.01058751 0.04255526 0.00274744
v -0.01058751 0.04158521 0.00170065
v -0.01058751 0.04067223 0.00072305
v -0.01253881 0.04228552 0.00303090
v -0.01521537 0.03896039 0.00047530
v -0.01253881 0.04038692 0.00102883
v -0.01392026 0.03917826 0.00024317
v -0.01923884 0.04679856 0.01019330
v -0.02190676 0.05102630 0.01571297
v -0.02320187 0.05267071 0.01798066
v -0.02119013 0.05542523 0.02172814
v -0.02034399 0.05572610 0.02172814
v -0.02424658 0.05241653 0.01825966
v -0.02814918 0.05128567 0.01921940
v -0.02936658 0.05097962 0.01958768
v -0.02691451 0.05256178 0.02047824
v -0.02406527 0.05410762 0.02105408
v -0.02326230 0.05465230 0.02172814
v -0.02228666 0.05502579 0.02172814
v 0.05731932 0.00626933 0.01816591
v 0.05693942 0.00683475 0.01774407
v 0.05605874 0.00888897 0.01710573
v 0.05605874 0.00683475 0.01676870
v 0.04687211 0.00683475 0.00665340
v 0.04843487 0.00879041 0.00875815
v 0.05544572 0.01269653 0.01725527
v -0.02797650 0.05216753 0.02102953
v -0.02726851 0.05268108 0.02172814
v -0.02936658 0.02245405 -0.00107369
v -0.00272189 0.01921710 -0.00107369
v 0.05049841 0.00626933 0.01058167
v -0.00272189 0.03806296 -0.00107369
v 0.05076607 0.01303890 0.01223779
v 0.04884931 0.01326714 0.01025134
v 0.04692391 0.01343833 0.00826265
v 0.04545613 0.01326714 0.00665340
v 0.04369478 0.01830412 0.00665340
v 0.04687211 0.01920154 0.01026473
v 0.04879751 0.01910298 0.01224895
v 0.05110279 0.02191456 0.01578663
v 0.04916013 0.02191456 0.01383365
v 0.05079197 0.02321141 0.01610580
v 0.04884067 0.02321141 0.01415282
v 0.04721747 0.02582586 0.01382696
v 0.04884067 0.02713828 0.01609910
v 0.04687211 0.02712790 0.01415282
v 0.03618315 0.03052566 0.00665340
v 0.03469810 0.03222194 0.00665340
v 0.04496398 0.03308305 0.01605893
v 0.03911873 0.02920806 0.00824703
v 0.03756460 0.02886569 0.00665340
v 0.03648534 0.03016772 0.00665340
v 0.04069876 0.02424370 0.00665340
v 0.04059515 0.02440451 0.00665340
v 0.04053471 0.02449789 0.00665340
v 0.03957633 0.02596592 0.00665340
v 0.04328898 0.02570655 0.00995002
v 0.03726241 0.03907451 0.01402337
v 0.03359294 0.03344617 0.00665340
v 0.03348933 0.03527732 0.00807740
v 0.03158984 0.03923013 0.00999020
v 0.03446498 0.04208321 0.01449208
v 0.03315260 0.04280944 0.01415729
v 0.02936225 0.03900189 0.00823140
v 0.02737642 0.03862320 0.00665340
v -0.00272189 0.04001343 -0.00067640
v 0.02314573 0.04135697 0.00665340
v 0.02210964 0.04903953 0.01380687
v 0.01945036 0.04480141 0.00828943
v 0.01852651 0.04360312 0.00665340
v 0.01703282 0.04418930 0.00665340
v 0.01673927 0.04429823 0.00665340
v 0.01417495 0.04516972 0.00665340
v 0.01479660 0.05043494 0.01242974
v 0.01479660 0.05135311 0.01340511
v 0.01479660 0.05232834 0.01444298
v 0.01337198 0.05064762 0.01220208
v 0.01284531 0.05258252 0.01417291
v 0.01284531 0.05535260 0.01719054
v 0.00894271 0.05582466 0.01685574
v 0.00345146 0.04720318 0.00665340
v -0.00272189 0.04129991 0.00005569
v -0.00074469 0.04736399 0.00665340
v 0.00698278 0.04685044 0.00665340
v 0.00650791 0.04691269 0.00665340
v -0.00863622 0.03806296 -0.00104021
v -0.01058751 0.03806296 -0.00093531
v -0.01253881 0.03806296 -0.00070542
v -0.01453328 0.03820821 -0.00026349
v -0.01253881 0.03940650 0.00002221
v -0.01643277 0.03771541 -0.00015189
v -0.01796963 0.03736266 0.00012488
v -0.01643277 0.03869583 0.00073644
v -0.01796963 0.04125322 0.00401520
v -0.02034399 0.04653919 0.01044998
v -0.02245070 0.04196908 0.00692346
v -0.02582662 0.04909659 0.01570405
v -0.02582662 0.05104705 0.01765256
v -0.02713036 0.05072543 0.01797620
v -0.02814918 0.05045569 0.01824403
v -0.02936658 0.05091737 0.01951402
v -0.02624105 0.05303383 0.02102953
v -0.02338318 0.05459524 0.02172814
v 0.05695668 0.00626933 0.01771952
v 0.05510037 0.00626933 0.01566387
v 0.04650085 0.00879041 0.00665340
v 0.04636270 0.01074087 0.00692570
v -0.02936658 0.02440451 -0.00105807
v -0.02814918 0.02636017 -0.00106253
v -0.02814918 0.02440451 -0.00107369
v -0.00472499 0.03806296 -0.00107369
v 0.03803084 0.02822763 0.00665340
v 0.03904102 0.02675960 0.00665340
v 0.04144129 0.02296241 0.00665340
v 0.04179529 0.02226211 0.00665340
v 0.04265869 0.02049839 0.00665340
v 0.04335805 0.01904073 0.00665340
v 0.04566334 0.01258759 0.00665340
v 0.04600007 0.01122330 0.00665340
v 0.04611231 0.01074087 0.00665340
v 0.04710523 0.01214148 0.00807293
v 0.04492081 0.01924304 0.00831399
v 0.04656992 0.02049839 0.01056381
v 0.03241870 0.03451478 0.00665340
v 0.03051921 0.03617993 0.00665340
v 0.03034653 0.03633037 0.00665340
v 0.02900825 0.03744566 0.00665340
v 0.02837797 0.03791772 0.00665340
v -0.00668492 0.03806296 -0.00106923
v 0.01922587 0.04327112 0.00665340
v 0.02076273 0.04253451 0.00665340
v 0.02065049 0.04646138 0.01052587
v 0.01350149 0.04539277 0.00665340
v 0.01291438 0.04557952 0.00665340
v 0.01357057 0.04873347 0.01021563
v 0.01241360 0.04699569 0.00802829
v 0.01089401 0.04608270 0.00665340
v 0.01089401 0.04627464 0.00686097
v 0.00894271 0.04647694 0.00665340
v -0.01449010 0.03611250 -0.00104914
v -0.01643277 0.03611250 -0.00087951
v -0.01853084 0.03627850 -0.00033714
v -0.02034399 0.03578050 -0.00013180
v -0.01926474 0.03704104 0.00043512
v -0.01796963 0.03931313 0.00206669
v -0.02034399 0.03775172 0.00167610
v -0.02713036 0.04876978 0.01602322
v -0.02814918 0.04948046 0.01727982
v -0.02936658 0.04913808 0.01763024
v -0.02936658 0.05006663 0.01861007
v -0.02711309 0.04681413 0.01407694
v -0.02936658 0.02636017 -0.00087728
v -0.02814918 0.02831063 -0.00081702
v -0.02619788 0.02831063 -0.00106253
v -0.02034399 0.03221675 -0.00107369
v -0.01253881 0.03611250 -0.00107369
v -0.01839270 0.03416203 -0.00105137
v -0.02034399 0.03416203 -0.00085942
v -0.02232983 0.03425022 -0.00027018
v -0.02169954 0.03539145 0.00015612
v -0.02034399 0.03675574 0.00070296
v -0.02319323 0.04094716 0.00627843
v -0.02936658 0.04899284 0.01749186
v -0.02936658 0.04702681 0.01565718
v -0.02177725 0.03736785 0.00205776
v -0.02314143 0.03897076 0.00435893
v -0.02239026 0.03617993 0.00130559
v -0.02936658 0.02824838 -0.00033714
v -0.02804557 0.03019885 -0.00006484
v -0.02619788 0.03026629 -0.00075452
v -0.02229529 0.03221675 -0.00099557
v -0.02424658 0.03026629 -0.00104914
v -0.02424658 0.03221675 -0.00063176
v -0.02424658 0.03356548 0.00007577
v -0.02527404 0.03322830 0.00035254
v -0.02300328 0.03496089 0.00055118
v -0.02936658 0.04120135 0.01026473
v -0.02936658 0.02946224 0.00020523
v -0.02732894 0.03137120 0.00027888
v -0.02603384 0.03210263 0.00002667
v -0.02934068 0.02949855 0.00021192
v -0.02656914 0.03267324 0.00082125
v -0.02747572 0.03344617 0.00212473
v -0.02936658 0.03689580 0.00640342
v -0.02905575 0.03703067 0.00629405
v -0.02916800 0.03906932 0.00816891
v -0.02936658 0.03928201 0.00850370
v -0.02936658 0.02951930 0.00024317
v -0.02862405 0.03080059 0.00075429
v -0.02936658 0.03144383 0.00183010
v -0.02936658 0.03225306 0.00250640
v -0.02936658 0.03735229 0.00680071
v -0.02936658 0.03878920 0.00806400
f 1 2 3
f 1 3 4
f 1 4 5
f 1 5 6
f 1 6 70
f 1 70 69
f 1 69 124
f 1 124 123
f 1 123 122
f 1 122 204
f 1 204 292
f 1 292 291
f 1 291 299
f 1 299 298
f 1 298 383
f 1 383 308
f 1 308 211
f 1 211 130
f 1 130 74
f 1 74 71
f 1 71 7
f 1 7 8
f 1 8 9
f 1 9 10
f 1 10 11
f 1 11 12
f 1 12 13
f 1 13 14
f 1 14 15
f 1 15 16
f 1 16 17
f 1 17 18
f 1 18 19
f 1 19 20
f 1 20 21
f 1 21 22
f 1 22 23
f 1 23 24
f 1 24 25
f 1 25 26
f 1 26 27
f 1 27 28
f 1 28 29
f 1 29 30
f 1 30 31
f 1 31 32
f 1 32 33
f 1 33 34
f 1 34 35
f 1 35 36
f 1 36 37
f 1 37 38
f 1 38 39
f 1 39 40
f 1 40 41
f 1 41 42
f 1 42 43
f 1 43 44
f 1 44 45
f 1 45 46
f 1 46 47
f 1 47 48
f 1 48 49
f 1 49 50
f 1 50 51
f 1 51 52
f 1 52 53
f 1 53 2
f 2 54 3
f 2 53 55
f 2 55 54
f 3 54 56
f 3 56 57
f 3 57 5
f 3 5 4
f 5 57 58
f 5 58 59
f 5 59 60
f 5 60 61
f 5 61 62
f 5 62 63
f 5 63 64
f 5 64 65
f 5 65 66
f 5 66 67
f 5 67 68
f 5 68 69
f 5 69 70
f 5 70 6
f 7 71 8
f 8 72 73
f 8 73 9
f 8 71 74
f 8 74 75
f 8 75 132
f 8 132 213
f 8 213 311
f 8 311 385
f 8 385 384
f 8 384 300
f 8 300 205
f 8 205 125
f 8 125 72
f 9 73 10
f 10 73 76
f 10 76 11
f 11 76 12
f 12 76 13
f 13 76 14
f 14 76 77
f 14 77 15
f 15 77 16
f 16 77 17
f 17 77 78
f 17 78 79
f 17 79 18
f 18 79 19
f 19 80 20
f 19 79 78
f 19 78 80
f 20 80 21
f 21 80 81
f 21 81 22
f 22 81 23
f 23 81 24
f 24 82 25
f 24 81 82
f 25 82 26
f 26 83 27
f 26 82 83
f 27 84 85
f 27 85 28
f 27 83 84
f 28 85 29
f 29 86 87
f 29 87 30
f 29 85 86
f 30 87 88
f 30 88 31
f 31 88 32
f 32 88 89
f 32 89 33
f 33 89 34
f 34 89 35
f 35 89 36
f 36 89 90
f 36 90 37
f 37 90 91
f 37 91 38
f 38 91 39
f 39 91 40
f 40 91 92
f 40 92 41
f 41 92 42
f 42 92 93
f 42 93 94
f 42 94 95
f 42 95 43
f 43 95 44
f 44 96 45
f 44 95 96
f 45 96 97
f 45 97 46
f 46 97 47
f 47 97 48
f 48 97 49
f 49 97 50
f 50 97 98
f 50 98 51
f 51 98 52
f 52 99 53
f 52 98 97
f 52 97 99
f 53 99 100
f 53 100 55
f 54 55 101
f 54 101 102
f 54 102 103
f 54 103 56
f 55 100 104
f 55 104 105
f 55 105 101
f 56 103 57
f 57 103 58
f 58 60 59
f 58 103 102
f 58 102 60
f 60 102 106
f 60 106 107
f 60 107 108
f 60 108 61
f 61 109 62
f 61 108 110
f 61 110 109
f 62 109 111
f 62 111 112
f 62 112 63
f 63 112 113
f 63 113 114
f 63 114 65
f 63 65 64
f 65 114 66
f 66 114 115
f 66 115 116
f 66 116 117
f 66 117 118
f 66 118 119
f 66 119 120
f 66 120 121
f 66 121 67
f 67 121 122
f 67 122 123
f 67 123 124
f 67 124 68
f 68 124 69
f 72 125 73
f 73 125 126
f 73 126 127
f 73 127 128
f 73 128 129
f 73 129 76
f 74 130 210
f 74 210 295
f 74 295 381
f 74 381 430
f 74 430 429
f 74 429 443
f 74 443 444
f 74 444 457
f 74 457 467
f 74 467 473
f 74 473 472
f 74 472 464
f 74 464 471
f 74 471 470
f 74 470 468
f 74 468 458
f 74 458 448
f 74 448 432
f 74 432 388
f 74 388 309
f 74 309 212
f 74 212 131
f 74 131 75
f 75 131 132
f 76 129 133
f 76 133 134
f 76 134 135
f 76 135 136
f 76 136 77
f 77 137 138
f 77 138 139
f 77 139 78
f 77 136 137
f 78 139 140
f 78 140 141
f 78 141 80
f 80 141 142
f 80 142 143
f 80 143 144
f 80 144 82
f 80 82 81
f 82 145 146
f 82 146 147
f 82 147 83
f 82 144 148
f 82 148 145
f 83 147 149
f 83 149 150
f 83 150 84
f 84 150 151
f 84 151 85
f 85 151 152
f 85 152 153
f 85 153 86
f 86 153 154
f 86 154 155
f 86 155 87
f 87 155 156
f 87 156 88
f 88 157 158
f 88 158 159
f 88 159 90
f 88 90 89
f 88 156 157
f 90 160 161
f 90 161 162
f 90 162 163
f 90 163 91
f 90 159 160
f 91 164 165
f 91 165 92
f 91 163 164
f 92 166 167
f 92 167 168
f 92 168 96
f 92 96 93
f 92 165 169
f 92 169 166
f 93 96 95
f 93 95 94
f 96 168 167
f 96 167 170
f 96 170 171
f 96 171 172
f 96 172 97
f 97 173 99
f 97 172 174
f 97 174 175
f 97 175 173
f 99 104 176
f 99 176 100
f 99 173 104
f 100 176 104
f 101 105 177
f 101 177 178
f 101 178 179
f 101 179 106
f 101 106 102
f 104 180 105
f 104 173 181
f 104 181 180
f 105 180 177
f 106 179 182
f 106 182 183
f 106 183 107
f 107 184 108
f 107 183 184
f 108 184 185
f 108 185 186
f 108 186 110
f 109 110 187
f 109 187 188
f 109 188 111
f 110 186 189
f 110 189 187
f 111 188 190
f 111 190 113
f 111 113 112
f 113 190 191
f 113 191 115
f 113 115 114
f 115 191 190
f 115 190 192
f 115 192 193
f 115 193 194
f 115 194 195
f 115 195 116
f 116 195 117
f 117 195 196
f 117 196 197
f 117 197 119
f 117 119 118
f 119 198 120
f 119 197 199
f 119 199 200
f 119 200 201
f 119 201 202
f 119 202 198
f 120 198 121
f 121 198 203
f 121 203 122
f 122 203 204
f 125 205 206
f 125 206 126
f 126 128 127
f 126 206 207
f 126 207 208
f 126 208 128
f 128 208 209
f 128 209 129
f 129 209 133
f 130 211 210
f 131 212 132
f 132 212 310
f 132 310 213
f 133 209 214
f 133 214 134
f 134 214 215
f 134 215 216
f 134 216 217
f 134 217 218
f 134 218 219
f 134 219 220
f 134 220 221
f 134 221 135
f 135 221 222
f 135 222 137
f 135 137 136
f 137 222 138
f 138 222 223
f 138 223 139
f 139 223 140
f 140 224 142
f 140 142 141
f 140 223 224
f 142 224 225
f 142 225 226
f 142 226 143
f 143 226 148
f 143 148 144
f 145 148 227
f 145 227 146
f 146 228 150
f 146 150 149
f 146 149 147
f 146 227 229
f 146 229 230
f 146 230 231
f 146 231 228
f 148 226 232
f 148 232 233
f 148 233 234
f 148 234 235
f 148 235 227
f 150 236 152
f 150 152 151
f 150 228 236
f 152 237 238
f 152 238 154
f 152 154 153
f 152 236 237
f 154 238 239
f 154 239 240
f 154 240 241
f 154 241 155
f 155 241 156
f 156 241 157
f 157 242 243
f 157 243 158
f 157 241 242
f 158 161 160
f 158 160 159
f 158 243 244
f 158 244 161
f 161 245 162
f 161 244 246
f 161 246 247
f 161 247 248
f 161 248 249
f 161 249 245
f 162 245 249
f 162 249 250
f 162 250 163
f 163 250 164
f 164 251 165
f 164 250 251
f 165 251 169
f 166 252 253
f 166 253 254
f 166 254 255
f 166 255 167
f 166 169 251
f 166 251 252
f 167 255 170
f 170 255 256
f 170 256 171
f 171 256 257
f 171 257 258
f 171 258 259
f 171 259 172
f 172 259 174
f 173 175 260
f 173 260 181
f 174 259 175
f 175 261 260
f 175 259 262
f 175 262 261
f 177 180 263
f 177 263 264
f 177 264 265
f 177 265 178
f 178 265 266
f 178 266 267
f 178 267 182
f 178 182 179
f 180 181 263
f 181 260 360
f 181 360 268
f 181 268 269
f 181 269 263
f 182 267 270
f 182 270 183
f 183 270 271
f 183 271 184
f 184 271 185
f 185 271 272
f 185 272 186
f 186 273 274
f 186 274 275
f 186 275 189
f 186 272 273
f 187 189 276
f 187 276 188
f 188 276 277
f 188 277 278
f 188 278 190
f 189 275 279
f 189 279 277
f 189 277 276
f 190 278 280
f 190 280 281
f 190 281 282
f 190 282 283
f 190 283 192
f 192 283 284
f 192 284 194
f 192 194 193
f 194 285 195
f 194 284 286
f 194 286 287
f 194 287 285
f 195 285 288
f 195 288 196
f 196 289 290
f 196 290 197
f 196 288 289
f 197 290 199
f 198 202 291
f 198 291 292
f 198 292 203
f 199 293 200
f 199 290 293
f 200 293 294
f 200 294 295
f 200 295 296
f 200 296 201
f 201 297 298
f 201 298 202
f 201 296 297
f 202 298 299
f 202 299 291
f 203 292 204
f 205 300 206
f 206 300 301
f 206 301 207
f 207 302 208
f 207 301 303
f 207 303 304
f 207 304 305
f 207 305 302
f 208 302 306
f 208 306 209
f 209 306 214
f 210 211 307
f 210 307 296
f 210 296 295
f 211 308 307
f 212 309 390
f 212 390 435
f 212 435 436
f 212 436 391
f 212 391 312
f 212 312 310
f 213 304 303
f 213 303 311
f 213 310 312
f 213 312 304
f 214 306 313
f 214 313 215
f 215 313 314
f 215 314 216
f 216 314 217
f 217 314 315
f 217 315 316
f 217 316 218
f 218 316 312
f 218 312 219
f 219 312 317
f 219 317 318
f 219 318 319
f 219 319 221
f 219 221 220
f 221 319 318
f 221 318 222
f 222 318 320
f 222 320 223
f 223 320 321
f 223 321 322
f 223 322 224
f 224 322 323
f 224 323 324
f 224 324 325
f 224 325 225
f 225 325 326
f 225 326 226
f 226 326 233
f 226 233 232
f 227 235 229
f 228 231 327
f 228 327 328
f 228 328 236
f 229 235 329
f 229 329 230
f 230 329 330
f 230 330 331
f 230 331 231
f 231 331 332
f 231 332 327
f 233 333 334
f 233 334 335
f 233 335 336
f 233 336 234
f 233 326 337
f 233 337 333
f 234 336 235
f 235 336 330
f 235 330 329
f 236 328 237
f 237 338 238
f 237 328 339
f 237 339 340
f 237 340 338
f 238 338 239
f 239 241 240
f 239 338 341
f 239 341 342
f 239 342 241
f 241 342 341
f 241 341 343
f 241 343 244
f 241 244 242
f 242 244 243
f 244 343 344
f 244 344 246
f 246 345 346
f 246 346 247
f 246 344 345
f 247 347 248
f 247 346 347
f 248 347 249
f 249 347 348
f 249 348 250
f 250 348 251
f 251 348 252
f 252 348 349
f 252 349 253
f 253 349 350
f 253 350 351
f 253 351 254
f 254 351 352
f 254 352 255
f 255 352 353
f 255 353 257
f 255 257 256
f 257 353 354
f 257 354 355
f 257 355 356
f 257 356 258
f 258 356 357
f 258 357 358
f 258 358 359
f 258 359 259
f 259 359 262
f 260 261 360
f 261 262 359
f 261 359 360
f 263 269 361
f 263 361 264
f 264 362 265
f 264 361 362
f 265 362 266
f 266 362 271
f 266 271 363
f 266 363 267
f 267 363 271
f 267 271 270
f 268 364 365
f 268 365 269
f 268 360 364
f 269 365 362
f 269 362 361
f 271 362 272
f 272 362 273
f 273 366 367
f 273 367 274
f 273 362 346
f 273 346 366
f 274 367 279
f 274 279 275
f 277 279 283
f 277 283 282
f 277 282 281
f 277 281 280
f 277 280 278
f 279 367 368
f 279 368 369
f 279 369 370
f 279 370 283
f 283 370 286
f 283 286 284
f 285 371 372
f 285 372 373
f 285 373 288
f 285 287 371
f 286 370 287
f 287 370 371
f 288 373 374
f 288 374 375
f 288 375 289
f 289 375 290
f 290 375 376
f 290 376 377
f 290 377 378
f 290 378 379
f 290 379 293
f 293 379 380
f 293 380 294
f 294 380 381
f 294 381 295
f 296 307 382
f 296 382 297
f 297 383 298
f 297 382 383
f 300 384 301
f 301 384 303
f 302 305 306
f 303 384 385
f 303 385 311
f 304 312 386
f 304 386 305
f 305 386 387
f 305 387 306
f 306 387 313
f 307 308 382
f 308 383 382
f 309 388 389
f 309 389 390
f 312 391 346
f 312 346 327
f 312 327 332
f 312 332 331
f 312 331 392
f 312 392 393
f 312 393 336
f 312 336 335
f 312 335 334
f 312 334 333
f 312 333 394
f 312 394 395
f 312 395 396
f 312 396 397
f 312 397 317
f 312 316 398
f 312 398 399
f 312 399 400
f 312 400 386
f 313 387 400
f 313 400 399
f 313 399 401
f 313 401 398
f 313 398 314
f 314 398 315
f 315 398 316
f 317 397 402
f 317 402 318
f 318 402 320
f 320 402 321
f 321 402 403
f 321 403 396
f 321 396 395
f 321 395 323
f 321 323 322
f 323 395 324
f 324 395 394
f 324 394 325
f 325 394 326
f 326 394 333
f 326 333 337
f 327 346 328
f 328 346 339
f 330 336 393
f 330 393 392
f 330 392 331
f 338 340 404
f 338 404 341
f 339 346 404
f 339 404 340
f 341 404 405
f 341 405 406
f 341 406 407
f 341 407 344
f 341 344 343
f 344 407 408
f 344 408 345
f 345 408 346
f 346 391 409
f 346 409 366
f 346 362 350
f 346 350 410
f 346 410 411
f 346 411 347
f 346 408 407
f 346 407 406
f 346 406 405
f 346 405 404
f 347 411 348
f 348 411 412
f 348 412 349
f 349 410 350
f 349 412 411
f 349 411 410
f 350 362 351
f 351 362 352
f 352 362 353
f 353 362 413
f 353 413 354
f 354 413 414
f 354 414 415
f 354 415 355
f 355 415 356
f 356 415 357
f 357 414 416
f 357 416 417
f 357 417 418
f 357 418 358
f 357 415 414
f 358 418 359
f 359 418 419
f 359 419 360
f 360 419 364
f 362 365 364
f 362 364 419
f 362 419 417
f 362 417 414
f 362 414 413
f 366 409 420
f 366 420 367
f 367 420 421
f 367 421 368
f 368 421 371
f 368 371 369
f 369 371 370
f 371 421 422
f 371 422 423
f 371 423 372
f 372 424 425
f 372 425 373
f 372 423 424
f 373 425 374
f 374 425 375
f 375 425 424
f 375 424 376
f 376 424 426
f 376 426 427
f 376 427 377
f 377 427 379
f 377 379 378
f 379 427 380
f 380 428 429
f 380 429 430
f 380 430 381
f 380 427 431
f 380 431 428
f 386 400 387
f 388 432 389
f 389 432 433
f 389 433 434
f 389 434 435
f 389 435 390
f 391 436 409
f 396 403 397
f 397 403 402
f 398 401 399
f 409 436 420
f 414 417 416
f 417 419 418
f 420 437 421
f 420 436 437
f 421 437 438
f 421 438 422
f 422 438 423
f 423 438 439
f 423 439 440
f 423 440 424
f 424 440 441
f 424 441 426
f 426 441 442
f 426 442 427
f 427 442 431
f 428 431 429
f 429 431 443
f 431 444 443
f 431 442 445
f 431 445 446
f 431 446 447
f 431 447 444
f 432 448 433
f 433 448 449
f 433 449 450
f 433 450 451
f 433 451 452
f 433 452 434
f 434 452 435
f 435 452 437
f 435 437 436
f 437 452 451
f 437 451 438
f 438 451 453
f 438 453 439
f 439 453 454
f 439 454 440
f 440 445 441
f 440 454 455
f 440 455 456
f 440 456 447
f 440 447 446
f 440 446 445
f 441 445 442
f 444 447 456
f 444 456 457
f 448 458 449
f 449 459 460
f 449 460 453
f 449 453 450
f 449 458 461
f 449 461 459
f 450 453 451
f 453 460 454
f 454 460 455
f 455 460 459
f 455 459 462
f 455 462 463
f 455 463 464
f 455 464 465
f 455 465 466
f 455 466 457
f 455 457 456
f 457 466 467
f 458 468 461
f 459 461 468
f 459 468 469
f 459 469 470
f 459 470 471
f 459 471 463
f 459 463 462
f 463 471 464
f 464 472 465
f 465 472 473
f 465 473 466
f 466 473 467
f 468 470 469

