# https://github.com/mikedh/trimesh
v 0.02656180 0.04533451 0.02079492
v 0.02656180 0.04680362 0.05197914
v 0.02656180 0.04535506 0.02078271
v 0.05230612 0.00431748 0.02078271
v 0.02656180 0.05247974 0.05197914
v 0.05349687 0.00537052 0.05197914
v 0.02656180 0.05280850 0.02078271
v 0.05896657 0.00431748 0.02078271
v 0.05582538 0.00431748 0.04308987
v 0.02679854 0.05236674 0.05197914
v 0.02656180 0.05620390 0.04242111
v 0.05859203 0.00537052 0.05197914
v 0.02656180 0.05282905 0.02084378
v 0.02845924 0.05189929 0.02088348
v 0.02856171 0.05181196 0.02078271
v 0.05909731 0.00431748 0.02142398
v 0.05892770 0.00494930 0.02078271
v 0.06177208 0.00431748 0.04308987
v 0.02857937 0.05147807 0.05197914
v 0.02906345 0.05251570 0.04871475
v 0.02928252 0.05458582 0.04314178
v 0.02980193 0.05483238 0.04183786
v 0.02656180 0.05621931 0.04237225
v 0.06040819 0.00683450 0.04651305
v 0.05848956 0.00683450 0.05197914
v 0.06183215 0.00431748 0.04291886
v 0.06203002 0.00431748 0.04235393
v 0.06186395 0.00683963 0.04235393
v 0.02656180 0.05283931 0.02088348
v 0.02840271 0.05234619 0.02272485
v 0.02902458 0.05250029 0.02478914
v 0.02996800 0.05108255 0.02088348
v 0.02994326 0.05106714 0.02078271
v 0.06265897 0.00431748 0.03921474
v 0.05889943 0.00537566 0.02078271
v 0.02967472 0.05089762 0.05197914
v 0.02956166 0.05277254 0.04741388
v 0.03016587 0.05501730 0.04040263
v 0.02846277 0.05585973 0.04040263
v 0.02656180 0.05679462 0.04040263
v 0.03043440 0.05426734 0.04243333
v 0.03114462 0.05452931 0.04040263
v 0.05871217 0.00782075 0.05114243
v 0.05847190 0.00706051 0.05197914
v 0.06251056 0.00431748 0.04053699
v 0.06236923 0.00683963 0.04040263
v 0.06213602 0.00879160 0.04040263
v 0.06162722 0.00879160 0.04235393
v 0.06069793 0.00801595 0.04539235
v 0.02656180 0.05291637 0.02122549
v 0.02656180 0.05316807 0.02234619
v 0.02831790 0.05417488 0.03072550
v 0.02930725 0.05263898 0.02605031
v 0.03013053 0.05499676 0.03844827
v 0.03110575 0.05450877 0.03844827
v 0.03140609 0.05271603 0.03157137
v 0.03094675 0.05045072 0.02088348
v 0.03084075 0.05049182 0.02078271
v 0.06265190 0.00446645 0.03923917
v 0.06265897 0.00431748 0.03967280
v 0.05999478 0.00683963 0.02674045
v 0.06233743 0.00683963 0.03844827
v 0.05879697 0.00683963 0.02078271
v 0.03131775 0.05266467 0.04518775
v 0.03052628 0.05034799 0.05197914
v 0.02717661 0.05645559 0.03844827
v 0.02656180 0.05675353 0.03844827
v 0.03173469 0.05293178 0.04388383
v 0.03237777 0.05318348 0.04226232
v 0.03344839 0.05277254 0.04154471
v 0.03236717 0.05375366 0.04040263
v 0.03236717 0.05371770 0.03844827
v 0.06057780 0.00932069 0.04505033
v 0.06100181 0.01074357 0.04308987
v 0.05828109 0.00860154 0.05192418
v 0.05825989 0.00860668 0.05197914
v 0.06265190 0.00446645 0.03964837
v 0.06210422 0.00879160 0.03844827
v 0.06177562 0.01074357 0.04040263
v 0.06065200 0.01557726 0.04133095
v 0.06125974 0.01074357 0.04235393
v 0.06078273 0.01427766 0.04171877
v 0.02656180 0.05328108 0.02285311
v 0.03416214 0.05207908 0.03657942
v 0.03348726 0.04889942 0.02145757
v 0.03144496 0.05078975 0.02365623
v 0.03121175 0.05063051 0.02235536
v 0.03250498 0.04940283 0.02084073
v 0.03256151 0.04934632 0.02078271
v 0.06074386 0.00825738 0.03121715
v 0.05853903 0.00866318 0.02078271
v 0.05878637 0.00821115 0.02147284
v 0.03419747 0.04789262 0.05197914
v 0.03563203 0.05097467 0.04235393
v 0.03660725 0.05032231 0.04235393
v 0.03705952 0.05063051 0.04040263
v 0.03364626 0.05290609 0.04040263
v 0.03361799 0.05288555 0.03844827
v 0.06089934 0.01255685 0.04236004
v 0.06037286 0.01389240 0.04308987
v 0.05744721 0.01269554 0.05197914
v 0.06078980 0.01074357 0.04368534
v 0.05780762 0.01088226 0.05197914
v 0.06174028 0.01074357 0.03844827
v 0.06076507 0.01597793 0.03892159
v 0.06076507 0.01597793 0.04002397
v 0.06138694 0.01269554 0.04040263
v 0.05999478 0.01659434 0.04235393
v 0.05888883 0.01617826 0.04578627
v 0.05865563 0.01535124 0.04708714
v 0.06044706 0.01481188 0.04236004
v 0.06093467 0.01481188 0.04056753
v 0.06048240 0.01661489 0.04056753
v 0.05989939 0.01854631 0.04040263
v 0.05871923 0.02149481 0.04140118
v 0.03605250 0.05126233 0.03844827
v 0.03702772 0.05060996 0.03844827
v 0.03525396 0.04877614 0.02587015
v 0.03413387 0.04829842 0.02078271
v 0.05852843 0.00883269 0.02084684
v 0.05771222 0.01284451 0.02078271
v 0.05777582 0.01269554 0.02088348
v 0.05865916 0.00951588 0.02210801
v 0.03549776 0.04699882 0.05197914
v 0.03717966 0.04875046 0.04517859
v 0.03754006 0.04902784 0.04387772
v 0.03794994 0.04934632 0.04235393
v 0.03919016 0.04879669 0.04135538
v 0.03935269 0.04893538 0.03890327
v 0.03841281 0.04956206 0.04058585
v 0.03935269 0.04893538 0.04005451
v 0.05904784 0.01467833 0.04636647
v 0.05741894 0.01283423 0.05197914
v 0.06016439 0.01269554 0.03259741
v 0.06135161 0.01269554 0.03844827
v 0.06092054 0.01474511 0.03833834
v 0.06063080 0.01546425 0.03762072
v 0.05866623 0.01541288 0.02791917
v 0.05880050 0.01590088 0.02922615
v 0.06045766 0.01661489 0.03833834
v 0.05986405 0.01854631 0.03844827
v 0.05883230 0.02183383 0.03884220
v 0.05924571 0.01872096 0.04253104
v 0.05868037 0.01747786 0.04519996
v 0.05849663 0.01673303 0.04636647
v 0.05687833 0.01597793 0.05146918
v 0.05678646 0.01563890 0.05197914
v 0.05705500 0.01454477 0.05197914
v 0.05847896 0.02273790 0.04040263
v 0.05781115 0.02440222 0.04040263
v 0.05715040 0.02475151 0.04223178
v 0.05722461 0.02446386 0.04237836
v 0.05817155 0.02227046 0.04217071
v 0.05723521 0.02257353 0.04443349
v 0.05884997 0.01928087 0.04308987
v 0.03704892 0.05059455 0.03844827
v 0.03725386 0.04880696 0.03158359
v 0.03575923 0.04719916 0.02088348
v 0.03573803 0.04718374 0.02078271
v 0.05732001 0.01475024 0.02078271
v 0.05736948 0.01464237 0.02088348
v 0.05817509 0.01269554 0.02283784
v 0.03634577 0.04632077 0.05197914
v 0.03725032 0.04685499 0.04920334
v 0.04021484 0.04748681 0.04225621
v 0.04123600 0.04692177 0.04153860
v 0.04347617 0.04523691 0.04040263
v 0.04237375 0.04621290 0.04040263
v 0.04140206 0.04707074 0.04040263
v 0.04007704 0.04819569 0.04058585
v 0.04345496 0.04521637 0.03844827
v 0.04234901 0.04619235 0.03844827
v 0.04137733 0.04704505 0.03844827
v 0.03915836 0.04876587 0.03759629
v 0.03859301 0.04942337 0.03844827
v 0.06063080 0.01350201 0.03568774
v 0.05695607 0.01620395 0.02088348
v 0.05845776 0.01656866 0.02861846
v 0.05872630 0.01761656 0.03154694
v 0.05945418 0.01854631 0.03649391
v 0.05911498 0.02066779 0.03829559
v 0.05812915 0.02245025 0.03649391
v 0.05850016 0.02247079 0.03829559
v 0.05777228 0.02440222 0.03844827
v 0.05645079 0.01668680 0.05197914
v 0.05652146 0.01647619 0.05197914
v 0.05761328 0.02475665 0.03844827
v 0.05705147 0.02597406 0.03844827
v 0.05706560 0.02600488 0.04040263
v 0.05690307 0.02568127 0.04175236
v 0.05695607 0.02385772 0.04386856
v 0.05671226 0.02330295 0.04516943
v 0.05516817 0.02046232 0.05197914
v 0.05581832 0.01855144 0.05197914
v 0.03839161 0.04955179 0.03832612
v 0.03721852 0.04682931 0.02389441
v 0.03673798 0.04642350 0.02088348
v 0.03663198 0.04647487 0.02078271
v 0.05694194 0.01616799 0.02078271
v 0.03762486 0.04524205 0.05197914
v 0.04099572 0.04280723 0.05084928
v 0.04327123 0.04505199 0.04171266
v 0.04445492 0.04429689 0.04040263
v 0.04443372 0.04427120 0.03844827
v 0.04317230 0.04302297 0.02936661
v 0.04299209 0.04283805 0.02806575
v 0.04110879 0.04290996 0.02198892
v 0.04120066 0.04689609 0.03729703
v 0.05544024 0.02060101 0.02078271
v 0.05550031 0.02049828 0.02088348
v 0.05654266 0.01855658 0.02269737
v 0.05691367 0.01997433 0.02674045
v 0.05676173 0.02343650 0.03160496
v 0.05458163 0.02475665 0.02467005
v 0.05416822 0.02475665 0.02281341
v 0.05314000 0.02596893 0.02088348
v 0.05261353 0.02879928 0.02478914
v 0.05511164 0.02990368 0.03844827
v 0.05488550 0.02358547 0.02345774
v 0.05439082 0.02430462 0.02281646
v 0.05512224 0.02993964 0.04040263
v 0.05495616 0.02960062 0.04177373
v 0.05470529 0.02908694 0.04307765
v 0.05157471 0.02840889 0.05197914
v 0.05338027 0.02475151 0.05197914
v 0.05665220 0.02516245 0.04305322
v 0.05491023 0.02363684 0.04945069
v 0.05465936 0.02305638 0.05075156
v 0.05444383 0.02242456 0.05197914
v 0.05481483 0.02147940 0.05197914
v 0.03996751 0.04361883 0.02088348
v 0.03885449 0.04459482 0.02088348
v 0.03787927 0.04544752 0.02088348
v 0.03785454 0.04542697 0.02078271
v 0.04062472 0.04260689 0.05197914
v 0.04297442 0.04282264 0.04700469
v 0.04328889 0.04314112 0.04570382
v 0.04408038 0.04393218 0.04235393
v 0.04519340 0.04311543 0.04170044
v 0.04537713 0.04332090 0.04040263
v 0.04535593 0.04329522 0.03844827
v 0.04094272 0.04276100 0.02088348
v 0.04458212 0.04241169 0.03259741
v 0.04305569 0.04094772 0.02201335
v 0.04290376 0.04077307 0.02088348
v 0.04193561 0.04177987 0.02088348
v 0.05497736 0.02191089 0.02078271
v 0.05498796 0.02194171 0.02088348
v 0.05474063 0.02326699 0.02215687
v 0.05373361 0.02475665 0.02088348
v 0.05312587 0.02593811 0.02078271
v 0.05197752 0.02831129 0.02088348
v 0.05245099 0.02822396 0.02279509
v 0.05276546 0.02910749 0.02616330
v 0.05291033 0.02939515 0.02746417
v 0.05461696 0.03087453 0.03844827
v 0.05463816 0.03091049 0.04040263
v 0.05390675 0.02440222 0.02088348
v 0.05329547 0.03221009 0.04223789
v 0.05437316 0.03025812 0.04239668
v 0.05289973 0.02937460 0.04734976
v 0.05101643 0.02947220 0.05197914
v 0.05350747 0.02448954 0.05197914
v 0.05441909 0.02248107 0.05197914
v 0.03993924 0.04359829 0.02078271
v 0.04076605 0.04247333 0.05197914
v 0.04172007 0.04156413 0.05197914
v 0.04262109 0.04060869 0.05197914
v 0.04268822 0.04053678 0.05197914
v 0.04762437 0.04005906 0.04225011
v 0.04706610 0.04107100 0.04152638
v 0.04893526 0.03903171 0.04133095
v 0.04908013 0.03919608 0.04003008
v 0.04908013 0.03919608 0.03892159
v 0.04667035 0.04062410 0.03455177
v 0.04098512 0.04266339 0.02078271
v 0.04084379 0.04279695 0.02078271
v 0.04191087 0.04175419 0.02078271
v 0.04376237 0.03980222 0.02088348
v 0.04294262 0.04068574 0.02078271
v 0.05461696 0.02279441 0.02078271
v 0.05459223 0.02291769 0.02088348
v 0.05370888 0.02475665 0.02080103
v 0.05189625 0.02841402 0.02078271
v 0.05382548 0.02450495 0.02078271
v 0.05120017 0.02978040 0.02088348
v 0.05284673 0.03122383 0.03164161
v 0.05380428 0.03221523 0.03844827
v 0.05383961 0.03221009 0.04040263
v 0.05290680 0.03326826 0.04150806
v 0.05306227 0.03156286 0.04384413
v 0.05109063 0.02959548 0.05162186
v 0.05279373 0.03113651 0.04514805
v 0.05068783 0.02999101 0.05197914
v 0.04538067 0.03746500 0.05197914
v 0.04699896 0.03709001 0.04918807
v 0.04968787 0.03825606 0.04056753
v 0.04888580 0.03700269 0.04513889
v 0.04916140 0.03736740 0.04383802
v 0.04947234 0.03777834 0.04235393
v 0.05117190 0.03554385 0.04202413
v 0.05075496 0.03686913 0.04040263
v 0.05071609 0.03686399 0.03844827
v 0.04957127 0.03841016 0.03844827
v 0.04893879 0.03707974 0.03165382
v 0.04891053 0.03899575 0.03762072
v 0.04558914 0.03771670 0.02088348
v 0.04556794 0.03769101 0.02078271
v 0.05118603 0.02975472 0.02078271
v 0.05061716 0.03064338 0.02078271
v 0.05057829 0.03075125 0.02088348
v 0.05092103 0.03126493 0.02372646
v 0.05241566 0.03215358 0.03241419
v 0.05254639 0.03272890 0.03455177
v 0.05301280 0.03342750 0.03844827
v 0.05303400 0.03345319 0.04040263
v 0.05239092 0.03221009 0.04442127
v 0.05046169 0.03034545 0.05197914
v 0.04644775 0.03617567 0.05197914
v 0.04669509 0.03672530 0.05048894
v 0.04712616 0.03531783 0.05197914
v 0.04783284 0.03428534 0.05197914
v 0.05053589 0.03616026 0.04254631
v 0.05138390 0.03586746 0.03844827
v 0.05073376 0.03683831 0.03844827
v 0.04838052 0.03404391 0.02087737
v 0.04732403 0.03559008 0.02088348
v 0.04696716 0.03705919 0.02391579
v 0.04656435 0.03656093 0.02088348
v 0.04647248 0.03662770 0.02078271
v 0.04942640 0.03244638 0.02078271
v 0.04952180 0.03233851 0.02087737
v 0.04994228 0.03224091 0.05020495
v 0.04844765 0.03390522 0.02078271
v 0.04730990 0.03556439 0.02078271
v 0.04661382 0.03645819 0.02078271
f 1 2 5
f 1 5 11
f 1 11 23
f 1 23 40
f 1 40 67
f 1 67 83
f 1 83 51
f 1 51 50
f 1 50 29
f 1 29 13
f 1 13 7
f 1 7 3
f 1 3 4
f 1 4 2
f 2 4 6
f 2 6 12
f 2 12 25
f 2 25 44
f 2 44 76
f 2 76 103
f 2 103 101
f 2 101 133
f 2 133 148
f 2 148 147
f 2 147 186
f 2 186 185
f 2 185 194
f 2 194 193
f 2 193 230
f 2 230 229
f 2 229 264
f 2 264 263
f 2 263 225
f 2 225 224
f 2 224 262
f 2 262 294
f 2 294 318
f 2 318 322
f 2 322 321
f 2 321 319
f 2 319 295
f 2 295 269
f 2 269 268
f 2 268 267
f 2 267 266
f 2 266 235
f 2 235 200
f 2 200 163
f 2 163 124
f 2 124 93
f 2 93 65
f 2 65 36
f 2 36 19
f 2 19 10
f 2 10 5
f 3 7 15
f 3 15 33
f 3 33 58
f 3 58 89
f 3 89 119
f 3 119 159
f 3 159 198
f 3 198 234
f 3 234 265
f 3 265 277
f 3 277 276
f 3 276 278
f 3 278 280
f 3 280 308
f 3 308 330
f 3 330 336
f 3 336 335
f 3 335 334
f 3 334 331
f 3 331 310
f 3 310 309
f 3 309 284
f 3 284 251
f 3 251 285
f 3 285 281
f 3 281 247
f 3 247 209
f 3 209 199
f 3 199 160
f 3 160 121
f 3 121 91
f 3 91 63
f 3 63 35
f 3 35 17
f 3 17 8
f 3 8 4
f 4 8 16
f 4 16 34
f 4 34 60
f 4 60 45
f 4 45 27
f 4 27 26
f 4 26 18
f 4 18 9
f 4 9 6
f 5 10 11
f 6 9 18
f 6 18 12
f 7 13 14
f 7 14 15
f 8 17 16
f 10 19 20
f 10 20 21
f 10 21 11
f 11 21 22
f 11 22 23
f 12 24 25
f 12 18 26
f 12 26 27
f 12 27 28
f 12 28 24
f 13 29 14
f 14 30 31
f 14 31 32
f 14 32 33
f 14 33 15
f 14 29 30
f 16 17 34
f 17 35 34
f 19 36 37
f 19 37 20
f 20 37 21
f 21 37 22
f 22 38 39
f 22 39 40
f 22 40 23
f 22 37 41
f 22 41 42
f 22 42 38
f 24 28 43
f 24 43 25
f 25 43 44
f 27 45 28
f 28 46 47
f 28 47 48
f 28 48 49
f 28 49 43
f 28 45 46
f 29 50 30
f 30 50 51
f 30 51 52
f 30 52 31
f 31 53 32
f 31 52 54
f 31 54 55
f 31 55 53
f 32 53 55
f 32 55 56
f 32 56 57
f 32 57 58
f 32 58 33
f 34 59 77
f 34 77 60
f 34 35 61
f 34 61 62
f 34 62 59
f 35 63 61
f 36 64 41
f 36 41 37
f 36 65 64
f 38 54 39
f 38 42 54
f 39 54 66
f 39 66 40
f 40 66 67
f 41 68 69
f 41 69 42
f 41 64 68
f 42 69 70
f 42 70 71
f 42 71 72
f 42 72 55
f 42 55 54
f 43 49 48
f 43 48 73
f 43 73 74
f 43 74 75
f 43 75 76
f 43 76 44
f 45 60 46
f 46 59 47
f 46 60 77
f 46 77 59
f 47 59 78
f 47 78 79
f 47 79 80
f 47 80 48
f 48 81 74
f 48 74 73
f 48 80 82
f 48 82 81
f 51 83 52
f 52 83 66
f 52 66 54
f 55 72 56
f 56 84 85
f 56 85 86
f 56 86 87
f 56 87 57
f 56 72 84
f 57 87 85
f 57 85 88
f 57 88 58
f 58 88 89
f 59 62 78
f 61 63 90
f 61 90 62
f 62 90 78
f 63 91 92
f 63 92 90
f 64 70 69
f 64 69 68
f 64 65 70
f 65 93 94
f 65 94 70
f 66 83 67
f 70 94 95
f 70 95 96
f 70 96 97
f 70 97 71
f 71 97 72
f 72 97 98
f 72 98 84
f 74 81 99
f 74 99 100
f 74 100 101
f 74 101 102
f 74 102 75
f 75 102 101
f 75 101 103
f 75 103 76
f 78 104 79
f 78 90 92
f 78 92 104
f 79 104 105
f 79 105 106
f 79 106 107
f 79 107 80
f 80 108 109
f 80 109 110
f 80 110 111
f 80 111 82
f 80 107 112
f 80 112 106
f 80 106 113
f 80 113 114
f 80 114 115
f 80 115 108
f 81 82 99
f 82 111 100
f 82 100 99
f 84 98 116
f 84 116 117
f 84 117 85
f 85 118 119
f 85 119 88
f 85 87 86
f 85 117 118
f 88 119 89
f 91 120 92
f 91 121 120
f 92 120 122
f 92 122 123
f 92 123 104
f 93 124 125
f 93 125 95
f 93 95 94
f 95 125 126
f 95 126 127
f 95 127 128
f 95 128 96
f 96 129 117
f 96 117 116
f 96 116 98
f 96 98 97
f 96 128 130
f 96 130 131
f 96 131 129
f 100 111 110
f 100 110 132
f 100 132 101
f 101 132 110
f 101 110 133
f 104 123 134
f 104 134 135
f 104 135 105
f 105 135 136
f 105 136 137
f 105 137 138
f 105 138 139
f 105 139 140
f 105 140 141
f 105 141 142
f 105 142 106
f 106 142 114
f 106 114 113
f 106 112 107
f 108 143 109
f 108 115 143
f 109 143 144
f 109 144 145
f 109 145 146
f 109 146 110
f 110 146 147
f 110 147 148
f 110 148 133
f 114 142 149
f 114 149 115
f 115 149 150
f 115 150 151
f 115 151 152
f 115 152 153
f 115 153 154
f 115 154 155
f 115 155 143
f 117 129 156
f 117 156 157
f 117 157 118
f 118 157 119
f 119 157 158
f 119 158 159
f 120 121 122
f 121 160 122
f 122 160 161
f 122 161 138
f 122 138 162
f 122 162 123
f 123 162 134
f 124 163 125
f 125 128 126
f 125 163 164
f 125 164 128
f 126 128 127
f 128 131 130
f 128 164 165
f 128 165 166
f 128 166 167
f 128 167 168
f 128 168 169
f 128 169 170
f 128 170 131
f 129 167 171
f 129 171 172
f 129 172 173
f 129 173 174
f 129 174 157
f 129 157 175
f 129 175 156
f 129 131 167
f 131 170 169
f 131 169 168
f 131 168 167
f 134 162 138
f 134 138 137
f 134 137 136
f 134 136 176
f 134 176 135
f 135 176 136
f 138 161 160
f 138 160 177
f 138 177 139
f 139 177 178
f 139 178 141
f 139 141 140
f 141 178 179
f 141 179 180
f 141 180 181
f 141 181 142
f 142 181 182
f 142 182 183
f 142 183 184
f 142 184 150
f 142 150 149
f 143 155 185
f 143 185 146
f 143 146 144
f 144 146 145
f 146 185 186
f 146 186 147
f 150 184 187
f 150 187 188
f 150 188 189
f 150 189 190
f 150 190 151
f 151 190 191
f 151 191 152
f 152 191 153
f 153 192 154
f 153 191 192
f 154 192 193
f 154 193 194
f 154 194 155
f 155 194 185
f 156 175 195
f 156 195 157
f 157 195 175
f 157 174 196
f 157 196 158
f 158 196 197
f 158 197 159
f 159 197 198
f 160 199 177
f 163 200 164
f 164 200 165
f 165 200 201
f 165 201 202
f 165 202 166
f 166 202 167
f 167 203 171
f 167 202 203
f 171 203 204
f 171 204 205
f 171 205 206
f 171 206 207
f 171 207 172
f 172 208 173
f 172 207 208
f 173 208 174
f 174 208 196
f 177 199 209
f 177 209 210
f 177 210 211
f 177 211 179
f 177 179 178
f 179 211 180
f 180 211 181
f 181 211 212
f 181 212 182
f 182 213 183
f 182 212 210
f 182 210 213
f 183 213 184
f 184 213 187
f 187 213 188
f 188 214 215
f 188 215 216
f 188 216 217
f 188 217 218
f 188 218 189
f 188 213 219
f 188 219 220
f 188 220 214
f 189 218 221
f 189 221 190
f 190 221 222
f 190 222 223
f 190 223 224
f 190 224 225
f 190 225 226
f 190 226 191
f 191 227 192
f 191 226 227
f 192 228 229
f 192 229 230
f 192 230 193
f 192 227 228
f 196 208 231
f 196 231 232
f 196 232 233
f 196 233 197
f 197 233 198
f 198 233 234
f 200 235 201
f 201 235 236
f 201 236 202
f 202 236 237
f 202 237 238
f 202 238 239
f 202 239 203
f 203 240 241
f 203 241 204
f 203 239 240
f 204 241 205
f 205 241 206
f 206 242 207
f 206 241 243
f 206 243 244
f 206 244 245
f 206 245 246
f 206 246 242
f 207 242 231
f 207 231 208
f 209 247 210
f 210 247 213
f 210 212 211
f 213 247 248
f 213 248 249
f 213 249 219
f 214 220 215
f 215 220 216
f 216 220 250
f 216 250 251
f 216 251 252
f 216 252 253
f 216 253 217
f 217 253 252
f 217 252 254
f 217 254 218
f 218 254 255
f 218 255 256
f 218 256 257
f 218 257 221
f 219 249 258
f 219 258 220
f 220 258 250
f 221 257 222
f 222 257 259
f 222 259 260
f 222 260 261
f 222 261 223
f 223 261 224
f 224 261 262
f 225 263 227
f 225 227 226
f 227 263 228
f 228 264 229
f 228 263 264
f 231 265 234
f 231 234 232
f 231 242 265
f 232 234 233
f 235 266 236
f 236 266 267
f 236 267 268
f 236 268 269
f 236 269 239
f 236 239 237
f 237 239 238
f 239 269 270
f 239 270 271
f 239 271 240
f 240 271 272
f 240 272 273
f 240 273 274
f 240 274 241
f 241 274 275
f 241 275 243
f 242 276 277
f 242 277 265
f 242 246 278
f 242 278 276
f 243 275 279
f 243 279 244
f 244 279 245
f 245 280 246
f 245 279 280
f 246 280 278
f 247 281 282
f 247 282 248
f 248 282 249
f 249 282 258
f 250 283 251
f 250 258 283
f 251 284 252
f 251 283 285
f 252 284 286
f 252 286 254
f 254 286 255
f 255 286 256
f 256 287 288
f 256 288 257
f 256 286 287
f 257 288 289
f 257 289 290
f 257 290 259
f 258 282 281
f 258 281 285
f 258 285 283
f 259 291 260
f 259 290 291
f 260 292 261
f 260 291 293
f 260 293 292
f 261 292 262
f 262 292 294
f 269 295 270
f 270 272 271
f 270 295 296
f 270 296 272
f 272 297 273
f 272 296 298
f 272 298 299
f 272 299 300
f 272 300 301
f 272 301 302
f 272 302 297
f 273 297 302
f 273 302 274
f 274 302 303
f 274 303 304
f 274 304 305
f 274 305 306
f 274 306 275
f 275 306 307
f 275 307 279
f 279 307 308
f 279 308 280
f 284 309 286
f 286 309 310
f 286 310 311
f 286 311 287
f 287 311 312
f 287 312 313
f 287 313 314
f 287 314 315
f 287 315 288
f 288 315 316
f 288 316 289
f 289 316 290
f 290 317 291
f 290 316 302
f 290 302 301
f 290 301 317
f 291 317 318
f 291 318 293
f 292 293 318
f 292 318 294
f 295 319 320
f 295 320 296
f 296 320 321
f 296 321 298
f 298 321 322
f 298 322 301
f 298 301 323
f 298 323 299
f 299 323 300
f 300 323 301
f 301 322 317
f 302 316 315
f 302 315 324
f 302 324 325
f 302 325 303
f 303 325 305
f 303 305 304
f 305 325 324
f 305 324 326
f 305 326 327
f 305 327 328
f 305 328 306
f 306 328 307
f 307 328 329
f 307 329 330
f 307 330 308
f 310 331 311
f 311 331 332
f 311 332 312
f 312 332 314
f 312 314 313
f 314 332 324
f 314 324 315
f 317 322 333
f 317 333 318
f 318 333 322
f 319 321 320
f 324 332 326
f 326 332 331
f 326 331 334
f 326 334 327
f 327 335 336
f 327 336 329
f 327 329 328
f 327 334 335
f 329 336 330

