# https://github.com/mikedh/trimesh
v -0.00272390 0.05243062 0.02078271
v -0.03164213 0.04256906 0.02173236
v -0.00272390 0.05906164 0.02078271
v 0.02654185 0.04534515 0.02078271
v -0.03164213 0.04352143 0.05197477
v -0.03164213 0.05019394 0.02173236
v 0.02655894 0.04534318 0.02079187
v -0.01646519 0.05704230 0.02173236
v -0.01533717 0.05735251 0.02173236
v -0.01448831 0.05757973 0.02173236
v -0.01338878 0.05780499 0.02173236
v -0.01247726 0.05798874 0.02173236
v -0.00974267 0.05853803 0.02173236
v -0.00913878 0.05865461 0.02173236
v -0.00852350 0.05877316 0.02173236
v -0.00668335 0.05900038 0.02173236
v -0.00272390 0.05909128 0.02088348
v -0.00082679 0.05917623 0.02078271
v -0.03093570 0.05066221 0.02173236
v -0.03000708 0.05123917 0.02173236
v -0.02814984 0.05224884 0.02173236
v -0.02338141 0.05459815 0.02173236
v -0.02326177 0.05465545 0.02173236
v -0.02317062 0.05469299 0.02173236
v -0.02229327 0.05502889 0.02173236
v -0.02034488 0.05572834 0.02173236
v -0.01758181 0.05666688 0.02173236
v 0.02655894 0.04536294 0.02078271
v -0.03164213 0.04960315 0.05197477
v 0.02655894 0.04680927 0.05197782
v -0.00272390 0.05372086 0.05197782
v -0.03164213 0.05036979 0.02244690
v -0.03100406 0.05070569 0.02208352
v -0.01644810 0.05728138 0.02283775
v -0.01553087 0.05857952 0.02763183
v -0.01489280 0.05844714 0.02632796
v -0.01238610 0.05826931 0.02299959
v -0.01058583 0.06177253 0.03844447
v -0.00971418 0.06053563 0.03151901
v -0.01238610 0.05866646 0.02494165
v -0.00768034 0.06051983 0.02965329
v -0.00668335 0.06078657 0.03064264
v -0.00472927 0.05913079 0.02173236
v -0.00182947 0.06051785 0.02770817
v -0.00082679 0.05959907 0.02283775
v -0.00082679 0.05920588 0.02088348
v 0.00112730 0.05919600 0.02088348
v 0.00112730 0.05916438 0.02078271
v -0.03094709 0.05263018 0.02999834
v -0.03112940 0.05468706 0.03929946
v -0.02886767 0.05258276 0.02478897
v -0.02842900 0.05236344 0.02283775
v -0.02449803 0.05429782 0.02283775
v -0.02624702 0.05693757 0.03857272
v -0.02559756 0.05679334 0.03649630
v -0.02502786 0.05651474 0.03399849
v -0.02342699 0.05667874 0.03128999
v -0.02307377 0.05653845 0.02998918
v -0.02034488 0.05596347 0.02283775
v -0.01839079 0.05991719 0.03844447
v -0.01765587 0.05864473 0.03123197
v 0.02655894 0.05281592 0.02078271
v -0.03164213 0.05113247 0.04834104
v -0.00272390 0.05876526 0.05197782
v -0.03048563 0.05036584 0.05197477
v 0.02655894 0.05248792 0.05197782
v -0.03164213 0.05039350 0.02254461
v -0.03164213 0.05093291 0.02478897
v -0.03164213 0.05239900 0.03090830
v -0.03119776 0.05278035 0.03129915
v -0.01724569 0.05850840 0.02993421
v -0.01696083 0.06038152 0.03844447
v -0.01557645 0.06054354 0.03732992
v -0.01494977 0.06041115 0.03603216
v -0.01598094 0.06065814 0.03844447
v -0.01253992 0.06138328 0.03844447
v -0.00768603 0.06247001 0.03940634
v -0.00911030 0.06206298 0.03857272
v -0.00863175 0.06173103 0.03649630
v -0.00846083 0.06217955 0.03857577
v -0.00668335 0.06237319 0.03857272
v -0.00182947 0.06246804 0.03746428
v -0.00082679 0.06272292 0.03845668
v -0.00272390 0.06255892 0.03820629
v 0.00072851 0.06250360 0.03728106
v 0.00072281 0.06055342 0.02753107
v 0.00502978 0.05894111 0.02088348
v 0.00517221 0.05890949 0.02078271
v 0.00128112 0.05915845 0.02078271
v -0.03164213 0.05425039 0.03881395
v -0.03164213 0.05426818 0.04005980
v -0.03112940 0.05468706 0.03958039
v -0.02721552 0.05662934 0.03933916
v -0.03017229 0.05500320 0.03857577
v -0.02692497 0.05648510 0.03803835
v -0.02601345 0.05704625 0.03857272
v -0.02424736 0.05783660 0.03844447
v -0.02282880 0.05841157 0.03844447
v -0.02237303 0.05691782 0.03063958
v -0.02034488 0.05925725 0.03857577
v -0.02034488 0.05928886 0.04040180
v -0.01839079 0.05995078 0.04040180
v -0.01701780 0.06039732 0.04040180
v 0.02655894 0.05284753 0.02088348
v 0.02614875 0.05302140 0.02078271
v -0.03164213 0.05256498 0.04493022
v -0.00082679 0.05887986 0.05197782
v -0.00163007 0.06050600 0.04720817
v -0.00272390 0.05940149 0.05016401
v -0.00311130 0.05874155 0.05197477
v -0.00668335 0.05850642 0.05197477
v -0.00858047 0.05826141 0.05197477
v -0.01043201 0.05789587 0.05197477
v -0.01253422 0.05747699 0.05197477
v -0.01453959 0.05706008 0.05197477
v -0.01518335 0.05689608 0.05197477
v -0.01633986 0.05656611 0.05197477
v -0.01673295 0.05643373 0.05197477
v -0.02041894 0.05518301 0.05197477
v -0.02094877 0.05499530 0.05197477
v -0.02215085 0.05455270 0.05197477
v -0.02250407 0.05441242 0.05197477
v -0.02411063 0.05368332 0.05197477
v -0.02441258 0.05353710 0.05197477
v -0.02594508 0.05278628 0.05197477
v -0.02815554 0.05169955 0.05197477
v -0.02936901 0.05106727 0.05197477
v -0.02951144 0.05098823 0.05197477
v -0.03111800 0.05273095 0.04533939
v 0.02655894 0.05620453 0.04242325
v 0.02655324 0.05249187 0.05197782
v -0.03164213 0.05306488 0.03374810
v -0.01604361 0.06067395 0.04040180
v -0.01448831 0.06099404 0.03844447
v -0.01448831 0.06102762 0.04040180
v -0.01448831 0.06099799 0.03857272
v -0.00768603 0.06247001 0.03944909
v -0.00082679 0.06275256 0.04040180
v -0.00668335 0.06250360 0.03923534
v -0.00472927 0.06256880 0.03891777
v -0.00338476 0.06258856 0.03857272
v -0.00272390 0.06259844 0.03840477
v 0.00112730 0.06274268 0.04040180
v 0.00127543 0.06266562 0.03826431
v 0.00219835 0.06264389 0.03845668
v 0.00661926 0.06250755 0.03922618
v 0.00714909 0.06071741 0.03045637
v 0.00791249 0.06051192 0.02968382
v 0.00634010 0.05882651 0.02078271
v -0.03164213 0.05418717 0.04044760
v -0.03089582 0.05456060 0.04088426
v -0.03018939 0.05501901 0.04030103
v -0.02721552 0.05662934 0.03952848
v -0.02424736 0.05787216 0.04040180
v -0.02288007 0.05842936 0.04040180
v -0.02276613 0.05843529 0.03857272
v -0.02153556 0.05863485 0.04157742
v -0.01565051 0.06056725 0.04151940
v 0.02655894 0.05292459 0.02122853
v 0.02618293 0.05303523 0.02088348
v 0.02465043 0.05375248 0.02078271
v -0.03144843 0.05294237 0.04430424
v -0.03164213 0.05304116 0.04375765
v 0.00112730 0.05886998 0.05197782
v 0.00055760 0.06054354 0.04730894
v -0.00033114 0.06054354 0.04730894
v -0.00082679 0.06252929 0.04155299
v -0.00215420 0.06249174 0.04144306
v -0.00668335 0.06187330 0.04235302
v -0.00795949 0.05861904 0.05130299
v -0.00948061 0.06049019 0.04521420
v -0.00925842 0.05849456 0.05094572
v -0.01058583 0.05871191 0.04959910
v -0.01448831 0.05867041 0.04753185
v -0.01549099 0.05856767 0.04725092
v -0.01602082 0.05679334 0.05164498
v -0.01751914 0.05859730 0.04537909
v -0.01839079 0.05941927 0.04235302
v -0.02024803 0.05881861 0.04227668
v -0.02024803 0.05810927 0.04420042
v -0.02211097 0.05677556 0.04609973
v -0.02332444 0.05663329 0.04534550
v -0.02178054 0.05483328 0.05161445
v -0.02308517 0.05458036 0.05094267
v -0.02363208 0.05483328 0.04964185
v -0.02885628 0.05257683 0.04883877
v -0.03018939 0.05436895 0.04250875
v 0.02655894 0.05679334 0.04040180
v 0.02586390 0.05678149 0.04181254
v 0.02463903 0.05634877 0.04447829
v 0.02383005 0.05478586 0.04951666
v 0.02465612 0.05342250 0.05197782
v -0.01253992 0.06141687 0.04040180
v -0.00845514 0.06221710 0.04021858
v -0.00668335 0.06234158 0.04063387
v -0.00668335 0.06250360 0.03965673
v -0.01058583 0.06180612 0.04040180
v 0.00112730 0.06252336 0.04153772
v -0.00472927 0.06256880 0.04004148
v -0.00279797 0.06261425 0.04053005
v 0.00235217 0.06248384 0.04142474
v 0.00365679 0.06244037 0.04122626
v 0.00502978 0.06239690 0.04096060
v 0.00502978 0.06255892 0.03998651
v 0.00661926 0.06250755 0.03966894
v 0.00307569 0.06262215 0.03864906
v 0.00893226 0.06211830 0.04040180
v 0.00893226 0.06208472 0.03844752
v 0.00864171 0.06212621 0.03845668
v 0.00715478 0.06232972 0.03852386
v 0.00714909 0.06231984 0.03846279
v 0.01088635 0.06171325 0.03844752
v 0.00893226 0.06061072 0.03114037
v 0.00855626 0.05868227 0.02127433
v 0.00722884 0.05875143 0.02078271
v 0.00707502 0.05877118 0.02078271
v -0.03164213 0.05379989 0.04176674
v -0.02959119 0.05488662 0.04196216
v -0.02567163 0.05682693 0.04194079
v -0.02697055 0.05650684 0.04083235
v -0.02626981 0.05695734 0.04027049
v -0.02440118 0.05720234 0.04249654
v -0.02223630 0.05814286 0.04227668
v -0.01636264 0.06009897 0.04224614
v -0.01448831 0.06068580 0.04186445
v -0.01058583 0.06129041 0.04235302
v 0.02655894 0.05354501 0.02401337
v 0.02655894 0.05675777 0.03844752
v 0.02454218 0.05383349 0.02088348
v 0.02347114 0.05461791 0.02204688
v 0.02377878 0.05476214 0.02334770
v 0.02410351 0.05492417 0.02478897
v 0.02363635 0.05664120 0.03147320
v 0.02304955 0.05450528 0.02078271
v 0.02316919 0.05448157 0.02088348
v -0.03164213 0.05356477 0.04239271
v 0.00134949 0.05885614 0.05197782
v 0.00307569 0.05880082 0.05181598
v 0.00444868 0.05865461 0.05197782
v 0.00307569 0.06080238 0.04609973
v 0.00112730 0.06218153 0.04251791
v -0.00345313 0.06244630 0.04126595
v -0.00472927 0.06240678 0.04101861
v -0.00863175 0.06164805 0.04235302
v -0.00817598 0.06060677 0.04553788
v -0.01326345 0.06046253 0.04318664
v -0.01448831 0.05981839 0.04430424
v -0.02515319 0.05657599 0.04324160
v 0.02618863 0.05693955 0.03844752
v 0.02622281 0.05695734 0.04040180
v 0.02454218 0.05774571 0.04040180
v 0.02463903 0.05712923 0.04242325
v 0.02405224 0.05683681 0.04394087
v 0.02352811 0.05659575 0.04524168
v 0.02327174 0.05453690 0.05081747
v 0.02269634 0.05432943 0.05197782
v 0.00698387 0.06185551 0.04235607
v 0.00715478 0.06235739 0.04035599
v 0.00893226 0.06160853 0.04235607
v 0.01586557 0.06054551 0.04146443
v 0.01088635 0.06174684 0.04040180
v 0.01477174 0.06093871 0.03845668
v 0.01478313 0.06093476 0.03844752
v 0.01384312 0.06052180 0.03549473
v 0.01378615 0.05855779 0.02578749
v 0.01105726 0.05846887 0.02267286
v 0.00893226 0.06041313 0.03016628
v 0.01282905 0.05774373 0.02088348
v 0.00904051 0.05847678 0.02078271
v 0.02218930 0.05488860 0.02088348
v 0.02454218 0.05771212 0.03844752
v 0.02063970 0.05544975 0.02088348
v 0.02260518 0.05685657 0.03074951
v 0.02297549 0.05835823 0.03844752
v 0.02216081 0.05487674 0.02078271
v 0.00502978 0.05861509 0.05197782
v 0.00698387 0.06067197 0.04573330
v 0.02453649 0.05771607 0.03845668
v 0.02302677 0.05837601 0.04040180
v 0.02173353 0.05860323 0.04148581
v 0.02246846 0.05807963 0.04222477
v 0.02261088 0.05436499 0.05197782
v 0.02066249 0.05510002 0.05197782
v 0.02174493 0.05471868 0.05197782
v 0.00838535 0.06059886 0.04551955
v 0.01088635 0.06123114 0.04235607
v 0.01478313 0.06065814 0.04178200
v 0.01478313 0.06096835 0.04040180
v 0.01478313 0.06031039 0.04275914
v 0.01568327 0.05854396 0.04718985
v 0.01660619 0.06004562 0.04221255
v 0.01868561 0.05931850 0.04235607
v 0.01868561 0.05985001 0.04040180
v 0.01717020 0.06034793 0.04040180
v 0.01619600 0.06064430 0.04040180
v 0.01614473 0.06062850 0.03844752
v 0.01579151 0.06052378 0.03742153
v 0.01282905 0.05814681 0.02283775
v 0.01574024 0.05855779 0.02774176
v 0.01478313 0.05733077 0.02088348
v 0.01489707 0.05727545 0.02078271
v 0.01297717 0.05768051 0.02078271
v 0.02074795 0.05538652 0.02078271
v 0.01701068 0.05665700 0.02078271
v 0.01671443 0.05681902 0.02104226
v 0.02156832 0.05659378 0.02779978
v 0.02196142 0.05673209 0.02910059
v 0.02199560 0.05869413 0.03844752
v 0.00607234 0.05853803 0.05197782
v 0.00698387 0.05866448 0.05142818
v 0.00742254 0.05842541 0.05197782
v 0.00816316 0.05860323 0.05125413
v 0.02205257 0.05870993 0.04040180
v 0.02078782 0.05711343 0.04640814
v 0.01879955 0.05637050 0.05024951
v 0.01701638 0.05633691 0.05197782
v 0.00886390 0.05821003 0.05197782
v 0.00886390 0.05883836 0.05020981
v 0.01088635 0.06069963 0.04385231
v 0.01493126 0.05897075 0.04642646
v 0.01088635 0.05868227 0.04951971
v 0.01322784 0.05844714 0.04886320
v 0.01297147 0.05738807 0.05197782
v 0.01477174 0.05699685 0.05197782
v 0.01595673 0.05668664 0.05197782
v 0.01621309 0.05676370 0.05155643
v 0.01673722 0.05837206 0.04671655
v 0.01673722 0.05872771 0.04574246
v 0.01867992 0.05982037 0.03845668
v 0.01711892 0.06033212 0.03844752
v 0.01677710 0.05837206 0.02851126
v 0.01658340 0.05679531 0.02078271
v 0.00698387 0.05846887 0.05197782
v 0.01662328 0.05646930 0.05197782
f 1 2 6
f 1 6 3
f 1 3 18
f 1 18 48
f 1 48 89
f 1 89 88
f 1 88 149
f 1 149 216
f 1 216 215
f 1 215 269
f 1 269 302
f 1 302 301
f 1 301 332
f 1 332 304
f 1 304 303
f 1 303 275
f 1 275 234
f 1 234 161
f 1 161 105
f 1 105 62
f 1 62 28
f 1 28 4
f 1 4 2
f 2 5 29
f 2 29 63
f 2 63 106
f 2 106 163
f 2 163 236
f 2 236 217
f 2 217 150
f 2 150 91
f 2 91 90
f 2 90 132
f 2 132 69
f 2 69 68
f 2 68 67
f 2 67 32
f 2 32 6
f 2 4 7
f 2 7 5
f 3 8 9
f 3 9 10
f 3 10 11
f 3 11 12
f 3 12 13
f 3 13 14
f 3 14 15
f 3 15 16
f 3 16 17
f 3 17 46
f 3 46 18
f 3 6 19
f 3 19 20
f 3 20 21
f 3 21 22
f 3 22 23
f 3 23 24
f 3 24 25
f 3 25 26
f 3 26 27
f 3 27 8
f 4 28 7
f 5 7 30
f 5 30 31
f 5 31 64
f 5 64 29
f 6 32 33
f 6 33 19
f 7 28 62
f 7 62 104
f 7 104 159
f 7 159 227
f 7 227 228
f 7 228 188
f 7 188 130
f 7 130 66
f 7 66 30
f 8 34 35
f 8 35 9
f 8 27 34
f 9 35 10
f 10 35 36
f 10 36 11
f 11 37 12
f 11 36 37
f 12 37 13
f 13 38 39
f 13 39 14
f 13 37 40
f 13 40 38
f 14 39 15
f 15 41 16
f 15 39 41
f 16 42 43
f 16 43 17
f 16 41 42
f 17 43 44
f 17 44 45
f 17 45 46
f 18 46 47
f 18 47 48
f 19 33 20
f 20 33 49
f 20 49 50
f 20 50 51
f 20 51 52
f 20 52 21
f 21 52 22
f 22 53 54
f 22 54 55
f 22 55 23
f 22 52 53
f 23 55 56
f 23 56 57
f 23 57 24
f 24 57 58
f 24 58 25
f 25 58 26
f 26 59 27
f 26 58 59
f 27 59 60
f 27 60 61
f 27 61 34
f 29 64 65
f 29 65 63
f 30 66 131
f 30 131 192
f 30 192 256
f 30 256 282
f 30 282 284
f 30 284 283
f 30 283 316
f 30 316 334
f 30 334 325
f 30 325 324
f 30 324 323
f 30 323 317
f 30 317 311
f 30 311 333
f 30 333 309
f 30 309 276
f 30 276 239
f 30 239 237
f 30 237 164
f 30 164 107
f 30 107 64
f 30 64 31
f 32 67 33
f 33 67 68
f 33 68 69
f 33 69 70
f 33 70 49
f 34 71 72
f 34 72 35
f 34 61 60
f 34 60 71
f 35 73 74
f 35 74 36
f 35 72 75
f 35 75 73
f 36 74 40
f 36 40 37
f 38 40 76
f 38 76 77
f 38 77 78
f 38 78 39
f 39 78 79
f 39 79 41
f 40 74 76
f 41 79 80
f 41 80 77
f 41 77 81
f 41 81 42
f 42 81 44
f 42 44 43
f 44 82 83
f 44 83 45
f 44 81 84
f 44 84 82
f 45 83 85
f 45 85 86
f 45 86 46
f 46 86 47
f 47 86 87
f 47 87 88
f 47 88 89
f 47 89 48
f 49 70 50
f 50 70 90
f 50 90 91
f 50 91 92
f 50 92 153
f 50 153 93
f 50 93 94
f 50 94 51
f 51 94 95
f 51 95 54
f 51 54 53
f 51 53 52
f 54 96 55
f 54 95 94
f 54 94 93
f 54 93 96
f 55 96 97
f 55 97 57
f 55 57 56
f 57 98 58
f 57 97 98
f 58 98 99
f 58 99 59
f 59 99 98
f 59 98 60
f 60 100 101
f 60 101 102
f 60 102 103
f 60 103 72
f 60 72 71
f 60 98 100
f 62 105 104
f 63 65 106
f 64 107 108
f 64 108 109
f 64 109 110
f 64 110 111
f 64 111 112
f 64 112 113
f 64 113 114
f 64 114 115
f 64 115 116
f 64 116 117
f 64 117 118
f 64 118 119
f 64 119 120
f 64 120 121
f 64 121 122
f 64 122 123
f 64 123 124
f 64 124 125
f 64 125 126
f 64 126 127
f 64 127 128
f 64 128 65
f 65 128 129
f 65 129 106
f 66 130 131
f 69 132 70
f 70 132 90
f 72 103 133
f 72 133 75
f 73 134 74
f 73 75 134
f 74 134 76
f 75 133 135
f 75 135 136
f 75 136 134
f 76 134 77
f 77 137 138
f 77 138 83
f 77 83 139
f 77 139 81
f 77 80 78
f 77 134 136
f 77 136 135
f 77 135 137
f 78 80 79
f 81 139 140
f 81 140 141
f 81 141 142
f 81 142 84
f 82 84 142
f 82 142 83
f 83 138 143
f 83 143 144
f 83 144 85
f 83 142 141
f 83 141 140
f 83 140 139
f 85 144 86
f 86 144 145
f 86 145 87
f 87 145 146
f 87 146 147
f 87 147 148
f 87 148 149
f 87 149 88
f 91 150 151
f 91 151 92
f 92 151 152
f 92 152 153
f 93 153 154
f 93 154 97
f 93 97 96
f 97 154 155
f 97 155 98
f 98 155 156
f 98 156 100
f 100 156 155
f 100 155 101
f 101 157 102
f 101 155 157
f 102 157 158
f 102 158 103
f 103 158 133
f 104 105 160
f 104 160 159
f 105 161 160
f 106 129 162
f 106 162 163
f 107 164 165
f 107 165 166
f 107 166 108
f 108 166 167
f 108 167 168
f 108 168 109
f 109 168 111
f 109 111 110
f 111 169 170
f 111 170 112
f 111 168 169
f 112 170 171
f 112 171 172
f 112 172 113
f 113 172 173
f 113 173 114
f 114 173 174
f 114 174 175
f 114 175 115
f 115 175 116
f 116 175 176
f 116 176 117
f 117 176 177
f 117 177 178
f 117 178 118
f 118 178 179
f 118 179 180
f 118 180 119
f 119 180 181
f 119 181 182
f 119 182 120
f 120 183 121
f 120 182 183
f 121 183 182
f 121 182 184
f 121 184 122
f 122 184 123
f 123 184 185
f 123 185 124
f 124 185 125
f 125 185 126
f 126 186 127
f 126 185 186
f 127 187 129
f 127 129 128
f 127 186 187
f 129 187 162
f 130 188 189
f 130 189 190
f 130 190 131
f 131 190 191
f 131 191 192
f 133 158 135
f 135 193 137
f 135 158 193
f 137 194 195
f 137 195 196
f 137 196 138
f 137 193 197
f 137 197 194
f 138 168 167
f 138 167 198
f 138 198 143
f 138 196 199
f 138 199 200
f 138 200 168
f 143 198 201
f 143 201 202
f 143 202 203
f 143 203 204
f 143 204 205
f 143 205 146
f 143 146 206
f 143 206 145
f 143 145 144
f 145 206 146
f 146 205 207
f 146 207 208
f 146 208 209
f 146 209 210
f 146 210 211
f 146 211 147
f 147 211 148
f 148 211 209
f 148 209 208
f 148 208 212
f 148 212 213
f 148 213 214
f 148 214 215
f 148 215 216
f 148 216 149
f 150 217 151
f 151 187 218
f 151 218 219
f 151 219 220
f 151 220 152
f 151 217 187
f 152 220 221
f 152 221 153
f 153 221 154
f 154 219 222
f 154 222 155
f 154 221 220
f 154 220 219
f 155 222 157
f 157 223 179
f 157 179 178
f 157 178 158
f 157 222 223
f 158 178 224
f 158 224 175
f 158 175 225
f 158 225 226
f 158 226 197
f 158 197 193
f 159 160 227
f 160 228 227
f 160 161 229
f 160 229 230
f 160 230 231
f 160 231 232
f 160 232 233
f 160 233 228
f 161 234 235
f 161 235 229
f 162 187 163
f 163 187 236
f 164 237 165
f 165 237 238
f 165 238 239
f 165 239 240
f 165 240 241
f 165 241 198
f 165 198 167
f 165 167 166
f 168 200 242
f 168 242 169
f 169 242 243
f 169 243 195
f 169 195 244
f 169 244 245
f 169 245 170
f 170 245 244
f 170 244 171
f 171 226 172
f 171 244 226
f 172 226 173
f 173 226 246
f 173 246 174
f 174 246 247
f 174 247 175
f 175 247 225
f 175 224 178
f 175 178 177
f 175 177 176
f 179 223 180
f 180 223 181
f 181 223 182
f 182 222 219
f 182 219 248
f 182 248 185
f 182 185 184
f 182 223 222
f 185 248 186
f 186 218 187
f 186 248 219
f 186 219 218
f 187 217 236
f 188 228 249
f 188 249 250
f 188 250 189
f 189 250 251
f 189 251 252
f 189 252 253
f 189 253 254
f 189 254 190
f 190 254 191
f 191 254 255
f 191 255 192
f 192 255 256
f 194 244 195
f 194 197 244
f 195 243 199
f 195 199 196
f 197 226 244
f 198 241 201
f 199 243 200
f 200 243 242
f 201 241 240
f 201 240 257
f 201 257 202
f 202 257 203
f 203 257 258
f 203 258 205
f 203 205 204
f 205 258 207
f 207 258 259
f 207 259 260
f 207 260 261
f 207 261 212
f 207 212 208
f 209 211 210
f 212 261 262
f 212 262 263
f 212 263 264
f 212 264 265
f 212 265 266
f 212 266 214
f 212 214 267
f 212 267 213
f 213 267 214
f 214 266 268
f 214 268 269
f 214 269 215
f 225 247 246
f 225 246 226
f 228 233 249
f 229 235 230
f 230 235 270
f 230 270 233
f 230 233 231
f 231 233 232
f 233 271 249
f 233 270 272
f 233 272 273
f 233 273 274
f 233 274 271
f 234 275 235
f 235 275 270
f 237 239 238
f 239 276 277
f 239 277 257
f 239 257 240
f 249 271 278
f 249 278 250
f 250 278 251
f 251 278 279
f 251 279 252
f 252 279 280
f 252 280 281
f 252 281 254
f 252 254 253
f 254 282 256
f 254 256 255
f 254 281 283
f 254 283 284
f 254 284 282
f 257 277 285
f 257 285 259
f 257 259 258
f 259 285 286
f 259 286 287
f 259 287 260
f 260 288 261
f 260 287 289
f 260 289 290
f 260 290 291
f 260 291 292
f 260 292 280
f 260 280 293
f 260 293 294
f 260 294 295
f 260 295 288
f 261 288 262
f 262 288 296
f 262 296 263
f 263 296 297
f 263 297 265
f 263 265 264
f 265 268 298
f 265 298 266
f 265 297 299
f 265 299 268
f 266 298 268
f 268 299 300
f 268 300 301
f 268 301 302
f 268 302 269
f 270 275 272
f 271 274 278
f 272 303 304
f 272 304 305
f 272 305 306
f 272 306 273
f 272 275 303
f 273 306 307
f 273 307 274
f 274 279 278
f 274 307 306
f 274 306 308
f 274 308 279
f 276 309 310
f 276 310 277
f 277 310 311
f 277 311 312
f 277 312 285
f 279 308 313
f 279 313 280
f 280 292 314
f 280 314 281
f 280 313 293
f 281 314 283
f 283 314 315
f 283 315 316
f 285 312 317
f 285 317 318
f 285 318 319
f 285 319 286
f 286 319 287
f 287 319 289
f 288 295 296
f 289 320 290
f 289 319 321
f 289 321 322
f 289 322 323
f 289 323 320
f 290 320 323
f 290 323 324
f 290 324 325
f 290 325 326
f 290 326 327
f 290 327 328
f 290 328 291
f 291 328 292
f 292 328 327
f 292 327 314
f 293 329 294
f 293 313 329
f 294 329 330
f 294 330 296
f 294 296 295
f 296 299 297
f 296 330 299
f 299 330 329
f 299 329 331
f 299 331 305
f 299 305 300
f 300 305 301
f 301 305 332
f 304 332 305
f 305 331 308
f 305 308 306
f 308 331 329
f 308 329 313
f 309 333 310
f 310 333 311
f 311 317 312
f 314 327 315
f 315 327 316
f 316 327 326
f 316 326 334
f 317 323 321
f 317 321 319
f 317 319 318
f 321 323 322
f 325 334 326

