# https://github.com/mikedh/trimesh
v 0.05858927 0.00536839 0.05197914
v 0.06170344 0.00536839 0.04308518
v 0.05883533 0.00626222 0.02078369
v 0.05349127 0.00536839 0.05197914
v 0.05868923 0.00397067 0.05197914
v 0.05888915 0.00096526 0.05197914
v 0.06203023 0.00430660 0.04234845
v 0.06251081 0.00430660 0.04053326
v 0.06265306 0.00430660 0.03967227
v 0.06265306 0.00430660 0.03921515
v 0.05870076 0.00575832 0.01993601
v 0.05868154 0.00626222 0.02002477
v 0.05210335 0.00626222 0.02078369
v 0.05104607 -0.01692323 0.05197914
v 0.03533300 0.00626222 0.00665719
v 0.03016195 -0.04451781 0.05197470
v 0.05888915 -0.00098436 0.05197914
v 0.06262615 0.00017941 0.04141201
v 0.06258386 0.00148116 0.04120342
v 0.06253772 0.00292088 0.04092382
v 0.06269920 0.00292088 0.03994743
v 0.05891991 0.00500247 0.02078369
v 0.06276071 0.00096526 0.03866926
v 0.05920441 0.00096526 0.02088576
v 0.05916982 0.00113922 0.02078813
v 0.05874690 0.00445057 0.01984281
v 0.05831246 0.00626222 0.01946557
v 0.05636707 -0.01692323 0.05197914
v 0.03016195 -0.05057662 0.05197470
v 0.04694383 0.00626222 0.00665719
v 0.03167674 -0.01692923 0.00663944
v 0.02349149 -0.02709723 0.00663944
v 0.02349149 -0.04691734 0.02073487
v 0.06262615 -0.00020451 0.04141201
v 0.05875844 -0.00293398 0.05197914
v 0.06160732 -0.00683321 0.04308518
v 0.06274149 0.00088727 0.04048888
v 0.06276071 -0.00098436 0.03866926
v 0.05920441 -0.00098436 0.02088576
v 0.05917750 0.00097126 0.02078369
v 0.05886224 0.00097126 0.01966085
v 0.05812407 0.00097126 0.01868446
v 0.05813560 0.00500846 0.01908833
v 0.05795106 0.00626222 0.01898182
v 0.05644780 -0.01669527 0.05197914
v 0.03202276 -0.04934087 0.05197470
v 0.03429879 -0.04781716 0.05197470
v 0.03455638 -0.04764320 0.05197470
v 0.03594815 -0.04663540 0.05197470
v 0.03634414 -0.04631146 0.05197470
v 0.03762826 -0.04523767 0.05197470
v 0.03971974 -0.04340203 0.05197470
v 0.04070013 -0.04253820 0.05197470
v 0.04171896 -0.04156639 0.05197470
v 0.04182661 -0.04145242 0.05197470
v 0.04269550 -0.04052260 0.05197470
v 0.04545980 -0.03736722 0.05197470
v 0.04645172 -0.03616745 0.05197470
v 0.04672469 -0.03581352 0.05197470
v 0.04750900 -0.03474573 0.05197470
v 0.04782810 -0.03428382 0.05197470
v 0.04941979 -0.03190229 0.05197470
v 0.05046169 -0.03033060 0.05197470
v 0.05068852 -0.02998267 0.05197470
v 0.05131520 -0.02887888 0.05197470
v 0.05157279 -0.02839898 0.05197470
v 0.05350280 -0.02449375 0.05197470
v 0.05359507 -0.02429578 0.05197470
v 0.05441399 -0.02249014 0.05197470
v 0.05448703 -0.02231017 0.05197470
v 0.05508680 -0.02070249 0.05197470
v 0.02349149 -0.05425390 0.02073487
v 0.03016195 -0.05083458 0.05135781
v 0.03131919 -0.05265821 0.04517996
v 0.03304159 -0.05250225 0.04284552
v 0.05608256 0.00626222 0.01674501
v 0.04710916 0.00487049 0.00665719
v 0.04421029 -0.01692923 0.00663944
v 0.02349149 -0.04115248 0.00663944
v 0.06258386 -0.00150026 0.04120342
v 0.06274149 -0.00090638 0.04048888
v 0.06186107 -0.00683321 0.04234845
v 0.05862387 -0.00488959 0.05197914
v 0.05848931 -0.00683321 0.05197914
v 0.05870845 -0.00782302 0.05114034
v 0.06069613 -0.00801498 0.04538855
v 0.06269920 -0.00293998 0.03994743
v 0.06264922 -0.00446968 0.03923734
v 0.06247236 -0.00502757 0.03852724
v 0.05898143 -0.00411574 0.02078813
v 0.05870076 -0.00576542 0.01993601
v 0.05874690 -0.00446968 0.01984281
v 0.05886224 -0.00098436 0.01966085
v 0.05812407 -0.00098436 0.01868446
v 0.05714368 0.00097126 0.01752168
v 0.05702065 0.00487049 0.01766370
v 0.05696683 0.00626222 0.01772139
v 0.05805871 0.00292088 0.01878654
v 0.05582497 -0.02051053 0.05015508
v 0.05871999 -0.02150033 0.04139426
v 0.05924286 -0.01872888 0.04252597
v 0.05867770 -0.01748712 0.04519771
v 0.05687456 -0.01598142 0.05146432
v 0.05651701 -0.01647932 0.05197914
v 0.03718228 -0.04874698 0.04517109
v 0.03624803 -0.04975478 0.04426571
v 0.03558675 -0.04706131 0.05166404
v 0.03725148 -0.04685135 0.04919645
v 0.03689008 -0.04654541 0.05050125
v 0.03892775 -0.04856102 0.04234845
v 0.04123454 -0.04691734 0.04153628
v 0.04208420 -0.04583155 0.04227300
v 0.04099617 -0.04280815 0.05084742
v 0.04298000 -0.04282015 0.04699959
v 0.04699766 -0.03709127 0.04918313
v 0.04519837 -0.04310809 0.04169605
v 0.04720143 -0.03541760 0.05162409
v 0.05249166 -0.03247818 0.04375089
v 0.04917373 -0.03247818 0.05164628
v 0.04888154 -0.03699529 0.04513558
v 0.05053858 -0.03615545 0.04254373
v 0.05067314 -0.03088849 0.05059445
v 0.05279539 -0.03113444 0.04514002
v 0.05108836 -0.02958674 0.05161966
v 0.05289535 -0.02936479 0.04734132
v 0.05264545 -0.02885489 0.04864612
v 0.05384882 -0.02830300 0.04625398
v 0.05490225 -0.02364791 0.04944942
v 0.05465235 -0.02306603 0.05074535
v 0.05671308 -0.02331198 0.04516221
v 0.05491379 -0.02177028 0.05142882
v 0.02349149 -0.05345006 0.01909277
v 0.02582519 -0.05284418 0.01969635
v 0.02455646 -0.05376200 0.02073487
v 0.03016195 -0.05497976 0.03844292
v 0.03016195 -0.05502175 0.04039568
v 0.03016195 -0.05474581 0.04144308
v 0.03016195 -0.05451185 0.04217536
v 0.03016195 -0.05262223 0.04690639
v 0.03043492 -0.05425990 0.04242834
v 0.03173441 -0.05292817 0.04387960
v 0.03237647 -0.05318012 0.04225525
v 0.03344913 -0.05277219 0.04154071
v 0.03660558 -0.05031868 0.04234845
v 0.05428711 0.00487049 0.01462803
v 0.04878927 0.00292088 0.00837474
v 0.04734368 0.00128319 0.00665719
v 0.04442559 -0.01638334 0.00665719
v 0.04435254 -0.01659330 0.00665719
v 0.04687848 -0.01920278 0.01026537
v 0.04369127 -0.01829696 0.00663944
v 0.04738212 0.00065332 0.00665719
v 0.04738212 -0.00066642 0.00665719
v 0.04736674 -0.00097836 0.00665719
v 0.04710916 -0.00488959 0.00665719
v 0.04705533 -0.00536350 0.00665719
v 0.04687463 -0.00683921 0.00665719
v 0.04683234 -0.00706717 0.00665719
v 0.04652861 -0.00869884 0.00665719
v 0.04611724 -0.01074444 0.00665719
v 0.04567126 -0.01258608 0.00665719
v 0.04559052 -0.01285003 0.00665719
v 0.04546365 -0.01326395 0.00665719
v 0.04525604 -0.01392382 0.00665719
v 0.02367603 -0.04105049 0.00663944
v 0.02733614 -0.04872299 0.01607486
v 0.02349149 -0.04290413 0.00837918
v 0.06253772 -0.00293998 0.04092382
v 0.06236856 -0.00683321 0.04040012
v 0.06162654 -0.00878883 0.04234845
v 0.05825863 -0.00860286 0.05197914
v 0.06058080 -0.00931672 0.04504682
v 0.06137279 -0.00876483 0.04308518
v 0.06264922 -0.00446968 0.03964564
v 0.06213403 -0.00878883 0.04040012
v 0.06210328 -0.00878883 0.03844292
v 0.06233395 -0.00683321 0.03844292
v 0.06081532 -0.00683321 0.03084931
v 0.05889684 -0.00537550 0.02078369
v 0.05881610 -0.00654527 0.02078369
v 0.05865847 -0.00683921 0.02012685
v 0.05744741 -0.00889081 0.01875547
v 0.05786648 -0.00683921 0.01893300
v 0.05813560 -0.00502757 0.01908833
v 0.05805871 -0.00293398 0.01878654
v 0.05694376 -0.00683921 0.01774802
v 0.05702065 -0.00488959 0.01766370
v 0.05714368 -0.00098436 0.01752168
v 0.05626710 0.00097126 0.01654530
v 0.05817020 -0.02227418 0.04216649
v 0.05722442 -0.02446975 0.04237508
v 0.05780881 -0.02440376 0.04040012
v 0.05847393 -0.02274809 0.04040012
v 0.05923517 -0.02051053 0.04040012
v 0.05989645 -0.01854891 0.04040012
v 0.06065384 -0.01557949 0.04132768
v 0.05999257 -0.01659330 0.04234845
v 0.05987723 -0.01692323 0.04237508
v 0.05888915 -0.01617938 0.04578354
v 0.05876997 -0.01692323 0.04545069
v 0.05854313 -0.01692323 0.04607202
v 0.05865463 -0.01535754 0.04708391
v 0.05697836 -0.01484764 0.05197914
v 0.03919303 -0.04878898 0.04135431
v 0.03753983 -0.04902293 0.04387072
v 0.04348365 -0.04523767 0.04040012
v 0.04327220 -0.04504571 0.04170492
v 0.04329527 -0.04313808 0.04569922
v 0.04870468 -0.03875294 0.04234845
v 0.04408342 -0.04392993 0.04235289
v 0.04445635 -0.04429586 0.04040012
v 0.04537522 -0.04331805 0.04040012
v 0.04706302 -0.04106849 0.04151852
v 0.05329519 -0.03220823 0.04223306
v 0.05116910 -0.03554358 0.04201559
v 0.05290688 -0.03326402 0.04150077
v 0.04915835 -0.03736722 0.04383078
v 0.04946977 -0.03777514 0.04234845
v 0.05306067 -0.03154836 0.04383965
v 0.05437553 -0.03024662 0.04239283
v 0.05495608 -0.02958674 0.04176706
v 0.05689763 -0.02566951 0.04174487
v 0.05695145 -0.02386387 0.04386184
v 0.05644396 -0.02446975 0.04442992
v 0.02349149 -0.05260422 0.01805869
v 0.02455646 -0.05315012 0.01932355
v 0.02614429 -0.05300615 0.02073487
v 0.02455646 -0.05234028 0.01834717
v 0.02845877 -0.05121250 0.01931024
v 0.02967753 -0.05089456 0.01969191
v 0.03110389 -0.05449985 0.03844292
v 0.03114233 -0.05452385 0.04040012
v 0.03236494 -0.05375000 0.04040012
v 0.03364905 -0.05290417 0.04040012
v 0.03705925 -0.05061861 0.04040012
v 0.03795121 -0.04934087 0.04234845
v 0.05408335 -0.01692923 0.01703349
v 0.05329519 -0.02050453 0.01748617
v 0.04880464 -0.01910680 0.01225365
v 0.04492539 -0.01924477 0.00831704
v 0.05304145 -0.02190225 0.01775690
v 0.05110759 -0.02191425 0.01578638
v 0.04657859 -0.02050453 0.01056716
v 0.04312226 -0.01954472 0.00663944
v 0.05626710 -0.00098436 0.01654530
v 0.05428711 -0.00488959 0.01462803
v 0.05605949 -0.00683921 0.01677164
v 0.04949668 -0.00683921 0.00954196
v 0.05685534 -0.00830292 0.01785010
v 0.05672462 -0.00960467 0.01798768
v 0.05661312 -0.01074444 0.01811195
v 0.05544435 -0.01269406 0.01725983
v 0.05357200 -0.01269406 0.01521830
v 0.05076926 -0.01303599 0.01224033
v 0.04710916 -0.01214217 0.00807295
v 0.04884693 -0.01326395 0.01025206
v 0.05053474 -0.01464968 0.01248442
v 0.04692846 -0.01343791 0.00826379
v 0.02455646 -0.04049260 0.00663944
v 0.02455646 -0.04052860 0.00667051
v 0.02730922 -0.04674338 0.01414428
v 0.02845877 -0.04939486 0.01736635
v 0.02733614 -0.05067860 0.01802762
v 0.02349149 -0.04576557 0.01122844
v 0.06125746 -0.01074444 0.04234845
v 0.05744357 -0.01269406 0.05197914
v 0.05978880 -0.01464368 0.04430565
v 0.06099602 -0.01074444 0.04308518
v 0.06177264 -0.01074444 0.04040012
v 0.06174188 -0.01074444 0.03844292
v 0.05878920 -0.00821294 0.02147603
v 0.06074227 -0.00825493 0.03121768
v 0.05879303 -0.00683921 0.02078369
v 0.05716291 -0.01269406 0.01931467
v 0.05735130 -0.01074444 0.01908833
v 0.05852776 -0.00883082 0.02085026
v 0.05682073 -0.01581345 0.01980286
v 0.05695914 -0.01464968 0.01958984
v 0.05706295 -0.02599945 0.04040012
v 0.05704757 -0.02596346 0.03844292
v 0.05777421 -0.02440376 0.03844292
v 0.05883149 -0.02184226 0.03884235
v 0.06076149 -0.01598142 0.04002288
v 0.06039241 -0.01692323 0.04053770
v 0.06048468 -0.01661729 0.04056433
v 0.06093451 -0.01481764 0.04056433
v 0.06078072 -0.01427775 0.04171824
v 0.06044623 -0.01481764 0.04235733
v 0.05705526 -0.01454170 0.05197914
v 0.03841256 -0.04956283 0.04057764
v 0.03935450 -0.04893895 0.04004951
v 0.04237639 -0.04620948 0.04040012
v 0.04346058 -0.04521368 0.03844292
v 0.03935450 -0.04893895 0.03889560
v 0.04893536 -0.03902289 0.04132325
v 0.04443328 -0.04427186 0.03844292
v 0.04535600 -0.04328805 0.03844292
v 0.04907761 -0.03919086 0.03892223
v 0.04907761 -0.03919086 0.04002288
v 0.04833175 -0.03991072 0.04056433
v 0.05463697 -0.03090648 0.04040012
v 0.05075003 -0.03686332 0.04040012
v 0.05302991 -0.03345598 0.04040012
v 0.05366812 -0.03247818 0.04040012
v 0.05383728 -0.03220823 0.04040012
v 0.05512524 -0.02992868 0.04040012
v 0.05592877 -0.02830300 0.04040012
v 0.02845877 -0.05182438 0.02073487
v 0.02845877 -0.05036666 0.01833829
v 0.02993127 -0.05106253 0.02073487
v 0.02976980 -0.04901693 0.01775246
v 0.03036956 -0.04974879 0.01892412
v 0.03194971 -0.04917290 0.01945669
v 0.03550217 -0.04699532 0.01969635
v 0.03325305 -0.04873498 0.02015348
v 0.03236494 -0.05371400 0.03844292
v 0.03140762 -0.05271221 0.03157272
v 0.03361829 -0.05288617 0.03844292
v 0.03703234 -0.05060062 0.03844292
v 0.05477923 -0.01750512 0.01797880
v 0.05499837 -0.01620337 0.01774802
v 0.05460237 -0.01855491 0.01816964
v 0.05485612 -0.02162031 0.01982062
v 0.05381038 -0.02241215 0.01894187
v 0.05274541 -0.02320400 0.01805869
v 0.05427173 -0.02050453 0.01857795
v 0.04916220 -0.02191425 0.01383805
v 0.04265321 -0.02050453 0.00663944
v 0.05641320 -0.01269406 0.01833829
v 0.05522521 -0.01464968 0.01750393
v 0.05242630 -0.01464968 0.01450377
v 0.05144976 -0.01464968 0.01346081
v 0.02603280 -0.03951479 0.00663944
v 0.03106929 -0.04858501 0.01815189
v 0.06138433 -0.01269406 0.04040012
v 0.06076149 -0.01598142 0.03892223
v 0.06135357 -0.01269406 0.03844292
v 0.05855082 -0.01275405 0.02473360
v 0.05879303 -0.01018055 0.02341105
v 0.05777421 -0.01269406 0.02088576
v 0.05736667 -0.01464368 0.02088576
v 0.05694376 -0.01617338 0.02078369
v 0.05504835 -0.02050453 0.01955433
v 0.05619790 -0.01464968 0.01861345
v 0.05438707 -0.02431378 0.02282078
v 0.05488303 -0.02359392 0.02345987
v 0.05675922 -0.02344395 0.03160379
v 0.05510602 -0.02989269 0.03844292
v 0.05849700 -0.02247814 0.03829202
v 0.05694761 -0.02241815 0.03083156
v 0.05591340 -0.02051053 0.02284297
v 0.05911214 -0.02067250 0.03829202
v 0.05986185 -0.01854891 0.03844292
v 0.04138063 -0.04704332 0.03844292
v 0.04094619 -0.04276016 0.02089020
v 0.04317993 -0.04302411 0.02936699
v 0.03838950 -0.04954482 0.03832309
v 0.03725533 -0.04880697 0.03158604
v 0.03722072 -0.04682136 0.02389480
v 0.03833951 -0.04557960 0.02290067
v 0.03996965 -0.04361799 0.02089020
v 0.04968507 -0.03824904 0.04056433
v 0.04484081 -0.04270617 0.03455070
v 0.04718605 -0.04121246 0.03844292
v 0.04829715 -0.03991072 0.03834084
v 0.04572124 -0.03817706 0.02291842
v 0.04696306 -0.03705528 0.02392143
v 0.04893921 -0.03707328 0.03165261
v 0.04967354 -0.03823105 0.03834084
v 0.05073081 -0.03683332 0.03844292
v 0.05461775 -0.03087049 0.03844292
v 0.05380269 -0.03220823 0.03844292
v 0.05236094 -0.03439780 0.03844292
v 0.05301069 -0.03342599 0.03844292
v 0.05362968 -0.03247818 0.03844292
v 0.03094626 -0.05045065 0.02089020
v 0.03016195 -0.05095455 0.02089020
v 0.03464481 -0.04638945 0.01839598
v 0.03616344 -0.04578356 0.01898625
v 0.03756674 -0.04517768 0.01958096
v 0.03784355 -0.04541764 0.02073487
v 0.03673630 -0.04642544 0.02089020
v 0.03573285 -0.04717529 0.02073487
v 0.03421037 -0.04825508 0.02084138
v 0.03471017 -0.04840505 0.02284297
v 0.03220346 -0.05010871 0.02294061
v 0.05549817 -0.02051053 0.02089020
v 0.05496761 -0.02190225 0.02073487
v 0.05458699 -0.02293405 0.02089020
v 0.05390265 -0.02440376 0.02089020
v 0.05296840 -0.02560953 0.01973185
v 0.05326828 -0.02439776 0.01936793
v 0.05079233 -0.02321600 0.01611036
v 0.05245321 -0.02439776 0.01839155
v 0.05080386 -0.02712723 0.01804981
v 0.04179201 -0.02225618 0.00663944
v 0.02711699 -0.03878894 0.00663944
v 0.03326458 -0.04484175 0.01604823
v 0.03334147 -0.04684536 0.01795218
v 0.06036165 -0.01692323 0.03835415
v 0.06045392 -0.01661729 0.03833640
v 0.05880073 -0.01590343 0.02922497
v 0.06063078 -0.01547152 0.03761743
v 0.06091912 -0.01475166 0.03833640
v 0.05894683 -0.01471566 0.02862138
v 0.05866232 -0.01541153 0.02792460
v 0.05858543 -0.01721117 0.03024573
v 0.05706295 -0.01692323 0.02253674
v 0.05245321 -0.02821301 0.02279859
v 0.05314140 -0.02595746 0.02089020
v 0.05473309 -0.02327598 0.02215950
v 0.05498299 -0.02195024 0.02089020
v 0.05261084 -0.02878890 0.02479130
v 0.03993120 -0.04358800 0.02073487
v 0.03961209 -0.04330605 0.01950107
v 0.04157671 -0.04142842 0.01943450
v 0.04189966 -0.04174636 0.02073487
v 0.04193042 -0.04177635 0.02089020
v 0.04299923 -0.04283814 0.02807106
v 0.03576360 -0.04719329 0.02089020
v 0.03788200 -0.04544163 0.02089020
v 0.04306074 -0.04094252 0.02201748
v 0.04473701 -0.03868696 0.02089020
v 0.04559052 -0.03770315 0.02089020
v 0.04656706 -0.03655138 0.02089020
v 0.04732445 -0.03557957 0.02089020
v 0.04848554 -0.03383391 0.02073487
v 0.05036941 -0.03247818 0.02479130
v 0.05220716 -0.03247818 0.03244703
v 0.05284922 -0.03122442 0.03164374
v 0.05119986 -0.02977271 0.02089020
v 0.05290688 -0.02938878 0.02746748
v 0.03412194 -0.04578956 0.01749061
v 0.03552139 -0.04508170 0.01778353
v 0.03682473 -0.04452981 0.01827616
v 0.03822033 -0.04391793 0.01888862
v 0.05311834 -0.02591546 0.02073487
v 0.05132289 -0.02830300 0.01935018
v 0.05197648 -0.02830300 0.02089020
v 0.05102685 -0.02948476 0.01971854
v 0.05049245 -0.02830300 0.01837823
v 0.04951590 -0.02830300 0.01739741
v 0.04884693 -0.02712723 0.01610148
v 0.04143061 -0.02298204 0.00663944
v 0.02838957 -0.03790711 0.00663944
v 0.02937764 -0.03899290 0.00823272
v 0.02807815 -0.03943081 0.00782885
v 0.03317231 -0.04280815 0.01415759
v 0.03887008 -0.04265218 0.01820071
v 0.04025799 -0.04204030 0.01881761
v 0.04090389 -0.04074455 0.01813414
v 0.04218801 -0.04009068 0.01882204
v 0.04344521 -0.03943681 0.01950551
v 0.04290311 -0.04077455 0.02089020
v 0.04372971 -0.03976075 0.02073487
v 0.04532139 -0.03740321 0.01958540
v 0.04555976 -0.03767316 0.02073487
v 0.04713607 -0.03532762 0.01971410
v 0.04729754 -0.03555557 0.02073487
v 0.04886616 -0.03306606 0.02022005
v 0.04893152 -0.03316804 0.02073487
v 0.04939672 -0.03247818 0.02075706
v 0.05076541 -0.03102646 0.02243023
v 0.05058087 -0.03074452 0.02089020
v 0.05117679 -0.02973672 0.02073487
v 0.03447949 -0.04208229 0.01449489
v 0.03610193 -0.04376796 0.01710006
v 0.04930445 -0.03176432 0.01947001
v 0.04987730 -0.03018663 0.01894187
v 0.04915066 -0.02958075 0.01776578
v 0.04687848 -0.02710923 0.01415759
v 0.04116918 -0.02346795 0.00663944
v 0.02903547 -0.03742120 0.00663944
v 0.02948529 -0.03706128 0.00663944
v 0.03159985 -0.03922085 0.00999021
v 0.03668247 -0.04244822 0.01641659
v 0.03960825 -0.04135044 0.01765038
v 0.04149981 -0.03943681 0.01765482
v 0.04280315 -0.03869895 0.01820515
v 0.03712845 -0.03697129 0.01218707
v 0.03997733 -0.03783513 0.01519167
v 0.04466780 -0.03665336 0.01828503
v 0.04592500 -0.03599349 0.01899957
v 0.04522912 -0.03535761 0.01779240
v 0.04663242 -0.03415785 0.01831166
v 0.04871622 -0.03088249 0.01816964
v 0.03152680 -0.03529162 0.00663944
v 0.04649786 -0.02830300 0.01451264
v 0.04329911 -0.02569351 0.00995027
v 0.04698228 -0.03316804 0.01796993
v 0.04071935 -0.02419380 0.00663944
v 0.03056179 -0.03613146 0.00663944
v 0.03727839 -0.03906488 0.01402445
v 0.04336831 -0.03740321 0.01772139
v 0.03349910 -0.03527363 0.00807739
v 0.03359906 -0.03343799 0.00663944
v 0.03474477 -0.03215424 0.00663944
v 0.03901617 -0.03493170 0.01225365
v 0.03958518 -0.03362995 0.01177433
v 0.04316455 -0.03521364 0.01594615
v 0.03937757 -0.03143438 0.00999908
v 0.03721688 -0.02931680 0.00663944
v 0.04295694 -0.03300007 0.01416647
v 0.04565972 -0.03415785 0.01738854
v 0.03236494 -0.03455377 0.00663944
v 0.03892775 -0.02692327 0.00663944
v 0.03991582 -0.02543556 0.00663944
v 0.04058864 -0.02439776 0.00663944
v 0.04497538 -0.03308406 0.01606598
v 0.03913920 -0.02919082 0.00825047
v 0.03627878 -0.03040259 0.00663944
v 0.03755905 -0.02887289 0.00663944
v 0.03803963 -0.02820702 0.00663944
f 1 2 3
f 1 3 13
f 1 13 4
f 1 4 14
f 1 14 28
f 1 28 45
f 1 45 104
f 1 104 203
f 1 203 289
f 1 289 266
f 1 266 171
f 1 171 84
f 1 84 83
f 1 83 35
f 1 35 17
f 1 17 6
f 1 6 5
f 1 5 2
f 2 5 6
f 2 6 7
f 2 7 8
f 2 8 9
f 2 9 10
f 2 10 3
f 3 11 12
f 3 12 27
f 3 27 44
f 3 44 97
f 3 97 76
f 3 76 30
f 3 30 15
f 3 15 13
f 3 10 11
f 4 13 15
f 4 15 16
f 4 16 14
f 6 17 34
f 6 34 18
f 6 18 7
f 7 19 20
f 7 20 8
f 7 18 19
f 8 20 21
f 8 21 9
f 9 21 10
f 10 22 11
f 10 21 23
f 10 23 24
f 10 24 22
f 11 25 26
f 11 26 27
f 11 27 12
f 11 22 24
f 11 24 25
f 14 16 29
f 14 29 28
f 15 30 78
f 15 78 31
f 15 31 32
f 15 32 16
f 16 33 72
f 16 72 29
f 16 32 33
f 17 35 36
f 17 36 34
f 18 34 81
f 18 81 37
f 18 37 19
f 19 37 20
f 20 37 21
f 21 37 23
f 23 37 81
f 23 81 38
f 23 38 39
f 23 39 24
f 24 39 40
f 24 40 25
f 25 40 26
f 26 40 41
f 26 41 42
f 26 42 43
f 26 43 44
f 26 44 27
f 28 29 46
f 28 46 47
f 28 47 48
f 28 48 49
f 28 49 50
f 28 50 51
f 28 51 52
f 28 52 53
f 28 53 54
f 28 54 55
f 28 55 56
f 28 56 57
f 28 57 58
f 28 58 59
f 28 59 60
f 28 60 61
f 28 61 62
f 28 62 63
f 28 63 64
f 28 64 65
f 28 65 66
f 28 66 67
f 28 67 68
f 28 68 69
f 28 69 70
f 28 70 71
f 28 71 45
f 29 72 73
f 29 73 74
f 29 74 75
f 29 75 46
f 30 76 77
f 30 77 78
f 31 78 151
f 31 151 244
f 31 244 328
f 31 328 396
f 31 396 444
f 31 444 472
f 31 472 491
f 31 491 508
f 31 508 507
f 31 507 506
f 31 506 513
f 31 513 512
f 31 512 502
f 31 502 511
f 31 511 497
f 31 497 496
f 31 496 505
f 31 505 487
f 31 487 492
f 31 492 474
f 31 474 473
f 31 473 445
f 31 445 397
f 31 397 333
f 31 333 259
f 31 259 165
f 31 165 79
f 31 79 32
f 32 79 167
f 32 167 264
f 32 264 225
f 32 225 132
f 32 132 72
f 32 72 33
f 34 80 81
f 34 36 82
f 34 82 80
f 35 83 36
f 36 84 85
f 36 85 86
f 36 86 82
f 36 83 84
f 38 81 87
f 38 87 88
f 38 88 89
f 38 89 39
f 39 90 91
f 39 91 92
f 39 92 93
f 39 93 40
f 39 89 90
f 40 93 41
f 41 93 94
f 41 94 42
f 42 94 188
f 42 188 95
f 42 95 96
f 42 96 97
f 42 97 98
f 42 98 43
f 43 98 97
f 43 97 44
f 45 99 100
f 45 100 101
f 45 101 102
f 45 102 103
f 45 103 104
f 45 71 99
f 46 75 47
f 47 105 48
f 47 75 106
f 47 106 105
f 48 105 107
f 48 107 49
f 49 107 105
f 49 105 108
f 49 108 109
f 49 109 50
f 50 109 51
f 51 109 108
f 51 108 110
f 51 110 111
f 51 111 112
f 51 112 113
f 51 113 52
f 52 113 53
f 53 113 114
f 53 114 54
f 54 114 55
f 55 114 56
f 56 115 57
f 56 114 116
f 56 116 115
f 57 115 58
f 58 117 59
f 58 115 117
f 59 117 60
f 60 117 61
f 61 118 119
f 61 119 62
f 61 117 120
f 61 120 121
f 61 121 118
f 62 122 63
f 62 119 118
f 62 118 122
f 63 122 123
f 63 123 64
f 64 123 124
f 64 124 65
f 65 124 66
f 66 124 125
f 66 125 126
f 66 126 67
f 67 127 128
f 67 128 68
f 67 126 127
f 68 128 129
f 68 129 69
f 69 129 130
f 69 130 70
f 70 131 71
f 70 130 131
f 71 131 130
f 71 130 99
f 72 132 133
f 72 133 134
f 72 134 135
f 72 135 136
f 72 136 137
f 72 137 138
f 72 138 139
f 72 139 73
f 73 139 74
f 74 139 140
f 74 140 141
f 74 141 75
f 75 141 142
f 75 142 143
f 75 143 144
f 75 144 106
f 76 97 77
f 77 97 145
f 77 145 146
f 77 146 147
f 77 147 78
f 78 148 149
f 78 149 150
f 78 150 151
f 78 147 152
f 78 152 153
f 78 153 154
f 78 154 155
f 78 155 156
f 78 156 157
f 78 157 158
f 78 158 159
f 78 159 160
f 78 160 161
f 78 161 162
f 78 162 163
f 78 163 164
f 78 164 148
f 79 165 166
f 79 166 167
f 80 168 81
f 80 82 169
f 80 169 168
f 81 168 87
f 82 86 170
f 82 170 175
f 82 175 169
f 84 171 85
f 85 171 172
f 85 172 173
f 85 173 86
f 86 173 170
f 87 168 174
f 87 174 88
f 88 174 169
f 88 169 175
f 88 175 176
f 88 176 177
f 88 177 89
f 89 177 178
f 89 178 90
f 90 178 179
f 90 179 91
f 91 179 178
f 91 178 180
f 91 180 181
f 91 181 182
f 91 182 183
f 91 183 92
f 92 94 93
f 92 183 184
f 92 184 94
f 94 184 185
f 94 185 186
f 94 186 187
f 94 187 188
f 95 189 96
f 95 188 245
f 95 245 189
f 96 146 145
f 96 145 97
f 96 189 146
f 99 130 100
f 100 130 190
f 100 190 191
f 100 191 192
f 100 192 193
f 100 193 194
f 100 194 195
f 100 195 196
f 100 196 197
f 100 197 198
f 100 198 101
f 101 198 199
f 101 199 200
f 101 200 102
f 102 200 201
f 102 201 103
f 103 199 202
f 103 202 203
f 103 203 104
f 103 201 199
f 105 204 110
f 105 110 108
f 105 106 144
f 105 144 205
f 105 205 204
f 110 204 111
f 111 206 207
f 111 207 112
f 111 204 206
f 112 207 113
f 113 207 114
f 114 208 116
f 114 207 208
f 115 209 120
f 115 120 117
f 115 116 209
f 116 208 210
f 116 210 207
f 116 207 211
f 116 211 212
f 116 212 213
f 116 213 209
f 118 214 123
f 118 123 122
f 118 121 215
f 118 215 216
f 118 216 214
f 120 209 217
f 120 217 121
f 121 217 218
f 121 218 215
f 123 219 220
f 123 220 124
f 123 214 219
f 124 220 125
f 125 220 221
f 125 221 126
f 126 221 127
f 127 222 128
f 127 221 222
f 128 223 130
f 128 130 129
f 128 222 224
f 128 224 223
f 130 223 190
f 132 225 226
f 132 226 133
f 133 227 134
f 133 226 228
f 133 228 229
f 133 229 230
f 133 230 227
f 134 227 135
f 135 227 231
f 135 231 232
f 135 232 136
f 136 232 137
f 137 232 138
f 138 232 142
f 138 142 140
f 138 140 139
f 140 142 141
f 142 232 143
f 143 232 233
f 143 233 234
f 143 234 235
f 143 235 144
f 144 235 204
f 144 204 236
f 144 236 205
f 146 189 147
f 147 189 152
f 148 237 238
f 148 238 239
f 148 239 149
f 148 164 237
f 149 239 150
f 150 240 151
f 150 239 238
f 150 238 241
f 150 241 242
f 150 242 243
f 150 243 244
f 150 244 240
f 151 240 244
f 152 189 245
f 152 245 153
f 153 245 154
f 154 245 187
f 154 187 246
f 154 246 155
f 155 246 186
f 155 186 247
f 155 247 156
f 156 247 248
f 156 248 157
f 157 248 249
f 157 249 158
f 158 249 159
f 159 249 250
f 159 250 251
f 159 251 252
f 159 252 160
f 160 252 253
f 160 253 254
f 160 254 255
f 160 255 161
f 161 255 254
f 161 254 256
f 161 256 257
f 161 257 258
f 161 258 162
f 162 258 163
f 163 258 164
f 164 258 257
f 164 257 237
f 165 259 260
f 165 260 261
f 165 261 166
f 166 262 263
f 166 263 264
f 166 264 167
f 166 261 262
f 168 169 174
f 170 173 265
f 170 265 196
f 170 196 175
f 171 266 267
f 171 267 268
f 171 268 172
f 172 268 265
f 172 265 173
f 175 269 270
f 175 270 176
f 175 196 269
f 176 270 271
f 176 271 272
f 176 272 177
f 177 272 178
f 178 272 273
f 178 273 180
f 180 273 181
f 181 274 275
f 181 275 182
f 181 273 271
f 181 271 276
f 181 276 277
f 181 277 278
f 181 278 274
f 182 275 274
f 182 274 251
f 182 251 249
f 182 249 183
f 183 249 186
f 183 186 184
f 184 186 185
f 186 249 247
f 186 246 187
f 187 245 188
f 190 223 191
f 191 222 192
f 191 223 222
f 192 222 279
f 192 279 280
f 192 280 281
f 192 281 282
f 192 282 193
f 193 282 194
f 194 282 195
f 195 283 284
f 195 284 196
f 195 282 283
f 196 284 285
f 196 285 283
f 196 283 286
f 196 286 269
f 196 265 287
f 196 287 288
f 196 288 202
f 196 202 199
f 196 199 197
f 197 199 198
f 199 201 200
f 202 288 267
f 202 267 266
f 202 266 289
f 202 289 203
f 204 205 236
f 204 235 290
f 204 290 291
f 204 291 292
f 204 292 206
f 206 293 296
f 206 296 211
f 206 211 207
f 206 292 291
f 206 291 294
f 206 294 293
f 207 210 208
f 209 213 295
f 209 295 217
f 211 296 212
f 212 297 298
f 212 298 299
f 212 299 300
f 212 300 295
f 212 295 213
f 212 296 297
f 214 216 301
f 214 301 220
f 214 220 219
f 215 218 295
f 215 295 302
f 215 302 216
f 216 303 304
f 216 304 305
f 216 305 301
f 216 302 303
f 217 295 218
f 220 301 221
f 221 301 306
f 221 306 307
f 221 307 222
f 222 307 279
f 222 223 224
f 225 264 263
f 225 263 228
f 225 228 226
f 227 230 308
f 227 308 231
f 228 263 229
f 229 263 309
f 229 309 230
f 230 310 308
f 230 309 311
f 230 311 312
f 230 312 313
f 230 313 314
f 230 314 315
f 230 315 310
f 231 316 232
f 231 308 310
f 231 310 317
f 231 317 316
f 232 316 233
f 233 316 234
f 234 316 318
f 234 318 319
f 234 319 235
f 235 319 294
f 235 294 291
f 235 291 290
f 237 320 238
f 237 257 321
f 237 321 320
f 238 320 322
f 238 322 241
f 241 323 324
f 241 324 325
f 241 325 242
f 241 322 326
f 241 326 323
f 242 325 327
f 242 327 244
f 242 244 243
f 244 327 328
f 247 249 248
f 249 251 250
f 251 274 329
f 251 329 252
f 252 329 330
f 252 330 254
f 252 254 253
f 254 330 331
f 254 331 256
f 256 331 332
f 256 332 257
f 257 332 321
f 259 333 260
f 260 333 334
f 260 334 311
f 260 311 261
f 261 311 262
f 262 311 309
f 262 309 263
f 265 268 287
f 267 287 268
f 267 288 287
f 269 335 283
f 269 283 336
f 269 336 270
f 269 286 335
f 270 336 337
f 270 337 338
f 270 338 339
f 270 339 271
f 271 273 272
f 271 339 338
f 271 338 340
f 271 340 276
f 274 278 329
f 276 340 277
f 277 341 342
f 277 342 323
f 277 323 343
f 277 343 322
f 277 322 320
f 277 320 321
f 277 321 344
f 277 344 278
f 277 340 341
f 278 344 329
f 279 307 280
f 280 345 346
f 280 346 347
f 280 347 281
f 280 307 348
f 280 348 345
f 281 347 349
f 281 349 282
f 282 349 347
f 282 347 350
f 282 350 351
f 282 351 352
f 282 352 353
f 282 353 336
f 282 336 283
f 283 285 284
f 283 335 286
f 293 294 354
f 293 354 355
f 293 355 356
f 293 356 296
f 294 319 357
f 294 357 358
f 294 358 359
f 294 359 360
f 294 360 361
f 294 361 354
f 295 299 362
f 295 362 302
f 295 300 299
f 296 356 297
f 297 356 363
f 297 363 364
f 297 364 298
f 298 364 365
f 298 365 366
f 298 366 367
f 298 367 368
f 298 368 369
f 298 369 370
f 298 370 302
f 298 302 299
f 299 302 362
f 301 371 348
f 301 348 306
f 301 305 372
f 301 372 371
f 302 370 373
f 302 373 303
f 303 373 374
f 303 374 375
f 303 375 304
f 304 375 372
f 304 372 305
f 306 348 307
f 310 315 376
f 310 376 377
f 310 377 317
f 311 334 312
f 312 334 313
f 313 334 314
f 314 378 379
f 314 379 380
f 314 380 381
f 314 381 382
f 314 382 383
f 314 383 315
f 314 334 378
f 315 383 384
f 315 384 385
f 315 385 358
f 315 358 386
f 315 386 376
f 316 317 318
f 317 377 376
f 317 376 386
f 317 386 318
f 318 386 358
f 318 358 319
f 319 358 357
f 321 332 331
f 321 331 330
f 321 330 344
f 322 343 326
f 323 387 388
f 323 388 389
f 323 389 390
f 323 390 391
f 323 391 392
f 323 392 324
f 323 326 343
f 323 342 387
f 324 392 325
f 325 393 327
f 325 392 394
f 325 394 395
f 325 395 393
f 327 393 395
f 327 395 396
f 327 396 328
f 329 344 330
f 333 397 398
f 333 398 334
f 334 398 399
f 334 399 378
f 336 353 400
f 336 400 401
f 336 401 402
f 336 402 403
f 336 403 404
f 336 404 337
f 337 404 403
f 337 403 338
f 338 403 405
f 338 405 406
f 338 406 340
f 340 406 341
f 341 406 342
f 342 406 402
f 342 402 407
f 342 407 408
f 342 408 387
f 345 348 409
f 345 409 410
f 345 410 390
f 345 390 346
f 346 411 347
f 346 390 411
f 347 411 412
f 347 412 388
f 347 388 387
f 347 387 351
f 347 351 350
f 348 371 413
f 348 413 409
f 351 387 408
f 351 408 352
f 352 408 353
f 353 408 407
f 353 407 402
f 353 402 400
f 354 361 355
f 355 361 414
f 355 414 380
f 355 380 415
f 355 415 416
f 355 416 417
f 355 417 418
f 355 418 419
f 355 419 356
f 356 419 363
f 358 385 420
f 358 420 382
f 358 382 359
f 359 382 421
f 359 421 360
f 360 421 361
f 361 421 381
f 361 381 414
f 363 419 422
f 363 422 364
f 364 422 423
f 364 423 366
f 364 366 365
f 366 423 367
f 367 423 424
f 367 424 425
f 367 425 426
f 367 426 368
f 368 426 427
f 368 427 428
f 368 428 370
f 368 370 369
f 370 428 429
f 370 429 373
f 371 430 431
f 371 431 432
f 371 432 413
f 371 372 430
f 372 375 430
f 373 429 374
f 374 429 430
f 374 430 375
f 378 399 433
f 378 433 434
f 378 434 379
f 379 434 435
f 379 435 380
f 380 435 436
f 380 436 415
f 380 414 381
f 381 421 382
f 382 420 383
f 383 420 384
f 384 420 385
f 388 412 411
f 388 411 389
f 389 411 390
f 390 410 437
f 390 437 391
f 391 438 392
f 391 437 439
f 391 439 440
f 391 440 438
f 392 438 394
f 394 438 395
f 395 438 441
f 395 441 442
f 395 442 443
f 395 443 444
f 395 444 396
f 397 445 446
f 397 446 447
f 397 447 398
f 398 448 434
f 398 434 433
f 398 433 399
f 398 447 446
f 398 446 448
f 400 402 401
f 402 406 403
f 403 406 405
f 409 439 410
f 409 413 439
f 410 439 437
f 413 432 439
f 415 436 449
f 415 449 450
f 415 450 416
f 416 451 452
f 416 452 453
f 416 453 454
f 416 454 417
f 416 450 451
f 417 454 418
f 418 454 419
f 419 454 422
f 422 454 423
f 423 454 455
f 423 455 456
f 423 456 457
f 423 457 424
f 424 457 425
f 425 458 459
f 425 459 426
f 425 457 458
f 426 459 427
f 427 460 461
f 427 461 428
f 427 459 460
f 428 461 462
f 428 462 463
f 428 463 430
f 428 430 429
f 430 463 464
f 430 464 431
f 431 464 465
f 431 465 439
f 431 439 432
f 434 448 466
f 434 466 467
f 434 467 435
f 435 467 449
f 435 449 436
f 438 440 441
f 439 465 440
f 440 465 464
f 440 464 460
f 440 460 458
f 440 458 468
f 440 468 469
f 440 469 470
f 440 470 441
f 441 470 442
f 442 470 471
f 442 471 443
f 443 471 444
f 444 471 472
f 445 473 446
f 446 473 474
f 446 474 448
f 448 474 475
f 448 475 466
f 449 467 476
f 449 476 477
f 449 477 451
f 449 451 450
f 451 478 479
f 451 479 452
f 451 477 480
f 451 480 481
f 451 481 478
f 452 479 456
f 452 456 453
f 453 456 454
f 454 456 455
f 456 482 483
f 456 483 458
f 456 458 457
f 456 479 482
f 458 483 484
f 458 484 485
f 458 485 486
f 458 486 468
f 458 460 459
f 460 464 462
f 460 462 461
f 462 464 463
f 466 476 467
f 466 475 487
f 466 487 476
f 468 486 469
f 469 486 470
f 470 488 489
f 470 489 471
f 470 486 490
f 470 490 488
f 471 489 472
f 472 489 491
f 474 492 475
f 475 492 487
f 476 487 493
f 476 493 477
f 477 493 480
f 478 481 494
f 478 494 479
f 479 494 484
f 479 484 482
f 480 493 495
f 480 495 496
f 480 496 481
f 481 496 497
f 481 497 498
f 481 498 499
f 481 499 494
f 482 484 483
f 484 494 500
f 484 500 501
f 484 501 502
f 484 502 503
f 484 503 504
f 484 504 490
f 484 490 485
f 485 490 486
f 487 505 493
f 488 490 506
f 488 506 507
f 488 507 489
f 489 507 508
f 489 508 491
f 490 504 509
f 490 509 510
f 490 510 506
f 493 505 495
f 494 499 500
f 495 505 496
f 497 511 499
f 497 499 498
f 499 511 501
f 499 501 500
f 501 511 502
f 502 512 503
f 503 512 510
f 503 510 509
f 503 509 504
f 506 510 513
f 510 512 513

