# https://github.com/mikedh/trimesh
v -0.02429868 -0.05360037 0.05198060
v -0.02671332 -0.05241158 0.05198060
v -0.04587070 -0.04270512 0.03845272
v -0.04512160 -0.04270512 0.03561878
v -0.04467669 -0.04270512 0.03393861
v -0.04295793 -0.04270512 0.02751359
v -0.04263091 -0.04270512 0.02636704
v -0.04256626 -0.04270512 0.02614350
v -0.04115170 -0.04270512 0.02148517
v -0.04112509 -0.04270512 0.02140585
v -0.03125359 -0.04270512 0.02140585
v -0.02429868 -0.04807308 0.05198060
v -0.02429868 -0.05356361 0.05208155
v -0.02816590 -0.05169462 0.05198060
v -0.02805943 -0.05100218 0.05389873
v -0.04618632 -0.04234970 0.03845272
v -0.04591634 -0.04270512 0.04040690
v -0.04307201 -0.04075035 0.02140585
v -0.04286286 -0.04105674 0.02164381
v -0.04247880 -0.04137538 0.02140585
v -0.04185898 -0.04199429 0.02140585
v -0.04125057 -0.04258869 0.02140585
v -0.02429868 -0.04797504 0.05198781
v -0.04658179 -0.02509378 0.02140585
v -0.05232367 -0.00649586 0.02141306
v -0.02584633 0.00900139 0.08945630
v -0.02429868 -0.05134534 0.05777105
v -0.02432150 -0.05124729 0.05800902
v -0.02952342 -0.05097767 0.05198060
v -0.02915457 -0.05075094 0.05312715
v -0.02947399 -0.05095316 0.05212482
v -0.02619236 -0.05031586 0.05800902
v -0.04801536 -0.04026012 0.03845272
v -0.04889375 -0.03931031 0.04040690
v -0.04687078 -0.04117929 0.04174094
v -0.04874165 -0.03913873 0.04156788
v -0.03049308 -0.05035876 0.05198060
v -0.04533834 -0.04270512 0.04215918
v -0.04588972 -0.03752711 0.02140585
v -0.04886713 -0.03928580 0.03845272
v -0.02570944 0.00900139 0.09090572
v -0.02430248 -0.01282589 0.08926881
v -0.02429868 -0.02697502 0.08004591
v -0.04799254 -0.02503863 0.02140585
v -0.05894397 -0.00649586 0.02141306
v -0.05303476 0.00900139 0.05198781
v -0.02594520 0.00900139 0.08929766
v -0.02429868 -0.05123504 0.05805228
v -0.02429868 -0.05037714 0.06002089
v -0.02432150 -0.05037102 0.06001368
v -0.02500976 -0.05063451 0.05867243
v -0.02758410 -0.04901677 0.05943680
v -0.02820773 -0.04928639 0.05795854
v -0.02888459 -0.04864910 0.05859311
v -0.02932188 -0.04891872 0.05729513
v -0.04997749 -0.03792542 0.04040690
v -0.05066575 -0.03718396 0.03975791
v -0.05066575 -0.03718396 0.03915940
v -0.05054027 -0.03698787 0.04106311
v -0.04578324 -0.04203106 0.04247647
v -0.04384773 -0.04009467 0.05031485
v -0.04680233 -0.03720234 0.04940626
v -0.04868841 -0.03713493 0.04537530
v -0.04891657 -0.03742294 0.04430807
v -0.04924359 -0.03810925 0.04227456
v -0.03390399 -0.04809147 0.05198060
v -0.03208255 -0.04928639 0.05203108
v -0.03535277 -0.04709876 0.05198060
v -0.03631863 -0.04633891 0.05198060
v -0.04491626 -0.04270512 0.04306777
v -0.04261570 -0.04061553 0.05198060
v -0.04649052 -0.03682854 0.02140585
v -0.04677191 -0.03716557 0.02354753
v -0.04994326 -0.03792542 0.03848156
v -0.04874165 -0.03720234 0.03124890
v -0.02575887 0.00900139 0.09102830
v -0.02430248 -0.01666803 0.09455450
v -0.02430248 -0.01652096 0.09451123
v -0.02430248 -0.01465198 0.09325651
v -0.02430248 -0.01456619 0.09319161
v -0.02430248 -0.01446202 0.09309066
v -0.02430248 -0.01235405 0.09099946
v -0.02430248 -0.01226213 0.09063891
v -0.02429868 -0.02697502 0.08512968
v -0.05370782 -0.02503863 0.02140585
v -0.05892115 -0.00683902 0.02141306
v -0.06227122 -0.00649586 0.02877552
v -0.05817584 0.00900139 0.05198781
v -0.02429868 -0.04923124 0.06175154
v -0.02570183 -0.04901677 0.06118187
v -0.02700231 -0.04869812 0.06073479
v -0.02629884 -0.04938444 0.06002089
v -0.02820773 -0.04834883 0.06002089
v -0.03006339 -0.04727034 0.05981177
v -0.03118895 -0.04691493 0.05909067
v -0.03251985 -0.04649824 0.05798017
v -0.05288265 -0.03367272 0.04040690
v -0.05455959 -0.03131964 0.03972186
v -0.05455959 -0.03131964 0.03918824
v -0.05286364 -0.03364208 0.03845272
v -0.05051365 -0.03695110 0.03785420
v -0.04858194 -0.03698787 0.02994371
v -0.05029690 -0.03663245 0.04235388
v -0.05270774 -0.03341535 0.04174815
v -0.05443411 -0.03109291 0.04101984
v -0.04082088 -0.03900392 0.05888876
v -0.04377168 -0.03611772 0.05798017
v -0.04485161 -0.03526595 0.05724465
v -0.04992805 -0.03600129 0.04425038
v -0.04455881 -0.03489828 0.05854263
v -0.04672628 -0.03517403 0.05317042
v -0.04711415 -0.03413231 0.05392758
v -0.03501815 -0.04685365 0.05313436
v -0.03511701 -0.04499692 0.05723744
v -0.03747841 -0.04537072 0.05198060
v -0.04307201 -0.04270512 0.04701220
v -0.04250542 -0.04066456 0.05212482
v -0.04695444 -0.03622802 0.02140585
v -0.02681218 0.00900139 0.09309066
v -0.02430248 -0.01854314 0.09492947
v -0.02728370 0.00900139 0.09392714
v -0.02429868 -0.02850084 0.08398313
v -0.02430248 -0.02049792 0.09506648
v -0.02430248 -0.02243431 0.09498716
v -0.02430248 -0.02433393 0.09454729
v -0.05303856 -0.02640513 0.02140585
v -0.05431623 -0.02380694 0.02141306
v -0.05465085 -0.02306547 0.02141306
v -0.05488661 -0.02247720 0.02141306
v -0.05560530 -0.02049792 0.02141306
v -0.05656735 -0.01767299 0.02141306
v -0.05690959 -0.01666190 0.02141306
v -0.05747617 -0.01464585 0.02141306
v -0.05787924 -0.01268495 0.02141306
v -0.05849526 -0.00961492 0.02141306
v -0.05866638 -0.00874477 0.02141306
v -0.06310779 -0.00649586 0.03065039
v -0.05821767 0.00879304 0.05198781
v -0.05813782 0.00900139 0.05210319
v -0.06313060 -0.00649586 0.03085230
v -0.06314581 -0.00649586 0.03260458
v -0.06243093 -0.00649586 0.04016173
v -0.02429868 -0.04587933 0.06577529
v -0.02938273 -0.04700684 0.06108091
v -0.03068321 -0.04657177 0.06038866
v -0.03295715 -0.04483760 0.06080690
v -0.03344388 -0.04516850 0.05950170
v -0.03406370 -0.04545038 0.05792249
v -0.05394358 -0.03206110 0.04038527
v -0.05650271 -0.02741622 0.03967138
v -0.05491704 -0.03036983 0.04038527
v -0.05490183 -0.03033306 0.03850319
v -0.05441130 -0.03104389 0.03789026
v -0.05256704 -0.02929746 0.02571805
v -0.05109544 -0.03011859 0.02140585
v -0.05249479 -0.03112355 0.02993649
v -0.05265070 -0.03136866 0.03123448
v -0.05391315 -0.03206110 0.03850319
v -0.05650271 -0.02741622 0.03923151
v -0.04869222 -0.03377076 0.02140585
v -0.04924359 -0.03624640 0.03061433
v -0.04821309 -0.03448159 0.02140585
v -0.04750201 -0.03549268 0.02140585
v -0.04720921 -0.03589099 0.02140585
v -0.05095475 -0.03565200 0.04235388
v -0.05103080 -0.03186501 0.04820923
v -0.05259747 -0.03129513 0.04538251
v -0.05317926 -0.03229396 0.04238273
v -0.05425919 -0.03036983 0.04254858
v -0.05476113 -0.02978768 0.04202938
v -0.05638483 -0.02717111 0.04097658
v -0.04268795 -0.03696336 0.05871570
v -0.04084750 -0.04098320 0.05505250
v -0.04001093 -0.04015595 0.05823256
v -0.03885495 -0.04095256 0.05887434
v -0.03954702 -0.03967798 0.05992715
v -0.04052048 -0.03866689 0.05992715
v -0.04235332 -0.03657730 0.05992715
v -0.04320890 -0.03559685 0.05992715
v -0.04426982 -0.03420584 0.06008579
v -0.04504174 -0.03358693 0.05953776
v -0.04533074 -0.03420584 0.05792970
v -0.04637264 -0.03269227 0.05798017
v -0.03474436 -0.04470279 0.05852821
v -0.03596879 -0.04391842 0.05796575
v -0.04256626 -0.04270512 0.04804338
v -0.03953181 -0.04350173 0.05212482
v -0.02799479 0.00900139 0.09446075
v -0.02804802 0.00900139 0.09448960
v -0.02429868 -0.03036370 0.08254814
v -0.02990368 0.00900139 0.09503763
v -0.03012043 0.00900139 0.09507369
v -0.02621518 -0.01854314 0.09507369
v -0.02816590 -0.01659450 0.09506648
v -0.02621518 -0.02049792 0.09495831
v -0.02617715 -0.02236077 0.09451844
v -0.02549649 -0.02370276 0.09431653
v -0.02429868 -0.04378974 0.06825588
v -0.02429868 -0.04267448 0.06956108
v -0.02429868 -0.04052974 0.07202725
v -0.02429868 -0.03868527 0.07409682
v -0.02429868 -0.03378915 0.07953393
v -0.02429868 -0.03230009 0.08096892
v -0.02429868 -0.03201821 0.08121410
v -0.02429868 -0.03161990 0.08154581
v -0.05454438 -0.02349442 0.02171592
v -0.05211073 -0.02827411 0.02140585
v -0.05224382 -0.02865404 0.02284085
v -0.05474592 -0.02975704 0.03650574
v -0.05642285 -0.02331671 0.02984996
v -0.05841160 -0.02342701 0.03942620
v -0.06037754 -0.01761171 0.03936852
v -0.05848766 0.00682601 0.05198781
v -0.05651792 0.00808834 0.05716533
v -0.06227122 -0.00649586 0.04112080
v -0.05607302 0.00900139 0.05789364
v -0.06037754 -0.01761171 0.03949831
v -0.06099736 -0.01464585 0.04040690
v -0.06236629 -0.00811360 0.03973628
v -0.06242332 -0.00683902 0.04007520
v -0.03508659 -0.04301764 0.06098717
v -0.03406370 -0.04440252 0.06006416
v -0.05841160 -0.02342701 0.03943342
v -0.05685255 -0.02645415 0.04035643
v -0.05598176 -0.02816381 0.03853204
v -0.05136923 -0.02963449 0.02140585
v -0.05082546 -0.03054753 0.02140585
v -0.05056688 -0.03117870 0.02201879
v -0.05684114 -0.02642351 0.03853204
v -0.05004973 -0.03173020 0.02140585
v -0.05019423 -0.03074362 0.05198060
v -0.04878728 -0.02948129 0.05733118
v -0.05063533 -0.02932197 0.05317763
v -0.05244536 -0.02905847 0.04890870
v -0.05670425 -0.02586588 0.04200775
v -0.05304997 -0.02836603 0.04823808
v -0.05792868 -0.02420524 0.04021221
v -0.04058512 -0.04270512 0.05184359
v -0.04051287 -0.04270512 0.05198060
v -0.03545164 -0.04334241 0.05992715
v -0.03851652 -0.04065230 0.05992715
v -0.03681677 -0.04282155 0.05870128
v -0.03914394 -0.03927967 0.06114581
v -0.04101481 -0.03727587 0.06107370
v -0.04288568 -0.03522918 0.06098717
v -0.04470331 -0.03312121 0.06083574
v -0.04677952 -0.03134415 0.05912673
v -0.04574141 -0.03223268 0.05998484
v -0.04804578 -0.03017986 0.05798017
v -0.03207115 0.00682601 0.09507369
v -0.03185440 0.00900139 0.09500158
v -0.03012043 -0.01269108 0.09507369
v -0.03012043 -0.01463973 0.09490063
v -0.02833702 -0.01871472 0.09467708
v -0.02777043 -0.02049792 0.09446075
v -0.02735595 -0.02167446 0.09425884
v -0.03713238 -0.04114865 0.06106649
v -0.05655975 -0.02364149 0.03114795
v -0.05617569 -0.02503863 0.03247478
v -0.05789825 -0.02420524 0.03864741
v -0.05750279 -0.02503863 0.03860415
v -0.05862075 0.00487124 0.05198781
v -0.05632019 0.00487124 0.05854984
v -0.05624033 0.00682601 0.05833351
v -0.05612626 0.00875015 0.05787922
v -0.05530490 0.00878078 0.05992715
v -0.05606541 0.00875627 0.05803786
v -0.06225981 -0.00683902 0.04105590
v -0.06186434 -0.00683902 0.04235388
v -0.06189476 -0.00649586 0.04233225
v -0.05887552 0.00096782 0.05198781
v -0.05876144 0.00278778 0.05198781
v -0.05525546 0.00900139 0.05993436
v -0.05998588 -0.01837769 0.04025547
v -0.06026346 -0.01723179 0.04080351
v -0.06054485 -0.01658837 0.04025547
v -0.06045359 -0.01593269 0.04163278
v -0.06177308 -0.01074243 0.04040690
v -0.06214193 -0.00876928 0.04039248
v -0.05829753 -0.02308385 0.04073140
v -0.05048703 -0.03106840 0.02140585
v -0.04851350 -0.02905847 0.05862917
v -0.04918275 -0.02836603 0.05798017
v -0.05021705 -0.02635611 0.05804507
v -0.05048323 -0.02697502 0.05658845
v -0.05339981 -0.02503250 0.05156236
v -0.05471170 -0.02383145 0.04970913
v -0.05651412 -0.02354344 0.04543299
v -0.05696283 -0.02503863 0.04234667
v -0.04687458 -0.02954257 0.06110255
v -0.04644489 -0.03084167 0.06042471
v -0.04715978 -0.03021663 0.05983341
v -0.03207115 -0.00683902 0.09507369
v -0.03207115 0.00878078 0.09499437
v -0.03364161 0.00682601 0.09457613
v -0.03379372 0.00487124 0.09457613
v -0.03392681 0.00292259 0.09457613
v -0.03420059 0.00102297 0.09450402
v -0.03209016 0.00900139 0.09495831
v -0.03207115 -0.00879379 0.09499437
v -0.03184680 -0.01269108 0.09457613
v -0.03144372 -0.01463973 0.09439585
v -0.03015465 -0.01649645 0.09453286
v -0.02953483 -0.01817547 0.09441027
v -0.05673467 0.00090041 0.05813161
v -0.05643046 0.00150707 0.05886713
v -0.05606541 0.00390917 0.05934306
v -0.05606541 0.00487124 0.05916999
v -0.05606541 0.00555755 0.05904019
v -0.05559009 0.00682601 0.05992715
v -0.05468888 0.00878078 0.06114581
v -0.05466606 0.00900139 0.06112418
v -0.05517561 0.00900139 0.06010743
v -0.06162478 -0.00878766 0.04235388
v -0.05851047 -0.00832195 0.05142535
v -0.06025965 -0.00683902 0.04694009
v -0.05673467 -0.00091342 0.05813161
v -0.05886792 -0.00112176 0.05198781
v -0.05887552 -0.00098083 0.05198781
v -0.05647229 0.00020797 0.05898972
v -0.05851808 -0.02179089 0.04166883
v -0.05936605 -0.01854927 0.04235388
v -0.06001249 -0.01658837 0.04231783
v -0.05845723 -0.01576724 0.04736554
v -0.06059428 -0.01464585 0.04203660
v -0.06125973 -0.01074243 0.04235388
v -0.05710351 -0.02457904 0.04254137
v -0.05805036 -0.02244043 0.04233225
v -0.04824351 -0.02836603 0.06004974
v -0.04889375 -0.02775325 0.05948007
v -0.05051745 -0.02519182 0.05873012
v -0.05114108 -0.02448100 0.05804507
v -0.05264689 -0.02360472 0.05529046
v -0.05668524 -0.02231788 0.04615409
v -0.05446072 -0.02329833 0.05100711
v -0.05269633 -0.02178476 0.05738166
v -0.05245297 -0.02117810 0.05867243
v -0.04858194 -0.02718949 0.06078526
v -0.03420059 -0.00102985 0.09450402
v -0.03392681 -0.00293560 0.09457613
v -0.03379372 -0.00488424 0.09457613
v -0.03364161 -0.00683902 0.09457613
v -0.03346289 0.00878078 0.09450402
v -0.03502195 0.00040406 0.09412183
v -0.03343247 0.00900139 0.09447518
v -0.03346289 -0.00879379 0.09450402
v -0.03324614 -0.01035638 0.09430932
v -0.03117374 -0.01577950 0.09418673
v -0.05588669 0.00292259 0.05992715
v -0.05574980 0.00487124 0.05992715
v -0.05483338 0.00682601 0.06134772
v -0.06038134 -0.00984777 0.04533203
v -0.06047641 -0.00878766 0.04561327
v -0.05651792 -0.00809522 0.05715812
v -0.05825190 -0.00683902 0.05265123
v -0.05855230 -0.00649586 0.05187244
v -0.05666242 -0.00488424 0.05758357
v -0.05632019 -0.00488424 0.05854984
v -0.05643046 -0.00151394 0.05886713
v -0.05647229 -0.00021485 0.05898972
v -0.05609203 0.00090041 0.05974688
v -0.05606541 0.00117617 0.05977572
v -0.05827851 -0.02108619 0.04297403
v -0.05465846 -0.01606751 0.05741771
v -0.05668143 -0.01626972 0.05173543
v -0.05857892 -0.01464585 0.04770446
v -0.06024825 -0.01464585 0.04301009
v -0.05643807 -0.01553439 0.05304783
v -0.05459382 -0.01399630 0.05916999
v -0.05531250 -0.01269108 0.05798738
v -0.05083687 -0.02389273 0.05946564
v -0.05214495 -0.02242818 0.05800902
v -0.05649890 -0.02158867 0.04733670
v -0.05447594 -0.02138032 0.05301178
v -0.05429722 -0.02063886 0.05418717
v -0.05422496 -0.01666803 0.05803065
v -0.05292449 -0.02051630 0.05800902
v -0.05121332 -0.02254461 0.06003532
v -0.05213735 -0.02051630 0.05990552
v -0.05267352 -0.01987288 0.05924210
v -0.05052506 -0.02326156 0.06076363
v -0.03502195 -0.00041707 0.09412183
v -0.05491704 0.00487124 0.06145589
v -0.05504632 0.00096782 0.06162895
v -0.05468888 -0.00879379 0.06114581
v -0.05456339 -0.01006837 0.06098717
v -0.05443791 -0.01136747 0.06076363
v -0.05430862 -0.01269108 0.06047519
v -0.05309180 -0.01463973 0.06160011
v -0.05278379 -0.01659450 0.06120350
v -0.05259747 -0.01770363 0.06095833
v -0.05083687 -0.02197472 0.06120350
v -0.05570037 -0.01073631 0.05798738
v -0.05612626 -0.00876315 0.05787922
v -0.05530490 -0.00879379 0.05992715
v -0.05624033 -0.00683902 0.05833351
v -0.05658637 -0.00683902 0.05736724
v -0.05660538 -0.00642845 0.05741771
v -0.05625935 -0.00642845 0.05838399
v -0.05559389 -0.00683902 0.05992715
v -0.05606541 -0.00488424 0.05916999
v -0.05574980 -0.00488424 0.05992715
v -0.05588669 -0.00293560 0.05992715
v -0.05606541 -0.00117692 0.05977572
v -0.05609203 -0.00091342 0.05974688
v -0.05606541 0.00094944 0.05979735
v -0.05441890 -0.01529540 0.05870849
v -0.05409948 -0.01464585 0.05986225
v -0.05473451 -0.01269108 0.05950170
v -0.05238071 -0.01900886 0.06054009
v -0.05346065 -0.01659450 0.05992715
v -0.05504632 -0.00098083 0.06162895
v -0.05491704 -0.00488424 0.06145589
v -0.05483338 -0.00683902 0.06134772
v -0.05606541 -0.00091342 0.05979735
f 1 2 3
f 1 3 4
f 1 4 5
f 1 5 6
f 1 6 7
f 1 7 8
f 1 8 9
f 1 9 10
f 1 10 11
f 1 11 12
f 1 12 23
f 1 23 43
f 1 43 84
f 1 84 122
f 1 122 190
f 1 190 205
f 1 205 204
f 1 204 203
f 1 203 202
f 1 202 201
f 1 201 200
f 1 200 199
f 1 199 198
f 1 198 143
f 1 143 89
f 1 89 49
f 1 49 48
f 1 48 27
f 1 27 13
f 1 13 2
f 2 14 3
f 2 13 15
f 2 15 14
f 3 16 4
f 3 14 17
f 3 17 16
f 4 16 5
f 5 16 18
f 5 18 19
f 5 19 6
f 6 19 7
f 7 19 8
f 8 19 20
f 8 20 21
f 8 21 22
f 8 22 9
f 9 22 10
f 10 22 21
f 10 21 20
f 10 20 18
f 10 18 39
f 10 39 72
f 10 72 118
f 10 118 164
f 10 164 163
f 10 163 162
f 10 162 160
f 10 160 230
f 10 230 281
f 10 281 227
f 10 227 155
f 10 155 226
f 10 226 207
f 10 207 126
f 10 126 85
f 10 85 44
f 10 44 24
f 10 24 11
f 11 23 12
f 11 24 25
f 11 25 26
f 11 26 23
f 13 27 28
f 13 28 15
f 14 29 17
f 14 15 30
f 14 30 31
f 14 31 29
f 15 28 32
f 15 32 30
f 16 33 18
f 16 17 34
f 16 34 33
f 17 35 36
f 17 36 34
f 17 29 37
f 17 37 38
f 17 38 35
f 18 20 19
f 18 33 40
f 18 40 39
f 23 26 41
f 23 41 42
f 23 42 43
f 24 44 25
f 25 44 85
f 25 85 45
f 25 45 88
f 25 88 46
f 25 46 47
f 25 47 26
f 26 47 46
f 26 46 88
f 26 88 139
f 26 139 216
f 26 216 273
f 26 273 313
f 26 313 312
f 26 312 345
f 26 345 299
f 26 299 251
f 26 251 192
f 26 192 191
f 26 191 189
f 26 189 188
f 26 188 121
f 26 121 119
f 26 119 76
f 26 76 41
f 27 48 28
f 28 48 49
f 28 49 50
f 28 50 51
f 28 51 32
f 29 31 37
f 30 32 52
f 30 52 53
f 30 53 54
f 30 54 55
f 30 55 37
f 30 37 31
f 32 51 52
f 33 34 40
f 34 36 56
f 34 56 57
f 34 57 58
f 34 58 40
f 35 38 36
f 36 59 56
f 36 38 60
f 36 60 61
f 36 61 62
f 36 62 63
f 36 63 64
f 36 64 65
f 36 65 59
f 37 66 38
f 37 55 67
f 37 67 66
f 38 66 68
f 38 68 69
f 38 69 70
f 38 70 71
f 38 71 61
f 38 61 60
f 39 40 73
f 39 73 72
f 40 58 74
f 40 74 75
f 40 75 73
f 41 76 77
f 41 77 78
f 41 78 79
f 41 79 80
f 41 80 81
f 41 81 82
f 41 82 83
f 41 83 42
f 42 83 43
f 43 83 84
f 45 85 86
f 45 86 87
f 45 87 88
f 49 89 90
f 49 90 91
f 49 91 50
f 50 91 92
f 50 92 52
f 50 52 51
f 52 54 53
f 52 92 91
f 52 91 93
f 52 93 54
f 54 93 94
f 54 94 95
f 54 95 55
f 55 96 67
f 55 95 96
f 56 59 57
f 57 59 97
f 57 97 98
f 57 98 99
f 57 99 58
f 58 99 100
f 58 100 101
f 58 101 102
f 58 102 75
f 58 75 74
f 59 65 103
f 59 103 104
f 59 104 105
f 59 105 97
f 61 71 106
f 61 106 107
f 61 107 62
f 62 107 108
f 62 108 63
f 63 109 103
f 63 103 64
f 63 108 110
f 63 110 111
f 63 111 112
f 63 112 109
f 64 103 65
f 66 67 96
f 66 96 113
f 66 113 68
f 68 113 114
f 68 114 69
f 69 115 116
f 69 116 70
f 69 114 115
f 70 116 117
f 70 117 71
f 71 117 106
f 72 73 102
f 72 102 118
f 73 75 102
f 76 119 77
f 77 120 84
f 77 84 78
f 77 119 121
f 77 121 120
f 78 84 79
f 79 84 80
f 80 84 81
f 81 84 82
f 82 84 83
f 84 120 123
f 84 123 124
f 84 124 125
f 84 125 122
f 85 126 127
f 85 127 128
f 85 128 129
f 85 129 130
f 85 130 131
f 85 131 132
f 85 132 133
f 85 133 134
f 85 134 135
f 85 135 136
f 85 136 86
f 86 136 87
f 87 136 137
f 87 137 88
f 88 138 139
f 88 137 140
f 88 140 141
f 88 141 142
f 88 142 138
f 89 143 125
f 89 125 90
f 90 125 91
f 91 144 93
f 91 125 144
f 93 144 145
f 93 145 94
f 94 145 95
f 95 145 146
f 95 146 147
f 95 147 96
f 96 148 113
f 96 147 148
f 97 149 98
f 97 105 149
f 98 150 159
f 98 159 99
f 98 149 105
f 98 105 151
f 98 151 150
f 99 152 153
f 99 153 154
f 99 154 155
f 99 155 156
f 99 156 157
f 99 157 158
f 99 158 100
f 99 159 152
f 100 157 101
f 100 158 157
f 101 157 160
f 101 160 161
f 101 161 102
f 102 161 162
f 102 162 163
f 102 163 164
f 102 164 118
f 103 165 104
f 103 109 165
f 104 166 167
f 104 167 168
f 104 168 105
f 104 165 109
f 104 109 112
f 104 112 166
f 105 168 167
f 105 167 169
f 105 169 170
f 105 170 171
f 105 171 151
f 106 172 107
f 106 117 173
f 106 173 174
f 106 174 175
f 106 175 176
f 106 176 177
f 106 177 178
f 106 178 179
f 106 179 172
f 107 172 110
f 107 110 108
f 110 172 179
f 110 179 180
f 110 180 181
f 110 181 182
f 110 182 111
f 111 182 183
f 111 183 112
f 112 183 166
f 113 148 184
f 113 184 114
f 114 184 185
f 114 185 115
f 115 186 116
f 115 185 187
f 115 187 186
f 116 186 173
f 116 173 117
f 120 121 188
f 120 188 189
f 120 189 123
f 122 125 190
f 123 191 192
f 123 192 193
f 123 193 124
f 123 189 191
f 124 193 194
f 124 194 195
f 124 195 125
f 125 195 196
f 125 196 197
f 125 197 146
f 125 146 144
f 125 143 198
f 125 198 199
f 125 199 200
f 125 200 201
f 125 201 202
f 125 202 203
f 125 203 204
f 125 204 205
f 125 205 190
f 126 206 127
f 126 207 208
f 126 208 154
f 126 154 209
f 126 209 206
f 127 206 128
f 128 206 210
f 128 210 129
f 129 210 137
f 129 137 130
f 130 137 131
f 131 137 132
f 132 137 133
f 133 137 134
f 134 137 135
f 135 137 136
f 137 210 211
f 137 211 212
f 137 212 140
f 138 213 214
f 138 214 139
f 138 142 215
f 138 215 213
f 139 214 216
f 140 212 141
f 141 212 217
f 141 217 218
f 141 218 219
f 141 219 220
f 141 220 142
f 142 220 215
f 144 146 145
f 146 221 222
f 146 222 147
f 146 197 221
f 147 184 148
f 147 222 184
f 150 223 211
f 150 211 159
f 150 151 224
f 150 224 223
f 151 171 224
f 152 159 225
f 152 225 209
f 152 209 153
f 153 209 154
f 154 208 226
f 154 226 155
f 155 227 157
f 155 157 156
f 157 227 228
f 157 228 160
f 159 211 229
f 159 229 225
f 160 162 161
f 160 228 230
f 166 231 167
f 166 183 231
f 167 231 232
f 167 232 233
f 167 233 169
f 169 234 170
f 169 233 234
f 170 235 171
f 170 234 236
f 170 236 235
f 171 235 237
f 171 237 224
f 173 186 238
f 173 238 239
f 173 239 187
f 173 187 185
f 173 185 175
f 173 175 174
f 175 240 241
f 175 241 176
f 175 185 242
f 175 242 240
f 176 243 177
f 176 241 243
f 177 243 244
f 177 244 245
f 177 245 178
f 178 245 179
f 179 245 180
f 180 245 246
f 180 246 181
f 181 247 183
f 181 183 182
f 181 246 248
f 181 248 247
f 183 247 249
f 183 249 232
f 183 232 231
f 184 222 240
f 184 240 242
f 184 242 185
f 186 187 238
f 187 239 238
f 192 250 293
f 192 293 252
f 192 252 193
f 192 251 250
f 193 252 194
f 194 252 253
f 194 253 195
f 195 253 254
f 195 254 255
f 195 255 196
f 196 255 256
f 196 256 197
f 197 256 244
f 197 244 243
f 197 243 257
f 197 257 221
f 206 258 210
f 206 209 229
f 206 229 259
f 206 259 258
f 207 226 208
f 209 225 229
f 210 258 211
f 211 260 261
f 211 261 229
f 211 223 217
f 211 217 212
f 211 258 260
f 213 215 262
f 213 262 263
f 213 263 264
f 213 264 214
f 214 265 216
f 214 264 266
f 214 266 267
f 214 267 265
f 215 220 268
f 215 268 269
f 215 269 270
f 215 270 271
f 215 271 272
f 215 272 262
f 216 265 267
f 216 267 266
f 216 266 273
f 217 223 274
f 217 274 275
f 217 275 276
f 217 276 218
f 218 276 277
f 218 277 278
f 218 278 219
f 219 278 279
f 219 279 268
f 219 268 220
f 221 257 241
f 221 241 240
f 221 240 222
f 223 224 237
f 223 237 280
f 223 280 274
f 227 281 228
f 228 281 230
f 229 261 258
f 229 258 259
f 232 249 282
f 232 282 233
f 233 282 283
f 233 283 284
f 233 284 285
f 233 285 234
f 234 285 236
f 235 280 237
f 235 236 286
f 235 286 287
f 235 287 288
f 235 288 289
f 235 289 280
f 236 285 286
f 241 257 243
f 244 256 245
f 245 256 246
f 246 290 291
f 246 291 248
f 246 256 290
f 247 248 291
f 247 291 292
f 247 292 282
f 247 282 249
f 250 251 294
f 250 294 295
f 250 295 296
f 250 296 297
f 250 297 298
f 250 298 339
f 250 339 293
f 251 299 294
f 252 293 300
f 252 300 253
f 253 300 301
f 253 301 302
f 253 302 303
f 253 303 304
f 253 304 254
f 254 304 255
f 255 304 256
f 256 304 290
f 258 261 260
f 262 272 263
f 263 272 305
f 263 305 306
f 263 306 307
f 263 307 308
f 263 308 309
f 263 309 264
f 264 309 310
f 264 310 266
f 266 310 311
f 266 311 312
f 266 312 313
f 266 313 273
f 268 279 314
f 268 314 269
f 269 314 315
f 269 315 316
f 269 316 270
f 270 316 317
f 270 317 318
f 270 318 319
f 270 319 271
f 271 319 360
f 271 360 320
f 271 320 305
f 271 305 272
f 274 280 275
f 275 280 321
f 275 321 277
f 275 277 276
f 277 321 322
f 277 322 323
f 277 323 324
f 277 324 325
f 277 325 278
f 278 325 326
f 278 326 314
f 278 314 279
f 280 289 327
f 280 327 328
f 280 328 321
f 282 292 329
f 282 329 330
f 282 330 283
f 283 330 284
f 284 330 331
f 284 331 332
f 284 332 285
f 285 332 286
f 286 332 333
f 286 333 287
f 287 333 288
f 288 334 328
f 288 328 327
f 288 327 289
f 288 333 335
f 288 335 336
f 288 336 337
f 288 337 334
f 290 338 291
f 290 304 338
f 291 329 292
f 291 338 329
f 293 339 340
f 293 340 341
f 293 341 342
f 293 342 300
f 294 299 343
f 294 343 295
f 295 343 344
f 295 344 296
f 296 344 297
f 297 344 298
f 298 344 382
f 298 382 339
f 299 345 343
f 300 342 346
f 300 346 301
f 301 346 347
f 301 347 302
f 302 347 348
f 302 348 304
f 302 304 303
f 304 348 338
f 305 320 306
f 306 320 307
f 307 320 349
f 307 349 350
f 307 350 308
f 308 350 309
f 309 350 310
f 310 350 351
f 310 351 311
f 311 351 344
f 311 344 343
f 311 343 312
f 312 343 345
f 314 326 352
f 314 352 353
f 314 353 315
f 315 353 352
f 315 352 354
f 315 354 355
f 315 355 316
f 316 356 357
f 316 357 317
f 316 355 356
f 317 357 358
f 317 358 359
f 317 359 360
f 317 360 319
f 317 319 318
f 320 360 405
f 320 405 361
f 320 361 362
f 320 362 349
f 321 328 334
f 321 334 363
f 321 363 322
f 322 363 364
f 322 364 365
f 322 365 324
f 322 324 323
f 324 366 367
f 324 367 325
f 324 365 364
f 324 364 368
f 324 368 369
f 324 369 370
f 324 370 366
f 325 367 352
f 325 352 326
f 329 338 330
f 330 371 331
f 330 338 371
f 331 372 332
f 331 371 372
f 332 372 333
f 333 372 336
f 333 336 335
f 334 373 363
f 334 337 374
f 334 374 375
f 334 375 373
f 336 372 337
f 337 376 364
f 337 364 377
f 337 377 375
f 337 375 374
f 337 372 371
f 337 371 378
f 337 378 379
f 337 379 380
f 337 380 376
f 338 348 381
f 338 381 371
f 339 382 340
f 340 382 341
f 341 382 342
f 342 382 346
f 344 351 383
f 344 383 384
f 344 384 412
f 344 412 382
f 346 382 385
f 346 385 386
f 346 386 387
f 346 387 347
f 347 387 388
f 347 388 389
f 347 389 390
f 347 390 391
f 347 391 392
f 347 392 348
f 348 392 381
f 349 384 383
f 349 383 350
f 349 362 384
f 350 383 351
f 352 367 366
f 352 366 370
f 352 370 393
f 352 393 354
f 354 393 394
f 354 394 395
f 354 395 396
f 354 396 397
f 354 397 355
f 355 397 398
f 355 398 356
f 356 398 357
f 357 398 358
f 358 398 399
f 358 399 400
f 358 400 401
f 358 401 359
f 359 401 360
f 360 401 402
f 360 402 403
f 360 403 404
f 360 404 405
f 361 405 415
f 361 415 406
f 361 406 362
f 362 406 384
f 363 373 375
f 363 375 364
f 364 375 377
f 364 376 407
f 364 407 368
f 368 407 369
f 369 407 408
f 369 408 388
f 369 388 409
f 369 409 370
f 370 409 393
f 371 381 378
f 376 380 407
f 378 381 392
f 378 392 379
f 379 392 410
f 379 410 380
f 380 410 411
f 380 411 407
f 382 412 413
f 382 413 414
f 382 414 385
f 384 406 415
f 384 415 412
f 385 414 400
f 385 400 395
f 385 395 386
f 386 395 387
f 387 395 388
f 388 390 389
f 388 395 409
f 388 408 390
f 390 408 391
f 391 411 410
f 391 410 392
f 391 408 411
f 393 409 394
f 394 409 395
f 395 400 396
f 396 399 398
f 396 398 397
f 396 400 399
f 400 402 401
f 400 414 402
f 402 414 413
f 402 413 403
f 403 413 412
f 403 412 404
f 404 415 405
f 404 412 415
f 407 411 408

