# https://github.com/mikedh/trimesh
v 0.05814226 -0.00920805 0.05197914
v 0.05581745 -0.00920805 0.06193442
v 0.05746605 -0.01256694 0.05197914
v 0.05299526 -0.00920805 0.05197914
v 0.05103930 -0.02177349 0.06107810
v 0.05132989 -0.02243457 0.05993071
v 0.05225759 -0.02034438 0.05977042
v 0.05264319 -0.02088881 0.05840789
v 0.05288909 -0.02156933 0.05711286
v 0.05467181 -0.02108810 0.05274266
v 0.05507977 -0.02070409 0.05197914
v 0.05516360 -0.02046591 0.05197914
v 0.05652160 -0.01647997 0.05197914
v 0.05697427 -0.01484670 0.05197914
v 0.05705251 -0.01454532 0.05197914
v 0.03355292 -0.00920805 0.09434392
v 0.03344115 -0.01007329 0.09422159
v 0.03168078 -0.01427798 0.09436923
v 0.02601405 -0.00920805 0.08907943
v 0.00112852 -0.05381657 0.05197914
v 0.00105028 -0.05381657 0.05198758
v 0.00105028 -0.02773296 0.08882211
v 0.00105028 -0.02710590 0.08975858
v 0.04910009 -0.02570110 0.06109919
v 0.05072075 -0.02307621 0.06056768
v 0.05103930 -0.02370813 0.05926421
v 0.05226318 -0.02231305 0.05784685
v 0.05284437 -0.02341648 0.05502900
v 0.05441474 -0.02248318 0.05197914
v 0.05439238 -0.02242971 0.05210148
v 0.05448739 -0.02230819 0.05197914
v 0.03336291 -0.00920805 0.09443672
v 0.03197138 -0.01269332 0.09455062
v 0.03011600 -0.01660149 0.09454218
v 0.02972481 -0.01803059 0.09436923
v 0.02552226 -0.00920805 0.08979233
v 0.00105028 -0.05872123 0.05197914
v 0.00105028 -0.02710590 0.09068662
v 0.02548315 -0.00920805 0.09061491
v 0.04877596 -0.02699897 0.06058456
v 0.05125725 -0.02437894 0.05789326
v 0.04908891 -0.02759686 0.05929374
v 0.05071516 -0.02501085 0.05847960
v 0.05350382 -0.02449560 0.05197914
v 0.03238493 -0.00920805 0.09482059
v 0.03040660 -0.01269332 0.09503994
v 0.02846181 -0.01660149 0.09503573
v 0.02856240 -0.01863335 0.09464764
v 0.02790855 -0.02049993 0.09439876
v 0.02756206 -0.02156933 0.09416675
v 0.04707147 -0.02940997 0.06099373
v 0.00105028 -0.05886706 0.05197914
v 0.00105028 -0.02756769 0.09166949
v 0.02738323 -0.00920805 0.09420050
v 0.02676850 -0.00920805 0.09316700
v 0.02572904 -0.00920805 0.09115064
v 0.04836241 -0.02827252 0.05993071
v 0.05033515 -0.02624552 0.05789326
v 0.05167638 -0.02820447 0.05197914
v 0.05083252 -0.02915721 0.05292827
v 0.04871448 -0.02889958 0.05839524
v 0.03194344 -0.00920805 0.09493027
v 0.03040660 -0.01074410 0.09507369
v 0.02846181 -0.01464740 0.09507369
v 0.02651143 -0.01855071 0.09507369
v 0.02456105 -0.02245402 0.09493870
v 0.02651143 -0.02049993 0.09489230
v 0.02641083 -0.02231305 0.09443250
v 0.02569551 -0.02361091 0.09423846
v 0.04120915 -0.03716312 0.06097686
v 0.04308129 -0.03512640 0.06089249
v 0.04490314 -0.03297788 0.06066048
v 0.04736766 -0.02984259 0.05993071
v 0.04817240 -0.02857390 0.05993493
v 0.00105028 -0.05886220 0.05200445
v 0.00112852 -0.05886706 0.05197914
v 0.00105028 -0.02831141 0.09315857
v 0.02761795 -0.00920805 0.09432705
v 0.00105028 -0.02902596 0.09437345
v 0.05148637 -0.02857390 0.05197914
v 0.04898273 -0.02934678 0.05709599
v 0.05045809 -0.03034813 0.05197914
v 0.05068722 -0.02998842 0.05197914
v 0.05131872 -0.02888986 0.05197914
v 0.04697646 -0.03121337 0.05890566
v 0.03040660 -0.00920805 0.09507369
v 0.01869314 -0.02635732 0.09507369
v 0.02275596 -0.02425255 0.09494292
v 0.02275596 -0.02439838 0.09490918
v 0.02447163 -0.02431574 0.09447891
v 0.03933700 -0.03918525 0.06106123
v 0.02376748 -0.02554555 0.09425112
v 0.04066148 -0.03849986 0.05993071
v 0.04345013 -0.03554930 0.05959325
v 0.04417663 -0.03429518 0.06012897
v 0.04524404 -0.03346883 0.05936124
v 0.00105028 -0.05853651 0.05294514
v 0.00112852 -0.05886220 0.05200445
v 0.00503488 -0.05861429 0.05197914
v 0.02805385 -0.00920805 0.09454218
v 0.00105028 -0.02907943 0.09439876
v 0.04937951 -0.03188417 0.05211835
v 0.04783150 -0.03428060 0.05197914
v 0.04660204 -0.03224874 0.05814636
v 0.04708824 -0.03332786 0.05527367
v 0.04772532 -0.03429518 0.05221959
v 0.02998747 -0.00920805 0.09503994
v 0.00105028 -0.03221472 0.09507369
v 0.01089161 -0.03026063 0.09507369
v 0.01283640 -0.03026063 0.09505260
v 0.01674275 -0.02831141 0.09503994
v 0.02259949 -0.02440810 0.09494292
v 0.02064352 -0.02635732 0.09489230
v 0.02245978 -0.02626497 0.09444094
v 0.03732515 -0.04106642 0.06098108
v 0.03866080 -0.04052200 0.05993071
v 0.03969467 -0.03954496 0.05993071
v 0.02171651 -0.02741700 0.09417940
v 0.03528535 -0.04293787 0.06090093
v 0.04100796 -0.03889360 0.05867365
v 0.04475225 -0.03476183 0.05833618
v 0.04288010 -0.03685202 0.05850491
v 0.04505403 -0.03515070 0.05702850
v 0.04692058 -0.03503404 0.05293249
v 0.00105028 -0.05651924 0.05869896
v 0.00112852 -0.05651924 0.05869474
v 0.00503488 -0.05673312 0.05736174
v 0.00698526 -0.05846847 0.05197914
v 0.02836681 -0.00920805 0.09465186
v 0.00105028 -0.03026063 0.09486699
v 0.04751296 -0.03474239 0.05197914
v 0.00105028 -0.03033840 0.09487543
v 0.00105028 -0.03404242 0.09458015
v 0.00503488 -0.03221472 0.09507369
v 0.00698526 -0.03221472 0.09505682
v 0.00893564 -0.03221472 0.09493449
v 0.01283640 -0.03186959 0.09455906
v 0.01479237 -0.03026063 0.09480793
v 0.01878814 -0.02841835 0.09465186
v 0.02064352 -0.02777671 0.09440297
v 0.03904640 -0.04086713 0.05869052
v 0.03632481 -0.04247609 0.06012476
v 0.04020322 -0.04005049 0.05803668
v 0.01820135 -0.02959955 0.09436923
v 0.02957951 -0.04693840 0.06101483
v 0.03315055 -0.04476557 0.06069001
v 0.03445267 -0.04403644 0.06014585
v 0.03571008 -0.04330730 0.05959746
v 0.04103031 -0.04088171 0.05484761
v 0.04162828 -0.03959843 0.05602453
v 0.04396986 -0.03600136 0.05777092
v 0.04479137 -0.03679855 0.05450171
v 0.04537816 -0.03745963 0.05197914
v 0.04644556 -0.03617149 0.05197914
v 0.04672498 -0.03581178 0.05197914
v 0.00105028 -0.05600398 0.05993071
v 0.00112852 -0.05600398 0.05993071
v 0.00503488 -0.05638800 0.05833618
v 0.00503488 -0.05574150 0.05993071
v 0.00698526 -0.05831778 0.05240941
v 0.00662759 -0.05666507 0.05717614
v 0.00887416 -0.05820597 0.05197914
v 0.00886858 -0.05820112 0.05199602
v 0.00792971 -0.05660187 0.05699053
v 0.00105028 -0.05511930 0.06152946
v 0.00112852 -0.03404242 0.09458015
v 0.00698526 -0.03371187 0.09456327
v 0.00307890 -0.03395978 0.09458015
v 0.00503488 -0.03385284 0.09458015
v 0.00893564 -0.03351744 0.09444094
v 0.01479237 -0.03148558 0.09431439
v 0.01655274 -0.03025577 0.09446203
v 0.01031599 -0.03332786 0.09425533
v 0.03700661 -0.04273857 0.05851757
v 0.03939289 -0.04117336 0.05738705
v 0.01577595 -0.03124253 0.09408660
v 0.02720440 -0.04865430 0.06063939
v 0.02844504 -0.04824598 0.05996446
v 0.03002659 -0.04723977 0.05993071
v 0.03244640 -0.04559679 0.05999821
v 0.03363116 -0.04510584 0.05939498
v 0.03493328 -0.04461002 0.05834462
v 0.04068942 -0.04253928 0.05197914
v 0.04134327 -0.04119767 0.05354415
v 0.04268451 -0.04052686 0.05197914
v 0.04265098 -0.04049284 0.05211835
v 0.04345013 -0.03965676 0.05197914
v 0.00112852 -0.05511930 0.06152946
v 0.00503488 -0.05498320 0.06135651
v 0.00716409 -0.05636369 0.05789326
v 0.00698526 -0.05557136 0.05993071
v 0.00698526 -0.05489570 0.06123840
v 0.01072954 -0.05783655 0.05197914
v 0.01089161 -0.05775391 0.05212257
v 0.00893564 -0.05605746 0.05798184
v 0.00893564 -0.05474987 0.06103592
v 0.00991921 -0.05465751 0.06090515
v 0.02197358 -0.05091462 0.06111607
v 0.01122133 -0.05452627 0.06063939
v 0.01479237 -0.05314091 0.06148306
v 0.01635715 -0.05289787 0.06115825
v 0.01765926 -0.05268399 0.06086718
v 0.03530770 -0.04491140 0.05704537
v 0.03695631 -0.04464405 0.05451437
v 0.03967790 -0.04337049 0.05211835
v 0.02590228 -0.04897512 0.06112450
v 0.02327569 -0.05060352 0.06062252
v 0.02390719 -0.05091462 0.05931905
v 0.02778560 -0.04897026 0.05933593
v 0.02908213 -0.04858138 0.05843320
v 0.03137900 -0.04684604 0.05894784
v 0.03240728 -0.04648147 0.05816745
v 0.03521270 -0.04679257 0.05297467
v 0.03429060 -0.04532458 0.05780889
v 0.04160034 -0.04166918 0.05197914
v 0.03970584 -0.04340452 0.05197914
v 0.04170652 -0.04156709 0.05197914
v 0.04181270 -0.04146016 0.05197914
v 0.00893564 -0.05527485 0.05993071
v 0.01282522 -0.05741851 0.05197914
v 0.01089161 -0.05566858 0.05798184
v 0.01391498 -0.05468182 0.05902799
v 0.01283640 -0.05479362 0.05929796
v 0.01869314 -0.05250413 0.06048753
v 0.02054851 -0.05216387 0.05981260
v 0.02261066 -0.05123058 0.05995602
v 0.02275596 -0.05109933 0.06009523
v 0.01070160 -0.05492000 0.05996446
v 0.01283640 -0.05436100 0.06027240
v 0.01465825 -0.05413253 0.05977885
v 0.01689923 -0.05328188 0.06010788
v 0.01869314 -0.05295133 0.05951310
v 0.03634157 -0.04632106 0.05197914
v 0.03752633 -0.04531971 0.05197914
v 0.02275596 -0.05119655 0.05988431
v 0.02275596 -0.05194027 0.05815901
v 0.02275596 -0.05204235 0.05791013
v 0.02520931 -0.05059380 0.05854710
v 0.02934479 -0.05070560 0.05298311
v 0.02642760 -0.05023409 0.05792700
v 0.02951803 -0.04885359 0.05713395
v 0.03050720 -0.04946121 0.05411784
v 0.03455326 -0.04764323 0.05197914
v 0.03594479 -0.04663702 0.05197914
v 0.03051837 -0.05034589 0.05197914
v 0.03419001 -0.04789113 0.05197914
v 0.01477561 -0.05699075 0.05197914
v 0.01411616 -0.05667965 0.05329948
v 0.01283640 -0.05527971 0.05798184
v 0.01541828 -0.05652410 0.05286500
v 0.01521710 -0.05450197 0.05853022
v 0.01982760 -0.05275690 0.05908704
v 0.02112971 -0.05252844 0.05849648
v 0.02249889 -0.05216387 0.05790169
v 0.02178357 -0.05277634 0.05720145
v 0.02361659 -0.05272288 0.05509650
v 0.02468958 -0.05330618 0.05224068
v 0.02669026 -0.05242150 0.05197914
v 0.02753971 -0.05077851 0.05512181
v 0.02860152 -0.05136668 0.05224490
v 0.02857917 -0.05147848 0.05197914
v 0.02914919 -0.05118196 0.05197914
v 0.03011600 -0.05061324 0.05197914
v 0.01522827 -0.05687409 0.05197914
v 0.01477561 -0.05692270 0.05217319
v 0.01601625 -0.05474015 0.05723519
v 0.01663098 -0.05646577 0.05197914
v 0.01669805 -0.05425406 0.05791856
v 0.02054851 -0.05295620 0.05790169
v 0.01869314 -0.05355895 0.05798184
v 0.02133090 -0.05455544 0.05283125
v 0.02243742 -0.05443391 0.05197914
v 0.02270008 -0.05432697 0.05197914
v 0.02275596 -0.05429781 0.05199180
v 0.02443810 -0.05352492 0.05197914
v 0.02467281 -0.05341312 0.05197914
v 0.02525961 -0.05312633 0.05197914
v 0.02049822 -0.05515333 0.05197914
v 0.02102912 -0.05496862 0.05197914
f 1 2 3
f 1 3 15
f 1 15 14
f 1 14 13
f 1 13 12
f 1 12 11
f 1 11 31
f 1 31 29
f 1 29 44
f 1 44 59
f 1 59 80
f 1 80 84
f 1 84 83
f 1 83 82
f 1 82 103
f 1 103 131
f 1 131 155
f 1 155 154
f 1 154 153
f 1 153 187
f 1 187 185
f 1 185 218
f 1 218 217
f 1 217 215
f 1 215 183
f 1 183 216
f 1 216 234
f 1 234 233
f 1 233 244
f 1 244 243
f 1 243 246
f 1 246 245
f 1 245 263
f 1 263 262
f 1 262 261
f 1 261 258
f 1 258 277
f 1 277 276
f 1 276 275
f 1 275 273
f 1 273 272
f 1 272 279
f 1 279 278
f 1 278 267
f 1 267 264
f 1 264 247
f 1 247 220
f 1 220 193
f 1 193 162
f 1 162 128
f 1 128 99
f 1 99 76
f 1 76 52
f 1 52 37
f 1 37 20
f 1 20 4
f 1 4 19
f 1 19 36
f 1 36 39
f 1 39 56
f 1 56 55
f 1 55 54
f 1 54 78
f 1 78 100
f 1 100 129
f 1 129 107
f 1 107 86
f 1 86 62
f 1 62 45
f 1 45 32
f 1 32 16
f 1 16 2
f 2 5 6
f 2 6 7
f 2 7 8
f 2 8 9
f 2 9 10
f 2 10 11
f 2 11 12
f 2 12 13
f 2 13 14
f 2 14 15
f 2 15 3
f 2 16 17
f 2 17 18
f 2 18 5
f 4 20 21
f 4 21 22
f 4 22 23
f 4 23 19
f 5 24 25
f 5 25 6
f 5 18 24
f 6 25 26
f 6 26 27
f 6 27 8
f 6 8 7
f 8 27 9
f 9 27 28
f 9 28 29
f 9 29 30
f 9 30 31
f 9 31 10
f 10 31 11
f 16 32 33
f 16 33 17
f 17 33 18
f 18 33 34
f 18 34 35
f 18 35 24
f 19 23 36
f 20 37 21
f 21 37 52
f 21 52 75
f 21 75 97
f 21 97 125
f 21 125 156
f 21 156 165
f 21 165 133
f 21 133 108
f 21 108 132
f 21 132 130
f 21 130 101
f 21 101 79
f 21 79 77
f 21 77 53
f 21 53 38
f 21 38 23
f 21 23 22
f 23 38 39
f 23 39 36
f 24 40 25
f 24 35 40
f 25 40 26
f 26 41 28
f 26 28 27
f 26 40 42
f 26 42 43
f 26 43 41
f 28 44 29
f 28 41 44
f 29 31 30
f 32 45 33
f 33 46 34
f 33 45 46
f 34 46 47
f 34 47 48
f 34 48 35
f 35 48 49
f 35 49 50
f 35 50 51
f 35 51 40
f 38 53 54
f 38 54 55
f 38 55 56
f 38 56 39
f 40 51 57
f 40 57 42
f 41 43 58
f 41 58 59
f 41 59 44
f 42 60 58
f 42 58 43
f 42 57 61
f 42 61 60
f 45 62 46
f 46 63 64
f 46 64 65
f 46 65 47
f 46 62 63
f 47 65 66
f 47 66 67
f 47 67 48
f 48 67 49
f 49 67 68
f 49 68 50
f 50 68 69
f 50 69 70
f 50 70 71
f 50 71 72
f 50 72 51
f 51 72 73
f 51 73 74
f 51 74 57
f 52 76 98
f 52 98 75
f 53 77 54
f 54 77 79
f 54 79 78
f 57 74 61
f 58 60 59
f 59 60 80
f 60 61 81
f 60 81 82
f 60 82 83
f 60 83 84
f 60 84 80
f 61 74 73
f 61 73 85
f 61 85 81
f 62 86 63
f 63 86 108
f 63 108 134
f 63 134 109
f 63 109 87
f 63 87 65
f 63 65 64
f 65 87 88
f 65 88 66
f 66 88 89
f 66 89 90
f 66 90 67
f 67 90 68
f 68 90 69
f 69 91 70
f 69 90 92
f 69 92 91
f 70 93 71
f 70 91 93
f 71 93 94
f 71 94 95
f 71 95 72
f 72 96 73
f 72 95 96
f 73 96 85
f 75 98 97
f 76 99 98
f 78 79 100
f 79 101 100
f 81 102 82
f 81 85 102
f 82 102 103
f 85 96 104
f 85 104 105
f 85 105 106
f 85 106 102
f 86 107 108
f 87 109 110
f 87 110 111
f 87 111 112
f 87 112 88
f 88 112 89
f 89 112 113
f 89 113 114
f 89 114 90
f 90 114 92
f 91 92 115
f 91 115 116
f 91 116 117
f 91 117 93
f 92 114 118
f 92 118 119
f 92 119 115
f 93 117 120
f 93 120 94
f 94 121 95
f 94 120 122
f 94 122 121
f 95 121 96
f 96 121 123
f 96 123 124
f 96 124 104
f 97 98 126
f 97 126 125
f 98 99 127
f 98 127 126
f 99 128 127
f 100 101 129
f 101 130 129
f 102 106 103
f 103 106 131
f 104 124 105
f 105 124 106
f 106 124 131
f 107 129 130
f 107 130 132
f 107 132 108
f 108 133 166
f 108 166 134
f 109 134 135
f 109 135 110
f 110 135 136
f 110 136 137
f 110 137 138
f 110 138 111
f 111 139 113
f 111 113 112
f 111 138 139
f 113 139 140
f 113 140 114
f 114 140 118
f 115 119 116
f 116 141 117
f 116 119 142
f 116 142 141
f 117 143 120
f 117 141 143
f 118 140 144
f 118 144 145
f 118 145 146
f 118 146 119
f 119 146 147
f 119 147 148
f 119 148 142
f 120 143 149
f 120 149 150
f 120 150 122
f 121 122 151
f 121 151 123
f 122 150 151
f 123 152 153
f 123 153 154
f 123 154 124
f 123 151 152
f 124 154 155
f 124 155 131
f 125 126 157
f 125 157 156
f 126 127 158
f 126 158 159
f 126 159 157
f 127 128 160
f 127 160 161
f 127 161 158
f 128 162 163
f 128 163 164
f 128 164 160
f 133 165 188
f 133 188 166
f 134 166 135
f 135 167 136
f 135 166 168
f 135 168 169
f 135 169 167
f 136 167 170
f 136 170 137
f 137 171 172
f 137 172 138
f 137 170 173
f 137 173 171
f 138 172 144
f 138 144 139
f 139 144 140
f 141 142 148
f 141 148 174
f 141 174 175
f 141 175 149
f 141 149 143
f 144 172 171
f 144 171 176
f 144 176 177
f 144 177 145
f 145 177 178
f 145 178 179
f 145 179 146
f 146 179 180
f 146 180 181
f 146 181 147
f 147 182 148
f 147 181 182
f 148 182 174
f 149 183 184
f 149 184 185
f 149 185 186
f 149 186 150
f 149 175 183
f 150 186 187
f 150 187 152
f 150 152 151
f 152 187 153
f 156 157 188
f 156 188 165
f 157 159 189
f 157 189 188
f 158 161 190
f 158 190 191
f 158 191 159
f 159 191 192
f 159 192 189
f 160 164 190
f 160 190 161
f 162 193 194
f 162 194 163
f 163 194 195
f 163 195 164
f 164 195 190
f 166 188 168
f 167 169 189
f 167 189 192
f 167 192 170
f 168 188 169
f 169 188 189
f 170 196 197
f 170 197 173
f 170 192 196
f 171 173 198
f 171 198 176
f 173 197 199
f 173 199 200
f 173 200 201
f 173 201 202
f 173 202 198
f 174 182 203
f 174 203 204
f 174 204 175
f 175 204 205
f 175 205 183
f 176 198 206
f 176 206 177
f 177 206 207
f 177 207 208
f 177 208 209
f 177 209 178
f 178 209 210
f 178 210 211
f 178 211 179
f 179 211 180
f 180 211 181
f 181 211 212
f 181 212 213
f 181 213 214
f 181 214 182
f 182 214 203
f 183 215 184
f 183 205 216
f 184 215 217
f 184 217 218
f 184 218 185
f 185 187 186
f 190 195 219
f 190 219 191
f 191 219 196
f 191 196 192
f 193 220 194
f 194 221 195
f 194 220 221
f 195 221 222
f 195 222 223
f 195 223 219
f 196 219 197
f 197 219 199
f 198 202 224
f 198 224 225
f 198 225 226
f 198 226 227
f 198 227 207
f 198 207 206
f 199 219 228
f 199 228 223
f 199 223 229
f 199 229 200
f 200 229 201
f 201 229 230
f 201 230 202
f 202 230 231
f 202 231 232
f 202 232 224
f 203 214 213
f 203 213 233
f 203 233 234
f 203 234 204
f 204 234 205
f 205 234 216
f 207 227 208
f 208 227 235
f 208 235 236
f 208 236 237
f 208 237 238
f 208 238 209
f 209 239 210
f 209 238 240
f 209 240 239
f 210 239 241
f 210 241 211
f 211 242 213
f 211 213 212
f 211 241 242
f 213 243 244
f 213 244 233
f 213 242 245
f 213 245 246
f 213 246 243
f 219 223 228
f 220 247 248
f 220 248 249
f 220 249 221
f 221 249 222
f 222 248 250
f 222 250 251
f 222 251 230
f 222 230 229
f 222 229 223
f 222 249 248
f 224 232 252
f 224 252 225
f 225 252 253
f 225 253 226
f 226 253 235
f 226 235 227
f 230 251 231
f 231 251 232
f 232 251 252
f 235 253 236
f 236 253 254
f 236 254 237
f 237 254 255
f 237 255 256
f 237 256 238
f 238 257 258
f 238 258 259
f 238 259 240
f 238 256 257
f 239 240 259
f 239 259 260
f 239 260 261
f 239 261 262
f 239 262 263
f 239 263 242
f 239 242 241
f 242 263 245
f 247 264 250
f 247 250 265
f 247 265 248
f 248 265 250
f 250 266 251
f 250 264 267
f 250 267 266
f 251 266 268
f 251 268 252
f 252 269 253
f 252 268 270
f 252 270 269
f 253 269 255
f 253 255 254
f 255 269 271
f 255 271 272
f 255 272 273
f 255 273 274
f 255 274 275
f 255 275 256
f 256 275 257
f 257 276 277
f 257 277 258
f 257 275 276
f 258 261 260
f 258 260 259
f 266 267 270
f 266 270 268
f 267 278 270
f 269 270 278
f 269 278 271
f 271 278 279
f 271 279 272
f 273 275 274

