# https://github.com/mikedh/trimesh
v 0.00111878 0.02710056 0.08976280
v 0.00111878 0.02710056 0.09068240
v 0.00111878 0.02776027 0.08877149
v 0.02551491 -0.00920364 0.08979233
v 0.02548140 -0.00920364 0.09062334
v 0.00111878 0.02756036 0.09166106
v 0.00111878 0.05381560 0.05197914
v 0.02600640 -0.00920364 0.08907943
v 0.02572714 -0.00920364 0.09115064
v 0.00111878 0.02902639 0.09436923
v 0.00111878 0.02828005 0.09309529
v 0.00111878 0.05839360 0.05197914
v 0.05302757 0.00900844 0.05197914
v 0.04038269 -0.00919031 0.07352642
v 0.02705642 -0.00920364 0.08782659
v 0.02676599 -0.00920364 0.09316700
v 0.00111878 0.03025252 0.09486277
v 0.02738036 -0.00920364 0.09419628
v 0.00111878 0.05886673 0.05198336
v 0.00113553 0.05887339 0.05197914
v 0.05817712 0.00900844 0.05197914
v 0.04042179 -0.00920364 0.07352642
v 0.02760935 -0.00920364 0.09432705
v 0.02805058 -0.00920364 0.09454218
v 0.02836336 -0.00920364 0.09465607
v 0.02998865 -0.00920364 0.09503994
v 0.00111878 0.03221167 0.09507369
v 0.00111878 0.05886007 0.05200445
v 0.00111878 0.05813372 0.05408410
v 0.00111878 0.05651442 0.05870739
v 0.00503959 0.05673433 0.05735331
v 0.00503959 0.05861351 0.05197914
v 0.04516920 -0.00920364 0.07352642
v 0.05743987 0.01270016 0.05197914
v 0.05662444 0.00900844 0.06181209
v 0.03040754 -0.00920364 0.09506947
v 0.00503959 0.03221167 0.09507369
v 0.00111878 0.03404420 0.09458015
v 0.03040754 0.00900844 0.09507369
v 0.00503959 0.05638781 0.05832774
v 0.00111878 0.05600131 0.05993071
v 0.00113553 0.05600131 0.05993071
v 0.00503959 0.05574142 0.05993071
v 0.00663137 0.05666769 0.05717614
v 0.00698882 0.05846691 0.05197914
v 0.03355200 -0.00920364 0.09434392
v 0.05704891 0.01455269 0.05197914
v 0.03360785 0.00878853 0.09440297
v 0.03380892 0.00683605 0.09454640
v 0.03394297 0.00488357 0.09458015
v 0.03402674 0.00293108 0.09458015
v 0.03409377 0.00097860 0.09458015
v 0.03409377 -0.00097388 0.09458015
v 0.03402674 -0.00292637 0.09458015
v 0.03394297 -0.00487219 0.09458015
v 0.03380892 -0.00683133 0.09454640
v 0.03360785 -0.00877715 0.09440297
v 0.05677524 0.01564555 0.05197914
v 0.05651274 0.01648518 0.05197914
v 0.05507734 0.02071001 0.05197914
v 0.05480925 0.02148301 0.05197914
v 0.05440711 0.02248257 0.05197914
v 0.05288235 0.02156963 0.05711286
v 0.05226240 0.02231598 0.05784685
v 0.05103366 0.02370870 0.05927265
v 0.05131850 0.02244259 0.05993071
v 0.05072089 0.02307565 0.06056768
v 0.05103366 0.02178287 0.06108232
v 0.03168096 0.01428614 0.09436923
v 0.03344030 0.01007464 0.09422159
v 0.03193788 -0.00920364 0.09493027
v 0.03235677 -0.00683133 0.09503994
v 0.03235677 -0.00487219 0.09506947
v 0.00698882 0.03221167 0.09505682
v 0.00113553 0.03404420 0.09458015
v 0.01089287 0.03025919 0.09507369
v 0.00111878 0.05510836 0.06152524
v 0.03040754 0.01074768 0.09507369
v 0.00698882 0.05556816 0.05993071
v 0.00716754 0.05636116 0.05788482
v 0.00113553 0.05510836 0.06152524
v 0.00503959 0.05498175 0.06135651
v 0.00698882 0.05488846 0.06123840
v 0.00793272 0.05660771 0.05699053
v 0.00743005 0.05842026 0.05197914
v 0.03335652 -0.00920364 0.09443672
v 0.03235677 0.00878853 0.09489230
v 0.03196581 0.01270016 0.09455062
v 0.03235677 0.00683605 0.09503994
v 0.03235677 0.00488357 0.09506947
v 0.03235677 -0.00877715 0.09489230
v 0.03237911 -0.00920364 0.09482059
v 0.05349114 0.02449503 0.05197914
v 0.05309459 0.02392861 0.05372976
v 0.05283767 0.02341550 0.05503322
v 0.05070972 0.02500814 0.05848382
v 0.04909001 0.02759368 0.05929374
v 0.04877165 0.02700060 0.06058877
v 0.04909001 0.02569451 0.06109919
v 0.02972056 0.01803784 0.09436501
v 0.03011152 0.01660513 0.09454218
v 0.00894364 0.03221167 0.09493449
v 0.00698882 0.03371102 0.09456327
v 0.00503959 0.03384429 0.09458015
v 0.00308477 0.03395091 0.09458015
v 0.01284210 0.03025919 0.09505260
v 0.01870097 0.02634755 0.09507369
v 0.03040754 0.01270016 0.09503994
v 0.02651466 0.01855761 0.09507369
v 0.00894364 0.05527496 0.05993071
v 0.00894364 0.05474852 0.06103592
v 0.00894364 0.05685427 0.05573768
v 0.00885986 0.05820702 0.05197914
v 0.00894364 0.05605462 0.05798184
v 0.05326773 0.02495483 0.05197914
v 0.05146930 0.02842665 0.05221537
v 0.05032992 0.02624093 0.05789326
v 0.05081583 0.02915300 0.05292827
v 0.04898389 0.02933958 0.05709599
v 0.04870463 0.02889311 0.05839524
v 0.04835835 0.02826672 0.05993493
v 0.04706817 0.02939956 0.06099373
v 0.02755909 0.02156963 0.09415831
v 0.02791095 0.02051010 0.09439454
v 0.02855884 0.01863091 0.09464764
v 0.02845830 0.01660513 0.09503573
v 0.00894364 0.03351776 0.09444094
v 0.01284210 0.03187182 0.09455906
v 0.01479133 0.03025919 0.09480372
v 0.01674615 0.02830670 0.09503994
v 0.02455984 0.02051010 0.09507369
v 0.02260502 0.02440840 0.09493449
v 0.02455984 0.02245591 0.09493449
v 0.00992104 0.05465523 0.06090515
v 0.01122239 0.05452862 0.06063939
v 0.01069739 0.05492178 0.05996446
v 0.01284210 0.05479517 0.05929374
v 0.01298173 0.05738737 0.05197914
v 0.01089287 0.05566812 0.05798184
v 0.01392004 0.05468189 0.05902799
v 0.05156984 0.02839999 0.05197914
v 0.05101132 0.02946620 0.05197914
v 0.05068179 0.02998597 0.05197914
v 0.05036343 0.03047909 0.05197914
v 0.04937486 0.03187848 0.05212257
v 0.04782776 0.03428410 0.05197914
v 0.04660460 0.03223832 0.05814636
v 0.04697322 0.03120544 0.05890987
v 0.04735860 0.02983270 0.05993071
v 0.04489553 0.03297134 0.06066470
v 0.02569363 0.02361541 0.09423424
v 0.02640854 0.02231598 0.09443250
v 0.04307475 0.03512373 0.06088828
v 0.02651466 0.02051010 0.09488808
v 0.01031201 0.03332452 0.09425533
v 0.01655626 0.03025252 0.09446203
v 0.01479133 0.03147865 0.09431017
v 0.01747223 0.02988601 0.09441563
v 0.01747223 0.02834668 0.09490496
v 0.01879592 0.02841332 0.09465186
v 0.02065579 0.02634755 0.09489230
v 0.02447606 0.02432177 0.09447891
v 0.01479133 0.05314256 0.06147884
v 0.01284210 0.05436203 0.06027240
v 0.01478016 0.05699421 0.05197914
v 0.01284210 0.05527496 0.05798184
v 0.01412111 0.05668102 0.05329527
v 0.01465729 0.05412879 0.05977463
v 0.01522139 0.05450196 0.05853022
v 0.01542246 0.05651442 0.05286078
v 0.04941395 0.03190514 0.05197914
v 0.04711844 0.03531032 0.05197914
v 0.04691737 0.03503044 0.05293671
v 0.04523623 0.03346445 0.05936124
v 0.04529208 0.03333785 0.05943295
v 0.04514686 0.03333785 0.05970714
v 0.04470563 0.03333785 0.06051706
v 0.02377233 0.02554124 0.09425112
v 0.04120372 0.03716285 0.06097686
v 0.03933267 0.03918197 0.06106123
v 0.04416945 0.03428410 0.06012476
v 0.04344896 0.03554355 0.05959325
v 0.04066195 0.03849560 0.05993071
v 0.02197948 0.05091020 0.06111607
v 0.01766771 0.05268275 0.06086718
v 0.01636077 0.05289599 0.06115825
v 0.01577991 0.03123876 0.09408660
v 0.01820947 0.02959281 0.09436923
v 0.02065579 0.02776694 0.09440297
v 0.02247098 0.02625426 0.09443672
v 0.01596423 0.05668102 0.05197914
v 0.01690254 0.05328249 0.06010788
v 0.01870097 0.05294931 0.05951310
v 0.01983476 0.05275606 0.05908704
v 0.01670147 0.05425540 0.05791856
v 0.01602008 0.05473519 0.05723941
v 0.04644821 0.03616994 0.05197914
v 0.04505191 0.03514372 0.05702850
v 0.04544846 0.03412417 0.05780467
v 0.04475032 0.03475723 0.05833618
v 0.02172814 0.02740709 0.09417940
v 0.03731642 0.04106115 0.06098952
v 0.03528341 0.04294033 0.06090093
v 0.03968454 0.03954181 0.05993071
v 0.03865128 0.04052138 0.05993071
v 0.04287927 0.03684965 0.05850491
v 0.04100824 0.03888876 0.05867787
v 0.02328083 0.05059700 0.06062252
v 0.02262178 0.05123006 0.05995602
v 0.02055525 0.05215631 0.05982104
v 0.01870097 0.05250283 0.06048753
v 0.02590028 0.04897104 0.06112450
v 0.02720163 0.04865118 0.06063939
v 0.02958093 0.04693193 0.06101061
v 0.01663445 0.05646778 0.05197914
v 0.02113611 0.05252949 0.05850070
v 0.02055525 0.05295597 0.05789747
v 0.01747781 0.05398219 0.05794809
v 0.04537027 0.03746272 0.05197914
v 0.03314987 0.04475954 0.06069423
v 0.03768505 0.04138101 0.05993071
v 0.03570230 0.04330684 0.05960168
v 0.03445122 0.04403985 0.06014585
v 0.03904225 0.04086790 0.05869052
v 0.04350482 0.03951516 0.05212257
v 0.04274523 0.04045474 0.05197914
v 0.04103058 0.04088123 0.05484340
v 0.04019838 0.04004826 0.05803668
v 0.02391195 0.05091020 0.05931905
v 0.02250449 0.05216298 0.05789747
v 0.02844713 0.04824469 0.05996446
v 0.02778249 0.04896437 0.05934436
v 0.03002774 0.04723846 0.05993071
v 0.02067254 0.05509504 0.05197914
v 0.01747781 0.05613458 0.05210991
v 0.02067254 0.05503507 0.05215631
v 0.02178958 0.05277605 0.05720145
v 0.02134277 0.05455528 0.05283125
v 0.03363019 0.04510605 0.05939920
v 0.03137936 0.04684530 0.05894784
v 0.03492596 0.04460627 0.05834462
v 0.03700365 0.04274042 0.05851757
v 0.04064520 0.04251385 0.05212257
v 0.03966779 0.04337347 0.05212257
v 0.04170638 0.04156760 0.05197914
v 0.04134334 0.04120109 0.05354415
v 0.02455984 0.05115009 0.05793122
v 0.02521331 0.05058367 0.05854710
v 0.02362153 0.05271607 0.05509650
v 0.02908384 0.04857787 0.05843320
v 0.02702850 0.05052370 0.05642527
v 0.02643088 0.05023049 0.05793122
v 0.02934635 0.05069695 0.05298311
v 0.02176166 0.05470854 0.05197914
v 0.02469388 0.05330249 0.05224068
v 0.02270555 0.05432204 0.05197914
v 0.02244863 0.05443532 0.05197914
v 0.03530575 0.04490614 0.05704537
v 0.03428924 0.04532596 0.05780889
v 0.03520522 0.04678532 0.05297045
v 0.03240703 0.04647879 0.05817588
v 0.03428924 0.04782487 0.05197914
v 0.02951949 0.04885109 0.05713395
v 0.03655125 0.04429308 0.05602453
v 0.04068429 0.04253384 0.05197914
v 0.03970688 0.04340013 0.05197914
v 0.03761802 0.04523266 0.05197914
v 0.02860352 0.05136333 0.05224490
v 0.02679950 0.05236290 0.05197914
v 0.02966471 0.05089686 0.05197914
v 0.02858118 0.05147661 0.05197914
v 0.03041312 0.05030379 0.05224490
v 0.02467154 0.05340910 0.05197914
v 0.03633901 0.04631220 0.05197914
v 0.03549006 0.04699856 0.05197914
v 0.03227299 0.04917095 0.05197914
v 0.03050807 0.04945749 0.05411362
v 0.03052483 0.05033711 0.05197914
f 1 2 6
f 1 6 11
f 1 11 10
f 1 10 17
f 1 17 27
f 1 27 38
f 1 38 77
f 1 77 41
f 1 41 30
f 1 30 29
f 1 29 28
f 1 28 19
f 1 19 12
f 1 12 7
f 1 7 3
f 1 3 4
f 1 4 5
f 1 5 2
f 2 5 6
f 3 7 4
f 4 8 15
f 4 15 22
f 4 22 33
f 4 33 46
f 4 46 86
f 4 86 92
f 4 92 71
f 4 71 36
f 4 36 26
f 4 26 25
f 4 25 24
f 4 24 23
f 4 23 18
f 4 18 16
f 4 16 9
f 4 9 5
f 4 7 8
f 5 9 10
f 5 10 11
f 5 11 6
f 7 12 20
f 7 20 32
f 7 32 45
f 7 45 85
f 7 85 113
f 7 113 138
f 7 138 165
f 7 165 191
f 7 191 215
f 7 215 234
f 7 234 254
f 7 254 257
f 7 257 256
f 7 256 273
f 7 273 269
f 7 269 271
f 7 271 270
f 7 270 278
f 7 278 276
f 7 276 262
f 7 262 275
f 7 275 274
f 7 274 267
f 7 267 266
f 7 266 265
f 7 265 245
f 7 245 226
f 7 226 219
f 7 219 197
f 7 197 172
f 7 172 146
f 7 146 171
f 7 171 144
f 7 144 143
f 7 143 142
f 7 142 141
f 7 141 115
f 7 115 93
f 7 93 62
f 7 62 61
f 7 61 60
f 7 60 59
f 7 59 58
f 7 58 47
f 7 47 34
f 7 34 21
f 7 21 13
f 7 13 14
f 7 14 15
f 7 15 8
f 9 16 10
f 10 16 18
f 10 18 17
f 12 19 20
f 13 21 33
f 13 33 22
f 13 22 14
f 14 22 15
f 17 18 23
f 17 23 24
f 17 24 25
f 17 25 26
f 17 26 27
f 19 28 20
f 20 28 29
f 20 29 30
f 20 30 31
f 20 31 32
f 21 34 35
f 21 35 33
f 26 36 27
f 27 37 75
f 27 75 38
f 27 36 39
f 27 39 78
f 27 78 109
f 27 109 131
f 27 131 107
f 27 107 76
f 27 76 37
f 30 40 31
f 30 41 42
f 30 42 43
f 30 43 40
f 31 40 44
f 31 44 45
f 31 45 32
f 33 35 46
f 34 47 35
f 35 48 49
f 35 49 50
f 35 50 51
f 35 51 52
f 35 52 53
f 35 53 54
f 35 54 55
f 35 55 56
f 35 56 57
f 35 57 46
f 35 47 58
f 35 58 59
f 35 59 60
f 35 60 61
f 35 61 62
f 35 62 63
f 35 63 64
f 35 64 65
f 35 65 66
f 35 66 67
f 35 67 68
f 35 68 69
f 35 69 70
f 35 70 48
f 36 71 72
f 36 72 73
f 36 73 39
f 37 74 75
f 37 76 74
f 38 75 81
f 38 81 77
f 39 73 90
f 39 90 78
f 40 43 79
f 40 79 80
f 40 80 44
f 41 77 81
f 41 81 42
f 42 81 82
f 42 82 43
f 43 82 83
f 43 83 79
f 44 80 84
f 44 84 45
f 45 84 85
f 46 57 86
f 48 87 49
f 48 70 88
f 48 88 87
f 49 87 89
f 49 89 50
f 50 90 51
f 50 89 90
f 51 90 52
f 52 90 73
f 52 73 53
f 53 73 54
f 54 73 55
f 55 73 72
f 55 72 56
f 56 72 91
f 56 91 57
f 57 91 92
f 57 92 86
f 62 93 94
f 62 94 95
f 62 95 63
f 63 95 64
f 64 95 65
f 65 67 66
f 65 95 96
f 65 96 97
f 65 97 98
f 65 98 67
f 67 98 68
f 68 98 99
f 68 99 69
f 69 100 101
f 69 101 88
f 69 88 70
f 69 99 98
f 69 98 100
f 71 92 91
f 71 91 72
f 74 102 103
f 74 103 104
f 74 104 105
f 74 105 75
f 74 76 106
f 74 106 102
f 75 105 81
f 76 107 106
f 78 108 109
f 78 90 89
f 78 89 108
f 79 110 84
f 79 84 80
f 79 83 111
f 79 111 110
f 81 105 104
f 81 104 82
f 82 104 103
f 82 103 83
f 83 103 111
f 84 112 113
f 84 113 85
f 84 110 114
f 84 114 112
f 87 88 108
f 87 108 89
f 88 101 108
f 93 115 94
f 94 96 95
f 94 115 116
f 94 116 96
f 96 117 97
f 96 116 117
f 97 116 118
f 97 118 119
f 97 119 120
f 97 120 121
f 97 121 98
f 97 117 116
f 98 121 122
f 98 122 100
f 100 123 124
f 100 124 125
f 100 125 101
f 100 122 123
f 101 125 126
f 101 126 108
f 102 127 103
f 102 106 128
f 102 128 127
f 103 127 111
f 106 129 128
f 106 107 130
f 106 130 129
f 107 131 132
f 107 132 130
f 108 126 109
f 109 126 133
f 109 133 132
f 109 132 131
f 110 111 134
f 110 134 135
f 110 135 136
f 110 136 137
f 110 137 114
f 111 127 134
f 112 138 113
f 112 114 139
f 112 139 138
f 114 137 140
f 114 140 139
f 115 141 116
f 116 141 142
f 116 142 118
f 118 142 119
f 119 142 143
f 119 143 144
f 119 144 145
f 119 145 146
f 119 146 147
f 119 147 148
f 119 148 120
f 120 148 149
f 120 149 121
f 121 149 122
f 122 149 150
f 122 150 123
f 123 151 152
f 123 152 124
f 123 150 153
f 123 153 151
f 124 154 125
f 124 152 154
f 125 154 126
f 126 154 133
f 127 128 155
f 127 155 135
f 127 135 134
f 128 129 156
f 128 156 157
f 128 157 155
f 129 158 156
f 129 130 159
f 129 159 160
f 129 160 158
f 130 132 161
f 130 161 159
f 132 133 162
f 132 162 161
f 133 154 162
f 135 155 163
f 135 163 164
f 135 164 137
f 135 137 136
f 137 164 140
f 138 139 166
f 138 166 140
f 138 140 167
f 138 167 165
f 139 140 166
f 140 164 168
f 140 168 169
f 140 169 170
f 140 170 165
f 140 165 167
f 144 171 145
f 145 171 146
f 146 172 173
f 146 173 147
f 147 173 174
f 147 174 175
f 147 175 148
f 148 175 149
f 149 175 150
f 150 175 176
f 150 176 177
f 150 177 153
f 151 178 162
f 151 162 152
f 151 153 179
f 151 179 180
f 151 180 178
f 152 162 154
f 153 177 181
f 153 181 182
f 153 182 183
f 153 183 179
f 155 184 185
f 155 185 186
f 155 186 163
f 155 157 187
f 155 187 184
f 156 158 157
f 157 158 188
f 157 188 187
f 158 160 188
f 159 161 160
f 160 161 189
f 160 189 188
f 161 190 189
f 161 162 190
f 162 178 190
f 163 186 164
f 164 186 168
f 165 170 191
f 168 186 185
f 168 185 192
f 168 192 169
f 169 192 193
f 169 193 194
f 169 194 195
f 169 195 196
f 169 196 191
f 169 191 170
f 172 197 198
f 172 198 173
f 173 198 199
f 173 199 174
f 174 199 198
f 174 198 200
f 174 200 182
f 174 182 181
f 174 181 177
f 174 177 176
f 174 176 175
f 178 201 190
f 178 180 202
f 178 202 203
f 178 203 201
f 179 183 180
f 180 183 204
f 180 204 205
f 180 205 202
f 182 200 206
f 182 206 207
f 182 207 183
f 183 207 204
f 184 208 209
f 184 209 210
f 184 210 211
f 184 211 185
f 184 187 212
f 184 212 208
f 185 211 193
f 185 193 192
f 187 188 213
f 187 213 212
f 188 189 201
f 188 201 214
f 188 214 213
f 189 190 201
f 191 196 215
f 193 211 194
f 194 211 210
f 194 210 216
f 194 216 217
f 194 217 218
f 194 218 195
f 195 218 215
f 195 215 196
f 197 219 198
f 198 219 206
f 198 206 200
f 201 203 220
f 201 220 214
f 202 205 203
f 203 205 221
f 203 221 222
f 203 222 223
f 203 223 220
f 204 224 205
f 204 207 224
f 205 224 221
f 206 219 225
f 206 225 207
f 207 225 226
f 207 226 227
f 207 227 228
f 207 228 224
f 208 229 209
f 208 212 213
f 208 213 229
f 209 229 230
f 209 230 216
f 209 216 210
f 213 214 231
f 213 231 232
f 213 232 229
f 214 220 233
f 214 233 231
f 215 218 235
f 215 235 236
f 215 236 234
f 216 230 237
f 216 237 238
f 216 238 217
f 217 238 236
f 217 236 218
f 218 236 235
f 219 226 225
f 220 223 239
f 220 239 240
f 220 240 233
f 221 224 222
f 222 241 239
f 222 239 223
f 222 224 242
f 222 242 241
f 224 228 227
f 224 227 243
f 224 243 244
f 224 244 242
f 226 245 246
f 226 246 227
f 227 246 243
f 229 247 230
f 229 232 248
f 229 248 247
f 230 249 237
f 230 247 249
f 231 233 240
f 231 240 250
f 231 250 232
f 232 251 252
f 232 252 248
f 232 250 253
f 232 253 251
f 234 236 254
f 236 238 254
f 237 249 255
f 237 255 256
f 237 256 257
f 237 257 254
f 237 254 238
f 239 241 258
f 239 258 259
f 239 259 260
f 239 260 261
f 239 261 240
f 240 261 262
f 240 262 263
f 240 263 250
f 241 242 258
f 242 244 264
f 242 264 258
f 243 246 245
f 243 245 265
f 243 265 266
f 243 266 244
f 244 266 267
f 244 267 264
f 247 255 249
f 247 248 252
f 247 252 255
f 250 263 253
f 251 253 268
f 251 268 269
f 251 269 255
f 251 255 252
f 253 270 271
f 253 271 268
f 253 263 272
f 253 272 270
f 255 273 256
f 255 269 273
f 258 264 267
f 258 267 274
f 258 274 275
f 258 275 260
f 258 260 259
f 260 275 262
f 260 262 261
f 262 276 272
f 262 272 277
f 262 277 263
f 263 277 272
f 268 271 269
f 270 272 278
f 272 276 278

