# https://github.com/mikedh/trimesh
v -0.05637320 -0.00097545 0.01665440
v -0.05637320 0.00097427 0.01665440
v -0.05611889 -0.00488013 0.01665440
v -0.07891348 -0.00097545 0.03044647
v -0.05611889 0.00487895 0.01665440
v -0.07891348 0.00097558 0.03044647
v -0.05599433 -0.00638103 0.01665440
v -0.08034074 -0.00097545 0.03132122
v -0.05595800 0.00682998 0.01665440
v -0.08034074 0.00097558 0.03132122
v -0.05598395 -0.00649225 0.01665440
v -0.08012275 -0.00222380 0.03146644
v -0.08131646 -0.00097545 0.03198852
v -0.05595281 0.00687578 0.01665440
v -0.08012275 0.00222393 0.03146644
v -0.08131646 0.00097558 0.03198852
v -0.04780447 -0.00649225 0.01665440
v -0.05681435 -0.00649225 0.01757064
v -0.08476783 -0.00640982 0.04430768
v -0.08281638 -0.00641243 0.04235418
v -0.08086492 -0.00632869 0.03844718
v -0.08075594 -0.00602903 0.03658357
v -0.08002933 -0.00590603 0.03541839
v -0.08133203 -0.00563385 0.03598888
v -0.08090645 -0.00493247 0.03451252
v -0.08281638 -0.00427166 0.03501040
v -0.08178356 -0.00385031 0.03361702
v -0.08229738 -0.00254963 0.03321594
v -0.08261915 -0.00097545 0.03296354
v -0.05679878 0.00687578 0.01758793
v -0.04775776 0.00687578 0.01665440
v -0.08229738 0.00254975 0.03321594
v -0.08178356 0.00385044 0.03361702
v -0.08386476 0.00396690 0.03545296
v -0.08281638 0.00427179 0.03501040
v -0.08133203 0.00563267 0.03598888
v -0.08002933 0.00590615 0.03541839
v -0.08204306 0.00592578 0.03729237
v -0.08274372 0.00604355 0.03852324
v -0.08281638 0.00632489 0.04040068
v -0.08261915 0.00097558 0.03296354
v -0.05090810 -0.00649225 0.02674000
v -0.04262482 -0.00292779 0.02736235
v -0.04268710 -0.00416829 0.02747991
v -0.04470083 -0.00590995 0.02372158
v -0.04449842 -0.00603688 0.02478995
v -0.04572846 -0.00629859 0.02478995
v -0.04572846 -0.00630251 0.02674000
v -0.04768509 -0.00639019 0.02674000
v -0.05698562 -0.00649225 0.01777118
v -0.08671928 -0.00640066 0.04820777
v -0.08867072 -0.00634962 0.05016128
v -0.08671928 -0.00634962 0.04625773
v -0.08476783 -0.00628812 0.04235418
v -0.08281638 -0.00632476 0.04040068
v -0.05779008 -0.00649225 0.01874274
v -0.05853225 -0.00649225 0.01972122
v -0.06311504 -0.00649225 0.03064354
v -0.06314099 -0.00649225 0.03084408
v -0.06314618 -0.00649225 0.03259705
v -0.06243515 -0.00649225 0.03846447
v -0.08274372 -0.00604342 0.03852324
v -0.08204306 -0.00592566 0.03729237
v -0.08334057 -0.00566395 0.03792855
v -0.08274372 -0.00525438 0.03658357
v -0.08386476 -0.00396677 0.03545296
v -0.08289423 -0.00309005 0.03404575
v -0.08424363 -0.00292779 0.03510375
v -0.08359488 -0.00097545 0.03373803
v -0.05780045 0.00687578 0.01879806
v -0.05610332 0.00687578 0.03846447
v -0.04572846 0.00630133 0.02674000
v -0.04442057 0.00603701 0.02674000
v -0.04449842 0.00603701 0.02478995
v -0.04470083 0.00590877 0.02372158
v -0.04268710 0.00416580 0.02747991
v -0.04262482 0.00292661 0.02736235
v -0.08359488 0.00097558 0.03373803
v -0.08424363 0.00292792 0.03510375
v -0.08289423 0.00309018 0.03404575
v -0.08521936 0.00292792 0.03605803
v -0.08580064 0.00395643 0.03740992
v -0.08461731 0.00424824 0.03665618
v -0.08274372 0.00525450 0.03658357
v -0.08334057 0.00566407 0.03792855
v -0.08396337 0.00592317 0.03922512
v -0.08467440 0.00602131 0.04052169
v -0.08476783 0.00628825 0.04235418
v -0.08476783 0.00640994 0.04430768
v -0.05617598 -0.00649225 0.03846447
v -0.04205392 -0.00097545 0.02869004
v -0.04232899 -0.00292779 0.02869004
v -0.04268191 -0.00413165 0.02869004
v -0.04442057 -0.00603688 0.02674000
v -0.04459184 -0.00590995 0.02781875
v -0.08867072 -0.00638626 0.05197648
v -0.09064812 -0.00607090 0.05197648
v -0.08885756 -0.00612848 0.04803490
v -0.08681789 -0.00610885 0.04424199
v -0.08618470 -0.00598716 0.04235418
v -0.08583697 -0.00590079 0.04125123
v -0.08467440 -0.00602118 0.04052169
v -0.08396337 -0.00592304 0.03922512
v -0.08526607 -0.00562207 0.03994775
v -0.08467440 -0.00524129 0.03852324
v -0.08461731 -0.00424811 0.03665618
v -0.08580064 -0.00395630 0.03740992
v -0.08521936 -0.00292779 0.03605803
v -0.08466403 -0.00097545 0.03470959
v -0.08563975 -0.00097545 0.03562930
v -0.05852187 0.00687578 0.01974197
v -0.08156558 -0.00097545 0.05197648
v -0.05613965 -0.00648309 0.03846447
v -0.04352269 -0.00097545 0.03127973
v -0.04352269 0.00097427 0.03127973
v -0.04251064 0.00292661 0.02998316
v -0.04275976 0.00394465 0.02970655
v -0.04459184 0.00591008 0.02781875
v -0.06235729 0.00687578 0.03846447
v -0.08853578 0.00638639 0.05197648
v -0.08671928 0.00622675 0.05197648
v -0.08661028 0.00620319 0.05197648
v -0.08556190 0.00593363 0.05197648
v -0.08458618 0.00533171 0.05197648
v -0.08448238 0.00525974 0.05197648
v -0.08328348 0.00435161 0.05197648
v -0.08228699 0.00300774 0.05197648
v -0.08223509 0.00292661 0.05197648
v -0.08214167 0.00274996 0.05197648
v -0.08176799 0.00181959 0.05197648
v -0.08156558 0.00097558 0.05197648
v -0.04268191 0.00413178 0.02869004
v -0.04232899 0.00292661 0.02869004
v -0.04205392 0.00097427 0.02869004
v -0.08466403 0.00097558 0.03470959
v -0.08563975 0.00097558 0.03562930
v -0.08614319 0.00292792 0.03703305
v -0.08719157 0.00307055 0.03838494
v -0.08762753 0.00381642 0.03951210
v -0.08622622 0.00425609 0.03844718
v -0.08467440 0.00524142 0.03852324
v -0.08526607 0.00562220 0.03994775
v -0.08583697 0.00590092 0.04125123
v -0.08618470 0.00598728 0.04235418
v -0.08681789 0.00610898 0.04423853
v -0.08671928 0.00634844 0.04625773
v -0.08867072 0.00634844 0.05016128
v -0.08671928 0.00640078 0.04820777
v -0.08671928 -0.00622662 0.05197648
v -0.04223038 -0.00097545 0.03030471
v -0.04251064 -0.00292779 0.02998316
v -0.04275976 -0.00394453 0.02970655
v -0.09088687 -0.00599370 0.05197648
v -0.09139549 -0.00577648 0.05152354
v -0.08982810 -0.00593874 0.04856736
v -0.08963088 -0.00584976 0.04726733
v -0.08831780 -0.00603165 0.04625773
v -0.08789222 -0.00593743 0.04485052
v -0.08753930 -0.00580265 0.04354703
v -0.08716043 -0.00556450 0.04235418
v -0.08672965 -0.00492070 0.04037994
v -0.08622622 -0.00425596 0.03844718
v -0.08762753 -0.00381629 0.03951210
v -0.08719157 -0.00307042 0.03838494
v -0.08614319 -0.00292779 0.03703305
v -0.08653243 -0.00097545 0.03660432
v -0.06219641 0.00687578 0.03064354
v -0.08867072 0.00638639 0.05197648
v -0.08214167 -0.00274983 0.05197648
v -0.08228699 -0.00300761 0.05197648
v -0.08319525 -0.00425465 0.05197648
v -0.08328348 -0.00435148 0.05197648
v -0.08458618 -0.00533158 0.05197648
v -0.08549443 -0.00590603 0.05197648
v -0.08556190 -0.00593351 0.05197648
v -0.04223038 0.00097427 0.03030471
v -0.06233654 0.00687578 0.03259705
v -0.08653243 0.00097558 0.03660432
v -0.08750816 0.00097558 0.03770381
v -0.08803235 0.00251573 0.03899001
v -0.08977620 0.00217813 0.04118208
v -0.08936619 0.00347881 0.04177332
v -0.08980215 0.00405326 0.04307681
v -0.08806868 0.00421814 0.04081213
v -0.08672965 0.00491952 0.04037994
v -0.08716043 0.00556463 0.04235418
v -0.08753930 0.00580278 0.04354703
v -0.08789222 0.00593756 0.04485052
v -0.08831780 0.00603177 0.04625773
v -0.08885756 0.00612861 0.04803490
v -0.09051838 0.00609982 0.05197648
v -0.09213766 -0.00535906 0.05197648
v -0.09244388 -0.00513661 0.05197648
v -0.09263590 -0.00451243 0.05027537
v -0.09053914 -0.00541009 0.04803490
v -0.09204943 -0.00432662 0.04820777
v -0.09176917 -0.00408062 0.04686280
v -0.09072078 -0.00464198 0.04623007
v -0.09012912 -0.00432270 0.04430768
v -0.08859287 -0.00537869 0.04424199
v -0.08870187 -0.00454122 0.04239913
v -0.08806868 -0.00421801 0.04081213
v -0.08980215 -0.00405314 0.04307681
v -0.08936619 -0.00347869 0.04177332
v -0.08977620 -0.00217800 0.04118208
v -0.08803235 -0.00251560 0.03899001
v -0.08750816 -0.00097545 0.03770381
v -0.08827110 0.00097558 0.03867538
v -0.08924682 0.00097558 0.04000307
v -0.08990595 0.00097558 0.04097809
v -0.09075712 0.00097558 0.04235418
v -0.09147334 0.00097558 0.04356432
v -0.09181588 0.00236001 0.04486435
v -0.09012912 0.00286773 0.04239913
v -0.08870187 0.00454135 0.04239913
v -0.09112561 0.00297764 0.04425236
v -0.09144220 0.00366201 0.04556277
v -0.09176917 0.00408074 0.04686280
v -0.09012912 0.00432282 0.04430768
v -0.08859287 0.00537881 0.04423853
v -0.08963088 0.00584989 0.04726733
v -0.08982810 0.00593887 0.04856736
v -0.09064812 0.00607103 0.05197648
v -0.09260476 -0.00501230 0.05197648
v -0.09360125 -0.00395892 0.05100145
v -0.09333136 -0.00354019 0.04969797
v -0.09306148 -0.00290424 0.04818703
v -0.09215323 -0.00297752 0.04623007
v -0.09144220 -0.00366188 0.04556277
v -0.09112561 -0.00297752 0.04425236
v -0.09012912 -0.00286760 0.04239913
v -0.08924682 -0.00097545 0.04000307
v -0.08827110 -0.00097545 0.03867538
v -0.09181588 -0.00235989 0.04486435
v -0.09147334 -0.00097545 0.04356432
v -0.09075712 -0.00097545 0.04235418
v -0.08990595 -0.00097545 0.04097809
v -0.09199234 0.00097558 0.04453934
v -0.09284870 0.00097558 0.04625773
v -0.09343517 0.00097558 0.04751281
v -0.09369467 0.00223963 0.04882321
v -0.09215323 0.00297764 0.04623007
v -0.09072078 0.00464080 0.04623007
v -0.09306148 0.00290437 0.04818703
v -0.09333136 0.00354032 0.04969797
v -0.09360125 0.00395905 0.05100145
v -0.09204943 0.00432675 0.04820777
v -0.09053914 0.00541022 0.04803490
v -0.09139549 0.00577661 0.05152354
v -0.09149410 0.00581979 0.05197648
v -0.09373619 -0.00410024 0.05197648
v -0.09435900 -0.00305472 0.05197648
v -0.09389708 -0.00290424 0.05027537
v -0.09369467 -0.00223950 0.04882321
v -0.09343517 -0.00097545 0.04751281
v -0.09284870 -0.00097545 0.04625773
v -0.09199234 -0.00097545 0.04453934
v -0.09383480 0.00097558 0.04848783
v -0.09446798 0.00097558 0.05016128
v -0.09507003 0.00081332 0.05197648
v -0.09446798 0.00278921 0.05197648
v -0.09442127 0.00292530 0.05197648
v -0.09389708 0.00290437 0.05027537
v -0.09263590 0.00451256 0.05027537
v -0.09373619 0.00410037 0.05197648
v -0.09244388 0.00513673 0.05197648
v -0.09213766 0.00535919 0.05197648
v -0.09442127 -0.00292518 0.05197648
v -0.09507003 -0.00081319 0.05197648
v -0.09446798 -0.00097545 0.05016128
v -0.09383480 -0.00097545 0.04848783
f 1 2 5
f 1 5 9
f 1 9 14
f 1 14 31
f 1 31 17
f 1 17 11
f 1 11 7
f 1 7 3
f 1 3 4
f 1 4 6
f 1 6 2
f 2 6 5
f 3 7 8
f 3 8 4
f 4 8 10
f 4 10 6
f 5 6 10
f 5 10 9
f 7 11 8
f 8 11 12
f 8 12 13
f 8 13 16
f 8 16 10
f 9 10 14
f 10 15 14
f 10 16 15
f 11 17 42
f 11 42 90
f 11 90 61
f 11 61 60
f 11 60 59
f 11 59 58
f 11 58 57
f 11 57 56
f 11 56 50
f 11 50 18
f 11 18 19
f 11 19 20
f 11 20 21
f 11 21 22
f 11 22 23
f 11 23 24
f 11 24 25
f 11 25 26
f 11 26 27
f 11 27 28
f 11 28 12
f 12 28 29
f 12 29 13
f 13 29 41
f 13 41 16
f 14 30 70
f 14 70 111
f 14 111 167
f 14 167 177
f 14 177 119
f 14 119 71
f 14 71 31
f 14 15 32
f 14 32 33
f 14 33 34
f 14 34 35
f 14 35 36
f 14 36 37
f 14 37 38
f 14 38 39
f 14 39 40
f 14 40 30
f 15 16 41
f 15 41 32
f 17 31 43
f 17 43 44
f 17 44 45
f 17 45 46
f 17 46 47
f 17 47 48
f 17 48 49
f 17 49 42
f 18 50 19
f 19 51 52
f 19 52 53
f 19 53 54
f 19 54 55
f 19 55 21
f 19 21 20
f 19 50 56
f 19 56 57
f 19 57 58
f 19 58 59
f 19 59 60
f 19 60 61
f 19 61 51
f 21 55 62
f 21 62 22
f 22 62 63
f 22 63 23
f 23 63 24
f 24 63 64
f 24 64 65
f 24 65 26
f 24 26 25
f 26 65 66
f 26 66 27
f 27 66 67
f 27 67 28
f 28 67 68
f 28 68 69
f 28 69 29
f 29 69 78
f 29 78 41
f 30 40 70
f 31 71 72
f 31 72 73
f 31 73 74
f 31 74 75
f 31 75 76
f 31 76 77
f 31 77 43
f 32 41 78
f 32 78 79
f 32 79 80
f 32 80 33
f 33 80 34
f 34 80 79
f 34 79 81
f 34 81 82
f 34 82 83
f 34 83 84
f 34 84 35
f 35 84 36
f 36 84 85
f 36 85 38
f 36 38 37
f 38 85 86
f 38 86 39
f 39 86 87
f 39 87 40
f 40 87 88
f 40 88 89
f 40 89 70
f 42 49 90
f 43 77 134
f 43 134 91
f 43 91 44
f 44 91 92
f 44 92 93
f 44 93 94
f 44 94 46
f 44 46 45
f 46 94 47
f 47 94 48
f 48 94 95
f 48 95 90
f 48 90 49
f 51 96 52
f 51 61 96
f 52 96 97
f 52 97 98
f 52 98 53
f 53 98 99
f 53 99 54
f 54 99 100
f 54 100 101
f 54 101 102
f 54 102 55
f 55 102 62
f 61 90 96
f 62 102 103
f 62 103 63
f 63 103 64
f 64 103 104
f 64 104 105
f 64 105 106
f 64 106 65
f 65 106 66
f 66 106 107
f 66 107 108
f 66 108 68
f 66 68 67
f 68 109 69
f 68 108 110
f 68 110 109
f 69 109 135
f 69 135 78
f 70 89 111
f 71 112 113
f 71 113 114
f 71 114 115
f 71 115 116
f 71 116 117
f 71 117 118
f 71 118 73
f 71 73 72
f 71 119 168
f 71 168 120
f 71 120 121
f 71 121 122
f 71 122 123
f 71 123 124
f 71 124 125
f 71 125 126
f 71 126 127
f 71 127 128
f 71 128 129
f 71 129 130
f 71 130 131
f 71 131 112
f 73 118 117
f 73 117 132
f 73 132 76
f 73 76 74
f 74 76 75
f 76 132 133
f 76 133 134
f 76 134 77
f 78 135 79
f 79 135 136
f 79 136 81
f 81 136 137
f 81 137 82
f 82 137 138
f 82 138 139
f 82 139 140
f 82 140 141
f 82 141 83
f 83 141 85
f 83 85 84
f 85 141 142
f 85 142 86
f 86 142 143
f 86 143 87
f 87 143 88
f 88 143 144
f 88 144 145
f 88 145 146
f 88 146 89
f 89 146 147
f 89 147 148
f 89 148 111
f 90 95 113
f 90 113 149
f 90 149 96
f 91 134 176
f 91 176 150
f 91 150 92
f 92 150 151
f 92 151 152
f 92 152 93
f 93 152 94
f 94 152 95
f 95 152 113
f 96 149 175
f 96 175 174
f 96 174 173
f 96 173 172
f 96 172 171
f 96 171 170
f 96 170 169
f 96 169 112
f 96 112 131
f 96 131 130
f 96 130 129
f 96 129 128
f 96 128 127
f 96 127 126
f 96 126 125
f 96 125 124
f 96 124 123
f 96 123 122
f 96 122 121
f 96 121 120
f 96 120 168
f 96 168 191
f 96 191 223
f 96 223 250
f 96 250 267
f 96 267 266
f 96 266 265
f 96 265 262
f 96 262 261
f 96 261 260
f 96 260 269
f 96 269 268
f 96 268 252
f 96 252 251
f 96 251 224
f 96 224 193
f 96 193 192
f 96 192 153
f 96 153 97
f 97 153 154
f 97 154 155
f 97 155 98
f 98 155 156
f 98 156 157
f 98 157 99
f 99 157 158
f 99 158 100
f 100 158 101
f 101 104 103
f 101 103 102
f 101 158 159
f 101 159 160
f 101 160 161
f 101 161 104
f 104 161 162
f 104 162 105
f 105 162 107
f 105 107 106
f 107 162 163
f 107 163 164
f 107 164 165
f 107 165 108
f 108 165 110
f 109 110 136
f 109 136 135
f 110 165 166
f 110 166 178
f 110 178 136
f 111 148 168
f 111 168 167
f 112 169 113
f 113 152 151
f 113 151 114
f 113 169 170
f 113 170 171
f 113 171 172
f 113 172 173
f 113 173 174
f 113 174 175
f 113 175 149
f 114 151 150
f 114 150 176
f 114 176 115
f 115 176 116
f 116 176 133
f 116 133 117
f 117 133 132
f 119 177 168
f 133 176 134
f 136 178 137
f 137 178 179
f 137 179 180
f 137 180 138
f 138 180 139
f 139 180 181
f 139 181 182
f 139 182 183
f 139 183 184
f 139 184 140
f 140 142 141
f 140 184 185
f 140 185 142
f 142 185 143
f 143 185 186
f 143 186 187
f 143 187 188
f 143 188 144
f 144 188 145
f 145 188 189
f 145 189 190
f 145 190 146
f 146 190 147
f 147 190 191
f 147 191 168
f 147 168 148
f 153 192 154
f 154 192 193
f 154 193 194
f 154 194 195
f 154 195 156
f 154 156 155
f 156 195 196
f 156 196 197
f 156 197 198
f 156 198 199
f 156 199 200
f 156 200 159
f 156 159 158
f 156 158 157
f 159 200 160
f 160 200 201
f 160 201 161
f 161 201 202
f 161 202 162
f 162 202 163
f 163 202 203
f 163 203 204
f 163 204 205
f 163 205 206
f 163 206 164
f 164 206 165
f 165 206 207
f 165 207 166
f 166 207 179
f 166 179 178
f 167 168 177
f 179 207 233
f 179 233 208
f 179 208 180
f 180 208 181
f 181 208 209
f 181 209 210
f 181 210 211
f 181 211 212
f 181 212 213
f 181 213 214
f 181 214 182
f 182 214 183
f 183 215 184
f 183 214 216
f 183 216 217
f 183 217 218
f 183 218 219
f 183 219 220
f 183 220 215
f 184 186 185
f 184 215 186
f 186 215 220
f 186 220 187
f 187 220 221
f 187 221 188
f 188 221 189
f 189 221 190
f 190 221 222
f 190 222 223
f 190 223 191
f 193 224 194
f 194 225 196
f 194 196 195
f 194 224 225
f 196 225 197
f 197 225 226
f 197 226 227
f 197 227 228
f 197 228 229
f 197 229 203
f 197 203 199
f 197 199 198
f 199 203 200
f 200 203 201
f 201 203 202
f 203 229 230
f 203 230 231
f 203 231 204
f 204 231 205
f 205 232 233
f 205 233 206
f 205 231 234
f 205 234 235
f 205 235 236
f 205 236 237
f 205 237 232
f 206 233 207
f 208 233 232
f 208 232 209
f 209 232 237
f 209 237 210
f 210 237 236
f 210 236 211
f 211 236 235
f 211 235 212
f 212 235 257
f 212 257 238
f 212 238 213
f 213 238 239
f 213 239 240
f 213 240 241
f 213 241 242
f 213 242 217
f 213 217 216
f 213 216 214
f 217 242 218
f 218 243 219
f 218 242 244
f 218 244 245
f 218 245 246
f 218 246 247
f 218 247 221
f 218 221 243
f 219 221 220
f 219 243 221
f 221 247 248
f 221 248 249
f 221 249 250
f 221 250 222
f 222 250 223
f 224 251 225
f 225 251 252
f 225 252 253
f 225 253 226
f 226 253 254
f 226 254 227
f 227 254 228
f 228 234 229
f 228 254 234
f 229 234 230
f 230 234 231
f 234 254 255
f 234 255 256
f 234 256 257
f 234 257 235
f 238 257 256
f 238 256 239
f 239 256 255
f 239 255 240
f 240 255 271
f 240 271 258
f 240 258 241
f 241 258 259
f 241 259 260
f 241 260 261
f 241 261 262
f 241 262 263
f 241 263 245
f 241 245 244
f 241 244 242
f 245 263 246
f 246 264 247
f 246 263 262
f 246 262 265
f 246 265 266
f 246 266 264
f 247 264 248
f 248 264 249
f 249 264 266
f 249 266 267
f 249 267 250
f 252 268 253
f 253 268 254
f 254 268 269
f 254 269 270
f 254 270 271
f 254 271 255
f 258 271 270
f 258 270 259
f 259 270 269
f 259 269 260

