# https://github.com/mikedh/trimesh
v -0.09506890 -0.00081306 0.05198264
v -0.09506890 0.00081463 0.05198264
v -0.09442299 -0.00292543 0.05198264
v -0.09542310 -0.00130680 0.05343750
v -0.09517829 -0.00078286 0.05231345
v -0.09550645 -0.00000374 0.05309602
v -0.09446987 0.00278809 0.05198264
v -0.09550645 0.00000531 0.05309602
v -0.09517829 0.00078443 0.05231345
v -0.09542310 0.00130686 0.05343750
v -0.09446987 -0.00292694 0.05212136
v -0.09436048 -0.00305377 0.05198264
v -0.09557416 -0.00209498 0.05473585
v -0.09563667 -0.00078286 0.05408134
v -0.09600130 -0.00097462 0.05602708
v -0.09446987 0.00292700 0.05212136
v -0.09442299 0.00292549 0.05198264
v -0.09600130 0.00097619 0.05602708
v -0.09563667 0.00078443 0.05408134
v -0.09557416 0.00209504 0.05473585
v -0.09502723 -0.00281823 0.05408134
v -0.09373541 -0.00409864 0.05198264
v -0.09569398 -0.00234109 0.05602708
v -0.09627217 -0.00097462 0.05797638
v -0.09516787 -0.00331650 0.05602708
v -0.09502723 0.00281829 0.05408134
v -0.09373541 0.00409870 0.05198264
v -0.09627217 0.00097619 0.05797638
v -0.09569398 0.00234115 0.05602708
v -0.09516787 0.00331656 0.05602708
v -0.09375624 -0.00411977 0.05212136
v -0.09260506 -0.00501213 0.05198264
v -0.09532414 -0.00360036 0.05797638
v -0.09582941 -0.00262345 0.05797638
v -0.09641280 -0.00097462 0.05992924
v -0.09399065 -0.00434475 0.05407422
v -0.09375624 0.00411983 0.05212136
v -0.09244359 0.00513601 0.05198264
v -0.09641280 0.00097619 0.05992924
v -0.09582941 0.00262351 0.05797638
v -0.09532414 0.00360042 0.05797638
v -0.09399065 0.00434481 0.05407422
v -0.09242275 -0.00519936 0.05215693
v -0.09244359 -0.00513595 0.05198264
v -0.09541269 -0.00375286 0.05992924
v -0.09418858 -0.00450933 0.05602708
v -0.09434485 -0.00462409 0.05797638
v -0.09590234 -0.00277595 0.05992924
v -0.09642844 -0.00097462 0.06188210
v -0.09275612 -0.00532167 0.05407422
v -0.09242275 0.00519942 0.05215693
v -0.09213626 0.00535947 0.05198264
v -0.09642844 0.00097619 0.06188210
v -0.09590234 0.00277601 0.05992924
v -0.09541269 0.00375292 0.05992924
v -0.09434485 0.00462415 0.05797638
v -0.09418858 0.00450788 0.05602708
v -0.09275612 0.00532173 0.05407422
v -0.09213626 -0.00535941 0.05198264
v -0.09167266 -0.00589694 0.05282923
v -0.09443341 -0.00468750 0.05992924
v -0.09541790 -0.00376796 0.06188210
v -0.09290197 -0.00548625 0.05602708
v -0.09303741 -0.00559949 0.05797638
v -0.09590754 -0.00279105 0.06188210
v -0.09585024 -0.00266573 0.06383496
v -0.09630863 -0.00097462 0.06383496
v -0.09167266 0.00589700 0.05282923
v -0.09149556 0.00581849 0.05198264
v -0.09630863 0.00097619 0.06383496
v -0.09585024 0.00266579 0.06383496
v -0.09590754 0.00279111 0.06188210
v -0.09541790 0.00376802 0.06188210
v -0.09443341 0.00468756 0.05992924
v -0.09303741 0.00559955 0.05797638
v -0.09290197 0.00548631 0.05602708
v -0.09089132 -0.00599358 0.05198264
v -0.09064649 -0.00607209 0.05198264
v -0.09062566 -0.00625781 0.05407422
v -0.09178205 -0.00594828 0.05407422
v -0.09444382 -0.00469354 0.06188210
v -0.09312596 -0.00566291 0.05992924
v -0.09437090 -0.00464220 0.06383496
v -0.09534497 -0.00364415 0.06383496
v -0.09192790 -0.00600113 0.05602708
v -0.09571482 -0.00239394 0.06578782
v -0.09605340 -0.00097311 0.06578782
v -0.09178205 0.00594834 0.05407422
v -0.09062566 0.00625787 0.05407422
v -0.09064649 0.00607215 0.05198264
v -0.09605340 0.00097619 0.06578782
v -0.09571482 0.00239551 0.06578782
v -0.09536060 0.00359589 0.06390610
v -0.09534497 0.00364270 0.06383496
v -0.09444382 0.00469360 0.06188210
v -0.09437090 0.00464226 0.06383496
v -0.09312596 0.00566297 0.05992924
v -0.09192790 0.00600119 0.05602708
v -0.08867230 -0.00638616 0.05198264
v -0.09062566 -0.00634539 0.05602708
v -0.09313638 -0.00566895 0.06188210
v -0.09206333 -0.00603586 0.05797638
v -0.09215189 -0.00605398 0.05992924
v -0.09306345 -0.00561761 0.06383496
v -0.09292281 -0.00550437 0.06578782
v -0.09421463 -0.00452896 0.06578782
v -0.09400627 -0.00435683 0.06774068
v -0.09519391 -0.00336935 0.06578782
v -0.09558980 -0.00212971 0.06712885
v -0.09566272 -0.00083420 0.06776558
v -0.09551165 -0.00008981 0.06874734
v -0.09062566 0.00634545 0.05602708
v -0.08867230 0.00638622 0.05198264
v -0.09051627 0.00609933 0.05198264
v -0.09551165 0.00009289 0.06874734
v -0.09566272 0.00083728 0.06776558
v -0.09558980 0.00213128 0.06712885
v -0.09519391 0.00337092 0.06578782
v -0.09530330 0.00367743 0.06390610
v -0.09313638 0.00566901 0.06188210
v -0.09421463 0.00453053 0.06578782
v -0.09292281 0.00550594 0.06578782
v -0.09306345 0.00561767 0.06383496
v -0.09215189 0.00605404 0.05992924
v -0.09206333 0.00603592 0.05797638
v -0.08671894 -0.00622460 0.05198264
v -0.04321894 -0.00642391 0.07366328
v -0.08867230 -0.00638918 0.05212136
v -0.09062566 -0.00637408 0.05797638
v -0.09216230 -0.00605700 0.06188210
v -0.09208417 -0.00604039 0.06383496
v -0.09194874 -0.00600415 0.06578782
v -0.09179247 -0.00595130 0.06774068
v -0.09276654 -0.00533224 0.06774068
v -0.09167266 -0.00589694 0.06893587
v -0.09242275 -0.00517219 0.06962951
v -0.09374582 -0.00410467 0.06969354
v -0.09504286 -0.00283786 0.06776558
v -0.09543352 -0.00139136 0.06843076
v -0.09445424 -0.00292543 0.06969354
v -0.09516787 -0.00083420 0.06951568
v -0.09436048 -0.00097311 0.07163572
v -0.09062566 0.00637414 0.05797638
v -0.04511500 0.00900139 0.07366328
v -0.08867230 0.00638924 0.05212136
v -0.08853686 0.00638622 0.05198264
v -0.09436048 0.00097619 0.07163572
v -0.09516787 0.00083728 0.06951568
v -0.09543352 0.00139293 0.06843076
v -0.09445424 0.00292700 0.06969354
v -0.09504286 0.00283943 0.06776558
v -0.09374582 0.00410625 0.06969354
v -0.09400627 0.00435840 0.06774068
v -0.09208417 0.00604045 0.06383496
v -0.09216230 0.00605706 0.06188210
v -0.09276654 0.00533381 0.06774068
v -0.09167266 0.00589851 0.06893587
v -0.09179247 0.00595287 0.06774068
v -0.09194874 0.00600572 0.06578782
v -0.08556776 -0.00593318 0.05198264
v -0.04321894 0.00900139 0.07366328
v -0.04321894 -0.00642391 0.07701053
v -0.04558902 -0.00642391 0.07366328
v -0.08550004 -0.00590449 0.05198264
v -0.08458847 -0.00533073 0.05198264
v -0.08328624 -0.00435079 0.05198264
v -0.08319769 -0.00425416 0.05198264
v -0.08228612 -0.00300697 0.05198264
v -0.08214548 -0.00275028 0.05198264
v -0.08157249 -0.00097462 0.05198264
v -0.08477079 -0.00641334 0.07554144
v -0.08867230 -0.00639220 0.06969354
v -0.09062566 -0.00637559 0.05992924
v -0.09062566 -0.00637559 0.06383496
v -0.09062566 -0.00635143 0.06578782
v -0.09062566 -0.00626083 0.06774068
v -0.09066212 -0.00606756 0.06962951
v -0.09003184 -0.00599358 0.07163572
v -0.08976618 -0.00591355 0.07284515
v -0.09133929 -0.00574897 0.07023066
v -0.09259464 -0.00444592 0.07148277
v -0.09357914 -0.00393556 0.07073222
v -0.09100591 -0.00553155 0.07163572
v -0.09364165 -0.00212216 0.07279535
v -0.09384480 -0.00283333 0.07148277
v -0.09375103 -0.00097311 0.07301589
v -0.09062566 0.00637565 0.05992924
v -0.04352106 0.00900139 0.07574775
v -0.09062566 0.00637565 0.06383496
v -0.09062566 0.00635149 0.06578782
v -0.08867230 0.00639226 0.06969354
v -0.08671894 0.00638169 0.07358858
v -0.08477079 0.00641340 0.07554144
v -0.08671894 0.00622466 0.05198264
v -0.09375103 0.00097619 0.07301589
v -0.09364165 0.00212373 0.07279535
v -0.09384480 0.00283490 0.07148277
v -0.09357914 0.00393713 0.07073222
v -0.09242275 0.00517225 0.06962951
v -0.09133929 0.00574903 0.07023066
v -0.08976618 0.00591512 0.07284515
v -0.09003184 0.00599515 0.07163572
v -0.09066212 0.00606762 0.06962951
v -0.09062566 0.00626089 0.06774068
v -0.04321894 0.00900139 0.07613904
v -0.08157249 0.00097619 0.05198264
v -0.08177043 0.00181872 0.05198264
v -0.08214548 0.00274883 0.05198264
v -0.08223924 0.00292549 0.05198264
v -0.08228612 0.00300703 0.05198264
v -0.08328624 0.00435085 0.05198264
v -0.08448430 0.00525831 0.05198264
v -0.08458847 0.00533079 0.05198264
v -0.08556776 0.00593324 0.05198264
v -0.08661476 0.00620352 0.05198264
v -0.04546400 -0.00642391 0.07416484
v -0.04321894 -0.00636653 0.07705322
v -0.04473996 -0.00393405 0.08630173
v -0.04475037 -0.00585920 0.08432753
v -0.04459932 -0.00600566 0.08334932
v -0.04573487 -0.00619591 0.08334932
v -0.04573487 -0.00635898 0.08139646
v -0.04768302 -0.00637861 0.08139646
v -0.07500400 -0.00638465 0.08139646
v -0.08281743 -0.00641032 0.07749074
v -0.08477079 -0.00623064 0.07749074
v -0.08671894 -0.00638012 0.07358858
v -0.08867230 -0.00630915 0.07163572
v -0.08931821 -0.00571726 0.07414349
v -0.09050064 -0.00521597 0.07353167
v -0.08866709 -0.00606605 0.07353167
v -0.08801597 -0.00595885 0.07512526
v -0.08762009 -0.00583353 0.07642361
v -0.09190186 -0.00418017 0.07358858
v -0.09326139 -0.00342370 0.07203057
v -0.09164140 -0.00394764 0.07463438
v -0.09325097 -0.00097311 0.07399054
v -0.09187060 -0.00273367 0.07538849
v -0.09160494 -0.00195456 0.07651965
v -0.08867230 0.00630921 0.07163572
v -0.08477079 0.00623221 0.07749074
v -0.08687000 0.00612953 0.07568017
v -0.08281743 0.00641189 0.07749074
v -0.09325097 0.00097619 0.07399054
v -0.09326139 0.00342527 0.07203057
v -0.09160494 0.00195613 0.07651965
v -0.09187060 0.00273373 0.07538849
v -0.09164140 0.00394921 0.07463438
v -0.09190186 0.00418174 0.07358858
v -0.09259464 0.00444749 0.07148277
v -0.09100591 0.00553311 0.07163572
v -0.09050064 0.00521754 0.07353167
v -0.08931821 0.00571883 0.07414349
v -0.08762009 0.00583510 0.07642361
v -0.08801597 0.00596042 0.07512526
v -0.08866709 0.00606762 0.07353167
v -0.07305584 0.00621409 0.08334932
v -0.07305584 0.00592267 0.08443780
v -0.07110249 0.00594985 0.08449827
v -0.06915434 0.00596193 0.08452317
v -0.06720098 0.00596495 0.08452673
v -0.04768302 0.00591965 0.08443068
v -0.04573487 0.00589851 0.08439867
v -0.04475037 0.00585926 0.08432753
v -0.04473996 0.00393411 0.08630173
v -0.04321894 0.00279111 0.07927642
v -0.08086407 0.00637414 0.07944360
v -0.07891071 0.00627599 0.08139290
v -0.07696257 0.00637414 0.08139290
v -0.04321894 -0.00279256 0.07927642
v -0.04573487 -0.00292694 0.08697047
v -0.04573487 -0.00411373 0.08647247
v -0.04321894 -0.00098821 0.07961434
v -0.04471912 -0.00292694 0.08636576
v -0.04668811 -0.00004602 0.08823325
v -0.04573487 -0.00508914 0.08537332
v -0.04573487 -0.00589845 0.08439867
v -0.04768302 -0.00591959 0.08443068
v -0.04768302 -0.00620950 0.08334932
v -0.06720098 -0.00629405 0.08334932
v -0.06915434 -0.00629254 0.08334932
v -0.07532174 -0.00638314 0.08139646
v -0.07696257 -0.00637408 0.08139290
v -0.08086407 -0.00637257 0.07944360
v -0.08477079 -0.00595885 0.07890648
v -0.08577091 -0.00586524 0.07849029
v -0.08619284 -0.00595885 0.07749074
v -0.08687000 -0.00612947 0.07568017
v -0.08294766 -0.00612645 0.07958233
v -0.08866709 -0.00550135 0.07568017
v -0.09057357 -0.00436891 0.07538849
v -0.08716691 -0.00556778 0.07749074
v -0.08870355 -0.00458634 0.07749430
v -0.08989641 -0.00412128 0.07684691
v -0.09119344 -0.00325610 0.07593628
v -0.08937551 -0.00352940 0.07815237
v -0.09234982 -0.00097311 0.07554144
v -0.09050585 -0.00274122 0.07733779
v -0.08981306 -0.00222634 0.07867171
v -0.08997454 -0.00097311 0.07886024
v -0.09095383 -0.00097311 0.07759746
v -0.09167266 -0.00097311 0.07661925
v -0.08619284 0.00596042 0.07749074
v -0.08577091 0.00586681 0.07849029
v -0.08477079 0.00596042 0.07890648
v -0.08294766 0.00612651 0.07958233
v -0.09234982 0.00097619 0.07554144
v -0.09095383 0.00097619 0.07759746
v -0.08997454 0.00097619 0.07886024
v -0.08981306 0.00222791 0.07867171
v -0.09050585 0.00274279 0.07733779
v -0.09119344 0.00325767 0.07593628
v -0.09167266 0.00097619 0.07661925
v -0.08937551 0.00353097 0.07815237
v -0.08989641 0.00412134 0.07684691
v -0.09057357 0.00437048 0.07538849
v -0.08866709 0.00550141 0.07568017
v -0.08870355 0.00458791 0.07749430
v -0.08716691 0.00556935 0.07749074
v -0.07497795 0.00607366 0.08345959
v -0.07430600 0.00588644 0.08437733
v -0.07305584 0.00522207 0.08541601
v -0.07110249 0.00529908 0.08547292
v -0.06915434 0.00533834 0.08550138
v -0.06720098 0.00534438 0.08550493
v -0.04768302 0.00520697 0.08540889
v -0.04573487 0.00508920 0.08537332
v -0.04573487 0.00411228 0.08647247
v -0.04471912 0.00292700 0.08636576
v -0.04321894 0.00097619 0.07961434
v -0.04573487 0.00292700 0.08697047
v -0.04668811 0.00004759 0.08823325
v -0.08077031 0.00604951 0.08137156
v -0.08005669 0.00590002 0.08245293
v -0.07891071 0.00596646 0.08262367
v -0.07696257 0.00604498 0.08294025
v -0.07532695 0.00606913 0.08336711
v -0.04768302 -0.00292694 0.08738309
v -0.04768302 -0.00423000 0.08657563
v -0.04470870 -0.00097462 0.08642979
v -0.04591718 -0.00080853 0.08752538
v -0.06525283 -0.00075115 0.08831862
v -0.06734683 -0.00113769 0.08831862
v -0.06809171 -0.00195305 0.08822969
v -0.06679468 -0.00189718 0.08822258
v -0.04751633 -0.00080853 0.08804472
v -0.04768302 -0.00520691 0.08540889
v -0.06720098 -0.00534432 0.08550493
v -0.06720098 -0.00596489 0.08452673
v -0.06915434 -0.00596187 0.08452317
v -0.07110249 -0.00595130 0.08449827
v -0.07110249 -0.00626838 0.08334932
v -0.07891071 -0.00627593 0.08139290
v -0.07305584 -0.00621403 0.08334932
v -0.08368732 -0.00582900 0.08032932
v -0.08616679 -0.00419527 0.08079531
v -0.08661997 -0.00484453 0.07933689
v -0.08807327 -0.00419376 0.07888869
v -0.08477079 -0.00556627 0.07988468
v -0.08077031 -0.00604794 0.08137156
v -0.08238509 -0.00595583 0.08070282
v -0.08746903 -0.00361848 0.08019060
v -0.08865667 -0.00292241 0.07942937
v -0.08793784 -0.00231693 0.08066370
v -0.08911506 -0.00097311 0.07983489
v -0.08807327 0.00419533 0.07888869
v -0.08661997 0.00484610 0.07933689
v -0.08616679 0.00419533 0.08079531
v -0.08477079 0.00556784 0.07988468
v -0.08368732 0.00582906 0.08032932
v -0.08238509 0.00595589 0.08070282
v -0.08911506 0.00097619 0.07983489
v -0.08793784 0.00231851 0.08066370
v -0.08865667 0.00292398 0.07942937
v -0.08746903 0.00362005 0.08019060
v -0.07532174 0.00582000 0.08422437
v -0.07532174 0.00552858 0.08461565
v -0.07497795 0.00520244 0.08513500
v -0.07532695 0.00582151 0.08422082
v -0.07305584 0.00424516 0.08659342
v -0.07110249 0.00432216 0.08667523
v -0.06915434 0.00436142 0.08671791
v -0.06720098 0.00436746 0.08672503
v -0.04768302 0.00422855 0.08657563
v -0.04768302 0.00292700 0.08738309
v -0.04591718 0.00081010 0.08752538
v -0.04470870 0.00097619 0.08642979
v -0.04751633 0.00081010 0.08804472
v -0.06678947 0.00189724 0.08822258
v -0.06734683 0.00113926 0.08832218
v -0.06525283 0.00075272 0.08831862
v -0.08135892 0.00569468 0.08200829
v -0.08093179 0.00492764 0.08337778
v -0.08050986 0.00416362 0.08459076
v -0.07891071 0.00541232 0.08360188
v -0.07696257 0.00566448 0.08391846
v -0.07561344 0.00580188 0.08417813
v -0.06734683 -0.00273367 0.08780284
v -0.06525283 -0.00292694 0.08764988
v -0.06720098 -0.00436740 0.08672503
v -0.06898244 -0.00109692 0.08831506
v -0.06821673 -0.00195305 0.08822969
v -0.06915434 -0.00533828 0.08550138
v -0.07110249 -0.00529902 0.08547292
v -0.07305584 -0.00592261 0.08443780
v -0.07696257 -0.00604492 0.08294025
v -0.07891071 -0.00596489 0.08262367
v -0.08005669 -0.00589845 0.08245293
v -0.07497795 -0.00607360 0.08345959
v -0.07430600 -0.00588638 0.08437733
v -0.08135892 -0.00569311 0.08200829
v -0.08294766 -0.00547719 0.08137156
v -0.08411967 -0.00410920 0.08259877
v -0.08477079 -0.00457728 0.08142848
v -0.08541670 -0.00352185 0.08209722
v -0.08670331 -0.00291939 0.08137868
v -0.08594280 -0.00221879 0.08253118
v -0.08710961 -0.00097311 0.08184466
v -0.08814099 -0.00097311 0.08087001
v -0.08541670 0.00352342 0.08209722
v -0.08411967 0.00411077 0.08259877
v -0.08477079 0.00457885 0.08142848
v -0.08294766 0.00547876 0.08137156
v -0.08814099 0.00097619 0.08087001
v -0.08710961 0.00097619 0.08184466
v -0.08594280 0.00222036 0.08253118
v -0.08670331 0.00291945 0.08137868
v -0.07532695 0.00509071 0.08518479
v -0.07532174 0.00486120 0.08547292
v -0.07500400 0.00410172 0.08645469
v -0.07305584 0.00292700 0.08741511
v -0.07110249 0.00292700 0.08759297
v -0.06898765 0.00273373 0.08779216
v -0.06734683 0.00273373 0.08780284
v -0.06525283 0.00292700 0.08764988
v -0.06809171 0.00195311 0.08822969
v -0.06821673 0.00195311 0.08822969
v -0.06898765 0.00109849 0.08831506
v -0.08281743 0.00442635 0.08301495
v -0.08181210 0.00387825 0.08430619
v -0.07751472 0.00367441 0.08613454
v -0.07621247 0.00397488 0.08633730
v -0.07891071 0.00443692 0.08490378
v -0.07690526 0.00457583 0.08540889
v -0.06898244 -0.00273367 0.08779216
v -0.06915434 -0.00436136 0.08671791
v -0.07110249 -0.00050504 0.08828660
v -0.06951897 -0.00182772 0.08821190
v -0.07110249 -0.00292694 0.08759297
v -0.07110249 -0.00432361 0.08667523
v -0.07305584 -0.00522201 0.08541601
v -0.08050986 -0.00416205 0.08459076
v -0.08093179 -0.00492758 0.08337778
v -0.07561344 -0.00580031 0.08417813
v -0.07696257 -0.00566442 0.08391846
v -0.07891071 -0.00541075 0.08360188
v -0.07497795 -0.00520238 0.08513500
v -0.07532174 -0.00552852 0.08461565
v -0.08281743 -0.00442478 0.08301495
v -0.08181210 -0.00387668 0.08430619
v -0.08298412 -0.00310662 0.08403585
v -0.08477079 -0.00289221 0.08297582
v -0.08613033 -0.00097311 0.08268770
v -0.08374463 -0.00174921 0.08429196
v -0.08477079 0.00289378 0.08297582
v -0.08298412 0.00310668 0.08403585
v -0.08613033 0.00097619 0.08268770
v -0.08374463 0.00175078 0.08429196
v -0.07532174 0.00406850 0.08642623
v -0.07500400 0.00292700 0.08712698
v -0.07110249 0.00148050 0.08817278
v -0.06952417 0.00182627 0.08821190
v -0.07110249 0.00050661 0.08828660
v -0.08244239 0.00257670 0.08466190
v -0.08104118 0.00310668 0.08506741
v -0.07908782 0.00298589 0.08595313
v -0.07854609 0.00237286 0.08648670
v -0.07690526 0.00298589 0.08667167
v -0.07532174 0.00293606 0.08705228
v -0.07221200 -0.00014568 0.08824747
v -0.07110249 -0.00148195 0.08817278
v -0.07305584 -0.00292694 0.08741511
v -0.07305584 -0.00424510 0.08659342
v -0.07891071 -0.00443535 0.08490378
v -0.07621247 -0.00397331 0.08633730
v -0.07751472 -0.00367284 0.08613454
v -0.07690526 -0.00457426 0.08540889
v -0.07500400 -0.00410317 0.08645469
v -0.07532174 -0.00406995 0.08642623
v -0.07532695 -0.00508914 0.08518479
v -0.08244239 -0.00257664 0.08466190
v -0.07908782 -0.00298432 0.08595313
v -0.08104118 -0.00310662 0.08506741
v -0.08463015 -0.00104861 0.08377617
v -0.08389047 -0.00044917 0.08438444
v -0.07984832 -0.00184584 0.08625904
v -0.08076510 -0.00110749 0.08594602
v -0.08298412 -0.00104861 0.08481841
v -0.08389047 0.00045225 0.08438444
v -0.08463015 0.00105169 0.08377617
v -0.08298412 0.00105169 0.08481841
v -0.08076510 0.00110906 0.08594602
v -0.07984832 0.00184741 0.08625904
v -0.07532174 0.00261143 0.08715544
v -0.07500400 0.00097619 0.08773881
v -0.07294125 0.00086899 0.08806962
v -0.07221200 0.00014725 0.08824747
v -0.07696257 0.00097619 0.08729061
v -0.07500400 -0.00097462 0.08773881
v -0.07294125 -0.00086742 0.08806962
v -0.07500400 -0.00292694 0.08712698
v -0.07532695 -0.00319873 0.08692067
v -0.07532174 -0.00293751 0.08705228
v -0.07690526 -0.00298432 0.08667167
v -0.07532174 -0.00320024 0.08692067
v -0.07854609 -0.00237129 0.08648670
v -0.08005147 -0.00054429 0.08634441
v -0.07696257 -0.00097311 0.08729061
v -0.07908782 -0.00110749 0.08661832
v -0.08005147 0.00054737 0.08634441
v -0.07908782 0.00110906 0.08661832
v -0.07532174 0.00097619 0.08766766
v -0.07532695 -0.00097311 0.08766766
f 1 2 7
f 1 7 17
f 1 17 27
f 1 27 38
f 1 38 52
f 1 52 69
f 1 69 90
f 1 90 114
f 1 114 113
f 1 113 146
f 1 146 194
f 1 194 215
f 1 215 214
f 1 214 213
f 1 213 212
f 1 212 211
f 1 211 210
f 1 210 209
f 1 209 208
f 1 208 207
f 1 207 206
f 1 206 170
f 1 170 169
f 1 169 168
f 1 168 167
f 1 167 166
f 1 166 165
f 1 165 164
f 1 164 160
f 1 160 126
f 1 126 99
f 1 99 78
f 1 78 77
f 1 77 59
f 1 59 44
f 1 44 32
f 1 32 22
f 1 22 12
f 1 12 3
f 1 3 4
f 1 4 5
f 1 5 6
f 1 6 8
f 1 8 2
f 2 8 9
f 2 9 10
f 2 10 7
f 3 11 4
f 3 12 11
f 4 11 13
f 4 13 14
f 4 14 6
f 4 6 5
f 6 14 15
f 6 15 18
f 6 18 8
f 7 10 16
f 7 16 17
f 8 18 19
f 8 19 10
f 8 10 9
f 10 19 20
f 10 20 16
f 11 21 13
f 11 12 21
f 12 22 21
f 13 23 24
f 13 24 15
f 13 15 14
f 13 21 25
f 13 25 23
f 15 24 28
f 15 28 18
f 16 20 26
f 16 26 27
f 16 27 17
f 18 28 20
f 18 20 19
f 20 28 29
f 20 29 30
f 20 30 26
f 21 22 31
f 21 31 25
f 22 32 31
f 23 25 33
f 23 33 34
f 23 34 24
f 24 35 39
f 24 39 28
f 24 34 35
f 25 31 36
f 25 36 33
f 26 30 37
f 26 37 27
f 27 37 38
f 28 39 40
f 28 40 29
f 29 40 41
f 29 41 30
f 30 41 42
f 30 42 37
f 31 32 43
f 31 43 36
f 32 44 43
f 33 45 34
f 33 36 46
f 33 46 47
f 33 47 45
f 34 48 35
f 34 45 48
f 35 48 49
f 35 49 53
f 35 53 39
f 36 43 50
f 36 50 46
f 37 42 51
f 37 51 38
f 38 51 52
f 39 53 54
f 39 54 40
f 40 54 55
f 40 55 41
f 41 55 56
f 41 56 57
f 41 57 42
f 42 57 58
f 42 58 51
f 43 59 60
f 43 60 50
f 43 44 59
f 45 47 61
f 45 61 62
f 45 62 65
f 45 65 48
f 46 50 63
f 46 63 47
f 47 63 64
f 47 64 82
f 47 82 61
f 48 65 49
f 49 65 66
f 49 66 67
f 49 67 70
f 49 70 53
f 50 60 63
f 51 58 68
f 51 68 69
f 51 69 52
f 53 70 71
f 53 71 72
f 53 72 54
f 54 72 73
f 54 73 55
f 55 73 74
f 55 74 56
f 56 75 76
f 56 76 57
f 56 74 97
f 56 97 75
f 57 76 58
f 58 76 68
f 59 77 60
f 60 77 78
f 60 78 79
f 60 79 80
f 60 80 64
f 60 64 63
f 61 81 62
f 61 82 101
f 61 101 81
f 62 81 83
f 62 83 84
f 62 84 66
f 62 66 65
f 64 80 85
f 64 85 82
f 66 84 86
f 66 86 67
f 67 87 91
f 67 91 70
f 67 86 87
f 68 88 89
f 68 89 90
f 68 90 69
f 68 76 75
f 68 75 88
f 70 91 92
f 70 92 71
f 71 92 93
f 71 93 94
f 71 94 73
f 71 73 72
f 73 95 74
f 73 94 96
f 73 96 95
f 74 95 120
f 74 120 97
f 75 97 98
f 75 98 88
f 78 99 79
f 79 100 85
f 79 85 80
f 79 99 100
f 81 101 104
f 81 104 83
f 82 85 102
f 82 102 103
f 82 103 101
f 83 104 105
f 83 105 106
f 83 106 84
f 84 106 107
f 84 107 108
f 84 108 86
f 85 100 102
f 86 109 87
f 86 108 109
f 87 109 110
f 87 110 111
f 87 111 115
f 87 115 91
f 88 98 89
f 89 98 112
f 89 112 113
f 89 113 114
f 89 114 90
f 91 115 116
f 91 116 117
f 91 117 92
f 92 117 118
f 92 118 93
f 93 118 94
f 94 118 119
f 94 119 96
f 95 96 123
f 95 123 120
f 96 121 122
f 96 122 123
f 96 119 121
f 97 120 124
f 97 124 125
f 97 125 98
f 98 125 112
f 99 126 127
f 99 127 128
f 99 128 100
f 100 129 103
f 100 103 102
f 100 128 129
f 101 103 130
f 101 130 131
f 101 131 104
f 103 129 130
f 104 131 132
f 104 132 133
f 104 133 105
f 105 134 106
f 105 133 135
f 105 135 134
f 106 134 107
f 107 134 136
f 107 136 137
f 107 137 108
f 108 138 109
f 108 137 138
f 109 139 110
f 109 138 140
f 109 140 139
f 110 139 111
f 111 139 141
f 111 141 142
f 111 142 147
f 111 147 115
f 112 125 124
f 112 124 143
f 112 143 144
f 112 144 145
f 112 145 113
f 113 145 144
f 113 144 161
f 113 161 146
f 115 147 148
f 115 148 149
f 115 149 116
f 116 149 117
f 117 149 150
f 117 150 151
f 117 151 118
f 118 151 152
f 118 152 153
f 118 153 119
f 119 153 121
f 120 123 154
f 120 154 155
f 120 155 124
f 121 153 156
f 121 156 122
f 122 156 157
f 122 157 158
f 122 158 123
f 123 158 159
f 123 159 154
f 124 155 143
f 126 160 127
f 127 161 205
f 127 205 266
f 127 266 330
f 127 330 273
f 127 273 270
f 127 270 217
f 127 217 162
f 127 162 216
f 127 216 163
f 127 163 128
f 127 160 164
f 127 164 165
f 127 165 166
f 127 166 167
f 127 167 168
f 127 168 169
f 127 169 170
f 127 170 206
f 127 206 161
f 128 171 172
f 128 172 173
f 128 173 129
f 128 163 171
f 129 173 130
f 130 173 174
f 130 174 175
f 130 175 131
f 131 175 132
f 132 175 176
f 132 176 133
f 133 176 135
f 134 135 136
f 135 176 177
f 135 177 178
f 135 178 179
f 135 179 180
f 135 180 136
f 136 181 182
f 136 182 137
f 136 180 183
f 136 183 181
f 137 182 138
f 138 182 140
f 139 140 184
f 139 184 142
f 139 142 141
f 140 182 185
f 140 185 184
f 142 184 186
f 142 186 195
f 142 195 147
f 143 155 187
f 143 187 144
f 144 188 205
f 144 205 161
f 144 187 189
f 144 189 190
f 144 190 191
f 144 191 192
f 144 192 193
f 144 193 188
f 146 161 194
f 147 195 196
f 147 196 149
f 147 149 148
f 149 196 150
f 150 196 197
f 150 197 198
f 150 198 151
f 151 198 152
f 152 198 199
f 152 199 153
f 153 199 156
f 154 159 190
f 154 190 155
f 155 190 189
f 155 189 187
f 156 199 157
f 157 200 201
f 157 201 202
f 157 202 203
f 157 203 204
f 157 204 158
f 157 199 200
f 158 204 159
f 159 204 190
f 161 206 207
f 161 207 208
f 161 208 209
f 161 209 210
f 161 210 211
f 161 211 212
f 161 212 213
f 161 213 214
f 161 214 215
f 161 215 194
f 162 217 218
f 162 218 219
f 162 219 220
f 162 220 221
f 162 221 222
f 162 222 223
f 162 223 224
f 162 224 225
f 162 225 171
f 162 171 216
f 163 216 171
f 171 226 227
f 171 227 172
f 171 225 226
f 172 227 228
f 172 228 175
f 172 175 174
f 172 174 173
f 175 228 176
f 176 228 177
f 177 228 178
f 178 228 179
f 179 229 230
f 179 230 183
f 179 183 180
f 179 228 231
f 179 231 232
f 179 232 233
f 179 233 229
f 181 183 230
f 181 230 234
f 181 234 182
f 182 235 184
f 182 184 185
f 182 234 236
f 182 236 235
f 184 237 186
f 184 235 236
f 184 236 238
f 184 238 239
f 184 239 237
f 186 237 244
f 186 244 195
f 188 193 205
f 190 204 240
f 190 240 191
f 191 240 192
f 192 241 193
f 192 240 242
f 192 242 241
f 193 241 243
f 193 243 205
f 195 244 196
f 196 245 198
f 196 198 197
f 196 244 246
f 196 246 247
f 196 247 248
f 196 248 245
f 198 245 248
f 198 248 249
f 198 249 250
f 198 250 199
f 199 250 251
f 199 251 200
f 200 251 201
f 201 251 252
f 201 252 253
f 201 253 254
f 201 254 255
f 201 255 256
f 201 256 240
f 201 240 202
f 202 240 203
f 203 240 204
f 205 257 258
f 205 258 259
f 205 259 260
f 205 260 261
f 205 261 262
f 205 262 263
f 205 263 264
f 205 264 265
f 205 265 266
f 205 243 267
f 205 267 268
f 205 268 269
f 205 269 257
f 217 270 218
f 218 271 272
f 218 272 219
f 218 270 273
f 218 273 274
f 218 274 275
f 218 275 271
f 219 272 276
f 219 276 277
f 219 277 221
f 219 221 220
f 221 277 278
f 221 278 279
f 221 279 223
f 221 223 222
f 223 279 280
f 223 280 224
f 224 280 281
f 224 281 282
f 224 282 225
f 225 282 283
f 225 283 284
f 225 284 226
f 226 285 286
f 226 286 287
f 226 287 288
f 226 288 227
f 226 284 289
f 226 289 285
f 227 288 228
f 228 288 231
f 229 233 290
f 229 290 230
f 230 290 291
f 230 291 236
f 230 236 234
f 231 288 232
f 232 288 233
f 233 288 287
f 233 287 286
f 233 286 292
f 233 292 293
f 233 293 294
f 233 294 290
f 236 295 239
f 236 239 238
f 236 291 294
f 236 294 296
f 236 296 295
f 237 239 297
f 237 297 307
f 237 307 244
f 239 295 298
f 239 298 299
f 239 299 300
f 239 300 301
f 239 301 302
f 239 302 297
f 240 256 242
f 241 242 303
f 241 303 304
f 241 304 305
f 241 305 306
f 241 306 267
f 241 267 243
f 242 256 255
f 242 255 254
f 242 254 303
f 244 307 246
f 246 308 309
f 246 309 310
f 246 310 311
f 246 311 312
f 246 312 248
f 246 248 247
f 246 307 313
f 246 313 308
f 248 312 314
f 248 314 315
f 248 315 316
f 248 316 252
f 248 252 249
f 249 252 250
f 250 252 251
f 252 316 317
f 252 317 253
f 253 317 254
f 254 317 315
f 254 315 318
f 254 318 319
f 254 319 304
f 254 304 303
f 257 320 321
f 257 321 258
f 257 269 268
f 257 268 320
f 258 321 322
f 258 322 323
f 258 323 259
f 259 323 324
f 259 324 260
f 260 324 325
f 260 325 261
f 261 325 262
f 262 325 326
f 262 326 263
f 263 327 264
f 263 326 327
f 264 327 328
f 264 328 265
f 265 329 330
f 265 330 266
f 265 328 331
f 265 331 332
f 265 332 329
f 267 306 268
f 268 306 333
f 268 333 334
f 268 334 335
f 268 335 336
f 268 336 337
f 268 337 320
f 271 275 338
f 271 338 272
f 272 338 339
f 272 339 276
f 273 340 274
f 273 330 387
f 273 387 340
f 274 340 341
f 274 341 275
f 275 332 391
f 275 391 342
f 275 342 343
f 275 343 344
f 275 344 345
f 275 345 346
f 275 346 338
f 275 341 340
f 275 340 387
f 275 387 332
f 276 339 347
f 276 347 277
f 277 347 278
f 278 347 348
f 278 348 349
f 278 349 280
f 278 280 279
f 280 349 281
f 281 350 351
f 281 351 352
f 281 352 283
f 281 283 282
f 281 349 350
f 283 353 284
f 283 352 354
f 283 354 353
f 284 353 289
f 285 289 355
f 285 355 286
f 286 356 357
f 286 357 358
f 286 358 292
f 286 355 359
f 286 359 356
f 289 353 360
f 289 360 361
f 289 361 355
f 290 294 291
f 292 358 293
f 293 358 294
f 294 358 296
f 295 296 298
f 296 299 298
f 296 358 362
f 296 362 363
f 296 363 299
f 297 302 313
f 297 313 307
f 299 363 364
f 299 364 365
f 299 365 300
f 300 365 372
f 300 372 309
f 300 309 308
f 300 308 301
f 301 308 313
f 301 313 302
f 304 319 366
f 304 366 367
f 304 367 368
f 304 368 369
f 304 369 370
f 304 370 305
f 305 370 306
f 306 370 371
f 306 371 333
f 309 372 310
f 310 372 373
f 310 373 374
f 310 374 314
f 310 314 311
f 311 314 312
f 314 374 375
f 314 375 366
f 314 366 315
f 315 366 318
f 315 317 316
f 318 366 319
f 320 337 321
f 321 376 377
f 321 377 378
f 321 378 322
f 321 337 335
f 321 335 334
f 321 334 379
f 321 379 376
f 322 380 381
f 322 381 323
f 322 378 380
f 323 381 382
f 323 382 324
f 324 382 383
f 324 383 325
f 325 383 326
f 326 383 384
f 326 384 327
f 327 384 328
f 328 384 385
f 328 385 331
f 329 332 386
f 329 386 387
f 329 387 330
f 331 385 332
f 332 385 388
f 332 388 389
f 332 389 390
f 332 390 391
f 332 387 386
f 333 371 334
f 334 371 370
f 334 370 392
f 334 392 393
f 334 393 394
f 334 394 395
f 334 395 396
f 334 396 397
f 334 397 379
f 335 337 336
f 338 346 345
f 338 345 344
f 338 344 398
f 338 398 339
f 339 398 399
f 339 399 400
f 339 400 347
f 342 391 390
f 342 390 343
f 343 390 401
f 343 401 402
f 343 402 344
f 344 402 398
f 347 400 348
f 348 400 403
f 348 403 350
f 348 350 349
f 350 403 351
f 351 403 404
f 351 404 405
f 351 405 352
f 352 405 354
f 353 406 407
f 353 407 408
f 353 408 360
f 353 354 409
f 353 409 406
f 354 405 410
f 354 410 409
f 355 361 408
f 355 408 411
f 355 411 412
f 355 412 413
f 355 413 414
f 355 414 359
f 356 359 414
f 356 414 413
f 356 413 415
f 356 415 362
f 356 362 358
f 356 358 357
f 360 408 361
f 362 364 363
f 362 415 416
f 362 416 364
f 364 416 417
f 364 417 418
f 364 418 419
f 364 419 365
f 365 419 424
f 365 424 372
f 366 375 368
f 366 368 367
f 368 420 421
f 368 421 422
f 368 422 369
f 368 375 420
f 369 422 370
f 370 421 423
f 370 423 392
f 370 422 421
f 372 424 373
f 373 425 426
f 373 426 427
f 373 427 375
f 373 375 374
f 373 424 425
f 375 427 420
f 376 379 397
f 376 397 377
f 377 397 428
f 377 428 378
f 378 429 430
f 378 430 380
f 378 428 429
f 380 430 431
f 380 431 432
f 380 432 381
f 381 432 382
f 382 432 433
f 382 433 434
f 382 434 383
f 383 434 435
f 383 435 384
f 384 435 434
f 384 434 385
f 385 434 436
f 385 436 389
f 385 389 388
f 389 436 390
f 390 436 437
f 390 437 438
f 390 438 401
f 392 423 439
f 392 439 393
f 393 439 440
f 393 440 394
f 394 441 442
f 394 442 443
f 394 443 395
f 394 440 441
f 395 443 444
f 395 444 396
f 396 444 397
f 397 444 428
f 398 400 399
f 398 402 445
f 398 445 446
f 398 446 400
f 400 446 403
f 401 438 447
f 401 447 448
f 401 448 402
f 402 448 449
f 402 449 445
f 403 446 404
f 404 446 450
f 404 450 451
f 404 451 405
f 405 451 410
f 406 409 410
f 406 410 407
f 407 410 408
f 408 452 453
f 408 453 411
f 408 410 454
f 408 454 455
f 408 455 456
f 408 456 452
f 410 451 457
f 410 457 458
f 410 458 454
f 411 459 412
f 411 453 459
f 412 459 413
f 413 459 460
f 413 460 461
f 413 461 462
f 413 462 415
f 415 462 417
f 415 417 416
f 417 463 418
f 417 462 464
f 417 464 463
f 418 425 424
f 418 424 419
f 418 463 467
f 418 467 425
f 420 427 426
f 420 426 465
f 420 465 421
f 421 466 440
f 421 440 439
f 421 439 423
f 421 465 466
f 425 467 426
f 426 467 468
f 426 468 465
f 428 444 429
f 429 469 430
f 429 444 442
f 429 442 469
f 430 469 470
f 430 470 431
f 431 471 472
f 431 472 432
f 431 470 471
f 432 472 437
f 432 437 433
f 433 437 434
f 434 437 436
f 437 472 438
f 438 472 473
f 438 473 447
f 440 466 474
f 440 474 475
f 440 475 476
f 440 476 441
f 441 476 477
f 441 477 478
f 441 478 442
f 442 444 443
f 442 478 479
f 442 479 470
f 442 470 469
f 445 449 446
f 446 449 450
f 447 480 481
f 447 481 448
f 447 473 507
f 447 507 480
f 448 481 482
f 448 482 449
f 449 482 483
f 449 483 450
f 450 483 451
f 451 483 457
f 452 456 484
f 452 484 485
f 452 485 486
f 452 486 460
f 452 460 453
f 453 460 459
f 454 487 455
f 454 458 487
f 455 487 456
f 456 487 484
f 457 483 488
f 457 488 489
f 457 489 485
f 457 485 490
f 457 490 458
f 458 490 487
f 460 491 461
f 460 486 492
f 460 492 493
f 460 493 491
f 461 464 462
f 461 491 464
f 463 464 494
f 463 494 495
f 463 495 499
f 463 499 467
f 464 491 496
f 464 496 497
f 464 497 498
f 464 498 495
f 464 495 494
f 465 468 466
f 466 468 474
f 467 499 500
f 467 500 468
f 468 499 501
f 468 501 502
f 468 502 503
f 468 503 474
f 468 500 499
f 470 479 504
f 470 504 505
f 470 505 471
f 471 473 472
f 471 505 506
f 471 506 507
f 471 507 473
f 474 503 475
f 475 503 476
f 476 503 477
f 477 503 508
f 477 508 504
f 477 504 478
f 478 504 479
f 480 507 505
f 480 505 509
f 480 509 510
f 480 510 481
f 481 510 509
f 481 509 511
f 481 511 482
f 482 511 488
f 482 488 483
f 484 487 485
f 485 512 513
f 485 513 514
f 485 514 486
f 485 487 490
f 485 489 515
f 485 515 512
f 486 516 492
f 486 514 516
f 488 511 489
f 489 511 515
f 491 493 496
f 492 516 496
f 492 496 493
f 495 498 517
f 495 517 520
f 495 520 499
f 496 517 497
f 496 516 518
f 496 518 519
f 496 519 517
f 497 517 498
f 499 520 501
f 501 520 502
f 502 520 503
f 503 520 521
f 503 521 508
f 504 508 522
f 504 522 505
f 505 522 523
f 505 523 509
f 505 507 506
f 508 521 520
f 508 520 517
f 508 517 518
f 508 518 523
f 508 523 522
f 509 523 511
f 511 513 512
f 511 512 515
f 511 523 513
f 513 523 518
f 513 518 516
f 513 516 514
f 517 519 518

