# https://github.com/mikedh/trimesh
v -0.03164824 0.04958812 0.05197914
v -0.02936658 0.05158058 0.02172926
v -0.03164824 0.05216939 0.04584088
v -0.03204198 0.04932642 0.05197914
v -0.03164824 0.04350962 0.05197914
v -0.02936658 0.05140809 0.02091914
v -0.03164824 0.05424512 0.03880941
v -0.03164824 0.05426892 0.04005576
v -0.03164824 0.05417971 0.04044524
v -0.03164824 0.05378716 0.04176429
v -0.03164824 0.05356114 0.04238227
v -0.03164824 0.05303181 0.04375325
v -0.03164824 0.05255005 0.04492170
v -0.02936658 0.04405680 0.02172926
v -0.03325011 0.05283553 0.04170197
v -0.03548466 0.05107503 0.04235111
v -0.03384240 0.04812500 0.05197914
v -0.05342833 -0.00649226 0.05197914
v -0.03437748 -0.00649226 0.00619147
v -0.02936658 0.01921943 0.00618628
v -0.02936658 0.05097392 0.01958970
v -0.02947091 0.05095013 0.01962086
v -0.02981417 0.05115830 0.02088279
v -0.03164824 0.05306155 0.03374613
v -0.03192419 0.05398938 0.03844070
v -0.03347222 0.05297828 0.03844070
v -0.03702259 0.05079549 0.03921967
v -0.03702259 0.05079549 0.03966627
v -0.03349914 0.05300207 0.04039850
v -0.03190064 0.05405480 0.04029464
v -0.03213957 0.05328755 0.04235111
v -0.03683077 0.05066465 0.04096974
v -0.03645723 0.05041484 0.04235111
v -0.03697884 0.04882087 0.04533196
v -0.03525245 0.04716742 0.05197914
v -0.05851327 -0.00649226 0.05197914
v -0.02936658 0.01921943 -0.00107369
v -0.04650932 -0.00649226 0.00619147
v -0.02936658 0.05091444 0.01951700
v -0.02956850 0.04908257 0.01768902
v -0.03017089 0.04980223 0.01885747
v -0.03206554 0.04913015 0.01951181
v -0.03305156 0.04880303 0.01989609
v -0.03079010 0.05055164 0.02088279
v -0.03164824 0.05238946 0.03091069
v -0.03179295 0.05315671 0.03454067
v -0.03194102 0.05213371 0.03064064
v -0.03605339 0.05125941 0.03844070
v -0.03506063 0.04883872 0.02559294
v -0.03683077 0.04870786 0.03000708
v -0.03704615 0.04886845 0.03131056
v -0.03772930 0.05008772 0.03844070
v -0.03913935 0.04900525 0.03844589
v -0.03916627 0.04902309 0.04039850
v -0.03777305 0.05009962 0.04034657
v -0.03899465 0.04887440 0.04155137
v -0.03796150 0.04936211 0.04226283
v -0.03705961 0.04693547 0.04938259
v -0.03544428 0.04703063 0.05197914
v -0.06020600 -0.00649226 0.04715474
v -0.05862432 -0.00487450 0.05197914
v -0.06374628 -0.00096689 0.03872113
v -0.06374628 -0.00212074 0.03846147
v -0.03206554 0.01921943 -0.00107369
v -0.02936658 0.02245495 -0.00107369
v -0.05592873 -0.00649226 0.01659328
v -0.04662373 -0.00578449 0.00619147
v -0.03601637 0.01921943 -0.00029472
v -0.03402076 0.01921943 -0.00099061
v -0.02936658 0.05006393 0.01861340
v -0.02936658 0.04913609 0.01763190
v -0.02936658 0.04899336 0.01749688
v -0.02936658 0.04702468 0.01565852
v -0.02949110 0.04708416 0.01578315
v -0.03314579 0.04691167 0.01789155
v -0.03087086 0.04864839 0.01809409
v -0.03529957 0.04706632 0.01961567
v -0.03420922 0.04827369 0.02088279
v -0.03202515 0.04993903 0.02173446
v -0.03561254 0.04729827 0.02088279
v -0.03094490 0.05065274 0.02172926
v -0.03164824 0.05050405 0.02304832
v -0.03672981 0.04666782 0.02173446
v -0.03702596 0.04690573 0.02357282
v -0.04011865 0.04814879 0.03844589
v -0.04125611 0.04719716 0.04039850
v -0.03887350 0.04486569 0.02196295
v -0.04193927 0.04554966 0.03464453
v -0.04334259 0.04536529 0.04039850
v -0.04308346 0.04513333 0.04189412
v -0.03945905 0.04538313 0.04820375
v -0.03737595 0.04545450 0.05197914
v -0.03669279 0.04663214 0.05068606
v -0.03632261 0.04632881 0.05197914
v -0.06109107 -0.00649226 0.04462570
v -0.05888008 -0.00096689 0.05197914
v -0.06374628 0.00098988 0.03872113
v -0.05598258 -0.00649226 0.01665559
v -0.06351743 -0.00289988 0.03846147
v -0.06248093 -0.00649226 0.03873151
v -0.06243382 -0.00649226 0.04015443
v -0.06227228 -0.00649226 0.04111515
v -0.06189537 -0.00649226 0.04232515
v -0.06374628 0.00218536 0.03846147
v -0.06218815 0.00688995 0.03064064
v -0.03206554 0.02050412 -0.00107369
v -0.03011704 0.02245495 -0.00107369
v -0.02936658 0.02439983 -0.00105292
v -0.05611382 -0.00487450 0.01665559
v -0.04663720 -0.00567148 0.00619147
v -0.04668768 -0.00572501 0.00625379
v -0.03666251 0.01921943 0.00015188
v -0.03566975 0.02050412 -0.00014412
v -0.03402076 0.02050412 -0.00087116
v -0.04671796 -0.00443437 0.00619147
v -0.04694344 -0.00096689 0.00619147
v -0.04694344 0.00098394 0.00619147
v -0.04672133 0.00441573 0.00619147
v -0.04663720 0.00568258 0.00619147
v -0.03206554 0.02245495 -0.00100098
v -0.02936658 0.04609090 0.01479126
v -0.02936658 0.04203461 0.01103665
v -0.03002281 0.04386053 0.01312947
v -0.03306502 0.04490732 0.01598568
v -0.03444479 0.04645965 0.01831219
v -0.03596253 0.04586489 0.01890421
v -0.03736922 0.04526418 0.01949103
v -0.03658847 0.04655482 0.02088279
v -0.03772930 0.04557345 0.02088279
v -0.03782690 0.04571620 0.02172926
v -0.04332240 0.04534150 0.03844070
v -0.04071094 0.04281375 0.02035828
v -0.04092295 0.04300407 0.02173446
v -0.04280751 0.04294460 0.02771692
v -0.04432188 0.04446125 0.04039850
v -0.04500503 0.04321819 0.04190970
v -0.04389449 0.04402112 0.04255364
v -0.04279068 0.04292080 0.04719629
v -0.04054941 0.04267100 0.05197914
v -0.03957011 0.04353341 0.05197914
v -0.05888008 0.00098988 0.05197914
v -0.05862432 0.00489154 0.05197914
v -0.05848634 0.00684237 0.05197914
v -0.06243045 -0.00649226 0.03846147
v -0.05851327 0.00688995 0.01974549
v -0.05912575 0.00684237 0.05016155
v -0.06025985 0.00684237 0.04693144
v -0.06186509 0.00684237 0.04235111
v -0.06162615 0.00879320 0.04235111
v -0.06214104 0.00877536 0.04038812
v -0.06177422 0.01074403 0.04039850
v -0.06099684 0.01464569 0.04039850
v -0.06037763 0.01761356 0.03949490
v -0.06037763 0.01761356 0.03936507
v -0.06232613 0.00688995 0.03259326
v -0.05845942 0.00804974 0.01983897
v -0.05963727 0.01923132 0.03844070
v -0.05841231 0.02344226 0.03941700
v -0.05549798 0.02050412 0.02088279
v -0.05653785 0.01781578 0.02148519
v -0.05678351 0.01669762 0.02085682
v -0.05736571 0.01465163 0.02088798
v -0.03011704 0.02439983 -0.00104773
v -0.02936658 0.02635066 -0.00087635
v -0.05626863 -0.00248354 0.01665559
v -0.05612055 -0.00096689 0.01638036
v -0.05329035 -0.00096689 0.01323333
v -0.04963229 -0.00096689 0.00917232
v -0.03737595 0.01921943 0.00073870
v -0.03692163 0.01947518 0.00041673
v -0.04645547 0.00683642 0.00619147
v -0.04618288 0.00828765 0.00619147
v -0.04608529 0.00879320 0.00619147
v -0.04587328 0.00985783 0.00619147
v -0.03526928 0.02188992 0.00014669
v -0.03411499 0.02250847 -0.00028434
v -0.03206554 0.02439983 -0.00064786
v -0.04963229 0.00098394 0.00917232
v -0.05611382 0.00488559 0.01665559
v -0.04668768 0.00573611 0.00625379
v -0.05679361 0.00688995 0.01759035
v -0.03011704 0.02635066 -0.00076210
v -0.03298426 0.04289701 0.01408500
v -0.02936658 0.03928084 0.00850760
v -0.03532649 0.04515712 0.01771499
v -0.03662549 0.04460994 0.01819276
v -0.03867158 0.04273643 0.01812524
v -0.04071430 0.04085102 0.01805254
v -0.04006144 0.04212382 0.01874322
v -0.03940858 0.04338472 0.01942352
v -0.04429833 0.04443151 0.03844070
v -0.04179792 0.04193350 0.02099704
v -0.04190898 0.04204650 0.02173446
v -0.04138063 0.04151121 0.01935601
v -0.04268299 0.04085102 0.02033232
v -0.04496129 0.04316466 0.03649328
v -0.04521368 0.04345609 0.03844589
v -0.04287481 0.04106514 0.02173446
v -0.04524060 0.04347988 0.04039850
v -0.04873376 0.03913215 0.04156695
v -0.04530791 0.04161232 0.04430372
v -0.04277049 0.04094024 0.05104438
v -0.04254502 0.04069044 0.05197914
v -0.04157245 0.04170154 0.05197914
v -0.05851327 0.00832333 0.05141829
v -0.05822049 0.00880509 0.05197914
v -0.05777290 0.00688995 0.01877438
v -0.05636958 0.00098394 0.01665559
v -0.05636622 -0.00096689 0.01665559
v -0.06126270 0.01074403 0.04235111
v -0.06059974 0.01464569 0.04203433
v -0.06045503 0.01593632 0.04162927
v -0.06054926 0.01659057 0.04024790
v -0.05998726 0.01838081 0.04024790
v -0.05969112 0.01922537 0.04031022
v -0.05841231 0.02344226 0.03942220
v -0.06026321 0.01723886 0.04079837
v -0.05661861 0.01610881 0.01966760
v -0.05681044 0.01465163 0.01939756
v -0.05626863 0.01270080 0.01817198
v -0.05665900 0.00879320 0.01774615
v -0.05650419 0.02742123 0.03922486
v -0.05685755 0.02635066 0.03844070
v -0.05789742 0.02421545 0.03863804
v -0.05655804 0.02365637 0.03113918
v -0.05642006 0.02333520 0.02984090
v -0.05479126 0.02249063 0.02099184
v -0.05438743 0.02316272 0.02040502
v -0.05466002 0.02186613 0.01967799
v -0.05639314 0.01741134 0.02018691
v -0.02936658 0.02823606 -0.00033627
v -0.04569492 0.01073808 0.00619147
v -0.04551992 0.01146369 0.00619147
v -0.04520359 0.01268891 0.00619147
v -0.04511272 0.01299224 0.00619147
v -0.04483004 0.01387844 0.00619147
v -0.04414689 0.01589469 0.00619147
v -0.04390795 0.01659651 0.00619147
v -0.04324499 0.01830944 0.00619147
v -0.03991673 0.01921943 0.00327294
v -0.04547281 0.02439983 0.01137420
v -0.04083882 0.02340062 0.00625898
v -0.03764517 0.02050412 0.00164750
v -0.03664568 0.02050412 0.00067119
v -0.05566961 0.00879320 0.01665559
v -0.04641845 0.00879320 0.00655499
v -0.05328026 0.01264728 0.01488474
v -0.03725143 0.02196724 0.00204218
v -0.03884321 0.02332925 0.00434792
v -0.03683414 0.02326383 0.00244205
v -0.03483180 0.02318651 0.00054137
v -0.03309531 0.02544067 0.00034403
v -0.03344867 0.02439983 0.00005841
v -0.03195448 0.02619602 0.00001686
v -0.03004637 0.02820037 -0.00007142
v -0.05595565 0.00683642 0.01665559
v -0.02936658 0.03734786 0.00680426
v -0.02936658 0.03688989 0.00640439
v -0.03402076 0.04245094 0.01445891
v -0.03590532 0.04386053 0.01702950
v -0.03941194 0.04143389 0.01757477
v -0.04130659 0.03954849 0.01757477
v -0.04260896 0.03881098 0.01812005
v -0.04199648 0.04020273 0.01873284
v -0.03693510 0.03706832 0.01210643
v -0.03902157 0.03722296 0.01394998
v -0.04325173 0.03955444 0.01941833
v -0.04512619 0.03751439 0.01949103
v -0.04694007 0.03545056 0.01959489
v -0.04642182 0.03674715 0.02088279
v -0.04544589 0.03787720 0.02088279
v -0.04468533 0.04090455 0.02799735
v -0.04619298 0.04234983 0.03844589
v -0.04470216 0.03898346 0.02172926
v -0.04888857 0.03931058 0.04039850
v -0.04997219 0.03791883 0.04039850
v -0.05053419 0.03698505 0.04105283
v -0.05030198 0.03664009 0.04235111
v -0.04923855 0.03810321 0.04226802
v -0.04868665 0.03712780 0.04537350
v -0.04650595 0.03683636 0.05069644
v -0.04533483 0.03752034 0.05197914
v -0.04340653 0.03971502 0.05197914
v -0.06059637 0.01059534 0.04430892
v -0.05748349 0.01249858 0.05197914
v -0.05811280 0.01272459 0.05008885
v -0.05857721 0.01464569 0.04770002
v -0.05845942 0.01576979 0.04736247
v -0.05744311 0.01270080 0.05197914
v -0.06001418 0.01659057 0.04230957
v -0.05936805 0.01855329 0.04235111
v -0.05851663 0.02180665 0.04166562
v -0.05829116 0.02310919 0.04073086
v -0.05792434 0.02421545 0.04020116
v -0.05685082 0.02645771 0.04034657
v -0.05650419 0.02742123 0.03966627
v -0.05604651 0.01465163 0.01842125
v -0.05489559 0.02050412 0.01936121
v -0.05412157 0.02050412 0.01838490
v -0.05434369 0.01921943 0.01813044
v -0.05469704 0.01354537 0.01665559
v -0.05489223 0.01268891 0.01665559
v -0.05507731 0.01465163 0.01735147
v -0.05455570 0.03132289 0.03918331
v -0.05487877 0.03035937 0.03844070
v -0.05598931 0.02811711 0.03844070
v -0.05454560 0.02350173 0.02172926
v -0.05244566 0.02711790 0.02036867
v -0.05277547 0.02581537 0.01960528
v -0.05311872 0.02439983 0.01919503
v -0.05361342 0.02263932 0.01882112
v -0.05283940 0.02211593 0.01765267
v -0.02936658 0.02945533 0.00020900
v -0.05247259 0.01325988 0.01414213
v -0.05057121 0.01351563 0.01213239
v -0.04865300 0.01367622 0.01014862
v -0.04566799 0.01446726 0.00728203
v -0.05052746 0.01930269 0.01413174
v -0.04887847 0.01921943 0.01236608
v -0.04860925 0.01939786 0.01214797
v -0.04668094 0.01947518 0.01016940
v -0.04245415 0.01921943 0.00581238
v -0.04643191 0.02050412 0.01041867
v -0.05254999 0.02341252 0.01796426
v -0.04669104 0.02341252 0.01210643
v -0.04986786 0.02635066 0.01673349
v -0.05060486 0.02732607 0.01795387
v -0.04864963 0.02732607 0.01600126
v -0.04668431 0.02729633 0.01406423
v -0.04895587 0.02973487 0.01767345
v -0.04173398 0.03010957 0.01121321
v -0.03442123 0.02439983 0.00091527
v -0.03252994 0.02674320 0.00081660
v -0.03122758 0.02748071 0.00027651
v -0.04478293 0.03322614 0.01597010
v -0.04276376 0.03313097 0.01407981
v -0.02936658 0.03471305 0.00457122
v -0.03563610 0.03764524 0.01162866
v -0.04110131 0.03736570 0.01579354
v -0.04447669 0.03677094 0.01818756
v -0.03314579 0.03328561 0.00616031
v -0.03065212 0.02878325 0.00074909
v -0.03881629 0.03504017 0.01216874
v -0.04572857 0.03611075 0.01889382
v -0.04717564 0.03577173 0.02088279
v -0.04633432 0.03461194 0.01829662
v -0.04751217 0.03391606 0.01908597
v -0.04968278 0.03034153 0.01883151
v -0.05082697 0.02963970 0.01959489
v -0.04867319 0.03321424 0.01987013
v -0.04857560 0.03698505 0.02993958
v -0.04653287 0.03688394 0.02172926
v -0.04886501 0.03928084 0.03844070
v -0.04677181 0.03716348 0.02354685
v -0.05066880 0.03718132 0.03915216
v -0.05066880 0.03718132 0.03974936
v -0.05223365 0.03465357 0.04039850
v -0.05287979 0.03367816 0.04039850
v -0.05443455 0.03109093 0.04101129
v -0.05271153 0.03341051 0.04174352
v -0.04833666 0.03466547 0.05016155
v -0.05023468 0.03068649 0.05197914
v -0.04803378 0.03397554 0.05197914
v -0.04698046 0.03552193 0.05197914
v -0.04620644 0.03649140 0.05197914
v -0.05822722 0.01464569 0.04867632
v -0.05700225 0.01477653 0.05197914
v -0.05677342 0.01561515 0.05197914
v -0.05667919 0.01627534 0.05172987
v -0.05651429 0.01650730 0.05197914
v -0.05858394 0.01922537 0.04386231
v -0.05559221 0.01922537 0.05197914
v -0.05804886 0.02246089 0.04233034
v -0.05710321 0.02459015 0.04253287
v -0.05670275 0.02588079 0.04199798
v -0.05637968 0.02717738 0.04096455
v -0.05491242 0.03037721 0.04037773
v -0.05455570 0.03132289 0.03970782
v -0.05478790 0.01660246 0.01766306
v -0.05314901 0.02050412 0.01733070
v -0.05338122 0.01921943 0.01711259
v -0.05443455 0.01464569 0.01665559
v -0.05286296 0.03364247 0.03844070
v -0.05389610 0.03207824 0.03844070
v -0.05264758 0.03137047 0.03122747
v -0.05248942 0.03113257 0.02992919
v -0.05105244 0.02999656 0.02088279
v -0.05440762 0.03104930 0.03787465
v -0.05242211 0.02901520 0.02442449
v -0.05293027 0.02641608 0.02096588
v -0.05260384 0.02743313 0.02173446
v -0.05213943 0.02836691 0.02173446
v -0.05206539 0.02815874 0.02096588
v -0.05230432 0.02439983 0.01821872
v -0.05106254 0.02810521 0.01894056
v -0.05025824 0.02862861 0.01829662
v -0.05091110 0.02211593 0.01568967
v -0.05221347 0.02050412 0.01634920
v -0.02936658 0.02950886 0.00024536
v -0.05038948 0.01464569 0.01232454
v -0.04852175 0.03103146 0.01807851
v -0.04678526 0.03330940 0.01787598
v -0.03938502 0.03373764 0.01169098
v -0.04503196 0.03546840 0.01770460
v -0.04231618 0.03415992 0.01445891
v -0.02936658 0.03142995 0.00183445
v -0.04815157 0.03438593 0.02088279
v -0.05042650 0.03097793 0.02088279
v -0.04880444 0.03341051 0.02088279
v -0.04874049 0.03719917 0.03123785
v -0.04825253 0.03454057 0.02172926
v -0.04924192 0.03624754 0.03060949
v -0.04992507 0.03792478 0.03844070
v -0.05110965 0.03627133 0.03844070
v -0.05394321 0.03206634 0.04037773
v -0.05475761 0.02980029 0.04202395
v -0.05425619 0.03037721 0.04254845
v -0.05318266 0.03229236 0.04237189
v -0.05259374 0.03129910 0.04537350
v -0.05086399 0.02971702 0.05197914
v -0.05511770 0.02061712 0.05197914
v -0.05667919 0.02233599 0.04614728
v -0.05651429 0.02355526 0.04542544
v -0.05649746 0.02159849 0.04733131
v -0.05645035 0.02536335 0.04330664
v -0.05519510 0.02850371 0.04254845
v -0.05090101 0.03167975 0.02478801
v -0.05256682 0.02930069 0.02571757
v -0.05244230 0.02906873 0.04890482
v -0.05161444 0.02831338 0.05197914
v -0.05485521 0.02134274 0.05197914
v -0.05471387 0.02201482 0.05169872
v -0.05449512 0.02230031 0.05197914
v -0.05431340 0.02275233 0.05197914
v -0.05445474 0.02331736 0.05100284
v -0.05470714 0.02385264 0.04969937
v -0.05232788 0.02687405 0.05197914
v -0.05361005 0.02426898 0.05197914
f 1 2 3
f 1 3 4
f 1 4 17
f 1 17 35
f 1 35 59
f 1 59 94
f 1 94 92
f 1 92 140
f 1 140 139
f 1 139 204
f 1 204 203
f 1 203 283
f 1 283 282
f 1 282 365
f 1 365 364
f 1 364 363
f 1 363 362
f 1 362 420
f 1 420 430
f 1 430 437
f 1 437 438
f 1 438 434
f 1 434 433
f 1 433 431
f 1 431 421
f 1 421 372
f 1 372 370
f 1 370 368
f 1 368 367
f 1 367 289
f 1 289 285
f 1 285 206
f 1 206 143
f 1 143 142
f 1 142 141
f 1 141 96
f 1 96 61
f 1 61 36
f 1 36 18
f 1 18 5
f 1 5 14
f 1 14 2
f 2 6 7
f 2 7 8
f 2 8 9
f 2 9 10
f 2 10 11
f 2 11 12
f 2 12 13
f 2 13 3
f 2 14 20
f 2 20 37
f 2 37 65
f 2 65 108
f 2 108 164
f 2 164 231
f 2 231 313
f 2 313 399
f 2 399 406
f 2 406 337
f 2 337 258
f 2 258 257
f 2 257 184
f 2 184 122
f 2 122 121
f 2 121 73
f 2 73 72
f 2 72 71
f 2 71 70
f 2 70 39
f 2 39 21
f 2 21 6
f 3 13 15
f 3 15 16
f 3 16 17
f 3 17 4
f 5 18 19
f 5 19 20
f 5 20 14
f 6 21 22
f 6 22 23
f 6 23 7
f 7 23 24
f 7 24 25
f 7 25 26
f 7 26 27
f 7 27 8
f 8 27 28
f 8 28 29
f 8 29 30
f 8 30 9
f 9 30 29
f 9 29 15
f 9 15 10
f 10 31 11
f 10 15 31
f 11 31 12
f 12 15 13
f 12 31 15
f 15 29 32
f 15 32 33
f 15 33 16
f 16 33 34
f 16 34 17
f 17 34 35
f 18 36 60
f 18 60 95
f 18 95 103
f 18 103 102
f 18 102 101
f 18 101 100
f 18 100 144
f 18 144 98
f 18 98 66
f 18 66 38
f 18 38 19
f 19 37 20
f 19 38 64
f 19 64 37
f 21 39 22
f 22 39 40
f 22 40 41
f 22 41 42
f 22 42 43
f 22 43 44
f 22 44 23
f 23 44 24
f 24 44 45
f 24 45 46
f 24 46 25
f 25 46 26
f 26 46 47
f 26 47 48
f 26 48 27
f 27 48 49
f 27 49 50
f 27 50 51
f 27 51 52
f 27 52 53
f 27 53 54
f 27 54 28
f 28 54 55
f 28 55 32
f 28 32 29
f 32 55 56
f 32 56 57
f 32 57 33
f 33 57 34
f 34 57 56
f 34 56 58
f 34 58 59
f 34 59 35
f 36 61 62
f 36 62 63
f 36 63 60
f 37 64 106
f 37 106 107
f 37 107 65
f 38 66 67
f 38 67 68
f 38 68 69
f 38 69 64
f 39 70 40
f 40 70 71
f 40 71 72
f 40 72 73
f 40 73 74
f 40 74 75
f 40 75 76
f 40 76 41
f 41 76 42
f 42 76 77
f 42 77 43
f 43 78 79
f 43 79 44
f 43 77 80
f 43 80 78
f 44 81 47
f 44 47 45
f 44 79 81
f 45 47 46
f 47 81 82
f 47 82 79
f 47 79 49
f 47 49 48
f 49 79 78
f 49 78 50
f 50 78 80
f 50 80 83
f 50 83 84
f 50 84 51
f 51 84 53
f 51 53 52
f 53 85 86
f 53 86 54
f 53 84 87
f 53 87 88
f 53 88 85
f 54 56 55
f 54 86 56
f 56 86 89
f 56 89 90
f 56 90 91
f 56 91 58
f 58 91 92
f 58 92 93
f 58 93 59
f 59 93 94
f 60 63 95
f 61 96 62
f 62 96 141
f 62 141 97
f 62 97 104
f 62 104 63
f 63 98 99
f 63 99 100
f 63 100 101
f 63 101 102
f 63 102 103
f 63 103 95
f 63 104 105
f 63 105 98
f 64 69 106
f 65 107 108
f 66 98 109
f 66 109 110
f 66 110 111
f 66 111 67
f 67 111 110
f 67 110 68
f 68 112 113
f 68 113 114
f 68 114 69
f 68 110 115
f 68 115 116
f 68 116 117
f 68 117 118
f 68 118 119
f 68 119 112
f 69 114 120
f 69 120 106
f 73 121 74
f 74 121 122
f 74 122 123
f 74 123 124
f 74 124 75
f 75 124 125
f 75 125 76
f 76 125 77
f 77 125 126
f 77 126 127
f 77 127 128
f 77 128 80
f 79 82 81
f 80 128 83
f 83 128 129
f 83 129 84
f 84 129 130
f 84 130 87
f 85 88 131
f 85 131 86
f 86 131 89
f 87 132 133
f 87 133 134
f 87 134 88
f 87 130 129
f 87 129 132
f 88 134 131
f 89 131 135
f 89 135 90
f 90 135 136
f 90 136 137
f 90 137 138
f 90 138 139
f 90 139 140
f 90 140 91
f 91 140 92
f 92 94 93
f 97 141 142
f 97 142 143
f 97 143 104
f 98 144 99
f 98 105 145
f 98 145 109
f 99 144 100
f 104 143 146
f 104 146 147
f 104 147 148
f 104 148 149
f 104 149 150
f 104 150 151
f 104 151 152
f 104 152 153
f 104 153 154
f 104 154 155
f 104 155 105
f 105 156 145
f 105 155 154
f 105 154 157
f 105 157 158
f 105 158 159
f 105 159 160
f 105 160 161
f 105 161 162
f 105 162 156
f 106 120 163
f 106 163 107
f 107 163 108
f 108 163 164
f 109 165 166
f 109 166 167
f 109 167 110
f 109 145 165
f 110 167 168
f 110 168 115
f 112 169 170
f 112 170 113
f 112 119 171
f 112 171 172
f 112 172 173
f 112 173 174
f 112 174 169
f 113 170 175
f 113 175 176
f 113 176 114
f 114 176 177
f 114 177 120
f 115 168 116
f 116 168 178
f 116 178 117
f 117 178 118
f 118 178 179
f 118 179 119
f 119 180 171
f 119 179 181
f 119 181 180
f 120 177 182
f 120 182 163
f 122 183 124
f 122 124 123
f 122 184 183
f 124 183 125
f 125 185 126
f 125 183 185
f 126 185 186
f 126 186 127
f 127 186 187
f 127 187 188
f 127 188 189
f 127 189 190
f 127 190 132
f 127 132 128
f 128 132 129
f 131 134 191
f 131 191 135
f 132 192 193
f 132 193 134
f 132 134 133
f 132 190 194
f 132 194 195
f 132 195 192
f 134 196 197
f 134 197 191
f 134 193 195
f 134 195 198
f 134 198 196
f 135 191 197
f 135 197 199
f 135 199 136
f 136 138 137
f 136 199 200
f 136 200 201
f 136 201 202
f 136 202 138
f 138 202 203
f 138 203 204
f 138 204 139
f 143 205 146
f 143 206 205
f 145 156 207
f 145 207 208
f 145 208 209
f 145 209 165
f 146 205 147
f 147 205 148
f 148 205 149
f 149 210 151
f 149 151 150
f 149 205 210
f 151 210 211
f 151 211 212
f 151 212 152
f 152 212 213
f 152 213 153
f 153 214 215
f 153 215 216
f 153 216 158
f 153 158 154
f 153 213 217
f 153 217 214
f 154 158 157
f 156 162 218
f 156 218 219
f 156 219 220
f 156 220 221
f 156 221 207
f 158 216 296
f 158 296 222
f 158 222 223
f 158 223 224
f 158 224 225
f 158 225 226
f 158 226 159
f 159 226 227
f 159 227 228
f 159 228 229
f 159 229 230
f 159 230 161
f 159 161 160
f 161 230 218
f 161 218 162
f 163 182 164
f 164 182 231
f 165 209 166
f 166 209 208
f 166 208 167
f 167 208 178
f 167 178 168
f 169 174 232
f 169 232 233
f 169 233 234
f 169 234 235
f 169 235 236
f 169 236 237
f 169 237 238
f 169 238 239
f 169 239 240
f 169 240 241
f 169 241 242
f 169 242 243
f 169 243 170
f 170 243 244
f 170 244 175
f 171 180 245
f 171 245 172
f 172 245 246
f 172 246 173
f 173 246 174
f 174 246 247
f 174 247 232
f 175 244 248
f 175 248 249
f 175 249 250
f 175 250 251
f 175 251 252
f 175 252 253
f 175 253 176
f 176 253 177
f 177 253 254
f 177 254 255
f 177 255 182
f 178 208 179
f 179 208 181
f 180 181 256
f 180 256 221
f 180 221 245
f 181 208 207
f 181 207 221
f 181 221 256
f 182 255 231
f 183 184 257
f 183 257 258
f 183 258 259
f 183 259 260
f 183 260 185
f 185 260 186
f 186 260 187
f 187 260 261
f 187 261 188
f 188 262 263
f 188 263 264
f 188 264 194
f 188 194 189
f 188 261 265
f 188 265 266
f 188 266 262
f 189 194 190
f 192 195 193
f 194 264 267
f 194 267 195
f 195 267 268
f 195 268 269
f 195 269 270
f 195 270 271
f 195 271 198
f 196 198 272
f 196 272 273
f 196 273 197
f 197 273 199
f 198 271 274
f 198 274 272
f 199 273 275
f 199 275 200
f 200 275 276
f 200 276 277
f 200 277 278
f 200 278 279
f 200 279 280
f 200 280 281
f 200 281 282
f 200 282 201
f 201 282 202
f 202 282 283
f 202 283 203
f 205 206 284
f 205 284 210
f 206 285 286
f 206 286 211
f 206 211 284
f 210 284 211
f 211 287 288
f 211 288 212
f 211 286 289
f 211 289 287
f 212 290 291
f 212 291 292
f 212 292 217
f 212 217 213
f 212 288 290
f 214 217 215
f 215 293 216
f 215 217 293
f 216 293 294
f 216 294 295
f 216 295 296
f 217 292 293
f 218 297 219
f 218 230 229
f 218 229 298
f 218 298 299
f 218 299 300
f 218 300 297
f 219 297 220
f 220 301 302
f 220 302 245
f 220 245 221
f 220 297 303
f 220 303 301
f 222 296 378
f 222 378 304
f 222 304 305
f 222 305 306
f 222 306 223
f 223 306 307
f 223 307 225
f 223 225 224
f 225 307 226
f 226 307 227
f 227 307 228
f 228 307 308
f 228 308 309
f 228 309 229
f 229 309 310
f 229 310 311
f 229 311 312
f 229 312 299
f 229 299 298
f 231 255 313
f 232 247 314
f 232 314 315
f 232 315 233
f 233 315 234
f 234 315 316
f 234 316 235
f 235 316 236
f 236 316 317
f 236 317 237
f 237 317 318
f 237 318 238
f 238 318 319
f 238 319 320
f 238 320 321
f 238 321 239
f 239 321 322
f 239 322 240
f 240 322 323
f 240 323 324
f 240 324 325
f 240 325 241
f 241 326 327
f 241 327 328
f 241 328 242
f 241 325 324
f 241 324 326
f 242 328 329
f 242 329 249
f 242 249 248
f 242 248 244
f 242 244 243
f 245 302 247
f 245 247 246
f 247 302 314
f 249 329 250
f 250 329 330
f 250 330 331
f 250 331 251
f 251 331 332
f 251 332 252
f 252 333 334
f 252 334 254
f 252 254 253
f 252 332 331
f 252 331 335
f 252 335 336
f 252 336 333
f 254 334 255
f 255 334 313
f 258 337 259
f 259 337 338
f 259 338 261
f 259 261 260
f 261 338 265
f 262 339 263
f 262 266 343
f 262 343 339
f 263 339 340
f 263 340 264
f 264 340 268
f 264 268 267
f 265 338 341
f 265 341 342
f 265 342 266
f 266 342 343
f 268 340 344
f 268 344 269
f 269 345 270
f 269 344 346
f 269 346 347
f 269 347 348
f 269 348 349
f 269 349 350
f 269 350 345
f 270 345 351
f 270 351 352
f 270 352 271
f 271 353 273
f 271 273 272
f 271 272 274
f 271 352 354
f 271 354 353
f 273 353 275
f 275 353 355
f 275 355 356
f 275 356 276
f 276 356 277
f 277 356 357
f 277 357 358
f 277 358 359
f 277 359 360
f 277 360 278
f 278 361 280
f 278 280 279
f 278 360 362
f 278 362 363
f 278 363 361
f 280 361 364
f 280 364 365
f 280 365 281
f 281 365 282
f 285 289 286
f 287 289 366
f 287 366 288
f 288 366 367
f 288 367 368
f 288 368 369
f 288 369 370
f 288 370 291
f 288 291 290
f 289 367 366
f 291 371 292
f 291 370 371
f 292 371 372
f 292 372 373
f 292 373 293
f 293 373 374
f 293 374 375
f 293 375 376
f 293 376 294
f 294 376 295
f 295 376 296
f 296 377 378
f 296 376 377
f 297 300 379
f 297 379 303
f 299 312 380
f 299 380 300
f 300 380 381
f 300 381 379
f 301 314 302
f 301 303 314
f 303 382 315
f 303 315 314
f 303 379 382
f 304 378 356
f 304 356 355
f 304 355 383
f 304 383 384
f 304 384 385
f 304 385 386
f 304 386 387
f 304 387 388
f 304 388 305
f 305 389 306
f 305 388 389
f 306 389 307
f 307 390 308
f 307 389 391
f 307 391 390
f 308 390 391
f 308 391 392
f 308 392 393
f 308 393 387
f 308 387 349
f 308 349 309
f 309 394 310
f 309 349 395
f 309 395 396
f 309 396 394
f 310 394 324
f 310 324 311
f 311 324 312
f 312 324 397
f 312 397 321
f 312 321 398
f 312 398 380
f 313 334 399
f 315 382 379
f 315 379 316
f 316 379 400
f 316 400 317
f 317 400 318
f 318 381 380
f 318 380 320
f 318 320 319
f 318 400 381
f 320 380 398
f 320 398 321
f 321 397 323
f 321 323 322
f 323 397 324
f 324 394 327
f 324 327 326
f 327 394 396
f 327 396 328
f 328 396 329
f 329 396 330
f 330 396 401
f 330 401 402
f 330 402 331
f 331 402 335
f 333 336 403
f 333 403 343
f 333 343 342
f 333 342 334
f 334 342 399
f 335 402 346
f 335 346 336
f 336 346 404
f 336 404 340
f 336 340 405
f 336 405 343
f 336 343 403
f 337 406 341
f 337 341 338
f 339 343 340
f 340 343 405
f 340 404 346
f 340 346 344
f 341 406 399
f 341 399 342
f 345 350 407
f 345 407 351
f 346 402 401
f 346 401 348
f 346 348 347
f 348 396 349
f 348 401 396
f 349 387 350
f 349 396 395
f 350 387 408
f 350 408 409
f 350 409 407
f 351 355 410
f 351 410 352
f 351 407 411
f 351 411 412
f 351 412 355
f 352 410 354
f 353 354 410
f 353 410 413
f 353 413 355
f 355 413 410
f 355 412 414
f 355 414 383
f 356 378 358
f 356 358 357
f 358 378 415
f 358 415 359
f 359 416 417
f 359 417 418
f 359 418 360
f 359 415 378
f 359 378 377
f 359 377 376
f 359 376 375
f 359 375 416
f 360 418 419
f 360 419 362
f 361 363 364
f 362 419 420
f 368 370 369
f 370 372 371
f 372 421 373
f 373 422 423
f 373 423 374
f 373 421 424
f 373 424 422
f 374 423 375
f 375 423 425
f 375 425 426
f 375 426 416
f 379 381 400
f 383 427 385
f 383 385 384
f 383 414 427
f 385 427 408
f 385 408 386
f 386 408 387
f 387 393 392
f 387 392 389
f 387 389 428
f 387 428 388
f 388 428 389
f 389 392 391
f 407 409 411
f 408 427 409
f 409 427 411
f 411 427 414
f 411 414 412
f 416 426 429
f 416 429 417
f 417 429 420
f 417 420 419
f 417 419 418
f 420 429 430
f 421 431 423
f 421 423 422
f 421 422 424
f 423 431 432
f 423 432 433
f 423 433 434
f 423 434 435
f 423 435 436
f 423 436 425
f 425 436 429
f 425 429 426
f 429 436 437
f 429 437 430
f 431 433 432
f 434 438 435
f 435 438 436
f 436 438 437

