# https://github.com/mikedh/trimesh
v -0.00272754 -0.04723311 0.00664076
v -0.00272754 -0.04229002 0.00115270
v -0.00272264 -0.04768154 0.00713172
v -0.00272264 -0.05519003 0.01546948
v -0.00272264 -0.05615988 0.01654959
v -0.00272264 -0.05703587 0.01753151
v -0.00272264 -0.05798486 0.01865644
v -0.00272264 -0.05872528 0.01963195
v -0.00272264 -0.05904857 0.02073341
v -0.00272754 0.03590262 0.00665357
v -0.00272754 -0.04132017 0.00008326
v -0.00082411 -0.04233173 0.00106304
v -0.00226640 -0.04687854 0.00620744
v -0.00168752 -0.04730611 0.00664076
v -0.00082411 -0.05706716 0.01743545
v -0.00082411 -0.05804743 0.01857106
v -0.00082411 -0.05877742 0.01954657
v -0.00082411 -0.05916328 0.02073341
v -0.00272264 -0.05239520 0.02073341
v -0.00272754 0.04724878 0.00665357
v -0.00272754 -0.04128889 0.00005338
v -0.00082411 -0.04135145 -0.00000212
v 0.00112837 -0.04135145 0.00000215
v 0.00112837 -0.04232130 0.00106945
v 0.00018157 -0.04879738 0.00819262
v 0.00011779 -0.04879738 0.00819262
v -0.00076034 -0.04735825 0.00664076
v 0.00112837 -0.05706716 0.01744185
v 0.00112837 -0.05803700 0.01857960
v 0.00112837 -0.05877742 0.01955511
v 0.00091252 -0.05915285 0.02073341
v 0.02348385 -0.04690983 0.02073341
v -0.00075543 0.04737393 0.00665357
v -0.00272754 0.04315040 0.00210473
v -0.00272754 -0.04001661 -0.00067452
v -0.00082411 -0.04001661 -0.00073216
v 0.00308086 -0.04225874 0.00113989
v 0.00112837 -0.04001661 -0.00072789
v 0.00308086 -0.04001661 -0.00066385
v 0.00503335 -0.04001661 -0.00057633
v 0.00308086 -0.04127846 0.00006405
v 0.00105969 -0.04734782 0.00664076
v 0.00503335 -0.05420976 0.01454733
v 0.00308086 -0.05700458 0.01751443
v 0.00503335 -0.05693159 0.01758274
v 0.00308086 -0.05797443 0.01867352
v 0.00308086 -0.05871485 0.01965117
v 0.00503335 -0.05865228 0.01974936
v 0.00112837 -0.05914242 0.02073341
v 0.02348385 -0.05425147 0.02073341
v 0.04738954 -0.00036759 0.00665357
v 0.04738463 0.00065440 0.00665357
v 0.04710991 0.00486750 0.00665357
v 0.04687934 0.00682805 0.00665357
v 0.04651141 0.00877818 0.00665357
v 0.04611895 0.01072830 0.00665357
v 0.04567253 0.01256371 0.00665357
v 0.04546158 0.01325199 0.00665357
v 0.04501516 0.01463897 0.00665357
v 0.04465704 0.01568182 0.00665357
v 0.04434307 0.01657867 0.00665357
v 0.04424005 0.01687066 0.00665357
v 0.04370042 0.01827851 0.00665357
v 0.04336683 0.01902936 0.00665357
v 0.04266040 0.02048934 0.00665357
v 0.04178718 0.02224132 0.00665357
v 0.04143887 0.02294003 0.00665357
v 0.04069811 0.02423316 0.00665357
v 0.03963846 0.02584958 0.00665357
v 0.03876034 0.02716356 0.00665357
v 0.03804410 0.02820640 0.00665357
v 0.03757315 0.02885297 0.00665357
v 0.03649879 0.03014610 0.00665357
v 0.03463461 0.03228393 0.00665357
v 0.03359459 0.03344150 0.00665357
v 0.03242211 0.03449477 0.00665357
v 0.03065605 0.03605904 0.00665357
v 0.02900772 0.03743560 0.00665357
v 0.02838469 0.03790488 0.00665357
v 0.02690806 0.03892687 0.00665357
v 0.02454840 0.04050157 0.00665357
v 0.02313554 0.04134628 0.00665357
v 0.02246836 0.04167999 0.00665357
v 0.02077097 0.04252469 0.00665357
v 0.01923057 0.04326511 0.00665357
v 0.01852905 0.04359882 0.00665357
v 0.01675317 0.04428710 0.00665357
v 0.01417275 0.04516309 0.00665357
v 0.01349575 0.04538209 0.00665357
v 0.01290216 0.04556980 0.00665357
v 0.01088590 0.04608079 0.00665357
v 0.00699074 0.04685250 0.00665357
v 0.00503335 0.04709236 0.00665357
v 0.00281595 0.04723836 0.00665357
v 0.00105969 0.04735307 0.00665357
v 0.00043176 0.04736349 0.00665357
v 0.00112837 0.04232655 0.00106945
v -0.00082411 0.04232655 0.00106304
v -0.00272754 0.04129413 0.00005338
v -0.00272754 -0.03810820 -0.00106302
v 0.00503335 -0.03805606 -0.00107156
v 0.00699074 -0.03805606 -0.00106729
v 0.00600959 -0.04488671 0.00428843
v 0.00503335 -0.04708711 0.00664076
v 0.00424352 -0.04713925 0.00664076
v 0.00893832 -0.03805606 -0.00103313
v 0.01089080 -0.03805606 -0.00091146
v 0.00893832 -0.03988104 -0.00030310
v 0.00503335 -0.04119503 0.00015370
v 0.00698583 -0.05685858 0.01767452
v 0.00503335 -0.05791186 0.01877385
v 0.00649526 -0.05860014 0.01983688
v 0.00503335 -0.05890256 0.02073341
v 0.02313064 -0.05441832 0.02073341
v 0.02183552 -0.05474161 0.01977070
v 0.02348385 -0.05344847 0.01908977
v 0.03753881 -0.02886858 0.00664076
v 0.03803429 -0.02820116 0.00664076
v 0.03902034 -0.02676203 0.00664076
v 0.03963846 -0.02583390 0.00664076
v 0.04058037 -0.02439477 0.00664076
v 0.04070791 -0.02418620 0.00664076
v 0.04115925 -0.02344578 0.00664076
v 0.04141925 -0.02296607 0.00664076
v 0.04265059 -0.02049453 0.00664076
v 0.04311664 -0.01952468 0.00664076
v 0.04369061 -0.01828369 0.00664076
v 0.04422534 -0.01690713 0.00665357
v 0.04434307 -0.01657342 0.00665357
v 0.04465704 -0.01567657 0.00665357
v 0.04525554 -0.01390373 0.00665357
v 0.04546158 -0.01324674 0.00665357
v 0.04567253 -0.01255846 0.00665357
v 0.04611895 -0.01071262 0.00665357
v 0.04651141 -0.00877293 0.00665357
v 0.04683519 -0.00705223 0.00665357
v 0.04686953 -0.00682281 0.00665357
v 0.04705595 -0.00535239 0.00665357
v 0.04710991 -0.00487268 0.00665357
v 0.04738954 -0.00067001 0.00665357
v 0.04701670 0.00031026 0.00621811
v 0.04686953 0.00486750 0.00638461
v 0.04500535 0.00521164 0.00433539
v 0.04309701 0.00593121 0.00232246
v 0.04488761 0.00682805 0.00446133
v 0.04120830 0.00620235 0.00030953
v 0.04095320 0.00877818 0.00058916
v 0.04450006 0.01072830 0.00488398
v 0.04521630 0.01226128 0.00605802
v 0.04501516 0.01355441 0.00627361
v 0.03903506 0.01517083 0.00054434
v 0.04233662 0.01267842 0.00313361
v 0.04352381 0.01657867 0.00578479
v 0.04327362 0.01795523 0.00605375
v 0.04132604 0.01796565 0.00408991
v 0.04297437 0.01924836 0.00636113
v 0.04102188 0.01925878 0.00441010
v 0.03778900 0.02048934 0.00178668
v 0.04102188 0.02317989 0.00635259
v 0.03744560 0.02179290 0.00213035
v 0.03967280 0.02438959 0.00578479
v 0.03624369 0.02241861 0.00138110
v 0.03434517 0.02454601 0.00094351
v 0.03684710 0.02675685 0.00463637
v 0.03327081 0.02528644 0.00042907
v 0.03707767 0.02907197 0.00636967
v 0.03500254 0.02895725 0.00452110
v 0.03141644 0.02736170 0.00035436
v 0.03333949 0.03318078 0.00623519
v 0.03129870 0.03506834 0.00629709
v 0.02883111 0.03069881 0.00082610
v 0.02752618 0.03127238 0.00034795
v 0.02649107 0.03270107 0.00078982
v 0.02547558 0.03313907 0.00041626
v 0.02924810 0.03692460 0.00636326
v 0.02701108 0.03872873 0.00652549
v 0.02570615 0.03916673 0.00612419
v 0.02191892 0.03531862 0.00021347
v 0.02198760 0.03731045 0.00211327
v 0.02339555 0.04088742 0.00632698
v 0.01948567 0.03698718 0.00048457
v 0.01948567 0.04284797 0.00633551
v 0.01817583 0.04315040 0.00601959
v 0.01675317 0.04342154 0.00573355
v 0.01512446 0.04467295 0.00647213
v 0.01382444 0.04489195 0.00623946
v 0.01283838 0.04413067 0.00509318
v 0.01088590 0.04062671 0.00076634
v 0.01088590 0.04342154 0.00376545
v 0.00731942 0.04476681 0.00442931
v 0.00893341 0.04085613 0.00052299
v 0.00600959 0.04488152 0.00428843
v 0.00503335 0.04584094 0.00526608
v 0.00308086 0.04499624 0.00417529
v 0.00308086 0.04225355 0.00113989
v 0.00308086 0.04127327 0.00006405
v 0.00112837 0.04134628 0.00000215
v -0.00082411 0.04134628 -0.00000212
v -0.00272754 0.04000100 -0.00067452
v -0.00272754 -0.03805606 -0.00107156
v 0.01284329 -0.03610594 -0.00107156
v 0.00893832 -0.05582617 0.01685697
v 0.00893832 -0.05671259 0.01783248
v 0.00656394 -0.04110117 0.00026684
v 0.01479578 -0.03610594 -0.00103527
v 0.01284329 -0.03805606 -0.00066171
v 0.01089080 -0.03965161 -0.00018143
v 0.01675317 -0.03610594 -0.00083462
v 0.00708395 -0.05797443 0.01908123
v 0.00780019 -0.05854800 0.01997136
v 0.00698093 -0.05876700 0.02073341
v 0.02214949 -0.05486675 0.02073341
v 0.01735657 -0.05647273 0.02049007
v 0.01605165 -0.05670216 0.01975363
v 0.02064833 -0.05495018 0.01948467
v 0.02064833 -0.05416804 0.01850915
v 0.02210533 -0.05291662 0.01772149
v 0.02261553 -0.05368833 0.01890192
v 0.02340045 -0.05262463 0.01803314
v 0.02348385 -0.05260377 0.01805662
v 0.03358478 -0.03342582 0.00664076
v 0.03480631 -0.03205969 0.00664076
v 0.03631237 -0.03034942 0.00664076
v 0.03720522 -0.02930658 0.00664076
v 0.03707767 -0.02907715 0.00636753
v 0.03327571 -0.02530205 0.00042907
v 0.03756333 -0.02778402 0.00593848
v 0.03684710 -0.02676203 0.00463637
v 0.03434517 -0.02455120 0.00094351
v 0.03765164 -0.02439477 0.00390634
v 0.03862298 -0.02439477 0.00480927
v 0.03744560 -0.02179808 0.00213035
v 0.04102188 -0.02318507 0.00635259
v 0.04134566 -0.02189194 0.00603240
v 0.03778900 -0.02049453 0.00178668
v 0.03743579 -0.01796041 0.00019213
v 0.04133094 -0.01797084 0.00408991
v 0.04326381 -0.01796041 0.00605375
v 0.04346495 -0.01690713 0.00584883
v 0.04352381 -0.01657342 0.00578479
v 0.03903506 -0.01515515 0.00054434
v 0.04233662 -0.01268361 0.00313361
v 0.04501516 -0.01355960 0.00627361
v 0.04521630 -0.01224561 0.00605802
v 0.04450006 -0.01071262 0.00488398
v 0.04095320 -0.00877293 0.00058916
v 0.04120830 -0.00619710 0.00030953
v 0.04488761 -0.00682281 0.00446133
v 0.04577555 -0.00682281 0.00543898
v 0.04675179 -0.00682281 0.00651482
v 0.04500535 -0.00520640 0.00433539
v 0.04686953 -0.00487268 0.00638461
v 0.04572649 -0.00469540 0.00509744
v 0.04420081 -0.00293299 0.00327663
v 0.04240530 -0.00097244 0.00114629
v 0.04701670 -0.00031545 0.00621811
v 0.04143397 0.00097768 0.00007046
v 0.04426458 0.00097768 0.00320619
v 0.04572649 0.00467979 0.00509744
v 0.04136529 0.00291738 0.00013663
v 0.04315588 0.00486750 0.00227123
v 0.04128679 0.00486750 0.00022201
v 0.03998187 0.00877818 -0.00028389
v 0.03975130 0.01072830 -0.00014727
v 0.04072263 0.01072830 0.00082610
v 0.04261625 0.01072830 0.00284758
v 0.04352381 0.01072830 0.00382309
v 0.04325890 0.01267842 0.00411126
v 0.04043320 0.01267842 0.00113135
v 0.03925091 0.01386727 0.00031167
v 0.03775956 0.01657867 -0.00008110
v 0.03873581 0.01657867 0.00084532
v 0.03938337 0.01796565 0.00213888
v 0.03743579 0.01795523 0.00019213
v 0.03711201 0.01925878 0.00051019
v 0.03677842 0.02048934 0.00081116
v 0.03545877 0.02171990 0.00022842
v 0.03372214 0.02400374 0.00005552
v 0.03185305 0.02633971 0.00004484
v 0.03283420 0.02633971 0.00080262
v 0.03349157 0.02750770 0.00220079
v 0.02954735 0.02938482 0.00028819
v 0.02649107 0.03171037 0.00003843
v 0.02828657 0.03012524 0.00003417
v 0.02417556 0.03357707 0.00004270
v 0.02471519 0.03420277 0.00091789
v 0.02064833 0.03568362 -0.00007470
v 0.02064833 0.03665347 0.00077914
v 0.01817093 0.03730003 0.00016864
v 0.01882830 0.03812388 0.00129999
v 0.01817583 0.04121070 0.00406429
v 0.01675317 0.03861402 0.00080049
v 0.01541881 0.03890601 0.00051231
v 0.01411878 0.03913544 0.00027964
v 0.01283838 0.04033471 0.00107799
v 0.01283838 0.04223269 0.00308238
v 0.01283838 0.03935444 0.00006619
v 0.01088590 0.03964643 -0.00018143
v 0.00707414 0.04198241 0.00134268
v 0.00628431 0.04299397 0.00227977
v 0.00656394 0.04108556 0.00026684
v 0.00503335 0.04492324 0.00425001
v 0.00503335 0.04118984 0.00015157
v 0.00503335 0.04000100 -0.00057633
v 0.00308086 0.04000100 -0.00066385
v 0.00112837 0.04000100 -0.00072789
v -0.00082411 0.04000100 -0.00073216
v -0.00272754 0.03806131 -0.00107156
v 0.02064833 -0.03219526 -0.00107156
v 0.01870075 -0.03415582 -0.00103954
v 0.01022853 -0.05472075 0.01593055
v 0.01125383 -0.05648316 0.01808437
v 0.00893832 -0.05756772 0.01892754
v 0.00786396 -0.04096560 0.00040772
v 0.01088590 -0.04607555 0.00664076
v 0.01478106 -0.03817077 -0.00023266
v 0.01675317 -0.03764935 -0.00010458
v 0.01284329 -0.03934919 0.00006832
v 0.01089080 -0.04062146 0.00076634
v 0.00893832 -0.04085089 0.00052299
v 0.02064833 -0.03415582 -0.00080473
v 0.01877433 -0.03624151 -0.00030097
v 0.00910511 -0.05845414 0.02073341
v 0.00824170 -0.05862100 0.02073341
v 0.00708395 -0.05875656 0.02072487
v 0.01283838 -0.05706716 0.01923919
v 0.01479087 -0.05686902 0.01951455
v 0.01479087 -0.05727572 0.02073341
v 0.00708395 -0.05875656 0.02073341
v 0.02064833 -0.05538817 0.02073341
v 0.01707204 -0.05661873 0.02073341
v 0.01656184 -0.05678559 0.02073341
v 0.01787168 -0.05634759 0.02073341
v 0.01479087 -0.05609731 0.01853690
v 0.01774903 -0.05466861 0.01794348
v 0.01904906 -0.05443918 0.01817616
v 0.02064833 -0.05319819 0.01743118
v 0.01942189 -0.04675340 0.01023757
v 0.02210533 -0.05098736 0.01576192
v 0.02210533 -0.04903723 0.01381089
v 0.02348385 -0.04616941 0.01162506
v 0.02348385 -0.05006965 0.01552285
v 0.02562275 -0.03977676 0.00664076
v 0.02710429 -0.03878605 0.00664076
v 0.02837978 -0.03789964 0.00664076
v 0.02901753 -0.03741992 0.00664076
v 0.02946886 -0.03706536 0.00664076
v 0.03029302 -0.03635622 0.00664076
v 0.03230438 -0.03458338 0.00664076
v 0.03332968 -0.03318597 0.00623519
v 0.03313345 -0.03099599 0.00445493
v 0.03500254 -0.02896244 0.00452110
v 0.03371233 -0.02399849 0.00005338
v 0.03545386 -0.02172508 0.00022842
v 0.03283420 -0.02634489 0.00080262
v 0.03141644 -0.02736688 0.00035436
v 0.03185305 -0.02634489 0.00004484
v 0.03677842 -0.02049453 0.00081116
v 0.03711201 -0.01926397 0.00050805
v 0.03580708 -0.02049453 -0.00005549
v 0.03775956 -0.01657342 -0.00008110
v 0.03873581 -0.01657342 0.00084532
v 0.03888789 -0.01690713 0.00115056
v 0.03925091 -0.01385159 0.00031167
v 0.04043320 -0.01268361 0.00113135
v 0.04325890 -0.01268361 0.00411126
v 0.04072263 -0.01071262 0.00082610
v 0.04261625 -0.01071262 0.00284758
v 0.04352381 -0.01071262 0.00382309
v 0.03975130 -0.01071262 -0.00014727
v 0.04128679 -0.00487268 0.00022201
v 0.04309701 -0.00592596 0.00232246
v 0.03998187 -0.00877293 -0.00028389
v 0.04315588 -0.00487268 0.00227123
v 0.04136529 -0.00293299 0.00013663
v 0.04143397 -0.00097244 0.00007046
v 0.04016338 0.00291738 -0.00059340
v 0.04016338 0.00486750 -0.00050802
v 0.04016338 0.00097768 -0.00065744
v 0.04032527 0.00684891 -0.00023479
v 0.03820599 0.01072830 -0.00087517
v 0.03820599 0.01267842 -0.00061475
v 0.03831882 0.01455555 -0.00020491
v 0.03945205 0.01267842 0.00011315
v 0.03638105 0.01857051 -0.00028176
v 0.03581198 0.02048934 -0.00005762
v 0.03625841 0.01657867 -0.00080900
v 0.03251042 0.02454601 -0.00035860
v 0.03434517 0.02239775 -0.00019851
v 0.03040095 0.02633971 -0.00065744
v 0.03027340 0.02812298 0.00003630
v 0.02649107 0.03025039 -0.00066598
v 0.02471519 0.03237780 -0.00036714
v 0.02845337 0.02828983 -0.00073002
v 0.02257138 0.03420277 -0.00021345
v 0.01877433 0.03623633 -0.00030097
v 0.01675317 0.03764417 -0.00010458
v 0.02064833 0.03414021 -0.00080473
v 0.01478106 0.03817602 -0.00023266
v 0.01283838 0.03806131 -0.00066171
v 0.01088590 0.03806131 -0.00091146
v 0.00893341 0.03988629 -0.00030524
v 0.00893341 0.03806131 -0.00103313
v 0.00699074 0.03806131 -0.00106729
v 0.00503335 0.03806131 -0.00107156
v 0.02649598 -0.02829502 -0.00104807
v 0.02454349 -0.03024514 -0.00102673
v 0.03234853 -0.02049453 -0.00107156
v 0.02258610 -0.03219526 -0.00096483
v 0.01283838 -0.05347976 0.01514929
v 0.01283838 -0.05534646 0.01718997
v 0.01283838 -0.05632673 0.01826367
v 0.01336820 -0.05065364 0.01220140
v 0.01283838 -0.05258291 0.01417378
v 0.01089080 -0.04342672 0.00376545
v 0.01817093 -0.03730521 0.00017078
v 0.01541881 -0.03891120 0.00051019
v 0.01411878 -0.03914062 0.00027751
v 0.02064833 -0.03567837 -0.00007470
v 0.01284329 -0.04032947 0.00107799
v 0.01284329 -0.04125760 0.00205563
v 0.01284329 -0.04315558 0.00405789
v 0.01355953 -0.04873481 0.01021409
v 0.01089080 -0.04153917 0.00174399
v 0.02257138 -0.03419753 -0.00021558
v 0.02649598 -0.03024514 -0.00066598
v 0.02471029 -0.03237255 -0.00036714
v 0.01479087 -0.05512746 0.01744399
v 0.01674336 -0.05483546 0.01776418
v 0.01784715 -0.05274977 0.01595403
v 0.01479087 -0.05043465 0.01242767
v 0.01457502 -0.04502228 0.00664076
v 0.01934340 -0.04868267 0.01221421
v 0.01675317 -0.04428185 0.00664076
v 0.01817583 -0.04314515 0.00601959
v 0.01817583 -0.04120546 0.00406429
v 0.02066305 -0.04257159 0.00664076
v 0.02245855 -0.04168517 0.00664076
v 0.02314535 -0.04134103 0.00664076
v 0.02348385 -0.04290530 0.00837833
v 0.02366536 -0.04104903 0.00664076
v 0.02444538 -0.04054846 0.00664076
v 0.02454349 -0.03954733 0.00576344
v 0.02190911 -0.03532380 0.00021347
v 0.02555407 -0.03515695 0.00231819
v 0.02693259 -0.03671079 0.00462143
v 0.02547558 -0.03314425 0.00041626
v 0.02924810 -0.03692979 0.00636326
v 0.02824242 -0.03202841 0.00151131
v 0.03115153 -0.03298783 0.00445066
v 0.03129870 -0.03506309 0.00629709
v 0.02970924 -0.03147570 0.00212821
v 0.02954735 -0.02939001 0.00028819
v 0.03084737 -0.02867044 0.00083251
v 0.03349157 -0.02751288 0.00220079
v 0.03251532 -0.02455120 -0.00035860
v 0.03434517 -0.02240293 -0.00020064
v 0.03027340 -0.02812816 0.00003630
v 0.03040095 -0.02634489 -0.00065744
v 0.03430592 -0.02049453 -0.00078552
v 0.03638105 -0.01858612 -0.00027962
v 0.03625841 -0.01657342 -0.00080900
v 0.03831882 -0.01456073 -0.00020491
v 0.03945205 -0.01268361 0.00011315
v 0.03628294 -0.01690713 -0.00072148
v 0.03820599 -0.01071262 -0.00087517
v 0.03820599 -0.01268361 -0.00061475
v 0.04016338 -0.00487268 -0.00050802
v 0.04032527 -0.00684366 -0.00023479
v 0.04016338 -0.00293299 -0.00059340
v 0.04016338 -0.00097244 -0.00065744
v 0.03820599 0.00877818 -0.00101179
v 0.03820599 0.00486750 -0.00107156
v 0.03820599 0.00682805 -0.00106089
v 0.03625841 0.01463897 -0.00102886
v 0.03431083 0.02048934 -0.00078552
v 0.03431083 0.01853922 -0.00103100
v 0.03234853 0.02242904 -0.00095629
v 0.02454840 0.03025039 -0.00102673
v 0.02259591 0.03220051 -0.00096269
v 0.03040095 0.02438959 -0.00102673
v 0.02845337 0.02633971 -0.00104595
v 0.02649107 0.02828983 -0.00104807
v 0.01675317 0.03610076 -0.00083462
v 0.01870075 0.03414021 -0.00103954
v 0.01479087 0.03610076 -0.00103527
v 0.01283838 0.03610076 -0.00107156
v 0.02845337 -0.02634489 -0.00104595
v 0.02845337 -0.02829502 -0.00073002
v 0.03625841 -0.01268361 -0.00107156
v 0.03431083 -0.01690713 -0.00106516
v 0.03430592 -0.01853397 -0.00103100
v 0.03040095 -0.02439477 -0.00102673
v 0.01479087 -0.05233263 0.01444274
v 0.01479087 -0.05422018 0.01646634
v 0.01948076 -0.03698193 0.00048457
v 0.01882830 -0.03811863 0.00129999
v 0.01675317 -0.03861920 0.00080049
v 0.02417556 -0.03358225 0.00004270
v 0.02828657 -0.03013043 0.00003203
v 0.02649598 -0.03172598 0.00003843
v 0.02064833 -0.03767021 0.00175679
v 0.02339064 -0.04089261 0.00632698
v 0.02198760 -0.03730521 0.00211541
v 0.02064833 -0.03665865 0.00077914
v 0.02751637 -0.03126713 0.00034795
v 0.02882130 -0.03069357 0.00082610
v 0.03234853 -0.02243422 -0.00095629
v 0.03625841 -0.01463373 -0.00102886
v 0.03820599 -0.00877293 -0.00101179
v 0.03820599 -0.00682281 -0.00106089
v 0.03820599 -0.00487268 -0.00107156
v 0.03625841 0.01267842 -0.00107156
v 0.03234853 0.02048934 -0.00107156
v 0.02064833 0.03220051 -0.00107156
f 1 2 3
f 1 3 4
f 1 4 5
f 1 5 6
f 1 6 7
f 1 7 8
f 1 8 9
f 1 9 10
f 1 10 20
f 1 20 34
f 1 34 99
f 1 99 199
f 1 199 308
f 1 308 200
f 1 200 100
f 1 100 35
f 1 35 21
f 1 21 11
f 1 11 2
f 2 11 12
f 2 12 13
f 2 13 3
f 3 13 14
f 3 14 4
f 4 15 5
f 4 14 15
f 5 15 6
f 6 15 16
f 6 16 7
f 7 16 8
f 8 17 18
f 8 18 9
f 8 16 17
f 9 18 31
f 9 31 49
f 9 49 113
f 9 113 211
f 9 211 329
f 9 329 324
f 9 324 323
f 9 323 328
f 9 328 332
f 9 332 331
f 9 331 333
f 9 333 330
f 9 330 212
f 9 212 114
f 9 114 50
f 9 50 32
f 9 32 19
f 9 19 20
f 9 20 10
f 11 21 22
f 11 22 12
f 12 22 23
f 12 23 24
f 12 24 25
f 12 25 26
f 12 26 27
f 12 27 14
f 12 14 13
f 14 27 15
f 15 28 16
f 15 27 26
f 15 26 25
f 15 25 28
f 16 28 29
f 16 29 30
f 16 30 17
f 17 30 18
f 18 30 31
f 19 32 20
f 20 33 34
f 20 32 33
f 21 35 22
f 22 35 36
f 22 36 38
f 22 38 23
f 23 37 24
f 23 38 39
f 23 39 40
f 23 40 41
f 23 41 37
f 24 37 42
f 24 42 25
f 25 42 28
f 28 43 44
f 28 44 29
f 28 42 43
f 29 44 45
f 29 45 46
f 29 46 30
f 30 46 47
f 30 47 31
f 31 47 48
f 31 48 49
f 32 50 140
f 32 140 51
f 32 51 52
f 32 52 53
f 32 53 54
f 32 54 55
f 32 55 56
f 32 56 57
f 32 57 58
f 32 58 59
f 32 59 60
f 32 60 61
f 32 61 62
f 32 62 63
f 32 63 64
f 32 64 65
f 32 65 66
f 32 66 67
f 32 67 68
f 32 68 69
f 32 69 70
f 32 70 71
f 32 71 72
f 32 72 73
f 32 73 74
f 32 74 75
f 32 75 76
f 32 76 77
f 32 77 78
f 32 78 79
f 32 79 80
f 32 80 81
f 32 81 82
f 32 82 83
f 32 83 84
f 32 84 85
f 32 85 86
f 32 86 87
f 32 87 88
f 32 88 89
f 32 89 90
f 32 90 91
f 32 91 92
f 32 92 93
f 32 93 94
f 32 94 95
f 32 95 96
f 32 96 33
f 33 96 97
f 33 97 98
f 33 98 34
f 34 98 99
f 35 100 36
f 36 100 101
f 36 101 102
f 36 102 38
f 37 41 103
f 37 103 104
f 37 104 105
f 37 105 42
f 38 102 106
f 38 106 39
f 39 106 40
f 40 106 107
f 40 107 108
f 40 108 109
f 40 109 41
f 41 109 103
f 42 105 43
f 43 110 45
f 43 45 44
f 43 105 104
f 43 104 103
f 43 103 110
f 45 110 111
f 45 111 46
f 46 111 48
f 46 48 47
f 48 112 49
f 48 111 112
f 49 112 113
f 50 114 115
f 50 115 116
f 50 116 117
f 50 117 118
f 50 118 119
f 50 119 120
f 50 120 121
f 50 121 122
f 50 122 123
f 50 123 124
f 50 124 125
f 50 125 126
f 50 126 127
f 50 127 128
f 50 128 129
f 50 129 130
f 50 130 131
f 50 131 132
f 50 132 133
f 50 133 134
f 50 134 135
f 50 135 136
f 50 136 137
f 50 137 138
f 50 138 139
f 50 139 140
f 51 140 256
f 51 256 141
f 51 141 52
f 52 141 142
f 52 142 53
f 53 142 143
f 53 143 54
f 54 143 144
f 54 144 145
f 54 145 55
f 55 145 146
f 55 146 147
f 55 147 148
f 55 148 56
f 56 148 149
f 56 149 57
f 57 149 58
f 58 149 150
f 58 150 59
f 59 151 60
f 59 150 152
f 59 152 151
f 60 151 153
f 60 153 61
f 61 153 62
f 62 153 154
f 62 154 63
f 63 154 64
f 64 154 155
f 64 155 156
f 64 156 65
f 65 156 157
f 65 157 158
f 65 158 159
f 65 159 66
f 66 159 67
f 67 159 68
f 68 159 160
f 68 160 161
f 68 161 69
f 69 161 162
f 69 162 70
f 70 162 163
f 70 163 164
f 70 164 71
f 71 164 165
f 71 165 72
f 72 166 73
f 72 165 166
f 73 166 167
f 73 167 74
f 74 167 168
f 74 168 169
f 74 169 75
f 75 169 76
f 76 169 170
f 76 170 77
f 77 170 171
f 77 171 172
f 77 172 173
f 77 173 174
f 77 174 175
f 77 175 78
f 78 175 174
f 78 174 79
f 79 174 176
f 79 176 80
f 80 176 81
f 81 176 177
f 81 177 178
f 81 178 179
f 81 179 180
f 81 180 82
f 82 180 181
f 82 181 83
f 83 182 84
f 83 181 182
f 84 182 85
f 85 182 86
f 86 182 183
f 86 183 87
f 87 183 184
f 87 184 185
f 87 185 88
f 88 185 186
f 88 186 89
f 89 186 90
f 90 186 187
f 90 187 188
f 90 188 189
f 90 189 91
f 91 190 92
f 91 189 191
f 91 191 190
f 92 190 192
f 92 192 93
f 93 192 193
f 93 193 194
f 93 194 94
f 94 194 95
f 95 194 97
f 95 97 96
f 97 194 195
f 97 195 196
f 97 196 197
f 97 197 98
f 98 197 198
f 98 198 99
f 99 198 199
f 100 200 101
f 101 200 308
f 101 308 405
f 101 405 487
f 101 487 515
f 101 515 514
f 101 514 513
f 101 513 473
f 101 473 512
f 101 512 490
f 101 490 408
f 101 408 309
f 101 309 201
f 101 201 102
f 102 201 106
f 103 202 203
f 103 203 110
f 103 109 204
f 103 204 202
f 106 201 205
f 106 205 107
f 107 206 207
f 107 207 108
f 107 205 208
f 107 208 206
f 108 207 204
f 108 204 109
f 110 203 209
f 110 209 111
f 111 209 112
f 112 210 113
f 112 209 210
f 113 210 211
f 114 212 115
f 115 212 213
f 115 213 214
f 115 214 215
f 115 215 216
f 115 216 217
f 115 217 218
f 115 218 116
f 116 218 219
f 116 219 220
f 116 220 221
f 116 221 222
f 116 222 223
f 116 223 224
f 116 224 117
f 117 224 225
f 117 225 226
f 117 226 227
f 117 227 118
f 118 227 119
f 119 227 228
f 119 228 229
f 119 229 230
f 119 230 120
f 120 230 231
f 120 231 121
f 121 231 232
f 121 232 233
f 121 233 122
f 122 233 123
f 123 233 124
f 124 233 125
f 125 233 234
f 125 234 235
f 125 235 236
f 125 236 237
f 125 237 126
f 126 237 127
f 127 237 238
f 127 238 128
f 128 238 239
f 128 239 240
f 128 240 129
f 129 240 130
f 130 240 241
f 130 241 242
f 130 242 243
f 130 243 131
f 131 243 132
f 132 243 133
f 133 243 244
f 133 244 134
f 134 244 245
f 134 245 135
f 135 245 246
f 135 246 247
f 135 247 248
f 135 248 249
f 135 249 136
f 136 249 250
f 136 250 137
f 137 250 138
f 138 250 251
f 138 251 139
f 139 251 252
f 139 252 140
f 140 252 253
f 140 253 254
f 140 254 255
f 140 255 256
f 141 256 376
f 141 376 257
f 141 257 258
f 141 258 259
f 141 259 142
f 142 259 143
f 143 259 258
f 143 258 257
f 143 257 260
f 143 260 261
f 143 261 262
f 143 262 144
f 144 262 146
f 144 146 145
f 146 263 264
f 146 264 147
f 146 262 263
f 147 264 265
f 147 265 266
f 147 266 267
f 147 267 148
f 148 267 149
f 149 267 266
f 149 266 265
f 149 265 152
f 149 152 268
f 149 268 150
f 150 268 152
f 151 152 269
f 151 269 270
f 151 270 271
f 151 271 272
f 151 272 154
f 151 154 153
f 152 265 269
f 154 272 155
f 155 272 273
f 155 273 156
f 156 273 157
f 157 273 158
f 158 160 159
f 158 273 274
f 158 274 275
f 158 275 276
f 158 276 160
f 160 276 277
f 160 277 162
f 160 162 161
f 162 277 163
f 163 277 278
f 163 278 165
f 163 165 164
f 165 278 279
f 165 279 168
f 165 168 280
f 165 280 166
f 166 280 167
f 167 280 281
f 167 281 168
f 168 281 280
f 168 279 282
f 168 282 169
f 169 282 171
f 169 171 170
f 171 282 172
f 172 283 174
f 172 174 173
f 172 282 284
f 172 284 283
f 174 283 285
f 174 285 178
f 174 178 286
f 174 286 176
f 176 286 178
f 176 178 177
f 178 285 287
f 178 287 181
f 178 181 288
f 178 288 179
f 179 288 181
f 179 181 180
f 181 287 289
f 181 289 290
f 181 290 291
f 181 291 182
f 182 291 183
f 183 291 292
f 183 292 293
f 183 293 184
f 184 293 294
f 184 294 295
f 184 295 185
f 185 295 186
f 186 295 296
f 186 296 187
f 187 296 188
f 188 295 297
f 188 297 298
f 188 298 191
f 188 191 189
f 188 296 295
f 190 299 300
f 190 300 192
f 190 191 299
f 191 298 301
f 191 301 299
f 192 302 193
f 192 300 303
f 192 303 196
f 192 196 195
f 192 195 302
f 193 302 194
f 194 302 195
f 196 303 304
f 196 304 197
f 197 304 305
f 197 305 306
f 197 306 307
f 197 307 198
f 198 307 199
f 199 307 308
f 201 309 310
f 201 310 205
f 202 311 312
f 202 312 203
f 202 204 311
f 203 312 313
f 203 313 209
f 204 207 314
f 204 314 315
f 204 315 311
f 205 310 208
f 206 316 207
f 206 208 317
f 206 317 316
f 207 318 319
f 207 319 320
f 207 320 314
f 207 316 318
f 208 310 321
f 208 321 322
f 208 322 317
f 209 313 210
f 210 323 324
f 210 324 325
f 210 325 211
f 210 313 326
f 210 326 327
f 210 327 214
f 210 214 328
f 210 328 323
f 211 325 329
f 212 330 213
f 213 331 332
f 213 332 214
f 213 330 333
f 213 333 331
f 214 334 335
f 214 335 336
f 214 336 215
f 214 332 328
f 214 327 334
f 215 336 216
f 216 336 337
f 216 337 217
f 217 219 218
f 217 337 338
f 217 338 339
f 217 339 219
f 219 339 340
f 219 340 341
f 219 341 342
f 219 342 220
f 220 342 343
f 220 343 344
f 220 344 345
f 220 345 346
f 220 346 347
f 220 347 348
f 220 348 349
f 220 349 221
f 221 349 350
f 221 350 222
f 222 350 351
f 222 351 223
f 223 351 352
f 223 352 224
f 224 352 225
f 225 352 226
f 226 353 354
f 226 354 229
f 226 229 228
f 226 228 227
f 226 352 355
f 226 355 356
f 226 356 357
f 226 357 353
f 229 354 230
f 230 354 231
f 231 354 232
f 232 354 358
f 232 358 235
f 232 235 233
f 233 235 234
f 235 358 359
f 235 359 236
f 236 359 360
f 236 360 361
f 236 361 362
f 236 362 363
f 236 363 237
f 237 363 362
f 237 362 238
f 238 362 241
f 238 241 239
f 239 241 240
f 241 362 361
f 241 361 364
f 241 364 365
f 241 365 242
f 242 366 243
f 242 365 367
f 242 367 366
f 243 366 244
f 244 366 367
f 244 367 368
f 244 368 369
f 244 369 245
f 245 369 246
f 246 369 368
f 246 368 367
f 246 367 370
f 246 370 247
f 247 371 372
f 247 372 248
f 247 370 373
f 247 373 371
f 248 372 249
f 249 372 250
f 250 372 251
f 251 372 371
f 251 371 374
f 251 374 375
f 251 375 254
f 251 254 253
f 251 253 252
f 254 375 376
f 254 376 255
f 255 376 256
f 257 377 378
f 257 378 260
f 257 376 471
f 257 471 379
f 257 379 377
f 260 378 262
f 260 262 261
f 262 378 380
f 262 380 263
f 263 381 264
f 263 380 378
f 263 378 381
f 264 381 382
f 264 382 383
f 264 383 384
f 264 384 265
f 265 384 269
f 269 384 270
f 270 384 271
f 271 385 386
f 271 386 274
f 271 274 272
f 271 384 383
f 271 383 387
f 271 387 385
f 272 274 273
f 274 386 275
f 275 386 276
f 276 386 277
f 277 386 278
f 278 388 279
f 278 386 389
f 278 389 388
f 279 390 391
f 279 391 282
f 279 388 390
f 282 391 284
f 283 284 392
f 283 392 393
f 283 393 285
f 284 391 394
f 284 394 392
f 285 393 395
f 285 395 287
f 287 396 397
f 287 397 289
f 287 395 398
f 287 398 396
f 289 397 293
f 289 293 292
f 289 292 290
f 290 292 291
f 293 397 294
f 294 297 295
f 294 397 297
f 297 397 399
f 297 399 298
f 298 399 400
f 298 400 401
f 298 401 402
f 298 402 301
f 299 301 300
f 300 301 303
f 301 402 303
f 303 402 304
f 304 402 401
f 304 401 403
f 304 403 305
f 305 403 306
f 306 403 404
f 306 404 307
f 307 404 405
f 307 405 308
f 309 406 407
f 309 407 310
f 309 408 406
f 310 407 409
f 310 409 321
f 311 410 411
f 311 411 312
f 311 315 410
f 312 411 412
f 312 412 313
f 313 412 326
f 314 320 315
f 315 413 414
f 315 414 410
f 315 320 415
f 315 415 413
f 316 317 318
f 317 416 417
f 317 417 418
f 317 418 318
f 317 322 419
f 317 419 416
f 318 418 420
f 318 420 319
f 319 420 421
f 319 421 422
f 319 422 423
f 319 423 424
f 319 424 320
f 320 424 415
f 321 425 419
f 321 419 322
f 321 409 426
f 321 426 427
f 321 427 425
f 324 329 325
f 326 412 327
f 327 412 334
f 334 412 428
f 334 428 429
f 334 429 335
f 335 430 337
f 335 337 336
f 335 429 431
f 335 431 432
f 335 432 430
f 337 433 338
f 337 430 418
f 337 418 434
f 337 434 417
f 337 417 433
f 338 433 417
f 338 417 435
f 338 435 436
f 338 436 339
f 339 436 437
f 339 437 340
f 340 437 341
f 341 437 438
f 341 438 439
f 341 439 440
f 341 440 441
f 341 441 442
f 341 442 343
f 341 343 342
f 343 442 443
f 343 443 444
f 343 444 344
f 344 444 445
f 344 445 446
f 344 446 345
f 345 446 447
f 345 447 346
f 346 447 448
f 346 448 347
f 347 448 348
f 348 448 447
f 348 447 449
f 348 449 450
f 348 450 451
f 348 451 349
f 349 451 450
f 349 450 350
f 350 450 452
f 350 452 453
f 350 453 454
f 350 454 351
f 351 454 352
f 352 454 356
f 352 356 455
f 352 455 355
f 353 357 456
f 353 456 457
f 353 457 360
f 353 360 354
f 354 360 359
f 354 359 358
f 355 455 356
f 356 454 453
f 356 453 357
f 357 453 458
f 357 458 459
f 357 459 456
f 360 460 461
f 360 461 361
f 360 457 460
f 361 462 463
f 361 463 464
f 361 464 364
f 361 461 465
f 361 465 462
f 364 464 365
f 365 464 367
f 367 464 370
f 370 466 373
f 370 464 463
f 370 463 467
f 370 467 466
f 371 468 375
f 371 375 374
f 371 373 469
f 371 469 468
f 373 466 468
f 373 468 469
f 375 468 376
f 376 468 470
f 376 470 471
f 377 379 472
f 377 472 378
f 378 472 381
f 379 471 512
f 379 512 473
f 379 473 474
f 379 474 472
f 381 472 475
f 381 475 387
f 381 387 382
f 382 387 383
f 385 476 386
f 385 387 476
f 386 476 389
f 387 475 477
f 387 477 476
f 388 389 476
f 388 476 390
f 390 394 391
f 390 476 478
f 390 478 394
f 392 479 480
f 392 480 398
f 392 398 393
f 392 394 479
f 393 398 395
f 394 478 481
f 394 481 482
f 394 482 483
f 394 483 479
f 396 398 484
f 396 484 397
f 397 484 400
f 397 400 399
f 398 485 484
f 398 480 485
f 400 484 401
f 401 484 486
f 401 486 403
f 403 486 487
f 403 487 404
f 404 487 405
f 406 488 489
f 406 489 407
f 406 408 488
f 407 489 409
f 408 490 491
f 408 491 492
f 408 492 493
f 408 493 488
f 409 489 426
f 410 428 411
f 410 414 413
f 410 413 428
f 411 428 412
f 413 423 494
f 413 494 495
f 413 495 428
f 413 415 424
f 413 424 423
f 416 496 497
f 416 497 436
f 416 436 498
f 416 498 417
f 416 419 496
f 417 434 418
f 417 498 435
f 418 430 432
f 418 432 421
f 418 421 420
f 419 425 499
f 419 499 444
f 419 444 496
f 421 432 422
f 422 432 431
f 422 431 423
f 423 431 494
f 425 427 499
f 426 500 501
f 426 501 427
f 426 489 500
f 427 501 499
f 428 495 429
f 429 495 494
f 429 494 431
f 435 498 436
f 436 497 437
f 437 497 496
f 437 496 438
f 438 496 439
f 439 496 502
f 439 502 503
f 439 503 440
f 440 503 441
f 441 503 442
f 442 503 504
f 442 504 444
f 442 444 443
f 444 505 496
f 444 499 447
f 444 447 445
f 444 504 505
f 445 447 446
f 447 501 506
f 447 506 449
f 447 499 501
f 449 506 507
f 449 507 452
f 449 452 450
f 452 507 453
f 453 507 506
f 453 506 501
f 453 501 500
f 453 500 458
f 456 459 460
f 456 460 457
f 458 489 459
f 458 500 489
f 459 489 508
f 459 508 460
f 460 492 462
f 460 462 465
f 460 465 461
f 460 508 492
f 462 509 466
f 462 466 467
f 462 467 463
f 462 492 509
f 466 510 468
f 466 509 510
f 468 510 470
f 470 510 471
f 471 510 511
f 471 511 512
f 472 474 475
f 473 513 474
f 474 513 475
f 475 513 477
f 476 477 478
f 477 514 481
f 477 481 478
f 477 513 514
f 479 515 485
f 479 485 480
f 479 483 515
f 481 514 482
f 482 514 483
f 483 514 515
f 484 485 486
f 485 515 487
f 485 487 486
f 488 493 489
f 489 493 508
f 490 509 492
f 490 492 491
f 490 512 511
f 490 511 509
f 492 508 493
f 496 505 502
f 502 505 503
f 503 505 504
f 509 511 510

