# https://github.com/mikedh/trimesh
v -0.05894937 -0.00649795 0.02140442
v -0.05891085 -0.00649795 0.02121960
v -0.05881729 -0.00684333 0.02087856
v -0.05892186 -0.00684333 0.02140442
v -0.05231788 -0.00649795 0.02140442
v -0.04281917 0.01921385 0.00618725
v -0.05883380 -0.00649795 0.02087856
v -0.05859166 -0.00649795 0.01993023
v -0.05852011 -0.00684333 0.01973221
v -0.05845958 -0.00804833 0.01982682
v -0.05866870 -0.00874677 0.02140442
v -0.00272754 0.01921385 0.00607284
v -0.02978732 0.01921385 0.00618725
v -0.00273855 -0.05282523 0.02140442
v -0.04113515 0.01817003 0.00399137
v -0.04306682 0.01817003 0.00594962
v -0.04323742 0.01830050 0.00618725
v -0.05853112 -0.00649795 0.01971240
v -0.04049126 0.01921385 0.00385275
v -0.05778817 -0.00649795 0.01873768
v -0.05777167 -0.00684333 0.01875528
v -0.05831649 -0.00934543 0.02031528
v -0.05856964 -0.00873142 0.02093136
v -0.05665449 -0.00879282 0.01773435
v -0.05626926 -0.01269948 0.01815900
v -0.05701221 -0.01269948 0.01913593
v -0.05680858 -0.01464897 0.01938676
v -0.05662697 -0.01610725 0.01965740
v -0.05736442 -0.01464897 0.02087856
v -0.05849810 -0.00961406 0.02140442
v -0.00272754 0.01921385 -0.00107369
v -0.00272754 -0.05296338 0.02140442
v -0.03918698 0.01817003 0.00204192
v -0.03858162 0.01658127 0.00069314
v -0.03883477 0.01545302 0.00044231
v -0.04243944 0.01658127 0.00465365
v -0.04337500 0.01658127 0.00562838
v -0.04390332 0.01658127 0.00618725
v -0.04482788 0.01387194 0.00618725
v -0.04520210 0.01268228 0.00618725
v -0.04569189 0.01073280 0.00618725
v -0.04607713 0.00877563 0.00618725
v -0.04645135 0.00682613 0.00618725
v -0.04663846 0.00566719 0.00618725
v -0.03736538 0.01921385 0.00073494
v -0.05697368 -0.00649795 0.01776515
v -0.05679208 -0.00684333 0.01758033
v -0.04694665 0.00097766 0.00618725
v -0.05776616 -0.01269948 0.02087856
v -0.05389733 -0.00879282 0.01471776
v -0.05529518 -0.01269948 0.01709187
v -0.05591155 -0.00684333 0.01660340
v -0.04480036 -0.00615256 0.00422679
v -0.04515257 -0.00649795 0.00468226
v -0.05247197 -0.01325977 0.01413688
v -0.05604913 -0.01464897 0.01841204
v -0.05586752 -0.01669056 0.01897311
v -0.05435411 -0.01910056 0.01810400
v -0.05412297 -0.02049744 0.01838123
v -0.05489894 -0.02049744 0.01935816
v -0.05466229 -0.02186362 0.01967280
v -0.05639033 -0.01741203 0.02017446
v -0.05678657 -0.01669056 0.02084775
v -0.05747449 -0.01464897 0.02140442
v -0.05787623 -0.01268413 0.02140442
v -0.00272754 -0.00649795 -0.00107369
v -0.03205469 0.01921385 -0.00107369
v -0.00272754 -0.05919562 0.02140442
v -0.03722780 0.01816235 0.00010346
v -0.03760753 0.01658127 -0.00017158
v -0.03905490 0.01415592 0.00021128
v -0.04028214 0.01268228 0.00097258
v -0.04121220 0.01268228 0.00194950
v -0.04408493 0.01268228 0.00499250
v -0.04246695 0.01073280 0.00268880
v -0.04336950 0.01073280 0.00366352
v -0.04524613 0.01073280 0.00569879
v -0.04543874 0.00877563 0.00548536
v -0.04480036 0.00614305 0.00422679
v -0.04211474 0.00487665 0.00113099
v -0.04398036 0.00487665 0.00318166
v -0.04405191 0.00292715 0.00311125
v -0.03664995 0.01921385 0.00014967
v -0.05680308 -0.00649795 0.01756493
v -0.04663846 -0.00567670 0.00618725
v -0.04225783 0.00097766 0.00098138
v -0.04684759 -0.00097951 0.00607724
v -0.04290172 -0.00649795 0.00222014
v -0.04379325 -0.00695078 0.00328948
v -0.04641833 -0.00879282 0.00655250
v -0.04628625 -0.01074231 0.00683193
v -0.04211474 -0.00488616 0.00113099
v -0.04114065 -0.00488616 0.00006606
v -0.05056783 -0.01352072 0.01213242
v -0.05506953 -0.01464897 0.01734050
v -0.04074992 -0.00931473 0.00048411
v -0.05478336 -0.01660614 0.01765734
v -0.05314888 -0.02049744 0.01732730
v -0.05351760 -0.01850190 0.01699505
v -0.05283519 -0.02210923 0.01765074
v -0.05549329 -0.02049744 0.02087856
v -0.05361116 -0.02263114 0.01881469
v -0.05311587 -0.02440410 0.01919314
v -0.05276915 -0.02582401 0.01959799
v -0.05438713 -0.02316073 0.02040329
v -0.05560886 -0.02049744 0.02140442
v -0.05690764 -0.01666754 0.02140442
v -0.00272754 -0.03805822 -0.00107149
v -0.03791021 -0.00649795 -0.00107369
v -0.03400837 0.01921385 -0.00099448
v -0.03400837 0.01658127 -0.00107369
v -0.03400837 0.01853843 -0.00105609
v -0.00278257 -0.05919562 0.02140442
v -0.00272754 -0.05908816 0.02087856
v -0.03600607 0.01921385 -0.00029479
v -0.03595654 0.01658127 -0.00090207
v -0.03791021 0.01268228 -0.00075025
v -0.03807531 0.01473923 -0.00028819
v -0.03930805 0.01268228 -0.00001976
v -0.03613815 0.01869961 -0.00035419
v -0.04057381 0.01073280 0.00066673
v -0.04074992 0.00930521 0.00048411
v -0.04088200 0.00800044 0.00034329
v -0.04467378 0.00744782 0.00436542
v -0.04290172 0.00642703 0.00221353
v -0.04114065 0.00487665 0.00006606
v -0.04099757 0.00682613 0.00021788
v -0.04219179 0.00292715 0.00105179
v -0.04398036 -0.00488616 0.00318166
v -0.04405191 -0.00292900 0.00311125
v -0.04121770 0.00292715 -0.00001315
v -0.04128374 0.00097766 -0.00007036
v -0.04225783 -0.00097951 0.00098138
v -0.04102509 -0.00649795 0.00018927
v -0.04099207 -0.00683565 0.00021788
v -0.04155340 -0.00871607 0.00122561
v -0.04219179 -0.00292900 0.00105179
v -0.03986389 -0.00488616 -0.00066224
v -0.03986389 -0.00649795 -0.00053902
v -0.03986389 -0.00683565 -0.00051262
v -0.03959973 -0.01074231 -0.00023538
v -0.04121770 -0.00292900 -0.00001315
v -0.04865268 -0.01367422 0.01014776
v -0.04336950 -0.01074231 0.00366573
v -0.04246695 -0.01074231 0.00268880
v -0.04057381 -0.01074231 0.00066673
v -0.04408493 -0.01269948 0.00499250
v -0.05386431 -0.01660614 0.01668041
v -0.04860865 -0.01939990 0.01214562
v -0.04451969 -0.01659846 0.00683193
v -0.04667699 -0.01947665 0.01016537
v -0.05090904 -0.02210923 0.01568588
v -0.05254352 -0.02341401 0.01795878
v -0.05478336 -0.02248531 0.02098417
v -0.05504753 -0.02203248 0.02140442
v -0.05230137 -0.02440410 0.01821621
v -0.05025414 -0.02864079 0.01829102
v -0.05106313 -0.02811121 0.01893570
v -0.05083199 -0.02963856 0.01959139
v -0.05244446 -0.02712111 0.02036369
v -0.05431558 -0.02381311 0.02140442
v -0.05464028 -0.02306862 0.02140442
v -0.05488242 -0.02247764 0.02140442
v -0.00272754 -0.03811194 -0.00106269
v -0.00473625 -0.03805822 -0.00107149
v -0.01254545 -0.03610105 -0.00107149
v -0.02036015 -0.03220207 -0.00107149
v -0.03205469 -0.02049744 -0.00107149
v -0.03400837 -0.01659846 -0.00107149
v -0.03595654 -0.01269948 -0.00107149
v -0.03791571 -0.00683565 -0.00107149
v -0.03986389 -0.00097951 -0.00080085
v -0.03791021 0.00682613 -0.00107369
v -0.03595654 0.01268228 -0.00107369
v -0.03595654 0.01463178 -0.00105389
v -0.00668992 -0.05892699 0.02140442
v -0.00668992 -0.05882721 0.02087856
v -0.00768052 -0.05855858 0.01989723
v -0.00474175 -0.05865836 0.01973441
v -0.00278257 -0.05871975 0.01963540
v -0.00272754 -0.05871975 0.01963099
v -0.00668992 -0.05859696 0.01983782
v -0.03791021 0.01073280 -0.00096588
v -0.03960523 0.01073280 -0.00023538
v -0.03986389 0.00682613 -0.00051262
v -0.03986389 0.00487665 -0.00066224
v -0.03986389 0.00097766 -0.00080085
v -0.04128374 -0.00097951 -0.00007036
v -0.03986389 0.00292715 -0.00074145
v -0.03791571 -0.00879282 -0.00105389
v -0.03791571 -0.01074231 -0.00096588
v -0.03986389 -0.00292900 -0.00074145
v -0.03791571 -0.01269948 -0.00075025
v -0.03806981 -0.01474107 -0.00028819
v -0.03930255 -0.01269948 -0.00002196
v -0.04218629 -0.01269948 0.00297924
v -0.04028764 -0.01269948 0.00097478
v -0.03883477 -0.01547021 0.00044010
v -0.04472882 -0.01947665 0.00821591
v -0.03858162 -0.01659846 0.00069314
v -0.04113515 -0.01817187 0.00399137
v -0.05035320 -0.02440410 0.01625136
v -0.05060635 -0.02733601 0.01794998
v -0.04895536 -0.02973066 0.01767054
v -0.04852060 -0.03103544 0.01807319
v -0.04865268 -0.02733601 0.01599832
v -0.04668249 -0.02730531 0.01406647
v -0.05105212 -0.02999930 0.02087856
v -0.04750798 -0.03391363 0.01908092
v -0.04693014 -0.03544866 0.01959359
v -0.04866918 -0.03321519 0.01987083
v -0.05206473 -0.02816493 0.02095997
v -0.05271962 -0.02705203 0.02140442
v -0.05292875 -0.02642267 0.02095997
v -0.00272754 -0.04000771 -0.00067544
v -0.00669543 -0.03805822 -0.00106929
v -0.01449913 -0.03610105 -0.00104949
v -0.01840648 -0.03415156 -0.00105169
v -0.02425650 -0.03024490 -0.00104949
v -0.02620467 -0.02829541 -0.00106269
v -0.02815834 -0.02635359 -0.00106269
v -0.03011202 -0.02439643 -0.00104949
v -0.03400837 -0.01854795 -0.00105609
v -0.03595654 -0.01464897 -0.00105609
v -0.03791021 0.00877563 -0.00105389
v -0.00849501 -0.05871208 0.02140442
v -0.01254545 -0.05779874 0.02087856
v -0.01450463 -0.05739963 0.02087856
v -0.01586395 -0.05673957 0.01970360
v -0.01450463 -0.05690074 0.01945717
v -0.01254545 -0.05710030 0.01920414
v -0.01254545 -0.05635581 0.01822721
v -0.00976077 -0.05663211 0.01792137
v -0.00863810 -0.05673957 0.01780036
v -0.00668992 -0.05687772 0.01765074
v -0.00668992 -0.05785247 0.01886309
v -0.00901783 -0.05861230 0.02140442
v -0.00474175 -0.05792154 0.01875748
v -0.00278257 -0.05798294 0.01865847
v -0.00272754 -0.05798294 0.01865627
v -0.03595654 -0.01659846 -0.00090207
v -0.03760203 -0.01659846 -0.00017158
v -0.03905490 -0.01416544 0.00021128
v -0.03722780 -0.01817187 0.00010346
v -0.03918698 -0.01817187 0.00204192
v -0.04277514 -0.01947665 0.00626426
v -0.04164146 -0.02294582 0.00683193
v -0.03804780 -0.01882426 0.00122561
v -0.04889483 -0.02636127 0.01575849
v -0.04334749 -0.02831076 0.01159115
v -0.04678155 -0.03330729 0.01787297
v -0.04633028 -0.03460439 0.01829322
v -0.04082146 -0.02339098 0.00625326
v -0.03723881 -0.02195572 0.00203971
v -0.03882927 -0.02332190 0.00434341
v -0.03525761 -0.02187897 0.00014307
v -0.03604459 -0.02256206 0.00128941
v -0.03683156 -0.02325283 0.00244236
v -0.04189461 -0.02646105 0.00910703
v -0.05082649 -0.03054423 0.02140442
v -0.05109064 -0.03012210 0.02140442
v -0.05137132 -0.02963089 0.02140442
v -0.05041924 -0.03097404 0.02087856
v -0.05049079 -0.03106615 0.02140442
v -0.04571941 -0.03611640 0.01888950
v -0.04511955 -0.03751328 0.01948578
v -0.04267058 -0.04085198 0.02033289
v -0.04641283 -0.03674576 0.02087856
v -0.04716678 -0.03576334 0.02087856
v -0.04815188 -0.03438181 0.02087856
v -0.05210325 -0.02828006 0.02140442
v -0.00272754 -0.04004608 -0.00065564
v -0.00278808 -0.04000771 -0.00067324
v -0.00864360 -0.03805822 -0.00104069
v -0.01645280 -0.03610105 -0.00088006
v -0.01059728 -0.03805822 -0.00093727
v -0.02036015 -0.03415156 -0.00086026
v -0.02230832 -0.03220207 -0.00099448
v -0.02815834 -0.02829541 -0.00081846
v -0.03205469 -0.02244694 -0.00100108
v -0.03400837 -0.02049744 -0.00087347
v -0.01450463 -0.05750708 0.02140442
v -0.01201713 -0.05801364 0.02140442
v -0.01648032 -0.05696982 0.02140442
v -0.01648032 -0.05686237 0.02094016
v -0.01450463 -0.05614090 0.01848244
v -0.01715722 -0.05650163 0.02033069
v -0.02163692 -0.05477472 0.01971901
v -0.02035465 -0.05498963 0.01941757
v -0.02035465 -0.05422211 0.01844284
v -0.01885224 -0.05447539 0.01813920
v -0.01755346 -0.05469797 0.01790597
v -0.01644730 -0.05488217 0.01770795
v -0.01450463 -0.05516616 0.01739990
v -0.01254545 -0.05538106 0.01715787
v -0.01105955 -0.05650163 0.01806219
v -0.01237485 -0.05335482 0.01490698
v -0.00863810 -0.05487450 0.01575849
v -0.00609006 -0.04300870 0.00225534
v -0.00577638 -0.04490446 0.00427741
v -0.00474175 -0.05694680 0.01757153
v -0.00278257 -0.05700820 0.01750112
v -0.00272754 -0.05700820 0.01749892
v -0.03613815 -0.01871681 -0.00035200
v -0.03565936 -0.02049744 -0.00014517
v -0.03690861 -0.01946897 0.00040930
v -0.03763505 -0.02049744 0.00164366
v -0.03963825 -0.02616171 0.00683193
v -0.03928604 -0.02831076 0.00783526
v -0.04477284 -0.03322287 0.01596752
v -0.04275863 -0.03313076 0.01408187
v -0.04502600 -0.03547169 0.01770354
v -0.04447016 -0.03676879 0.01818321
v -0.03663344 -0.02049744 0.00066673
v -0.03410192 -0.02249299 -0.00028819
v -0.03343602 -0.02439643 0.00005725
v -0.03308931 -0.02544025 0.00033889
v -0.03441011 -0.02439643 0.00091317
v -0.03788270 -0.02629987 0.00529613
v -0.04917549 -0.03304634 0.02140442
v -0.04260454 -0.03881038 0.01811500
v -0.04324292 -0.03955487 0.01941537
v -0.04137730 -0.04151204 0.01935376
v -0.04070039 -0.04281682 0.02035489
v -0.04185058 -0.04199558 0.02140442
v -0.04247246 -0.04136621 0.02140442
v -0.04306682 -0.04074452 0.02140442
v -0.04543874 -0.03787401 0.02087856
v -0.04588451 -0.03752096 0.02140442
v -0.04648437 -0.03682252 0.02140442
v -0.04721081 -0.03588615 0.02140442
v -0.04552680 -0.03793542 0.02140442
v -0.04750249 -0.03548704 0.02140442
v -0.04821241 -0.03447392 0.02140442
v -0.00272754 -0.04129714 0.00005286
v -0.00473625 -0.04000771 -0.00059843
v -0.01254545 -0.03805822 -0.00070844
v -0.01645280 -0.03771283 -0.00014957
v -0.01853856 -0.03626991 -0.00033660
v -0.00669543 -0.04000771 -0.00044661
v -0.01059728 -0.03969303 -0.00020898
v -0.02036015 -0.03577102 -0.00012977
v -0.02234685 -0.03424366 -0.00027279
v -0.02425650 -0.03220207 -0.00063364
v -0.02620467 -0.03024490 -0.00075685
v -0.02805378 -0.03018350 -0.00006816
v -0.03004598 -0.02819563 -0.00007036
v -0.03011202 -0.02635359 -0.00076125
v -0.03205469 -0.02439643 -0.00065123
v -0.01996391 -0.05578784 0.02140442
v -0.02035465 -0.05554224 0.02087856
v -0.02229732 -0.05488217 0.02105238
v -0.02294671 -0.05450609 0.02051551
v -0.02562682 -0.05289431 0.01963099
v -0.02425650 -0.05322434 0.01923494
v -0.02242940 -0.05373090 0.01885209
v -0.02191209 -0.05294803 0.01768594
v -0.02035465 -0.05324737 0.01737790
v -0.01645280 -0.04445163 0.00670872
v -0.01396530 -0.04541102 0.00683193
v -0.01254545 -0.04320825 0.00400677
v -0.01352504 -0.04684628 0.00819391
v -0.01339296 -0.04876507 0.01018077
v -0.01318383 -0.05068386 0.01217203
v -0.01290867 -0.05257963 0.01417869
v -0.01059728 -0.04533427 0.00576259
v -0.00863810 -0.04670045 0.00683193
v -0.00845099 -0.04162717 0.00125201
v -0.00897380 -0.04085965 0.00052592
v -0.00669543 -0.04108223 0.00028169
v -0.00473625 -0.04122038 0.00012987
v -0.00473625 -0.04406020 0.00326087
v -0.00272754 -0.04741424 0.00683193
v -0.00474175 -0.04727609 0.00683193
v -0.00272754 -0.05615625 0.01654839
v -0.03893933 -0.02933156 0.00815651
v -0.04296776 -0.03532586 0.01585751
v -0.04372171 -0.03604733 0.01701925
v -0.03193912 -0.02619242 0.00001545
v -0.03121819 -0.02748184 0.00027288
v -0.03252247 -0.02673735 0.00081635
v -0.04109663 -0.03736745 0.01578930
v -0.04130025 -0.03954720 0.01757153
v -0.04070039 -0.04085198 0.01805339
v -0.04198266 -0.04019959 0.01873548
v -0.04005100 -0.04212605 0.01873768
v -0.03939611 -0.04338478 0.01941977
v -0.04124522 -0.04258656 0.02140442
v -0.03735988 -0.04526520 0.01949018
v -0.03658391 -0.04655462 0.02087856
v -0.03771760 -0.04557988 0.02087856
v -0.04057381 -0.04321593 0.02140442
v -0.04406291 -0.03960860 0.02140442
v -0.00272754 -0.04229491 0.00115300
v -0.01454315 -0.03820405 -0.00026399
v -0.01797722 -0.03735210 0.00012546
v -0.01254545 -0.03940137 0.00002205
v -0.01392128 -0.03917112 0.00024428
v -0.01522556 -0.03894854 0.00047531
v -0.00845099 -0.04013051 -0.00017377
v -0.01059728 -0.04066777 0.00072394
v -0.01928150 -0.03703742 0.00043570
v -0.02171947 -0.03538726 0.00015627
v -0.02425650 -0.03356057 0.00007265
v -0.02603957 -0.03208694 0.00002645
v -0.02934706 -0.02949274 0.00021128
v -0.02732734 -0.03135780 0.00027728
v -0.02035465 -0.05564969 0.02140442
v -0.02229732 -0.05495893 0.02140442
v -0.02275409 -0.05478240 0.02140442
v -0.02371717 -0.05436026 0.02140442
v -0.02406938 -0.05410698 0.02105238
v -0.02693111 -0.05256427 0.02047591
v -0.02816385 -0.05128252 0.01921954
v -0.02425650 -0.05241077 0.01826022
v -0.02947364 -0.05094481 0.01961779
v -0.02320536 -0.05266405 0.01798298
v -0.02191759 -0.05102924 0.01571229
v -0.01924298 -0.04679255 0.01019177
v -0.02035465 -0.05231867 0.01640317
v -0.01254545 -0.04038379 0.00102538
v -0.01059728 -0.04158112 0.00170087
v -0.01059728 -0.04346153 0.00372293
v -0.00272754 -0.04315453 0.00210352
v -0.03064584 -0.02877895 0.00074814
v -0.03470178 -0.03244767 0.00683193
v -0.03901638 -0.03722163 0.01394766
v -0.03692512 -0.03706812 0.01210602
v -0.03940161 -0.04143529 0.01757373
v -0.03865866 -0.04274007 0.01811940
v -0.03662244 -0.04460513 0.01818981
v -0.03595103 -0.04586386 0.01890050
v -0.03529064 -0.04706118 0.01961339
v -0.03666647 -0.04662370 0.02140442
v -0.03778364 -0.04566431 0.02140442
v -0.03560433 -0.04729144 0.02087856
v -0.03606110 -0.04708421 0.02140442
v -0.01645280 -0.03868758 0.00073714
v -0.01797722 -0.03930159 0.00206612
v -0.01798822 -0.04125109 0.00401557
v -0.01928150 -0.04094408 0.00433461
v -0.02714023 -0.04877275 0.01602253
v -0.02320536 -0.04095175 0.00627966
v -0.02036015 -0.03774353 0.00167667
v -0.02036015 -0.03674576 0.00069974
v -0.02652936 -0.03939369 0.00683193
v -0.02301275 -0.03494978 0.00055232
v -0.02527461 -0.03321519 0.00035210
v -0.02179101 -0.03735978 0.00205732
v -0.02315584 -0.03895621 0.00435882
v -0.02712372 -0.04680790 0.01408187
v -0.02816385 -0.04647019 0.01439431
v -0.02863163 -0.03078984 0.00075255
v -0.03142181 -0.02966926 0.00205071
v -0.02657889 -0.03266258 0.00082076
v -0.02588548 -0.05329342 0.02140442
v -0.02624869 -0.05303246 0.02102818
v -0.02798774 -0.05216517 0.02102818
v -0.02981484 -0.05115972 0.02087856
v -0.02816385 -0.05045361 0.01824481
v -0.02714023 -0.05072224 0.01797418
v -0.03304528 -0.04880345 0.01989283
v -0.02991390 -0.05022335 0.01912933
v -0.02425650 -0.05143603 0.01726569
v -0.02256698 -0.04990099 0.01489598
v -0.03024410 -0.03231720 0.00321466
v -0.03779464 -0.03990793 0.01511161
v -0.03590150 -0.04385297 0.01702366
v -0.03531815 -0.04515774 0.01770795
v -0.03444313 -0.04646252 0.01831302
v -0.03016705 -0.04980889 0.01885429
v -0.03531815 -0.04762147 0.02140442
v -0.03572540 -0.04732981 0.02140442
v -0.03420098 -0.04827386 0.02087856
v -0.03430004 -0.04833526 0.02140442
v -0.02816385 -0.04947886 0.01728329
v -0.02917646 -0.03907134 0.00817191
v -0.03017806 -0.04786708 0.01693345
v -0.02905538 -0.03702207 0.00629066
v -0.03297374 -0.04289357 0.01408628
v -0.02957270 -0.04907975 0.01768594
v -0.02747593 -0.03343777 0.00212333
v -0.03009551 -0.03677647 0.00683193
v -0.03230234 -0.03483465 0.00683193
v -0.02760251 -0.05244147 0.02140442
v -0.02807579 -0.05220354 0.02140442
v -0.02944061 -0.05148208 0.02140442
v -0.02994692 -0.05119810 0.02140442
v -0.03034316 -0.05096017 0.02140442
v -0.03078893 -0.05054571 0.02087856
v -0.03088248 -0.05061479 0.02140442
v -0.03401387 -0.04244841 0.01446032
v -0.03306180 -0.04490446 0.01598512
v -0.03313884 -0.04691536 0.01788837
v -0.03085497 -0.04864994 0.01808859
f 1 2 3
f 1 3 4
f 1 4 11
f 1 11 30
f 1 30 65
f 1 65 64
f 1 64 107
f 1 107 106
f 1 106 155
f 1 155 163
f 1 163 162
f 1 162 161
f 1 161 213
f 1 213 271
f 1 271 262
f 1 262 261
f 1 261 260
f 1 260 264
f 1 264 320
f 1 320 334
f 1 334 333
f 1 333 331
f 1 331 330
f 1 330 329
f 1 329 332
f 1 332 393
f 1 393 327
f 1 327 326
f 1 326 325
f 1 325 388
f 1 388 392
f 1 392 435
f 1 435 434
f 1 434 437
f 1 437 473
f 1 473 472
f 1 472 475
f 1 475 491
f 1 491 489
f 1 489 488
f 1 488 487
f 1 487 486
f 1 486 485
f 1 485 456
f 1 456 411
f 1 411 410
f 1 410 409
f 1 409 408
f 1 408 350
f 1 350 284
f 1 284 282
f 1 282 283
f 1 283 237
f 1 237 226
f 1 226 176
f 1 176 113
f 1 113 68
f 1 68 32
f 1 32 14
f 1 14 5
f 1 5 13
f 1 13 6
f 1 6 2
f 2 7 3
f 2 6 7
f 3 7 8
f 3 8 9
f 3 9 10
f 3 10 4
f 4 10 11
f 5 12 13
f 5 14 12
f 6 15 16
f 6 16 17
f 6 17 18
f 6 18 8
f 6 8 7
f 6 13 12
f 6 12 31
f 6 31 67
f 6 67 110
f 6 110 115
f 6 115 83
f 6 83 45
f 6 45 19
f 6 19 15
f 8 18 9
f 9 18 20
f 9 20 21
f 9 21 10
f 10 22 23
f 10 23 11
f 10 21 24
f 10 24 25
f 10 25 26
f 10 26 27
f 10 27 28
f 10 28 29
f 10 29 22
f 11 23 22
f 11 22 30
f 12 14 32
f 12 32 68
f 12 68 114
f 12 114 181
f 12 181 240
f 12 240 303
f 12 303 375
f 12 375 373
f 12 373 424
f 12 424 394
f 12 394 335
f 12 335 272
f 12 272 215
f 12 215 164
f 12 164 108
f 12 108 66
f 12 66 31
f 15 19 33
f 15 33 34
f 15 34 35
f 15 35 16
f 16 35 36
f 16 36 37
f 16 37 38
f 16 38 17
f 17 38 18
f 18 38 39
f 18 39 40
f 18 40 41
f 18 41 42
f 18 42 43
f 18 43 44
f 18 44 20
f 19 45 33
f 20 46 47
f 20 47 21
f 20 44 48
f 20 48 46
f 21 47 24
f 22 29 49
f 22 49 30
f 24 50 51
f 24 51 25
f 24 47 52
f 24 52 53
f 24 53 54
f 24 54 50
f 25 55 56
f 25 56 27
f 25 27 26
f 25 51 55
f 27 56 28
f 28 56 57
f 28 57 58
f 28 58 59
f 28 59 60
f 28 60 61
f 28 61 62
f 28 62 63
f 28 63 29
f 29 63 64
f 29 64 49
f 30 49 65
f 31 66 109
f 31 109 173
f 31 173 174
f 31 174 111
f 31 111 67
f 33 45 34
f 34 45 69
f 34 69 35
f 35 37 36
f 35 69 70
f 35 70 71
f 35 71 72
f 35 72 73
f 35 73 37
f 37 73 39
f 37 39 38
f 39 73 74
f 39 74 40
f 40 74 75
f 40 75 76
f 40 76 77
f 40 77 41
f 41 77 78
f 41 78 42
f 42 78 79
f 42 79 43
f 43 79 44
f 44 79 80
f 44 80 81
f 44 81 82
f 44 82 48
f 45 83 69
f 46 84 47
f 46 48 84
f 47 84 85
f 47 85 52
f 48 82 86
f 48 86 87
f 48 87 84
f 49 64 65
f 50 54 88
f 50 88 89
f 50 89 90
f 50 90 51
f 51 90 91
f 51 91 55
f 52 85 53
f 53 85 92
f 53 92 93
f 53 93 88
f 53 88 54
f 55 94 95
f 55 95 56
f 55 91 96
f 55 96 94
f 56 95 97
f 56 97 57
f 57 97 58
f 58 98 59
f 58 97 99
f 58 99 98
f 59 98 100
f 59 100 61
f 59 61 60
f 61 101 62
f 61 100 102
f 61 102 103
f 61 103 104
f 61 104 105
f 61 105 101
f 62 101 63
f 63 101 106
f 63 106 107
f 63 107 64
f 66 108 165
f 66 165 109
f 67 111 112
f 67 112 110
f 68 113 114
f 69 83 115
f 69 115 70
f 70 116 117
f 70 117 118
f 70 118 119
f 70 119 71
f 70 115 120
f 70 120 116
f 71 119 72
f 72 119 121
f 72 121 73
f 73 121 74
f 74 121 75
f 75 121 122
f 75 122 76
f 76 122 77
f 77 122 123
f 77 123 78
f 78 123 124
f 78 124 79
f 79 125 126
f 79 126 80
f 79 124 127
f 79 127 125
f 80 128 81
f 80 126 131
f 80 131 128
f 81 128 82
f 82 128 86
f 84 87 85
f 85 129 92
f 85 87 130
f 85 130 129
f 86 128 131
f 86 131 132
f 86 132 188
f 86 188 133
f 86 133 87
f 87 133 130
f 88 93 134
f 88 134 135
f 88 135 136
f 88 136 89
f 89 136 90
f 90 136 91
f 91 136 96
f 92 129 137
f 92 137 142
f 92 142 93
f 93 138 139
f 93 139 140
f 93 140 141
f 93 141 134
f 93 142 138
f 94 143 97
f 94 97 95
f 94 96 144
f 94 144 145
f 94 145 146
f 94 146 147
f 94 147 143
f 96 141 146
f 96 146 145
f 96 145 144
f 96 136 135
f 96 135 141
f 97 148 99
f 97 143 148
f 98 99 149
f 98 149 100
f 99 148 150
f 99 150 149
f 100 149 151
f 100 151 152
f 100 152 153
f 100 153 102
f 101 105 154
f 101 154 155
f 101 155 106
f 102 153 103
f 103 153 156
f 103 156 104
f 104 156 157
f 104 157 158
f 104 158 159
f 104 159 160
f 104 160 105
f 105 160 161
f 105 161 162
f 105 162 163
f 105 163 154
f 108 164 165
f 109 165 166
f 109 166 167
f 109 167 168
f 109 168 169
f 109 169 170
f 109 170 171
f 109 171 172
f 109 172 187
f 109 187 173
f 110 112 116
f 110 116 115
f 111 174 112
f 112 174 175
f 112 175 116
f 113 176 177
f 113 177 178
f 113 178 114
f 114 179 180
f 114 180 181
f 114 178 182
f 114 182 179
f 115 116 120
f 116 175 183
f 116 183 117
f 117 183 184
f 117 184 118
f 118 184 119
f 119 184 121
f 121 184 122
f 122 184 123
f 123 184 127
f 123 127 124
f 125 127 126
f 126 127 184
f 126 184 185
f 126 185 186
f 126 186 131
f 129 130 137
f 130 133 137
f 131 186 132
f 132 187 172
f 132 172 188
f 132 186 189
f 132 189 187
f 133 188 142
f 133 142 137
f 134 141 135
f 138 190 191
f 138 191 139
f 138 142 188
f 138 188 192
f 138 192 190
f 139 191 140
f 140 191 141
f 141 191 193
f 141 193 194
f 141 194 195
f 141 195 146
f 143 147 196
f 143 196 197
f 143 197 148
f 146 195 197
f 146 197 196
f 146 196 147
f 148 197 150
f 149 150 198
f 149 198 151
f 150 197 198
f 151 199 152
f 151 198 200
f 151 200 201
f 151 201 245
f 151 245 199
f 152 199 153
f 153 202 203
f 153 203 156
f 153 199 202
f 154 163 155
f 156 203 157
f 157 204 205
f 157 205 159
f 157 159 158
f 157 203 206
f 157 206 207
f 157 207 204
f 159 208 160
f 159 205 209
f 159 209 210
f 159 210 211
f 159 211 208
f 160 208 212
f 160 212 213
f 160 213 214
f 160 214 161
f 161 214 213
f 164 215 165
f 165 215 216
f 165 216 166
f 166 217 218
f 166 218 167
f 166 216 217
f 167 218 219
f 167 219 220
f 167 220 221
f 167 221 168
f 168 221 222
f 168 222 223
f 168 223 169
f 169 223 224
f 169 224 170
f 170 224 171
f 171 224 190
f 171 190 172
f 172 192 188
f 172 190 192
f 173 187 225
f 173 225 175
f 173 175 174
f 175 225 183
f 176 226 178
f 176 178 177
f 178 227 228
f 178 228 229
f 178 229 230
f 178 230 231
f 178 231 232
f 178 232 233
f 178 233 234
f 178 234 235
f 178 235 236
f 178 236 182
f 178 226 237
f 178 237 227
f 179 182 238
f 179 238 239
f 179 239 180
f 180 239 181
f 181 239 240
f 182 236 238
f 183 225 186
f 183 186 185
f 183 185 184
f 186 225 189
f 187 189 225
f 190 224 191
f 191 224 241
f 191 241 193
f 193 241 242
f 193 242 194
f 194 242 195
f 195 242 243
f 195 243 197
f 197 243 198
f 198 243 242
f 198 242 244
f 198 244 200
f 199 245 246
f 199 246 247
f 199 247 202
f 200 244 248
f 200 248 245
f 200 245 201
f 202 247 249
f 202 249 203
f 203 249 206
f 204 207 250
f 204 250 205
f 205 251 252
f 205 252 209
f 205 250 251
f 206 249 247
f 206 247 253
f 206 253 207
f 207 253 254
f 207 254 255
f 207 255 256
f 207 256 257
f 207 257 258
f 207 258 259
f 207 259 250
f 208 260 261
f 208 261 262
f 208 262 212
f 208 211 263
f 208 263 264
f 208 264 260
f 209 252 210
f 210 265 266
f 210 266 267
f 210 267 268
f 210 268 269
f 210 269 211
f 210 252 265
f 211 269 270
f 211 270 263
f 212 271 213
f 212 262 271
f 215 272 273
f 215 273 274
f 215 274 216
f 216 274 217
f 217 275 218
f 217 274 276
f 217 276 275
f 218 277 278
f 218 278 219
f 218 275 277
f 219 279 220
f 219 278 279
f 220 279 221
f 221 279 222
f 222 279 280
f 222 280 223
f 223 241 224
f 223 280 281
f 223 281 241
f 227 282 228
f 227 237 283
f 227 283 282
f 228 282 284
f 228 284 285
f 228 285 229
f 229 286 230
f 229 285 287
f 229 287 288
f 229 288 289
f 229 289 290
f 229 290 291
f 229 291 292
f 229 292 293
f 229 293 286
f 230 286 232
f 230 232 231
f 232 286 294
f 232 294 295
f 232 295 296
f 232 296 233
f 233 296 295
f 233 295 297
f 233 297 298
f 233 298 234
f 234 298 299
f 234 299 300
f 234 300 235
f 235 301 239
f 235 239 238
f 235 238 236
f 235 300 301
f 239 301 302
f 239 302 303
f 239 303 240
f 241 281 304
f 241 304 242
f 242 304 305
f 242 305 244
f 244 305 306
f 244 306 248
f 245 248 247
f 245 247 246
f 247 248 306
f 247 306 307
f 247 307 253
f 250 259 308
f 250 308 309
f 250 309 251
f 251 310 252
f 251 309 310
f 252 310 311
f 252 311 312
f 252 312 313
f 252 313 265
f 253 307 314
f 253 314 254
f 254 314 256
f 254 256 255
f 256 315 316
f 256 316 317
f 256 317 257
f 256 314 306
f 256 306 305
f 256 305 315
f 257 317 318
f 257 318 258
f 258 318 319
f 258 319 308
f 258 308 259
f 263 270 320
f 263 320 264
f 265 313 266
f 266 313 321
f 266 321 322
f 266 322 267
f 267 323 324
f 267 324 325
f 267 325 326
f 267 326 327
f 267 327 328
f 267 328 268
f 267 322 323
f 268 329 330
f 268 330 331
f 268 331 269
f 268 328 332
f 268 332 329
f 269 331 333
f 269 333 270
f 270 334 320
f 270 333 334
f 272 335 336
f 272 336 273
f 273 336 274
f 274 336 276
f 275 276 337
f 275 337 338
f 275 338 339
f 275 339 277
f 276 336 340
f 276 340 341
f 276 341 337
f 277 339 342
f 277 342 343
f 277 343 344
f 277 344 278
f 278 344 345
f 278 345 279
f 279 345 346
f 279 346 347
f 279 347 348
f 279 348 280
f 280 348 349
f 280 349 281
f 281 349 315
f 281 315 305
f 281 305 304
f 284 350 351
f 284 351 287
f 284 287 285
f 286 293 294
f 287 351 288
f 288 352 353
f 288 353 354
f 288 354 355
f 288 355 356
f 288 356 290
f 288 290 289
f 288 351 352
f 290 356 357
f 290 357 358
f 290 358 291
f 291 358 292
f 292 358 359
f 292 359 360
f 292 360 293
f 293 360 361
f 293 361 362
f 293 362 363
f 293 363 364
f 293 364 294
f 294 365 295
f 294 364 365
f 295 365 297
f 297 365 366
f 297 366 298
f 298 366 367
f 298 367 299
f 299 368 369
f 299 369 370
f 299 370 371
f 299 371 300
f 299 367 368
f 300 372 373
f 300 373 374
f 300 374 301
f 300 371 372
f 301 374 373
f 301 373 375
f 301 375 302
f 302 375 303
f 306 314 307
f 308 319 309
f 309 376 310
f 309 319 317
f 309 317 376
f 310 376 311
f 311 377 378
f 311 378 312
f 311 376 317
f 311 317 377
f 312 378 313
f 313 378 321
f 315 349 316
f 316 349 379
f 316 379 317
f 317 319 318
f 317 379 380
f 317 380 381
f 317 381 382
f 317 382 377
f 321 383 384
f 321 384 385
f 321 385 322
f 321 378 382
f 321 382 383
f 322 385 323
f 323 385 384
f 323 384 386
f 323 386 387
f 323 387 324
f 324 388 325
f 324 387 389
f 324 389 390
f 324 390 391
f 324 391 392
f 324 392 388
f 327 393 328
f 328 393 332
f 335 394 372
f 335 372 371
f 335 371 336
f 336 371 340
f 337 341 395
f 337 395 338
f 338 396 342
f 338 342 339
f 338 395 397
f 338 397 398
f 338 398 399
f 338 399 396
f 340 371 400
f 340 400 341
f 341 397 395
f 341 400 370
f 341 370 369
f 341 369 401
f 341 401 397
f 342 396 402
f 342 402 403
f 342 403 343
f 343 404 344
f 343 403 404
f 344 404 405
f 344 405 346
f 344 346 345
f 346 406 347
f 346 405 407
f 346 407 406
f 347 380 379
f 347 379 349
f 347 349 348
f 347 406 380
f 350 408 351
f 351 408 409
f 351 409 352
f 352 409 410
f 352 410 353
f 353 410 411
f 353 411 412
f 353 412 413
f 353 413 354
f 354 414 415
f 354 415 355
f 354 413 416
f 354 416 414
f 355 415 417
f 355 417 356
f 356 417 357
f 357 417 418
f 357 418 419
f 357 419 420
f 357 420 358
f 358 420 419
f 358 419 399
f 358 399 359
f 359 399 421
f 359 421 360
f 360 421 361
f 361 363 362
f 361 421 401
f 361 401 363
f 363 401 364
f 364 401 422
f 364 422 423
f 364 423 366
f 364 366 365
f 366 423 369
f 366 369 367
f 367 369 368
f 369 423 422
f 369 422 401
f 370 400 371
f 372 424 373
f 372 394 424
f 377 382 378
f 380 406 425
f 380 425 426
f 380 426 382
f 380 382 381
f 382 426 427
f 382 427 383
f 383 427 428
f 383 428 384
f 384 429 430
f 384 430 386
f 384 428 429
f 386 430 389
f 386 389 387
f 389 430 431
f 389 431 432
f 389 432 433
f 389 433 390
f 390 434 435
f 390 435 391
f 390 433 436
f 390 436 437
f 390 437 434
f 391 435 392
f 396 399 438
f 396 438 439
f 396 439 402
f 397 401 421
f 397 421 398
f 398 421 399
f 399 419 438
f 402 439 440
f 402 440 441
f 402 441 442
f 402 442 443
f 402 443 444
f 402 444 445
f 402 445 403
f 403 446 447
f 403 447 448
f 403 448 404
f 403 445 449
f 403 449 450
f 403 450 451
f 403 451 452
f 403 452 446
f 404 448 405
f 405 448 407
f 406 407 453
f 406 453 428
f 406 428 454
f 406 454 425
f 407 448 455
f 407 455 453
f 411 456 457
f 411 457 412
f 412 457 413
f 413 458 459
f 413 459 416
f 413 457 458
f 414 416 460
f 414 460 415
f 415 460 461
f 415 461 417
f 416 462 433
f 416 433 463
f 416 463 460
f 416 459 462
f 417 461 464
f 417 464 465
f 417 465 418
f 418 465 440
f 418 440 419
f 419 440 438
f 425 454 426
f 426 454 427
f 427 454 428
f 428 453 466
f 428 466 467
f 428 467 429
f 429 467 430
f 430 467 468
f 430 468 431
f 431 468 469
f 431 469 432
f 432 469 470
f 432 470 433
f 433 471 463
f 433 462 436
f 433 470 471
f 436 472 473
f 436 473 437
f 436 462 474
f 436 474 475
f 436 475 472
f 438 440 439
f 440 465 441
f 441 465 442
f 442 465 464
f 442 464 461
f 442 461 460
f 442 460 476
f 442 476 451
f 442 451 443
f 443 449 445
f 443 445 444
f 443 451 449
f 446 477 447
f 446 452 478
f 446 478 477
f 447 477 448
f 448 479 455
f 448 477 480
f 448 480 479
f 449 451 450
f 451 476 481
f 451 481 452
f 452 481 478
f 453 455 482
f 453 482 483
f 453 483 484
f 453 484 466
f 455 479 483
f 455 483 482
f 456 485 457
f 457 485 458
f 458 486 487
f 458 487 459
f 458 485 486
f 459 487 488
f 459 488 489
f 459 489 490
f 459 490 462
f 460 463 481
f 460 481 476
f 462 490 491
f 462 491 474
f 463 471 481
f 466 484 467
f 467 492 468
f 467 484 483
f 467 483 492
f 468 492 469
f 469 492 480
f 469 480 470
f 470 480 493
f 470 493 494
f 470 494 495
f 470 495 471
f 471 495 481
f 474 491 475
f 477 478 494
f 477 494 493
f 477 493 480
f 478 481 494
f 479 480 483
f 480 492 483
f 481 495 494
f 489 491 490

