# https://github.com/mikedh/trimesh
v 0.03999704 -0.00000773 0.09997134
v 0.03749617 -0.00000773 0.09997134
v 0.03965457 -0.00521981 0.09997134
v 0.03631271 -0.00000583 0.06311899
v 0.03221686 -0.00970820 0.06312848
v 0.03621743 -0.00970820 0.09997134
v 0.03369861 -0.00000583 0.06311899
v 0.02751203 -0.00000583 0.00312130
v 0.02588944 -0.00912127 0.00306438
v 0.03876110 -0.00970820 0.09997134
v 0.03622985 -0.00970820 0.07508059
v 0.03403970 -0.00912127 0.05240004
v 0.03572029 -0.00615814 0.06312848
v 0.03600200 -0.00474115 0.06312848
v 0.03004742 -0.00395668 0.00306438
v 0.03030704 -0.00000583 0.00306438
v 0.03497044 -0.00970820 0.06312848
v 0.02750789 -0.00000583 0.00306438
v 0.02884049 -0.00912127 0.00306438
v 0.02927410 -0.00784294 0.00306438
v 0.02930586 -0.00768624 0.00306438
f 1 2 6
f 1 6 10
f 1 10 3
f 1 3 4
f 1 4 7
f 1 7 2
f 2 5 6
f 2 7 8
f 2 8 9
f 2 9 5
f 3 10 11
f 3 11 12
f 3 12 13
f 3 13 14
f 3 14 4
f 4 15 16
f 4 16 18
f 4 18 8
f 4 8 7
f 4 14 15
f 5 17 11
f 5 11 10
f 5 10 6
f 5 9 19
f 5 19 17
f 8 18 9
f 9 18 16
f 9 16 15
f 9 15 21
f 9 21 20
f 9 20 19
f 11 17 12
f 12 19 20
f 12 20 21
f 12 21 15
f 12 15 13
f 12 17 19
f 13 15 14

