# https://github.com/mikedh/trimesh
v -0.01945387 0.01944402 0.00306437
v -0.02519879 0.01096176 0.00306437
v -0.02317204 0.01944402 0.00306437
v -0.02745008 0.01944402 0.06312766
v -0.03178869 0.01096176 0.06312766
v -0.02821381 0.01096176 0.00306437
v -0.02404508 0.01844850 0.00306437
v -0.02534208 0.01944402 0.01940892
v -0.03058771 0.01944402 0.06312766
v -0.03454519 0.01096176 0.06312766
v -0.02799813 0.01159776 0.00306437
v -0.02577343 0.01586297 0.00306437
v -0.03144598 0.01815623 0.06312766
v -0.02624762 0.01515307 0.00306437
v -0.03354807 0.01389684 0.06312766
v -0.02631853 0.01500943 0.00306437
v -0.03257901 0.01586297 0.06312766
f 1 2 6
f 1 6 11
f 1 11 16
f 1 16 14
f 1 14 12
f 1 12 7
f 1 7 3
f 1 3 8
f 1 8 9
f 1 9 4
f 1 4 5
f 1 5 2
f 2 5 10
f 2 10 6
f 3 7 8
f 4 9 13
f 4 13 17
f 4 17 15
f 4 15 10
f 4 10 5
f 6 10 11
f 7 12 8
f 8 12 9
f 9 12 14
f 9 14 13
f 10 15 11
f 11 15 16
f 13 14 17
f 14 16 17
f 15 17 16

