# https://github.com/mikedh/trimesh
v -0.02702645 0.02593212 0.09997494
v -0.03033388 0.02593212 0.09997494
v -0.02703056 0.02593212 0.10000011
v -0.03466497 0.01429227 0.10000011
v -0.03466224 0.01429227 0.09997494
v -0.03034345 0.02593097 0.09997494
v -0.03487681 0.02593212 0.10000011
v -0.02891661 0.02593212 0.10170630
v -0.03729862 0.01429227 0.10300000
v -0.03681890 0.01429227 0.09997494
v -0.03173202 0.02434823 0.09997494
v -0.03767172 0.02174906 0.10000011
v -0.03487681 0.02593212 0.10300000
v -0.03034755 0.02593212 0.10300000
v -0.04098735 0.01429227 0.10300000
v -0.03695147 0.01530641 0.09997494
v -0.04098735 0.01429227 0.10000011
v -0.03463764 0.01999881 0.09997494
v -0.04018783 0.01664759 0.10000011
v -0.03767172 0.02174906 0.10300000
v -0.04018783 0.01664759 0.10300000
f 1 2 7
f 1 7 13
f 1 13 14
f 1 14 8
f 1 8 3
f 1 3 4
f 1 4 5
f 1 5 10
f 1 10 16
f 1 16 18
f 1 18 11
f 1 11 6
f 1 6 2
f 2 6 7
f 3 8 9
f 3 9 4
f 4 9 15
f 4 15 17
f 4 17 10
f 4 10 5
f 6 11 7
f 7 12 20
f 7 20 13
f 7 11 12
f 8 14 9
f 9 14 13
f 9 13 20
f 9 20 21
f 9 21 15
f 10 17 16
f 11 18 12
f 12 19 21
f 12 21 20
f 12 18 19
f 15 21 19
f 15 19 17
f 16 17 19
f 16 19 18

