# https://github.com/mikedh/trimesh
v -0.00000042 -0.03999677 0.09997134
v 0.00000226 -0.03930092 0.09997134
v -0.00521960 -0.03965437 0.09997134
v -0.00144429 -0.03621795 0.06311899
v -0.00000042 -0.03030742 0.00306438
v 0.00000583 -0.03030742 0.00306438
v 0.00000583 -0.03631183 0.06311899
v 0.00000226 -0.03749504 0.09997134
v -0.00872435 -0.03895714 0.09997134
v -0.00615807 -0.03572092 0.06312848
v -0.00473921 -0.03600257 0.06312848
v -0.00379627 -0.03005891 0.00306438
v 0.00000583 -0.02750610 0.00306438
v 0.00000583 -0.03369828 0.06311899
v -0.00872435 -0.03641400 0.09997134
v 0.00000583 -0.03368723 0.06302414
v -0.00911635 -0.02589213 0.00306438
v -0.00911635 -0.03513139 0.06311899
v -0.00761712 -0.02932026 0.00306438
v -0.00395611 -0.03004648 0.00306438
v -0.00911635 -0.03241842 0.06311899
v -0.00911635 -0.02879976 0.02982383
v -0.00911635 -0.02884256 0.00306438
v -0.00911635 -0.03401997 0.05221032
v -0.00784393 -0.02927470 0.00306438
f 1 2 8
f 1 8 15
f 1 15 9
f 1 9 3
f 1 3 4
f 1 4 5
f 1 5 6
f 1 6 7
f 1 7 2
f 2 7 14
f 2 14 8
f 3 9 10
f 3 10 11
f 3 11 4
f 4 12 5
f 4 11 12
f 5 12 20
f 5 20 19
f 5 19 25
f 5 25 23
f 5 23 17
f 5 17 13
f 5 13 6
f 6 13 16
f 6 16 14
f 6 14 7
f 8 14 16
f 8 16 13
f 8 13 17
f 8 17 15
f 9 15 21
f 9 21 18
f 9 18 10
f 10 18 19
f 10 19 11
f 11 19 20
f 11 20 12
f 15 17 22
f 15 22 21
f 17 23 24
f 17 24 18
f 17 18 21
f 17 21 22
f 18 24 25
f 18 25 19
f 23 25 24

