# https://github.com/mikedh/trimesh
v -0.01674536 0.02182094 0.00306438
v -0.01674536 0.02518276 0.00306438
v -0.00911497 0.02589426 0.00306438
v -0.00911497 0.03099918 0.05008550
v -0.00911497 0.03241555 0.06311899
v -0.00970006 0.03621853 0.09997134
v -0.01683683 0.03341564 0.09997134
v -0.01683683 0.02921129 0.06330871
v -0.01683683 0.02919139 0.06312848
v -0.01683683 0.03209878 0.06312848
v -0.01674536 0.02672684 0.01592712
v -0.01515185 0.02624752 0.00306438
v -0.00911497 0.02884310 0.00306438
v -0.00911497 0.03513220 0.06311899
v -0.00970006 0.03876436 0.09997134
v -0.01683683 0.03619531 0.09997134
v -0.01530531 0.03695160 0.09997134
v -0.01174259 0.02792926 0.00306438
v -0.01674536 0.02900398 0.03490822
v -0.01159896 0.02799892 0.00306438
v -0.01252725 0.03401270 0.06311899
v -0.00911497 0.03401270 0.05212495
v -0.01035319 0.03863334 0.09997134
v -0.01389549 0.03354832 0.06312848
f 1 2 12
f 1 12 18
f 1 18 20
f 1 20 13
f 1 13 3
f 1 3 4
f 1 4 5
f 1 5 6
f 1 6 7
f 1 7 8
f 1 8 9
f 1 9 10
f 1 10 2
f 2 10 11
f 2 11 12
f 3 13 22
f 3 22 14
f 3 14 5
f 3 5 4
f 5 14 15
f 5 15 6
f 6 15 23
f 6 23 17
f 6 17 16
f 6 16 7
f 7 16 10
f 7 10 9
f 7 9 8
f 10 16 17
f 10 17 18
f 10 18 12
f 10 12 19
f 10 19 11
f 11 19 12
f 13 20 21
f 13 21 22
f 14 22 23
f 14 23 15
f 17 23 21
f 17 21 24
f 17 24 18
f 18 24 20
f 20 24 21
f 21 23 22

