# https://github.com/mikedh/trimesh
v -0.01426273 -0.03467409 0.09997494
v -0.01426273 -0.03730761 0.09997494
v -0.01426273 -0.03467668 0.09999982
v 0.00000333 -0.03750028 0.10000011
v -0.00000086 -0.03749769 0.09997494
v -0.01426273 -0.04099781 0.10000011
v -0.01035129 -0.03863473 0.09997494
v -0.01125898 -0.04201735 0.10000011
v -0.01426273 -0.03681857 0.10244065
v 0.00000333 -0.03999901 0.10300000
v 0.00000333 -0.03775517 0.09997494
v -0.01426273 -0.04099781 0.10300000
v -0.00567880 -0.04312761 0.10000011
v -0.00522076 -0.03965513 0.09997494
v -0.01125898 -0.04201735 0.10300000
v -0.01426273 -0.03731020 0.10300000
v 0.00000333 -0.04349914 0.10300000
v 0.00000333 -0.03930175 0.09997494
v -0.00000086 -0.04350000 0.10000011
v -0.00567880 -0.04312761 0.10300000
v -0.00000086 -0.03999729 0.09997494
v 0.00000333 -0.04349914 0.10000189
v -0.00000086 -0.04350000 0.10300000
f 1 2 6
f 1 6 12
f 1 12 16
f 1 16 9
f 1 9 3
f 1 3 4
f 1 4 5
f 1 5 11
f 1 11 18
f 1 18 21
f 1 21 14
f 1 14 7
f 1 7 2
f 2 7 8
f 2 8 6
f 3 9 10
f 3 10 4
f 4 10 17
f 4 17 22
f 4 22 18
f 4 18 11
f 4 11 5
f 6 8 15
f 6 15 12
f 7 13 8
f 7 14 13
f 8 13 20
f 8 20 15
f 9 16 10
f 10 16 12
f 10 12 15
f 10 15 20
f 10 20 23
f 10 23 17
f 13 14 19
f 13 19 23
f 13 23 20
f 14 21 19
f 17 23 19
f 17 19 22
f 18 22 21
f 19 21 22

