# https://github.com/mikedh/trimesh
v -0.00872535 -0.03895718 0.09997134
v -0.00872535 -0.03641296 0.09997134
v -0.01035292 -0.03863407 0.09997134
v -0.00872535 -0.03520907 0.06313354
v -0.02051662 -0.03129221 0.09997134
v -0.00872535 -0.03255235 0.06315517
v -0.02051662 -0.02673272 0.06313354
v -0.01433760 -0.03728178 0.09997134
v -0.01076963 -0.03461071 0.06313354
v -0.00939946 -0.03507503 0.06313354
v -0.00872535 -0.03255116 0.06313354
v -0.02051662 -0.03429119 0.09997134
v -0.02051662 -0.02987171 0.06313354
v -0.01530607 -0.03695148 0.09997134
v -0.01389666 -0.03354922 0.06313354
v -0.01999834 -0.03463823 0.09997134
v -0.01935885 -0.03064599 0.06313354
v -0.01815606 -0.03144898 0.06313354
f 1 2 5
f 1 5 12
f 1 12 16
f 1 16 14
f 1 14 8
f 1 8 3
f 1 3 4
f 1 4 11
f 1 11 6
f 1 6 2
f 2 6 7
f 2 7 5
f 3 8 9
f 3 9 10
f 3 10 4
f 4 10 9
f 4 9 15
f 4 15 18
f 4 18 17
f 4 17 13
f 4 13 7
f 4 7 11
f 5 7 13
f 5 13 12
f 6 11 7
f 8 14 15
f 8 15 9
f 12 13 16
f 13 17 16
f 14 16 15
f 15 16 18
f 16 17 18

