# https://github.com/mikedh/trimesh
v -0.04350000 0.00000002 0.10000011
v -0.03965483 0.00522185 0.09997494
v -0.03999740 0.00000002 0.09997494
v -0.03999653 -0.00000698 0.09997494
v -0.04349914 -0.00000698 0.10000396
v -0.04350000 0.00000002 0.10300000
v -0.04312716 0.00567811 0.10000011
v -0.03863493 0.01035131 0.09997494
v -0.03749739 -0.00000698 0.09997494
v -0.04349914 -0.00000698 0.10300000
v -0.04312716 0.00567811 0.10300000
v -0.04201730 0.01125824 0.10000011
v -0.04098788 0.01429113 0.10000011
v -0.03682005 0.01429113 0.09997494
v -0.03749998 -0.00000698 0.10000011
v -0.03466347 0.01429113 0.09997494
v -0.03999566 -0.00000698 0.10299556
v -0.03999999 0.00000002 0.10300000
v -0.04201730 0.01125824 0.10300000
v -0.04098788 0.01429113 0.10300000
v -0.03466606 0.01429113 0.10000011
v -0.03730016 0.01429113 0.10300000
f 1 2 3
f 1 3 4
f 1 4 5
f 1 5 10
f 1 10 6
f 1 6 11
f 1 11 7
f 1 7 2
f 2 7 8
f 2 8 14
f 2 14 16
f 2 16 9
f 2 9 4
f 2 4 3
f 4 9 15
f 4 15 17
f 4 17 10
f 4 10 5
f 6 10 18
f 6 18 22
f 6 22 20
f 6 20 19
f 6 19 11
f 7 11 19
f 7 19 12
f 7 12 8
f 8 12 13
f 8 13 14
f 9 16 21
f 9 21 15
f 10 17 18
f 12 19 20
f 12 20 13
f 13 20 22
f 13 22 21
f 13 21 16
f 13 16 14
f 15 21 17
f 17 21 22
f 17 22 18

