# https://github.com/mikedh/trimesh
v -0.01674956 -0.02923272 0.06312766
v -0.02886579 -0.01732511 0.06312766
v -0.01674956 -0.03214218 0.06312766
v -0.01674956 -0.02182563 0.00311729
v -0.02131330 -0.01732511 0.00306437
v -0.03185751 -0.01732511 0.06312766
v -0.01815743 -0.03144745 0.06312766
v -0.01674956 -0.02901081 0.03498916
v -0.01674956 -0.02181983 0.00306437
v -0.02479451 -0.01732511 0.00306437
v -0.03000746 -0.01732511 0.04649502
v -0.03144786 -0.01815762 0.06312766
v -0.02210596 -0.02880776 0.06312766
v -0.01845024 -0.02404471 0.00306437
v -0.01674956 -0.02517891 0.00306437
v -0.02404474 -0.01845060 0.00306437
v -0.02961261 -0.02090464 0.06312766
v -0.02316038 -0.02788531 0.06312766
v -0.02125710 -0.02158342 0.00306437
v -0.02316038 -0.01945861 0.00306437
v -0.02663125 -0.02459006 0.06312766
v -0.02880812 -0.02210701 0.06312766
v -0.02567591 -0.02567494 0.06312766
v -0.02315891 -0.02315998 0.02752828
v -0.02143013 -0.02142968 0.00306437
v -0.02316038 -0.02315853 0.02752828
f 1 2 6
f 1 6 12
f 1 12 17
f 1 17 22
f 1 22 21
f 1 21 23
f 1 23 18
f 1 18 13
f 1 13 7
f 1 7 3
f 1 3 8
f 1 8 15
f 1 15 9
f 1 9 4
f 1 4 5
f 1 5 2
f 2 5 10
f 2 10 11
f 2 11 6
f 3 7 8
f 4 9 5
f 5 9 15
f 5 15 14
f 5 14 19
f 5 19 25
f 5 25 20
f 5 20 16
f 5 16 10
f 6 11 12
f 7 13 14
f 7 14 8
f 8 14 15
f 10 16 11
f 11 16 12
f 12 16 17
f 13 18 14
f 14 18 19
f 16 20 21
f 16 21 22
f 16 22 17
f 18 23 19
f 19 23 24
f 19 24 25
f 20 25 21
f 21 25 26
f 21 26 23
f 23 26 24
f 24 26 25

