# https://github.com/mikedh/trimesh
v 0.00000333 -0.03999728 0.09997134
v 0.00446784 -0.03970427 0.09997134
v 0.00000333 -0.03749548 0.09997134
v 0.00000333 -0.03631345 0.06312848
v 0.00329578 -0.03609683 0.06311899
v 0.00446784 -0.03720373 0.09997134
v 0.00446784 -0.03602044 0.06312848
v 0.00000333 -0.03369896 0.06312848
v 0.00391983 -0.02720530 0.00306438
v 0.00000595 -0.02750582 0.00306438
v 0.00000595 -0.03030688 0.00306438
v 0.00016022 -0.03029686 0.00306438
v 0.00391983 -0.03005019 0.00306438
v 0.00446784 -0.03339844 0.06312848
f 1 2 6
f 1 6 3
f 1 3 8
f 1 8 4
f 1 4 5
f 1 5 2
f 2 5 7
f 2 7 14
f 2 14 6
f 3 6 9
f 3 9 10
f 3 10 8
f 4 8 10
f 4 10 11
f 4 11 12
f 4 12 5
f 5 12 13
f 5 13 7
f 6 14 9
f 7 13 9
f 7 9 14
f 9 13 12
f 9 12 11
f 9 11 10

