# https://github.com/mikedh/trimesh
v -0.03631288 -0.00000613 0.06313354
v -0.03631288 0.00000071 0.06313354
v -0.03369903 -0.00000613 0.06313354
v -0.03999677 -0.00000613 0.09997134
v -0.03999749 0.00000071 0.09997134
v -0.03621885 0.00144386 0.06313354
v -0.03255101 0.00872202 0.06313354
v -0.03749298 -0.00000613 0.09993888
v -0.03749663 -0.00000613 0.09997134
v -0.03965491 0.00522051 0.09997134
v -0.03600310 0.00473945 0.06313354
v -0.03521078 0.00872202 0.06313354
v -0.03569915 0.00872202 0.09314832
v -0.03641493 0.00872202 0.09997134
v -0.03895880 0.00872202 0.09997134
v -0.03572101 0.00615868 0.06313354
f 1 2 6
f 1 6 11
f 1 11 16
f 1 16 12
f 1 12 7
f 1 7 3
f 1 3 8
f 1 8 9
f 1 9 4
f 1 4 5
f 1 5 2
f 2 5 6
f 3 7 8
f 4 9 14
f 4 14 15
f 4 15 10
f 4 10 5
f 5 10 11
f 5 11 6
f 7 12 15
f 7 15 14
f 7 14 13
f 7 13 8
f 8 13 14
f 8 14 9
f 10 15 16
f 10 16 11
f 12 16 15

