# https://github.com/mikedh/trimesh
v -0.01674620 0.03214288 0.06311899
v -0.01815798 0.03144595 0.06311899
v -0.02000255 0.03463707 0.09997134
v -0.01683895 0.03619490 0.09997134
v -0.01674620 0.02923382 0.06311899
v -0.01674620 0.02900260 0.03490822
v -0.01674620 0.02518343 0.00306438
v -0.02090595 0.02961262 0.06312848
v -0.02434951 0.03172964 0.09997134
v -0.01845167 0.02404539 0.00306438
v -0.01683895 0.03341375 0.09997134
v -0.01674620 0.02182341 0.00308335
v -0.01674620 0.02182341 0.00306438
v -0.02828083 0.02828271 0.09997134
v -0.02210819 0.02880746 0.06312848
v -0.01857189 0.02394208 0.00306438
v -0.02539030 0.02593283 0.06312848
v -0.03128986 0.02051975 0.09997134
v -0.02744956 0.01944402 0.06311899
v -0.01945468 0.01944402 0.00306438
v -0.03034181 0.02593447 0.09997134
v -0.02567540 0.02567866 0.06311899
v -0.02143150 0.02143149 0.00306438
v -0.02255474 0.02255642 0.01896259
v -0.03429202 0.02051975 0.09997134
v -0.03058569 0.01944402 0.06311899
v -0.02317303 0.01944402 0.00306438
v -0.03172953 0.02435040 0.09997134
v -0.02785489 0.02319595 0.06312848
v -0.02880809 0.02210711 0.06311899
v -0.02986950 0.02051975 0.06312848
v -0.02534049 0.01944402 0.01941790
f 1 2 3
f 1 3 4
f 1 4 11
f 1 11 5
f 1 5 12
f 1 12 13
f 1 13 7
f 1 7 6
f 1 6 2
f 2 6 7
f 2 7 3
f 3 8 9
f 3 9 14
f 3 14 21
f 3 21 28
f 3 28 25
f 3 25 18
f 3 18 11
f 3 11 4
f 3 7 10
f 3 10 8
f 5 11 12
f 7 13 20
f 7 20 27
f 7 27 23
f 7 23 16
f 7 16 10
f 8 10 9
f 9 10 15
f 9 15 16
f 9 16 17
f 9 17 14
f 10 16 15
f 11 18 19
f 11 19 12
f 12 20 13
f 12 19 20
f 14 17 22
f 14 22 21
f 16 23 17
f 17 23 24
f 17 24 22
f 18 25 26
f 18 26 19
f 19 26 32
f 19 32 27
f 19 27 20
f 21 22 24
f 21 24 29
f 21 29 30
f 21 30 28
f 23 27 30
f 23 30 29
f 23 29 24
f 25 28 30
f 25 30 31
f 25 31 32
f 25 32 26
f 27 32 30
f 30 32 31

