# https://github.com/mikedh/trimesh
v 0.03465720 0.01430712 0.09997524
v 0.03466066 0.01430712 0.10000011
v 0.03682202 0.01430712 0.09997494
v 0.03621958 0.00970436 0.09997494
v 0.03749718 -0.00000698 0.09997494
v 0.03749977 -0.00000698 0.10000011
v 0.03468923 0.01430712 0.10003298
v 0.03999958 0.00000003 0.10300000
v 0.03729204 0.01430712 0.09997494
v 0.03999698 -0.00000698 0.09997494
v 0.04000304 -0.00000698 0.10300000
v 0.03729463 0.01430712 0.10300000
v 0.04098289 0.01430712 0.10000011
v 0.03863542 0.01035169 0.09997494
v 0.04349914 -0.00000698 0.10000011
v 0.03999698 0.00000003 0.09997494
v 0.04350000 0.00000003 0.10000011
v 0.04349914 -0.00000698 0.10299615
v 0.04350000 0.00000003 0.10300000
v 0.04098289 0.01430712 0.10300000
v 0.04201726 0.01125823 0.10000011
v 0.04312780 0.00567887 0.10000011
v 0.03965508 0.00522069 0.09997494
v 0.04312780 0.00567887 0.10300000
v 0.04201726 0.01125823 0.10300000
f 1 2 7
f 1 7 12
f 1 12 20
f 1 20 13
f 1 13 9
f 1 9 3
f 1 3 4
f 1 4 5
f 1 5 6
f 1 6 2
f 2 6 8
f 2 8 7
f 3 9 14
f 3 14 23
f 3 23 16
f 3 16 10
f 3 10 5
f 3 5 4
f 5 10 15
f 5 15 18
f 5 18 11
f 5 11 6
f 6 11 8
f 7 8 12
f 8 11 19
f 8 19 24
f 8 24 25
f 8 25 20
f 8 20 12
f 9 13 14
f 10 16 17
f 10 17 15
f 11 18 19
f 13 20 25
f 13 25 21
f 13 21 14
f 14 21 22
f 14 22 23
f 15 17 19
f 15 19 18
f 16 23 17
f 17 23 22
f 17 22 24
f 17 24 19
f 21 25 24
f 21 24 22

