# https://github.com/mikedh/trimesh
v 0.00073309 0.04731246 0.03857390
v 0.00073309 0.04386783 0.03857390
v 0.00073309 0.04784370 0.03659267
v 0.00070467 0.04735813 0.04692337
v 0.00070467 0.04209863 -0.01275232
v 0.00073309 0.04382456 0.03707029
v 0.00070467 0.04410099 0.04692337
v 0.00008997 0.03670692 -0.03792454
v 0.00073309 0.04797110 0.03588509
v 0.00072954 0.04877637 0.03258599
v 0.00008997 0.04743505 0.05036399
v 0.00008997 0.04726198 0.05139883
v 0.00008997 0.04690622 0.05207103
v 0.00008997 0.04621393 0.05235406
v 0.00069046 0.04193277 -0.01574185
v 0.00070467 0.04683891 -0.01275232
v 0.00071177 0.04258901 -0.00396061
v 0.00073309 0.04379090 0.03577895
v 0.00073309 0.04379090 0.03578780
v -0.03100387 0.03089455 0.04970063
v -0.02718065 0.02425527 -0.03792454
v 0.00008997 0.04578365 0.05234522
v 0.00008997 0.04517549 0.05230984
v 0.00008997 0.04455290 0.05203565
v 0.00008997 0.04445916 0.05177031
v 0.00008997 0.04433897 0.05139883
v 0.00008997 0.04422118 0.05036399
v 0.00008997 0.04517308 -0.03792454
v 0.00073309 0.04798552 0.03577895
v 0.00072954 0.04880522 0.03216145
v -0.00468550 0.04720429 0.05036399
v -0.00365152 0.04727160 0.05036399
v -0.00156581 0.04739659 0.05036399
v -0.00052473 0.04743265 0.05036399
v -0.00052473 0.04726198 0.05139883
v -0.00156581 0.04690862 0.05207987
v -0.00052473 0.04621393 0.05236291
v 0.00069046 0.04640383 -0.01574185
v 0.00071177 0.04591586 -0.00396061
v 0.00069046 0.04657930 -0.01535268
v 0.00069046 0.04678603 -0.01473355
v 0.00069046 0.04686055 -0.01415864
v 0.00072954 0.04876916 0.03018906
v -0.03103229 0.03105320 0.05118655
v -0.03127035 0.03105320 0.05180569
v -0.03144446 0.03105320 0.05195605
v -0.03178557 0.03105320 0.05211525
v -0.03556614 0.02908209 -0.02753193
v -0.03556259 0.02908209 -0.02787688
v -0.03547021 0.02908209 -0.03063645
v -0.03536361 0.02908209 -0.03126443
v -0.03533874 0.02908209 -0.03131750
v -0.03497632 0.02908209 -0.03196317
v -0.02718065 0.03534157 -0.03792454
v -0.03212667 0.03105320 0.05221255
v -0.03334185 0.03105320 0.05239829
v -0.03375047 0.03105320 0.05230099
v -0.03436517 0.03105320 0.05215064
v -0.03533874 0.03089455 0.04970063
v -0.00466418 0.04552404 -0.03792454
v 0.00072954 0.04881243 0.03166614
v -0.00812853 0.04669949 0.05036399
v -0.00760976 0.04679565 0.05036399
v -0.00676766 0.04693266 0.05036399
v -0.00571947 0.04709131 0.05036399
v -0.00571947 0.04694949 0.05139883
v -0.00468550 0.04705285 0.05139883
v -0.00365152 0.04712977 0.05139883
v -0.00260689 0.04720189 0.05139883
v -0.00156581 0.04724756 0.05139883
v -0.00260689 0.04689661 0.05207103
v -0.00260689 0.04621393 0.05235406
v -0.00156581 0.04621393 0.05236291
v -0.00780163 0.04517549 0.05241597
v -0.00676766 0.04517549 0.05240713
v 0.00051280 0.04687016 -0.01400828
v -0.00124247 0.04676680 -0.01567994
v -0.00425556 0.04676680 -0.00845376
v -0.00882850 0.04682208 0.01098706
v -0.03533874 0.03089455 0.04962987
v -0.03486972 0.03082965 -0.00152830
v -0.03450019 0.03138492 -0.00154599
v -0.03544889 0.02926237 -0.02751425
v -0.03540270 0.02919266 -0.03063645
v -0.03535295 0.02914940 -0.03124674
v -0.03479866 0.02957246 -0.03196317
v -0.03437938 0.03024312 -0.03196317
v -0.02494570 0.03740643 -0.03792454
v -0.01195174 0.04413705 0.05243366
v -0.03166831 0.03272624 0.05240713
v -0.03375047 0.03169020 0.05216832
v -0.03442557 0.03134646 0.05203565
v -0.03457481 0.03105320 0.05207103
v -0.03522504 0.03105320 0.05036399
v -0.03495500 0.03105320 0.05154919
v -0.03503317 0.03105320 0.05139883
v -0.00467839 0.04552404 -0.03792454
v -0.00942899 0.04675718 0.01194229
v -0.01091066 0.04648075 0.01402081
v -0.01195174 0.04628123 0.01609933
v -0.00883916 0.04654806 0.05036399
v -0.00753159 0.04677882 0.05106272
v -0.00667883 0.04681968 0.05141651
v -0.00626311 0.04673555 0.05192067
v -0.00571947 0.04676440 0.05194720
v -0.00468550 0.04681247 0.05200912
v -0.00365152 0.04685814 0.05205334
v -0.00365152 0.04621393 0.05232753
v -0.00883916 0.04517549 0.05238944
v -0.00571592 0.04544712 -0.03790685
v -0.00883205 0.04517549 -0.03374981
v -0.00987313 0.04505770 -0.03271497
v -0.03341648 0.03242336 -0.00361567
v -0.03351241 0.03146906 -0.02440088
v -0.03450019 0.03034889 -0.02647941
v -0.03469917 0.03164934 0.05036399
v -0.03422660 0.03217337 0.05036399
v -0.03216575 0.03425986 0.05036399
v -0.02497413 0.03742085 -0.03766804
v -0.02912424 0.03640405 -0.00955051
v -0.02939428 0.03563002 -0.01816532
v -0.02034079 0.04076212 -0.03792454
v -0.01299993 0.04413705 0.05238944
v -0.01610540 0.04310101 0.05238060
v -0.01816269 0.04205777 0.05241597
v -0.02647357 0.03687759 0.05241597
v -0.03063078 0.03376468 0.05240713
v -0.03167542 0.03377189 0.05216832
v -0.03341292 0.03238731 0.05203565
v -0.03413422 0.03207000 0.05139883
v -0.03460679 0.03154838 0.05139883
v -0.00570171 0.04544712 -0.03792454
v -0.01195529 0.04476204 -0.03054800
v -0.01249893 0.04467069 -0.03014114
v -0.01254157 0.04468031 -0.02959277
v -0.01386335 0.04583413 0.01817786
v -0.01091421 0.04609133 0.05036399
v -0.01247761 0.04569951 0.05089467
v -0.01195174 0.04577163 0.05112464
v -0.01099949 0.04590143 0.05148727
v -0.00695598 0.04666824 0.05177031
v -0.01138679 0.04568029 0.05189413
v -0.01070102 0.04575961 0.05198258
v -0.00988024 0.04583653 0.05205334
v -0.00883916 0.04593268 0.05211525
v -0.00780163 0.04605047 0.05215064
v -0.00667883 0.04627643 0.05212410
v -0.00571947 0.04621393 0.05222139
v -0.00468550 0.04621393 0.05229215
v -0.00988024 0.04517549 0.05232753
v -0.01883424 0.04162028 -0.03660667
v -0.01681959 0.04265391 -0.03442201
v -0.01161064 0.04476204 -0.03145017
v -0.01074722 0.04492068 -0.03196317
v -0.03124193 0.03448101 -0.00687054
v -0.03023283 0.03543051 -0.00778156
v -0.03206271 0.03415890 0.05139883
v -0.03154750 0.03465408 0.05139883
v -0.03108559 0.03526705 0.05036399
v -0.02835320 0.03657712 -0.01713048
v -0.02725527 0.03761315 -0.01505196
v -0.03056683 0.03571416 0.05036399
v -0.02995568 0.03623578 0.05036399
v -0.02466856 0.04028136 0.01506450
v -0.02613246 0.03855304 -0.01297344
v -0.01885556 0.04165393 -0.03582833
v -0.02032302 0.04076933 -0.03792454
v -0.02610048 0.03853381 -0.01400828
v -0.02410005 0.03961071 -0.01609564
v -0.01982913 0.04367552 0.02647425
v -0.01403390 0.04413705 0.05230099
v -0.01610540 0.04386301 0.05211525
v -0.01816269 0.04295438 0.05215064
v -0.01919667 0.04205777 0.05229215
v -0.02543960 0.03791603 0.05239829
v -0.02231280 0.03998089 0.05238944
v -0.02959326 0.03480072 0.05238944
v -0.03063078 0.03480792 0.05215948
v -0.03133431 0.03446659 0.05203565
v -0.03237539 0.03342815 0.05203565
v -0.01921088 0.04116356 -0.03792454
v -0.01921088 0.04116836 -0.03790685
v -0.01690842 0.04273804 -0.03374981
v -0.01478717 0.04374042 -0.03147670
v -0.01306033 0.04450723 -0.02959277
v -0.01448160 0.04567788 0.01920385
v -0.01403390 0.04522356 0.05036399
v -0.01563994 0.04467310 0.05093005
v -0.01403390 0.04507453 0.05139883
v -0.01464505 0.04469233 0.05194720
v -0.01403390 0.04478367 0.05204450
v -0.01299993 0.04493030 0.05213294
v -0.01195174 0.04507453 0.05217716
v -0.03027902 0.03545695 0.05202680
v -0.03098610 0.03517330 0.05139883
v -0.03046734 0.03561800 0.05139883
v -0.02870141 0.03708912 0.05139883
v -0.02880801 0.03717806 0.05036399
v -0.02414979 0.04066597 0.01506450
v -0.02827858 0.03759152 0.05036399
v -0.02758216 0.03811314 0.05036399
v -0.02408939 0.04068520 0.01402081
v -0.01778606 0.04267795 -0.02416207
v -0.01753733 0.04462021 0.02336089
v -0.01565770 0.04365629 -0.02647941
v -0.02110117 0.04286063 0.02750909
v -0.02113315 0.04282458 0.02855278
v -0.02335743 0.04092077 0.05036399
v -0.02254731 0.04138711 0.05036399
v -0.02203921 0.04166595 0.05036399
v -0.02128593 0.04206257 0.05036399
v -0.01919667 0.04315630 0.05036399
v -0.01845760 0.04352408 0.05036399
v -0.01695106 0.04372840 0.05201796
v -0.01919667 0.04271160 0.05202680
v -0.02107985 0.04169239 0.05204450
v -0.02137121 0.04111308 0.05220370
v -0.02231280 0.04084145 0.05211525
v -0.02439852 0.03895447 0.05231868
v -0.02751109 0.03687759 0.05230984
v -0.02854862 0.03584156 0.05236291
v -0.02338231 0.04002175 0.05217716
v -0.02954707 0.03581992 0.05213294
v -0.01481205 0.04377889 -0.03063645
v -0.01697593 0.04481972 0.02232605
v -0.01703278 0.04478367 0.02336089
v -0.01507143 0.04487982 0.05036399
v -0.01784291 0.04369956 0.05119540
v -0.01761195 0.04360341 0.05189413
v -0.01502168 0.04477165 0.05132807
v -0.02916688 0.03643770 0.05199143
v -0.02804763 0.03741364 0.05192951
v -0.02818265 0.03751219 0.05139883
v -0.02704918 0.03847371 0.05103619
v -0.02706695 0.03848333 0.05036399
v -0.02647357 0.03889918 0.05036399
v -0.02579491 0.03935831 0.05036399
v -0.02528325 0.03969965 0.05036399
v -0.02447668 0.04022127 0.05036399
v -0.02395437 0.04055059 0.05036399
v -0.02393305 0.04053857 0.05100966
v -0.02196814 0.04162749 0.05118655
v -0.01987888 0.04265631 0.05139883
v -0.01919667 0.04299765 0.05139883
v -0.01973675 0.04258420 0.05192951
v -0.02176917 0.04151932 0.05188529
v -0.02305186 0.04062511 0.05201796
v -0.02537209 0.03894005 0.05211525
v -0.02651976 0.03797132 0.05218601
v -0.02846335 0.03682230 0.05207103
v -0.01817690 0.04346399 0.05148727
v -0.02751109 0.03761075 0.05204450
v -0.02689640 0.03835592 0.05171724
v -0.02619997 0.03858188 0.05202680
v -0.02498834 0.03950734 0.05195605
v -0.02515534 0.03961792 0.05139883
v -0.02338231 0.04075010 0.05137229
v -0.02231280 0.04133903 0.05148727
v -0.02374828 0.04039675 0.05169070
f 1 2 6
f 1 6 19
f 1 19 18
f 1 18 29
f 1 29 9
f 1 9 3
f 1 3 4
f 1 4 7
f 1 7 2
f 2 5 6
f 2 7 8
f 2 8 5
f 3 9 10
f 3 10 4
f 4 10 11
f 4 11 12
f 4 12 13
f 4 13 14
f 4 14 7
f 5 15 38
f 5 38 16
f 5 16 39
f 5 39 17
f 5 17 18
f 5 18 19
f 5 19 6
f 5 8 15
f 7 20 21
f 7 21 8
f 7 14 22
f 7 22 23
f 7 23 24
f 7 24 25
f 7 25 26
f 7 26 27
f 7 27 20
f 8 21 54
f 8 54 88
f 8 88 122
f 8 122 167
f 8 167 181
f 8 181 132
f 8 132 97
f 8 97 60
f 8 60 28
f 8 28 38
f 8 38 15
f 9 29 10
f 10 29 30
f 10 30 31
f 10 31 32
f 10 32 33
f 10 33 34
f 10 34 11
f 11 34 35
f 11 35 12
f 12 35 36
f 12 36 13
f 13 36 37
f 13 37 14
f 14 37 22
f 16 38 40
f 16 40 41
f 16 41 42
f 16 42 43
f 16 43 39
f 17 39 29
f 17 29 18
f 20 27 26
f 20 26 44
f 20 44 45
f 20 45 46
f 20 46 47
f 20 47 21
f 21 48 49
f 21 49 50
f 21 50 51
f 21 51 52
f 21 52 53
f 21 53 54
f 21 47 55
f 21 55 56
f 21 56 57
f 21 57 58
f 21 58 59
f 21 59 48
f 22 37 56
f 22 56 23
f 23 56 55
f 23 55 24
f 24 55 47
f 24 47 46
f 24 46 45
f 24 45 25
f 25 45 26
f 26 45 44
f 28 60 42
f 28 42 41
f 28 41 40
f 28 40 38
f 29 39 43
f 29 43 61
f 29 61 30
f 30 61 62
f 30 62 63
f 30 63 64
f 30 64 65
f 30 65 31
f 31 65 66
f 31 66 67
f 31 67 68
f 31 68 69
f 31 69 32
f 32 69 33
f 33 69 70
f 33 70 34
f 34 70 35
f 35 70 36
f 36 70 71
f 36 71 72
f 36 72 73
f 36 73 37
f 37 73 74
f 37 74 75
f 37 75 56
f 42 76 43
f 42 60 76
f 43 76 77
f 43 77 78
f 43 78 79
f 43 79 61
f 48 59 80
f 48 80 81
f 48 81 49
f 49 81 82
f 49 82 83
f 49 83 84
f 49 84 50
f 50 84 85
f 50 85 51
f 51 85 52
f 52 85 86
f 52 86 53
f 53 86 54
f 54 86 87
f 54 87 88
f 56 75 74
f 56 74 89
f 56 89 90
f 56 90 91
f 56 91 57
f 57 91 58
f 58 91 92
f 58 92 93
f 58 93 59
f 59 94 80
f 59 93 95
f 59 95 96
f 59 96 94
f 60 97 76
f 61 79 98
f 61 98 99
f 61 99 100
f 61 100 101
f 61 101 62
f 62 101 102
f 62 102 63
f 63 102 64
f 64 102 65
f 65 102 66
f 66 103 104
f 66 104 67
f 66 102 103
f 67 104 68
f 68 104 105
f 68 105 106
f 68 106 69
f 69 106 107
f 69 107 71
f 69 71 70
f 71 107 108
f 71 108 72
f 72 108 74
f 72 74 73
f 74 108 109
f 74 109 89
f 76 97 77
f 77 97 110
f 77 110 78
f 78 110 111
f 78 111 79
f 79 111 112
f 79 112 98
f 80 94 82
f 80 82 81
f 82 113 114
f 82 114 115
f 82 115 84
f 82 84 83
f 82 94 116
f 82 116 117
f 82 117 118
f 82 118 113
f 84 115 87
f 84 87 85
f 85 87 86
f 87 119 88
f 87 115 114
f 87 114 120
f 87 120 121
f 87 121 119
f 88 119 122
f 89 109 123
f 89 123 124
f 89 124 125
f 89 125 126
f 89 126 90
f 90 126 127
f 90 127 128
f 90 128 91
f 91 129 92
f 91 128 180
f 91 180 129
f 92 129 130
f 92 130 131
f 92 131 95
f 92 95 93
f 94 96 131
f 94 131 116
f 95 131 96
f 97 132 110
f 98 112 133
f 98 133 134
f 98 134 135
f 98 135 99
f 99 135 100
f 100 135 136
f 100 136 137
f 100 137 101
f 101 137 102
f 102 137 138
f 102 138 139
f 102 139 140
f 102 140 141
f 102 141 103
f 103 141 104
f 104 141 142
f 104 142 143
f 104 143 144
f 104 144 145
f 104 145 146
f 104 146 106
f 104 106 105
f 106 146 147
f 106 147 148
f 106 148 149
f 106 149 107
f 107 149 108
f 108 149 109
f 109 149 150
f 109 150 123
f 110 132 151
f 110 151 152
f 110 152 153
f 110 153 112
f 110 112 111
f 112 153 154
f 112 154 133
f 113 155 114
f 113 118 155
f 114 155 156
f 114 156 120
f 116 131 117
f 117 131 130
f 117 130 118
f 118 130 157
f 118 157 158
f 118 158 159
f 118 159 156
f 118 156 155
f 119 121 160
f 119 160 161
f 119 161 122
f 120 156 159
f 120 159 162
f 120 162 163
f 120 163 164
f 120 164 165
f 120 165 161
f 120 161 160
f 120 160 121
f 122 166 151
f 122 151 167
f 122 161 168
f 122 168 169
f 122 169 170
f 122 170 166
f 123 150 171
f 123 171 124
f 124 171 172
f 124 172 173
f 124 173 174
f 124 174 125
f 125 175 126
f 125 174 176
f 125 176 175
f 126 175 127
f 127 175 177
f 127 177 178
f 127 178 128
f 128 178 179
f 128 179 180
f 129 180 157
f 129 157 130
f 132 181 182
f 132 182 151
f 133 154 134
f 134 154 153
f 134 153 183
f 134 183 184
f 134 184 185
f 134 185 135
f 135 185 186
f 135 186 136
f 136 186 137
f 137 186 138
f 138 186 187
f 138 187 188
f 138 188 189
f 138 189 142
f 138 142 139
f 139 142 140
f 140 142 141
f 142 189 190
f 142 190 191
f 142 191 143
f 143 191 192
f 143 192 144
f 144 192 193
f 144 193 145
f 145 193 150
f 145 150 146
f 146 150 149
f 146 149 148
f 146 148 147
f 150 193 192
f 150 192 171
f 151 182 167
f 151 166 183
f 151 183 152
f 152 183 153
f 157 180 179
f 157 179 158
f 158 179 194
f 158 194 195
f 158 195 159
f 159 195 162
f 161 165 168
f 162 195 196
f 162 196 163
f 163 196 197
f 163 197 198
f 163 198 164
f 164 199 165
f 164 198 200
f 164 200 201
f 164 201 199
f 165 199 202
f 165 202 170
f 165 170 168
f 166 170 203
f 166 203 183
f 167 182 181
f 168 170 169
f 170 204 205
f 170 205 183
f 170 183 203
f 170 202 199
f 170 199 206
f 170 206 207
f 170 207 208
f 170 208 209
f 170 209 210
f 170 210 211
f 170 211 212
f 170 212 213
f 170 213 188
f 170 188 204
f 171 192 191
f 171 191 172
f 172 191 214
f 172 214 173
f 173 214 215
f 173 215 216
f 173 216 174
f 174 217 176
f 174 216 218
f 174 218 217
f 175 176 219
f 175 219 220
f 175 220 221
f 175 221 177
f 176 217 218
f 176 218 222
f 176 222 219
f 177 221 178
f 178 223 194
f 178 194 179
f 178 221 223
f 183 205 224
f 183 224 184
f 184 224 185
f 185 205 186
f 185 224 205
f 186 205 225
f 186 225 226
f 186 226 187
f 187 227 188
f 187 226 204
f 187 204 227
f 188 228 229
f 188 229 230
f 188 230 189
f 188 227 204
f 188 213 228
f 189 230 190
f 190 230 229
f 190 229 214
f 190 214 191
f 194 231 195
f 194 223 231
f 195 231 196
f 196 231 232
f 196 232 197
f 197 232 233
f 197 233 198
f 198 233 234
f 198 234 200
f 199 201 206
f 200 234 201
f 201 234 235
f 201 235 206
f 204 226 225
f 204 225 205
f 206 235 236
f 206 236 207
f 207 236 237
f 207 237 238
f 207 238 239
f 207 239 240
f 207 240 208
f 208 240 241
f 208 241 209
f 209 241 242
f 209 242 210
f 210 242 211
f 211 242 212
f 212 242 243
f 212 243 244
f 212 244 213
f 213 244 228
f 214 229 215
f 215 229 245
f 215 245 216
f 216 245 246
f 216 246 247
f 216 247 218
f 218 247 248
f 218 248 222
f 219 222 248
f 219 248 249
f 219 249 220
f 220 249 250
f 220 250 223
f 220 223 221
f 223 250 231
f 228 244 251
f 228 251 229
f 229 251 245
f 231 250 252
f 231 252 232
f 232 253 233
f 232 252 254
f 232 254 255
f 232 255 253
f 233 253 234
f 234 253 256
f 234 256 241
f 234 241 238
f 234 238 237
f 234 237 236
f 234 236 235
f 238 241 239
f 239 241 240
f 241 256 257
f 241 257 258
f 241 258 242
f 242 258 246
f 242 246 245
f 242 245 243
f 243 245 244
f 244 245 251
f 246 258 257
f 246 257 259
f 246 259 255
f 246 255 247
f 247 255 248
f 248 255 254
f 248 254 249
f 249 254 252
f 249 252 250
f 253 255 256
f 255 259 256
f 256 259 257

