# https://github.com/mikedh/trimesh
v 0.04315124 -0.00226189 0.00755346
v 0.04636476 -0.00226189 0.00755346
v 0.04368850 -0.00226189 0.02644075
v 0.04020333 0.00014236 -0.03182117
v 0.04636677 -0.00226189 0.00758645
v 0.04610116 0.00014236 -0.03182117
v 0.04631043 0.00014236 -0.03129332
v 0.04643116 0.00014236 -0.03063350
v 0.04649958 0.00014236 -0.03025410
v 0.04377905 -0.00226189 0.02959962
v 0.02705747 0.03004883 -0.03182117
v 0.04379716 -0.00226189 0.03019346
v 0.04741916 -0.00021199 0.00126870
v 0.04695434 -0.00226189 0.03019346
v 0.04624805 0.00066436 -0.03182117
v 0.04626817 0.00052338 -0.03167271
v 0.04634464 0.00155976 -0.03167271
v 0.04650964 0.00155976 -0.02647664
v 0.04655592 0.00052338 -0.02751586
v 0.03551686 0.03004883 -0.03182117
v 0.03068350 0.03233496 0.04970757
v 0.03077606 0.03595087 0.03298944
v 0.03000136 0.03666338 -0.00985748
v 0.03000136 0.03657955 -0.01061627
v 0.04621384 0.00019570 0.05242932
v 0.04514334 0.00019570 0.05217364
v 0.04465236 0.00019570 0.05192621
v 0.04452760 0.00019570 0.05143960
v 0.04437467 0.00019570 0.05036739
v 0.03073179 0.03233496 0.05036739
v 0.04749764 0.00260758 0.05036739
v 0.04756203 0.00156738 0.05036739
v 0.04760630 0.00053100 0.05036739
v 0.04761435 0.00019570 0.05036739
v 0.04760831 0.00013855 0.04970757
v 0.04645732 0.00259995 -0.02543743
v 0.04733868 0.00052719 0.00052640
v 0.04740910 0.00364396 0.05036739
v 0.04746343 0.00019570 0.05139835
v 0.04702477 0.00019570 0.05216540
v 0.04631445 0.00155976 -0.03182117
v 0.04632451 0.00170455 -0.03182117
v 0.03639017 0.02912294 -0.03124383
v 0.03846879 0.02602523 -0.03182117
v 0.03028508 0.03649192 -0.00985748
v 0.03245627 0.03452965 -0.00673984
v 0.03356500 0.03349327 -0.00466967
v 0.03455904 0.03251404 -0.00363045
v 0.03090485 0.03233496 0.05128289
v 0.03106180 0.03233496 0.05175301
v 0.03131534 0.03233496 0.05195095
v 0.03171175 0.03233496 0.05217364
v 0.03269371 0.03233496 0.05235509
v 0.03377629 0.03233496 0.05226436
v 0.03449465 0.03233496 0.05204993
v 0.03492728 0.03233496 0.05135712
v 0.03511643 0.03233496 0.05036739
v 0.04621384 0.00053100 0.05242932
v 0.04517755 0.00780472 0.05243757
v 0.03687712 0.02751122 0.05243757
v 0.03376422 0.03166436 0.05241283
v 0.03120064 0.03222066 0.05184373
v 0.04726422 0.00364396 0.05139835
v 0.04734471 0.00260758 0.05139835
v 0.04740307 0.00156738 0.05139835
v 0.04745337 0.00053100 0.05139835
v 0.04635067 0.00364015 -0.02440647
v 0.04675513 0.00526711 -0.00422429
v 0.04728636 0.00468415 0.05036739
v 0.04715355 0.00468415 0.05139835
v 0.04728233 0.00468415 0.04970757
v 0.04702074 0.00053100 0.05216540
v 0.04328606 0.01402682 -0.03182117
v 0.04571883 0.00940883 -0.01878152
v 0.03739628 0.02804846 -0.02911592
v 0.03848288 0.02604428 -0.03167271
v 0.03655718 0.03034602 -0.00051281
v 0.03876861 0.02544226 -0.03182117
v 0.03480252 0.03062798 0.05240458
v 0.03481057 0.03167198 0.05216540
v 0.03547259 0.03132525 0.05203343
v 0.03518283 0.03204157 0.05139835
v 0.03565369 0.03151957 0.05139835
v 0.03574625 0.03163007 0.05036739
v 0.04517755 0.00884111 0.05243757
v 0.04621384 0.00260758 0.05239633
v 0.04205860 0.01816092 0.05242932
v 0.03791744 0.02647483 0.05241283
v 0.04676519 0.00644066 0.05195095
v 0.04681349 0.00572434 0.05200869
v 0.04687989 0.00468415 0.05206642
v 0.04692617 0.00364396 0.05209117
v 0.04696038 0.00260758 0.05212416
v 0.04699056 0.00156738 0.05214890
v 0.04591402 0.00987749 -0.00881827
v 0.04684367 0.00780472 0.05036739
v 0.04700465 0.00676453 0.05036739
v 0.04714751 0.00572434 0.05036739
v 0.04674306 0.00836483 0.05092824
v 0.04679537 0.00780472 0.05111793
v 0.04702275 0.00572434 0.05139835
v 0.04621384 0.00364396 0.05237983
v 0.04369856 0.01675876 -0.01610101
v 0.04467449 0.01457169 -0.01356071
v 0.04577719 0.01059762 -0.00961830
v 0.03850300 0.02607095 -0.03088093
v 0.03750293 0.02919914 0.00071610
v 0.03844263 0.02805227 0.00188727
v 0.04052730 0.02495455 0.00613485
v 0.04167024 0.02200925 -0.00570063
v 0.04264214 0.01984123 -0.00777906
v 0.04156359 0.02080522 -0.02083520
v 0.03877867 0.02544226 -0.03167271
v 0.04056150 0.02601761 0.03166980
v 0.04265422 0.01881247 -0.01817119
v 0.03584284 0.02958779 0.05237983
v 0.03583077 0.03059369 0.05214065
v 0.03644248 0.03022029 0.05199219
v 0.03617486 0.03091756 0.05139835
v 0.03626541 0.03103186 0.05036739
v 0.04621384 0.00468415 0.05233860
v 0.04517755 0.00988130 0.05238808
v 0.04413723 0.01298663 0.05240458
v 0.04309691 0.01610340 0.05241283
v 0.04205860 0.01920111 0.05238808
v 0.03998199 0.02335426 0.05237983
v 0.03895374 0.02543464 0.05234684
v 0.03687712 0.02855141 0.05232210
v 0.04572286 0.01153875 0.05195095
v 0.04579329 0.01091768 0.05201693
v 0.04590798 0.00988130 0.05210766
v 0.04686379 0.00677977 0.05145609
v 0.04669879 0.00713031 0.05184373
v 0.04600859 0.00884111 0.05215715
v 0.04621384 0.00572434 0.05227262
v 0.04674104 0.00835721 0.05036739
v 0.04573091 0.01258275 0.05101896
v 0.04580335 0.01191596 0.05137361
v 0.04602872 0.01091768 0.05139835
v 0.04626214 0.00988130 0.05139835
v 0.04652976 0.00876109 0.05132413
v 0.04477108 0.01798184 0.04101447
v 0.04592006 0.01195406 0.05036739
v 0.04376295 0.01701785 -0.01089670
v 0.04373679 0.01891153 0.01298046
v 0.04468455 0.01666731 0.01525683
v 0.04063193 0.02414679 -0.00258299
v 0.03844867 0.02805989 0.00260483
v 0.04178494 0.02423442 0.03375648
v 0.04262202 0.02290084 0.03510086
v 0.04368448 0.02086237 0.03790508
v 0.03667188 0.03051368 0.05036739
v 0.03719103 0.02983164 0.05036739
v 0.03757939 0.02931345 0.05036739
v 0.03810056 0.02861618 0.05036739
v 0.03682481 0.02948110 0.05207467
v 0.03795970 0.02754170 0.05219839
v 0.03859154 0.02721402 0.05204168
v 0.03740030 0.02907722 0.05192621
v 0.03658535 0.03040318 0.05139835
v 0.04517755 0.01091768 0.05228911
v 0.04413723 0.01403444 0.05234684
v 0.04309691 0.01713597 0.05233035
v 0.04283532 0.01920111 0.05210766
v 0.04211092 0.02026035 0.05219013
v 0.04106054 0.02231407 0.05218189
v 0.04073254 0.02335426 0.05209941
v 0.04000815 0.02437159 0.05216540
v 0.03966405 0.02543464 0.05207467
v 0.03894167 0.02642149 0.05213240
v 0.04473285 0.01476601 0.05199219
v 0.04483748 0.01403444 0.05207467
v 0.04561018 0.01223602 0.05170352
v 0.04497431 0.01298663 0.05214890
v 0.04574701 0.01263990 0.05036739
v 0.04471876 0.01576048 0.05109319
v 0.04483949 0.01509750 0.05142310
v 0.04366435 0.02080903 0.03852366
v 0.04362612 0.01870197 0.05091999
v 0.04262202 0.02290084 0.03552149
v 0.03847885 0.02809037 0.05036739
v 0.03887929 0.02751122 0.05036739
v 0.04049309 0.02490502 0.05036739
v 0.04080297 0.02437921 0.05036739
v 0.04132414 0.02346856 0.05036739
v 0.04157969 0.02291608 0.05099422
v 0.03846276 0.02807132 0.05098597
v 0.03951515 0.02604047 0.05197570
v 0.03833397 0.02791129 0.05167053
v 0.03871428 0.02754170 0.05135712
v 0.03748884 0.02919914 0.05139835
v 0.04394607 0.01610340 0.05214890
v 0.04313715 0.01813044 0.05215715
v 0.04179902 0.02128149 0.05210766
v 0.04376698 0.01713597 0.05205817
v 0.04366234 0.01776847 0.05196745
v 0.04268038 0.01992124 0.05200869
v 0.04162597 0.02196733 0.05200869
v 0.04057358 0.02400962 0.05199219
v 0.04458998 0.01545947 0.05178600
v 0.04373881 0.01813044 0.05131588
v 0.04260592 0.02082046 0.05099422
v 0.04277495 0.02026035 0.05135712
v 0.04331825 0.01911348 0.05131588
v 0.04351142 0.01845812 0.05161280
v 0.03934813 0.02680632 0.05036739
v 0.03960771 0.02619288 0.05139835
v 0.04143481 0.02266080 0.05169527
v 0.04248922 0.02061852 0.05168703
v 0.03927167 0.02671107 0.05139835
f 1 2 5
f 1 5 14
f 1 14 12
f 1 12 10
f 1 10 3
f 1 3 4
f 1 4 6
f 1 6 2
f 2 6 7
f 2 7 8
f 2 8 9
f 2 9 5
f 3 10 4
f 4 11 20
f 4 20 44
f 4 44 78
f 4 78 73
f 4 73 42
f 4 42 41
f 4 41 15
f 4 15 6
f 4 10 12
f 4 12 11
f 5 9 13
f 5 13 14
f 6 15 16
f 6 16 7
f 7 16 17
f 7 17 8
f 8 17 9
f 9 17 18
f 9 18 19
f 9 19 13
f 11 12 21
f 11 21 22
f 11 22 23
f 11 23 24
f 11 24 20
f 12 14 25
f 12 25 26
f 12 26 27
f 12 27 28
f 12 28 29
f 12 29 30
f 12 30 21
f 13 31 32
f 13 32 33
f 13 33 34
f 13 34 35
f 13 35 14
f 13 19 18
f 13 18 36
f 13 36 37
f 13 37 38
f 13 38 31
f 14 35 34
f 14 34 39
f 14 39 40
f 14 40 25
f 15 41 16
f 16 41 17
f 17 41 42
f 17 42 36
f 17 36 18
f 20 43 44
f 20 24 45
f 20 45 46
f 20 46 47
f 20 47 48
f 20 48 43
f 21 30 22
f 22 45 23
f 22 30 49
f 22 49 50
f 22 50 51
f 22 51 52
f 22 52 53
f 22 53 54
f 22 54 55
f 22 55 56
f 22 56 57
f 22 57 45
f 23 45 24
f 25 58 85
f 25 85 59
f 25 59 60
f 25 60 61
f 25 61 53
f 25 53 52
f 25 52 26
f 25 40 58
f 26 52 27
f 27 62 50
f 27 50 49
f 27 49 28
f 27 52 51
f 27 51 62
f 28 49 30
f 28 30 29
f 31 38 63
f 31 63 64
f 31 64 32
f 32 64 65
f 32 65 66
f 32 66 33
f 33 66 39
f 33 39 34
f 36 42 67
f 36 67 68
f 36 68 37
f 37 68 38
f 38 69 70
f 38 70 63
f 38 68 71
f 38 71 69
f 39 66 72
f 39 72 40
f 40 72 58
f 42 73 74
f 42 74 67
f 43 75 76
f 43 76 44
f 43 48 77
f 43 77 75
f 44 76 78
f 45 57 46
f 46 57 47
f 47 57 48
f 48 57 77
f 50 62 51
f 53 61 54
f 54 61 79
f 54 79 80
f 54 80 55
f 55 80 81
f 55 81 82
f 55 82 56
f 56 82 83
f 56 83 57
f 57 83 84
f 57 84 77
f 58 72 86
f 58 86 85
f 59 85 60
f 60 85 87
f 60 87 88
f 60 88 79
f 60 79 61
f 63 70 89
f 63 89 90
f 63 90 91
f 63 91 64
f 64 91 92
f 64 92 65
f 65 92 93
f 65 93 66
f 66 93 94
f 66 94 72
f 67 74 68
f 68 95 96
f 68 96 97
f 68 97 98
f 68 98 71
f 68 74 95
f 69 71 98
f 69 98 99
f 69 99 100
f 69 100 101
f 69 101 70
f 70 101 89
f 72 94 102
f 72 102 86
f 73 78 103
f 73 103 104
f 73 104 74
f 74 104 105
f 74 105 95
f 75 106 76
f 75 77 107
f 75 107 108
f 75 108 109
f 75 109 106
f 76 106 110
f 76 110 111
f 76 111 112
f 76 112 113
f 76 113 78
f 77 84 114
f 77 114 107
f 78 113 115
f 78 115 103
f 79 116 80
f 79 88 116
f 80 116 117
f 80 117 81
f 81 117 118
f 81 118 119
f 81 119 83
f 81 83 82
f 83 119 120
f 83 120 84
f 84 120 114
f 85 86 102
f 85 102 121
f 85 121 122
f 85 122 123
f 85 123 124
f 85 124 87
f 87 124 125
f 87 125 88
f 88 125 126
f 88 126 127
f 88 127 128
f 88 128 116
f 89 129 130
f 89 130 131
f 89 131 90
f 89 101 132
f 89 132 133
f 89 133 129
f 90 131 134
f 90 134 91
f 91 134 135
f 91 135 121
f 91 121 93
f 91 93 92
f 93 121 102
f 93 102 94
f 95 105 96
f 96 136 99
f 96 99 97
f 96 105 136
f 97 99 98
f 99 137 138
f 99 138 139
f 99 139 140
f 99 140 141
f 99 141 133
f 99 133 100
f 99 136 142
f 99 142 143
f 99 143 137
f 100 133 132
f 100 132 101
f 103 115 111
f 103 111 144
f 103 144 104
f 104 144 145
f 104 145 146
f 104 146 105
f 105 146 142
f 105 142 136
f 106 109 147
f 106 147 110
f 107 114 148
f 107 148 108
f 108 148 114
f 108 114 149
f 108 149 109
f 109 149 150
f 109 150 110
f 109 110 147
f 110 150 111
f 111 150 151
f 111 151 145
f 111 145 144
f 111 115 112
f 112 115 113
f 114 120 152
f 114 152 153
f 114 153 154
f 114 154 155
f 114 155 149
f 116 128 117
f 117 156 118
f 117 128 157
f 117 157 156
f 118 156 158
f 118 158 159
f 118 159 119
f 119 160 120
f 119 159 160
f 120 160 152
f 121 135 134
f 121 134 122
f 122 161 162
f 122 162 123
f 122 134 131
f 122 131 161
f 123 162 124
f 124 162 163
f 124 163 125
f 125 163 164
f 125 164 165
f 125 165 126
f 126 165 166
f 126 166 167
f 126 167 127
f 127 167 168
f 127 168 169
f 127 169 170
f 127 170 128
f 128 170 157
f 129 171 172
f 129 172 130
f 129 133 141
f 129 141 140
f 129 140 139
f 129 139 138
f 129 138 173
f 129 173 171
f 130 172 131
f 131 172 174
f 131 174 161
f 137 143 175
f 137 175 142
f 137 142 176
f 137 176 177
f 137 177 173
f 137 173 138
f 142 146 151
f 142 151 178
f 142 178 179
f 142 179 176
f 142 175 143
f 145 151 146
f 149 180 150
f 149 155 181
f 149 181 182
f 149 182 180
f 150 180 151
f 151 180 183
f 151 183 184
f 151 184 185
f 151 185 186
f 151 186 178
f 152 160 187
f 152 187 153
f 153 187 154
f 154 187 155
f 155 187 181
f 156 157 158
f 157 170 158
f 158 170 188
f 158 188 159
f 159 188 189
f 159 189 190
f 159 190 187
f 159 187 191
f 159 191 160
f 160 191 187
f 161 174 162
f 162 174 172
f 162 172 192
f 162 192 163
f 163 192 193
f 163 193 164
f 164 194 165
f 164 193 195
f 164 195 196
f 164 196 197
f 164 197 194
f 165 194 166
f 166 194 167
f 167 194 198
f 167 198 199
f 167 199 169
f 167 169 168
f 169 199 188
f 169 188 170
f 171 173 177
f 171 177 200
f 171 200 196
f 171 196 195
f 171 195 172
f 172 195 192
f 176 179 201
f 176 201 196
f 176 196 200
f 176 200 177
f 178 186 202
f 178 202 179
f 179 202 203
f 179 203 204
f 179 204 205
f 179 205 201
f 180 182 206
f 180 206 183
f 181 187 182
f 182 187 206
f 183 206 207
f 183 207 184
f 184 207 186
f 184 186 185
f 186 207 188
f 186 188 208
f 186 208 209
f 186 209 203
f 186 203 202
f 187 190 210
f 187 210 207
f 187 207 206
f 188 199 208
f 188 207 210
f 188 210 190
f 188 190 189
f 192 195 193
f 194 197 198
f 196 201 205
f 196 205 197
f 197 205 209
f 197 209 208
f 197 208 198
f 198 208 199
f 203 209 205
f 203 205 204

