# https://github.com/mikedh/trimesh
v -0.04760582 -0.00094014 0.04970404
v -0.04437504 -0.00094014 0.04970404
v -0.04761591 -0.00094014 0.04993404
v -0.04639100 -0.00090806 0.00754395
v -0.04437504 -0.00094014 0.04975712
v -0.04317434 -0.00090806 0.00754395
v -0.04763407 -0.00094014 0.05035864
v -0.04658876 -0.00048753 -0.02752164
v -0.04648584 -0.00048753 -0.03060005
v -0.04593494 -0.00078689 -0.00980308
v -0.04438513 -0.00094014 0.05035864
v -0.04243576 -0.00078689 -0.00980308
v -0.03698722 -0.00048753 -0.03792454
v -0.04764215 -0.00051247 0.05035864
v -0.04747466 0.00052818 0.00156405
v -0.04739595 -0.00021311 0.00082983
v -0.04748273 -0.00094014 0.05140247
v -0.04749483 -0.00051247 0.05140247
v -0.04660491 0.00052105 -0.02854777
v -0.04657262 0.00052105 -0.02959160
v -0.04648181 -0.00048753 -0.03063543
v -0.04655849 0.00156170 -0.02959160
v -0.04631028 -0.00048753 -0.03164388
v -0.04503694 -0.00048753 -0.03792454
v -0.03090302 0.03103491 0.05035864
v -0.04453648 -0.00094014 0.05139363
v -0.02718389 0.02425286 -0.03792454
v -0.04749483 0.00052818 0.05140247
v -0.04764013 0.00052818 0.05035864
v -0.04745044 0.00156526 0.00156405
v -0.04702263 -0.00094014 0.05216323
v -0.04703070 -0.00051247 0.05216323
v -0.04703272 0.00052818 0.05216323
v -0.04619929 0.00364300 -0.03167041
v -0.04572709 0.00571717 -0.03435960
v -0.04504501 0.00052105 -0.03792454
v -0.04504501 0.00051036 -0.03792454
v -0.03105639 0.03103491 0.05119017
v -0.03063867 0.03114539 0.04692639
v -0.03010390 0.03544341 0.03299393
v -0.04468177 -0.00094014 0.05187131
v -0.02718389 0.03534006 -0.03792454
v -0.02702649 0.02907834 -0.03196233
v -0.04700447 0.00156526 0.05214553
v -0.04744439 0.00156526 0.05140247
v -0.04760179 0.00156526 0.05035864
v -0.04752107 0.00260591 0.05035864
v -0.04741008 0.00364656 0.05035864
v -0.04728295 0.00468365 0.05035864
v -0.04714573 0.00572074 0.05035864
v -0.04677644 0.00531089 -0.00223089
v -0.04621544 -0.00094014 0.05242861
v -0.04621544 -0.00051247 0.05243745
v -0.04621544 0.00052818 0.05243745
v -0.04621544 0.00260591 0.05240207
v -0.04621544 0.00364656 0.05237553
v -0.04570691 0.00625532 -0.03432422
v -0.04491384 0.00883199 -0.03790685
v -0.04490980 0.00883199 -0.03792454
v -0.03129047 0.03103491 0.05180939
v -0.02718389 0.03546836 -0.03196233
v -0.02961959 0.03543272 -0.00686620
v -0.03048732 0.03507277 -0.00686620
v -0.03132680 0.03442058 -0.00673351
v -0.03524167 0.03103491 0.05035864
v -0.03506208 0.03103491 0.05140247
v -0.03497530 0.03103491 0.05155285
v -0.03458785 0.03103491 0.05207477
v -0.03438403 0.03103491 0.05216323
v -0.03376653 0.03103491 0.05231361
v -0.03335890 0.03103491 0.05240207
v -0.03214206 0.03103491 0.05222515
v -0.03180304 0.03103491 0.05211900
v -0.03145998 0.03103491 0.05195977
v -0.04516407 -0.00094014 0.05216323
v -0.02939963 0.03444553 -0.03792454
v -0.04692375 0.00364656 0.05209247
v -0.04688137 0.00468365 0.05206592
v -0.04735156 0.00260591 0.05140247
v -0.04725268 0.00364656 0.05140247
v -0.04714976 0.00468365 0.05140247
v -0.04701859 0.00572074 0.05140247
v -0.04677644 0.00749554 0.05106632
v -0.04696613 0.00676139 0.05035864
v -0.04654235 0.00883912 0.05035864
v -0.04579772 0.00969802 -0.00673351
v -0.04517214 0.00779847 0.05244630
v -0.04517214 0.00883912 0.05241092
v -0.04621544 0.00468365 0.05233130
v -0.04477258 0.00968732 -0.03790685
v -0.04477057 0.00968376 -0.03792454
v -0.02993036 0.03419606 -0.03792454
v -0.03117343 0.03324807 -0.03742032
v -0.03244274 0.03345121 -0.00466354
v -0.03619012 0.02990159 0.05035864
v -0.03557666 0.03042192 0.05140247
v -0.03514078 0.03094225 0.05140247
v -0.03654327 0.02926010 0.00156405
v -0.03967113 0.02620230 0.03166702
v -0.04060748 0.02504404 0.03374583
v -0.03739687 0.02804126 0.05192439
v -0.03641815 0.02914606 0.05196862
v -0.03543136 0.03024729 0.05201285
v -0.03479772 0.03060368 0.05215439
v -0.03479974 0.02958798 0.05239322
v -0.03688027 0.02647672 0.05241092
v -0.03895273 0.02335833 0.05241976
v -0.04681478 0.00572074 0.05200400
v -0.04621544 0.00572074 0.05226938
v -0.04596117 0.00883912 0.05213669
v -0.04675827 0.00635867 0.05194208
v -0.04684101 0.00672931 0.05140247
v -0.04630826 0.00987621 0.05035864
v -0.04639302 0.00883912 0.05140247
v -0.04616701 0.00987621 0.05140247
v -0.04365462 0.01979090 0.03998227
v -0.04469993 0.01361115 -0.01088229
v -0.04515398 0.01195751 -0.00984731
v -0.04309766 0.01507233 0.05241976
v -0.04413692 0.01299103 0.05236669
v -0.04517214 0.00987621 0.05234015
v -0.04060748 0.02035755 -0.03792454
v -0.04473626 0.01266316 -0.01712757
v -0.04468985 0.01360758 -0.01151036
v -0.04375754 0.01593835 -0.01400493
v -0.03062252 0.03364366 -0.03792454
v -0.04025029 0.02115229 -0.03792454
v -0.03972966 0.02220720 -0.03687187
v -0.03946328 0.02284157 -0.03603150
v -0.03329231 0.03122379 -0.03438614
v -0.03336092 0.03127368 -0.03374923
v -0.03437798 0.03023660 -0.03247540
v -0.03661390 0.02938483 0.05035864
v -0.03705180 0.02864711 0.05140247
v -0.03652914 0.02928148 0.05140247
v -0.03706391 0.02864711 0.00156405
v -0.03639999 0.02809828 -0.02936160
v -0.03748567 0.02815530 0.00260788
v -0.04058730 0.02504404 0.03299393
v -0.04261738 0.02186507 0.03722232
v -0.04261738 0.02186507 0.03767346
v -0.03842806 0.02699348 0.05064172
v -0.03753006 0.02821232 0.05035864
v -0.03713454 0.02873265 0.05035864
v -0.03746952 0.02812323 0.05140247
v -0.03956822 0.02507255 0.05140247
v -0.03948144 0.02494782 0.05194208
v -0.03854914 0.02613815 0.05202169
v -0.03755831 0.02751380 0.05203054
v -0.03680964 0.02845110 0.05205708
v -0.03580065 0.02952739 0.05211015
v -0.03688027 0.02751380 0.05230477
v -0.03583899 0.02855445 0.05235784
v -0.03791550 0.02543963 0.05239322
v -0.03997989 0.02232481 0.05236669
v -0.04206042 0.01816933 0.05239322
v -0.04585422 0.00987621 0.05206592
v -0.04666948 0.00705362 0.05174747
v -0.04576543 0.01065670 0.05198631
v -0.04575735 0.01163320 0.05112825
v -0.04602575 0.01091330 0.05035864
v -0.04565847 0.01134809 0.05182708
v -0.04587238 0.01097032 0.05144670
v -0.04365462 0.01976238 0.04058380
v -0.04262747 0.01878232 -0.00984731
v -0.04375754 0.01794125 0.01505422
v -0.04380799 0.01920999 0.04096418
v -0.04309766 0.01610942 0.05234900
v -0.04400575 0.01507233 0.05216323
v -0.04487348 0.01299103 0.05209247
v -0.04276671 0.01798758 -0.01609259
v -0.04377167 0.01600963 -0.01296995
v -0.03757244 0.02622725 -0.03167041
v -0.03831304 0.02483377 -0.03374923
v -0.04160032 0.02085649 -0.00777734
v -0.04055501 0.02291641 -0.00535353
v -0.04050658 0.02388222 0.00829586
v -0.03947539 0.02493000 -0.00312434
v -0.04012114 0.02439542 0.05035864
v -0.03963683 0.02518303 0.05035864
v -0.03996979 0.02439542 0.05140247
v -0.04157611 0.02186150 0.05098671
v -0.04069021 0.02318014 0.05140247
v -0.04057519 0.02298412 0.05198631
v -0.03963279 0.02439542 0.05204823
v -0.03891439 0.02535410 0.05209247
v -0.03793769 0.02648028 0.05218092
v -0.03895273 0.02439542 0.05231361
v -0.04000410 0.02334051 0.05216323
v -0.04182230 0.02024707 0.05211015
v -0.04212096 0.01924919 0.05218976
v -0.04284945 0.01816933 0.05212784
v -0.04475644 0.01382854 0.05202169
v -0.04464545 0.01452350 0.05188900
v -0.04474029 0.01477297 0.05119902
v -0.04507326 0.01403525 0.05035864
v -0.04540219 0.01299103 0.05035864
v -0.04578359 0.01172229 0.05035864
v -0.04487954 0.01412078 0.05149093
v -0.04477460 0.01487275 0.05035864
v -0.04364453 0.01770247 0.05097786
v -0.04262546 0.01981941 0.05106632
v -0.04354162 0.01653352 -0.01296995
v -0.04379790 0.01610942 0.05207477
v -0.04175772 0.02129485 0.05135824
v -0.04164068 0.02095628 0.05201285
v -0.04073663 0.02232481 0.05208361
v -0.04143485 0.02164767 0.05167670
v -0.04250639 0.01961983 0.05175631
v -0.04269406 0.01892487 0.05202169
v -0.04367682 0.01677586 0.05198631
v -0.04351942 0.01744587 0.05167670
v -0.04376965 0.01713225 0.05135824
v -0.04333982 0.01809806 0.05135824
v -0.04280505 0.01924919 0.05140247
f 1 2 5
f 1 5 11
f 1 11 26
f 1 26 41
f 1 41 75
f 1 75 52
f 1 52 31
f 1 31 17
f 1 17 7
f 1 7 3
f 1 3 4
f 1 4 6
f 1 6 2
f 2 6 5
f 3 7 4
f 4 7 8
f 4 8 9
f 4 9 10
f 4 10 12
f 4 12 6
f 5 6 11
f 6 12 13
f 6 13 11
f 7 14 15
f 7 15 16
f 7 16 8
f 7 17 18
f 7 18 14
f 8 16 15
f 8 15 19
f 8 19 20
f 8 20 9
f 9 21 10
f 9 20 22
f 9 22 21
f 10 21 23
f 10 23 24
f 10 24 13
f 10 13 12
f 11 13 25
f 11 25 26
f 13 24 37
f 13 37 36
f 13 36 59
f 13 59 91
f 13 91 122
f 13 122 127
f 13 127 126
f 13 126 92
f 13 92 76
f 13 76 42
f 13 42 27
f 13 27 25
f 14 18 28
f 14 28 29
f 14 29 15
f 15 22 19
f 15 29 30
f 15 30 22
f 17 31 18
f 18 31 32
f 18 32 33
f 18 33 28
f 19 22 20
f 21 22 34
f 21 34 35
f 21 35 23
f 22 30 34
f 23 35 36
f 23 36 37
f 23 37 24
f 25 38 26
f 25 27 39
f 25 39 40
f 25 40 38
f 26 38 41
f 27 42 43
f 27 43 39
f 28 33 44
f 28 44 45
f 28 45 46
f 28 46 29
f 29 46 30
f 30 46 47
f 30 47 48
f 30 48 49
f 30 49 50
f 30 50 51
f 30 51 34
f 31 52 53
f 31 53 32
f 32 53 33
f 33 53 54
f 33 54 55
f 33 55 56
f 33 56 44
f 34 57 35
f 34 51 57
f 35 57 58
f 35 58 36
f 36 58 59
f 38 40 60
f 38 60 41
f 39 43 40
f 40 43 61
f 40 61 62
f 40 62 63
f 40 63 64
f 40 64 65
f 40 65 66
f 40 66 67
f 40 67 68
f 40 68 69
f 40 69 70
f 40 70 71
f 40 71 72
f 40 72 73
f 40 73 74
f 40 74 60
f 41 60 74
f 41 74 75
f 42 76 62
f 42 62 61
f 42 61 43
f 44 56 77
f 44 77 45
f 45 77 78
f 45 78 79
f 45 79 47
f 45 47 46
f 47 79 80
f 47 80 81
f 47 81 48
f 48 81 49
f 49 81 82
f 49 82 50
f 50 82 83
f 50 83 84
f 50 84 51
f 51 84 85
f 51 85 86
f 51 86 57
f 52 72 71
f 52 71 53
f 52 75 72
f 53 87 54
f 53 71 87
f 54 87 55
f 55 87 56
f 56 87 88
f 56 88 89
f 56 89 78
f 56 78 77
f 57 90 58
f 57 86 90
f 58 90 91
f 58 91 59
f 62 76 63
f 63 76 92
f 63 92 93
f 63 93 64
f 64 94 65
f 64 93 94
f 65 95 96
f 65 96 97
f 65 97 66
f 65 94 98
f 65 98 99
f 65 99 100
f 65 100 95
f 66 97 101
f 66 101 102
f 66 102 103
f 66 103 67
f 67 103 68
f 68 103 104
f 68 104 69
f 69 104 105
f 69 105 70
f 70 105 71
f 71 105 106
f 71 106 107
f 71 107 87
f 72 75 73
f 73 75 74
f 78 108 79
f 78 89 109
f 78 109 110
f 78 110 108
f 79 108 80
f 80 108 81
f 81 108 111
f 81 111 82
f 82 111 112
f 82 112 83
f 83 113 85
f 83 85 84
f 83 112 114
f 83 114 115
f 83 115 113
f 85 113 86
f 86 116 117
f 86 117 118
f 86 118 90
f 86 113 116
f 87 107 119
f 87 119 88
f 88 119 120
f 88 120 121
f 88 121 109
f 88 109 89
f 90 122 91
f 90 118 123
f 90 123 124
f 90 124 125
f 90 125 122
f 92 126 93
f 93 126 127
f 93 127 128
f 93 128 129
f 93 129 130
f 93 130 131
f 93 131 94
f 94 131 132
f 94 132 98
f 95 100 133
f 95 133 134
f 95 134 135
f 95 135 96
f 96 135 101
f 96 101 97
f 98 136 99
f 98 132 137
f 98 137 136
f 99 136 138
f 99 138 100
f 100 138 139
f 100 139 140
f 100 140 141
f 100 141 142
f 100 142 143
f 100 143 144
f 100 144 133
f 101 135 134
f 101 134 145
f 101 145 146
f 101 146 147
f 101 147 148
f 101 148 149
f 101 149 150
f 101 150 102
f 102 150 103
f 103 150 151
f 103 151 104
f 104 151 152
f 104 152 153
f 104 153 105
f 105 154 106
f 105 153 154
f 106 154 107
f 107 154 155
f 107 155 156
f 107 156 119
f 108 110 157
f 108 157 111
f 109 121 110
f 110 121 157
f 111 115 114
f 111 114 158
f 111 158 112
f 111 157 159
f 111 159 115
f 112 158 114
f 113 115 160
f 113 160 161
f 113 161 116
f 115 159 162
f 115 162 163
f 115 163 160
f 116 164 141
f 116 141 140
f 116 140 165
f 116 165 166
f 116 166 124
f 116 124 117
f 116 161 167
f 116 167 164
f 117 124 118
f 118 124 123
f 119 156 168
f 119 168 120
f 120 168 169
f 120 169 170
f 120 170 121
f 121 170 157
f 122 125 171
f 122 171 127
f 124 172 125
f 124 166 172
f 125 172 171
f 127 129 128
f 127 171 165
f 127 165 129
f 129 173 174
f 129 174 132
f 129 132 130
f 129 165 175
f 129 175 176
f 129 176 177
f 129 177 178
f 129 178 173
f 130 132 131
f 132 174 173
f 132 173 137
f 133 144 134
f 134 144 145
f 136 137 138
f 137 178 138
f 137 173 178
f 138 178 139
f 139 178 177
f 139 177 140
f 140 177 175
f 140 175 165
f 141 164 179
f 141 179 180
f 141 180 142
f 142 144 143
f 142 180 146
f 142 146 145
f 142 145 144
f 146 181 147
f 146 180 179
f 146 179 182
f 146 182 181
f 147 181 183
f 147 183 184
f 147 184 185
f 147 185 148
f 148 185 186
f 148 186 187
f 148 187 149
f 149 187 152
f 149 152 150
f 150 152 151
f 152 187 188
f 152 188 154
f 152 154 153
f 154 188 155
f 155 188 189
f 155 189 190
f 155 190 191
f 155 191 156
f 156 191 192
f 156 192 168
f 157 170 193
f 157 193 159
f 159 193 194
f 159 194 162
f 160 195 196
f 160 196 197
f 160 197 198
f 160 198 161
f 160 163 162
f 160 162 199
f 160 199 195
f 161 198 164
f 161 164 167
f 162 194 199
f 164 198 197
f 164 197 196
f 164 196 200
f 164 200 201
f 164 201 202
f 164 202 182
f 164 182 179
f 165 171 203
f 165 203 166
f 166 203 172
f 168 192 169
f 169 192 204
f 169 204 193
f 169 193 170
f 171 172 203
f 175 177 176
f 181 182 183
f 182 202 205
f 182 205 183
f 183 205 184
f 184 206 207
f 184 207 189
f 184 189 185
f 184 205 208
f 184 208 209
f 184 209 206
f 185 189 186
f 186 189 188
f 186 188 187
f 189 207 190
f 190 207 206
f 190 206 210
f 190 210 192
f 190 192 191
f 192 210 211
f 192 211 204
f 193 211 194
f 193 204 211
f 194 212 213
f 194 213 195
f 194 195 199
f 194 211 212
f 195 213 201
f 195 201 200
f 195 200 196
f 201 213 214
f 201 214 215
f 201 215 202
f 202 215 209
f 202 209 205
f 205 209 208
f 206 209 210
f 209 215 212
f 209 212 211
f 209 211 210
f 212 215 214
f 212 214 213

