# https://github.com/mikedh/trimesh
v -0.03094669 -0.03615037 0.03579453
v -0.03151936 -0.03587897 0.04136728
v -0.03621236 -0.03114890 -0.00164435
v -0.03094669 -0.03606225 0.03364970
v -0.02952479 -0.03201244 0.00754781
v -0.03090946 -0.03237548 0.04971043
v -0.03094669 -0.03237548 0.05016366
v -0.03098570 -0.03237548 0.05052752
v -0.03170197 -0.03572036 0.04136728
v -0.03122150 -0.03237548 0.05140205
v -0.03181366 -0.03237548 0.05213614
v -0.03271255 -0.03237548 0.05234679
v -0.03376214 -0.03237548 0.05233403
v -0.03465216 -0.03237548 0.05210423
v -0.03514681 -0.03237548 0.05170207
v -0.03530460 -0.03237548 0.05124884
v -0.03543048 -0.03237548 0.05036793
v -0.03546417 -0.03235081 0.05036793
v -0.03626200 -0.03109956 -0.00155498
v -0.03773177 -0.02756082 -0.01276430
v -0.03734882 -0.02800140 -0.01276430
v -0.03697295 -0.02840674 -0.01276430
v -0.03498370 -0.03042283 -0.01276430
v -0.03592868 -0.03114890 -0.00301679
v -0.03094669 -0.03603406 0.03299221
v -0.03218776 -0.03529388 0.04136728
v -0.03546062 -0.03235081 0.04971043
v -0.02957798 -0.03095153 -0.00980238
v -0.04226875 -0.00014619 -0.01276430
v -0.04431297 -0.00014971 0.04693364
v -0.04439275 -0.00095333 0.05036793
v -0.04453990 -0.00095333 0.05138928
v -0.04468174 -0.00095333 0.05187442
v -0.04516753 -0.00095333 0.05217445
v -0.04621534 -0.00095333 0.05242978
v -0.03376214 -0.03167055 0.05241701
v -0.03590918 -0.03069775 0.05220636
v -0.03488441 -0.03175867 0.05221274
v -0.03584181 -0.02959102 0.05242340
v -0.03560069 -0.03146612 0.05206592
v -0.03529397 -0.03216048 0.05186804
v -0.03641625 -0.03121940 0.05109564
v -0.03540744 -0.03228736 0.05117862
v -0.03644284 -0.03124760 0.05036793
v -0.04164645 -0.02504776 0.03271133
v -0.03770341 -0.02941126 0.00051964
v -0.03863243 -0.02831157 0.00156014
v -0.03665914 -0.03058144 -0.00155498
v -0.04378462 -0.01795266 -0.00985984
v -0.03829025 -0.02659507 -0.01276430
v -0.03948877 -0.02703918 0.00078774
v -0.03945331 -0.02698983 0.00009833
v -0.04061636 -0.02509710 -0.00155498
v -0.04059154 -0.02501956 -0.00225716
v -0.04163936 -0.02298584 -0.00444029
v -0.04263221 -0.02086049 -0.00651491
v -0.02987583 -0.03042283 -0.01276430
v -0.03413978 -0.03095153 -0.00980238
v -0.04618343 -0.00014619 -0.01276430
v -0.04406830 -0.00014266 0.03858410
v -0.04414454 -0.00014266 0.04123961
v -0.04414985 -0.00014266 0.04136728
v -0.04751137 -0.00014971 0.04693364
v -0.04702381 -0.00095333 0.05216806
v -0.04621534 -0.00364263 0.05240424
v -0.04518171 -0.00987419 0.05244255
v -0.04518171 -0.00883442 0.05244255
v -0.04101882 -0.02128344 0.05244893
v -0.03689494 -0.02959102 0.05217445
v -0.03656163 -0.03039463 0.05206592
v -0.03687367 -0.02855477 0.05240424
v -0.03791971 -0.02751500 0.05235318
v -0.03791971 -0.02647876 0.05242978
v -0.03894979 -0.02544252 0.05241701
v -0.03629923 -0.03108899 0.05179144
v -0.03739669 -0.03011619 0.05089137
v -0.03739669 -0.03011619 0.05085307
v -0.04282546 -0.02322904 0.03479234
v -0.04253115 -0.02367667 0.03375183
v -0.04163758 -0.02504776 0.03191340
v -0.03918559 -0.02764189 0.05036793
v -0.03954727 -0.02712377 0.05036793
v -0.04466223 -0.01558410 -0.01246428
v -0.04369243 -0.01984891 0.01195238
v -0.04466756 -0.01768479 0.01348441
v -0.04474734 -0.01522459 -0.01276430
v -0.04158617 -0.02394102 0.00704352
v -0.04363215 -0.02182624 0.03627329
v -0.04530582 -0.01277849 -0.01276430
v -0.04570118 -0.01149905 -0.01143016
v -0.04617634 -0.00987419 -0.00882572
v -0.04676318 -0.00632488 -0.00531483
v -0.04739967 -0.00022373 0.00082605
v -0.04728443 -0.00014266 0.04135451
v -0.04719046 -0.00014266 0.03858410
v -0.04728443 -0.00014266 0.04136728
v -0.04763725 -0.00095333 0.05036793
v -0.04754860 -0.00095333 0.05098074
v -0.04748300 -0.00095333 0.05140843
v -0.04701494 -0.00156309 0.05216167
v -0.04621534 -0.00467887 0.05237871
v -0.04621534 -0.00571864 0.05234679
v -0.04518171 -0.01091396 0.05239786
v -0.04310204 -0.01713494 0.05242340
v -0.04206309 -0.01921096 0.05244255
v -0.04206309 -0.02024367 0.05235956
v -0.03998520 -0.02439922 0.05233403
v -0.03788957 -0.02848780 0.05212337
v -0.03751725 -0.02924560 0.05203401
v -0.03901716 -0.02653868 0.05220636
v -0.03847819 -0.02809304 0.05197017
v -0.03762894 -0.02959102 0.05130630
v -0.03858456 -0.02824813 0.05140843
v -0.03914836 -0.02746566 0.05143396
v -0.03952955 -0.02709205 0.05110202
v -0.04363215 -0.02182624 0.03641373
v -0.03996392 -0.02647876 0.05036793
v -0.04516043 -0.01380768 -0.01276430
v -0.04462678 -0.01963391 0.03894157
v -0.04507888 -0.01817119 0.03998207
v -0.04512143 -0.01610575 0.01506750
v -0.04575969 -0.01160478 -0.01090033
v -0.04577565 -0.01159421 -0.01007049
v -0.04532355 -0.01714552 0.04102257
v -0.04705394 -0.00779465 0.05036793
v -0.04719755 -0.00675841 0.05036793
v -0.04731812 -0.00571864 0.04932743
v -0.04744577 -0.00467887 0.05036793
v -0.04753796 -0.00364263 0.05036793
v -0.04759470 -0.00260638 0.05036793
v -0.04762484 -0.00156309 0.05036793
v -0.04746882 -0.00156309 0.05140843
v -0.04699544 -0.00260638 0.05214253
v -0.04697239 -0.00364263 0.05212337
v -0.04621534 -0.00675841 0.05228935
v -0.04693161 -0.00467887 0.05209784
v -0.04688374 -0.00571864 0.05206592
v -0.04603095 -0.00987419 0.05216806
v -0.04518171 -0.01195372 0.05230849
v -0.04413744 -0.01507655 0.05234679
v -0.04310204 -0.01816766 0.05234042
v -0.04312509 -0.01917218 0.05215529
v -0.04207905 -0.02124467 0.05216167
v -0.04103833 -0.02331363 0.05214891
v -0.04067842 -0.02439922 0.05206592
v -0.03998520 -0.02537907 0.05212976
v -0.03868030 -0.02751500 0.05207869
v -0.03963592 -0.02622851 0.05205316
v -0.03940898 -0.02692639 0.05179782
v -0.03977244 -0.02653868 0.05143396
v -0.04032205 -0.02565752 0.05140843
v -0.04070679 -0.02526276 0.05036793
v -0.04039475 -0.02578088 0.05036793
v -0.04121030 -0.02439922 0.05036793
v -0.04152411 -0.02385290 0.05036793
v -0.04481116 -0.01898538 0.03998207
v -0.04180247 -0.02333126 0.05036793
v -0.04231662 -0.02232674 0.05036793
v -0.04358251 -0.01963391 0.05036793
v -0.04381654 -0.01911931 0.05036793
v -0.04532355 -0.01507655 0.05036793
v -0.04572778 -0.01361383 0.05104457
v -0.04593522 -0.01298997 0.05036793
v -0.04621002 -0.01195372 0.05036793
v -0.04644050 -0.01091396 0.05036793
v -0.04674900 -0.00941598 0.05094882
v -0.04686956 -0.00883442 0.05036793
v -0.04681105 -0.00883442 0.05119139
v -0.04705926 -0.00675841 0.05140843
v -0.04732698 -0.00571864 0.05036793
v -0.04717805 -0.00571864 0.05140843
v -0.04728620 -0.00467887 0.05140843
v -0.04737840 -0.00364263 0.05140843
v -0.04743336 -0.00260638 0.05140843
v -0.04682701 -0.00675841 0.05202124
v -0.04677737 -0.00760432 0.05197017
v -0.04673482 -0.00829515 0.05191910
v -0.04591748 -0.01091396 0.05211699
v -0.04499378 -0.01403326 0.05214891
v -0.04394064 -0.01713494 0.05215529
v -0.04377044 -0.01816766 0.05206592
v -0.04366938 -0.01879505 0.05197656
v -0.04278468 -0.02024367 0.05207869
v -0.04172623 -0.02232674 0.05207869
v -0.04263221 -0.02087811 0.05198294
v -0.04158971 -0.02292945 0.05197017
v -0.04053658 -0.02498784 0.05195740
v -0.04062700 -0.02513235 0.05140843
v -0.04170850 -0.02315855 0.05140843
v -0.04420836 -0.01816766 0.05036793
v -0.04471188 -0.01675428 0.05106372
v -0.04498491 -0.01610575 0.05036793
v -0.04274391 -0.02109664 0.05140843
v -0.04375980 -0.01899595 0.05140843
v -0.04483599 -0.01611632 0.05141481
v -0.04563559 -0.01332833 0.05173399
v -0.04581820 -0.01298292 0.05139566
v -0.04606287 -0.01195372 0.05140843
v -0.04689438 -0.00788629 0.05150418
v -0.04573665 -0.01263750 0.05196379
v -0.04580756 -0.01195372 0.05203401
v -0.04483067 -0.01507655 0.05207231
v -0.04472429 -0.01577796 0.05199571
v -0.04458422 -0.01646174 0.05175952
f 1 2 3
f 1 3 4
f 1 4 5
f 1 5 6
f 1 6 7
f 1 7 8
f 1 8 2
f 2 9 3
f 2 8 10
f 2 10 11
f 2 11 12
f 2 12 13
f 2 13 14
f 2 14 15
f 2 15 16
f 2 16 17
f 2 17 18
f 2 18 9
f 3 19 20
f 3 20 21
f 3 21 22
f 3 22 23
f 3 23 24
f 3 24 25
f 3 25 4
f 3 9 26
f 3 26 27
f 3 27 19
f 4 25 5
f 5 25 28
f 5 28 29
f 5 29 30
f 5 30 6
f 6 30 7
f 7 30 8
f 8 31 32
f 8 32 10
f 8 30 31
f 9 18 26
f 10 32 33
f 10 33 11
f 11 33 34
f 11 34 35
f 11 35 12
f 12 35 36
f 12 36 13
f 13 37 38
f 13 38 14
f 13 36 39
f 13 39 37
f 14 38 37
f 14 37 40
f 14 40 41
f 14 41 15
f 15 41 16
f 16 41 42
f 16 42 43
f 16 43 18
f 16 18 17
f 18 27 26
f 18 43 42
f 18 42 44
f 18 44 27
f 19 45 46
f 19 46 47
f 19 47 48
f 19 48 20
f 19 27 44
f 19 44 45
f 20 49 50
f 20 50 86
f 20 86 118
f 20 118 89
f 20 89 59
f 20 59 29
f 20 29 57
f 20 57 23
f 20 23 22
f 20 22 21
f 20 48 51
f 20 51 52
f 20 52 53
f 20 53 54
f 20 54 55
f 20 55 56
f 20 56 49
f 23 57 28
f 23 28 58
f 23 58 24
f 24 58 25
f 25 58 28
f 28 57 29
f 29 59 95
f 29 95 60
f 29 60 61
f 29 61 30
f 30 61 62
f 30 62 96
f 30 96 63
f 30 63 35
f 30 35 34
f 30 34 33
f 30 33 32
f 30 32 31
f 35 64 65
f 35 65 66
f 35 66 67
f 35 67 68
f 35 68 36
f 35 63 64
f 36 68 39
f 37 69 70
f 37 70 40
f 37 39 71
f 37 71 72
f 37 72 69
f 39 68 73
f 39 73 74
f 39 74 71
f 40 70 41
f 41 70 75
f 41 75 42
f 42 76 44
f 42 75 76
f 44 76 77
f 44 77 45
f 45 78 79
f 45 79 80
f 45 80 47
f 45 47 46
f 45 77 76
f 45 76 81
f 45 81 82
f 45 82 78
f 47 51 48
f 47 80 51
f 49 83 50
f 49 56 84
f 49 84 85
f 49 85 83
f 50 83 86
f 51 87 53
f 51 53 52
f 51 80 87
f 53 55 54
f 53 87 55
f 55 87 56
f 56 87 88
f 56 88 84
f 59 89 90
f 59 90 91
f 59 91 92
f 59 92 93
f 59 93 63
f 59 63 94
f 59 94 95
f 60 95 94
f 60 94 96
f 60 96 62
f 60 62 61
f 63 96 94
f 63 93 97
f 63 97 98
f 63 98 99
f 63 99 64
f 64 99 100
f 64 100 65
f 65 101 66
f 65 100 101
f 66 68 67
f 66 101 102
f 66 102 103
f 66 103 104
f 66 104 105
f 66 105 68
f 68 74 73
f 68 105 106
f 68 106 107
f 68 107 74
f 69 72 108
f 69 108 70
f 70 108 109
f 70 109 75
f 71 74 72
f 72 74 107
f 72 107 110
f 72 110 108
f 75 109 111
f 75 111 112
f 75 112 76
f 76 112 113
f 76 113 114
f 76 114 115
f 76 115 81
f 78 116 88
f 78 88 87
f 78 87 79
f 78 82 117
f 78 117 116
f 79 87 80
f 81 115 82
f 82 115 117
f 83 118 86
f 83 85 118
f 84 88 85
f 85 88 119
f 85 119 120
f 85 120 121
f 85 121 118
f 88 116 119
f 89 118 90
f 90 122 91
f 90 118 122
f 91 122 123
f 91 123 124
f 91 124 125
f 91 125 92
f 92 125 126
f 92 126 127
f 92 127 128
f 92 128 93
f 93 128 129
f 93 129 130
f 93 130 131
f 93 131 97
f 97 131 98
f 98 131 132
f 98 132 99
f 99 132 100
f 100 132 133
f 100 133 101
f 101 133 134
f 101 134 102
f 102 135 103
f 102 134 136
f 102 136 137
f 102 137 135
f 103 135 138
f 103 138 139
f 103 139 140
f 103 140 104
f 104 140 141
f 104 141 106
f 104 106 105
f 106 141 142
f 106 142 143
f 106 143 107
f 107 143 144
f 107 144 145
f 107 145 146
f 107 146 110
f 108 147 111
f 108 111 109
f 108 110 147
f 110 146 148
f 110 148 147
f 111 149 113
f 111 113 112
f 111 147 148
f 111 148 149
f 113 149 114
f 114 149 115
f 115 149 150
f 115 150 151
f 115 151 152
f 115 152 153
f 115 153 117
f 116 117 153
f 116 153 152
f 116 152 154
f 116 154 155
f 116 155 119
f 118 121 122
f 119 156 120
f 119 155 157
f 119 157 158
f 119 158 159
f 119 159 160
f 119 160 156
f 120 156 161
f 120 161 162
f 120 162 124
f 120 124 123
f 120 123 122
f 120 122 121
f 124 162 163
f 124 163 164
f 124 164 165
f 124 165 166
f 124 166 167
f 124 167 125
f 125 167 166
f 125 166 168
f 125 168 126
f 126 168 169
f 126 169 170
f 126 170 127
f 127 170 128
f 128 170 169
f 128 169 171
f 128 171 172
f 128 172 173
f 128 173 129
f 129 173 130
f 130 173 174
f 130 174 132
f 130 132 131
f 132 174 134
f 132 134 133
f 134 174 173
f 134 173 136
f 135 137 138
f 136 173 137
f 137 175 138
f 137 173 175
f 138 175 176
f 138 176 177
f 138 177 178
f 138 178 139
f 139 178 179
f 139 179 140
f 140 179 180
f 140 180 141
f 141 180 181
f 141 181 142
f 142 181 182
f 142 182 183
f 142 183 143
f 143 183 184
f 143 184 144
f 144 184 145
f 145 148 146
f 145 184 185
f 145 185 186
f 145 186 187
f 145 187 148
f 148 187 149
f 149 187 151
f 149 151 150
f 151 187 188
f 151 188 154
f 151 154 152
f 154 188 155
f 155 188 189
f 155 189 157
f 156 160 190
f 156 190 191
f 156 191 192
f 156 192 161
f 157 189 158
f 158 189 193
f 158 193 194
f 158 194 159
f 159 194 160
f 160 194 190
f 161 192 191
f 161 191 162
f 162 191 195
f 162 195 196
f 162 196 197
f 162 197 198
f 162 198 166
f 162 166 164
f 162 164 163
f 164 166 165
f 166 198 177
f 166 177 168
f 168 199 169
f 168 177 199
f 169 199 177
f 169 177 171
f 171 177 172
f 172 177 176
f 172 176 173
f 173 176 175
f 177 200 201
f 177 201 178
f 177 198 200
f 178 201 179
f 179 201 202
f 179 202 180
f 180 202 181
f 181 202 203
f 181 203 182
f 182 185 183
f 182 203 204
f 182 204 195
f 182 195 191
f 182 191 194
f 182 194 193
f 182 193 185
f 183 185 184
f 185 193 189
f 185 189 186
f 186 189 187
f 187 189 188
f 190 194 191
f 195 204 203
f 195 203 196
f 196 203 200
f 196 200 197
f 197 200 198
f 200 203 202
f 200 202 201

