# https://github.com/mikedh/trimesh
v 0.03571979 0.03152892 0.04693662
v 0.03133098 0.03152892 0.04693662
v 0.03567793 0.03132776 0.04136844
v 0.03546163 0.03133989 0.03583541
v 0.03521044 0.03208905 0.04621588
v 0.03526975 0.03215322 0.04933178
v 0.03532557 0.03208559 0.04933178
v 0.03533254 0.03208559 0.04966139
v 0.03533254 0.03208559 0.04970973
v 0.03448478 0.03235091 0.05205654
v 0.03376262 0.03235091 0.05227189
v 0.03268112 0.03235091 0.05235979
v 0.03129610 0.03132776 0.04136844
v 0.03169730 0.03235091 0.05217960
v 0.03130307 0.03235091 0.05195546
v 0.03104491 0.03235091 0.05176209
v 0.03093327 0.03208559 0.04970973
v 0.00009298 0.04434265 0.05141051
v 0.00009298 0.04429236 0.05098422
v 0.00009298 0.04422300 0.05037334
v 0.03561513 0.03127400 0.03859094
v 0.03542325 0.03113006 0.03020130
v 0.03534301 0.03113006 0.02803468
v 0.03470457 0.03267693 0.04693662
v 0.03465922 0.03282434 0.04927025
v 0.03511275 0.03113006 0.02215446
v 0.03453712 0.03146475 0.01506568
v 0.03397892 0.03186361 0.00987105
v 0.03341375 0.03239773 0.00754621
v 0.03436617 0.03316423 0.04970973
v 0.03527324 0.03215842 0.04970973
v 0.03510927 0.03235091 0.05037334
v 0.03491041 0.03235091 0.05136657
v 0.03446036 0.03240640 0.05204336
v 0.03344166 0.03346945 0.05205215
v 0.03376960 0.03273936 0.05218399
v 0.03274740 0.03379374 0.05219278
v 0.03270903 0.03272029 0.05242571
v 0.00009298 0.04517852 0.05232463
v 0.00009298 0.04455596 0.05204336
v 0.00009298 0.04419872 0.04970973
v 0.00009996 0.04414496 0.04829461
v 0.00009996 0.04411028 0.04712560
v 0.00007902 0.04372703 0.03331720
v 0.00008600 0.04329522 0.01818158
v 0.00008600 0.04299868 0.00769124
v 0.03124027 0.03127400 0.03859094
v 0.00009298 0.04446578 0.05178407
v 0.00007902 0.04379986 0.03579586
v 0.03105537 0.03113006 0.03020130
v 0.03502554 0.03113006 0.01998783
v 0.03449176 0.03141967 0.01298695
v 0.03444641 0.03137111 0.01091261
v 0.03393357 0.03180118 0.00754621
v 0.03381146 0.03194165 0.00754621
v 0.03303697 0.03279659 0.00754621
v 0.02601766 0.04054831 0.01506568
v 0.03406963 0.03336540 0.04693662
v 0.03422662 0.03319718 0.04693662
v 0.03427895 0.03325268 0.04957789
v 0.03326722 0.03431919 0.05037334
v 0.03379053 0.03377119 0.05037334
v 0.03427895 0.03325094 0.05037334
v 0.03427197 0.03324401 0.05089632
v 0.03311721 0.03416138 0.05166980
v 0.03412894 0.03310007 0.05158630
v 0.03242644 0.03451168 0.05205654
v 0.03171125 0.03483770 0.05219718
v 0.03166939 0.03376079 0.05242571
v 0.01402693 0.04413976 0.05244329
v 0.00883571 0.04517852 0.05243449
v 0.00009298 0.04621729 0.05237297
v 0.00007902 0.04378599 0.03536956
v 0.00007902 0.04371836 0.03299638
v 0.00008600 0.04299521 0.00754621
v 0.00007902 0.04790116 0.03579586
v 0.03103095 0.03113006 0.02960361
v 0.03476040 0.03113006 0.01349235
v 0.03442199 0.03134510 0.00987105
v 0.03403823 0.03167806 0.00754621
v 0.03239853 0.03344690 0.00754621
v 0.02598975 0.04053790 0.01448557
v 0.02408491 0.04165817 0.01298695
v 0.02173351 0.04356228 0.02648771
v 0.02233008 0.04315822 0.02752488
v 0.02298247 0.04271081 0.02856205
v 0.02829929 0.03863379 0.05037334
v 0.02882259 0.03823493 0.05037334
v 0.02946801 0.03771641 0.05037334
v 0.02999131 0.03729328 0.05037334
v 0.03079372 0.03661522 0.04970973
v 0.03111817 0.03633082 0.04933178
v 0.03222758 0.03535102 0.05037334
v 0.03222061 0.03534581 0.04970973
v 0.03241248 0.03515679 0.04970973
v 0.03274043 0.03483077 0.04970973
v 0.03326025 0.03431052 0.04970973
v 0.03325327 0.03430531 0.04933178
v 0.03387077 0.03366541 0.04927025
v 0.03274740 0.03484117 0.05037334
v 0.03325676 0.03430705 0.05097543
v 0.03207757 0.03520534 0.05165662
v 0.03138331 0.03551576 0.05206534
v 0.03063673 0.03585392 0.05218839
v 0.02959709 0.03584005 0.05240813
v 0.03063673 0.03479955 0.05242131
v 0.02647817 0.03791758 0.05242571
v 0.01714235 0.04310273 0.05242571
v 0.01506657 0.04413976 0.05240373
v 0.01091150 0.04517852 0.05238176
v 0.00987535 0.04517852 0.05241692
v 0.00572028 0.04621729 0.05234660
v 0.00260486 0.04689534 0.05208731
v 0.00009298 0.04690748 0.05209170
v 0.00007902 0.04848904 0.03299638
v 0.00008600 0.04736184 0.00754621
v 0.03019017 0.03113006 0.00754621
v 0.03041694 0.03113006 0.01369890
v 0.00009298 0.04726299 0.05141051
v 0.00007902 0.04791677 0.03576070
v 0.03461387 0.03113006 0.01024021
v 0.03437663 0.03128613 0.00779232
v 0.03436966 0.03128093 0.00754621
v 0.03186824 0.03396715 0.00754621
v 0.02400467 0.04163736 0.01225302
v 0.03134843 0.03445619 0.00754621
v 0.03026692 0.03545333 0.00754621
v 0.02954825 0.03607763 0.00754621
v 0.02915053 0.03641579 0.00754621
v 0.02799228 0.03735744 0.00754621
v 0.02191492 0.04263971 0.01008639
v 0.02121369 0.04382934 0.02648771
v 0.02167420 0.04359697 0.02752488
v 0.01974145 0.04363165 0.00754621
v 0.02524317 0.04071825 0.05037334
v 0.02703986 0.03950087 0.05097982
v 0.02705032 0.03950607 0.05037334
v 0.02756665 0.03915404 0.05037334
v 0.02820509 0.03856095 0.05141051
v 0.02872840 0.03815169 0.05141051
v 0.03221363 0.03534061 0.05096225
v 0.03060184 0.03677476 0.05037334
v 0.03111817 0.03633255 0.05037334
v 0.03171125 0.03564236 0.05134899
v 0.03100304 0.03622850 0.05141051
v 0.02935288 0.03763318 0.05141051
v 0.02919240 0.03749791 0.05200821
v 0.03029483 0.03650423 0.05204775
v 0.02855745 0.03687708 0.05238615
v 0.02956220 0.03686147 0.05215763
v 0.02543853 0.03895461 0.05239934
v 0.02024383 0.04206223 0.05239495
v 0.01816455 0.04310273 0.05237297
v 0.01610620 0.04413976 0.05227628
v 0.01506657 0.04491493 0.05212686
v 0.01402693 0.04506580 0.05217960
v 0.01195114 0.04517852 0.05232023
v 0.00675643 0.04621729 0.05231584
v 0.00572028 0.04687800 0.05207413
v 0.00468065 0.04688494 0.05207852
v 0.00052558 0.04726125 0.05141051
v 0.00007902 0.04837459 0.03378744
v 0.00009298 0.04743814 0.05037334
v 0.00054651 0.04868153 0.03299638
v 0.00073839 0.04880466 0.03217895
v 0.00008600 0.04856881 0.03020130
v 0.00008600 0.04853760 0.02900153
v 0.00008600 0.04852546 0.02856205
v 0.00008600 0.04849424 0.02752488
v 0.00008600 0.04831909 0.02172817
v 0.00008600 0.04828441 0.02069100
v 0.00008600 0.04802428 0.01402851
v 0.00008600 0.04797226 0.01298695
v 0.00008600 0.04780231 0.01021824
v 0.00008600 0.04775549 0.00960736
v 0.00008600 0.04775029 0.00955902
v 0.00008600 0.04761502 0.00883388
v 0.00020810 0.04770520 0.00883388
v 0.00053256 0.04762369 0.00754621
v 0.03449176 0.03113006 0.00754621
v 0.00052558 0.04743814 0.05037334
v 0.00007902 0.04828614 0.03426647
v 0.00007902 0.04816475 0.03479385
v 0.00007902 0.04803469 0.03533880
v 0.02179631 0.04257034 0.00939202
v 0.01946235 0.04459931 0.02440898
v 0.01920419 0.04396634 0.05037334
v 0.01985658 0.04368714 0.05037334
v 0.02037640 0.04342008 0.05037334
v 0.02128347 0.04295359 0.05037334
v 0.02190097 0.04263104 0.05037334
v 0.02242079 0.04235530 0.05037334
v 0.02335925 0.04183679 0.05037334
v 0.02387559 0.04154372 0.05037334
v 0.02439540 0.04123677 0.05037334
v 0.00849382 0.04681557 0.00754621
v 0.00858452 0.04685199 0.00779232
v 0.00955788 0.04683291 0.00905362
v 0.00988930 0.04688321 0.00991939
v 0.01145923 0.04674794 0.01240244
v 0.01156738 0.04677049 0.01298695
v 0.01298729 0.04650863 0.01506568
v 0.01402693 0.04623810 0.01610285
v 0.01592828 0.04583230 0.01921435
v 0.01895998 0.04478140 0.02337181
v 0.02512106 0.04064195 0.05141051
v 0.02807950 0.03846557 0.05195546
v 0.02848070 0.03787249 0.05210049
v 0.02751781 0.03791758 0.05232902
v 0.02439540 0.03998644 0.05232463
v 0.02232310 0.04102347 0.05236857
v 0.02335577 0.04105468 0.05217960
v 0.02130789 0.04211252 0.05219278
v 0.02024383 0.04287555 0.05212686
v 0.01924257 0.04316863 0.05218399
v 0.01816455 0.04382240 0.05210049
v 0.01195114 0.04581496 0.05204775
v 0.01610620 0.04474671 0.05200821
v 0.01341291 0.04566929 0.05187197
v 0.01271866 0.04574733 0.05198183
v 0.01091150 0.04590340 0.05211368
v 0.00987535 0.04600052 0.05216642
v 0.00675643 0.04684679 0.05204336
v 0.00468065 0.04720576 0.05141051
v 0.00364101 0.04723004 0.05141051
v 0.00092329 0.04884108 0.03242946
v 0.00073839 0.04881333 0.03167795
v 0.00051162 0.04872315 0.03020130
v 0.00052209 0.04851852 0.02337181
v 0.00052209 0.04845436 0.02129308
v 0.00052209 0.04842141 0.02025591
v 0.00052209 0.04818036 0.01402851
v 0.00052209 0.04812140 0.01298695
v 0.00046627 0.04787688 0.00991500
v 0.00072792 0.04785954 0.00883388
v 0.00089538 0.04781966 0.00799887
v 0.00053604 0.04765317 0.00770882
v 0.00778910 0.04701500 0.00754621
v 0.00110471 0.04781966 0.00799887
v 0.00364101 0.04740519 0.05037334
v 0.00109773 0.04884108 0.03242946
v 0.01642019 0.04566062 0.02025591
v 0.01610620 0.04516291 0.05037334
v 0.01705514 0.04482475 0.05037334
v 0.01816455 0.04438254 0.05037334
v 0.01982518 0.04366980 0.05108530
v 0.02185562 0.04261023 0.05099740
v 0.02374301 0.04144834 0.05141051
v 0.00891246 0.04695604 0.00875917
v 0.00883222 0.04706876 0.00987105
v 0.00987186 0.04695951 0.01091261
v 0.00105587 0.04882027 0.02990246
v 0.00106633 0.04882547 0.03020130
v 0.00108029 0.04883241 0.03063638
v 0.00110819 0.04884454 0.03167795
v 0.01402693 0.04627798 0.01714441
v 0.01506308 0.04603520 0.01818158
v 0.01195114 0.04629532 0.05037334
v 0.01299078 0.04606468 0.05037334
v 0.01392575 0.04582016 0.05037334
v 0.01506657 0.04548374 0.05037334
v 0.02497105 0.04053790 0.05195986
v 0.02616419 0.03960492 0.05203018
v 0.02536527 0.03996389 0.05211807
v 0.02751781 0.03863205 0.05205654
v 0.02439540 0.04069571 0.05206534
v 0.02301038 0.04162695 0.05200821
v 0.02232310 0.04179690 0.05210928
v 0.02097646 0.04268826 0.05202578
v 0.01892160 0.04370101 0.05200821
v 0.00755884 0.04678956 0.05198623
v 0.01662951 0.04466174 0.05192910
v 0.01303962 0.04587913 0.05147643
v 0.00953694 0.04677395 0.05100619
v 0.00824961 0.04671673 0.05189394
v 0.01506657 0.04533806 0.05141051
v 0.01380016 0.04578375 0.05117759
v 0.00675643 0.04707396 0.05141051
v 0.00572028 0.04715547 0.05141051
v 0.00468065 0.04736184 0.05037334
v 0.00089189 0.04884454 0.03167795
v 0.00095818 0.04883241 0.03063638
v 0.00060582 0.04872489 0.02957724
v 0.00052209 0.04867633 0.02856205
v 0.00098958 0.04882547 0.03020130
v 0.00101051 0.04882027 0.02990246
v 0.00116401 0.04785954 0.00883388
v 0.00779258 0.04705836 0.00779232
v 0.00572028 0.04727686 0.05037334
v 0.00779607 0.04707396 0.05037334
v 0.00883571 0.04693003 0.05037334
v 0.00958928 0.04678436 0.05037334
v 0.01610620 0.04500684 0.05141051
v 0.01685279 0.04474671 0.05141051
v 0.01924257 0.04381373 0.05142370
v 0.01960888 0.04356228 0.05177968
v 0.02130789 0.04279058 0.05137096
v 0.02322319 0.04174661 0.05141051
v 0.02166374 0.04249057 0.05169178
v 0.00786236 0.04690922 0.05149401
v 0.00883571 0.04683985 0.05120835
f 1 2 13
f 1 13 3
f 1 3 4
f 1 4 5
f 1 5 6
f 1 6 7
f 1 7 8
f 1 8 9
f 1 9 10
f 1 10 11
f 1 11 12
f 1 12 2
f 2 12 14
f 2 14 15
f 2 15 16
f 2 16 17
f 2 17 18
f 2 18 19
f 2 19 20
f 2 20 13
f 3 13 47
f 3 47 21
f 3 21 22
f 3 22 23
f 3 23 4
f 4 23 5
f 5 24 25
f 5 25 6
f 5 23 26
f 5 26 27
f 5 27 28
f 5 28 29
f 5 29 24
f 6 30 31
f 6 31 8
f 6 8 7
f 6 25 30
f 8 31 9
f 9 31 32
f 9 32 33
f 9 33 10
f 10 34 35
f 10 35 36
f 10 36 11
f 10 33 34
f 11 36 37
f 11 37 38
f 11 38 12
f 12 38 39
f 12 39 40
f 12 40 14
f 13 20 41
f 13 41 42
f 13 42 43
f 13 43 44
f 13 44 45
f 13 45 46
f 13 46 47
f 14 40 15
f 15 40 16
f 16 40 48
f 16 48 18
f 16 18 17
f 18 48 49
f 18 49 19
f 19 49 20
f 20 49 41
f 21 47 50
f 21 50 22
f 22 50 77
f 22 77 118
f 22 118 117
f 22 117 180
f 22 180 121
f 22 121 78
f 22 78 51
f 22 51 26
f 22 26 23
f 24 30 25
f 24 29 30
f 26 51 27
f 27 51 52
f 27 52 28
f 28 52 53
f 28 53 54
f 28 54 55
f 28 55 29
f 29 55 54
f 29 54 80
f 29 80 123
f 29 123 180
f 29 180 117
f 29 117 75
f 29 75 116
f 29 116 179
f 29 179 238
f 29 238 196
f 29 196 134
f 29 134 130
f 29 130 129
f 29 129 128
f 29 128 127
f 29 127 126
f 29 126 124
f 29 124 81
f 29 81 56
f 29 56 57
f 29 57 58
f 29 58 59
f 29 59 30
f 30 59 60
f 30 60 61
f 30 61 62
f 30 62 63
f 30 63 32
f 30 32 31
f 32 63 64
f 32 64 33
f 33 64 65
f 33 65 66
f 33 66 34
f 34 66 65
f 34 65 35
f 35 67 37
f 35 37 36
f 35 65 67
f 37 68 38
f 37 67 68
f 38 69 70
f 38 70 71
f 38 71 72
f 38 72 39
f 38 68 69
f 39 72 49
f 39 49 40
f 40 49 48
f 41 49 73
f 41 73 42
f 42 73 43
f 43 73 44
f 44 73 49
f 44 49 76
f 44 76 120
f 44 120 184
f 44 184 183
f 44 183 182
f 44 182 162
f 44 162 115
f 44 115 74
f 44 74 46
f 44 46 45
f 46 75 50
f 46 50 47
f 46 74 75
f 49 72 76
f 50 75 77
f 51 78 52
f 52 78 53
f 53 79 80
f 53 80 54
f 53 78 79
f 56 81 82
f 56 82 57
f 57 82 83
f 57 83 84
f 57 84 85
f 57 85 86
f 57 86 87
f 57 87 88
f 57 88 89
f 57 89 90
f 57 90 91
f 57 91 92
f 57 92 93
f 57 93 94
f 57 94 95
f 57 95 96
f 57 96 97
f 57 97 98
f 57 98 99
f 57 99 60
f 57 60 58
f 58 60 59
f 60 97 61
f 60 99 97
f 61 97 100
f 61 100 101
f 61 101 62
f 62 101 64
f 62 64 63
f 64 101 65
f 65 101 102
f 65 102 67
f 67 103 68
f 67 102 103
f 68 103 104
f 68 104 105
f 68 105 106
f 68 106 69
f 69 106 107
f 69 107 70
f 70 107 108
f 70 108 109
f 70 109 110
f 70 110 111
f 70 111 71
f 71 111 112
f 71 112 72
f 72 112 113
f 72 113 114
f 72 114 76
f 74 115 116
f 74 116 75
f 75 117 118
f 75 118 77
f 76 114 119
f 76 119 120
f 78 121 122
f 78 122 79
f 79 122 80
f 80 122 123
f 81 124 82
f 82 125 83
f 82 124 126
f 82 126 127
f 82 127 128
f 82 128 129
f 82 129 130
f 82 130 125
f 83 125 131
f 83 131 84
f 84 132 133
f 84 133 85
f 84 131 134
f 84 134 132
f 85 133 86
f 86 133 135
f 86 135 136
f 86 136 137
f 86 137 138
f 86 138 87
f 87 138 136
f 87 136 139
f 87 139 88
f 88 139 140
f 88 140 89
f 89 140 90
f 90 140 141
f 90 141 142
f 90 142 91
f 91 142 143
f 91 143 92
f 92 143 93
f 93 141 100
f 93 100 94
f 93 143 141
f 94 100 95
f 95 100 96
f 96 100 97
f 97 99 98
f 100 141 101
f 101 141 102
f 102 141 144
f 102 144 145
f 102 145 146
f 102 146 147
f 102 147 148
f 102 148 103
f 103 148 104
f 104 149 105
f 104 148 150
f 104 150 149
f 105 149 107
f 105 107 106
f 107 149 151
f 107 151 152
f 107 152 108
f 108 152 153
f 108 153 109
f 109 153 154
f 109 154 155
f 109 155 156
f 109 156 157
f 109 157 110
f 110 157 158
f 110 158 111
f 111 158 112
f 112 158 159
f 112 159 160
f 112 160 113
f 113 160 161
f 113 161 114
f 114 161 119
f 115 162 163
f 115 163 164
f 115 164 165
f 115 165 166
f 115 166 167
f 115 167 168
f 115 168 169
f 115 169 170
f 115 170 171
f 115 171 172
f 115 172 173
f 115 173 174
f 115 174 175
f 115 175 176
f 115 176 177
f 115 177 116
f 116 177 178
f 116 178 179
f 119 161 181
f 119 181 163
f 119 163 162
f 119 162 182
f 119 182 183
f 119 183 184
f 119 184 120
f 121 180 122
f 122 180 123
f 125 185 134
f 125 134 131
f 125 130 185
f 130 134 185
f 132 134 186
f 132 186 187
f 132 187 188
f 132 188 133
f 133 188 189
f 133 189 190
f 133 190 191
f 133 191 192
f 133 192 193
f 133 193 194
f 133 194 195
f 133 195 135
f 134 196 197
f 134 197 198
f 134 198 199
f 134 199 200
f 134 200 201
f 134 201 202
f 134 202 203
f 134 203 204
f 134 204 205
f 134 205 186
f 135 195 206
f 135 206 136
f 136 206 207
f 136 207 139
f 136 138 137
f 139 207 140
f 140 146 141
f 140 207 146
f 141 143 142
f 141 146 145
f 141 145 144
f 146 207 147
f 147 208 150
f 147 150 148
f 147 207 208
f 149 150 209
f 149 209 151
f 150 208 209
f 151 209 210
f 151 210 211
f 151 211 152
f 152 211 212
f 152 212 213
f 152 213 214
f 152 214 153
f 153 214 215
f 153 215 216
f 153 216 154
f 154 216 155
f 155 217 156
f 155 216 218
f 155 218 219
f 155 219 220
f 155 220 217
f 156 217 221
f 156 221 157
f 157 221 222
f 157 222 158
f 158 222 223
f 158 223 159
f 159 223 224
f 159 224 225
f 159 225 161
f 159 161 160
f 161 225 181
f 163 181 241
f 163 241 226
f 163 226 165
f 163 165 164
f 165 226 227
f 165 227 166
f 166 227 228
f 166 228 167
f 167 228 168
f 168 228 169
f 169 228 170
f 170 229 230
f 170 230 231
f 170 231 171
f 170 228 229
f 171 231 232
f 171 232 172
f 172 232 173
f 173 232 233
f 173 233 174
f 174 233 234
f 174 234 175
f 175 234 235
f 175 235 236
f 175 236 176
f 176 236 178
f 176 178 177
f 178 236 237
f 178 237 179
f 179 237 236
f 179 236 239
f 179 239 238
f 181 225 240
f 181 240 241
f 186 205 242
f 186 242 243
f 186 243 244
f 186 244 245
f 186 245 187
f 187 245 246
f 187 246 188
f 188 246 189
f 189 246 190
f 190 246 191
f 191 246 247
f 191 247 192
f 192 247 193
f 193 247 194
f 194 247 248
f 194 248 206
f 194 206 195
f 196 238 197
f 197 249 198
f 197 238 249
f 198 249 199
f 199 249 250
f 199 250 251
f 199 251 201
f 199 201 200
f 201 251 252
f 201 252 253
f 201 253 254
f 201 254 255
f 201 255 202
f 202 255 256
f 202 256 257
f 202 257 204
f 202 204 203
f 204 242 205
f 204 257 256
f 204 256 258
f 204 258 259
f 204 259 260
f 204 260 261
f 204 261 242
f 206 248 262
f 206 262 207
f 207 262 263
f 207 263 264
f 207 264 265
f 207 265 208
f 208 264 209
f 208 265 264
f 209 264 210
f 210 264 212
f 210 212 211
f 212 264 266
f 212 266 267
f 212 267 268
f 212 268 214
f 212 214 213
f 214 268 269
f 214 269 270
f 214 270 216
f 214 216 215
f 216 270 218
f 217 223 221
f 217 220 271
f 217 271 223
f 218 272 219
f 218 270 272
f 219 273 274
f 219 274 275
f 219 275 220
f 219 272 276
f 219 276 277
f 219 277 273
f 220 275 271
f 221 223 222
f 223 271 278
f 223 278 279
f 223 279 224
f 224 279 280
f 224 280 240
f 224 240 225
f 226 241 255
f 226 255 281
f 226 281 227
f 227 281 282
f 227 282 228
f 228 282 283
f 228 283 284
f 228 284 229
f 229 284 282
f 229 282 285
f 229 285 230
f 230 285 286
f 230 286 231
f 231 286 232
f 232 250 287
f 232 287 239
f 232 239 233
f 232 286 252
f 232 252 250
f 233 235 234
f 233 239 236
f 233 236 235
f 238 239 288
f 238 288 249
f 239 287 250
f 239 250 288
f 240 280 241
f 241 256 255
f 241 280 289
f 241 289 290
f 241 290 291
f 241 291 292
f 241 292 258
f 241 258 256
f 242 261 243
f 243 261 277
f 243 277 293
f 243 293 294
f 243 294 244
f 244 294 246
f 244 246 245
f 246 294 295
f 246 295 296
f 246 296 297
f 246 297 247
f 247 297 298
f 247 298 248
f 248 298 262
f 249 288 250
f 250 252 251
f 252 286 285
f 252 285 253
f 253 285 282
f 253 282 254
f 254 282 281
f 254 281 255
f 258 292 274
f 258 274 259
f 259 274 277
f 259 277 260
f 260 277 261
f 262 298 267
f 262 267 266
f 262 266 264
f 262 264 263
f 267 269 268
f 267 298 299
f 267 299 296
f 267 296 269
f 269 296 270
f 270 296 272
f 271 275 300
f 271 300 278
f 272 296 294
f 272 294 293
f 272 293 276
f 273 277 274
f 274 301 275
f 274 292 291
f 274 291 290
f 274 290 301
f 275 301 300
f 276 293 277
f 278 300 301
f 278 301 290
f 278 290 289
f 278 289 280
f 278 280 279
f 282 284 283
f 294 296 295
f 296 299 297
f 297 299 298

