# https://github.com/mikedh/trimesh
v 0.02722019 0.02526079 -0.03781289
v 0.02722019 0.02989434 -0.03182117
v 0.02722019 0.03652604 -0.03781289
v 0.03713832 0.00013811 -0.03781289
v 0.02722019 0.03691847 -0.03182117
v 0.04020746 0.00013811 -0.03182117
v 0.02722019 0.03661245 -0.03687263
v 0.03171822 0.03356302 -0.03781289
v 0.04503279 0.00013811 -0.03781289
v 0.03328552 0.03223812 -0.03513935
v 0.03217083 0.03322459 -0.03662686
v 0.03220263 0.03323899 -0.03731959
v 0.03220263 0.03323899 -0.03740112
v 0.03538960 0.03019677 -0.03182117
v 0.03539895 0.03020397 -0.03189039
v 0.03436094 0.03122284 -0.03306761
v 0.03438525 0.03126244 -0.03375741
v 0.04610447 0.00013811 -0.03182117
v 0.04071617 0.02117809 -0.03781289
v 0.04614001 0.00156021 -0.03271861
v 0.04631768 0.00156021 -0.03182117
v 0.04625035 0.00066375 -0.03182117
v 0.04535823 0.00665460 -0.03781289
v 0.04577156 0.00467445 -0.03560977
v 0.03433850 0.03123004 -0.03441846
v 0.04055907 0.02189094 -0.03655237
v 0.03549246 0.03007796 -0.03182117
v 0.03847183 0.02602405 -0.03182117
v 0.03538025 0.03018597 -0.03271861
v 0.04076106 0.02110608 -0.03781289
v 0.04632516 0.00170063 -0.03182117
v 0.04535262 0.00675181 -0.03781289
v 0.04575286 0.00534410 -0.03560918
v 0.04620173 0.00259709 -0.03271861
v 0.03953602 0.02397190 -0.03443606
v 0.03957156 0.02406191 -0.03375741
v 0.04056281 0.02191614 -0.03583442
v 0.04127165 0.02018081 -0.03781289
v 0.03876921 0.02544441 -0.03182117
v 0.04328969 0.01402435 -0.03182117
v 0.04529090 0.00769508 -0.03781289
v 0.04575286 0.00534410 -0.03503611
v 0.03953789 0.02403670 -0.03303418
f 1 2 5
f 1 5 7
f 1 7 3
f 1 3 8
f 1 8 19
f 1 19 30
f 1 30 38
f 1 38 41
f 1 41 32
f 1 32 23
f 1 23 9
f 1 9 4
f 1 4 2
f 2 4 6
f 2 6 18
f 2 18 22
f 2 22 21
f 2 21 31
f 2 31 40
f 2 40 39
f 2 39 28
f 2 28 27
f 2 27 14
f 2 14 5
f 3 7 8
f 4 9 18
f 4 18 6
f 5 10 11
f 5 11 12
f 5 12 13
f 5 13 8
f 5 8 7
f 5 14 15
f 5 15 16
f 5 16 17
f 5 17 10
f 8 13 19
f 9 20 21
f 9 21 22
f 9 22 18
f 9 23 24
f 9 24 20
f 10 12 11
f 10 17 12
f 12 17 13
f 13 17 25
f 13 25 26
f 13 26 19
f 14 27 15
f 15 27 28
f 15 28 29
f 15 29 17
f 15 17 16
f 17 29 25
f 19 26 30
f 20 24 21
f 21 24 31
f 23 32 33
f 23 33 24
f 24 33 34
f 24 34 31
f 25 29 35
f 25 35 26
f 26 35 36
f 26 36 37
f 26 37 38
f 26 38 30
f 28 39 36
f 28 36 35
f 28 35 29
f 31 34 40
f 32 41 33
f 33 41 42
f 33 42 34
f 34 42 40
f 36 39 43
f 36 43 37
f 37 43 40
f 37 40 38
f 38 40 41
f 39 40 43
f 40 42 41

