# https://github.com/mikedh/trimesh
v 0.04502772 0.00013811 -0.03782848
v 0.04504549 -0.00052139 -0.03782848
v 0.04477007 -0.00052139 -0.04829655
v 0.04477007 0.00013811 -0.04725895
v 0.03711177 0.00013811 -0.03782848
v -0.03719685 -0.00049429 -0.03777811
v 0.00008184 -0.03692041 -0.03777811
v 0.04516986 -0.00883743 -0.03782848
v 0.04475230 -0.00156033 -0.04829655
v 0.04469011 -0.00156033 -0.04893839
v 0.04469899 -0.00052139 -0.04896717
v 0.04469011 0.00013811 -0.04891968
v 0.04473453 0.00013811 -0.04833108
v 0.00009073 0.00013811 -0.04057142
v -0.04504172 -0.00049429 -0.03777811
v 0.00008184 -0.04515965 -0.03777811
v 0.04467234 -0.00223339 -0.04887219
v 0.04491222 -0.00991250 -0.03782848
v 0.04491222 -0.00993057 -0.03788029
v 0.04477007 -0.01088820 -0.03905316
v 0.04465457 -0.01143477 -0.04051817
v 0.04453020 -0.00156033 -0.04945790
v 0.04453020 -0.00052139 -0.04948669
v 0.04453020 0.00013811 -0.04936868
v 0.00009073 0.00013811 -0.05043650
v -0.04478407 -0.00049429 -0.04722873
v -0.04559255 -0.00666469 -0.03777811
v -0.00052229 -0.04529968 -0.03777811
v 0.00575005 -0.04558426 -0.03782848
v 0.02016045 -0.04132461 -0.03782848
v 0.02017822 -0.04131557 -0.03782848
v 0.02124434 -0.04073738 -0.03782848
v 0.03110596 -0.03413334 -0.03782848
v 0.03148798 -0.03365452 -0.03782848
v 0.04053224 -0.02187386 -0.03782848
v 0.04069216 -0.02158928 -0.03782848
v 0.04075435 -0.02144473 -0.03782848
v 0.04463681 -0.00292451 -0.04857717
v 0.04445023 -0.00467715 -0.04829655
v 0.04422812 -0.00467715 -0.04933558
v 0.04436139 -0.00363821 -0.04933558
v 0.04451243 -0.00258572 -0.04926507
v 0.04465457 -0.01143026 -0.03946619
v 0.04159836 -0.01984566 -0.03925608
v 0.04465457 -0.01143477 -0.03999146
v 0.04365064 -0.01461935 -0.04384970
v 0.04383722 -0.00467715 -0.05015875
v 0.04389941 -0.00363821 -0.05026093
v 0.04390829 -0.00254507 -0.05045233
v 0.04402378 -0.00156033 -0.05037318
v 0.04401490 -0.00052139 -0.05037318
v 0.04394383 0.00013811 -0.05044225
v 0.04409486 0.00013811 -0.05017746
v 0.03998141 0.00013811 -0.05245700
v -0.04102599 -0.00049429 -0.05241815
v -0.04201216 -0.00049429 -0.05213033
v -0.04250968 -0.00049429 -0.05189719
v -0.04252745 -0.00049429 -0.05188280
v -0.04311382 -0.00049429 -0.05137480
v -0.04362911 -0.00049429 -0.05090565
v -0.04402002 -0.00049429 -0.05037462
v -0.04453531 -0.00049429 -0.04942481
v -0.04468635 -0.00049429 -0.04891968
v -0.04473965 -0.00049429 -0.04829799
v -0.04559255 -0.00667824 -0.03777811
v -0.00667914 -0.04552553 -0.03777811
v 0.00565232 -0.04558426 -0.03782848
v 0.00525253 -0.04571977 -0.03828036
v 0.00525253 -0.04571977 -0.03852501
v 0.02185736 -0.04052959 -0.03959571
v 0.02184847 -0.04052507 -0.03895243
v 0.01373707 -0.04265716 -0.04829655
v 0.01425236 -0.04249003 -0.04829655
v 0.01671333 -0.04157756 -0.04895422
v 0.02129764 -0.04074641 -0.03801413
v 0.02181294 -0.04050701 -0.03842859
v 0.03105265 -0.03418303 -0.03791339
v 0.03410886 -0.02889347 -0.04829655
v 0.03454419 -0.02837400 -0.04829655
v 0.03506837 -0.02773257 -0.04829655
v 0.03638325 -0.02600703 -0.04890241
v 0.03640991 -0.02604768 -0.04829655
v 0.03729834 -0.02479644 -0.04829655
v 0.03764483 -0.02427697 -0.04829655
v 0.03846219 -0.02291279 -0.04894702
v 0.04159836 -0.01984566 -0.03999146
v 0.04406821 -0.00571609 -0.04933558
v 0.04361511 -0.00933431 -0.04876138
v 0.04367730 -0.00864319 -0.04900746
v 0.04362399 -0.00731064 -0.04986517
v 0.04375725 -0.00571609 -0.05004938
v 0.04365064 -0.01461935 -0.04331580
v 0.04276221 -0.01702246 -0.04310569
v 0.04306427 -0.01610548 -0.04414472
v 0.04347296 -0.01500782 -0.04417638
v 0.04325085 -0.01506654 -0.04518232
v 0.04343742 -0.00467715 -0.05067827
v 0.04351738 -0.00363821 -0.05077900
v 0.04357957 -0.00285223 -0.05084952
v 0.04363288 -0.00216111 -0.05090565
v 0.04363288 -0.00156033 -0.05090852
v 0.04362399 -0.00052139 -0.05089989
v 0.04361511 0.00013811 -0.05089125
v 0.04036344 0.00013811 -0.05244837
v 0.03998141 -0.00363821 -0.05246996
v -0.04001318 -0.00049429 -0.05245700
v -0.04102599 -0.00052139 -0.05241815
v -0.03997765 -0.00156033 -0.05245988
v -0.04188778 -0.00259927 -0.05210298
v -0.04250968 -0.00052139 -0.05189719
v -0.04102599 -0.00156033 -0.05240232
v -0.04102599 -0.00259927 -0.05237642
v -0.04102599 -0.00363821 -0.05234763
v -0.04362911 -0.00110410 -0.05090133
v -0.04362911 -0.00052139 -0.05090565
v -0.04402002 -0.00052139 -0.05037462
v -0.04393118 -0.00259927 -0.05028971
v -0.04441093 -0.00259927 -0.04933702
v -0.04451754 -0.00152871 -0.04925067
v -0.04468635 -0.00052139 -0.04891680
v -0.04473965 -0.00052139 -0.04829799
v -0.04524606 -0.00883291 -0.03999146
v -0.04546817 -0.00779397 -0.03791339
v -0.04548593 -0.00768556 -0.03777811
v -0.00786964 -0.04516868 -0.03777811
v -0.00666137 -0.04556619 -0.03800118
v -0.00625269 -0.04570170 -0.03840268
v 0.00500377 -0.04571977 -0.03828036
v 0.00051717 -0.04596369 -0.04310569
v 0.00157441 -0.04586432 -0.04309705
v 0.00939263 -0.04363286 -0.04885348
v 0.01365711 -0.04263006 -0.04896717
v 0.02519787 -0.03857368 -0.04414472
v 0.02518899 -0.03861885 -0.04310569
v 0.01817036 -0.04104906 -0.04829655
v 0.02824520 -0.03651386 -0.04206809
v 0.02941793 -0.03556978 -0.03999146
v 0.01610031 -0.04169953 -0.04931399
v 0.01645568 -0.04147819 -0.04964643
v 0.01709535 -0.04132913 -0.04931399
v 0.01889887 -0.04061090 -0.04910533
v 0.01506084 -0.04206090 -0.04933558
v 0.02932909 -0.03560141 -0.04102906
v 0.03359357 -0.02944908 -0.04829655
v 0.03345142 -0.02930453 -0.04933558
v 0.03396671 -0.02873537 -0.04933558
v 0.03441982 -0.02821590 -0.04933558
v 0.03541486 -0.02713179 -0.04911108
v 0.03528159 -0.02697369 -0.04980329
v 0.03624111 -0.02581731 -0.04959606
v 0.03719173 -0.02464737 -0.04933558
v 0.03754710 -0.02412790 -0.04933558
v 0.03809793 -0.02329675 -0.04930968
v 0.03835557 -0.02272308 -0.04963923
v 0.03952831 -0.02091622 -0.04900602
v 0.04270890 -0.01681919 -0.04414472
v 0.04247791 -0.01754645 -0.04310569
v 0.04156282 -0.01976887 -0.04058006
v 0.04373060 -0.00771266 -0.04934709
v 0.04311759 -0.01091079 -0.04933558
v 0.04334858 -0.00987185 -0.04933558
v 0.04351738 -0.00892325 -0.04934709
v 0.04356180 -0.00800628 -0.04969967
v 0.04266448 -0.01172839 -0.04997742
v 0.04276221 -0.01091079 -0.05011989
v 0.04287771 -0.00987185 -0.05026956
v 0.04255787 -0.00923042 -0.05086967
v 0.04335746 -0.00571609 -0.05056889
v 0.04262006 -0.00854381 -0.05093587
v 0.04281551 -0.01611452 -0.04514202
v 0.04055001 -0.01881124 -0.04898444
v 0.04165166 -0.01585704 -0.04933558
v 0.04192708 -0.01506654 -0.04933558
v 0.04224692 -0.01402761 -0.04933558
v 0.04256675 -0.01241951 -0.04981336
v 0.04279775 -0.01202200 -0.04941473
v 0.04276221 -0.00675503 -0.05108697
v 0.04284217 -0.00571609 -0.05116037
v 0.04292213 -0.00467715 -0.05122657
v 0.04300209 -0.00363821 -0.05128413
v 0.04317977 -0.00254507 -0.05125535
v 0.04252233 -0.00156033 -0.05190151
v 0.04309982 -0.00156033 -0.05139782
v 0.04309982 -0.00052139 -0.05139926
v 0.04317089 0.00013811 -0.05131004
v 0.04102088 0.00013811 -0.05241959
v 0.04102088 -0.00052139 -0.05242822
v 0.04102088 -0.00156033 -0.05242534
v 0.03998141 -0.00467715 -0.05246563
v 0.03894194 -0.01091079 -0.05245844
v 0.03894194 -0.00987185 -0.05246132
v 0.03479295 -0.02025672 -0.05246563
v -0.00571075 -0.03998302 -0.05248003
v -0.03997765 -0.00363821 -0.05245413
v -0.03997765 -0.00779397 -0.05243398
v -0.03997765 -0.00883291 -0.05242534
v -0.03894706 -0.00987185 -0.05245988
v -0.04183447 -0.00363821 -0.05208572
v -0.04102599 -0.00468167 -0.05231309
v -0.04178117 -0.00468167 -0.05206125
v -0.04166567 -0.00675503 -0.05200656
v -0.04240307 -0.00259927 -0.05182812
v -0.04235865 -0.00363821 -0.05178782
v -0.04302497 -0.00259927 -0.05130860
v -0.04318489 -0.00149709 -0.05125679
v -0.03997765 -0.00987185 -0.05239944
v -0.04297167 -0.00363821 -0.05126974
v -0.04291836 -0.00468167 -0.05122801
v -0.04286505 -0.00572061 -0.05118052
v -0.04359357 -0.00179522 -0.05086104
v -0.04390453 -0.00149709 -0.05045664
v -0.04387787 -0.00363821 -0.05022207
v -0.04382456 -0.00468167 -0.05015299
v -0.04370907 -0.00675503 -0.04999325
v -0.04431320 -0.00363821 -0.04933702
v -0.04465969 -0.00116283 -0.04884628
v -0.04504172 -0.00987185 -0.04103050
v -0.04470411 -0.01162449 -0.04272432
v -0.04473077 -0.01164708 -0.04206665
v -0.04529048 -0.00883291 -0.03895243
v -0.04461527 -0.00259927 -0.04843326
v -0.04173674 -0.02015735 -0.03791339
v -0.04171009 -0.02018445 -0.03777811
v -0.02127611 -0.04105358 -0.03777811
v -0.00625269 -0.04570170 -0.03847896
v -0.00052229 -0.04600887 -0.04414472
v 0.00057937 -0.04588691 -0.04420373
v 0.00979243 -0.04341152 -0.04925499
v 0.01090297 -0.04315404 -0.04933558
v 0.01194244 -0.04292819 -0.04933558
v 0.00674510 -0.04394454 -0.04933558
v 0.00882403 -0.04368707 -0.04901898
v 0.00882403 -0.04351089 -0.04953993
v 0.01292860 -0.04270233 -0.04932263
v 0.01324843 -0.04250809 -0.04965938
v 0.01401249 -0.04240420 -0.04932263
v 0.02506461 -0.03847882 -0.04485276
v 0.02541998 -0.03820779 -0.04519095
v 0.02571316 -0.03828910 -0.04414472
v 0.02702805 -0.03740826 -0.04340934
v 0.02702805 -0.03740826 -0.04374465
v 0.02814747 -0.03645514 -0.04286679
v 0.01794825 -0.04064704 -0.05003930
v 0.01864123 -0.04047990 -0.04979753
v 0.01825032 -0.04080514 -0.04940466
v 0.01576270 -0.04160467 -0.04994576
v 0.02070239 -0.03943193 -0.04977019
v 0.02095116 -0.03955841 -0.04907798
v 0.02695697 -0.03731791 -0.04443686
v 0.03155018 -0.03156310 -0.04829655
v 0.03226981 -0.03019440 -0.04993425
v 0.03329150 -0.02914643 -0.04992705
v 0.03429543 -0.02806684 -0.04988388
v 0.03037744 -0.03246200 -0.04933558
v 0.03453531 -0.02752026 -0.05011845
v 0.03554813 -0.02628257 -0.05012709
v 0.03648987 -0.02512619 -0.05004218
v 0.03743161 -0.02395625 -0.04991842
v 0.03852438 -0.02202744 -0.04999901
v 0.03939505 -0.02064068 -0.04969824
v 0.04043451 -0.01854925 -0.04967665
v 0.04182047 -0.01402761 -0.05024366
v 0.04152729 -0.01344941 -0.05087543
v 0.04237130 -0.01091079 -0.05063941
v 0.04248680 -0.00987185 -0.05078764
v 0.04172274 -0.01194973 -0.05108122
v 0.04184712 -0.01091079 -0.05119347
v 0.04196262 -0.00987185 -0.05128989
v 0.04214919 -0.00886905 -0.05129277
v 0.04143845 -0.01637651 -0.04933558
v 0.04155394 -0.01563119 -0.04988100
v 0.04165166 -0.01506654 -0.05001628
v 0.04197150 -0.00778945 -0.05159354
v 0.04213142 -0.00675503 -0.05160505
v 0.04221138 -0.00571609 -0.05168133
v 0.04229134 -0.00467715 -0.05174608
v 0.04245126 -0.00259927 -0.05185690
v 0.04169609 -0.00571609 -0.05201520
v 0.04177605 -0.00467715 -0.05205261
v 0.04184712 -0.00363821 -0.05208715
v 0.04192708 -0.00259927 -0.05211737
v 0.04200704 -0.00156033 -0.05214472
v 0.04254010 -0.00052139 -0.05191158
v 0.04251345 0.00013811 -0.05189431
v 0.04138514 0.00013811 -0.05231597
v 0.04202481 -0.00052139 -0.05214903
v 0.04102088 -0.00259927 -0.05239944
v 0.03998141 -0.00779849 -0.05241239
v 0.03998141 -0.00675503 -0.05243830
v 0.03998141 -0.00571609 -0.05245556
v 0.03894194 -0.01194973 -0.05243830
v 0.03790248 -0.01402761 -0.05245125
v 0.03686301 -0.01610548 -0.05245700
v 0.03583243 -0.01921778 -0.05244837
v 0.03479295 -0.02129566 -0.05244981
v 0.03375349 -0.02233460 -0.05246276
v 0.02959562 -0.02648584 -0.05246276
v 0.02855615 -0.02752026 -0.05246276
v -0.00052229 -0.04102648 -0.05239656
v -0.00675021 -0.03998302 -0.05246996
v -0.01505707 -0.03790514 -0.05245125
v -0.02440340 -0.03271496 -0.05245413
v -0.02544287 -0.03167602 -0.05245700
v -0.02855239 -0.02855920 -0.05245988
v -0.02960074 -0.02752026 -0.05245988
v 0.02232823 -0.03375390 -0.05245988
v 0.01610031 -0.03686620 -0.05245988
v 0.01402137 -0.03790514 -0.05245844
v 0.00882403 -0.03894408 -0.05245844
v 0.00259611 -0.03998302 -0.05245700
v -0.03894706 -0.01091079 -0.05245700
v -0.03894706 -0.01194973 -0.05244693
v -0.03894706 -0.01298415 -0.05243110
v -0.03686813 -0.01610548 -0.05245700
v -0.03790759 -0.01402761 -0.05245700
v -0.04102599 -0.00572061 -0.05227712
v -0.04102599 -0.00675503 -0.05223682
v -0.04102599 -0.00779397 -0.05219509
v -0.04160348 -0.00779397 -0.05197203
v -0.04230534 -0.00468167 -0.05174752
v -0.03894706 -0.01402761 -0.05238073
v -0.03997765 -0.01091079 -0.05234476
v -0.04224315 -0.00572061 -0.05169859
v -0.04218096 -0.00675503 -0.05164679
v -0.04280287 -0.00675503 -0.05112727
v -0.04354915 -0.00259927 -0.05080923
v -0.04343366 -0.00468167 -0.05067251
v -0.04338034 -0.00572061 -0.05059624
v -0.04332704 -0.00675503 -0.05051133
v -0.04362022 -0.00831796 -0.04985510
v -0.04419771 -0.00468167 -0.04933702
v -0.04441982 -0.00468167 -0.04829799
v -0.04427766 -0.01298415 -0.04414472
v -0.04405556 -0.01402761 -0.04414472
v -0.04296279 -0.01714442 -0.04103050
v -0.04266071 -0.01787168 -0.03999146
v -0.04470411 -0.01152963 -0.04138020
v -0.04507726 -0.00987185 -0.03999146
v -0.04143468 -0.02068133 -0.03791339
v -0.04268737 -0.01785813 -0.04103050
v -0.03947124 -0.02183320 -0.04884628
v -0.04144356 -0.02064068 -0.03777811
v -0.02204016 -0.04077803 -0.03777811
v -0.01711824 -0.04174018 -0.04829799
v -0.01609654 -0.04209252 -0.04829799
v -0.01505707 -0.04241775 -0.04829799
v -0.01453290 -0.04258037 -0.04829799
v -0.01401761 -0.04272491 -0.04829799
v -0.01297814 -0.04297787 -0.04829799
v -0.00363181 -0.04582367 -0.04203068
v -0.00264565 -0.04588239 -0.04314311
v -0.00155288 -0.04592756 -0.04414472
v -0.00052229 -0.04583722 -0.04501970
v 0.00009073 -0.04580108 -0.04492616
v 0.00026841 -0.04578753 -0.04489882
v 0.01255545 -0.04260747 -0.04989396
v 0.00571451 -0.04408005 -0.04933558
v 0.00740254 -0.04364641 -0.04989252
v 0.00809552 -0.04358317 -0.04974285
v 0.00776680 -0.04375934 -0.04937300
v 0.02235488 -0.03868660 -0.04930968
v 0.02292348 -0.03846978 -0.04894702
v 0.02629953 -0.03767025 -0.04518232
v 0.02655718 -0.03770639 -0.04411306
v 0.01713977 -0.04082320 -0.05025373
v 0.01713977 -0.04039408 -0.05077181
v 0.01825032 -0.04020436 -0.05038037
v 0.01943193 -0.03930997 -0.05073151
v 0.02000942 -0.03960810 -0.05003787
v 0.01506084 -0.04172211 -0.05009543
v 0.01506084 -0.04128395 -0.05061495
v 0.01661560 -0.04050249 -0.05089413
v 0.02128876 -0.03926028 -0.04938883
v 0.02202616 -0.03855561 -0.05001772
v 0.02271026 -0.03833878 -0.04963923
v 0.02933797 -0.03347384 -0.04933558
v 0.02986215 -0.03298147 -0.04933558
v 0.03052847 -0.03260655 -0.04829655
v 0.03104377 -0.03208257 -0.04829655
v 0.03293613 -0.02876248 -0.05061926
v 0.02916917 -0.03332477 -0.04995583
v 0.02984438 -0.03191543 -0.05064085
v 0.03087496 -0.03086745 -0.05063365
v 0.03362022 -0.02841466 -0.05025085
v 0.03325597 -0.02806684 -0.05091572
v 0.03490845 -0.02662587 -0.05049838
v 0.03401113 -0.02752026 -0.05063797
v 0.03522829 -0.02586248 -0.05082074
v 0.03619668 -0.02471061 -0.05073583
v 0.03762706 -0.02336451 -0.05013428
v 0.03716507 -0.02336451 -0.05065524
v 0.03795578 -0.02241139 -0.05042786
v 0.03828450 -0.02129566 -0.05073727
v 0.03871095 -0.02129566 -0.05021775
v 0.03956385 -0.01994956 -0.04999181
v 0.04057666 -0.01785813 -0.04997454
v 0.04142956 -0.01402761 -0.05076173
v 0.04059443 -0.01583446 -0.05098624
v 0.04073658 -0.01506654 -0.05111288
v 0.04091427 -0.01402761 -0.05125679
v 0.04161613 -0.01275829 -0.05097760
v 0.04112749 -0.01194973 -0.05160073
v 0.04124299 -0.01091079 -0.05171299
v 0.04134071 -0.00987185 -0.05180941
v 0.04143845 -0.00883743 -0.05187992
v 0.04072769 -0.01714442 -0.05017170
v 0.04046116 -0.01653009 -0.05084952
v 0.04125187 -0.01506654 -0.05053580
v 0.04150952 -0.00812824 -0.05191590
v 0.04156282 -0.00743712 -0.05194612
v 0.04082542 -0.00987185 -0.05208427
v 0.04092315 -0.00883743 -0.05211449
v 0.04102088 -0.00675503 -0.05220948
v 0.04102088 -0.00571609 -0.05226704
v 0.04102088 -0.00467715 -0.05231741
v 0.04102088 -0.00363821 -0.05236202
v 0.04218473 0.00013811 -0.05205118
v 0.04198927 0.00013811 -0.05213752
v 0.03998141 -0.01091079 -0.05231885
v 0.03998141 -0.00987185 -0.05235339
v 0.03998141 -0.00883743 -0.05238361
v 0.03894194 -0.01298867 -0.05239368
v 0.03790248 -0.01506654 -0.05242678
v 0.03686301 -0.01714442 -0.05243830
v 0.03686301 -0.01817885 -0.05239656
v 0.03583243 -0.02025672 -0.05239800
v 0.03479295 -0.02233460 -0.05237066
v 0.03375349 -0.02336451 -0.05241383
v 0.03271402 -0.02440345 -0.05243254
v 0.03167455 -0.02544690 -0.05243686
v 0.03063509 -0.02648584 -0.05243973
v 0.02751669 -0.02959814 -0.05244693
v 0.02543775 -0.03167602 -0.05244837
v -0.00052229 -0.04191635 -0.05211881
v -0.00155288 -0.04102648 -0.05238649
v 0.00009073 -0.04102196 -0.05239512
v -0.00778968 -0.03998302 -0.05244117
v -0.01297814 -0.03894408 -0.05242822
v -0.01194755 -0.03894408 -0.05244693
v -0.00259234 -0.04102648 -0.05237066
v -0.00363181 -0.04102648 -0.05235195
v -0.00571075 -0.04102648 -0.05231309
v -0.01609654 -0.03790514 -0.05242534
v -0.02336393 -0.03375390 -0.05244405
v -0.02648233 -0.03167602 -0.05241239
v -0.02752180 -0.03063256 -0.05241239
v -0.03063132 -0.02648132 -0.05245700
v -0.03478919 -0.02129566 -0.05245413
v 0.02440716 -0.03271496 -0.05243973
v 0.02128876 -0.03479284 -0.05243973
v 0.01921871 -0.03583178 -0.05244261
v 0.01506084 -0.03790514 -0.05244549
v 0.01194244 -0.03894408 -0.05243686
v 0.01090297 -0.03894408 -0.05244549
v 0.00986350 -0.03894408 -0.05245268
v 0.00363558 -0.03998302 -0.05245268
v -0.03790759 -0.01506654 -0.05244117
v -0.03582866 -0.02025672 -0.05243110
v -0.03686813 -0.01818336 -0.05241815
v -0.03790759 -0.01610548 -0.05240232
v -0.03582866 -0.01921778 -0.05245125
v -0.04088385 -0.00987185 -0.05211881
v -0.04109707 -0.00879225 -0.05210874
v -0.04155906 -0.00841733 -0.05194612
v -0.03894706 -0.01506654 -0.05227136
v -0.03984438 -0.01402761 -0.05211306
v -0.03997765 -0.01194973 -0.05226560
v -0.03686813 -0.01921778 -0.05234476
v -0.03790759 -0.01714442 -0.05231022
v -0.04211877 -0.00779397 -0.05157771
v -0.04274068 -0.00779397 -0.05105675
v -0.04325597 -0.00779397 -0.05042355
v -0.04322043 -0.00872901 -0.05027244
v -0.04252745 -0.01011126 -0.05083369
v -0.04244749 -0.01091079 -0.05074015
v -0.04282952 -0.01091079 -0.05021919
v -0.04271402 -0.01194973 -0.05006953
v -0.04263406 -0.01270409 -0.04994000
v -0.04355803 -0.00901359 -0.04966514
v -0.04370907 -0.00872901 -0.04932551
v -0.04384233 -0.00779397 -0.04933702
v -0.04408221 -0.00572061 -0.04933702
v -0.04366465 -0.00957823 -0.04897292
v -0.04382456 -0.01403212 -0.04520822
v -0.04370907 -0.01469614 -0.04488442
v -0.04376237 -0.01486327 -0.04414472
v -0.03236377 -0.03325250 -0.03777811
v -0.03785429 -0.02440345 -0.04829799
v -0.03741007 -0.02496809 -0.04891248
v -0.03709024 -0.02553273 -0.04829799
v -0.03657495 -0.02625547 -0.04829799
v -0.03230158 -0.03333381 -0.03791339
v -0.04038633 -0.01949333 -0.04933702
v -0.03935574 -0.02157573 -0.04953993
v -0.03908921 -0.02224426 -0.04925067
v -0.03855615 -0.02305283 -0.04933702
v -0.04049294 -0.01971919 -0.04856566
v -0.02213789 -0.04071479 -0.03777811
v -0.02215566 -0.04071931 -0.03791339
v -0.01817548 -0.04131557 -0.04829799
v -0.01743808 -0.04145109 -0.04933702
v -0.01691390 -0.04165887 -0.04933702
v -0.01609654 -0.04194345 -0.04933702
v -0.01383992 -0.04267523 -0.04911828
v -0.00950436 -0.04365544 -0.04893839
v -0.00155288 -0.04576946 -0.04484844
v -0.00778968 -0.04387678 -0.04933702
v -0.00675021 -0.04403036 -0.04933702
v -0.00052229 -0.04444142 -0.04933702
v 0.00009073 -0.04444142 -0.04933558
v 0.00051717 -0.04443691 -0.04933558
v 0.00155664 -0.04437818 -0.04933558
v 0.00259611 -0.04430591 -0.04933558
v 0.00466616 -0.04416136 -0.04933558
v -0.00571075 -0.04411619 -0.04933702
v -0.00363181 -0.04426977 -0.04933702
v -0.00259234 -0.04434205 -0.04933702
v -0.00155288 -0.04440529 -0.04933702
v 0.01194244 -0.04268426 -0.05000189
v 0.01350608 -0.04154595 -0.05089557
v 0.01392364 -0.04181697 -0.05040915
v 0.00571451 -0.04376385 -0.05007096
v 0.00674510 -0.04370062 -0.04997454
v 0.00674510 -0.04329407 -0.05049406
v 0.01090297 -0.04279268 -0.05014724
v 0.02415840 -0.03756184 -0.04933558
v 0.02468258 -0.03722757 -0.04933558
v 0.02611296 -0.03750763 -0.04597383
v 0.02603300 -0.03640545 -0.04896573
v 0.02715242 -0.03544331 -0.04912835
v 0.02824520 -0.03444502 -0.04933558
v 0.02876049 -0.03399331 -0.04933558
v 0.01817036 -0.03963068 -0.05104236
v 0.01873896 -0.03948613 -0.05091428
v 0.02079124 -0.03843816 -0.05090421
v 0.02119992 -0.03869564 -0.05037030
v 0.01419906 -0.04142850 -0.05077900
v 0.01614473 -0.04000109 -0.05144531
v 0.01713977 -0.03987461 -0.05124815
v 0.01592262 -0.04061994 -0.05100638
v 0.02276356 -0.03733598 -0.05084664
v 0.02335881 -0.03715530 -0.05065092
v 0.02434497 -0.03682555 -0.05033864
v 0.02396295 -0.03743536 -0.04992562
v 0.02148422 -0.03823941 -0.05071281
v 0.02810305 -0.03432306 -0.04992418
v 0.03224315 -0.02912385 -0.05093155
v 0.02845843 -0.03365904 -0.05028539
v 0.02880491 -0.03295888 -0.05064805
v 0.02915140 -0.03226777 -0.05094738
v 0.03018199 -0.03122431 -0.05094594
v 0.03121257 -0.03017634 -0.05093874
v 0.03263406 -0.02847338 -0.05108409
v 0.03348696 -0.02752026 -0.05108841
v 0.03453531 -0.02627806 -0.05109992
v 0.03424213 -0.02696466 -0.05086967
v 0.03550370 -0.02517136 -0.05104956
v 0.03643656 -0.02401949 -0.05097041
v 0.03735165 -0.02279535 -0.05085672
v 0.03841777 -0.02076716 -0.05088694
v 0.03931509 -0.01921778 -0.05072432
v 0.03975042 -0.01921778 -0.05020480
v 0.03755599 -0.02210423 -0.05104524
v 0.04002584 -0.01826015 -0.05042498
v 0.04032790 -0.01714442 -0.05069122
v 0.03981261 -0.01714442 -0.05119779
v 0.04006137 -0.01615066 -0.05131291
v 0.03994587 -0.01515689 -0.05168996
v 0.04023905 -0.01402761 -0.05177631
v 0.04039009 -0.01322807 -0.05186985
v 0.04052336 -0.01253244 -0.05194612
v 0.04102976 -0.01299318 -0.05142372
v 0.04060332 -0.01194973 -0.05199361
v 0.04071881 -0.01091079 -0.05205261
v 0.03961715 -0.01797557 -0.05103661
v 0.03998141 -0.01194973 -0.05223826
v 0.03894194 -0.01402761 -0.05231741
v 0.03790248 -0.01610548 -0.05237209
v 0.03686301 -0.01921778 -0.05228863
v 0.03790248 -0.01714442 -0.05226848
v 0.03583243 -0.02129566 -0.05227568
v 0.03484627 -0.02340968 -0.05215191
v 0.03375349 -0.02440345 -0.05225697
v 0.03271402 -0.02544690 -0.05230302
v 0.03167455 -0.02648584 -0.05231309
v 0.02647721 -0.03167602 -0.05234188
v -0.00052229 -0.04243130 -0.05184107
v -0.00155288 -0.04189828 -0.05211306
v 0.00051717 -0.04102196 -0.05239225
v 0.00009073 -0.04190732 -0.05211737
v 0.00571451 -0.03998302 -0.05243973
v -0.00882915 -0.03998302 -0.05240663
v -0.01401761 -0.03894408 -0.05239656
v -0.00259234 -0.04186214 -0.05210010
v -0.00571075 -0.04174922 -0.05204542
v -0.00675021 -0.04102648 -0.05227568
v -0.00985973 -0.03998302 -0.05237066
v -0.01505707 -0.03894408 -0.05234188
v -0.01713601 -0.03790514 -0.05234907
v -0.02233335 -0.03479284 -0.05240951
v -0.02440340 -0.03375390 -0.05235771
v -0.02544287 -0.03271496 -0.05238937
v -0.02752180 -0.03167602 -0.05225265
v -0.02855239 -0.02959814 -0.05240663
v -0.03271025 -0.02440345 -0.05244405
v -0.03374973 -0.02336902 -0.05243398
v 0.02335881 -0.03375390 -0.05241383
v 0.02024929 -0.03583178 -0.05238649
v 0.01610031 -0.03790514 -0.05239800
v 0.02232823 -0.03479284 -0.05236634
v 0.01298190 -0.03894408 -0.05241959
v 0.00778456 -0.03998302 -0.05242246
v 0.00674510 -0.03998302 -0.05243254
v -0.03478919 -0.02233912 -0.05240520
v -0.03582866 -0.02129566 -0.05234907
v -0.04076835 -0.01091079 -0.05207420
v -0.04065286 -0.01194973 -0.05201376
v -0.04148798 -0.00911297 -0.05190151
v -0.03900925 -0.01610548 -0.05211306
v -0.03965781 -0.01506654 -0.05203823
v -0.03686813 -0.02025672 -0.05221811
v -0.03871607 -0.01714442 -0.05206701
v -0.04046628 -0.01338617 -0.05191446
v -0.04056401 -0.01269505 -0.05196483
v -0.04006649 -0.01302029 -0.05213177
v -0.04196773 -0.00879225 -0.05155324
v -0.04193220 -0.01091079 -0.05125535
v -0.04264295 -0.00883291 -0.05096321
v -0.04258964 -0.00941562 -0.05090565
v -0.04181670 -0.01194973 -0.05116756
v -0.04234088 -0.01194973 -0.05058760
v -0.04226092 -0.01302480 -0.05032137
v -0.04255410 -0.01339521 -0.04976587
v -0.04326485 -0.01091079 -0.04933702
v -0.04348696 -0.00990347 -0.04932551
v -0.04302497 -0.01194973 -0.04933702
v -0.04245638 -0.01406374 -0.04938595
v -0.04212765 -0.01506654 -0.04933702
v -0.04149686 -0.01650299 -0.04972414
v -0.04160348 -0.01679209 -0.04903193
v -0.04136360 -0.01713991 -0.04936292
v -0.04095492 -0.01818336 -0.04933702
v -0.04061732 -0.01896934 -0.04933702
v -0.03230158 -0.03332929 -0.03777811
v -0.03764995 -0.02442603 -0.04928953
v -0.03701027 -0.02537011 -0.04928953
v -0.03646833 -0.02611996 -0.04933702
v -0.03615738 -0.02677042 -0.04829799
v -0.03224827 -0.03329315 -0.03854947
v -0.03119992 -0.03431854 -0.03968061
v -0.03119992 -0.03431854 -0.03912512
v -0.04051959 -0.01873897 -0.04987812
v -0.03950678 -0.02088461 -0.04992562
v -0.03845843 -0.02290376 -0.04989683
v -0.03115550 -0.03426885 -0.03843291
v -0.02601146 -0.03846978 -0.04242787
v -0.02604700 -0.03848333 -0.04310569
v -0.02602035 -0.03846075 -0.04375472
v -0.01981908 -0.04055218 -0.04895134
v -0.01921494 -0.04087741 -0.04829799
v -0.01817548 -0.04114392 -0.04933702
v -0.01668291 -0.04156401 -0.04988964
v -0.01505707 -0.04225513 -0.04933702
v -0.01412422 -0.04249906 -0.04941185
v -0.01343124 -0.04256681 -0.04980905
v -0.01304033 -0.04277009 -0.04941185
v -0.00900684 -0.04355155 -0.04963060
v -0.00873142 -0.04370513 -0.04930536
v -0.00831386 -0.04362383 -0.04985654
v -0.00778968 -0.04367351 -0.04993281
v -0.00675021 -0.04373675 -0.05003787
v -0.00052229 -0.04395357 -0.05031849
v -0.00155288 -0.04393099 -0.05029402
v 0.00009073 -0.04423815 -0.04974141
v 0.00051717 -0.04394454 -0.05029690
v 0.00363558 -0.04384065 -0.05017170
v 0.00466616 -0.04380451 -0.05012709
v -0.00571075 -0.04377741 -0.05009399
v -0.00467128 -0.04381806 -0.05014580
v 0.01090297 -0.04237258 -0.05066675
v 0.01194244 -0.04226417 -0.05051997
v 0.01298190 -0.04161822 -0.05097472
v 0.01392364 -0.04105809 -0.05120354
v 0.01506084 -0.04076448 -0.05114166
v 0.00571451 -0.04337538 -0.05059192
v 0.00466616 -0.04342056 -0.05064805
v 0.00674510 -0.04277460 -0.05108553
v 0.00986350 -0.04247196 -0.05077613
v 0.02584643 -0.03625639 -0.04965794
v 0.02547329 -0.03666745 -0.04932119
v 0.02698362 -0.03529876 -0.04982056
v 0.02750780 -0.03502773 -0.04941905
v 0.01713977 -0.03919252 -0.05176911
v 0.01913875 -0.03895311 -0.05118627
v 0.02024929 -0.03857819 -0.05103517
v 0.02119992 -0.03789611 -0.05116181
v 0.02207058 -0.03754377 -0.05103804
v 0.01636684 -0.03937321 -0.05188136
v 0.01506084 -0.04011853 -0.05166118
v 0.02401625 -0.03643707 -0.05097472
v 0.02470923 -0.03619767 -0.05075166
v 0.02515345 -0.03651838 -0.05005945
v 0.02629064 -0.03556978 -0.05013284
v 0.02769437 -0.03399782 -0.05061638
v 0.03160348 -0.02952135 -0.05109992
v 0.02811193 -0.03330219 -0.05094882
v 0.02850285 -0.03265624 -0.05112151
v 0.03057290 -0.03056933 -0.05111000
v 0.03267848 -0.02749316 -0.05161800
v 0.03165678 -0.02854113 -0.05164103
v 0.03300721 -0.02676139 -0.05182380
v 0.03378903 -0.02652198 -0.05146114
v 0.03401113 -0.02564114 -0.05179214
v 0.03500618 -0.02440345 -0.05176191
v 0.03584131 -0.02438086 -0.05121793
v 0.03664090 -0.02336451 -0.05114022
v 0.03776921 -0.02129566 -0.05121361
v 0.03858657 -0.02007152 -0.05104236
v 0.03944835 -0.01866670 -0.05087687
v 0.03687189 -0.02233912 -0.05144243
v 0.03705846 -0.02129566 -0.05173313
v 0.03879091 -0.01921778 -0.05121361
v 0.03914628 -0.01714442 -0.05171874
v 0.03935063 -0.01610548 -0.05186697
v 0.03945723 -0.01556343 -0.05192741
v 0.03957273 -0.01486779 -0.05199217
v 0.03972376 -0.01402761 -0.05205981
v 0.04001695 -0.01292543 -0.05209723
v 0.03882644 -0.01610548 -0.05210874
v 0.03793802 -0.01815174 -0.05211018
v 0.03689854 -0.02022059 -0.05210586
v 0.03862211 -0.01714442 -0.05203103
v 0.03582354 -0.02227136 -0.05208284
v 0.03654317 -0.02129566 -0.05202671
v 0.03449089 -0.02440345 -0.05202383
v 0.03370018 -0.02535656 -0.05204542
v 0.03547705 -0.02308896 -0.05201088
v 0.03267848 -0.02644519 -0.05207420
v 0.03165678 -0.02749316 -0.05208284
v 0.02752557 -0.03168054 -0.05210586
v 0.02645056 -0.03271496 -0.05209147
v 0.02543775 -0.03271496 -0.05231309
v -0.00052229 -0.04305467 -0.05132011
v -0.00155288 -0.04241775 -0.05182812
v 0.00009073 -0.04242679 -0.05183387
v 0.00155664 -0.04102196 -0.05238217
v 0.00051717 -0.04189828 -0.05211449
v -0.01090809 -0.03998302 -0.05232029
v -0.00363181 -0.04234548 -0.05177055
v -0.00571075 -0.04226869 -0.05170579
v -0.00675021 -0.04169501 -0.05201952
v -0.00778968 -0.04102648 -0.05219797
v -0.01194755 -0.03998302 -0.05224977
v -0.01505707 -0.03975716 -0.05208284
v -0.01609654 -0.03894408 -0.05222675
v -0.02128500 -0.03583178 -0.05232317
v -0.02336393 -0.03479284 -0.05229726
v -0.02546952 -0.03379455 -0.05213177
v -0.02655341 -0.03279627 -0.05216631
v -0.02752180 -0.03244393 -0.05203247
v -0.02847242 -0.03158116 -0.05201952
v -0.02855239 -0.03063256 -0.05224689
v -0.02960074 -0.02855920 -0.05239368
v -0.03063132 -0.02752026 -0.05238073
v -0.03271025 -0.02544239 -0.05234907
v 0.02128876 -0.03583178 -0.05226272
v 0.01921871 -0.03686620 -0.05227280
v 0.01713977 -0.03790514 -0.05228287
v 0.01506084 -0.03894408 -0.05224258
v 0.01402137 -0.03894408 -0.05235626
v 0.02440716 -0.03375390 -0.05226272
v 0.02342100 -0.03486060 -0.05215048
v 0.02227492 -0.03583630 -0.05208427
v 0.01090297 -0.03998302 -0.05229726
v 0.00986350 -0.03998302 -0.05235626
v 0.00882403 -0.03998302 -0.05239944
v 0.00259611 -0.04102196 -0.05236346
v -0.03374973 -0.02440345 -0.05232029
v -0.03588197 -0.02236171 -0.05213752
v -0.03685036 -0.02120080 -0.05205837
v -0.03478919 -0.02336902 -0.05225553
v -0.04129253 -0.01091079 -0.05177199
v -0.03952454 -0.01576218 -0.05196915
v -0.04035967 -0.01402761 -0.05184395
v -0.03751669 -0.02025672 -0.05199649
v -0.03773879 -0.01921778 -0.05209003
v -0.03939128 -0.01645330 -0.05189431
v -0.04095492 -0.01302029 -0.05162088
v -0.04117703 -0.01194973 -0.05168564
v -0.04168344 -0.01298415 -0.05103661
v -0.04158571 -0.01363913 -0.05093443
v -0.04187889 -0.01400050 -0.05043362
v -0.04174563 -0.01506654 -0.05015011
v -0.04162125 -0.01581187 -0.04997742
v -0.03729458 -0.02478740 -0.04960326
v -0.03636172 -0.02598444 -0.04987669
v -0.03604188 -0.02663942 -0.04933702
v -0.03326997 -0.03016278 -0.04891680
v -0.02834805 -0.03670359 -0.04414472
v -0.03009826 -0.03529876 -0.04103050
v -0.04063509 -0.01818336 -0.05002923
v -0.04037744 -0.01737931 -0.05075742
v -0.03938240 -0.01955205 -0.05080635
v -0.03922248 -0.02025672 -0.05062214
v -0.03894706 -0.02129566 -0.05038325
v -0.03964893 -0.02025672 -0.05010119
v -0.03862722 -0.02233912 -0.05010982
v -0.03752557 -0.02409628 -0.05002635
v -0.03816524 -0.02233912 -0.05062790
v -0.03628176 -0.02482806 -0.05083225
v -0.02732634 -0.03762508 -0.04414472
v -0.02718420 -0.03752119 -0.04518088
v -0.01956143 -0.04041666 -0.04964355
v -0.01921494 -0.04070576 -0.04931111
v -0.02184471 -0.03948162 -0.04886643
v -0.02160483 -0.03935514 -0.04955864
v -0.01886845 -0.04058831 -0.04997454
v -0.01817548 -0.04074190 -0.05015875
v -0.01817548 -0.04030825 -0.05067971
v -0.01750027 -0.04044377 -0.05083225
v -0.01609654 -0.04122071 -0.05054299
v -0.01609654 -0.04166339 -0.05002491
v -0.01505707 -0.04181697 -0.05022783
v -0.01273826 -0.04264361 -0.04994432
v -0.01194755 -0.04272491 -0.05005801
v -0.00778968 -0.04326697 -0.05045233
v -0.00675021 -0.04334828 -0.05055594
v -0.00155288 -0.04355155 -0.05081498
v -0.00052229 -0.04356962 -0.05083657
v 0.00009073 -0.04379096 -0.05051997
v 0.00009073 -0.04394906 -0.05030554
v 0.00051717 -0.04355607 -0.05081642
v 0.00363558 -0.04345669 -0.05069122
v -0.00571075 -0.04338893 -0.05061207
v -0.00467128 -0.04342959 -0.05066675
v -0.00259234 -0.04351089 -0.05076749
v 0.01194244 -0.04174470 -0.05110712
v 0.01194244 -0.04113037 -0.05162520
v 0.01293748 -0.04094065 -0.05155180
v 0.01402137 -0.04029470 -0.05180077
v 0.00571451 -0.04285591 -0.05116469
v 0.00466616 -0.04290109 -0.05120930
v 0.00571451 -0.04223255 -0.05168420
v 0.00674510 -0.04214221 -0.05160505
v 0.00986350 -0.04133816 -0.05179789
v 0.01090297 -0.04123878 -0.05172018
v 0.01090297 -0.04185311 -0.05120066
v 0.01849908 -0.03832523 -0.05187848
v 0.02056025 -0.03728178 -0.05187704
v 0.01921871 -0.03814003 -0.05176479
v 0.02023152 -0.03784190 -0.05159642
v 0.02128876 -0.03708302 -0.05174033
v 0.02232823 -0.03686620 -0.05143668
v 0.02335881 -0.03663583 -0.05114022
v 0.01713977 -0.03867305 -0.05204830
v 0.01780610 -0.03850140 -0.05197058
v 0.01325732 -0.04042118 -0.05188424
v 0.01567386 -0.03949517 -0.05195044
v 0.02438051 -0.03584533 -0.05122657
v 0.02517122 -0.03550655 -0.05105100
v 0.02342100 -0.03583630 -0.05169716
v 0.02586420 -0.03524004 -0.05082506
v 0.02550882 -0.03588598 -0.05044225
v 0.02700139 -0.03427789 -0.05089557
v 0.02741895 -0.03369066 -0.05108409
v 0.02752557 -0.03271496 -0.05165974
v 0.02855615 -0.03168054 -0.05166550
v 0.02788094 -0.03202836 -0.05185690
v 0.03198551 -0.02782743 -0.05184250
v 0.03331816 -0.02607027 -0.05197490
v 0.03428655 -0.02495002 -0.05194036
v 0.03522829 -0.02378008 -0.05189431
v 0.03582354 -0.02340968 -0.05169140
v 0.03617003 -0.02257401 -0.05183819
v 0.03812458 -0.01921778 -0.05173313
v 0.03726280 -0.02054582 -0.05186121
v 0.03638325 -0.02188289 -0.05195188
v 0.03831115 -0.01847698 -0.05186265
v 0.03848884 -0.01779037 -0.05196627
v 0.03760041 -0.01921778 -0.05204110
v 0.03744049 -0.01985018 -0.05196339
v 0.03231423 -0.02713179 -0.05198641
v 0.03129253 -0.02818428 -0.05199073
v 0.02924025 -0.03028475 -0.05199793
v 0.02820966 -0.03133272 -0.05200224
v 0.02718796 -0.03236714 -0.05200656
v 0.02608631 -0.03333381 -0.05197778
v 0.02534890 -0.03370873 -0.05204686
v -0.00155288 -0.04303660 -0.05131004
v 0.00051717 -0.04303660 -0.05130860
v 0.00051717 -0.04241775 -0.05182955
v 0.00155664 -0.04186666 -0.05210154
v -0.00259234 -0.04299594 -0.05128269
v -0.00363181 -0.04295529 -0.05125247
v -0.00467128 -0.04291463 -0.05122081
v -0.00571075 -0.04287398 -0.05118483
v -0.00675021 -0.04282881 -0.05114166
v -0.00675021 -0.04221448 -0.05166118
v -0.00778968 -0.04160467 -0.05196915
v -0.01090809 -0.04074641 -0.05205549
v -0.01401761 -0.03988364 -0.05212169
v -0.01609654 -0.03958551 -0.05200369
v -0.01194755 -0.04063800 -0.05200369
v -0.01339570 -0.04047538 -0.05191878
v -0.01401761 -0.04040763 -0.05187704
v -0.01705605 -0.03895311 -0.05206701
v -0.02128500 -0.03670810 -0.05207996
v -0.01817548 -0.03790514 -0.05221092
v -0.02238665 -0.03590405 -0.05213752
v -0.02336393 -0.03559689 -0.05205837
v -0.02437674 -0.03479284 -0.05209003
v -0.02626023 -0.03347835 -0.05202959
v -0.02695320 -0.03319829 -0.05191446
v -0.02806375 -0.03222259 -0.05194324
v -0.02909433 -0.03117462 -0.05193893
v -0.02933421 -0.03063256 -0.05202959
v -0.03040921 -0.02940391 -0.05204542
v -0.03070240 -0.02863148 -0.05215623
v -0.03172409 -0.02756544 -0.05214040
v -0.03273691 -0.02650391 -0.05212457
v 0.02128876 -0.03656355 -0.05203247
v 0.02023152 -0.03690686 -0.05210298
v 0.01604700 -0.03899377 -0.05210154
v 0.01402137 -0.03977523 -0.05208715
v 0.01293748 -0.04003722 -0.05210874
v 0.01194244 -0.03998302 -0.05222387
v 0.02440716 -0.03450374 -0.05202527
v 0.02311005 -0.03548848 -0.05201664
v 0.02189290 -0.03639642 -0.05195907
v 0.00986350 -0.04081869 -0.05209435
v 0.00882403 -0.04090903 -0.05212457
v 0.00571451 -0.04102196 -0.05226416
v 0.00466616 -0.04102196 -0.05230734
v 0.00363558 -0.04102196 -0.05233756
v 0.00259611 -0.04183504 -0.05208715
v -0.03375861 -0.02543335 -0.05210010
v -0.03649498 -0.02203647 -0.05200081
v -0.03475365 -0.02431762 -0.05205549
v -0.03551771 -0.02336902 -0.05202240
v -0.03739230 -0.02079426 -0.05193605
v -0.03439828 -0.02508102 -0.05199073
v -0.04017310 -0.01506654 -0.05171299
v -0.04083054 -0.01506654 -0.05119347
v -0.04108819 -0.01400050 -0.05126254
v -0.03924025 -0.01714442 -0.05179933
v -0.03991546 -0.01610548 -0.05160217
v -0.04147021 -0.01433025 -0.05081930
v -0.04135472 -0.01506654 -0.05066963
v -0.04121257 -0.01613710 -0.05034439
v -0.03509126 -0.02777774 -0.04933702
v -0.03654829 -0.02544239 -0.05008392
v -0.03606853 -0.02544239 -0.05060199
v -0.03534890 -0.02601606 -0.05093011
v -0.03571316 -0.02634581 -0.05025661
v -0.03439828 -0.02819332 -0.04999901
v -0.03311894 -0.02998662 -0.04961045
v -0.03226604 -0.03123786 -0.04898732
v -0.02785052 -0.03721854 -0.04414472
v -0.04079500 -0.01707667 -0.05039620
v -0.04052847 -0.01668819 -0.05092148
v -0.03953343 -0.01886093 -0.05096177
v -0.03853838 -0.02102012 -0.05099775
v -0.03836958 -0.02171124 -0.05084520
v -0.03744561 -0.02293990 -0.05094594
v -0.03652163 -0.02413694 -0.05103804
v -0.02770837 -0.03705592 -0.04518088
v -0.02914763 -0.03433209 -0.04897436
v -0.02804598 -0.03531683 -0.04883045
v -0.02703316 -0.03741278 -0.04575220
v -0.02310629 -0.03859174 -0.04933702
v -0.02091185 -0.03954034 -0.04995727
v -0.02292860 -0.03847882 -0.04992274
v -0.02224450 -0.03911573 -0.04926219
v -0.02025441 -0.03971651 -0.05016019
v -0.01925936 -0.04001012 -0.05041347
v -0.01965028 -0.03942741 -0.05085096
v -0.01895730 -0.03960810 -0.05102222
v -0.01817548 -0.03978878 -0.05118340
v -0.01680729 -0.04057025 -0.05096177
v -0.01505707 -0.04140140 -0.05074591
v -0.01438186 -0.04150077 -0.05085096
v -0.01403537 -0.04190732 -0.05045233
v -0.01304033 -0.04225965 -0.05032425
v -0.01194755 -0.04230030 -0.05057897
v -0.00778968 -0.04274299 -0.05105963
v -0.01090809 -0.04240872 -0.05070849
v -0.00933556 -0.04258037 -0.05088982
v -0.00864258 -0.04265716 -0.05096609
v 0.00259611 -0.04296884 -0.05126110
v 0.01256434 -0.04053411 -0.05195044
v 0.00466616 -0.04228675 -0.05172881
v 0.00571451 -0.04171308 -0.05202815
v 0.00674510 -0.04162274 -0.05197922
v 0.00739365 -0.04156401 -0.05194612
v 0.00882403 -0.04142850 -0.05186409
v 0.01090297 -0.04071931 -0.05205118
v 0.01194244 -0.04061090 -0.05199361
v 0.01986727 -0.03745343 -0.05196483
v 0.02258587 -0.03617960 -0.05183531
v 0.01921871 -0.03762056 -0.05204110
v 0.01506084 -0.03959906 -0.05200512
v 0.02440716 -0.03502321 -0.05176911
v 0.02564209 -0.03402944 -0.05179933
v 0.02645056 -0.03370873 -0.05159354
v 0.02647721 -0.03448116 -0.05105531
v 0.02380303 -0.03524907 -0.05190295
v 0.02677928 -0.03305826 -0.05184395
v 0.02494911 -0.03429596 -0.05194180
v 0.00259611 -0.04235451 -0.05178062
v 0.00466616 -0.04176729 -0.05205693
v -0.00778968 -0.04212414 -0.05157915
v -0.00832274 -0.04154595 -0.05193605
v -0.01665625 -0.03947710 -0.05194036
v -0.01505707 -0.04027663 -0.05176767
v -0.01403537 -0.04110327 -0.05129708
v -0.01090809 -0.04126588 -0.05174896
v -0.01194755 -0.04115295 -0.05165398
v -0.01194755 -0.04178083 -0.05113590
v -0.01817548 -0.03856464 -0.05199361
v -0.02005007 -0.03755280 -0.05200656
v -0.02207570 -0.03650031 -0.05200081
v -0.02275980 -0.03630156 -0.05191014
v -0.02400360 -0.03539362 -0.05197490
v -0.02514080 -0.03444502 -0.05200369
v -0.02752180 -0.03296340 -0.05178350
v -0.02583378 -0.03416948 -0.05188568
v -0.02852573 -0.03268786 -0.05141941
v -0.02875673 -0.03186574 -0.05177918
v -0.03110219 -0.02901995 -0.05191014
v -0.03342100 -0.02617416 -0.05201088
v -0.03141314 -0.02832883 -0.05203535
v -0.03532225 -0.02391108 -0.05194036
v -0.03625511 -0.02272759 -0.05188568
v -0.03718796 -0.02148086 -0.05182524
v -0.03788094 -0.02125049 -0.05141221
v -0.03803198 -0.02025672 -0.05166837
v -0.03411398 -0.02577665 -0.05185690
v -0.03508237 -0.02460220 -0.05181085
v -0.04064397 -0.01610548 -0.05102797
v -0.03968446 -0.01818336 -0.05109992
v -0.04001318 -0.01707667 -0.05122081
v -0.03870719 -0.02025672 -0.05114886
v -0.03555324 -0.02544239 -0.05108841
v -0.03475365 -0.02543335 -0.05162664
v -0.03473589 -0.02640905 -0.05111432
v -0.03435386 -0.02709114 -0.05095745
v -0.03303898 -0.02886637 -0.05073151
v -0.03341212 -0.02930001 -0.05003930
v -0.03242596 -0.03036154 -0.05006953
v -0.03209724 -0.03105266 -0.04967953
v -0.03107553 -0.03211418 -0.04970111
v -0.03004495 -0.03316667 -0.04972270
v -0.03020487 -0.03332477 -0.04903049
v -0.03764995 -0.02233912 -0.05111000
v -0.03685036 -0.02236171 -0.05166406
v -0.02960074 -0.03375842 -0.04934997
v -0.02897883 -0.03418754 -0.04966945
v -0.02676663 -0.03615701 -0.04933702
v -0.02624246 -0.03655000 -0.04933702
v -0.02485650 -0.03734050 -0.04973421
v -0.02363046 -0.03826199 -0.04933702
v -0.02025441 -0.03926028 -0.05068115
v -0.02233335 -0.03863692 -0.05011414
v -0.02416352 -0.03755732 -0.05006233
v -0.02490092 -0.03633318 -0.05087974
v -0.02365711 -0.03724112 -0.05075598
v -0.02233335 -0.03816713 -0.05063365
v -0.02168479 -0.03835686 -0.05082793
v -0.02605588 -0.03642352 -0.04995152
v -0.02099181 -0.03854205 -0.05100495
v -0.02025441 -0.03874533 -0.05116613
v -0.01817548 -0.03908863 -0.05170435
v -0.01734923 -0.03930545 -0.05184538
v -0.01707382 -0.03996495 -0.05140358
v -0.01609654 -0.04070124 -0.05108409
v -0.01505707 -0.04088193 -0.05125103
v -0.01368888 -0.04159112 -0.05094594
v -0.01090809 -0.04188925 -0.05122801
v -0.01297814 -0.04167242 -0.05102653
v 0.00363558 -0.04231838 -0.05175616
v -0.01609654 -0.04010498 -0.05160505
v -0.01869965 -0.03842913 -0.05193317
v -0.02074305 -0.03737212 -0.05192597
v -0.02238665 -0.03685265 -0.05168564
v -0.02336393 -0.03611636 -0.05178638
v -0.02128500 -0.03722757 -0.05184682
v -0.02469658 -0.03514066 -0.05184826
v -0.02655341 -0.03379455 -0.05175760
v -0.02546952 -0.03479284 -0.05168708
v -0.02752180 -0.03377649 -0.05126110
v -0.02829474 -0.03344674 -0.05106107
v -0.02933421 -0.03246200 -0.05108553
v -0.02956520 -0.03163537 -0.05141941
v -0.03172409 -0.02863148 -0.05175760
v -0.02984950 -0.03063256 -0.05179358
v -0.03210612 -0.02794487 -0.05189143
v -0.03311005 -0.02686528 -0.05187416
v -0.03603300 -0.02336902 -0.05174752
v -0.03375861 -0.02650391 -0.05168420
v -0.03270137 -0.02853662 -0.05120210
v -0.03234600 -0.02925032 -0.05101070
v -0.03103111 -0.03102104 -0.05079340
v -0.03272802 -0.02962073 -0.05040196
v -0.03002719 -0.03210063 -0.05081930
v -0.03140426 -0.03142306 -0.05010119
v -0.03038256 -0.03247555 -0.05012853
v -0.02935197 -0.03349643 -0.05013428
v -0.02828586 -0.03447212 -0.05007528
v -0.02544287 -0.03662680 -0.05017602
v -0.02544287 -0.03614798 -0.05069698
v -0.02606477 -0.03539814 -0.05096321
v -0.02544287 -0.03562399 -0.05114166
v -0.02445670 -0.03586340 -0.05145970
v -0.02420794 -0.03654549 -0.05106970
v -0.02296413 -0.03746246 -0.05096177
v -0.02233335 -0.03765218 -0.05112439
v -0.02641126 -0.03576854 -0.05033000
v -0.02034326 -0.03790062 -0.05172881
v -0.02131165 -0.03796838 -0.05130860
v -0.01939263 -0.03824844 -0.05183963
v -0.02332839 -0.03688427 -0.05123232
v -0.02643791 -0.03477929 -0.05118483
v -0.02898772 -0.03315764 -0.05082793
v -0.02718420 -0.03442243 -0.05101214
v -0.03033814 -0.03140500 -0.05106251
v -0.03066686 -0.03065967 -0.05128413
v -0.02968958 -0.03281434 -0.05047823
v -0.02787718 -0.03413786 -0.05076893
v -0.02675775 -0.03511356 -0.05070849
f 1 2 3
f 1 3 4
f 1 4 13
f 1 13 12
f 1 12 24
f 1 24 53
f 1 53 52
f 1 52 103
f 1 103 185
f 1 185 284
f 1 284 417
f 1 417 418
f 1 418 285
f 1 285 186
f 1 186 104
f 1 104 54
f 1 54 25
f 1 25 14
f 1 14 5
f 1 5 15
f 1 15 6
f 1 6 7
f 1 7 2
f 2 7 8
f 2 8 3
f 3 9 10
f 3 10 11
f 3 11 12
f 3 12 13
f 3 13 4
f 3 8 9
f 5 14 15
f 6 15 27
f 6 27 65
f 6 65 124
f 6 124 223
f 6 223 342
f 6 342 487
f 6 487 644
f 6 644 498
f 6 498 343
f 6 343 224
f 6 224 125
f 6 125 66
f 6 66 28
f 6 28 16
f 6 16 7
f 7 16 8
f 8 17 9
f 8 16 18
f 8 18 19
f 8 19 20
f 8 20 21
f 8 21 17
f 9 17 10
f 10 17 22
f 10 22 11
f 11 22 23
f 11 23 12
f 12 23 24
f 14 25 15
f 15 26 27
f 15 25 26
f 16 28 29
f 16 29 30
f 16 30 31
f 16 31 32
f 16 32 33
f 16 33 34
f 16 34 35
f 16 35 36
f 16 36 37
f 16 37 18
f 17 21 38
f 17 38 39
f 17 39 40
f 17 40 41
f 17 41 42
f 17 42 22
f 18 43 20
f 18 20 19
f 18 37 44
f 18 44 43
f 20 43 45
f 20 45 21
f 21 39 38
f 21 45 92
f 21 92 46
f 21 46 39
f 22 42 41
f 22 41 47
f 22 47 48
f 22 48 49
f 22 49 50
f 22 50 23
f 23 50 51
f 23 51 52
f 23 52 53
f 23 53 24
f 25 54 55
f 25 55 56
f 25 56 57
f 25 57 58
f 25 58 59
f 25 59 60
f 25 60 61
f 25 61 62
f 25 62 63
f 25 63 64
f 25 64 26
f 26 64 27
f 27 64 121
f 27 121 65
f 28 66 29
f 29 66 67
f 29 67 128
f 29 128 68
f 29 68 69
f 29 69 30
f 30 70 71
f 30 71 31
f 30 69 72
f 30 72 73
f 30 73 74
f 30 74 70
f 31 71 75
f 31 75 32
f 32 75 76
f 32 76 33
f 33 76 77
f 33 77 78
f 33 78 79
f 33 79 80
f 33 80 81
f 33 81 34
f 34 81 82
f 34 82 35
f 35 82 81
f 35 81 83
f 35 83 84
f 35 84 85
f 35 85 86
f 35 86 36
f 36 44 37
f 36 86 44
f 39 87 40
f 39 46 88
f 39 88 89
f 39 89 87
f 40 87 90
f 40 90 91
f 40 91 41
f 41 91 47
f 43 92 45
f 43 44 92
f 44 93 92
f 44 86 93
f 46 92 93
f 46 93 94
f 46 94 95
f 46 95 96
f 46 96 88
f 47 49 48
f 47 91 168
f 47 168 97
f 47 97 98
f 47 98 99
f 47 99 100
f 47 100 49
f 49 100 50
f 50 100 101
f 50 101 51
f 51 101 102
f 51 102 103
f 51 103 52
f 54 104 105
f 54 105 106
f 54 106 55
f 55 107 56
f 55 106 108
f 55 108 107
f 56 109 110
f 56 110 57
f 56 107 111
f 56 111 112
f 56 112 113
f 56 113 109
f 57 110 58
f 58 110 59
f 59 114 115
f 59 115 60
f 59 110 114
f 60 115 116
f 60 116 61
f 61 116 62
f 62 116 117
f 62 117 118
f 62 118 119
f 62 119 120
f 62 120 63
f 63 120 65
f 63 65 121
f 63 121 64
f 65 122 123
f 65 123 124
f 65 120 122
f 66 125 126
f 66 126 127
f 66 127 128
f 66 128 67
f 68 128 129
f 68 129 69
f 69 129 130
f 69 130 131
f 69 131 132
f 69 132 72
f 70 133 134
f 70 134 71
f 70 74 135
f 70 135 133
f 71 76 75
f 71 134 136
f 71 136 137
f 71 137 76
f 72 132 73
f 73 132 74
f 74 138 139
f 74 139 140
f 74 140 141
f 74 141 135
f 74 132 142
f 74 142 138
f 76 137 77
f 77 137 143
f 77 143 78
f 78 144 145
f 78 145 146
f 78 146 147
f 78 147 148
f 78 148 79
f 78 143 144
f 79 148 81
f 79 81 80
f 81 148 149
f 81 149 150
f 81 150 151
f 81 151 152
f 81 152 85
f 81 85 83
f 83 85 84
f 85 152 153
f 85 153 154
f 85 154 155
f 85 155 156
f 85 156 157
f 85 157 158
f 85 158 86
f 86 158 157
f 86 157 93
f 87 89 159
f 87 159 90
f 88 96 160
f 88 160 161
f 88 161 89
f 89 161 162
f 89 162 159
f 90 159 163
f 90 163 164
f 90 164 165
f 90 165 166
f 90 166 167
f 90 167 91
f 91 167 169
f 91 169 168
f 93 156 94
f 93 157 156
f 94 170 96
f 94 96 95
f 94 156 155
f 94 155 170
f 96 170 171
f 96 171 172
f 96 172 173
f 96 173 174
f 96 174 175
f 96 175 176
f 96 176 160
f 97 168 169
f 97 169 98
f 98 169 99
f 99 169 177
f 99 177 100
f 100 177 178
f 100 178 179
f 100 179 180
f 100 180 181
f 100 181 182
f 100 182 183
f 100 183 101
f 101 183 184
f 101 184 102
f 102 184 103
f 103 184 185
f 104 186 187
f 104 187 105
f 105 187 188
f 105 188 189
f 105 189 190
f 105 190 191
f 105 191 192
f 105 192 193
f 105 193 108
f 105 108 106
f 107 108 194
f 107 194 195
f 107 195 196
f 107 196 111
f 108 193 197
f 108 197 311
f 108 311 194
f 109 198 110
f 109 113 199
f 109 199 198
f 110 198 200
f 110 200 201
f 110 201 202
f 110 202 203
f 110 203 204
f 110 204 205
f 110 205 114
f 111 196 206
f 111 206 112
f 112 206 113
f 113 206 199
f 114 205 204
f 114 204 207
f 114 207 208
f 114 208 209
f 114 209 210
f 114 210 117
f 114 117 211
f 114 211 116
f 114 116 115
f 116 211 117
f 117 210 212
f 117 212 118
f 118 212 213
f 118 213 214
f 118 214 215
f 118 215 216
f 118 216 119
f 119 216 120
f 120 216 122
f 122 217 218
f 122 218 219
f 122 219 220
f 122 220 123
f 122 216 221
f 122 221 217
f 123 220 124
f 124 220 222
f 124 222 223
f 125 224 126
f 126 224 127
f 127 224 225
f 127 225 226
f 127 226 129
f 127 129 128
f 129 226 130
f 130 226 227
f 130 227 131
f 131 228 229
f 131 229 230
f 131 230 132
f 131 227 231
f 131 231 232
f 131 232 233
f 131 233 228
f 132 230 234
f 132 234 235
f 132 235 236
f 132 236 142
f 133 237 238
f 133 238 239
f 133 239 134
f 133 135 141
f 133 141 237
f 134 239 240
f 134 240 136
f 136 240 241
f 136 241 242
f 136 242 143
f 136 143 137
f 138 142 139
f 139 243 244
f 139 244 245
f 139 245 140
f 139 142 246
f 139 246 243
f 140 245 141
f 141 245 244
f 141 244 247
f 141 247 248
f 141 248 237
f 142 236 246
f 143 242 144
f 144 242 249
f 144 249 250
f 144 250 145
f 145 251 252
f 145 252 253
f 145 253 146
f 145 250 254
f 145 254 251
f 146 253 147
f 147 253 149
f 147 149 148
f 149 255 256
f 149 256 257
f 149 257 258
f 149 258 150
f 149 253 255
f 150 258 151
f 151 258 152
f 152 258 154
f 152 154 153
f 154 258 259
f 154 259 260
f 154 260 155
f 155 260 261
f 155 261 171
f 155 171 170
f 159 162 163
f 160 176 175
f 160 175 164
f 160 164 161
f 161 163 162
f 161 164 163
f 164 175 262
f 164 262 263
f 164 263 264
f 164 264 165
f 165 264 166
f 166 264 265
f 166 265 167
f 167 265 266
f 167 266 267
f 167 267 268
f 167 268 169
f 169 268 269
f 169 269 177
f 171 261 270
f 171 270 172
f 172 270 261
f 172 261 271
f 172 271 173
f 173 271 174
f 174 271 175
f 175 271 272
f 175 272 262
f 177 269 273
f 177 273 274
f 177 274 275
f 177 275 178
f 178 275 179
f 179 275 276
f 179 276 180
f 180 276 277
f 180 277 181
f 181 277 182
f 182 277 278
f 182 278 279
f 182 279 280
f 182 280 281
f 182 281 282
f 182 282 283
f 182 283 183
f 183 283 184
f 184 283 185
f 185 283 284
f 186 285 286
f 186 286 187
f 187 286 188
f 188 286 282
f 188 282 287
f 188 287 288
f 188 288 289
f 188 289 290
f 188 290 189
f 189 290 190
f 190 290 289
f 190 289 291
f 190 291 292
f 190 292 293
f 190 293 192
f 190 192 191
f 192 293 294
f 192 294 295
f 192 295 296
f 192 296 297
f 192 297 298
f 192 298 193
f 193 299 300
f 193 300 301
f 193 301 302
f 193 302 303
f 193 303 304
f 193 304 305
f 193 305 197
f 193 298 306
f 193 306 307
f 193 307 308
f 193 308 309
f 193 309 310
f 193 310 299
f 194 311 195
f 195 311 196
f 196 311 312
f 196 312 313
f 196 313 206
f 197 314 315
f 197 315 311
f 197 305 314
f 198 199 316
f 198 316 317
f 198 317 318
f 198 318 200
f 199 206 316
f 200 318 201
f 201 319 320
f 201 320 203
f 201 203 202
f 201 318 319
f 203 320 207
f 203 207 204
f 206 313 321
f 206 321 322
f 206 322 318
f 206 318 317
f 206 317 316
f 207 320 208
f 208 320 209
f 209 320 323
f 209 323 324
f 209 324 325
f 209 325 210
f 210 326 213
f 210 213 212
f 210 325 326
f 213 326 327
f 213 327 328
f 213 328 329
f 213 329 214
f 214 329 330
f 214 330 215
f 215 331 332
f 215 332 221
f 215 221 216
f 215 330 331
f 217 221 218
f 218 221 332
f 218 332 333
f 218 333 334
f 218 334 219
f 219 334 335
f 219 335 336
f 219 336 337
f 219 337 338
f 219 338 220
f 220 338 336
f 220 336 222
f 222 339 223
f 222 336 335
f 222 335 340
f 222 340 341
f 222 341 339
f 223 339 342
f 224 343 344
f 224 344 345
f 224 345 346
f 224 346 225
f 225 346 347
f 225 347 348
f 225 348 349
f 225 349 350
f 225 350 351
f 225 351 226
f 226 351 352
f 226 352 353
f 226 353 354
f 226 354 227
f 227 355 231
f 227 354 355
f 228 233 229
f 229 233 356
f 229 356 230
f 230 356 234
f 231 357 358
f 231 358 359
f 231 359 360
f 231 360 232
f 231 355 357
f 232 360 359
f 232 359 233
f 233 359 356
f 234 356 235
f 235 356 246
f 235 246 236
f 237 248 238
f 238 248 361
f 238 361 362
f 238 362 363
f 238 363 239
f 239 363 364
f 239 364 241
f 239 241 240
f 241 364 249
f 241 249 242
f 243 246 365
f 243 365 366
f 243 366 367
f 243 367 368
f 243 368 369
f 243 369 244
f 244 369 247
f 246 356 370
f 246 370 371
f 246 371 372
f 246 372 365
f 247 373 248
f 247 369 374
f 247 374 375
f 247 375 361
f 247 361 373
f 248 373 361
f 249 364 363
f 249 363 376
f 249 376 377
f 249 377 254
f 249 254 378
f 249 378 379
f 249 379 250
f 250 379 254
f 251 380 252
f 251 254 381
f 251 381 382
f 251 382 383
f 251 383 380
f 252 384 253
f 252 380 384
f 253 384 385
f 253 385 255
f 254 379 378
f 254 377 381
f 255 386 256
f 255 385 387
f 255 387 386
f 256 386 388
f 256 388 389
f 256 389 257
f 257 389 258
f 258 390 259
f 258 389 391
f 258 391 390
f 259 390 392
f 259 392 393
f 259 393 394
f 259 394 395
f 259 395 260
f 260 395 261
f 261 396 271
f 261 395 396
f 262 272 397
f 262 397 263
f 263 397 398
f 263 398 399
f 263 399 400
f 263 400 401
f 263 401 264
f 264 401 266
f 264 266 265
f 266 401 402
f 266 402 267
f 267 402 403
f 267 403 268
f 268 403 404
f 268 404 269
f 269 404 405
f 269 405 273
f 271 396 406
f 271 406 407
f 271 407 408
f 271 408 272
f 272 408 397
f 273 405 274
f 274 405 275
f 275 405 409
f 275 409 276
f 276 409 277
f 277 409 410
f 277 410 278
f 278 410 411
f 278 411 412
f 278 412 279
f 279 412 413
f 279 413 280
f 280 413 281
f 281 413 414
f 281 414 282
f 282 286 283
f 282 414 415
f 282 415 416
f 282 416 287
f 283 286 417
f 283 417 284
f 285 418 286
f 286 418 417
f 287 416 419
f 287 419 420
f 287 420 421
f 287 421 288
f 288 421 291
f 288 291 289
f 291 421 420
f 291 420 419
f 291 419 422
f 291 422 423
f 291 423 292
f 292 423 424
f 292 424 294
f 292 294 293
f 294 425 426
f 294 426 295
f 294 424 425
f 295 426 427
f 295 427 428
f 295 428 429
f 295 429 296
f 296 429 430
f 296 430 431
f 296 431 432
f 296 432 433
f 296 433 297
f 297 433 298
f 298 433 306
f 299 434 435
f 299 435 300
f 299 310 436
f 299 436 434
f 300 437 438
f 300 438 439
f 300 439 301
f 300 435 440
f 300 440 441
f 300 441 442
f 300 442 437
f 301 439 438
f 301 438 443
f 301 443 444
f 301 444 302
f 302 444 445
f 302 445 303
f 303 445 304
f 304 445 305
f 305 445 446
f 305 446 447
f 305 447 448
f 305 448 314
f 306 449 450
f 306 450 451
f 306 451 452
f 306 452 307
f 306 433 449
f 307 452 308
f 308 452 453
f 308 453 454
f 308 454 455
f 308 455 309
f 309 455 456
f 309 456 310
f 310 456 436
f 311 315 312
f 312 315 457
f 312 457 313
f 313 457 458
f 313 458 459
f 313 459 460
f 313 460 321
f 314 448 315
f 315 448 461
f 315 461 457
f 318 322 462
f 318 462 463
f 318 463 319
f 319 323 320
f 319 463 464
f 319 464 323
f 321 465 466
f 321 466 467
f 321 467 322
f 321 460 468
f 321 468 469
f 321 469 465
f 322 467 462
f 323 464 324
f 324 464 470
f 324 470 325
f 325 471 328
f 325 328 327
f 325 327 326
f 325 470 471
f 328 471 329
f 329 471 472
f 329 472 330
f 330 472 473
f 330 473 474
f 330 474 475
f 330 475 476
f 330 476 477
f 330 477 478
f 330 478 479
f 330 479 480
f 330 480 481
f 330 481 482
f 330 482 331
f 331 482 332
f 332 482 481
f 332 481 333
f 333 481 480
f 333 480 483
f 333 483 484
f 333 484 334
f 334 484 485
f 334 485 486
f 334 486 335
f 335 486 340
f 336 338 337
f 339 487 342
f 339 341 488
f 339 488 489
f 339 489 490
f 339 490 491
f 339 491 492
f 339 492 487
f 340 486 341
f 341 493 494
f 341 494 495
f 341 495 496
f 341 496 489
f 341 489 488
f 341 486 485
f 341 485 497
f 341 497 493
f 343 498 499
f 343 499 344
f 344 499 500
f 344 500 501
f 344 501 502
f 344 502 503
f 344 503 345
f 345 503 346
f 346 503 347
f 347 503 504
f 347 504 348
f 348 504 349
f 349 504 505
f 349 505 350
f 350 505 351
f 351 505 352
f 352 506 353
f 352 505 507
f 352 507 508
f 352 508 506
f 353 509 510
f 353 510 511
f 353 511 512
f 353 512 513
f 353 513 514
f 353 514 357
f 353 357 354
f 353 506 508
f 353 508 515
f 353 515 516
f 353 516 517
f 353 517 518
f 353 518 509
f 354 357 355
f 356 519 520
f 356 520 521
f 356 521 370
f 356 359 519
f 357 514 522
f 357 522 523
f 357 523 358
f 358 523 524
f 358 524 525
f 358 525 519
f 358 519 359
f 361 375 526
f 361 526 362
f 362 526 363
f 363 526 527
f 363 527 528
f 363 528 529
f 363 529 530
f 363 530 531
f 363 531 532
f 363 532 376
f 365 372 366
f 366 533 534
f 366 534 367
f 366 372 533
f 367 534 368
f 368 534 535
f 368 535 536
f 368 536 369
f 369 536 374
f 370 537 371
f 370 521 537
f 371 537 372
f 372 538 539
f 372 539 533
f 372 537 520
f 372 520 540
f 372 540 538
f 374 541 542
f 374 542 543
f 374 543 544
f 374 544 375
f 374 536 545
f 374 545 541
f 375 544 526
f 376 532 546
f 376 546 381
f 376 381 377
f 380 547 385
f 380 385 384
f 380 383 552
f 380 552 547
f 381 546 548
f 381 548 549
f 381 549 382
f 382 549 550
f 382 550 551
f 382 551 552
f 382 552 383
f 385 547 553
f 385 553 554
f 385 554 555
f 385 555 556
f 385 556 387
f 386 387 388
f 387 556 388
f 388 557 389
f 388 556 555
f 388 555 557
f 389 558 391
f 389 557 558
f 390 391 559
f 390 559 392
f 391 558 559
f 392 559 393
f 393 560 561
f 393 561 562
f 393 562 395
f 393 395 394
f 393 559 563
f 393 563 560
f 395 562 396
f 396 562 564
f 396 564 565
f 396 565 406
f 397 408 398
f 398 408 407
f 398 407 566
f 398 566 567
f 398 567 399
f 399 567 568
f 399 568 569
f 399 569 400
f 400 569 570
f 400 570 571
f 400 571 572
f 400 572 401
f 401 572 402
f 402 572 571
f 402 571 403
f 403 571 573
f 403 573 404
f 404 573 405
f 405 573 574
f 405 574 409
f 406 565 407
f 407 565 575
f 407 575 566
f 409 574 410
f 410 574 411
f 411 574 419
f 411 419 412
f 412 419 413
f 413 419 414
f 414 419 415
f 415 419 416
f 419 576 577
f 419 577 422
f 419 574 576
f 422 577 578
f 422 578 423
f 423 578 425
f 423 425 424
f 425 579 426
f 425 578 580
f 425 580 579
f 426 579 581
f 426 581 427
f 427 581 582
f 427 582 583
f 427 583 584
f 427 584 428
f 428 584 429
f 429 584 585
f 429 585 586
f 429 586 430
f 430 586 431
f 431 586 432
f 432 586 433
f 433 586 449
f 434 587 588
f 434 588 435
f 434 436 589
f 434 589 590
f 434 590 587
f 435 588 440
f 436 456 591
f 436 591 589
f 437 592 593
f 437 593 438
f 437 442 592
f 438 593 443
f 440 588 441
f 441 588 442
f 442 588 594
f 442 594 595
f 442 595 596
f 442 596 597
f 442 597 592
f 443 593 598
f 443 598 599
f 443 599 600
f 443 600 444
f 444 600 601
f 444 601 602
f 444 602 445
f 445 603 446
f 445 602 603
f 446 603 604
f 446 604 447
f 447 605 448
f 447 604 605
f 448 458 461
f 448 605 606
f 448 606 458
f 449 607 450
f 449 586 607
f 450 608 609
f 450 609 451
f 450 607 610
f 450 610 608
f 451 609 452
f 452 609 611
f 452 611 453
f 453 611 612
f 453 612 613
f 453 613 454
f 454 613 591
f 454 591 455
f 455 591 456
f 457 461 458
f 458 606 614
f 458 614 615
f 458 615 468
f 458 468 459
f 459 468 460
f 462 616 464
f 462 464 463
f 462 467 616
f 464 616 617
f 464 617 618
f 464 618 470
f 465 619 620
f 465 620 466
f 465 469 621
f 465 621 622
f 465 622 619
f 466 620 623
f 466 623 624
f 466 624 617
f 466 617 625
f 466 625 467
f 467 625 616
f 468 615 621
f 468 621 469
f 470 618 626
f 470 626 471
f 471 626 627
f 471 627 628
f 471 628 472
f 472 628 473
f 473 628 629
f 473 629 474
f 474 629 627
f 474 627 630
f 474 630 475
f 475 630 631
f 475 631 476
f 476 631 477
f 477 631 478
f 478 631 632
f 478 632 633
f 478 633 479
f 479 634 635
f 479 635 483
f 479 483 480
f 479 633 634
f 483 635 634
f 483 634 484
f 484 634 636
f 484 636 633
f 484 633 637
f 484 637 485
f 485 637 638
f 485 638 639
f 485 639 640
f 485 640 641
f 485 641 642
f 485 642 643
f 485 643 493
f 485 493 497
f 487 492 644
f 489 496 645
f 489 645 646
f 489 646 647
f 489 647 491
f 489 491 490
f 491 647 648
f 491 648 649
f 491 649 492
f 492 649 650
f 492 650 651
f 492 651 644
f 493 643 652
f 493 652 494
f 494 652 653
f 494 653 654
f 494 654 495
f 495 654 496
f 496 654 645
f 498 644 655
f 498 655 499
f 499 656 657
f 499 657 658
f 499 658 659
f 499 659 660
f 499 660 500
f 499 655 656
f 500 660 659
f 500 659 501
f 501 661 662
f 501 662 502
f 501 659 661
f 502 662 503
f 503 663 504
f 503 662 663
f 504 663 664
f 504 664 665
f 504 665 666
f 504 666 505
f 505 666 667
f 505 667 668
f 505 668 507
f 507 668 669
f 507 669 508
f 508 669 670
f 508 670 671
f 508 671 515
f 509 672 510
f 509 518 673
f 509 673 672
f 510 672 674
f 510 674 511
f 511 675 676
f 511 676 512
f 511 674 675
f 512 676 677
f 512 677 522
f 512 522 513
f 513 522 514
f 515 671 516
f 516 671 517
f 517 671 678
f 517 678 679
f 517 679 518
f 518 679 673
f 519 525 680
f 519 680 681
f 519 681 520
f 520 682 683
f 520 683 684
f 520 684 540
f 520 537 521
f 520 681 682
f 522 685 523
f 522 677 686
f 522 686 685
f 523 685 524
f 524 687 688
f 524 688 680
f 524 680 525
f 524 685 687
f 526 544 527
f 527 544 689
f 527 689 690
f 527 690 529
f 527 529 528
f 529 690 689
f 529 689 691
f 529 691 530
f 530 691 692
f 530 692 531
f 531 692 546
f 531 546 532
f 533 539 693
f 533 693 694
f 533 694 695
f 533 695 534
f 534 695 535
f 535 696 697
f 535 697 545
f 535 545 536
f 535 695 696
f 538 698 539
f 538 540 684
f 538 684 699
f 538 699 698
f 539 698 693
f 541 545 697
f 541 697 700
f 541 700 542
f 542 700 543
f 543 700 701
f 543 701 702
f 543 702 544
f 544 702 689
f 546 692 691
f 546 691 703
f 546 703 704
f 546 704 548
f 547 705 553
f 547 552 705
f 548 704 706
f 548 706 549
f 549 706 550
f 550 706 707
f 550 707 551
f 551 708 552
f 551 707 708
f 552 708 705
f 553 709 554
f 553 705 710
f 553 710 709
f 554 709 711
f 554 711 712
f 554 712 555
f 555 712 713
f 555 713 557
f 557 713 714
f 557 714 715
f 557 715 558
f 558 715 716
f 558 716 563
f 558 563 559
f 560 563 717
f 560 717 718
f 560 718 575
f 560 575 719
f 560 719 561
f 561 719 564
f 561 564 562
f 563 716 720
f 563 720 721
f 563 721 717
f 564 719 565
f 565 719 575
f 566 575 722
f 566 722 723
f 566 723 567
f 567 723 724
f 567 724 568
f 568 724 569
f 569 724 570
f 570 724 725
f 570 725 571
f 571 725 726
f 571 726 727
f 571 727 728
f 571 728 573
f 573 728 576
f 573 576 574
f 575 718 722
f 576 728 727
f 576 727 729
f 576 729 577
f 577 729 580
f 577 580 578
f 579 580 730
f 579 730 731
f 579 731 581
f 580 729 732
f 580 732 730
f 581 733 582
f 581 731 734
f 581 734 733
f 582 735 736
f 582 736 583
f 582 733 737
f 582 737 735
f 583 736 584
f 584 738 739
f 584 739 585
f 584 736 738
f 585 739 740
f 585 740 586
f 586 740 741
f 586 741 742
f 586 742 607
f 587 743 744
f 587 744 588
f 587 590 745
f 587 745 743
f 588 744 594
f 589 746 590
f 589 591 613
f 589 613 612
f 589 612 746
f 590 746 747
f 590 747 745
f 592 597 593
f 593 597 748
f 593 748 598
f 594 744 595
f 595 744 749
f 595 749 750
f 595 750 751
f 595 751 596
f 596 751 752
f 596 752 753
f 596 753 748
f 596 748 597
f 598 754 755
f 598 755 599
f 598 748 753
f 598 753 754
f 599 756 600
f 599 755 756
f 600 756 757
f 600 757 601
f 601 757 758
f 601 758 759
f 601 759 603
f 601 603 602
f 603 759 760
f 603 760 761
f 603 761 762
f 603 762 604
f 604 762 763
f 604 763 606
f 604 606 605
f 606 763 764
f 606 764 765
f 606 765 614
f 607 742 610
f 608 610 766
f 608 766 767
f 608 767 768
f 608 768 609
f 609 768 769
f 609 769 770
f 609 770 611
f 610 742 771
f 610 771 772
f 610 772 773
f 610 773 766
f 611 774 775
f 611 775 776
f 611 776 612
f 611 770 774
f 612 776 777
f 612 777 746
f 614 765 778
f 614 778 615
f 615 779 780
f 615 780 621
f 615 778 781
f 615 781 779
f 616 625 617
f 617 624 618
f 618 624 782
f 618 782 627
f 618 627 626
f 619 622 620
f 620 622 783
f 620 783 784
f 620 784 623
f 621 785 786
f 621 786 622
f 621 780 785
f 622 786 785
f 622 785 787
f 622 787 783
f 623 784 788
f 623 788 789
f 623 789 624
f 624 789 782
f 627 782 789
f 627 789 630
f 627 629 628
f 630 790 631
f 630 789 788
f 630 788 790
f 631 790 791
f 631 791 632
f 632 792 633
f 632 791 792
f 633 792 793
f 633 793 794
f 633 794 639
f 633 639 638
f 633 638 637
f 633 636 634
f 639 652 642
f 639 642 641
f 639 641 640
f 639 794 652
f 642 652 643
f 644 651 655
f 645 795 646
f 645 654 795
f 646 795 796
f 646 796 647
f 647 796 797
f 647 797 798
f 647 798 648
f 648 798 649
f 649 798 650
f 650 798 799
f 650 799 800
f 650 800 651
f 651 800 656
f 651 656 655
f 652 794 801
f 652 801 802
f 652 802 803
f 652 803 804
f 652 804 805
f 652 805 806
f 652 806 653
f 653 806 805
f 653 805 807
f 653 807 654
f 654 808 796
f 654 796 795
f 654 807 809
f 654 809 810
f 654 810 808
f 656 800 811
f 656 811 657
f 657 811 658
f 658 811 812
f 658 812 659
f 659 813 814
f 659 814 661
f 659 812 815
f 659 815 816
f 659 816 813
f 661 814 817
f 661 817 662
f 662 817 818
f 662 818 819
f 662 819 820
f 662 820 821
f 662 821 822
f 662 822 665
f 662 665 663
f 663 665 664
f 665 822 823
f 665 823 824
f 665 824 669
f 665 669 667
f 665 667 666
f 667 669 668
f 669 824 825
f 669 825 670
f 670 825 826
f 670 826 827
f 670 827 671
f 671 827 834
f 671 834 678
f 672 673 828
f 672 828 829
f 672 829 830
f 672 830 831
f 672 831 674
f 673 679 828
f 674 831 675
f 675 832 833
f 675 833 676
f 675 831 830
f 675 830 832
f 676 833 686
f 676 686 677
f 678 834 835
f 678 835 679
f 679 835 836
f 679 836 828
f 680 688 837
f 680 837 681
f 681 837 682
f 682 837 838
f 682 838 839
f 682 839 683
f 683 839 840
f 683 840 684
f 684 840 699
f 685 841 687
f 685 686 841
f 686 833 842
f 686 842 841
f 687 841 843
f 687 843 844
f 687 844 845
f 687 845 846
f 687 846 847
f 687 847 837
f 687 837 688
f 689 702 691
f 691 702 703
f 693 698 848
f 693 848 849
f 693 849 850
f 693 850 694
f 694 850 851
f 694 851 695
f 695 851 852
f 695 852 696
f 696 852 697
f 697 853 854
f 697 854 700
f 697 852 853
f 698 855 856
f 698 856 848
f 698 699 840
f 698 840 857
f 698 857 858
f 698 858 855
f 700 859 860
f 700 860 701
f 700 854 861
f 700 861 859
f 701 860 862
f 701 862 863
f 701 863 702
f 702 863 703
f 703 863 862
f 703 862 864
f 703 864 704
f 704 864 706
f 705 708 710
f 706 864 865
f 706 865 866
f 706 866 707
f 707 867 708
f 707 866 868
f 707 868 867
f 708 867 710
f 709 710 869
f 709 869 711
f 710 867 868
f 710 868 869
f 711 869 870
f 711 870 713
f 711 713 712
f 713 870 871
f 713 871 714
f 714 872 873
f 714 873 715
f 714 871 872
f 715 873 716
f 716 873 874
f 716 874 720
f 717 721 875
f 717 875 722
f 717 722 718
f 720 874 721
f 721 876 875
f 721 874 877
f 721 877 876
f 722 875 723
f 723 875 878
f 723 878 879
f 723 879 724
f 724 879 725
f 725 879 732
f 725 732 726
f 726 732 729
f 726 729 727
f 730 732 879
f 730 879 880
f 730 880 731
f 731 880 734
f 733 734 877
f 733 877 737
f 734 880 881
f 734 881 877
f 735 737 871
f 735 871 736
f 736 870 738
f 736 871 870
f 737 872 871
f 737 877 874
f 737 874 872
f 738 882 739
f 738 870 882
f 739 882 883
f 739 883 884
f 739 884 740
f 740 884 885
f 740 885 886
f 740 886 741
f 741 886 887
f 741 887 888
f 741 888 771
f 741 771 742
f 743 829 889
f 743 889 744
f 743 745 890
f 743 890 829
f 744 889 749
f 745 747 891
f 745 891 890
f 746 777 747
f 747 777 892
f 747 892 891
f 749 889 893
f 749 893 894
f 749 894 750
f 750 894 895
f 750 895 896
f 750 896 897
f 750 897 898
f 750 898 751
f 751 898 899
f 751 899 900
f 751 900 752
f 752 900 753
f 753 900 901
f 753 901 754
f 754 902 755
f 754 901 900
f 754 900 903
f 754 903 904
f 754 904 905
f 754 905 902
f 755 902 906
f 755 906 907
f 755 907 908
f 755 908 756
f 756 907 909
f 756 909 757
f 756 908 907
f 757 910 911
f 757 911 758
f 757 909 910
f 758 912 760
f 758 760 759
f 758 911 912
f 760 912 913
f 760 913 914
f 760 914 761
f 761 914 915
f 761 915 916
f 761 916 762
f 762 916 917
f 762 917 918
f 762 918 919
f 762 919 920
f 762 920 765
f 762 765 764
f 762 764 763
f 765 920 778
f 766 921 922
f 766 922 767
f 766 773 921
f 767 922 768
f 768 855 923
f 768 923 769
f 768 922 855
f 769 923 924
f 769 924 770
f 770 924 925
f 770 925 926
f 770 926 774
f 771 888 927
f 771 927 772
f 772 928 773
f 772 927 928
f 773 928 929
f 773 929 921
f 774 930 775
f 774 926 930
f 775 930 931
f 775 931 932
f 775 932 776
f 776 932 933
f 776 933 934
f 776 934 777
f 777 934 935
f 777 935 892
f 778 920 936
f 778 936 781
f 779 937 780
f 779 781 938
f 779 938 939
f 779 939 937
f 780 937 940
f 780 940 785
f 781 941 938
f 781 936 941
f 783 787 784
f 784 787 942
f 784 942 943
f 784 943 944
f 784 944 788
f 785 940 787
f 787 945 946
f 787 946 942
f 787 940 945
f 788 944 790
f 790 944 943
f 790 943 791
f 791 943 947
f 791 947 792
f 792 947 948
f 792 948 793
f 793 948 794
f 794 948 949
f 794 949 801
f 796 950 797
f 796 808 951
f 796 951 952
f 796 952 953
f 796 953 954
f 796 954 955
f 796 955 956
f 796 956 950
f 797 950 798
f 798 956 957
f 798 957 799
f 798 950 956
f 799 958 800
f 799 957 958
f 800 958 811
f 801 949 959
f 801 959 802
f 802 959 960
f 802 960 803
f 803 960 961
f 803 961 962
f 803 962 963
f 803 963 804
f 804 963 805
f 805 963 807
f 807 963 809
f 808 810 951
f 809 963 964
f 809 964 810
f 810 952 951
f 810 964 965
f 810 965 953
f 810 953 952
f 811 958 812
f 812 958 966
f 812 966 967
f 812 967 968
f 812 968 969
f 812 969 970
f 812 970 815
f 813 971 817
f 813 817 814
f 813 816 972
f 813 972 971
f 815 970 973
f 815 973 816
f 816 973 972
f 817 971 974
f 817 974 975
f 817 975 819
f 817 819 818
f 819 975 976
f 819 976 977
f 819 977 978
f 819 978 820
f 820 978 979
f 820 979 821
f 821 980 822
f 821 979 980
f 822 980 823
f 823 980 981
f 823 981 982
f 823 982 824
f 824 982 981
f 824 981 983
f 824 983 984
f 824 984 825
f 825 984 826
f 826 985 827
f 826 984 986
f 826 986 987
f 826 987 988
f 826 988 985
f 827 897 834
f 827 985 897
f 828 889 829
f 828 836 896
f 828 896 895
f 828 895 894
f 828 894 893
f 828 893 889
f 829 890 832
f 829 832 830
f 832 890 989
f 832 989 842
f 832 842 833
f 834 897 835
f 835 897 836
f 836 897 896
f 837 847 846
f 837 846 838
f 838 990 839
f 838 846 990
f 839 990 857
f 839 857 840
f 841 842 991
f 841 991 843
f 842 989 1009
f 842 1009 991
f 843 992 993
f 843 993 994
f 843 994 995
f 843 995 845
f 843 845 844
f 843 991 992
f 845 996 997
f 845 997 846
f 845 995 996
f 846 997 990
f 848 856 849
f 849 921 929
f 849 929 852
f 849 852 851
f 849 851 850
f 849 856 998
f 849 998 921
f 852 929 999
f 852 999 853
f 853 999 854
f 854 999 861
f 855 922 1000
f 855 1000 856
f 855 858 923
f 856 1000 998
f 857 990 858
f 858 1001 923
f 858 990 1001
f 859 861 1002
f 859 1002 860
f 860 1002 1003
f 860 1003 1004
f 860 1004 1005
f 860 1005 864
f 860 864 862
f 861 1006 1002
f 861 999 1006
f 864 1005 865
f 865 1005 1004
f 865 1004 1007
f 865 1007 866
f 866 1007 868
f 868 1007 886
f 868 886 885
f 868 885 884
f 868 884 883
f 868 883 869
f 869 882 870
f 869 883 882
f 872 874 873
f 875 876 878
f 876 881 879
f 876 879 878
f 876 877 881
f 879 881 880
f 886 1007 887
f 887 1007 1008
f 887 1008 927
f 887 927 888
f 890 891 1009
f 890 1009 989
f 891 892 935
f 891 935 1010
f 891 1010 1009
f 897 985 898
f 898 985 1011
f 898 1011 899
f 899 1011 1012
f 899 1012 904
f 899 904 903
f 899 903 900
f 902 1013 906
f 902 905 1014
f 902 1014 1013
f 904 1012 905
f 905 1015 1014
f 905 1012 1016
f 905 1016 1017
f 905 1017 1018
f 905 1018 1015
f 906 1019 1020
f 906 1020 907
f 906 1013 1019
f 907 1021 910
f 907 910 909
f 907 1020 1021
f 910 1021 1022
f 910 1022 1023
f 910 1023 911
f 911 1023 1024
f 911 1024 912
f 912 1024 913
f 913 1025 914
f 913 1024 1026
f 913 1026 1025
f 914 1027 1028
f 914 1028 915
f 914 1025 1027
f 915 917 916
f 915 1028 1029
f 915 1029 1030
f 915 1030 1031
f 915 1031 917
f 917 1031 920
f 917 920 919
f 917 919 918
f 920 1030 936
f 920 1031 1030
f 921 998 1000
f 921 1000 922
f 923 1001 924
f 924 1001 990
f 924 990 997
f 924 997 925
f 925 997 926
f 926 997 996
f 926 996 930
f 927 1008 1006
f 927 1006 928
f 928 1006 999
f 928 999 929
f 930 996 992
f 930 992 931
f 931 992 932
f 932 992 1010
f 932 1010 933
f 933 1010 934
f 934 1010 935
f 936 1030 941
f 937 939 941
f 937 941 1032
f 937 1032 1033
f 937 1033 1034
f 937 1034 940
f 938 941 939
f 940 1034 1035
f 940 1035 1036
f 940 1036 945
f 941 1037 1038
f 941 1038 1032
f 941 1030 1037
f 942 946 1039
f 942 1039 943
f 943 1039 947
f 945 1040 1041
f 945 1041 946
f 945 1036 1042
f 945 1042 1040
f 946 1041 1039
f 947 1039 948
f 948 1039 960
f 948 960 949
f 949 960 959
f 953 1043 1044
f 953 1044 1037
f 953 1037 1045
f 953 1045 1046
f 953 1046 1047
f 953 1047 1048
f 953 1048 955
f 953 955 954
f 953 965 1043
f 955 1048 956
f 956 1048 1049
f 956 1049 1050
f 956 1050 957
f 957 1050 1051
f 957 1051 1052
f 957 1052 1053
f 957 1053 966
f 957 966 958
f 960 1039 1041
f 960 1041 1040
f 960 1040 961
f 961 1040 962
f 962 1042 1036
f 962 1036 1035
f 962 1035 963
f 962 1040 1042
f 963 1035 1054
f 963 1054 964
f 964 1054 965
f 965 1055 1043
f 965 1054 1055
f 966 1053 967
f 967 1053 1056
f 967 1056 1057
f 967 1057 968
f 968 1057 1058
f 968 1058 969
f 969 1058 1059
f 969 1059 1060
f 969 1060 1061
f 969 1061 970
f 970 1061 1060
f 970 1060 972
f 970 972 973
f 971 1062 974
f 971 972 1063
f 971 1063 1062
f 972 1064 1065
f 972 1065 1066
f 972 1066 1067
f 972 1067 1068
f 972 1068 1063
f 972 1060 1069
f 972 1069 1064
f 974 1062 976
f 974 976 975
f 976 1062 1068
f 976 1068 1070
f 976 1070 977
f 977 1070 1071
f 977 1071 1072
f 977 1072 978
f 978 1072 1073
f 978 1073 1013
f 978 1013 1074
f 978 1074 979
f 979 1074 1075
f 979 1075 980
f 980 1076 981
f 980 1075 1076
f 981 1077 983
f 981 1076 1077
f 983 1077 984
f 984 1077 986
f 985 988 1018
f 985 1018 1078
f 985 1078 1011
f 986 1077 1079
f 986 1079 987
f 987 1079 988
f 988 1079 1018
f 991 1009 1080
f 991 1080 1010
f 991 1010 992
f 992 996 993
f 993 996 994
f 994 996 995
f 1002 1006 1003
f 1003 1007 1004
f 1003 1006 1008
f 1003 1008 1007
f 1009 1010 1080
f 1011 1078 1016
f 1011 1016 1012
f 1013 1014 1081
f 1013 1081 1074
f 1013 1073 1082
f 1013 1082 1019
f 1014 1076 1081
f 1014 1015 1076
f 1015 1018 1079
f 1015 1079 1077
f 1015 1077 1076
f 1016 1078 1018
f 1016 1018 1017
f 1019 1082 1020
f 1020 1082 1083
f 1020 1083 1021
f 1021 1083 1022
f 1022 1084 1085
f 1022 1085 1023
f 1022 1083 1086
f 1022 1086 1084
f 1023 1085 1087
f 1023 1087 1024
f 1024 1087 1026
f 1025 1026 1088
f 1025 1088 1089
f 1025 1089 1090
f 1025 1090 1091
f 1025 1091 1027
f 1026 1087 1089
f 1026 1089 1088
f 1027 1091 1092
f 1027 1092 1028
f 1028 1092 1093
f 1028 1093 1094
f 1028 1094 1095
f 1028 1095 1029
f 1029 1094 1096
f 1029 1096 1030
f 1029 1095 1094
f 1030 1096 1097
f 1030 1097 1037
f 1032 1038 1033
f 1033 1098 1055
f 1033 1055 1034
f 1033 1038 1098
f 1034 1054 1035
f 1034 1055 1054
f 1037 1099 1045
f 1037 1044 1038
f 1037 1097 1099
f 1038 1043 1098
f 1038 1044 1043
f 1043 1055 1098
f 1045 1099 1100
f 1045 1100 1101
f 1045 1101 1046
f 1046 1101 1102
f 1046 1102 1047
f 1047 1102 1103
f 1047 1103 1048
f 1048 1103 1049
f 1049 1103 1102
f 1049 1102 1104
f 1049 1104 1105
f 1049 1105 1050
f 1050 1105 1051
f 1051 1105 1106
f 1051 1106 1052
f 1052 1106 1107
f 1052 1107 1057
f 1052 1057 1056
f 1052 1056 1053
f 1057 1107 1108
f 1057 1108 1069
f 1057 1069 1058
f 1058 1069 1059
f 1059 1069 1060
f 1062 1063 1068
f 1064 1069 1109
f 1064 1109 1065
f 1065 1109 1110
f 1065 1110 1111
f 1065 1111 1112
f 1065 1112 1113
f 1065 1113 1114
f 1065 1114 1115
f 1065 1115 1066
f 1066 1115 1067
f 1067 1115 1068
f 1068 1115 1116
f 1068 1116 1070
f 1069 1117 1110
f 1069 1110 1109
f 1069 1108 1117
f 1070 1116 1071
f 1071 1118 1072
f 1071 1116 1119
f 1071 1119 1084
f 1071 1084 1086
f 1071 1086 1118
f 1072 1118 1120
f 1072 1120 1073
f 1073 1120 1082
f 1074 1081 1075
f 1075 1081 1076
f 1082 1120 1083
f 1083 1120 1086
f 1084 1119 1116
f 1084 1116 1085
f 1085 1113 1087
f 1085 1116 1121
f 1085 1121 1113
f 1086 1120 1118
f 1087 1112 1089
f 1087 1113 1112
f 1089 1112 1122
f 1089 1122 1090
f 1090 1122 1091
f 1091 1123 1092
f 1091 1122 1124
f 1091 1124 1123
f 1092 1104 1125
f 1092 1125 1093
f 1092 1123 1104
f 1093 1125 1126
f 1093 1126 1094
f 1094 1097 1096
f 1094 1126 1099
f 1094 1099 1097
f 1099 1126 1100
f 1100 1126 1125
f 1100 1125 1101
f 1101 1125 1104
f 1101 1104 1102
f 1104 1127 1106
f 1104 1106 1105
f 1104 1123 1127
f 1106 1127 1107
f 1107 1127 1123
f 1107 1123 1108
f 1108 1123 1128
f 1108 1128 1117
f 1110 1117 1111
f 1111 1117 1129
f 1111 1129 1128
f 1111 1128 1124
f 1111 1124 1122
f 1111 1122 1112
f 1113 1121 1114
f 1114 1121 1116
f 1114 1116 1115
f 1117 1128 1129
f 1123 1124 1128

