# https://github.com/mikedh/trimesh
v 0.03555549 -0.03115436 -0.00053039
v 0.03435625 -0.03115436 0.00754451
v 0.03431405 -0.03121110 0.00754451
v 0.03544647 -0.03127959 -0.00052267
v 0.03546405 -0.03133438 -0.00155999
v 0.03555197 -0.03115436 -0.00155999
v 0.03483806 -0.03032079 -0.01303221
v 0.03448637 -0.03028557 -0.00688156
v 0.02988986 -0.03115436 0.00754451
v 0.02927089 -0.02755399 -0.03185050
v 0.03385334 -0.03172963 0.00754451
v 0.03345594 -0.03216794 0.00754451
v 0.03333285 -0.03230296 0.00754451
v 0.03280884 -0.03282344 0.00754451
v 0.03229186 -0.03333415 0.00754451
v 0.03175027 -0.03385464 0.00754451
v 0.03135286 -0.03423033 0.00754451
v 0.03122977 -0.03434578 0.00754451
v 0.03446879 -0.03239492 -0.00259731
v 0.03339615 -0.03343003 -0.00467581
v 0.03428239 -0.03117001 -0.01351038
v 0.03481695 -0.03032079 -0.01396541
v 0.03482750 -0.03032079 -0.01351424
v -0.00037256 -0.04301602 0.00754451
v 0.02927089 -0.03444361 -0.03185050
v 0.00009518 -0.04005941 -0.03185050
v 0.03023803 -0.03523022 0.00754451
v 0.03237978 -0.03444165 -0.00571313
v 0.03232351 -0.03442209 -0.00651522
v 0.02927089 -0.03667624 -0.01713136
v 0.02910209 -0.03533784 -0.02912416
v 0.02927089 -0.03511673 -0.02926685
v -0.00037256 -0.04261685 -0.00397398
v -0.00037256 -0.04754193 0.00754451
v -0.00035146 -0.04194569 -0.01575469
v 0.02615146 -0.03756654 -0.03185050
v 0.00009518 -0.04537192 -0.03185050
v 0.03001998 -0.03541611 0.00754451
v 0.02898251 -0.03627902 0.00754451
v 0.02858511 -0.03659210 0.00754451
v 0.03126143 -0.03540632 -0.00703581
v 0.03014307 -0.03638468 -0.00940738
v 0.02714321 -0.03855273 -0.01401940
v -0.00037256 -0.04591197 -0.00397398
v 0.00650990 -0.04704492 0.00754451
v -0.00035146 -0.04679642 -0.01476365
v -0.00035146 -0.04687664 -0.01402326
v 0.00212088 -0.04674358 -0.01664162
v 0.00364015 -0.04684925 -0.00882894
v 0.00623910 -0.04673576 -0.00623372
v -0.00035146 -0.04640898 -0.01575469
v 0.02308125 -0.04065034 -0.01817639
v 0.01587876 -0.04370088 -0.03185050
v 0.02648556 -0.03899300 -0.01401940
v 0.01073714 -0.04514885 -0.03185050
v 0.00009518 -0.04571826 -0.02918972
v -0.00035146 -0.04662031 -0.01526881
v 0.02778679 -0.03721042 0.00754451
v 0.03012197 -0.03636316 -0.00830065
v 0.03013956 -0.03637881 -0.00882894
v 0.02716782 -0.03857034 -0.01298208
v 0.00674201 -0.04698817 0.00754451
v 0.01090946 -0.04608808 -0.00052267
v 0.01350489 -0.04569674 0.00206484
v 0.01350489 -0.04569674 0.00207255
v 0.00205406 -0.04674358 -0.01664162
v 0.00027805 -0.04571630 -0.02916273
v 0.01090946 -0.04513124 -0.03167697
v 0.02100280 -0.04166197 -0.02025103
v 0.01882236 -0.04265990 -0.02336685
v 0.01582953 -0.04374392 -0.03167697
v 0.02524763 -0.03962502 -0.01505672
v 0.02391475 -0.04051924 -0.01043698
v 0.01581898 -0.04373023 -0.03185050
v 0.02648556 -0.03902626 -0.01298208
v 0.01091650 -0.04510385 -0.03185050
v 0.02728036 -0.03759981 0.00754451
v 0.01884698 -0.04370283 0.00754451
v 0.01667708 -0.04468707 0.00537347
v 0.01872740 -0.04375567 0.00754451
v 0.01667708 -0.04468707 0.00504569
v 0.01358930 -0.04469881 -0.02925913
v 0.01270305 -0.04476534 -0.03063965
v 0.01670522 -0.04366566 -0.02544534
v 0.01666653 -0.04365783 -0.02605848
f 1 2 3
f 1 3 4
f 1 4 5
f 1 5 6
f 1 6 7
f 1 7 8
f 1 8 2
f 2 9 24
f 2 24 34
f 2 34 45
f 2 45 62
f 2 62 80
f 2 80 78
f 2 78 77
f 2 77 58
f 2 58 40
f 2 40 39
f 2 39 38
f 2 38 27
f 2 27 18
f 2 18 17
f 2 17 16
f 2 16 15
f 2 15 14
f 2 14 13
f 2 13 12
f 2 12 11
f 2 11 3
f 2 8 10
f 2 10 9
f 3 11 4
f 4 11 12
f 4 12 13
f 4 13 14
f 4 14 15
f 4 15 16
f 4 16 17
f 4 17 18
f 4 18 19
f 4 19 5
f 5 19 20
f 5 20 21
f 5 21 22
f 5 22 6
f 6 22 23
f 6 23 7
f 7 23 10
f 7 10 8
f 9 10 24
f 10 25 36
f 10 36 53
f 10 53 74
f 10 74 76
f 10 76 55
f 10 55 37
f 10 37 26
f 10 26 24
f 10 23 22
f 10 22 25
f 18 27 19
f 19 28 20
f 19 27 28
f 20 28 29
f 20 29 30
f 20 30 31
f 20 31 32
f 20 32 21
f 21 32 22
f 22 32 25
f 24 33 44
f 24 44 34
f 24 26 35
f 24 35 33
f 25 32 31
f 25 31 36
f 26 37 51
f 26 51 35
f 27 38 28
f 28 38 39
f 28 39 40
f 28 40 41
f 28 41 42
f 28 42 30
f 28 30 29
f 30 36 31
f 30 42 43
f 30 43 36
f 33 35 51
f 33 51 44
f 34 44 46
f 34 46 47
f 34 47 48
f 34 48 49
f 34 49 50
f 34 50 45
f 36 52 53
f 36 43 54
f 36 54 52
f 37 55 56
f 37 56 46
f 37 46 57
f 37 57 51
f 40 58 41
f 41 59 60
f 41 60 42
f 41 58 59
f 42 60 61
f 42 61 43
f 43 61 54
f 44 51 57
f 44 57 46
f 45 50 63
f 45 63 64
f 45 64 65
f 45 65 62
f 46 56 47
f 47 56 66
f 47 66 48
f 48 66 56
f 48 56 67
f 48 67 55
f 48 55 50
f 48 50 49
f 50 55 68
f 50 68 63
f 52 69 70
f 52 70 71
f 52 71 53
f 52 54 72
f 52 72 73
f 52 73 69
f 53 71 74
f 54 61 75
f 54 75 73
f 54 73 72
f 55 67 56
f 55 76 68
f 58 77 59
f 59 77 60
f 60 77 78
f 60 78 61
f 61 78 75
f 62 65 79
f 62 79 80
f 63 68 64
f 64 81 79
f 64 79 65
f 64 68 82
f 64 82 81
f 68 76 74
f 68 74 83
f 68 83 82
f 69 84 70
f 69 73 84
f 70 84 85
f 70 85 71
f 71 82 74
f 71 85 82
f 73 75 78
f 73 78 84
f 74 82 83
f 78 80 79
f 78 79 81
f 78 81 84
f 81 82 84
f 82 85 84

