# https://github.com/mikedh/trimesh
v 0.00009221 -0.04419951 0.04970858
v 0.00009221 -0.04742882 0.04970858
v 0.00009221 -0.04418733 0.04932933
v 0.00008866 -0.04007306 -0.03178839
v 0.00008511 -0.04421778 0.05036814
v 0.00008511 -0.04427258 0.05079686
v 0.00008511 -0.04435377 0.05140695
v 0.00008511 -0.04456689 0.05202529
v 0.00008511 -0.04517784 0.05231385
v 0.00008511 -0.04621909 0.05237156
v 0.00007445 -0.04848428 0.03299696
v 0.00008155 -0.04855126 0.03019383
v 0.00009221 -0.04742679 0.04955194
v 0.00008511 -0.04691123 0.05209125
v 0.00008511 -0.04726847 0.05140695
v 0.00008511 -0.04744708 0.05036814
v 0.00009221 -0.04412238 0.04693018
v 0.00008866 -0.04537269 -0.03178839
v -0.02924538 -0.02809966 -0.03178839
v -0.03164043 -0.03149337 0.04693018
v -0.03180389 -0.03239052 0.05213247
v -0.03121046 -0.03239052 0.05139871
v -0.03270292 -0.03239052 0.05234682
v -0.03271003 -0.03272339 0.05241278
v -0.00884125 -0.04517784 0.05242103
v -0.00053320 -0.04621909 0.05237156
v -0.00037329 -0.04874002 0.03171082
v -0.00037329 -0.04874205 0.03166959
v -0.00040527 -0.04875423 0.03166959
v 0.00008155 -0.04853502 0.02960022
v 0.00008866 -0.04650732 -0.01575282
v 0.00009221 -0.04737401 0.04693018
v -0.00572484 -0.04621909 0.05232209
v -0.00260844 -0.04688688 0.05207476
v -0.00053320 -0.04726238 0.05140695
v -0.00053320 -0.04743693 0.05036814
v -0.00108044 -0.04883339 0.03235389
v -0.00093830 -0.04883339 0.03235389
v -0.00056518 -0.04873799 0.03270016
v -0.00052609 -0.04551478 -0.03178839
v 0.00008866 -0.04571775 -0.02918313
v -0.02924538 -0.03498046 -0.03178839
v -0.03497715 -0.03043182 -0.01276007
v -0.03569496 -0.03070989 -0.00396318
v -0.03611072 -0.03149337 0.04693018
v -0.03374765 -0.03239052 0.05233034
v -0.03063124 -0.03480184 0.05242103
v -0.02336436 -0.03998578 0.05243752
v -0.03271003 -0.03376261 0.05231385
v -0.01403645 -0.04414064 0.05242103
v -0.00987887 -0.04517784 0.05240454
v -0.00092764 -0.04883542 0.03166959
v -0.00056873 -0.04874002 0.03019383
v -0.00052609 -0.04846398 0.02128976
v -0.00052609 -0.04843150 0.02025095
v 0.00008155 -0.04826913 0.02085280
v 0.00008155 -0.04830160 0.02189161
v 0.00008155 -0.04844165 0.02648380
v 0.00008155 -0.04850457 0.02856141
v 0.00008155 -0.04800120 0.01402634
v 0.00008155 -0.04795452 0.01297929
v -0.00035908 -0.04687267 -0.01402148
v -0.00676246 -0.04621909 0.05228912
v -0.00572484 -0.04685440 0.05205003
v -0.00365316 -0.04687673 0.05206651
v -0.00260844 -0.04721772 0.05140695
v -0.00365316 -0.04736792 0.05036814
v -0.01583096 -0.04576849 0.01921214
v -0.01299173 -0.04642613 0.01505691
v -0.00108399 -0.04883542 0.03166959
v -0.00468723 -0.04731718 0.05036814
v -0.00572484 -0.04722178 0.05036814
v -0.00780719 -0.04700054 0.05036814
v -0.00942758 -0.04675089 0.05092877
v -0.01195766 -0.04621098 0.05036814
v -0.01299883 -0.04598364 0.05036814
v -0.01195766 -0.04499314 -0.03178839
v -0.00052609 -0.04572587 -0.02927382
v -0.00131141 -0.04571572 -0.02925733
v -0.00052609 -0.04688688 -0.01402148
v -0.02746863 -0.03694524 -0.03178839
v -0.02924538 -0.03551021 -0.02959536
v -0.03528986 -0.03211650 -0.00381478
v -0.03621021 -0.03115441 -0.00164647
v -0.03564521 -0.03213883 0.04970858
v -0.03513351 -0.03239052 0.05169551
v -0.03463246 -0.03239052 0.05209949
v -0.03374765 -0.03272339 0.05228912
v -0.02959362 -0.03583903 0.05242103
v -0.02543604 -0.03895468 0.05242103
v -0.02232674 -0.04102297 0.05238805
v -0.02024084 -0.04206220 0.05239630
v -0.01714931 -0.04309939 0.05241278
v -0.03450454 -0.03272339 0.05204178
v -0.03365881 -0.03366113 0.05203353
v -0.03271003 -0.03455218 0.05205827
v -0.03148407 -0.03559547 0.05209125
v -0.03176480 -0.03489927 0.05223140
v -0.03068809 -0.03589993 0.05222316
v -0.02855245 -0.03687826 0.05240454
v -0.01507407 -0.04414064 0.05238805
v -0.01091649 -0.04517784 0.05235507
v -0.00099515 -0.04882324 0.03091110
v -0.00052609 -0.04818996 0.01402634
v -0.00106267 -0.04882324 0.03091110
v -0.01195766 -0.04517784 0.05228087
v -0.00884125 -0.04607701 0.05218194
v -0.00781074 -0.04629216 0.05217369
v -0.00676246 -0.04681787 0.05200880
v -0.00468723 -0.04716292 0.05140695
v -0.00365316 -0.04719337 0.05140695
v -0.01635333 -0.04561626 0.01921214
v -0.01578477 -0.04577864 0.01817333
v -0.01380547 -0.04578067 0.05036814
v -0.01432784 -0.04563047 0.05036814
v -0.01372374 -0.04474348 -0.03063416
v -0.01143530 -0.04673870 0.01245989
v -0.00572484 -0.04710406 0.05140695
v -0.00676246 -0.04701272 0.05140695
v -0.00884125 -0.04680366 0.05111015
v -0.00815543 -0.04668593 0.05182742
v -0.01257952 -0.04571775 0.05195109
v -0.01295619 -0.04583141 0.05142344
v -0.01372374 -0.04575834 0.05108542
v -0.00313080 -0.04673668 -0.01661850
v -0.01195055 -0.04500328 -0.03167297
v -0.01299528 -0.04483685 -0.03163175
v -0.01292776 -0.04482467 -0.03178839
v -0.00312014 -0.04673668 -0.01661850
v -0.02703511 -0.03742020 -0.03178839
v -0.03002004 -0.03657177 -0.01575282
v -0.03016218 -0.03641548 -0.01575282
v -0.03427356 -0.03324706 -0.00520810
v -0.03531473 -0.03220175 -0.00312224
v -0.03544621 -0.03235804 0.04932933
v -0.03542134 -0.03239052 0.05036814
v -0.03528631 -0.03239052 0.05125031
v -0.03427001 -0.03324503 0.05192635
v -0.02751838 -0.03791748 0.05234682
v -0.02439842 -0.03998578 0.05235507
v -0.02336436 -0.04105951 0.05218194
v -0.02131044 -0.04211497 0.05219842
v -0.02024084 -0.04286191 0.05212423
v -0.01921033 -0.04315420 0.05218194
v -0.01816916 -0.04309939 0.05235507
v -0.03325371 -0.03430861 0.05195109
v -0.03037894 -0.03658192 0.05207476
v -0.02960783 -0.03690667 0.05219018
v -0.01403645 -0.04500937 0.05217369
v -0.01507407 -0.04488150 0.05211598
v -0.00948088 -0.04575226 -0.02317288
v -0.00621878 -0.04673059 -0.00815139
v -0.00987887 -0.04596132 0.05214071
v -0.01091649 -0.04586998 0.05208300
v -0.00746961 -0.04677321 0.05195933
v -0.01611169 -0.04509462 0.05036814
v -0.01817271 -0.04497487 0.02232032
v -0.01886209 -0.04474957 0.02232032
v -0.01674066 -0.04369004 -0.03149160
v -0.01506341 -0.04437813 -0.02959536
v -0.00781074 -0.04686861 0.05145642
v -0.01327245 -0.04562641 0.05177796
v -0.01195766 -0.04577864 0.05200880
v -0.01588782 -0.04475972 0.05201705
v -0.01507407 -0.04526106 0.05140695
v -0.01688635 -0.04475768 0.05119259
v -0.01712088 -0.04343227 -0.03178839
v -0.02400043 -0.04059876 -0.01891047
v -0.02609699 -0.03955751 -0.01609085
v -0.02805851 -0.03844724 -0.01357627
v -0.02913167 -0.03743035 -0.01565389
v -0.02915654 -0.03746485 -0.01505204
v -0.03150540 -0.03565027 -0.00882744
v -0.03127442 -0.03646622 0.05036814
v -0.03179323 -0.03599938 0.05036814
v -0.03236534 -0.03548180 0.05036814
v -0.03289125 -0.03500481 0.05036814
v -0.03343139 -0.03448520 0.05036814
v -0.03395020 -0.03395138 0.05036814
v -0.03495939 -0.03287968 0.04932933
v -0.03444413 -0.03342974 0.05036814
v -0.03386847 -0.03385801 0.05140695
v -0.03435885 -0.03333840 0.05140695
v -0.02850625 -0.03790733 0.05213247
v -0.02538629 -0.03997360 0.05214071
v -0.02439842 -0.04072460 0.05208300
v -0.02232674 -0.04180645 0.05211598
v -0.02098352 -0.04269141 0.05202529
v -0.01886564 -0.04368599 0.05199231
v -0.01816916 -0.04379762 0.05207476
v -0.03218056 -0.03530927 0.05190987
v -0.03334966 -0.03440401 0.05140695
v -0.03231204 -0.03543106 0.05120908
v -0.02926670 -0.03755213 0.05204178
v -0.01699651 -0.04479828 0.05036814
v -0.01887986 -0.04472724 0.02336737
v -0.01939511 -0.04453847 0.02336737
v -0.02024795 -0.04420154 0.02440618
v -0.02115053 -0.04383416 0.02544499
v -0.01755085 -0.04352970 -0.02647893
v -0.01976823 -0.04261226 -0.02396436
v -0.01658430 -0.04463387 0.05188513
v -0.01618631 -0.04489774 0.05148115
v -0.01956213 -0.04353781 0.05170376
v -0.01921033 -0.04377733 0.05138222
v -0.01979666 -0.04365148 0.05101122
v -0.01751176 -0.04459936 0.05036814
v -0.02408571 -0.04061500 -0.01817671
v -0.02493144 -0.04050945 -0.00939631
v -0.02921695 -0.03751357 -0.01194386
v -0.02607211 -0.04058049 0.01425719
v -0.02719502 -0.03967117 0.01610396
v -0.03012664 -0.03740599 0.05061548
v -0.03012664 -0.03740599 0.05092052
v -0.03124244 -0.03643577 0.05108542
v -0.02812603 -0.03849596 0.05198407
v -0.02751838 -0.03868675 0.05208300
v -0.02501318 -0.04056223 0.05198407
v -0.02301611 -0.04162987 0.05200880
v -0.02167645 -0.04249656 0.05172849
v -0.03107187 -0.03628557 0.05178620
v -0.02174397 -0.04359465 0.02648380
v -0.02024795 -0.04418327 0.02544499
v -0.02131044 -0.04280914 0.05139871
v -0.02018399 -0.04335717 0.05138222
v -0.02188611 -0.04262240 0.05104419
v -0.02034744 -0.04343430 0.05036814
v -0.01982864 -0.04366366 0.05036814
v -0.01920678 -0.04392143 0.05036814
v -0.02305165 -0.04277463 0.02752261
v -0.02308363 -0.04275637 0.02856141
v -0.02892201 -0.03832343 0.05036814
v -0.02708841 -0.03953315 0.05108542
v -0.02829660 -0.03861571 0.05140695
v -0.02881541 -0.03824021 0.05140695
v -0.02960783 -0.03766173 0.05132451
v -0.02996318 -0.03727203 0.05160482
v -0.02839965 -0.03869487 0.05036814
v -0.02690363 -0.03940325 0.05178620
v -0.02518374 -0.04067589 0.05140695
v -0.02370904 -0.04142892 0.05163780
v -0.02336436 -0.04172729 0.05134099
v -0.02232674 -0.04323132 0.02752261
v -0.02128201 -0.04297355 0.05036814
v -0.02390804 -0.04155679 0.05094526
v -0.02443040 -0.04127060 0.05036814
v -0.02530101 -0.04074896 0.05036814
v -0.02581982 -0.04041405 0.05036814
v -0.02764631 -0.03921651 0.05036814
v -0.02430958 -0.04119550 0.05134099
f 1 2 13
f 1 13 32
f 1 32 17
f 1 17 3
f 1 3 4
f 1 4 5
f 1 5 6
f 1 6 7
f 1 7 8
f 1 8 9
f 1 9 10
f 1 10 2
f 2 11 12
f 2 12 13
f 2 10 14
f 2 14 15
f 2 15 16
f 2 16 11
f 3 17 4
f 4 18 40
f 4 40 77
f 4 77 128
f 4 128 167
f 4 167 130
f 4 130 81
f 4 81 42
f 4 42 19
f 4 19 5
f 4 17 32
f 4 32 18
f 5 20 6
f 5 19 20
f 6 20 7
f 7 21 8
f 7 20 22
f 7 22 21
f 8 21 23
f 8 23 9
f 9 23 24
f 9 24 10
f 10 24 25
f 10 25 26
f 10 26 14
f 11 16 27
f 11 27 28
f 11 28 12
f 12 28 29
f 12 29 30
f 12 30 31
f 12 31 32
f 12 32 13
f 14 26 33
f 14 33 34
f 14 34 35
f 14 35 15
f 15 35 16
f 16 35 36
f 16 36 37
f 16 37 38
f 16 38 39
f 16 39 29
f 16 29 27
f 18 32 41
f 18 41 40
f 19 42 43
f 19 43 44
f 19 44 45
f 19 45 20
f 20 45 23
f 20 23 21
f 20 21 22
f 23 45 46
f 23 46 24
f 24 47 48
f 24 48 25
f 24 46 49
f 24 49 47
f 25 48 50
f 25 50 51
f 25 51 33
f 25 33 26
f 27 29 28
f 29 39 38
f 29 38 52
f 29 52 53
f 29 53 54
f 29 54 55
f 29 55 56
f 29 56 57
f 29 57 58
f 29 58 59
f 29 59 30
f 30 59 31
f 31 59 58
f 31 58 57
f 31 57 56
f 31 56 60
f 31 60 61
f 31 61 62
f 31 62 41
f 31 41 32
f 33 51 63
f 33 63 64
f 33 64 65
f 33 65 34
f 34 65 35
f 35 65 64
f 35 64 66
f 35 66 36
f 36 66 67
f 36 67 37
f 37 68 69
f 37 69 70
f 37 70 52
f 37 52 38
f 37 67 71
f 37 71 72
f 37 72 73
f 37 73 74
f 37 74 75
f 37 75 76
f 37 76 68
f 40 41 78
f 40 78 79
f 40 79 77
f 41 62 80
f 41 80 78
f 42 81 82
f 42 82 83
f 42 83 43
f 43 84 44
f 43 83 84
f 44 84 45
f 45 85 86
f 45 86 87
f 45 87 46
f 45 84 85
f 46 88 49
f 46 87 88
f 47 89 48
f 47 49 89
f 48 89 90
f 48 90 91
f 48 91 92
f 48 92 93
f 48 93 50
f 49 88 94
f 49 94 95
f 49 95 96
f 49 96 97
f 49 97 98
f 49 98 99
f 49 99 100
f 49 100 89
f 50 93 101
f 50 101 51
f 51 101 102
f 51 102 63
f 52 70 105
f 52 105 103
f 52 103 53
f 53 103 54
f 54 103 55
f 55 104 56
f 55 103 105
f 55 105 104
f 56 104 60
f 60 104 61
f 61 104 62
f 62 104 80
f 63 102 106
f 63 106 107
f 63 107 108
f 63 108 109
f 63 109 64
f 64 109 110
f 64 110 111
f 64 111 66
f 66 111 67
f 67 111 110
f 67 110 71
f 68 112 113
f 68 113 69
f 68 76 114
f 68 114 115
f 68 115 112
f 69 113 116
f 69 116 117
f 69 117 70
f 70 117 105
f 71 110 118
f 71 118 119
f 71 119 72
f 72 119 73
f 73 119 120
f 73 120 74
f 74 120 121
f 74 121 122
f 74 122 123
f 74 123 124
f 74 124 76
f 74 76 75
f 76 124 114
f 77 79 125
f 77 125 126
f 77 126 127
f 77 127 128
f 78 80 129
f 78 129 125
f 78 125 79
f 80 125 129
f 80 104 125
f 81 130 82
f 82 130 131
f 82 131 132
f 82 132 133
f 82 133 83
f 83 133 134
f 83 134 84
f 84 134 85
f 85 135 136
f 85 136 137
f 85 137 86
f 85 134 135
f 86 138 94
f 86 94 87
f 86 137 138
f 87 94 88
f 89 100 90
f 90 100 139
f 90 139 140
f 90 140 91
f 91 140 141
f 91 141 142
f 91 142 92
f 92 142 143
f 92 143 144
f 92 144 145
f 92 145 101
f 92 101 93
f 94 138 146
f 94 146 95
f 95 146 96
f 96 146 97
f 97 146 147
f 97 147 99
f 97 99 98
f 99 147 148
f 99 148 100
f 100 148 139
f 101 149 106
f 101 106 102
f 101 145 150
f 101 150 149
f 104 105 125
f 105 117 151
f 105 151 152
f 105 152 125
f 106 149 107
f 107 149 153
f 107 153 108
f 108 153 109
f 109 153 154
f 109 154 155
f 109 155 118
f 109 118 110
f 112 115 156
f 112 156 157
f 112 157 158
f 112 158 159
f 112 159 160
f 112 160 113
f 113 160 116
f 114 124 115
f 115 124 156
f 116 160 159
f 116 159 127
f 116 127 117
f 117 127 151
f 118 155 119
f 119 155 161
f 119 161 120
f 120 161 155
f 120 155 121
f 121 155 122
f 122 162 123
f 122 155 163
f 122 163 150
f 122 150 164
f 122 164 162
f 123 162 124
f 124 165 166
f 124 166 156
f 124 162 165
f 125 152 151
f 125 151 126
f 126 151 127
f 127 159 128
f 128 159 167
f 130 167 168
f 130 168 169
f 130 169 170
f 130 170 171
f 130 171 131
f 131 171 172
f 131 172 133
f 131 133 132
f 133 172 173
f 133 173 174
f 133 174 175
f 133 175 176
f 133 176 177
f 133 177 178
f 133 178 134
f 134 178 179
f 134 179 180
f 134 180 135
f 135 180 136
f 136 180 181
f 136 181 137
f 137 181 179
f 137 179 182
f 137 182 183
f 137 183 138
f 138 183 182
f 138 182 146
f 139 148 184
f 139 184 140
f 140 184 185
f 140 185 186
f 140 186 141
f 141 186 187
f 141 187 142
f 142 187 143
f 143 187 188
f 143 188 189
f 143 189 190
f 143 190 144
f 144 190 150
f 144 150 145
f 146 191 147
f 146 182 192
f 146 192 193
f 146 193 191
f 147 191 194
f 147 194 148
f 148 194 184
f 149 150 163
f 149 163 154
f 149 154 153
f 150 190 164
f 154 163 155
f 156 166 195
f 156 195 196
f 156 196 157
f 157 196 158
f 158 196 197
f 158 197 198
f 158 198 199
f 158 199 200
f 158 200 159
f 159 200 201
f 159 201 168
f 159 168 167
f 162 164 202
f 162 202 165
f 164 190 189
f 164 189 202
f 165 202 203
f 165 203 166
f 166 203 202
f 166 202 204
f 166 204 205
f 166 205 206
f 166 206 207
f 166 207 195
f 168 208 169
f 168 201 208
f 169 208 209
f 169 209 170
f 170 210 172
f 170 172 171
f 170 209 211
f 170 211 210
f 172 210 173
f 173 210 211
f 173 211 212
f 173 212 174
f 174 213 214
f 174 214 215
f 174 215 175
f 174 212 213
f 175 215 176
f 176 215 177
f 177 215 193
f 177 193 192
f 177 192 178
f 178 192 179
f 179 192 182
f 179 181 180
f 184 194 216
f 184 216 217
f 184 217 185
f 185 217 218
f 185 218 186
f 186 218 219
f 186 219 187
f 187 219 188
f 188 219 220
f 188 220 204
f 188 204 189
f 189 204 202
f 191 221 194
f 191 193 215
f 191 215 221
f 194 221 216
f 195 207 222
f 195 222 223
f 195 223 196
f 196 223 197
f 197 223 198
f 198 223 222
f 198 222 199
f 199 222 201
f 199 201 200
f 201 222 208
f 204 220 224
f 204 224 225
f 204 225 206
f 204 206 205
f 206 225 224
f 206 224 226
f 206 226 227
f 206 227 228
f 206 228 229
f 206 229 207
f 207 229 222
f 208 222 209
f 209 222 211
f 211 222 230
f 211 230 231
f 211 231 232
f 211 232 214
f 211 214 213
f 211 213 212
f 214 233 234
f 214 234 235
f 214 235 236
f 214 236 237
f 214 237 215
f 214 232 238
f 214 238 233
f 215 237 221
f 216 221 237
f 216 237 235
f 216 235 234
f 216 234 239
f 216 239 218
f 216 218 217
f 218 239 240
f 218 240 241
f 218 241 220
f 218 220 219
f 220 241 242
f 220 242 224
f 222 243 230
f 222 229 228
f 222 228 227
f 222 227 244
f 222 244 245
f 222 245 243
f 224 242 226
f 226 245 244
f 226 244 227
f 226 242 245
f 230 243 231
f 231 243 246
f 231 246 247
f 231 247 248
f 231 248 249
f 231 249 238
f 231 238 232
f 233 245 240
f 233 240 239
f 233 239 234
f 233 238 249
f 233 249 248
f 233 248 247
f 233 247 245
f 235 237 236
f 240 245 250
f 240 250 241
f 241 250 242
f 242 250 245
f 243 245 246
f 245 247 246

