# https://github.com/mikedh/trimesh
v 0.03552887 0.03005535 -0.02648643
v 0.02721705 0.02526288 -0.03781289
v 0.03550805 0.03005535 -0.03181888
v 0.03540393 0.03023875 -0.02544303
v 0.03489724 0.03043525 -0.01322857
v 0.03548375 0.03005535 -0.02544303
v 0.00009518 0.03688271 -0.03781289
v 0.02721705 0.03652464 -0.03781289
v 0.03030231 0.03101384 0.00754621
v 0.00071640 0.04299174 0.00754621
v 0.03548375 0.03008373 -0.03181888
v 0.03241931 0.03453123 -0.00689269
v 0.02717193 0.03658140 -0.03781289
v 0.03280454 0.03388714 -0.00689269
v 0.03405044 0.03106842 -0.00689269
v 0.00009518 0.04517728 -0.03781289
v 0.00007436 0.04243280 -0.00689269
v 0.00007436 0.04241315 -0.00720349
v 0.00007436 0.04226905 -0.00981421
v 0.03030231 0.03541767 0.00754621
v 0.00071640 0.04756806 0.00754621
v 0.02712682 0.03663162 -0.03781289
v 0.03537964 0.03019945 -0.03181888
v 0.03138858 0.03550501 -0.00779845
v 0.02981298 0.03585216 0.00754621
v 0.03026414 0.03545261 0.00754621
v 0.00009518 0.04571657 -0.02919040
v 0.00069558 0.04686065 -0.01417873
v 0.00052205 0.04528863 -0.03781289
v 0.00007436 0.04612704 -0.00981421
v 0.00007436 0.04581700 -0.00689269
v 0.00071987 0.04756806 0.00754621
v 0.00009518 0.04646765 -0.01575938
v 0.02666177 0.03710104 -0.03781289
v 0.02672771 0.03715344 -0.03687161
v 0.03005244 0.03630412 -0.01713578
v 0.02812979 0.03724296 0.00754621
v 0.02914664 0.03641547 0.00754621
v 0.02967069 0.03597443 0.00754621
v 0.03029537 0.03647442 -0.00981421
v 0.03027108 0.03649407 -0.00981421
v 0.00269111 0.04677550 -0.01603910
v 0.00309368 0.04674712 -0.01664738
v 0.00671340 0.04558775 -0.03781289
v 0.00778926 0.04701785 0.00754621
v 0.00675505 0.04708335 0.00674701
v 0.00727562 0.04673838 -0.00624000
v 0.00565491 0.04679078 -0.00873529
v 0.00338174 0.04674712 -0.01664738
v 0.02197314 0.04072323 -0.03781289
v 0.02737669 0.03870581 -0.01402334
v 0.02789727 0.03828661 -0.01402334
v 0.02912235 0.03743728 -0.01156357
v 0.02798750 0.03735431 0.00754621
v 0.02912235 0.03743728 -0.01112845
v 0.00779273 0.04549387 -0.03687161
v 0.02058148 0.04152671 -0.03713357
v 0.02119922 0.04114899 -0.03781289
v 0.01040253 0.04570129 -0.02492355
v 0.01974509 0.04362928 0.00754621
v 0.01693052 0.04478646 0.00466909
v 0.01506687 0.04539125 0.00259117
v 0.01374808 0.04576679 0.00125473
v 0.01374114 0.04578862 0.00051324
v 0.01194690 0.04607683 -0.00052128
v 0.02077929 0.04155291 -0.03644092
v 0.02604056 0.03953330 -0.01575938
v 0.02740098 0.03872765 -0.01298881
v 0.02607179 0.03953985 -0.01506230
v 0.01195384 0.04512925 -0.03167236
v 0.00883040 0.04537597 -0.03583264
v 0.01675700 0.04368387 -0.03234280
v 0.01878029 0.04263367 -0.03448288
v 0.01460877 0.04468384 -0.02920815
v 0.01974509 0.04362928 0.00723985
v 0.02613773 0.03959007 -0.01194985
v 0.01506687 0.04542618 0.00155665
v 0.01767668 0.04362710 -0.02505231
v 0.01981103 0.04263149 -0.02312091
v 0.02195579 0.04163151 -0.02025266
v 0.02400338 0.04058787 -0.01817474
v 0.02288588 0.04157693 -0.00758533
v 0.02481200 0.04040883 -0.00987193
v 0.01372379 0.04476026 -0.03063340
v 0.01297764 0.04484978 -0.03160132
v 0.00987155 0.04524933 -0.03479368
v 0.01678823 0.04371662 -0.03181888
v 0.01680211 0.04372317 -0.03167236
f 1 2 3
f 1 3 4
f 1 4 5
f 1 5 6
f 1 6 2
f 2 7 16
f 2 16 29
f 2 29 44
f 2 44 58
f 2 58 50
f 2 50 34
f 2 34 22
f 2 22 13
f 2 13 8
f 2 8 3
f 2 6 5
f 2 5 9
f 2 9 10
f 2 10 7
f 3 11 12
f 3 12 4
f 3 8 13
f 3 13 11
f 4 12 14
f 4 14 5
f 5 14 15
f 5 15 9
f 7 10 17
f 7 17 18
f 7 18 19
f 7 19 30
f 7 30 16
f 9 15 20
f 9 20 26
f 9 26 25
f 9 25 39
f 9 39 38
f 9 38 37
f 9 37 54
f 9 54 60
f 9 60 45
f 9 45 32
f 9 32 21
f 9 21 10
f 10 21 31
f 10 31 17
f 11 13 22
f 11 22 23
f 11 23 12
f 12 24 25
f 12 25 26
f 12 26 20
f 12 20 14
f 12 23 24
f 14 20 15
f 16 27 28
f 16 28 29
f 16 30 27
f 17 31 30
f 17 30 19
f 17 19 18
f 21 32 28
f 21 28 33
f 21 33 30
f 21 30 31
f 22 34 23
f 23 34 35
f 23 35 36
f 23 36 24
f 24 37 38
f 24 38 39
f 24 39 25
f 24 36 40
f 24 40 41
f 24 41 37
f 27 30 33
f 27 33 28
f 28 42 43
f 28 43 44
f 28 44 29
f 28 32 42
f 32 45 46
f 32 46 47
f 32 47 48
f 32 48 49
f 32 49 42
f 34 50 35
f 35 50 51
f 35 51 36
f 36 51 52
f 36 52 53
f 36 53 40
f 37 41 54
f 40 53 55
f 40 55 41
f 41 55 54
f 42 49 43
f 43 49 44
f 44 56 57
f 44 57 58
f 44 49 59
f 44 59 56
f 45 60 61
f 45 61 62
f 45 62 63
f 45 63 64
f 45 64 65
f 45 65 59
f 45 59 47
f 45 47 46
f 47 59 49
f 47 49 48
f 50 58 66
f 50 66 67
f 50 67 51
f 51 68 53
f 51 53 52
f 51 67 69
f 51 69 68
f 53 68 55
f 54 55 60
f 55 68 60
f 56 70 71
f 56 71 72
f 56 72 73
f 56 73 57
f 56 59 70
f 57 73 66
f 57 66 58
f 59 65 64
f 59 64 74
f 59 74 70
f 60 75 61
f 60 68 76
f 60 76 75
f 61 77 62
f 61 75 78
f 61 78 77
f 62 77 63
f 63 77 64
f 64 77 74
f 66 73 78
f 66 78 79
f 66 79 80
f 66 80 81
f 66 81 67
f 67 81 82
f 67 82 69
f 68 69 76
f 69 83 76
f 69 82 83
f 70 74 84
f 70 84 85
f 70 85 72
f 70 72 86
f 70 86 71
f 71 86 72
f 72 85 84
f 72 84 74
f 72 74 87
f 72 87 73
f 73 87 88
f 73 88 78
f 74 88 87
f 74 77 78
f 74 78 88
f 75 76 83
f 75 83 82
f 75 82 79
f 75 79 78
f 79 82 80
f 80 82 81

