# https://github.com/mikedh/trimesh
v -0.04226911 -0.00014177 -0.01276645
v -0.03719953 -0.00049453 -0.03777811
v -0.04211842 -0.00014177 -0.01544243
v -0.04618485 -0.00014177 -0.01276645
v -0.03016670 -0.03013363 -0.01276645
v -0.02460416 -0.02829710 -0.03777811
v -0.04504393 -0.00049453 -0.03777811
v -0.04210120 -0.00014177 -0.01576070
v -0.04619346 -0.00014177 -0.01298435
v -0.04638290 -0.00468037 -0.02337242
v -0.04628818 -0.00572047 -0.02233434
v -0.04570695 -0.01144827 -0.01656619
v -0.04530656 -0.01277566 -0.01276645
v -0.03016670 -0.03541412 -0.01276645
v -0.02924966 -0.03079551 -0.01576070
v -0.02924966 -0.03729429 -0.01576070
v -0.02924966 -0.03729429 -0.01577294
v -0.02924966 -0.03549776 -0.02960085
v -0.02924966 -0.03496680 -0.03178716
v -0.03539128 -0.02829710 -0.03777811
v -0.04595021 -0.00014177 -0.01576070
v -0.04559071 -0.00666237 -0.03777811
v -0.04570695 -0.00621142 -0.03741087
v -0.04623006 -0.00156008 -0.03271751
v -0.04630110 -0.00063272 -0.03178961
v -0.04630970 -0.00049816 -0.03164761
v -0.04617194 -0.00014177 -0.01402487
v -0.04658956 -0.00049816 -0.02752225
v -0.04659601 -0.00052726 -0.02752225
v -0.04657879 -0.00156735 -0.02648418
v -0.04654650 -0.00260381 -0.02544366
v -0.04646685 -0.00364027 -0.02440804
v -0.04573709 -0.00640053 -0.03687225
v -0.04570695 -0.01144827 -0.01664698
v -0.04516232 -0.01380849 -0.01276645
v -0.03236890 -0.03338484 -0.01320959
v -0.03002678 -0.03655968 -0.01576070
v -0.03271333 -0.03282115 -0.01276645
v -0.03339574 -0.03235202 -0.01322673
v -0.03021191 -0.03644331 -0.01610346
v -0.03022267 -0.03644331 -0.01688936
v -0.03560224 -0.03012272 -0.03178716
v -0.03578952 -0.02995907 -0.03178716
v -0.03652574 -0.02929355 -0.03178716
v -0.04052328 -0.02287114 -0.03535921
v -0.03597466 -0.02756248 -0.03777811
v -0.04648838 -0.00049816 -0.03060954
v -0.04559071 -0.00667692 -0.03777811
v -0.04570695 -0.00634234 -0.03741087
v -0.04628818 -0.00260018 -0.03271751
v -0.04639366 -0.00166918 -0.03178961
v -0.04638720 -0.00156008 -0.03178961
v -0.04640658 -0.00156735 -0.03167699
v -0.04548738 -0.00768065 -0.03777811
v -0.04172448 -0.02013998 -0.03777811
v -0.04508483 -0.01403032 -0.01402487
v -0.04510850 -0.01403032 -0.01298435
v -0.04474686 -0.01522316 -0.01276645
v -0.03544294 -0.03024637 -0.01328059
v -0.03696920 -0.02840620 -0.01276645
v -0.03123659 -0.03539593 -0.01746716
v -0.03125166 -0.03539593 -0.01817961
v -0.03644609 -0.02918445 -0.01331487
v -0.03654296 -0.02930446 -0.03167699
v -0.04055127 -0.02292569 -0.03479365
v -0.04171157 -0.02017635 -0.03777811
v -0.04144894 -0.02063093 -0.03777811
v -0.03952228 -0.02500952 -0.03244575
v -0.04480067 -0.01490677 -0.01402487
v -0.04363822 -0.01768157 -0.01686733
v -0.04363822 -0.01768157 -0.01657843
v -0.03829956 -0.02665695 -0.01298435
v -0.03828664 -0.02659512 -0.01276645
v -0.03734592 -0.02800253 -0.01276645
v -0.03325366 -0.03325028 -0.02073806
v -0.03742126 -0.02807162 -0.01337852
v -0.03325366 -0.03325028 -0.02090210
v -0.03225481 -0.03431947 -0.01989096
v -0.03755473 -0.02820982 -0.02960085
v -0.03843087 -0.02700243 -0.03012723
v -0.03844809 -0.02702789 -0.02856278
v -0.03845455 -0.02703516 -0.02797764
v -0.03772264 -0.02759521 -0.01301373
v -0.03772909 -0.02755521 -0.01276645
v -0.03756334 -0.02821709 -0.02856278
v -0.03807783 -0.02754794 -0.02856278
v -0.03807352 -0.02752612 -0.02960085
f 1 2 3
f 1 3 8
f 1 8 21
f 1 21 27
f 1 27 9
f 1 9 4
f 1 4 13
f 1 13 35
f 1 35 58
f 1 58 73
f 1 73 84
f 1 84 74
f 1 74 60
f 1 60 38
f 1 38 14
f 1 14 5
f 1 5 6
f 1 6 2
f 2 7 21
f 2 21 8
f 2 8 3
f 2 6 20
f 2 20 46
f 2 46 67
f 2 67 66
f 2 66 55
f 2 55 54
f 2 54 48
f 2 48 22
f 2 22 7
f 4 9 10
f 4 10 11
f 4 11 12
f 4 12 13
f 5 14 16
f 5 16 15
f 5 15 6
f 6 15 16
f 6 16 17
f 6 17 18
f 6 18 19
f 6 19 20
f 7 22 23
f 7 23 24
f 7 24 25
f 7 25 26
f 7 26 21
f 9 27 28
f 9 28 29
f 9 29 30
f 9 30 31
f 9 31 32
f 9 32 10
f 10 32 33
f 10 33 11
f 11 33 34
f 11 34 12
f 12 34 35
f 12 35 13
f 14 36 37
f 14 37 16
f 14 38 39
f 14 39 36
f 16 37 40
f 16 40 41
f 16 41 17
f 17 41 18
f 18 41 42
f 18 42 19
f 19 42 20
f 20 42 43
f 20 43 44
f 20 44 45
f 20 45 46
f 21 26 47
f 21 47 27
f 22 48 49
f 22 49 23
f 23 49 50
f 23 50 51
f 23 51 24
f 24 52 25
f 24 51 52
f 25 52 47
f 25 47 26
f 27 47 28
f 28 47 29
f 29 47 53
f 29 53 30
f 30 53 31
f 31 53 50
f 31 50 33
f 31 33 32
f 33 50 49
f 33 49 54
f 33 54 34
f 34 54 55
f 34 55 56
f 34 56 57
f 34 57 35
f 35 57 58
f 36 39 37
f 37 39 59
f 37 59 40
f 38 60 39
f 39 60 59
f 40 61 62
f 40 62 41
f 40 59 63
f 40 63 61
f 41 62 64
f 41 64 43
f 41 43 42
f 43 64 44
f 44 64 45
f 45 65 66
f 45 66 67
f 45 67 46
f 45 64 68
f 45 68 65
f 47 52 53
f 48 54 49
f 50 53 51
f 51 53 52
f 55 66 69
f 55 69 56
f 56 69 58
f 56 58 57
f 58 69 66
f 58 66 70
f 58 70 71
f 58 71 72
f 58 72 73
f 59 60 74
f 59 74 63
f 61 75 62
f 61 63 76
f 61 76 75
f 62 75 77
f 62 77 78
f 62 78 64
f 63 74 76
f 64 78 77
f 64 77 79
f 64 79 80
f 64 80 68
f 65 68 70
f 65 70 66
f 68 80 81
f 68 81 82
f 68 82 70
f 70 82 71
f 71 82 72
f 72 82 83
f 72 83 84
f 72 84 73
f 74 84 76
f 75 76 85
f 75 85 77
f 76 84 83
f 76 83 82
f 76 82 86
f 76 86 85
f 77 85 79
f 79 85 86
f 79 86 87
f 79 87 80
f 80 87 81
f 81 87 82
f 82 87 86

