# https://github.com/mikedh/trimesh
v -0.07122447 -0.46409991 0.49991155
v -0.36483133 -0.29628938 0.49991155
v -0.07122447 -0.47418910 0.49991155
v -0.07122447 -0.45154661 -0.40384763
v -0.37717974 -0.29628938 0.49991155
v -0.34768617 -0.29628938 -0.40384763
v -0.08736490 -0.47197723 0.49991155
v -0.07521096 -0.47773972 0.49955767
v -0.07122447 -0.47806957 0.49955767
v -0.07122447 -0.48431712 -0.40384763
v -0.37264228 -0.30255634 0.49991155
v -0.38178203 -0.29628938 0.49955767
v -0.38985226 -0.29628938 -0.40384763
v -0.13209140 -0.46146119 0.49991155
v -0.11377947 -0.47005641 0.49955767
v -0.07579434 -0.48142618 0.49849612
v -0.07122447 -0.48179480 0.49849612
v -0.07122447 -0.48827517 -0.39217025
v -0.07618327 -0.48392907 -0.40384763
v -0.36159027 -0.32118255 0.49955767
v -0.33938909 -0.33942071 0.49991155
v -0.38657880 -0.29628938 0.49849612
v -0.36625740 -0.32535404 -0.40384763
v -0.36949843 -0.32820618 -0.39110866
v -0.39539444 -0.29628938 -0.39110866
v -0.17668828 -0.44628859 0.49991155
v -0.15241280 -0.45897770 0.49955767
v -0.15357959 -0.46250892 0.49849612
v -0.11462215 -0.47366524 0.49849612
v -0.11546481 -0.47717705 0.49663833
v -0.07634532 -0.48495740 0.49663833
v -0.07122447 -0.48534542 0.49663833
v -0.07122447 -0.48885724 -0.39013556
v -0.07686388 -0.48817816 -0.39110866
v -0.11164038 -0.47686663 -0.40384763
v -0.11624267 -0.48033965 -0.39110866
v -0.33170778 -0.35197401 0.49955767
v -0.36437759 -0.32364663 0.49849612
v -0.30253834 -0.37265685 0.49991155
v -0.39118108 -0.29628938 0.49663833
v -0.33598596 -0.35651413 -0.40384763
v -0.33893532 -0.35965732 -0.39110866
v -0.34120405 -0.36204380 -0.37713119
v -0.37196165 -0.33037925 -0.37713119
v -0.39960784 -0.29628938 -0.37713119
v -0.21347421 -0.43063092 0.49991155
v -0.19075444 -0.44442597 0.49955767
v -0.19221292 -0.44786018 0.49849612
v -0.15471396 -0.46592373 0.49663833
v -0.15571868 -0.46895048 0.49398440
v -0.11624267 -0.48026204 0.49398440
v -0.07686388 -0.48811996 0.49398440
v -0.07122447 -0.48856622 0.49398440
v -0.07122447 -0.49192280 -0.37713119
v -0.07738246 -0.49143776 -0.37713119
v -0.11523794 -0.47614872 -0.40384763
v -0.15575108 -0.46900868 -0.39110866
v -0.15075988 -0.46596253 -0.40384763
v -0.11702052 -0.48352161 -0.37713119
v -0.15675581 -0.47213244 -0.37713119
v -0.33423579 -0.35467091 0.49849612
v -0.30156600 -0.38284305 0.49849612
v -0.29926485 -0.37993270 0.49955767
v -0.36703524 -0.32603312 0.49663833
v -0.33669901 -0.35729024 0.49663833
v -0.26264098 -0.40174091 0.49991155
v -0.39503795 -0.29628938 0.49416131
v -0.33297181 -0.35913345 -0.40384763
v -0.30581176 -0.38823691 -0.39110866
v -0.30782124 -0.39081740 -0.37713119
v -0.34250048 -0.36344075 -0.36333063
v -0.37335530 -0.33164039 -0.36333063
v -0.40119594 -0.29735652 -0.36333063
v -0.39980227 -0.29628938 -0.37606961
v -0.22835064 -0.42634302 0.49955767
v -0.21347421 -0.43350247 0.49955767
v -0.21347421 -0.43763515 0.49849612
v -0.19363898 -0.45113918 0.49663833
v -0.19490299 -0.45406893 0.49398440
v -0.15652895 -0.47141457 0.49079964
v -0.11685847 -0.48280373 0.49079964
v -0.07725282 -0.49068105 0.49079964
v -0.07122447 -0.49095270 0.49106503
v -0.07122447 -0.49267951 -0.37200022
v -0.07122447 -0.49423170 -0.36067668
v -0.07767415 -0.49330038 -0.36333063
v -0.11744186 -0.48538423 -0.36333063
v -0.19490299 -0.45414653 -0.39110866
v -0.18962008 -0.45154661 -0.40384763
v -0.15438986 -0.46491480 -0.40384763
v -0.19623183 -0.45715389 -0.37713119
v -0.15737161 -0.47393689 -0.36333063
v -0.30380231 -0.38567579 0.49663833
v -0.26669228 -0.40791082 0.49849612
v -0.26465043 -0.40476766 0.49955767
v -0.36943364 -0.32814798 0.49398440
v -0.33890292 -0.35961851 0.49398440
v -0.39529723 -0.29628938 0.49398440
v -0.30315411 -0.38484150 -0.40384763
v -0.29991305 -0.38718918 -0.40384763
v -0.27045190 -0.41363451 -0.39110866
v -0.27223450 -0.41638964 -0.37713119
v -0.30898800 -0.39231139 -0.36333063
v -0.31511360 -0.38819811 -0.34988394
v -0.35352007 -0.35356498 -0.34988394
v -0.38816690 -0.31516784 -0.34988394
v -0.37358218 -0.33183441 0.48354551
v -0.39276922 -0.30940533 0.06492878
v -0.40197378 -0.29628938 -0.36279985
v -0.40190896 -0.29628938 -0.36333063
v -0.40184414 -0.29628938 -0.36377296
v -0.23010081 -0.42962202 0.49849612
v -0.21347421 -0.44159323 0.49663833
v -0.21347421 -0.44514385 0.49398440
v -0.21347421 -0.44801539 0.49079964
v -0.19590771 -0.45645541 0.49079964
v -0.19665316 -0.45816278 0.48726103
v -0.15711233 -0.47318017 0.48726103
v -0.11727981 -0.48458874 0.48726103
v -0.07754451 -0.49250489 0.48726103
v -0.07122447 -0.49116611 0.49079964
v -0.07122447 -0.49434811 -0.34988394
v -0.09099488 -0.49163178 -0.34988394
v -0.13760120 -0.48068887 -0.34988394
v -0.21347421 -0.44716170 -0.38367760
v -0.21347421 -0.44522145 -0.39110866
v -0.21178888 -0.44126341 -0.40384763
v -0.19321765 -0.45016906 -0.40384763
v -0.21347421 -0.44886911 -0.37713119
v -0.19697726 -0.45890009 -0.36333063
v -0.18407789 -0.46487600 -0.34988394
v -0.26863691 -0.41089880 0.49663833
v -0.30577937 -0.38819811 0.49398440
v -0.23178616 -0.43276519 0.49663833
v -0.39857069 -0.29628938 0.49088812
v -0.37137824 -0.32989419 0.49079964
v -0.34065309 -0.36150053 0.49079964
v -0.26808593 -0.41002569 -0.40384763
v -0.23334187 -0.43565613 -0.39110866
v -0.23489757 -0.43854707 -0.37713119
v -0.23580506 -0.44023508 -0.36333063
v -0.27327162 -0.41796124 -0.36333063
v -0.27359572 -0.41848511 -0.34988394
v -0.30937696 -0.39277706 0.06492878
v -0.31511360 -0.38819811 0.47982997
v -0.34269494 -0.36361539 0.48354551
v -0.35352007 -0.35356498 0.47982997
v -0.38816690 -0.31516784 0.47982997
v -0.40142280 -0.29751173 0.48354551
v -0.34194952 -0.36285868 0.48726103
v -0.37277192 -0.33111653 0.48726103
v -0.40058014 -0.29687145 0.48726103
v -0.40216824 -0.29628938 -0.08687729
v -0.23330945 -0.43559793 0.49398440
v -0.23454106 -0.43788740 0.49079964
v -0.23541614 -0.43953660 0.48726103
v -0.19707450 -0.45915231 0.48354551
v -0.15746886 -0.47418910 0.48354551
v -0.11753909 -0.48563647 0.48354551
v -0.07770656 -0.49357200 0.48354551
v -0.07122447 -0.49444512 0.48274931
v -0.07122447 -0.49300933 0.48726103
v -0.07122447 -0.49450332 -0.14216796
v -0.09099488 -0.49163178 0.47982997
v -0.10428318 -0.48899305 0.06492878
v -0.13760120 -0.48068887 0.47982997
v -0.15756607 -0.47451895 0.06492878
v -0.23130000 -0.43185329 -0.40384763
v -0.22967948 -0.44411552 -0.34988394
v -0.18407789 -0.46487600 0.47982997
v -0.21026558 -0.45362267 0.06492878
v -0.21347421 -0.45207047 -0.00345472
v -0.27038708 -0.41357630 0.49398440
v -0.30736750 -0.39021593 0.49079964
v -0.27181315 -0.41574937 0.49079964
v -0.39980227 -0.29628938 0.48903033
v -0.26124731 -0.42628482 0.06492878
v -0.27359572 -0.41848511 0.47982997
v -0.30915007 -0.39252481 0.48354551
v -0.30850184 -0.39169052 0.48726103
v -0.40223306 -0.29628938 0.48354551
v -0.40226549 -0.29628938 0.48336858
v -0.40093666 -0.29628938 0.48726103
v -0.27285028 -0.41730157 0.48726103
v -0.27340126 -0.41821346 0.48354551
v -0.23593470 -0.44044849 0.48354551
v -0.22967948 -0.44411552 0.47982997
v -0.21347421 -0.45207047 0.13340075
v -0.07122447 -0.49450332 0.27220243
f 1 2 5
f 1 5 11
f 1 11 21
f 1 21 39
f 1 39 66
f 1 66 46
f 1 46 26
f 1 26 14
f 1 14 7
f 1 7 3
f 1 3 9
f 1 9 17
f 1 17 32
f 1 32 53
f 1 53 83
f 1 83 121
f 1 121 162
f 1 162 161
f 1 161 189
f 1 189 163
f 1 163 122
f 1 122 85
f 1 85 84
f 1 84 54
f 1 54 33
f 1 33 18
f 1 18 10
f 1 10 4
f 1 4 2
f 2 4 6
f 2 6 13
f 2 13 25
f 2 25 45
f 2 45 74
f 2 74 111
f 2 111 110
f 2 110 109
f 2 109 153
f 2 153 182
f 2 182 181
f 2 181 183
f 2 183 176
f 2 176 135
f 2 135 98
f 2 98 67
f 2 67 40
f 2 40 22
f 2 22 12
f 2 12 5
f 3 7 8
f 3 8 9
f 4 10 19
f 4 19 35
f 4 35 56
f 4 56 58
f 4 58 90
f 4 90 89
f 4 89 128
f 4 128 127
f 4 127 168
f 4 168 138
f 4 138 100
f 4 100 99
f 4 99 68
f 4 68 41
f 4 41 23
f 4 23 13
f 4 13 6
f 5 12 11
f 7 14 15
f 7 15 8
f 8 15 16
f 8 16 9
f 9 16 17
f 10 18 19
f 11 20 21
f 11 12 20
f 12 22 20
f 13 23 24
f 13 24 25
f 14 26 27
f 14 27 15
f 15 27 28
f 15 28 29
f 15 29 16
f 16 29 30
f 16 30 31
f 16 31 17
f 17 31 32
f 18 33 34
f 18 34 19
f 19 34 36
f 19 36 35
f 20 37 21
f 20 22 38
f 20 38 37
f 21 37 39
f 22 40 38
f 23 41 24
f 24 42 43
f 24 43 44
f 24 44 25
f 24 41 42
f 25 44 45
f 26 46 47
f 26 47 27
f 27 47 48
f 27 48 28
f 28 48 49
f 28 49 30
f 28 30 29
f 30 49 50
f 30 50 51
f 30 51 52
f 30 52 31
f 31 52 53
f 31 53 32
f 33 54 55
f 33 55 34
f 34 55 36
f 35 36 56
f 36 57 58
f 36 58 56
f 36 55 59
f 36 59 60
f 36 60 57
f 37 38 61
f 37 61 62
f 37 62 63
f 37 63 39
f 38 40 64
f 38 64 65
f 38 65 61
f 39 63 66
f 40 67 64
f 41 68 42
f 42 68 69
f 42 69 43
f 43 69 70
f 43 70 71
f 43 71 44
f 44 71 72
f 44 72 73
f 44 73 74
f 44 74 45
f 46 66 75
f 46 75 76
f 46 76 47
f 47 76 48
f 48 77 78
f 48 78 49
f 48 76 77
f 49 78 79
f 49 79 50
f 50 79 80
f 50 80 81
f 50 81 51
f 51 81 52
f 52 81 82
f 52 82 83
f 52 83 53
f 54 84 55
f 55 84 85
f 55 85 86
f 55 86 87
f 55 87 59
f 57 88 89
f 57 89 90
f 57 90 58
f 57 60 91
f 57 91 88
f 59 87 60
f 60 87 92
f 60 92 91
f 61 65 93
f 61 93 62
f 62 93 94
f 62 94 63
f 63 94 95
f 63 95 66
f 64 67 96
f 64 96 97
f 64 97 65
f 65 97 93
f 66 95 75
f 67 98 96
f 68 99 69
f 69 99 100
f 69 100 101
f 69 101 102
f 69 102 70
f 70 102 103
f 70 103 71
f 71 103 104
f 71 104 105
f 71 105 72
f 72 106 73
f 72 105 107
f 72 107 106
f 73 106 108
f 73 108 109
f 73 109 110
f 73 110 111
f 73 111 74
f 75 95 94
f 75 94 112
f 75 112 77
f 75 77 76
f 77 112 113
f 77 113 78
f 78 113 154
f 78 154 114
f 78 114 79
f 79 114 115
f 79 115 116
f 79 116 80
f 80 116 117
f 80 117 118
f 80 118 81
f 81 118 119
f 81 119 120
f 81 120 82
f 82 121 83
f 82 120 121
f 85 122 123
f 85 123 86
f 86 123 87
f 87 123 124
f 87 124 92
f 88 91 125
f 88 125 126
f 88 126 127
f 88 127 128
f 88 128 89
f 91 129 125
f 91 92 130
f 91 130 129
f 92 124 131
f 92 131 130
f 93 132 94
f 93 97 133
f 93 133 132
f 94 132 134
f 94 134 112
f 96 98 135
f 96 135 136
f 96 136 97
f 97 136 137
f 97 137 133
f 100 138 101
f 101 138 139
f 101 139 140
f 101 140 102
f 102 140 141
f 102 141 142
f 102 142 103
f 103 142 143
f 103 143 104
f 104 143 144
f 104 144 145
f 104 145 146
f 104 146 105
f 105 146 147
f 105 147 107
f 106 107 148
f 106 148 108
f 107 149 148
f 107 147 146
f 107 146 150
f 107 150 151
f 107 151 152
f 107 152 149
f 108 153 109
f 108 148 149
f 108 149 153
f 112 134 113
f 113 134 154
f 114 154 155
f 114 155 115
f 115 155 156
f 115 156 117
f 115 117 116
f 117 156 157
f 117 157 118
f 118 157 158
f 118 158 159
f 118 159 119
f 119 159 160
f 119 160 120
f 120 160 161
f 120 161 162
f 120 162 121
f 122 163 123
f 123 163 160
f 123 160 164
f 123 164 165
f 123 165 124
f 124 165 166
f 124 166 167
f 124 167 131
f 125 139 126
f 125 129 139
f 126 139 127
f 127 139 168
f 129 140 139
f 129 130 141
f 129 141 140
f 130 131 169
f 130 169 141
f 131 167 170
f 131 170 171
f 131 171 172
f 131 172 169
f 132 133 173
f 132 173 154
f 132 154 134
f 133 137 174
f 133 174 175
f 133 175 173
f 135 176 152
f 135 152 136
f 136 152 151
f 136 151 150
f 136 150 137
f 137 150 174
f 138 168 139
f 141 169 143
f 141 143 142
f 143 169 177
f 143 177 178
f 143 178 144
f 144 178 145
f 145 178 179
f 145 179 146
f 146 179 180
f 146 180 150
f 149 181 182
f 149 182 153
f 149 152 181
f 150 180 174
f 152 183 181
f 152 176 183
f 154 173 155
f 155 173 175
f 155 175 156
f 156 184 185
f 156 185 186
f 156 186 157
f 156 175 184
f 157 186 187
f 157 187 188
f 157 188 171
f 157 171 170
f 157 170 158
f 158 170 167
f 158 167 166
f 158 166 159
f 159 166 165
f 159 165 164
f 159 164 160
f 160 163 189
f 160 189 161
f 169 172 188
f 169 188 187
f 169 187 177
f 171 188 172
f 174 180 184
f 174 184 175
f 177 187 178
f 178 187 186
f 178 186 185
f 178 185 179
f 179 185 180
f 180 185 184

