# https://github.com/mikedh/trimesh
v -0.21345991 -0.21345988 -0.50000000
v 0.27691907 -0.21345988 -0.50000000
v -0.21345991 -0.21345988 -0.47000089
v -0.21345991 0.27693105 -0.50000000
v 0.29291779 -0.19147885 -0.50000000
v 0.29472494 -0.21345988 -0.49868920
v 0.32953942 -0.21345988 -0.46188211
v -0.21345991 0.32964659 -0.46184850
v -0.21345991 0.29469740 -0.49868920
v -0.19150820 0.29294670 -0.50000000
v 0.31088310 -0.16074434 -0.50000000
v 0.32167295 -0.19712001 -0.49749789
v 0.31029844 -0.21345988 -0.49749789
v 0.32953942 -0.21345988 -0.49295676
v 0.32953942 0.21390578 -0.46184850
v -0.21345991 0.39409837 -0.46184850
v -0.21345991 0.31025919 -0.49749789
v -0.19708914 0.32167119 -0.49749789
v -0.16073328 0.31084278 -0.50000000
v 0.32953942 -0.15944752 -0.49851367
v 0.32953942 -0.18246600 -0.49749789
v 0.32539359 -0.12877783 -0.50000000
v 0.32953942 -0.13603997 -0.49939129
v 0.32953942 -0.20191824 -0.49485016
v 0.32953942 0.30442354 -0.46184850
v -0.18874431 0.40726104 -0.46184850
v -0.18167511 0.39195862 -0.47555032
v -0.21345991 0.37497032 -0.47555032
v -0.21345991 0.32063374 -0.49505180
v -0.21170589 0.34546775 -0.48946875
v -0.15860721 0.34229055 -0.49749789
v -0.12878901 0.32536709 -0.50000000
v 0.32953942 -0.11451284 -0.50000000
v 0.32953942 -0.12754583 -0.49968258
v 0.32953942 0.29262251 -0.46851081
v 0.32305488 0.28691652 -0.47555032
v 0.29631951 0.31440902 -0.47555032
v 0.30790660 0.32666391 -0.46184850
v -0.17524374 0.41264284 -0.46184850
v -0.13612399 0.41004920 -0.47555032
v -0.12767282 0.38456675 -0.48946875
v -0.17035377 0.36757848 -0.48946875
v -0.21345991 0.34832075 -0.48775461
v -0.21345991 0.36822689 -0.47864622
v -0.21345991 0.34423578 -0.48946875
v -0.21345991 0.34527323 -0.48903555
v -0.11884961 0.35804686 -0.49749789
v -0.06367800 0.34410611 -0.50000000
v 0.32953942 0.11456969 -0.50000000
v 0.32953942 0.27894109 -0.47555032
v 0.30296350 0.26908529 -0.48946875
v 0.27792895 0.29482710 -0.48946875
v 0.25071523 0.31829947 -0.48946875
v 0.26735175 0.33937272 -0.47555032
v 0.27776951 0.35266510 -0.46184850
v -0.14143917 0.42606488 -0.46184850
v -0.09009447 0.42256346 -0.47555032
v -0.08446037 0.39630294 -0.48946875
v -0.07866681 0.36894011 -0.49749789
v 0.00005108 0.34994176 -0.50000000
v -0.03880293 0.37522969 -0.49749789
v 0.32539359 0.12876981 -0.50000000
v 0.32953942 0.12650038 -0.49971244
v 0.32953942 0.24418643 -0.48690689
v 0.32555303 0.24120376 -0.48946875
v 0.30312294 0.22460452 -0.49749789
v 0.28207481 0.25054082 -0.49749789
v 0.23344085 0.29638326 -0.49749789
v 0.25874114 0.27453193 -0.49749789
v 0.20643973 0.31577066 -0.49749789
v 0.22169429 0.33911335 -0.48946875
v 0.23641735 0.36161312 -0.47555032
v 0.24566579 0.37574843 -0.46184850
v -0.09360249 0.43903303 -0.46184850
v -0.04619104 0.44655457 -0.46184850
v -0.04443702 0.42976078 -0.47555032
v -0.04167313 0.40304640 -0.48946875
v 0.06367385 0.34410611 -0.50000000
v 0.00005108 0.37723976 -0.49749789
v 0.05862442 0.37270090 -0.49749789
v 0.32953942 0.13045567 -0.49959293
v 0.31088310 0.16073632 -0.50000000
v 0.32953942 0.14219186 -0.49915600
v 0.32953942 0.23536809 -0.48946875
v 0.27171019 0.22058439 -0.50000000
v 0.32167295 0.19711202 -0.49749789
v 0.29291779 0.19147086 -0.50000000
v 0.24747294 0.24742848 -0.50000000
v 0.19150406 0.29294670 -0.50000000
v 0.22057810 0.27167892 -0.50000000
v 0.17810978 0.33256444 -0.49749789
v 0.19129145 0.35720393 -0.48946875
v 0.20394158 0.38087085 -0.47555032
v 0.21191436 0.39571938 -0.46184850
v 0.00005108 0.44895366 -0.46184850
v 0.00005108 0.43203023 -0.47555032
v 0.00005108 0.40518615 -0.48946875
v 0.12878487 0.32536709 -0.50000000
v 0.08870836 0.36667070 -0.49749789
v 0.11884546 0.35804686 -0.49749789
v 0.06298287 0.40025824 -0.48946875
v 0.09524605 0.39383900 -0.48946875
v 0.32953942 0.18297672 -0.49749789
v 0.32953942 0.16605327 -0.49825227
v 0.32953942 0.20191023 -0.49485016
v 0.16072913 0.31084278 -0.50000000
v 0.14876996 0.34669971 -0.49749789
v 0.15977240 0.37231186 -0.48946875
v 0.17040277 0.39701620 -0.47555032
v 0.17704675 0.41251314 -0.46184850
v 0.06978631 0.44344220 -0.46184850
v 0.06712872 0.42677811 -0.47555032
v 0.12766868 0.38456675 -0.48946875
v 0.10157111 0.41990501 -0.47555032
v 0.13611981 0.41004920 -0.47555032
v 0.14143500 0.42606488 -0.46184850
v 0.07999146 0.44143215 -0.46184850
v 0.10555750 0.43630973 -0.46184850
v 0.11581581 0.43339187 -0.46184850
f 1 2 6
f 1 6 13
f 1 13 14
f 1 14 7
f 1 7 3
f 1 3 8
f 1 8 16
f 1 16 28
f 1 28 44
f 1 44 43
f 1 43 46
f 1 46 45
f 1 45 29
f 1 29 17
f 1 17 9
f 1 9 4
f 1 4 10
f 1 10 19
f 1 19 32
f 1 32 48
f 1 48 60
f 1 60 78
f 1 78 98
f 1 98 106
f 1 106 89
f 1 89 90
f 1 90 88
f 1 88 85
f 1 85 87
f 1 87 82
f 1 82 62
f 1 62 49
f 1 49 33
f 1 33 22
f 1 22 11
f 1 11 5
f 1 5 2
f 2 5 6
f 3 7 8
f 4 9 10
f 5 11 12
f 5 12 13
f 5 13 6
f 7 14 24
f 7 24 21
f 7 21 20
f 7 20 23
f 7 23 34
f 7 34 33
f 7 33 49
f 7 49 63
f 7 63 81
f 7 81 83
f 7 83 104
f 7 104 103
f 7 103 105
f 7 105 84
f 7 84 64
f 7 64 50
f 7 50 35
f 7 35 25
f 7 25 15
f 7 15 8
f 8 15 25
f 8 25 38
f 8 38 55
f 8 55 73
f 8 73 94
f 8 94 110
f 8 110 116
f 8 116 119
f 8 119 118
f 8 118 117
f 8 117 111
f 8 111 95
f 8 95 75
f 8 75 74
f 8 74 56
f 8 56 39
f 8 39 26
f 8 26 16
f 9 17 10
f 10 17 18
f 10 18 19
f 11 20 21
f 11 21 12
f 11 22 23
f 11 23 20
f 12 24 14
f 12 14 13
f 12 21 24
f 16 26 27
f 16 27 28
f 17 29 18
f 18 29 30
f 18 30 31
f 18 31 19
f 19 31 32
f 22 33 34
f 22 34 23
f 25 35 36
f 25 36 37
f 25 37 38
f 26 39 27
f 27 39 40
f 27 40 41
f 27 41 42
f 27 42 43
f 27 43 44
f 27 44 28
f 29 45 30
f 30 43 42
f 30 42 31
f 30 45 46
f 30 46 43
f 31 42 41
f 31 41 47
f 31 47 32
f 32 47 48
f 35 50 36
f 36 50 51
f 36 51 37
f 37 51 52
f 37 52 53
f 37 53 54
f 37 54 55
f 37 55 38
f 39 56 40
f 40 56 57
f 40 57 41
f 41 57 58
f 41 58 47
f 47 58 59
f 47 59 48
f 48 59 61
f 48 61 60
f 49 62 63
f 50 64 51
f 51 64 65
f 51 65 66
f 51 66 67
f 51 67 52
f 52 68 53
f 52 67 69
f 52 69 68
f 53 68 70
f 53 70 71
f 53 71 72
f 53 72 54
f 54 72 73
f 54 73 55
f 56 74 57
f 57 74 75
f 57 75 76
f 57 76 58
f 58 76 77
f 58 77 61
f 58 61 59
f 60 61 79
f 60 79 80
f 60 80 78
f 61 77 79
f 62 81 63
f 62 82 83
f 62 83 81
f 64 84 65
f 65 84 66
f 66 85 67
f 66 84 86
f 66 86 87
f 66 87 85
f 67 88 69
f 67 85 88
f 68 89 70
f 68 69 90
f 68 90 89
f 69 88 90
f 70 89 91
f 70 91 92
f 70 92 71
f 71 92 72
f 72 92 93
f 72 93 73
f 73 93 94
f 75 95 76
f 76 95 96
f 76 96 97
f 76 97 77
f 77 97 79
f 78 80 99
f 78 99 100
f 78 100 98
f 79 97 80
f 80 97 101
f 80 101 102
f 80 102 99
f 82 87 86
f 82 86 103
f 82 103 104
f 82 104 83
f 84 105 86
f 86 105 103
f 89 106 91
f 91 106 107
f 91 107 92
f 92 108 109
f 92 109 93
f 92 107 108
f 93 109 110
f 93 110 94
f 95 111 112
f 95 112 96
f 96 112 97
f 97 112 101
f 98 100 107
f 98 107 106
f 99 102 113
f 99 113 100
f 100 113 107
f 101 112 102
f 102 112 114
f 102 114 115
f 102 115 113
f 107 113 108
f 108 113 109
f 109 115 116
f 109 116 110
f 109 113 115
f 111 117 112
f 112 117 114
f 114 117 118
f 114 118 119
f 114 119 115
f 115 119 116

