# https://github.com/mikedh/trimesh
v 0.17530033 0.45072472 -0.41571566
v 0.18756711 0.43697470 -0.43208629
v 0.17530033 0.44712734 -0.42220214
v 0.17530033 0.41477755 -0.41571566
v 0.32955036 0.35991079 -0.40754360
v 0.19090018 0.44478238 -0.41571566
v 0.17989013 0.41906774 -0.45606419
v 0.17530033 0.44163799 -0.43208629
v 0.22453138 0.41917434 -0.43208629
v 0.21532446 0.40201348 -0.45606419
v 0.17530033 0.35157019 -0.46184465
v 0.32955036 0.17849612 -0.46704265
v 0.41831377 0.17849612 -0.40754360
v 0.32955036 0.31338465 -0.40754360
v 0.32955036 0.34959829 -0.42261693
v 0.29952541 0.38021600 -0.41571566
v 0.26485604 0.40510458 -0.41571566
v 0.24248077 0.41840157 -0.41571566
v 0.22852013 0.42666224 -0.41571566
v 0.33487779 0.35530081 -0.40754360
v 0.17707615 0.41253918 -0.46184465
v 0.17530033 0.41957405 -0.45699966
v 0.17530033 0.42079982 -0.45606419
v 0.21196407 0.39575139 -0.46184465
v 0.26023892 0.39798975 -0.43208629
v 0.24958403 0.38170826 -0.45606419
v 0.17530033 0.41320536 -0.46184465
v 0.32955036 0.17849612 -0.49770117
v 0.45440379 0.17849612 -0.40754360
v 0.32955036 0.34259006 -0.43208629
v 0.32613531 0.34602755 -0.43208629
v 0.29425260 0.37355420 -0.43208629
v 0.33744588 0.35266274 -0.40754360
v 0.32955036 0.23538807 -0.48946732
v 0.24570456 0.37573928 -0.46184465
v 0.32955036 0.24420831 -0.48689920
v 0.28220439 0.35825866 -0.45606419
v 0.32955036 0.20197238 -0.49484181
v 0.32955036 0.18302616 -0.49748936
v 0.33200917 0.17849612 -0.49748936
v 0.45085216 0.17849612 -0.41400361
v 0.45396668 0.17974855 -0.40754360
v 0.35555920 0.31578290 -0.43208629
v 0.31283036 0.33190450 -0.45606419
v 0.36503932 0.32420343 -0.40754360
v 0.34714457 0.25726548 -0.47554126
v 0.36839971 0.22579505 -0.47554126
v 0.34547803 0.21175194 -0.48946732
v 0.27780584 0.35266274 -0.46184465
v 0.32955036 0.27895635 -0.47554126
v 0.36258051 0.18092103 -0.48946732
v 0.35777214 0.17849612 -0.49100289
v 0.44060707 0.17849612 -0.43208629
v 0.43689153 0.21798739 -0.40754360
v 0.36736155 0.32137883 -0.40754360
v 0.38205981 0.28313997 -0.43208629
v 0.34097019 0.30285898 -0.45606419
v 0.32952303 0.30448446 -0.46184465
v 0.32955036 0.29267973 -0.46849880
v 0.30794004 0.32670829 -0.46184465
v 0.36640534 0.27152178 -0.45606419
v 0.38886255 0.23831926 -0.45606419
v 0.38662231 0.19291231 -0.47554126
v 0.39304256 0.17849612 -0.47554126
v 0.36364600 0.17849612 -0.48946732
v 0.41929728 0.17849612 -0.45606419
v 0.42549899 0.21231152 -0.43208629
v 0.41804057 0.25201595 -0.40754360
v 0.39225027 0.29070783 -0.40754360
v 0.39429927 0.28769666 -0.40754360
v 0.41629207 0.25516033 -0.40754360
v 0.40544593 0.24849853 -0.43208629
v 0.40806869 0.20362452 -0.45606419
f 1 2 3
f 1 3 8
f 1 8 23
f 1 23 22
f 1 22 27
f 1 27 11
f 1 11 4
f 1 4 14
f 1 14 5
f 1 5 6
f 1 6 2
f 2 7 8
f 2 8 3
f 2 6 9
f 2 9 10
f 2 10 7
f 4 11 12
f 4 12 13
f 4 13 14
f 5 15 16
f 5 16 17
f 5 17 18
f 5 18 19
f 5 19 6
f 5 14 13
f 5 13 29
f 5 29 42
f 5 42 54
f 5 54 68
f 5 68 71
f 5 71 70
f 5 70 69
f 5 69 55
f 5 55 45
f 5 45 33
f 5 33 20
f 5 20 15
f 6 19 9
f 7 21 22
f 7 22 23
f 7 23 8
f 7 10 24
f 7 24 21
f 9 19 18
f 9 18 25
f 9 25 26
f 9 26 10
f 10 26 24
f 11 27 28
f 11 28 12
f 12 28 40
f 12 40 52
f 12 52 65
f 12 65 64
f 12 64 66
f 12 66 53
f 12 53 41
f 12 41 29
f 12 29 13
f 15 30 31
f 15 31 32
f 15 32 16
f 15 20 30
f 16 32 25
f 16 25 17
f 17 25 18
f 20 33 30
f 21 27 22
f 21 24 34
f 21 34 27
f 24 26 35
f 24 35 36
f 24 36 34
f 25 32 26
f 26 32 37
f 26 37 35
f 27 34 38
f 27 38 39
f 27 39 28
f 28 39 40
f 29 41 42
f 30 33 43
f 30 43 44
f 30 44 31
f 31 44 32
f 32 44 37
f 33 45 43
f 34 36 46
f 34 46 47
f 34 47 48
f 34 48 38
f 35 37 49
f 35 49 50
f 35 50 36
f 36 50 46
f 37 44 49
f 38 48 39
f 39 48 51
f 39 51 40
f 40 51 52
f 41 53 42
f 42 53 54
f 43 45 55
f 43 55 56
f 43 56 57
f 43 57 44
f 44 58 59
f 44 59 60
f 44 60 49
f 44 57 58
f 46 61 62
f 46 62 47
f 46 50 61
f 47 51 48
f 47 62 63
f 47 63 51
f 49 60 50
f 50 60 59
f 50 59 57
f 50 57 61
f 51 63 64
f 51 64 65
f 51 65 52
f 53 66 67
f 53 67 54
f 54 67 68
f 55 69 56
f 56 69 70
f 56 70 71
f 56 71 72
f 56 72 62
f 56 62 61
f 56 61 57
f 57 59 58
f 62 72 67
f 62 67 73
f 62 73 63
f 63 73 66
f 63 66 64
f 66 73 67
f 67 72 68
f 68 72 71

