# https://github.com/mikedh/trimesh
v 0.44049159 -0.21348695 -0.40393615
v 0.41763914 -0.25601196 -0.40393615
v 0.41725507 -0.25579554 -0.40522438
v 0.43997949 -0.21348695 -0.40522438
v 0.40330034 -0.21348695 -0.40393615
v 0.38480073 -0.30318984 -0.40393615
v 0.38448068 -0.30289227 -0.40522438
v 0.40541276 -0.24851869 -0.43208954
v 0.42416841 -0.21348695 -0.43208954
v 0.34056813 -0.21348695 -0.45740315
v -0.21345994 -0.21354105 -0.46999416
v -0.21339595 -0.40406504 -0.40393615
v 0.34632921 -0.34644526 -0.40393615
v 0.34607318 -0.34614769 -0.40522438
v 0.37353453 -0.29428989 -0.43208954
v 0.38883352 -0.23834732 -0.45605850
v 0.40208411 -0.21348695 -0.45605850
v 0.40022776 -0.21348695 -0.45740315
v -0.21345994 -0.21354105 -0.50000000
v -0.21345994 -0.30659834 -0.46739885
v -0.21339595 -0.44042230 -0.40393615
v 0.30708957 -0.38128763 -0.40393615
v 0.30312079 -0.38480434 -0.40393615
v 0.30280074 -0.38447970 -0.40522438
v 0.29422307 -0.37352383 -0.43208954
v 0.33621526 -0.33630094 -0.43208954
v 0.35823554 -0.28225195 -0.45605850
v 0.40022776 -0.21354105 -0.45741257
v 0.35695529 -0.28122401 -0.45741257
v 0.33941588 -0.26740068 -0.47555149
v 0.36834952 -0.22582245 -0.47555149
v 0.37494281 -0.21354105 -0.47555149
v 0.34824961 -0.21354105 -0.48774755
v 0.34421682 -0.21354105 -0.48944953
v 0.31022620 -0.21354105 -0.49748933
v 0.29467118 -0.21354105 -0.49868354
v 0.27687567 -0.21354105 -0.49998119
v 0.22188896 -0.21354105 -0.50000000
v -0.21345994 -0.27700394 -0.50000000
v -0.21345994 -0.38686025 -0.46739885
v -0.19310397 -0.45016086 -0.40393615
v -0.21339595 -0.43993539 -0.40522438
v 0.25594360 -0.41764492 -0.40393615
v 0.25568753 -0.41729325 -0.40522438
v 0.24845414 -0.40544465 -0.43208954
v 0.28212470 -0.35823974 -0.45605850
v 0.32245257 -0.32253170 -0.45605850
v 0.30548927 -0.30557039 -0.47555149
v 0.28647757 -0.28658020 -0.48944953
v 0.31822777 -0.25079101 -0.48944953
v 0.29633549 -0.23350509 -0.49748933
v 0.27169067 -0.22065561 -0.49998119
v 0.22188896 -0.27056569 -0.50000000
v -0.21345994 -0.29483092 -0.49868354
v -0.19143966 -0.29301846 -0.50000000
v -0.21345994 -0.37522811 -0.47553268
v -0.20859501 -0.38972771 -0.46739885
v -0.21339595 -0.39857358 -0.45922741
v -0.21339595 -0.40287477 -0.45605850
v -0.21339595 -0.42451599 -0.43208954
v -0.15431240 -0.46490395 -0.40393615
v -0.19291195 -0.44975507 -0.40522438
v -0.18747088 -0.43698674 -0.43208954
v 0.22195297 -0.43590468 -0.40393615
v 0.22195297 -0.43539071 -0.40522438
v 0.19999669 -0.43144119 -0.43208954
v 0.22195297 -0.39757267 -0.45605850
v 0.23827615 -0.38880795 -0.45605850
v 0.28116453 -0.35694125 -0.45740315
v 0.23744400 -0.38742834 -0.45740315
v 0.31867585 -0.32369491 -0.45740315
v 0.26727381 -0.33941185 -0.47555149
v 0.25069457 -0.31833869 -0.48944953
v 0.26676172 -0.26683259 -0.49748933
v 0.24749395 -0.24754483 -0.49998119
v 0.22048068 -0.27178302 -0.50000000
v 0.23341121 -0.29642695 -0.49748933
v -0.21345994 -0.31079131 -0.49748933
v -0.20635456 -0.31582290 -0.49748933
v -0.16064966 -0.31092659 -0.50000000
v -0.17806104 -0.33259487 -0.49748933
v -0.21345994 -0.34406471 -0.48944953
v -0.19124761 -0.35715768 -0.48944953
v -0.20385808 -0.38085482 -0.47553268
v -0.19387212 -0.39684227 -0.46739885
v -0.17978939 -0.41907865 -0.45605850
v -0.15412039 -0.46449816 -0.40522438
v -0.15072772 -0.46595895 -0.40393615
v -0.14976752 -0.45129701 -0.43208954
v 0.15429178 -0.46490395 -0.40394557
v 0.20594984 -0.44445297 -0.40394557
v 0.20575783 -0.44404721 -0.40522438
v 0.04700685 -0.48746490 -0.40393615
v 0.15422776 -0.46447110 -0.40522438
v 0.14981091 -0.45126995 -0.43208954
v 0.14366570 -0.43279377 -0.45605850
v 0.19173908 -0.41374949 -0.45605850
v 0.23443541 -0.38905144 -0.45740315
v 0.22572970 -0.36835700 -0.47555149
v 0.22188896 -0.33838391 -0.48944953
v 0.19141902 -0.29301846 -0.50000000
v 0.19705212 -0.32172015 -0.49748933
v -0.21345994 -0.32653531 -0.49381265
v -0.12870742 -0.32545325 -0.50000000
v -0.14874333 -0.34668872 -0.49748933
v -0.15968946 -0.37230653 -0.48944953
v -0.17031553 -0.39700457 -0.47553268
v -0.17434832 -0.40622914 -0.46739885
v -0.14362234 -0.43279377 -0.45605850
v -0.11180812 -0.46219879 -0.43208954
v -0.11500874 -0.47572455 -0.40522438
v -0.11513677 -0.47613034 -0.40393615
v 0.10224963 -0.47910601 -0.40394557
v 0.00469460 -0.48965609 -0.40393615
v 0.04700685 -0.48746490 -0.40394557
v 0.05046353 -0.48727554 -0.40394557
v 0.10212160 -0.47867316 -0.40522438
v 0.09924104 -0.46503919 -0.43208954
v 0.09520826 -0.44599491 -0.45605850
v 0.13931286 -0.41953850 -0.46739885
v 0.18591395 -0.40106231 -0.46739885
v 0.21158296 -0.34549844 -0.48944953
v 0.18162510 -0.39197299 -0.47553268
v 0.17035891 -0.36757252 -0.48944953
v 0.16069302 -0.31092659 -0.50000000
v 0.15858062 -0.34230638 -0.49748933
v -0.11872147 -0.35802332 -0.49748933
v -0.06360672 -0.34414586 -0.50000000
v -0.12749118 -0.38450676 -0.48944953
v -0.13613287 -0.41001636 -0.47553268
v -0.10393459 -0.42968285 -0.46739885
v -0.10713521 -0.44326270 -0.45605850
v -0.07084014 -0.45048547 -0.45605850
v -0.07384872 -0.46974617 -0.43208954
v -0.07602514 -0.48348835 -0.40522438
v -0.07615317 -0.48392117 -0.40393615
v -0.11155207 -0.47686070 -0.40393615
v 0.00002169 -0.48981839 -0.40393615
v 0.00002169 -0.48943967 -0.40522438
v 0.04700685 -0.48703212 -0.40522438
v 0.05039951 -0.48681569 -0.40522438
v 0.04899124 -0.47299236 -0.43208954
v 0.09232769 -0.43233389 -0.46739885
v 0.04700685 -0.45389396 -0.45572940
v 0.04700685 -0.45362344 -0.45604908
v 0.04694284 -0.45362344 -0.45605850
v 0.13611223 -0.41001636 -0.47553268
v 0.12753455 -0.38450676 -0.48944953
v 0.12875080 -0.32545325 -0.50000000
v 0.11876485 -0.35802332 -0.49748933
v -0.08857159 -0.36665276 -0.49748933
v -0.09516488 -0.39381251 -0.48944953
v 0.00008570 -0.34998900 -0.50000000
v -0.05854973 -0.37265819 -0.49748933
v -0.10150212 -0.41989017 -0.47553268
v -0.06706339 -0.42676127 -0.47553268
v -0.06872772 -0.43668920 -0.46739885
v 0.00002169 -0.45603102 -0.45605850
v 0.00002169 -0.47553518 -0.43208954
v -0.00695568 -0.48933148 -0.40393615
v 0.04700685 -0.47310054 -0.43208954
v 0.04700685 -0.47231606 -0.43305808
v 0.04559857 -0.43971896 -0.46739885
v 0.04457438 -0.42973694 -0.47553268
v 0.09021528 -0.42251417 -0.47553268
v 0.00008570 -0.44207245 -0.46739885
v 0.08458218 -0.39627418 -0.48944953
v 0.06377812 -0.34414586 -0.50000000
v 0.07875705 -0.36892509 -0.49748933
v -0.06290258 -0.40022370 -0.48944953
v 0.03887726 -0.37522811 -0.49748933
v 0.00008570 -0.37722990 -0.49748933
v 0.00008570 -0.40514711 -0.48944953
v 0.00008570 -0.43203631 -0.47553268
v 0.04175783 -0.40301001 -0.48944953
f 1 2 3
f 1 3 4
f 1 4 9
f 1 9 17
f 1 17 18
f 1 18 10
f 1 10 5
f 1 5 12
f 1 12 21
f 1 21 41
f 1 41 61
f 1 61 88
f 1 88 112
f 1 112 137
f 1 137 136
f 1 136 160
f 1 160 138
f 1 138 114
f 1 114 93
f 1 93 64
f 1 64 43
f 1 43 23
f 1 23 22
f 1 22 13
f 1 13 6
f 1 6 2
f 2 6 7
f 2 7 3
f 3 8 4
f 3 7 8
f 4 8 9
f 5 10 11
f 5 11 12
f 6 13 14
f 6 14 7
f 7 14 15
f 7 15 8
f 8 16 9
f 8 15 16
f 9 16 17
f 10 18 38
f 10 38 19
f 10 19 11
f 11 19 39
f 11 39 54
f 11 54 78
f 11 78 103
f 11 103 82
f 11 82 56
f 11 56 40
f 11 40 20
f 11 20 12
f 12 20 40
f 12 40 21
f 13 22 14
f 14 22 23
f 14 23 24
f 14 24 25
f 14 25 26
f 14 26 15
f 15 26 27
f 15 27 16
f 16 28 17
f 16 27 29
f 16 29 30
f 16 30 31
f 16 31 32
f 16 32 28
f 17 28 18
f 18 28 32
f 18 32 33
f 18 33 34
f 18 34 35
f 18 35 36
f 18 36 37
f 18 37 38
f 19 38 53
f 19 53 76
f 19 76 101
f 19 101 125
f 19 125 149
f 19 149 168
f 19 168 153
f 19 153 128
f 19 128 104
f 19 104 80
f 19 80 55
f 19 55 39
f 21 40 42
f 21 42 41
f 23 43 44
f 23 44 24
f 24 44 45
f 24 45 25
f 25 46 47
f 25 47 26
f 25 45 46
f 26 47 27
f 27 47 29
f 29 47 48
f 29 48 30
f 30 48 49
f 30 49 50
f 30 50 33
f 30 33 31
f 31 33 32
f 33 50 34
f 34 50 51
f 34 51 35
f 35 51 36
f 36 51 52
f 36 52 37
f 37 52 53
f 37 53 38
f 39 55 54
f 40 56 57
f 40 57 58
f 40 58 59
f 40 59 60
f 40 60 42
f 41 42 62
f 41 62 87
f 41 87 61
f 42 60 63
f 42 63 62
f 43 64 44
f 44 64 65
f 44 65 66
f 44 66 45
f 45 66 67
f 45 67 68
f 45 68 46
f 46 69 47
f 46 68 70
f 46 70 69
f 47 69 71
f 47 71 48
f 48 71 69
f 48 69 72
f 48 72 73
f 48 73 49
f 49 51 50
f 49 73 74
f 49 74 51
f 51 74 52
f 52 74 75
f 52 75 53
f 53 75 74
f 53 74 77
f 53 77 76
f 54 55 78
f 55 79 78
f 55 80 81
f 55 81 79
f 56 82 83
f 56 83 84
f 56 84 57
f 57 84 85
f 57 85 58
f 58 85 86
f 58 86 59
f 59 86 60
f 60 86 63
f 61 87 88
f 62 63 87
f 63 86 89
f 63 89 87
f 64 90 91
f 64 91 92
f 64 92 65
f 64 93 90
f 65 92 66
f 66 92 94
f 66 94 95
f 66 95 96
f 66 96 97
f 66 97 67
f 67 98 68
f 67 97 98
f 68 98 70
f 69 70 72
f 70 98 99
f 70 99 72
f 72 99 73
f 73 77 74
f 73 99 100
f 73 100 77
f 76 77 101
f 77 100 102
f 77 102 101
f 78 79 103
f 79 81 103
f 80 104 105
f 80 105 81
f 81 105 83
f 81 83 103
f 82 103 83
f 83 105 106
f 83 106 107
f 83 107 84
f 84 107 85
f 85 107 108
f 85 108 86
f 86 108 109
f 86 109 89
f 87 89 110
f 87 110 111
f 87 111 88
f 88 111 112
f 89 109 110
f 90 93 113
f 90 113 94
f 90 94 91
f 91 94 92
f 93 114 115
f 93 115 116
f 93 116 113
f 94 113 117
f 94 117 95
f 95 117 118
f 95 118 119
f 95 119 96
f 96 120 97
f 96 119 120
f 97 120 121
f 97 121 98
f 98 121 99
f 99 122 100
f 99 121 123
f 99 123 124
f 99 124 122
f 100 122 102
f 101 102 125
f 102 124 126
f 102 126 125
f 102 122 124
f 104 127 105
f 104 128 127
f 105 127 129
f 105 129 106
f 106 129 130
f 106 130 107
f 107 130 108
f 108 130 109
f 109 130 131
f 109 131 132
f 109 132 110
f 110 132 133
f 110 133 134
f 110 134 135
f 110 135 111
f 111 135 136
f 111 136 137
f 111 137 112
f 113 116 117
f 114 138 139
f 114 139 140
f 114 140 115
f 115 140 116
f 116 140 141
f 116 141 117
f 117 141 142
f 117 142 118
f 118 142 119
f 119 143 120
f 119 142 144
f 119 144 145
f 119 145 146
f 119 146 143
f 120 143 147
f 120 147 123
f 120 123 121
f 123 147 124
f 124 147 148
f 124 148 126
f 125 126 149
f 126 148 150
f 126 150 149
f 127 128 151
f 127 151 152
f 127 152 129
f 128 153 154
f 128 154 151
f 129 152 130
f 130 152 155
f 130 155 131
f 131 155 156
f 131 156 157
f 131 157 132
f 132 157 133
f 133 157 158
f 133 158 159
f 133 159 134
f 134 159 135
f 135 159 139
f 135 139 136
f 136 139 160
f 138 160 139
f 139 159 140
f 140 161 142
f 140 142 141
f 140 159 161
f 142 161 162
f 142 162 144
f 143 146 163
f 143 163 164
f 143 164 165
f 143 165 147
f 144 162 159
f 144 159 158
f 144 158 146
f 144 146 145
f 146 158 166
f 146 166 163
f 147 165 167
f 147 167 148
f 148 167 150
f 149 150 168
f 150 167 169
f 150 169 168
f 151 154 152
f 152 154 170
f 152 170 156
f 152 156 155
f 153 171 172
f 153 172 154
f 153 168 171
f 154 172 173
f 154 173 170
f 156 170 174
f 156 174 157
f 157 174 166
f 157 166 158
f 159 162 161
f 163 166 164
f 164 166 174
f 164 174 175
f 164 175 167
f 164 167 165
f 167 175 171
f 167 171 169
f 168 169 171
f 170 173 174
f 171 175 172
f 172 175 173
f 173 175 174

