# https://github.com/mikedh/trimesh
v -0.48986164 0.00002362 -0.40394557
v -0.46773201 0.14402947 -0.40393615
v -0.48726451 0.05029632 -0.40394557
v -0.48942879 0.00002362 -0.40522426
v -0.48726451 -0.05033531 -0.40394557
v -0.43380713 0.14402947 -0.40393615
v -0.46491846 0.15437719 -0.40393615
v -0.46729916 0.14402947 -0.40522426
v -0.47909442 0.10203495 -0.40394557
v -0.47909442 -0.10198771 -0.40394557
v -0.46903056 -0.14130907 -0.40394557
v -0.46600062 -0.15001841 -0.40394557
v -0.45544979 -0.18028550 -0.40394557
v -0.43835211 -0.21865831 -0.40394557
v -0.41762924 -0.25591016 -0.40394557
v -0.39357883 -0.29160976 -0.40394557
v -0.36622790 -0.32523990 -0.40394557
v -0.33609051 -0.35636932 -0.40394557
v -0.30319363 -0.38473934 -0.40394557
v -0.26813251 -0.41000503 -0.40394557
v -0.23131293 -0.43173522 -0.40394557
v -0.21351184 -0.44044459 -0.40394557
v -0.48683167 0.05029632 -0.40522426
v -0.47552338 0.00002362 -0.43209618
v -0.48683167 -0.05033531 -0.40522426
v -0.21348479 0.40332621 -0.40393615
v -0.44635987 0.20120065 -0.40393615
v -0.46451268 0.15420473 -0.40522426
v -0.45287973 0.14402947 -0.43208680
v -0.46505374 0.09910309 -0.43209618
v -0.47866157 0.10203495 -0.40522426
v -0.47866157 -0.10198771 -0.40522426
v -0.46859771 -0.14113660 -0.40522426
v -0.46551365 -0.15001841 -0.40522426
v -0.45504400 -0.18011305 -0.40522426
v -0.43791926 -0.21839963 -0.40522426
v -0.41725048 -0.25573766 -0.40522426
v -0.39320007 -0.29135108 -0.40522426
v -0.36590326 -0.32489496 -0.40522426
v -0.33573881 -0.35611063 -0.40522426
v -0.30292311 -0.38439441 -0.40522426
v -0.26788905 -0.40957385 -0.40522426
v -0.23112357 -0.43139029 -0.40522426
v -0.21351184 -0.43992716 -0.40522426
v -0.21348479 0.30605763 -0.46740204
v -0.47298035 0.04883039 -0.43209618
v -0.45601791 0.00002362 -0.45606279
v -0.45361018 -0.04679984 -0.45606279
v -0.47298035 -0.04886939 -0.43209618
v -0.45361018 0.04676085 -0.45606279
v -0.46505374 -0.09905586 -0.43209618
v -0.21348479 0.44049180 -0.40393615
v -0.44446614 0.20594336 -0.40393615
v -0.44406036 0.20577089 -0.40522426
v -0.45128357 0.14980695 -0.43208680
v -0.43145350 0.19990718 -0.43208680
v -0.43378007 0.14402947 -0.45479348
v -0.44600821 0.09505023 -0.45606279
v -0.45528749 -0.13708375 -0.43209618
v -0.45523337 -0.15001841 -0.42406657
v -0.44211251 -0.17493919 -0.43209618
v -0.42550176 -0.21227722 -0.43209618
v -0.40545523 -0.24840803 -0.43209618
v -0.38205412 -0.28307289 -0.43209618
v -0.35554186 -0.31566823 -0.43209618
v -0.32618898 -0.34593534 -0.43209618
v -0.29432017 -0.37344307 -0.43209618
v -0.26025999 -0.39793265 -0.43209618
v -0.22454961 -0.41914552 -0.43209618
v -0.21351184 -0.42449182 -0.43209618
v -0.21351184 -0.40612459 -0.45239589
v -0.21351184 -0.40276158 -0.45606279
v -0.21351184 -0.39845008 -0.45922199
v -0.21351184 -0.37516767 -0.47554445
v -0.21351184 -0.34395206 -0.48945054
v -0.21351184 -0.32636088 -0.49380383
v -0.21351184 -0.31058061 -0.49748015
v -0.21351184 -0.29462785 -0.49867424
v -0.21351184 -0.27686429 -0.49999058
v -0.21348479 0.38633871 -0.46740204
v -0.44205838 0.00002362 -0.46740204
v -0.43973181 -0.04533391 -0.46740204
v -0.43973181 0.04546738 -0.46740204
v -0.44600821 -0.09500299 -0.45606279
v -0.43664774 -0.13147873 -0.45606279
v -0.21348479 0.43997443 -0.40522426
v -0.25579619 0.41729563 -0.40522426
v -0.25601262 0.41764057 -0.40393615
v -0.42014521 0.25138712 -0.40393615
v -0.41730461 0.25578493 -0.40522426
v -0.41373357 0.19171524 -0.45606279
v -0.43267089 0.14402947 -0.45606279
v -0.40542820 0.24845527 -0.43208680
v -0.38881743 0.23828000 -0.45606279
v -0.42506891 0.11893623 -0.46740204
v -0.43234625 0.09211838 -0.46740204
v -0.43897432 -0.15001841 -0.44588944
v -0.45082366 -0.14993218 -0.43209618
v -0.42398679 -0.16778199 -0.45606279
v -0.41070360 -0.20486136 -0.45239589
v -0.40767363 -0.21038014 -0.45239589
v -0.39136046 -0.23978493 -0.45239589
v -0.38776237 -0.24513125 -0.45239589
v -0.34317848 -0.30480313 -0.45239589
v -0.36639023 -0.27143174 -0.45606279
v -0.36473998 -0.27824396 -0.45239589
v -0.31488067 -0.33394921 -0.45239589
v -0.31006518 -0.33817458 -0.45239589
v -0.33874172 -0.30937338 -0.45239589
v -0.28409398 -0.36050838 -0.45239589
v -0.21537852 -0.40198553 -0.45606279
v -0.25127828 -0.38404948 -0.45239589
v -0.23650718 -0.36145693 -0.47554445
v -0.22181723 -0.33903688 -0.48945054
v -0.23355836 -0.29626626 -0.49748015
v -0.22065392 -0.27160418 -0.49999058
v -0.21351184 0.27673906 -0.49999058
v -0.21351184 0.29441643 -0.49867424
v -0.21351184 0.31011045 -0.49748015
v -0.21351184 0.34417170 -0.48945054
v -0.21351184 0.34822458 -0.48773932
v -0.21351184 0.37478375 -0.47554445
v -0.21351184 0.38633871 -0.46740204
v -0.21348479 0.40211898 -0.45606279
v -0.43202162 -0.00006261 -0.47554445
v -0.42972207 -0.04429914 -0.47554445
v -0.43234625 -0.09207114 -0.46740204
v -0.42972207 0.04426014 -0.47554445
v -0.42249885 0.08996260 -0.47554445
v -0.42328340 -0.12742586 -0.46740204
v -0.41546497 -0.14993218 -0.46740204
v -0.21348479 0.42419416 -0.43208680
v -0.24849179 0.40539575 -0.43208680
v -0.29429311 0.37349027 -0.43208680
v -0.30289605 0.38444161 -0.40522426
v -0.30316660 0.38478655 -0.40393615
v -0.26036823 0.41462249 -0.40393615
v -0.41768336 0.25595737 -0.40393615
v -0.38787058 0.29872799 -0.40393615
v -0.38446185 0.30278081 -0.40522426
v -0.37355936 0.29415774 -0.43208680
v -0.40107259 0.18593776 -0.46740204
v -0.43245447 0.14402947 -0.45623204
v -0.41955003 0.13920052 -0.46740204
v -0.35824716 0.28217161 -0.45606279
v -0.34729058 0.27354848 -0.46740204
v -0.37694103 0.23095037 -0.46740204
v -0.41000021 0.13592374 -0.47554445
v -0.40483302 -0.14993218 -0.47554445
v -0.40166777 -0.15890020 -0.47554445
v -0.38654497 -0.19278900 -0.47554445
v -0.40802532 -0.20339543 -0.45606279
v -0.38881743 -0.23814654 -0.45606279
v -0.34098715 -0.30273360 -0.45606279
v -0.31287873 -0.33170724 -0.45606279
v -0.34715530 -0.25720358 -0.47554445
v -0.28225437 -0.35809392 -0.45606279
v -0.24962804 -0.38154876 -0.45606279
v -0.26740208 -0.33929557 -0.47554445
v -0.25079134 -0.31816894 -0.48945054
v -0.27797994 -0.29471409 -0.48945054
v -0.25882617 -0.27444983 -0.49748015
v -0.24754494 -0.24737325 -0.49999058
v -0.22065392 0.27156520 -0.49999058
v -0.23353131 0.29614103 -0.49748015
v -0.25079134 0.31812996 -0.48945054
v -0.26740208 0.33925658 -0.47554445
v -0.22582111 0.36814398 -0.47554445
v -0.23101535 0.37693954 -0.46740204
v -0.23831975 0.38875318 -0.45606279
v -0.21348479 0.41056967 -0.44690490
v -0.40515766 -0.00006261 -0.48945054
v -0.40299338 -0.04153975 -0.48945054
v -0.39625710 -0.08431035 -0.48945054
v -0.42249885 -0.09000160 -0.47554445
v -0.39625710 0.08435758 -0.48945054
v -0.40299338 0.04150075 -0.48945054
v -0.41365239 -0.12449402 -0.47554445
v -0.28222731 0.35822737 -0.45606279
v -0.33627987 0.33623850 -0.43208680
v -0.30717048 0.38125110 -0.40393615
v -0.34612727 0.34606880 -0.40522426
v -0.38481355 0.30303955 -0.40393615
v -0.39195561 0.18145375 -0.47554445
v -0.40905333 0.16584593 -0.46740204
v -0.36833808 0.22551781 -0.47554445
v -0.41768336 0.14402947 -0.46740204
v -0.32250974 0.32244152 -0.45606279
v -0.31266230 0.31252491 -0.46740204
v -0.30557433 0.30536777 -0.47554445
v -0.33941805 0.26708120 -0.47554445
v -0.38451597 0.12747310 -0.48945054
v -0.36758056 0.17024371 -0.48945054
v -0.38792467 -0.11673322 -0.48945054
v -0.37894297 -0.14993218 -0.48820943
v -0.36254865 -0.18088911 -0.48945054
v -0.36833808 -0.22572927 -0.47554445
v -0.32313195 -0.28678083 -0.47554445
v -0.29640326 -0.31420231 -0.47554445
v -0.32559380 -0.24116462 -0.48945054
v -0.30300426 -0.26901728 -0.48945054
v -0.28214616 -0.25047755 -0.49748015
v -0.27178472 -0.22046918 -0.49999058
v -0.24754494 0.24733426 -0.49999058
v -0.26683396 0.26665002 -0.49748015
v -0.28655583 0.28639692 -0.48945054
v -0.27359730 0.34727603 -0.46740204
v -0.37723860 -0.00006261 -0.49748015
v -0.37520963 -0.03869412 -0.49748015
v -0.36893323 -0.07844663 -0.49748015
v -0.36119598 -0.10862751 -0.49748015
v -0.36893323 0.07849387 -0.49748015
v -0.37520963 0.03865513 -0.49748015
v -0.35800371 0.11867754 -0.49748015
v -0.34642488 0.34632748 -0.40393615
v -0.34545094 0.21154837 -0.48945054
v -0.31837055 0.25061107 -0.48945054
v -0.34228572 0.15851629 -0.49748015
v -0.35078046 -0.13880837 -0.49748015
v -0.37669754 -0.14906986 -0.48945054
v -0.37631881 -0.14993218 -0.48945054
v -0.33760548 -0.16829939 -0.49748015
v -0.32175222 -0.19701433 -0.49748015
v -0.34547800 -0.21158737 -0.48945054
v -0.30319363 -0.22443581 -0.49748015
v -0.29302159 -0.19140930 -0.49999058
v -0.27178472 0.22051641 -0.49999058
v -0.29643032 0.23327860 -0.49748015
v -0.34996885 -0.00006261 -0.49999058
v -0.34412533 -0.06352866 -0.49999058
v -0.32545853 -0.12863311 -0.49999058
v -0.34412533 0.06357590 -0.49999058
v -0.32545853 0.12868035 -0.49999058
v -0.32172519 0.19688910 -0.49748015
v -0.31093091 0.16049960 -0.49999058
v -0.31095794 -0.16062482 -0.49999058
v -0.29299453 0.19137031 -0.49999058
f 1 2 3
f 1 3 23
f 1 23 4
f 1 4 25
f 1 25 5
f 1 5 2
f 2 6 26
f 2 26 52
f 2 52 88
f 2 88 137
f 2 137 136
f 2 136 181
f 2 181 215
f 2 215 183
f 2 183 139
f 2 139 138
f 2 138 89
f 2 89 53
f 2 53 27
f 2 27 7
f 2 7 8
f 2 8 9
f 2 9 3
f 2 5 10
f 2 10 11
f 2 11 12
f 2 12 13
f 2 13 14
f 2 14 15
f 2 15 16
f 2 16 17
f 2 17 18
f 2 18 19
f 2 19 20
f 2 20 21
f 2 21 22
f 2 22 6
f 3 9 31
f 3 31 23
f 4 24 25
f 4 23 24
f 5 25 32
f 5 32 10
f 6 22 26
f 7 27 28
f 7 28 8
f 8 28 29
f 8 29 30
f 8 30 31
f 8 31 9
f 10 32 11
f 11 32 33
f 11 33 34
f 11 34 35
f 11 35 12
f 12 35 13
f 13 35 14
f 14 35 36
f 14 36 37
f 14 37 15
f 15 37 16
f 16 38 17
f 16 37 38
f 17 38 39
f 17 39 40
f 17 40 18
f 18 40 19
f 19 41 20
f 19 40 41
f 20 42 43
f 20 43 21
f 20 41 42
f 21 43 22
f 22 43 44
f 22 44 45
f 22 45 26
f 23 46 24
f 23 31 30
f 23 30 46
f 24 47 48
f 24 48 49
f 24 49 25
f 24 46 50
f 24 50 47
f 25 49 51
f 25 51 32
f 26 45 80
f 26 80 124
f 26 124 171
f 26 171 132
f 26 132 86
f 26 86 52
f 27 53 54
f 27 54 28
f 28 55 29
f 28 54 56
f 28 56 55
f 29 55 57
f 29 57 58
f 29 58 30
f 30 58 46
f 32 51 59
f 32 59 33
f 33 59 60
f 33 60 34
f 34 60 35
f 35 60 61
f 35 61 62
f 35 62 36
f 36 62 37
f 37 62 63
f 37 63 64
f 37 64 38
f 38 64 65
f 38 65 39
f 39 65 40
f 40 66 67
f 40 67 41
f 40 65 66
f 41 68 42
f 41 67 68
f 42 69 43
f 42 68 69
f 43 69 44
f 44 69 70
f 44 70 45
f 45 70 71
f 45 71 72
f 45 72 73
f 45 73 74
f 45 74 75
f 45 75 76
f 45 76 77
f 45 77 78
f 45 78 79
f 45 79 117
f 45 117 80
f 46 58 50
f 47 81 82
f 47 82 48
f 47 50 83
f 47 83 81
f 48 82 84
f 48 84 49
f 49 84 51
f 50 58 83
f 51 84 85
f 51 85 59
f 52 86 87
f 52 87 88
f 53 89 90
f 53 90 54
f 54 90 56
f 55 56 57
f 56 91 92
f 56 92 57
f 56 90 93
f 56 93 94
f 56 94 91
f 57 92 58
f 58 95 96
f 58 96 83
f 58 92 95
f 59 85 97
f 59 97 98
f 59 98 60
f 60 98 61
f 61 98 97
f 61 97 99
f 61 99 62
f 62 100 101
f 62 101 102
f 62 102 63
f 62 99 100
f 63 102 103
f 63 103 64
f 64 104 65
f 64 103 105
f 64 105 106
f 64 106 104
f 65 104 66
f 66 107 108
f 66 108 67
f 66 104 109
f 66 109 107
f 67 108 110
f 67 110 68
f 68 111 69
f 68 110 112
f 68 112 111
f 69 111 70
f 70 111 71
f 71 111 72
f 72 111 73
f 73 111 74
f 74 111 113
f 74 113 114
f 74 114 75
f 75 114 76
f 76 114 115
f 76 115 77
f 77 115 78
f 78 115 79
f 79 115 116
f 79 116 163
f 79 163 203
f 79 203 226
f 79 226 236
f 79 236 231
f 79 231 230
f 79 230 229
f 79 229 232
f 79 232 233
f 79 233 235
f 79 235 237
f 79 237 227
f 79 227 204
f 79 204 164
f 79 164 117
f 80 117 118
f 80 118 119
f 80 119 120
f 80 120 121
f 80 121 122
f 80 122 123
f 80 123 124
f 81 83 125
f 81 125 82
f 82 125 126
f 82 126 127
f 82 127 84
f 83 128 125
f 83 96 129
f 83 129 128
f 84 127 130
f 84 130 85
f 85 130 131
f 85 131 99
f 85 99 97
f 86 132 87
f 87 133 134
f 87 134 135
f 87 135 136
f 87 136 137
f 87 137 88
f 87 132 133
f 89 138 90
f 90 138 139
f 90 139 140
f 90 140 141
f 90 141 93
f 91 142 143
f 91 143 92
f 91 94 142
f 92 143 144
f 92 144 95
f 93 141 145
f 93 145 94
f 94 145 146
f 94 146 147
f 94 147 142
f 95 129 96
f 95 144 148
f 95 148 129
f 99 131 149
f 99 149 150
f 99 150 151
f 99 151 152
f 99 152 100
f 100 152 101
f 101 152 153
f 101 153 102
f 102 153 103
f 103 153 105
f 104 106 154
f 104 154 155
f 104 155 109
f 105 153 156
f 105 156 154
f 105 154 106
f 107 155 108
f 107 109 155
f 108 155 157
f 108 157 110
f 110 157 158
f 110 158 112
f 111 112 158
f 111 158 113
f 113 158 159
f 113 159 114
f 114 159 160
f 114 160 115
f 115 160 161
f 115 161 162
f 115 162 116
f 116 162 163
f 117 164 165
f 117 165 118
f 118 165 119
f 119 165 120
f 120 166 121
f 120 165 166
f 121 166 167
f 121 167 168
f 121 168 122
f 122 168 169
f 122 169 123
f 123 169 124
f 124 169 170
f 124 170 171
f 125 172 126
f 125 128 172
f 126 172 173
f 126 173 174
f 126 174 175
f 126 175 127
f 127 175 130
f 128 129 176
f 128 176 177
f 128 177 172
f 129 148 176
f 130 175 178
f 130 178 149
f 130 149 131
f 132 171 133
f 133 171 170
f 133 170 179
f 133 179 134
f 134 179 180
f 134 180 135
f 135 181 136
f 135 180 182
f 135 182 181
f 139 183 140
f 140 183 182
f 140 182 141
f 141 182 180
f 141 180 145
f 142 184 185
f 142 185 143
f 142 147 186
f 142 186 184
f 143 185 187
f 143 187 144
f 144 187 148
f 145 180 188
f 145 188 146
f 146 188 189
f 146 189 190
f 146 190 191
f 146 191 147
f 147 191 186
f 148 192 176
f 148 187 185
f 148 185 184
f 148 184 193
f 148 193 192
f 149 178 194
f 149 194 195
f 149 195 150
f 150 195 196
f 150 196 151
f 151 196 197
f 151 197 152
f 152 197 153
f 153 197 156
f 154 156 198
f 154 198 155
f 155 159 157
f 155 198 199
f 155 199 159
f 156 197 200
f 156 200 201
f 156 201 198
f 157 159 158
f 159 199 161
f 159 161 160
f 161 198 201
f 161 201 162
f 161 199 198
f 162 201 202
f 162 202 163
f 163 202 203
f 164 204 205
f 164 205 165
f 165 205 166
f 166 205 206
f 166 206 167
f 167 207 169
f 167 169 168
f 167 206 190
f 167 190 207
f 169 207 179
f 169 179 170
f 172 177 208
f 172 208 173
f 173 209 174
f 173 208 209
f 174 210 211
f 174 211 194
f 174 194 178
f 174 178 175
f 174 209 210
f 176 212 213
f 176 213 177
f 176 192 214
f 176 214 212
f 177 213 208
f 179 207 188
f 179 188 180
f 181 182 215
f 182 183 215
f 184 216 193
f 184 186 216
f 186 191 217
f 186 217 216
f 188 207 189
f 189 207 190
f 190 206 217
f 190 217 191
f 192 193 218
f 192 218 214
f 193 216 218
f 194 211 219
f 194 219 220
f 194 220 195
f 195 220 221
f 195 221 196
f 196 222 223
f 196 223 224
f 196 224 197
f 196 221 219
f 196 219 222
f 197 224 200
f 200 202 201
f 200 224 223
f 200 223 225
f 200 225 202
f 202 225 203
f 203 225 226
f 204 227 205
f 205 227 228
f 205 228 217
f 205 217 206
f 208 213 229
f 208 229 209
f 209 229 230
f 209 230 210
f 210 230 211
f 211 231 219
f 211 230 231
f 212 232 213
f 212 214 232
f 213 232 229
f 214 218 233
f 214 233 232
f 216 234 218
f 216 217 234
f 217 228 234
f 218 234 235
f 218 235 233
f 219 231 222
f 219 221 220
f 222 236 223
f 222 231 236
f 223 236 226
f 223 226 225
f 227 237 228
f 228 237 234
f 234 237 235

