# https://github.com/mikedh/trimesh
v -0.38988280 -0.29627508 -0.40384763
v -0.34769320 -0.29627508 -0.40384763
v -0.39542857 -0.29627508 -0.39110866
v -0.39362472 -0.29166305 -0.40384763
v -0.45713276 0.00002731 -0.40384763
v -0.46998343 0.00002731 0.49991155
v -0.36485228 -0.29627508 0.49991155
v -0.39708337 -0.29421562 -0.39110866
v -0.39964753 -0.29627508 -0.37713119
v -0.39972207 -0.29618806 -0.37713119
v -0.42138338 -0.25821841 -0.39110866
v -0.41770113 -0.25595590 -0.40384763
v -0.48988560 0.00002731 -0.40384763
v -0.47997180 0.00002731 0.49991155
v -0.37722591 -0.29627508 0.49991155
v -0.39985624 -0.29627508 -0.37606961
v -0.42417118 -0.25992981 -0.37713119
v -0.44516164 -0.22210521 -0.37713119
v -0.44220984 -0.22062588 -0.39110866
v -0.43836358 -0.21871144 -0.40384763
v -0.48988560 -0.00003070 -0.40384763
v -0.49419403 0.00002731 -0.39110866
v -0.48362425 0.00002731 0.49955767
v -0.47998670 -0.00003070 0.49991155
v -0.40177938 -0.26262742 0.49991155
v -0.38860071 -0.28792119 0.49955767
v -0.38181758 -0.29627508 0.49955767
v -0.40195829 -0.29627508 -0.36333063
v -0.42579615 -0.26091605 -0.36333063
v -0.46255925 -0.18312034 -0.37713119
v -0.44684625 -0.22294641 -0.36333063
v -0.46431839 -0.18381649 -0.36333063
v -0.45948821 -0.18190207 -0.39110866
v -0.45549285 -0.18033570 -0.40384763
v -0.48964709 -0.00467175 -0.40384763
v -0.49419403 -0.00003070 -0.39110866
v -0.49748868 0.00002731 -0.37721965
v -0.48735124 0.00002731 0.49849612
v -0.48362425 -0.00003070 0.49955767
v -0.47804865 -0.04316350 0.49991155
v -0.42637756 -0.22045183 0.49991155
v -0.41236407 -0.25267816 0.49955767
v -0.41553944 -0.25462160 0.49849612
v -0.39158231 -0.29012567 0.49849612
v -0.38661796 -0.29627508 0.49849612
v -0.40201789 -0.29627508 -0.36279985
v -0.41849124 -0.27359194 -0.34988394
v -0.44411808 -0.22961792 -0.34988394
v -0.47633424 -0.14352633 -0.37713119
v -0.47123569 -0.15002382 -0.38854319
v -0.47059467 -0.15002382 -0.39110866
v -0.47815302 -0.14407746 -0.36333063
v -0.46488491 -0.18404855 -0.34988394
v -0.46907404 -0.14132184 -0.40384763
v -0.48729160 -0.05044416 -0.40384763
v -0.49157020 -0.05087926 -0.39110866
v -0.49484998 -0.05119833 -0.37713119
v -0.49672836 -0.05140138 -0.36333063
v -0.49938199 -0.00003070 -0.36333063
v -0.49938199 0.00002731 -0.36333063
v -0.49092916 0.00002731 0.49663833
v -0.48735124 -0.00003070 0.49849612
v -0.48106009 -0.04980601 0.49955767
v -0.47198111 -0.08734055 0.49991155
v -0.44627973 -0.17668088 0.49991155
v -0.43275818 -0.21589780 0.49955767
v -0.43608266 -0.21755117 0.49849612
v -0.43928787 -0.21914653 0.49663833
v -0.41858068 -0.25650704 0.49663833
v -0.39445955 -0.29227215 0.49663833
v -0.39122453 -0.29627508 0.49663833
v -0.40219679 -0.29627508 -0.08687729
v -0.40233096 -0.29627508 0.48336858
v -0.41849124 -0.27359194 0.47982997
v -0.42630303 -0.26123512 0.06492878
v -0.44411808 -0.22961792 0.47982997
v -0.45362937 -0.21024151 0.06492878
v -0.48654622 -0.10375829 -0.37713119
v -0.47318864 -0.14256911 -0.39110866
v -0.48839480 -0.10413537 -0.36333063
v -0.48068738 -0.13757998 -0.34988394
v -0.46488491 -0.18404855 0.47982997
v -0.47451547 -0.15753652 0.06492878
v -0.47684112 -0.15002382 -0.09085821
v -0.47819775 -0.10578875 -0.40384763
v -0.47912204 -0.10216293 -0.40384763
v -0.48332608 -0.10306213 -0.39110866
v -0.49164474 -0.09096637 -0.34988394
v -0.49796572 -0.04496191 -0.34988394
v -0.49997830 -0.00003070 -0.34988394
v -0.49997830 0.00002731 -0.34988394
v -0.49411947 0.00002731 0.49398440
v -0.49413437 -0.00003070 0.49398440
v -0.49092916 -0.00003070 0.49663833
v -0.48832026 -0.05056018 0.49663833
v -0.48475724 -0.05018310 0.49849612
v -0.47664732 -0.10164081 0.49849612
v -0.47299486 -0.10085763 0.49955767
v -0.46147096 -0.13209774 0.49991155
v -0.46308103 -0.13952342 0.49955767
v -0.44967875 -0.17801517 0.49955767
v -0.45646188 -0.18071279 0.49663833
v -0.45312250 -0.17937849 0.49849612
v -0.44215021 -0.22059686 0.49398440
v -0.42132375 -0.25818941 0.49398440
v -0.39703864 -0.29418659 0.49398440
v -0.39507079 -0.29627508 0.49416131
v -0.40227133 -0.29627508 0.48354551
v -0.42601976 -0.26106107 0.48354551
v -0.44709969 -0.22306243 0.48354551
v -0.48068738 -0.13757998 0.47982997
v -0.48900604 -0.10428040 0.06492878
v -0.47684112 -0.15002382 0.22089271
v -0.46457183 -0.18390352 0.48354551
v -0.47840646 -0.14416447 0.48354551
v -0.49164474 -0.09096637 0.47982997
v -0.49733961 -0.05145939 0.06492878
v -0.49796572 -0.04496191 0.47982997
v -0.49997830 -0.00003070 0.47982997
v -0.49997830 0.00002731 0.47982997
v -0.49672836 0.00002731 0.49079964
v -0.49672836 -0.00003070 0.49079964
v -0.49151057 -0.05087926 0.49398440
v -0.48013577 -0.10239498 0.49663833
v -0.47005796 -0.14164090 0.49663833
v -0.46662915 -0.14062567 0.49849612
v -0.46984926 -0.15002382 0.49451518
v -0.45942858 -0.18187305 0.49398440
v -0.44447586 -0.22175713 0.49079964
v -0.42353013 -0.25955272 0.49079964
v -0.39911085 -0.29572397 0.49079964
v -0.39861888 -0.29627508 0.49088812
v -0.39533913 -0.29627508 0.49398440
v -0.40098926 -0.29627508 0.48726103
v -0.42511037 -0.26050994 0.48726103
v -0.44613066 -0.22256932 0.48726103
v -0.46357301 -0.18352643 0.48726103
v -0.48866314 -0.10419339 0.48354551
v -0.47739270 -0.14384541 0.48726103
v -0.49699670 -0.05143038 0.48354551
v -0.49966526 -0.00003070 0.48354551
v -0.49966526 0.00002731 0.48354551
v -0.49859187 0.00002731 0.48726103
v -0.49859187 -0.00003070 0.48726103
v -0.49408966 -0.05114032 0.49079964
v -0.48581573 -0.10361326 0.49079964
v -0.48326644 -0.10306213 0.49398440
v -0.47311410 -0.14254011 0.49398440
v -0.47052014 -0.15002382 0.49398440
v -0.46184367 -0.18283027 0.49079964
v -0.39985624 -0.29627508 0.48903033
v -0.48761958 -0.10399034 0.48726103
v -0.47326320 -0.15002382 0.49079964
v -0.47560376 -0.14329427 0.49079964
v -0.49593824 -0.05131436 0.48726103
f 1 2 7
f 1 7 15
f 1 15 27
f 1 27 45
f 1 45 71
f 1 71 107
f 1 107 133
f 1 133 132
f 1 132 151
f 1 151 134
f 1 134 108
f 1 108 73
f 1 73 72
f 1 72 46
f 1 46 28
f 1 28 16
f 1 16 9
f 1 9 3
f 1 3 4
f 1 4 12
f 1 12 20
f 1 20 34
f 1 34 54
f 1 54 85
f 1 85 86
f 1 86 55
f 1 55 35
f 1 35 21
f 1 21 13
f 1 13 5
f 1 5 2
f 2 5 6
f 2 6 7
f 3 8 4
f 3 9 10
f 3 10 8
f 4 8 11
f 4 11 12
f 5 13 22
f 5 22 37
f 5 37 60
f 5 60 91
f 5 91 120
f 5 120 142
f 5 142 143
f 5 143 121
f 5 121 92
f 5 92 61
f 5 61 38
f 5 38 23
f 5 23 14
f 5 14 6
f 6 14 24
f 6 24 40
f 6 40 64
f 6 64 99
f 6 99 65
f 6 65 41
f 6 41 25
f 6 25 15
f 6 15 7
f 8 10 11
f 9 16 10
f 10 16 17
f 10 17 11
f 11 17 18
f 11 18 19
f 11 19 20
f 11 20 12
f 13 21 36
f 13 36 22
f 14 23 24
f 15 25 26
f 15 26 27
f 16 28 29
f 16 29 17
f 17 29 18
f 18 30 19
f 18 29 31
f 18 31 32
f 18 32 30
f 19 33 34
f 19 34 20
f 19 30 33
f 21 35 36
f 22 36 37
f 23 38 62
f 23 62 39
f 23 39 24
f 24 39 40
f 25 41 42
f 25 42 26
f 26 42 43
f 26 43 44
f 26 44 45
f 26 45 27
f 28 46 29
f 29 46 47
f 29 47 48
f 29 48 31
f 30 49 50
f 30 50 51
f 30 51 33
f 30 32 52
f 30 52 49
f 31 48 53
f 31 53 32
f 32 53 52
f 33 51 34
f 34 51 54
f 35 55 36
f 36 55 56
f 36 56 37
f 37 56 57
f 37 57 58
f 37 58 59
f 37 59 60
f 38 61 94
f 38 94 62
f 39 62 63
f 39 63 40
f 40 63 64
f 41 65 66
f 41 66 42
f 42 66 43
f 43 66 67
f 43 67 68
f 43 68 69
f 43 69 70
f 43 70 44
f 44 70 45
f 45 70 71
f 46 72 47
f 47 72 73
f 47 73 74
f 47 74 75
f 47 75 48
f 48 75 76
f 48 76 77
f 48 77 53
f 49 78 79
f 49 79 50
f 49 52 78
f 50 79 51
f 51 79 54
f 52 80 78
f 52 53 81
f 52 81 80
f 53 77 82
f 53 82 83
f 53 83 84
f 53 84 81
f 54 79 85
f 55 86 56
f 56 86 87
f 56 87 57
f 57 87 78
f 57 78 58
f 58 78 80
f 58 80 88
f 58 88 89
f 58 89 59
f 59 89 90
f 59 90 91
f 59 91 60
f 61 92 93
f 61 93 94
f 62 94 95
f 62 95 96
f 62 96 63
f 63 96 97
f 63 97 98
f 63 98 64
f 64 98 99
f 65 99 100
f 65 100 101
f 65 101 66
f 66 101 67
f 67 102 68
f 67 101 103
f 67 103 102
f 68 104 105
f 68 105 69
f 68 102 104
f 69 105 70
f 70 105 106
f 70 106 71
f 71 106 107
f 73 108 109
f 73 109 74
f 74 109 75
f 75 109 76
f 76 109 110
f 76 110 77
f 77 110 82
f 78 87 79
f 79 87 85
f 80 81 88
f 81 84 113
f 81 113 111
f 81 111 112
f 81 112 88
f 82 111 113
f 82 113 83
f 82 110 114
f 82 114 115
f 82 115 111
f 83 113 84
f 85 87 86
f 88 112 116
f 88 116 117
f 88 117 89
f 89 117 118
f 89 118 119
f 89 119 90
f 90 119 120
f 90 120 91
f 92 121 93
f 93 121 122
f 93 122 123
f 93 123 94
f 94 123 95
f 95 123 124
f 95 124 97
f 95 97 96
f 97 124 125
f 97 125 126
f 97 126 100
f 97 100 98
f 98 100 99
f 100 126 101
f 101 126 103
f 102 103 126
f 102 126 125
f 102 125 127
f 102 127 128
f 102 128 104
f 104 128 129
f 104 129 105
f 105 129 130
f 105 130 106
f 106 130 131
f 106 131 132
f 106 132 133
f 106 133 107
f 108 134 135
f 108 135 109
f 109 135 110
f 110 135 136
f 110 136 137
f 110 137 114
f 111 115 138
f 111 138 112
f 112 138 116
f 114 137 139
f 114 139 115
f 115 139 138
f 116 118 117
f 116 138 140
f 116 140 118
f 118 140 141
f 118 141 119
f 119 141 142
f 119 142 120
f 121 143 144
f 121 144 122
f 122 144 145
f 122 145 123
f 123 145 146
f 123 146 147
f 123 147 124
f 124 147 125
f 125 147 148
f 125 148 127
f 127 148 149
f 127 149 128
f 128 149 150
f 128 150 129
f 129 150 137
f 129 137 136
f 129 136 135
f 129 135 130
f 130 135 134
f 130 134 131
f 131 134 151
f 131 151 132
f 137 150 139
f 138 139 152
f 138 152 140
f 139 150 153
f 139 153 154
f 139 154 146
f 139 146 152
f 140 152 155
f 140 155 141
f 141 155 144
f 141 144 143
f 141 143 142
f 144 155 145
f 145 155 146
f 146 155 152
f 146 154 148
f 146 148 147
f 148 154 149
f 149 154 153
f 149 153 150

