# https://github.com/mikedh/trimesh
v -0.45752460 0.17307179 -0.40384763
v -0.42234543 0.17307179 -0.40384763
v -0.46039993 0.17307179 -0.39597425
v -0.44447303 0.20605682 -0.40384763
v -0.21347068 0.40336680 -0.40384763
v -0.21347068 0.41856337 0.49991155
v -0.43697214 0.17307179 0.49991155
v -0.46215013 0.17307179 -0.39110866
v -0.44837350 0.20785749 -0.39110866
v -0.42134529 0.25824901 -0.39110866
v -0.41766986 0.25601181 -0.40384763
v -0.21347068 0.44047153 -0.40384763
v -0.21347068 0.42955840 0.49991155
v -0.44819850 0.17307179 0.49991155
v -0.46457541 0.17307179 -0.38164291
v -0.45134884 0.20922163 -0.37713119
v -0.42417064 0.25996783 -0.37713119
v -0.38821638 0.30583042 -0.39110866
v -0.38484097 0.30315667 -0.40384763
v -0.25600073 0.41769034 -0.40384763
v -0.21347068 0.44535518 -0.39110866
v -0.22047152 0.42636627 0.49991155
v -0.21347068 0.43337798 0.49955767
v -0.42637089 0.22048947 0.49991155
v -0.43877238 0.20338309 0.49955767
v -0.45079878 0.17307179 0.49955767
v -0.46567553 0.17307179 -0.37713119
v -0.46772581 0.17307179 -0.36333063
v -0.45307407 0.21001284 -0.36333063
v -0.42577082 0.26097730 -0.36333063
v -0.39229184 0.30902252 -0.36333063
v -0.39079168 0.30784935 -0.37713119
v -0.34946179 0.34945577 -0.39110866
v -0.34996185 0.34241679 -0.40384763
v -0.30313131 0.38484171 -0.40384763
v -0.25825098 0.42134622 -0.39110866
v -0.21347068 0.44576442 -0.38960475
v -0.25272533 0.41234288 0.49955767
v -0.26267651 0.40175709 0.49991155
v -0.21347068 0.43760684 0.49849612
v -0.40174299 0.26266885 0.49991155
v -0.41234422 0.25273788 0.49955767
v -0.41551960 0.25470224 0.49849612
v -0.44214776 0.20496550 0.49849612
v -0.45479926 0.17307179 0.49849612
v -0.46862590 0.17307179 -0.35545725
v -0.46487546 0.18406680 -0.34988394
v -0.45944983 0.19721717 0.06492878
v -0.44412300 0.22968382 -0.34988394
v -0.41846997 0.27363658 -0.34988394
v -0.38816637 0.31513387 -0.34988394
v -0.35311222 0.35308439 -0.36333063
v -0.35178706 0.35174754 -0.37713119
v -0.32325870 0.37272808 -0.39110866
v -0.32325870 0.36918131 -0.39898205
v -0.32325870 0.36697140 -0.40384763
v -0.34641144 0.34637281 -0.40384763
v -0.32325870 0.37712064 -0.37713119
v -0.30713177 0.38129491 -0.40384763
v -0.30580661 0.38819748 -0.39110866
v -0.30785686 0.39078939 -0.37713119
v -0.25997621 0.42415637 -0.37713119
v -0.21347068 0.44906566 -0.37713119
v -0.25467557 0.41550767 0.49849612
v -0.29928085 0.37993079 0.49955767
v -0.30255625 0.37264624 0.49991155
v -0.21347068 0.44164473 0.49663833
v -0.25655079 0.41856337 0.49663833
v -0.37263954 0.30252919 0.49991155
v -0.37991539 0.29928252 0.49955767
v -0.38284075 0.30157426 0.49849612
v -0.38566607 0.30381146 0.49663833
v -0.41856998 0.25655746 0.49663833
v -0.44539815 0.20646606 0.49663833
v -0.45864972 0.17307179 0.49663833
v -0.46887594 0.17307179 -0.17720012
v -0.46487546 0.18406680 0.47982997
v -0.45332408 0.21014926 0.48354551
v -0.44412300 0.22968382 0.47982997
v -0.44074759 0.23606801 0.06492878
v -0.42602086 0.26111373 0.48354551
v -0.41846997 0.27363658 0.47982997
v -0.39276692 0.30937719 0.06492878
v -0.35353726 0.35352093 -0.34988394
v -0.38816637 0.31513387 0.47982997
v -0.36386350 0.34290788 0.06492878
v -0.32325870 0.38088569 -0.34988394
v -0.32325870 0.38069469 -0.35271484
v -0.32325870 0.37965795 -0.36333063
v -0.30903199 0.39228994 -0.36333063
v -0.21347068 0.44925666 -0.37606961
v -0.26095131 0.42579335 -0.36333063
v -0.30158111 0.38285005 0.49849612
v -0.32325870 0.36358833 0.49849612
v -0.32325870 0.35862282 0.49955767
v -0.32325870 0.35654932 0.49973461
v -0.32325870 0.35398474 0.49991155
v -0.21347068 0.44486409 0.49433824
v -0.25822598 0.42129165 0.49398440
v -0.30380639 0.38566017 0.49663833
v -0.33943561 0.33938837 0.49991155
v -0.34196091 0.34195298 0.49955767
v -0.34461123 0.34459943 0.49849612
v -0.34713653 0.34710944 0.49663833
v -0.34941179 0.34937394 0.49398440
v -0.38816637 0.30577585 0.49398440
v -0.42129529 0.25822175 0.49398440
v -0.44832349 0.20783021 0.49398440
v -0.45982486 0.17307179 0.49575368
v -0.46887594 0.17307179 0.30723462
v -0.46872592 0.17307179 0.48142233
v -0.46687567 0.17307179 0.48726103
v -0.45234898 0.20968544 0.48726103
v -0.42509574 0.26054078 0.48726103
v -0.39166677 0.30853140 0.48726103
v -0.39251688 0.30918619 0.48354551
v -0.35353726 0.35352093 0.47982997
v -0.33205974 0.37381941 0.06492878
v -0.35331225 0.35330266 0.48354551
v -0.32325870 0.38129491 -0.15083753
v -0.31515771 0.38817021 -0.34988394
v -0.27360281 0.41848153 -0.34988394
v -0.21347068 0.45122099 -0.36333063
v -0.22967261 0.44412744 -0.34988394
v -0.32325870 0.36839011 0.49663833
v -0.21347068 0.44527334 0.49398440
v -0.25957614 0.42350158 0.49079964
v -0.30578160 0.38817021 0.49398440
v -0.32325870 0.37084556 0.49513444
v -0.32325870 0.37264624 0.49398440
v -0.32325870 0.37480158 0.49203816
v -0.35126200 0.35122916 0.49079964
v -0.39021662 0.30735824 0.49079964
v -0.42349556 0.25958589 0.49079964
v -0.45067376 0.20892152 0.49079964
v -0.46210012 0.17307179 0.49398440
v -0.46550053 0.17307179 0.48973808
v -0.35253716 0.35253873 0.48726103
v -0.32325870 0.38088569 0.47982997
v -0.32325870 0.38129491 0.28087205
v -0.32325870 0.37859392 0.48726103
v -0.32325870 0.38001263 0.48354551
v -0.32325870 0.38077655 0.48062617
v -0.31515771 0.38817021 0.47982997
v -0.29770565 0.40170252 0.06492878
v -0.27360281 0.41848153 0.47982997
v -0.26127636 0.42628443 0.06492878
v -0.21347068 0.45149386 -0.36094207
v -0.22967261 0.44412744 0.47982997
v -0.22324684 0.44737411 0.06492878
v -0.21347068 0.44819260 0.49079964
v -0.21347068 0.45032066 0.48726103
v -0.26055127 0.42508399 0.48726103
v -0.30853194 0.39166242 0.48726103
v -0.30738181 0.39018914 0.49079964
v -0.32325870 0.37611118 0.49079964
v -0.32325870 0.37774813 0.48849955
v -0.46487546 0.17307179 0.49079964
v -0.30918202 0.39250821 0.48354551
v -0.26110134 0.42601162 0.48354551
v -0.21347068 0.45173937 -0.03830995
v -0.21347068 0.45176667 0.48292625
f 1 2 7
f 1 7 14
f 1 14 26
f 1 26 45
f 1 45 75
f 1 75 109
f 1 109 136
f 1 136 158
f 1 158 137
f 1 137 112
f 1 112 111
f 1 111 110
f 1 110 76
f 1 76 46
f 1 46 28
f 1 28 27
f 1 27 15
f 1 15 8
f 1 8 3
f 1 3 4
f 1 4 11
f 1 11 19
f 1 19 34
f 1 34 57
f 1 57 56
f 1 56 59
f 1 59 35
f 1 35 20
f 1 20 12
f 1 12 5
f 1 5 2
f 2 5 6
f 2 6 7
f 3 8 9
f 3 9 4
f 4 9 10
f 4 10 11
f 5 12 21
f 5 21 37
f 5 37 63
f 5 63 91
f 5 91 123
f 5 123 148
f 5 148 161
f 5 161 162
f 5 162 152
f 5 152 151
f 5 151 126
f 5 126 98
f 5 98 67
f 5 67 40
f 5 40 23
f 5 23 13
f 5 13 6
f 6 13 22
f 6 22 39
f 6 39 66
f 6 66 97
f 6 97 101
f 6 101 69
f 6 69 41
f 6 41 24
f 6 24 14
f 6 14 7
f 8 15 9
f 9 15 16
f 9 16 17
f 9 17 10
f 10 17 18
f 10 18 11
f 11 18 19
f 12 20 21
f 13 23 22
f 14 24 25
f 14 25 26
f 15 27 16
f 16 27 28
f 16 28 29
f 16 29 17
f 17 29 30
f 17 30 31
f 17 31 32
f 17 32 18
f 18 32 33
f 18 33 19
f 19 33 34
f 20 35 36
f 20 36 21
f 21 36 37
f 22 23 38
f 22 38 39
f 23 40 38
f 24 41 42
f 24 42 25
f 25 42 43
f 25 43 44
f 25 44 26
f 26 44 45
f 28 46 29
f 29 46 47
f 29 47 48
f 29 48 49
f 29 49 30
f 30 49 50
f 30 50 31
f 31 50 51
f 31 51 52
f 31 52 53
f 31 53 32
f 32 53 33
f 33 54 55
f 33 55 56
f 33 56 57
f 33 57 34
f 33 53 58
f 33 58 54
f 35 59 54
f 35 54 60
f 35 60 36
f 36 60 61
f 36 61 62
f 36 62 37
f 37 62 63
f 38 40 64
f 38 64 65
f 38 65 39
f 39 65 66
f 40 67 68
f 40 68 64
f 41 69 70
f 41 70 42
f 42 70 43
f 43 71 72
f 43 72 73
f 43 73 74
f 43 74 44
f 43 70 71
f 44 74 75
f 44 75 45
f 46 76 47
f 47 76 110
f 47 110 77
f 47 77 48
f 48 77 78
f 48 78 79
f 48 79 49
f 49 79 80
f 49 80 50
f 50 80 81
f 50 81 82
f 50 82 83
f 50 83 51
f 51 84 52
f 51 83 85
f 51 85 86
f 51 86 84
f 52 84 87
f 52 87 88
f 52 88 89
f 52 89 53
f 53 89 58
f 54 59 55
f 54 58 61
f 54 61 60
f 55 59 56
f 58 89 90
f 58 90 61
f 61 90 62
f 62 91 63
f 62 90 92
f 62 92 91
f 64 68 93
f 64 93 65
f 65 93 94
f 65 94 95
f 65 95 96
f 65 96 66
f 66 96 97
f 67 98 68
f 68 98 99
f 68 99 100
f 68 100 93
f 69 101 102
f 69 102 70
f 70 102 103
f 70 103 71
f 71 103 72
f 72 104 105
f 72 105 106
f 72 106 107
f 72 107 73
f 72 103 104
f 73 107 108
f 73 108 74
f 74 108 109
f 74 109 75
f 77 110 111
f 77 111 112
f 77 112 113
f 77 113 78
f 78 113 79
f 79 113 114
f 79 114 81
f 79 81 80
f 81 114 115
f 81 115 116
f 81 116 82
f 82 116 83
f 83 116 85
f 84 86 117
f 84 117 118
f 84 118 87
f 85 117 86
f 85 116 119
f 85 119 117
f 87 118 120
f 87 120 121
f 87 121 88
f 88 121 89
f 89 121 90
f 90 121 122
f 90 122 92
f 91 92 123
f 92 122 124
f 92 124 123
f 93 100 125
f 93 125 94
f 94 125 103
f 94 103 95
f 95 102 96
f 95 103 102
f 96 102 101
f 96 101 97
f 98 126 99
f 99 126 127
f 99 127 128
f 99 128 100
f 100 128 129
f 100 129 125
f 103 125 104
f 104 125 129
f 104 129 105
f 105 129 130
f 105 130 131
f 105 131 132
f 105 132 106
f 106 132 133
f 106 133 107
f 107 133 134
f 107 134 135
f 107 135 108
f 108 136 109
f 108 135 136
f 112 137 113
f 113 137 135
f 113 135 114
f 114 135 134
f 114 134 115
f 115 138 119
f 115 119 116
f 115 134 133
f 115 133 132
f 115 132 138
f 117 139 118
f 117 119 139
f 118 139 140
f 118 140 120
f 119 138 141
f 119 141 142
f 119 142 143
f 119 143 139
f 120 140 144
f 120 144 121
f 121 144 145
f 121 145 122
f 122 145 146
f 122 146 147
f 122 147 124
f 123 124 148
f 124 147 149
f 124 149 150
f 124 150 148
f 126 151 127
f 127 151 152
f 127 152 153
f 127 153 154
f 127 154 155
f 127 155 128
f 128 130 129
f 128 155 131
f 128 131 130
f 131 155 156
f 131 156 132
f 132 156 157
f 132 157 138
f 135 137 158
f 135 158 136
f 138 157 141
f 139 143 144
f 139 144 140
f 141 157 154
f 141 154 159
f 141 159 142
f 142 159 143
f 143 159 144
f 144 146 145
f 144 159 146
f 146 159 160
f 146 160 147
f 147 160 149
f 148 150 161
f 149 160 153
f 149 153 152
f 149 152 162
f 149 162 150
f 150 162 161
f 153 160 154
f 154 160 159
f 154 157 155
f 155 157 156

