# https://github.com/mikedh/trimesh
v 0.33234817 0.34578231 0.50000000
v 0.30251664 0.37266695 0.50000000
v 0.33234817 0.33233184 0.50000000
v 0.33234817 0.35090786 0.49964148
v 0.26264617 0.40177161 0.50000000
v 0.29924306 0.37994722 0.49955183
v 0.33234817 0.33231550 0.07504454
v 0.16086313 0.44111100 0.50000000
v 0.32952785 0.30655718 -0.41570234
v 0.33234817 0.35141391 0.49955183
v 0.22047579 0.42635465 0.50000000
v 0.26462710 0.40479144 0.49955183
v 0.22833237 0.42633832 0.49955183
v 0.30154297 0.38286909 0.49856585
v 0.26667517 0.40790921 0.49856585
v 0.33234817 0.33233184 -0.30867922
v 0.16086313 0.45167226 0.50000000
v 0.16086313 0.44099674 0.07504454
v 0.17530043 0.41478136 -0.41570234
v 0.32952785 0.35436845 -0.41570234
v 0.33234817 0.35631090 0.49856585
v 0.17671059 0.44628552 0.50000000
v 0.19077858 0.44442466 0.49955183
v 0.23009507 0.42961934 0.49856585
v 0.33234817 0.36047339 0.49686277
v 0.30377573 0.38569304 0.49659389
v 0.26863933 0.41089639 0.49659389
v 0.23179062 0.43278608 0.49659389
v 0.33234817 0.37266695 -0.30867922
v 0.16086313 0.45456150 0.49973106
v 0.16086313 0.44117630 -0.30867922
v 0.17530043 0.45070916 -0.41570234
v 0.30285239 0.38453409 -0.40512556
v 0.32952785 0.36153442 -0.40512556
v 0.29949489 0.38024104 -0.41570234
v 0.16086313 0.45578575 0.49955183
v 0.19223909 0.44783625 0.49856585
v 0.16086313 0.45975232 0.49856585
v 0.33234817 0.36104470 0.49659389
v 0.33234817 0.36447263 0.49453229
v 0.30573988 0.38819054 0.49399447
v 0.27038524 0.41357341 0.49399447
v 0.19364925 0.45113358 0.49659389
v 0.23330149 0.43559369 0.49399447
v 0.19490832 0.45408812 0.49399447
v 0.32952785 0.36778626 -0.39123225
v 0.32952785 0.36909214 -0.38701946
v 0.32952785 0.37211198 -0.37724930
v 0.32952785 0.37462577 -0.36344564
v 0.32952785 0.37518078 -0.35708165
v 0.32952785 0.37522975 -0.35000056
v 0.33234817 0.37284651 0.48225242
v 0.16086313 0.47282737 -0.30867922
v 0.17530043 0.45652032 -0.40512556
v 0.19091287 0.44478378 -0.41570234
v 0.26484534 0.40511790 -0.41570234
v 0.26781675 0.40965581 -0.40512556
v 0.27041882 0.41362238 -0.39123225
v 0.30579022 0.38822317 -0.39123225
v 0.16086313 0.46357203 0.49659389
v 0.33234817 0.36525613 0.49399447
v 0.33234817 0.36786789 0.49166399
v 0.30735147 0.39023095 0.49085730
v 0.27179539 0.41576076 0.49085730
v 0.23452699 0.43789530 0.49085730
v 0.16086313 0.46409437 0.49623537
v 0.16086313 0.46735904 0.49363595
v 0.16086313 0.46699992 0.49399447
v 0.19593236 0.45645499 0.49085730
v 0.30782151 0.39080226 -0.37724930
v 0.30899665 0.39230403 -0.36344564
v 0.31514090 0.38817421 -0.35000056
v 0.31896847 0.38474628 -0.30867922
v 0.31512412 0.38819054 0.47992194
v 0.30916452 0.39251623 0.48359692
v 0.33234817 0.37253639 0.48359692
v 0.16086313 0.47331709 0.01346589
v 0.17530043 0.46793038 -0.30867922
v 0.17530043 0.46786508 -0.35000056
v 0.17530043 0.46784875 -0.35439259
v 0.17530043 0.46711421 -0.36344564
v 0.17530043 0.46618375 -0.36980969
v 0.17530043 0.46509010 -0.37724930
v 0.17530043 0.46159688 -0.39123225
v 0.19304490 0.44977874 -0.40512556
v 0.22851704 0.42668110 -0.41570234
v 0.23108554 0.43148020 -0.40512556
v 0.24246751 0.41842148 -0.41570234
v 0.23331828 0.43564266 -0.39123225
v 0.23487952 0.43856457 -0.37724930
v 0.27221510 0.41638106 -0.37724930
v 0.33234817 0.36868405 0.49085730
v 0.33234817 0.37113258 0.48727196
v 0.30849302 0.39166743 0.48727196
v 0.27281943 0.41731149 0.48727196
v 0.23539995 0.43952763 0.48727196
v 0.19665423 0.45816898 0.48727196
v 0.16086313 0.46977490 0.49085730
v 0.16086313 0.47176635 0.48727196
v 0.27325591 0.41796443 -0.36344564
v 0.27359167 0.41847044 -0.35000056
v 0.27715063 0.41592398 -0.30867922
v 0.31455335 0.38864759 -0.30867922
v 0.30936599 0.39277741 0.06500552
v 0.27357489 0.41848677 0.47992194
v 0.27340701 0.41820928 0.48359692
v 0.16086313 0.47331709 0.11654515
v 0.18408033 0.46487790 0.47992194
v 0.18142790 0.46584097 -0.30867922
v 0.18406355 0.46487790 -0.35000056
v 0.19697319 0.45888719 -0.36344564
v 0.19621775 0.45715693 -0.37724930
v 0.19492510 0.45413709 -0.39123225
v 0.23578605 0.44021323 -0.36344564
v 0.23590356 0.44047439 0.48359692
v 0.19709070 0.45914838 0.48359692
v 0.16086313 0.47290900 0.48359692
v 0.22965859 0.44411451 -0.35000056
v 0.23281465 0.44235158 -0.30867922
v 0.27234939 0.41927028 -0.30867922
v 0.26123601 0.42628935 0.06500552
v 0.22967538 0.44413084 0.47992194
v 0.16086313 0.47300693 0.48305911
v 0.21028574 0.45363104 0.06500552
v 0.22774480 0.44506127 -0.30867922
f 1 2 5
f 1 5 11
f 1 11 22
f 1 22 17
f 1 17 8
f 1 8 3
f 1 3 7
f 1 7 16
f 1 16 29
f 1 29 52
f 1 52 76
f 1 76 93
f 1 93 92
f 1 92 62
f 1 62 61
f 1 61 40
f 1 40 39
f 1 39 25
f 1 25 21
f 1 21 10
f 1 10 4
f 1 4 2
f 2 4 6
f 2 6 5
f 3 8 9
f 3 9 7
f 4 10 6
f 5 6 12
f 5 12 13
f 5 13 11
f 6 10 14
f 6 14 15
f 6 15 12
f 7 9 16
f 8 17 30
f 8 30 36
f 8 36 38
f 8 38 60
f 8 60 66
f 8 66 68
f 8 68 67
f 8 67 98
f 8 98 99
f 8 99 117
f 8 117 123
f 8 123 107
f 8 107 77
f 8 77 53
f 8 53 31
f 8 31 18
f 8 18 19
f 8 19 9
f 9 19 32
f 9 32 55
f 9 55 86
f 9 86 88
f 9 88 56
f 9 56 35
f 9 35 20
f 9 20 29
f 9 29 16
f 10 21 14
f 11 13 23
f 11 23 22
f 12 15 13
f 13 15 24
f 13 24 23
f 14 25 26
f 14 26 15
f 14 21 25
f 15 26 27
f 15 27 28
f 15 28 24
f 17 22 30
f 18 31 19
f 19 31 53
f 19 53 32
f 20 33 34
f 20 34 29
f 20 35 33
f 22 23 30
f 23 36 30
f 23 24 37
f 23 37 38
f 23 38 36
f 24 28 37
f 25 39 26
f 26 40 41
f 26 41 42
f 26 42 27
f 26 39 40
f 27 42 28
f 28 43 37
f 28 42 44
f 28 44 45
f 28 45 43
f 29 34 46
f 29 46 47
f 29 47 48
f 29 48 49
f 29 49 50
f 29 50 51
f 29 51 52
f 32 53 54
f 32 54 55
f 33 35 56
f 33 56 57
f 33 57 58
f 33 58 59
f 33 59 46
f 33 46 34
f 37 43 38
f 38 43 60
f 40 61 41
f 41 61 62
f 41 62 63
f 41 63 64
f 41 64 42
f 42 64 65
f 42 65 44
f 43 66 60
f 43 45 66
f 44 65 45
f 45 67 68
f 45 68 66
f 45 65 69
f 45 69 67
f 46 59 47
f 47 59 70
f 47 70 48
f 48 70 49
f 49 71 50
f 49 70 71
f 50 71 72
f 50 72 51
f 51 72 73
f 51 73 52
f 52 74 75
f 52 75 76
f 52 73 72
f 52 72 74
f 53 77 78
f 53 78 79
f 53 79 80
f 53 80 81
f 53 81 82
f 53 82 83
f 53 83 84
f 53 84 54
f 54 84 85
f 54 85 55
f 55 85 87
f 55 87 86
f 56 88 57
f 57 88 87
f 57 87 58
f 58 87 89
f 58 89 90
f 58 90 91
f 58 91 59
f 59 91 70
f 62 92 63
f 63 92 93
f 63 93 94
f 63 94 95
f 63 95 64
f 64 95 65
f 65 95 96
f 65 96 97
f 65 97 69
f 67 69 98
f 69 97 99
f 69 99 98
f 70 91 71
f 71 100 101
f 71 101 72
f 71 91 100
f 72 101 102
f 72 102 103
f 72 103 74
f 74 103 104
f 74 104 105
f 74 105 75
f 75 105 106
f 75 106 95
f 75 95 94
f 75 94 93
f 75 93 76
f 77 107 108
f 77 108 109
f 77 109 78
f 78 109 110
f 78 110 79
f 79 110 80
f 80 110 111
f 80 111 81
f 81 111 112
f 81 112 82
f 82 112 83
f 83 112 84
f 84 112 113
f 84 113 85
f 85 113 87
f 86 87 88
f 87 113 89
f 89 113 90
f 90 111 114
f 90 114 100
f 90 100 91
f 90 113 112
f 90 112 111
f 95 106 96
f 96 106 115
f 96 115 116
f 96 116 97
f 97 116 99
f 99 116 117
f 100 114 101
f 101 114 118
f 101 118 119
f 101 119 120
f 101 120 105
f 101 105 102
f 102 105 104
f 102 104 103
f 105 120 121
f 105 121 122
f 105 122 115
f 105 115 106
f 107 123 108
f 108 124 110
f 108 110 109
f 108 123 117
f 108 117 116
f 108 116 124
f 110 125 118
f 110 118 111
f 110 124 125
f 111 118 114
f 115 122 116
f 116 122 124
f 118 125 122
f 118 122 119
f 119 122 121
f 119 121 120
f 122 125 124

