# https://github.com/mikedh/trimesh
v 0.46193570 0.08645570 -0.30866969
v 0.49228647 0.08645570 -0.30866969
v 0.46148962 0.08645570 0.07501091
v 0.32953942 0.31336111 -0.40754360
v 0.41832939 0.17854063 -0.40754360
v 0.45438385 0.17854063 -0.40754360
v 0.45510080 0.17854063 -0.40621108
v 0.45565844 0.17854063 -0.40514505
v 0.46069300 0.17854063 -0.39119786
v 0.46416619 0.17854063 -0.37725070
v 0.49220681 0.08707751 -0.30866969
v 0.49228647 0.08645570 0.43239617
v 0.46190384 0.08645570 0.50000000
v 0.32953942 0.35991234 -0.40754360
v 0.33237535 0.33229816 0.50000000
v 0.32953942 0.33484194 -0.30866969
v 0.45395368 0.17975599 -0.40754360
v 0.45508486 0.18017995 -0.40514505
v 0.45949808 0.18193233 -0.39119786
v 0.46255705 0.18314770 -0.37725070
v 0.46432552 0.18385431 -0.36339235
v 0.46590281 0.17854063 -0.36525789
v 0.49137834 0.09233466 -0.30866969
v 0.49163324 0.09100625 0.47992319
v 0.49227053 0.08645570 0.47992319
v 0.47210044 0.08645570 0.50000000
v 0.32953942 0.36149514 -0.40514505
v 0.33573705 0.35615319 -0.40514505
v 0.33490857 0.35527700 -0.40754360
v 0.33237535 0.34575194 0.50000000
v 0.32953942 0.37520328 -0.30866969
v 0.45384216 0.18003863 -0.40754360
v 0.43797374 0.21853454 -0.40514505
v 0.44221169 0.22065437 -0.39119786
v 0.44515914 0.22212410 -0.37725070
v 0.44686389 0.22297204 -0.36339235
v 0.46486723 0.18408042 -0.34997818
v 0.46671534 0.17854063 -0.35184374
v 0.46615773 0.17854063 -0.36339235
v 0.48150039 0.13427880 -0.30866969
v 0.48898852 0.10429044 0.06497249
v 0.49225461 0.08645570 0.48036736
v 0.48866987 0.10420565 0.48356542
v 0.47197297 0.08736016 0.50000000
v 0.47525498 0.08645570 0.49955583
v 0.32953942 0.36279529 -0.40230229
v 0.33898720 0.35960144 -0.39119786
v 0.36952916 0.32817158 -0.39119786
v 0.36597627 0.32500598 -0.40514505
v 0.33519536 0.35499436 -0.40754360
v 0.33943331 0.33936423 0.50000000
v 0.33237535 0.35086775 0.49964467
v 0.32953942 0.37520328 -0.34997818
v 0.33237535 0.35137653 0.49955583
v 0.33237535 0.35601187 0.49857864
v 0.33237535 0.35626623 0.49848980
v 0.33237535 0.36042106 0.49689075
v 0.33237535 0.36101463 0.49662426
v 0.33237535 0.36443460 0.49458104
v 0.33237535 0.36522600 0.49404803
v 0.33237535 0.36782631 0.49164948
v 0.33237535 0.36864597 0.49084994
v 0.33237535 0.37110496 0.48729652
v 0.33237535 0.37251818 0.48356542
v 0.33237535 0.37282908 0.48223290
v 0.43834016 0.21477540 -0.40754360
v 0.41732565 0.25575855 -0.40514505
v 0.43689033 0.21799752 -0.40754360
v 0.42137241 0.25821754 -0.39119786
v 0.42416054 0.25994167 -0.37725070
v 0.42578563 0.26093093 -0.36339235
v 0.44412354 0.22967066 -0.34997818
v 0.44507948 0.22774869 -0.30866969
v 0.46375197 0.18668073 -0.30866969
v 0.46488315 0.18408042 0.47992319
v 0.46583909 0.18145184 -0.30866969
v 0.46676314 0.17854063 -0.34997818
v 0.48006651 0.13959250 -0.30866969
v 0.48067194 0.13761400 0.47992319
v 0.49145800 0.08645570 0.48356542
v 0.47840956 0.14419957 0.48356542
v 0.47738990 0.14388865 0.48729652
v 0.48761836 0.10397954 0.48729652
v 0.49039054 0.08645570 0.48729652
v 0.46145773 0.13210246 0.50000000
v 0.47299263 0.10087048 0.49955583
v 0.47903091 0.08645570 0.49848980
v 0.32953942 0.36774153 -0.39119786
v 0.32953942 0.36906993 -0.38702258
v 0.34123364 0.36200386 -0.37725070
v 0.37198272 0.33034793 -0.37725070
v 0.39972061 0.29617643 -0.37725070
v 0.39707586 0.29422620 -0.39119786
v 0.39328402 0.29139978 -0.40514505
v 0.36506814 0.32421458 -0.40754360
v 0.37266779 0.30250764 0.50000000
v 0.36162680 0.32116205 0.49955583
v 0.35356513 0.35352460 -0.34997818
v 0.34252414 0.36341709 -0.36339235
v 0.32953942 0.37511849 -0.35708502
v 0.34271532 0.36355841 0.48356542
v 0.36439902 0.32362103 0.49848980
v 0.33428723 0.35462689 0.49848980
v 0.33674076 0.35722721 0.49662426
v 0.33893940 0.35957316 0.49404803
v 0.34072381 0.36146685 0.49084994
v 0.34199840 0.36282355 0.48729652
v 0.41629004 0.25510848 -0.40754360
v 0.39433554 0.28766888 -0.40754360
v 0.39229622 0.29069316 -0.40754360
v 0.40123415 0.29730701 -0.36339235
v 0.41848868 0.27359331 -0.34997818
v 0.42629546 0.26121357 0.06497249
v 0.44412354 0.22967066 0.47992319
v 0.45361912 0.21028139 0.06497249
v 0.44710284 0.22308509 0.48356542
v 0.46456450 0.18393910 0.48356542
v 0.47450617 0.15759683 0.06497249
v 0.46682689 0.17854063 -0.31142357
v 0.46356079 0.18354340 0.48729652
v 0.46184009 0.18286505 0.49084994
v 0.47560549 0.14332336 0.49084994
v 0.48580208 0.10361210 0.49084994
v 0.48851055 0.08645570 0.49084994
v 0.44629031 0.17670345 0.50000000
v 0.46306688 0.13953596 0.49955583
v 0.47664109 0.10166186 0.49848980
v 0.48009837 0.08645570 0.49795678
v 0.32953942 0.37206596 -0.37725070
v 0.32953942 0.37299865 -0.37227589
v 0.37338474 0.33161980 -0.36339235
v 0.40177587 0.26262677 0.50000000
v 0.38859996 0.28789502 0.49955583
v 0.39157927 0.29012787 0.49848980
v 0.35356513 0.35352460 0.47992319
v 0.37360778 0.33178940 0.48356542
v 0.32953942 0.37458146 -0.36339235
v 0.39446300 0.29227597 0.49662426
v 0.36707562 0.32599521 0.49662426
v 0.36948135 0.32811505 0.49404803
v 0.37142509 0.32983917 0.49084994
v 0.37281120 0.33108279 0.48729652
v 0.38820165 0.31514174 -0.34997818
v 0.39280605 0.30934757 0.06497249
v 0.40147313 0.29747659 0.48356542
v 0.41847277 0.27359331 0.47992319
v 0.42600867 0.26104397 0.48356542
v 0.42510054 0.26050696 0.48729652
v 0.44614694 0.22263286 0.48729652
v 0.44447404 0.22178493 0.49084994
v 0.45943436 0.18193233 0.49404803
v 0.47312009 0.14258850 0.49404803
v 0.48326886 0.10307509 0.49404803
v 0.48672616 0.08645570 0.49307084
v 0.42637512 0.22048478 0.50000000
v 0.44966793 0.17806014 0.49955583
v 0.43276390 0.21596250 0.49955583
v 0.46661976 0.14063826 0.49848980
v 0.48013023 0.10242501 0.49662426
v 0.47004518 0.14165577 0.49662426
v 0.48264751 0.08645570 0.49662426
v 0.41233888 0.25267777 0.49955583
v 0.41552532 0.25462800 0.49848980
v 0.38820165 0.31514174 0.47992319
v 0.41856834 0.25652170 0.49662426
v 0.42130870 0.25816101 0.49404803
v 0.39702806 0.29416966 0.49404803
v 0.39911518 0.29572421 0.49084994
v 0.40061280 0.29682651 0.48729652
v 0.42352325 0.25954598 0.49084994
v 0.44214797 0.22062610 0.49404803
v 0.43929610 0.21921289 0.49662426
v 0.45645505 0.18074524 0.49662426
v 0.48589766 0.08645570 0.49404803
v 0.45312521 0.17941682 0.49848980
v 0.43609375 0.21760182 0.49848980
f 1 2 12
f 1 12 25
f 1 25 42
f 1 42 80
f 1 80 84
f 1 84 124
f 1 124 154
f 1 154 174
f 1 174 161
f 1 161 128
f 1 128 87
f 1 87 45
f 1 45 26
f 1 26 13
f 1 13 3
f 1 3 4
f 1 4 5
f 1 5 6
f 1 6 2
f 2 6 7
f 2 7 8
f 2 8 9
f 2 9 10
f 2 10 11
f 2 11 12
f 3 13 4
f 4 14 29
f 4 29 50
f 4 50 95
f 4 95 110
f 4 110 109
f 4 109 108
f 4 108 68
f 4 68 66
f 4 66 32
f 4 32 17
f 4 17 6
f 4 6 5
f 4 13 15
f 4 15 16
f 4 16 31
f 4 31 53
f 4 53 100
f 4 100 137
f 4 137 130
f 4 130 129
f 4 129 89
f 4 89 88
f 4 88 46
f 4 46 27
f 4 27 14
f 6 17 7
f 7 18 8
f 7 17 18
f 8 18 9
f 9 19 20
f 9 20 10
f 9 18 19
f 10 20 21
f 10 21 22
f 10 22 23
f 10 23 11
f 11 23 24
f 11 24 12
f 12 24 25
f 13 26 44
f 13 44 85
f 13 85 125
f 13 125 155
f 13 155 132
f 13 132 96
f 13 96 51
f 13 51 30
f 13 30 15
f 14 27 28
f 14 28 29
f 15 30 31
f 15 31 16
f 17 32 18
f 18 33 19
f 18 32 33
f 19 34 35
f 19 35 20
f 19 33 34
f 20 35 21
f 21 36 37
f 21 37 38
f 21 38 39
f 21 39 22
f 21 35 36
f 22 39 23
f 23 40 41
f 23 41 24
f 23 39 40
f 24 42 25
f 24 41 43
f 24 43 42
f 26 45 44
f 27 46 28
f 28 46 47
f 28 47 48
f 28 48 49
f 28 49 50
f 28 50 29
f 30 51 52
f 30 52 31
f 31 52 54
f 31 54 55
f 31 55 56
f 31 56 57
f 31 57 58
f 31 58 59
f 31 59 60
f 31 60 61
f 31 61 62
f 31 62 63
f 31 63 64
f 31 64 65
f 31 65 53
f 32 66 33
f 33 67 34
f 33 66 68
f 33 68 67
f 34 69 35
f 34 67 69
f 35 70 36
f 35 69 70
f 36 71 72
f 36 72 37
f 36 70 71
f 37 72 73
f 37 73 74
f 37 74 75
f 37 75 76
f 37 76 77
f 37 77 38
f 38 77 78
f 38 78 39
f 39 78 40
f 40 78 79
f 40 79 41
f 41 79 43
f 42 43 80
f 43 79 81
f 43 81 82
f 43 82 83
f 43 83 84
f 43 84 80
f 44 45 86
f 44 86 85
f 45 87 86
f 46 88 47
f 47 88 89
f 47 89 90
f 47 90 48
f 48 90 91
f 48 91 92
f 48 92 93
f 48 93 94
f 48 94 49
f 49 94 95
f 49 95 50
f 51 96 97
f 51 97 52
f 52 97 54
f 53 98 99
f 53 99 100
f 53 65 101
f 53 101 98
f 54 97 102
f 54 102 103
f 54 103 55
f 55 103 56
f 56 103 57
f 57 104 58
f 57 103 104
f 58 104 59
f 59 105 60
f 59 104 105
f 60 105 61
f 61 106 62
f 61 105 106
f 62 106 63
f 63 106 107
f 63 107 64
f 64 101 65
f 64 107 101
f 67 94 69
f 67 68 108
f 67 108 109
f 67 109 110
f 67 110 94
f 69 93 92
f 69 92 70
f 69 94 93
f 70 92 71
f 71 111 112
f 71 112 72
f 71 92 111
f 72 112 113
f 72 113 114
f 72 114 73
f 73 115 74
f 73 114 115
f 74 115 75
f 75 114 116
f 75 116 117
f 75 117 81
f 75 81 79
f 75 79 118
f 75 118 76
f 75 115 114
f 76 118 119
f 76 119 77
f 77 119 78
f 78 119 118
f 78 118 79
f 81 117 82
f 82 120 121
f 82 121 122
f 82 122 123
f 82 123 83
f 82 117 120
f 83 123 84
f 84 123 124
f 85 86 126
f 85 126 125
f 86 87 127
f 86 127 126
f 87 128 127
f 89 129 90
f 90 129 130
f 90 130 99
f 90 99 91
f 91 99 131
f 91 131 92
f 92 131 111
f 94 110 95
f 96 132 133
f 96 133 97
f 97 133 134
f 97 134 102
f 98 131 99
f 98 101 135
f 98 135 136
f 98 136 131
f 99 137 100
f 99 130 137
f 101 136 135
f 101 107 136
f 102 134 138
f 102 138 139
f 102 139 103
f 103 139 104
f 104 139 105
f 105 139 140
f 105 140 106
f 106 141 142
f 106 142 107
f 106 140 141
f 107 142 136
f 111 131 143
f 111 143 144
f 111 144 112
f 112 144 145
f 112 145 146
f 112 146 113
f 113 146 147
f 113 147 114
f 114 147 116
f 116 147 148
f 116 148 149
f 116 149 117
f 117 149 120
f 120 149 121
f 121 150 151
f 121 151 122
f 121 149 150
f 122 151 152
f 122 152 153
f 122 153 123
f 123 153 154
f 123 154 124
f 125 126 156
f 125 156 157
f 125 157 155
f 126 127 158
f 126 158 156
f 127 128 159
f 127 159 160
f 127 160 158
f 128 161 159
f 131 136 143
f 132 155 162
f 132 162 133
f 133 162 163
f 133 163 134
f 134 163 138
f 136 145 164
f 136 164 143
f 136 142 145
f 138 165 166
f 138 166 167
f 138 167 140
f 138 140 139
f 138 163 165
f 140 167 168
f 140 168 141
f 141 168 142
f 142 169 145
f 142 168 169
f 143 164 144
f 144 164 145
f 145 147 146
f 145 169 148
f 145 148 147
f 148 169 170
f 148 170 149
f 149 170 150
f 150 170 171
f 150 171 151
f 151 171 172
f 151 172 173
f 151 173 152
f 152 173 160
f 152 160 159
f 152 159 153
f 153 159 174
f 153 174 154
f 155 157 162
f 156 158 175
f 156 175 157
f 157 175 176
f 157 176 163
f 157 163 162
f 158 160 173
f 158 173 175
f 159 161 174
f 163 176 172
f 163 172 165
f 165 172 166
f 166 172 171
f 166 171 170
f 166 170 167
f 167 170 168
f 168 170 169
f 172 176 173
f 173 176 175

