# https://github.com/mikedh/trimesh
v 0.00001505 0.50000000 -0.30869806
v 0.04046495 0.49816626 -0.30869806
v 0.00001505 0.50000000 -0.35003984
v -0.04488700 0.49796620 -0.35003984
v -0.04043484 0.49816626 -0.30869806
v 0.04556399 0.49788284 -0.30869806
v 0.04487905 0.49794954 -0.35003984
v 0.00001505 0.49748278 -0.37729123
v -0.05135593 0.49671593 -0.36350065
v -0.04553389 0.49788284 -0.30869806
v -0.09096867 0.49163145 -0.35000986
v -0.08704925 0.49219826 -0.30871305
v 0.08700325 0.49219826 -0.30869806
v 0.09096072 0.49163145 -0.35003984
v 0.07764232 0.49329850 -0.36350065
v 0.07733790 0.49141476 -0.37729123
v 0.00001505 0.48944765 -0.40518719
v -0.05082320 0.49156478 -0.39124671
v -0.05116567 0.49483219 -0.37729123
v 0.07676711 0.48816401 -0.39124671
v -0.08678289 0.49051455 -0.36804256
v -0.08678289 0.49113137 -0.36348566
v -0.08678289 0.49223161 -0.30869806
v -0.10413487 0.48838073 -0.36348566
v -0.13758308 0.48067904 -0.35000986
v -0.09230051 0.49138141 -0.30871305
v 0.09225451 0.49134806 -0.30869806
v 0.13422650 0.48149586 -0.30869806
v 0.13753708 0.48067904 -0.35003984
v 0.11740726 0.48534673 -0.36350065
v 0.11695063 0.48351300 -0.37729123
v 0.11618958 0.48032895 -0.39124671
v 0.07608216 0.48349631 -0.40518719
v 0.00001505 0.47551119 -0.43204886
v -0.04888251 0.47301066 -0.43204886
v -0.05032852 0.48684707 -0.40518719
v -0.08678289 0.48112911 -0.40512723
v -0.10306939 0.48332962 -0.39124671
v -0.08678289 0.48921424 -0.37729123
v -0.10371628 0.48653033 -0.37729123
v -0.13423446 0.48151255 -0.30871305
v -0.13822998 0.48049563 -0.30871305
v -0.18004976 0.46624246 -0.30871305
v -0.18400723 0.46485883 -0.30871305
v -0.18792665 0.46312511 -0.30871305
v -0.21345994 0.45152253 -0.30871305
v -0.08678289 0.46187484 -0.30869806
v -0.15733238 0.47392753 -0.36348566
v -0.18400723 0.46485883 -0.35000986
v 0.13951582 0.48004556 -0.30869806
v 0.17528525 0.46790951 -0.30869806
v 0.17528525 0.46784282 -0.35003984
v 0.15732442 0.47391084 -0.36350065
v 0.15671559 0.47211045 -0.37729123
v 0.15565011 0.46899307 -0.39124671
v 0.15416606 0.46450874 -0.40518719
v 0.11504801 0.47571126 -0.40518719
v 0.07391316 0.46972656 -0.43204886
v 0.11181353 0.46217489 -0.43204886
v 0.00001505 0.47532782 -0.43233368
v -0.04888251 0.47279394 -0.43233368
v -0.08678289 0.46702597 -0.43206385
v -0.08678289 0.47706154 -0.41290694
v -0.08678289 0.48109579 -0.40520218
v -0.10208002 0.47871190 -0.40512723
v -0.15569611 0.46900976 -0.39124671
v -0.15672353 0.47212711 -0.37729123
v -0.21345994 0.45150584 -0.36111727
v -0.21345994 0.41861519 -0.30871305
v 0.17528525 0.43600240 -0.30869806
v -0.20919804 0.45135581 -0.37729123
v -0.20995909 0.45305619 -0.36348566
v 0.17528525 0.46782616 -0.35446182
v 0.17528525 0.46710932 -0.36350065
v 0.17528525 0.46617579 -0.36988631
v 0.17528525 0.46509221 -0.37729123
v 0.17528525 0.46157476 -0.39124671
v 0.14982806 0.45128912 -0.43204886
v 0.17528525 0.45650697 -0.40518719
v 0.17528525 0.44713822 -0.42215562
v 0.07425564 0.46945986 -0.43233368
v 0.07387511 0.46952653 -0.43233368
v 0.11173743 0.46199152 -0.43233368
v 0.07086896 0.45050561 -0.45604748
v 0.00001505 0.45605686 -0.45604748
v -0.04690378 0.45362300 -0.45604748
v -0.08678289 0.44733825 -0.45604748
v -0.09914998 0.46507555 -0.43206385
v -0.10208002 0.47867858 -0.40520218
v -0.15421206 0.46452543 -0.40512723
v -0.20581137 0.44410419 -0.40512723
v -0.20779009 0.44837183 -0.39124671
v -0.21345994 0.45120579 -0.36348566
v -0.21345994 0.32969534 -0.46183354
v 0.17528525 0.35161692 -0.46183354
v -0.21345994 0.44537115 -0.39124671
v -0.21345994 0.44907197 -0.37729123
v 0.14975196 0.45110577 -0.43233368
v 0.17528525 0.44163698 -0.43204886
v 0.10720918 0.44327068 -0.45604748
v 0.06976543 0.44347072 -0.46183354
v 0.00001505 0.44893861 -0.46183354
v -0.03297654 0.44723824 -0.46183354
v -0.04618078 0.44655475 -0.46183354
v -0.09363236 0.43905306 -0.46183354
v -0.09507835 0.44602129 -0.45604748
v -0.08004758 0.44120356 -0.46183354
v -0.14370954 0.43280166 -0.45604748
v -0.14983602 0.45128912 -0.43206385
v -0.15421206 0.46449208 -0.40520218
v -0.20581137 0.44407085 -0.40520218
v -0.20603968 0.44398752 -0.40512723
v -0.21345994 0.39412639 -0.46183354
v 0.17528525 0.41326398 -0.46183354
v -0.21345994 0.44000328 -0.40512723
v 0.14366354 0.43280166 -0.45604748
v 0.17528525 0.44142026 -0.43231869
v 0.17528525 0.42401639 -0.45238999
v 0.14141844 0.42606685 -0.46183354
v 0.10553486 0.43633580 -0.46183354
v -0.14146444 0.42605016 -0.46183354
v -0.18876381 0.40734601 -0.46183354
v -0.19176996 0.41376409 -0.45604748
v -0.19995126 0.43143469 -0.43206385
v -0.21345994 0.42421642 -0.43206385
v -0.21345994 0.43996996 -0.40520218
v -0.21345994 0.40219486 -0.45604748
v 0.17528525 0.42083234 -0.45604748
f 1 2 3
f 1 3 4
f 1 4 5
f 1 5 10
f 1 10 23
f 1 23 47
f 1 47 70
f 1 70 51
f 1 51 50
f 1 50 28
f 1 28 27
f 1 27 13
f 1 13 6
f 1 6 2
f 2 6 7
f 2 7 3
f 3 8 9
f 3 9 4
f 3 7 8
f 4 10 5
f 4 9 11
f 4 11 12
f 4 12 10
f 6 13 14
f 6 14 7
f 7 14 15
f 7 15 16
f 7 16 8
f 8 17 18
f 8 18 19
f 8 19 9
f 8 16 20
f 8 20 17
f 9 19 21
f 9 21 22
f 9 22 11
f 10 12 23
f 11 22 24
f 11 24 25
f 11 25 26
f 11 26 12
f 12 26 23
f 13 27 14
f 14 27 28
f 14 28 29
f 14 29 30
f 14 30 15
f 15 30 31
f 15 31 16
f 16 31 32
f 16 32 20
f 17 20 33
f 17 33 34
f 17 34 35
f 17 35 36
f 17 36 18
f 18 36 37
f 18 37 38
f 18 38 19
f 19 38 39
f 19 39 21
f 20 32 33
f 21 39 40
f 21 40 24
f 21 24 22
f 23 26 41
f 23 41 42
f 23 42 43
f 23 43 44
f 23 44 45
f 23 45 46
f 23 46 69
f 23 69 47
f 24 40 48
f 24 48 25
f 25 42 41
f 25 41 26
f 25 48 49
f 25 49 42
f 28 50 29
f 29 50 51
f 29 51 52
f 29 52 53
f 29 53 30
f 30 53 31
f 31 53 54
f 31 54 32
f 32 54 55
f 32 55 56
f 32 56 57
f 32 57 33
f 33 58 34
f 33 57 59
f 33 59 58
f 34 60 35
f 34 58 60
f 35 60 61
f 35 61 62
f 35 62 63
f 35 63 64
f 35 64 36
f 36 64 37
f 37 64 89
f 37 89 65
f 37 65 38
f 38 65 66
f 38 66 67
f 38 67 40
f 38 40 39
f 40 67 48
f 42 49 43
f 43 49 44
f 44 49 45
f 45 49 68
f 45 68 46
f 46 68 93
f 46 93 97
f 46 97 96
f 46 96 115
f 46 115 126
f 46 126 125
f 46 125 127
f 46 127 113
f 46 113 94
f 46 94 69
f 47 69 70
f 48 67 71
f 48 71 72
f 48 72 49
f 49 72 68
f 51 70 95
f 51 95 114
f 51 114 128
f 51 128 118
f 51 118 117
f 51 117 99
f 51 99 80
f 51 80 79
f 51 79 77
f 51 77 76
f 51 76 75
f 51 75 74
f 51 74 73
f 51 73 52
f 52 73 53
f 53 73 74
f 53 74 75
f 53 75 76
f 53 76 54
f 54 76 77
f 54 77 55
f 55 77 56
f 56 78 57
f 56 77 79
f 56 79 80
f 56 80 78
f 57 78 59
f 58 59 81
f 58 81 82
f 58 82 60
f 59 83 81
f 59 78 98
f 59 98 83
f 60 82 84
f 60 84 85
f 60 85 61
f 61 85 86
f 61 86 87
f 61 87 88
f 61 88 62
f 62 88 63
f 63 88 89
f 63 89 64
f 65 89 110
f 65 110 90
f 65 90 66
f 66 90 91
f 66 91 92
f 66 92 71
f 66 71 67
f 68 72 93
f 69 94 70
f 70 94 95
f 71 92 96
f 71 96 97
f 71 97 93
f 71 93 72
f 78 80 99
f 78 99 98
f 81 84 82
f 81 83 100
f 81 100 84
f 83 98 100
f 84 101 102
f 84 102 85
f 84 100 101
f 85 103 104
f 85 104 86
f 85 102 103
f 86 104 87
f 87 105 106
f 87 106 88
f 87 104 107
f 87 107 105
f 88 106 108
f 88 108 109
f 88 109 89
f 89 109 110
f 90 110 111
f 90 111 91
f 91 111 112
f 91 112 92
f 92 112 96
f 94 113 122
f 94 122 121
f 94 121 105
f 94 105 107
f 94 107 104
f 94 104 103
f 94 103 102
f 94 102 101
f 94 101 120
f 94 120 119
f 94 119 114
f 94 114 95
f 96 112 115
f 98 116 100
f 98 99 117
f 98 117 118
f 98 118 116
f 100 116 119
f 100 119 120
f 100 120 101
f 105 121 108
f 105 108 106
f 108 121 122
f 108 122 123
f 108 123 109
f 109 123 124
f 109 124 111
f 109 111 110
f 111 124 125
f 111 125 126
f 111 126 112
f 112 126 115
f 113 127 122
f 114 119 116
f 114 116 128
f 116 118 128
f 122 127 123
f 123 127 124
f 124 127 125

