# https://github.com/mikedh/trimesh
v 0.14401047 -0.44686678 0.49991155
v -0.07119206 -0.46412244 0.49991155
v 0.14401047 -0.45741442 0.49991155
v 0.14401047 -0.43385220 -0.40384763
v -0.07119206 -0.47420391 0.49991155
v -0.07119206 -0.45155463 -0.40384763
v 0.13206647 -0.46147421 0.49991155
v 0.14401047 -0.46002382 0.49973458
v 0.14401047 -0.46775490 -0.40384763
v -0.04311208 -0.47805649 0.49991155
v -0.07119206 -0.47806945 0.49964607
v -0.07119206 -0.48433068 -0.40384763
v 0.08732390 -0.47198948 0.49991155
v 0.10084779 -0.47300604 0.49964607
v 0.14401047 -0.46128643 0.49964607
v 0.14401047 -0.47123840 -0.39402610
v 0.10215383 -0.47913134 -0.40384763
v 0.00000847 -0.47999898 0.49991155
v 0.00000847 -0.48363787 0.49964607
v -0.07119206 -0.48179254 0.49858433
v -0.00700626 -0.48934877 -0.40384763
v -0.07119206 -0.48828688 -0.39225644
v 0.04312902 -0.47805649 0.49991155
v 0.04976457 -0.48106733 0.49964607
v 0.10162720 -0.47664496 0.49858433
v 0.14401047 -0.46513253 0.49858433
v 0.14401047 -0.47220963 -0.39119470
v 0.10305963 -0.48333356 -0.39119470
v 0.05517834 -0.48654512 -0.40384763
v 0.05083890 -0.49158910 -0.39119470
v 0.00000847 -0.48735449 0.49858433
v 0.05014374 -0.48476452 0.49858433
v -0.07119206 -0.48536667 0.49672616
v 0.00000847 -0.49093512 0.49672616
v 0.00000847 -0.48983437 -0.40384763
v -0.07119206 -0.48888257 -0.39022136
v 0.05050185 -0.48833868 0.49672616
v 0.10236448 -0.48014790 0.49672616
v 0.14401047 -0.46882972 0.49672616
v 0.14401047 -0.47480607 -0.38057679
v 0.10373373 -0.48655808 -0.37721443
v 0.05039653 -0.48729622 -0.40384763
v 0.00466388 -0.48965955 -0.40384763
v 0.05117594 -0.49485892 -0.37721443
v 0.00000847 -0.49749422 -0.37721443
v -0.07119206 -0.48856530 0.49407172
v 0.00000847 -0.49413374 0.49407172
v -0.07119206 -0.49192578 -0.37721443
v 0.05083890 -0.49151787 0.49407172
v 0.10303857 -0.48327529 0.49407172
v 0.14401047 -0.46951607 0.49619526
v 0.14401047 -0.47561544 -0.37721443
v 0.10413396 -0.48840991 -0.36341119
v 0.05138659 -0.49673665 -0.36341119
v 0.00000847 -0.49999353 -0.34996188
v -0.04492370 -0.49797985 -0.34996188
v -0.07119206 -0.49268982 -0.37208247
v -0.07119206 -0.49096748 0.49115181
v 0.00000847 -0.49673665 0.49088633
v 0.05109168 -0.49409488 0.49088633
v 0.10358627 -0.48581994 0.49088633
v 0.14401047 -0.47274706 0.49336386
v 0.14401047 -0.47214490 0.49407172
v 0.14401047 -0.47708526 -0.36686200
v 0.14401047 -0.47757086 -0.36341119
v 0.14401047 -0.47850326 -0.35429752
v 0.13756451 -0.48069826 -0.34996188
v 0.09096819 -0.49164736 -0.34996188
v 0.04491957 -0.49797985 -0.34996188
v 0.00000847 -0.49999353 0.47991455
v -0.05143286 -0.49734530 0.06493208
v -0.07119206 -0.49450281 -0.14220521
v -0.07119206 -0.49436682 -0.34996188
v -0.07119206 -0.49423733 -0.36075675
v -0.04492370 -0.49797985 0.47991455
v -0.07119206 -0.49116823 0.49088633
v 0.00000847 -0.49859497 0.48734707
v 0.05130233 -0.49594671 0.48734707
v 0.14401047 -0.47482550 0.49088633
v 0.10396544 -0.48762643 0.48734707
v 0.14401047 -0.47675502 0.48734707
v 0.14401047 -0.47850972 -0.34996188
v 0.14401047 -0.47880110 0.05068641
v 0.13756451 -0.48069826 0.47991455
v 0.10426036 -0.48900560 0.06493208
v 0.09096819 -0.49164736 0.47991455
v 0.05144979 -0.49734530 0.06493208
v 0.04491957 -0.49797985 0.47991455
v 0.00000847 -0.49966979 0.48363078
v -0.07119206 -0.49445748 0.48283446
v -0.07119206 -0.49450281 0.27224633
v -0.07119206 -0.49302006 0.48734707
v 0.05140766 -0.49700859 0.48363078
v 0.10419716 -0.48867536 0.48363078
v 0.14401047 -0.47859392 0.48115325
v 0.14401047 -0.47880110 0.07926623
f 1 2 5
f 1 5 10
f 1 10 18
f 1 18 23
f 1 23 13
f 1 13 7
f 1 7 3
f 1 3 8
f 1 8 15
f 1 15 26
f 1 26 39
f 1 39 51
f 1 51 63
f 1 63 62
f 1 62 79
f 1 79 81
f 1 81 95
f 1 95 96
f 1 96 83
f 1 83 82
f 1 82 66
f 1 66 65
f 1 65 64
f 1 64 52
f 1 52 40
f 1 40 27
f 1 27 16
f 1 16 9
f 1 9 4
f 1 4 2
f 2 4 6
f 2 6 12
f 2 12 22
f 2 22 36
f 2 36 48
f 2 48 57
f 2 57 74
f 2 74 73
f 2 73 72
f 2 72 91
f 2 91 90
f 2 90 92
f 2 92 76
f 2 76 58
f 2 58 46
f 2 46 33
f 2 33 20
f 2 20 11
f 2 11 5
f 3 7 8
f 4 9 17
f 4 17 29
f 4 29 42
f 4 42 43
f 4 43 35
f 4 35 21
f 4 21 12
f 4 12 6
f 5 11 10
f 7 13 14
f 7 14 15
f 7 15 8
f 9 16 17
f 10 11 19
f 10 19 18
f 11 20 19
f 12 21 22
f 13 23 24
f 13 24 14
f 14 24 25
f 14 25 15
f 15 25 26
f 16 27 28
f 16 28 17
f 17 28 30
f 17 30 29
f 18 19 23
f 19 24 23
f 19 20 31
f 19 31 32
f 19 32 24
f 20 33 34
f 20 34 31
f 21 35 36
f 21 36 22
f 24 32 25
f 25 32 37
f 25 37 38
f 25 38 26
f 26 38 39
f 27 40 28
f 28 40 41
f 28 41 30
f 29 30 42
f 30 35 43
f 30 43 42
f 30 41 44
f 30 44 45
f 30 45 35
f 31 34 37
f 31 37 32
f 33 46 47
f 33 47 34
f 34 47 37
f 35 45 36
f 36 45 48
f 37 47 49
f 37 49 50
f 37 50 38
f 38 50 51
f 38 51 39
f 40 52 41
f 41 52 53
f 41 53 44
f 44 53 54
f 44 54 45
f 45 54 55
f 45 55 56
f 45 56 57
f 45 57 48
f 46 58 47
f 47 58 59
f 47 59 49
f 49 59 60
f 49 60 61
f 49 61 50
f 50 61 62
f 50 62 63
f 50 63 51
f 52 64 53
f 53 64 65
f 53 65 66
f 53 66 67
f 53 67 68
f 53 68 54
f 54 68 69
f 54 69 55
f 55 69 88
f 55 88 70
f 55 70 75
f 55 75 56
f 56 71 72
f 56 72 73
f 56 73 74
f 56 74 57
f 56 75 71
f 58 76 59
f 59 76 77
f 59 77 78
f 59 78 60
f 60 78 61
f 61 79 62
f 61 78 80
f 61 80 81
f 61 81 79
f 66 82 67
f 67 82 83
f 67 83 96
f 67 96 84
f 67 84 85
f 67 85 68
f 68 85 86
f 68 86 87
f 68 87 69
f 69 87 88
f 70 88 89
f 70 89 75
f 71 75 90
f 71 90 91
f 71 91 72
f 75 89 77
f 75 77 92
f 75 92 90
f 76 92 77
f 77 89 78
f 78 89 93
f 78 93 94
f 78 94 80
f 80 94 81
f 81 94 95
f 84 96 95
f 84 95 94
f 84 94 85
f 85 94 86
f 86 88 87
f 86 94 93
f 86 93 88
f 88 93 89

