# https://github.com/mikedh/trimesh
v -0.48989749 0.00007324 -0.40384763
v -0.45713532 0.00007324 -0.40384763
v -0.49420652 0.00007324 -0.39119470
v -0.48729840 0.05042625 -0.40384763
v -0.42235920 0.17302413 -0.40384763
v -0.46999395 0.00007324 0.49991155
v -0.49158463 0.05086645 -0.39119470
v -0.49748957 0.00007324 -0.37730294
v -0.47912878 0.10215067 -0.40384763
v -0.45755330 0.17302413 -0.40384763
v -0.43699616 0.17302413 0.49991155
v -0.47997993 0.00007324 0.49991155
v -0.48333898 0.10304802 -0.39119470
v -0.49485248 0.05120508 -0.37721443
v -0.48655364 0.10374219 -0.37721443
v -0.49938190 0.00007324 -0.36341119
v -0.49673721 0.05139132 -0.36341119
v -0.46902880 0.15572059 -0.39119470
v -0.46494016 0.15436611 -0.40384763
v -0.46042597 0.17302413 -0.39606118
v -0.44822088 0.17302413 0.49991155
v -0.47805721 0.04314589 0.49991155
v -0.48363537 0.00007324 0.49964607
v -0.48840797 0.10413161 -0.36341119
v -0.47394580 0.15734597 -0.36341119
v -0.47214466 0.15675338 -0.37721443
v -0.49999747 0.00007324 -0.34996188
v -0.49797595 0.04494058 -0.34996188
v -0.49164543 0.09097616 -0.34996188
v -0.46217388 0.17302413 -0.39119470
v -0.46458298 0.17302413 -0.38172704
v -0.45083517 0.17302413 0.49964607
v -0.45900482 0.15238516 0.49964607
v -0.46146712 0.13206787 0.49991155
v -0.48106667 0.04978286 0.49964607
v -0.47198507 0.08733598 0.49991155
v -0.48476774 0.05015535 0.49858433
v -0.48735160 0.00007324 0.49858433
v -0.48069429 0.13757047 -0.34996188
v -0.46864122 0.17302413 -0.34996188
v -0.46862602 0.17302413 -0.35553628
v -0.46773684 0.17302413 -0.36341119
v -0.46570015 0.17302413 -0.37721443
v -0.49999747 0.00007324 0.47991455
v -0.49797595 0.04494058 0.47991455
v -0.49391773 0.07775299 0.06493208
v -0.49164543 0.09097616 0.47991455
v -0.48597607 0.11757488 0.06493208
v -0.45482501 0.17302413 0.49858433
v -0.46252346 0.15355340 0.49858433
v -0.47664368 0.10162581 0.49858433
v -0.47300342 0.10084698 0.49964607
v -0.48833957 0.05052783 0.49672616
v -0.49093106 0.00007324 0.49672616
v -0.48069429 0.13757047 0.47991455
v -0.47452337 0.15754914 0.06493208
v -0.46889961 0.17302413 -0.17724425
v -0.49966308 0.00007324 0.48363078
v -0.49700320 0.05142518 0.48363078
v -0.48867396 0.10419933 0.48363078
v -0.45867804 0.17302413 0.49672616
v -0.46592814 0.15468779 0.49672616
v -0.48014712 0.10237078 0.49672616
v -0.48327819 0.10304802 0.49407172
v -0.49151623 0.05086645 0.49407172
v -0.49413052 0.00007324 0.49407172
v -0.47420418 0.15744755 0.48363078
v -0.46889961 0.17302413 0.30728537
v -0.49859154 0.00007324 0.48734707
v -0.49594685 0.05132359 0.48734707
v -0.48762521 0.10396229 0.48734707
v -0.47319341 0.15710893 0.48734707
v -0.45986360 0.17302413 0.49584132
v -0.46896800 0.15570365 0.49407172
v -0.48581648 0.10358981 0.49088633
v -0.49409252 0.05112042 0.49088633
v -0.49672961 0.00007324 0.49088633
v -0.46874762 0.17302413 0.48150718
v -0.47142270 0.15651634 0.49088633
v -0.46551016 0.17302413 0.48982453
v -0.46688569 0.17302413 0.48734707
v -0.46210548 0.17302413 0.49407172
v -0.46488696 0.17302413 0.49088633
f 1 2 6
f 1 6 12
f 1 12 23
f 1 23 38
f 1 38 54
f 1 54 66
f 1 66 77
f 1 77 69
f 1 69 58
f 1 58 44
f 1 44 27
f 1 27 16
f 1 16 8
f 1 8 3
f 1 3 4
f 1 4 9
f 1 9 19
f 1 19 10
f 1 10 5
f 1 5 2
f 2 5 6
f 3 7 4
f 3 8 7
f 4 7 9
f 5 10 20
f 5 20 30
f 5 30 31
f 5 31 43
f 5 43 42
f 5 42 41
f 5 41 40
f 5 40 57
f 5 57 68
f 5 68 78
f 5 78 81
f 5 81 80
f 5 80 83
f 5 83 82
f 5 82 73
f 5 73 61
f 5 61 49
f 5 49 32
f 5 32 21
f 5 21 11
f 5 11 6
f 6 11 21
f 6 21 34
f 6 34 36
f 6 36 22
f 6 22 12
f 7 13 9
f 7 8 14
f 7 14 15
f 7 15 13
f 8 16 17
f 8 17 14
f 9 13 18
f 9 18 19
f 10 19 20
f 12 22 23
f 13 15 18
f 14 17 24
f 14 24 15
f 15 24 25
f 15 25 26
f 15 26 18
f 16 27 28
f 16 28 17
f 17 28 29
f 17 29 24
f 18 30 20
f 18 20 19
f 18 26 31
f 18 31 30
f 21 32 33
f 21 33 34
f 22 35 23
f 22 36 35
f 23 35 37
f 23 37 38
f 24 29 39
f 24 39 25
f 25 39 40
f 25 40 41
f 25 41 42
f 25 42 26
f 26 43 31
f 26 42 43
f 27 44 45
f 27 45 28
f 28 45 46
f 28 46 29
f 29 46 47
f 29 47 48
f 29 48 39
f 32 49 33
f 33 49 50
f 33 50 51
f 33 51 52
f 33 52 34
f 34 52 36
f 35 36 52
f 35 52 51
f 35 51 37
f 37 51 53
f 37 53 38
f 38 53 54
f 39 48 55
f 39 55 56
f 39 56 40
f 40 56 57
f 44 58 45
f 45 58 59
f 45 59 47
f 45 47 46
f 47 59 60
f 47 60 48
f 48 60 55
f 49 61 62
f 49 62 50
f 50 62 51
f 51 62 63
f 51 63 53
f 53 63 64
f 53 64 65
f 53 65 66
f 53 66 54
f 55 60 67
f 55 67 56
f 56 67 68
f 56 68 57
f 58 69 70
f 58 70 59
f 59 70 60
f 60 70 71
f 60 71 72
f 60 72 67
f 61 73 62
f 62 73 74
f 62 74 63
f 63 74 64
f 64 74 75
f 64 75 65
f 65 75 76
f 65 76 77
f 65 77 66
f 67 72 78
f 67 78 68
f 69 77 70
f 70 77 76
f 70 76 75
f 70 75 71
f 71 75 72
f 72 75 79
f 72 79 80
f 72 80 81
f 72 81 78
f 73 82 74
f 74 82 83
f 74 83 79
f 74 79 75
f 79 83 80

