# https://github.com/mikedh/trimesh
v 0.45178849 -0.21347934 0.27282172
v 0.45178849 -0.21347934 -0.14287567
v 0.45172822 -0.21347934 0.48292625
v 0.44410643 -0.22968504 0.47982997
v 0.44410643 -0.22968504 -0.34988394
v 0.45148724 -0.21347934 -0.36094207
v 0.45031232 -0.21347934 0.48726103
v 0.42509711 -0.26053822 0.48726103
v 0.42600086 -0.26110959 0.48354551
v 0.44076246 -0.23607384 0.06492878
v 0.41846943 -0.27362743 -0.34988394
v 0.42575985 -0.26095375 -0.36333063
v 0.45121610 -0.21347934 -0.36333063
v 0.44841439 -0.21347934 0.49053425
v 0.39165753 -0.30855802 0.48726103
v 0.42350042 -0.25957730 0.49079964
v 0.39021149 -0.30738932 0.49079964
v 0.39250106 -0.30918130 0.48354551
v 0.41846943 -0.27362743 0.47982997
v 0.39277220 -0.30941504 0.06492878
v 0.38816297 -0.31515455 -0.34988394
v 0.39229017 -0.30902547 -0.36333063
v 0.42416319 -0.25999284 -0.37713119
v 0.45106548 -0.21347934 -0.36430374
v 0.44820350 -0.21347934 0.49079964
v 0.35255435 -0.35252637 0.48726103
v 0.35330749 -0.35330549 0.48354551
v 0.35125893 -0.35122785 0.49079964
v 0.44528133 -0.21347934 0.49398440
v 0.42130125 -0.25820085 0.49398440
v 0.38816297 -0.30580512 0.49398440
v 0.38816297 -0.31515455 0.47982997
v 0.36385149 -0.34294319 0.06492878
v 0.35354850 -0.35351327 -0.34988394
v 0.35312673 -0.35309774 -0.36333063
v 0.39078391 -0.30788279 -0.37713119
v 0.38822320 -0.30583107 -0.39110866
v 0.42136151 -0.25825280 -0.39110866
v 0.44907719 -0.21347934 -0.37713119
v 0.30851054 -0.39166418 0.48726103
v 0.30917329 -0.39249524 0.48354551
v 0.31513819 -0.38815814 0.47982997
v 0.35354850 -0.35351327 0.47982997
v 0.34939113 -0.34938392 0.49398440
v 0.30576909 -0.38815814 0.49398440
v 0.30736575 -0.39018387 0.49079964
v 0.44166625 -0.21347934 0.49663833
v 0.41855982 -0.25656471 0.49663833
v 0.38566253 -0.30380538 0.49663833
v 0.34716183 -0.34712446 0.49663833
v 0.33203873 -0.37382233 0.06492878
v 0.31513819 -0.38815814 -0.34988394
v 0.30899253 -0.39228749 -0.36333063
v 0.30784777 -0.39078119 -0.37713119
v 0.35177109 -0.35174724 -0.37713119
v 0.34945139 -0.34943587 -0.39110866
v 0.34640869 -0.34639728 -0.40384763
v 0.38481900 -0.30315611 -0.40384763
v 0.41765603 -0.25601932 -0.40384763
v 0.42015648 -0.25142252 -0.40384763
v 0.44470894 -0.21347934 -0.39278951
v 0.44534159 -0.21347934 -0.39110866
v 0.28293380 -0.40950605 0.48726103
v 0.28293380 -0.41080457 0.48354551
v 0.28293380 -0.40724659 0.49079964
v 0.28293380 -0.41168758 0.48080310
v 0.28293380 -0.41171354 0.47982997
v 0.29772553 -0.40168887 0.06492878
v 0.28293380 -0.40410414 0.49398440
v 0.30378079 -0.38563898 0.49663833
v 0.28293380 -0.40020853 0.49663833
v 0.43759927 -0.21347934 0.49849612
v 0.41551712 -0.25466883 0.49849612
v 0.38283071 -0.30159786 0.49849612
v 0.34463128 -0.34463128 0.49849612
v 0.28293380 -0.41171354 -0.34988394
v 0.28293380 -0.41160968 -0.35342255
v 0.28293380 -0.41049293 -0.36333063
v 0.28293380 -0.40927231 -0.37067324
v 0.28293380 -0.40818155 -0.37713119
v 0.28293380 -0.40418205 -0.39110866
v 0.30579922 -0.38821009 -0.39110866
v 0.30712476 -0.38130188 -0.40384763
v 0.44046122 -0.21347934 -0.40384763
v 0.26052025 -0.42508847 0.48726103
v 0.26109263 -0.42602339 0.48354551
v 0.25955623 -0.42350423 0.49079964
v 0.27362496 -0.41849190 0.47982997
v 0.27362496 -0.41849190 -0.34988394
v 0.25820059 -0.42129675 0.49398440
v 0.25654367 -0.41856980 0.49663833
v 0.30155149 -0.38283417 0.49849612
v 0.28293380 -0.39584547 0.49849612
v 0.25464574 -0.41553125 0.49849612
v 0.43338168 -0.21347934 0.49955767
v 0.41232377 -0.25272104 0.49955767
v 0.37990850 -0.29931244 0.49955767
v 0.34198022 -0.34198228 0.49955767
v 0.29926193 -0.37992543 0.49955767
v 0.26094201 -0.42578965 -0.36333063
v 0.25994787 -0.42415351 -0.37713119
v 0.25823069 -0.42134869 -0.39110866
v 0.26033950 -0.41467422 -0.40384763
v 0.28293380 -0.39893597 -0.40384763
v 0.30311802 -0.38483390 -0.40384763
v 0.40334633 -0.21347934 -0.40384763
v 0.20969816 -0.45235768 0.48726103
v 0.22964138 -0.44412497 0.47982997
v 0.26127338 -0.42628312 0.06492878
v 0.20891488 -0.45066959 0.49079964
v 0.22964138 -0.44412497 -0.34988394
v 0.20783037 -0.44830623 0.49398440
v 0.20647469 -0.44542348 0.49663833
v 0.20496842 -0.44217718 0.49849612
v 0.28293380 -0.39132658 0.49955767
v 0.25271770 -0.41236281 0.49955767
v 0.42952555 -0.21347934 0.49991155
v 0.42636240 -0.22049142 0.49991155
v 0.40174967 -0.26269379 0.49991155
v 0.37261808 -0.30255878 0.49991155
v 0.33938941 -0.33941117 0.49991155
v 0.30254564 -0.37262768 0.49991155
v 0.28293380 -0.38696349 0.49991155
v 0.26265919 -0.40174082 0.49991155
v 0.21002954 -0.45305887 -0.36333063
v 0.20924628 -0.45134482 -0.37713119
v 0.20786048 -0.44835818 -0.39110866
v 0.25600138 -0.41768682 -0.40384763
v 0.14402407 -0.43384057 -0.40384763
v 0.41855982 -0.21347934 0.49991155
v 0.21015003 -0.45331860 0.48354551
v 0.15655637 -0.47142017 0.49079964
v 0.15712877 -0.47318614 0.48726103
v 0.18406117 -0.46487552 0.47982997
v 0.22322461 -0.44739726 0.06492878
v 0.15574297 -0.46895292 0.49398440
v 0.15471870 -0.46591437 0.49663833
v 0.20340188 -0.43877500 0.49955767
v 0.15242915 -0.45898020 0.49955767
v 0.15360405 -0.46251220 0.49849612
v 0.22045304 -0.42636102 0.49991155
v 0.18406117 -0.46487552 -0.34988394
v 0.15736976 -0.47393930 -0.36333063
v 0.15676725 -0.47214735 -0.37713119
v 0.15574297 -0.46900487 -0.39110866
v 0.20605294 -0.44446260 -0.40384763
v 0.14402407 -0.44685188 0.49991155
v 0.14402407 -0.46773231 -0.40384763
v 0.14402407 -0.47274464 0.49327666
v 0.14402407 -0.47479635 0.49079964
v 0.14402407 -0.47674415 0.48726103
v 0.14402407 -0.47858804 0.48106849
v 0.15746014 -0.47419900 0.48354551
v 0.14402407 -0.47212136 0.49398440
v 0.14402407 -0.46949834 0.49610755
v 0.14402407 -0.46882308 0.49663833
v 0.17671049 -0.44628054 0.49991155
v 0.14402407 -0.45739597 0.49991155
v 0.14402407 -0.46126562 0.49955767
v 0.14402407 -0.46510929 0.49849612
v 0.14402407 -0.47848415 -0.35421872
v 0.14426507 -0.47871792 0.06492878
v 0.14402407 -0.47879583 0.05068591
v 0.14402407 -0.47757518 -0.36333063
v 0.14402407 -0.47560143 -0.37713119
v 0.14402407 -0.47479635 -0.38049287
v 0.14402407 -0.47219926 -0.39110866
v 0.14402407 -0.47113448 -0.39420494
v 0.15438733 -0.46492749 -0.40384763
v 0.14402407 -0.47879583 0.07926013
f 1 2 6
f 1 6 13
f 1 13 24
f 1 24 39
f 1 39 62
f 1 62 61
f 1 61 84
f 1 84 106
f 1 106 130
f 1 130 117
f 1 117 95
f 1 95 72
f 1 72 47
f 1 47 29
f 1 29 25
f 1 25 14
f 1 14 7
f 1 7 3
f 1 3 4
f 1 4 5
f 1 5 2
f 2 5 6
f 3 7 4
f 4 7 8
f 4 8 9
f 4 9 10
f 4 10 5
f 5 10 11
f 5 11 12
f 5 12 13
f 5 13 6
f 7 14 8
f 8 15 9
f 8 14 16
f 8 16 17
f 8 17 15
f 9 15 18
f 9 18 19
f 9 19 11
f 9 11 10
f 11 19 20
f 11 20 21
f 11 21 22
f 11 22 12
f 12 22 23
f 12 23 13
f 13 23 24
f 14 25 16
f 15 26 27
f 15 27 18
f 15 17 28
f 15 28 26
f 16 25 29
f 16 29 30
f 16 30 31
f 16 31 17
f 17 31 28
f 18 27 32
f 18 32 19
f 19 32 20
f 20 32 21
f 21 32 33
f 21 33 34
f 21 34 35
f 21 35 22
f 22 35 36
f 22 36 23
f 23 36 37
f 23 37 38
f 23 38 39
f 23 39 24
f 26 40 27
f 26 28 40
f 27 40 41
f 27 41 42
f 27 42 43
f 27 43 32
f 28 31 44
f 28 44 45
f 28 45 46
f 28 46 40
f 29 47 30
f 30 47 48
f 30 48 31
f 31 48 49
f 31 49 50
f 31 50 44
f 32 43 33
f 33 43 34
f 34 43 51
f 34 51 52
f 34 52 35
f 35 52 53
f 35 53 54
f 35 54 55
f 35 55 36
f 36 55 56
f 36 56 37
f 37 56 57
f 37 57 58
f 37 58 59
f 37 59 38
f 38 59 60
f 38 60 61
f 38 61 62
f 38 62 39
f 40 63 64
f 40 64 41
f 40 46 65
f 40 65 63
f 41 64 66
f 41 66 67
f 41 67 42
f 42 67 68
f 42 68 52
f 42 52 51
f 42 51 43
f 44 50 45
f 45 69 65
f 45 65 46
f 45 50 70
f 45 70 71
f 45 71 69
f 47 72 73
f 47 73 48
f 48 73 49
f 49 73 74
f 49 74 75
f 49 75 50
f 50 75 70
f 52 68 76
f 52 76 53
f 53 76 77
f 53 77 78
f 53 78 79
f 53 79 54
f 54 80 81
f 54 81 82
f 54 82 56
f 54 56 55
f 54 79 80
f 56 82 83
f 56 83 57
f 57 83 105
f 57 105 104
f 57 104 103
f 57 103 128
f 57 128 146
f 57 146 169
f 57 169 148
f 57 148 129
f 57 129 106
f 57 106 84
f 57 84 60
f 57 60 59
f 57 59 58
f 60 84 61
f 63 85 86
f 63 86 64
f 63 65 87
f 63 87 85
f 64 86 88
f 64 88 66
f 65 69 87
f 66 88 67
f 67 88 68
f 68 88 89
f 68 89 76
f 69 90 87
f 69 71 91
f 69 91 90
f 70 75 92
f 70 92 71
f 71 92 93
f 71 93 94
f 71 94 91
f 72 95 73
f 73 95 96
f 73 96 97
f 73 97 74
f 74 97 75
f 75 97 98
f 75 98 99
f 75 99 92
f 76 89 77
f 77 89 78
f 78 89 100
f 78 100 79
f 79 101 80
f 79 100 101
f 80 101 102
f 80 102 81
f 81 102 103
f 81 103 104
f 81 104 82
f 82 104 105
f 82 105 83
f 85 107 86
f 85 87 107
f 86 107 108
f 86 108 109
f 86 109 88
f 87 90 110
f 87 110 107
f 88 109 89
f 89 111 100
f 89 109 111
f 90 112 110
f 90 91 113
f 90 113 112
f 91 94 114
f 91 114 113
f 92 99 93
f 93 99 115
f 93 115 116
f 93 116 94
f 94 116 114
f 95 117 118
f 95 118 96
f 96 118 119
f 96 119 97
f 97 119 120
f 97 120 98
f 98 120 121
f 98 121 122
f 98 122 99
f 99 122 123
f 99 123 124
f 99 124 115
f 100 111 125
f 100 125 126
f 100 126 101
f 101 126 102
f 102 127 128
f 102 128 103
f 102 126 127
f 106 129 130
f 107 131 108
f 107 110 132
f 107 132 133
f 107 133 134
f 107 134 131
f 108 135 111
f 108 111 109
f 108 131 135
f 110 112 136
f 110 136 132
f 111 135 125
f 112 113 136
f 113 137 136
f 113 114 137
f 114 116 138
f 114 138 139
f 114 139 140
f 114 140 137
f 115 124 116
f 116 124 141
f 116 141 138
f 117 130 147
f 117 147 158
f 117 158 157
f 117 157 141
f 117 141 124
f 117 124 123
f 117 123 122
f 117 122 121
f 117 121 120
f 117 120 119
f 117 119 118
f 125 135 142
f 125 142 143
f 125 143 126
f 126 144 127
f 126 143 144
f 127 144 145
f 127 145 146
f 127 146 128
f 129 147 130
f 129 148 168
f 129 168 167
f 129 167 166
f 129 166 165
f 129 165 164
f 129 164 161
f 129 161 163
f 129 163 170
f 129 170 152
f 129 152 151
f 129 151 150
f 129 150 149
f 129 149 154
f 129 154 155
f 129 155 156
f 129 156 160
f 129 160 159
f 129 159 158
f 129 158 147
f 131 134 142
f 131 142 135
f 132 136 149
f 132 149 150
f 132 150 151
f 132 151 133
f 133 151 152
f 133 152 153
f 133 153 134
f 134 153 142
f 136 154 149
f 136 137 155
f 136 155 154
f 137 156 155
f 137 140 156
f 138 141 157
f 138 157 139
f 139 157 158
f 139 158 159
f 139 159 140
f 140 160 156
f 140 159 160
f 142 161 143
f 142 153 162
f 142 162 163
f 142 163 161
f 143 161 164
f 143 164 144
f 144 165 166
f 144 166 167
f 144 167 145
f 144 164 165
f 145 167 168
f 145 168 169
f 145 169 146
f 148 169 168
f 152 170 153
f 153 170 162
f 162 170 163

