# https://github.com/mikedh/trimesh
v 0.21376124 -0.34985384 0.47704229
v 0.27344120 -0.30864173 0.47704229
v 0.21376124 -0.34076962 0.49280933
v 0.21376124 -0.28311506 0.30869806
v 0.26618463 -0.30043566 0.49998128
v 0.23675631 -0.26721767 0.30869806
v 0.29383233 -0.20281050 0.30869806
v 0.33934379 -0.23421164 0.47704229
v 0.33034489 -0.22800408 0.49998128
v 0.21376124 -0.33662117 0.49998128
v 0.21376124 -0.25652856 0.30869806
v 0.38554454 -0.14624605 0.47704229
v 0.32933012 -0.13516329 0.30869806
v 0.37530112 -0.14233983 0.49998128
v 0.21376124 -0.31100363 0.48831517
v 0.39846849 -0.04050565 0.49998128
v 0.35780111 -0.04050565 0.47747296
v 0.21376124 -0.26125234 0.33467060
v 0.33252761 -0.04050565 0.30869806
v 0.33381042 -0.12662411 0.30869806
v 0.35211456 -0.05240598 0.30869806
v 0.40934378 -0.04971100 0.47704229
v 0.39846849 -0.04840893 0.49998128
v 0.21376124 -0.28723323 0.47747296
v 0.40934378 -0.04050565 0.47704229
v 0.35678634 -0.04050565 0.47075045
v 0.35441217 -0.04050565 0.30869806
v 0.35441217 -0.04304923 0.30869806
f 1 2 3
f 1 3 10
f 1 10 15
f 1 15 24
f 1 24 18
f 1 18 11
f 1 11 4
f 1 4 2
f 2 5 3
f 2 4 6
f 2 6 7
f 2 7 8
f 2 8 9
f 2 9 5
f 3 5 10
f 4 11 19
f 4 19 27
f 4 27 28
f 4 28 21
f 4 21 20
f 4 20 13
f 4 13 7
f 4 7 6
f 5 9 14
f 5 14 23
f 5 23 16
f 5 16 10
f 7 12 8
f 7 13 12
f 8 12 9
f 9 12 14
f 10 16 17
f 10 17 15
f 11 18 19
f 12 13 20
f 12 20 21
f 12 21 22
f 12 22 23
f 12 23 14
f 15 17 24
f 16 23 22
f 16 22 25
f 16 25 27
f 16 27 19
f 16 19 26
f 16 26 17
f 17 26 24
f 18 24 19
f 19 24 26
f 21 28 22
f 22 28 27
f 22 27 25

