# https://github.com/mikedh/trimesh
v 0.10742629 -0.20448335 -0.38156539
v 0.08018432 -0.32524040 0.30863047
v 0.10742629 -0.22599076 -0.38156539
v 0.10742629 -0.19436905 -0.43727463
v 0.08018432 -0.34727928 0.30863047
v -0.11755670 -0.31107375 0.30863047
v 0.08018432 -0.33028924 0.19772309
v 0.08018432 -0.32532346 0.16537814
v 0.10742629 -0.21695599 -0.43727463
v -0.11755670 -0.18737707 -0.43727463
v -0.00002202 -0.35702819 0.30863047
v -0.11755670 -0.33447447 0.30863047
v -0.00000000 -0.24271506 -0.43727463
v 0.05807362 -0.23565663 -0.43727463
v 0.08018432 -0.25037137 -0.29540956
v -0.11755670 -0.21162480 -0.43727463
v -0.00002202 -0.25125158 -0.38156539
v -0.08540369 -0.34663156 0.30863047
v -0.05807362 -0.23565663 -0.43727463
v -0.11755670 -0.22399779 -0.37024832
v -0.11674186 -0.22246985 -0.38156539
v -0.11277779 -0.21491319 -0.43727463
f 1 2 5
f 1 5 3
f 1 3 9
f 1 9 4
f 1 4 2
f 2 4 6
f 2 6 12
f 2 12 18
f 2 18 11
f 2 11 5
f 3 5 7
f 3 7 8
f 3 8 9
f 4 9 14
f 4 14 13
f 4 13 19
f 4 19 22
f 4 22 16
f 4 16 10
f 4 10 6
f 5 11 7
f 6 10 16
f 6 16 20
f 6 20 12
f 7 11 13
f 7 13 14
f 7 14 8
f 8 15 9
f 8 14 15
f 9 15 14
f 11 17 13
f 11 18 19
f 11 19 17
f 12 20 21
f 12 21 22
f 12 22 19
f 12 19 18
f 13 17 19
f 16 22 21
f 16 21 20

