# https://github.com/mikedh/trimesh
v 0.33582652 0.11845206 0.30862498
v 0.31220770 0.11845206 0.15797842
v 0.33381855 0.12666139 0.30862498
v 0.31331208 0.11845206 0.30862498
v 0.19672398 0.10070545 -0.43723255
v 0.23236556 0.11842792 -0.30674034
v 0.23236556 0.11845206 -0.30674034
v 0.29380962 0.20286317 0.30862498
v 0.19973594 0.13791297 -0.43723255
v 0.07943308 0.32532686 0.30862498
v 0.07943308 0.22705650 -0.30674034
v 0.07943308 0.20621933 -0.43723255
v 0.20992643 0.11842792 -0.43723255
v 0.23675801 0.26720974 0.30862498
v 0.18412393 0.18552703 -0.30674034
v 0.17423466 0.19668204 -0.30674034
v 0.16093181 0.18166381 -0.43723255
v 0.07943308 0.34737131 0.30862498
v 0.07943308 0.22753941 -0.43723255
v 0.16597685 0.31610346 0.30862498
v 0.15940073 0.18275034 -0.43723255
v 0.12212767 0.23263402 -0.30674034
v 0.08548211 0.34662282 0.30862498
v 0.07943308 0.32213974 0.14403100
v 0.07943308 0.24878706 -0.30674034
v 0.11281569 0.21488741 -0.43723255
f 1 2 3
f 1 3 8
f 1 8 14
f 1 14 20
f 1 20 23
f 1 23 18
f 1 18 10
f 1 10 4
f 1 4 5
f 1 5 2
f 2 6 7
f 2 7 3
f 2 5 6
f 3 7 9
f 3 9 8
f 4 10 5
f 5 11 12
f 5 12 19
f 5 19 26
f 5 26 21
f 5 21 17
f 5 17 9
f 5 9 13
f 5 13 6
f 5 10 11
f 6 13 7
f 7 13 9
f 8 9 15
f 8 15 16
f 8 16 14
f 9 17 16
f 9 16 15
f 10 18 24
f 10 24 25
f 10 25 19
f 10 19 12
f 10 12 11
f 14 16 20
f 16 17 21
f 16 21 22
f 16 22 20
f 18 23 24
f 19 25 22
f 19 22 26
f 20 22 23
f 21 26 22
f 22 25 24
f 22 24 23

