# https://github.com/mikedh/trimesh
v -0.00013154 0.40139300 0.49996257
v -0.09605750 0.38972756 0.49998128
v -0.00013154 0.40131223 0.49996257
v -0.00013154 0.41228536 0.47702354
v -0.09866858 0.40035453 0.47704229
v -0.15890983 0.36588898 0.49998128
v -0.15890983 0.37353903 0.48490709
v -0.00013154 0.36041972 0.47747296
v -0.15890983 0.32241186 0.47747296
v -0.00013154 0.35700431 0.30869806
v -0.15890983 0.37751982 0.47704229
v -0.08544224 0.34666583 0.30869806
v -0.15890983 0.29440787 0.30869806
v -0.00013154 0.36037359 0.47719207
v -0.00013154 0.33498883 0.30869806
v -0.15890983 0.31880030 0.30869806
v -0.00013154 0.36007357 0.47520715
f 1 2 3
f 1 3 8
f 1 8 14
f 1 14 17
f 1 17 15
f 1 15 10
f 1 10 4
f 1 4 5
f 1 5 2
f 2 6 3
f 2 5 7
f 2 7 6
f 3 6 9
f 3 9 8
f 4 10 5
f 5 11 7
f 5 10 12
f 5 12 11
f 6 7 11
f 6 11 16
f 6 16 13
f 6 13 9
f 8 9 13
f 8 13 14
f 10 15 13
f 10 13 16
f 10 16 12
f 11 12 16
f 13 15 17
f 13 17 14

