# https://github.com/mikedh/trimesh
v 0.21374214 0.25650537 0.30871677
v 0.21374214 0.28718847 0.47745645
v 0.21374214 0.28309995 0.30871677
v 0.33252192 -0.04050562 0.30871677
v 0.21374214 0.33659476 0.49996257
v 0.35679862 -0.04050562 0.47073457
v 0.35781336 -0.04050562 0.47745645
v 0.23677438 0.26720431 0.30871677
v 0.21374214 0.34985384 0.47702581
v 0.35442457 -0.04050562 0.30871677
v 0.26620129 0.30040932 0.49996257
v 0.21374214 0.34075972 0.49279132
v 0.39845961 -0.04050562 0.49996257
v 0.27345750 0.30862463 0.47702581
v 0.28745300 0.21004127 0.30871677
v 0.35442457 0.04306096 0.30871677
v 0.40933436 -0.04050562 0.47702581
v 0.33032015 0.22800025 0.49996257
v 0.33933777 0.23422858 0.47702581
v 0.39845961 0.04841045 0.49996257
v 0.29384765 0.20281947 0.30871677
v 0.40933436 0.04970960 0.47702581
v 0.33571923 0.11894721 0.30871677
v 0.39227557 0.11894721 0.47702581
v 0.37531251 0.14237030 0.49996257
v 0.38553628 0.14622957 0.47702581
v 0.38915482 0.11894721 0.48342937
v 0.33382383 0.12662753 0.30871677
f 1 2 5
f 1 5 12
f 1 12 9
f 1 9 3
f 1 3 8
f 1 8 15
f 1 15 21
f 1 21 28
f 1 28 23
f 1 23 16
f 1 16 10
f 1 10 4
f 1 4 2
f 2 4 6
f 2 6 7
f 2 7 5
f 3 9 8
f 4 10 17
f 4 17 13
f 4 13 7
f 4 7 6
f 5 11 12
f 5 7 13
f 5 13 20
f 5 20 25
f 5 25 18
f 5 18 11
f 8 9 14
f 8 14 15
f 9 12 11
f 9 11 14
f 10 16 22
f 10 22 17
f 11 18 19
f 11 19 14
f 13 17 22
f 13 22 20
f 14 19 15
f 15 19 21
f 16 23 24
f 16 24 22
f 18 25 19
f 19 25 26
f 19 26 21
f 20 22 27
f 20 27 25
f 21 26 28
f 22 24 27
f 23 28 24
f 24 28 26
f 24 26 25
f 24 25 27

