# https://github.com/mikedh/trimesh
v -0.18443465 0.11841977 -0.50000000
v -0.15755627 0.11841977 -0.50000000
v -0.20673975 0.11841977 -0.45595226
v -0.18102548 0.12496329 -0.50000000
v -0.15755627 0.15144177 -0.50000000
v -0.15755627 0.11841977 -0.43725646
v -0.19738534 0.13627498 -0.45595226
v -0.31221610 0.11841977 0.15797515
v -0.36990172 0.17604342 0.47697857
v -0.15905297 0.17954344 -0.45595226
v -0.15755627 0.18058330 -0.45595226
v -0.31331784 0.11841977 0.30861837
v -0.15755627 0.29532337 0.30861837
v -0.15894905 0.32238519 0.47746798
v -0.33934394 0.23425041 0.47697857
v -0.33583084 0.11841977 0.30861837
v -0.35759547 0.17604342 0.49998128
v -0.33032212 0.22803660 0.49998128
v -0.27342641 0.30861333 0.47697857
v -0.15755627 0.30014226 0.19096200
v -0.19162717 0.36509567 0.47697857
v -0.15894905 0.37752330 0.47697857
v -0.31169641 0.17604342 0.47746798
v -0.15755627 0.31929094 0.30861837
v -0.15894905 0.36588192 0.49998128
v -0.26615074 0.30044660 0.49998128
v -0.15755627 0.30967855 0.24949653
v -0.18655498 0.35540718 0.49998128
f 1 2 6
f 1 6 12
f 1 12 16
f 1 16 8
f 1 8 3
f 1 3 4
f 1 4 5
f 1 5 2
f 2 5 11
f 2 11 20
f 2 20 27
f 2 27 24
f 2 24 13
f 2 13 6
f 3 7 4
f 3 8 9
f 3 9 7
f 4 7 10
f 4 10 5
f 5 10 11
f 6 13 14
f 6 14 12
f 7 9 15
f 7 15 10
f 8 16 9
f 9 17 18
f 9 18 15
f 9 16 17
f 10 15 19
f 10 19 11
f 11 19 21
f 11 21 22
f 11 22 20
f 12 14 23
f 12 23 17
f 12 17 16
f 13 24 25
f 13 25 14
f 14 25 23
f 15 18 26
f 15 26 19
f 17 23 25
f 17 25 28
f 17 28 26
f 17 26 18
f 19 26 21
f 20 22 27
f 21 26 28
f 21 28 22
f 22 28 25
f 22 25 24
f 22 24 27

