# https://github.com/mikedh/trimesh
v -0.15499641 -0.37900919 0.47694212
v -0.15499641 -0.36734310 0.49996257
v -0.18658277 -0.35537875 0.49996257
v -0.19166631 -0.36505628 0.47694212
v -0.11758399 -0.21435821 -0.42225939
v -0.11758399 -0.22393633 -0.37022942
v -0.11758399 -0.33446592 0.30868691
v -0.15499641 -0.32386041 0.47741002
v -0.35776603 -0.04350962 0.47741002
v -0.39846277 -0.04350962 0.49996257
v -0.11758399 -0.31106746 0.30868691
v -0.26617700 -0.30039564 0.49996257
v -0.27340245 -0.30861494 0.47694212
v -0.16247889 -0.18343644 -0.42225939
v -0.18718252 -0.14784160 -0.45604146
v -0.11758399 -0.19009805 -0.42225939
v -0.35773748 -0.04350962 0.47731644
v -0.33251980 -0.04042739 0.30868691
v -0.39846277 -0.04841468 0.49996257
v -0.35439608 -0.04042739 0.30868691
v -0.40934378 -0.04350962 0.47694212
v -0.21996838 -0.04042739 -0.42225939
v -0.33029220 -0.22797969 0.49996257
v -0.33931684 -0.23421045 0.47694212
v -0.19409382 -0.14005315 -0.45604146
v -0.18718252 -0.14005315 -0.45604146
v -0.40934378 -0.04974037 0.47694212
v -0.37530133 -0.14237311 0.49996257
v -0.35016933 -0.04042739 0.28080034
v -0.33269113 -0.04042739 0.16588522
v -0.24055949 -0.04042739 -0.42225939
v -0.35016933 -0.19023061 0.49996257
v -0.35656655 -0.19023061 0.48798448
v -0.36244974 -0.19023061 0.47694212
v -0.20166199 -0.13922459 -0.42225939
v -0.22882169 -0.08752260 -0.42225939
v -0.22910729 -0.08689290 -0.42225939
v -0.23004973 -0.08321410 -0.42225939
v -0.38552549 -0.14625077 0.47694212
f 1 2 3
f 1 3 4
f 1 4 5
f 1 5 6
f 1 6 7
f 1 7 2
f 2 8 9
f 2 9 10
f 2 10 19
f 2 19 28
f 2 28 32
f 2 32 23
f 2 23 12
f 2 12 3
f 2 7 11
f 2 11 8
f 3 12 13
f 3 13 4
f 4 13 14
f 4 14 5
f 5 14 15
f 5 15 26
f 5 26 16
f 5 16 11
f 5 11 7
f 5 7 6
f 8 17 9
f 8 11 17
f 9 17 18
f 9 18 10
f 10 18 20
f 10 20 21
f 10 21 27
f 10 27 19
f 11 16 22
f 11 22 18
f 11 18 17
f 12 23 24
f 12 24 13
f 13 24 25
f 13 25 15
f 13 15 14
f 15 25 26
f 16 26 22
f 18 22 31
f 18 31 30
f 18 30 29
f 18 29 20
f 19 27 28
f 20 29 21
f 21 29 30
f 21 30 31
f 21 31 27
f 22 26 25
f 22 25 31
f 23 32 24
f 24 32 33
f 24 33 34
f 24 34 35
f 24 35 25
f 25 35 36
f 25 36 37
f 25 37 38
f 25 38 31
f 27 39 28
f 27 31 38
f 27 38 39
f 28 39 34
f 28 34 33
f 28 33 32
f 34 39 36
f 34 36 35
f 36 39 37
f 37 39 38

