# https://github.com/mikedh/trimesh
v 0.04394615 -0.00000757 -0.03745808
v 0.04646166 -0.00000757 -0.03745808
v 0.04401036 -0.00000757 -0.01451795
v 0.03089181 0.03110642 -0.03745808
v 0.04650019 0.00050067 -0.03745808
v 0.04728839 0.00138835 0.05327987
v 0.04718245 -0.00000757 0.05327987
v 0.04416447 -0.00000757 0.04018544
v 0.03435606 0.03110642 -0.03745808
v 0.04420300 -0.00000757 0.05358755
v 0.03110692 0.03124566 0.05358755
v 0.03110692 0.03138490 0.05385903
v 0.03110692 0.03194884 0.05448343
v 0.03110692 0.03294791 0.05499019
v 0.03110692 0.03432294 0.05496305
v 0.03110692 0.03531157 0.05433864
v 0.03110692 0.03555525 0.05327987
v 0.03110692 0.03455965 -0.01451795
v 0.04653711 0.00099151 -0.03745808
v 0.04596562 0.01118762 0.05327987
v 0.04580509 0.01114933 0.05433864
v 0.04712144 0.00138139 0.05433864
v 0.04701710 -0.00000757 0.05433864
v 0.04656440 0.00136746 -0.03745808
v 0.04537969 0.01015721 -0.03745808
v 0.03687317 0.02847123 -0.03745808
v 0.04429611 -0.00000757 0.05385903
v 0.04468780 -0.00000757 0.05448343
v 0.04538129 -0.00000757 0.05499019
v 0.03601594 0.02780982 0.05499019
v 0.03677043 0.02839117 0.05496305
v 0.03731303 0.02881238 0.05433864
v 0.03744466 0.02891681 0.05327987
v 0.04263622 0.02049605 0.05327987
v 0.04526250 0.01102052 -0.03745808
v 0.04465890 0.01271234 -0.03745808
v 0.04248532 0.02042295 0.05433864
v 0.04186567 0.02012357 0.05496305
v 0.04513568 0.01098571 0.05496305
v 0.04643437 0.00136050 0.05496305
v 0.04633003 -0.00000757 0.05496305
v 0.04198446 0.02018275 -0.03745808
v 0.04551293 -0.00000757 0.05499019
v 0.04101004 0.01971629 0.05499019
v 0.04421263 0.01076292 0.05499019
v 0.04548243 0.00133265 0.05499019
f 1 2 7
f 1 7 23
f 1 23 41
f 1 41 43
f 1 43 29
f 1 29 28
f 1 28 27
f 1 27 10
f 1 10 8
f 1 8 3
f 1 3 4
f 1 4 9
f 1 9 26
f 1 26 42
f 1 42 36
f 1 36 35
f 1 35 25
f 1 25 24
f 1 24 19
f 1 19 5
f 1 5 2
f 2 5 6
f 2 6 7
f 3 8 4
f 4 8 10
f 4 10 11
f 4 11 12
f 4 12 13
f 4 13 14
f 4 14 15
f 4 15 16
f 4 16 17
f 4 17 18
f 4 18 9
f 5 19 6
f 6 20 21
f 6 21 22
f 6 22 23
f 6 23 7
f 6 19 24
f 6 24 25
f 6 25 20
f 9 18 17
f 9 17 26
f 10 27 12
f 10 12 11
f 12 27 13
f 13 27 28
f 13 28 14
f 14 28 29
f 14 29 43
f 14 43 46
f 14 46 45
f 14 45 44
f 14 44 30
f 14 30 15
f 15 30 31
f 15 31 32
f 15 32 16
f 16 32 17
f 17 32 33
f 17 33 26
f 20 34 21
f 20 25 35
f 20 35 36
f 20 36 34
f 21 34 37
f 21 37 38
f 21 38 39
f 21 39 40
f 21 40 22
f 22 40 23
f 23 40 41
f 26 33 42
f 30 44 31
f 31 44 38
f 31 38 37
f 31 37 32
f 32 37 33
f 33 37 34
f 33 34 42
f 34 36 42
f 38 44 39
f 39 44 45
f 39 45 40
f 40 45 46
f 40 46 43
f 40 43 41

