# https://github.com/mikedh/trimesh
v -0.03012465 -0.03556875 -0.01841923
v -0.03016607 -0.03553394 -0.01841923
v -0.03014724 -0.03550958 -0.03859348
v -0.03012465 -0.03552698 -0.03859348
v -0.02805758 -0.03128757 -0.04524627
v -0.03029032 -0.03210552 0.05358402
v -0.03032232 -0.03210552 0.05365271
v -0.03042022 -0.03210552 0.05385877
v -0.03095863 -0.03210552 0.05447695
v -0.03191498 -0.03210552 0.05499700
v -0.03322338 -0.03210552 0.05496756
v -0.03417031 -0.03210552 0.05433957
v -0.03439999 -0.03210552 0.05327983
v -0.03417031 -0.03128757 -0.04524627
v -0.04201690 -0.00001063 -0.04524627
v -0.04420445 -0.00001411 0.05358402
v -0.04429670 -0.00001411 0.05385877
v -0.04468828 -0.00001411 0.05447695
v -0.04538295 -0.00001411 0.05499700
v -0.03601712 -0.02781042 0.05499700
v -0.03677015 -0.02839169 0.05496756
v -0.03731422 -0.02881284 0.05433957
v -0.03744600 -0.02891378 0.05327983
v -0.03686428 -0.02846478 -0.04524627
v -0.04644849 -0.00001063 -0.04524627
v -0.04394277 -0.00001063 -0.03859348
v -0.04633176 -0.00001411 0.05496756
v -0.04548272 -0.00133675 0.05499700
v -0.04645978 -0.00001063 -0.03859348
v -0.04100784 -0.01971448 0.05499700
v -0.04186629 -0.02012519 0.05496756
v -0.04248566 -0.02042453 0.05433957
v -0.04263626 -0.02049414 0.05327983
v -0.04144271 -0.02103712 -0.04524627
v -0.04655203 -0.00136460 -0.04524627
v -0.04729000 -0.00138896 0.05327983
v -0.04718458 -0.00001411 0.05327983
v -0.04701703 -0.00001411 0.05433957
v -0.04712245 -0.00138200 0.05433957
v -0.04643342 -0.00136460 0.05496756
v -0.04421198 -0.01076578 0.05499700
v -0.04513633 -0.01098854 0.05496756
v -0.04580464 -0.01115213 0.05433957
v -0.04596655 -0.01119041 0.05327983
v -0.04491230 -0.01197008 -0.04524627
v -0.04197172 -0.02017392 -0.04524627
v -0.04525117 -0.01101638 -0.04524627
f 1 2 3
f 1 3 4
f 1 4 5
f 1 5 6
f 1 6 7
f 1 7 8
f 1 8 9
f 1 9 10
f 1 10 11
f 1 11 12
f 1 12 13
f 1 13 2
f 2 13 3
f 3 14 4
f 3 13 14
f 4 14 5
f 5 14 24
f 5 24 34
f 5 34 46
f 5 46 45
f 5 45 47
f 5 47 35
f 5 35 25
f 5 25 15
f 5 15 16
f 5 16 6
f 6 16 17
f 6 17 7
f 7 17 8
f 8 17 18
f 8 18 9
f 9 18 19
f 9 19 10
f 10 19 28
f 10 28 41
f 10 41 30
f 10 30 20
f 10 20 11
f 11 20 21
f 11 21 12
f 12 21 22
f 12 22 13
f 13 22 23
f 13 23 24
f 13 24 14
f 15 25 29
f 15 29 26
f 15 26 16
f 16 26 17
f 17 26 18
f 18 26 19
f 19 27 28
f 19 26 29
f 19 29 27
f 20 30 31
f 20 31 21
f 21 32 22
f 21 31 32
f 22 32 23
f 23 32 33
f 23 33 24
f 24 33 34
f 25 35 36
f 25 36 37
f 25 37 29
f 27 38 39
f 27 39 40
f 27 40 28
f 27 29 38
f 28 40 41
f 29 37 38
f 30 41 31
f 31 41 42
f 31 42 43
f 31 43 32
f 32 43 44
f 32 44 33
f 33 44 45
f 33 45 46
f 33 46 34
f 35 47 36
f 36 44 43
f 36 43 39
f 36 39 37
f 36 47 44
f 37 39 38
f 39 43 42
f 39 42 40
f 40 42 41
f 44 47 45

