# https://github.com/mikedh/trimesh
v 0.00000551 0.04638285 -0.01460883
v 0.00000207 0.04706939 0.05328499
v 0.00000207 0.04696337 0.05396001
v 0.00000207 0.04690254 0.05434154
v 0.00000207 0.04621773 0.05496765
v 0.00000207 0.04527396 0.05499700
v 0.00000551 0.04390610 -0.01460883
v 0.00000551 0.04633766 -0.04494583
v -0.00632413 0.04688516 0.05328499
v -0.00630354 0.04671830 0.05434154
v -0.00621086 0.04603697 0.05496765
v -0.00608385 0.04509494 0.05499700
v -0.03270678 0.03139719 0.05499700
v 0.00000207 0.04458221 0.05447851
v 0.00000207 0.04418940 0.05386218
v 0.00000207 0.04409729 0.05358825
v 0.00000551 0.04212631 -0.04494583
v -0.00615250 0.04615690 -0.04494583
v -0.01593530 0.04454397 0.05328499
v -0.01587694 0.04438754 0.05434154
v -0.00622802 0.04615343 -0.04494583
v -0.00645800 0.04609781 -0.04494583
v -0.01567785 0.04385222 -0.04494583
v -0.01564696 0.04374098 0.05496765
v -0.01532773 0.04284413 0.05499700
v -0.03141957 0.03291279 0.05499700
v -0.03207862 0.03359933 0.05496765
v -0.03394593 0.03139719 0.05496765
v -0.03035204 0.02931324 -0.04494583
v -0.03179715 0.03139719 0.05447851
v -0.03128570 0.03139719 0.05386218
v -0.03127197 0.03139719 0.05383283
v -0.03116213 0.03139719 0.05358825
v -0.02483935 0.04026136 0.05328499
v -0.01589754 0.04374793 -0.04494583
v -0.02475354 0.04011710 0.05434154
v -0.02389197 0.03872490 0.05499700
v -0.02438969 0.03953137 0.05496765
v -0.03255231 0.03409641 0.05434154
v -0.03484183 0.03139719 0.05434154
v -0.03416218 0.03139719 -0.01460883
v -0.03035204 0.03508364 -0.04494583
v -0.03506151 0.03139719 0.05328499
v -0.03266559 0.03421808 0.05328499
v -0.02445148 0.03963218 -0.04494583
v -0.02464370 0.03948792 -0.04494583
v -0.03219189 0.03372099 -0.01460883
v -0.03095617 0.03463174 -0.03771621
f 1 2 3
f 1 3 4
f 1 4 5
f 1 5 6
f 1 6 7
f 1 7 17
f 1 17 8
f 1 8 2
f 2 9 3
f 2 8 9
f 3 9 10
f 3 10 4
f 4 10 11
f 4 11 5
f 5 11 6
f 6 12 25
f 6 25 37
f 6 37 26
f 6 26 13
f 6 13 14
f 6 14 7
f 6 11 12
f 7 14 15
f 7 15 16
f 7 16 17
f 8 17 29
f 8 29 42
f 8 42 46
f 8 46 45
f 8 45 35
f 8 35 23
f 8 23 22
f 8 22 21
f 8 21 18
f 8 18 9
f 9 19 20
f 9 20 10
f 9 18 21
f 9 21 22
f 9 22 23
f 9 23 19
f 10 20 24
f 10 24 11
f 11 24 12
f 12 24 25
f 13 26 27
f 13 27 28
f 13 28 29
f 13 29 30
f 13 30 14
f 14 30 15
f 15 31 16
f 15 30 31
f 16 31 32
f 16 32 33
f 16 33 29
f 16 29 17
f 19 34 20
f 19 23 35
f 19 35 34
f 20 34 36
f 20 36 24
f 24 37 25
f 24 36 38
f 24 38 37
f 26 37 27
f 27 37 38
f 27 38 36
f 27 36 39
f 27 39 40
f 27 40 28
f 28 40 29
f 29 41 42
f 29 33 32
f 29 32 31
f 29 31 30
f 29 40 43
f 29 43 41
f 34 44 39
f 34 39 36
f 34 35 45
f 34 45 46
f 34 46 42
f 34 42 44
f 39 44 43
f 39 43 40
f 41 43 47
f 41 47 48
f 41 48 42
f 42 48 44
f 43 44 47
f 44 48 47

