# https://github.com/mikedh/trimesh
v 0.03190830 -0.03480700 0.05329175
v 0.03190830 -0.03394178 -0.01496633
v 0.03267249 -0.03421430 0.05329175
v 0.03190830 -0.03459580 0.05434640
v 0.03190830 -0.03022885 -0.01496633
v 0.03219693 -0.03371697 -0.01496633
v 0.03907316 -0.02667260 0.05329175
v 0.03893408 -0.02658063 0.05434640
v 0.03255734 -0.03409166 0.05434640
v 0.03647850 -0.02867214 -0.01496633
v 0.03208327 -0.03359774 0.05496961
v 0.03190830 -0.03373059 0.05496961
v 0.03190830 -0.03026972 -0.00550184
v 0.04401124 -0.00001098 -0.01496633
v 0.03850338 -0.02628427 -0.01496633
v 0.04312742 -0.01770705 -0.01496633
v 0.04376449 -0.01796593 0.05329175
v 0.04360896 -0.01790462 0.05434640
v 0.03836729 -0.02619230 0.05496961
v 0.03758217 -0.02565750 0.05499700
v 0.03190830 -0.03234079 0.05499700
v 0.03190830 -0.03341380 0.05497646
v 0.03190830 -0.03052520 0.05359308
v 0.04416528 -0.00001098 0.04019074
v 0.04649674 -0.00001098 -0.01496633
v 0.04498630 -0.01136099 -0.01496633
v 0.04654310 -0.00847920 0.05329175
v 0.04637860 -0.00844854 0.05434640
v 0.04570264 -0.00832591 0.05496961
v 0.04297338 -0.01764232 0.05496961
v 0.04209403 -0.01728466 0.05499700
v 0.04538260 -0.00001098 0.05499700
v 0.04469020 -0.00001098 0.05448337
v 0.03190830 -0.03127460 0.05448337
v 0.03190830 -0.03066827 0.05386701
v 0.04420416 -0.00001098 0.05359308
v 0.04629485 -0.00269178 -0.01496633
v 0.04718466 -0.00001098 0.05329175
v 0.04586565 -0.00835657 -0.01496633
v 0.04701716 -0.00001098 0.05434640
v 0.04633074 -0.00001098 0.05496961
v 0.04476796 -0.00815560 0.05499700
v 0.04463337 -0.00001098 0.05439434
v 0.04429688 -0.00001098 0.05386701
f 1 2 3
f 1 3 4
f 1 4 12
f 1 12 22
f 1 22 21
f 1 21 34
f 1 34 35
f 1 35 23
f 1 23 13
f 1 13 5
f 1 5 2
f 2 5 14
f 2 14 25
f 2 25 37
f 2 37 39
f 2 39 26
f 2 26 16
f 2 16 15
f 2 15 10
f 2 10 6
f 2 6 3
f 3 7 8
f 3 8 9
f 3 9 4
f 3 6 10
f 3 10 7
f 4 9 11
f 4 11 12
f 5 13 14
f 7 10 15
f 7 15 16
f 7 16 17
f 7 17 18
f 7 18 8
f 8 18 19
f 8 19 11
f 8 11 9
f 11 19 20
f 11 20 21
f 11 21 22
f 11 22 12
f 13 23 14
f 14 23 24
f 14 24 36
f 14 36 44
f 14 44 43
f 14 43 33
f 14 33 32
f 14 32 41
f 14 41 40
f 14 40 38
f 14 38 25
f 16 26 17
f 17 26 27
f 17 27 28
f 17 28 18
f 18 28 29
f 18 29 30
f 18 30 19
f 19 30 31
f 19 31 20
f 20 31 42
f 20 42 32
f 20 32 21
f 21 32 33
f 21 33 34
f 23 35 36
f 23 36 24
f 25 38 37
f 26 39 27
f 27 39 37
f 27 37 38
f 27 38 28
f 28 38 40
f 28 40 29
f 29 40 41
f 29 41 42
f 29 42 31
f 29 31 30
f 32 42 41
f 33 43 34
f 34 43 44
f 34 44 35
f 35 44 36

