# https://github.com/mikedh/trimesh
v 0.00351401 0.04643717 -0.04499149
v 0.00362337 0.04641898 -0.04499149
v 0.00351401 0.04643717 -0.04609146
v 0.00318594 0.04642807 -0.04499149
v 0.01286851 0.04473669 -0.04499149
v 0.01309178 0.04469577 -0.04609146
v 0.00348667 0.04608707 -0.04776050
v 0.00000551 0.04633714 -0.04609146
v 0.00012853 0.04634168 -0.04499149
v 0.01309178 0.04469577 -0.04499149
v 0.01299153 0.04435477 -0.04776050
v 0.01319202 0.04465485 -0.04499149
v 0.02209997 0.04099929 -0.04499149
v 0.02209997 0.04099474 -0.04609146
v 0.02193139 0.04068557 -0.04776050
v 0.00342288 0.04523683 -0.04981155
v 0.00000551 0.04598704 -0.04776050
v 0.00000551 0.04633714 -0.04499149
v 0.01275004 0.04353636 -0.04981155
v 0.02152586 0.03993536 -0.04981155
v 0.03004651 0.03557051 -0.04499149
v 0.03013308 0.03550685 -0.04609146
v 0.02990982 0.03523860 -0.04776050
v 0.00332720 0.04397284 -0.05159618
v 0.00000551 0.04513680 -0.04981155
v 0.00000551 0.04567786 -0.04850785
v 0.00000551 0.04210414 -0.04499149
v 0.01239463 0.04231784 -0.05159618
v 0.02092440 0.03881687 -0.05159618
v 0.02935392 0.03458387 -0.04981155
v 0.02853375 0.03361996 -0.05159618
v 0.03013764 0.03550685 -0.04499149
v 0.03685848 0.02846399 -0.04609146
v 0.03658053 0.02825029 -0.04776050
v 0.03590161 0.02772742 -0.04981155
v 0.01193898 0.04076286 -0.05305856
v 0.00320417 0.04235421 -0.05305856
v 0.00000551 0.04226328 -0.05305856
v 0.00000551 0.04387281 -0.05159618
v 0.00000551 -0.00000757 -0.04964406
v 0.04220325 -0.00000757 -0.04499149
v 0.02748576 0.03238326 -0.05305856
v 0.02015435 0.03738919 -0.05305856
v 0.03489918 0.02694993 -0.05159618
v 0.03361881 0.02595874 -0.05305856
v 0.03607932 0.02928239 -0.04499149
v 0.03669900 0.02863221 -0.04499149
v 0.03685848 0.02846399 -0.04499149
v 0.03691771 0.02836850 -0.04499149
v 0.04185240 0.02037992 -0.04499149
v 0.04197087 0.02018441 -0.04609146
v 0.04165647 0.02002982 -0.04776050
v 0.04088642 0.01966154 -0.04981155
v 0.01140131 0.03892599 -0.05413599
v 0.00305836 0.04044914 -0.05413599
v 0.01924761 0.03570691 -0.05413599
v 0.00000551 0.04035820 -0.05413599
v 0.00000551 -0.00000757 -0.05059612
v 0.04644991 -0.00000757 -0.04499149
v 0.02624639 0.03092376 -0.05413599
v 0.03974274 0.01911138 -0.05159618
v 0.03828011 0.01840664 -0.05305856
v 0.03655775 0.01757914 -0.05413599
v 0.03210149 0.02479024 -0.05413599
v 0.04197087 0.02018441 -0.04499149
v 0.04517409 0.01123192 -0.04499149
v 0.04525155 0.01101368 -0.04609146
v 0.04490981 0.01093184 -0.04776050
v 0.04407597 0.01072723 -0.04981155
v 0.04284572 0.01043170 -0.05159618
v 0.01079986 0.03687087 -0.05476679
v 0.00289889 0.03830763 -0.05476679
v 0.00000551 0.03822579 -0.05476679
v 0.01823151 0.03382002 -0.05476679
v 0.00000551 -0.00000302 -0.05499599
v 0.00001007 -0.00000757 -0.05499599
v 0.04644535 -0.00000757 -0.04609146
v 0.04655471 0.00136554 -0.04499149
v 0.02485666 0.02929149 -0.05476679
v 0.03040648 0.02348078 -0.05476679
v 0.04126917 0.01004523 -0.05305856
v 0.03941468 0.00959510 -0.05413599
v 0.03462579 0.01665161 -0.05476679
v 0.04525155 0.01101368 -0.04499149
v 0.04655015 0.00136554 -0.04609146
v 0.04619930 0.00135645 -0.04776050
v 0.04534268 0.00132917 -0.04981155
v 0.04407597 0.00129279 -0.05159618
v 0.04245842 0.00124732 -0.05305856
v 0.00000551 0.00000152 -0.05499697
v 0.00004196 -0.00000757 -0.05499599
v 0.04609906 -0.00000757 -0.04776050
v 0.04054469 0.00118822 -0.05413599
v 0.03840313 0.00112911 -0.05476679
v 0.03732780 0.00908587 -0.05476679
v 0.04524244 -0.00000757 -0.04981155
v 0.04398029 -0.00000757 -0.05159618
v 0.04236273 -0.00000757 -0.05305856
v 0.04045356 -0.00000757 -0.05413599
v 0.03831656 -0.00000757 -0.05476679
v 0.04013916 -0.00000757 -0.05422904
f 1 2 3
f 1 3 4
f 1 4 9
f 1 9 18
f 1 18 27
f 1 27 41
f 1 41 59
f 1 59 78
f 1 78 84
f 1 84 66
f 1 66 65
f 1 65 50
f 1 50 49
f 1 49 48
f 1 48 47
f 1 47 46
f 1 46 32
f 1 32 21
f 1 21 13
f 1 13 12
f 1 12 10
f 1 10 5
f 1 5 2
f 2 5 6
f 2 6 3
f 3 7 8
f 3 8 9
f 3 9 4
f 3 6 7
f 5 10 6
f 6 11 7
f 6 10 12
f 6 12 13
f 6 13 14
f 6 14 15
f 6 15 11
f 7 11 16
f 7 16 17
f 7 17 8
f 8 17 26
f 8 26 25
f 8 25 39
f 8 39 38
f 8 38 57
f 8 57 73
f 8 73 90
f 8 90 75
f 8 75 58
f 8 58 40
f 8 40 27
f 8 27 18
f 8 18 9
f 11 19 16
f 11 15 20
f 11 20 19
f 13 21 22
f 13 22 14
f 14 22 23
f 14 23 15
f 15 23 20
f 16 19 24
f 16 24 25
f 16 25 26
f 16 26 17
f 19 28 24
f 19 20 28
f 20 29 28
f 20 23 30
f 20 30 31
f 20 31 29
f 21 32 22
f 22 32 33
f 22 33 23
f 23 33 34
f 23 34 35
f 23 35 30
f 24 28 36
f 24 36 37
f 24 37 38
f 24 38 39
f 24 39 25
f 27 40 41
f 28 29 36
f 29 31 42
f 29 42 43
f 29 43 36
f 30 35 31
f 31 35 44
f 31 44 45
f 31 45 42
f 32 46 33
f 33 46 47
f 33 47 48
f 33 48 49
f 33 49 50
f 33 50 51
f 33 51 52
f 33 52 34
f 34 52 53
f 34 53 35
f 35 53 44
f 36 54 55
f 36 55 37
f 36 43 56
f 36 56 54
f 37 55 38
f 38 55 57
f 40 58 76
f 40 76 91
f 40 91 100
f 40 100 101
f 40 101 99
f 40 99 98
f 40 98 97
f 40 97 96
f 40 96 92
f 40 92 77
f 40 77 59
f 40 59 41
f 42 60 56
f 42 56 43
f 42 45 60
f 44 53 61
f 44 61 45
f 45 61 62
f 45 62 63
f 45 63 64
f 45 64 60
f 50 65 51
f 51 65 66
f 51 66 67
f 51 67 52
f 52 67 68
f 52 68 53
f 53 68 69
f 53 69 70
f 53 70 61
f 54 56 71
f 54 71 55
f 55 72 73
f 55 73 57
f 55 71 72
f 56 60 74
f 56 74 71
f 58 75 76
f 59 77 85
f 59 85 78
f 60 79 74
f 60 64 80
f 60 80 79
f 61 70 62
f 62 70 81
f 62 81 82
f 62 82 63
f 63 83 80
f 63 80 64
f 63 82 83
f 66 84 67
f 67 84 78
f 67 78 85
f 67 85 86
f 67 86 68
f 68 86 87
f 68 87 69
f 69 87 70
f 70 87 88
f 70 88 89
f 70 89 81
f 71 74 90
f 71 90 72
f 72 90 73
f 74 79 90
f 75 90 76
f 76 90 91
f 77 92 85
f 79 80 90
f 80 83 90
f 81 89 82
f 82 93 94
f 82 94 95
f 82 95 83
f 82 89 93
f 83 95 90
f 85 92 86
f 86 92 87
f 87 96 97
f 87 97 88
f 87 92 96
f 88 97 89
f 89 97 98
f 89 98 99
f 89 99 93
f 90 95 94
f 90 94 100
f 90 100 91
f 93 99 101
f 93 101 94
f 94 101 100

