# https://github.com/mikedh/trimesh
v 0.03603136 -0.02079791 -0.04560461
v 0.04170302 -0.00000757 -0.04560461
v 0.04140797 -0.02079791 -0.04560461
v 0.03864692 -0.02079791 -0.01496633
v 0.04401123 -0.00000757 -0.01496633
v 0.04644956 -0.00000757 -0.04560461
v 0.04308303 -0.01768832 -0.04560461
v 0.04312708 -0.01770663 -0.01496633
v 0.04145817 -0.02079791 -0.01676576
v 0.04146124 -0.02079791 -0.01496633
v 0.04649771 -0.00000757 -0.01496633
v 0.04644648 -0.00005031 -0.04560461
v 0.04311274 -0.01758860 -0.04560461
v 0.04586661 -0.00835546 -0.01496633
v 0.04581949 -0.00834528 -0.04560461
f 1 2 6
f 1 6 12
f 1 12 15
f 1 15 13
f 1 13 7
f 1 7 3
f 1 3 9
f 1 9 10
f 1 10 4
f 1 4 5
f 1 5 2
f 2 5 11
f 2 11 6
f 3 7 8
f 3 8 9
f 4 10 8
f 4 8 14
f 4 14 11
f 4 11 5
f 6 11 12
f 7 13 8
f 8 10 9
f 8 13 14
f 11 14 15
f 11 15 12
f 13 15 14

