# https://github.com/mikedh/trimesh
v 0.00000551 0.04633915 -0.04494879
v 0.00000551 0.04212457 -0.04494879
v 0.00000551 0.04633461 -0.04609170
v -0.00622464 0.04615314 -0.04609170
v -0.00615188 0.04615768 -0.04494879
v 0.00000551 -0.00000757 -0.04964438
v -0.04222762 -0.00000757 -0.04494879
v 0.00000551 0.04598529 -0.04776083
v -0.00617917 0.04580382 -0.04776083
v -0.01556531 0.04352187 -0.04776083
v -0.01568355 0.04384851 -0.04609170
v -0.01557441 0.04388027 -0.04494879
v -0.00645657 0.04609870 -0.04494879
v -0.00622464 0.04615314 -0.04494879
v 0.00000551 -0.00000757 -0.05059648
v -0.04645229 -0.00000757 -0.04494879
v 0.00000551 0.04567679 -0.04850835
v -0.00606548 0.04495999 -0.04981159
v -0.01527882 0.04271434 -0.04981159
v -0.02382367 0.03860411 -0.04981159
v -0.02426933 0.03933451 -0.04776083
v -0.02445578 0.03963393 -0.04609170
v -0.01590184 0.04374870 -0.04494879
v -0.01568355 0.04385304 -0.04494879
v 0.00000096 -0.00000757 -0.05499602
v 0.00000551 -0.00000303 -0.05499602
v -0.04588385 0.00750971 -0.04494879
v -0.04644775 -0.00000757 -0.04609170
v 0.00000551 0.04513693 -0.04981159
v -0.00589267 0.04369880 -0.05159678
v -0.01485135 0.04152119 -0.05159678
v 0.00000551 0.04387573 -0.05159678
v -0.02315973 0.03752891 -0.05159678
v -0.03132714 0.03281077 -0.04981159
v -0.03191832 0.03342775 -0.04776083
v -0.03215933 0.03368181 -0.04609170
v -0.03207293 0.03375440 -0.04494879
v -0.02464678 0.03948876 -0.04494879
v -0.02445578 0.03963393 -0.04494879
v -0.01677951 0.04332679 -0.04494879
v -0.00000359 0.00000150 -0.05499700
v -0.00003542 -0.00000757 -0.05499602
v 0.00000551 0.00007409 -0.05499602
v -0.04582019 0.00834899 -0.04494879
v -0.04581564 0.00834899 -0.04609170
v -0.04614761 -0.00000757 -0.04752871
v -0.00567894 0.04209281 -0.05305837
v -0.01430564 0.03999687 -0.05305837
v 0.00000551 0.04226067 -0.05305837
v -0.02230934 0.03614976 -0.05305837
v -0.03045400 0.03188982 -0.05159678
v -0.03746633 0.02557930 -0.04981159
v -0.03817120 0.02606019 -0.04776083
v -0.03846224 0.02625980 -0.04609170
v -0.03302337 0.03267013 -0.04494879
v -0.03216388 0.03368181 -0.04494879
v -0.00026280 -0.00000757 -0.05499503
v -0.03831672 -0.00000757 -0.05476684
v -0.03779376 0.00688818 -0.05476684
v -0.03553817 0.01459600 -0.05476684
v -0.03172732 0.02166415 -0.05476684
v -0.02652947 0.02778413 -0.05476684
v -0.02017653 0.03269282 -0.05476684
v -0.01294138 0.03617245 -0.05476684
v -0.00513323 0.03807331 -0.05476684
v 0.00000551 0.03822303 -0.05476684
v -0.04578835 0.00845787 -0.04494879
v -0.04308256 0.01769002 -0.04609170
v -0.04547002 0.00828548 -0.04776083
v -0.04609759 -0.00000757 -0.04776083
v -0.00541972 0.04019648 -0.05413539
v -0.01365989 0.03819580 -0.05413539
v 0.00000551 0.04035980 -0.05413539
v -0.02130433 0.03452110 -0.05413539
v -0.02801197 0.02933567 -0.05413539
v -0.02933076 0.03071936 -0.05305837
v -0.03507887 0.02395063 -0.05305837
v -0.03641585 0.02486251 -0.05159678
v -0.04079059 0.01675092 -0.05159678
v -0.04196386 0.01723181 -0.04981159
v -0.04275513 0.01755845 -0.04776083
v -0.04302799 0.01779436 -0.04494879
v -0.03903978 0.02518915 -0.04494879
v -0.03846224 0.02625980 -0.04494879
v -0.04045862 -0.00000757 -0.05413539
v -0.03990837 0.00726926 -0.05413539
v -0.03752090 0.01540806 -0.05413539
v -0.03350086 0.02287544 -0.05413539
v 0.00000551 0.03896704 -0.05454751
v -0.04315077 0.01746318 -0.04494879
v -0.04308256 0.01769002 -0.04494879
v -0.04462873 0.00813123 -0.04981159
v -0.04524265 -0.00000757 -0.04981159
v -0.03929445 0.01613847 -0.05305837
v -0.04338270 0.00790440 -0.05159678
v -0.04236405 -0.00000757 -0.05305837
v -0.04178651 0.00761405 -0.05305837
v -0.04506529 -0.00000757 -0.05006633
v -0.04374650 -0.00000757 -0.05180726
v -0.04397843 -0.00000757 -0.05159678
f 1 2 6
f 1 6 15
f 1 15 26
f 1 26 43
f 1 43 66
f 1 66 89
f 1 89 73
f 1 73 49
f 1 49 32
f 1 32 29
f 1 29 17
f 1 17 8
f 1 8 3
f 1 3 4
f 1 4 5
f 1 5 14
f 1 14 13
f 1 13 12
f 1 12 24
f 1 24 23
f 1 23 40
f 1 40 39
f 1 39 38
f 1 38 37
f 1 37 56
f 1 56 55
f 1 55 84
f 1 84 83
f 1 83 82
f 1 82 91
f 1 91 90
f 1 90 67
f 1 67 44
f 1 44 27
f 1 27 16
f 1 16 7
f 1 7 2
f 2 7 6
f 3 8 4
f 4 9 10
f 4 10 11
f 4 11 12
f 4 12 13
f 4 13 14
f 4 14 5
f 4 8 9
f 6 7 16
f 6 16 28
f 6 28 46
f 6 46 70
f 6 70 93
f 6 93 98
f 6 98 100
f 6 100 99
f 6 99 96
f 6 96 85
f 6 85 58
f 6 58 57
f 6 57 42
f 6 42 25
f 6 25 15
f 8 17 9
f 9 18 10
f 9 17 18
f 10 19 20
f 10 20 21
f 10 21 22
f 10 22 11
f 10 18 19
f 11 23 24
f 11 24 12
f 11 22 23
f 15 25 26
f 16 27 28
f 17 29 18
f 18 30 31
f 18 31 19
f 18 29 32
f 18 32 30
f 19 31 33
f 19 33 20
f 20 33 34
f 20 34 21
f 21 34 35
f 21 35 22
f 22 35 36
f 22 36 37
f 22 37 38
f 22 38 39
f 22 39 40
f 22 40 23
f 25 41 26
f 25 42 41
f 26 41 43
f 27 44 45
f 27 45 28
f 28 45 46
f 30 47 48
f 30 48 31
f 30 32 47
f 31 48 33
f 32 49 47
f 33 48 50
f 33 50 51
f 33 51 34
f 34 51 52
f 34 52 35
f 35 52 53
f 35 53 54
f 35 54 36
f 36 55 56
f 36 56 37
f 36 54 55
f 41 42 57
f 41 57 58
f 41 58 59
f 41 59 60
f 41 60 61
f 41 61 62
f 41 62 63
f 41 63 64
f 41 64 65
f 41 65 66
f 41 66 43
f 44 67 45
f 45 67 68
f 45 68 69
f 45 69 46
f 46 69 70
f 47 71 72
f 47 72 48
f 47 49 73
f 47 73 71
f 48 72 50
f 50 72 74
f 50 74 75
f 50 75 76
f 50 76 51
f 51 76 77
f 51 77 78
f 51 78 52
f 52 78 79
f 52 79 80
f 52 80 81
f 52 81 53
f 53 81 54
f 54 81 68
f 54 68 82
f 54 82 83
f 54 83 84
f 54 84 55
f 58 85 86
f 58 86 59
f 59 86 60
f 60 86 87
f 60 87 88
f 60 88 61
f 61 88 62
f 62 88 75
f 62 75 74
f 62 74 63
f 63 74 64
f 64 74 72
f 64 72 65
f 65 72 71
f 65 71 73
f 65 73 89
f 65 89 66
f 67 90 68
f 68 90 91
f 68 91 82
f 68 81 69
f 69 81 92
f 69 92 70
f 70 92 93
f 75 88 76
f 76 88 77
f 77 88 94
f 77 94 78
f 78 94 79
f 79 94 95
f 79 95 80
f 80 95 92
f 80 92 81
f 85 96 86
f 86 96 97
f 86 97 94
f 86 94 87
f 87 94 88
f 92 95 98
f 92 98 93
f 94 97 95
f 95 99 100
f 95 100 98
f 95 97 96
f 95 96 99

