# https://github.com/mikedh/trimesh
v 0.00227474 -0.00001211 -0.04961243
v 0.00227474 -0.04185066 -0.04524890
v 0.00227474 -0.00001211 -0.05498264
v -0.04201841 -0.00001211 -0.04524890
v 0.00227474 -0.04626859 -0.04524890
v 0.00227474 -0.00041664 -0.05498264
v -0.00000038 -0.00001211 -0.05499695
v -0.04644916 -0.00001211 -0.04524890
v 0.00222217 -0.04627314 -0.04524890
v 0.00227474 -0.04626859 -0.04609145
v 0.00227474 -0.00093479 -0.05498169
v 0.00227474 -0.00155748 -0.05497978
v 0.00227474 -0.00238925 -0.05497692
v 0.00227474 -0.00369372 -0.05497024
v 0.00227474 -0.00636630 -0.05495593
v 0.00227474 -0.01687480 -0.05489486
v 0.00227474 -0.03815542 -0.05476699
v -0.00289685 -0.03830995 -0.05476699
v -0.01080242 -0.03686912 -0.05476699
v -0.01823002 -0.03381929 -0.05476699
v -0.02485941 -0.02928773 -0.05476699
v -0.03040382 -0.02347897 -0.05476699
v -0.03462427 -0.01665208 -0.05476699
v -0.03732956 -0.00908887 -0.05476699
v -0.03840020 -0.00112569 -0.05476699
v -0.03831895 -0.00001211 -0.05476699
v -0.04644916 -0.00001211 -0.04609145
v -0.04655431 -0.00136658 -0.04524890
v -0.00351343 -0.04644131 -0.04524890
v 0.00227474 -0.04605951 -0.04708859
v -0.00351343 -0.04643676 -0.04609145
v -0.00348475 -0.04608678 -0.04776034
v 0.00227474 -0.04029166 -0.05413531
v -0.00305936 -0.04044619 -0.05413531
v -0.01140466 -0.03892810 -0.05413531
v -0.01924809 -0.03570555 -0.05413531
v -0.02624552 -0.03092400 -0.05413531
v -0.03210538 -0.02479253 -0.05413531
v -0.03655525 -0.01757930 -0.05413531
v -0.03941349 -0.00959339 -0.05413531
v -0.04054627 -0.00118932 -0.05413531
v -0.04014478 -0.00001211 -0.05422787
v -0.04654953 -0.00136658 -0.04609145
v -0.04610024 -0.00001211 -0.04776034
v -0.04620062 -0.00135749 -0.04776034
v -0.04526380 -0.01092968 -0.04524890
v -0.04524946 -0.01101604 -0.04609145
v -0.01209771 -0.04487776 -0.04524890
v -0.01309188 -0.04469595 -0.04609145
v 0.00227474 -0.04591861 -0.04776034
v -0.01299151 -0.04435507 -0.04776034
v -0.00342262 -0.04523683 -0.04981186
v 0.00227474 -0.04145523 -0.05347788
v -0.00320275 -0.04235518 -0.05305898
v -0.01193998 -0.04076436 -0.05305898
v -0.02015622 -0.03739182 -0.05305898
v -0.02748345 -0.03238301 -0.05305898
v -0.03361576 -0.02596065 -0.05305898
v -0.03828071 -0.01840653 -0.05305898
v -0.04127278 -0.01004791 -0.05305898
v -0.04245814 -0.00124841 -0.05305898
v -0.04071356 -0.00001211 -0.05399123
v -0.04045546 -0.00001211 -0.05413531
v -0.04524468 -0.00001211 -0.04981186
v -0.04534506 -0.00133022 -0.04981186
v -0.04407844 -0.01072969 -0.04981186
v -0.04491011 -0.01093422 -0.04776034
v -0.04524946 -0.01101604 -0.04524890
v -0.04197061 -0.02018370 -0.04609145
v -0.04491011 -0.01196598 -0.04524890
v -0.01309188 -0.04469595 -0.04524890
v -0.02192948 -0.04068709 -0.04776034
v -0.02116473 -0.04138251 -0.04524890
v -0.02209677 -0.04099616 -0.04609145
v 0.00227474 -0.04506866 -0.04981186
v -0.01275252 -0.04353693 -0.04981186
v -0.01239405 -0.04231882 -0.05159620
v -0.00332702 -0.04396872 -0.05159620
v 0.00227474 -0.04380510 -0.05159620
v 0.00227474 -0.04455960 -0.05053132
v 0.00227474 -0.04219609 -0.05305898
v -0.02092575 -0.03881901 -0.05159620
v -0.02853498 -0.03361931 -0.05159620
v -0.03490149 -0.02695150 -0.05159620
v -0.03974329 -0.01911103 -0.05159620
v -0.04284529 -0.01042971 -0.05159620
v -0.04407844 -0.00129386 -0.05159620
v -0.04236255 -0.00001211 -0.05305898
v -0.04398285 -0.00001211 -0.05159620
v -0.04088563 -0.01966100 -0.04981186
v -0.04165516 -0.02002916 -0.04776034
v -0.04197061 -0.02018370 -0.04524890
v -0.03657915 -0.02825143 -0.04776034
v -0.03685637 -0.02846505 -0.04609145
v -0.03690417 -0.02839233 -0.04524890
v -0.02152321 -0.03993259 -0.04981186
v -0.03013616 -0.03550556 -0.04609145
v -0.02990674 -0.03523740 -0.04776034
v -0.02935230 -0.03458743 -0.04981186
v -0.02190080 -0.04107798 -0.04524890
v -0.02216368 -0.04095071 -0.04524890
v -0.02995932 -0.03562828 -0.04524890
v -0.02209677 -0.04099616 -0.04524890
v -0.03590522 -0.02772873 -0.04981186
v -0.03671298 -0.02861959 -0.04524890
v -0.03685637 -0.02846505 -0.04524890
v -0.03013616 -0.03550556 -0.04524890
v -0.03019352 -0.03544648 -0.04524890
f 1 2 5
f 1 5 10
f 1 10 30
f 1 30 50
f 1 50 75
f 1 75 80
f 1 80 79
f 1 79 81
f 1 81 53
f 1 53 33
f 1 33 17
f 1 17 16
f 1 16 15
f 1 15 14
f 1 14 13
f 1 13 12
f 1 12 11
f 1 11 6
f 1 6 3
f 1 3 7
f 1 7 26
f 1 26 42
f 1 42 63
f 1 63 62
f 1 62 88
f 1 88 89
f 1 89 64
f 1 64 44
f 1 44 27
f 1 27 8
f 1 8 4
f 1 4 2
f 2 4 8
f 2 8 28
f 2 28 46
f 2 46 68
f 2 68 70
f 2 70 92
f 2 92 95
f 2 95 106
f 2 106 105
f 2 105 108
f 2 108 107
f 2 107 102
f 2 102 101
f 2 101 103
f 2 103 100
f 2 100 73
f 2 73 71
f 2 71 48
f 2 48 29
f 2 29 9
f 2 9 5
f 3 6 7
f 5 9 10
f 6 11 7
f 7 11 12
f 7 12 13
f 7 13 14
f 7 14 15
f 7 15 16
f 7 16 17
f 7 17 18
f 7 18 19
f 7 19 20
f 7 20 21
f 7 21 22
f 7 22 23
f 7 23 24
f 7 24 25
f 7 25 26
f 8 27 28
f 9 29 10
f 10 29 31
f 10 31 32
f 10 32 30
f 17 33 18
f 18 34 35
f 18 35 19
f 18 33 34
f 19 35 20
f 20 35 36
f 20 36 37
f 20 37 21
f 21 37 38
f 21 38 22
f 22 38 23
f 23 39 40
f 23 40 24
f 23 38 39
f 24 40 41
f 24 41 25
f 25 41 26
f 26 41 42
f 27 43 28
f 27 44 45
f 27 45 43
f 28 43 47
f 28 47 46
f 29 48 49
f 29 49 31
f 30 32 50
f 31 49 32
f 32 49 51
f 32 51 52
f 32 52 50
f 33 53 34
f 34 54 35
f 34 53 54
f 35 55 56
f 35 56 36
f 35 54 55
f 36 56 37
f 37 57 38
f 37 56 57
f 38 57 58
f 38 58 59
f 38 59 39
f 39 59 60
f 39 60 40
f 40 60 41
f 41 60 61
f 41 61 62
f 41 62 63
f 41 63 42
f 43 45 47
f 44 64 65
f 44 65 45
f 45 65 66
f 45 66 67
f 45 67 47
f 46 47 68
f 47 67 69
f 47 69 70
f 47 70 68
f 48 71 49
f 49 72 51
f 49 71 73
f 49 73 74
f 49 74 72
f 50 52 75
f 51 72 76
f 51 76 52
f 52 76 77
f 52 77 78
f 52 78 79
f 52 79 80
f 52 80 75
f 53 81 54
f 54 78 77
f 54 77 55
f 54 81 78
f 55 77 82
f 55 82 56
f 56 82 83
f 56 83 57
f 57 83 58
f 58 83 84
f 58 84 85
f 58 85 59
f 59 85 60
f 60 86 87
f 60 87 61
f 60 85 86
f 61 88 62
f 61 87 89
f 61 89 88
f 64 89 65
f 65 89 87
f 65 87 66
f 66 87 86
f 66 86 85
f 66 85 90
f 66 90 67
f 67 90 91
f 67 91 69
f 69 92 70
f 69 91 93
f 69 93 94
f 69 94 95
f 69 95 92
f 72 96 76
f 72 74 97
f 72 97 98
f 72 98 99
f 72 99 96
f 73 100 74
f 74 101 102
f 74 102 97
f 74 100 103
f 74 103 101
f 76 96 82
f 76 82 77
f 78 81 79
f 82 96 99
f 82 99 83
f 83 99 104
f 83 104 84
f 84 104 85
f 85 104 90
f 90 104 91
f 91 104 93
f 93 104 98
f 93 98 97
f 93 97 94
f 94 97 105
f 94 105 106
f 94 106 95
f 97 102 107
f 97 107 108
f 97 108 105
f 98 104 99

