# https://github.com/mikedh/trimesh
v 0.02064985 -0.02761346 -0.02665477
v 0.02064985 -0.02647858 -0.03806758
v 0.02144881 -0.02631646 -0.03806758
v 0.02219418 -0.02730001 -0.02665477
v 0.02742683 -0.02363057 -0.00415448
v 0.02335997 -0.02363057 -0.00415448
v 0.02323267 -0.02363057 -0.00481841
v 0.02284910 -0.02363057 -0.00682345
v 0.02216403 -0.02363057 -0.01108582
v 0.02060797 -0.02268754 -0.02665145
v 0.02064985 -0.02081499 -0.03806758
v 0.02191614 -0.02610839 -0.03806758
v 0.02274860 -0.02708655 -0.02665477
v 0.02225281 -0.02728651 -0.02665477
v 0.03761743 -0.00682085 -0.00415448
v 0.02302497 -0.02663800 -0.02665477
v 0.03334287 -0.00004940 -0.00415448
v 0.03297605 -0.00004940 -0.00685664
v 0.03249868 -0.00001157 -0.01108582
v 0.03072655 -0.00001157 -0.02665145
v 0.02942844 -0.00004129 -0.03806758
v 0.02219921 -0.02568416 -0.03806758
v 0.03771793 -0.00663170 -0.00415448
v 0.03334455 -0.00638041 -0.03806758
v 0.03610492 -0.00004940 -0.00415448
v 0.03514516 -0.00001157 -0.01108582
v 0.03325243 -0.00001157 -0.02665145
v 0.03204979 -0.00004129 -0.03806758
v 0.03768778 -0.00642094 -0.00415448
v 0.03357067 -0.00591835 -0.03806758
v 0.03351372 -0.00541306 -0.03806758
v 0.03746669 -0.00542116 -0.00415448
f 1 2 3
f 1 3 4
f 1 4 5
f 1 5 6
f 1 6 7
f 1 7 8
f 1 8 9
f 1 9 10
f 1 10 2
f 2 11 21
f 2 21 28
f 2 28 31
f 2 31 30
f 2 30 24
f 2 24 22
f 2 22 12
f 2 12 3
f 2 10 11
f 3 12 13
f 3 13 14
f 3 14 4
f 4 14 5
f 5 15 23
f 5 23 29
f 5 29 32
f 5 32 25
f 5 25 17
f 5 17 6
f 5 14 13
f 5 13 16
f 5 16 15
f 6 17 7
f 7 17 8
f 8 17 9
f 9 17 18
f 9 18 10
f 10 18 19
f 10 19 20
f 10 20 21
f 10 21 11
f 12 22 13
f 13 22 16
f 15 16 22
f 15 22 24
f 15 24 23
f 17 19 18
f 17 25 26
f 17 26 19
f 19 26 27
f 19 27 20
f 20 27 28
f 20 28 21
f 23 24 30
f 23 30 31
f 23 31 29
f 25 32 31
f 25 31 28
f 25 28 26
f 26 28 27
f 29 31 32

