# https://github.com/mikedh/trimesh
v 0.03597993 0.02941571 0.05119123
v 0.03562877 0.02990560 0.05119123
v 0.03515933 0.02941571 0.05314577
v 0.02588504 0.02235257 0.00239206
v 0.02721945 0.02237071 -0.01108694
v 0.03231679 0.02636495 0.01360306
v 0.03180668 0.02636495 0.00954645
v 0.03164774 0.02660342 0.00962020
v 0.02989934 0.03564424 0.05119123
v 0.03511497 0.02947274 0.05314577
v 0.03239072 0.02941571 0.05314577
v -0.00177516 0.03319482 -0.00415383
v -0.00177516 0.03283194 -0.00681828
v -0.00177516 0.03234724 -0.01108694
v 0.02094295 0.02004830 -0.04102287
v 0.02465044 0.02237071 -0.02451985
v 0.03162556 0.02636495 0.00840322
v 0.03152576 0.02651529 0.00846776
v 0.02654670 0.03165000 0.00972162
v 0.02325690 0.04028648 0.05119123
v 0.02946686 0.03512584 0.05314577
v 0.02068790 0.03578939 0.00962020
v 0.00001390 0.04387378 0.05314577
v -0.00177516 0.03552242 -0.00415383
v -0.00177516 0.03459708 -0.01108694
v 0.00001020 0.02909690 -0.04102287
v 0.02094295 0.02304722 -0.04102287
v 0.02421427 0.02237071 -0.02664957
v 0.02061766 0.03565720 0.00846776
v 0.01195699 0.03142450 -0.04102287
v 0.01155038 0.03172258 -0.04102287
v 0.01591953 0.04371825 0.05119123
v 0.01569036 0.04308581 0.05314577
v 0.02291683 0.03970328 0.05314577
v 0.01402697 0.03858354 0.00504730
v 0.00001390 0.04585145 0.05314577
v 0.00001390 0.04652537 0.05119123
v 0.00001390 0.04173798 0.01361228
v 0.00001020 0.03106940 -0.04102287
v 0.01104397 0.03175886 -0.04102287
v 0.00206171 0.04109258 0.00936206
v 0.00711469 0.04057418 0.00846776
v 0.00808315 0.04581258 0.05119123
v 0.00796856 0.04515162 0.05314577
v 0.00715535 0.04071674 0.00962020
v 0.00206171 0.04113664 0.00969396
f 1 2 3
f 1 3 4
f 1 4 5
f 1 5 6
f 1 6 7
f 1 7 8
f 1 8 2
f 2 9 10
f 2 10 3
f 2 8 9
f 3 10 21
f 3 21 34
f 3 34 33
f 3 33 44
f 3 44 36
f 3 36 23
f 3 23 11
f 3 11 4
f 4 12 13
f 4 13 14
f 4 14 15
f 4 15 5
f 4 11 12
f 5 15 16
f 5 16 17
f 5 17 7
f 5 7 6
f 7 17 8
f 8 17 18
f 8 18 19
f 8 19 9
f 9 20 21
f 9 21 10
f 9 19 22
f 9 22 20
f 11 23 12
f 12 24 25
f 12 25 14
f 12 14 13
f 12 23 36
f 12 36 24
f 14 25 39
f 14 39 26
f 14 26 15
f 15 26 39
f 15 39 40
f 15 40 31
f 15 31 30
f 15 30 27
f 15 27 28
f 15 28 16
f 16 28 17
f 17 28 27
f 17 27 18
f 18 27 19
f 19 29 22
f 19 27 30
f 19 30 31
f 19 31 29
f 20 32 33
f 20 33 34
f 20 34 21
f 20 22 35
f 20 35 32
f 22 29 35
f 24 36 37
f 24 37 38
f 24 38 25
f 25 38 39
f 29 31 35
f 31 40 41
f 31 41 42
f 31 42 35
f 32 43 44
f 32 44 33
f 32 35 43
f 35 42 45
f 35 45 43
f 36 44 37
f 37 44 43
f 37 43 45
f 37 45 46
f 37 46 38
f 38 46 41
f 38 41 39
f 39 41 40
f 41 46 42
f 42 46 45

