# https://github.com/mikedh/trimesh
v -0.03355950 -0.00592574 -0.03817138
v -0.03177955 -0.00600707 -0.05291444
v -0.03333194 -0.00638119 -0.03817138
v -0.03350339 -0.00541498 -0.03817138
v -0.03191982 -0.00521979 -0.05291444
v -0.03216297 -0.00566548 -0.05087849
v -0.03196346 -0.00611768 -0.05087849
v -0.03193229 -0.00562644 -0.05291444
v -0.03009624 -0.00575982 -0.05315353
v -0.02931692 -0.00711317 -0.05315353
v -0.02746216 -0.01032737 -0.05315353
v -0.02506811 -0.01447524 -0.05315353
v -0.02109674 -0.02451473 -0.05291444
v -0.02128377 -0.02461883 -0.05087849
v -0.02218466 -0.02568264 -0.03817138
v -0.03212868 -0.00517749 -0.05087849
v -0.03203828 -0.00004063 -0.03817138
v -0.03025210 -0.00487820 -0.05315353
v -0.03069163 -0.00004063 -0.05087849
v -0.03048589 -0.00004063 -0.05274869
v -0.03046718 -0.00004063 -0.05291444
v -0.02939797 -0.00004063 -0.05315353
v -0.03025210 -0.00533040 -0.05315353
v -0.02463170 -0.00896751 -0.05315500
v -0.02270524 -0.01311214 -0.05315500
v -0.02003999 -0.02318090 -0.05315353
v -0.02084736 -0.02483680 -0.05291444
v -0.02099699 -0.02501247 -0.05087849
v -0.02190099 -0.02610881 -0.03817138
v -0.02941667 -0.00004063 -0.03817138
v -0.02620903 -0.00004063 -0.05315500
v -0.02581937 -0.00455613 -0.05315500
v -0.02008052 -0.01685010 -0.05315500
v -0.01975009 -0.02352900 -0.05315353
v -0.01935420 -0.02375672 -0.05315353
v -0.02048264 -0.02502874 -0.05291444
v -0.02143340 -0.02631377 -0.03817138
v -0.00171369 -0.00004063 -0.04367491
v -0.00171369 -0.02927096 -0.03817138
v -0.00171369 -0.00004063 -0.05200794
v -0.00171369 -0.02606652 -0.05315500
v -0.01685416 -0.02008382 -0.05315500
v -0.01311035 -0.02270267 -0.05315500
v -0.00896752 -0.02463510 -0.05315500
v -0.01788909 -0.02429351 -0.05315353
v -0.02055434 -0.02523044 -0.05087849
v -0.00990270 -0.02720190 -0.05315353
v -0.00171369 -0.03018186 -0.05315353
v -0.00171369 -0.03164582 -0.05291444
v -0.00171369 -0.03188005 -0.05087849
v -0.00171369 -0.03327244 -0.03817138
v -0.00455350 -0.02581602 -0.05315500
f 1 2 3
f 1 3 15
f 1 15 29
f 1 29 37
f 1 37 51
f 1 51 39
f 1 39 30
f 1 30 17
f 1 17 4
f 1 4 5
f 1 5 6
f 1 6 2
f 2 7 3
f 2 6 8
f 2 8 9
f 2 9 10
f 2 10 11
f 2 11 12
f 2 12 13
f 2 13 7
f 3 7 14
f 3 14 15
f 4 16 5
f 4 17 16
f 5 18 8
f 5 8 6
f 5 16 19
f 5 19 20
f 5 20 21
f 5 21 22
f 5 22 18
f 7 13 14
f 8 18 23
f 8 23 9
f 9 23 24
f 9 24 25
f 9 25 10
f 10 25 11
f 11 25 12
f 12 25 26
f 12 26 13
f 13 26 27
f 13 27 28
f 13 28 29
f 13 29 15
f 13 15 14
f 16 17 19
f 17 30 38
f 17 38 40
f 17 40 31
f 17 31 22
f 17 22 21
f 17 21 20
f 17 20 19
f 18 22 31
f 18 31 23
f 23 31 32
f 23 32 24
f 24 32 31
f 24 31 41
f 24 41 52
f 24 52 44
f 24 44 43
f 24 43 42
f 24 42 33
f 24 33 25
f 25 33 26
f 26 33 34
f 26 34 27
f 27 34 35
f 27 35 36
f 27 36 28
f 28 36 29
f 29 36 37
f 30 39 38
f 31 40 41
f 33 42 34
f 34 42 43
f 34 43 35
f 35 43 44
f 35 44 45
f 35 45 36
f 36 46 37
f 36 45 47
f 36 47 48
f 36 48 49
f 36 49 50
f 36 50 46
f 37 46 50
f 37 50 51
f 38 39 51
f 38 51 50
f 38 50 49
f 38 49 48
f 38 48 41
f 38 41 40
f 41 48 52
f 44 52 48
f 44 48 47
f 44 47 45

