# https://github.com/mikedh/trimesh
v 0.00205737 0.04156151 0.01361302
v 0.00205737 0.03927267 0.01361302
v 0.00205737 0.04122680 0.01042760
v 0.00000640 0.04652400 0.05119206
v 0.00000640 0.04585058 0.05315002
v 0.00205737 0.03704997 0.00841497
v 0.00000640 0.04387239 0.05315002
v 0.00202750 0.03418792 0.00328152
v 0.00205737 0.04113661 0.00970206
v -0.00000355 0.04652400 0.05119206
v -0.00000687 0.04130296 0.00973188
v -0.00000355 0.04585058 0.05315002
v -0.00000355 0.04387239 0.05315499
v 0.00205737 0.04048724 0.00841497
v 0.00202750 0.03410575 0.00269513
v 0.00202750 0.03406567 0.00239199
v -0.02944383 0.03237008 0.05315499
v -0.02236502 0.02605072 0.00328152
v 0.00205737 0.04109452 0.00936911
v -0.00808461 0.04581049 0.05119206
v -0.00715869 0.04071773 0.00962752
v -0.00001019 0.04105845 0.00924984
v -0.00723502 0.04053334 0.00841000
v -0.00712882 0.04056941 0.00847957
v -0.00796514 0.04514709 0.05315002
v -0.00761999 0.04319897 0.05315499
v 0.00205737 0.04051330 0.00844479
v 0.00202750 0.03692371 0.00239199
v -0.02219909 0.02605072 0.00242677
v -0.02219245 0.02605072 0.00239199
v -0.02819932 0.03361471 0.05315499
v -0.02944383 0.03514795 0.05315002
v -0.03184658 0.02605072 0.00841000
v -0.02944383 0.02613690 0.01361799
v -0.02640058 0.02605072 0.00841000
v 0.00205737 0.04091815 0.00902621
v -0.01591013 0.04371606 0.05119206
v -0.01567782 0.04308674 0.05315002
v -0.01405829 0.03857520 0.00504568
v -0.00726489 0.04053133 0.00841000
v -0.01341778 0.03738869 0.00239199
v -0.01500081 0.04122680 0.05315499
v 0.00205737 0.04083397 0.00888210
v -0.01270094 0.03738067 0.00239199
v -0.02641385 0.02605072 0.00239199
v -0.02193359 0.03798996 0.05315499
v -0.02292257 0.03970358 0.05315002
v -0.02944383 0.03596768 0.05119206
v -0.03183994 0.02605072 0.00821619
v -0.02325444 0.04028481 0.05119206
v -0.01379611 0.03726042 0.00239199
v -0.01450300 0.03799998 0.00458849
v -0.02052646 0.03569511 0.00841000
v -0.02050323 0.03571114 0.00841000
v -0.02050323 0.03571315 0.00841497
v -0.02069571 0.03578931 0.00962752
v -0.03147156 0.02605072 0.00779379
v -0.01433043 0.03680345 0.00239199
v -0.02620477 0.03188104 0.00965733
v -0.02682869 0.03197725 0.01361799
v -0.03161427 0.02638543 0.00841000
v -0.03180343 0.02605072 0.00816650
v -0.02620477 0.03158241 0.00921008
v -0.02062934 0.03565502 0.00847957
v -0.03159436 0.02640347 0.00841000
f 1 2 6
f 1 6 14
f 1 14 27
f 1 27 43
f 1 43 36
f 1 36 19
f 1 19 9
f 1 9 3
f 1 3 4
f 1 4 5
f 1 5 7
f 1 7 2
f 2 7 8
f 2 8 6
f 3 9 4
f 4 10 12
f 4 12 5
f 4 9 11
f 4 11 10
f 5 12 13
f 5 13 7
f 6 8 15
f 6 15 16
f 6 16 28
f 6 28 14
f 7 13 17
f 7 17 8
f 8 18 15
f 8 17 18
f 9 19 11
f 10 20 12
f 10 11 21
f 10 21 20
f 11 19 22
f 11 22 23
f 11 23 24
f 11 24 21
f 12 20 25
f 12 25 13
f 13 26 42
f 13 42 46
f 13 46 31
f 13 31 17
f 13 25 26
f 14 28 27
f 15 18 16
f 16 18 29
f 16 29 30
f 16 30 45
f 16 45 58
f 16 58 51
f 16 51 41
f 16 41 44
f 16 44 28
f 17 31 32
f 17 32 33
f 17 33 34
f 17 34 18
f 18 34 35
f 18 35 33
f 18 33 49
f 18 49 62
f 18 62 57
f 18 57 45
f 18 45 30
f 18 30 29
f 19 36 22
f 20 37 38
f 20 38 25
f 20 21 39
f 20 39 37
f 21 24 40
f 21 40 39
f 22 36 41
f 22 41 23
f 23 41 39
f 23 39 40
f 23 40 24
f 25 38 26
f 26 38 42
f 27 28 43
f 28 44 43
f 31 46 47
f 31 47 32
f 32 47 48
f 32 48 33
f 33 48 49
f 33 35 34
f 36 43 44
f 36 44 41
f 37 50 47
f 37 47 38
f 37 39 50
f 38 47 46
f 38 46 42
f 39 41 51
f 39 51 52
f 39 52 53
f 39 53 54
f 39 54 55
f 39 55 56
f 39 56 50
f 45 57 58
f 47 50 48
f 48 50 56
f 48 56 59
f 48 59 60
f 48 60 61
f 48 61 49
f 49 61 62
f 51 53 52
f 51 58 62
f 51 62 63
f 51 63 59
f 51 59 53
f 53 59 64
f 53 64 54
f 54 64 55
f 55 64 56
f 56 64 59
f 57 62 58
f 59 63 65
f 59 65 61
f 59 61 60
f 61 65 62
f 62 65 63

