# https://github.com/mikedh/trimesh
v 0.02702536 -0.03183623 0.01361215
v 0.02702536 -0.03108698 0.00852975
v 0.03598310 -0.02941313 0.05119159
v 0.03516583 -0.02941313 0.05314939
v 0.03239632 -0.02941313 0.05315499
v 0.02425125 -0.03090843 0.00238712
v 0.02471859 -0.03078409 0.00238712
v 0.02702536 -0.03106785 0.00841195
v 0.02819947 -0.02988499 0.00841195
v 0.03169646 -0.02654685 0.00962925
v 0.04029276 -0.02325973 0.05119159
v 0.03970801 -0.02292496 0.05314939
v 0.03361187 -0.02819839 0.05315499
v 0.04320731 -0.00762436 0.05315499
v 0.04387033 -0.00000754 0.05314939
v 0.02317844 -0.02523966 0.00328467
v 0.02300347 -0.02523966 0.00238712
v 0.02425125 -0.02945776 -0.00415381
v 0.02444003 -0.02940037 -0.00415381
v 0.02539773 -0.03054178 0.00238712
v 0.02464262 -0.02931748 -0.00415381
v 0.03148697 -0.02654048 0.00841195
v 0.03159056 -0.02644483 0.00847926
v 0.03577591 -0.02064533 0.00973023
v 0.04371379 -0.01591072 0.05119159
v 0.04308069 -0.01568117 0.05314939
v 0.03883779 -0.01416992 0.00962925
v 0.04122514 -0.01500844 0.05315499
v 0.03799290 -0.02193340 0.05315499
v 0.04515495 -0.00796870 0.05314939
v 0.04584560 -0.00000754 0.05314939
v 0.03417590 0.00073533 0.00238712
v 0.03413676 0.00073533 0.00210102
v 0.03328496 0.00073533 -0.00415381
v 0.02425125 -0.02273685 -0.00415381
v 0.02475312 -0.02913574 -0.00415381
v 0.03869506 -0.01412209 0.00847926
v 0.03761765 -0.00682091 -0.00415381
v 0.03771894 -0.00662962 -0.00415381
v 0.04581797 -0.00808348 0.05119159
v 0.04043320 -0.00712061 0.00504612
v 0.03873189 -0.01398500 0.00841195
v 0.04652244 -0.00000754 0.05119159
v 0.03739434 0.00073533 0.00238712
v 0.03594627 0.00073533 -0.00415381
v 0.03768901 -0.00642238 -0.00415381
v 0.04118601 -0.00001392 0.00845121
v 0.04117910 -0.00010319 0.00841195
v 0.04133795 -0.00001392 0.00964047
v 0.04116298 0.00000202 0.00841195
v 0.03746800 -0.00542125 -0.00415381
f 1 2 3
f 1 3 4
f 1 4 5
f 1 5 6
f 1 6 2
f 2 6 7
f 2 7 8
f 2 8 3
f 3 8 9
f 3 9 10
f 3 10 11
f 3 11 4
f 4 11 12
f 4 12 13
f 4 13 5
f 5 13 29
f 5 29 28
f 5 28 14
f 5 14 15
f 5 15 16
f 5 16 17
f 5 17 6
f 6 17 18
f 6 18 7
f 7 18 19
f 7 19 20
f 7 20 8
f 8 20 21
f 8 21 9
f 9 22 10
f 9 21 22
f 10 23 24
f 10 24 11
f 10 22 23
f 11 25 26
f 11 26 12
f 11 24 27
f 11 27 25
f 12 26 28
f 12 28 29
f 12 29 13
f 14 28 30
f 14 30 31
f 14 31 15
f 15 32 16
f 15 31 44
f 15 44 32
f 16 32 17
f 17 32 33
f 17 33 34
f 17 34 35
f 17 35 18
f 18 35 34
f 18 34 45
f 18 45 51
f 18 51 46
f 18 46 39
f 18 39 38
f 18 38 36
f 18 36 21
f 18 21 19
f 19 21 20
f 21 36 24
f 21 24 23
f 21 23 22
f 24 37 27
f 24 36 38
f 24 38 39
f 24 39 37
f 25 40 30
f 25 30 26
f 25 27 41
f 25 41 40
f 26 30 28
f 27 37 42
f 27 42 41
f 30 40 43
f 30 43 31
f 31 43 44
f 32 44 45
f 32 45 34
f 32 34 33
f 37 39 42
f 39 46 47
f 39 47 48
f 39 48 41
f 39 41 42
f 40 41 43
f 41 48 49
f 41 49 43
f 43 49 50
f 43 50 44
f 44 50 45
f 45 50 47
f 45 47 51
f 46 51 47
f 47 50 49
f 47 49 48

