# https://github.com/mikedh/trimesh
v -0.02701977 -0.03183732 0.01360709
v -0.03236584 -0.02944651 0.05315499
v -0.03514108 -0.02944651 0.05314605
v -0.03596115 -0.02944651 0.05118833
v -0.02701977 -0.03183109 0.01355345
v -0.02195268 -0.02615797 -0.03749052
v -0.02195268 -0.02694036 -0.03073233
v -0.02328739 -0.02977069 -0.00415550
v -0.04386601 0.00000384 0.05314605
v -0.04386841 -0.00000240 0.05315499
v -0.03361157 -0.02819967 0.05315499
v -0.02300602 -0.02523843 0.00238814
v -0.02317917 -0.02523843 0.00328208
v -0.04029235 -0.02326218 0.05118833
v -0.03970796 -0.02292554 0.05314605
v -0.03169007 -0.02655072 0.00962012
v -0.02819096 -0.02989537 0.00840436
v -0.02701977 -0.03107363 0.00840436
v -0.02195268 -0.02602393 -0.03816991
v -0.02195268 -0.02735182 -0.02664702
v -0.02236873 -0.02898518 -0.01108353
v -0.03722612 0.00000695 0.00840436
v -0.04584523 0.00000384 0.05314605
v -0.03435709 0.00000695 0.00328208
v -0.04320707 -0.00762370 0.05315499
v -0.04584523 -0.00000240 0.05314605
v -0.04515503 -0.00796659 0.05314605
v -0.03799568 -0.02193430 0.05315499
v -0.02273186 -0.02425966 -0.00414656
v -0.02941985 -0.00004292 -0.03816991
v -0.03073052 -0.00001798 -0.02664702
v -0.03249811 -0.00001798 -0.01108353
v -0.03298149 -0.00004916 -0.00681944
v -0.03423684 0.00000695 0.00238814
v -0.02236873 -0.02342116 -0.01108353
v -0.04307961 -0.01568452 0.05314605
v -0.04371210 -0.01591519 0.05118833
v -0.03883739 -0.01417584 0.00962012
v -0.03577356 -0.02065317 0.00972739
v -0.04122304 -0.01500811 0.05315499
v -0.03157944 -0.02645098 0.00847587
v -0.03147844 -0.02655072 0.00840436
v -0.02219076 -0.02567482 -0.03816991
v -0.02195268 -0.01949050 -0.03816991
v -0.02195268 -0.02134205 -0.02664702
v -0.04115570 0.00000695 0.00840436
v -0.04652100 0.00000384 0.05118833
v -0.04652100 -0.00000240 0.05118833
v -0.04581637 -0.00808192 0.05118833
v -0.03203877 -0.00004292 -0.03816991
v -0.02195268 -0.02066253 -0.03085748
v -0.03325084 -0.00001798 -0.02664702
v -0.03754116 0.00000695 0.00238814
v -0.04042943 -0.00714679 0.00504315
v -0.03869310 -0.01413532 0.00847587
v -0.03872917 -0.01399817 0.00840436
v -0.03355626 -0.00592800 -0.03816991
v -0.03333020 -0.00638622 -0.03816991
v -0.04104508 0.00000695 0.00820769
v -0.04118697 -0.00001798 0.00844906
v -0.04133607 -0.00001798 0.00961118
v -0.03350335 -0.00542303 -0.03816991
v -0.04088395 0.00000695 0.00793057
v -0.04117734 -0.00011462 0.00840436
f 1 2 3
f 1 3 4
f 1 4 5
f 1 5 6
f 1 6 7
f 1 7 8
f 1 8 2
f 2 9 10
f 2 10 25
f 2 25 40
f 2 40 28
f 2 28 11
f 2 11 3
f 2 8 12
f 2 12 13
f 2 13 9
f 3 14 4
f 3 11 15
f 3 15 14
f 4 14 16
f 4 16 17
f 4 17 18
f 4 18 5
f 5 18 6
f 6 19 44
f 6 44 51
f 6 51 45
f 6 45 20
f 6 20 7
f 6 18 19
f 7 20 21
f 7 21 8
f 8 21 12
f 9 22 46
f 9 46 23
f 9 23 10
f 9 13 12
f 9 12 24
f 9 24 22
f 10 23 26
f 10 26 27
f 10 27 25
f 11 28 15
f 12 29 30
f 12 30 31
f 12 31 32
f 12 32 33
f 12 33 34
f 12 34 24
f 12 21 35
f 12 35 29
f 14 15 36
f 14 36 37
f 14 37 38
f 14 38 39
f 14 39 16
f 15 28 40
f 15 40 36
f 16 39 41
f 16 41 42
f 16 42 17
f 17 42 19
f 17 19 18
f 19 43 58
f 19 58 57
f 19 57 62
f 19 62 50
f 19 50 30
f 19 30 44
f 19 42 41
f 19 41 43
f 20 45 35
f 20 35 21
f 22 24 34
f 22 34 53
f 22 53 63
f 22 63 59
f 22 59 46
f 23 46 47
f 23 47 48
f 23 48 26
f 25 27 40
f 26 48 27
f 27 36 40
f 27 48 49
f 27 49 37
f 27 37 36
f 29 35 30
f 30 50 52
f 30 52 31
f 30 35 45
f 30 45 51
f 30 51 44
f 31 52 53
f 31 53 34
f 31 34 32
f 32 34 33
f 37 49 54
f 37 54 38
f 38 55 39
f 38 54 56
f 38 56 55
f 39 55 57
f 39 57 58
f 39 58 43
f 39 43 41
f 46 59 52
f 46 52 50
f 46 50 60
f 46 60 61
f 46 61 47
f 47 61 48
f 48 61 54
f 48 54 49
f 50 62 60
f 52 59 63
f 52 63 53
f 54 57 56
f 54 61 64
f 54 64 57
f 55 56 57
f 57 64 60
f 57 60 62
f 60 64 61

