# https://github.com/mikedh/trimesh
v 0.00000746 -0.04387819 0.05315113
v -0.03236085 -0.02945054 0.05315500
v -0.00000310 -0.04387652 0.05315500
v 0.00000746 -0.04585593 0.05315113
v 0.00000746 -0.03945627 0.01361085
v -0.03513859 -0.02945054 0.05315113
v -0.03512099 -0.02947395 0.05315113
v -0.02947396 -0.03512965 0.05315113
v -0.02819951 -0.03361333 0.05315500
v -0.02613644 -0.02945054 0.01361085
v -0.00761813 -0.04320446 0.05315500
v -0.00796315 -0.04515378 0.05315113
v -0.00000310 -0.04585593 0.05315113
v -0.00000310 -0.04652800 0.05119618
v 0.00000746 -0.04652633 0.05119618
v 0.00000746 -0.04177674 0.01361085
v -0.03595889 -0.02945054 0.05119618
v -0.03563852 -0.02990527 0.05119618
v -0.02292214 -0.03970705 0.05315113
v -0.02193286 -0.03799345 0.05315500
v -0.02990699 -0.03564457 0.05119618
v -0.02326012 -0.04029051 0.05119618
v -0.02938947 -0.02945054 0.01361085
v -0.01500786 -0.04123173 0.05315500
v -0.01568381 -0.04309077 0.05315113
v -0.01591617 -0.04372271 0.05119618
v -0.00807933 -0.04581581 0.05119618
v 0.00000042 -0.04177841 0.01361085
v -0.02685112 -0.03200672 0.01361085
v -0.02085908 -0.03617453 0.01361085
v -0.01427909 -0.03922390 0.01361085
v -0.00726960 -0.04111972 0.01361085
f 1 2 3
f 1 3 4
f 1 4 15
f 1 15 16
f 1 16 5
f 1 5 2
f 2 6 7
f 2 7 8
f 2 8 9
f 2 9 20
f 2 20 24
f 2 24 11
f 2 11 3
f 2 5 10
f 2 10 23
f 2 23 17
f 2 17 6
f 3 11 12
f 3 12 13
f 3 13 4
f 4 13 14
f 4 14 15
f 5 16 28
f 5 28 32
f 5 32 31
f 5 31 30
f 5 30 29
f 5 29 23
f 5 23 10
f 6 17 18
f 6 18 7
f 7 18 8
f 8 19 20
f 8 20 9
f 8 18 21
f 8 21 22
f 8 22 19
f 11 24 12
f 12 25 26
f 12 26 27
f 12 27 13
f 12 24 25
f 13 27 14
f 14 27 28
f 14 28 15
f 15 28 16
f 17 23 18
f 18 23 29
f 18 29 21
f 19 25 24
f 19 24 20
f 19 22 25
f 21 29 22
f 22 26 25
f 22 29 30
f 22 30 26
f 26 30 31
f 26 31 32
f 26 32 27
f 27 32 28

