# https://github.com/mikedh/trimesh
v -0.02708481 -0.02426274 -0.00415207
v -0.02520014 -0.02825561 -0.00415207
v -0.03224317 -0.02524338 0.00840495
v -0.02869166 -0.02426274 0.00238808
v -0.02272514 -0.02426274 -0.00415207
v -0.02471082 -0.02917625 -0.00415207
v -0.03148867 -0.02653262 0.00840495
v -0.02701535 -0.03184217 0.01360473
v -0.02701535 -0.02857107 0.01360473
v -0.02721108 -0.02524338 0.00840495
v -0.02398158 -0.02426274 0.00238808
v -0.02275986 -0.02426274 -0.00396605
v -0.00000183 -0.03335086 -0.00415207
v -0.02459402 -0.02936141 -0.00415207
v -0.03147289 -0.02655663 0.00840495
v -0.02638082 -0.03146500 0.00504273
v -0.02685120 -0.03200676 0.01360473
v 0.00000133 -0.03945589 0.01360473
v 0.00000764 -0.03436408 0.00327992
v -0.02282616 -0.02426274 -0.00361314
v 0.00000764 -0.03424407 0.00238808
v -0.00000183 -0.03829009 -0.00415207
v -0.02439829 -0.02943685 -0.00415207
v -0.01412576 -0.03881813 0.00972619
v -0.02055635 -0.03569618 0.00847275
v -0.02067316 -0.03561389 0.00840495
v -0.02064475 -0.03581962 0.00962362
v -0.02085626 -0.03617107 0.01360473
v 0.00000133 -0.04177550 0.01360473
v 0.00000764 -0.03723401 0.00840495
v 0.00000764 -0.03972677 0.00238808
v -0.00018177 -0.03823180 -0.00415207
v 0.00000764 -0.04105716 0.00504621
v -0.00704486 -0.04057027 0.00840495
v -0.00718376 -0.04055998 0.00847275
v -0.00720902 -0.04071085 0.00962362
v -0.01416996 -0.03893471 0.01074667
v -0.01427730 -0.03922273 0.01360473
v -0.00000183 -0.04177550 0.01360473
v 0.00000764 -0.04123375 0.00840495
v -0.00727215 -0.04111888 0.01360473
f 1 2 3
f 1 3 4
f 1 4 11
f 1 11 20
f 1 20 12
f 1 12 5
f 1 5 13
f 1 13 22
f 1 22 32
f 1 32 23
f 1 23 14
f 1 14 6
f 1 6 2
f 2 6 3
f 3 6 7
f 3 7 8
f 3 8 9
f 3 9 10
f 3 10 11
f 3 11 4
f 5 12 13
f 6 14 7
f 7 15 8
f 7 14 15
f 8 15 16
f 8 16 17
f 8 17 28
f 8 28 38
f 8 38 41
f 8 41 39
f 8 39 29
f 8 29 18
f 8 18 9
f 9 18 10
f 10 18 19
f 10 19 11
f 11 19 13
f 11 13 20
f 12 20 13
f 13 19 21
f 13 21 31
f 13 31 22
f 14 23 24
f 14 24 25
f 14 25 26
f 14 26 16
f 14 16 15
f 16 26 27
f 16 27 28
f 16 28 17
f 18 29 40
f 18 40 30
f 18 30 19
f 19 30 40
f 19 40 33
f 19 33 31
f 19 31 21
f 22 31 33
f 22 33 34
f 22 34 35
f 22 35 24
f 22 24 32
f 23 32 24
f 24 35 36
f 24 36 37
f 24 37 27
f 24 27 25
f 25 27 26
f 27 37 38
f 27 38 28
f 29 39 33
f 29 33 40
f 33 39 41
f 33 41 36
f 33 36 34
f 34 36 35
f 36 41 38
f 36 38 37

