# https://github.com/mikedh/trimesh
v -0.01104075 0.03175901 -0.04103209
v -0.01067418 0.03074125 -0.05087780
v -0.01068039 0.03052649 -0.05291411
v -0.01154401 0.03171855 -0.04103209
v 0.01104058 0.03175590 -0.04103209
v 0.01068643 0.03073502 -0.05087780
v 0.01069264 0.03052338 -0.05291411
v -0.01005287 0.02894228 -0.05315263
v -0.01108424 0.03047047 -0.05291411
v -0.01115880 0.03068523 -0.05087780
v 0.00849942 0.02894539 -0.05315263
v 0.00479021 0.02894539 -0.05315263
v -0.01143217 0.03025260 -0.05291411
v -0.01195407 0.03141975 -0.04103209
v 0.01154384 0.03171855 -0.04103209
v 0.01117726 0.03068523 -0.05087780
v 0.01109649 0.03046736 -0.05291411
v 0.01005891 0.02894228 -0.05315263
v -0.00000009 0.02621580 -0.05315500
v -0.00454807 0.02581430 -0.05315500
v -0.01050021 0.02886758 -0.05315263
v -0.01089163 0.02863726 -0.05315263
v -0.01209076 0.02763506 -0.05315263
v -0.01493635 0.02525096 -0.05315263
v -0.02630010 0.01571764 -0.05315263
v -0.02779745 0.01651753 -0.05291411
v -0.02793414 0.01668249 -0.05087780
v -0.02886610 0.01723027 -0.04103209
v 0.01195390 0.03142287 -0.04103209
v 0.01158112 0.03041133 -0.05087780
v 0.01143821 0.03024949 -0.05291411
v 0.01090389 0.02863415 -0.05315263
v 0.01051246 0.02886135 -0.05315263
v 0.00454790 0.02581430 -0.05315500
v -0.00896558 0.02463470 -0.05315500
v -0.01310971 0.02270189 -0.05315500
v -0.01684999 0.02008124 -0.05315500
v -0.02659833 0.01537216 -0.05315263
v -0.02807083 0.01621251 -0.05291411
v -0.02008079 0.01684433 -0.05315500
v -0.02827586 0.01633390 -0.05087780
v -0.02923268 0.01687546 -0.04103209
v 0.02886593 0.01723027 -0.04103209
v 0.02794018 0.01667626 -0.05087780
v 0.01209680 0.02763818 -0.05315263
v 0.02780350 0.01650819 -0.05291411
v 0.02227384 0.01909461 -0.05315263
v 0.01684982 0.02008124 -0.05315500
v 0.01310332 0.02269878 -0.05315500
v 0.00896540 0.02463470 -0.05315500
v -0.02270272 0.01311255 -0.05315500
v -0.02462878 0.00896682 -0.05315500
v -0.02675365 0.01493643 -0.05315263
v -0.02820130 0.01583280 -0.05291411
v -0.02935694 0.01638370 -0.04103209
v 0.02923251 0.01687857 -0.04103209
v 0.02828190 0.01632145 -0.05087780
v 0.02808308 0.01620318 -0.05291411
v 0.02630614 0.01570830 -0.05315263
v 0.02007441 0.01684745 -0.05315500
v -0.02581548 0.00455342 -0.05315500
v -0.02702703 0.01340512 -0.05315263
v -0.02939422 -0.00003738 -0.05315263
v -0.03046287 -0.00003738 -0.05291411
v -0.03048151 -0.00003738 -0.05274798
v -0.03068654 -0.00003738 -0.05087780
v -0.03173034 -0.00003738 -0.04103209
v -0.02841255 0.01586081 -0.05087780
v -0.02767319 0.00974493 -0.05315263
v 0.02820734 0.01582346 -0.05291411
v 0.02935677 0.01638681 -0.04103209
v 0.02675970 0.01493020 -0.05315263
v 0.02660437 0.01535972 -0.05315263
v 0.02270255 0.01311255 -0.05315500
v -0.02620690 -0.00000003 -0.05315500
v -0.02620690 -0.00003738 -0.05315500
v 0.03173017 -0.00003738 -0.04103209
v 0.02841859 0.01585770 -0.05087780
v 0.03069258 -0.00003738 -0.05087780
v 0.03046891 -0.00003738 -0.05291411
v 0.02939405 -0.00003738 -0.05315263
v 0.02933813 0.00031121 -0.05315263
v 0.02581531 0.00455654 -0.05315500
v 0.02462861 0.00896993 -0.05315500
v 0.02620673 -0.00003738 -0.05315500
v 0.02621294 -0.00000003 -0.05315500
f 1 2 3
f 1 3 4
f 1 4 14
f 1 14 28
f 1 28 42
f 1 42 55
f 1 55 67
f 1 67 77
f 1 77 71
f 1 71 56
f 1 56 43
f 1 43 29
f 1 29 15
f 1 15 5
f 1 5 2
f 2 5 6
f 2 6 7
f 2 7 3
f 3 8 9
f 3 9 10
f 3 10 4
f 3 7 11
f 3 11 12
f 3 12 8
f 4 13 14
f 4 10 9
f 4 9 13
f 5 15 7
f 5 7 6
f 7 15 16
f 7 16 17
f 7 17 18
f 7 18 11
f 8 19 20
f 8 20 21
f 8 21 9
f 8 12 19
f 9 22 13
f 9 21 22
f 11 18 19
f 11 19 12
f 13 22 23
f 13 23 24
f 13 24 25
f 13 25 26
f 13 26 27
f 13 27 14
f 14 27 28
f 15 29 30
f 15 30 31
f 15 31 16
f 16 31 17
f 17 31 32
f 17 32 33
f 17 33 18
f 18 34 19
f 18 33 34
f 19 34 50
f 19 50 49
f 19 49 48
f 19 48 60
f 19 60 74
f 19 74 84
f 19 84 83
f 19 83 86
f 19 86 85
f 19 85 76
f 19 76 75
f 19 75 61
f 19 61 52
f 19 52 51
f 19 51 40
f 19 40 37
f 19 37 36
f 19 36 35
f 19 35 20
f 20 35 21
f 21 36 22
f 21 35 36
f 22 36 37
f 22 37 23
f 23 37 24
f 24 37 25
f 25 38 39
f 25 39 26
f 25 37 40
f 25 40 38
f 26 39 41
f 26 41 42
f 26 42 28
f 26 28 27
f 29 43 30
f 30 43 44
f 30 44 31
f 31 45 32
f 31 44 46
f 31 46 47
f 31 47 45
f 32 45 48
f 32 48 49
f 32 49 33
f 33 49 50
f 33 50 34
f 38 40 51
f 38 51 52
f 38 52 53
f 38 53 39
f 39 54 41
f 39 53 54
f 41 54 42
f 42 54 55
f 43 56 44
f 44 56 46
f 45 47 48
f 46 56 57
f 46 57 58
f 46 58 59
f 46 59 47
f 47 59 48
f 48 59 60
f 52 61 53
f 53 61 62
f 53 62 54
f 54 63 64
f 54 64 65
f 54 65 66
f 54 66 67
f 54 67 68
f 54 68 55
f 54 62 69
f 54 69 63
f 55 68 67
f 56 70 57
f 56 71 70
f 57 70 58
f 58 72 73
f 58 73 59
f 58 70 72
f 59 73 60
f 60 73 74
f 61 75 63
f 61 63 69
f 61 69 62
f 63 75 76
f 63 76 85
f 63 85 81
f 63 81 80
f 63 80 79
f 63 79 77
f 63 77 67
f 63 67 66
f 63 66 65
f 63 65 64
f 70 71 78
f 70 78 79
f 70 79 80
f 70 80 81
f 70 81 82
f 70 82 72
f 71 77 78
f 72 83 84
f 72 84 73
f 72 82 83
f 73 84 74
f 77 79 78
f 81 85 86
f 81 86 83
f 81 83 82

