# https://github.com/mikedh/trimesh
v 0.00003596 0.03261942 -0.02665441
v 0.00003596 0.03072685 -0.02665441
v 0.00003596 0.03170454 -0.03509487
v -0.00000171 0.03691376 0.00238570
v 0.00003596 0.03066914 -0.02714741
v -0.00000171 0.03424210 0.00238570
v -0.00000171 0.03335098 -0.00415502
v 0.00000300 0.03250230 -0.01108673
v 0.00003596 0.02976444 -0.03509487
v 0.00000300 0.03106802 -0.04103209
v -0.01269398 0.03738224 0.00238570
v -0.01104328 0.03175715 -0.04103209
v -0.02386741 0.02192260 -0.01108248
v -0.02402047 0.02422423 0.00238570
v -0.02402047 0.02352152 -0.00126928
v -0.02402047 0.02296987 -0.00415502
v -0.02386741 0.02238767 -0.00818400
v 0.00000300 0.02909228 -0.04103209
v -0.01341219 0.03739072 0.00238570
v -0.01154720 0.03171811 -0.04103209
v -0.02240274 0.02089229 -0.02665016
v -0.02386741 0.02514250 -0.01108248
v -0.02402047 0.02803652 0.00238570
v -0.02402047 0.02622373 -0.00415502
v -0.02094042 0.02005209 -0.04103209
v -0.01379131 0.03726003 0.00238570
v -0.01195693 0.03142277 -0.04103209
v -0.02240274 0.02383383 -0.02665016
v -0.02094042 0.02304116 -0.04103209
v -0.01526540 0.03596493 0.00238570
v -0.01432349 0.03680343 0.00238570
f 1 2 5
f 1 5 9
f 1 9 3
f 1 3 4
f 1 4 6
f 1 6 2
f 2 6 7
f 2 7 8
f 2 8 5
f 3 9 18
f 3 18 10
f 3 10 4
f 4 11 19
f 4 19 26
f 4 26 31
f 4 31 30
f 4 30 23
f 4 23 14
f 4 14 6
f 4 10 12
f 4 12 11
f 5 8 13
f 5 13 9
f 6 14 15
f 6 15 16
f 6 16 17
f 6 17 13
f 6 13 7
f 7 13 8
f 9 13 18
f 10 18 25
f 10 25 29
f 10 29 27
f 10 27 20
f 10 20 12
f 11 12 19
f 12 20 19
f 13 21 18
f 13 17 16
f 13 16 24
f 13 24 22
f 13 22 28
f 13 28 21
f 14 23 24
f 14 24 16
f 14 16 15
f 18 21 25
f 19 20 26
f 20 27 26
f 21 28 29
f 21 29 25
f 22 24 23
f 22 23 29
f 22 29 28
f 23 30 27
f 23 27 29
f 26 27 31
f 27 30 31

