# https://github.com/mikedh/trimesh
v -0.03611564 -0.00010270 -0.00416069
v -0.03333698 -0.00010270 -0.00416069
v -0.03756608 -0.00010270 0.00238032
v -0.03173172 -0.00003587 -0.04103209
v -0.02909363 -0.00003587 -0.04103209
v -0.02976588 -0.00003587 -0.03509009
v -0.03295807 -0.00003905 -0.00698996
v -0.02219792 0.02604889 0.00238567
v -0.03420480 -0.00010270 0.00221452
v -0.03422925 -0.00010270 0.00238032
v -0.04175239 -0.00001041 0.01360647
v -0.04133682 -0.00001041 0.00961126
v -0.04118811 -0.00001041 0.00845067
v -0.02936049 0.01638009 -0.04103209
v -0.04119218 0.00003415 0.00847207
v -0.04068086 0.00717277 0.00972358
v -0.02094712 0.02004010 -0.04103209
v -0.02094712 0.02093760 -0.03543239
v -0.02094712 0.02099489 -0.03509009
v -0.02236904 0.02604889 0.00327349
v -0.02094712 0.02384015 -0.03509009
v -0.02240774 0.02634488 -0.01109213
v -0.02620904 0.03241095 0.01360647
v -0.03435963 0.00000869 0.00327349
v -0.03436981 0.00000869 0.00329488
v -0.03945043 -0.00001041 0.01360112
v -0.03946469 -0.00001041 0.01360647
v -0.04175647 0.00002142 0.01360647
v -0.04134089 0.00002778 0.00962196
v -0.02923623 0.01687021 -0.04103209
v -0.03872317 0.01405359 0.00847207
v -0.04080309 0.00719823 0.01074511
v -0.03885966 0.01411088 0.00962196
v -0.02094712 0.02303177 -0.04103209
v -0.02620904 0.02937473 0.01360647
v -0.02620904 0.03202585 0.01066488
v -0.02683444 0.03197175 0.01360647
v -0.03945043 0.00000232 0.01360647
v -0.04110459 0.00724915 0.01360647
v -0.02887769 0.01722348 -0.04103209
v -0.03866206 0.01417772 0.00840254
v -0.03556154 0.02051113 0.00503844
v -0.03183765 0.02604889 0.00821000
v -0.03161560 0.02637988 0.00840254
v -0.03153615 0.02649764 0.00847207
v -0.03924264 0.01426365 0.01360647
v -0.02655739 0.03163757 0.00972358
v -0.02620904 0.03187309 0.00964870
v -0.02620904 0.03188582 0.00971823
v -0.02663684 0.03173305 0.01074511
v -0.03197414 0.02685091 0.01360647
v -0.03165431 0.02659312 0.00962196
v -0.03618082 0.02088668 0.01360647
f 1 2 9
f 1 9 10
f 1 10 3
f 1 3 4
f 1 4 5
f 1 5 2
f 2 5 6
f 2 6 7
f 2 7 8
f 2 8 9
f 3 10 27
f 3 27 11
f 3 11 12
f 3 12 13
f 3 13 4
f 4 14 30
f 4 30 40
f 4 40 34
f 4 34 17
f 4 17 5
f 4 13 15
f 4 15 16
f 4 16 14
f 5 17 18
f 5 18 19
f 5 19 8
f 5 8 6
f 6 8 7
f 8 20 10
f 8 10 9
f 8 19 21
f 8 21 22
f 8 22 23
f 8 23 20
f 10 20 24
f 10 24 25
f 10 25 26
f 10 26 27
f 11 27 38
f 11 38 35
f 11 35 23
f 11 23 37
f 11 37 51
f 11 51 53
f 11 53 46
f 11 46 39
f 11 39 28
f 11 28 12
f 12 29 13
f 12 28 29
f 13 29 15
f 14 16 31
f 14 31 30
f 15 29 16
f 16 29 32
f 16 32 33
f 16 33 31
f 17 34 21
f 17 21 19
f 17 19 18
f 20 25 24
f 20 23 35
f 20 35 26
f 20 26 25
f 21 34 36
f 21 36 23
f 21 23 22
f 23 36 37
f 26 35 38
f 26 38 27
f 28 39 29
f 29 39 32
f 30 31 41
f 30 41 42
f 30 42 43
f 30 43 44
f 30 44 45
f 30 45 40
f 31 33 41
f 32 39 33
f 33 39 46
f 33 46 42
f 33 42 41
f 34 40 47
f 34 47 48
f 34 48 49
f 34 49 36
f 36 49 50
f 36 50 37
f 37 50 52
f 37 52 51
f 40 45 47
f 42 46 53
f 42 53 51
f 42 51 52
f 42 52 44
f 42 44 43
f 44 52 45
f 45 52 47
f 47 52 50
f 47 50 49
f 47 49 48

