# https://github.com/mikedh/trimesh
v -0.04175515 0.00000747 0.01361085
v -0.04175515 0.00001803 0.01361085
v -0.03945016 0.00000747 0.01361085
v -0.04652227 0.00000747 0.05119618
v -0.04110661 0.00724750 0.01361085
v -0.04582191 0.00808167 0.05119618
v -0.02944792 0.02613425 0.01361085
v -0.02944792 0.03236413 0.05315500
v -0.04386960 0.00000747 0.05315113
v -0.04584865 0.00000747 0.05315113
v -0.03924457 0.01426228 0.01361085
v -0.04515832 0.00796200 0.05315113
v -0.04308399 0.01568424 0.05315113
v -0.04371582 0.01591302 0.05119618
v -0.02944792 0.02936886 0.01361085
v -0.02944792 0.03514470 0.05315113
v -0.02947634 0.03512358 0.05315113
v -0.03512433 0.02947093 0.05315113
v -0.03360828 0.02819680 0.05315500
v -0.04320936 0.00762059 0.05315500
v -0.03618238 0.02088637 0.01361085
v -0.04122529 0.01500494 0.05315500
v -0.03799763 0.02193524 0.05315500
v -0.03971091 0.02292428 0.05315113
v -0.04029259 0.02325865 0.05119618
v -0.03197690 0.02685227 0.01361085
v -0.02990926 0.03564098 0.05119618
v -0.02944792 0.03596128 0.05119618
v -0.02944792 0.03514822 0.05314339
v -0.03563915 0.02990034 0.05119618
f 1 2 5
f 1 5 11
f 1 11 21
f 1 21 26
f 1 26 15
f 1 15 7
f 1 7 3
f 1 3 9
f 1 9 10
f 1 10 4
f 1 4 2
f 2 4 6
f 2 6 5
f 3 7 8
f 3 8 9
f 4 10 6
f 5 6 11
f 6 10 12
f 6 12 13
f 6 13 14
f 6 14 11
f 7 15 28
f 7 28 29
f 7 29 16
f 7 16 8
f 8 16 17
f 8 17 18
f 8 18 19
f 8 19 23
f 8 23 22
f 8 22 20
f 8 20 9
f 9 20 10
f 10 20 12
f 11 14 21
f 12 20 13
f 13 20 22
f 13 22 23
f 13 23 24
f 13 24 14
f 14 24 25
f 14 25 21
f 15 26 27
f 15 27 28
f 16 29 17
f 17 29 27
f 17 27 18
f 18 24 23
f 18 23 19
f 18 27 30
f 18 30 25
f 18 25 24
f 21 25 30
f 21 30 26
f 26 30 27
f 27 29 28

