# https://github.com/mikedh/trimesh
v 0.03598228 -0.02941807 0.05119054
v 0.03515943 -0.02941807 0.05314607
v 0.03511884 -0.02947594 0.05314607
v 0.03563543 -0.02990873 0.05119054
v 0.03147692 -0.02654961 0.00840093
v 0.03149167 -0.02652697 0.00840093
v 0.03224441 -0.02524622 0.00840093
v 0.03239201 -0.02941807 0.05315500
v 0.02423734 -0.02274513 -0.00415378
v 0.02947330 -0.03512731 0.05314607
v 0.02990133 -0.03564313 0.05119054
v 0.02639224 -0.03144612 0.00504348
v 0.02064708 -0.02648671 -0.03806758
v 0.02480559 -0.02269480 -0.02663797
v 0.02686455 -0.02269480 -0.01109191
v 0.00001318 -0.04387863 0.05314607
v 0.00762175 -0.04320429 0.05315500
v 0.02819660 -0.03361508 0.05315500
v 0.00001687 -0.03436239 0.00328439
v 0.02064708 -0.02082024 -0.03806758
v -0.00171369 -0.02928723 -0.03806758
v -0.00171369 -0.03058558 -0.02664690
v 0.02193485 -0.03799326 0.05315500
v 0.02292374 -0.03970427 0.05314607
v 0.02325583 -0.04028802 0.05119054
v 0.02064708 -0.03581423 0.00961533
v 0.02056590 -0.03568842 0.00847237
v 0.00050025 -0.03394470 -0.03806758
v 0.01413441 -0.03881354 0.00971355
v 0.00001318 -0.04585385 0.05314607
v 0.01500892 -0.04122908 0.05315500
v 0.00796491 -0.04515183 0.05314607
v 0.01568786 -0.04308855 0.05314607
v -0.00171369 -0.03328546 -0.03806758
v -0.00171369 -0.03454104 -0.02664690
v 0.01592032 -0.04372263 0.05119054
v 0.00000949 -0.03408561 -0.03806758
v 0.00721217 -0.04070823 0.00961533
v 0.00720479 -0.04055726 0.00847237
v 0.00001318 -0.04652567 0.05119054
v 0.00808298 -0.04581358 0.05119054
v -0.00048495 -0.03394470 -0.03806758
v 0.00001687 -0.04105547 0.00504348
v 0.00706457 -0.04056984 0.00840093
v 0.00002056 -0.04105547 0.00504348
f 1 2 3
f 1 3 4
f 1 4 5
f 1 5 6
f 1 6 7
f 1 7 2
f 2 8 3
f 2 7 9
f 2 9 8
f 3 10 4
f 3 8 10
f 4 10 11
f 4 11 12
f 4 12 5
f 5 12 13
f 5 13 6
f 6 13 7
f 7 13 14
f 7 14 15
f 7 15 9
f 8 16 17
f 8 17 31
f 8 31 23
f 8 23 18
f 8 18 10
f 8 9 19
f 8 19 16
f 9 15 20
f 9 20 21
f 9 21 22
f 9 22 19
f 10 18 23
f 10 23 24
f 10 24 25
f 10 25 11
f 11 25 12
f 12 25 26
f 12 26 27
f 12 27 13
f 13 28 37
f 13 37 42
f 13 42 34
f 13 34 21
f 13 21 20
f 13 20 14
f 13 27 29
f 13 29 28
f 14 20 15
f 16 30 17
f 16 19 22
f 16 22 35
f 16 35 30
f 17 30 32
f 17 32 33
f 17 33 31
f 21 34 35
f 21 35 22
f 23 31 33
f 23 33 24
f 24 33 36
f 24 36 25
f 25 36 26
f 26 29 27
f 26 36 29
f 28 29 37
f 29 38 39
f 29 39 37
f 29 36 38
f 30 35 40
f 30 40 41
f 30 41 32
f 32 41 36
f 32 36 33
f 34 42 43
f 34 43 40
f 34 40 35
f 36 41 38
f 37 39 44
f 37 44 45
f 37 45 43
f 37 43 42
f 38 45 44
f 38 44 39
f 38 41 45
f 40 43 45
f 40 45 41

