mtllib material.mtl
usemtl Porcelain_White
v 0.00000000 0.00000000 0.00000000
v 0.02200000 0.00000000 0.00000000
v 0.02200000 0.00000000 0.00400000
v 0.04000000 0.00000000 0.00400000
v 0.04000000 0.00000000 0.00700000
v 0.03400000 0.00000000 0.01100000
v 0.02500000 0.00000000 0.01600000
v 0.01400000 0.00000000 0.02000000
v 0.00000000 0.00000000 0.02200000
v 0.02181200 0.00287200 0.00000000
v 0.02181200 0.00287200 0.00400000
v 0.03965800 0.00522100 0.00400000
v 0.03965800 0.00522100 0.00700000
v 0.03370900 0.00443800 0.01100000
v 0.02478600 0.00326300 0.01600000
v 0.01388000 0.00182700 0.02000000
v 0.02125000 0.00569400 0.00000000
v 0.02125000 0.00569400 0.00400000
v 0.03863700 0.01035300 0.00400000
v 0.03863700 0.01035300 0.00700000
v 0.03284100 0.00880000 0.01100000
v 0.02414800 0.00647000 0.01600000
v 0.01352300 0.00362300 0.02000000
v 0.02032500 0.00841900 0.00000000
v 0.02032500 0.00841900 0.00400000
v 0.03695500 0.01530700 0.00400000
v 0.03695500 0.01530700 0.00700000
v 0.03141200 0.01301100 0.01100000
v 0.02309700 0.00956700 0.01600000
v 0.01293400 0.00535800 0.02000000
v 0.01905300 0.01100000 0.00000000
v 0.01905300 0.01100000 0.00400000
v 0.03464100 0.02000000 0.00400000
v 0.03464100 0.02000000 0.00700000
v 0.02944500 0.01700000 0.01100000
v 0.02165100 0.01250000 0.01600000
v 0.01212400 0.00700000 0.02000000
v 0.01745400 0.01339300 0.00000000
v 0.01745400 0.01339300 0.00400000
v 0.03173400 0.02435000 0.00400000
v 0.03173400 0.02435000 0.00700000
v 0.02697400 0.02069800 0.01100000
v 0.01983400 0.01521900 0.01600000
v 0.01110700 0.00852300 0.02000000
v 0.01555600 0.01555600 0.00000000
v 0.01555600 0.01555600 0.00400000
v 0.02828400 0.02828400 0.00400000
v 0.02828400 0.02828400 0.00700000
v 0.02404200 0.02404200 0.01100000
v 0.01767800 0.01767800 0.01600000
v 0.00989900 0.00989900 0.02000000
v 0.01339300 0.01745400 0.00000000
v 0.01339300 0.01745400 0.00400000
v 0.02435000 0.03173400 0.00400000
v 0.02435000 0.03173400 0.00700000
v 0.02069800 0.02697400 0.01100000
v 0.01521900 0.01983400 0.01600000
v 0.00852300 0.01110700 0.02000000
v 0.01100000 0.01905300 0.00000000
v 0.01100000 0.01905300 0.00400000
v 0.02000000 0.03464100 0.00400000
v 0.02000000 0.03464100 0.00700000
v 0.01700000 0.02944500 0.01100000
v 0.01250000 0.02165100 0.01600000
v 0.00700000 0.01212400 0.02000000
v 0.00841900 0.02032500 0.00000000
v 0.00841900 0.02032500 0.00400000
v 0.01530700 0.03695500 0.00400000
v 0.01530700 0.03695500 0.00700000
v 0.01301100 0.03141200 0.01100000
v 0.00956700 0.02309700 0.01600000
v 0.00535800 0.01293400 0.02000000
v 0.00569400 0.02125000 0.00000000
v 0.00569400 0.02125000 0.00400000
v 0.01035300 0.03863700 0.00400000
v 0.01035300 0.03863700 0.00700000
v 0.00880000 0.03284100 0.01100000
v 0.00647000 0.02414800 0.01600000
v 0.00362300 0.01352300 0.02000000
v 0.00287200 0.02181200 0.00000000
v 0.00287200 0.02181200 0.00400000
v 0.00522100 0.03965800 0.00400000
v 0.00522100 0.03965800 0.00700000
v 0.00443800 0.03370900 0.01100000
v 0.00326300 0.02478600 0.01600000
v 0.00182700 0.01388000 0.02000000
v -0.00000000 0.02200000 0.00000000
v -0.00000000 0.02200000 0.00400000
v -0.00000000 0.04000000 0.00400000
v -0.00000000 0.04000000 0.00700000
v -0.00000000 0.03400000 0.01100000
v -0.00000000 0.02500000 0.01600000
v -0.00000000 0.01400000 0.02000000
v -0.00287200 0.02181200 0.00000000
v -0.00287200 0.02181200 0.00400000
v -0.00522100 0.03965800 0.00400000
v -0.00522100 0.03965800 0.00700000
v -0.00443800 0.03370900 0.01100000
v -0.00326300 0.02478600 0.01600000
v -0.00182700 0.01388000 0.02000000
v -0.00569400 0.02125000 0.00000000
v -0.00569400 0.02125000 0.00400000
v -0.01035300 0.03863700 0.00400000
v -0.01035300 0.03863700 0.00700000
v -0.00880000 0.03284100 0.01100000
v -0.00647000 0.02414800 0.01600000
v -0.00362300 0.01352300 0.02000000
v -0.00841900 0.02032500 0.00000000
v -0.00841900 0.02032500 0.00400000
v -0.01530700 0.03695500 0.00400000
v -0.01530700 0.03695500 0.00700000
v -0.01301100 0.03141200 0.01100000
v -0.00956700 0.02309700 0.01600000
v -0.00535800 0.01293400 0.02000000
v -0.01100000 0.01905300 0.00000000
v -0.01100000 0.01905300 0.00400000
v -0.02000000 0.03464100 0.00400000
v -0.02000000 0.03464100 0.00700000
v -0.01700000 0.02944500 0.01100000
v -0.01250000 0.02165100 0.01600000
v -0.00700000 0.01212400 0.02000000
v -0.01339300 0.01745400 0.00000000
v -0.01339300 0.01745400 0.00400000
v -0.02435000 0.03173400 0.00400000
v -0.02435000 0.03173400 0.00700000
v -0.02069800 0.02697400 0.01100000
v -0.01521900 0.01983400 0.01600000
v -0.00852300 0.01110700 0.02000000
v -0.01555600 0.01555600 0.00000000
v -0.01555600 0.01555600 0.00400000
v -0.02828400 0.02828400 0.00400000
v -0.02828400 0.02828400 0.00700000
v -0.02404200 0.02404200 0.01100000
v -0.01767800 0.01767800 0.01600000
v -0.00989900 0.00989900 0.02000000
v -0.01745400 0.01339300 0.00000000
v -0.01745400 0.01339300 0.00400000
v -0.03173400 0.02435000 0.00400000
v -0.03173400 0.02435000 0.00700000
v -0.02697400 0.02069800 0.01100000
v -0.01983400 0.01521900 0.01600000
v -0.01110700 0.00852300 0.02000000
v -0.01905300 0.01100000 0.00000000
v -0.01905300 0.01100000 0.00400000
v -0.03464100 0.02000000 0.00400000
v -0.03464100 0.02000000 0.00700000
v -0.02944500 0.01700000 0.01100000
v -0.02165100 0.01250000 0.01600000
v -0.01212400 0.00700000 0.02000000
v -0.02032500 0.00841900 0.00000000
v -0.02032500 0.00841900 0.00400000
v -0.03695500 0.01530700 0.00400000
v -0.03695500 0.01530700 0.00700000
v -0.03141200 0.01301100 0.01100000
v -0.02309700 0.00956700 0.01600000
v -0.01293400 0.00535800 0.02000000
v -0.02125000 0.00569400 0.00000000
v -0.02125000 0.00569400 0.00400000
v -0.03863700 0.01035300 0.00400000
v -0.03863700 0.01035300 0.00700000
v -0.03284100 0.00880000 0.01100000
v -0.02414800 0.00647000 0.01600000
v -0.01352300 0.00362300 0.02000000
v -0.02181200 0.00287200 0.00000000
v -0.02181200 0.00287200 0.00400000
v -0.03965800 0.00522100 0.00400000
v -0.03965800 0.00522100 0.00700000
v -0.03370900 0.00443800 0.01100000
v -0.02478600 0.00326300 0.01600000
v -0.01388000 0.00182700 0.02000000
v -0.02200000 -0.00000000 0.00000000
v -0.02200000 -0.00000000 0.00400000
v -0.04000000 -0.00000000 0.00400000
v -0.04000000 -0.00000000 0.00700000
v -0.03400000 -0.00000000 0.01100000
v -0.02500000 -0.00000000 0.01600000
v -0.01400000 -0.00000000 0.02000000
v -0.02181200 -0.00287200 0.00000000
v -0.02181200 -0.00287200 0.00400000
v -0.03965800 -0.00522100 0.00400000
v -0.03965800 -0.00522100 0.00700000
v -0.03370900 -0.00443800 0.01100000
v -0.02478600 -0.00326300 0.01600000
v -0.01388000 -0.00182700 0.02000000
v -0.02125000 -0.00569400 0.00000000
v -0.02125000 -0.00569400 0.00400000
v -0.03863700 -0.01035300 0.00400000
v -0.03863700 -0.01035300 0.00700000
v -0.03284100 -0.00880000 0.01100000
v -0.02414800 -0.00647000 0.01600000
v -0.01352300 -0.00362300 0.02000000
v -0.02032500 -0.00841900 0.00000000
v -0.02032500 -0.00841900 0.00400000
v -0.03695500 -0.01530700 0.00400000
v -0.03695500 -0.01530700 0.00700000
v -0.03141200 -0.01301100 0.01100000
v -0.02309700 -0.00956700 0.01600000
v -0.01293400 -0.00535800 0.02000000
v -0.01905300 -0.01100000 0.00000000
v -0.01905300 -0.01100000 0.00400000
v -0.03464100 -0.02000000 0.00400000
v -0.03464100 -0.02000000 0.00700000
v -0.02944500 -0.01700000 0.01100000
v -0.02165100 -0.01250000 0.01600000
v -0.01212400 -0.00700000 0.02000000
v -0.01745400 -0.01339300 0.00000000
v -0.01745400 -0.01339300 0.00400000
v -0.03173400 -0.02435000 0.00400000
v -0.03173400 -0.02435000 0.00700000
v -0.02697400 -0.02069800 0.01100000
v -0.01983400 -0.01521900 0.01600000
v -0.01110700 -0.00852300 0.02000000
v -0.01555600 -0.01555600 0.00000000
v -0.01555600 -0.01555600 0.00400000
v -0.02828400 -0.02828400 0.00400000
v -0.02828400 -0.02828400 0.00700000
v -0.02404200 -0.02404200 0.01100000
v -0.01767800 -0.01767800 0.01600000
v -0.00989900 -0.00990000 0.02000000
v -0.01339300 -0.01745400 0.00000000
v -0.01339300 -0.01745400 0.00400000
v -0.02435000 -0.03173400 0.00400000
v -0.02435000 -0.03173400 0.00700000
v -0.02069800 -0.02697400 0.01100000
v -0.01521900 -0.01983400 0.01600000
v -0.00852300 -0.01110700 0.02000000
v -0.01100000 -0.01905300 0.00000000
v -0.01100000 -0.01905300 0.00400000
v -0.02000000 -0.03464100 0.00400000
v -0.02000000 -0.03464100 0.00700000
v -0.01700000 -0.02944500 0.01100000
v -0.01250000 -0.02165100 0.01600000
v -0.00700000 -0.01212400 0.02000000
v -0.00841900 -0.02032500 0.00000000
v -0.00841900 -0.02032500 0.00400000
v -0.01530700 -0.03695500 0.00400000
v -0.01530700 -0.03695500 0.00700000
v -0.01301100 -0.03141200 0.01100000
v -0.00956700 -0.02309700 0.01600000
v -0.00535800 -0.01293400 0.02000000
v -0.00569400 -0.02125000 0.00000000
v -0.00569400 -0.02125000 0.00400000
v -0.01035300 -0.03863700 0.00400000
v -0.01035300 -0.03863700 0.00700000
v -0.00880000 -0.03284100 0.01100000
v -0.00647000 -0.02414800 0.01600000
v -0.00362300 -0.01352300 0.02000000
v -0.00287200 -0.02181200 0.00000000
v -0.00287200 -0.02181200 0.00400000
v -0.00522100 -0.03965800 0.00400000
v -0.00522100 -0.03965800 0.00700000
v -0.00443800 -0.03370900 0.01100000
v -0.00326300 -0.02478600 0.01600000
v -0.00182700 -0.01388000 0.02000000
v 0.00000000 -0.02200000 0.00000000
v 0.00000000 -0.02200000 0.00400000
v 0.00000000 -0.04000000 0.00400000
v 0.00000000 -0.04000000 0.00700000
v 0.00000000 -0.03400000 0.01100000
v 0.00000000 -0.02500000 0.01600000
v 0.00000000 -0.01400000 0.02000000
v 0.00287200 -0.02181200 0.00000000
v 0.00287200 -0.02181200 0.00400000
v 0.00522100 -0.03965800 0.00400000
v 0.00522100 -0.03965800 0.00700000
v 0.00443800 -0.03370900 0.01100000
v 0.00326300 -0.02478600 0.01600000
v 0.00182700 -0.01388000 0.02000000
v 0.00569400 -0.02125000 0.00000000
v 0.00569400 -0.02125000 0.00400000
v 0.01035300 -0.03863700 0.00400000
v 0.01035300 -0.03863700 0.00700000
v 0.00880000 -0.03284100 0.01100000
v 0.00647000 -0.02414800 0.01600000
v 0.00362300 -0.01352300 0.02000000
v 0.00841900 -0.02032500 0.00000000
v 0.00841900 -0.02032500 0.00400000
v 0.01530700 -0.03695500 0.00400000
v 0.01530700 -0.03695500 0.00700000
v 0.01301100 -0.03141200 0.01100000
v 0.00956700 -0.02309700 0.01600000
v 0.00535800 -0.01293400 0.02000000
v 0.01100000 -0.01905300 0.00000000
v 0.01100000 -0.01905300 0.00400000
v 0.02000000 -0.03464100 0.00400000
v 0.02000000 -0.03464100 0.00700000
v 0.01700000 -0.02944500 0.01100000
v 0.01250000 -0.02165100 0.01600000
v 0.00700000 -0.01212400 0.02000000
v 0.01339300 -0.01745400 0.00000000
v 0.01339300 -0.01745400 0.00400000
v 0.02435000 -0.03173400 0.00400000
v 0.02435000 -0.03173400 0.00700000
v 0.02069800 -0.02697400 0.01100000
v 0.01521900 -0.01983400 0.01600000
v 0.00852300 -0.01110700 0.02000000
v 0.01555600 -0.01555600 0.00000000
v 0.01555600 -0.01555600 0.00400000
v 0.02828400 -0.02828400 0.00400000
v 0.02828400 -0.02828400 0.00700000
v 0.02404200 -0.02404200 0.01100000
v 0.01767800 -0.01767800 0.01600000
v 0.00990000 -0.00989900 0.02000000
v 0.01745400 -0.01339300 0.00000000
v 0.01745400 -0.01339300 0.00400000
v 0.03173400 -0.02435000 0.00400000
v 0.03173400 -0.02435000 0.00700000
v 0.02697400 -0.02069800 0.01100000
v 0.01983400 -0.01521900 0.01600000
v 0.01110700 -0.00852300 0.02000000
v 0.01905300 -0.01100000 0.00000000
v 0.01905300 -0.01100000 0.00400000
v 0.03464100 -0.02000000 0.00400000
v 0.03464100 -0.02000000 0.00700000
v 0.02944500 -0.01700000 0.01100000
v 0.02165100 -0.01250000 0.01600000
v 0.01212400 -0.00700000 0.02000000
v 0.02032500 -0.00841900 0.00000000
v 0.02032500 -0.00841900 0.00400000
v 0.03695500 -0.01530700 0.00400000
v 0.03695500 -0.01530700 0.00700000
v 0.03141200 -0.01301100 0.01100000
v 0.02309700 -0.00956700 0.01600000
v 0.01293400 -0.00535800 0.02000000
v 0.02125000 -0.00569400 0.00000000
v 0.02125000 -0.00569400 0.00400000
v 0.03863700 -0.01035300 0.00400000
v 0.03863700 -0.01035300 0.00700000
v 0.03284100 -0.00880000 0.01100000
v 0.02414800 -0.00647000 0.01600000
v 0.01352300 -0.00362300 0.02000000
v 0.02181200 -0.00287200 0.00000000
v 0.02181200 -0.00287200 0.00400000
v 0.03965800 -0.00522100 0.00400000
v 0.03965800 -0.00522100 0.00700000
v 0.03370900 -0.00443800 0.01100000
v 0.02478600 -0.00326300 0.01600000
v 0.01388000 -0.00182700 0.02000000
v 0.00000000 0.00000000 0.03200000
v 0.00000000 0.00250000 0.03133000
v 0.00000000 0.00353600 0.02346400
v 0.00000000 0.00000000 0.02200000
v 0.00033500 0.00125000 0.03183000
v 0.00064700 0.00241500 0.03133000
v 0.00091500 0.00341500 0.03053600
v 0.00112100 0.00418300 0.02950000
v 0.00125000 0.00466500 0.02829400
v 0.00129400 0.00483000 0.02700000
v 0.00125000 0.00466500 0.02570600
v 0.00112100 0.00418300 0.02450000
v 0.00091500 0.00341500 0.02346400
v 0.00064700 0.00241500 0.02267000
v 0.00033500 0.00125000 0.02217000
v 0.00064700 0.00112100 0.03183000
v 0.00125000 0.00216500 0.03133000
v 0.00176800 0.00306200 0.03053600
v 0.00216500 0.00375000 0.02950000
v 0.00241500 0.00418300 0.02829400
v 0.00250000 0.00433000 0.02700000
v 0.00241500 0.00418300 0.02570600
v 0.00216500 0.00375000 0.02450000
v 0.00176800 0.00306200 0.02346400
v 0.00125000 0.00216500 0.02267000
v 0.00064700 0.00112100 0.02217000
v 0.00091500 0.00091500 0.03183000
v 0.00176800 0.00176800 0.03133000
v 0.00250000 0.00250000 0.03053600
v 0.00306200 0.00306200 0.02950000
v 0.00341500 0.00341500 0.02829400
v 0.00353600 0.00353600 0.02700000
v 0.00341500 0.00341500 0.02570600
v 0.00306200 0.00306200 0.02450000
v 0.00250000 0.00250000 0.02346400
v 0.00176800 0.00176800 0.02267000
v 0.00091500 0.00091500 0.02217000
v 0.00112100 0.00064700 0.03183000
v 0.00216500 0.00125000 0.03133000
v 0.00306200 0.00176800 0.03053600
v 0.00375000 0.00216500 0.02950000
v 0.00418300 0.00241500 0.02829400
v 0.00433000 0.00250000 0.02700000
v 0.00418300 0.00241500 0.02570600
v 0.00375000 0.00216500 0.02450000
v 0.00306200 0.00176800 0.02346400
v 0.00216500 0.00125000 0.02267000
v 0.00112100 0.00064700 0.02217000
v 0.00125000 0.00033500 0.03183000
v 0.00241500 0.00064700 0.03133000
v 0.00341500 0.00091500 0.03053600
v 0.00418300 0.00112100 0.02950000
v 0.00466500 0.00125000 0.02829400
v 0.00483000 0.00129400 0.02700000
v 0.00466500 0.00125000 0.02570600
v 0.00418300 0.00112100 0.02450000
v 0.00341500 0.00091500 0.02346400
v 0.00241500 0.00064700 0.02267000
v 0.00125000 0.00033500 0.02217000
v 0.00129400 0.00000000 0.03183000
v 0.00250000 -0.00000000 0.03133000
v 0.00353600 -0.00000000 0.03053600
v 0.00433000 0.00000000 0.02950000
v 0.00483000 0.00000000 0.02829400
v 0.00500000 -0.00000000 0.02700000
v 0.00483000 0.00000000 0.02570600
v 0.00433000 0.00000000 0.02450000
v 0.00353600 -0.00000000 0.02346400
v 0.00250000 -0.00000000 0.02267000
v 0.00129400 0.00000000 0.02217000
v 0.00125000 -0.00033500 0.03183000
v 0.00241500 -0.00064700 0.03133000
v 0.00341500 -0.00091500 0.03053600
v 0.00418300 -0.00112100 0.02950000
v 0.00466500 -0.00125000 0.02829400
v 0.00483000 -0.00129400 0.02700000
v 0.00466500 -0.00125000 0.02570600
v 0.00418300 -0.00112100 0.02450000
v 0.00341500 -0.00091500 0.02346400
v 0.00241500 -0.00064700 0.02267000
v 0.00125000 -0.00033500 0.02217000
v 0.00112100 -0.00064700 0.03183000
v 0.00216500 -0.00125000 0.03133000
v 0.00306200 -0.00176800 0.03053600
v 0.00375000 -0.00216500 0.02950000
v 0.00418300 -0.00241500 0.02829400
v 0.00433000 -0.00250000 0.02700000
v 0.00418300 -0.00241500 0.02570600
v 0.00375000 -0.00216500 0.02450000
v 0.00306200 -0.00176800 0.02346400
v 0.00216500 -0.00125000 0.02267000
v 0.00112100 -0.00064700 0.02217000
v 0.00091500 -0.00091500 0.03183000
v 0.00176800 -0.00176800 0.03133000
v 0.00250000 -0.00250000 0.03053600
v 0.00306200 -0.00306200 0.02950000
v 0.00341500 -0.00341500 0.02829400
v 0.00353600 -0.00353600 0.02700000
v 0.00341500 -0.00341500 0.02570600
v 0.00306200 -0.00306200 0.02450000
v 0.00250000 -0.00250000 0.02346400
v 0.00176800 -0.00176800 0.02267000
v 0.00091500 -0.00091500 0.02217000
v 0.00064700 -0.00112100 0.03183000
v 0.00125000 -0.00216500 0.03133000
v 0.00176800 -0.00306200 0.03053600
v 0.00216500 -0.00375000 0.02950000
v 0.00241500 -0.00418300 0.02829400
v 0.00250000 -0.00433000 0.02700000
v 0.00241500 -0.00418300 0.02570600
v 0.00216500 -0.00375000 0.02450000
v 0.00176800 -0.00306200 0.02346400
v 0.00125000 -0.00216500 0.02267000
v 0.00064700 -0.00112100 0.02217000
v 0.00033500 -0.00125000 0.03183000
v 0.00064700 -0.00241500 0.03133000
v 0.00091500 -0.00341500 0.03053600
v 0.00112100 -0.00418300 0.02950000
v 0.00125000 -0.00466500 0.02829400
v 0.00129400 -0.00483000 0.02700000
v 0.00125000 -0.00466500 0.02570600
v 0.00112100 -0.00418300 0.02450000
v 0.00091500 -0.00341500 0.02346400
v 0.00064700 -0.00241500 0.02267000
v 0.00033500 -0.00125000 0.02217000
v -0.00000000 -0.00129400 0.03183000
v -0.00000000 -0.00250000 0.03133000
v -0.00000000 -0.00353600 0.03053600
v 0.00000000 -0.00433000 0.02950000
v 0.00000000 -0.00483000 0.02829400
v -0.00000000 -0.00500000 0.02700000
v 0.00000000 -0.00483000 0.02570600
v 0.00000000 -0.00433000 0.02450000
v -0.00000000 -0.00353600 0.02346400
v -0.00000000 -0.00250000 0.02267000
v -0.00000000 -0.00129400 0.02217000
v -0.00033500 -0.00125000 0.03183000
v -0.00064700 -0.00241500 0.03133000
v -0.00091500 -0.00341500 0.03053600
v -0.00112100 -0.00418300 0.02950000
v -0.00125000 -0.00466500 0.02829400
v -0.00129400 -0.00483000 0.02700000
v -0.00125000 -0.00466500 0.02570600
v -0.00112100 -0.00418300 0.02450000
v -0.00091500 -0.00341500 0.02346400
v -0.00064700 -0.00241500 0.02267000
v -0.00033500 -0.00125000 0.02217000
v -0.00064700 -0.00112100 0.03183000
v -0.00125000 -0.00216500 0.03133000
v -0.00176800 -0.00306200 0.03053600
v -0.00216500 -0.00375000 0.02950000
v -0.00241500 -0.00418300 0.02829400
v -0.00250000 -0.00433000 0.02700000
v -0.00241500 -0.00418300 0.02570600
v -0.00216500 -0.00375000 0.02450000
v -0.00176800 -0.00306200 0.02346400
v -0.00125000 -0.00216500 0.02267000
v -0.00064700 -0.00112100 0.02217000
v -0.00091500 -0.00091500 0.03183000
v -0.00176800 -0.00176800 0.03133000
v -0.00250000 -0.00250000 0.03053600
v -0.00306200 -0.00306200 0.02950000
v -0.00341500 -0.00341500 0.02829400
v -0.00353600 -0.00353600 0.02700000
v -0.00341500 -0.00341500 0.02570600
v -0.00306200 -0.00306200 0.02450000
v -0.00250000 -0.00250000 0.02346400
v -0.00176800 -0.00176800 0.02267000
v -0.00091500 -0.00091500 0.02217000
v -0.00112100 -0.00064700 0.03183000
v -0.00216500 -0.00125000 0.03133000
v -0.00306200 -0.00176800 0.03053600
v -0.00375000 -0.00216500 0.02950000
v -0.00418300 -0.00241500 0.02829400
v -0.00433000 -0.00250000 0.02700000
v -0.00418300 -0.00241500 0.02570600
v -0.00375000 -0.00216500 0.02450000
v -0.00306200 -0.00176800 0.02346400
v -0.00216500 -0.00125000 0.02267000
v -0.00112100 -0.00064700 0.02217000
v -0.00125000 -0.00033500 0.03183000
v -0.00241500 -0.00064700 0.03133000
v -0.00341500 -0.00091500 0.03053600
v -0.00418300 -0.00112100 0.02950000
v -0.00466500 -0.00125000 0.02829400
v -0.00483000 -0.00129400 0.02700000
v -0.00466500 -0.00125000 0.02570600
v -0.00418300 -0.00112100 0.02450000
v -0.00341500 -0.00091500 0.02346400
v -0.00241500 -0.00064700 0.02267000
v -0.00125000 -0.00033500 0.02217000
v -0.00129400 0.00000000 0.03183000
v -0.00250000 0.00000000 0.03133000
v -0.00353600 0.00000000 0.03053600
v -0.00433000 -0.00000000 0.02950000
v -0.00483000 -0.00000000 0.02829400
v -0.00500000 0.00000000 0.02700000
v -0.00483000 -0.00000000 0.02570600
v -0.00433000 -0.00000000 0.02450000
v -0.00353600 0.00000000 0.02346400
v -0.00250000 0.00000000 0.02267000
v -0.00129400 0.00000000 0.02217000
v -0.00125000 0.00033500 0.03183000
v -0.00241500 0.00064700 0.03133000
v -0.00341500 0.00091500 0.03053600
v -0.00418300 0.00112100 0.02950000
v -0.00466500 0.00125000 0.02829400
v -0.00483000 0.00129400 0.02700000
v -0.00466500 0.00125000 0.02570600
v -0.00418300 0.00112100 0.02450000
v -0.00341500 0.00091500 0.02346400
v -0.00241500 0.00064700 0.02267000
v -0.00125000 0.00033500 0.02217000
v -0.00112100 0.00064700 0.03183000
v -0.00216500 0.00125000 0.03133000
v -0.00306200 0.00176800 0.03053600
v -0.00375000 0.00216500 0.02950000
v -0.00418300 0.00241500 0.02829400
v -0.00433000 0.00250000 0.02700000
v -0.00418300 0.00241500 0.02570600
v -0.00375000 0.00216500 0.02450000
v -0.00306200 0.00176800 0.02346400
v -0.00216500 0.00125000 0.02267000
v -0.00112100 0.00064700 0.02217000
v -0.00091500 0.00091500 0.03183000
v -0.00176800 0.00176800 0.03133000
v -0.00250000 0.00250000 0.03053600
v -0.00306200 0.00306200 0.02950000
v -0.00341500 0.00341500 0.02829400
v -0.00353600 0.00353600 0.02700000
v -0.00341500 0.00341500 0.02570600
v -0.00306200 0.00306200 0.02450000
v -0.00250000 0.00250000 0.02346400
v -0.00176800 0.00176800 0.02267000
v -0.00091500 0.00091500 0.02217000
v -0.00064700 0.00112100 0.03183000
v -0.00125000 0.00216500 0.03133000
v -0.00176800 0.00306200 0.03053600
v -0.00216500 0.00375000 0.02950000
v -0.00241500 0.00418300 0.02829400
v -0.00250000 0.00433000 0.02700000
v -0.00241500 0.00418300 0.02570600
v -0.00216500 0.00375000 0.02450000
v -0.00176800 0.00306200 0.02346400
v -0.00125000 0.00216500 0.02267000
v -0.00064700 0.00112100 0.02217000
v -0.00033500 0.00125000 0.03183000
v -0.00064700 0.00241500 0.03133000
v -0.00091500 0.00341500 0.03053600
v -0.00112100 0.00418300 0.02950000
v -0.00125000 0.00466500 0.02829400
v -0.00129400 0.00483000 0.02700000
v -0.00125000 0.00466500 0.02570600
v -0.00112100 0.00418300 0.02450000
v -0.00091500 0.00341500 0.02346400
v -0.00064700 0.00241500 0.02267000
v -0.00033500 0.00125000 0.02217000
v 0.00000000 0.00129400 0.03183000
v 0.00000000 0.00353600 0.03053600
v -0.00000000 0.00433000 0.02950000
v -0.00000000 0.00483000 0.02829400
v 0.00000000 0.00500000 0.02700000
v -0.00000000 0.00483000 0.02570600
v -0.00000000 0.00433000 0.02450000
v 0.00000000 0.00250000 0.02267000
v 0.00000000 0.00129400 0.02217000
vn -0.00000000 -0.00000000 -1.00000000
vn 0.72120000 -0.00000000 -0.69270000
vn 0.69180000 -0.00000000 -0.72210000
vn 0.72120000 -0.00000000 -0.69270000
vn 0.88590000 -0.00000000 0.46390000
vn 0.52180000 -0.00000000 0.85310000
vn 0.41770000 -0.00000000 0.90860000
vn 0.24690000 -0.00000000 0.96900000
vn -0.00000000 -0.00000000 1.00000000
vn 0.71510000 0.09410000 -0.69270000
vn 0.68590000 0.09030000 -0.72210000
vn 0.71510000 0.09410000 -0.69270000
vn 0.87830000 0.11560000 0.46390000
vn 0.51740000 0.06810000 0.85310000
vn 0.41410000 0.05450000 0.90860000
vn 0.24480000 0.03220000 0.96900000
vn 0.69670000 0.18670000 -0.69270000
vn 0.66820000 0.17900000 -0.72210000
vn 0.69670000 0.18670000 -0.69270000
vn 0.85570000 0.22930000 0.46390000
vn 0.50400000 0.13510000 0.85310000
vn 0.40350000 0.10810000 0.90860000
vn 0.23850000 0.06390000 0.96900000
vn 0.66630000 0.27600000 -0.69270000
vn 0.63910000 0.26470000 -0.72210000
vn 0.66630000 0.27600000 -0.69270000
vn 0.81850000 0.33900000 0.46390000
vn 0.48210000 0.19970000 0.85310000
vn 0.38590000 0.15990000 0.90860000
vn 0.22810000 0.09450000 0.96900000
vn 0.62460000 0.36060000 -0.69270000
vn 0.59910000 0.34590000 -0.72210000
vn 0.62460000 0.36060000 -0.69270000
vn 0.76720000 0.44300000 0.46390000
vn 0.45190000 0.26090000 0.85310000
vn 0.36170000 0.20890000 0.90860000
vn 0.21380000 0.12350000 0.96900000
vn 0.57220000 0.43910000 -0.69270000
vn 0.54880000 0.42110000 -0.72210000
vn 0.57220000 0.43910000 -0.69270000
vn 0.70280000 0.53930000 0.46390000
vn 0.41400000 0.31770000 0.85310000
vn 0.33140000 0.25430000 0.90860000
vn 0.19590000 0.15030000 0.96900000
vn 0.51000000 0.51000000 -0.69270000
vn 0.48920000 0.48920000 -0.72210000
vn 0.51000000 0.51000000 -0.69270000
vn 0.62640000 0.62640000 0.46390000
vn 0.36900000 0.36900000 0.85310000
vn 0.29540000 0.29540000 0.90860000
vn 0.17460000 0.17460000 0.96900000
vn 0.43910000 0.57220000 -0.69270000
vn 0.42110000 0.54880000 -0.72210000
vn 0.43910000 0.57220000 -0.69270000
vn 0.53930000 0.70280000 0.46390000
vn 0.31770000 0.41400000 0.85310000
vn 0.25430000 0.33140000 0.90860000
vn 0.15030000 0.19590000 0.96900000
vn 0.36060000 0.62460000 -0.69270000
vn 0.34590000 0.59910000 -0.72210000
vn 0.36060000 0.62460000 -0.69270000
vn 0.44300000 0.76720000 0.46390000
vn 0.26090000 0.45190000 0.85310000
vn 0.20890000 0.36170000 0.90860000
vn 0.12350000 0.21380000 0.96900000
vn 0.27600000 0.66630000 -0.69270000
vn 0.26470000 0.63910000 -0.72210000
vn 0.27600000 0.66630000 -0.69270000
vn 0.33900000 0.81850000 0.46390000
vn 0.19970000 0.48210000 0.85310000
vn 0.15990000 0.38590000 0.90860000
vn 0.09450000 0.22810000 0.96900000
vn 0.18670000 0.69670000 -0.69270000
vn 0.17900000 0.66820000 -0.72210000
vn 0.18670000 0.69670000 -0.69270000
vn 0.22930000 0.85570000 0.46390000
vn 0.13510000 0.50400000 0.85310000
vn 0.10810000 0.40350000 0.90860000
vn 0.06390000 0.23850000 0.96900000
vn 0.09410000 0.71510000 -0.69270000
vn 0.09030000 0.68590000 -0.72210000
vn 0.09410000 0.71510000 -0.69270000
vn 0.11560000 0.87830000 0.46390000
vn 0.06810000 0.51740000 0.85310000
vn 0.05450000 0.41410000 0.90860000
vn 0.03220000 0.24480000 0.96900000
vn -0.00000000 0.72120000 -0.69270000
vn -0.00000000 0.69180000 -0.72210000
vn -0.00000000 0.72120000 -0.69270000
vn -0.00000000 0.88590000 0.46390000
vn -0.00000000 0.52180000 0.85310000
vn -0.00000000 0.41770000 0.90860000
vn -0.00000000 0.24690000 0.96900000
vn -0.09410000 0.71510000 -0.69270000
vn -0.09030000 0.68590000 -0.72210000
vn -0.09410000 0.71510000 -0.69270000
vn -0.11560000 0.87830000 0.46390000
vn -0.06810000 0.51740000 0.85310000
vn -0.05450000 0.41410000 0.90860000
vn -0.03220000 0.24480000 0.96900000
vn -0.18670000 0.69670000 -0.69270000
vn -0.17900000 0.66820000 -0.72210000
vn -0.18670000 0.69670000 -0.69270000
vn -0.22930000 0.85570000 0.46390000
vn -0.13510000 0.50400000 0.85310000
vn -0.10810000 0.40350000 0.90860000
vn -0.06390000 0.23850000 0.96900000
vn -0.27600000 0.66630000 -0.69270000
vn -0.26470000 0.63910000 -0.72210000
vn -0.27600000 0.66630000 -0.69270000
vn -0.33900000 0.81850000 0.46390000
vn -0.19970000 0.48210000 0.85310000
vn -0.15990000 0.38590000 0.90860000
vn -0.09450000 0.22810000 0.96900000
vn -0.36060000 0.62460000 -0.69270000
vn -0.34590000 0.59910000 -0.72210000
vn -0.36060000 0.62460000 -0.69270000
vn -0.44300000 0.76720000 0.46390000
vn -0.26090000 0.45190000 0.85310000
vn -0.20890000 0.36170000 0.90860000
vn -0.12350000 0.21380000 0.96900000
vn -0.43910000 0.57220000 -0.69270000
vn -0.42110000 0.54880000 -0.72210000
vn -0.43910000 0.57220000 -0.69270000
vn -0.53930000 0.70280000 0.46390000
vn -0.31770000 0.41400000 0.85310000
vn -0.25430000 0.33140000 0.90860000
vn -0.15030000 0.19590000 0.96900000
vn -0.51000000 0.51000000 -0.69270000
vn -0.48920000 0.48920000 -0.72210000
vn -0.51000000 0.51000000 -0.69270000
vn -0.62640000 0.62640000 0.46390000
vn -0.36900000 0.36900000 0.85310000
vn -0.29540000 0.29540000 0.90860000
vn -0.17460000 0.17460000 0.96900000
vn -0.57220000 0.43910000 -0.69270000
vn -0.54880000 0.42110000 -0.72210000
vn -0.57220000 0.43910000 -0.69270000
vn -0.70280000 0.53930000 0.46390000
vn -0.41400000 0.31770000 0.85310000
vn -0.33140000 0.25430000 0.90860000
vn -0.19590000 0.15030000 0.96900000
vn -0.62460000 0.36060000 -0.69270000
vn -0.59910000 0.34590000 -0.72210000
vn -0.62460000 0.36060000 -0.69270000
vn -0.76720000 0.44300000 0.46390000
vn -0.45190000 0.26090000 0.85310000
vn -0.36170000 0.20890000 0.90860000
vn -0.21380000 0.12350000 0.96900000
vn -0.66630000 0.27600000 -0.69270000
vn -0.63910000 0.26470000 -0.72210000
vn -0.66630000 0.27600000 -0.69270000
vn -0.81850000 0.33900000 0.46390000
vn -0.48210000 0.19970000 0.85310000
vn -0.38590000 0.15990000 0.90860000
vn -0.22810000 0.09450000 0.96900000
vn -0.69670000 0.18670000 -0.69270000
vn -0.66820000 0.17900000 -0.72210000
vn -0.69670000 0.18670000 -0.69270000
vn -0.85570000 0.22930000 0.46390000
vn -0.50400000 0.13510000 0.85310000
vn -0.40350000 0.10810000 0.90860000
vn -0.23850000 0.06390000 0.96900000
vn -0.71510000 0.09410000 -0.69270000
vn -0.68590000 0.09030000 -0.72210000
vn -0.71510000 0.09410000 -0.69270000
vn -0.87830000 0.11560000 0.46390000
vn -0.51740000 0.06810000 0.85310000
vn -0.41410000 0.05450000 0.90860000
vn -0.24480000 0.03220000 0.96900000
vn -0.72120000 -0.00000000 -0.69270000
vn -0.69180000 -0.00000000 -0.72210000
vn -0.72120000 -0.00000000 -0.69270000
vn -0.88590000 -0.00000000 0.46390000
vn -0.52180000 -0.00000000 0.85310000
vn -0.41770000 -0.00000000 0.90860000
vn -0.24690000 -0.00000000 0.96900000
vn -0.71510000 -0.09410000 -0.69270000
vn -0.68590000 -0.09030000 -0.72210000
vn -0.71510000 -0.09410000 -0.69270000
vn -0.87830000 -0.11560000 0.46390000
vn -0.51740000 -0.06810000 0.85310000
vn -0.41410000 -0.05450000 0.90860000
vn -0.24480000 -0.03220000 0.96900000
vn -0.69670000 -0.18670000 -0.69270000
vn -0.66820000 -0.17900000 -0.72210000
vn -0.69670000 -0.18670000 -0.69270000
vn -0.85570000 -0.22930000 0.46390000
vn -0.50400000 -0.13510000 0.85310000
vn -0.40350000 -0.10810000 0.90860000
vn -0.23850000 -0.06390000 0.96900000
vn -0.66630000 -0.27600000 -0.69270000
vn -0.63910000 -0.26470000 -0.72210000
vn -0.66630000 -0.27600000 -0.69270000
vn -0.81850000 -0.33900000 0.46390000
vn -0.48210000 -0.19970000 0.85310000
vn -0.38590000 -0.15990000 0.90860000
vn -0.22810000 -0.09450000 0.96900000
vn -0.62460000 -0.36060000 -0.69270000
vn -0.59910000 -0.34590000 -0.72210000
vn -0.62460000 -0.36060000 -0.69270000
vn -0.76720000 -0.44300000 0.46390000
vn -0.45190000 -0.26090000 0.85310000
vn -0.36170000 -0.20890000 0.90860000
vn -0.21380000 -0.12350000 0.96900000
vn -0.57220000 -0.43910000 -0.69270000
vn -0.54880000 -0.42110000 -0.72210000
vn -0.57220000 -0.43910000 -0.69270000
vn -0.70280000 -0.53930000 0.46390000
vn -0.41400000 -0.31770000 0.85310000
vn -0.33140000 -0.25430000 0.90860000
vn -0.19590000 -0.15030000 0.96900000
vn -0.51000000 -0.51000000 -0.69270000
vn -0.48920000 -0.48920000 -0.72210000
vn -0.51000000 -0.51000000 -0.69270000
vn -0.62640000 -0.62640000 0.46390000
vn -0.36900000 -0.36900000 0.85310000
vn -0.29540000 -0.29540000 0.90860000
vn -0.17460000 -0.17460000 0.96900000
vn -0.43910000 -0.57220000 -0.69270000
vn -0.42110000 -0.54880000 -0.72210000
vn -0.43910000 -0.57220000 -0.69270000
vn -0.53930000 -0.70280000 0.46390000
vn -0.31770000 -0.41400000 0.85310000
vn -0.25430000 -0.33140000 0.90860000
vn -0.15030000 -0.19590000 0.96900000
vn -0.36060000 -0.62460000 -0.69270000
vn -0.34590000 -0.59910000 -0.72210000
vn -0.36060000 -0.62460000 -0.69270000
vn -0.44300000 -0.76720000 0.46390000
vn -0.26090000 -0.45190000 0.85310000
vn -0.20890000 -0.36170000 0.90860000
vn -0.12350000 -0.21380000 0.96900000
vn -0.27600000 -0.66630000 -0.69270000
vn -0.26470000 -0.63910000 -0.72210000
vn -0.27600000 -0.66630000 -0.69270000
vn -0.33900000 -0.81850000 0.46390000
vn -0.19970000 -0.48210000 0.85310000
vn -0.15990000 -0.38590000 0.90860000
vn -0.09450000 -0.22810000 0.96900000
vn -0.18670000 -0.69670000 -0.69270000
vn -0.17900000 -0.66820000 -0.72210000
vn -0.18670000 -0.69670000 -0.69270000
vn -0.22930000 -0.85570000 0.46390000
vn -0.13510000 -0.50400000 0.85310000
vn -0.10810000 -0.40350000 0.90860000
vn -0.06390000 -0.23850000 0.96900000
vn -0.09410000 -0.71510000 -0.69270000
vn -0.09030000 -0.68590000 -0.72210000
vn -0.09410000 -0.71510000 -0.69270000
vn -0.11560000 -0.87830000 0.46390000
vn -0.06810000 -0.51740000 0.85310000
vn -0.05450000 -0.41410000 0.90860000
vn -0.03220000 -0.24480000 0.96900000
vn -0.00000000 -0.72120000 -0.69270000
vn -0.00000000 -0.69180000 -0.72210000
vn -0.00000000 -0.72120000 -0.69270000
vn -0.00000000 -0.88590000 0.46390000
vn -0.00000000 -0.52180000 0.85310000
vn -0.00000000 -0.41770000 0.90860000
vn -0.00000000 -0.24690000 0.96900000
vn 0.09410000 -0.71510000 -0.69270000
vn 0.09030000 -0.68590000 -0.72210000
vn 0.09410000 -0.71510000 -0.69270000
vn 0.11560000 -0.87830000 0.46390000
vn 0.06810000 -0.51740000 0.85310000
vn 0.05450000 -0.41410000 0.90860000
vn 0.03220000 -0.24480000 0.96900000
vn 0.18670000 -0.69670000 -0.69270000
vn 0.17900000 -0.66820000 -0.72210000
vn 0.18670000 -0.69670000 -0.69270000
vn 0.22930000 -0.85570000 0.46390000
vn 0.13510000 -0.50400000 0.85310000
vn 0.10810000 -0.40350000 0.90860000
vn 0.06390000 -0.23850000 0.96900000
vn 0.27600000 -0.66630000 -0.69270000
vn 0.26470000 -0.63910000 -0.72210000
vn 0.27600000 -0.66630000 -0.69270000
vn 0.33900000 -0.81850000 0.46390000
vn 0.19970000 -0.48210000 0.85310000
vn 0.15990000 -0.38590000 0.90860000
vn 0.09450000 -0.22810000 0.96900000
vn 0.36060000 -0.62460000 -0.69270000
vn 0.34590000 -0.59910000 -0.72210000
vn 0.36060000 -0.62460000 -0.69270000
vn 0.44300000 -0.76720000 0.46390000
vn 0.26090000 -0.45190000 0.85310000
vn 0.20890000 -0.36170000 0.90860000
vn 0.12350000 -0.21380000 0.96900000
vn 0.43910000 -0.57220000 -0.69270000
vn 0.42110000 -0.54880000 -0.72210000
vn 0.43910000 -0.57220000 -0.69270000
vn 0.53930000 -0.70280000 0.46390000
vn 0.31770000 -0.41400000 0.85310000
vn 0.25430000 -0.33140000 0.90860000
vn 0.15030000 -0.19590000 0.96900000
vn 0.51000000 -0.51000000 -0.69270000
vn 0.48920000 -0.48920000 -0.72210000
vn 0.51000000 -0.51000000 -0.69270000
vn 0.62640000 -0.62640000 0.46390000
vn 0.36900000 -0.36900000 0.85310000
vn 0.29540000 -0.29540000 0.90860000
vn 0.17460000 -0.17460000 0.96900000
vn 0.57220000 -0.43910000 -0.69270000
vn 0.54880000 -0.42110000 -0.72210000
vn 0.57220000 -0.43910000 -0.69270000
vn 0.70280000 -0.53930000 0.46390000
vn 0.41400000 -0.31770000 0.85310000
vn 0.33140000 -0.25430000 0.90860000
vn 0.19590000 -0.15030000 0.96900000
vn 0.62460000 -0.36060000 -0.69270000
vn 0.59910000 -0.34590000 -0.72210000
vn 0.62460000 -0.36060000 -0.69270000
vn 0.76720000 -0.44300000 0.46390000
vn 0.45190000 -0.26090000 0.85310000
vn 0.36170000 -0.20890000 0.90860000
vn 0.21380000 -0.12350000 0.96900000
vn 0.66630000 -0.27600000 -0.69270000
vn 0.63910000 -0.26470000 -0.72210000
vn 0.66630000 -0.27600000 -0.69270000
vn 0.81850000 -0.33900000 0.46390000
vn 0.48210000 -0.19970000 0.85310000
vn 0.38590000 -0.15990000 0.90860000
vn 0.22810000 -0.09450000 0.96900000
vn 0.69670000 -0.18670000 -0.69270000
vn 0.66820000 -0.17900000 -0.72210000
vn 0.69670000 -0.18670000 -0.69270000
vn 0.85570000 -0.22930000 0.46390000
vn 0.50400000 -0.13510000 0.85310000
vn 0.40350000 -0.10810000 0.90860000
vn 0.23850000 -0.06390000 0.96900000
vn 0.71510000 -0.09410000 -0.69270000
vn 0.68590000 -0.09030000 -0.72210000
vn 0.71510000 -0.09410000 -0.69270000
vn 0.87830000 -0.11560000 0.46390000
vn 0.51740000 -0.06810000 0.85310000
vn 0.41410000 -0.05450000 0.90860000
vn 0.24480000 -0.03220000 0.96900000
vn -0.00000000 -0.00000000 1.00000000
vn -0.00000000 0.50810000 0.86130000
vn -0.00000000 0.71250000 -0.70170000
vn -0.00000000 -0.00000000 -1.00000000
vn 0.06960000 0.25970000 0.96320000
vn 0.13150000 0.49080000 0.86130000
vn 0.18440000 0.68820000 0.70170000
vn 0.22480000 0.83910000 0.49540000
vn 0.25020000 0.93370000 0.25610000
vn 0.25880000 0.96590000 -0.00000000
vn 0.25020000 0.93370000 -0.25610000
vn 0.22480000 0.83910000 -0.49540000
vn 0.18440000 0.68820000 -0.70170000
vn 0.13150000 0.49080000 -0.86130000
vn 0.06960000 0.25970000 -0.96320000
vn 0.13450000 0.23290000 0.96320000
vn 0.25400000 0.44000000 0.86130000
vn 0.35620000 0.61700000 0.70170000
vn 0.43430000 0.75230000 0.49540000
vn 0.48330000 0.83710000 0.25610000
vn 0.50000000 0.86600000 -0.00000000
vn 0.48330000 0.83710000 -0.25610000
vn 0.43430000 0.75230000 -0.49540000
vn 0.35620000 0.61700000 -0.70170000
vn 0.25400000 0.44000000 -0.86130000
vn 0.13450000 0.23290000 -0.96320000
vn 0.19010000 0.19010000 0.96320000
vn 0.35930000 0.35930000 0.86130000
vn 0.50380000 0.50380000 0.70170000
vn 0.61430000 0.61430000 0.49540000
vn 0.68350000 0.68350000 0.25610000
vn 0.70710000 0.70710000 -0.00000000
vn 0.68350000 0.68350000 -0.25610000
vn 0.61430000 0.61430000 -0.49540000
vn 0.50380000 0.50380000 -0.70170000
vn 0.35930000 0.35930000 -0.86130000
vn 0.19010000 0.19010000 -0.96320000
vn 0.23290000 0.13450000 0.96320000
vn 0.44000000 0.25400000 0.86130000
vn 0.61700000 0.35620000 0.70170000
vn 0.75230000 0.43430000 0.49540000
vn 0.83710000 0.48330000 0.25610000
vn 0.86600000 0.50000000 -0.00000000
vn 0.83710000 0.48330000 -0.25610000
vn 0.75230000 0.43430000 -0.49540000
vn 0.61700000 0.35620000 -0.70170000
vn 0.44000000 0.25400000 -0.86130000
vn 0.23290000 0.13450000 -0.96320000
vn 0.25970000 0.06960000 0.96320000
vn 0.49070000 0.13150000 0.86130000
vn 0.68820000 0.18440000 0.70170000
vn 0.83910000 0.22480000 0.49540000
vn 0.93370000 0.25020000 0.25610000
vn 0.96590000 0.25880000 -0.00000000
vn 0.93370000 0.25020000 -0.25610000
vn 0.83910000 0.22480000 -0.49540000
vn 0.68820000 0.18440000 -0.70170000
vn 0.49080000 0.13150000 -0.86130000
vn 0.25970000 0.06960000 -0.96320000
vn 0.26890000 -0.00000000 0.96320000
vn 0.50810000 -0.00000000 0.86130000
vn 0.71250000 -0.00000000 0.70170000
vn 0.86870000 -0.00000000 0.49540000
vn 0.96660000 -0.00000000 0.25610000
vn 1.00000000 -0.00000000 -0.00000000
vn 0.96660000 -0.00000000 -0.25610000
vn 0.86870000 -0.00000000 -0.49540000
vn 0.71250000 -0.00000000 -0.70170000
vn 0.50810000 -0.00000000 -0.86130000
vn 0.26890000 -0.00000000 -0.96320000
vn 0.25970000 -0.06960000 0.96320000
vn 0.49080000 -0.13150000 0.86130000
vn 0.68820000 -0.18440000 0.70170000
vn 0.83910000 -0.22480000 0.49540000
vn 0.93370000 -0.25020000 0.25610000
vn 0.96590000 -0.25880000 -0.00000000
vn 0.93370000 -0.25020000 -0.25610000
vn 0.83910000 -0.22480000 -0.49540000
vn 0.68820000 -0.18440000 -0.70170000
vn 0.49080000 -0.13150000 -0.86130000
vn 0.25970000 -0.06960000 -0.96320000
vn 0.23290000 -0.13450000 0.96320000
vn 0.44000000 -0.25400000 0.86130000
vn 0.61700000 -0.35620000 0.70170000
vn 0.75230000 -0.43430000 0.49540000
vn 0.83710000 -0.48330000 0.25610000
vn 0.86600000 -0.50000000 -0.00000000
vn 0.83710000 -0.48330000 -0.25610000
vn 0.75230000 -0.43430000 -0.49540000
vn 0.61700000 -0.35620000 -0.70170000
vn 0.44000000 -0.25400000 -0.86130000
vn 0.23290000 -0.13450000 -0.96320000
vn 0.19010000 -0.19010000 0.96320000
vn 0.35930000 -0.35930000 0.86130000
vn 0.50380000 -0.50380000 0.70170000
vn 0.61430000 -0.61430000 0.49540000
vn 0.68350000 -0.68350000 0.25610000
vn 0.70710000 -0.70710000 -0.00000000
vn 0.68350000 -0.68350000 -0.25610000
vn 0.61430000 -0.61430000 -0.49540000
vn 0.50380000 -0.50380000 -0.70170000
vn 0.35930000 -0.35930000 -0.86130000
vn 0.19010000 -0.19010000 -0.96320000
vn 0.13450000 -0.23290000 0.96320000
vn 0.25400000 -0.44000000 0.86130000
vn 0.35620000 -0.61700000 0.70170000
vn 0.43430000 -0.75230000 0.49540000
vn 0.48330000 -0.83710000 0.25610000
vn 0.50000000 -0.86600000 -0.00000000
vn 0.48330000 -0.83710000 -0.25610000
vn 0.43430000 -0.75230000 -0.49540000
vn 0.35620000 -0.61700000 -0.70170000
vn 0.25400000 -0.44000000 -0.86130000
vn 0.13450000 -0.23290000 -0.96320000
vn 0.06960000 -0.25970000 0.96320000
vn 0.13150000 -0.49080000 0.86130000
vn 0.18440000 -0.68820000 0.70170000
vn 0.22480000 -0.83910000 0.49540000
vn 0.25020000 -0.93370000 0.25610000
vn 0.25880000 -0.96590000 -0.00000000
vn 0.25020000 -0.93370000 -0.25610000
vn 0.22480000 -0.83910000 -0.49540000
vn 0.18440000 -0.68820000 -0.70170000
vn 0.13150000 -0.49080000 -0.86130000
vn 0.06960000 -0.25970000 -0.96320000
vn -0.00000000 -0.26890000 0.96320000
vn -0.00000000 -0.50810000 0.86130000
vn -0.00000000 -0.71250000 0.70170000
vn -0.00000000 -0.86870000 0.49540000
vn -0.00000000 -0.96660000 0.25610000
vn -0.00000000 -1.00000000 -0.00000000
vn -0.00000000 -0.96660000 -0.25610000
vn -0.00000000 -0.86870000 -0.49540000
vn -0.00000000 -0.71250000 -0.70170000
vn -0.00000000 -0.50810000 -0.86130000
vn -0.00000000 -0.26890000 -0.96320000
vn -0.06960000 -0.25970000 0.96320000
vn -0.13150000 -0.49080000 0.86130000
vn -0.18440000 -0.68820000 0.70170000
vn -0.22480000 -0.83910000 0.49540000
vn -0.25020000 -0.93370000 0.25610000
vn -0.25880000 -0.96590000 -0.00000000
vn -0.25020000 -0.93370000 -0.25610000
vn -0.22480000 -0.83910000 -0.49540000
vn -0.18440000 -0.68820000 -0.70170000
vn -0.13150000 -0.49080000 -0.86130000
vn -0.06960000 -0.25970000 -0.96320000
vn -0.13450000 -0.23290000 0.96320000
vn -0.25400000 -0.44000000 0.86130000
vn -0.35620000 -0.61700000 0.70170000
vn -0.43430000 -0.75230000 0.49540000
vn -0.48330000 -0.83710000 0.25610000
vn -0.50000000 -0.86600000 -0.00000000
vn -0.48330000 -0.83710000 -0.25610000
vn -0.43430000 -0.75230000 -0.49540000
vn -0.35620000 -0.61700000 -0.70170000
vn -0.25400000 -0.44000000 -0.86130000
vn -0.13450000 -0.23290000 -0.96320000
vn -0.19010000 -0.19010000 0.96320000
vn -0.35930000 -0.35930000 0.86130000
vn -0.50380000 -0.50380000 0.70170000
vn -0.61430000 -0.61430000 0.49540000
vn -0.68350000 -0.68350000 0.25610000
vn -0.70710000 -0.70710000 -0.00000000
vn -0.68350000 -0.68350000 -0.25610000
vn -0.61430000 -0.61430000 -0.49540000
vn -0.50380000 -0.50380000 -0.70170000
vn -0.35930000 -0.35930000 -0.86130000
vn -0.19010000 -0.19010000 -0.96320000
vn -0.23290000 -0.13450000 0.96320000
vn -0.44000000 -0.25400000 0.86130000
vn -0.61700000 -0.35620000 0.70170000
vn -0.75230000 -0.43430000 0.49540000
vn -0.83710000 -0.48330000 0.25610000
vn -0.86600000 -0.50000000 -0.00000000
vn -0.83710000 -0.48330000 -0.25610000
vn -0.75230000 -0.43430000 -0.49540000
vn -0.61700000 -0.35620000 -0.70170000
vn -0.44000000 -0.25400000 -0.86130000
vn -0.23290000 -0.13450000 -0.96320000
vn -0.25970000 -0.06960000 0.96320000
vn -0.49080000 -0.13150000 0.86130000
vn -0.68820000 -0.18440000 0.70170000
vn -0.83910000 -0.22480000 0.49540000
vn -0.93370000 -0.25020000 0.25610000
vn -0.96590000 -0.25880000 -0.00000000
vn -0.93370000 -0.25020000 -0.25610000
vn -0.83910000 -0.22480000 -0.49540000
vn -0.68820000 -0.18440000 -0.70170000
vn -0.49070000 -0.13150000 -0.86130000
vn -0.25970000 -0.06960000 -0.96320000
vn -0.26890000 -0.00000000 0.96320000
vn -0.50810000 -0.00000000 0.86130000
vn -0.71250000 -0.00000000 0.70170000
vn -0.86870000 -0.00000000 0.49540000
vn -0.96660000 -0.00000000 0.25610000
vn -1.00000000 -0.00000000 -0.00000000
vn -0.96660000 -0.00000000 -0.25610000
vn -0.86870000 -0.00000000 -0.49540000
vn -0.71250000 -0.00000000 -0.70170000
vn -0.50810000 -0.00000000 -0.86130000
vn -0.26890000 -0.00000000 -0.96320000
vn -0.25970000 0.06960000 0.96320000
vn -0.49080000 0.13150000 0.86130000
vn -0.68820000 0.18440000 0.70170000
vn -0.83910000 0.22480000 0.49540000
vn -0.93370000 0.25020000 0.25610000
vn -0.96590000 0.25880000 -0.00000000
vn -0.93370000 0.25020000 -0.25610000
vn -0.83910000 0.22480000 -0.49540000
vn -0.68820000 0.18440000 -0.70170000
vn -0.49080000 0.13150000 -0.86130000
vn -0.25970000 0.06960000 -0.96320000
vn -0.23290000 0.13450000 0.96320000
vn -0.44000000 0.25400000 0.86130000
vn -0.61700000 0.35620000 0.70170000
vn -0.75230000 0.43430000 0.49540000
vn -0.83710000 0.48330000 0.25610000
vn -0.86600000 0.50000000 -0.00000000
vn -0.83710000 0.48330000 -0.25610000
vn -0.75230000 0.43430000 -0.49540000
vn -0.61700000 0.35620000 -0.70170000
vn -0.44000000 0.25400000 -0.86130000
vn -0.23290000 0.13450000 -0.96320000
vn -0.19010000 0.19010000 0.96320000
vn -0.35930000 0.35930000 0.86130000
vn -0.50380000 0.50380000 0.70170000
vn -0.61430000 0.61430000 0.49540000
vn -0.68350000 0.68350000 0.25610000
vn -0.70710000 0.70710000 -0.00000000
vn -0.68350000 0.68350000 -0.25610000
vn -0.61430000 0.61430000 -0.49540000
vn -0.50380000 0.50380000 -0.70170000
vn -0.35930000 0.35930000 -0.86130000
vn -0.19010000 0.19010000 -0.96320000
vn -0.13450000 0.23290000 0.96320000
vn -0.25400000 0.44000000 0.86130000
vn -0.35620000 0.61700000 0.70170000
vn -0.43430000 0.75230000 0.49540000
vn -0.48330000 0.83710000 0.25610000
vn -0.50000000 0.86600000 -0.00000000
vn -0.48330000 0.83710000 -0.25610000
vn -0.43430000 0.75230000 -0.49540000
vn -0.35620000 0.61700000 -0.70170000
vn -0.25400000 0.44000000 -0.86130000
vn -0.13450000 0.23290000 -0.96320000
vn -0.06960000 0.25970000 0.96320000
vn -0.13150000 0.49080000 0.86130000
vn -0.18440000 0.68820000 0.70170000
vn -0.22480000 0.83910000 0.49540000
vn -0.25020000 0.93370000 0.25610000
vn -0.25880000 0.96590000 -0.00000000
vn -0.25020000 0.93370000 -0.25610000
vn -0.22480000 0.83910000 -0.49540000
vn -0.18440000 0.68820000 -0.70170000
vn -0.13150000 0.49080000 -0.86130000
vn -0.06960000 0.25970000 -0.96320000
vn -0.00000000 0.26890000 0.96320000
vn -0.00000000 0.71250000 0.70170000
vn -0.00000000 0.86870000 0.49540000
vn -0.00000000 0.96660000 0.25610000
vn -0.00000000 1.00000000 -0.00000000
vn -0.00000000 0.96660000 -0.25610000
vn -0.00000000 0.86870000 -0.49540000
vn -0.00000000 0.50810000 -0.86130000
vn -0.00000000 0.26890000 -0.96320000
f 8//8 16//16 9//9
f 6//6 14//14 15//15
f 15//15 7//7 6//6
f 4//4 12//12 13//13
f 13//13 5//5 4//4
f 2//2 10//10 11//11
f 11//11 3//3 2//2
f 7//7 15//15 16//16
f 16//16 8//8 7//7
f 5//5 13//13 14//14
f 14//14 6//6 5//5
f 3//3 11//11 12//12
f 12//12 4//4 3//3
f 1//1 10//10 2//2
f 10//10 17//17 18//18
f 18//18 11//11 10//10
f 15//15 22//22 23//23
f 23//23 16//16 15//15
f 13//13 20//20 21//21
f 21//21 14//14 13//13
f 11//11 18//18 19//19
f 19//19 12//12 11//11
f 1//1 17//17 10//10
f 16//16 23//23 9//9
f 14//14 21//21 22//22
f 22//22 15//15 14//14
f 12//12 19//19 20//20
f 20//20 13//13 12//12
f 22//22 29//29 30//30
f 30//30 23//23 22//22
f 20//20 27//27 28//28
f 28//28 21//21 20//20
f 18//18 25//25 26//26
f 26//26 19//19 18//18
f 1//1 24//24 17//17
f 23//23 30//30 9//9
f 21//21 28//28 29//29
f 29//29 22//22 21//21
f 19//19 26//26 27//27
f 27//27 20//20 19//19
f 17//17 24//24 25//25
f 25//25 18//18 17//17
f 1//1 31//31 24//24
f 30//30 37//37 9//9
f 28//28 35//35 36//36
f 36//36 29//29 28//28
f 26//26 33//33 34//34
f 34//34 27//27 26//26
f 24//24 31//31 32//32
f 32//32 25//25 24//24
f 29//29 36//36 37//37
f 37//37 30//30 29//29
f 27//27 34//34 35//35
f 35//35 28//28 27//27
f 25//25 32//32 33//33
f 33//33 26//26 25//25
f 35//35 42//42 43//43
f 43//43 36//36 35//35
f 33//33 40//40 41//41
f 41//41 34//34 33//33
f 31//31 38//38 39//39
f 39//39 32//32 31//31
f 36//36 43//43 44//44
f 44//44 37//37 36//36
f 34//34 41//41 42//42
f 42//42 35//35 34//34
f 32//32 39//39 40//40
f 40//40 33//33 32//32
f 1//1 38//38 31//31
f 37//37 44//44 9//9
f 43//43 50//50 51//51
f 51//51 44//44 43//43
f 41//41 48//48 49//49
f 49//49 42//42 41//41
f 39//39 46//46 47//47
f 47//47 40//40 39//39
f 1//1 45//45 38//38
f 44//44 51//51 9//9
f 42//42 49//49 50//50
f 50//50 43//43 42//42
f 40//40 47//47 48//48
f 48//48 41//41 40//40
f 38//38 45//45 46//46
f 46//46 39//39 38//38
f 48//48 55//55 56//56
f 56//56 49//49 48//48
f 46//46 53//53 54//54
f 54//54 47//47 46//46
f 1//1 52//52 45//45
f 51//51 58//58 9//9
f 49//49 56//56 57//57
f 57//57 50//50 49//49
f 47//47 54//54 55//55
f 55//55 48//48 47//47
f 45//45 52//52 53//53
f 53//53 46//46 45//45
f 50//50 57//57 58//58
f 58//58 51//51 50//50
f 58//58 65//65 9//9
f 56//56 63//63 64//64
f 64//64 57//57 56//56
f 54//54 61//61 62//62
f 62//62 55//55 54//54
f 52//52 59//59 60//60
f 60//60 53//53 52//52
f 57//57 64//64 65//65
f 65//65 58//58 57//57
f 55//55 62//62 63//63
f 63//63 56//56 55//55
f 53//53 60//60 61//61
f 61//61 54//54 53//53
f 1//1 59//59 52//52
f 61//61 68//68 69//69
f 69//69 62//62 61//61
f 59//59 66//66 67//67
f 67//67 60//60 59//59
f 64//64 71//71 72//72
f 72//72 65//65 64//64
f 62//62 69//69 70//70
f 70//70 63//63 62//62
f 60//60 67//67 68//68
f 68//68 61//61 60//60
f 1//1 66//66 59//59
f 65//65 72//72 9//9
f 63//63 70//70 71//71
f 71//71 64//64 63//63
f 71//71 78//78 79//79
f 79//79 72//72 71//71
f 69//69 76//76 77//77
f 77//77 70//70 69//69
f 67//67 74//74 75//75
f 75//75 68//68 67//67
f 1//1 73//73 66//66
f 72//72 79//79 9//9
f 70//70 77//77 78//78
f 78//78 71//71 70//70
f 68//68 75//75 76//76
f 76//76 69//69 68//68
f 66//66 73//73 74//74
f 74//74 67//67 66//66
f 74//74 81//81 82//82
f 82//82 75//75 74//74
f 1//1 80//80 73//73
f 79//79 86//86 9//9
f 77//77 84//84 85//85
f 85//85 78//78 77//77
f 75//75 82//82 83//83
f 83//83 76//76 75//75
f 73//73 80//80 81//81
f 81//81 74//74 73//73
f 78//78 85//85 86//86
f 86//86 79//79 78//78
f 76//76 83//83 84//84
f 84//84 77//77 76//76
f 86//86 93//93 9//9
f 84//84 91//91 92//92
f 92//92 85//85 84//84
f 82//82 89//89 90//90
f 90//90 83//83 82//82
f 80//80 87//87 88//88
f 88//88 81//81 80//80
f 85//85 92//92 93//93
f 93//93 86//86 85//85
f 83//83 90//90 91//91
f 91//91 84//84 83//83
f 81//81 88//88 89//89
f 89//89 82//82 81//81
f 1//1 87//87 80//80
f 87//87 94//94 95//95
f 95//95 88//88 87//87
f 92//92 99//99 100//100
f 100//100 93//93 92//92
f 90//90 97//97 98//98
f 98//98 91//91 90//90
f 88//88 95//95 96//96
f 96//96 89//89 88//88
f 1//1 94//94 87//87
f 93//93 100//100 9//9
f 91//91 98//98 99//99
f 99//99 92//92 91//91
f 89//89 96//96 97//97
f 97//97 90//90 89//89
f 99//99 106//106 107//107
f 107//107 100//100 99//99
f 97//97 104//104 105//105
f 105//105 98//98 97//97
f 95//95 102//102 103//103
f 103//103 96//96 95//95
f 1//1 101//101 94//94
f 100//100 107//107 9//9
f 98//98 105//105 106//106
f 106//106 99//99 98//98
f 96//96 103//103 104//104
f 104//104 97//97 96//96
f 94//94 101//101 102//102
f 102//102 95//95 94//94
f 1//1 108//108 101//101
f 107//107 114//114 9//9
f 105//105 112//112 113//113
f 113//113 106//106 105//105
f 103//103 110//110 111//111
f 111//111 104//104 103//103
f 101//101 108//108 109//109
f 109//109 102//102 101//101
f 106//106 113//113 114//114
f 114//114 107//107 106//106
f 104//104 111//111 112//112
f 112//112 105//105 104//104
f 102//102 109//109 110//110
f 110//110 103//103 102//102
f 112//112 119//119 120//120
f 120//120 113//113 112//112
f 110//110 117//117 118//118
f 118//118 111//111 110//110
f 108//108 115//115 116//116
f 116//116 109//109 108//108
f 113//113 120//120 121//121
f 121//121 114//114 113//113
f 111//111 118//118 119//119
f 119//119 112//112 111//111
f 109//109 116//116 117//117
f 117//117 110//110 109//109
f 1//1 115//115 108//108
f 114//114 121//121 9//9
f 120//120 127//127 128//128
f 128//128 121//121 120//120
f 118//118 125//125 126//126
f 126//126 119//119 118//118
f 116//116 123//123 124//124
f 124//124 117//117 116//116
f 1//1 122//122 115//115
f 121//121 128//128 9//9
f 119//119 126//126 127//127
f 127//127 120//120 119//119
f 117//117 124//124 125//125
f 125//125 118//118 117//117
f 115//115 122//122 123//123
f 123//123 116//116 115//115
f 125//125 132//132 133//133
f 133//133 126//126 125//125
f 123//123 130//130 131//131
f 131//131 124//124 123//123
f 1//1 129//129 122//122
f 128//128 135//135 9//9
f 126//126 133//133 134//134
f 134//134 127//127 126//126
f 124//124 131//131 132//132
f 132//132 125//125 124//124
f 122//122 129//129 130//130
f 130//130 123//123 122//122
f 127//127 134//134 135//135
f 135//135 128//128 127//127
f 135//135 142//142 9//9
f 133//133 140//140 141//141
f 141//141 134//134 133//133
f 131//131 138//138 139//139
f 139//139 132//132 131//131
f 129//129 136//136 137//137
f 137//137 130//130 129//129
f 134//134 141//141 142//142
f 142//142 135//135 134//134
f 132//132 139//139 140//140
f 140//140 133//133 132//132
f 130//130 137//137 138//138
f 138//138 131//131 130//130
f 1//1 136//136 129//129
f 138//138 145//145 146//146
f 146//146 139//139 138//138
f 136//136 143//143 144//144
f 144//144 137//137 136//136
f 141//141 148//148 149//149
f 149//149 142//142 141//141
f 139//139 146//146 147//147
f 147//147 140//140 139//139
f 137//137 144//144 145//145
f 145//145 138//138 137//137
f 1//1 143//143 136//136
f 142//142 149//149 9//9
f 140//140 147//147 148//148
f 148//148 141//141 140//140
f 148//148 155//155 156//156
f 156//156 149//149 148//148
f 146//146 153//153 154//154
f 154//154 147//147 146//146
f 144//144 151//151 152//152
f 152//152 145//145 144//144
f 1//1 150//150 143//143
f 149//149 156//156 9//9
f 147//147 154//154 155//155
f 155//155 148//148 147//147
f 145//145 152//152 153//153
f 153//153 146//146 145//145
f 143//143 150//150 151//151
f 151//151 144//144 143//143
f 151//151 158//158 159//159
f 159//159 152//152 151//151
f 1//1 157//157 150//150
f 156//156 163//163 9//9
f 154//154 161//161 162//162
f 162//162 155//155 154//154
f 152//152 159//159 160//160
f 160//160 153//153 152//152
f 150//150 157//157 158//158
f 158//158 151//151 150//150
f 155//155 162//162 163//163
f 163//163 156//156 155//155
f 153//153 160//160 161//161
f 161//161 154//154 153//153
f 163//163 170//170 9//9
f 161//161 168//168 169//169
f 169//169 162//162 161//161
f 159//159 166//166 167//167
f 167//167 160//160 159//159
f 157//157 164//164 165//165
f 165//165 158//158 157//157
f 162//162 169//169 170//170
f 170//170 163//163 162//162
f 160//160 167//167 168//168
f 168//168 161//161 160//160
f 158//158 165//165 166//166
f 166//166 159//159 158//158
f 1//1 164//164 157//157
f 164//164 171//171 172//172
f 172//172 165//165 164//164
f 169//169 176//176 177//177
f 177//177 170//170 169//169
f 167//167 174//174 175//175
f 175//175 168//168 167//167
f 165//165 172//172 173//173
f 173//173 166//166 165//165
f 1//1 171//171 164//164
f 170//170 177//177 9//9
f 168//168 175//175 176//176
f 176//176 169//169 168//168
f 166//166 173//173 174//174
f 174//174 167//167 166//166
f 176//176 183//183 184//184
f 184//184 177//177 176//176
f 174//174 181//181 182//182
f 182//182 175//175 174//174
f 172//172 179//179 180//180
f 180//180 173//173 172//172
f 1//1 178//178 171//171
f 177//177 184//184 9//9
f 175//175 182//182 183//183
f 183//183 176//176 175//175
f 173//173 180//180 181//181
f 181//181 174//174 173//173
f 171//171 178//178 179//179
f 179//179 172//172 171//171
f 1//1 185//185 178//178
f 184//184 191//191 9//9
f 182//182 189//189 190//190
f 190//190 183//183 182//182
f 180//180 187//187 188//188
f 188//188 181//181 180//180
f 178//178 185//185 186//186
f 186//186 179//179 178//178
f 183//183 190//190 191//191
f 191//191 184//184 183//183
f 181//181 188//188 189//189
f 189//189 182//182 181//181
f 179//179 186//186 187//187
f 187//187 180//180 179//179
f 189//189 196//196 197//197
f 197//197 190//190 189//189
f 187//187 194//194 195//195
f 195//195 188//188 187//187
f 185//185 192//192 193//193
f 193//193 186//186 185//185
f 190//190 197//197 198//198
f 198//198 191//191 190//190
f 188//188 195//195 196//196
f 196//196 189//189 188//188
f 186//186 193//193 194//194
f 194//194 187//187 186//186
f 1//1 192//192 185//185
f 191//191 198//198 9//9
f 197//197 204//204 205//205
f 205//205 198//198 197//197
f 195//195 202//202 203//203
f 203//203 196//196 195//195
f 193//193 200//200 201//201
f 201//201 194//194 193//193
f 1//1 199//199 192//192
f 198//198 205//205 9//9
f 196//196 203//203 204//204
f 204//204 197//197 196//196
f 194//194 201//201 202//202
f 202//202 195//195 194//194
f 192//192 199//199 200//200
f 200//200 193//193 192//192
f 202//202 209//209 210//210
f 210//210 203//203 202//202
f 200//200 207//207 208//208
f 208//208 201//201 200//200
f 1//1 206//206 199//199
f 205//205 212//212 9//9
f 203//203 210//210 211//211
f 211//211 204//204 203//203
f 201//201 208//208 209//209
f 209//209 202//202 201//201
f 199//199 206//206 207//207
f 207//207 200//200 199//199
f 204//204 211//211 212//212
f 212//212 205//205 204//204
f 212//212 219//219 9//9
f 210//210 217//217 218//218
f 218//218 211//211 210//210
f 208//208 215//215 216//216
f 216//216 209//209 208//208
f 206//206 213//213 214//214
f 214//214 207//207 206//206
f 211//211 218//218 219//219
f 219//219 212//212 211//211
f 209//209 216//216 217//217
f 217//217 210//210 209//209
f 207//207 214//214 215//215
f 215//215 208//208 207//207
f 1//1 213//213 206//206
f 215//215 222//222 223//223
f 223//223 216//216 215//215
f 213//213 220//220 221//221
f 221//221 214//214 213//213
f 218//218 225//225 226//226
f 226//226 219//219 218//218
f 216//216 223//223 224//224
f 224//224 217//217 216//216
f 214//214 221//221 222//222
f 222//222 215//215 214//214
f 1//1 220//220 213//213
f 219//219 226//226 9//9
f 217//217 224//224 225//225
f 225//225 218//218 217//217
f 225//225 232//232 233//233
f 233//233 226//226 225//225
f 223//223 230//230 231//231
f 231//231 224//224 223//223
f 221//221 228//228 229//229
f 229//229 222//222 221//221
f 1//1 227//227 220//220
f 226//226 233//233 9//9
f 224//224 231//231 232//232
f 232//232 225//225 224//224
f 222//222 229//229 230//230
f 230//230 223//223 222//222
f 220//220 227//227 228//228
f 228//228 221//221 220//220
f 228//228 235//235 236//236
f 236//236 229//229 228//228
f 1//1 234//234 227//227
f 233//233 240//240 9//9
f 231//231 238//238 239//239
f 239//239 232//232 231//231
f 229//229 236//236 237//237
f 237//237 230//230 229//229
f 227//227 234//234 235//235
f 235//235 228//228 227//227
f 232//232 239//239 240//240
f 240//240 233//233 232//232
f 230//230 237//237 238//238
f 238//238 231//231 230//230
f 240//240 247//247 9//9
f 238//238 245//245 246//246
f 246//246 239//239 238//238
f 236//236 243//243 244//244
f 244//244 237//237 236//236
f 234//234 241//241 242//242
f 242//242 235//235 234//234
f 239//239 246//246 247//247
f 247//247 240//240 239//239
f 237//237 244//244 245//245
f 245//245 238//238 237//237
f 235//235 242//242 243//243
f 243//243 236//236 235//235
f 1//1 241//241 234//234
f 241//241 248//248 249//249
f 249//249 242//242 241//241
f 246//246 253//253 254//254
f 254//254 247//247 246//246
f 244//244 251//251 252//252
f 252//252 245//245 244//244
f 242//242 249//249 250//250
f 250//250 243//243 242//242
f 1//1 248//248 241//241
f 247//247 254//254 9//9
f 245//245 252//252 253//253
f 253//253 246//246 245//245
f 243//243 250//250 251//251
f 251//251 244//244 243//243
f 253//253 260//260 261//261
f 261//261 254//254 253//253
f 251//251 258//258 259//259
f 259//259 252//252 251//251
f 249//249 256//256 257//257
f 257//257 250//250 249//249
f 1//1 255//255 248//248
f 254//254 261//261 9//9
f 252//252 259//259 260//260
f 260//260 253//253 252//252
f 250//250 257//257 258//258
f 258//258 251//251 250//250
f 248//248 255//255 256//256
f 256//256 249//249 248//248
f 1//1 262//262 255//255
f 261//261 268//268 9//9
f 259//259 266//266 267//267
f 267//267 260//260 259//259
f 257//257 264//264 265//265
f 265//265 258//258 257//257
f 255//255 262//262 263//263
f 263//263 256//256 255//255
f 260//260 267//267 268//268
f 268//268 261//261 260//260
f 258//258 265//265 266//266
f 266//266 259//259 258//258
f 256//256 263//263 264//264
f 264//264 257//257 256//256
f 266//266 273//273 274//274
f 274//274 267//267 266//266
f 264//264 271//271 272//272
f 272//272 265//265 264//264
f 262//262 269//269 270//270
f 270//270 263//263 262//262
f 267//267 274//274 275//275
f 275//275 268//268 267//267
f 265//265 272//272 273//273
f 273//273 266//266 265//265
f 263//263 270//270 271//271
f 271//271 264//264 263//263
f 1//1 269//269 262//262
f 268//268 275//275 9//9
f 274//274 281//281 282//282
f 282//282 275//275 274//274
f 272//272 279//279 280//280
f 280//280 273//273 272//272
f 270//270 277//277 278//278
f 278//278 271//271 270//270
f 1//1 276//276 269//269
f 275//275 282//282 9//9
f 273//273 280//280 281//281
f 281//281 274//274 273//273
f 271//271 278//278 279//279
f 279//279 272//272 271//271
f 269//269 276//276 277//277
f 277//277 270//270 269//269
f 279//279 286//286 287//287
f 287//287 280//280 279//279
f 277//277 284//284 285//285
f 285//285 278//278 277//277
f 1//1 283//283 276//276
f 282//282 289//289 9//9
f 280//280 287//287 288//288
f 288//288 281//281 280//280
f 278//278 285//285 286//286
f 286//286 279//279 278//278
f 276//276 283//283 284//284
f 284//284 277//277 276//276
f 281//281 288//288 289//289
f 289//289 282//282 281//281
f 289//289 296//296 9//9
f 287//287 294//294 295//295
f 295//295 288//288 287//287
f 285//285 292//292 293//293
f 293//293 286//286 285//285
f 283//283 290//290 291//291
f 291//291 284//284 283//283
f 288//288 295//295 296//296
f 296//296 289//289 288//288
f 286//286 293//293 294//294
f 294//294 287//287 286//286
f 284//284 291//291 292//292
f 292//292 285//285 284//284
f 1//1 290//290 283//283
f 292//292 299//299 300//300
f 300//300 293//293 292//292
f 290//290 297//297 298//298
f 298//298 291//291 290//290
f 295//295 302//302 303//303
f 303//303 296//296 295//295
f 293//293 300//300 301//301
f 301//301 294//294 293//293
f 291//291 298//298 299//299
f 299//299 292//292 291//291
f 1//1 297//297 290//290
f 296//296 303//303 9//9
f 294//294 301//301 302//302
f 302//302 295//295 294//294
f 302//302 309//309 310//310
f 310//310 303//303 302//302
f 300//300 307//307 308//308
f 308//308 301//301 300//300
f 298//298 305//305 306//306
f 306//306 299//299 298//298
f 1//1 304//304 297//297
f 303//303 310//310 9//9
f 301//301 308//308 309//309
f 309//309 302//302 301//301
f 299//299 306//306 307//307
f 307//307 300//300 299//299
f 297//297 304//304 305//305
f 305//305 298//298 297//297
f 305//305 312//312 313//313
f 313//313 306//306 305//305
f 1//1 311//311 304//304
f 310//310 317//317 9//9
f 308//308 315//315 316//316
f 316//316 309//309 308//308
f 306//306 313//313 314//314
f 314//314 307//307 306//306
f 304//304 311//311 312//312
f 312//312 305//305 304//304
f 309//309 316//316 317//317
f 317//317 310//310 309//309
f 307//307 314//314 315//315
f 315//315 308//308 307//307
f 317//317 324//324 9//9
f 315//315 322//322 323//323
f 323//323 316//316 315//315
f 313//313 320//320 321//321
f 321//321 314//314 313//313
f 311//311 318//318 319//319
f 319//319 312//312 311//311
f 316//316 323//323 324//324
f 324//324 317//317 316//316
f 314//314 321//321 322//322
f 322//322 315//315 314//314
f 312//312 319//319 320//320
f 320//320 313//313 312//312
f 1//1 318//318 311//311
f 318//318 325//325 326//326
f 326//326 319//319 318//318
f 323//323 330//330 331//331
f 331//331 324//324 323//323
f 321//321 328//328 329//329
f 329//329 322//322 321//321
f 319//319 326//326 327//327
f 327//327 320//320 319//319
f 1//1 325//325 318//318
f 324//324 331//331 9//9
f 322//322 329//329 330//330
f 330//330 323//323 322//322
f 320//320 327//327 328//328
f 328//328 321//321 320//320
f 330//330 337//337 338//338
f 338//338 331//331 330//330
f 328//328 335//335 336//336
f 336//336 329//329 328//328
f 326//326 333//333 334//334
f 334//334 327//327 326//326
f 1//1 332//332 325//325
f 331//331 338//338 9//9
f 329//329 336//336 337//337
f 337//337 330//330 329//329
f 327//327 334//334 335//335
f 335//335 328//328 327//327
f 325//325 332//332 333//333
f 333//333 326//326 325//325
f 1//1 2//2 332//332
f 338//338 8//8 9//9
f 336//336 6//6 7//7
f 7//7 337//337 336//336
f 334//334 4//4 5//5
f 5//5 335//335 334//334
f 332//332 2//2 3//3
f 3//3 333//333 332//332
f 337//337 7//7 8//8
f 8//8 338//338 337//337
f 335//335 5//5 6//6
f 6//6 336//336 335//335
f 333//333 3//3 4//4
f 4//4 334//334 333//333
f 597//597 340//340 344//344
f 344//344 345//345 597//597
f 603//603 341//341 351//351
f 351//351 352//352 603//603
f 601//601 600//600 348//348
f 348//348 349//349 601//601
f 598//598 597//597 345//345
f 345//345 346//346 598//598
f 604//604 603//603 352//352
f 352//352 353//353 604//604
f 596//596 339//339 343//343
f 602//602 601//601 349//349
f 349//349 350//350 602//602
f 599//599 598//598 346//346
f 346//346 347//347 599//599
f 342//342 604//604 353//353
f 340//340 596//596 343//343
f 343//343 344//344 340//340
f 341//341 602//602 350//350
f 350//350 351//351 341//341
f 600//600 599//599 347//347
f 347//347 348//348 600//600
f 343//343 339//339 354//354
f 350//350 349//349 360//360
f 360//360 361//361 350//350
f 347//347 346//346 357//357
f 357//357 358//358 347//347
f 342//342 353//353 364//364
f 344//344 343//343 354//354
f 354//354 355//355 344//344
f 351//351 350//350 361//361
f 361//361 362//362 351//351
f 348//348 347//347 358//358
f 358//358 359//359 348//348
f 345//345 344//344 355//355
f 355//355 356//356 345//345
f 352//352 351//351 362//362
f 362//362 363//363 352//352
f 349//349 348//348 359//359
f 359//359 360//360 349//349
f 346//346 345//345 356//356
f 356//356 357//357 346//346
f 353//353 352//352 363//363
f 363//363 364//364 353//353
f 363//363 362//362 373//373
f 373//373 374//374 363//363
f 360//360 359//359 370//370
f 370//370 371//371 360//360
f 357//357 356//356 367//367
f 367//367 368//368 357//357
f 364//364 363//363 374//374
f 374//374 375//375 364//364
f 354//354 339//339 365//365
f 361//361 360//360 371//371
f 371//371 372//372 361//361
f 358//358 357//357 368//368
f 368//368 369//369 358//358
f 342//342 364//364 375//375
f 355//355 354//354 365//365
f 365//365 366//366 355//355
f 362//362 361//361 372//372
f 372//372 373//373 362//362
f 359//359 358//358 369//369
f 369//369 370//370 359//359
f 356//356 355//355 366//366
f 366//366 367//367 356//356
f 366//366 365//365 376//376
f 376//376 377//377 366//366
f 373//373 372//372 383//383
f 383//383 384//384 373//373
f 370//370 369//369 380//380
f 380//380 381//381 370//370
f 367//367 366//366 377//377
f 377//377 378//378 367//367
f 374//374 373//373 384//384
f 384//384 385//385 374//374
f 371//371 370//370 381//381
f 381//381 382//382 371//371
f 368//368 367//367 378//378
f 378//378 379//379 368//368
f 375//375 374//374 385//385
f 385//385 386//386 375//375
f 365//365 339//339 376//376
f 372//372 371//371 382//382
f 382//382 383//383 372//372
f 369//369 368//368 379//379
f 379//379 380//380 369//369
f 342//342 375//375 386//386
f 386//386 385//385 396//396
f 396//396 397//397 386//386
f 376//376 339//339 387//387
f 383//383 382//382 393//393
f 393//393 394//394 383//383
f 380//380 379//379 390//390
f 390//390 391//391 380//380
f 342//342 386//386 397//397
f 377//377 376//376 387//387
f 387//387 388//388 377//377
f 384//384 383//383 394//394
f 394//394 395//395 384//384
f 381//381 380//380 391//391
f 391//391 392//392 381//381
f 378//378 377//377 388//388
f 388//388 389//389 378//378
f 385//385 384//384 395//395
f 395//395 396//396 385//385
f 382//382 381//381 392//392
f 392//392 393//393 382//382
f 379//379 378//378 389//389
f 389//389 390//390 379//379
f 389//389 388//388 399//399
f 399//399 400//400 389//389
f 396//396 395//395 406//406
f 406//406 407//407 396//396
f 393//393 392//392 403//403
f 403//403 404//404 393//393
f 390//390 389//389 400//400
f 400//400 401//401 390//390
f 397//397 396//396 407//407
f 407//407 408//408 397//397
f 387//387 339//339 398//398
f 394//394 393//393 404//404
f 404//404 405//405 394//394
f 391//391 390//390 401//401
f 401//401 402//402 391//391
f 342//342 397//397 408//408
f 388//388 387//387 398//398
f 398//398 399//399 388//388
f 395//395 394//394 405//405
f 405//405 406//406 395//395
f 392//392 391//391 402//402
f 402//402 403//403 392//392
f 342//342 408//408 419//419
f 399//399 398//398 409//409
f 409//409 410//410 399//399
f 406//406 405//405 416//416
f 416//416 417//417 406//406
f 403//403 402//402 413//413
f 413//413 414//414 403//403
f 400//400 399//399 410//410
f 410//410 411//411 400//400
f 407//407 406//406 417//417
f 417//417 418//418 407//407
f 404//404 403//403 414//414
f 414//414 415//415 404//404
f 401//401 400//400 411//411
f 411//411 412//412 401//401
f 408//408 407//407 418//418
f 418//418 419//419 408//408
f 398//398 339//339 409//409
f 405//405 404//404 415//415
f 415//415 416//416 405//405
f 402//402 401//401 412//412
f 412//412 413//413 402//402
f 412//412 411//411 422//422
f 422//422 423//423 412//412
f 419//419 418//418 429//429
f 429//429 430//430 419//419
f 409//409 339//339 420//420
f 416//416 415//415 426//426
f 426//426 427//427 416//416
f 413//413 412//412 423//423
f 423//423 424//424 413//413
f 342//342 419//419 430//430
f 410//410 409//409 420//420
f 420//420 421//421 410//410
f 417//417 416//416 427//427
f 427//427 428//428 417//417
f 414//414 413//413 424//424
f 424//424 425//425 414//414
f 411//411 410//410 421//421
f 421//421 422//422 411//411
f 418//418 417//417 428//428
f 428//428 429//429 418//418
f 415//415 414//414 425//425
f 425//425 426//426 415//415
f 422//422 421//421 432//432
f 432//432 433//433 422//422
f 429//429 428//428 439//439
f 439//439 440//440 429//429
f 426//426 425//425 436//436
f 436//436 437//437 426//426
f 423//423 422//422 433//433
f 433//433 434//434 423//423
f 430//430 429//429 440//440
f 440//440 441//441 430//430
f 420//420 339//339 431//431
f 427//427 426//426 437//437
f 437//437 438//438 427//427
f 424//424 423//423 434//434
f 434//434 435//435 424//424
f 342//342 430//430 441//441
f 421//421 420//420 431//431
f 431//431 432//432 421//421
f 428//428 427//427 438//438
f 438//438 439//439 428//428
f 425//425 424//424 435//435
f 435//435 436//436 425//425
f 435//435 434//434 445//445
f 445//445 446//446 435//435
f 342//342 441//441 452//452
f 432//432 431//431 442//442
f 442//442 443//443 432//432
f 439//439 438//438 449//449
f 449//449 450//450 439//439
f 436//436 435//435 446//446
f 446//446 447//447 436//436
f 433//433 432//432 443//443
f 443//443 444//444 433//433
f 440//440 439//439 450//450
f 450//450 451//451 440//440
f 437//437 436//436 447//447
f 447//447 448//448 437//437
f 434//434 433//433 444//444
f 444//444 445//445 434//434
f 441//441 440//440 451//451
f 451//451 452//452 441//441
f 431//431 339//339 442//442
f 438//438 437//437 448//448
f 448//448 449//449 438//438
f 445//445 444//444 455//455
f 455//455 456//456 445//445
f 452//452 451//451 462//462
f 462//462 463//463 452//452
f 442//442 339//339 453//453
f 449//449 448//448 459//459
f 459//459 460//460 449//449
f 446//446 445//445 456//456
f 456//456 457//457 446//446
f 342//342 452//452 463//463
f 443//443 442//442 453//453
f 453//453 454//454 443//443
f 450//450 449//449 460//460
f 460//460 461//461 450//450
f 447//447 446//446 457//457
f 457//457 458//458 447//447
f 444//444 443//443 454//454
f 454//454 455//455 444//444
f 451//451 450//450 461//461
f 461//461 462//462 451//451
f 448//448 447//447 458//458
f 458//458 459//459 448//448
f 458//458 457//457 468//468
f 468//468 469//469 458//458
f 455//455 454//454 465//465
f 465//465 466//466 455//455
f 462//462 461//461 472//472
f 472//472 473//473 462//462
f 459//459 458//458 469//469
f 469//469 470//470 459//459
f 456//456 455//455 466//466
f 466//466 467//467 456//456
f 463//463 462//462 473//473
f 473//473 474//474 463//463
f 453//453 339//339 464//464
f 460//460 459//459 470//470
f 470//470 471//471 460//460
f 457//457 456//456 467//467
f 467//467 468//468 457//457
f 342//342 463//463 474//474
f 454//454 453//453 464//464
f 464//464 465//465 454//454
f 461//461 460//460 471//471
f 471//471 472//472 461//461
f 468//468 467//467 478//478
f 478//478 479//479 468//468
f 342//342 474//474 485//485
f 465//465 464//464 475//475
f 475//475 476//476 465//465
f 472//472 471//471 482//482
f 482//482 483//483 472//472
f 469//469 468//468 479//479
f 479//479 480//480 469//469
f 466//466 465//465 476//476
f 476//476 477//477 466//466
f 473//473 472//472 483//483
f 483//483 484//484 473//473
f 470//470 469//469 480//480
f 480//480 481//481 470//470
f 467//467 466//466 477//477
f 477//477 478//478 467//467
f 474//474 473//473 484//484
f 484//484 485//485 474//474
f 464//464 339//339 475//475
f 471//471 470//470 481//481
f 481//481 482//482 471//471
f 481//481 480//480 491//491
f 491//491 492//492 481//481
f 478//478 477//477 488//488
f 488//488 489//489 478//478
f 485//485 484//484 495//495
f 495//495 496//496 485//485
f 475//475 339//339 486//486
f 482//482 481//481 492//492
f 492//492 493//493 482//482
f 479//479 478//478 489//489
f 489//489 490//490 479//479
f 342//342 485//485 496//496
f 476//476 475//475 486//486
f 486//486 487//487 476//476
f 483//483 482//482 493//493
f 493//493 494//494 483//483
f 480//480 479//479 490//490
f 490//490 491//491 480//480
f 477//477 476//476 487//487
f 487//487 488//488 477//477
f 484//484 483//483 494//494
f 494//494 495//495 484//484
f 491//491 490//490 501//501
f 501//501 502//502 491//491
f 488//488 487//487 498//498
f 498//498 499//499 488//488
f 495//495 494//494 505//505
f 505//505 506//506 495//495
f 492//492 491//491 502//502
f 502//502 503//503 492//492
f 489//489 488//488 499//499
f 499//499 500//500 489//489
f 496//496 495//495 506//506
f 506//506 507//507 496//496
f 486//486 339//339 497//497
f 493//493 492//492 503//503
f 503//503 504//504 493//493
f 490//490 489//489 500//500
f 500//500 501//501 490//490
f 342//342 496//496 507//507
f 487//487 486//486 497//497
f 497//497 498//498 487//487
f 494//494 493//493 504//504
f 504//504 505//505 494//494
f 504//504 503//503 514//514
f 514//514 515//515 504//504
f 501//501 500//500 511//511
f 511//511 512//512 501//501
f 342//342 507//507 518//518
f 498//498 497//497 508//508
f 508//508 509//509 498//498
f 505//505 504//504 515//515
f 515//515 516//516 505//505
f 502//502 501//501 512//512
f 512//512 513//513 502//502
f 499//499 498//498 509//509
f 509//509 510//510 499//499
f 506//506 505//505 516//516
f 516//516 517//517 506//506
f 503//503 502//502 513//513
f 513//513 514//514 503//503
f 500//500 499//499 510//510
f 510//510 511//511 500//500
f 507//507 506//506 517//517
f 517//517 518//518 507//507
f 497//497 339//339 508//508
f 514//514 513//513 524//524
f 524//524 525//525 514//514
f 511//511 510//510 521//521
f 521//521 522//522 511//511
f 518//518 517//517 528//528
f 528//528 529//529 518//518
f 508//508 339//339 519//519
f 515//515 514//514 525//525
f 525//525 526//526 515//515
f 512//512 511//511 522//522
f 522//522 523//523 512//512
f 342//342 518//518 529//529
f 509//509 508//508 519//519
f 519//519 520//520 509//509
f 516//516 515//515 526//526
f 526//526 527//527 516//516
f 513//513 512//512 523//523
f 523//523 524//524 513//513
f 510//510 509//509 520//520
f 520//520 521//521 510//510
f 517//517 516//516 527//527
f 527//527 528//528 517//517
f 527//527 526//526 537//537
f 537//537 538//538 527//527
f 524//524 523//523 534//534
f 534//534 535//535 524//524
f 521//521 520//520 531//531
f 531//531 532//532 521//521
f 528//528 527//527 538//538
f 538//538 539//539 528//528
f 525//525 524//524 535//535
f 535//535 536//536 525//525
f 522//522 521//521 532//532
f 532//532 533//533 522//522
f 529//529 528//528 539//539
f 539//539 540//540 529//529
f 519//519 339//339 530//530
f 526//526 525//525 536//536
f 536//536 537//537 526//526
f 523//523 522//522 533//533
f 533//533 534//534 523//523
f 342//342 529//529 540//540
f 520//520 519//519 530//530
f 530//530 531//531 520//520
f 530//530 339//339 541//541
f 537//537 536//536 547//547
f 547//547 548//548 537//537
f 534//534 533//533 544//544
f 544//544 545//545 534//534
f 342//342 540//540 551//551
f 531//531 530//530 541//541
f 541//541 542//542 531//531
f 538//538 537//537 548//548
f 548//548 549//549 538//538
f 535//535 534//534 545//545
f 545//545 546//546 535//535
f 532//532 531//531 542//542
f 542//542 543//543 532//532
f 539//539 538//538 549//549
f 549//549 550//550 539//539
f 536//536 535//535 546//546
f 546//546 547//547 536//536
f 533//533 532//532 543//543
f 543//543 544//544 533//533
f 540//540 539//539 550//550
f 550//550 551//551 540//540
f 550//550 549//549 560//560
f 560//560 561//561 550//550
f 547//547 546//546 557//557
f 557//557 558//558 547//547
f 544//544 543//543 554//554
f 554//554 555//555 544//544
f 551//551 550//550 561//561
f 561//561 562//562 551//551
f 541//541 339//339 552//552
f 548//548 547//547 558//558
f 558//558 559//559 548//548
f 545//545 544//544 555//555
f 555//555 556//556 545//545
f 342//342 551//551 562//562
f 542//542 541//541 552//552
f 552//552 553//553 542//542
f 549//549 548//548 559//559
f 559//559 560//560 549//549
f 546//546 545//545 556//556
f 556//556 557//557 546//546
f 543//543 542//542 553//553
f 553//553 554//554 543//543
f 553//553 552//552 563//563
f 563//563 564//564 553//553
f 560//560 559//559 570//570
f 570//570 571//571 560//560
f 557//557 556//556 567//567
f 567//567 568//568 557//557
f 554//554 553//553 564//564
f 564//564 565//565 554//554
f 561//561 560//560 571//571
f 571//571 572//572 561//561
f 558//558 557//557 568//568
f 568//568 569//569 558//558
f 555//555 554//554 565//565
f 565//565 566//566 555//555
f 562//562 561//561 572//572
f 572//572 573//573 562//562
f 552//552 339//339 563//563
f 559//559 558//558 569//569
f 569//569 570//570 559//559
f 556//556 555//555 566//566
f 566//566 567//567 556//556
f 342//342 562//562 573//573
f 573//573 572//572 583//583
f 583//583 584//584 573//573
f 563//563 339//339 574//574
f 570//570 569//569 580//580
f 580//580 581//581 570//570
f 567//567 566//566 577//577
f 577//577 578//578 567//567
f 342//342 573//573 584//584
f 564//564 563//563 574//574
f 574//574 575//575 564//564
f 571//571 570//570 581//581
f 581//581 582//582 571//571
f 568//568 567//567 578//578
f 578//578 579//579 568//568
f 565//565 564//564 575//575
f 575//575 576//576 565//565
f 572//572 571//571 582//582
f 582//582 583//583 572//572
f 569//569 568//568 579//579
f 579//579 580//580 569//569
f 566//566 565//565 576//576
f 576//576 577//577 566//566
f 576//576 575//575 586//586
f 586//586 587//587 576//576
f 583//583 582//582 593//593
f 593//593 594//594 583//583
f 580//580 579//579 590//590
f 590//590 591//591 580//580
f 577//577 576//576 587//587
f 587//587 588//588 577//577
f 584//584 583//583 594//594
f 594//594 595//595 584//584
f 574//574 339//339 585//585
f 581//581 580//580 591//591
f 591//591 592//592 581//581
f 578//578 577//577 588//588
f 588//588 589//589 578//578
f 342//342 584//584 595//595
f 575//575 574//574 585//585
f 585//585 586//586 575//575
f 582//582 581//581 592//592
f 592//592 593//593 582//582
f 579//579 578//578 589//589
f 589//589 590//590 579//579
f 342//342 595//595 604//604
f 586//586 585//585 596//596
f 596//596 340//340 586//586
f 593//593 592//592 602//602
f 602//602 341//341 593//593
f 590//590 589//589 599//599
f 599//599 600//600 590//590
f 587//587 586//586 340//340
f 340//340 597//597 587//587
f 594//594 593//593 341//341
f 341//341 603//603 594//594
f 591//591 590//590 600//600
f 600//600 601//601 591//591
f 588//588 587//587 597//597
f 597//597 598//598 588//588
f 595//595 594//594 603//603
f 603//603 604//604 595//595
f 585//585 339//339 596//596
f 592//592 591//591 601//601
f 601//601 602//602 592//592
f 589//589 588//588 598//598
f 598//598 599//599 589//589

