# https://github.com/mikedh/trimesh
v 0.00500000 0.00000000 0.02699983
v 0.00482968 -0.00129307 0.02699983
v 0.00482968 0.00000000 0.02570643
v 0.00482968 0.00129307 0.02699983
v 0.00482968 0.00000000 0.02829323
v 0.00432948 -0.00250000 0.02699983
v 0.00418265 -0.00241484 0.02570643
v 0.00466425 -0.00125000 0.02570643
v 0.00466425 -0.00125000 0.02829323
v 0.00418265 -0.00241484 0.02829323
v 0.00418265 -0.00112079 0.02450023
v 0.00432948 0.00000000 0.02450023
v 0.00418265 0.00112079 0.02450023
v 0.00466425 0.00125000 0.02570643
v 0.00418265 0.00241484 0.02570643
v 0.00432948 0.00250000 0.02699983
v 0.00418265 0.00241484 0.02829323
v 0.00466425 0.00125000 0.02829323
v 0.00418265 0.00112079 0.02949942
v 0.00432948 0.00000000 0.02949942
v 0.00418265 -0.00112079 0.02949942
v 0.00353563 -0.00353563 0.02699983
v 0.00341425 -0.00341425 0.02570643
v 0.00306186 -0.00306186 0.02450023
v 0.00375000 -0.00216425 0.02450023
v 0.00375000 -0.00216425 0.02949942
v 0.00306186 -0.00306186 0.02949942
v 0.00341425 -0.00341425 0.02829323
v 0.00306186 -0.00176782 0.02346453
v 0.00341425 -0.00091425 0.02346453
v 0.00353563 0.00000000 0.02346453
v 0.00341425 0.00091425 0.02346453
v 0.00306186 0.00176782 0.02346453
v 0.00375000 0.00216425 0.02450023
v 0.00306186 0.00306186 0.02450023
v 0.00341425 0.00341425 0.02570643
v 0.00353563 0.00353563 0.02699983
v 0.00341425 0.00341425 0.02829323
v 0.00306186 0.00306186 0.02949942
v 0.00375000 0.00216425 0.02949942
v 0.00306186 0.00176782 0.03053512
v 0.00341425 0.00091425 0.03053512
v 0.00353563 0.00000000 0.03053512
v 0.00341425 -0.00091425 0.03053512
v 0.00306186 -0.00176782 0.03053512
v 0.00250000 -0.00432948 0.02699983
v 0.00241484 -0.00418265 0.02570643
v 0.00241484 -0.00418265 0.02829323
v 0.00216425 -0.00375000 0.02450023
v 0.00176782 -0.00306186 0.02346453
v 0.00250000 -0.00250000 0.02346453
v 0.00216425 -0.00375000 0.02949942
v 0.00250000 -0.00250000 0.03053512
v 0.00176782 -0.00306186 0.03053512
v 0.00176782 -0.00176782 0.02267085
v 0.00216425 -0.00125000 0.02267085
v 0.00241484 -0.00064605 0.02267085
v 0.00250000 0.00000000 0.02267085
v 0.00241484 0.00064605 0.02267085
v 0.00216425 0.00125000 0.02267085
v 0.00176782 0.00176782 0.02267085
v 0.00250000 0.00250000 0.02346453
v 0.00176782 0.00306186 0.02346453
v 0.00216425 0.00375000 0.02450023
v 0.00241484 0.00418265 0.02570643
v 0.00250000 0.00432948 0.02699983
v 0.00241484 0.00418265 0.02829323
v 0.00216425 0.00375000 0.02949942
v 0.00176782 0.00306186 0.03053512
v 0.00250000 0.00250000 0.03053512
v 0.00176782 0.00176782 0.03132978
v 0.00216425 0.00125000 0.03132978
v 0.00241484 0.00064605 0.03132978
v 0.00250000 0.00000000 0.03132978
v 0.00241484 -0.00064605 0.03132978
v 0.00216425 -0.00125000 0.03132978
v 0.00176782 -0.00176782 0.03132978
v 0.00129307 -0.00482968 0.02699983
v 0.00125000 -0.00466425 0.02570643
v 0.00112079 -0.00418265 0.02450023
v 0.00112079 -0.00418265 0.02949942
v 0.00125000 -0.00466425 0.02829323
v 0.00091425 -0.00341425 0.02346453
v 0.00064605 -0.00241484 0.02267085
v 0.00125000 -0.00216425 0.02267085
v 0.00125000 -0.00216425 0.03132978
v 0.00064605 -0.00241484 0.03132978
v 0.00091425 -0.00341425 0.03053512
v 0.00064605 -0.00112079 0.02217015
v 0.00091425 -0.00091425 0.02217015
v 0.00112079 -0.00064605 0.02217015
v 0.00125000 -0.00033477 0.02217015
v 0.00129307 0.00000000 0.02217015
v 0.00125000 0.00033477 0.02217015
v 0.00112079 0.00064605 0.02217015
v 0.00091425 0.00091425 0.02217015
v 0.00064605 0.00112079 0.02217015
v 0.00125000 0.00216425 0.02267085
v 0.00064605 0.00241484 0.02267085
v 0.00091425 0.00341425 0.02346453
v 0.00112079 0.00418265 0.02450023
v 0.00125000 0.00466425 0.02570643
v 0.00129307 0.00482968 0.02699983
v 0.00125000 0.00466425 0.02829323
v 0.00112079 0.00418265 0.02949942
v 0.00091425 0.00341425 0.03053512
v 0.00064605 0.00241484 0.03132978
v 0.00125000 0.00216425 0.03132978
v 0.00064605 0.00112079 0.03182951
v 0.00091425 0.00091425 0.03182951
v 0.00112079 0.00064605 0.03182951
v 0.00125000 0.00033477 0.03182951
v 0.00129307 0.00000000 0.03182951
v 0.00125000 -0.00033477 0.03182951
v 0.00112079 -0.00064605 0.03182951
v 0.00091425 -0.00091425 0.03182951
v 0.00064605 -0.00112079 0.03182951
v 0.00000000 -0.00500000 0.02699983
v 0.00000000 -0.00482968 0.02570643
v 0.00000000 -0.00482968 0.02829323
v 0.00000000 -0.00432948 0.02450023
v 0.00000000 -0.00353563 0.02346453
v 0.00000000 -0.00432948 0.02949942
v 0.00000000 -0.00353563 0.03053512
v 0.00000000 -0.00250000 0.02267085
v 0.00033477 -0.00125000 0.02217015
v 0.00033477 -0.00125000 0.03182951
v 0.00000000 -0.00250000 0.03132978
v 0.00002643 -0.00006558 0.02199084
v 0.00003524 -0.00006069 0.02199084
v 0.00004307 -0.00005579 0.02199084
v 0.00004992 -0.00004992 0.02199084
v 0.00005579 -0.00004307 0.02199084
v 0.00006069 -0.00003524 0.02199084
v 0.00006558 -0.00002643 0.02199084
v 0.00006852 -0.00001762 0.02199084
v 0.00007048 0.00000000 0.02199084
v 0.00006852 0.00001762 0.02199084
v 0.00006558 0.00002643 0.02199084
v 0.00006069 0.00003524 0.02199084
v 0.00005579 0.00004307 0.02199084
v 0.00004992 0.00004992 0.02199084
v 0.00004307 0.00005579 0.02199084
v 0.00003524 0.00006069 0.02199084
v 0.00002643 0.00006558 0.02199084
v 0.00033477 0.00125000 0.02217015
v 0.00000000 0.00250000 0.02267085
v 0.00000000 0.00353563 0.02346453
v 0.00000000 0.00432948 0.02450023
v 0.00000000 0.00482968 0.02570643
v 0.00000000 0.00500000 0.02699983
v 0.00000000 0.00482968 0.02829323
v 0.00000000 0.00432948 0.02949942
v 0.00000000 0.00353563 0.03053512
v 0.00000000 0.00250000 0.03132978
v 0.00033477 0.00125000 0.03182951
v 0.00000000 0.00000000 0.03200000
v -0.00129307 -0.00482968 0.02699983
v -0.00125000 -0.00466425 0.02570643
v -0.00112079 -0.00418265 0.02450023
v -0.00125000 -0.00466425 0.02829323
v -0.00112079 -0.00418265 0.02949942
v -0.00091425 -0.00341425 0.02346453
v -0.00064605 -0.00241484 0.02267085
v -0.00064605 -0.00241484 0.03132978
v -0.00091425 -0.00341425 0.03053512
v -0.00033477 -0.00125000 0.02217015
v 0.00000000 -0.00129307 0.02217015
v 0.00001762 -0.00006852 0.02199084
v 0.00000000 -0.00129307 0.03182951
v -0.00033477 -0.00125000 0.03182951
v 0.00001762 0.00006852 0.02199084
v 0.00000000 0.00129307 0.02217015
v -0.00033477 0.00125000 0.02217015
v -0.00064605 0.00241484 0.02267085
v -0.00091425 0.00341425 0.02346453
v -0.00112079 0.00418265 0.02450023
v -0.00129307 0.00482968 0.02699983
v -0.00125000 0.00466425 0.02570643
v -0.00125000 0.00466425 0.02829323
v -0.00112079 0.00418265 0.02949942
v -0.00091425 0.00341425 0.03053512
v -0.00064605 0.00241484 0.03132978
v -0.00033477 0.00125000 0.03182951
v 0.00000000 0.00129307 0.03182951
v -0.00064605 0.00112079 0.03182951
v -0.00091425 0.00091425 0.03182951
v -0.00112079 0.00064605 0.03182951
v -0.00125000 0.00033477 0.03182951
v -0.00129307 0.00000000 0.03182951
v -0.00125000 -0.00033477 0.03182951
v -0.00112079 -0.00064605 0.03182951
v -0.00091425 -0.00091425 0.03182951
v -0.00064605 -0.00112079 0.03182951
v -0.00241484 -0.00418265 0.02829323
v -0.00250000 -0.00432948 0.02699983
v -0.00241484 -0.00418265 0.02570643
v -0.00216425 -0.00375000 0.02450023
v -0.00176782 -0.00306186 0.02346453
v -0.00216425 -0.00375000 0.02949942
v -0.00176782 -0.00306186 0.03053512
v -0.00125000 -0.00216425 0.02267085
v -0.00125000 -0.00216425 0.03132978
v -0.00064605 -0.00112079 0.02217015
v -0.00002643 -0.00006558 0.02199084
v -0.00001762 -0.00006852 0.02199084
v 0.00000000 -0.00007048 0.02199084
v 0.00000000 0.00007048 0.02199084
v -0.00001762 0.00006852 0.02199084
v -0.00002643 0.00006558 0.02199084
v -0.00064605 0.00112079 0.02217015
v -0.00125000 0.00216425 0.02267085
v -0.00176782 0.00306186 0.02346453
v -0.00216425 0.00375000 0.02450023
v -0.00241484 0.00418265 0.02570643
v -0.00250000 0.00432948 0.02699983
v -0.00241484 0.00418265 0.02829323
v -0.00216425 0.00375000 0.02949942
v -0.00176782 0.00306186 0.03053512
v -0.00125000 0.00216425 0.03132978
v -0.00176782 0.00176782 0.03132978
v -0.00216425 0.00125000 0.03132978
v -0.00241484 0.00064605 0.03132978
v -0.00250000 0.00000000 0.03132978
v -0.00241484 -0.00064605 0.03132978
v -0.00216425 -0.00125000 0.03132978
v -0.00176782 -0.00176782 0.03132978
v -0.00341425 -0.00341425 0.02829323
v -0.00353563 -0.00353563 0.02699983
v -0.00306186 -0.00306186 0.02949942
v -0.00341425 -0.00341425 0.02570643
v -0.00306186 -0.00306186 0.02450023
v -0.00250000 -0.00250000 0.02346453
v -0.00176782 -0.00176782 0.02267085
v -0.00250000 -0.00250000 0.03053512
v -0.00091425 -0.00091425 0.02217015
v -0.00004307 -0.00005579 0.02199084
v -0.00003524 -0.00006069 0.02199084
v -0.00003524 0.00006069 0.02199084
v -0.00004307 0.00005579 0.02199084
v -0.00091425 0.00091425 0.02217015
v -0.00176782 0.00176782 0.02267085
v -0.00250000 0.00250000 0.02346453
v -0.00306186 0.00306186 0.02450023
v -0.00341425 0.00341425 0.02570643
v -0.00353563 0.00353563 0.02699983
v -0.00341425 0.00341425 0.02829323
v -0.00306186 0.00306186 0.02949942
v -0.00250000 0.00250000 0.03053512
v -0.00306186 0.00176782 0.03053512
v -0.00341425 0.00091425 0.03053512
v -0.00353563 0.00000000 0.03053512
v -0.00341425 -0.00091425 0.03053512
v -0.00306186 -0.00176782 0.03053512
v -0.00418265 -0.00241484 0.02829323
v -0.00432948 -0.00250000 0.02699983
v -0.00418265 -0.00241484 0.02570643
v -0.00375000 -0.00216425 0.02949942
v -0.00375000 -0.00216425 0.02450023
v -0.00306186 -0.00176782 0.02346453
v -0.00216425 -0.00125000 0.02267085
v -0.00112079 -0.00064605 0.02217015
v -0.00005579 -0.00004307 0.02199084
v -0.00004992 -0.00004992 0.02199084
v -0.00004992 0.00004992 0.02199084
v -0.00005579 0.00004307 0.02199084
v -0.00112079 0.00064605 0.02217015
v -0.00306186 0.00176782 0.02346453
v -0.00216425 0.00125000 0.02267085
v -0.00375000 0.00216425 0.02450023
v -0.00418265 0.00241484 0.02570643
v -0.00432948 0.00250000 0.02699983
v -0.00418265 0.00241484 0.02829323
v -0.00375000 0.00216425 0.02949942
v -0.00418265 0.00112079 0.02949942
v -0.00432948 0.00000000 0.02949942
v -0.00418265 -0.00112079 0.02949942
v -0.00466425 -0.00125000 0.02829323
v -0.00482968 -0.00129307 0.02699983
v -0.00466425 -0.00125000 0.02570643
v -0.00418265 -0.00112079 0.02450023
v -0.00341425 -0.00091425 0.02346453
v -0.00241484 -0.00064605 0.02267085
v -0.00125000 -0.00033477 0.02217015
v -0.00006558 -0.00002643 0.02199084
v -0.00006069 -0.00003524 0.02199084
v -0.00006069 0.00003524 0.02199084
v -0.00125000 0.00033477 0.02217015
v -0.00006558 0.00002643 0.02199084
v -0.00241484 0.00064605 0.02267085
v -0.00341425 0.00091425 0.02346453
v -0.00418265 0.00112079 0.02450023
v -0.00466425 0.00125000 0.02570643
v -0.00482968 0.00129307 0.02699983
v -0.00466425 0.00125000 0.02829323
v -0.00482968 0.00000000 0.02829323
v -0.00500000 0.00000000 0.02699983
v -0.00482968 0.00000000 0.02570643
v -0.00432948 0.00000000 0.02450023
v -0.00353563 0.00000000 0.02346453
v -0.00250000 0.00000000 0.02267085
v -0.00129307 0.00000000 0.02217015
v -0.00006852 -0.00001762 0.02199084
v -0.00006852 0.00001762 0.02199084
v -0.00007048 0.00000000 0.02199084
f 1 2 3
f 1 3 4
f 1 4 5
f 1 5 2
f 2 6 7
f 2 7 8
f 2 8 3
f 2 5 9
f 2 9 10
f 2 10 6
f 3 8 11
f 3 11 12
f 3 12 13
f 3 13 14
f 3 14 4
f 4 14 15
f 4 15 16
f 4 16 17
f 4 17 18
f 4 18 5
f 5 18 19
f 5 19 20
f 5 20 21
f 5 21 9
f 6 22 7
f 6 10 22
f 7 23 24
f 7 24 25
f 7 25 11
f 7 11 8
f 7 22 23
f 9 21 10
f 10 21 26
f 10 26 27
f 10 27 28
f 10 28 22
f 11 25 29
f 11 29 30
f 11 30 31
f 11 31 12
f 12 31 13
f 13 31 32
f 13 32 33
f 13 33 34
f 13 34 15
f 13 15 14
f 15 34 35
f 15 35 36
f 15 36 37
f 15 37 16
f 16 37 17
f 17 37 38
f 17 38 39
f 17 39 40
f 17 40 19
f 17 19 18
f 19 40 41
f 19 41 42
f 19 42 43
f 19 43 20
f 20 43 21
f 21 43 44
f 21 44 45
f 21 45 26
f 22 46 47
f 22 47 23
f 22 28 48
f 22 48 46
f 23 47 24
f 24 49 50
f 24 50 51
f 24 51 29
f 24 29 25
f 24 47 49
f 26 45 27
f 27 52 48
f 27 48 28
f 27 45 53
f 27 53 54
f 27 54 52
f 29 51 55
f 29 55 56
f 29 56 57
f 29 57 30
f 30 57 31
f 31 57 58
f 31 58 59
f 31 59 32
f 32 59 33
f 33 59 60
f 33 60 61
f 33 61 62
f 33 62 35
f 33 35 34
f 35 62 63
f 35 63 64
f 35 64 65
f 35 65 36
f 36 65 37
f 37 65 66
f 37 66 67
f 37 67 38
f 38 67 39
f 39 67 68
f 39 68 69
f 39 69 70
f 39 70 41
f 39 41 40
f 41 70 71
f 41 71 72
f 41 72 73
f 41 73 42
f 42 73 43
f 43 73 74
f 43 74 75
f 43 75 44
f 44 75 45
f 45 75 76
f 45 76 77
f 45 77 53
f 46 78 47
f 46 48 78
f 47 79 80
f 47 80 49
f 47 78 79
f 48 52 81
f 48 81 82
f 48 82 78
f 49 80 50
f 50 83 84
f 50 84 85
f 50 85 55
f 50 55 51
f 50 80 83
f 52 54 81
f 53 77 54
f 54 77 86
f 54 86 87
f 54 87 88
f 54 88 81
f 55 85 89
f 55 89 90
f 55 90 91
f 55 91 56
f 56 91 92
f 56 92 57
f 57 92 58
f 58 92 93
f 58 93 94
f 58 94 59
f 59 94 60
f 60 94 95
f 60 95 61
f 61 95 96
f 61 96 97
f 61 97 98
f 61 98 63
f 61 63 62
f 63 98 99
f 63 99 100
f 63 100 101
f 63 101 64
f 64 101 65
f 65 101 102
f 65 102 103
f 65 103 66
f 66 103 67
f 67 103 104
f 67 104 105
f 67 105 68
f 68 105 69
f 69 106 107
f 69 107 108
f 69 108 71
f 69 71 70
f 69 105 106
f 71 108 109
f 71 109 110
f 71 110 111
f 71 111 72
f 72 111 112
f 72 112 73
f 73 112 74
f 74 112 113
f 74 113 114
f 74 114 75
f 75 114 76
f 76 114 115
f 76 115 77
f 77 115 116
f 77 116 117
f 77 117 86
f 78 118 119
f 78 119 79
f 78 82 120
f 78 120 118
f 79 119 80
f 80 119 121
f 80 121 122
f 80 122 83
f 81 123 120
f 81 120 82
f 81 88 124
f 81 124 123
f 83 122 84
f 84 125 126
f 84 126 85
f 84 122 125
f 85 126 89
f 86 117 127
f 86 127 87
f 87 128 124
f 87 124 88
f 87 127 128
f 89 126 129
f 89 129 130
f 89 130 131
f 89 131 90
f 90 131 132
f 90 132 133
f 90 133 91
f 91 133 134
f 91 134 135
f 91 135 92
f 92 135 136
f 92 136 93
f 93 136 137
f 93 137 138
f 93 138 94
f 94 138 139
f 94 139 95
f 95 139 140
f 95 140 141
f 95 141 96
f 96 141 142
f 96 142 143
f 96 143 97
f 97 143 144
f 97 144 145
f 97 145 146
f 97 146 98
f 98 146 99
f 99 146 147
f 99 147 148
f 99 148 100
f 100 148 101
f 101 148 149
f 101 149 150
f 101 150 102
f 102 150 103
f 103 150 151
f 103 151 152
f 103 152 104
f 104 152 105
f 105 152 153
f 105 153 154
f 105 154 106
f 106 154 107
f 107 154 155
f 107 155 156
f 107 156 108
f 108 156 109
f 109 157 110
f 109 156 157
f 110 157 111
f 111 157 112
f 112 157 113
f 113 157 114
f 114 157 115
f 115 157 116
f 116 157 117
f 117 157 127
f 118 120 158
f 118 158 119
f 119 159 160
f 119 160 121
f 119 158 159
f 120 161 158
f 120 123 162
f 120 162 161
f 121 160 122
f 122 160 163
f 122 163 164
f 122 164 125
f 123 124 162
f 124 128 165
f 124 165 166
f 124 166 162
f 125 164 167
f 125 167 168
f 125 168 126
f 126 168 169
f 126 169 129
f 127 170 128
f 127 157 170
f 128 170 171
f 128 171 165
f 129 169 207
f 129 207 206
f 129 206 205
f 129 205 238
f 129 238 237
f 129 237 264
f 129 264 263
f 129 263 286
f 129 286 285
f 129 285 303
f 129 303 305
f 129 305 304
f 129 304 289
f 129 289 287
f 129 287 266
f 129 266 265
f 129 265 240
f 129 240 239
f 129 239 210
f 129 210 209
f 129 209 208
f 129 208 172
f 129 172 145
f 129 145 144
f 129 144 143
f 129 143 142
f 129 142 141
f 129 141 140
f 129 140 139
f 129 139 138
f 129 138 137
f 129 137 136
f 129 136 135
f 129 135 134
f 129 134 133
f 129 133 132
f 129 132 131
f 129 131 130
f 145 172 146
f 146 172 173
f 146 173 147
f 147 173 174
f 147 174 175
f 147 175 148
f 148 175 176
f 148 176 177
f 148 177 149
f 149 177 150
f 150 178 151
f 150 177 179
f 150 179 178
f 151 178 152
f 152 178 180
f 152 180 181
f 152 181 153
f 153 181 154
f 154 182 183
f 154 183 155
f 154 181 182
f 155 183 184
f 155 184 185
f 155 185 156
f 156 185 157
f 157 185 184
f 157 184 186
f 157 186 187
f 157 187 188
f 157 188 189
f 157 189 190
f 157 190 191
f 157 191 192
f 157 192 193
f 157 193 194
f 157 194 171
f 157 171 170
f 158 161 195
f 158 195 196
f 158 196 197
f 158 197 159
f 159 197 160
f 160 197 198
f 160 198 199
f 160 199 163
f 161 162 195
f 162 200 195
f 162 166 201
f 162 201 200
f 163 199 164
f 164 202 167
f 164 199 202
f 165 203 201
f 165 201 166
f 165 171 203
f 167 204 205
f 167 205 206
f 167 206 168
f 167 202 204
f 168 206 207
f 168 207 169
f 171 194 203
f 172 208 173
f 173 208 209
f 173 209 174
f 174 209 210
f 174 210 211
f 174 211 212
f 174 212 175
f 175 212 213
f 175 213 176
f 176 213 177
f 177 214 215
f 177 215 179
f 177 213 214
f 178 179 215
f 178 215 216
f 178 216 217
f 178 217 180
f 180 217 181
f 181 217 218
f 181 218 219
f 181 219 182
f 182 219 183
f 183 219 220
f 183 220 184
f 184 220 186
f 186 220 221
f 186 221 187
f 187 221 188
f 188 221 222
f 188 222 189
f 189 222 223
f 189 223 224
f 189 224 190
f 190 224 191
f 191 224 225
f 191 225 226
f 191 226 192
f 192 226 227
f 192 227 193
f 193 227 194
f 194 227 203
f 195 228 229
f 195 229 196
f 195 200 230
f 195 230 228
f 196 229 197
f 197 229 231
f 197 231 232
f 197 232 198
f 198 232 199
f 199 232 233
f 199 233 234
f 199 234 202
f 200 201 230
f 201 203 227
f 201 227 235
f 201 235 230
f 202 234 204
f 204 236 237
f 204 237 238
f 204 238 205
f 204 234 236
f 210 239 211
f 211 239 240
f 211 240 241
f 211 241 242
f 211 242 212
f 212 242 213
f 213 242 243
f 213 243 244
f 213 244 214
f 214 244 215
f 215 245 246
f 215 246 216
f 215 244 245
f 216 246 217
f 217 246 247
f 217 247 248
f 217 248 218
f 218 248 219
f 219 249 221
f 219 221 220
f 219 248 249
f 221 249 250
f 221 250 222
f 222 250 223
f 223 250 251
f 223 251 252
f 223 252 224
f 224 252 225
f 225 252 253
f 225 253 254
f 225 254 226
f 226 254 227
f 227 254 235
f 228 230 255
f 228 255 229
f 229 255 256
f 229 256 257
f 229 257 231
f 230 235 254
f 230 254 258
f 230 258 255
f 231 257 232
f 232 257 259
f 232 259 260
f 232 260 233
f 233 260 234
f 234 260 261
f 234 261 262
f 234 262 236
f 236 262 263
f 236 263 264
f 236 264 237
f 240 265 241
f 241 265 266
f 241 266 267
f 241 267 242
f 242 268 243
f 242 267 269
f 242 269 268
f 243 268 244
f 244 270 271
f 244 271 245
f 244 268 270
f 245 271 246
f 246 272 273
f 246 273 247
f 246 271 272
f 247 273 248
f 248 273 274
f 248 274 250
f 248 250 249
f 250 274 275
f 250 275 251
f 251 275 252
f 252 275 276
f 252 276 277
f 252 277 253
f 253 277 254
f 254 277 258
f 255 278 279
f 255 279 256
f 255 258 277
f 255 277 278
f 256 279 257
f 257 279 280
f 257 280 281
f 257 281 259
f 259 281 260
f 260 282 283
f 260 283 261
f 260 281 282
f 261 283 284
f 261 284 262
f 262 284 285
f 262 285 286
f 262 286 263
f 266 287 267
f 267 288 269
f 267 287 289
f 267 289 288
f 268 269 290
f 268 290 291
f 268 291 292
f 268 292 270
f 269 288 290
f 270 292 271
f 271 293 294
f 271 294 272
f 271 292 293
f 272 294 273
f 273 275 274
f 273 294 295
f 273 295 275
f 275 295 296
f 275 296 276
f 276 296 277
f 277 296 278
f 278 296 279
f 279 296 297
f 279 297 298
f 279 298 280
f 280 298 281
f 281 298 299
f 281 299 300
f 281 300 282
f 282 300 283
f 283 300 301
f 283 301 284
f 284 301 302
f 284 302 303
f 284 303 285
f 288 302 301
f 288 301 290
f 288 289 304
f 288 304 302
f 290 301 300
f 290 300 291
f 291 300 292
f 292 299 298
f 292 298 293
f 292 300 299
f 293 298 294
f 294 297 296
f 294 296 295
f 294 298 297
f 302 304 305
f 302 305 303

