# https://github.com/mikedh/trimesh
v 0.00000000 0.02200000 0.00397789
v 0.00286844 0.02181049 0.00397789
v 0.00000000 0.02200000 -0.00000000
v -0.00286844 0.02181049 0.00397789
v 0.00286844 0.02181049 -0.00000000
v 0.00569381 0.02124628 0.00397789
v -0.00286844 0.02181049 -0.00000000
v -0.00567659 0.02125059 0.00397789
v 0.00569381 0.02124628 -0.00000000
v 0.00570673 0.02124197 0.00397789
v -0.00569381 0.02124628 -0.00000000
v -0.00569381 0.02124628 0.00397789
v 0.00841582 0.02032459 -0.00000000
v 0.00841582 0.02032459 0.00397789
v -0.00841582 0.02032459 -0.00000000
v -0.00841582 0.02032459 0.00397789
v 0.01100000 0.01904973 -0.00000000
v 0.01100000 0.01904973 0.00397789
v -0.01100000 0.01904973 -0.00000000
v -0.01098277 0.01905834 0.00397789
v 0.01101292 0.01904111 0.00397789
v 0.01339037 0.01745184 -0.00000000
v -0.01100000 0.01904973 0.00397789
v -0.01339037 0.01745184 -0.00000000
v 0.01340329 0.01744323 0.00397789
v 0.01555247 0.01555247 -0.00000000
v -0.01339037 0.01745184 0.00397789
v -0.01554385 0.01556539 0.00397789
v -0.01555247 0.01555247 -0.00000000
v 0.01556539 0.01554385 0.00397789
v 0.01745184 0.01339037 -0.00000000
v -0.01744323 0.01340329 0.00397789
v -0.01745184 0.01339037 -0.00000000
v 0.01745184 0.01339037 0.00397789
v 0.01904973 0.01100000 -0.00000000
v -0.01904111 0.01101292 0.00397789
v -0.01904973 0.01100000 -0.00000000
v 0.01904973 0.01100000 0.00397789
v 0.01905834 0.01098277 0.00397789
v 0.02032459 0.00841582 -0.00000000
v -0.01904973 0.01100000 0.00397789
v -0.02032459 0.00841582 -0.00000000
v 0.02032459 0.00841582 0.00397789
v 0.02124628 0.00569381 -0.00000000
v -0.02032459 0.00841582 0.00397789
v -0.02124628 0.00569381 -0.00000000
v -0.02124197 0.00570673 0.00397789
v 0.02124628 0.00569381 0.00397789
v 0.02125059 0.00567659 0.00397789
v 0.02181049 0.00286844 -0.00000000
v -0.02124628 0.00569381 0.00397789
v -0.02181049 0.00286844 -0.00000000
v 0.02181049 0.00286844 0.00397789
v 0.02200000 0.00000000 -0.00000000
v -0.02181049 0.00286844 0.00397789
v -0.02200000 0.00000000 -0.00000000
v 0.02200000 0.00000000 0.00397789
v 0.02181049 -0.00286844 -0.00000000
v -0.02200000 0.00000000 0.00397789
v -0.02181049 -0.00286844 -0.00000000
v 0.02181049 -0.00286844 0.00397789
v 0.02124628 -0.00569381 -0.00000000
v -0.02181049 -0.00286844 0.00397789
v -0.02125059 -0.00567659 0.00397789
v -0.02124628 -0.00569381 -0.00000000
v 0.02124628 -0.00569381 0.00397789
v 0.02124197 -0.00570673 0.00397789
v 0.02032459 -0.00841582 -0.00000000
v -0.02124628 -0.00569381 0.00397789
v -0.02032459 -0.00841582 -0.00000000
v 0.02032459 -0.00841582 0.00397789
v 0.01904973 -0.01100000 -0.00000000
v -0.02032459 -0.00841582 0.00397789
v -0.01904973 -0.01100000 -0.00000000
v -0.01905834 -0.01098277 0.00397789
v 0.01904973 -0.01100000 0.00397789
v 0.01904111 -0.01101292 0.00397789
v 0.01745184 -0.01339037 -0.00000000
v -0.01745184 -0.01339037 -0.00000000
v -0.01904973 -0.01100000 0.00397789
v 0.01744323 -0.01340329 0.00397789
v 0.01555247 -0.01555247 -0.00000000
v -0.01555247 -0.01555247 -0.00000000
v -0.01556539 -0.01554385 0.00397789
v -0.01745184 -0.01339037 0.00397789
v 0.01554385 -0.01556539 0.00397789
v 0.01339037 -0.01745184 -0.00000000
v -0.01339037 -0.01745184 -0.00000000
v -0.01340329 -0.01744323 0.00397789
v 0.01339037 -0.01745184 0.00397789
v 0.01100000 -0.01904973 -0.00000000
v -0.01100000 -0.01904973 -0.00000000
v -0.01101292 -0.01904111 0.00397789
v 0.01100000 -0.01904973 0.00397789
v 0.01098277 -0.01905834 0.00397789
v 0.00841582 -0.02032459 -0.00000000
v -0.00841582 -0.02032459 -0.00000000
v -0.01100000 -0.01904973 0.00397789
v 0.00841582 -0.02032459 0.00397789
v 0.00569381 -0.02124628 -0.00000000
v -0.00841582 -0.02032459 0.00397789
v -0.00569381 -0.02124628 -0.00000000
v -0.00570673 -0.02124197 0.00397789
v 0.00569381 -0.02124628 0.00397789
v 0.00567659 -0.02125059 0.00397789
v 0.00286844 -0.02181049 -0.00000000
v -0.00286844 -0.02181049 -0.00000000
v -0.00569381 -0.02124628 0.00397789
v 0.00286844 -0.02181049 0.00397789
v 0.00000000 -0.02200000 -0.00000000
v -0.00286844 -0.02181049 0.00397789
v 0.00000000 -0.02200000 0.00397789
f 1 2 5
f 1 5 3
f 1 3 7
f 1 7 4
f 1 4 8
f 1 8 12
f 1 12 16
f 1 16 20
f 1 20 23
f 1 23 27
f 1 27 28
f 1 28 32
f 1 32 36
f 1 36 41
f 1 41 45
f 1 45 47
f 1 47 51
f 1 51 55
f 1 55 59
f 1 59 63
f 1 63 64
f 1 64 69
f 1 69 73
f 1 73 75
f 1 75 80
f 1 80 85
f 1 85 84
f 1 84 89
f 1 89 93
f 1 93 98
f 1 98 101
f 1 101 103
f 1 103 108
f 1 108 111
f 1 111 112
f 1 112 109
f 1 109 105
f 1 105 104
f 1 104 99
f 1 99 95
f 1 95 94
f 1 94 90
f 1 90 86
f 1 86 81
f 1 81 77
f 1 77 76
f 1 76 71
f 1 71 67
f 1 67 66
f 1 66 61
f 1 61 57
f 1 57 53
f 1 53 49
f 1 49 48
f 1 48 43
f 1 43 39
f 1 39 38
f 1 38 34
f 1 34 30
f 1 30 25
f 1 25 21
f 1 21 18
f 1 18 14
f 1 14 10
f 1 10 6
f 1 6 2
f 2 6 9
f 2 9 5
f 3 5 9
f 3 9 13
f 3 13 17
f 3 17 22
f 3 22 26
f 3 26 31
f 3 31 35
f 3 35 40
f 3 40 44
f 3 44 50
f 3 50 54
f 3 54 58
f 3 58 62
f 3 62 68
f 3 68 72
f 3 72 78
f 3 78 82
f 3 82 87
f 3 87 91
f 3 91 96
f 3 96 100
f 3 100 106
f 3 106 110
f 3 110 107
f 3 107 102
f 3 102 97
f 3 97 92
f 3 92 88
f 3 88 83
f 3 83 79
f 3 79 74
f 3 74 70
f 3 70 65
f 3 65 60
f 3 60 56
f 3 56 52
f 3 52 46
f 3 46 42
f 3 42 37
f 3 37 33
f 3 33 29
f 3 29 24
f 3 24 19
f 3 19 15
f 3 15 11
f 3 11 7
f 4 7 8
f 6 10 9
f 7 11 8
f 8 11 12
f 9 10 13
f 10 14 13
f 11 15 16
f 11 16 12
f 13 14 18
f 13 18 17
f 15 19 20
f 15 20 16
f 17 18 21
f 17 21 25
f 17 25 22
f 19 23 20
f 19 24 27
f 19 27 23
f 22 25 30
f 22 30 26
f 24 28 27
f 24 29 28
f 26 30 31
f 28 29 33
f 28 33 32
f 30 34 31
f 31 34 38
f 31 38 35
f 32 33 37
f 32 37 36
f 35 38 39
f 35 39 40
f 36 37 41
f 37 42 45
f 37 45 41
f 39 43 40
f 40 43 48
f 40 48 44
f 42 46 47
f 42 47 45
f 44 48 49
f 44 49 50
f 46 51 47
f 46 52 55
f 46 55 51
f 49 53 50
f 50 53 57
f 50 57 54
f 52 56 59
f 52 59 55
f 54 57 61
f 54 61 58
f 56 60 63
f 56 63 59
f 58 61 66
f 58 66 62
f 60 64 63
f 60 65 64
f 62 66 67
f 62 67 68
f 64 65 69
f 65 70 73
f 65 73 69
f 67 71 68
f 68 71 76
f 68 76 72
f 70 74 75
f 70 75 73
f 72 76 77
f 72 77 81
f 72 81 78
f 74 79 85
f 74 85 80
f 74 80 75
f 78 81 86
f 78 86 82
f 79 83 84
f 79 84 85
f 82 86 87
f 83 88 89
f 83 89 84
f 86 90 87
f 87 90 94
f 87 94 91
f 88 92 93
f 88 93 89
f 91 94 95
f 91 95 96
f 92 97 101
f 92 101 98
f 92 98 93
f 95 99 96
f 96 99 104
f 96 104 100
f 97 102 103
f 97 103 101
f 100 104 105
f 100 105 106
f 102 107 111
f 102 111 108
f 102 108 103
f 105 109 106
f 106 109 112
f 106 112 110
f 107 110 112
f 107 112 111

