# https://github.com/mikedh/trimesh
v -0.00000764 -0.04375670 0.05386476
v -0.00000764 -0.04762325 0.05386476
v -0.00000764 -0.04370650 0.05285963
v -0.03188927 -0.02978459 0.05386476
v -0.00929142 -0.04670632 0.05386476
v -0.00928420 -0.04666192 0.05285963
v -0.00001486 -0.04463309 -0.00990587
v -0.00000764 -0.04463116 -0.00989673
v -0.00000764 -0.04070862 -0.00989673
v -0.03686852 -0.02978459 0.05386476
v -0.00001486 -0.03964305 -0.03220137
v -0.00001486 -0.03929751 -0.03948396
v -0.02912903 -0.02836769 -0.00990587
v -0.01822881 -0.04399799 0.05386476
v -0.01501034 -0.04077812 -0.03220137
v -0.00871050 -0.04377600 -0.00989673
v -0.00843989 -0.04241508 -0.03948396
v -0.00001486 -0.04358682 -0.03220137
v -0.00001486 -0.04324321 -0.03948396
v -0.03366808 -0.03367624 0.05386476
v -0.03417684 -0.02836769 -0.00990587
v -0.03321346 -0.02790247 -0.03220137
v -0.03253874 -0.02819010 -0.03948396
v -0.03435364 -0.02978459 0.01219775
v -0.03156093 -0.03156247 -0.00989673
v -0.03363922 -0.03364343 0.05285963
v -0.02764608 -0.02790247 -0.03948396
v -0.02814040 -0.02790247 -0.03220137
v -0.02645539 -0.03959672 0.05386476
v -0.02479564 -0.03711425 -0.00989673
v -0.01708863 -0.04123369 -0.00990587
v -0.01655462 -0.03995384 -0.03948396
v -0.03277327 -0.02790247 -0.03948396
v -0.03057590 -0.03058377 -0.03948396
v -0.02858059 -0.03222267 -0.03948396
v -0.02401989 -0.03595988 -0.03948396
f 1 2 8
f 1 8 9
f 1 9 3
f 1 3 4
f 1 4 10
f 1 10 20
f 1 20 29
f 1 29 14
f 1 14 5
f 1 5 2
f 2 5 6
f 2 6 7
f 2 7 8
f 3 9 4
f 4 9 11
f 4 11 12
f 4 12 13
f 4 13 21
f 4 21 10
f 5 14 6
f 6 14 15
f 6 15 16
f 6 16 7
f 7 16 17
f 7 17 18
f 7 18 8
f 8 18 19
f 8 19 12
f 8 12 9
f 9 12 11
f 10 21 22
f 10 22 23
f 10 23 24
f 10 24 25
f 10 25 26
f 10 26 20
f 12 19 17
f 12 17 32
f 12 32 36
f 12 36 35
f 12 35 34
f 12 34 23
f 12 23 33
f 12 33 27
f 12 27 28
f 12 28 13
f 13 28 22
f 13 22 21
f 14 29 30
f 14 30 31
f 14 31 32
f 14 32 15
f 15 32 17
f 15 17 16
f 17 19 18
f 20 26 29
f 22 28 27
f 22 27 33
f 22 33 23
f 23 34 25
f 23 25 24
f 25 30 26
f 25 34 35
f 25 35 30
f 26 30 29
f 30 35 36
f 30 36 32
f 30 32 31

