# https://github.com/mikedh/trimesh
v 0.02895556 -0.03257255 0.05387100
v -0.00000764 -0.04375440 0.05387100
v 0.02895556 -0.03754995 0.05387100
v 0.02895556 -0.02797403 -0.01804079
v -0.00000764 -0.04370632 0.05286467
v -0.00000764 -0.04762208 0.05387100
v 0.02645785 -0.03959631 0.05387100
v 0.02895556 -0.03749033 0.05286467
v 0.02895556 -0.03321107 -0.01804079
v 0.02709575 -0.02829714 -0.04044802
v -0.00000764 -0.03925204 -0.04044802
v -0.00000764 -0.04032137 -0.01804079
v 0.00000370 -0.04762208 0.05387100
v -0.00000764 -0.04425060 -0.01804079
v 0.00000086 -0.04425252 -0.01804079
v 0.01822477 -0.04399673 0.05387100
v 0.02413876 -0.03613251 -0.03513011
v 0.02721199 -0.03361112 -0.03513011
v 0.02709575 -0.03338224 -0.04044802
v -0.00000764 -0.04319858 -0.04044802
v 0.00929143 -0.04670661 0.05387100
v -0.00000764 -0.04344860 -0.03513011
v 0.00000086 -0.04320050 -0.04044802
v 0.00848059 -0.04261583 -0.03513011
v 0.01693481 -0.04088104 -0.01804079
v 0.00940767 -0.04207539 -0.04044802
v 0.01259146 -0.04136763 -0.03513011
v 0.01652939 -0.03991172 -0.04044802
v 0.02165806 -0.03717300 -0.04044802
v 0.02399700 -0.03592095 -0.04044802
v 0.02478515 -0.03527666 -0.04044802
v 0.00843240 -0.04236965 -0.04044802
f 1 2 6
f 1 6 13
f 1 13 21
f 1 21 16
f 1 16 7
f 1 7 3
f 1 3 8
f 1 8 9
f 1 9 4
f 1 4 2
f 2 4 5
f 2 5 12
f 2 12 11
f 2 11 20
f 2 20 22
f 2 22 14
f 2 14 6
f 3 7 8
f 4 9 19
f 4 19 10
f 4 10 11
f 4 11 12
f 4 12 5
f 6 14 15
f 6 15 13
f 7 16 17
f 7 17 8
f 8 17 18
f 8 18 9
f 9 18 19
f 10 19 31
f 10 31 30
f 10 30 29
f 10 29 28
f 10 28 26
f 10 26 32
f 10 32 23
f 10 23 20
f 10 20 11
f 13 15 21
f 14 22 15
f 15 22 23
f 15 23 24
f 15 24 21
f 16 25 17
f 16 21 24
f 16 24 26
f 16 26 27
f 16 27 28
f 16 28 25
f 17 28 29
f 17 29 30
f 17 30 31
f 17 31 19
f 17 19 18
f 17 25 28
f 20 23 22
f 23 32 24
f 24 32 26
f 26 28 27

