# https://github.com/mikedh/trimesh
v -0.00000764 -0.04319399 -0.04045215
v -0.00000764 -0.04255942 -0.05386685
v 0.00000080 -0.04320245 -0.04045215
v -0.00000764 0.03928267 -0.03972666
v 0.00000080 -0.04266095 -0.05187036
v -0.00000764 -0.04056265 -0.05387100
v 0.00000080 -0.04255942 -0.05387100
v 0.00831208 -0.04174718 -0.05387100
v 0.00843449 -0.04236483 -0.04045215
v 0.03914276 0.01803740 -0.03972666
v 0.03468531 0.01803740 -0.03972666
v -0.00000764 0.04323391 -0.03972666
v -0.00000764 0.04256549 -0.05387100
v 0.01630256 -0.03932737 -0.05387100
v 0.01653894 -0.03990271 -0.04045215
v 0.02399757 -0.03591763 -0.04045215
v 0.02848879 -0.03222869 -0.04045215
v 0.03054023 -0.03053652 -0.04045215
v 0.03119027 -0.02974965 -0.04045215
v 0.03591364 -0.02399625 -0.04045215
v 0.03991100 -0.01652530 -0.04045215
v 0.04159942 -0.01096650 -0.04045215
v 0.04236766 -0.00842823 -0.04045215
v 0.04246896 -0.00741293 -0.04045215
v 0.04297127 -0.00234486 -0.04045215
v 0.04228324 0.00840046 -0.04232127
v 0.04203841 0.00922116 -0.04232127
v 0.03983079 0.01648906 -0.04232127
v 0.03900769 0.01803740 -0.04232127
v 0.03594319 0.02401924 -0.03972666
v 0.00000080 0.04323391 -0.03972666
v -0.00000764 0.04266702 -0.05178590
v 0.00000080 0.04256549 -0.05387100
v 0.02365144 -0.03538460 -0.05387100
v 0.02370210 -0.03546921 -0.05187036
v 0.03009701 -0.03009655 -0.05387100
v 0.03016877 -0.03015577 -0.05187036
v 0.03539023 -0.02364090 -0.05387100
v 0.03932849 -0.01628839 -0.05387100
v 0.04174716 -0.00830978 -0.05387100
v 0.04233811 -0.00234486 -0.05387100
v 0.04257027 -0.00000120 -0.05387100
v 0.04311479 -0.00000120 -0.04232127
v 0.04236766 0.00755437 -0.04232127
v 0.04184424 0.00831585 -0.05187036
v 0.03933271 0.01628600 -0.05387100
v 0.03895703 0.01803740 -0.04329321
v 0.03873332 0.01803740 -0.04752432
v 0.03539445 0.02364696 -0.05387100
v 0.03435607 0.02595679 -0.03972666
v 0.00843871 0.04240474 -0.03972666
v 0.00831208 0.04175325 -0.05387100
v 0.04174716 0.00829893 -0.05387100
v 0.03010123 0.03010262 -0.05387100
v 0.03056555 0.03056796 -0.03972666
v 0.01655161 0.03994262 -0.03972666
v 0.01633211 0.03941804 -0.05187174
v 0.01629412 0.03932498 -0.05387100
v 0.02364722 0.03539067 -0.05387100
v 0.02370210 0.03546681 -0.05187174
v 0.02401868 0.03594062 -0.03972666
f 1 2 3
f 1 3 4
f 1 4 12
f 1 12 32
f 1 32 13
f 1 13 6
f 1 6 2
f 2 5 3
f 2 6 7
f 2 7 5
f 3 5 8
f 3 8 9
f 3 9 10
f 3 10 11
f 3 11 4
f 4 11 10
f 4 10 30
f 4 30 50
f 4 50 55
f 4 55 61
f 4 61 56
f 4 56 51
f 4 51 31
f 4 31 12
f 5 7 8
f 6 13 33
f 6 33 52
f 6 52 58
f 6 58 59
f 6 59 54
f 6 54 49
f 6 49 46
f 6 46 53
f 6 53 42
f 6 42 41
f 6 41 40
f 6 40 39
f 6 39 38
f 6 38 36
f 6 36 34
f 6 34 14
f 6 14 8
f 6 8 7
f 8 14 9
f 9 14 15
f 9 15 10
f 10 15 16
f 10 16 17
f 10 17 18
f 10 18 19
f 10 19 20
f 10 20 21
f 10 21 22
f 10 22 23
f 10 23 24
f 10 24 25
f 10 25 26
f 10 26 27
f 10 27 28
f 10 28 29
f 10 29 30
f 12 31 32
f 13 32 33
f 14 34 35
f 14 35 16
f 14 16 15
f 16 35 36
f 16 36 17
f 17 36 18
f 18 36 37
f 18 37 19
f 19 37 36
f 19 36 20
f 20 38 39
f 20 39 21
f 20 36 38
f 21 39 22
f 22 39 40
f 22 40 23
f 23 40 24
f 24 40 25
f 25 40 41
f 25 41 42
f 25 42 43
f 25 43 44
f 25 44 26
f 26 44 45
f 26 45 27
f 27 45 46
f 27 46 28
f 28 46 47
f 28 47 29
f 29 47 30
f 30 47 48
f 30 48 49
f 30 49 50
f 31 51 52
f 31 52 32
f 32 52 33
f 34 36 35
f 42 53 45
f 42 45 43
f 43 45 44
f 45 53 46
f 46 49 48
f 46 48 47
f 49 54 50
f 50 54 55
f 51 56 57
f 51 57 52
f 52 57 58
f 54 59 60
f 54 60 61
f 54 61 55
f 56 61 57
f 57 61 59
f 57 59 58
f 59 61 60

