# https://github.com/mikedh/trimesh
v 0.04050441 -0.00234646 -0.00935030
v 0.04442746 -0.00234646 -0.00935030
v 0.04347636 -0.00234646 0.05286672
v 0.03068063 0.03115326 0.05386481
v 0.03943286 -0.00234270 -0.03181988
v 0.04734367 -0.00234646 0.05286672
v 0.04337388 -0.00234270 -0.03181988
v 0.04341883 -0.00189071 -0.03181988
v 0.04465939 0.00000386 -0.00935869
v 0.04352491 -0.00234646 0.05386481
v 0.03068063 0.03613264 0.05386481
v 0.02925489 0.02825678 -0.00935869
v 0.02925489 0.02657690 -0.03181988
v 0.04757560 0.00000010 0.05286672
v 0.04739041 -0.00234646 0.05386481
v 0.04348355 -0.00123533 -0.03181988
v 0.04360401 0.00000386 -0.03181988
v 0.04276799 0.00851251 -0.03181988
v 0.04670721 0.00929595 0.05386481
v 0.02925489 0.03348475 -0.00935869
v 0.03367595 0.03366932 0.05386481
v 0.03158139 0.03157511 -0.00935869
v 0.02925489 0.03218906 -0.03083857
v 0.02925489 0.03212879 -0.03181988
v 0.04762234 0.00000010 0.05386481
v 0.04156878 0.01246362 -0.03181988
v 0.04270146 0.01233933 -0.00935869
v 0.04399775 0.01822268 0.05386481
v 0.03959647 0.02645637 0.05386481
v 0.03473312 0.02773699 -0.00935030
v 0.03363999 0.02741684 -0.03181988
v 0.03083705 0.03082934 -0.03181988
v 0.04028507 0.01668969 -0.03181988
v 0.03713513 0.02481038 -0.00935030
v 0.03512687 0.02560512 -0.03181988
v 0.03625955 0.02422280 -0.03181988
f 1 2 6
f 1 6 15
f 1 15 10
f 1 10 3
f 1 3 4
f 1 4 5
f 1 5 7
f 1 7 2
f 2 7 8
f 2 8 9
f 2 9 6
f 3 10 4
f 4 10 15
f 4 15 25
f 4 25 19
f 4 19 28
f 4 28 29
f 4 29 21
f 4 21 11
f 4 11 20
f 4 20 12
f 4 12 5
f 5 12 13
f 5 13 24
f 5 24 32
f 5 32 31
f 5 31 35
f 5 35 36
f 5 36 33
f 5 33 26
f 5 26 18
f 5 18 17
f 5 17 16
f 5 16 8
f 5 8 7
f 6 14 25
f 6 25 15
f 6 9 14
f 8 16 9
f 9 16 17
f 9 17 18
f 9 18 19
f 9 19 14
f 11 21 22
f 11 22 23
f 11 23 20
f 12 20 23
f 12 23 24
f 12 24 13
f 14 19 25
f 18 26 27
f 18 27 19
f 19 27 28
f 21 29 30
f 21 30 22
f 22 30 31
f 22 31 32
f 22 32 23
f 23 32 24
f 26 33 28
f 26 28 27
f 28 34 29
f 28 33 34
f 29 34 30
f 30 34 31
f 31 34 35
f 33 36 34
f 34 36 35

