# https://github.com/mikedh/trimesh
v -0.00000764 -0.00000764 -0.04285761
v -0.00000764 -0.03929793 -0.03948826
v -0.00000764 -0.00000764 -0.05387100
v -0.04324686 -0.00001188 -0.03948826
v -0.03929793 -0.00001188 -0.03948826
v -0.00000764 -0.04324686 -0.03948826
v -0.00000764 -0.04057192 -0.05387100
v -0.04256965 -0.00001188 -0.05387100
v -0.04184590 -0.00832450 -0.05187164
v -0.04271779 -0.00536175 -0.03948826
v -0.00734256 -0.04252310 -0.03948826
v -0.00832450 -0.04184590 -0.05187164
v -0.00000764 -0.04256965 -0.05386818
v -0.00830757 -0.04175278 -0.05387100
v -0.04175278 -0.00830757 -0.05387100
v -0.04209561 -0.00949267 -0.03948826
v -0.04241305 -0.00843878 -0.03948826
v -0.03933179 -0.01629430 -0.05387100
v -0.00843878 -0.04241305 -0.03948826
v -0.01140153 -0.04151576 -0.03948826
v -0.01655248 -0.03995397 -0.03948826
v -0.01629430 -0.03933179 -0.05387100
v -0.03995397 -0.01655248 -0.03948826
v -0.03539557 -0.02365038 -0.05387100
v -0.03547598 -0.02370117 -0.05187164
v -0.03595849 -0.02402708 -0.03948826
v -0.02402708 -0.03595849 -0.03948826
v -0.02370117 -0.03547598 -0.05187164
v -0.02365038 -0.03539557 -0.05387100
v -0.03010071 -0.03010071 -0.05387100
v -0.03016843 -0.03016843 -0.05187164
v -0.03057898 -0.03057898 -0.03948826
f 1 2 6
f 1 6 13
f 1 13 7
f 1 7 3
f 1 3 4
f 1 4 5
f 1 5 2
f 2 5 4
f 2 4 10
f 2 10 17
f 2 17 16
f 2 16 23
f 2 23 26
f 2 26 32
f 2 32 27
f 2 27 21
f 2 21 20
f 2 20 19
f 2 19 11
f 2 11 6
f 3 7 14
f 3 14 22
f 3 22 29
f 3 29 30
f 3 30 24
f 3 24 18
f 3 18 15
f 3 15 8
f 3 8 4
f 4 8 9
f 4 9 10
f 6 11 12
f 6 12 13
f 7 13 14
f 8 15 9
f 9 16 17
f 9 17 10
f 9 15 18
f 9 18 16
f 11 19 12
f 12 19 20
f 12 20 21
f 12 21 22
f 12 22 14
f 12 14 13
f 16 18 23
f 18 24 25
f 18 25 26
f 18 26 23
f 21 27 22
f 22 27 28
f 22 28 29
f 24 30 31
f 24 31 25
f 25 31 26
f 26 31 32
f 27 32 31
f 27 31 28
f 28 31 29
f 29 31 30

