# https://github.com/mikedh/trimesh
v 0.03956435 0.01804046 -0.03181989
v 0.03511842 0.01804046 -0.03181989
v 0.04028673 0.01668746 -0.03181989
v 0.03900950 0.01804046 -0.04232042
v 0.03455204 0.01804046 -0.04232042
v 0.03943495 -0.00234646 -0.03181989
v 0.04225000 0.01021576 -0.03181989
v 0.04110395 0.01230714 -0.04232042
v 0.03983203 0.01649787 -0.04232042
v 0.03893416 -0.00234646 -0.04232042
v 0.04337567 -0.00234646 -0.03181989
v 0.04276852 0.00850554 -0.03181989
v 0.04203905 0.00922396 -0.04232042
v 0.04171464 0.01029359 -0.04232042
v 0.04288285 -0.00234646 -0.04232042
v 0.04299365 -0.00122694 -0.04232042
v 0.04360700 0.00000035 -0.03181989
v 0.04228545 0.00840976 -0.04232042
v 0.04317358 0.00439862 -0.03181989
v 0.04247868 0.00645408 -0.04232042
v 0.04311419 0.00000035 -0.04232042
f 1 2 6
f 1 6 11
f 1 11 17
f 1 17 19
f 1 19 12
f 1 12 7
f 1 7 3
f 1 3 4
f 1 4 5
f 1 5 2
f 2 5 6
f 3 7 8
f 3 8 9
f 3 9 4
f 4 9 8
f 4 8 14
f 4 14 13
f 4 13 18
f 4 18 20
f 4 20 21
f 4 21 16
f 4 16 15
f 4 15 10
f 4 10 5
f 5 10 6
f 6 10 15
f 6 15 11
f 7 12 13
f 7 13 14
f 7 14 8
f 11 15 16
f 11 16 17
f 12 18 13
f 12 19 20
f 12 20 18
f 16 21 17
f 17 21 20
f 17 20 19

