# https://github.com/mikedh/trimesh
v 0.03068044 0.03613461 0.05386481
v 0.03068044 0.03115718 0.05386481
v 0.03068044 0.03607471 0.05286672
v 0.02645692 0.03959609 0.05386481
v -0.00000764 0.04375358 0.05386481
v 0.03068044 0.02652466 -0.00935030
v 0.03068044 0.03231995 -0.00935030
v 0.02422501 0.03625852 -0.03181988
v 0.01822317 0.04399522 0.05386481
v -0.00000764 0.04762194 0.05386481
v -0.00000764 0.04073408 -0.00935869
v -0.00000764 0.03966424 -0.03181988
v 0.02925057 0.02658248 -0.03181988
v 0.02925057 0.03213407 -0.03181988
v 0.01668216 0.04028591 -0.03181988
v 0.00929250 0.04670700 0.05386481
v 0.01497893 0.04080430 -0.03181988
v 0.00871575 0.04380109 -0.00935869
v 0.00000137 0.04762194 0.05386481
v 0.00000137 0.04465820 -0.00935869
v 0.00000137 0.04360488 -0.03181988
v -0.00000764 0.04360282 -0.03181988
v 0.01274101 0.04148379 -0.03181988
v 0.00850848 0.04276636 -0.03181988
v 0.00673316 0.04294191 -0.03181988
f 1 2 6
f 1 6 7
f 1 7 3
f 1 3 4
f 1 4 9
f 1 9 16
f 1 16 19
f 1 19 10
f 1 10 5
f 1 5 2
f 2 5 6
f 3 7 8
f 3 8 4
f 4 8 9
f 5 10 22
f 5 22 12
f 5 12 11
f 5 11 6
f 6 11 12
f 6 12 13
f 6 13 14
f 6 14 7
f 7 14 8
f 8 14 13
f 8 13 12
f 8 12 22
f 8 22 21
f 8 21 25
f 8 25 24
f 8 24 23
f 8 23 17
f 8 17 15
f 8 15 9
f 9 15 17
f 9 17 18
f 9 18 16
f 10 19 20
f 10 20 21
f 10 21 22
f 16 18 19
f 17 23 18
f 18 23 24
f 18 24 25
f 18 25 21
f 18 21 20
f 18 20 19

