# https://github.com/mikedh/trimesh
v -0.04463274 -0.00000766 -0.00988888
v -0.04071083 -0.00000766 -0.00988888
v -0.04757595 -0.00000766 0.05286617
v -0.04463452 0.00000325 -0.00988888
v -0.04370209 -0.00000766 0.05277255
v -0.02944511 0.02798523 -0.00988888
v -0.02944511 0.03216761 0.05387100
v -0.04762222 -0.00000766 0.05386476
v -0.04762400 0.00000325 0.05387100
v -0.04414339 0.00498938 -0.00988888
v -0.04375547 -0.00000766 0.05387100
v -0.02944511 0.03329868 -0.00988888
v -0.02944511 0.03714647 0.05387100
v -0.04662217 -0.00000766 0.05387100
v -0.04670758 0.00929178 0.05387100
v -0.04666132 0.00928451 0.05286617
v -0.04377682 0.00870988 -0.00988888
v -0.03156266 0.03156026 -0.00988888
v -0.03364284 0.03364054 0.05286617
v -0.03367665 0.03367327 0.05387100
v -0.04399748 0.01822754 0.05387100
v -0.04395477 0.01820936 0.05286617
v -0.04232123 0.01350690 -0.00988888
v -0.03711278 0.02479570 -0.00988888
v -0.03959689 0.02645775 0.05387100
v -0.03887443 0.02150071 -0.00988888
v -0.04123577 0.01708193 -0.00988888
f 1 2 5
f 1 5 11
f 1 11 14
f 1 14 8
f 1 8 3
f 1 3 4
f 1 4 10
f 1 10 17
f 1 17 23
f 1 23 27
f 1 27 26
f 1 26 24
f 1 24 18
f 1 18 12
f 1 12 6
f 1 6 2
f 2 6 7
f 2 7 5
f 3 8 9
f 3 9 4
f 4 9 10
f 5 7 11
f 6 12 13
f 6 13 7
f 7 13 20
f 7 20 25
f 7 25 21
f 7 21 15
f 7 15 9
f 7 9 14
f 7 14 11
f 8 14 9
f 9 15 16
f 9 16 17
f 9 17 10
f 12 18 19
f 12 19 13
f 13 19 20
f 15 21 22
f 15 22 16
f 16 22 17
f 17 22 23
f 18 24 25
f 18 25 20
f 18 20 19
f 21 25 22
f 22 24 26
f 22 26 27
f 22 27 23
f 22 25 24

