# https://github.com/mikedh/trimesh
v 0.02078716 0.03322444 -0.03972666
v 0.02078716 0.03365047 -0.03181989
v 0.02078716 0.03767715 -0.03972666
v 0.03469133 0.01804046 -0.03972666
v 0.02078716 0.03809729 -0.03181989
v 0.03490640 0.01804046 -0.03572684
v 0.03511779 0.01804046 -0.03181989
v 0.02078716 0.03795397 -0.03452488
v 0.02402240 0.03594947 -0.03972666
v 0.03914530 0.01804046 -0.03972666
v 0.02422828 0.03625574 -0.03181989
v 0.03956441 0.01804046 -0.03181989
v 0.02764366 0.03345414 -0.03181989
v 0.02657199 0.03385661 -0.03972666
v 0.03876479 0.01875313 -0.03972666
v 0.03944493 0.01826428 -0.03181989
v 0.02945613 0.03196598 -0.03181989
v 0.03057192 0.03057205 -0.03972666
v 0.03811774 0.01996447 -0.03972666
v 0.03834017 0.02033160 -0.03181989
v 0.03083294 0.03083317 -0.03181989
v 0.03363620 0.02742099 -0.03181989
v 0.03436229 0.02595639 -0.03972666
v 0.03594866 0.02402256 -0.03972666
v 0.03625748 0.02422871 -0.03181989
v 0.03526301 0.02485892 -0.03972666
f 1 2 5
f 1 5 8
f 1 8 3
f 1 3 9
f 1 9 14
f 1 14 18
f 1 18 23
f 1 23 26
f 1 26 24
f 1 24 19
f 1 19 15
f 1 15 10
f 1 10 4
f 1 4 2
f 2 4 6
f 2 6 7
f 2 7 12
f 2 12 16
f 2 16 20
f 2 20 25
f 2 25 22
f 2 22 21
f 2 21 17
f 2 17 13
f 2 13 11
f 2 11 5
f 3 8 9
f 4 10 12
f 4 12 7
f 4 7 6
f 5 11 9
f 5 9 8
f 9 13 14
f 9 11 13
f 10 15 16
f 10 16 12
f 13 17 14
f 14 17 18
f 15 19 16
f 16 19 20
f 17 21 18
f 18 21 22
f 18 22 23
f 19 24 25
f 19 25 20
f 22 25 23
f 23 25 26
f 24 26 25

