# https://github.com/mikedh/trimesh
v -0.00000764 0.04662121 0.05387100
v -0.00000764 0.04375613 0.05387100
v -0.00000764 0.04762129 0.05386186
v -0.00929234 0.04670809 0.05387100
v -0.02944431 0.03217031 0.05387100
v -0.02944431 0.02798852 -0.00988124
v -0.00000764 0.04370207 0.05276505
v -0.00000764 0.04757495 0.05286559
v -0.00928565 0.04666176 0.05286559
v -0.01822238 0.04399746 0.05387100
v -0.02944431 0.03714752 0.05387100
v -0.03418871 0.02836307 -0.00989038
v -0.03322176 0.02789778 -0.03222880
v -0.02814613 0.02789778 -0.03222880
v -0.02765094 0.02789778 -0.03950433
v -0.00000764 0.03929633 -0.03950433
v -0.00000764 0.04324451 -0.03950433
v -0.00843915 0.04241433 -0.03950433
v -0.00850941 0.04274833 -0.03222880
v -0.01655615 0.03995275 -0.03950433
v -0.01708814 0.04123470 -0.00989038
v -0.02479695 0.03711470 -0.00988124
v -0.02642971 0.03955697 0.05286559
v -0.02645648 0.03959558 0.05387100
v -0.02944431 0.03708767 0.05286559
v -0.03155219 0.03156409 -0.00989038
v -0.03081945 0.03082465 -0.03222880
v -0.03278346 0.02789778 -0.03950433
v -0.02402071 0.03595824 -0.03950433
v -0.02421477 0.03624398 -0.03222880
v -0.02818628 0.03254872 -0.03950433
v -0.03057521 0.03058139 -0.03950433
f 1 2 7
f 1 7 16
f 1 16 17
f 1 17 8
f 1 8 3
f 1 3 4
f 1 4 10
f 1 10 24
f 1 24 11
f 1 11 5
f 1 5 2
f 2 5 6
f 2 6 7
f 3 8 4
f 4 8 9
f 4 9 10
f 5 11 12
f 5 12 6
f 6 12 13
f 6 13 14
f 6 14 15
f 6 15 16
f 6 16 7
f 8 17 9
f 9 17 18
f 9 18 19
f 9 19 20
f 9 20 21
f 9 21 10
f 10 22 23
f 10 23 24
f 10 21 22
f 11 24 25
f 11 25 26
f 11 26 12
f 12 26 27
f 12 27 28
f 12 28 13
f 13 28 15
f 13 15 14
f 15 28 32
f 15 32 31
f 15 31 29
f 15 29 20
f 15 20 18
f 15 18 17
f 15 17 16
f 18 20 19
f 20 29 30
f 20 30 21
f 21 30 22
f 22 25 23
f 22 30 31
f 22 31 25
f 23 25 24
f 25 31 27
f 25 27 26
f 27 31 32
f 27 32 28
f 29 31 30

