# https://github.com/mikedh/trimesh
v -0.04324676 0.00000081 -0.03950643
v -0.04266691 0.00000081 -0.05187276
v -0.04256956 -0.00000766 -0.05387100
v -0.04324252 -0.00000766 -0.03950643
v -0.04252300 0.00734241 -0.03950643
v -0.04256956 0.00000081 -0.05387100
v -0.04184581 0.00832468 -0.05187276
v -0.04175269 0.00830775 -0.05387100
v -0.00002034 -0.00000766 -0.05387100
v -0.03929784 -0.00000766 -0.03950643
v -0.04241296 0.00843900 -0.03950643
v -0.04151567 0.01140274 -0.03950643
v -0.03933171 0.01629291 -0.05387100
v -0.00000764 -0.00000343 -0.05387100
v -0.00002034 -0.00000766 -0.04285747
v -0.00000764 -0.00000343 -0.04285747
v -0.00000764 0.03929576 -0.03950643
v -0.03995388 0.01655118 -0.03950643
v -0.03547591 0.02370226 -0.05187276
v -0.03539549 0.02365145 -0.05387100
v -0.00000764 0.04256858 -0.05387100
v -0.00000764 0.04324600 -0.03950643
v -0.03849367 0.01928205 -0.03950643
v -0.03595418 0.02402403 -0.03950643
v -0.03399030 0.02642043 -0.03950643
v -0.03127728 0.02972712 -0.03950643
v -0.03057892 0.03057813 -0.03950643
v -0.03010064 0.03010394 -0.05387100
v -0.03717314 0.02175042 -0.03950643
v -0.03647477 0.02305447 -0.03950643
v -0.00830756 0.04175143 -0.05387100
v -0.00000764 0.04266596 -0.05187276
v -0.00000764 0.04267019 -0.05178557
v -0.00832449 0.04184458 -0.05187276
v -0.00536174 0.04271677 -0.03950643
v -0.02487775 0.03525661 -0.03950643
v -0.02365033 0.03539633 -0.05387100
v -0.01632812 0.03941855 -0.05187276
v -0.01629426 0.03932963 -0.05387100
v -0.00949265 0.04209438 -0.03950643
v -0.00843876 0.04241192 -0.03950643
v -0.01090630 0.04166676 -0.03950643
v -0.02402279 0.03595521 -0.03950643
v -0.02129707 0.03741591 -0.03950643
v -0.01752169 0.03943548 -0.03950643
v -0.01655245 0.03995202 -0.03950643
f 1 2 3
f 1 3 4
f 1 4 10
f 1 10 17
f 1 17 22
f 1 22 35
f 1 35 41
f 1 41 40
f 1 40 42
f 1 42 46
f 1 46 45
f 1 45 44
f 1 44 43
f 1 43 36
f 1 36 27
f 1 27 26
f 1 26 25
f 1 25 24
f 1 24 30
f 1 30 29
f 1 29 23
f 1 23 18
f 1 18 12
f 1 12 11
f 1 11 5
f 1 5 2
f 2 6 3
f 2 5 7
f 2 7 8
f 2 8 6
f 3 6 8
f 3 8 13
f 3 13 20
f 3 20 28
f 3 28 37
f 3 37 39
f 3 39 31
f 3 31 21
f 3 21 14
f 3 14 9
f 3 9 15
f 3 15 10
f 3 10 4
f 5 11 7
f 7 11 12
f 7 12 13
f 7 13 8
f 9 14 16
f 9 16 15
f 10 15 16
f 10 16 17
f 12 18 13
f 13 18 19
f 13 19 20
f 14 21 32
f 14 32 33
f 14 33 22
f 14 22 17
f 14 17 16
f 18 23 19
f 19 24 25
f 19 25 26
f 19 26 27
f 19 27 28
f 19 28 20
f 19 23 29
f 19 29 30
f 19 30 24
f 21 31 32
f 22 33 34
f 22 34 35
f 27 36 28
f 28 36 37
f 31 38 34
f 31 34 33
f 31 33 32
f 31 39 38
f 34 40 41
f 34 41 35
f 34 38 42
f 34 42 40
f 36 43 37
f 37 43 44
f 37 44 45
f 37 45 38
f 37 38 39
f 38 45 46
f 38 46 42

