# https://github.com/mikedh/trimesh
v -0.04316978 -0.00225052 0.01027004
v -0.04321112 -0.00084028 0.01027004
v -0.03702970 -0.00225052 0.01027004
v -0.04425723 -0.00225052 0.03251284
v -0.04526739 -0.00005232 0.05158850
v -0.04540400 0.00457237 0.05158850
v -0.04336030 0.00436249 0.01027004
v -0.02704131 0.02300851 0.01027004
v -0.02704131 0.02301587 0.01035094
v -0.02704131 0.02305269 0.01069071
v -0.02704131 0.02363078 0.01550816
v -0.02704131 0.02542763 0.03037714
v -0.03706206 -0.00225052 0.01069071
v -0.03922259 -0.00225052 0.03251284
v -0.04202300 -0.00005232 0.05158850
v -0.04337109 0.01326574 0.05158850
v -0.04142086 0.01266556 0.01027004
v -0.02704131 0.03408419 0.01027004
v -0.02704131 0.02580689 0.03148949
v -0.03903026 -0.00225052 0.03115376
v -0.03892062 -0.00225052 0.03037310
v -0.03762646 -0.00225052 0.01668927
v -0.02704131 0.02615668 0.03251284
v -0.03993258 -0.00163193 0.03760939
v -0.02883336 0.02941164 0.04712295
v -0.03000709 0.02941164 0.05158850
v -0.04019321 0.02159828 0.05158850
v -0.04023994 0.01577692 0.01027004
v -0.02757155 0.03375280 0.01027004
v -0.02826536 0.03460336 0.03251284
v -0.02704131 0.03536555 0.03251284
v -0.02788251 0.03513358 0.03760939
v -0.02837142 0.03496789 0.04006868
v -0.03446655 0.02941164 0.05158850
v -0.03499320 0.02885564 0.05158850
v -0.03864740 0.02077349 0.01631714
v -0.03838498 0.02062253 0.01027004
v -0.03114308 0.02997131 0.01027004
v -0.02850083 0.03488688 0.04006868
v -0.03342044 0.02755587 0.01027004
f 1 2 7
f 1 7 17
f 1 17 28
f 1 28 37
f 1 37 40
f 1 40 38
f 1 38 29
f 1 29 18
f 1 18 8
f 1 8 3
f 1 3 13
f 1 13 22
f 1 22 21
f 1 21 20
f 1 20 14
f 1 14 4
f 1 4 5
f 1 5 6
f 1 6 2
f 2 6 7
f 3 8 9
f 3 9 10
f 3 10 11
f 3 11 12
f 3 12 13
f 4 14 15
f 4 15 5
f 5 15 26
f 5 26 34
f 5 34 35
f 5 35 27
f 5 27 16
f 5 16 6
f 6 16 17
f 6 17 7
f 8 18 31
f 8 31 23
f 8 23 19
f 8 19 12
f 8 12 11
f 8 11 10
f 8 10 9
f 12 19 14
f 12 14 20
f 12 20 21
f 12 21 22
f 12 22 13
f 14 23 24
f 14 24 15
f 14 19 23
f 15 25 26
f 15 24 23
f 15 23 25
f 16 27 28
f 16 28 17
f 18 29 30
f 18 30 31
f 23 31 25
f 25 32 33
f 25 33 26
f 25 31 32
f 26 33 34
f 27 35 36
f 27 36 28
f 28 36 37
f 29 38 35
f 29 35 30
f 30 35 34
f 30 34 39
f 30 39 33
f 30 33 32
f 30 32 31
f 33 39 34
f 35 38 40
f 35 40 36
f 36 40 37

