# https://github.com/mikedh/trimesh
v -0.02684306 -0.03526975 0.03250877
v -0.02684306 -0.02892433 0.03250877
v -0.02948690 -0.03439773 0.05158663
v -0.02825651 -0.03424952 0.03250877
v -0.02775201 -0.03363945 0.01630672
v -0.02612782 -0.03167137 -0.03585140
v -0.02440570 -0.03299491 -0.03438782
v -0.02440570 -0.03354984 -0.02511850
v -0.02352230 -0.02541557 -0.02511850
v -0.04135224 -0.00005802 0.04711887
v -0.04163110 -0.00005802 0.04900183
v -0.04202065 -0.00005802 0.05158663
v -0.02948690 -0.02992733 0.05158663
v -0.03703312 -0.00104723 0.01025556
v -0.03534506 -0.02886229 0.05158663
v -0.03216054 -0.02626346 -0.03158905
v -0.02688350 -0.03095790 -0.03585140
v -0.02440570 -0.03290530 -0.03585140
v -0.02440570 -0.02353365 -0.03585140
v -0.03360805 -0.00104723 -0.03585140
v -0.03440205 -0.00104723 -0.02511850
v -0.04503275 -0.00005802 0.04711887
v -0.04526691 -0.00005802 0.05158663
v -0.04004309 -0.02128639 0.05158663
v -0.03624976 -0.01927350 -0.03585140
v -0.03199663 -0.02612904 -0.03585140
v -0.04094778 -0.00104723 -0.03585140
v -0.04514131 -0.00436642 0.05158663
v -0.04089670 -0.00290501 -0.03585140
v -0.04086690 -0.00394593 -0.03585140
v -0.04369380 -0.01315902 0.05158663
v -0.03955349 -0.01191130 -0.03585140
f 1 2 13
f 1 13 3
f 1 3 4
f 1 4 5
f 1 5 6
f 1 6 7
f 1 7 8
f 1 8 9
f 1 9 2
f 2 10 11
f 2 11 12
f 2 12 13
f 2 9 14
f 2 14 10
f 3 5 4
f 3 13 12
f 3 12 23
f 3 23 28
f 3 28 31
f 3 31 24
f 3 24 15
f 3 15 16
f 3 16 6
f 3 6 5
f 6 16 17
f 6 17 26
f 6 26 25
f 6 25 32
f 6 32 30
f 6 30 29
f 6 29 27
f 6 27 20
f 6 20 19
f 6 19 18
f 6 18 7
f 7 18 9
f 7 9 8
f 9 18 19
f 9 19 20
f 9 20 21
f 9 21 14
f 10 22 23
f 10 23 12
f 10 12 11
f 10 14 21
f 10 21 20
f 10 20 27
f 10 27 22
f 15 24 25
f 15 25 16
f 16 25 26
f 16 26 17
f 22 27 23
f 23 27 29
f 23 29 30
f 23 30 28
f 24 31 25
f 25 31 32
f 28 30 31
f 30 32 31

