# https://github.com/mikedh/trimesh
v 0.03060120 0.00104295 -0.03966654
v 0.02067576 0.02273477 -0.03966654
v 0.04076259 0.00104295 -0.03966654
v 0.03703366 0.00104295 0.01025667
v 0.03388469 0.02273477 -0.03966654
v 0.02740592 0.02547554 0.01025667
v 0.02369242 0.02547554 -0.02306457
v 0.02358216 0.02435627 -0.03514095
v 0.04076039 0.00112427 -0.03966654
v 0.04157630 0.00104534 -0.02306946
v 0.04265242 0.00104295 -0.00102309
v 0.04320371 0.00104295 0.01025667
v 0.03608765 0.01918563 -0.03966654
v 0.03313934 0.02435627 -0.03514095
v 0.03314155 0.02547554 -0.02306457
v 0.03505122 0.02547554 0.01025667
v 0.04067880 0.00394157 -0.03966654
v 0.04311330 0.00417595 0.01025667
v 0.04089931 0.00396070 -0.03514584
v 0.03937334 0.01186494 -0.03966654
v 0.03775475 0.02007531 -0.00102798
v 0.04172846 0.01257286 0.01025667
v 0.04042079 0.01218542 -0.01744424
v 0.03824209 0.02033360 0.01025667
v 0.04018704 0.00693107 -0.03966654
v 0.04079126 0.00462557 -0.03514584
f 1 2 5
f 1 5 13
f 1 13 20
f 1 20 25
f 1 25 17
f 1 17 9
f 1 9 3
f 1 3 11
f 1 11 12
f 1 12 4
f 1 4 2
f 2 4 6
f 2 6 7
f 2 7 8
f 2 8 14
f 2 14 5
f 3 9 10
f 3 10 11
f 4 12 18
f 4 18 22
f 4 22 24
f 4 24 16
f 4 16 6
f 5 14 15
f 5 15 13
f 6 16 15
f 6 15 7
f 7 15 14
f 7 14 8
f 9 17 10
f 10 18 12
f 10 12 11
f 10 17 19
f 10 19 18
f 13 15 21
f 13 21 22
f 13 22 23
f 13 23 20
f 15 16 24
f 15 24 21
f 17 25 26
f 17 26 18
f 17 18 19
f 18 26 22
f 20 26 25
f 20 23 26
f 21 24 22
f 22 26 23

