# https://github.com/mikedh/trimesh
v -0.04148091 0.00417537 -0.02807596
v -0.04101449 0.00617684 -0.02807596
v -0.04130926 0.00415826 -0.03159510
v -0.04133180 -0.00104215 -0.02807596
v -0.03962912 0.01211626 -0.02807596
v -0.03935863 0.01203415 -0.03385824
v -0.04103357 0.00413089 -0.03722161
v -0.04116014 -0.00104215 -0.03160226
v -0.03418646 -0.00104215 -0.02807596
v -0.03672313 0.01973555 -0.02807596
v -0.03657055 0.01965344 -0.03159510
v -0.03632607 0.01952343 -0.03722161
v -0.03857318 0.01363191 -0.03722161
v -0.03920085 0.01198625 -0.03722161
v -0.04094341 0.00097985 -0.03722161
v -0.04088445 -0.00104215 -0.03722161
v -0.03282016 -0.00104215 -0.03722161
v -0.02376927 0.02245550 -0.02807596
v -0.03552502 0.02140858 -0.02807596
v -0.03162551 0.02608211 -0.03722161
v -0.02376927 0.02084406 -0.03722161
v -0.02376927 0.03391010 -0.02807596
v -0.03197055 0.02636608 -0.02807596
v -0.02637530 0.03229181 -0.02807596
v -0.02608921 0.03194284 -0.03722161
v -0.02376927 0.03338321 -0.03722161
v -0.02462928 0.03337637 -0.02807596
v -0.02626433 0.03215838 -0.03159510
f 1 2 3
f 1 3 4
f 1 4 9
f 1 9 18
f 1 18 22
f 1 22 27
f 1 27 24
f 1 24 23
f 1 23 19
f 1 19 10
f 1 10 5
f 1 5 2
f 2 5 3
f 3 5 6
f 3 6 7
f 3 7 8
f 3 8 4
f 4 8 16
f 4 16 17
f 4 17 9
f 5 10 6
f 6 10 11
f 6 11 12
f 6 12 13
f 6 13 14
f 6 14 7
f 7 14 13
f 7 13 12
f 7 12 20
f 7 20 25
f 7 25 26
f 7 26 21
f 7 21 17
f 7 17 16
f 7 16 15
f 7 15 8
f 8 15 16
f 9 17 18
f 10 19 12
f 10 12 11
f 12 19 20
f 17 21 18
f 18 21 26
f 18 26 22
f 19 23 20
f 20 23 24
f 20 24 25
f 22 26 27
f 24 27 28
f 24 28 25
f 25 28 27
f 25 27 26

