# https://github.com/mikedh/trimesh
v 0.02505908 -0.03531265 0.01026147
v 0.02757940 -0.03374683 0.01026147
v 0.02505908 -0.02502803 0.01026147
v 0.02067795 -0.02130208 -0.04023052
v 0.02395769 -0.03401373 -0.02418735
v 0.02395769 -0.03345857 -0.03384982
v 0.02505908 -0.03333046 -0.02418735
v 0.03342387 -0.02755114 0.01026147
v 0.02650466 -0.03243011 -0.02418735
v 0.02620488 -0.03206001 -0.03384488
v 0.03090799 -0.02692481 -0.03599979
v 0.03703447 0.00104295 0.01026147
v 0.03008861 0.00103939 -0.04023052
v 0.03486722 -0.02130208 -0.04023052
v 0.02395769 -0.03333046 -0.03599979
v 0.02395769 -0.03337316 -0.03531279
v 0.02613605 -0.03197815 -0.03599979
v 0.03838900 -0.02061881 0.01026147
v 0.03176068 -0.02617393 -0.03384982
v 0.03689458 -0.01981810 -0.02418735
v 0.03167852 -0.02610631 -0.03599979
v 0.04320314 0.00104295 0.01026147
v 0.03511814 0.00104295 -0.01551337
v 0.03360151 0.00104295 -0.03599979
v 0.04073611 0.00103939 -0.04023052
v 0.03447419 0.00104295 -0.02418735
v 0.03619732 -0.01944088 -0.04023052
v 0.03638163 -0.01954052 -0.03600473
v 0.04024316 -0.01575763 0.01026147
v 0.03981237 -0.01216336 -0.02418735
v 0.03787384 -0.01504590 -0.04023052
v 0.04336080 -0.00435203 0.01026147
v 0.04239486 0.00104295 -0.00629077
v 0.04094262 0.00104295 -0.03599979
v 0.04074944 0.00060167 -0.04023052
v 0.04142448 -0.01265445 0.01026147
v 0.03925723 -0.01199610 -0.03599979
v 0.03905961 -0.01193204 -0.04023052
v 0.03923503 -0.01119183 -0.04023052
v 0.04109362 -0.00412427 -0.03600473
v 0.04088489 -0.00410292 -0.04023052
f 1 2 8
f 1 8 18
f 1 18 29
f 1 29 36
f 1 36 32
f 1 32 22
f 1 22 12
f 1 12 3
f 1 3 4
f 1 4 5
f 1 5 6
f 1 6 7
f 1 7 2
f 2 7 9
f 2 9 10
f 2 10 11
f 2 11 8
f 3 12 13
f 3 13 4
f 4 13 25
f 4 25 35
f 4 35 41
f 4 41 39
f 4 39 38
f 4 38 31
f 4 31 27
f 4 27 14
f 4 14 15
f 4 15 16
f 4 16 6
f 4 6 5
f 6 16 17
f 6 17 10
f 6 10 7
f 7 10 9
f 8 11 19
f 8 19 20
f 8 20 18
f 10 17 11
f 11 21 19
f 11 17 14
f 11 14 21
f 12 22 33
f 12 33 34
f 12 34 24
f 12 24 26
f 12 26 23
f 12 23 13
f 13 24 34
f 13 34 25
f 13 23 26
f 13 26 24
f 14 17 15
f 14 27 28
f 14 28 20
f 14 20 19
f 14 19 21
f 15 17 16
f 18 20 29
f 20 30 29
f 20 28 31
f 20 31 30
f 22 32 33
f 25 34 33
f 25 33 35
f 27 31 28
f 29 30 36
f 30 31 37
f 30 37 38
f 30 38 39
f 30 39 36
f 31 38 37
f 32 36 39
f 32 39 40
f 32 40 33
f 33 40 35
f 35 40 41
f 39 41 40

