# https://github.com/mikedh/trimesh
v 0.02505645 -0.02503034 0.01026147
v 0.00000696 -0.03567011 0.01026147
v 0.02505645 -0.03530998 0.01026147
v 0.02505645 -0.02153560 -0.02418876
v 0.00000696 -0.04323281 0.01026147
v 0.00000696 -0.03236077 -0.03600131
v 0.02033638 -0.03824002 0.01026147
v 0.02505645 -0.03506493 0.00597670
v 0.02505645 -0.03332821 -0.02418876
v 0.02395306 -0.02146315 -0.03600131
v 0.00000696 -0.04316036 0.00875319
v 0.00084309 -0.04320937 0.01026147
v 0.00000696 -0.04097189 -0.03600131
v 0.01731063 -0.03959956 0.01026147
v 0.02007892 -0.03775417 -0.00102114
v 0.01954684 -0.03675263 -0.02418876
v 0.02395306 -0.03387586 -0.02660744
v 0.02395306 -0.03333460 -0.03600131
v 0.00416308 -0.04311348 0.01026147
v 0.00000696 -0.04107843 -0.03384987
v 0.00211812 -0.04148970 -0.02418876
v 0.00394730 -0.04085895 -0.03600131
v 0.01256358 -0.04172837 0.01026147
v 0.01197510 -0.03975299 -0.03158972
v 0.01194323 -0.03964644 -0.03384534
v 0.01824974 -0.03670149 -0.03600131
v 0.01927467 -0.03624120 -0.03600131
v 0.00505560 -0.04067782 -0.03600131
v 0.01191135 -0.03954416 -0.03600131
f 1 2 5
f 1 5 12
f 1 12 19
f 1 19 23
f 1 23 14
f 1 14 7
f 1 7 3
f 1 3 8
f 1 8 9
f 1 9 4
f 1 4 2
f 2 4 6
f 2 6 13
f 2 13 20
f 2 20 11
f 2 11 5
f 3 7 8
f 4 9 18
f 4 18 10
f 4 10 6
f 5 11 12
f 6 10 18
f 6 18 27
f 6 27 26
f 6 26 29
f 6 29 28
f 6 28 22
f 6 22 13
f 7 14 15
f 7 15 8
f 8 15 16
f 8 16 17
f 8 17 9
f 9 17 18
f 11 19 12
f 11 20 21
f 11 21 19
f 13 22 20
f 14 23 24
f 14 24 15
f 15 24 16
f 16 24 25
f 16 25 26
f 16 26 27
f 16 27 17
f 17 27 18
f 19 21 22
f 19 22 28
f 19 28 23
f 20 22 21
f 23 28 24
f 24 28 25
f 25 28 29
f 25 29 26

