# https://github.com/mikedh/trimesh
v 0.00000725 0.04503607 0.04712018
v 0.00000368 0.04527036 0.05158850
v 0.00000725 0.04119911 0.04712018
v 0.00000725 0.04492372 0.04482516
v -0.00435472 0.04514365 0.05158850
v 0.00000368 0.04202388 0.05158850
v 0.00000368 0.04136167 -0.02806764
v 0.00000011 0.04136167 -0.02806764
v -0.00393386 0.04079987 -0.03722162
v -0.00395169 0.04096483 -0.03384864
v 0.00000725 0.04066600 0.04482516
v 0.00000368 0.04091223 -0.03722162
v -0.01316068 0.04369732 0.05158850
v -0.00567080 0.04051539 -0.03722162
v -0.02999866 0.02942047 0.05158850
v -0.02787296 0.02531097 0.03250684
v 0.00000368 0.03739323 0.03036831
v 0.00000368 0.03677644 0.02326593
v 0.00000368 0.03570066 0.01068682
v 0.00000368 0.03177763 -0.03722162
v -0.02128186 0.04004683 0.05158850
v -0.01188740 0.03949220 -0.03722162
v -0.01764035 0.03691271 -0.03722162
v -0.03446049 0.02942047 0.05158850
v -0.02703480 0.02302075 0.01034778
v -0.02703480 0.02305900 0.01068682
v -0.03538424 0.02742190 0.04126963
v -0.03642926 0.02336261 0.01026085
v -0.02376779 0.02085006 -0.03722162
v -0.02886091 0.03534206 0.05158850
v -0.01944862 0.03658997 -0.02806764
v -0.02072903 0.03526796 -0.03722162
v -0.02376779 0.03338175 -0.03722162
v -0.01923462 0.03619313 -0.03722162
v -0.03458889 0.02853355 0.04126963
v -0.03480645 0.02871523 0.04712018
v -0.03481715 0.02870328 0.04712018
v -0.03508465 0.02813909 0.04482516
v -0.02778023 0.03080465 -0.02806764
v -0.03196386 0.02637002 -0.02806764
v -0.03306238 0.02727608 0.00094170
v -0.02703480 0.02301597 0.01026954
v -0.03586930 0.02336261 0.00095039
v -0.03489205 0.02336261 -0.01529727
v -0.03412166 0.02336261 -0.02806764
v -0.02636785 0.03229401 -0.02806764
f 1 2 6
f 1 6 3
f 1 3 11
f 1 11 4
f 1 4 2
f 2 5 13
f 2 13 21
f 2 21 30
f 2 30 24
f 2 24 15
f 2 15 6
f 2 4 7
f 2 7 8
f 2 8 9
f 2 9 10
f 2 10 5
f 3 6 11
f 4 11 20
f 4 20 12
f 4 12 7
f 5 10 14
f 5 14 13
f 6 15 16
f 6 16 17
f 6 17 11
f 7 12 8
f 8 12 9
f 9 12 20
f 9 20 29
f 9 29 33
f 9 33 32
f 9 32 34
f 9 34 23
f 9 23 22
f 9 22 14
f 9 14 10
f 11 17 18
f 11 18 19
f 11 19 20
f 13 14 22
f 13 22 23
f 13 23 21
f 15 24 16
f 16 25 26
f 16 26 17
f 16 24 27
f 16 27 28
f 16 28 25
f 17 26 25
f 17 25 18
f 18 25 19
f 19 25 20
f 20 25 29
f 21 23 31
f 21 31 32
f 21 32 33
f 21 33 30
f 23 34 31
f 24 35 36
f 24 36 37
f 24 37 38
f 24 38 27
f 24 30 39
f 24 39 40
f 24 40 41
f 24 41 35
f 25 42 29
f 25 28 42
f 27 38 28
f 28 38 35
f 28 35 43
f 28 43 29
f 28 29 42
f 29 43 44
f 29 44 45
f 29 45 33
f 30 33 46
f 30 46 39
f 31 34 32
f 33 45 40
f 33 40 39
f 33 39 46
f 35 38 37
f 35 37 36
f 35 41 44
f 35 44 43
f 40 45 44
f 40 44 41

