# https://github.com/mikedh/trimesh
v 0.03504919 0.02547934 0.01024861
v 0.03475421 0.02854769 0.03885067
v 0.03473705 0.02872518 0.04127139
v 0.03465473 0.02904244 0.04481762
v 0.02948555 0.02906684 0.04712222
v 0.02739318 0.02547934 0.01024861
v 0.03414021 0.02273714 -0.03513773
v 0.03202040 0.02615602 -0.03513773
v 0.03374575 0.02757150 0.01024861
v 0.02948555 0.03440039 0.05158850
v 0.02948555 0.02940629 0.04899806
v 0.02948555 0.02994320 0.05158850
v 0.00000713 0.03739330 0.03036473
v 0.00001056 0.03012512 -0.03966654
v 0.02067358 0.02273714 -0.03966654
v 0.02536598 0.02273714 -0.03513773
v 0.03387952 0.02273714 -0.03966654
v 0.03184547 0.02601403 -0.03966654
v 0.02600741 0.03152729 -0.03966654
v 0.02614804 0.03170034 -0.03513773
v 0.02886127 0.03498611 0.05158850
v 0.00001399 0.04202355 0.05158850
v 0.00000713 0.03787031 0.03250855
v 0.00000713 0.03678096 0.02327228
v 0.00001056 0.04079222 -0.03966654
v 0.00000713 0.03570272 0.01068630
v 0.00000713 0.03567166 0.01026647
v 0.01947304 0.03621300 -0.03966654
v 0.02160657 0.04018432 0.05158850
v 0.00001399 0.04526716 0.05158850
v 0.00000713 0.04432203 0.03250855
v 0.00000713 0.04323491 0.01026647
v 0.00113221 0.04082772 -0.03966654
v 0.01437932 0.03815872 -0.03966654
v 0.01205370 0.03935234 -0.03385144
v 0.01328168 0.04336803 0.05158850
v 0.00458291 0.04540250 0.05158850
v 0.00000713 0.04338578 0.01334821
v 0.00415757 0.04113388 -0.03513773
v 0.00413356 0.04090981 -0.03966654
v 0.01196452 0.03907945 -0.03966654
v 0.01152203 0.03918594 -0.03966654
f 1 2 3
f 1 3 4
f 1 4 5
f 1 5 6
f 1 6 16
f 1 16 7
f 1 7 8
f 1 8 9
f 1 9 2
f 2 10 4
f 2 4 3
f 2 9 8
f 2 8 10
f 4 11 5
f 4 10 12
f 4 12 11
f 5 11 13
f 5 13 6
f 6 14 15
f 6 15 16
f 6 13 14
f 7 16 15
f 7 15 17
f 7 17 8
f 8 17 18
f 8 18 19
f 8 19 20
f 8 20 10
f 10 21 29
f 10 29 36
f 10 36 37
f 10 37 30
f 10 30 22
f 10 22 12
f 10 20 21
f 11 12 13
f 12 22 13
f 13 22 23
f 13 23 31
f 13 31 38
f 13 38 32
f 13 32 27
f 13 27 26
f 13 26 24
f 13 24 14
f 14 25 33
f 14 33 40
f 14 40 42
f 14 42 41
f 14 41 34
f 14 34 28
f 14 28 19
f 14 19 18
f 14 18 17
f 14 17 15
f 14 24 26
f 14 26 27
f 14 27 32
f 14 32 25
f 19 28 20
f 20 28 21
f 21 28 29
f 22 30 31
f 22 31 23
f 25 32 30
f 25 30 33
f 28 34 35
f 28 35 36
f 28 36 29
f 30 37 33
f 30 32 38
f 30 38 31
f 33 39 40
f 33 37 39
f 34 41 35
f 35 41 42
f 35 42 36
f 36 42 37
f 37 42 39
f 39 42 40

