# https://github.com/mikedh/trimesh
v 0.03692626 -0.02453392 0.03251588
v 0.03445439 -0.02941963 0.05158663
v 0.03480132 -0.02871326 0.04712533
v 0.03538315 -0.02742028 0.04128074
v 0.03564696 -0.02684991 0.03885392
v 0.03535785 -0.02485463 0.01026600
v 0.03595052 -0.02453392 0.01631687
v 0.02863247 -0.02453392 0.03251588
v 0.03445077 -0.02841082 0.03761220
v 0.03000212 -0.02941963 0.05158663
v 0.02887098 -0.03533443 0.05158663
v 0.02757361 -0.03374917 0.01026600
v 0.03341721 -0.02755222 0.01026600
v 0.03426285 -0.02824641 0.03251588
v 0.03430622 -0.02818754 0.03251588
v 0.03558552 -0.02453392 0.01026600
v 0.03561443 -0.02453392 0.01074327
v 0.02791331 -0.02453392 0.03037219
v 0.00000713 -0.03739264 0.03037219
v 0.00001436 -0.04202259 0.05158663
v 0.02129273 -0.04003949 0.05158663
v 0.02033868 -0.03824109 0.01026600
v 0.02553901 -0.02453392 0.01026600
v 0.02647500 -0.02453392 0.01825832
v 0.00000713 -0.03566935 0.01026600
v 0.00000713 -0.03568965 0.01054104
v 0.00000713 -0.03570182 0.01069069
v 0.00000713 -0.03677964 0.02328184
v 0.00000713 -0.03755705 0.03111237
v 0.00001436 -0.04527025 0.05158663
v 0.00000713 -0.03786964 0.03251588
v 0.01316879 -0.04368905 0.05158663
v 0.01731749 -0.03959902 0.01026600
v 0.02555708 -0.02453392 0.01047228
v 0.00000713 -0.04323234 0.01026600
v 0.00436544 -0.04514035 0.05158663
v 0.00000713 -0.04432234 0.03251588
v 0.00084555 -0.04321002 0.01026600
v 0.00416306 -0.04311259 0.01026600
v 0.00743722 -0.04257469 0.01026600
v 0.01256889 -0.04172827 0.01026600
f 1 2 3
f 1 3 4
f 1 4 5
f 1 5 6
f 1 6 7
f 1 7 17
f 1 17 16
f 1 16 23
f 1 23 34
f 1 34 24
f 1 24 18
f 1 18 8
f 1 8 10
f 1 10 2
f 2 9 3
f 2 10 20
f 2 20 30
f 2 30 36
f 2 36 32
f 2 32 21
f 2 21 11
f 2 11 12
f 2 12 13
f 2 13 14
f 2 14 9
f 3 9 4
f 4 9 15
f 4 15 5
f 5 15 6
f 6 13 12
f 6 12 22
f 6 22 33
f 6 33 41
f 6 41 40
f 6 40 39
f 6 39 38
f 6 38 35
f 6 35 25
f 6 25 23
f 6 23 16
f 6 16 17
f 6 17 7
f 6 15 13
f 8 18 19
f 8 19 20
f 8 20 10
f 9 14 15
f 11 21 22
f 11 22 12
f 13 15 14
f 18 24 25
f 18 25 26
f 18 26 27
f 18 27 28
f 18 28 19
f 19 28 27
f 19 27 26
f 19 26 25
f 19 25 35
f 19 35 37
f 19 37 31
f 19 31 29
f 19 29 20
f 20 29 31
f 20 31 37
f 20 37 30
f 21 32 33
f 21 33 22
f 23 25 34
f 24 34 25
f 30 37 35
f 30 35 38
f 30 38 39
f 30 39 36
f 32 36 40
f 32 40 41
f 32 41 33
f 36 39 40

