# https://github.com/mikedh/trimesh
v 0.00000270 0.04091603 -0.03722161
v 0.01436704 0.03815605 -0.03966976
v 0.01194897 0.03907604 -0.03966976
v 0.00411824 0.04090781 -0.03966976
v -0.00047771 0.04073121 -0.04069627
v -0.00391266 0.04063264 -0.04069627
v -0.00392868 0.04080103 -0.03722161
v 0.00000270 0.03177361 -0.03722161
v 0.04076572 0.00104837 -0.03966976
v 0.04067765 0.00394387 -0.03966976
v 0.03936452 0.01187059 -0.03966976
v 0.03608170 0.01919766 -0.03966976
v 0.03184606 0.02600313 -0.03966976
v 0.02599303 0.03151486 -0.03966976
v 0.01946743 0.03620518 -0.03966976
v 0.01182086 0.03863248 -0.04907707
v 0.01925124 0.03579858 -0.04906301
v 0.00407020 0.04043960 -0.04906301
v 0.00000270 0.04032871 -0.04907004
v -0.00385661 0.04021371 -0.04907707
v -0.00513771 0.04043139 -0.04069627
v -0.00565816 0.04051764 -0.03722161
v -0.02353752 0.02107461 -0.03722161
v -0.03281750 -0.00104215 -0.03722302
v 0.04030133 0.00104837 -0.04907145
v 0.00000270 -0.00103804 -0.04244836
v 0.00000270 -0.00103804 -0.05156460
v 0.04020524 0.00390280 -0.04907707
v 0.03892414 0.01173505 -0.04906301
v 0.03567335 0.01897998 -0.04907707
v 0.03147775 0.02571153 -0.04906301
v 0.02570479 0.03116165 -0.04907707
v 0.01170876 0.03825462 -0.05032013
v 0.00403016 0.04004532 -0.05031169
v 0.01905907 0.03544947 -0.05031169
v 0.00000270 0.03993032 -0.05031591
v -0.00382459 0.03981943 -0.05032013
v -0.01158325 0.03854623 -0.05031169
v -0.01169535 0.03892408 -0.04906301
v -0.00743569 0.04005353 -0.04069627
v -0.01187951 0.03949086 -0.03722161
v -0.03521155 0.02107461 -0.03722161
v -0.04087241 -0.00104215 -0.03722302
v -0.02987097 -0.00104215 -0.04045863
v 0.04015720 0.00104837 -0.04952142
v 0.03982091 0.00386173 -0.05032013
v -0.02966278 -0.00104215 -0.04069768
v 0.03768308 0.00104837 -0.05157303
v 0.03847576 0.00104837 -0.05135789
v 0.03894016 0.00104837 -0.05123133
v 0.03955669 0.00104837 -0.05065058
v 0.03990098 0.00104837 -0.05031732
v -0.03766966 -0.00103804 -0.05157303
v 0.03853981 0.01162416 -0.05031169
v 0.03532105 0.01879516 -0.05032013
v 0.03117348 0.02546099 -0.05031169
v 0.02545657 0.03085362 -0.05032013
v 0.01142051 0.03733874 -0.05122993
v 0.00393408 0.03908836 -0.05123414
v 0.01860268 0.03459930 -0.05123414
v -0.00372850 0.03886658 -0.05122993
v -0.01130301 0.03762213 -0.05123414
v -0.01876542 0.03532626 -0.05032013
v -0.01894958 0.03567536 -0.04907707
v -0.01589896 0.03750713 -0.04069627
v -0.01183147 0.03932658 -0.04069627
v -0.01923783 0.03619286 -0.03722161
v -0.03161646 0.02608117 -0.03722161
v -0.03632451 0.01953033 -0.03722302
v -0.03919097 0.01198969 -0.03722302
v -0.03959932 0.01027703 -0.03722302
v -0.04103255 0.00413280 -0.03722302
v -0.04077633 -0.00104215 -0.03937869
v 0.03886809 0.00377548 -0.05122993
v 0.03761902 0.01134488 -0.05123414
v -0.04070427 -0.00104215 -0.04069768
v 0.03640198 0.01097934 -0.05158709
v 0.03760301 0.00365227 -0.05156460
v -0.03782180 0.00381655 -0.05158709
v -0.03848636 -0.00103804 -0.05135930
v 0.03446431 0.01834749 -0.05122993
v 0.03042884 0.02484904 -0.05123414
v 0.02484805 0.03011434 -0.05122993
v 0.01800217 0.03347806 -0.05158709
v 0.01105220 0.03612714 -0.05156460
v 0.00380597 0.03782338 -0.05158709
v 0.00000270 0.03897337 -0.05123274
v 0.00000270 0.03834909 -0.05140710
v -0.00360840 0.03760981 -0.05156460
v -0.01094270 0.03640232 -0.05158709
v -0.01831704 0.03448019 -0.05122993
v -0.02484264 0.03042648 -0.05123414
v -0.02544316 0.03117398 -0.05031169
v -0.02569938 0.03148201 -0.04906301
v -0.01915776 0.03604500 -0.04069627
v -0.02219237 0.03415984 -0.04069627
v -0.02608371 0.03194200 -0.03722161
v -0.03041543 0.02735848 -0.03722161
v -0.03148835 0.02597438 -0.04069627
v -0.03580406 0.01925927 -0.04906301
v -0.03863049 0.01182541 -0.04907707
v -0.04044004 0.00407530 -0.04906301
v -0.04029592 -0.00103804 -0.04907145
v -0.04015180 -0.00103804 -0.04952002
v -0.03989558 -0.00103804 -0.05031732
v -0.03955929 -0.00103804 -0.05064918
v -0.03893475 -0.00103804 -0.05123133
v 0.02943599 0.02404404 -0.05158709
v 0.03335135 0.01775196 -0.05156460
v -0.03908688 0.00394387 -0.05123414
v -0.03733338 0.01142702 -0.05122993
v -0.03612434 0.01106149 -0.05156460
v -0.03347406 0.01801071 -0.05158709
v 0.02404736 0.02913685 -0.05156460
v -0.02403395 0.02944078 -0.05158709
v -0.01772453 0.03336306 -0.05156460
v -0.03011918 0.02484493 -0.05122993
v -0.03086382 0.02545689 -0.05032013
v -0.02597161 0.03180647 -0.04069627
v -0.03116007 0.02570331 -0.04907707
v -0.03544375 0.01907034 -0.05031169
v -0.03826217 0.01171041 -0.05032013
v -0.04004771 0.00403834 -0.05031169
v -0.03460303 0.01861445 -0.05123414
v -0.02913433 0.02403993 -0.05156460
f 1 2 3
f 1 3 4
f 1 4 5
f 1 5 6
f 1 6 7
f 1 7 22
f 1 22 41
f 1 41 67
f 1 67 97
f 1 97 98
f 1 98 68
f 1 68 42
f 1 42 23
f 1 23 8
f 1 8 9
f 1 9 10
f 1 10 11
f 1 11 12
f 1 12 13
f 1 13 14
f 1 14 15
f 1 15 2
f 2 16 3
f 2 15 17
f 2 17 16
f 3 16 4
f 4 16 18
f 4 18 19
f 4 19 5
f 5 19 6
f 6 20 21
f 6 21 22
f 6 22 7
f 6 19 20
f 8 23 24
f 8 24 9
f 9 25 10
f 9 24 26
f 9 26 27
f 9 27 25
f 10 25 28
f 10 28 29
f 10 29 11
f 11 29 12
f 12 30 13
f 12 29 30
f 13 30 31
f 13 31 32
f 13 32 14
f 14 32 15
f 15 32 17
f 16 33 34
f 16 34 18
f 16 17 35
f 16 35 33
f 17 32 35
f 18 34 19
f 19 34 36
f 19 36 37
f 19 37 20
f 20 37 38
f 20 38 39
f 20 39 40
f 20 40 21
f 21 40 22
f 22 40 41
f 23 42 43
f 23 43 24
f 24 43 73
f 24 73 76
f 24 76 47
f 24 47 44
f 24 44 26
f 25 27 45
f 25 45 46
f 25 46 28
f 26 44 47
f 26 47 27
f 27 48 49
f 27 49 50
f 27 50 51
f 27 51 52
f 27 52 45
f 27 47 53
f 27 53 48
f 28 46 29
f 29 54 30
f 29 46 54
f 30 55 56
f 30 56 31
f 30 54 55
f 31 56 32
f 32 57 35
f 32 56 57
f 33 58 59
f 33 59 34
f 33 35 60
f 33 60 58
f 34 59 36
f 35 57 60
f 36 59 37
f 37 59 61
f 37 61 62
f 37 62 38
f 38 62 63
f 38 63 64
f 38 64 39
f 39 64 65
f 39 65 66
f 39 66 40
f 40 66 41
f 41 66 65
f 41 65 67
f 42 68 69
f 42 69 70
f 42 70 71
f 42 71 72
f 42 72 43
f 43 72 73
f 45 52 46
f 46 52 51
f 46 51 74
f 46 74 75
f 46 75 54
f 47 76 53
f 48 77 78
f 48 78 74
f 48 74 49
f 48 53 79
f 48 79 77
f 49 74 50
f 50 74 51
f 53 76 80
f 53 80 79
f 54 75 55
f 55 81 82
f 55 82 56
f 55 75 81
f 56 82 57
f 57 83 60
f 57 82 83
f 58 60 84
f 58 84 85
f 58 85 86
f 58 86 59
f 59 86 87
f 59 87 61
f 60 83 84
f 61 87 88
f 61 88 89
f 61 89 90
f 61 90 62
f 62 90 91
f 62 91 63
f 63 91 92
f 63 92 93
f 63 93 94
f 63 94 64
f 64 95 65
f 64 94 96
f 64 96 95
f 65 95 67
f 67 95 97
f 68 98 99
f 68 99 69
f 69 99 100
f 69 100 101
f 69 101 70
f 70 101 71
f 71 102 72
f 71 101 102
f 72 102 103
f 72 103 73
f 73 103 76
f 74 78 77
f 74 77 75
f 75 77 81
f 76 103 104
f 76 104 105
f 76 105 106
f 76 106 107
f 76 107 80
f 77 108 109
f 77 109 81
f 77 79 113
f 77 113 115
f 77 115 90
f 77 90 86
f 77 86 84
f 77 84 108
f 79 80 110
f 79 110 111
f 79 111 112
f 79 112 113
f 80 107 110
f 81 109 108
f 81 108 82
f 82 108 83
f 83 108 114
f 83 114 84
f 84 86 85
f 84 114 108
f 86 89 88
f 86 88 87
f 86 90 89
f 90 115 116
f 90 116 91
f 91 116 115
f 91 115 92
f 92 115 117
f 92 117 118
f 92 118 93
f 93 118 94
f 94 119 97
f 94 97 96
f 94 118 120
f 94 120 99
f 94 99 119
f 95 96 97
f 97 119 99
f 97 99 98
f 99 120 100
f 100 120 118
f 100 118 121
f 100 121 122
f 100 122 101
f 101 122 102
f 102 122 123
f 102 123 103
f 103 123 104
f 104 123 105
f 105 123 106
f 106 110 107
f 106 123 110
f 110 122 111
f 110 123 122
f 111 124 113
f 111 113 112
f 111 122 124
f 113 124 117
f 113 117 125
f 113 125 115
f 115 125 117
f 117 124 118
f 118 124 121
f 121 124 122

