# https://github.com/mikedh/trimesh
v 0.04073486 0.00104295 -0.04023184
v 0.04079895 -0.00109791 -0.04023184
v 0.04030227 0.00104295 -0.04907198
v 0.03008034 0.00104295 -0.04023184
v -0.03359848 -0.00104428 -0.03585488
v 0.03511920 -0.02130201 -0.03600735
v 0.04088707 -0.00410501 -0.04023184
v 0.04005393 -0.00402251 -0.05031176
v 0.03990974 0.00104295 -0.05031792
v 0.04044647 -0.00406376 -0.04906274
v -0.00000068 0.00104295 -0.04244803
v -0.04095251 -0.00104428 -0.03585488
v -0.00000068 -0.03236518 -0.03585488
v 0.03167451 -0.02610761 -0.03600735
v 0.03301233 -0.02388837 -0.04023184
v 0.03580814 -0.01924365 -0.04906274
v 0.03619267 -0.01944578 -0.04023184
v 0.03906058 -0.01193833 -0.04023184
v -0.00000068 -0.04097400 -0.03585488
v 0.03864401 -0.01181046 -0.04907660
v 0.03909262 -0.00393176 -0.05123428
v 0.03825948 -0.01169083 -0.05032100
v 0.03894843 0.00104295 -0.05123274
v -0.00000068 0.00104295 -0.05156540
v -0.04029561 -0.00104428 -0.04906890
v -0.04086439 -0.00395239 -0.03585488
v 0.03151429 -0.02597561 -0.04023184
v 0.02613095 -0.03198156 -0.03600735
v 0.03117783 -0.02569511 -0.04907660
v 0.03546367 -0.01905390 -0.05031176
v -0.00412630 -0.04109775 -0.03585488
v 0.00394070 -0.04085850 -0.03600735
v 0.01190355 -0.03954263 -0.03600735
v 0.01927360 -0.03623853 -0.03600735
v 0.02022690 -0.03564866 -0.03600735
v 0.03734624 -0.01141446 -0.05123120
v 0.03782690 -0.00379564 -0.05158850
v 0.03461452 -0.01860016 -0.05123428
v 0.03849180 0.00104295 -0.05135903
v -0.03768405 -0.00104428 -0.05157002
v -0.03849316 -0.00104428 -0.05135594
v -0.03894978 -0.00104428 -0.05122966
v -0.03990308 -0.00104428 -0.05031484
v -0.04015943 -0.00104428 -0.04951861
v 0.03768270 0.00104295 -0.05157156
v -0.04020749 -0.00388639 -0.04907507
v -0.03955060 -0.01191358 -0.03585488
v -0.03892574 -0.01172383 -0.04906120
v 0.01897720 -0.03567341 -0.04907660
v 0.02572239 -0.03147419 -0.04906274
v 0.02546604 -0.03117307 -0.05031176
v 0.03087341 -0.02544348 -0.05032100
v -0.01200104 -0.03925801 -0.03585488
v -0.00406221 -0.04045013 -0.04906120
v 0.00266696 -0.04068937 -0.04023184
v 0.00281917 -0.04089150 -0.03600735
v 0.00392468 -0.04065225 -0.04023184
v 0.00720915 -0.04011188 -0.04023184
v 0.01184748 -0.03934463 -0.04023184
v 0.01172731 -0.03892801 -0.04906274
v 0.03613659 -0.01104321 -0.05156540
v 0.03348498 -0.01799379 -0.05158850
v 0.01096628 -0.03640353 -0.05158850
v -0.03639429 -0.01096484 -0.05158542
v 0.03012840 -0.02483711 -0.05123120
v -0.03760394 -0.00363476 -0.05156386
v -0.03886166 -0.00375851 -0.05122966
v -0.03982297 -0.00384926 -0.05031792
v -0.03623408 -0.01928490 -0.03585488
v -0.03709926 -0.01580755 -0.04906890
v -0.03854122 -0.01161246 -0.05030868
v 0.01878494 -0.03532691 -0.05032100
v 0.02485721 -0.03042232 -0.05123428
v -0.01180878 -0.03863927 -0.04907507
v -0.01953931 -0.03637878 -0.03585488
v -0.00402216 -0.04005413 -0.05031022
v -0.00000068 -0.04014075 -0.04968186
v 0.00387661 -0.04021500 -0.04907660
v 0.00383656 -0.03982313 -0.05032100
v 0.01160715 -0.03854439 -0.05031176
v 0.02915107 -0.02402862 -0.05156540
v 0.02405612 -0.02943233 -0.05158850
v 0.01132677 -0.03762040 -0.05123428
v 0.00374843 -0.03887026 -0.05123120
v 0.00362827 -0.03760390 -0.05156540
v -0.00379785 -0.03782665 -0.05158542
v -0.01800122 -0.03347893 -0.05158542
v -0.02944082 -0.02404924 -0.05158542
v 0.01774352 -0.03336343 -0.05156540
v 0.01833632 -0.03447304 -0.05123120
v -0.03422333 -0.01580755 -0.05157002
v -0.03514459 -0.01580755 -0.05135133
v -0.03761996 -0.01133196 -0.05123274
v -0.03567331 -0.01897553 -0.04907507
v -0.03182807 -0.02600448 -0.03996848
v -0.03198028 -0.02612411 -0.03585488
v -0.03665865 -0.01580755 -0.05031484
v -0.01923490 -0.03580129 -0.04906120
v -0.01904264 -0.03545479 -0.05031022
v -0.01168861 -0.03825977 -0.05031946
v -0.02526712 -0.03227031 -0.03585488
v -0.02339257 -0.03337168 -0.03996848
v -0.00392603 -0.03909301 -0.05123274
v -0.00000068 -0.03946426 -0.05077071
v -0.00000068 -0.03898164 -0.05123274
v -0.01140823 -0.03734402 -0.05122966
v -0.01103973 -0.03612716 -0.05156386
v -0.01859403 -0.03460504 -0.05123274
v -0.02484255 -0.03012120 -0.05122966
v -0.02403344 -0.02913946 -0.05156386
v -0.03041815 -0.02485361 -0.05123274
v -0.03447167 -0.01834441 -0.05122966
v -0.03335014 -0.01775041 -0.05156386
v -0.03561724 -0.01580755 -0.05123120
v -0.03531282 -0.01879403 -0.05031946
v -0.03117117 -0.02547236 -0.05031022
v -0.03146758 -0.02571986 -0.04906120
v -0.02570772 -0.03116482 -0.04907507
v -0.02686931 -0.03095444 -0.03585488
v -0.02545138 -0.03085957 -0.05031946
v -0.02598811 -0.03150719 -0.03996848
v -0.02610827 -0.03166394 -0.03585488
f 1 2 3
f 1 3 9
f 1 9 23
f 1 23 39
f 1 39 45
f 1 45 24
f 1 24 11
f 1 11 4
f 1 4 12
f 1 12 5
f 1 5 6
f 1 6 2
f 2 6 7
f 2 7 3
f 3 8 9
f 3 7 10
f 3 10 8
f 4 11 12
f 5 12 26
f 5 26 47
f 5 47 69
f 5 69 96
f 5 96 119
f 5 119 122
f 5 122 101
f 5 101 75
f 5 75 53
f 5 53 31
f 5 31 19
f 5 19 13
f 5 13 6
f 6 14 15
f 6 15 16
f 6 16 17
f 6 17 18
f 6 18 7
f 6 13 19
f 6 19 14
f 7 18 20
f 7 20 10
f 8 21 9
f 8 10 20
f 8 20 22
f 8 22 21
f 9 21 23
f 11 24 12
f 12 25 26
f 12 24 25
f 14 27 15
f 14 19 28
f 14 28 27
f 15 27 29
f 15 29 16
f 16 29 30
f 16 30 20
f 16 20 18
f 16 18 17
f 19 31 32
f 19 32 33
f 19 33 34
f 19 34 35
f 19 35 28
f 20 30 22
f 21 22 36
f 21 36 37
f 21 37 23
f 22 30 38
f 22 38 36
f 23 37 39
f 24 40 41
f 24 41 42
f 24 42 43
f 24 43 44
f 24 44 25
f 24 45 40
f 25 44 46
f 25 46 26
f 26 46 48
f 26 48 47
f 27 28 29
f 28 35 49
f 28 49 50
f 28 50 29
f 29 50 51
f 29 51 52
f 29 52 30
f 30 52 38
f 31 53 54
f 31 54 55
f 31 55 56
f 31 56 32
f 32 56 55
f 32 55 57
f 32 57 58
f 32 58 33
f 33 58 59
f 33 59 34
f 34 49 35
f 34 59 60
f 34 60 49
f 36 61 37
f 36 38 62
f 36 62 61
f 37 45 39
f 37 61 62
f 37 62 82
f 37 82 63
f 37 63 64
f 37 64 40
f 37 40 45
f 38 52 65
f 38 65 62
f 40 64 66
f 40 66 41
f 41 66 67
f 41 67 42
f 42 68 43
f 42 67 68
f 43 68 44
f 44 68 46
f 46 68 48
f 47 48 70
f 47 70 69
f 48 71 70
f 48 68 71
f 49 60 72
f 49 72 51
f 49 51 50
f 51 72 73
f 51 73 52
f 52 73 65
f 53 74 54
f 53 75 74
f 54 76 77
f 54 77 78
f 54 78 57
f 54 57 55
f 54 74 76
f 57 78 60
f 57 60 58
f 58 60 59
f 60 78 79
f 60 79 80
f 60 80 72
f 62 65 81
f 62 81 82
f 63 83 84
f 63 84 85
f 63 85 86
f 63 86 87
f 63 87 88
f 63 88 64
f 63 82 89
f 63 89 90
f 63 90 83
f 64 88 91
f 64 91 92
f 64 92 93
f 64 93 67
f 64 67 66
f 65 73 82
f 65 82 81
f 67 93 68
f 68 93 71
f 69 94 95
f 69 95 96
f 69 70 94
f 70 71 97
f 70 97 94
f 71 93 97
f 72 90 73
f 72 80 83
f 72 83 90
f 73 90 82
f 74 75 98
f 74 98 99
f 74 99 100
f 74 100 76
f 75 101 102
f 75 102 98
f 76 103 104
f 76 104 79
f 76 79 77
f 76 100 103
f 77 79 78
f 79 84 83
f 79 83 80
f 79 104 105
f 79 105 84
f 82 90 89
f 84 105 86
f 84 86 85
f 86 105 103
f 86 103 106
f 86 106 107
f 86 107 87
f 87 107 106
f 87 106 108
f 87 108 109
f 87 109 110
f 87 110 88
f 88 111 112
f 88 112 113
f 88 113 91
f 88 110 109
f 88 109 111
f 91 113 92
f 92 113 112
f 92 112 114
f 92 114 93
f 93 114 97
f 94 115 116
f 94 116 117
f 94 117 95
f 94 97 115
f 95 117 118
f 95 118 119
f 95 119 96
f 97 114 115
f 98 102 118
f 98 118 99
f 99 108 100
f 99 118 120
f 99 120 108
f 100 108 106
f 100 106 103
f 101 121 102
f 101 122 121
f 102 121 118
f 103 105 104
f 108 120 109
f 109 120 111
f 111 116 112
f 111 120 116
f 112 115 114
f 112 116 115
f 116 120 118
f 116 118 117
f 118 121 119
f 119 121 122

