# https://github.com/mikedh/trimesh
v 0.03065732 -0.03341634 0.05325495
v 0.03096722 -0.03312322 0.05325495
v 0.03065732 -0.03325931 0.05350996
v 0.03006161 -0.03008384 0.04908714
v 0.03005559 -0.03339540 0.03329250
v 0.03004205 -0.03338493 0.02268571
v 0.02999993 -0.03333259 -0.01998851
v 0.02999993 -0.03331514 -0.02705706
v 0.03004657 -0.03327675 -0.02705706
v 0.03152833 -0.03258583 0.05325495
v 0.03095970 -0.03240786 -0.02705706
v 0.03132224 -0.03238693 0.05386857
v 0.03065732 -0.03275682 0.05398811
v 0.03065732 -0.03174834 0.05428295
v 0.03065732 -0.03068055 0.05432280
v 0.03065732 -0.02954297 0.05405983
v 0.03065732 -0.02898465 0.05378091
v 0.03065732 -0.02853450 0.05326292
v 0.04177737 0.00223260 0.05319917
v 0.02999993 -0.02998963 -0.02705706
v 0.02999993 -0.03011874 -0.01998851
v 0.03206689 -0.03206589 0.05325495
v 0.03134932 -0.03203449 -0.02705706
v 0.03239784 -0.03132263 0.05387654
v 0.03170735 -0.03170647 0.05399607
v 0.03067237 -0.03174137 0.05428295
v 0.03390067 -0.02743879 0.05433078
v 0.03712897 -0.02313272 0.05433874
v 0.04034975 -0.01667711 0.05434671
v 0.04357956 -0.00269111 0.05435468
v 0.04357956 0.00223260 0.05435468
v 0.04254758 0.00223260 0.05407576
v 0.04200903 0.00223260 0.05373309
v 0.04177737 0.00223260 0.05240226
v 0.04245431 -0.00001465 -0.02705706
v 0.03259641 -0.03152851 0.05325495
v 0.03170585 -0.03168902 -0.02705706
v 0.03224289 -0.03115513 -0.02705706
v 0.03344185 -0.03021994 0.05385263
v 0.03384050 -0.02951505 0.05396419
v 0.03278446 -0.03061425 0.05398811
v 0.03174797 -0.03066660 0.05428295
v 0.03497627 -0.02635355 0.05433078
v 0.03605187 -0.02528576 0.05430687
v 0.03819855 -0.02205446 0.05428295
v 0.03927415 -0.01990491 0.05429890
v 0.04034975 -0.01775188 0.05429093
v 0.04142685 -0.01453454 0.05432280
v 0.04250396 -0.01022499 0.05433874
v 0.04357956 -0.00376937 0.05434671
v 0.04458596 -0.00161634 0.05407576
v 0.04460551 -0.00053808 0.05407576
v 0.04457844 0.00223260 0.05407576
v 0.04460551 0.00053669 0.05407576
v 0.04244980 0.00223260 0.04908714
v 0.04481311 -0.00001465 -0.02705706
v 0.03313196 -0.03095273 0.05325495
v 0.03241890 -0.03096669 -0.02705706
v 0.03448285 -0.02909631 0.05383669
v 0.03362688 -0.03041884 0.05325495
v 0.03471301 -0.02850309 0.05394826
v 0.03390067 -0.02850309 0.05422718
v 0.03282507 -0.02959182 0.05425906
v 0.03608647 -0.02637449 0.05405983
v 0.03712897 -0.02420400 0.05421921
v 0.03823767 -0.02313621 0.05405983
v 0.03935087 -0.02103901 0.05408373
v 0.04042647 -0.01887900 0.05408373
v 0.04117262 -0.01775188 0.05399607
v 0.04142685 -0.01560234 0.05423514
v 0.04250396 -0.01129976 0.05430687
v 0.04250396 -0.01237802 0.05423514
v 0.04357956 -0.00484415 0.05433078
v 0.04357956 -0.00699718 0.05427499
v 0.04357956 -0.00591892 0.05430687
v 0.04455737 -0.00269111 0.05406779
v 0.04514407 -0.00053808 0.05372512
v 0.04514407 0.00053669 0.05372512
v 0.04512902 0.00161147 0.05369325
v 0.04511548 0.00223260 0.05366934
v 0.04487178 0.00223260 0.04908714
v 0.04481462 -0.00054506 -0.02705706
v 0.04533812 0.00223260 0.05245008
v 0.04535016 0.00161147 0.05242617
v 0.04536671 0.00053669 0.05239430
v 0.03465885 -0.02930219 0.05239430
v 0.03308231 -0.03024087 -0.02705706
v 0.03416543 -0.02982562 0.05325495
v 0.03463779 -0.02928823 0.05325495
v 0.03547721 -0.02793081 0.05374903
v 0.03672581 -0.02602204 0.05389247
v 0.03575250 -0.02721197 0.05394029
v 0.03710189 -0.02519852 0.05398014
v 0.03786459 -0.02420400 0.05393232
v 0.03904549 -0.02205446 0.05398811
v 0.04013915 -0.01990491 0.05400404
v 0.04100714 -0.01855098 0.05389247
v 0.04202407 -0.01628628 0.05385263
v 0.04214292 -0.01560234 0.05394029
v 0.04232344 -0.01453454 0.05403592
v 0.04357956 -0.00807195 0.05421123
v 0.04320799 -0.01237802 0.05394029
v 0.04334037 -0.01129976 0.05401201
v 0.04348478 -0.01022499 0.05405983
v 0.04451525 -0.00376937 0.05405983
v 0.04433173 -0.00699718 0.05398014
v 0.04440243 -0.00591892 0.05401201
v 0.04445959 -0.00484415 0.05404389
v 0.04512301 -0.00161634 0.05368528
v 0.04535166 -0.00161634 0.05314339
v 0.04536821 -0.00053808 0.05318323
v 0.04536671 0.00053669 0.05318323
v 0.04535016 0.00161147 0.05315135
v 0.04524485 0.00223260 0.05335855
v 0.04477701 -0.00161983 -0.02705706
v 0.04536821 -0.00053808 0.05239430
v 0.04535166 -0.00161634 0.05242617
v 0.04533060 -0.00269111 0.05246602
v 0.04533812 0.00223260 0.05312745
v 0.03565924 -0.02816112 0.05250586
v 0.03565924 -0.02816112 0.05302385
v 0.03375625 -0.02949063 -0.02705706
v 0.03429481 -0.02887996 -0.02705706
v 0.03646707 -0.02674437 0.05359762
v 0.03769009 -0.02478675 0.05382075
v 0.03665360 -0.02698166 0.05288041
v 0.03883940 -0.02277679 0.05387654
v 0.03994208 -0.02071448 0.05390044
v 0.04083716 -0.01927331 0.05371716
v 0.04310870 -0.01312827 0.05386060
v 0.04186612 -0.01700861 0.05361356
v 0.04216548 -0.01665966 0.05325495
v 0.04255511 -0.01560234 0.05325495
v 0.04298083 -0.01384711 0.05369325
v 0.04410457 -0.00964573 0.05378091
v 0.04417377 -0.00893037 0.05385263
v 0.04424748 -0.00807195 0.05391638
v 0.04505531 -0.00376937 0.05354184
v 0.04509593 -0.00269111 0.05362950
v 0.04533060 -0.00269111 0.05309557
v 0.04476197 -0.00200368 -0.02705706
v 0.04529299 -0.00376937 0.05252977
v 0.03665360 -0.02698166 0.05261743
v 0.03472655 -0.02834257 -0.02705706
v 0.03689580 -0.02637449 0.05324698
v 0.03782849 -0.02499264 0.05325495
v 0.03837005 -0.02416213 0.05323901
v 0.03862127 -0.02349563 0.05358965
v 0.03976306 -0.02142635 0.05371716
v 0.03879427 -0.02377130 0.05287244
v 0.04013463 -0.02103901 0.05331871
v 0.04099962 -0.01959086 0.05299994
v 0.04119218 -0.01887900 0.05331871
v 0.04326966 -0.01347722 0.05331074
v 0.04360363 -0.01237802 0.05325495
v 0.04171117 -0.01774141 0.05325495
v 0.04202709 -0.01737152 0.05289634
v 0.04313879 -0.01428679 0.05298400
v 0.04425049 -0.01022499 0.05307963
v 0.04434978 -0.00923047 0.05335855
v 0.04459348 -0.00807195 0.05325495
v 0.04477550 -0.00699718 0.05325495
v 0.04499815 -0.00484415 0.05338246
v 0.04523884 -0.00484415 0.05284853
v 0.04529299 -0.00376937 0.05299994
v 0.04473037 -0.00269460 -0.02705706
v 0.04523884 -0.00484415 0.05263337
v 0.03879427 -0.02377130 0.05261743
v 0.03526661 -0.02765863 -0.02705706
v 0.03568932 -0.02712124 -0.02705706
v 0.03622637 -0.02639193 -0.02705706
v 0.03661299 -0.02585455 -0.02705706
v 0.03700110 -0.02528576 -0.02705706
v 0.03733356 -0.02479373 -0.02705706
v 0.03899435 -0.02313621 0.05323901
v 0.03992553 -0.02172295 0.05299994
v 0.04099962 -0.01959086 0.05252977
v 0.04416023 -0.01093336 0.05284853
v 0.04202709 -0.01737152 0.05260149
v 0.04313879 -0.01428679 0.05254571
v 0.04520273 -0.00546528 0.05274493
v 0.04497107 -0.00586309 0.05316729
v 0.04465516 -0.00377286 -0.02705706
v 0.04520273 -0.00546528 0.05270509
v 0.03992553 -0.02172295 0.05252180
v 0.03751258 -0.02452504 -0.02705706
v 0.03786309 -0.02398416 -0.02705706
v 0.03838058 -0.02313272 -0.02705706
v 0.03902895 -0.02202305 -0.02705706
v 0.03984580 -0.02050860 -0.02705706
v 0.04047010 -0.01923842 -0.02705706
v 0.04064912 -0.01886853 -0.02705706
v 0.04073938 -0.01868009 -0.02705706
v 0.04090485 -0.01832765 -0.02705706
v 0.04416023 -0.01093336 0.05263337
v 0.04106130 -0.01795776 -0.02705706
v 0.04114705 -0.01775188 -0.02705706
v 0.04158932 -0.01667711 -0.02705706
v 0.04178188 -0.01620602 -0.02705706
v 0.04188869 -0.01594082 -0.02705706
v 0.04208726 -0.01541041 -0.02705706
v 0.04238963 -0.01453454 -0.02705706
v 0.04261979 -0.01384362 -0.02705706
v 0.04274465 -0.01345977 -0.02705706
v 0.04298083 -0.01270952 -0.02705706
v 0.04461454 -0.00415671 -0.02705706
v 0.04387140 -0.00915370 -0.02705706
v 0.04398422 -0.00855351 -0.02705706
v 0.04426553 -0.00700067 -0.02705706
v 0.04442048 -0.00592590 -0.02705706
v 0.04449871 -0.00522799 -0.02705706
v 0.04454083 -0.00484764 -0.02705706
v 0.03956900 -0.02104250 -0.02705706
v 0.04313127 -0.01217214 -0.02705706
v 0.04335692 -0.01130325 -0.02705706
v 0.04363371 -0.01022848 -0.02705706
f 1 2 3
f 1 3 4
f 1 4 5
f 1 5 6
f 1 6 7
f 1 7 8
f 1 8 9
f 1 9 2
f 2 10 3
f 2 9 11
f 2 11 10
f 3 10 12
f 3 12 13
f 3 13 4
f 4 6 5
f 4 13 14
f 4 14 15
f 4 15 16
f 4 16 17
f 4 17 18
f 4 18 19
f 4 19 20
f 4 20 21
f 4 21 7
f 4 7 6
f 7 21 20
f 7 20 8
f 8 20 35
f 8 35 56
f 8 56 82
f 8 82 115
f 8 115 141
f 8 141 166
f 8 166 183
f 8 183 206
f 8 206 212
f 8 212 211
f 8 211 210
f 8 210 209
f 8 209 208
f 8 208 207
f 8 207 216
f 8 216 215
f 8 215 214
f 8 214 205
f 8 205 204
f 8 204 203
f 8 203 202
f 8 202 201
f 8 201 200
f 8 200 199
f 8 199 198
f 8 198 197
f 8 197 196
f 8 196 194
f 8 194 193
f 8 193 192
f 8 192 191
f 8 191 190
f 8 190 213
f 8 213 189
f 8 189 188
f 8 188 187
f 8 187 186
f 8 186 174
f 8 174 173
f 8 173 172
f 8 172 171
f 8 171 170
f 8 170 169
f 8 169 144
f 8 144 123
f 8 123 122
f 8 122 87
f 8 87 58
f 8 58 38
f 8 38 37
f 8 37 23
f 8 23 11
f 8 11 9
f 10 22 12
f 10 11 23
f 10 23 22
f 12 22 24
f 12 24 13
f 13 25 26
f 13 26 14
f 13 24 25
f 14 26 15
f 15 26 27
f 15 27 28
f 15 28 29
f 15 29 30
f 15 30 31
f 15 31 32
f 15 32 16
f 16 32 33
f 16 33 17
f 17 33 19
f 17 19 18
f 19 33 32
f 19 32 31
f 19 31 53
f 19 53 80
f 19 80 114
f 19 114 119
f 19 119 83
f 19 83 81
f 19 81 55
f 19 55 34
f 19 34 20
f 20 34 35
f 22 36 24
f 22 23 37
f 22 37 38
f 22 38 36
f 24 36 39
f 24 39 40
f 24 40 41
f 24 41 25
f 25 41 42
f 25 42 26
f 26 42 27
f 27 43 28
f 27 42 43
f 28 43 44
f 28 44 45
f 28 45 46
f 28 46 29
f 29 46 47
f 29 47 48
f 29 48 49
f 29 49 30
f 30 49 50
f 30 50 51
f 30 51 52
f 30 52 54
f 30 54 31
f 31 54 53
f 34 55 35
f 35 55 81
f 35 81 56
f 36 57 39
f 36 38 58
f 36 58 57
f 39 59 40
f 39 57 60
f 39 60 59
f 40 61 62
f 40 62 41
f 40 59 61
f 41 62 63
f 41 63 42
f 42 63 44
f 42 44 43
f 44 63 62
f 44 62 64
f 44 64 65
f 44 65 45
f 45 65 66
f 45 66 67
f 45 67 46
f 46 67 68
f 46 68 47
f 47 68 69
f 47 69 70
f 47 70 48
f 48 71 49
f 48 70 72
f 48 72 71
f 49 73 50
f 49 71 74
f 49 74 75
f 49 75 73
f 50 73 51
f 51 76 77
f 51 77 52
f 51 73 76
f 52 77 78
f 52 78 54
f 53 54 78
f 53 78 79
f 53 79 80
f 56 81 83
f 56 83 84
f 56 84 85
f 56 85 82
f 57 58 86
f 57 86 60
f 58 87 86
f 59 60 88
f 59 88 89
f 59 89 90
f 59 90 91
f 59 91 92
f 59 92 61
f 60 86 88
f 61 92 64
f 61 64 62
f 64 92 91
f 64 91 93
f 64 93 65
f 65 93 66
f 66 93 94
f 66 94 95
f 66 95 67
f 67 95 96
f 67 96 68
f 68 96 69
f 69 96 97
f 69 97 98
f 69 98 99
f 69 99 70
f 70 99 100
f 70 100 72
f 71 72 101
f 71 101 74
f 72 100 102
f 72 102 103
f 72 103 104
f 72 104 101
f 73 75 105
f 73 105 76
f 74 101 106
f 74 106 107
f 74 107 108
f 74 108 105
f 74 105 75
f 76 105 77
f 77 105 109
f 77 109 110
f 77 110 111
f 77 111 78
f 78 111 112
f 78 112 79
f 79 112 113
f 79 113 114
f 79 114 80
f 82 85 116
f 82 116 117
f 82 117 118
f 82 118 115
f 83 119 113
f 83 113 84
f 84 113 112
f 84 112 85
f 85 112 111
f 85 111 116
f 86 120 121
f 86 121 88
f 86 87 122
f 86 122 123
f 86 123 120
f 88 121 89
f 89 121 90
f 90 124 125
f 90 125 91
f 90 121 126
f 90 126 124
f 91 125 94
f 91 94 93
f 94 125 127
f 94 127 95
f 95 127 128
f 95 128 96
f 96 128 97
f 97 128 129
f 97 129 98
f 98 130 99
f 98 129 131
f 98 131 132
f 98 132 133
f 98 133 134
f 98 134 130
f 99 130 100
f 100 130 102
f 101 104 106
f 102 130 135
f 102 135 136
f 102 136 103
f 103 136 137
f 103 137 104
f 104 137 106
f 105 108 109
f 106 137 138
f 106 138 139
f 106 139 107
f 107 139 108
f 108 139 109
f 109 139 140
f 109 140 110
f 110 140 118
f 110 118 117
f 110 117 116
f 110 116 111
f 113 119 114
f 115 118 142
f 115 142 141
f 118 140 165
f 118 165 142
f 120 143 126
f 120 126 121
f 120 123 143
f 123 144 143
f 124 145 125
f 124 126 145
f 125 145 146
f 125 146 147
f 125 147 148
f 125 148 149
f 125 149 127
f 126 150 146
f 126 146 145
f 126 143 168
f 126 168 150
f 127 149 128
f 128 149 129
f 129 149 151
f 129 151 152
f 129 152 153
f 129 153 131
f 130 134 154
f 130 154 155
f 130 155 135
f 131 153 156
f 131 156 157
f 131 157 132
f 132 157 158
f 132 158 133
f 133 158 134
f 134 158 154
f 135 155 159
f 135 159 160
f 135 160 161
f 135 161 162
f 135 162 136
f 136 162 138
f 136 138 137
f 138 162 163
f 138 163 164
f 138 164 165
f 138 165 140
f 138 140 139
f 141 142 166
f 142 165 164
f 142 164 167
f 142 167 166
f 143 144 169
f 143 169 170
f 143 170 171
f 143 171 172
f 143 172 173
f 143 173 174
f 143 174 168
f 146 150 147
f 147 150 148
f 148 150 175
f 148 175 149
f 149 175 176
f 149 176 151
f 150 168 185
f 150 185 176
f 150 176 175
f 151 176 152
f 152 176 185
f 152 185 177
f 152 177 179
f 152 179 157
f 152 157 153
f 153 157 156
f 154 158 178
f 154 178 155
f 155 178 159
f 157 179 180
f 157 180 158
f 158 180 195
f 158 195 178
f 159 178 181
f 159 181 161
f 159 161 160
f 161 181 162
f 162 181 182
f 162 182 163
f 163 182 164
f 164 181 184
f 164 184 167
f 164 182 181
f 166 167 184
f 166 184 183
f 168 174 186
f 168 186 187
f 168 187 188
f 168 188 189
f 168 189 185
f 177 185 190
f 177 190 191
f 177 191 192
f 177 192 193
f 177 193 194
f 177 194 179
f 178 195 184
f 178 184 181
f 179 194 196
f 179 196 197
f 179 197 198
f 179 198 199
f 179 199 200
f 179 200 201
f 179 201 180
f 180 201 202
f 180 202 203
f 180 203 204
f 180 204 205
f 180 205 195
f 183 184 206
f 184 195 207
f 184 207 208
f 184 208 209
f 184 209 210
f 184 210 211
f 184 211 212
f 184 212 206
f 185 189 213
f 185 213 190
f 195 205 214
f 195 214 215
f 195 215 216
f 195 216 207

