# https://github.com/mikedh/trimesh
v -0.04493220 -0.00004614 0.04908640
v -0.04251344 -0.00004614 0.04908640
v -0.04537461 -0.00004614 0.05239033
v -0.04482578 0.00000072 -0.01999045
v -0.04180651 -0.00004614 0.05244127
v -0.04251344 0.00000072 -0.01999045
v -0.04537461 -0.00004614 0.05320540
v -0.04537613 0.00053957 0.05238305
v -0.04482730 0.00053957 -0.01999045
v -0.02984496 0.02927300 0.05305985
v -0.04180651 -0.00004614 0.05312534
v -0.03005932 0.03006623 -0.01999045
v -0.04537613 0.00053957 0.05321267
v -0.04515417 -0.00004614 0.05374392
v -0.04535332 0.00161729 0.05241944
v -0.04479538 0.00153696 -0.01999045
v -0.04532900 0.00269165 0.05246310
v -0.02984496 0.02930982 0.05241944
v -0.02984496 0.02938680 0.05325634
v -0.02984496 0.02947047 0.05337278
v -0.02984496 0.02994239 0.05388947
v -0.04205432 -0.00004614 0.05366387
v -0.03005932 0.03227520 -0.01999045
v -0.02984496 0.03029047 0.04908640
v -0.04535332 0.00161729 0.05316173
v -0.04515569 0.00053957 0.05374392
v -0.04513136 0.00161729 0.05370026
v -0.04461903 -0.00004614 0.05407868
v -0.04462207 0.00053957 0.05408596
v -0.04479234 0.00161729 -0.01999045
v -0.04529251 0.00376937 0.05252860
v -0.04532900 0.00269165 0.05311079
v -0.02984496 0.03004615 0.05394041
v -0.02984496 0.03036411 0.05406412
v -0.04259098 -0.00004614 0.05406412
v -0.03057774 0.03278394 -0.01999045
v -0.03005932 0.03327928 -0.01998317
v -0.02984496 0.03361063 0.04908640
v -0.04459622 0.00161729 0.05407868
v -0.04456582 0.00269165 0.05407140
v -0.04452477 0.00376937 0.05406412
v -0.04446396 0.00484373 0.05404229
v -0.04510096 0.00269165 0.05364932
v -0.04414318 -0.00004614 0.05420240
v -0.04357916 -0.00004614 0.05434794
v -0.04357916 0.00161729 0.05435522
v -0.04357916 0.00269165 0.05435522
v -0.04357916 0.00484373 0.05433339
v -0.04474977 0.00269500 -0.01999045
v -0.04529251 0.00376937 0.05300891
v -0.04523626 0.00484373 0.05263048
v -0.02984496 0.03149202 0.05432611
v -0.03066287 0.03270361 -0.01999045
v -0.03116000 0.03223169 -0.01999045
v -0.03096541 0.03312533 0.05325634
v -0.03043027 0.03362737 0.05325634
v -0.02984496 0.03414614 0.05325634
v -0.02984496 0.03400892 0.05212834
v -0.04357916 0.00592144 0.05431156
v -0.04357916 0.00699581 0.05427517
v -0.04440467 0.00592144 0.05401318
v -0.04506295 0.00376937 0.05354743
v -0.04433626 0.00699581 0.05397680
v -0.03712862 0.02313473 0.05434067
v -0.04142340 0.01345539 0.05434794
v -0.04250280 0.01022560 0.05434067
v -0.04467528 0.00376937 -0.01990313
v -0.04467376 0.00376937 -0.01999045
v -0.04520281 0.00546961 0.05270326
v -0.04523626 0.00484373 0.05285608
v -0.02984496 0.03256639 0.05426789
v -0.03067352 0.03173970 0.05428245
v -0.03390107 0.02743888 0.05433339
v -0.03225004 0.03116737 -0.01999045
v -0.03206913 0.03206769 0.05325634
v -0.03152791 0.03258647 0.05325634
v -0.03023112 0.03344663 0.05386036
v -0.02984496 0.03412271 0.05329273
v -0.04250280 0.01129997 0.05431156
v -0.04357916 0.00807352 0.05420968
v -0.04424960 0.00807352 0.05391858
v -0.04417511 0.00893703 0.05385308
v -0.04500518 0.00484373 0.05339461
v -0.04348490 0.01022560 0.05406412
v -0.04035161 0.01668184 0.05434067
v -0.03497438 0.02636117 0.05433339
v -0.03605226 0.02528681 0.05430428
v -0.03819585 0.02205701 0.05428245
v -0.03927525 0.01990159 0.05430428
v -0.04142340 0.01453311 0.05432611
v -0.04455822 0.00485043 -0.01999045
v -0.04520281 0.00546961 0.05275420
v -0.04415990 0.01094185 0.05263048
v -0.04390298 0.00908430 -0.01999045
v -0.04405500 0.00826765 -0.01999045
v -0.04428305 0.00700250 -0.01999045
v -0.04443963 0.00592479 -0.01999045
v -0.04497629 0.00586455 0.05316901
v -0.02984496 0.03280737 0.05419512
v -0.03062335 0.03277390 0.05399135
v -0.03174683 0.03066533 0.05428245
v -0.03170883 0.03169953 0.05399863
v -0.03372776 0.02954076 -0.01999045
v -0.03465969 0.02931317 0.05239033
v -0.03313333 0.03095651 0.05325634
v -0.03259819 0.03152884 0.05325634
v -0.03239903 0.03131798 0.05387491
v -0.03132115 0.03238900 0.05386764
v -0.02984496 0.03352027 0.05396952
v -0.02984496 0.03365749 0.05391131
v -0.04250280 0.01237768 0.05423879
v -0.04334351 0.01129997 0.05401318
v -0.04320821 0.01237768 0.05394041
v -0.04410517 0.00965662 0.05378759
v -0.04477713 0.00699581 0.05325634
v -0.04035161 0.01775286 0.05429700
v -0.03282471 0.02958762 0.05426061
v -0.03390107 0.02851325 0.05423150
v -0.03608571 0.02637456 0.05406412
v -0.03712862 0.02420575 0.05421695
v -0.03823842 0.02313807 0.05405685
v -0.03935279 0.02103955 0.05408596
v -0.04142340 0.01560412 0.05423879
v -0.04459622 0.00807352 0.05325634
v -0.04425264 0.01022560 0.05308168
v -0.04415990 0.01094185 0.05285608
v -0.04314132 0.01429213 0.05254315
v -0.04298929 0.01273580 -0.01990313
v -0.04312763 0.01224046 -0.01999045
v -0.04315804 0.01213001 -0.01999045
v -0.04337544 0.01130331 -0.01999045
v -0.04365213 0.01022895 -0.01999045
v -0.04388930 0.00915124 -0.01999045
v -0.03278518 0.03060843 0.05398408
v -0.03380529 0.02945374 -0.01999045
v -0.03566155 0.02816182 0.05250677
v -0.03566155 0.02816182 0.05302346
v -0.03416407 0.02981855 0.05325634
v -0.03362894 0.03041431 0.05325634
v -0.03430090 0.02888811 -0.01999045
v -0.03447877 0.02910231 0.05383125
v -0.03344042 0.03021684 0.05385308
v -0.03384178 0.02951064 0.05395496
v -0.04232189 0.01453311 0.05403502
v -0.04311091 0.01313409 0.05386036
v -0.04360500 0.01237768 0.05325634
v -0.04435146 0.00923826 0.05335822
v -0.04014181 0.01990159 0.05400591
v -0.04042458 0.01888077 0.05407868
v -0.04117256 0.01775286 0.05399863
v -0.03470986 0.02851325 0.05394769
v -0.03575124 0.02721129 0.05394041
v -0.03672422 0.02602648 0.05389675
v -0.03710277 0.02520313 0.05398408
v -0.03904721 0.02205701 0.05399135
v -0.03786139 0.02420575 0.05392585
v -0.03883893 0.02277995 0.05388219
v -0.04147509 0.01666845 0.05404957
v -0.04214553 0.01560412 0.05394041
v -0.04314132 0.01429213 0.05297980
v -0.04327054 0.01347882 0.05330728
v -0.04202999 0.01737465 0.05260137
v -0.04209689 0.01542674 -0.01999045
v -0.04240550 0.01453311 -0.01999045
v -0.04243439 0.01444943 -0.01999045
v -0.04276125 0.01345539 -0.01999045
v -0.04298929 0.01273246 -0.01999045
v -0.03665581 0.02698705 0.05261593
v -0.03463384 0.02928639 0.05325634
v -0.03665581 0.02698705 0.05287791
v -0.03606290 0.02745897 0.05331456
v -0.03547303 0.02792754 0.05374392
v -0.03521763 0.02851994 0.05333639
v -0.03477371 0.02829570 -0.01999045
v -0.04202543 0.01629694 0.05385308
v -0.04298169 0.01385033 0.05370026
v -0.03994569 0.02071489 0.05390403
v -0.04100685 0.01855612 0.05389675
v -0.03647034 0.02674272 0.05359838
v -0.03768808 0.02478811 0.05382397
v -0.03976022 0.02143448 0.05372209
v -0.04255905 0.01560412 0.05325634
v -0.04216834 0.01666845 0.05325634
v -0.04202999 0.01737465 0.05289975
v -0.04100229 0.01959702 0.05252860
v -0.04091715 0.01834861 -0.01999045
v -0.04163016 0.01662829 -0.01999045
v -0.04189621 0.01596559 -0.01999045
v -0.03879636 0.02377065 0.05261593
v -0.03569651 0.02713096 -0.01999045
v -0.03623469 0.02640468 -0.01999045
v -0.03661932 0.02586583 -0.01999045
v -0.03705412 0.02522656 -0.01999045
v -0.03752085 0.02453709 -0.01999045
v -0.03879636 0.02377065 0.05287064
v -0.03782795 0.02499562 0.05325634
v -0.03689449 0.02637456 0.05324906
v -0.04083658 0.01927571 0.05371481
v -0.04186732 0.01701653 0.05361293
v -0.03862001 0.02349620 0.05359110
v -0.03899704 0.02313807 0.05324178
v -0.03992593 0.02172232 0.05300163
v -0.04013725 0.02103955 0.05332184
v -0.04100229 0.01959702 0.05300163
v -0.04119536 0.01888077 0.05332184
v -0.03992593 0.02172232 0.05252860
v -0.03983319 0.02056428 -0.01999045
v -0.04016005 0.01990494 -0.01999045
v -0.04065718 0.01888747 -0.01999045
v -0.03787051 0.02399824 -0.01999045
v -0.03839653 0.02312803 -0.01999045
v -0.03872491 0.02257244 -0.01999045
v -0.03903809 0.02203693 -0.01999045
v -0.03908065 0.02195995 -0.01999045
v -0.03957779 0.02105963 -0.01999045
f 1 2 5
f 1 5 11
f 1 11 22
f 1 22 35
f 1 35 45
f 1 45 44
f 1 44 28
f 1 28 14
f 1 14 7
f 1 7 3
f 1 3 4
f 1 4 6
f 1 6 2
f 2 6 5
f 3 7 13
f 3 13 8
f 3 8 9
f 3 9 4
f 4 9 16
f 4 16 30
f 4 30 49
f 4 49 68
f 4 68 91
f 4 91 97
f 4 97 96
f 4 96 95
f 4 95 94
f 4 94 133
f 4 133 132
f 4 132 131
f 4 131 130
f 4 130 129
f 4 129 167
f 4 167 166
f 4 166 165
f 4 165 164
f 4 164 163
f 4 163 188
f 4 188 187
f 4 187 186
f 4 186 209
f 4 209 208
f 4 208 207
f 4 207 215
f 4 215 214
f 4 214 213
f 4 213 212
f 4 212 211
f 4 211 210
f 4 210 194
f 4 194 193
f 4 193 192
f 4 192 191
f 4 191 190
f 4 190 174
f 4 174 140
f 4 140 135
f 4 135 103
f 4 103 74
f 4 74 54
f 4 54 53
f 4 53 36
f 4 36 23
f 4 23 12
f 4 12 6
f 5 10 11
f 5 6 12
f 5 12 10
f 7 14 13
f 8 13 25
f 8 25 15
f 8 15 9
f 9 15 17
f 9 17 16
f 10 18 24
f 10 24 38
f 10 38 58
f 10 58 57
f 10 57 78
f 10 78 110
f 10 110 109
f 10 109 99
f 10 99 71
f 10 71 52
f 10 52 34
f 10 34 33
f 10 33 21
f 10 21 20
f 10 20 19
f 10 19 11
f 10 12 18
f 11 19 20
f 11 20 21
f 11 21 22
f 12 23 38
f 12 38 24
f 12 24 18
f 13 14 26
f 13 26 27
f 13 27 25
f 14 28 29
f 14 29 26
f 15 25 32
f 15 32 17
f 16 17 31
f 16 31 30
f 17 32 50
f 17 50 31
f 21 33 22
f 22 33 34
f 22 34 35
f 23 36 37
f 23 37 38
f 25 27 32
f 26 29 39
f 26 39 40
f 26 40 41
f 26 41 27
f 27 41 42
f 27 42 43
f 27 43 32
f 28 44 29
f 29 44 45
f 29 45 46
f 29 46 47
f 29 47 48
f 29 48 39
f 30 31 49
f 31 50 70
f 31 70 51
f 31 51 49
f 32 43 50
f 34 52 35
f 35 52 45
f 36 53 37
f 37 53 54
f 37 54 55
f 37 55 56
f 37 56 57
f 37 57 58
f 37 58 38
f 39 48 40
f 40 48 41
f 41 48 59
f 41 59 60
f 41 60 42
f 42 61 43
f 42 60 61
f 43 62 50
f 43 61 63
f 43 63 62
f 45 52 46
f 46 52 47
f 47 52 64
f 47 64 65
f 47 65 66
f 47 66 48
f 48 66 59
f 49 67 68
f 49 51 69
f 49 69 67
f 50 62 70
f 51 70 92
f 51 92 69
f 52 71 72
f 52 72 73
f 52 73 64
f 54 74 75
f 54 75 76
f 54 76 55
f 55 76 77
f 55 77 56
f 56 77 57
f 57 77 78
f 59 79 60
f 59 66 79
f 60 79 80
f 60 80 63
f 60 63 61
f 62 63 81
f 62 81 82
f 62 82 83
f 62 83 70
f 63 80 84
f 63 84 81
f 64 85 65
f 64 73 86
f 64 86 87
f 64 87 88
f 64 88 89
f 64 89 85
f 65 85 90
f 65 90 66
f 66 90 79
f 67 91 68
f 67 69 91
f 69 92 126
f 69 126 93
f 69 93 94
f 69 94 95
f 69 95 96
f 69 96 97
f 69 97 91
f 70 83 98
f 70 98 92
f 71 99 100
f 71 100 72
f 72 101 73
f 72 100 102
f 72 102 101
f 73 101 86
f 74 103 104
f 74 104 105
f 74 105 106
f 74 106 75
f 75 106 107
f 75 107 108
f 75 108 77
f 75 77 76
f 77 108 100
f 77 100 109
f 77 109 110
f 77 110 78
f 79 111 80
f 79 90 111
f 80 111 84
f 81 84 112
f 81 112 82
f 82 112 113
f 82 113 114
f 82 114 115
f 82 115 83
f 83 115 98
f 84 111 112
f 85 89 116
f 85 116 90
f 86 101 117
f 86 117 87
f 87 117 118
f 87 118 119
f 87 119 120
f 87 120 88
f 88 120 121
f 88 121 122
f 88 122 89
f 89 122 116
f 90 116 123
f 90 123 111
f 92 98 115
f 92 115 124
f 92 124 125
f 92 125 126
f 93 126 160
f 93 160 127
f 93 127 128
f 93 128 129
f 93 129 130
f 93 130 131
f 93 131 132
f 93 132 133
f 93 133 94
f 99 109 100
f 100 108 102
f 101 102 134
f 101 134 117
f 102 108 107
f 102 107 134
f 103 135 104
f 104 136 137
f 104 137 138
f 104 138 139
f 104 139 105
f 104 135 140
f 104 140 136
f 105 139 141
f 105 141 142
f 105 142 107
f 105 107 106
f 107 142 143
f 107 143 134
f 111 123 144
f 111 144 113
f 111 113 112
f 113 145 114
f 113 144 145
f 114 145 146
f 114 146 126
f 114 126 125
f 114 125 147
f 114 147 124
f 114 124 115
f 116 122 148
f 116 148 149
f 116 149 150
f 116 150 123
f 117 134 118
f 118 134 143
f 118 143 151
f 118 151 119
f 119 151 152
f 119 152 153
f 119 153 154
f 119 154 120
f 120 154 121
f 121 155 122
f 121 154 156
f 121 156 157
f 121 157 155
f 122 155 148
f 123 150 158
f 123 158 159
f 123 159 144
f 124 147 125
f 126 146 161
f 126 161 160
f 127 160 184
f 127 184 162
f 127 162 163
f 127 163 164
f 127 164 165
f 127 165 166
f 127 166 128
f 128 166 167
f 128 167 129
f 136 168 170
f 136 170 137
f 136 140 168
f 137 169 138
f 137 170 171
f 137 171 172
f 137 172 173
f 137 173 169
f 138 169 141
f 138 141 139
f 140 174 168
f 141 173 172
f 141 172 153
f 141 153 152
f 141 152 151
f 141 151 143
f 141 143 142
f 141 169 173
f 144 159 145
f 145 159 175
f 145 175 176
f 145 176 161
f 145 161 146
f 148 155 177
f 148 177 178
f 148 178 150
f 148 150 149
f 150 178 175
f 150 175 159
f 150 159 158
f 153 172 179
f 153 179 180
f 153 180 154
f 154 180 156
f 155 157 177
f 156 180 157
f 157 180 181
f 157 181 177
f 160 182 183
f 160 183 184
f 160 161 176
f 160 176 182
f 162 184 204
f 162 204 185
f 162 185 186
f 162 186 187
f 162 187 188
f 162 188 163
f 168 189 195
f 168 195 170
f 168 174 190
f 168 190 191
f 168 191 192
f 168 192 193
f 168 193 194
f 168 194 189
f 170 195 196
f 170 196 197
f 170 197 179
f 170 179 171
f 171 179 172
f 175 178 198
f 175 198 199
f 175 199 183
f 175 183 182
f 175 182 176
f 177 181 198
f 177 198 178
f 179 197 180
f 180 197 196
f 180 196 195
f 180 195 200
f 180 200 181
f 181 200 201
f 181 201 202
f 181 202 203
f 181 203 204
f 181 204 198
f 183 199 184
f 184 199 205
f 184 205 204
f 185 204 202
f 185 202 206
f 185 206 207
f 185 207 208
f 185 208 209
f 185 209 186
f 189 206 202
f 189 202 195
f 189 194 210
f 189 210 211
f 189 211 212
f 189 212 213
f 189 213 214
f 189 214 215
f 189 215 206
f 195 202 201
f 195 201 200
f 198 205 199
f 198 204 205
f 202 204 203
f 206 215 207

