# https://github.com/mikedh/trimesh
v 0.03338296 -0.03008869 0.04908447
v 0.03335028 -0.03008869 0.03329669
v 0.03325221 -0.03007222 -0.01559678
v 0.03065033 -0.02854812 0.05326053
v 0.03065033 -0.02855636 0.05327648
v 0.03065033 -0.02857449 0.05330038
v 0.03065033 -0.02899135 0.05377856
v 0.03065033 -0.02954826 0.05405749
v 0.03065033 -0.03068680 0.05432049
v 0.03065033 -0.03176273 0.05428065
v 0.03065033 -0.03274474 0.05399374
v 0.03065033 -0.03276287 0.05398577
v 0.03065033 -0.03326376 0.05351556
v 0.03065033 -0.03341864 0.05326053
v 0.03325221 -0.03009199 -0.00914937
v 0.03323914 -0.03007222 -0.01998803
v 0.00000624 -0.04181681 0.05245561
v 0.00000624 -0.04181681 0.05310911
v 0.00000624 -0.04206067 0.05365105
v 0.02999332 -0.02999313 -0.02704909
v 0.00000297 -0.04246105 -0.02704909
v 0.00000624 -0.04259781 0.05406546
v 0.00000624 -0.04357817 0.05435237
v 0.02743066 -0.03390140 0.05433643
v 0.02636179 -0.03497569 0.05433643
v 0.02958800 -0.03282383 0.05426470
v 0.03061110 -0.03277934 0.05399374
v 0.02950628 -0.03384703 0.05396186
v 0.03021886 -0.03344994 0.05385826
v 0.02851260 -0.03390140 0.05422486
v 0.03042152 -0.03363448 0.05326053
v 0.02999332 -0.03332142 -0.02704909
v 0.03224219 -0.03117286 -0.01998803
v -0.00000683 -0.04252367 0.01208163
v -0.00001010 -0.04253026 0.04384844
v -0.00000356 -0.04251872 -0.01998803
v -0.00001010 -0.04253026 0.04425489
v -0.00001010 -0.04253190 0.04908447
v 0.00000297 -0.04482711 -0.02704909
v 0.00377832 -0.04357817 0.05435237
v -0.00001010 -0.04495068 0.04908447
v 0.00000624 -0.04462774 0.05408140
v 0.00053904 -0.04463103 0.05408140
v 0.01668643 -0.04034874 0.05434440
v 0.02312904 -0.03712260 0.05433643
v 0.02528312 -0.03604997 0.05430456
v 0.02752218 -0.03506631 0.05410531
v 0.02851260 -0.03471041 0.05394592
v 0.02909116 -0.03447315 0.05382638
v 0.02637160 -0.03608457 0.05406546
v 0.02981027 -0.03417162 0.05326053
v 0.02816285 -0.03566441 0.05303739
v 0.02930362 -0.03465274 0.05239982
v 0.02984950 -0.03344994 -0.02704909
v -0.00001010 -0.04493915 0.04384844
v -0.00000356 -0.04483864 -0.01998803
v 0.00019256 -0.04482875 -0.02704909
v 0.00053904 -0.04538072 0.05236794
v 0.00000624 -0.04537578 0.05237591
v 0.00161771 -0.04461291 0.05408140
v 0.00485046 -0.04357817 0.05433643
v 0.01023401 -0.04250225 0.05434440
v -0.00001010 -0.04494244 0.04465337
v 0.00000624 -0.04537578 0.05322866
v 0.00000624 -0.04516818 0.05376262
v 0.00053904 -0.04516818 0.05376262
v 0.01452909 -0.04142467 0.05432846
v 0.01775203 -0.04034874 0.05428861
v 0.01989957 -0.03927446 0.05430456
v 0.02205691 -0.03819853 0.05428861
v 0.02420445 -0.03712260 0.05422486
v 0.02721165 -0.03574844 0.05394592
v 0.02794057 -0.03548317 0.05375465
v 0.02927420 -0.03462473 0.05326053
v 0.02521121 -0.03709459 0.05398577
v 0.02601858 -0.03672386 0.05389811
v 0.02697304 -0.03664807 0.05286206
v 0.02816285 -0.03566441 0.05249545
v 0.02949974 -0.03374982 -0.02704909
v -0.00000683 -0.04489137 0.01208163
v 0.00054558 -0.04483040 -0.02704909
v 0.00161771 -0.04536754 0.05239185
v 0.00053904 -0.04538072 0.05322866
v 0.00269638 -0.04457337 0.05407344
v 0.00592913 -0.04357817 0.05431252
v 0.00377832 -0.04453053 0.05406546
v 0.01130941 -0.04250225 0.05431252
v 0.00161771 -0.04515335 0.05373871
v 0.01237828 -0.04250225 0.05423282
v 0.01560449 -0.04142467 0.05424080
v 0.01775203 -0.04117917 0.05399374
v 0.01889281 -0.04043112 0.05408140
v 0.01989957 -0.04015267 0.05400968
v 0.02103380 -0.03935025 0.05408140
v 0.02205691 -0.03905202 0.05399374
v 0.02313231 -0.03823807 0.05406546
v 0.02480262 -0.03769599 0.05383435
v 0.02673769 -0.03646518 0.05357932
v 0.02420445 -0.03787229 0.05393795
v 0.02697304 -0.03664807 0.05262297
v 0.02637160 -0.03689522 0.05323663
v 0.02501182 -0.03783604 0.05326053
v 0.02376644 -0.03879499 0.05287799
v 0.02867276 -0.03444843 -0.02704909
v 0.02909116 -0.03409748 -0.02704909
v 0.00161771 -0.04480569 -0.02704909
v 0.00269638 -0.04533624 0.05244764
v 0.00161771 -0.04536754 0.05319678
v 0.00699800 -0.04357817 0.05428065
v 0.00485046 -0.04447780 0.05404953
v 0.00807340 -0.04357817 0.05422486
v 0.00269638 -0.04533624 0.05312505
v 0.00377832 -0.04529999 0.05303739
v 0.00377832 -0.04507096 0.05357135
v 0.00269638 -0.04511051 0.05365902
v 0.00699800 -0.04434269 0.05398577
v 0.00592913 -0.04441025 0.05401765
v 0.01023401 -0.04349579 0.05406546
v 0.01130941 -0.04335574 0.05401765
v 0.01452909 -0.04233583 0.05404156
v 0.01667662 -0.04148069 0.05404953
v 0.01560449 -0.04214964 0.05394592
v 0.01632034 -0.04202771 0.05385826
v 0.01856920 -0.04100781 0.05389811
v 0.02071347 -0.03994671 0.05389811
v 0.02277929 -0.03885101 0.05388216
v 0.02142932 -0.03975887 0.05371480
v 0.02349841 -0.03862198 0.05358729
v 0.02415868 -0.03837813 0.05324460
v 0.02376644 -0.03879499 0.05261500
v 0.02479608 -0.03734998 -0.02704909
v 0.02528312 -0.03701880 -0.02704909
v 0.02585514 -0.03661677 -0.02704909
v 0.02712667 -0.03568913 -0.02704909
v 0.02747642 -0.03542056 -0.02704909
v 0.02790462 -0.03507949 -0.02704909
v 0.02313231 -0.03900918 0.05324460
v 0.02173004 -0.03992364 0.05299754
v 0.00200669 -0.04478427 -0.02704909
v 0.00485046 -0.04525056 0.05259906
v 0.00377832 -0.04529999 0.05251139
v 0.00485046 -0.04525056 0.05289393
v 0.00485046 -0.04501824 0.05343587
v 0.00807340 -0.04426031 0.05392202
v 0.00893307 -0.04417957 0.05385826
v 0.01237828 -0.04321404 0.05394592
v 0.01316277 -0.04311024 0.05386623
v 0.01387861 -0.04299325 0.05373074
v 0.01702311 -0.04187613 0.05364308
v 0.01928505 -0.04084633 0.05373871
v 0.01961192 -0.04100781 0.05301348
v 0.02103380 -0.04014113 0.05331632
v 0.02206998 -0.03958422 0.05331632
v 0.02173004 -0.03992364 0.05252733
v 0.02204383 -0.03903060 -0.02704909
v 0.02257663 -0.03872743 -0.02704909
v 0.02343630 -0.03820182 -0.02704909
v 0.02453132 -0.03752628 -0.02704909
v 0.00269638 -0.04474473 -0.02704909
v 0.00553035 -0.04520937 0.05268672
v 0.00308209 -0.04472166 -0.02704909
v 0.00553035 -0.04520937 0.05278236
v 0.00699800 -0.04479580 0.05326053
v 0.00807340 -0.04462609 0.05326053
v 0.00965218 -0.04410378 0.05377856
v 0.01023401 -0.04403293 0.05364308
v 0.01098254 -0.04417298 0.05289393
v 0.01349944 -0.04327995 0.05332429
v 0.01430681 -0.04314978 0.05301348
v 0.01667662 -0.04217601 0.05326850
v 0.01738920 -0.04203925 0.05291784
v 0.01889281 -0.04119564 0.05333226
v 0.01961192 -0.04100781 0.05251139
v 0.01990283 -0.04016420 -0.02704909
v 0.02051408 -0.03985114 -0.02704909
v 0.02086056 -0.03966990 -0.02704909
v 0.02105342 -0.03956774 -0.02704909
v 0.01098254 -0.04417298 0.05260703
v 0.00377179 -0.04467882 -0.02704909
v 0.00485700 -0.04457666 -0.02704909
v 0.00592913 -0.04443496 -0.02704909
v 0.00630830 -0.04438388 -0.02704909
v 0.00700453 -0.04428997 -0.02704909
v 0.00728564 -0.04424713 -0.02704909
v 0.00778575 -0.04416639 -0.02704909
v 0.01023401 -0.04426031 0.05310911
v 0.00923379 -0.04435917 0.05335617
v 0.01430681 -0.04314978 0.05251936
v 0.01738920 -0.04203925 0.05258312
v 0.01886339 -0.04066344 -0.02704909
v 0.00832509 -0.04405600 -0.02704909
v 0.00915207 -0.04388135 -0.02704909
v 0.01022747 -0.04365396 -0.02704909
v 0.01130288 -0.04338375 -0.02704909
v 0.01162648 -0.04329642 -0.02704909
v 0.01272803 -0.04298666 -0.02704909
v 0.01346349 -0.04276752 -0.02704909
v 0.01453889 -0.04240998 -0.02704909
v 0.01596405 -0.04189755 -0.02704909
v 0.01621900 -0.04179704 -0.02704909
v 0.01667336 -0.04161415 -0.02704909
v 0.01774549 -0.04115774 -0.02704909
v 0.01832732 -0.04090401 -0.02704909
f 1 2 3
f 1 3 4
f 1 4 5
f 1 5 6
f 1 6 7
f 1 7 8
f 1 8 9
f 1 9 10
f 1 10 11
f 1 11 12
f 1 12 13
f 1 13 14
f 1 14 2
f 2 14 15
f 2 15 3
f 3 16 4
f 3 15 14
f 3 14 16
f 4 17 18
f 4 18 19
f 4 19 5
f 4 16 20
f 4 20 21
f 4 21 17
f 5 19 6
f 6 19 7
f 7 19 22
f 7 22 8
f 8 22 23
f 8 23 9
f 9 23 24
f 9 24 10
f 10 24 25
f 10 25 26
f 10 26 11
f 11 27 28
f 11 28 29
f 11 29 12
f 11 26 30
f 11 30 27
f 12 29 13
f 13 29 31
f 13 31 14
f 14 31 32
f 14 32 33
f 14 33 16
f 16 33 32
f 16 32 20
f 17 34 35
f 17 35 37
f 17 37 18
f 17 21 36
f 17 36 34
f 18 37 38
f 18 38 19
f 19 38 22
f 20 32 54
f 20 54 79
f 20 79 105
f 20 105 104
f 20 104 136
f 20 136 135
f 20 135 134
f 20 134 133
f 20 133 132
f 20 132 131
f 20 131 158
f 20 158 157
f 20 157 156
f 20 156 155
f 20 155 177
f 20 177 176
f 20 176 175
f 20 175 174
f 20 174 190
f 20 190 203
f 20 203 202
f 20 202 201
f 20 201 200
f 20 200 199
f 20 199 198
f 20 198 197
f 20 197 196
f 20 196 195
f 20 195 194
f 20 194 193
f 20 193 192
f 20 192 191
f 20 191 185
f 20 185 184
f 20 184 183
f 20 183 182
f 20 182 181
f 20 181 180
f 20 180 179
f 20 179 161
f 20 161 159
f 20 159 139
f 20 139 106
f 20 106 81
f 20 81 57
f 20 57 39
f 20 39 21
f 21 39 56
f 21 56 36
f 22 38 23
f 23 40 24
f 23 38 41
f 23 41 42
f 23 42 43
f 23 43 40
f 24 44 25
f 24 40 44
f 25 44 45
f 25 45 46
f 25 46 26
f 26 46 30
f 27 30 28
f 28 30 47
f 28 47 48
f 28 48 49
f 28 49 29
f 29 49 31
f 30 46 50
f 30 50 47
f 31 49 51
f 31 51 52
f 31 52 53
f 31 53 32
f 32 53 54
f 34 36 35
f 35 55 63
f 35 63 41
f 35 41 38
f 35 38 37
f 35 36 56
f 35 56 55
f 39 57 58
f 39 58 59
f 39 59 56
f 40 43 60
f 40 60 61
f 40 61 62
f 40 62 44
f 41 63 59
f 41 59 64
f 41 64 65
f 41 65 42
f 42 65 43
f 43 65 66
f 43 66 60
f 44 62 67
f 44 67 68
f 44 68 69
f 44 69 45
f 45 69 70
f 45 70 46
f 46 70 71
f 46 71 50
f 47 50 72
f 47 72 48
f 48 72 49
f 49 73 74
f 49 74 51
f 49 72 73
f 50 75 76
f 50 76 72
f 50 71 75
f 51 74 52
f 52 74 73
f 52 73 77
f 52 77 100
f 52 100 78
f 52 78 53
f 53 78 54
f 54 78 79
f 55 56 80
f 55 80 63
f 56 59 80
f 57 81 58
f 58 82 108
f 58 108 83
f 58 83 64
f 58 64 59
f 58 81 82
f 59 63 80
f 60 84 61
f 60 66 84
f 61 85 62
f 61 84 86
f 61 86 85
f 62 85 87
f 62 87 67
f 64 83 65
f 65 83 66
f 66 83 88
f 66 88 84
f 67 87 89
f 67 89 90
f 67 90 68
f 68 90 91
f 68 91 92
f 68 92 69
f 69 92 93
f 69 93 94
f 69 94 70
f 70 94 95
f 70 95 96
f 70 96 71
f 71 96 75
f 72 76 73
f 73 76 97
f 73 97 98
f 73 98 77
f 75 99 97
f 75 97 76
f 75 96 99
f 77 98 101
f 77 101 102
f 77 102 103
f 77 103 130
f 77 130 100
f 78 100 104
f 78 104 105
f 78 105 79
f 81 106 82
f 82 107 112
f 82 112 108
f 82 106 107
f 83 108 88
f 84 88 86
f 85 109 87
f 85 86 109
f 86 110 109
f 86 88 110
f 87 109 111
f 87 111 89
f 88 108 112
f 88 112 113
f 88 113 114
f 88 114 115
f 88 115 116
f 88 116 117
f 88 117 110
f 89 111 118
f 89 118 119
f 89 119 120
f 89 120 90
f 90 120 121
f 90 121 91
f 91 93 92
f 91 121 122
f 91 122 123
f 91 123 124
f 91 124 93
f 93 124 125
f 93 125 95
f 93 95 94
f 95 125 126
f 95 126 99
f 95 99 96
f 97 126 127
f 97 127 128
f 97 128 129
f 97 129 102
f 97 102 101
f 97 101 98
f 97 99 126
f 100 130 131
f 100 131 132
f 100 132 133
f 100 133 134
f 100 134 135
f 100 135 136
f 100 136 104
f 102 129 103
f 103 129 128
f 103 128 137
f 103 137 138
f 103 138 154
f 103 154 130
f 106 139 140
f 106 140 141
f 106 141 107
f 107 141 113
f 107 113 112
f 109 110 111
f 110 117 111
f 111 117 116
f 111 116 118
f 113 141 140
f 113 140 142
f 113 142 143
f 113 143 114
f 114 143 144
f 114 144 116
f 114 116 115
f 116 144 118
f 118 144 119
f 119 144 145
f 119 145 146
f 119 146 120
f 120 146 147
f 120 147 122
f 120 122 121
f 122 147 123
f 123 147 148
f 123 148 149
f 123 149 150
f 123 150 124
f 124 150 125
f 125 150 127
f 125 127 126
f 127 150 151
f 127 151 152
f 127 152 138
f 127 138 153
f 127 153 137
f 127 137 128
f 130 154 155
f 130 155 156
f 130 156 157
f 130 157 158
f 130 158 131
f 137 153 138
f 138 151 173
f 138 173 154
f 138 152 151
f 139 159 140
f 140 160 162
f 140 162 142
f 140 159 161
f 140 161 160
f 142 162 143
f 143 145 144
f 143 162 163
f 143 163 145
f 145 163 164
f 145 164 165
f 145 165 146
f 146 165 147
f 147 165 166
f 147 166 148
f 148 166 167
f 148 167 168
f 148 168 169
f 148 169 170
f 148 170 149
f 149 170 171
f 149 171 150
f 150 171 172
f 150 172 151
f 151 172 171
f 151 171 189
f 151 189 173
f 154 173 174
f 154 174 175
f 154 175 176
f 154 176 177
f 154 177 155
f 160 178 167
f 160 167 162
f 160 161 179
f 160 179 180
f 160 180 181
f 160 181 182
f 160 182 183
f 160 183 184
f 160 184 185
f 160 185 178
f 162 167 164
f 162 164 163
f 164 167 186
f 164 186 187
f 164 187 165
f 165 187 186
f 165 186 166
f 166 186 167
f 167 169 168
f 167 178 188
f 167 188 169
f 169 188 189
f 169 189 171
f 169 171 170
f 173 189 190
f 173 190 174
f 178 185 191
f 178 191 192
f 178 192 193
f 178 193 194
f 178 194 195
f 178 195 196
f 178 196 197
f 178 197 188
f 188 197 198
f 188 198 199
f 188 199 189
f 189 199 200
f 189 200 201
f 189 201 202
f 189 202 203
f 189 203 190

