# https://github.com/mikedh/trimesh
v -0.02982433 -0.03416363 0.05326304
v -0.02982433 -0.03402655 0.05211550
v -0.02982433 -0.03366881 0.05391650
v -0.03023682 -0.03344480 0.05386072
v -0.03043773 -0.03362869 0.05326304
v -0.03006025 -0.03329100 -0.01998848
v -0.03004351 -0.03330437 -0.01998848
v -0.02994458 -0.03004454 -0.02705703
v -0.02982433 -0.03363871 0.04908726
v -0.02982433 -0.03280620 0.05420339
v -0.03062495 -0.03277611 0.05399619
v -0.03132207 -0.03238828 0.05386869
v -0.03097351 -0.03312717 0.05326304
v -0.03116225 -0.03223448 -0.01998848
v -0.03326426 -0.03004454 -0.02705703
v -0.04246683 -0.00000727 -0.02705703
v -0.04180624 -0.00005408 0.05243426
v -0.02982433 -0.02931233 0.05294428
v -0.02982433 -0.02934911 0.05240238
v -0.02982433 -0.03030867 0.04908726
v -0.02982433 -0.03173965 0.05431496
v -0.03067061 -0.03173965 0.05427511
v -0.03170868 -0.03170288 0.05400417
v -0.03240123 -0.03131838 0.05386869
v -0.03206485 -0.03206397 0.05326304
v -0.03152755 -0.03258888 0.05326304
v -0.03225359 -0.03116793 -0.01998848
v -0.03375285 -0.02949288 -0.02705703
v -0.03260215 -0.03152567 0.05326304
v -0.03313945 -0.03095729 0.05326304
v -0.03465850 -0.02930899 0.05238645
v -0.04481542 -0.00000727 -0.02705703
v -0.04251402 -0.00000727 -0.01998848
v -0.04251706 -0.00001396 0.04384362
v -0.04180624 -0.00005408 0.05311960
v -0.02982433 -0.02931233 0.05307178
v -0.04357796 -0.00005408 0.05435480
v -0.03067061 -0.03066642 0.05432293
v -0.03390202 -0.02743667 0.05433886
v -0.02982433 -0.03064635 0.05411573
v -0.04259164 -0.00005408 0.05405995
v -0.03174826 -0.03066642 0.05427511
v -0.03278632 -0.03061292 0.05398822
v -0.03282285 -0.02958984 0.05426714
v -0.03344387 -0.03022174 0.05385275
v -0.03394464 -0.02927555 -0.02705703
v -0.03447889 -0.02909835 0.05382885
v -0.03362347 -0.03042235 0.05326304
v -0.03565699 -0.02816220 0.05302397
v -0.03565699 -0.02816220 0.05250598
v -0.04481390 -0.00054222 -0.02705703
v -0.04537403 -0.00054890 0.05238645
v -0.04537403 -0.00005408 0.05238645
v -0.04482607 -0.00000727 -0.01998848
v -0.04492653 -0.00001396 0.04384362
v -0.04251706 -0.00002064 0.04908726
v -0.04205434 -0.00005408 0.05366150
v -0.02982433 -0.02982388 0.05371728
v -0.02982433 -0.02948619 0.05335070
v -0.04461755 -0.00005408 0.05407589
v -0.04357796 -0.00377530 0.05435480
v -0.04493414 -0.00002064 0.04908726
v -0.04035112 -0.01669093 0.05434684
v -0.03497509 -0.02636009 0.05433886
v -0.02982433 -0.03009135 0.05394838
v -0.03390202 -0.02850991 0.05422729
v -0.03384113 -0.02950959 0.05395635
v -0.03429015 -0.02887769 -0.02705703
v -0.03547738 -0.02792816 0.05374915
v -0.03522015 -0.02851660 0.05333476
v -0.03463414 -0.02927890 0.05326304
v -0.03416229 -0.02981719 0.05326304
v -0.03471177 -0.02850991 0.05394041
v -0.03574984 -0.02721267 0.05393245
v -0.03672854 -0.02602241 0.05390057
v -0.03665091 -0.02698197 0.05286459
v -0.03665091 -0.02698197 0.05261755
v -0.04478346 -0.00161880 -0.02705703
v -0.04533445 -0.00269872 0.05245020
v -0.04537403 -0.00054890 0.05319929
v -0.04492653 -0.00001396 0.04303078
v -0.04537403 -0.00005408 0.05319929
v -0.04515789 -0.00005408 0.05374119
v -0.04461755 -0.00054890 0.05407589
v -0.04459320 -0.00162214 0.05407589
v -0.04357796 -0.00485188 0.05433886
v -0.04250336 -0.01023479 0.05434684
v -0.03712581 -0.02313035 0.05433886
v -0.04142572 -0.01453777 0.05433089
v -0.04035112 -0.01774745 0.05429105
v -0.03927196 -0.01990395 0.05429901
v -0.03604969 -0.02528351 0.05429901
v -0.03608318 -0.02637347 0.05405995
v -0.03473004 -0.02833940 -0.02705703
v -0.03768746 -0.02478534 0.05382088
v -0.03646370 -0.02674124 0.05358977
v -0.03710450 -0.02519993 0.05398025
v -0.03786555 -0.02420693 0.05393245
v -0.03690054 -0.02637347 0.05323913
v -0.03746523 -0.02553092 0.05326304
v -0.03879859 -0.02377563 0.05288053
v -0.03879859 -0.02377563 0.05260161
v -0.03662047 -0.02586861 -0.02705703
v -0.03622321 -0.02640690 -0.02705703
v -0.03587769 -0.02686829 -0.02705703
v -0.03568439 -0.02712239 -0.02705703
v -0.03526886 -0.02766068 -0.02705703
v -0.03492182 -0.02809867 -0.02705703
v -0.04475606 -0.00231089 -0.02705703
v -0.04529031 -0.00377530 0.05252192
v -0.04533445 -0.00269872 0.05310366
v -0.04535424 -0.00162214 0.05315944
v -0.04515485 -0.00054890 0.05374119
v -0.04456428 -0.00269872 0.05406791
v -0.04452013 -0.00377530 0.05405995
v -0.04357796 -0.00592846 0.05430699
v -0.04357796 -0.00700504 0.05426714
v -0.04250336 -0.01130802 0.05430699
v -0.03819736 -0.02205377 0.05428308
v -0.04250336 -0.01238460 0.05423527
v -0.04142572 -0.01561435 0.05423527
v -0.04117762 -0.01774745 0.05399619
v -0.04014260 -0.01990395 0.05401213
v -0.03934806 -0.02103068 0.05408385
v -0.03712581 -0.02420693 0.05421136
v -0.03884273 -0.02278264 0.05388462
v -0.03862659 -0.02350147 0.05359774
v -0.03782445 -0.02499264 0.05326304
v -0.03823846 -0.02313704 0.05405198
v -0.03904365 -0.02205377 0.05399619
v -0.03992646 -0.02171943 0.05299210
v -0.03899951 -0.02313704 0.05325507
v -0.03992646 -0.02171943 0.05252989
v -0.03956572 -0.02106078 -0.02705703
v -0.03902843 -0.02202702 -0.02705703
v -0.03872096 -0.02256531 -0.02705703
v -0.03839067 -0.02313369 -0.02705703
v -0.03805581 -0.02368201 -0.02705703
v -0.03786859 -0.02398627 -0.02705703
v -0.03751546 -0.02452456 -0.02705703
v -0.03718974 -0.02501604 -0.02705703
v -0.03701013 -0.02528686 -0.02705703
v -0.04473931 -0.00269204 -0.02705703
v -0.04523856 -0.00485188 0.05262552
v -0.04529031 -0.00377530 0.05300803
v -0.04510310 -0.00269872 0.05364556
v -0.04513049 -0.00162214 0.05369337
v -0.04446838 -0.00485188 0.05404401
v -0.04357796 -0.00807828 0.05421136
v -0.04440902 -0.00592846 0.05401213
v -0.04348207 -0.01023479 0.05405995
v -0.04334660 -0.01130802 0.05401213
v -0.04232680 -0.01453777 0.05403604
v -0.04214719 -0.01561435 0.05393245
v -0.04202238 -0.01630309 0.05384478
v -0.04101171 -0.01855321 0.05389260
v -0.03994929 -0.02071306 0.05390057
v -0.03975751 -0.02142855 0.05370931
v -0.04100106 -0.01959636 0.05300006
v -0.04013803 -0.02103068 0.05331882
v -0.04100106 -0.01959636 0.05252989
v -0.03985492 -0.02052249 -0.02705703
v -0.03975294 -0.02071306 -0.02705703
v -0.04465864 -0.00376862 -0.02705703
v -0.04520203 -0.00549382 0.05268927
v -0.04523856 -0.00485188 0.05285662
v -0.04500568 -0.00485188 0.05339851
v -0.04505896 -0.00377530 0.05354196
v -0.04424920 -0.00807828 0.05392447
v -0.04433292 -0.00700504 0.05397229
v -0.04417919 -0.00892751 0.05385275
v -0.04320961 -0.01238460 0.05393245
v -0.04310611 -0.01314022 0.05385275
v -0.04298130 -0.01385905 0.05370134
v -0.04256120 -0.01561435 0.05326304
v -0.04187017 -0.01702193 0.05361368
v -0.04083667 -0.01927205 0.05370931
v -0.04203151 -0.01738302 0.05290444
v -0.04119741 -0.01887752 0.05331882
v -0.04203151 -0.01738302 0.05259364
v -0.04091125 -0.01833255 -0.02705703
v -0.04015477 -0.01990395 -0.02705703
v -0.04455210 -0.00484520 -0.02705703
v -0.04416092 -0.01095362 0.05263349
v -0.04520203 -0.00549382 0.05276099
v -0.04447295 -0.00554063 -0.02705703
v -0.04442881 -0.00592178 -0.02705703
v -0.04432530 -0.00661721 -0.02705703
v -0.04426747 -0.00699836 -0.02705703
v -0.04418984 -0.00744972 -0.02705703
v -0.04405285 -0.00823877 -0.02705703
v -0.04477433 -0.00700504 0.05326304
v -0.04497524 -0.00588166 0.05317538
v -0.04410308 -0.00964635 0.05377306
v -0.04360688 -0.01238460 0.05326304
v -0.04327050 -0.01348459 0.05330289
v -0.04314112 -0.01431041 0.05298413
v -0.04289302 -0.01461801 0.05330289
v -0.04216698 -0.01667421 0.05326304
v -0.04171796 -0.01774076 0.05326304
v -0.04314112 -0.01431041 0.05253786
v -0.04210001 -0.01541040 -0.02705703
v -0.04188844 -0.01594869 -0.02705703
v -0.04169970 -0.01642011 -0.02705703
v -0.04159467 -0.01668090 -0.02705703
v -0.04115479 -0.01775413 -0.02705703
v -0.04416092 -0.01095362 0.05284865
v -0.04394022 -0.00882721 -0.02705703
v -0.04387629 -0.00915152 -0.02705703
v -0.04371951 -0.00984361 -0.02705703
v -0.04363275 -0.01022476 -0.02705703
v -0.04346380 -0.01092019 -0.02705703
v -0.04336943 -0.01130134 -0.02705703
v -0.04314112 -0.01217731 -0.02705703
v -0.04308480 -0.01236789 -0.02705703
v -0.04298130 -0.01271226 -0.02705703
v -0.04424920 -0.01023479 0.05307178
v -0.04460233 -0.00807828 0.05326304
v -0.04435575 -0.00923510 0.05335070
v -0.04390369 -0.01131137 0.05323116
v -0.04274842 -0.01345450 -0.02705703
v -0.04240595 -0.01453108 -0.02705703
f 1 2 9
f 1 9 20
f 1 20 19
f 1 19 18
f 1 18 36
f 1 36 59
f 1 59 58
f 1 58 65
f 1 65 40
f 1 40 21
f 1 21 10
f 1 10 3
f 1 3 4
f 1 4 5
f 1 5 6
f 1 6 7
f 1 7 8
f 1 8 2
f 2 8 9
f 3 10 11
f 3 11 4
f 4 11 12
f 4 12 13
f 4 13 5
f 5 13 6
f 6 13 14
f 6 14 15
f 6 15 7
f 7 15 8
f 8 15 28
f 8 28 46
f 8 46 68
f 8 68 94
f 8 94 108
f 8 108 107
f 8 107 106
f 8 106 105
f 8 105 104
f 8 104 103
f 8 103 142
f 8 142 141
f 8 141 140
f 8 140 139
f 8 139 138
f 8 138 137
f 8 137 136
f 8 136 135
f 8 135 134
f 8 134 163
f 8 163 162
f 8 162 182
f 8 182 181
f 8 181 206
f 8 206 205
f 8 205 204
f 8 204 203
f 8 203 202
f 8 202 222
f 8 222 221
f 8 221 216
f 8 216 215
f 8 215 214
f 8 214 213
f 8 213 212
f 8 212 211
f 8 211 210
f 8 210 209
f 8 209 208
f 8 208 191
f 8 191 190
f 8 190 189
f 8 189 188
f 8 188 187
f 8 187 186
f 8 186 183
f 8 183 164
f 8 164 143
f 8 143 109
f 8 109 78
f 8 78 51
f 8 51 32
f 8 32 16
f 8 16 17
f 8 17 18
f 8 18 19
f 8 19 20
f 8 20 9
f 10 21 22
f 10 22 11
f 11 22 23
f 11 23 12
f 12 23 24
f 12 24 25
f 12 25 26
f 12 26 13
f 13 26 14
f 14 26 25
f 14 25 27
f 14 27 15
f 15 27 29
f 15 29 30
f 15 30 31
f 15 31 28
f 16 32 54
f 16 54 33
f 16 33 34
f 16 34 35
f 16 35 17
f 17 35 36
f 17 36 18
f 21 37 38
f 21 38 39
f 21 39 22
f 21 40 41
f 21 41 37
f 22 39 42
f 22 42 23
f 23 43 24
f 23 42 44
f 23 44 43
f 24 43 45
f 24 45 30
f 24 30 29
f 24 29 25
f 25 29 27
f 28 31 46
f 30 45 47
f 30 47 48
f 30 48 31
f 31 48 49
f 31 49 50
f 31 50 46
f 32 51 52
f 32 52 53
f 32 53 54
f 33 54 55
f 33 55 34
f 34 55 62
f 34 62 56
f 34 56 35
f 35 56 57
f 35 57 58
f 35 58 59
f 35 59 36
f 37 60 84
f 37 84 61
f 37 61 39
f 37 39 38
f 37 41 56
f 37 56 62
f 37 62 60
f 39 61 63
f 39 63 64
f 39 64 42
f 40 65 41
f 41 65 57
f 41 57 56
f 42 64 44
f 43 44 66
f 43 66 67
f 43 67 45
f 44 64 66
f 45 67 47
f 46 50 68
f 47 69 70
f 47 70 71
f 47 71 72
f 47 72 48
f 47 67 73
f 47 73 74
f 47 74 75
f 47 75 69
f 48 72 49
f 49 76 77
f 49 77 50
f 49 72 71
f 49 71 70
f 49 70 69
f 49 69 76
f 50 77 68
f 51 78 79
f 51 79 52
f 52 79 111
f 52 111 80
f 52 80 82
f 52 82 53
f 53 81 54
f 53 82 55
f 53 55 81
f 54 81 55
f 55 82 62
f 57 65 58
f 60 83 84
f 60 62 83
f 61 84 85
f 61 85 86
f 61 86 87
f 61 87 63
f 62 82 83
f 63 88 64
f 63 87 89
f 63 89 90
f 63 90 91
f 63 91 88
f 64 88 92
f 64 92 66
f 66 92 93
f 66 93 73
f 66 73 67
f 68 77 94
f 69 75 95
f 69 95 96
f 69 96 76
f 73 93 74
f 74 93 75
f 75 93 97
f 75 97 98
f 75 98 95
f 76 96 99
f 76 99 100
f 76 100 101
f 76 101 102
f 76 102 77
f 77 102 103
f 77 103 104
f 77 104 105
f 77 105 106
f 77 106 107
f 77 107 108
f 77 108 94
f 78 109 79
f 79 110 145
f 79 145 111
f 79 109 110
f 80 111 112
f 80 112 113
f 80 113 83
f 80 83 82
f 83 113 84
f 84 113 85
f 85 113 114
f 85 114 86
f 86 114 115
f 86 115 116
f 86 116 87
f 87 116 117
f 87 117 118
f 87 118 89
f 88 91 119
f 88 119 92
f 89 118 120
f 89 120 121
f 89 121 90
f 90 121 122
f 90 122 123
f 90 123 91
f 91 123 124
f 91 124 119
f 92 119 125
f 92 125 93
f 93 125 97
f 95 98 126
f 95 126 127
f 95 127 101
f 95 101 128
f 95 128 100
f 95 100 99
f 95 99 96
f 97 125 129
f 97 129 98
f 98 129 130
f 98 130 126
f 100 128 101
f 101 131 133
f 101 133 102
f 101 127 132
f 101 132 131
f 102 133 134
f 102 134 135
f 102 135 136
f 102 136 137
f 102 137 138
f 102 138 139
f 102 139 140
f 102 140 141
f 102 141 142
f 102 142 103
f 109 143 110
f 110 144 166
f 110 166 145
f 110 143 144
f 111 145 146
f 111 146 147
f 111 147 113
f 111 113 112
f 113 147 148
f 113 148 115
f 113 115 114
f 115 148 116
f 116 148 117
f 117 149 118
f 117 148 150
f 117 150 149
f 118 149 120
f 119 124 130
f 119 130 129
f 119 129 125
f 120 149 151
f 120 151 152
f 120 152 153
f 120 153 121
f 121 153 122
f 122 153 154
f 122 154 155
f 122 155 156
f 122 156 123
f 123 156 157
f 123 157 130
f 123 130 124
f 126 130 157
f 126 157 158
f 126 158 127
f 127 158 132
f 131 159 161
f 131 161 133
f 131 132 158
f 131 158 160
f 131 160 159
f 133 161 162
f 133 162 163
f 133 163 134
f 143 164 165
f 143 165 144
f 144 165 185
f 144 185 166
f 145 166 167
f 145 167 168
f 145 168 146
f 146 168 169
f 146 169 170
f 146 170 150
f 146 150 148
f 146 148 147
f 149 150 170
f 149 170 169
f 149 169 151
f 151 169 152
f 152 169 171
f 152 171 172
f 152 172 153
f 153 172 173
f 153 173 154
f 154 173 155
f 155 173 174
f 155 174 175
f 155 175 176
f 155 176 177
f 155 177 156
f 156 177 157
f 157 177 158
f 158 177 160
f 159 178 180
f 159 180 161
f 159 160 177
f 159 177 179
f 159 179 178
f 161 180 181
f 161 181 182
f 161 182 162
f 164 183 165
f 165 184 207
f 165 207 185
f 165 183 186
f 165 186 187
f 165 187 188
f 165 188 189
f 165 189 190
f 165 190 191
f 165 191 184
f 166 185 167
f 167 192 171
f 167 171 169
f 167 169 168
f 167 185 193
f 167 193 192
f 171 194 172
f 171 192 194
f 172 194 173
f 173 194 195
f 173 195 174
f 174 195 196
f 174 196 197
f 174 197 198
f 174 198 175
f 175 198 197
f 175 197 178
f 175 178 199
f 175 199 176
f 176 199 178
f 176 178 200
f 176 200 179
f 176 179 177
f 178 179 200
f 178 197 201
f 178 201 180
f 180 201 202
f 180 202 203
f 180 203 204
f 180 204 205
f 180 205 206
f 180 206 181
f 184 201 197
f 184 197 207
f 184 191 208
f 184 208 209
f 184 209 210
f 184 210 211
f 184 211 212
f 184 212 213
f 184 213 214
f 184 214 215
f 184 215 216
f 184 216 201
f 185 207 217
f 185 217 218
f 185 218 192
f 185 192 193
f 192 218 194
f 194 218 219
f 194 219 217
f 194 217 207
f 194 207 220
f 194 220 195
f 195 220 207
f 195 207 197
f 195 197 196
f 201 216 221
f 201 221 222
f 201 222 202
f 217 219 218

