# https://github.com/mikedh/trimesh
v 0.03337712 0.03068550 0.05326269
v 0.03312873 0.03095821 0.05326269
v 0.03239339 0.03132232 0.05387944
v 0.03273982 0.03068550 0.05397878
v 0.03004358 0.03008464 0.04909030
v 0.03005992 0.03007116 0.04384584
v 0.03005992 0.03006966 0.03927608
v 0.03005992 0.03006966 0.03329897
v 0.03004685 0.03007565 0.02269001
v 0.03003704 0.03008464 0.01207277
v 0.03333790 0.03068550 0.05276183
v 0.03003704 0.03336915 0.01207277
v 0.03259275 0.03152461 0.05326269
v 0.03205351 0.03206254 0.05326269
v 0.03131163 0.03239069 0.05387530
v 0.03170054 0.03170592 0.05400361
v 0.03175937 0.03068550 0.05427681
v 0.03173976 0.03068550 0.05428095
v 0.03066453 0.03068550 0.05432648
v 0.02956316 0.03068550 0.05407813
v 0.02946184 0.03068550 0.05404915
v 0.02853041 0.03068550 0.05329580
v 0.02852061 0.03068550 0.05328752
v 0.02851407 0.03068550 0.05327511
v 0.00000578 0.04181265 0.05312195
v 0.00000578 0.04181265 0.05245139
v -0.00000729 0.04251990 0.01207277
v 0.03329214 0.03068550 0.05218648
v 0.02909581 0.03417229 0.01207277
v 0.02816438 0.03566170 0.05249692
v 0.02930497 0.03465178 0.05241000
v 0.03096194 0.03312640 0.05326269
v 0.03151753 0.03258998 0.05326269
v 0.03022333 0.03344706 0.05386702
v 0.03061551 0.03277727 0.05399534
v 0.03066453 0.03174487 0.05428508
v 0.02743558 0.03389808 0.05433890
v 0.00161699 0.04358077 0.05435959
v 0.00000578 0.04358077 0.05435546
v 0.00000578 0.04309229 0.05421472
v 0.00000578 0.04259782 0.05406984
v 0.00000578 0.04205989 0.05366006
v -0.00000729 0.04252439 0.04909030
v -0.00001056 0.04252439 0.04384584
v -0.00001056 0.04252290 0.03926780
v -0.00001056 0.04252290 0.03329897
v -0.00000729 0.04488588 0.01207277
v 0.02837681 0.03477765 0.01207277
v 0.02697476 0.03664466 0.05263352
v 0.02816438 0.03566170 0.05304744
v 0.03042269 0.03362687 0.05326269
v 0.02908927 0.03446897 0.05382563
v 0.02851080 0.03470872 0.05394566
v 0.02950433 0.03384114 0.05396223
v 0.02851080 0.03389808 0.05422714
v 0.02958930 0.03282223 0.05426853
v 0.02636034 0.03497394 0.05433476
v 0.02313139 0.03712714 0.05434304
v 0.01668328 0.04035171 0.05435131
v 0.01022863 0.04250342 0.05435546
v 0.00269549 0.04358077 0.05435546
v 0.00161699 0.04460568 0.05408641
v 0.00054176 0.04462066 0.05408641
v 0.00000578 0.04462366 0.05408641
v -0.00000729 0.04494432 0.04909030
v -0.00001056 0.04493533 0.04384584
v -0.00001056 0.04491884 0.03329897
v 0.00054503 0.04488288 0.01207277
v 0.00000578 0.04537586 0.05238930
v 0.02771991 0.03531557 0.01207277
v 0.02376868 0.03879936 0.05262110
v 0.02697476 0.03664466 0.05286118
v 0.02718066 0.03572164 0.01207277
v 0.02665448 0.03610823 0.01207277
v 0.02590934 0.03665365 0.01207277
v 0.02528512 0.03708519 0.01207277
v 0.02794214 0.03548489 0.05376768
v 0.02851734 0.03521368 0.05334961
v 0.02980827 0.03416480 0.05326269
v 0.02722314 0.03574112 0.05394566
v 0.02752382 0.03506534 0.05410710
v 0.02528512 0.03605129 0.05430992
v 0.02205616 0.03819850 0.05429336
v 0.01990243 0.03927436 0.05430992
v 0.01775197 0.04035171 0.05429751
v 0.01452955 0.04142756 0.05433062
v 0.01130060 0.04250342 0.05431821
v 0.00699641 0.04358077 0.05428095
v 0.00592118 0.04358077 0.05431821
v 0.00484595 0.04358077 0.05433890
v 0.00376745 0.04358077 0.05435131
v 0.00269549 0.04457271 0.05407813
v 0.00054176 0.04515859 0.05374698
v 0.00000578 0.04516159 0.05375112
v 0.00000578 0.04537586 0.05321301
v -0.00001056 0.04492035 0.03360114
v 0.00084570 0.04487839 0.01207277
v 0.00054176 0.04537286 0.05238930
v 0.00161699 0.04536387 0.05240586
v 0.02172607 0.03992616 0.05254245
v 0.02376868 0.03879936 0.05287773
v 0.02457919 0.03755569 0.01207277
v 0.02442885 0.03765308 0.01207277
v 0.02303661 0.03852965 0.01207277
v 0.02264770 0.03877089 0.01207277
v 0.02554330 0.03747178 0.05326269
v 0.02637015 0.03689789 0.05323785
v 0.02479162 0.03769204 0.05382563
v 0.02601719 0.03673007 0.05390428
v 0.02673292 0.03645886 0.05357727
v 0.02637015 0.03608126 0.05406571
v 0.02420988 0.03712714 0.05422300
v 0.02314119 0.03823596 0.05406571
v 0.02205616 0.03904960 0.05399948
v 0.02102995 0.03934778 0.05408641
v 0.01990243 0.04015092 0.05401603
v 0.01560805 0.04142756 0.05423956
v 0.01888276 0.04043112 0.05408641
v 0.01775197 0.04118332 0.05400361
v 0.01237583 0.04250342 0.05423956
v 0.00807491 0.04358077 0.05422300
v 0.00592118 0.04440939 0.05402431
v 0.00484595 0.04447532 0.05405328
v 0.00376745 0.04452776 0.05406571
v 0.00161699 0.04514360 0.05372215
v 0.00161699 0.04536387 0.05318404
v 0.00054176 0.04537286 0.05320888
v 0.00162026 0.04486640 0.01207277
v 0.00269549 0.04533690 0.05245553
v 0.01961810 0.04100651 0.05253004
v 0.02172607 0.03992616 0.05299363
v 0.02138618 0.03945716 0.01207277
v 0.02097112 0.03968042 0.01207277
v 0.02058221 0.03988720 0.01207277
v 0.02314119 0.03900764 0.05324613
v 0.02350396 0.03862105 0.05359797
v 0.02500732 0.03782840 0.05326269
v 0.02278496 0.03885031 0.05389186
v 0.02420988 0.03786585 0.05393325
v 0.02520668 0.03710317 0.05399120
v 0.02070640 0.03995014 0.05390841
v 0.01855921 0.04100801 0.05390013
v 0.01667674 0.04148300 0.05405328
v 0.01452955 0.04233560 0.05404087
v 0.01631398 0.04202543 0.05385874
v 0.01560805 0.04214680 0.05394566
v 0.01130060 0.04335451 0.05402845
v 0.01022863 0.04349086 0.05407399
v 0.00807491 0.04425955 0.05392911
v 0.00699641 0.04433747 0.05398706
v 0.00269549 0.04511064 0.05366006
v 0.00269549 0.04533690 0.05312195
v 0.00269222 0.04481096 0.01207277
v 0.00376745 0.04529644 0.05252589
v 0.00484595 0.04524849 0.05261696
v 0.01739247 0.04204191 0.05258384
v 0.01961810 0.04100651 0.05301019
v 0.01990570 0.04023184 0.01207277
v 0.01893178 0.04069335 0.01207277
v 0.02102995 0.04014793 0.05331650
v 0.02142540 0.03975684 0.05370973
v 0.02207250 0.03958303 0.05331650
v 0.01927821 0.04084169 0.05372629
v 0.01315365 0.04310877 0.05386288
v 0.01237583 0.04321366 0.05394566
v 0.01702317 0.04188008 0.05365178
v 0.01386938 0.04299489 0.05372629
v 0.00892136 0.04418313 0.05386288
v 0.00484595 0.04501324 0.05342412
v 0.00376745 0.04506569 0.05355658
v 0.00376745 0.04529644 0.05301847
v 0.00377072 0.04473005 0.01207277
v 0.00550939 0.04521253 0.05268733
v 0.00484595 0.04524849 0.05288601
v 0.01430732 0.04315073 0.05253004
v 0.01739247 0.04204191 0.05293154
v 0.01878145 0.04076227 0.01207277
v 0.01774870 0.04122977 0.01207277
v 0.01668001 0.04167780 0.01207277
v 0.01602964 0.04192503 0.01207277
v 0.01480408 0.04237905 0.01207277
v 0.01994819 0.04069634 0.05332891
v 0.00964036 0.04410222 0.05378010
v 0.01667674 0.04217377 0.05327924
v 0.01430732 0.04315073 0.05301019
v 0.01348700 0.04327510 0.05332478
v 0.01237583 0.04361224 0.05326269
v 0.01131694 0.04391192 0.05325027
v 0.01022863 0.04402879 0.05363108
v 0.00807491 0.04462066 0.05326269
v 0.00699641 0.04478249 0.05326269
v 0.00588850 0.04497578 0.05318818
v 0.00550939 0.04521253 0.05278253
v 0.00407466 0.04470307 0.01207277
v 0.01096724 0.04416964 0.05262110
v 0.00846709 0.04408873 0.01207277
v 0.00792784 0.04418912 0.01207277
v 0.00725786 0.04429850 0.01207277
v 0.00699968 0.04434046 0.01207277
v 0.00592118 0.04449629 0.01207277
v 0.00514989 0.04459369 0.01207277
v 0.00484922 0.04463115 0.01207277
v 0.01452955 0.04247645 0.01207277
v 0.01345759 0.04282857 0.01207277
v 0.01022863 0.04425655 0.05309298
v 0.00922857 0.04436144 0.05335789
v 0.01096724 0.04416964 0.05287773
v 0.01267650 0.04305783 0.01207277
v 0.01228758 0.04317171 0.01207277
v 0.01130386 0.04344741 0.01207277
v 0.01022537 0.04370963 0.01207277
v 0.00945408 0.04387895 0.01207277
f 1 2 3
f 1 3 4
f 1 4 5
f 1 5 6
f 1 6 7
f 1 7 8
f 1 8 9
f 1 9 10
f 1 10 11
f 1 11 12
f 1 12 2
f 2 13 3
f 2 12 13
f 3 13 14
f 3 14 15
f 3 15 16
f 3 16 4
f 4 16 17
f 4 17 5
f 5 17 18
f 5 18 19
f 5 19 20
f 5 20 21
f 5 21 22
f 5 22 23
f 5 23 24
f 5 24 6
f 6 24 25
f 6 25 7
f 7 25 26
f 7 26 8
f 8 26 9
f 9 26 10
f 10 26 27
f 10 27 47
f 10 47 68
f 10 68 97
f 10 97 128
f 10 128 153
f 10 153 172
f 10 172 194
f 10 194 202
f 10 202 201
f 10 201 200
f 10 200 199
f 10 199 198
f 10 198 197
f 10 197 196
f 10 196 212
f 10 212 211
f 10 211 210
f 10 210 209
f 10 209 208
f 10 208 204
f 10 204 203
f 10 203 181
f 10 181 180
f 10 180 179
f 10 179 178
f 10 178 177
f 10 177 159
f 10 159 158
f 10 158 134
f 10 134 133
f 10 133 132
f 10 132 105
f 10 105 104
f 10 104 103
f 10 103 102
f 10 102 76
f 10 76 75
f 10 75 74
f 10 74 73
f 10 73 70
f 10 70 48
f 10 48 29
f 10 29 12
f 10 12 28
f 10 28 11
f 11 28 12
f 12 29 30
f 12 30 31
f 12 31 32
f 12 32 33
f 12 33 14
f 12 14 13
f 14 33 15
f 15 33 34
f 15 34 35
f 15 35 16
f 16 35 36
f 16 36 17
f 17 36 18
f 18 36 37
f 18 37 19
f 19 37 38
f 19 38 39
f 19 39 40
f 19 40 41
f 19 41 20
f 20 41 21
f 21 41 42
f 21 42 22
f 22 42 23
f 23 42 25
f 23 25 24
f 25 42 43
f 25 43 44
f 25 44 45
f 25 45 46
f 25 46 26
f 26 46 27
f 27 46 67
f 27 67 47
f 29 48 30
f 30 49 72
f 30 72 50
f 30 50 31
f 30 48 49
f 31 50 51
f 31 51 32
f 32 51 34
f 32 34 33
f 34 51 52
f 34 52 53
f 34 53 54
f 34 54 35
f 35 54 55
f 35 55 56
f 35 56 36
f 36 56 57
f 36 57 37
f 37 57 58
f 37 58 59
f 37 59 38
f 38 60 61
f 38 61 62
f 38 62 63
f 38 63 64
f 38 64 39
f 38 59 60
f 39 64 65
f 39 65 43
f 39 43 40
f 40 43 41
f 41 43 42
f 43 65 66
f 43 66 44
f 44 66 96
f 44 96 67
f 44 67 46
f 44 46 45
f 47 67 69
f 47 69 68
f 48 70 49
f 49 71 101
f 49 101 72
f 49 70 73
f 49 73 74
f 49 74 75
f 49 75 76
f 49 76 71
f 50 72 77
f 50 77 78
f 50 78 79
f 50 79 51
f 51 79 52
f 52 77 80
f 52 80 53
f 52 79 77
f 53 81 54
f 53 80 81
f 54 81 55
f 55 82 56
f 55 81 82
f 56 82 57
f 57 82 58
f 58 82 83
f 58 83 84
f 58 84 59
f 59 84 85
f 59 85 86
f 59 86 60
f 60 86 87
f 60 87 88
f 60 88 89
f 60 89 90
f 60 90 91
f 60 91 61
f 61 91 62
f 62 91 90
f 62 90 92
f 62 92 93
f 62 93 94
f 62 94 63
f 63 94 64
f 64 94 65
f 65 94 95
f 65 95 66
f 66 95 69
f 66 69 96
f 67 96 69
f 68 69 98
f 68 98 99
f 68 99 97
f 69 95 127
f 69 127 98
f 71 100 131
f 71 131 101
f 71 76 102
f 71 102 103
f 71 103 104
f 71 104 105
f 71 105 100
f 72 101 106
f 72 106 107
f 72 107 77
f 77 108 109
f 77 109 80
f 77 79 78
f 77 107 110
f 77 110 108
f 80 109 111
f 80 111 81
f 81 111 82
f 82 111 112
f 82 112 83
f 83 112 113
f 83 113 114
f 83 114 115
f 83 115 116
f 83 116 84
f 84 116 85
f 85 117 86
f 85 116 118
f 85 118 119
f 85 119 117
f 86 117 120
f 86 120 87
f 87 120 121
f 87 121 88
f 88 121 122
f 88 122 123
f 88 123 89
f 89 123 124
f 89 124 92
f 89 92 90
f 92 124 125
f 92 125 93
f 93 125 126
f 93 126 127
f 93 127 95
f 93 95 94
f 97 99 128
f 98 127 126
f 98 126 99
f 99 126 152
f 99 152 129
f 99 129 128
f 100 130 157
f 100 157 131
f 100 105 132
f 100 132 133
f 100 133 134
f 100 134 130
f 101 131 135
f 101 135 136
f 101 136 137
f 101 137 106
f 106 137 108
f 106 108 110
f 106 110 107
f 108 137 136
f 108 136 138
f 108 138 139
f 108 139 140
f 108 140 109
f 109 140 111
f 111 140 112
f 112 140 113
f 113 140 139
f 113 139 138
f 113 138 114
f 114 116 115
f 114 138 141
f 114 141 116
f 116 141 142
f 116 142 119
f 116 119 118
f 117 119 143
f 117 143 144
f 117 144 120
f 119 142 145
f 119 145 146
f 119 146 143
f 120 144 147
f 120 147 148
f 120 148 121
f 121 148 149
f 121 149 150
f 121 150 122
f 122 150 151
f 122 151 125
f 122 125 123
f 123 125 124
f 125 151 152
f 125 152 126
f 128 129 154
f 128 154 155
f 128 155 153
f 129 152 171
f 129 171 154
f 130 156 176
f 130 176 157
f 130 134 158
f 130 158 159
f 130 159 156
f 131 157 160
f 131 160 161
f 131 161 162
f 131 162 135
f 135 162 161
f 135 161 136
f 136 161 138
f 138 161 141
f 141 161 163
f 141 163 142
f 142 163 145
f 143 146 144
f 144 146 164
f 144 164 165
f 144 165 147
f 145 164 146
f 145 163 166
f 145 166 167
f 145 167 164
f 147 165 168
f 147 168 149
f 147 149 148
f 149 168 169
f 149 169 170
f 149 170 151
f 149 151 150
f 151 170 171
f 151 171 152
f 153 155 173
f 153 173 172
f 154 171 174
f 154 174 155
f 155 174 193
f 155 193 173
f 156 175 185
f 156 185 176
f 156 159 177
f 156 177 178
f 156 178 179
f 156 179 180
f 156 180 181
f 156 181 175
f 157 176 163
f 157 163 182
f 157 182 160
f 160 182 161
f 161 182 163
f 163 176 166
f 164 167 183
f 164 183 165
f 165 183 168
f 166 184 167
f 166 176 184
f 167 184 185
f 167 185 186
f 167 186 187
f 167 187 188
f 167 188 189
f 167 189 183
f 168 183 190
f 168 190 191
f 168 191 169
f 169 191 192
f 169 192 193
f 169 193 174
f 169 174 170
f 170 174 171
f 172 173 194
f 173 193 207
f 173 207 195
f 173 195 196
f 173 196 197
f 173 197 198
f 173 198 199
f 173 199 200
f 173 200 201
f 173 201 202
f 173 202 194
f 175 195 207
f 175 207 185
f 175 181 203
f 175 203 204
f 175 204 195
f 176 185 184
f 183 189 205
f 183 205 206
f 183 206 190
f 185 207 186
f 186 207 187
f 187 207 188
f 188 207 189
f 189 207 205
f 190 206 205
f 190 205 207
f 190 207 193
f 190 193 191
f 191 193 192
f 195 204 208
f 195 208 209
f 195 209 210
f 195 210 211
f 195 211 212
f 195 212 196

