# https://github.com/mikedh/trimesh
v 0.00000739 -0.04251899 -0.00930969
v 0.00000739 -0.04485543 -0.00930969
v 0.00000739 -0.04251899 -0.01464903
v -0.00000569 -0.04181617 0.05311281
v 0.00000085 -0.04253156 0.04384467
v 0.00000739 -0.04485385 -0.01021818
v 0.00000085 -0.04494348 0.04384467
v -0.00000569 -0.04538058 0.05322438
v -0.00000569 -0.04538058 0.05237965
v 0.00000739 -0.04484599 -0.01464903
v -0.00000895 -0.04246238 -0.02705703
v -0.00000569 -0.04181617 0.05245934
v -0.02982261 -0.02931793 0.05307297
v -0.00000569 -0.04193566 0.05337579
v -0.00000569 -0.04206302 0.05364675
v -0.00000569 -0.04259917 0.05406911
v -0.00000569 -0.04357557 0.05435600
v -0.00000569 -0.04463216 0.05408505
v -0.00000569 -0.04516989 0.05376628
v -0.00054163 -0.04537743 0.05322438
v -0.00054163 -0.04537743 0.05237965
v -0.00000895 -0.04482870 -0.02705703
v -0.02994026 -0.03004748 -0.02705703
v -0.02982261 -0.02931793 0.05294546
v -0.03327686 -0.03004748 -0.01998041
v -0.03337816 -0.03008364 0.04384467
v -0.02982261 -0.02949088 0.05335188
v -0.02982261 -0.02983050 0.05371847
v -0.02982261 -0.03010094 0.05394957
v -0.02982261 -0.03065124 0.05412490
v -0.02958732 -0.03174714 0.05432413
v -0.02743373 -0.03389805 0.05434006
v -0.00269522 -0.04357557 0.05435600
v -0.00054163 -0.04463059 0.05408505
v -0.00054163 -0.04516517 0.05375831
v -0.00162006 -0.04461958 0.05408505
v -0.00162006 -0.04536800 0.05320047
v -0.00162006 -0.04515417 0.05374237
v -0.00162006 -0.04536800 0.05239559
v -0.00054490 -0.04482555 -0.02705703
v -0.03326051 -0.03004748 -0.02705703
v -0.03337816 -0.03008364 0.04243412
v -0.02982261 -0.03416534 0.05324829
v -0.02982261 -0.03174714 0.05431615
v -0.02982261 -0.03416534 0.05325626
v -0.02982261 -0.03367321 0.05391769
v -0.02982261 -0.03281473 0.05421255
v -0.01667558 -0.04035078 0.05434803
v -0.02958732 -0.03282574 0.05427631
v -0.02635857 -0.03497665 0.05433210
v -0.02312982 -0.03712913 0.05434006
v -0.00377365 -0.04357557 0.05434803
v -0.01023115 -0.04250326 0.05434803
v -0.00484881 -0.04357557 0.05434006
v -0.00269522 -0.04458342 0.05407708
v -0.00269522 -0.04533970 0.05313672
v -0.00269522 -0.04511957 0.05367065
v -0.00377365 -0.04452996 0.05406911
v -0.00484881 -0.04448122 0.05405317
v -0.00592724 -0.04441518 0.05402129
v -0.00269522 -0.04533970 0.05244340
v -0.00162006 -0.04480983 -0.02705703
v -0.03292391 -0.03041854 -0.02705703
v -0.02930628 -0.03465433 0.05240356
v -0.03255790 -0.03082105 -0.02705703
v -0.03224091 -0.03116696 -0.02635574
v -0.03223764 -0.03116696 -0.02705703
v -0.03189123 -0.03150658 -0.02705703
v -0.03114941 -0.03223141 -0.02705703
v -0.03061019 -0.03275027 -0.02705703
v -0.02816575 -0.03567003 0.05304906
v -0.02851870 -0.03522193 0.05335188
v -0.02794680 -0.03548922 0.05376628
v -0.02909386 -0.03447194 0.05383004
v -0.02950562 -0.03384774 0.05396552
v -0.01990107 -0.03927218 0.05430819
v -0.01775074 -0.04035078 0.05430022
v -0.01453180 -0.04142781 0.05433210
v -0.02528341 -0.03605053 0.05430819
v -0.02850889 -0.03389805 0.05422849
v -0.02205139 -0.03819987 0.05429225
v -0.01130958 -0.04250326 0.05431615
v -0.00592724 -0.04357557 0.05431615
v -0.00377365 -0.04529882 0.05303312
v -0.00699913 -0.04434129 0.05398145
v -0.00807756 -0.04426267 0.05392567
v -0.00377365 -0.04506926 0.05356705
v -0.00699913 -0.04357557 0.05427631
v -0.00807756 -0.04357557 0.05422052
v -0.00377365 -0.04529882 0.05251512
v -0.00269522 -0.04475480 -0.02705703
v -0.00484881 -0.04525008 0.05260279
v -0.02816575 -0.03567003 0.05249121
v -0.03004484 -0.03328800 -0.02705703
v -0.02697622 -0.03664801 0.05286577
v -0.02673765 -0.03646405 0.05358299
v -0.02479321 -0.03768887 0.05382207
v -0.02601870 -0.03673291 0.05390176
v -0.02722785 -0.03574550 0.05394160
v -0.02636837 -0.03690744 0.05324032
v -0.02850889 -0.03471565 0.05394957
v -0.02103178 -0.03935080 0.05408505
v -0.01990107 -0.04015267 0.05401333
v -0.01560042 -0.04142781 0.05423647
v -0.01775074 -0.04118567 0.05400536
v -0.01238148 -0.04250326 0.05423647
v -0.02636837 -0.03608355 0.05406114
v -0.02420498 -0.03712913 0.05422052
v -0.02752523 -0.03506784 0.05410099
v -0.02313635 -0.03823918 0.05406114
v -0.02205139 -0.03905206 0.05399739
v -0.00484881 -0.04525008 0.05289764
v -0.00484881 -0.04501738 0.05343955
v -0.00893704 -0.04418248 0.05386191
v -0.01023115 -0.04349381 0.05406911
v -0.01130958 -0.04335702 0.05402129
v -0.00377038 -0.04467304 -0.02705703
v -0.00553182 -0.04521077 0.05267451
v -0.02697622 -0.03664801 0.05262669
v -0.02969843 -0.03358516 -0.02705703
v -0.02887164 -0.03428798 -0.02705703
v -0.02852523 -0.03458043 -0.02705703
v -0.02833242 -0.03474238 -0.02705703
v -0.02810040 -0.03493420 -0.02705703
v -0.02377034 -0.03880049 0.05288170
v -0.02554811 -0.03747347 0.05325626
v -0.02278668 -0.03885238 0.05389379
v -0.02420498 -0.03786497 0.05393364
v -0.02520498 -0.03710555 0.05398942
v -0.02500890 -0.03783038 0.05325626
v -0.02350237 -0.03862439 0.05359893
v -0.02071152 -0.03995456 0.05390973
v -0.01856120 -0.04100958 0.05390176
v -0.01667558 -0.04148598 0.05405317
v -0.01453180 -0.04233817 0.05403724
v -0.01631284 -0.04202528 0.05385394
v -0.01560042 -0.04215107 0.05394957
v -0.00553182 -0.04521077 0.05278608
v -0.00699913 -0.04479096 0.05325626
v -0.00590437 -0.04498278 0.05319250
v -0.00965272 -0.04410387 0.05378222
v -0.00807756 -0.04462587 0.05325626
v -0.01238148 -0.04321709 0.05394160
v -0.00484554 -0.04457556 -0.02705703
v -0.01098605 -0.04417148 0.05261075
v -0.00831939 -0.04406142 -0.02705703
v -0.00797299 -0.04412588 -0.02705703
v -0.00778018 -0.04416047 -0.02705703
v -0.00750240 -0.04420607 -0.02705703
v -0.00699913 -0.04428468 -0.02705703
v -0.00592397 -0.04443877 -0.02705703
v -0.02377034 -0.03880049 0.05261075
v -0.02767229 -0.03528010 -0.02705703
v -0.02713635 -0.03568733 -0.02705703
v -0.02687491 -0.03587915 -0.02705703
v -0.02586184 -0.03662128 -0.02705703
v -0.02565922 -0.03676279 -0.02705703
v -0.02528341 -0.03701907 -0.02705703
v -0.02501544 -0.03719989 -0.02705703
v -0.02172459 -0.03992626 0.05299327
v -0.02313635 -0.03901118 0.05324829
v -0.02142721 -0.03975960 0.05371050
v -0.01928342 -0.04084448 0.05372644
v -0.01702852 -0.04188378 0.05365472
v -0.01316906 -0.04311017 0.05386191
v -0.01388147 -0.04299697 0.05372644
v -0.01098605 -0.04417148 0.05288170
v -0.01023115 -0.04402997 0.05363878
v -0.01023115 -0.04425638 0.05309687
v -0.00924096 -0.04436487 0.05335985
v -0.01431611 -0.04314948 0.05252309
v -0.01345664 -0.04277055 -0.02705703
v -0.01272788 -0.04298596 -0.02705703
v -0.01218867 -0.04314319 -0.02705703
v -0.01187494 -0.04323124 -0.02705703
v -0.01130305 -0.04339004 -0.02705703
v -0.01022789 -0.04365262 -0.02705703
v -0.00984553 -0.04373752 -0.02705703
v -0.00915272 -0.04388846 -0.02705703
v -0.02172459 -0.03992626 0.05253903
v -0.02452851 -0.03752221 -0.02705703
v -0.02398929 -0.03786340 -0.02705703
v -0.02313635 -0.03840270 -0.02705703
v -0.02260041 -0.03874074 -0.02705703
v -0.01961349 -0.04100486 0.05300921
v -0.02103178 -0.04014638 0.05332001
v -0.02207100 -0.03958507 0.05332001
v -0.01994355 -0.04069826 0.05332798
v -0.01739454 -0.04204258 0.05293749
v -0.01667558 -0.04217937 0.05328016
v -0.01431611 -0.04314948 0.05300921
v -0.01349912 -0.04327998 0.05332798
v -0.01132919 -0.04391676 0.05324829
v -0.01739454 -0.04204258 0.05257888
v -0.01453180 -0.04241836 -0.02705703
v -0.01961349 -0.04100486 0.05252309
v -0.02052525 -0.03985708 -0.02705703
v -0.01886512 -0.04066367 -0.02705703
v -0.01833244 -0.04090738 -0.02705703
v -0.01775074 -0.04116995 -0.02705703
v -0.01667885 -0.04161963 -0.02705703
v -0.01642722 -0.04171868 -0.02705703
v -0.01595990 -0.04189635 -0.02705703
v -0.01542068 -0.04209446 -0.02705703
v -0.01990107 -0.04017154 -0.02705703
f 1 2 6
f 1 6 10
f 1 10 3
f 1 3 12
f 1 12 4
f 1 4 5
f 1 5 7
f 1 7 2
f 2 7 8
f 2 8 9
f 2 9 6
f 3 10 22
f 3 22 11
f 3 11 12
f 4 12 24
f 4 24 13
f 4 13 14
f 4 14 5
f 5 14 15
f 5 15 16
f 5 16 17
f 5 17 7
f 6 9 10
f 7 17 18
f 7 18 19
f 7 19 8
f 8 19 20
f 8 20 21
f 8 21 9
f 9 21 40
f 9 40 22
f 9 22 10
f 11 22 40
f 11 40 62
f 11 62 91
f 11 91 117
f 11 117 144
f 11 144 151
f 11 151 150
f 11 150 149
f 11 149 148
f 11 148 147
f 11 147 146
f 11 146 179
f 11 179 178
f 11 178 177
f 11 177 176
f 11 176 175
f 11 175 174
f 11 174 173
f 11 173 172
f 11 172 195
f 11 195 204
f 11 204 203
f 11 203 202
f 11 202 201
f 11 201 200
f 11 200 199
f 11 199 198
f 11 198 205
f 11 205 197
f 11 197 184
f 11 184 183
f 11 183 182
f 11 182 181
f 11 181 159
f 11 159 158
f 11 158 157
f 11 157 156
f 11 156 155
f 11 155 154
f 11 154 153
f 11 153 124
f 11 124 123
f 11 123 122
f 11 122 121
f 11 121 120
f 11 120 94
f 11 94 70
f 11 70 69
f 11 69 68
f 11 68 67
f 11 67 65
f 11 65 63
f 11 63 41
f 11 41 23
f 11 23 24
f 11 24 12
f 13 24 25
f 13 25 26
f 13 26 27
f 13 27 15
f 13 15 14
f 15 27 28
f 15 28 29
f 15 29 16
f 16 29 30
f 16 30 17
f 17 30 31
f 17 31 32
f 17 32 33
f 17 33 18
f 18 33 34
f 18 34 19
f 19 35 20
f 19 34 36
f 19 36 35
f 20 37 39
f 20 39 21
f 20 35 38
f 20 38 37
f 21 39 40
f 23 41 24
f 24 41 25
f 25 42 26
f 25 41 43
f 25 43 42
f 26 44 30
f 26 30 29
f 26 29 28
f 26 28 27
f 26 42 43
f 26 43 45
f 26 45 46
f 26 46 47
f 26 47 44
f 30 44 31
f 31 44 32
f 32 48 33
f 32 44 49
f 32 49 50
f 32 50 51
f 32 51 48
f 33 52 36
f 33 36 34
f 33 48 53
f 33 53 52
f 35 36 38
f 36 52 54
f 36 54 55
f 36 55 38
f 37 38 56
f 37 56 61
f 37 61 39
f 38 57 56
f 38 55 58
f 38 58 59
f 38 59 60
f 38 60 57
f 39 61 62
f 39 62 40
f 41 63 43
f 43 64 45
f 43 63 65
f 43 65 66
f 43 66 67
f 43 67 68
f 43 68 69
f 43 69 70
f 43 70 64
f 44 47 49
f 45 64 71
f 45 71 72
f 45 72 73
f 45 73 74
f 45 74 46
f 46 74 75
f 46 75 47
f 47 75 49
f 48 51 76
f 48 76 77
f 48 77 78
f 48 78 53
f 49 79 50
f 49 75 80
f 49 80 79
f 50 79 51
f 51 79 81
f 51 81 76
f 52 53 54
f 53 78 82
f 53 82 83
f 53 83 54
f 54 83 55
f 55 83 58
f 56 57 84
f 56 84 90
f 56 90 61
f 57 60 85
f 57 85 86
f 57 86 87
f 57 87 84
f 58 83 59
f 59 83 88
f 59 88 89
f 59 89 60
f 60 89 85
f 61 90 62
f 62 90 92
f 62 92 91
f 64 93 71
f 64 70 94
f 64 94 93
f 65 67 66
f 71 93 119
f 71 119 95
f 71 95 73
f 71 73 72
f 73 96 97
f 73 97 98
f 73 98 99
f 73 99 74
f 73 95 100
f 73 100 96
f 74 99 101
f 74 101 75
f 75 101 80
f 76 81 102
f 76 102 103
f 76 103 77
f 77 104 78
f 77 103 105
f 77 105 104
f 78 104 106
f 78 106 82
f 79 80 107
f 79 107 108
f 79 108 81
f 80 101 109
f 80 109 107
f 81 108 110
f 81 110 111
f 81 111 102
f 82 106 89
f 82 89 88
f 82 88 83
f 84 112 92
f 84 92 90
f 84 87 113
f 84 113 112
f 85 89 86
f 86 114 113
f 86 113 87
f 86 89 115
f 86 115 116
f 86 116 114
f 89 106 115
f 91 92 118
f 91 118 117
f 92 112 138
f 92 138 118
f 93 94 120
f 93 120 121
f 93 121 122
f 93 122 123
f 93 123 124
f 93 124 119
f 95 125 126
f 95 126 100
f 95 119 152
f 95 152 125
f 96 100 126
f 96 126 97
f 97 127 128
f 97 128 129
f 97 129 98
f 97 126 130
f 97 130 131
f 97 131 127
f 98 129 107
f 98 107 99
f 99 107 109
f 99 109 101
f 102 111 103
f 103 111 132
f 103 132 133
f 103 133 105
f 104 105 134
f 104 134 135
f 104 135 106
f 105 133 136
f 105 136 137
f 105 137 134
f 106 135 116
f 106 116 115
f 107 129 108
f 108 129 110
f 110 129 127
f 110 127 111
f 111 127 132
f 112 113 138
f 113 114 139
f 113 139 140
f 113 140 138
f 114 141 142
f 114 142 139
f 114 116 143
f 114 143 141
f 116 135 143
f 117 118 144
f 118 138 167
f 118 167 145
f 118 145 146
f 118 146 147
f 118 147 148
f 118 148 149
f 118 149 150
f 118 150 151
f 118 151 144
f 119 124 153
f 119 153 154
f 119 154 155
f 119 155 156
f 119 156 157
f 119 157 158
f 119 158 159
f 119 159 152
f 125 152 180
f 125 180 160
f 125 160 161
f 125 161 131
f 125 131 130
f 125 130 126
f 127 131 162
f 127 162 132
f 127 129 128
f 131 161 162
f 132 162 163
f 132 163 133
f 133 163 164
f 133 164 136
f 134 137 135
f 135 137 165
f 135 165 143
f 136 165 137
f 136 164 166
f 136 166 165
f 138 140 139
f 138 139 142
f 138 142 167
f 141 143 165
f 141 165 166
f 141 166 168
f 141 168 169
f 141 169 170
f 141 170 142
f 142 170 169
f 142 169 167
f 145 167 191
f 145 191 171
f 145 171 172
f 145 172 173
f 145 173 174
f 145 174 175
f 145 175 176
f 145 176 177
f 145 177 178
f 145 178 179
f 145 179 146
f 152 159 181
f 152 181 182
f 152 182 183
f 152 183 184
f 152 184 180
f 160 180 196
f 160 196 185
f 160 185 186
f 160 186 162
f 160 162 187
f 160 187 161
f 161 187 162
f 162 186 188
f 162 188 163
f 163 188 185
f 163 185 189
f 163 189 164
f 164 190 166
f 164 189 190
f 166 190 191
f 166 191 192
f 166 192 193
f 166 193 168
f 167 169 168
f 167 168 193
f 167 193 192
f 167 192 191
f 171 191 189
f 171 189 194
f 171 194 195
f 171 195 172
f 180 184 197
f 180 197 196
f 185 196 194
f 185 194 189
f 185 188 186
f 189 191 190
f 194 196 198
f 194 198 199
f 194 199 200
f 194 200 201
f 194 201 202
f 194 202 203
f 194 203 204
f 194 204 195
f 196 197 205
f 196 205 198

