# https://github.com/mikedh/trimesh
v 0.03350932 0.02985024 0.01207277
v 0.03330262 0.03007105 0.00698620
v 0.03330590 0.03007399 0.01021510
v 0.03330590 0.03007693 0.01207277
v 0.03026443 0.02985024 0.01207277
v 0.03349620 0.02985024 0.00591373
v 0.03336168 0.02996800 -0.00931534
v 0.03328950 0.03005633 -0.00591791
v 0.03276782 0.03066871 0.01021510
v 0.03227895 0.03120601 0.01207277
v 0.03026115 0.02985024 -0.00872165
v -0.00000924 0.04252031 0.01207277
v -0.00000268 0.04245996 -0.02705706
v 0.03347323 0.02985024 -0.00484161
v 0.03346339 0.02985024 -0.00931534
v 0.03323044 0.03008282 -0.01999025
v 0.03224286 0.03116921 -0.01999025
v 0.03275470 0.03065251 -0.00268901
v 0.03225927 0.03118540 -0.00591791
v 0.03173103 0.03172418 0.00268483
v 0.03118967 0.03227179 0.01129140
v 0.03134387 0.03212164 0.01207277
v 0.03026115 0.02985024 -0.00931534
v -0.00000924 0.04488887 0.01207277
v -0.00000924 0.04251884 0.00967121
v -0.00000268 0.04482557 -0.02705706
v 0.02999539 0.02998714 -0.02705706
v -0.00000924 0.04251737 0.00053606
v -0.00000924 0.04251589 -0.00861441
v -0.00000924 0.04251589 -0.00931534
v 0.03324685 0.03006221 -0.01999025
v 0.02999539 0.03332137 -0.02705706
v 0.03115029 0.03223351 -0.01999025
v 0.03171134 0.03170357 -0.01452065
v 0.03171790 0.03171240 -0.00806285
v 0.03116998 0.03224970 -0.00591791
v 0.03061877 0.03275610 -0.01774955
v 0.03008725 0.03332579 0.00914263
v 0.03009053 0.03332873 0.01207277
v 0.03103874 0.03241752 0.01207277
v 0.03118967 0.03227179 0.01207277
v 0.00053869 0.04488445 0.01207277
v 0.00053869 0.04488003 0.00914263
v 0.00054197 0.04483145 -0.02205858
v -0.00000596 0.04485354 -0.01021928
v -0.00000924 0.04485354 -0.00931534
v -0.00000268 0.04482704 -0.02636378
v 0.00054197 0.04482262 -0.02705706
v 0.02950324 0.03374238 -0.02705706
v 0.02950652 0.03374532 -0.02528748
v 0.03006429 0.03330518 -0.00931534
v 0.03005116 0.03329193 -0.01882585
v 0.03009382 0.03324924 -0.01999025
v 0.03061549 0.03275315 -0.01999025
v 0.02837130 0.03477283 0.00483743
v 0.02888641 0.03429882 -0.01344435
v 0.02837786 0.03477724 0.01021510
v 0.02837786 0.03478019 0.01207277
v 0.00161485 0.04486679 0.01207277
v 0.00161813 0.04480790 -0.02636378
v 0.00054197 0.04482409 -0.02636378
v 0.00161813 0.04480643 -0.02705706
v 0.02833193 0.03473602 -0.02705706
v 0.02767901 0.03528216 -0.01999025
v 0.02770854 0.03530424 0.00160853
v 0.02771838 0.03531160 0.00914263
v 0.02772166 0.03531454 0.01207277
v 0.00269101 0.04481085 0.01207277
v 0.00269101 0.04480496 0.00806250
v 0.00269429 0.04475491 -0.02421118
v 0.00269429 0.04475049 -0.02705706
v 0.02766589 0.03527480 -0.02705706
v 0.02714093 0.03569140 -0.01882585
v 0.02715077 0.03569876 -0.01237188
v 0.02717374 0.03571348 0.00483743
v 0.02718358 0.03571936 0.01207277
v 0.00376718 0.04472988 0.01207277
v 0.00376718 0.04472547 0.00914263
v 0.00376718 0.04467542 -0.02313488
v 0.00376718 0.04466806 -0.02705706
v 0.00376718 0.04466953 -0.02636378
v 0.02712780 0.03568109 -0.02705706
v 0.02640927 0.03622870 -0.01990215
v 0.02633709 0.03630378 -0.00931534
v 0.02644536 0.03625520 0.00698620
v 0.02591384 0.03665560 0.01207277
v 0.00484334 0.04462831 0.01207277
v 0.00484334 0.04462831 0.01129140
v 0.00484662 0.04459445 -0.01237188
v 0.00390170 0.04467689 -0.01465471
v 0.00484662 0.04457237 -0.02636378
v 0.00484662 0.04457090 -0.02705706
v 0.02586134 0.03661438 -0.02705706
v 0.02589415 0.03664235 -0.00268901
v 0.02528717 0.03708544 0.01021510
v 0.02528717 0.03708839 0.01207277
v 0.00514519 0.04459445 0.01207277
v 0.00592279 0.04444872 -0.01882585
v 0.00592279 0.04443988 -0.02421118
v 0.00592279 0.04443547 -0.02636378
v 0.00592279 0.04443400 -0.02705706
v 0.02528389 0.03701037 -0.02705706
v 0.02528389 0.03701478 -0.02528748
v 0.02532982 0.03699565 -0.01999025
v 0.02586134 0.03661585 -0.02636378
v 0.02458176 0.03755503 0.01207277
v 0.02501485 0.03719143 -0.02705706
v 0.02452270 0.03751970 -0.02705706
v 0.00591950 0.04449583 0.01207277
v 0.00699567 0.04430298 -0.01129558
v 0.00661507 0.04433390 -0.02705706
v 0.02308563 0.03845152 -0.01465471
v 0.02318406 0.03842649 0.00698620
v 0.02265254 0.03876801 0.01129140
v 0.02265254 0.03876801 0.01207277
v 0.02449317 0.03755209 -0.01999025
v 0.02314469 0.03840441 -0.01999025
v 0.02398462 0.03785975 -0.02705706
v 0.00699567 0.04433684 0.01207277
v 0.00782248 0.04417197 -0.01129558
v 0.00776342 0.04416019 -0.02528748
v 0.00748453 0.04420141 -0.02705706
v 0.00705801 0.04427943 -0.01999025
v 0.00699567 0.04428237 -0.02421118
v 0.00699567 0.04427649 -0.02705706
v 0.00699567 0.04427796 -0.02636378
v 0.02261645 0.03875035 -0.01237188
v 0.02264926 0.03876654 0.00914263
v 0.02205868 0.03909481 0.01129140
v 0.02222601 0.03900207 0.01207277
v 0.02259348 0.03873710 -0.02664339
v 0.02260004 0.03874005 -0.02313488
v 0.02287236 0.03856045 -0.02705706
v 0.00792419 0.04418816 0.01207277
v 0.00792091 0.04418816 0.01129140
v 0.00831134 0.04411750 0.01207277
v 0.00846227 0.04408953 0.01207277
v 0.00832447 0.04406451 -0.01999025
v 0.00831462 0.04406304 -0.02205858
v 0.00830150 0.04406009 -0.02528748
v 0.00775358 0.04415872 -0.02705706
v 0.02231460 0.03888725 -0.02705706
v 0.02108751 0.03958060 -0.00931534
v 0.02055927 0.03987501 -0.00376914
v 0.02112360 0.03959826 0.01207277
v 0.02259020 0.03873563 -0.02705706
v 0.01022416 0.04370974 0.01207277
v 0.00915128 0.04391141 -0.00931534
v 0.00915128 0.04390994 -0.01021928
v 0.00915128 0.04390258 -0.01465471
v 0.00839009 0.04405126 -0.01999025
v 0.00914799 0.04388197 -0.02636378
v 0.00829166 0.04405862 -0.02705706
v 0.00914799 0.04388786 -0.02313488
v 0.02051662 0.03985440 -0.02705706
v 0.02106126 0.03956735 -0.02421118
v 0.02053302 0.03986176 -0.01882585
v 0.01990635 0.04022830 0.01129140
v 0.02057567 0.03988090 0.00591373
v 0.01990307 0.04016648 -0.02528748
v 0.02057895 0.03988531 0.01207277
v 0.01130032 0.04344477 0.01207277
v 0.01130360 0.04340502 -0.01465471
v 0.01022416 0.04370532 0.00914263
v 0.01023072 0.04365969 -0.01882585
v 0.01022744 0.04364791 -0.02636378
v 0.00914799 0.04388050 -0.02705706
v 0.01990307 0.04016206 -0.02705706
v 0.01892206 0.04068759 0.00376496
v 0.01892862 0.04069495 0.01207277
v 0.01990635 0.04022830 0.01207277
v 0.01953560 0.04034018 -0.02705706
v 0.01228790 0.04316802 0.01207277
v 0.01219931 0.04314741 -0.01882585
v 0.01219275 0.04314594 -0.02098228
v 0.01130360 0.04340355 -0.01560078
v 0.01130360 0.04339324 -0.02205858
v 0.01130360 0.04338588 -0.02636378
v 0.01022744 0.04364644 -0.02705706
v 0.01901064 0.04061251 -0.01465471
v 0.01886300 0.04066109 -0.02636378
v 0.01883347 0.04068612 -0.01999025
v 0.01779996 0.04115423 -0.01999025
v 0.01774746 0.04122931 0.01207277
v 0.01885972 0.04066109 -0.02705706
v 0.01267506 0.04305909 0.01207277
v 0.01217635 0.04314152 -0.02636378
v 0.01274724 0.04299284 -0.01560078
v 0.01130360 0.04338441 -0.02705706
v 0.01775074 0.04116159 -0.02705706
v 0.01775074 0.04116307 -0.02636378
v 0.01668114 0.04161793 -0.02421118
v 0.01669098 0.04166504 0.00376496
v 0.01669098 0.04167387 0.00914263
v 0.01669098 0.04167829 0.01207277
v 0.01345265 0.04282503 0.01207277
v 0.01345593 0.04278528 -0.01452065
v 0.01345593 0.04277056 -0.02313488
v 0.01345593 0.04276467 -0.02636378
v 0.01236664 0.04308411 -0.02705706
v 0.01217306 0.04314005 -0.02705706
v 0.01668114 0.04161205 -0.02705706
v 0.01668114 0.04161352 -0.02636378
v 0.01641866 0.04171215 -0.02705706
v 0.01594620 0.04189321 -0.02636378
v 0.01606432 0.04187113 -0.01465471
v 0.01603807 0.04192118 0.01021510
v 0.01603807 0.04192265 0.01207277
v 0.01375778 0.04272934 0.01207277
v 0.01453209 0.04243788 -0.01129558
v 0.01414822 0.04253650 -0.02705706
v 0.01345593 0.04276320 -0.02705706
v 0.01594292 0.04189174 -0.02705706
v 0.01540484 0.04209194 -0.02705706
v 0.01541140 0.04209341 -0.02528748
v 0.01542780 0.04209783 -0.01990215
v 0.01544749 0.04210372 -0.01237188
v 0.01480114 0.04237752 0.01207277
v 0.01452881 0.04247320 0.01207277
v 0.01453209 0.04243199 -0.01465471
v 0.01452881 0.04241138 -0.02636378
v 0.01452881 0.04240990 -0.02705706
v 0.01509314 0.04220529 -0.02705706
f 1 2 3
f 1 3 4
f 1 4 10
f 1 10 22
f 1 22 41
f 1 41 40
f 1 40 39
f 1 39 58
f 1 58 67
f 1 67 76
f 1 76 86
f 1 86 96
f 1 96 106
f 1 106 115
f 1 115 130
f 1 130 145
f 1 145 161
f 1 161 171
f 1 171 170
f 1 170 184
f 1 184 195
f 1 195 208
f 1 208 218
f 1 218 219
f 1 219 209
f 1 209 196
f 1 196 186
f 1 186 173
f 1 173 162
f 1 162 147
f 1 147 137
f 1 137 136
f 1 136 134
f 1 134 119
f 1 119 109
f 1 109 97
f 1 97 87
f 1 87 77
f 1 77 68
f 1 68 59
f 1 59 42
f 1 42 24
f 1 24 12
f 1 12 5
f 1 5 11
f 1 11 23
f 1 23 15
f 1 15 14
f 1 14 6
f 1 6 7
f 1 7 2
f 2 8 9
f 2 9 3
f 2 7 8
f 3 9 4
f 4 9 10
f 5 12 13
f 5 13 11
f 6 14 7
f 7 15 16
f 7 16 17
f 7 17 8
f 7 14 15
f 8 18 9
f 8 17 18
f 9 18 19
f 9 19 10
f 10 19 20
f 10 20 21
f 10 21 22
f 11 13 23
f 12 24 46
f 12 46 30
f 12 30 29
f 12 29 28
f 12 28 25
f 12 25 13
f 13 26 48
f 13 48 62
f 13 62 71
f 13 71 80
f 13 80 92
f 13 92 101
f 13 101 111
f 13 111 125
f 13 125 122
f 13 122 141
f 13 141 153
f 13 153 167
f 13 167 179
f 13 179 189
f 13 189 201
f 13 201 200
f 13 200 212
f 13 212 211
f 13 211 222
f 13 222 223
f 13 223 214
f 13 214 213
f 13 213 204
f 13 204 202
f 13 202 190
f 13 190 185
f 13 185 172
f 13 172 168
f 13 168 155
f 13 155 142
f 13 142 146
f 13 146 133
f 13 133 118
f 13 118 108
f 13 108 107
f 13 107 102
f 13 102 93
f 13 93 82
f 13 82 72
f 13 72 63
f 13 63 49
f 13 49 32
f 13 32 27
f 13 27 23
f 13 25 28
f 13 28 29
f 13 29 30
f 13 30 46
f 13 46 26
f 15 23 27
f 15 27 31
f 15 31 16
f 16 31 32
f 16 32 17
f 17 32 33
f 17 33 34
f 17 34 35
f 17 35 19
f 17 19 18
f 19 35 20
f 20 35 21
f 21 35 34
f 21 34 36
f 21 36 37
f 21 37 38
f 21 38 39
f 21 39 40
f 21 40 41
f 21 41 22
f 24 42 43
f 24 43 44
f 24 44 45
f 24 45 46
f 26 46 47
f 26 47 61
f 26 61 48
f 27 32 31
f 32 49 50
f 32 50 51
f 32 51 52
f 32 52 53
f 32 53 54
f 32 54 33
f 33 54 34
f 34 54 37
f 34 37 36
f 37 54 53
f 37 53 51
f 37 51 38
f 38 55 39
f 38 51 50
f 38 50 56
f 38 56 55
f 39 55 57
f 39 57 58
f 42 59 43
f 43 59 60
f 43 60 44
f 44 60 61
f 44 61 47
f 44 47 45
f 45 47 46
f 48 61 60
f 48 60 62
f 49 63 50
f 50 63 56
f 51 53 52
f 55 64 65
f 55 65 66
f 55 66 67
f 55 67 57
f 55 56 63
f 55 63 64
f 57 67 58
f 59 68 69
f 59 69 60
f 60 70 71
f 60 71 62
f 60 69 70
f 63 72 64
f 64 73 74
f 64 74 65
f 64 72 73
f 65 74 66
f 66 74 75
f 66 75 67
f 67 75 76
f 68 77 69
f 69 77 78
f 69 78 70
f 70 79 71
f 70 78 79
f 71 79 81
f 71 81 80
f 72 82 73
f 73 83 74
f 73 82 83
f 74 83 84
f 74 84 85
f 74 85 75
f 75 85 76
f 76 85 86
f 77 87 88
f 77 88 89
f 77 89 78
f 78 89 90
f 78 90 79
f 79 91 81
f 79 90 91
f 80 81 91
f 80 91 92
f 82 93 83
f 83 94 84
f 83 93 94
f 84 94 85
f 85 94 86
f 86 94 95
f 86 95 96
f 87 97 88
f 88 97 89
f 89 97 98
f 89 98 91
f 89 91 90
f 91 99 100
f 91 100 101
f 91 101 92
f 91 98 99
f 93 102 103
f 93 103 104
f 93 104 105
f 93 105 94
f 94 104 95
f 94 105 104
f 95 106 96
f 95 104 107
f 95 107 108
f 95 108 106
f 97 109 98
f 98 109 110
f 98 110 111
f 98 111 99
f 99 111 100
f 100 111 101
f 102 107 103
f 103 107 104
f 106 112 113
f 106 113 114
f 106 114 115
f 106 108 116
f 106 116 117
f 106 117 112
f 108 118 117
f 108 117 116
f 109 119 110
f 110 120 121
f 110 121 122
f 110 122 123
f 110 123 124
f 110 124 111
f 110 119 120
f 111 124 126
f 111 126 125
f 112 127 128
f 112 128 113
f 112 117 127
f 113 128 114
f 114 128 129
f 114 129 115
f 115 129 130
f 117 118 131
f 117 131 132
f 117 132 127
f 118 133 131
f 119 134 135
f 119 135 120
f 120 135 136
f 120 136 137
f 120 137 138
f 120 138 139
f 120 139 121
f 121 139 140
f 121 140 153
f 121 153 141
f 121 141 122
f 122 125 126
f 122 126 124
f 122 124 123
f 127 129 128
f 127 132 129
f 129 132 142
f 129 142 143
f 129 143 144
f 129 144 145
f 129 145 130
f 131 133 146
f 131 146 142
f 131 142 132
f 134 136 135
f 137 147 148
f 137 148 149
f 137 149 150
f 137 150 151
f 137 151 138
f 138 151 139
f 139 151 140
f 140 152 153
f 140 151 150
f 140 150 154
f 140 154 152
f 142 155 156
f 142 156 157
f 142 157 143
f 143 157 144
f 144 158 159
f 144 159 145
f 144 157 160
f 144 160 158
f 145 159 161
f 147 162 163
f 147 163 164
f 147 164 148
f 148 165 149
f 148 164 165
f 149 165 166
f 149 166 150
f 150 166 154
f 152 154 166
f 152 166 179
f 152 179 167
f 152 167 153
f 155 168 160
f 155 160 157
f 155 157 156
f 158 169 170
f 158 170 171
f 158 171 161
f 158 161 159
f 158 160 172
f 158 172 169
f 160 168 172
f 162 173 163
f 163 174 175
f 163 175 176
f 163 176 164
f 163 173 174
f 164 176 165
f 165 176 177
f 165 177 166
f 166 177 178
f 166 178 189
f 166 189 179
f 169 180 181
f 169 181 182
f 169 182 183
f 169 183 184
f 169 184 170
f 169 172 180
f 172 185 181
f 172 181 180
f 173 186 174
f 174 186 175
f 175 187 177
f 175 177 176
f 175 186 188
f 175 188 187
f 177 187 178
f 178 187 189
f 181 185 190
f 181 190 191
f 181 191 183
f 181 183 182
f 183 191 192
f 183 192 193
f 183 193 184
f 184 193 194
f 184 194 195
f 186 196 197
f 186 197 188
f 187 198 199
f 187 199 200
f 187 200 201
f 187 201 189
f 187 188 198
f 188 197 198
f 190 202 203
f 190 203 191
f 191 203 192
f 192 203 204
f 192 204 205
f 192 205 206
f 192 206 193
f 193 206 194
f 194 206 207
f 194 207 195
f 195 207 208
f 196 209 197
f 197 209 210
f 197 210 198
f 198 211 199
f 198 210 211
f 199 211 212
f 199 212 200
f 202 204 203
f 204 213 205
f 205 213 214
f 205 214 215
f 205 215 216
f 205 216 206
f 206 216 217
f 206 217 207
f 207 218 208
f 207 217 218
f 209 219 210
f 210 217 216
f 210 216 220
f 210 220 211
f 210 219 218
f 210 218 217
f 211 221 222
f 211 220 221
f 214 223 215
f 215 223 221
f 215 221 216
f 216 221 220
f 221 223 222

