# https://github.com/mikedh/trimesh
v -0.00054042 0.04484088 -0.01999045
v -0.00000971 0.04483842 -0.01999045
v -0.00000971 0.04483432 -0.02259074
v -0.00025721 0.04482859 -0.02693361
v -0.00054042 0.04483760 -0.02205994
v -0.00161459 0.04480729 -0.02636340
v -0.00161459 0.04481712 -0.01999045
v -0.00000971 0.04251609 -0.01999045
v -0.00000971 0.04482695 -0.02693361
v -0.00054042 0.04482941 -0.02693361
v -0.00104561 0.04481876 -0.02693361
v -0.00161459 0.04480565 -0.02693361
v -0.00212234 0.04477780 -0.02693361
v -0.00269132 0.04475650 -0.01999045
v -0.00000971 0.04247104 -0.02693361
v -0.02184527 0.03647311 -0.01999045
v -0.00269132 0.04474504 -0.02693361
v -0.00269132 0.04475159 -0.02313581
v -0.00376804 0.04468524 -0.02098408
v -0.00368384 0.04469179 -0.01999045
v -0.02176872 0.03647311 -0.02693361
v -0.02607307 0.03647311 -0.01999045
v -0.00319906 0.04471227 -0.02693361
v -0.00376804 0.04467541 -0.02693361
v -0.00484477 0.04458120 -0.02205994
v -0.00484477 0.04458448 -0.01999045
v -0.00376804 0.04468606 -0.01999045
v -0.02605266 0.03647311 -0.02693361
v -0.02586895 0.03661892 -0.01999045
v -0.02586385 0.03661483 -0.02421167
v -0.02606031 0.03647311 -0.02460518
v -0.00484477 0.04457301 -0.02693361
v -0.00591894 0.04443375 -0.02693361
v -0.00583729 0.04445587 -0.01999045
v -0.02605521 0.03647311 -0.02636340
v -0.02585874 0.03661237 -0.02693361
v -0.02528721 0.03702768 -0.01999045
v -0.02528721 0.03702441 -0.02205994
v -0.02555767 0.03682535 -0.02693361
v -0.02586130 0.03661237 -0.02636340
v -0.00699566 0.04429859 -0.02098408
v -0.00699566 0.04430023 -0.01999045
v -0.00699566 0.04428876 -0.02693361
v -0.02454473 0.03753393 -0.01999045
v -0.02454218 0.03753229 -0.02205994
v -0.02488918 0.03728654 -0.02693361
v -0.02528721 0.03701458 -0.02693361
v -0.00777131 0.04416753 -0.02693361
v -0.00778662 0.04417080 -0.02313581
v -0.00773559 0.04418309 -0.01999045
v -0.02394003 0.03791074 -0.01999045
v -0.02400637 0.03786815 -0.02098408
v -0.02453453 0.03752819 -0.02693361
v -0.00830967 0.04405612 -0.02693361
v -0.00914911 0.04388328 -0.02636340
v -0.00831988 0.04405857 -0.02421167
v -0.00833264 0.04406103 -0.02098408
v -0.00779428 0.04417244 -0.02098408
v -0.00779683 0.04417326 -0.01999045
v -0.02309294 0.03843255 -0.01999045
v -0.02259285 0.03873646 -0.02205994
v -0.02313376 0.03839487 -0.02636340
v -0.02400127 0.03786487 -0.02421167
v -0.02428193 0.03768547 -0.02693361
v -0.00914911 0.04388164 -0.02693361
v -0.00965430 0.04377433 -0.02693361
v -0.01022328 0.04365309 -0.02693361
v -0.01022328 0.04366128 -0.02205994
v -0.01022328 0.04366456 -0.01999045
v -0.00914911 0.04389310 -0.01999045
v -0.00833519 0.04406185 -0.01999045
v -0.02259540 0.03873892 -0.01999045
v -0.02258775 0.03873319 -0.02528754
v -0.02204683 0.03903300 -0.02693361
v -0.02399616 0.03786241 -0.02693361
v -0.02284290 0.03857263 -0.02693361
v -0.01073103 0.04352694 -0.02693361
v -0.01130001 0.04339178 -0.02313581
v -0.01121836 0.04341717 -0.01999045
v -0.02205704 0.03903873 -0.01999045
v -0.02205449 0.03903709 -0.02205994
v -0.02258520 0.03873236 -0.02636340
v -0.02258265 0.03873236 -0.02693361
v -0.02106452 0.03957529 -0.02205994
v -0.02105686 0.03957119 -0.02636340
v -0.02105431 0.03957037 -0.02693361
v -0.01130001 0.04338522 -0.02693361
v -0.01130001 0.04339669 -0.01999045
v -0.01219047 0.04314111 -0.02421167
v -0.01220323 0.04314439 -0.01999045
v -0.02198050 0.03908051 -0.01999045
v -0.02106707 0.03957693 -0.01999045
v -0.02052871 0.03986036 -0.01999045
v -0.02052105 0.03985544 -0.02528754
v -0.02080171 0.03970390 -0.02693361
v -0.01218282 0.04313947 -0.02636340
v -0.01246603 0.04305919 -0.02693361
v -0.01272118 0.04298875 -0.02636340
v -0.01273139 0.04299120 -0.02313581
v -0.01224405 0.04313292 -0.01999045
v -0.01990614 0.04018065 -0.01999045
v -0.01990614 0.04017573 -0.02313581
v -0.01990614 0.04017000 -0.02636340
v -0.02019446 0.04002009 -0.02693361
v -0.02051595 0.03985380 -0.02693361
v -0.01271863 0.04298793 -0.02693361
v -0.01345090 0.04276839 -0.02693361
v -0.01345090 0.04277167 -0.02528754
v -0.01339477 0.04279706 -0.01999045
v -0.01273904 0.04299366 -0.01999045
v -0.01982705 0.04021915 -0.01999045
v -0.01887535 0.04067133 -0.02313581
v -0.01935503 0.04043377 -0.02693361
v -0.01990614 0.04016836 -0.02693361
v -0.01452508 0.04241042 -0.02693361
v -0.01444343 0.04244974 -0.01999045
v -0.01345090 0.04277986 -0.01999045
v -0.01888045 0.04067379 -0.01999045
v -0.01829871 0.04093264 -0.01999045
v -0.01833954 0.04091135 -0.02205994
v -0.01832933 0.04090643 -0.02693361
v -0.01886769 0.04066723 -0.02693361
v -0.01494352 0.04226051 -0.02693361
v -0.01452508 0.04241697 -0.02313581
v -0.01452508 0.04242189 -0.01999045
v -0.01775525 0.04117020 -0.01999045
v -0.01775525 0.04116693 -0.02205994
v -0.01775525 0.04116119 -0.02528754
v -0.01775525 0.04115791 -0.02693361
v -0.01547167 0.04208275 -0.01999045
v -0.01595135 0.04189844 -0.02693361
v -0.01596666 0.04190499 -0.01999045
v -0.01667852 0.04162402 -0.01999045
v -0.01667852 0.04161910 -0.02313581
v -0.01667852 0.04161337 -0.02636340
v -0.01667852 0.04161173 -0.02693361
v -0.01629325 0.04176409 -0.02693361
f 1 2 3
f 1 3 4
f 1 4 5
f 1 5 6
f 1 6 7
f 1 7 14
f 1 14 20
f 1 20 27
f 1 27 26
f 1 26 34
f 1 34 42
f 1 42 50
f 1 50 59
f 1 59 71
f 1 71 70
f 1 70 69
f 1 69 79
f 1 79 88
f 1 88 90
f 1 90 100
f 1 100 110
f 1 110 109
f 1 109 117
f 1 117 116
f 1 116 125
f 1 125 130
f 1 130 132
f 1 132 133
f 1 133 126
f 1 126 119
f 1 119 118
f 1 118 111
f 1 111 101
f 1 101 93
f 1 93 92
f 1 92 91
f 1 91 80
f 1 80 72
f 1 72 60
f 1 60 51
f 1 51 44
f 1 44 37
f 1 37 29
f 1 29 22
f 1 22 16
f 1 16 8
f 1 8 2
f 2 8 15
f 2 15 9
f 2 9 3
f 3 9 4
f 4 9 15
f 4 15 21
f 4 21 28
f 4 28 36
f 4 36 39
f 4 39 47
f 4 47 46
f 4 46 53
f 4 53 64
f 4 64 75
f 4 75 76
f 4 76 83
f 4 83 74
f 4 74 86
f 4 86 95
f 4 95 105
f 4 105 104
f 4 104 114
f 4 114 113
f 4 113 122
f 4 122 121
f 4 121 129
f 4 129 136
f 4 136 137
f 4 137 131
f 4 131 123
f 4 123 115
f 4 115 107
f 4 107 106
f 4 106 97
f 4 97 87
f 4 87 77
f 4 77 67
f 4 67 66
f 4 66 65
f 4 65 54
f 4 54 48
f 4 48 43
f 4 43 33
f 4 33 32
f 4 32 24
f 4 24 23
f 4 23 17
f 4 17 13
f 4 13 12
f 4 12 11
f 4 11 10
f 4 10 5
f 5 10 11
f 5 11 6
f 6 12 13
f 6 13 14
f 6 14 7
f 6 11 12
f 8 16 15
f 13 17 18
f 13 18 14
f 14 18 19
f 14 19 20
f 15 16 21
f 16 22 31
f 16 31 35
f 16 35 28
f 16 28 21
f 17 23 18
f 18 23 24
f 18 24 19
f 19 24 25
f 19 25 26
f 19 26 27
f 19 27 20
f 22 29 30
f 22 30 31
f 24 32 25
f 25 32 33
f 25 33 34
f 25 34 26
f 28 35 40
f 28 40 36
f 29 37 38
f 29 38 39
f 29 39 30
f 30 39 40
f 30 40 31
f 31 40 35
f 33 41 42
f 33 42 34
f 33 43 41
f 36 40 39
f 37 44 38
f 38 44 45
f 38 45 46
f 38 46 47
f 38 47 39
f 41 43 48
f 41 48 42
f 42 48 49
f 42 49 50
f 44 51 52
f 44 52 45
f 45 52 53
f 45 53 46
f 48 54 49
f 49 54 55
f 49 55 56
f 49 56 57
f 49 57 58
f 49 58 50
f 50 58 59
f 51 60 52
f 52 60 61
f 52 61 62
f 52 62 63
f 52 63 64
f 52 64 53
f 54 65 55
f 55 65 66
f 55 66 67
f 55 67 68
f 55 68 69
f 55 69 70
f 55 70 57
f 55 57 56
f 57 70 71
f 57 71 59
f 57 59 58
f 60 72 61
f 61 73 62
f 61 72 74
f 61 74 73
f 62 75 63
f 62 73 76
f 62 76 75
f 63 75 64
f 67 77 68
f 68 77 78
f 68 78 79
f 68 79 69
f 72 80 81
f 72 81 74
f 73 74 82
f 73 82 76
f 74 83 82
f 74 81 84
f 74 84 85
f 74 85 86
f 76 82 83
f 77 87 78
f 78 88 79
f 78 87 89
f 78 89 90
f 78 90 88
f 80 91 81
f 81 91 84
f 84 91 92
f 84 92 93
f 84 93 94
f 84 94 85
f 85 95 86
f 85 94 95
f 87 96 89
f 87 97 96
f 89 96 97
f 89 97 98
f 89 98 99
f 89 99 90
f 90 99 100
f 93 101 102
f 93 102 94
f 94 102 103
f 94 103 104
f 94 104 105
f 94 105 95
f 97 106 98
f 98 106 107
f 98 107 108
f 98 108 99
f 99 108 109
f 99 109 110
f 99 110 100
f 101 111 102
f 102 111 112
f 102 112 103
f 103 112 113
f 103 113 114
f 103 114 104
f 107 115 108
f 108 116 117
f 108 117 109
f 108 115 116
f 111 118 112
f 112 118 119
f 112 119 120
f 112 120 121
f 112 121 122
f 112 122 113
f 115 123 124
f 115 124 116
f 116 124 125
f 119 126 127
f 119 127 120
f 120 127 128
f 120 128 121
f 121 128 129
f 123 130 124
f 123 131 132
f 123 132 130
f 124 130 125
f 126 133 134
f 126 134 127
f 127 134 135
f 127 135 128
f 128 135 129
f 129 135 136
f 131 137 132
f 132 137 134
f 132 134 133
f 134 137 135
f 135 137 136

