# https://github.com/mikedh/trimesh
v 0.00000627 0.04484365 -0.01465635
v 0.00000627 0.04251476 -0.01465635
v 0.00000627 0.04483735 -0.01937190
v -0.00000026 0.04537151 0.05238021
v -0.00000026 0.04537151 0.05320979
v -0.00000026 0.04516037 0.05374830
v -0.00000026 0.04462148 0.05408304
v -0.00000026 0.04357994 0.05435230
v 0.00000627 0.04251319 -0.01505658
v -0.00000026 0.04309147 0.05421403
v -0.00000026 0.04259670 0.05406849
v -0.00000026 0.04205939 0.05365370
v -0.00000026 0.04181200 0.05311519
v 0.00000627 0.04483577 -0.01999045
v -0.00054259 0.04537624 0.05238021
v -0.00054259 0.04537624 0.05321707
v -0.00054259 0.04516352 0.05375557
v -0.00054259 0.04462306 0.05408304
v -0.00377373 0.04357994 0.05435230
v -0.01022947 0.04250216 0.05435230
v -0.02743716 0.03389882 0.05433774
v -0.02984172 0.03149430 0.05432318
v -0.02984172 0.03036767 0.05406121
v 0.00000627 0.04251319 -0.01999045
v -0.02984172 0.03005410 0.05394478
v -0.02984172 0.02994696 0.05388656
v -0.02984172 0.02947582 0.05336989
v -0.02984172 0.02939231 0.05325345
v -0.02984172 0.02927886 0.05306425
v -0.00000026 0.04181200 0.05244570
v -0.00053933 0.04483893 -0.01999045
v -0.00161746 0.04536206 0.05240204
v -0.00161746 0.04536206 0.05318796
v -0.00161746 0.04514619 0.05372647
v -0.00377373 0.04453009 0.05406121
v -0.00161746 0.04460887 0.05407576
v -0.00484860 0.04357994 0.05433774
v -0.00592673 0.04357994 0.05430864
v -0.00700160 0.04357994 0.05427952
v -0.01130761 0.04250216 0.05431591
v -0.01453221 0.04142753 0.05432318
v -0.01667868 0.04034975 0.05434502
v -0.02635902 0.03497345 0.05433774
v -0.02984172 0.03257365 0.05427224
v -0.02984172 0.03174641 0.05431591
v -0.03337016 0.03006828 0.03329240
v -0.03005408 0.03007301 -0.01999045
v -0.03334729 0.03006828 0.02268968
v -0.03330156 0.03008719 0.01207968
v -0.00161746 0.04481687 -0.01999045
v -0.00269886 0.04533370 0.05245297
v -0.00269886 0.04533370 0.05312247
v -0.00269886 0.04510995 0.05366097
v -0.00592673 0.04440719 0.05401755
v -0.00484860 0.04447809 0.05404666
v -0.00807647 0.04357994 0.05422130
v -0.01237921 0.04250216 0.05423586
v -0.01560054 0.04142753 0.05423586
v -0.01774701 0.04034975 0.05429408
v -0.01990328 0.03927512 0.05430136
v -0.02313115 0.03712743 0.05433774
v -0.02528089 0.03604965 0.05430136
v -0.02958689 0.03282576 0.05426497
v -0.02984172 0.03281158 0.05419948
v -0.02984172 0.03352538 0.05396661
v -0.02984172 0.03366089 0.05391567
v -0.02984172 0.03412887 0.05329712
v -0.02984172 0.03414778 0.05326073
v -0.03005408 0.03228057 -0.01999045
v -0.03228223 0.03120909 0.01207968
v -0.03005408 0.03328587 -0.01998317
v -0.00261392 0.04476014 -0.01999045
v -0.00484860 0.04525491 0.05259852
v -0.00377373 0.04530061 0.05251119
v -0.00377373 0.04530061 0.05303514
v -0.00377373 0.04506740 0.05357365
v -0.00700160 0.04433470 0.05398117
v -0.00807647 0.04425434 0.05392295
v -0.01022947 0.04349643 0.05406849
v -0.01130761 0.04335619 0.05402483
v -0.01453221 0.04233356 0.05403211
v -0.01667214 0.04147953 0.05405394
v -0.01774701 0.04117542 0.05399572
v -0.01888395 0.04043326 0.05408304
v -0.02204975 0.03820049 0.05429408
v -0.01990328 0.04015279 0.05401027
v -0.02420602 0.03712743 0.05421403
v -0.02636555 0.03608117 0.05406121
v -0.02850876 0.03389882 0.05422130
v -0.02950195 0.03384367 0.05395933
v -0.02850876 0.03470873 0.05394478
v -0.02909029 0.03447080 0.05382835
v -0.02793375 0.03548240 0.05375557
v -0.02927652 0.03462364 0.05326073
v -0.02815918 0.03566518 0.05303514
v -0.02930919 0.03465200 0.05240204
v -0.03004755 0.03328902 -0.01999045
v -0.02945947 0.03379640 -0.01999045
v -0.02815918 0.03566518 0.05249664
v -0.00368879 0.04469081 -0.01999045
v -0.00552815 0.04521237 0.05267857
v -0.00484860 0.04525491 0.05289688
v -0.00484860 0.04501541 0.05343538
v -0.00893571 0.04418028 0.05385745
v -0.01237921 0.04321280 0.05394478
v -0.01560054 0.04214763 0.05394478
v -0.01631277 0.04203102 0.05385745
v -0.01856705 0.04100367 0.05389384
v -0.02103042 0.03934918 0.05408304
v -0.02204975 0.03904979 0.05399572
v -0.02313768 0.03823673 0.05406121
v -0.02071025 0.03994794 0.05390112
v -0.02520574 0.03710380 0.05398117
v -0.02751883 0.03506326 0.05409760
v -0.02601598 0.03672720 0.05390112
v -0.02721826 0.03574554 0.05393750
v -0.02479409 0.03769469 0.05382835
v -0.02673147 0.03646091 0.05358092
v -0.02697650 0.03664684 0.05286049
v -0.02887467 0.03429274 -0.01999045
v -0.02697650 0.03664684 0.05262763
v -0.02828986 0.03478121 -0.01999045
v -0.00377047 0.04468451 -0.01999045
v -0.01098090 0.04417556 0.05261307
v -0.00552815 0.04521237 0.05278044
v -0.00484860 0.04458209 -0.01999045
v -0.00583852 0.04445288 -0.01999045
v -0.00699834 0.04429846 -0.01999045
v -0.00780204 0.04417083 -0.01999045
v -0.00700160 0.04478693 0.05326073
v -0.00965447 0.04410465 0.05378468
v -0.00807647 0.04462148 0.05326073
v -0.01316004 0.04311038 0.05385745
v -0.01387553 0.04299378 0.05372647
v -0.01702172 0.04187660 0.05363914
v -0.01928254 0.04084452 0.05373374
v -0.02278157 0.03884968 0.05388656
v -0.02420602 0.03786802 0.05393023
v -0.02142574 0.03975571 0.05371191
v -0.02350033 0.03862120 0.05358820
v -0.02500319 0.03783493 0.05326073
v -0.02554552 0.03746149 0.05326073
v -0.02636555 0.03689423 0.05323890
v -0.02376496 0.03879768 0.05286777
v -0.02376496 0.03879768 0.05262035
v -0.02454253 0.03753082 -0.01999045
v -0.02528415 0.03702974 -0.01999045
v -0.02582322 0.03665315 -0.01999045
v -0.02640476 0.03623401 -0.01999045
v -0.02708431 0.03573767 -0.01999045
v -0.02718232 0.03566361 -0.01999045
v -0.02767892 0.03527756 -0.01999045
v -0.01431005 0.04315135 0.05252575
v -0.01098090 0.04417556 0.05288960
v -0.00833784 0.04406053 -0.01999045
v -0.00915134 0.04389193 -0.01999045
v -0.01022947 0.04366345 -0.01999045
v -0.01130434 0.04339558 -0.01999045
v -0.01274512 0.04299220 -0.01999045
v -0.01340180 0.04279524 -0.01999045
v -0.00923955 0.04435991 0.05335534
v -0.01022947 0.04425907 0.05310063
v -0.01022947 0.04403374 0.05363914
v -0.01349328 0.04327741 0.05332623
v -0.01431005 0.04315135 0.05300603
v -0.01667214 0.04217914 0.05327529
v -0.01738437 0.04204048 0.05291871
v -0.01960925 0.04100839 0.05301331
v -0.02207262 0.03958238 0.05331167
v -0.02313768 0.03900882 0.05324618
v -0.02172631 0.03992431 0.05299148
v -0.02172631 0.03992431 0.05253302
v -0.02205628 0.03903719 -0.01990313
v -0.02259208 0.03873623 -0.01999045
v -0.02400346 0.03786644 -0.01999045
v -0.01738437 0.04204048 0.05258396
v -0.01345734 0.04277791 -0.01999045
v -0.01444727 0.04244858 -0.01999045
v -0.01453221 0.04242022 -0.01999045
v -0.01596646 0.04190181 -0.01999045
v -0.01960925 0.04100839 0.05251847
v -0.01990328 0.04017800 -0.01999045
v -0.02047829 0.03988176 -0.01999045
v -0.02106309 0.03957293 -0.01999045
v -0.02198114 0.03907658 -0.01999045
v -0.02205628 0.03903561 -0.01999045
v -0.01667868 0.04162291 -0.01999045
v -0.01775028 0.04116911 -0.01999045
v -0.01833835 0.04091227 -0.01990313
v -0.01887742 0.04067119 -0.01999045
v -0.01829261 0.04093118 -0.01999045
f 1 2 9
f 1 9 24
f 1 24 14
f 1 14 3
f 1 3 4
f 1 4 5
f 1 5 6
f 1 6 7
f 1 7 8
f 1 8 2
f 2 8 10
f 2 10 11
f 2 11 12
f 2 12 13
f 2 13 9
f 3 14 4
f 4 15 16
f 4 16 5
f 4 14 15
f 5 16 6
f 6 16 17
f 6 17 7
f 7 18 8
f 7 17 18
f 8 19 20
f 8 20 21
f 8 21 22
f 8 22 23
f 8 23 10
f 8 18 19
f 9 13 30
f 9 30 24
f 10 23 11
f 11 23 25
f 11 25 26
f 11 26 12
f 12 26 27
f 12 27 28
f 12 28 29
f 12 29 13
f 13 29 30
f 14 24 47
f 14 47 69
f 14 69 97
f 14 97 98
f 14 98 120
f 14 120 122
f 14 122 152
f 14 152 151
f 14 151 150
f 14 150 149
f 14 149 148
f 14 148 147
f 14 147 146
f 14 146 175
f 14 175 174
f 14 174 186
f 14 186 185
f 14 185 184
f 14 184 183
f 14 183 182
f 14 182 190
f 14 190 191
f 14 191 188
f 14 188 187
f 14 187 180
f 14 180 179
f 14 179 178
f 14 178 177
f 14 177 160
f 14 160 159
f 14 159 158
f 14 158 157
f 14 157 156
f 14 156 155
f 14 155 129
f 14 129 128
f 14 128 127
f 14 127 126
f 14 126 123
f 14 123 100
f 14 100 72
f 14 72 50
f 14 50 31
f 14 31 15
f 15 32 33
f 15 33 16
f 15 31 32
f 16 33 17
f 17 33 34
f 17 34 35
f 17 35 36
f 17 36 18
f 18 36 19
f 19 36 37
f 19 37 20
f 20 37 38
f 20 38 39
f 20 39 40
f 20 40 41
f 20 41 42
f 20 42 21
f 21 42 43
f 21 43 44
f 21 44 45
f 21 45 22
f 22 45 46
f 22 46 23
f 23 46 25
f 24 30 29
f 24 29 47
f 25 46 26
f 26 46 27
f 27 46 28
f 28 46 29
f 29 46 48
f 29 48 49
f 29 49 47
f 31 50 32
f 32 51 52
f 32 52 33
f 32 50 51
f 33 52 34
f 34 53 54
f 34 54 55
f 34 55 35
f 34 52 53
f 35 55 39
f 35 39 38
f 35 38 37
f 35 37 36
f 39 55 54
f 39 54 56
f 39 56 40
f 40 56 57
f 40 57 41
f 41 57 58
f 41 58 59
f 41 59 42
f 42 59 60
f 42 60 61
f 42 61 43
f 43 61 62
f 43 62 63
f 43 63 44
f 44 63 64
f 44 64 46
f 44 46 45
f 46 64 65
f 46 65 66
f 46 66 67
f 46 67 68
f 46 68 48
f 47 49 69
f 48 68 49
f 49 68 70
f 49 70 71
f 49 71 69
f 50 72 73
f 50 73 74
f 50 74 51
f 51 74 75
f 51 75 52
f 52 75 53
f 53 76 77
f 53 77 54
f 53 75 76
f 54 77 56
f 56 77 78
f 56 78 79
f 56 79 57
f 57 79 80
f 57 80 81
f 57 81 58
f 58 81 82
f 58 82 59
f 59 82 83
f 59 83 84
f 59 84 60
f 60 85 61
f 60 84 86
f 60 86 85
f 61 85 62
f 62 85 87
f 62 87 88
f 62 88 89
f 62 89 63
f 63 89 64
f 64 89 90
f 64 90 65
f 65 90 66
f 66 90 91
f 66 91 92
f 66 92 67
f 67 92 93
f 67 93 94
f 67 94 68
f 68 94 95
f 68 95 96
f 68 96 71
f 68 71 70
f 69 71 97
f 71 98 97
f 71 96 99
f 71 99 98
f 72 100 101
f 72 101 73
f 73 101 125
f 73 125 102
f 73 102 75
f 73 75 74
f 75 102 76
f 76 103 78
f 76 78 77
f 76 102 103
f 78 103 104
f 78 104 80
f 78 80 79
f 80 104 105
f 80 105 81
f 81 105 106
f 81 106 82
f 82 106 83
f 83 86 84
f 83 106 107
f 83 107 108
f 83 108 86
f 85 86 109
f 85 109 110
f 85 110 111
f 85 111 87
f 86 108 112
f 86 112 110
f 86 110 109
f 87 111 113
f 87 113 88
f 88 114 89
f 88 113 115
f 88 115 116
f 88 116 91
f 88 91 114
f 89 114 91
f 89 91 90
f 91 116 92
f 92 116 93
f 93 116 115
f 93 115 117
f 93 117 118
f 93 118 119
f 93 119 95
f 93 95 94
f 95 119 121
f 95 121 99
f 95 99 96
f 98 99 120
f 99 121 122
f 99 122 120
f 100 123 101
f 101 124 154
f 101 154 125
f 101 123 126
f 101 126 127
f 101 127 128
f 101 128 129
f 101 129 124
f 102 125 103
f 103 130 104
f 103 125 130
f 104 131 105
f 104 130 132
f 104 132 131
f 105 131 133
f 105 133 106
f 106 133 107
f 107 133 134
f 107 134 135
f 107 135 136
f 107 136 108
f 108 136 112
f 110 112 137
f 110 137 111
f 111 137 138
f 111 138 113
f 112 136 139
f 112 139 137
f 113 138 117
f 113 117 115
f 117 138 137
f 117 137 140
f 117 140 141
f 117 141 142
f 117 142 118
f 118 142 143
f 118 143 119
f 119 144 145
f 119 145 121
f 119 143 142
f 119 142 141
f 119 141 144
f 121 145 146
f 121 146 147
f 121 147 148
f 121 148 149
f 121 149 150
f 121 150 151
f 121 151 152
f 121 152 122
f 124 153 165
f 124 165 154
f 124 129 155
f 124 155 156
f 124 156 157
f 124 157 158
f 124 158 159
f 124 159 160
f 124 160 153
f 125 154 132
f 125 132 130
f 131 134 133
f 131 132 161
f 131 161 162
f 131 162 154
f 131 154 163
f 131 163 134
f 132 154 162
f 132 162 161
f 134 163 154
f 134 154 164
f 134 164 165
f 134 165 166
f 134 166 135
f 135 166 167
f 135 167 136
f 136 167 168
f 136 168 139
f 137 139 140
f 139 169 170
f 139 170 140
f 139 168 171
f 139 171 169
f 140 170 144
f 140 144 141
f 144 171 172
f 144 172 145
f 144 170 171
f 145 172 173
f 145 173 174
f 145 174 175
f 145 175 146
f 153 176 167
f 153 167 165
f 153 160 177
f 153 177 178
f 153 178 179
f 153 179 180
f 153 180 176
f 154 165 164
f 165 167 166
f 167 176 181
f 167 181 168
f 168 181 172
f 168 172 171
f 169 171 170
f 172 181 182
f 172 182 183
f 172 183 184
f 172 184 173
f 173 184 185
f 173 185 186
f 173 186 174
f 176 180 187
f 176 187 188
f 176 188 189
f 176 189 190
f 176 190 181
f 181 190 182
f 188 191 189
f 189 191 190

