# https://github.com/mikedh/trimesh
v -0.00183335 0.02012622 -0.05396944
v -0.00269158 0.02206073 -0.05392180
v -0.00000716 0.02098466 -0.05395092
v -0.00000716 0.02012622 -0.05396944
v -0.00398873 0.02012622 -0.05396415
v -0.00376927 0.02098466 -0.05394562
v -0.00376927 0.02633117 -0.05381594
v -0.00000716 0.02719203 -0.05379741
v -0.00376927 0.02687041 -0.05380270
v -0.00269158 0.02851716 -0.05376300
v -0.00000716 0.02012622 -0.03175057
v -0.00484304 0.02012622 -0.05396150
v -0.00484304 0.02421288 -0.05386358
v -0.00484304 0.02851716 -0.05376036
v -0.00000716 0.02851716 -0.05376300
v -0.00054013 0.02959324 -0.05372595
v -0.00000716 0.02906366 -0.05374448
v -0.00000716 0.04246983 -0.02693626
v -0.03733434 0.02012622 -0.02693626
v -0.00614018 0.02012622 -0.05395356
v -0.00592073 0.02098466 -0.05393504
v -0.00592073 0.02851716 -0.05375506
v -0.00161782 0.02959324 -0.05372066
v -0.00054013 0.03066931 -0.05362538
v -0.00000716 0.03013974 -0.05367566
v -0.00000716 0.02959324 -0.05372595
v -0.00000716 0.04482510 -0.02693626
v -0.04004228 0.02012622 -0.02693626
v -0.00721395 0.02012622 -0.05394562
v -0.00807219 0.02744109 -0.05376830
v -0.00914987 0.02744109 -0.05375771
v -0.00699842 0.02851716 -0.05374183
v -0.00484304 0.02959324 -0.05369684
v -0.00376927 0.02959324 -0.05370742
v -0.00161782 0.03066931 -0.05362008
v -0.00054013 0.03174538 -0.05343481
v -0.00000716 0.03066931 -0.05362538
v -0.00161782 0.03174538 -0.05343217
v -0.00000716 0.04482510 -0.02797111
v -0.00025797 0.04482752 -0.02693626
v -0.04000701 0.02019635 -0.02693626
v -0.03984633 0.02051554 -0.02744178
v -0.03984633 0.02051071 -0.02959353
v -0.03984242 0.02050103 -0.03497422
v -0.03983850 0.02049378 -0.03927773
v -0.04003052 0.02012622 -0.03350267
v -0.00853069 0.02580160 -0.05380270
v -0.00813097 0.02538084 -0.05381594
v -0.01022364 0.02012622 -0.05391386
v -0.00914987 0.02098466 -0.05390592
v -0.00914987 0.02636502 -0.05378417
v -0.01130133 0.02636502 -0.05376036
v -0.01022364 0.02744109 -0.05374448
v -0.00807219 0.02851716 -0.05372330
v -0.00592073 0.02959324 -0.05368360
v -0.00269158 0.03066931 -0.05360685
v -0.00054013 0.03281904 -0.05318338
v -0.00000716 0.03229188 -0.05330777
v -0.00000716 0.03174538 -0.05343481
v -0.00161782 0.03281904 -0.05317544
v -0.00269158 0.03174538 -0.05341893
v -0.00000716 0.04482268 -0.02959353
v -0.00054013 0.04482510 -0.02959353
v -0.00054013 0.04482752 -0.02744178
v -0.00054013 0.04482752 -0.02693626
v -0.03984633 0.02051554 -0.02693626
v -0.03970134 0.02080088 -0.02693626
v -0.03957201 0.02105479 -0.02693626
v -0.03983458 0.02048894 -0.04250403
v -0.04001484 0.02012622 -0.04209909
v -0.04001876 0.02012622 -0.03995263
v -0.04002660 0.02012622 -0.03565442
v -0.03956026 0.02103061 -0.04035492
v -0.01237510 0.02012622 -0.05389004
v -0.01237510 0.02098466 -0.05387151
v -0.01366049 0.02351887 -0.05380006
v -0.01237510 0.02528895 -0.05377359
v -0.01237510 0.02636502 -0.05374712
v -0.01453047 0.02421288 -0.05377359
v -0.01453047 0.02528895 -0.05374712
v -0.00914987 0.02851716 -0.05370213
v -0.01130133 0.02744109 -0.05372066
v -0.00376927 0.03066931 -0.05358832
v -0.00699842 0.02959324 -0.05365978
v -0.00054013 0.03384674 -0.05288695
v -0.00000716 0.03281904 -0.05318338
v -0.00161782 0.03382982 -0.05288166
v -0.00269158 0.03281904 -0.05315691
v -0.00376927 0.03174538 -0.05339511
v -0.00376927 0.03281904 -0.05313574
v -0.00000716 0.04481784 -0.03282247
v -0.00054013 0.04482026 -0.03282247
v -0.00161782 0.04480575 -0.02693626
v -0.00104566 0.04481784 -0.02693626
v -0.03903121 0.02202930 -0.02693626
v -0.03903121 0.02202688 -0.02851633
v -0.03903121 0.02202204 -0.03067073
v -0.03902337 0.02200995 -0.03927773
v -0.04001093 0.02012622 -0.04250403
v -0.03955634 0.02102577 -0.04250403
v -0.03982674 0.02047443 -0.04333773
v -0.03901945 0.02200512 -0.04250403
v -0.01259455 0.02012622 -0.05388739
v -0.01463628 0.02315131 -0.05379741
v -0.01345279 0.02636502 -0.05372330
v -0.01560424 0.02421288 -0.05376036
v -0.01668193 0.02421288 -0.05373918
v -0.01560424 0.02528895 -0.05372066
v -0.01022364 0.02851716 -0.05367037
v -0.01237510 0.02744109 -0.05368625
v -0.00484304 0.03066931 -0.05356450
v -0.00807219 0.02959324 -0.05362538
v -0.00592073 0.03066931 -0.05353274
v -0.00054013 0.03438357 -0.05270963
v -0.00000716 0.03384674 -0.05288695
v -0.00161782 0.03436665 -0.05270433
v -0.00269158 0.03379596 -0.05287107
v -0.00484304 0.03174538 -0.05336336
v -0.00376927 0.03375486 -0.05285784
v -0.00484304 0.03281904 -0.05309604
v -0.00000716 0.04481301 -0.03604878
v -0.00054013 0.04481543 -0.03604878
v -0.00161782 0.04479366 -0.03497422
v -0.00269158 0.04474530 -0.02693626
v -0.03886662 0.02231464 -0.02693626
v -0.03838460 0.02313681 -0.02744178
v -0.03836500 0.02313681 -0.03820317
v -0.03836108 0.02313681 -0.04035492
v -0.03835717 0.02313681 -0.04250403
v -0.03998741 0.02012622 -0.04357329
v -0.03900378 0.02198094 -0.04358123
v -0.03959553 0.02089277 -0.04365004
v -0.03981107 0.02044058 -0.04405498
v -0.03997957 0.02012622 -0.04375855
v -0.03832974 0.02313681 -0.04358123
v -0.03869027 0.02252018 -0.04358123
v -0.01345279 0.02098466 -0.05385828
v -0.01367224 0.02012622 -0.05387151
v -0.01560424 0.02313681 -0.05378417
v -0.01453047 0.02636502 -0.05368625
v -0.01668193 0.02313681 -0.05376565
v -0.01775570 0.02313681 -0.05374712
v -0.01991107 0.02206073 -0.05371801
v -0.01883339 0.02313681 -0.05371007
v -0.01775570 0.02421288 -0.05369419
v -0.01668193 0.02528895 -0.05366772
v -0.01130133 0.02851716 -0.05362538
v -0.01345279 0.02744109 -0.05363861
v -0.00699842 0.03066931 -0.05349569
v -0.00914987 0.02959324 -0.05357774
v -0.00054013 0.03497118 -0.05250848
v -0.00000716 0.03468100 -0.05260905
v -0.00000716 0.03438357 -0.05270963
v -0.00161782 0.03497118 -0.05249524
v -0.00269158 0.03433279 -0.05269374
v -0.00376927 0.03429410 -0.05268051
v -0.00592073 0.03174538 -0.05331836
v -0.00484304 0.03369198 -0.05283667
v -0.00699842 0.03174538 -0.05326278
v -0.00592073 0.03281904 -0.05303781
v -0.00000716 0.04481059 -0.03765796
v -0.00054013 0.04480817 -0.04035492
v -0.00161782 0.04478157 -0.04250403
v -0.00269158 0.04473079 -0.03604878
v -0.00269158 0.04474288 -0.02851633
v -0.00376927 0.04466792 -0.03174528
v -0.00376927 0.04467517 -0.02693626
v -0.03838460 0.02313681 -0.02693626
v -0.03814163 0.02354064 -0.02693626
v -0.03785555 0.02397590 -0.03927773
v -0.03785164 0.02397106 -0.04250403
v -0.03892540 0.02184310 -0.04465578
v -0.03974445 0.02030516 -0.04465578
v -0.03983066 0.02012622 -0.04465578
v -0.03939175 0.02098466 -0.04465578
v -0.03816906 0.02313681 -0.04465578
v -0.03783596 0.02394930 -0.04358123
v -0.03775758 0.02382598 -0.04465578
v -0.01820637 0.02012622 -0.05379741
v -0.01730503 0.02052280 -0.05380535
v -0.01883339 0.02098466 -0.05377094
v -0.01560424 0.02636502 -0.05363067
v -0.01991107 0.02098466 -0.05375242
v -0.02098092 0.02098466 -0.05372066
v -0.02098092 0.02206073 -0.05365184
v -0.01991107 0.02313681 -0.05364390
v -0.01883339 0.02421288 -0.05362273
v -0.01237510 0.02851716 -0.05356185
v -0.01022364 0.02959324 -0.05352216
v -0.01453047 0.02744109 -0.05356450
v -0.00807219 0.03066931 -0.05344805
v -0.00054013 0.03604725 -0.05210089
v -0.00000716 0.03551768 -0.05230204
v -0.00000716 0.03497118 -0.05250848
v -0.00161782 0.03604725 -0.05208766
v -0.00269158 0.03497118 -0.05247142
v -0.00376927 0.03497118 -0.05243702
v -0.00484304 0.03422881 -0.05265934
v -0.00592073 0.03359526 -0.05280490
v -0.00592073 0.03413450 -0.05263022
v -0.00807219 0.03174538 -0.05320455
v -0.00810354 0.03291093 -0.05287372
v -0.00000716 0.04480333 -0.04195881
v -0.00054013 0.04480333 -0.04250403
v -0.00161782 0.04475739 -0.04358123
v -0.00269158 0.04469693 -0.04358123
v -0.00269158 0.04471870 -0.04250403
v -0.00269158 0.04472353 -0.04035492
v -0.00054013 0.04478157 -0.04358123
v -0.00376927 0.04465583 -0.03927773
v -0.00484304 0.04456877 -0.02959353
v -0.00427481 0.04462681 -0.02693626
v -0.03786339 0.02399283 -0.02744178
v -0.03786339 0.02398799 -0.03067073
v -0.03786339 0.02399283 -0.02693626
v -0.03751461 0.02453207 -0.02693626
v -0.03750677 0.02451998 -0.03497422
v -0.03750285 0.02451273 -0.03927773
v -0.03749893 0.02450789 -0.04250403
v -0.03748326 0.02448854 -0.04358123
v -0.03767920 0.02370507 -0.04523805
v -0.03881568 0.02165932 -0.04537038
v -0.03952891 0.02012622 -0.04552124
v -0.03966215 0.02012622 -0.04514277
v -0.03657408 0.02580885 -0.04386972
v -0.03740096 0.02436280 -0.04465578
v -0.01991107 0.02012622 -0.05376830
v -0.01775570 0.02528895 -0.05358568
v -0.01668193 0.02636502 -0.05354333
v -0.02098092 0.02012622 -0.05374712
v -0.02205861 0.02012622 -0.05370478
v -0.02205861 0.02098466 -0.05365184
v -0.02098092 0.02313681 -0.05353539
v -0.02205861 0.02206073 -0.05354068
v -0.01991107 0.02421288 -0.05351686
v -0.01345279 0.02851716 -0.05348246
v -0.01130133 0.02959324 -0.05345599
v -0.00914987 0.03066931 -0.05338717
v -0.01560424 0.02744109 -0.05347452
v -0.00054013 0.03686458 -0.05176476
v -0.00000716 0.03713541 -0.05165360
v -0.00000716 0.03604725 -0.05210089
v -0.00161782 0.03685007 -0.05175947
v -0.00269158 0.03604725 -0.05205854
v -0.00376927 0.03604725 -0.05201884
v -0.00484304 0.03497118 -0.05238938
v -0.00699842 0.03348644 -0.05276785
v -0.00848367 0.03333168 -0.05271756
v -0.00699842 0.03402327 -0.05259317
v -0.00699842 0.03497118 -0.05224910
v -0.00592073 0.03497118 -0.05232586
v -0.00914987 0.03174538 -0.05313309
v -0.00914987 0.03270538 -0.05286048
v -0.00000716 0.04480091 -0.04250403
v -0.00161782 0.04461714 -0.04465578
v -0.00269158 0.04455668 -0.04465578
v -0.00376927 0.04448898 -0.04465578
v -0.00376927 0.04462681 -0.04358123
v -0.00376927 0.04464857 -0.04250403
v -0.00376927 0.04465341 -0.04035492
v -0.00054013 0.04464132 -0.04465578
v -0.00000716 0.04477673 -0.04358123
v -0.00000716 0.04470903 -0.04411056
v -0.00000716 0.04463890 -0.04465578
v -0.00484304 0.04454943 -0.04142683
v -0.00484304 0.04455668 -0.03712598
v -0.00484304 0.04457119 -0.02744178
v -0.00592073 0.04443094 -0.02851633
v -0.00592073 0.04443336 -0.02693626
v -0.00484304 0.04457119 -0.02693626
v -0.03767920 0.02427817 -0.02693626
v -0.03660935 0.02586205 -0.02693626
v -0.03660935 0.02586205 -0.02744178
v -0.03699732 0.02528895 -0.02851633
v -0.03699340 0.02528895 -0.03067073
v -0.03696989 0.02528895 -0.04250403
v -0.03658976 0.02583545 -0.04315247
v -0.03649571 0.02569520 -0.04465578
v -0.03549640 0.02688734 -0.04515071
v -0.03672300 0.02495283 -0.04547890
v -0.03711489 0.02420079 -0.04571710
v -0.03750677 0.02341973 -0.04595530
v -0.03842771 0.02203413 -0.04573033
v -0.03864716 0.02136431 -0.04608763
v -0.03901161 0.02099675 -0.04573033
v -0.03945053 0.02012622 -0.04574092
v -0.03626449 0.02626346 -0.04353888
v -0.03565315 0.02708805 -0.04358123
v -0.03559437 0.02701308 -0.04443346
v -0.01883339 0.02528895 -0.05347981
v -0.01775570 0.02636502 -0.05342952
v -0.01668193 0.02744109 -0.05336071
v -0.02313238 0.02012622 -0.05362008
v -0.02313238 0.02098466 -0.05353803
v -0.02098092 0.02421288 -0.05337659
v -0.02205861 0.02313681 -0.05338717
v -0.02313238 0.02206073 -0.05339247
v -0.01991107 0.02528895 -0.05334483
v -0.01237510 0.02959324 -0.05336865
v -0.01453047 0.02851716 -0.05338717
v -0.01022364 0.03066931 -0.05331307
v -0.00054013 0.03740141 -0.05154244
v -0.00000716 0.03819940 -0.05120896
v -0.00161782 0.03738690 -0.05153714
v -0.00269158 0.03735305 -0.05152391
v -0.00376927 0.03730710 -0.05150539
v -0.00484304 0.03604725 -0.05196591
v -0.00810354 0.03381773 -0.05258258
v -0.00914987 0.03324221 -0.05268845
v -0.00914987 0.03389511 -0.05246348
v -0.00689261 0.03611012 -0.05180711
v -0.00646545 0.03658650 -0.05165095
v -0.00592073 0.03604725 -0.05190239
v -0.00807219 0.03497118 -0.05216441
v -0.01130133 0.03066931 -0.05322308
v -0.01022364 0.03174538 -0.05304046
v -0.01022364 0.03253853 -0.05280755
v -0.01022364 0.03307778 -0.05263816
v -0.00161782 0.04431003 -0.04567740
v -0.00269158 0.04427860 -0.04560329
v -0.00376927 0.04424474 -0.04551595
v -0.00484304 0.04419154 -0.04538362
v -0.00484304 0.04438500 -0.04465578
v -0.00484304 0.04452525 -0.04358123
v -0.00484304 0.04454701 -0.04250403
v -0.00054013 0.04431971 -0.04570651
v -0.00000716 0.04431971 -0.04570122
v -0.00592073 0.04441159 -0.04035492
v -0.00592073 0.04441885 -0.03604878
v -0.00699842 0.04428827 -0.02744178
v -0.00642626 0.04436565 -0.02693626
v -0.03640557 0.02614739 -0.02693626
v -0.03660151 0.02584996 -0.03604878
v -0.03659760 0.02584512 -0.03927773
v -0.03659368 0.02584029 -0.04250403
v -0.03620571 0.02637711 -0.04250403
v -0.03566883 0.02710739 -0.04250403
v -0.03591963 0.02646417 -0.04473783
v -0.03520640 0.02739998 -0.04473783
v -0.03460289 0.02819555 -0.04465578
v -0.03449709 0.02806014 -0.04532274
v -0.03535140 0.02670114 -0.04573298
v -0.03575504 0.02616190 -0.04573298
v -0.03632720 0.02530346 -0.04579385
v -0.03654665 0.02469409 -0.04619615
v -0.03772231 0.02270154 -0.04636289
v -0.03678962 0.02397832 -0.04655874
v -0.03884310 0.02064612 -0.04643699
v -0.03894500 0.02012622 -0.04667519
v -0.03469303 0.02830679 -0.04358123
v -0.03425803 0.02884603 -0.04358123
v -0.01883339 0.02636502 -0.05329454
v -0.01775570 0.02744109 -0.05322308
v -0.01560424 0.02851716 -0.05326807
v -0.02421007 0.02012622 -0.05348775
v -0.02421007 0.02098466 -0.05337659
v -0.02098092 0.02528895 -0.05317544
v -0.02205861 0.02421288 -0.05320455
v -0.02313238 0.02313681 -0.05321249
v -0.02421007 0.02206073 -0.05320455
v -0.01991107 0.02636502 -0.05313045
v -0.01345279 0.02959324 -0.05326807
v -0.01453047 0.02959324 -0.05314897
v -0.00054013 0.03819940 -0.05120896
v -0.00000716 0.03916665 -0.05077755
v -0.00054013 0.03916907 -0.05077755
v -0.00161782 0.03819940 -0.05119572
v -0.00269158 0.03819940 -0.05116661
v -0.00376927 0.03819940 -0.05112956
v -0.00484304 0.03724181 -0.05147892
v -0.00592073 0.03716443 -0.05144980
v -0.01022364 0.03389511 -0.05235232
v -0.00914987 0.03497118 -0.05206119
v -0.00807219 0.03588282 -0.05180181
v -0.00718260 0.03651153 -0.05162184
v -0.00689261 0.03701693 -0.05144187
v -0.01237510 0.03066931 -0.05311986
v -0.01137971 0.03184211 -0.05289489
v -0.01107404 0.03239586 -0.05276256
v -0.01137971 0.03277793 -0.05260640
v -0.01130133 0.03389511 -0.05222793
v -0.00161782 0.04409482 -0.04621467
v -0.00054013 0.04410691 -0.04624379
v -0.00269158 0.04406338 -0.04614056
v -0.00376927 0.04402711 -0.04605323
v -0.00484304 0.04397391 -0.04592089
v -0.00557587 0.04414318 -0.04526187
v -0.00629302 0.04409482 -0.04509513
v -0.00699842 0.04404887 -0.04488075
v -0.00592857 0.04423023 -0.04470342
v -0.00699842 0.04416736 -0.04434082
v -0.00757449 0.04412625 -0.04415556
v -0.00592073 0.04438500 -0.04358123
v -0.00592073 0.04440676 -0.04250403
v -0.00000716 0.04421331 -0.04596853
v -0.00699842 0.04426651 -0.04035492
v -0.00699842 0.04426893 -0.03927773
v -0.00699842 0.04428827 -0.02693626
v -0.00771165 0.04415527 -0.04250403
v -0.00777043 0.04416736 -0.02744178
v -0.03597058 0.02674225 -0.02693626
v -0.03622139 0.02639887 -0.02744178
v -0.03622139 0.02639646 -0.02959353
v -0.03620963 0.02637953 -0.04142683
v -0.03567274 0.02710981 -0.04035492
v -0.03524559 0.02764422 -0.04250403
v -0.03416398 0.02873238 -0.04465578
v -0.03431290 0.02782558 -0.04603999
v -0.03348602 0.02919666 -0.04543655
v -0.03389750 0.02851958 -0.04573827
v -0.03558653 0.02592976 -0.04638141
v -0.03713056 0.02314406 -0.04681812
v -0.03747150 0.02227111 -0.04708014
v -0.03787123 0.02197126 -0.04675724
v -0.03578247 0.02523333 -0.04676783
v -0.03652705 0.02358658 -0.04727599
v -0.03839635 0.02099675 -0.04679959
v -0.03860014 0.02017217 -0.04715425
v -0.03865500 0.02012622 -0.04710396
v -0.03470478 0.02832613 -0.04250403
v -0.03427371 0.02886296 -0.04250403
v -0.03372115 0.02946024 -0.04358123
v -0.03362710 0.02935626 -0.04465578
v -0.01883339 0.02744109 -0.05306163
v -0.01775570 0.02851716 -0.05297164
v -0.01668193 0.02851716 -0.05312780
v -0.02528775 0.02012622 -0.05331042
v -0.02528775 0.02098466 -0.05317544
v -0.02205861 0.02528895 -0.05297694
v -0.02105930 0.02644966 -0.05290019
v -0.02313238 0.02421288 -0.05300341
v -0.02421007 0.02313681 -0.05299811
v -0.02528775 0.02206073 -0.05297694
v -0.01991107 0.02747495 -0.05286313
v -0.02075363 0.02713641 -0.05279167
v -0.01560424 0.02959324 -0.05300870
v -0.01450696 0.03071042 -0.05285519
v -0.01345279 0.03066931 -0.05300076
v -0.00161782 0.03915214 -0.05077225
v -0.00000716 0.03943990 -0.05064786
v -0.00054013 0.03970832 -0.05052082
v -0.00269158 0.03911587 -0.05075637
v -0.00376927 0.03906992 -0.05073520
v -0.00484304 0.03819940 -0.05107398
v -0.00484304 0.03900705 -0.05070873
v -0.00592073 0.03819940 -0.05101045
v -0.01022364 0.03497118 -0.05193944
v -0.01080755 0.03552493 -0.05165625
v -0.01022364 0.03614398 -0.05147627
v -0.00914987 0.03575466 -0.05174888
v -0.00807219 0.03641964 -0.05158478
v -0.00914987 0.03629148 -0.05153450
v -0.00807219 0.03712332 -0.05129894
v -0.00699842 0.03819940 -0.05093106
v -0.01345279 0.03141651 -0.05279167
v -0.01237510 0.03162448 -0.05285254
v -0.01237510 0.03216130 -0.05268845
v -0.01237510 0.03281904 -0.05247142
v -0.01237510 0.03389511 -0.05208501
v -0.01237510 0.03526378 -0.05155567
v -0.01152470 0.03540886 -0.05161125
v -0.01121903 0.03501954 -0.05180181
v -0.00161782 0.04374419 -0.04680753
v -0.00269158 0.04368132 -0.04680753
v -0.00376927 0.04361119 -0.04680753
v -0.00054013 0.04376837 -0.04680753
v -0.00000716 0.04410449 -0.04624114
v -0.00000716 0.04393764 -0.04652169
v -0.00484304 0.04350479 -0.04680753
v -0.00699842 0.04328958 -0.04668578
v -0.00699842 0.04375628 -0.04573298
v -0.00592857 0.04393280 -0.04566416
v -0.00807219 0.04357008 -0.04573298
v -0.00798989 0.04394731 -0.04457109
v -0.00914987 0.04368857 -0.04465578
v -0.01022364 0.04346126 -0.04465578
v -0.01022364 0.04360394 -0.04358123
v -0.00914987 0.04383124 -0.04358123
v -0.00818975 0.04403195 -0.04358123
v -0.00765287 0.04414318 -0.04358123
v -0.00699842 0.04423991 -0.04358123
v -0.00699842 0.04426167 -0.04250403
v -0.00777043 0.04416736 -0.02693626
v -0.00824853 0.04404404 -0.04250403
v -0.00829556 0.04405371 -0.03067073
v -0.00831124 0.04405613 -0.02693626
v -0.03568450 0.02712673 -0.02693626
v -0.03568450 0.02712673 -0.02744178
v -0.03568450 0.02712432 -0.02851633
v -0.03568058 0.02711948 -0.03282247
v -0.03524951 0.02764905 -0.03927773
v -0.03470870 0.02832855 -0.04142683
v -0.03459506 0.02710739 -0.04648728
v -0.03329008 0.02897903 -0.04615380
v -0.03359574 0.02826326 -0.04658256
v -0.03314116 0.02989309 -0.04465578
v -0.03260036 0.03048553 -0.04465578
v -0.03244360 0.03030901 -0.04549213
v -0.03286684 0.02964644 -0.04582297
v -0.03495559 0.02634326 -0.04679430
v -0.03531613 0.02555253 -0.04709867
v -0.03767920 0.02155534 -0.04736862
v -0.03556693 0.02483676 -0.04741097
v -0.03577855 0.02421288 -0.04762271
v -0.03675435 0.02287081 -0.04753272
v -0.03854135 0.02012622 -0.04724952
v -0.03783988 0.02098466 -0.04754595
v -0.03427763 0.02886779 -0.04035492
v -0.03373683 0.02947717 -0.04250403
v -0.03323521 0.02999707 -0.04358123
v -0.01874325 0.02848815 -0.05281284
v -0.01775570 0.02924019 -0.05278109
v -0.01663882 0.02962226 -0.05284725
v -0.01832393 0.02907334 -0.05273344
v -0.02637720 0.02012622 -0.05308545
v -0.02644774 0.02106688 -0.05290019
v -0.02205861 0.02607968 -0.05278903
v -0.02303833 0.02521640 -0.05279432
v -0.02147078 0.02686316 -0.05271756
v -0.02413953 0.02413308 -0.05279961
v -0.02373589 0.02481016 -0.05274138
v -0.02520546 0.02303524 -0.05278638
v -0.02686706 0.02148038 -0.05271756
v -0.02607545 0.02206073 -0.05278903
v -0.01955446 0.02811092 -0.05276256
v -0.02026769 0.02785459 -0.05269110
v -0.02105930 0.02747495 -0.05263552
v -0.01560424 0.03035979 -0.05279432
v -0.01413075 0.03127385 -0.05274668
v -0.01484790 0.03109490 -0.05269374
v -0.00161782 0.03969139 -0.05051288
v -0.00000716 0.03970589 -0.05052082
v -0.00054013 0.04035154 -0.05013441
v -0.00000716 0.04035154 -0.05013441
v -0.00161782 0.04035154 -0.05011853
v -0.00269158 0.03965270 -0.05049171
v -0.00376927 0.03960675 -0.05046789
v -0.00484304 0.03954388 -0.05043348
v -0.00592073 0.03893209 -0.05067433
v -0.01121903 0.03594811 -0.05143922
v -0.01022364 0.03712332 -0.05107398
v -0.00914987 0.03712332 -0.05119572
v -0.00811137 0.03829370 -0.05079078
v -0.00777827 0.03878217 -0.05059757
v -0.00699842 0.03884987 -0.05063198
v -0.01345279 0.03195576 -0.05262228
v -0.01345279 0.03281904 -0.05232586
v -0.01355076 0.03399909 -0.05187327
v -0.01397791 0.03442710 -0.05164831
v -0.01326076 0.03456251 -0.05170124
v -0.01355076 0.03494216 -0.05151333
v -0.01237510 0.03604725 -0.05124601
v -0.00161782 0.04322912 -0.04758565
v -0.00269158 0.04319769 -0.04754860
v -0.00376927 0.04316383 -0.04750625
v -0.00484304 0.04311305 -0.04743744
v -0.00054013 0.04324121 -0.04760153
v -0.00000716 0.04376595 -0.04680753
v -0.00000716 0.04350721 -0.04719924
v -0.00000716 0.04324121 -0.04760153
v -0.00555236 0.04306469 -0.04737657
v -0.00626951 0.04301633 -0.04730775
v -0.00591289 0.04331376 -0.04689222
v -0.00699842 0.04296313 -0.04722571
v -0.00807219 0.04319527 -0.04653228
v -0.00892650 0.04310822 -0.04638406
v -0.00964365 0.04303326 -0.04624908
v -0.00922825 0.04329200 -0.04582826
v -0.01022364 0.04319044 -0.04555830
v -0.01097214 0.04310096 -0.04534127
v -0.01132092 0.04318560 -0.04465578
v -0.01197929 0.04308162 -0.04429583
v -0.01022364 0.04362570 -0.04250403
v -0.00914987 0.04385542 -0.04250403
v -0.01130133 0.04333552 -0.04358123
v -0.00914987 0.04386026 -0.04035492
v -0.00914987 0.04386751 -0.03604878
v -0.00914987 0.04387960 -0.02851633
v -0.00914987 0.04388202 -0.02693626
v -0.03546113 0.02741207 -0.02693626
v -0.03471654 0.02833822 -0.03389703
v -0.03395628 0.02751848 -0.04689487
v -0.03431682 0.02675676 -0.04720718
v -0.03224766 0.03009379 -0.04620938
v -0.03257292 0.02937561 -0.04662756
v -0.03294521 0.02865742 -0.04696368
v -0.03331751 0.02792956 -0.04729981
v -0.03269833 0.03058951 -0.04358123
v -0.03220455 0.03112634 -0.04358123
v -0.03210266 0.03102236 -0.04465578
v -0.03138943 0.03138991 -0.04552124
v -0.03181658 0.03074911 -0.04586531
v -0.03459897 0.02604099 -0.04751684
v -0.03732259 0.02098466 -0.04808588
v -0.03490073 0.02518739 -0.04782121
v -0.03522991 0.02421288 -0.04815998
v -0.03610774 0.02322628 -0.04795089
v -0.03544545 0.02358174 -0.04836642
v -0.03640165 0.02228804 -0.04824997
v -0.03808284 0.02012622 -0.04777621
v -0.03753812 0.02021811 -0.04830820
v -0.03769096 0.02012622 -0.04819968
v -0.03374466 0.02948442 -0.03604878
v -0.03428547 0.02887747 -0.03282247
v -0.03325872 0.03002367 -0.03604878
v -0.03325481 0.03001641 -0.04035492
v -0.03325089 0.03001399 -0.04250403
v -0.01775570 0.02977943 -0.05262228
v -0.01697193 0.02999949 -0.05268845
v -0.01625477 0.03019052 -0.05274403
v -0.01904109 0.02882669 -0.05266463
v -0.01874325 0.02949651 -0.05252171
v -0.02738435 0.02012622 -0.05284196
v -0.02713746 0.02076461 -0.05279167
v -0.02261509 0.02584270 -0.05273080
v -0.02333224 0.02552835 -0.05265140
v -0.02205861 0.02661651 -0.05265405
v -0.02205861 0.02744109 -0.05242378
v -0.02479006 0.02371958 -0.05273609
v -0.02445304 0.02443777 -0.05265669
v -0.02413953 0.02521640 -0.05253494
v -0.02583248 0.02260965 -0.05272815
v -0.02661233 0.02206073 -0.05265669
v -0.02747056 0.02106688 -0.05263552
v -0.02743921 0.02206073 -0.05242643
v -0.01991107 0.02848815 -0.05258523
v -0.02098092 0.02851716 -0.05234968
v -0.01560424 0.03089903 -0.05263552
v -0.01450696 0.03167767 -0.05256141
v -0.00269158 0.04035154 -0.05007618
v -0.00161782 0.04108665 -0.04964212
v -0.00054013 0.04109875 -0.04965006
v -0.00000716 0.04109875 -0.04965006
v -0.00376927 0.04035154 -0.05002324
v -0.00484304 0.04035154 -0.04994649
v -0.00592073 0.03947134 -0.05038849
v -0.01130133 0.03712332 -0.05094429
v -0.01022364 0.03794791 -0.05071138
v -0.00914987 0.03809542 -0.05077490
v -0.00849542 0.03871446 -0.05056317
v -0.00699842 0.03938912 -0.05033820
v -0.01453047 0.03281904 -0.05216176
v -0.01453047 0.03430619 -0.05160331
v -0.01453047 0.03497118 -0.05134923
v -0.01345279 0.03604725 -0.05108986
v -0.01235550 0.03718620 -0.05077225
v -0.00161782 0.04277451 -0.04812558
v -0.00269158 0.04274550 -0.04808852
v -0.00054013 0.04278902 -0.04814146
v -0.00376927 0.04271164 -0.04804618
v -0.00484304 0.04265603 -0.04797736
v -0.00667315 0.04199829 -0.04845376
v -0.00000716 0.04301875 -0.04786620
v -0.00701801 0.04235134 -0.04797736
v -0.00807219 0.04232958 -0.04778680
v -0.00914987 0.04221834 -0.04765976
v -0.00807219 0.04286640 -0.04706955
v -0.00922825 0.04280837 -0.04676783
v -0.01022364 0.04255930 -0.04680753
v -0.01128957 0.04225220 -0.04686576
v -0.01237510 0.04214096 -0.04655874
v -0.01022364 0.04296555 -0.04609557
v -0.01132092 0.04284706 -0.04571181
v -0.01237510 0.04253995 -0.04573298
v -0.01427967 0.04207084 -0.04544184
v -0.01168930 0.04299940 -0.04501308
v -0.01235550 0.04289542 -0.04465578
v -0.01345279 0.04256897 -0.04465578
v -0.01345279 0.04271648 -0.04358123
v -0.01262982 0.04296313 -0.04358123
v -0.01022364 0.04363053 -0.04035492
v -0.01130133 0.04335729 -0.04250403
v -0.01267293 0.04297522 -0.04250403
v -0.01213605 0.04312515 -0.04250403
v -0.01022364 0.04363295 -0.03927773
v -0.01022364 0.04365230 -0.02744178
v -0.01022364 0.04365230 -0.02693626
v -0.03500654 0.02798518 -0.02693626
v -0.03472046 0.02834548 -0.02744178
v -0.03526126 0.02766356 -0.02744178
v -0.03472046 0.02834306 -0.02959353
v -0.03428939 0.02887988 -0.02959353
v -0.03118564 0.03118679 -0.04623849
v -0.03147172 0.03041057 -0.04680753
v -0.03206347 0.02967787 -0.04691604
v -0.03227901 0.02905399 -0.04734481
v -0.03359966 0.02721137 -0.04758565
v -0.03260036 0.02833580 -0.04764123
v -0.03290603 0.02754749 -0.04797207
v -0.03271400 0.03060644 -0.04250403
v -0.03222022 0.03114326 -0.04250403
v -0.03166766 0.03165833 -0.04358123
v -0.03156578 0.03156160 -0.04465578
v -0.03100930 0.03209843 -0.04465578
v -0.03029998 0.03244906 -0.04549478
v -0.03321562 0.02672532 -0.04830290
v -0.03421493 0.02554044 -0.04823409
v -0.03448533 0.02482225 -0.04846435
v -0.03568450 0.02286597 -0.04856757
v -0.03661327 0.02156985 -0.04844582
v -0.03678570 0.02098466 -0.04858610
v -0.03743623 0.02012622 -0.04843524
v -0.03375250 0.02949409 -0.02851633
v -0.03428939 0.02888230 -0.02851633
v -0.03403858 0.02917248 -0.02693626
v -0.03326656 0.03003334 -0.02744178
v -0.03301575 0.03031142 -0.02693626
v -0.03271792 0.03061128 -0.03927773
v -0.01775570 0.03066931 -0.05233909
v -0.01663882 0.03059676 -0.05255876
v -0.01991107 0.02959324 -0.05225175
v -0.01883339 0.03066931 -0.05212206
v -0.02770570 0.02012622 -0.05275726
v -0.02785461 0.02026647 -0.05269374
v -0.02303833 0.02626830 -0.05252171
v -0.02205861 0.02851716 -0.05209824
v -0.02313238 0.02744109 -0.05215911
v -0.02550721 0.02332542 -0.05264875
v -0.02520546 0.02413308 -0.05253494
v -0.02528775 0.02528895 -0.05221205
v -0.02421007 0.02636502 -0.05219882
v -0.02625963 0.02303524 -0.05251906
v -0.02851298 0.02098466 -0.05234968
v -0.02743921 0.02313681 -0.05216176
v -0.02851298 0.02206073 -0.05209560
v -0.02098092 0.02959324 -0.05200561
v -0.01560424 0.03174538 -0.05236291
v -0.00269158 0.04105522 -0.04961830
v -0.00376927 0.04101653 -0.04959184
v -0.00161782 0.04162348 -0.04921865
v -0.00054013 0.04163799 -0.04923189
v -0.00000716 0.04163557 -0.04922924
v -0.00484304 0.04095849 -0.04954949
v -0.00699842 0.04026207 -0.04980092
v -0.00590897 0.04044343 -0.04979034
v -0.01198321 0.03770609 -0.05059757
v -0.01130133 0.03779798 -0.05064257
v -0.00914987 0.03863224 -0.05052347
v -0.00811137 0.03919325 -0.05032761
v -0.00914987 0.03927547 -0.05015293
v -0.00807219 0.04016050 -0.04973740
v -0.01560424 0.03281904 -0.05198179
v -0.01560424 0.03353239 -0.05171712
v -0.01560424 0.03406921 -0.05151333
v -0.01453047 0.03604725 -0.05091782
v -0.01560424 0.03497118 -0.05116661
v -0.01345279 0.03690569 -0.05072197
v -0.01270036 0.03758519 -0.05053935
v -0.00161782 0.04223769 -0.04868138
v -0.00269158 0.04220867 -0.04865491
v -0.00376927 0.04217240 -0.04862315
v -0.00054013 0.04224978 -0.04869196
v -0.00000716 0.04278902 -0.04813881
v -0.00000716 0.04224978 -0.04869196
v -0.00484304 0.04211920 -0.04857286
v -0.00592073 0.04204907 -0.04850405
v -0.00701801 0.04152192 -0.04881901
v -0.00739030 0.04194267 -0.04839818
v -0.00590897 0.04133330 -0.04912073
v -0.00807219 0.04187255 -0.04832408
v -0.00914987 0.04175648 -0.04819704
v -0.01022364 0.04209744 -0.04751155
v -0.01092120 0.04201038 -0.04740303
v -0.01163835 0.04190882 -0.04726276
v -0.01237510 0.04180484 -0.04709867
v -0.01311968 0.04203215 -0.04638141
v -0.01346846 0.04219658 -0.04577268
v -0.01383683 0.04191608 -0.04615909
v -0.01459709 0.04181451 -0.04577268
v -0.01560424 0.04146872 -0.04573298
v -0.01499682 0.04194026 -0.04508983
v -0.01459709 0.04217481 -0.04470077
v -0.01523195 0.04202489 -0.04437259
v -0.01345279 0.04274066 -0.04250403
v -0.01453047 0.04235859 -0.04358123
v -0.01130133 0.04336212 -0.04035492
v -0.01345279 0.04274550 -0.04035492
v -0.01345279 0.04274792 -0.03927773
v -0.01268469 0.04297764 -0.03927773
v -0.01214389 0.04312756 -0.04035492
v -0.01130133 0.04336454 -0.03927773
v -0.01130133 0.04337905 -0.03067073
v -0.01073309 0.04352655 -0.02693626
v -0.03472046 0.02834548 -0.02693626
v -0.03449317 0.02863082 -0.02693626
v -0.03093876 0.03094739 -0.04680753
v -0.03123659 0.03016392 -0.04737657
v -0.03009228 0.03224835 -0.04621203
v -0.02984148 0.03200896 -0.04680753
v -0.03040187 0.03146971 -0.04680753
v -0.03149523 0.02959324 -0.04760947
v -0.03187929 0.02866709 -0.04801177
v -0.03219671 0.02788361 -0.04835848
v -0.03222414 0.03114810 -0.04035492
v -0.03168334 0.03167284 -0.04250403
v -0.03113078 0.03221208 -0.04250403
v -0.03111119 0.03219516 -0.04358123
v -0.03047241 0.03261107 -0.04465578
v -0.02990026 0.03314790 -0.04465578
v -0.02919878 0.03348402 -0.04543920
v -0.02964553 0.03286982 -0.04582561
v -0.03249846 0.02716784 -0.04858610
v -0.03349777 0.02600714 -0.04853316
v -0.03469303 0.02421288 -0.04862580
v -0.03387399 0.02522366 -0.04869461
v -0.03388574 0.02424431 -0.04919484
v -0.03604503 0.02198094 -0.04870520
v -0.03496343 0.02312471 -0.04896722
v -0.03521032 0.02206073 -0.04929541
v -0.03601369 0.02100401 -0.04916572
v -0.03631152 0.02012622 -0.04931923
v -0.03646436 0.02012622 -0.04920277
v -0.03707570 0.02012622 -0.04873431
v -0.03375250 0.02949409 -0.02693626
v -0.03428939 0.02888472 -0.02693626
v -0.03326656 0.03003334 -0.02693626
v -0.03272968 0.03062578 -0.02693626
v -0.03223590 0.03116019 -0.02959353
v -0.01775570 0.03174538 -0.05196856
v -0.01668193 0.03174538 -0.05217235
v -0.02034215 0.03114568 -0.05162978
v -0.01995810 0.03073944 -0.05185475
v -0.01962891 0.03136815 -0.05170653
v -0.01904500 0.03208392 -0.05158214
v -0.01832785 0.03230397 -0.05165889
v -0.02809758 0.02012622 -0.05265140
v -0.02848555 0.02012622 -0.05253759
v -0.02313630 0.02853651 -0.05181505
v -0.02277576 0.02919908 -0.05169859
v -0.02198807 0.02957147 -0.05177005
v -0.02392791 0.02819072 -0.05171712
v -0.02425318 0.02749429 -0.05184681
v -0.02464506 0.02788845 -0.05162184
v -0.02636152 0.02421288 -0.05219617
v -0.02642814 0.02535424 -0.05186269
v -0.02611463 0.02611353 -0.05173565
v -0.02534654 0.02643031 -0.05186269
v -0.02502911 0.02717026 -0.05173036
v -0.02959067 0.02012622 -0.05219882
v -0.02959067 0.02098466 -0.05200296
v -0.02853649 0.02313439 -0.05181505
v -0.02819163 0.02392512 -0.05171977
v -0.02748624 0.02425641 -0.05184681
v -0.02956715 0.02199303 -0.05176741
v -0.02990810 0.02230496 -0.05157949
v -0.02919094 0.02277409 -0.05169594
v -0.02098092 0.03038639 -0.05173829
v -0.02158443 0.03017601 -0.05166683
v -0.00269158 0.04159204 -0.04919219
v -0.00376927 0.04155336 -0.04916043
v -0.00000716 0.04194751 -0.04895663
v -0.00484304 0.04149532 -0.04911014
v -0.00554060 0.04091013 -0.04951508
v -0.00699842 0.04080131 -0.04943304
v -0.00625775 0.04086177 -0.04947803
v -0.01130133 0.03833723 -0.05035937
v -0.01022364 0.03848715 -0.05044671
v -0.01235550 0.03811960 -0.05030379
v -0.01022364 0.03927547 -0.04998619
v -0.00914987 0.04005169 -0.04966594
v -0.01621558 0.03339455 -0.05166419
v -0.01661531 0.03381047 -0.05143393
v -0.01552195 0.03606418 -0.05073255
v -0.01510655 0.03660100 -0.05058170
v -0.01453047 0.03670740 -0.05063198
v -0.01668193 0.03497118 -0.05097076
v -0.01345279 0.03744493 -0.05046524
v -0.01345279 0.03819940 -0.05003648
v -0.00807219 0.04069975 -0.04935099
v -0.00807219 0.04133330 -0.04881371
v -0.00914987 0.04121723 -0.04872373
v -0.01022364 0.04109149 -0.04861257
v -0.01022364 0.04163073 -0.04805147
v -0.01135619 0.04144454 -0.04790590
v -0.01237510 0.04126559 -0.04778415
v -0.01345279 0.04109875 -0.04759889
v -0.01420913 0.04096816 -0.04744273
v -0.01346846 0.04167184 -0.04676783
v -0.01560424 0.04106247 -0.04655080
v -0.01626653 0.04094157 -0.04635759
v -0.01664666 0.04107940 -0.04570387
v -0.01734814 0.04094640 -0.04532803
v -0.01668193 0.04141068 -0.04465578
v -0.01559640 0.04181693 -0.04470077
v -0.01668193 0.04156061 -0.04358123
v -0.01588248 0.04187255 -0.04358123
v -0.01534560 0.04206600 -0.04358123
v -0.01453047 0.04238278 -0.04250403
v -0.01453047 0.04238761 -0.04035492
v -0.01345279 0.04276242 -0.03067073
v -0.01271604 0.04298731 -0.02851633
v -0.01215956 0.04313240 -0.03497422
v -0.01130133 0.04338389 -0.02744178
v -0.01217915 0.04313724 -0.02851633
v -0.01130133 0.04338389 -0.02693626
v -0.03015499 0.03123273 -0.04737127
v -0.03057430 0.03058226 -0.04758036
v -0.03009228 0.03009621 -0.04839554
v -0.03074281 0.02968029 -0.04818645
v -0.03115429 0.02899838 -0.04838230
v -0.02897541 0.03329299 -0.04615645
v -0.02930459 0.03251193 -0.04680753
v -0.02906554 0.03229430 -0.04735804
v -0.03147956 0.02828261 -0.04861521
v -0.03168726 0.03167767 -0.03927773
v -0.03114254 0.03222417 -0.03174528
v -0.03089565 0.03247082 -0.02693626
v -0.03059390 0.03272473 -0.04142683
v -0.03002174 0.03326156 -0.04250403
v -0.03057430 0.03270780 -0.04358123
v -0.03000607 0.03324463 -0.04358123
v -0.02936337 0.03362186 -0.04465578
v -0.02805447 0.03449964 -0.04532274
v -0.02851690 0.03389753 -0.04574092
v -0.03172645 0.02742175 -0.04895928
v -0.03203604 0.02636502 -0.04934570
v -0.03284333 0.02636502 -0.04879518
v -0.03287076 0.02538326 -0.04930864
v -0.03423452 0.02338587 -0.04936687
v -0.03326264 0.02462396 -0.04944098
v -0.03448141 0.02266769 -0.04952832
v -0.03542194 0.02137640 -0.04944098
v -0.03563355 0.02066063 -0.04957596
v -0.03578639 0.02012622 -0.04966859
v -0.03223590 0.03116261 -0.02693626
v -0.03223590 0.03116261 -0.02744178
v -0.03198509 0.03141168 -0.02693626
v -0.03169902 0.03168976 -0.02851633
v -0.01661531 0.03283596 -0.05179123
v -0.01995810 0.03173329 -0.05150803
v -0.02098092 0.03092563 -0.05155567
v -0.02098092 0.03174538 -0.05127248
v -0.01991107 0.03281904 -0.05112691
v -0.01874717 0.03272231 -0.05141540
v -0.01883339 0.03389511 -0.05095752
v -0.01775570 0.03389511 -0.05117984
v -0.01775570 0.03299072 -0.05151597
v -0.02349292 0.02890890 -0.05160331
v -0.02313630 0.02957147 -0.05148421
v -0.02230158 0.02991727 -0.05157949
v -0.02425318 0.02853651 -0.05152127
v -0.02534654 0.02749429 -0.05154509
v -0.02528775 0.02851716 -0.05124601
v -0.02716097 0.02503746 -0.05173036
v -0.02683179 0.02575565 -0.05162978
v -0.02575018 0.02683172 -0.05162978
v -0.02642814 0.02643031 -0.05155303
v -0.03091133 0.02012622 -0.05175417
v -0.03038228 0.02098466 -0.05173565
v -0.03017458 0.02158678 -0.05166683
v -0.02890879 0.02349227 -0.05160331
v -0.02853649 0.02425641 -0.05152127
v -0.02787812 0.02464331 -0.05162184
v -0.02956715 0.02313439 -0.05148156
v -0.03058606 0.02199303 -0.05142863
v -0.03066443 0.02313681 -0.05111368
v -0.02198807 0.03058951 -0.05142863
v -0.01237510 0.03907476 -0.04972417
v -0.01022364 0.03992111 -0.04957596
v -0.01124255 0.03933592 -0.04976652
v -0.00914987 0.04058852 -0.04926100
v -0.01668193 0.03570387 -0.05066374
v -0.01453047 0.03724423 -0.05035673
v -0.01732462 0.03556121 -0.05060022
v -0.01582370 0.03643415 -0.05050229
v -0.01552195 0.03702660 -0.05025615
v -0.01771259 0.03499536 -0.05075108
v -0.01449128 0.03825501 -0.04977181
v -0.01345279 0.03889824 -0.04960772
v -0.01022364 0.04045794 -0.04914984
v -0.01107404 0.04097784 -0.04850670
v -0.01179119 0.04087627 -0.04840877
v -0.01237510 0.04079164 -0.04832143
v -0.01345279 0.04061995 -0.04813616
v -0.01462061 0.04038539 -0.04792708
v -0.01560424 0.04017743 -0.04776033
v -0.01492628 0.04084000 -0.04727335
v -0.01455399 0.04122932 -0.04687105
v -0.01560424 0.04071426 -0.04708808
v -0.01664666 0.04051597 -0.04675195
v -0.01798299 0.03967930 -0.04714895
v -0.01851596 0.03991386 -0.04642905
v -0.01698368 0.04078922 -0.04604529
v -0.01772827 0.04061270 -0.04570387
v -0.01885690 0.04008796 -0.04575680
v -0.01955838 0.03991144 -0.04541538
v -0.01883339 0.04047486 -0.04465578
v -0.01809664 0.04080373 -0.04465578
v -0.01755975 0.04103829 -0.04465578
v -0.01826123 0.04087386 -0.04378767
v -0.01784583 0.04106973 -0.04348859
v -0.01829650 0.04089078 -0.04306777
v -0.01668193 0.04158479 -0.04250403
v -0.01591775 0.04188464 -0.04250403
v -0.01538479 0.04208051 -0.04035492
v -0.01594910 0.04189673 -0.02959353
v -0.01453047 0.04240938 -0.02744178
v -0.01345279 0.04276726 -0.02744178
v -0.01271996 0.04298731 -0.02744178
v -0.01171673 0.04326781 -0.02693626
v -0.02948878 0.03165349 -0.04756448
v -0.02967688 0.03074911 -0.04818645
v -0.02900676 0.03116261 -0.04838760
v -0.02937513 0.03044442 -0.04863109
v -0.03043714 0.02937802 -0.04863638
v -0.02782718 0.03431103 -0.04603999
v -0.02711003 0.03460120 -0.04650316
v -0.02825825 0.03359284 -0.04657727
v -0.02857568 0.03308503 -0.04688428
v -0.02792515 0.03331475 -0.04729452
v -0.02720800 0.03361218 -0.04759359
v -0.02851298 0.03252644 -0.04758036
v -0.02788988 0.03221208 -0.04836378
v -0.02859528 0.03181067 -0.04815998
v -0.03068403 0.02853651 -0.04898575
v -0.03093092 0.02767565 -0.04933246
v -0.03140902 0.03197510 -0.02693626
v -0.03114645 0.03222901 -0.02744178
v -0.03060957 0.03274166 -0.02693626
v -0.03003742 0.03327365 -0.03174528
v -0.03114645 0.03222901 -0.02693626
v -0.03002958 0.03326639 -0.03820317
v -0.03002566 0.03326156 -0.04142683
v -0.02948486 0.03372826 -0.04250403
v -0.02946918 0.03371375 -0.04358123
v -0.02883433 0.03425057 -0.04358123
v -0.02872460 0.03416110 -0.04465578
v -0.02818380 0.03460846 -0.04465578
v -0.02689057 0.03550075 -0.04516394
v -0.02745489 0.03478498 -0.04570122
v -0.03125227 0.02695988 -0.04952567
v -0.03226333 0.02580401 -0.04948861
v -0.03254549 0.02508824 -0.04964742
v -0.03287076 0.02424431 -0.04981416
v -0.03351737 0.02390577 -0.04959448
v -0.03467343 0.02206073 -0.04964477
v -0.03388574 0.02307152 -0.04970829
v -0.03502613 0.02100401 -0.04980886
v -0.03492032 0.02012622 -0.05014764
v -0.02205861 0.03174538 -0.05101045
v -0.02105538 0.03290609 -0.05082519
v -0.01984053 0.03389269 -0.05072726
v -0.01943689 0.03447062 -0.05059228
v -0.01883339 0.03462780 -0.05066109
v -0.02421007 0.02959324 -0.05119308
v -0.02313238 0.03066931 -0.05111632
v -0.02636152 0.02744109 -0.05126983
v -0.02636152 0.02851716 -0.05092841
v -0.02537005 0.02968029 -0.05083313
v -0.02748624 0.02535424 -0.05154244
v -0.02743921 0.02636502 -0.05127248
v -0.03146780 0.02012622 -0.05156097
v -0.03113470 0.02034386 -0.05162713
v -0.03091916 0.02098466 -0.05155303
v -0.03174212 0.02098466 -0.05126983
v -0.02959067 0.02421288 -0.05119308
v -0.02851298 0.02528895 -0.05124336
v -0.03174212 0.02206073 -0.05100781
v -0.03137767 0.02390336 -0.05064257
v -0.03071146 0.02424190 -0.05079078
v -0.03173820 0.02309328 -0.05073520
v -0.01237510 0.03961159 -0.04934834
v -0.01155997 0.03973491 -0.04944098
v -0.01084282 0.03983648 -0.04951508
v -0.01560424 0.03795516 -0.04969241
v -0.01804569 0.03537259 -0.05051023
v -0.01771259 0.03597229 -0.05028527
v -0.01668193 0.03624312 -0.05040172
v -0.01673679 0.03720796 -0.04984062
v -0.01410724 0.03877975 -0.04952832
v -0.01237510 0.04025482 -0.04880842
v -0.01345279 0.04008313 -0.04866550
v -0.01431493 0.03993078 -0.04853052
v -0.01503209 0.03980020 -0.04841142
v -0.01560424 0.03969139 -0.04830026
v -0.01668193 0.03995980 -0.04751949
v -0.01726584 0.03983406 -0.04737127
v -0.01883339 0.03894418 -0.04758565
v -0.01947216 0.03878942 -0.04740832
v -0.01885690 0.03951003 -0.04679694
v -0.01923311 0.03974942 -0.04613527
v -0.02031472 0.03974700 -0.04465578
v -0.01978175 0.04002509 -0.04465578
v -0.01991499 0.03957048 -0.04575680
v -0.02166673 0.03881844 -0.04537568
v -0.02044012 0.03981229 -0.04409733
v -0.02001688 0.04005411 -0.04367651
v -0.01872758 0.04068041 -0.04348859
v -0.01830042 0.04089320 -0.04250403
v -0.01775570 0.04113018 -0.04250403
v -0.01883731 0.04065381 -0.04250403
v -0.01668193 0.04158721 -0.04142683
v -0.01595302 0.04189915 -0.02693626
v -0.01668193 0.04160413 -0.03174528
v -0.01668193 0.04161139 -0.02744178
v -0.01453047 0.04240938 -0.02693626
v -0.01345279 0.04276726 -0.02693626
v -0.01271996 0.04298731 -0.02693626
v -0.02828960 0.03149389 -0.04862315
v -0.02962594 0.02962709 -0.04899369
v -0.02853649 0.03069107 -0.04898575
v -0.02987283 0.02878800 -0.04935364
v -0.02669855 0.03536050 -0.04573298
v -0.02592261 0.03558055 -0.04637347
v -0.02634585 0.03495909 -0.04679694
v -0.02676517 0.03433037 -0.04722041
v -0.02751759 0.03396040 -0.04690016
v -0.02604801 0.03459878 -0.04751949
v -0.02639287 0.03391929 -0.04791384
v -0.02673773 0.03322286 -0.04831084
v -0.02602058 0.03351062 -0.04854375
v -0.02717273 0.03250468 -0.04858610
v -0.03021377 0.02807223 -0.04954420
v -0.03004134 0.03327848 -0.02693626
v -0.03004134 0.03327848 -0.02744178
v -0.02979053 0.03349853 -0.02693626
v -0.02948878 0.03373067 -0.04035492
v -0.02885392 0.03426750 -0.04142683
v -0.02885000 0.03426508 -0.04250403
v -0.02831312 0.03471244 -0.04250403
v -0.02829352 0.03469793 -0.04358123
v -0.02701598 0.03559748 -0.04444669
v -0.02740002 0.03521299 -0.04474577
v -0.02646342 0.03591909 -0.04474577
v -0.02569532 0.03649461 -0.04465578
v -0.02515843 0.03687425 -0.04465578
v -0.02495465 0.03673159 -0.04549478
v -0.02530343 0.03633017 -0.04580444
v -0.03060957 0.02736855 -0.04966594
v -0.03066443 0.02636502 -0.05007353
v -0.03149523 0.02636502 -0.04965800
v -0.03184010 0.02538326 -0.04988827
v -0.03389358 0.02206073 -0.05007353
v -0.03173820 0.02424190 -0.05037790
v -0.03275319 0.02309328 -0.05029056
v -0.03388966 0.02105963 -0.05039907
v -0.03428547 0.02012622 -0.05047583
v -0.02308927 0.03174055 -0.05073520
v -0.02205861 0.03257964 -0.05069550
v -0.02146686 0.03332443 -0.05056052
v -0.02015012 0.03425057 -0.05049171
v -0.01984053 0.03488654 -0.05026409
v -0.01883339 0.03516463 -0.05040437
v -0.02424534 0.03071767 -0.05079343
v -0.02390831 0.03138024 -0.05064521
v -0.02743921 0.02744109 -0.05094164
v -0.02636152 0.02930306 -0.05066374
v -0.02733340 0.02842044 -0.05065315
v -0.02690625 0.02905883 -0.05057640
v -0.02578545 0.03009863 -0.05056317
v -0.02506830 0.03039122 -0.05066903
v -0.02851298 0.02636502 -0.05092841
v -0.03173429 0.02012622 -0.05146833
v -0.03283549 0.02012622 -0.05106868
v -0.03290603 0.02105963 -0.05082254
v -0.02968080 0.02537600 -0.05083313
v -0.03038228 0.02507615 -0.05067168
v -0.03257684 0.02206073 -0.05069286
v -0.03110335 0.02462154 -0.05053405
v -0.03234955 0.02270638 -0.05060551
v -0.03209482 0.02342456 -0.05049700
v -0.01345279 0.03943506 -0.04920277
v -0.01641937 0.03778106 -0.04957860
v -0.01482439 0.03864917 -0.04943568
v -0.01775570 0.03694196 -0.04972417
v -0.01890001 0.03613430 -0.04985386
v -0.01560424 0.03915456 -0.04877931
v -0.01668193 0.03893451 -0.04859404
v -0.01734422 0.03879184 -0.04847229
v -0.01668193 0.03947134 -0.04805941
v -0.01806137 0.03863466 -0.04832143
v -0.01766556 0.03923436 -0.04784768
v -0.01883339 0.03844605 -0.04812293
v -0.02022458 0.03754408 -0.04831084
v -0.02098092 0.03785360 -0.04756183
v -0.02157659 0.03769400 -0.04738451
v -0.02018539 0.03860081 -0.04715160
v -0.01986013 0.03900947 -0.04679959
v -0.02064390 0.03884262 -0.04643435
v -0.02136105 0.03865401 -0.04609557
v -0.02098092 0.03939637 -0.04465578
v -0.02203902 0.03843637 -0.04573298
v -0.02308927 0.03784877 -0.04564299
v -0.02369278 0.03767466 -0.04522481
v -0.02239563 0.03862015 -0.04465578
v -0.02185483 0.03892484 -0.04465578
v -0.02047539 0.03982922 -0.04338008
v -0.02253671 0.03870237 -0.04358123
v -0.02199591 0.03900464 -0.04358123
v -0.02089079 0.03959708 -0.04367651
v -0.01991107 0.04013874 -0.04250403
v -0.01831218 0.04089804 -0.03712598
v -0.01775570 0.04113260 -0.04142683
v -0.01884122 0.04065623 -0.04035492
v -0.01991107 0.04014358 -0.04035492
v -0.01991107 0.04014600 -0.03927773
v -0.01775570 0.04114227 -0.03604878
v -0.01668193 0.04161139 -0.02693626
v -0.01718746 0.04139859 -0.02693626
v -0.02742354 0.03173329 -0.04896193
v -0.02767434 0.03093530 -0.04934040
v -0.02878338 0.02987616 -0.04934834
v -0.02915567 0.02915797 -0.04955214
v -0.02470384 0.03655506 -0.04621467
v -0.02523289 0.03578851 -0.04676254
v -0.02555816 0.03531697 -0.04709072
v -0.02483709 0.03557571 -0.04741626
v -0.02518978 0.03490347 -0.04782650
v -0.02554248 0.03422881 -0.04823674
v -0.02482533 0.03448997 -0.04846700
v -0.02522505 0.03388060 -0.04870255
v -0.02538181 0.03286982 -0.04931658
v -0.02637328 0.03284563 -0.04880312
v -0.02954756 0.02846397 -0.04969241
v -0.02950445 0.03374518 -0.02693626
v -0.02949661 0.03373793 -0.03389703
v -0.02886176 0.03427476 -0.03497422
v -0.02832096 0.03471969 -0.03712598
v -0.02831704 0.03471486 -0.04035492
v -0.02765083 0.03525168 -0.04250403
v -0.02763124 0.03523717 -0.04358123
v -0.02709435 0.03565551 -0.04358123
v -0.02580505 0.03657199 -0.04387766
v -0.02435507 0.03741350 -0.04465578
v -0.02419831 0.03711849 -0.04571974
v -0.02948486 0.02733470 -0.05021116
v -0.03071146 0.02537600 -0.05043877
v -0.02984148 0.02636502 -0.05045201
v -0.03010012 0.02579434 -0.05056317
v -0.03311372 0.02206073 -0.05046524
v -0.03332143 0.02147071 -0.05056052
v -0.03424628 0.02014557 -0.05048906
v -0.03422668 0.02012622 -0.05050229
v -0.02270130 0.03235717 -0.05060551
v -0.02105538 0.03389269 -0.05039907
v -0.02205861 0.03311888 -0.05046789
v -0.02205861 0.03389511 -0.05007618
v -0.01991107 0.03585138 -0.04970829
v -0.02100444 0.03502680 -0.04981416
v -0.02066350 0.03564100 -0.04958390
v -0.02462547 0.03110941 -0.05053670
v -0.02341846 0.03209601 -0.05049435
v -0.02841893 0.02733470 -0.05065580
v -0.02799569 0.02799727 -0.05058170
v -0.02762340 0.02871545 -0.05043348
v -0.02733340 0.02948926 -0.05021381
v -0.02636152 0.02984231 -0.05045466
v -0.02537005 0.03071767 -0.05043877
v -0.02636152 0.03066931 -0.05007353
v -0.02930067 0.02636502 -0.05066109
v -0.02905378 0.02690669 -0.05057640
v -0.03377601 0.02012622 -0.05070080
v -0.03352913 0.02075252 -0.05065051
v -0.01560424 0.03849199 -0.04931658
v -0.01713652 0.03762388 -0.04947274
v -0.01858650 0.03673884 -0.04959713
v -0.01673679 0.03816554 -0.04918954
v -0.01772435 0.03824534 -0.04877931
v -0.01883339 0.03790680 -0.04863109
v -0.01951135 0.03773270 -0.04848553
v -0.02098092 0.03679929 -0.04859933
v -0.02158835 0.03662761 -0.04845906
v -0.02098092 0.03733612 -0.04809911
v -0.02194104 0.03705078 -0.04781856
v -0.02287374 0.03675577 -0.04753272
v -0.02359089 0.03653571 -0.04727864
v -0.02229374 0.03747395 -0.04708543
v -0.02198415 0.03788504 -0.04675989
v -0.02099268 0.03840977 -0.04679959
v -0.02270130 0.03772544 -0.04636818
v -0.02341846 0.03750539 -0.04594207
v -0.02381426 0.03774962 -0.04465578
v -0.02313238 0.03817279 -0.04465578
v -0.02049107 0.03983889 -0.04250403
v -0.02102795 0.03955597 -0.04250403
v -0.02397102 0.03784635 -0.04250403
v -0.02255631 0.03871688 -0.04250403
v -0.02448831 0.03749813 -0.04358123
v -0.02201942 0.03901673 -0.04250403
v -0.01885298 0.04066106 -0.03497422
v -0.01886866 0.04066590 -0.02851633
v -0.01861785 0.04077955 -0.02693626
v -0.01832785 0.04090529 -0.02851633
v -0.01803002 0.04103829 -0.02693626
v -0.01991107 0.04016534 -0.02851633
v -0.01775570 0.04115678 -0.02744178
v -0.01775570 0.04115678 -0.02693626
v -0.02636152 0.03203798 -0.04934570
v -0.02806623 0.03021953 -0.04954420
v -0.02695719 0.03125450 -0.04952567
v -0.02846204 0.02954729 -0.04968976
v -0.02398669 0.03678720 -0.04656139
v -0.02429236 0.03636161 -0.04687634
v -0.02421007 0.03578851 -0.04764123
v -0.02360656 0.03546690 -0.04838760
v -0.02421007 0.03524926 -0.04817851
v -0.02421007 0.03471244 -0.04863109
v -0.02423750 0.03388543 -0.04920013
v -0.02461763 0.03326397 -0.04943833
v -0.02580505 0.03227012 -0.04949126
v -0.02841893 0.02842044 -0.05022439
v -0.02886960 0.03428201 -0.02693626
v -0.02886960 0.03428201 -0.02744178
v -0.02886568 0.03427959 -0.03067073
v -0.02861879 0.03449239 -0.02693626
v -0.02833271 0.03472937 -0.02744178
v -0.02798393 0.03501471 -0.02693626
v -0.02767042 0.03526619 -0.02851633
v -0.02765475 0.03525410 -0.04035492
v -0.02711395 0.03567002 -0.04250403
v -0.02583248 0.03659133 -0.04316041
v -0.02625963 0.03626489 -0.04354417
v -0.02538181 0.03688876 -0.04354417
v -0.02871284 0.02762487 -0.05043613
v -0.02308927 0.03275616 -0.05029056
v -0.02205861 0.03467617 -0.04964477
v -0.02307360 0.03388543 -0.04971358
v -0.02267387 0.03448513 -0.04953096
v -0.01930365 0.03655023 -0.04947538
v -0.02138065 0.03542337 -0.04944098
v -0.02100444 0.03602065 -0.04917631
v -0.01991107 0.03638821 -0.04936158
v -0.02424534 0.03174055 -0.05038055
v -0.02736475 0.03061369 -0.04966859
v -0.02538181 0.03184453 -0.04989091
v -0.02636152 0.03150115 -0.04965536
v -0.01775570 0.03747879 -0.04936951
v -0.01890001 0.03710881 -0.04922130
v -0.01988756 0.03716201 -0.04878195
v -0.02199199 0.03604483 -0.04871314
v -0.02288941 0.03568453 -0.04856757
v -0.02230550 0.03640272 -0.04824997
v -0.02104754 0.03956564 -0.03174528
v -0.02051458 0.03985098 -0.02851633
v -0.02202334 0.03901914 -0.04142683
v -0.02397494 0.03784635 -0.04142683
v -0.02397494 0.03784877 -0.04035492
v -0.02451182 0.03751022 -0.04250403
v -0.02256806 0.03872171 -0.03712598
v -0.02397885 0.03785118 -0.03820317
v -0.02528775 0.03698307 -0.04250403
v -0.01886866 0.04066590 -0.02693626
v -0.01991107 0.04016776 -0.02693626
v -0.01833177 0.04090529 -0.02744178
v -0.02314022 0.03497601 -0.04896987
v -0.02339102 0.03423848 -0.04937216
v -0.02508789 0.03254579 -0.04965006
v -0.02390048 0.03352029 -0.04959448
v -0.02833271 0.03472937 -0.02693626
v -0.02767042 0.03526619 -0.02693626
v -0.02741962 0.03546448 -0.02693626
v -0.02712178 0.03567728 -0.03604878
v -0.02638112 0.03621168 -0.03927773
v -0.02637720 0.03620685 -0.04250403
v -0.02583639 0.03659617 -0.04250403
v -0.02423750 0.03286982 -0.04981416
v -0.02205861 0.03521541 -0.04929541
v -0.02152173 0.03931658 -0.02693626
v -0.02105538 0.03956806 -0.02744178
v -0.02257982 0.03872897 -0.02959353
v -0.02204686 0.03903124 -0.02693626
v -0.02451966 0.03751748 -0.03712598
v -0.02398277 0.03785360 -0.03604878
v -0.02584031 0.03659617 -0.04142683
v -0.02528775 0.03698791 -0.04035492
v -0.02105538 0.03956806 -0.02693626
v -0.02713354 0.03568453 -0.02693626
v -0.02713354 0.03568453 -0.02744178
v -0.02712962 0.03568211 -0.03067073
v -0.02639679 0.03622377 -0.02744178
v -0.02585207 0.03660584 -0.03282247
v -0.02258374 0.03873139 -0.02693626
v -0.02453141 0.03752473 -0.02959353
v -0.02528775 0.03699033 -0.03927773
v -0.02453533 0.03752715 -0.02693626
v -0.02399061 0.03785844 -0.03067073
v -0.02639679 0.03622377 -0.02693626
v -0.02585991 0.03661068 -0.02693626
v -0.02528775 0.03700484 -0.03174528
v -0.02399453 0.03786086 -0.02744178
v -0.02528775 0.03701209 -0.02744178
v -0.02528775 0.03701209 -0.02693626
f 1 2 3
f 1 3 4
f 1 4 11
f 1 11 19
f 1 19 28
f 1 28 46
f 1 46 72
f 1 72 71
f 1 71 70
f 1 70 99
f 1 99 130
f 1 130 134
f 1 134 174
f 1 174 224
f 1 224 223
f 1 223 286
f 1 286 349
f 1 349 419
f 1 419 506
f 1 506 600
f 1 600 602
f 1 602 702
f 1 702 813
f 1 813 812
f 1 812 811
f 1 811 924
f 1 924 1039
f 1 1039 1137
f 1 1137 1233
f 1 1233 1252
f 1 1252 1154
f 1 1154 1153
f 1 1153 1052
f 1 1052 948
f 1 948 839
f 1 839 827
f 1 827 826
f 1 826 713
f 1 713 613
f 1 613 515
f 1 515 427
f 1 427 355
f 1 355 293
f 1 293 231
f 1 231 230
f 1 230 227
f 1 227 179
f 1 179 138
f 1 138 103
f 1 103 74
f 1 74 49
f 1 49 29
f 1 29 20
f 1 20 12
f 1 12 5
f 1 5 6
f 1 6 2
f 2 6 7
f 2 7 3
f 3 8 15
f 3 15 17
f 3 17 26
f 3 26 25
f 3 25 37
f 3 37 59
f 3 59 58
f 3 58 86
f 3 86 115
f 3 115 153
f 3 153 152
f 3 152 194
f 3 194 193
f 3 193 242
f 3 242 241
f 3 241 303
f 3 303 365
f 3 365 440
f 3 440 532
f 3 532 534
f 3 534 633
f 3 633 732
f 3 732 851
f 3 851 754
f 3 754 753
f 3 753 653
f 3 653 560
f 3 560 559
f 3 559 558
f 3 558 468
f 3 468 467
f 3 467 395
f 3 395 327
f 3 327 264
f 3 264 263
f 3 263 262
f 3 262 254
f 3 254 203
f 3 203 161
f 3 161 121
f 3 121 91
f 3 91 62
f 3 62 39
f 3 39 27
f 3 27 18
f 3 18 11
f 3 11 4
f 3 7 9
f 3 9 10
f 3 10 8
f 5 12 6
f 6 12 13
f 6 13 14
f 6 14 7
f 7 14 9
f 8 10 15
f 9 14 10
f 10 16 17
f 10 17 15
f 10 14 16
f 11 18 19
f 12 20 21
f 12 21 22
f 12 22 13
f 13 22 14
f 14 22 23
f 14 23 16
f 16 23 35
f 16 35 24
f 16 24 25
f 16 25 26
f 16 26 17
f 18 27 40
f 18 40 65
f 18 65 94
f 18 94 93
f 18 93 124
f 18 124 167
f 18 167 212
f 18 212 270
f 18 270 269
f 18 269 331
f 18 331 398
f 18 398 483
f 18 483 486
f 18 486 579
f 18 579 677
f 18 677 783
f 18 783 895
f 18 895 1000
f 18 1000 1098
f 18 1098 1097
f 18 1097 1096
f 18 1096 1093
f 18 1093 1198
f 18 1198 1199
f 18 1199 1287
f 18 1287 1284
f 18 1284 1282
f 18 1282 1342
f 18 1342 1343
f 18 1343 1366
f 18 1366 1358
f 18 1358 1361
f 18 1361 1372
f 18 1372 1375
f 18 1375 1382
f 18 1382 1378
f 18 1378 1377
f 18 1377 1367
f 18 1367 1351
f 18 1351 1350
f 18 1350 1307
f 18 1307 1349
f 18 1349 1305
f 18 1305 1302
f 18 1302 1215
f 18 1215 1116
f 18 1116 1114
f 18 1114 1019
f 18 1019 907
f 18 907 1021
f 18 1021 1017
f 18 1017 927
f 18 927 925
f 18 925 817
f 18 817 707
f 18 707 816
f 18 816 814
f 18 814 705
f 18 705 815
f 18 815 785
f 18 785 784
f 18 784 678
f 18 678 580
f 18 580 487
f 18 487 401
f 18 401 332
f 18 332 272
f 18 272 216
f 18 216 271
f 18 271 215
f 18 215 169
f 18 169 168
f 18 168 125
f 18 125 95
f 18 95 68
f 18 68 67
f 18 67 66
f 18 66 41
f 18 41 28
f 18 28 19
f 20 29 30
f 20 30 21
f 21 30 22
f 22 30 31
f 22 31 32
f 22 32 55
f 22 55 33
f 22 33 34
f 22 34 23
f 23 34 35
f 24 36 59
f 24 59 37
f 24 37 25
f 24 35 38
f 24 38 36
f 27 39 40
f 28 41 42
f 28 42 43
f 28 43 44
f 28 44 45
f 28 45 46
f 29 47 48
f 29 48 30
f 29 49 50
f 29 50 51
f 29 51 47
f 30 48 47
f 30 47 51
f 30 51 31
f 31 51 52
f 31 52 78
f 31 78 53
f 31 53 32
f 32 54 55
f 32 53 54
f 33 55 35
f 33 35 34
f 35 56 61
f 35 61 38
f 35 55 56
f 36 57 58
f 36 58 59
f 36 38 57
f 38 60 57
f 38 61 60
f 39 62 63
f 39 63 40
f 40 63 64
f 40 64 65
f 41 66 42
f 42 66 67
f 42 67 68
f 42 68 43
f 43 68 44
f 44 68 45
f 45 69 70
f 45 70 71
f 45 71 72
f 45 72 46
f 45 68 73
f 45 73 69
f 49 74 75
f 49 75 50
f 50 75 51
f 51 75 76
f 51 76 77
f 51 77 52
f 52 77 79
f 52 79 80
f 52 80 78
f 53 81 54
f 53 78 105
f 53 105 82
f 53 82 81
f 54 81 55
f 55 83 56
f 55 81 84
f 55 84 83
f 56 83 61
f 57 85 115
f 57 115 86
f 57 86 58
f 57 60 85
f 60 87 85
f 60 61 88
f 60 88 87
f 61 83 89
f 61 89 90
f 61 90 88
f 62 91 92
f 62 92 63
f 63 92 93
f 63 93 94
f 63 94 64
f 64 94 65
f 68 95 96
f 68 96 97
f 68 97 98
f 68 98 73
f 69 99 70
f 69 73 100
f 69 100 101
f 69 101 99
f 73 98 102
f 73 102 100
f 74 103 75
f 75 103 104
f 75 104 76
f 76 104 77
f 77 104 79
f 78 80 105
f 79 104 106
f 79 106 80
f 80 106 107
f 80 107 108
f 80 108 105
f 81 82 109
f 81 109 84
f 82 105 110
f 82 110 109
f 83 84 111
f 83 111 89
f 84 112 113
f 84 113 111
f 84 109 112
f 85 114 153
f 85 153 115
f 85 87 116
f 85 116 114
f 87 88 117
f 87 117 155
f 87 155 116
f 88 90 117
f 89 111 113
f 89 113 118
f 89 118 90
f 90 119 117
f 90 118 120
f 90 120 119
f 91 121 122
f 91 122 92
f 92 122 93
f 93 122 123
f 93 123 124
f 95 125 96
f 96 125 97
f 97 125 98
f 98 125 126
f 98 126 127
f 98 127 128
f 98 128 129
f 98 129 102
f 99 101 130
f 100 102 131
f 100 131 132
f 100 132 101
f 101 132 133
f 101 133 134
f 101 134 130
f 102 129 135
f 102 135 136
f 102 136 131
f 103 137 104
f 103 138 137
f 104 139 106
f 104 137 139
f 105 108 140
f 105 140 110
f 106 139 141
f 106 141 142
f 106 142 107
f 107 142 143
f 107 143 144
f 107 144 145
f 107 145 108
f 108 145 146
f 108 146 140
f 109 110 147
f 109 147 112
f 110 140 148
f 110 148 147
f 112 149 113
f 112 147 150
f 112 150 149
f 113 149 118
f 114 151 152
f 114 152 153
f 114 116 151
f 116 154 151
f 116 155 154
f 117 119 156
f 117 156 155
f 118 149 157
f 118 157 120
f 119 120 158
f 119 158 156
f 120 157 159
f 120 159 160
f 120 160 158
f 121 161 122
f 122 162 163
f 122 163 123
f 122 161 162
f 123 163 164
f 123 164 165
f 123 165 124
f 124 165 166
f 124 166 167
f 125 168 126
f 126 168 169
f 126 169 127
f 127 169 128
f 128 169 129
f 129 169 170
f 129 170 171
f 129 171 135
f 131 172 133
f 131 133 132
f 131 136 172
f 133 173 174
f 133 174 134
f 133 172 175
f 133 175 173
f 135 176 136
f 135 171 177
f 135 177 178
f 135 178 176
f 136 176 172
f 137 138 139
f 138 179 180
f 138 180 139
f 139 180 181
f 139 181 183
f 139 183 141
f 140 146 182
f 140 182 148
f 141 183 142
f 142 183 143
f 143 183 184
f 143 184 185
f 143 185 186
f 143 186 144
f 144 186 145
f 145 186 187
f 145 187 146
f 146 187 228
f 146 228 182
f 147 148 188
f 147 188 189
f 147 189 150
f 148 182 190
f 148 190 188
f 149 150 191
f 149 191 157
f 150 189 191
f 151 192 193
f 151 193 194
f 151 194 152
f 151 154 195
f 151 195 192
f 154 155 196
f 154 196 195
f 155 156 196
f 156 197 196
f 156 158 198
f 156 198 197
f 157 191 159
f 158 160 199
f 158 199 200
f 158 200 198
f 159 191 201
f 159 201 160
f 160 201 202
f 160 202 199
f 161 203 162
f 162 204 163
f 162 203 204
f 163 205 206
f 163 206 207
f 163 207 208
f 163 208 164
f 163 204 209
f 163 209 205
f 164 208 210
f 164 210 166
f 164 166 165
f 166 210 266
f 166 266 211
f 166 211 167
f 167 211 212
f 169 213 214
f 169 214 170
f 169 215 213
f 170 216 217
f 170 217 218
f 170 218 219
f 170 219 171
f 170 214 216
f 171 219 220
f 171 220 177
f 172 176 221
f 172 221 222
f 172 222 175
f 173 223 224
f 173 224 174
f 173 175 222
f 173 222 223
f 176 178 221
f 177 220 178
f 178 220 225
f 178 225 226
f 178 226 221
f 179 227 181
f 179 181 180
f 181 227 183
f 182 228 229
f 182 229 190
f 183 227 230
f 183 230 184
f 184 230 231
f 184 231 232
f 184 232 185
f 185 233 186
f 185 232 234
f 185 234 233
f 186 235 187
f 186 233 235
f 187 235 290
f 187 290 228
f 188 190 236
f 188 236 237
f 188 237 189
f 189 238 191
f 189 237 238
f 190 229 239
f 190 239 236
f 191 238 201
f 192 240 241
f 192 241 242
f 192 242 193
f 192 195 243
f 192 243 240
f 195 196 244
f 195 244 243
f 196 197 244
f 197 245 244
f 197 198 246
f 197 246 245
f 198 200 246
f 199 202 247
f 199 247 200
f 200 247 248
f 200 248 249
f 200 249 250
f 200 250 251
f 200 251 246
f 201 238 252
f 201 252 202
f 202 252 253
f 202 253 248
f 202 248 247
f 203 254 204
f 204 254 209
f 205 255 256
f 205 256 206
f 205 209 261
f 205 261 255
f 206 256 257
f 206 257 258
f 206 258 259
f 206 259 207
f 207 259 260
f 207 260 208
f 208 260 210
f 209 254 262
f 209 262 263
f 209 263 264
f 209 264 261
f 210 260 325
f 210 325 265
f 210 265 266
f 211 267 212
f 211 266 329
f 211 329 268
f 211 268 269
f 211 269 267
f 212 267 270
f 213 215 271
f 213 271 214
f 214 271 216
f 216 272 273
f 216 273 274
f 216 274 275
f 216 275 276
f 216 276 217
f 217 276 218
f 218 276 219
f 219 276 277
f 219 277 220
f 220 277 225
f 221 226 278
f 221 278 279
f 221 279 280
f 221 280 281
f 221 281 282
f 221 282 283
f 221 283 222
f 222 283 284
f 222 284 285
f 222 285 286
f 222 286 223
f 225 277 287
f 225 287 288
f 225 288 289
f 225 289 278
f 225 278 226
f 228 290 229
f 229 290 291
f 229 291 292
f 229 292 239
f 231 293 232
f 232 293 294
f 232 294 234
f 233 295 235
f 233 234 296
f 233 296 295
f 234 294 297
f 234 297 296
f 235 298 290
f 235 295 298
f 236 299 237
f 236 239 300
f 236 300 299
f 237 299 301
f 237 301 238
f 238 301 252
f 239 292 300
f 240 302 241
f 240 243 304
f 240 304 302
f 241 302 364
f 241 364 303
f 243 244 305
f 243 305 304
f 244 245 306
f 244 306 305
f 245 246 307
f 245 307 306
f 246 251 313
f 246 313 307
f 248 308 249
f 248 253 309
f 248 309 310
f 248 310 308
f 249 308 250
f 250 311 312
f 250 312 313
f 250 313 251
f 250 308 314
f 250 314 311
f 252 301 315
f 252 315 316
f 252 316 253
f 253 316 317
f 253 317 318
f 253 318 309
f 255 319 320
f 255 320 321
f 255 321 256
f 255 261 319
f 256 321 257
f 257 321 322
f 257 322 323
f 257 323 324
f 257 324 258
f 258 324 325
f 258 325 259
f 259 325 260
f 261 326 319
f 261 264 327
f 261 327 326
f 265 325 328
f 265 328 266
f 266 328 329
f 267 269 270
f 268 329 330
f 268 330 269
f 269 330 331
f 272 332 273
f 273 333 275
f 273 275 274
f 273 332 333
f 275 333 276
f 276 333 334
f 276 334 335
f 276 335 277
f 277 335 336
f 277 336 337
f 277 337 287
f 278 289 338
f 278 338 279
f 279 289 339
f 279 339 340
f 279 340 341
f 279 341 342
f 279 342 343
f 279 343 280
f 279 338 289
f 280 343 344
f 280 344 345
f 280 345 281
f 281 345 282
f 282 346 284
f 282 284 283
f 282 345 347
f 282 347 346
f 284 346 348
f 284 348 285
f 285 348 286
f 286 348 349
f 287 337 288
f 288 337 350
f 288 350 289
f 289 350 351
f 289 351 340
f 289 340 339
f 290 298 352
f 290 352 291
f 291 352 292
f 292 352 353
f 292 353 354
f 292 354 300
f 293 355 294
f 294 355 356
f 294 356 297
f 295 357 298
f 295 296 358
f 295 358 357
f 296 297 359
f 296 359 358
f 297 356 360
f 297 360 359
f 298 361 352
f 298 357 361
f 299 300 362
f 299 362 315
f 299 315 301
f 300 354 363
f 300 363 362
f 302 304 364
f 303 364 366
f 303 366 365
f 304 367 364
f 304 305 367
f 305 368 367
f 305 306 369
f 305 369 368
f 306 307 370
f 306 370 369
f 307 313 371
f 307 371 370
f 308 310 314
f 309 318 310
f 310 318 372
f 310 372 373
f 310 373 314
f 311 314 374
f 311 374 312
f 312 374 375
f 312 375 376
f 312 376 371
f 312 371 313
f 314 373 374
f 315 362 377
f 315 377 316
f 316 377 378
f 316 378 317
f 317 378 379
f 317 379 318
f 318 379 380
f 318 380 381
f 318 381 372
f 319 382 384
f 319 384 320
f 319 326 383
f 319 383 382
f 320 384 321
f 321 384 385
f 321 385 386
f 321 386 322
f 322 386 387
f 322 387 323
f 323 387 388
f 323 388 389
f 323 389 390
f 323 390 391
f 323 391 392
f 323 392 324
f 324 392 393
f 324 393 394
f 324 394 325
f 325 394 328
f 326 327 383
f 327 395 383
f 328 394 482
f 328 482 396
f 328 396 397
f 328 397 329
f 329 397 330
f 330 398 331
f 330 397 399
f 330 399 400
f 330 400 483
f 330 483 398
f 332 401 402
f 332 402 403
f 332 403 333
f 333 403 404
f 333 404 334
f 334 404 335
f 335 404 336
f 336 404 337
f 337 405 406
f 337 406 350
f 337 404 405
f 340 351 407
f 340 407 341
f 341 408 342
f 341 407 409
f 341 409 410
f 341 410 408
f 342 411 343
f 342 408 411
f 343 411 344
f 344 411 345
f 345 411 347
f 346 347 412
f 346 412 413
f 346 413 414
f 346 414 348
f 347 411 415
f 347 415 416
f 347 416 412
f 348 414 417
f 348 417 418
f 348 418 349
f 349 418 419
f 350 406 420
f 350 420 421
f 350 421 351
f 351 421 509
f 351 509 422
f 351 422 423
f 351 423 407
f 352 361 424
f 352 424 353
f 353 425 426
f 353 426 354
f 353 424 425
f 354 426 363
f 355 427 356
f 356 427 428
f 356 428 360
f 357 358 429
f 357 429 430
f 357 430 361
f 358 359 431
f 358 431 429
f 359 360 432
f 359 432 431
f 360 428 433
f 360 433 432
f 361 434 424
f 361 430 435
f 361 435 434
f 362 363 438
f 362 438 377
f 363 426 436
f 363 436 437
f 363 437 438
f 364 367 439
f 364 439 366
f 365 366 440
f 366 441 440
f 366 439 441
f 367 368 439
f 368 442 439
f 368 369 442
f 369 443 442
f 369 370 444
f 369 444 445
f 369 445 443
f 370 371 444
f 371 446 444
f 371 376 446
f 372 447 373
f 372 381 447
f 373 447 448
f 373 448 449
f 373 449 450
f 373 450 374
f 374 451 376
f 374 376 375
f 374 450 452
f 374 452 451
f 376 451 453
f 376 453 454
f 376 454 446
f 377 438 455
f 377 455 456
f 377 456 378
f 378 456 379
f 379 456 457
f 379 457 380
f 380 457 458
f 380 458 381
f 381 458 459
f 381 459 460
f 381 460 461
f 381 461 462
f 381 462 448
f 381 448 447
f 382 463 464
f 382 464 465
f 382 465 384
f 382 383 463
f 383 466 463
f 383 395 467
f 383 467 468
f 383 468 466
f 384 465 385
f 385 465 469
f 385 469 386
f 386 469 470
f 386 470 471
f 386 471 472
f 386 472 387
f 387 472 471
f 387 471 388
f 388 471 389
f 389 391 390
f 389 471 473
f 389 473 474
f 389 474 392
f 389 392 391
f 392 474 475
f 392 475 476
f 392 476 477
f 392 477 478
f 392 478 479
f 392 479 480
f 392 480 481
f 392 481 393
f 393 481 482
f 393 482 394
f 396 482 399
f 396 399 397
f 399 480 479
f 399 479 484
f 399 484 485
f 399 485 400
f 399 482 480
f 400 485 486
f 400 486 483
f 401 487 488
f 401 488 489
f 401 489 490
f 401 490 403
f 401 403 402
f 403 490 405
f 403 405 404
f 405 490 491
f 405 491 492
f 405 492 406
f 406 492 420
f 407 423 409
f 408 493 411
f 408 410 494
f 408 494 495
f 408 495 493
f 409 423 496
f 409 496 497
f 409 497 498
f 409 498 499
f 409 499 494
f 409 494 410
f 411 493 500
f 411 500 501
f 411 501 415
f 412 416 413
f 413 416 502
f 413 502 414
f 414 502 417
f 415 501 416
f 416 501 503
f 416 503 504
f 416 504 505
f 416 505 502
f 417 502 418
f 418 506 419
f 418 502 507
f 418 507 506
f 420 492 421
f 421 508 509
f 421 492 508
f 422 510 496
f 422 496 423
f 422 509 607
f 422 607 510
f 424 434 511
f 424 511 425
f 425 512 513
f 425 513 436
f 425 436 426
f 425 511 514
f 425 514 512
f 427 515 428
f 428 515 516
f 428 516 433
f 429 517 430
f 429 431 518
f 429 518 517
f 430 517 519
f 430 519 435
f 431 432 520
f 431 520 521
f 431 521 518
f 432 433 522
f 432 522 520
f 433 516 523
f 433 523 524
f 433 524 522
f 434 435 525
f 434 525 511
f 435 526 525
f 435 519 527
f 435 527 526
f 436 528 437
f 436 513 528
f 437 529 438
f 437 528 530
f 437 530 529
f 438 529 455
f 439 531 441
f 439 442 531
f 440 441 532
f 441 533 534
f 441 534 532
f 441 531 535
f 441 535 533
f 442 536 531
f 442 443 536
f 443 537 536
f 443 445 537
f 444 446 445
f 445 538 537
f 445 446 539
f 445 539 538
f 446 454 539
f 448 462 540
f 448 540 449
f 449 540 541
f 449 541 542
f 449 542 452
f 449 452 450
f 451 452 453
f 452 542 453
f 453 543 454
f 453 542 543
f 454 543 544
f 454 544 545
f 454 545 539
f 455 546 457
f 455 457 456
f 455 529 546
f 457 546 458
f 458 546 547
f 458 547 459
f 459 547 548
f 459 548 549
f 459 549 550
f 459 550 551
f 459 551 460
f 460 552 540
f 460 540 461
f 460 551 552
f 461 540 462
f 463 553 554
f 463 554 555
f 463 555 464
f 463 466 553
f 464 555 465
f 465 555 556
f 465 556 469
f 466 557 553
f 466 468 558
f 466 558 559
f 466 559 560
f 466 560 557
f 469 556 561
f 469 561 562
f 469 562 563
f 469 563 470
f 470 562 564
f 470 564 565
f 470 565 471
f 470 563 562
f 471 565 473
f 473 565 566
f 473 566 567
f 473 567 568
f 473 568 569
f 473 569 475
f 473 475 474
f 475 569 570
f 475 570 476
f 476 570 571
f 476 571 572
f 476 572 477
f 477 573 574
f 477 574 478
f 477 572 575
f 477 575 672
f 477 672 573
f 478 574 484
f 478 484 479
f 480 482 481
f 484 574 576
f 484 576 577
f 484 577 485
f 485 577 578
f 485 578 579
f 485 579 486
f 487 580 488
f 488 580 489
f 489 580 490
f 490 580 581
f 490 581 491
f 491 581 492
f 492 581 508
f 493 495 582
f 493 582 583
f 493 583 500
f 494 499 584
f 494 584 585
f 494 585 495
f 495 585 586
f 495 586 587
f 495 587 582
f 496 510 588
f 496 588 497
f 497 588 589
f 497 589 590
f 497 590 498
f 498 584 499
f 498 590 591
f 498 591 592
f 498 592 584
f 500 583 501
f 501 583 593
f 501 593 503
f 502 594 507
f 502 505 594
f 503 593 595
f 503 595 596
f 503 596 504
f 504 597 505
f 504 596 598
f 504 598 597
f 505 597 599
f 505 599 594
f 506 507 600
f 507 594 601
f 507 601 602
f 507 602 600
f 508 603 509
f 508 581 604
f 508 604 703
f 508 703 603
f 509 603 605
f 509 605 606
f 509 606 607
f 510 607 690
f 510 690 588
f 511 525 514
f 512 608 609
f 512 609 513
f 512 514 608
f 513 609 610
f 513 610 528
f 514 525 611
f 514 611 612
f 514 612 608
f 515 613 614
f 515 614 516
f 516 614 523
f 517 518 615
f 517 615 519
f 518 521 616
f 518 616 615
f 519 615 617
f 519 617 618
f 519 618 527
f 520 522 619
f 520 619 620
f 520 620 521
f 521 620 621
f 521 621 616
f 522 524 622
f 522 622 619
f 523 623 524
f 523 614 624
f 523 624 625
f 523 625 623
f 524 623 622
f 525 526 626
f 525 626 611
f 526 527 626
f 527 618 627
f 527 627 626
f 528 610 628
f 528 628 530
f 529 530 629
f 529 629 546
f 530 628 629
f 531 536 630
f 531 630 535
f 533 535 631
f 533 631 632
f 533 632 633
f 533 633 534
f 535 630 631
f 536 537 630
f 537 634 630
f 537 538 634
f 538 635 634
f 538 539 636
f 538 636 635
f 539 545 636
f 540 552 637
f 540 637 541
f 541 638 639
f 541 639 542
f 541 637 638
f 542 639 543
f 543 639 640
f 543 640 544
f 544 640 641
f 544 641 545
f 545 641 636
f 546 629 547
f 547 629 642
f 547 642 548
f 548 642 549
f 549 551 550
f 549 642 643
f 549 643 644
f 549 644 551
f 551 644 645
f 551 645 552
f 552 645 646
f 552 646 637
f 553 647 648
f 553 648 554
f 553 557 649
f 553 649 647
f 554 648 650
f 554 650 555
f 555 650 556
f 556 650 651
f 556 651 652
f 556 652 561
f 557 560 649
f 560 653 649
f 561 652 654
f 561 654 562
f 562 654 564
f 564 654 655
f 564 655 656
f 564 656 657
f 564 657 565
f 565 657 566
f 566 658 567
f 566 657 658
f 567 658 659
f 567 659 660
f 567 660 661
f 567 661 662
f 567 662 569
f 567 569 568
f 569 662 570
f 570 662 663
f 570 663 664
f 570 664 665
f 570 665 666
f 570 666 571
f 571 666 667
f 571 667 572
f 572 667 668
f 572 668 669
f 572 669 670
f 572 670 575
f 573 671 576
f 573 576 574
f 573 672 776
f 573 776 671
f 575 670 673
f 575 673 674
f 575 674 672
f 576 671 675
f 576 675 577
f 577 675 676
f 577 676 578
f 578 676 579
f 579 676 677
f 580 678 679
f 580 679 680
f 580 680 681
f 580 681 581
f 581 681 682
f 581 682 604
f 582 587 583
f 583 587 593
f 584 592 683
f 584 683 684
f 584 684 685
f 584 685 585
f 585 685 686
f 585 686 586
f 586 686 587
f 587 687 593
f 587 686 688
f 587 688 689
f 587 689 687
f 588 690 691
f 588 691 589
f 589 691 692
f 589 692 693
f 589 693 590
f 590 693 591
f 591 693 694
f 591 694 695
f 591 695 683
f 591 683 592
f 593 687 696
f 593 696 697
f 593 697 595
f 594 599 601
f 595 697 698
f 595 698 596
f 596 698 598
f 597 598 599
f 598 698 699
f 598 699 599
f 599 699 700
f 599 700 601
f 601 700 701
f 601 701 702
f 601 702 602
f 603 703 605
f 604 682 704
f 604 704 705
f 604 705 703
f 605 706 707
f 605 707 708
f 605 708 606
f 605 703 706
f 606 708 690
f 606 690 607
f 608 709 710
f 608 710 609
f 608 612 709
f 609 710 628
f 609 628 610
f 611 626 711
f 611 711 612
f 612 711 712
f 612 712 709
f 613 713 714
f 613 714 614
f 614 714 624
f 615 616 617
f 616 715 617
f 616 621 715
f 617 715 618
f 618 716 627
f 618 715 717
f 618 717 716
f 619 622 718
f 619 718 620
f 620 718 719
f 620 719 720
f 620 720 621
f 621 720 721
f 621 721 715
f 622 623 718
f 623 625 722
f 623 722 718
f 624 714 723
f 624 723 625
f 625 724 722
f 625 723 725
f 625 725 724
f 626 627 711
f 627 726 711
f 627 716 726
f 628 710 727
f 628 727 629
f 629 727 642
f 630 728 631
f 630 634 729
f 630 729 728
f 631 730 731
f 631 731 632
f 631 728 730
f 632 731 633
f 633 731 732
f 634 635 729
f 635 733 729
f 635 636 734
f 635 734 735
f 635 735 733
f 636 641 734
f 637 646 736
f 637 736 737
f 637 737 638
f 638 738 639
f 638 737 738
f 639 738 640
f 640 739 641
f 640 738 740
f 640 740 739
f 641 739 741
f 641 741 734
f 642 727 742
f 642 742 743
f 642 743 643
f 643 743 744
f 643 744 644
f 644 745 645
f 644 744 746
f 644 746 745
f 645 747 646
f 645 745 747
f 646 747 748
f 646 748 736
f 647 749 750
f 647 750 648
f 647 649 749
f 648 750 751
f 648 751 650
f 649 752 749
f 649 653 753
f 649 753 754
f 649 754 752
f 650 751 755
f 650 755 651
f 651 755 756
f 651 756 652
f 652 757 758
f 652 758 654
f 652 756 759
f 652 759 757
f 654 758 655
f 655 758 760
f 655 760 656
f 656 761 762
f 656 762 657
f 656 760 761
f 657 762 658
f 658 762 659
f 659 762 763
f 659 763 660
f 660 763 764
f 660 764 661
f 661 764 765
f 661 765 766
f 661 766 662
f 662 766 663
f 663 766 664
f 664 766 767
f 664 767 665
f 665 767 768
f 665 768 769
f 665 769 770
f 665 770 771
f 665 771 668
f 665 668 666
f 666 668 667
f 668 771 772
f 668 772 773
f 668 773 669
f 669 774 673
f 669 673 670
f 669 773 775
f 669 775 888
f 669 888 774
f 671 776 781
f 671 781 675
f 672 674 776
f 673 774 777
f 673 777 778
f 673 778 779
f 673 779 780
f 673 780 674
f 674 780 781
f 674 781 776
f 675 782 783
f 675 783 676
f 675 781 782
f 676 783 677
f 678 784 679
f 679 784 785
f 679 785 681
f 679 681 680
f 681 785 704
f 681 704 682
f 683 786 787
f 683 787 684
f 683 695 788
f 683 788 789
f 683 789 790
f 683 790 786
f 684 787 685
f 685 787 686
f 686 787 791
f 686 791 688
f 687 689 696
f 688 791 792
f 688 792 793
f 688 793 689
f 689 793 696
f 690 708 794
f 690 794 691
f 691 794 795
f 691 795 692
f 692 795 796
f 692 796 797
f 692 797 694
f 692 694 693
f 694 797 910
f 694 910 798
f 694 798 695
f 695 798 799
f 695 799 800
f 695 800 801
f 695 801 788
f 696 793 802
f 696 802 803
f 696 803 697
f 697 803 698
f 698 804 699
f 698 803 805
f 698 805 806
f 698 806 804
f 699 807 700
f 699 804 808
f 699 808 809
f 699 809 807
f 700 807 701
f 701 807 810
f 701 810 811
f 701 811 812
f 701 812 813
f 701 813 702
f 703 705 814
f 703 814 816
f 703 816 706
f 704 815 705
f 704 785 815
f 706 816 707
f 707 817 708
f 708 817 818
f 708 818 794
f 709 819 820
f 709 820 727
f 709 727 710
f 709 712 819
f 711 726 821
f 711 821 822
f 711 822 712
f 712 822 823
f 712 823 824
f 712 824 825
f 712 825 819
f 713 826 714
f 714 826 827
f 714 827 723
f 715 721 717
f 716 717 828
f 716 828 829
f 716 829 830
f 716 830 726
f 717 831 828
f 717 721 832
f 717 832 833
f 717 833 831
f 718 722 719
f 719 722 834
f 719 834 720
f 720 834 835
f 720 835 836
f 720 836 837
f 720 837 721
f 721 837 838
f 721 838 833
f 721 833 832
f 722 724 834
f 723 827 839
f 723 839 840
f 723 840 725
f 724 725 841
f 724 841 842
f 724 842 843
f 724 843 834
f 725 840 844
f 725 844 845
f 725 845 846
f 725 846 841
f 726 847 821
f 726 830 848
f 726 848 847
f 727 820 742
f 728 849 730
f 728 729 849
f 729 850 849
f 729 733 850
f 730 849 750
f 730 750 749
f 730 749 731
f 731 749 752
f 731 752 754
f 731 754 851
f 731 851 732
f 733 852 850
f 733 735 853
f 733 853 852
f 734 854 855
f 734 855 735
f 734 741 854
f 735 855 853
f 736 856 857
f 736 857 738
f 736 738 737
f 736 748 858
f 736 858 856
f 738 857 740
f 739 740 741
f 740 857 859
f 740 859 860
f 740 860 741
f 741 860 854
f 742 820 861
f 742 861 743
f 743 861 744
f 744 861 862
f 744 862 746
f 745 746 863
f 745 863 864
f 745 864 865
f 745 865 747
f 746 862 866
f 746 866 863
f 747 865 748
f 748 865 864
f 748 864 867
f 748 867 868
f 748 868 858
f 750 849 751
f 751 849 850
f 751 850 755
f 755 850 852
f 755 852 756
f 756 852 759
f 757 759 855
f 757 855 854
f 757 854 869
f 757 869 870
f 757 870 758
f 758 870 871
f 758 871 760
f 759 852 855
f 760 871 872
f 760 872 761
f 761 872 873
f 761 873 762
f 762 873 763
f 763 873 874
f 763 874 875
f 763 875 876
f 763 876 764
f 764 876 765
f 765 876 877
f 765 877 878
f 765 878 766
f 766 878 879
f 766 879 768
f 766 768 767
f 768 879 880
f 768 880 770
f 768 770 769
f 770 880 881
f 770 881 771
f 771 773 772
f 771 881 882
f 771 882 883
f 771 883 884
f 771 884 773
f 773 884 883
f 773 883 885
f 773 885 886
f 773 886 887
f 773 887 775
f 774 888 889
f 774 889 777
f 775 887 888
f 777 889 778
f 778 890 891
f 778 891 779
f 778 889 890
f 779 891 892
f 779 892 780
f 780 892 781
f 781 892 782
f 782 893 783
f 782 892 891
f 782 891 894
f 782 894 893
f 783 893 895
f 786 790 896
f 786 896 787
f 787 897 898
f 787 898 899
f 787 899 900
f 787 900 791
f 787 896 897
f 788 801 901
f 788 901 902
f 788 902 789
f 789 902 903
f 789 903 790
f 790 903 896
f 791 900 792
f 792 900 793
f 793 900 904
f 793 904 802
f 794 905 795
f 794 818 928
f 794 928 905
f 795 905 796
f 796 906 907
f 796 907 908
f 796 908 909
f 796 909 910
f 796 910 797
f 796 905 906
f 798 910 911
f 798 911 799
f 799 911 912
f 799 912 800
f 800 901 801
f 800 912 913
f 800 913 914
f 800 914 901
f 802 904 915
f 802 915 916
f 802 916 917
f 802 917 803
f 803 917 918
f 803 918 805
f 804 806 919
f 804 919 808
f 805 918 920
f 805 920 806
f 806 920 919
f 807 809 810
f 808 919 809
f 809 919 921
f 809 921 922
f 809 922 810
f 810 922 811
f 811 922 923
f 811 923 924
f 817 925 926
f 817 926 818
f 818 926 927
f 818 927 928
f 819 825 820
f 820 825 929
f 820 929 861
f 821 930 822
f 821 847 931
f 821 931 932
f 821 932 930
f 822 930 823
f 823 930 824
f 824 930 933
f 824 933 825
f 825 934 935
f 825 935 936
f 825 936 937
f 825 937 862
f 825 862 861
f 825 861 929
f 825 933 934
f 828 831 938
f 828 938 829
f 829 938 939
f 829 939 940
f 829 940 830
f 830 940 848
f 831 833 941
f 831 941 938
f 833 838 942
f 833 942 943
f 833 943 941
f 834 843 944
f 834 944 835
f 835 944 945
f 835 945 836
f 836 946 837
f 836 945 947
f 836 947 946
f 837 946 942
f 837 942 838
f 839 948 840
f 840 948 949
f 840 949 950
f 840 950 844
f 841 846 951
f 841 951 842
f 842 951 952
f 842 952 953
f 842 953 843
f 843 953 944
f 844 950 845
f 845 954 846
f 845 950 955
f 845 955 956
f 845 956 954
f 846 954 951
f 847 848 931
f 848 940 957
f 848 957 931
f 852 853 855
f 854 860 869
f 856 858 859
f 856 859 857
f 858 958 859
f 858 868 958
f 859 959 860
f 859 958 960
f 859 960 959
f 860 959 961
f 860 961 869
f 862 937 936
f 862 936 866
f 863 866 962
f 863 962 864
f 864 963 867
f 864 962 964
f 864 964 965
f 864 965 966
f 864 966 963
f 866 936 967
f 866 967 964
f 866 964 962
f 867 963 868
f 868 963 968
f 868 968 969
f 868 969 958
f 869 961 870
f 870 961 871
f 871 961 872
f 872 961 970
f 872 970 971
f 872 971 873
f 873 971 972
f 873 972 973
f 873 973 874
f 874 973 875
f 875 973 876
f 876 973 974
f 876 974 877
f 877 975 976
f 877 976 977
f 877 977 878
f 877 974 975
f 878 977 978
f 878 978 879
f 879 979 880
f 879 978 977
f 879 977 979
f 880 979 980
f 880 980 981
f 880 981 982
f 880 982 983
f 880 983 881
f 881 983 882
f 882 983 984
f 882 984 985
f 882 985 986
f 882 986 987
f 882 987 988
f 882 988 989
f 882 989 883
f 883 989 990
f 883 990 885
f 885 990 991
f 885 991 992
f 885 992 993
f 885 993 994
f 885 994 886
f 886 994 887
f 887 994 888
f 888 994 889
f 889 994 995
f 889 995 996
f 889 996 997
f 889 997 890
f 890 997 998
f 890 998 891
f 891 998 999
f 891 999 893
f 891 893 894
f 893 999 1000
f 893 1000 895
f 896 903 1001
f 896 1001 1002
f 896 1002 897
f 897 1002 898
f 898 1002 1003
f 898 1003 1004
f 898 1004 1005
f 898 1005 900
f 898 900 899
f 900 1005 904
f 901 914 1006
f 901 1006 1007
f 901 1007 1008
f 901 1008 1009
f 901 1009 902
f 902 1009 903
f 903 1003 1001
f 903 1009 1010
f 903 1010 1011
f 903 1011 1012
f 903 1012 1013
f 903 1013 1014
f 903 1014 1003
f 904 1005 1015
f 904 1015 1016
f 904 1016 915
f 905 928 906
f 906 928 1017
f 906 1017 1018
f 906 1018 907
f 907 1019 1020
f 907 1020 908
f 907 1018 1021
f 908 1020 1022
f 908 1022 1023
f 908 1023 909
f 909 1023 1024
f 909 1024 1025
f 909 1025 911
f 909 911 910
f 911 1025 912
f 912 1025 1026
f 912 1026 1027
f 912 1027 913
f 913 1006 914
f 913 1027 1028
f 913 1028 1029
f 913 1029 1030
f 913 1030 1006
f 915 1016 1031
f 915 1031 916
f 916 1032 918
f 916 918 917
f 916 1031 1032
f 918 1032 920
f 919 920 921
f 920 1032 1033
f 920 1033 1034
f 920 1034 1035
f 920 1035 921
f 921 1036 922
f 921 1035 1037
f 921 1037 1036
f 922 1036 923
f 923 1036 1038
f 923 1038 924
f 924 1038 1039
f 925 927 926
f 927 1017 928
f 930 932 933
f 931 957 932
f 932 957 1040
f 932 1040 1041
f 932 1041 933
f 933 1042 935
f 933 935 934
f 933 1041 1042
f 935 1042 1043
f 935 1043 1044
f 935 1044 967
f 935 967 936
f 938 941 1045
f 938 1045 939
f 939 1045 1046
f 939 1046 940
f 940 1046 957
f 941 943 1045
f 942 946 1047
f 942 1047 943
f 943 1047 1048
f 943 1048 1049
f 943 1049 1045
f 944 953 1050
f 944 1050 945
f 945 1050 1051
f 945 1051 947
f 946 947 1047
f 947 1051 1047
f 948 1052 1053
f 948 1053 1054
f 948 1054 949
f 949 1054 950
f 950 1054 1055
f 950 1055 955
f 951 954 1056
f 951 1056 952
f 952 1057 953
f 952 1056 1057
f 953 1057 1051
f 953 1051 1050
f 954 956 1056
f 955 1055 1058
f 955 1058 956
f 956 1059 1060
f 956 1060 1056
f 956 1058 1061
f 956 1061 1059
f 957 1046 1040
f 958 969 1062
f 958 1062 1063
f 958 1063 1064
f 958 1064 960
f 959 970 961
f 959 960 1064
f 959 1064 970
f 963 966 1065
f 963 1065 968
f 964 967 1044
f 964 1044 1043
f 964 1043 1066
f 964 1066 1067
f 964 1067 1068
f 964 1068 965
f 965 1068 966
f 966 1068 1069
f 966 1069 1065
f 968 1070 969
f 968 1065 1070
f 969 1070 1062
f 970 1064 1063
f 970 1063 1071
f 970 1071 971
f 971 1071 972
f 972 1071 1072
f 972 1072 973
f 973 1072 974
f 974 1072 1073
f 974 1073 1074
f 974 1074 975
f 975 1074 976
f 976 1074 1075
f 976 1075 1076
f 976 1076 977
f 977 1076 979
f 979 1076 1077
f 979 1077 980
f 980 1077 981
f 981 1078 1079
f 981 1079 1080
f 981 1080 982
f 981 1077 1078
f 982 1080 1081
f 982 1081 983
f 983 1081 985
f 983 985 984
f 985 1081 986
f 986 1082 1083
f 986 1083 987
f 986 1081 1084
f 986 1084 1085
f 986 1085 1082
f 987 990 988
f 987 1083 1086
f 987 1086 990
f 988 990 989
f 990 1086 1087
f 990 1087 1088
f 990 1088 992
f 990 992 991
f 992 1089 1090
f 992 1090 993
f 992 1088 1091
f 992 1091 1089
f 993 1090 1193
f 993 1193 1092
f 993 1092 994
f 994 996 995
f 994 1092 996
f 996 1093 997
f 996 1092 1094
f 996 1094 1095
f 996 1095 1093
f 997 1093 1096
f 997 1096 1097
f 997 1097 998
f 998 1097 1098
f 998 1098 999
f 999 1098 1000
f 1001 1003 1002
f 1003 1014 1013
f 1003 1013 1099
f 1003 1099 1004
f 1004 1100 1005
f 1004 1099 1101
f 1004 1101 1100
f 1005 1100 1102
f 1005 1102 1015
f 1006 1030 1103
f 1006 1103 1007
f 1007 1103 1104
f 1007 1104 1105
f 1007 1105 1106
f 1007 1106 1107
f 1007 1107 1008
f 1008 1107 1010
f 1008 1010 1009
f 1010 1107 1106
f 1010 1106 1011
f 1011 1106 1108
f 1011 1108 1109
f 1011 1109 1110
f 1011 1110 1013
f 1011 1013 1012
f 1013 1110 1111
f 1013 1111 1112
f 1013 1112 1099
f 1015 1102 1016
f 1016 1102 1113
f 1016 1113 1031
f 1017 1021 1018
f 1019 1114 1115
f 1019 1115 1020
f 1020 1115 1116
f 1020 1116 1022
f 1022 1116 1117
f 1022 1117 1023
f 1023 1117 1024
f 1024 1117 1118
f 1024 1118 1119
f 1024 1119 1026
f 1024 1026 1025
f 1026 1119 1120
f 1026 1120 1121
f 1026 1121 1028
f 1026 1028 1027
f 1028 1121 1122
f 1028 1122 1123
f 1028 1123 1029
f 1029 1122 1124
f 1029 1124 1125
f 1029 1125 1126
f 1029 1126 1127
f 1029 1127 1128
f 1029 1128 1103
f 1029 1103 1030
f 1029 1123 1122
f 1031 1113 1129
f 1031 1129 1130
f 1031 1130 1131
f 1031 1131 1032
f 1032 1131 1033
f 1033 1131 1132
f 1033 1132 1034
f 1034 1133 1037
f 1034 1037 1035
f 1034 1132 1134
f 1034 1134 1135
f 1034 1135 1133
f 1036 1037 1133
f 1036 1133 1038
f 1038 1133 1136
f 1038 1136 1039
f 1039 1136 1137
f 1040 1046 1138
f 1040 1138 1139
f 1040 1139 1041
f 1041 1139 1140
f 1041 1140 1042
f 1042 1140 1043
f 1043 1141 1142
f 1043 1142 1143
f 1043 1143 1066
f 1043 1140 1141
f 1045 1049 1144
f 1045 1144 1046
f 1046 1145 1138
f 1046 1144 1145
f 1047 1051 1146
f 1047 1146 1048
f 1048 1147 1049
f 1048 1146 1148
f 1048 1148 1149
f 1048 1149 1147
f 1049 1147 1150
f 1049 1150 1151
f 1049 1151 1144
f 1051 1057 1152
f 1051 1152 1146
f 1052 1153 1053
f 1053 1153 1055
f 1053 1055 1054
f 1055 1153 1154
f 1055 1154 1155
f 1055 1155 1058
f 1056 1156 1057
f 1056 1060 1157
f 1056 1157 1156
f 1057 1156 1152
f 1058 1155 1158
f 1058 1158 1061
f 1059 1159 1157
f 1059 1157 1060
f 1059 1061 1160
f 1059 1160 1161
f 1059 1161 1159
f 1061 1158 1160
f 1062 1070 1162
f 1062 1162 1072
f 1062 1072 1071
f 1062 1071 1063
f 1065 1069 1163
f 1065 1163 1164
f 1065 1164 1070
f 1066 1143 1067
f 1067 1165 1069
f 1067 1069 1068
f 1067 1143 1166
f 1067 1166 1165
f 1069 1165 1163
f 1070 1164 1162
f 1072 1162 1073
f 1073 1164 1167
f 1073 1167 1074
f 1073 1162 1164
f 1074 1167 1168
f 1074 1168 1075
f 1075 1168 1169
f 1075 1169 1170
f 1075 1170 1076
f 1076 1170 1171
f 1076 1171 1172
f 1076 1172 1077
f 1077 1172 1078
f 1078 1172 1171
f 1078 1171 1173
f 1078 1173 1079
f 1079 1174 1175
f 1079 1175 1176
f 1079 1176 1177
f 1079 1177 1178
f 1079 1178 1080
f 1079 1173 1174
f 1080 1178 1081
f 1081 1178 1179
f 1081 1179 1180
f 1081 1180 1084
f 1082 1181 1086
f 1082 1086 1083
f 1082 1085 1181
f 1084 1180 1085
f 1085 1180 1182
f 1085 1182 1183
f 1085 1183 1184
f 1085 1184 1185
f 1085 1185 1186
f 1085 1186 1181
f 1086 1187 1087
f 1086 1181 1186
f 1086 1186 1185
f 1086 1185 1188
f 1086 1188 1189
f 1086 1189 1190
f 1086 1190 1187
f 1087 1187 1191
f 1087 1191 1088
f 1088 1191 1091
f 1089 1192 1193
f 1089 1193 1090
f 1089 1091 1194
f 1089 1194 1192
f 1091 1191 1195
f 1091 1195 1196
f 1091 1196 1194
f 1092 1193 1197
f 1092 1197 1094
f 1093 1095 1198
f 1094 1197 1199
f 1094 1199 1095
f 1095 1199 1198
f 1099 1112 1200
f 1099 1200 1201
f 1099 1201 1101
f 1100 1101 1202
f 1100 1202 1102
f 1101 1201 1202
f 1102 1202 1203
f 1102 1203 1113
f 1103 1128 1204
f 1103 1204 1104
f 1104 1204 1205
f 1104 1205 1206
f 1104 1206 1105
f 1105 1206 1106
f 1106 1206 1207
f 1106 1207 1108
f 1108 1207 1208
f 1108 1208 1209
f 1108 1209 1109
f 1109 1209 1110
f 1110 1209 1111
f 1111 1209 1210
f 1111 1210 1211
f 1111 1211 1212
f 1111 1212 1213
f 1111 1213 1112
f 1112 1213 1200
f 1113 1203 1214
f 1113 1214 1129
f 1114 1116 1115
f 1116 1215 1216
f 1116 1216 1117
f 1117 1216 1217
f 1117 1217 1118
f 1118 1217 1218
f 1118 1218 1219
f 1118 1219 1120
f 1118 1120 1119
f 1120 1219 1309
f 1120 1309 1220
f 1120 1220 1221
f 1120 1221 1121
f 1121 1221 1122
f 1122 1222 1223
f 1122 1223 1125
f 1122 1125 1124
f 1122 1221 1222
f 1125 1223 1126
f 1126 1224 1184
f 1126 1184 1127
f 1126 1223 1224
f 1127 1225 1204
f 1127 1204 1128
f 1127 1184 1225
f 1129 1214 1226
f 1129 1226 1130
f 1130 1227 1132
f 1130 1132 1131
f 1130 1226 1228
f 1130 1228 1229
f 1130 1229 1227
f 1132 1227 1134
f 1133 1135 1230
f 1133 1230 1231
f 1133 1231 1136
f 1134 1161 1135
f 1134 1227 1159
f 1134 1159 1161
f 1135 1161 1230
f 1136 1231 1137
f 1137 1231 1232
f 1137 1232 1233
f 1138 1234 1139
f 1138 1145 1234
f 1139 1234 1140
f 1140 1235 1141
f 1140 1234 1236
f 1140 1236 1237
f 1140 1237 1235
f 1141 1235 1142
f 1142 1238 1166
f 1142 1166 1143
f 1142 1235 1237
f 1142 1237 1239
f 1142 1239 1240
f 1142 1240 1238
f 1144 1151 1241
f 1144 1241 1145
f 1145 1242 1234
f 1145 1241 1242
f 1146 1152 1243
f 1146 1243 1244
f 1146 1244 1148
f 1147 1149 1150
f 1148 1244 1149
f 1149 1244 1245
f 1149 1245 1246
f 1149 1246 1247
f 1149 1247 1150
f 1150 1248 1241
f 1150 1241 1151
f 1150 1247 1249
f 1150 1249 1248
f 1152 1156 1250
f 1152 1250 1251
f 1152 1251 1243
f 1154 1252 1155
f 1155 1252 1253
f 1155 1253 1231
f 1155 1231 1158
f 1156 1157 1229
f 1156 1229 1250
f 1157 1159 1229
f 1158 1231 1160
f 1159 1227 1229
f 1160 1231 1161
f 1161 1231 1230
f 1163 1254 1164
f 1163 1165 1255
f 1163 1255 1254
f 1164 1254 1167
f 1165 1256 1255
f 1165 1166 1256
f 1166 1238 1256
f 1167 1254 1168
f 1168 1257 1258
f 1168 1258 1169
f 1168 1254 1257
f 1169 1258 1259
f 1169 1259 1171
f 1169 1171 1170
f 1171 1259 1260
f 1171 1260 1173
f 1173 1260 1174
f 1174 1261 1262
f 1174 1262 1263
f 1174 1263 1175
f 1174 1260 1261
f 1175 1263 1176
f 1176 1262 1264
f 1176 1264 1265
f 1176 1265 1266
f 1176 1266 1267
f 1176 1267 1268
f 1176 1268 1269
f 1176 1269 1177
f 1176 1263 1262
f 1177 1269 1179
f 1177 1179 1178
f 1179 1269 1268
f 1179 1268 1180
f 1180 1268 1270
f 1180 1270 1182
f 1182 1270 1271
f 1182 1271 1183
f 1183 1271 1184
f 1184 1272 1273
f 1184 1273 1185
f 1184 1271 1225
f 1184 1224 1272
f 1185 1273 1188
f 1187 1274 1191
f 1187 1190 1189
f 1187 1189 1275
f 1187 1275 1274
f 1188 1276 1277
f 1188 1277 1189
f 1188 1273 1278
f 1188 1278 1276
f 1189 1277 1279
f 1189 1279 1275
f 1191 1274 1195
f 1192 1194 1280
f 1192 1280 1281
f 1192 1281 1282
f 1192 1282 1283
f 1192 1283 1284
f 1192 1284 1197
f 1192 1197 1193
f 1194 1196 1280
f 1195 1274 1196
f 1196 1274 1285
f 1196 1285 1281
f 1196 1281 1280
f 1197 1284 1286
f 1197 1286 1199
f 1199 1286 1287
f 1200 1213 1288
f 1200 1288 1201
f 1201 1289 1202
f 1201 1288 1290
f 1201 1290 1289
f 1202 1289 1203
f 1203 1289 1291
f 1203 1291 1214
f 1204 1225 1271
f 1204 1271 1270
f 1204 1270 1292
f 1204 1292 1293
f 1204 1293 1205
f 1205 1293 1206
f 1206 1293 1207
f 1207 1293 1266
f 1207 1266 1294
f 1207 1294 1295
f 1207 1295 1296
f 1207 1296 1208
f 1208 1296 1209
f 1209 1296 1295
f 1209 1295 1210
f 1210 1297 1211
f 1210 1295 1297
f 1211 1297 1298
f 1211 1298 1299
f 1211 1299 1212
f 1212 1300 1213
f 1212 1299 1300
f 1213 1300 1288
f 1214 1291 1301
f 1214 1301 1226
f 1215 1302 1303
f 1215 1303 1304
f 1215 1304 1217
f 1215 1217 1216
f 1217 1304 1305
f 1217 1305 1306
f 1217 1306 1218
f 1218 1307 1308
f 1218 1308 1309
f 1218 1309 1219
f 1218 1306 1307
f 1220 1310 1222
f 1220 1222 1221
f 1220 1309 1310
f 1222 1310 1311
f 1222 1311 1312
f 1222 1312 1223
f 1223 1311 1313
f 1223 1313 1278
f 1223 1278 1224
f 1223 1312 1311
f 1224 1278 1272
f 1226 1301 1314
f 1226 1314 1228
f 1228 1314 1251
f 1228 1251 1229
f 1229 1251 1250
f 1231 1253 1252
f 1231 1252 1232
f 1232 1252 1233
f 1234 1242 1236
f 1236 1242 1315
f 1236 1315 1237
f 1237 1316 1239
f 1237 1315 1317
f 1237 1317 1318
f 1237 1318 1316
f 1238 1319 1256
f 1238 1240 1319
f 1239 1316 1240
f 1240 1316 1318
f 1240 1318 1320
f 1240 1320 1321
f 1240 1321 1322
f 1240 1322 1319
f 1241 1323 1242
f 1241 1248 1323
f 1242 1323 1315
f 1243 1251 1244
f 1244 1251 1314
f 1244 1314 1301
f 1244 1301 1245
f 1245 1301 1246
f 1246 1301 1291
f 1246 1291 1324
f 1246 1324 1249
f 1246 1249 1247
f 1248 1249 1325
f 1248 1325 1323
f 1249 1326 1325
f 1249 1324 1290
f 1249 1290 1326
f 1254 1255 1257
f 1255 1256 1327
f 1255 1327 1257
f 1256 1319 1327
f 1257 1327 1258
f 1258 1327 1259
f 1259 1327 1328
f 1259 1328 1329
f 1259 1329 1260
f 1260 1329 1261
f 1261 1329 1322
f 1261 1322 1321
f 1261 1321 1262
f 1262 1330 1331
f 1262 1331 1295
f 1262 1295 1332
f 1262 1332 1264
f 1262 1321 1330
f 1264 1332 1295
f 1264 1295 1265
f 1265 1295 1266
f 1266 1270 1267
f 1266 1295 1294
f 1266 1293 1292
f 1266 1292 1270
f 1267 1270 1268
f 1272 1278 1273
f 1274 1275 1333
f 1274 1333 1334
f 1274 1334 1285
f 1275 1279 1335
f 1275 1335 1333
f 1276 1336 1337
f 1276 1337 1277
f 1276 1278 1338
f 1276 1338 1336
f 1277 1339 1335
f 1277 1335 1279
f 1277 1337 1340
f 1277 1340 1339
f 1278 1313 1341
f 1278 1341 1338
f 1281 1342 1282
f 1281 1285 1343
f 1281 1343 1342
f 1282 1284 1344
f 1282 1344 1283
f 1283 1344 1284
f 1284 1287 1286
f 1285 1334 1343
f 1288 1300 1290
f 1289 1290 1324
f 1289 1324 1291
f 1290 1300 1326
f 1295 1331 1345
f 1295 1345 1297
f 1297 1345 1346
f 1297 1346 1298
f 1298 1346 1299
f 1299 1347 1300
f 1299 1346 1348
f 1299 1348 1347
f 1300 1347 1325
f 1300 1325 1326
f 1302 1305 1303
f 1303 1305 1304
f 1305 1349 1306
f 1306 1349 1307
f 1307 1350 1308
f 1308 1350 1351
f 1308 1351 1309
f 1309 1351 1352
f 1309 1352 1310
f 1310 1352 1353
f 1310 1353 1354
f 1310 1354 1311
f 1311 1355 1341
f 1311 1341 1313
f 1311 1354 1355
f 1315 1323 1356
f 1315 1356 1317
f 1317 1356 1348
f 1317 1348 1318
f 1318 1348 1346
f 1318 1346 1345
f 1318 1345 1357
f 1318 1357 1320
f 1319 1322 1328
f 1319 1328 1327
f 1320 1357 1321
f 1321 1357 1330
f 1322 1329 1328
f 1323 1325 1356
f 1325 1347 1356
f 1330 1357 1331
f 1331 1357 1345
f 1333 1335 1358
f 1333 1358 1359
f 1333 1359 1334
f 1334 1359 1343
f 1335 1339 1360
f 1335 1360 1361
f 1335 1361 1358
f 1336 1338 1337
f 1337 1338 1340
f 1338 1341 1362
f 1338 1362 1340
f 1339 1340 1363
f 1339 1363 1360
f 1340 1362 1363
f 1341 1355 1364
f 1341 1364 1365
f 1341 1365 1362
f 1343 1359 1366
f 1347 1348 1356
f 1351 1367 1368
f 1351 1368 1369
f 1351 1369 1352
f 1352 1370 1353
f 1352 1369 1370
f 1353 1370 1371
f 1353 1371 1364
f 1353 1364 1354
f 1354 1364 1355
f 1358 1366 1359
f 1360 1372 1361
f 1360 1363 1372
f 1362 1373 1363
f 1362 1365 1374
f 1362 1374 1373
f 1363 1373 1375
f 1363 1375 1376
f 1363 1376 1372
f 1364 1371 1374
f 1364 1374 1365
f 1367 1377 1370
f 1367 1370 1368
f 1368 1370 1369
f 1370 1377 1378
f 1370 1378 1371
f 1371 1378 1379
f 1371 1379 1374
f 1372 1376 1380
f 1372 1380 1375
f 1373 1374 1379
f 1373 1379 1375
f 1375 1380 1376
f 1375 1379 1381
f 1375 1381 1382
f 1378 1382 1381
f 1378 1381 1379

