# https://github.com/mikedh/trimesh
v 0.02789862 -0.00000371 -0.04698682
v 0.02789862 0.00088190 -0.04698682
v 0.02951975 -0.00000371 -0.04072269
v 0.02789862 -0.00000371 -0.03509592
v 0.02789862 0.00115987 -0.04691710
v 0.02951975 0.00093362 -0.04072269
v 0.03092214 -0.00000371 -0.03300456
v 0.03081277 -0.00000371 -0.00742023
v 0.02789862 0.03226601 0.05463349
v 0.02789862 0.00264988 -0.04653866
v 0.02939839 0.00279533 -0.04072269
v 0.03079778 0.00292785 -0.03300456
v 0.03092214 0.00097887 -0.03300456
v 0.04056654 -0.00000371 0.02179910
v 0.04264315 -0.00000371 0.05463349
v 0.02789862 0.03227571 0.05464345
v 0.02789862 0.00307976 -0.04632953
v 0.02916017 0.00464088 -0.04072269
v 0.03054907 0.00486390 -0.03300456
v 0.04006761 0.00647997 0.02179910
v 0.04039873 0.00390072 0.02179910
v 0.04056654 0.00130208 0.02179910
v 0.04133515 -0.00000371 0.02702751
v 0.04271207 -0.00000371 0.05472312
v 0.02789862 0.03236297 0.05471316
v 0.02789862 0.00443726 -0.04565232
v 0.02789862 0.00545215 -0.04490541
v 0.02789862 0.00626019 -0.04430788
v 0.02880358 0.00646704 -0.04072269
v 0.03017450 0.00678056 -0.03300456
v 0.03957019 0.00903337 0.02179910
v 0.04162432 0.00673208 0.03252480
v 0.04196892 0.00405263 0.03252480
v 0.04214272 0.00135380 0.03252480
v 0.04214272 -0.00000371 0.03252480
v 0.04297727 -0.00000371 0.05475300
v 0.02789862 0.03271851 0.05475300
v 0.02789862 0.03239530 0.05472312
v 0.02789862 0.00756597 -0.04302318
v 0.02833162 0.00827058 -0.04072269
v 0.02968007 0.00867137 -0.03300456
v 0.03890944 0.01154797 0.02179910
v 0.04110742 0.00938244 0.03252480
v 0.04249782 0.00687106 0.04356919
v 0.04284841 0.00413667 0.04356919
v 0.04302671 0.00138288 0.04356919
v 0.04257872 -0.00000371 0.03796234
v 0.04297727 0.00138935 0.05475300
v 0.04314657 -0.00000371 0.05463349
v 0.02991080 0.03089235 0.05475300
v 0.02798402 0.03287042 0.05463349
v 0.02789862 0.03293829 0.05463349
v 0.02789862 0.00814129 -0.04245553
v 0.02789862 0.00956990 -0.04072269
v 0.02906578 0.01052338 -0.03300456
v 0.03866822 0.01227844 0.02179910
v 0.03906976 0.01227844 0.02438840
v 0.04032831 0.01227844 0.03252480
v 0.04041971 0.01199724 0.03252480
v 0.04126923 0.01224935 0.04356919
v 0.04196892 0.00958283 0.04356919
v 0.04214272 0.00961838 0.05429489
v 0.04267162 0.00690015 0.05429489
v 0.04302671 0.00415283 0.05429489
v 0.04320500 0.00138935 0.05429489
v 0.04302671 -0.00000371 0.04356919
v 0.04280047 0.00413667 0.05475300
v 0.04314657 0.00138935 0.05463349
v 0.04296977 0.00414960 0.05463349
v 0.04320500 -0.00000371 0.05429489
v 0.03182860 0.02891428 0.05475300
v 0.03003366 0.03100871 0.05463349
v 0.02802298 0.03291244 0.05428493
v 0.02789862 0.03301263 0.05428493
v 0.02789862 0.01009674 -0.03980647
v 0.02832113 0.01227844 -0.03317386
v 0.02835409 0.01227844 -0.03300456
v 0.03808989 0.01402056 0.02179910
v 0.03957019 0.01456356 0.03252480
v 0.04040023 0.01487062 0.04356919
v 0.04041821 0.01227844 0.03359040
v 0.04136362 0.01227844 0.04947480
v 0.04144003 0.01230106 0.05428493
v 0.04144453 0.01227844 0.05429489
v 0.04138460 0.01228813 0.05463349
v 0.04208579 0.00960869 0.05463349
v 0.04261468 0.00689369 0.05463349
v 0.04244688 0.00687106 0.05475300
v 0.03361604 0.02681338 0.05475300
v 0.03375238 0.02691681 0.05463349
v 0.03195894 0.02902094 0.05463349
v 0.03007262 0.03105072 0.05428493
v 0.02995126 0.03092144 0.04356919
v 0.02790761 0.03277669 0.04356919
v 0.02789862 0.03278315 0.04356919
v 0.02789862 0.01214269 -0.03559387
v 0.02820277 0.01227844 -0.03377139
v 0.02833162 0.01233662 -0.03299460
v 0.03711151 0.01643174 0.02179910
v 0.03855436 0.01706847 0.03252480
v 0.03936342 0.01742401 0.04356919
v 0.03952673 0.01749835 0.05428493
v 0.04056504 0.01493203 0.05428493
v 0.04051260 0.01491263 0.05463349
v 0.04035079 0.01486092 0.05475300
v 0.04121979 0.01224288 0.05475300
v 0.04192098 0.00957637 0.05475300
v 0.03526414 0.02460583 0.05475300
v 0.03540498 0.02469633 0.05463349
v 0.03545442 0.02472865 0.05428493
v 0.03379733 0.02694913 0.05428493
v 0.03200090 0.02905972 0.05428493
v 0.03187055 0.02894013 0.04356919
v 0.02933547 0.03028794 0.03252480
v 0.02789862 0.03277022 0.04341980
v 0.02789862 0.01227844 -0.03527518
v 0.02789862 0.01323192 -0.03299460
v 0.03598481 0.01877504 0.02179910
v 0.03738270 0.01950228 0.03252480
v 0.03816630 0.01990953 0.04356919
v 0.03832362 0.01999356 0.05428493
v 0.03827268 0.01997094 0.05463349
v 0.03947430 0.01747572 0.05463349
v 0.03931698 0.01741108 0.05475300
v 0.03676541 0.02229808 0.05475300
v 0.03691524 0.02238212 0.05463349
v 0.03696469 0.02240797 0.05428493
v 0.03530909 0.02462845 0.04356919
v 0.03365949 0.02683924 0.04356919
v 0.03121430 0.02834542 0.03252480
v 0.02789862 0.03159049 0.03252480
v 0.03004715 0.02728528 0.02179910
v 0.02823873 0.02915345 0.02179910
v 0.02789862 0.03025885 0.02580256
v 0.02789862 0.02946051 0.02179910
v 0.03173420 0.02530397 0.02179910
v 0.03329091 0.02321601 0.02179910
v 0.03470978 0.02104078 0.02179910
v 0.03605523 0.02185851 0.03252480
v 0.03681186 0.02231747 0.04356919
v 0.03811986 0.01989337 0.05475300
v 0.03458392 0.02412101 0.03252480
v 0.03296728 0.02628655 0.03252480
f 1 2 6
f 1 6 3
f 1 3 7
f 1 7 14
f 1 14 23
f 1 23 35
f 1 35 47
f 1 47 66
f 1 66 70
f 1 70 49
f 1 49 36
f 1 36 24
f 1 24 15
f 1 15 8
f 1 8 4
f 1 4 9
f 1 9 16
f 1 16 25
f 1 25 38
f 1 38 37
f 1 37 52
f 1 52 74
f 1 74 95
f 1 95 115
f 1 115 131
f 1 131 134
f 1 134 135
f 1 135 117
f 1 117 116
f 1 116 96
f 1 96 75
f 1 75 54
f 1 54 53
f 1 53 39
f 1 39 28
f 1 28 27
f 1 27 26
f 1 26 17
f 1 17 10
f 1 10 5
f 1 5 2
f 2 5 6
f 3 6 13
f 3 13 7
f 4 8 9
f 5 10 11
f 5 11 6
f 6 11 12
f 6 12 13
f 7 13 22
f 7 22 14
f 8 15 9
f 9 15 16
f 10 17 11
f 11 17 18
f 11 18 19
f 11 19 12
f 12 19 20
f 12 20 21
f 12 21 22
f 12 22 13
f 14 22 23
f 15 24 25
f 15 25 16
f 17 26 18
f 18 26 27
f 18 27 28
f 18 28 29
f 18 29 19
f 19 29 30
f 19 30 31
f 19 31 20
f 20 31 32
f 20 32 33
f 20 33 21
f 21 33 22
f 22 33 34
f 22 34 23
f 23 34 35
f 24 36 37
f 24 37 38
f 24 38 25
f 28 39 40
f 28 40 29
f 29 40 41
f 29 41 30
f 30 41 31
f 31 41 42
f 31 42 43
f 31 43 32
f 32 43 44
f 32 44 33
f 33 44 45
f 33 45 46
f 33 46 34
f 34 46 47
f 34 47 35
f 36 48 67
f 36 67 88
f 36 88 107
f 36 107 106
f 36 106 105
f 36 105 124
f 36 124 141
f 36 141 125
f 36 125 108
f 36 108 89
f 36 89 71
f 36 71 50
f 36 50 37
f 36 49 68
f 36 68 48
f 37 50 51
f 37 51 52
f 39 53 40
f 40 53 54
f 40 54 55
f 40 55 41
f 41 55 56
f 41 56 42
f 42 56 57
f 42 57 58
f 42 58 59
f 42 59 43
f 43 59 60
f 43 60 61
f 43 61 44
f 44 61 62
f 44 62 63
f 44 63 64
f 44 64 45
f 45 64 46
f 46 64 65
f 46 65 70
f 46 70 66
f 46 66 47
f 48 68 69
f 48 69 67
f 49 70 65
f 49 65 68
f 50 71 72
f 50 72 51
f 51 72 92
f 51 92 73
f 51 73 74
f 51 74 52
f 54 75 55
f 55 75 76
f 55 76 77
f 55 77 78
f 55 78 56
f 56 78 57
f 57 78 79
f 57 79 58
f 58 79 80
f 58 80 81
f 58 81 59
f 59 81 60
f 60 81 80
f 60 80 82
f 60 82 61
f 61 82 83
f 61 83 62
f 62 84 85
f 62 85 86
f 62 86 87
f 62 87 63
f 62 83 84
f 63 87 69
f 63 69 64
f 64 69 65
f 65 69 68
f 67 69 88
f 69 87 88
f 71 89 90
f 71 90 91
f 71 91 72
f 72 91 92
f 73 92 93
f 73 93 94
f 73 94 74
f 74 94 95
f 75 96 76
f 76 97 98
f 76 98 77
f 76 96 97
f 77 98 99
f 77 99 78
f 78 99 100
f 78 100 79
f 79 100 80
f 80 101 102
f 80 102 103
f 80 103 83
f 80 83 82
f 80 100 101
f 83 103 104
f 83 104 85
f 83 85 84
f 85 104 105
f 85 105 106
f 85 106 107
f 85 107 86
f 86 107 87
f 87 107 88
f 89 108 90
f 90 109 110
f 90 110 111
f 90 111 112
f 90 112 91
f 90 108 109
f 91 112 92
f 92 112 113
f 92 113 93
f 93 113 114
f 93 114 115
f 93 115 94
f 94 115 95
f 96 116 97
f 97 117 98
f 97 116 117
f 98 117 118
f 98 118 99
f 99 118 100
f 100 118 119
f 100 119 101
f 101 119 120
f 101 120 102
f 102 120 121
f 102 121 122
f 102 122 123
f 102 123 104
f 102 104 103
f 104 123 105
f 105 123 124
f 108 125 126
f 108 126 109
f 109 126 110
f 110 127 128
f 110 128 129
f 110 129 111
f 110 126 127
f 111 129 112
f 112 129 113
f 113 129 130
f 113 130 114
f 114 131 115
f 114 130 132
f 114 132 133
f 114 133 134
f 114 134 131
f 117 135 133
f 117 133 132
f 117 132 136
f 117 136 137
f 117 137 138
f 117 138 118
f 118 138 119
f 119 138 139
f 119 139 140
f 119 140 120
f 120 140 121
f 121 140 127
f 121 127 122
f 122 127 126
f 122 126 141
f 122 141 124
f 122 124 123
f 125 141 126
f 127 140 128
f 128 140 139
f 128 139 142
f 128 142 129
f 129 142 143
f 129 143 130
f 130 143 136
f 130 136 132
f 133 135 134
f 136 143 142
f 136 142 137
f 137 142 138
f 138 142 139

