# https://github.com/mikedh/trimesh
v -0.00717792 0.01809211 -0.05475300
v 0.00012289 0.01809211 -0.05475300
v -0.00806672 0.01809211 -0.05471012
v -0.00866476 0.01924366 -0.05456006
v -0.00741773 0.01978991 -0.05456006
v -0.00674925 0.01827665 -0.05475300
v 0.00012289 0.01963736 -0.05475300
v 0.00012289 0.01809211 -0.04794639
v -0.00886860 0.01809211 -0.05466725
v -0.00988031 0.01861868 -0.05456006
v -0.00934523 0.02057484 -0.05400266
v -0.00800527 0.02116292 -0.05400266
v -0.00663534 0.02166242 -0.05400266
v -0.00613173 0.02025496 -0.05456006
v -0.00556518 0.01869987 -0.05475300
v -0.00062353 0.01962013 -0.05475300
v 0.00012289 0.02065604 -0.05463509
v -0.01518917 0.01809211 -0.04329432
v 0.00012289 0.04266106 0.05462437
v -0.01518917 0.03984861 0.05462437
v -0.01076312 0.01809211 -0.05456006
v -0.01116930 0.01809211 -0.05448502
v -0.01064471 0.01990556 -0.05400266
v -0.01046186 0.02282382 -0.05175166
v -0.00897801 0.02347833 -0.05175166
v -0.00745670 0.02403442 -0.05175166
v -0.00523393 0.02207334 -0.05400266
v -0.00589941 0.02449455 -0.05175166
v -0.00482026 0.02063635 -0.05456006
v -0.00435412 0.01904928 -0.05475300
v -0.00187805 0.01950941 -0.05475300
v -0.00077791 0.02126627 -0.05456006
v 0.00012289 0.02129087 -0.05456006
v -0.01518917 0.01809211 -0.05298435
v 0.00012289 0.04272996 0.05471012
v -0.01518917 0.03992243 0.05471012
v -0.01291694 0.01809211 -0.05410986
v -0.01309830 0.01831848 -0.05400266
v -0.01189624 0.01915262 -0.05400266
v -0.01190073 0.02207580 -0.05175166
v -0.01132068 0.02448717 -0.04799999
v -0.00972893 0.02519336 -0.04799999
v -0.00809220 0.02579374 -0.04799999
v -0.00642401 0.02628832 -0.04799999
v -0.00380705 0.02239321 -0.05400266
v -0.00431965 0.02484888 -0.05175166
v -0.00472733 0.02667709 -0.04799999
v -0.00348780 0.02093409 -0.05456006
v -0.00312208 0.01931994 -0.05475300
v -0.00213735 0.02114324 -0.05456006
v -0.00090981 0.02275492 -0.05400266
v 0.00012289 0.02278691 -0.05400266
v -0.01518917 0.01849564 -0.05271638
v -0.01483544 0.01809211 -0.05318802
v 0.00012289 0.04299324 0.05475300
v -0.01518917 0.04020294 0.05475300
v -0.01338457 0.01809211 -0.05400266
v -0.01462261 0.02031402 -0.05175166
v -0.01329165 0.02123674 -0.05175166
v -0.01286598 0.02368256 -0.04799999
v -0.01213755 0.02618498 -0.04072174
v -0.01043488 0.02693792 -0.04072174
v -0.00868724 0.02758259 -0.04072174
v -0.00690363 0.02811161 -0.04072174
v -0.00236517 0.02261959 -0.05400266
v -0.00271590 0.02510478 -0.05175166
v -0.00300667 0.02695514 -0.04799999
v -0.00508705 0.02852745 -0.04072174
v -0.00110016 0.02525733 -0.05175166
v 0.00012289 0.02529425 -0.05175166
v -0.01518917 0.01986373 -0.05175166
v -0.00000751 0.04299816 0.05475300
v 0.00012289 0.04315564 0.05463509
v -0.01355694 0.04080578 0.05475300
v -0.01518917 0.04038502 0.05462437
v -0.01518917 0.02102759 -0.04992942
v -0.01435582 0.02277953 -0.04799999
v -0.01518917 0.02447733 -0.04072174
v -0.01379076 0.02532377 -0.04072174
v -0.01518917 0.03763655 0.02180258
v -0.01278804 0.03851743 0.02180258
v -0.01029549 0.03925807 0.02180258
v -0.00127252 0.02712246 -0.04799999
v -0.00324798 0.02882272 -0.04072174
v -0.00139243 0.02900235 -0.04072174
v -0.00775796 0.03983877 0.02180258
v -0.00519047 0.04025215 0.02180258
v 0.00012289 0.02716675 -0.04799999
v -0.00000302 0.04316794 0.05462437
v -0.00276836 0.04307936 0.05462437
v -0.00276236 0.04290958 0.05475300
v 0.00012289 0.04316302 0.05462437
v -0.01091300 0.04159071 0.05475300
v -0.01360490 0.04096818 0.05462437
v -0.01518917 0.04044653 0.05428136
v -0.01518917 0.02219883 -0.04799999
v -0.01518917 0.02405657 -0.04210450
v -0.01518917 0.02612100 -0.03300401
v -0.01448172 0.02654914 -0.03300401
v -0.01518917 0.03931466 0.03252165
v -0.01328565 0.04001347 0.03252165
v -0.01069417 0.04078363 0.03252165
v 0.00012289 0.02905156 -0.04072174
v -0.00260199 0.04050067 0.02180258
v -0.00000002 0.04058679 0.02180258
v -0.00805923 0.04138648 0.03252165
v -0.00539281 0.04181462 0.03252165
v -0.00270241 0.04207544 0.03252165
v -0.00000002 0.04322700 0.05428136
v -0.00277136 0.04313595 0.05428136
v -0.00552920 0.04287021 0.05428136
v -0.00552321 0.04281362 0.05462437
v -0.00550672 0.04264384 0.05475300
v 0.00012289 0.04321962 0.05428136
v -0.00822560 0.04220339 0.05475300
v -0.00824958 0.04237071 0.05462437
v -0.01095197 0.04175310 0.05462437
v -0.01096396 0.04181216 0.05428136
v -0.01361839 0.04102231 0.05428136
v -0.01356443 0.04085253 0.04356229
v -0.01518917 0.04037271 0.05011164
v -0.01518917 0.03957795 0.03560875
v -0.01091900 0.04163992 0.04356229
v 0.00012289 0.04058186 0.02180258
v -0.00000002 0.04216156 0.03252165
v 0.00012289 0.04208282 0.03200714
v -0.00822560 0.04225260 0.04356229
v -0.00550522 0.04269305 0.04356229
v -0.00275936 0.04295879 0.04356229
v -0.00000002 0.04304737 0.04356229
v 0.00012289 0.04321223 0.05379900
v 0.00012289 0.04304245 0.04356229
v -0.00826157 0.04242730 0.05428136
v -0.01518917 0.04025461 0.04356229
v 0.00012289 0.04215664 0.03252165
f 1 2 8
f 1 8 18
f 1 18 34
f 1 34 54
f 1 54 57
f 1 57 37
f 1 37 22
f 1 22 21
f 1 21 9
f 1 9 3
f 1 3 4
f 1 4 5
f 1 5 6
f 1 6 15
f 1 15 30
f 1 30 49
f 1 49 31
f 1 31 16
f 1 16 7
f 1 7 2
f 2 7 17
f 2 17 33
f 2 33 52
f 2 52 70
f 2 70 88
f 2 88 103
f 2 103 124
f 2 124 126
f 2 126 135
f 2 135 132
f 2 132 131
f 2 131 114
f 2 114 92
f 2 92 73
f 2 73 55
f 2 55 35
f 2 35 19
f 2 19 8
f 3 9 10
f 3 10 4
f 4 10 11
f 4 11 12
f 4 12 5
f 5 12 13
f 5 13 14
f 5 14 6
f 6 14 15
f 7 16 17
f 8 19 20
f 8 20 18
f 9 21 10
f 10 21 22
f 10 22 23
f 10 23 11
f 11 23 24
f 11 24 25
f 11 25 12
f 12 25 26
f 12 26 13
f 13 27 14
f 13 26 28
f 13 28 27
f 14 27 29
f 14 29 15
f 15 29 30
f 16 31 32
f 16 32 17
f 17 32 33
f 18 20 36
f 18 36 56
f 18 56 75
f 18 75 95
f 18 95 121
f 18 121 134
f 18 134 122
f 18 122 100
f 18 100 80
f 18 80 98
f 18 98 78
f 18 78 97
f 18 97 96
f 18 96 76
f 18 76 71
f 18 71 53
f 18 53 34
f 19 35 20
f 20 35 36
f 22 37 38
f 22 38 39
f 22 39 23
f 23 39 40
f 23 40 24
f 24 40 41
f 24 41 42
f 24 42 25
f 25 42 43
f 25 43 26
f 26 43 44
f 26 44 28
f 27 45 29
f 27 28 46
f 27 46 45
f 28 44 47
f 28 47 46
f 29 45 48
f 29 48 30
f 30 48 49
f 31 49 50
f 31 50 32
f 32 51 52
f 32 52 33
f 32 50 51
f 34 53 54
f 35 55 36
f 36 55 56
f 37 57 38
f 38 57 53
f 38 53 58
f 38 58 39
f 39 58 59
f 39 59 40
f 40 60 41
f 40 59 60
f 41 60 61
f 41 61 42
f 42 61 62
f 42 62 63
f 42 63 43
f 43 63 64
f 43 64 44
f 44 64 47
f 45 65 48
f 45 46 66
f 45 66 65
f 46 47 67
f 46 67 66
f 47 64 68
f 47 68 67
f 48 65 50
f 48 50 49
f 50 65 51
f 51 65 69
f 51 69 52
f 52 69 70
f 53 71 58
f 53 57 54
f 55 72 91
f 55 91 113
f 55 113 115
f 55 115 93
f 55 93 74
f 55 74 56
f 55 73 72
f 56 74 75
f 58 71 76
f 58 76 77
f 58 77 59
f 59 77 60
f 60 77 78
f 60 78 79
f 60 79 61
f 61 79 80
f 61 80 62
f 62 80 63
f 63 80 81
f 63 81 82
f 63 82 64
f 64 82 68
f 65 66 69
f 66 67 83
f 66 83 69
f 67 68 84
f 67 84 85
f 67 85 83
f 68 82 86
f 68 86 87
f 68 87 84
f 69 83 88
f 69 88 70
f 72 73 89
f 72 89 90
f 72 90 91
f 73 92 89
f 74 93 94
f 74 94 75
f 75 94 95
f 76 96 77
f 77 96 97
f 77 97 78
f 78 98 79
f 79 98 99
f 79 99 80
f 80 100 101
f 80 101 81
f 80 99 98
f 81 101 102
f 81 102 82
f 82 102 86
f 83 85 103
f 83 103 88
f 84 87 85
f 85 87 104
f 85 104 105
f 85 105 103
f 86 102 106
f 86 106 87
f 87 106 107
f 87 107 108
f 87 108 104
f 89 109 90
f 89 92 109
f 90 109 110
f 90 110 111
f 90 111 112
f 90 112 91
f 91 112 113
f 92 114 109
f 93 115 116
f 93 116 117
f 93 117 94
f 94 117 118
f 94 118 119
f 94 119 95
f 95 119 120
f 95 120 121
f 100 122 101
f 101 122 120
f 101 120 123
f 101 123 102
f 102 123 106
f 103 105 124
f 104 108 105
f 105 108 125
f 105 125 126
f 105 126 124
f 106 123 127
f 106 127 128
f 106 128 107
f 107 128 108
f 108 128 129
f 108 129 130
f 108 130 125
f 109 130 129
f 109 129 110
f 109 114 131
f 109 131 132
f 109 132 130
f 110 129 111
f 111 129 128
f 111 128 127
f 111 127 133
f 111 133 112
f 112 116 115
f 112 115 113
f 112 133 116
f 116 133 118
f 116 118 117
f 118 133 123
f 118 123 119
f 119 123 120
f 120 122 134
f 120 134 121
f 123 133 127
f 125 135 126
f 125 130 132
f 125 132 135

