# https://github.com/mikedh/trimesh
v 0.02789673 0.00656892 -0.03313482
v 0.00012466 0.02372276 -0.04363205
v 0.01822163 0.01573964 -0.04363205
v 0.02789673 0.01317787 -0.03313482
v 0.02789673 0.01301641 -0.00740216
v 0.00012466 0.04266338 0.05463744
v 0.00012466 0.03051828 -0.00731549
v 0.00012466 0.02829735 -0.04363205
v 0.01822163 0.02203644 -0.04363205
v 0.02747264 0.01406050 -0.03313482
v 0.02789673 0.01323527 -0.03299037
v 0.02789673 0.03226918 0.05462780
v 0.00012466 0.04272796 0.05471448
v 0.00047263 0.02830812 -0.04363205
v 0.00012466 0.02905082 -0.04071402
v 0.01739793 0.02269303 -0.04363205
v 0.01784920 0.02329580 -0.04071402
v 0.01822163 0.02299800 -0.04071402
v 0.02300617 0.02047210 -0.03313482
v 0.02427026 0.01898312 -0.03313482
v 0.02541747 0.01744749 -0.03313482
v 0.02543650 0.01741878 -0.03313482
v 0.02649942 0.01578628 -0.03313482
v 0.02745905 0.01408561 -0.03313482
v 0.02748080 0.01409996 -0.03299037
v 0.02789673 0.02945984 0.02180710
v 0.02789673 0.03235888 0.05471448
v 0.00012466 0.04299347 0.05475300
v 0.00228858 0.02825071 -0.04363205
v 0.00047263 0.02906158 -0.04071402
v 0.00012466 0.04057880 0.02179747
v 0.01591092 0.02372993 -0.04363205
v 0.01631869 0.02435782 -0.04071402
v 0.01822163 0.02474890 -0.03300963
v 0.01869193 0.02441881 -0.03299037
v 0.02022244 0.02319892 -0.03299037
v 0.02164964 0.02187139 -0.03313482
v 0.02428929 0.01900106 -0.03299037
v 0.02545553 0.01743672 -0.03299037
v 0.02652117 0.01580063 -0.03299037
v 0.02630641 0.03090577 0.02180710
v 0.02789673 0.03159106 0.03252584
v 0.02789673 0.03271767 0.05474337
v 0.00012466 0.04316569 0.05463744
v 0.01822163 0.03893195 0.05475300
v 0.00275072 0.04291094 0.05475300
v 0.00409365 0.02807490 -0.04363205
v 0.00233479 0.02900059 -0.04071402
v 0.00418880 0.02882119 -0.04071402
v 0.00260392 0.04049987 0.02179747
v 0.00012466 0.04215749 0.03251621
v 0.01495401 0.02431118 -0.04363205
v 0.01472566 0.02531938 -0.04071402
v 0.01541887 0.02654645 -0.03300963
v 0.01708530 0.02553466 -0.03300963
v 0.02214169 0.03401291 0.02180710
v 0.02427298 0.03252751 0.02180710
v 0.02733128 0.03210414 0.03252584
v 0.02789673 0.03276790 0.04341792
v 0.02789673 0.03293653 0.05462780
v 0.02786682 0.03274637 0.05474337
v 0.00012466 0.04322309 0.05429074
v 0.00276703 0.04307958 0.05463744
v 0.00277519 0.04313698 0.05429074
v 0.01612568 0.03985404 0.05475300
v 0.02571106 0.03446140 0.05474337
v 0.02344928 0.03603649 0.05474337
v 0.02109507 0.03746808 0.05474337
v 0.01865115 0.03874179 0.05474337
v 0.01872999 0.03889248 0.05462780
v 0.01822163 0.03911493 0.05463744
v 0.01619636 0.04001191 0.05463744
v 0.00549639 0.04264544 0.05475300
v 0.00552358 0.04281407 0.05463744
v 0.00588513 0.02778428 -0.04363205
v 0.00602922 0.02852339 -0.04071402
v 0.00519192 0.04025230 0.02179747
v 0.00270451 0.04207496 0.03251621
v 0.00012466 0.04300423 0.04306159
v 0.01435866 0.02466997 -0.04363205
v 0.01307825 0.02618048 -0.04071402
v 0.01368719 0.02745061 -0.03300963
v 0.01822163 0.03624818 0.02179747
v 0.01991797 0.03536197 0.02180710
v 0.02300345 0.03533326 0.03252584
v 0.02521630 0.03378687 0.03252584
v 0.02574640 0.03449728 0.04356237
v 0.02789673 0.03278225 0.04356237
v 0.02789673 0.03294012 0.05461817
v 0.02581708 0.03459415 0.05462780
v 0.00012466 0.04304011 0.04356237
v 0.00276159 0.04295759 0.04356237
v 0.00553173 0.04286789 0.05429074
v 0.00550727 0.04269208 0.04356237
v 0.01354311 0.04080843 0.05475300
v 0.02354715 0.03618001 0.05462780
v 0.02118206 0.03761159 0.05462780
v 0.01875717 0.03894271 0.05428111
v 0.01621810 0.04006573 0.05429074
v 0.01360020 0.04096630 0.05463744
v 0.00821760 0.04220413 0.05475300
v 0.00825294 0.04237276 0.05463744
v 0.00826653 0.04242658 0.05429074
v 0.00656204 0.02763359 -0.04363205
v 0.00784516 0.02810720 -0.04071402
v 0.00776089 0.03983610 0.02179747
v 0.00820129 0.02947060 -0.03300963
v 0.00539581 0.04181304 0.03251621
v 0.00806264 0.04138249 0.03251621
v 0.01275203 0.02550595 -0.04363205
v 0.01109104 0.02624148 -0.04363205
v 0.01137648 0.02693395 -0.04071402
v 0.01190115 0.02824354 -0.03300963
v 0.01760725 0.03656392 0.02179747
v 0.01822163 0.03783763 0.03139907
v 0.02069002 0.03673255 0.03252584
v 0.02112497 0.03750754 0.04356237
v 0.02348190 0.03607596 0.04356237
v 0.02585242 0.03464080 0.05428111
v 0.02789673 0.03300829 0.05428111
v 0.00823391 0.04225436 0.04356237
v 0.01089803 0.04159059 0.05475300
v 0.01094968 0.04175564 0.05463744
v 0.02357977 0.03622307 0.05428111
v 0.02121197 0.03765823 0.05428111
v 0.01867834 0.03878484 0.04356237
v 0.01615014 0.03990068 0.04356237
v 0.01356486 0.04085507 0.04356237
v 0.01361923 0.04102011 0.05429074
v 0.01096599 0.04180946 0.05429074
v 0.01091977 0.04164082 0.04356237
v 0.00765487 0.02738244 -0.04363205
v 0.00962849 0.02757977 -0.04071402
v 0.01029452 0.03925486 0.02179747
v 0.01069414 0.04077972 0.03251621
v 0.01279009 0.03851575 0.02179747
v 0.01006889 0.02891448 -0.03300963
v 0.00938926 0.02686936 -0.04363205
v 0.01522858 0.03761877 0.02179747
v 0.01822163 0.03801702 0.03251621
v 0.01829503 0.03798474 0.03252584
v 0.01822163 0.03804932 0.03288217
v 0.01581849 0.03907905 0.03251621
v 0.01328486 0.04001191 0.03251621
f 1 2 3
f 1 3 9
f 1 9 4
f 1 4 11
f 1 11 26
f 1 26 42
f 1 42 59
f 1 59 88
f 1 88 120
f 1 120 89
f 1 89 60
f 1 60 43
f 1 43 27
f 1 27 12
f 1 12 5
f 1 5 6
f 1 6 7
f 1 7 2
f 2 8 14
f 2 14 29
f 2 29 47
f 2 47 75
f 2 75 104
f 2 104 132
f 2 132 138
f 2 138 111
f 2 111 110
f 2 110 80
f 2 80 52
f 2 52 32
f 2 32 16
f 2 16 9
f 2 9 3
f 2 7 6
f 2 6 13
f 2 13 28
f 2 28 44
f 2 44 62
f 2 62 91
f 2 91 79
f 2 79 51
f 2 51 31
f 2 31 15
f 2 15 8
f 4 10 11
f 4 9 10
f 5 12 6
f 6 12 13
f 8 15 30
f 8 30 14
f 9 16 17
f 9 17 18
f 9 18 19
f 9 19 20
f 9 20 21
f 9 21 22
f 9 22 23
f 9 23 24
f 9 24 10
f 10 24 25
f 10 25 11
f 11 25 26
f 12 27 13
f 13 27 28
f 14 30 29
f 15 31 30
f 16 32 17
f 17 32 33
f 17 33 34
f 17 34 35
f 17 35 36
f 17 36 18
f 18 36 37
f 18 37 19
f 19 37 26
f 19 26 38
f 19 38 20
f 20 38 21
f 21 38 26
f 21 26 39
f 21 39 22
f 22 39 40
f 22 40 23
f 23 40 25
f 23 25 24
f 25 40 26
f 26 40 39
f 26 37 41
f 26 41 42
f 27 43 28
f 28 43 45
f 28 45 65
f 28 65 95
f 28 95 122
f 28 122 101
f 28 101 73
f 28 73 46
f 28 46 44
f 29 30 48
f 29 48 49
f 29 49 47
f 30 31 50
f 30 50 48
f 31 51 50
f 32 52 33
f 33 52 53
f 33 53 54
f 33 54 55
f 33 55 34
f 34 55 56
f 34 56 57
f 34 57 35
f 35 57 36
f 36 57 41
f 36 41 37
f 41 57 58
f 41 58 42
f 42 58 59
f 43 60 61
f 43 61 45
f 44 46 63
f 44 63 64
f 44 64 62
f 45 61 66
f 45 66 67
f 45 67 68
f 45 68 69
f 45 69 70
f 45 70 71
f 45 71 72
f 45 72 65
f 46 73 74
f 46 74 63
f 47 49 76
f 47 76 75
f 48 50 77
f 48 77 49
f 49 77 76
f 50 51 78
f 50 78 77
f 51 79 78
f 52 80 53
f 53 80 81
f 53 81 54
f 54 82 83
f 54 83 84
f 54 84 56
f 54 56 55
f 54 81 82
f 56 84 85
f 56 85 57
f 57 85 86
f 57 86 58
f 58 86 87
f 58 87 59
f 59 87 88
f 60 89 90
f 60 90 61
f 61 90 66
f 62 64 92
f 62 92 91
f 63 74 64
f 64 93 94
f 64 94 92
f 64 74 93
f 65 72 95
f 66 90 96
f 66 96 67
f 67 96 68
f 68 96 97
f 68 97 70
f 68 70 69
f 70 72 71
f 70 97 98
f 70 98 99
f 70 99 72
f 72 100 95
f 72 99 100
f 73 101 102
f 73 102 74
f 74 102 103
f 74 103 93
f 75 76 104
f 76 105 104
f 76 77 106
f 76 106 107
f 76 107 105
f 77 78 108
f 77 108 109
f 77 109 106
f 78 79 92
f 78 92 94
f 78 94 108
f 79 91 92
f 80 110 81
f 81 110 111
f 81 111 112
f 81 112 113
f 81 113 82
f 82 113 114
f 82 114 83
f 83 114 115
f 83 115 116
f 83 116 84
f 84 116 85
f 85 116 117
f 85 117 118
f 85 118 87
f 85 87 86
f 87 118 119
f 87 119 88
f 88 119 120
f 89 120 119
f 89 119 90
f 90 119 96
f 93 103 121
f 93 121 94
f 94 121 108
f 95 100 123
f 95 123 122
f 96 119 124
f 96 124 125
f 96 125 97
f 97 125 98
f 98 125 117
f 98 117 126
f 98 126 99
f 99 126 127
f 99 127 128
f 99 128 129
f 99 129 100
f 100 129 123
f 101 122 123
f 101 123 102
f 102 123 130
f 102 130 103
f 103 130 131
f 103 131 121
f 104 105 132
f 105 133 132
f 105 107 133
f 106 134 107
f 106 109 135
f 106 135 134
f 107 134 136
f 107 136 137
f 107 137 133
f 108 121 109
f 109 121 131
f 109 131 135
f 111 138 133
f 111 133 112
f 112 133 113
f 113 137 136
f 113 136 139
f 113 139 114
f 113 133 137
f 114 139 115
f 115 139 140
f 115 140 141
f 115 141 116
f 116 141 117
f 117 125 124
f 117 124 118
f 117 141 126
f 118 124 119
f 123 129 130
f 126 141 142
f 126 142 143
f 126 143 127
f 127 143 128
f 128 131 130
f 128 130 129
f 128 143 144
f 128 144 131
f 131 144 135
f 132 133 138
f 134 135 136
f 135 144 136
f 136 144 139
f 139 144 143
f 139 143 140
f 140 143 142
f 140 142 141

