# https://github.com/mikedh/trimesh
v 0.04320500 -0.00000694 0.05429069
v 0.04320500 -0.00138608 0.05429069
v 0.04302606 -0.00000694 0.04356116
v 0.04314624 -0.00000694 0.05463742
v 0.04302606 -0.00415143 0.05429069
v 0.04284979 -0.00413557 0.04356116
v 0.04302606 -0.00138080 0.04356116
v 0.04314624 -0.00138256 0.05463742
v 0.04296997 -0.00414438 0.05463742
v 0.04214202 -0.00000694 0.03252343
v 0.04297531 -0.00000694 0.05475300
v 0.04267084 -0.00689915 0.05429069
v 0.04249457 -0.00687273 0.04356116
v 0.04162388 -0.00673006 0.03252343
v 0.04196842 -0.00404927 0.03252343
v 0.04214202 -0.00135262 0.03252343
v 0.04297531 -0.00137199 0.05475300
v 0.04280171 -0.00412324 0.05475300
v 0.04261475 -0.00688858 0.05463742
v 0.04244916 -0.00685688 0.05475300
v 0.04056625 -0.00000694 0.02179391
v 0.04271090 -0.00000694 0.05471447
v 0.03873942 -0.01800103 0.05471447
v 0.03903321 -0.01800103 0.05475300
v 0.04214202 -0.00961694 0.05429069
v 0.04196842 -0.00957819 0.04356116
v 0.04110575 -0.00938091 0.03252343
v 0.03956737 -0.00903040 0.02179391
v 0.04006414 -0.00647995 0.02179391
v 0.04039799 -0.00389779 0.02179391
v 0.04056625 -0.00130154 0.02179391
v 0.04208594 -0.00960285 0.05463742
v 0.04192034 -0.00955881 0.05475300
v 0.03091931 -0.00000694 -0.03299986
v 0.04264146 -0.00000694 0.05463742
v 0.03865930 -0.01800103 0.05463742
v 0.03932165 -0.01739688 0.05475300
v 0.03922017 -0.01800103 0.05463742
v 0.03947656 -0.01747086 0.05463742
v 0.04143960 -0.01229773 0.05429069
v 0.04138619 -0.01228012 0.05463742
v 0.04126600 -0.01224841 0.04356116
v 0.04042203 -0.01199654 0.03252343
v 0.03890768 -0.01154563 0.02179391
v 0.02967739 -0.00867108 -0.03299986
v 0.03017149 -0.00678290 -0.03299986
v 0.03054540 -0.00486302 -0.03299986
v 0.03079378 -0.00292728 -0.03299986
v 0.03091931 -0.00097745 -0.03299986
v 0.04122327 -0.01222728 0.05475300
v 0.02951714 -0.00000694 -0.04071472
v 0.03080981 -0.00000694 -0.00741852
v 0.01592009 -0.01800103 -0.04364270
v 0.04035525 -0.01484114 0.05475300
v 0.03928426 -0.01800103 0.05429069
v 0.04051283 -0.01490631 0.05463742
v 0.03952464 -0.01749552 0.05429069
v 0.04056625 -0.01492745 0.05429069
v 0.04039799 -0.01486580 0.04356116
v 0.03956737 -0.01456108 0.03252343
v 0.03809041 -0.01401682 0.02179391
v 0.02906310 -0.01052052 -0.03299986
v 0.02833131 -0.00827125 -0.04071472
v 0.02880404 -0.00646938 -0.04071472
v 0.02915925 -0.00463932 -0.04071472
v 0.02939696 -0.00279165 -0.04071472
v 0.02951714 -0.00093165 -0.04071472
v 0.02876397 -0.00000694 -0.04364270
v 0.02418088 -0.00000694 -0.04364270
v 0.02230331 -0.01800103 -0.04364270
v 0.03936172 -0.01742506 0.04356116
v 0.03908662 -0.01800103 0.04356116
v 0.03855514 -0.01706750 0.03252343
v 0.03711290 -0.01642813 0.02179391
v 0.02833131 -0.01233120 -0.03299986
v 0.02774373 -0.01003614 -0.04071472
v 0.02738851 -0.00871864 -0.04364270
v 0.02760752 -0.00805637 -0.04364270
v 0.02789062 -0.00697665 -0.04364270
v 0.02806690 -0.00630205 -0.04364270
v 0.02841410 -0.00451955 -0.04364270
v 0.02864646 -0.00271944 -0.04364270
v 0.02869186 -0.00202194 -0.04364270
v 0.02876397 -0.00090699 -0.04364270
v 0.02260244 -0.01764699 -0.04364270
v 0.02304312 -0.01800103 -0.04145634
v 0.03810377 -0.01800103 0.03252343
v 0.03715029 -0.01800103 0.02665783
v 0.03635439 -0.01800103 0.02179391
v 0.02748199 -0.01409256 -0.03299986
v 0.02623740 -0.01343910 -0.04071472
v 0.02704398 -0.01176228 -0.04071472
v 0.02635491 -0.01145756 -0.04364270
v 0.02703597 -0.00977546 -0.04364270
v 0.02327014 -0.01675222 -0.04364270
v 0.02430641 -0.01662540 -0.04071472
v 0.02328082 -0.01800103 -0.04071472
v 0.02503287 -0.01800103 -0.03299986
v 0.02546019 -0.01742858 -0.03299986
v 0.02652584 -0.01579052 -0.03299986
v 0.02532131 -0.01506483 -0.04071472
v 0.02467765 -0.01467381 -0.04364270
v 0.02556703 -0.01309211 -0.04364270
v 0.02587150 -0.01246154 -0.04364270
v 0.02368678 -0.01619211 -0.04364270
v 0.02358529 -0.01800103 -0.03938556
f 1 2 7
f 1 7 3
f 1 3 10
f 1 10 21
f 1 21 34
f 1 34 51
f 1 51 68
f 1 68 69
f 1 69 52
f 1 52 35
f 1 35 22
f 1 22 11
f 1 11 4
f 1 4 8
f 1 8 2
f 2 5 6
f 2 6 7
f 2 8 9
f 2 9 5
f 3 7 16
f 3 16 10
f 4 11 17
f 4 17 8
f 5 12 6
f 5 9 12
f 6 13 14
f 6 14 15
f 6 15 16
f 6 16 7
f 6 12 13
f 8 17 18
f 8 18 9
f 9 19 12
f 9 18 20
f 9 20 19
f 10 16 31
f 10 31 21
f 11 22 23
f 11 23 24
f 11 24 37
f 11 37 54
f 11 54 50
f 11 50 33
f 11 33 20
f 11 20 18
f 11 18 17
f 12 25 26
f 12 26 13
f 12 19 25
f 13 26 14
f 14 27 28
f 14 28 29
f 14 29 30
f 14 30 15
f 14 26 27
f 15 30 31
f 15 31 16
f 19 32 25
f 19 20 32
f 20 33 32
f 21 31 49
f 21 49 34
f 22 35 36
f 22 36 23
f 23 36 53
f 23 53 70
f 23 70 86
f 23 86 97
f 23 97 106
f 23 106 98
f 23 98 89
f 23 89 88
f 23 88 87
f 23 87 72
f 23 72 55
f 23 55 38
f 23 38 24
f 24 38 39
f 24 39 37
f 25 40 26
f 25 32 41
f 25 41 40
f 26 42 43
f 26 43 27
f 26 40 42
f 27 43 28
f 28 43 44
f 28 44 45
f 28 45 46
f 28 46 29
f 29 46 47
f 29 47 30
f 30 47 48
f 30 48 31
f 31 48 49
f 32 33 50
f 32 50 41
f 34 49 67
f 34 67 51
f 35 52 53
f 35 53 36
f 37 39 54
f 38 55 39
f 39 56 54
f 39 55 57
f 39 57 58
f 39 58 56
f 40 58 59
f 40 59 42
f 40 41 58
f 41 56 58
f 41 50 54
f 41 54 56
f 42 59 43
f 43 60 61
f 43 61 44
f 43 59 60
f 44 61 45
f 45 62 63
f 45 63 64
f 45 64 46
f 45 61 62
f 46 64 47
f 47 64 65
f 47 65 66
f 47 66 48
f 48 66 67
f 48 67 49
f 51 67 84
f 51 84 68
f 52 69 53
f 53 69 68
f 53 68 84
f 53 84 83
f 53 83 82
f 53 82 81
f 53 81 80
f 53 80 79
f 53 79 78
f 53 78 77
f 53 77 94
f 53 94 93
f 53 93 104
f 53 104 103
f 53 103 102
f 53 102 105
f 53 105 95
f 53 95 85
f 53 85 70
f 55 71 57
f 55 72 71
f 57 71 58
f 58 71 59
f 59 71 73
f 59 73 60
f 60 73 61
f 61 73 74
f 61 74 75
f 61 75 62
f 62 75 76
f 62 76 63
f 63 76 77
f 63 77 78
f 63 78 64
f 64 78 79
f 64 79 80
f 64 80 81
f 64 81 65
f 65 81 82
f 65 82 66
f 66 82 83
f 66 83 84
f 66 84 67
f 70 85 86
f 71 72 73
f 72 87 73
f 73 87 88
f 73 88 74
f 74 88 89
f 74 89 90
f 74 90 75
f 75 90 91
f 75 91 92
f 75 92 76
f 76 92 93
f 76 93 94
f 76 94 77
f 85 95 86
f 86 96 97
f 86 95 96
f 89 98 99
f 89 99 100
f 89 100 90
f 90 100 91
f 91 100 101
f 91 101 102
f 91 102 103
f 91 103 104
f 91 104 93
f 91 93 92
f 95 105 96
f 96 105 102
f 96 102 101
f 96 101 100
f 96 100 99
f 96 99 106
f 96 106 97
f 98 106 99

