# https://github.com/mikedh/trimesh
v 0.00012438 -0.04322156 0.05428136
v 0.00012438 -0.04304382 0.04356229
v 0.00277247 -0.04313516 0.05428136
v 0.00276948 -0.04308085 0.05462437
v 0.00012438 -0.04316478 0.05462437
v 0.00012438 -0.04215759 0.03252165
v 0.00270365 -0.04207613 0.03252165
v 0.00276051 -0.04295742 0.04356229
v 0.00550734 -0.04269328 0.04356229
v 0.00552978 -0.04286855 0.05428136
v 0.00552529 -0.04281424 0.05462437
v 0.00550734 -0.04264391 0.05475300
v 0.00276350 -0.04290805 0.05475300
v 0.00012438 -0.04299445 0.05475300
v 0.00012438 -0.04065421 0.02228494
v 0.00539364 -0.04181692 0.03252165
v 0.00260342 -0.04050362 0.02180258
v 0.00822724 -0.04225387 0.04356229
v 0.00805669 -0.04138739 0.03252165
v 0.00826016 -0.04242667 0.05428136
v 0.00825118 -0.04237236 0.05462437
v 0.00822425 -0.04220449 0.05475300
v 0.01540851 -0.03991363 0.05472084
v 0.01540851 -0.03984451 0.05471012
v 0.00012438 -0.04272784 0.05471012
v 0.01540851 -0.04012346 0.05475300
v 0.00012438 -0.04058262 0.02180258
v 0.00519166 -0.04025183 0.02180258
v 0.00047148 -0.02906411 -0.04072174
v 0.00233412 -0.02900239 -0.04072174
v 0.00418778 -0.02882465 -0.04072174
v 0.01091872 -0.04163918 0.04356229
v 0.01069431 -0.04078258 0.03252165
v 0.00776046 -0.03983710 0.02180258
v 0.01029335 -0.03925698 0.02180258
v 0.01096211 -0.04180952 0.05428136
v 0.01095014 -0.04175521 0.05462437
v 0.01091274 -0.04158981 0.05475300
v 0.01540851 -0.03976551 0.05462437
v 0.00012438 -0.04265872 0.05462437
v 0.01355484 -0.04080726 0.05475300
v 0.01540851 -0.04024936 0.05466725
v 0.00012438 -0.02905177 -0.04072174
v 0.00012438 -0.02716822 -0.04801071
v 0.00047148 -0.02717809 -0.04801071
v 0.00221293 -0.02712379 -0.04801071
v 0.00394691 -0.02695592 -0.04801071
v 0.00566742 -0.02667697 -0.04801071
v 0.00602649 -0.02852595 -0.04072174
v 0.01356232 -0.04085417 0.04356229
v 0.01361918 -0.04102450 0.05428136
v 0.01328555 -0.04001237 0.03252165
v 0.01278735 -0.03851887 0.02180258
v 0.00783975 -0.02811123 -0.04072174
v 0.00819583 -0.02947143 -0.03300401
v 0.01360122 -0.04096773 0.05462437
v 0.01540851 -0.01800476 -0.04416256
v 0.00012438 -0.01800476 -0.04794639
v 0.01540851 -0.04030367 0.05462437
v 0.00012438 -0.02529702 -0.05175166
v 0.00042061 -0.02530689 -0.05175166
v 0.00204238 -0.02525752 -0.05175166
v 0.00365667 -0.02510447 -0.05175166
v 0.00525749 -0.02485020 -0.05175166
v 0.00736549 -0.02628940 -0.04801071
v 0.00684036 -0.02449225 -0.05175166
v 0.01540851 -0.03923230 0.03252165
v 0.01540851 -0.04017530 0.04356229
v 0.01540851 -0.04030861 0.05100133
v 0.01540851 -0.04036538 0.05428136
v 0.01540851 -0.04034563 0.05439927
v 0.01523047 -0.03761783 0.02180258
v 0.01540851 -0.03805477 0.02500759
v 0.00962460 -0.02758294 -0.04072174
v 0.01006894 -0.02891599 -0.03300401
v 0.01190166 -0.02824206 -0.03300401
v 0.01540851 -0.01800476 -0.05345599
v 0.00012438 -0.01800476 -0.05475300
v 0.00012438 -0.02320611 -0.05362750
v 0.00038919 -0.02279879 -0.05399195
v 0.00184938 -0.02275682 -0.05399195
v 0.00330509 -0.02262105 -0.05399195
v 0.00474732 -0.02239394 -0.05399195
v 0.00617310 -0.02207302 -0.05399195
v 0.00839331 -0.02403556 -0.05175166
v 0.00903214 -0.02579321 -0.04801071
v 0.00757644 -0.02166076 -0.05399195
v 0.01540851 -0.03754130 0.02180258
v 0.01137354 -0.02693864 -0.04072174
v 0.01066738 -0.02519334 -0.04801071
v 0.01368800 -0.02745211 -0.03300401
v 0.01540851 -0.02011048 -0.05197676
v 0.01403659 -0.01831827 -0.05399195
v 0.01443605 -0.01800476 -0.05399195
v 0.00831701 -0.01800476 -0.05475300
v 0.00012438 -0.01964144 -0.05475300
v 0.00012438 -0.02278645 -0.05399195
v 0.00012438 -0.02129294 -0.05456006
v 0.00035478 -0.02130281 -0.05456006
v 0.00171922 -0.02126579 -0.05456006
v 0.00307917 -0.02114482 -0.05456006
v 0.00442716 -0.02093252 -0.05456006
v 0.00576018 -0.02063629 -0.05456006
v 0.00707226 -0.02025613 -0.05456006
v 0.00991634 -0.02347519 -0.05175166
v 0.00894687 -0.02116210 -0.05399195
v 0.01540851 -0.02654613 -0.03304689
v 0.01226072 -0.02448731 -0.04801071
v 0.01307759 -0.02618325 -0.04072174
v 0.01140047 -0.02282347 -0.05175166
v 0.01540851 -0.02652638 -0.03314336
v 0.01540851 -0.02042152 -0.05175166
v 0.01283522 -0.01915266 -0.05399195
v 0.01378674 -0.01800476 -0.05415273
v 0.00896033 -0.01800476 -0.05472084
v 0.00960365 -0.01924400 -0.05456006
v 0.00835292 -0.01978956 -0.05456006
v 0.00769015 -0.01827630 -0.05475300
v 0.00030541 -0.01964885 -0.05475300
v 0.00156363 -0.01961923 -0.05475300
v 0.00281885 -0.01951061 -0.05475300
v 0.00406361 -0.01931806 -0.05475300
v 0.00529340 -0.01904898 -0.05475300
v 0.00650524 -0.01870090 -0.05475300
v 0.01028438 -0.02057704 -0.05399195
v 0.01284121 -0.02207549 -0.05175166
v 0.01380469 -0.02368255 -0.04801071
v 0.01472928 -0.02532170 -0.04072174
v 0.01158149 -0.01990558 -0.05399195
v 0.01540851 -0.02491192 -0.04072174
v 0.01540851 -0.02270251 -0.04801071
v 0.01422959 -0.02123863 -0.05175166
v 0.01197347 -0.01800476 -0.05453862
v 0.01184929 -0.01800476 -0.05456006
v 0.01081848 -0.01861944 -0.05456006
v 0.01529331 -0.02277904 -0.04801071
v 0.01540851 -0.02411209 -0.04336935
v 0.01540851 -0.02295184 -0.04720677
f 1 2 3
f 1 3 4
f 1 4 5
f 1 5 14
f 1 14 25
f 1 25 40
f 1 40 58
f 1 58 78
f 1 78 96
f 1 96 98
f 1 98 97
f 1 97 79
f 1 79 60
f 1 60 44
f 1 44 43
f 1 43 27
f 1 27 15
f 1 15 6
f 1 6 2
f 2 6 7
f 2 7 8
f 2 8 3
f 3 9 10
f 3 10 4
f 3 8 9
f 4 11 12
f 4 12 13
f 4 13 14
f 4 14 5
f 4 10 11
f 6 15 7
f 7 16 9
f 7 9 8
f 7 15 17
f 7 17 16
f 9 18 10
f 9 16 19
f 9 19 18
f 10 20 11
f 10 18 20
f 11 21 22
f 11 22 12
f 11 20 21
f 12 22 38
f 12 38 41
f 12 41 26
f 12 26 14
f 12 14 13
f 14 23 24
f 14 24 25
f 14 26 23
f 15 27 17
f 16 17 28
f 16 28 19
f 17 27 29
f 17 29 30
f 17 30 31
f 17 31 28
f 18 19 32
f 18 32 20
f 19 33 32
f 19 28 34
f 19 34 35
f 19 35 33
f 20 36 21
f 20 32 36
f 21 37 38
f 21 38 22
f 21 36 37
f 23 26 42
f 23 42 59
f 23 59 71
f 23 71 70
f 23 70 69
f 23 69 68
f 23 68 67
f 23 67 73
f 23 73 88
f 23 88 107
f 23 107 111
f 23 111 130
f 23 130 137
f 23 137 138
f 23 138 131
f 23 131 112
f 23 112 92
f 23 92 77
f 23 77 57
f 23 57 39
f 23 39 24
f 24 39 25
f 25 39 40
f 26 41 42
f 27 43 29
f 28 31 34
f 29 43 44
f 29 44 45
f 29 45 46
f 29 46 30
f 30 46 31
f 31 46 47
f 31 47 48
f 31 48 49
f 31 49 34
f 32 33 50
f 32 50 51
f 32 51 36
f 33 52 50
f 33 35 53
f 33 53 52
f 34 49 54
f 34 54 35
f 35 54 55
f 35 55 53
f 36 51 37
f 37 56 41
f 37 41 38
f 37 51 56
f 39 57 58
f 39 58 40
f 41 56 42
f 42 56 59
f 44 60 61
f 44 61 45
f 45 62 46
f 45 61 62
f 46 62 63
f 46 63 47
f 47 63 64
f 47 64 48
f 48 65 49
f 48 64 66
f 48 66 65
f 49 65 54
f 50 52 67
f 50 67 68
f 50 68 69
f 50 69 51
f 51 70 71
f 51 71 56
f 51 69 70
f 52 53 67
f 53 72 73
f 53 73 67
f 53 55 74
f 53 74 75
f 53 75 76
f 53 76 72
f 54 74 55
f 54 65 74
f 56 71 59
f 57 77 94
f 57 94 114
f 57 114 133
f 57 133 134
f 57 134 115
f 57 115 95
f 57 95 78
f 57 78 58
f 60 79 61
f 61 79 80
f 61 80 81
f 61 81 62
f 62 81 82
f 62 82 63
f 63 82 83
f 63 83 64
f 64 83 84
f 64 84 66
f 65 66 85
f 65 85 86
f 65 86 74
f 66 84 87
f 66 87 85
f 72 88 73
f 72 76 88
f 74 89 76
f 74 76 75
f 74 86 90
f 74 90 89
f 76 89 91
f 76 91 88
f 77 92 93
f 77 93 94
f 78 95 118
f 78 118 124
f 78 124 123
f 78 123 122
f 78 122 121
f 78 121 120
f 78 120 119
f 78 119 96
f 79 97 80
f 80 97 98
f 80 98 99
f 80 99 100
f 80 100 81
f 81 100 101
f 81 101 82
f 82 101 83
f 83 101 102
f 83 102 103
f 83 103 84
f 84 103 104
f 84 104 87
f 85 105 90
f 85 90 86
f 85 87 106
f 85 106 105
f 87 104 106
f 88 91 107
f 89 90 108
f 89 108 109
f 89 109 91
f 90 105 110
f 90 110 108
f 91 109 111
f 91 111 107
f 92 112 93
f 93 112 113
f 93 113 114
f 93 114 94
f 95 115 116
f 95 116 117
f 95 117 118
f 96 119 99
f 96 99 98
f 99 119 120
f 99 120 100
f 100 120 121
f 100 121 101
f 101 121 122
f 101 122 102
f 102 122 123
f 102 123 103
f 103 123 124
f 103 124 104
f 104 117 106
f 104 124 118
f 104 118 117
f 105 106 125
f 105 125 110
f 106 117 116
f 106 116 125
f 108 110 126
f 108 126 127
f 108 127 109
f 109 127 128
f 109 128 111
f 110 125 129
f 110 129 126
f 111 128 130
f 112 131 132
f 112 132 113
f 113 129 133
f 113 133 114
f 113 132 126
f 113 126 129
f 115 134 135
f 115 135 116
f 116 135 125
f 125 135 129
f 126 132 127
f 127 136 137
f 127 137 130
f 127 130 128
f 127 132 136
f 129 135 133
f 131 136 132
f 131 138 136
f 133 135 134
f 136 138 137

