# https://github.com/mikedh/trimesh
v 0.00012289 -0.04299674 0.05475300
v -0.02103882 -0.03719720 0.05472381
v -0.02103882 -0.03749956 0.05475300
v 0.00000689 -0.04300023 0.05475300
v 0.00012289 -0.04316653 0.05463626
v 0.00012289 -0.04272926 0.05471965
v -0.02103882 -0.03711811 0.05464043
v -0.01865047 -0.03874506 0.05475300
v -0.02103882 -0.03769028 0.05463626
v -0.00274811 -0.04291184 0.05475300
v -0.00276468 -0.04308163 0.05463626
v 0.00000067 -0.04317002 0.05463626
v 0.00012289 -0.04316885 0.05462375
v 0.00012289 -0.04266181 0.05463626
v -0.02103882 -0.03704834 0.05429437
v -0.01612954 -0.03986031 0.05475300
v -0.01872711 -0.03889507 0.05463626
v -0.01619789 -0.04001498 0.05463626
v -0.02103882 -0.03769493 0.05461541
v -0.00549275 -0.04264786 0.05475300
v -0.00551968 -0.04281648 0.05463626
v -0.00277090 -0.04313861 0.05429437
v -0.00000140 -0.04322700 0.05429437
v 0.00012289 -0.04322235 0.05429437
v 0.00012289 -0.04265949 0.05462375
v 0.00012289 -0.04260599 0.05429437
v -0.02103882 -0.03134765 0.01215855
v -0.01354232 -0.04081275 0.05475300
v -0.01875404 -0.03894624 0.05429437
v -0.01360032 -0.04097091 0.05463626
v -0.01622068 -0.04006731 0.05429437
v -0.02103882 -0.03775424 0.05429437
v -0.00821461 -0.04220827 0.05475300
v -0.00825190 -0.04237457 0.05463626
v -0.00553004 -0.04287230 0.05429437
v -0.00275847 -0.04296069 0.04357071
v -0.00000140 -0.04304907 0.04357071
v 0.00012289 -0.04305372 0.04404602
v 0.00012289 -0.03776122 0.01215855
v -0.02103882 -0.03216984 0.01215855
v -0.01089918 -0.04159540 0.05475300
v -0.01094890 -0.04175821 0.05463626
v -0.01867739 -0.03878692 0.04357071
v -0.01361897 -0.04102441 0.05429437
v -0.01615439 -0.03990334 0.04357071
v -0.01356304 -0.04085694 0.04357071
v -0.02103882 -0.03755422 0.04357071
v -0.01096340 -0.04181287 0.05429437
v -0.00826432 -0.04242923 0.05429437
v -0.00822911 -0.04225595 0.04357071
v -0.00550518 -0.04269554 0.04357071
v -0.00539333 -0.04181869 0.03253017
v -0.00270254 -0.04207802 0.03253017
v 0.00012289 -0.04304558 0.04357071
v -0.00000140 -0.04216408 0.03253017
v 0.00012289 -0.03843572 0.01215855
v -0.02097047 -0.03221752 0.01215855
v -0.02103882 -0.03232218 0.01271724
v -0.02103882 -0.03735651 0.04137761
v -0.02069082 -0.03673900 0.03253017
v -0.01829418 -0.03798915 0.03253017
v -0.01582297 -0.03908347 0.03253017
v -0.01091990 -0.04164192 0.04357071
v -0.01328547 -0.04001614 0.03253017
v -0.00806132 -0.04138724 0.03253017
v -0.00776097 -0.03983938 0.02180651
v -0.00519033 -0.04025455 0.02180651
v -0.00260104 -0.04050457 0.02180651
v 0.00012289 -0.04216059 0.03253017
v -0.00000140 -0.04058714 0.02180651
v 0.00012289 -0.04065575 0.02229433
v -0.00000140 -0.03844037 0.01215855
v 0.00012289 -0.04058365 0.02180651
v -0.01886175 -0.03349442 0.01215855
v -0.02103882 -0.03468642 0.02180651
v -0.02103882 -0.03652851 0.03253017
v -0.01991611 -0.03536558 0.02180651
v -0.01761061 -0.03656921 0.02180651
v -0.01523054 -0.03762166 0.02180651
v -0.01278832 -0.03852061 0.02180651
v -0.01069411 -0.04078484 0.03253017
v -0.01029640 -0.03926024 0.02180651
v -0.00949890 -0.03724255 0.01215855
v -0.00734875 -0.03773098 0.01215855
v -0.00709190 -0.03777285 0.01215855
v -0.00491690 -0.03812521 0.01215855
v -0.00246433 -0.03836129 0.01215855
v -0.01667847 -0.03463409 0.01215855
v -0.01644025 -0.03473992 0.01215855
v -0.01442475 -0.03563189 0.01215855
v -0.01211304 -0.03648315 0.01215855
v -0.00975161 -0.03718440 0.01215855
f 1 2 3
f 1 3 8
f 1 8 16
f 1 16 28
f 1 28 41
f 1 41 33
f 1 33 20
f 1 20 10
f 1 10 4
f 1 4 5
f 1 5 13
f 1 13 24
f 1 24 38
f 1 38 54
f 1 54 69
f 1 69 71
f 1 71 73
f 1 73 56
f 1 56 39
f 1 39 26
f 1 26 25
f 1 25 14
f 1 14 6
f 1 6 2
f 2 6 7
f 2 7 15
f 2 15 27
f 2 27 40
f 2 40 58
f 2 58 75
f 2 75 76
f 2 76 59
f 2 59 47
f 2 47 32
f 2 32 19
f 2 19 9
f 2 9 3
f 3 9 8
f 4 10 11
f 4 11 12
f 4 12 5
f 5 12 13
f 6 14 7
f 7 14 15
f 8 9 17
f 8 17 18
f 8 18 16
f 9 19 17
f 10 20 11
f 11 20 21
f 11 21 22
f 11 22 12
f 12 22 23
f 12 23 13
f 13 23 24
f 14 25 15
f 15 25 26
f 15 26 27
f 16 18 28
f 17 19 29
f 17 29 18
f 18 30 28
f 18 29 31
f 18 31 30
f 19 32 29
f 20 33 21
f 21 33 34
f 21 34 35
f 21 35 22
f 22 35 36
f 22 36 37
f 22 37 23
f 23 37 38
f 23 38 24
f 26 39 27
f 27 39 56
f 27 56 72
f 27 72 87
f 27 87 86
f 27 86 85
f 27 85 84
f 27 84 83
f 27 83 92
f 27 92 91
f 27 91 90
f 27 90 89
f 27 89 88
f 27 88 74
f 27 74 57
f 27 57 40
f 28 30 42
f 28 42 41
f 29 32 43
f 29 43 31
f 30 31 44
f 30 44 42
f 31 43 45
f 31 45 46
f 31 46 44
f 32 47 43
f 33 41 34
f 34 41 42
f 34 42 48
f 34 48 49
f 34 49 35
f 35 49 50
f 35 50 51
f 35 51 36
f 36 51 52
f 36 52 53
f 36 53 37
f 37 54 38
f 37 53 55
f 37 55 69
f 37 69 54
f 40 57 58
f 42 44 48
f 43 47 59
f 43 59 60
f 43 60 61
f 43 61 62
f 43 62 45
f 44 46 63
f 44 63 48
f 45 62 46
f 46 62 64
f 46 64 63
f 48 63 49
f 49 63 50
f 50 63 65
f 50 65 52
f 50 52 51
f 52 65 66
f 52 66 67
f 52 67 68
f 52 68 53
f 53 68 55
f 55 68 70
f 55 70 71
f 55 71 69
f 56 73 72
f 57 74 58
f 58 74 75
f 59 76 60
f 60 76 77
f 60 77 78
f 60 78 61
f 61 78 62
f 62 78 79
f 62 79 80
f 62 80 64
f 63 64 81
f 63 81 65
f 64 80 82
f 64 82 81
f 65 81 82
f 65 82 66
f 66 82 83
f 66 83 84
f 66 84 85
f 66 85 86
f 66 86 67
f 67 86 68
f 68 86 87
f 68 87 72
f 68 72 70
f 70 73 71
f 70 72 73
f 74 88 78
f 74 78 77
f 74 77 75
f 75 77 76
f 78 88 89
f 78 89 90
f 78 90 79
f 79 90 91
f 79 91 80
f 80 91 92
f 80 92 82
f 82 92 83

