# https://github.com/mikedh/trimesh
v 0.00011956 -0.03776016 0.01215855
v -0.01246945 -0.03563155 0.01215855
v 0.00011956 -0.03843455 0.01215855
v 0.00011956 -0.03141611 -0.00424841
v -0.03311264 -0.01811728 0.01215200
v -0.01246945 -0.03634971 0.01215855
v -0.03389175 -0.01811728 0.01215200
v -0.00000363 -0.03844052 0.01215855
v 0.00011956 -0.03045326 -0.03300806
v 0.00011956 -0.01811927 -0.04794788
v -0.02556789 -0.01811728 -0.00420256
v -0.03286958 -0.01992958 0.01215200
v -0.03272974 -0.02014841 0.01215200
v -0.03152444 -0.02199453 0.01215200
v -0.03005278 -0.02396996 0.01215200
v -0.02845460 -0.02584791 0.01215200
v -0.02673989 -0.02761445 0.01215200
v -0.02491529 -0.02926761 0.01215200
v -0.02471219 -0.02943073 0.01215200
v -0.02299082 -0.03080538 0.01215200
v -0.02096978 -0.03221583 0.01215200
v -0.01886218 -0.03349101 0.01215200
v -0.01863244 -0.03361235 0.01215200
v -0.01668133 -0.03463289 0.01215200
v -0.01644493 -0.03473833 0.01215200
v -0.01442722 -0.03562956 0.01215200
v -0.01247278 -0.03635170 0.01215200
v -0.01211319 -0.03648100 0.01215855
v -0.02400300 -0.01811728 -0.03300151
v -0.00246417 -0.03836094 0.01215855
v -0.00148528 -0.03040154 -0.03300806
v 0.00011956 -0.02904878 -0.04071703
v -0.01247278 -0.01811728 -0.04601573
v -0.02425271 -0.01811728 -0.00726126
v -0.02464893 -0.01811728 -0.00633120
v 0.00011956 -0.01811927 -0.05475300
v -0.02225166 -0.01812126 -0.04071703
v -0.02104303 -0.01953967 -0.04071703
v -0.01974784 -0.02088049 -0.04071703
v -0.01836941 -0.02212981 -0.04071703
v -0.01691107 -0.02329358 -0.04071703
v -0.01538613 -0.02435788 -0.04071703
v -0.01615526 -0.02553558 -0.03300151
v -0.01448383 -0.02655015 -0.03300151
v -0.01247278 -0.02686646 -0.03657763
v -0.01275246 -0.02745133 -0.03300151
v -0.01246945 -0.02757865 -0.03300806
v -0.01096450 -0.02824508 -0.03300806
v -0.00912992 -0.02891350 -0.03300806
v -0.00974921 -0.03718126 0.01215855
v -0.00725871 -0.02947052 -0.03300806
v -0.02225166 -0.01811728 -0.04071703
v -0.00491804 -0.03812421 0.01215855
v -0.00342974 -0.03021653 -0.03300806
v -0.00139538 -0.02899905 -0.04071703
v -0.00127552 -0.02712309 -0.04800683
v 0.00011956 -0.02716685 -0.04800683
v -0.01247278 -0.01811728 -0.05418973
v 0.00011956 -0.01964312 -0.05475300
v -0.00712886 -0.01811927 -0.05475300
v -0.02224833 -0.01811728 -0.04073013
v -0.01978114 -0.01811728 -0.04800683
v -0.01964795 -0.01827444 -0.04800683
v -0.01843600 -0.01952574 -0.04800683
v -0.01714746 -0.02069747 -0.04800683
v -0.01578901 -0.02178366 -0.04800683
v -0.01379461 -0.02532471 -0.04071703
v -0.01435731 -0.02278033 -0.04800683
v -0.01247278 -0.02601502 -0.04071703
v -0.01213983 -0.02618411 -0.04071703
v -0.01043510 -0.02693808 -0.04071703
v -0.00868709 -0.02758262 -0.04071703
v -0.00734861 -0.03773032 0.01215855
v -0.00690245 -0.02811179 -0.04071703
v -0.00508785 -0.02852558 -0.04071703
v -0.00535754 -0.02990221 -0.03300806
v -0.00324994 -0.02882199 -0.04071703
v -0.00300688 -0.02695399 -0.04800683
v -0.00120560 -0.02525110 -0.05175325
v 0.00011956 -0.02529487 -0.05175325
v -0.00842073 -0.01811927 -0.05468750
v -0.00988573 -0.01811927 -0.05460891
v -0.01071145 -0.01811927 -0.05456306
v -0.01145394 -0.01811927 -0.05441896
v -0.01276578 -0.01811728 -0.05413078
v -0.00095921 -0.01959736 -0.05475300
v 0.00011956 -0.02129428 -0.05456306
v -0.00101582 -0.02125051 -0.05456306
v -0.00705894 -0.01815110 -0.05475300
v -0.00888020 -0.01914180 -0.05456306
v -0.01948814 -0.01811728 -0.04844565
v -0.01717077 -0.01814314 -0.05174670
v -0.01597546 -0.01923729 -0.05174670
v -0.01471024 -0.02025186 -0.05174670
v -0.01338175 -0.02118089 -0.05174670
v -0.01286900 -0.02368349 -0.04800683
v -0.01246945 -0.02389237 -0.04800683
v -0.01247278 -0.02217755 -0.05100003
v -0.01132076 -0.02448719 -0.04800683
v -0.00972924 -0.02519341 -0.04800683
v -0.00809443 -0.02579420 -0.04800683
v -0.00642300 -0.02628955 -0.04800683
v -0.00472826 -0.02667747 -0.04800683
v -0.00282043 -0.02509196 -0.05175325
v -0.00107575 -0.02274651 -0.05399979
v 0.00011956 -0.02320605 -0.05362645
v -0.01008550 -0.01850322 -0.05456306
v -0.01078803 -0.01982415 -0.05399979
v -0.01203328 -0.01906223 -0.05399979
v -0.01246945 -0.01875785 -0.05399979
v -0.01246945 -0.01811927 -0.05419628
v -0.01336177 -0.01811728 -0.05399324
v -0.01323525 -0.01822073 -0.05399324
v -0.00221112 -0.01946606 -0.05475300
v -0.00237427 -0.02111126 -0.05456306
v 0.00011956 -0.02278828 -0.05399979
v -0.00253076 -0.02259929 -0.05399979
v -0.00588028 -0.01859473 -0.05475300
v -0.00763162 -0.01970280 -0.05456306
v -0.00949617 -0.02050451 -0.05399979
v -0.01719408 -0.01811728 -0.05174670
v -0.01714746 -0.01811728 -0.05177944
v -0.01708753 -0.01811728 -0.05181874
v -0.01504985 -0.01811728 -0.05305663
v -0.01247278 -0.01925519 -0.05363300
v -0.01247278 -0.01974457 -0.05327277
v -0.01247278 -0.02070543 -0.05253921
v -0.01246945 -0.02173592 -0.05175325
v -0.01199333 -0.02202835 -0.05175325
v -0.01055496 -0.02277834 -0.05175325
v -0.00907665 -0.02343880 -0.05175325
v -0.00755171 -0.02400179 -0.05175325
v -0.00600015 -0.02446929 -0.05175325
v -0.00441861 -0.02483135 -0.05175325
v -0.00345304 -0.01925519 -0.05475300
v -0.00371941 -0.02088646 -0.05456306
v -0.00397245 -0.02236057 -0.05399979
v -0.00467832 -0.01896475 -0.05475300
v -0.00635308 -0.02018024 -0.05456306
v -0.00679258 -0.02161059 -0.05399979
v -0.00816102 -0.02109932 -0.05399979
v -0.00539417 -0.02203034 -0.05399979
v -0.00504790 -0.02057811 -0.05456306
f 1 2 6
f 1 6 28
f 1 28 50
f 1 50 73
f 1 73 53
f 1 53 30
f 1 30 8
f 1 8 3
f 1 3 9
f 1 9 32
f 1 32 57
f 1 57 80
f 1 80 106
f 1 106 116
f 1 116 87
f 1 87 59
f 1 59 36
f 1 36 10
f 1 10 4
f 1 4 5
f 1 5 2
f 2 5 7
f 2 7 6
f 3 8 9
f 4 10 5
f 5 10 11
f 5 11 35
f 5 35 34
f 5 34 33
f 5 33 58
f 5 58 85
f 5 85 112
f 5 112 124
f 5 124 123
f 5 123 122
f 5 122 121
f 5 121 91
f 5 91 62
f 5 62 61
f 5 61 52
f 5 52 29
f 5 29 7
f 6 7 12
f 6 12 13
f 6 13 14
f 6 14 15
f 6 15 16
f 6 16 17
f 6 17 18
f 6 18 19
f 6 19 20
f 6 20 21
f 6 21 22
f 6 22 23
f 6 23 24
f 6 24 25
f 6 25 26
f 6 26 27
f 6 27 28
f 7 29 12
f 8 30 31
f 8 31 9
f 9 31 32
f 10 33 34
f 10 34 35
f 10 35 11
f 10 36 58
f 10 58 33
f 12 29 13
f 13 29 14
f 14 29 37
f 14 37 15
f 15 37 16
f 16 37 38
f 16 38 39
f 16 39 17
f 17 39 40
f 17 40 18
f 18 40 19
f 19 40 20
f 20 40 41
f 20 41 42
f 20 42 21
f 21 42 43
f 21 43 44
f 21 44 22
f 22 44 23
f 23 44 24
f 24 44 45
f 24 45 46
f 24 46 47
f 24 47 25
f 25 47 48
f 25 48 26
f 26 48 27
f 27 48 49
f 27 49 28
f 28 49 51
f 28 51 50
f 29 52 37
f 30 53 54
f 30 54 31
f 31 54 55
f 31 55 32
f 32 55 56
f 32 56 57
f 36 59 86
f 36 86 114
f 36 114 135
f 36 135 138
f 36 138 118
f 36 118 89
f 36 89 60
f 36 60 58
f 37 52 61
f 37 61 62
f 37 62 63
f 37 63 38
f 38 63 39
f 39 63 64
f 39 64 65
f 39 65 40
f 40 65 66
f 40 66 41
f 41 66 42
f 42 67 43
f 42 66 68
f 42 68 67
f 43 67 44
f 44 67 45
f 45 48 47
f 45 47 46
f 45 67 69
f 45 69 70
f 45 70 71
f 45 71 48
f 48 71 72
f 48 72 49
f 49 72 51
f 50 51 73
f 51 72 74
f 51 74 75
f 51 75 76
f 51 76 73
f 53 73 54
f 54 76 75
f 54 75 77
f 54 77 55
f 54 73 76
f 55 77 56
f 56 78 79
f 56 79 80
f 56 80 57
f 56 77 78
f 58 60 81
f 58 81 82
f 58 82 83
f 58 83 84
f 58 84 85
f 59 87 88
f 59 88 86
f 60 89 90
f 60 90 81
f 62 91 63
f 63 91 92
f 63 92 64
f 64 92 93
f 64 93 65
f 65 93 94
f 65 94 66
f 66 94 95
f 66 95 68
f 67 68 96
f 67 96 97
f 67 97 69
f 68 95 98
f 68 98 96
f 69 97 99
f 69 99 70
f 70 99 100
f 70 100 71
f 71 100 72
f 72 100 101
f 72 101 74
f 74 101 102
f 74 102 103
f 74 103 75
f 75 103 77
f 77 103 78
f 78 103 104
f 78 104 79
f 79 104 105
f 79 105 106
f 79 106 80
f 81 90 107
f 81 107 82
f 82 107 83
f 83 107 84
f 84 108 109
f 84 109 110
f 84 110 111
f 84 111 85
f 84 107 108
f 85 111 110
f 85 110 113
f 85 113 112
f 86 88 115
f 86 115 114
f 87 116 105
f 87 105 88
f 88 105 117
f 88 117 115
f 89 118 119
f 89 119 90
f 90 119 120
f 90 120 108
f 90 108 107
f 91 121 92
f 92 121 122
f 92 122 123
f 92 123 93
f 93 123 124
f 93 124 94
f 94 124 113
f 94 113 110
f 94 110 125
f 94 125 126
f 94 126 95
f 95 126 127
f 95 127 128
f 95 128 129
f 95 129 98
f 96 98 129
f 96 129 97
f 97 129 130
f 97 130 99
f 99 130 131
f 99 131 100
f 100 131 132
f 100 132 101
f 101 132 133
f 101 133 102
f 102 133 134
f 102 134 103
f 103 134 104
f 104 134 117
f 104 117 105
f 105 116 106
f 108 120 129
f 108 129 109
f 109 129 127
f 109 127 126
f 109 126 125
f 109 125 110
f 112 113 124
f 114 115 136
f 114 136 135
f 115 117 137
f 115 137 136
f 117 134 137
f 118 138 139
f 118 139 119
f 119 139 140
f 119 140 141
f 119 141 120
f 120 141 131
f 120 131 130
f 120 130 129
f 127 129 128
f 131 141 140
f 131 140 132
f 132 140 133
f 133 140 142
f 133 142 137
f 133 137 134
f 135 136 143
f 135 143 138
f 136 137 143
f 137 142 143
f 138 143 139
f 139 143 140
f 140 143 142

