# https://github.com/mikedh/trimesh
v 0.00012466 -0.00000694 -0.05475300
v 0.00064202 -0.00000694 -0.05475300
v 0.00012466 -0.00000694 -0.04795590
v 0.00012466 0.01963419 -0.05475300
v 0.01822348 -0.00000416 -0.05475300
v 0.01822348 -0.00000694 -0.04824655
v 0.01822348 -0.00000694 -0.04795590
v 0.01822348 0.01573146 -0.04363314
v 0.00012466 0.02371708 -0.04363314
v 0.00012466 0.02065422 -0.05463761
v 0.00058887 0.02130005 -0.05456576
v 0.00063671 0.01964527 -0.05475300
v 0.01822348 0.00839445 -0.05475300
v 0.01822348 0.02203181 -0.04363314
v 0.00012466 0.02829613 -0.04363314
v 0.00012466 0.02128619 -0.05456576
v 0.00195314 0.02124739 -0.05456576
v 0.00012466 0.02230068 -0.05418476
v 0.00055343 0.02279407 -0.05400297
v 0.00201339 0.02274140 -0.05400297
v 0.00189645 0.01959538 -0.05475300
v 0.01796480 0.00894050 -0.05475300
v 0.01822348 0.00888784 -0.05472905
v 0.01822348 0.02085379 -0.04719716
v 0.01816856 0.02207616 -0.04363314
v 0.00047016 0.02830999 -0.04363314
v 0.00012466 0.02716523 -0.04801142
v 0.00331211 0.02110880 -0.05456576
v 0.00346625 0.02259726 -0.05400297
v 0.00012466 0.02278298 -0.05400297
v 0.00012466 0.02459298 -0.05238316
v 0.00052154 0.02530256 -0.05175722
v 0.00214450 0.02524990 -0.05175722
v 0.00314910 0.01946234 -0.05475300
v 0.01735708 0.01004369 -0.05475300
v 0.01822348 0.00991896 -0.05467353
v 0.01822348 0.00908464 -0.05471925
v 0.01822348 0.02056829 -0.04801142
v 0.01808528 0.02069302 -0.04801142
v 0.01672455 0.02177958 -0.04801142
v 0.01740137 0.02268596 -0.04363314
v 0.00228447 0.02824901 -0.04363314
v 0.00221183 0.02712088 -0.04801142
v 0.00047016 0.02717631 -0.04801142
v 0.00012466 0.02675223 -0.04883983
v 0.00465867 0.02088428 -0.05456576
v 0.00490849 0.02235889 -0.05400297
v 0.00375860 0.02508913 -0.05175722
v 0.00535852 0.02482858 -0.05175722
v 0.00012466 0.02529147 -0.05175722
v 0.00394641 0.02695457 -0.04801142
v 0.00438935 0.01925168 -0.05475300
v 0.01822348 0.01060360 -0.05463543
v 0.01667848 0.01110529 -0.05475300
v 0.01822348 0.01175667 -0.05456576
v 0.01822348 0.01098334 -0.05461257
v 0.01822348 0.01938750 -0.04976512
v 0.01691236 0.01923227 -0.05175722
v 0.01564553 0.02024676 -0.05175722
v 0.01529471 0.02277743 -0.04801142
v 0.01591307 0.02372540 -0.04363314
v 0.01431669 0.02117809 -0.05175722
v 0.00408992 0.02807715 -0.04363314
v 0.00598751 0.02057383 -0.05456576
v 0.00633301 0.02202627 -0.05400297
v 0.00694073 0.02446270 -0.05175722
v 0.00566504 0.02667461 -0.04801142
v 0.00736419 0.02628656 -0.04801142
v 0.00477738 0.02796628 -0.04363314
v 0.00561543 0.01896064 -0.05475300
v 0.01593433 0.01212255 -0.05475300
v 0.01800732 0.01209206 -0.05456576
v 0.01822348 0.01225006 -0.05446452
v 0.01822348 0.01826214 -0.05142412
v 0.01811009 0.01814018 -0.05175722
v 0.01530889 0.01730309 -0.05400297
v 0.01416963 0.01821779 -0.05400297
v 0.01297367 0.01905765 -0.05400297
v 0.01380464 0.02367828 -0.04801142
v 0.01436098 0.02466504 -0.04363314
v 0.01495630 0.02430471 -0.04363314
v 0.01293292 0.02202350 -0.05175722
v 0.01172633 0.01981990 -0.05400297
v 0.00729509 0.02017747 -0.05456576
v 0.00773272 0.02160773 -0.05400297
v 0.00849459 0.02399981 -0.05175722
v 0.00903499 0.02579317 -0.04801142
v 0.00588297 0.02778611 -0.04363314
v 0.00765122 0.02738143 -0.04363314
v 0.00682025 0.01859198 -0.05475300
v 0.01512639 0.01308715 -0.05475300
v 0.01719584 0.01318970 -0.05456576
v 0.01822348 0.01308160 -0.05427946
v 0.01822348 0.01814572 -0.05158741
v 0.01822348 0.01802376 -0.05175722
v 0.01638614 0.01631632 -0.05400297
v 0.01436630 0.01614169 -0.05456576
v 0.01330500 0.01700096 -0.05456576
v 0.01218877 0.01778538 -0.05456576
v 0.01102470 0.01850051 -0.05456576
v 0.01149600 0.02277466 -0.05175722
v 0.01226141 0.02448488 -0.04801142
v 0.01336878 0.02518337 -0.04363314
v 0.01043470 0.02050177 -0.05400297
v 0.00981634 0.01914080 -0.05456576
v 0.00910231 0.02109771 -0.05400297
v 0.00857432 0.01969794 -0.05456576
v 0.01066857 0.02519169 -0.04801142
v 0.01001301 0.02343435 -0.05175722
v 0.00831741 0.02718463 -0.04363314
v 0.00938934 0.02686587 -0.04363314
v 0.01109203 0.02623944 -0.04363314
v 0.00799849 0.01814849 -0.05475300
v 0.01425645 0.01399908 -0.05475300
v 0.01631704 0.01423191 -0.05456576
v 0.01822348 0.01404897 -0.05406175
v 0.01822348 0.01674041 -0.05255624
v 0.01822348 0.01603082 -0.05299712
v 0.01739960 0.01526303 -0.05400297
v 0.01537267 0.01521868 -0.05456576
v 0.01333157 0.01485280 -0.05475300
v 0.01235355 0.01564554 -0.05475300
v 0.01132768 0.01637453 -0.05475300
v 0.01025575 0.01703699 -0.05475300
v 0.00914661 0.01762739 -0.05475300
v 0.01211613 0.02578763 -0.04363314
v 0.01275220 0.02550491 -0.04363314
v 0.01822348 0.01415153 -0.05403671
v 0.01822348 0.01539885 -0.05336288
v 0.01822348 0.01428734 -0.05400297
f 1 2 6
f 1 6 7
f 1 7 3
f 1 3 9
f 1 9 15
f 1 15 27
f 1 27 45
f 1 45 50
f 1 50 31
f 1 31 30
f 1 30 18
f 1 18 16
f 1 16 10
f 1 10 4
f 1 4 12
f 1 12 21
f 1 21 34
f 1 34 52
f 1 52 70
f 1 70 90
f 1 90 113
f 1 113 125
f 1 125 124
f 1 124 123
f 1 123 122
f 1 122 121
f 1 121 114
f 1 114 91
f 1 91 71
f 1 71 54
f 1 54 35
f 1 35 22
f 1 22 13
f 1 13 5
f 1 5 2
f 2 5 6
f 3 7 8
f 3 8 9
f 4 10 11
f 4 11 12
f 5 13 23
f 5 23 37
f 5 37 36
f 5 36 53
f 5 53 56
f 5 56 55
f 5 55 73
f 5 73 93
f 5 93 116
f 5 116 128
f 5 128 130
f 5 130 129
f 5 129 118
f 5 118 117
f 5 117 95
f 5 95 94
f 5 94 74
f 5 74 57
f 5 57 38
f 5 38 24
f 5 24 14
f 5 14 8
f 5 8 7
f 5 7 6
f 8 14 25
f 8 25 41
f 8 41 61
f 8 61 81
f 8 81 80
f 8 80 103
f 8 103 127
f 8 127 126
f 8 126 112
f 8 112 111
f 8 111 110
f 8 110 89
f 8 89 88
f 8 88 69
f 8 69 63
f 8 63 42
f 8 42 26
f 8 26 15
f 8 15 9
f 10 16 11
f 11 17 12
f 11 16 18
f 11 18 19
f 11 19 20
f 11 20 17
f 12 17 21
f 13 22 23
f 14 24 25
f 15 26 27
f 17 28 21
f 17 20 29
f 17 29 28
f 18 30 19
f 19 30 31
f 19 31 32
f 19 32 33
f 19 33 20
f 20 33 29
f 21 28 34
f 22 35 36
f 22 36 37
f 22 37 23
f 24 38 39
f 24 39 40
f 24 40 25
f 25 40 41
f 26 42 43
f 26 43 44
f 26 44 27
f 27 44 45
f 28 46 34
f 28 29 47
f 28 47 46
f 29 33 48
f 29 48 49
f 29 49 47
f 31 50 32
f 32 50 45
f 32 45 44
f 32 44 43
f 32 43 33
f 33 43 51
f 33 51 48
f 34 46 52
f 35 53 36
f 35 54 55
f 35 55 56
f 35 56 53
f 38 57 58
f 38 58 39
f 39 58 59
f 39 59 40
f 40 60 61
f 40 61 41
f 40 59 62
f 40 62 60
f 42 63 43
f 43 63 51
f 46 64 52
f 46 47 65
f 46 65 64
f 47 49 66
f 47 66 65
f 48 51 49
f 49 51 67
f 49 67 68
f 49 68 66
f 51 63 69
f 51 69 67
f 52 64 70
f 54 71 72
f 54 72 55
f 55 72 73
f 57 74 75
f 57 75 58
f 58 75 76
f 58 76 77
f 58 77 59
f 59 77 78
f 59 78 62
f 60 79 80
f 60 80 81
f 60 81 61
f 60 62 82
f 60 82 79
f 62 78 83
f 62 83 82
f 64 84 70
f 64 65 85
f 64 85 84
f 65 66 86
f 65 86 85
f 66 68 87
f 66 87 86
f 67 69 88
f 67 88 68
f 68 88 89
f 68 89 87
f 70 84 90
f 71 91 92
f 71 92 72
f 72 92 93
f 72 93 73
f 74 94 75
f 75 94 95
f 75 95 96
f 75 96 76
f 76 96 97
f 76 97 98
f 76 98 77
f 77 98 99
f 77 99 78
f 78 99 100
f 78 100 83
f 79 82 101
f 79 101 102
f 79 102 80
f 80 102 103
f 82 83 104
f 82 104 101
f 83 100 105
f 83 105 104
f 84 85 106
f 84 106 107
f 84 107 90
f 85 86 106
f 86 87 108
f 86 108 109
f 86 109 106
f 87 89 110
f 87 110 111
f 87 111 112
f 87 112 108
f 90 107 113
f 91 114 115
f 91 115 92
f 92 116 93
f 92 115 116
f 95 117 96
f 96 117 118
f 96 118 119
f 96 119 120
f 96 120 97
f 97 120 121
f 97 121 122
f 97 122 98
f 98 123 99
f 98 122 123
f 99 123 124
f 99 124 100
f 100 124 125
f 100 125 105
f 101 109 102
f 101 104 106
f 101 106 109
f 102 108 126
f 102 126 127
f 102 127 103
f 102 109 108
f 104 105 107
f 104 107 106
f 105 125 113
f 105 113 107
f 108 112 126
f 114 121 120
f 114 120 115
f 115 120 119
f 115 119 116
f 116 119 128
f 118 129 119
f 119 129 130
f 119 130 128

