# https://github.com/mikedh/trimesh
v 0.01822348 0.02471502 -0.03314566
v 0.01867902 0.02439801 -0.03314566
v 0.01822348 0.02378819 -0.03731654
v 0.01822348 0.02190548 -0.03314566
v 0.02020473 0.02318078 -0.03314566
v 0.01822348 0.02299445 -0.04072388
v 0.01822348 -0.00000694 -0.04795312
v 0.02789767 -0.00000694 -0.03510420
v 0.02789767 0.00656316 -0.03314566
v 0.02164899 0.02186677 -0.03314566
v 0.02068773 0.02087460 -0.04072388
v 0.01930881 0.02212812 -0.04072388
v 0.01822348 0.02085524 -0.04719593
v 0.01822348 -0.00000694 -0.04824500
v 0.02789767 -0.00000694 -0.04698654
v 0.02789767 0.01316955 -0.03314566
v 0.02167172 0.02184499 -0.03314566
v 0.02198330 0.01953638 -0.04072388
v 0.02058923 0.01827076 -0.04801022
v 0.01937795 0.01952186 -0.04801022
v 0.01822348 0.02056969 -0.04801022
v 0.01822348 -0.00000452 -0.05475300
v 0.02010907 -0.00000694 -0.05475300
v 0.02763344 -0.00000694 -0.04801022
v 0.02789767 0.00088118 -0.04698654
v 0.02789767 0.01214351 -0.03559700
v 0.02788347 0.01320101 -0.03314566
v 0.02300707 0.02046563 -0.03314566
v 0.02302885 0.02044143 -0.03314566
v 0.02319080 0.01811830 -0.04072388
v 0.02171812 0.01694464 -0.04801022
v 0.01923873 0.01697368 -0.05175598
v 0.01822348 0.01814734 -0.05158677
v 0.01822348 0.01938634 -0.04976360
v 0.01822348 0.01826350 -0.05142392
v 0.01822348 0.00839504 -0.05475300
v 0.02072466 -0.00000694 -0.05468320
v 0.02011381 0.00046495 -0.05475300
v 0.02664188 -0.00000694 -0.04999626
v 0.02576395 0.00076018 -0.05175598
v 0.02763344 0.00087150 -0.04801022
v 0.02752169 0.00261142 -0.04801022
v 0.02789767 0.00264772 -0.04654661
v 0.02747434 0.01405041 -0.03314566
v 0.02789767 0.01064799 -0.03867863
v 0.02704343 0.01176600 -0.04072388
v 0.02427139 0.01897979 -0.03314566
v 0.02543817 0.01741652 -0.03314566
v 0.02430454 0.01662521 -0.04072388
v 0.02276083 0.01554834 -0.04801022
v 0.02028712 0.01573467 -0.05175598
v 0.01822348 0.01802392 -0.05175598
v 0.01822348 0.01602991 -0.05299751
v 0.01822348 0.00908472 -0.05471916
v 0.01941015 0.00975020 -0.05456476
v 0.01999637 0.00851604 -0.05456476
v 0.01850381 0.00780216 -0.05475300
v 0.02176453 0.00056659 -0.05456476
v 0.02176074 -0.00000694 -0.05456476
v 0.02004373 0.00172331 -0.05475300
v 0.02576206 -0.00000694 -0.05175598
v 0.02316712 0.00210808 -0.05400216
v 0.02566262 0.00237911 -0.05175598
v 0.02434147 -0.00000694 -0.05302923
v 0.02325520 0.00064886 -0.05400216
v 0.02545805 0.00398836 -0.05175598
v 0.02729819 0.00433925 -0.04801022
v 0.02789767 0.00443605 -0.04566041
v 0.02746013 0.01407945 -0.03314566
v 0.02623559 0.01344059 -0.04072388
v 0.02789767 0.01009625 -0.03981441
v 0.02774236 0.01003817 -0.04072388
v 0.02532168 0.01100130 -0.04801022
v 0.02456593 0.01256941 -0.04801022
v 0.02648466 0.01580969 -0.03314566
v 0.02532168 0.01506436 -0.04072388
v 0.02371073 0.01408671 -0.04801022
v 0.02125407 0.01443276 -0.05175598
v 0.01834376 0.01414720 -0.05400216
v 0.01822348 0.01428756 -0.05400216
v 0.01822348 0.01060443 -0.05463456
v 0.01874721 0.01094322 -0.05456476
v 0.02071803 0.01047134 -0.05400216
v 0.02134877 0.00915248 -0.05400216
v 0.02189144 0.00779732 -0.05400216
v 0.02050116 0.00724800 -0.05456476
v 0.01896692 0.00663092 -0.05475300
v 0.02238201 -0.00000694 -0.05433211
v 0.02168403 0.00192900 -0.05456476
v 0.01989220 0.00297199 -0.05475300
v 0.02151735 0.00328416 -0.05456476
v 0.02298623 0.00355761 -0.05400216
v 0.02325330 -0.00000694 -0.05400216
v 0.02271253 0.00499263 -0.05400216
v 0.02515121 0.00558309 -0.05175598
v 0.02696577 0.00605014 -0.04801022
v 0.02789767 0.00626309 -0.04430889
v 0.02650266 0.01578065 -0.03314566
v 0.02789767 0.00992928 -0.04010417
v 0.02789767 0.00956871 -0.04072388
v 0.02789767 0.00814337 -0.04246457
v 0.02652349 0.00773440 -0.04801022
v 0.02597420 0.00938721 -0.04801022
v 0.02292941 0.01165952 -0.05175598
v 0.02362929 0.01019789 -0.05175598
v 0.02213672 0.01307276 -0.05175598
v 0.01921316 0.01297354 -0.05400216
v 0.01822348 0.01404557 -0.05406138
v 0.01822348 0.01415204 -0.05403600
v 0.01822348 0.01307760 -0.05427923
v 0.01822348 0.01175632 -0.05456476
v 0.01822348 0.01224998 -0.05446535
v 0.02000679 0.01174906 -0.05400216
v 0.02423540 0.00869269 -0.05175598
v 0.02474397 0.00715120 -0.05175598
v 0.02234792 0.00640828 -0.05400216
v 0.02092449 0.00594850 -0.05456476
v 0.01935332 0.00543063 -0.05475300
v 0.01966206 0.00421099 -0.05475300
v 0.02126354 0.00462722 -0.05456476
f 1 2 3
f 1 3 6
f 1 6 13
f 1 13 21
f 1 21 34
f 1 34 35
f 1 35 33
f 1 33 52
f 1 52 53
f 1 53 80
f 1 80 109
f 1 109 108
f 1 108 110
f 1 110 112
f 1 112 111
f 1 111 81
f 1 81 54
f 1 54 36
f 1 36 22
f 1 22 14
f 1 14 7
f 1 7 4
f 1 4 9
f 1 9 16
f 1 16 27
f 1 27 44
f 1 44 69
f 1 69 98
f 1 98 75
f 1 75 48
f 1 48 47
f 1 47 29
f 1 29 28
f 1 28 17
f 1 17 10
f 1 10 5
f 1 5 2
f 2 5 6
f 2 6 3
f 4 7 8
f 4 8 9
f 5 10 11
f 5 11 12
f 5 12 6
f 6 12 13
f 7 14 23
f 7 23 37
f 7 37 59
f 7 59 88
f 7 88 93
f 7 93 64
f 7 64 61
f 7 61 39
f 7 39 24
f 7 24 15
f 7 15 8
f 8 15 25
f 8 25 43
f 8 43 68
f 8 68 97
f 8 97 101
f 8 101 100
f 8 100 99
f 8 99 71
f 8 71 45
f 8 45 26
f 8 26 16
f 8 16 9
f 10 17 11
f 11 17 18
f 11 18 19
f 11 19 20
f 11 20 12
f 12 20 13
f 13 20 21
f 14 22 23
f 15 24 41
f 15 41 25
f 16 26 27
f 17 28 18
f 18 28 29
f 18 29 30
f 18 30 19
f 19 30 31
f 19 31 32
f 19 32 33
f 19 33 20
f 20 34 21
f 20 33 35
f 20 35 34
f 22 36 57
f 22 57 87
f 22 87 118
f 22 118 119
f 22 119 90
f 22 90 60
f 22 60 38
f 22 38 23
f 23 38 37
f 24 39 40
f 24 40 41
f 25 41 42
f 25 42 43
f 26 44 27
f 26 45 46
f 26 46 44
f 29 47 30
f 30 48 49
f 30 49 50
f 30 50 31
f 30 47 48
f 31 50 51
f 31 51 32
f 32 52 33
f 32 51 53
f 32 53 52
f 36 54 55
f 36 55 56
f 36 56 57
f 37 38 58
f 37 58 59
f 38 60 58
f 39 61 40
f 40 62 63
f 40 63 41
f 40 61 64
f 40 64 65
f 40 65 62
f 41 63 42
f 42 63 66
f 42 66 67
f 42 67 68
f 42 68 43
f 44 46 70
f 44 70 69
f 45 71 46
f 46 71 72
f 46 72 73
f 46 73 74
f 46 74 70
f 48 75 76
f 48 76 49
f 49 76 50
f 50 76 77
f 50 77 78
f 50 78 51
f 51 78 79
f 51 79 53
f 53 79 80
f 54 81 82
f 54 82 55
f 55 82 83
f 55 83 84
f 55 84 56
f 56 84 85
f 56 85 86
f 56 86 57
f 57 86 87
f 58 65 88
f 58 88 59
f 58 60 89
f 58 89 65
f 60 90 89
f 62 91 92
f 62 92 63
f 62 65 89
f 62 89 91
f 63 92 66
f 64 93 65
f 65 93 88
f 66 92 94
f 66 94 95
f 66 95 67
f 67 95 96
f 67 96 68
f 68 96 97
f 69 70 98
f 70 74 76
f 70 76 98
f 71 99 72
f 72 99 100
f 72 100 101
f 72 101 102
f 72 102 103
f 72 103 73
f 73 104 74
f 73 103 105
f 73 105 104
f 74 106 77
f 74 77 76
f 74 104 106
f 75 98 76
f 77 106 78
f 78 106 107
f 78 107 79
f 79 108 109
f 79 109 80
f 79 107 110
f 79 110 108
f 81 111 82
f 82 111 112
f 82 112 113
f 82 113 83
f 83 113 104
f 83 104 105
f 83 105 84
f 84 114 85
f 84 105 114
f 85 115 116
f 85 116 86
f 85 114 115
f 86 116 117
f 86 117 87
f 87 117 118
f 89 90 91
f 90 119 91
f 91 119 120
f 91 120 92
f 92 120 94
f 94 120 117
f 94 117 116
f 94 116 95
f 95 116 115
f 95 115 96
f 96 115 102
f 96 102 101
f 96 101 97
f 102 115 114
f 102 114 103
f 103 114 105
f 104 113 106
f 106 113 107
f 107 112 110
f 107 113 112
f 117 120 118
f 118 120 119

