# https://github.com/mikedh/trimesh
v -0.02104060 -0.03775540 0.05429437
v -0.02121332 -0.03766313 0.05429437
v -0.02112607 -0.03750934 0.04357071
v -0.02104060 -0.03756125 0.04396263
v -0.02104060 -0.03769004 0.05463626
v -0.02118305 -0.03761507 0.05463626
v -0.02355126 -0.03618104 0.05463626
v -0.02358331 -0.03622718 0.05429437
v -0.02104060 -0.03755356 0.04357071
v -0.02348538 -0.03607916 0.04357071
v -0.02300461 -0.03533715 0.03253017
v -0.02104060 -0.03652706 0.03253017
v -0.02104060 -0.03735556 0.04137761
v -0.02104060 -0.03749973 0.05475300
v -0.02109580 -0.03747090 0.05475300
v -0.02581976 -0.03459900 0.05463626
v -0.02345333 -0.03604264 0.05475300
v -0.02585537 -0.03464129 0.05429437
v -0.02575031 -0.03450096 0.04357071
v -0.02521969 -0.03379163 0.03253017
v -0.02214280 -0.03401654 0.02180651
v -0.02104060 -0.03468358 0.02180651
v -0.02104060 -0.03719601 0.05472381
v -0.03868466 -0.01811728 0.05472381
v -0.03897846 -0.01811728 0.05475300
v -0.02798320 -0.03287278 0.05463626
v -0.02802237 -0.03291315 0.05429437
v -0.02571470 -0.03446444 0.05475300
v -0.02786924 -0.03274783 0.05475300
v -0.02733327 -0.03210579 0.03253017
v -0.02790663 -0.03277859 0.04357071
v -0.02427775 -0.03252677 0.02180651
v -0.02104060 -0.03232108 0.01271724
v -0.02104060 -0.03711720 0.05464043
v -0.03860631 -0.01811728 0.05463626
v -0.03865795 -0.01811728 0.05469463
v -0.03916542 -0.01811728 0.05463626
v -0.03827334 -0.01997037 0.05463626
v -0.03812020 -0.01989732 0.05475300
v -0.03003268 -0.03101200 0.05463626
v -0.02991160 -0.03089475 0.05475300
v -0.03007363 -0.03105045 0.05429437
v -0.02995077 -0.03092358 0.04357071
v -0.02933468 -0.03028730 0.03253017
v -0.02823782 -0.02915699 0.02180651
v -0.02631120 -0.03090436 0.02180651
v -0.02491877 -0.02927041 0.01215855
v -0.02299215 -0.03080632 0.01215855
v -0.02104060 -0.03216922 0.01215855
v -0.02104060 -0.03704799 0.05429437
v -0.03858494 -0.01811728 0.05451951
v -0.03922952 -0.01811728 0.05429437
v -0.03832497 -0.01999536 0.05429437
v -0.03691473 -0.02238284 0.05463626
v -0.03676694 -0.02229826 0.05475300
v -0.03195574 -0.02902436 0.05463626
v -0.03182753 -0.02891479 0.05475300
v -0.03199847 -0.02906088 0.05429437
v -0.03186849 -0.02894170 0.04357071
v -0.03121322 -0.02834771 0.03253017
v -0.03004870 -0.02728853 0.02180651
v -0.02674389 -0.02761532 0.01215855
v -0.02655159 -0.02779024 0.01215855
v -0.02104060 -0.03134648 0.01215855
v -0.03854399 -0.01811728 0.05429437
v -0.03311669 -0.01811728 0.01215855
v -0.03903188 -0.01811728 0.04357071
v -0.03816650 -0.01991270 0.04357071
v -0.03681324 -0.02231749 0.04357071
v -0.03696459 -0.02240976 0.05429437
v -0.03545285 -0.02473188 0.05429437
v -0.03540478 -0.02470113 0.05463626
v -0.03526233 -0.02460886 0.05475300
v -0.03375059 -0.02691945 0.05463626
v -0.03379688 -0.02695213 0.05429437
v -0.03361348 -0.02681757 0.05475300
v -0.03365800 -0.02684256 0.04357071
v -0.03296534 -0.02629086 0.03253017
v -0.03173138 -0.02530665 0.02180651
v -0.03005582 -0.02396873 0.01215855
v -0.02845684 -0.02584489 0.01215855
v -0.02827700 -0.02603135 0.01215855
v -0.03389126 -0.01811728 0.01215855
v -0.03805076 -0.01811728 0.03253017
v -0.03738303 -0.01950325 0.03253017
v -0.03605648 -0.02185806 0.03253017
v -0.03458213 -0.02412444 0.03253017
v -0.03530684 -0.02463000 0.04357071
v -0.03328763 -0.02322288 0.02180651
v -0.03137169 -0.02220215 0.01215855
v -0.03287097 -0.01992808 0.01215855
v -0.03470856 -0.02104108 0.02180651
v -0.03598525 -0.01877470 0.02180651
v -0.03472636 -0.01811728 0.01543152
v -0.03630220 -0.01811728 0.02180651
v -0.03272852 -0.02014722 0.01215855
v -0.03152661 -0.02199262 0.01215855
v -0.03577692 -0.01811728 0.01968012
f 1 2 3
f 1 3 4
f 1 4 9
f 1 9 13
f 1 13 12
f 1 12 22
f 1 22 33
f 1 33 49
f 1 49 64
f 1 64 50
f 1 50 34
f 1 34 23
f 1 23 14
f 1 14 5
f 1 5 6
f 1 6 2
f 2 6 7
f 2 7 8
f 2 8 3
f 3 9 4
f 3 8 10
f 3 10 11
f 3 11 12
f 3 12 13
f 3 13 9
f 5 14 15
f 5 15 6
f 6 15 7
f 7 16 8
f 7 15 17
f 7 17 16
f 8 16 18
f 8 18 19
f 8 19 10
f 10 19 11
f 11 19 20
f 11 20 21
f 11 21 12
f 12 21 22
f 14 23 24
f 14 24 25
f 14 25 39
f 14 39 55
f 14 55 73
f 14 73 76
f 14 76 57
f 14 57 41
f 14 41 29
f 14 29 28
f 14 28 17
f 14 17 15
f 16 26 27
f 16 27 18
f 16 17 28
f 16 28 29
f 16 29 26
f 18 27 19
f 19 30 20
f 19 27 31
f 19 31 30
f 20 30 32
f 20 32 21
f 21 32 33
f 21 33 22
f 23 34 35
f 23 35 36
f 23 36 24
f 24 36 35
f 24 35 51
f 24 51 65
f 24 65 66
f 24 66 83
f 24 83 94
f 24 94 98
f 24 98 95
f 24 95 84
f 24 84 67
f 24 67 52
f 24 52 37
f 24 37 25
f 25 37 38
f 25 38 39
f 26 40 27
f 26 29 41
f 26 41 40
f 27 42 43
f 27 43 31
f 27 40 42
f 30 31 43
f 30 43 44
f 30 44 45
f 30 45 46
f 30 46 32
f 32 46 47
f 32 47 48
f 32 48 33
f 33 48 49
f 34 50 35
f 35 50 51
f 37 52 38
f 38 52 53
f 38 53 54
f 38 54 39
f 39 54 55
f 40 56 42
f 40 41 57
f 40 57 56
f 42 58 59
f 42 59 43
f 42 56 58
f 43 59 60
f 43 60 44
f 44 60 61
f 44 61 45
f 45 62 63
f 45 63 46
f 45 61 62
f 46 63 47
f 47 63 62
f 47 62 82
f 47 82 81
f 47 81 80
f 47 80 90
f 47 90 97
f 47 97 96
f 47 96 91
f 47 91 83
f 47 83 66
f 47 66 64
f 47 64 49
f 47 49 48
f 50 65 51
f 50 64 66
f 50 66 65
f 52 67 53
f 53 67 68
f 53 68 69
f 53 69 70
f 53 70 54
f 54 70 71
f 54 71 72
f 54 72 73
f 54 73 55
f 56 74 75
f 56 75 58
f 56 57 74
f 57 76 74
f 58 75 59
f 59 77 60
f 59 75 77
f 60 78 61
f 60 77 78
f 61 78 79
f 61 79 80
f 61 80 81
f 61 81 82
f 61 82 62
f 67 84 85
f 67 85 68
f 68 85 69
f 69 85 86
f 69 86 87
f 69 87 88
f 69 88 71
f 69 71 70
f 71 88 77
f 71 77 75
f 71 75 74
f 71 74 72
f 72 74 73
f 73 74 76
f 77 88 87
f 77 87 78
f 78 87 89
f 78 89 79
f 79 89 80
f 80 89 90
f 83 91 92
f 83 92 93
f 83 93 94
f 84 95 85
f 85 95 93
f 85 93 92
f 85 92 86
f 86 92 87
f 87 92 89
f 89 92 96
f 89 96 97
f 89 97 90
f 91 96 92
f 93 95 98
f 93 98 94

