# https://github.com/mikedh/trimesh
v -0.04999778 -0.00000273 0.00300000
v -0.04999778 -0.00000273 0.00499980
v -0.04938302 0.00782198 0.00300000
v -0.04499978 -0.00000273 -0.00000000
v -0.04938302 -0.00782201 0.00300000
v -0.04499978 -0.00000273 0.00600000
v -0.04938302 0.00782198 0.00499980
v -0.04938302 -0.00782201 0.00499980
v -0.04794043 0.01383597 0.00300000
v -0.04444494 0.00703896 -0.00000000
v -0.04444494 -0.00704443 -0.00000000
v -0.04755204 -0.01545097 0.00300000
v -0.04444494 0.00703896 0.00600000
v -0.04444494 -0.00704443 0.00600000
v -0.04794043 0.01383597 0.00499980
v -0.04755204 -0.01545097 0.00499980
v -0.04287363 0.01383597 0.00003465
v -0.04281371 0.01383597 -0.00000000
v -0.04279595 -0.01390669 -0.00000000
v -0.04454925 -0.02269929 0.00300000
v -0.04281371 0.01383597 0.00600000
v -0.04279595 -0.01390669 0.00600000
v -0.04454925 -0.02269929 0.00499980
v -0.02732700 0.01383597 -0.00000000
v -0.04009499 -0.02042637 -0.00000000
v -0.03640641 -0.02644580 -0.00000000
v -0.04045009 -0.02938755 0.00300000
v -0.02732700 0.00432560 0.00393265
v -0.02732700 0.01383597 0.00312686
v -0.02732700 -0.03565166 0.00600000
v -0.04009499 -0.02042637 0.00600000
v -0.04045009 -0.02938755 0.00499980
v -0.03640641 -0.02644580 0.00600000
v -0.02732700 -0.03565166 -0.00000000
v -0.03182121 -0.03181815 -0.00000000
v -0.03535665 -0.03535259 0.00300000
v -0.03182121 -0.03181815 0.00600000
v -0.02732700 -0.03629874 0.00590133
v -0.03535665 -0.03535259 0.00499980
v -0.02732700 -0.03760920 0.00089565
v -0.02939101 -0.04044763 0.00300000
v -0.02939101 -0.04044763 0.00499980
v -0.02732700 -0.03760920 0.00570106
v -0.02732700 -0.04171459 0.00300000
v -0.02732700 -0.04171459 0.00499980
f 1 2 7
f 1 7 3
f 1 3 4
f 1 4 5
f 1 5 8
f 1 8 2
f 2 6 7
f 2 8 6
f 3 7 15
f 3 15 9
f 3 9 10
f 3 10 4
f 4 11 5
f 4 10 18
f 4 18 24
f 4 24 34
f 4 34 35
f 4 35 26
f 4 26 25
f 4 25 19
f 4 19 11
f 5 12 16
f 5 16 8
f 5 11 12
f 6 13 7
f 6 8 14
f 6 14 22
f 6 22 31
f 6 31 33
f 6 33 37
f 6 37 30
f 6 30 21
f 6 21 13
f 7 13 15
f 8 16 14
f 9 15 21
f 9 21 29
f 9 29 24
f 9 24 18
f 9 18 17
f 9 17 10
f 10 17 18
f 11 19 12
f 12 20 23
f 12 23 16
f 12 19 20
f 13 21 15
f 14 16 22
f 16 23 22
f 19 25 20
f 20 25 26
f 20 26 27
f 20 27 32
f 20 32 23
f 21 28 29
f 21 30 28
f 22 23 31
f 23 32 33
f 23 33 31
f 24 29 28
f 24 28 30
f 24 30 38
f 24 38 43
f 24 43 45
f 24 45 44
f 24 44 40
f 24 40 34
f 26 35 27
f 27 35 36
f 27 36 39
f 27 39 32
f 30 37 38
f 32 39 37
f 32 37 33
f 34 40 35
f 35 40 41
f 35 41 36
f 36 41 42
f 36 42 39
f 37 39 42
f 37 42 38
f 38 42 43
f 40 44 41
f 41 44 45
f 41 45 42
f 42 45 43

