# https://github.com/mikedh/trimesh
v -0.01670261 0.03069143 0.00400040
v -0.01670261 0.04163768 0.00600000
v -0.01670261 0.04703425 0.00400040
v 0.00000312 0.03500302 0.00400040
v 0.00000802 0.04499848 0.00600000
v -0.01390551 0.04279638 0.00600000
v -0.01670261 0.04703425 0.00500001
v -0.01544964 0.04755217 0.00400040
v 0.00000802 0.04099878 0.00400040
v 0.00000802 0.04000075 0.00500001
v 0.00000802 0.04999811 0.00499805
v -0.00000015 0.05000000 0.00500001
v -0.00000015 0.04499848 0.00600000
v -0.00704034 0.04444465 0.00600000
v -0.00782222 0.04938379 0.00500001
v -0.01544964 0.04755217 0.00500001
v -0.00782222 0.04938379 0.00400040
v 0.00000802 0.04832526 0.00400040
v 0.00000312 0.04999811 0.00400040
f 1 2 7
f 1 7 3
f 1 3 8
f 1 8 17
f 1 17 19
f 1 19 18
f 1 18 9
f 1 9 4
f 1 4 5
f 1 5 2
f 2 5 13
f 2 13 14
f 2 14 6
f 2 6 7
f 3 7 16
f 3 16 8
f 4 9 10
f 4 10 5
f 5 11 12
f 5 12 13
f 5 10 9
f 5 9 18
f 5 18 11
f 6 14 15
f 6 15 16
f 6 16 7
f 8 16 15
f 8 15 17
f 11 18 19
f 11 19 12
f 12 19 17
f 12 17 15
f 12 15 14
f 12 14 13

