# https://github.com/mikedh/trimesh
v 0.00000803 -0.04999748 0.00400040
v 0.00391780 -0.04969116 0.00400040
v 0.00000803 -0.04999748 0.00500001
v 0.00000803 -0.03500142 0.00400040
v 0.00782268 -0.04938296 0.00400040
v 0.00782268 -0.04938296 0.00500001
v 0.00000803 -0.04499816 0.00600000
v 0.01671330 -0.03068279 0.00400040
v 0.01163762 -0.04846781 0.00400040
v 0.01545092 -0.04755265 0.00500001
v 0.01390565 -0.04279725 0.00600000
v 0.00704105 -0.04444415 0.00600000
v 0.01671330 -0.04163440 0.00600000
v 0.01671330 -0.04702890 0.00400040
v 0.01545092 -0.04755265 0.00400040
v 0.01671330 -0.04702890 0.00500001
v 0.01671330 -0.04566184 0.00525348
f 1 2 3
f 1 3 7
f 1 7 4
f 1 4 8
f 1 8 14
f 1 14 15
f 1 15 9
f 1 9 5
f 1 5 2
f 2 5 6
f 2 6 3
f 3 6 7
f 4 7 8
f 5 9 6
f 6 9 10
f 6 10 11
f 6 11 12
f 6 12 7
f 7 12 11
f 7 11 13
f 7 13 8
f 8 13 17
f 8 17 16
f 8 16 14
f 9 15 10
f 10 15 14
f 10 14 16
f 10 16 17
f 10 17 13
f 10 13 11

