# https://github.com/mikedh/trimesh
v 0.02732912 0.01383826 -0.00000000
v 0.04281405 0.01383826 -0.00000000
v 0.02732912 0.01383826 0.00312745
v 0.02732912 0.03565255 -0.00000000
v 0.04279791 0.01390649 -0.00000000
v 0.04695614 0.01383826 0.00242384
v 0.04281405 0.01383826 0.00600000
v 0.02732912 0.03565255 0.00600000
v 0.02732912 0.03761458 0.00089742
v 0.03182026 0.03181854 -0.00000000
v 0.04009435 0.02043112 -0.00000000
v 0.04454917 0.02270151 0.00300000
v 0.04755133 0.01545101 0.00300000
v 0.04793870 0.01383826 0.00300000
v 0.04793870 0.01383826 0.00499980
v 0.04279791 0.01390649 0.00600000
v 0.03182026 0.03181854 0.00600000
v 0.02938907 0.04044984 0.00499980
v 0.02732912 0.03761458 0.00570047
v 0.02732912 0.04171329 0.00300000
v 0.02938907 0.04044984 0.00300000
v 0.03535506 0.03535238 0.00300000
v 0.03640622 0.02645093 -0.00000000
v 0.04044945 0.02938715 0.00300000
v 0.04454917 0.02270151 0.00499980
v 0.04755133 0.01545101 0.00499980
v 0.04009435 0.02043112 0.00600000
v 0.03535506 0.03535238 0.00499980
v 0.03640622 0.02645093 0.00600000
v 0.02732912 0.04171329 0.00499980
v 0.04044945 0.02938715 0.00499980
f 1 2 6
f 1 6 14
f 1 14 15
f 1 15 7
f 1 7 3
f 1 3 8
f 1 8 19
f 1 19 30
f 1 30 20
f 1 20 9
f 1 9 4
f 1 4 10
f 1 10 23
f 1 23 11
f 1 11 5
f 1 5 2
f 2 5 6
f 3 7 8
f 4 9 10
f 5 11 12
f 5 12 13
f 5 13 6
f 6 13 14
f 7 15 16
f 7 16 27
f 7 27 29
f 7 29 17
f 7 17 8
f 8 17 18
f 8 18 19
f 9 20 21
f 9 21 10
f 10 21 22
f 10 22 23
f 11 23 12
f 12 23 24
f 12 24 31
f 12 31 25
f 12 25 26
f 12 26 13
f 13 26 15
f 13 15 14
f 15 26 16
f 16 26 25
f 16 25 27
f 17 28 18
f 17 29 28
f 18 30 19
f 18 28 22
f 18 22 21
f 18 21 20
f 18 20 30
f 22 28 31
f 22 31 24
f 22 24 23
f 25 31 29
f 25 29 27
f 28 29 31

