# https://github.com/mikedh/trimesh
v 0.02956698 -0.03052153 0.03805052
v 0.04227108 0.00000168 0.03417688
v 0.04067944 0.00000467 0.00323033
v 0.04043967 -0.00000130 -0.00153114
v 0.02862027 -0.02869265 0.00005602
v 0.03817211 -0.03052153 0.03805052
v 0.03074313 -0.03052153 0.05456670
v 0.04344516 0.00000168 0.05696872
v 0.04341415 0.00000168 0.05637277
v 0.04332114 0.00000168 0.05456670
v 0.04186593 0.00000467 0.02626541
v 0.04060296 0.00000467 0.00164926
v 0.04708110 -0.00000130 -0.00153114
v 0.02858719 -0.02860599 -0.00153114
v 0.03742384 -0.02869265 0.00005602
v 0.03819071 -0.03052153 0.03836066
v 0.03743624 -0.02869265 0.00023845
v 0.03091469 -0.03052153 0.05696872
v 0.04357125 0.00000168 0.05816668
v 0.04831513 0.00000467 0.02626541
v 0.04402187 0.00000168 0.05933425
v 0.04421410 0.00000168 0.05963830
v 0.04441047 0.00000168 0.05993628
v 0.04500992 0.00000168 0.06025249
v 0.04617367 0.00000168 0.06058087
v 0.04721960 0.00000467 0.00164926
v 0.04709557 -0.00060496 -0.00153114
v 0.04722373 0.00000467 0.00171615
v 0.04729401 0.00000467 0.00323033
v 0.03739697 -0.02860599 -0.00153114
v 0.03832301 -0.03052153 0.04075659
v 0.03829200 -0.02992386 0.03219445
v 0.03846770 -0.02992386 0.03537485
v 0.03929659 -0.02600013 -0.00153114
v 0.03809356 -0.02837589 0.00794316
v 0.03108419 -0.03052153 0.05816668
v 0.03122062 -0.03052153 0.05852547
v 0.04830480 0.00000467 0.02602217
v 0.04737256 0.00000168 0.06050790
v 0.04785005 0.00000168 0.06034371
v 0.04832547 0.00000168 0.06017952
v 0.04892491 0.00000168 0.05969911
v 0.04936106 0.00000168 0.05909709
v 0.04962358 0.00000168 0.05816668
v 0.04965252 0.00000168 0.05755858
v 0.04967732 0.00000168 0.05696872
v 0.04965252 0.00000168 0.05636669
v 0.03176838 -0.03052153 0.05941939
v 0.03180766 -0.03052153 0.05946804
v 0.03233889 -0.03052153 0.05996060
v 0.03297968 -0.03052153 0.06024033
v 0.03424678 -0.03052153 0.06053222
v 0.03538572 -0.03052153 0.06058087
v 0.04617367 -0.00420295 0.06058087
v 0.04737256 -0.00060496 0.06051398
v 0.04796994 -0.00116677 0.01797692
v 0.04709764 -0.00086793 -0.00153114
v 0.04736429 -0.00000429 0.00480533
v 0.04781697 0.00000168 0.01499720
v 0.04964011 -0.00060496 0.05577075
v 0.04888150 0.00000168 0.03897484
v 0.03875089 -0.03052153 0.04853428
v 0.04070838 -0.02748834 0.04377280
v 0.03861446 -0.02992386 0.03805052
v 0.03972447 -0.02540246 -0.00153114
v 0.04078900 -0.02640356 0.03090527
v 0.04057609 -0.02730904 0.03897484
v 0.04833374 -0.00060496 0.06018560
v 0.04893318 -0.00060496 0.05970520
v 0.04936519 -0.00060496 0.05910925
v 0.04963805 -0.00060496 0.05816668
v 0.04969179 -0.00060496 0.05696872
v 0.03544567 -0.03052153 0.06058087
v 0.04497478 -0.01139596 0.06058087
v 0.04617367 -0.00659963 0.06057479
v 0.04737256 -0.00180329 0.06051398
v 0.04833787 -0.00180329 0.06018560
v 0.04922464 -0.00180329 0.04617483
v 0.04796994 -0.00128332 0.01797692
v 0.04740770 -0.00180329 0.00540128
v 0.04970419 -0.00180329 0.05696872
v 0.04709764 -0.00180628 -0.00153114
v 0.04103704 -0.02793659 0.05577075
v 0.03957771 -0.02998064 0.05642142
v 0.03900927 -0.03052153 0.05327143
v 0.04019782 -0.02457767 -0.00153114
v 0.04067944 -0.02501397 0.01259518
v 0.04197135 -0.02637666 0.05285792
v 0.04199202 -0.02640954 0.05366062
v 0.04163649 -0.02709387 0.05577075
v 0.04893525 -0.00180329 0.05971736
v 0.04937140 -0.00180329 0.05911533
v 0.04965045 -0.00180329 0.05816668
v 0.03658255 -0.02938296 0.06056871
v 0.03898240 -0.02578497 0.06058087
v 0.03658255 -0.03052153 0.06045925
v 0.04257700 -0.01858897 0.06058087
v 0.04497478 -0.01259729 0.06057479
v 0.04617367 -0.00779796 0.06056871
v 0.04737256 -0.00300163 0.06049573
v 0.04617367 -0.00899630 0.06055655
v 0.04830067 -0.00300163 0.06017344
v 0.04917916 -0.00246372 0.04542077
v 0.04833787 -0.00180628 0.02626541
v 0.04963391 -0.00300163 0.05696872
v 0.04702116 -0.00300163 -0.00153114
v 0.04798440 -0.00253544 0.01887692
v 0.04709764 -0.00300462 0.00005602
v 0.04106805 -0.02798142 0.05696872
v 0.03920564 -0.03052153 0.05688358
v 0.04223800 -0.02086312 -0.00153114
v 0.04047688 -0.02422205 0.00005602
v 0.04135951 -0.02320003 0.00638641
v 0.04249638 -0.02458663 0.04377280
v 0.04196928 -0.02517235 0.03973497
v 0.04244471 -0.02578497 0.05577075
v 0.04250258 -0.02578497 0.05696872
v 0.04204577 -0.02649321 0.05577075
v 0.04166750 -0.02713870 0.05696872
v 0.04890011 -0.00300163 0.05965655
v 0.04933832 -0.00300163 0.05906060
v 0.04807949 -0.00779796 0.06004574
v 0.04958017 -0.00300163 0.05816668
v 0.03778144 -0.02818463 0.06053830
v 0.04017715 -0.02458663 0.06055046
v 0.04137811 -0.02218697 0.06056262
v 0.04257700 -0.01978731 0.06056871
v 0.03664663 -0.03052153 0.06044708
v 0.04017715 -0.02578497 0.06042885
v 0.03898240 -0.02698330 0.06048966
v 0.04377589 -0.01618931 0.06057479
v 0.04497478 -0.01379562 0.06056262
v 0.04617367 -0.01019763 0.06052614
v 0.04737256 -0.00420295 0.06045925
v 0.04737256 -0.00779796 0.06033763
v 0.04922464 -0.00286118 0.04737279
v 0.04953056 -0.00300163 0.05456670
v 0.04918329 -0.00728098 0.05764371
v 0.04918329 -0.00728098 0.05735182
v 0.04950369 -0.00420295 0.05696872
v 0.04699429 -0.00326759 -0.00153114
v 0.04723200 -0.00624999 0.01105059
v 0.04691367 -0.00660262 0.00481141
v 0.04662842 -0.00660560 -0.00153114
v 0.04884430 -0.00779796 0.05097279
v 0.03959838 -0.03000753 0.05768628
v 0.03959838 -0.03000753 0.05721804
v 0.03915189 -0.03052153 0.05811804
v 0.04276923 -0.01978133 -0.00153114
v 0.04315784 -0.02034613 0.01105059
v 0.04319298 -0.02042682 0.01259518
v 0.04286845 -0.02102449 0.01260126
v 0.04326326 -0.02265913 0.03805052
v 0.04441047 -0.02164906 0.04976873
v 0.04288499 -0.02465237 0.05217076
v 0.04423271 -0.02252465 0.05577075
v 0.04333354 -0.02427285 0.05696872
v 0.04244264 -0.02578497 0.05816668
v 0.04204577 -0.02649321 0.05816668
v 0.04207677 -0.02653804 0.05696872
v 0.04163649 -0.02709088 0.05816668
v 0.04802781 -0.00863770 0.06000925
v 0.04858178 -0.00779796 0.05936466
v 0.04927218 -0.00420295 0.05895114
v 0.04944994 -0.00420295 0.05816668
v 0.04917503 -0.00600793 0.05876871
v 0.04137811 -0.02338531 0.06046533
v 0.04257700 -0.02098564 0.06048966
v 0.04377589 -0.01858897 0.06046533
v 0.04377589 -0.01738765 0.06054438
v 0.03778144 -0.02938296 0.06037411
v 0.03772356 -0.03052153 0.06012479
v 0.03773596 -0.03049464 0.06013087
v 0.04017302 -0.02695043 0.06017952
v 0.04109492 -0.02578497 0.06013087
v 0.04145045 -0.02463146 0.06022817
v 0.04268242 -0.02228558 0.06024641
v 0.04497478 -0.01499396 0.06050790
v 0.04617367 -0.01139596 0.06045317
v 0.04617367 -0.01259729 0.06036803
v 0.04746351 -0.00902320 0.06020384
v 0.04921430 -0.00636952 0.05577075
v 0.04907374 -0.00772923 0.05809372
v 0.04886083 -0.00899630 0.05816668
v 0.04891251 -0.00899630 0.05696872
v 0.04911508 -0.00772923 0.05695655
v 0.04905720 -0.00779796 0.05577075
v 0.04803194 -0.00787566 0.03297283
v 0.04677931 -0.00725707 0.00344925
v 0.04648166 -0.00780095 -0.00153114
v 0.04796167 -0.00832392 0.03257148
v 0.04103704 -0.02793659 0.05816668
v 0.03953430 -0.02992087 0.05848290
v 0.03914569 -0.03052153 0.05815452
v 0.04310616 -0.01901631 -0.00153114
v 0.04318265 -0.01920756 0.00164926
v 0.04326119 -0.01938985 0.00481141
v 0.04436913 -0.02037303 0.03606201
v 0.04441874 -0.02047463 0.03805052
v 0.04444148 -0.02052245 0.03897484
v 0.04436913 -0.02157136 0.04812685
v 0.04347617 -0.02227064 0.03805052
v 0.04508433 -0.02098564 0.05696872
v 0.04456137 -0.02192399 0.05577075
v 0.04459031 -0.02197778 0.05696872
v 0.04423271 -0.02252465 0.05816668
v 0.04199202 -0.02640954 0.05879304
v 0.04720720 -0.01019763 0.06019777
v 0.04692607 -0.01259729 0.06007614
v 0.04683926 -0.01347587 0.06001533
v 0.04673384 -0.01427376 0.05993020
v 0.04792033 -0.00943858 0.05992411
v 0.04832960 -0.00902320 0.05945587
v 0.04823865 -0.01019763 0.05919439
v 0.04377589 -0.01978731 0.06031938
v 0.04497478 -0.01618931 0.06039236
v 0.03822999 -0.03052153 0.05979033
v 0.03842016 -0.03003443 0.05999100
v 0.03864133 -0.02938296 0.06009438
v 0.04087581 -0.02652907 0.06002749
v 0.04211604 -0.02426389 0.06005182
v 0.04236409 -0.02338531 0.06015519
v 0.04375935 -0.02087806 0.06013695
v 0.04627082 -0.01384344 0.06021601
v 0.04808982 -0.01139596 0.05897547
v 0.04800301 -0.01211915 0.05882344
v 0.04858385 -0.01019763 0.05816668
v 0.04863759 -0.01019763 0.05696872
v 0.04886083 -0.00899630 0.05577075
v 0.04798027 -0.00844046 0.03336810
v 0.04674831 -0.00820737 0.00540128
v 0.04625635 -0.00900228 -0.00153114
v 0.04676898 -0.00836874 0.00638641
v 0.04091922 -0.02777522 0.05896939
v 0.03982369 -0.02911999 0.05909709
v 0.03864753 -0.03052153 0.05928561
v 0.04467299 -0.01498500 -0.00153114
v 0.04558456 -0.01443215 0.01294788
v 0.04360639 -0.01858299 0.00540128
v 0.04469573 -0.01978731 0.03805052
v 0.04546880 -0.02011304 0.05696872
v 0.04502439 -0.02098564 0.05816668
v 0.04455930 -0.02192399 0.05816668
v 0.04323019 -0.02408757 0.05885993
v 0.04216565 -0.02578497 0.05904236
v 0.04169437 -0.02578497 0.05964439
v 0.04129749 -0.02686975 0.05927952
v 0.04599177 -0.01499396 0.06018560
v 0.04577266 -0.01618931 0.06009438
v 0.04546674 -0.01777314 0.05986939
v 0.04659121 -0.01499396 0.05977209
v 0.04702736 -0.01499396 0.05917006
v 0.04715138 -0.01384344 0.05946804
v 0.04564450 -0.01697226 0.06001533
v 0.04438567 -0.02040889 0.05997277
v 0.04448489 -0.01978731 0.06003965
v 0.04469573 -0.01858897 0.06014912
v 0.04056989 -0.02732697 0.05976601
v 0.04190107 -0.02506477 0.05990587
v 0.04315371 -0.02274878 0.05994844
v 0.04334801 -0.02195089 0.06007006
v 0.04687853 -0.01585760 0.05894506
v 0.04736222 -0.01499396 0.05816668
v 0.04770122 -0.01379562 0.05816668
v 0.04805882 -0.01234328 0.05816668
v 0.04775703 -0.01379562 0.05696872
v 0.04858385 -0.01019763 0.05577075
v 0.04808362 -0.00890964 0.03805052
v 0.04677931 -0.00844644 0.00697019
v 0.04552048 -0.01200858 -0.00153114
v 0.04646512 -0.00900228 0.00300534
v 0.04624808 -0.01140493 0.01105059
v 0.04553288 -0.01303957 0.00420330
v 0.04498098 -0.01406458 -0.00153114
v 0.04557629 -0.01440525 0.01259518
v 0.04676278 -0.01434250 0.03805052
v 0.04678965 -0.01443812 0.03926065
v 0.04741803 -0.01499396 0.05696872
v 0.04725267 -0.01499396 0.05336873
v 0.04678345 -0.01560956 0.04779239
v 0.04683099 -0.01573209 0.04976873
v 0.04688887 -0.01587852 0.05217076
v 0.04526416 -0.01858897 0.04017889
v 0.04525383 -0.01978731 0.04976873
v 0.04697362 -0.01609966 0.05577075
v 0.04677931 -0.01679894 0.05746736
v 0.04677931 -0.01679894 0.05760115
v 0.04543986 -0.02004132 0.05816668
v 0.04561350 -0.01928526 0.05883560
v 0.04446835 -0.02175963 0.05892074
v 0.04460684 -0.02087806 0.05934033
v 0.04574785 -0.01858897 0.05904236
v 0.04672144 -0.01665848 0.05839777
v 0.04693434 -0.01623115 0.05806939
v 0.04770329 -0.01379562 0.05577075
v 0.04785832 -0.01271981 0.05336873
v 0.04842055 -0.01019763 0.05217076
v 0.04798027 -0.00962087 0.03944916
v 0.04531171 -0.01286026 -0.00153114
v 0.04687440 -0.01361333 0.03657282
v 0.04670077 -0.01409745 0.03537485
v 0.04600417 -0.01380459 0.01859111
v 0.04820145 -0.01019763 0.04737279
v 0.04553908 -0.01427675 0.01105059
v 0.04506573 -0.01379861 -0.00153114
v 0.04748625 -0.01379562 0.05097279
v 0.04695708 -0.01628792 0.05702953
v 0.04567344 -0.01944066 0.05816668
v 0.04511120 -0.01379861 -0.00059466
f 1 2 3
f 1 3 4
f 1 4 5
f 1 5 15
f 1 15 6
f 1 6 16
f 1 16 31
f 1 31 62
f 1 62 85
f 1 85 110
f 1 110 148
f 1 148 194
f 1 194 236
f 1 236 217
f 1 217 172
f 1 172 128
f 1 128 96
f 1 96 73
f 1 73 53
f 1 53 52
f 1 52 51
f 1 51 50
f 1 50 49
f 1 49 48
f 1 48 37
f 1 37 36
f 1 36 18
f 1 18 7
f 1 7 8
f 1 8 9
f 1 9 10
f 1 10 2
f 2 10 3
f 3 10 9
f 3 9 11
f 3 11 20
f 3 20 38
f 3 38 29
f 3 29 28
f 3 28 26
f 3 26 12
f 3 12 4
f 4 12 26
f 4 26 13
f 4 13 27
f 4 27 57
f 4 57 82
f 4 82 106
f 4 106 141
f 4 141 144
f 4 144 190
f 4 190 232
f 4 232 270
f 4 270 299
f 4 299 305
f 4 305 274
f 4 274 237
f 4 237 195
f 4 195 149
f 4 149 111
f 4 111 86
f 4 86 65
f 4 65 34
f 4 34 30
f 4 30 14
f 4 14 5
f 5 14 30
f 5 30 15
f 6 15 17
f 6 17 16
f 7 18 8
f 8 18 19
f 8 19 11
f 8 11 9
f 11 19 21
f 11 21 22
f 11 22 23
f 11 23 24
f 11 24 25
f 11 25 20
f 13 26 28
f 13 28 29
f 13 29 27
f 15 30 17
f 16 17 32
f 16 32 33
f 16 33 31
f 17 30 34
f 17 34 35
f 17 35 33
f 17 33 32
f 18 36 19
f 19 36 37
f 19 37 21
f 20 25 39
f 20 39 40
f 20 40 41
f 20 41 42
f 20 42 43
f 20 43 44
f 20 44 45
f 20 45 46
f 20 46 47
f 20 47 38
f 21 37 48
f 21 48 22
f 22 48 23
f 23 48 49
f 23 49 50
f 23 50 24
f 24 50 51
f 24 51 25
f 25 51 52
f 25 52 53
f 25 53 73
f 25 73 95
f 25 95 97
f 25 97 74
f 25 74 54
f 25 54 76
f 25 76 55
f 25 55 39
f 27 56 57
f 27 29 58
f 27 58 59
f 27 59 60
f 27 60 56
f 29 38 61
f 29 61 59
f 29 59 58
f 31 33 62
f 33 35 63
f 33 63 64
f 33 64 62
f 34 65 66
f 34 66 67
f 34 67 35
f 35 67 63
f 38 47 61
f 39 55 68
f 39 68 40
f 40 68 41
f 41 68 69
f 41 69 42
f 42 69 70
f 42 70 43
f 43 70 71
f 43 71 44
f 44 71 45
f 45 72 46
f 45 71 72
f 46 72 47
f 47 72 60
f 47 60 61
f 54 74 75
f 54 75 76
f 55 76 77
f 55 77 68
f 56 78 79
f 56 79 80
f 56 80 57
f 56 60 81
f 56 81 78
f 57 80 82
f 59 61 60
f 60 72 81
f 62 64 83
f 62 83 84
f 62 84 85
f 63 67 66
f 63 66 83
f 63 83 64
f 65 86 87
f 65 87 88
f 65 88 66
f 66 88 89
f 66 89 90
f 66 90 83
f 68 77 91
f 68 91 69
f 69 91 70
f 70 92 93
f 70 93 71
f 70 91 92
f 71 93 81
f 71 81 72
f 73 94 95
f 73 96 94
f 74 97 98
f 74 98 75
f 75 98 99
f 75 99 76
f 76 100 77
f 76 99 101
f 76 101 100
f 77 100 102
f 77 102 91
f 78 103 104
f 78 104 79
f 78 81 103
f 79 104 80
f 80 104 103
f 80 103 82
f 81 93 123
f 81 123 105
f 81 105 103
f 82 103 107
f 82 107 108
f 82 108 106
f 83 90 119
f 83 119 109
f 83 109 84
f 84 109 110
f 84 110 85
f 86 111 112
f 86 112 87
f 87 112 113
f 87 113 114
f 87 114 115
f 87 115 88
f 88 116 89
f 88 115 114
f 88 114 116
f 89 116 117
f 89 117 118
f 89 118 90
f 90 118 160
f 90 160 119
f 91 120 121
f 91 121 92
f 91 102 122
f 91 122 120
f 92 121 93
f 93 121 123
f 94 96 124
f 94 124 95
f 95 124 125
f 95 125 126
f 95 126 127
f 95 127 97
f 96 128 129
f 96 129 130
f 96 130 124
f 97 127 131
f 97 131 98
f 98 131 132
f 98 132 101
f 98 101 99
f 100 101 133
f 100 133 134
f 100 134 102
f 101 132 133
f 102 134 135
f 102 135 122
f 103 136 108
f 103 108 107
f 103 105 137
f 103 137 136
f 105 138 139
f 105 139 140
f 105 140 137
f 105 123 138
f 106 108 141
f 108 142 143
f 108 143 144
f 108 144 141
f 108 136 137
f 108 137 145
f 108 145 142
f 109 119 146
f 109 146 147
f 109 147 110
f 110 147 146
f 110 146 148
f 111 149 150
f 111 150 151
f 111 151 152
f 111 152 113
f 111 113 112
f 113 152 114
f 114 152 153
f 114 153 154
f 114 154 155
f 114 155 116
f 116 155 156
f 116 156 157
f 116 157 117
f 117 157 158
f 117 158 159
f 117 159 160
f 117 160 118
f 119 160 159
f 119 159 161
f 119 161 146
f 120 122 162
f 120 162 121
f 121 162 163
f 121 163 164
f 121 164 123
f 122 135 162
f 123 165 138
f 123 164 166
f 123 166 165
f 124 130 125
f 125 130 129
f 125 129 167
f 125 167 168
f 125 168 126
f 126 168 127
f 127 168 169
f 127 169 170
f 127 170 132
f 127 132 131
f 128 171 129
f 128 172 173
f 128 173 171
f 129 171 174
f 129 174 175
f 129 175 176
f 129 176 177
f 129 177 167
f 132 170 178
f 132 178 133
f 133 178 179
f 133 179 135
f 133 135 134
f 135 179 180
f 135 180 181
f 135 181 162
f 137 140 182
f 137 182 145
f 138 183 184
f 138 184 185
f 138 185 186
f 138 186 139
f 138 165 166
f 138 166 183
f 139 186 187
f 139 187 182
f 139 182 140
f 142 188 143
f 142 145 188
f 143 189 144
f 143 188 189
f 144 189 190
f 145 182 187
f 145 187 191
f 145 191 188
f 146 161 192
f 146 192 193
f 146 193 148
f 148 193 194
f 149 195 150
f 150 195 196
f 150 196 197
f 150 197 198
f 150 198 199
f 150 199 200
f 150 200 201
f 150 201 151
f 151 201 154
f 151 154 152
f 152 154 202
f 152 202 153
f 153 202 154
f 154 201 200
f 154 200 203
f 154 203 204
f 154 204 156
f 154 156 155
f 156 204 205
f 156 205 157
f 157 205 206
f 157 206 158
f 158 206 207
f 158 207 159
f 159 207 161
f 161 207 192
f 162 181 208
f 162 208 209
f 162 209 210
f 162 210 211
f 162 211 212
f 162 212 213
f 162 213 163
f 163 213 166
f 163 166 164
f 166 184 183
f 166 213 214
f 166 214 184
f 167 177 215
f 167 215 168
f 168 215 169
f 169 215 216
f 169 216 178
f 169 178 170
f 171 173 174
f 172 217 218
f 172 218 173
f 173 218 219
f 173 219 174
f 174 219 220
f 174 220 175
f 175 221 222
f 175 222 176
f 175 220 221
f 176 222 177
f 177 222 223
f 177 223 215
f 178 216 180
f 178 180 179
f 180 216 224
f 180 224 208
f 180 208 181
f 184 214 225
f 184 225 226
f 184 226 227
f 184 227 228
f 184 228 185
f 185 228 229
f 185 229 187
f 185 187 186
f 187 229 230
f 187 230 191
f 188 191 189
f 189 191 231
f 189 231 190
f 190 231 233
f 190 233 232
f 191 230 233
f 191 233 231
f 192 207 193
f 193 207 234
f 193 234 235
f 193 235 236
f 193 236 194
f 195 198 196
f 195 237 238
f 195 238 239
f 195 239 240
f 195 240 198
f 196 198 197
f 198 240 241
f 198 241 199
f 199 241 200
f 200 241 203
f 203 241 242
f 203 242 243
f 203 243 205
f 203 205 204
f 205 243 206
f 206 243 207
f 207 244 245
f 207 245 246
f 207 246 247
f 207 247 234
f 207 243 244
f 208 224 209
f 209 224 210
f 210 224 248
f 210 248 249
f 210 249 211
f 211 250 251
f 211 251 252
f 211 252 253
f 211 253 225
f 211 225 214
f 211 214 212
f 211 249 254
f 211 254 255
f 211 255 250
f 212 214 213
f 215 223 255
f 215 255 256
f 215 256 257
f 215 257 249
f 215 249 248
f 215 248 216
f 216 248 224
f 217 236 234
f 217 234 218
f 218 258 220
f 218 220 219
f 218 234 258
f 220 259 260
f 220 260 221
f 220 258 247
f 220 247 246
f 220 246 259
f 221 261 222
f 221 260 261
f 222 261 223
f 223 261 255
f 225 253 226
f 226 262 263
f 226 263 264
f 226 264 265
f 226 265 227
f 226 253 252
f 226 252 262
f 227 265 228
f 228 266 295
f 228 295 267
f 228 267 229
f 228 265 266
f 229 267 268
f 229 268 230
f 230 268 269
f 230 269 233
f 232 233 269
f 232 269 271
f 232 271 272
f 232 272 273
f 232 273 270
f 234 247 258
f 234 236 235
f 237 274 275
f 237 275 238
f 238 275 276
f 238 276 277
f 238 277 278
f 238 278 279
f 238 279 280
f 238 280 281
f 238 281 282
f 238 282 283
f 238 283 240
f 238 240 239
f 240 283 284
f 240 284 241
f 241 282 285
f 241 285 286
f 241 286 287
f 241 287 288
f 241 288 242
f 241 284 282
f 242 288 289
f 242 289 290
f 242 290 243
f 243 290 244
f 244 290 245
f 245 260 259
f 245 259 246
f 245 290 260
f 249 257 256
f 249 256 254
f 250 255 262
f 250 262 251
f 251 262 252
f 254 256 255
f 255 261 260
f 255 260 290
f 255 290 291
f 255 291 289
f 255 289 292
f 255 292 262
f 262 289 293
f 262 293 263
f 262 292 289
f 263 293 294
f 263 294 287
f 263 287 278
f 263 278 266
f 263 266 264
f 264 266 265
f 266 278 277
f 266 277 276
f 266 276 295
f 267 295 296
f 267 296 297
f 267 297 298
f 267 298 268
f 268 298 269
f 269 298 271
f 270 273 299
f 271 298 272
f 272 300 301
f 272 301 302
f 272 302 273
f 272 298 303
f 272 303 297
f 272 297 300
f 273 302 304
f 273 304 299
f 274 305 275
f 275 305 304
f 275 304 276
f 276 304 302
f 276 302 301
f 276 301 300
f 276 300 306
f 276 306 295
f 278 287 286
f 278 286 307
f 278 307 285
f 278 285 282
f 278 282 281
f 278 281 280
f 278 280 279
f 282 284 283
f 285 307 286
f 287 294 308
f 287 308 288
f 288 308 293
f 288 293 289
f 289 291 290
f 293 308 294
f 295 306 296
f 296 306 297
f 297 306 300
f 297 303 298
f 299 304 309
f 299 309 305
f 304 305 309

