# https://github.com/mikedh/trimesh
v 0.04186852 0.00000282 0.02627198
v 0.04831646 0.00000282 0.02627198
v 0.04187450 0.00000282 0.02639043
v 0.04155909 0.00000879 0.02025467
v 0.04804896 0.00000879 0.02025467
v 0.04826855 0.00000879 0.02518223
v 0.04884148 0.00000581 0.03805390
v 0.04960006 0.00000581 0.05516612
v 0.04857798 0.00000282 0.03219848
v 0.04193439 0.00000282 0.02756704
v 0.02953157 0.03051730 0.03805390
v 0.02928403 0.02948980 0.02025467
v 0.04804697 0.00014918 0.02025467
v 0.04877560 0.00300170 0.03805390
v 0.04961404 0.00060319 0.05577022
v 0.04966594 0.00060319 0.05696657
v 0.04967792 0.00000581 0.05696657
v 0.04217195 0.00000282 0.03219848
v 0.04962602 0.00000581 0.05816687
v 0.04935852 0.00000581 0.05909869
v 0.04914492 0.00000581 0.05939482
v 0.04892532 0.00000581 0.05969884
v 0.04832644 0.00000581 0.06018449
v 0.04737423 0.00000581 0.06051220
v 0.04617447 0.00000581 0.06057932
v 0.04214999 0.00000282 0.03178390
v 0.03812152 0.03051730 0.03805390
v 0.04298243 0.00000581 0.04798009
v 0.04344557 0.00000581 0.05696657
v 0.03093495 0.03051730 0.05696657
v 0.03793187 0.02948980 0.02025467
v 0.04797909 0.00321377 0.02025467
v 0.04916488 0.00322871 0.04695747
v 0.04797311 0.00361999 0.02036128
v 0.04956014 0.00300170 0.05577022
v 0.04963999 0.00180095 0.05696657
v 0.04501064 0.00000581 0.06025556
v 0.04441176 0.00000581 0.05993574
v 0.04421613 0.00000581 0.05963961
v 0.04402049 0.00000581 0.05933559
v 0.04357133 0.00000581 0.05816687
v 0.04956014 0.00300170 0.05816687
v 0.04932857 0.00300170 0.05904736
v 0.04935253 0.00060319 0.05909079
v 0.04890337 0.00180095 0.05966725
v 0.04829051 0.00300170 0.06016870
v 0.04737423 0.00300170 0.06049246
v 0.04617447 0.00899946 0.06055959
v 0.04617447 0.00540020 0.06058328
v 0.04617447 0.00420245 0.06058722
v 0.04617447 0.00300170 0.06058722
v 0.04617447 0.00060319 0.06058328
v 0.03538463 0.03051730 0.06057932
v 0.03418088 0.03051730 0.06051615
v 0.03298711 0.03051730 0.06022397
v 0.03815346 0.03051730 0.03860272
v 0.03111262 0.03051730 0.05816687
v 0.03815545 0.02969291 0.02699058
v 0.03849881 0.02892527 0.02219332
v 0.03846488 0.02888046 0.02099302
v 0.03844092 0.02885358 0.02025467
v 0.03817542 0.03051730 0.03898177
v 0.04795913 0.00372752 0.02025467
v 0.04918285 0.00372752 0.04775898
v 0.04798908 0.00378129 0.02099302
v 0.04929064 0.00420245 0.05097295
v 0.04961204 0.00300170 0.05696657
v 0.03186721 0.03051730 0.05946983
v 0.03179734 0.03051730 0.05939482
v 0.03291525 0.03051730 0.06018054
v 0.04950424 0.00420245 0.05816687
v 0.04929863 0.00420245 0.05899603
v 0.04885945 0.00420245 0.05959618
v 0.04888939 0.00300170 0.05964357
v 0.04826057 0.00420245 0.06015685
v 0.04737423 0.00420245 0.06047667
v 0.04617447 0.01019721 0.06053589
v 0.04497471 0.01379646 0.06055564
v 0.04497471 0.01259871 0.06057538
v 0.04497471 0.01139796 0.06058722
v 0.04017568 0.02338750 0.06058722
v 0.03898191 0.02578600 0.06057932
v 0.03658239 0.02938227 0.06056353
v 0.03658239 0.03051730 0.06044114
v 0.03853674 0.03051730 0.04531889
v 0.03959676 0.02760803 0.02338967
v 0.03896993 0.02818152 0.02025467
v 0.03885814 0.03051730 0.05097295
v 0.03939913 0.02975563 0.04977265
v 0.03954486 0.02874008 0.03805390
v 0.04791721 0.00418751 0.02025467
v 0.04955615 0.00420245 0.05696657
v 0.04795714 0.00462360 0.02194457
v 0.04917087 0.00476399 0.04923962
v 0.04936650 0.00540020 0.05816687
v 0.04918285 0.00605434 0.05878282
v 0.04923075 0.00540020 0.05887363
v 0.04942040 0.00540020 0.05696657
v 0.04879956 0.00540020 0.05947379
v 0.04800105 0.00857830 0.05999102
v 0.04805096 0.00779871 0.06003050
v 0.04812482 0.00660095 0.06008183
v 0.04819869 0.00540020 0.06012526
v 0.04737423 0.00540020 0.06042929
v 0.04737423 0.00660095 0.06037401
v 0.04737423 0.00779871 0.06031084
v 0.04617447 0.01139796 0.06046877
v 0.04497471 0.01499721 0.06050431
v 0.04377695 0.01738974 0.06055169
v 0.04377695 0.01618900 0.06057932
v 0.04257719 0.01858750 0.06058722
v 0.04137743 0.02218675 0.06057143
v 0.04017568 0.02458526 0.06053984
v 0.03898191 0.02698376 0.06050431
v 0.03778215 0.02818451 0.06053984
v 0.03778215 0.02938227 0.06037401
v 0.03738090 0.03051730 0.06021213
v 0.04077456 0.02757816 0.04564661
v 0.03957880 0.02758414 0.02275399
v 0.04067874 0.02864151 0.05696657
v 0.04106601 0.02804412 0.05696657
v 0.03916956 0.02792166 0.02025467
v 0.03899389 0.03051730 0.05336961
v 0.03917555 0.03046652 0.05585708
v 0.03995409 0.02948980 0.05585708
v 0.04001198 0.02932552 0.05456991
v 0.04782339 0.00501190 0.02025467
v 0.04797311 0.00481775 0.02274609
v 0.04798908 0.00491035 0.02338967
v 0.04920880 0.00503580 0.05097295
v 0.04913294 0.00693250 0.05816687
v 0.04881354 0.00899946 0.05816687
v 0.04862389 0.01019721 0.05816687
v 0.04812283 0.01139796 0.05902367
v 0.04825857 0.01019721 0.05923293
v 0.04829450 0.00898751 0.05946194
v 0.04925072 0.00650537 0.05696657
v 0.04931460 0.00540020 0.05456991
v 0.04922477 0.00633511 0.05577022
v 0.04792320 0.00937880 0.05992390
v 0.04692706 0.01259871 0.06007393
v 0.04707878 0.01139796 0.06015291
v 0.04723249 0.01019721 0.06021213
v 0.04617447 0.01259871 0.06036612
v 0.04497471 0.01618900 0.06040560
v 0.04377695 0.01858750 0.06046087
v 0.04257719 0.02098601 0.06048851
v 0.04257719 0.01978825 0.06056353
v 0.04137743 0.02338750 0.06047272
v 0.04017568 0.02578600 0.06041349
v 0.03906176 0.02825619 0.06024372
v 0.03770629 0.03051730 0.06011342
v 0.04063283 0.02734518 0.04018207
v 0.04163695 0.02702259 0.05577022
v 0.04226577 0.02589055 0.05462914
v 0.04078853 0.02640430 0.03219848
v 0.04055896 0.02602496 0.02338967
v 0.03973850 0.02710623 0.02025467
v 0.03950893 0.02747362 0.02025467
v 0.04009982 0.02938227 0.05696657
v 0.03960475 0.03001251 0.05772466
v 0.04064680 0.02859372 0.05816687
v 0.04103607 0.02799335 0.05816687
v 0.04202223 0.02646105 0.05787469
v 0.04166489 0.02707337 0.05696657
v 0.03912963 0.03051730 0.05577417
v 0.03919551 0.03051730 0.05696657
v 0.03960075 0.03000952 0.05696657
v 0.04777148 0.00540319 0.02025467
v 0.04780542 0.00540319 0.02099302
v 0.04805096 0.00535839 0.02627198
v 0.04866980 0.00540020 0.04018207
v 0.04905109 0.00779871 0.05696657
v 0.04886544 0.00899946 0.05696657
v 0.04867779 0.01019721 0.05696657
v 0.04835439 0.01139796 0.05816687
v 0.04801703 0.01214469 0.05884599
v 0.04700092 0.01499721 0.05913817
v 0.04669749 0.01419970 0.05990021
v 0.04767965 0.01139796 0.05962382
v 0.04783337 0.01019721 0.05983308
v 0.04686717 0.01590823 0.05892891
v 0.04865383 0.00899946 0.05216931
v 0.04683124 0.01339920 0.06001076
v 0.04578520 0.01618900 0.06010947
v 0.04596087 0.01499721 0.06018449
v 0.04503859 0.01740468 0.06021608
v 0.04257719 0.02218675 0.06033848
v 0.04018366 0.02694493 0.06018054
v 0.03978840 0.02790672 0.06008578
v 0.03865851 0.02938227 0.06008973
v 0.03841497 0.03002446 0.05998707
v 0.03775221 0.03051730 0.06007393
v 0.04146926 0.02578600 0.03805390
v 0.04203021 0.02647300 0.05696657
v 0.04335773 0.02428656 0.05696657
v 0.04238755 0.02578600 0.05577022
v 0.04332779 0.02423579 0.05577022
v 0.04318406 0.02399982 0.05022671
v 0.04289260 0.02351892 0.03898177
v 0.04216995 0.02310075 0.02025467
v 0.03913762 0.03051730 0.05809580
v 0.03913363 0.03051730 0.05813924
v 0.03996807 0.02947188 0.05813924
v 0.03953687 0.02993186 0.05852223
v 0.04092029 0.02781114 0.05898419
v 0.04196234 0.02635949 0.05867621
v 0.04169484 0.02690909 0.05823005
v 0.04296247 0.02483616 0.05816687
v 0.04332579 0.02423579 0.05816687
v 0.04729038 0.00853947 0.02025467
v 0.04743811 0.00780170 0.02099302
v 0.04730835 0.00899946 0.02219332
v 0.04840829 0.01139796 0.05696657
v 0.04798109 0.00964164 0.03942399
v 0.04799906 0.00974021 0.04018207
v 0.04856999 0.01019721 0.05456991
v 0.04796712 0.01075577 0.04334076
v 0.04798508 0.01083642 0.04414228
v 0.04680529 0.01686703 0.05779968
v 0.04790324 0.01295714 0.05816687
v 0.04674939 0.01670872 0.05860120
v 0.04656174 0.01499721 0.05973833
v 0.04566542 0.01701638 0.06003050
v 0.04575725 0.01858750 0.05905131
v 0.04598083 0.01740468 0.05943825
v 0.04644795 0.01626068 0.05934349
v 0.04796312 0.00952814 0.03862247
v 0.04470322 0.01858750 0.06014895
v 0.04358331 0.02098601 0.06017659
v 0.04331381 0.02218675 0.06005419
v 0.04319204 0.02281401 0.05997917
v 0.04254325 0.02328296 0.06012921
v 0.04106402 0.02578600 0.06011737
v 0.04085641 0.02651780 0.06001866
v 0.03951691 0.02870424 0.05991995
v 0.03985627 0.02913137 0.05911843
v 0.03863057 0.03051730 0.05926452
v 0.03859064 0.03051730 0.05931190
v 0.04286266 0.02326802 0.03548746
v 0.04388475 0.02338750 0.05696657
v 0.04382486 0.02338750 0.05816687
v 0.04382486 0.02338750 0.05577022
v 0.04322997 0.02287972 0.03805390
v 0.04319404 0.02281401 0.03658116
v 0.04267301 0.02218078 0.02025467
v 0.04317607 0.02278713 0.03595732
v 0.04324594 0.02410138 0.05888153
v 0.04022159 0.02825619 0.05945010
v 0.04058691 0.02731830 0.05978176
v 0.04114187 0.02694493 0.05937507
v 0.04220389 0.02556198 0.05909079
v 0.04721652 0.00899946 0.02025467
v 0.04725245 0.00899946 0.02099302
v 0.04700891 0.01020020 0.02025467
v 0.04810486 0.01244936 0.05696657
v 0.04835639 0.01139796 0.05577022
v 0.04683124 0.01099771 0.02025467
v 0.04741615 0.01140095 0.03538086
v 0.04683923 0.01287948 0.03219848
v 0.04765969 0.01379646 0.05577022
v 0.04797909 0.01201625 0.05145860
v 0.04793118 0.01304973 0.05696657
v 0.04736424 0.01499721 0.05696657
v 0.04701290 0.01618900 0.05696657
v 0.04680728 0.01687002 0.05696657
v 0.04655975 0.01747039 0.05696657
v 0.04608064 0.01858750 0.05696657
v 0.04569736 0.01946566 0.05696657
v 0.04456947 0.02202845 0.05696657
v 0.04453952 0.02196273 0.05816687
v 0.04566741 0.01939995 0.05816687
v 0.04602475 0.01858750 0.05816687
v 0.04656374 0.01731507 0.05818662
v 0.04693505 0.01626068 0.05818662
v 0.04730835 0.01499721 0.05816687
v 0.04765969 0.01379646 0.05816687
v 0.04560753 0.01926554 0.05882625
v 0.04450359 0.01953137 0.06005419
v 0.04548176 0.01781687 0.05988441
v 0.04434589 0.02033187 0.05994364
v 0.04462935 0.02098601 0.05915397
v 0.04445568 0.02177157 0.05890522
v 0.04340963 0.02328296 0.05931585
v 0.04430197 0.02262583 0.05696657
v 0.04427202 0.02256311 0.05816687
v 0.04324394 0.02172975 0.02699058
v 0.04315411 0.02153859 0.02338967
v 0.04307825 0.02136535 0.02025467
v 0.04615051 0.01333946 0.02025467
v 0.04667354 0.01166081 0.02099302
v 0.04635413 0.01454021 0.03219848
v 0.04703286 0.01499721 0.04977265
v 0.04675139 0.01671171 0.05456991
v 0.04676736 0.01676846 0.05529641
v 0.04678732 0.01682223 0.05609398
v 0.04647990 0.01738974 0.05456991
v 0.04557159 0.01677742 0.03003872
v 0.04596685 0.01858750 0.05456991
v 0.04540590 0.02000032 0.05577022
v 0.04454152 0.02196273 0.05577022
v 0.04427202 0.02256311 0.05577022
v 0.04421413 0.02243168 0.05336961
v 0.04422212 0.02123691 0.04257873
v 0.04340365 0.02109951 0.02451496
v 0.04351544 0.02037667 0.02025467
v 0.04583111 0.01442969 0.02025467
v 0.04556760 0.01556473 0.02173531
v 0.04653380 0.01499721 0.03898177
v 0.04555562 0.01673262 0.02938329
v 0.04483098 0.01738377 0.02025467
v 0.04535999 0.01750325 0.03219848
v 0.04555562 0.01794232 0.04018207
v 0.04579917 0.01870100 0.05212193
v 0.04438182 0.02040057 0.03827501
v 0.04553167 0.01544525 0.02025467
v 0.04529411 0.01618302 0.02025467
f 1 2 9
f 1 9 18
f 1 18 26
f 1 26 10
f 1 10 3
f 1 3 4
f 1 4 5
f 1 5 2
f 2 5 6
f 2 6 7
f 2 7 8
f 2 8 9
f 3 10 4
f 4 10 11
f 4 11 12
f 4 12 31
f 4 31 61
f 4 61 87
f 4 87 122
f 4 122 159
f 4 159 158
f 4 158 201
f 4 201 246
f 4 246 289
f 4 289 306
f 4 306 311
f 4 311 317
f 4 317 316
f 4 316 307
f 4 307 290
f 4 290 258
f 4 258 255
f 4 255 253
f 4 253 211
f 4 211 169
f 4 169 127
f 4 127 91
f 4 91 63
f 4 63 32
f 4 32 13
f 4 13 5
f 5 13 6
f 6 13 7
f 7 13 14
f 7 14 15
f 7 15 8
f 8 15 16
f 8 16 17
f 8 17 9
f 9 17 19
f 9 19 20
f 9 20 21
f 9 21 22
f 9 22 23
f 9 23 24
f 9 24 25
f 9 25 18
f 10 26 11
f 11 27 31
f 11 31 12
f 11 26 28
f 11 28 29
f 11 29 30
f 11 30 57
f 11 57 69
f 11 69 68
f 11 68 70
f 11 70 55
f 11 55 54
f 11 54 53
f 11 53 84
f 11 84 117
f 11 117 152
f 11 152 193
f 11 193 239
f 11 239 238
f 11 238 203
f 11 203 202
f 11 202 167
f 11 167 166
f 11 166 123
f 11 123 88
f 11 88 85
f 11 85 62
f 11 62 56
f 11 56 27
f 13 32 14
f 14 33 15
f 14 32 34
f 14 34 33
f 15 33 35
f 15 35 36
f 15 36 16
f 16 36 19
f 16 19 17
f 18 25 37
f 18 37 38
f 18 38 39
f 18 39 40
f 18 40 41
f 18 41 29
f 18 29 26
f 19 36 42
f 19 42 43
f 19 43 44
f 19 44 20
f 20 44 21
f 21 44 22
f 22 44 43
f 22 43 45
f 22 45 46
f 22 46 23
f 23 46 47
f 23 47 24
f 24 47 48
f 24 48 49
f 24 49 50
f 24 50 51
f 24 51 52
f 24 52 25
f 25 52 53
f 25 53 54
f 25 54 55
f 25 55 37
f 26 29 28
f 27 56 31
f 29 41 30
f 30 41 57
f 31 58 59
f 31 59 60
f 31 60 61
f 31 56 62
f 31 62 58
f 32 63 34
f 33 34 64
f 33 64 35
f 34 63 65
f 34 65 66
f 34 66 64
f 35 67 36
f 35 64 67
f 36 67 42
f 37 55 38
f 38 68 69
f 38 69 39
f 38 55 70
f 38 70 68
f 39 69 40
f 40 69 57
f 40 57 41
f 42 67 92
f 42 92 71
f 42 71 72
f 42 72 43
f 43 72 73
f 43 73 74
f 43 74 45
f 45 74 46
f 46 75 76
f 46 76 47
f 46 74 75
f 47 76 48
f 48 76 77
f 48 77 78
f 48 78 79
f 48 79 80
f 48 80 49
f 49 80 50
f 50 80 111
f 50 111 81
f 50 81 51
f 51 53 52
f 51 81 53
f 53 81 82
f 53 82 83
f 53 83 84
f 58 62 85
f 58 85 59
f 59 86 87
f 59 87 60
f 59 85 88
f 59 88 89
f 59 89 90
f 59 90 86
f 60 87 61
f 63 91 65
f 64 66 92
f 64 92 67
f 65 91 93
f 65 93 94
f 65 94 66
f 66 94 92
f 71 95 96
f 71 96 97
f 71 97 72
f 71 92 98
f 71 98 95
f 72 99 73
f 72 97 99
f 73 99 100
f 73 100 101
f 73 101 102
f 73 102 103
f 73 103 75
f 73 75 74
f 75 104 76
f 75 103 104
f 76 104 77
f 77 104 105
f 77 105 106
f 77 106 107
f 77 107 108
f 77 108 78
f 78 108 109
f 78 109 110
f 78 110 79
f 79 110 80
f 80 110 111
f 81 111 112
f 81 112 82
f 82 112 113
f 82 113 114
f 82 114 115
f 82 115 83
f 83 115 84
f 84 116 117
f 84 115 114
f 84 114 116
f 86 118 119
f 86 119 87
f 86 90 120
f 86 120 121
f 86 121 118
f 87 119 122
f 88 123 124
f 88 124 89
f 89 124 125
f 89 125 90
f 90 125 126
f 90 126 120
f 91 127 93
f 92 94 98
f 93 127 128
f 93 128 94
f 94 128 129
f 94 129 130
f 94 130 98
f 95 131 96
f 95 98 131
f 96 131 132
f 96 132 133
f 96 133 134
f 96 134 135
f 96 135 97
f 97 135 136
f 97 136 100
f 97 100 99
f 98 137 131
f 98 130 138
f 98 138 139
f 98 139 137
f 100 136 140
f 100 140 141
f 100 141 142
f 100 142 143
f 100 143 101
f 101 143 102
f 102 143 106
f 102 106 103
f 103 106 105
f 103 105 104
f 106 143 107
f 107 143 144
f 107 144 145
f 107 145 108
f 108 145 146
f 108 146 109
f 109 146 147
f 109 147 148
f 109 148 110
f 110 148 112
f 110 112 111
f 112 148 147
f 112 147 149
f 112 149 113
f 113 149 114
f 114 149 150
f 114 150 116
f 116 150 151
f 116 151 152
f 116 152 117
f 118 153 119
f 118 121 154
f 118 154 155
f 118 155 153
f 119 156 157
f 119 157 158
f 119 158 159
f 119 159 122
f 119 153 156
f 120 126 160
f 120 160 161
f 120 161 162
f 120 162 163
f 120 163 121
f 121 163 164
f 121 164 165
f 121 165 154
f 123 166 124
f 124 166 167
f 124 167 168
f 124 168 125
f 125 168 160
f 125 160 126
f 127 169 128
f 128 169 129
f 129 169 170
f 129 170 171
f 129 171 172
f 129 172 130
f 130 172 138
f 131 137 173
f 131 173 132
f 132 173 174
f 132 174 175
f 132 175 133
f 133 176 177
f 133 177 134
f 133 175 214
f 133 214 176
f 134 178 179
f 134 179 180
f 134 180 181
f 134 181 135
f 134 177 182
f 134 182 178
f 135 181 140
f 135 140 136
f 137 139 173
f 138 172 139
f 139 174 173
f 139 172 183
f 139 183 174
f 140 181 184
f 140 184 141
f 141 184 185
f 141 185 186
f 141 186 142
f 142 186 144
f 142 144 143
f 144 186 145
f 145 186 185
f 145 185 187
f 145 187 146
f 146 187 188
f 146 188 147
f 147 188 149
f 149 188 150
f 150 188 189
f 150 189 151
f 151 189 190
f 151 190 191
f 151 191 152
f 152 191 192
f 152 192 193
f 153 155 194
f 153 194 156
f 154 165 195
f 154 195 196
f 154 196 197
f 154 197 155
f 155 197 198
f 155 198 199
f 155 199 200
f 155 200 194
f 156 201 157
f 156 194 201
f 157 201 158
f 160 168 161
f 161 168 167
f 161 167 202
f 161 202 203
f 161 203 204
f 161 204 162
f 162 205 206
f 162 206 207
f 162 207 163
f 162 204 205
f 163 207 208
f 163 208 164
f 164 196 195
f 164 195 165
f 164 208 207
f 164 207 209
f 164 209 210
f 164 210 196
f 169 211 212
f 169 212 170
f 170 212 171
f 171 212 213
f 171 213 172
f 172 213 183
f 174 183 175
f 175 183 215
f 175 215 216
f 175 216 217
f 175 217 218
f 175 218 219
f 175 219 214
f 176 220 221
f 176 221 222
f 176 222 177
f 176 214 220
f 177 222 182
f 178 182 179
f 179 223 224
f 179 224 184
f 179 184 180
f 179 182 223
f 180 184 181
f 182 222 225
f 182 225 226
f 182 226 227
f 182 227 223
f 183 213 228
f 183 228 215
f 184 224 185
f 185 224 187
f 187 229 230
f 187 230 188
f 187 224 229
f 188 230 231
f 188 231 232
f 188 232 233
f 188 233 189
f 189 233 234
f 189 234 235
f 189 235 190
f 190 235 236
f 190 236 192
f 190 192 191
f 192 236 237
f 192 237 238
f 192 238 239
f 192 239 193
f 194 200 240
f 194 240 201
f 196 241 198
f 196 198 197
f 196 210 242
f 196 242 241
f 198 241 243
f 198 243 244
f 198 244 245
f 198 245 199
f 199 245 200
f 200 245 240
f 201 240 245
f 201 245 247
f 201 247 246
f 203 205 204
f 203 238 205
f 205 238 237
f 205 237 206
f 206 248 207
f 206 237 249
f 206 249 250
f 206 250 251
f 206 251 232
f 206 232 252
f 206 252 248
f 207 248 210
f 207 210 209
f 210 248 242
f 211 253 254
f 211 254 213
f 211 213 212
f 213 254 255
f 213 255 218
f 213 218 216
f 213 216 215
f 213 215 228
f 214 256 220
f 214 219 257
f 214 257 256
f 216 218 217
f 218 255 258
f 218 258 219
f 219 258 259
f 219 259 260
f 219 260 261
f 219 261 262
f 219 262 257
f 220 256 263
f 220 263 264
f 220 264 265
f 220 265 266
f 220 266 267
f 220 267 268
f 220 268 269
f 220 269 270
f 220 270 271
f 220 271 272
f 220 272 273
f 220 273 274
f 220 274 222
f 220 222 275
f 220 275 276
f 220 276 277
f 220 277 221
f 221 277 222
f 222 277 276
f 222 276 275
f 222 274 273
f 222 273 278
f 222 278 225
f 223 227 224
f 224 279 229
f 224 227 226
f 224 226 280
f 224 280 281
f 224 281 232
f 224 232 279
f 225 282 281
f 225 281 280
f 225 280 226
f 225 278 283
f 225 283 282
f 229 279 230
f 230 279 231
f 231 279 232
f 232 284 248
f 232 248 252
f 232 251 250
f 232 250 235
f 232 235 234
f 232 234 233
f 232 281 283
f 232 283 284
f 235 250 236
f 236 250 249
f 236 249 237
f 241 285 245
f 241 245 243
f 241 242 285
f 242 248 286
f 242 286 285
f 243 245 244
f 245 285 247
f 246 287 288
f 246 288 289
f 246 247 287
f 247 285 287
f 248 284 283
f 248 283 286
f 253 255 254
f 256 257 263
f 257 261 263
f 257 262 261
f 258 290 291
f 258 291 259
f 259 291 260
f 260 291 290
f 260 290 292
f 260 292 293
f 260 293 261
f 261 264 263
f 261 293 264
f 264 293 294
f 264 294 295
f 264 295 296
f 264 296 265
f 265 296 266
f 266 296 267
f 267 296 297
f 267 297 298
f 267 298 299
f 267 299 268
f 268 299 269
f 269 299 300
f 269 300 270
f 270 300 301
f 270 301 285
f 270 285 286
f 270 286 271
f 271 286 278
f 271 278 272
f 272 278 273
f 278 286 283
f 281 282 283
f 285 301 302
f 285 302 287
f 287 302 303
f 287 303 301
f 287 301 288
f 288 304 305
f 288 305 289
f 288 301 304
f 289 305 306
f 290 307 308
f 290 308 292
f 292 308 294
f 292 294 309
f 292 309 293
f 293 309 294
f 294 308 310
f 294 310 295
f 295 310 296
f 296 310 298
f 296 298 297
f 298 310 311
f 298 311 312
f 298 312 313
f 298 313 299
f 299 313 314
f 299 314 300
f 300 314 313
f 300 313 315
f 300 315 304
f 300 304 301
f 301 303 302
f 304 315 306
f 304 306 305
f 306 312 311
f 306 315 313
f 306 313 312
f 307 316 308
f 308 316 317
f 308 317 310
f 310 317 311

