# https://github.com/mikedh/trimesh
v -0.02867598 -0.02874912 0.00164178
v -0.03746658 -0.02874912 0.00164178
v -0.02869069 -0.02874912 0.00185379
v 0.00000097 -0.04060711 0.00164178
v -0.03730848 -0.02894720 0.00164178
v -0.03749599 -0.02874912 0.00214402
v -0.02877525 -0.02874912 0.00299936
v 0.00000097 -0.04061438 0.00179916
v 0.00000097 -0.04722579 0.00164178
v -0.02879363 -0.02874912 0.00322735
v -0.03755849 -0.02874912 0.00322735
v -0.03674965 -0.02964505 0.00164178
v 0.00000097 -0.04067617 0.00299843
v 0.00000097 -0.04723306 0.00179916
v -0.00060198 -0.04723851 0.00164178
v 0.00000097 -0.04068889 0.00322735
v -0.03578640 -0.03094262 0.00299843
v -0.03579007 -0.03094989 0.00322735
v -0.03574596 -0.03089355 0.00164178
v 0.00000097 -0.04726032 0.00239980
v -0.00060198 -0.04730030 0.00299843
v -0.00060198 -0.04724578 0.00179916
v -0.00076007 -0.04724033 0.00164178
v 0.00000097 -0.04729666 0.00322735
v -0.03566875 -0.03098805 0.00164178
v -0.03514668 -0.03161321 0.00164178
v -0.03519080 -0.03166591 0.00322735
v -0.00060198 -0.04730939 0.00322735
v -0.00180053 -0.04731484 0.00322735
v -0.00180053 -0.04725123 0.00179916
v -0.00180053 -0.04724396 0.00164178
v -0.03509153 -0.03178040 0.00322735
v -0.03461358 -0.03221293 0.00164178
v -0.03462094 -0.03221838 0.00179916
v -0.03466506 -0.03226563 0.00322735
v -0.00299908 -0.04724033 0.00322735
v -0.00299908 -0.04716945 0.00164178
v -0.03453638 -0.03228925 0.00164178
v -0.03402166 -0.03280537 0.00179916
v -0.03465770 -0.03225836 0.00299843
v -0.03417975 -0.03273813 0.00322735
v -0.00420130 -0.04709857 0.00299843
v -0.00664987 -0.04684052 0.00322735
v -0.00552118 -0.04689322 0.00164178
v -0.03401431 -0.03279992 0.00164178
v -0.03338930 -0.03339963 0.00164178
v -0.03279002 -0.03397391 0.00164178
v -0.03156942 -0.03515153 0.00179916
v -0.03344077 -0.03344870 0.00322735
v -0.03406578 -0.03284899 0.00322735
v -0.00688150 -0.04674420 0.00164178
v -0.00694767 -0.04680599 0.00322735
v -0.00709841 -0.04676419 0.00264332
v -0.03156206 -0.03514789 0.00164178
v -0.03101426 -0.03566765 0.00164178
v -0.03097382 -0.03578941 0.00299843
v -0.03160618 -0.03518969 0.00299843
v -0.03221281 -0.03462269 0.00322735
v -0.00779695 -0.04663152 0.00164178
v -0.00748812 -0.04674238 0.00322735
v -0.00779695 -0.04663880 0.00179916
v -0.03092970 -0.03574761 0.00164178
v -0.03098117 -0.03579486 0.00322735
v -0.03085249 -0.03581667 0.00164178
v -0.03033042 -0.03627281 0.00164178
v -0.03049587 -0.03621829 0.00322735
v -0.03161353 -0.03519514 0.00322735
v -0.00880432 -0.04651703 0.00322735
v -0.00899550 -0.04640618 0.00164178
v -0.00776019 -0.04670785 0.00322735
v -0.02962085 -0.03691614 0.00322735
v -0.03023851 -0.03643092 0.00322735
v -0.03038189 -0.03631643 0.00322735
v -0.02956203 -0.03687253 0.00164178
v -0.00899550 -0.04647887 0.00322735
v -0.00899550 -0.04641345 0.00179916
v -0.00915359 -0.04636801 0.00164178
v -0.02913555 -0.03727234 0.00322735
v -0.02896275 -0.03731232 0.00164178
v -0.01116833 -0.04594821 0.00322735
v -0.01019773 -0.04617538 0.00299843
v -0.01019773 -0.04612086 0.00179916
v -0.01019773 -0.04611359 0.00164178
v -0.02902158 -0.03735594 0.00322735
v -0.02811347 -0.03802107 0.00322735
v -0.02746640 -0.03840816 0.00164178
v -0.01234115 -0.04566108 0.00322735
v -0.01271615 -0.04549752 0.00164178
v -0.02618329 -0.03943313 0.00322735
v -0.02613182 -0.03939315 0.00179916
v -0.02612447 -0.03938951 0.00164178
v -0.01294042 -0.04551387 0.00322735
v -0.01293675 -0.04544118 0.00164178
v -0.02569799 -0.03976933 0.00322735
v -0.02604726 -0.03944403 0.00164178
v -0.02553255 -0.03981113 0.00179916
v -0.02557667 -0.03984203 0.00299843
v -0.01364999 -0.04533214 0.00322735
v -0.01379338 -0.04522129 0.00164178
v -0.02558402 -0.03984748 0.00322735
v -0.02552520 -0.03980750 0.00164178
v -0.02470533 -0.04029454 0.00164178
v -0.02539652 -0.03996197 0.00322735
v -0.01379338 -0.04529398 0.00322735
v -0.01379338 -0.04522856 0.00179916
v -0.01499560 -0.04490326 0.00322735
v -0.01499560 -0.04482875 0.00164178
v -0.02458400 -0.04036360 0.00164178
v -0.02458400 -0.04037268 0.00179916
v -0.02447003 -0.04049989 0.00306377
v -0.02449209 -0.04049444 0.00322735
v -0.01577503 -0.04460158 0.00322735
v -0.01660593 -0.04420359 0.00164178
v -0.02383031 -0.04077976 0.00164178
v -0.02395899 -0.04076340 0.00270757
v -0.02332295 -0.04113777 0.00322735
v -0.01836331 -0.04359479 0.00322735
v -0.01871258 -0.04338580 0.00168586
v -0.01875670 -0.04336580 0.00164178
v -0.02235970 -0.04158665 0.00164178
v -0.02169057 -0.04203371 0.00322735
v -0.02098835 -0.04241898 0.00322735
v -0.01859125 -0.04350574 0.00322735
v -0.01923465 -0.04319498 0.00201008
v -0.01964642 -0.04299507 0.00164178
v -0.02161704 -0.04199373 0.00164178
v -0.02098835 -0.04234629 0.00179916
v -0.01990378 -0.04296236 0.00322735
v -0.01915744 -0.04328221 0.00322735
v -0.01928980 -0.04321860 0.00299843
v -0.01941847 -0.04317499 0.00322735
v -0.01969421 -0.04297690 0.00168586
v -0.01969789 -0.04297145 0.00164178
v -0.02100306 -0.04232993 0.00164178
v -0.01975671 -0.04294419 0.00164178
v -0.01988907 -0.04295691 0.00299843
v -0.01930082 -0.04322405 0.00322735
f 1 2 6
f 1 6 11
f 1 11 10
f 1 10 7
f 1 7 3
f 1 3 4
f 1 4 9
f 1 9 15
f 1 15 23
f 1 23 31
f 1 31 37
f 1 37 44
f 1 44 51
f 1 51 59
f 1 59 69
f 1 69 77
f 1 77 83
f 1 83 88
f 1 88 93
f 1 93 99
f 1 99 107
f 1 107 113
f 1 113 119
f 1 119 125
f 1 125 133
f 1 133 135
f 1 135 134
f 1 134 126
f 1 126 120
f 1 120 114
f 1 114 108
f 1 108 102
f 1 102 101
f 1 101 95
f 1 95 91
f 1 91 86
f 1 86 79
f 1 79 74
f 1 74 65
f 1 65 64
f 1 64 62
f 1 62 55
f 1 55 54
f 1 54 47
f 1 47 46
f 1 46 45
f 1 45 38
f 1 38 33
f 1 33 26
f 1 26 25
f 1 25 19
f 1 19 12
f 1 12 5
f 1 5 2
f 2 5 6
f 3 7 4
f 4 8 13
f 4 13 16
f 4 16 24
f 4 24 20
f 4 20 14
f 4 14 9
f 4 7 10
f 4 10 8
f 5 11 6
f 5 12 11
f 8 10 13
f 9 14 22
f 9 22 15
f 10 11 18
f 10 18 27
f 10 27 32
f 10 32 35
f 10 35 41
f 10 41 50
f 10 50 49
f 10 49 58
f 10 58 67
f 10 67 63
f 10 63 66
f 10 66 73
f 10 73 72
f 10 72 71
f 10 71 78
f 10 78 84
f 10 84 85
f 10 85 89
f 10 89 94
f 10 94 100
f 10 100 103
f 10 103 111
f 10 111 116
f 10 116 121
f 10 121 122
f 10 122 128
f 10 128 131
f 10 131 137
f 10 137 129
f 10 129 123
f 10 123 117
f 10 117 112
f 10 112 106
f 10 106 104
f 10 104 98
f 10 98 92
f 10 92 87
f 10 87 80
f 10 80 75
f 10 75 68
f 10 68 70
f 10 70 60
f 10 60 52
f 10 52 43
f 10 43 36
f 10 36 29
f 10 29 28
f 10 28 24
f 10 24 16
f 10 16 13
f 11 12 17
f 11 17 18
f 12 19 17
f 14 20 21
f 14 21 22
f 15 22 23
f 17 19 25
f 17 25 26
f 17 26 27
f 17 27 18
f 20 24 21
f 21 23 22
f 21 24 28
f 21 28 29
f 21 29 30
f 21 30 23
f 23 30 31
f 26 32 27
f 26 33 34
f 26 34 35
f 26 35 32
f 29 36 30
f 30 36 37
f 30 37 31
f 33 38 34
f 34 38 39
f 34 39 40
f 34 40 35
f 35 40 39
f 35 39 41
f 36 42 37
f 36 43 42
f 37 42 44
f 38 45 39
f 39 45 46
f 39 46 47
f 39 47 48
f 39 48 49
f 39 49 50
f 39 50 41
f 42 43 51
f 42 51 44
f 43 52 53
f 43 53 51
f 47 54 48
f 48 54 55
f 48 55 56
f 48 56 57
f 48 57 49
f 49 57 58
f 51 53 59
f 52 60 53
f 53 60 61
f 53 61 59
f 55 62 56
f 56 63 67
f 56 67 57
f 56 62 64
f 56 64 65
f 56 65 66
f 56 66 63
f 57 67 58
f 59 61 68
f 59 68 69
f 60 70 61
f 61 70 68
f 65 71 72
f 65 72 73
f 65 73 66
f 65 74 71
f 68 75 76
f 68 76 69
f 69 76 77
f 71 74 78
f 74 79 78
f 75 77 76
f 75 80 81
f 75 81 82
f 75 82 77
f 77 82 83
f 78 79 84
f 79 85 84
f 79 86 85
f 80 87 88
f 80 88 81
f 81 88 82
f 82 88 83
f 85 86 90
f 85 90 89
f 86 91 90
f 87 92 88
f 88 92 93
f 89 90 95
f 89 95 96
f 89 96 97
f 89 97 94
f 90 91 95
f 92 98 93
f 93 98 99
f 94 97 100
f 95 101 96
f 96 101 102
f 96 102 103
f 96 103 97
f 97 103 100
f 98 104 105
f 98 105 99
f 99 105 106
f 99 106 107
f 102 108 109
f 102 109 110
f 102 110 103
f 103 110 111
f 104 106 105
f 106 112 107
f 107 112 113
f 108 114 109
f 109 114 115
f 109 115 110
f 110 115 116
f 110 116 111
f 112 117 113
f 113 117 118
f 113 118 119
f 114 120 115
f 115 121 116
f 115 120 122
f 115 122 121
f 117 123 118
f 118 123 124
f 118 124 119
f 119 124 125
f 120 126 122
f 122 127 128
f 122 126 127
f 123 129 124
f 124 129 130
f 124 130 131
f 124 131 128
f 124 128 132
f 124 132 125
f 125 132 133
f 126 134 127
f 127 134 135
f 127 135 136
f 127 136 128
f 128 136 132
f 129 137 130
f 130 137 131
f 132 136 135
f 132 135 133

