# https://github.com/mikedh/trimesh
v 0.03919379 0.03051968 0.05696538
v 0.03733289 0.03258075 0.05336803
v 0.03800051 0.03191812 0.05576889
v 0.03742881 0.03270733 0.05696538
v 0.03739812 0.03266580 0.05816581
v 0.03800051 0.03191812 0.05816581
v 0.03912473 0.03051968 0.05813817
v 0.03826910 0.02949904 0.02627146
v 0.03704896 0.03143944 0.03220253
v 0.03693769 0.03330667 0.05696538
v 0.03596311 0.03236712 0.02627146
v 0.03689548 0.03326513 0.05816581
v 0.03841106 0.03123373 0.05882130
v 0.03848013 0.03131879 0.05816581
v 0.03861826 0.03051968 0.05925962
v 0.02972045 0.02949904 0.02627146
v 0.03792377 0.02949904 0.02024956
v 0.03717174 0.03043660 0.02024956
v 0.03858372 0.03051968 0.05930701
v 0.03769740 0.03051968 0.06011256
v 0.03737126 0.03051968 0.06020733
v 0.03657702 0.03051968 0.06043636
v 0.03537223 0.03051968 0.06057852
v 0.03633529 0.03395149 0.05696538
v 0.03630076 0.03391391 0.05816581
v 0.03596311 0.03357172 0.04460172
v 0.03604752 0.03365875 0.04737377
v 0.03619332 0.03380512 0.05216760
v 0.03627390 0.03155219 0.02024956
v 0.03584033 0.03222273 0.02219236
v 0.03541060 0.03255305 0.02024956
v 0.03518038 0.03279832 0.02024956
v 0.03615879 0.03376952 0.05899900
v 0.03729068 0.03252932 0.05892792
v -0.00000031 0.04156675 0.02038776
v -0.00000031 0.04156082 0.02024956
v 0.02968975 0.02949904 0.02587263
v 0.03417511 0.03051968 0.06051139
v 0.03298183 0.03051968 0.06021918
v 0.03290509 0.03051968 0.06017969
v 0.03185761 0.03051968 0.05946496
v 0.03178471 0.03051968 0.05939388
v 0.03110174 0.03051968 0.05816581
v 0.03092908 0.03051968 0.05696538
v 0.02927153 0.02949904 0.02024956
v 0.03806958 0.03082627 0.05962291
v 0.03727533 0.03131286 0.06002569
v 0.03655399 0.03174208 0.06015995
v 0.03657702 0.03058693 0.06043241
v 0.03537223 0.03058693 0.06058246
v -0.00000414 0.04617349 0.06058246
v 0.03417894 0.03058693 0.06052718
v 0.03573290 0.03454884 0.05696538
v 0.03569453 0.03451324 0.05816581
v 0.03495400 0.03302777 0.02024956
v 0.03460868 0.03341941 0.02099193
v 0.03475448 0.03356183 0.02557647
v 0.03401012 0.03399501 0.02099193
v 0.03452810 0.03454687 0.03805463
v 0.03565616 0.03447764 0.05456846
v 0.03577894 0.03215350 0.02024956
v 0.03373386 0.03613519 0.05895951
v 0.03536071 0.03416907 0.05938993
v 0.03577127 0.03337590 0.05979666
v 0.03654632 0.03295261 0.05936624
v 0.03693769 0.03210998 0.05973348
v -0.00000414 0.04318474 0.05192672
v -0.00000414 0.04261311 0.04077140
v -0.00000414 0.04249047 0.03837449
v -0.00000414 0.04247465 0.03805858
v -0.00000031 0.04805060 0.02024956
v -0.00000414 0.04500845 0.06025077
v -0.00000414 0.04470384 0.06009282
v -0.00000414 0.04441110 0.05993486
v -0.00000414 0.04401946 0.05933465
v -0.00000414 0.04378803 0.05874233
v -0.00000414 0.04357045 0.05816581
v -0.00000414 0.04350518 0.05755770
v -0.00000414 0.04344386 0.05696538
v 0.03613577 0.03257481 0.06005333
v 0.03537223 0.03298030 0.06018758
v 0.03537223 0.03178757 0.06047190
v 0.03417894 0.03178757 0.06059036
v 0.00420495 0.04617349 0.06058642
v 0.00060593 0.04737215 0.06051139
v -0.00000414 0.04676491 0.06054693
v 0.03320437 0.03682551 0.05456846
v 0.03390652 0.03629739 0.05696538
v 0.03323890 0.03686111 0.05816581
v 0.03251756 0.03731605 0.05893977
v 0.03267871 0.03747231 0.05696538
v 0.03458182 0.03339765 0.02024956
v 0.03421348 0.03375171 0.02024956
v 0.03213003 0.03574553 0.02024956
v 0.03163507 0.03641409 0.02338884
v 0.03207631 0.03689276 0.03805463
v 0.03301252 0.03664156 0.04857026
v 0.03212620 0.03693826 0.05973742
v 0.03455496 0.03456862 0.05977692
v 0.03254058 0.03613915 0.06004938
v 0.03496935 0.03376952 0.06005727
v -0.00000414 0.04883784 0.03805858
v -0.00000414 0.04886157 0.03852849
v -0.00000031 0.04808423 0.02099193
v 0.00060209 0.04806444 0.02024956
v 0.03415976 0.03417698 0.06018364
v 0.03177703 0.03538553 0.06046401
v 0.03417894 0.03298623 0.06047584
v 0.03177703 0.03418490 0.06058642
v 0.02578377 0.03898349 0.06058246
v 0.01859339 0.04257552 0.06058246
v 0.01139917 0.04497483 0.06058246
v 0.00540207 0.04617349 0.06058246
v 0.00180305 0.04737215 0.06051139
v 0.00180305 0.04833543 0.06018364
v 0.00060593 0.04833147 0.06018364
v -0.00000414 0.04832554 0.06018364
v -0.00000414 0.04737215 0.06050744
v 0.03263650 0.03743671 0.05816581
v 0.03196504 0.03803604 0.05816581
v 0.03125905 0.03844350 0.05885685
v 0.03168878 0.03771363 0.05929911
v 0.03200725 0.03807164 0.05696538
v 0.03115162 0.03716375 0.02819057
v 0.03153147 0.03631716 0.02024956
v 0.03082932 0.03810725 0.05965845
v 0.03132428 0.03730616 0.06004148
v 0.03174250 0.03655848 0.06016784
v -0.00000414 0.04954596 0.05397219
v 0.00060593 0.04942728 0.05097112
v -0.00000031 0.04830774 0.02603058
v 0.00060209 0.04809807 0.02099193
v 0.00134262 0.04806840 0.02024956
v 0.03057608 0.03658419 0.06045215
v 0.03057608 0.03538553 0.06058246
v 0.02937513 0.03658419 0.06056667
v 0.02818184 0.03778286 0.06053508
v 0.02458282 0.04017622 0.06054693
v 0.02218474 0.04137686 0.06056272
v 0.01978667 0.04257552 0.06056667
v 0.01619916 0.04377616 0.06057457
v 0.00660303 0.04617349 0.06057457
v 0.01379725 0.04497483 0.06056272
v 0.00900110 0.04617349 0.06055877
v 0.00300400 0.04737215 0.06049559
v 0.00300400 0.04829983 0.06016784
v 0.00180305 0.04893476 0.05971373
v 0.00060593 0.04892883 0.05970583
v -0.00000414 0.04862026 0.05994671
v 0.03136649 0.03852262 0.05816581
v 0.02991613 0.03953536 0.05848566
v 0.02640535 0.04199202 0.05879367
v 0.02777129 0.04091599 0.05896741
v 0.03048783 0.03865515 0.05930306
v 0.03136649 0.03852460 0.05576889
v 0.03140869 0.03855625 0.05696538
v 0.03127440 0.03654859 0.02024956
v 0.03097512 0.03701540 0.02338884
v 0.03048783 0.03720726 0.02024956
v 0.03025378 0.03738528 0.02024956
v 0.03028448 0.03740506 0.02099193
v 0.03072188 0.03737539 0.02627146
v 0.03048399 0.03755143 0.02627146
v 0.03069886 0.03802813 0.03778217
v 0.03120150 0.03839999 0.05127517
v 0.03003124 0.03841977 0.05999015
v 0.03048783 0.03773736 0.06012836
v -0.00000414 0.04967848 0.05696538
v 0.00060593 0.04969233 0.05696538
v 0.00180305 0.04970420 0.05696538
v 0.00180305 0.04833938 0.02627146
v 0.00180305 0.04807038 0.02024956
v 0.02937513 0.03778286 0.06037713
v 0.02578377 0.04017622 0.06043241
v 0.02698089 0.03898349 0.06049164
v 0.02338186 0.04137686 0.06046401
v 0.02098379 0.04257552 0.06048770
v 0.01740011 0.04377616 0.06054298
v 0.01499820 0.04497483 0.06050349
v 0.01019822 0.04617349 0.06051928
v 0.00660303 0.04737215 0.06037713
v 0.00420495 0.04737215 0.06045611
v 0.00780015 0.04807829 0.06004938
v 0.00780015 0.04737215 0.06033369
v 0.00300400 0.04890113 0.05966240
v 0.00180305 0.04937190 0.05911352
v 0.00060593 0.04936596 0.05910562
v -0.00000414 0.04935805 0.05909772
v -0.00000414 0.04892289 0.05969399
v 0.03000438 0.03960063 0.05768405
v 0.03047632 0.03918723 0.05811842
v 0.02793244 0.04103467 0.05816581
v 0.02408402 0.04323024 0.05885685
v 0.02578377 0.04216608 0.05903849
v 0.02578377 0.04169334 0.05964265
v 0.02686578 0.04129577 0.05928331
v 0.02708832 0.04163598 0.05816581
v 0.02648976 0.04204542 0.05816581
v 0.02578377 0.04244300 0.05816581
v 0.02192000 0.04455945 0.05816581
v 0.02732621 0.04056787 0.05976902
v 0.03047632 0.03923866 0.05687455
v 0.03000438 0.03960063 0.05721415
v 0.03085617 0.03691650 0.02024956
v 0.02994299 0.03761473 0.02024956
v 0.02946721 0.03800637 0.02099193
v 0.02818184 0.03890833 0.02024956
v 0.02652430 0.04087643 0.06002569
v 0.02937513 0.03864130 0.06009282
v 0.02694252 0.04017227 0.06017574
v -0.00000414 0.04962310 0.05816581
v 0.00060593 0.04963695 0.05816581
v 0.00180305 0.04964881 0.05816581
v 0.00300400 0.04963497 0.05696538
v 0.00246683 0.04917805 0.04542307
v 0.00236707 0.04804466 0.02024956
v 0.02578377 0.04109401 0.06013230
v 0.02338186 0.04236190 0.06015599
v 0.02228067 0.04268036 0.06024682
v 0.01978667 0.04377616 0.06032184
v 0.01859339 0.04377616 0.06046401
v 0.01619916 0.04497483 0.06038897
v 0.01259629 0.04617349 0.06036528
v 0.01139917 0.04617349 0.06045215
v 0.00864043 0.04802686 0.06000595
v 0.00902412 0.04746116 0.06020733
v 0.00300400 0.04933629 0.05905823
v -0.00000414 0.04949453 0.05863177
v 0.02797849 0.04106829 0.05696538
v 0.02713820 0.04166763 0.05696538
v 0.02175501 0.04446648 0.05891608
v 0.02338186 0.04342210 0.05912142
v 0.02274877 0.04315310 0.05995066
v 0.02506243 0.04189905 0.05990722
v 0.02653197 0.04207509 0.05696538
v 0.02578377 0.04250036 0.05696538
v 0.02197755 0.04459109 0.05696538
v 0.02098379 0.04502230 0.05816581
v 0.02698473 0.04011293 0.02627146
v 0.02793244 0.04103665 0.05576889
v 0.02682358 0.03989930 0.02024956
v 0.02426052 0.04211267 0.06005333
v 0.00300400 0.04957959 0.05816581
v 0.00728600 0.04918201 0.05764062
v 0.00728600 0.04918201 0.05734841
v 0.00420495 0.04950442 0.05696538
v 0.00286203 0.04922355 0.04737377
v 0.00284285 0.04801698 0.02024956
v 0.02194302 0.04334694 0.06006912
v 0.02087636 0.04375836 0.06014020
v 0.02040441 0.04438538 0.05997435
v 0.01978667 0.04448429 0.06004148
v 0.01859339 0.04469593 0.06014809
v 0.01738476 0.04502823 0.06020338
v 0.01499820 0.04598756 0.06018758
v 0.01384329 0.04626843 0.06021128
v 0.01019822 0.04720600 0.06019943
v 0.01259629 0.04692512 0.06007307
v 0.01347878 0.04683611 0.06001384
v 0.01427686 0.04673326 0.05993092
v 0.00944235 0.04792005 0.05991907
v 0.00902412 0.04832752 0.05946101
v 0.00780015 0.04858070 0.05936624
v 0.00420495 0.04927300 0.05894767
v 0.02637082 0.04076962 0.03011362
v 0.02644372 0.04201575 0.05456846
v 0.01929555 0.04561174 0.05883315
v 0.02087636 0.04460692 0.05933465
v 0.02578377 0.04244498 0.05576889
v 0.02098379 0.04508164 0.05696538
v 0.02137899 0.04306409 0.02024956
v 0.02175885 0.04446846 0.05216760
v 0.02003991 0.04543768 0.05816581
v 0.02010897 0.04546734 0.05696538
v 0.02727250 0.04054809 0.03805463
v 0.02648976 0.04013073 0.02024956
v 0.02624036 0.04068457 0.02699013
v 0.00540207 0.04931849 0.05816581
v 0.00540207 0.04920574 0.05883315
v 0.00601214 0.04917212 0.05876602
v 0.00681022 0.04912860 0.05844222
v 0.00773108 0.04907322 0.05809078
v 0.00900110 0.04885960 0.05816581
v 0.00900110 0.04891498 0.05696538
v 0.00773108 0.04911674 0.05695748
v 0.00780015 0.04905739 0.05576889
v 0.00648408 0.04910091 0.05348649
v 0.00540207 0.04776972 0.02099193
v 0.00614260 0.04765500 0.02024956
v 0.01778380 0.04546537 0.05986774
v 0.01697805 0.04564141 0.06001384
v 0.01859339 0.04574822 0.05904244
v 0.01586918 0.04687765 0.05894372
v 0.01619916 0.04577196 0.06009282
v 0.01499820 0.04658886 0.05977296
v 0.01499820 0.04702600 0.05917275
v 0.01384329 0.04715259 0.05946496
v 0.01139917 0.04809214 0.05897136
v 0.01019822 0.04823653 0.05919644
v 0.02538473 0.04089621 0.02099193
v 0.02637082 0.04197026 0.05286259
v 0.02589888 0.04225707 0.05330485
v 0.01666342 0.04672139 0.05840274
v 0.02376172 0.04185554 0.02219236
v 0.02041593 0.04439132 0.03687000
v 0.02424901 0.04148961 0.02024956
v 0.02078043 0.04338452 0.02024956
v 0.02160537 0.04438736 0.04892960
v 0.01680923 0.04677677 0.05759718
v 0.01728116 0.04652952 0.05806709
v 0.01952192 0.04570075 0.05696538
v 0.02594876 0.04049864 0.02024956
v 0.02598329 0.04052039 0.02099193
v 0.02558041 0.04073401 0.02024956
v 0.01019822 0.04858070 0.05816581
v 0.01212051 0.04800313 0.05882130
v 0.01019822 0.04863608 0.05696538
v 0.01019822 0.04858268 0.05576889
v 0.00844091 0.04798137 0.03337927
v 0.00832580 0.04796357 0.03257767
v 0.00734355 0.04752050 0.02024956
v 0.01499820 0.04736028 0.05816581
v 0.02535020 0.04087643 0.02024956
v 0.02458282 0.04130565 0.02024956
v 0.01623752 0.04693501 0.05806709
v 0.02147492 0.04431813 0.04617334
v 0.01978667 0.04383748 0.02024956
v 0.01881593 0.04422912 0.02024956
v 0.01952576 0.04480076 0.03805858
v 0.01680923 0.04677677 0.05746687
v 0.01499820 0.04741764 0.05696538
v 0.01596510 0.04691523 0.05336803
v 0.01740011 0.04647018 0.05576889
v 0.01629892 0.04695677 0.05702856
v 0.01717373 0.04571855 0.03805463
v 0.01855886 0.04579173 0.05097112
v 0.01235073 0.04805653 0.05816581
v 0.01379725 0.04770247 0.05816581
v 0.01245432 0.04808620 0.05696538
v 0.01283802 0.04788445 0.05456846
v 0.01118814 0.04806840 0.04977069
v 0.00969175 0.04799521 0.04018303
v 0.00912004 0.04785873 0.03418877
v 0.00900110 0.04752643 0.02627146
v 0.00899726 0.04728710 0.02099193
v 0.00854067 0.04733457 0.02024956
v 0.00780015 0.04746907 0.02024956
v 0.01593441 0.04534867 0.02024956
v 0.01552002 0.04554647 0.02099193
v 0.01826342 0.04448033 0.02099193
v 0.01860106 0.04474934 0.02939100
v 0.01379725 0.04775588 0.05696538
v 0.01610707 0.04697062 0.05576889
v 0.01499820 0.04730885 0.05456846
v 0.01444185 0.04678666 0.03927086
v 0.01438046 0.04676886 0.03846531
v 0.01630275 0.04576009 0.03183530
v 0.01551235 0.04674512 0.04617334
v 0.01734639 0.04537240 0.03220253
v 0.01379725 0.04754028 0.05216760
v 0.01128790 0.04689545 0.02458927
v 0.00971860 0.04735435 0.02627146
v 0.01026345 0.04694688 0.02024956
v 0.00899726 0.04725149 0.02024956
v 0.01547398 0.04552668 0.02024956
v 0.01487542 0.04575415 0.02024956
v 0.01434209 0.04676095 0.03805858
v 0.01444568 0.04588470 0.02024956
v 0.01379725 0.04608052 0.02024956
v 0.01409652 0.04669963 0.03538131
v 0.01219725 0.04647414 0.02024956
v 0.01379725 0.04622492 0.02338884
f 1 2 3
f 1 3 4
f 1 4 5
f 1 5 6
f 1 6 7
f 1 7 8
f 1 8 9
f 1 9 2
f 2 10 4
f 2 4 3
f 2 9 11
f 2 11 10
f 4 10 5
f 5 12 13
f 5 13 6
f 5 10 12
f 6 13 14
f 6 14 7
f 7 14 13
f 7 13 15
f 7 15 8
f 8 16 37
f 8 37 45
f 8 45 17
f 8 17 18
f 8 18 9
f 8 15 19
f 8 19 20
f 8 20 21
f 8 21 22
f 8 22 23
f 8 23 16
f 9 18 11
f 10 24 25
f 10 25 12
f 10 11 26
f 10 26 27
f 10 27 28
f 10 28 24
f 11 18 29
f 11 29 30
f 11 30 31
f 11 31 32
f 11 32 26
f 12 25 33
f 12 33 34
f 12 34 13
f 13 34 19
f 13 19 15
f 16 35 36
f 16 36 37
f 16 23 38
f 16 38 39
f 16 39 40
f 16 40 41
f 16 41 42
f 16 42 43
f 16 43 44
f 16 44 35
f 17 45 36
f 17 36 71
f 17 71 105
f 17 105 133
f 17 133 172
f 17 172 216
f 17 216 248
f 17 248 289
f 17 289 321
f 17 321 347
f 17 347 346
f 17 346 364
f 17 364 363
f 17 363 371
f 17 371 369
f 17 369 368
f 17 368 366
f 17 366 365
f 17 365 348
f 17 348 328
f 17 328 327
f 17 327 307
f 17 307 271
f 17 271 306
f 17 306 324
f 17 324 323
f 17 323 314
f 17 314 312
f 17 312 276
f 17 276 241
f 17 241 207
f 17 207 205
f 17 205 160
f 17 160 159
f 17 159 204
f 17 204 157
f 17 157 125
f 17 125 94
f 17 94 93
f 17 93 92
f 17 92 55
f 17 55 32
f 17 32 31
f 17 31 61
f 17 61 29
f 17 29 18
f 19 46 20
f 19 34 46
f 20 46 47
f 20 47 48
f 20 48 49
f 20 49 21
f 21 49 22
f 22 49 50
f 22 50 23
f 23 50 51
f 23 51 52
f 23 52 38
f 24 53 25
f 24 28 53
f 25 54 33
f 25 53 54
f 26 32 55
f 26 55 56
f 26 56 57
f 26 57 58
f 26 58 59
f 26 59 60
f 26 60 27
f 27 60 53
f 27 53 28
f 29 61 30
f 30 61 31
f 33 54 62
f 33 62 63
f 33 63 64
f 33 64 65
f 33 65 34
f 34 65 66
f 34 66 46
f 35 67 68
f 35 68 69
f 35 69 70
f 35 70 36
f 35 44 67
f 36 45 37
f 36 70 102
f 36 102 71
f 38 52 51
f 38 51 72
f 38 72 73
f 38 73 74
f 38 74 39
f 39 74 40
f 40 74 75
f 40 75 41
f 41 75 42
f 42 75 76
f 42 76 77
f 42 77 43
f 43 77 78
f 43 78 79
f 43 79 44
f 44 79 67
f 46 66 47
f 47 80 48
f 47 66 64
f 47 64 80
f 48 80 81
f 48 81 49
f 49 82 50
f 49 81 82
f 50 83 51
f 50 82 83
f 51 83 84
f 51 84 85
f 51 85 86
f 51 86 118
f 51 118 117
f 51 117 149
f 51 149 189
f 51 189 188
f 51 188 228
f 51 228 211
f 51 211 168
f 51 168 129
f 51 129 103
f 51 103 102
f 51 102 70
f 51 70 69
f 51 69 68
f 51 68 67
f 51 67 79
f 51 79 78
f 51 78 77
f 51 77 76
f 51 76 75
f 51 75 74
f 51 74 73
f 51 73 72
f 53 60 87
f 53 87 88
f 53 88 54
f 54 89 90
f 54 90 62
f 54 88 91
f 54 91 89
f 55 92 56
f 56 92 58
f 56 58 57
f 58 92 93
f 58 93 94
f 58 94 95
f 58 95 96
f 58 96 59
f 59 96 97
f 59 97 87
f 59 87 60
f 62 90 98
f 62 98 63
f 63 98 99
f 63 99 64
f 64 66 65
f 64 99 100
f 64 100 101
f 64 101 80
f 71 102 103
f 71 103 104
f 71 104 132
f 71 132 105
f 80 101 81
f 81 106 107
f 81 107 108
f 81 108 82
f 81 101 106
f 82 108 83
f 83 109 110
f 83 110 111
f 83 111 84
f 83 108 109
f 84 111 112
f 84 112 113
f 84 113 114
f 84 114 85
f 85 114 115
f 85 115 116
f 85 116 117
f 85 117 118
f 85 118 86
f 87 91 88
f 87 97 96
f 87 96 91
f 89 119 90
f 89 91 119
f 90 119 120
f 90 120 121
f 90 121 122
f 90 122 98
f 91 123 120
f 91 120 119
f 91 96 124
f 91 124 123
f 94 125 95
f 95 125 124
f 95 124 96
f 98 122 126
f 98 126 127
f 98 127 100
f 98 100 99
f 100 127 128
f 100 128 106
f 100 106 101
f 103 129 130
f 103 130 131
f 103 131 104
f 104 131 132
f 105 132 133
f 106 134 107
f 106 128 134
f 107 134 135
f 107 135 108
f 108 135 109
f 109 135 110
f 110 135 136
f 110 136 137
f 110 137 138
f 110 138 139
f 110 139 140
f 110 140 111
f 111 140 141
f 111 141 112
f 112 142 113
f 112 141 143
f 112 143 144
f 112 144 142
f 113 142 114
f 114 144 145
f 114 145 115
f 114 142 144
f 115 145 146
f 115 146 147
f 115 147 116
f 116 147 117
f 117 147 148
f 117 148 149
f 120 150 121
f 120 123 150
f 121 150 151
f 121 151 152
f 121 152 153
f 121 153 154
f 121 154 126
f 121 126 122
f 123 155 156
f 123 156 150
f 123 124 155
f 124 125 157
f 124 157 158
f 124 158 159
f 124 159 160
f 124 160 161
f 124 161 162
f 124 162 163
f 124 163 164
f 124 164 165
f 124 165 155
f 126 154 166
f 126 166 127
f 127 166 167
f 127 167 128
f 128 167 134
f 129 168 130
f 130 132 131
f 130 168 169
f 130 169 170
f 130 170 132
f 132 171 133
f 132 170 171
f 133 171 172
f 134 167 173
f 134 173 174
f 134 174 175
f 134 175 137
f 134 137 136
f 134 136 135
f 137 175 138
f 138 175 174
f 138 174 176
f 138 176 177
f 138 177 139
f 139 177 140
f 140 177 178
f 140 178 143
f 140 143 141
f 143 178 179
f 143 179 180
f 143 180 144
f 144 180 181
f 144 181 182
f 144 182 145
f 145 182 146
f 146 183 147
f 146 182 181
f 146 181 184
f 146 184 183
f 147 183 185
f 147 185 186
f 147 186 187
f 147 187 148
f 148 187 188
f 148 188 189
f 148 189 149
f 150 156 190
f 150 190 191
f 150 191 151
f 151 191 192
f 151 192 152
f 152 193 194
f 152 194 195
f 152 195 196
f 152 196 153
f 152 192 197
f 152 197 198
f 152 198 199
f 152 199 200
f 152 200 193
f 153 196 201
f 153 201 166
f 153 166 154
f 155 202 156
f 155 165 202
f 156 203 190
f 156 202 203
f 157 204 158
f 158 204 159
f 160 205 161
f 161 205 206
f 161 206 163
f 161 163 162
f 163 206 164
f 164 206 207
f 164 207 202
f 164 202 165
f 166 208 209
f 166 209 167
f 166 201 208
f 167 209 210
f 167 210 173
f 168 211 212
f 168 212 169
f 169 212 213
f 169 213 170
f 170 213 243
f 170 243 214
f 170 214 215
f 170 215 171
f 171 215 172
f 172 215 216
f 173 210 174
f 174 210 217
f 174 217 218
f 174 218 219
f 174 219 176
f 176 219 220
f 176 220 177
f 177 220 221
f 177 221 178
f 178 221 179
f 179 221 222
f 179 222 223
f 179 223 224
f 179 224 180
f 180 224 184
f 180 184 181
f 183 225 185
f 183 184 226
f 183 226 225
f 184 224 223
f 184 223 226
f 185 225 227
f 185 227 186
f 186 227 213
f 186 213 187
f 187 213 212
f 187 212 228
f 187 228 188
f 190 197 192
f 190 192 191
f 190 203 229
f 190 229 230
f 190 230 197
f 193 231 194
f 193 200 231
f 194 231 232
f 194 232 233
f 194 233 234
f 194 234 195
f 195 234 208
f 195 208 196
f 196 208 201
f 197 230 198
f 198 230 235
f 198 235 236
f 198 236 199
f 199 236 237
f 199 237 200
f 200 238 231
f 200 237 238
f 202 207 239
f 202 239 240
f 202 240 229
f 202 229 203
f 205 207 206
f 207 241 239
f 208 234 233
f 208 233 242
f 208 242 217
f 208 217 210
f 208 210 209
f 211 228 212
f 213 227 243
f 214 243 244
f 214 244 245
f 214 245 246
f 214 246 247
f 214 247 215
f 215 247 248
f 215 248 216
f 217 242 218
f 218 242 249
f 218 249 250
f 218 250 219
f 219 250 220
f 220 250 251
f 220 251 252
f 220 252 253
f 220 253 254
f 220 254 222
f 220 222 221
f 222 254 255
f 222 255 223
f 223 255 256
f 223 256 257
f 223 257 226
f 225 226 257
f 225 257 258
f 225 258 259
f 225 259 260
f 225 260 261
f 225 261 262
f 225 262 263
f 225 263 227
f 227 264 243
f 227 263 264
f 229 240 265
f 229 265 230
f 230 266 235
f 230 265 266
f 231 238 267
f 231 267 268
f 231 268 251
f 231 251 233
f 231 233 232
f 233 251 249
f 233 249 242
f 235 266 236
f 236 266 269
f 236 269 237
f 237 270 238
f 237 269 271
f 237 271 272
f 237 272 270
f 238 273 267
f 238 270 274
f 238 274 273
f 239 265 275
f 239 275 240
f 239 241 265
f 240 275 265
f 241 276 277
f 241 277 265
f 243 278 244
f 243 264 279
f 243 279 280
f 243 280 281
f 243 281 278
f 244 278 281
f 244 281 282
f 244 282 283
f 244 283 284
f 244 284 285
f 244 285 245
f 245 285 246
f 246 285 286
f 246 286 287
f 246 287 247
f 247 287 248
f 248 288 289
f 248 287 288
f 249 251 250
f 251 290 260
f 251 260 291
f 251 291 252
f 251 268 267
f 251 267 292
f 251 292 293
f 251 293 290
f 252 291 294
f 252 294 253
f 253 294 254
f 254 294 255
f 255 294 260
f 255 260 259
f 255 259 256
f 256 259 258
f 256 258 257
f 260 290 295
f 260 295 296
f 260 296 297
f 260 297 298
f 260 298 299
f 260 299 261
f 260 294 291
f 261 299 262
f 262 299 280
f 262 280 263
f 263 280 279
f 263 279 264
f 265 277 300
f 265 300 266
f 266 300 301
f 266 301 302
f 266 302 269
f 267 303 293
f 267 293 292
f 267 273 303
f 269 302 304
f 269 304 271
f 270 272 305
f 270 305 274
f 271 304 306
f 271 307 272
f 272 307 308
f 272 308 305
f 273 274 309
f 273 309 310
f 273 310 303
f 274 311 309
f 274 305 311
f 276 312 313
f 276 313 277
f 277 313 314
f 277 314 300
f 280 283 282
f 280 282 281
f 280 299 283
f 283 315 317
f 283 317 284
f 283 299 298
f 283 298 316
f 283 316 315
f 284 286 285
f 284 317 318
f 284 318 319
f 284 319 286
f 286 319 320
f 286 320 289
f 286 289 287
f 287 289 288
f 289 320 321
f 290 293 295
f 293 303 322
f 293 322 316
f 293 316 296
f 293 296 295
f 296 316 297
f 297 316 298
f 300 314 323
f 300 323 324
f 300 324 302
f 300 302 301
f 302 324 306
f 302 306 304
f 303 310 325
f 303 325 322
f 305 308 326
f 305 326 307
f 305 307 327
f 305 327 328
f 305 328 329
f 305 329 311
f 307 326 308
f 309 311 330
f 309 330 331
f 309 331 322
f 309 322 325
f 309 325 310
f 311 332 333
f 311 333 334
f 311 334 330
f 311 329 335
f 311 335 336
f 311 336 332
f 312 314 313
f 315 316 337
f 315 337 317
f 316 322 338
f 316 338 337
f 317 339 318
f 317 337 339
f 318 339 340
f 318 340 341
f 318 341 342
f 318 342 343
f 318 343 319
f 319 343 344
f 319 344 345
f 319 345 346
f 319 346 347
f 319 347 320
f 320 347 321
f 322 331 338
f 328 348 349
f 328 349 350
f 328 350 351
f 328 351 329
f 329 351 335
f 330 334 331
f 331 352 338
f 331 334 353
f 331 353 332
f 331 332 354
f 331 354 355
f 331 355 356
f 331 356 352
f 332 353 334
f 332 334 333
f 332 336 335
f 332 335 357
f 332 357 349
f 332 349 358
f 332 358 354
f 335 351 359
f 335 359 357
f 337 338 339
f 338 352 339
f 339 352 340
f 340 352 360
f 340 360 361
f 340 361 341
f 341 361 362
f 341 362 342
f 342 362 345
f 342 345 343
f 343 345 344
f 345 362 363
f 345 363 364
f 345 364 346
f 348 365 349
f 349 357 359
f 349 359 350
f 349 365 366
f 349 366 358
f 350 359 351
f 352 356 367
f 352 367 360
f 354 358 355
f 355 358 366
f 355 366 356
f 356 366 368
f 356 368 369
f 356 369 367
f 360 367 370
f 360 370 371
f 360 371 361
f 361 371 363
f 361 363 362
f 367 369 372
f 367 372 370
f 369 371 372
f 370 372 371

