# https://github.com/mikedh/trimesh
v 0.03920481 -0.03052653 0.05687387
v 0.03915107 -0.03052653 0.05810748
v 0.03854077 -0.03141758 0.05694921
v 0.03851774 -0.03137472 0.05575326
v 0.03839491 -0.03121230 0.05126142
v 0.03896683 -0.03058970 0.05335196
v 0.03847168 -0.03012049 0.03803071
v 0.03831431 -0.02663299 -0.01125720
v 0.03913572 -0.03052653 0.05815457
v 0.03844097 -0.03127096 0.05885142
v 0.03851774 -0.03137472 0.05816398
v 0.03806481 -0.03201763 0.05694921
v 0.03726259 -0.03130254 0.03218283
v 0.03709370 -0.03109725 0.02626903
v 0.03784219 -0.03059646 0.03296443
v 0.03585007 -0.02861585 -0.02960127
v 0.03730481 -0.02663299 -0.02960127
v 0.02978929 -0.02663299 -0.01125720
v 0.03543937 -0.03052653 0.06058412
v 0.03657936 -0.03052653 0.06044287
v 0.03739693 -0.03052653 0.06021687
v 0.03771936 -0.03052653 0.06011328
v 0.03822218 -0.03052653 0.05977427
v 0.03864440 -0.03052653 0.05928459
v 0.03810319 -0.03084235 0.05964243
v 0.03770784 -0.03170407 0.05929401
v 0.03730865 -0.03252745 0.05892675
v 0.03803026 -0.03197477 0.05816398
v 0.03743148 -0.03265152 0.05816398
v 0.03746602 -0.03269212 0.05694921
v 0.03684037 -0.03204245 0.03656168
v 0.03475613 -0.02996934 -0.02960127
v 0.03728562 -0.03250038 0.05096008
v 0.03599977 -0.03002123 -0.00798955
v 0.03596138 -0.02997160 -0.00935500
v 0.02728667 -0.03652025 -0.03561866
v 0.03586926 -0.02985204 -0.01259440
v 0.02728667 -0.02668712 -0.03561866
v 0.02848808 -0.02663299 -0.02960127
v 0.02976242 -0.02663299 -0.01147379
v 0.00000354 -0.03815798 -0.03561866
v -0.00000798 -0.04344111 0.05694921
v 0.03107898 -0.03052653 0.05816398
v 0.03121716 -0.03052653 0.05851241
v 0.03177372 -0.03052653 0.05942585
v 0.03233413 -0.03052653 0.05995319
v 0.03297513 -0.03052653 0.06022627
v 0.03417654 -0.03052653 0.06050879
v 0.03423796 -0.03052653 0.06051820
v -0.00000798 -0.04616840 0.06057470
v 0.00300130 -0.04616840 0.06058412
v 0.03538179 -0.03058970 0.06058412
v 0.03657936 -0.03058970 0.06044287
v 0.03655249 -0.03175596 0.06015094
v 0.03730097 -0.03133863 0.06002852
v 0.03693249 -0.03213493 0.05972718
v 0.03376584 -0.03616834 0.05898325
v 0.03451048 -0.03570364 0.05816398
v 0.03568502 -0.03447647 0.05816398
v 0.03416503 -0.03536978 0.05937876
v 0.03689411 -0.03328991 0.05694921
v 0.03445674 -0.03445618 0.03536574
v 0.03185433 -0.03299666 -0.02960127
v 0.03239938 -0.03360798 -0.01125720
v 0.03451048 -0.03570364 0.05575326
v 0.03443755 -0.03562694 0.05335196
v 0.02703334 -0.03673907 -0.03537382
v 0.02642304 -0.03721053 -0.03561866
v 0.03123251 -0.03364182 -0.02960127
v 0.03057615 -0.03420127 -0.02960127
v 0.02992363 -0.03474492 -0.02960127
v 0.02934020 -0.03523218 -0.02937527
v 0.02858020 -0.02663299 -0.02826408
v -0.00000414 -0.04116273 0.01259573
v -0.00000798 -0.04247337 0.03804013
v -0.00000798 -0.04249592 0.03851097
v -0.00000798 -0.04254781 0.03956566
v 0.00000354 -0.04557061 -0.03561866
v -0.00000798 -0.04356744 0.05816398
v -0.00000798 -0.04401860 0.05932226
v -0.00000798 -0.04440435 0.05991552
v -0.00000798 -0.04500665 0.06024511
v -0.00000798 -0.04470888 0.06008503
v -0.00000798 -0.04677747 0.06053704
v 0.00419888 -0.04616840 0.06058412
v 0.03178140 -0.03418773 0.06058412
v 0.03178140 -0.03538783 0.06046170
v 0.03297513 -0.03418773 0.06046170
v 0.03297513 -0.03538332 0.06016978
v 0.03536260 -0.03296507 0.06016036
v 0.03613411 -0.03255000 0.06003794
v 0.03456422 -0.03456445 0.05976485
v 0.03252221 -0.03730076 0.05891733
v 0.03325150 -0.03691276 0.05816398
v 0.03391170 -0.03631046 0.05816398
v 0.03337049 -0.03578034 0.05978369
v 0.03294826 -0.03655860 0.05935993
v 0.03454503 -0.03574199 0.05694921
v 0.03359311 -0.03599916 0.04539470
v 0.03264887 -0.03386966 -0.00313044
v 0.02643071 -0.03721956 -0.03537382
v 0.02841515 -0.03809933 0.00795322
v 0.02633091 -0.03727369 -0.03561866
v 0.03238402 -0.03600592 0.02731431
v 0.03117878 -0.03478552 -0.01125720
v 0.02999272 -0.03479680 -0.02776498
v 0.03068362 -0.03518706 -0.01125720
v -0.00000414 -0.04770236 0.01259573
v -0.00000798 -0.04883704 0.03804013
v 0.00176919 -0.04553451 -0.03561866
v 0.00000354 -0.04559091 -0.03520431
v -0.00000798 -0.04737075 0.06048996
v 0.00060232 -0.04737075 0.06048996
v 0.01139582 -0.04497056 0.06058412
v 0.00300130 -0.04737075 0.06048053
v 0.00540029 -0.04616840 0.06057470
v 0.02338689 -0.04017242 0.06058412
v 0.02578587 -0.03897909 0.06057470
v 0.03058383 -0.03538783 0.06057470
v 0.03058383 -0.03658793 0.06042403
v 0.03173534 -0.03656311 0.06015094
v 0.02818485 -0.03778577 0.06053704
v 0.03256443 -0.03614804 0.06003794
v 0.03376584 -0.03498178 0.06003794
v 0.03210766 -0.03694435 0.05972718
v 0.03002343 -0.03841514 0.05998144
v 0.02913292 -0.03985661 0.05910567
v 0.03122484 -0.03841740 0.05881375
v 0.03265655 -0.03740904 0.05816398
v 0.03270261 -0.03744288 0.05694921
v 0.03329756 -0.03694435 0.05694921
v 0.03394624 -0.03634655 0.05694921
v 0.03130544 -0.03728497 0.06000969
v 0.03391170 -0.03631046 0.05575326
v 0.02879131 -0.03958366 0.03947149
v 0.02864161 -0.04067547 0.05694921
v 0.02758222 -0.03957238 0.02274712
v 0.02641152 -0.03839484 -0.01379034
v 0.03253372 -0.03730979 0.05215602
v 0.02954747 -0.03890014 0.03803071
v 0.02578587 -0.03763914 -0.03537382
v 0.02580506 -0.03761207 -0.03561866
v 0.00000354 -0.04569017 -0.03298193
v -0.00000798 -0.04967620 0.05694921
v 0.00276333 -0.04551195 -0.03561866
v 0.00300130 -0.04950476 0.05455732
v 0.00060232 -0.04961078 0.05575326
v -0.00000798 -0.04785575 0.06032986
v 0.00779927 -0.04616840 0.06055587
v 0.00899684 -0.04616840 0.06054645
v 0.01260107 -0.04497056 0.06056529
v 0.01619378 -0.04377046 0.06057470
v 0.01859276 -0.04257262 0.06058412
v -0.00000798 -0.04832271 0.06016978
v 0.00179989 -0.04830015 0.06016036
v 0.00300130 -0.04828661 0.06015094
v 0.00419888 -0.04737075 0.06046170
v 0.01019825 -0.04616840 0.06052762
v 0.01978650 -0.04257262 0.06055587
v 0.02218164 -0.04137252 0.06055587
v 0.02458446 -0.04017242 0.06053704
v 0.02698344 -0.03897909 0.06048996
v 0.02937858 -0.03778577 0.06035812
v 0.03048787 -0.03772486 0.06010386
v 0.02937858 -0.03865651 0.06008503
v 0.02790465 -0.03978668 0.06007560
v 0.02870303 -0.03951147 0.05990611
v 0.02780869 -0.04091459 0.05896442
v 0.02993130 -0.03953628 0.05851241
v 0.02825778 -0.04021754 0.05944468
v 0.03001191 -0.03960170 0.05770256
v 0.03000807 -0.03959719 0.05694921
v 0.02948989 -0.03995361 0.05584743
v 0.02915595 -0.03987466 0.04975472
v 0.02937858 -0.04009798 0.05694921
v 0.02859555 -0.04064164 0.05816398
v 0.02804283 -0.04106348 0.05694921
v 0.02744788 -0.04069126 0.04256022
v 0.02784707 -0.04093940 0.05215602
v 0.02499516 -0.03826400 -0.03298193
v 0.02578587 -0.03783088 -0.03177657
v 0.02489153 -0.03820084 -0.03537382
v 0.02488001 -0.03819407 -0.03561866
v 0.02559779 -0.03774291 -0.03561866
v 0.00300130 -0.04961078 0.05694921
v -0.00000798 -0.04962206 0.05816398
v 0.00300130 -0.04550519 -0.03561866
v 0.00300130 -0.04551647 -0.03537382
v 0.00362696 -0.04557737 -0.03364111
v 0.00300130 -0.04567663 -0.03177657
v 0.00322777 -0.04916187 0.04694849
v 0.01379864 -0.04497056 0.06054645
v 0.01739519 -0.04377046 0.06053704
v -0.00000798 -0.04862499 0.05992494
v -0.00000798 -0.04892050 0.05968010
v 0.00300130 -0.04888441 0.05963301
v 0.00419888 -0.04825729 0.06014153
v 0.00540029 -0.04737075 0.06042403
v 0.01499621 -0.04497056 0.06048996
v 0.00779927 -0.04737075 0.06029220
v 0.01019825 -0.04722863 0.06018861
v 0.01139582 -0.04616840 0.06045228
v 0.02098407 -0.04257262 0.06048053
v 0.02338689 -0.04137252 0.06046170
v 0.02578587 -0.04017242 0.06040520
v 0.02825778 -0.03906031 0.06023570
v 0.02651900 -0.04085368 0.06000969
v 0.02694505 -0.04017919 0.06016036
v 0.02731738 -0.04058298 0.05976485
v 0.02694505 -0.04113792 0.05935993
v 0.02555940 -0.04220041 0.05907742
v 0.02409698 -0.04324260 0.05887966
v 0.02636162 -0.04195678 0.05866308
v 0.02946686 -0.03996715 0.05813573
v 0.02799293 -0.04103189 0.05816398
v 0.02707172 -0.04166352 0.05694921
v 0.02645758 -0.04201995 0.05786264
v 0.02578587 -0.04238539 0.05575326
v 0.02621960 -0.04187331 0.05096008
v 0.02281881 -0.03975961 -0.02960127
v 0.02210487 -0.03989270 -0.03537382
v 0.02411234 -0.03866102 -0.03561866
v 0.02403173 -0.04320199 0.05096008
v 0.00372676 -0.04917767 0.04774892
v 0.00419888 -0.04950025 0.05575326
v 0.00419888 -0.04954988 0.05694921
v 0.00419888 -0.04949799 0.05816398
v 0.00300130 -0.04955439 0.05816398
v 0.00060232 -0.04960853 0.05816398
v 0.00300130 -0.04931978 0.05903034
v 0.00179989 -0.04933557 0.05905859
v -0.00000798 -0.04935588 0.05908684
v 0.00396473 -0.04544203 -0.03561866
v 0.00420271 -0.04542623 -0.03561866
v 0.00420271 -0.04543751 -0.03537382
v 0.00376130 -0.04559317 -0.03298193
v 0.00476312 -0.04916639 0.04921795
v 0.01859276 -0.04377046 0.06044287
v 0.00419888 -0.04885734 0.05958593
v 0.00540029 -0.04819638 0.06011328
v 0.01619378 -0.04497056 0.06039578
v 0.00898532 -0.04745873 0.06017919
v 0.00857846 -0.04799561 0.05998144
v 0.01139582 -0.04707524 0.06014153
v 0.01260107 -0.04616840 0.06034869
v 0.02218164 -0.04257262 0.06032045
v 0.02328325 -0.04253878 0.06011328
v 0.02578587 -0.04106348 0.06010386
v 0.02281497 -0.04318846 0.05996260
v 0.02177093 -0.04445172 0.05888908
v 0.02255780 -0.04426900 0.05816398
v 0.02338689 -0.04382009 0.05816398
v 0.02423517 -0.04332381 0.05816398
v 0.02328325 -0.04340727 0.05930342
v 0.02691051 -0.04169059 0.05821107
v 0.02578587 -0.04244404 0.05694921
v 0.02428123 -0.04335313 0.05694921
v 0.02423517 -0.04332381 0.05575326
v 0.02114912 -0.04055366 -0.03298193
v 0.02209335 -0.03988593 -0.03561866
v 0.02347901 -0.04286588 0.03804013
v 0.02291860 -0.04324937 0.03896298
v 0.02178245 -0.04089203 -0.01977948
v 0.02155214 -0.04076120 -0.02490226
v 0.02132184 -0.04063938 -0.02960127
v 0.02338689 -0.04376144 0.05455732
v 0.00540029 -0.04941678 0.05694921
v 0.00540029 -0.04936264 0.05816398
v 0.00605281 -0.04917541 0.05876667
v 0.00540029 -0.04922729 0.05887025
v 0.00419888 -0.04929271 0.05898325
v 0.00540029 -0.04526607 -0.03561866
v 0.00474776 -0.04557061 -0.03105147
v 0.00489746 -0.04918443 0.05001839
v 0.00779927 -0.04804975 0.06000969
v 0.00659786 -0.04811968 0.06006620
v 0.01499621 -0.04595635 0.06016978
v 0.01619378 -0.04578040 0.06009444
v 0.01741438 -0.04503597 0.06019803
v 0.00937684 -0.04791892 0.05990611
v 0.01260107 -0.04692184 0.06006620
v 0.01019825 -0.04825503 0.05921867
v 0.02098407 -0.04357872 0.06016036
v 0.02218164 -0.04331027 0.06003794
v 0.01953700 -0.04450135 0.06003794
v 0.01701903 -0.04566310 0.06001911
v 0.02033154 -0.04434344 0.05993436
v 0.02098407 -0.04462542 0.05914334
v 0.01927599 -0.04560444 0.05881375
v 0.02196285 -0.04453519 0.05816398
v 0.02262305 -0.04430058 0.05694921
v 0.02338689 -0.04388100 0.05694921
v 0.02052346 -0.04073864 -0.03561866
v 0.02102629 -0.04049275 -0.03537382
v 0.02099558 -0.04049501 -0.03561866
v 0.02287638 -0.04322681 0.03804013
v 0.02152911 -0.04195001 -0.00152958
v 0.00520837 -0.04923406 0.05215602
v 0.00650190 -0.04924760 0.05694921
v 0.00899684 -0.04880997 0.05816398
v 0.01139582 -0.04811743 0.05901150
v 0.01019825 -0.04861822 0.05816398
v 0.00779927 -0.04489837 -0.03561866
v 0.00660169 -0.04509463 -0.03537382
v 0.00540029 -0.04527735 -0.03537382
v 0.00497806 -0.04560219 -0.02960127
v 0.01339945 -0.04682710 0.06000027
v 0.01019825 -0.04782643 0.05982135
v 0.01419783 -0.04669401 0.05987785
v 0.01626671 -0.04644586 0.05933168
v 0.01741438 -0.04597891 0.05942585
v 0.01782509 -0.04547812 0.05986844
v 0.01859276 -0.04575107 0.05903975
v 0.01671196 -0.04674589 0.05858774
v 0.01859276 -0.04602177 0.05816398
v 0.01940266 -0.04566535 0.05816398
v 0.02202810 -0.04456451 0.05694921
v 0.02163275 -0.04439307 0.04975472
v 0.02145235 -0.04191392 -0.00298919
v 0.02042750 -0.04079729 -0.03537382
v 0.02041599 -0.04079052 -0.03561866
v 0.00899684 -0.04886411 0.05694921
v 0.00532736 -0.04550293 -0.03062771
v 0.00900068 -0.04472468 -0.03537382
v 0.01019825 -0.04867462 0.05694921
v 0.01499621 -0.04699854 0.05913392
v 0.01139582 -0.04767754 0.05961418
v 0.01214430 -0.04801366 0.05883258
v 0.01139582 -0.04834752 0.05816398
v 0.00900068 -0.04471339 -0.03561866
v 0.00540029 -0.04533149 -0.03417787
v 0.01591358 -0.04686319 0.05891733
v 0.01732610 -0.04656091 0.05817340
v 0.01235541 -0.04807457 0.05816398
v 0.01499621 -0.04730533 0.05816398
v 0.01626671 -0.04693087 0.05817340
v 0.01686933 -0.04680003 0.05778731
v 0.01859276 -0.04608042 0.05694921
v 0.01934508 -0.04563603 0.05455732
v 0.01914165 -0.04195001 -0.02337672
v 0.01959458 -0.04144697 -0.02960127
v 0.01980569 -0.04106122 -0.03561866
v 0.00959562 -0.04557286 -0.01437419
v 0.00944593 -0.04794599 0.03804013
v 0.00987966 -0.04453744 -0.03561866
v 0.01139582 -0.04840392 0.05694921
v 0.01075481 -0.04796403 0.04333241
v 0.01304632 -0.04792794 0.05694921
v 0.01619378 -0.04700982 0.05694921
v 0.01687701 -0.04680228 0.05694921
v 0.01747580 -0.04655640 0.05694921
v 0.01684630 -0.04558640 0.03082680
v 0.01740671 -0.04361706 -0.00475015
v 0.01740287 -0.04241471 -0.02960127
v 0.01806307 -0.04212371 -0.02960127
v 0.01737984 -0.04213048 -0.03561866
v 0.01009845 -0.04450360 -0.03537382
v 0.01007542 -0.04449684 -0.03561866
v 0.01083542 -0.04797982 0.04413284
v 0.01099663 -0.04802720 0.04615747
v 0.01139582 -0.04834978 0.05575326
v 0.01225945 -0.04804750 0.05455732
v 0.01067804 -0.04434344 -0.03561866
v 0.01379864 -0.04765724 0.05575326
v 0.01677721 -0.04676619 0.05528242
v 0.01682711 -0.04678424 0.05608285
v 0.01680024 -0.04556610 0.03001695
v 0.01559116 -0.04317492 -0.02995911
v 0.01619378 -0.04271699 -0.03417787
v 0.01684630 -0.04319297 -0.01858353
v 0.01619378 -0.04264706 -0.03561866
v 0.01019441 -0.04446751 -0.03561866
v 0.01108491 -0.04446074 -0.03058063
v 0.01260107 -0.04745196 0.04376558
v 0.01139966 -0.04413590 -0.03561866
v 0.01475055 -0.04328095 -0.03298193
v 0.01440894 -0.04325839 -0.03561866
v 0.01456247 -0.04322455 -0.03537382
v 0.01544530 -0.04313206 -0.03177657
v 0.01514207 -0.04303957 -0.03561866
v 0.01235925 -0.04385618 -0.03561866
f 1 2 3
f 1 3 4
f 1 4 5
f 1 5 6
f 1 6 7
f 1 7 8
f 1 8 2
f 2 9 10
f 2 10 11
f 2 11 3
f 2 8 9
f 3 12 4
f 3 11 12
f 4 12 13
f 4 13 5
f 5 13 14
f 5 14 15
f 5 15 7
f 5 7 6
f 7 15 16
f 7 16 17
f 7 17 8
f 8 18 19
f 8 19 20
f 8 20 21
f 8 21 22
f 8 22 23
f 8 23 24
f 8 24 9
f 8 17 39
f 8 39 73
f 8 73 40
f 8 40 18
f 9 24 10
f 10 24 25
f 10 25 26
f 10 26 27
f 10 27 28
f 10 28 11
f 11 28 12
f 12 28 29
f 12 29 30
f 12 30 13
f 13 31 32
f 13 32 14
f 13 30 33
f 13 33 31
f 14 34 35
f 14 35 15
f 14 32 34
f 15 35 16
f 16 32 36
f 16 36 17
f 16 35 37
f 16 37 32
f 17 36 38
f 17 38 39
f 18 40 41
f 18 41 42
f 18 42 43
f 18 43 44
f 18 44 45
f 18 45 46
f 18 46 47
f 18 47 48
f 18 48 49
f 18 49 19
f 19 49 50
f 19 50 51
f 19 51 85
f 19 85 114
f 19 114 153
f 19 153 117
f 19 117 86
f 19 86 52
f 19 52 53
f 19 53 20
f 20 53 21
f 21 53 54
f 21 54 55
f 21 55 22
f 22 55 23
f 23 55 25
f 23 25 24
f 25 55 56
f 25 56 26
f 26 56 27
f 27 57 58
f 27 58 59
f 27 59 29
f 27 29 28
f 27 56 60
f 27 60 57
f 29 59 61
f 29 61 30
f 30 61 33
f 31 62 32
f 31 33 62
f 32 63 36
f 32 37 35
f 32 35 34
f 32 62 64
f 32 64 63
f 33 61 65
f 33 65 66
f 33 66 62
f 36 67 68
f 36 68 103
f 36 103 142
f 36 142 184
f 36 184 183
f 36 183 222
f 36 222 260
f 36 260 295
f 36 295 293
f 36 293 321
f 36 321 342
f 36 342 356
f 36 356 371
f 36 371 380
f 36 380 377
f 36 377 381
f 36 381 375
f 36 375 363
f 36 363 372
f 36 372 358
f 36 358 345
f 36 345 330
f 36 330 303
f 36 303 272
f 36 272 234
f 36 234 233
f 36 233 187
f 36 187 145
f 36 145 110
f 36 110 78
f 36 78 41
f 36 41 38
f 36 63 69
f 36 69 70
f 36 70 71
f 36 71 72
f 36 72 67
f 38 41 40
f 38 40 73
f 38 73 39
f 41 74 75
f 41 75 76
f 41 76 77
f 41 77 42
f 41 78 108
f 41 108 74
f 42 79 43
f 42 77 76
f 42 76 75
f 42 75 109
f 42 109 144
f 42 144 186
f 42 186 232
f 42 232 195
f 42 195 194
f 42 194 154
f 42 154 148
f 42 148 112
f 42 112 84
f 42 84 50
f 42 50 82
f 42 82 83
f 42 83 81
f 42 81 80
f 42 80 79
f 43 79 44
f 44 79 45
f 45 80 46
f 45 79 80
f 46 80 81
f 46 81 47
f 47 82 48
f 47 81 83
f 47 83 82
f 48 82 49
f 49 82 50
f 50 84 51
f 51 84 85
f 52 86 87
f 52 87 88
f 52 88 53
f 53 88 89
f 53 89 90
f 53 90 54
f 54 91 55
f 54 90 91
f 55 91 56
f 56 92 60
f 56 91 92
f 57 93 94
f 57 94 95
f 57 95 58
f 57 60 96
f 57 96 97
f 57 97 93
f 58 95 98
f 58 98 61
f 58 61 59
f 60 92 96
f 61 98 65
f 62 66 99
f 62 99 100
f 62 100 64
f 63 64 69
f 64 100 99
f 64 99 69
f 65 98 99
f 65 99 66
f 67 101 68
f 67 72 102
f 67 102 101
f 68 101 103
f 69 99 104
f 69 104 105
f 69 105 70
f 70 105 106
f 70 106 71
f 71 106 72
f 72 106 107
f 72 107 102
f 74 108 109
f 74 109 75
f 78 110 111
f 78 111 109
f 78 109 108
f 84 112 113
f 84 113 85
f 85 113 115
f 85 115 116
f 85 116 114
f 86 117 118
f 86 118 119
f 86 119 87
f 87 120 121
f 87 121 89
f 87 89 88
f 87 119 122
f 87 122 120
f 89 121 123
f 89 123 124
f 89 124 90
f 90 124 91
f 91 124 96
f 91 96 92
f 93 97 125
f 93 125 126
f 93 126 127
f 93 127 128
f 93 128 94
f 94 128 129
f 94 129 130
f 94 130 131
f 94 131 95
f 95 131 132
f 95 132 98
f 96 125 97
f 96 124 123
f 96 123 133
f 96 133 125
f 98 132 134
f 98 134 99
f 99 134 131
f 99 131 104
f 101 102 135
f 101 135 136
f 101 136 137
f 101 137 138
f 101 138 103
f 102 107 139
f 102 139 140
f 102 140 135
f 103 141 142
f 103 138 141
f 104 131 139
f 104 139 105
f 105 139 107
f 105 107 106
f 109 111 143
f 109 143 144
f 110 143 111
f 110 145 146
f 110 146 147
f 110 147 143
f 112 148 113
f 113 148 115
f 114 116 149
f 114 149 150
f 114 150 151
f 114 151 152
f 114 152 153
f 115 148 154
f 115 154 155
f 115 155 156
f 115 156 157
f 115 157 158
f 115 158 150
f 115 150 149
f 115 149 116
f 117 153 159
f 117 159 160
f 117 160 118
f 118 160 161
f 118 161 122
f 118 122 119
f 120 122 162
f 120 162 163
f 120 163 121
f 121 164 133
f 121 133 123
f 121 163 164
f 122 161 162
f 125 133 126
f 126 133 164
f 126 164 165
f 126 165 166
f 126 166 167
f 126 167 127
f 127 168 169
f 127 169 128
f 127 167 170
f 127 170 168
f 128 169 129
f 129 169 171
f 129 171 130
f 130 172 173
f 130 173 139
f 130 139 131
f 130 171 172
f 131 134 132
f 135 140 173
f 135 173 174
f 135 174 136
f 136 173 175
f 136 175 171
f 136 171 176
f 136 176 177
f 136 177 137
f 136 174 173
f 137 178 138
f 137 177 179
f 137 179 178
f 138 178 180
f 138 180 181
f 138 181 141
f 139 173 140
f 141 182 183
f 141 183 184
f 141 184 142
f 141 181 180
f 141 180 182
f 143 147 144
f 144 147 185
f 144 185 186
f 145 187 188
f 145 188 189
f 145 189 190
f 145 190 146
f 146 185 147
f 146 190 191
f 146 191 185
f 150 158 151
f 151 158 192
f 151 192 152
f 152 192 193
f 152 193 159
f 152 159 153
f 154 194 155
f 155 194 156
f 156 194 195
f 156 195 196
f 156 196 197
f 156 197 157
f 157 198 158
f 157 197 198
f 158 199 192
f 158 198 200
f 158 200 201
f 158 201 202
f 158 202 199
f 159 193 203
f 159 203 160
f 160 203 204
f 160 204 161
f 161 204 162
f 162 204 205
f 162 205 163
f 163 205 206
f 163 206 164
f 164 206 165
f 165 206 166
f 166 207 167
f 166 206 208
f 166 208 207
f 167 209 170
f 167 207 209
f 168 170 209
f 168 209 210
f 168 210 211
f 168 211 212
f 168 212 213
f 168 213 176
f 168 176 169
f 169 176 214
f 169 214 171
f 171 175 172
f 171 214 176
f 172 175 173
f 176 215 177
f 176 213 215
f 177 216 179
f 177 215 217
f 177 217 216
f 178 179 216
f 178 216 218
f 178 218 219
f 178 219 180
f 180 220 221
f 180 221 222
f 180 222 182
f 180 219 218
f 180 218 223
f 180 223 220
f 182 222 183
f 185 191 224
f 185 224 225
f 185 225 226
f 185 226 227
f 185 227 228
f 185 228 229
f 185 229 186
f 186 229 230
f 186 230 231
f 186 231 232
f 187 233 189
f 187 189 188
f 189 233 234
f 189 234 235
f 189 235 236
f 189 236 237
f 189 237 225
f 189 225 224
f 189 224 191
f 189 191 190
f 192 199 193
f 193 199 241
f 193 241 238
f 193 238 203
f 195 232 231
f 195 231 196
f 196 239 197
f 196 231 230
f 196 230 271
f 196 271 239
f 197 239 240
f 197 240 198
f 198 240 200
f 199 202 241
f 200 240 242
f 200 242 201
f 201 242 243
f 201 243 244
f 201 244 202
f 202 244 245
f 202 245 241
f 203 238 246
f 203 246 204
f 204 246 205
f 205 246 247
f 205 247 248
f 205 248 208
f 205 208 206
f 207 208 248
f 207 248 249
f 207 249 209
f 209 249 210
f 210 249 211
f 211 249 212
f 212 250 251
f 212 251 252
f 212 252 253
f 212 253 213
f 212 249 254
f 212 254 250
f 213 253 217
f 213 217 255
f 213 255 215
f 215 255 217
f 216 217 256
f 216 256 218
f 217 257 256
f 217 253 257
f 218 258 223
f 218 256 258
f 220 223 221
f 221 259 260
f 221 260 222
f 221 223 261
f 221 261 262
f 221 262 263
f 221 263 264
f 221 264 265
f 221 265 259
f 223 258 266
f 223 266 262
f 223 262 261
f 225 267 226
f 225 237 267
f 226 267 227
f 227 268 269
f 227 269 270
f 227 270 271
f 227 271 228
f 227 267 268
f 228 271 230
f 228 230 229
f 234 272 273
f 234 273 235
f 235 273 237
f 235 237 236
f 237 273 274
f 237 274 267
f 238 241 246
f 239 243 275
f 239 275 276
f 239 276 240
f 239 271 270
f 239 270 243
f 240 276 242
f 241 245 277
f 241 277 278
f 241 278 279
f 241 279 246
f 242 276 243
f 243 280 281
f 243 281 244
f 243 276 275
f 243 270 282
f 243 282 280
f 244 281 277
f 244 277 245
f 246 279 283
f 246 283 284
f 246 284 249
f 246 249 247
f 247 249 248
f 249 284 285
f 249 285 286
f 249 286 287
f 249 287 288
f 249 288 250
f 249 250 254
f 250 288 289
f 250 289 251
f 251 289 290
f 251 290 291
f 251 291 252
f 252 291 292
f 252 292 253
f 253 292 257
f 256 257 258
f 257 292 258
f 258 292 266
f 259 293 294
f 259 294 260
f 259 265 293
f 260 294 295
f 262 296 263
f 262 266 292
f 262 292 291
f 262 291 296
f 263 296 264
f 264 296 297
f 264 297 293
f 264 293 265
f 267 274 298
f 267 298 299
f 267 299 268
f 268 300 269
f 268 299 300
f 269 301 282
f 269 282 270
f 269 300 302
f 269 302 301
f 272 303 304
f 272 304 305
f 272 305 273
f 273 305 306
f 273 306 274
f 274 306 298
f 277 281 278
f 278 281 307
f 278 307 286
f 278 286 279
f 279 286 283
f 280 308 307
f 280 307 281
f 280 282 308
f 282 301 308
f 283 286 285
f 283 285 284
f 286 307 309
f 286 309 310
f 286 310 311
f 286 311 312
f 286 312 287
f 287 312 313
f 287 313 288
f 288 313 289
f 289 313 314
f 289 314 315
f 289 315 316
f 289 316 290
f 290 316 317
f 290 317 291
f 291 317 318
f 291 318 319
f 291 319 297
f 291 297 296
f 293 320 321
f 293 295 294
f 293 297 320
f 297 319 320
f 298 322 299
f 298 306 323
f 298 323 304
f 298 304 324
f 298 324 322
f 299 322 300
f 300 322 325
f 300 325 302
f 301 326 309
f 301 309 327
f 301 327 308
f 301 302 328
f 301 328 326
f 302 329 328
f 302 325 346
f 302 346 329
f 303 330 304
f 304 323 331
f 304 331 305
f 304 330 324
f 305 331 306
f 306 331 323
f 307 308 327
f 307 327 309
f 309 326 310
f 310 326 332
f 310 332 311
f 311 332 313
f 311 313 312
f 313 332 314
f 314 333 315
f 314 332 328
f 314 328 334
f 314 334 335
f 314 335 336
f 314 336 337
f 314 337 333
f 315 333 337
f 315 337 316
f 316 337 338
f 316 338 317
f 317 338 339
f 317 339 318
f 318 340 319
f 318 339 340
f 319 340 321
f 319 321 320
f 321 340 341
f 321 341 342
f 322 324 343
f 322 343 344
f 322 344 325
f 324 330 345
f 324 345 343
f 325 344 343
f 325 343 347
f 325 347 346
f 326 328 332
f 328 329 334
f 329 346 334
f 334 346 337
f 334 337 335
f 335 337 336
f 337 346 348
f 337 348 349
f 337 349 350
f 337 350 351
f 337 351 338
f 338 351 352
f 338 352 339
f 339 352 353
f 339 353 340
f 340 353 354
f 340 354 355
f 340 355 342
f 340 342 341
f 342 355 354
f 342 354 356
f 343 345 357
f 343 357 347
f 345 358 357
f 346 347 359
f 346 359 360
f 346 360 361
f 346 361 362
f 346 362 348
f 347 357 363
f 347 363 359
f 348 362 364
f 348 364 349
f 349 364 365
f 349 365 366
f 349 366 350
f 350 366 351
f 351 366 352
f 352 367 368
f 352 368 369
f 352 369 370
f 352 370 353
f 352 366 365
f 352 365 367
f 353 370 354
f 354 370 371
f 354 371 356
f 357 358 372
f 357 372 363
f 359 363 373
f 359 373 360
f 360 373 374
f 360 374 364
f 360 364 362
f 360 362 361
f 363 375 373
f 364 374 373
f 364 373 376
f 364 376 365
f 365 376 368
f 365 368 367
f 368 376 377
f 368 377 378
f 368 378 379
f 368 379 380
f 368 380 371
f 368 371 369
f 369 371 370
f 373 375 381
f 373 381 376
f 376 381 377
f 377 380 378
f 378 380 379

