# https://github.com/mikedh/trimesh
v 0.00001778 -0.04186560 0.02626929
v 0.00001778 -0.04831258 0.02626929
v 0.00001778 -0.04155361 0.02025652
v -0.00000910 -0.04344604 0.05696755
v -0.00000910 -0.04357125 0.05816336
v -0.00000910 -0.04379497 0.05875285
v -0.00000910 -0.04402075 0.05933672
v -0.00000910 -0.04441073 0.05993744
v -0.00000910 -0.04471450 0.06010025
v -0.00000910 -0.04501007 0.06025183
v -0.00000910 -0.04559504 0.06042025
v -0.00000910 -0.04617385 0.06057746
v 0.00001778 -0.04830232 0.02603349
v -0.00000910 -0.04678140 0.06054377
v -0.00000910 -0.04737458 0.06051009
v -0.00000910 -0.04832695 0.06018446
v -0.00000910 -0.04862867 0.05994305
v -0.00000910 -0.04892424 0.05969603
v -0.00000910 -0.04936143 0.05910093
v -0.00000910 -0.04949895 0.05861811
v -0.00000910 -0.04962620 0.05816336
v -0.00000910 -0.04967957 0.05696755
v 0.00001778 -0.04804370 0.02025652
v 0.00000242 -0.04068539 0.00323437
v 0.00000242 -0.04076133 0.00481195
v -0.03095967 -0.03049049 0.05696755
v -0.03113633 -0.03049049 0.05816336
v -0.03180842 -0.03049049 0.05937603
v -0.03191595 -0.03049049 0.05949392
v -0.03288376 -0.03049049 0.06015078
v -0.03299513 -0.03049049 0.06021815
v -0.03417416 -0.03049049 0.06050447
v -0.03417800 -0.03058490 0.06052693
v -0.03537624 -0.03049049 0.06057746
v -0.03537624 -0.03058490 0.06058307
v -0.03417800 -0.03178563 0.06058868
v -0.00419908 -0.04617385 0.06058868
v -0.00060438 -0.04737458 0.06051570
v 0.00000242 -0.04869641 0.03478598
v 0.00000242 -0.04735200 0.00451440
v 0.00001778 -0.04810528 0.02160392
v -0.00000910 -0.04965288 0.05636122
v 0.00000242 -0.04884008 0.03804781
v -0.00060438 -0.04833106 0.06018446
v -0.00180261 -0.04893861 0.05971288
v -0.00060438 -0.04893245 0.05970726
v -0.00060438 -0.04936553 0.05910654
v -0.00180261 -0.04964878 0.05816336
v -0.00060438 -0.04963646 0.05816336
v -0.00060438 -0.04969188 0.05696755
v -0.00060438 -0.04958720 0.05457030
v 0.00000242 -0.04729248 0.00323437
v 0.00001778 -0.04805191 0.02040810
v -0.02880515 -0.02873763 0.00323437
v -0.02928905 -0.02904961 0.01413707
v -0.03657831 -0.03049049 0.06044272
v -0.03537624 -0.03178563 0.06047078
v -0.03178153 -0.03418299 0.06058868
v -0.03417800 -0.03298636 0.06047640
v -0.01859327 -0.04257577 0.06058307
v -0.01139617 -0.04497517 0.06058307
v -0.00659939 -0.04617385 0.06057746
v -0.00180261 -0.04737458 0.06051570
v -0.00180261 -0.04833721 0.06018446
v -0.00060438 -0.04900223 0.04137701
v -0.00060822 -0.04730685 0.00323437
v 0.00000242 -0.04731095 0.00361051
v -0.00780147 -0.04807860 0.06004973
v -0.00300469 -0.04889961 0.05965673
v -0.00300469 -0.04933885 0.05906163
v -0.00180261 -0.04937169 0.05911777
v -0.00300469 -0.04830232 0.06017323
v -0.00300469 -0.04958105 0.05816336
v -0.00180261 -0.04970420 0.05696755
v -0.02880515 -0.03751424 0.00323437
v -0.03814140 -0.03049049 0.03804781
v -0.03823357 -0.03049049 0.03966469
v -0.03909000 -0.03049049 0.05471065
v -0.03921674 -0.03049049 0.05696755
v -0.03915529 -0.03049049 0.05813529
v -0.03863683 -0.03049049 0.05928058
v -0.03771894 -0.03049049 0.06011710
v -0.03657831 -0.03058490 0.06043148
v -0.03771894 -0.03049254 0.06011710
v -0.03655527 -0.03174048 0.06016201
v -0.03537240 -0.03298021 0.06018446
v -0.03057946 -0.03538371 0.06058307
v -0.02578268 -0.03898179 0.06058307
v -0.03178153 -0.03538371 0.06046517
v -0.03416264 -0.03417478 0.06018446
v -0.01978766 -0.04257577 0.06056623
v -0.01619295 -0.04377650 0.06057746
v -0.01259825 -0.04497517 0.06057184
v -0.00780147 -0.04617385 0.06056623
v -0.00899970 -0.04617385 0.06055500
v -0.00300469 -0.04737458 0.06049324
v -0.00116509 -0.04796776 0.01797155
v -0.00180645 -0.04735611 0.00420562
v -0.00157986 -0.04731095 0.00323437
v -0.00864254 -0.04802728 0.06001042
v -0.00780147 -0.04737458 0.06033605
v -0.00780147 -0.04858147 0.05936479
v -0.00419908 -0.04927317 0.05894935
v -0.00419908 -0.04737458 0.06045956
v -0.00540116 -0.04737458 0.06042025
v -0.00659939 -0.04737458 0.06038096
v -0.00540116 -0.04932038 0.05816336
v -0.00728300 -0.04918286 0.05764125
v -0.00300469 -0.04963646 0.05696755
v -0.00601180 -0.04917465 0.05876969
v -0.00246702 -0.04918081 0.04542482
v -0.00180261 -0.04965083 0.05576611
v -0.02617441 -0.03942719 0.00323437
v -0.02880515 -0.03753066 0.00349823
v -0.03147430 -0.03743419 0.03804781
v -0.03161255 -0.03731104 0.03804781
v -0.03207341 -0.03689027 0.03804781
v -0.03256116 -0.03642845 0.03804781
v -0.03406279 -0.03498963 0.03804781
v -0.03501139 -0.03408036 0.03804781
v -0.03515349 -0.03394284 0.03804781
v -0.03528791 -0.03381148 0.03804781
v -0.03575261 -0.03335377 0.03804781
v -0.03617507 -0.03289194 0.03804781
v -0.03629796 -0.03275442 0.03804781
v -0.03689708 -0.03203809 0.03804781
v -0.03738098 -0.03143670 0.03804781
v -0.03798010 -0.03069164 0.03804781
v -0.03736946 -0.03262306 0.05457030
v -0.03740402 -0.03266412 0.05576611
v -0.03799162 -0.03167685 0.05214498
v -0.03743475 -0.03270516 0.05696755
v -0.03800314 -0.03191700 0.05816336
v -0.03841407 -0.03123350 0.05882584
v -0.03807611 -0.03082710 0.05962305
v -0.03729265 -0.03253070 0.05893251
v -0.03727729 -0.03130945 0.06002726
v -0.03614050 -0.03257586 0.06005534
v -0.03497299 -0.03377043 0.06006095
v -0.02938122 -0.03658444 0.06057184
v -0.02458444 -0.04017842 0.06054938
v -0.02218413 -0.04137709 0.06056062
v -0.03057946 -0.03658444 0.06045394
v -0.03175081 -0.03655571 0.06016762
v -0.01379648 -0.04497517 0.06056062
v -0.02098589 -0.04257577 0.06048763
v -0.01739503 -0.04377650 0.06054377
v -0.01019794 -0.04617385 0.06052131
v -0.00180261 -0.04886266 0.03804781
v -0.00253615 -0.04798008 0.01887543
v -0.00277810 -0.04724937 0.00323437
v -0.00180645 -0.04731095 0.00323437
v -0.00902659 -0.04746284 0.06020692
v -0.01019794 -0.04720627 0.06020130
v -0.01259825 -0.04692713 0.06007779
v -0.01347772 -0.04683887 0.06001604
v -0.01427655 -0.04673419 0.05993183
v -0.00944520 -0.04792261 0.05992059
v -0.00902659 -0.04833106 0.05946024
v -0.01139617 -0.04617385 0.06045394
v -0.01259825 -0.04617385 0.06036973
v -0.00540116 -0.04920748 0.05883145
v -0.00899970 -0.04891398 0.05696755
v -0.00773234 -0.04911718 0.05695632
v -0.00728300 -0.04918286 0.05734931
v -0.00773234 -0.04907407 0.05809038
v -0.00899970 -0.04886061 0.05816336
v -0.00780147 -0.04895092 0.05336887
v -0.00300469 -0.04958310 0.05576611
v -0.01019794 -0.04823869 0.05919637
v -0.00300469 -0.04931627 0.04977018
v -0.00300469 -0.04879288 0.03804781
v -0.00300469 -0.04744026 0.00779868
v -0.02558297 -0.03984386 0.00323437
v -0.02621281 -0.03945593 0.00420562
v -0.02661607 -0.03919936 0.00481195
v -0.02823675 -0.03798632 0.00420562
v -0.03130147 -0.03756966 0.03804781
v -0.02891268 -0.03778517 0.00949977
v -0.02915079 -0.03778312 0.01264371
v -0.03074076 -0.03806021 0.03897976
v -0.03123618 -0.03842351 0.05216743
v -0.03136676 -0.03852203 0.05576611
v -0.03200812 -0.03807047 0.05696755
v -0.03260724 -0.03739930 0.05457030
v -0.03253043 -0.03732541 0.05216743
v -0.03245362 -0.03725151 0.04977018
v -0.03218095 -0.03699495 0.04137701
v -0.03210414 -0.03691900 0.03897976
v -0.03518422 -0.03397363 0.03897976
v -0.03596384 -0.03357133 0.04459954
v -0.03578333 -0.03338455 0.03897976
v -0.03709678 -0.03228235 0.04497569
v -0.03690476 -0.03326345 0.05576611
v -0.03693932 -0.03330450 0.05696755
v -0.03740018 -0.03266412 0.05816336
v -0.03690476 -0.03326345 0.05816336
v -0.03693932 -0.03211198 0.05972971
v -0.03615970 -0.03376837 0.05899987
v -0.03654759 -0.03295352 0.05936479
v -0.03577181 -0.03337429 0.05979709
v -0.03254195 -0.03613904 0.06004973
v -0.02698475 -0.03898179 0.06049324
v -0.02578268 -0.04017842 0.06043148
v -0.02338237 -0.04137709 0.06046517
v -0.03049113 -0.03773591 0.06012832
v -0.02938122 -0.03778107 0.06038096
v -0.03132835 -0.03730693 0.06003849
v -0.01499856 -0.04497517 0.06050447
v -0.01978766 -0.04377650 0.06031920
v -0.01859327 -0.04377650 0.06045956
v -0.00300469 -0.04727811 0.00420562
v -0.00300469 -0.04723296 0.00323437
v -0.01384641 -0.04627032 0.06021253
v -0.01499856 -0.04599118 0.06019007
v -0.01777908 -0.04546778 0.05987007
v -0.01499856 -0.04659052 0.05977463
v -0.01499856 -0.04702770 0.05917391
v -0.01384641 -0.04715291 0.05946585
v -0.01619295 -0.04577361 0.06009463
v -0.01698026 -0.04564430 0.06001604
v -0.01619295 -0.04497517 0.06039219
v -0.00780147 -0.04905560 0.05576611
v -0.01019794 -0.04863688 0.05696755
v -0.00899970 -0.04886061 0.05576611
v -0.00843899 -0.04798213 0.03337121
v -0.01139617 -0.04809091 0.05897180
v -0.01211819 -0.04800265 0.05882584
v -0.01019794 -0.04858147 0.05816336
v -0.00832378 -0.04796365 0.03257400
v -0.00780147 -0.04820175 0.03657690
v -0.00420292 -0.04840084 0.03219223
v -0.00725996 -0.04677729 0.00344770
v -0.00694888 -0.04680192 0.00323437
v -0.00397633 -0.04712828 0.00323437
v -0.02640484 -0.04078802 0.03090097
v -0.02448843 -0.04049040 0.00323437
v -0.02464973 -0.04048219 0.00481195
v -0.02511827 -0.04074081 0.01500166
v -0.02637411 -0.04197233 0.05286359
v -0.02635875 -0.03955855 0.00793904
v -0.02643172 -0.03942104 0.00638391
v -0.02665831 -0.04067513 0.03219223
v -0.02739953 -0.04064024 0.04137701
v -0.02949260 -0.03828188 0.02626929
v -0.03000723 -0.03959961 0.05722018
v -0.02917384 -0.03986849 0.05097162
v -0.03140901 -0.03855281 0.05696755
v -0.03136676 -0.03852203 0.05816336
v -0.03196588 -0.03803353 0.05816336
v -0.03264565 -0.03743419 0.05816336
v -0.03268021 -0.03747113 0.05696755
v -0.03264565 -0.03743419 0.05576611
v -0.03328317 -0.03689643 0.05696755
v -0.03569500 -0.03451344 0.05576611
v -0.03557979 -0.03440466 0.05216743
v -0.03612130 -0.03373143 0.04977018
v -0.03634021 -0.03395105 0.05696755
v -0.03630180 -0.03391205 0.05816336
v -0.03569500 -0.03451344 0.05816336
v -0.03494994 -0.03495063 0.05897742
v -0.03536088 -0.03416862 0.05939286
v -0.03455437 -0.03456886 0.05978024
v -0.03334462 -0.03575317 0.05975778
v -0.03212718 -0.03693748 0.05974094
v -0.02695019 -0.04017226 0.06017885
v -0.02578268 -0.04109590 0.06013394
v -0.02463053 -0.04145098 0.06022938
v -0.02228398 -0.04268456 0.06024622
v -0.03003411 -0.03842145 0.05999358
v -0.03083293 -0.03810536 0.05965673
v -0.02087836 -0.04376008 0.06013955
v -0.02040982 -0.04438610 0.05997673
v -0.01859327 -0.04469603 0.06015078
v -0.01586267 -0.04687787 0.05894373
v -0.01379648 -0.04775635 0.05696755
v -0.01019794 -0.04858352 0.05576611
v -0.01294389 -0.04791234 0.05816336
v -0.00851964 -0.04800060 0.03417965
v -0.00844667 -0.04677729 0.00697340
v -0.00834682 -0.04676293 0.00617057
v -0.01499856 -0.04736432 0.05816336
v -0.01379648 -0.04770093 0.05816336
v -0.00820856 -0.04674650 0.00540705
v -0.00749423 -0.04673830 0.00323437
v -0.02645092 -0.04082496 0.03219223
v -0.02771061 -0.04087217 0.04977018
v -0.02649317 -0.04204622 0.05576611
v -0.02704620 -0.04160493 0.05457030
v -0.02098206 -0.04241567 0.00323437
v -0.02469582 -0.04225147 0.04014751
v -0.02589789 -0.04225763 0.05330149
v -0.02578268 -0.04250393 0.05696755
v -0.03000723 -0.03959961 0.05768616
v -0.02797944 -0.04106716 0.05696755
v -0.02991889 -0.03953393 0.05848337
v -0.03126307 -0.03844198 0.05885952
v -0.03251891 -0.03731514 0.05893812
v -0.03573341 -0.03454834 0.05696755
v -0.03169320 -0.03771128 0.05929742
v -0.02652773 -0.04087628 0.06002726
v -0.02426184 -0.04211395 0.06005534
v -0.02338237 -0.04236436 0.06015639
v -0.03049113 -0.03865544 0.05930304
v -0.02777206 -0.04091733 0.05896619
v -0.02732656 -0.04056840 0.05976902
v -0.02194602 -0.04334752 0.06007218
v -0.02274868 -0.04315663 0.05994867
v -0.02175399 -0.04446820 0.05891566
v -0.02087836 -0.04460777 0.05933672
v -0.01929224 -0.04561146 0.05883145
v -0.01859327 -0.04574692 0.05904479
v -0.01666149 -0.04672393 0.05839916
v -0.01379648 -0.04753878 0.05216743
v -0.01196841 -0.04796776 0.05172953
v -0.01499856 -0.04741768 0.05696755
v -0.01438024 -0.04677114 0.03846887
v -0.00962570 -0.04798008 0.03945696
v -0.00900354 -0.04657615 0.00540705
v -0.00900354 -0.04647557 0.00323437
v -0.00881536 -0.04651457 0.00323437
v -0.01623520 -0.04693534 0.05806792
v -0.01680359 -0.04677935 0.05759633
v -0.00776690 -0.04670340 0.00323437
v -0.02713837 -0.04166855 0.05696755
v -0.02653926 -0.04207701 0.05696755
v -0.01989519 -0.04295959 0.00323437
v -0.02034453 -0.04315663 0.01111104
v -0.02039062 -0.04317511 0.01190825
v -0.02157349 -0.04436763 0.04812523
v -0.02265651 -0.04326337 0.03804781
v -0.02397380 -0.04317100 0.05049441
v -0.02481487 -0.04297601 0.05576611
v -0.02197674 -0.04459135 0.05696755
v -0.02192298 -0.04456056 0.05816336
v -0.02578268 -0.04244236 0.05816336
v -0.02649317 -0.04204622 0.05816336
v -0.02709229 -0.04163571 0.05816336
v -0.02793336 -0.04103637 0.05816336
v -0.02640868 -0.04199285 0.05879215
v -0.02686954 -0.04129705 0.05928058
v -0.02578268 -0.04169524 0.05963989
v -0.02506450 -0.04190049 0.05990375
v -0.02578268 -0.04216732 0.05903918
v -0.02338237 -0.04342346 0.05912339
v -0.02408518 -0.04323053 0.05885952
v -0.02098589 -0.04502444 0.05816336
v -0.02003729 -0.04543905 0.05816336
v -0.01944586 -0.04567303 0.05816336
v -0.01379648 -0.04743000 0.04977018
v -0.01313208 -0.04555604 0.00518809
v -0.01020178 -0.04759831 0.03417965
v -0.01680359 -0.04677935 0.05747282
v -0.01629281 -0.04695792 0.05702930
v -0.01610462 -0.04697229 0.05576611
v -0.01499856 -0.04736432 0.05576611
v -0.01443401 -0.04558067 0.01295249
v -0.01437256 -0.04556220 0.01215527
v -0.01378496 -0.04559093 0.00949977
v -0.01215275 -0.04570588 0.00323437
v -0.02011026 -0.04546778 0.05696755
v -0.01930376 -0.04322026 0.00323437
v -0.02033301 -0.04435531 0.03537547
v -0.02041750 -0.04439021 0.03686322
v -0.02098589 -0.04508396 0.05696755
v -0.02192298 -0.04456056 0.05576611
v -0.02235695 -0.04414185 0.05216743
v -0.01380417 -0.04529126 0.00323437
v -0.01294773 -0.04550883 0.00323437
v -0.01951883 -0.04569972 0.05696755
v -0.01919238 -0.04557451 0.05159479
v -0.01648483 -0.04665414 0.05216743
v -0.01562072 -0.04678140 0.04779961
v -0.01451082 -0.04560940 0.01413707
v -0.01499088 -0.04490128 0.00323437
v -0.01413061 -0.04550062 0.00949977
v -0.02004113 -0.04543905 0.05576611
v -0.01915398 -0.04327979 0.00323437
v -0.01858942 -0.04350146 0.00323437
v -0.01954571 -0.04451130 0.03219223
v -0.01811320 -0.04562172 0.04377425
f 1 2 13
f 1 13 41
f 1 41 53
f 1 53 23
f 1 23 3
f 1 3 4
f 1 4 5
f 1 5 6
f 1 6 7
f 1 7 8
f 1 8 9
f 1 9 10
f 1 10 11
f 1 11 12
f 1 12 2
f 2 12 14
f 2 14 15
f 2 15 16
f 2 16 17
f 2 17 18
f 2 18 19
f 2 19 20
f 2 20 21
f 2 21 22
f 2 22 13
f 3 23 52
f 3 52 24
f 3 24 25
f 3 25 26
f 3 26 4
f 4 26 27
f 4 27 5
f 5 27 28
f 5 28 6
f 6 28 7
f 7 28 29
f 7 29 30
f 7 30 8
f 8 30 31
f 8 31 32
f 8 32 9
f 9 32 10
f 10 32 11
f 11 32 12
f 12 32 33
f 12 33 34
f 12 34 35
f 12 35 36
f 12 36 37
f 12 37 38
f 12 38 14
f 13 39 40
f 13 40 41
f 13 22 42
f 13 42 43
f 13 43 39
f 14 38 15
f 15 38 16
f 16 38 44
f 16 44 45
f 16 45 46
f 16 46 17
f 17 46 18
f 18 46 19
f 19 46 47
f 19 47 48
f 19 48 49
f 19 49 20
f 20 49 21
f 21 49 50
f 21 50 22
f 22 50 51
f 22 51 42
f 23 53 52
f 24 52 66
f 24 66 99
f 24 99 152
f 24 152 151
f 24 151 213
f 24 213 235
f 24 235 234
f 24 234 285
f 24 285 324
f 24 324 321
f 24 321 320
f 24 320 360
f 24 360 369
f 24 369 368
f 24 368 375
f 24 375 379
f 24 379 378
f 24 378 362
f 24 362 327
f 24 327 290
f 24 290 237
f 24 237 174
f 24 174 113
f 24 113 75
f 24 75 54
f 24 54 55
f 24 55 25
f 25 55 26
f 26 55 27
f 27 55 28
f 28 55 29
f 29 55 30
f 30 55 31
f 31 55 32
f 32 34 33
f 32 55 34
f 34 55 56
f 34 56 35
f 35 56 57
f 35 57 59
f 35 59 36
f 36 58 37
f 36 59 58
f 37 58 60
f 37 60 61
f 37 61 62
f 37 62 63
f 37 63 38
f 38 63 64
f 38 64 44
f 39 65 40
f 39 43 42
f 39 42 51
f 39 51 65
f 40 66 67
f 40 67 53
f 40 53 41
f 40 65 66
f 44 64 45
f 45 68 69
f 45 69 70
f 45 70 71
f 45 71 46
f 45 64 72
f 45 72 68
f 46 71 47
f 47 71 48
f 48 73 109
f 48 109 74
f 48 74 50
f 48 50 49
f 48 71 70
f 48 70 73
f 50 74 51
f 51 74 65
f 52 53 67
f 52 67 66
f 54 75 76
f 54 76 77
f 54 77 78
f 54 78 79
f 54 79 80
f 54 80 81
f 54 81 82
f 54 82 55
f 55 82 56
f 56 83 57
f 56 82 84
f 56 84 83
f 57 83 85
f 57 85 86
f 57 86 59
f 58 87 88
f 58 88 60
f 58 59 89
f 58 89 87
f 59 86 90
f 59 90 89
f 60 88 91
f 60 91 92
f 60 92 61
f 61 92 93
f 61 93 94
f 61 94 62
f 62 94 63
f 63 95 96
f 63 96 64
f 63 94 95
f 64 96 72
f 65 97 66
f 65 74 97
f 66 97 98
f 66 98 99
f 68 100 69
f 68 72 101
f 68 101 100
f 69 100 70
f 70 100 102
f 70 102 103
f 70 103 73
f 72 96 104
f 72 104 105
f 72 105 106
f 72 106 101
f 73 107 108
f 73 108 109
f 73 103 110
f 73 110 107
f 74 109 111
f 74 111 112
f 74 112 97
f 75 113 114
f 75 114 115
f 75 115 116
f 75 116 117
f 75 117 118
f 75 118 119
f 75 119 120
f 75 120 121
f 75 121 122
f 75 122 123
f 75 123 124
f 75 124 125
f 75 125 126
f 75 126 127
f 75 127 128
f 75 128 76
f 76 128 77
f 77 128 78
f 78 129 130
f 78 130 79
f 78 128 131
f 78 131 129
f 79 130 132
f 79 132 80
f 80 132 133
f 80 133 134
f 80 134 81
f 81 135 84
f 81 84 82
f 81 134 136
f 81 136 135
f 83 84 85
f 84 135 137
f 84 137 85
f 85 137 138
f 85 138 86
f 86 138 139
f 86 139 90
f 87 140 88
f 87 89 140
f 88 140 141
f 88 141 142
f 88 142 91
f 89 90 143
f 89 143 140
f 90 139 144
f 90 144 143
f 91 145 92
f 91 142 146
f 91 146 147
f 91 147 145
f 92 145 93
f 93 145 95
f 93 95 94
f 95 148 96
f 95 145 148
f 96 148 104
f 97 149 98
f 97 112 149
f 98 150 151
f 98 151 152
f 98 152 99
f 98 149 111
f 98 111 150
f 100 101 153
f 100 153 154
f 100 154 155
f 100 155 156
f 100 156 157
f 100 157 158
f 100 158 159
f 100 159 102
f 101 106 148
f 101 148 160
f 101 160 161
f 101 161 153
f 102 159 110
f 102 110 162
f 102 162 103
f 103 162 110
f 104 148 105
f 105 148 106
f 107 110 108
f 108 163 164
f 108 164 165
f 108 165 109
f 108 110 166
f 108 166 167
f 108 167 163
f 109 165 164
f 109 164 168
f 109 168 169
f 109 169 111
f 110 167 166
f 110 159 170
f 110 170 167
f 111 171 172
f 111 172 173
f 111 173 150
f 111 149 112
f 111 169 171
f 113 174 175
f 113 175 176
f 113 176 177
f 113 177 114
f 114 178 115
f 114 177 179
f 114 179 180
f 114 180 181
f 114 181 178
f 115 178 182
f 115 182 183
f 115 183 184
f 115 184 185
f 115 185 116
f 116 185 186
f 116 186 187
f 116 187 188
f 116 188 189
f 116 189 117
f 117 189 118
f 118 189 188
f 118 188 187
f 118 187 186
f 118 186 190
f 118 190 119
f 119 190 120
f 120 190 121
f 121 190 122
f 122 190 191
f 122 191 192
f 122 192 123
f 123 192 124
f 124 192 191
f 124 191 125
f 125 193 126
f 125 191 194
f 125 194 193
f 126 193 127
f 127 193 128
f 128 193 131
f 129 194 130
f 129 131 193
f 129 193 194
f 130 194 195
f 130 195 132
f 132 195 197
f 132 197 196
f 132 196 133
f 133 196 134
f 134 196 197
f 134 197 136
f 135 136 198
f 135 198 137
f 136 197 199
f 136 199 200
f 136 200 198
f 137 198 201
f 137 201 138
f 138 201 139
f 139 201 202
f 139 202 144
f 140 203 141
f 140 143 203
f 141 203 204
f 141 204 205
f 141 205 146
f 141 146 142
f 143 144 206
f 143 206 207
f 143 207 204
f 143 204 203
f 144 202 208
f 144 208 206
f 145 147 209
f 145 209 148
f 146 205 210
f 146 210 211
f 146 211 147
f 147 211 209
f 148 209 160
f 150 173 212
f 150 212 151
f 151 212 213
f 153 161 154
f 154 161 214
f 154 214 155
f 155 214 156
f 156 214 215
f 156 215 157
f 157 216 217
f 157 217 218
f 157 218 219
f 157 219 170
f 157 170 158
f 157 215 220
f 157 220 221
f 157 221 216
f 158 170 159
f 160 209 161
f 161 209 222
f 161 222 215
f 161 215 214
f 163 223 164
f 163 167 224
f 163 224 277
f 163 277 225
f 163 225 226
f 163 226 223
f 164 223 168
f 167 170 227
f 167 227 228
f 167 228 229
f 167 229 224
f 168 223 226
f 168 226 230
f 168 230 231
f 168 231 232
f 168 232 171
f 168 171 169
f 170 219 227
f 171 232 172
f 172 232 173
f 173 232 231
f 173 231 233
f 173 233 234
f 173 234 235
f 173 235 212
f 174 236 175
f 174 237 238
f 174 238 239
f 174 239 240
f 174 240 236
f 175 236 241
f 175 241 242
f 175 242 176
f 176 242 177
f 177 242 179
f 178 181 182
f 179 242 243
f 179 243 244
f 179 244 245
f 179 245 180
f 180 245 182
f 180 182 181
f 182 246 183
f 182 245 247
f 182 247 246
f 183 248 184
f 183 246 248
f 184 248 249
f 184 249 250
f 184 250 251
f 184 251 252
f 184 252 253
f 184 253 185
f 185 253 254
f 185 254 255
f 185 255 256
f 185 256 186
f 186 256 190
f 190 256 191
f 191 257 195
f 191 195 194
f 191 256 255
f 191 255 257
f 195 258 197
f 195 257 258
f 197 259 199
f 197 258 259
f 198 200 201
f 199 259 260
f 199 260 261
f 199 261 262
f 199 262 201
f 199 201 200
f 201 262 263
f 201 263 202
f 202 263 264
f 202 264 265
f 202 265 208
f 204 207 266
f 204 266 267
f 204 267 268
f 204 268 269
f 204 269 205
f 205 269 210
f 206 208 270
f 206 270 266
f 206 266 207
f 208 265 271
f 208 271 270
f 209 211 222
f 210 215 222
f 210 222 211
f 210 269 272
f 210 272 273
f 210 273 274
f 210 274 215
f 212 235 213
f 215 274 220
f 216 221 273
f 216 273 275
f 216 275 217
f 217 275 218
f 218 275 228
f 218 228 219
f 219 228 227
f 220 274 273
f 220 273 221
f 224 276 277
f 224 229 278
f 224 278 276
f 225 277 279
f 225 279 226
f 226 279 280
f 226 280 281
f 226 281 230
f 228 275 282
f 228 282 283
f 228 283 278
f 228 278 229
f 230 281 284
f 230 284 285
f 230 285 233
f 230 233 231
f 233 285 234
f 236 286 287
f 236 287 244
f 236 244 243
f 236 243 242
f 236 242 241
f 236 240 288
f 236 288 289
f 236 289 286
f 237 290 238
f 238 290 291
f 238 291 292
f 238 292 240
f 238 240 239
f 240 292 293
f 240 293 288
f 244 287 247
f 244 247 245
f 246 294 248
f 246 247 287
f 246 287 295
f 246 295 294
f 248 294 249
f 249 294 296
f 249 296 297
f 249 297 250
f 250 297 298
f 250 298 251
f 251 298 260
f 251 260 254
f 251 254 252
f 252 254 253
f 254 260 299
f 254 299 255
f 255 299 257
f 257 299 258
f 258 299 260
f 258 260 259
f 260 298 261
f 261 298 262
f 262 265 264
f 262 264 263
f 262 298 265
f 265 298 300
f 265 300 271
f 266 270 301
f 266 301 267
f 267 301 302
f 267 302 303
f 267 303 268
f 268 303 269
f 269 303 272
f 270 271 304
f 270 304 305
f 270 305 306
f 270 306 301
f 271 300 297
f 271 297 304
f 272 303 307
f 272 307 273
f 273 308 309
f 273 309 310
f 273 310 311
f 273 311 312
f 273 312 275
f 273 307 302
f 273 302 308
f 275 311 313
f 275 313 282
f 275 312 311
f 276 314 315
f 276 315 277
f 276 278 283
f 276 283 282
f 276 282 316
f 276 316 317
f 276 317 314
f 277 315 318
f 277 318 279
f 279 318 319
f 279 319 280
f 280 319 320
f 280 320 281
f 281 320 321
f 281 321 284
f 282 313 322
f 282 322 323
f 282 323 316
f 284 321 324
f 284 324 285
f 286 289 325
f 286 325 287
f 287 325 295
f 288 293 326
f 288 326 325
f 288 325 289
f 290 327 328
f 290 328 329
f 290 329 330
f 290 330 331
f 290 331 291
f 291 331 330
f 291 330 332
f 291 332 292
f 292 333 293
f 292 332 333
f 293 334 335
f 293 335 336
f 293 336 337
f 293 337 326
f 293 333 334
f 294 338 339
f 294 339 296
f 294 295 325
f 294 325 338
f 296 340 297
f 296 339 340
f 297 340 305
f 297 305 304
f 297 300 298
f 301 306 341
f 301 341 342
f 301 342 343
f 301 343 308
f 301 308 302
f 302 307 303
f 305 340 341
f 305 341 306
f 308 343 344
f 308 344 345
f 308 345 309
f 309 346 335
f 309 335 347
f 309 347 311
f 309 311 310
f 309 345 346
f 311 347 348
f 311 348 349
f 311 349 313
f 313 349 323
f 313 323 322
f 314 317 350
f 314 350 315
f 315 350 317
f 315 317 351
f 315 351 352
f 315 352 318
f 316 323 353
f 316 353 354
f 316 354 355
f 316 355 356
f 316 356 317
f 317 357 358
f 317 358 359
f 317 359 351
f 317 356 357
f 318 352 319
f 319 352 351
f 319 351 360
f 319 360 320
f 323 361 353
f 323 349 348
f 323 348 361
f 325 326 337
f 325 337 338
f 327 362 328
f 328 362 363
f 328 363 329
f 329 363 364
f 329 364 330
f 330 364 365
f 330 365 366
f 330 366 367
f 330 367 333
f 330 333 332
f 333 367 366
f 333 366 334
f 334 365 335
f 334 366 365
f 335 346 340
f 335 340 336
f 335 365 347
f 336 340 337
f 337 340 338
f 338 340 339
f 340 346 344
f 340 344 342
f 340 342 341
f 342 344 343
f 344 346 345
f 347 365 361
f 347 361 348
f 351 359 368
f 351 368 369
f 351 369 360
f 353 361 370
f 353 370 354
f 354 370 355
f 355 370 371
f 355 371 372
f 355 372 373
f 355 373 356
f 356 373 374
f 356 374 357
f 357 374 375
f 357 375 358
f 358 375 368
f 358 368 376
f 358 376 359
f 359 376 368
f 361 365 364
f 361 364 363
f 361 363 377
f 361 377 370
f 362 378 363
f 363 378 379
f 363 379 380
f 363 380 371
f 363 371 377
f 370 377 371
f 371 380 381
f 371 381 372
f 372 381 374
f 372 374 373
f 374 381 379
f 374 379 375
f 379 381 380

