# https://github.com/mikedh/trimesh
v 0.02929410 0.03808791 0.02024897
v 0.02929410 0.02947755 0.02024897
v 0.02929410 0.03806271 0.01978278
v 0.02682121 0.03989863 0.02024897
v 0.00001237 0.04155811 0.02024897
v 0.02929410 0.02904483 0.01412277
v 0.02929410 0.03775812 0.01422149
v 0.02913919 0.03778543 0.01262001
v 0.02659170 0.03973059 0.01412277
v 0.02518313 0.03957724 -0.00725036
v 0.02594623 0.04049730 0.02024897
v 0.02857117 0.03734430 -0.00306020
v 0.00001237 0.04804896 0.02024897
v -0.00000197 0.04124302 0.01412277
v 0.00000377 0.03806271 -0.03578078
v 0.02726300 0.02661233 -0.03578078
v 0.02929410 0.03775182 0.01412277
v 0.02789700 0.02723201 -0.03010432
v 0.02789700 0.03634651 -0.03010432
v 0.02554173 0.03863827 -0.01978247
v 0.02507985 0.04071997 0.01412277
v 0.02519747 0.04078088 0.01663468
v 0.02527780 0.04083340 0.01858716
v 0.02534952 0.04087331 0.02024897
v 0.02519747 0.03838620 -0.02893611
v 0.02515157 0.03835469 -0.03010432
v 0.02492207 0.03819925 -0.03578078
v 0.02431962 0.03858786 -0.03578078
v 0.02338727 0.03912981 -0.03578078
v 0.02717120 0.03688217 -0.03010432
v 0.00014721 0.04805316 0.02024897
v 0.00001237 0.04803846 0.02000765
v -0.00000197 0.04777588 0.01412277
v -0.00001345 0.04051831 0.00004403
v 0.00000377 0.04556605 -0.03578078
v -0.00001345 0.04049941 -0.00029052
v -0.00001345 0.04027044 -0.00475491
v -0.00001345 0.04010449 -0.00799077
v 0.02726300 0.03649776 -0.03578078
v 0.02424790 0.04148879 0.02024897
v 0.02504543 0.04104556 0.02024897
v 0.02583148 0.03754596 -0.03578078
v 0.02520034 0.03799969 -0.03578078
v 0.02050126 0.04071156 -0.03578078
v 0.02062462 0.04090692 -0.03058147
v 0.00060621 0.04806367 0.02024897
v 0.00000377 0.04664997 -0.01132535
v 0.00001237 0.04779689 0.01455056
v -0.00001345 0.04714991 0.00004403
v -0.00001345 0.04679280 -0.00799077
v -0.00001345 0.04679700 -0.00789754
v 0.00090457 0.04558496 -0.03578078
v 0.02049840 0.04323439 0.01412277
v 0.02137625 0.04306214 0.02024897
v 0.02026316 0.04083970 -0.03578078
v 0.02038651 0.04197613 -0.01198898
v 0.00180250 0.04806997 0.02024897
v 0.00116276 0.04797334 0.01795644
v 0.00149267 0.04558496 -0.03578078
v 0.01978407 0.04383516 0.02024897
v 0.02038651 0.04356208 0.02024897
v 0.02077954 0.04338353 0.02024897
v 0.01985579 0.04105396 -0.03578078
v 0.01978981 0.04116739 -0.03417930
v 0.01918449 0.04197613 -0.02397812
v 0.00128898 0.04797334 0.01795644
v 0.00236765 0.04804266 0.02024897
v 0.00253404 0.04798385 0.01886687
v 0.00208651 0.04796914 0.01806613
v 0.00180250 0.04570259 -0.03297820
v 0.00174799 0.04559546 -0.03540784
v 0.00206643 0.04557025 -0.03578078
v 0.01877999 0.04421747 0.01978278
v 0.01880581 0.04422587 0.02024897
v 0.01897507 0.04146568 -0.03578078
v 0.01892917 0.04187530 -0.02817925
v 0.01803698 0.04199713 -0.03297820
v 0.01821484 0.04206435 -0.03010432
v 0.01858778 0.04164213 -0.03578078
v 0.00284674 0.04801325 0.02024897
v 0.00272051 0.04800485 0.01978278
v 0.00300452 0.04776328 0.01498384
v 0.00250535 0.04558706 -0.03502940
v 0.00244511 0.04677390 -0.00847341
v 0.00221560 0.04556185 -0.03578078
v 0.01546941 0.04552404 0.02024897
v 0.01843861 0.04437081 0.02024897
v 0.01448828 0.04560386 0.01378273
v 0.01881155 0.04182908 -0.03010432
v 0.01812304 0.04182698 -0.03578078
v 0.01786772 0.04192781 -0.03578078
v 0.01452845 0.04322808 -0.03578078
v 0.01511081 0.04327220 -0.03010432
v 0.00540283 0.04773177 0.02024897
v 0.00659911 0.04733056 0.01412277
v 0.00386516 0.04763094 0.01412277
v 0.00334017 0.04546312 -0.03578078
v 0.00296149 0.04550304 -0.03578078
v 0.01483827 0.04574040 0.01978278
v 0.01486409 0.04575091 0.02024897
v 0.01442517 0.04438762 -0.01225224
v 0.01437927 0.04556395 0.01213189
v 0.01379404 0.04608070 0.02024897
v 0.01444238 0.04588324 0.02024897
v 0.01402067 0.04340033 -0.03578078
v 0.01437066 0.04436871 -0.01305297
v 0.00659911 0.04759944 0.02024897
v 0.00780113 0.04746500 0.02024897
v 0.00716713 0.04557025 -0.02390682
v 0.00659911 0.04544422 -0.02817925
v 0.00647002 0.04621304 -0.01125954
v 0.00659911 0.04510392 -0.03578078
v 0.01379404 0.04347596 -0.03578078
v 0.01379404 0.04349486 -0.03538041
v 0.01313708 0.04436031 -0.02098358
v 0.01026256 0.04694405 0.02024897
v 0.01259488 0.04400110 -0.03178258
v 0.00843801 0.04558496 -0.01937661
v 0.01021092 0.04625295 0.00479910
v 0.00900029 0.04725074 0.02024897
v 0.00844948 0.04677810 0.00696000
v 0.00834620 0.04675709 0.00615378
v 0.00811383 0.04679911 0.00636767
v 0.00780113 0.04495898 -0.03538041
v 0.00780113 0.04494007 -0.03578078
v 0.01259488 0.04381835 -0.03578078
v 0.01030272 0.04450525 -0.03302207
v 0.00853554 0.04680331 0.00793076
v 0.00899742 0.04471531 -0.03538041
v 0.00819703 0.04486025 -0.03578078
v 0.00995560 0.04446324 -0.03578078
v 0.00899742 0.04469640 -0.03578078
f 1 2 6
f 1 6 17
f 1 17 7
f 1 7 3
f 1 3 4
f 1 4 11
f 1 11 24
f 1 24 41
f 1 41 40
f 1 40 54
f 1 54 62
f 1 62 61
f 1 61 60
f 1 60 74
f 1 74 87
f 1 87 86
f 1 86 100
f 1 100 104
f 1 104 103
f 1 103 116
f 1 116 120
f 1 120 108
f 1 108 107
f 1 107 94
f 1 94 80
f 1 80 67
f 1 67 57
f 1 57 46
f 1 46 31
f 1 31 13
f 1 13 5
f 1 5 2
f 2 5 6
f 3 7 8
f 3 8 4
f 4 9 10
f 4 10 11
f 4 8 12
f 4 12 9
f 5 13 33
f 5 33 14
f 5 14 15
f 5 15 16
f 5 16 6
f 6 16 18
f 6 18 19
f 6 19 17
f 7 17 19
f 7 19 12
f 7 12 8
f 9 12 20
f 9 20 10
f 10 21 22
f 10 22 23
f 10 23 24
f 10 24 11
f 10 20 25
f 10 25 26
f 10 26 27
f 10 27 28
f 10 28 29
f 10 29 21
f 12 19 30
f 12 30 20
f 13 31 32
f 13 32 33
f 14 33 49
f 14 49 34
f 14 34 15
f 15 35 52
f 15 52 59
f 15 59 72
f 15 72 85
f 15 85 98
f 15 98 97
f 15 97 112
f 15 112 125
f 15 125 130
f 15 130 132
f 15 132 131
f 15 131 126
f 15 126 113
f 15 113 105
f 15 105 92
f 15 92 91
f 15 91 90
f 15 90 79
f 15 79 75
f 15 75 63
f 15 63 55
f 15 55 44
f 15 44 29
f 15 29 28
f 15 28 27
f 15 27 43
f 15 43 42
f 15 42 39
f 15 39 16
f 15 34 36
f 15 36 37
f 15 37 38
f 15 38 50
f 15 50 35
f 16 39 19
f 16 19 18
f 19 39 30
f 20 30 25
f 21 40 22
f 21 29 40
f 22 40 41
f 22 41 23
f 23 41 24
f 25 30 42
f 25 42 26
f 26 42 43
f 26 43 27
f 29 44 45
f 29 45 40
f 30 39 42
f 31 46 35
f 31 35 47
f 31 47 48
f 31 48 32
f 32 48 33
f 33 48 47
f 33 47 49
f 34 49 51
f 34 51 50
f 34 50 38
f 34 38 37
f 34 37 36
f 35 50 51
f 35 51 49
f 35 49 47
f 35 46 52
f 40 53 54
f 40 45 53
f 44 55 56
f 44 56 53
f 44 53 45
f 46 57 58
f 46 58 52
f 52 58 66
f 52 66 59
f 53 60 61
f 53 61 62
f 53 62 54
f 53 56 63
f 53 63 64
f 53 64 65
f 53 65 60
f 55 63 56
f 57 66 58
f 57 67 68
f 57 68 69
f 57 69 59
f 57 59 66
f 59 70 71
f 59 71 72
f 59 69 70
f 60 65 73
f 60 73 74
f 63 75 64
f 64 75 65
f 65 76 77
f 65 77 78
f 65 78 73
f 65 75 79
f 65 79 76
f 67 80 81
f 67 81 68
f 68 81 80
f 68 80 82
f 68 82 83
f 68 83 84
f 68 84 69
f 69 84 72
f 69 72 70
f 70 72 71
f 72 83 85
f 72 84 83
f 73 86 87
f 73 87 74
f 73 78 77
f 73 77 88
f 73 88 86
f 76 79 89
f 76 89 77
f 77 90 91
f 77 91 92
f 77 92 93
f 77 93 88
f 77 89 90
f 79 90 89
f 80 94 95
f 80 95 96
f 80 96 82
f 82 96 97
f 82 97 83
f 83 97 98
f 83 98 85
f 86 99 100
f 86 88 99
f 88 101 102
f 88 102 103
f 88 103 104
f 88 104 99
f 88 93 92
f 88 92 101
f 92 105 106
f 92 106 101
f 94 107 95
f 95 107 108
f 95 108 109
f 95 109 110
f 95 110 111
f 95 111 96
f 96 111 97
f 97 111 110
f 97 110 112
f 99 104 100
f 101 106 102
f 102 106 113
f 102 113 114
f 102 114 115
f 102 115 103
f 103 115 117
f 103 117 118
f 103 118 119
f 103 119 116
f 105 113 106
f 108 120 121
f 108 121 122
f 108 122 123
f 108 123 109
f 109 123 122
f 109 122 124
f 109 124 112
f 109 112 110
f 112 124 125
f 113 126 114
f 114 126 115
f 115 126 117
f 116 119 118
f 116 118 120
f 117 126 127
f 117 127 118
f 118 121 128
f 118 128 120
f 118 127 129
f 118 129 130
f 118 130 124
f 118 124 121
f 120 128 121
f 121 124 122
f 124 130 125
f 126 131 127
f 127 131 129
f 129 131 132
f 129 132 130

