# https://github.com/mikedh/trimesh
v 0.04708325 0.00000022 -0.00154110
v 0.04707744 0.00000022 -0.00167452
v 0.04700957 0.00000755 -0.00314557
v 0.04044172 0.00000022 -0.00154110
v 0.04709683 -0.00060075 -0.00154110
v 0.04693782 0.00000755 -0.00476005
v 0.04666052 -0.00060441 -0.01140144
v 0.04665276 -0.00001077 -0.01126801
v 0.04557654 -0.00001444 -0.03551859
v 0.04035639 0.00000755 -0.00314557
v 0.03815548 -0.00001444 -0.03561866
v 0.02857809 -0.02861900 -0.00154110
v 0.04709877 -0.00086092 -0.00154110
v 0.04027301 0.00000755 -0.00476005
v 0.04557073 -0.00001444 -0.03561866
v 0.04559012 -0.00079496 -0.03561866
v 0.04565023 -0.00060441 -0.03418097
v 0.04584802 -0.00038088 -0.02960438
v 0.04571616 -0.00001444 -0.03237302
v 0.04557849 -0.00028561 -0.03561866
v 0.04033312 0.00000755 -0.00359589
v 0.02729244 -0.02668418 -0.03561866
v 0.02729244 -0.02787145 -0.02960438
v 0.02857809 -0.03742829 -0.00154110
v 0.04710265 -0.00180268 -0.00154110
v 0.04559012 -0.00160480 -0.03561866
v 0.02729244 -0.03651585 -0.03561866
v 0.02729244 -0.03685664 -0.02960438
v 0.02729244 -0.03680900 -0.03047500
v 0.02729244 -0.03655249 -0.03499155
v 0.02912299 -0.03505008 -0.03561866
v 0.03072665 -0.03561073 -0.00314557
v 0.03078288 -0.03565471 -0.00154110
v 0.04585384 -0.00180268 -0.02960438
v 0.04702314 -0.00300095 -0.00154110
v 0.04701345 -0.00300095 -0.00180128
v 0.04677493 -0.00244029 -0.00848603
v 0.04558236 -0.00192727 -0.03561866
v 0.02972218 -0.03456637 -0.03561866
v 0.02993548 -0.03473860 -0.02960438
v 0.03146158 -0.03501343 -0.00300214
v 0.03093802 -0.03552645 -0.00154110
v 0.04699793 -0.00326113 -0.00154110
v 0.04558624 -0.00250625 -0.03503157
v 0.04557267 -0.00221676 -0.03561866
v 0.03030198 -0.03408633 -0.03561866
v 0.03210925 -0.03451140 -0.00154110
v 0.03150036 -0.03504641 -0.00180128
v 0.03045323 -0.03397273 -0.03537849
v 0.03119204 -0.03358430 -0.03126223
v 0.03150812 -0.03505374 -0.00154110
v 0.04662949 -0.00659942 -0.00154110
v 0.04670124 -0.00532420 -0.00314557
v 0.04551255 -0.00295331 -0.03561866
v 0.03044354 -0.03396541 -0.03561866
v 0.03197933 -0.03462867 -0.00154110
v 0.03265997 -0.03386646 -0.00300214
v 0.03269681 -0.03390311 -0.00180128
v 0.03270263 -0.03391044 -0.00154110
v 0.03104467 -0.03344505 -0.03561866
v 0.03151394 -0.03296501 -0.03561866
v 0.03174857 -0.03272316 -0.03561866
v 0.03237491 -0.03236771 -0.03098203
v 0.04660041 -0.00685960 -0.00154110
v 0.04656550 -0.00659942 -0.00300214
v 0.04603030 -0.00660309 -0.01499733
v 0.04540396 -0.00637956 -0.02960438
v 0.04511115 -0.00659942 -0.03561866
v 0.03429078 -0.03045488 -0.02960438
v 0.03493457 -0.03148092 -0.00314557
v 0.03460104 -0.03193164 -0.00154110
v 0.03317578 -0.03341940 -0.00154110
v 0.03269293 -0.03173743 -0.03561866
v 0.04558818 -0.00729933 -0.02310643
v 0.04556879 -0.00716741 -0.02390033
v 0.04648600 -0.00780136 -0.00154110
v 0.04498123 -0.00756317 -0.03561866
v 0.03341235 -0.03100088 -0.03537849
v 0.03476393 -0.02996018 -0.02960438
v 0.03505286 -0.03145893 -0.00154110
v 0.03397858 -0.03039258 -0.03561866
v 0.04641425 -0.00780136 -0.00314557
v 0.04560951 -0.00743858 -0.02218244
v 0.04501420 -0.00779769 -0.03418097
v 0.04495990 -0.00779769 -0.03537849
v 0.04625912 -0.00899963 -0.00154110
v 0.04558236 -0.00843530 -0.01938045
v 0.04494826 -0.00779769 -0.03561866
v 0.03457777 -0.02975863 -0.03561866
v 0.03498887 -0.02927493 -0.03561866
v 0.03614266 -0.03017272 -0.00314557
v 0.03560745 -0.03077735 -0.00300214
v 0.03565205 -0.03082132 -0.00154110
v 0.04556297 -0.00833636 -0.02017768
v 0.04471557 -0.00899963 -0.03537849
v 0.04590038 -0.01047273 -0.00154110
v 0.04618737 -0.00899963 -0.00314557
v 0.04581700 -0.00899963 -0.01126801
v 0.04470394 -0.00899963 -0.03561866
v 0.03508971 -0.02915400 -0.03561866
v 0.03509552 -0.02916500 -0.03537849
v 0.03617950 -0.03021669 -0.00180128
v 0.03582851 -0.02857136 -0.03058174
v 0.03678645 -0.02943983 -0.00154110
v 0.03618725 -0.03022035 -0.00154110
v 0.04447318 -0.00999635 -0.03537849
v 0.04566574 -0.01116531 -0.00300214
v 0.04552419 -0.01201179 -0.00154110
v 0.04411832 -0.01139983 -0.03561866
v 0.03520605 -0.02900376 -0.03561866
v 0.03569665 -0.02838814 -0.03537849
v 0.03688340 -0.02931158 -0.00154110
v 0.03604182 -0.02790077 -0.03561866
v 0.03732165 -0.02662188 -0.02938756
v 0.03716652 -0.02827820 -0.01020059
v 0.04389144 -0.01259443 -0.03418097
v 0.04530700 -0.01260176 -0.00314557
v 0.04538457 -0.01257978 -0.00154110
v 0.04388174 -0.01235991 -0.03561866
v 0.03568890 -0.02837714 -0.03561866
v 0.03759894 -0.02833317 -0.00154110
v 0.03677675 -0.02689671 -0.03561866
v 0.03773468 -0.02578639 -0.03298012
v 0.03925690 -0.02594396 -0.00314557
v 0.04430641 -0.01291324 -0.02337996
v 0.04439367 -0.01325770 -0.01956725
v 0.04348422 -0.01379637 -0.03561866
v 0.04382357 -0.01259443 -0.03561866
v 0.04507237 -0.01379637 -0.00154110
v 0.03929957 -0.02599893 -0.00154110
v 0.03743412 -0.02599526 -0.03561866
v 0.03754077 -0.02584869 -0.03561866
v 0.03827570 -0.02503518 -0.03298012
v 0.03836490 -0.02516344 -0.02974115
v 0.03971842 -0.02539063 -0.00180128
v 0.03957880 -0.02518542 -0.00725849
v 0.04438786 -0.01442665 -0.01225872
v 0.04327867 -0.01440833 -0.03561866
v 0.04498705 -0.01405654 -0.00154110
v 0.03972424 -0.02539796 -0.00154110
v 0.03820395 -0.02492525 -0.03561866
v 0.03973393 -0.02525871 -0.00314557
v 0.04020126 -0.02458446 -0.00154110
v 0.03851615 -0.02444521 -0.03561866
v 0.03859178 -0.02432795 -0.03561866
v 0.03955941 -0.02515244 -0.00799902
v 0.03913668 -0.02338619 -0.03561866
v 0.04467679 -0.01499830 -0.00154110
v 0.04461474 -0.01515954 -0.00154110
v 0.04326704 -0.01463186 -0.03418097
v 0.04323213 -0.01454025 -0.03561866
v 0.04061430 -0.02368667 -0.00314557
v 0.04056194 -0.02392852 -0.00154110
v 0.03985222 -0.02208531 -0.03561866
v 0.04374406 -0.01739851 -0.00154110
v 0.04259028 -0.01619657 -0.03561866
v 0.04223542 -0.02085407 -0.00180128
v 0.04198139 -0.02133777 -0.00154110
v 0.04077912 -0.02038868 -0.03561866
v 0.04081597 -0.02045831 -0.03418097
v 0.04334266 -0.01842455 -0.00154110
v 0.04327867 -0.01839890 -0.00314557
v 0.04212101 -0.01740217 -0.03561866
v 0.04223930 -0.02086506 -0.00154110
v 0.04199496 -0.02041433 -0.01126801
v 0.04270275 -0.01978405 -0.00300214
v 0.04277255 -0.01978405 -0.00154110
v 0.04100212 -0.01997094 -0.03561866
v 0.04316038 -0.01888260 -0.00154110
v 0.04310221 -0.01899986 -0.00180128
v 0.04213458 -0.01810208 -0.02960438
v 0.04240994 -0.01859311 -0.01978740
v 0.04193291 -0.01788221 -0.03561866
v 0.04116889 -0.01978405 -0.03418097
v 0.04197557 -0.01917942 -0.02398038
v 0.04310803 -0.01901086 -0.00154110
v 0.04104866 -0.01987566 -0.03561866
v 0.04193291 -0.01907315 -0.02578166
v 0.04205314 -0.01819002 -0.03058174
v 0.04184177 -0.01884229 -0.02960438
v 0.04203181 -0.01836225 -0.02960438
v 0.04166337 -0.01859311 -0.03537849
v 0.04164980 -0.01859311 -0.03561866
v 0.04113011 -0.01970343 -0.03561866
f 1 2 3
f 1 3 10
f 1 10 4
f 1 4 12
f 1 12 24
f 1 24 33
f 1 33 42
f 1 42 51
f 1 51 56
f 1 56 47
f 1 47 59
f 1 59 72
f 1 72 71
f 1 71 80
f 1 80 93
f 1 93 105
f 1 105 104
f 1 104 112
f 1 112 121
f 1 121 130
f 1 130 140
f 1 140 143
f 1 143 153
f 1 153 158
f 1 158 164
f 1 164 167
f 1 167 176
f 1 176 169
f 1 169 161
f 1 161 155
f 1 155 149
f 1 149 148
f 1 148 139
f 1 139 129
f 1 129 118
f 1 118 108
f 1 108 96
f 1 96 86
f 1 86 76
f 1 76 64
f 1 64 52
f 1 52 43
f 1 43 35
f 1 35 25
f 1 25 13
f 1 13 5
f 1 5 2
f 2 6 3
f 2 5 7
f 2 7 8
f 2 8 9
f 2 9 6
f 3 6 14
f 3 14 21
f 3 21 10
f 4 10 11
f 4 11 12
f 5 13 7
f 6 9 15
f 6 15 11
f 6 11 14
f 7 13 16
f 7 16 17
f 7 17 8
f 8 17 18
f 8 18 19
f 8 19 9
f 9 19 18
f 9 18 17
f 9 17 20
f 9 20 15
f 10 21 11
f 11 21 14
f 11 15 20
f 11 20 16
f 11 16 26
f 11 26 38
f 11 38 45
f 11 45 54
f 11 54 68
f 11 68 77
f 11 77 88
f 11 88 99
f 11 99 109
f 11 109 119
f 11 119 128
f 11 128 127
f 11 127 138
f 11 138 151
f 11 151 156
f 11 156 163
f 11 163 173
f 11 173 183
f 11 183 184
f 11 184 177
f 11 177 168
f 11 168 159
f 11 159 154
f 11 154 147
f 11 147 145
f 11 145 144
f 11 144 141
f 11 141 132
f 11 132 131
f 11 131 122
f 11 122 113
f 11 113 120
f 11 120 110
f 11 110 100
f 11 100 90
f 11 90 89
f 11 89 81
f 11 81 73
f 11 73 62
f 11 62 61
f 11 61 60
f 11 60 55
f 11 55 46
f 11 46 39
f 11 39 31
f 11 31 27
f 11 27 22
f 11 22 12
f 12 22 23
f 12 23 28
f 12 28 24
f 13 25 16
f 16 20 17
f 16 25 26
f 22 27 30
f 22 30 29
f 22 29 28
f 22 28 23
f 24 28 29
f 24 29 30
f 24 30 31
f 24 31 32
f 24 32 33
f 25 34 26
f 25 35 36
f 25 36 37
f 25 37 34
f 26 34 38
f 27 31 30
f 31 39 40
f 31 40 32
f 32 40 41
f 32 41 33
f 33 41 42
f 34 37 38
f 35 43 36
f 36 43 37
f 37 43 44
f 37 44 45
f 37 45 38
f 39 46 40
f 40 46 41
f 41 47 48
f 41 48 42
f 41 46 49
f 41 49 50
f 41 50 47
f 42 48 51
f 43 52 53
f 43 53 54
f 43 54 44
f 44 54 45
f 46 55 49
f 47 56 48
f 47 50 57
f 47 57 58
f 47 58 59
f 48 56 51
f 49 55 60
f 49 60 50
f 50 60 61
f 50 61 62
f 50 62 63
f 50 63 57
f 52 64 65
f 52 65 53
f 53 65 66
f 53 66 67
f 53 67 54
f 54 67 68
f 57 63 69
f 57 69 70
f 57 70 71
f 57 71 58
f 58 71 72
f 58 72 59
f 62 73 63
f 63 73 69
f 64 74 75
f 64 75 65
f 64 76 74
f 65 75 66
f 66 68 67
f 66 75 68
f 68 75 74
f 68 74 77
f 69 73 78
f 69 78 79
f 69 79 70
f 70 79 80
f 70 80 71
f 73 81 78
f 74 76 82
f 74 82 83
f 74 83 84
f 74 84 85
f 74 85 77
f 76 86 87
f 76 87 82
f 77 85 88
f 78 81 79
f 79 89 90
f 79 90 91
f 79 91 92
f 79 92 80
f 79 81 89
f 80 92 93
f 82 84 83
f 82 87 94
f 82 94 84
f 84 94 85
f 85 94 87
f 85 87 95
f 85 95 99
f 85 99 88
f 86 96 97
f 86 97 87
f 87 97 98
f 87 98 95
f 90 100 101
f 90 101 91
f 91 102 93
f 91 93 92
f 91 101 103
f 91 103 104
f 91 104 102
f 93 102 105
f 95 98 106
f 95 106 99
f 96 107 97
f 96 108 107
f 97 107 98
f 98 107 106
f 99 106 109
f 100 110 101
f 101 110 111
f 101 111 103
f 102 104 105
f 103 112 104
f 103 111 113
f 103 113 114
f 103 114 115
f 103 115 112
f 106 107 116
f 106 116 109
f 107 108 117
f 107 117 116
f 108 118 117
f 109 116 119
f 110 120 111
f 111 120 113
f 112 115 121
f 113 122 114
f 114 123 115
f 114 122 123
f 115 123 124
f 115 124 121
f 116 117 125
f 116 125 126
f 116 126 127
f 116 127 128
f 116 128 119
f 117 118 129
f 117 129 126
f 117 126 125
f 121 124 130
f 122 131 123
f 123 131 132
f 123 132 133
f 123 133 134
f 123 134 124
f 124 135 130
f 124 134 136
f 124 136 135
f 126 129 137
f 126 137 127
f 127 137 138
f 129 139 137
f 130 135 140
f 132 141 133
f 133 141 136
f 133 136 134
f 135 136 142
f 135 142 143
f 135 143 140
f 136 141 144
f 136 144 145
f 136 145 146
f 136 146 147
f 136 147 143
f 136 143 142
f 137 139 148
f 137 148 149
f 137 149 150
f 137 150 151
f 137 151 138
f 143 147 152
f 143 152 153
f 145 147 146
f 147 154 152
f 149 155 156
f 149 156 150
f 150 156 151
f 152 154 157
f 152 157 153
f 153 157 158
f 154 159 160
f 154 160 157
f 155 161 162
f 155 162 156
f 156 162 163
f 157 164 158
f 157 160 165
f 157 165 166
f 157 166 167
f 157 167 164
f 159 168 160
f 160 168 165
f 161 169 170
f 161 170 162
f 162 171 163
f 162 170 172
f 162 172 171
f 163 171 173
f 165 168 174
f 165 174 175
f 165 175 166
f 166 175 167
f 167 175 170
f 167 170 176
f 168 177 174
f 169 176 170
f 170 175 178
f 170 178 172
f 171 179 173
f 171 172 179
f 172 178 180
f 172 180 181
f 172 181 179
f 173 179 182
f 173 182 183
f 174 177 184
f 174 184 182
f 174 182 178
f 174 178 175
f 178 182 180
f 179 181 180
f 179 180 182
f 182 184 183

