# https://github.com/mikedh/trimesh
v 0.27420098 0.25498328 0.49491104
v 0.27398625 0.26496789 0.49491104
v 0.27200007 0.26496789 0.50223428
v 0.27205375 0.25498328 0.50233322
v 0.27420098 -0.25498328 0.49491104
v 0.27420098 0.25498328 -0.49491104
v 0.27189270 0.27189270 0.49491104
v 0.27124852 0.27124852 0.50144255
v 0.27398625 0.26496789 -0.49491104
v 0.26496789 0.26496789 0.50480729
v 0.26496789 0.25498328 0.50510418
v 0.27205375 -0.25498328 0.50233322
v 0.27200007 -0.26496789 0.50223428
v 0.27398625 -0.26496789 0.49491104
v 0.27420098 -0.25498328 -0.49491104
v 0.27205375 0.25498328 -0.50233322
v 0.27200007 0.26496789 -0.50223428
v 0.26496789 0.27398625 0.49491104
v 0.27189270 0.27189270 -0.49491104
v 0.26496789 0.27200007 0.50223428
v 0.27124852 0.27124852 -0.50144255
v 0.25498328 0.26496789 0.50510418
v 0.26496789 -0.25498328 0.50510418
v 0.25498328 0.25498328 0.50540107
v 0.27124852 -0.27124852 0.50144255
v 0.26496789 -0.26496789 0.50480729
v 0.27189270 -0.27189270 0.49491104
v 0.27398625 -0.26496789 -0.49491104
v 0.27200007 -0.26496789 -0.50223428
v 0.27205375 -0.25498328 -0.50233322
v 0.26496789 0.25498328 -0.50510418
v 0.26496789 0.26496789 -0.50480729
v 0.25498328 0.27420098 0.49491104
v 0.26496789 0.27398625 -0.49491104
v 0.25498328 0.27205375 0.50233322
v 0.26496789 0.27200007 -0.50223428
v -0.25498328 0.26496789 0.50510418
v 0.25498328 -0.25498328 0.50540107
v -0.25498328 0.25498328 0.50540107
v 0.26496789 -0.27200007 0.50223428
v 0.26496789 -0.27398625 0.49491104
v 0.25498328 -0.26496789 0.50510418
v 0.27189270 -0.27189270 -0.49491104
v 0.27124852 -0.27124852 -0.50144255
v 0.26496789 -0.26496789 -0.50480729
v 0.26496789 -0.25498328 -0.50510418
v 0.25498328 0.25498328 -0.50540107
v 0.25498328 0.26496789 -0.50510418
v -0.25498328 0.27420098 0.49491104
v 0.25498328 0.27420098 -0.49491104
v -0.25498328 0.27205375 0.50233322
v 0.25498328 0.27205375 -0.50233322
v -0.26496789 0.27200007 0.50223428
v -0.26496789 0.26496789 0.50480729
v -0.25498328 -0.25498328 0.50540107
v -0.26496789 0.25498328 0.50510418
v 0.25498328 -0.27420098 0.49491104
v 0.25498328 -0.27205375 0.50233322
v 0.26496789 -0.27398625 -0.49491104
v -0.25498328 -0.26496789 0.50510418
v 0.26496789 -0.27200007 -0.50223428
v 0.25498328 -0.26496789 -0.50510418
v 0.25498328 -0.25498328 -0.50540107
v -0.25498328 0.25498328 -0.50540107
v -0.25498328 0.26496789 -0.50510418
v -0.26496789 0.27398625 0.49491104
v -0.25498328 0.27420098 -0.49491104
v -0.25498328 0.27205375 -0.50233322
v -0.27124852 0.27124852 0.50144255
v -0.27200007 0.26496789 0.50223428
v -0.26496789 -0.25498328 0.50510418
v -0.27205375 0.25498328 0.50233322
v -0.25498328 -0.27420098 0.49491104
v 0.25498328 -0.27420098 -0.49491104
v -0.25498328 -0.27205375 0.50233322
v -0.26496789 -0.26496789 0.50480729
v -0.26496789 -0.27200007 0.50223428
v 0.25498328 -0.27205375 -0.50233322
v -0.25498328 -0.26496789 -0.50510418
v -0.25498328 -0.25498328 -0.50540107
v -0.26496789 0.25498328 -0.50510418
v -0.26496789 0.26496789 -0.50480729
v -0.26496789 0.27200007 -0.50223428
v -0.27189270 0.27189270 0.49491104
v -0.26496789 0.27398625 -0.49491104
v -0.27398625 0.26496789 0.49491104
v -0.27420098 0.25498328 0.49491104
v -0.27205375 -0.25498328 0.50233322
v -0.27200007 -0.26496789 0.50223428
v -0.26496789 -0.27398625 0.49491104
v -0.25498328 -0.27420098 -0.49491104
v -0.27124852 -0.27124852 0.50144255
v -0.25498328 -0.27205375 -0.50233322
v -0.26496789 -0.27200007 -0.50223428
v -0.26496789 -0.26496789 -0.50480729
v -0.26496789 -0.25498328 -0.50510418
v -0.27205375 0.25498328 -0.50233322
v -0.27200007 0.26496789 -0.50223428
v -0.27124852 0.27124852 -0.50144255
v -0.27189270 0.27189270 -0.49491104
v -0.27398625 0.26496789 -0.49491104
v -0.27420098 -0.25498328 0.49491104
v -0.27420098 0.25498328 -0.49491104
v -0.27398625 -0.26496789 0.49491104
v -0.27189270 -0.27189270 0.49491104
v -0.26496789 -0.27398625 -0.49491104
v -0.27124852 -0.27124852 -0.50144255
v -0.27200007 -0.26496789 -0.50223428
v -0.27205375 -0.25498328 -0.50233322
v -0.27420098 -0.25498328 -0.49491104
v -0.27398625 -0.26496789 -0.49491104
v -0.27189270 -0.27189270 -0.49491104
f 1 2 3
f 1 3 4
f 1 4 12
f 1 12 5
f 1 5 15
f 1 15 6
f 1 6 9
f 1 9 2
f 2 7 8
f 2 8 3
f 2 9 19
f 2 19 7
f 3 8 10
f 3 10 11
f 3 11 4
f 4 11 23
f 4 23 12
f 5 12 13
f 5 13 14
f 5 14 28
f 5 28 15
f 6 15 30
f 6 30 16
f 6 16 17
f 6 17 9
f 7 18 8
f 7 19 34
f 7 34 18
f 8 20 10
f 8 18 20
f 9 17 21
f 9 21 19
f 10 22 24
f 10 24 11
f 10 20 22
f 11 24 38
f 11 38 23
f 12 23 13
f 13 25 14
f 13 23 26
f 13 26 25
f 14 25 27
f 14 27 43
f 14 43 28
f 15 28 29
f 15 29 30
f 16 30 46
f 16 46 31
f 16 31 17
f 17 31 32
f 17 32 21
f 18 33 20
f 18 34 50
f 18 50 33
f 19 21 34
f 20 33 35
f 20 35 22
f 21 32 36
f 21 36 34
f 22 35 51
f 22 51 37
f 22 37 39
f 22 39 24
f 23 38 42
f 23 42 26
f 24 39 55
f 24 55 38
f 25 26 40
f 25 40 41
f 25 41 27
f 26 42 40
f 27 41 59
f 27 59 43
f 28 43 44
f 28 44 29
f 29 44 45
f 29 45 46
f 29 46 30
f 31 46 63
f 31 63 47
f 31 47 48
f 31 48 32
f 32 48 36
f 33 49 51
f 33 51 35
f 33 50 67
f 33 67 49
f 34 36 50
f 36 48 52
f 36 52 50
f 37 51 53
f 37 53 54
f 37 54 56
f 37 56 39
f 38 55 60
f 38 60 42
f 39 56 71
f 39 71 55
f 40 57 41
f 40 42 58
f 40 58 57
f 41 57 74
f 41 74 59
f 42 60 75
f 42 75 58
f 43 59 44
f 44 61 45
f 44 59 61
f 45 62 63
f 45 63 46
f 45 61 62
f 47 63 80
f 47 80 64
f 47 64 65
f 47 65 48
f 48 65 68
f 48 68 52
f 49 66 53
f 49 53 51
f 49 67 85
f 49 85 66
f 50 52 68
f 50 68 67
f 53 66 69
f 53 69 54
f 54 69 70
f 54 70 56
f 55 71 76
f 55 76 60
f 56 70 72
f 56 72 88
f 56 88 71
f 57 58 75
f 57 75 73
f 57 73 91
f 57 91 74
f 59 74 61
f 60 76 77
f 60 77 75
f 61 74 78
f 61 78 62
f 62 79 80
f 62 80 63
f 62 78 93
f 62 93 79
f 64 81 82
f 64 82 65
f 64 80 96
f 64 96 81
f 65 82 83
f 65 83 68
f 66 84 69
f 66 85 100
f 66 100 84
f 67 68 83
f 67 83 85
f 69 84 86
f 69 86 70
f 70 86 87
f 70 87 72
f 71 88 89
f 71 89 76
f 72 87 102
f 72 102 88
f 73 75 77
f 73 77 90
f 73 90 106
f 73 106 91
f 74 91 93
f 74 93 78
f 76 89 92
f 76 92 77
f 77 92 90
f 79 93 94
f 79 94 95
f 79 95 96
f 79 96 80
f 81 96 109
f 81 109 97
f 81 97 98
f 81 98 82
f 82 98 99
f 82 99 83
f 83 99 85
f 84 100 101
f 84 101 86
f 85 99 100
f 86 101 103
f 86 103 87
f 87 103 110
f 87 110 102
f 88 102 89
f 89 102 104
f 89 104 92
f 90 92 105
f 90 105 112
f 90 112 106
f 91 106 94
f 91 94 93
f 92 104 105
f 94 106 107
f 94 107 95
f 95 107 108
f 95 108 96
f 96 108 109
f 97 103 98
f 97 109 110
f 97 110 103
f 98 103 101
f 98 101 99
f 99 101 100
f 102 110 111
f 102 111 104
f 104 111 112
f 104 112 105
f 106 112 107
f 107 112 111
f 107 111 108
f 108 111 110
f 108 110 109

