# https://github.com/mikedh/trimesh
v 0.03610059 -0.03027793 -0.03852317
v 0.03605112 -0.03027793 -0.03729359
v 0.03545051 -0.03141041 -0.03794122
v 0.03545051 -0.03141041 -0.04473672
v 0.03604052 -0.03027793 -0.04542699
v 0.03503009 -0.03027793 -0.03374315
v 0.03061384 -0.03510942 -0.03374315
v 0.03034533 -0.03536182 -0.03374315
v 0.02690419 -0.03898052 -0.03794122
v 0.03418923 -0.03228887 -0.04551572
v 0.02690419 -0.03898052 -0.04473672
v 0.02785457 -0.03790212 -0.04551572
v 0.03598399 -0.03027793 -0.04551572
v 0.03048312 -0.03027793 -0.03374315
v 0.03024641 -0.03543721 -0.03374315
v 0.02926423 -0.03611571 -0.03374315
v 0.02132205 -0.04141430 -0.03374315
v 0.02110654 -0.04153558 -0.03374315
v 0.02100055 -0.04159458 -0.03374315
v 0.01679628 -0.04428730 -0.03794122
v 0.01679628 -0.04428730 -0.04473672
v 0.01797630 -0.04346621 -0.04551572
v 0.02546626 -0.03953120 -0.04551572
v 0.03033120 -0.03027793 -0.04551572
v 0.00000747 -0.04309254 -0.04551572
v 0.00000747 -0.04318596 -0.03374315
v 0.02088749 -0.04164374 -0.03374315
v 0.01977107 -0.04206822 -0.03374315
v 0.01079372 -0.04531326 -0.03374315
v 0.01055701 -0.04538045 -0.03374315
v 0.01044042 -0.04541159 -0.03374315
v 0.00570973 -0.04702100 -0.03794122
v 0.00570973 -0.04702100 -0.04473672
v 0.00705227 -0.04650474 -0.04551572
v 0.01527003 -0.04447742 -0.04551572
v 0.00000747 -0.04408572 -0.04551572
v 0.00000747 -0.04653916 -0.03374315
v 0.01031676 -0.04543290 -0.03374315
v 0.00913321 -0.04557712 -0.03374315
v 0.00026538 -0.04651294 -0.03374315
v 0.00000747 -0.04656866 -0.03410500
v 0.00000747 -0.04657030 -0.03554430
v 0.00000747 -0.04657358 -0.04013878
v 0.00001100 -0.04657522 -0.04551572
v 0.00418348 -0.04683908 -0.04551572
v 0.00000747 -0.04657194 -0.04231906
f 1 2 3
f 1 3 4
f 1 4 5
f 1 5 13
f 1 13 24
f 1 24 14
f 1 14 6
f 1 6 2
f 2 6 3
f 3 6 7
f 3 7 8
f 3 8 9
f 3 9 11
f 3 11 4
f 4 10 5
f 4 11 12
f 4 12 10
f 5 10 13
f 6 14 26
f 6 26 37
f 6 37 40
f 6 40 39
f 6 39 38
f 6 38 31
f 6 31 30
f 6 30 29
f 6 29 28
f 6 28 27
f 6 27 19
f 6 19 18
f 6 18 17
f 6 17 16
f 6 16 15
f 6 15 8
f 6 8 7
f 8 15 9
f 9 15 16
f 9 16 17
f 9 17 18
f 9 18 19
f 9 19 20
f 9 20 21
f 9 21 11
f 10 12 23
f 10 23 22
f 10 22 35
f 10 35 34
f 10 34 45
f 10 45 44
f 10 44 36
f 10 36 25
f 10 25 24
f 10 24 13
f 11 21 22
f 11 22 23
f 11 23 12
f 14 24 25
f 14 25 26
f 19 27 20
f 20 27 28
f 20 28 29
f 20 29 30
f 20 30 31
f 20 31 32
f 20 32 33
f 20 33 21
f 21 33 34
f 21 34 35
f 21 35 22
f 25 36 46
f 25 46 43
f 25 43 42
f 25 42 41
f 25 41 37
f 25 37 26
f 31 38 32
f 32 38 39
f 32 39 40
f 32 40 37
f 32 37 41
f 32 41 42
f 32 42 43
f 32 43 44
f 32 44 33
f 33 44 45
f 33 45 34
f 36 44 46
f 43 46 44

