# https://github.com/mikedh/trimesh
v 0.00000747 -0.00001213 -0.05070307
v 0.00000747 -0.04309082 -0.04549664
v 0.00000747 -0.00001213 -0.05146278
v -0.04278477 -0.00001213 -0.04549664
v 0.00000747 -0.04657526 -0.04549664
v 0.00000747 -0.01695751 -0.05483821
v -0.01646489 -0.00001213 -0.05480840
v -0.04701565 -0.00001213 -0.04549664
v 0.00000747 -0.04657526 -0.04799311
v -0.00432470 -0.04684576 -0.04549664
v 0.00000747 -0.02041445 -0.05531327
v -0.02301148 -0.00001213 -0.05530846
v -0.04620538 -0.00001213 -0.05331301
v -0.04702486 -0.00136006 -0.04549664
v 0.00000747 -0.04630476 -0.05211671
v -0.00711459 -0.04649273 -0.04549664
v -0.00575648 -0.04575917 -0.05425737
v 0.00000747 -0.02885504 -0.05530557
v -0.01684240 -0.04004652 -0.05529692
v -0.01250563 -0.01998348 -0.05531423
v -0.04212182 -0.01018578 -0.05531904
v -0.03505040 -0.00001213 -0.05531904
v -0.03226971 -0.00001213 -0.05531711
v -0.04609949 -0.00001213 -0.05427660
v -0.04599361 -0.00983734 -0.04549664
v -0.04594757 -0.00584857 -0.05211671
v 0.00000747 -0.04602050 -0.05425929
v -0.01082985 -0.04503477 -0.05211671
v -0.01540602 -0.04444792 -0.04549664
v -0.01185650 -0.04432871 -0.05471511
v -0.00067389 -0.04519065 -0.05509497
v 0.00000747 -0.04539697 -0.05491418
v 0.00000747 -0.03869859 -0.05529596
v 0.00000747 -0.04495224 -0.05510074
v -0.02211835 -0.04020699 -0.05471511
v -0.03109574 -0.03374243 -0.05471511
v -0.03757327 -0.02511844 -0.05509497
v -0.04321752 -0.01543078 -0.05471511
v -0.04565293 -0.00463818 -0.05471511
v -0.04556085 -0.00001213 -0.05471511
v -0.04208039 -0.00001213 -0.05523441
v -0.04003170 -0.00001213 -0.05530461
v -0.04482425 -0.01085057 -0.05425737
v -0.04533066 -0.01257445 -0.04549664
v -0.01653855 -0.04305414 -0.05425737
v -0.01803479 -0.04343926 -0.04549664
v 0.00000747 -0.04516315 -0.05507093
v -0.02129427 -0.04113311 -0.05211671
v -0.02635844 -0.03784582 -0.05425737
v -0.03051566 -0.03484278 -0.05211671
v -0.03449334 -0.03090903 -0.05211671
v -0.03656044 -0.02824527 -0.05426025
v -0.04092483 -0.02126263 -0.05425737
v -0.04321292 -0.01667326 -0.05211671
v -0.04230137 -0.02056116 -0.04549664
v -0.02559421 -0.03946884 -0.04549664
v -0.02790531 -0.03785957 -0.04549664
v -0.03429537 -0.03219736 -0.04549664
v -0.03615530 -0.03008377 -0.04549664
v -0.03796920 -0.02652597 -0.05211671
v -0.04100310 -0.02305987 -0.04549664
f 1 2 5
f 1 5 9
f 1 9 15
f 1 15 27
f 1 27 32
f 1 32 47
f 1 47 34
f 1 34 33
f 1 33 18
f 1 18 11
f 1 11 6
f 1 6 3
f 1 3 7
f 1 7 12
f 1 12 23
f 1 23 22
f 1 22 42
f 1 42 41
f 1 41 40
f 1 40 24
f 1 24 13
f 1 13 8
f 1 8 4
f 1 4 2
f 2 4 8
f 2 8 14
f 2 14 25
f 2 25 44
f 2 44 55
f 2 55 61
f 2 61 59
f 2 59 58
f 2 58 57
f 2 57 56
f 2 56 46
f 2 46 29
f 2 29 16
f 2 16 10
f 2 10 5
f 3 6 7
f 5 10 9
f 6 11 7
f 7 11 12
f 8 13 14
f 9 10 15
f 10 16 17
f 10 17 15
f 11 18 19
f 11 19 20
f 11 20 21
f 11 21 22
f 11 22 23
f 11 23 12
f 13 24 14
f 14 24 26
f 14 26 25
f 15 17 27
f 16 28 17
f 16 29 28
f 17 28 30
f 17 30 31
f 17 31 32
f 17 32 27
f 18 33 19
f 19 33 34
f 19 34 31
f 19 31 30
f 19 30 35
f 19 35 36
f 19 36 37
f 19 37 21
f 19 21 20
f 21 37 38
f 21 38 39
f 21 39 40
f 21 40 41
f 21 41 42
f 21 42 22
f 24 40 39
f 24 39 26
f 25 26 43
f 25 43 44
f 26 39 43
f 28 29 45
f 28 45 30
f 29 46 45
f 30 45 35
f 31 34 47
f 31 47 32
f 35 45 48
f 35 48 49
f 35 49 36
f 36 49 50
f 36 50 51
f 36 51 52
f 36 52 37
f 37 52 53
f 37 53 38
f 38 54 43
f 38 43 39
f 38 53 54
f 43 54 44
f 44 54 55
f 45 46 48
f 46 56 48
f 48 56 49
f 49 57 50
f 49 56 57
f 50 57 58
f 50 58 51
f 51 58 52
f 52 59 60
f 52 60 53
f 52 58 59
f 53 60 61
f 53 61 55
f 53 55 54
f 59 61 60

