# https://github.com/mikedh/trimesh
v 0.03420645 -0.03078398 0.01458947
v 0.03412941 -0.03078398 0.01294177
v 0.03086365 -0.02985121 -0.03374316
v 0.03347291 -0.03078398 0.05484051
v 0.03086365 -0.03485962 -0.00071063
v 0.03086365 -0.03487811 -0.00615938
v 0.03086365 -0.03487811 -0.03334213
v 0.03086365 -0.03483609 -0.03374316
v 0.03086365 -0.03019070 -0.01051839
v 0.03202593 -0.03078398 0.05529385
v 0.03280301 -0.03078398 0.05532000
v 0.03320160 -0.03078398 0.05515436
v 0.00000808 -0.04318402 -0.03374316
v -0.00001202 -0.04346973 0.00235811
v -0.00001202 -0.04361595 0.02070951
v 0.03175462 -0.03210668 0.05532000
v 0.02831133 -0.03597055 0.05484051
v 0.02690119 -0.03898064 -0.00396244
v 0.02690119 -0.03898064 -0.03113647
v 0.03061244 -0.03511173 -0.03374316
v 0.03086365 -0.03037894 0.00235811
v -0.00001202 -0.04427645 0.05529385
v -0.00001202 -0.04492352 0.05532000
v 0.00000808 -0.04653865 -0.03374316
v -0.00001202 -0.04537898 0.00235811
v 0.02314641 -0.03877056 0.05532000
v 0.01887915 -0.04169830 0.05484051
v 0.01679576 -0.04428486 -0.00396244
v 0.01679576 -0.04428486 -0.03113647
v 0.02099938 -0.04159242 -0.03374316
v 0.02110656 -0.04153359 -0.03374316
v 0.02132093 -0.04141258 -0.03374316
v 0.02926259 -0.03611677 -0.03374316
v 0.03024734 -0.03543609 -0.03374316
v 0.03034448 -0.03536046 -0.03374316
v 0.03043491 -0.03527979 -0.03374316
v 0.00248001 -0.04508822 0.05532000
v -0.00001202 -0.04568990 0.05484051
v 0.00026934 -0.04651343 -0.03374316
v 0.00571228 -0.04702100 -0.03113647
v 0.00000808 -0.04657058 -0.03334213
v -0.00001202 -0.04547982 0.00417145
v 0.01319840 -0.04318402 0.05532000
v 0.00835503 -0.04500419 0.05484051
v 0.00571228 -0.04702100 -0.00396244
v 0.01044177 -0.04541259 -0.03374316
v 0.01079681 -0.04531175 -0.03374316
v 0.01977012 -0.04206804 -0.03374316
v 0.02088550 -0.04164283 -0.03374316
v -0.00001202 -0.04569326 0.05457025
v 0.00000808 -0.04655545 -0.00071935
v 0.00913546 -0.04557562 -0.03374316
v 0.01031783 -0.04543276 -0.03374316
v 0.00000808 -0.04657058 -0.00615938
v -0.00001202 -0.04602772 0.01458947
v -0.00001202 -0.04601259 0.01412742
f 1 2 3
f 1 3 4
f 1 4 5
f 1 5 6
f 1 6 7
f 1 7 8
f 1 8 2
f 2 8 3
f 3 9 10
f 3 10 11
f 3 11 12
f 3 12 4
f 3 8 20
f 3 20 36
f 3 36 35
f 3 35 34
f 3 34 33
f 3 33 32
f 3 32 31
f 3 31 30
f 3 30 49
f 3 49 48
f 3 48 47
f 3 47 46
f 3 46 53
f 3 53 52
f 3 52 39
f 3 39 24
f 3 24 13
f 3 13 14
f 3 14 15
f 3 15 9
f 4 12 16
f 4 16 17
f 4 17 18
f 4 18 5
f 5 18 6
f 6 18 19
f 6 19 7
f 7 19 20
f 7 20 8
f 9 15 21
f 9 21 10
f 10 15 22
f 10 22 11
f 10 21 15
f 11 22 23
f 11 23 37
f 11 37 43
f 11 43 26
f 11 26 16
f 11 16 12
f 13 24 25
f 13 25 14
f 14 25 42
f 14 42 56
f 14 56 55
f 14 55 50
f 14 50 38
f 14 38 23
f 14 23 22
f 14 22 15
f 16 26 17
f 17 26 27
f 17 27 18
f 18 28 29
f 18 29 19
f 18 27 28
f 19 29 30
f 19 30 31
f 19 31 32
f 19 32 33
f 19 33 34
f 19 34 35
f 19 35 36
f 19 36 20
f 23 38 37
f 24 39 40
f 24 40 41
f 24 41 25
f 25 41 42
f 26 43 27
f 27 43 44
f 27 44 28
f 28 45 40
f 28 40 29
f 28 44 45
f 29 40 46
f 29 46 47
f 29 47 48
f 29 48 49
f 29 49 30
f 37 38 44
f 37 44 43
f 38 50 51
f 38 51 45
f 38 45 44
f 39 52 40
f 40 52 53
f 40 53 46
f 40 45 54
f 40 54 41
f 41 54 55
f 41 55 56
f 41 56 42
f 45 51 54
f 50 55 51
f 51 55 54

