# https://github.com/mikedh/trimesh
v 0.03086469 -0.03487759 -0.00615938
v 0.03545577 -0.03140480 -0.00396244
v 0.03086469 -0.03485710 -0.00071063
v 0.03050327 -0.03077990 0.00235811
v 0.03086469 -0.03487417 -0.03334213
v 0.03545577 -0.03140480 -0.03113647
v 0.04193808 -0.02200744 -0.00396244
v 0.03609938 -0.02814714 0.05484051
v 0.03347708 -0.03077990 0.05484051
v 0.03320974 -0.03077990 0.05515436
v 0.03280542 -0.03077990 0.05532000
v 0.03202648 -0.03077990 0.05529385
v 0.03070791 -0.03077990 0.02070951
v 0.04289689 -0.00001310 -0.03374316
v 0.03086469 -0.02984768 -0.03374316
v 0.03086469 -0.03483320 -0.03374316
v 0.04336227 0.00000739 0.02070951
v 0.03705984 -0.02805836 -0.03374316
v 0.03785198 -0.02716028 -0.03374316
v 0.03792954 -0.02706467 -0.03374316
v 0.04193808 -0.02200744 -0.03113647
v 0.04598952 -0.01133638 -0.00396244
v 0.04270546 -0.01624677 0.05484051
v 0.04043467 -0.02127668 0.05484051
v 0.03851704 -0.02356797 0.05532000
v 0.04489538 0.00000739 0.05532000
v 0.04427488 0.00000739 0.05529385
v 0.04628987 -0.00001310 -0.03374316
v 0.04321705 0.00000739 0.00235811
v 0.03812758 -0.02676075 -0.03374316
v 0.04598952 -0.01133638 -0.03113647
v 0.04269556 -0.01837415 -0.03374316
v 0.04325005 -0.01732242 -0.03374316
v 0.04330121 -0.01720973 -0.03374316
v 0.04736256 -0.00001310 -0.00395373
v 0.04504391 -0.00815384 0.05484051
v 0.04303717 -0.01367547 0.05532000
v 0.04505711 -0.00297368 0.05532000
v 0.04537892 0.00000739 0.05507590
v 0.04736256 -0.00001310 -0.03114519
v 0.04619581 -0.00598207 -0.03374316
v 0.04534921 0.00000739 0.00235811
v 0.04334247 -0.01709704 -0.03374316
v 0.04342168 -0.01686484 -0.03374316
v 0.04585255 -0.00762797 -0.03374316
v 0.04613805 -0.00646696 -0.03374316
v 0.04616115 -0.00634744 -0.03374316
v 0.04602583 0.00000739 0.01458947
v 0.04601923 0.00000739 0.01595820
v 0.04551919 0.00000739 0.05484051
f 1 2 3
f 1 3 4
f 1 4 5
f 1 5 6
f 1 6 2
f 2 6 21
f 2 21 7
f 2 7 8
f 2 8 9
f 2 9 3
f 3 9 10
f 3 10 11
f 3 11 12
f 3 12 13
f 3 13 4
f 4 14 15
f 4 15 16
f 4 16 5
f 4 13 17
f 4 17 14
f 5 16 6
f 6 16 18
f 6 18 19
f 6 19 20
f 6 20 21
f 7 21 31
f 7 31 22
f 7 22 23
f 7 23 24
f 7 24 8
f 8 24 25
f 8 25 11
f 8 11 10
f 8 10 9
f 11 25 37
f 11 37 38
f 11 38 26
f 11 26 12
f 12 26 27
f 12 27 13
f 13 27 17
f 14 28 41
f 14 41 47
f 14 47 46
f 14 46 45
f 14 45 44
f 14 44 43
f 14 43 34
f 14 34 33
f 14 33 32
f 14 32 30
f 14 30 20
f 14 20 19
f 14 19 18
f 14 18 16
f 14 16 15
f 14 17 29
f 14 29 42
f 14 42 28
f 17 27 26
f 17 26 39
f 17 39 50
f 17 50 49
f 17 49 48
f 17 48 42
f 17 42 29
f 20 30 21
f 21 30 32
f 21 32 33
f 21 33 34
f 21 34 31
f 22 31 40
f 22 40 35
f 22 35 36
f 22 36 23
f 23 36 37
f 23 37 24
f 24 37 25
f 26 38 39
f 28 40 41
f 28 42 40
f 31 34 43
f 31 43 44
f 31 44 45
f 31 45 46
f 31 46 47
f 31 47 40
f 35 40 48
f 35 48 49
f 35 49 50
f 35 50 36
f 36 50 39
f 36 39 38
f 36 38 37
f 40 47 41
f 40 42 48

