# https://github.com/mikedh/trimesh
v -0.04637908 -0.00000754 -0.04550733
v -0.04278352 -0.00000754 -0.04550733
v -0.04736269 -0.00000754 -0.04473751
v -0.04701223 -0.00000069 -0.04550733
v -0.04321829 -0.00000754 0.00235999
v -0.03073714 0.02981890 -0.04550733
v -0.03047759 0.03080923 0.00235999
v -0.04336376 0.00001302 0.02070748
v -0.04736435 -0.00000754 -0.03793739
v -0.04736435 0.00000616 -0.04472764
v -0.04700396 0.00148652 -0.04550733
v -0.04534752 -0.00000754 0.00235999
v -0.04427464 0.00001302 0.05529039
v -0.04489456 0.00001302 0.05532000
v -0.03073714 0.03500015 -0.04550733
v -0.03068258 0.03080923 0.02070748
v -0.03073714 0.03500015 -0.04013830
v -0.03073714 0.03498987 -0.03390074
v -0.03090741 0.03481853 -0.00074892
v -0.04736600 0.00000274 -0.03113727
v -0.04736435 -0.00000754 -0.00396639
v -0.04598729 0.01133843 -0.04472764
v -0.04598233 0.00991633 -0.04550733
v -0.04736269 -0.00000754 -0.00395652
v -0.04537563 0.00001302 0.05507326
v -0.04551780 0.00001302 0.05483639
v -0.03200509 0.03080923 0.05529039
v -0.04505822 0.00297716 0.05532000
v -0.03278371 0.03080923 0.05532000
v -0.03420375 0.03227588 -0.04550733
v -0.03545683 0.03140206 -0.04472764
v -0.03545683 0.03140206 -0.00395652
v -0.03090741 0.03483566 -0.00615743
v -0.03344992 0.03080923 0.05483639
v -0.03317881 0.03080923 0.05515222
v -0.04736600 0.00000274 -0.00395652
v -0.04598729 0.01133843 -0.00395652
v -0.04193876 0.02200933 -0.04472764
v -0.04528470 0.01269200 -0.04550733
v -0.04504335 0.00815498 0.05483639
v -0.04303644 0.01367547 0.05532000
v -0.03609990 0.02814322 0.05483639
v -0.03851678 0.02357193 0.05532000
v -0.03611147 0.03014102 -0.04550733
v -0.04193876 0.02200933 -0.00395652
v -0.04178337 0.01868881 0.05483639
v -0.04093035 0.02315387 -0.04550733
v -0.04227104 0.02062493 -0.04550733
f 1 2 5
f 1 5 12
f 1 12 24
f 1 24 21
f 1 21 9
f 1 9 3
f 1 3 4
f 1 4 11
f 1 11 23
f 1 23 39
f 1 39 48
f 1 48 47
f 1 47 44
f 1 44 30
f 1 30 15
f 1 15 6
f 1 6 2
f 2 6 7
f 2 7 8
f 2 8 5
f 3 9 10
f 3 10 11
f 3 11 4
f 5 8 13
f 5 13 14
f 5 14 12
f 6 15 7
f 7 16 8
f 7 15 17
f 7 17 18
f 7 18 19
f 7 19 16
f 8 16 13
f 9 20 10
f 9 21 36
f 9 36 20
f 10 22 23
f 10 23 11
f 10 20 22
f 12 14 25
f 12 25 26
f 12 26 24
f 13 27 14
f 13 16 27
f 14 28 25
f 14 27 29
f 14 29 43
f 14 43 41
f 14 41 28
f 15 30 31
f 15 31 32
f 15 32 17
f 16 19 27
f 17 32 33
f 17 33 18
f 18 33 19
f 19 33 32
f 19 32 34
f 19 34 35
f 19 35 29
f 19 29 27
f 20 36 37
f 20 37 22
f 21 24 26
f 21 26 36
f 22 37 45
f 22 45 38
f 22 38 39
f 22 39 23
f 25 28 26
f 26 28 40
f 26 40 36
f 28 41 40
f 29 35 42
f 29 42 43
f 30 44 31
f 31 44 38
f 31 38 45
f 31 45 32
f 32 45 42
f 32 42 34
f 34 42 35
f 36 40 37
f 37 40 46
f 37 46 45
f 38 44 47
f 38 47 48
f 38 48 39
f 40 41 46
f 41 43 46
f 42 46 43
f 42 45 46

