# https://github.com/mikedh/trimesh
v 0.00000747 -0.04318714 -0.03370293
v 0.00000395 -0.04347144 0.00235624
v 0.00000747 -0.04653651 -0.03370293
v 0.00000747 -0.04309125 -0.04549567
v -0.00001366 -0.04361612 0.02070162
v -0.00001366 -0.04427388 0.05529039
v -0.00001366 -0.04492323 0.05532000
v 0.00000395 -0.04537912 0.00235624
v -0.03072855 -0.02983509 -0.04549567
v 0.00000395 -0.04654997 -0.00069309
v 0.00000395 -0.04655501 -0.00072270
v 0.00000747 -0.04656847 -0.03409766
v 0.00000747 -0.04657352 -0.04549567
v -0.03072855 -0.03044743 0.00235624
v -0.03173560 -0.03076538 0.05529039
v -0.03261941 -0.03076538 0.05532000
v -0.00839045 -0.04436977 0.05532000
v -0.00555945 -0.04535220 0.05483645
v -0.00005239 -0.04569202 0.05483645
v -0.00001366 -0.04568865 0.05483645
v -0.03596097 -0.03044743 -0.03167990
v -0.03596449 -0.03044743 -0.00450230
v -0.03595392 -0.03044743 -0.00336743
v -0.03360884 -0.03076538 0.05483645
v -0.03348561 -0.03076538 0.05500421
v -0.03072855 -0.03499288 -0.04549567
v -0.00571086 -0.04701932 -0.00394967
v 0.00000395 -0.04656847 -0.00616019
v 0.00000747 -0.04657184 -0.03553845
v -0.00432353 -0.04684268 -0.04549567
v 0.00000747 -0.04657352 -0.04013713
v -0.00571086 -0.04702100 -0.04473580
v -0.03229194 -0.03244427 0.05483645
v -0.02803840 -0.03539830 0.05532000
v -0.01875316 -0.04107423 0.05532000
v -0.01352427 -0.04373219 0.05483645
v -0.03545392 -0.03141305 -0.03113714
v -0.03545392 -0.03141305 -0.00394967
v -0.02790460 -0.03786281 -0.04549567
v -0.02690460 -0.03897814 -0.04473580
v -0.01680597 -0.04428565 -0.00394967
v -0.00571086 -0.04702100 -0.03793647
v -0.00711579 -0.04649277 -0.04549567
v -0.01679540 -0.04428734 -0.04473580
v -0.01540456 -0.04444883 -0.04549567
v -0.01680597 -0.04428565 -0.03113714
v -0.02598910 -0.03758019 0.05483645
v -0.02689755 -0.03897814 -0.00394967
v -0.02127077 -0.04043497 0.05483645
v -0.02690460 -0.03897814 -0.03793647
v -0.02559121 -0.03947104 -0.04549567
v -0.01802780 -0.04343948 -0.04549567
f 1 2 8
f 1 8 3
f 1 3 12
f 1 12 29
f 1 29 31
f 1 31 13
f 1 13 4
f 1 4 2
f 2 5 6
f 2 6 7
f 2 7 8
f 2 4 9
f 2 9 5
f 3 8 10
f 3 10 11
f 3 11 12
f 4 13 30
f 4 30 43
f 4 43 45
f 4 45 52
f 4 52 51
f 4 51 39
f 4 39 26
f 4 26 9
f 5 9 14
f 5 14 15
f 5 15 6
f 6 15 16
f 6 16 7
f 7 17 18
f 7 18 19
f 7 19 20
f 7 20 8
f 7 16 34
f 7 34 35
f 7 35 17
f 8 20 10
f 9 21 22
f 9 22 23
f 9 23 24
f 9 24 25
f 9 25 16
f 9 16 15
f 9 15 14
f 9 26 21
f 10 20 11
f 11 20 19
f 11 19 27
f 11 27 28
f 11 28 12
f 12 28 29
f 13 31 42
f 13 42 32
f 13 32 30
f 16 25 33
f 16 33 34
f 17 35 36
f 17 36 18
f 18 36 27
f 18 27 19
f 21 37 22
f 21 26 37
f 22 37 38
f 22 38 23
f 23 38 24
f 24 38 33
f 24 33 25
f 26 39 40
f 26 40 37
f 27 36 41
f 27 41 42
f 27 42 31
f 27 31 28
f 28 31 29
f 30 32 43
f 32 44 45
f 32 45 43
f 32 42 41
f 32 41 46
f 32 46 44
f 33 47 34
f 33 38 48
f 33 48 47
f 34 47 35
f 35 47 49
f 35 49 36
f 36 49 41
f 37 40 50
f 37 50 38
f 38 50 48
f 39 51 40
f 40 51 44
f 40 44 46
f 40 46 41
f 40 41 50
f 41 48 50
f 41 49 48
f 44 51 52
f 44 52 45
f 47 48 49

