# https://github.com/mikedh/trimesh
v -0.00419924 0.04684238 -0.04550849
v -0.00536793 0.04580595 -0.05425711
v -0.00703815 0.04650760 -0.04550849
v -0.00001220 0.04657180 -0.04550849
v -0.00001220 0.04657180 -0.04799383
v -0.00026527 0.04631499 -0.05211653
v -0.01010711 0.04476036 -0.05471519
v -0.01134022 0.04490711 -0.05211653
v -0.00001220 0.04587016 -0.05464892
v -0.01528340 0.04447603 -0.04550849
v -0.00001220 0.04309108 -0.04550849
v -0.00001220 0.04630123 -0.05211653
v -0.00001220 0.04621869 -0.05268793
v -0.00001220 0.04578761 -0.05471519
v -0.00001220 0.04545743 -0.05480642
v -0.00511027 0.04307274 -0.05531539
v -0.02040907 0.04032576 -0.05509452
v -0.01617602 0.04319197 -0.05425711
v -0.01796586 0.04347171 -0.04550849
v -0.00001220 -0.00000754 -0.05070388
v -0.04278443 -0.00000754 -0.04550849
v -0.00001220 0.04243070 -0.05527314
v -0.00001220 0.04101824 -0.05531443
v -0.00001220 0.03636810 -0.05531443
v -0.03504991 -0.00000754 -0.05531924
v -0.03469102 0.02596261 -0.05526738
v -0.02362987 0.03969749 -0.05426095
v -0.02974939 0.03493729 -0.05471519
v -0.02176181 0.04088983 -0.05211653
v -0.02547953 0.03952322 -0.04550849
v -0.00001220 -0.00000754 -0.05146254
v -0.04637792 -0.00000754 -0.04550849
v -0.00001220 0.02039987 -0.05531155
v -0.03226622 -0.00000754 -0.05531732
v -0.04002835 -0.00000754 -0.05530483
v -0.04201604 0.01665775 -0.05509452
v -0.03724465 0.02680184 -0.05471519
v -0.02652859 0.03796859 -0.05211653
v -0.02784452 0.03790897 -0.04550849
v -0.03439195 0.03072740 -0.05425711
v -0.03090888 0.03449245 -0.05211653
v -0.00001220 0.01695583 -0.05483811
v -0.01646589 -0.00000754 -0.05480834
v -0.04701288 0.00000163 -0.04550849
v -0.04637332 -0.00000754 -0.04689905
v -0.02301332 -0.00000754 -0.05530867
v -0.04208045 -0.00000754 -0.05523376
v -0.04074612 0.02161056 -0.05425711
v -0.04543469 0.00642652 -0.05471519
v -0.04401293 0.01404835 -0.05426095
v -0.03826611 0.02609560 -0.05211653
v -0.03419870 0.03227744 -0.04550849
v -0.03610817 0.03014498 -0.04550849
v -0.04700368 0.00148288 -0.04550849
v -0.04612026 0.00019882 -0.05425711
v -0.04620768 -0.00000754 -0.05331310
v -0.04630430 -0.00000754 -0.05211653
v -0.04556352 -0.00000754 -0.05471519
v -0.04340098 0.01618081 -0.05211653
v -0.04227370 0.02062917 -0.04550849
v -0.04093017 0.02316060 -0.04550849
v -0.04600983 0.00532590 -0.05211653
v -0.04503439 0.01082902 -0.05211653
v -0.04598222 0.00991642 -0.04550849
v -0.04528285 0.01269091 -0.04550849
v -0.04609725 -0.00000754 -0.05427632
f 1 2 3
f 1 3 10
f 1 10 19
f 1 19 30
f 1 30 39
f 1 39 52
f 1 52 53
f 1 53 61
f 1 61 60
f 1 60 65
f 1 65 64
f 1 64 54
f 1 54 44
f 1 44 32
f 1 32 21
f 1 21 11
f 1 11 4
f 1 4 5
f 1 5 6
f 1 6 2
f 2 7 8
f 2 8 3
f 2 6 9
f 2 9 7
f 3 8 10
f 4 11 20
f 4 20 31
f 4 31 42
f 4 42 33
f 4 33 24
f 4 24 23
f 4 23 22
f 4 22 15
f 4 15 14
f 4 14 9
f 4 9 13
f 4 13 12
f 4 12 5
f 5 12 6
f 6 12 13
f 6 13 9
f 7 9 14
f 7 14 15
f 7 15 16
f 7 16 17
f 7 17 18
f 7 18 8
f 8 18 10
f 10 18 19
f 11 21 20
f 15 22 16
f 16 22 23
f 16 23 24
f 16 24 25
f 16 25 26
f 16 26 17
f 17 27 18
f 17 26 28
f 17 28 27
f 18 27 29
f 18 29 19
f 19 29 30
f 20 21 32
f 20 32 45
f 20 45 57
f 20 57 56
f 20 56 66
f 20 66 58
f 20 58 47
f 20 47 35
f 20 35 25
f 20 25 34
f 20 34 46
f 20 46 43
f 20 43 31
f 24 33 25
f 25 33 34
f 25 35 26
f 26 35 36
f 26 36 37
f 26 37 28
f 27 30 29
f 27 28 38
f 27 38 39
f 27 39 30
f 28 37 40
f 28 40 41
f 28 41 38
f 31 43 42
f 32 44 45
f 33 42 43
f 33 43 46
f 33 46 34
f 35 47 36
f 36 48 37
f 36 47 49
f 36 49 50
f 36 50 48
f 37 48 51
f 37 51 40
f 38 41 39
f 39 41 52
f 40 52 41
f 40 51 53
f 40 53 52
f 44 54 55
f 44 55 56
f 44 56 57
f 44 57 45
f 47 58 49
f 48 50 59
f 48 59 60
f 48 60 61
f 48 61 51
f 49 58 55
f 49 55 62
f 49 62 63
f 49 63 50
f 50 63 64
f 50 64 65
f 50 65 59
f 51 61 53
f 54 64 62
f 54 62 55
f 55 58 66
f 55 66 56
f 59 65 60
f 62 64 63

