# https://github.com/mikedh/trimesh
v -0.04736280 -0.00001097 -0.04474122
v -0.04736280 -0.00001097 -0.03793726
v -0.04701761 -0.00001097 -0.04549567
v -0.04702412 -0.00136022 -0.04549567
v -0.04598856 -0.01133575 -0.04473660
v -0.04628815 -0.00001097 -0.03371045
v -0.04598856 -0.01133575 -0.03794187
v -0.04633863 -0.00489086 -0.03371045
v -0.04634515 -0.00477785 -0.03371045
v -0.04634515 -0.00369229 -0.03371045
v -0.04278417 -0.00001097 -0.04549567
v -0.04599344 -0.00983582 -0.04549567
v -0.04533237 -0.01257198 -0.04549567
v -0.04193911 -0.02200987 -0.04473660
v -0.04289814 -0.00001097 -0.03371045
v -0.04382299 -0.01583895 -0.03371045
v -0.04385555 -0.01572936 -0.03371045
v -0.04411607 -0.01467804 -0.03371045
v -0.04628815 -0.00521961 -0.03371045
v -0.04632235 -0.00500045 -0.03371045
v -0.04193911 -0.02200987 -0.03794187
v -0.03073025 -0.02983482 -0.04549567
v -0.03073025 -0.03000605 -0.03371045
v -0.03073025 -0.02999578 -0.03429302
v -0.03073025 -0.02987249 -0.04270511
v -0.03073025 -0.02983482 -0.04538724
v -0.04230383 -0.02055446 -0.04549567
v -0.04100612 -0.02305434 -0.04549567
v -0.03545543 -0.03140666 -0.04473660
v -0.04369436 -0.01614715 -0.03371045
v -0.03545543 -0.03140666 -0.03794187
v -0.03876077 -0.02586242 -0.03371045
v -0.03881938 -0.02576311 -0.03371045
v -0.03932251 -0.02480425 -0.03371045
v -0.03073025 -0.03499210 -0.04549567
v -0.03073025 -0.03492704 -0.03371045
v -0.03615720 -0.03008139 -0.04549567
v -0.03429937 -0.03219772 -0.04549567
v -0.03073025 -0.03498868 -0.04012795
v -0.03073025 -0.03498525 -0.03564966
v -0.03073025 -0.03498182 -0.03428726
v -0.03118941 -0.03459829 -0.03371045
v -0.03136201 -0.03445788 -0.03371045
v -0.03144668 -0.03438596 -0.03371045
v -0.03152484 -0.03430720 -0.03371045
v -0.03224452 -0.03349560 -0.03371045
v -0.03856375 -0.02612953 -0.03371045
v -0.03869564 -0.02595145 -0.03371045
f 1 2 6
f 1 6 15
f 1 15 11
f 1 11 3
f 1 3 4
f 1 4 5
f 1 5 7
f 1 7 2
f 2 7 8
f 2 8 9
f 2 9 10
f 2 10 6
f 3 11 22
f 3 22 35
f 3 35 38
f 3 38 37
f 3 37 28
f 3 28 27
f 3 27 13
f 3 13 12
f 3 12 4
f 4 12 5
f 5 12 13
f 5 13 14
f 5 14 21
f 5 21 7
f 6 10 9
f 6 9 8
f 6 8 20
f 6 20 19
f 6 19 18
f 6 18 17
f 6 17 16
f 6 16 30
f 6 30 34
f 6 34 33
f 6 33 32
f 6 32 48
f 6 48 47
f 6 47 46
f 6 46 45
f 6 45 44
f 6 44 43
f 6 43 42
f 6 42 36
f 6 36 23
f 6 23 15
f 7 16 17
f 7 17 18
f 7 18 19
f 7 19 20
f 7 20 8
f 7 21 16
f 11 15 23
f 11 23 24
f 11 24 25
f 11 25 26
f 11 26 22
f 13 27 14
f 14 27 28
f 14 28 29
f 14 29 31
f 14 31 21
f 16 21 30
f 21 31 32
f 21 32 33
f 21 33 34
f 21 34 30
f 22 26 25
f 22 25 24
f 22 24 23
f 22 23 36
f 22 36 41
f 22 41 40
f 22 40 39
f 22 39 35
f 28 37 29
f 29 37 38
f 29 38 35
f 29 35 31
f 31 35 39
f 31 39 40
f 31 40 41
f 31 41 42
f 31 42 43
f 31 43 44
f 31 44 45
f 31 45 46
f 31 46 47
f 31 47 48
f 31 48 32
f 36 42 41

