# https://github.com/mikedh/trimesh
v 0.03596378 0.03044153 -0.00450642
v 0.03596378 0.03044153 -0.03168141
v 0.03544967 0.03141205 -0.00396371
v 0.03594970 0.03044153 -0.00336179
v 0.03069937 0.02986728 -0.04548599
v 0.03544967 0.03141205 -0.03113870
v 0.03069937 0.03501877 -0.04548599
v 0.02690335 0.03897809 -0.00396371
v 0.03229102 0.03244470 0.05483649
v 0.03362561 0.03075049 0.05483649
v 0.02690335 0.03897977 -0.03793738
v -0.00000680 0.04309358 -0.04548599
v 0.03349179 0.03075049 0.05500424
v 0.03263611 0.03075049 0.05532000
v 0.03174521 0.03075049 0.05529040
v 0.03073106 0.03044153 0.00236133
v -0.00001032 0.04361913 0.02069508
v -0.00001032 0.04347305 0.00236133
v 0.02690335 0.03897977 -0.04473606
v 0.02788933 0.03787828 -0.04548599
v 0.01679708 0.04428574 -0.00396371
v 0.02126919 0.04043555 0.05483649
v 0.02599132 0.03757940 0.05483649
v 0.02804075 0.03539657 0.05532000
v -0.00000680 0.04657100 -0.04548599
v -0.00001032 0.04492548 0.05532000
v -0.00001032 0.04427567 0.05529040
v -0.00001032 0.04537884 0.00236133
v 0.02561102 0.03946503 -0.04548599
v 0.01679356 0.04428574 -0.04473606
v 0.01679708 0.04428574 -0.03113870
v 0.00571187 0.04702100 -0.03793738
v 0.00571187 0.04701764 -0.00396371
v 0.01352575 0.04372995 0.05483649
v 0.01875143 0.04107529 0.05532000
v -0.00000680 0.04657100 -0.03553958
v -0.00000327 0.04657268 -0.00828566
v 0.00571187 0.04702100 -0.04473606
v 0.00434207 0.04684637 -0.04548599
v -0.00001032 0.04547622 0.00413748
v -0.00001032 0.04600682 0.01399507
v -0.00001032 0.04602529 0.01458712
v 0.00838810 0.04436970 0.05532000
v 0.00555693 0.04535197 0.05483649
v 0.00005659 0.04569115 0.05483649
v -0.00001032 0.04567772 0.05484636
v 0.01801547 0.04344955 -0.04548599
v 0.01542375 0.04444525 -0.04548599
v -0.00000327 0.04657268 -0.00614442
v -0.00000327 0.04655757 -0.00072718
v -0.00000680 0.04656764 -0.03409893
v 0.00709576 0.04649880 -0.04548599
v -0.00001032 0.04569115 0.05441219
v -0.00001032 0.04568611 0.05483649
f 1 2 6
f 1 6 3
f 1 3 4
f 1 4 5
f 1 5 2
f 2 5 7
f 2 7 6
f 3 8 9
f 3 9 10
f 3 10 4
f 3 6 19
f 3 19 11
f 3 11 8
f 4 10 5
f 5 12 25
f 5 25 39
f 5 39 52
f 5 52 48
f 5 48 47
f 5 47 29
f 5 29 20
f 5 20 7
f 5 10 13
f 5 13 14
f 5 14 15
f 5 15 16
f 5 16 17
f 5 17 18
f 5 18 12
f 6 7 19
f 7 20 19
f 8 21 22
f 8 22 23
f 8 23 9
f 8 11 21
f 9 23 24
f 9 24 14
f 9 14 13
f 9 13 10
f 11 19 31
f 11 31 21
f 12 18 28
f 12 28 25
f 14 24 35
f 14 35 43
f 14 43 26
f 14 26 27
f 14 27 15
f 15 27 17
f 15 17 16
f 17 27 26
f 17 26 46
f 17 46 54
f 17 54 53
f 17 53 42
f 17 42 41
f 17 41 40
f 17 40 28
f 17 28 18
f 19 20 29
f 19 29 30
f 19 30 31
f 21 31 38
f 21 38 32
f 21 32 33
f 21 33 34
f 21 34 22
f 22 34 35
f 22 35 23
f 23 35 24
f 25 36 49
f 25 49 37
f 25 37 38
f 25 38 39
f 25 28 40
f 25 40 41
f 25 41 42
f 25 42 36
f 26 43 44
f 26 44 45
f 26 45 46
f 29 47 30
f 30 47 48
f 30 48 38
f 30 38 31
f 32 38 37
f 32 37 49
f 32 49 33
f 33 49 50
f 33 50 45
f 33 45 44
f 33 44 34
f 34 44 43
f 34 43 35
f 36 42 51
f 36 51 49
f 38 48 52
f 38 52 39
f 42 53 50
f 42 50 51
f 45 54 46
f 45 50 54
f 49 51 50
f 50 53 54

