# https://github.com/mikedh/trimesh
v -0.00445924 -0.01866231 0.00097100
v -0.00440512 -0.01866231 0.00202877
v -0.00433004 -0.01866231 0.00023171
v -0.00432044 -0.01970318 0.00025002
v -0.00428814 -0.02288129 0.00031178
v -0.00427766 -0.02393604 0.00033404
v -0.00426719 -0.02499773 0.00035738
v -0.00425671 -0.02605247 0.00038180
v -0.00424623 -0.02710722 0.00040657
v -0.00423750 -0.02794685 0.00042704
v -0.00423052 -0.02864770 0.00045935
v -0.00433266 -0.02499773 0.00097100
v -0.00424361 -0.03028534 0.00127907
v -0.00423576 -0.03104170 0.00141623
v -0.00423576 -0.03104170 0.00153112
v -0.00438504 -0.01970318 0.00202877
v -0.00423139 -0.02339479 0.00255658
v -0.00423838 -0.02269394 0.00256627
v -0.00426719 -0.01970318 0.00260218
v -0.00427941 -0.01866231 0.00260325
v -0.00424361 -0.03028534 0.00158211
v -0.00427592 -0.02710722 0.00179215
v -0.00431957 -0.01866231 0.00022238
v -0.00339943 -0.05884676 0.00007301
v -0.00338896 -0.05990151 0.00008199
v -0.00337848 -0.06095625 0.00009132
v -0.00336800 -0.06201794 0.00010174
v -0.00335753 -0.06307269 0.00011287
v -0.00334705 -0.06413437 0.00012472
v -0.00332523 -0.06625081 0.00015093
v -0.00331475 -0.06730555 0.00016529
v -0.00330428 -0.06836724 0.00018037
v -0.00329380 -0.06942198 0.00019653
v -0.00328332 -0.07048367 0.00021340
v -0.00429861 -0.02181961 0.00029024
v -0.00327285 -0.07153842 0.00023135
v -0.00326237 -0.07260010 0.00025002
v -0.00324055 -0.07471653 0.00029024
v -0.00323007 -0.07577128 0.00031178
v -0.00321959 -0.07683297 0.00033404
v -0.00320912 -0.07788771 0.00035738
v -0.00319864 -0.07894246 0.00038180
v -0.00318817 -0.08000415 0.00040657
v -0.00317944 -0.08083684 0.00042704
v -0.00317245 -0.08154463 0.00045935
v -0.00388831 -0.04720985 0.00097100
v -0.00317856 -0.08393863 0.00141623
v -0.00317856 -0.08393863 0.00153112
v -0.00430472 -0.02297844 0.00213397
v -0.00428639 -0.02605247 0.00186037
v -0.00429687 -0.02499773 0.00192788
v -0.00317333 -0.07629172 0.00255658
v -0.00425671 -0.02076486 0.00258997
v -0.00318031 -0.07558392 0.00256627
v -0.00318904 -0.07471653 0.00257704
v -0.00427679 -0.01866231 0.00261367
v -0.00320912 -0.07260010 0.00260218
v -0.00322920 -0.07048367 0.00262516
v -0.00321785 -0.08000415 0.00179215
v -0.00370236 -0.01866231 -0.00027814
v -0.00343173 -0.05566864 0.00005075
v -0.00342038 -0.05673033 0.00005757
v -0.00340991 -0.05778508 0.00006511
v -0.00264429 -0.06730555 -0.00034672
v -0.00264429 -0.06836724 -0.00033128
v -0.00264429 -0.06942198 -0.00031477
v -0.00264429 -0.07048367 -0.00029717
v -0.00264429 -0.07153842 -0.00027850
v -0.00258493 -0.08740819 -0.00003650
v -0.00333570 -0.06518912 0.00013728
v -0.00308341 -0.08740819 0.00097100
v -0.00310523 -0.08635344 0.00097100
v -0.00335927 -0.07365485 0.00097100
v -0.00297341 -0.08740819 0.00202877
v -0.00247406 -0.08740819 0.00278781
v -0.00319864 -0.07365485 0.00258997
v -0.00371284 -0.01866231 0.00286752
v -0.00324928 -0.06836724 0.00264670
v -0.00326936 -0.06625081 0.00266645
v -0.00328856 -0.06413437 0.00268440
v -0.00329816 -0.06307269 0.00269266
v -0.00330777 -0.06201794 0.00270056
v -0.00331737 -0.06095625 0.00270810
v -0.00332697 -0.05990151 0.00271492
v -0.00333570 -0.05884676 0.00272174
v -0.00334443 -0.05778508 0.00272784
v -0.00335316 -0.05673033 0.00273359
v -0.00336189 -0.05566864 0.00273862
v -0.00336975 -0.05461390 0.00274364
v -0.00321872 -0.07153842 0.00261403
v -0.00323880 -0.06942198 0.00263629
v -0.00368315 -0.01866231 -0.00028389
v -0.00264429 -0.03557295 -0.00054564
v -0.00264429 -0.03663463 -0.00054240
v -0.00264429 -0.03875107 -0.00053594
v -0.00264429 -0.03980581 -0.00053271
v -0.00264429 -0.04086750 -0.00052912
v -0.00264429 -0.04192224 -0.00052553
v -0.00264429 -0.04298393 -0.00052158
v -0.00264429 -0.04403868 -0.00051763
v -0.00264429 -0.04615511 -0.00050901
v -0.00264429 -0.04720985 -0.00050470
v -0.00264429 -0.04827154 -0.00050004
v -0.00264429 -0.04932629 -0.00049537
v -0.00264429 -0.05144272 -0.00048496
v -0.00264429 -0.05250440 -0.00047921
v -0.00264429 -0.05355915 -0.00047347
v -0.00264429 -0.05566864 -0.00046126
v -0.00264429 -0.05673033 -0.00045444
v -0.00264429 -0.05778508 -0.00044690
v -0.00264429 -0.05884676 -0.00043900
v -0.00264429 -0.05990151 -0.00043002
v -0.00264429 -0.06095625 -0.00042069
v -0.00264429 -0.06201794 -0.00041027
v -0.00264429 -0.06307269 -0.00039914
v -0.00264429 -0.06413437 -0.00038729
v -0.00264429 -0.06518912 -0.00037473
v -0.00264429 -0.06625081 -0.00036108
v -0.00158623 -0.08740819 -0.00054851
v -0.00251422 -0.08846987 0.00002562
v -0.00294286 -0.08846987 0.00097100
v -0.00284159 -0.08846987 0.00202877
v -0.00241382 -0.08846987 0.00274939
v -0.00158623 -0.08740819 0.00304956
v -0.00264429 -0.06625081 0.00292820
v -0.00264429 -0.06730555 0.00291850
v -0.00264429 -0.06836724 0.00290845
v -0.00370236 -0.01866231 0.00287218
v -0.00264429 -0.06518912 0.00293753
v -0.00264429 -0.06413437 0.00294615
v -0.00264429 -0.06307269 0.00295441
v -0.00264429 -0.06201794 0.00296231
v -0.00264429 -0.06095625 0.00296985
v -0.00264429 -0.01866231 -0.00057939
v -0.00264429 -0.01970318 -0.00057831
v -0.00264429 -0.02076486 -0.00057651
v -0.00264429 -0.02288129 -0.00057256
v -0.00264429 -0.02710722 -0.00056431
v -0.00264429 -0.03240177 -0.00055389
v -0.00264429 -0.03345652 -0.00055138
v -0.00264429 -0.03451820 -0.00054851
v -0.00158623 -0.08635344 -0.00055138
v -0.00052816 -0.08740819 -0.00058190
v -0.00052816 -0.08846987 -0.00046341
v -0.00158623 -0.08846987 -0.00042715
v -0.00233787 -0.08914991 0.00020514
v -0.00246358 -0.08924011 0.00097100
v -0.00241906 -0.08920542 0.00202877
v -0.00227764 -0.08910133 0.00266070
v -0.00158623 -0.08846987 0.00297164
v -0.00052816 -0.08740819 0.00308187
v -0.00158623 -0.08635344 0.00305171
v -0.00264429 -0.05038797 0.00301868
v -0.00264429 -0.05144272 0.00301616
v -0.00264429 -0.05250440 0.00301329
v -0.00264429 -0.05355915 0.00300970
v -0.00264429 -0.05461390 0.00300539
v -0.00264429 -0.05566864 0.00300072
v -0.00264429 -0.05673033 0.00299534
v -0.00264429 -0.05778508 0.00298959
v -0.00264429 -0.05884676 0.00298349
v -0.00264429 -0.05990151 0.00297703
v -0.00264429 -0.04086750 0.00303735
v -0.00264429 -0.03134008 0.00305602
v -0.00264429 -0.02710722 0.00306428
v -0.00264429 -0.02499773 0.00306823
v -0.00264429 -0.01866231 0.00307900
v -0.00262509 -0.01866231 -0.00057975
v -0.00158623 -0.06942198 -0.00058118
v -0.00158623 -0.07048367 -0.00058046
v -0.00158623 -0.07260010 -0.00057831
v -0.00158623 -0.07365485 -0.00057651
v -0.00158623 -0.07577128 -0.00057256
v -0.00158623 -0.08000415 -0.00056431
v -0.00158623 -0.08529176 -0.00055389
v 0.00052816 -0.08740819 -0.00058190
v -0.00158623 -0.06836724 -0.00058154
v -0.00158623 -0.06518912 -0.00058190
v 0.00052816 -0.08846987 -0.00046341
v -0.00052816 -0.08926094 0.00004860
v -0.00158623 -0.08924705 0.00006763
v -0.00158623 -0.08951768 0.00097100
v -0.00158623 -0.08944829 0.00202877
v -0.00158623 -0.08917072 0.00272641
v -0.00052816 -0.08846987 0.00300252
v -0.00158623 -0.07153842 0.00307828
v -0.00158623 -0.07260010 0.00307684
v -0.00158623 -0.07365485 0.00307541
v -0.00158623 -0.07471653 0.00307361
v -0.00158623 -0.07683297 0.00307002
v -0.00158623 -0.07788771 0.00306823
v -0.00158623 -0.08000415 0.00306428
v -0.00158623 -0.08423701 0.00305602
v 0.00052816 -0.08740819 0.00308187
v -0.00054824 -0.01866231 0.00308618
v -0.00158623 -0.06730555 0.00308187
v -0.00158623 -0.06836724 0.00308151
v -0.00158623 -0.06942198 0.00308079
v -0.00160631 -0.01866231 0.00308402
v -0.00158623 -0.01866231 -0.00058190
v 0.00158623 -0.07260010 -0.00057831
v 0.00158623 -0.07365485 -0.00057651
v 0.00158623 -0.07577128 -0.00057256
v 0.00158623 -0.08000415 -0.00056431
v 0.00158623 -0.08529176 -0.00055389
v 0.00158623 -0.08635344 -0.00055138
v 0.00158623 -0.08740819 -0.00054851
v 0.00158623 -0.06518912 -0.00058190
v 0.00158623 -0.06836724 -0.00058154
v 0.00158623 -0.06942198 -0.00058118
v 0.00158623 -0.07048367 -0.00058046
v 0.00158623 -0.08846987 -0.00042715
v 0.00158623 -0.08924705 0.00006763
v 0.00052816 -0.08926094 0.00004860
v -0.00052816 -0.08955238 0.00097100
v -0.00052816 -0.08947605 0.00202877
v -0.00052816 -0.08918461 0.00274041
v 0.00052816 -0.08846987 0.00300252
v 0.00158623 -0.08846987 0.00297164
v 0.00158623 -0.08740819 0.00304956
v 0.00158623 -0.08635344 0.00305171
v 0.00158623 -0.08423701 0.00305602
v 0.00158623 -0.08000415 0.00306428
v 0.00158623 -0.07788771 0.00306823
v 0.00158623 -0.07683297 0.00307002
v 0.00158623 -0.07471653 0.00307361
v 0.00158623 -0.07365485 0.00307541
v 0.00158623 -0.07260010 0.00307684
v 0.00158623 -0.07153842 0.00307828
v 0.00158623 -0.06942198 0.00308079
v 0.00158623 -0.06836724 0.00308151
v 0.00158623 -0.06730555 0.00308187
v 0.00052816 -0.01866231 0.00308618
v 0.00158623 -0.01866231 -0.00058190
v 0.00264429 -0.01866231 -0.00057939
v 0.00264429 -0.01970318 -0.00057831
v 0.00264429 -0.02076486 -0.00057651
v 0.00264429 -0.02288129 -0.00057256
v 0.00264429 -0.02710722 -0.00056431
v 0.00264429 -0.03240177 -0.00055389
v 0.00264429 -0.03345652 -0.00055138
v 0.00264429 -0.03451820 -0.00054851
v 0.00258493 -0.08740819 -0.00003650
v 0.00251422 -0.08846987 0.00002562
v 0.00264429 -0.03557295 -0.00054564
v 0.00264429 -0.03663463 -0.00054240
v 0.00264429 -0.03875107 -0.00053594
v 0.00264429 -0.03980581 -0.00053271
v 0.00264429 -0.04086750 -0.00052912
v 0.00264429 -0.04192224 -0.00052553
v 0.00264429 -0.04298393 -0.00052158
v 0.00264429 -0.04403868 -0.00051763
v 0.00264429 -0.04615511 -0.00050901
v 0.00264429 -0.04720985 -0.00050470
v 0.00264429 -0.04827154 -0.00050004
v 0.00264429 -0.04932629 -0.00049537
v 0.00264429 -0.05144272 -0.00048496
v 0.00264429 -0.05250440 -0.00047921
v 0.00264429 -0.05355915 -0.00047347
v 0.00264429 -0.05566864 -0.00046126
v 0.00264429 -0.05673033 -0.00045444
v 0.00264429 -0.05778508 -0.00044690
v 0.00264429 -0.05884676 -0.00043900
v 0.00264429 -0.05990151 -0.00043002
v 0.00264429 -0.06095625 -0.00042069
v 0.00264429 -0.06201794 -0.00041027
v 0.00264429 -0.06307269 -0.00039914
v 0.00264429 -0.06413437 -0.00038729
v 0.00264429 -0.06518912 -0.00037473
v 0.00264429 -0.06625081 -0.00036108
v 0.00264429 -0.06730555 -0.00034672
v 0.00264429 -0.06836724 -0.00033128
v 0.00264429 -0.06942198 -0.00031477
v 0.00264429 -0.07048367 -0.00029717
v 0.00233787 -0.08914991 0.00020514
v 0.00158623 -0.08951768 0.00097100
v 0.00052816 -0.08955238 0.00097100
v 0.00052816 -0.08947605 0.00202877
v 0.00052816 -0.08918461 0.00274041
v 0.00158623 -0.08917072 0.00272641
v 0.00227764 -0.08910133 0.00266070
v 0.00241382 -0.08846987 0.00274939
v 0.00247406 -0.08740819 0.00278781
v 0.00264429 -0.06625081 0.00292820
v 0.00264429 -0.06518912 0.00293753
v 0.00264429 -0.06413437 0.00294615
v 0.00264429 -0.06307269 0.00295441
v 0.00264429 -0.06201794 0.00296231
v 0.00264429 -0.06095625 0.00296985
v 0.00264429 -0.05990151 0.00297703
v 0.00264429 -0.05884676 0.00298349
v 0.00264429 -0.05778508 0.00298959
v 0.00264429 -0.05673033 0.00299534
v 0.00264429 -0.05566864 0.00300072
v 0.00264429 -0.05461390 0.00300539
v 0.00264429 -0.05355915 0.00300970
v 0.00264429 -0.05250440 0.00301329
v 0.00264429 -0.05144272 0.00301616
v 0.00264429 -0.05038797 0.00301868
v 0.00264429 -0.04086750 0.00303735
v 0.00264429 -0.03134008 0.00305602
v 0.00264429 -0.02710722 0.00306428
v 0.00264429 -0.02499773 0.00306823
v 0.00264429 -0.01866231 0.00307900
v 0.00158623 -0.01866231 0.00308402
v 0.00370236 -0.01866231 -0.00027814
v 0.00317944 -0.08083684 0.00042704
v 0.00317245 -0.08154463 0.00045935
v 0.00308341 -0.08740819 0.00097100
v 0.00264429 -0.07153842 -0.00027850
v 0.00336800 -0.06201794 0.00010174
v 0.00335753 -0.06307269 0.00011287
v 0.00334705 -0.06413437 0.00012472
v 0.00333570 -0.06518912 0.00013728
v 0.00332523 -0.06625081 0.00015093
v 0.00331475 -0.06730555 0.00016529
v 0.00330428 -0.06836724 0.00018037
v 0.00329380 -0.06942198 0.00019653
v 0.00328332 -0.07048367 0.00021340
v 0.00327285 -0.07153842 0.00023135
v 0.00326237 -0.07260010 0.00025002
v 0.00324055 -0.07471653 0.00029024
v 0.00323007 -0.07577128 0.00031178
v 0.00321959 -0.07683297 0.00033404
v 0.00320912 -0.07788771 0.00035738
v 0.00319864 -0.07894246 0.00038180
v 0.00318817 -0.08000415 0.00040657
v 0.00294286 -0.08846987 0.00097100
v 0.00342038 -0.05673033 0.00005757
v 0.00340991 -0.05778508 0.00006511
v 0.00339943 -0.05884676 0.00007301
v 0.00338896 -0.05990151 0.00008199
v 0.00337848 -0.06095625 0.00009132
v 0.00246358 -0.08924011 0.00097100
v 0.00158623 -0.08944829 0.00202877
v 0.00241906 -0.08920542 0.00202877
v 0.00284159 -0.08846987 0.00202877
v 0.00297341 -0.08740819 0.00202877
v 0.00317333 -0.07629172 0.00255658
v 0.00318031 -0.07558392 0.00256627
v 0.00318904 -0.07471653 0.00257704
v 0.00319864 -0.07365485 0.00258997
v 0.00320912 -0.07260010 0.00260218
v 0.00321872 -0.07153842 0.00261403
v 0.00322920 -0.07048367 0.00262516
v 0.00323880 -0.06942198 0.00263629
v 0.00324928 -0.06836724 0.00264670
v 0.00326936 -0.06625081 0.00266645
v 0.00328856 -0.06413437 0.00268440
v 0.00329816 -0.06307269 0.00269266
v 0.00330777 -0.06201794 0.00270056
v 0.00331737 -0.06095625 0.00270810
v 0.00332697 -0.05990151 0.00271492
v 0.00264429 -0.06836724 0.00290845
v 0.00264429 -0.06730555 0.00291850
v 0.00333570 -0.05884676 0.00272174
v 0.00334443 -0.05778508 0.00272784
v 0.00335316 -0.05673033 0.00273359
v 0.00336189 -0.05566864 0.00273862
v 0.00336975 -0.05461390 0.00274364
v 0.00370236 -0.01866231 0.00287218
v 0.00368315 -0.01866231 0.00287613
v 0.00433004 -0.01866231 0.00023171
v 0.00343173 -0.05566864 0.00005075
v 0.00423750 -0.02794685 0.00042704
v 0.00335927 -0.07365485 0.00097100
v 0.00310523 -0.08635344 0.00097100
v 0.00423052 -0.02864770 0.00045935
v 0.00433266 -0.02499773 0.00097100
v 0.00388831 -0.04720985 0.00097100
v 0.00317856 -0.08393863 0.00141623
v 0.00317856 -0.08393863 0.00153112
v 0.00432044 -0.01970318 0.00025002
v 0.00429861 -0.02181961 0.00029024
v 0.00428814 -0.02288129 0.00031178
v 0.00427766 -0.02393604 0.00033404
v 0.00426719 -0.02499773 0.00035738
v 0.00425671 -0.02605247 0.00038180
v 0.00424623 -0.02710722 0.00040657
v 0.00321785 -0.08000415 0.00179215
v 0.00423139 -0.02339479 0.00255658
v 0.00423838 -0.02269394 0.00256627
v 0.00425671 -0.02076486 0.00258997
v 0.00426719 -0.01970318 0.00260218
v 0.00427679 -0.01866231 0.00261367
v 0.00433266 -0.01866231 0.00024500
v 0.00445924 -0.01866231 0.00097100
v 0.00424361 -0.03028534 0.00127907
v 0.00423576 -0.03104170 0.00141623
v 0.00423576 -0.03104170 0.00153112
v 0.00424361 -0.03028534 0.00158211
v 0.00427592 -0.02710722 0.00179215
v 0.00428639 -0.02605247 0.00186037
v 0.00429687 -0.02499773 0.00192788
v 0.00430472 -0.02297844 0.00213397
v 0.00438504 -0.01970318 0.00202877
v 0.00440512 -0.01866231 0.00202877
v 0.00440337 -0.01866231 0.00203918
f 1 2 20
f 1 20 56
f 1 56 77
f 1 77 128
f 1 128 167
f 1 167 199
f 1 199 195
f 1 195 233
f 1 233 305
f 1 305 304
f 1 304 362
f 1 362 361
f 1 361 385
f 1 385 398
f 1 398 397
f 1 397 387
f 1 387 386
f 1 386 363
f 1 363 306
f 1 306 235
f 1 235 234
f 1 234 200
f 1 200 168
f 1 168 134
f 1 134 92
f 1 92 60
f 1 60 23
f 1 23 3
f 1 3 4
f 1 4 5
f 1 5 6
f 1 6 7
f 1 7 8
f 1 8 9
f 1 9 10
f 1 10 11
f 1 11 12
f 1 12 13
f 1 13 14
f 1 14 15
f 1 15 2
f 2 16 17
f 2 17 18
f 2 18 19
f 2 19 20
f 2 15 21
f 2 21 22
f 2 22 16
f 3 23 24
f 3 24 25
f 3 25 26
f 3 26 27
f 3 27 28
f 3 28 29
f 3 29 30
f 3 30 31
f 3 31 32
f 3 32 33
f 3 33 34
f 3 34 4
f 4 35 5
f 4 34 36
f 4 36 37
f 4 37 38
f 4 38 35
f 5 35 38
f 5 38 39
f 5 39 40
f 5 40 6
f 6 40 7
f 7 40 41
f 7 41 42
f 7 42 8
f 8 42 43
f 8 43 9
f 9 43 10
f 10 43 44
f 10 44 45
f 10 45 11
f 11 45 12
f 12 45 46
f 12 46 47
f 12 47 13
f 13 47 14
f 14 47 48
f 14 48 15
f 15 48 21
f 16 49 17
f 16 22 50
f 16 50 51
f 16 51 49
f 17 49 51
f 17 51 50
f 17 50 22
f 17 22 59
f 17 59 52
f 17 52 18
f 18 53 19
f 18 52 54
f 18 54 55
f 18 55 53
f 19 56 20
f 19 53 55
f 19 55 57
f 19 57 58
f 19 58 56
f 21 48 22
f 22 48 59
f 23 60 61
f 23 61 62
f 23 62 63
f 23 63 24
f 24 63 64
f 24 64 65
f 24 65 66
f 24 66 25
f 25 66 26
f 26 66 67
f 26 67 27
f 27 67 68
f 27 68 69
f 27 69 28
f 28 69 29
f 29 69 70
f 29 70 30
f 30 70 69
f 30 69 31
f 31 69 32
f 32 69 33
f 33 69 34
f 34 69 36
f 36 69 37
f 37 69 38
f 38 69 39
f 39 69 40
f 40 69 41
f 41 69 42
f 42 69 43
f 43 69 44
f 44 69 45
f 45 69 71
f 45 71 72
f 45 72 73
f 45 73 46
f 46 73 47
f 47 73 72
f 47 72 71
f 47 71 48
f 48 71 74
f 48 74 52
f 48 52 59
f 52 74 75
f 52 75 54
f 54 75 55
f 55 75 76
f 55 76 57
f 56 58 78
f 56 78 79
f 56 79 80
f 56 80 81
f 56 81 82
f 56 82 83
f 56 83 84
f 56 84 85
f 56 85 86
f 56 86 87
f 56 87 88
f 56 88 89
f 56 89 77
f 57 76 75
f 57 75 90
f 57 90 58
f 58 90 75
f 58 75 91
f 58 91 78
f 60 92 93
f 60 93 94
f 60 94 95
f 60 95 96
f 60 96 97
f 60 97 98
f 60 98 99
f 60 99 100
f 60 100 101
f 60 101 102
f 60 102 103
f 60 103 104
f 60 104 105
f 60 105 106
f 60 106 107
f 60 107 108
f 60 108 109
f 60 109 110
f 60 110 111
f 60 111 112
f 60 112 113
f 60 113 114
f 60 114 115
f 60 115 116
f 60 116 117
f 60 117 118
f 60 118 64
f 60 64 62
f 60 62 61
f 62 64 63
f 64 118 119
f 64 119 65
f 65 119 66
f 66 119 67
f 67 119 69
f 67 69 68
f 69 119 120
f 69 120 71
f 71 120 121
f 71 121 122
f 71 122 74
f 74 122 123
f 74 123 75
f 75 123 124
f 75 124 125
f 75 125 126
f 75 126 127
f 75 127 84
f 75 84 83
f 75 83 82
f 75 82 81
f 75 81 80
f 75 80 79
f 75 79 78
f 75 78 91
f 77 89 128
f 84 127 85
f 85 127 126
f 85 126 125
f 85 125 86
f 86 125 129
f 86 129 87
f 87 129 130
f 87 130 88
f 88 130 131
f 88 131 89
f 89 131 132
f 89 132 133
f 89 133 128
f 92 134 135
f 92 135 136
f 92 136 137
f 92 137 138
f 92 138 139
f 92 139 140
f 92 140 141
f 92 141 93
f 93 141 142
f 93 142 119
f 93 119 94
f 94 119 95
f 95 119 96
f 96 119 97
f 97 119 98
f 98 119 99
f 99 119 100
f 100 119 101
f 101 119 102
f 102 119 103
f 103 119 104
f 104 119 105
f 105 119 106
f 106 119 107
f 107 119 108
f 108 119 109
f 109 119 110
f 110 119 111
f 111 119 112
f 112 119 113
f 113 119 114
f 114 119 115
f 115 119 116
f 116 119 117
f 117 119 118
f 119 142 143
f 119 143 144
f 119 144 145
f 119 145 120
f 120 145 146
f 120 146 121
f 121 146 147
f 121 147 148
f 121 148 122
f 122 148 149
f 122 149 123
f 123 150 124
f 123 149 150
f 124 150 151
f 124 151 152
f 124 152 153
f 124 153 154
f 124 154 155
f 124 155 156
f 124 156 157
f 124 157 158
f 124 158 159
f 124 159 160
f 124 160 161
f 124 161 162
f 124 162 133
f 124 133 132
f 124 132 131
f 124 131 130
f 124 130 129
f 124 129 125
f 128 154 153
f 128 153 163
f 128 163 164
f 128 164 165
f 128 165 166
f 128 166 167
f 128 133 162
f 128 162 161
f 128 161 160
f 128 160 159
f 128 159 158
f 128 158 157
f 128 157 156
f 128 156 155
f 128 155 154
f 134 168 169
f 134 169 170
f 134 170 171
f 134 171 135
f 135 171 136
f 136 171 172
f 136 172 173
f 136 173 137
f 137 173 174
f 137 174 138
f 138 174 139
f 139 174 175
f 139 175 142
f 139 142 140
f 140 142 141
f 142 175 143
f 143 176 179
f 143 179 144
f 143 175 174
f 143 174 173
f 143 173 172
f 143 172 171
f 143 171 170
f 143 170 169
f 143 169 177
f 143 177 178
f 143 178 200
f 143 200 234
f 143 234 208
f 143 208 176
f 144 179 214
f 144 214 180
f 144 180 181
f 144 181 145
f 145 181 146
f 146 181 182
f 146 182 147
f 147 182 148
f 148 182 183
f 148 183 149
f 149 183 184
f 149 184 150
f 150 184 185
f 150 185 151
f 151 186 187
f 151 187 188
f 151 188 189
f 151 189 190
f 151 190 191
f 151 191 192
f 151 192 193
f 151 193 152
f 151 185 218
f 151 218 194
f 151 194 233
f 151 233 195
f 151 195 196
f 151 196 197
f 151 197 198
f 151 198 186
f 152 193 153
f 153 193 163
f 163 193 164
f 164 193 192
f 164 192 165
f 165 192 166
f 166 192 191
f 166 191 190
f 166 190 167
f 167 190 189
f 167 189 188
f 167 188 187
f 167 187 186
f 167 186 198
f 167 198 197
f 167 197 196
f 167 196 199
f 168 200 178
f 168 178 177
f 168 177 169
f 176 201 202
f 176 202 203
f 176 203 204
f 176 204 205
f 176 205 206
f 176 206 207
f 176 207 179
f 176 208 209
f 176 209 210
f 176 210 211
f 176 211 201
f 179 212 213
f 179 213 214
f 179 207 212
f 180 214 277
f 180 277 215
f 180 215 181
f 181 215 182
f 182 215 183
f 183 215 216
f 183 216 184
f 184 216 217
f 184 217 185
f 185 217 279
f 185 279 218
f 194 218 219
f 194 219 220
f 194 220 221
f 194 221 222
f 194 222 223
f 194 223 224
f 194 224 225
f 194 225 226
f 194 226 227
f 194 227 228
f 194 228 229
f 194 229 230
f 194 230 231
f 194 231 232
f 194 232 233
f 195 199 196
f 201 211 235
f 201 235 236
f 201 236 237
f 201 237 202
f 202 237 238
f 202 238 203
f 203 238 204
f 204 238 239
f 204 239 240
f 204 240 205
f 205 240 206
f 206 240 241
f 206 241 242
f 206 242 245
f 206 245 207
f 207 243 244
f 207 244 212
f 207 245 246
f 207 246 247
f 207 247 248
f 207 248 249
f 207 249 250
f 207 250 251
f 207 251 252
f 207 252 253
f 207 253 254
f 207 254 255
f 207 255 256
f 207 256 257
f 207 257 258
f 207 258 259
f 207 259 260
f 207 260 261
f 207 261 262
f 207 262 263
f 207 263 264
f 207 264 265
f 207 265 266
f 207 266 267
f 207 267 268
f 207 268 269
f 207 269 270
f 207 270 271
f 207 271 272
f 207 272 273
f 207 273 274
f 207 274 243
f 208 234 235
f 208 235 209
f 209 235 210
f 210 235 211
f 212 244 275
f 212 275 213
f 213 275 276
f 213 276 277
f 213 277 214
f 215 277 278
f 215 278 216
f 216 278 279
f 216 279 217
f 218 279 280
f 218 280 219
f 219 280 281
f 219 281 282
f 219 282 220
f 220 282 283
f 220 283 284
f 220 284 285
f 220 285 286
f 220 286 287
f 220 287 288
f 220 288 289
f 220 289 290
f 220 290 291
f 220 291 292
f 220 292 293
f 220 293 294
f 220 294 295
f 220 295 296
f 220 296 297
f 220 297 298
f 220 298 299
f 220 299 221
f 221 299 222
f 222 299 300
f 222 300 301
f 222 301 302
f 222 302 223
f 223 302 303
f 223 303 224
f 224 303 225
f 225 303 304
f 225 304 226
f 226 304 227
f 227 304 228
f 228 304 229
f 229 304 230
f 230 304 231
f 231 304 232
f 232 304 305
f 232 305 233
f 235 306 236
f 236 306 237
f 237 306 238
f 238 306 239
f 239 306 240
f 240 306 241
f 241 306 242
f 242 306 245
f 243 307 308
f 243 308 309
f 243 309 244
f 243 274 310
f 243 310 311
f 243 311 312
f 243 312 313
f 243 313 314
f 243 314 315
f 243 315 316
f 243 316 317
f 243 317 318
f 243 318 319
f 243 319 320
f 243 320 321
f 243 321 322
f 243 322 323
f 243 323 324
f 243 324 325
f 243 325 326
f 243 326 327
f 243 327 307
f 244 328 275
f 244 309 328
f 245 306 246
f 246 306 247
f 247 306 248
f 248 306 249
f 249 306 250
f 250 306 251
f 251 306 252
f 252 306 253
f 253 306 254
f 254 306 255
f 255 306 256
f 256 306 257
f 257 306 258
f 258 306 259
f 259 306 260
f 260 306 261
f 261 306 262
f 262 306 263
f 263 306 264
f 264 306 265
f 265 306 266
f 266 306 267
f 267 306 268
f 268 306 269
f 269 306 270
f 270 306 271
f 271 329 330
f 271 330 331
f 271 331 272
f 271 306 329
f 272 331 273
f 273 331 332
f 273 332 333
f 273 333 274
f 274 333 311
f 274 311 310
f 275 334 276
f 275 328 334
f 276 335 277
f 276 334 336
f 276 336 335
f 277 335 278
f 278 335 280
f 278 280 279
f 280 335 281
f 281 337 282
f 281 335 336
f 281 336 337
f 282 337 338
f 282 338 283
f 283 338 339
f 283 339 340
f 283 340 341
f 283 341 342
f 283 342 343
f 283 343 344
f 283 344 345
f 283 345 346
f 283 346 347
f 283 347 348
f 283 348 349
f 283 349 350
f 283 350 351
f 283 351 352
f 283 352 353
f 283 353 354
f 283 354 355
f 283 355 284
f 284 355 356
f 284 356 357
f 284 357 285
f 285 357 358
f 285 358 286
f 286 358 359
f 286 359 287
f 287 359 360
f 287 360 288
f 288 360 289
f 289 360 361
f 289 361 290
f 290 361 291
f 291 361 292
f 292 361 293
f 293 361 294
f 294 361 295
f 295 361 296
f 296 361 297
f 297 361 298
f 298 361 299
f 299 361 362
f 299 362 300
f 300 362 301
f 301 362 302
f 302 362 303
f 303 362 304
f 306 363 364
f 306 364 329
f 307 327 365
f 307 365 308
f 308 366 367
f 308 367 309
f 308 365 368
f 308 368 369
f 308 369 370
f 308 370 366
f 309 338 337
f 309 337 328
f 309 367 371
f 309 371 372
f 309 372 338
f 311 333 363
f 311 363 312
f 312 363 313
f 313 315 314
f 313 363 315
f 315 363 316
f 316 363 317
f 317 363 318
f 318 363 319
f 319 363 373
f 319 373 320
f 320 373 321
f 321 373 374
f 321 374 322
f 322 374 375
f 322 375 323
f 323 375 324
f 324 375 376
f 324 376 377
f 324 377 325
f 325 377 378
f 325 378 326
f 326 378 327
f 327 378 379
f 327 379 365
f 328 337 336
f 328 336 334
f 329 364 363
f 329 363 330
f 330 363 331
f 331 363 332
f 332 363 333
f 338 372 339
f 339 372 380
f 339 380 392
f 339 392 381
f 339 381 382
f 339 382 340
f 340 382 341
f 341 343 342
f 341 382 383
f 341 383 384
f 341 384 343
f 343 345 344
f 343 384 345
f 345 347 346
f 345 384 385
f 345 385 347
f 347 385 348
f 348 385 349
f 349 385 350
f 350 385 351
f 351 385 352
f 352 385 353
f 353 356 354
f 353 385 356
f 354 356 355
f 356 385 357
f 357 385 358
f 358 385 359
f 359 385 360
f 360 385 361
f 363 386 373
f 365 379 387
f 365 387 368
f 366 371 367
f 366 370 371
f 368 387 369
f 369 387 388
f 369 388 371
f 369 371 370
f 371 388 389
f 371 389 390
f 371 390 372
f 372 390 391
f 372 391 392
f 372 392 380
f 373 386 387
f 373 387 375
f 373 375 374
f 375 387 376
f 376 387 377
f 377 387 378
f 378 387 379
f 381 392 393
f 381 393 394
f 381 394 395
f 381 395 396
f 381 396 397
f 381 397 398
f 381 398 382
f 382 398 384
f 382 384 383
f 384 398 385
f 387 389 388
f 387 397 390
f 387 390 389
f 390 397 391
f 391 397 392
f 392 397 396
f 392 396 393
f 393 396 394
f 394 396 395

