# https://github.com/mikedh/trimesh
v 0.31512950 -0.17064312 -0.44917657
v 0.31321700 -0.17871374 -0.37192356
v 0.31315532 -0.17827454 -0.45883318
v 0.31500612 -0.17064312 -0.46848982
v 0.31111944 -0.16240780 -0.45883318
v 0.31105774 -0.16224311 -0.44917657
v 0.31105774 -0.16224311 -0.43951992
v 0.31500612 -0.17064312 -0.39123679
v 0.31327870 -0.18030593 0.02409376
v 0.31327870 -0.18030593 0.00478051
v 0.31062587 -0.18601577 0.23663516
v 0.31056420 -0.18596089 0.20766529
v 0.31044079 -0.18579614 0.14006889
v 0.31044079 -0.18574126 0.13041226
v 0.31031742 -0.18563144 0.08203352
v 0.31309362 -0.17821966 -0.46848982
v 0.31019404 -0.18552163 0.04340702
v 0.31007063 -0.18546675 0.01443714
v 0.31000896 -0.18546675 0.00478051
v 0.31179806 -0.17728631 -0.47537375
v 0.31204484 -0.17064312 -0.47613863
v 0.31037912 -0.16372548 -0.47499130
v 0.31105774 -0.16257250 -0.46848982
v 0.30840494 -0.15741168 -0.44917657
v 0.30846662 -0.15741168 -0.43951992
v 0.28076633 -0.10679185 -0.36226691
v 0.31105774 -0.16229799 -0.42986331
v 0.31482104 -0.17064312 -0.32364042
v 0.31321700 -0.18030593 0.05306364
v 0.31074928 -0.18650991 0.45883318
v 0.31074928 -0.18650991 0.44917657
v 0.31074928 -0.18640010 0.39123679
v 0.31074928 -0.18634516 0.37192356
v 0.31062587 -0.18612559 0.27526167
v 0.30427148 -0.18804716 0.45883318
v 0.30427148 -0.18799222 0.43951992
v 0.31025571 -0.18563144 0.07237690
v 0.30427148 -0.18101964 -0.46848982
v 0.30988555 -0.18541187 -0.00478051
v 0.30945372 -0.18524712 -0.03375039
v 0.30920694 -0.18513730 -0.04990851
v 0.31007063 -0.18552163 0.02409376
v 0.30427148 -0.18782753 0.40089343
v 0.30427148 -0.18760795 0.35261030
v 0.30427148 -0.18607065 0.03375039
v 0.30427148 -0.18590595 0.00478051
v 0.30427148 -0.17821966 -0.47652106
v 0.30427148 -0.17064312 -0.47948499
v 0.25121522 -0.06912891 -0.48302256
v 0.30013801 -0.14533321 -0.47451325
v 0.24152936 -0.04980333 -0.48302256
v 0.20327951 0.01849504 -0.48340501
v 0.19316179 0.03705200 -0.48302256
v 0.28989693 -0.12699587 -0.47365278
v 0.16478287 0.08624440 -0.47814644
v 0.30056987 -0.14467439 -0.46848982
v 0.30470334 -0.15131755 -0.45883318
v 0.28378929 -0.11266639 -0.38158017
v 0.30513517 -0.15131755 -0.42986331
v 0.29834891 -0.13890966 -0.41055005
v 0.29834891 -0.13890966 -0.40089343
v 0.30846662 -0.15746661 -0.42986331
v 0.22277460 -0.00055603 -0.16903877
v 0.23023949 -0.01422669 -0.18835203
v 0.25028981 -0.05139550 -0.27526167
v 0.21259519 0.01783622 -0.14743088
v 0.17483887 0.08695812 -0.02409376
v 0.31099603 -0.16235293 -0.41055005
v 0.31469764 -0.17064312 -0.28491831
v 0.31303192 -0.18030593 0.11109901
v 0.31198314 -0.18030593 0.35261030
v 0.31167468 -0.18030593 0.41055005
v 0.31068758 -0.18650991 0.46848982
v 0.31290854 -0.18030593 0.14972552
v 0.31241500 -0.18030593 0.26560505
v 0.31068758 -0.18629028 0.34295368
v 0.30427148 -0.18799222 0.46848982
v 0.29464731 -0.18832167 0.44917657
v 0.29464731 -0.18832167 0.43951992
v 0.00573748 -0.19501974 -0.00573661
v 0.00104879 -0.19485504 -0.02093863
v 0.03035312 -0.18519224 -0.48302256
v 0.30815816 -0.18513730 -0.05641000
v 0.22703144 -0.18832167 0.00478051
v 0.07242796 -0.19309816 0.00478051
v 0.02412209 -0.19458053 0.00478051
v 0.30926864 -0.18519224 -0.04340702
v 0.27533730 -0.18859618 0.37192356
v 0.27533730 -0.18799222 0.24629179
v 0.29464731 -0.18650991 0.06272027
v 0.29464731 -0.17064312 -0.48024987
v 0.19519767 -0.17558437 -0.48302256
v 0.29464731 -0.16098037 -0.48053670
v 0.25121522 -0.07209363 -0.48302256
v 0.15935386 0.07087177 -0.48780306
v 0.14972970 0.09014245 -0.48818548
v 0.15935386 0.08053456 -0.48703820
v 0.21327382 -0.00022662 -0.48359620
v 0.18483320 0.04902068 -0.48416986
v 0.17471550 0.06752274 -0.48388303
v 0.16453609 0.08586008 -0.48340501
v 0.16194497 0.09107579 -0.47814644
v 0.17539412 0.06862078 -0.46848982
v 0.26478774 -0.08367801 -0.46848982
v 0.26207324 -0.07676033 -0.41055005
v 0.26657686 -0.08367801 -0.39123679
v 0.25701440 -0.06435242 -0.31398378
v 0.28076633 -0.10673694 -0.34295368
v 0.27342480 -0.09334080 -0.31398378
v 0.30507350 -0.15131755 -0.41055005
v 0.20253919 0.03644807 -0.09169015
v 0.30840494 -0.15752149 -0.41055005
v 0.19242149 0.05495012 -0.07237690
v 0.18495659 0.06862078 -0.04340702
v 0.19223641 0.05473051 -0.09169015
v 0.18489489 0.06834627 -0.06272027
v 0.18218039 0.07334237 -0.05306364
v 0.17730662 0.08053456 -0.08203352
v 0.17200098 0.09178952 -0.02409376
v 0.17212438 0.09189933 -0.01443714
v 0.17483887 0.08706793 -0.01443714
v 0.31050250 -0.16328622 -0.22697853
v 0.31334040 -0.17064312 -0.02409376
v 0.31401902 -0.17064312 -0.14972552
v 0.31432748 -0.17064312 -0.20766529
v 0.31130452 -0.18030593 0.46848982
v 0.31019404 -0.18607065 0.47470446
v 0.29464731 -0.18804716 0.46848982
v 0.29464731 -0.18821185 0.45883318
v 0.30427148 -0.18656479 0.47556496
v 0.23665559 -0.18969422 0.35261030
v 0.22703144 -0.18985892 0.35261030
v 0.01961848 -0.19480011 0.02944793
v 0.02412209 -0.19463541 0.01443714
v 0.08211382 -0.19326286 0.10144239
v -0.00481208 -0.19512955 -0.00478051
v -0.00481208 -0.19501974 -0.01443714
v 0.01301729 -0.19490992 0.00478051
v 0.00481208 -0.19512955 0.00478051
v -0.00481208 -0.19480011 -0.02744012
v -0.00481208 -0.18601577 -0.46848982
v 0.00481208 -0.18568638 -0.47814644
v -0.00481208 -0.18579614 -0.47814644
v 0.02412209 -0.18524712 -0.48311818
v 0.01443624 -0.18530205 -0.48330936
v 0.01443624 -0.18030593 -0.48589087
v 0.06274211 -0.17964709 -0.48493477
v 0.09173798 -0.17882356 -0.48455235
v 0.14004384 -0.17739613 -0.48388303
v 0.17872556 -0.17613339 -0.48330936
v 0.17872556 -0.19079226 0.20766529
v 0.09173798 -0.19254914 0.01443714
v 0.27533730 -0.16098037 -0.48111037
v 0.20161379 -0.17316865 -0.48292694
v 0.17872556 -0.17064312 -0.48369185
v 0.02412209 -0.17064312 -0.48799430
v 0.12073384 -0.17064312 -0.48531720
v 0.27533730 -0.15131755 -0.48130158
v 0.28496147 -0.15131755 -0.48101475
v 0.27533730 -0.13199197 -0.48158842
v 0.25109184 -0.07851719 -0.48302256
v 0.14972970 0.07087177 -0.48808989
v 0.14972970 0.08053456 -0.48818548
v 0.24979628 -0.08367801 -0.48302256
v 0.18834972 0.01289502 -0.48617770
v 0.14004384 0.09014245 -0.48828113
v 0.14004384 0.09980525 -0.48818548
v 0.13041969 0.11913083 -0.48751622
v 0.14004384 0.10946804 -0.48751622
v 0.15047002 0.10051898 -0.48598646
v 0.15620750 0.09777386 -0.48464794
v 0.15941555 0.08953853 -0.48522161
v 0.16934817 0.07081687 -0.48541279
v 0.14590472 0.11600140 -0.48407427
v 0.13554023 0.13417404 -0.48340501
v 0.14645996 0.11693474 -0.47814644
v 0.16928649 0.08053456 -0.42986331
v 0.17255622 0.07345218 -0.46848982
v 0.16305545 0.09299737 -0.38158017
v 0.18329087 0.05593836 -0.44917657
v 0.21068270 0.01459699 -0.31398378
v 0.24523098 -0.04502683 -0.33329704
v 0.25257248 -0.05716023 -0.32364042
v 0.19451906 0.04896578 -0.14006889
v 0.24702008 -0.04502683 -0.22697853
v 0.17841710 0.08053456 -0.01443714
v 0.21493954 0.01256560 -0.01443714
v 0.30791138 -0.15845484 -0.22697853
v 0.17483887 0.08706793 -0.00478051
v 0.17144574 0.09085618 -0.07237690
v 0.19168117 0.05379718 -0.14006889
v 0.18335256 0.06571096 -0.19800866
v 0.17261793 0.08322477 -0.21732190
v 0.16435101 0.10485625 -0.01443714
v 0.16484456 0.09601699 -0.22697853
v 0.16663368 0.09892681 -0.07237690
v 0.01721244 0.33297501 -0.46848982
v 0.16755906 0.09980525 -0.00478051
v 0.16453609 0.10513076 0.00478051
v 0.17218606 0.09189933 -0.00478051
v 0.30019971 -0.14516850 -0.12075564
v 0.29248805 -0.13199197 -0.00478051
v 0.31321700 -0.17064312 -0.00478051
v 0.30970047 -0.17443139 0.46848982
v 0.30951542 -0.17481572 0.47393958
v 0.31019404 -0.18030593 0.47489570
v 0.30427148 -0.18030593 0.47766839
v 0.04343210 -0.18601577 0.47814644
v 0.28496147 -0.18799222 0.46848982
v 0.28496147 -0.18821185 0.45883318
v 0.07242796 -0.18546675 0.48340501
v 0.04343210 -0.18546675 0.48350060
v 0.01443624 -0.18546675 0.48350060
v 0.28496147 -0.18837655 0.44917657
v 0.29464731 -0.18030593 0.47910253
v 0.13479991 -0.18508242 0.48302256
v 0.12832212 -0.18519224 0.48302256
v 0.12073384 -0.18524712 0.48311818
v 0.11104798 -0.18530205 0.48321377
v 0.09173798 -0.18541187 0.48330936
v 0.01961848 -0.19480011 0.02696207
v 0.09173798 -0.19309816 0.13041226
v 0.19803558 -0.19046282 0.31398378
v 0.01437454 -0.19474523 0.03308112
v 0.01752090 -0.19480011 0.02944793
v 0.00481208 -0.19501974 0.01443714
v 0.01850800 -0.19480011 0.01443714
v 0.06274211 -0.19353737 0.03375039
v -0.01301729 -0.19490992 -0.00478051
v -0.01850800 -0.19480011 -0.01443714
v -0.01961848 -0.19480011 -0.02696207
v -0.01961848 -0.19480011 -0.02944793
v -0.00573748 -0.19501974 0.00573661
v -0.01752090 -0.19480011 -0.02944793
v -0.01437454 -0.19474523 -0.03308112
v -0.05311795 -0.19348249 -0.11109901
v -0.01443624 -0.19436090 -0.05306364
v -0.19803558 -0.19046282 -0.31398378
v -0.28496147 -0.18821185 -0.45883318
v -0.20765973 -0.18996873 -0.34295368
v -0.18834972 -0.19040794 -0.31398378
v -0.09173798 -0.18837655 -0.38158017
v -0.11104798 -0.18716869 -0.44917657
v -0.14972970 -0.18705893 -0.46848982
v -0.03380794 -0.19276872 -0.14006889
v -0.18834972 -0.18733344 -0.46848982
v -0.26565146 -0.18788246 -0.46848982
v -0.01443624 -0.18585107 -0.47814644
v -0.01443624 -0.18546675 -0.48350060
v 0.00481208 -0.18535693 -0.48340501
v 0.00481208 -0.18030593 -0.48598646
v 0.01443624 -0.17064312 -0.48818548
v 0.25596560 -0.16098037 -0.48168401
v 0.20488353 -0.16098037 -0.48311818
v 0.04343210 -0.12232918 -0.48818548
v 0.04343210 -0.16098037 -0.48761187
v 0.24634146 -0.10300360 -0.48283135
v 0.14004384 0.05154618 -0.48808989
v 0.13041969 0.04188339 -0.48818548
v 0.13041969 0.05154618 -0.48828113
v 0.14004384 0.07087177 -0.48828113
v 0.14004384 -0.02575616 -0.48694255
v -0.04343210 0.09014245 -0.48828113
v 0.12073384 0.09980525 -0.48818548
v 0.13041969 0.10946804 -0.48789871
v 0.11104798 0.14811921 -0.48665572
v 0.04842926 0.25951583 -0.48302256
v 0.12073384 0.13845642 -0.48684696
v 0.06792435 0.24057457 -0.48321377
v 0.08729605 0.21158618 -0.48330936
v 0.14035231 0.11918574 -0.48550844
v 0.12708825 0.14586822 -0.48416986
v 0.11672377 0.16398596 -0.48369185
v 0.10635929 0.18210369 -0.48311818
v 0.01980356 0.32770443 -0.47432204
v 0.00943908 0.34587707 -0.46848982
v 0.03535028 0.30272389 -0.46848982
v 0.16657197 0.08931892 -0.32364042
v 0.17379010 0.07553846 -0.36226691
v 0.17662799 0.07070706 -0.36226691
v 0.20401983 0.02936568 -0.22697853
v 0.17835540 0.08053456 -0.00478051
v 0.24979628 -0.05249354 -0.00478051
v 0.27984093 -0.10843891 -0.00478051
v 0.24590960 -0.04502683 -0.02409376
v 0.17477719 0.08695812 0.00478051
v 0.00635441 0.35098295 -0.46848982
v 0.00653949 0.35098295 -0.45883318
v 0.01727413 0.34291233 0.00478051
v 0.13813135 0.14795450 0.02409376
v 0.07983116 0.24403341 0.23663516
v 0.05065022 0.29201796 0.33329704
v 0.05842358 0.27928063 0.31398378
v 0.05842358 0.27933554 0.32364042
v 0.15380146 0.12269948 0.04340702
v 0.16447440 0.10507586 0.01443714
v 0.16762076 0.09980525 0.00478051
v 0.16749737 0.09980525 0.01443714
v 0.17212438 0.09178952 0.00478051
v 0.28983523 -0.12716058 0.00038244
v 0.31000896 -0.17393725 0.42020669
v 0.17206269 0.09156991 0.01443714
v 0.16731229 0.09980525 0.02409376
v 0.29945939 -0.15614896 0.47336594
v 0.30439485 -0.17124708 0.47632984
v 0.21247181 -0.00159917 0.48292694
v 0.22234275 -0.02059534 0.48311818
v 0.23209029 -0.03975622 0.48321377
v 0.24171446 -0.05908181 0.48311818
v 0.25121522 -0.07873681 0.48302256
v 0.29464731 -0.17064312 0.48024987
v 0.01443624 -0.18585107 0.47814644
v 0.26565146 -0.18788246 0.46848982
v 0.20765973 -0.18766283 0.45883318
v 0.20765973 -0.18996873 0.34295368
v 0.00481208 -0.19480011 0.02744012
v 0.00481208 -0.18030593 0.48598646
v -0.00481208 -0.18030593 0.48598646
v -0.00481208 -0.18535693 0.48340501
v 0.00481208 -0.18579614 0.47814644
v 0.28496147 -0.17064312 0.48072792
v 0.18834972 -0.17629808 0.48311818
v 0.16903970 -0.17816472 0.48340501
v 0.14004384 -0.18003142 0.48378744
v 0.01443624 -0.17064312 0.48799430
v 0.00481208 -0.17064312 0.48818548
v 0.06274211 -0.18030593 0.48522161
v 0.02412209 -0.18030593 0.48579528
v -0.00104879 -0.19485504 0.02093863
v -0.02412209 -0.19458053 -0.00478051
v -0.02412209 -0.19463541 -0.01443714
v -0.09173798 -0.19309816 -0.13041226
v -0.23665559 -0.18969422 -0.35261030
v -0.29464731 -0.18832167 -0.44917657
v -0.22703144 -0.18985892 -0.35261030
v -0.30427148 -0.18101964 0.46848982
v -0.03380794 -0.19353737 -0.10144239
v -0.11104798 -0.18985892 -0.31398378
v -0.28496147 -0.18837655 -0.44917657
v -0.29464731 -0.18804716 -0.46848982
v -0.28496147 -0.18799222 -0.46848982
v -0.20765973 -0.18766283 -0.45883318
v -0.09173798 -0.18991380 -0.30432716
v -0.04343210 -0.18601577 -0.47814644
v -0.04343210 -0.18546675 -0.48350060
v -0.00481208 -0.18030593 -0.48598646
v 0.00481208 -0.17064312 -0.48828113
v 0.01443624 -0.16098037 -0.48828113
v 0.12073384 0.02255781 -0.48818548
v 0.04343210 -0.11266639 -0.48828113
v 0.11104798 0.01289502 -0.48828113
v -0.14972970 0.08053456 -0.48828113
v -0.14004384 0.09014245 -0.48818548
v 0.01443624 0.09980525 -0.48808989
v 0.00481208 0.19643317 -0.48503037
v 0.06274211 0.22542156 -0.48416986
v 0.07242796 0.21575876 -0.48445670
v 0.05836188 0.25089619 -0.48311818
v 0.02412209 0.29306110 -0.48197084
v -0.00481208 0.34132014 -0.48034546
v 0.00481208 0.33165734 -0.48044108
v -0.00481208 0.35098295 -0.47872011
v 0.00314636 0.35098295 -0.47623425
v 0.00111048 0.35740651 -0.47489570
v 0.00172741 0.35828492 -0.46848982
v 0.00943908 0.35553981 0.00478051
v 0.01258544 0.35092807 0.05306364
v 0.04244501 0.30272389 0.05306364
v 0.04343210 0.30272389 0.22697853
v 0.04392565 0.30272389 0.31398378
v 0.02918094 0.32721029 0.39123679
v 0.01850800 0.34483390 0.43951992
v 0.05065022 0.29207285 0.34295368
v 0.04768894 0.29684935 0.36226691
v 0.13529346 0.15306041 0.10144239
v 0.16441271 0.10496606 0.02409376
v 0.16638689 0.10073859 0.04283336
v 0.16465948 0.08613459 0.47814644
v 0.17483887 0.06779725 0.47814644
v 0.16447440 0.08580518 0.48340501
v 0.16626352 0.09859740 0.10144239
v 0.16484456 0.09607190 0.22697853
v 0.17446871 0.06713842 0.48369185
v 0.18446304 0.04841676 0.48388303
v 0.19433398 0.02958529 0.48397868
v 0.20414321 0.01069892 0.48397868
v 0.15935386 0.08053456 0.48722939
v 0.16903970 0.06120898 0.48703820
v 0.15935386 0.07087177 0.48808989
v 0.25121522 -0.08065838 0.48302256
v 0.28496147 -0.16098037 0.48082354
v 0.18834972 -0.18733344 0.46848982
v 0.11104798 -0.18716869 0.44917657
v 0.11104798 -0.18985892 0.31398378
v 0.18834972 -0.19040794 0.31398378
v 0.05311795 -0.19348249 0.11109901
v 0.01443624 -0.19436090 0.05306364
v 0.00481208 -0.18601577 0.46848982
v -0.00481208 -0.17064312 0.48828113
v -0.01443624 -0.18030593 0.48589087
v -0.01443624 -0.18530205 0.48330936
v -0.00481208 -0.18568638 0.47814644
v 0.14972970 -0.18705893 0.46848982
v -0.02412209 -0.18524712 0.48311818
v -0.03035312 -0.18519224 0.48302256
v 0.25047489 -0.08713685 0.48302256
v 0.20765973 -0.02575616 0.48522161
v 0.24634146 -0.11266639 0.48273572
v 0.23665559 -0.15131755 0.48235330
v 0.22703144 -0.16098037 0.48244889
v 0.08211382 -0.17064312 0.48617770
v 0.19390211 -0.17563925 0.48302256
v 0.03380794 -0.15131755 0.48780306
v 0.12073384 0.01289502 0.48818548
v 0.01443624 -0.15131755 0.48828113
v -0.07242796 -0.19309816 -0.00478051
v -0.06274211 -0.19353737 -0.03375039
v -0.17872556 -0.19079226 -0.20766529
v -0.08211382 -0.19326286 -0.10144239
v -0.29464731 -0.18832167 -0.43951992
v -0.30427148 -0.18804716 -0.45883318
v -0.30427148 -0.18799222 -0.46848982
v -0.29464731 -0.18821185 -0.45883318
v -0.30427148 -0.17821966 0.47652106
v -0.31179806 -0.17728631 0.47537375
v -0.31309362 -0.17821966 0.46848982
v -0.30920694 -0.18513730 0.04990851
v -0.30815816 -0.18513730 0.05641000
v -0.30427148 -0.18590595 -0.00478051
v -0.22703144 -0.18832167 -0.00478051
v -0.30427148 -0.18656479 -0.47556496
v -0.07242796 -0.18546675 -0.48340501
v -0.09173798 -0.18541187 -0.48330936
v -0.11104798 -0.18530205 -0.48321377
v -0.02412209 -0.18030593 -0.48579528
v -0.00481208 -0.17064312 -0.48818548
v -0.01443624 -0.15131755 -0.48828113
v -0.14972970 0.07087177 -0.48828113
v -0.15935386 0.07087177 -0.48808989
v -0.14972970 0.09014245 -0.48808989
v -0.14004384 0.09980525 -0.48789871
v -0.08211382 0.09980525 -0.48799430
v -0.07242796 0.20609596 -0.48464794
v 0.00481208 0.29306110 -0.48197084
v -0.00481208 0.33165734 -0.48072792
v -0.01443624 0.32199458 -0.48101475
v -0.06274211 0.25139030 -0.48311818
v -0.06761589 0.24957853 -0.48302256
v -0.01443624 0.33165734 -0.48015425
v -0.01203020 0.35098295 -0.47585180
v -0.01030279 0.35685749 -0.47441766
v -0.00481208 0.35779084 -0.47527813
v -0.00481208 0.35982222 -0.46848982
v 0.00000000 0.36553207 -0.07973888
v 0.00191249 0.35850455 -0.43951992
v 0.00987093 0.35619865 0.14972552
v 0.00956247 0.35570457 0.04340702
v 0.00215927 0.35877906 -0.40089343
v 0.00302297 0.35976729 -0.25594841
v 0.00493547 0.36064576 -0.00478051
v 0.02109912 0.33939857 0.29457493
v 0.02905756 0.32699066 0.34295368
v 0.01449793 0.35098295 0.40089343
v 0.01844630 0.34477902 0.42020669
v 0.01468301 0.35098295 0.43951992
v 0.01073464 0.35740651 0.45883318
v 0.01067295 0.35740651 0.46848982
v 0.01462132 0.35098295 0.45883318
v 0.01449793 0.35098295 0.46848982
v 0.01844630 0.34472409 0.44917657
v 0.02628136 0.33182209 0.42986331
v 0.03695430 0.31425336 0.40089343
v 0.07680819 0.24875500 0.28491831
v 0.14979139 0.12879362 0.07237690
v 0.16120465 0.10946804 0.05306364
v 0.16428932 0.10480135 0.03375039
v 0.16398085 0.10419742 0.06272027
v 0.16219175 0.09135030 0.45883318
v 0.16194497 0.09096599 0.47814644
v 0.15713290 0.09947583 0.47814644
v 0.03874341 0.30782980 0.47374837
v 0.12579269 0.15333492 0.48321377
v 0.14608980 0.11638572 0.48416986
v 0.15620750 0.09793857 0.48455235
v 0.16589336 0.08053456 0.48455235
v 0.15299945 0.12121712 0.12075564
v 0.15232082 0.11034647 0.42020669
v 0.15762644 0.09980525 0.44917657
v 0.16928649 0.07059726 0.48541279
v 0.14972970 0.09014245 0.48808989
v 0.15941555 0.08948363 0.48522161
v 0.14800229 0.10946804 0.48503037
v 0.10709961 0.18347625 0.48369185
v 0.09692021 0.20181359 0.48330936
v 0.06761589 0.24957853 0.48302256
v 0.14972970 0.08053456 0.48828113
v 0.14972970 0.07087177 0.48828113
v 0.14972970 0.06120898 0.48818548
v 0.15935386 0.05154618 0.48780306
v 0.17872556 0.03222060 0.48694255
v 0.09173798 -0.18837655 0.38158017
v 0.09173798 -0.18991380 0.30432716
v 0.03380794 -0.19353737 0.10144239
v 0.03380794 -0.19276872 0.14006889
v -0.01443624 -0.16098037 0.48828113
v -0.01443624 -0.17064312 0.48818548
v -0.14004384 -0.17739613 0.48388303
v -0.09173798 -0.17882356 0.48455235
v -0.06274211 -0.17964709 0.48493477
v -0.02412209 -0.17064312 0.48799430
v -0.17872556 -0.17613339 0.48330936
v -0.19519767 -0.17558437 0.48302256
v 0.19803558 -0.00643057 0.48579528
v 0.14972970 0.01289502 0.48742063
v 0.14004384 -0.02575616 0.48703820
v 0.14972970 0.04188339 0.48789871
v 0.13041969 0.02255781 0.48808989
v 0.14004384 0.05154618 0.48828113
v -0.09173798 -0.19254914 -0.01443714
v -0.27533730 -0.18799222 -0.24629179
v -0.27533730 -0.18859618 -0.37192356
v -0.30427148 -0.18760795 -0.35261030
v -0.30427148 -0.18782753 -0.40089343
v -0.30427148 -0.18799222 -0.43951992
v -0.31074928 -0.18650991 -0.44917657
v -0.31074928 -0.18650991 -0.45883318
v -0.31068758 -0.18650991 -0.46848982
v -0.31044079 -0.18579614 -0.14006889
v -0.31056420 -0.18596089 -0.20766529
v -0.31062587 -0.18612559 -0.27526167
v -0.31068758 -0.18629028 -0.34295368
v -0.31074928 -0.18640010 -0.39123679
v -0.31019404 -0.18607065 -0.47470446
v -0.29464731 -0.17064312 0.48024987
v -0.30427148 -0.17064312 0.47948499
v -0.31204484 -0.17064312 0.47613863
v -0.31500612 -0.17064312 0.46848982
v -0.31315532 -0.17827454 0.45883318
v -0.31000896 -0.18546675 -0.00478051
v -0.30988555 -0.18541187 0.00478051
v -0.30945372 -0.18524712 0.03375039
v -0.30926864 -0.18519224 0.04340702
v -0.30427148 -0.18607065 -0.03375039
v -0.29464731 -0.18650991 -0.06272027
v -0.30427148 -0.18030593 -0.47766839
v -0.29464731 -0.18030593 -0.47910253
v -0.13479991 -0.18508242 -0.48302256
v -0.12832212 -0.18519224 -0.48302256
v -0.12073384 -0.18524712 -0.48311818
v -0.06274211 -0.18030593 -0.48522161
v -0.01443624 -0.17064312 -0.48799430
v -0.14004384 0.05154618 -0.48828113
v -0.12073384 0.01289502 -0.48818548
v -0.14972970 0.06120898 -0.48818548
v -0.25121522 -0.07873681 -0.48302256
v -0.16903970 0.06120898 -0.48703820
v -0.15935386 0.08053456 -0.48722939
v -0.15935386 0.05154618 -0.48780306
v -0.17872556 0.03222060 -0.48694255
v -0.25047489 -0.08713685 -0.48302256
v -0.25121522 -0.08065838 -0.48302256
v -0.13041969 0.11913083 -0.48732504
v -0.11104798 0.15778200 -0.48608211
v -0.12073384 0.12879362 -0.48703820
v -0.03380794 0.27373551 -0.48254451
v -0.04343210 0.26407272 -0.48283135
v -0.09173798 0.18677038 -0.48522161
v -0.09692021 0.20181359 -0.48330936
v -0.03874341 0.30782980 -0.47374837
v -0.01449793 0.35098295 -0.46848982
v -0.01067295 0.35740651 -0.46848982
v -0.12579269 0.15333492 -0.48321377
v -0.00481208 0.35993204 -0.45883318
v -0.00018508 0.36564183 -0.04340702
v -0.00006169 0.36558695 -0.06272027
v 0.00006169 0.36558695 -0.06272027
v 0.00018508 0.36564183 -0.04340702
v 0.01011771 0.35658298 0.23663516
v 0.00037016 0.36575164 -0.00478051
v 0.00499716 0.36064576 0.00478051
v 0.01832292 0.34455939 0.37192356
v 0.01048787 0.35713200 0.37192356
v 0.01061125 0.35724181 0.41055005
v 0.00037016 0.36575164 0.00478051
v 0.00481208 0.35993204 0.45883318
v 0.00481208 0.35982222 0.46848982
v 0.01030279 0.35685749 0.47441766
v 0.00018508 0.36564183 0.04340702
v 0.00000000 0.36553207 0.07973888
v 0.02103742 0.33956327 0.46848982
v 0.01838461 0.34455939 0.45883318
v 0.04374057 0.30272389 0.39123679
v 0.02905756 0.32699066 0.42986331
v 0.10876533 0.19599395 0.19800866
v 0.15682443 0.10079349 0.45959806
v 0.13387451 0.14087212 0.46848982
v 0.11592175 0.17227619 0.47327032
v 0.13708256 0.14652705 0.18835203
v 0.08822145 0.22284114 0.42986331
v 0.13041969 0.11913083 0.48732504
v 0.14004384 0.09980525 0.48789871
v 0.14004384 0.09014245 0.48818548
v 0.06274211 0.25139030 0.48311818
v 0.11104798 0.15778200 0.48608211
v 0.01203020 0.35098295 0.47585180
v 0.00481208 0.35098295 0.47872011
v 0.01443624 0.33165734 0.48015425
v 0.00481208 0.34132014 0.48034546
v 0.04343210 0.09014245 0.48828113
v -0.04343210 -0.11266639 0.48828113
v -0.04343210 -0.12232918 0.48818548
v -0.04343210 -0.16098037 0.48761187
v -0.12073384 -0.17064312 0.48531720
v -0.17872556 -0.17064312 0.48369185
v -0.20161379 -0.17316865 0.48292694
v -0.31007063 -0.18552163 -0.02409376
v -0.31025571 -0.18563144 -0.07237690
v -0.31327870 -0.18030593 -0.00478051
v -0.31198314 -0.18030593 -0.35261030
v -0.31167468 -0.18030593 -0.41055005
v -0.31327870 -0.18030593 -0.02409376
v -0.31321700 -0.18030593 -0.05306364
v -0.31303192 -0.18030593 -0.11109901
v -0.31290854 -0.18030593 -0.14972552
v -0.31241500 -0.18030593 -0.26560505
v -0.31130452 -0.18030593 -0.46848982
v -0.31031742 -0.18563144 -0.08203352
v -0.31044079 -0.18574126 -0.13041226
v -0.31321700 -0.17871374 0.37192356
v -0.31062587 -0.18601577 -0.23663516
v -0.31074928 -0.18634516 -0.37192356
v -0.31019404 -0.18030593 -0.47489570
v -0.27533730 -0.16098037 0.48111037
v -0.29464731 -0.16098037 0.48053670
v -0.25121522 -0.06912891 0.48302256
v -0.31037912 -0.16372548 0.47499130
v -0.31105774 -0.16257250 0.46848982
v -0.31111944 -0.16240780 0.45883318
v -0.31512950 -0.17064312 0.44917657
v -0.31019404 -0.18552163 -0.04340702
v -0.31007063 -0.18546675 -0.01443714
v -0.30439485 -0.17124708 -0.47632984
v -0.29464731 -0.17064312 -0.48024987
v -0.28496147 -0.17064312 -0.48072792
v -0.18834972 -0.17629808 -0.48311818
v -0.16903970 -0.17816472 -0.48340501
v -0.14004384 -0.18003142 -0.48378744
v -0.03380794 -0.15131755 -0.48780306
v -0.19390211 -0.17563925 -0.48302256
v -0.08211382 -0.17064312 -0.48617770
v -0.13041969 0.02255781 -0.48808989
v -0.14972970 0.04188339 -0.48789871
v -0.30951542 -0.17481572 -0.47393958
v -0.24171446 -0.05908181 -0.48311818
v -0.23209029 -0.03975622 -0.48321377
v -0.20414321 0.01069892 -0.48397868
v -0.16928649 0.07059726 -0.48541279
v -0.15941555 0.08948363 -0.48522161
v -0.15620750 0.09793857 -0.48455235
v -0.14800229 0.10946804 -0.48503037
v -0.10709961 0.18347625 -0.48369185
v -0.14972970 0.01289502 -0.48742063
v -0.20765973 -0.02575616 -0.48522161
v -0.19803558 -0.00643057 -0.48579528
v -0.28496147 -0.16098037 -0.48082354
v -0.14608980 0.11638572 -0.48416986
v -0.15713290 0.09947583 -0.47814644
v -0.02103742 0.33956327 -0.46848982
v -0.16447440 0.08580518 -0.48340501
v -0.01838461 0.34455939 -0.45883318
v -0.02628136 0.33182209 -0.42986331
v -0.01844630 0.34472409 -0.44917657
v -0.01850800 0.34483390 -0.43951992
v -0.01462132 0.35098295 -0.45883318
v -0.01073464 0.35740651 -0.45883318
v -0.00037016 0.36575164 -0.00478051
v -0.00037016 0.36575164 0.00478051
v -0.00172741 0.35828492 0.46848982
v -0.00111048 0.35740651 0.47489570
v 0.00481208 0.35779084 0.47527813
v 0.00006169 0.36558695 0.06272027
v -0.00302297 0.35976729 0.25594841
v -0.00215927 0.35877906 0.40089343
v -0.00191249 0.35850455 0.43951992
v -0.00006169 0.36558695 0.06272027
v -0.00018508 0.36564183 0.04340702
v -0.00493547 0.36064576 0.00478051
v -0.00943908 0.35553981 -0.00478051
v 0.06391428 0.26407272 0.46848982
v 0.05361150 0.28339830 0.43951992
v 0.03652245 0.31348473 0.43951992
v 0.12073384 0.12879362 0.48703820
v 0.08211382 0.09980525 0.48799430
v 0.09173798 0.18677038 0.48522161
v 0.03380794 0.27373551 0.48254451
v -0.01443624 0.09980525 0.48808989
v 0.01443624 0.32199458 0.48101475
v -0.00481208 0.33165734 0.48044108
v -0.00314636 0.35098295 0.47623425
v -0.06792435 0.24057457 0.48321377
v -0.05836188 0.25089619 0.48311818
v -0.04842926 0.25951583 0.48302256
v -0.02412209 0.29306110 0.48197084
v 0.00481208 0.33165734 0.48072792
v -0.12073384 0.09980525 0.48818548
v -0.14004384 0.09014245 0.48828113
v -0.11104798 0.01289502 0.48828113
v -0.12073384 0.02255781 0.48818548
v -0.14004384 0.05154618 0.48808989
v -0.14004384 -0.02575616 0.48694255
v -0.18834972 0.01289502 0.48617770
v -0.20488353 -0.16098037 0.48311818
v -0.24634146 -0.10300360 0.48283135
v -0.27533730 -0.15131755 0.48130158
v -0.25596560 -0.16098037 0.48168401
v -0.31432748 -0.17064312 0.20766529
v -0.31401902 -0.17064312 0.14972552
v -0.31334040 -0.17064312 0.02409376
v -0.31500612 -0.17064312 0.39123679
v -0.31482104 -0.17064312 0.32364042
v -0.31469764 -0.17064312 0.28491831
v -0.30970047 -0.17443139 -0.46848982
v -0.31321700 -0.17064312 0.00478051
v -0.28496147 -0.15131755 0.48101475
v -0.27533730 -0.13199197 0.48158842
v -0.25109184 -0.07851719 0.48302256
v -0.25121522 -0.07209363 0.48302256
v -0.15935386 0.07087177 0.48780306
v -0.14972970 0.09014245 0.48818548
v -0.24152936 -0.04980333 0.48302256
v -0.30013801 -0.14533321 0.47451325
v -0.20327951 0.01849504 0.48340501
v -0.19316179 0.03705200 0.48302256
v -0.28989693 -0.12699587 0.47365278
v -0.16478287 0.08624440 0.47814644
v -0.30056987 -0.14467439 0.46848982
v -0.30470334 -0.15131755 0.45883318
v -0.28378929 -0.11266639 0.38158017
v -0.28076633 -0.10679185 0.36226691
v -0.30840494 -0.15741168 0.44917657
v -0.30846662 -0.15741168 0.43951992
v -0.31105774 -0.16224311 0.44917657
v -0.31105774 -0.16224311 0.43951992
v -0.24634146 -0.11266639 -0.48273572
v -0.23665559 -0.15131755 -0.48235330
v -0.22703144 -0.16098037 -0.48244889
v -0.14004384 -0.02575616 -0.48703820
v -0.29945939 -0.15614896 -0.47336594
v -0.21247181 -0.00159917 -0.48292694
v -0.22234275 -0.02059534 -0.48311818
v -0.19433398 0.02958529 -0.48397868
v -0.16589336 0.08053456 -0.48455235
v -0.16194497 0.09096599 -0.47814644
v -0.16219175 0.09135030 -0.45883318
v -0.15682443 0.10079349 -0.45959806
v -0.13387451 0.14087212 -0.46848982
v -0.11592175 0.17227619 -0.47327032
v -0.02905756 0.32699066 -0.42986331
v -0.06391428 0.26407272 -0.46848982
v -0.05361150 0.28339830 -0.43951992
v -0.03652245 0.31348473 -0.43951992
v -0.04374057 0.30272389 -0.39123679
v -0.17446871 0.06713842 -0.48369185
v -0.17483887 0.06779725 -0.47814644
v -0.16465948 0.08613459 -0.47814644
v -0.03695430 0.31425336 -0.40089343
v -0.04768894 0.29684935 -0.36226691
v -0.01468301 0.35098295 -0.43951992
v -0.05842358 0.27933554 -0.32364042
v -0.05065022 0.29207285 -0.34295368
v -0.05065022 0.29201796 -0.33329704
v -0.02918094 0.32721029 -0.39123679
v -0.01844630 0.34477902 -0.42020669
v -0.01449793 0.35098295 -0.40089343
v -0.01061125 0.35724181 -0.41055005
v -0.01048787 0.35713200 -0.37192356
v -0.01011771 0.35658298 -0.23663516
v -0.00499716 0.36064576 -0.00478051
v -0.00653949 0.35098295 0.45883318
v -0.00635441 0.35098295 0.46848982
v -0.01980356 0.32770443 0.47432204
v -0.10635929 0.18210369 0.48311818
v -0.08729605 0.21158618 0.48330936
v -0.00987093 0.35619865 -0.14972552
v -0.00956247 0.35570457 -0.04340702
v -0.01258544 0.35092807 -0.05306364
v -0.01727413 0.34291233 -0.00478051
v 0.07242796 0.20609596 0.48464794
v -0.00481208 0.19643317 0.48503037
v 0.04343210 0.26407272 0.48283135
v -0.00481208 0.29306110 0.48197084
v -0.13041969 0.10946804 0.48789871
v -0.14004384 0.10946804 0.48751622
v -0.12073384 0.13845642 0.48684696
v -0.13041969 0.11913083 0.48751622
v -0.14004384 0.09980525 0.48818548
v -0.11104798 0.14811921 0.48665572
v -0.07242796 0.21575876 0.48445670
v -0.06274211 0.22542156 0.48416986
v -0.14004384 0.07087177 0.48828113
v -0.13041969 0.05154618 0.48828113
v -0.13041969 0.04188339 0.48818548
v -0.14972970 0.07087177 0.48808989
v -0.24979628 -0.08367801 0.48302256
v -0.31099603 -0.16235293 0.41055005
v -0.31050250 -0.16328622 0.22697853
v -0.30791138 -0.15845484 0.22697853
v -0.30019971 -0.14516850 0.12075564
v -0.29248805 -0.13199197 0.00478051
v -0.31105774 -0.16229799 0.42986331
v -0.17477719 0.08695812 -0.00478051
v -0.17212438 0.09178952 -0.00478051
v -0.17206269 0.09156991 -0.01443714
v -0.16731229 0.09980525 -0.02409376
v -0.31000896 -0.17393725 -0.42020669
v -0.17835540 0.08053456 0.00478051
v -0.17483887 0.08706793 0.00478051
v -0.14972970 0.08053456 0.48818548
v -0.15935386 0.08053456 0.48703820
v -0.21327382 -0.00022662 0.48359620
v -0.18483320 0.04902068 0.48416986
v -0.17471550 0.06752274 0.48388303
v -0.16453609 0.08586008 0.48340501
v -0.16194497 0.09107579 0.47814644
v -0.17539412 0.06862078 0.46848982
v -0.26478774 -0.08367801 0.46848982
v -0.26207324 -0.07676033 0.41055005
v -0.26657686 -0.08367801 0.39123679
v -0.25701440 -0.06435242 0.31398378
v -0.25028981 -0.05139550 0.27526167
v -0.29834891 -0.13890966 0.41055005
v -0.21259519 0.01783622 0.14743088
v -0.17483887 0.08695812 0.02409376
v -0.22277460 -0.00055603 0.16903877
v -0.30513517 -0.15131755 0.42986331
v -0.29834891 -0.13890966 0.40089343
v -0.30846662 -0.15746661 0.42986331
v -0.23023949 -0.01422669 0.18835203
v -0.16638689 0.10073859 -0.04283336
v -0.16626352 0.09859740 -0.10144239
v -0.16484456 0.09607190 -0.22697853
v -0.18446304 0.04841676 -0.48388303
v -0.15762644 0.09980525 -0.44917657
v -0.15232082 0.11034647 -0.42020669
v -0.08822145 0.22284114 -0.42986331
v -0.13708256 0.14652705 -0.18835203
v -0.07680819 0.24875500 -0.28491831
v -0.15299945 0.12121712 -0.12075564
v -0.10876533 0.19599395 -0.19800866
v -0.13529346 0.15306041 -0.10144239
v -0.05842358 0.27928063 -0.31398378
v -0.15380146 0.12269948 -0.04340702
v -0.16453609 0.10513076 -0.00478051
v -0.07983116 0.24403341 -0.23663516
v -0.04392565 0.30272389 -0.31398378
v -0.02905756 0.32699066 -0.34295368
v -0.01832292 0.34455939 -0.37192356
v -0.02109912 0.33939857 -0.29457493
v -0.16435101 0.10485625 0.01443714
v -0.00943908 0.34587707 0.46848982
v -0.13554023 0.13417404 0.48340501
v -0.14590472 0.11600140 0.48407427
v -0.11672377 0.16398596 0.48369185
v -0.12708825 0.14586822 0.48416986
v -0.14035231 0.11918574 0.48550844
v -0.04343210 0.30272389 -0.22697853
v -0.04244501 0.30272389 -0.05306364
v -0.13813135 0.14795450 -0.02409376
v -0.15047002 0.10051898 0.48598646
v -0.30840494 -0.15752149 0.41055005
v -0.24702008 -0.04502683 0.22697853
v -0.21493954 0.01256560 0.01443714
v -0.24590960 -0.04502683 0.02409376
v -0.27984093 -0.10843891 0.00478051
v -0.28983523 -0.12716058 -0.00038244
v -0.16749737 0.09980525 -0.01443714
v -0.17218606 0.09189933 0.00478051
v -0.16441271 0.10496606 -0.02409376
v -0.24979628 -0.05249354 0.00478051
v -0.17841710 0.08053456 0.01443714
v -0.18495659 0.06862078 0.04340702
v -0.17483887 0.08706793 0.01443714
v -0.15620750 0.09777386 0.48464794
v -0.15941555 0.08953853 0.48522161
v -0.16934817 0.07081687 0.48541279
v -0.14645996 0.11693474 0.47814644
v -0.16928649 0.08053456 0.42986331
v -0.17255622 0.07345218 0.46848982
v -0.16305545 0.09299737 0.38158017
v -0.18329087 0.05593836 0.44917657
v -0.21068270 0.01459699 0.31398378
v -0.24523098 -0.04502683 0.33329704
v -0.25257248 -0.05716023 0.32364042
v -0.19451906 0.04896578 0.14006889
v -0.19223641 0.05473051 0.09169015
v -0.18489489 0.06834627 0.06272027
v -0.18218039 0.07334237 0.05306364
v -0.17730662 0.08053456 0.08203352
v -0.17200098 0.09178952 0.02409376
v -0.17212438 0.09189933 0.01443714
v -0.19242149 0.05495012 0.07237690
v -0.20253919 0.03644807 0.09169015
v -0.28076633 -0.10673694 0.34295368
v -0.27342480 -0.09334080 0.31398378
v -0.30507350 -0.15131755 0.41055005
v -0.16428932 0.10480135 -0.03375039
v -0.16398085 0.10419742 -0.06272027
v -0.14979139 0.12879362 -0.07237690
v -0.16447440 0.10507586 -0.01443714
v -0.16762076 0.09980525 -0.00478051
v -0.16755906 0.09980525 0.00478051
v -0.01721244 0.33297501 0.46848982
v -0.16120465 0.10946804 -0.05306364
v -0.03535028 0.30272389 0.46848982
v -0.16657197 0.08931892 0.32364042
v -0.17261793 0.08322477 0.21732190
v -0.17379010 0.07553846 0.36226691
v -0.16484456 0.09601699 0.22697853
v -0.17662799 0.07070706 0.36226691
v -0.18335256 0.06571096 0.19800866
v -0.20401983 0.02936568 0.22697853
v -0.19168117 0.05379718 0.14006889
v -0.17144574 0.09085618 0.07237690
v -0.16663368 0.09892681 0.07237690
f 1 2 3
f 1 3 4
f 1 4 5
f 1 5 6
f 1 6 7
f 1 7 8
f 1 8 29
f 1 29 9
f 1 9 10
f 1 10 2
f 2 10 11
f 2 11 12
f 2 12 13
f 2 13 14
f 2 14 15
f 2 15 3
f 3 16 4
f 3 15 17
f 3 17 18
f 3 18 19
f 3 19 16
f 4 16 20
f 4 20 21
f 4 21 22
f 4 22 23
f 4 23 5
f 5 24 25
f 5 25 6
f 5 23 26
f 5 26 24
f 6 25 7
f 7 25 62
f 7 62 27
f 7 27 28
f 7 28 8
f 8 28 29
f 9 29 30
f 9 30 31
f 9 31 10
f 10 31 32
f 10 32 33
f 10 33 11
f 11 34 12
f 11 33 32
f 11 32 34
f 12 34 35
f 12 35 13
f 13 35 36
f 13 36 37
f 13 37 15
f 13 15 14
f 15 37 42
f 15 42 19
f 15 19 18
f 15 18 17
f 16 38 20
f 16 19 39
f 16 39 40
f 16 40 41
f 16 41 38
f 19 42 36
f 19 36 43
f 19 43 44
f 19 44 45
f 19 45 46
f 19 46 39
f 20 47 48
f 20 48 21
f 20 38 47
f 21 48 49
f 21 49 22
f 22 50 23
f 22 49 51
f 22 51 52
f 22 52 53
f 22 53 50
f 23 50 54
f 23 54 55
f 23 55 56
f 23 56 57
f 23 57 58
f 23 58 26
f 24 59 25
f 24 26 60
f 24 60 59
f 25 61 62
f 25 59 63
f 25 63 64
f 25 64 61
f 26 58 65
f 26 65 66
f 26 66 67
f 26 67 63
f 26 63 60
f 27 62 112
f 27 112 68
f 27 68 69
f 27 69 28
f 28 69 29
f 29 70 30
f 29 69 70
f 30 71 72
f 30 72 126
f 30 126 73
f 30 73 35
f 30 35 31
f 30 70 74
f 30 74 75
f 30 75 71
f 31 35 32
f 32 35 76
f 32 76 34
f 34 76 35
f 35 73 77
f 35 77 78
f 35 78 79
f 35 79 36
f 36 79 43
f 36 42 37
f 38 80 81
f 38 81 82
f 38 82 47
f 38 41 83
f 38 83 46
f 38 46 84
f 38 84 85
f 38 85 86
f 38 86 80
f 39 46 40
f 40 87 41
f 40 46 87
f 41 87 46
f 41 46 83
f 43 79 44
f 44 79 88
f 44 88 89
f 44 89 90
f 44 90 45
f 45 90 84
f 45 84 46
f 47 91 48
f 47 82 92
f 47 92 91
f 48 91 93
f 48 93 49
f 49 94 95
f 49 95 96
f 49 96 51
f 49 93 94
f 50 53 54
f 51 96 97
f 51 97 98
f 51 98 52
f 52 98 99
f 52 99 100
f 52 100 53
f 53 100 101
f 53 101 55
f 53 55 54
f 55 102 178
f 55 178 103
f 55 103 104
f 55 104 56
f 55 101 102
f 56 104 57
f 57 104 105
f 57 105 106
f 57 106 107
f 57 107 65
f 57 65 58
f 59 60 63
f 61 108 109
f 61 109 110
f 61 110 62
f 61 64 111
f 61 111 108
f 62 110 112
f 63 67 113
f 63 113 114
f 63 114 111
f 63 111 64
f 65 115 66
f 65 107 115
f 66 115 116
f 66 116 67
f 67 116 115
f 67 115 117
f 67 117 118
f 67 118 119
f 67 119 120
f 67 120 200
f 67 200 121
f 67 121 113
f 68 112 188
f 68 188 122
f 68 122 123
f 68 123 124
f 68 124 125
f 68 125 69
f 69 125 75
f 69 75 74
f 69 74 70
f 71 75 125
f 71 125 124
f 71 124 72
f 72 124 123
f 72 123 203
f 72 203 126
f 73 126 127
f 73 127 77
f 77 128 129
f 77 129 78
f 77 127 130
f 77 130 128
f 78 131 79
f 78 129 132
f 78 132 133
f 78 133 131
f 79 131 134
f 79 134 135
f 79 135 88
f 80 136 137
f 80 137 81
f 80 86 138
f 80 138 139
f 80 139 136
f 81 137 140
f 81 140 141
f 81 141 142
f 81 142 82
f 82 142 143
f 82 143 144
f 82 144 145
f 82 145 146
f 82 146 147
f 82 147 148
f 82 148 149
f 82 149 150
f 82 150 92
f 84 90 89
f 84 89 151
f 84 151 152
f 84 152 85
f 85 152 228
f 85 228 134
f 85 134 86
f 86 134 138
f 88 135 151
f 88 151 89
f 91 153 93
f 91 92 154
f 91 154 155
f 91 155 153
f 92 150 156
f 92 156 157
f 92 157 155
f 92 155 154
f 93 153 158
f 93 158 159
f 93 159 160
f 93 160 161
f 93 161 94
f 94 161 95
f 95 162 163
f 95 163 96
f 95 161 164
f 95 164 165
f 95 165 162
f 96 163 261
f 96 261 166
f 96 166 167
f 96 167 168
f 96 168 268
f 96 268 169
f 96 169 97
f 97 169 170
f 97 170 171
f 97 171 172
f 97 172 173
f 97 173 99
f 97 99 98
f 99 171 100
f 99 173 172
f 99 172 171
f 100 171 101
f 101 171 174
f 101 174 175
f 101 175 176
f 101 176 102
f 102 177 178
f 102 176 179
f 102 179 177
f 103 178 180
f 103 180 104
f 104 180 105
f 105 181 182
f 105 182 106
f 105 180 181
f 106 182 183
f 106 183 107
f 107 183 184
f 107 184 115
f 108 111 185
f 108 185 109
f 109 185 110
f 110 185 112
f 111 114 186
f 111 186 187
f 111 187 185
f 112 185 188
f 113 121 114
f 114 121 189
f 114 189 186
f 115 184 118
f 115 118 117
f 118 190 119
f 118 184 191
f 118 191 192
f 118 192 193
f 118 193 190
f 119 194 120
f 119 190 195
f 119 195 196
f 119 196 197
f 119 197 194
f 120 194 198
f 120 198 199
f 120 199 200
f 121 200 189
f 122 188 123
f 123 188 201
f 123 201 202
f 123 202 203
f 126 204 205
f 126 205 206
f 126 206 127
f 126 203 204
f 127 206 207
f 127 207 130
f 128 208 209
f 128 209 210
f 128 210 214
f 128 214 129
f 128 130 211
f 128 211 212
f 128 212 213
f 128 213 208
f 129 214 132
f 130 207 215
f 130 215 216
f 130 216 217
f 130 217 218
f 130 218 219
f 130 219 220
f 130 220 211
f 131 133 221
f 131 221 222
f 131 222 134
f 132 214 223
f 132 223 133
f 133 224 225
f 133 225 226
f 133 226 139
f 133 139 221
f 133 223 224
f 134 222 227
f 134 227 138
f 134 228 151
f 134 151 135
f 136 229 230
f 136 230 231
f 136 231 232
f 136 232 137
f 136 139 233
f 136 233 229
f 137 232 234
f 137 234 235
f 137 235 140
f 138 227 139
f 139 227 221
f 139 226 233
f 140 236 237
f 140 237 141
f 140 235 238
f 140 238 239
f 140 239 240
f 140 240 241
f 140 241 236
f 141 242 243
f 141 243 244
f 141 244 143
f 141 143 142
f 141 237 245
f 141 245 242
f 143 244 246
f 143 246 247
f 143 247 248
f 143 248 249
f 143 249 250
f 143 250 145
f 143 145 144
f 145 250 146
f 146 149 148
f 146 148 147
f 146 250 251
f 146 251 347
f 146 347 252
f 146 252 156
f 146 156 149
f 149 156 150
f 151 228 152
f 153 253 158
f 153 155 253
f 155 157 254
f 155 254 158
f 155 158 253
f 156 252 255
f 156 255 256
f 156 256 157
f 157 256 165
f 157 165 257
f 157 257 158
f 157 158 254
f 158 257 164
f 158 164 160
f 158 160 159
f 160 164 161
f 162 258 349
f 162 349 259
f 162 259 260
f 162 260 163
f 162 165 258
f 163 260 261
f 164 257 165
f 165 256 262
f 165 262 258
f 166 261 260
f 166 260 351
f 166 351 350
f 166 350 348
f 166 348 347
f 166 347 437
f 166 437 552
f 166 552 438
f 166 438 352
f 166 352 263
f 166 263 264
f 166 264 167
f 167 264 265
f 167 265 266
f 167 266 267
f 167 267 168
f 168 267 268
f 169 268 269
f 169 269 270
f 169 270 271
f 169 271 170
f 170 271 171
f 171 272 273
f 171 273 174
f 171 271 272
f 174 273 274
f 174 274 175
f 175 274 275
f 175 275 276
f 175 276 176
f 176 276 197
f 176 197 277
f 176 277 179
f 177 179 278
f 177 278 193
f 177 193 279
f 177 279 178
f 178 279 180
f 179 277 195
f 179 195 278
f 180 279 280
f 180 280 181
f 181 280 192
f 181 192 184
f 181 184 281
f 181 281 182
f 182 281 184
f 182 184 183
f 184 192 191
f 185 187 201
f 185 201 188
f 186 189 282
f 186 282 187
f 187 282 283
f 187 283 284
f 187 284 202
f 187 202 285
f 187 285 201
f 189 200 299
f 189 299 286
f 189 286 204
f 189 204 282
f 190 193 195
f 192 280 279
f 192 279 193
f 193 278 195
f 194 197 276
f 194 276 287
f 194 287 288
f 194 288 199
f 194 199 198
f 195 277 197
f 195 197 196
f 199 289 290
f 199 290 291
f 199 291 292
f 199 292 293
f 199 293 294
f 199 294 295
f 199 295 296
f 199 296 297
f 199 297 200
f 199 288 289
f 200 297 298
f 200 298 299
f 201 285 202
f 202 284 300
f 202 300 301
f 202 301 203
f 203 301 204
f 204 301 282
f 204 286 299
f 204 299 302
f 204 302 303
f 204 303 304
f 204 304 205
f 205 305 206
f 205 304 306
f 205 306 307
f 205 307 308
f 205 308 309
f 205 309 310
f 205 310 305
f 206 305 207
f 207 305 311
f 207 311 215
f 208 312 209
f 208 213 312
f 209 313 210
f 209 312 313
f 210 313 392
f 210 392 314
f 210 314 315
f 210 315 316
f 210 316 223
f 210 223 214
f 211 220 317
f 211 317 212
f 212 317 318
f 212 318 213
f 213 318 319
f 213 319 320
f 213 320 312
f 215 311 321
f 215 321 322
f 215 322 323
f 215 323 216
f 216 323 324
f 216 324 325
f 216 325 326
f 216 326 327
f 216 327 328
f 216 328 219
f 216 219 218
f 216 218 217
f 219 328 317
f 219 317 220
f 221 227 222
f 223 316 224
f 224 316 226
f 224 226 225
f 226 316 329
f 226 329 233
f 229 330 331
f 229 331 230
f 229 233 330
f 230 331 332
f 230 332 231
f 231 332 333
f 231 333 232
f 232 235 234
f 232 333 334
f 232 334 335
f 232 335 238
f 232 238 235
f 233 329 336
f 233 336 330
f 236 337 237
f 236 241 338
f 236 338 343
f 236 343 337
f 237 337 245
f 238 335 339
f 238 339 239
f 239 339 423
f 239 423 340
f 239 340 341
f 239 341 247
f 239 247 246
f 239 246 342
f 239 342 240
f 240 342 243
f 240 243 338
f 240 338 241
f 242 343 338
f 242 338 243
f 242 245 337
f 242 337 343
f 243 342 246
f 243 246 244
f 247 341 248
f 248 341 344
f 248 344 249
f 249 345 346
f 249 346 251
f 249 251 250
f 249 344 340
f 249 340 345
f 251 346 347
f 252 347 348
f 252 348 350
f 252 350 255
f 255 349 258
f 255 258 262
f 255 262 256
f 255 350 351
f 255 351 349
f 259 349 351
f 259 351 260
f 263 352 353
f 263 353 354
f 263 354 264
f 264 354 265
f 265 354 355
f 265 355 356
f 265 356 266
f 266 356 359
f 266 359 357
f 266 357 267
f 267 358 268
f 267 357 359
f 267 359 360
f 267 360 358
f 268 358 269
f 269 358 361
f 269 361 362
f 269 362 363
f 269 363 364
f 269 364 270
f 270 364 274
f 270 274 273
f 270 273 272
f 270 272 271
f 274 364 275
f 275 364 287
f 275 287 276
f 282 301 300
f 282 300 283
f 283 300 284
f 287 365 288
f 287 364 365
f 288 365 366
f 288 366 289
f 289 366 367
f 289 367 368
f 289 368 290
f 290 368 369
f 290 369 370
f 290 370 291
f 291 370 371
f 291 371 292
f 292 371 372
f 292 372 373
f 292 373 294
f 292 294 293
f 294 373 372
f 294 372 374
f 294 374 375
f 294 375 295
f 295 376 296
f 295 375 376
f 296 376 298
f 296 298 297
f 298 376 303
f 298 303 302
f 298 302 299
f 303 376 377
f 303 377 304
f 304 378 379
f 304 379 380
f 304 380 306
f 304 377 381
f 304 381 382
f 304 382 378
f 305 310 311
f 306 380 383
f 306 383 384
f 306 384 307
f 307 384 385
f 307 385 308
f 308 385 386
f 308 386 387
f 308 387 309
f 309 387 310
f 310 387 388
f 310 388 389
f 310 389 390
f 310 390 311
f 311 391 321
f 311 390 391
f 312 320 313
f 313 320 392
f 314 392 393
f 314 393 394
f 314 394 315
f 315 394 395
f 315 395 316
f 316 395 396
f 316 396 397
f 316 397 398
f 316 398 329
f 317 328 399
f 317 399 318
f 318 400 319
f 318 399 506
f 318 506 400
f 319 400 401
f 319 401 320
f 320 402 398
f 320 398 403
f 320 403 392
f 320 401 404
f 320 404 405
f 320 405 402
f 321 391 406
f 321 406 407
f 321 407 408
f 321 408 409
f 321 409 410
f 321 410 411
f 321 411 412
f 321 412 322
f 322 412 325
f 322 325 323
f 323 325 324
f 325 413 517
f 325 517 414
f 325 414 415
f 325 415 326
f 325 412 411
f 325 411 413
f 326 415 399
f 326 399 328
f 326 328 327
f 329 398 402
f 329 402 405
f 329 405 336
f 330 416 331
f 330 336 416
f 331 416 519
f 331 519 417
f 331 417 418
f 331 418 419
f 331 419 420
f 331 420 333
f 331 333 332
f 333 420 334
f 334 420 421
f 334 421 422
f 334 422 423
f 334 423 335
f 335 423 339
f 336 405 424
f 336 424 425
f 336 425 426
f 336 426 427
f 336 427 428
f 336 428 429
f 336 429 430
f 336 430 416
f 340 344 341
f 340 423 422
f 340 422 431
f 340 431 432
f 340 432 345
f 345 432 346
f 346 432 433
f 346 433 434
f 346 434 435
f 346 435 347
f 347 435 436
f 347 436 437
f 352 438 439
f 352 439 440
f 352 440 353
f 353 440 441
f 353 441 442
f 353 442 354
f 354 442 355
f 355 443 565
f 355 565 444
f 355 444 356
f 355 442 443
f 356 444 445
f 356 445 359
f 358 360 361
f 359 445 360
f 360 445 446
f 360 446 447
f 360 447 448
f 360 448 449
f 360 449 362
f 360 362 361
f 362 449 448
f 362 448 450
f 362 450 451
f 362 451 452
f 362 452 364
f 362 364 363
f 364 452 453
f 364 453 365
f 365 453 454
f 365 454 455
f 365 455 366
f 366 456 457
f 366 457 367
f 366 455 458
f 366 458 459
f 366 459 454
f 366 454 460
f 366 460 456
f 367 457 456
f 367 456 368
f 368 456 369
f 369 456 461
f 369 461 370
f 370 461 462
f 370 462 371
f 371 462 463
f 371 463 464
f 371 464 372
f 372 465 466
f 372 466 467
f 372 467 468
f 372 468 469
f 372 469 470
f 372 470 471
f 372 471 374
f 372 464 463
f 372 463 465
f 374 471 472
f 374 472 473
f 374 473 376
f 374 376 375
f 376 474 475
f 376 475 476
f 376 476 377
f 376 473 474
f 377 476 477
f 377 477 382
f 377 382 381
f 378 478 479
f 378 479 380
f 378 380 379
f 378 382 478
f 380 479 480
f 380 480 481
f 380 481 482
f 380 482 483
f 380 483 484
f 380 484 485
f 380 485 383
f 382 477 486
f 382 486 487
f 382 487 488
f 382 488 478
f 383 485 384
f 384 485 385
f 385 485 489
f 385 489 386
f 386 489 387
f 387 490 389
f 387 389 388
f 387 489 491
f 387 491 484
f 387 484 492
f 387 492 493
f 387 493 494
f 387 494 495
f 387 495 490
f 389 490 496
f 389 496 497
f 389 497 498
f 389 498 516
f 389 516 499
f 389 499 500
f 389 500 406
f 389 406 390
f 390 406 391
f 392 403 393
f 393 403 398
f 393 398 501
f 393 501 502
f 393 502 394
f 394 502 503
f 394 503 396
f 394 396 395
f 396 503 397
f 397 503 504
f 397 504 398
f 398 504 501
f 399 505 506
f 399 415 518
f 399 518 497
f 399 497 496
f 399 496 609
f 399 609 706
f 399 706 800
f 399 800 801
f 399 801 707
f 399 707 610
f 399 610 505
f 400 507 508
f 400 508 509
f 400 509 405
f 400 405 401
f 400 506 510
f 400 510 507
f 401 405 404
f 405 509 508
f 405 508 507
f 405 507 511
f 405 511 512
f 405 512 424
f 406 500 513
f 406 513 407
f 407 513 499
f 407 499 514
f 407 514 515
f 407 515 413
f 407 413 409
f 407 409 408
f 409 413 410
f 410 413 411
f 413 515 514
f 413 514 499
f 413 499 516
f 413 516 517
f 414 517 498
f 414 498 518
f 414 518 415
f 416 430 519
f 417 519 418
f 418 519 430
f 418 430 520
f 418 520 521
f 418 521 419
f 419 521 420
f 420 521 522
f 420 522 523
f 420 523 524
f 420 524 421
f 421 525 526
f 421 526 527
f 421 527 422
f 421 524 528
f 421 528 529
f 421 529 530
f 421 530 531
f 421 531 532
f 421 532 525
f 422 527 533
f 422 533 431
f 424 534 535
f 424 535 425
f 424 512 534
f 425 535 536
f 425 536 537
f 425 537 426
f 426 537 538
f 426 538 539
f 426 539 540
f 426 540 541
f 426 541 427
f 427 541 542
f 427 542 429
f 427 429 428
f 429 539 543
f 429 543 430
f 429 542 541
f 429 541 540
f 429 540 539
f 430 543 544
f 430 544 520
f 431 533 545
f 431 545 546
f 431 546 547
f 431 547 548
f 431 548 549
f 431 549 434
f 431 434 433
f 431 433 432
f 434 549 547
f 434 547 435
f 435 547 550
f 435 550 436
f 436 551 437
f 436 550 547
f 436 547 551
f 437 551 553
f 437 553 552
f 438 552 554
f 438 554 439
f 439 555 556
f 439 556 557
f 439 557 440
f 439 554 652
f 439 652 558
f 439 558 559
f 439 559 560
f 439 560 561
f 439 561 555
f 440 562 441
f 440 557 448
f 440 448 447
f 440 447 563
f 440 563 562
f 441 562 442
f 442 562 564
f 442 564 443
f 443 564 562
f 443 562 565
f 444 565 445
f 445 565 566
f 445 566 446
f 446 566 567
f 446 567 447
f 447 567 562
f 447 562 563
f 448 557 568
f 448 568 451
f 448 451 450
f 451 569 570
f 451 570 571
f 451 571 453
f 451 453 452
f 451 568 572
f 451 572 569
f 453 571 573
f 453 573 454
f 454 459 458
f 454 458 455
f 454 573 571
f 454 571 574
f 454 574 575
f 454 575 576
f 454 576 577
f 454 577 460
f 456 578 461
f 456 460 578
f 460 577 579
f 460 579 580
f 460 580 578
f 461 463 581
f 461 581 462
f 461 578 463
f 462 581 463
f 463 582 583
f 463 583 465
f 463 578 582
f 465 583 466
f 466 583 579
f 466 579 584
f 466 584 467
f 467 585 586
f 467 586 587
f 467 587 469
f 467 469 468
f 467 584 588
f 467 588 589
f 467 589 585
f 469 590 591
f 469 591 471
f 469 471 470
f 469 587 481
f 469 481 590
f 471 591 593
f 471 593 472
f 472 592 473
f 472 593 592
f 473 592 594
f 473 594 474
f 474 594 486
f 474 486 477
f 474 477 475
f 475 477 476
f 478 488 595
f 478 595 480
f 478 480 479
f 480 595 596
f 480 596 597
f 480 597 590
f 480 590 481
f 481 587 482
f 482 494 483
f 482 587 494
f 483 494 493
f 483 493 484
f 484 493 492
f 484 491 485
f 485 491 489
f 486 594 592
f 486 592 598
f 486 598 487
f 487 599 596
f 487 596 595
f 487 595 488
f 487 598 599
f 490 600 601
f 490 601 602
f 490 602 496
f 490 495 603
f 490 603 604
f 490 604 600
f 494 587 495
f 495 587 605
f 495 605 606
f 495 606 607
f 495 607 608
f 495 608 603
f 496 602 609
f 497 518 498
f 498 517 516
f 499 513 500
f 501 504 503
f 501 503 502
f 505 610 611
f 505 611 506
f 506 611 510
f 507 510 511
f 510 611 612
f 510 612 613
f 510 613 512
f 510 512 511
f 512 613 614
f 512 614 615
f 512 615 534
f 520 544 522
f 520 522 521
f 522 544 543
f 522 543 539
f 522 539 523
f 523 539 524
f 524 539 616
f 524 616 617
f 524 617 528
f 525 532 618
f 525 618 621
f 525 621 526
f 526 619 620
f 526 620 626
f 526 626 527
f 526 621 622
f 526 622 623
f 526 623 624
f 526 624 625
f 526 625 619
f 527 626 533
f 528 617 627
f 528 627 628
f 528 628 629
f 528 629 529
f 529 630 530
f 529 629 630
f 530 630 631
f 530 631 532
f 530 532 531
f 532 631 618
f 533 632 545
f 533 626 632
f 534 633 634
f 534 634 535
f 534 615 614
f 534 614 633
f 535 634 635
f 535 635 536
f 536 636 537
f 536 635 636
f 537 636 637
f 537 637 638
f 537 638 639
f 537 639 538
f 538 639 629
f 538 629 627
f 538 627 640
f 538 640 641
f 538 641 539
f 539 641 640
f 539 640 627
f 539 627 617
f 539 617 616
f 545 632 642
f 545 642 643
f 545 643 546
f 546 643 644
f 546 644 645
f 546 645 646
f 546 646 547
f 547 646 647
f 547 647 551
f 547 549 548
f 551 648 651
f 551 651 553
f 551 647 646
f 551 646 645
f 551 645 649
f 551 649 650
f 551 650 648
f 552 553 651
f 552 651 554
f 554 651 652
f 555 643 642
f 555 642 653
f 555 653 654
f 555 654 557
f 555 557 556
f 555 561 643
f 557 654 655
f 557 655 656
f 557 656 657
f 557 657 658
f 557 658 659
f 557 659 660
f 557 660 661
f 557 661 568
f 558 652 648
f 558 648 662
f 558 662 663
f 558 663 664
f 558 664 559
f 559 664 560
f 560 664 663
f 560 663 644
f 560 644 665
f 560 665 561
f 561 665 643
f 562 567 566
f 562 566 565
f 568 661 666
f 568 666 572
f 569 667 668
f 569 668 570
f 569 572 669
f 569 669 667
f 570 668 670
f 570 670 671
f 570 671 672
f 570 672 673
f 570 673 674
f 570 674 571
f 571 674 673
f 571 673 675
f 571 675 676
f 571 676 574
f 572 666 669
f 574 676 579
f 574 579 577
f 574 577 576
f 574 576 575
f 578 580 579
f 578 579 582
f 579 676 677
f 579 677 584
f 579 583 582
f 584 677 686
f 584 686 685
f 584 685 681
f 584 681 588
f 585 589 586
f 586 589 678
f 586 678 679
f 586 679 680
f 586 680 587
f 587 680 606
f 587 606 605
f 588 681 589
f 589 682 683
f 589 683 684
f 589 684 678
f 589 681 685
f 589 685 686
f 589 686 687
f 589 687 688
f 589 688 682
f 590 593 591
f 590 597 689
f 590 689 690
f 590 690 691
f 590 691 592
f 590 592 593
f 592 691 690
f 592 690 598
f 596 689 597
f 596 599 690
f 596 690 689
f 598 690 599
f 600 692 693
f 600 693 601
f 600 604 603
f 600 603 694
f 600 694 790
f 600 790 695
f 600 695 788
f 600 788 692
f 601 693 602
f 602 693 696
f 602 696 609
f 603 608 697
f 603 697 694
f 606 698 608
f 606 608 607
f 606 680 679
f 606 679 699
f 606 699 700
f 606 700 698
f 608 698 701
f 608 701 702
f 608 702 703
f 608 703 704
f 608 704 697
f 609 696 705
f 609 705 796
f 609 796 706
f 610 707 611
f 611 707 708
f 611 708 709
f 611 709 710
f 611 710 612
f 612 710 711
f 612 711 613
f 613 712 614
f 613 711 713
f 613 713 714
f 613 714 712
f 614 712 714
f 614 714 715
f 614 715 633
f 618 631 630
f 618 630 629
f 618 629 639
f 618 639 621
f 619 625 716
f 619 716 717
f 619 717 620
f 620 717 718
f 620 718 723
f 620 723 626
f 621 639 719
f 621 719 622
f 622 719 720
f 622 720 721
f 622 721 623
f 623 721 624
f 624 721 625
f 625 721 716
f 626 722 653
f 626 653 632
f 626 723 722
f 627 629 628
f 632 653 642
f 633 715 714
f 633 714 634
f 634 714 724
f 634 724 725
f 634 725 726
f 634 726 727
f 634 727 635
f 635 727 728
f 635 728 729
f 635 729 730
f 635 730 636
f 636 731 637
f 636 730 732
f 636 732 733
f 636 733 731
f 637 731 734
f 637 734 735
f 637 735 736
f 637 736 737
f 637 737 738
f 637 738 739
f 637 739 638
f 638 740 741
f 638 741 742
f 638 742 639
f 638 739 740
f 639 742 743
f 639 743 719
f 643 665 644
f 644 744 745
f 644 745 746
f 644 746 650
f 644 650 649
f 644 649 645
f 644 663 744
f 648 747 662
f 648 652 651
f 648 650 746
f 648 746 745
f 648 745 663
f 648 663 747
f 653 722 748
f 653 748 749
f 653 749 750
f 653 750 655
f 653 655 654
f 655 750 751
f 655 751 656
f 656 751 657
f 657 751 752
f 657 752 658
f 658 752 659
f 659 752 669
f 659 669 666
f 659 666 661
f 659 661 660
f 662 747 663
f 663 745 744
f 667 753 754
f 667 754 755
f 667 755 756
f 667 756 757
f 667 757 668
f 667 669 753
f 668 758 670
f 668 757 759
f 668 759 760
f 668 760 761
f 668 761 762
f 668 762 758
f 669 763 749
f 669 749 748
f 669 748 764
f 669 764 765
f 669 765 753
f 669 752 763
f 670 758 766
f 670 766 671
f 671 673 672
f 671 766 767
f 671 767 673
f 673 768 675
f 673 767 769
f 673 769 770
f 673 770 771
f 673 771 772
f 673 772 773
f 673 773 774
f 673 774 768
f 675 768 775
f 675 775 677
f 675 677 676
f 677 687 686
f 677 775 776
f 677 776 777
f 677 777 778
f 677 778 687
f 678 779 780
f 678 780 679
f 678 684 688
f 678 688 779
f 679 780 781
f 679 781 782
f 679 782 783
f 679 783 700
f 679 700 699
f 682 688 683
f 683 688 684
f 687 778 777
f 687 777 784
f 687 784 688
f 688 784 785
f 688 785 786
f 688 786 787
f 688 787 779
f 692 788 693
f 693 788 789
f 693 789 696
f 694 697 790
f 695 790 697
f 695 697 704
f 695 704 791
f 695 791 799
f 695 799 789
f 695 789 788
f 696 792 705
f 696 789 792
f 698 700 701
f 700 783 793
f 700 793 794
f 700 794 701
f 701 794 702
f 702 794 795
f 702 795 796
f 702 796 797
f 702 797 798
f 702 798 703
f 703 798 797
f 703 797 799
f 703 799 704
f 704 799 791
f 705 792 796
f 706 796 729
f 706 729 818
f 706 818 800
f 707 801 802
f 707 802 708
f 708 802 803
f 708 803 709
f 709 803 711
f 709 711 710
f 711 803 728
f 711 728 804
f 711 804 713
f 713 804 714
f 714 804 725
f 714 725 724
f 716 721 805
f 716 805 717
f 717 805 718
f 718 805 806
f 718 806 807
f 718 807 808
f 718 808 809
f 718 809 723
f 719 743 720
f 720 743 810
f 720 810 721
f 721 810 805
f 722 811 812
f 722 812 813
f 722 813 814
f 722 814 748
f 722 723 815
f 722 815 816
f 722 816 817
f 722 817 811
f 723 809 815
f 725 804 726
f 726 804 728
f 726 728 727
f 728 803 818
f 728 818 729
f 729 796 795
f 729 795 794
f 729 794 793
f 729 793 819
f 729 819 730
f 730 819 820
f 730 820 732
f 731 733 734
f 732 820 821
f 732 821 822
f 732 822 733
f 733 822 823
f 733 823 735
f 733 735 734
f 735 824 888
f 735 888 825
f 735 825 826
f 735 826 736
f 735 823 824
f 736 826 737
f 737 826 827
f 737 827 828
f 737 828 829
f 737 829 830
f 737 830 738
f 738 830 739
f 739 831 740
f 739 830 832
f 739 832 833
f 739 833 834
f 739 834 831
f 740 835 741
f 740 831 835
f 741 836 837
f 741 837 810
f 741 810 743
f 741 743 742
f 741 835 834
f 741 834 838
f 741 838 836
f 748 765 764
f 748 814 839
f 748 839 840
f 748 840 841
f 748 841 765
f 749 763 842
f 749 842 750
f 750 842 751
f 751 842 752
f 752 842 763
f 753 765 754
f 754 843 755
f 754 765 841
f 754 841 843
f 755 843 844
f 755 844 756
f 756 759 757
f 756 844 845
f 756 845 760
f 756 760 759
f 758 762 766
f 760 762 761
f 760 845 846
f 760 846 762
f 762 847 766
f 762 846 848
f 762 848 849
f 762 849 847
f 766 847 767
f 767 847 878
f 767 878 850
f 767 850 769
f 768 774 775
f 769 851 771
f 769 771 770
f 769 850 852
f 769 852 853
f 769 853 851
f 771 851 853
f 771 853 854
f 771 854 772
f 772 854 855
f 772 855 856
f 772 856 774
f 772 774 773
f 774 776 775
f 774 856 857
f 774 857 858
f 774 858 777
f 774 777 776
f 777 858 784
f 779 859 780
f 779 787 853
f 779 853 859
f 780 859 860
f 780 860 781
f 781 860 861
f 781 861 782
f 782 861 862
f 782 862 863
f 782 863 783
f 783 863 864
f 783 864 865
f 783 865 793
f 784 858 866
f 784 866 867
f 784 867 786
f 784 786 785
f 786 867 787
f 787 867 868
f 787 868 853
f 789 799 792
f 792 799 797
f 792 797 796
f 793 865 869
f 793 869 819
f 800 818 801
f 801 818 803
f 801 803 802
f 805 810 837
f 805 837 870
f 805 870 807
f 805 807 806
f 807 871 808
f 807 870 871
f 808 872 873
f 808 873 809
f 808 871 872
f 809 873 872
f 809 872 874
f 809 874 875
f 809 875 815
f 811 817 877
f 811 877 812
f 812 876 813
f 812 877 876
f 813 876 814
f 814 876 878
f 814 878 839
f 815 875 816
f 816 879 872
f 816 872 880
f 816 880 817
f 816 875 879
f 817 880 881
f 817 881 882
f 817 882 877
f 819 869 883
f 819 883 884
f 819 884 885
f 819 885 821
f 819 821 820
f 821 883 822
f 821 885 884
f 821 884 883
f 822 883 823
f 823 883 862
f 823 862 861
f 823 861 886
f 823 886 824
f 824 887 888
f 824 886 889
f 824 889 887
f 825 888 890
f 825 890 826
f 826 890 827
f 827 891 892
f 827 892 828
f 827 890 891
f 828 892 893
f 828 893 829
f 829 893 894
f 829 894 895
f 829 895 830
f 830 895 832
f 831 834 835
f 832 895 896
f 832 896 833
f 833 896 895
f 833 895 897
f 833 897 898
f 833 898 899
f 833 899 900
f 833 900 877
f 833 877 882
f 833 882 901
f 833 901 834
f 834 901 881
f 834 881 902
f 834 902 838
f 836 903 904
f 836 904 905
f 836 905 837
f 836 838 902
f 836 902 903
f 837 905 870
f 839 878 906
f 839 906 907
f 839 907 841
f 839 841 840
f 841 907 848
f 841 848 844
f 841 844 843
f 844 848 846
f 844 846 845
f 847 849 908
f 847 908 878
f 848 907 908
f 848 908 849
f 850 878 852
f 852 878 909
f 852 909 853
f 853 868 854
f 853 909 910
f 853 910 877
f 853 877 900
f 853 900 911
f 853 911 859
f 854 868 855
f 855 858 856
f 855 868 866
f 855 866 858
f 856 858 857
f 859 911 900
f 859 900 899
f 859 899 912
f 859 912 860
f 860 912 886
f 860 886 861
f 862 883 863
f 863 883 864
f 864 883 865
f 865 883 869
f 866 868 867
f 870 905 871
f 871 902 872
f 871 905 904
f 871 904 903
f 871 903 902
f 872 902 880
f 872 879 874
f 874 879 875
f 876 909 878
f 876 877 910
f 876 910 909
f 878 908 913
f 878 913 906
f 880 902 881
f 881 901 882
f 886 912 914
f 886 914 889
f 887 889 915
f 887 915 916
f 887 916 917
f 887 917 888
f 888 917 890
f 889 914 918
f 889 918 915
f 890 917 919
f 890 919 891
f 891 919 920
f 891 920 894
f 891 894 921
f 891 921 892
f 892 921 894
f 892 894 893
f 894 920 922
f 894 922 898
f 894 898 895
f 895 898 897
f 898 923 899
f 898 922 920
f 898 920 916
f 898 916 923
f 899 923 918
f 899 918 924
f 899 924 912
f 906 913 907
f 907 913 908
f 912 924 918
f 912 918 914
f 915 918 916
f 916 918 923
f 916 920 917
f 917 920 919

