mtllib material.mtl
usemtl material_0
v 0.00418000 0.35827899 0.47459501
v 0.00418000 0.35827899 0.47459501
v 0.00418000 0.35827899 0.47459501
v 0.00418000 0.35827899 0.47459501
v 0.16454500 0.09500000 -0.00000000
v 0.16454500 0.09500000 -0.00000000
v 0.16454500 0.09500000 -0.00000000
v 0.16454500 0.09500000 -0.00000000
v 0.16454500 0.09500000 -0.00000000
v 0.16454500 0.09500000 -0.00000000
v 0.00000000 0.36069199 -0.00000000
v 0.00000000 0.36069199 -0.00000000
v 0.00000000 0.36069199 -0.00000000
v 0.00000000 0.36069199 -0.00000000
v 0.00000000 0.36069199 -0.00000000
v 0.00000000 0.36069199 -0.00000000
v 0.30818799 -0.18276000 0.47459501
v 0.30818799 -0.18276000 0.47459501
v 0.30818799 -0.18276000 0.47459501
v 0.30818799 -0.18276000 0.47459501
v 0.00000000 -0.19000000 0.00000000
v 0.00000000 -0.19000000 0.00000000
v 0.00000000 -0.19000000 0.00000000
v 0.00000000 -0.19000000 0.00000000
v 0.00000000 -0.19000000 0.00000000
v 0.00000000 -0.19000000 0.00000000
v 0.31236899 -0.18034600 0.00000000
v 0.31236899 -0.18034600 0.00000000
v 0.31236899 -0.18034600 0.00000000
v 0.31236899 -0.18034600 0.00000000
v 0.31236899 -0.18034600 0.00000000
v 0.31236899 -0.18034600 0.00000000
v 0.15897100 0.08534600 0.48306301
v 0.15897100 0.08534600 0.48306301
v 0.15897100 0.08534600 0.48306301
v 0.15897100 0.08534600 0.48306301
v 0.15897100 0.08534600 0.48306301
v 0.15897100 0.08534600 0.48306301
v -0.00557400 -0.18034600 0.48306301
v -0.00557400 -0.18034600 0.48306301
v -0.00557400 -0.18034600 0.48306301
v -0.00557400 -0.18034600 0.48306301
v -0.00557400 -0.18034600 0.48306301
v -0.00557400 -0.18034600 0.48306301
v -0.31236899 -0.17551900 0.47459501
v -0.31236899 -0.17551900 0.47459501
v -0.31236899 -0.17551900 0.47459501
v -0.31236899 -0.17551900 0.47459501
v -0.16454500 0.09500000 -0.00000000
v -0.16454500 0.09500000 -0.00000000
v -0.16454500 0.09500000 -0.00000000
v -0.16454500 0.09500000 -0.00000000
v -0.16454500 0.09500000 -0.00000000
v -0.16454500 0.09500000 -0.00000000
v -0.31236899 -0.18034600 0.00000000
v -0.31236899 -0.18034600 0.00000000
v -0.31236899 -0.18034600 0.00000000
v -0.31236899 -0.18034600 0.00000000
v -0.31236899 -0.18034600 0.00000000
v -0.31236899 -0.18034600 0.00000000
v -0.00418000 0.35827899 -0.47459501
v -0.00418000 0.35827899 -0.47459501
v -0.00418000 0.35827899 -0.47459501
v -0.00418000 0.35827899 -0.47459501
v 0.15339801 0.09500000 -0.48306301
v 0.15339801 0.09500000 -0.48306301
v 0.15339801 0.09500000 -0.48306301
v 0.15339801 0.09500000 -0.48306301
v 0.15339801 0.09500000 -0.48306301
v 0.15339801 0.09500000 -0.48306301
v -0.15897100 0.08534600 -0.48306301
v -0.15897100 0.08534600 -0.48306301
v -0.15897100 0.08534600 -0.48306301
v -0.15897100 0.08534600 -0.48306301
v -0.15897100 0.08534600 -0.48306301
v -0.15897100 0.08534600 -0.48306301
v -0.15339801 0.09500000 0.48306301
v -0.15339801 0.09500000 0.48306301
v -0.15339801 0.09500000 0.48306301
v -0.15339801 0.09500000 0.48306301
v -0.15339801 0.09500000 0.48306301
v -0.15339801 0.09500000 0.48306301
v -0.30818799 -0.18276000 -0.47459501
v -0.30818799 -0.18276000 -0.47459501
v -0.30818799 -0.18276000 -0.47459501
v -0.30818799 -0.18276000 -0.47459501
v 0.31236899 -0.17551900 -0.47459501
v 0.31236899 -0.17551900 -0.47459501
v 0.31236899 -0.17551900 -0.47459501
v 0.31236899 -0.17551900 -0.47459501
v 0.00557400 -0.18034600 -0.48306301
v 0.00557400 -0.18034600 -0.48306301
v 0.00557400 -0.18034600 -0.48306301
v 0.00557400 -0.18034600 -0.48306301
v 0.00557400 -0.18034600 -0.48306301
v 0.00557400 -0.18034600 -0.48306301
vn 0.85020000 0.52649999 -0.00480000
vn -0.85790002 0.51380002 0.01020000
vn 0.86940002 0.49370000 0.01990000
vn 0.00100000 0.03160000 0.99949998
vn 0.88099998 0.47299999 0.00480000
vn 0.85020000 0.52649999 -0.00480000
vn 0.86229998 0.50610000 -0.01990000
vn 0.85000002 0.52640003 -0.01960000
vn 0.88090002 0.47290000 0.01960000
vn 0.86940002 0.49370000 0.01990000
vn 0.85000002 0.52640003 -0.01960000
vn 0.85790002 0.51380002 -0.01020000
vn -0.85790002 0.51380002 0.01020000
vn -0.85020000 0.52649999 0.00480000
vn -0.85000002 0.52640003 0.01960000
vn 0.85020000 0.52649999 -0.00480000
vn -0.00720000 -0.99980003 0.01990000
vn 0.87390000 0.48600000 0.01020000
vn 0.02680000 -0.01660000 0.99949998
vn 0.03090000 -0.99949998 -0.00480000
vn 0.03090000 -0.99949998 -0.00480000
vn -0.00720000 -0.99980003 0.01990000
vn -0.03090000 -0.99949998 0.00480000
vn 0.03090000 -0.99930000 -0.01960000
vn 0.00720000 -0.99980003 -0.01990000
vn -0.03090000 -0.99930000 0.01960000
vn 0.87390000 0.48600000 0.01020000
vn 0.88090002 0.47290000 0.01960000
vn 0.01600000 -0.99980003 -0.01020000
vn 0.88099998 0.47299999 0.00480000
vn 0.03090000 -0.99930000 -0.01960000
vn 0.03090000 -0.99949998 -0.00480000
vn 0.87390000 0.48600000 0.01020000
vn 0.00100000 0.03160000 0.99949998
vn 0.00000000 0.00000000 1.00000000
vn 0.88090002 0.47290000 0.01960000
vn 0.86940002 0.49370000 0.01990000
vn 0.02680000 -0.01660000 0.99949998
vn 0.00000000 0.00000000 1.00000000
vn -0.03090000 -0.99930000 0.01960000
vn -0.01600000 -0.99980003 0.01020000
vn -0.02780000 -0.01490000 0.99949998
vn 0.02680000 -0.01660000 0.99949998
vn -0.00720000 -0.99980003 0.01990000
vn -0.01600000 -0.99980003 0.01020000
vn -0.02780000 -0.01490000 0.99949998
vn -0.88099998 0.47299999 -0.00480000
vn -0.86229998 0.50610000 0.01990000
vn -0.88099998 0.47299999 -0.00480000
vn -0.86229998 0.50610000 0.01990000
vn -0.86940002 0.49370000 -0.01990000
vn -0.85020000 0.52649999 0.00480000
vn -0.88090002 0.47290000 -0.01960000
vn -0.85000002 0.52640003 0.01960000
vn -0.88090002 0.47290000 -0.01960000
vn -0.87390000 0.48600000 -0.01020000
vn -0.03090000 -0.99949998 0.00480000
vn -0.88099998 0.47299999 -0.00480000
vn -0.01600000 -0.99980003 0.01020000
vn -0.03090000 -0.99930000 0.01960000
vn -0.00100000 0.03160000 -0.99949998
vn -0.86940002 0.49370000 -0.01990000
vn 0.85790002 0.51380002 -0.01020000
vn -0.85020000 0.52649999 0.00480000
vn 0.85000002 0.52640003 -0.01960000
vn -0.00100000 0.03160000 -0.99949998
vn 0.85790002 0.51380002 -0.01020000
vn 0.86229998 0.50610000 -0.01990000
vn 0.00000000 -0.00000000 -1.00000000
vn 0.02780000 -0.01490000 -0.99949998
vn -0.86940002 0.49370000 -0.01990000
vn -0.02680000 -0.01660000 -0.99949998
vn -0.00100000 0.03160000 -0.99949998
vn 0.00000000 -0.00000000 -1.00000000
vn -0.88090002 0.47290000 -0.01960000
vn -0.87390000 0.48600000 -0.01020000
vn -0.85790002 0.51380002 0.01020000
vn -0.85000002 0.52640003 0.01960000
vn -0.86229998 0.50610000 0.01990000
vn -0.02780000 -0.01490000 0.99949998
vn 0.00000000 0.00000000 1.00000000
vn 0.00100000 0.03160000 0.99949998
vn -0.03090000 -0.99949998 0.00480000
vn 0.00720000 -0.99980003 -0.01990000
vn -0.87390000 0.48600000 -0.01020000
vn -0.02680000 -0.01660000 -0.99949998
vn 0.01600000 -0.99980003 -0.01020000
vn 0.86229998 0.50610000 -0.01990000
vn 0.88099998 0.47299999 0.00480000
vn 0.02780000 -0.01490000 -0.99949998
vn 0.03090000 -0.99930000 -0.01960000
vn 0.02780000 -0.01490000 -0.99949998
vn 0.00720000 -0.99980003 -0.01990000
vn -0.02680000 -0.01660000 -0.99949998
vn 0.00000000 -0.00000000 -1.00000000
vn 0.01600000 -0.99980003 -0.01020000
vt 1.00000000 1.00000000
vt -0.00000000 1.00000000
vt 1.00000000 1.00000000
vt 0.25000000 0.49000001
vt 0.83333302 0.75000000
vt 0.83333302 0.75000000
vt 0.83333302 0.75000000
vt 0.83333302 0.75000000
vt 0.83333302 0.75000000
vt 0.83333302 0.75000000
vt 1.00000000 0.75000000
vt 1.00000000 0.75000000
vt -0.00000000 0.75000000
vt -0.00000000 0.75000000
vt -0.00000000 0.75000000
vt 1.00000000 0.75000000
vt 0.66666698 1.00000000
vt 0.66666698 1.00000000
vt 0.45784599 0.13000000
vt 0.66666698 1.00000000
vt 0.50000000 0.75000000
vt 0.50000000 0.75000000
vt 0.50000000 0.75000000
vt 0.50000000 0.75000000
vt 0.50000000 0.75000000
vt 0.50000000 0.75000000
vt 0.66666698 0.75000000
vt 0.66666698 0.75000000
vt 0.66666698 0.75000000
vt 0.66666698 0.75000000
vt 0.66666698 0.75000000
vt 0.66666698 0.75000000
vt 0.83333302 1.00000000
vt 0.35392299 0.31000000
vt 0.35392299 0.31000000
vt 0.83333302 1.00000000
vt 0.83333302 1.00000000
vt 0.35392299 0.31000000
vt 0.25000000 0.13000000
vt 0.50000000 1.00000000
vt 0.50000000 1.00000000
vt 0.25000000 0.13000000
vt 0.25000000 0.13000000
vt 0.50000000 1.00000000
vt 0.33333299 1.00000000
vt 0.04215400 0.13000000
vt 0.33333299 1.00000000
vt 0.33333299 1.00000000
vt 0.16666700 0.75000000
vt 0.16666700 0.75000000
vt 0.16666700 0.75000000
vt 0.16666700 0.75000000
vt 0.16666700 0.75000000
vt 0.16666700 0.75000000
vt 0.33333299 0.75000000
vt 0.33333299 0.75000000
vt 0.33333299 0.75000000
vt 0.33333299 0.75000000
vt 0.33333299 0.75000000
vt 0.33333299 0.75000000
vt 0.75000000 0.49000001
vt -0.00000000 0.50000000
vt 1.00000000 0.50000000
vt -0.00000000 0.50000000
vt 0.83333302 0.50000000
vt 0.85392302 0.31000000
vt 0.83333302 0.50000000
vt 0.83333302 0.50000000
vt 0.85392302 0.31000000
vt 0.85392302 0.31000000
vt 0.16666700 0.50000000
vt 0.64607698 0.31000000
vt 0.64607698 0.31000000
vt 0.64607698 0.31000000
vt 0.16666700 0.50000000
vt 0.16666700 0.50000000
vt 0.16666700 1.00000000
vt 0.16666700 1.00000000
vt 0.16666700 1.00000000
vt 0.14607701 0.31000000
vt 0.14607701 0.31000000
vt 0.14607701 0.31000000
vt 0.33333299 0.50000000
vt 0.33333299 0.50000000
vt 0.33333299 0.50000000
vt 0.54215401 0.13000000
vt 0.66666698 0.50000000
vt 0.66666698 0.50000000
vt 0.66666698 0.50000000
vt 0.95784599 0.13000000
vt 0.50000000 0.50000000
vt 0.75000000 0.13000000
vt 0.50000000 0.50000000
vt 0.75000000 0.13000000
vt 0.75000000 0.13000000
vt 0.50000000 0.50000000
f 1/1/1 6/6/6 16/16/16
f 20/20/20 21/21/21 32/32/32
f 19/19/19 38/38/38 43/43/43
f 47/47/47 49/49/49 58/58/58
f 61/61/61 66/66/66 73/73/73
f 3/3/3 37/37/37 10/10/10
f 17/17/17 44/44/44 22/22/22
f 48/48/48 79/79/79 50/50/50
f 52/52/52 14/14/14 64/64/64
f 54/54/54 78/78/78 15/15/15
f 77/77/77 2/2/2 13/13/13
f 23/23/23 57/57/57 83/83/83
f 26/26/26 40/40/40 60/60/60
f 41/41/41 45/45/45 59/59/59
f 5/5/5 30/30/30 89/89/89
f 9/9/9 36/36/36 28/28/28
f 33/33/33 18/18/18 27/27/27
f 72/72/72 94/94/94 86/86/86
f 74/74/74 69/69/69 95/95/95
f 70/70/70 90/90/90 92/92/92
f 56/56/56 76/76/76 85/85/85
f 55/55/55 53/53/53 75/75/75
f 51/51/51 62/62/62 71/71/71
f 42/42/42 80/80/80 46/46/46
f 39/39/39 35/35/35 81/81/81
f 34/34/34 4/4/4 82/82/82
f 29/29/29 96/96/96 87/87/87
f 31/31/31 24/24/24 91/91/91
f 25/25/25 84/84/84 93/93/93
f 12/12/12 67/67/67 63/63/63
f 11/11/11 8/8/8 65/65/65
f 7/7/7 88/88/88 68/68/68

