# https://github.com/mikedh/trimesh
v -0.01670261 -0.04703422 0.00400040
v -0.01544964 -0.04755215 0.00400040
v -0.01670261 -0.04703422 0.00500001
v -0.01670261 -0.03069129 0.00400040
v -0.00782222 -0.04938378 0.00400040
v -0.01544964 -0.04755215 0.00500001
v -0.01390551 -0.04279633 0.00600000
v -0.01670261 -0.04163761 0.00600000
v 0.00000802 -0.03500291 0.00400040
v 0.00000802 -0.04499845 0.00600000
v -0.00782222 -0.04938378 0.00500001
v -0.00000015 -0.05000000 0.00400040
v -0.00704034 -0.04444461 0.00600000
v 0.00000802 -0.04999811 0.00400040
v -0.00000015 -0.04499845 0.00600000
v -0.00000015 -0.05000000 0.00500001
v 0.00000802 -0.04999811 0.00500001
f 1 2 6
f 1 6 3
f 1 3 8
f 1 8 4
f 1 4 9
f 1 9 14
f 1 14 12
f 1 12 5
f 1 5 2
f 2 5 11
f 2 11 6
f 3 6 7
f 3 7 8
f 4 8 10
f 4 10 9
f 5 12 16
f 5 16 11
f 6 11 7
f 7 11 13
f 7 13 15
f 7 15 10
f 7 10 8
f 9 10 17
f 9 17 14
f 10 15 16
f 10 16 17
f 11 16 13
f 12 14 17
f 12 17 16
f 13 16 15

