# https://github.com/mikedh/trimesh
v 0.00000803 0.03500146 0.00400040
v 0.01671330 0.03068285 0.00400040
v 0.00000803 0.04499817 0.00600000
v 0.00000803 0.04999748 0.00400040
v 0.01671330 0.04702891 0.00400040
v 0.01671330 0.04163442 0.00600000
v 0.00704105 0.04444417 0.00600000
v 0.00782268 0.04938297 0.00500001
v 0.00000803 0.04999748 0.00499805
v 0.00390963 0.04969117 0.00400040
v 0.01545092 0.04755266 0.00400040
v 0.01671330 0.04702891 0.00500001
v 0.01671330 0.04335695 0.00568076
v 0.01390565 0.04279727 0.00600000
v 0.01545092 0.04755266 0.00500001
v 0.00782268 0.04938297 0.00400040
f 1 2 3
f 1 3 9
f 1 9 4
f 1 4 10
f 1 10 16
f 1 16 11
f 1 11 5
f 1 5 2
f 2 5 12
f 2 12 13
f 2 13 6
f 2 6 3
f 3 6 14
f 3 14 7
f 3 7 8
f 3 8 9
f 4 9 10
f 5 11 15
f 5 15 12
f 6 13 14
f 7 14 8
f 8 15 11
f 8 11 16
f 8 16 10
f 8 10 9
f 8 14 15
f 12 15 13
f 13 15 14

