# https://github.com/mikedh/trimesh
v 0.04167458 -0.00000761 -0.02927980
v 0.03547135 0.02187707 -0.02927980
v 0.04738896 -0.00000761 -0.02927980
v 0.04391810 -0.00000761 -0.00639219
v 0.04139807 0.02187707 -0.02927980
v 0.03809754 0.02187707 -0.00639219
v 0.04738779 0.00072931 -0.02927980
v 0.04739013 -0.00000761 -0.00639219
v 0.04139807 0.02187707 -0.02825585
v 0.04211791 0.02136723 -0.02927980
v 0.04139691 0.02187707 -0.00639219
v 0.04738546 0.00166545 -0.02927980
v 0.04738663 0.00166545 -0.00639219
v 0.04249475 0.02098592 -0.02927980
v 0.04211791 0.02136509 -0.00639219
v 0.04249475 0.02098806 -0.00639219
v 0.04734579 0.00225884 -0.02927980
v 0.04729096 0.00306859 -0.00639219
v 0.04276775 0.02043752 -0.02927980
v 0.04279808 0.02037111 -0.00639219
v 0.04721862 0.00412255 -0.02927980
v 0.04721862 0.00411398 -0.00639219
v 0.04363693 0.01850311 -0.02927980
v 0.04331375 0.01922503 -0.00639219
v 0.04700629 0.00608694 -0.02927980
v 0.04710429 0.00518079 -0.00639219
v 0.04416893 0.01718138 -0.02927980
v 0.04363693 0.01850097 -0.00639219
v 0.04416426 0.01719209 -0.00639219
v 0.04697479 0.00630973 -0.02927980
v 0.04690129 0.00683028 -0.00639219
v 0.04700862 0.00606338 -0.00639219
v 0.04455277 0.01622596 -0.02927980
v 0.04455277 0.01622596 -0.00639219
v 0.04690129 0.00682814 -0.02927980
v 0.04604028 0.01124964 -0.00639219
v 0.04603911 0.01125392 -0.02927980
v 0.04532044 0.01387811 -0.02927980
v 0.04487710 0.01523626 -0.00639219
v 0.04587345 0.01192657 -0.00639219
v 0.04589095 0.01186445 -0.02927980
v 0.04531927 0.01388239 -0.00639219
f 1 2 5
f 1 5 10
f 1 10 14
f 1 14 19
f 1 19 23
f 1 23 27
f 1 27 33
f 1 33 38
f 1 38 41
f 1 41 37
f 1 37 35
f 1 35 30
f 1 30 25
f 1 25 21
f 1 21 17
f 1 17 12
f 1 12 7
f 1 7 3
f 1 3 8
f 1 8 4
f 1 4 2
f 2 4 6
f 2 6 11
f 2 11 9
f 2 9 5
f 3 7 8
f 4 8 13
f 4 13 18
f 4 18 22
f 4 22 26
f 4 26 32
f 4 32 31
f 4 31 36
f 4 36 40
f 4 40 42
f 4 42 39
f 4 39 34
f 4 34 29
f 4 29 28
f 4 28 24
f 4 24 20
f 4 20 16
f 4 16 15
f 4 15 11
f 4 11 6
f 5 9 10
f 7 12 13
f 7 13 8
f 9 11 10
f 10 11 15
f 10 15 16
f 10 16 14
f 12 17 13
f 13 17 18
f 14 16 19
f 16 20 19
f 17 21 18
f 18 21 22
f 19 20 24
f 19 24 23
f 21 25 26
f 21 26 22
f 23 24 28
f 23 28 29
f 23 29 27
f 25 30 31
f 25 31 32
f 25 32 26
f 27 29 34
f 27 34 33
f 30 35 31
f 31 35 37
f 31 37 36
f 33 34 39
f 33 39 38
f 36 37 41
f 36 41 40
f 38 39 42
f 38 42 40
f 38 40 41

