# https://github.com/mikedh/trimesh
v 0.02043192 0.04207052 -0.00638996
v 0.01795477 0.04386297 -0.00638996
v 0.02043192 0.03887935 -0.00638996
v 0.02043192 0.04207052 -0.03902141
v 0.01730699 0.04412592 -0.00638996
v 0.01795277 0.04386022 -0.03902141
v 0.01792678 0.04387399 -0.03902141
v 0.01739296 0.04409426 -0.03902141
v 0.00000696 0.04391804 -0.00638996
v 0.02043192 0.03332716 -0.03902141
v 0.01613540 0.04455682 -0.00638996
v 0.01572954 0.04470551 -0.03902141
v 0.00000696 0.04739005 -0.00638996
v 0.00000696 0.03909274 -0.03902141
v 0.01539165 0.04482941 -0.00638996
v 0.01538966 0.04482941 -0.03902141
v 0.00079869 0.04739005 -0.00638996
v 0.00000696 0.04739005 -0.03902141
v 0.01305646 0.04558246 -0.00638996
v 0.01521172 0.04488723 -0.03902141
v 0.01497380 0.04496433 -0.03902141
v 0.00275802 0.04731847 -0.00638996
v 0.00080869 0.04739005 -0.03902141
v 0.01204681 0.04583577 -0.00638996
v 0.01305446 0.04558246 -0.03902141
v 0.01288052 0.04562651 -0.03902141
v 0.00352175 0.04726478 -0.00638996
v 0.00280000 0.04731571 -0.03902141
v 0.00255608 0.04732535 -0.03902141
v 0.01066529 0.04618132 -0.00638996
v 0.01065529 0.04618407 -0.03902141
v 0.00799621 0.04671547 -0.00638996
v 0.00800021 0.04671547 -0.03902141
v 0.00351375 0.04726478 -0.03902141
v 0.00867597 0.04659846 -0.00638996
v 0.00857601 0.04661911 -0.03902141
v 0.00801020 0.04671410 -0.03902141
f 1 2 5
f 1 5 11
f 1 11 15
f 1 15 19
f 1 19 24
f 1 24 30
f 1 30 35
f 1 35 32
f 1 32 27
f 1 27 22
f 1 22 17
f 1 17 13
f 1 13 9
f 1 9 3
f 1 3 10
f 1 10 4
f 1 4 2
f 2 4 6
f 2 6 7
f 2 7 8
f 2 8 5
f 3 9 10
f 4 10 14
f 4 14 18
f 4 18 23
f 4 23 29
f 4 29 28
f 4 28 34
f 4 34 33
f 4 33 37
f 4 37 36
f 4 36 31
f 4 31 26
f 4 26 25
f 4 25 21
f 4 21 20
f 4 20 16
f 4 16 12
f 4 12 8
f 4 8 7
f 4 7 6
f 5 8 11
f 8 12 11
f 9 13 18
f 9 18 14
f 9 14 10
f 11 12 15
f 12 16 15
f 13 17 23
f 13 23 18
f 15 16 20
f 15 20 21
f 15 21 19
f 17 22 23
f 19 21 25
f 19 25 26
f 19 26 24
f 22 27 28
f 22 28 29
f 22 29 23
f 24 26 31
f 24 31 30
f 27 32 33
f 27 33 34
f 27 34 28
f 30 31 35
f 31 36 35
f 32 35 36
f 32 36 37
f 32 37 33

