# https://github.com/mikedh/trimesh
v 0.03167366 0.03337863 0.05737800
v 0.02632975 0.03898497 0.05737176
v 0.02702099 0.03742277 0.05737800
v 0.00001006 0.04595264 0.05737800
v 0.03167366 0.03313459 0.05736552
v 0.03167366 0.03437638 0.05736552
v 0.02928688 0.03684005 0.05736552
v 0.02322694 0.04090909 0.05737176
v 0.02939847 0.03702931 0.05725940
v 0.02642274 0.03919415 0.05725940
v 0.02329513 0.04114151 0.05725940
v 0.02111293 0.04103194 0.05737800
v 0.00381961 0.04611368 0.05737800
v 0.00001006 0.04688067 0.05737176
v 0.00001006 0.04581983 0.05736552
v 0.03167366 0.03287228 0.05727189
v 0.03167366 0.03479640 0.05735928
v 0.03167366 0.03513839 0.05725316
v 0.01300097 0.04521387 0.05737176
v 0.01444544 0.04385587 0.05737800
v 0.02002183 0.04296602 0.05722195
v 0.01987924 0.04266554 0.05735928
v 0.01646646 0.04408663 0.05736552
v 0.03167366 0.03519816 0.05722819
v 0.03167366 0.03533097 0.05689113
v 0.03154658 0.03545714 0.05682247
v 0.02936128 0.03717707 0.05688488
v 0.02647854 0.03926720 0.05686616
v 0.02345012 0.04116144 0.05688488
v 0.02103234 0.04254269 0.05682871
v 0.00944560 0.04608712 0.05737176
v 0.00204038 0.04701846 0.05736552
v 0.00001006 0.04701680 0.05736552
v 0.00001006 0.04563721 0.05727189
v 0.03167366 0.03276769 0.05672260
v 0.01651605 0.04430079 0.05725940
v 0.01301957 0.04544132 0.05725940
v 0.00944560 0.04632784 0.05725940
v 0.02004043 0.04308058 0.05680374
v 0.01903612 0.04347237 0.05682871
v 0.03167366 0.03535422 0.05682247
v 0.03009591 0.03661759 -0.00638995
v 0.02997502 0.03671554 0.04815861
v 0.02852435 0.03785109 0.04762804
v 0.02650334 0.03931535 0.04657315
v 0.02443583 0.04061359 0.04701633
v 0.02279918 0.04155157 0.04817110
v 0.02030391 0.04295440 0.05670387
v 0.00576624 0.04705001 0.05722195
v 0.00572594 0.04672296 0.05735928
v 0.00201868 0.04723760 0.05725940
v 0.00001006 0.04711641 0.05732182
v 0.00001006 0.04556417 0.05672260
v 0.03167366 0.03043352 -0.00638995
v 0.01643856 0.04443028 0.05688488
v 0.01304127 0.04553097 0.05686616
v 0.00958509 0.04639591 0.05688488
v 0.00684804 0.04696368 0.05682247
v 0.02203975 0.04195831 -0.00638995
v 0.01795432 0.04386251 -0.00638995
v 0.01730648 0.04412647 -0.00638995
v 0.01716389 0.04417960 0.04821479
v 0.03167366 0.03534425 0.05417587
v 0.03063216 0.03616603 -0.00638995
v 0.02911330 0.03739288 -0.00638995
v 0.02850265 0.03787101 -0.00638995
v 0.02763783 0.03849689 -0.00638995
v 0.02650334 0.03931535 -0.00638995
v 0.02441723 0.04062355 -0.00638995
v 0.02340362 0.04120460 -0.00638995
v 0.02265039 0.04163624 -0.00638995
v 0.00575074 0.04716622 0.05680374
v 0.00467514 0.04722930 0.05682247
v 0.00190709 0.04733555 0.05688488
v 0.00001006 0.04723926 0.05725940
v 0.00001006 0.04391895 -0.00638995
v 0.03167366 0.03420705 -0.00638995
v 0.01539705 0.04482706 0.04704130
v 0.01306297 0.04558077 0.04659812
v 0.01068549 0.04617843 0.04699136
v 0.00884425 0.04656524 0.04822103
v 0.00604211 0.04712637 0.05670387
v 0.01539395 0.04482872 -0.00638995
v 0.03090493 0.03571281 -0.00638995
v 0.03079644 0.03589376 -0.00638995
v 0.00799803 0.04671632 -0.00638995
v 0.00352204 0.04726417 -0.00638995
v 0.00275641 0.04731729 -0.00638995
v 0.00268512 0.04732061 0.04831466
v 0.00001006 0.04733389 0.05687240
v 0.00001006 0.04728409 0.05708463
v 0.00078499 0.04739200 0.04695391
v 0.00001006 0.04739034 -0.00638995
v 0.01439275 0.04515245 -0.00638995
v 0.01305987 0.04558243 -0.00638995
v 0.01066689 0.04618175 -0.00638995
v 0.00867687 0.04659844 -0.00638995
v 0.00188539 0.04735050 -0.00638995
v 0.00001006 0.04739034 0.04686652
v 0.00080049 0.04739034 -0.00638995
f 1 2 3
f 1 3 12
f 1 12 20
f 1 20 13
f 1 13 4
f 1 4 5
f 1 5 16
f 1 16 35
f 1 35 54
f 1 54 77
f 1 77 63
f 1 63 41
f 1 41 25
f 1 25 24
f 1 24 18
f 1 18 17
f 1 17 6
f 1 6 7
f 1 7 2
f 2 8 3
f 2 7 9
f 2 9 10
f 2 10 11
f 2 11 8
f 3 8 12
f 4 13 14
f 4 14 33
f 4 33 52
f 4 52 75
f 4 75 91
f 4 91 90
f 4 90 99
f 4 99 93
f 4 93 76
f 4 76 53
f 4 53 34
f 4 34 15
f 4 15 5
f 5 15 16
f 6 17 7
f 7 17 18
f 7 18 9
f 8 19 20
f 8 20 12
f 8 11 21
f 8 21 22
f 8 22 23
f 8 23 19
f 9 18 24
f 9 24 25
f 9 25 26
f 9 26 27
f 9 27 10
f 10 27 28
f 10 28 29
f 10 29 11
f 11 29 30
f 11 30 21
f 13 20 31
f 13 31 14
f 14 31 32
f 14 32 33
f 15 34 16
f 16 34 35
f 19 31 20
f 19 23 36
f 19 36 37
f 19 37 38
f 19 38 31
f 21 36 23
f 21 23 22
f 21 30 39
f 21 39 40
f 21 40 36
f 25 41 26
f 26 41 42
f 26 42 43
f 26 43 27
f 27 43 44
f 27 44 28
f 28 44 45
f 28 45 46
f 28 46 29
f 29 46 47
f 29 47 30
f 30 47 48
f 30 48 39
f 31 38 49
f 31 49 50
f 31 50 32
f 32 50 49
f 32 49 51
f 32 51 52
f 32 52 33
f 34 53 35
f 35 53 54
f 36 40 55
f 36 55 37
f 37 55 56
f 37 56 57
f 37 57 38
f 38 57 58
f 38 58 49
f 39 48 59
f 39 59 60
f 39 60 61
f 39 61 40
f 40 62 55
f 40 61 62
f 41 63 64
f 41 64 42
f 42 64 85
f 42 85 84
f 42 84 77
f 42 77 54
f 42 54 76
f 42 76 93
f 42 93 100
f 42 100 98
f 42 98 88
f 42 88 87
f 42 87 86
f 42 86 97
f 42 97 96
f 42 96 95
f 42 95 94
f 42 94 83
f 42 83 61
f 42 61 60
f 42 60 59
f 42 59 71
f 42 71 70
f 42 70 69
f 42 69 68
f 42 68 67
f 42 67 66
f 42 66 65
f 42 65 43
f 43 65 66
f 43 66 44
f 44 66 45
f 45 66 67
f 45 67 68
f 45 68 46
f 46 68 69
f 46 69 70
f 46 70 47
f 47 70 71
f 47 71 48
f 48 71 59
f 49 58 72
f 49 72 73
f 49 73 51
f 51 73 74
f 51 74 75
f 51 75 52
f 53 76 54
f 55 62 78
f 55 78 56
f 56 78 79
f 56 79 80
f 56 80 57
f 57 80 81
f 57 81 58
f 58 81 82
f 58 82 72
f 61 83 62
f 62 83 78
f 63 77 84
f 63 84 85
f 63 85 64
f 72 82 86
f 72 86 87
f 72 87 88
f 72 88 73
f 73 89 74
f 73 88 89
f 74 90 91
f 74 91 75
f 74 89 92
f 74 92 90
f 78 83 94
f 78 94 79
f 79 94 95
f 79 95 80
f 80 95 96
f 80 96 81
f 81 96 97
f 81 97 82
f 82 97 86
f 88 98 89
f 89 98 92
f 90 92 99
f 92 98 100
f 92 100 93
f 92 93 99

