# https://github.com/mikedh/trimesh
v 0.00000696 0.04739021 -0.02946615
v 0.00000696 0.04164109 -0.02946615
v 0.00000696 0.04738840 -0.03789769
v -0.00134029 0.04738840 -0.03789769
v -0.00137710 0.04738840 -0.02946615
v 0.00000696 0.03963217 -0.03789769
v -0.03004128 0.02885076 -0.02946615
v -0.00166790 0.04738658 -0.03789769
v -0.00166790 0.04738658 -0.02946615
v -0.02719216 0.02885076 -0.03789769
v -0.03759475 0.02885076 -0.02946615
v -0.00194398 0.04736843 -0.03789769
v -0.00367407 0.04725048 -0.02946615
v -0.03759843 0.02885076 -0.03789769
v -0.03725610 0.02928448 -0.02946615
v -0.00410843 0.04721963 -0.03789769
v -0.00411211 0.04721963 -0.02946615
v -0.03693585 0.02969462 -0.02946615
v -0.03703155 0.02957303 -0.03789769
v -0.00426671 0.04720329 -0.03789769
v -0.00443972 0.04718515 -0.02946615
v -0.03666713 0.03003579 -0.02946615
v -0.03666345 0.03003760 -0.03789769
v -0.00609986 0.04700549 -0.03789769
v -0.00608882 0.04700549 -0.02946615
v -0.03654566 0.03018097 -0.02946615
v -0.03658983 0.03012834 -0.03789769
v -0.00683607 0.04690023 -0.03789769
v -0.00646797 0.04695286 -0.02946615
v -0.03625117 0.03053121 -0.02946615
v -0.03625117 0.03053303 -0.03789769
v -0.00683607 0.04690023 -0.02946615
v -0.01126803 0.04603641 -0.03789769
v -0.01126435 0.04603823 -0.02946615
v -0.03618860 0.03060743 -0.03789769
v -0.03617019 0.03062740 -0.02946615
v -0.01128643 0.04603278 -0.03789769
v -0.01139318 0.04600737 -0.03789769
v -0.01185331 0.04589486 -0.03789769
v -0.01187540 0.04588760 -0.02946615
v -0.03617019 0.03062740 -0.03789769
v -0.03309653 0.03392661 -0.02946615
v -0.01373800 0.04536133 -0.03789769
v -0.01357603 0.04540669 -0.02946615
v -0.03309653 0.03392661 -0.03789769
v -0.03272107 0.03429137 -0.02946615
v -0.03291248 0.03410627 -0.03789769
v -0.01389628 0.04531596 -0.03789769
v -0.01389628 0.04531596 -0.02946615
v -0.03258855 0.03442022 -0.03789769
v -0.03267689 0.03433492 -0.03789769
v -0.03257751 0.03442929 -0.02946615
v -0.01417604 0.04522522 -0.03789769
v -0.01446316 0.04513085 -0.02946615
v -0.03185971 0.03508078 -0.02946615
v -0.03148424 0.03542014 -0.03789769
v -0.01604232 0.04461546 -0.03789769
v -0.01582882 0.04468442 -0.02946615
v -0.03109773 0.03576857 -0.02946615
v -0.03110141 0.03576676 -0.03789769
v -0.01623374 0.04455195 -0.03789769
v -0.01623374 0.04455195 -0.02946615
v -0.02998974 0.03669954 -0.02946615
v -0.02958483 0.03703708 -0.03789769
v -0.01642147 0.04447754 -0.03789769
v -0.01662761 0.04439406 -0.02946615
v -0.02920200 0.03735648 -0.02946615
v -0.02936397 0.03722037 -0.03789769
v -0.01852334 0.04363006 -0.03789769
v -0.01851966 0.04363006 -0.02946615
v -0.02803144 0.03820941 -0.03789769
v -0.02920200 0.03735466 -0.03789769
v -0.02770014 0.03845258 -0.02946615
v -0.02745719 0.03862861 -0.03789769
v -0.02011354 0.04291323 -0.03789769
v -0.02044115 0.04276624 -0.02946615
v -0.02721793 0.03880283 -0.02946615
v -0.02721793 0.03880283 -0.03789769
v -0.02046324 0.04275535 -0.03789769
v -0.02059944 0.04268820 -0.02946615
v -0.02594797 0.03965576 -0.02946615
v -0.02659583 0.03922203 -0.03789769
v -0.02056263 0.04270635 -0.03789769
v -0.02099331 0.04249221 -0.03789769
v -0.02099331 0.04249221 -0.02946615
v -0.02558723 0.03989712 -0.02946615
v -0.02558355 0.03989894 -0.03789769
v -0.02493937 0.04030181 -0.03789769
v -0.02493569 0.04030363 -0.02946615
v -0.02514551 0.04017296 -0.02946615
v -0.02507189 0.04022015 -0.03789769
v -0.02502035 0.04025100 -0.02946615
f 1 2 6
f 1 6 3
f 1 3 4
f 1 4 5
f 1 5 9
f 1 9 13
f 1 13 17
f 1 17 21
f 1 21 25
f 1 25 29
f 1 29 32
f 1 32 34
f 1 34 40
f 1 40 44
f 1 44 49
f 1 49 54
f 1 54 58
f 1 58 62
f 1 62 66
f 1 66 70
f 1 70 76
f 1 76 80
f 1 80 85
f 1 85 89
f 1 89 92
f 1 92 90
f 1 90 86
f 1 86 81
f 1 81 77
f 1 77 73
f 1 73 67
f 1 67 63
f 1 63 59
f 1 59 55
f 1 55 52
f 1 52 46
f 1 46 42
f 1 42 36
f 1 36 30
f 1 30 26
f 1 26 22
f 1 22 18
f 1 18 15
f 1 15 11
f 1 11 7
f 1 7 2
f 2 7 6
f 3 6 10
f 3 10 14
f 3 14 19
f 3 19 23
f 3 23 27
f 3 27 31
f 3 31 35
f 3 35 41
f 3 41 45
f 3 45 47
f 3 47 51
f 3 51 50
f 3 50 56
f 3 56 60
f 3 60 64
f 3 64 68
f 3 68 72
f 3 72 71
f 3 71 74
f 3 74 78
f 3 78 82
f 3 82 87
f 3 87 91
f 3 91 88
f 3 88 84
f 3 84 83
f 3 83 79
f 3 79 75
f 3 75 69
f 3 69 65
f 3 65 61
f 3 61 57
f 3 57 53
f 3 53 48
f 3 48 43
f 3 43 39
f 3 39 38
f 3 38 37
f 3 37 33
f 3 33 28
f 3 28 24
f 3 24 20
f 3 20 16
f 3 16 12
f 3 12 8
f 3 8 4
f 4 8 5
f 5 8 9
f 6 7 10
f 7 11 14
f 7 14 10
f 8 12 9
f 9 12 13
f 11 15 14
f 12 16 13
f 13 16 17
f 14 15 18
f 14 18 19
f 16 20 17
f 17 20 21
f 18 22 19
f 19 22 23
f 20 24 21
f 21 24 25
f 22 26 27
f 22 27 23
f 24 28 32
f 24 32 29
f 24 29 25
f 26 30 31
f 26 31 27
f 28 33 34
f 28 34 32
f 30 35 31
f 30 36 35
f 33 37 34
f 34 37 38
f 34 38 39
f 34 39 40
f 35 36 41
f 36 42 45
f 36 45 41
f 39 43 44
f 39 44 40
f 42 46 47
f 42 47 45
f 43 48 49
f 43 49 44
f 46 50 51
f 46 51 47
f 46 52 50
f 48 53 49
f 49 53 54
f 50 52 55
f 50 55 56
f 53 57 54
f 54 57 58
f 55 59 60
f 55 60 56
f 57 61 62
f 57 62 58
f 59 63 60
f 60 63 64
f 61 65 62
f 62 65 66
f 63 67 64
f 64 67 68
f 65 69 66
f 66 69 70
f 67 71 72
f 67 72 68
f 67 73 74
f 67 74 71
f 69 75 76
f 69 76 70
f 73 77 78
f 73 78 74
f 75 79 76
f 76 79 83
f 76 83 80
f 77 81 82
f 77 82 78
f 80 83 84
f 80 84 85
f 81 86 82
f 82 86 87
f 84 88 85
f 85 88 89
f 86 90 91
f 86 91 87
f 88 91 89
f 89 91 92
f 90 92 91

