# https://github.com/mikedh/trimesh
v 0.00000696 0.04595081 0.05737800
v -0.00671855 0.04566652 0.05737800
v -0.03175813 0.03328508 0.05737800
v -0.03175813 0.03304141 0.05736100
v 0.00000696 0.04581974 0.05736100
v 0.00000696 0.04687937 0.05736950
v -0.00161612 0.04701598 0.05736950
v -0.00526027 0.04675015 0.05736950
v -0.01409082 0.04396816 0.05737800
v -0.02699150 0.03746269 0.05737800
v -0.03173325 0.03473238 0.05736950
v -0.03175813 0.03470469 0.05736950
v -0.03175813 0.03278111 0.05726749
v 0.00000696 0.04563514 0.05726749
v 0.00000696 0.04701598 0.05736100
v 0.00000696 0.04711382 0.05731849
v 0.00000696 0.04723751 0.05725899
v -0.00166587 0.04723751 0.05725899
v -0.00534111 0.04697722 0.05725899
v -0.00900082 0.04620372 0.05735249
v -0.01259211 0.04534531 0.05736100
v -0.01606214 0.04421368 0.05736950
v -0.00906611 0.04652863 0.05721649
v -0.02078524 0.04119909 0.05737800
v -0.02894106 0.03709163 0.05736950
v -0.03175813 0.03501852 0.05725899
v -0.03175813 0.03267773 0.05671496
v 0.00000696 0.04556314 0.05671496
v 0.00000696 0.04728366 0.05708048
v -0.00166276 0.04733165 0.05685947
v -0.00522296 0.04708429 0.05687647
v -0.00800582 0.04677969 0.05681696
v -0.01267917 0.04554837 0.05725899
v -0.01618030 0.04441305 0.05725899
v -0.01958814 0.04302852 0.05725899
v -0.01945444 0.04283469 0.05736100
v -0.00911275 0.04663385 0.05679997
v -0.01015749 0.04635879 0.05682547
v -0.02598718 0.03923489 0.05736100
v -0.02613332 0.03940104 0.05725899
v -0.02911207 0.03724116 0.05725899
v -0.03175813 0.03514774 0.05687647
v -0.03175813 0.03036279 -0.00638422
v -0.03036825 0.02853336 -0.02946307
v 0.00000696 0.04164029 -0.02946307
v 0.00000696 0.04733350 0.05686797
v 0.00000696 0.04737227 0.05009307
v -0.00166897 0.04738519 0.04667587
v -0.00413158 0.04721720 0.04729641
v -0.00600651 0.04701414 0.04835047
v -0.00882358 0.04668554 0.05669796
v -0.01282531 0.04560560 0.05687647
v -0.01619895 0.04450167 0.05685947
v -0.01951352 0.04316513 0.05687647
v -0.02206940 0.04201689 0.05681696
v -0.02299288 0.04145199 0.05721649
v -0.02283430 0.04116217 0.05735249
v -0.00683982 0.04689783 -0.02946307
v -0.01126753 0.04603573 -0.02946307
v -0.01136703 0.04601173 -0.02946307
v -0.01188007 0.04588620 -0.02946307
v -0.01193604 0.04587143 -0.00638422
v -0.01207596 0.04583267 0.04823146
v -0.02397543 0.04095910 0.05681696
v -0.02628568 0.03941027 0.05687647
v -0.02916493 0.03731869 0.05685947
v -0.03175813 0.03516067 0.05514237
v -0.03175813 0.03517359 -0.00638422
v -0.03036825 0.03638275 -0.02946307
v 0.00000696 0.04738704 -0.02946307
v 0.00000696 0.04738888 0.04686288
v 0.00000696 0.04739073 0.01762118
v -0.00166897 0.04738704 -0.00638422
v -0.00367450 0.04724858 -0.02946307
v -0.00411292 0.04721720 -0.02946307
v -0.00606559 0.04700860 -0.00638422
v -0.00609047 0.04700490 -0.02946307
v -0.00646981 0.04695137 -0.02946307
v -0.01390115 0.04531393 0.04707539
v -0.01622694 0.04455151 0.04713490
v -0.01849987 0.04363587 0.04710940
v -0.02021623 0.04286791 0.04818046
v -0.02281565 0.04167537 0.05669796
v -0.02307061 0.04153507 0.05679997
v -0.01357777 0.04540623 -0.02946307
v -0.01313314 0.04553361 -0.00638422
v -0.02558607 0.03989578 -0.02946307
v -0.02559540 0.03989209 -0.00638422
v -0.02561095 0.03988101 0.04847798
v -0.02721537 0.03880292 0.04702440
v -0.02919603 0.03735931 0.04678638
v -0.03107718 0.03578648 0.04709240
v -0.03175813 0.03517543 0.04766193
v -0.03109273 0.03577540 -0.00638422
v -0.03036825 0.03638459 -0.00638422
v -0.02953495 0.03708056 -0.02946307
v -0.00124299 0.04738704 -0.02946307
v 0.00000696 0.04738888 -0.00638422
v -0.00063045 0.04738888 -0.00638422
v -0.00167208 0.04738519 -0.02946307
v -0.00224420 0.04734643 -0.02946307
v -0.01390115 0.04531393 -0.00638422
v -0.01525060 0.04487457 -0.00638422
v -0.01622694 0.04455151 -0.00638422
v -0.01662183 0.04439275 -0.02946307
v -0.01851231 0.04363033 -0.00638422
v -0.01923368 0.04330727 -0.00638422
v -0.02037481 0.04279592 -0.00638422
v -0.02044010 0.04276453 -0.02946307
v -0.02099046 0.04249132 -0.02946307
v -0.02493311 0.04030191 -0.02946307
v -0.02514455 0.04017268 -0.02946307
v -0.01389804 0.04531393 -0.02946307
v -0.02721848 0.03880292 -0.02946307
v -0.02885400 0.03761222 -0.02946307
v -0.02920225 0.03735746 -0.00638422
v -0.03000135 0.03669104 -0.00638422
v -0.02920225 0.03735746 -0.02946307
v -0.01446394 0.04512932 -0.02946307
v -0.01582894 0.04468258 -0.02946307
v -0.01623005 0.04454966 -0.02946307
v -0.01851542 0.04362849 -0.02946307
v -0.01987731 0.04301744 -0.02946307
f 1 2 9
f 1 9 24
f 1 24 10
f 1 10 3
f 1 3 4
f 1 4 5
f 1 5 14
f 1 14 28
f 1 28 45
f 1 45 70
f 1 70 98
f 1 98 72
f 1 72 71
f 1 71 47
f 1 47 46
f 1 46 29
f 1 29 17
f 1 17 16
f 1 16 15
f 1 15 6
f 1 6 7
f 1 7 2
f 2 7 8
f 2 8 9
f 3 10 11
f 3 11 12
f 3 12 26
f 3 26 42
f 3 42 67
f 3 67 93
f 3 93 68
f 3 68 43
f 3 43 27
f 3 27 13
f 3 13 4
f 4 13 5
f 5 13 14
f 6 15 7
f 7 15 16
f 7 16 17
f 7 17 18
f 7 18 19
f 7 19 8
f 8 20 21
f 8 21 22
f 8 22 9
f 8 19 23
f 8 23 20
f 9 22 24
f 10 24 25
f 10 25 11
f 11 25 26
f 11 26 12
f 13 27 14
f 14 27 28
f 17 29 18
f 18 29 30
f 18 30 31
f 18 31 19
f 19 31 32
f 19 32 23
f 20 23 21
f 21 23 33
f 21 33 22
f 22 33 34
f 22 34 35
f 22 35 36
f 22 36 24
f 23 32 37
f 23 37 38
f 23 38 33
f 24 36 39
f 24 39 25
f 25 39 40
f 25 40 41
f 25 41 26
f 26 41 42
f 27 43 44
f 27 44 28
f 28 44 45
f 29 46 30
f 30 46 47
f 30 47 48
f 30 48 49
f 30 49 31
f 31 49 50
f 31 50 32
f 32 50 51
f 32 51 37
f 33 38 52
f 33 52 34
f 34 52 53
f 34 53 54
f 34 54 35
f 35 54 55
f 35 55 56
f 35 56 36
f 36 56 57
f 36 57 39
f 37 51 58
f 37 58 59
f 37 59 60
f 37 60 61
f 37 61 38
f 38 61 62
f 38 62 63
f 38 63 52
f 39 57 56
f 39 56 40
f 40 56 64
f 40 64 65
f 40 65 41
f 41 65 66
f 41 66 42
f 42 66 67
f 43 68 69
f 43 69 44
f 44 69 96
f 44 96 118
f 44 118 115
f 44 115 114
f 44 114 87
f 44 87 112
f 44 112 111
f 44 111 110
f 44 110 109
f 44 109 123
f 44 123 122
f 44 122 105
f 44 105 121
f 44 121 120
f 44 120 119
f 44 119 113
f 44 113 85
f 44 85 61
f 44 61 60
f 44 60 59
f 44 59 58
f 44 58 78
f 44 78 77
f 44 77 75
f 44 75 74
f 44 74 101
f 44 101 100
f 44 100 97
f 44 97 70
f 44 70 45
f 47 71 48
f 48 72 73
f 48 73 49
f 48 71 72
f 49 73 74
f 49 74 75
f 49 75 76
f 49 76 50
f 50 76 51
f 51 76 77
f 51 77 78
f 51 78 58
f 52 63 79
f 52 79 53
f 53 79 80
f 53 80 81
f 53 81 54
f 54 81 82
f 54 82 55
f 55 82 83
f 55 83 84
f 55 84 56
f 56 84 64
f 61 85 86
f 61 86 62
f 62 86 63
f 63 86 79
f 64 84 87
f 64 87 88
f 64 88 89
f 64 89 65
f 65 89 90
f 65 90 66
f 66 90 91
f 66 91 92
f 66 92 67
f 67 92 93
f 68 93 94
f 68 94 69
f 69 94 95
f 69 95 96
f 70 97 99
f 70 99 98
f 72 98 99
f 72 99 73
f 73 99 97
f 73 97 100
f 73 100 101
f 73 101 74
f 75 77 76
f 79 86 102
f 79 102 103
f 79 103 80
f 80 103 104
f 80 104 105
f 80 105 81
f 81 105 106
f 81 106 82
f 82 106 107
f 82 107 108
f 82 108 83
f 83 108 109
f 83 109 110
f 83 110 84
f 84 110 111
f 84 111 112
f 84 112 87
f 85 113 102
f 85 102 86
f 87 114 88
f 88 114 89
f 89 114 90
f 90 114 115
f 90 115 116
f 90 116 91
f 91 116 117
f 91 117 95
f 91 95 92
f 92 95 94
f 92 94 93
f 95 117 96
f 96 117 116
f 96 116 118
f 102 113 103
f 103 113 119
f 103 119 120
f 103 120 104
f 104 120 121
f 104 121 105
f 105 122 106
f 106 122 107
f 107 122 108
f 108 122 123
f 108 123 109
f 115 118 116

