# https://github.com/mikedh/trimesh
v 0.03037284 -0.03637906 -0.02948263
v 0.02721736 -0.02882422 -0.03789451
v 0.03761387 -0.02882422 -0.03789451
v 0.03107384 -0.03578806 -0.02948263
v 0.03108372 -0.03578094 -0.00638259
v 0.03037284 -0.03637906 -0.01151179
v 0.03963393 -0.00000761 -0.03789451
v 0.03037284 -0.03637550 -0.00638259
v 0.03175510 -0.03514366 0.05688373
v 0.03175510 -0.03501549 0.05725676
v 0.03175510 -0.03474135 0.05735002
v 0.03175510 -0.03471287 0.05735935
v 0.03175510 -0.03342406 0.05737800
v 0.03175510 -0.03303599 0.05735935
v 0.03175510 -0.03277966 0.05726609
v 0.03175510 -0.03267285 0.05670654
v 0.04556181 -0.00000761 0.05671587
v 0.03777579 -0.02862129 -0.03789451
v 0.03664037 -0.03007031 -0.02948263
v 0.03616843 -0.03062215 -0.02948263
v 0.03309193 -0.03392962 -0.02948263
v 0.03255483 -0.03445297 -0.02948263
v 0.03131673 -0.03557445 -0.02948263
v 0.03175510 -0.03517214 0.04794028
v 0.04738836 -0.00000761 -0.03789451
v 0.03175510 -0.03515790 0.05525171
v 0.03189332 -0.03502973 0.05688373
v 0.03192886 -0.03486952 0.05725676
v 0.03467560 -0.03232039 0.05721014
v 0.03443469 -0.03209253 0.05735002
v 0.03683981 -0.02928349 0.05735935
v 0.03227640 -0.03300039 0.05737800
v 0.04595082 -0.00000761 0.05737800
v 0.04581852 -0.00000761 0.05735935
v 0.04563290 -0.00000761 0.05726609
v 0.03736901 -0.02914109 -0.02948263
v 0.03787650 -0.02848956 -0.03789451
v 0.03787452 -0.02849312 -0.00638259
v 0.03786860 -0.02850024 0.04712893
v 0.03670356 -0.02999198 0.04833196
v 0.03665814 -0.03004895 -0.00638259
v 0.03546743 -0.03153001 0.05681845
v 0.03477828 -0.03237735 0.05679048
v 0.03457686 -0.03259096 0.05669722
v 0.03253903 -0.03446721 -0.00638259
v 0.03249954 -0.03450281 0.04837859
v 0.04738836 -0.00082290 -0.03789451
v 0.04739033 -0.00000761 0.04661601
v 0.04739033 -0.00047400 -0.00638259
v 0.03397262 -0.03313924 0.05680912
v 0.03702740 -0.02939742 0.05725676
v 0.03898427 -0.02633205 0.05736867
v 0.03806211 -0.02621813 0.05737800
v 0.04601203 -0.00382063 0.05737800
v 0.04687890 -0.00000761 0.05736867
v 0.03800485 -0.02831511 -0.03789451
v 0.03931206 -0.02650650 0.04675590
v 0.03926467 -0.02648158 0.05685575
v 0.03717945 -0.02936182 0.05688373
v 0.04735874 -0.00162752 -0.03789451
v 0.04739033 -0.00081578 -0.00638259
v 0.04733307 -0.00000761 0.05686508
v 0.04733504 -0.00191234 0.05688373
v 0.04739033 -0.00080154 0.04676522
v 0.03919161 -0.02642106 0.05725676
v 0.04258010 -0.01785155 0.05737800
v 0.04113861 -0.02329872 0.05725676
v 0.04090955 -0.02322040 0.05735935
v 0.04482527 -0.01096604 0.05737800
v 0.04608312 -0.00945649 0.05736867
v 0.04701713 -0.00204406 0.05735935
v 0.04701515 -0.00000761 0.05735935
v 0.03931404 -0.02650294 -0.03789451
v 0.04061335 -0.02443088 0.04717556
v 0.04062717 -0.02440952 -0.02948263
v 0.04115835 -0.02344825 0.05688373
v 0.04733307 -0.00230752 -0.03789451
v 0.04731332 -0.00283088 -0.00638259
v 0.04731925 -0.00267423 0.04821073
v 0.04728370 -0.00000761 0.05707957
v 0.04723829 -0.00000761 0.05725676
v 0.04723829 -0.00202626 0.05725676
v 0.04722644 -0.00468221 0.05680912
v 0.04408478 -0.01647730 0.05735935
v 0.04521033 -0.01300606 0.05736867
v 0.04255048 -0.02101305 0.05680912
v 0.04296120 -0.02002330 0.05721014
v 0.04266106 -0.01988089 0.05735002
v 0.04632403 -0.00945293 0.05725676
v 0.04704872 -0.00577164 0.05721014
v 0.04671896 -0.00573248 0.05735002
v 0.04062717 -0.02440596 -0.03789451
v 0.04154736 -0.02280029 0.04831331
v 0.04117218 -0.02345893 -0.02948263
v 0.04090363 -0.02392533 -0.03789451
v 0.04730937 -0.00292345 -0.03789451
v 0.04716325 -0.00575740 0.05679048
v 0.04429804 -0.01652714 0.05725676
v 0.04543741 -0.01302386 0.05725676
v 0.04295133 -0.02030812 0.05669722
v 0.04307574 -0.02004466 0.05679048
v 0.04346869 -0.01903711 0.05680912
v 0.04639116 -0.00959178 0.05688373
v 0.04696184 -0.00685396 0.05680912
v 0.04167176 -0.02258668 -0.02948263
v 0.04155131 -0.02279317 -0.03789451
v 0.04726396 -0.00350020 -0.03789451
v 0.04712376 -0.00604934 0.05669722
v 0.04671501 -0.00800035 -0.03789451
v 0.04726198 -0.00352513 -0.03789451
v 0.04442442 -0.01645950 0.05688373
v 0.04552627 -0.01304878 0.05685575
v 0.04168361 -0.02256175 -0.03789451
v 0.04194624 -0.02205976 -0.03789451
v 0.04386362 -0.01795480 -0.03789451
v 0.04414007 -0.01727123 -0.03789451
v 0.04414994 -0.01724631 -0.00638259
v 0.04416574 -0.01720359 0.04838792
v 0.04617395 -0.01069190 0.04711028
v 0.04656098 -0.00885125 0.04822005
v 0.04659653 -0.00868036 -0.00638259
v 0.04661627 -0.00858423 -0.03789451
v 0.04482527 -0.01540566 0.04687713
v 0.04557958 -0.01306658 0.04650410
v 0.04481935 -0.01541634 -0.03789451
v 0.04481935 -0.01542346 -0.02948263
v 0.04617988 -0.01067766 -0.03789451
v 0.04648595 -0.00921084 -0.02948263
v 0.04544531 -0.01347957 -0.02948263
v 0.04557761 -0.01306658 -0.03789451
v 0.04574940 -0.01238657 -0.03789451
v 0.04592712 -0.01168165 -0.02948263
f 1 2 3
f 1 3 4
f 1 4 5
f 1 5 6
f 1 6 2
f 2 7 25
f 2 25 47
f 2 47 60
f 2 60 77
f 2 77 96
f 2 96 107
f 2 107 110
f 2 110 109
f 2 109 122
f 2 122 127
f 2 127 131
f 2 131 130
f 2 130 125
f 2 125 116
f 2 116 115
f 2 115 114
f 2 114 113
f 2 113 106
f 2 106 95
f 2 95 92
f 2 92 73
f 2 73 56
f 2 56 37
f 2 37 18
f 2 18 3
f 2 6 8
f 2 8 9
f 2 9 10
f 2 10 11
f 2 11 12
f 2 12 13
f 2 13 14
f 2 14 15
f 2 15 16
f 2 16 17
f 2 17 7
f 3 18 19
f 3 19 20
f 3 20 21
f 3 21 22
f 3 22 23
f 3 23 4
f 4 23 5
f 5 8 6
f 5 23 24
f 5 24 8
f 7 17 35
f 7 35 34
f 7 34 33
f 7 33 55
f 7 55 72
f 7 72 81
f 7 81 80
f 7 80 62
f 7 62 48
f 7 48 25
f 8 24 26
f 8 26 9
f 9 26 27
f 9 27 10
f 10 27 28
f 10 28 11
f 11 28 12
f 12 28 29
f 12 29 30
f 12 30 31
f 12 31 32
f 12 32 13
f 13 32 53
f 13 53 66
f 13 66 69
f 13 69 54
f 13 54 33
f 13 33 14
f 14 33 34
f 14 34 35
f 14 35 15
f 15 35 17
f 15 17 16
f 18 36 19
f 18 37 38
f 18 38 39
f 18 39 40
f 18 40 36
f 19 36 41
f 19 41 42
f 19 42 43
f 19 43 20
f 20 43 21
f 21 43 44
f 21 44 22
f 22 44 45
f 22 45 23
f 23 45 46
f 23 46 24
f 24 46 26
f 25 48 49
f 25 49 61
f 25 61 47
f 26 46 27
f 27 46 44
f 27 44 50
f 27 50 28
f 28 50 29
f 29 51 31
f 29 31 30
f 29 50 43
f 29 43 42
f 29 42 51
f 31 52 32
f 31 51 52
f 32 52 53
f 33 54 55
f 36 40 41
f 37 56 38
f 38 56 39
f 39 56 57
f 39 57 58
f 39 58 59
f 39 59 40
f 40 59 42
f 40 42 41
f 42 59 51
f 43 50 44
f 44 46 45
f 47 61 60
f 48 62 63
f 48 63 64
f 48 64 61
f 48 61 49
f 51 59 65
f 51 65 52
f 52 66 53
f 52 65 67
f 52 67 68
f 52 68 66
f 54 69 70
f 54 70 55
f 55 70 71
f 55 71 72
f 56 73 57
f 57 74 58
f 57 73 75
f 57 75 74
f 58 74 76
f 58 76 65
f 58 65 59
f 60 61 77
f 61 78 77
f 61 64 79
f 61 79 78
f 62 80 63
f 63 80 81
f 63 81 82
f 63 82 83
f 63 83 79
f 63 79 64
f 65 76 67
f 66 68 84
f 66 84 85
f 66 85 69
f 67 76 86
f 67 86 87
f 67 87 68
f 68 88 84
f 68 87 88
f 69 85 70
f 70 85 89
f 70 89 90
f 70 90 91
f 70 91 71
f 71 91 90
f 71 90 82
f 71 82 81
f 71 81 72
f 73 92 75
f 74 93 76
f 74 75 94
f 74 94 93
f 75 92 95
f 75 95 94
f 76 93 86
f 77 78 96
f 78 79 83
f 78 83 96
f 82 90 83
f 83 97 96
f 83 90 97
f 84 88 87
f 84 87 98
f 84 98 85
f 85 98 99
f 85 99 89
f 86 93 100
f 86 100 101
f 86 101 87
f 87 101 102
f 87 102 98
f 89 99 103
f 89 103 104
f 89 104 90
f 90 104 97
f 93 94 105
f 93 105 100
f 94 95 105
f 95 106 105
f 96 97 107
f 97 104 108
f 97 108 109
f 97 109 110
f 97 110 107
f 98 102 111
f 98 111 99
f 99 111 112
f 99 112 103
f 100 105 113
f 100 113 114
f 100 114 101
f 101 114 115
f 101 115 116
f 101 116 102
f 102 116 117
f 102 117 118
f 102 118 111
f 103 112 119
f 103 119 120
f 103 120 104
f 104 120 108
f 105 106 113
f 108 120 121
f 108 121 122
f 108 122 109
f 111 118 123
f 111 123 112
f 112 123 124
f 112 124 119
f 116 125 126
f 116 126 117
f 117 126 118
f 118 126 123
f 119 124 127
f 119 127 120
f 120 127 128
f 120 128 121
f 121 128 122
f 122 128 127
f 123 126 124
f 124 126 129
f 124 129 130
f 124 130 131
f 124 131 132
f 124 132 127
f 125 130 126
f 126 130 129
f 127 132 131

