# https://github.com/mikedh/trimesh
v 0.02043192 0.03409266 -0.03760998
v 0.02043192 0.03634982 -0.02927980
v 0.02043192 0.04206683 -0.03760998
v 0.03974253 -0.00000761 -0.03760998
v 0.02043192 0.04207095 -0.02927980
v 0.04167413 -0.00000761 -0.02927980
v 0.02152965 0.04203800 -0.03760998
v 0.04738709 -0.00000761 -0.03760998
v 0.02151382 0.04204212 -0.02927980
v 0.04738709 -0.00000761 -0.02927980
v 0.02202310 0.04195974 -0.03760998
v 0.04738709 0.00119511 -0.03760998
v 0.02194394 0.04197210 -0.02927980
v 0.04738709 0.00072967 -0.02927980
v 0.02204421 0.04195562 -0.02927980
v 0.02204685 0.04195562 -0.03760998
v 0.04738445 0.00166466 -0.03760998
v 0.04738445 0.00166466 -0.02927980
v 0.02213921 0.04190619 -0.02927980
v 0.02246642 0.04173732 -0.03760998
v 0.04731584 0.00268203 -0.03760998
v 0.04734487 0.00226190 -0.02927980
v 0.02258780 0.04167142 -0.02927980
v 0.02256405 0.04168377 -0.03760998
v 0.04721821 0.00412364 -0.03760998
v 0.04721821 0.00412364 -0.02927980
v 0.02346916 0.04116891 -0.02927980
v 0.02312347 0.04136662 -0.03760998
v 0.04700447 0.00609658 -0.03760998
v 0.04711002 0.00512041 -0.02927980
v 0.02441120 0.04062934 -0.03760998
v 0.02441384 0.04062522 -0.02927980
v 0.04700447 0.00608835 -0.02927980
v 0.04690156 0.00682563 -0.03760998
v 0.04690156 0.00682975 -0.02927980
v 0.02599711 0.03963257 -0.02927980
v 0.02624780 0.03947605 -0.03760998
v 0.04603867 0.01125755 -0.03760998
v 0.04603867 0.01125755 -0.02927980
v 0.02650640 0.03931129 -0.02927980
v 0.02650640 0.03931129 -0.03760998
v 0.04603340 0.01128226 -0.03760998
v 0.04598590 0.01147585 -0.02927980
v 0.02765163 0.03848752 -0.02927980
v 0.02749330 0.03859873 -0.03760998
v 0.04589618 0.01184243 -0.03760998
v 0.04589090 0.01186715 -0.02927980
v 0.02812925 0.03814153 -0.02927980
v 0.02849076 0.03787792 -0.03760998
v 0.02830869 0.03800973 -0.03760998
v 0.04572466 0.01245615 -0.03760998
v 0.04561647 0.01283509 -0.02927980
v 0.02849604 0.03787380 -0.02927980
v 0.02882853 0.03761431 -0.03760998
v 0.04532092 0.01387716 -0.03760998
v 0.04531829 0.01388128 -0.02927980
v 0.02916893 0.03734658 -0.02927980
v 0.02955155 0.03704591 -0.03760998
v 0.04513093 0.01445793 -0.02927980
v 0.04455304 0.01622905 -0.03760998
v 0.04455304 0.01622905 -0.02927980
v 0.03015056 0.03657223 -0.02927980
v 0.03016903 0.03655988 -0.03760998
v 0.04409653 0.01736174 -0.03760998
v 0.04438943 0.01663682 -0.02927980
v 0.03045930 0.03631274 -0.02927980
v 0.03055165 0.03623449 -0.02927980
v 0.03059123 0.03620153 -0.03760998
v 0.04363474 0.01850679 -0.03760998
v 0.04363474 0.01850679 -0.02927980
v 0.03063346 0.03616447 -0.02927980
v 0.03063346 0.03616447 -0.03760998
v 0.04356613 0.01866331 -0.03760998
v 0.04276658 0.02044267 -0.02927980
v 0.03392665 0.03309178 -0.02927980
v 0.03392665 0.03309589 -0.03760998
v 0.04275603 0.02046326 -0.03760998
v 0.04270589 0.02056624 -0.03760998
v 0.04261353 0.02075159 -0.03760998
v 0.04249479 0.02098636 -0.02927980
v 0.03418262 0.03282817 -0.02927980
v 0.03431456 0.03269224 -0.02927980
v 0.03435942 0.03264693 -0.03760998
v 0.04250534 0.02096577 -0.03760998
v 0.04249479 0.02098636 -0.03760998
v 0.04030723 0.02493226 -0.02927980
v 0.03445177 0.03254808 -0.02927980
v 0.03444650 0.03255632 -0.03760998
v 0.04029140 0.02495697 -0.03760998
v 0.03991142 0.02556657 -0.03760998
v 0.04001169 0.02540593 -0.02927980
v 0.03474468 0.03222681 -0.02927980
v 0.03578172 0.03108176 -0.03760998
v 0.03578172 0.03108176 -0.02927980
v 0.03990614 0.02557069 -0.02927980
v 0.03880313 0.02721824 -0.03760998
v 0.03880577 0.02721412 -0.02927980
v 0.03958685 0.02604848 -0.02927980
v 0.03703514 0.02958660 -0.03760998
v 0.03735707 0.02919943 -0.02927980
v 0.03735707 0.02919943 -0.03760998
f 1 2 5
f 1 5 3
f 1 3 7
f 1 7 11
f 1 11 16
f 1 16 20
f 1 20 24
f 1 24 28
f 1 28 31
f 1 31 37
f 1 37 41
f 1 41 45
f 1 45 50
f 1 50 49
f 1 49 54
f 1 54 58
f 1 58 63
f 1 63 68
f 1 68 72
f 1 72 76
f 1 76 83
f 1 83 88
f 1 88 93
f 1 93 99
f 1 99 101
f 1 101 96
f 1 96 90
f 1 90 89
f 1 89 85
f 1 85 84
f 1 84 79
f 1 79 78
f 1 78 77
f 1 77 73
f 1 73 69
f 1 69 64
f 1 64 60
f 1 60 55
f 1 55 51
f 1 51 46
f 1 46 42
f 1 42 38
f 1 38 34
f 1 34 29
f 1 29 25
f 1 25 21
f 1 21 17
f 1 17 12
f 1 12 8
f 1 8 4
f 1 4 2
f 2 4 6
f 2 6 10
f 2 10 14
f 2 14 18
f 2 18 22
f 2 22 26
f 2 26 30
f 2 30 33
f 2 33 35
f 2 35 39
f 2 39 43
f 2 43 47
f 2 47 52
f 2 52 56
f 2 56 59
f 2 59 61
f 2 61 65
f 2 65 70
f 2 70 74
f 2 74 80
f 2 80 86
f 2 86 91
f 2 91 95
f 2 95 98
f 2 98 97
f 2 97 100
f 2 100 94
f 2 94 92
f 2 92 87
f 2 87 82
f 2 82 81
f 2 81 75
f 2 75 71
f 2 71 67
f 2 67 66
f 2 66 62
f 2 62 57
f 2 57 53
f 2 53 48
f 2 48 44
f 2 44 40
f 2 40 36
f 2 36 32
f 2 32 27
f 2 27 23
f 2 23 19
f 2 19 15
f 2 15 13
f 2 13 9
f 2 9 5
f 3 5 7
f 4 8 10
f 4 10 6
f 5 9 7
f 7 9 11
f 8 12 14
f 8 14 10
f 9 13 11
f 11 13 15
f 11 15 16
f 12 17 18
f 12 18 14
f 15 19 20
f 15 20 16
f 17 21 22
f 17 22 18
f 19 23 20
f 20 23 24
f 21 25 22
f 22 25 26
f 23 27 28
f 23 28 24
f 25 29 26
f 26 29 30
f 27 31 28
f 27 32 31
f 29 33 30
f 29 34 35
f 29 35 33
f 31 32 36
f 31 36 37
f 34 38 35
f 35 38 39
f 36 40 37
f 37 40 41
f 38 42 39
f 39 42 43
f 40 44 41
f 41 44 45
f 42 46 47
f 42 47 43
f 44 48 49
f 44 49 50
f 44 50 45
f 46 51 47
f 47 51 52
f 48 53 49
f 49 53 54
f 51 55 52
f 52 55 56
f 53 57 54
f 54 57 58
f 55 59 56
f 55 60 61
f 55 61 59
f 57 62 63
f 57 63 58
f 60 64 65
f 60 65 61
f 62 66 63
f 63 66 67
f 63 67 68
f 64 69 65
f 65 69 70
f 67 71 68
f 68 71 72
f 69 73 70
f 70 73 74
f 71 75 76
f 71 76 72
f 73 77 74
f 74 77 78
f 74 78 79
f 74 79 80
f 75 81 76
f 76 81 82
f 76 82 83
f 79 84 80
f 80 84 85
f 80 85 86
f 82 87 88
f 82 88 83
f 85 89 86
f 86 89 90
f 86 90 91
f 87 92 88
f 88 92 94
f 88 94 93
f 90 95 91
f 90 96 97
f 90 97 98
f 90 98 95
f 93 94 99
f 94 100 99
f 96 101 100
f 96 100 97
f 99 100 101

