# https://github.com/mikedh/trimesh
v -0.043557970 0.024694770 0.003559835
v -0.017506470 0.007891510 -0.003964135
v -0.038316570 0.007891510 -0.005653215
v -0.028733270 0.019055850 0.001063735
v -0.045862190 0.015770870 -0.002656425
v -0.027878210 0.007891510 -0.005647065
v -0.045862190 0.007891510 0.001555815
v -0.021798410 0.012446400 0.000751265
v -0.039674120 0.020478740 -0.001233075
v -0.039671340 0.014061750 -0.004066245
v -0.025854390 0.013882450 -0.004003505
v -0.038830160 0.020819240 0.005438365
v -0.045862190 0.008664640 -0.004324595
v -0.045862190 0.020700810 0.000016825
v -0.033466620 0.020666260 0.004002705
v -0.045862190 0.021019930 0.006908465
v -0.019319300 0.007891510 0.001232275
v -0.022692340 0.007891510 -0.005221415
v -0.033161240 0.007891510 -0.005659375
v -0.032689290 0.020478740 -0.001246605
v -0.036786910 0.022893540 0.002166005
v -0.020166030 0.011043250 -0.003138665
v -0.025251960 0.015862980 -0.000367005
v -0.029205210 0.017269420 -0.002665035
v -0.041403670 0.017264490 -0.002647815
v -0.045021010 0.012309870 -0.004018265
v -0.024793890 0.013005690 0.002548595
v -0.031753730 0.017812260 0.003959655
v -0.026534550 0.016129470 0.002640865
v -0.042883360 0.007891510 -0.005301375
v -0.043538540 0.023076130 0.000919795
v -0.045862190 0.023771950 0.005721315
v -0.017506470 0.008529760 -0.001053455
v -0.031562170 0.021202520 0.002089735
v -0.037919590 0.022275040 0.000014365
v -0.041939470 0.021242000 -0.000594595
v -0.030590520 0.020672840 -0.000298105
v -0.045862190 0.024540140 0.003610275
v -0.045862190 0.018901220 -0.001190015
v -0.043655140 0.023699570 0.005475275
v -0.019113860 0.009284790 -0.004041645
v -0.045862190 0.022270100 0.001357755
f 1 38 32
f 31 38 1
f 16 7 17
f 13 30 7
f 35 31 1
f 35 37 20
f 14 31 39
f 16 17 27
f 27 17 29
f 33 17 2
f 22 37 23
f 22 33 2
f 23 33 22
f 26 13 5
f 30 13 26
f 5 10 26
f 26 10 30
f 5 39 25
f 25 10 5
f 40 32 16
f 1 32 40
f 1 40 34
f 34 40 15
f 34 15 29
f 38 31 42
f 31 14 42
f 29 15 28
f 28 27 29
f 29 17 8
f 17 33 8
f 39 31 36
f 36 25 39
f 31 35 36
f 30 10 3
f 11 6 10
f 37 22 11
f 12 40 16
f 15 40 12
f 12 28 15
f 16 27 12
f 27 28 12
f 1 34 21
f 21 34 37
f 21 35 1
f 37 35 21
f 23 37 4
f 37 34 4
f 4 33 23
f 4 8 33
f 4 34 29
f 29 8 4
f 25 36 9
f 20 10 9
f 10 25 9
f 9 35 20
f 9 36 35
f 10 6 19
f 19 3 10
f 24 10 20
f 24 11 10
f 20 37 24
f 37 11 24
f 6 11 18
f 2 18 41
f 41 18 11
f 41 22 2
f 41 11 22
f 42 7 16
f 42 39 5
f 16 32 42
f 42 32 38
f 5 13 42
f 42 13 7
f 42 14 39
f 7 30 18
f 2 17 18
f 18 17 7
f 18 19 6
f 30 3 18
f 3 19 18

