# https://github.com/mikedh/trimesh
v 0.071240810 0.010262010 -0.004956515
v 0.036438340 -0.007234300 0.000577625
v 0.096187010 -0.006435750 -0.001092395
v 0.060821850 -0.010655750 -0.003532895
v 0.049132290 0.009447090 -0.004172345
v 0.089991300 0.010065450 -0.004794205
v 0.081708170 -0.010461230 -0.006222725
v 0.036438340 0.006838510 0.000605005
v 0.048642190 -0.008051270 0.001298235
v 0.061203030 0.010067490 -0.000827425
v 0.071258960 -0.008223260 -0.007095865
v 0.097881150 0.004309790 -0.000682715
v 0.043214900 0.001631590 0.002881235
v 0.090154660 -0.007903840 -0.006880755
v 0.043154390 -0.007866990 -0.004006135
v 0.064676020 0.007645240 -0.006927685
v 0.050384740 -0.006603650 -0.005676155
v 0.041938240 0.007528530 -0.004044265
v 0.055860440 0.009123570 -0.005454195
v 0.088248760 -0.009040230 -0.000666095
v 0.083843990 0.009258710 -0.006939425
v 0.052121230 0.007653430 0.001293345
v 0.090874670 0.006928600 0.000734065
v 0.041690170 -0.004830470 0.002708175
v 0.095624310 -0.002113380 -0.005373045
v 0.093875720 -0.001810340 0.001458585
v 0.095412550 0.004510450 -0.005422905
v 0.041659920 0.007653430 0.001306055
v 0.063907600 -0.008020550 -0.006928665
v 0.036438340 0.004629200 -0.004108795
v 0.036438340 -0.005010660 -0.004129325
v 0.055987500 -0.010373190 -0.003775375
v 0.098038460 -0.001810340 -0.000841115
v 0.093869670 0.003028020 0.001462495
v 0.043402460 -0.008847760 0.000585445
f 1 5 10
f 10 5 28
f 33 27 12
f 1 10 6
f 6 10 23
f 6 12 27
f 23 12 6
f 33 12 26
f 2 31 15
f 29 16 11
f 28 5 8
f 19 16 30
f 19 5 1
f 11 14 7
f 7 29 11
f 20 4 7
f 7 14 20
f 20 14 3
f 33 26 3
f 3 26 20
f 25 27 33
f 25 14 27
f 33 3 25
f 25 3 14
f 22 10 28
f 23 10 22
f 21 6 27
f 27 14 21
f 1 6 21
f 11 16 21
f 21 14 11
f 21 19 1
f 16 19 21
f 34 12 23
f 34 26 12
f 20 26 24
f 24 8 2
f 30 16 17
f 16 29 17
f 17 31 30
f 17 15 31
f 17 29 15
f 15 29 32
f 32 7 4
f 29 7 32
f 30 8 18
f 18 8 5
f 18 19 30
f 5 19 18
f 35 24 2
f 35 4 20
f 35 32 4
f 2 15 35
f 15 32 35
f 28 8 13
f 8 24 13
f 13 22 28
f 23 22 13
f 13 34 23
f 26 34 13
f 13 24 26
f 20 24 9
f 9 35 20
f 24 35 9
f 30 31 8
f 8 31 2

