# https://github.com/mikedh/trimesh
v -0.071536620 0.008510280 0.012640895
v -0.045864960 0.024539980 0.003611135
v -0.055494730 0.008510280 -0.002640115
v -0.062484230 0.021201250 0.006485975
v -0.045864960 0.010863400 0.002672785
v -0.053736480 0.018735630 0.000231405
v -0.064021970 0.011313420 0.001687925
v -0.069665210 0.016539390 0.009133285
v -0.050985950 0.020570580 0.008233135
v -0.045864960 0.018900430 -0.001190235
v -0.045864960 0.008510280 -0.004325825
v -0.070495020 0.010882410 0.005232075
v -0.050211270 0.014164090 -0.002626825
v -0.058694990 0.014325720 0.000236395
v -0.063166060 0.017361790 0.011063135
v -0.052549810 0.024413210 0.003900115
v -0.057548930 0.022838130 0.005137405
v -0.075047320 0.008510280 0.008749645
v -0.062313040 0.017445770 0.003151095
v -0.045864960 0.021020610 0.006907815
v -0.073019240 0.013134110 0.009458805
v -0.067483350 0.014512700 0.004514605
v -0.049166760 0.021457950 0.000732975
v -0.059362310 0.020196620 0.009697955
v -0.066166120 0.018261840 0.006391315
v -0.068284140 0.008510280 0.003310525
v -0.055230710 0.014050000 -0.001137085
v -0.049483020 0.008510280 -0.004073375
v -0.062356570 0.008510280 0.000203175
v -0.045864960 0.015770870 -0.002655055
v -0.058700790 0.020480260 0.003117875
v -0.045864960 0.021553030 0.000729645
v -0.064320820 0.019586550 0.009101735
v -0.045864960 0.011669950 -0.004058435
v -0.073117890 0.010917270 0.007246625
v -0.052430850 0.023411750 0.006856335
v -0.053681350 0.010950550 -0.002625165
v -0.069644900 0.015038790 0.006402935
v -0.067985300 0.015368380 0.011189355
v -0.055631100 0.022074350 0.003101265
v -0.072389640 0.008510280 0.005864835
v -0.047277940 0.008510280 0.002229345
v -0.071031780 0.014731380 0.010689455
f 18 1 21
f 1 43 21
f 11 5 42
f 42 5 1
f 1 9 15
f 1 5 20
f 20 9 1
f 8 21 43
f 39 43 1
f 1 15 39
f 35 41 18
f 18 21 35
f 23 16 2
f 2 16 36
f 36 20 2
f 9 20 36
f 36 17 4
f 16 17 36
f 19 22 25
f 25 8 4
f 32 23 2
f 10 23 32
f 31 17 16
f 4 17 31
f 19 25 31
f 31 25 4
f 24 15 9
f 9 36 24
f 14 3 29
f 14 22 19
f 30 13 10
f 30 34 13
f 28 34 11
f 13 34 28
f 29 26 7
f 7 26 22
f 7 14 29
f 22 14 7
f 12 26 41
f 22 26 12
f 41 35 12
f 12 35 22
f 38 35 21
f 21 8 38
f 8 25 38
f 22 35 38
f 38 25 22
f 16 23 40
f 40 31 16
f 33 36 4
f 33 24 36
f 4 8 33
f 33 8 43
f 15 24 33
f 43 39 33
f 33 39 15
f 37 28 3
f 13 28 37
f 37 27 13
f 3 14 37
f 14 27 37
f 6 27 14
f 19 31 6
f 6 14 19
f 13 27 6
f 10 13 6
f 6 23 10
f 6 40 23
f 31 40 6
f 30 5 11
f 11 34 30
f 2 20 30
f 30 20 5
f 30 32 2
f 10 32 30
f 11 42 28
f 28 1 18
f 18 41 28
f 28 42 1
f 28 26 29
f 29 3 28
f 41 26 28

