# https://github.com/mikedh/trimesh
v -0.072595250 -0.008541800 0.012576325
v -0.045864960 -0.024896550 0.003731225
v -0.055308750 -0.008541800 -0.002627165
v -0.062488940 -0.021591650 0.007431645
v -0.045864960 -0.010924400 0.002695375
v -0.068605610 -0.014506300 0.004979515
v -0.050798980 -0.017468540 -0.001143375
v -0.063558260 -0.008541800 0.000727415
v -0.052237340 -0.020867900 0.008390095
v -0.058176760 -0.016102710 0.000729065
v -0.047021460 -0.008541800 -0.004239415
v -0.064398040 -0.016235610 0.011392255
v -0.072496450 -0.008541800 0.005860575
v -0.056689000 -0.022782950 0.003759225
v -0.070645470 -0.014429440 0.010784575
v -0.045864960 -0.020201800 -0.000687205
v -0.050813510 -0.022284970 0.001684225
v -0.045864960 -0.020616510 0.006891485
v -0.052333230 -0.012868260 -0.002612345
v -0.068161020 -0.008541800 0.011171585
v -0.050119020 -0.024283280 0.005709065
v -0.045864960 -0.016150740 -0.002650225
v -0.067507220 -0.018273950 0.008917075
v -0.075457440 -0.008541800 0.009155865
v -0.045864960 -0.012410320 -0.003998975
v -0.073243240 -0.012823430 0.008442795
v -0.062756270 -0.019287510 0.004482175
v -0.059600590 -0.020267450 0.009271145
v -0.070346170 -0.011295880 0.004986105
v -0.064171390 -0.019377180 0.009827775
v -0.047410840 -0.022664460 0.001428965
v -0.070991250 -0.015151590 0.007583155
v -0.058818930 -0.023101590 0.006096065
v -0.067809420 -0.016070680 0.011148525
v -0.072955560 -0.011513640 0.011184755
v -0.045864960 -0.023465070 0.006303565
v -0.049915620 -0.008541800 -0.004000625
v -0.066249020 -0.016080290 0.004485475
v -0.049072940 -0.020683760 0.000269595
f 20 5 11
f 35 1 24
f 19 22 7
f 7 22 16
f 14 33 27
f 2 33 14
f 28 12 30
f 9 12 28
f 28 36 9
f 30 12 34
f 34 23 30
f 15 23 34
f 34 12 1
f 1 35 34
f 34 35 15
f 18 20 1
f 1 12 18
f 18 12 9
f 5 20 18
f 9 36 18
f 3 19 8
f 22 19 25
f 11 5 25
f 10 6 8
f 8 19 10
f 10 19 7
f 10 14 27
f 7 14 10
f 17 14 7
f 2 14 17
f 4 33 30
f 30 23 4
f 27 33 4
f 32 6 27
f 27 4 32
f 32 4 23
f 36 28 21
f 2 36 21
f 21 33 2
f 30 33 21
f 21 28 30
f 11 25 37
f 19 3 37
f 37 25 19
f 27 6 38
f 38 10 27
f 6 10 38
f 7 16 39
f 39 17 7
f 16 17 39
f 31 16 2
f 2 17 31
f 31 17 16
f 24 13 26
f 26 35 24
f 6 32 26
f 15 35 26
f 26 23 15
f 26 32 23
f 6 26 29
f 29 26 13
f 29 13 8
f 8 6 29
f 2 16 25
f 25 36 2
f 5 18 25
f 25 16 22
f 25 18 36
f 37 20 11
f 24 1 37
f 37 13 24
f 1 20 37
f 8 13 37
f 37 3 8

