# https://github.com/mikedh/trimesh
v -0.017503690 0.008684050 -0.002385395
v 0.036438330 -0.007431090 -0.000695855
v 0.008643620 -0.003423600 0.004299235
v -0.017503690 -0.009069890 -0.001827405
v -0.007027870 -0.000184230 0.004306155
v 0.036438330 0.007031350 -0.000664705
v 0.018950470 0.004457580 0.004057875
v 0.029516060 -0.000196400 0.004302695
v -0.017503690 -0.000149470 0.001689225
v 0.005538890 0.005262210 0.003434995
v 0.015592300 -0.005653270 0.003428945
v -0.017503690 0.002438190 -0.004525645
v -0.015243790 0.005335200 0.002173685
v -0.015386350 -0.005027640 0.002589795
v 0.036438330 -0.003411430 0.002865765
v 0.036438330 0.003037750 0.002870085
v -0.017503690 -0.002342650 -0.004518725
v -0.010312130 0.002575480 0.004051815
v 0.036438330 -0.005010260 -0.004129435
v 0.036438330 0.004627890 -0.004109535
v 0.030767450 -0.004118740 0.003581205
v -0.007423880 -0.004226490 0.003590715
v -0.017503690 -0.006412710 -0.004218535
v 0.030894180 0.003036020 0.003994715
v 0.012107400 -0.005648050 0.003434135
v -0.017503690 0.007323310 0.000678795
v -0.017503690 0.006216300 -0.004250545
v 0.013855130 -0.003432290 0.004300095
v -0.017503690 -0.006621250 0.001325885
v 0.036438330 -0.006188530 0.001840625
v -0.015544750 0.002662380 0.002713505
v 0.005142880 0.003032540 0.004302695
v -0.008543270 -0.002175820 0.004126215
v 0.010370230 -0.004845160 0.004144385
v -0.017503690 -0.008228770 0.000080145
v 0.036438330 0.006332730 -0.003009995
v 0.031057860 -0.001435490 0.004126215
v 0.036438330 -0.006673390 -0.003073145
v -0.008775600 0.001416330 0.004296635
v -0.017503690 0.004396760 -0.004409725
v 0.015597580 -0.003420120 0.004298365
v -0.017503690 -0.008117550 -0.003950355
v -0.017503690 -0.004921630 0.001454785
v 0.017313630 0.004455850 0.004145245
v -0.007043710 0.001445880 0.004300965
v 0.029516060 -0.003234170 0.004133135
v 0.029510780 0.001430240 0.004300965
v 0.031052580 0.000182460 0.004129675
v -0.017503690 0.007792530 -0.004035135
v -0.007012030 -0.001812600 0.004298365
v -0.017503690 0.008482460 -0.000893095
f 2 4 38
f 51 6 1
f 31 26 9
f 9 14 31
f 23 17 19
f 1 6 36
f 49 36 20
f 1 36 49
f 34 14 29
f 34 25 11
f 10 51 26
f 6 51 10
f 6 24 16
f 19 38 42
f 42 23 19
f 42 38 4
f 12 20 19
f 19 17 12
f 43 14 9
f 43 29 14
f 35 11 25
f 35 25 34
f 34 29 35
f 30 11 35
f 2 30 35
f 35 4 2
f 22 14 34
f 22 33 14
f 34 50 22
f 22 50 33
f 5 8 32
f 27 49 20
f 34 46 41
f 41 46 8
f 47 32 8
f 7 24 6
f 18 31 14
f 34 11 21
f 21 46 34
f 21 11 30
f 30 46 21
f 15 46 30
f 20 12 40
f 40 27 20
f 3 50 34
f 5 50 3
f 32 47 44
f 44 47 24
f 24 7 44
f 10 18 44
f 44 18 32
f 6 10 44
f 44 7 6
f 32 18 39
f 39 50 5
f 33 50 39
f 14 33 39
f 39 18 14
f 26 31 13
f 31 18 13
f 13 10 26
f 13 18 10
f 48 15 16
f 48 47 8
f 48 16 24
f 24 47 48
f 34 41 28
f 28 3 34
f 28 41 8
f 28 8 5
f 5 3 28
f 5 32 45
f 45 39 5
f 32 39 45
f 46 15 37
f 15 48 37
f 8 46 37
f 37 48 8
f 2 38 15
f 15 30 2
f 15 38 19
f 19 20 15
f 15 36 6
f 20 36 15
f 6 16 15
f 1 49 40
f 40 43 9
f 9 26 40
f 40 51 1
f 26 51 40
f 17 23 40
f 40 42 4
f 40 12 17
f 23 42 40
f 4 35 40
f 29 43 40
f 40 35 29
f 49 27 40

