# https://github.com/mikedh/trimesh
v -0.017506470 -0.009068810 -0.001825985
v -0.045859410 0.007889870 0.001553695
v -0.045859410 -0.024897770 0.004097405
v -0.036982980 -0.009633680 -0.005494425
v -0.027878950 0.007889870 -0.005645675
v -0.028106550 -0.018661830 0.002161435
v -0.017509240 0.006407110 0.001321325
v -0.045859410 -0.001754500 -0.005567295
v -0.045859410 -0.016148840 -0.002649595
v -0.038315280 0.007889870 -0.005652545
v -0.028398000 -0.001886090 -0.006866645
v -0.036760940 -0.023187140 0.001121955
v -0.036586070 -0.000185080 -0.007092145
v -0.019391110 -0.001809060 -0.005491675
v -0.024662010 -0.012711530 -0.004028705
v -0.020848310 0.006060490 -0.005451795
v -0.031762040 -0.014451050 -0.004068575
v -0.017509240 -0.000149780 0.001688445
v -0.022977210 -0.006546190 -0.005473795
v -0.040363690 -0.014264900 -0.003988825
v -0.045859410 0.007889870 -0.004336695
v -0.041820890 -0.006613590 -0.005662175
v -0.039969550 -0.022192210 0.005509505
v -0.042123430 -0.022288500 0.000257095
v -0.021156410 -0.012233320 0.000750715
v -0.033174840 -0.019162500 0.004123525
v -0.030970990 0.002854250 -0.006920275
v -0.030027280 -0.009646510 -0.005491675
v -0.033083240 0.007889870 -0.005656675
v -0.045859410 -0.011376400 -0.004175825
v -0.045859410 -0.020802530 0.006927105
v -0.028134310 -0.017528900 -0.002617975
v -0.017509240 -0.004922220 0.001453325
v -0.017509240 0.002815740 -0.004523695
v -0.045859410 0.002963380 -0.005539795
v -0.041393440 -0.018665040 -0.002116105
v -0.045859410 -0.020199150 -0.000686135
v -0.017509240 0.007889870 -0.003962705
v -0.021181390 -0.011113230 -0.004034195
v -0.021014850 0.007889870 0.001450575
v -0.042148410 -0.024628180 0.003668415
v -0.031759270 -0.003234050 -0.006912025
v -0.017509240 -0.006414610 -0.004218445
f 6 32 1
f 13 8 35
f 34 38 1
f 43 34 1
f 14 34 43
f 23 31 3
f 32 6 12
f 25 6 1
f 10 35 21
f 13 35 10
f 16 5 38
f 38 34 16
f 16 34 14
f 14 11 16
f 1 32 39
f 39 43 1
f 41 23 3
f 3 12 41
f 6 23 41
f 41 12 6
f 1 38 7
f 22 30 8
f 22 8 13
f 13 11 42
f 5 16 27
f 27 16 11
f 27 11 13
f 27 29 5
f 10 29 27
f 13 10 27
f 28 42 19
f 19 42 11
f 19 11 14
f 14 43 19
f 43 39 19
f 15 17 28
f 28 19 15
f 15 19 39
f 32 17 15
f 15 39 32
f 3 37 24
f 24 12 3
f 32 12 24
f 33 25 1
f 6 25 33
f 31 23 33
f 2 31 40
f 31 7 40
f 40 7 38
f 9 30 20
f 1 7 18
f 18 33 1
f 18 7 31
f 31 33 18
f 26 23 6
f 6 33 26
f 26 33 23
f 4 22 13
f 13 42 4
f 30 22 4
f 4 20 30
f 4 42 28
f 28 17 4
f 17 20 4
f 36 37 9
f 9 20 36
f 36 24 37
f 32 24 36
f 36 17 32
f 36 20 17
f 3 31 37
f 37 31 2
f 2 21 37
f 8 30 37
f 37 35 8
f 21 35 37
f 37 30 9
f 40 21 2
f 5 29 40
f 38 5 40
f 40 10 21
f 40 29 10

