# https://github.com/mikedh/trimesh
v -0.073116650 -0.004998510 0.012829865
v -0.045864960 0.008508700 -0.004323465
v -0.055306760 -0.008541800 -0.002627265
v -0.063502570 0.008508700 0.000729065
v -0.075473250 0.008508700 0.009347235
v -0.065948390 -0.006510620 0.001694455
v -0.045864960 -0.002780410 -0.005483745
v -0.045864960 -0.008541800 0.001564535
v -0.055494420 0.008508700 -0.002639895
v -0.072492110 -0.008541800 0.005859185
v -0.065302320 0.001034920 0.000729065
v -0.077291460 0.001775960 0.010505705
v -0.072255220 0.004246080 0.004971385
v -0.047277070 0.008508700 0.002230385
v -0.048793790 -0.008541800 -0.004191735
v -0.068160400 -0.008541800 0.011171555
v -0.052054890 -0.003401280 -0.004074445
v -0.068704940 0.008508700 0.003567495
v -0.045864960 0.002965950 -0.005539685
v -0.077288390 -0.003768460 0.009419405
v -0.073347380 0.004831900 0.012824455
v -0.052051810 0.004606580 -0.004069035
v -0.072255220 -0.003773470 0.004976795
v -0.075519400 -0.008541800 0.010641035
v -0.072387510 0.008508700 0.005864595
v -0.062471940 -0.008541800 0.000205765
v -0.057266490 0.004609920 -0.002647105
v -0.071532250 0.008508700 0.012638595
v -0.057275720 -0.005008520 -0.002657935
v -0.064213240 -0.003306150 0.000270725
v -0.071523010 -0.008541800 0.012570025
v -0.049482930 0.008508700 -0.004072645
v -0.074854870 -0.006148450 0.007194495
v -0.066929790 0.005766530 0.002147375
v -0.076497720 0.004740100 0.008730095
v -0.075747060 -0.003035770 0.012109875
v -0.046840210 0.000123650 -0.005494575
v -0.073990370 0.006056940 0.006535855
v -0.045864960 -0.008541800 -0.004233245
v -0.075445560 0.006512580 0.011776055
v -0.071181520 -0.006517300 0.004520265
v -0.075747060 0.003371520 0.012113485
v -0.074039600 0.008508700 0.012097245
v -0.075448640 -0.006508960 0.011940255
v -0.074950240 -0.008541800 0.008425145
v -0.073685800 -0.008541800 0.012095445
f 14 8 2
f 1 28 21
f 9 27 4
f 12 42 40
f 40 5 12
f 36 42 12
f 12 44 36
f 36 44 1
f 1 21 36
f 36 21 42
f 15 7 39
f 29 15 3
f 26 29 3
f 30 29 26
f 4 27 11
f 27 29 11
f 11 29 30
f 5 40 43
f 43 21 28
f 42 21 43
f 43 40 42
f 31 28 1
f 2 19 32
f 37 19 7
f 28 31 16
f 16 14 28
f 8 14 16
f 1 44 46
f 46 31 1
f 44 24 46
f 9 32 22
f 27 9 22
f 22 32 19
f 19 37 22
f 22 29 27
f 22 37 29
f 17 37 7
f 29 37 17
f 7 15 17
f 15 29 17
f 10 41 26
f 30 26 6
f 6 41 30
f 26 41 6
f 4 11 34
f 11 13 34
f 23 13 11
f 23 11 30
f 30 41 23
f 12 5 35
f 5 25 35
f 4 34 18
f 13 25 18
f 18 34 13
f 33 10 45
f 41 10 33
f 33 23 41
f 13 23 33
f 33 35 13
f 38 25 13
f 13 35 38
f 38 35 25
f 20 33 45
f 45 24 20
f 12 35 20
f 35 33 20
f 20 44 12
f 20 24 44
f 8 39 19
f 2 8 19
f 39 7 19
f 10 26 3
f 3 15 10
f 10 39 8
f 10 24 45
f 10 15 39
f 10 46 24
f 8 16 10
f 10 16 31
f 31 46 10
f 18 14 2
f 18 43 28
f 28 14 18
f 2 32 18
f 18 9 4
f 5 43 18
f 18 32 9
f 18 25 5

