# https://github.com/mikedh/trimesh
v -0.01670261 -0.04702366 0.00299991
v -0.01670261 -0.04702366 0.00400040
v -0.01670261 -0.04163020 0.00000000
v -0.01544657 -0.04754245 0.00299991
v -0.01544657 -0.04754245 0.00400040
v -0.01670261 0.04702429 0.00400040
v -0.01390269 -0.04278524 0.00000000
v -0.01670261 0.04163083 0.00000000
v -0.00782201 -0.04937290 0.00299991
v -0.00782201 -0.04937290 0.00400040
v -0.01544657 0.04754308 0.00400040
v -0.01670261 0.04702429 0.00299991
v -0.00704026 -0.04442971 0.00000000
v -0.01670261 0.04335361 0.00095429
v -0.01390269 0.04279566 0.00000000
v 0.00000534 -0.04499744 0.00000000
v 0.00000534 -0.04999937 0.00299991
v 0.00000534 -0.04999937 0.00400040
v -0.00782201 0.04938332 0.00400040
v -0.01544657 0.04754308 0.00299991
v -0.00704026 0.04444013 0.00000000
v -0.00782201 0.04938332 0.00299991
v 0.00703786 -0.04443950 0.00000000
v 0.00781961 -0.04938269 0.00299991
v 0.00781961 -0.04938269 0.00400040
v -0.00390997 0.04968677 0.00400040
v 0.00000207 0.05000000 0.00299991
v 0.00000207 0.04499807 0.00000000
v 0.01390356 -0.04279503 0.00000000
v 0.01545071 -0.04755224 0.00299991
v 0.01545071 -0.04755224 0.00400040
v 0.00000534 0.04999021 0.00400040
v 0.00781961 0.04936375 0.00400040
v 0.00781961 0.04936375 0.00299991
v 0.00703786 0.04443034 0.00000000
v 0.00000534 0.04499807 0.00000000
v 0.01671330 -0.04163020 0.00000000
v 0.01671330 -0.04702366 0.00299991
v 0.01671330 -0.04702366 0.00400040
v 0.01545071 0.04753330 0.00400040
v 0.01545071 0.04753330 0.00299991
v 0.01390356 0.04277608 0.00000000
v 0.01671330 0.04162104 0.00000000
v 0.01671330 0.04701450 0.00400040
v 0.01671330 0.04701450 0.00299991
f 1 2 6
f 1 6 12
f 1 12 14
f 1 14 8
f 1 8 3
f 1 3 4
f 1 4 5
f 1 5 2
f 2 5 10
f 2 10 18
f 2 18 25
f 2 25 31
f 2 31 39
f 2 39 44
f 2 44 40
f 2 40 33
f 2 33 32
f 2 32 26
f 2 26 19
f 2 19 11
f 2 11 6
f 3 7 4
f 3 8 15
f 3 15 21
f 3 21 28
f 3 28 36
f 3 36 35
f 3 35 42
f 3 42 43
f 3 43 37
f 3 37 29
f 3 29 23
f 3 23 16
f 3 16 13
f 3 13 7
f 4 9 10
f 4 10 5
f 4 7 9
f 6 11 20
f 6 20 12
f 7 13 9
f 8 14 15
f 9 13 16
f 9 16 17
f 9 17 18
f 9 18 10
f 11 19 22
f 11 22 20
f 12 20 14
f 14 20 15
f 15 20 22
f 15 22 21
f 16 23 24
f 16 24 17
f 17 24 25
f 17 25 18
f 19 26 27
f 19 27 22
f 21 22 28
f 22 27 28
f 23 29 24
f 24 29 30
f 24 30 31
f 24 31 25
f 26 32 27
f 27 32 33
f 27 33 34
f 27 34 35
f 27 35 36
f 27 36 28
f 29 37 30
f 30 37 38
f 30 38 39
f 30 39 31
f 33 40 41
f 33 41 34
f 34 41 35
f 35 41 42
f 37 43 45
f 37 45 44
f 37 44 39
f 37 39 38
f 40 44 45
f 40 45 41
f 41 45 42
f 42 45 43

