# https://github.com/mikedh/trimesh
v 0.01671330 -0.04703008 0.00300000
v 0.02269918 -0.04454421 0.00300000
v 0.01671330 -0.04703008 0.00499980
v 0.01671330 -0.04162562 -0.00000000
v 0.02043097 -0.04008806 -0.00000000
v 0.02269918 -0.04454421 0.00499980
v 0.02732704 -0.03761140 0.00089742
v 0.02732704 -0.04170848 0.00300000
v 0.02043097 -0.04008806 0.00600000
v 0.01671330 -0.04162562 0.00600000
v 0.01671330 -0.02360768 -0.00000000
v 0.02644802 -0.03639609 -0.00000000
v 0.02732704 -0.04170848 0.00499980
v 0.02732704 -0.03565033 -0.00000000
v 0.02732704 -0.03761140 0.00570047
v 0.02644802 -0.03639609 0.00600000
v 0.01671330 -0.02360768 0.00341817
v 0.01671434 0.04162332 0.00600000
v 0.01671434 0.04702778 0.00300000
v 0.01671434 0.04162332 -0.00000000
v 0.02732704 -0.02360768 -0.00000000
v 0.02732704 -0.03565033 0.00600000
v 0.01671434 0.04702778 0.00499980
v 0.02043097 0.04008577 0.00600000
v 0.02269918 0.04454191 0.00300000
v 0.02043097 0.04008577 -0.00000000
v 0.02732704 -0.02360768 0.00424511
v 0.02732601 0.03564803 -0.00000000
v 0.02732601 0.03760911 0.00089742
v 0.02732601 0.04170619 0.00300000
v 0.02732601 0.03564803 0.00600000
v 0.02269918 0.04454191 0.00499980
v 0.02644698 0.03639379 0.00600000
v 0.02732601 0.03760911 0.00570047
v 0.02732601 0.04170619 0.00499980
v 0.02644698 0.03639379 -0.00000000
f 1 2 6
f 1 6 3
f 1 3 10
f 1 10 17
f 1 17 11
f 1 11 4
f 1 4 5
f 1 5 2
f 2 5 7
f 2 7 8
f 2 8 13
f 2 13 6
f 3 6 9
f 3 9 10
f 4 11 20
f 4 20 26
f 4 26 36
f 4 36 28
f 4 28 21
f 4 21 14
f 4 14 12
f 4 12 5
f 5 12 7
f 6 13 9
f 7 12 14
f 7 14 21
f 7 21 27
f 7 27 22
f 7 22 15
f 7 15 13
f 7 13 8
f 9 13 15
f 9 15 16
f 9 16 22
f 9 22 31
f 9 31 33
f 9 33 24
f 9 24 18
f 9 18 10
f 10 18 17
f 11 17 23
f 11 23 19
f 11 19 20
f 15 22 16
f 17 18 23
f 18 24 23
f 19 23 32
f 19 32 25
f 19 25 26
f 19 26 20
f 21 28 29
f 21 29 30
f 21 30 35
f 21 35 27
f 22 27 31
f 23 24 32
f 24 33 34
f 24 34 35
f 24 35 32
f 25 32 35
f 25 35 30
f 25 30 29
f 25 29 26
f 26 29 36
f 27 35 34
f 27 34 31
f 28 36 29
f 31 34 33

