mtllib material.mtl
usemtl Porcelain_White
v 0.00000000 0.00000000 0.00000000
v 0.02800000 0.00000000 0.00000000
v 0.03800000 0.00000000 0.01200000
v 0.04000000 0.00000000 0.02500000
v 0.03400000 0.00000000 0.04000000
v 0.03500000 0.00000000 0.04300000
v 0.03200000 0.00000000 0.04500000
v 0.03000000 0.00000000 0.04300000
v 0.02800000 0.00000000 0.04000000
v 0.03400000 0.00000000 0.02500000
v 0.03600000 0.00000000 0.01200000
v 0.02400000 0.00000000 0.00500000
v 0.00000000 0.00000000 0.00500000
v 0.02765500 0.00438000 0.00000000
v 0.03753200 0.00594500 0.01200000
v 0.03950800 0.00625700 0.02500000
v 0.03358100 0.00531900 0.04000000
v 0.03456900 0.00547500 0.04300000
v 0.03456900 0.00547500 0.04500000
v 0.03160600 0.00500600 0.04500000
v 0.02963100 0.00469300 0.04300000
v 0.02765500 0.00438000 0.04000000
v 0.03358100 0.00531900 0.02500000
v 0.03555700 0.00563200 0.01200000
v 0.02370500 0.00375400 0.00500000
v 0.02663000 0.00865200 0.00000000
v 0.03614000 0.01174300 0.01200000
v 0.03804200 0.01236100 0.02500000
v 0.03233600 0.01050700 0.04000000
v 0.03328700 0.01081600 0.04300000
v 0.03328700 0.01081600 0.04500000
v 0.03043400 0.00988900 0.04500000
v 0.02853200 0.00927100 0.04300000
v 0.02663000 0.00865200 0.04000000
v 0.03233600 0.01050700 0.02500000
v 0.03423800 0.01112500 0.01200000
v 0.02282500 0.00741600 0.00500000
v 0.02494800 0.01271200 0.00000000
v 0.03385800 0.01725200 0.01200000
v 0.03564000 0.01816000 0.02500000
v 0.03029400 0.01543600 0.04000000
v 0.03118500 0.01589000 0.04300000
v 0.03118500 0.01589000 0.04500000
v 0.02851200 0.01452800 0.04500000
v 0.02673000 0.01362000 0.04300000
v 0.02494800 0.01271200 0.04000000
v 0.03029400 0.01543600 0.02500000
v 0.03207600 0.01634400 0.01200000
v 0.02138400 0.01089600 0.00500000
v 0.02265200 0.01645800 0.00000000
v 0.03074300 0.02233600 0.01200000
v 0.03236100 0.02351100 0.02500000
v 0.02750700 0.01998500 0.04000000
v 0.02831600 0.02057200 0.04300000
v 0.02831600 0.02057200 0.04500000
v 0.02588900 0.01880900 0.04500000
v 0.02427100 0.01763400 0.04300000
v 0.02265200 0.01645800 0.04000000
v 0.02750700 0.01998500 0.02500000
v 0.02912500 0.02116000 0.01200000
v 0.01941600 0.01410700 0.00500000
v 0.01979900 0.01979900 0.00000000
v 0.02687000 0.02687000 0.01200000
v 0.02828400 0.02828400 0.02500000
v 0.02404200 0.02404200 0.04000000
v 0.02474900 0.02474900 0.04300000
v 0.02474900 0.02474900 0.04500000
v 0.02262700 0.02262700 0.04500000
v 0.02121300 0.02121300 0.04300000
v 0.01979900 0.01979900 0.04000000
v 0.02404200 0.02404200 0.02500000
v 0.02545600 0.02545600 0.01200000
v 0.01697100 0.01697100 0.00500000
v 0.01645800 0.02265200 0.00000000
v 0.02233600 0.03074300 0.01200000
v 0.02351100 0.03236100 0.02500000
v 0.01998500 0.02750700 0.04000000
v 0.02057200 0.02831600 0.04300000
v 0.02057200 0.02831600 0.04500000
v 0.01880900 0.02588900 0.04500000
v 0.01763400 0.02427100 0.04300000
v 0.01645800 0.02265200 0.04000000
v 0.01998500 0.02750700 0.02500000
v 0.02116000 0.02912500 0.01200000
v 0.01410700 0.01941600 0.00500000
v 0.01271200 0.02494800 0.00000000
v 0.01725200 0.03385800 0.01200000
v 0.01816000 0.03564000 0.02500000
v 0.01543600 0.03029400 0.04000000
v 0.01589000 0.03118500 0.04300000
v 0.01589000 0.03118500 0.04500000
v 0.01452800 0.02851200 0.04500000
v 0.01362000 0.02673000 0.04300000
v 0.01271200 0.02494800 0.04000000
v 0.01543600 0.03029400 0.02500000
v 0.01634400 0.03207600 0.01200000
v 0.01089600 0.02138400 0.00500000
v 0.00865200 0.02663000 0.00000000
v 0.01174300 0.03614000 0.01200000
v 0.01236100 0.03804200 0.02500000
v 0.01050700 0.03233600 0.04000000
v 0.01081600 0.03328700 0.04300000
v 0.01081600 0.03328700 0.04500000
v 0.00988900 0.03043400 0.04500000
v 0.00927100 0.02853200 0.04300000
v 0.00865200 0.02663000 0.04000000
v 0.01050700 0.03233600 0.02500000
v 0.01112500 0.03423800 0.01200000
v 0.00741600 0.02282500 0.00500000
v 0.00438000 0.02765500 0.00000000
v 0.00594500 0.03753200 0.01200000
v 0.00625700 0.03950800 0.02500000
v 0.00531900 0.03358100 0.04000000
v 0.00547500 0.03456900 0.04300000
v 0.00547500 0.03456900 0.04500000
v 0.00500600 0.03160600 0.04500000
v 0.00469300 0.02963100 0.04300000
v 0.00438000 0.02765500 0.04000000
v 0.00531900 0.03358100 0.02500000
v 0.00563200 0.03555700 0.01200000
v 0.00375400 0.02370500 0.00500000
v -0.00000000 0.02800000 0.00000000
v -0.00000000 0.03800000 0.01200000
v -0.00000000 0.04000000 0.02500000
v -0.00000000 0.03400000 0.04000000
v -0.00000000 0.03500000 0.04300000
v -0.00000000 0.03500000 0.04500000
v 0.00000000 0.03200000 0.04500000
v -0.00000000 0.03000000 0.04300000
v -0.00000000 0.02800000 0.04000000
v -0.00000000 0.03400000 0.02500000
v -0.00000000 0.03600000 0.01200000
v -0.00000000 0.02400000 0.00500000
v -0.00438000 0.02765500 0.00000000
v -0.00594500 0.03753200 0.01200000
v -0.00625700 0.03950800 0.02500000
v -0.00531900 0.03358100 0.04000000
v -0.00547500 0.03456900 0.04300000
v -0.00547500 0.03456900 0.04500000
v -0.00500600 0.03160600 0.04500000
v -0.00469300 0.02963100 0.04300000
v -0.00438000 0.02765500 0.04000000
v -0.00531900 0.03358100 0.02500000
v -0.00563200 0.03555700 0.01200000
v -0.00375400 0.02370500 0.00500000
v -0.00865200 0.02663000 0.00000000
v -0.01174300 0.03614000 0.01200000
v -0.01236100 0.03804200 0.02500000
v -0.01050700 0.03233600 0.04000000
v -0.01081600 0.03328700 0.04300000
v -0.01081600 0.03328700 0.04500000
v -0.00988900 0.03043400 0.04500000
v -0.00927100 0.02853200 0.04300000
v -0.00865200 0.02663000 0.04000000
v -0.01050700 0.03233600 0.02500000
v -0.01112500 0.03423800 0.01200000
v -0.00741600 0.02282500 0.00500000
v -0.01271200 0.02494800 0.00000000
v -0.01725200 0.03385800 0.01200000
v -0.01816000 0.03564000 0.02500000
v -0.01543600 0.03029400 0.04000000
v -0.01589000 0.03118500 0.04300000
v -0.01589000 0.03118500 0.04500000
v -0.01452800 0.02851200 0.04500000
v -0.01362000 0.02673000 0.04300000
v -0.01271200 0.02494800 0.04000000
v -0.01543600 0.03029400 0.02500000
v -0.01634400 0.03207600 0.01200000
v -0.01089600 0.02138400 0.00500000
v -0.01645800 0.02265200 0.00000000
v -0.02233600 0.03074300 0.01200000
v -0.02351100 0.03236100 0.02500000
v -0.01998500 0.02750700 0.04000000
v -0.02057200 0.02831600 0.04300000
v -0.02057200 0.02831600 0.04500000
v -0.01880900 0.02588900 0.04500000
v -0.01763400 0.02427100 0.04300000
v -0.01645800 0.02265200 0.04000000
v -0.01998500 0.02750700 0.02500000
v -0.02116000 0.02912500 0.01200000
v -0.01410700 0.01941600 0.00500000
v -0.01979900 0.01979900 0.00000000
v -0.02687000 0.02687000 0.01200000
v -0.02828400 0.02828400 0.02500000
v -0.02404200 0.02404200 0.04000000
v -0.02474900 0.02474900 0.04300000
v -0.02474900 0.02474900 0.04500000
v -0.02262700 0.02262700 0.04500000
v -0.02121300 0.02121300 0.04300000
v -0.01979900 0.01979900 0.04000000
v -0.02404200 0.02404200 0.02500000
v -0.02545600 0.02545600 0.01200000
v -0.01697100 0.01697100 0.00500000
v -0.02265200 0.01645800 0.00000000
v -0.03074300 0.02233600 0.01200000
v -0.03236100 0.02351100 0.02500000
v -0.02750700 0.01998500 0.04000000
v -0.02831600 0.02057200 0.04300000
v -0.02831600 0.02057200 0.04500000
v -0.02588900 0.01880900 0.04500000
v -0.02427100 0.01763400 0.04300000
v -0.02265200 0.01645800 0.04000000
v -0.02750700 0.01998500 0.02500000
v -0.02912500 0.02116000 0.01200000
v -0.01941600 0.01410700 0.00500000
v -0.02494800 0.01271200 0.00000000
v -0.03385800 0.01725200 0.01200000
v -0.03564000 0.01816000 0.02500000
v -0.03029400 0.01543600 0.04000000
v -0.03118500 0.01589000 0.04300000
v -0.03118500 0.01589000 0.04500000
v -0.02851200 0.01452800 0.04500000
v -0.02673000 0.01362000 0.04300000
v -0.02494800 0.01271200 0.04000000
v -0.03029400 0.01543600 0.02500000
v -0.03207600 0.01634400 0.01200000
v -0.02138400 0.01089600 0.00500000
v -0.02663000 0.00865200 0.00000000
v -0.03614000 0.01174300 0.01200000
v -0.03804200 0.01236100 0.02500000
v -0.03233600 0.01050700 0.04000000
v -0.03328700 0.01081600 0.04300000
v -0.03328700 0.01081600 0.04500000
v -0.03043400 0.00988900 0.04500000
v -0.02853200 0.00927100 0.04300000
v -0.02663000 0.00865200 0.04000000
v -0.03233600 0.01050700 0.02500000
v -0.03423800 0.01112500 0.01200000
v -0.02282500 0.00741600 0.00500000
v -0.02765500 0.00438000 0.00000000
v -0.03753200 0.00594500 0.01200000
v -0.03950800 0.00625700 0.02500000
v -0.03358100 0.00531900 0.04000000
v -0.03456900 0.00547500 0.04300000
v -0.03456900 0.00547500 0.04500000
v -0.03160600 0.00500600 0.04500000
v -0.02963100 0.00469300 0.04300000
v -0.02765500 0.00438000 0.04000000
v -0.03358100 0.00531900 0.02500000
v -0.03555700 0.00563200 0.01200000
v -0.02370500 0.00375400 0.00500000
v -0.02800000 -0.00000000 0.00000000
v -0.03800000 -0.00000000 0.01200000
v -0.04000000 -0.00000000 0.02500000
v -0.03400000 -0.00000000 0.04000000
v -0.03500000 0.00000000 0.04300000
v -0.03500000 0.00000000 0.04500000
v -0.03200000 0.00000000 0.04500000
v -0.03000000 -0.00000000 0.04300000
v -0.02800000 -0.00000000 0.04000000
v -0.03400000 -0.00000000 0.02500000
v -0.03600000 -0.00000000 0.01200000
v -0.02400000 -0.00000000 0.00500000
v -0.02765500 -0.00438000 0.00000000
v -0.03753200 -0.00594500 0.01200000
v -0.03950800 -0.00625700 0.02500000
v -0.03358100 -0.00531900 0.04000000
v -0.03456900 -0.00547500 0.04300000
v -0.03456900 -0.00547500 0.04500000
v -0.03160600 -0.00500600 0.04500000
v -0.02963100 -0.00469300 0.04300000
v -0.02765500 -0.00438000 0.04000000
v -0.03358100 -0.00531900 0.02500000
v -0.03555700 -0.00563200 0.01200000
v -0.02370500 -0.00375400 0.00500000
v -0.02663000 -0.00865200 0.00000000
v -0.03614000 -0.01174300 0.01200000
v -0.03804200 -0.01236100 0.02500000
v -0.03233600 -0.01050700 0.04000000
v -0.03328700 -0.01081600 0.04300000
v -0.03328700 -0.01081600 0.04500000
v -0.03043400 -0.00988900 0.04500000
v -0.02853200 -0.00927100 0.04300000
v -0.02663000 -0.00865200 0.04000000
v -0.03233600 -0.01050700 0.02500000
v -0.03423800 -0.01112500 0.01200000
v -0.02282500 -0.00741600 0.00500000
v -0.02494800 -0.01271200 0.00000000
v -0.03385800 -0.01725200 0.01200000
v -0.03564000 -0.01816000 0.02500000
v -0.03029400 -0.01543600 0.04000000
v -0.03118500 -0.01589000 0.04300000
v -0.03118500 -0.01589000 0.04500000
v -0.02851200 -0.01452800 0.04500000
v -0.02673000 -0.01362000 0.04300000
v -0.02494800 -0.01271200 0.04000000
v -0.03029400 -0.01543600 0.02500000
v -0.03207600 -0.01634400 0.01200000
v -0.02138400 -0.01089600 0.00500000
v -0.02265200 -0.01645800 0.00000000
v -0.03074300 -0.02233600 0.01200000
v -0.03236100 -0.02351100 0.02500000
v -0.02750700 -0.01998500 0.04000000
v -0.02831600 -0.02057200 0.04300000
v -0.02831600 -0.02057200 0.04500000
v -0.02588900 -0.01880900 0.04500000
v -0.02427000 -0.01763400 0.04300000
v -0.02265200 -0.01645800 0.04000000
v -0.02750700 -0.01998500 0.02500000
v -0.02912500 -0.02116000 0.01200000
v -0.01941600 -0.01410700 0.00500000
v -0.01979900 -0.01979900 0.00000000
v -0.02687000 -0.02687000 0.01200000
v -0.02828400 -0.02828400 0.02500000
v -0.02404200 -0.02404200 0.04000000
v -0.02474900 -0.02474900 0.04300000
v -0.02474900 -0.02474900 0.04500000
v -0.02262700 -0.02262700 0.04500000
v -0.02121300 -0.02121300 0.04300000
v -0.01979900 -0.01979900 0.04000000
v -0.02404200 -0.02404200 0.02500000
v -0.02545600 -0.02545600 0.01200000
v -0.01697100 -0.01697100 0.00500000
v -0.01645800 -0.02265200 0.00000000
v -0.02233600 -0.03074300 0.01200000
v -0.02351100 -0.03236100 0.02500000
v -0.01998500 -0.02750700 0.04000000
v -0.02057200 -0.02831600 0.04300000
v -0.02057200 -0.02831600 0.04500000
v -0.01880900 -0.02588900 0.04500000
v -0.01763400 -0.02427000 0.04300000
v -0.01645800 -0.02265200 0.04000000
v -0.01998500 -0.02750700 0.02500000
v -0.02116000 -0.02912500 0.01200000
v -0.01410700 -0.01941600 0.00500000
v -0.01271200 -0.02494800 0.00000000
v -0.01725200 -0.03385800 0.01200000
v -0.01816000 -0.03564000 0.02500000
v -0.01543600 -0.03029400 0.04000000
v -0.01589000 -0.03118500 0.04300000
v -0.01589000 -0.03118500 0.04500000
v -0.01452800 -0.02851200 0.04500000
v -0.01362000 -0.02673000 0.04300000
v -0.01271200 -0.02494800 0.04000000
v -0.01543600 -0.03029400 0.02500000
v -0.01634400 -0.03207600 0.01200000
v -0.01089600 -0.02138400 0.00500000
v -0.00865200 -0.02663000 0.00000000
v -0.01174300 -0.03614000 0.01200000
v -0.01236100 -0.03804200 0.02500000
v -0.01050700 -0.03233600 0.04000000
v -0.01081600 -0.03328700 0.04300000
v -0.01081600 -0.03328700 0.04500000
v -0.00988900 -0.03043400 0.04500000
v -0.00927100 -0.02853200 0.04300000
v -0.00865200 -0.02663000 0.04000000
v -0.01050700 -0.03233600 0.02500000
v -0.01112500 -0.03423800 0.01200000
v -0.00741600 -0.02282500 0.00500000
v -0.00438000 -0.02765500 0.00000000
v -0.00594400 -0.03753200 0.01200000
v -0.00625700 -0.03950800 0.02500000
v -0.00531900 -0.03358100 0.04000000
v -0.00547500 -0.03456900 0.04300000
v -0.00547500 -0.03456900 0.04500000
v -0.00500600 -0.03160600 0.04500000
v -0.00469300 -0.02963100 0.04300000
v -0.00438000 -0.02765500 0.04000000
v -0.00531900 -0.03358100 0.02500000
v -0.00563200 -0.03555700 0.01200000
v -0.00375400 -0.02370500 0.00500000
v -0.00000000 -0.02800000 0.00000000
v -0.00000000 -0.03800000 0.01200000
v -0.00000000 -0.04000000 0.02500000
v -0.00000000 -0.03400000 0.04000000
v -0.00000000 -0.03500000 0.04300000
v -0.00000000 -0.03500000 0.04500000
v -0.00000000 -0.03200000 0.04500000
v -0.00000000 -0.03000000 0.04300000
v -0.00000000 -0.02800000 0.04000000
v -0.00000000 -0.03400000 0.02500000
v 0.00000000 -0.03600000 0.01200000
v -0.00000000 -0.02400000 0.00500000
v 0.00438000 -0.02765500 0.00000000
v 0.00594500 -0.03753200 0.01200000
v 0.00625700 -0.03950800 0.02500000
v 0.00531900 -0.03358100 0.04000000
v 0.00547500 -0.03456900 0.04300000
v 0.00547500 -0.03456900 0.04500000
v 0.00500600 -0.03160600 0.04500000
v 0.00469300 -0.02963100 0.04300000
v 0.00438000 -0.02765500 0.04000000
v 0.00531900 -0.03358100 0.02500000
v 0.00563200 -0.03555700 0.01200000
v 0.00375400 -0.02370500 0.00500000
v 0.00865200 -0.02663000 0.00000000
v 0.01174300 -0.03614000 0.01200000
v 0.01236100 -0.03804200 0.02500000
v 0.01050700 -0.03233600 0.04000000
v 0.01081600 -0.03328700 0.04300000
v 0.01081600 -0.03328700 0.04500000
v 0.00988900 -0.03043400 0.04500000
v 0.00927100 -0.02853200 0.04300000
v 0.00865200 -0.02663000 0.04000000
v 0.01050700 -0.03233600 0.02500000
v 0.01112500 -0.03423800 0.01200000
v 0.00741600 -0.02282500 0.00500000
v 0.01271200 -0.02494800 0.00000000
v 0.01725200 -0.03385800 0.01200000
v 0.01816000 -0.03564000 0.02500000
v 0.01543600 -0.03029400 0.04000000
v 0.01589000 -0.03118500 0.04300000
v 0.01589000 -0.03118500 0.04500000
v 0.01452800 -0.02851200 0.04500000
v 0.01362000 -0.02673000 0.04300000
v 0.01271200 -0.02494800 0.04000000
v 0.01543600 -0.03029400 0.02500000
v 0.01634400 -0.03207600 0.01200000
v 0.01089600 -0.02138400 0.00500000
v 0.01645800 -0.02265200 0.00000000
v 0.02233600 -0.03074300 0.01200000
v 0.02351100 -0.03236100 0.02500000
v 0.01998500 -0.02750700 0.04000000
v 0.02057200 -0.02831600 0.04300000
v 0.02057200 -0.02831600 0.04500000
v 0.01880900 -0.02588900 0.04500000
v 0.01763400 -0.02427000 0.04300000
v 0.01645800 -0.02265200 0.04000000
v 0.01998500 -0.02750700 0.02500000
v 0.02116000 -0.02912500 0.01200000
v 0.01410700 -0.01941600 0.00500000
v 0.01979900 -0.01979900 0.00000000
v 0.02687000 -0.02687000 0.01200000
v 0.02828400 -0.02828400 0.02500000
v 0.02404200 -0.02404200 0.04000000
v 0.02474900 -0.02474900 0.04300000
v 0.02474900 -0.02474900 0.04500000
v 0.02262700 -0.02262700 0.04500000
v 0.02121300 -0.02121300 0.04300000
v 0.01979900 -0.01979900 0.04000000
v 0.02404200 -0.02404200 0.02500000
v 0.02545600 -0.02545600 0.01200000
v 0.01697100 -0.01697100 0.00500000
v 0.02265200 -0.01645800 0.00000000
v 0.03074300 -0.02233600 0.01200000
v 0.03236100 -0.02351100 0.02500000
v 0.02750700 -0.01998500 0.04000000
v 0.02831600 -0.02057200 0.04300000
v 0.02831600 -0.02057200 0.04500000
v 0.02588900 -0.01880900 0.04500000
v 0.02427100 -0.01763400 0.04300000
v 0.02265200 -0.01645800 0.04000000
v 0.02750700 -0.01998500 0.02500000
v 0.02912500 -0.02116000 0.01200000
v 0.01941600 -0.01410700 0.00500000
v 0.02494800 -0.01271200 0.00000000
v 0.03385800 -0.01725200 0.01200000
v 0.03564000 -0.01816000 0.02500000
v 0.03029400 -0.01543600 0.04000000
v 0.03118500 -0.01589000 0.04300000
v 0.03118500 -0.01589000 0.04500000
v 0.02851200 -0.01452800 0.04500000
v 0.02673000 -0.01362000 0.04300000
v 0.02494800 -0.01271200 0.04000000
v 0.03029400 -0.01543600 0.02500000
v 0.03207600 -0.01634400 0.01200000
v 0.02138400 -0.01089600 0.00500000
v 0.02663000 -0.00865200 0.00000000
v 0.03614000 -0.01174300 0.01200000
v 0.03804200 -0.01236100 0.02500000
v 0.03233600 -0.01050700 0.04000000
v 0.03328700 -0.01081600 0.04300000
v 0.03328700 -0.01081600 0.04500000
v 0.03043400 -0.00988900 0.04500000
v 0.02853200 -0.00927100 0.04300000
v 0.02663000 -0.00865200 0.04000000
v 0.03233600 -0.01050700 0.02500000
v 0.03423800 -0.01112500 0.01200000
v 0.02282500 -0.00741600 0.00500000
v 0.02765500 -0.00438000 0.00000000
v 0.03753200 -0.00594500 0.01200000
v 0.03950800 -0.00625700 0.02500000
v 0.03358100 -0.00531900 0.04000000
v 0.03456900 -0.00547500 0.04300000
v 0.03456900 -0.00547500 0.04500000
v 0.03160600 -0.00500600 0.04500000
v 0.02963100 -0.00469300 0.04300000
v 0.02765500 -0.00438000 0.04000000
v 0.03358100 -0.00531900 0.02500000
v 0.03555700 -0.00563200 0.01200000
v 0.02370500 -0.00375400 0.00500000
v 0.03500000 -0.00000000 0.04500000
v 0.05150000 0.00000000 0.02500000
v 0.05047500 -0.00247500 0.02500000
v 0.04800000 -0.00350000 0.02500000
v 0.04552500 -0.00247500 0.02500000
v 0.04450000 -0.00000000 0.02500000
v 0.04552500 0.00247500 0.02500000
v 0.04800000 0.00350000 0.02500000
v 0.05047500 0.00247500 0.02500000
v 0.05062500 0.00000000 0.02940100
v 0.04967800 -0.00247500 0.02900900
v 0.04739100 -0.00350000 0.02806100
v 0.04510500 -0.00247500 0.02711400
v 0.04415700 0.00000000 0.02672200
v 0.04510500 0.00247500 0.02711400
v 0.04739100 0.00350000 0.02806100
v 0.04967800 0.00247500 0.02900900
v 0.04813200 0.00000000 0.03313200
v 0.04740700 -0.00247500 0.03240700
v 0.04565700 -0.00350000 0.03065700
v 0.04390700 -0.00247500 0.02890700
v 0.04318200 0.00000000 0.02818200
v 0.04390700 0.00247500 0.02890700
v 0.04565700 0.00350000 0.03065700
v 0.04740700 0.00247500 0.03240700
v 0.04440100 0.00000000 0.03562500
v 0.04400900 -0.00247500 0.03467800
v 0.04306100 -0.00350000 0.03239100
v 0.04211400 -0.00247500 0.03010500
v 0.04172200 0.00000000 0.02915700
v 0.04211400 0.00247500 0.03010500
v 0.04306100 0.00350000 0.03239100
v 0.04400900 0.00247500 0.03467800
v 0.04000000 0.00000000 0.03650000
v 0.04000000 -0.00247500 0.03547500
v 0.04000000 -0.00350000 0.03300000
v 0.04000000 -0.00247500 0.03052500
v 0.04000000 0.00000000 0.02950000
v 0.04000000 0.00247500 0.03052500
v 0.04000000 0.00350000 0.03300000
v 0.04000000 0.00247500 0.03547500
v 0.03559900 0.00000000 0.03562500
v 0.03599100 -0.00247500 0.03467800
v 0.03693900 -0.00350000 0.03239100
v 0.03788600 -0.00247500 0.03010500
v 0.03827800 0.00000000 0.02915700
v 0.03788600 0.00247500 0.03010500
v 0.03693900 0.00350000 0.03239100
v 0.03599100 0.00247500 0.03467800
v 0.03186800 0.00000000 0.03313200
v 0.03259300 -0.00247500 0.03240700
v 0.03434300 -0.00350000 0.03065700
v 0.03609300 -0.00247500 0.02890700
v 0.03681800 0.00000000 0.02818200
v 0.03609300 0.00247500 0.02890700
v 0.03434300 0.00350000 0.03065700
v 0.03259300 0.00247500 0.03240700
v 0.02937500 0.00000000 0.02940100
v 0.03032200 -0.00247500 0.02900900
v 0.03260900 -0.00350000 0.02806100
v 0.03489500 -0.00247500 0.02711400
v 0.03584300 0.00000000 0.02672200
v 0.03489500 0.00247500 0.02711400
v 0.03260900 0.00350000 0.02806100
v 0.03032200 0.00247500 0.02900900
v 0.02850000 0.00000000 0.02500000
v 0.02952500 -0.00247500 0.02500000
v 0.03200000 -0.00350000 0.02500000
v 0.03447500 -0.00247500 0.02500000
v 0.03550000 0.00000000 0.02500000
v 0.03447500 0.00247500 0.02500000
v 0.03200000 0.00350000 0.02500000
v 0.02952500 0.00247500 0.02500000
v 0.02937500 -0.00000000 0.02059900
v 0.03032200 -0.00247500 0.02099100
v 0.03260900 -0.00350000 0.02193900
v 0.03489500 -0.00247500 0.02288600
v 0.03584300 -0.00000000 0.02327800
v 0.03489500 0.00247500 0.02288600
v 0.03260900 0.00350000 0.02193900
v 0.03032200 0.00247500 0.02099100
v 0.03186800 -0.00000000 0.01686800
v 0.03259300 -0.00247500 0.01759300
v 0.03434300 -0.00350000 0.01934300
v 0.03609300 -0.00247500 0.02109300
v 0.03681800 -0.00000000 0.02181800
v 0.03609300 0.00247500 0.02109300
v 0.03434300 0.00350000 0.01934300
v 0.03259300 0.00247500 0.01759300
v 0.03559900 -0.00000000 0.01437500
v 0.03599100 -0.00247500 0.01532200
v 0.03693900 -0.00350000 0.01760900
v 0.03788600 -0.00247500 0.01989500
v 0.03827800 -0.00000000 0.02084300
v 0.03788600 0.00247500 0.01989500
v 0.03693900 0.00350000 0.01760900
v 0.03599100 0.00247500 0.01532200
v 0.04000000 -0.00000000 0.01350000
v 0.04000000 -0.00247500 0.01452500
v 0.04000000 -0.00350000 0.01700000
v 0.04000000 -0.00247500 0.01947500
v 0.04000000 -0.00000000 0.02050000
v 0.04000000 0.00247500 0.01947500
v 0.04000000 0.00350000 0.01700000
v 0.04000000 0.00247500 0.01452500
v 0.04440100 -0.00000000 0.01437500
v 0.04400900 -0.00247500 0.01532200
v 0.04306100 -0.00350000 0.01760900
v 0.04211400 -0.00247500 0.01989500
v 0.04172200 -0.00000000 0.02084300
v 0.04211400 0.00247500 0.01989500
v 0.04306100 0.00350000 0.01760900
v 0.04400900 0.00247500 0.01532200
v 0.04813200 -0.00000000 0.01686800
v 0.04740700 -0.00247500 0.01759300
v 0.04565700 -0.00350000 0.01934300
v 0.04390700 -0.00247500 0.02109300
v 0.04318200 -0.00000000 0.02181800
v 0.04390700 0.00247500 0.02109300
v 0.04565700 0.00350000 0.01934300
v 0.04740700 0.00247500 0.01759300
v 0.05062500 -0.00000000 0.02059900
v 0.04967800 -0.00247500 0.02099100
v 0.04739100 -0.00350000 0.02193900
v 0.04510500 -0.00247500 0.02288600
v 0.04415700 -0.00000000 0.02327800
v 0.04510500 0.00247500 0.02288600
v 0.04739100 0.00350000 0.02193900
v 0.04967800 0.00247500 0.02099100
v -0.02850000 0.00000000 0.02500000
v -0.02952500 -0.00247500 0.02500000
v -0.03200000 -0.00350000 0.02500000
v -0.03447500 -0.00247500 0.02500000
v -0.03550000 -0.00000000 0.02500000
v -0.03447500 0.00247500 0.02500000
v -0.03200000 0.00350000 0.02500000
v -0.02952500 0.00247500 0.02500000
v -0.02937500 0.00000000 0.02940100
v -0.03032200 -0.00247500 0.02900900
v -0.03260900 -0.00350000 0.02806100
v -0.03489500 -0.00247500 0.02711400
v -0.03584300 0.00000000 0.02672200
v -0.03489500 0.00247500 0.02711400
v -0.03260900 0.00350000 0.02806100
v -0.03032200 0.00247500 0.02900900
v -0.03186800 0.00000000 0.03313200
v -0.03259300 -0.00247500 0.03240700
v -0.03434300 -0.00350000 0.03065700
v -0.03609300 -0.00247500 0.02890700
v -0.03681800 0.00000000 0.02818200
v -0.03609300 0.00247500 0.02890700
v -0.03434300 0.00350000 0.03065700
v -0.03259300 0.00247500 0.03240700
v -0.03559900 0.00000000 0.03562500
v -0.03599100 -0.00247500 0.03467800
v -0.03693900 -0.00350000 0.03239100
v -0.03788600 -0.00247500 0.03010500
v -0.03827800 0.00000000 0.02915700
v -0.03788600 0.00247500 0.03010500
v -0.03693900 0.00350000 0.03239100
v -0.03599100 0.00247500 0.03467800
v -0.04000000 0.00000000 0.03650000
v -0.04000000 -0.00247500 0.03547500
v -0.04000000 -0.00350000 0.03300000
v -0.04000000 -0.00247500 0.03052500
v -0.04000000 0.00000000 0.02950000
v -0.04000000 0.00247500 0.03052500
v -0.04000000 0.00350000 0.03300000
v -0.04000000 0.00247500 0.03547500
v -0.04440100 0.00000000 0.03562500
v -0.04400900 -0.00247500 0.03467800
v -0.04306100 -0.00350000 0.03239100
v -0.04211400 -0.00247500 0.03010500
v -0.04172200 0.00000000 0.02915700
v -0.04211400 0.00247500 0.03010500
v -0.04306100 0.00350000 0.03239100
v -0.04400900 0.00247500 0.03467800
v -0.04813200 0.00000000 0.03313200
v -0.04740700 -0.00247500 0.03240700
v -0.04565700 -0.00350000 0.03065700
v -0.04390700 -0.00247500 0.02890700
v -0.04318200 0.00000000 0.02818200
v -0.04390700 0.00247500 0.02890700
v -0.04565700 0.00350000 0.03065700
v -0.04740700 0.00247500 0.03240700
v -0.05062500 0.00000000 0.02940100
v -0.04967800 -0.00247500 0.02900900
v -0.04739100 -0.00350000 0.02806100
v -0.04510500 -0.00247500 0.02711400
v -0.04415700 0.00000000 0.02672200
v -0.04510500 0.00247500 0.02711400
v -0.04739100 0.00350000 0.02806100
v -0.04967800 0.00247500 0.02900900
v -0.05150000 0.00000000 0.02500000
v -0.05047500 -0.00247500 0.02500000
v -0.04800000 -0.00350000 0.02500000
v -0.04552500 -0.00247500 0.02500000
v -0.04450000 0.00000000 0.02500000
v -0.04552500 0.00247500 0.02500000
v -0.04800000 0.00350000 0.02500000
v -0.05047500 0.00247500 0.02500000
v -0.05062500 -0.00000000 0.02059900
v -0.04967800 -0.00247500 0.02099100
v -0.04739100 -0.00350000 0.02193900
v -0.04510500 -0.00247500 0.02288600
v -0.04415700 -0.00000000 0.02327800
v -0.04510500 0.00247500 0.02288600
v -0.04739100 0.00350000 0.02193900
v -0.04967800 0.00247500 0.02099100
v -0.04813200 -0.00000000 0.01686800
v -0.04740700 -0.00247500 0.01759300
v -0.04565700 -0.00350000 0.01934300
v -0.04390700 -0.00247500 0.02109300
v -0.04318200 -0.00000000 0.02181800
v -0.04390700 0.00247500 0.02109300
v -0.04565700 0.00350000 0.01934300
v -0.04740700 0.00247500 0.01759300
v -0.04440100 -0.00000000 0.01437500
v -0.04400900 -0.00247500 0.01532200
v -0.04306100 -0.00350000 0.01760900
v -0.04211400 -0.00247500 0.01989500
v -0.04172200 -0.00000000 0.02084300
v -0.04211400 0.00247500 0.01989500
v -0.04306100 0.00350000 0.01760900
v -0.04400900 0.00247500 0.01532200
v -0.04000000 -0.00000000 0.01350000
v -0.04000000 -0.00247500 0.01452500
v -0.04000000 -0.00350000 0.01700000
v -0.04000000 -0.00247500 0.01947500
v -0.04000000 -0.00000000 0.02050000
v -0.04000000 0.00247500 0.01947500
v -0.04000000 0.00350000 0.01700000
v -0.04000000 0.00247500 0.01452500
v -0.03559900 -0.00000000 0.01437500
v -0.03599100 -0.00247500 0.01532200
v -0.03693900 -0.00350000 0.01760900
v -0.03788600 -0.00247500 0.01989500
v -0.03827800 -0.00000000 0.02084300
v -0.03788600 0.00247500 0.01989500
v -0.03693900 0.00350000 0.01760900
v -0.03599100 0.00247500 0.01532200
v -0.03186800 -0.00000000 0.01686800
v -0.03259300 -0.00247500 0.01759300
v -0.03434300 -0.00350000 0.01934300
v -0.03609300 -0.00247500 0.02109300
v -0.03681800 -0.00000000 0.02181800
v -0.03609300 0.00247500 0.02109300
v -0.03434300 0.00350000 0.01934300
v -0.03259300 0.00247500 0.01759300
v -0.02937500 -0.00000000 0.02059900
v -0.03032200 -0.00247500 0.02099100
v -0.03260900 -0.00350000 0.02193900
v -0.03489500 -0.00247500 0.02288600
v -0.03584300 -0.00000000 0.02327800
v -0.03489500 0.00247500 0.02288600
v -0.03260900 0.00350000 0.02193900
v -0.03032200 0.00247500 0.02099100
vn -0.00000000 -0.00000000 -1.00000000
vn 0.44120000 -0.00000000 -0.89740000
vn 0.91380000 -0.00000000 -0.40620000
vn 0.99370000 -0.00000000 0.11220000
vn 0.99960000 -0.00000000 0.02990000
vn 0.98730000 -0.00000000 -0.15890000
vn -0.36610000 -0.00000000 0.93060000
vn -0.77130000 -0.00000000 0.63640000
vn -0.99440000 -0.00000000 0.10600000
vn -0.96510000 -0.00000000 -0.26200000
vn -0.90760000 -0.00000000 0.41990000
vn -0.27300000 -0.00000000 0.96200000
vn -0.00000000 -0.00000000 1.00000000
vn 0.43580000 0.06900000 -0.89740000
vn 0.90250000 0.14290000 -0.40620000
vn 0.98140000 0.15540000 0.11220000
vn 0.98720000 0.15640000 0.02990000
vn 0.97510000 0.15440000 -0.15890000
vn 0.71500000 0.11320000 0.68990000
vn -0.36160000 -0.05730000 0.93060000
vn -0.76190000 -0.12070000 0.63640000
vn -0.98210000 -0.15560000 0.10600000
vn -0.95320000 -0.15100000 -0.26200000
vn -0.89640000 -0.14200000 0.41990000
vn -0.26970000 -0.04270000 0.96200000
vn 0.41960000 0.13630000 -0.89740000
vn 0.86910000 0.28240000 -0.40620000
vn 0.94500000 0.30710000 0.11220000
vn 0.95060000 0.30890000 0.02990000
vn 0.93900000 0.30510000 -0.15890000
vn 0.68850000 0.22370000 0.68990000
vn -0.34820000 -0.11310000 0.93060000
vn -0.73360000 -0.23840000 0.63640000
vn -0.94570000 -0.30730000 0.10600000
vn -0.91780000 -0.29820000 -0.26200000
vn -0.86310000 -0.28040000 0.41990000
vn -0.25970000 -0.08440000 0.96200000
vn 0.39310000 0.20030000 -0.89740000
vn 0.81420000 0.41480000 -0.40620000
vn 0.88540000 0.45110000 0.11220000
vn 0.89060000 0.45380000 0.02990000
vn 0.87970000 0.44820000 -0.15890000
vn 0.64500000 0.32870000 0.68990000
vn -0.32620000 -0.16620000 0.93060000
vn -0.68730000 -0.35020000 0.63640000
vn -0.88600000 -0.45140000 0.10600000
vn -0.85990000 -0.43810000 -0.26200000
vn -0.80860000 -0.41200000 0.41990000
vn -0.24330000 -0.12400000 0.96200000
vn 0.35700000 0.25930000 -0.89740000
vn 0.73930000 0.53710000 -0.40620000
vn 0.80390000 0.58410000 0.11220000
vn 0.80870000 0.58750000 0.02990000
vn 0.79870000 0.58030000 -0.15890000
vn 0.58570000 0.42550000 0.68990000
vn -0.29620000 -0.21520000 0.93060000
vn -0.62400000 -0.45340000 0.63640000
vn -0.80450000 -0.58450000 0.10600000
vn -0.78080000 -0.56730000 -0.26200000
vn -0.73420000 -0.53340000 0.41990000
vn -0.22090000 -0.16050000 0.96200000
vn 0.31200000 0.31200000 -0.89740000
vn 0.64610000 0.64610000 -0.40620000
vn 0.70260000 0.70260000 0.11220000
vn 0.70680000 0.70680000 0.02990000
vn 0.69810000 0.69810000 -0.15890000
vn 0.51190000 0.51190000 0.68990000
vn -0.25890000 -0.25890000 0.93060000
vn -0.54540000 -0.54540000 0.63640000
vn -0.70310000 -0.70310000 0.10600000
vn -0.68240000 -0.68240000 -0.26200000
vn -0.64170000 -0.64170000 0.41990000
vn -0.19310000 -0.19310000 0.96200000
vn 0.25930000 0.35700000 -0.89740000
vn 0.53710000 0.73930000 -0.40620000
vn 0.58410000 0.80390000 0.11220000
vn 0.58750000 0.80870000 0.02990000
vn 0.58030000 0.79870000 -0.15890000
vn 0.42550000 0.58570000 0.68990000
vn -0.21520000 -0.29620000 0.93060000
vn -0.45340000 -0.62400000 0.63640000
vn -0.58450000 -0.80450000 0.10600000
vn -0.56730000 -0.78080000 -0.26200000
vn -0.53340000 -0.73420000 0.41990000
vn -0.16050000 -0.22090000 0.96200000
vn 0.20030000 0.39310000 -0.89740000
vn 0.41480000 0.81420000 -0.40620000
vn 0.45110000 0.88540000 0.11220000
vn 0.45380000 0.89060000 0.02990000
vn 0.44820000 0.87970000 -0.15890000
vn 0.32870000 0.64500000 0.68990000
vn -0.16620000 -0.32620000 0.93060000
vn -0.35020000 -0.68730000 0.63640000
vn -0.45140000 -0.88600000 0.10600000
vn -0.43810000 -0.85990000 -0.26200000
vn -0.41200000 -0.80860000 0.41990000
vn -0.12400000 -0.24330000 0.96200000
vn 0.13630000 0.41960000 -0.89740000
vn 0.28240000 0.86910000 -0.40620000
vn 0.30710000 0.94500000 0.11220000
vn 0.30890000 0.95060000 0.02990000
vn 0.30510000 0.93900000 -0.15890000
vn 0.22370000 0.68850000 0.68990000
vn -0.11310000 -0.34820000 0.93060000
vn -0.23840000 -0.73360000 0.63640000
vn -0.30730000 -0.94570000 0.10600000
vn -0.29820000 -0.91780000 -0.26200000
vn -0.28040000 -0.86310000 0.41990000
vn -0.08440000 -0.25970000 0.96200000
vn 0.06900000 0.43580000 -0.89740000
vn 0.14290000 0.90250000 -0.40620000
vn 0.15540000 0.98140000 0.11220000
vn 0.15640000 0.98720000 0.02990000
vn 0.15440000 0.97510000 -0.15890000
vn 0.11320000 0.71500000 0.68990000
vn -0.05730000 -0.36160000 0.93060000
vn -0.12070000 -0.76190000 0.63640000
vn -0.15560000 -0.98210000 0.10600000
vn -0.15100000 -0.95320000 -0.26200000
vn -0.14200000 -0.89640000 0.41990000
vn -0.04270000 -0.26970000 0.96200000
vn -0.00000000 0.44120000 -0.89740000
vn -0.00000000 0.91380000 -0.40620000
vn -0.00000000 0.99370000 0.11220000
vn -0.00000000 0.99960000 0.02990000
vn -0.00000000 0.98730000 -0.15890000
vn -0.00000000 0.72390000 0.68990000
vn -0.00000000 -0.36610000 0.93060000
vn -0.00000000 -0.77130000 0.63640000
vn -0.00000000 -0.99440000 0.10600000
vn -0.00000000 -0.96510000 -0.26200000
vn -0.00000000 -0.90760000 0.41990000
vn -0.00000000 -0.27300000 0.96200000
vn -0.06900000 0.43580000 -0.89740000
vn -0.14290000 0.90250000 -0.40620000
vn -0.15540000 0.98140000 0.11220000
vn -0.15640000 0.98720000 0.02990000
vn -0.15440000 0.97510000 -0.15890000
vn -0.11320000 0.71500000 0.68990000
vn 0.05730000 -0.36160000 0.93060000
vn 0.12070000 -0.76190000 0.63640000
vn 0.15560000 -0.98210000 0.10600000
vn 0.15100000 -0.95320000 -0.26200000
vn 0.14200000 -0.89640000 0.41990000
vn 0.04270000 -0.26970000 0.96200000
vn -0.13630000 0.41960000 -0.89740000
vn -0.28240000 0.86910000 -0.40620000
vn -0.30710000 0.94500000 0.11220000
vn -0.30890000 0.95060000 0.02990000
vn -0.30510000 0.93900000 -0.15890000
vn -0.22370000 0.68850000 0.68990000
vn 0.11310000 -0.34820000 0.93060000
vn 0.23840000 -0.73360000 0.63640000
vn 0.30730000 -0.94570000 0.10600000
vn 0.29820000 -0.91780000 -0.26200000
vn 0.28040000 -0.86310000 0.41990000
vn 0.08440000 -0.25970000 0.96200000
vn -0.20030000 0.39310000 -0.89740000
vn -0.41480000 0.81420000 -0.40620000
vn -0.45110000 0.88540000 0.11220000
vn -0.45380000 0.89060000 0.02990000
vn -0.44820000 0.87970000 -0.15890000
vn -0.32870000 0.64500000 0.68990000
vn 0.16620000 -0.32620000 0.93060000
vn 0.35020000 -0.68730000 0.63640000
vn 0.45140000 -0.88600000 0.10600000
vn 0.43810000 -0.85990000 -0.26200000
vn 0.41200000 -0.80860000 0.41990000
vn 0.12400000 -0.24330000 0.96200000
vn -0.25930000 0.35700000 -0.89740000
vn -0.53710000 0.73930000 -0.40620000
vn -0.58410000 0.80390000 0.11220000
vn -0.58750000 0.80870000 0.02990000
vn -0.58030000 0.79870000 -0.15890000
vn -0.42550000 0.58570000 0.68990000
vn 0.21520000 -0.29620000 0.93060000
vn 0.45340000 -0.62400000 0.63640000
vn 0.58450000 -0.80450000 0.10600000
vn 0.56730000 -0.78080000 -0.26200000
vn 0.53340000 -0.73420000 0.41990000
vn 0.16050000 -0.22090000 0.96200000
vn -0.31200000 0.31200000 -0.89740000
vn -0.64610000 0.64610000 -0.40620000
vn -0.70260000 0.70260000 0.11220000
vn -0.70680000 0.70680000 0.02990000
vn -0.69810000 0.69810000 -0.15890000
vn -0.51190000 0.51190000 0.68990000
vn 0.25890000 -0.25890000 0.93060000
vn 0.54540000 -0.54540000 0.63640000
vn 0.70310000 -0.70310000 0.10600000
vn 0.68240000 -0.68240000 -0.26200000
vn 0.64170000 -0.64170000 0.41990000
vn 0.19310000 -0.19310000 0.96200000
vn -0.35700000 0.25930000 -0.89740000
vn -0.73930000 0.53710000 -0.40620000
vn -0.80390000 0.58410000 0.11220000
vn -0.80870000 0.58750000 0.02990000
vn -0.79870000 0.58030000 -0.15890000
vn -0.58570000 0.42550000 0.68990000
vn 0.29620000 -0.21520000 0.93060000
vn 0.62400000 -0.45340000 0.63640000
vn 0.80450000 -0.58450000 0.10600000
vn 0.78080000 -0.56730000 -0.26200000
vn 0.73420000 -0.53340000 0.41990000
vn 0.22090000 -0.16050000 0.96200000
vn -0.39310000 0.20030000 -0.89740000
vn -0.81420000 0.41480000 -0.40620000
vn -0.88540000 0.45110000 0.11220000
vn -0.89060000 0.45380000 0.02990000
vn -0.87970000 0.44820000 -0.15890000
vn -0.64500000 0.32870000 0.68990000
vn 0.32620000 -0.16620000 0.93060000
vn 0.68730000 -0.35020000 0.63640000
vn 0.88600000 -0.45140000 0.10600000
vn 0.85990000 -0.43810000 -0.26200000
vn 0.80860000 -0.41200000 0.41990000
vn 0.24330000 -0.12400000 0.96200000
vn -0.41960000 0.13630000 -0.89740000
vn -0.86910000 0.28240000 -0.40620000
vn -0.94500000 0.30710000 0.11220000
vn -0.95060000 0.30890000 0.02990000
vn -0.93900000 0.30510000 -0.15890000
vn -0.68850000 0.22370000 0.68990000
vn 0.34820000 -0.11310000 0.93060000
vn 0.73360000 -0.23840000 0.63640000
vn 0.94570000 -0.30730000 0.10600000
vn 0.91780000 -0.29820000 -0.26200000
vn 0.86310000 -0.28040000 0.41990000
vn 0.25970000 -0.08440000 0.96200000
vn -0.43580000 0.06900000 -0.89740000
vn -0.90250000 0.14290000 -0.40620000
vn -0.98140000 0.15540000 0.11220000
vn -0.98720000 0.15640000 0.02990000
vn -0.97510000 0.15440000 -0.15890000
vn -0.71500000 0.11320000 0.68990000
vn 0.36160000 -0.05730000 0.93060000
vn 0.76190000 -0.12070000 0.63640000
vn 0.98210000 -0.15560000 0.10600000
vn 0.95320000 -0.15100000 -0.26200000
vn 0.89640000 -0.14200000 0.41990000
vn 0.26970000 -0.04270000 0.96200000
vn -0.44120000 -0.00000000 -0.89740000
vn -0.91380000 -0.00000000 -0.40620000
vn -0.99370000 -0.00000000 0.11220000
vn -0.99960000 -0.00000000 0.02990000
vn -0.98730000 -0.00000000 -0.15890000
vn -0.72390000 -0.00000000 0.68990000
vn 0.36610000 -0.00000000 0.93060000
vn 0.77140000 -0.00000000 0.63640000
vn 0.99440000 -0.00000000 0.10600000
vn 0.96510000 -0.00000000 -0.26200000
vn 0.90760000 -0.00000000 0.41990000
vn 0.27300000 -0.00000000 0.96200000
vn -0.43580000 -0.06900000 -0.89740000
vn -0.90250000 -0.14290000 -0.40620000
vn -0.98140000 -0.15540000 0.11220000
vn -0.98720000 -0.15640000 0.02990000
vn -0.97510000 -0.15440000 -0.15890000
vn -0.71500000 -0.11320000 0.68990000
vn 0.36160000 0.05730000 0.93060000
vn 0.76190000 0.12070000 0.63640000
vn 0.98210000 0.15560000 0.10600000
vn 0.95320000 0.15100000 -0.26200000
vn 0.89640000 0.14200000 0.41990000
vn 0.26970000 0.04270000 0.96200000
vn -0.41960000 -0.13630000 -0.89740000
vn -0.86910000 -0.28240000 -0.40620000
vn -0.94500000 -0.30710000 0.11220000
vn -0.95060000 -0.30890000 0.02990000
vn -0.93900000 -0.30510000 -0.15890000
vn -0.68850000 -0.22370000 0.68990000
vn 0.34820000 0.11310000 0.93060000
vn 0.73360000 0.23840000 0.63640000
vn 0.94570000 0.30730000 0.10600000
vn 0.91780000 0.29820000 -0.26200000
vn 0.86310000 0.28040000 0.41990000
vn 0.25970000 0.08440000 0.96200000
vn -0.39310000 -0.20030000 -0.89740000
vn -0.81420000 -0.41480000 -0.40620000
vn -0.88540000 -0.45110000 0.11220000
vn -0.89060000 -0.45380000 0.02990000
vn -0.87970000 -0.44820000 -0.15890000
vn -0.64500000 -0.32870000 0.68990000
vn 0.32620000 0.16620000 0.93060000
vn 0.68730000 0.35020000 0.63640000
vn 0.88600000 0.45140000 0.10600000
vn 0.85990000 0.43810000 -0.26200000
vn 0.80860000 0.41200000 0.41990000
vn 0.24330000 0.12400000 0.96200000
vn -0.35700000 -0.25930000 -0.89740000
vn -0.73930000 -0.53710000 -0.40620000
vn -0.80390000 -0.58410000 0.11220000
vn -0.80870000 -0.58750000 0.02990000
vn -0.79870000 -0.58030000 -0.15890000
vn -0.58570000 -0.42550000 0.68990000
vn 0.29620000 0.21520000 0.93060000
vn 0.62400000 0.45340000 0.63640000
vn 0.80450000 0.58450000 0.10600000
vn 0.78080000 0.56730000 -0.26200000
vn 0.73420000 0.53340000 0.41990000
vn 0.22090000 0.16050000 0.96200000
vn -0.31200000 -0.31200000 -0.89740000
vn -0.64610000 -0.64610000 -0.40620000
vn -0.70260000 -0.70260000 0.11220000
vn -0.70680000 -0.70680000 0.02990000
vn -0.69810000 -0.69810000 -0.15890000
vn -0.51190000 -0.51190000 0.68990000
vn 0.25890000 0.25890000 0.93060000
vn 0.54540000 0.54540000 0.63640000
vn 0.70310000 0.70310000 0.10600000
vn 0.68240000 0.68240000 -0.26200000
vn 0.64170000 0.64170000 0.41990000
vn 0.19310000 0.19310000 0.96200000
vn -0.25930000 -0.35700000 -0.89740000
vn -0.53710000 -0.73930000 -0.40620000
vn -0.58410000 -0.80390000 0.11220000
vn -0.58750000 -0.80870000 0.02990000
vn -0.58030000 -0.79870000 -0.15890000
vn -0.42550000 -0.58570000 0.68990000
vn 0.21520000 0.29620000 0.93060000
vn 0.45340000 0.62400000 0.63640000
vn 0.58450000 0.80450000 0.10600000
vn 0.56730000 0.78080000 -0.26200000
vn 0.53340000 0.73420000 0.41990000
vn 0.16050000 0.22090000 0.96200000
vn -0.20030000 -0.39310000 -0.89740000
vn -0.41480000 -0.81420000 -0.40620000
vn -0.45110000 -0.88540000 0.11220000
vn -0.45380000 -0.89060000 0.02990000
vn -0.44820000 -0.87970000 -0.15890000
vn -0.32870000 -0.64500000 0.68990000
vn 0.16620000 0.32620000 0.93060000
vn 0.35020000 0.68730000 0.63640000
vn 0.45140000 0.88600000 0.10600000
vn 0.43810000 0.85990000 -0.26200000
vn 0.41200000 0.80860000 0.41990000
vn 0.12400000 0.24330000 0.96200000
vn -0.13630000 -0.41960000 -0.89740000
vn -0.28240000 -0.86910000 -0.40620000
vn -0.30710000 -0.94500000 0.11220000
vn -0.30890000 -0.95060000 0.02990000
vn -0.30510000 -0.93900000 -0.15890000
vn -0.22370000 -0.68850000 0.68990000
vn 0.11310000 0.34820000 0.93060000
vn 0.23840000 0.73360000 0.63640000
vn 0.30730000 0.94570000 0.10600000
vn 0.29820000 0.91780000 -0.26200000
vn 0.28040000 0.86310000 0.41990000
vn 0.08440000 0.25970000 0.96200000
vn -0.06900000 -0.43580000 -0.89740000
vn -0.14290000 -0.90250000 -0.40620000
vn -0.15540000 -0.98140000 0.11220000
vn -0.15640000 -0.98720000 0.02990000
vn -0.15440000 -0.97510000 -0.15890000
vn -0.11320000 -0.71500000 0.68990000
vn 0.05730000 0.36160000 0.93060000
vn 0.12070000 0.76190000 0.63640000
vn 0.15560000 0.98210000 0.10600000
vn 0.15100000 0.95320000 -0.26200000
vn 0.14200000 0.89640000 0.41990000
vn 0.04270000 0.26970000 0.96200000
vn -0.00000000 -0.44120000 -0.89740000
vn -0.00000000 -0.91380000 -0.40620000
vn -0.00000000 -0.99370000 0.11220000
vn -0.00000000 -0.99960000 0.02990000
vn -0.00000000 -0.98730000 -0.15890000
vn -0.00000000 -0.72390000 0.68990000
vn -0.00000000 0.36610000 0.93060000
vn -0.00000000 0.77140000 0.63640000
vn -0.00000000 0.99440000 0.10600000
vn -0.00000000 0.96510000 -0.26200000
vn -0.00000000 0.90760000 0.41990000
vn -0.00000000 0.27300000 0.96200000
vn 0.06900000 -0.43580000 -0.89740000
vn 0.14290000 -0.90250000 -0.40620000
vn 0.15540000 -0.98140000 0.11220000
vn 0.15640000 -0.98720000 0.02990000
vn 0.15440000 -0.97510000 -0.15890000
vn 0.11320000 -0.71500000 0.68990000
vn -0.05730000 0.36160000 0.93060000
vn -0.12070000 0.76190000 0.63640000
vn -0.15560000 0.98210000 0.10600000
vn -0.15100000 0.95320000 -0.26200000
vn -0.14200000 0.89640000 0.41990000
vn -0.04270000 0.26970000 0.96200000
vn 0.13630000 -0.41960000 -0.89740000
vn 0.28240000 -0.86910000 -0.40620000
vn 0.30710000 -0.94500000 0.11220000
vn 0.30890000 -0.95060000 0.02990000
vn 0.30510000 -0.93900000 -0.15890000
vn 0.22370000 -0.68850000 0.68990000
vn -0.11310000 0.34820000 0.93060000
vn -0.23840000 0.73360000 0.63640000
vn -0.30730000 0.94570000 0.10600000
vn -0.29820000 0.91780000 -0.26200000
vn -0.28040000 0.86310000 0.41990000
vn -0.08440000 0.25970000 0.96200000
vn 0.20030000 -0.39310000 -0.89740000
vn 0.41480000 -0.81420000 -0.40620000
vn 0.45110000 -0.88540000 0.11220000
vn 0.45380000 -0.89060000 0.02990000
vn 0.44820000 -0.87970000 -0.15890000
vn 0.32870000 -0.64500000 0.68990000
vn -0.16620000 0.32620000 0.93060000
vn -0.35020000 0.68730000 0.63640000
vn -0.45140000 0.88600000 0.10600000
vn -0.43810000 0.85990000 -0.26200000
vn -0.41200000 0.80860000 0.41990000
vn -0.12400000 0.24330000 0.96200000
vn 0.25930000 -0.35700000 -0.89740000
vn 0.53710000 -0.73930000 -0.40620000
vn 0.58410000 -0.80390000 0.11220000
vn 0.58750000 -0.80870000 0.02990000
vn 0.58030000 -0.79870000 -0.15890000
vn 0.42550000 -0.58570000 0.68990000
vn -0.21520000 0.29620000 0.93060000
vn -0.45340000 0.62400000 0.63640000
vn -0.58450000 0.80450000 0.10600000
vn -0.56730000 0.78080000 -0.26200000
vn -0.53340000 0.73420000 0.41990000
vn -0.16050000 0.22090000 0.96200000
vn 0.31200000 -0.31200000 -0.89740000
vn 0.64610000 -0.64610000 -0.40620000
vn 0.70260000 -0.70260000 0.11220000
vn 0.70680000 -0.70680000 0.02990000
vn 0.69810000 -0.69810000 -0.15890000
vn 0.51190000 -0.51190000 0.68990000
vn -0.25890000 0.25890000 0.93060000
vn -0.54540000 0.54540000 0.63640000
vn -0.70310000 0.70310000 0.10600000
vn -0.68240000 0.68240000 -0.26200000
vn -0.64170000 0.64170000 0.41990000
vn -0.19310000 0.19310000 0.96200000
vn 0.35700000 -0.25930000 -0.89740000
vn 0.73930000 -0.53710000 -0.40620000
vn 0.80390000 -0.58410000 0.11220000
vn 0.80870000 -0.58750000 0.02990000
vn 0.79870000 -0.58030000 -0.15890000
vn 0.58570000 -0.42550000 0.68990000
vn -0.29620000 0.21520000 0.93060000
vn -0.62400000 0.45340000 0.63640000
vn -0.80450000 0.58450000 0.10600000
vn -0.78080000 0.56730000 -0.26200000
vn -0.73420000 0.53340000 0.41990000
vn -0.22090000 0.16050000 0.96200000
vn 0.39310000 -0.20030000 -0.89740000
vn 0.81420000 -0.41480000 -0.40620000
vn 0.88540000 -0.45110000 0.11220000
vn 0.89060000 -0.45380000 0.02990000
vn 0.87970000 -0.44820000 -0.15890000
vn 0.64500000 -0.32870000 0.68990000
vn -0.32620000 0.16620000 0.93060000
vn -0.68730000 0.35020000 0.63640000
vn -0.88600000 0.45140000 0.10600000
vn -0.85990000 0.43810000 -0.26200000
vn -0.80860000 0.41200000 0.41990000
vn -0.24330000 0.12400000 0.96200000
vn 0.41960000 -0.13630000 -0.89740000
vn 0.86910000 -0.28240000 -0.40620000
vn 0.94500000 -0.30710000 0.11220000
vn 0.95060000 -0.30890000 0.02990000
vn 0.93900000 -0.30510000 -0.15890000
vn 0.68850000 -0.22370000 0.68990000
vn -0.34820000 0.11310000 0.93060000
vn -0.73360000 0.23840000 0.63640000
vn -0.94570000 0.30730000 0.10600000
vn -0.91780000 0.29820000 -0.26200000
vn -0.86310000 0.28040000 0.41990000
vn -0.25970000 0.08440000 0.96200000
vn 0.43580000 -0.06900000 -0.89740000
vn 0.90250000 -0.14290000 -0.40620000
vn 0.98140000 -0.15540000 0.11220000
vn 0.98720000 -0.15640000 0.02990000
vn 0.97510000 -0.15440000 -0.15890000
vn 0.71500000 -0.11320000 0.68990000
vn -0.36160000 0.05730000 0.93060000
vn -0.76190000 0.12070000 0.63640000
vn -0.98210000 0.15560000 0.10600000
vn -0.95320000 0.15100000 -0.26200000
vn -0.89640000 0.14200000 0.41990000
vn -0.26970000 0.04270000 0.96200000
vn 0.72390000 -0.00000000 0.68990000
vn 1.00000000 -0.00000000 -0.00000000
vn 0.72940000 -0.68410000 -0.00000000
vn 0.04770000 -0.99890000 -0.00000000
vn -0.68160000 -0.73170000 -0.00000000
vn -1.00000000 -0.00000000 -0.00000000
vn -0.68160000 0.73170000 -0.00000000
vn 0.04770000 0.99890000 -0.00000000
vn 0.72940000 0.68410000 -0.00000000
vn 0.92390000 -0.00000000 0.38270000
vn 0.67390000 -0.68410000 0.27910000
vn 0.04410000 -0.99890000 0.01830000
vn -0.62970000 -0.73170000 -0.26080000
vn -0.92390000 -0.00000000 -0.38270000
vn -0.62970000 0.73170000 -0.26080000
vn 0.04410000 0.99890000 0.01830000
vn 0.67390000 0.68410000 0.27910000
vn 0.70710000 -0.00000000 0.70710000
vn 0.51580000 -0.68410000 0.51580000
vn 0.03380000 -0.99890000 0.03380000
vn -0.48200000 -0.73170000 -0.48200000
vn -0.70710000 -0.00000000 -0.70710000
vn -0.48200000 0.73170000 -0.48200000
vn 0.03380000 0.99890000 0.03380000
vn 0.51580000 0.68410000 0.51580000
vn 0.38270000 -0.00000000 0.92390000
vn 0.27910000 -0.68410000 0.67390000
vn 0.01830000 -0.99890000 0.04410000
vn -0.26080000 -0.73170000 -0.62970000
vn -0.38270000 -0.00000000 -0.92390000
vn -0.26080000 0.73170000 -0.62970000
vn 0.01830000 0.99890000 0.04410000
vn 0.27910000 0.68410000 0.67390000
vn -0.00000000 -0.00000000 1.00000000
vn -0.00000000 -0.68410000 0.72940000
vn -0.00000000 -0.99890000 0.04770000
vn -0.00000000 -0.73170000 -0.68160000
vn -0.00000000 -0.00000000 -1.00000000
vn -0.00000000 0.73170000 -0.68160000
vn -0.00000000 0.99890000 0.04770000
vn -0.00000000 0.68410000 0.72940000
vn -0.38270000 -0.00000000 0.92390000
vn -0.27910000 -0.68410000 0.67390000
vn -0.01830000 -0.99890000 0.04410000
vn 0.26080000 -0.73170000 -0.62970000
vn 0.38270000 -0.00000000 -0.92390000
vn 0.26080000 0.73170000 -0.62970000
vn -0.01830000 0.99890000 0.04410000
vn -0.27910000 0.68410000 0.67390000
vn -0.70710000 -0.00000000 0.70710000
vn -0.51580000 -0.68410000 0.51580000
vn -0.03380000 -0.99890000 0.03380000
vn 0.48200000 -0.73170000 -0.48200000
vn 0.70710000 -0.00000000 -0.70710000
vn 0.48200000 0.73170000 -0.48200000
vn -0.03380000 0.99890000 0.03380000
vn -0.51580000 0.68410000 0.51580000
vn -0.92390000 -0.00000000 0.38270000
vn -0.67390000 -0.68410000 0.27910000
vn -0.04410000 -0.99890000 0.01830000
vn 0.62970000 -0.73170000 -0.26080000
vn 0.92390000 -0.00000000 -0.38270000
vn 0.62970000 0.73170000 -0.26080000
vn -0.04410000 0.99890000 0.01830000
vn -0.67390000 0.68410000 0.27910000
vn -1.00000000 -0.00000000 -0.00000000
vn -0.72940000 -0.68410000 -0.00000000
vn -0.04770000 -0.99890000 -0.00000000
vn 0.68160000 -0.73170000 -0.00000000
vn 1.00000000 -0.00000000 -0.00000000
vn 0.68160000 0.73170000 -0.00000000
vn -0.04770000 0.99890000 -0.00000000
vn -0.72940000 0.68410000 -0.00000000
vn -0.92390000 -0.00000000 -0.38270000
vn -0.67390000 -0.68410000 -0.27910000
vn -0.04410000 -0.99890000 -0.01830000
vn 0.62970000 -0.73170000 0.26080000
vn 0.92390000 -0.00000000 0.38270000
vn 0.62970000 0.73170000 0.26080000
vn -0.04410000 0.99890000 -0.01830000
vn -0.67390000 0.68410000 -0.27910000
vn -0.70710000 -0.00000000 -0.70710000
vn -0.51580000 -0.68410000 -0.51580000
vn -0.03380000 -0.99890000 -0.03380000
vn 0.48200000 -0.73170000 0.48200000
vn 0.70710000 -0.00000000 0.70710000
vn 0.48200000 0.73170000 0.48200000
vn -0.03380000 0.99890000 -0.03380000
vn -0.51580000 0.68410000 -0.51580000
vn -0.38270000 -0.00000000 -0.92390000
vn -0.27910000 -0.68410000 -0.67390000
vn -0.01830000 -0.99890000 -0.04410000
vn 0.26080000 -0.73170000 0.62970000
vn 0.38270000 -0.00000000 0.92390000
vn 0.26080000 0.73170000 0.62970000
vn -0.01830000 0.99890000 -0.04410000
vn -0.27910000 0.68410000 -0.67390000
vn -0.00000000 -0.00000000 -1.00000000
vn -0.00000000 -0.68410000 -0.72940000
vn -0.00000000 -0.99890000 -0.04770000
vn -0.00000000 -0.73170000 0.68160000
vn -0.00000000 -0.00000000 1.00000000
vn -0.00000000 0.73170000 0.68160000
vn -0.00000000 0.99890000 -0.04770000
vn -0.00000000 0.68410000 -0.72940000
vn 0.38270000 -0.00000000 -0.92390000
vn 0.27910000 -0.68410000 -0.67390000
vn 0.01830000 -0.99890000 -0.04410000
vn -0.26080000 -0.73170000 0.62970000
vn -0.38270000 -0.00000000 0.92390000
vn -0.26080000 0.73170000 0.62970000
vn 0.01830000 0.99890000 -0.04410000
vn 0.27910000 0.68410000 -0.67390000
vn 0.70710000 -0.00000000 -0.70710000
vn 0.51580000 -0.68410000 -0.51580000
vn 0.03380000 -0.99890000 -0.03380000
vn -0.48200000 -0.73170000 0.48200000
vn -0.70710000 -0.00000000 0.70710000
vn -0.48200000 0.73170000 0.48200000
vn 0.03380000 0.99890000 -0.03380000
vn 0.51580000 0.68410000 -0.51580000
vn 0.92390000 -0.00000000 -0.38270000
vn 0.67390000 -0.68410000 -0.27910000
vn 0.04410000 -0.99890000 -0.01830000
vn -0.62970000 -0.73170000 0.26080000
vn -0.92390000 -0.00000000 0.38270000
vn -0.62970000 0.73170000 0.26080000
vn 0.04410000 0.99890000 -0.01830000
vn 0.67390000 0.68410000 -0.27910000
vn 1.00000000 -0.00000000 -0.00000000
vn 0.72940000 -0.68410000 -0.00000000
vn 0.04770000 -0.99890000 -0.00000000
vn -0.68160000 -0.73170000 -0.00000000
vn -1.00000000 -0.00000000 -0.00000000
vn -0.68160000 0.73170000 -0.00000000
vn 0.04770000 0.99890000 -0.00000000
vn 0.72940000 0.68410000 -0.00000000
vn 0.92390000 -0.00000000 0.38270000
vn 0.67390000 -0.68410000 0.27910000
vn 0.04410000 -0.99890000 0.01830000
vn -0.62970000 -0.73170000 -0.26080000
vn -0.92390000 -0.00000000 -0.38270000
vn -0.62970000 0.73170000 -0.26080000
vn 0.04410000 0.99890000 0.01830000
vn 0.67390000 0.68410000 0.27910000
vn 0.70710000 -0.00000000 0.70710000
vn 0.51580000 -0.68410000 0.51580000
vn 0.03380000 -0.99890000 0.03380000
vn -0.48200000 -0.73170000 -0.48200000
vn -0.70710000 -0.00000000 -0.70710000
vn -0.48200000 0.73170000 -0.48200000
vn 0.03380000 0.99890000 0.03380000
vn 0.51580000 0.68410000 0.51580000
vn 0.38270000 -0.00000000 0.92390000
vn 0.27910000 -0.68410000 0.67390000
vn 0.01830000 -0.99890000 0.04410000
vn -0.26080000 -0.73170000 -0.62970000
vn -0.38270000 -0.00000000 -0.92390000
vn -0.26080000 0.73170000 -0.62970000
vn 0.01830000 0.99890000 0.04410000
vn 0.27910000 0.68410000 0.67390000
vn -0.00000000 -0.00000000 1.00000000
vn -0.00000000 -0.68410000 0.72940000
vn -0.00000000 -0.99890000 0.04770000
vn -0.00000000 -0.73170000 -0.68160000
vn -0.00000000 -0.00000000 -1.00000000
vn -0.00000000 0.73170000 -0.68160000
vn -0.00000000 0.99890000 0.04770000
vn -0.00000000 0.68410000 0.72940000
vn -0.38270000 -0.00000000 0.92390000
vn -0.27910000 -0.68410000 0.67390000
vn -0.01830000 -0.99890000 0.04410000
vn 0.26080000 -0.73170000 -0.62970000
vn 0.38270000 -0.00000000 -0.92390000
vn 0.26080000 0.73170000 -0.62970000
vn -0.01830000 0.99890000 0.04410000
vn -0.27910000 0.68410000 0.67390000
vn -0.70710000 -0.00000000 0.70710000
vn -0.51580000 -0.68410000 0.51580000
vn -0.03380000 -0.99890000 0.03380000
vn 0.48200000 -0.73170000 -0.48200000
vn 0.70710000 -0.00000000 -0.70710000
vn 0.48200000 0.73170000 -0.48200000
vn -0.03380000 0.99890000 0.03380000
vn -0.51580000 0.68410000 0.51580000
vn -0.92390000 -0.00000000 0.38270000
vn -0.67390000 -0.68410000 0.27910000
vn -0.04410000 -0.99890000 0.01830000
vn 0.62970000 -0.73170000 -0.26080000
vn 0.92390000 -0.00000000 -0.38270000
vn 0.62970000 0.73170000 -0.26080000
vn -0.04410000 0.99890000 0.01830000
vn -0.67390000 0.68410000 0.27910000
vn -1.00000000 -0.00000000 -0.00000000
vn -0.72940000 -0.68410000 -0.00000000
vn -0.04770000 -0.99890000 -0.00000000
vn 0.68160000 -0.73170000 -0.00000000
vn 1.00000000 -0.00000000 -0.00000000
vn 0.68160000 0.73170000 -0.00000000
vn -0.04770000 0.99890000 -0.00000000
vn -0.72940000 0.68410000 -0.00000000
vn -0.92390000 -0.00000000 -0.38270000
vn -0.67390000 -0.68410000 -0.27910000
vn -0.04410000 -0.99890000 -0.01830000
vn 0.62970000 -0.73170000 0.26080000
vn 0.92390000 -0.00000000 0.38270000
vn 0.62970000 0.73170000 0.26080000
vn -0.04410000 0.99890000 -0.01830000
vn -0.67390000 0.68410000 -0.27910000
vn -0.70710000 -0.00000000 -0.70710000
vn -0.51580000 -0.68410000 -0.51580000
vn -0.03380000 -0.99890000 -0.03380000
vn 0.48200000 -0.73170000 0.48200000
vn 0.70710000 -0.00000000 0.70710000
vn 0.48200000 0.73170000 0.48200000
vn -0.03380000 0.99890000 -0.03380000
vn -0.51580000 0.68410000 -0.51580000
vn -0.38270000 -0.00000000 -0.92390000
vn -0.27910000 -0.68410000 -0.67390000
vn -0.01830000 -0.99890000 -0.04410000
vn 0.26080000 -0.73170000 0.62970000
vn 0.38270000 -0.00000000 0.92390000
vn 0.26080000 0.73170000 0.62970000
vn -0.01830000 0.99890000 -0.04410000
vn -0.27910000 0.68410000 -0.67390000
vn -0.00000000 -0.00000000 -1.00000000
vn -0.00000000 -0.68410000 -0.72940000
vn -0.00000000 -0.99890000 -0.04770000
vn -0.00000000 -0.73170000 0.68160000
vn -0.00000000 -0.00000000 1.00000000
vn -0.00000000 0.73170000 0.68160000
vn -0.00000000 0.99890000 -0.04770000
vn -0.00000000 0.68410000 -0.72940000
vn 0.38270000 -0.00000000 -0.92390000
vn 0.27910000 -0.68410000 -0.67390000
vn 0.01830000 -0.99890000 -0.04410000
vn -0.26080000 -0.73170000 0.62970000
vn -0.38270000 -0.00000000 0.92390000
vn -0.26080000 0.73170000 0.62970000
vn 0.01830000 0.99890000 -0.04410000
vn 0.27910000 0.68410000 -0.67390000
vn 0.70710000 -0.00000000 -0.70710000
vn 0.51580000 -0.68410000 -0.51580000
vn 0.03380000 -0.99890000 -0.03380000
vn -0.48200000 -0.73170000 0.48200000
vn -0.70710000 -0.00000000 0.70710000
vn -0.48200000 0.73170000 0.48200000
vn 0.03380000 0.99890000 -0.03380000
vn 0.51580000 0.68410000 -0.51580000
vn 0.92390000 -0.00000000 -0.38270000
vn 0.67390000 -0.68410000 -0.27910000
vn 0.04410000 -0.99890000 -0.01830000
vn -0.62970000 -0.73170000 0.26080000
vn -0.92390000 -0.00000000 0.38270000
vn -0.62970000 0.73170000 0.26080000
vn 0.04410000 0.99890000 -0.01830000
vn 0.67390000 0.68410000 -0.27910000
f 7//7 20//20 21//21
f 21//21 8//8 7//7
f 1//1 14//14 2//2
f 8//8 21//21 22//22
f 22//22 9//9 8//8
f 2//2 14//14 15//15
f 15//15 3//3 2//2
f 9//9 22//22 23//23
f 23//23 10//10 9//9
f 3//3 15//15 16//16
f 16//16 4//4 3//3
f 10//10 23//23 24//24
f 24//24 11//11 10//10
f 4//4 16//16 17//17
f 17//17 5//5 4//4
f 11//11 24//24 25//25
f 25//25 12//12 11//11
f 5//5 17//17 18//18
f 18//18 6//6 5//5
f 12//12 25//25 13//13
f 6//6 18//18 19//19
f 19//19 482//482 6//6
f 482//482 19//19 20//20
f 20//20 7//7 482//482
f 21//21 33//33 34//34
f 34//34 22//22 21//21
f 14//14 26//26 27//27
f 27//27 15//15 14//14
f 22//22 34//34 35//35
f 35//35 23//23 22//22
f 15//15 27//27 28//28
f 28//28 16//16 15//15
f 23//23 35//35 36//36
f 36//36 24//24 23//23
f 16//16 28//28 29//29
f 29//29 17//17 16//16
f 24//24 36//36 37//37
f 37//37 25//25 24//24
f 17//17 29//29 30//30
f 30//30 18//18 17//17
f 25//25 37//37 13//13
f 18//18 30//30 31//31
f 31//31 19//19 18//18
f 19//19 31//31 32//32
f 32//32 20//20 19//19
f 20//20 32//32 33//33
f 33//33 21//21 20//20
f 1//1 26//26 14//14
f 36//36 48//48 49//49
f 49//49 37//37 36//36
f 29//29 41//41 42//42
f 42//42 30//30 29//29
f 37//37 49//49 13//13
f 30//30 42//42 43//43
f 43//43 31//31 30//30
f 31//31 43//43 44//44
f 44//44 32//32 31//31
f 32//32 44//44 45//45
f 45//45 33//33 32//32
f 1//1 38//38 26//26
f 33//33 45//45 46//46
f 46//46 34//34 33//33
f 26//26 38//38 39//39
f 39//39 27//27 26//26
f 34//34 46//46 47//47
f 47//47 35//35 34//34
f 27//27 39//39 40//40
f 40//40 28//28 27//27
f 35//35 47//47 48//48
f 48//48 36//36 35//35
f 28//28 40//40 41//41
f 41//41 29//29 28//28
f 43//43 55//55 56//56
f 56//56 44//44 43//43
f 44//44 56//56 57//57
f 57//57 45//45 44//44
f 1//1 50//50 38//38
f 45//45 57//57 58//58
f 58//58 46//46 45//45
f 38//38 50//50 51//51
f 51//51 39//39 38//38
f 46//46 58//58 59//59
f 59//59 47//47 46//46
f 39//39 51//51 52//52
f 52//52 40//40 39//39
f 47//47 59//59 60//60
f 60//60 48//48 47//47
f 40//40 52//52 53//53
f 53//53 41//41 40//40
f 48//48 60//60 61//61
f 61//61 49//49 48//48
f 41//41 53//53 54//54
f 54//54 42//42 41//41
f 49//49 61//61 13//13
f 42//42 54//54 55//55
f 55//55 43//43 42//42
f 50//50 62//62 63//63
f 63//63 51//51 50//50
f 58//58 70//70 71//71
f 71//71 59//59 58//58
f 51//51 63//63 64//64
f 64//64 52//52 51//51
f 59//59 71//71 72//72
f 72//72 60//60 59//59
f 52//52 64//64 65//65
f 65//65 53//53 52//52
f 60//60 72//72 73//73
f 73//73 61//61 60//60
f 53//53 65//65 66//66
f 66//66 54//54 53//53
f 61//61 73//73 13//13
f 54//54 66//66 67//67
f 67//67 55//55 54//54
f 55//55 67//67 68//68
f 68//68 56//56 55//55
f 56//56 68//68 69//69
f 69//69 57//57 56//56
f 1//1 62//62 50//50
f 57//57 69//69 70//70
f 70//70 58//58 57//57
f 72//72 84//84 85//85
f 85//85 73//73 72//72
f 65//65 77//77 78//78
f 78//78 66//66 65//65
f 73//73 85//85 13//13
f 66//66 78//78 79//79
f 79//79 67//67 66//66
f 67//67 79//79 80//80
f 80//80 68//68 67//67
f 68//68 80//80 81//81
f 81//81 69//69 68//68
f 1//1 74//74 62//62
f 69//69 81//81 82//82
f 82//82 70//70 69//69
f 62//62 74//74 75//75
f 75//75 63//63 62//62
f 70//70 82//82 83//83
f 83//83 71//71 70//70
f 63//63 75//75 76//76
f 76//76 64//64 63//63
f 71//71 83//83 84//84
f 84//84 72//72 71//71
f 64//64 76//76 77//77
f 77//77 65//65 64//64
f 80//80 92//92 93//93
f 93//93 81//81 80//80
f 1//1 86//86 74//74
f 81//81 93//93 94//94
f 94//94 82//82 81//81
f 74//74 86//86 87//87
f 87//87 75//75 74//74
f 82//82 94//94 95//95
f 95//95 83//83 82//82
f 75//75 87//87 88//88
f 88//88 76//76 75//75
f 83//83 95//95 96//96
f 96//96 84//84 83//83
f 76//76 88//88 89//89
f 89//89 77//77 76//76
f 84//84 96//96 97//97
f 97//97 85//85 84//84
f 77//77 89//89 90//90
f 90//90 78//78 77//77
f 85//85 97//97 13//13
f 78//78 90//90 91//91
f 91//91 79//79 78//78
f 79//79 91//91 92//92
f 92//92 80//80 79//79
f 94//94 106//106 107//107
f 107//107 95//95 94//94
f 87//87 99//99 100//100
f 100//100 88//88 87//87
f 95//95 107//107 108//108
f 108//108 96//96 95//95
f 88//88 100//100 101//101
f 101//101 89//89 88//88
f 96//96 108//108 109//109
f 109//109 97//97 96//96
f 89//89 101//101 102//102
f 102//102 90//90 89//89
f 97//97 109//109 13//13
f 90//90 102//102 103//103
f 103//103 91//91 90//90
f 91//91 103//103 104//104
f 104//104 92//92 91//91
f 92//92 104//104 105//105
f 105//105 93//93 92//92
f 1//1 98//98 86//86
f 93//93 105//105 106//106
f 106//106 94//94 93//93
f 86//86 98//98 99//99
f 99//99 87//87 86//86
f 101//101 113//113 114//114
f 114//114 102//102 101//101
f 109//109 121//121 13//13
f 102//102 114//114 115//115
f 115//115 103//103 102//102
f 103//103 115//115 116//116
f 116//116 104//104 103//103
f 104//104 116//116 117//117
f 117//117 105//105 104//104
f 1//1 110//110 98//98
f 105//105 117//117 118//118
f 118//118 106//106 105//105
f 98//98 110//110 111//111
f 111//111 99//99 98//98
f 106//106 118//118 119//119
f 119//119 107//107 106//106
f 99//99 111//111 112//112
f 112//112 100//100 99//99
f 107//107 119//119 120//120
f 120//120 108//108 107//107
f 100//100 112//112 113//113
f 113//113 101//101 100//100
f 108//108 120//120 121//121
f 121//121 109//109 108//108
f 116//116 128//128 129//129
f 129//129 117//117 116//116
f 1//1 122//122 110//110
f 117//117 129//129 130//130
f 130//130 118//118 117//117
f 110//110 122//122 123//123
f 123//123 111//111 110//110
f 118//118 130//130 131//131
f 131//131 119//119 118//118
f 111//111 123//123 124//124
f 124//124 112//112 111//111
f 119//119 131//131 132//132
f 132//132 120//120 119//119
f 112//112 124//124 125//125
f 125//125 113//113 112//112
f 120//120 132//132 133//133
f 133//133 121//121 120//120
f 113//113 125//125 126//126
f 126//126 114//114 113//113
f 121//121 133//133 13//13
f 114//114 126//126 127//127
f 127//127 115//115 114//114
f 115//115 127//127 128//128
f 128//128 116//116 115//115
f 123//123 135//135 136//136
f 136//136 124//124 123//123
f 131//131 143//143 144//144
f 144//144 132//132 131//131
f 124//124 136//136 137//137
f 137//137 125//125 124//124
f 132//132 144//144 145//145
f 145//145 133//133 132//132
f 125//125 137//137 138//138
f 138//138 126//126 125//125
f 133//133 145//145 13//13
f 126//126 138//138 139//139
f 139//139 127//127 126//126
f 127//127 139//139 140//140
f 140//140 128//128 127//127
f 128//128 140//140 141//141
f 141//141 129//129 128//128
f 1//1 134//134 122//122
f 129//129 141//141 142//142
f 142//142 130//130 129//129
f 122//122 134//134 135//135
f 135//135 123//123 122//122
f 130//130 142//142 143//143
f 143//143 131//131 130//130
f 145//145 157//157 13//13
f 138//138 150//150 151//151
f 151//151 139//139 138//138
f 139//139 151//151 152//152
f 152//152 140//140 139//139
f 140//140 152//152 153//153
f 153//153 141//141 140//140
f 1//1 146//146 134//134
f 141//141 153//153 154//154
f 154//154 142//142 141//141
f 134//134 146//146 147//147
f 147//147 135//135 134//134
f 142//142 154//154 155//155
f 155//155 143//143 142//142
f 135//135 147//147 148//148
f 148//148 136//136 135//135
f 143//143 155//155 156//156
f 156//156 144//144 143//143
f 136//136 148//148 149//149
f 149//149 137//137 136//136
f 144//144 156//156 157//157
f 157//157 145//145 144//144
f 137//137 149//149 150//150
f 150//150 138//138 137//137
f 152//152 164//164 165//165
f 165//165 153//153 152//152
f 1//1 158//158 146//146
f 153//153 165//165 166//166
f 166//166 154//154 153//153
f 146//146 158//158 159//159
f 159//159 147//147 146//146
f 154//154 166//166 167//167
f 167//167 155//155 154//154
f 147//147 159//159 160//160
f 160//160 148//148 147//147
f 155//155 167//167 168//168
f 168//168 156//156 155//155
f 148//148 160//160 161//161
f 161//161 149//149 148//148
f 156//156 168//168 169//169
f 169//169 157//157 156//156
f 149//149 161//161 162//162
f 162//162 150//150 149//149
f 157//157 169//169 13//13
f 150//150 162//162 163//163
f 163//163 151//151 150//150
f 151//151 163//163 164//164
f 164//164 152//152 151//151
f 167//167 179//179 180//180
f 180//180 168//168 167//167
f 160//160 172//172 173//173
f 173//173 161//161 160//160
f 168//168 180//180 181//181
f 181//181 169//169 168//168
f 161//161 173//173 174//174
f 174//174 162//162 161//161
f 169//169 181//181 13//13
f 162//162 174//174 175//175
f 175//175 163//163 162//162
f 163//163 175//175 176//176
f 176//176 164//164 163//163
f 164//164 176//176 177//177
f 177//177 165//165 164//164
f 1//1 170//170 158//158
f 165//165 177//177 178//178
f 178//178 166//166 165//165
f 158//158 170//170 171//171
f 171//171 159//159 158//158
f 166//166 178//178 179//179
f 179//179 167//167 166//166
f 159//159 171//171 172//172
f 172//172 160//160 159//159
f 174//174 186//186 187//187
f 187//187 175//175 174//174
f 175//175 187//187 188//188
f 188//188 176//176 175//175
f 176//176 188//188 189//189
f 189//189 177//177 176//176
f 1//1 182//182 170//170
f 177//177 189//189 190//190
f 190//190 178//178 177//177
f 170//170 182//182 183//183
f 183//183 171//171 170//170
f 178//178 190//190 191//191
f 191//191 179//179 178//178
f 171//171 183//183 184//184
f 184//184 172//172 171//171
f 179//179 191//191 192//192
f 192//192 180//180 179//179
f 172//172 184//184 185//185
f 185//185 173//173 172//172
f 180//180 192//192 193//193
f 193//193 181//181 180//180
f 173//173 185//185 186//186
f 186//186 174//174 173//173
f 181//181 193//193 13//13
f 1//1 194//194 182//182
f 189//189 201//201 202//202
f 202//202 190//190 189//189
f 182//182 194//194 195//195
f 195//195 183//183 182//182
f 190//190 202//202 203//203
f 203//203 191//191 190//190
f 183//183 195//195 196//196
f 196//196 184//184 183//183
f 191//191 203//203 204//204
f 204//204 192//192 191//191
f 184//184 196//196 197//197
f 197//197 185//185 184//184
f 192//192 204//204 205//205
f 205//205 193//193 192//192
f 185//185 197//197 198//198
f 198//198 186//186 185//185
f 193//193 205//205 13//13
f 186//186 198//198 199//199
f 199//199 187//187 186//186
f 187//187 199//199 200//200
f 200//200 188//188 187//187
f 188//188 200//200 201//201
f 201//201 189//189 188//188
f 203//203 215//215 216//216
f 216//216 204//204 203//203
f 196//196 208//208 209//209
f 209//209 197//197 196//196
f 204//204 216//216 217//217
f 217//217 205//205 204//204
f 197//197 209//209 210//210
f 210//210 198//198 197//197
f 205//205 217//217 13//13
f 198//198 210//210 211//211
f 211//211 199//199 198//198
f 199//199 211//211 212//212
f 212//212 200//200 199//199
f 200//200 212//212 213//213
f 213//213 201//201 200//200
f 1//1 206//206 194//194
f 201//201 213//213 214//214
f 214//214 202//202 201//201
f 194//194 206//206 207//207
f 207//207 195//195 194//194
f 202//202 214//214 215//215
f 215//215 203//203 202//202
f 195//195 207//207 208//208
f 208//208 196//196 195//195
f 211//211 223//223 224//224
f 224//224 212//212 211//211
f 212//212 224//224 225//225
f 225//225 213//213 212//212
f 1//1 218//218 206//206
f 213//213 225//225 226//226
f 226//226 214//214 213//213
f 206//206 218//218 219//219
f 219//219 207//207 206//206
f 214//214 226//226 227//227
f 227//227 215//215 214//214
f 207//207 219//219 220//220
f 220//220 208//208 207//207
f 215//215 227//227 228//228
f 228//228 216//216 215//215
f 208//208 220//220 221//221
f 221//221 209//209 208//208
f 216//216 228//228 229//229
f 229//229 217//217 216//216
f 209//209 221//221 222//222
f 222//222 210//210 209//209
f 217//217 229//229 13//13
f 210//210 222//222 223//223
f 223//223 211//211 210//210
f 225//225 237//237 238//238
f 238//238 226//226 225//225
f 218//218 230//230 231//231
f 231//231 219//219 218//218
f 226//226 238//238 239//239
f 239//239 227//227 226//226
f 219//219 231//231 232//232
f 232//232 220//220 219//219
f 227//227 239//239 240//240
f 240//240 228//228 227//227
f 220//220 232//232 233//233
f 233//233 221//221 220//220
f 228//228 240//240 241//241
f 241//241 229//229 228//228
f 221//221 233//233 234//234
f 234//234 222//222 221//221
f 229//229 241//241 13//13
f 222//222 234//234 235//235
f 235//235 223//223 222//222
f 223//223 235//235 236//236
f 236//236 224//224 223//223
f 224//224 236//236 237//237
f 237//237 225//225 224//224
f 1//1 230//230 218//218
f 232//232 244//244 245//245
f 245//245 233//233 232//232
f 240//240 252//252 253//253
f 253//253 241//241 240//240
f 233//233 245//245 246//246
f 246//246 234//234 233//233
f 241//241 253//253 13//13
f 234//234 246//246 247//247
f 247//247 235//235 234//234
f 235//235 247//247 248//248
f 248//248 236//236 235//235
f 236//236 248//248 249//249
f 249//249 237//237 236//236
f 1//1 242//242 230//230
f 237//237 249//249 250//250
f 250//250 238//238 237//237
f 230//230 242//242 243//243
f 243//243 231//231 230//230
f 238//238 250//250 251//251
f 251//251 239//239 238//238
f 231//231 243//243 244//244
f 244//244 232//232 231//231
f 239//239 251//251 252//252
f 252//252 240//240 239//239
f 247//247 259//259 260//260
f 260//260 248//248 247//247
f 248//248 260//260 261//261
f 261//261 249//249 248//248
f 1//1 254//254 242//242
f 249//249 261//261 262//262
f 262//262 250//250 249//249
f 242//242 254//254 255//255
f 255//255 243//243 242//242
f 250//250 262//262 263//263
f 263//263 251//251 250//250
f 243//243 255//255 256//256
f 256//256 244//244 243//243
f 251//251 263//263 264//264
f 264//264 252//252 251//251
f 244//244 256//256 257//257
f 257//257 245//245 244//244
f 252//252 264//264 265//265
f 265//265 253//253 252//252
f 245//245 257//257 258//258
f 258//258 246//246 245//245
f 253//253 265//265 13//13
f 246//246 258//258 259//259
f 259//259 247//247 246//246
f 254//254 266//266 267//267
f 267//267 255//255 254//254
f 262//262 274//274 275//275
f 275//275 263//263 262//262
f 255//255 267//267 268//268
f 268//268 256//256 255//255
f 263//263 275//275 276//276
f 276//276 264//264 263//263
f 256//256 268//268 269//269
f 269//269 257//257 256//256
f 264//264 276//276 277//277
f 277//277 265//265 264//264
f 257//257 269//269 270//270
f 270//270 258//258 257//257
f 265//265 277//277 13//13
f 258//258 270//270 271//271
f 271//271 259//259 258//258
f 259//259 271//271 272//272
f 272//272 260//260 259//259
f 260//260 272//272 273//273
f 273//273 261//261 260//260
f 1//1 266//266 254//254
f 261//261 273//273 274//274
f 274//274 262//262 261//261
f 276//276 288//288 289//289
f 289//289 277//277 276//276
f 269//269 281//281 282//282
f 282//282 270//270 269//269
f 277//277 289//289 13//13
f 270//270 282//282 283//283
f 283//283 271//271 270//270
f 271//271 283//283 284//284
f 284//284 272//272 271//271
f 272//272 284//284 285//285
f 285//285 273//273 272//272
f 1//1 278//278 266//266
f 273//273 285//285 286//286
f 286//286 274//274 273//273
f 266//266 278//278 279//279
f 279//279 267//267 266//266
f 274//274 286//286 287//287
f 287//287 275//275 274//274
f 267//267 279//279 280//280
f 280//280 268//268 267//267
f 275//275 287//287 288//288
f 288//288 276//276 275//275
f 268//268 280//280 281//281
f 281//281 269//269 268//268
f 283//283 295//295 296//296
f 296//296 284//284 283//283
f 284//284 296//296 297//297
f 297//297 285//285 284//284
f 1//1 290//290 278//278
f 285//285 297//297 298//298
f 298//298 286//286 285//285
f 278//278 290//290 291//291
f 291//291 279//279 278//278
f 286//286 298//298 299//299
f 299//299 287//287 286//286
f 279//279 291//291 292//292
f 292//292 280//280 279//279
f 287//287 299//299 300//300
f 300//300 288//288 287//287
f 280//280 292//292 293//293
f 293//293 281//281 280//280
f 288//288 300//300 301//301
f 301//301 289//289 288//288
f 281//281 293//293 294//294
f 294//294 282//282 281//281
f 289//289 301//301 13//13
f 282//282 294//294 295//295
f 295//295 283//283 282//282
f 298//298 310//310 311//311
f 311//311 299//299 298//298
f 291//291 303//303 304//304
f 304//304 292//292 291//291
f 299//299 311//311 312//312
f 312//312 300//300 299//299
f 292//292 304//304 305//305
f 305//305 293//293 292//292
f 300//300 312//312 313//313
f 313//313 301//301 300//300
f 293//293 305//305 306//306
f 306//306 294//294 293//293
f 301//301 313//313 13//13
f 294//294 306//306 307//307
f 307//307 295//295 294//294
f 295//295 307//307 308//308
f 308//308 296//296 295//295
f 296//296 308//308 309//309
f 309//309 297//297 296//296
f 1//1 302//302 290//290
f 297//297 309//309 310//310
f 310//310 298//298 297//297
f 290//290 302//302 303//303
f 303//303 291//291 290//290
f 305//305 317//317 318//318
f 318//318 306//306 305//305
f 313//313 325//325 13//13
f 306//306 318//318 319//319
f 319//319 307//307 306//306
f 307//307 319//319 320//320
f 320//320 308//308 307//307
f 308//308 320//320 321//321
f 321//321 309//309 308//308
f 1//1 314//314 302//302
f 309//309 321//321 322//322
f 322//322 310//310 309//309
f 302//302 314//314 315//315
f 315//315 303//303 302//302
f 310//310 322//322 323//323
f 323//323 311//311 310//310
f 303//303 315//315 316//316
f 316//316 304//304 303//303
f 311//311 323//323 324//324
f 324//324 312//312 311//311
f 304//304 316//316 317//317
f 317//317 305//305 304//304
f 312//312 324//324 325//325
f 325//325 313//313 312//312
f 320//320 332//332 333//333
f 333//333 321//321 320//320
f 1//1 326//326 314//314
f 321//321 333//333 334//334
f 334//334 322//322 321//321
f 314//314 326//326 327//327
f 327//327 315//315 314//314
f 322//322 334//334 335//335
f 335//335 323//323 322//322
f 315//315 327//327 328//328
f 328//328 316//316 315//315
f 323//323 335//335 336//336
f 336//336 324//324 323//323
f 316//316 328//328 329//329
f 329//329 317//317 316//316
f 324//324 336//336 337//337
f 337//337 325//325 324//324
f 317//317 329//329 330//330
f 330//330 318//318 317//317
f 325//325 337//337 13//13
f 318//318 330//330 331//331
f 331//331 319//319 318//318
f 319//319 331//331 332//332
f 332//332 320//320 319//319
f 334//334 346//346 347//347
f 347//347 335//335 334//334
f 327//327 339//339 340//340
f 340//340 328//328 327//327
f 335//335 347//347 348//348
f 348//348 336//336 335//335
f 328//328 340//340 341//341
f 341//341 329//329 328//328
f 336//336 348//348 349//349
f 349//349 337//337 336//336
f 329//329 341//341 342//342
f 342//342 330//330 329//329
f 337//337 349//349 13//13
f 330//330 342//342 343//343
f 343//343 331//331 330//330
f 331//331 343//343 344//344
f 344//344 332//332 331//331
f 332//332 344//344 345//345
f 345//345 333//333 332//332
f 1//1 338//338 326//326
f 333//333 345//345 346//346
f 346//346 334//334 333//333
f 326//326 338//338 339//339
f 339//339 327//327 326//326
f 349//349 361//361 13//13
f 342//342 354//354 355//355
f 355//355 343//343 342//342
f 343//343 355//355 356//356
f 356//356 344//344 343//343
f 344//344 356//356 357//357
f 357//357 345//345 344//344
f 1//1 350//350 338//338
f 345//345 357//357 358//358
f 358//358 346//346 345//345
f 338//338 350//350 351//351
f 351//351 339//339 338//338
f 346//346 358//358 359//359
f 359//359 347//347 346//346
f 339//339 351//351 352//352
f 352//352 340//340 339//339
f 347//347 359//359 360//360
f 360//360 348//348 347//347
f 340//340 352//352 353//353
f 353//353 341//341 340//340
f 348//348 360//360 361//361
f 361//361 349//349 348//348
f 341//341 353//353 354//354
f 354//354 342//342 341//341
f 356//356 368//368 369//369
f 369//369 357//357 356//356
f 1//1 362//362 350//350
f 357//357 369//369 370//370
f 370//370 358//358 357//357
f 350//350 362//362 363//363
f 363//363 351//351 350//350
f 358//358 370//370 371//371
f 371//371 359//359 358//358
f 351//351 363//363 364//364
f 364//364 352//352 351//351
f 359//359 371//371 372//372
f 372//372 360//360 359//359
f 352//352 364//364 365//365
f 365//365 353//353 352//352
f 360//360 372//372 373//373
f 373//373 361//361 360//360
f 353//353 365//365 366//366
f 366//366 354//354 353//353
f 361//361 373//373 13//13
f 354//354 366//366 367//367
f 367//367 355//355 354//354
f 355//355 367//367 368//368
f 368//368 356//356 355//355
f 363//363 375//375 376//376
f 376//376 364//364 363//363
f 371//371 383//383 384//384
f 384//384 372//372 371//371
f 364//364 376//376 377//377
f 377//377 365//365 364//364
f 372//372 384//384 385//385
f 385//385 373//373 372//372
f 365//365 377//377 378//378
f 378//378 366//366 365//365
f 373//373 385//385 13//13
f 366//366 378//378 379//379
f 379//379 367//367 366//366
f 367//367 379//379 380//380
f 380//380 368//368 367//367
f 368//368 380//380 381//381
f 381//381 369//369 368//368
f 1//1 374//374 362//362
f 369//369 381//381 382//382
f 382//382 370//370 369//369
f 362//362 374//374 375//375
f 375//375 363//363 362//362
f 370//370 382//382 383//383
f 383//383 371//371 370//370
f 385//385 397//397 13//13
f 378//378 390//390 391//391
f 391//391 379//379 378//378
f 379//379 391//391 392//392
f 392//392 380//380 379//379
f 380//380 392//392 393//393
f 393//393 381//381 380//380
f 1//1 386//386 374//374
f 381//381 393//393 394//394
f 394//394 382//382 381//381
f 374//374 386//386 387//387
f 387//387 375//375 374//374
f 382//382 394//394 395//395
f 395//395 383//383 382//382
f 375//375 387//387 388//388
f 388//388 376//376 375//375
f 383//383 395//395 396//396
f 396//396 384//384 383//383
f 376//376 388//388 389//389
f 389//389 377//377 376//376
f 384//384 396//396 397//397
f 397//397 385//385 384//384
f 377//377 389//389 390//390
f 390//390 378//378 377//377
f 1//1 398//398 386//386
f 393//393 405//405 406//406
f 406//406 394//394 393//393
f 386//386 398//398 399//399
f 399//399 387//387 386//386
f 394//394 406//406 407//407
f 407//407 395//395 394//394
f 387//387 399//399 400//400
f 400//400 388//388 387//387
f 395//395 407//407 408//408
f 408//408 396//396 395//395
f 388//388 400//400 401//401
f 401//401 389//389 388//388
f 396//396 408//408 409//409
f 409//409 397//397 396//396
f 389//389 401//401 402//402
f 402//402 390//390 389//389
f 397//397 409//409 13//13
f 390//390 402//402 403//403
f 403//403 391//391 390//390
f 391//391 403//403 404//404
f 404//404 392//392 391//391
f 392//392 404//404 405//405
f 405//405 393//393 392//392
f 407//407 419//419 420//420
f 420//420 408//408 407//407
f 400//400 412//412 413//413
f 413//413 401//401 400//400
f 408//408 420//420 421//421
f 421//421 409//409 408//408
f 401//401 413//413 414//414
f 414//414 402//402 401//401
f 409//409 421//421 13//13
f 402//402 414//414 415//415
f 415//415 403//403 402//402
f 403//403 415//415 416//416
f 416//416 404//404 403//403
f 404//404 416//416 417//417
f 417//417 405//405 404//404
f 1//1 410//410 398//398
f 405//405 417//417 418//418
f 418//418 406//406 405//405
f 398//398 410//410 411//411
f 411//411 399//399 398//398
f 406//406 418//418 419//419
f 419//419 407//407 406//406
f 399//399 411//411 412//412
f 412//412 400//400 399//399
f 414//414 426//426 427//427
f 427//427 415//415 414//414
f 415//415 427//427 428//428
f 428//428 416//416 415//415
f 416//416 428//428 429//429
f 429//429 417//417 416//416
f 1//1 422//422 410//410
f 417//417 429//429 430//430
f 430//430 418//418 417//417
f 410//410 422//422 423//423
f 423//423 411//411 410//410
f 418//418 430//430 431//431
f 431//431 419//419 418//418
f 411//411 423//423 424//424
f 424//424 412//412 411//411
f 419//419 431//431 432//432
f 432//432 420//420 419//419
f 412//412 424//424 425//425
f 425//425 413//413 412//412
f 420//420 432//432 433//433
f 433//433 421//421 420//420
f 413//413 425//425 426//426
f 426//426 414//414 413//413
f 421//421 433//433 13//13
f 429//429 441//441 442//442
f 442//442 430//430 429//429
f 422//422 434//434 435//435
f 435//435 423//423 422//422
f 430//430 442//442 443//443
f 443//443 431//431 430//430
f 423//423 435//435 436//436
f 436//436 424//424 423//423
f 431//431 443//443 444//444
f 444//444 432//432 431//431
f 424//424 436//436 437//437
f 437//437 425//425 424//424
f 432//432 444//444 445//445
f 445//445 433//433 432//432
f 425//425 437//437 438//438
f 438//438 426//426 425//425
f 433//433 445//445 13//13
f 426//426 438//438 439//439
f 439//439 427//427 426//426
f 427//427 439//439 440//440
f 440//440 428//428 427//427
f 428//428 440//440 441//441
f 441//441 429//429 428//428
f 1//1 434//434 422//422
f 436//436 448//448 449//449
f 449//449 437//437 436//436
f 444//444 456//456 457//457
f 457//457 445//445 444//444
f 437//437 449//449 450//450
f 450//450 438//438 437//437
f 445//445 457//457 13//13
f 438//438 450//450 451//451
f 451//451 439//439 438//438
f 439//439 451//451 452//452
f 452//452 440//440 439//439
f 440//440 452//452 453//453
f 453//453 441//441 440//440
f 1//1 446//446 434//434
f 441//441 453//453 454//454
f 454//454 442//442 441//441
f 434//434 446//446 447//447
f 447//447 435//435 434//434
f 442//442 454//454 455//455
f 455//455 443//443 442//442
f 435//435 447//447 448//448
f 448//448 436//436 435//435
f 443//443 455//455 456//456
f 456//456 444//444 443//443
f 451//451 463//463 464//464
f 464//464 452//452 451//451
f 452//452 464//464 465//465
f 465//465 453//453 452//452
f 1//1 458//458 446//446
f 453//453 465//465 466//466
f 466//466 454//454 453//453
f 446//446 458//458 459//459
f 459//459 447//447 446//446
f 454//454 466//466 467//467
f 467//467 455//455 454//454
f 447//447 459//459 460//460
f 460//460 448//448 447//447
f 455//455 467//467 468//468
f 468//468 456//456 455//455
f 448//448 460//460 461//461
f 461//461 449//449 448//448
f 456//456 468//468 469//469
f 469//469 457//457 456//456
f 449//449 461//461 462//462
f 462//462 450//450 449//449
f 457//457 469//469 13//13
f 450//450 462//462 463//463
f 463//463 451//451 450//450
f 465//465 477//477 478//478
f 478//478 466//466 465//465
f 458//458 470//470 471//471
f 471//471 459//459 458//458
f 466//466 478//478 479//479
f 479//479 467//467 466//466
f 459//459 471//471 472//472
f 472//472 460//460 459//459
f 467//467 479//479 480//480
f 480//480 468//468 467//467
f 460//460 472//472 473//473
f 473//473 461//461 460//460
f 468//468 480//480 481//481
f 481//481 469//469 468//468
f 461//461 473//473 474//474
f 474//474 462//462 461//461
f 469//469 481//481 13//13
f 462//462 474//474 475//475
f 475//475 463//463 462//462
f 463//463 475//475 476//476
f 476//476 464//464 463//463
f 464//464 476//476 477//477
f 477//477 465//465 464//464
f 1//1 470//470 458//458
f 480//480 11//11 12//12
f 12//12 481//481 480//480
f 473//473 5//5 6//6
f 6//6 474//474 473//473
f 481//481 12//12 13//13
f 474//474 6//6 482//482
f 482//482 475//475 474//474
f 475//475 482//482 7//7
f 7//7 476//476 475//475
f 476//476 7//7 8//8
f 8//8 477//477 476//476
f 1//1 2//2 470//470
f 477//477 8//8 9//9
f 9//9 478//478 477//477
f 470//470 2//2 3//3
f 3//3 471//471 470//470
f 478//478 9//9 10//10
f 10//10 479//479 478//478
f 471//471 3//3 4//4
f 4//4 472//472 471//471
f 479//479 10//10 11//11
f 11//11 480//480 479//479
f 472//472 4//4 5//5
f 5//5 473//473 472//472
f 483//483 491//491 492//492
f 492//492 484//484 483//483
f 484//484 492//492 493//493
f 493//493 485//485 484//484
f 485//485 493//493 494//494
f 494//494 486//486 485//485
f 486//486 494//494 495//495
f 495//495 487//487 486//486
f 487//487 495//495 496//496
f 496//496 488//488 487//487
f 488//488 496//496 497//497
f 497//497 489//489 488//488
f 489//489 497//497 498//498
f 498//498 490//490 489//489
f 490//490 498//498 491//491
f 491//491 483//483 490//490
f 491//491 499//499 500//500
f 500//500 492//492 491//491
f 492//492 500//500 501//501
f 501//501 493//493 492//492
f 493//493 501//501 502//502
f 502//502 494//494 493//493
f 494//494 502//502 503//503
f 503//503 495//495 494//494
f 495//495 503//503 504//504
f 504//504 496//496 495//495
f 496//496 504//504 505//505
f 505//505 497//497 496//496
f 497//497 505//505 506//506
f 506//506 498//498 497//497
f 498//498 506//506 499//499
f 499//499 491//491 498//498
f 499//499 507//507 508//508
f 508//508 500//500 499//499
f 500//500 508//508 509//509
f 509//509 501//501 500//500
f 501//501 509//509 510//510
f 510//510 502//502 501//501
f 502//502 510//510 511//511
f 511//511 503//503 502//502
f 503//503 511//511 512//512
f 512//512 504//504 503//503
f 504//504 512//512 513//513
f 513//513 505//505 504//504
f 505//505 513//513 514//514
f 514//514 506//506 505//505
f 506//506 514//514 507//507
f 507//507 499//499 506//506
f 507//507 515//515 516//516
f 516//516 508//508 507//507
f 508//508 516//516 517//517
f 517//517 509//509 508//508
f 509//509 517//517 518//518
f 518//518 510//510 509//509
f 510//510 518//518 519//519
f 519//519 511//511 510//510
f 511//511 519//519 520//520
f 520//520 512//512 511//511
f 512//512 520//520 521//521
f 521//521 513//513 512//512
f 513//513 521//521 522//522
f 522//522 514//514 513//513
f 514//514 522//522 515//515
f 515//515 507//507 514//514
f 515//515 523//523 524//524
f 524//524 516//516 515//515
f 516//516 524//524 525//525
f 525//525 517//517 516//516
f 517//517 525//525 526//526
f 526//526 518//518 517//517
f 518//518 526//526 527//527
f 527//527 519//519 518//518
f 519//519 527//527 528//528
f 528//528 520//520 519//519
f 520//520 528//528 529//529
f 529//529 521//521 520//520
f 521//521 529//529 530//530
f 530//530 522//522 521//521
f 522//522 530//530 523//523
f 523//523 515//515 522//522
f 523//523 531//531 532//532
f 532//532 524//524 523//523
f 524//524 532//532 533//533
f 533//533 525//525 524//524
f 525//525 533//533 534//534
f 534//534 526//526 525//525
f 526//526 534//534 535//535
f 535//535 527//527 526//526
f 527//527 535//535 536//536
f 536//536 528//528 527//527
f 528//528 536//536 537//537
f 537//537 529//529 528//528
f 529//529 537//537 538//538
f 538//538 530//530 529//529
f 530//530 538//538 531//531
f 531//531 523//523 530//530
f 531//531 539//539 540//540
f 540//540 532//532 531//531
f 532//532 540//540 541//541
f 541//541 533//533 532//532
f 533//533 541//541 542//542
f 542//542 534//534 533//533
f 534//534 542//542 543//543
f 543//543 535//535 534//534
f 535//535 543//543 544//544
f 544//544 536//536 535//535
f 536//536 544//544 545//545
f 545//545 537//537 536//536
f 537//537 545//545 546//546
f 546//546 538//538 537//537
f 538//538 546//546 539//539
f 539//539 531//531 538//538
f 539//539 547//547 548//548
f 548//548 540//540 539//539
f 540//540 548//548 549//549
f 549//549 541//541 540//540
f 541//541 549//549 550//550
f 550//550 542//542 541//541
f 542//542 550//550 551//551
f 551//551 543//543 542//542
f 543//543 551//551 552//552
f 552//552 544//544 543//543
f 544//544 552//552 553//553
f 553//553 545//545 544//544
f 545//545 553//553 554//554
f 554//554 546//546 545//545
f 546//546 554//554 547//547
f 547//547 539//539 546//546
f 547//547 555//555 556//556
f 556//556 548//548 547//547
f 548//548 556//556 557//557
f 557//557 549//549 548//548
f 549//549 557//557 558//558
f 558//558 550//550 549//549
f 550//550 558//558 559//559
f 559//559 551//551 550//550
f 551//551 559//559 560//560
f 560//560 552//552 551//551
f 552//552 560//560 561//561
f 561//561 553//553 552//552
f 553//553 561//561 562//562
f 562//562 554//554 553//553
f 554//554 562//562 555//555
f 555//555 547//547 554//554
f 555//555 563//563 564//564
f 564//564 556//556 555//555
f 556//556 564//564 565//565
f 565//565 557//557 556//556
f 557//557 565//565 566//566
f 566//566 558//558 557//557
f 558//558 566//566 567//567
f 567//567 559//559 558//558
f 559//559 567//567 568//568
f 568//568 560//560 559//559
f 560//560 568//568 569//569
f 569//569 561//561 560//560
f 561//561 569//569 570//570
f 570//570 562//562 561//561
f 562//562 570//570 563//563
f 563//563 555//555 562//562
f 563//563 571//571 572//572
f 572//572 564//564 563//563
f 564//564 572//572 573//573
f 573//573 565//565 564//564
f 565//565 573//573 574//574
f 574//574 566//566 565//565
f 566//566 574//574 575//575
f 575//575 567//567 566//566
f 567//567 575//575 576//576
f 576//576 568//568 567//567
f 568//568 576//576 577//577
f 577//577 569//569 568//568
f 569//569 577//577 578//578
f 578//578 570//570 569//569
f 570//570 578//578 571//571
f 571//571 563//563 570//570
f 571//571 579//579 580//580
f 580//580 572//572 571//571
f 572//572 580//580 581//581
f 581//581 573//573 572//572
f 573//573 581//581 582//582
f 582//582 574//574 573//573
f 574//574 582//582 583//583
f 583//583 575//575 574//574
f 575//575 583//583 584//584
f 584//584 576//576 575//575
f 576//576 584//584 585//585
f 585//585 577//577 576//576
f 577//577 585//585 586//586
f 586//586 578//578 577//577
f 578//578 586//586 579//579
f 579//579 571//571 578//578
f 579//579 587//587 588//588
f 588//588 580//580 579//579
f 580//580 588//588 589//589
f 589//589 581//581 580//580
f 581//581 589//589 590//590
f 590//590 582//582 581//581
f 582//582 590//590 591//591
f 591//591 583//583 582//582
f 583//583 591//591 592//592
f 592//592 584//584 583//583
f 584//584 592//592 593//593
f 593//593 585//585 584//584
f 585//585 593//593 594//594
f 594//594 586//586 585//585
f 586//586 594//594 587//587
f 587//587 579//579 586//586
f 587//587 595//595 596//596
f 596//596 588//588 587//587
f 588//588 596//596 597//597
f 597//597 589//589 588//588
f 589//589 597//597 598//598
f 598//598 590//590 589//589
f 590//590 598//598 599//599
f 599//599 591//591 590//590
f 591//591 599//599 600//600
f 600//600 592//592 591//591
f 592//592 600//600 601//601
f 601//601 593//593 592//592
f 593//593 601//601 602//602
f 602//602 594//594 593//593
f 594//594 602//602 595//595
f 595//595 587//587 594//594
f 595//595 603//603 604//604
f 604//604 596//596 595//595
f 596//596 604//604 605//605
f 605//605 597//597 596//596
f 597//597 605//605 606//606
f 606//606 598//598 597//597
f 598//598 606//606 607//607
f 607//607 599//599 598//598
f 599//599 607//607 608//608
f 608//608 600//600 599//599
f 600//600 608//608 609//609
f 609//609 601//601 600//600
f 601//601 609//609 610//610
f 610//610 602//602 601//601
f 602//602 610//610 603//603
f 603//603 595//595 602//602
f 603//603 483//483 484//484
f 484//484 604//604 603//603
f 604//604 484//484 485//485
f 485//485 605//605 604//604
f 605//605 485//485 486//486
f 486//486 606//606 605//605
f 606//606 486//486 487//487
f 487//487 607//607 606//606
f 607//607 487//487 488//488
f 488//488 608//608 607//607
f 608//608 488//488 489//489
f 489//489 609//609 608//608
f 609//609 489//489 490//490
f 490//490 610//610 609//609
f 610//610 490//490 483//483
f 483//483 603//603 610//610
f 611//611 619//619 620//620
f 620//620 612//612 611//611
f 612//612 620//620 621//621
f 621//621 613//613 612//612
f 613//613 621//621 622//622
f 622//622 614//614 613//613
f 614//614 622//622 623//623
f 623//623 615//615 614//614
f 615//615 623//623 624//624
f 624//624 616//616 615//615
f 616//616 624//624 625//625
f 625//625 617//617 616//616
f 617//617 625//625 626//626
f 626//626 618//618 617//617
f 618//618 626//626 619//619
f 619//619 611//611 618//618
f 619//619 627//627 628//628
f 628//628 620//620 619//619
f 620//620 628//628 629//629
f 629//629 621//621 620//620
f 621//621 629//629 630//630
f 630//630 622//622 621//621
f 622//622 630//630 631//631
f 631//631 623//623 622//622
f 623//623 631//631 632//632
f 632//632 624//624 623//623
f 624//624 632//632 633//633
f 633//633 625//625 624//624
f 625//625 633//633 634//634
f 634//634 626//626 625//625
f 626//626 634//634 627//627
f 627//627 619//619 626//626
f 627//627 635//635 636//636
f 636//636 628//628 627//627
f 628//628 636//636 637//637
f 637//637 629//629 628//628
f 629//629 637//637 638//638
f 638//638 630//630 629//629
f 630//630 638//638 639//639
f 639//639 631//631 630//630
f 631//631 639//639 640//640
f 640//640 632//632 631//631
f 632//632 640//640 641//641
f 641//641 633//633 632//632
f 633//633 641//641 642//642
f 642//642 634//634 633//633
f 634//634 642//642 635//635
f 635//635 627//627 634//634
f 635//635 643//643 644//644
f 644//644 636//636 635//635
f 636//636 644//644 645//645
f 645//645 637//637 636//636
f 637//637 645//645 646//646
f 646//646 638//638 637//637
f 638//638 646//646 647//647
f 647//647 639//639 638//638
f 639//639 647//647 648//648
f 648//648 640//640 639//639
f 640//640 648//648 649//649
f 649//649 641//641 640//640
f 641//641 649//649 650//650
f 650//650 642//642 641//641
f 642//642 650//650 643//643
f 643//643 635//635 642//642
f 643//643 651//651 652//652
f 652//652 644//644 643//643
f 644//644 652//652 653//653
f 653//653 645//645 644//644
f 645//645 653//653 654//654
f 654//654 646//646 645//645
f 646//646 654//654 655//655
f 655//655 647//647 646//646
f 647//647 655//655 656//656
f 656//656 648//648 647//647
f 648//648 656//656 657//657
f 657//657 649//649 648//648
f 649//649 657//657 658//658
f 658//658 650//650 649//649
f 650//650 658//658 651//651
f 651//651 643//643 650//650
f 651//651 659//659 660//660
f 660//660 652//652 651//651
f 652//652 660//660 661//661
f 661//661 653//653 652//652
f 653//653 661//661 662//662
f 662//662 654//654 653//653
f 654//654 662//662 663//663
f 663//663 655//655 654//654
f 655//655 663//663 664//664
f 664//664 656//656 655//655
f 656//656 664//664 665//665
f 665//665 657//657 656//656
f 657//657 665//665 666//666
f 666//666 658//658 657//657
f 658//658 666//666 659//659
f 659//659 651//651 658//658
f 659//659 667//667 668//668
f 668//668 660//660 659//659
f 660//660 668//668 669//669
f 669//669 661//661 660//660
f 661//661 669//669 670//670
f 670//670 662//662 661//661
f 662//662 670//670 671//671
f 671//671 663//663 662//662
f 663//663 671//671 672//672
f 672//672 664//664 663//663
f 664//664 672//672 673//673
f 673//673 665//665 664//664
f 665//665 673//673 674//674
f 674//674 666//666 665//665
f 666//666 674//674 667//667
f 667//667 659//659 666//666
f 667//667 675//675 676//676
f 676//676 668//668 667//667
f 668//668 676//676 677//677
f 677//677 669//669 668//668
f 669//669 677//677 678//678
f 678//678 670//670 669//669
f 670//670 678//678 679//679
f 679//679 671//671 670//670
f 671//671 679//679 680//680
f 680//680 672//672 671//671
f 672//672 680//680 681//681
f 681//681 673//673 672//672
f 673//673 681//681 682//682
f 682//682 674//674 673//673
f 674//674 682//682 675//675
f 675//675 667//667 674//674
f 675//675 683//683 684//684
f 684//684 676//676 675//675
f 676//676 684//684 685//685
f 685//685 677//677 676//676
f 677//677 685//685 686//686
f 686//686 678//678 677//677
f 678//678 686//686 687//687
f 687//687 679//679 678//678
f 679//679 687//687 688//688
f 688//688 680//680 679//679
f 680//680 688//688 689//689
f 689//689 681//681 680//680
f 681//681 689//689 690//690
f 690//690 682//682 681//681
f 682//682 690//690 683//683
f 683//683 675//675 682//682
f 683//683 691//691 692//692
f 692//692 684//684 683//683
f 684//684 692//692 693//693
f 693//693 685//685 684//684
f 685//685 693//693 694//694
f 694//694 686//686 685//685
f 686//686 694//694 695//695
f 695//695 687//687 686//686
f 687//687 695//695 696//696
f 696//696 688//688 687//687
f 688//688 696//696 697//697
f 697//697 689//689 688//688
f 689//689 697//697 698//698
f 698//698 690//690 689//689
f 690//690 698//698 691//691
f 691//691 683//683 690//690
f 691//691 699//699 700//700
f 700//700 692//692 691//691
f 692//692 700//700 701//701
f 701//701 693//693 692//692
f 693//693 701//701 702//702
f 702//702 694//694 693//693
f 694//694 702//702 703//703
f 703//703 695//695 694//694
f 695//695 703//703 704//704
f 704//704 696//696 695//695
f 696//696 704//704 705//705
f 705//705 697//697 696//696
f 697//697 705//705 706//706
f 706//706 698//698 697//697
f 698//698 706//706 699//699
f 699//699 691//691 698//698
f 699//699 707//707 708//708
f 708//708 700//700 699//699
f 700//700 708//708 709//709
f 709//709 701//701 700//700
f 701//701 709//709 710//710
f 710//710 702//702 701//701
f 702//702 710//710 711//711
f 711//711 703//703 702//702
f 703//703 711//711 712//712
f 712//712 704//704 703//703
f 704//704 712//712 713//713
f 713//713 705//705 704//704
f 705//705 713//713 714//714
f 714//714 706//706 705//705
f 706//706 714//714 707//707
f 707//707 699//699 706//706
f 707//707 715//715 716//716
f 716//716 708//708 707//707
f 708//708 716//716 717//717
f 717//717 709//709 708//708
f 709//709 717//717 718//718
f 718//718 710//710 709//709
f 710//710 718//718 719//719
f 719//719 711//711 710//710
f 711//711 719//719 720//720
f 720//720 712//712 711//711
f 712//712 720//720 721//721
f 721//721 713//713 712//712
f 713//713 721//721 722//722
f 722//722 714//714 713//713
f 714//714 722//722 715//715
f 715//715 707//707 714//714
f 715//715 723//723 724//724
f 724//724 716//716 715//715
f 716//716 724//724 725//725
f 725//725 717//717 716//716
f 717//717 725//725 726//726
f 726//726 718//718 717//717
f 718//718 726//726 727//727
f 727//727 719//719 718//718
f 719//719 727//727 728//728
f 728//728 720//720 719//719
f 720//720 728//728 729//729
f 729//729 721//721 720//720
f 721//721 729//729 730//730
f 730//730 722//722 721//721
f 722//722 730//730 723//723
f 723//723 715//715 722//722
f 723//723 731//731 732//732
f 732//732 724//724 723//723
f 724//724 732//732 733//733
f 733//733 725//725 724//724
f 725//725 733//733 734//734
f 734//734 726//726 725//725
f 726//726 734//734 735//735
f 735//735 727//727 726//726
f 727//727 735//735 736//736
f 736//736 728//728 727//727
f 728//728 736//736 737//737
f 737//737 729//729 728//728
f 729//729 737//737 738//738
f 738//738 730//730 729//729
f 730//730 738//738 731//731
f 731//731 723//723 730//730
f 731//731 611//611 612//612
f 612//612 732//732 731//731
f 732//732 612//612 613//613
f 613//613 733//733 732//732
f 733//733 613//613 614//614
f 614//614 734//734 733//733
f 734//734 614//614 615//615
f 615//615 735//735 734//734
f 735//735 615//615 616//616
f 616//616 736//736 735//735
f 736//736 616//616 617//617
f 617//617 737//737 736//736
f 737//737 617//617 618//618
f 618//618 738//738 737//737
f 738//738 618//618 611//611
f 611//611 731//731 738//738

