# https://github.com/mikedh/trimesh
v 0.05178483 0.00000497 0.02507752
v 0.05178243 0.00051444 0.02507408
v 0.05178243 0.00051274 0.02507752
v 0.05151515 0.00004813 0.02773744
v 0.05178483 -0.00051380 0.02507752
v 0.05158979 0.00025294 0.02301556
v 0.05154404 0.00114323 0.02507408
v 0.05152478 0.00109330 0.02572703
v 0.05165721 0.00055337 0.02608444
v 0.05167407 0.00056860 0.02403966
v 0.05153200 0.00111699 0.02437645
v 0.05157293 0.00021316 0.02713604
v 0.05129362 0.00044081 0.02811203
v 0.05100467 0.00051444 0.02919456
v 0.05100708 0.00000497 0.02919456
v 0.05151515 -0.00004919 0.02773744
v 0.05138512 0.00072770 0.02713604
v 0.05152478 -0.00109350 0.02572360
v 0.05154404 -0.00114343 0.02507752
v 0.05154163 -0.00113497 0.02485414
v 0.05153441 -0.00111720 0.02437645
v 0.05176075 -0.00052649 0.02485414
v 0.05167407 -0.00056881 0.02403966
v 0.05158979 -0.00025483 0.02301900
v 0.05158979 0.00000582 0.02301556
v 0.05157293 -0.00021337 0.02713604
v 0.05165721 -0.00055273 0.02608444
v 0.05153922 0.00000582 0.02250351
v 0.05152478 0.00007606 0.02236604
v 0.05139957 0.00076832 0.02301556
v 0.05133214 0.00165777 0.02507408
v 0.05129362 0.00148005 0.02608444
v 0.05105764 0.00154437 0.02713604
v 0.05085056 0.00154437 0.02816358
v 0.05145495 0.00092235 0.02641092
v 0.05146458 0.00094774 0.02369257
v 0.05088186 0.00154352 0.02198802
v 0.05131047 0.00149359 0.02403966
v 0.05052549 0.00115254 0.02979940
v 0.05066274 0.00051444 0.03001247
v 0.05048937 0.00210714 0.02874780
v 0.05061459 0.00151559 0.02913270
v 0.05100708 -0.00051380 0.02919456
v 0.05138512 -0.00072791 0.02713604
v 0.05129362 -0.00044102 0.02811203
v 0.05129362 -0.00147941 0.02608444
v 0.05133214 -0.00165882 0.02507752
v 0.05145495 -0.00092255 0.02641092
v 0.05085297 -0.00154373 0.02816358
v 0.05105764 -0.00154373 0.02713604
v 0.05131047 -0.00149380 0.02403966
v 0.05088186 -0.00154373 0.02198802
v 0.05146458 -0.00094794 0.02369257
v 0.05139957 -0.00076853 0.02301900
v 0.05152478 -0.00007627 0.02236604
v 0.05105764 0.00051444 0.02095360
v 0.05131047 0.00045689 0.02200864
v 0.05081685 0.00254467 0.02507408
v 0.05075665 0.00249982 0.02610849
v 0.05077351 0.00251167 0.02404654
v 0.05065311 0.00239234 0.02713604
v 0.05055198 0.00222816 0.02816358
v 0.05049901 0.00212746 0.02135225
v 0.05056883 0.00225524 0.02198802
v 0.05066997 0.00241096 0.02301556
v 0.05035935 0.00183887 0.02943512
v 0.04944434 0.00207075 0.03074790
v 0.04957196 0.00154437 0.03094035
v 0.04868825 0.00151305 0.03228406
v 0.04938173 0.00090796 0.03168265
v 0.05032323 0.00051444 0.03052796
v 0.05066274 0.00000582 0.03001247
v 0.04953102 0.00022247 0.03190947
v 0.04953343 0.00000497 0.03190947
v 0.05012819 0.00274270 0.02816358
v 0.04993796 0.00257683 0.02916019
v 0.05066274 -0.00051380 0.03000903
v 0.05052549 -0.00115274 0.02979940
v 0.05061459 -0.00151495 0.02913270
v 0.05049178 -0.00210735 0.02874780
v 0.05055198 -0.00222752 0.02816358
v 0.05065552 -0.00239255 0.02713604
v 0.05075665 -0.00250003 0.02610849
v 0.05081685 -0.00254488 0.02507752
v 0.05077351 -0.00251272 0.02404654
v 0.05066997 -0.00241117 0.02301900
v 0.05056883 -0.00225545 0.02198802
v 0.05050141 -0.00212851 0.02135225
v 0.05108654 -0.00154373 0.02301900
v 0.05105764 -0.00051380 0.02095360
v 0.05131047 -0.00045794 0.02200864
v 0.05048215 0.00003375 0.01938995
v 0.05066034 0.00043150 0.01994668
v 0.05055439 0.00122108 0.02030065
v 0.05064348 0.00155621 0.02099140
v 0.05041955 0.00306006 0.02507408
v 0.05041955 0.00306006 0.02507752
v 0.05035935 0.00301436 0.02610849
v 0.05037379 0.00302706 0.02404654
v 0.05024618 0.00290688 0.02713604
v 0.05014504 0.00276979 0.02198802
v 0.05039306 0.00190827 0.02066836
v 0.04995963 0.00259714 0.02093985
v 0.05026303 0.00292635 0.02301556
v 0.04961771 0.00229417 0.03022210
v 0.04852693 0.00225271 0.03194383
v 0.04827891 0.00183549 0.03263459
v 0.04846432 0.00114915 0.03286828
v 0.04915298 0.00054490 0.03226344
v 0.04953343 -0.00022268 0.03190947
v 0.04860639 0.00051444 0.03304698
v 0.04860879 0.00000497 0.03304698
v 0.04951898 0.00313030 0.02888526
v 0.04936006 0.00304737 0.02957258
v 0.05032564 -0.00051380 0.03052796
v 0.04938173 -0.00090817 0.03168265
v 0.04868825 -0.00151326 0.03228406
v 0.05009929 -0.00151495 0.03017399
v 0.05035935 -0.00183908 0.02943512
v 0.05013059 -0.00274291 0.02816358
v 0.04994037 -0.00257704 0.02916363
v 0.05024618 -0.00290709 0.02713604
v 0.05035935 -0.00301541 0.02610849
v 0.05041955 -0.00306027 0.02507752
v 0.05040991 -0.00305350 0.02485414
v 0.05037620 -0.00302726 0.02404654
v 0.05026303 -0.00292571 0.02301900
v 0.05014504 -0.00277084 0.02198802
v 0.04996204 -0.00259820 0.02093985
v 0.05039306 -0.00190763 0.02066836
v 0.05064589 -0.00155642 0.02099140
v 0.05055439 -0.00122129 0.02030065
v 0.05066034 -0.00043171 0.01994668
v 0.05048215 -0.00003395 0.01938995
v 0.05033286 0.00072008 0.01961333
v 0.04956473 0.00029525 0.01819401
v 0.04921077 0.00058976 0.01785723
v 0.04941544 0.00098243 0.01841739
v 0.05015949 0.00155621 0.01994668
v 0.04990425 0.00328094 0.02507752
v 0.04986091 0.00326317 0.02404654
v 0.04984405 0.00325724 0.02610849
v 0.04973088 0.00321493 0.02713604
v 0.04961530 0.00317262 0.02816358
v 0.04952862 0.00313453 0.02121478
v 0.04962975 0.00317854 0.02198802
v 0.04974774 0.00322085 0.02301556
v 0.04939377 0.00306683 0.02052746
v 0.04947564 0.00212999 0.01935215
v 0.04966828 0.00235341 0.01992606
v 0.04820426 0.00293904 0.03147302
v 0.04789846 0.00263269 0.03229437
v 0.04759506 0.00232633 0.03298169
v 0.03511966 0.00401213 0.04526408
v 0.04860879 -0.00051380 0.03304698
v 0.04915298 -0.00054511 0.03226344
v 0.04808628 0.00051444 0.03356247
v 0.04892182 0.00346205 0.02816358
v 0.04789364 0.00384033 0.02816358
v 0.04897720 0.00327417 0.02921518
v 0.04862565 0.00316838 0.03022210
v 0.04843302 0.00310153 0.03078570
v 0.04846432 -0.00114936 0.03286828
v 0.04828132 -0.00183569 0.03263459
v 0.04944434 -0.00207011 0.03074790
v 0.04962012 -0.00229353 0.03022554
v 0.04936006 -0.00304673 0.02957602
v 0.04951898 -0.00313051 0.02888526
v 0.04984405 -0.00325745 0.02610849
v 0.04961530 -0.00317282 0.02816358
v 0.04973329 -0.00321514 0.02713604
v 0.04990425 -0.00328199 0.02507752
v 0.04986091 -0.00326422 0.02404654
v 0.04974774 -0.00322191 0.02301900
v 0.04962975 -0.00317875 0.02198802
v 0.04952862 -0.00313474 0.02121478
v 0.04939377 -0.00306704 0.02052746
v 0.04966828 -0.00235277 0.01992606
v 0.04947805 -0.00212935 0.01935215
v 0.05015949 -0.00155642 0.01994668
v 0.04941544 -0.00098264 0.01841739
v 0.05033286 -0.00071945 0.01961333
v 0.04921318 -0.00058912 0.01785723
v 0.04956473 -0.00029630 0.01819401
v 0.04865695 0.00051444 0.01702214
v 0.04850044 0.00121770 0.01723177
v 0.04874845 0.00155367 0.01783317
v 0.04892182 0.00368885 0.02507408
v 0.04892182 0.00347982 0.02198802
v 0.04892182 0.00356698 0.02301556
v 0.04892182 0.00365161 0.02404654
v 0.04892182 0.00363892 0.02610849
v 0.04892182 0.00355429 0.02713604
v 0.04899888 0.00329110 0.02090205
v 0.04824279 0.00297966 0.01862703
v 0.04846191 0.00311338 0.01931091
v 0.04867381 0.00318616 0.01992606
v 0.04789364 0.00370578 0.02095360
v 0.04856064 0.00229248 0.01815621
v 0.04832466 0.00190404 0.01746889
v 0.04751560 0.00314130 0.03195071
v 0.04718812 0.00301267 0.03264146
v 0.03450564 0.00401213 0.04547371
v 0.03513651 0.00360422 0.04528814
v 0.04686065 0.00353652 0.03124964
v 0.04686065 0.00378279 0.03022210
v 0.04686065 0.00391396 0.02919456
v 0.04583488 0.00393343 0.03022210
v 0.04011367 0.00401213 0.02516343
v 0.04808628 0.00000582 0.03356247
v 0.04808868 -0.00051380 0.03355903
v 0.03509558 -0.00463351 0.04524346
v 0.03520634 0.00154437 0.04533281
v 0.03523764 0.00051444 0.04535343
v 0.04789364 0.00389450 0.02713604
v 0.04789364 0.00367108 0.02919456
v 0.04789364 0.00342904 0.03022210
v 0.04787197 0.00320816 0.03117747
v 0.04759506 -0.00232654 0.03298169
v 0.04852933 -0.00225207 0.03194383
v 0.04897961 -0.00327438 0.02921518
v 0.04820426 -0.00293925 0.03147302
v 0.04843542 -0.00310174 0.03078570
v 0.04862806 -0.00316775 0.03022554
v 0.04789364 -0.00384054 0.02816358
v 0.04892423 -0.00346225 0.02816358
v 0.04892423 -0.00355450 0.02713604
v 0.04892423 -0.00363913 0.02610849
v 0.04892423 -0.00368736 0.02507752
v 0.04892423 -0.00367975 0.02485414
v 0.04892182 -0.00365182 0.02404654
v 0.04892182 -0.00356719 0.02301900
v 0.04892182 -0.00348087 0.02198802
v 0.04899888 -0.00329130 0.02090205
v 0.04867381 -0.00318636 0.01992606
v 0.04846191 -0.00311358 0.01931091
v 0.04824279 -0.00297987 0.01862703
v 0.04789123 -0.00370598 0.02095360
v 0.04856064 -0.00229269 0.01815278
v 0.04832466 -0.00190424 0.01746889
v 0.04874845 -0.00155388 0.01783661
v 0.04850044 -0.00121791 0.01723177
v 0.04865695 -0.00051380 0.01702214
v 0.04842579 0.00000582 0.01676095
v 0.04819945 0.00051444 0.01650665
v 0.04789364 0.00390127 0.02507408
v 0.04789364 0.00390042 0.02610849
v 0.04789364 0.00386065 0.02198802
v 0.04789364 0.00389704 0.02301556
v 0.04789364 0.00390042 0.02404654
v 0.04793939 0.00267077 0.01780224
v 0.04726517 0.00304821 0.01745515
v 0.04755413 0.00315315 0.01814247
v 0.04789605 0.00322932 0.01893976
v 0.04789364 0.00346374 0.01992606
v 0.04686065 0.00357629 0.01889852
v 0.04686065 0.00380902 0.01992606
v 0.04763840 0.00236188 0.01711836
v 0.04789605 0.00152998 0.01682969
v 0.03347505 0.00401213 0.04556650
v 0.03450564 0.00360422 0.04549089
v 0.04686065 0.00392412 0.02095360
v 0.04017869 0.00401213 0.02464794
v 0.03523764 -0.00051380 0.04535343
v 0.03520875 -0.00154457 0.04533968
v 0.03517263 -0.00257450 0.04531563
v 0.03513651 -0.00360443 0.04528126
v 0.03450564 -0.00463351 0.04544622
v 0.04008478 -0.00463351 0.02499847
v 0.04789364 -0.00389470 0.02713604
v 0.04789364 -0.00367044 0.02919456
v 0.04751560 -0.00314066 0.03195071
v 0.04719053 -0.00301288 0.03264146
v 0.04789846 -0.00263289 0.03229437
v 0.03450564 0.00154437 0.04553557
v 0.03450564 0.00051444 0.04555619
v 0.03450564 0.00000582 0.04555963
v 0.04789364 -0.00389978 0.02610849
v 0.04869789 -0.00373476 0.02485414
v 0.04789123 -0.00389724 0.02301900
v 0.04789123 -0.00386001 0.02198802
v 0.04789123 -0.00346479 0.01992606
v 0.04789605 -0.00322952 0.01893976
v 0.04755413 -0.00315336 0.01814247
v 0.04726517 -0.00304842 0.01745515
v 0.04793939 -0.00267098 0.01780224
v 0.04686065 -0.00380923 0.01992606
v 0.04686065 -0.00357650 0.01889852
v 0.04763840 -0.00236124 0.01711492
v 0.04789605 -0.00153019 0.01682969
v 0.04819945 -0.00051380 0.01650665
v 0.04649464 0.00022924 0.01519730
v 0.04768415 0.00051444 0.01612175
v 0.04746985 0.00115592 0.01626265
v 0.04721942 0.00184310 0.01643104
v 0.04689677 0.00326486 0.01782630
v 0.03713749 0.00401213 0.01045824
v 0.04583488 0.00384118 0.01889852
v 0.04653317 0.00225778 0.01620079
v 0.03347505 0.00000582 0.04556650
v 0.03244687 0.00401213 0.04556650
v 0.03990900 0.00401213 0.01787785
v 0.04017869 0.00401213 0.02448986
v 0.03740718 0.00401213 0.01078472
v 0.03771780 0.00401213 0.01120742
v 0.03792247 0.00401213 0.01149609
v 0.03820179 0.00401213 0.01201158
v 0.03974044 0.00401213 0.01675752
v 0.03450564 -0.00051380 0.04555963
v 0.03450564 -0.00154457 0.04554244
v 0.03450564 -0.00360443 0.04549089
v 0.03347505 -0.00463351 0.04555963
v 0.04789364 -0.00390063 0.02507752
v 0.04007274 -0.00463351 0.02412214
v 0.04789123 -0.00390063 0.02404654
v 0.04789364 -0.00390063 0.02485414
v 0.03943464 -0.00463351 0.01795002
v 0.03941538 -0.00463351 0.01784692
v 0.03831977 -0.00463351 0.01271608
v 0.03817771 -0.00463351 0.01205969
v 0.03789598 -0.00463351 0.01154077
v 0.03779485 -0.00463351 0.01139987
v 0.04653317 -0.00225714 0.01620079
v 0.04721942 -0.00184331 0.01643104
v 0.04746985 -0.00115613 0.01626265
v 0.04768656 -0.00051380 0.01612175
v 0.04649464 -0.00023029 0.01519730
v 0.04509324 0.00051444 0.01440001
v 0.04458035 0.00051444 0.01411821
v 0.03734216 0.00142081 0.01045824
v 0.03663423 0.00401213 0.01045824
v 0.03244687 0.00154437 0.04556650
v 0.03244687 -0.00463351 0.04555963
v 0.03151260 0.00401213 0.04536030
v 0.03147167 -0.00463351 0.04536030
v 0.03477533 -0.00463351 0.01383298
v 0.03663423 0.00000582 0.01045824
v 0.03741199 0.00000582 0.01045824
v 0.04457795 -0.00051380 0.01411821
v 0.04509324 -0.00051380 0.01440001
v 0.04589267 -0.00054934 0.01493269
v 0.04626830 -0.00091578 0.01534508
v 0.03741199 0.00051444 0.01045824
v 0.03441895 0.00401213 0.01215935
v 0.03099490 0.00401213 0.04509225
v 0.03095637 -0.00463351 0.04511974
v 0.03000284 -0.00299849 0.02198802
v 0.03017862 -0.00281738 0.02096047
v 0.02973556 -0.00230284 0.02096047
v 0.02983428 -0.00213020 0.02038656
v 0.02883982 -0.00001026 0.02043811
v 0.03089136 -0.00002972 0.01733487
v 0.03474884 0.00000582 0.01215935
v 0.02718558 -0.00463351 0.03948372
v 0.03454416 0.00187357 0.01215935
v 0.03442377 0.00390634 0.01215935
v 0.03089136 0.00002867 0.01733487
v 0.02883982 0.00000836 0.02043811
v 0.02983428 0.00212999 0.02038313
v 0.02973556 0.00230179 0.02096047
v 0.03018102 0.00281718 0.02096047
v 0.03000284 0.00299828 0.02198802
v 0.02727708 0.00401213 0.03948372
v 0.03041459 0.00401213 0.04453552
v 0.03036402 -0.00463351 0.04454927
v 0.02960072 -0.00248395 0.02198802
v 0.02936715 -0.00154457 0.02096047
v 0.02898429 -0.00171637 0.02301900
v 0.02907098 -0.00146164 0.02204988
v 0.02899151 -0.00067205 0.02096047
v 0.02889760 -0.00088616 0.02175089
v 0.02878684 -0.00015751 0.02096047
v 0.02830526 -0.00051380 0.02404997
v 0.02729634 -0.00463351 0.04051814
v 0.02738544 0.00401213 0.04051814
v 0.02822098 0.00051444 0.02508095
v 0.02822098 0.00000582 0.02508095
v 0.02822098 -0.00051380 0.02508439
v 0.02869775 -0.00155981 0.02413245
v 0.02883500 -0.00207604 0.02452422
v 0.02830526 0.00000582 0.02404997
v 0.02830767 0.00051444 0.02404997
v 0.02878684 0.00015646 0.02096047
v 0.02889760 0.00088765 0.02175089
v 0.02899151 0.00067185 0.02096047
v 0.02936715 0.00154437 0.02096047
v 0.02907098 0.00146143 0.02204988
v 0.02898429 0.00171616 0.02301900
v 0.02890242 0.00191335 0.02384034
v 0.02960072 0.00248374 0.02198802
v 0.02883500 0.00207583 0.02452422
v 0.03008952 0.00401213 0.04420904
v 0.02990171 -0.00463351 0.04408876
v 0.02883018 -0.00106134 0.02243821
v 0.02870738 -0.00053157 0.02204988
v 0.02769846 -0.00463351 0.04119859
v 0.02774422 0.00401213 0.04113673
v 0.02869775 0.00155960 0.02412902
v 0.02877239 0.00120162 0.02301900
v 0.02883018 0.00106198 0.02243821
v 0.02870738 0.00053136 0.02204988
v 0.02994023 0.00401213 0.04405783
v 0.02955015 -0.00463351 0.04371074
v 0.02856050 -0.00463351 0.04247700
v 0.02874350 0.00401213 0.04262821
v 0.02950440 0.00401213 0.04358358
v 0.02891928 -0.00463351 0.04299593
v 0.02895540 0.00401213 0.04293750
f 1 2 3
f 1 3 4
f 1 4 16
f 1 16 5
f 1 5 25
f 1 25 6
f 1 6 2
f 2 7 8
f 2 8 9
f 2 9 3
f 2 6 10
f 2 10 11
f 2 11 7
f 3 9 12
f 3 12 4
f 4 13 14
f 4 14 15
f 4 15 43
f 4 43 16
f 4 12 9
f 4 9 17
f 4 17 13
f 5 18 19
f 5 19 20
f 5 20 21
f 5 21 22
f 5 22 23
f 5 23 24
f 5 24 25
f 5 16 26
f 5 26 27
f 5 27 18
f 6 25 28
f 6 28 29
f 6 29 30
f 6 30 10
f 7 31 8
f 7 11 31
f 8 32 33
f 8 33 34
f 8 34 35
f 8 35 9
f 8 31 32
f 9 35 17
f 10 30 36
f 10 36 11
f 11 36 37
f 11 37 38
f 11 38 31
f 13 17 34
f 13 34 14
f 14 39 40
f 14 40 15
f 14 34 41
f 14 41 42
f 14 42 39
f 15 40 72
f 15 72 43
f 16 44 27
f 16 27 26
f 16 43 45
f 16 45 44
f 17 35 34
f 18 46 47
f 18 47 19
f 18 27 48
f 18 48 49
f 18 49 50
f 18 50 46
f 19 47 20
f 20 47 21
f 21 51 52
f 21 52 53
f 21 53 23
f 21 23 22
f 21 47 51
f 23 53 54
f 23 54 24
f 24 54 55
f 24 55 28
f 24 28 25
f 27 44 48
f 28 55 29
f 29 55 90
f 29 90 56
f 29 56 57
f 29 57 30
f 30 57 37
f 30 37 36
f 31 58 59
f 31 59 32
f 31 38 60
f 31 60 58
f 32 59 61
f 32 61 62
f 32 62 33
f 33 62 41
f 33 41 34
f 37 57 56
f 37 56 63
f 37 63 64
f 37 64 38
f 38 64 65
f 38 65 60
f 39 42 66
f 39 66 67
f 39 67 68
f 39 68 69
f 39 69 70
f 39 70 71
f 39 71 40
f 40 71 73
f 40 73 74
f 40 74 110
f 40 110 72
f 41 62 75
f 41 75 76
f 41 76 66
f 41 66 42
f 43 72 77
f 43 77 78
f 43 78 79
f 43 79 80
f 43 80 49
f 43 49 45
f 44 45 49
f 44 49 48
f 46 50 80
f 46 80 81
f 46 81 82
f 46 82 83
f 46 83 47
f 47 83 84
f 47 84 85
f 47 85 51
f 49 80 50
f 51 86 87
f 51 87 88
f 51 88 89
f 51 89 52
f 51 85 86
f 52 88 90
f 52 90 91
f 52 91 54
f 52 54 53
f 52 89 88
f 54 91 55
f 55 91 90
f 56 90 134
f 56 134 92
f 56 92 93
f 56 93 94
f 56 94 95
f 56 95 63
f 58 96 97
f 58 97 59
f 58 60 96
f 59 97 98
f 59 98 61
f 60 65 99
f 60 99 96
f 61 98 100
f 61 100 62
f 62 100 75
f 63 101 64
f 63 95 102
f 63 102 103
f 63 103 101
f 64 101 104
f 64 104 65
f 65 104 99
f 66 105 67
f 66 76 105
f 67 105 106
f 67 106 107
f 67 107 69
f 67 69 68
f 69 107 108
f 69 108 70
f 70 108 109
f 70 109 73
f 70 73 71
f 72 110 77
f 73 109 111
f 73 111 74
f 74 111 112
f 74 112 155
f 74 155 110
f 75 113 114
f 75 114 76
f 75 100 113
f 76 114 105
f 77 110 115
f 77 115 78
f 78 115 116
f 78 116 117
f 78 117 118
f 78 118 119
f 78 119 79
f 79 119 80
f 80 120 81
f 80 119 121
f 80 121 120
f 81 120 122
f 81 122 82
f 82 122 123
f 82 123 83
f 83 123 124
f 83 124 84
f 84 124 85
f 85 125 126
f 85 126 86
f 85 124 125
f 86 126 127
f 86 127 87
f 87 128 88
f 87 127 128
f 88 128 129
f 88 129 130
f 88 130 131
f 88 131 90
f 90 131 132
f 90 132 133
f 90 133 134
f 92 135 94
f 92 94 93
f 92 134 184
f 92 184 136
f 92 136 137
f 92 137 135
f 94 135 138
f 94 138 139
f 94 139 102
f 94 102 95
f 96 140 97
f 96 99 141
f 96 141 140
f 97 140 142
f 97 142 98
f 98 142 143
f 98 143 144
f 98 144 113
f 98 113 100
f 99 104 145
f 99 145 146
f 99 146 147
f 99 147 141
f 101 103 148
f 101 148 145
f 101 145 104
f 102 139 149
f 102 149 150
f 102 150 148
f 102 148 103
f 105 114 106
f 106 151 152
f 106 152 153
f 106 153 107
f 106 114 151
f 107 153 154
f 107 154 108
f 108 111 109
f 108 154 111
f 110 116 115
f 110 155 156
f 110 156 116
f 111 154 157
f 111 157 112
f 112 157 210
f 112 210 155
f 113 144 158
f 113 158 159
f 113 159 160
f 113 160 114
f 114 160 161
f 114 161 162
f 114 162 151
f 116 156 163
f 116 163 117
f 117 163 164
f 117 164 165
f 117 165 118
f 118 165 119
f 119 165 166
f 119 166 121
f 120 121 167
f 120 167 168
f 120 168 122
f 121 166 167
f 122 168 123
f 123 169 124
f 123 168 170
f 123 170 171
f 123 171 169
f 124 169 172
f 124 172 173
f 124 173 125
f 125 173 126
f 126 173 174
f 126 174 175
f 126 175 176
f 126 176 127
f 127 176 128
f 128 176 177
f 128 177 129
f 129 177 130
f 130 177 178
f 130 178 179
f 130 179 180
f 130 180 132
f 130 132 131
f 132 180 181
f 132 181 182
f 132 182 134
f 132 134 133
f 134 182 183
f 134 183 184
f 135 137 138
f 136 184 243
f 136 243 185
f 136 185 137
f 137 185 186
f 137 186 138
f 138 186 187
f 138 187 139
f 139 187 149
f 140 141 188
f 140 188 142
f 141 147 189
f 141 189 190
f 141 190 191
f 141 191 188
f 142 192 193
f 142 193 143
f 142 188 192
f 143 193 144
f 144 193 158
f 145 189 146
f 145 148 194
f 145 194 189
f 146 189 147
f 148 150 195
f 148 195 196
f 148 196 197
f 148 197 198
f 148 198 194
f 149 199 150
f 149 187 200
f 149 200 199
f 150 199 195
f 151 201 202
f 151 202 152
f 151 162 201
f 152 202 154
f 152 154 153
f 154 203 204
f 154 204 157
f 154 202 201
f 154 201 205
f 154 205 206
f 154 206 207
f 154 207 208
f 154 208 209
f 154 209 263
f 154 263 303
f 154 303 302
f 154 302 308
f 154 308 307
f 154 307 306
f 154 306 305
f 154 305 304
f 154 304 297
f 154 297 331
f 154 331 344
f 154 344 363
f 154 363 375
f 154 375 397
f 154 397 405
f 154 405 408
f 154 408 406
f 154 406 402
f 154 402 392
f 154 392 364
f 154 364 345
f 154 345 334
f 154 334 301
f 154 301 260
f 154 260 203
f 155 163 156
f 155 210 211
f 155 211 212
f 155 212 163
f 157 204 213
f 157 213 214
f 157 214 264
f 157 264 210
f 158 193 159
f 159 193 192
f 159 192 215
f 159 215 207
f 159 207 206
f 159 206 216
f 159 216 160
f 160 216 161
f 161 217 218
f 161 218 162
f 161 216 217
f 162 218 201
f 163 212 164
f 164 212 219
f 164 219 220
f 164 220 165
f 165 220 166
f 166 220 167
f 167 221 168
f 167 220 222
f 167 222 223
f 167 223 224
f 167 224 221
f 168 225 226
f 168 226 170
f 168 221 225
f 169 171 227
f 169 227 228
f 169 228 172
f 170 226 227
f 170 227 171
f 172 228 229
f 172 229 230
f 172 230 173
f 173 230 231
f 173 231 232
f 173 232 233
f 173 233 174
f 174 233 175
f 175 233 176
f 176 233 234
f 176 234 177
f 177 235 236
f 177 236 237
f 177 237 178
f 177 234 238
f 177 238 235
f 178 237 239
f 178 239 179
f 179 239 240
f 179 240 241
f 179 241 180
f 180 241 181
f 181 241 242
f 181 242 183
f 181 183 182
f 183 242 243
f 183 243 184
f 185 243 244
f 185 244 245
f 185 245 186
f 186 200 187
f 186 245 200
f 188 246 247
f 188 247 215
f 188 215 192
f 188 191 248
f 188 248 249
f 188 249 250
f 188 250 246
f 189 194 248
f 189 248 190
f 190 248 191
f 194 198 248
f 195 199 251
f 195 251 252
f 195 252 253
f 195 253 196
f 196 253 254
f 196 254 197
f 197 255 198
f 197 254 255
f 198 255 256
f 198 256 257
f 198 257 248
f 199 200 258
f 199 258 251
f 200 245 259
f 200 259 258
f 201 218 205
f 203 260 261
f 203 261 204
f 204 261 213
f 205 218 206
f 206 218 217
f 206 217 216
f 207 215 247
f 207 247 208
f 208 247 262
f 208 262 263
f 208 263 209
f 210 264 211
f 211 264 265
f 211 265 266
f 211 266 267
f 211 267 212
f 212 267 268
f 212 268 312
f 212 312 333
f 212 333 335
f 212 335 346
f 212 346 365
f 212 365 393
f 212 393 403
f 212 403 407
f 212 407 404
f 212 404 396
f 212 396 374
f 212 374 354
f 212 354 336
f 212 336 322
f 212 322 321
f 212 321 320
f 212 320 319
f 212 319 318
f 212 318 317
f 212 317 314
f 212 314 269
f 212 269 270
f 212 270 225
f 212 225 271
f 212 271 221
f 212 221 224
f 212 224 223
f 212 223 272
f 212 272 222
f 212 222 273
f 212 273 274
f 212 274 219
f 213 261 214
f 214 261 275
f 214 275 276
f 214 276 277
f 214 277 309
f 214 309 264
f 219 274 220
f 220 274 222
f 221 271 225
f 222 274 273
f 222 272 223
f 225 270 228
f 225 228 227
f 225 227 226
f 228 270 229
f 229 270 278
f 229 278 279
f 229 279 280
f 229 280 230
f 230 280 231
f 231 280 281
f 231 281 232
f 232 281 233
f 233 281 234
f 234 281 238
f 235 238 282
f 235 282 283
f 235 283 236
f 236 283 284
f 236 284 237
f 237 284 285
f 237 285 286
f 237 286 239
f 238 287 288
f 238 288 282
f 238 281 287
f 239 286 289
f 239 289 240
f 240 289 290
f 240 290 291
f 240 291 242
f 240 242 241
f 242 291 243
f 243 291 244
f 244 291 245
f 245 291 327
f 245 327 292
f 245 292 293
f 245 293 294
f 245 294 295
f 245 295 259
f 246 250 262
f 246 262 247
f 248 257 262
f 248 262 249
f 249 262 250
f 251 258 252
f 252 296 253
f 252 258 297
f 252 297 296
f 253 256 254
f 253 296 256
f 254 256 255
f 256 298 257
f 256 296 297
f 256 297 298
f 257 298 262
f 258 259 295
f 258 295 299
f 258 299 297
f 260 300 309
f 260 309 277
f 260 277 276
f 260 276 275
f 260 275 261
f 260 301 332
f 260 332 300
f 262 302 303
f 262 303 263
f 262 298 297
f 262 297 304
f 262 304 305
f 262 305 306
f 262 306 307
f 262 307 308
f 262 308 302
f 264 309 310
f 264 310 265
f 265 310 311
f 265 311 266
f 266 311 268
f 266 268 267
f 268 311 312
f 269 313 278
f 269 278 270
f 269 314 315
f 269 315 316
f 269 316 313
f 278 313 279
f 279 316 315
f 279 315 280
f 279 313 316
f 280 315 314
f 280 314 317
f 280 317 318
f 280 318 319
f 280 319 320
f 280 320 281
f 281 320 321
f 281 321 287
f 282 288 283
f 283 288 284
f 284 288 322
f 284 322 285
f 285 322 289
f 285 289 286
f 287 321 322
f 287 322 288
f 289 323 324
f 289 324 290
f 289 322 323
f 290 324 291
f 291 324 325
f 291 325 326
f 291 326 327
f 292 327 340
f 292 340 328
f 292 328 297
f 292 297 293
f 293 297 294
f 294 297 295
f 295 297 299
f 297 328 329
f 297 329 330
f 297 330 343
f 297 343 338
f 297 338 337
f 297 337 331
f 300 332 333
f 300 333 312
f 300 312 309
f 301 334 335
f 301 335 332
f 309 312 310
f 310 312 311
f 322 336 337
f 322 337 338
f 322 338 339
f 322 339 340
f 322 340 341
f 322 341 342
f 322 342 325
f 322 325 324
f 322 324 323
f 325 342 326
f 326 342 327
f 327 342 341
f 327 341 340
f 328 340 329
f 329 340 339
f 329 339 338
f 329 338 343
f 329 343 330
f 331 337 344
f 332 335 333
f 334 345 346
f 334 346 335
f 336 347 348
f 336 348 349
f 336 349 350
f 336 350 351
f 336 351 352
f 336 352 353
f 336 353 337
f 336 354 347
f 337 353 355
f 337 355 356
f 337 356 344
f 344 356 352
f 344 352 357
f 344 357 358
f 344 358 359
f 344 359 360
f 344 360 361
f 344 361 362
f 344 362 363
f 345 364 346
f 346 364 365
f 347 366 349
f 347 349 348
f 347 354 366
f 349 367 350
f 349 366 368
f 349 368 369
f 349 369 367
f 350 367 351
f 351 367 370
f 351 370 371
f 351 371 372
f 351 372 373
f 351 373 381
f 351 381 358
f 351 358 357
f 351 357 352
f 352 356 355
f 352 355 353
f 354 374 375
f 354 375 363
f 354 363 376
f 354 376 377
f 354 377 378
f 354 378 373
f 354 373 379
f 354 379 380
f 354 380 366
f 358 381 382
f 358 382 383
f 358 383 384
f 358 384 385
f 358 385 386
f 358 386 359
f 359 386 360
f 360 386 387
f 360 387 388
f 360 388 389
f 360 389 390
f 360 390 362
f 360 362 361
f 362 390 363
f 363 390 391
f 363 391 382
f 363 382 376
f 364 392 393
f 364 393 365
f 366 380 368
f 367 369 370
f 368 380 379
f 368 379 369
f 369 379 394
f 369 394 371
f 369 371 370
f 371 394 373
f 371 373 395
f 371 395 372
f 372 395 373
f 373 394 379
f 373 378 377
f 373 377 376
f 373 376 381
f 374 396 397
f 374 397 375
f 376 382 381
f 382 391 398
f 382 398 399
f 382 399 400
f 382 400 384
f 382 384 401
f 382 401 383
f 383 401 384
f 384 400 387
f 384 387 385
f 385 387 386
f 387 400 398
f 387 398 389
f 387 389 388
f 389 398 391
f 389 391 390
f 392 402 393
f 393 402 403
f 396 404 405
f 396 405 397
f 398 400 399
f 402 406 403
f 403 406 407
f 404 407 408
f 404 408 405
f 406 408 407

