# https://github.com/mikedh/trimesh
v -0.00001527 0.03852811 0.01236769
v -0.00001527 0.03849040 0.01224609
v -0.00051851 0.03852811 0.01236769
v -0.00001527 0.03495689 0.01236769
v -0.00001527 0.03833578 0.01176230
v -0.00051851 0.03833578 0.01176230
v -0.00154767 0.03829430 0.01182762
v -0.00257684 0.03825282 0.01189748
v -0.00463896 0.03817363 0.01205464
v -0.00545245 0.03813591 0.01213096
v -0.00463896 0.03824151 0.01236769
v -0.02396231 0.00000642 0.00576083
v -0.00001527 0.02396039 0.00576083
v -0.02824546 0.02052869 0.01236769
v -0.03495775 0.00000642 0.01236704
v -0.00001527 0.03805672 0.01124746
v -0.00051851 0.03805672 0.01124746
v -0.00154767 0.03801524 0.01131279
v -0.00360979 0.03793605 0.01145831
v -0.00463896 0.03789457 0.01153981
v -0.00574758 0.03789457 0.01174613
v -0.00614108 0.03810198 0.01222733
v -0.00600109 0.03813969 0.01236769
v -0.03349345 0.00000642 0.00576083
v -0.00001527 0.03349371 0.00576083
v -0.03250970 0.02052869 0.01236769
v -0.03866577 0.00000642 0.01236704
v -0.00001527 0.03757402 0.01065437
v -0.00051851 0.03757402 0.01065437
v -0.00151362 0.03742318 0.01056382
v -0.00463896 0.03737793 0.01080765
v -0.00257684 0.03797376 0.01138264
v -0.00566812 0.03732890 0.01087104
v -0.00669729 0.03723839 0.01098164
v -0.00669729 0.03768339 0.01168404
v -0.00875941 0.03727611 0.01181986
v -0.00978857 0.03715166 0.01204365
v -0.01034099 0.03708755 0.01217818
v -0.00634162 0.03807935 0.01236769
v -0.00619406 0.03811329 0.01236769
v -0.03548368 0.00000642 0.00814745
v -0.03349345 0.00051929 0.00576083
v -0.00051851 0.03349371 0.00576083
v -0.00001527 0.03548484 0.00814809
v -0.03197997 0.02151672 0.01236769
v -0.03417831 0.01783991 0.01236704
v -0.03513558 0.01573941 0.01236704
v -0.03608529 0.01348807 0.01236704
v -0.03630475 0.01287715 0.01236704
v -0.03664149 0.01185896 0.01236704
v -0.03709932 0.01040332 0.01236704
v -0.03807930 0.00634185 0.01236704
v -0.03810957 0.00619101 0.01236704
v -0.03813606 0.00600246 0.01236704
v -0.03866577 0.00053060 0.01236704
v -0.03860523 0.00000642 0.01225127
v -0.00115038 0.03708755 0.01012789
v -0.00154767 0.03424038 0.00674975
v -0.00368168 0.03324858 0.00576083
v -0.00463896 0.03643515 0.00967514
v -0.00524435 0.03503231 0.00806207
v -0.00566812 0.03689523 0.01035555
v -0.00620162 0.03399149 0.00704533
v -0.00617135 0.03290164 0.00576083
v -0.00770375 0.03253585 0.00576083
v -0.00748808 0.03714412 0.01109224
v -0.00592920 0.03497197 0.00813386
v -0.00566812 0.03301477 0.00576083
v -0.00817293 0.03706115 0.01119313
v -0.00875941 0.03698950 0.01130503
v -0.00978857 0.03686506 0.01152881
v -0.01073828 0.03676701 0.01177459
v -0.01188853 0.03635219 0.01161289
v -0.01287607 0.03618626 0.01194857
v -0.01344363 0.03606936 0.01215554
v -0.01186204 0.03664634 0.01236769
v -0.01040910 0.03710264 0.01236769
v -0.03757229 0.00000642 0.01065437
v -0.03757229 0.00051929 0.01065437
v -0.03339886 0.00177129 0.00576083
v -0.00081363 0.03347108 0.00576083
v -0.03191943 0.02161477 0.01236769
v -0.03191187 0.02160346 0.01228490
v -0.03301671 0.01966889 0.01208246
v -0.03411777 0.01773809 0.01196021
v -0.03509775 0.01564136 0.01204236
v -0.03606637 0.01344282 0.01215554
v -0.03708419 0.01033921 0.01217818
v -0.03810200 0.00613821 0.01222733
v -0.03813606 0.00545188 0.01213032
v -0.03817011 0.00463732 0.01205464
v -0.03821173 0.00360781 0.01197315
v -0.03825335 0.00257831 0.01189748
v -0.03834038 0.00051929 0.01176230
v -0.03834038 0.00000642 0.01176230
v -0.00463896 0.03316939 0.00576083
v -0.00463896 0.03317316 0.00576212
v -0.00550921 0.03304117 0.00576083
v -0.00875941 0.03228318 0.00576083
v -0.01081774 0.03527366 0.00984007
v -0.01081774 0.03622774 0.01095771
v -0.01157069 0.03612592 0.01107671
v -0.01225554 0.03600902 0.01122224
v -0.01287607 0.03588457 0.01143374
v -0.01516143 0.03489655 0.01135612
v -0.01564574 0.03509642 0.01204236
v -0.01574033 0.03513790 0.01236769
v -0.01349281 0.03608821 0.01236769
v -0.01287607 0.03630694 0.01236769
v -0.03805281 0.00000642 0.01124746
v -0.03805281 0.00051929 0.01124746
v -0.03741715 0.00360781 0.01075914
v -0.03742094 0.00151486 0.01056382
v -0.03317562 0.00460715 0.00576083
v -0.03185890 0.02170905 0.01236769
v -0.03106054 0.02286677 0.01236769
v -0.03100756 0.02279889 0.01200872
v -0.03212376 0.02091712 0.01188454
v -0.03280104 0.01931063 0.01139622
v -0.03428047 0.01700273 0.01164394
v -0.03372048 0.01805863 0.01164394
v -0.03390966 0.01734589 0.01127333
v -0.03588097 0.01287715 0.01143374
v -0.03618367 0.01287715 0.01194857
v -0.03489342 0.01515866 0.01135612
v -0.03635393 0.01188536 0.01161225
v -0.03658852 0.01123296 0.01170474
v -0.03676636 0.01073517 0.01177394
v -0.03715229 0.00978863 0.01204365
v -0.03727716 0.00875535 0.01181986
v -0.03768201 0.00669634 0.01168339
v -0.03789390 0.00574225 0.01174613
v -0.03789390 0.00463732 0.01153981
v -0.03797336 0.00257831 0.01138264
v -0.03801498 0.00154880 0.01131279
v -0.00968263 0.03206069 0.00576083
v -0.00978857 0.03203429 0.00576083
v -0.01035613 0.03297706 0.00702916
v -0.01048099 0.03199658 0.00594128
v -0.01166907 0.03514544 0.00998818
v -0.01235392 0.03501345 0.01014341
v -0.01287607 0.03536793 0.01077919
v -0.01390902 0.03515676 0.01101592
v -0.01447279 0.03503608 0.01114592
v -0.01194528 0.03472685 0.00963633
v -0.01665977 0.03406691 0.01108059
v -0.01734841 0.03390852 0.01127333
v -0.01700031 0.03428186 0.01164394
v -0.01597871 0.03474948 0.01169309
v -0.01773813 0.03411970 0.01196021
v -0.01784029 0.03418004 0.01236769
v -0.03737553 0.00463732 0.01080765
v -0.03303941 0.00550844 0.00576083
v -0.03503342 0.00524446 0.00806272
v -0.02784818 0.02669443 0.01236769
v -0.02778385 0.02675099 0.01231336
v -0.03003515 0.02388874 0.01194275
v -0.03040596 0.02320240 0.01163230
v -0.03077297 0.02248589 0.01132184
v -0.03122702 0.02214272 0.01167304
v -0.03176430 0.02120372 0.01159802
v -0.03190430 0.02056264 0.01119766
v -0.03300914 0.01863184 0.01111293
v -0.03319454 0.01802469 0.01092343
v -0.03288807 0.01738738 0.01021067
v -0.03206700 0.01672366 0.00895786
v -0.03306968 0.01670104 0.01001211
v -0.03406479 0.01665956 0.01107995
v -0.03503721 0.01447232 0.01114592
v -0.03600583 0.01225115 0.01122224
v -0.03612313 0.01156858 0.01107671
v -0.03686473 0.00978863 0.01152881
v -0.03698959 0.00875535 0.01130503
v -0.03706149 0.00817083 0.01119313
v -0.03723553 0.00669634 0.01098099
v -0.03732635 0.00566683 0.01087104
v -0.03793173 0.00360781 0.01145831
v -0.01028424 0.03189476 0.00576083
v -0.01063234 0.03177409 0.00576083
v -0.01100692 0.03162701 0.00576083
v -0.01597114 0.03421398 0.01091761
v -0.01185069 0.03128384 0.00576083
v -0.01670139 0.03307134 0.01001211
v -0.01597114 0.03375014 0.01040277
v -0.01597114 0.03323350 0.00983037
v -0.01548682 0.03091428 0.00703240
v -0.01672409 0.03206823 0.00895722
v -0.01738624 0.03288656 0.01021067
v -0.01802569 0.03319579 0.01092343
v -0.01863108 0.03301100 0.01111293
v -0.02056077 0.03190608 0.01119766
v -0.01931593 0.03279982 0.01139622
v -0.01805974 0.03372374 0.01164394
v -0.01966781 0.03301855 0.01208310
v -0.01972457 0.03305626 0.01236769
v -0.03301293 0.00566683 0.00576083
v -0.03497288 0.00592703 0.00813451
v -0.02778764 0.02675854 0.01236769
v -0.02770818 0.02684150 0.01236769
v -0.02674712 0.02778427 0.01231336
v -0.02707252 0.02707531 0.01168404
v -0.02758710 0.02652473 0.01168404
v -0.02905518 0.02497858 0.01188260
v -0.02979300 0.02360213 0.01125587
v -0.03008812 0.02291579 0.01096870
v -0.02998597 0.02178824 0.01001729
v -0.03100756 0.02179955 0.01105602
v -0.03186646 0.02052869 0.01113492
v -0.03140485 0.02052869 0.01065825
v -0.03020542 0.02111321 0.00979415
v -0.02958489 0.01570547 0.00576083
v -0.02990651 0.01552069 0.00597685
v -0.03091297 0.01548298 0.00703304
v -0.03421236 0.01596568 0.01091696
v -0.03323238 0.01596568 0.00983037
v -0.03536639 0.01287715 0.01077919
v -0.03044379 0.01386895 0.00576083
v -0.03202916 0.01260186 0.00693991
v -0.03501072 0.01235297 0.01014341
v -0.03472316 0.01194192 0.00963569
v -0.03514315 0.01166663 0.00998818
v -0.03617232 0.01123296 0.01102368
v -0.03199511 0.01047874 0.00594128
v -0.03297509 0.01035429 0.00702981
v -0.03527179 0.01081437 0.00983942
v -0.03622907 0.01081437 0.01095706
v -0.03714094 0.00748449 0.01109224
v -0.03399290 0.00620232 0.00704598
v -0.01541115 0.03190984 0.00810023
v -0.01387118 0.03044289 0.00576083
v -0.01552466 0.02990740 0.00597685
v -0.01418523 0.03031090 0.00576083
v -0.01486630 0.03001676 0.00576083
v -0.01533169 0.02979803 0.00576083
v -0.01571006 0.02958685 0.00576083
v -0.01597871 0.02942470 0.00576083
v -0.01987213 0.03211725 0.01097646
v -0.02179804 0.03100856 0.01105602
v -0.02248667 0.03077475 0.01132184
v -0.02214235 0.03122728 0.01167304
v -0.02120021 0.03176655 0.01159802
v -0.02279693 0.03100856 0.01200872
v -0.02160128 0.03190984 0.01228490
v -0.02151426 0.03198150 0.01236769
v -0.03289941 0.00617215 0.00576083
v -0.02675469 0.02779181 0.01236769
v -0.02669036 0.02784838 0.01236769
v -0.02286504 0.03106135 0.01236769
v -0.02388664 0.03003938 0.01194275
v -0.02652388 0.02759195 0.01168404
v -0.02685306 0.02685658 0.01110000
v -0.02783304 0.02577805 0.01114527
v -0.02881302 0.02469198 0.01119572
v -0.02779899 0.02058903 0.00705827
v -0.02806763 0.02523502 0.01093183
v -0.02602821 0.02100762 0.00576083
v -0.02883950 0.02060412 0.00807695
v -0.02886599 0.02052869 0.00805302
v -0.03121945 0.02111321 0.01083740
v -0.02790493 0.01870349 0.00591994
v -0.02889248 0.01683680 0.00576083
v -0.02979678 0.01533213 0.00576083
v -0.03004272 0.01493617 0.00582615
v -0.03031136 0.01418195 0.00576083
v -0.03190809 0.01540755 0.00810088
v -0.03184755 0.01123296 0.00610944
v -0.03127999 0.01184764 0.00576083
v -0.03154106 0.01123296 0.00576859
v -0.03177187 0.01062958 0.00576083
v -0.03189295 0.01028264 0.00576083
v -0.03208970 0.00978863 0.00582939
v -0.03205943 0.00967927 0.00576083
v -0.03268753 0.00706213 0.00576083
v -0.01855162 0.02784461 0.00576083
v -0.01870297 0.02790872 0.00591994
v -0.02060239 0.02884395 0.00807695
v -0.02110940 0.03020531 0.00979415
v -0.02178669 0.02998659 0.01001729
v -0.02291423 0.03008841 0.01096870
v -0.02359908 0.02979426 0.01125587
v -0.02319801 0.03040518 0.01163230
v -0.02170723 0.03186082 0.01236769
v -0.02161264 0.03192116 0.01236769
v -0.02468878 0.02881378 0.01119572
v -0.02577849 0.02783707 0.01114527
v -0.02723521 0.02617779 0.01091049
v -0.02617578 0.02723746 0.01091049
v -0.02570282 0.02570640 0.00914413
v -0.02678874 0.02052869 0.00608551
v -0.02699306 0.01984613 0.00576083
v -0.02524499 0.02421682 0.00755564
v -0.02419690 0.02314583 0.00576083
v -0.02643307 0.02052869 0.00576083
v -0.02745089 0.01918619 0.00576083
v -0.02784061 0.01855264 0.00576083
v -0.03001245 0.01486452 0.00576083
v -0.03153350 0.01123296 0.00576083
v -0.01918728 0.02745242 0.00576083
v -0.01938404 0.02769754 0.00613531
v -0.02058725 0.02779936 0.00705827
v -0.01984565 0.02699611 0.00576083
v -0.02038293 0.02655867 0.00576083
v -0.02356502 0.02873459 0.01023590
v -0.02574065 0.02677362 0.01014470
v -0.02314504 0.02420174 0.00576083
v -0.02342881 0.02394907 0.00576083
v -0.02379583 0.02379823 0.00592058
v -0.02394718 0.02342866 0.00576083
v -0.02655415 0.02038162 0.00576083
v -0.02370124 0.02370018 0.00576083
f 1 2 3
f 1 3 11
f 1 11 23
f 1 23 40
f 1 40 39
f 1 39 77
f 1 77 76
f 1 76 109
f 1 109 108
f 1 108 107
f 1 107 151
f 1 151 195
f 1 195 244
f 1 244 283
f 1 283 282
f 1 282 248
f 1 248 247
f 1 247 246
f 1 246 199
f 1 199 198
f 1 198 155
f 1 155 116
f 1 116 115
f 1 115 82
f 1 82 45
f 1 45 26
f 1 26 14
f 1 14 4
f 1 4 13
f 1 13 25
f 1 25 44
f 1 44 28
f 1 28 16
f 1 16 5
f 1 5 2
f 2 5 6
f 2 6 3
f 3 6 7
f 3 7 8
f 3 8 9
f 3 9 10
f 3 10 11
f 4 12 13
f 4 14 15
f 4 15 12
f 5 16 17
f 5 17 6
f 6 17 18
f 6 18 7
f 7 18 19
f 7 19 8
f 8 19 9
f 9 19 20
f 9 20 10
f 10 21 22
f 10 22 23
f 10 23 11
f 10 20 21
f 12 15 27
f 12 27 56
f 12 56 95
f 12 95 110
f 12 110 78
f 12 78 41
f 12 41 24
f 12 24 42
f 12 42 80
f 12 80 114
f 12 114 153
f 12 153 196
f 12 196 245
f 12 245 273
f 12 273 272
f 12 272 270
f 12 270 269
f 12 269 297
f 12 297 267
f 12 267 217
f 12 217 264
f 12 264 296
f 12 296 262
f 12 262 211
f 12 211 261
f 12 261 295
f 12 295 294
f 12 294 290
f 12 290 309
f 12 309 293
f 12 293 256
f 12 256 292
f 12 292 308
f 12 308 310
f 12 310 306
f 12 306 305
f 12 305 302
f 12 302 301
f 12 301 298
f 12 298 274
f 12 274 236
f 12 236 235
f 12 235 234
f 12 234 233
f 12 233 232
f 12 232 230
f 12 230 182
f 12 182 180
f 12 180 179
f 12 179 178
f 12 178 137
f 12 137 136
f 12 136 99
f 12 99 65
f 12 65 64
f 12 64 68
f 12 68 98
f 12 98 96
f 12 96 59
f 12 59 81
f 12 81 43
f 12 43 25
f 12 25 13
f 14 26 27
f 14 27 15
f 16 28 29
f 16 29 17
f 17 29 30
f 17 30 31
f 17 31 18
f 18 31 32
f 18 32 19
f 19 32 31
f 19 31 33
f 19 33 20
f 20 33 21
f 21 33 34
f 21 34 35
f 21 35 22
f 22 35 36
f 22 36 37
f 22 37 38
f 22 38 39
f 22 39 40
f 22 40 23
f 24 41 42
f 25 43 44
f 26 45 46
f 26 46 47
f 26 47 48
f 26 48 49
f 26 49 50
f 26 50 51
f 26 51 52
f 26 52 53
f 26 53 54
f 26 54 55
f 26 55 27
f 27 55 56
f 28 44 29
f 29 43 57
f 29 57 30
f 29 44 43
f 30 57 58
f 30 58 59
f 30 59 60
f 30 60 31
f 31 60 33
f 33 60 61
f 33 61 62
f 33 62 34
f 34 63 64
f 34 64 65
f 34 65 66
f 34 66 35
f 34 62 67
f 34 67 68
f 34 68 63
f 35 66 69
f 35 69 70
f 35 70 36
f 36 70 71
f 36 71 37
f 37 71 72
f 37 72 38
f 38 72 73
f 38 73 74
f 38 74 75
f 38 75 76
f 38 76 77
f 38 77 39
f 41 78 79
f 41 79 42
f 42 79 80
f 43 81 58
f 43 58 57
f 45 82 83
f 45 83 46
f 46 84 85
f 46 85 86
f 46 86 47
f 46 83 84
f 47 86 87
f 47 87 48
f 48 87 49
f 49 87 50
f 50 87 88
f 50 88 51
f 51 88 52
f 52 89 53
f 52 88 89
f 53 89 54
f 54 89 55
f 55 89 90
f 55 90 91
f 55 91 92
f 55 92 93
f 55 93 94
f 55 94 56
f 56 94 95
f 58 81 59
f 59 96 97
f 59 97 60
f 60 97 61
f 61 97 98
f 61 98 68
f 61 68 62
f 62 68 67
f 63 68 64
f 65 99 66
f 66 99 100
f 66 100 101
f 66 101 69
f 69 101 102
f 69 102 70
f 70 102 71
f 71 102 72
f 72 102 73
f 73 103 74
f 73 102 103
f 74 103 104
f 74 104 105
f 74 105 106
f 74 106 75
f 75 106 107
f 75 107 108
f 75 108 109
f 75 109 76
f 78 110 111
f 78 111 79
f 79 111 112
f 79 112 113
f 79 113 80
f 80 113 114
f 82 115 83
f 83 115 116
f 83 116 117
f 83 117 118
f 83 118 84
f 84 119 85
f 84 118 119
f 85 120 86
f 85 119 121
f 85 121 122
f 85 122 120
f 86 123 124
f 86 124 87
f 86 120 125
f 86 125 123
f 87 124 88
f 88 124 126
f 88 126 127
f 88 127 128
f 88 128 129
f 88 129 89
f 89 129 130
f 89 130 131
f 89 131 132
f 89 132 90
f 90 132 133
f 90 133 91
f 91 133 92
f 92 133 93
f 93 133 134
f 93 134 94
f 94 134 135
f 94 135 111
f 94 111 110
f 94 110 95
f 96 98 97
f 99 136 100
f 100 102 101
f 100 136 137
f 100 137 138
f 100 138 102
f 102 138 139
f 102 139 140
f 102 140 103
f 103 141 142
f 103 142 143
f 103 143 144
f 103 144 105
f 103 105 104
f 103 140 145
f 103 145 141
f 105 144 146
f 105 146 147
f 105 147 148
f 105 148 149
f 105 149 106
f 106 149 148
f 106 148 150
f 106 150 151
f 106 151 107
f 111 135 152
f 111 152 112
f 112 152 114
f 112 114 113
f 114 152 154
f 114 154 153
f 116 155 117
f 117 155 156
f 117 156 157
f 117 157 158
f 117 158 159
f 117 159 160
f 117 160 118
f 118 160 161
f 118 161 162
f 118 162 119
f 119 122 121
f 119 162 122
f 120 122 125
f 122 162 163
f 122 163 164
f 122 164 165
f 122 165 166
f 122 166 167
f 122 167 168
f 122 168 169
f 122 169 125
f 123 125 170
f 123 170 124
f 124 170 126
f 125 169 170
f 126 170 171
f 126 171 127
f 127 171 128
f 128 172 129
f 128 171 172
f 129 172 173
f 129 173 130
f 130 173 131
f 131 173 174
f 131 174 175
f 131 175 132
f 132 175 176
f 132 176 133
f 133 177 134
f 133 176 177
f 134 177 176
f 134 176 152
f 134 152 135
f 137 178 139
f 137 139 138
f 139 179 180
f 139 180 145
f 139 145 140
f 139 178 179
f 141 145 143
f 141 143 142
f 143 181 144
f 143 145 182
f 143 182 181
f 144 181 146
f 145 180 182
f 146 183 147
f 146 181 184
f 146 184 185
f 146 185 186
f 146 186 183
f 147 183 187
f 147 187 188
f 147 188 189
f 147 189 190
f 147 190 191
f 147 191 192
f 147 192 193
f 147 193 150
f 147 150 148
f 150 193 194
f 150 194 151
f 151 194 195
f 152 176 154
f 153 154 196
f 154 197 196
f 154 176 197
f 155 198 156
f 156 198 199
f 156 199 246
f 156 246 200
f 156 200 201
f 156 201 202
f 156 202 203
f 156 203 157
f 157 203 202
f 157 202 158
f 158 202 204
f 158 204 159
f 159 204 205
f 159 205 206
f 159 206 207
f 159 207 162
f 159 162 160
f 160 162 161
f 162 207 208
f 162 208 163
f 163 208 209
f 163 209 210
f 163 210 211
f 163 211 164
f 164 211 212
f 164 212 165
f 165 212 166
f 166 212 167
f 167 212 213
f 167 213 168
f 168 214 169
f 168 213 215
f 168 215 214
f 169 216 170
f 169 214 217
f 169 217 218
f 169 218 216
f 170 216 219
f 170 219 220
f 170 220 221
f 170 221 171
f 171 222 173
f 171 173 172
f 171 221 223
f 171 223 224
f 171 224 225
f 171 225 222
f 173 222 174
f 174 222 226
f 174 226 227
f 174 227 175
f 175 227 226
f 175 226 228
f 175 228 196
f 175 196 197
f 175 197 176
f 181 229 184
f 181 182 229
f 182 230 229
f 183 186 231
f 183 231 187
f 184 229 186
f 184 186 185
f 186 229 230
f 186 230 232
f 186 232 233
f 186 233 234
f 186 234 231
f 187 231 188
f 188 231 189
f 189 231 235
f 189 235 236
f 189 236 190
f 190 236 237
f 190 237 191
f 191 238 239
f 191 239 240
f 191 240 241
f 191 241 192
f 191 237 238
f 192 194 193
f 192 241 194
f 194 241 240
f 194 240 242
f 194 242 243
f 194 243 195
f 195 243 244
f 196 228 245
f 200 246 247
f 200 247 248
f 200 248 242
f 200 242 249
f 200 249 250
f 200 250 201
f 201 250 251
f 201 251 202
f 202 251 252
f 202 252 253
f 202 253 204
f 204 253 205
f 205 254 206
f 205 253 252
f 205 252 255
f 205 255 256
f 205 256 254
f 206 254 257
f 206 257 258
f 206 258 207
f 207 210 259
f 207 259 208
f 207 258 210
f 208 259 209
f 209 259 210
f 210 258 260
f 210 260 261
f 210 261 211
f 211 262 212
f 212 262 213
f 213 262 263
f 213 263 264
f 213 264 217
f 213 217 265
f 213 265 215
f 214 215 265
f 214 265 217
f 216 218 266
f 216 266 219
f 217 267 218
f 218 267 268
f 218 268 266
f 219 266 220
f 220 266 223
f 220 223 221
f 222 225 226
f 223 266 268
f 223 268 269
f 223 269 270
f 223 270 224
f 224 270 271
f 224 271 272
f 224 272 225
f 225 272 226
f 226 272 228
f 228 273 245
f 228 272 273
f 231 234 235
f 236 274 275
f 236 275 237
f 237 275 276
f 237 276 277
f 237 277 238
f 238 277 276
f 238 276 278
f 238 278 239
f 239 279 280
f 239 280 281
f 239 281 242
f 239 242 240
f 239 278 279
f 242 281 249
f 242 248 282
f 242 282 243
f 243 282 283
f 243 283 244
f 249 281 280
f 249 280 250
f 250 280 284
f 250 284 285
f 250 285 251
f 251 286 252
f 251 285 287
f 251 287 288
f 251 288 286
f 252 286 255
f 254 289 290
f 254 290 257
f 254 256 289
f 255 286 291
f 255 291 256
f 256 291 292
f 256 293 289
f 257 290 294
f 257 294 258
f 258 294 260
f 260 295 261
f 260 294 295
f 262 296 263
f 263 296 264
f 267 297 268
f 268 297 269
f 270 272 271
f 274 298 275
f 275 298 299
f 275 299 276
f 276 300 278
f 276 299 298
f 276 298 301
f 276 301 300
f 278 300 279
f 279 300 302
f 279 302 303
f 279 303 285
f 279 285 284
f 279 284 280
f 285 304 287
f 285 303 305
f 285 305 304
f 286 288 291
f 287 304 288
f 288 304 305
f 288 305 306
f 288 306 307
f 288 307 308
f 288 308 292
f 288 292 291
f 289 309 290
f 289 293 309
f 300 301 302
f 302 305 303
f 306 310 307
f 307 310 308

