# https://github.com/mikedh/trimesh
v -0.01909577 -0.01989801 0.03946107
v -0.02727656 -0.00401477 0.03949390
v -0.01916387 -0.01989801 0.04043597
v -0.02845497 -0.01989801 0.01203589
v -0.03434704 -0.00401477 0.01203589
v -0.02738594 -0.00401477 0.04052132
v -0.02774297 -0.00401477 0.04114171
v -0.02808556 -0.00401477 0.04165706
v -0.02860150 -0.00401477 0.04242516
v -0.02895441 -0.00401477 0.04294051
v -0.01938264 -0.01989801 0.04069857
v -0.03281366 -0.01989801 0.01203589
v -0.03820423 -0.00401477 0.01203589
v -0.02950337 -0.00401477 0.04358388
v -0.02012147 -0.01989801 0.04153560
v -0.03295606 -0.01972077 0.01203589
v -0.03290446 -0.01989801 0.01223612
v -0.03302004 -0.01966946 0.01208513
v -0.03973142 -0.00401477 0.01675611
v -0.03818565 -0.00434749 0.01203589
v -0.02993470 -0.00401477 0.04405984
v -0.02124209 -0.01989801 0.04276982
v -0.03304480 -0.01957618 0.01203589
v -0.03293542 -0.01989801 0.01230834
v -0.03392810 -0.01843966 0.01271865
v -0.03423147 -0.01792504 0.01271865
v -0.03410351 -0.01780222 0.01203589
v -0.03678229 -0.01184600 0.01271865
v -0.03809691 -0.01230932 0.02154526
v -0.03990890 -0.00401477 0.01787544
v -0.03817327 -0.00463667 0.01205887
v -0.03813819 -0.00545135 0.01213437
v -0.03810517 -0.00613855 0.01222956
v -0.03708773 -0.01033946 0.01218360
v -0.03700930 -0.01104220 0.01271865
v -0.03816089 -0.00463667 0.01203589
v -0.03008329 -0.00401477 0.04421412
v -0.03040937 -0.00401477 0.04453908
v -0.02196235 -0.01989801 0.04345914
v -0.03303448 -0.01989801 0.01271865
v -0.03309846 -0.01979539 0.01271865
v -0.03396318 -0.01989801 0.01786559
v -0.03485473 -0.01989801 0.02282215
v -0.03559149 -0.01905223 0.02404651
v -0.03503634 -0.01856715 0.01931317
v -0.03597742 -0.01838835 0.02404651
v -0.03504047 -0.01755190 0.01618496
v -0.03498268 -0.01742597 0.01549892
v -0.03469375 -0.01699220 0.01271865
v -0.03413034 -0.01775402 0.01203589
v -0.03640875 -0.01287369 0.01271865
v -0.03706709 -0.01232642 0.01535120
v -0.03624984 -0.01276175 0.01203589
v -0.03613839 -0.01309913 0.01203589
v -0.03606822 -0.01343806 0.01216063
v -0.03815057 -0.01246635 0.02223130
v -0.03860254 -0.01184600 0.02404651
v -0.04017719 -0.00401477 0.02448965
v -0.03905657 -0.00996010 0.02404651
v -0.03959315 -0.00772749 0.02404651
v -0.03982842 -0.00669670 0.02404651
v -0.03998114 -0.00566746 0.02404651
v -0.04017100 -0.00417802 0.02453232
v -0.03807421 -0.00552754 0.01203589
v -0.03801849 -0.00597841 0.01203589
v -0.03795245 -0.00633911 0.01203589
v -0.03715377 -0.00978753 0.01204574
v -0.03697216 -0.01048405 0.01203589
v -0.03066114 -0.00401477 0.04477870
v -0.02214190 -0.01989801 0.04361670
v -0.03099135 -0.00401477 0.04509054
v -0.03306337 -0.01989801 0.01287293
v -0.03322022 -0.01989801 0.01374279
v -0.03507349 -0.01989801 0.02404651
v -0.03509000 -0.01989801 0.02507393
v -0.03560594 -0.01905223 0.02507393
v -0.03598568 -0.01840546 0.02507393
v -0.03620856 -0.01787374 0.02404651
v -0.03612395 -0.01767939 0.02301581
v -0.03501364 -0.01646358 0.01326683
v -0.03601250 -0.01742286 0.02168312
v -0.03496617 -0.01635320 0.01271865
v -0.03509619 -0.01563957 0.01204574
v -0.03417368 -0.01766540 0.01203589
v -0.03704232 -0.01535816 0.02272695
v -0.03692469 -0.01283948 0.01574182
v -0.03712488 -0.01247256 0.01603724
v -0.03510238 -0.01561625 0.01203589
v -0.03795245 -0.01283482 0.02192931
v -0.03812581 -0.01343028 0.02445354
v -0.03826820 -0.01291877 0.02408262
v -0.03821248 -0.01262493 0.02301581
v -0.03861698 -0.01184600 0.02507393
v -0.04017719 -0.00401477 0.02464721
v -0.03886463 -0.01081676 0.02507393
v -0.03960553 -0.00772749 0.02507393
v -0.03984080 -0.00669670 0.02507393
v -0.03999352 -0.00566746 0.02507393
v -0.04017100 -0.00417802 0.02459797
v -0.03714758 -0.00978753 0.01203589
v -0.02238336 -0.01989801 0.04381693
v -0.02437490 -0.01989801 0.04527764
v -0.02398278 -0.01989801 0.04503474
v -0.02379498 -0.01989801 0.04491000
v -0.02328729 -0.01989801 0.04452595
v -0.02297566 -0.01989801 0.04428633
v -0.03150729 -0.00401477 0.04535970
v -0.03484854 -0.01989801 0.02594379
v -0.03508381 -0.01967412 0.02573043
v -0.03621475 -0.01788928 0.02507393
v -0.03193655 -0.01546700 0.04516932
v -0.03613633 -0.01770893 0.02579608
v -0.03658211 -0.01699220 0.02404651
v -0.03641287 -0.01699220 0.02301581
v -0.03693707 -0.01613709 0.02404651
v -0.03812581 -0.01343028 0.02469316
v -0.03827233 -0.01293277 0.02505424
v -0.03821248 -0.01262959 0.02584860
v -0.03914737 -0.00931333 0.02561554
v -0.04011322 -0.00401477 0.02516584
v -0.03505698 -0.00537983 0.04520542
v -0.02523962 -0.01989801 0.04548115
v -0.03244218 -0.00401477 0.04556322
v -0.02935684 -0.01989801 0.04464084
v -0.02997184 -0.01871174 0.04525466
v -0.03659655 -0.01699220 0.02507393
v -0.03710630 -0.01551830 0.02565821
v -0.03107183 -0.01677764 0.04529077
v -0.03203974 -0.01493372 0.04525795
v -0.03304480 -0.01257673 0.04524810
v -0.03807834 -0.01331679 0.02538249
v -0.03694533 -0.01615419 0.02507393
v -0.03397143 -0.01027261 0.04486405
v -0.03406224 -0.00958696 0.04523825
v -0.03511683 -0.00401477 0.04527107
v -0.03509413 -0.00463667 0.04525138
v -0.03415098 -0.00875673 0.04531703
v -0.02626531 -0.01905223 0.04554024
v -0.02626531 -0.01989801 0.04555993
v -0.03347407 -0.00401477 0.04556322
v -0.02729720 -0.01802299 0.04556322
v -0.02908649 -0.01989801 0.04530390
v -0.02937954 -0.01905378 0.04537940
v -0.02935478 -0.01802299 0.04553695
v -0.03141236 -0.01493372 0.04546146
v -0.03141236 -0.01587123 0.04532359
v -0.03222548 -0.01390293 0.04535314
v -0.03317275 -0.01184600 0.04532688
v -0.03450182 -0.00463667 0.04545489
v -0.03450182 -0.00401477 0.04547459
v -0.03424591 -0.00772749 0.04535642
v -0.03347407 -0.00875673 0.04552054
v -0.02729720 -0.01989801 0.04556322
v -0.03347407 -0.00669670 0.04556322
v -0.02832702 -0.01989801 0.04550085
v -0.02832702 -0.01905223 0.04556322
v -0.03038254 -0.01596296 0.04556322
v -0.03141236 -0.01390293 0.04555665
v -0.03244218 -0.01184600 0.04553039
v -0.03347407 -0.00772749 0.04555993
v -0.03244218 -0.01081676 0.04556322
f 1 2 3
f 1 3 11
f 1 11 15
f 1 15 22
f 1 22 39
f 1 39 70
f 1 70 101
f 1 101 106
f 1 106 105
f 1 105 104
f 1 104 103
f 1 103 102
f 1 102 122
f 1 122 139
f 1 139 153
f 1 153 155
f 1 155 142
f 1 142 124
f 1 124 108
f 1 108 75
f 1 75 74
f 1 74 43
f 1 43 42
f 1 42 73
f 1 73 72
f 1 72 40
f 1 40 24
f 1 24 17
f 1 17 12
f 1 12 4
f 1 4 5
f 1 5 2
f 2 6 3
f 2 5 13
f 2 13 19
f 2 19 30
f 2 30 58
f 2 58 94
f 2 94 120
f 2 120 135
f 2 135 150
f 2 150 140
f 2 140 123
f 2 123 107
f 2 107 71
f 2 71 69
f 2 69 38
f 2 38 37
f 2 37 21
f 2 21 14
f 2 14 10
f 2 10 9
f 2 9 8
f 2 8 7
f 2 7 6
f 3 6 7
f 3 7 8
f 3 8 9
f 3 9 10
f 3 10 11
f 4 12 16
f 4 16 23
f 4 23 27
f 4 27 50
f 4 50 84
f 4 84 88
f 4 88 54
f 4 54 53
f 4 53 68
f 4 68 100
f 4 100 66
f 4 66 65
f 4 65 64
f 4 64 36
f 4 36 20
f 4 20 13
f 4 13 5
f 10 14 11
f 11 14 15
f 12 17 18
f 12 18 16
f 13 20 19
f 14 21 15
f 15 21 22
f 16 18 23
f 17 24 18
f 18 24 25
f 18 25 26
f 18 26 27
f 18 27 23
f 19 28 29
f 19 29 30
f 19 20 31
f 19 31 32
f 19 32 33
f 19 33 34
f 19 34 35
f 19 35 28
f 20 36 31
f 21 37 22
f 22 37 38
f 22 38 39
f 24 40 41
f 24 41 25
f 25 41 42
f 25 42 43
f 25 43 44
f 25 44 45
f 25 45 26
f 26 45 46
f 26 46 47
f 26 47 48
f 26 48 49
f 26 49 50
f 26 50 27
f 28 51 52
f 28 52 29
f 28 35 34
f 28 34 53
f 28 53 54
f 28 54 55
f 28 55 51
f 29 56 57
f 29 57 30
f 29 52 56
f 30 57 59
f 30 59 60
f 30 60 61
f 30 61 62
f 30 62 63
f 30 63 58
f 31 36 32
f 32 36 64
f 32 64 65
f 32 65 33
f 33 65 66
f 33 66 67
f 33 67 34
f 34 67 68
f 34 68 53
f 38 69 39
f 39 69 71
f 39 71 70
f 40 72 41
f 41 72 73
f 41 73 42
f 43 74 44
f 44 74 75
f 44 75 76
f 44 76 77
f 44 77 46
f 44 46 45
f 46 78 79
f 46 79 48
f 46 48 47
f 46 77 78
f 48 80 49
f 48 79 81
f 48 81 80
f 49 82 55
f 49 55 83
f 49 83 84
f 49 84 50
f 49 80 82
f 51 55 82
f 51 82 80
f 51 80 85
f 51 85 86
f 51 86 87
f 51 87 52
f 52 87 56
f 54 88 55
f 55 88 83
f 56 87 89
f 56 89 90
f 56 90 91
f 56 91 92
f 56 92 57
f 57 92 91
f 57 91 90
f 57 90 93
f 57 93 59
f 58 63 99
f 58 99 94
f 59 93 95
f 59 95 60
f 60 95 96
f 60 96 97
f 60 97 61
f 61 97 98
f 61 98 62
f 62 98 63
f 63 98 99
f 66 100 67
f 67 100 68
f 70 71 101
f 71 102 103
f 71 103 104
f 71 104 105
f 71 105 106
f 71 106 101
f 71 107 102
f 75 108 109
f 75 109 76
f 76 109 77
f 77 110 78
f 77 109 111
f 77 111 112
f 77 112 110
f 78 90 113
f 78 113 79
f 78 110 90
f 79 113 114
f 79 114 81
f 80 81 114
f 80 114 85
f 83 88 84
f 85 114 90
f 85 90 86
f 86 90 87
f 87 90 89
f 90 114 115
f 90 115 113
f 90 110 116
f 90 116 93
f 93 116 117
f 93 117 118
f 93 118 119
f 93 119 95
f 94 99 120
f 95 119 96
f 96 119 97
f 97 119 121
f 97 121 98
f 98 120 99
f 98 121 120
f 102 107 122
f 107 123 122
f 108 124 109
f 109 124 125
f 109 125 111
f 110 126 116
f 110 112 127
f 110 127 126
f 111 125 128
f 111 128 129
f 111 129 130
f 111 130 131
f 111 131 127
f 111 127 112
f 113 115 114
f 116 126 132
f 116 132 131
f 116 131 117
f 117 131 118
f 118 131 130
f 118 130 133
f 118 133 134
f 118 134 119
f 119 134 121
f 120 121 136
f 120 136 135
f 121 134 137
f 121 137 136
f 122 123 138
f 122 138 139
f 123 140 154
f 123 154 161
f 123 161 157
f 123 157 156
f 123 156 153
f 123 153 141
f 123 141 139
f 123 139 138
f 124 142 125
f 125 142 128
f 126 127 131
f 126 131 132
f 128 142 143
f 128 143 144
f 128 144 145
f 128 145 146
f 128 146 129
f 129 146 147
f 129 147 148
f 129 148 130
f 130 148 134
f 130 134 133
f 134 148 137
f 135 136 149
f 135 149 150
f 136 137 151
f 136 151 149
f 137 148 152
f 137 152 151
f 139 141 153
f 140 150 154
f 142 155 143
f 143 155 144
f 144 156 157
f 144 157 145
f 144 155 156
f 145 148 147
f 145 147 146
f 145 157 158
f 145 158 159
f 145 159 148
f 148 159 152
f 149 151 152
f 149 152 160
f 149 160 150
f 150 160 154
f 152 159 160
f 153 156 155
f 154 160 161
f 157 161 158
f 158 161 159
f 159 161 160

