# https://github.com/mikedh/trimesh
v -0.01390625 -0.01867445 0.00561602
v -0.01353213 -0.01868218 0.00561602
v -0.02762719 -0.01867445 0.00561602
v -0.02916632 -0.01867445 0.01203198
v 0.00000831 -0.02335707 0.00561602
v -0.02744998 -0.01896059 0.00561602
v -0.02793895 -0.01867445 0.00593258
v -0.03351791 -0.01867445 0.01203198
v 0.00000831 -0.03462279 0.01203198
v 0.00000831 -0.03337577 0.00561602
v -0.02735809 -0.01910752 0.00561602
v -0.02769611 -0.01938786 0.00613483
v -0.02884143 -0.02060588 0.00807689
v -0.02900224 -0.02008581 0.00791296
v -0.03088595 -0.02057882 0.01015399
v -0.03109599 -0.01989247 0.00993793
v -0.03202800 -0.01867445 0.01012887
v -0.03338007 -0.01867445 0.01169219
v -0.03304534 -0.01957927 0.01203198
v 0.00000831 -0.03842379 0.01203198
v 0.00000831 -0.03359811 0.00588171
v -0.00051677 -0.03337577 0.00561602
v -0.02718416 -0.01936080 0.00561602
v -0.02700694 -0.01986734 0.00578812
v -0.02780112 -0.02059042 0.00705750
v -0.02998676 -0.02178910 0.01001769
v -0.03100738 -0.02180264 0.01105656
v -0.03020335 -0.02111629 0.00979472
v -0.03071859 -0.02111629 0.01032295
v -0.03122069 -0.02111629 0.01083798
v -0.03211660 -0.01987701 0.01097742
v -0.03293704 -0.01867445 0.01106284
v -0.03249400 -0.01867445 0.01060747
v -0.03299939 -0.01867445 0.01113130
v -0.03280249 -0.01931633 0.01139698
v -0.03295673 -0.01972427 0.01203198
v -0.00051677 -0.03842186 0.01203198
v -0.00051677 -0.03833679 0.01176316
v 0.00000831 -0.03833679 0.01176316
v 0.00000831 -0.03616949 0.00896627
v -0.00051677 -0.03616949 0.00896627
v -0.00051677 -0.03385138 0.00618570
v -0.00155380 -0.03329650 0.00561602
v -0.02670174 -0.02002007 0.00561602
v -0.02647202 -0.02030235 0.00561602
v -0.02706273 -0.02111629 0.00679118
v -0.03008849 -0.02291819 0.01096925
v -0.03038057 -0.02213905 0.01066965
v -0.03077437 -0.02248898 0.01132287
v -0.03190657 -0.02056335 0.01119851
v -0.03246447 -0.02011868 0.01164068
v -0.03163091 -0.02182971 0.01203198
v -0.03212317 -0.02091909 0.01188501
v -0.03100738 -0.02280219 0.01200937
v -0.00131095 -0.03837546 0.01203198
v -0.00051677 -0.03805645 0.01124813
v 0.00000831 -0.03819952 0.01151004
v -0.00154723 -0.03829619 0.01182785
v 0.00000831 -0.03734884 0.01038136
v -0.00051677 -0.03711297 0.01009935
v -0.00151442 -0.03672049 0.00972123
v -0.00257770 -0.03608828 0.00906299
v -0.00463535 -0.03600708 0.00916035
v -0.00360816 -0.03321530 0.00571338
v -0.00463535 -0.03305290 0.00561602
v -0.02575332 -0.02114529 0.00561602
v -0.02804725 -0.02396994 0.00992222
v -0.02495586 -0.02207911 0.00561602
v -0.02584193 -0.02276932 0.00696579
v -0.02979314 -0.02360454 0.01125629
v -0.02677394 -0.02574477 0.01014457
v -0.02723666 -0.02618171 0.01091084
v -0.02783394 -0.02578151 0.01114575
v -0.02881518 -0.02469302 0.01119662
v -0.03122726 -0.02214484 0.01167334
v -0.03040682 -0.02320240 0.01163315
v -0.03176546 -0.02120329 0.01159860
v -0.03103363 -0.02277705 0.01203198
v -0.03003927 -0.02389067 0.01194342
v -0.02769939 -0.02665152 0.01203198
v -0.03099753 -0.02282346 0.01203198
v -0.00434655 -0.03818599 0.01203198
v -0.00360816 -0.03821499 0.01197420
v -0.00257770 -0.03825559 0.01189820
v -0.00051677 -0.03757504 0.01065458
v 0.00000831 -0.03782058 0.01095606
v 0.00000831 -0.03805645 0.01124813
v -0.00154723 -0.03801585 0.01131345
v -0.00463535 -0.03737977 0.01080846
v -0.00360816 -0.03742037 0.01075947
v -0.00257770 -0.03797525 0.01138317
v 0.00000831 -0.03757504 0.01065458
v -0.00257770 -0.03746097 0.01071111
v -0.00257770 -0.03655616 0.00962451
v -0.00463535 -0.03643629 0.00967538
v -0.00523919 -0.03503460 0.00806181
v -0.00566581 -0.03309737 0.00585533
v -0.00566581 -0.03289436 0.00561602
v -0.02448657 -0.02341893 0.00623344
v -0.02408620 -0.02309606 0.00561602
v -0.02759109 -0.02652585 0.01168465
v -0.02570409 -0.02570611 0.00914465
v -0.02685270 -0.02685646 0.01110052
v -0.02905803 -0.02497916 0.01188313
v -0.02707586 -0.02707879 0.01168465
v -0.02746639 -0.02689899 0.01203198
v -0.00463535 -0.03816279 0.01203198
v -0.00360816 -0.03793658 0.01145916
v -0.00566581 -0.03732950 0.01087127
v -0.00566581 -0.03689643 0.01035623
v -0.00566581 -0.03594715 0.00923069
v -0.00669628 -0.03723864 0.01098244
v -0.00620073 -0.03399445 0.00704493
v -0.00640748 -0.03301423 0.00595645
v -0.00669300 -0.03265463 0.00561602
v -0.02309511 -0.02408788 0.00561602
v -0.02379740 -0.02380174 0.00592002
v -0.02501821 -0.02600771 0.00887582
v -0.02617995 -0.02723927 0.01091084
v -0.02577957 -0.02783668 0.01114575
v -0.02652453 -0.02759307 0.01168465
v -0.02664923 -0.02770134 0.01203198
v -0.02689536 -0.02747127 0.01203198
v -0.00552470 -0.03807578 0.01203198
v -0.00463535 -0.03789598 0.01154019
v -0.00574457 -0.03789598 0.01174683
v -0.00669628 -0.03679976 0.01046741
v -0.00669628 -0.03768524 0.01168465
v -0.00748389 -0.03714390 0.01109299
v -0.00978767 -0.03635315 0.01081349
v -0.00669628 -0.03584468 0.00934940
v -0.00845529 -0.03223315 0.00561602
v -0.02303932 -0.02413621 0.00561602
v -0.02523480 -0.02807061 0.01093220
v -0.02291462 -0.03008905 0.01096925
v -0.02469004 -0.02881496 0.01119662
v -0.02360050 -0.02979518 0.01125629
v -0.02320013 -0.03040805 0.01163315
v -0.02388601 -0.03003878 0.01194342
v -0.02497555 -0.02905856 0.01188313
v -0.02281945 -0.03099966 0.01203198
v -0.02279976 -0.03100933 0.01200937
v -0.00597758 -0.03801972 0.01203198
v -0.00633857 -0.03795398 0.01203198
v -0.01081814 -0.03579054 0.01044354
v -0.00875721 -0.03727731 0.01182095
v -0.00875721 -0.03699117 0.01130591
v -0.00816978 -0.03706270 0.01119411
v -0.01081814 -0.03622942 0.01095858
v -0.00978767 -0.03304903 0.00694569
v -0.00978767 -0.03209395 0.00582832
v -0.00978767 -0.03191028 0.00561602
v -0.02396805 -0.02804935 0.00992222
v -0.02207778 -0.02495789 0.00561602
v -0.02207778 -0.02826975 0.00864720
v -0.02058787 -0.02780381 0.00705750
v -0.02247486 -0.02971398 0.01028212
v -0.02178570 -0.02998851 0.01001769
v -0.02248799 -0.03077539 0.01132287
v -0.02280304 -0.03101320 0.01203198
v -0.02214341 -0.03122780 0.01167334
v -0.02091604 -0.03212488 0.01188501
v -0.01972149 -0.03295623 0.01203198
v -0.02116873 -0.03204562 0.01203198
v -0.02277350 -0.03103253 0.01203198
v -0.00973188 -0.03716130 0.01203198
v -0.01081814 -0.03527434 0.00984057
v -0.01156637 -0.03612888 0.01107728
v -0.00978767 -0.03686743 0.01152951
v -0.01035541 -0.03297750 0.00702923
v -0.01048012 -0.03199728 0.00594012
v -0.01075578 -0.03159901 0.00561602
v -0.02066006 -0.02616818 0.00561602
v -0.02060427 -0.02884203 0.00807689
v -0.02029907 -0.02647365 0.00561602
v -0.02001684 -0.02670372 0.00561602
v -0.01986588 -0.02701113 0.00578812
v -0.02179883 -0.03100933 0.01105656
v -0.02056161 -0.03190641 0.01119851
v -0.02120155 -0.03176528 0.01159860
v -0.01931455 -0.03280349 0.01139698
v -0.01957709 -0.03304516 0.01203198
v -0.00978767 -0.03714777 0.01203198
v -0.01081814 -0.03482966 0.00932554
v -0.01188470 -0.03635702 0.01161367
v -0.01225226 -0.03601095 0.01122300
v -0.01166483 -0.03514867 0.00998880
v -0.01073609 -0.03676690 0.01177510
v -0.01194377 -0.03472719 0.00963707
v -0.01093300 -0.03152941 0.00561602
v -0.01936050 -0.02718513 0.00561602
v -0.01938675 -0.02769747 0.00613483
v -0.02059115 -0.02986478 0.00911513
v -0.02111294 -0.03072126 0.01032295
v -0.02111294 -0.03020505 0.00979472
v -0.02111294 -0.03122200 0.01083798
v -0.01987573 -0.03211715 0.01097742
v -0.01862867 -0.03301423 0.01111371
v -0.01734551 -0.03391131 0.01127388
v -0.01805765 -0.03372571 0.01164445
v -0.01773604 -0.03412205 0.01196101
v -0.01780167 -0.03410272 0.01203198
v -0.01048340 -0.03697183 0.01203198
v -0.01287579 -0.03618688 0.01194908
v -0.01287579 -0.03588528 0.01143404
v -0.01515659 -0.03489733 0.01135616
v -0.01447071 -0.03504040 0.01114700
v -0.01390625 -0.03515640 0.01101636
v -0.01287579 -0.03536907 0.01077957
v -0.01235399 -0.03501526 0.01014394
v -0.01184532 -0.03414138 0.00893926
v -0.01184532 -0.03367931 0.00842485
v -0.01184532 -0.03115433 0.00561602
v -0.01910452 -0.02736107 0.00561602
v -0.01870087 -0.02791014 0.00591939
v -0.01604266 -0.02924417 0.00561602
v -0.01802483 -0.03218288 0.00988014
v -0.01802483 -0.03269716 0.01040837
v -0.01802483 -0.03319790 0.01092340
v -0.01699765 -0.03428445 0.01164445
v -0.01738489 -0.03288856 0.01021115
v -0.01672526 -0.03207075 0.00895622
v -0.01670229 -0.03307223 0.01001267
v -0.01666291 -0.03406791 0.01108105
v -0.01561932 -0.03510227 0.01203198
v -0.01766384 -0.03417618 0.01203198
v -0.01775245 -0.03413172 0.01203198
v -0.01276421 -0.03625069 0.01203198
v -0.01310223 -0.03613855 0.01203198
v -0.01597703 -0.03475039 0.01169344
v -0.01390625 -0.03469433 0.01050132
v -0.01596718 -0.03421485 0.01091838
v -0.01596718 -0.03375278 0.01040334
v -0.01282000 -0.03433085 0.00959624
v -0.01227523 -0.03097646 0.00561602
v -0.01802483 -0.02802808 0.00561602
v -0.01802483 -0.02811701 0.00570647
v -0.01582935 -0.02937370 0.00561602
v -0.01552087 -0.02991118 0.00597592
v -0.01674167 -0.03105766 0.00791798
v -0.01772947 -0.02820982 0.00561602
v -0.01548477 -0.03091653 0.00703174
v -0.01596718 -0.03323657 0.00983052
v -0.01540929 -0.03191221 0.00810013
v -0.01501548 -0.03161254 0.00758509
v -0.01385703 -0.03032105 0.00561602
v -0.01493672 -0.02984931 0.00561602
v -0.01493672 -0.03004458 0.00582581
v -0.01427709 -0.03014125 0.00561602
v -0.01493672 -0.03103060 0.00690361
f 1 2 5
f 1 5 10
f 1 10 22
f 1 22 43
f 1 43 65
f 1 65 98
f 1 98 115
f 1 115 132
f 1 132 152
f 1 152 172
f 1 172 190
f 1 190 213
f 1 213 235
f 1 235 246
f 1 246 249
f 1 249 247
f 1 247 238
f 1 238 216
f 1 216 241
f 1 241 236
f 1 236 214
f 1 214 191
f 1 191 176
f 1 176 175
f 1 175 173
f 1 173 154
f 1 154 133
f 1 133 116
f 1 116 100
f 1 100 68
f 1 68 66
f 1 66 45
f 1 45 44
f 1 44 23
f 1 23 11
f 1 11 6
f 1 6 3
f 1 3 7
f 1 7 17
f 1 17 33
f 1 33 32
f 1 32 34
f 1 34 18
f 1 18 8
f 1 8 4
f 1 4 2
f 2 4 5
f 3 6 7
f 4 8 19
f 4 19 36
f 4 36 52
f 4 52 78
f 4 78 81
f 4 81 80
f 4 80 106
f 4 106 123
f 4 123 122
f 4 122 141
f 4 141 160
f 4 160 165
f 4 165 164
f 4 164 163
f 4 163 182
f 4 182 202
f 4 202 227
f 4 227 226
f 4 226 225
f 4 225 229
f 4 229 228
f 4 228 203
f 4 203 183
f 4 183 166
f 4 166 144
f 4 144 143
f 4 143 124
f 4 124 107
f 4 107 82
f 4 82 55
f 4 55 37
f 4 37 20
f 4 20 9
f 4 9 5
f 5 9 20
f 5 20 39
f 5 39 57
f 5 57 87
f 5 87 86
f 5 86 92
f 5 92 59
f 5 59 40
f 5 40 21
f 5 21 10
f 6 11 12
f 6 12 7
f 7 12 13
f 7 13 14
f 7 14 15
f 7 15 16
f 7 16 17
f 8 18 19
f 10 21 22
f 11 23 12
f 12 23 13
f 13 23 24
f 13 24 25
f 13 25 26
f 13 26 27
f 13 27 28
f 13 28 15
f 13 15 14
f 15 28 29
f 15 29 30
f 15 30 31
f 15 31 32
f 15 32 33
f 15 33 17
f 15 17 16
f 18 34 35
f 18 35 19
f 19 35 36
f 20 37 38
f 20 38 39
f 21 40 41
f 21 41 42
f 21 42 22
f 22 42 43
f 23 44 24
f 24 44 25
f 25 44 45
f 25 45 46
f 25 46 47
f 25 47 26
f 26 47 48
f 26 48 27
f 27 29 28
f 27 48 49
f 27 49 50
f 27 50 30
f 27 30 29
f 30 50 31
f 31 50 32
f 32 50 34
f 34 50 35
f 35 51 36
f 35 50 51
f 36 51 53
f 36 53 54
f 36 54 52
f 37 55 38
f 38 56 57
f 38 57 39
f 38 55 58
f 38 58 56
f 40 59 41
f 41 59 60
f 41 60 61
f 41 61 43
f 41 43 42
f 43 62 63
f 43 63 64
f 43 64 65
f 43 61 62
f 45 66 46
f 46 67 47
f 46 66 68
f 46 68 69
f 46 69 67
f 47 70 49
f 47 49 48
f 47 67 71
f 47 71 72
f 47 72 73
f 47 73 74
f 47 74 70
f 49 54 75
f 49 75 50
f 49 70 76
f 49 76 54
f 50 75 77
f 50 77 51
f 51 77 53
f 52 54 78
f 53 77 75
f 53 75 54
f 54 76 79
f 54 79 80
f 54 80 81
f 54 81 78
f 55 82 83
f 55 83 84
f 55 84 58
f 56 85 86
f 56 86 87
f 56 87 57
f 56 58 88
f 56 88 89
f 56 89 90
f 56 90 85
f 58 84 91
f 58 91 88
f 59 92 85
f 59 85 60
f 60 85 61
f 61 85 93
f 61 93 90
f 61 90 94
f 61 94 62
f 62 94 95
f 62 95 63
f 63 95 96
f 63 96 65
f 63 65 64
f 65 96 97
f 65 97 98
f 67 69 99
f 67 99 71
f 68 100 99
f 68 99 69
f 70 79 76
f 70 74 101
f 70 101 79
f 71 99 102
f 71 102 72
f 72 102 103
f 72 103 73
f 73 101 74
f 73 103 101
f 79 101 104
f 79 104 80
f 80 104 101
f 80 101 105
f 80 105 106
f 82 107 83
f 83 107 108
f 83 108 84
f 84 108 91
f 85 92 86
f 85 90 93
f 88 91 89
f 89 109 96
f 89 96 95
f 89 95 90
f 89 91 108
f 89 108 109
f 90 95 94
f 96 109 110
f 96 110 111
f 96 111 97
f 97 111 112
f 97 112 98
f 98 112 113
f 98 113 114
f 98 114 115
f 99 100 102
f 100 116 117
f 100 117 102
f 101 103 105
f 102 118 119
f 102 119 103
f 102 117 116
f 102 116 118
f 103 119 120
f 103 120 121
f 103 121 105
f 105 121 122
f 105 122 123
f 105 123 106
f 107 124 125
f 107 125 108
f 108 125 109
f 109 125 126
f 109 126 112
f 109 112 110
f 110 112 111
f 112 127 113
f 112 126 128
f 112 128 129
f 112 129 130
f 112 130 127
f 113 127 131
f 113 131 132
f 113 132 114
f 114 132 115
f 116 133 118
f 118 133 119
f 119 133 134
f 119 134 120
f 120 134 135
f 120 135 136
f 120 136 121
f 121 136 137
f 121 137 138
f 121 138 139
f 121 139 140
f 121 140 122
f 122 140 139
f 122 139 142
f 122 142 141
f 124 143 126
f 124 126 125
f 126 143 144
f 126 144 128
f 127 130 145
f 127 145 131
f 128 146 147
f 128 147 148
f 128 148 129
f 128 144 146
f 129 148 149
f 129 149 130
f 130 149 145
f 131 145 132
f 132 145 150
f 132 150 151
f 132 151 152
f 133 153 134
f 133 154 153
f 134 153 135
f 135 137 136
f 135 153 155
f 135 155 156
f 135 156 157
f 135 157 158
f 135 158 159
f 135 159 137
f 137 159 138
f 138 159 142
f 138 142 139
f 141 142 160
f 142 159 161
f 142 161 162
f 142 162 163
f 142 163 164
f 142 164 165
f 142 165 160
f 144 166 146
f 145 167 151
f 145 151 150
f 145 149 168
f 145 168 167
f 146 166 147
f 147 166 169
f 147 169 168
f 147 168 148
f 148 168 149
f 151 167 170
f 151 170 152
f 152 170 171
f 152 171 172
f 153 154 173
f 153 173 155
f 155 173 156
f 156 174 158
f 156 158 157
f 156 173 175
f 156 175 176
f 156 176 177
f 156 177 174
f 158 178 159
f 158 174 178
f 159 178 179
f 159 179 161
f 161 179 180
f 161 180 162
f 162 180 179
f 162 179 181
f 162 181 163
f 163 181 182
f 166 183 169
f 167 184 170
f 167 168 184
f 168 185 186
f 168 186 187
f 168 187 171
f 168 171 170
f 168 170 184
f 168 169 188
f 168 188 185
f 169 183 188
f 171 187 189
f 171 189 190
f 171 190 172
f 174 177 191
f 174 191 192
f 174 192 193
f 174 193 194
f 174 194 195
f 174 195 178
f 176 191 177
f 178 195 194
f 178 194 196
f 178 196 197
f 178 197 179
f 179 197 198
f 179 198 199
f 179 199 181
f 181 199 200
f 181 200 201
f 181 201 182
f 182 201 202
f 183 203 188
f 185 204 186
f 185 188 203
f 185 203 204
f 186 204 205
f 186 205 206
f 186 206 207
f 186 207 208
f 186 208 209
f 186 209 210
f 186 210 187
f 187 210 189
f 189 210 211
f 189 211 190
f 190 211 212
f 190 212 213
f 191 214 192
f 192 214 215
f 192 215 193
f 193 197 194
f 193 215 216
f 193 216 217
f 193 217 197
f 194 197 196
f 197 217 198
f 198 217 218
f 198 218 219
f 198 219 199
f 199 220 201
f 199 201 200
f 199 219 221
f 199 221 222
f 199 222 223
f 199 223 224
f 199 224 206
f 199 206 220
f 201 220 225
f 201 225 226
f 201 226 227
f 201 227 202
f 203 228 204
f 204 228 229
f 204 229 225
f 204 225 205
f 205 225 206
f 206 225 230
f 206 230 220
f 206 224 207
f 207 231 210
f 207 210 208
f 207 224 232
f 207 232 233
f 207 233 231
f 208 210 209
f 210 231 234
f 210 234 213
f 210 213 212
f 210 212 211
f 213 234 235
f 214 236 215
f 215 236 237
f 215 237 216
f 216 238 239
f 216 239 240
f 216 240 217
f 216 237 241
f 217 240 218
f 218 240 219
f 219 240 239
f 219 239 222
f 219 222 221
f 220 230 225
f 222 239 223
f 223 239 242
f 223 242 224
f 224 242 243
f 224 243 233
f 224 233 232
f 231 233 234
f 233 243 244
f 233 244 245
f 233 245 234
f 234 245 235
f 235 245 246
f 236 241 237
f 238 247 239
f 239 247 242
f 242 247 248
f 242 248 249
f 242 249 246
f 242 246 250
f 242 250 245
f 242 245 244
f 242 244 243
f 245 250 246
f 247 249 248

