# https://github.com/mikedh/trimesh
v 0.03741051 0.00000642 0.01045535
v 0.03779220 0.00000272 0.01382820
v 0.03779220 0.00000272 0.01092299
v 0.03757550 0.00000272 0.01065485
v 0.03757550 -0.00051668 0.01065485
v 0.03668407 -0.00051668 0.00958468
v 0.03406149 0.00000642 0.00644040
v 0.03218505 0.00000642 0.01045535
v 0.03779220 -0.00463679 0.01382820
v 0.03831918 -0.00463864 0.01271038
v 0.03494307 0.00000272 0.01382820
v 0.03779220 -0.00051668 0.01092299
v 0.03817389 -0.00463864 0.01205535
v 0.03737850 -0.00463679 0.01080830
v 0.03713717 -0.00399354 0.01045535
v 0.03733910 -0.00142425 0.01045535
v 0.03326364 -0.00154625 0.00557700
v 0.03333997 -0.00052962 0.00557700
v 0.03427819 -0.00051668 0.00670128
v 0.03333997 0.00000642 0.00557700
v 0.02319441 0.00000642 0.00557700
v 0.03804584 -0.00671995 0.01271038
v 0.03814188 -0.00631330 0.01271038
v 0.03821821 -0.00574029 0.01271038
v 0.03477316 -0.00463679 0.01382820
v 0.03418462 -0.01799896 0.01271038
v 0.03422894 -0.01792502 0.01271038
v 0.03469189 -0.01699158 0.01271038
v 0.03496523 -0.01635018 0.01271038
v 0.03555377 -0.01493245 0.01271038
v 0.03640580 -0.01287331 0.01271038
v 0.03677764 -0.01184375 0.01271038
v 0.03700666 -0.01103784 0.01271038
v 0.03713225 -0.01052583 0.01271038
v 0.03820590 -0.00574399 0.01262880
v 0.03810248 -0.00613955 0.01222739
v 0.03813695 -0.00545194 0.01213128
v 0.01316212 -0.01887696 0.00557700
v 0.03001558 -0.01799896 0.01271038
v 0.03789316 -0.00463679 0.01154006
v 0.03779220 -0.00153516 0.01103203
v 0.03732925 -0.00566636 0.01087130
v 0.03708546 -0.00463679 0.01045535
v 0.03779220 -0.00257766 0.01114511
v 0.03779220 -0.00360723 0.01126545
v 0.03779220 -0.00463679 0.01139548
v 0.03317252 -0.00463864 0.00576196
v 0.03312081 -0.00335584 0.00557700
v 0.03803353 -0.00671995 0.01262880
v 0.03379554 -0.01799896 0.01170079
v 0.03411813 -0.01773649 0.01196086
v 0.03221953 -0.01887696 0.01045535
v 0.03509575 -0.01563854 0.01204324
v 0.03606844 -0.01343708 0.01215551
v 0.03618664 -0.01287331 0.01194874
v 0.03708792 -0.01033729 0.01217812
v 0.03715441 -0.00978277 0.01204485
v 0.03727507 -0.00875690 0.01182032
v 0.03768385 -0.00669777 0.01168463
v 0.03789316 -0.00574399 0.01174682
v 0.02746195 -0.01887696 0.00557700
v 0.02606078 -0.01887696 0.01045535
v 0.03723813 -0.00669777 0.01098276
v 0.03697957 -0.00566636 0.01045535
v 0.03503418 -0.00523937 0.00806141
v 0.03301738 -0.00463864 0.00557700
v 0.03373890 -0.01799896 0.01161436
v 0.03390881 -0.01734462 0.01127433
v 0.03428312 -0.01699712 0.01164425
v 0.03206439 -0.01887696 0.01029543
v 0.03274158 -0.01802484 0.01045535
v 0.03320453 -0.01799896 0.01091734
v 0.03489628 -0.01515425 0.01135672
v 0.03474853 -0.01597310 0.01169352
v 0.03588375 -0.01287331 0.01143506
v 0.03600934 -0.01224855 0.01122345
v 0.03635409 -0.01188072 0.01161356
v 0.03676533 -0.01073285 0.01177509
v 0.03686629 -0.00978277 0.01152956
v 0.03698942 -0.00875690 0.01130583
v 0.03706083 -0.00817280 0.01119437
v 0.03714456 -0.00748704 0.01109341
v 0.02776730 -0.01838158 0.00557700
v 0.02811944 -0.01887696 0.00624818
v 0.03497262 -0.00592698 0.00813329
v 0.03695002 -0.00583087 0.01045535
v 0.03346310 -0.00664786 0.00654944
v 0.03399254 -0.00620240 0.00704535
v 0.03285978 -0.00566636 0.00557700
v 0.03309618 -0.00566636 0.00585565
v 0.03293366 -0.00519501 0.00557700
v 0.03299522 -0.01760525 0.01045535
v 0.03288687 -0.01738529 0.01021063
v 0.03207178 -0.01672356 0.00895631
v 0.03307402 -0.01669953 0.01001275
v 0.03406888 -0.01665701 0.01108130
v 0.03116557 -0.01802484 0.00883677
v 0.02930391 -0.01587698 0.00557700
v 0.02990969 -0.01551839 0.00597599
v 0.03503665 -0.01446665 0.01114672
v 0.03612754 -0.01156279 0.01107726
v 0.03536909 -0.01287331 0.01077923
v 0.03518932 -0.01260530 0.01045535
v 0.03501448 -0.01235021 0.01014359
v 0.03514746 -0.01166261 0.00998852
v 0.03622604 -0.01081418 0.01095853
v 0.03579510 -0.01082897 0.01045535
v 0.03599949 -0.00906743 0.01019690
v 0.02811452 -0.01802484 0.00570704
v 0.03261107 -0.00673474 0.00557700
v 0.03279576 -0.00595286 0.00557700
v 0.03091439 -0.01548142 0.00703243
v 0.03323655 -0.01596386 0.00983021
v 0.03377584 -0.01601562 0.01045535
v 0.03425110 -0.01487330 0.01045535
v 0.02931376 -0.01586035 0.00557700
v 0.02970284 -0.01516904 0.00557700
v 0.03199544 -0.01047593 0.00594045
v 0.03297552 -0.01035393 0.00702920
v 0.03527305 -0.01081234 0.00983990
v 0.03115572 -0.01175133 0.00557700
v 0.03186246 -0.01116353 0.00609472
v 0.03154972 -0.01078646 0.00557700
v 0.03472391 -0.01193987 0.00963718
v 0.03501941 -0.00927631 0.00910896
v 0.03197081 -0.00939645 0.00557700
v 0.03004513 -0.01493245 0.00582576
v 0.02994170 -0.01465334 0.00557700
v 0.03028645 -0.01384743 0.00557700
v 0.03103013 -0.01493245 0.00690401
v 0.03161129 -0.01501193 0.00758569
v 0.03248056 -0.01501932 0.00855489
v 0.03179351 -0.01007482 0.00557700
v 0.03187478 -0.00978277 0.00557700
v 0.03209148 -0.00978277 0.00582819
f 1 2 3
f 1 3 4
f 1 4 5
f 1 5 6
f 1 6 7
f 1 7 20
f 1 20 21
f 1 21 8
f 1 8 11
f 1 11 2
f 2 9 10
f 2 10 3
f 2 11 25
f 2 25 9
f 3 12 5
f 3 5 4
f 3 10 13
f 3 13 12
f 5 12 14
f 5 14 15
f 5 15 16
f 5 16 6
f 6 16 17
f 6 17 18
f 6 18 19
f 6 19 7
f 7 19 18
f 7 18 20
f 8 21 11
f 9 22 23
f 9 23 24
f 9 24 10
f 9 25 39
f 9 39 26
f 9 26 27
f 9 27 28
f 9 28 29
f 9 29 30
f 9 30 31
f 9 31 32
f 9 32 33
f 9 33 34
f 9 34 22
f 10 24 35
f 10 35 36
f 10 36 37
f 10 37 13
f 11 21 38
f 11 38 39
f 11 39 25
f 12 13 40
f 12 40 41
f 12 41 14
f 13 37 40
f 14 42 43
f 14 43 15
f 14 41 44
f 14 44 45
f 14 45 46
f 14 46 42
f 15 43 47
f 15 47 48
f 15 48 17
f 15 17 16
f 17 48 66
f 17 66 91
f 17 91 89
f 17 89 111
f 17 111 110
f 17 110 126
f 17 126 134
f 17 134 133
f 17 133 123
f 17 123 121
f 17 121 129
f 17 129 128
f 17 128 117
f 17 117 116
f 17 116 98
f 17 98 83
f 17 83 61
f 17 61 38
f 17 38 21
f 17 21 20
f 17 20 18
f 22 49 23
f 22 34 49
f 23 49 36
f 23 36 24
f 24 36 35
f 26 50 51
f 26 51 27
f 26 39 62
f 26 62 52
f 26 52 50
f 27 51 28
f 28 51 53
f 28 53 54
f 28 54 29
f 29 54 30
f 30 54 31
f 31 54 32
f 32 54 55
f 32 55 56
f 32 56 33
f 33 56 34
f 34 56 49
f 36 49 56
f 36 56 57
f 36 57 58
f 36 58 59
f 36 59 60
f 36 60 37
f 37 60 40
f 38 61 84
f 38 84 70
f 38 70 52
f 38 52 62
f 38 62 39
f 40 60 42
f 40 42 46
f 40 46 45
f 40 45 44
f 40 44 41
f 42 60 63
f 42 63 64
f 42 64 65
f 42 65 43
f 43 65 47
f 47 66 48
f 47 65 66
f 50 67 68
f 50 68 51
f 50 52 67
f 51 68 69
f 51 69 53
f 52 70 71
f 52 71 72
f 52 72 67
f 53 73 55
f 53 55 54
f 53 69 74
f 53 74 73
f 55 73 75
f 55 75 76
f 55 76 77
f 55 77 56
f 56 77 78
f 56 78 57
f 57 78 79
f 57 79 80
f 57 80 58
f 58 80 59
f 59 80 81
f 59 81 82
f 59 82 63
f 59 63 60
f 61 83 84
f 63 85 86
f 63 86 64
f 63 82 87
f 63 87 88
f 63 88 89
f 63 89 90
f 63 90 85
f 64 86 85
f 64 85 90
f 64 90 65
f 65 90 91
f 65 91 66
f 67 72 68
f 68 72 92
f 68 92 93
f 68 93 94
f 68 94 95
f 68 95 96
f 68 96 73
f 68 73 69
f 69 73 74
f 70 84 97
f 70 97 71
f 71 92 72
f 71 97 98
f 71 98 99
f 71 99 92
f 73 100 76
f 73 76 75
f 73 96 100
f 76 101 77
f 76 100 102
f 76 102 103
f 76 103 104
f 76 104 105
f 76 105 101
f 77 101 78
f 78 101 79
f 79 101 80
f 80 101 81
f 81 101 106
f 81 106 82
f 82 106 107
f 82 107 108
f 82 108 87
f 83 109 84
f 83 98 109
f 84 109 97
f 87 110 88
f 87 108 110
f 88 110 111
f 88 111 89
f 89 91 90
f 92 99 94
f 92 94 93
f 94 99 95
f 95 99 112
f 95 112 96
f 96 112 113
f 96 113 114
f 96 114 115
f 96 115 100
f 97 109 98
f 98 116 99
f 99 116 117
f 99 117 112
f 100 115 102
f 101 105 118
f 101 118 119
f 101 119 120
f 101 120 107
f 101 107 106
f 102 115 103
f 103 115 121
f 103 121 104
f 104 121 122
f 104 122 123
f 104 123 124
f 104 124 105
f 105 124 123
f 105 123 118
f 107 120 125
f 107 125 108
f 108 125 110
f 110 125 126
f 112 117 127
f 112 127 128
f 112 128 129
f 112 129 130
f 112 130 113
f 113 115 114
f 113 130 131
f 113 131 132
f 113 132 121
f 113 121 115
f 117 128 127
f 118 123 133
f 118 133 119
f 119 133 134
f 119 134 135
f 119 135 120
f 120 135 126
f 120 126 125
f 121 132 129
f 121 123 122
f 126 135 134
f 129 132 131
f 129 131 130

