# https://github.com/mikedh/trimesh
v 0.01473650 -0.03430816 0.01045565
v 0.01473650 -0.02859979 0.01045565
v 0.01602137 -0.03377327 0.01045565
v 0.01596828 -0.03421389 0.01091962
v 0.01473650 -0.03449230 0.01066186
v 0.01260922 -0.03518940 0.01045908
v 0.01188714 -0.03547219 0.01045908
v 0.01089960 -0.03577470 0.01045908
v 0.01082881 -0.03579444 0.01045908
v 0.01002886 -0.03598734 0.01045908
v 0.00669812 -0.03678748 0.01045908
v 0.00566810 -0.03697820 0.01045908
v 0.00492479 -0.03705492 0.01045908
v 0.00463808 -0.03708342 0.01045908
v 0.00360806 -0.03716672 0.01045908
v 0.00051801 -0.03740786 0.01045908
v 0.00000831 -0.03740786 0.01045908
v 0.00000831 -0.03218615 0.01045908
v 0.02664365 -0.01800513 0.01045565
v 0.01693104 -0.03336334 0.01045565
v 0.01666557 -0.03406483 0.01108459
v 0.01447103 -0.03503814 0.01115333
v 0.01287822 -0.03536916 0.01078558
v 0.01225172 -0.03600927 0.01122894
v 0.01156504 -0.03612545 0.01108115
v 0.01081465 -0.03622848 0.01096430
v 0.00748390 -0.03714261 0.01109834
v 0.00669812 -0.03723687 0.01098836
v 0.00566810 -0.03732894 0.01087494
v 0.00463808 -0.03737936 0.01081308
v 0.00051801 -0.03757446 0.01065842
v 0.00000831 -0.03757446 0.01065842
v 0.00000831 -0.02757606 0.03949015
v 0.02087767 -0.01800732 0.03938704
v 0.02087413 -0.01800732 0.03940766
v 0.02099802 -0.01800732 0.04056588
v 0.02885235 -0.01800513 0.02052218
v 0.03275650 -0.01800513 0.01045565
v 0.01718589 -0.03322743 0.01045565
v 0.01735225 -0.03390918 0.01127705
v 0.01516125 -0.03489565 0.01136297
v 0.01188360 -0.03635343 0.01161730
v 0.01287822 -0.03588431 0.01143858
v 0.01287822 -0.03618464 0.01195411
v 0.01073678 -0.03676556 0.01177883
v 0.00978463 -0.03686640 0.01153482
v 0.00875815 -0.03698916 0.01131142
v 0.00817058 -0.03706150 0.01119801
v 0.00669812 -0.03768407 0.01168947
v 0.00574597 -0.03789452 0.01175134
v 0.00463808 -0.03789232 0.01154513
v 0.00360806 -0.03793398 0.01146264
v 0.00257805 -0.03797562 0.01139047
v 0.00154803 -0.03801508 0.01131830
v 0.00051801 -0.03805674 0.01125299
v 0.00000831 -0.03805674 0.01125299
v 0.00000831 -0.02758921 0.03993694
v 0.00000831 -0.02760456 0.04039404
v 0.02102633 -0.01800732 0.04060369
v 0.02731263 -0.01800732 0.04556650
v 0.03553861 -0.01800513 0.02052218
v 0.02149002 -0.01800732 0.04119482
v 0.02278905 -0.01800732 0.04267954
v 0.02283152 -0.01800732 0.04272422
v 0.02342263 -0.01800732 0.04332567
v 0.02406683 -0.01800732 0.04388588
v 0.02453052 -0.01800732 0.04427081
v 0.02507207 -0.01800732 0.04471072
v 0.02568442 -0.01800732 0.04518844
v 0.02616580 -0.01800732 0.04536716
v 0.02620120 -0.01800732 0.04537747
v 0.03320249 -0.01800513 0.01091962
v 0.03300781 -0.01863427 0.01111552
v 0.03211584 -0.01987941 0.01097805
v 0.03084867 -0.02112017 0.01045565
v 0.01761064 -0.03299287 0.01045565
v 0.01700183 -0.03428185 0.01164823
v 0.01598243 -0.03474878 0.01169635
v 0.01802831 -0.03319674 0.01092993
v 0.01863004 -0.03301259 0.01111552
v 0.02056265 -0.03190556 0.01120144
v 0.01931672 -0.03280215 0.01139734
v 0.01806017 -0.03372285 0.01164823
v 0.01774161 -0.03411963 0.01196442
v 0.01564618 -0.03509733 0.01204347
v 0.01034035 -0.03708780 0.01218438
v 0.01344102 -0.03606845 0.01216032
v 0.01184467 -0.03678090 0.01272053
v 0.00978463 -0.03715357 0.01205034
v 0.00875815 -0.03727633 0.01182695
v 0.00613886 -0.03810277 0.01223250
v 0.00545219 -0.03813785 0.01213626
v 0.00463808 -0.03817511 0.01206065
v 0.00360806 -0.03821457 0.01197817
v 0.00257805 -0.03825403 0.01190256
v 0.00154803 -0.03829568 0.01183382
v 0.00051801 -0.03833514 0.01176852
v 0.00000831 -0.03833514 0.01176852
v 0.00000831 -0.02774485 0.04065180
v 0.02834618 -0.01800732 0.04556650
v 0.00000831 -0.03163373 0.04535685
v 0.00000831 -0.03244264 0.04555962
v 0.00154803 -0.03244264 0.04556650
v 0.03606955 -0.01800732 0.02549873
v 0.03616866 -0.01800732 0.02508288
v 0.03614742 -0.01800732 0.02405182
v 0.03608017 -0.01800732 0.02364284
v 0.03508555 -0.01800513 0.01786549
v 0.02937620 -0.01800732 0.04552869
v 0.03017615 -0.01800732 0.04532935
v 0.03019739 -0.01800732 0.04529842
v 0.03051949 -0.01800732 0.04463855
v 0.00000831 -0.02789392 0.04090957
v 0.00000831 -0.02831481 0.04155226
v 0.00000831 -0.02875105 0.04220526
v 0.00000831 -0.02909741 0.04271735
v 0.00000831 -0.02961038 0.04340128
v 0.00000831 -0.03007950 0.04391681
v 0.00000831 -0.03059684 0.04443234
v 0.00000831 -0.03111857 0.04494786
v 0.03373696 -0.01800513 0.01162074
v 0.03319895 -0.01802705 0.01092993
v 0.03280251 -0.01931822 0.01139734
v 0.03190346 -0.02056556 0.01120144
v 0.03100795 -0.02180631 0.01105709
v 0.03024694 -0.02202553 0.01045565
v 0.01802831 -0.03274077 0.01045565
v 0.01987597 -0.03211601 0.01097805
v 0.02180150 -0.03100897 0.01105709
v 0.02248818 -0.03077222 0.01132517
v 0.02214484 -0.03122599 0.01167573
v 0.02120331 -0.03176526 0.01160012
v 0.02092015 -0.03212258 0.01188537
v 0.01967422 -0.03301917 0.01208471
v 0.01792920 -0.03422924 0.01271709
v 0.01699829 -0.03469397 0.01271709
v 0.01104118 -0.03700889 0.01272053
v 0.00671936 -0.03803262 0.01263461
v 0.01287822 -0.03640824 0.01272053
v 0.01635763 -0.03496580 0.01271709
v 0.01637533 -0.03497238 0.01278239
v 0.01473650 -0.03565194 0.01278239
v 0.01232959 -0.03706808 0.01535659
v 0.01230835 -0.03809400 0.02155323
v 0.01125002 -0.03705931 0.01335978
v 0.00588755 -0.03911335 0.01853911
v 0.00572827 -0.03824526 0.01288550
v 0.00463808 -0.03831760 0.01272053
v 0.00642911 -0.03814223 0.01288550
v 0.00639017 -0.03815757 0.01292330
v 0.00630876 -0.03916377 0.01922648
v 0.00051801 -0.03864204 0.01272053
v 0.00000831 -0.03864204 0.01272053
v 0.02832141 -0.01905955 0.04556650
v 0.00000831 -0.03347075 0.04556650
v 0.03598106 -0.01841287 0.02508288
v 0.03597398 -0.01839533 0.02405182
v 0.03419711 -0.01800513 0.01278239
v 0.02729139 -0.02112017 0.04552182
v 0.02832141 -0.02008986 0.04548401
v 0.02937620 -0.01906174 0.04537403
v 0.02901871 -0.02008986 0.04528124
v 0.02997085 -0.01871976 0.04524687
v 0.03379360 -0.01800513 0.01170322
v 0.03301843 -0.01967335 0.01208471
v 0.03212292 -0.02092288 0.01188537
v 0.03122386 -0.02214829 0.01167573
v 0.03077080 -0.02249027 0.01132517
v 0.03037790 -0.02214171 0.01067217
v 0.03008412 -0.02291774 0.01097117
v 0.02980449 -0.02258891 0.01045565
v 0.02123871 -0.03077222 0.01045565
v 0.02111482 -0.03122161 0.01084057
v 0.02202096 -0.03025048 0.01045565
v 0.02291647 -0.03008607 0.01097117
v 0.02360315 -0.02979452 0.01125987
v 0.02320318 -0.03040394 0.01163448
v 0.02279967 -0.03100897 0.01201597
v 0.01844244 -0.03392672 0.01271709
v 0.02160329 -0.03190994 0.01228749
v 0.01848492 -0.03391576 0.01278239
v 0.01794336 -0.03423362 0.01278239
v 0.01756109 -0.03504033 0.01618487
v 0.01743366 -0.03498115 0.01549750
v 0.01160044 -0.03817511 0.02096209
v 0.00722905 -0.03914185 0.02042595
v 0.01343748 -0.03709877 0.01827104
v 0.01247471 -0.03712507 0.01604396
v 0.01700183 -0.03538450 0.01683787
v 0.01700183 -0.03641043 0.02302077
v 0.01614526 -0.03693654 0.02405182
v 0.01474004 -0.03748458 0.02384561
v 0.01246055 -0.03814442 0.02219592
v 0.01184467 -0.03860039 0.02405182
v 0.00566810 -0.03997706 0.02405182
v 0.00566810 -0.03966139 0.02198971
v 0.00257805 -0.03908705 0.01665916
v 0.00149140 -0.03905417 0.01588930
v 0.00666980 -0.03903005 0.01888967
v 0.00669812 -0.03950575 0.02198971
v 0.00669812 -0.03982580 0.02405182
v 0.00034457 -0.04011297 0.02219592
v 0.00008264 -0.04017216 0.02246743
v 0.00000831 -0.04017216 0.02246743
v 0.02420842 -0.02421111 0.04556650
v 0.02523844 -0.02318079 0.04555619
v 0.02626137 -0.02215048 0.04554244
v 0.00000831 -0.03450326 0.04555619
v 0.00669812 -0.03347075 0.04556650
v 0.03507847 -0.01968212 0.02573244
v 0.03560233 -0.01905955 0.02508288
v 0.03558817 -0.01905955 0.02405182
v 0.03508909 -0.01866496 0.01992760
v 0.03503245 -0.01857508 0.01931584
v 0.03497228 -0.01846767 0.01862847
v 0.03393164 -0.01845452 0.01278239
v 0.03392456 -0.01844356 0.01271709
v 0.03418295 -0.01800513 0.01271709
v 0.02527383 -0.02424618 0.04539466
v 0.02627199 -0.02318299 0.04538434
v 0.02727723 -0.02211979 0.04535685
v 0.02827893 -0.02104564 0.04530873
v 0.02886650 -0.02064886 0.04518844
v 0.03191054 -0.02160683 0.01228749
v 0.03100795 -0.02280374 0.01201597
v 0.03040622 -0.02320272 0.01163448
v 0.02979388 -0.02360607 0.01125987
v 0.02931957 -0.02316106 0.01045565
v 0.02881341 -0.02469557 0.01119801
v 0.02783295 -0.02578288 0.01114645
v 0.02258375 -0.02980548 0.01045565
v 0.02337308 -0.02913906 0.01045565
v 0.02577999 -0.02783692 0.01114645
v 0.02468980 -0.02881462 0.01119801
v 0.02388986 -0.03003784 0.01194380
v 0.02651976 -0.02759359 0.01168604
v 0.02674984 -0.02778651 0.01231498
v 0.02344741 -0.03069111 0.01271709
v 0.02293417 -0.03110981 0.01271709
v 0.02208821 -0.03167538 0.01266898
v 0.02211653 -0.03168196 0.01278239
v 0.02168116 -0.03195598 0.01278239
v 0.01875039 -0.03514337 0.02052218
v 0.01856987 -0.03503595 0.01931584
v 0.02173779 -0.03302136 0.01889655
v 0.02159621 -0.03396399 0.02366002
v 0.01839289 -0.03597419 0.02405182
v 0.01846368 -0.03497457 0.01862847
v 0.01788319 -0.03620656 0.02405182
v 0.01756463 -0.03606845 0.02237464
v 0.00776353 -0.03925803 0.02198627
v 0.00772460 -0.03958905 0.02405182
v 0.01329589 -0.03806769 0.02377344
v 0.01700183 -0.03657923 0.02405182
v 0.01474004 -0.03751966 0.02405869
v 0.01343394 -0.03812250 0.02446081
v 0.01263045 -0.03821019 0.02302420
v 0.01292070 -0.03826280 0.02409306
v 0.01184467 -0.03861574 0.02508288
v 0.00875815 -0.03935887 0.02508288
v 0.00566810 -0.03999240 0.02508288
v 0.00417794 -0.04016997 0.02453642
v 0.00251787 -0.04022477 0.02403120
v 0.00669812 -0.03984115 0.02508288
v 0.00154803 -0.04030369 0.02405182
v 0.00051801 -0.04038261 0.02405182
v 0.00000831 -0.04038261 0.02405182
v 0.01905833 -0.02832358 0.04556650
v 0.02317840 -0.02523922 0.04555619
v 0.02424381 -0.02527649 0.04539466
v 0.00000831 -0.03486058 0.04545996
v 0.00051801 -0.03450326 0.04555619
v 0.00772460 -0.03347075 0.04555962
v 0.01081465 -0.03244264 0.04556650
v 0.03397058 -0.02161341 0.02551592
v 0.03515280 -0.01979830 0.02508288
v 0.03402367 -0.02169890 0.02482855
v 0.03402367 -0.02169890 0.02434739
v 0.03532978 -0.01915820 0.02294172
v 0.03472451 -0.01897406 0.01894123
v 0.03195656 -0.02168356 0.01278239
v 0.02593927 -0.02392393 0.04528468
v 0.02495527 -0.02495863 0.04529155
v 0.02692327 -0.02284101 0.04527093
v 0.02790728 -0.02175590 0.04523656
v 0.03090884 -0.02577192 0.02561902
v 0.03188930 -0.02468242 0.02538188
v 0.03285207 -0.02353811 0.02508288
v 0.03307506 -0.02286293 0.02585273
v 0.03167693 -0.02209130 0.01266898
v 0.03111060 -0.02293308 0.01271709
v 0.03068939 -0.02345043 0.01271709
v 0.02778339 -0.02675619 0.01231498
v 0.03003810 -0.02389105 0.01194380
v 0.02758872 -0.02652821 0.01168604
v 0.02695867 -0.02592537 0.01045565
v 0.02685248 -0.02685703 0.01110521
v 0.02723476 -0.02618185 0.01091275
v 0.02442079 -0.02824467 0.01045565
v 0.02591804 -0.02696445 0.01045565
v 0.02707194 -0.02707625 0.01168604
v 0.02461547 -0.02970902 0.01278239
v 0.02731971 -0.02733054 0.01278239
v 0.02775862 -0.02776458 0.01652168
v 0.02783649 -0.02783912 0.01720905
v 0.02756040 -0.02863048 0.01992760
v 0.02357129 -0.03079414 0.01374815
v 0.02376951 -0.03198667 0.02052218
v 0.02269348 -0.03194940 0.01620549
v 0.02259791 -0.03188583 0.01551812
v 0.02364916 -0.03189460 0.01957017
v 0.02352174 -0.03284380 0.02405182
v 0.01905833 -0.03558837 0.02405182
v 0.01966360 -0.03507102 0.02323385
v 0.02274303 -0.03300383 0.02223373
v 0.02169532 -0.03402537 0.02434739
v 0.01841059 -0.03598296 0.02508288
v 0.01789735 -0.03621314 0.02508288
v 0.00772460 -0.03960439 0.02508288
v 0.01343394 -0.03812250 0.02470139
v 0.00931387 -0.03914404 0.02562246
v 0.01293132 -0.03827157 0.02505882
v 0.01263045 -0.03821238 0.02585617
v 0.00538139 -0.03505568 0.04520219
v 0.00293555 -0.04015243 0.02550561
v 0.00360806 -0.04012832 0.02529940
v 0.00417794 -0.04016997 0.02460515
v 0.00051801 -0.04039795 0.02508288
v 0.00000831 -0.04039795 0.02508288
v 0.01287822 -0.03141671 0.04556650
v 0.01597182 -0.03038201 0.04555962
v 0.01803185 -0.02935170 0.04552869
v 0.02111836 -0.02729985 0.04552182
v 0.02214838 -0.02626954 0.04554244
v 0.02318194 -0.02628269 0.04538434
v 0.02392171 -0.02594729 0.04528468
v 0.00000831 -0.03523325 0.04535341
v 0.00051801 -0.03523325 0.04535341
v 0.00154803 -0.03450326 0.04554244
v 0.00875815 -0.03347075 0.04551495
v 0.01184467 -0.03244264 0.04552869
v 0.00360806 -0.03450326 0.04548745
v 0.00463808 -0.03450326 0.04544964
v 0.01390470 -0.03141671 0.04555619
v 0.03317417 -0.02302296 0.02508288
v 0.03316710 -0.02300981 0.02405182
v 0.03284499 -0.02352496 0.02405182
v 0.03296888 -0.02165506 0.01831572
v 0.03213708 -0.02197511 0.01477920
v 0.03188577 -0.02259987 0.01551812
v 0.03168047 -0.02211979 0.01278239
v 0.02560301 -0.02457281 0.04463855
v 0.02456945 -0.02561408 0.04463855
v 0.02509685 -0.02510112 0.04463855
v 0.02894791 -0.02794215 0.02580805
v 0.02992838 -0.02685923 0.02571526
v 0.02905056 -0.02805833 0.02508288
v 0.03194594 -0.02475038 0.02469451
v 0.03226450 -0.02428783 0.02505538
v 0.03000271 -0.02694691 0.02508288
v 0.03194594 -0.02475038 0.02445737
v 0.03111768 -0.02294404 0.01278239
v 0.03086283 -0.02365430 0.01443552
v 0.02809134 -0.02650848 0.01278239
v 0.03196364 -0.02373979 0.02025754
v 0.02852316 -0.02744672 0.01889655
v 0.02816921 -0.02737438 0.01685162
v 0.02644897 -0.02645806 0.01045565
v 0.02529507 -0.03121065 0.02311700
v 0.02514995 -0.03153070 0.02408963
v 0.02879925 -0.02777116 0.02165290
v 0.02903994 -0.02804956 0.02405182
v 0.02856210 -0.02856253 0.02405182
v 0.02804532 -0.02904480 0.02405182
v 0.02433584 -0.03159427 0.02095866
v 0.02393941 -0.03213135 0.02198627
v 0.02466502 -0.03187925 0.02377344
v 0.02474643 -0.03194721 0.02445737
v 0.02300496 -0.03316605 0.02405182
v 0.02406329 -0.03223000 0.02302077
v 0.02427567 -0.03226069 0.02408963
v 0.02353590 -0.03285257 0.02508288
v 0.01905833 -0.03560372 0.02508288
v 0.02169532 -0.03402537 0.02482855
v 0.01771683 -0.03613422 0.02580118
v 0.01967776 -0.03508199 0.02573244
v 0.01547628 -0.03193625 0.04516439
v 0.01552937 -0.03710534 0.02566370
v 0.01700183 -0.03659457 0.02508288
v 0.01383037 -0.03791205 0.02505882
v 0.01332067 -0.03807427 0.02538532
v 0.01474004 -0.03753720 0.02507600
v 0.00958641 -0.03405825 0.04523656
v 0.01257736 -0.03304548 0.04524687
v 0.01027309 -0.03397056 0.04486538
v 0.00463808 -0.03509295 0.04524687
v 0.00224887 -0.04017874 0.02563621
v 0.00875815 -0.03414813 0.04531561
v 0.00051801 -0.04024889 0.02580461
v 0.00000831 -0.04024889 0.02580461
v 0.01473296 -0.03141671 0.04547714
v 0.01494180 -0.03141232 0.04545652
v 0.01803185 -0.03017157 0.04532935
v 0.02008835 -0.02832358 0.04548401
v 0.01707970 -0.03045874 0.04539466
v 0.02211653 -0.02728670 0.04535685
v 0.02283860 -0.02693376 0.04527093
v 0.00000831 -0.03536039 0.04500285
v 0.00051801 -0.03548753 0.04463855
v 0.00154803 -0.03520255 0.04533623
v 0.00772460 -0.03424458 0.04535341
v 0.01184467 -0.03317262 0.04532592
v 0.01473296 -0.03157673 0.04543933
v 0.00257805 -0.03516967 0.04531561
v 0.00360806 -0.03513240 0.04528468
v 0.03226096 -0.02427906 0.02408963
v 0.03222911 -0.02406642 0.02302077
v 0.03171940 -0.02233901 0.01374815
v 0.02175195 -0.02791146 0.04523656
v 0.02793913 -0.02895273 0.02580805
v 0.02856918 -0.02857349 0.02508288
v 0.02999563 -0.02693814 0.02405182
v 0.02985051 -0.02676496 0.02258772
v 0.03118493 -0.02506166 0.02198627
v 0.03066461 -0.02445443 0.01683787
v 0.03025402 -0.02517784 0.01786549
v 0.02805594 -0.02905357 0.02508288
v 0.02474643 -0.03194721 0.02469451
v 0.02285984 -0.03307617 0.02585273
v 0.02161391 -0.03397495 0.02551592
v 0.02302266 -0.03317700 0.02508288
v 0.02428275 -0.03226946 0.02505538
v 0.02467918 -0.03189021 0.02538188
v 0.02064760 -0.02887162 0.04518844
v 0.01678592 -0.03107035 0.04528468
v 0.01494180 -0.03203928 0.04525374
v 0.01871853 -0.02997208 0.04524687
v 0.00000831 -0.03548753 0.04463855
v 0.01587979 -0.03141232 0.04531904
v 0.02008835 -0.02902288 0.04528124
v 0.01905833 -0.02937581 0.04537403
v 0.02104049 -0.02828193 0.04530873
v 0.01473296 -0.03207435 0.04527437
v 0.01390470 -0.03222561 0.04534998
v 0.02576229 -0.03091032 0.02561902
v 0.02514995 -0.03154385 0.02505538
f 1 2 19
f 1 19 38
f 1 38 75
f 1 75 126
f 1 126 171
f 1 171 228
f 1 228 296
f 1 296 368
f 1 368 300
f 1 300 299
f 1 299 232
f 1 232 231
f 1 231 174
f 1 174 172
f 1 172 127
f 1 127 76
f 1 76 39
f 1 39 20
f 1 20 3
f 1 3 4
f 1 4 5
f 1 5 6
f 1 6 7
f 1 7 8
f 1 8 9
f 1 9 10
f 1 10 11
f 1 11 12
f 1 12 13
f 1 13 14
f 1 14 15
f 1 15 16
f 1 16 17
f 1 17 18
f 1 18 2
f 2 18 19
f 3 20 21
f 3 21 4
f 4 21 22
f 4 22 23
f 4 23 6
f 4 6 5
f 6 23 24
f 6 24 7
f 7 24 25
f 7 25 8
f 8 25 9
f 9 25 26
f 9 26 10
f 10 26 11
f 11 27 28
f 11 28 12
f 11 26 27
f 12 29 13
f 12 28 29
f 13 29 14
f 14 30 15
f 14 29 30
f 15 30 31
f 15 31 16
f 16 31 32
f 16 32 17
f 17 32 56
f 17 56 98
f 17 98 153
f 17 153 204
f 17 204 267
f 17 267 329
f 17 329 400
f 17 400 438
f 17 438 408
f 17 408 337
f 17 337 271
f 17 271 208
f 17 208 155
f 17 155 102
f 17 102 101
f 17 101 120
f 17 120 119
f 17 119 118
f 17 118 117
f 17 117 116
f 17 116 115
f 17 115 114
f 17 114 113
f 17 113 99
f 17 99 58
f 17 58 57
f 17 57 33
f 17 33 18
f 18 33 19
f 19 34 35
f 19 35 36
f 19 36 37
f 19 37 61
f 19 61 108
f 19 108 158
f 19 158 218
f 19 218 164
f 19 164 121
f 19 121 72
f 19 72 38
f 19 33 34
f 20 39 40
f 20 40 21
f 21 40 41
f 21 41 22
f 22 41 24
f 22 24 23
f 24 42 25
f 24 41 43
f 24 43 44
f 24 44 42
f 25 42 45
f 25 45 46
f 25 46 47
f 25 47 48
f 25 48 26
f 26 48 27
f 27 49 28
f 27 48 49
f 28 49 50
f 28 50 29
f 29 50 51
f 29 51 52
f 29 52 30
f 30 52 53
f 30 53 54
f 30 54 55
f 30 55 31
f 31 55 56
f 31 56 32
f 33 57 35
f 33 35 34
f 35 57 58
f 35 58 36
f 36 59 37
f 36 58 59
f 37 60 100
f 37 100 61
f 37 59 62
f 37 62 63
f 37 63 64
f 37 64 65
f 37 65 66
f 37 66 67
f 37 67 68
f 37 68 69
f 37 69 70
f 37 70 71
f 37 71 60
f 38 72 73
f 38 73 74
f 38 74 75
f 39 76 40
f 40 77 78
f 40 78 41
f 40 76 79
f 40 79 80
f 40 80 81
f 40 81 82
f 40 82 83
f 40 83 84
f 40 84 77
f 41 78 85
f 41 85 43
f 42 86 45
f 42 44 86
f 43 85 44
f 44 85 87
f 44 87 88
f 44 88 86
f 45 86 89
f 45 89 46
f 46 89 90
f 46 90 47
f 47 90 49
f 47 49 48
f 49 91 50
f 49 90 91
f 50 91 92
f 50 92 51
f 51 92 93
f 51 93 52
f 52 93 94
f 52 94 53
f 53 94 95
f 53 95 96
f 53 96 54
f 54 96 55
f 55 96 97
f 55 97 98
f 55 98 56
f 58 99 65
f 58 65 64
f 58 64 63
f 58 63 62
f 58 62 59
f 60 71 101
f 60 101 102
f 60 102 103
f 60 103 155
f 60 155 209
f 60 209 274
f 60 274 330
f 60 330 268
f 60 268 205
f 60 205 154
f 60 154 100
f 61 104 105
f 61 105 106
f 61 106 107
f 61 107 108
f 61 100 109
f 61 109 110
f 61 110 111
f 61 111 112
f 61 112 104
f 65 99 66
f 66 99 113
f 66 113 67
f 67 113 68
f 68 113 69
f 69 113 114
f 69 114 115
f 69 115 116
f 69 116 117
f 69 117 118
f 69 118 119
f 69 119 120
f 69 120 101
f 69 101 70
f 70 101 71
f 72 121 122
f 72 122 73
f 73 123 124
f 73 124 125
f 73 125 74
f 73 122 121
f 73 121 123
f 74 125 75
f 75 125 126
f 76 127 80
f 76 80 79
f 77 85 78
f 77 84 85
f 80 127 128
f 80 128 129
f 80 129 81
f 81 129 130
f 81 130 131
f 81 131 132
f 81 132 82
f 82 132 133
f 82 133 134
f 82 134 84
f 82 84 83
f 84 134 135
f 84 135 136
f 84 136 85
f 85 136 87
f 86 88 137
f 86 137 138
f 86 138 91
f 86 91 89
f 87 139 88
f 87 136 140
f 87 140 141
f 87 141 142
f 87 142 139
f 88 143 144
f 88 144 145
f 88 145 137
f 88 139 143
f 89 91 90
f 91 146 147
f 91 147 148
f 91 148 92
f 91 138 149
f 91 149 150
f 91 150 151
f 91 151 146
f 92 148 152
f 92 152 93
f 93 152 94
f 94 152 96
f 94 96 95
f 96 152 97
f 97 152 153
f 97 153 98
f 100 154 109
f 102 155 103
f 104 112 156
f 104 156 105
f 105 156 157
f 105 157 106
f 106 157 107
f 107 157 108
f 108 157 158
f 109 154 159
f 109 159 160
f 109 160 161
f 109 161 110
f 110 161 162
f 110 162 163
f 110 163 111
f 111 163 112
f 112 163 156
f 121 164 123
f 123 164 165
f 123 165 166
f 123 166 124
f 124 166 167
f 124 167 168
f 124 168 125
f 125 168 169
f 125 169 126
f 126 169 170
f 126 170 171
f 127 172 128
f 128 172 173
f 128 173 129
f 129 174 130
f 129 173 172
f 129 172 174
f 130 174 175
f 130 175 176
f 130 176 177
f 130 177 178
f 130 178 131
f 131 133 132
f 131 178 133
f 133 178 134
f 134 179 135
f 134 178 180
f 134 180 179
f 135 179 181
f 135 181 182
f 135 182 183
f 135 183 184
f 135 184 136
f 136 184 141
f 136 141 140
f 137 145 185
f 137 185 186
f 137 186 150
f 137 150 149
f 137 149 138
f 139 142 187
f 139 187 188
f 139 188 143
f 141 184 189
f 141 189 190
f 141 190 142
f 142 190 191
f 142 191 192
f 142 192 187
f 143 188 193
f 143 193 144
f 144 194 185
f 144 185 145
f 144 193 194
f 146 195 196
f 146 196 197
f 146 197 148
f 146 148 147
f 146 151 195
f 148 197 198
f 148 198 152
f 150 186 199
f 150 199 151
f 151 199 200
f 151 200 201
f 151 201 195
f 152 198 202
f 152 202 203
f 152 203 204
f 152 204 153
f 154 205 206
f 154 206 207
f 154 207 159
f 155 208 272
f 155 272 209
f 156 163 210
f 156 210 211
f 156 211 212
f 156 212 157
f 157 212 213
f 157 213 214
f 157 214 215
f 157 215 158
f 158 216 217
f 158 217 218
f 158 215 214
f 158 214 216
f 159 207 219
f 159 219 220
f 159 220 160
f 160 220 221
f 160 221 222
f 160 222 162
f 160 162 161
f 162 222 223
f 162 223 163
f 163 223 210
f 164 218 165
f 165 224 166
f 165 218 217
f 165 217 224
f 166 224 225
f 166 225 167
f 167 225 168
f 168 226 227
f 168 227 170
f 168 170 169
f 168 225 226
f 170 228 171
f 170 227 229
f 170 229 230
f 170 230 228
f 174 231 175
f 175 231 232
f 175 232 233
f 175 233 234
f 175 234 176
f 176 235 177
f 176 234 236
f 176 236 235
f 177 235 178
f 178 235 237
f 178 237 238
f 178 238 239
f 178 239 180
f 179 180 181
f 180 240 241
f 180 241 242
f 180 242 181
f 180 239 240
f 181 243 244
f 181 244 182
f 181 242 245
f 181 245 246
f 181 246 243
f 182 247 183
f 182 244 248
f 182 248 247
f 183 247 249
f 183 249 250
f 183 250 184
f 184 250 189
f 185 194 251
f 185 251 186
f 186 252 201
f 186 201 200
f 186 200 199
f 186 251 252
f 187 253 188
f 187 192 253
f 188 253 193
f 189 250 190
f 190 254 191
f 190 250 254
f 191 255 192
f 191 254 256
f 191 256 255
f 192 255 253
f 193 253 257
f 193 257 194
f 194 257 258
f 194 258 256
f 194 256 259
f 194 259 260
f 194 260 252
f 194 252 251
f 195 201 264
f 195 264 261
f 195 261 262
f 195 262 196
f 196 262 263
f 196 263 197
f 197 263 198
f 198 263 202
f 201 252 319
f 201 319 264
f 202 263 265
f 202 265 266
f 202 266 203
f 203 266 267
f 203 267 204
f 205 268 269
f 205 269 270
f 205 270 219
f 205 219 206
f 206 219 207
f 208 271 272
f 209 272 273
f 209 273 274
f 210 275 211
f 210 223 275
f 211 275 276
f 211 276 277
f 211 277 278
f 211 278 212
f 212 279 213
f 212 278 279
f 213 279 280
f 213 280 216
f 213 216 214
f 216 280 281
f 216 281 224
f 216 224 217
f 219 282 220
f 219 270 283
f 219 283 282
f 220 282 284
f 220 284 221
f 221 284 285
f 221 285 222
f 222 285 223
f 223 285 286
f 223 286 287
f 223 287 288
f 223 288 289
f 223 289 275
f 224 290 291
f 224 291 225
f 224 281 290
f 225 291 292
f 225 292 293
f 225 293 294
f 225 294 226
f 226 294 227
f 227 294 295
f 227 295 229
f 228 230 296
f 229 295 230
f 230 295 297
f 230 297 298
f 230 298 296
f 232 299 233
f 233 236 234
f 233 299 300
f 233 300 297
f 233 297 236
f 235 236 237
f 236 297 301
f 236 301 237
f 237 302 238
f 237 301 293
f 237 293 303
f 237 303 304
f 237 304 305
f 237 305 306
f 237 306 302
f 238 307 308
f 238 308 239
f 238 302 307
f 239 309 310
f 239 310 241
f 239 241 240
f 239 308 311
f 239 311 312
f 239 312 309
f 241 310 242
f 242 310 245
f 243 313 244
f 243 246 314
f 243 314 313
f 244 313 247
f 244 247 248
f 245 310 315
f 245 315 246
f 246 315 316
f 246 316 313
f 246 313 314
f 247 313 317
f 247 317 249
f 249 318 256
f 249 256 254
f 249 254 250
f 249 317 318
f 252 260 319
f 253 256 257
f 253 255 256
f 256 320 259
f 256 258 257
f 256 318 320
f 259 321 260
f 259 320 322
f 259 322 323
f 259 323 321
f 260 321 319
f 261 264 324
f 261 324 325
f 261 325 326
f 261 326 327
f 261 327 262
f 262 327 328
f 262 328 266
f 262 266 265
f 262 265 263
f 264 319 321
f 264 321 324
f 266 328 329
f 266 329 267
f 268 330 331
f 268 331 332
f 268 332 333
f 268 333 334
f 268 334 269
f 269 334 270
f 270 334 335
f 270 335 336
f 270 336 283
f 271 337 338
f 271 338 272
f 272 338 339
f 272 339 273
f 273 340 341
f 273 341 274
f 273 339 342
f 273 342 343
f 273 343 340
f 274 341 344
f 274 344 331
f 274 331 330
f 275 345 276
f 275 289 288
f 275 288 345
f 276 345 277
f 277 345 288
f 277 288 278
f 278 346 279
f 278 288 347
f 278 347 346
f 279 346 348
f 279 348 280
f 280 348 349
f 280 349 281
f 281 349 350
f 281 350 351
f 281 351 290
f 282 283 352
f 282 352 284
f 283 353 354
f 283 354 352
f 283 336 353
f 284 352 285
f 285 352 355
f 285 355 356
f 285 356 286
f 286 356 357
f 286 357 287
f 287 358 359
f 287 359 288
f 287 357 360
f 287 360 358
f 288 359 358
f 288 358 361
f 288 361 347
f 290 351 362
f 290 362 291
f 291 362 292
f 292 363 364
f 292 364 293
f 292 362 365
f 292 365 363
f 293 364 366
f 293 366 367
f 293 367 305
f 293 305 304
f 293 304 303
f 293 301 295
f 293 295 294
f 295 301 297
f 296 298 297
f 296 297 368
f 297 300 368
f 302 306 369
f 302 369 370
f 302 370 307
f 305 367 366
f 305 366 371
f 305 371 372
f 305 372 373
f 305 373 374
f 305 374 306
f 306 374 370
f 306 370 369
f 307 370 375
f 307 375 308
f 308 376 312
f 308 312 311
f 308 375 377
f 308 377 378
f 308 378 376
f 309 312 310
f 310 312 315
f 312 379 315
f 312 376 380
f 312 380 381
f 312 381 378
f 312 378 382
f 312 382 316
f 312 316 379
f 313 316 383
f 313 383 317
f 315 379 316
f 316 384 383
f 316 382 384
f 317 385 318
f 317 383 386
f 317 386 387
f 317 387 385
f 318 385 388
f 318 388 389
f 318 389 320
f 320 390 391
f 320 391 322
f 320 389 392
f 320 392 390
f 321 393 324
f 321 323 393
f 322 391 323
f 323 391 394
f 323 394 395
f 323 395 393
f 324 396 397
f 324 397 325
f 324 393 398
f 324 398 396
f 325 397 328
f 325 328 326
f 326 328 327
f 328 397 399
f 328 399 400
f 328 400 329
f 331 344 401
f 331 401 402
f 331 402 332
f 332 403 404
f 332 404 333
f 332 402 405
f 332 405 403
f 333 406 335
f 333 335 334
f 333 404 406
f 335 407 336
f 335 406 407
f 336 407 353
f 337 408 338
f 338 408 409
f 338 409 410
f 338 410 339
f 339 410 342
f 340 343 411
f 340 411 398
f 340 398 412
f 340 412 341
f 341 412 413
f 341 413 401
f 341 401 344
f 342 410 414
f 342 414 343
f 343 396 411
f 343 414 415
f 343 415 396
f 346 347 350
f 346 350 349
f 346 349 348
f 347 361 416
f 347 416 417
f 347 417 365
f 347 365 362
f 347 362 350
f 350 362 418
f 350 418 351
f 351 418 362
f 352 354 355
f 353 407 419
f 353 419 420
f 353 420 354
f 354 420 355
f 355 420 421
f 355 421 357
f 355 357 356
f 357 421 373
f 357 373 372
f 357 372 361
f 357 361 358
f 357 358 360
f 361 372 422
f 361 422 423
f 361 423 424
f 361 424 365
f 361 365 417
f 361 417 416
f 363 425 364
f 363 365 424
f 363 424 425
f 364 425 426
f 364 426 424
f 364 424 366
f 366 423 371
f 366 424 423
f 370 378 377
f 370 377 375
f 370 374 378
f 371 423 422
f 371 422 372
f 373 421 427
f 373 427 374
f 374 427 378
f 376 378 380
f 378 428 382
f 378 381 380
f 378 427 428
f 382 429 430
f 382 430 431
f 382 431 384
f 382 428 432
f 382 432 433
f 382 433 434
f 382 434 429
f 383 430 386
f 383 384 431
f 383 431 430
f 385 387 388
f 386 430 434
f 386 434 387
f 387 435 436
f 387 436 394
f 387 394 391
f 387 391 388
f 387 434 437
f 387 437 435
f 388 391 389
f 389 391 392
f 390 392 391
f 393 395 394
f 393 394 412
f 393 412 398
f 394 436 412
f 396 398 411
f 396 415 409
f 396 409 399
f 396 399 397
f 399 409 438
f 399 438 400
f 401 413 402
f 402 439 435
f 402 435 405
f 402 413 439
f 403 437 440
f 403 440 441
f 403 441 404
f 403 405 435
f 403 435 437
f 404 441 440
f 404 440 442
f 404 442 406
f 406 442 419
f 406 419 407
f 408 438 409
f 409 415 414
f 409 414 410
f 412 436 443
f 412 443 444
f 412 444 413
f 413 444 443
f 413 443 439
f 419 442 434
f 419 434 445
f 419 445 420
f 420 427 421
f 420 445 427
f 424 426 425
f 427 445 433
f 427 433 446
f 427 446 428
f 428 433 432
f 428 446 433
f 429 434 430
f 433 445 434
f 434 442 440
f 434 440 437
f 435 439 436
f 436 439 443

