# https://github.com/mikedh/trimesh
v 0.01440506 0.02877302 0.01045565
v -0.00000690 0.03510458 0.01296455
v 0.01440506 0.03444358 0.01045565
v 0.02620048 0.01868587 0.01045565
v -0.00000690 0.02757429 0.03949015
v -0.00000690 0.03867950 0.01296455
v 0.01440506 0.03505145 0.01113270
v 0.01474528 0.03430543 0.01045565
v 0.00051921 0.03867950 0.01296455
v 0.00257806 0.03851797 0.01296455
v 0.00439140 0.03837557 0.01296455
v 0.00463691 0.03835432 0.01296455
v 0.00572421 0.03825867 0.01296455
v 0.00640816 0.03816090 0.01296455
v 0.03233495 0.01868587 0.01045565
v 0.02023087 0.01868587 0.03950733
v -0.00000690 0.02760405 0.04039748
v 0.02027296 0.01868587 0.04038029
v -0.00000690 0.04017366 0.02246056
v 0.01440506 0.03510458 0.01121519
v 0.01447170 0.03503657 0.01114989
v 0.01666383 0.03406739 0.01108459
v 0.01596936 0.03421191 0.01091962
v 0.01596936 0.03379746 0.01045565
v 0.01112212 0.03702807 0.01296455
v 0.00008429 0.04017366 0.02246056
v 0.00155039 0.04030543 0.02404838
v 0.00566809 0.03998025 0.02404838
v 0.00588906 0.03911308 0.01853568
v 0.00630995 0.03916622 0.01922305
v 0.00667121 0.03903019 0.01888624
v 0.00762874 0.03898131 0.02002040
v 0.01086959 0.03720873 0.01372065
v 0.03084781 0.02111733 0.01045565
v 0.03291718 0.01868587 0.01105022
v -0.00000690 0.02789310 0.04091300
v 0.02064825 0.01868587 0.04088551
v 0.02073243 0.01868587 0.04098518
v 0.02118138 0.01868587 0.04150414
v 0.02244054 0.01868587 0.04294762
v 0.02280882 0.01868587 0.04329474
v 0.02316657 0.01868587 0.04359718
v 0.02365060 0.01868587 0.04400273
v -0.00000690 0.04038407 0.02404838
v 0.01440506 0.03541702 0.01173072
v 0.01516266 0.03489629 0.01136297
v 0.01735128 0.03390798 0.01127705
v 0.01693039 0.03336388 0.01045565
v 0.01191830 0.03825017 0.02192785
v 0.01231113 0.03809502 0.02154979
v 0.01125189 0.03705782 0.01335635
v 0.01183763 0.03682403 0.01296455
v 0.00051921 0.04038407 0.02404838
v 0.00418095 0.04017153 0.02453642
v 0.00360924 0.04019491 0.02438863
v 0.00566809 0.03999300 0.02507944
v 0.00615562 0.03991648 0.02459141
v 0.00669927 0.03982722 0.02404838
v 0.00772694 0.03959130 0.02404838
v 0.03100564 0.02180383 0.01105709
v 0.03211398 0.01988035 0.01097805
v 0.03024804 0.02202487 0.01045565
v 0.03299434 0.01868587 0.01113958
v 0.03190354 0.02056685 0.01120144
v -0.00000690 0.02874964 0.04220526
v 0.02429947 0.01868587 0.04451139
v 0.02492379 0.01868587 0.04498567
v -0.00000690 0.04039257 0.02459141
v 0.01564668 0.03509608 0.01204347
v 0.01597989 0.03474964 0.01169635
v 0.01718644 0.03322785 0.01045565
v 0.01700405 0.03428205 0.01164823
v 0.01774411 0.03411840 0.01196442
v 0.01805978 0.03372307 0.01164823
v 0.01931543 0.03280065 0.01139734
v 0.02056407 0.03190373 0.01120144
v 0.01862798 0.03301319 0.01111552
v 0.01802471 0.03319810 0.01092993
v 0.01184465 0.03860086 0.02404838
v 0.00944207 0.03917897 0.02404838
v 0.01246897 0.03815028 0.02223373
v 0.01232867 0.03706845 0.01534972
v 0.01145182 0.03711308 0.01404372
v 0.01287583 0.03644783 0.01296455
v 0.00051921 0.04039257 0.02459141
v 0.00051921 0.04039683 0.02507944
v 0.00418095 0.04017153 0.02459141
v 0.00538049 0.03505570 0.04520563
v 0.00669927 0.03983997 0.02507944
v 0.00360924 0.04019279 0.02478043
v 0.00293582 0.04015453 0.02549873
v 0.00669927 0.03983572 0.02459141
v 0.00772694 0.03959980 0.02459141
v 0.00908081 0.03927462 0.02459141
v 0.03077415 0.02249246 0.01132517
v 0.03000954 0.02232881 0.01045565
v 0.03008670 0.02291967 0.01097117
v 0.03337314 0.01868587 0.01169635
v 0.03279793 0.01931924 0.01139734
v 0.03212100 0.02092179 0.01188537
v 0.03301889 0.01967418 0.01208471
v 0.03122310 0.02214815 0.01167573
v 0.03176324 0.02120447 0.01160012
v -0.00000690 0.02909608 0.04271735
v 0.02541132 0.01868587 0.04529155
v -0.00000690 0.02960830 0.04340128
v -0.00000690 0.04039683 0.02507944
v 0.01636219 0.03496643 0.01271709
v 0.01699704 0.03469438 0.01271709
v 0.01440506 0.03577621 0.01271709
v 0.01802471 0.03274114 0.01045565
v 0.01792650 0.03422892 0.01271709
v 0.01966968 0.03301957 0.01208471
v 0.02120242 0.03176345 0.01160012
v 0.02214592 0.03122573 0.01167573
v 0.02248964 0.03077302 0.01132517
v 0.02180219 0.03100681 0.01105709
v 0.02111474 0.03122148 0.01084057
v 0.02111474 0.03084741 0.01045565
v 0.01184465 0.03860936 0.02459141
v 0.01343350 0.03812477 0.02445737
v 0.01292142 0.03826718 0.02408619
v 0.01262680 0.03821192 0.02301733
v 0.01247598 0.03712371 0.01604053
v 0.01284075 0.03692392 0.01574152
v 0.00051921 0.04024805 0.02580118
v 0.00224837 0.04018216 0.02562933
v 0.00258859 0.04022892 0.02512755
v 0.00463691 0.03509608 0.04524687
v 0.00772694 0.03424592 0.04535685
v 0.00875462 0.03415028 0.04531561
v 0.00958587 0.03406101 0.04523656
v 0.00931229 0.03914709 0.02561902
v 0.00772694 0.03960405 0.02507944
v 0.00998572 0.03906207 0.02507944
v 0.01184465 0.03861574 0.02507944
v 0.02979208 0.02360830 0.01125987
v 0.03040587 0.02320447 0.01163448
v 0.03100564 0.02280277 0.01201597
v 0.02954656 0.02289204 0.01045565
v 0.02940977 0.02324485 0.01060343
v 0.02783143 0.02578471 0.01114645
v 0.02881351 0.02469438 0.01119801
v 0.03361165 0.01868587 0.01228749
v 0.03377650 0.01868587 0.01271709
v 0.03191055 0.02160617 0.01228749
v 0.02623907 0.01868587 0.04547714
v -0.00000690 0.03163168 0.04535685
v -0.00000690 0.03111733 0.04494443
v -0.00000690 0.03085166 0.04468666
v -0.00000690 0.03059236 0.04443234
v -0.00000690 0.03033093 0.04417114
v -0.00000690 0.03007801 0.04391337
v -0.00000690 0.02983997 0.04365561
v -0.00000690 0.04024805 0.02580118
v 0.01596936 0.03666888 0.02198627
v 0.01715838 0.03593136 0.02052218
v 0.01661122 0.03506845 0.01395779
v 0.01743195 0.03497918 0.01549750
v 0.01693741 0.03473264 0.01278239
v 0.01786337 0.03427567 0.01278239
v 0.01440506 0.03717047 0.02110988
v 0.01794053 0.03423529 0.01278239
v 0.01845261 0.03393349 0.01278239
v 0.01844209 0.03392498 0.01271709
v 0.02160578 0.03191223 0.01228749
v 0.02280180 0.03100681 0.01201597
v 0.02091832 0.03212052 0.01188537
v 0.02202667 0.03024804 0.01045565
v 0.02320516 0.03040532 0.01163448
v 0.02360500 0.02979108 0.01125987
v 0.02291755 0.03008651 0.01097117
v 0.01343350 0.03812477 0.02469795
v 0.01789493 0.03621617 0.02508288
v 0.01787740 0.03620766 0.02405182
v 0.01700054 0.03658173 0.02405182
v 0.01440506 0.03765931 0.02406557
v 0.00051921 0.03548928 0.04464199
v 0.00463691 0.03450309 0.04544964
v 0.00360924 0.03513434 0.04528811
v 0.00875462 0.03347227 0.04551838
v 0.01184465 0.03317472 0.04532592
v 0.01257770 0.03304507 0.04524687
v 0.01026982 0.03397174 0.04486194
v 0.01263031 0.03821192 0.02585273
v 0.01293545 0.03827143 0.02505538
v 0.02758942 0.02652860 0.01168604
v 0.03003409 0.02389097 0.01194380
v 0.03111086 0.02293455 0.01271709
v 0.02778233 0.02675601 0.01231498
v 0.03068997 0.02344889 0.01271709
v 0.02824180 0.02442233 0.01045565
v 0.02747368 0.02532137 0.01045565
v 0.02723517 0.02618428 0.01091275
v 0.02684936 0.02685803 0.01110521
v 0.03379053 0.01868800 0.01278239
v 0.03379053 0.01868587 0.01278239
v 0.03167556 0.02209076 0.01266898
v 0.03168257 0.02211627 0.01278239
v 0.03188600 0.02259873 0.01551812
v 0.03310308 0.01981233 0.01278239
v 0.02729129 0.01868587 0.04556650
v -0.00000690 0.03244358 0.04555962
v -0.00000690 0.03548928 0.04464199
v 0.01756173 0.03606951 0.02237464
v 0.01755822 0.03503657 0.01618487
v 0.01768449 0.03612265 0.02302077
v 0.01839298 0.03597599 0.02405182
v 0.01845963 0.03497493 0.01862847
v 0.01857186 0.03503232 0.01931584
v 0.01896469 0.03527461 0.02198627
v 0.01905589 0.03355304 0.01271709
v 0.02221256 0.03218003 0.01584119
v 0.02269307 0.03194836 0.01620549
v 0.02259487 0.03188460 0.01551812
v 0.02211435 0.03168269 0.01278239
v 0.02208629 0.03167631 0.01266898
v 0.02289300 0.03115134 0.01278239
v 0.02293158 0.03110883 0.01271709
v 0.02388910 0.03003763 0.01194380
v 0.02344717 0.03069013 0.01271709
v 0.02675115 0.02778896 0.01231498
v 0.02232480 0.03001000 0.01045565
v 0.02651966 0.02759342 0.01168604
v 0.02468879 0.02881553 0.01119801
v 0.02577609 0.02783784 0.01114645
v 0.02315605 0.02932137 0.01045565
v 0.02288949 0.02954879 0.01045565
v 0.01331776 0.03807801 0.02538532
v 0.01440506 0.03767419 0.02506913
v 0.01700054 0.03659449 0.02508288
v 0.01552392 0.03710458 0.02566370
v 0.01771605 0.03613328 0.02580118
v 0.01841052 0.03598450 0.02508288
v 0.00051921 0.03523423 0.04535341
v 0.00155039 0.03520448 0.04533967
v 0.00257806 0.03517047 0.04531561
v -0.00000690 0.03536176 0.04500285
v 0.00772694 0.03347227 0.04555962
v 0.00360924 0.03450309 0.04548745
v 0.01184465 0.03244358 0.04552869
v 0.01493818 0.03141276 0.04545652
v 0.01390350 0.03222679 0.04534998
v 0.01440506 0.03213752 0.04530530
v 0.01493818 0.03203763 0.04525374
v 0.01547482 0.03193348 0.04516439
v 0.02707383 0.02708120 0.01168604
v 0.02905552 0.02498130 0.01188537
v 0.03189302 0.02365293 0.01957017
v 0.03284352 0.02352116 0.02405182
v 0.02776128 0.02776983 0.01652168
v 0.02809098 0.02650947 0.01278239
v 0.03121258 0.02529799 0.02311700
v 0.03159489 0.02433731 0.02095866
v 0.03182638 0.02396111 0.02052218
v 0.02734040 0.02547652 0.01045565
v 0.02657227 0.02632243 0.01045565
v 0.02631623 0.02657748 0.01045565
v 0.02547094 0.02734475 0.01045565
v 0.02617593 0.02723848 0.01091275
v 0.03495849 0.01905569 0.02052218
v 0.03498655 0.01868800 0.01942926
v 0.03517595 0.01868587 0.02052218
v 0.03307501 0.02286016 0.02302077
v 0.03427455 0.02119809 0.02402089
v 0.00155039 0.03244358 0.04556650
v 0.02831896 0.01868587 0.04556650
v -0.00000690 0.03294943 0.04556306
v 0.01905238 0.03558917 0.02405182
v 0.02029400 0.03483040 0.02405182
v 0.02169346 0.03402700 0.02434739
v 0.02300874 0.03316834 0.02405182
v 0.02352082 0.03284528 0.02405182
v 0.02373477 0.03196537 0.02025754
v 0.02297717 0.03108970 0.01278239
v 0.02497640 0.02905995 0.01188537
v 0.02410656 0.03014390 0.01278239
v 0.02784546 0.02887291 0.02234027
v 0.02474842 0.03194836 0.02445737
v 0.01968021 0.03508333 0.02573244
v 0.01905238 0.03560405 0.02508288
v 0.00051921 0.03450309 0.04555962
v 0.00155039 0.03450309 0.04554244
v -0.00000690 0.03523423 0.04535341
v 0.00257806 0.03450309 0.04551838
v 0.00669927 0.03347227 0.04556650
v 0.01081347 0.03244358 0.04556650
v 0.01390350 0.03141489 0.04555619
v 0.01440506 0.03141489 0.04551151
v 0.01596936 0.03038194 0.04555962
v 0.01802471 0.02935325 0.04552869
v 0.01707420 0.03046058 0.04539466
v 0.01678659 0.03107057 0.04528468
v 0.01588168 0.03141276 0.04531904
v 0.01871567 0.02997174 0.04524687
v 0.02064474 0.02886866 0.04518844
v 0.03198772 0.02376770 0.02052218
v 0.03222973 0.02406101 0.02302077
v 0.03226129 0.02427567 0.02408963
v 0.03194212 0.02474964 0.02445737
v 0.03285054 0.02353391 0.02508288
v 0.03402201 0.02169544 0.02434739
v 0.03316270 0.02301106 0.02405182
v 0.02804188 0.02904507 0.02405182
v 0.02783494 0.02784209 0.01720905
v 0.02903798 0.02805463 0.02405182
v 0.02862761 0.02756792 0.01992760
v 0.02992185 0.02684528 0.02327509
v 0.03558983 0.01905569 0.02405182
v 0.03580378 0.01868587 0.02405182
v -0.00000690 0.03347227 0.04556650
v 0.02831896 0.01905569 0.04556650
v 0.02936417 0.01868587 0.04542902
v 0.02169346 0.03402700 0.02482855
v 0.02353836 0.03285591 0.02508288
v 0.02427842 0.03226292 0.02408963
v 0.02445379 0.03170182 0.02198627
v 0.02474842 0.03194836 0.02469451
v 0.02805591 0.02905144 0.02508288
v 0.02161279 0.03397174 0.02551592
v 0.01979244 0.03515559 0.02508288
v -0.00000690 0.03450309 0.04555962
v 0.01287583 0.03141489 0.04556650
v 0.01905238 0.02832456 0.04556650
v 0.01802471 0.03017365 0.04532935
v 0.02111824 0.02730012 0.04552182
v 0.02008707 0.02832456 0.04548401
v 0.02008707 0.02902169 0.04528124
v 0.02103757 0.02827992 0.04530873
v 0.02174958 0.02791436 0.04523656
v 0.02576557 0.03091117 0.02561902
v 0.02468178 0.03188885 0.02538188
v 0.02285441 0.03307908 0.02585273
v 0.03194212 0.02474964 0.02469451
v 0.02904851 0.02806101 0.02508288
v 0.03307852 0.02286016 0.02585273
v 0.03397291 0.02161255 0.02551592
v 0.03317673 0.02302169 0.02508288
v 0.03402201 0.02169544 0.02482855
v 0.03226831 0.02428417 0.02505538
v 0.03189302 0.02468375 0.02538188
v 0.02886612 0.02064549 0.04518844
v 0.03582483 0.01868587 0.02508288
v 0.02857150 0.02857323 0.02508288
v 0.02856097 0.02856260 0.02405182
v 0.02831896 0.02008651 0.04548401
v 0.02729129 0.02111733 0.04552182
v 0.02626011 0.02214602 0.04554244
v 0.02523244 0.02318109 0.04555619
v 0.02420477 0.02420766 0.04556650
v 0.02997797 0.01868587 0.04525374
v 0.02937469 0.01905782 0.04537403
v 0.02428193 0.03226930 0.02505538
v 0.02794016 0.02895368 0.02580805
v 0.02317359 0.02523848 0.04555619
v 0.02214942 0.02626930 0.04554244
v 0.01905939 0.02937450 0.04537403
v 0.02318060 0.02628418 0.04538434
v 0.02211435 0.02728524 0.04535685
v 0.02284038 0.02693029 0.04527093
v 0.02456954 0.02561042 0.04463855
v 0.03052162 0.02634156 0.02508288
v 0.02895030 0.02794624 0.02580805
v 0.02992887 0.02685803 0.02571526
v 0.03090743 0.02576770 0.02561902
v 0.03507775 0.01967843 0.02573244
v 0.03515491 0.01979533 0.02508288
v 0.02790859 0.02175282 0.04523656
v 0.02828038 0.02104294 0.04530873
v 0.02901694 0.02008651 0.04528124
v 0.02997095 0.01871563 0.04524687
v 0.02727726 0.02211627 0.04535685
v 0.02627064 0.02318322 0.04538434
v 0.02526401 0.02424167 0.04539466
v 0.02424335 0.02527674 0.04539466
v 0.02509565 0.02509608 0.04463855
v 0.02391716 0.02594624 0.04528468
v 0.02495185 0.02495580 0.04529155
v 0.02560773 0.02456898 0.04463855
v 0.02692301 0.02283678 0.04527093
v 0.02593743 0.02392073 0.04528468
f 1 2 6
f 1 6 3
f 1 3 8
f 1 8 24
f 1 24 48
f 1 48 71
f 1 71 111
f 1 111 119
f 1 119 169
f 1 169 223
f 1 223 228
f 1 228 227
f 1 227 259
f 1 259 258
f 1 258 257
f 1 257 256
f 1 256 193
f 1 193 192
f 1 192 140
f 1 140 96
f 1 96 62
f 1 62 34
f 1 34 15
f 1 15 4
f 1 4 2
f 2 5 17
f 2 17 36
f 2 36 65
f 2 65 104
f 2 104 106
f 2 106 154
f 2 154 153
f 2 153 152
f 2 152 151
f 2 151 150
f 2 150 149
f 2 149 148
f 2 148 203
f 2 203 268
f 2 268 311
f 2 311 322
f 2 322 284
f 2 284 238
f 2 238 204
f 2 204 155
f 2 155 107
f 2 107 68
f 2 68 44
f 2 44 19
f 2 19 6
f 2 4 5
f 3 7 8
f 3 6 9
f 3 9 10
f 3 10 11
f 3 11 12
f 3 12 13
f 3 13 14
f 3 14 7
f 4 15 35
f 4 35 63
f 4 63 98
f 4 98 144
f 4 144 145
f 4 145 197
f 4 197 263
f 4 263 310
f 4 310 343
f 4 343 351
f 4 351 313
f 4 313 267
f 4 267 202
f 4 202 147
f 4 147 105
f 4 105 67
f 4 67 66
f 4 66 43
f 4 43 42
f 4 42 41
f 4 41 40
f 4 40 39
f 4 39 38
f 4 38 37
f 4 37 18
f 4 18 16
f 4 16 5
f 5 16 18
f 5 18 17
f 6 19 26
f 6 26 9
f 7 20 21
f 7 21 22
f 7 22 23
f 7 23 24
f 7 24 8
f 7 14 25
f 7 25 20
f 9 26 27
f 9 27 10
f 10 27 11
f 11 28 29
f 11 29 12
f 11 27 28
f 12 29 13
f 13 29 30
f 13 30 14
f 14 30 31
f 14 31 32
f 14 32 33
f 14 33 25
f 15 34 35
f 17 18 37
f 17 37 38
f 17 38 39
f 17 39 40
f 17 40 41
f 17 41 42
f 17 42 43
f 17 43 36
f 19 44 53
f 19 53 26
f 20 45 46
f 20 46 21
f 20 25 45
f 21 46 22
f 22 47 48
f 22 48 24
f 22 24 23
f 22 46 47
f 25 33 49
f 25 49 50
f 25 50 51
f 25 51 52
f 25 52 45
f 26 53 27
f 27 53 54
f 27 54 55
f 27 55 28
f 28 56 57
f 28 57 58
f 28 58 30
f 28 30 29
f 28 55 54
f 28 54 56
f 30 58 59
f 30 59 31
f 31 59 32
f 32 59 49
f 32 49 33
f 34 60 61
f 34 61 35
f 34 62 60
f 35 61 64
f 35 64 63
f 36 43 66
f 36 66 67
f 36 67 65
f 44 68 85
f 44 85 53
f 45 69 46
f 45 52 69
f 46 69 70
f 46 70 47
f 47 71 48
f 47 70 72
f 47 72 73
f 47 73 74
f 47 74 75
f 47 75 76
f 47 76 77
f 47 77 78
f 47 78 71
f 49 79 50
f 49 59 80
f 49 80 79
f 50 79 81
f 50 81 82
f 50 82 52
f 50 52 83
f 50 83 51
f 51 83 52
f 52 82 84
f 52 84 69
f 53 85 54
f 54 85 86
f 54 86 87
f 54 87 56
f 56 88 89
f 56 89 57
f 56 87 90
f 56 90 91
f 56 91 88
f 57 89 92
f 57 92 58
f 58 92 93
f 58 93 59
f 59 93 94
f 59 94 80
f 60 64 61
f 60 62 95
f 60 95 64
f 62 96 97
f 62 97 95
f 63 64 99
f 63 99 98
f 64 100 101
f 64 101 99
f 64 95 102
f 64 102 103
f 64 103 100
f 65 67 104
f 67 105 106
f 67 106 104
f 68 107 86
f 68 86 85
f 69 108 109
f 69 109 73
f 69 73 72
f 69 72 70
f 69 84 110
f 69 110 108
f 71 78 111
f 73 109 112
f 73 112 113
f 73 113 75
f 73 75 74
f 75 113 114
f 75 114 76
f 76 114 115
f 76 115 116
f 76 116 117
f 76 117 77
f 77 117 118
f 77 118 119
f 77 119 111
f 77 111 78
f 79 120 121
f 79 121 122
f 79 122 123
f 79 123 81
f 79 80 94
f 79 94 120
f 81 124 82
f 81 123 122
f 81 122 121
f 81 121 124
f 82 124 84
f 84 125 110
f 84 124 125
f 86 126 127
f 86 127 91
f 86 91 128
f 86 128 90
f 86 90 87
f 86 107 155
f 86 155 126
f 88 91 127
f 88 127 129
f 88 129 130
f 88 130 131
f 88 131 132
f 88 132 133
f 88 133 89
f 89 134 93
f 89 93 92
f 89 133 134
f 90 128 91
f 93 134 135
f 93 135 136
f 93 136 94
f 94 136 120
f 95 97 137
f 95 137 138
f 95 138 139
f 95 139 102
f 96 140 97
f 97 140 141
f 97 141 142
f 97 142 143
f 97 143 137
f 98 99 101
f 98 101 144
f 100 103 102
f 100 102 139
f 100 139 101
f 101 145 144
f 101 139 146
f 101 146 145
f 105 147 148
f 105 148 149
f 105 149 150
f 105 150 151
f 105 151 152
f 105 152 153
f 105 153 154
f 105 154 106
f 108 156 157
f 108 157 158
f 108 158 159
f 108 159 160
f 108 160 109
f 108 110 156
f 109 160 159
f 109 159 161
f 109 161 112
f 110 125 162
f 110 162 156
f 112 161 163
f 112 163 164
f 112 164 165
f 112 165 113
f 113 165 166
f 113 166 167
f 113 167 168
f 113 168 114
f 114 168 115
f 115 167 116
f 115 168 167
f 116 169 117
f 116 167 170
f 116 170 171
f 116 171 172
f 116 172 169
f 117 169 119
f 117 119 118
f 120 136 121
f 121 173 174
f 121 174 175
f 121 175 176
f 121 176 177
f 121 177 162
f 121 162 124
f 121 136 173
f 124 162 125
f 126 155 204
f 126 204 178
f 126 178 129
f 126 129 127
f 129 179 130
f 129 178 180
f 129 180 179
f 130 179 181
f 130 181 131
f 131 181 182
f 131 182 132
f 132 182 183
f 132 183 184
f 132 184 185
f 132 185 133
f 133 185 136
f 133 136 135
f 133 135 134
f 136 185 186
f 136 186 173
f 137 143 187
f 137 187 138
f 138 187 188
f 138 188 139
f 139 189 146
f 139 188 190
f 139 190 191
f 139 191 189
f 140 192 141
f 141 192 193
f 141 193 194
f 141 194 142
f 142 194 195
f 142 195 187
f 142 187 143
f 145 196 197
f 145 146 196
f 146 189 198
f 146 198 199
f 146 199 200
f 146 200 201
f 146 201 196
f 147 202 203
f 147 203 148
f 156 176 157
f 156 162 177
f 156 177 176
f 157 176 205
f 157 205 159
f 157 159 158
f 159 206 161
f 159 205 207
f 159 207 208
f 159 208 206
f 161 206 163
f 163 206 208
f 163 208 209
f 163 209 210
f 163 210 164
f 164 210 211
f 164 211 212
f 164 212 166
f 164 166 165
f 166 213 214
f 166 214 215
f 166 215 216
f 166 216 217
f 166 217 218
f 166 218 219
f 166 219 167
f 166 212 213
f 167 220 170
f 167 219 221
f 167 221 222
f 167 222 220
f 169 172 223
f 170 220 224
f 170 224 225
f 170 225 171
f 171 225 172
f 172 225 226
f 172 226 227
f 172 227 228
f 172 228 223
f 173 186 229
f 173 229 230
f 173 230 231
f 173 231 174
f 174 231 232
f 174 232 233
f 174 233 234
f 174 234 208
f 174 208 175
f 175 207 176
f 175 208 207
f 176 207 205
f 178 235 236
f 178 236 237
f 178 237 180
f 178 204 238
f 178 238 235
f 179 239 181
f 179 180 237
f 179 237 240
f 179 240 239
f 181 241 182
f 181 239 241
f 182 241 242
f 182 242 243
f 182 243 244
f 182 244 245
f 182 245 183
f 183 245 246
f 183 246 229
f 183 229 185
f 183 185 184
f 185 229 186
f 187 195 247
f 187 247 190
f 187 190 248
f 187 248 188
f 188 248 190
f 189 249 250
f 189 250 200
f 189 200 199
f 189 199 198
f 189 191 249
f 190 247 222
f 190 222 251
f 190 251 252
f 190 252 191
f 191 252 253
f 191 253 254
f 191 254 255
f 191 255 249
f 193 256 194
f 194 256 257
f 194 257 195
f 195 257 258
f 195 258 259
f 195 259 260
f 195 260 226
f 195 226 224
f 195 224 247
f 196 201 261
f 196 261 262
f 196 262 197
f 197 262 263
f 200 250 264
f 200 264 265
f 200 265 201
f 201 265 261
f 202 266 203
f 202 267 312
f 202 312 350
f 202 350 324
f 202 324 323
f 202 323 287
f 202 287 286
f 202 286 311
f 202 311 266
f 203 266 268
f 208 234 269
f 208 269 210
f 208 210 209
f 210 269 211
f 211 269 270
f 211 270 271
f 211 271 272
f 211 272 212
f 212 272 213
f 213 272 214
f 214 272 273
f 214 273 218
f 214 218 215
f 215 218 216
f 216 218 217
f 218 273 274
f 218 274 275
f 218 275 219
f 219 275 221
f 220 276 224
f 220 222 276
f 221 275 274
f 221 274 277
f 221 277 222
f 222 278 251
f 222 247 224
f 222 224 276
f 222 277 279
f 222 279 278
f 224 226 225
f 226 260 259
f 226 259 227
f 229 246 232
f 229 232 231
f 229 231 230
f 232 246 233
f 233 246 234
f 234 280 281
f 234 281 269
f 234 246 280
f 235 282 283
f 235 283 236
f 235 238 284
f 235 284 322
f 235 322 282
f 236 283 285
f 236 285 240
f 236 240 237
f 239 240 285
f 239 285 283
f 239 283 282
f 239 282 286
f 239 286 287
f 239 287 241
f 241 287 288
f 241 288 289
f 241 289 242
f 242 290 291
f 242 291 292
f 242 292 293
f 242 293 294
f 242 294 244
f 242 244 243
f 242 289 290
f 244 294 245
f 245 294 293
f 245 293 246
f 246 293 295
f 246 295 296
f 246 296 280
f 249 297 250
f 249 255 297
f 250 297 298
f 250 298 299
f 250 299 300
f 250 300 301
f 250 301 302
f 250 302 303
f 250 303 264
f 251 278 304
f 251 304 305
f 251 305 306
f 251 306 307
f 251 307 252
f 252 307 308
f 252 308 253
f 253 300 255
f 253 255 254
f 253 308 300
f 255 300 297
f 261 265 309
f 261 309 262
f 262 309 310
f 262 310 263
f 264 303 265
f 265 302 309
f 265 303 302
f 266 311 268
f 267 313 312
f 269 281 271
f 269 271 270
f 271 281 314
f 271 314 315
f 271 315 273
f 271 273 272
f 273 315 279
f 273 279 316
f 273 316 274
f 274 316 279
f 274 279 317
f 274 317 277
f 277 317 279
f 278 279 304
f 279 315 318
f 279 318 319
f 279 319 304
f 280 296 320
f 280 320 281
f 281 320 321
f 281 321 314
f 282 322 311
f 282 311 286
f 287 323 290
f 287 290 288
f 288 290 289
f 290 323 324
f 290 324 291
f 291 325 292
f 291 324 326
f 291 326 327
f 291 327 325
f 292 325 293
f 293 325 328
f 293 328 295
f 295 328 296
f 296 328 329
f 296 329 330
f 296 330 331
f 296 331 332
f 296 332 315
f 296 315 333
f 296 333 320
f 297 300 299
f 297 299 298
f 300 334 301
f 300 308 306
f 300 306 335
f 300 335 334
f 301 336 337
f 301 337 338
f 301 338 339
f 301 339 302
f 301 334 340
f 301 340 341
f 301 341 342
f 301 342 336
f 302 339 343
f 302 343 309
f 304 319 344
f 304 344 345
f 304 345 305
f 305 345 306
f 306 308 307
f 306 345 344
f 306 344 335
f 309 343 310
f 312 313 346
f 312 346 347
f 312 347 348
f 312 348 349
f 312 349 350
f 313 351 352
f 313 352 346
f 314 321 315
f 315 332 353
f 315 353 318
f 315 321 320
f 315 320 333
f 318 353 332
f 318 332 319
f 319 354 344
f 319 332 331
f 319 331 354
f 324 350 355
f 324 355 356
f 324 356 326
f 325 327 357
f 325 357 328
f 326 356 358
f 326 358 327
f 327 358 359
f 327 359 329
f 327 329 328
f 327 328 357
f 329 359 330
f 330 359 360
f 330 360 361
f 330 361 354
f 330 354 331
f 334 341 340
f 334 335 362
f 334 362 341
f 335 344 363
f 335 363 364
f 335 364 365
f 335 365 341
f 335 341 362
f 336 342 337
f 337 366 343
f 337 343 367
f 337 367 338
f 337 342 366
f 338 367 339
f 339 367 343
f 341 365 342
f 342 368 369
f 342 369 370
f 342 370 351
f 342 351 371
f 342 371 366
f 342 365 368
f 343 366 371
f 343 371 351
f 344 354 363
f 346 369 372
f 346 372 373
f 346 373 347
f 346 352 370
f 346 370 369
f 347 373 348
f 348 373 374
f 348 374 349
f 349 374 350
f 350 374 375
f 350 375 355
f 351 370 352
f 354 361 376
f 354 376 363
f 355 375 356
f 356 375 358
f 358 375 377
f 358 377 360
f 358 360 359
f 360 377 361
f 361 377 378
f 361 378 376
f 363 368 364
f 363 376 379
f 363 379 368
f 364 368 365
f 368 380 372
f 368 372 369
f 368 379 380
f 372 380 373
f 373 381 374
f 373 380 381
f 374 378 375
f 374 381 378
f 375 378 377
f 376 378 379
f 378 381 379
f 379 381 380

