# https://github.com/mikedh/trimesh
v -0.01817830 0.01348044 0.00416947
v -0.01818284 0.01348044 0.00417351
v -0.01817830 0.01392426 0.00469581
v -0.01817830 0.01348044 0.01382579
v -0.01818891 0.01393479 0.00472415
v -0.01869522 0.01348044 0.00494278
v -0.01874069 0.01354710 0.00508854
v -0.01817830 0.01487154 0.00591853
v -0.01817830 0.02788966 0.04448310
v -0.03033577 0.01348044 0.04414301
v -0.01974270 0.01455578 0.00791053
v -0.01868915 0.01444000 0.00613717
v -0.01875888 0.01348044 0.00504805
v -0.02057493 0.01438211 0.00908468
v -0.02158300 0.01541360 0.01189453
v -0.02259107 0.01643456 0.01470437
v -0.01817830 0.01541535 0.00662707
v -0.01968813 0.01544342 0.00896726
v -0.02269566 0.01750990 0.01624696
v -0.02078715 0.01752920 0.01336018
v -0.01817830 0.02834576 0.04509852
v -0.03078296 0.01348044 0.04504183
v -0.03041157 0.01348044 0.04432115
v -0.02153752 0.01631702 0.01293101
v -0.02174671 0.01656437 0.01357072
v -0.01965326 0.01348044 0.00656634
v -0.02077351 0.01374007 0.00874863
v -0.02442681 0.01727308 0.01870051
v -0.02359004 0.01743973 0.01753447
v -0.01817830 0.01598372 0.00736800
v -0.01870886 0.01734851 0.00995516
v -0.02353395 0.01832737 0.01859120
v -0.02371131 0.01853612 0.01913373
v -0.02037634 0.01800985 0.01336018
v -0.01817830 0.02835804 0.04510661
v -0.03115587 0.01348044 0.04526452
v -0.02061434 0.01348044 0.00820609
v -0.02174216 0.01348044 0.01013331
v -0.02261835 0.01361201 0.01176901
v -0.02173459 0.01388742 0.01054628
v -0.02547127 0.01451894 0.01759925
v -0.02494070 0.01684329 0.01912968
v -0.02461479 0.01754849 0.01934427
v -0.02383865 0.01494697 0.01525501
v -0.02422671 0.01784145 0.01906895
v -0.01817830 0.01602407 0.00742063
v -0.01964265 0.01923957 0.01384603
v -0.01817830 0.01686785 0.00852190
v -0.02134348 0.01976583 0.01712554
v -0.02438588 0.01819054 0.01978558
v -0.02347029 0.01921501 0.01967222
v -0.02255468 0.02023070 0.01957910
v -0.02330050 0.01901678 0.01913373
v -0.01817830 0.02934216 0.04551554
v -0.03166976 0.01348044 0.04549530
v -0.02414183 0.01348044 0.01423876
v -0.02563650 0.01391549 0.01725105
v -0.02629743 0.01430142 0.01878959
v -0.02545156 0.01641351 0.01955480
v -0.01877101 0.01932377 0.01275691
v -0.01864064 0.01823615 0.01101594
v -0.02199077 0.02061663 0.01922281
v -0.02064162 0.02024123 0.01668018
v -0.02054006 0.02110606 0.01777739
v -0.01817830 0.01690118 0.00856643
v -0.02526056 0.01706257 0.02009734
v -0.02474818 0.01784145 0.02010139
v -0.02451019 0.01834666 0.02042934
v -0.02399175 0.01878171 0.02004876
v -0.02319894 0.01970093 0.02003256
v -0.02224999 0.02083767 0.02009734
v -0.02163908 0.02124114 0.01951027
v -0.01817830 0.02936672 0.04551959
v -0.03166976 0.01395057 0.04552364
v -0.03213969 0.01348044 0.04551959
v -0.02542882 0.01348044 0.01645344
v -0.02547884 0.01357166 0.01662349
v -0.02612613 0.01396811 0.01814988
v -0.02648540 0.01365937 0.01845354
v -0.02648540 0.01460665 0.01943334
v -0.02628833 0.01524870 0.01986251
v -0.01817830 0.01965883 0.01248565
v -0.01853150 0.01910449 0.01211721
v -0.01817830 0.01872733 0.01109692
v -0.01817830 0.01829579 0.01047745
v -0.01817830 0.01776777 0.00974058
v -0.01817830 0.01765199 0.00958268
v -0.02077502 0.02132008 0.01842115
v -0.02065678 0.02217088 0.01955076
v -0.02015502 0.02167268 0.01813369
v -0.02640202 0.01543289 0.02050627
v -0.02536970 0.01723975 0.02074110
v -0.02513171 0.01774847 0.02106095
v -0.02535606 0.01818703 0.02269665
v -0.02545459 0.01833088 0.02334041
v -0.02461479 0.01847297 0.02105690
v -0.02420853 0.01895363 0.02105690
v -0.02372799 0.01951673 0.02105690
v -0.02331718 0.01999739 0.02105690
v -0.02242432 0.02104116 0.02105690
v -0.02359762 0.01936412 0.02031193
v -0.02176945 0.02137972 0.02009734
v -0.02103576 0.02160076 0.01921066
v -0.02127375 0.02186038 0.02009734
v -0.01817830 0.03030523 0.04549935
v -0.01916363 0.02934216 0.04552364
v -0.03166976 0.01491364 0.04552364
v -0.03263235 0.01348044 0.04549125
v -0.02639445 0.01348044 0.01812559
v -0.02667640 0.01396811 0.01912159
v -0.02652481 0.01348044 0.01837256
v -0.02726912 0.01348044 0.01979368
v -0.02712814 0.01393479 0.02006900
v -0.02658848 0.01492241 0.02014997
v -0.01817830 0.02023246 0.01336018
v -0.01976999 0.02223578 0.01848998
v -0.01963962 0.02308483 0.01962363
v -0.01840871 0.02381810 0.01913373
v -0.02010500 0.02240770 0.01919041
v -0.02079322 0.02228841 0.02009734
v -0.02726002 0.01428212 0.02105690
v -0.02688559 0.01491364 0.02105690
v -0.02648540 0.01556797 0.02105690
v -0.02711753 0.01680996 0.02581826
v -0.02566378 0.01783969 0.02300436
v -0.02829538 0.02019387 0.03695238
v -0.02636110 0.01921676 0.02832445
v -0.02540608 0.01922729 0.02542148
v -0.02478305 0.01977110 0.02493562
v -0.02328383 0.02188319 0.02586684
v -0.02186950 0.02167794 0.02115407
v -0.02255468 0.02215334 0.02435665
v -0.02144808 0.02201826 0.02089495
v -0.01817830 0.03032979 0.04549530
v -0.01820255 0.03030523 0.04549935
v -0.02108881 0.02838084 0.04550744
v -0.02204989 0.02741952 0.04551554
v -0.02397508 0.02549514 0.04552364
v -0.03070717 0.01683803 0.04552364
v -0.03166976 0.01587496 0.04550339
v -0.03263235 0.01395057 0.04546291
v -0.03309470 0.01348044 0.04526857
v -0.02734946 0.01348044 0.02002851
v -0.02740555 0.01360324 0.02037266
v -0.01817830 0.02212527 0.01624696
v -0.01862397 0.02400054 0.01973700
v -0.01817830 0.02400931 0.01913373
v -0.01817830 0.02356373 0.01844544
v -0.01817830 0.02313219 0.01778549
v -0.01877253 0.02412860 0.02038075
v -0.02750408 0.01380146 0.02105690
v -0.02825596 0.01432949 0.02458338
v -0.02733430 0.01442071 0.02156300
v -0.02804071 0.01486452 0.02490323
v -0.02824839 0.01530484 0.02653489
v -0.02843181 0.01560481 0.02779001
v -0.02841816 0.01654507 0.02971318
v -0.03016902 0.01722396 0.03712648
v -0.02720697 0.01806248 0.02874957
v -0.02851821 0.01959392 0.03644629
v -0.02728882 0.01915887 0.03133269
v -0.02912609 0.01997809 0.03933306
v -0.02838936 0.02032894 0.03759209
v -0.02835601 0.02123061 0.03964887
v -0.02551068 0.01935184 0.02606523
v -0.02544701 0.02023947 0.02818274
v -0.02784667 0.02167794 0.03925614
v -0.02436315 0.02202002 0.02951479
v -0.02375679 0.02243577 0.02874957
v -0.02157087 0.02213053 0.02153870
v -0.02444500 0.02403913 0.03503731
v -0.02111155 0.02239542 0.02115407
v -0.01995341 0.02335323 0.02105690
v -0.01817830 0.03119988 0.04499325
v -0.02012622 0.02934216 0.04542242
v -0.02207718 0.02841768 0.04514305
v -0.02493616 0.02549514 0.04538193
v -0.02589875 0.02357075 0.04552364
v -0.02878349 0.01972373 0.04552364
v -0.02974609 0.01876242 0.04551554
v -0.02878349 0.02068505 0.04549935
v -0.03070717 0.01779935 0.04545076
v -0.03174101 0.01689241 0.04514710
v -0.03246257 0.01587496 0.04505398
v -0.03334179 0.01395057 0.04500944
v -0.03347519 0.01348044 0.04502564
v -0.02743738 0.01348044 0.02030788
v -0.02764657 0.01348044 0.02105690
v -0.02830751 0.01348044 0.02344972
v -0.01817830 0.02451804 0.02016617
v -0.01817830 0.02451102 0.02014997
v -0.01939101 0.02383389 0.02105690
v -0.01890896 0.02424437 0.02105690
v -0.01863913 0.02497940 0.02260758
v -0.01831170 0.02472503 0.02105690
v -0.02837420 0.01364183 0.02394368
v -0.02848941 0.01398566 0.02490323
v -0.02924736 0.01439264 0.02833255
v -0.03018570 0.01530308 0.03321942
v -0.02834692 0.01451017 0.02522309
v -0.02926403 0.01539255 0.03019498
v -0.03036457 0.01658016 0.03644629
v -0.03097245 0.01696434 0.03933306
v -0.03015993 0.01817124 0.03908204
v -0.03025240 0.01832386 0.03972579
v -0.02921856 0.02013071 0.04000921
v -0.02850457 0.02049033 0.03837350
v -0.02860765 0.02074294 0.03933306
v -0.02896692 0.02062014 0.04031692
v -0.02924736 0.02114115 0.04277047
v -0.02844545 0.02133762 0.04029667
v -0.02803768 0.02181828 0.04029667
v -0.02625347 0.02390581 0.04029667
v -0.02533180 0.02492151 0.04011043
v -0.02563044 0.02430051 0.03933306
v -0.02550765 0.02415666 0.03857999
v -0.02540305 0.02403387 0.03794028
v -0.02566378 0.02241822 0.03452312
v -0.02053551 0.02591440 0.03038122
v -0.02010045 0.02451102 0.02496801
v -0.02446016 0.02501799 0.03787955
v -0.02300945 0.02453031 0.03260805
v -0.02243948 0.02493554 0.03235703
v -0.02520144 0.02478292 0.03933306
v -0.01817830 0.03122444 0.04497705
v -0.02012622 0.03006314 0.04497301
v -0.01919849 0.03036312 0.04513900
v -0.02105243 0.02934917 0.04507422
v -0.02177400 0.02903341 0.04490013
v -0.02493616 0.02624419 0.04493252
v -0.02589875 0.02453207 0.04534144
v -0.02782090 0.02164812 0.04551554
v -0.02583053 0.02541444 0.04491227
v -0.02880927 0.02165864 0.04513496
v -0.02974609 0.01972373 0.04531715
v -0.03073597 0.01874663 0.04510257
v -0.03145905 0.01779935 0.04500135
v -0.03229128 0.01660823 0.04490013
v -0.03319930 0.01463998 0.04484749
v -0.03359494 0.01348044 0.04461266
v -0.02909425 0.01348044 0.02636079
v -0.01817830 0.02482678 0.02105690
v -0.01965326 0.02502150 0.02536075
v -0.01938192 0.02478818 0.02394368
v -0.01911815 0.02468644 0.02294768
v -0.01876646 0.02508290 0.02324729
v -0.01963962 0.02693360 0.03116669
v -0.01874979 0.02602491 0.02617860
v -0.01861033 0.02592668 0.02553889
v -0.02937469 0.01373480 0.02779001
v -0.02876530 0.01395057 0.02586684
v -0.03110585 0.01519432 0.03644629
v -0.03117709 0.01536448 0.03697263
v -0.03157274 0.01587496 0.03933306
v -0.03027514 0.01548026 0.03386317
v -0.03119377 0.01636439 0.03883506
v -0.03126653 0.01648368 0.03933306
v -0.03139235 0.01669243 0.04029667
v -0.03109978 0.01717309 0.04029667
v -0.03116800 0.01728360 0.04086755
v -0.02929435 0.02025526 0.04064891
v -0.02991890 0.02059909 0.04421588
v -0.02932315 0.02124640 0.04341018
v -0.02902452 0.02184108 0.04414301
v -0.02936712 0.02037104 0.04126028
v -0.02947929 0.02055524 0.04221984
v -0.02857127 0.02148673 0.04126028
v -0.02825293 0.02207089 0.04192833
v -0.02816501 0.02196739 0.04126028
v -0.02542427 0.02501974 0.04075418
v -0.02570623 0.02457242 0.04037765
v -0.02498163 0.02532673 0.04037765
v -0.02472090 0.02525656 0.03933306
v -0.01964720 0.02597755 0.02826372
v -0.02284574 0.02624419 0.03740990
v -0.02165576 0.02797386 0.03958814
v -0.02076593 0.02707394 0.03452312
v -0.02039757 0.02675818 0.03259995
v -0.02417669 0.02573722 0.03933306
v -0.01817830 0.03139986 0.04426852
v -0.01890138 0.03091921 0.04488798
v -0.02070832 0.02988597 0.04479486
v -0.02180280 0.02905797 0.04414301
v -0.02546369 0.02601790 0.04474222
v -0.02640051 0.02503904 0.04468959
v -0.02850457 0.02236560 0.04490822
v -0.02939895 0.02134639 0.04488798
v -0.02972941 0.02059909 0.04498515
v -0.03127108 0.01841508 0.04483130
v -0.03231098 0.01664156 0.04414301
v -0.03267025 0.01587496 0.04414301
v -0.03366316 0.01348044 0.04415110
v -0.02930951 0.01348044 0.02715840
v -0.01817830 0.02512675 0.02202051
v -0.02010197 0.02666521 0.03154727
v -0.02064466 0.02793000 0.03683092
v -0.02061586 0.02886852 0.03979462
v -0.01817830 0.02627226 0.02579396
v -0.01817830 0.02600562 0.02490323
v -0.02988858 0.01348044 0.02930425
v -0.03180922 0.01348044 0.03642199
v -0.03192291 0.01388391 0.03746253
v -0.03030545 0.01462069 0.03259995
v -0.03212453 0.01436632 0.03895248
v -0.03199416 0.01490312 0.03929662
v -0.03209421 0.01525572 0.04029667
v -0.03181680 0.01587496 0.04029667
v -0.03215333 0.01636088 0.04268950
v -0.03147421 0.01691346 0.04121574
v -0.03000227 0.01968339 0.04217125
v -0.03203206 0.01712221 0.04414301
v -0.03125592 0.01839052 0.04414301
v -0.03023572 0.02022018 0.04458432
v -0.02940956 0.02136043 0.04414301
v -0.02640051 0.02503904 0.04454383
v -0.02854247 0.02241121 0.04414301
v -0.02549097 0.02509167 0.04126028
v -0.02546369 0.02601790 0.04446691
v -0.02536819 0.02593019 0.04382720
v -0.02434344 0.02588107 0.04029667
v -0.02369615 0.02614771 0.03933306
v -0.02386290 0.02629156 0.04029667
v -0.02177400 0.02807385 0.04029667
v -0.02118280 0.02855626 0.04029667
v -0.02107517 0.02837207 0.03937355
v -0.02075683 0.02801947 0.03740990
v -0.01817830 0.03139986 0.04421184
v -0.02070832 0.02988597 0.04436164
v -0.02228485 0.02865099 0.04414301
v -0.02105243 0.02958775 0.04408227
v -0.02165576 0.02893342 0.04318345
v -0.03023572 0.02022018 0.04466125
v -0.03299162 0.01509959 0.04414301
v -0.03246257 0.01587496 0.04318345
v -0.03265357 0.01491364 0.04221984
v -0.03312502 0.01349798 0.04168540
v -0.03300981 0.01348044 0.04112262
v -0.02147234 0.02878431 0.04203359
v -0.02157693 0.02886852 0.04267735
v -0.02006255 0.02955793 0.04126838
v -0.02012622 0.02928953 0.04029667
v -0.01817830 0.03048767 0.04031287
v -0.01881043 0.02990176 0.03954765
v -0.01817830 0.03021225 0.03927638
v -0.01914544 0.02961757 0.03926828
v -0.02013683 0.02905271 0.03941809
v -0.01817830 0.02906850 0.03536122
v -0.03217910 0.01348044 0.03779453
v -0.03236555 0.01400846 0.03929662
v -0.03220942 0.01457683 0.03959623
v -0.03282942 0.01348044 0.04029667
v -0.03214727 0.01538728 0.04079062
v -0.03207905 0.01619598 0.04204979
v -0.02589117 0.02548461 0.04418349
v -0.02284725 0.02817033 0.04414301
v -0.02437224 0.02686694 0.04414301
v -0.02464055 0.02613368 0.04221984
v -0.02443136 0.02595475 0.04085540
v -0.02240461 0.02779142 0.04126028
v -0.02192256 0.02820191 0.04126028
v -0.01817830 0.03130689 0.04381101
v -0.01891957 0.03093149 0.04414301
v -0.01921972 0.03007542 0.04126838
v -0.01957747 0.02978247 0.04095662
v -0.01817830 0.03052801 0.04048291
v -0.03245499 0.01348044 0.03881887
v -0.03259900 0.01348044 0.03935736
v -0.03273392 0.01348044 0.03990394
v -0.01817830 0.03112620 0.04303364
v -0.01817830 0.03071045 0.04126028
f 1 2 3
f 1 3 8
f 1 8 17
f 1 17 30
f 1 30 46
f 1 46 48
f 1 48 65
f 1 65 87
f 1 87 86
f 1 86 85
f 1 85 84
f 1 84 82
f 1 82 115
f 1 115 145
f 1 145 149
f 1 149 148
f 1 148 147
f 1 147 191
f 1 191 190
f 1 190 242
f 1 242 294
f 1 294 299
f 1 299 298
f 1 298 347
f 1 347 344
f 1 344 342
f 1 342 365
f 1 365 370
f 1 370 369
f 1 369 361
f 1 361 327
f 1 327 280
f 1 280 225
f 1 225 174
f 1 174 134
f 1 134 105
f 1 105 73
f 1 73 54
f 1 54 35
f 1 35 21
f 1 21 9
f 1 9 4
f 1 4 10
f 1 10 23
f 1 23 22
f 1 22 36
f 1 36 55
f 1 55 75
f 1 75 108
f 1 108 142
f 1 142 186
f 1 186 240
f 1 240 292
f 1 292 337
f 1 337 351
f 1 351 368
f 1 368 367
f 1 367 366
f 1 366 348
f 1 348 301
f 1 301 300
f 1 300 293
f 1 293 241
f 1 241 189
f 1 189 188
f 1 188 187
f 1 187 143
f 1 143 112
f 1 112 111
f 1 111 109
f 1 109 76
f 1 76 56
f 1 56 38
f 1 38 37
f 1 37 26
f 1 26 13
f 1 13 6
f 1 6 2
f 2 5 3
f 2 6 7
f 2 7 5
f 3 5 8
f 4 9 10
f 5 7 11
f 5 11 12
f 5 12 8
f 6 13 7
f 7 13 14
f 7 14 15
f 7 15 16
f 7 16 11
f 8 12 18
f 8 18 19
f 8 19 20
f 8 20 17
f 9 21 22
f 9 22 23
f 9 23 10
f 11 16 12
f 12 16 24
f 12 24 25
f 12 25 19
f 12 19 18
f 13 26 14
f 14 26 27
f 14 27 28
f 14 28 15
f 15 28 16
f 16 19 25
f 16 25 24
f 16 28 29
f 16 29 19
f 17 20 31
f 17 31 30
f 19 29 32
f 19 32 33
f 19 33 20
f 20 34 31
f 20 33 53
f 20 53 34
f 21 35 22
f 22 35 36
f 26 37 27
f 27 37 38
f 27 38 39
f 27 39 40
f 27 40 28
f 28 41 42
f 28 42 43
f 28 43 29
f 28 40 44
f 28 44 41
f 29 43 45
f 29 45 33
f 29 33 32
f 30 31 46
f 31 47 48
f 31 48 46
f 31 34 49
f 31 49 47
f 33 45 50
f 33 50 51
f 33 51 52
f 33 52 53
f 34 53 52
f 34 52 49
f 35 54 36
f 36 54 55
f 38 56 39
f 39 56 57
f 39 57 41
f 39 41 44
f 39 44 40
f 41 57 58
f 41 58 59
f 41 59 42
f 42 59 43
f 43 59 50
f 43 50 45
f 47 60 61
f 47 61 48
f 47 49 62
f 47 62 63
f 47 63 64
f 47 64 60
f 48 61 65
f 49 52 62
f 50 59 66
f 50 66 67
f 50 67 68
f 50 68 69
f 50 69 51
f 51 69 70
f 51 70 71
f 51 71 52
f 52 71 72
f 52 72 62
f 54 73 55
f 55 73 74
f 55 74 75
f 56 76 77
f 56 77 57
f 57 77 58
f 58 77 78
f 58 78 79
f 58 79 80
f 58 80 59
f 59 80 81
f 59 81 66
f 60 82 83
f 60 83 61
f 60 64 82
f 61 84 85
f 61 85 86
f 61 86 87
f 61 87 65
f 61 83 84
f 62 72 63
f 63 72 64
f 64 72 88
f 64 88 89
f 64 89 90
f 64 90 82
f 66 81 91
f 66 91 92
f 66 92 67
f 67 92 93
f 67 93 68
f 68 93 94
f 68 94 95
f 68 95 96
f 68 96 97
f 68 97 98
f 68 98 99
f 68 99 100
f 68 100 101
f 68 101 69
f 69 101 70
f 70 101 71
f 71 102 72
f 71 101 100
f 71 100 102
f 72 89 103
f 72 103 88
f 72 102 104
f 72 104 89
f 73 105 106
f 73 106 74
f 74 106 138
f 74 138 178
f 74 178 179
f 74 179 139
f 74 139 107
f 74 107 75
f 75 107 108
f 76 109 77
f 77 109 79
f 77 79 78
f 79 110 80
f 79 109 111
f 79 111 112
f 79 112 110
f 80 112 113
f 80 113 81
f 80 110 112
f 81 113 114
f 81 114 91
f 82 84 83
f 82 90 116
f 82 116 115
f 88 103 89
f 89 117 118
f 89 118 119
f 89 119 90
f 89 104 120
f 89 120 117
f 90 119 116
f 91 121 122
f 91 122 92
f 91 114 121
f 92 122 123
f 92 123 124
f 92 124 125
f 92 125 94
f 92 94 93
f 94 125 126
f 94 126 95
f 95 127 96
f 95 126 127
f 96 127 128
f 96 128 97
f 97 128 129
f 97 129 98
f 98 129 130
f 98 130 99
f 99 130 100
f 100 131 102
f 100 130 132
f 100 132 131
f 102 131 133
f 102 133 104
f 104 133 120
f 105 134 135
f 105 135 106
f 106 135 136
f 106 136 137
f 106 137 138
f 107 139 140
f 107 140 108
f 108 140 141
f 108 141 142
f 112 143 144
f 112 144 113
f 113 144 121
f 113 121 114
f 115 116 145
f 116 119 118
f 116 118 145
f 117 120 146
f 117 146 118
f 118 146 147
f 118 147 148
f 118 148 149
f 118 149 145
f 120 133 150
f 120 150 146
f 121 151 152
f 121 152 153
f 121 153 122
f 121 144 151
f 122 153 154
f 122 154 123
f 123 154 155
f 123 155 156
f 123 156 124
f 124 156 157
f 124 157 158
f 124 158 159
f 124 159 125
f 125 159 160
f 125 160 161
f 125 161 126
f 126 160 162
f 126 162 163
f 126 163 164
f 126 164 127
f 126 161 160
f 127 164 128
f 128 165 166
f 128 166 129
f 128 164 167
f 128 167 165
f 129 166 168
f 129 168 130
f 130 168 169
f 130 169 132
f 131 170 133
f 131 132 170
f 132 169 171
f 132 171 170
f 133 170 172
f 133 172 173
f 133 173 150
f 134 174 175
f 134 175 135
f 135 175 136
f 136 175 176
f 136 176 177
f 136 177 137
f 137 177 138
f 138 177 178
f 139 179 180
f 139 180 140
f 140 180 181
f 140 181 182
f 140 182 183
f 140 183 184
f 140 184 141
f 141 184 185
f 141 185 186
f 141 186 142
f 143 187 144
f 144 188 189
f 144 189 152
f 144 152 151
f 144 187 188
f 146 190 191
f 146 191 147
f 146 150 190
f 150 173 192
f 150 192 193
f 150 193 194
f 150 194 195
f 150 195 190
f 152 189 196
f 152 196 197
f 152 197 198
f 152 198 199
f 152 199 200
f 152 200 153
f 153 200 154
f 154 200 201
f 154 201 156
f 154 156 155
f 156 201 202
f 156 202 157
f 157 202 158
f 158 160 159
f 158 202 203
f 158 203 204
f 158 204 160
f 160 204 162
f 162 203 205
f 162 205 206
f 162 206 163
f 162 204 203
f 163 207 208
f 163 208 164
f 163 206 207
f 164 208 209
f 164 209 210
f 164 210 211
f 164 211 212
f 164 212 213
f 164 213 214
f 164 214 215
f 164 215 167
f 165 167 166
f 166 167 168
f 167 215 216
f 167 216 217
f 167 217 218
f 167 218 168
f 168 218 217
f 168 217 169
f 169 217 171
f 170 219 220
f 170 220 192
f 170 192 173
f 170 173 172
f 170 171 221
f 170 221 222
f 170 222 223
f 170 223 219
f 171 217 216
f 171 216 215
f 171 215 224
f 171 224 221
f 174 225 226
f 174 226 227
f 174 227 175
f 175 227 228
f 175 228 176
f 176 228 229
f 176 229 230
f 176 230 177
f 177 231 181
f 177 181 232
f 177 232 178
f 177 230 233
f 177 233 231
f 178 232 179
f 179 232 180
f 180 232 181
f 181 231 234
f 181 234 235
f 181 235 182
f 182 235 236
f 182 236 237
f 182 237 183
f 183 237 184
f 184 237 238
f 184 238 239
f 184 239 185
f 185 239 186
f 186 239 240
f 189 241 196
f 190 195 242
f 192 220 243
f 192 243 244
f 192 244 245
f 192 245 193
f 193 245 246
f 193 246 194
f 194 246 247
f 194 247 248
f 194 248 249
f 194 249 242
f 194 242 195
f 196 241 250
f 196 250 251
f 196 251 198
f 196 198 197
f 198 251 252
f 198 252 253
f 198 253 199
f 199 253 254
f 199 254 255
f 199 255 200
f 200 255 256
f 200 256 201
f 201 256 257
f 201 257 202
f 202 257 203
f 203 257 205
f 205 257 258
f 205 258 259
f 205 259 206
f 206 209 208
f 206 208 207
f 206 259 260
f 206 260 261
f 206 261 210
f 206 210 209
f 210 262 263
f 210 263 264
f 210 264 211
f 210 261 265
f 210 265 266
f 210 266 262
f 211 267 268
f 211 268 269
f 211 269 212
f 211 264 267
f 212 269 270
f 212 270 271
f 212 271 213
f 213 271 214
f 214 271 270
f 214 270 272
f 214 272 273
f 214 273 221
f 214 221 224
f 214 224 215
f 219 274 243
f 219 243 220
f 219 223 275
f 219 275 276
f 219 276 277
f 219 277 278
f 219 278 274
f 221 273 279
f 221 279 222
f 222 279 223
f 223 279 275
f 225 280 281
f 225 281 226
f 226 281 282
f 226 282 228
f 226 228 227
f 228 282 229
f 229 282 283
f 229 283 284
f 229 284 230
f 230 284 233
f 231 233 234
f 233 284 285
f 233 285 286
f 233 286 234
f 234 236 235
f 234 286 287
f 234 287 288
f 234 288 236
f 236 288 287
f 236 287 237
f 237 287 289
f 237 289 238
f 238 289 290
f 238 290 291
f 238 291 239
f 239 291 292
f 239 292 240
f 241 293 250
f 242 249 294
f 243 245 244
f 243 274 245
f 245 274 246
f 246 274 247
f 247 249 248
f 247 274 295
f 247 295 276
f 247 276 296
f 247 296 297
f 247 297 249
f 249 298 299
f 249 299 294
f 249 297 298
f 250 293 300
f 250 300 301
f 250 301 302
f 250 302 252
f 250 252 303
f 250 303 251
f 251 303 252
f 252 302 304
f 252 304 253
f 253 304 305
f 253 305 254
f 254 257 256
f 254 256 255
f 254 305 306
f 254 306 307
f 254 307 257
f 257 307 308
f 257 308 258
f 258 309 260
f 258 260 259
f 258 308 309
f 260 310 266
f 260 266 265
f 260 265 261
f 260 309 311
f 260 311 312
f 260 312 310
f 262 312 313
f 262 313 314
f 262 314 263
f 262 266 312
f 263 314 264
f 264 314 287
f 264 287 285
f 264 285 315
f 264 315 316
f 264 316 268
f 264 268 267
f 266 310 312
f 268 270 269
f 268 316 270
f 270 317 318
f 270 318 319
f 270 319 272
f 270 316 315
f 270 315 317
f 272 320 273
f 272 319 320
f 273 320 279
f 274 278 295
f 275 279 321
f 275 321 276
f 276 321 279
f 276 279 320
f 276 320 322
f 276 322 323
f 276 323 324
f 276 324 297
f 276 297 325
f 276 325 326
f 276 326 296
f 276 295 278
f 276 278 277
f 280 327 328
f 280 328 282
f 280 282 281
f 282 328 283
f 283 329 318
f 283 318 284
f 283 328 330
f 283 330 331
f 283 331 329
f 284 318 315
f 284 315 285
f 285 287 286
f 287 332 289
f 287 314 332
f 289 332 290
f 290 332 313
f 290 313 311
f 290 311 308
f 290 308 291
f 291 333 292
f 291 308 334
f 291 334 335
f 291 335 336
f 291 336 333
f 292 333 336
f 292 336 337
f 296 326 297
f 297 326 325
f 297 324 338
f 297 338 339
f 297 339 330
f 297 330 328
f 297 328 340
f 297 340 341
f 297 341 342
f 297 342 343
f 297 343 344
f 297 344 345
f 297 345 346
f 297 346 298
f 298 346 345
f 298 345 347
f 301 348 302
f 302 348 349
f 302 349 304
f 304 349 305
f 305 349 350
f 305 350 306
f 306 351 337
f 306 337 352
f 306 352 308
f 306 308 353
f 306 353 307
f 306 350 351
f 307 353 308
f 308 311 309
f 308 352 334
f 311 313 312
f 313 332 314
f 315 318 354
f 315 354 317
f 317 354 318
f 318 329 355
f 318 355 356
f 318 356 357
f 318 357 358
f 318 358 319
f 319 358 320
f 320 358 322
f 322 358 359
f 322 359 323
f 323 359 360
f 323 360 339
f 323 339 338
f 323 338 324
f 327 361 362
f 327 362 328
f 328 362 363
f 328 363 340
f 329 331 339
f 329 339 360
f 329 360 359
f 329 359 358
f 329 358 357
f 329 357 355
f 330 339 331
f 334 352 335
f 335 352 336
f 336 352 337
f 340 363 364
f 340 364 341
f 341 365 342
f 341 364 365
f 342 344 343
f 344 347 345
f 348 366 349
f 349 367 350
f 349 366 367
f 350 367 368
f 350 368 351
f 355 357 356
f 361 369 362
f 362 369 363
f 363 370 365
f 363 365 364
f 363 369 370

