# https://github.com/mikedh/trimesh
v 0.05033984 -0.00048070 0.03223548
v 0.05033984 0.00048073 0.03223548
v 0.05038635 -0.00083235 0.03223548
v 0.03683628 -0.00048070 0.03539002
v 0.05046387 0.00109051 0.03223548
v 0.03683628 0.00048073 0.03539002
v 0.05046387 -0.00109048 0.03223548
v 0.03683628 -0.00067933 0.03544103
v 0.05079608 -0.00162066 0.03223548
v 0.05087581 -0.00173813 0.03223548
v 0.05126340 -0.00224204 0.03223548
v 0.05173737 -0.00271889 0.03223548
v 0.05059011 0.00136487 0.03223548
v 0.03683628 0.00144293 0.03563950
v 0.05143394 0.00243450 0.03223548
v 0.05126340 0.00224206 0.03223548
v 0.03683628 -0.00144291 0.03563950
v 0.05182817 -0.00279694 0.03223548
v 0.03683628 0.00187573 0.03584907
v 0.05236415 0.00316716 0.03223548
v 0.05219140 0.00306051 0.03223548
v 0.05173737 0.00271891 0.03223548
v 0.03683628 -0.00201095 0.03591781
v 0.05219140 -0.00306049 0.03223548
v 0.03683628 0.00201098 0.03591781
v 0.05296657 0.00345544 0.03223548
v 0.03683628 -0.00210988 0.03599543
v 0.05296657 -0.00345541 0.03223548
v 0.03683628 0.00249169 0.03629592
v 0.05338517 0.00364015 0.03223548
v 0.03683628 -0.00249167 0.03629592
v 0.05381484 -0.00377383 0.03223548
v 0.03683628 0.00291058 0.03667734
v 0.05381484 0.00377385 0.03223548
v 0.03683628 -0.00300871 0.03677714
v 0.05409390 -0.00383875 0.03223548
v 0.03683628 0.00300873 0.03677714
v 0.05428659 0.00387664 0.03223548
v 0.03683628 0.00332869 0.03727055
v 0.03683628 -0.00341600 0.03741248
v 0.05428659 -0.00387662 0.03223548
v 0.05444827 0.00390447 0.03223548
v 0.03683628 0.00341602 0.03741248
v 0.03683628 -0.00377460 0.03819418
v 0.05490230 -0.00393458 0.03223548
v 0.05490230 0.00393461 0.03223548
v 0.03683628 0.00370971 0.03804450
v 0.03683628 0.00377463 0.03819418
v 0.03683628 0.00386737 0.03857561
v 0.03683628 0.00388978 0.03867430
v 0.03683628 -0.00388976 0.03867430
v 0.05575499 -0.00390522 0.03223548
v 0.05491559 -0.00394772 0.03260250
v 0.03683628 -0.00393767 0.03933625
v 0.05491559 0.00394775 0.03260250
v 0.05530761 0.00393538 0.03223548
v 0.03683628 0.00393152 0.03918767
v 0.03683628 0.00393770 0.03933625
v 0.05564425 -0.00389749 0.03260250
v 0.05493552 -0.00390985 0.03354276
v 0.05602298 -0.00386039 0.03223548
v 0.05402081 -0.00391913 0.03458503
v 0.05307510 -0.00392144 0.03557187
v 0.05010507 -0.00394231 0.03741248
v 0.04144968 -0.00393767 0.03928414
v 0.03683628 -0.00389594 0.04003479
v 0.05010507 0.00394234 0.03741248
v 0.05307510 0.00392147 0.03557187
v 0.05402081 0.00391915 0.03458503
v 0.05493552 0.00390988 0.03354276
v 0.05575499 0.00390447 0.03223548
v 0.03683628 0.00390756 0.03990617
v 0.04144968 0.00393770 0.03928414
v 0.05547371 -0.00386348 0.03320679
v 0.05462545 -0.00388358 0.03430229
v 0.05622231 -0.00382020 0.03223548
v 0.05612486 -0.00380011 0.03260250
v 0.05374396 -0.00389517 0.03530576
v 0.05280932 -0.00389440 0.03623382
v 0.05208066 -0.00391758 0.03651324
v 0.05100649 -0.00390599 0.03741913
v 0.04914385 -0.00391990 0.03823410
v 0.04722142 -0.00393458 0.03837381
v 0.04241090 -0.00393613 0.03925309
v 0.03683628 -0.00378851 0.04051491
v 0.04337433 -0.00392995 0.03921983
v 0.04433555 -0.00392144 0.03917991
v 0.04914385 0.00391992 0.03823410
v 0.05100649 0.00390601 0.03741913
v 0.05208066 0.00391760 0.03651324
v 0.04241090 0.00393615 0.03925309
v 0.04722142 0.00393461 0.03837381
v 0.05374396 0.00389519 0.03530576
v 0.05280932 0.00389442 0.03623382
v 0.05462545 0.00388360 0.03430229
v 0.05564425 0.00389751 0.03260250
v 0.05622231 0.00382022 0.03223548
v 0.03683628 0.00389596 0.04003479
v 0.05526774 -0.00382407 0.03384768
v 0.05438404 -0.00383875 0.03494429
v 0.05682252 -0.00362390 0.03223548
v 0.05684024 -0.00355125 0.03260250
v 0.05582808 -0.00372669 0.03354276
v 0.05402081 -0.00380320 0.03557187
v 0.05345161 -0.00384416 0.03594775
v 0.05243724 -0.00383798 0.03687471
v 0.05179495 -0.00388048 0.03710202
v 0.05307510 -0.00380243 0.03651324
v 0.05064326 -0.00385421 0.03792364
v 0.05010507 -0.00388048 0.03804560
v 0.04914385 -0.00381788 0.03871532
v 0.04852592 -0.00383952 0.03881733
v 0.04788585 -0.00385884 0.03890382
v 0.04722142 -0.00387507 0.03897700
v 0.04626020 -0.00389517 0.03906348
v 0.04819592 -0.00391913 0.03844699
v 0.03683628 -0.00345310 0.04126002
v 0.04433555 -0.00381247 0.03966002
v 0.04529677 -0.00380088 0.03961012
v 0.04433555 -0.00356284 0.04029758
v 0.04529677 -0.00390985 0.03912890
v 0.04819592 0.00391915 0.03844699
v 0.04626020 0.00389519 0.03906348
v 0.04722142 0.00387510 0.03897700
v 0.04788585 0.00385887 0.03890382
v 0.04852592 0.00383955 0.03881733
v 0.04914385 0.00381791 0.03871532
v 0.05010507 0.00388051 0.03804560
v 0.05064326 0.00385423 0.03792364
v 0.05179495 0.00388051 0.03710202
v 0.04337433 0.00392997 0.03921983
v 0.04433555 0.00392147 0.03917880
v 0.05402081 0.00380322 0.03557187
v 0.05438404 0.00383877 0.03494429
v 0.05345161 0.00384418 0.03594775
v 0.05243724 0.00383800 0.03687582
v 0.05307510 0.00380245 0.03651324
v 0.05526774 0.00382332 0.03384768
v 0.05547371 0.00386350 0.03320679
v 0.05612486 0.00380013 0.03260250
v 0.05638178 0.00377694 0.03223548
v 0.03683628 0.00381172 0.04041622
v 0.05493552 -0.00378156 0.03458503
v 0.05774166 -0.00315787 0.03223548
v 0.05691554 -0.00322356 0.03362259
v 0.05587902 -0.00347396 0.03452627
v 0.05764642 -0.00311768 0.03260250
v 0.05491559 -0.00357212 0.03548871
v 0.05395437 -0.00359994 0.03645115
v 0.05208066 -0.00377538 0.03741913
v 0.05128555 -0.00381866 0.03774401
v 0.05299315 -0.00356516 0.03741248
v 0.05010507 -0.00377460 0.03852572
v 0.04819592 -0.00373828 0.03926861
v 0.04722142 -0.00376069 0.03945822
v 0.04626020 -0.00378542 0.03954471
v 0.03683628 -0.00303189 0.04192198
v 0.04529677 -0.00351261 0.04029758
v 0.04433555 -0.00311768 0.04107042
v 0.04529677 0.00390988 0.03912890
v 0.04529677 0.00380090 0.03961012
v 0.04626020 0.00378545 0.03954471
v 0.04722142 0.00376072 0.03945822
v 0.04819592 0.00373830 0.03926861
v 0.05010507 0.00377463 0.03852682
v 0.05128555 0.00381868 0.03774401
v 0.05208066 0.00377540 0.03741913
v 0.04433555 0.00381250 0.03966002
v 0.05395437 0.00359996 0.03645115
v 0.05491559 0.00357214 0.03548871
v 0.05493552 0.00378158 0.03458503
v 0.05299315 0.00356518 0.03741248
v 0.05582808 0.00372671 0.03354276
v 0.05684024 0.00355127 0.03260250
v 0.05682252 0.00362392 0.03223548
v 0.03683628 0.00378854 0.04051491
v 0.05805173 -0.00294765 0.03223548
v 0.05663205 -0.00306976 0.03452627
v 0.05746259 -0.00298552 0.03333985
v 0.05587902 -0.00312386 0.03545877
v 0.05494216 -0.00317255 0.03647111
v 0.05397209 -0.00317100 0.03743909
v 0.05202972 -0.00343918 0.03837381
v 0.05100649 -0.00369964 0.03829619
v 0.05294886 -0.00311149 0.03837048
v 0.05010507 -0.00343609 0.03933625
v 0.04914385 -0.00360380 0.03933625
v 0.04722142 -0.00336113 0.04029758
v 0.04626020 -0.00344846 0.04029758
v 0.03683628 -0.00206505 0.04297201
v 0.04529677 -0.00307904 0.04102274
v 0.04433555 -0.00268565 0.04155164
v 0.04433555 0.00356286 0.04029758
v 0.04529677 0.00351263 0.04029758
v 0.04626020 0.00344848 0.04029758
v 0.04722142 0.00336115 0.04029758
v 0.04914385 0.00360383 0.03933625
v 0.05010507 0.00343612 0.03933625
v 0.05100649 0.00369966 0.03829619
v 0.05202972 0.00343921 0.03837381
v 0.05397209 0.00317103 0.03743909
v 0.05494216 0.00317257 0.03647111
v 0.05587902 0.00312388 0.03545877
v 0.05587902 0.00347399 0.03452627
v 0.05294886 0.00311152 0.03837048
v 0.05691554 0.00322358 0.03362259
v 0.05764642 0.00311770 0.03260250
v 0.05774166 0.00315789 0.03223548
v 0.05726105 0.00341602 0.03223548
v 0.03683628 0.00353350 0.04109038
v 0.05821340 -0.00281936 0.03223548
v 0.05728541 -0.00285723 0.03398185
v 0.05643936 -0.00293838 0.03511837
v 0.05812703 -0.00273434 0.03260250
v 0.05556009 -0.00298784 0.03616397
v 0.05464095 -0.00300407 0.03713639
v 0.05366423 -0.00298475 0.03804782
v 0.05202972 -0.00304194 0.03907679
v 0.05105964 -0.00316946 0.03938282
v 0.05259670 -0.00292446 0.03891158
v 0.05010507 -0.00302880 0.04000708
v 0.04914385 -0.00315246 0.04017007
v 0.04818485 -0.00318414 0.04037187
v 0.04722142 -0.00296697 0.04088081
v 0.04626020 -0.00302957 0.04096175
v 0.03683628 -0.00195531 0.04305739
v 0.04529677 -0.00262305 0.04150396
v 0.04529677 -0.00214234 0.04187873
v 0.03683628 0.00345312 0.04126002
v 0.04433555 0.00311770 0.04107042
v 0.04529677 0.00307906 0.04102274
v 0.04626020 0.00302960 0.04096175
v 0.04722142 0.00296699 0.04088192
v 0.04818485 0.00318417 0.04037187
v 0.04914385 0.00315248 0.04017007
v 0.05010507 0.00302882 0.04000708
v 0.05105964 0.00316948 0.03938282
v 0.05202972 0.00304196 0.03907679
v 0.05366423 0.00298477 0.03804782
v 0.05464095 0.00300409 0.03713528
v 0.05556009 0.00298786 0.03616397
v 0.05643936 0.00293840 0.03511837
v 0.05663205 0.00306901 0.03452627
v 0.05259670 0.00292449 0.03891158
v 0.05746259 0.00298554 0.03333985
v 0.05821340 0.00281938 0.03223548
v 0.05835072 -0.00265938 0.03223548
v 0.05711265 -0.00268488 0.03452627
v 0.05783689 -0.00246153 0.03362703
v 0.05755118 -0.00220417 0.03452627
v 0.05620238 -0.00275521 0.03576036
v 0.05853898 -0.00225286 0.03260250
v 0.05838173 -0.00206582 0.03327221
v 0.05528103 -0.00280235 0.03680486
v 0.05430431 -0.00280158 0.03777727
v 0.05323899 -0.00274516 0.03868982
v 0.05137636 -0.00281472 0.03973542
v 0.05073407 -0.00293528 0.03988400
v 0.05202972 -0.00262228 0.03955801
v 0.04914385 -0.00275985 0.04065129
v 0.04850599 -0.00285182 0.04074110
v 0.04786592 -0.00291596 0.04081650
v 0.04626020 -0.00253417 0.04144187
v 0.03683628 -0.00144909 0.04331241
v 0.04626020 -0.00205346 0.04181886
v 0.03683628 0.00311384 0.04180001
v 0.03683628 0.00303114 0.04192198
v 0.04433555 0.00268568 0.04155164
v 0.03683628 0.00217637 0.04291990
v 0.04529677 0.00262308 0.04150396
v 0.04786592 0.00291599 0.04081650
v 0.04626020 0.00253420 0.04144187
v 0.04850599 0.00285184 0.04074221
v 0.04914385 0.00275987 0.04065129
v 0.05073407 0.00293531 0.03988400
v 0.05137636 0.00281474 0.03973542
v 0.05323899 0.00274519 0.03868982
v 0.05430431 0.00280160 0.03777727
v 0.05528103 0.00280238 0.03680486
v 0.05620238 0.00275523 0.03576036
v 0.05711265 0.00268490 0.03452627
v 0.05728541 0.00285725 0.03398185
v 0.05202972 0.00262230 0.03955801
v 0.05812703 0.00273437 0.03260250
v 0.05853898 0.00225288 0.03260250
v 0.05862979 0.00232166 0.03223548
v 0.05862979 -0.00232164 0.03223548
v 0.05737843 -0.00200554 0.03509176
v 0.05679594 -0.00238038 0.03542551
v 0.05651466 -0.00211374 0.03617062
v 0.05591003 -0.00245843 0.03648774
v 0.05887341 -0.00199704 0.03223548
v 0.05821340 -0.00179610 0.03391421
v 0.05910597 -0.00162607 0.03223548
v 0.05903066 -0.00144832 0.03262467
v 0.05856113 -0.00146223 0.03358157
v 0.05561768 -0.00216166 0.03716965
v 0.05497760 -0.00248162 0.03747346
v 0.05467418 -0.00216011 0.03810992
v 0.05398538 -0.00245302 0.03839931
v 0.05366423 -0.00210369 0.03899696
v 0.05289570 -0.00235487 0.03927527
v 0.05099984 -0.00238269 0.04026875
v 0.05010507 -0.00256509 0.04048830
v 0.05202972 -0.00214156 0.03998379
v 0.05255462 -0.00196458 0.03984297
v 0.05010507 -0.00208437 0.04088746
v 0.04914385 -0.00227913 0.04103937
v 0.04818485 -0.00248085 0.04110922
v 0.04722584 -0.00233941 0.04142191
v 0.04690913 -0.00197540 0.04177118
v 0.03683628 -0.00135712 0.04333681
v 0.04626020 -0.00144291 0.04212267
v 0.03683628 0.00144911 0.04331241
v 0.04626020 0.00205348 0.04181886
v 0.04529677 0.00214236 0.04187873
v 0.04722584 0.00233944 0.04142191
v 0.04690913 0.00197542 0.04177118
v 0.04818485 0.00248087 0.04110922
v 0.04914385 0.00227916 0.04103937
v 0.05010507 0.00208440 0.04088746
v 0.05010507 0.00256511 0.04048830
v 0.05099984 0.00238272 0.04026875
v 0.05202972 0.00214159 0.03998379
v 0.05366423 0.00210372 0.03899696
v 0.05398538 0.00245227 0.03839931
v 0.05289570 0.00235490 0.03927527
v 0.05467418 0.00216014 0.03810992
v 0.05497760 0.00248164 0.03747346
v 0.05561768 0.00216168 0.03716965
v 0.05591003 0.00245846 0.03648774
v 0.05651466 0.00211376 0.03617062
v 0.05679816 0.00238040 0.03542551
v 0.05737843 0.00200557 0.03509176
v 0.05755118 0.00220419 0.03452627
v 0.05783689 0.00246155 0.03362703
v 0.05255462 0.00196460 0.03984297
v 0.05838173 0.00206585 0.03327221
v 0.05910597 0.00162609 0.03223548
v 0.05715474 -0.00164617 0.03573375
v 0.05803179 -0.00146223 0.03453736
v 0.05751132 -0.00137258 0.03544325
v 0.05625996 -0.00176905 0.03681151
v 0.05838394 -0.00115463 0.03422467
v 0.05929422 -0.00126360 0.03223548
v 0.05932744 -0.00113067 0.03231975
v 0.05531425 -0.00180537 0.03781165
v 0.05430652 -0.00176055 0.03875080
v 0.05389457 -0.00136794 0.03929190
v 0.05319470 -0.00161680 0.03963784
v 0.05062554 -0.00195067 0.04079543
v 0.05126562 -0.00169254 0.04065462
v 0.05348262 -0.00097533 0.03982412
v 0.05292228 -0.00135480 0.03995607
v 0.05198764 -0.00139963 0.04045503
v 0.04917043 -0.00141663 0.04154498
v 0.04818263 -0.00172963 0.04164478
v 0.04754920 -0.00186875 0.04171352
v 0.04722584 -0.00150551 0.04194083
v 0.03683628 -0.00048070 0.04356189
v 0.04626020 -0.00048070 0.04237215
v 0.04818263 -0.00124892 0.04187541
v 0.03683628 0.00048073 0.04356189
v 0.04626020 0.00048073 0.04237215
v 0.04626020 0.00144293 0.04212267
v 0.04722584 0.00150553 0.04194083
v 0.04754920 0.00186800 0.04171352
v 0.04818263 0.00172966 0.04164478
v 0.04917043 0.00141665 0.04154498
v 0.05062554 0.00195069 0.04079543
v 0.05126562 0.00169256 0.04065462
v 0.05389457 0.00136796 0.03929190
v 0.05430652 0.00176057 0.03875080
v 0.05319470 0.00161682 0.03963784
v 0.05531425 0.00180540 0.03781165
v 0.05625996 0.00176907 0.03681151
v 0.05715695 0.00164619 0.03573375
v 0.05750910 0.00137260 0.03544325
v 0.05803179 0.00146225 0.03453736
v 0.05821340 0.00179612 0.03391421
v 0.05292228 0.00135482 0.03995607
v 0.05348262 0.00097535 0.03982412
v 0.05198764 0.00139965 0.04045503
v 0.05856113 0.00146225 0.03358157
v 0.05903066 0.00144834 0.03262467
v 0.05932744 0.00113070 0.03231975
v 0.05934073 0.00116857 0.03223548
v 0.05734521 -0.00100470 0.03600208
v 0.05680701 -0.00138726 0.03640680
v 0.05645708 -0.00112758 0.03704657
v 0.05589231 -0.00146686 0.03742911
v 0.05917462 -0.00048070 0.03292294
v 0.05885569 -0.00048070 0.03356494
v 0.05844596 -0.00048070 0.03433223
v 0.05816689 -0.00048070 0.03481345
v 0.05934073 -0.00116854 0.03223548
v 0.05937395 -0.00105107 0.03223548
v 0.05938060 -0.00048070 0.03244172
v 0.05552687 -0.00116391 0.03802232
v 0.05493109 -0.00146223 0.03838601
v 0.05454572 -0.00111908 0.03894595
v 0.05099541 -0.00139963 0.04091962
v 0.05010507 -0.00144291 0.04123341
v 0.05163992 -0.00105107 0.04082315
v 0.05350255 -0.00048070 0.03983743
v 0.05299315 -0.00048070 0.04014900
v 0.05218697 -0.00048070 0.04060915
v 0.05461659 -0.00048070 0.03900472
v 0.05398538 -0.00048070 0.03948483
v 0.04886700 -0.00107889 0.04179557
v 0.04722142 -0.00048070 0.04222135
v 0.04722142 0.00048073 0.04222135
v 0.04818263 0.00124894 0.04187541
v 0.04886700 0.00107891 0.04179557
v 0.05010507 0.00144293 0.04123341
v 0.05099541 0.00139965 0.04091962
v 0.05163992 0.00105109 0.04082315
v 0.05454572 0.00111910 0.03894595
v 0.05493109 0.00146225 0.03838601
v 0.05552687 0.00116393 0.03802232
v 0.05589231 0.00146689 0.03742911
v 0.05645708 0.00112760 0.03704657
v 0.05680701 0.00138728 0.03640680
v 0.05734521 0.00100472 0.03600208
v 0.05838394 0.00115465 0.03422467
v 0.05218697 0.00048073 0.04060915
v 0.05299315 0.00048073 0.04014900
v 0.05350255 0.00048073 0.03983743
v 0.05398538 0.00048073 0.03948483
v 0.05461659 0.00048073 0.03900472
v 0.05917462 0.00048073 0.03292294
v 0.05938060 0.00048073 0.03244172
v 0.05946033 0.00048073 0.03223548
v 0.05736736 -0.00048070 0.03603313
v 0.05699970 -0.00048070 0.03651324
v 0.05651909 -0.00048070 0.03711975
v 0.05773058 -0.00048070 0.03548871
v 0.05608721 -0.00048070 0.03760098
v 0.05885569 0.00048073 0.03356494
v 0.05844596 0.00048073 0.03433223
v 0.05816689 0.00048073 0.03481345
v 0.05946255 -0.00048070 0.03223548
v 0.05560660 -0.00048070 0.03810104
v 0.05509720 -0.00048070 0.03858227
v 0.05106850 -0.00048070 0.04112918
v 0.05010507 -0.00048070 0.04149287
v 0.05170636 -0.00048070 0.04085531
v 0.04900210 -0.00048070 0.04183327
v 0.04818263 -0.00048070 0.04203175
v 0.04948271 -0.00048070 0.04170022
v 0.04818263 0.00048073 0.04203175
v 0.04900210 0.00048073 0.04183327
v 0.04948271 0.00048073 0.04170022
v 0.05010507 0.00048073 0.04149287
v 0.05170636 0.00048073 0.04085531
v 0.05106850 0.00048073 0.04112918
v 0.05509720 0.00048073 0.03858227
v 0.05560660 0.00048073 0.03810104
v 0.05608721 0.00048073 0.03760098
v 0.05651909 0.00048073 0.03711975
v 0.05699970 0.00048073 0.03651324
v 0.05736736 0.00048073 0.03603313
v 0.05773058 0.00048073 0.03548871
v 0.05946255 -0.00023416 0.03223548
f 1 2 5
f 1 5 13
f 1 13 16
f 1 16 15
f 1 15 22
f 1 22 21
f 1 21 20
f 1 20 26
f 1 26 30
f 1 30 34
f 1 34 38
f 1 38 42
f 1 42 46
f 1 46 56
f 1 56 71
f 1 71 97
f 1 97 141
f 1 141 175
f 1 175 209
f 1 209 208
f 1 208 246
f 1 246 286
f 1 286 339
f 1 339 387
f 1 387 433
f 1 433 464
f 1 464 442
f 1 442 397
f 1 397 396
f 1 396 345
f 1 345 294
f 1 294 292
f 1 292 287
f 1 287 247
f 1 247 211
f 1 211 177
f 1 177 144
f 1 144 101
f 1 101 76
f 1 76 61
f 1 61 52
f 1 52 45
f 1 45 41
f 1 41 36
f 1 36 32
f 1 32 28
f 1 28 24
f 1 24 18
f 1 18 12
f 1 12 11
f 1 11 10
f 1 10 9
f 1 9 7
f 1 7 3
f 1 3 4
f 1 4 6
f 1 6 2
f 2 6 5
f 3 7 4
f 4 8 17
f 4 17 23
f 4 23 27
f 4 27 31
f 4 31 35
f 4 35 40
f 4 40 44
f 4 44 51
f 4 51 54
f 4 54 66
f 4 66 85
f 4 85 117
f 4 117 157
f 4 157 190
f 4 190 226
f 4 226 264
f 4 264 312
f 4 312 360
f 4 360 363
f 4 363 314
f 4 314 269
f 4 269 267
f 4 267 266
f 4 266 229
f 4 229 210
f 4 210 176
f 4 176 142
f 4 142 98
f 4 98 72
f 4 72 58
f 4 58 57
f 4 57 50
f 4 50 49
f 4 49 48
f 4 48 47
f 4 47 43
f 4 43 39
f 4 39 37
f 4 37 33
f 4 33 29
f 4 29 25
f 4 25 19
f 4 19 14
f 4 14 6
f 4 7 9
f 4 9 10
f 4 10 11
f 4 11 12
f 4 12 8
f 5 6 13
f 6 14 15
f 6 15 16
f 6 16 13
f 8 12 17
f 12 18 17
f 14 19 20
f 14 20 21
f 14 21 22
f 14 22 15
f 17 18 24
f 17 24 23
f 19 25 20
f 20 25 26
f 23 24 28
f 23 28 27
f 25 29 30
f 25 30 26
f 27 28 31
f 28 32 31
f 29 33 30
f 30 33 34
f 31 32 35
f 32 36 35
f 33 37 34
f 34 37 39
f 34 39 38
f 35 36 40
f 36 41 40
f 38 39 43
f 38 43 42
f 40 41 44
f 41 45 44
f 42 43 47
f 42 47 48
f 42 48 49
f 42 49 50
f 42 50 46
f 44 45 51
f 45 52 53
f 45 53 54
f 45 54 51
f 46 55 56
f 46 50 57
f 46 57 58
f 46 58 55
f 52 59 60
f 52 60 53
f 52 61 59
f 53 60 62
f 53 62 63
f 53 63 64
f 53 64 54
f 54 65 66
f 54 64 65
f 55 67 68
f 55 68 69
f 55 69 70
f 55 70 56
f 55 58 67
f 56 70 71
f 58 72 73
f 58 73 67
f 59 74 75
f 59 75 60
f 59 61 76
f 59 76 77
f 59 77 74
f 60 75 78
f 60 78 62
f 62 78 63
f 63 78 79
f 63 79 80
f 63 80 64
f 64 80 81
f 64 81 82
f 64 82 83
f 64 83 84
f 64 84 65
f 65 84 66
f 66 84 86
f 66 86 87
f 66 87 85
f 67 88 89
f 67 89 90
f 67 90 68
f 67 73 91
f 67 91 92
f 67 92 88
f 68 93 69
f 68 90 94
f 68 94 93
f 69 93 70
f 70 93 95
f 70 95 96
f 70 96 71
f 71 96 97
f 72 98 91
f 72 91 73
f 74 99 75
f 74 77 99
f 75 99 100
f 75 100 78
f 76 101 77
f 77 101 102
f 77 102 103
f 77 103 99
f 78 100 104
f 78 104 105
f 78 105 79
f 79 106 107
f 79 107 81
f 79 81 80
f 79 105 108
f 79 108 106
f 81 107 109
f 81 109 110
f 81 110 82
f 82 111 112
f 82 112 113
f 82 113 114
f 82 114 115
f 82 115 116
f 82 116 83
f 82 110 111
f 83 87 86
f 83 86 84
f 83 116 87
f 85 87 118
f 85 118 119
f 85 119 120
f 85 120 117
f 87 116 121
f 87 121 119
f 87 119 118
f 88 122 123
f 88 123 124
f 88 124 125
f 88 125 126
f 88 126 127
f 88 127 128
f 88 128 89
f 88 92 122
f 89 129 130
f 89 130 94
f 89 94 90
f 89 128 129
f 91 131 92
f 91 98 131
f 92 131 132
f 92 132 122
f 93 133 134
f 93 134 95
f 93 94 135
f 93 135 133
f 94 130 136
f 94 136 137
f 94 137 135
f 95 134 138
f 95 138 139
f 95 139 96
f 96 139 140
f 96 140 97
f 97 140 141
f 98 142 132
f 98 132 131
f 99 143 100
f 99 103 143
f 100 143 104
f 101 144 102
f 102 145 146
f 102 146 103
f 102 144 147
f 102 147 145
f 103 148 143
f 103 146 148
f 104 149 108
f 104 108 105
f 104 143 148
f 104 148 149
f 106 150 107
f 106 108 150
f 107 150 151
f 107 151 109
f 108 149 152
f 108 152 150
f 109 151 153
f 109 153 110
f 110 153 111
f 111 154 112
f 111 153 154
f 112 154 155
f 112 155 113
f 113 155 114
f 114 155 156
f 114 156 115
f 115 156 119
f 115 119 121
f 115 121 116
f 117 120 158
f 117 158 159
f 117 159 157
f 119 156 120
f 120 156 158
f 122 132 160
f 122 160 123
f 123 160 161
f 123 161 162
f 123 162 124
f 124 162 163
f 124 163 125
f 125 163 126
f 126 164 127
f 126 163 164
f 127 164 165
f 127 165 128
f 128 165 129
f 129 166 130
f 129 165 166
f 130 167 136
f 130 166 167
f 132 168 161
f 132 161 160
f 132 142 168
f 133 135 137
f 133 137 169
f 133 169 170
f 133 170 171
f 133 171 134
f 134 171 138
f 136 167 137
f 137 172 169
f 137 167 172
f 138 171 173
f 138 173 140
f 138 140 139
f 140 173 174
f 140 174 175
f 140 175 141
f 142 176 168
f 144 177 147
f 145 178 146
f 145 147 179
f 145 179 178
f 146 178 180
f 146 180 148
f 147 177 179
f 148 181 149
f 148 180 181
f 149 181 182
f 149 182 152
f 150 183 184
f 150 184 151
f 150 152 183
f 151 184 153
f 152 182 185
f 152 185 183
f 153 186 187
f 153 187 154
f 153 184 186
f 154 187 155
f 155 188 189
f 155 189 158
f 155 158 156
f 155 187 188
f 157 159 191
f 157 191 192
f 157 192 190
f 158 189 159
f 159 189 191
f 161 193 162
f 161 168 176
f 161 176 193
f 162 193 194
f 162 194 163
f 163 194 195
f 163 195 196
f 163 196 197
f 163 197 164
f 164 197 165
f 165 197 198
f 165 198 199
f 165 199 166
f 166 199 167
f 167 199 200
f 167 200 172
f 169 201 202
f 169 202 170
f 169 172 201
f 170 202 203
f 170 203 204
f 170 204 173
f 170 173 171
f 172 200 205
f 172 205 201
f 173 204 174
f 174 206 207
f 174 207 208
f 174 208 209
f 174 209 175
f 174 204 206
f 176 210 193
f 177 211 179
f 178 179 212
f 178 212 213
f 178 213 180
f 179 211 214
f 179 214 212
f 180 213 215
f 180 215 181
f 181 215 216
f 181 216 182
f 182 217 185
f 182 216 217
f 183 185 218
f 183 218 219
f 183 219 186
f 183 186 184
f 185 220 218
f 185 217 220
f 186 221 222
f 186 222 187
f 186 219 221
f 187 222 223
f 187 223 188
f 188 224 225
f 188 225 191
f 188 191 189
f 188 223 224
f 190 192 227
f 190 227 228
f 190 228 226
f 191 225 192
f 192 225 227
f 193 210 229
f 193 229 194
f 194 230 195
f 194 229 230
f 195 230 231
f 195 231 196
f 196 231 232
f 196 232 233
f 196 233 234
f 196 234 197
f 197 234 235
f 197 235 198
f 198 235 236
f 198 236 237
f 198 237 200
f 198 200 199
f 200 238 205
f 200 237 238
f 201 205 239
f 201 239 240
f 201 240 202
f 202 241 203
f 202 240 241
f 203 242 243
f 203 243 204
f 203 241 242
f 204 243 206
f 205 238 244
f 205 244 239
f 206 243 245
f 206 245 207
f 207 246 208
f 207 245 246
f 211 247 214
f 212 248 213
f 212 214 249
f 212 249 250
f 212 250 248
f 213 251 215
f 213 248 251
f 214 247 252
f 214 252 253
f 214 253 249
f 215 254 216
f 215 251 254
f 216 254 255
f 216 255 217
f 217 255 256
f 217 256 220
f 218 220 257
f 218 257 219
f 219 257 258
f 219 258 221
f 220 259 257
f 220 256 259
f 221 260 222
f 221 258 260
f 222 261 223
f 222 260 261
f 223 261 262
f 223 262 224
f 224 262 263
f 224 263 227
f 224 227 225
f 226 228 265
f 226 265 264
f 227 263 265
f 227 265 228
f 229 266 230
f 230 266 267
f 230 267 231
f 231 268 232
f 231 267 269
f 231 269 268
f 232 268 270
f 232 270 233
f 233 271 234
f 233 270 272
f 233 272 271
f 234 273 235
f 234 271 273
f 235 274 236
f 235 273 274
f 236 274 275
f 236 275 237
f 237 275 276
f 237 276 238
f 238 276 244
f 239 277 278
f 239 278 240
f 239 244 277
f 240 278 279
f 240 279 241
f 241 279 280
f 241 280 242
f 242 280 281
f 242 281 282
f 242 282 243
f 243 282 245
f 244 276 283
f 244 283 277
f 245 282 284
f 245 284 246
f 246 284 285
f 246 285 286
f 247 287 252
f 248 250 288
f 248 288 289
f 248 289 251
f 249 253 250
f 250 253 288
f 251 289 290
f 251 290 291
f 251 291 254
f 252 287 292
f 252 292 253
f 253 293 288
f 253 292 294
f 253 294 295
f 253 295 296
f 253 296 293
f 254 291 297
f 254 297 298
f 254 298 255
f 255 298 299
f 255 299 300
f 255 300 256
f 256 300 301
f 256 301 302
f 256 302 259
f 257 303 304
f 257 304 258
f 257 259 305
f 257 305 303
f 258 304 260
f 259 302 306
f 259 306 305
f 260 304 307
f 260 307 308
f 260 308 261
f 261 309 310
f 261 310 262
f 261 308 309
f 262 310 263
f 263 310 311
f 263 311 265
f 264 265 313
f 264 313 312
f 265 311 313
f 268 269 270
f 269 314 315
f 269 315 316
f 269 316 270
f 270 316 315
f 270 315 272
f 271 272 317
f 271 317 273
f 272 315 318
f 272 318 317
f 273 317 319
f 273 319 320
f 273 320 274
f 274 320 321
f 274 321 322
f 274 322 275
f 275 322 276
f 276 322 323
f 276 323 324
f 276 324 283
f 277 325 326
f 277 326 278
f 277 283 327
f 277 327 325
f 278 328 329
f 278 329 279
f 278 326 328
f 279 329 330
f 279 330 331
f 279 331 280
f 280 331 332
f 280 332 333
f 280 333 281
f 281 333 334
f 281 334 335
f 281 335 282
f 282 335 336
f 282 336 284
f 283 324 337
f 283 337 327
f 284 336 338
f 284 338 285
f 285 339 286
f 285 338 339
f 288 340 290
f 288 290 289
f 288 293 341
f 288 341 342
f 288 342 340
f 290 343 297
f 290 297 291
f 290 340 343
f 293 296 344
f 293 344 341
f 294 345 346
f 294 346 295
f 295 346 296
f 296 346 344
f 297 347 299
f 297 299 298
f 297 343 347
f 299 348 301
f 299 301 300
f 299 347 348
f 301 348 349
f 301 349 350
f 301 350 306
f 301 306 302
f 303 305 351
f 303 351 304
f 304 351 307
f 305 306 352
f 305 352 351
f 306 350 353
f 306 353 354
f 306 354 355
f 306 355 352
f 307 356 357
f 307 357 308
f 307 351 356
f 308 357 358
f 308 358 309
f 309 358 311
f 309 311 310
f 311 358 359
f 311 359 313
f 312 313 361
f 312 361 360
f 313 359 362
f 313 362 361
f 314 363 364
f 314 364 365
f 314 365 315
f 315 365 318
f 317 318 319
f 318 365 366
f 318 366 367
f 318 367 319
f 319 367 320
f 320 367 368
f 320 368 321
f 321 368 369
f 321 369 370
f 321 370 322
f 322 370 323
f 323 370 324
f 324 370 371
f 324 371 337
f 325 372 373
f 325 373 328
f 325 328 326
f 325 327 337
f 325 337 374
f 325 374 372
f 328 373 375
f 328 375 330
f 328 330 329
f 330 375 376
f 330 376 332
f 330 332 331
f 332 376 377
f 332 377 334
f 332 334 333
f 334 377 378
f 334 378 379
f 334 379 380
f 334 380 338
f 334 338 335
f 335 338 336
f 337 381 382
f 337 382 374
f 337 371 383
f 337 383 381
f 338 380 384
f 338 384 385
f 338 385 339
f 339 386 387
f 339 385 386
f 340 342 388
f 340 388 389
f 340 389 343
f 341 344 342
f 342 344 388
f 343 389 390
f 343 390 391
f 343 391 347
f 344 346 392
f 344 392 393
f 344 393 394
f 344 394 395
f 344 395 388
f 345 396 346
f 346 396 397
f 346 397 398
f 346 398 392
f 347 391 399
f 347 399 400
f 347 400 348
f 348 400 401
f 348 401 349
f 349 353 350
f 349 401 353
f 351 352 402
f 351 402 403
f 351 403 356
f 352 404 402
f 352 355 404
f 353 405 406
f 353 406 407
f 353 407 404
f 353 404 354
f 353 401 408
f 353 408 409
f 353 409 405
f 354 404 355
f 356 403 410
f 356 410 357
f 357 410 362
f 357 362 358
f 358 362 359
f 360 361 364
f 360 364 363
f 361 362 411
f 361 411 412
f 361 412 364
f 362 410 411
f 364 412 413
f 364 413 365
f 365 413 366
f 366 413 367
f 367 413 368
f 368 413 414
f 368 414 369
f 369 415 370
f 369 414 415
f 370 416 371
f 370 415 416
f 371 416 417
f 371 417 383
f 372 374 382
f 372 382 418
f 372 418 373
f 373 418 419
f 373 419 375
f 375 420 421
f 375 421 376
f 375 419 420
f 376 421 422
f 376 422 423
f 376 423 377
f 377 423 424
f 377 424 378
f 378 425 379
f 378 424 425
f 379 425 380
f 380 425 384
f 381 383 417
f 381 417 382
f 382 417 426
f 382 426 427
f 382 427 428
f 382 428 429
f 382 429 430
f 382 430 418
f 384 386 385
f 384 425 386
f 386 431 432
f 386 432 433
f 386 433 387
f 386 425 431
f 388 434 435
f 388 435 436
f 388 436 390
f 388 390 389
f 388 395 437
f 388 437 434
f 390 436 438
f 390 438 399
f 390 399 391
f 392 398 432
f 392 432 431
f 392 431 439
f 392 439 393
f 393 439 440
f 393 440 394
f 394 440 441
f 394 441 395
f 395 441 463
f 395 463 437
f 397 442 398
f 398 442 464
f 398 464 432
f 399 443 444
f 399 444 401
f 399 401 400
f 399 438 443
f 401 444 408
f 402 404 403
f 403 404 410
f 404 445 446
f 404 446 410
f 404 407 447
f 404 447 445
f 405 428 427
f 405 427 406
f 405 409 429
f 405 429 428
f 406 427 426
f 406 426 407
f 407 426 455
f 407 455 447
f 408 444 457
f 408 457 430
f 408 430 429
f 408 429 409
f 410 448 449
f 410 449 411
f 410 446 450
f 410 450 448
f 411 449 451
f 411 451 412
f 412 451 414
f 412 414 413
f 414 451 452
f 414 452 453
f 414 453 454
f 414 454 417
f 414 417 415
f 415 417 416
f 417 455 426
f 417 454 456
f 417 456 455
f 418 430 457
f 418 457 420
f 418 420 419
f 420 457 458
f 420 458 459
f 420 459 422
f 420 422 421
f 422 459 460
f 422 460 424
f 422 424 423
f 424 460 461
f 424 461 462
f 424 462 463
f 424 463 441
f 424 441 425
f 425 441 440
f 425 440 439
f 425 439 431
f 432 464 433
f 434 462 461
f 434 461 435
f 434 437 463
f 434 463 462
f 435 461 460
f 435 460 436
f 436 460 459
f 436 459 438
f 438 459 458
f 438 458 443
f 443 458 457
f 443 457 444
f 445 447 455
f 445 455 456
f 445 456 454
f 445 454 446
f 446 454 453
f 446 453 450
f 448 452 451
f 448 451 449
f 448 450 453
f 448 453 452

